<svg xmlns="http://www.w3.org/2000/svg" version="1.1" width = "750" height = "750" viewBox = "0 0 750 750"  shape-rendering="crispEdges">
<path stroke-linejoin="round" stroke-linecap="round" stroke="rgb(255,255,0)" stroke-width="3.749996" fill="none" d="M 93.750000 750.000000 L 0.000000 0.000000 " />
<path stroke-linejoin="round" stroke-linecap="round" stroke="rgb(63,63,63)" stroke-width="3.749996" fill="none" d="M 0.000000 0.000000 L 750.000000 750.000000 M 93.750000 750.000000 L 43.750004 0.000000 " />
<path stroke-linejoin="round" stroke-linecap="round" stroke="rgb(191,191,191)" stroke-width="3.749996" fill="none" d="M 0.000000 656.250000 L 93.750000 750.000000 M 0.000000 0.000000 L 49.999996 750.000000 " />
<path stroke-linejoin="round" stroke-linecap="round" stroke="rgb(0,0,255)" stroke-width="1.874998" fill="none" d="M 0.000000 750.000000 L 750.000000 733.333313 " />
<path stroke-linejoin="round" stroke-linecap="round" stroke="rgb(255,0,0)" stroke-width="3.749996" fill="none" d="M 93.611305 747.919739 L 93.750000 750.000000 " />
<path stroke-linejoin="round" stroke-linecap="round" stroke="rgb(0,0,255)" stroke-width="1.874998" fill="none" d="M 0.000000 750.000000 L 750.000000 715.909058 " />
<path stroke-linejoin="round" stroke-linecap="round" stroke="rgb(255,0,0)" stroke-width="3.749996" fill="none" d="M 91.531052 745.839478 L 93.611305 747.919739 " />
<path stroke-linejoin="round" stroke-linecap="round" stroke="rgb(0,0,255)" stroke-width="1.874998" fill="none" d="M 0.000000 750.000000 L 750.000000 697.674377 " />
<path stroke-linejoin="round" stroke-linecap="round" stroke="rgb(255,0,0)" stroke-width="3.749996" fill="none" d="M 89.450821 743.759216 L 91.531052 745.839478 " />
<path stroke-linejoin="round" stroke-linecap="round" stroke="rgb(0,0,255)" stroke-width="1.874998" fill="none" d="M 0.000000 750.000000 L 750.000000 681.818176 " />
<path stroke-linejoin="round" stroke-linecap="round" stroke="rgb(255,0,0)" stroke-width="3.749996" fill="none" d="M 87.717262 742.025696 L 89.450821 743.759216 " />
<path stroke-linejoin="round" stroke-linecap="round" stroke="rgb(0,0,255)" stroke-width="1.874998" fill="none" d="M 0.000000 750.000000 L 750.000000 678.571411 " />
<path stroke-linejoin="round" stroke-linecap="round" stroke="rgb(255,0,0)" stroke-width="3.749996" fill="none" d="M 87.370544 741.678955 L 87.717262 742.025696 " />
<path stroke-linejoin="round" stroke-linecap="round" stroke="rgb(0,0,255)" stroke-width="1.874998" fill="none" d="M 0.000000 750.000000 L 750.000000 662.790710 " />
<path stroke-linejoin="round" stroke-linecap="round" stroke="rgb(255,0,0)" stroke-width="3.749996" fill="none" d="M 85.723694 740.032104 L 87.370544 741.678955 " />
<path stroke-linejoin="round" stroke-linecap="round" stroke="rgb(0,0,255)" stroke-width="1.874998" fill="none" d="M 0.000000 750.000000 L 750.000000 658.536560 " />
<path stroke-linejoin="round" stroke-linecap="round" stroke="rgb(255,0,0)" stroke-width="3.749996" fill="none" d="M 85.290291 739.598755 L 85.723671 740.032104 " />
<path stroke-linejoin="round" stroke-linecap="round" stroke="rgb(0,0,255)" stroke-width="1.874998" fill="none" d="M 0.000000 750.000000 L 750.000000 637.500000 " />
<path stroke-linejoin="round" stroke-linecap="round" stroke="rgb(255,0,0)" stroke-width="3.749996" fill="none" d="M 83.210037 737.518494 L 85.290291 739.598755 " />
<path stroke-linejoin="round" stroke-linecap="round" stroke="rgb(0,0,255)" stroke-width="1.874998" fill="none" d="M 0.000000 750.000000 L 750.000000 615.384644 " />
<path stroke-linejoin="round" stroke-linecap="round" stroke="rgb(255,0,0)" stroke-width="3.749996" fill="none" d="M 81.129784 735.438232 L 83.210037 737.518494 " />
<path stroke-linejoin="round" stroke-linecap="round" stroke="rgb(0,0,255)" stroke-width="1.874998" fill="none" d="M 0.000000 750.000000 L 750.000000 592.105225 " />
<path stroke-linejoin="round" stroke-linecap="round" stroke="rgb(255,0,0)" stroke-width="3.749996" fill="none" d="M 79.049530 733.357971 L 81.129784 735.438232 " />
<path stroke-linejoin="round" stroke-linecap="round" stroke="rgb(0,0,255)" stroke-width="1.874998" fill="none" d="M 0.000000 750.000000 L 750.000000 567.567566 " />
<path stroke-linejoin="round" stroke-linecap="round" stroke="rgb(255,0,0)" stroke-width="3.749996" fill="none" d="M 76.969276 731.277710 L 79.049530 733.357971 " />
<path stroke-linejoin="round" stroke-linecap="round" stroke="rgb(0,0,255)" stroke-width="1.874998" fill="none" d="M 0.000000 750.000000 L 750.000000 541.666687 " />
<path stroke-linejoin="round" stroke-linecap="round" stroke="rgb(255,0,0)" stroke-width="3.749996" fill="none" d="M 74.889023 729.197510 L 76.969276 731.277710 " />
<path stroke-linejoin="round" stroke-linecap="round" stroke="rgb(0,0,255)" stroke-width="1.874998" fill="none" d="M 0.000000 750.000000 L 750.000000 514.285706 " />
<path stroke-linejoin="round" stroke-linecap="round" stroke="rgb(255,0,0)" stroke-width="3.749996" fill="none" d="M 72.808784 727.117249 L 74.889023 729.197510 " />
<path stroke-linejoin="round" stroke-linecap="round" stroke="rgb(0,0,255)" stroke-width="1.874998" fill="none" d="M 0.000000 750.000000 L 750.000000 499.999969 " />
<path stroke-linejoin="round" stroke-linecap="round" stroke="rgb(255,0,0)" stroke-width="3.749996" fill="none" d="M 71.768646 726.077087 L 72.808784 727.117249 " />
<path stroke-linejoin="round" stroke-linecap="round" stroke="rgb(0,0,255)" stroke-width="1.874998" fill="none" d="M 0.000000 750.000000 L 750.000000 485.294128 " />
<path stroke-linejoin="round" stroke-linecap="round" stroke="rgb(255,0,0)" stroke-width="3.749996" fill="none" d="M 70.728531 725.036987 L 71.768646 726.077087 " />
<path stroke-linejoin="round" stroke-linecap="round" stroke="rgb(0,0,255)" stroke-width="1.874998" fill="none" d="M 0.000000 750.000000 L 750.000000 471.428558 " />
<path stroke-linejoin="round" stroke-linecap="round" stroke="rgb(255,0,0)" stroke-width="3.749996" fill="none" d="M 69.775078 724.083496 L 70.728531 725.036987 " />
<path stroke-linejoin="round" stroke-linecap="round" stroke="rgb(0,0,255)" stroke-width="1.874998" fill="none" d="M 0.000000 750.000000 L 750.000000 454.545471 " />
<path stroke-linejoin="round" stroke-linecap="round" stroke="rgb(255,0,0)" stroke-width="3.749996" fill="none" d="M 68.648277 722.956726 L 69.775078 724.083496 " />
<path stroke-linejoin="round" stroke-linecap="round" stroke="rgb(0,0,255)" stroke-width="1.874998" fill="none" d="M 0.000000 750.000000 L 750.000000 421.875000 " />
<path stroke-linejoin="round" stroke-linecap="round" stroke="rgb(255,0,0)" stroke-width="3.749996" fill="none" d="M 66.568024 720.876465 L 68.648277 722.956726 " />
<path stroke-linejoin="round" stroke-linecap="round" stroke="rgb(0,0,255)" stroke-width="1.874998" fill="none" d="M 0.000000 750.000000 L 750.000000 409.090881 " />
<path stroke-linejoin="round" stroke-linecap="round" stroke="rgb(255,0,0)" stroke-width="3.749996" fill="none" d="M 65.787926 720.096436 L 66.568024 720.876465 " />
<path stroke-linejoin="round" stroke-linecap="round" stroke="rgb(0,0,255)" stroke-width="1.874998" fill="none" d="M 0.000000 750.000000 L 750.000000 375.000000 " />
<path stroke-linejoin="round" stroke-linecap="round" stroke="rgb(255,0,0)" stroke-width="3.749996" fill="none" d="M 63.794373 718.102783 L 65.787926 720.096436 " />
<path stroke-linejoin="round" stroke-linecap="round" stroke="rgb(0,0,255)" stroke-width="1.874998" fill="none" d="M 0.000000 750.000000 L 750.000000 338.709656 " />
<path stroke-linejoin="round" stroke-linecap="round" stroke="rgb(255,0,0)" stroke-width="3.749996" fill="none" d="M 61.800777 716.109192 L 63.794373 718.102783 " />
<path stroke-linejoin="round" stroke-linecap="round" stroke="rgb(0,0,255)" stroke-width="1.874998" fill="none" d="M 0.000000 750.000000 L 750.000000 328.125000 " />
<path stroke-linejoin="round" stroke-linecap="round" stroke="rgb(255,0,0)" stroke-width="3.749996" fill="none" d="M 61.242588 715.551025 L 61.800777 716.109192 " />
<path stroke-linejoin="round" stroke-linecap="round" stroke="rgb(0,0,255)" stroke-width="1.874998" fill="none" d="M 0.000000 750.000000 L 750.000000 299.999969 " />
<path stroke-linejoin="round" stroke-linecap="round" stroke="rgb(255,0,0)" stroke-width="3.749996" fill="none" d="M 59.807205 714.115662 L 61.242588 715.551025 " />
<path stroke-linejoin="round" stroke-linecap="round" stroke="rgb(0,0,255)" stroke-width="1.874998" fill="none" d="M 0.000000 750.000000 L 750.000000 290.322571 " />
<path stroke-linejoin="round" stroke-linecap="round" stroke="rgb(255,0,0)" stroke-width="3.749996" fill="none" d="M 59.328766 713.637207 L 59.807205 714.115662 " />
<path stroke-linejoin="round" stroke-linecap="round" stroke="rgb(0,0,255)" stroke-width="1.874998" fill="none" d="M 0.000000 750.000000 L 750.000000 258.620697 " />
<path stroke-linejoin="round" stroke-linecap="round" stroke="rgb(255,0,0)" stroke-width="3.749996" fill="none" d="M 57.813629 712.122131 L 59.328766 713.637207 " />
<path stroke-linejoin="round" stroke-linecap="round" stroke="rgb(0,0,255)" stroke-width="1.874998" fill="none" d="M 0.000000 750.000000 L 750.000000 249.999985 " />
<path stroke-linejoin="round" stroke-linecap="round" stroke="rgb(255,0,0)" stroke-width="3.749996" fill="none" d="M 57.414921 711.723328 L 57.813629 712.122131 " />
<path stroke-linejoin="round" stroke-linecap="round" stroke="rgb(0,0,255)" stroke-width="1.874998" fill="none" d="M 0.000000 750.000000 L 750.000000 206.896576 " />
<path stroke-linejoin="round" stroke-linecap="round" stroke="rgb(255,0,0)" stroke-width="3.749996" fill="none" d="M 55.501095 709.809570 L 57.414921 711.723328 " />
<path stroke-linejoin="round" stroke-linecap="round" stroke="rgb(0,0,255)" stroke-width="1.874998" fill="none" d="M 0.000000 750.000000 L 750.000000 199.999985 " />
<path stroke-linejoin="round" stroke-linecap="round" stroke="rgb(255,0,0)" stroke-width="3.749996" fill="none" d="M 55.206657 709.515076 L 55.501095 709.809570 " />
<path stroke-linejoin="round" stroke-linecap="round" stroke="rgb(0,0,255)" stroke-width="1.874998" fill="none" d="M 0.000000 750.000000 L 750.000000 160.714294 " />
<path stroke-linejoin="round" stroke-linecap="round" stroke="rgb(255,0,0)" stroke-width="3.749996" fill="none" d="M 53.587273 707.895752 L 55.206657 709.515076 " />
<path stroke-linejoin="round" stroke-linecap="round" stroke="rgb(0,0,255)" stroke-width="1.874998" fill="none" d="M 0.000000 750.000000 L 750.000000 111.111092 " />
<path stroke-linejoin="round" stroke-linecap="round" stroke="rgb(255,0,0)" stroke-width="3.749996" fill="none" d="M 51.673428 705.981934 L 53.587273 707.895752 " />
<path stroke-linejoin="round" stroke-linecap="round" stroke="rgb(0,0,255)" stroke-width="1.874998" fill="none" d="M 0.000000 750.000000 L 750.000000 107.142853 " />
<path stroke-linejoin="round" stroke-linecap="round" stroke="rgb(255,0,0)" stroke-width="3.749996" fill="none" d="M 51.526218 705.834656 L 51.673428 705.981934 " />
<path stroke-linejoin="round" stroke-linecap="round" stroke="rgb(0,0,255)" stroke-width="1.874998" fill="none" d="M 0.000000 750.000000 L 750.000000 57.692303 " />
<path stroke-linejoin="round" stroke-linecap="round" stroke="rgb(255,0,0)" stroke-width="3.749996" fill="none" d="M 49.759605 704.068054 L 51.526218 705.834656 " />
<path stroke-linejoin="round" stroke-linecap="round" stroke="rgb(0,0,255)" stroke-width="1.874998" fill="none" d="M 0.000000 750.000000 L 750.000000 0.000000 " />
<path stroke-linejoin="round" stroke-linecap="round" stroke="rgb(255,0,0)" stroke-width="3.749996" fill="none" d="M 47.845779 702.154236 L 49.759605 704.068054 " />
<path stroke-linejoin="round" stroke-linecap="round" stroke="rgb(0,0,255)" stroke-width="1.874998" fill="none" d="M 0.000000 750.000000 L 694.444458 0.000000 " />
<path stroke-linejoin="round" stroke-linecap="round" stroke="rgb(255,0,0)" stroke-width="3.749996" fill="none" d="M 46.641781 699.626892 L 47.845779 702.154236 " />
<path stroke-linejoin="round" stroke-linecap="round" stroke="rgb(0,0,255)" stroke-width="1.874998" fill="none" d="M 0.000000 750.000000 L 642.857178 0.000000 " />
<path stroke-linejoin="round" stroke-linecap="round" stroke="rgb(255,0,0)" stroke-width="3.749996" fill="none" d="M 46.391754 695.876282 L 46.641781 699.626892 " />
<path stroke-linejoin="round" stroke-linecap="round" stroke="rgb(0,0,255)" stroke-width="1.874998" fill="none" d="M 0.000000 750.000000 L 594.827576 0.000000 " />
<path stroke-linejoin="round" stroke-linecap="round" stroke="rgb(255,0,0)" stroke-width="3.749996" fill="none" d="M 46.122997 691.844910 L 46.391754 695.876282 " />
<path stroke-linejoin="round" stroke-linecap="round" stroke="rgb(0,0,255)" stroke-width="1.874998" fill="none" d="M 0.000000 750.000000 L 556.451599 0.000000 " />
<path stroke-linejoin="round" stroke-linecap="round" stroke="rgb(255,0,0)" stroke-width="3.749996" fill="none" d="M 45.877666 688.164917 L 46.122997 691.844910 " />
<path stroke-linejoin="round" stroke-linecap="round" stroke="rgb(0,0,255)" stroke-width="1.874998" fill="none" d="M 0.000000 750.000000 L 522.727295 0.000000 " />
<path stroke-linejoin="round" stroke-linecap="round" stroke="rgb(255,0,0)" stroke-width="3.749996" fill="none" d="M 45.634926 684.523804 L 45.877666 688.164917 " />
<path stroke-linejoin="round" stroke-linecap="round" stroke="rgb(0,0,255)" stroke-width="1.874998" fill="none" d="M 0.000000 750.000000 L 492.857147 0.000000 " />
<path stroke-linejoin="round" stroke-linecap="round" stroke="rgb(255,0,0)" stroke-width="3.749996" fill="none" d="M 45.394733 680.921021 L 45.634926 684.523804 " />
<path stroke-linejoin="round" stroke-linecap="round" stroke="rgb(0,0,255)" stroke-width="1.874998" fill="none" d="M 0.000000 750.000000 L 458.333344 0.000000 " />
<path stroke-linejoin="round" stroke-linecap="round" stroke="rgb(255,0,0)" stroke-width="3.749996" fill="none" d="M 45.081966 676.229492 L 45.394733 680.921021 " />
<path stroke-linejoin="round" stroke-linecap="round" stroke="rgb(0,0,255)" stroke-width="1.874998" fill="none" d="M 0.000000 750.000000 L 434.210510 0.000000 " />
<path stroke-linejoin="round" stroke-linecap="round" stroke="rgb(255,0,0)" stroke-width="3.749996" fill="none" d="M 44.836945 672.554321 L 45.081966 676.229492 " />
<path stroke-linejoin="round" stroke-linecap="round" stroke="rgb(0,0,255)" stroke-width="1.874998" fill="none" d="M 0.000000 750.000000 L 412.500000 0.000000 " />
<path stroke-linejoin="round" stroke-linecap="round" stroke="rgb(255,0,0)" stroke-width="3.749996" fill="none" d="M 44.594585 668.918945 L 44.836945 672.554321 " />
<path stroke-linejoin="round" stroke-linecap="round" stroke="rgb(0,0,255)" stroke-width="1.874998" fill="none" d="M 0.000000 750.000000 L 392.857178 0.000000 " />
<path stroke-linejoin="round" stroke-linecap="round" stroke="rgb(255,0,0)" stroke-width="3.749996" fill="none" d="M 44.354839 665.322571 L 44.594585 668.918945 " />
<path stroke-linejoin="round" stroke-linecap="round" stroke="rgb(0,0,255)" stroke-width="1.874998" fill="none" d="M 0.000000 750.000000 L 366.279053 0.000000 " />
<path stroke-linejoin="round" stroke-linecap="round" stroke="rgb(255,0,0)" stroke-width="3.749996" fill="none" d="M 43.994396 659.916199 L 44.354839 665.322571 " />
<path stroke-linejoin="round" stroke-linecap="round" stroke="rgb(0,0,255)" stroke-width="1.874998" fill="none" d="M 0.000000 750.000000 L 350.000000 0.000000 " />
<path stroke-linejoin="round" stroke-linecap="round" stroke="rgb(255,0,0)" stroke-width="3.749996" fill="none" d="M 43.750004 656.250000 L 43.994396 659.916199 " />
<path stroke-linejoin="round" stroke-linecap="round" stroke="rgb(0,0,255)" stroke-width="1.874998" fill="none" d="M 0.000000 750.000000 L 326.086975 0.000000 " />
<path stroke-linejoin="round" stroke-linecap="round" stroke="rgb(255,0,0)" stroke-width="3.749996" fill="none" d="M 43.352589 650.289062 L 43.750004 656.250000 " />
<path stroke-linejoin="round" stroke-linecap="round" stroke="rgb(0,0,255)" stroke-width="1.874998" fill="none" d="M 0.000000 750.000000 L 312.500000 0.000000 " />
<path stroke-linejoin="round" stroke-linecap="round" stroke="rgb(255,0,0)" stroke-width="3.749996" fill="none" d="M 43.103436 646.551758 L 43.352589 650.289062 " />
<path stroke-linejoin="round" stroke-linecap="round" stroke="rgb(0,0,255)" stroke-width="1.874998" fill="none" d="M 0.000000 750.000000 L 290.816345 0.000000 " />
<path stroke-linejoin="round" stroke-linecap="round" stroke="rgb(255,0,0)" stroke-width="3.749996" fill="none" d="M 42.664669 639.970093 L 43.103436 646.551758 " />
<path stroke-linejoin="round" stroke-linecap="round" stroke="rgb(0,0,255)" stroke-width="1.874998" fill="none" d="M 0.000000 750.000000 L 228.813568 0.000000 " />
<path stroke-linejoin="round" stroke-linecap="round" stroke="rgb(255,0,0)" stroke-width="3.749996" fill="none" d="M 41.033417 615.501587 L 42.664669 639.970093 " />
<path stroke-linejoin="round" stroke-linecap="round" stroke="rgb(0,0,255)" stroke-width="1.874998" fill="none" d="M 0.000000 750.000000 L 192.857147 0.000000 " />
<path stroke-linejoin="round" stroke-linecap="round" stroke="rgb(255,0,0)" stroke-width="3.749996" fill="none" d="M 39.705879 595.588257 L 41.033417 615.501587 " />
<path stroke-linejoin="round" stroke-linecap="round" stroke="rgb(0,0,255)" stroke-width="1.874998" fill="none" d="M 0.000000 750.000000 L 178.125015 0.000000 " />
<path stroke-linejoin="round" stroke-linecap="round" stroke="rgb(255,0,0)" stroke-width="3.749996" fill="none" d="M 39.041096 585.616455 L 39.705879 595.588257 " />
<path stroke-linejoin="round" stroke-linecap="round" stroke="rgb(0,0,255)" stroke-width="1.874998" fill="none" d="M 0.000000 750.000000 L 159.374985 0.000000 " />
<path stroke-linejoin="round" stroke-linecap="round" stroke="rgb(255,0,0)" stroke-width="3.749996" fill="none" d="M 38.059696 570.895508 L 39.041096 585.616455 " />
<path stroke-linejoin="round" stroke-linecap="round" stroke="rgb(0,0,255)" stroke-width="1.874998" fill="none" d="M 0.000000 750.000000 L 133.333328 0.000000 " />
<path stroke-linejoin="round" stroke-linecap="round" stroke="rgb(255,0,0)" stroke-width="3.749996" fill="none" d="M 36.363625 545.454590 L 38.059696 570.895508 " />
<path stroke-linejoin="round" stroke-linecap="round" stroke="rgb(0,0,255)" stroke-width="1.874998" fill="none" d="M 0.000000 750.000000 L 127.500015 0.000000 " />
<path stroke-linejoin="round" stroke-linecap="round" stroke="rgb(255,0,0)" stroke-width="3.749996" fill="none" d="M 35.915470 538.732483 L 36.363625 545.454590 " />
<path stroke-linejoin="round" stroke-linecap="round" stroke="rgb(0,0,255)" stroke-width="1.874998" fill="none" d="M 0.000000 750.000000 L 118.811890 0.000000 " />
<path stroke-linejoin="round" stroke-linecap="round" stroke="rgb(255,0,0)" stroke-width="3.749996" fill="none" d="M 35.190605 527.859314 L 35.915470 538.732483 " />
<path stroke-linejoin="round" stroke-linecap="round" stroke="rgb(0,0,255)" stroke-width="1.874998" fill="none" d="M 0.000000 750.000000 L 109.090897 0.000000 " />
<path stroke-linejoin="round" stroke-linecap="round" stroke="rgb(255,0,0)" stroke-width="3.749996" fill="none" d="M 34.285694 514.285767 L 35.190605 527.859314 " />
<path stroke-linejoin="round" stroke-linecap="round" stroke="rgb(0,0,255)" stroke-width="1.874998" fill="none" d="M 0.000000 750.000000 L 106.249985 0.000000 " />
<path stroke-linejoin="round" stroke-linecap="round" stroke="rgb(255,0,0)" stroke-width="3.749996" fill="none" d="M 33.999996 510.000061 L 34.285694 514.285767 " />
<path stroke-linejoin="round" stroke-linecap="round" stroke="rgb(0,0,255)" stroke-width="1.874998" fill="none" d="M 0.000000 750.000000 L 103.448288 0.000000 " />
<path stroke-linejoin="round" stroke-linecap="round" stroke="rgb(255,0,0)" stroke-width="3.749996" fill="none" d="M 33.707855 505.618042 L 33.999996 510.000061 " />
<path stroke-linejoin="round" stroke-linecap="round" stroke="rgb(0,0,255)" stroke-width="1.874998" fill="none" d="M 0.000000 750.000000 L 101.941734 0.000000 " />
<path stroke-linejoin="round" stroke-linecap="round" stroke="rgb(255,0,0)" stroke-width="3.749996" fill="none" d="M 33.546322 503.194977 L 33.707855 505.618042 " />
<path stroke-linejoin="round" stroke-linecap="round" stroke="rgb(0,0,255)" stroke-width="1.874998" fill="none" d="M 0.000000 750.000000 L 99.557518 0.000000 " />
<path stroke-linejoin="round" stroke-linecap="round" stroke="rgb(255,0,0)" stroke-width="3.749996" fill="none" d="M 33.284023 499.260437 L 33.546322 503.194977 " />
<path stroke-linejoin="round" stroke-linecap="round" stroke="rgb(0,0,255)" stroke-width="1.874998" fill="none" d="M 0.000000 750.000000 L 85.365860 0.000000 " />
<path stroke-linejoin="round" stroke-linecap="round" stroke="rgb(255,0,0)" stroke-width="3.749996" fill="none" d="M 31.531513 472.973053 L 33.284023 499.260437 " />
<path stroke-linejoin="round" stroke-linecap="round" stroke="rgb(0,0,255)" stroke-width="1.874998" fill="none" d="M 0.000000 750.000000 L 84.586456 0.000000 " />
<path stroke-linejoin="round" stroke-linecap="round" stroke="rgb(255,0,0)" stroke-width="3.749996" fill="none" d="M 31.424582 471.368774 L 31.531534 472.973053 " />
<path stroke-linejoin="round" stroke-linecap="round" stroke="rgb(0,0,255)" stroke-width="1.874998" fill="none" d="M 0.000000 750.000000 L 73.426567 0.000000 " />
<path stroke-linejoin="round" stroke-linecap="round" stroke="rgb(255,0,0)" stroke-width="3.749996" fill="none" d="M 29.745028 446.175720 L 31.424582 471.368774 " />
<path stroke-linejoin="round" stroke-linecap="round" stroke="rgb(0,0,255)" stroke-width="1.874998" fill="none" d="M 0.000000 750.000000 L 63.725487 0.000000 " />
<path stroke-linejoin="round" stroke-linecap="round" stroke="rgb(255,0,0)" stroke-width="3.749996" fill="none" d="M 28.017239 420.258698 L 29.745028 446.175720 " />
<path stroke-linejoin="round" stroke-linecap="round" stroke="rgb(0,0,255)" stroke-width="1.874998" fill="none" d="M 0.000000 750.000000 L 57.324841 0.000000 " />
<path stroke-linejoin="round" stroke-linecap="round" stroke="rgb(255,0,0)" stroke-width="3.749996" fill="none" d="M 26.706219 400.593536 L 28.017239 420.258698 " />
<path stroke-linejoin="round" stroke-linecap="round" stroke="rgb(0,0,255)" stroke-width="1.874998" fill="none" d="M 0.000000 750.000000 L 50.847462 0.000000 " />
<path stroke-linejoin="round" stroke-linecap="round" stroke="rgb(255,0,0)" stroke-width="3.749996" fill="none" d="M 25.210083 378.151428 L 26.706219 400.593536 " />
<path stroke-linejoin="round" stroke-linecap="round" stroke="rgb(0,0,255)" stroke-width="1.874998" fill="none" d="M 0.000000 750.000000 L 44.117645 0.000000 " />
<path stroke-linejoin="round" stroke-linecap="round" stroke="rgb(255,0,0)" stroke-width="3.749996" fill="none" d="M 23.437500 351.562683 L 25.210083 378.151428 " />
<path stroke-linejoin="round" stroke-linecap="round" stroke="rgb(0,0,255)" stroke-width="1.874998" fill="none" d="M 0.000000 750.000000 L 38.071075 0.000000 " />
<path stroke-linejoin="round" stroke-linecap="round" stroke="rgb(255,0,0)" stroke-width="3.749996" fill="none" d="M 21.613821 324.207672 L 23.437500 351.562683 " />
<path stroke-linejoin="round" stroke-linecap="round" stroke="rgb(0,0,255)" stroke-width="1.874998" fill="none" d="M 0.000000 750.000000 L 37.688435 0.000000 " />
<path stroke-linejoin="round" stroke-linecap="round" stroke="rgb(255,0,0)" stroke-width="3.749996" fill="none" d="M 21.489971 322.349792 L 21.613821 324.207672 " />
<path stroke-linejoin="round" stroke-linecap="round" stroke="rgb(0,0,255)" stroke-width="1.874998" fill="none" d="M 0.000000 750.000000 L 37.292809 0.000000 " />
<path stroke-linejoin="round" stroke-linecap="round" stroke="rgb(255,0,0)" stroke-width="3.749996" fill="none" d="M 21.360756 320.411652 L 21.489948 322.349792 " />
<path stroke-linejoin="round" stroke-linecap="round" stroke="rgb(0,0,255)" stroke-width="1.874998" fill="none" d="M 0.000000 750.000000 L 36.096252 0.000000 " />
<path stroke-linejoin="round" stroke-linecap="round" stroke="rgb(255,0,0)" stroke-width="3.749996" fill="none" d="M 20.962715 314.441254 L 21.360756 320.411652 " />
<path stroke-linejoin="round" stroke-linecap="round" stroke="rgb(0,0,255)" stroke-width="1.874998" fill="none" d="M 0.000000 750.000000 L 30.456841 0.000000 " />
<path stroke-linejoin="round" stroke-linecap="round" stroke="rgb(255,0,0)" stroke-width="3.749996" fill="none" d="M 18.927433 283.911957 L 20.962715 314.441315 " />
<path stroke-linejoin="round" stroke-linecap="round" stroke="rgb(0,0,255)" stroke-width="1.874998" fill="none" d="M 0.000000 750.000000 L 25.362320 0.000000 " />
<path stroke-linejoin="round" stroke-linecap="round" stroke="rgb(255,0,0)" stroke-width="3.749996" fill="none" d="M 16.826906 252.404144 L 18.927433 283.911957 " />
<path stroke-linejoin="round" stroke-linecap="round" stroke="rgb(0,0,255)" stroke-width="1.874998" fill="none" d="M 0.000000 750.000000 L 20.737320 0.000000 " />
<path stroke-linejoin="round" stroke-linecap="round" stroke="rgb(255,0,0)" stroke-width="3.749996" fill="none" d="M 14.657982 219.870010 L 16.826906 252.404144 " />
<path stroke-linejoin="round" stroke-linecap="round" stroke="rgb(0,0,255)" stroke-width="1.874998" fill="none" d="M 0.000000 750.000000 L 18.987335 0.000000 " />
<path stroke-linejoin="round" stroke-linecap="round" stroke="rgb(255,0,0)" stroke-width="3.749996" fill="none" d="M 13.761454 206.422363 L 14.657982 219.870010 " />
<path stroke-linejoin="round" stroke-linecap="round" stroke="rgb(0,0,255)" stroke-width="1.874998" fill="none" d="M 0.000000 750.000000 L 15.182198 0.000000 " />
<path stroke-linejoin="round" stroke-linecap="round" stroke="rgb(255,0,0)" stroke-width="3.749996" fill="none" d="M 11.645950 174.689865 L 13.761454 206.422363 " />
<path stroke-linejoin="round" stroke-linecap="round" stroke="rgb(0,0,255)" stroke-width="1.874998" fill="none" d="M 0.000000 750.000000 L 11.673153 0.000000 " />
<path stroke-linejoin="round" stroke-linecap="round" stroke="rgb(255,0,0)" stroke-width="3.749996" fill="none" d="M 9.463728 141.956223 L 11.645950 174.689865 " />
<path stroke-linejoin="round" stroke-linecap="round" stroke="rgb(0,0,255)" stroke-width="1.874998" fill="none" d="M 0.000000 750.000000 L 10.830336 0.000000 " />
<path stroke-linejoin="round" stroke-linecap="round" stroke="rgb(255,0,0)" stroke-width="3.749996" fill="none" d="M 8.902073 133.531586 L 9.463728 141.956223 " />
<path stroke-linejoin="round" stroke-linecap="round" stroke="rgb(0,0,255)" stroke-width="1.874998" fill="none" d="M 0.000000 750.000000 L 10.791376 0.000000 " />
<path stroke-linejoin="round" stroke-linecap="round" stroke="rgb(255,0,0)" stroke-width="3.749996" fill="none" d="M 8.875743 133.136536 L 8.902073 133.531586 " />
<path stroke-linejoin="round" stroke-linecap="round" stroke="rgb(0,0,255)" stroke-width="1.874998" fill="none" d="M 0.000000 750.000000 L 10.526307 0.000000 " />
<path stroke-linejoin="round" stroke-linecap="round" stroke="rgb(255,0,0)" stroke-width="3.749996" fill="none" d="M 8.695655 130.435196 L 8.875743 133.136536 " />
<path stroke-linejoin="round" stroke-linecap="round" stroke="rgb(0,0,255)" stroke-width="1.874998" fill="none" d="M 0.000000 750.000000 L 10.452971 0.000000 " />
<path stroke-linejoin="round" stroke-linecap="round" stroke="rgb(255,0,0)" stroke-width="3.749996" fill="none" d="M 8.645519 129.683426 L 8.695655 130.435196 " />
<path stroke-linejoin="round" stroke-linecap="round" stroke="rgb(0,0,255)" stroke-width="1.874998" fill="none" d="M 0.000000 750.000000 L 8.555129 0.000000 " />
<path stroke-linejoin="round" stroke-linecap="round" stroke="rgb(255,0,0)" stroke-width="3.749996" fill="none" d="M 7.305197 109.578384 L 8.645519 129.683426 " />
<path stroke-linejoin="round" stroke-linecap="round" stroke="rgb(0,0,255)" stroke-width="1.874998" fill="none" d="M 0.000000 750.000000 L 5.494505 0.000000 " />
<path stroke-linejoin="round" stroke-linecap="round" stroke="rgb(255,0,0)" stroke-width="3.749996" fill="none" d="M 4.950486 74.257896 L 7.305197 109.578384 " />
<path stroke-linejoin="round" stroke-linecap="round" stroke="rgb(0,0,255)" stroke-width="1.874998" fill="none" d="M 0.000000 750.000000 L 2.650179 0.000000 " />
<path stroke-linejoin="round" stroke-linecap="round" stroke="rgb(255,0,0)" stroke-width="3.749996" fill="none" d="M 2.516784 37.752182 L 4.950486 74.257896 " />
<path stroke-linejoin="round" stroke-linecap="round" stroke="rgb(0,0,255)" stroke-width="1.874998" fill="none" d="M 0.000000 750.000000 L 0.000000 0.000000 " />
<path stroke-linejoin="round" stroke-linecap="round" stroke="rgb(255,0,0)" stroke-width="3.749996" fill="none" d="M 0.000000 0.000000 L 2.516784 37.752182 " />
<circle cx="93.611307" cy="747.919768" r="3.749996" style="fill:rgb(0,127,0);stroke-width:1" /><circle cx="91.531053" cy="745.839491" r="3.749996" style="fill:rgb(0,127,0);stroke-width:1" /><circle cx="89.450821" cy="743.759237" r="3.749996" style="fill:rgb(0,127,0);stroke-width:1" /><circle cx="87.717265" cy="742.025703" r="3.749996" style="fill:rgb(0,127,0);stroke-width:1" /><circle cx="87.370545" cy="741.679005" r="3.749996" style="fill:rgb(0,127,0);stroke-width:1" /><circle cx="85.723691" cy="740.032129" r="3.749996" style="fill:rgb(0,127,0);stroke-width:1" /><circle cx="85.290290" cy="739.598751" r="3.749996" style="fill:rgb(0,127,0);stroke-width:1" /><circle cx="83.210036" cy="737.518497" r="3.749996" style="fill:rgb(0,127,0);stroke-width:1" /><circle cx="81.129782" cy="735.438243" r="3.749996" style="fill:rgb(0,127,0);stroke-width:1" /><circle cx="79.049528" cy="733.357988" r="3.749996" style="fill:rgb(0,127,0);stroke-width:1" /><circle cx="76.969273" cy="731.277734" r="3.749996" style="fill:rgb(0,127,0);stroke-width:1" /><circle cx="74.889019" cy="729.197502" r="3.749996" style="fill:rgb(0,127,0);stroke-width:1" /><circle cx="72.808787" cy="727.117248" r="3.749996" style="fill:rgb(0,127,0);stroke-width:1" /><circle cx="71.768649" cy="726.077110" r="3.749996" style="fill:rgb(0,127,0);stroke-width:1" /><circle cx="70.728533" cy="725.036994" r="3.749996" style="fill:rgb(0,127,0);stroke-width:1" /><circle cx="69.775075" cy="724.083535" r="3.749996" style="fill:rgb(0,127,0);stroke-width:1" /><circle cx="68.648279" cy="722.956739" r="3.749996" style="fill:rgb(0,127,0);stroke-width:1" /><circle cx="66.568024" cy="720.876485" r="3.749996" style="fill:rgb(0,127,0);stroke-width:1" /><circle cx="65.787926" cy="720.096387" r="3.749996" style="fill:rgb(0,127,0);stroke-width:1" /><circle cx="63.794374" cy="718.102813" r="3.749996" style="fill:rgb(0,127,0);stroke-width:1" /><circle cx="61.800778" cy="716.109239" r="3.749996" style="fill:rgb(0,127,0);stroke-width:1" /><circle cx="61.242588" cy="715.551049" r="3.749996" style="fill:rgb(0,127,0);stroke-width:1" /><circle cx="59.807204" cy="714.115664" r="3.749996" style="fill:rgb(0,127,0);stroke-width:1" /><circle cx="59.328765" cy="713.637203" r="3.749996" style="fill:rgb(0,127,0);stroke-width:1" /><circle cx="57.813630" cy="712.122090" r="3.749996" style="fill:rgb(0,127,0);stroke-width:1" /><circle cx="57.414919" cy="711.723380" r="3.749996" style="fill:rgb(0,127,0);stroke-width:1" /><circle cx="55.501096" cy="709.809557" r="3.749996" style="fill:rgb(0,127,0);stroke-width:1" /><circle cx="55.206656" cy="709.515117" r="3.749996" style="fill:rgb(0,127,0);stroke-width:1" /><circle cx="53.587273" cy="707.895733" r="3.749996" style="fill:rgb(0,127,0);stroke-width:1" /><circle cx="51.673427" cy="705.981888" r="3.749996" style="fill:rgb(0,127,0);stroke-width:1" /><circle cx="51.526219" cy="705.834679" r="3.749996" style="fill:rgb(0,127,0);stroke-width:1" /><circle cx="49.759604" cy="704.068065" r="3.749996" style="fill:rgb(0,127,0);stroke-width:1" /><circle cx="47.845781" cy="702.154219" r="3.749996" style="fill:rgb(0,127,0);stroke-width:1" /><circle cx="46.641782" cy="699.626863" r="3.749996" style="fill:rgb(0,127,0);stroke-width:1" /><circle cx="46.391755" cy="695.876285" r="3.749996" style="fill:rgb(0,127,0);stroke-width:1" /><circle cx="46.122998" cy="691.844925" r="3.749996" style="fill:rgb(0,127,0);stroke-width:1" /><circle cx="45.877665" cy="688.164890" r="3.749996" style="fill:rgb(0,127,0);stroke-width:1" /><circle cx="45.634925" cy="684.523813" r="3.749996" style="fill:rgb(0,127,0);stroke-width:1" /><circle cx="45.394734" cy="680.921070" r="3.749996" style="fill:rgb(0,127,0);stroke-width:1" /><circle cx="45.081966" cy="676.229529" r="3.749996" style="fill:rgb(0,127,0);stroke-width:1" /><circle cx="44.836946" cy="672.554366" r="3.749996" style="fill:rgb(0,127,0);stroke-width:1" /><circle cx="44.594586" cy="668.918945" r="3.749996" style="fill:rgb(0,127,0);stroke-width:1" /><circle cx="44.354841" cy="665.322594" r="3.749996" style="fill:rgb(0,127,0);stroke-width:1" /><circle cx="43.994397" cy="659.916222" r="3.749996" style="fill:rgb(0,127,0);stroke-width:1" /><circle cx="43.750003" cy="656.250022" r="3.749996" style="fill:rgb(0,127,0);stroke-width:1" /><circle cx="43.352589" cy="650.289036" r="3.749996" style="fill:rgb(0,127,0);stroke-width:1" /><circle cx="43.103434" cy="646.551736" r="3.749996" style="fill:rgb(0,127,0);stroke-width:1" /><circle cx="42.664669" cy="639.970087" r="3.749996" style="fill:rgb(0,127,0);stroke-width:1" /><circle cx="41.033417" cy="615.501568" r="3.749996" style="fill:rgb(0,127,0);stroke-width:1" /><circle cx="39.705880" cy="595.588267" r="3.749996" style="fill:rgb(0,127,0);stroke-width:1" /><circle cx="39.041094" cy="585.616462" r="3.749996" style="fill:rgb(0,127,0);stroke-width:1" /><circle cx="38.059697" cy="570.895538" r="3.749996" style="fill:rgb(0,127,0);stroke-width:1" /><circle cx="36.363624" cy="545.454606" r="3.749996" style="fill:rgb(0,127,0);stroke-width:1" /><circle cx="35.915472" cy="538.732477" r="3.749996" style="fill:rgb(0,127,0);stroke-width:1" /><circle cx="35.190605" cy="527.859315" r="3.749996" style="fill:rgb(0,127,0);stroke-width:1" /><circle cx="34.285694" cy="514.285795" r="3.749996" style="fill:rgb(0,127,0);stroke-width:1" /><circle cx="33.999994" cy="510.000072" r="3.749996" style="fill:rgb(0,127,0);stroke-width:1" /><circle cx="33.707857" cy="505.618058" r="3.749996" style="fill:rgb(0,127,0);stroke-width:1" /><circle cx="33.546321" cy="503.194973" r="3.749996" style="fill:rgb(0,127,0);stroke-width:1" /><circle cx="33.284023" cy="499.260440" r="3.749996" style="fill:rgb(0,127,0);stroke-width:1" /><circle cx="31.531513" cy="472.973049" r="3.749996" style="fill:rgb(0,127,0);stroke-width:1" /><circle cx="31.424582" cy="471.368775" r="3.749996" style="fill:rgb(0,127,0);stroke-width:1" /><circle cx="29.745027" cy="446.175702" r="3.749996" style="fill:rgb(0,127,0);stroke-width:1" /><circle cx="28.017238" cy="420.258701" r="3.749996" style="fill:rgb(0,127,0);stroke-width:1" /><circle cx="26.706219" cy="400.593571" r="3.749996" style="fill:rgb(0,127,0);stroke-width:1" /><circle cx="25.210083" cy="378.151417" r="3.749996" style="fill:rgb(0,127,0);stroke-width:1" /><circle cx="23.437500" cy="351.562679" r="3.749996" style="fill:rgb(0,127,0);stroke-width:1" /><circle cx="21.613821" cy="324.207678" r="3.749996" style="fill:rgb(0,127,0);stroke-width:1" /><circle cx="21.489970" cy="322.349802" r="3.749996" style="fill:rgb(0,127,0);stroke-width:1" /><circle cx="21.360755" cy="320.411637" r="3.749996" style="fill:rgb(0,127,0);stroke-width:1" /><circle cx="20.962715" cy="314.441264" r="3.749996" style="fill:rgb(0,127,0);stroke-width:1" /><circle cx="18.927433" cy="283.911958" r="3.749996" style="fill:rgb(0,127,0);stroke-width:1" /><circle cx="16.826905" cy="252.404138" r="3.749996" style="fill:rgb(0,127,0);stroke-width:1" /><circle cx="14.657982" cy="219.870016" r="3.749996" style="fill:rgb(0,127,0);stroke-width:1" /><circle cx="13.761453" cy="206.422359" r="3.749996" style="fill:rgb(0,127,0);stroke-width:1" /><circle cx="11.645950" cy="174.689859" r="3.749996" style="fill:rgb(0,127,0);stroke-width:1" /><circle cx="9.463727" cy="141.956225" r="3.749996" style="fill:rgb(0,127,0);stroke-width:1" /><circle cx="8.902073" cy="133.531585" r="3.749996" style="fill:rgb(0,127,0);stroke-width:1" /><circle cx="8.875743" cy="133.136541" r="3.749996" style="fill:rgb(0,127,0);stroke-width:1" /><circle cx="8.695655" cy="130.435199" r="3.749996" style="fill:rgb(0,127,0);stroke-width:1" /><circle cx="8.645520" cy="129.683420" r="3.749996" style="fill:rgb(0,127,0);stroke-width:1" /><circle cx="7.305197" cy="109.578386" r="3.749996" style="fill:rgb(0,127,0);stroke-width:1" /><circle cx="4.950486" cy="74.257895" r="3.749996" style="fill:rgb(0,127,0);stroke-width:1" /><circle cx="2.516761" cy="37.752181" r="3.750008" style="fill:rgb(0,127,0);stroke-width:1" /><circle cx="750.000000" cy="750.000000" r="3.749996" style="fill:rgb(0,127,0);stroke-width:1" /><path stroke-linejoin="round" stroke-linecap="round" stroke="rgb(255,255,255)" stroke-width="3.749996" fill="none" d="M 0.000000 750.000000 L 750.000000 750.000000 M 0.000000 750.000000 L 0.000000 0.000000 " />

</svg>