<svg xmlns="http://www.w3.org/2000/svg" version="1.1" width = "750" height = "750" viewBox = "0 0 750 750"  shape-rendering="crispEdges">
<path stroke-linejoin="round" stroke-linecap="round" stroke="rgb(255,255,0)" stroke-width="3.749996" fill="none" d="M 187.500000 750.000000 L 0.000000 0.000000 " />
<path stroke-linejoin="round" stroke-linecap="round" stroke="rgb(63,63,63)" stroke-width="3.749996" fill="none" d="M 0.000000 0.000000 L 750.000000 750.000000 M 187.500000 750.000000 L 80.357147 0.000000 " />
<path stroke-linejoin="round" stroke-linecap="round" stroke="rgb(191,191,191)" stroke-width="3.749996" fill="none" d="M 0.000000 562.500000 L 187.500000 750.000000 M 0.000000 0.000000 L 107.142853 750.000000 " />
<path stroke-linejoin="round" stroke-linecap="round" stroke="rgb(0,0,255)" stroke-width="1.874998" fill="none" d="M 0.000000 750.000000 L 750.000000 596.938782 " />
<path stroke-linejoin="round" stroke-linecap="round" stroke="rgb(255,0,0)" stroke-width="3.749996" fill="none" d="M 182.188370 712.818665 L 187.500000 750.000000 " />
<path stroke-linejoin="round" stroke-linecap="round" stroke="rgb(0,0,255)" stroke-width="1.874998" fill="none" d="M 0.000000 750.000000 L 750.000000 450.000031 " />
<path stroke-linejoin="round" stroke-linecap="round" stroke="rgb(255,0,0)" stroke-width="3.749996" fill="none" d="M 177.364853 679.054077 L 182.188370 712.818665 " />
<path stroke-linejoin="round" stroke-linecap="round" stroke="rgb(0,0,255)" stroke-width="1.874998" fill="none" d="M 0.000000 750.000000 L 750.000000 437.500031 " />
<path stroke-linejoin="round" stroke-linecap="round" stroke="rgb(255,0,0)" stroke-width="3.749996" fill="none" d="M 176.966293 676.264038 L 177.364853 679.054077 " />
<path stroke-linejoin="round" stroke-linecap="round" stroke="rgb(0,0,255)" stroke-width="1.874998" fill="none" d="M 0.000000 750.000000 L 750.000000 271.276611 " />
<path stroke-linejoin="round" stroke-linecap="round" stroke="rgb(255,0,0)" stroke-width="3.749996" fill="none" d="M 171.831467 640.320374 L 176.966293 676.264038 " />
<path stroke-linejoin="round" stroke-linecap="round" stroke="rgb(0,0,255)" stroke-width="1.874998" fill="none" d="M 0.000000 750.000000 L 750.000000 97.826111 " />
<path stroke-linejoin="round" stroke-linecap="round" stroke="rgb(255,0,0)" stroke-width="3.749996" fill="none" d="M 166.781769 604.972351 L 171.831467 640.320374 " />
<path stroke-linejoin="round" stroke-linecap="round" stroke="rgb(0,0,255)" stroke-width="1.874998" fill="none" d="M 0.000000 750.000000 L 675.000000 0.000000 " />
<path stroke-linejoin="round" stroke-linecap="round" stroke="rgb(255,0,0)" stroke-width="3.749996" fill="none" d="M 161.815079 570.205444 L 166.781769 604.972351 " />
<path stroke-linejoin="round" stroke-linecap="round" stroke="rgb(0,0,255)" stroke-width="1.874998" fill="none" d="M 0.000000 750.000000 L 550.000000 0.000000 " />
<path stroke-linejoin="round" stroke-linecap="round" stroke="rgb(255,0,0)" stroke-width="3.749996" fill="none" d="M 156.929337 536.005432 L 161.815079 570.205444 " />
<path stroke-linejoin="round" stroke-linecap="round" stroke="rgb(0,0,255)" stroke-width="1.874998" fill="none" d="M 0.000000 750.000000 L 482.142853 0.000000 " />
<path stroke-linejoin="round" stroke-linecap="round" stroke="rgb(255,0,0)" stroke-width="3.749996" fill="none" d="M 153.409119 511.363586 L 156.929367 536.005432 " />
<path stroke-linejoin="round" stroke-linecap="round" stroke="rgb(0,0,255)" stroke-width="1.874998" fill="none" d="M 0.000000 750.000000 L 460.714294 0.000000 " />
<path stroke-linejoin="round" stroke-linecap="round" stroke="rgb(255,0,0)" stroke-width="3.749996" fill="none" d="M 152.122665 502.358429 L 153.409119 511.363586 " />
<path stroke-linejoin="round" stroke-linecap="round" stroke="rgb(0,0,255)" stroke-width="1.874998" fill="none" d="M 0.000000 750.000000 L 412.500000 0.000000 " />
<path stroke-linejoin="round" stroke-linecap="round" stroke="rgb(255,0,0)" stroke-width="3.749996" fill="none" d="M 148.840225 479.381378 L 152.122665 502.358429 " />
<path stroke-linejoin="round" stroke-linecap="round" stroke="rgb(0,0,255)" stroke-width="1.874998" fill="none" d="M 0.000000 750.000000 L 393.749969 0.000000 " />
<path stroke-linejoin="round" stroke-linecap="round" stroke="rgb(255,0,0)" stroke-width="3.749996" fill="none" d="M 147.393066 469.251312 L 148.840225 479.381378 " />
<path stroke-linejoin="round" stroke-linecap="round" stroke="rgb(0,0,255)" stroke-width="1.874998" fill="none" d="M 0.000000 750.000000 L 358.333344 0.000000 " />
<path stroke-linejoin="round" stroke-linecap="round" stroke="rgb(255,0,0)" stroke-width="3.749996" fill="none" d="M 144.341461 447.889954 L 147.393066 469.251312 " />
<path stroke-linejoin="round" stroke-linecap="round" stroke="rgb(0,0,255)" stroke-width="1.874998" fill="none" d="M 0.000000 750.000000 L 341.666656 0.000000 " />
<path stroke-linejoin="round" stroke-linecap="round" stroke="rgb(255,0,0)" stroke-width="3.749996" fill="none" d="M 142.738754 436.671051 L 144.341461 447.889954 " />
<path stroke-linejoin="round" stroke-linecap="round" stroke="rgb(0,0,255)" stroke-width="1.874998" fill="none" d="M 0.000000 750.000000 L 300.000000 0.000000 " />
<path stroke-linejoin="round" stroke-linecap="round" stroke="rgb(255,0,0)" stroke-width="3.749996" fill="none" d="M 138.157898 404.605225 L 142.738754 436.671051 " />
<path stroke-linejoin="round" stroke-linecap="round" stroke="rgb(0,0,255)" stroke-width="1.874998" fill="none" d="M 0.000000 750.000000 L 279.545471 0.000000 " />
<path stroke-linejoin="round" stroke-linecap="round" stroke="rgb(255,0,0)" stroke-width="3.749996" fill="none" d="M 135.547897 386.334930 L 138.157898 404.605225 " />
<path stroke-linejoin="round" stroke-linecap="round" stroke="rgb(0,0,255)" stroke-width="1.874998" fill="none" d="M 0.000000 750.000000 L 265.909119 0.000000 " />
<path stroke-linejoin="round" stroke-linecap="round" stroke="rgb(255,0,0)" stroke-width="3.749996" fill="none" d="M 133.648849 373.041718 L 135.547897 386.334930 " />
<path stroke-linejoin="round" stroke-linecap="round" stroke="rgb(0,0,255)" stroke-width="1.874998" fill="none" d="M 0.000000 750.000000 L 250.000000 0.000000 " />
<path stroke-linejoin="round" stroke-linecap="round" stroke="rgb(255,0,0)" stroke-width="3.749996" fill="none" d="M 131.250015 356.249939 L 133.648849 373.041718 " />
<path stroke-linejoin="round" stroke-linecap="round" stroke="rgb(0,0,255)" stroke-width="1.874998" fill="none" d="M 0.000000 750.000000 L 237.500000 0.000000 " />
<path stroke-linejoin="round" stroke-linecap="round" stroke="rgb(255,0,0)" stroke-width="3.749996" fill="none" d="M 129.209869 341.968811 L 131.250015 356.249939 " />
<path stroke-linejoin="round" stroke-linecap="round" stroke="rgb(0,0,255)" stroke-width="1.874998" fill="none" d="M 0.000000 750.000000 L 213.461533 0.000000 " />
<path stroke-linejoin="round" stroke-linecap="round" stroke="rgb(255,0,0)" stroke-width="3.749996" fill="none" d="M 124.839348 311.375244 L 129.209869 341.968811 " />
<path stroke-linejoin="round" stroke-linecap="round" stroke="rgb(0,0,255)" stroke-width="1.874998" fill="none" d="M 0.000000 750.000000 L 192.857147 0.000000 " />
<path stroke-linejoin="round" stroke-linecap="round" stroke="rgb(255,0,0)" stroke-width="3.749996" fill="none" d="M 120.535744 281.249908 L 124.839348 311.375244 " />
<path stroke-linejoin="round" stroke-linecap="round" stroke="rgb(0,0,255)" stroke-width="1.874998" fill="none" d="M 0.000000 750.000000 L 175.000015 0.000000 " />
<path stroke-linejoin="round" stroke-linecap="round" stroke="rgb(255,0,0)" stroke-width="3.749996" fill="none" d="M 116.297501 251.582214 L 120.535744 281.249908 " />
<path stroke-linejoin="round" stroke-linecap="round" stroke="rgb(0,0,255)" stroke-width="1.874998" fill="none" d="M 0.000000 750.000000 L 159.374985 0.000000 " />
<path stroke-linejoin="round" stroke-linecap="round" stroke="rgb(255,0,0)" stroke-width="3.749996" fill="none" d="M 112.123131 222.361694 L 116.297501 251.582214 " />
<path stroke-linejoin="round" stroke-linecap="round" stroke="rgb(0,0,255)" stroke-width="1.874998" fill="none" d="M 0.000000 750.000000 L 145.588242 0.000000 " />
<path stroke-linejoin="round" stroke-linecap="round" stroke="rgb(255,0,0)" stroke-width="3.749996" fill="none" d="M 108.011238 193.578461 L 112.123131 222.361694 " />
<path stroke-linejoin="round" stroke-linecap="round" stroke="rgb(0,0,255)" stroke-width="1.874998" fill="none" d="M 0.000000 750.000000 L 133.333328 0.000000 " />
<path stroke-linejoin="round" stroke-linecap="round" stroke="rgb(255,0,0)" stroke-width="3.749996" fill="none" d="M 103.960411 165.222687 L 108.011238 193.578461 " />
<path stroke-linejoin="round" stroke-linecap="round" stroke="rgb(0,0,255)" stroke-width="1.874998" fill="none" d="M 0.000000 750.000000 L 122.368408 0.000000 " />
<path stroke-linejoin="round" stroke-linecap="round" stroke="rgb(255,0,0)" stroke-width="3.749996" fill="none" d="M 99.969307 137.284927 L 103.960411 165.222687 " />
<path stroke-linejoin="round" stroke-linecap="round" stroke="rgb(0,0,255)" stroke-width="1.874998" fill="none" d="M 0.000000 750.000000 L 120.000000 0.000000 " />
<path stroke-linejoin="round" stroke-linecap="round" stroke="rgb(255,0,0)" stroke-width="3.749996" fill="none" d="M 99.056618 130.896133 L 99.969307 137.284927 " />
<path stroke-linejoin="round" stroke-linecap="round" stroke="rgb(0,0,255)" stroke-width="1.874998" fill="none" d="M 0.000000 750.000000 L 112.500008 0.000000 " />
<path stroke-linejoin="round" stroke-linecap="round" stroke="rgb(255,0,0)" stroke-width="3.749996" fill="none" d="M 96.036606 109.755997 L 99.056618 130.896133 " />
<path stroke-linejoin="round" stroke-linecap="round" stroke="rgb(0,0,255)" stroke-width="1.874998" fill="none" d="M 0.000000 750.000000 L 108.208939 0.000000 " />
<path stroke-linejoin="round" stroke-linecap="round" stroke="rgb(255,0,0)" stroke-width="3.749996" fill="none" d="M 92.835388 106.554733 L 96.036606 109.755997 " />
<path stroke-linejoin="round" stroke-linecap="round" stroke="rgb(0,0,255)" stroke-width="1.874998" fill="none" d="M 0.000000 750.000000 L 103.960411 0.000000 " />
<path stroke-linejoin="round" stroke-linecap="round" stroke="rgb(255,0,0)" stroke-width="3.749996" fill="none" d="M 89.634148 103.353561 L 92.835388 106.554733 " />
<path stroke-linejoin="round" stroke-linecap="round" stroke="rgb(0,0,255)" stroke-width="1.874998" fill="none" d="M 0.000000 750.000000 L 99.753700 0.000000 " />
<path stroke-linejoin="round" stroke-linecap="round" stroke="rgb(255,0,0)" stroke-width="3.749996" fill="none" d="M 86.432938 100.152298 L 89.634148 103.353561 " />
<path stroke-linejoin="round" stroke-linecap="round" stroke="rgb(0,0,255)" stroke-width="1.874998" fill="none" d="M 0.000000 750.000000 L 95.588249 0.000000 " />
<path stroke-linejoin="round" stroke-linecap="round" stroke="rgb(255,0,0)" stroke-width="3.749996" fill="none" d="M 83.231720 96.951126 L 86.432938 100.152298 " />
<path stroke-linejoin="round" stroke-linecap="round" stroke="rgb(0,0,255)" stroke-width="1.874998" fill="none" d="M 0.000000 750.000000 L 91.463417 0.000000 " />
<path stroke-linejoin="round" stroke-linecap="round" stroke="rgb(255,0,0)" stroke-width="3.749996" fill="none" d="M 80.030502 93.749863 L 83.231720 96.951126 " />
<path stroke-linejoin="round" stroke-linecap="round" stroke="rgb(0,0,255)" stroke-width="1.874998" fill="none" d="M 0.000000 750.000000 L 90.579720 0.000000 " />
<path stroke-linejoin="round" stroke-linecap="round" stroke="rgb(255,0,0)" stroke-width="3.749996" fill="none" d="M 79.340591 93.059959 L 80.030502 93.749863 " />
<path stroke-linejoin="round" stroke-linecap="round" stroke="rgb(0,0,255)" stroke-width="1.874998" fill="none" d="M 0.000000 750.000000 L 86.538460 0.000000 " />
<path stroke-linejoin="round" stroke-linecap="round" stroke="rgb(255,0,0)" stroke-width="3.749996" fill="none" d="M 76.166954 89.886322 L 79.340591 93.059959 " />
<path stroke-linejoin="round" stroke-linecap="round" stroke="rgb(0,0,255)" stroke-width="1.874998" fill="none" d="M 0.000000 750.000000 L 82.535889 0.000000 " />
<path stroke-linejoin="round" stroke-linecap="round" stroke="rgb(255,0,0)" stroke-width="3.749996" fill="none" d="M 72.993324 86.712730 L 76.166954 89.886322 " />
<path stroke-linejoin="round" stroke-linecap="round" stroke="rgb(0,0,255)" stroke-width="1.874998" fill="none" d="M 0.000000 750.000000 L 78.571426 0.000000 " />
<path stroke-linejoin="round" stroke-linecap="round" stroke="rgb(255,0,0)" stroke-width="3.749996" fill="none" d="M 69.819710 83.539101 L 72.993324 86.712730 " />
<path stroke-linejoin="round" stroke-linecap="round" stroke="rgb(0,0,255)" stroke-width="1.874998" fill="none" d="M 0.000000 750.000000 L 77.830193 0.000000 " />
<path stroke-linejoin="round" stroke-linecap="round" stroke="rgb(255,0,0)" stroke-width="3.749996" fill="none" d="M 69.222961 82.942352 L 69.819710 83.539101 " />
<path stroke-linejoin="round" stroke-linecap="round" stroke="rgb(0,0,255)" stroke-width="1.874998" fill="none" d="M 0.000000 750.000000 L 73.943649 0.000000 " />
<path stroke-linejoin="round" stroke-linecap="round" stroke="rgb(255,0,0)" stroke-width="3.749996" fill="none" d="M 66.076462 79.795898 L 69.222961 82.942352 " />
<path stroke-linejoin="round" stroke-linecap="round" stroke="rgb(0,0,255)" stroke-width="1.874998" fill="none" d="M 0.000000 750.000000 L 70.093452 0.000000 " />
<path stroke-linejoin="round" stroke-linecap="round" stroke="rgb(255,0,0)" stroke-width="3.749996" fill="none" d="M 62.929966 76.649445 L 66.076439 79.795944 " />
<path stroke-linejoin="round" stroke-linecap="round" stroke="rgb(0,0,255)" stroke-width="1.874998" fill="none" d="M 0.000000 750.000000 L 66.279083 0.000000 " />
<path stroke-linejoin="round" stroke-linecap="round" stroke="rgb(255,0,0)" stroke-width="3.749996" fill="none" d="M 59.783466 73.502945 L 62.929966 76.649445 " />
<path stroke-linejoin="round" stroke-linecap="round" stroke="rgb(0,0,255)" stroke-width="1.874998" fill="none" d="M 0.000000 750.000000 L 62.500008 0.000000 " />
<path stroke-linejoin="round" stroke-linecap="round" stroke="rgb(255,0,0)" stroke-width="3.749996" fill="none" d="M 56.636967 70.356400 L 59.783466 73.502945 " />
<path stroke-linejoin="round" stroke-linecap="round" stroke="rgb(0,0,255)" stroke-width="1.874998" fill="none" d="M 0.000000 750.000000 L 61.926617 0.000000 " />
<path stroke-linejoin="round" stroke-linecap="round" stroke="rgb(255,0,0)" stroke-width="3.749996" fill="none" d="M 56.157009 69.876328 L 56.636967 70.356308 " />
<path stroke-linejoin="round" stroke-linecap="round" stroke="rgb(0,0,255)" stroke-width="1.874998" fill="none" d="M 0.000000 750.000000 L 58.219181 0.000000 " />
<path stroke-linejoin="round" stroke-linecap="round" stroke="rgb(255,0,0)" stroke-width="3.749996" fill="none" d="M 53.037174 66.756470 L 56.157009 69.876328 " />
<path stroke-linejoin="round" stroke-linecap="round" stroke="rgb(0,0,255)" stroke-width="1.874998" fill="none" d="M 0.000000 750.000000 L 54.545448 0.000000 " />
<path stroke-linejoin="round" stroke-linecap="round" stroke="rgb(255,0,0)" stroke-width="3.749996" fill="none" d="M 49.917339 63.636662 L 53.037174 66.756470 " />
<path stroke-linejoin="round" stroke-linecap="round" stroke="rgb(0,0,255)" stroke-width="1.874998" fill="none" d="M 0.000000 750.000000 L 50.904976 0.000000 " />
<path stroke-linejoin="round" stroke-linecap="round" stroke="rgb(255,0,0)" stroke-width="3.749996" fill="none" d="M 46.797508 60.516804 L 49.917339 63.636662 " />
<path stroke-linejoin="round" stroke-linecap="round" stroke="rgb(0,0,255)" stroke-width="1.874998" fill="none" d="M 0.000000 750.000000 L 47.297291 0.000000 " />
<path stroke-linejoin="round" stroke-linecap="round" stroke="rgb(255,0,0)" stroke-width="3.749996" fill="none" d="M 43.677673 57.397038 L 46.797508 60.516804 " />
<path stroke-linejoin="round" stroke-linecap="round" stroke="rgb(0,0,255)" stroke-width="1.874998" fill="none" d="M 0.000000 750.000000 L 46.875000 0.000000 " />
<path stroke-linejoin="round" stroke-linecap="round" stroke="rgb(255,0,0)" stroke-width="3.749996" fill="none" d="M 43.310635 57.029976 L 43.677673 57.397083 " />
<path stroke-linejoin="round" stroke-linecap="round" stroke="rgb(0,0,255)" stroke-width="1.874998" fill="none" d="M 0.000000 750.000000 L 43.333344 0.000000 " />
<path stroke-linejoin="round" stroke-linecap="round" stroke="rgb(255,0,0)" stroke-width="3.749996" fill="none" d="M 40.217018 53.936363 L 43.310635 57.029976 " />
<path stroke-linejoin="round" stroke-linecap="round" stroke="rgb(0,0,255)" stroke-width="1.874998" fill="none" d="M 0.000000 750.000000 L 39.823002 0.000000 " />
<path stroke-linejoin="round" stroke-linecap="round" stroke="rgb(255,0,0)" stroke-width="3.749996" fill="none" d="M 37.123383 50.842793 L 40.217018 53.936363 " />
<path stroke-linejoin="round" stroke-linecap="round" stroke="rgb(0,0,255)" stroke-width="1.874998" fill="none" d="M 0.000000 750.000000 L 39.473690 0.000000 " />
<path stroke-linejoin="round" stroke-linecap="round" stroke="rgb(255,0,0)" stroke-width="3.749996" fill="none" d="M 36.814034 50.533398 L 37.123383 50.842793 " />
<path stroke-linejoin="round" stroke-linecap="round" stroke="rgb(0,0,255)" stroke-width="1.874998" fill="none" d="M 0.000000 750.000000 L 36.026203 0.000000 " />
<path stroke-linejoin="round" stroke-linecap="round" stroke="rgb(255,0,0)" stroke-width="3.749996" fill="none" d="M 33.746189 47.465534 L 36.814034 50.533398 " />
<path stroke-linejoin="round" stroke-linecap="round" stroke="rgb(0,0,255)" stroke-width="1.874998" fill="none" d="M 0.000000 750.000000 L 32.608688 0.000000 " />
<path stroke-linejoin="round" stroke-linecap="round" stroke="rgb(255,0,0)" stroke-width="3.749996" fill="none" d="M 30.678370 44.397621 L 33.746189 47.465488 " />
<path stroke-linejoin="round" stroke-linecap="round" stroke="rgb(0,0,255)" stroke-width="1.874998" fill="none" d="M 0.000000 750.000000 L 29.220789 0.000000 " />
<path stroke-linejoin="round" stroke-linecap="round" stroke="rgb(255,0,0)" stroke-width="3.749996" fill="none" d="M 27.610525 41.329845 L 30.678370 44.397621 " />
<path stroke-linejoin="round" stroke-linecap="round" stroke="rgb(0,0,255)" stroke-width="1.874998" fill="none" d="M 0.000000 750.000000 L 25.862061 0.000000 " />
<path stroke-linejoin="round" stroke-linecap="round" stroke="rgb(255,0,0)" stroke-width="3.749996" fill="none" d="M 24.542683 38.261978 L 27.610525 41.329845 " />
<path stroke-linejoin="round" stroke-linecap="round" stroke="rgb(0,0,255)" stroke-width="1.874998" fill="none" d="M 0.000000 750.000000 L 25.641024 0.000000 " />
<path stroke-linejoin="round" stroke-linecap="round" stroke="rgb(255,0,0)" stroke-width="3.749996" fill="none" d="M 24.339863 38.059204 L 24.542683 38.261978 " />
<path stroke-linejoin="round" stroke-linecap="round" stroke="rgb(0,0,255)" stroke-width="1.874998" fill="none" d="M 0.000000 750.000000 L 22.340431 0.000000 " />
<path stroke-linejoin="round" stroke-linecap="round" stroke="rgb(255,0,0)" stroke-width="3.749996" fill="none" d="M 21.297365 35.016685 L 24.339863 38.059296 " />
<path stroke-linejoin="round" stroke-linecap="round" stroke="rgb(0,0,255)" stroke-width="1.874998" fill="none" d="M 0.000000 750.000000 L 19.067802 0.000000 " />
<path stroke-linejoin="round" stroke-linecap="round" stroke="rgb(255,0,0)" stroke-width="3.749996" fill="none" d="M 18.254890 31.974211 L 21.297365 35.016640 " />
<path stroke-linejoin="round" stroke-linecap="round" stroke="rgb(0,0,255)" stroke-width="1.874998" fill="none" d="M 0.000000 750.000000 L 15.822776 0.000000 " />
<path stroke-linejoin="round" stroke-linecap="round" stroke="rgb(255,0,0)" stroke-width="3.749996" fill="none" d="M 15.212417 28.931692 L 18.254890 31.974211 " />
<path stroke-linejoin="round" stroke-linecap="round" stroke="rgb(0,0,255)" stroke-width="1.874998" fill="none" d="M 0.000000 750.000000 L 12.605042 0.000000 " />
<path stroke-linejoin="round" stroke-linecap="round" stroke="rgb(255,0,0)" stroke-width="3.749996" fill="none" d="M 12.169920 25.889263 L 15.212417 28.931692 " />
<path stroke-linejoin="round" stroke-linecap="round" stroke="rgb(0,0,255)" stroke-width="1.874998" fill="none" d="M 0.000000 750.000000 L 12.500010 0.000000 " />
<path stroke-linejoin="round" stroke-linecap="round" stroke="rgb(255,0,0)" stroke-width="3.749996" fill="none" d="M 12.070164 25.789484 L 12.169920 25.889263 " />
<path stroke-linejoin="round" stroke-linecap="round" stroke="rgb(0,0,255)" stroke-width="1.874998" fill="none" d="M 0.000000 750.000000 L 9.336099 0.000000 " />
<path stroke-linejoin="round" stroke-linecap="round" stroke="rgb(255,0,0)" stroke-width="3.749996" fill="none" d="M 9.052634 22.771910 L 12.070164 25.789484 " />
<path stroke-linejoin="round" stroke-linecap="round" stroke="rgb(0,0,255)" stroke-width="1.874998" fill="none" d="M 0.000000 750.000000 L 9.259254 0.000000 " />
<path stroke-linejoin="round" stroke-linecap="round" stroke="rgb(255,0,0)" stroke-width="3.749996" fill="none" d="M 8.979030 22.698284 L 9.052634 22.771910 " />
<path stroke-linejoin="round" stroke-linecap="round" stroke="rgb(0,0,255)" stroke-width="1.874998" fill="none" d="M 0.000000 750.000000 L 6.147533 0.000000 " />
<path stroke-linejoin="round" stroke-linecap="round" stroke="rgb(255,0,0)" stroke-width="3.749996" fill="none" d="M 5.986020 19.705206 L 8.979030 22.698238 " />
<path stroke-linejoin="round" stroke-linecap="round" stroke="rgb(0,0,255)" stroke-width="1.874998" fill="none" d="M 0.000000 750.000000 L 3.061228 0.000000 " />
<path stroke-linejoin="round" stroke-linecap="round" stroke="rgb(255,0,0)" stroke-width="3.749996" fill="none" d="M 2.993010 16.712219 L 5.986020 19.705206 " />
<path stroke-linejoin="round" stroke-linecap="round" stroke="rgb(0,0,255)" stroke-width="1.874998" fill="none" d="M 0.000000 750.000000 L 0.000000 0.000000 " />
<path stroke-linejoin="round" stroke-linecap="round" stroke="rgb(255,0,0)" stroke-width="3.749996" fill="none" d="M 0.000000 0.000000 L 2.993010 16.712219 " />
<circle cx="182.188377" cy="712.818705" r="3.749996" style="fill:rgb(0,127,0);stroke-width:1" /><circle cx="177.364849" cy="679.054052" r="3.749996" style="fill:rgb(0,127,0);stroke-width:1" /><circle cx="176.966295" cy="676.264040" r="3.749996" style="fill:rgb(0,127,0);stroke-width:1" /><circle cx="171.831474" cy="640.320338" r="3.749996" style="fill:rgb(0,127,0);stroke-width:1" /><circle cx="166.781768" cy="604.972377" r="3.749996" style="fill:rgb(0,127,0);stroke-width:1" /><circle cx="161.815077" cy="570.205472" r="3.749996" style="fill:rgb(0,127,0);stroke-width:1" /><circle cx="156.929344" cy="536.005430" r="3.749996" style="fill:rgb(0,127,0);stroke-width:1" /><circle cx="153.409123" cy="511.363596" r="3.749996" style="fill:rgb(0,127,0);stroke-width:1" /><circle cx="152.122669" cy="502.358459" r="3.749996" style="fill:rgb(0,127,0);stroke-width:1" /><circle cx="148.840226" cy="479.381405" r="3.749996" style="fill:rgb(0,127,0);stroke-width:1" /><circle cx="147.393063" cy="469.251305" r="3.749996" style="fill:rgb(0,127,0);stroke-width:1" /><circle cx="144.341469" cy="447.889969" r="3.749996" style="fill:rgb(0,127,0);stroke-width:1" /><circle cx="142.738760" cy="436.671026" r="3.749996" style="fill:rgb(0,127,0);stroke-width:1" /><circle cx="138.157904" cy="404.605217" r="3.749996" style="fill:rgb(0,127,0);stroke-width:1" /><circle cx="135.547891" cy="386.334948" r="3.749996" style="fill:rgb(0,127,0);stroke-width:1" /><circle cx="133.648843" cy="373.041719" r="3.749996" style="fill:rgb(0,127,0);stroke-width:1" /><circle cx="131.250009" cy="356.249928" r="3.749996" style="fill:rgb(0,127,0);stroke-width:1" /><circle cx="129.209876" cy="341.968819" r="3.749996" style="fill:rgb(0,127,0);stroke-width:1" /><circle cx="124.839351" cy="311.375231" r="3.749996" style="fill:rgb(0,127,0);stroke-width:1" /><circle cx="120.535746" cy="281.249911" r="3.749996" style="fill:rgb(0,127,0);stroke-width:1" /><circle cx="116.297498" cy="251.582220" r="3.749996" style="fill:rgb(0,127,0);stroke-width:1" /><circle cx="112.123132" cy="222.361699" r="3.749996" style="fill:rgb(0,127,0);stroke-width:1" /><circle cx="108.011238" cy="193.578467" r="3.749996" style="fill:rgb(0,127,0);stroke-width:1" /><circle cx="103.960410" cy="165.222690" r="3.749996" style="fill:rgb(0,127,0);stroke-width:1" /><circle cx="99.969305" cy="137.284935" r="3.749996" style="fill:rgb(0,127,0);stroke-width:1" /><circle cx="99.056616" cy="130.896136" r="3.749996" style="fill:rgb(0,127,0);stroke-width:1" /><circle cx="96.036606" cy="109.755993" r="3.749996" style="fill:rgb(0,127,0);stroke-width:1" /><circle cx="92.835389" cy="106.554732" r="3.749996" style="fill:rgb(0,127,0);stroke-width:1" /><circle cx="89.634150" cy="103.353560" r="3.749996" style="fill:rgb(0,127,0);stroke-width:1" /><circle cx="86.432934" cy="100.152299" r="3.749996" style="fill:rgb(0,127,0);stroke-width:1" /><circle cx="83.231717" cy="96.951127" r="3.749996" style="fill:rgb(0,127,0);stroke-width:1" /><circle cx="80.030501" cy="93.749866" r="3.749996" style="fill:rgb(0,127,0);stroke-width:1" /><circle cx="79.340592" cy="93.059957" r="3.749996" style="fill:rgb(0,127,0);stroke-width:1" /><circle cx="76.166958" cy="89.886323" r="3.749996" style="fill:rgb(0,127,0);stroke-width:1" /><circle cx="72.993323" cy="86.712733" r="3.749996" style="fill:rgb(0,127,0);stroke-width:1" /><circle cx="69.819711" cy="83.539099" r="3.749996" style="fill:rgb(0,127,0);stroke-width:1" /><circle cx="69.222964" cy="82.942352" r="3.749996" style="fill:rgb(0,127,0);stroke-width:1" /><circle cx="66.076465" cy="79.795897" r="3.749996" style="fill:rgb(0,127,0);stroke-width:1" /><circle cx="62.929966" cy="76.649442" r="3.749996" style="fill:rgb(0,127,0);stroke-width:1" /><circle cx="59.783466" cy="73.502943" r="3.749996" style="fill:rgb(0,127,0);stroke-width:1" /><circle cx="56.636967" cy="70.356399" r="3.749996" style="fill:rgb(0,127,0);stroke-width:1" /><circle cx="56.157008" cy="69.876328" r="3.749996" style="fill:rgb(0,127,0);stroke-width:1" /><circle cx="53.037174" cy="66.756472" r="3.749996" style="fill:rgb(0,127,0);stroke-width:1" /><circle cx="49.917340" cy="63.636661" r="3.749996" style="fill:rgb(0,127,0);stroke-width:1" /><circle cx="46.797507" cy="60.516804" r="3.749996" style="fill:rgb(0,127,0);stroke-width:1" /><circle cx="43.677673" cy="57.397038" r="3.749996" style="fill:rgb(0,127,0);stroke-width:1" /><circle cx="43.310635" cy="57.029977" r="3.749996" style="fill:rgb(0,127,0);stroke-width:1" /><circle cx="40.217020" cy="53.936362" r="3.749996" style="fill:rgb(0,127,0);stroke-width:1" /><circle cx="37.123382" cy="50.842792" r="3.749996" style="fill:rgb(0,127,0);stroke-width:1" /><circle cx="36.814034" cy="50.533399" r="3.749996" style="fill:rgb(0,127,0);stroke-width:1" /><circle cx="33.746190" cy="47.465533" r="3.749996" style="fill:rgb(0,127,0);stroke-width:1" /><circle cx="30.678369" cy="44.397622" r="3.749996" style="fill:rgb(0,127,0);stroke-width:1" /><circle cx="27.610525" cy="41.329846" r="3.749996" style="fill:rgb(0,127,0);stroke-width:1" /><circle cx="24.542682" cy="38.261980" r="3.749996" style="fill:rgb(0,127,0);stroke-width:1" /><circle cx="24.339862" cy="38.059205" r="3.749996" style="fill:rgb(0,127,0);stroke-width:1" /><circle cx="21.297365" cy="35.016686" r="3.749996" style="fill:rgb(0,127,0);stroke-width:1" /><circle cx="18.254891" cy="31.974211" r="3.749996" style="fill:rgb(0,127,0);stroke-width:1" /><circle cx="15.212417" cy="28.931692" r="3.749996" style="fill:rgb(0,127,0);stroke-width:1" /><circle cx="12.169920" cy="25.889263" r="3.749996" style="fill:rgb(0,127,0);stroke-width:1" /><circle cx="12.070164" cy="25.789484" r="3.749996" style="fill:rgb(0,127,0);stroke-width:1" /><circle cx="9.052634" cy="22.771910" r="3.749996" style="fill:rgb(0,127,0);stroke-width:1" /><circle cx="8.979030" cy="22.698283" r="3.749996" style="fill:rgb(0,127,0);stroke-width:1" /><circle cx="5.986020" cy="19.705206" r="3.749996" style="fill:rgb(0,127,0);stroke-width:1" /><circle cx="2.992988" cy="16.712219" r="3.750008" style="fill:rgb(0,127,0);stroke-width:1" /><circle cx="750.000000" cy="750.000000" r="3.749996" style="fill:rgb(0,127,0);stroke-width:1" /><path stroke-linejoin="round" stroke-linecap="round" stroke="rgb(255,255,255)" stroke-width="3.749996" fill="none" d="M 0.000000 750.000000 L 750.000000 750.000000 M 0.000000 750.000000 L 0.000000 0.000000 " />

</svg>