<svg xmlns="http://www.w3.org/2000/svg" version="1.1" width = "750" height = "750" viewBox = "0 0 750 750"  shape-rendering="crispEdges">
<path stroke-linejoin="round" stroke-linecap="round" stroke="rgb(255,255,0)" stroke-width="3.749996" fill="none" d="M 107.142853 750.000000 L 0.000000 0.000000 " />
<path stroke-linejoin="round" stroke-linecap="round" stroke="rgb(63,63,63)" stroke-width="3.749996" fill="none" d="M 0.000000 0.000000 L 750.000000 750.000000 M 107.142853 750.000000 L 49.450546 0.000000 " />
<path stroke-linejoin="round" stroke-linecap="round" stroke="rgb(191,191,191)" stroke-width="3.749996" fill="none" d="M 0.000000 642.857178 L 107.142853 750.000000 M 0.000000 0.000000 L 57.692303 750.000000 " />
<path stroke-linejoin="round" stroke-linecap="round" stroke="rgb(0,0,255)" stroke-width="1.874998" fill="none" d="M 0.000000 750.000000 L 750.000000 727.272766 " />
<path stroke-linejoin="round" stroke-linecap="round" stroke="rgb(255,0,0)" stroke-width="3.749996" fill="none" d="M 106.893700 746.760803 L 107.142853 750.000000 " />
<path stroke-linejoin="round" stroke-linecap="round" stroke="rgb(0,0,255)" stroke-width="1.874998" fill="none" d="M 0.000000 750.000000 L 750.000000 705.882385 " />
<path stroke-linejoin="round" stroke-linecap="round" stroke="rgb(255,0,0)" stroke-width="3.749996" fill="none" d="M 104.014389 743.881531 L 106.893700 746.760803 " />
<path stroke-linejoin="round" stroke-linecap="round" stroke="rgb(0,0,255)" stroke-width="1.874998" fill="none" d="M 0.000000 750.000000 L 750.000000 681.818176 " />
<path stroke-linejoin="round" stroke-linecap="round" stroke="rgb(255,0,0)" stroke-width="3.749996" fill="none" d="M 100.955154 740.822266 L 104.014389 743.881531 " />
<path stroke-linejoin="round" stroke-linecap="round" stroke="rgb(0,0,255)" stroke-width="1.874998" fill="none" d="M 0.000000 750.000000 L 750.000000 661.764709 " />
<path stroke-linejoin="round" stroke-linecap="round" stroke="rgb(255,0,0)" stroke-width="3.749996" fill="none" d="M 98.539955 738.407043 L 100.955154 740.822266 " />
<path stroke-linejoin="round" stroke-linecap="round" stroke="rgb(0,0,255)" stroke-width="1.874998" fill="none" d="M 0.000000 750.000000 L 750.000000 656.250000 " />
<path stroke-linejoin="round" stroke-linecap="round" stroke="rgb(255,0,0)" stroke-width="3.749996" fill="none" d="M 97.895912 737.763000 L 98.539955 738.407043 " />
<path stroke-linejoin="round" stroke-linecap="round" stroke="rgb(0,0,255)" stroke-width="1.874998" fill="none" d="M 0.000000 750.000000 L 750.000000 636.363647 " />
<path stroke-linejoin="round" stroke-linecap="round" stroke="rgb(255,0,0)" stroke-width="3.749996" fill="none" d="M 95.641716 735.508850 L 97.895912 737.763000 " />
<path stroke-linejoin="round" stroke-linecap="round" stroke="rgb(0,0,255)" stroke-width="1.874998" fill="none" d="M 0.000000 750.000000 L 750.000000 629.032288 " />
<path stroke-linejoin="round" stroke-linecap="round" stroke="rgb(255,0,0)" stroke-width="3.749996" fill="none" d="M 94.836678 734.703735 L 95.641716 735.508850 " />
<path stroke-linejoin="round" stroke-linecap="round" stroke="rgb(0,0,255)" stroke-width="1.874998" fill="none" d="M 0.000000 750.000000 L 750.000000 600.000000 " />
<path stroke-linejoin="round" stroke-linecap="round" stroke="rgb(255,0,0)" stroke-width="3.749996" fill="none" d="M 91.777412 731.644531 L 94.836678 734.703735 " />
<path stroke-linejoin="round" stroke-linecap="round" stroke="rgb(0,0,255)" stroke-width="1.874998" fill="none" d="M 0.000000 750.000000 L 750.000000 580.645142 " />
<path stroke-linejoin="round" stroke-linecap="round" stroke="rgb(255,0,0)" stroke-width="3.749996" fill="none" d="M 89.845261 729.712341 L 91.777412 731.644531 " />
<path stroke-linejoin="round" stroke-linecap="round" stroke="rgb(0,0,255)" stroke-width="1.874998" fill="none" d="M 0.000000 750.000000 L 750.000000 568.965515 " />
<path stroke-linejoin="round" stroke-linecap="round" stroke="rgb(255,0,0)" stroke-width="3.749996" fill="none" d="M 88.718178 728.585266 L 89.845261 729.712341 " />
<path stroke-linejoin="round" stroke-linecap="round" stroke="rgb(0,0,255)" stroke-width="1.874998" fill="none" d="M 0.000000 750.000000 L 750.000000 550.000000 " />
<path stroke-linejoin="round" stroke-linecap="round" stroke="rgb(255,0,0)" stroke-width="3.749996" fill="none" d="M 86.947044 726.814087 L 88.718178 728.585266 " />
<path stroke-linejoin="round" stroke-linecap="round" stroke="rgb(0,0,255)" stroke-width="1.874998" fill="none" d="M 0.000000 750.000000 L 750.000000 535.714294 " />
<path stroke-linejoin="round" stroke-linecap="round" stroke="rgb(255,0,0)" stroke-width="3.749996" fill="none" d="M 85.658936 725.526001 L 86.947044 726.814087 " />
<path stroke-linejoin="round" stroke-linecap="round" stroke="rgb(0,0,255)" stroke-width="1.874998" fill="none" d="M 0.000000 750.000000 L 750.000000 517.241394 " />
<path stroke-linejoin="round" stroke-linecap="round" stroke="rgb(255,0,0)" stroke-width="3.749996" fill="none" d="M 84.048805 723.915894 L 85.658936 725.526001 " />
<path stroke-linejoin="round" stroke-linecap="round" stroke="rgb(0,0,255)" stroke-width="1.874998" fill="none" d="M 0.000000 750.000000 L 750.000000 482.142853 " />
<path stroke-linejoin="round" stroke-linecap="round" stroke="rgb(255,0,0)" stroke-width="3.749996" fill="none" d="M 81.150566 721.017639 L 84.048805 723.915894 " />
<path stroke-linejoin="round" stroke-linecap="round" stroke="rgb(0,0,255)" stroke-width="1.874998" fill="none" d="M 0.000000 750.000000 L 750.000000 444.444458 " />
<path stroke-linejoin="round" stroke-linecap="round" stroke="rgb(255,0,0)" stroke-width="3.749996" fill="none" d="M 78.252327 718.119446 L 81.150566 721.017639 " />
<path stroke-linejoin="round" stroke-linecap="round" stroke="rgb(0,0,255)" stroke-width="1.874998" fill="none" d="M 0.000000 750.000000 L 750.000000 403.846161 " />
<path stroke-linejoin="round" stroke-linecap="round" stroke="rgb(255,0,0)" stroke-width="3.749996" fill="none" d="M 75.354095 715.221191 L 78.252327 718.119446 " />
<path stroke-linejoin="round" stroke-linecap="round" stroke="rgb(0,0,255)" stroke-width="1.874998" fill="none" d="M 0.000000 750.000000 L 750.000000 360.000000 " />
<path stroke-linejoin="round" stroke-linecap="round" stroke="rgb(255,0,0)" stroke-width="3.749996" fill="none" d="M 72.455879 712.322937 L 75.354095 715.221191 " />
<path stroke-linejoin="round" stroke-linecap="round" stroke="rgb(0,0,255)" stroke-width="1.874998" fill="none" d="M 0.000000 750.000000 L 750.000000 346.153839 " />
<path stroke-linejoin="round" stroke-linecap="round" stroke="rgb(255,0,0)" stroke-width="3.749996" fill="none" d="M 71.586395 711.453491 L 72.455879 712.322937 " />
<path stroke-linejoin="round" stroke-linecap="round" stroke="rgb(0,0,255)" stroke-width="1.874998" fill="none" d="M 0.000000 750.000000 L 750.000000 299.999969 " />
<path stroke-linejoin="round" stroke-linecap="round" stroke="rgb(255,0,0)" stroke-width="3.749996" fill="none" d="M 68.833061 708.700134 L 71.586395 711.453491 " />
<path stroke-linejoin="round" stroke-linecap="round" stroke="rgb(0,0,255)" stroke-width="1.874998" fill="none" d="M 0.000000 750.000000 L 750.000000 288.461517 " />
<path stroke-linejoin="round" stroke-linecap="round" stroke="rgb(255,0,0)" stroke-width="3.749996" fill="none" d="M 68.177528 708.044617 L 68.833061 708.700134 " />
<path stroke-linejoin="round" stroke-linecap="round" stroke="rgb(0,0,255)" stroke-width="1.874998" fill="none" d="M 0.000000 750.000000 L 750.000000 249.999985 " />
<path stroke-linejoin="round" stroke-linecap="round" stroke="rgb(255,0,0)" stroke-width="3.749996" fill="none" d="M 66.079750 705.946838 L 68.177528 708.044617 " />
<path stroke-linejoin="round" stroke-linecap="round" stroke="rgb(0,0,255)" stroke-width="1.874998" fill="none" d="M 0.000000 750.000000 L 750.000000 240.000000 " />
<path stroke-linejoin="round" stroke-linecap="round" stroke="rgb(255,0,0)" stroke-width="3.749996" fill="none" d="M 65.555313 705.422424 L 66.079750 705.946838 " />
<path stroke-linejoin="round" stroke-linecap="round" stroke="rgb(0,0,255)" stroke-width="1.874998" fill="none" d="M 0.000000 750.000000 L 750.000000 195.652176 " />
<path stroke-linejoin="round" stroke-linecap="round" stroke="rgb(255,0,0)" stroke-width="3.749996" fill="none" d="M 63.326420 703.193481 L 65.555313 705.422424 " />
<path stroke-linejoin="round" stroke-linecap="round" stroke="rgb(0,0,255)" stroke-width="1.874998" fill="none" d="M 0.000000 750.000000 L 750.000000 187.500000 " />
<path stroke-linejoin="round" stroke-linecap="round" stroke="rgb(255,0,0)" stroke-width="3.749996" fill="none" d="M 62.933094 702.800171 L 63.326420 703.193481 " />
<path stroke-linejoin="round" stroke-linecap="round" stroke="rgb(0,0,255)" stroke-width="1.874998" fill="none" d="M 0.000000 750.000000 L 750.000000 136.363647 " />
<path stroke-linejoin="round" stroke-linecap="round" stroke="rgb(255,0,0)" stroke-width="3.749996" fill="none" d="M 60.573109 700.440186 L 62.933094 702.800171 " />
<path stroke-linejoin="round" stroke-linecap="round" stroke="rgb(0,0,255)" stroke-width="1.874998" fill="none" d="M 0.000000 750.000000 L 750.000000 130.434799 " />
<path stroke-linejoin="round" stroke-linecap="round" stroke="rgb(255,0,0)" stroke-width="3.749996" fill="none" d="M 60.310879 700.177979 L 60.573109 700.440186 " />
<path stroke-linejoin="round" stroke-linecap="round" stroke="rgb(0,0,255)" stroke-width="1.874998" fill="none" d="M 0.000000 750.000000 L 750.000000 71.428566 " />
<path stroke-linejoin="round" stroke-linecap="round" stroke="rgb(255,0,0)" stroke-width="3.749996" fill="none" d="M 57.819775 697.686890 L 60.310879 700.177979 " />
<path stroke-linejoin="round" stroke-linecap="round" stroke="rgb(0,0,255)" stroke-width="1.874998" fill="none" d="M 0.000000 750.000000 L 750.000000 0.000000 " />
<path stroke-linejoin="round" stroke-linecap="round" stroke="rgb(255,0,0)" stroke-width="3.749996" fill="none" d="M 55.066444 694.933533 L 57.819775 697.686890 " />
<path stroke-linejoin="round" stroke-linecap="round" stroke="rgb(0,0,255)" stroke-width="1.874998" fill="none" d="M 0.000000 750.000000 L 681.818176 0.000000 " />
<path stroke-linejoin="round" stroke-linecap="round" stroke="rgb(255,0,0)" stroke-width="3.749996" fill="none" d="M 53.191490 691.489380 L 55.066444 694.933533 " />
<path stroke-linejoin="round" stroke-linecap="round" stroke="rgb(0,0,255)" stroke-width="1.874998" fill="none" d="M 0.000000 750.000000 L 619.565186 0.000000 " />
<path stroke-linejoin="round" stroke-linecap="round" stroke="rgb(255,0,0)" stroke-width="3.749996" fill="none" d="M 52.777782 686.111145 L 53.191490 691.489380 " />
<path stroke-linejoin="round" stroke-linecap="round" stroke="rgb(0,0,255)" stroke-width="1.874998" fill="none" d="M 0.000000 750.000000 L 562.500000 0.000000 " />
<path stroke-linejoin="round" stroke-linecap="round" stroke="rgb(255,0,0)" stroke-width="3.749996" fill="none" d="M 52.325584 680.232544 L 52.777782 686.111145 " />
<path stroke-linejoin="round" stroke-linecap="round" stroke="rgb(0,0,255)" stroke-width="1.874998" fill="none" d="M 0.000000 750.000000 L 510.000000 0.000000 " />
<path stroke-linejoin="round" stroke-linecap="round" stroke="rgb(255,0,0)" stroke-width="3.749996" fill="none" d="M 51.829262 673.780457 L 52.325584 680.232544 " />
<path stroke-linejoin="round" stroke-linecap="round" stroke="rgb(0,0,255)" stroke-width="1.874998" fill="none" d="M 0.000000 750.000000 L 461.538483 0.000000 " />
<path stroke-linejoin="round" stroke-linecap="round" stroke="rgb(255,0,0)" stroke-width="3.749996" fill="none" d="M 51.282047 666.666687 L 51.829262 673.780457 " />
<path stroke-linejoin="round" stroke-linecap="round" stroke="rgb(0,0,255)" stroke-width="1.874998" fill="none" d="M 0.000000 750.000000 L 428.571442 0.000000 " />
<path stroke-linejoin="round" stroke-linecap="round" stroke="rgb(255,0,0)" stroke-width="3.749996" fill="none" d="M 50.847462 661.016968 L 51.282047 666.666687 " />
<path stroke-linejoin="round" stroke-linecap="round" stroke="rgb(0,0,255)" stroke-width="1.874998" fill="none" d="M 0.000000 750.000000 L 400.000031 0.000000 " />
<path stroke-linejoin="round" stroke-linecap="round" stroke="rgb(255,0,0)" stroke-width="3.749996" fill="none" d="M 50.420166 655.462219 L 50.847462 661.016968 " />
<path stroke-linejoin="round" stroke-linecap="round" stroke="rgb(0,0,255)" stroke-width="1.874998" fill="none" d="M 0.000000 750.000000 L 375.000000 0.000000 " />
<path stroke-linejoin="round" stroke-linecap="round" stroke="rgb(255,0,0)" stroke-width="3.749996" fill="none" d="M 49.999996 650.000000 L 50.420166 655.462219 " />
<path stroke-linejoin="round" stroke-linecap="round" stroke="rgb(0,0,255)" stroke-width="1.874998" fill="none" d="M 0.000000 750.000000 L 352.941193 0.000000 " />
<path stroke-linejoin="round" stroke-linecap="round" stroke="rgb(255,0,0)" stroke-width="3.749996" fill="none" d="M 49.586781 644.628052 L 49.999996 650.000000 " />
<path stroke-linejoin="round" stroke-linecap="round" stroke="rgb(0,0,255)" stroke-width="1.874998" fill="none" d="M 0.000000 750.000000 L 333.333344 0.000000 " />
<path stroke-linejoin="round" stroke-linecap="round" stroke="rgb(255,0,0)" stroke-width="3.749996" fill="none" d="M 49.180336 639.344238 L 49.586781 644.628052 " />
<path stroke-linejoin="round" stroke-linecap="round" stroke="rgb(0,0,255)" stroke-width="1.874998" fill="none" d="M 0.000000 750.000000 L 315.789490 0.000000 " />
<path stroke-linejoin="round" stroke-linecap="round" stroke="rgb(255,0,0)" stroke-width="3.749996" fill="none" d="M 48.780487 634.146362 L 49.180336 639.344238 " />
<path stroke-linejoin="round" stroke-linecap="round" stroke="rgb(0,0,255)" stroke-width="1.874998" fill="none" d="M 0.000000 750.000000 L 300.000000 0.000000 " />
<path stroke-linejoin="round" stroke-linecap="round" stroke="rgb(255,0,0)" stroke-width="3.749996" fill="none" d="M 48.387096 629.032288 L 48.780487 634.146362 " />
<path stroke-linejoin="round" stroke-linecap="round" stroke="rgb(0,0,255)" stroke-width="1.874998" fill="none" d="M 0.000000 750.000000 L 285.714294 0.000000 " />
<path stroke-linejoin="round" stroke-linecap="round" stroke="rgb(255,0,0)" stroke-width="3.749996" fill="none" d="M 48.000008 624.000000 L 48.387096 629.032288 " />
<path stroke-linejoin="round" stroke-linecap="round" stroke="rgb(0,0,255)" stroke-width="1.874998" fill="none" d="M 0.000000 750.000000 L 276.315796 0.000000 " />
<path stroke-linejoin="round" stroke-linecap="round" stroke="rgb(255,0,0)" stroke-width="3.749996" fill="none" d="M 47.727272 620.454590 L 48.000008 624.000000 " />
<path stroke-linejoin="round" stroke-linecap="round" stroke="rgb(0,0,255)" stroke-width="1.874998" fill="none" d="M 0.000000 750.000000 L 262.500000 0.000000 " />
<path stroke-linejoin="round" stroke-linecap="round" stroke="rgb(255,0,0)" stroke-width="3.749996" fill="none" d="M 47.297291 614.864868 L 47.727272 620.454590 " />
<path stroke-linejoin="round" stroke-linecap="round" stroke="rgb(0,0,255)" stroke-width="1.874998" fill="none" d="M 0.000000 750.000000 L 250.000000 0.000000 " />
<path stroke-linejoin="round" stroke-linecap="round" stroke="rgb(255,0,0)" stroke-width="3.749996" fill="none" d="M 46.875000 609.375000 L 47.297291 614.864868 " />
<path stroke-linejoin="round" stroke-linecap="round" stroke="rgb(0,0,255)" stroke-width="1.874998" fill="none" d="M 0.000000 750.000000 L 226.744186 0.000000 " />
<path stroke-linejoin="round" stroke-linecap="round" stroke="rgb(255,0,0)" stroke-width="3.749996" fill="none" d="M 45.990562 597.877380 L 46.875000 609.375000 " />
<path stroke-linejoin="round" stroke-linecap="round" stroke="rgb(0,0,255)" stroke-width="1.874998" fill="none" d="M 0.000000 750.000000 L 204.545456 0.000000 " />
<path stroke-linejoin="round" stroke-linecap="round" stroke="rgb(255,0,0)" stroke-width="3.749996" fill="none" d="M 45.000000 585.000000 L 45.990562 597.877380 " />
<path stroke-linejoin="round" stroke-linecap="round" stroke="rgb(0,0,255)" stroke-width="1.874998" fill="none" d="M 0.000000 750.000000 L 195.652176 0.000000 " />
<path stroke-linejoin="round" stroke-linecap="round" stroke="rgb(255,0,0)" stroke-width="3.749996" fill="none" d="M 44.554443 579.207947 L 45.000000 585.000000 " />
<path stroke-linejoin="round" stroke-linecap="round" stroke="rgb(0,0,255)" stroke-width="1.874998" fill="none" d="M 0.000000 750.000000 L 187.500000 0.000000 " />
<path stroke-linejoin="round" stroke-linecap="round" stroke="rgb(255,0,0)" stroke-width="3.749996" fill="none" d="M 44.117645 573.529419 L 44.554443 579.207947 " />
<path stroke-linejoin="round" stroke-linecap="round" stroke="rgb(0,0,255)" stroke-width="1.874998" fill="none" d="M 0.000000 750.000000 L 180.000000 0.000000 " />
<path stroke-linejoin="round" stroke-linecap="round" stroke="rgb(255,0,0)" stroke-width="3.749996" fill="none" d="M 43.689320 567.961182 L 44.117645 573.529419 " />
<path stroke-linejoin="round" stroke-linecap="round" stroke="rgb(0,0,255)" stroke-width="1.874998" fill="none" d="M 0.000000 750.000000 L 173.076920 0.000000 " />
<path stroke-linejoin="round" stroke-linecap="round" stroke="rgb(255,0,0)" stroke-width="3.749996" fill="none" d="M 43.269238 562.500000 L 43.689320 567.961182 " />
<path stroke-linejoin="round" stroke-linecap="round" stroke="rgb(0,0,255)" stroke-width="1.874998" fill="none" d="M 0.000000 750.000000 L 166.666656 0.000000 " />
<path stroke-linejoin="round" stroke-linecap="round" stroke="rgb(255,0,0)" stroke-width="3.749996" fill="none" d="M 42.857140 557.142883 L 43.269238 562.500000 " />
<path stroke-linejoin="round" stroke-linecap="round" stroke="rgb(0,0,255)" stroke-width="1.874998" fill="none" d="M 0.000000 750.000000 L 160.714294 0.000000 " />
<path stroke-linejoin="round" stroke-linecap="round" stroke="rgb(255,0,0)" stroke-width="3.749996" fill="none" d="M 42.452843 551.886780 L 42.857140 557.142822 " />
<path stroke-linejoin="round" stroke-linecap="round" stroke="rgb(0,0,255)" stroke-width="1.874998" fill="none" d="M 0.000000 750.000000 L 155.172409 0.000000 " />
<path stroke-linejoin="round" stroke-linecap="round" stroke="rgb(255,0,0)" stroke-width="3.749996" fill="none" d="M 42.056076 546.728943 L 42.452843 551.886780 " />
<path stroke-linejoin="round" stroke-linecap="round" stroke="rgb(0,0,255)" stroke-width="1.874998" fill="none" d="M 0.000000 750.000000 L 149.999985 0.000000 " />
<path stroke-linejoin="round" stroke-linecap="round" stroke="rgb(255,0,0)" stroke-width="3.749996" fill="none" d="M 41.666664 541.666687 L 42.056076 546.728943 " />
<path stroke-linejoin="round" stroke-linecap="round" stroke="rgb(0,0,255)" stroke-width="1.874998" fill="none" d="M 0.000000 750.000000 L 145.161285 0.000000 " />
<path stroke-linejoin="round" stroke-linecap="round" stroke="rgb(255,0,0)" stroke-width="3.749996" fill="none" d="M 41.284405 536.697266 L 41.666664 541.666687 " />
<path stroke-linejoin="round" stroke-linecap="round" stroke="rgb(0,0,255)" stroke-width="1.874998" fill="none" d="M 0.000000 750.000000 L 140.625000 0.000000 " />
<path stroke-linejoin="round" stroke-linecap="round" stroke="rgb(255,0,0)" stroke-width="3.749996" fill="none" d="M 40.909096 531.818237 L 41.284405 536.697266 " />
<path stroke-linejoin="round" stroke-linecap="round" stroke="rgb(0,0,255)" stroke-width="1.874998" fill="none" d="M 0.000000 750.000000 L 136.363647 0.000000 " />
<path stroke-linejoin="round" stroke-linecap="round" stroke="rgb(255,0,0)" stroke-width="3.749996" fill="none" d="M 40.540539 527.027100 L 40.909096 531.818237 " />
<path stroke-linejoin="round" stroke-linecap="round" stroke="rgb(0,0,255)" stroke-width="1.874998" fill="none" d="M 0.000000 750.000000 L 132.352936 0.000000 " />
<path stroke-linejoin="round" stroke-linecap="round" stroke="rgb(255,0,0)" stroke-width="3.749996" fill="none" d="M 40.178574 522.321411 L 40.540539 527.027100 " />
<path stroke-linejoin="round" stroke-linecap="round" stroke="rgb(0,0,255)" stroke-width="1.874998" fill="none" d="M 0.000000 750.000000 L 128.571426 0.000000 " />
<path stroke-linejoin="round" stroke-linecap="round" stroke="rgb(255,0,0)" stroke-width="3.749996" fill="none" d="M 39.823002 517.699097 L 40.178574 522.321411 " />
<path stroke-linejoin="round" stroke-linecap="round" stroke="rgb(0,0,255)" stroke-width="1.874998" fill="none" d="M 0.000000 750.000000 L 121.874992 0.000000 " />
<path stroke-linejoin="round" stroke-linecap="round" stroke="rgb(255,0,0)" stroke-width="3.749996" fill="none" d="M 39.156631 509.036163 L 39.823002 517.699097 " />
<path stroke-linejoin="round" stroke-linecap="round" stroke="rgb(0,0,255)" stroke-width="1.874998" fill="none" d="M 0.000000 750.000000 L 116.197182 0.000000 " />
<path stroke-linejoin="round" stroke-linecap="round" stroke="rgb(255,0,0)" stroke-width="3.749996" fill="none" d="M 38.551392 501.168243 L 39.156631 509.036163 " />
<path stroke-linejoin="round" stroke-linecap="round" stroke="rgb(0,0,255)" stroke-width="1.874998" fill="none" d="M 0.000000 750.000000 L 104.166672 0.000000 " />
<path stroke-linejoin="round" stroke-linecap="round" stroke="rgb(255,0,0)" stroke-width="3.749996" fill="none" d="M 37.128700 482.673309 L 38.551392 501.168243 " />
<path stroke-linejoin="round" stroke-linecap="round" stroke="rgb(0,0,255)" stroke-width="1.874998" fill="none" d="M 0.000000 750.000000 L 92.465759 0.000000 " />
<path stroke-linejoin="round" stroke-linecap="round" stroke="rgb(255,0,0)" stroke-width="3.749996" fill="none" d="M 35.526306 461.842163 L 37.128700 482.673309 " />
<path stroke-linejoin="round" stroke-linecap="round" stroke="rgb(0,0,255)" stroke-width="1.874998" fill="none" d="M 0.000000 750.000000 L 81.081078 0.000000 " />
<path stroke-linejoin="round" stroke-linecap="round" stroke="rgb(255,0,0)" stroke-width="3.749996" fill="none" d="M 33.707855 438.202271 L 35.526306 461.842163 " />
<path stroke-linejoin="round" stroke-linecap="round" stroke="rgb(0,0,255)" stroke-width="1.874998" fill="none" d="M 0.000000 750.000000 L 78.947380 0.000000 " />
<path stroke-linejoin="round" stroke-linecap="round" stroke="rgb(255,0,0)" stroke-width="3.749996" fill="none" d="M 33.333332 433.333344 L 33.707855 438.202271 " />
<path stroke-linejoin="round" stroke-linecap="round" stroke="rgb(0,0,255)" stroke-width="1.874998" fill="none" d="M 0.000000 750.000000 L 76.923073 0.000000 " />
<path stroke-linejoin="round" stroke-linecap="round" stroke="rgb(255,0,0)" stroke-width="3.749996" fill="none" d="M 32.967030 428.571503 L 33.333332 433.333344 " />
<path stroke-linejoin="round" stroke-linecap="round" stroke="rgb(0,0,255)" stroke-width="1.874998" fill="none" d="M 0.000000 750.000000 L 74.999992 0.000000 " />
<path stroke-linejoin="round" stroke-linecap="round" stroke="rgb(255,0,0)" stroke-width="3.749996" fill="none" d="M 32.608688 423.913086 L 32.967030 428.571503 " />
<path stroke-linejoin="round" stroke-linecap="round" stroke="rgb(0,0,255)" stroke-width="1.874998" fill="none" d="M 0.000000 750.000000 L 73.170731 0.000000 " />
<path stroke-linejoin="round" stroke-linecap="round" stroke="rgb(255,0,0)" stroke-width="3.749996" fill="none" d="M 32.258057 419.354889 L 32.608688 423.913086 " />
<path stroke-linejoin="round" stroke-linecap="round" stroke="rgb(0,0,255)" stroke-width="1.874998" fill="none" d="M 0.000000 750.000000 L 71.428566 0.000000 " />
<path stroke-linejoin="round" stroke-linecap="round" stroke="rgb(255,0,0)" stroke-width="3.749996" fill="none" d="M 31.914890 414.893646 L 32.258057 419.354889 " />
<path stroke-linejoin="round" stroke-linecap="round" stroke="rgb(0,0,255)" stroke-width="1.874998" fill="none" d="M 0.000000 750.000000 L 69.767433 0.000000 " />
<path stroke-linejoin="round" stroke-linecap="round" stroke="rgb(255,0,0)" stroke-width="3.749996" fill="none" d="M 31.578943 410.526337 L 31.914890 414.893646 " />
<path stroke-linejoin="round" stroke-linecap="round" stroke="rgb(0,0,255)" stroke-width="1.874998" fill="none" d="M 0.000000 750.000000 L 68.181824 0.000000 " />
<path stroke-linejoin="round" stroke-linecap="round" stroke="rgb(255,0,0)" stroke-width="3.749996" fill="none" d="M 31.249992 406.250000 L 31.578943 410.526337 " />
<path stroke-linejoin="round" stroke-linecap="round" stroke="rgb(0,0,255)" stroke-width="1.874998" fill="none" d="M 0.000000 750.000000 L 66.666664 0.000000 " />
<path stroke-linejoin="round" stroke-linecap="round" stroke="rgb(255,0,0)" stroke-width="3.749996" fill="none" d="M 30.927837 402.061920 L 31.249992 406.250000 " />
<path stroke-linejoin="round" stroke-linecap="round" stroke="rgb(0,0,255)" stroke-width="1.874998" fill="none" d="M 0.000000 750.000000 L 65.934059 0.000000 " />
<path stroke-linejoin="round" stroke-linecap="round" stroke="rgb(255,0,0)" stroke-width="3.749996" fill="none" d="M 30.769230 400.000061 L 30.927837 402.061920 " />
<path stroke-linejoin="round" stroke-linecap="round" stroke="rgb(0,0,255)" stroke-width="1.874998" fill="none" d="M 0.000000 750.000000 L 64.516136 0.000000 " />
<path stroke-linejoin="round" stroke-linecap="round" stroke="rgb(255,0,0)" stroke-width="3.749996" fill="none" d="M 30.456841 395.939117 L 30.769230 400.000061 " />
<path stroke-linejoin="round" stroke-linecap="round" stroke="rgb(0,0,255)" stroke-width="1.874998" fill="none" d="M 0.000000 750.000000 L 63.157887 0.000000 " />
<path stroke-linejoin="round" stroke-linecap="round" stroke="rgb(255,0,0)" stroke-width="3.749996" fill="none" d="M 30.150757 391.959839 L 30.456841 395.939117 " />
<path stroke-linejoin="round" stroke-linecap="round" stroke="rgb(0,0,255)" stroke-width="1.874998" fill="none" d="M 0.000000 750.000000 L 56.603775 0.000000 " />
<path stroke-linejoin="round" stroke-linecap="round" stroke="rgb(255,0,0)" stroke-width="3.749996" fill="none" d="M 28.571426 371.428589 L 30.150757 391.959839 " />
<path stroke-linejoin="round" stroke-linecap="round" stroke="rgb(0,0,255)" stroke-width="1.874998" fill="none" d="M 0.000000 750.000000 L 48.913033 0.000000 " />
<path stroke-linejoin="round" stroke-linecap="round" stroke="rgb(255,0,0)" stroke-width="3.749996" fill="none" d="M 26.470587 344.117615 L 28.571426 371.428589 " />
<path stroke-linejoin="round" stroke-linecap="round" stroke="rgb(0,0,255)" stroke-width="1.874998" fill="none" d="M 0.000000 750.000000 L 40.322586 0.000000 " />
<path stroke-linejoin="round" stroke-linecap="round" stroke="rgb(255,0,0)" stroke-width="3.749996" fill="none" d="M 23.734175 308.544250 L 26.470587 344.117615 " />
<path stroke-linejoin="round" stroke-linecap="round" stroke="rgb(0,0,255)" stroke-width="1.874998" fill="none" d="M 0.000000 750.000000 L 31.914890 0.000000 " />
<path stroke-linejoin="round" stroke-linecap="round" stroke="rgb(255,0,0)" stroke-width="3.749996" fill="none" d="M 20.547956 267.123291 L 23.734175 308.544250 " />
<path stroke-linejoin="round" stroke-linecap="round" stroke="rgb(0,0,255)" stroke-width="1.874998" fill="none" d="M 0.000000 750.000000 L 28.571426 0.000000 " />
<path stroke-linejoin="round" stroke-linecap="round" stroke="rgb(255,0,0)" stroke-width="3.749996" fill="none" d="M 19.108280 248.407654 L 20.547956 267.123291 " />
<path stroke-linejoin="round" stroke-linecap="round" stroke="rgb(0,0,255)" stroke-width="1.874998" fill="none" d="M 0.000000 750.000000 L 22.388063 0.000000 " />
<path stroke-linejoin="round" stroke-linecap="round" stroke="rgb(255,0,0)" stroke-width="3.749996" fill="none" d="M 16.129040 209.677490 L 19.108280 248.407654 " />
<path stroke-linejoin="round" stroke-linecap="round" stroke="rgb(0,0,255)" stroke-width="1.874998" fill="none" d="M 0.000000 750.000000 L 19.480526 0.000000 " />
<path stroke-linejoin="round" stroke-linecap="round" stroke="rgb(255,0,0)" stroke-width="3.749996" fill="none" d="M 14.563099 189.320480 L 16.129040 209.677490 " />
<path stroke-linejoin="round" stroke-linecap="round" stroke="rgb(0,0,255)" stroke-width="1.874998" fill="none" d="M 0.000000 750.000000 L 19.354843 0.000000 " />
<path stroke-linejoin="round" stroke-linecap="round" stroke="rgb(255,0,0)" stroke-width="3.749996" fill="none" d="M 14.492758 188.405869 L 14.563099 189.320480 " />
<path stroke-linejoin="round" stroke-linecap="round" stroke="rgb(0,0,255)" stroke-width="1.874998" fill="none" d="M 0.000000 750.000000 L 18.987335 0.000000 " />
<path stroke-linejoin="round" stroke-linecap="round" stroke="rgb(255,0,0)" stroke-width="3.749996" fill="none" d="M 14.285713 185.714371 L 14.492758 188.405869 " />
<path stroke-linejoin="round" stroke-linecap="round" stroke="rgb(0,0,255)" stroke-width="1.874998" fill="none" d="M 0.000000 750.000000 L 18.404917 0.000000 " />
<path stroke-linejoin="round" stroke-linecap="round" stroke="rgb(255,0,0)" stroke-width="3.749996" fill="none" d="M 13.953477 181.395401 L 14.285713 185.714371 " />
<path stroke-linejoin="round" stroke-linecap="round" stroke="rgb(0,0,255)" stroke-width="1.874998" fill="none" d="M 0.000000 750.000000 L 17.857141 0.000000 " />
<path stroke-linejoin="round" stroke-linecap="round" stroke="rgb(255,0,0)" stroke-width="3.749996" fill="none" d="M 13.636373 177.272766 L 13.953477 181.395340 " />
<path stroke-linejoin="round" stroke-linecap="round" stroke="rgb(0,0,255)" stroke-width="1.874998" fill="none" d="M 0.000000 750.000000 L 17.751486 0.000000 " />
<path stroke-linejoin="round" stroke-linecap="round" stroke="rgb(255,0,0)" stroke-width="3.749996" fill="none" d="M 13.574659 176.470596 L 13.636373 177.272766 " />
<path stroke-linejoin="round" stroke-linecap="round" stroke="rgb(0,0,255)" stroke-width="1.874998" fill="none" d="M 0.000000 750.000000 L 17.241373 0.000000 " />
<path stroke-linejoin="round" stroke-linecap="round" stroke="rgb(255,0,0)" stroke-width="3.749996" fill="none" d="M 13.274342 172.566422 L 13.574659 176.470596 " />
<path stroke-linejoin="round" stroke-linecap="round" stroke="rgb(0,0,255)" stroke-width="1.874998" fill="none" d="M 0.000000 750.000000 L 17.142847 0.000000 " />
<path stroke-linejoin="round" stroke-linecap="round" stroke="rgb(255,0,0)" stroke-width="3.749996" fill="none" d="M 13.215870 171.806213 L 13.274342 172.566422 " />
<path stroke-linejoin="round" stroke-linecap="round" stroke="rgb(0,0,255)" stroke-width="1.874998" fill="none" d="M 0.000000 750.000000 L 11.904761 0.000000 " />
<path stroke-linejoin="round" stroke-linecap="round" stroke="rgb(255,0,0)" stroke-width="3.749996" fill="none" d="M 9.868428 128.289505 L 13.215870 171.806213 " />
<path stroke-linejoin="round" stroke-linecap="round" stroke="rgb(0,0,255)" stroke-width="1.874998" fill="none" d="M 0.000000 750.000000 L 5.514711 0.000000 " />
<path stroke-linejoin="round" stroke-linecap="round" stroke="rgb(255,0,0)" stroke-width="3.749996" fill="none" d="M 5.033567 65.436287 L 9.868428 128.289505 " />
<path stroke-linejoin="round" stroke-linecap="round" stroke="rgb(0,0,255)" stroke-width="1.874998" fill="none" d="M 0.000000 750.000000 L 0.000000 0.000000 " />
<path stroke-linejoin="round" stroke-linecap="round" stroke="rgb(255,0,0)" stroke-width="3.749996" fill="none" d="M 0.000000 0.000000 L 5.033567 65.436356 " />
<circle cx="106.893696" cy="746.760830" r="3.749996" style="fill:rgb(0,127,0);stroke-width:1" /><circle cx="104.014389" cy="743.881501" r="3.749996" style="fill:rgb(0,127,0);stroke-width:1" /><circle cx="100.955151" cy="740.822263" r="3.749996" style="fill:rgb(0,127,0);stroke-width:1" /><circle cx="98.539956" cy="738.407068" r="3.749996" style="fill:rgb(0,127,0);stroke-width:1" /><circle cx="97.895913" cy="737.763003" r="3.749996" style="fill:rgb(0,127,0);stroke-width:1" /><circle cx="95.641717" cy="735.508829" r="3.749996" style="fill:rgb(0,127,0);stroke-width:1" /><circle cx="94.836675" cy="734.703764" r="3.749996" style="fill:rgb(0,127,0);stroke-width:1" /><circle cx="91.777414" cy="731.644526" r="3.749996" style="fill:rgb(0,127,0);stroke-width:1" /><circle cx="89.845262" cy="729.712352" r="3.749996" style="fill:rgb(0,127,0);stroke-width:1" /><circle cx="88.718176" cy="728.585266" r="3.749996" style="fill:rgb(0,127,0);stroke-width:1" /><circle cx="86.947046" cy="726.814114" r="3.749996" style="fill:rgb(0,127,0);stroke-width:1" /><circle cx="85.658938" cy="725.526005" r="3.749996" style="fill:rgb(0,127,0);stroke-width:1" /><circle cx="84.048808" cy="723.915897" r="3.749996" style="fill:rgb(0,127,0);stroke-width:1" /><circle cx="81.150569" cy="721.017659" r="3.749996" style="fill:rgb(0,127,0);stroke-width:1" /><circle cx="78.252330" cy="718.119420" r="3.749996" style="fill:rgb(0,127,0);stroke-width:1" /><circle cx="75.354092" cy="715.221182" r="3.749996" style="fill:rgb(0,127,0);stroke-width:1" /><circle cx="72.455876" cy="712.322943" r="3.749996" style="fill:rgb(0,127,0);stroke-width:1" /><circle cx="71.586393" cy="711.453483" r="3.749996" style="fill:rgb(0,127,0);stroke-width:1" /><circle cx="68.833061" cy="708.700150" r="3.749996" style="fill:rgb(0,127,0);stroke-width:1" /><circle cx="68.177529" cy="708.044596" r="3.749996" style="fill:rgb(0,127,0);stroke-width:1" /><circle cx="66.079751" cy="705.946840" r="3.749996" style="fill:rgb(0,127,0);stroke-width:1" /><circle cx="65.555312" cy="705.422401" r="3.749996" style="fill:rgb(0,127,0);stroke-width:1" /><circle cx="63.326418" cy="703.193508" r="3.749996" style="fill:rgb(0,127,0);stroke-width:1" /><circle cx="62.933095" cy="702.800184" r="3.749996" style="fill:rgb(0,127,0);stroke-width:1" /><circle cx="60.573108" cy="700.440176" r="3.749996" style="fill:rgb(0,127,0);stroke-width:1" /><circle cx="60.310878" cy="700.177968" r="3.749996" style="fill:rgb(0,127,0);stroke-width:1" /><circle cx="57.819776" cy="697.686866" r="3.749996" style="fill:rgb(0,127,0);stroke-width:1" /><circle cx="55.066444" cy="694.933556" r="3.749996" style="fill:rgb(0,127,0);stroke-width:1" /><circle cx="53.191490" cy="691.489354" r="3.749996" style="fill:rgb(0,127,0);stroke-width:1" /><circle cx="52.777782" cy="686.111100" r="3.749996" style="fill:rgb(0,127,0);stroke-width:1" /><circle cx="52.325584" cy="680.232547" r="3.749996" style="fill:rgb(0,127,0);stroke-width:1" /><circle cx="51.829264" cy="673.780493" r="3.749996" style="fill:rgb(0,127,0);stroke-width:1" /><circle cx="51.282048" cy="666.666672" r="3.749996" style="fill:rgb(0,127,0);stroke-width:1" /><circle cx="50.847463" cy="661.016956" r="3.749996" style="fill:rgb(0,127,0);stroke-width:1" /><circle cx="50.420165" cy="655.462191" r="3.749996" style="fill:rgb(0,127,0);stroke-width:1" /><circle cx="49.999997" cy="650.000006" r="3.749996" style="fill:rgb(0,127,0);stroke-width:1" /><circle cx="49.586780" cy="644.628100" r="3.749996" style="fill:rgb(0,127,0);stroke-width:1" /><circle cx="49.180336" cy="639.344260" r="3.749996" style="fill:rgb(0,127,0);stroke-width:1" /><circle cx="48.780486" cy="634.146340" r="3.749996" style="fill:rgb(0,127,0);stroke-width:1" /><circle cx="48.387095" cy="629.032262" r="3.749996" style="fill:rgb(0,127,0);stroke-width:1" /><circle cx="48.000008" cy="623.999991" r="3.749996" style="fill:rgb(0,127,0);stroke-width:1" /><circle cx="47.727272" cy="620.454557" r="3.749996" style="fill:rgb(0,127,0);stroke-width:1" /><circle cx="47.297291" cy="614.864878" r="3.749996" style="fill:rgb(0,127,0);stroke-width:1" /><circle cx="46.875000" cy="609.375022" r="3.749996" style="fill:rgb(0,127,0);stroke-width:1" /><circle cx="45.990564" cy="597.877376" r="3.749996" style="fill:rgb(0,127,0);stroke-width:1" /><circle cx="45.000002" cy="585.000001" r="3.749996" style="fill:rgb(0,127,0);stroke-width:1" /><circle cx="44.554442" cy="579.207949" r="3.749996" style="fill:rgb(0,127,0);stroke-width:1" /><circle cx="44.117644" cy="573.529400" r="3.749996" style="fill:rgb(0,127,0);stroke-width:1" /><circle cx="43.689318" cy="567.961156" r="3.749996" style="fill:rgb(0,127,0);stroke-width:1" /><circle cx="43.269239" cy="562.500000" r="3.749996" style="fill:rgb(0,127,0);stroke-width:1" /><circle cx="42.857140" cy="557.142857" r="3.749996" style="fill:rgb(0,127,0);stroke-width:1" /><circle cx="42.452842" cy="551.886790" r="3.749996" style="fill:rgb(0,127,0);stroke-width:1" /><circle cx="42.056076" cy="546.728969" r="3.749996" style="fill:rgb(0,127,0);stroke-width:1" /><circle cx="41.666664" cy="541.666679" r="3.749996" style="fill:rgb(0,127,0);stroke-width:1" /><circle cx="41.284405" cy="536.697261" r="3.749996" style="fill:rgb(0,127,0);stroke-width:1" /><circle cx="40.909097" cy="531.818189" r="3.749996" style="fill:rgb(0,127,0);stroke-width:1" /><circle cx="40.540539" cy="527.027048" r="3.749996" style="fill:rgb(0,127,0);stroke-width:1" /><circle cx="40.178575" cy="522.321425" r="3.749996" style="fill:rgb(0,127,0);stroke-width:1" /><circle cx="39.823003" cy="517.699119" r="3.749996" style="fill:rgb(0,127,0);stroke-width:1" /><circle cx="39.156631" cy="509.036165" r="3.749996" style="fill:rgb(0,127,0);stroke-width:1" /><circle cx="38.551390" cy="501.168251" r="3.749996" style="fill:rgb(0,127,0);stroke-width:1" /><circle cx="37.128702" cy="482.673291" r="3.749996" style="fill:rgb(0,127,0);stroke-width:1" /><circle cx="35.526305" cy="461.842161" r="3.749996" style="fill:rgb(0,127,0);stroke-width:1" /><circle cx="33.707857" cy="438.202294" r="3.749996" style="fill:rgb(0,127,0);stroke-width:1" /><circle cx="33.333331" cy="433.333369" r="3.749996" style="fill:rgb(0,127,0);stroke-width:1" /><circle cx="32.967031" cy="428.571481" r="3.749996" style="fill:rgb(0,127,0);stroke-width:1" /><circle cx="32.608688" cy="423.913093" r="3.749996" style="fill:rgb(0,127,0);stroke-width:1" /><circle cx="32.258056" cy="419.354900" r="3.749996" style="fill:rgb(0,127,0);stroke-width:1" /><circle cx="31.914890" cy="414.893643" r="3.749996" style="fill:rgb(0,127,0);stroke-width:1" /><circle cx="31.578943" cy="410.526370" r="3.749996" style="fill:rgb(0,127,0);stroke-width:1" /><circle cx="31.249993" cy="406.250034" r="3.749996" style="fill:rgb(0,127,0);stroke-width:1" /><circle cx="30.927837" cy="402.061905" r="3.749996" style="fill:rgb(0,127,0);stroke-width:1" /><circle cx="30.769229" cy="400.000052" r="3.749996" style="fill:rgb(0,127,0);stroke-width:1" /><circle cx="30.456841" cy="395.939112" r="3.749996" style="fill:rgb(0,127,0);stroke-width:1" /><circle cx="30.150756" cy="391.959812" r="3.749996" style="fill:rgb(0,127,0);stroke-width:1" /><circle cx="28.571427" cy="371.428600" r="3.749996" style="fill:rgb(0,127,0);stroke-width:1" /><circle cx="26.470587" cy="344.117632" r="3.749996" style="fill:rgb(0,127,0);stroke-width:1" /><circle cx="23.734175" cy="308.544260" r="3.749996" style="fill:rgb(0,127,0);stroke-width:1" /><circle cx="20.547956" cy="267.123286" r="3.749996" style="fill:rgb(0,127,0);stroke-width:1" /><circle cx="19.108281" cy="248.407658" r="3.749996" style="fill:rgb(0,127,0);stroke-width:1" /><circle cx="16.129039" cy="209.677476" r="3.749996" style="fill:rgb(0,127,0);stroke-width:1" /><circle cx="14.563099" cy="189.320482" r="3.749996" style="fill:rgb(0,127,0);stroke-width:1" /><circle cx="14.492758" cy="188.405871" r="3.749996" style="fill:rgb(0,127,0);stroke-width:1" /><circle cx="14.285713" cy="185.714364" r="3.749996" style="fill:rgb(0,127,0);stroke-width:1" /><circle cx="13.953477" cy="181.395404" r="3.749996" style="fill:rgb(0,127,0);stroke-width:1" /><circle cx="13.636373" cy="177.272759" r="3.749996" style="fill:rgb(0,127,0);stroke-width:1" /><circle cx="13.574660" cy="176.470600" r="3.749996" style="fill:rgb(0,127,0);stroke-width:1" /><circle cx="13.274342" cy="172.566421" r="3.749996" style="fill:rgb(0,127,0);stroke-width:1" /><circle cx="13.215870" cy="171.806216" r="3.749996" style="fill:rgb(0,127,0);stroke-width:1" /><circle cx="9.868428" cy="128.289498" r="3.749996" style="fill:rgb(0,127,0);stroke-width:1" /><circle cx="5.033568" cy="65.436289" r="3.749996" style="fill:rgb(0,127,0);stroke-width:1" /><circle cx="750.000000" cy="750.000000" r="3.749996" style="fill:rgb(0,127,0);stroke-width:1" /><path stroke-linejoin="round" stroke-linecap="round" stroke="rgb(255,255,255)" stroke-width="3.749996" fill="none" d="M 0.000000 750.000000 L 750.000000 750.000000 M 0.000000 750.000000 L 0.000000 0.000000 " />

</svg>