<svg xmlns="http://www.w3.org/2000/svg" version="1.1" width = "750" height = "750" viewBox = "0 0 750 750"  shape-rendering="crispEdges">
<path stroke-linejoin="round" stroke-linecap="round" stroke="rgb(255,255,0)" stroke-width="3.749996" fill="none" d="M 83.333328 750.000000 L 0.000000 0.000000 " />
<path stroke-linejoin="round" stroke-linecap="round" stroke="rgb(63,63,63)" stroke-width="3.749996" fill="none" d="M 0.000000 0.000000 L 750.000000 750.000000 M 83.333328 750.000000 L 39.215683 0.000000 " />
<path stroke-linejoin="round" stroke-linecap="round" stroke="rgb(191,191,191)" stroke-width="3.749996" fill="none" d="M 0.000000 666.666687 L 83.333328 750.000000 M 0.000000 0.000000 L 44.117645 750.000000 " />
<path stroke-linejoin="round" stroke-linecap="round" stroke="rgb(0,0,255)" stroke-width="1.874998" fill="none" d="M 0.000000 750.000000 L 750.000000 491.379303 " />
<path stroke-linejoin="round" stroke-linecap="round" stroke="rgb(255,0,0)" stroke-width="3.749996" fill="none" d="M 81.676620 721.835632 L 83.333328 750.000000 " />
<path stroke-linejoin="round" stroke-linecap="round" stroke="rgb(0,0,255)" stroke-width="1.874998" fill="none" d="M 0.000000 750.000000 L 750.000000 214.285706 " />
<path stroke-linejoin="round" stroke-linecap="round" stroke="rgb(255,0,0)" stroke-width="3.749996" fill="none" d="M 79.476265 693.231201 L 81.676620 721.835632 " />
<path stroke-linejoin="round" stroke-linecap="round" stroke="rgb(0,0,255)" stroke-width="1.874998" fill="none" d="M 0.000000 750.000000 L 725.000000 0.000000 " />
<path stroke-linejoin="round" stroke-linecap="round" stroke="rgb(255,0,0)" stroke-width="3.749996" fill="none" d="M 77.663025 669.658936 L 79.476265 693.231201 " />
<path stroke-linejoin="round" stroke-linecap="round" stroke="rgb(0,0,255)" stroke-width="1.874998" fill="none" d="M 0.000000 750.000000 L 525.000000 0.000000 " />
<path stroke-linejoin="round" stroke-linecap="round" stroke="rgb(255,0,0)" stroke-width="3.749996" fill="none" d="M 75.541801 642.083130 L 77.663025 669.658936 " />
<path stroke-linejoin="round" stroke-linecap="round" stroke="rgb(0,0,255)" stroke-width="1.874998" fill="none" d="M 0.000000 750.000000 L 435.000000 0.000000 " />
<path stroke-linejoin="round" stroke-linecap="round" stroke="rgb(255,0,0)" stroke-width="3.749996" fill="none" d="M 74.025391 622.369995 L 75.541801 642.083130 " />
<path stroke-linejoin="round" stroke-linecap="round" stroke="rgb(0,0,255)" stroke-width="1.874998" fill="none" d="M 0.000000 750.000000 L 405.000031 0.000000 " />
<path stroke-linejoin="round" stroke-linecap="round" stroke="rgb(255,0,0)" stroke-width="3.749996" fill="none" d="M 73.388863 614.094727 L 74.025391 622.369995 " />
<path stroke-linejoin="round" stroke-linecap="round" stroke="rgb(0,0,255)" stroke-width="1.874998" fill="none" d="M 0.000000 750.000000 L 325.000000 0.000000 " />
<path stroke-linejoin="round" stroke-linecap="round" stroke="rgb(255,0,0)" stroke-width="3.749996" fill="none" d="M 71.203438 585.684387 L 73.388863 614.094727 " />
<path stroke-linejoin="round" stroke-linecap="round" stroke="rgb(0,0,255)" stroke-width="1.874998" fill="none" d="M 0.000000 750.000000 L 267.857147 0.000000 " />
<path stroke-linejoin="round" stroke-linecap="round" stroke="rgb(255,0,0)" stroke-width="3.749996" fill="none" d="M 68.984825 556.842529 L 71.203415 585.684387 " />
<path stroke-linejoin="round" stroke-linecap="round" stroke="rgb(0,0,255)" stroke-width="1.874998" fill="none" d="M 0.000000 750.000000 L 225.000015 0.000000 " />
<path stroke-linejoin="round" stroke-linecap="round" stroke="rgb(255,0,0)" stroke-width="3.749996" fill="none" d="M 66.732246 527.559204 L 68.984825 556.842529 " />
<path stroke-linejoin="round" stroke-linecap="round" stroke="rgb(0,0,255)" stroke-width="1.874998" fill="none" d="M 0.000000 750.000000 L 208.333344 0.000000 " />
<path stroke-linejoin="round" stroke-linecap="round" stroke="rgb(255,0,0)" stroke-width="3.749996" fill="none" d="M 65.660255 513.623108 L 66.732246 527.559204 " />
<path stroke-linejoin="round" stroke-linecap="round" stroke="rgb(0,0,255)" stroke-width="1.874998" fill="none" d="M 0.000000 750.000000 L 191.666656 0.000000 " />
<path stroke-linejoin="round" stroke-linecap="round" stroke="rgb(255,0,0)" stroke-width="3.749996" fill="none" d="M 64.444923 497.824219 L 65.660233 513.623169 " />
<path stroke-linejoin="round" stroke-linecap="round" stroke="rgb(0,0,255)" stroke-width="1.874998" fill="none" d="M 0.000000 750.000000 L 180.000000 0.000000 " />
<path stroke-linejoin="round" stroke-linecap="round" stroke="rgb(255,0,0)" stroke-width="3.749996" fill="none" d="M 63.492805 485.446625 L 64.444923 497.824219 " />
<path stroke-linejoin="round" stroke-linecap="round" stroke="rgb(0,0,255)" stroke-width="1.874998" fill="none" d="M 0.000000 750.000000 L 156.818192 0.000000 " />
<path stroke-linejoin="round" stroke-linecap="round" stroke="rgb(255,0,0)" stroke-width="3.749996" fill="none" d="M 61.293594 456.856781 L 63.492805 485.446625 " />
<path stroke-linejoin="round" stroke-linecap="round" stroke="rgb(0,0,255)" stroke-width="1.874998" fill="none" d="M 0.000000 750.000000 L 137.500000 0.000000 " />
<path stroke-linejoin="round" stroke-linecap="round" stroke="rgb(255,0,0)" stroke-width="3.749996" fill="none" d="M 59.061863 427.844360 L 61.293594 456.856781 " />
<path stroke-linejoin="round" stroke-linecap="round" stroke="rgb(0,0,255)" stroke-width="1.874998" fill="none" d="M 0.000000 750.000000 L 121.153839 0.000000 " />
<path stroke-linejoin="round" stroke-linecap="round" stroke="rgb(255,0,0)" stroke-width="3.749996" fill="none" d="M 56.796917 398.400024 L 59.061863 427.844360 " />
<path stroke-linejoin="round" stroke-linecap="round" stroke="rgb(0,0,255)" stroke-width="1.874998" fill="none" d="M 0.000000 750.000000 L 117.857140 0.000000 " />
<path stroke-linejoin="round" stroke-linecap="round" stroke="rgb(255,0,0)" stroke-width="3.749996" fill="none" d="M 56.289017 391.797211 L 56.796917 398.399994 " />
<path stroke-linejoin="round" stroke-linecap="round" stroke="rgb(0,0,255)" stroke-width="1.874998" fill="none" d="M 0.000000 750.000000 L 107.142853 0.000000 " />
<path stroke-linejoin="round" stroke-linecap="round" stroke="rgb(255,0,0)" stroke-width="3.749996" fill="none" d="M 54.497993 368.514008 L 56.289017 391.797211 " />
<path stroke-linejoin="round" stroke-linecap="round" stroke="rgb(0,0,255)" stroke-width="1.874998" fill="none" d="M 0.000000 750.000000 L 95.000000 0.000000 " />
<path stroke-linejoin="round" stroke-linecap="round" stroke="rgb(255,0,0)" stroke-width="3.749996" fill="none" d="M 52.164337 338.176331 L 54.497993 368.514008 " />
<path stroke-linejoin="round" stroke-linecap="round" stroke="rgb(0,0,255)" stroke-width="1.874998" fill="none" d="M 0.000000 750.000000 L 84.375008 0.000000 " />
<path stroke-linejoin="round" stroke-linecap="round" stroke="rgb(255,0,0)" stroke-width="3.749996" fill="none" d="M 49.795120 307.376617 L 52.164337 338.176331 " />
<path stroke-linejoin="round" stroke-linecap="round" stroke="rgb(0,0,255)" stroke-width="1.874998" fill="none" d="M 0.000000 750.000000 L 74.999992 0.000000 " />
<path stroke-linejoin="round" stroke-linecap="round" stroke="rgb(255,0,0)" stroke-width="3.749996" fill="none" d="M 47.389561 276.104370 L 49.795120 307.376617 " />
<path stroke-linejoin="round" stroke-linecap="round" stroke="rgb(0,0,255)" stroke-width="1.874998" fill="none" d="M 0.000000 750.000000 L 66.666664 0.000000 " />
<path stroke-linejoin="round" stroke-linecap="round" stroke="rgb(255,0,0)" stroke-width="3.749996" fill="none" d="M 44.946804 244.348434 L 47.389561 276.104370 " />
<path stroke-linejoin="round" stroke-linecap="round" stroke="rgb(0,0,255)" stroke-width="1.874998" fill="none" d="M 0.000000 750.000000 L 59.999989 0.000000 " />
<path stroke-linejoin="round" stroke-linecap="round" stroke="rgb(255,0,0)" stroke-width="3.749996" fill="none" d="M 42.743526 215.705887 L 44.946804 244.348434 " />
<path stroke-linejoin="round" stroke-linecap="round" stroke="rgb(0,0,255)" stroke-width="1.874998" fill="none" d="M 0.000000 750.000000 L 55.970146 0.000000 " />
<path stroke-linejoin="round" stroke-linecap="round" stroke="rgb(255,0,0)" stroke-width="3.749996" fill="none" d="M 40.652813 205.252289 L 42.743526 215.705948 " />
<path stroke-linejoin="round" stroke-linecap="round" stroke="rgb(0,0,255)" stroke-width="1.874998" fill="none" d="M 0.000000 750.000000 L 55.418732 0.000000 " />
<path stroke-linejoin="round" stroke-linecap="round" stroke="rgb(255,0,0)" stroke-width="3.749996" fill="none" d="M 40.360340 203.789902 L 40.652813 205.252289 " />
<path stroke-linejoin="round" stroke-linecap="round" stroke="rgb(0,0,255)" stroke-width="1.874998" fill="none" d="M 0.000000 750.000000 L 53.571426 0.000000 " />
<path stroke-linejoin="round" stroke-linecap="round" stroke="rgb(255,0,0)" stroke-width="3.749996" fill="none" d="M 39.662762 194.721313 L 40.360363 203.789902 " />
<path stroke-linejoin="round" stroke-linecap="round" stroke="rgb(0,0,255)" stroke-width="1.874998" fill="none" d="M 0.000000 750.000000 L 51.980206 0.000000 " />
<path stroke-linejoin="round" stroke-linecap="round" stroke="rgb(255,0,0)" stroke-width="3.749996" fill="none" d="M 38.787849 190.346710 L 39.662762 194.721313 " />
<path stroke-linejoin="round" stroke-linecap="round" stroke="rgb(0,0,255)" stroke-width="1.874998" fill="none" d="M 0.000000 750.000000 L 51.470585 0.000000 " />
<path stroke-linejoin="round" stroke-linecap="round" stroke="rgb(255,0,0)" stroke-width="3.749996" fill="none" d="M 38.504719 188.931137 L 38.787849 190.346710 " />
<path stroke-linejoin="round" stroke-linecap="round" stroke="rgb(0,0,255)" stroke-width="1.874998" fill="none" d="M 0.000000 750.000000 L 50.970867 0.000000 " />
<path stroke-linejoin="round" stroke-linecap="round" stroke="rgb(255,0,0)" stroke-width="3.749996" fill="none" d="M 38.225704 187.536026 L 38.504719 188.931137 " />
<path stroke-linejoin="round" stroke-linecap="round" stroke="rgb(0,0,255)" stroke-width="1.874998" fill="none" d="M 0.000000 750.000000 L 50.480782 0.000000 " />
<path stroke-linejoin="round" stroke-linecap="round" stroke="rgb(255,0,0)" stroke-width="3.749996" fill="none" d="M 37.950710 186.161041 L 38.225704 187.536026 " />
<path stroke-linejoin="round" stroke-linecap="round" stroke="rgb(0,0,255)" stroke-width="1.874998" fill="none" d="M 0.000000 750.000000 L 46.650723 0.000000 " />
<path stroke-linejoin="round" stroke-linecap="round" stroke="rgb(255,0,0)" stroke-width="3.749996" fill="none" d="M 35.754383 175.179474 L 37.950710 186.161041 " />
<path stroke-linejoin="round" stroke-linecap="round" stroke="rgb(0,0,255)" stroke-width="1.874998" fill="none" d="M 0.000000 750.000000 L 42.857140 0.000000 " />
<path stroke-linejoin="round" stroke-linecap="round" stroke="rgb(255,0,0)" stroke-width="3.749996" fill="none" d="M 33.492989 163.872604 L 35.754383 175.179520 " />
<path stroke-linejoin="round" stroke-linecap="round" stroke="rgb(0,0,255)" stroke-width="1.874998" fill="none" d="M 0.000000 750.000000 L 39.099522 0.000000 " />
<path stroke-linejoin="round" stroke-linecap="round" stroke="rgb(255,0,0)" stroke-width="3.749996" fill="none" d="M 31.163603 152.225571 L 33.492989 163.872604 " />
<path stroke-linejoin="round" stroke-linecap="round" stroke="rgb(0,0,255)" stroke-width="1.874998" fill="none" d="M 0.000000 750.000000 L 35.377354 0.000000 " />
<path stroke-linejoin="round" stroke-linecap="round" stroke="rgb(255,0,0)" stroke-width="3.749996" fill="none" d="M 28.763071 140.222977 L 31.163603 152.225571 " />
<path stroke-linejoin="round" stroke-linecap="round" stroke="rgb(0,0,255)" stroke-width="1.874998" fill="none" d="M 0.000000 750.000000 L 31.690144 0.000000 " />
<path stroke-linejoin="round" stroke-linecap="round" stroke="rgb(255,0,0)" stroke-width="3.749996" fill="none" d="M 26.288107 127.848228 L 28.763071 140.222977 " />
<path stroke-linejoin="round" stroke-linecap="round" stroke="rgb(0,0,255)" stroke-width="1.874998" fill="none" d="M 0.000000 750.000000 L 28.037376 0.000000 " />
<path stroke-linejoin="round" stroke-linecap="round" stroke="rgb(255,0,0)" stroke-width="3.749996" fill="none" d="M 23.735180 115.083664 L 26.288107 127.848228 " />
<path stroke-linejoin="round" stroke-linecap="round" stroke="rgb(0,0,255)" stroke-width="1.874998" fill="none" d="M 0.000000 750.000000 L 27.777784 0.000000 " />
<path stroke-linejoin="round" stroke-linecap="round" stroke="rgb(255,0,0)" stroke-width="3.749996" fill="none" d="M 23.549751 114.156494 L 23.735180 115.083664 " />
<path stroke-linejoin="round" stroke-linecap="round" stroke="rgb(0,0,255)" stroke-width="1.874998" fill="none" d="M 0.000000 750.000000 L 27.522928 0.000000 " />
<path stroke-linejoin="round" stroke-linecap="round" stroke="rgb(255,0,0)" stroke-width="3.749996" fill="none" d="M 23.367205 113.243690 L 23.549751 114.156494 " />
<path stroke-linejoin="round" stroke-linecap="round" stroke="rgb(0,0,255)" stroke-width="1.874998" fill="none" d="M 0.000000 750.000000 L 23.972601 0.000000 " />
<path stroke-linejoin="round" stroke-linecap="round" stroke="rgb(255,0,0)" stroke-width="3.749996" fill="none" d="M 20.768299 100.249130 L 23.367205 113.243690 " />
<path stroke-linejoin="round" stroke-linecap="round" stroke="rgb(0,0,255)" stroke-width="1.874998" fill="none" d="M 0.000000 750.000000 L 20.454548 0.000000 " />
<path stroke-linejoin="round" stroke-linecap="round" stroke="rgb(255,0,0)" stroke-width="3.749996" fill="none" d="M 18.086226 86.838753 L 20.768299 100.249130 " />
<path stroke-linejoin="round" stroke-linecap="round" stroke="rgb(0,0,255)" stroke-width="1.874998" fill="none" d="M 0.000000 750.000000 L 20.270281 0.000000 " />
<path stroke-linejoin="round" stroke-linecap="round" stroke="rgb(255,0,0)" stroke-width="3.749996" fill="none" d="M 17.942682 86.121040 L 18.086226 86.838753 " />
<path stroke-linejoin="round" stroke-linecap="round" stroke="rgb(0,0,255)" stroke-width="1.874998" fill="none" d="M 0.000000 750.000000 L 20.089275 0.000000 " />
<path stroke-linejoin="round" stroke-linecap="round" stroke="rgb(255,0,0)" stroke-width="3.749996" fill="none" d="M 17.801397 85.414612 L 17.942682 86.121040 " />
<path stroke-linejoin="round" stroke-linecap="round" stroke="rgb(0,0,255)" stroke-width="1.874998" fill="none" d="M 0.000000 750.000000 L 19.911512 0.000000 " />
<path stroke-linejoin="round" stroke-linecap="round" stroke="rgb(255,0,0)" stroke-width="3.749996" fill="none" d="M 17.662325 84.719269 L 17.801397 85.414612 " />
<path stroke-linejoin="round" stroke-linecap="round" stroke="rgb(0,0,255)" stroke-width="1.874998" fill="none" d="M 0.000000 750.000000 L 19.736834 0.000000 " />
<path stroke-linejoin="round" stroke-linecap="round" stroke="rgb(255,0,0)" stroke-width="3.749996" fill="none" d="M 17.525396 84.034729 L 17.662325 84.719269 " />
<path stroke-linejoin="round" stroke-linecap="round" stroke="rgb(0,0,255)" stroke-width="1.874998" fill="none" d="M 0.000000 750.000000 L 19.565218 0.000000 " />
<path stroke-linejoin="round" stroke-linecap="round" stroke="rgb(255,0,0)" stroke-width="3.749996" fill="none" d="M 17.390594 83.360756 L 17.525396 84.034767 " />
<path stroke-linejoin="round" stroke-linecap="round" stroke="rgb(0,0,255)" stroke-width="1.874998" fill="none" d="M 0.000000 750.000000 L 16.666666 0.000000 " />
<path stroke-linejoin="round" stroke-linecap="round" stroke="rgb(255,0,0)" stroke-width="3.749996" fill="none" d="M 15.071847 71.767082 L 17.390594 83.360756 " />
<path stroke-linejoin="round" stroke-linecap="round" stroke="rgb(0,0,255)" stroke-width="1.874998" fill="none" d="M 0.000000 750.000000 L 13.274342 0.000000 " />
<path stroke-linejoin="round" stroke-linecap="round" stroke="rgb(255,0,0)" stroke-width="3.749996" fill="none" d="M 12.253538 57.675606 L 15.071847 71.767082 " />
<path stroke-linejoin="round" stroke-linecap="round" stroke="rgb(0,0,255)" stroke-width="1.874998" fill="none" d="M 0.000000 750.000000 L 13.157889 0.000000 " />
<path stroke-linejoin="round" stroke-linecap="round" stroke="rgb(255,0,0)" stroke-width="3.749996" fill="none" d="M 12.154698 57.181522 L 12.253538 57.675606 " />
<path stroke-linejoin="round" stroke-linecap="round" stroke="rgb(0,0,255)" stroke-width="1.874998" fill="none" d="M 0.000000 750.000000 L 13.043470 0.000000 " />
<path stroke-linejoin="round" stroke-linecap="round" stroke="rgb(255,0,0)" stroke-width="3.749996" fill="none" d="M 12.057468 56.695374 L 12.154698 57.181522 " />
<path stroke-linejoin="round" stroke-linecap="round" stroke="rgb(0,0,255)" stroke-width="1.874998" fill="none" d="M 0.000000 750.000000 L 12.931042 0.000000 " />
<path stroke-linejoin="round" stroke-linecap="round" stroke="rgb(255,0,0)" stroke-width="3.749996" fill="none" d="M 11.961781 56.216866 L 12.057468 56.695374 " />
<path stroke-linejoin="round" stroke-linecap="round" stroke="rgb(0,0,255)" stroke-width="1.874998" fill="none" d="M 0.000000 750.000000 L 12.820512 0.000000 " />
<path stroke-linejoin="round" stroke-linecap="round" stroke="rgb(255,0,0)" stroke-width="3.749996" fill="none" d="M 11.867590 55.745914 L 11.961781 56.216866 " />
<path stroke-linejoin="round" stroke-linecap="round" stroke="rgb(0,0,255)" stroke-width="1.874998" fill="none" d="M 0.000000 750.000000 L 12.711861 0.000000 " />
<path stroke-linejoin="round" stroke-linecap="round" stroke="rgb(255,0,0)" stroke-width="3.749996" fill="none" d="M 11.774876 55.282360 L 11.867590 55.745914 " />
<path stroke-linejoin="round" stroke-linecap="round" stroke="rgb(0,0,255)" stroke-width="1.874998" fill="none" d="M 0.000000 750.000000 L 12.605042 0.000000 " />
<path stroke-linejoin="round" stroke-linecap="round" stroke="rgb(255,0,0)" stroke-width="3.749996" fill="none" d="M 11.683591 54.826027 L 11.774876 55.282360 " />
<path stroke-linejoin="round" stroke-linecap="round" stroke="rgb(0,0,255)" stroke-width="1.874998" fill="none" d="M 0.000000 750.000000 L 12.500010 0.000000 " />
<path stroke-linejoin="round" stroke-linecap="round" stroke="rgb(255,0,0)" stroke-width="3.749996" fill="none" d="M 11.593715 54.376690 L 11.683591 54.826027 " />
<path stroke-linejoin="round" stroke-linecap="round" stroke="rgb(0,0,255)" stroke-width="1.874998" fill="none" d="M 0.000000 750.000000 L 12.396701 0.000000 " />
<path stroke-linejoin="round" stroke-linecap="round" stroke="rgb(255,0,0)" stroke-width="3.749996" fill="none" d="M 11.505224 53.934174 L 11.593715 54.376690 " />
<path stroke-linejoin="round" stroke-linecap="round" stroke="rgb(0,0,255)" stroke-width="1.874998" fill="none" d="M 0.000000 750.000000 L 12.295090 0.000000 " />
<path stroke-linejoin="round" stroke-linecap="round" stroke="rgb(255,0,0)" stroke-width="3.749996" fill="none" d="M 11.418052 53.498356 L 11.505224 53.934174 " />
<path stroke-linejoin="round" stroke-linecap="round" stroke="rgb(0,0,255)" stroke-width="1.874998" fill="none" d="M 0.000000 750.000000 L 12.195110 0.000000 " />
<path stroke-linejoin="round" stroke-linecap="round" stroke="rgb(255,0,0)" stroke-width="3.749996" fill="none" d="M 11.332199 53.069115 L 11.418052 53.498356 " />
<path stroke-linejoin="round" stroke-linecap="round" stroke="rgb(0,0,255)" stroke-width="1.874998" fill="none" d="M 0.000000 750.000000 L 9.414218 0.000000 " />
<path stroke-linejoin="round" stroke-linecap="round" stroke="rgb(255,0,0)" stroke-width="3.749996" fill="none" d="M 8.900687 40.911510 L 11.332199 53.069115 " />
<path stroke-linejoin="round" stroke-linecap="round" stroke="rgb(0,0,255)" stroke-width="1.874998" fill="none" d="M 0.000000 750.000000 L 6.249994 0.000000 " />
<path stroke-linejoin="round" stroke-linecap="round" stroke="rgb(255,0,0)" stroke-width="3.749996" fill="none" d="M 6.004683 29.439211 L 8.900687 40.911510 " />
<path stroke-linejoin="round" stroke-linecap="round" stroke="rgb(0,0,255)" stroke-width="1.874998" fill="none" d="M 0.000000 750.000000 L 3.112033 0.000000 " />
<path stroke-linejoin="round" stroke-linecap="round" stroke="rgb(255,0,0)" stroke-width="3.749996" fill="none" d="M 3.027141 20.457901 L 6.004662 29.439301 " />
<path stroke-linejoin="round" stroke-linecap="round" stroke="rgb(0,0,255)" stroke-width="1.874998" fill="none" d="M 0.000000 750.000000 L 0.000000 0.000000 " />
<path stroke-linejoin="round" stroke-linecap="round" stroke="rgb(255,0,0)" stroke-width="3.749996" fill="none" d="M 0.000000 0.000000 L 3.027141 20.457901 " />
<circle cx="81.676617" cy="721.835643" r="3.749996" style="fill:rgb(0,127,0);stroke-width:1" /><circle cx="79.476267" cy="693.231225" r="3.749996" style="fill:rgb(0,127,0);stroke-width:1" /><circle cx="77.663027" cy="669.658944" r="3.749996" style="fill:rgb(0,127,0);stroke-width:1" /><circle cx="75.541802" cy="642.083131" r="3.749996" style="fill:rgb(0,127,0);stroke-width:1" /><circle cx="74.025393" cy="622.369990" r="3.749996" style="fill:rgb(0,127,0);stroke-width:1" /><circle cx="73.388860" cy="614.094727" r="3.749996" style="fill:rgb(0,127,0);stroke-width:1" /><circle cx="71.203440" cy="585.684389" r="3.749996" style="fill:rgb(0,127,0);stroke-width:1" /><circle cx="68.984829" cy="556.842506" r="3.749996" style="fill:rgb(0,127,0);stroke-width:1" /><circle cx="66.732243" cy="527.559165" r="3.749996" style="fill:rgb(0,127,0);stroke-width:1" /><circle cx="65.660253" cy="513.623133" r="3.749996" style="fill:rgb(0,127,0);stroke-width:1" /><circle cx="64.444922" cy="497.824196" r="3.749996" style="fill:rgb(0,127,0);stroke-width:1" /><circle cx="63.492805" cy="485.446628" r="3.749996" style="fill:rgb(0,127,0);stroke-width:1" /><circle cx="61.293595" cy="456.856767" r="3.749996" style="fill:rgb(0,127,0);stroke-width:1" /><circle cx="59.061863" cy="427.844368" r="3.749996" style="fill:rgb(0,127,0);stroke-width:1" /><circle cx="56.796916" cy="398.400029" r="3.749996" style="fill:rgb(0,127,0);stroke-width:1" /><circle cx="56.289017" cy="391.797184" r="3.749996" style="fill:rgb(0,127,0);stroke-width:1" /><circle cx="54.497994" cy="368.514021" r="3.749996" style="fill:rgb(0,127,0);stroke-width:1" /><circle cx="52.164339" cy="338.176330" r="3.749996" style="fill:rgb(0,127,0);stroke-width:1" /><circle cx="49.795121" cy="307.376621" r="3.749996" style="fill:rgb(0,127,0);stroke-width:1" /><circle cx="47.389559" cy="276.104372" r="3.749996" style="fill:rgb(0,127,0);stroke-width:1" /><circle cx="44.946805" cy="244.348448" r="3.749996" style="fill:rgb(0,127,0);stroke-width:1" /><circle cx="42.743526" cy="215.705875" r="3.749996" style="fill:rgb(0,127,0);stroke-width:1" /><circle cx="40.652812" cy="205.252290" r="3.749996" style="fill:rgb(0,127,0);stroke-width:1" /><circle cx="40.360339" cy="203.789905" r="3.749996" style="fill:rgb(0,127,0);stroke-width:1" /><circle cx="39.662763" cy="194.721300" r="3.749996" style="fill:rgb(0,127,0);stroke-width:1" /><circle cx="38.787849" cy="190.346718" r="3.749996" style="fill:rgb(0,127,0);stroke-width:1" /><circle cx="38.504720" cy="188.931137" r="3.749996" style="fill:rgb(0,127,0);stroke-width:1" /><circle cx="38.225703" cy="187.536031" r="3.749996" style="fill:rgb(0,127,0);stroke-width:1" /><circle cx="37.950709" cy="186.161041" r="3.749996" style="fill:rgb(0,127,0);stroke-width:1" /><circle cx="35.754383" cy="175.179474" r="3.749996" style="fill:rgb(0,127,0);stroke-width:1" /><circle cx="33.492990" cy="163.872600" r="3.749996" style="fill:rgb(0,127,0);stroke-width:1" /><circle cx="31.163603" cy="152.225576" r="3.749996" style="fill:rgb(0,127,0);stroke-width:1" /><circle cx="28.763071" cy="140.222982" r="3.749996" style="fill:rgb(0,127,0);stroke-width:1" /><circle cx="26.288107" cy="127.848230" r="3.749996" style="fill:rgb(0,127,0);stroke-width:1" /><circle cx="23.735180" cy="115.083665" r="3.749996" style="fill:rgb(0,127,0);stroke-width:1" /><circle cx="23.549750" cy="114.156492" r="3.749996" style="fill:rgb(0,127,0);stroke-width:1" /><circle cx="23.367204" cy="113.243692" r="3.749996" style="fill:rgb(0,127,0);stroke-width:1" /><circle cx="20.768300" cy="100.249127" r="3.749996" style="fill:rgb(0,127,0);stroke-width:1" /><circle cx="18.086225" cy="86.838752" r="3.749996" style="fill:rgb(0,127,0);stroke-width:1" /><circle cx="17.942682" cy="86.121038" r="3.749996" style="fill:rgb(0,127,0);stroke-width:1" /><circle cx="17.801397" cy="85.414611" r="3.749996" style="fill:rgb(0,127,0);stroke-width:1" /><circle cx="17.662324" cy="84.719270" r="3.749996" style="fill:rgb(0,127,0);stroke-width:1" /><circle cx="17.525397" cy="84.034726" r="3.749996" style="fill:rgb(0,127,0);stroke-width:1" /><circle cx="17.390594" cy="83.360754" r="3.749996" style="fill:rgb(0,127,0);stroke-width:1" /><circle cx="15.071847" cy="71.767084" r="3.749996" style="fill:rgb(0,127,0);stroke-width:1" /><circle cx="12.253538" cy="57.675608" r="3.749996" style="fill:rgb(0,127,0);stroke-width:1" /><circle cx="12.154698" cy="57.181522" r="3.749996" style="fill:rgb(0,127,0);stroke-width:1" /><circle cx="12.057468" cy="56.695372" r="3.749996" style="fill:rgb(0,127,0);stroke-width:1" /><circle cx="11.961780" cy="56.216866" r="3.749996" style="fill:rgb(0,127,0);stroke-width:1" /><circle cx="11.867590" cy="55.745915" r="3.749996" style="fill:rgb(0,127,0);stroke-width:1" /><circle cx="11.774875" cy="55.282362" r="3.749996" style="fill:rgb(0,127,0);stroke-width:1" /><circle cx="11.683591" cy="54.826029" r="3.749996" style="fill:rgb(0,127,0);stroke-width:1" /><circle cx="11.593714" cy="54.376692" r="3.749996" style="fill:rgb(0,127,0);stroke-width:1" /><circle cx="11.505224" cy="53.934172" r="3.749996" style="fill:rgb(0,127,0);stroke-width:1" /><circle cx="11.418052" cy="53.498358" r="3.749996" style="fill:rgb(0,127,0);stroke-width:1" /><circle cx="11.332199" cy="53.069115" r="3.749996" style="fill:rgb(0,127,0);stroke-width:1" /><circle cx="8.900687" cy="40.911511" r="3.749996" style="fill:rgb(0,127,0);stroke-width:1" /><circle cx="6.004684" cy="29.439211" r="3.749996" style="fill:rgb(0,127,0);stroke-width:1" /><circle cx="3.027141" cy="20.457901" r="3.749996" style="fill:rgb(0,127,0);stroke-width:1" /><circle cx="750.000000" cy="750.000000" r="3.749996" style="fill:rgb(0,127,0);stroke-width:1" /><path stroke-linejoin="round" stroke-linecap="round" stroke="rgb(255,255,255)" stroke-width="3.749996" fill="none" d="M 0.000000 750.000000 L 750.000000 750.000000 M 0.000000 750.000000 L 0.000000 0.000000 " />

</svg>