<svg xmlns="http://www.w3.org/2000/svg" version="1.1" width = "750" height = "750" viewBox = "0 0 750 750"  shape-rendering="crispEdges">
<path stroke-linejoin="round" stroke-linecap="round" stroke="rgb(255,255,0)" stroke-width="3.749996" fill="none" d="M 149.999985 750.000000 L 0.000000 0.000000 " />
<path stroke-linejoin="round" stroke-linecap="round" stroke="rgb(63,63,63)" stroke-width="3.749996" fill="none" d="M 0.000000 0.000000 L 750.000000 750.000000 M 149.999985 750.000000 L 66.666664 0.000000 " />
<path stroke-linejoin="round" stroke-linecap="round" stroke="rgb(191,191,191)" stroke-width="3.749996" fill="none" d="M 0.000000 600.000000 L 149.999985 750.000000 M 0.000000 0.000000 L 83.333328 750.000000 " />
<path stroke-linejoin="round" stroke-linecap="round" stroke="rgb(0,0,255)" stroke-width="1.874998" fill="none" d="M 0.000000 750.000000 L 750.000000 729.166687 " />
<path stroke-linejoin="round" stroke-linecap="round" stroke="rgb(255,0,0)" stroke-width="3.749996" fill="none" d="M 149.538452 745.846130 L 149.999985 750.000000 " />
<path stroke-linejoin="round" stroke-linecap="round" stroke="rgb(0,0,255)" stroke-width="1.874998" fill="none" d="M 0.000000 750.000000 L 750.000000 707.142883 " />
<path stroke-linejoin="round" stroke-linecap="round" stroke="rgb(255,0,0)" stroke-width="3.749996" fill="none" d="M 148.102066 741.536987 L 149.538467 745.846130 " />
<path stroke-linejoin="round" stroke-linecap="round" stroke="rgb(0,0,255)" stroke-width="1.874998" fill="none" d="M 0.000000 750.000000 L 750.000000 683.823547 " />
<path stroke-linejoin="round" stroke-linecap="round" stroke="rgb(255,0,0)" stroke-width="3.749996" fill="none" d="M 146.610977 737.063721 L 148.102066 741.536987 " />
<path stroke-linejoin="round" stroke-linecap="round" stroke="rgb(0,0,255)" stroke-width="1.874998" fill="none" d="M 0.000000 750.000000 L 750.000000 664.285706 " />
<path stroke-linejoin="round" stroke-linecap="round" stroke="rgb(255,0,0)" stroke-width="3.749996" fill="none" d="M 145.384598 733.384583 L 146.610977 737.063721 " />
<path stroke-linejoin="round" stroke-linecap="round" stroke="rgb(0,0,255)" stroke-width="1.874998" fill="none" d="M 0.000000 750.000000 L 750.000000 639.705872 " />
<path stroke-linejoin="round" stroke-linecap="round" stroke="rgb(255,0,0)" stroke-width="3.749996" fill="none" d="M 143.870590 728.842529 L 145.384598 733.384583 " />
<path stroke-linejoin="round" stroke-linecap="round" stroke="rgb(0,0,255)" stroke-width="1.874998" fill="none" d="M 0.000000 750.000000 L 750.000000 613.636353 " />
<path stroke-linejoin="round" stroke-linecap="round" stroke="rgb(255,0,0)" stroke-width="3.749996" fill="none" d="M 142.298904 724.127502 L 143.870605 728.842529 " />
<path stroke-linejoin="round" stroke-linecap="round" stroke="rgb(0,0,255)" stroke-width="1.874998" fill="none" d="M 0.000000 750.000000 L 750.000000 595.588196 " />
<path stroke-linejoin="round" stroke-linecap="round" stroke="rgb(255,0,0)" stroke-width="3.749996" fill="none" d="M 141.230774 720.923096 L 142.298904 724.127502 " />
<path stroke-linejoin="round" stroke-linecap="round" stroke="rgb(0,0,255)" stroke-width="1.874998" fill="none" d="M 0.000000 750.000000 L 750.000000 568.181824 " />
<path stroke-linejoin="round" stroke-linecap="round" stroke="rgb(255,0,0)" stroke-width="3.749996" fill="none" d="M 139.639114 716.148132 L 141.230774 720.923096 " />
<path stroke-linejoin="round" stroke-linecap="round" stroke="rgb(0,0,255)" stroke-width="1.874998" fill="none" d="M 0.000000 750.000000 L 750.000000 539.062500 " />
<path stroke-linejoin="round" stroke-linecap="round" stroke="rgb(255,0,0)" stroke-width="3.749996" fill="none" d="M 137.986816 711.191223 L 139.639114 716.148132 " />
<path stroke-linejoin="round" stroke-linecap="round" stroke="rgb(0,0,255)" stroke-width="1.874998" fill="none" d="M 0.000000 750.000000 L 750.000000 522.727295 " />
<path stroke-linejoin="round" stroke-linecap="round" stroke="rgb(255,0,0)" stroke-width="3.749996" fill="none" d="M 137.076935 708.461548 L 137.986816 711.191223 " />
<path stroke-linejoin="round" stroke-linecap="round" stroke="rgb(0,0,255)" stroke-width="1.874998" fill="none" d="M 0.000000 750.000000 L 750.000000 492.187500 " />
<path stroke-linejoin="round" stroke-linecap="round" stroke="rgb(255,0,0)" stroke-width="3.749996" fill="none" d="M 135.407639 703.453613 L 137.076935 708.461548 " />
<path stroke-linejoin="round" stroke-linecap="round" stroke="rgb(0,0,255)" stroke-width="1.874998" fill="none" d="M 0.000000 750.000000 L 750.000000 459.677429 " />
<path stroke-linejoin="round" stroke-linecap="round" stroke="rgb(255,0,0)" stroke-width="3.749996" fill="none" d="M 133.674728 698.254883 L 135.407639 703.453613 " />
<path stroke-linejoin="round" stroke-linecap="round" stroke="rgb(0,0,255)" stroke-width="1.874998" fill="none" d="M 0.000000 750.000000 L 750.000000 445.312500 " />
<path stroke-linejoin="round" stroke-linecap="round" stroke="rgb(255,0,0)" stroke-width="3.749996" fill="none" d="M 132.923080 696.000000 L 133.674728 698.254883 " />
<path stroke-linejoin="round" stroke-linecap="round" stroke="rgb(0,0,255)" stroke-width="1.874998" fill="none" d="M 0.000000 750.000000 L 750.000000 411.290344 " />
<path stroke-linejoin="round" stroke-linecap="round" stroke="rgb(255,0,0)" stroke-width="3.749996" fill="none" d="M 131.176163 690.759155 L 132.923080 696.000000 " />
<path stroke-linejoin="round" stroke-linecap="round" stroke="rgb(0,0,255)" stroke-width="1.874998" fill="none" d="M 0.000000 750.000000 L 750.000000 375.000000 " />
<path stroke-linejoin="round" stroke-linecap="round" stroke="rgb(255,0,0)" stroke-width="3.749996" fill="none" d="M 129.362656 685.318726 L 131.176163 690.759155 " />
<path stroke-linejoin="round" stroke-linecap="round" stroke="rgb(0,0,255)" stroke-width="1.874998" fill="none" d="M 0.000000 750.000000 L 750.000000 362.903229 " />
<path stroke-linejoin="round" stroke-linecap="round" stroke="rgb(255,0,0)" stroke-width="3.749996" fill="none" d="M 128.769241 683.538452 L 129.362656 685.318726 " />
<path stroke-linejoin="round" stroke-linecap="round" stroke="rgb(0,0,255)" stroke-width="1.874998" fill="none" d="M 0.000000 750.000000 L 750.000000 325.000000 " />
<path stroke-linejoin="round" stroke-linecap="round" stroke="rgb(255,0,0)" stroke-width="3.749996" fill="none" d="M 126.944664 678.064697 L 128.769241 683.538452 " />
<path stroke-linejoin="round" stroke-linecap="round" stroke="rgb(0,0,255)" stroke-width="1.874998" fill="none" d="M 0.000000 750.000000 L 750.000000 284.482788 " />
<path stroke-linejoin="round" stroke-linecap="round" stroke="rgb(255,0,0)" stroke-width="3.749996" fill="none" d="M 125.050575 672.382385 L 126.944664 678.064697 " />
<path stroke-linejoin="round" stroke-linecap="round" stroke="rgb(0,0,255)" stroke-width="1.874998" fill="none" d="M 0.000000 750.000000 L 750.000000 275.000000 " />
<path stroke-linejoin="round" stroke-linecap="round" stroke="rgb(255,0,0)" stroke-width="3.749996" fill="none" d="M 124.615410 671.076904 L 125.050575 672.382385 " />
<path stroke-linejoin="round" stroke-linecap="round" stroke="rgb(0,0,255)" stroke-width="1.874998" fill="none" d="M 0.000000 750.000000 L 750.000000 232.758606 " />
<path stroke-linejoin="round" stroke-linecap="round" stroke="rgb(255,0,0)" stroke-width="3.749996" fill="none" d="M 122.713165 665.370239 L 124.615410 671.076904 " />
<path stroke-linejoin="round" stroke-linecap="round" stroke="rgb(0,0,255)" stroke-width="1.874998" fill="none" d="M 0.000000 750.000000 L 750.000000 187.500000 " />
<path stroke-linejoin="round" stroke-linecap="round" stroke="rgb(255,0,0)" stroke-width="3.749996" fill="none" d="M 120.738480 659.446106 L 122.713165 665.370239 " />
<path stroke-linejoin="round" stroke-linecap="round" stroke="rgb(0,0,255)" stroke-width="1.874998" fill="none" d="M 0.000000 750.000000 L 750.000000 138.888901 " />
<path stroke-linejoin="round" stroke-linecap="round" stroke="rgb(255,0,0)" stroke-width="3.749996" fill="none" d="M 118.687080 653.291992 L 120.738480 659.446106 " />
<path stroke-linejoin="round" stroke-linecap="round" stroke="rgb(0,0,255)" stroke-width="1.874998" fill="none" d="M 0.000000 750.000000 L 750.000000 133.928558 " />
<path stroke-linejoin="round" stroke-linecap="round" stroke="rgb(255,0,0)" stroke-width="3.749996" fill="none" d="M 118.481689 652.675781 L 118.687080 653.291992 " />
<path stroke-linejoin="round" stroke-linecap="round" stroke="rgb(0,0,255)" stroke-width="1.874998" fill="none" d="M 0.000000 750.000000 L 750.000000 83.333328 " />
<path stroke-linejoin="round" stroke-linecap="round" stroke="rgb(255,0,0)" stroke-width="3.749996" fill="none" d="M 116.426376 646.509888 L 118.481689 652.675781 " />
<path stroke-linejoin="round" stroke-linecap="round" stroke="rgb(0,0,255)" stroke-width="1.874998" fill="none" d="M 0.000000 750.000000 L 750.000000 80.357147 " />
<path stroke-linejoin="round" stroke-linecap="round" stroke="rgb(255,0,0)" stroke-width="3.749996" fill="none" d="M 116.307716 646.153809 L 116.426376 646.509888 " />
<path stroke-linejoin="round" stroke-linecap="round" stroke="rgb(0,0,255)" stroke-width="1.874998" fill="none" d="M 0.000000 750.000000 L 750.000000 27.777761 " />
<path stroke-linejoin="round" stroke-linecap="round" stroke="rgb(255,0,0)" stroke-width="3.749996" fill="none" d="M 114.250191 639.981323 L 116.307716 646.153809 " />
<path stroke-linejoin="round" stroke-linecap="round" stroke="rgb(0,0,255)" stroke-width="1.874998" fill="none" d="M 0.000000 750.000000 L 750.000000 26.785702 " />
<path stroke-linejoin="round" stroke-linecap="round" stroke="rgb(255,0,0)" stroke-width="3.749996" fill="none" d="M 114.212059 639.866943 L 114.250191 639.981323 " />
<path stroke-linejoin="round" stroke-linecap="round" stroke="rgb(0,0,255)" stroke-width="1.874998" fill="none" d="M 0.000000 750.000000 L 722.222168 0.000000 " />
<path stroke-linejoin="round" stroke-linecap="round" stroke="rgb(255,0,0)" stroke-width="3.749996" fill="none" d="M 112.114281 633.573608 L 114.212059 639.866943 " />
<path stroke-linejoin="round" stroke-linecap="round" stroke="rgb(0,0,255)" stroke-width="1.874998" fill="none" d="M 0.000000 750.000000 L 672.413818 0.000000 " />
<path stroke-linejoin="round" stroke-linecap="round" stroke="rgb(255,0,0)" stroke-width="3.749996" fill="none" d="M 110.018715 627.286865 L 112.114281 633.573608 " />
<path stroke-linejoin="round" stroke-linecap="round" stroke="rgb(0,0,255)" stroke-width="1.874998" fill="none" d="M 0.000000 750.000000 L 625.000000 0.000000 " />
<path stroke-linejoin="round" stroke-linecap="round" stroke="rgb(255,0,0)" stroke-width="3.749996" fill="none" d="M 107.802208 620.637329 L 110.018715 627.286865 " />
<path stroke-linejoin="round" stroke-linecap="round" stroke="rgb(0,0,255)" stroke-width="1.874998" fill="none" d="M 0.000000 750.000000 L 585.937500 0.000000 " />
<path stroke-linejoin="round" stroke-linecap="round" stroke="rgb(255,0,0)" stroke-width="3.749996" fill="none" d="M 105.787216 614.592346 L 107.802208 620.637329 " />
<path stroke-linejoin="round" stroke-linecap="round" stroke="rgb(0,0,255)" stroke-width="1.874998" fill="none" d="M 0.000000 750.000000 L 545.454590 0.000000 " />
<path stroke-linejoin="round" stroke-linecap="round" stroke="rgb(255,0,0)" stroke-width="3.749996" fill="none" d="M 103.490128 607.701050 L 105.787239 614.592346 " />
<path stroke-linejoin="round" stroke-linecap="round" stroke="rgb(0,0,255)" stroke-width="1.874998" fill="none" d="M 0.000000 750.000000 L 514.285706 0.000000 " />
<path stroke-linejoin="round" stroke-linecap="round" stroke="rgb(255,0,0)" stroke-width="3.749996" fill="none" d="M 101.555717 601.897888 L 103.490128 607.701050 " />
<path stroke-linejoin="round" stroke-linecap="round" stroke="rgb(0,0,255)" stroke-width="1.874998" fill="none" d="M 0.000000 750.000000 L 507.352936 0.000000 " />
<path stroke-linejoin="round" stroke-linecap="round" stroke="rgb(255,0,0)" stroke-width="3.749996" fill="none" d="M 101.103813 600.542175 L 101.555717 601.897888 " />
<path stroke-linejoin="round" stroke-linecap="round" stroke="rgb(0,0,255)" stroke-width="1.874998" fill="none" d="M 0.000000 750.000000 L 471.428558 0.000000 " />
<path stroke-linejoin="round" stroke-linecap="round" stroke="rgb(255,0,0)" stroke-width="3.749996" fill="none" d="M 98.623016 593.099731 L 101.103813 600.542175 " />
<path stroke-linejoin="round" stroke-linecap="round" stroke="rgb(0,0,255)" stroke-width="1.874998" fill="none" d="M 0.000000 750.000000 L 437.500000 0.000000 " />
<path stroke-linejoin="round" stroke-linecap="round" stroke="rgb(255,0,0)" stroke-width="3.749996" fill="none" d="M 96.041969 585.356628 L 98.623016 593.099731 " />
<path stroke-linejoin="round" stroke-linecap="round" stroke="rgb(0,0,255)" stroke-width="1.874998" fill="none" d="M 0.000000 750.000000 L 414.473663 0.000000 " />
<path stroke-linejoin="round" stroke-linecap="round" stroke="rgb(255,0,0)" stroke-width="3.749996" fill="none" d="M 94.140152 579.651184 L 96.041969 585.356628 " />
<path stroke-linejoin="round" stroke-linecap="round" stroke="rgb(0,0,255)" stroke-width="1.874998" fill="none" d="M 0.000000 750.000000 L 393.749969 0.000000 " />
<path stroke-linejoin="round" stroke-linecap="round" stroke="rgb(255,0,0)" stroke-width="3.749996" fill="none" d="M 92.312202 574.167236 L 94.140175 579.651123 " />
<path stroke-linejoin="round" stroke-linecap="round" stroke="rgb(0,0,255)" stroke-width="1.874998" fill="none" d="M 0.000000 750.000000 L 375.000000 0.000000 " />
<path stroke-linejoin="round" stroke-linecap="round" stroke="rgb(255,0,0)" stroke-width="3.749996" fill="none" d="M 90.553856 568.892273 L 92.312202 574.167236 " />
<path stroke-linejoin="round" stroke-linecap="round" stroke="rgb(0,0,255)" stroke-width="1.874998" fill="none" d="M 0.000000 750.000000 L 348.837189 0.000000 " />
<path stroke-linejoin="round" stroke-linecap="round" stroke="rgb(255,0,0)" stroke-width="3.749996" fill="none" d="M 87.916374 560.979797 L 90.553856 568.892273 " />
<path stroke-linejoin="round" stroke-linecap="round" stroke="rgb(0,0,255)" stroke-width="1.874998" fill="none" d="M 0.000000 750.000000 L 323.863647 0.000000 " />
<path stroke-linejoin="round" stroke-linecap="round" stroke="rgb(255,0,0)" stroke-width="3.749996" fill="none" d="M 85.174438 552.753906 L 87.916374 560.979797 " />
<path stroke-linejoin="round" stroke-linecap="round" stroke="rgb(0,0,255)" stroke-width="1.874998" fill="none" d="M 0.000000 750.000000 L 309.782593 0.000000 " />
<path stroke-linejoin="round" stroke-linecap="round" stroke="rgb(255,0,0)" stroke-width="3.749996" fill="none" d="M 83.520546 547.792358 L 85.174438 552.753906 " />
<path stroke-linejoin="round" stroke-linecap="round" stroke="rgb(0,0,255)" stroke-width="1.874998" fill="none" d="M 0.000000 750.000000 L 296.875000 0.000000 " />
<path stroke-linejoin="round" stroke-linecap="round" stroke="rgb(255,0,0)" stroke-width="3.749996" fill="none" d="M 81.929688 543.019714 L 83.520546 547.792358 " />
<path stroke-linejoin="round" stroke-linecap="round" stroke="rgb(0,0,255)" stroke-width="1.874998" fill="none" d="M 0.000000 750.000000 L 275.510193 0.000000 " />
<path stroke-linejoin="round" stroke-linecap="round" stroke="rgb(255,0,0)" stroke-width="3.749996" fill="none" d="M 79.124718 534.604919 L 81.929688 543.019714 " />
<path stroke-linejoin="round" stroke-linecap="round" stroke="rgb(0,0,255)" stroke-width="1.874998" fill="none" d="M 0.000000 750.000000 L 255.000000 0.000000 " />
<path stroke-linejoin="round" stroke-linecap="round" stroke="rgb(255,0,0)" stroke-width="3.749996" fill="none" d="M 76.208687 525.856750 L 79.124718 534.604919 " />
<path stroke-linejoin="round" stroke-linecap="round" stroke="rgb(0,0,255)" stroke-width="1.874998" fill="none" d="M 0.000000 750.000000 L 245.192307 0.000000 " />
<path stroke-linejoin="round" stroke-linecap="round" stroke="rgb(255,0,0)" stroke-width="3.749996" fill="none" d="M 74.728912 521.417480 L 76.208687 525.856750 " />
<path stroke-linejoin="round" stroke-linecap="round" stroke="rgb(0,0,255)" stroke-width="1.874998" fill="none" d="M 0.000000 750.000000 L 236.111130 0.000000 " />
<path stroke-linejoin="round" stroke-linecap="round" stroke="rgb(255,0,0)" stroke-width="3.749996" fill="none" d="M 73.305489 517.147217 L 74.728912 521.417480 " />
<path stroke-linejoin="round" stroke-linecap="round" stroke="rgb(0,0,255)" stroke-width="1.874998" fill="none" d="M 0.000000 750.000000 L 227.678574 0.000000 " />
<path stroke-linejoin="round" stroke-linecap="round" stroke="rgb(255,0,0)" stroke-width="3.749996" fill="none" d="M 71.935303 513.036682 L 73.305489 517.147217 " />
<path stroke-linejoin="round" stroke-linecap="round" stroke="rgb(0,0,255)" stroke-width="1.874998" fill="none" d="M 0.000000 750.000000 L 210.526321 0.000000 " />
<path stroke-linejoin="round" stroke-linecap="round" stroke="rgb(255,0,0)" stroke-width="3.749996" fill="none" d="M 68.993408 504.210938 L 71.935303 513.036682 " />
<path stroke-linejoin="round" stroke-linecap="round" stroke="rgb(0,0,255)" stroke-width="1.874998" fill="none" d="M 0.000000 750.000000 L 203.389832 0.000000 " />
<path stroke-linejoin="round" stroke-linecap="round" stroke="rgb(255,0,0)" stroke-width="3.749996" fill="none" d="M 67.703827 500.342163 L 68.993408 504.210938 " />
<path stroke-linejoin="round" stroke-linecap="round" stroke="rgb(0,0,255)" stroke-width="1.874998" fill="none" d="M 0.000000 750.000000 L 187.500000 0.000000 " />
<path stroke-linejoin="round" stroke-linecap="round" stroke="rgb(255,0,0)" stroke-width="3.749996" fill="none" d="M 64.681313 491.274689 L 67.703827 500.342163 " />
<path stroke-linejoin="round" stroke-linecap="round" stroke="rgb(0,0,255)" stroke-width="1.874998" fill="none" d="M 0.000000 750.000000 L 180.555542 0.000000 " />
<path stroke-linejoin="round" stroke-linecap="round" stroke="rgb(255,0,0)" stroke-width="3.749996" fill="none" d="M 63.290321 487.101715 L 64.681313 491.274689 " />
<path stroke-linejoin="round" stroke-linecap="round" stroke="rgb(0,0,255)" stroke-width="1.874998" fill="none" d="M 0.000000 750.000000 L 163.636337 0.000000 " />
<path stroke-linejoin="round" stroke-linecap="round" stroke="rgb(255,0,0)" stroke-width="3.749996" fill="none" d="M 59.705837 476.348236 L 63.290321 487.101715 " />
<path stroke-linejoin="round" stroke-linecap="round" stroke="rgb(0,0,255)" stroke-width="1.874998" fill="none" d="M 0.000000 750.000000 L 157.894745 0.000000 " />
<path stroke-linejoin="round" stroke-linecap="round" stroke="rgb(255,0,0)" stroke-width="3.749996" fill="none" d="M 58.421844 472.496246 L 59.705837 476.348236 " />
<path stroke-linejoin="round" stroke-linecap="round" stroke="rgb(0,0,255)" stroke-width="1.874998" fill="none" d="M 0.000000 750.000000 L 147.540985 0.000000 " />
<path stroke-linejoin="round" stroke-linecap="round" stroke="rgb(255,0,0)" stroke-width="3.749996" fill="none" d="M 56.012684 465.268860 L 58.421844 472.496246 " />
<path stroke-linejoin="round" stroke-linecap="round" stroke="rgb(0,0,255)" stroke-width="1.874998" fill="none" d="M 0.000000 750.000000 L 137.323959 0.000000 " />
<path stroke-linejoin="round" stroke-linecap="round" stroke="rgb(255,0,0)" stroke-width="3.749996" fill="none" d="M 54.312721 453.369049 L 56.012684 465.268860 " />
<path stroke-linejoin="round" stroke-linecap="round" stroke="rgb(0,0,255)" stroke-width="1.874998" fill="none" d="M 0.000000 750.000000 L 113.013718 0.000000 " />
<path stroke-linejoin="round" stroke-linecap="round" stroke="rgb(255,0,0)" stroke-width="3.749996" fill="none" d="M 49.831913 419.297272 L 54.312698 453.369049 " />
<path stroke-linejoin="round" stroke-linecap="round" stroke="rgb(0,0,255)" stroke-width="1.874998" fill="none" d="M 0.000000 750.000000 L 108.433754 0.000000 " />
<path stroke-linejoin="round" stroke-linecap="round" stroke="rgb(255,0,0)" stroke-width="3.749996" fill="none" d="M 48.828228 412.271393 L 49.831913 419.297272 " />
<path stroke-linejoin="round" stroke-linecap="round" stroke="rgb(0,0,255)" stroke-width="1.874998" fill="none" d="M 0.000000 750.000000 L 107.142853 0.000000 " />
<path stroke-linejoin="round" stroke-linecap="round" stroke="rgb(255,0,0)" stroke-width="3.749996" fill="none" d="M 48.537590 410.236908 L 48.828228 412.271393 " />
<path stroke-linejoin="round" stroke-linecap="round" stroke="rgb(0,0,255)" stroke-width="1.874998" fill="none" d="M 0.000000 750.000000 L 96.153839 0.000000 " />
<path stroke-linejoin="round" stroke-linecap="round" stroke="rgb(255,0,0)" stroke-width="3.749996" fill="none" d="M 45.212364 397.343567 L 48.537590 410.236908 " />
<path stroke-linejoin="round" stroke-linecap="round" stroke="rgb(0,0,255)" stroke-width="1.874998" fill="none" d="M 0.000000 750.000000 L 93.750000 0.000000 " />
<path stroke-linejoin="round" stroke-linecap="round" stroke="rgb(255,0,0)" stroke-width="3.749996" fill="none" d="M 44.609539 393.123718 L 45.212364 397.343567 " />
<path stroke-linejoin="round" stroke-linecap="round" stroke="rgb(0,0,255)" stroke-width="1.874998" fill="none" d="M 0.000000 750.000000 L 85.227280 0.000000 " />
<path stroke-linejoin="round" stroke-linecap="round" stroke="rgb(255,0,0)" stroke-width="3.749996" fill="none" d="M 42.504719 375.958435 L 44.609539 393.123718 " />
<path stroke-linejoin="round" stroke-linecap="round" stroke="rgb(0,0,255)" stroke-width="1.874998" fill="none" d="M 0.000000 750.000000 L 84.269669 0.000000 " />
<path stroke-linejoin="round" stroke-linecap="round" stroke="rgb(255,0,0)" stroke-width="3.749996" fill="none" d="M 42.237392 374.087219 L 42.504719 375.958496 " />
<path stroke-linejoin="round" stroke-linecap="round" stroke="rgb(0,0,255)" stroke-width="1.874998" fill="none" d="M 0.000000 750.000000 L 84.183678 0.000000 " />
<path stroke-linejoin="round" stroke-linecap="round" stroke="rgb(255,0,0)" stroke-width="3.749996" fill="none" d="M 42.213253 373.918274 L 42.237392 374.087219 " />
<path stroke-linejoin="round" stroke-linecap="round" stroke="rgb(0,0,255)" stroke-width="1.874998" fill="none" d="M 0.000000 750.000000 L 81.521744 0.000000 " />
<path stroke-linejoin="round" stroke-linecap="round" stroke="rgb(255,0,0)" stroke-width="3.749996" fill="none" d="M 41.478195 368.400635 L 42.213253 373.918274 " />
<path stroke-linejoin="round" stroke-linecap="round" stroke="rgb(0,0,255)" stroke-width="1.874998" fill="none" d="M 0.000000 750.000000 L 69.587631 0.000000 " />
<path stroke-linejoin="round" stroke-linecap="round" stroke="rgb(255,0,0)" stroke-width="3.749996" fill="none" d="M 38.110569 339.252655 L 41.478195 368.400635 " />
<path stroke-linejoin="round" stroke-linecap="round" stroke="rgb(0,0,255)" stroke-width="1.874998" fill="none" d="M 0.000000 750.000000 L 66.666664 0.000000 " />
<path stroke-linejoin="round" stroke-linecap="round" stroke="rgb(255,0,0)" stroke-width="3.749996" fill="none" d="M 37.090099 332.736420 L 38.110569 339.252655 " />
<path stroke-linejoin="round" stroke-linecap="round" stroke="rgb(0,0,255)" stroke-width="1.874998" fill="none" d="M 0.000000 750.000000 L 65.217400 0.000000 " />
<path stroke-linejoin="round" stroke-linecap="round" stroke="rgb(255,0,0)" stroke-width="3.749996" fill="none" d="M 36.599567 329.104858 L 37.090099 332.736420 " />
<path stroke-linejoin="round" stroke-linecap="round" stroke="rgb(0,0,255)" stroke-width="1.874998" fill="none" d="M 0.000000 750.000000 L 63.829781 0.000000 " />
<path stroke-linejoin="round" stroke-linecap="round" stroke="rgb(255,0,0)" stroke-width="3.749996" fill="none" d="M 36.148174 325.259003 L 36.599567 329.104858 " />
<path stroke-linejoin="round" stroke-linecap="round" stroke="rgb(0,0,255)" stroke-width="1.874998" fill="none" d="M 0.000000 750.000000 L 62.500008 0.000000 " />
<path stroke-linejoin="round" stroke-linecap="round" stroke="rgb(255,0,0)" stroke-width="3.749996" fill="none" d="M 35.715179 321.417816 L 36.148174 325.259003 " />
<path stroke-linejoin="round" stroke-linecap="round" stroke="rgb(0,0,255)" stroke-width="1.874998" fill="none" d="M 0.000000 750.000000 L 56.074753 0.000000 " />
<path stroke-linejoin="round" stroke-linecap="round" stroke="rgb(255,0,0)" stroke-width="3.749996" fill="none" d="M 33.520191 301.667542 L 35.715179 321.417816 " />
<path stroke-linejoin="round" stroke-linecap="round" stroke="rgb(0,0,255)" stroke-width="1.874998" fill="none" d="M 0.000000 750.000000 L 50.970867 0.000000 " />
<path stroke-linejoin="round" stroke-linecap="round" stroke="rgb(255,0,0)" stroke-width="3.749996" fill="none" d="M 31.626955 284.631989 L 33.520191 301.667542 " />
<path stroke-linejoin="round" stroke-linecap="round" stroke="rgb(0,0,255)" stroke-width="1.874998" fill="none" d="M 0.000000 750.000000 L 46.875000 0.000000 " />
<path stroke-linejoin="round" stroke-linecap="round" stroke="rgb(255,0,0)" stroke-width="3.749996" fill="none" d="M 30.000307 269.994965 L 31.626955 284.631989 " />
<path stroke-linejoin="round" stroke-linecap="round" stroke="rgb(0,0,255)" stroke-width="1.874998" fill="none" d="M 0.000000 750.000000 L 38.793102 0.000000 " />
<path stroke-linejoin="round" stroke-linecap="round" stroke="rgb(255,0,0)" stroke-width="3.749996" fill="none" d="M 26.470787 238.231232 L 30.000307 269.995026 " />
<path stroke-linejoin="round" stroke-linecap="round" stroke="rgb(0,0,255)" stroke-width="1.874998" fill="none" d="M 0.000000 750.000000 L 37.815125 0.000000 " />
<path stroke-linejoin="round" stroke-linecap="round" stroke="rgb(255,0,0)" stroke-width="3.749996" fill="none" d="M 26.011705 234.100983 L 26.470787 238.231232 " />
<path stroke-linejoin="round" stroke-linecap="round" stroke="rgb(0,0,255)" stroke-width="1.874998" fill="none" d="M 0.000000 750.000000 L 37.190079 0.000000 " />
<path stroke-linejoin="round" stroke-linecap="round" stroke="rgb(255,0,0)" stroke-width="3.749996" fill="none" d="M 25.714405 231.426285 L 26.011705 234.100983 " />
<path stroke-linejoin="round" stroke-linecap="round" stroke="rgb(0,0,255)" stroke-width="1.874998" fill="none" d="M 0.000000 750.000000 L 36.585377 0.000000 " />
<path stroke-linejoin="round" stroke-linecap="round" stroke="rgb(255,0,0)" stroke-width="3.749996" fill="none" d="M 25.423809 228.811813 L 25.714405 231.426285 " />
<path stroke-linejoin="round" stroke-linecap="round" stroke="rgb(0,0,255)" stroke-width="1.874998" fill="none" d="M 0.000000 750.000000 L 28.195494 0.000000 " />
<path stroke-linejoin="round" stroke-linecap="round" stroke="rgb(255,0,0)" stroke-width="3.749996" fill="none" d="M 21.067478 189.605240 L 25.423809 228.811813 " />
<path stroke-linejoin="round" stroke-linecap="round" stroke="rgb(0,0,255)" stroke-width="1.874998" fill="none" d="M 0.000000 750.000000 L 20.979033 0.000000 " />
<path stroke-linejoin="round" stroke-linecap="round" stroke="rgb(255,0,0)" stroke-width="3.749996" fill="none" d="M 16.759806 150.836746 L 21.067478 189.605225 " />
<path stroke-linejoin="round" stroke-linecap="round" stroke="rgb(0,0,255)" stroke-width="1.874998" fill="none" d="M 0.000000 750.000000 L 15.306115 0.000000 " />
<path stroke-linejoin="round" stroke-linecap="round" stroke="rgb(255,0,0)" stroke-width="3.749996" fill="none" d="M 12.931064 116.378319 L 16.759806 150.836700 " />
<path stroke-linejoin="round" stroke-linecap="round" stroke="rgb(0,0,255)" stroke-width="1.874998" fill="none" d="M 0.000000 750.000000 L 11.278197 0.000000 " />
<path stroke-linejoin="round" stroke-linecap="round" stroke="rgb(255,0,0)" stroke-width="3.749996" fill="none" d="M 9.933784 89.403168 L 12.931064 116.378410 " />
<path stroke-linejoin="round" stroke-linecap="round" stroke="rgb(0,0,255)" stroke-width="1.874998" fill="none" d="M 0.000000 750.000000 L 5.244747 0.000000 " />
<path stroke-linejoin="round" stroke-linecap="round" stroke="rgb(255,0,0)" stroke-width="3.749996" fill="none" d="M 4.934214 44.407234 L 9.933784 89.403168 " />
<path stroke-linejoin="round" stroke-linecap="round" stroke="rgb(0,0,255)" stroke-width="1.874998" fill="none" d="M 0.000000 750.000000 L 0.000000 0.000000 " />
<path stroke-linejoin="round" stroke-linecap="round" stroke="rgb(255,0,0)" stroke-width="3.749996" fill="none" d="M 0.000000 0.000000 L 4.934214 44.407234 " />
<circle cx="149.538450" cy="745.846152" r="3.749996" style="fill:rgb(0,127,0);stroke-width:1" /><circle cx="148.102060" cy="741.537027" r="3.749996" style="fill:rgb(0,127,0);stroke-width:1" /><circle cx="146.610975" cy="737.063728" r="3.749996" style="fill:rgb(0,127,0);stroke-width:1" /><circle cx="145.384602" cy="733.384609" r="3.749996" style="fill:rgb(0,127,0);stroke-width:1" /><circle cx="143.870585" cy="728.842556" r="3.749996" style="fill:rgb(0,127,0);stroke-width:1" /><circle cx="142.298900" cy="724.127479" r="3.749996" style="fill:rgb(0,127,0);stroke-width:1" /><circle cx="141.230777" cy="720.923066" r="3.749996" style="fill:rgb(0,127,0);stroke-width:1" /><circle cx="139.639109" cy="716.148086" r="3.749996" style="fill:rgb(0,127,0);stroke-width:1" /><circle cx="137.986824" cy="711.191207" r="3.749996" style="fill:rgb(0,127,0);stroke-width:1" /><circle cx="137.076929" cy="708.461523" r="3.749996" style="fill:rgb(0,127,0);stroke-width:1" /><circle cx="135.407634" cy="703.453615" r="3.749996" style="fill:rgb(0,127,0);stroke-width:1" /><circle cx="133.674726" cy="698.254935" r="3.749996" style="fill:rgb(0,127,0);stroke-width:1" /><circle cx="132.923082" cy="696.000002" r="3.749996" style="fill:rgb(0,127,0);stroke-width:1" /><circle cx="131.176159" cy="690.759167" r="3.749996" style="fill:rgb(0,127,0);stroke-width:1" /><circle cx="129.362650" cy="685.318686" r="3.749996" style="fill:rgb(0,127,0);stroke-width:1" /><circle cx="128.769234" cy="683.538459" r="3.749996" style="fill:rgb(0,127,0);stroke-width:1" /><circle cx="126.944661" cy="678.064696" r="3.749996" style="fill:rgb(0,127,0);stroke-width:1" /><circle cx="125.050575" cy="672.382414" r="3.749996" style="fill:rgb(0,127,0);stroke-width:1" /><circle cx="124.615408" cy="671.076916" r="3.749996" style="fill:rgb(0,127,0);stroke-width:1" /><circle cx="122.713163" cy="665.370226" r="3.749996" style="fill:rgb(0,127,0);stroke-width:1" /><circle cx="120.738477" cy="659.446143" r="3.749996" style="fill:rgb(0,127,0);stroke-width:1" /><circle cx="118.687078" cy="653.292015" r="3.749996" style="fill:rgb(0,127,0);stroke-width:1" /><circle cx="118.481688" cy="652.675755" r="3.749996" style="fill:rgb(0,127,0);stroke-width:1" /><circle cx="116.426378" cy="646.509871" r="3.749996" style="fill:rgb(0,127,0);stroke-width:1" /><circle cx="116.307713" cy="646.153830" r="3.749996" style="fill:rgb(0,127,0);stroke-width:1" /><circle cx="114.250191" cy="639.981307" r="3.749996" style="fill:rgb(0,127,0);stroke-width:1" /><circle cx="114.212058" cy="639.866933" r="3.749996" style="fill:rgb(0,127,0);stroke-width:1" /><circle cx="112.114280" cy="633.573622" r="3.749996" style="fill:rgb(0,127,0);stroke-width:1" /><circle cx="110.018715" cy="627.286837" r="3.749996" style="fill:rgb(0,127,0);stroke-width:1" /><circle cx="107.802205" cy="620.637350" r="3.749996" style="fill:rgb(0,127,0);stroke-width:1" /><circle cx="105.787218" cy="614.592344" r="3.749996" style="fill:rgb(0,127,0);stroke-width:1" /><circle cx="103.490129" cy="607.701078" r="3.749996" style="fill:rgb(0,127,0);stroke-width:1" /><circle cx="101.555720" cy="601.897895" r="3.749996" style="fill:rgb(0,127,0);stroke-width:1" /><circle cx="101.103812" cy="600.542173" r="3.749996" style="fill:rgb(0,127,0);stroke-width:1" /><circle cx="98.623015" cy="593.099758" r="3.749996" style="fill:rgb(0,127,0);stroke-width:1" /><circle cx="96.041970" cy="585.356623" r="3.749996" style="fill:rgb(0,127,0);stroke-width:1" /><circle cx="94.140150" cy="579.651162" r="3.749996" style="fill:rgb(0,127,0);stroke-width:1" /><circle cx="92.312202" cy="574.167252" r="3.749996" style="fill:rgb(0,127,0);stroke-width:1" /><circle cx="90.553857" cy="568.892285" r="3.749996" style="fill:rgb(0,127,0);stroke-width:1" /><circle cx="87.916374" cy="560.979791" r="3.749996" style="fill:rgb(0,127,0);stroke-width:1" /><circle cx="85.174441" cy="552.753948" r="3.749996" style="fill:rgb(0,127,0);stroke-width:1" /><circle cx="83.520547" cy="547.792342" r="3.749996" style="fill:rgb(0,127,0);stroke-width:1" /><circle cx="81.929684" cy="543.019764" r="3.749996" style="fill:rgb(0,127,0);stroke-width:1" /><circle cx="79.124719" cy="534.604903" r="3.749996" style="fill:rgb(0,127,0);stroke-width:1" /><circle cx="76.208688" cy="525.856789" r="3.749996" style="fill:rgb(0,127,0);stroke-width:1" /><circle cx="74.728914" cy="521.417443" r="3.749996" style="fill:rgb(0,127,0);stroke-width:1" /><circle cx="73.305488" cy="517.147243" r="3.749996" style="fill:rgb(0,127,0);stroke-width:1" /><circle cx="71.935304" cy="513.036646" r="3.749996" style="fill:rgb(0,127,0);stroke-width:1" /><circle cx="68.993412" cy="504.210971" r="3.749996" style="fill:rgb(0,127,0);stroke-width:1" /><circle cx="67.703828" cy="500.342164" r="3.749996" style="fill:rgb(0,127,0);stroke-width:1" /><circle cx="64.681314" cy="491.274711" r="3.749996" style="fill:rgb(0,127,0);stroke-width:1" /><circle cx="63.290320" cy="487.101708" r="3.749996" style="fill:rgb(0,127,0);stroke-width:1" /><circle cx="59.705839" cy="476.348229" r="3.749996" style="fill:rgb(0,127,0);stroke-width:1" /><circle cx="58.421843" cy="472.496241" r="3.749996" style="fill:rgb(0,127,0);stroke-width:1" /><circle cx="56.012683" cy="465.268834" r="3.749996" style="fill:rgb(0,127,0);stroke-width:1" /><circle cx="54.312721" cy="453.369051" r="3.749996" style="fill:rgb(0,127,0);stroke-width:1" /><circle cx="49.831912" cy="419.297255" r="3.749996" style="fill:rgb(0,127,0);stroke-width:1" /><circle cx="48.828229" cy="412.271404" r="3.749996" style="fill:rgb(0,127,0);stroke-width:1" /><circle cx="48.537590" cy="410.236895" r="3.749996" style="fill:rgb(0,127,0);stroke-width:1" /><circle cx="45.212366" cy="397.343553" r="3.749996" style="fill:rgb(0,127,0);stroke-width:1" /><circle cx="44.609539" cy="393.123723" r="3.749996" style="fill:rgb(0,127,0);stroke-width:1" /><circle cx="42.504720" cy="375.958443" r="3.749996" style="fill:rgb(0,127,0);stroke-width:1" /><circle cx="42.237394" cy="374.087226" r="3.749996" style="fill:rgb(0,127,0);stroke-width:1" /><circle cx="42.213254" cy="373.918283" r="3.749996" style="fill:rgb(0,127,0);stroke-width:1" /><circle cx="41.478194" cy="368.400622" r="3.749996" style="fill:rgb(0,127,0);stroke-width:1" /><circle cx="38.110569" cy="339.252664" r="3.749996" style="fill:rgb(0,127,0);stroke-width:1" /><circle cx="37.090100" cy="332.736433" r="3.749996" style="fill:rgb(0,127,0);stroke-width:1" /><circle cx="36.599569" cy="329.104864" r="3.749996" style="fill:rgb(0,127,0);stroke-width:1" /><circle cx="36.148176" cy="325.259004" r="3.749996" style="fill:rgb(0,127,0);stroke-width:1" /><circle cx="35.715178" cy="321.417835" r="3.749996" style="fill:rgb(0,127,0);stroke-width:1" /><circle cx="33.520192" cy="301.667545" r="3.749996" style="fill:rgb(0,127,0);stroke-width:1" /><circle cx="31.626955" cy="284.631981" r="3.749996" style="fill:rgb(0,127,0);stroke-width:1" /><circle cx="30.000307" cy="269.994948" r="3.749996" style="fill:rgb(0,127,0);stroke-width:1" /><circle cx="26.470788" cy="238.231234" r="3.749996" style="fill:rgb(0,127,0);stroke-width:1" /><circle cx="26.011705" cy="234.100990" r="3.749996" style="fill:rgb(0,127,0);stroke-width:1" /><circle cx="25.714405" cy="231.426291" r="3.749996" style="fill:rgb(0,127,0);stroke-width:1" /><circle cx="25.423810" cy="228.811808" r="3.749996" style="fill:rgb(0,127,0);stroke-width:1" /><circle cx="21.067478" cy="189.605244" r="3.749996" style="fill:rgb(0,127,0);stroke-width:1" /><circle cx="16.759805" cy="150.836751" r="3.749996" style="fill:rgb(0,127,0);stroke-width:1" /><circle cx="12.931064" cy="116.378322" r="3.749996" style="fill:rgb(0,127,0);stroke-width:1" /><circle cx="9.933785" cy="89.403167" r="3.749996" style="fill:rgb(0,127,0);stroke-width:1" /><circle cx="4.934214" cy="44.407234" r="3.749996" style="fill:rgb(0,127,0);stroke-width:1" /><circle cx="750.000000" cy="750.000000" r="3.749996" style="fill:rgb(0,127,0);stroke-width:1" /><path stroke-linejoin="round" stroke-linecap="round" stroke="rgb(255,255,255)" stroke-width="3.749996" fill="none" d="M 0.000000 750.000000 L 750.000000 750.000000 M 0.000000 750.000000 L 0.000000 0.000000 " />

</svg>