<svg xmlns="http://www.w3.org/2000/svg" version="1.1" width = "750" height = "750" viewBox = "0 0 750 750"  shape-rendering="crispEdges">
<path stroke-linejoin="round" stroke-linecap="round" stroke="rgb(255,255,0)" stroke-width="3.749996" fill="none" d="M 187.500000 750.000000 L 0.000000 0.000000 " />
<path stroke-linejoin="round" stroke-linecap="round" stroke="rgb(63,63,63)" stroke-width="3.749996" fill="none" d="M 0.000000 0.000000 L 750.000000 750.000000 M 187.500000 750.000000 L 80.357147 0.000000 " />
<path stroke-linejoin="round" stroke-linecap="round" stroke="rgb(191,191,191)" stroke-width="3.749996" fill="none" d="M 0.000000 562.500000 L 187.500000 750.000000 M 0.000000 0.000000 L 107.142853 750.000000 " />
<path stroke-linejoin="round" stroke-linecap="round" stroke="rgb(0,0,255)" stroke-width="1.874998" fill="none" d="M 0.000000 750.000000 L 750.000000 482.142853 " />
<path stroke-linejoin="round" stroke-linecap="round" stroke="rgb(255,0,0)" stroke-width="3.749996" fill="none" d="M 178.398056 686.286377 L 187.500000 750.000000 " />
<path stroke-linejoin="round" stroke-linecap="round" stroke="rgb(0,0,255)" stroke-width="1.874998" fill="none" d="M 0.000000 750.000000 L 750.000000 194.444458 " />
<path stroke-linejoin="round" stroke-linecap="round" stroke="rgb(255,0,0)" stroke-width="3.749996" fill="none" d="M 169.557404 624.401917 L 178.398056 686.286377 " />
<path stroke-linejoin="round" stroke-linecap="round" stroke="rgb(0,0,255)" stroke-width="1.874998" fill="none" d="M 0.000000 750.000000 L 650.000000 0.000000 " />
<path stroke-linejoin="round" stroke-linecap="round" stroke="rgb(255,0,0)" stroke-width="3.749996" fill="none" d="M 160.966965 564.268860 L 169.557404 624.401917 " />
<path stroke-linejoin="round" stroke-linecap="round" stroke="rgb(0,0,255)" stroke-width="1.874998" fill="none" d="M 0.000000 750.000000 L 506.250000 0.000000 " />
<path stroke-linejoin="round" stroke-linecap="round" stroke="rgb(255,0,0)" stroke-width="3.749996" fill="none" d="M 154.748917 520.742371 L 160.966965 564.268860 " />
<path stroke-linejoin="round" stroke-linecap="round" stroke="rgb(0,0,255)" stroke-width="1.874998" fill="none" d="M 0.000000 750.000000 L 390.000031 0.000000 " />
<path stroke-linejoin="round" stroke-linecap="round" stroke="rgb(255,0,0)" stroke-width="3.749996" fill="none" d="M 147.090515 467.133606 L 154.748917 520.742371 " />
<path stroke-linejoin="round" stroke-linecap="round" stroke="rgb(0,0,255)" stroke-width="1.874998" fill="none" d="M 0.000000 750.000000 L 367.647064 0.000000 " />
<path stroke-linejoin="round" stroke-linecap="round" stroke="rgb(255,0,0)" stroke-width="3.749996" fill="none" d="M 145.188065 453.816345 L 147.090515 467.133606 " />
<path stroke-linejoin="round" stroke-linecap="round" stroke="rgb(0,0,255)" stroke-width="1.874998" fill="none" d="M 0.000000 750.000000 L 302.631592 0.000000 " />
<path stroke-linejoin="round" stroke-linecap="round" stroke="rgb(255,0,0)" stroke-width="3.749996" fill="none" d="M 138.474762 406.823425 L 145.188065 453.816345 " />
<path stroke-linejoin="round" stroke-linecap="round" stroke="rgb(0,0,255)" stroke-width="1.874998" fill="none" d="M 0.000000 750.000000 L 300.000000 0.000000 " />
<path stroke-linejoin="round" stroke-linecap="round" stroke="rgb(255,0,0)" stroke-width="3.749996" fill="none" d="M 137.614670 405.963318 L 138.474762 406.823425 " />
<path stroke-linejoin="round" stroke-linecap="round" stroke="rgb(0,0,255)" stroke-width="1.874998" fill="none" d="M 0.000000 750.000000 L 289.473694 0.000000 " />
<path stroke-linejoin="round" stroke-linecap="round" stroke="rgb(255,0,0)" stroke-width="3.749996" fill="none" d="M 134.130753 402.479401 L 137.614670 405.963318 " />
<path stroke-linejoin="round" stroke-linecap="round" stroke="rgb(0,0,255)" stroke-width="1.874998" fill="none" d="M 0.000000 750.000000 L 273.809509 0.000000 " />
<path stroke-linejoin="round" stroke-linecap="round" stroke="rgb(255,0,0)" stroke-width="3.749996" fill="none" d="M 132.089401 388.189941 L 134.130753 402.479401 " />
<path stroke-linejoin="round" stroke-linecap="round" stroke="rgb(0,0,255)" stroke-width="1.874998" fill="none" d="M 0.000000 750.000000 L 257.462708 0.000000 " />
<path stroke-linejoin="round" stroke-linecap="round" stroke="rgb(255,0,0)" stroke-width="3.749996" fill="none" d="M 129.772018 371.968445 L 132.089401 388.189941 " />
<path stroke-linejoin="round" stroke-linecap="round" stroke="rgb(0,0,255)" stroke-width="1.874998" fill="none" d="M 0.000000 750.000000 L 253.676468 0.000000 " />
<path stroke-linejoin="round" stroke-linecap="round" stroke="rgb(255,0,0)" stroke-width="3.749996" fill="none" d="M 129.205368 368.001587 L 129.772018 371.968445 " />
<path stroke-linejoin="round" stroke-linecap="round" stroke="rgb(0,0,255)" stroke-width="1.874998" fill="none" d="M 0.000000 750.000000 L 245.901642 0.000000 " />
<path stroke-linejoin="round" stroke-linecap="round" stroke="rgb(255,0,0)" stroke-width="3.749996" fill="none" d="M 126.223145 365.019409 L 129.205368 368.001587 " />
<path stroke-linejoin="round" stroke-linecap="round" stroke="rgb(0,0,255)" stroke-width="1.874998" fill="none" d="M 0.000000 750.000000 L 238.095230 0.000000 " />
<path stroke-linejoin="round" stroke-linecap="round" stroke="rgb(255,0,0)" stroke-width="3.749996" fill="none" d="M 123.181610 361.977875 L 126.223145 365.019470 " />
<path stroke-linejoin="round" stroke-linecap="round" stroke="rgb(0,0,255)" stroke-width="1.874998" fill="none" d="M 0.000000 750.000000 L 237.500000 0.000000 " />
<path stroke-linejoin="round" stroke-linecap="round" stroke="rgb(255,0,0)" stroke-width="3.749996" fill="none" d="M 122.947723 361.744019 L 123.181610 361.977875 " />
<path stroke-linejoin="round" stroke-linecap="round" stroke="rgb(0,0,255)" stroke-width="1.874998" fill="none" d="M 0.000000 750.000000 L 221.311478 0.000000 " />
<path stroke-linejoin="round" stroke-linecap="round" stroke="rgb(255,0,0)" stroke-width="3.749996" fill="none" d="M 116.476807 355.273102 L 122.947723 361.744019 " />
<path stroke-linejoin="round" stroke-linecap="round" stroke="rgb(0,0,255)" stroke-width="1.874998" fill="none" d="M 0.000000 750.000000 L 214.285721 0.000000 " />
<path stroke-linejoin="round" stroke-linecap="round" stroke="rgb(255,0,0)" stroke-width="3.749996" fill="none" d="M 113.600807 352.397156 L 116.476807 355.273102 " />
<path stroke-linejoin="round" stroke-linecap="round" stroke="rgb(0,0,255)" stroke-width="1.874998" fill="none" d="M 0.000000 750.000000 L 207.692291 0.000000 " />
<path stroke-linejoin="round" stroke-linecap="round" stroke="rgb(255,0,0)" stroke-width="3.749996" fill="none" d="M 110.863434 349.659790 L 113.600807 352.397217 " />
<path stroke-linejoin="round" stroke-linecap="round" stroke="rgb(0,0,255)" stroke-width="1.874998" fill="none" d="M 0.000000 750.000000 L 201.492523 0.000000 " />
<path stroke-linejoin="round" stroke-linecap="round" stroke="rgb(255,0,0)" stroke-width="3.749996" fill="none" d="M 108.254898 347.051208 L 110.863434 349.659790 " />
<path stroke-linejoin="round" stroke-linecap="round" stroke="rgb(0,0,255)" stroke-width="1.874998" fill="none" d="M 0.000000 750.000000 L 193.181808 0.000000 " />
<path stroke-linejoin="round" stroke-linecap="round" stroke="rgb(255,0,0)" stroke-width="3.749996" fill="none" d="M 104.704369 343.500671 L 108.254898 347.051208 " />
<path stroke-linejoin="round" stroke-linecap="round" stroke="rgb(0,0,255)" stroke-width="1.874998" fill="none" d="M 0.000000 750.000000 L 179.104462 0.000000 " />
<path stroke-linejoin="round" stroke-linecap="round" stroke="rgb(255,0,0)" stroke-width="3.749996" fill="none" d="M 98.545296 337.341553 L 104.704369 343.500671 " />
<path stroke-linejoin="round" stroke-linecap="round" stroke="rgb(0,0,255)" stroke-width="1.874998" fill="none" d="M 0.000000 750.000000 L 173.913040 0.000000 " />
<path stroke-linejoin="round" stroke-linecap="round" stroke="rgb(255,0,0)" stroke-width="3.749996" fill="none" d="M 96.226570 335.022827 L 98.545296 337.341553 " />
<path stroke-linejoin="round" stroke-linecap="round" stroke="rgb(0,0,255)" stroke-width="1.874998" fill="none" d="M 0.000000 750.000000 L 160.714294 0.000000 " />
<path stroke-linejoin="round" stroke-linecap="round" stroke="rgb(255,0,0)" stroke-width="3.749996" fill="none" d="M 90.212433 329.008698 L 96.226570 335.022827 " />
<path stroke-linejoin="round" stroke-linecap="round" stroke="rgb(0,0,255)" stroke-width="1.874998" fill="none" d="M 0.000000 750.000000 L 147.887299 0.000000 " />
<path stroke-linejoin="round" stroke-linecap="round" stroke="rgb(255,0,0)" stroke-width="3.749996" fill="none" d="M 84.198250 322.994507 L 90.212433 329.008698 " />
<path stroke-linejoin="round" stroke-linecap="round" stroke="rgb(0,0,255)" stroke-width="1.874998" fill="none" d="M 0.000000 750.000000 L 143.835602 0.000000 " />
<path stroke-linejoin="round" stroke-linecap="round" stroke="rgb(255,0,0)" stroke-width="3.749996" fill="none" d="M 82.262680 321.058929 L 84.198250 322.994507 " />
<path stroke-linejoin="round" stroke-linecap="round" stroke="rgb(0,0,255)" stroke-width="1.874998" fill="none" d="M 0.000000 750.000000 L 131.756775 0.000000 " />
<path stroke-linejoin="round" stroke-linecap="round" stroke="rgb(255,0,0)" stroke-width="3.749996" fill="none" d="M 76.386765 315.183014 L 82.262680 321.058929 " />
<path stroke-linejoin="round" stroke-linecap="round" stroke="rgb(0,0,255)" stroke-width="1.874998" fill="none" d="M 0.000000 750.000000 L 120.000000 0.000000 " />
<path stroke-linejoin="round" stroke-linecap="round" stroke="rgb(255,0,0)" stroke-width="3.749996" fill="none" d="M 70.510849 309.307098 L 76.386765 315.183014 " />
<path stroke-linejoin="round" stroke-linecap="round" stroke="rgb(0,0,255)" stroke-width="1.874998" fill="none" d="M 0.000000 750.000000 L 108.552620 0.000000 " />
<path stroke-linejoin="round" stroke-linecap="round" stroke="rgb(255,0,0)" stroke-width="3.749996" fill="none" d="M 64.634956 303.431183 L 70.510849 309.307098 " />
<path stroke-linejoin="round" stroke-linecap="round" stroke="rgb(0,0,255)" stroke-width="1.874998" fill="none" d="M 0.000000 750.000000 L 97.402588 0.000000 " />
<path stroke-linejoin="round" stroke-linecap="round" stroke="rgb(255,0,0)" stroke-width="3.749996" fill="none" d="M 58.759064 297.555328 L 64.634956 303.431183 " />
<path stroke-linejoin="round" stroke-linecap="round" stroke="rgb(0,0,255)" stroke-width="1.874998" fill="none" d="M 0.000000 750.000000 L 96.428589 0.000000 " />
<path stroke-linejoin="round" stroke-linecap="round" stroke="rgb(255,0,0)" stroke-width="3.749996" fill="none" d="M 58.238403 297.034668 L 58.759064 297.555328 " />
<path stroke-linejoin="round" stroke-linecap="round" stroke="rgb(0,0,255)" stroke-width="1.874998" fill="none" d="M 0.000000 750.000000 L 84.507042 0.000000 " />
<path stroke-linejoin="round" stroke-linecap="round" stroke="rgb(255,0,0)" stroke-width="3.749996" fill="none" d="M 51.767460 290.563751 L 58.238403 297.034668 " />
<path stroke-linejoin="round" stroke-linecap="round" stroke="rgb(0,0,255)" stroke-width="1.874998" fill="none" d="M 0.000000 750.000000 L 72.916656 0.000000 " />
<path stroke-linejoin="round" stroke-linecap="round" stroke="rgb(255,0,0)" stroke-width="3.749996" fill="none" d="M 45.296543 284.092773 L 51.767460 290.563751 " />
<path stroke-linejoin="round" stroke-linecap="round" stroke="rgb(0,0,255)" stroke-width="1.874998" fill="none" d="M 0.000000 750.000000 L 61.643826 0.000000 " />
<path stroke-linejoin="round" stroke-linecap="round" stroke="rgb(255,0,0)" stroke-width="3.749996" fill="none" d="M 39.130436 273.912994 L 45.296543 284.092743 " />
<path stroke-linejoin="round" stroke-linecap="round" stroke="rgb(0,0,255)" stroke-width="1.874998" fill="none" d="M 0.000000 750.000000 L 59.999989 0.000000 " />
<path stroke-linejoin="round" stroke-linecap="round" stroke="rgb(255,0,0)" stroke-width="3.749996" fill="none" d="M 38.461536 269.230743 L 39.130436 273.912994 " />
<path stroke-linejoin="round" stroke-linecap="round" stroke="rgb(0,0,255)" stroke-width="1.874998" fill="none" d="M 0.000000 750.000000 L 58.441559 0.000000 " />
<path stroke-linejoin="round" stroke-linecap="round" stroke="rgb(255,0,0)" stroke-width="3.749996" fill="none" d="M 37.815125 264.705872 L 38.461536 269.230743 " />
<path stroke-linejoin="round" stroke-linecap="round" stroke="rgb(0,0,255)" stroke-width="1.874998" fill="none" d="M 0.000000 750.000000 L 48.076920 0.000000 " />
<path stroke-linejoin="round" stroke-linecap="round" stroke="rgb(255,0,0)" stroke-width="3.749996" fill="none" d="M 33.185833 232.300934 L 37.815125 264.705872 " />
<path stroke-linejoin="round" stroke-linecap="round" stroke="rgb(0,0,255)" stroke-width="1.874998" fill="none" d="M 0.000000 750.000000 L 37.974693 0.000000 " />
<path stroke-linejoin="round" stroke-linecap="round" stroke="rgb(255,0,0)" stroke-width="3.749996" fill="none" d="M 28.037376 196.261749 L 33.185833 232.300934 " />
<path stroke-linejoin="round" stroke-linecap="round" stroke="rgb(0,0,255)" stroke-width="1.874998" fill="none" d="M 0.000000 750.000000 L 37.037037 0.000000 " />
<path stroke-linejoin="round" stroke-linecap="round" stroke="rgb(255,0,0)" stroke-width="3.749996" fill="none" d="M 27.522928 192.660614 L 28.037376 196.261749 " />
<path stroke-linejoin="round" stroke-linecap="round" stroke="rgb(0,0,255)" stroke-width="1.874998" fill="none" d="M 0.000000 750.000000 L 36.144577 0.000000 " />
<path stroke-linejoin="round" stroke-linecap="round" stroke="rgb(255,0,0)" stroke-width="3.749996" fill="none" d="M 27.027012 189.189301 L 27.522928 192.660614 " />
<path stroke-linejoin="round" stroke-linecap="round" stroke="rgb(0,0,255)" stroke-width="1.874998" fill="none" d="M 0.000000 750.000000 L 26.785725 0.000000 " />
<path stroke-linejoin="round" stroke-linecap="round" stroke="rgb(255,0,0)" stroke-width="3.749996" fill="none" d="M 21.428570 150.000122 L 27.027012 189.189301 " />
<path stroke-linejoin="round" stroke-linecap="round" stroke="rgb(0,0,255)" stroke-width="1.874998" fill="none" d="M 0.000000 750.000000 L 17.647058 0.000000 " />
<path stroke-linejoin="round" stroke-linecap="round" stroke="rgb(255,0,0)" stroke-width="3.749996" fill="none" d="M 15.151508 106.060715 L 21.428570 150.000122 " />
<path stroke-linejoin="round" stroke-linecap="round" stroke="rgb(0,0,255)" stroke-width="1.874998" fill="none" d="M 0.000000 750.000000 L 8.720934 0.000000 " />
<path stroke-linejoin="round" stroke-linecap="round" stroke="rgb(255,0,0)" stroke-width="3.749996" fill="none" d="M 8.064508 56.451782 L 15.151508 106.060715 " />
<path stroke-linejoin="round" stroke-linecap="round" stroke="rgb(0,0,255)" stroke-width="1.874998" fill="none" d="M 0.000000 750.000000 L 0.000000 0.000000 " />
<path stroke-linejoin="round" stroke-linecap="round" stroke="rgb(255,0,0)" stroke-width="3.749996" fill="none" d="M 0.000000 0.000000 L 8.064508 56.451782 " />
<circle cx="178.398058" cy="686.286405" r="3.749996" style="fill:rgb(0,127,0);stroke-width:1" /><circle cx="169.557407" cy="624.401920" r="3.749996" style="fill:rgb(0,127,0);stroke-width:1" /><circle cx="160.966963" cy="564.268872" r="3.749996" style="fill:rgb(0,127,0);stroke-width:1" /><circle cx="154.748909" cy="520.742364" r="3.749996" style="fill:rgb(0,127,0);stroke-width:1" /><circle cx="147.090510" cy="467.133634" r="3.749996" style="fill:rgb(0,127,0);stroke-width:1" /><circle cx="145.188063" cy="453.816377" r="3.749996" style="fill:rgb(0,127,0);stroke-width:1" /><circle cx="138.474762" cy="406.823449" r="3.749996" style="fill:rgb(0,127,0);stroke-width:1" /><circle cx="137.614667" cy="405.963354" r="3.749996" style="fill:rgb(0,127,0);stroke-width:1" /><circle cx="134.130746" cy="402.479433" r="3.749996" style="fill:rgb(0,127,0);stroke-width:1" /><circle cx="132.089406" cy="388.189919" r="3.749996" style="fill:rgb(0,127,0);stroke-width:1" /><circle cx="129.772022" cy="371.968433" r="3.749996" style="fill:rgb(0,127,0);stroke-width:1" /><circle cx="129.205361" cy="368.001580" r="3.749996" style="fill:rgb(0,127,0);stroke-width:1" /><circle cx="126.223147" cy="365.019411" r="3.749996" style="fill:rgb(0,127,0);stroke-width:1" /><circle cx="123.181611" cy="361.977875" r="3.749996" style="fill:rgb(0,127,0);stroke-width:1" /><circle cx="122.947723" cy="361.744031" r="3.749996" style="fill:rgb(0,127,0);stroke-width:1" /><circle cx="116.476804" cy="355.273113" r="3.749996" style="fill:rgb(0,127,0);stroke-width:1" /><circle cx="113.600805" cy="352.397159" r="3.749996" style="fill:rgb(0,127,0);stroke-width:1" /><circle cx="110.863432" cy="349.659786" r="3.749996" style="fill:rgb(0,127,0);stroke-width:1" /><circle cx="108.254895" cy="347.051203" r="3.749996" style="fill:rgb(0,127,0);stroke-width:1" /><circle cx="104.704365" cy="343.500674" r="3.749996" style="fill:rgb(0,127,0);stroke-width:1" /><circle cx="98.545298" cy="337.341562" r="3.749996" style="fill:rgb(0,127,0);stroke-width:1" /><circle cx="96.226573" cy="335.022837" r="3.749996" style="fill:rgb(0,127,0);stroke-width:1" /><circle cx="90.212435" cy="329.008698" r="3.749996" style="fill:rgb(0,127,0);stroke-width:1" /><circle cx="84.198251" cy="322.994515" r="3.749996" style="fill:rgb(0,127,0);stroke-width:1" /><circle cx="82.262680" cy="321.058944" r="3.749996" style="fill:rgb(0,127,0);stroke-width:1" /><circle cx="76.386765" cy="315.183029" r="3.749996" style="fill:rgb(0,127,0);stroke-width:1" /><circle cx="70.510849" cy="309.307113" r="3.749996" style="fill:rgb(0,127,0);stroke-width:1" /><circle cx="64.634956" cy="303.431198" r="3.749996" style="fill:rgb(0,127,0);stroke-width:1" /><circle cx="58.759063" cy="297.555327" r="3.749996" style="fill:rgb(0,127,0);stroke-width:1" /><circle cx="58.238402" cy="297.034666" r="3.749996" style="fill:rgb(0,127,0);stroke-width:1" /><circle cx="51.767461" cy="290.563747" r="3.749996" style="fill:rgb(0,127,0);stroke-width:1" /><circle cx="45.296542" cy="284.092784" r="3.749996" style="fill:rgb(0,127,0);stroke-width:1" /><circle cx="39.130434" cy="273.912996" r="3.749996" style="fill:rgb(0,127,0);stroke-width:1" /><circle cx="38.461536" cy="269.230753" r="3.749996" style="fill:rgb(0,127,0);stroke-width:1" /><circle cx="37.815124" cy="264.705867" r="3.749996" style="fill:rgb(0,127,0);stroke-width:1" /><circle cx="33.185832" cy="232.300937" r="3.749996" style="fill:rgb(0,127,0);stroke-width:1" /><circle cx="28.037377" cy="196.261749" r="3.749996" style="fill:rgb(0,127,0);stroke-width:1" /><circle cx="27.522929" cy="192.660615" r="3.749996" style="fill:rgb(0,127,0);stroke-width:1" /><circle cx="27.027011" cy="189.189300" r="3.749996" style="fill:rgb(0,127,0);stroke-width:1" /><circle cx="21.428570" cy="150.000125" r="3.749996" style="fill:rgb(0,127,0);stroke-width:1" /><circle cx="15.151508" cy="106.060714" r="3.749996" style="fill:rgb(0,127,0);stroke-width:1" /><circle cx="8.064508" cy="56.451783" r="3.749996" style="fill:rgb(0,127,0);stroke-width:1" /><circle cx="750.000000" cy="750.000000" r="3.749996" style="fill:rgb(0,127,0);stroke-width:1" /><path stroke-linejoin="round" stroke-linecap="round" stroke="rgb(255,255,255)" stroke-width="3.749996" fill="none" d="M 0.000000 750.000000 L 750.000000 750.000000 M 0.000000 750.000000 L 0.000000 0.000000 " />

</svg>