<svg xmlns="http://www.w3.org/2000/svg" version="1.1" width = "750" height = "750" viewBox = "0 0 750 750"  shape-rendering="crispEdges">
<path stroke-linejoin="round" stroke-linecap="round" stroke="rgb(255,255,0)" stroke-width="3.749996" fill="none" d="M 83.333328 750.000000 L 0.000000 0.000000 " />
<path stroke-linejoin="round" stroke-linecap="round" stroke="rgb(63,63,63)" stroke-width="3.749996" fill="none" d="M 0.000000 0.000000 L 750.000000 750.000000 M 83.333328 750.000000 L 39.215683 0.000000 " />
<path stroke-linejoin="round" stroke-linecap="round" stroke="rgb(191,191,191)" stroke-width="3.749996" fill="none" d="M 0.000000 666.666687 L 83.333328 750.000000 M 0.000000 0.000000 L 44.117645 750.000000 " />
<path stroke-linejoin="round" stroke-linecap="round" stroke="rgb(0,0,255)" stroke-width="1.874998" fill="none" d="M 0.000000 750.000000 L 750.000000 731.250000 " />
<path stroke-linejoin="round" stroke-linecap="round" stroke="rgb(255,0,0)" stroke-width="3.749996" fill="none" d="M 83.210976 747.919739 L 83.333328 750.000000 " />
<path stroke-linejoin="round" stroke-linecap="round" stroke="rgb(0,0,255)" stroke-width="1.874998" fill="none" d="M 0.000000 750.000000 L 750.000000 711.538452 " />
<path stroke-linejoin="round" stroke-linecap="round" stroke="rgb(255,0,0)" stroke-width="3.749996" fill="none" d="M 82.778023 745.754944 L 83.210953 747.919739 " />
<path stroke-linejoin="round" stroke-linecap="round" stroke="rgb(0,0,255)" stroke-width="1.874998" fill="none" d="M 0.000000 750.000000 L 750.000000 690.789490 " />
<path stroke-linejoin="round" stroke-linecap="round" stroke="rgb(255,0,0)" stroke-width="3.749996" fill="none" d="M 82.327118 743.500488 L 82.778023 745.754944 " />
<path stroke-linejoin="round" stroke-linecap="round" stroke="rgb(0,0,255)" stroke-width="1.874998" fill="none" d="M 0.000000 750.000000 L 750.000000 673.076904 " />
<path stroke-linejoin="round" stroke-linecap="round" stroke="rgb(255,0,0)" stroke-width="3.749996" fill="none" d="M 81.946068 741.595276 L 82.327095 743.500488 " />
<path stroke-linejoin="round" stroke-linecap="round" stroke="rgb(0,0,255)" stroke-width="1.874998" fill="none" d="M 0.000000 750.000000 L 750.000000 668.918945 " />
<path stroke-linejoin="round" stroke-linecap="round" stroke="rgb(255,0,0)" stroke-width="3.749996" fill="none" d="M 81.857132 741.150574 L 81.946068 741.595276 " />
<path stroke-linejoin="round" stroke-linecap="round" stroke="rgb(0,0,255)" stroke-width="1.874998" fill="none" d="M 0.000000 750.000000 L 750.000000 645.833313 " />
<path stroke-linejoin="round" stroke-linecap="round" stroke="rgb(255,0,0)" stroke-width="3.749996" fill="none" d="M 81.366821 738.699036 L 81.857132 741.150574 " />
<path stroke-linejoin="round" stroke-linecap="round" stroke="rgb(0,0,255)" stroke-width="1.874998" fill="none" d="M 0.000000 750.000000 L 750.000000 621.428589 " />
<path stroke-linejoin="round" stroke-linecap="round" stroke="rgb(255,0,0)" stroke-width="3.749996" fill="none" d="M 80.854836 736.139160 L 81.366821 738.699036 " />
<path stroke-linejoin="round" stroke-linecap="round" stroke="rgb(0,0,255)" stroke-width="1.874998" fill="none" d="M 0.000000 750.000000 L 750.000000 595.588196 " />
<path stroke-linejoin="round" stroke-linecap="round" stroke="rgb(255,0,0)" stroke-width="3.749996" fill="none" d="M 80.319733 733.463562 L 80.854836 736.139160 " />
<path stroke-linejoin="round" stroke-linecap="round" stroke="rgb(0,0,255)" stroke-width="1.874998" fill="none" d="M 0.000000 750.000000 L 750.000000 578.571411 " />
<path stroke-linejoin="round" stroke-linecap="round" stroke="rgb(255,0,0)" stroke-width="3.749996" fill="none" d="M 79.971176 731.720886 L 80.319710 733.463562 " />
<path stroke-linejoin="round" stroke-linecap="round" stroke="rgb(0,0,255)" stroke-width="1.874998" fill="none" d="M 0.000000 750.000000 L 750.000000 551.470581 " />
<path stroke-linejoin="round" stroke-linecap="round" stroke="rgb(255,0,0)" stroke-width="3.749996" fill="none" d="M 79.422287 728.976440 L 79.971176 731.720886 " />
<path stroke-linejoin="round" stroke-linecap="round" stroke="rgb(0,0,255)" stroke-width="1.874998" fill="none" d="M 0.000000 750.000000 L 750.000000 535.714294 " />
<path stroke-linejoin="round" stroke-linecap="round" stroke="rgb(255,0,0)" stroke-width="3.749996" fill="none" d="M 79.106636 727.398071 L 79.422287 728.976440 " />
<path stroke-linejoin="round" stroke-linecap="round" stroke="rgb(0,0,255)" stroke-width="1.874998" fill="none" d="M 0.000000 750.000000 L 750.000000 522.727295 " />
<path stroke-linejoin="round" stroke-linecap="round" stroke="rgb(255,0,0)" stroke-width="3.749996" fill="none" d="M 78.848320 726.106567 L 79.106636 727.398071 " />
<path stroke-linejoin="round" stroke-linecap="round" stroke="rgb(0,0,255)" stroke-width="1.874998" fill="none" d="M 0.000000 750.000000 L 750.000000 492.187500 " />
<path stroke-linejoin="round" stroke-linecap="round" stroke="rgb(255,0,0)" stroke-width="3.749996" fill="none" d="M 78.247482 723.102478 L 78.848320 726.106567 " />
<path stroke-linejoin="round" stroke-linecap="round" stroke="rgb(0,0,255)" stroke-width="1.874998" fill="none" d="M 0.000000 750.000000 L 750.000000 477.272705 " />
<path stroke-linejoin="round" stroke-linecap="round" stroke="rgb(255,0,0)" stroke-width="3.749996" fill="none" d="M 77.957352 721.651855 L 78.247482 723.102478 " />
<path stroke-linejoin="round" stroke-linecap="round" stroke="rgb(0,0,255)" stroke-width="1.874998" fill="none" d="M 0.000000 750.000000 L 750.000000 459.677429 " />
<path stroke-linejoin="round" stroke-linecap="round" stroke="rgb(255,0,0)" stroke-width="3.749996" fill="none" d="M 77.617851 719.954407 L 77.957352 721.651855 " />
<path stroke-linejoin="round" stroke-linecap="round" stroke="rgb(0,0,255)" stroke-width="1.874998" fill="none" d="M 0.000000 750.000000 L 750.000000 425.000000 " />
<path stroke-linejoin="round" stroke-linecap="round" stroke="rgb(255,0,0)" stroke-width="3.749996" fill="none" d="M 76.957336 716.651855 L 77.617851 719.954407 " />
<path stroke-linejoin="round" stroke-linecap="round" stroke="rgb(0,0,255)" stroke-width="1.874998" fill="none" d="M 0.000000 750.000000 L 750.000000 411.290344 " />
<path stroke-linejoin="round" stroke-linecap="round" stroke="rgb(255,0,0)" stroke-width="3.749996" fill="none" d="M 76.699310 715.361572 L 76.957336 716.651855 " />
<path stroke-linejoin="round" stroke-linecap="round" stroke="rgb(0,0,255)" stroke-width="1.874998" fill="none" d="M 0.000000 750.000000 L 750.000000 375.000000 " />
<path stroke-linejoin="round" stroke-linecap="round" stroke="rgb(255,0,0)" stroke-width="3.749996" fill="none" d="M 76.024536 711.987732 L 76.699310 715.361572 " />
<path stroke-linejoin="round" stroke-linecap="round" stroke="rgb(0,0,255)" stroke-width="1.874998" fill="none" d="M 0.000000 750.000000 L 750.000000 103.448288 " />
<path stroke-linejoin="round" stroke-linecap="round" stroke="rgb(255,0,0)" stroke-width="3.749996" fill="none" d="M 74.038826 686.173462 L 76.024536 711.987732 " />
<path stroke-linejoin="round" stroke-linecap="round" stroke="rgb(0,0,255)" stroke-width="1.874998" fill="none" d="M 0.000000 750.000000 L 600.000000 0.000000 " />
<path stroke-linejoin="round" stroke-linecap="round" stroke="rgb(255,0,0)" stroke-width="3.749996" fill="none" d="M 72.023232 659.970947 L 74.038826 686.173462 " />
<path stroke-linejoin="round" stroke-linecap="round" stroke="rgb(0,0,255)" stroke-width="1.874998" fill="none" d="M 0.000000 750.000000 L 450.000031 0.000000 " />
<path stroke-linejoin="round" stroke-linecap="round" stroke="rgb(255,0,0)" stroke-width="3.749996" fill="none" d="M 69.977135 633.371460 L 72.023232 659.970947 " />
<path stroke-linejoin="round" stroke-linecap="round" stroke="rgb(0,0,255)" stroke-width="1.874998" fill="none" d="M 0.000000 750.000000 L 354.545441 0.000000 " />
<path stroke-linejoin="round" stroke-linecap="round" stroke="rgb(255,0,0)" stroke-width="3.749996" fill="none" d="M 67.899765 606.365845 L 69.977135 633.371460 " />
<path stroke-linejoin="round" stroke-linecap="round" stroke="rgb(0,0,255)" stroke-width="1.874998" fill="none" d="M 0.000000 750.000000 L 288.461548 0.000000 " />
<path stroke-linejoin="round" stroke-linecap="round" stroke="rgb(255,0,0)" stroke-width="3.749996" fill="none" d="M 65.790451 578.944824 L 67.899765 606.365845 " />
<path stroke-linejoin="round" stroke-linecap="round" stroke="rgb(0,0,255)" stroke-width="1.874998" fill="none" d="M 0.000000 750.000000 L 240.000000 0.000000 " />
<path stroke-linejoin="round" stroke-linecap="round" stroke="rgb(255,0,0)" stroke-width="3.749996" fill="none" d="M 63.648441 551.098633 L 65.790451 578.944824 " />
<path stroke-linejoin="round" stroke-linecap="round" stroke="rgb(0,0,255)" stroke-width="1.874998" fill="none" d="M 0.000000 750.000000 L 220.588226 0.000000 " />
<path stroke-linejoin="round" stroke-linecap="round" stroke="rgb(255,0,0)" stroke-width="3.749996" fill="none" d="M 62.581165 537.223999 L 63.648441 551.098633 " />
<path stroke-linejoin="round" stroke-linecap="round" stroke="rgb(0,0,255)" stroke-width="1.874998" fill="none" d="M 0.000000 750.000000 L 189.473679 0.000000 " />
<path stroke-linejoin="round" stroke-linecap="round" stroke="rgb(255,0,0)" stroke-width="3.749996" fill="none" d="M 60.520737 510.438690 L 62.581165 537.223999 " />
<path stroke-linejoin="round" stroke-linecap="round" stroke="rgb(0,0,255)" stroke-width="1.874998" fill="none" d="M 0.000000 750.000000 L 178.571442 0.000000 " />
<path stroke-linejoin="round" stroke-linecap="round" stroke="rgb(255,0,0)" stroke-width="3.749996" fill="none" d="M 59.670410 499.384308 L 60.520737 510.438721 " />
<path stroke-linejoin="round" stroke-linecap="round" stroke="rgb(0,0,255)" stroke-width="1.874998" fill="none" d="M 0.000000 750.000000 L 164.285706 0.000000 " />
<path stroke-linejoin="round" stroke-linecap="round" stroke="rgb(255,0,0)" stroke-width="3.749996" fill="none" d="M 58.429733 483.255554 L 59.670387 499.384369 " />
<path stroke-linejoin="round" stroke-linecap="round" stroke="rgb(0,0,255)" stroke-width="1.874998" fill="none" d="M 0.000000 750.000000 L 143.478271 0.000000 " />
<path stroke-linejoin="round" stroke-linecap="round" stroke="rgb(255,0,0)" stroke-width="3.749996" fill="none" d="M 56.307434 455.665680 L 58.429733 483.255554 " />
<path stroke-linejoin="round" stroke-linecap="round" stroke="rgb(0,0,255)" stroke-width="1.874998" fill="none" d="M 0.000000 750.000000 L 138.000015 0.000000 " />
<path stroke-linejoin="round" stroke-linecap="round" stroke="rgb(255,0,0)" stroke-width="3.749996" fill="none" d="M 55.673607 447.426025 L 56.307434 455.665680 " />
<path stroke-linejoin="round" stroke-linecap="round" stroke="rgb(0,0,255)" stroke-width="1.874998" fill="none" d="M 0.000000 750.000000 L 126.168205 0.000000 " />
<path stroke-linejoin="round" stroke-linecap="round" stroke="rgb(255,0,0)" stroke-width="3.749996" fill="none" d="M 54.175816 427.954865 L 55.673607 447.426025 " />
<path stroke-linejoin="round" stroke-linecap="round" stroke="rgb(0,0,255)" stroke-width="1.874998" fill="none" d="M 0.000000 750.000000 L 121.794861 0.000000 " />
<path stroke-linejoin="round" stroke-linecap="round" stroke="rgb(255,0,0)" stroke-width="3.749996" fill="none" d="M 53.572208 420.107910 L 54.175816 427.954865 " />
<path stroke-linejoin="round" stroke-linecap="round" stroke="rgb(0,0,255)" stroke-width="1.874998" fill="none" d="M 0.000000 750.000000 L 120.967758 0.000000 " />
<path stroke-linejoin="round" stroke-linecap="round" stroke="rgb(255,0,0)" stroke-width="3.749996" fill="none" d="M 53.454727 418.580658 L 53.572208 420.107910 " />
<path stroke-linejoin="round" stroke-linecap="round" stroke="rgb(0,0,255)" stroke-width="1.874998" fill="none" d="M 0.000000 750.000000 L 101.851837 0.000000 " />
<path stroke-linejoin="round" stroke-linecap="round" stroke="rgb(255,0,0)" stroke-width="3.749996" fill="none" d="M 50.400181 378.871460 L 53.454727 418.580719 " />
<path stroke-linejoin="round" stroke-linecap="round" stroke="rgb(0,0,255)" stroke-width="1.874998" fill="none" d="M 0.000000 750.000000 L 82.417580 0.000000 " />
<path stroke-linejoin="round" stroke-linecap="round" stroke="rgb(255,0,0)" stroke-width="3.749996" fill="none" d="M 46.440304 327.393188 L 50.400181 378.871460 " />
<path stroke-linejoin="round" stroke-linecap="round" stroke="rgb(0,0,255)" stroke-width="1.874998" fill="none" d="M 0.000000 750.000000 L 81.683167 0.000000 " />
<path stroke-linejoin="round" stroke-linecap="round" stroke="rgb(255,0,0)" stroke-width="3.749996" fill="none" d="M 46.269020 325.166351 L 46.440304 327.393188 " />
<path stroke-linejoin="round" stroke-linecap="round" stroke="rgb(0,0,255)" stroke-width="1.874998" fill="none" d="M 0.000000 750.000000 L 80.645149 0.000000 " />
<path stroke-linejoin="round" stroke-linecap="round" stroke="rgb(255,0,0)" stroke-width="3.749996" fill="none" d="M 45.886627 323.254364 L 46.269020 325.166351 " />
<path stroke-linejoin="round" stroke-linecap="round" stroke="rgb(0,0,255)" stroke-width="1.874998" fill="none" d="M 0.000000 750.000000 L 72.115395 0.000000 " />
<path stroke-linejoin="round" stroke-linecap="round" stroke="rgb(255,0,0)" stroke-width="3.749996" fill="none" d="M 43.729549 295.212616 L 45.886627 323.254425 " />
<path stroke-linejoin="round" stroke-linecap="round" stroke="rgb(0,0,255)" stroke-width="1.874998" fill="none" d="M 0.000000 750.000000 L 67.567574 0.000000 " />
<path stroke-linejoin="round" stroke-linecap="round" stroke="rgb(255,0,0)" stroke-width="3.749996" fill="none" d="M 42.459412 278.700592 L 43.729549 295.212616 " />
<path stroke-linejoin="round" stroke-linecap="round" stroke="rgb(0,0,255)" stroke-width="1.874998" fill="none" d="M 0.000000 750.000000 L 65.789467 0.000000 " />
<path stroke-linejoin="round" stroke-linecap="round" stroke="rgb(255,0,0)" stroke-width="3.749996" fill="none" d="M 41.937366 271.914032 L 42.459412 278.700592 " />
<path stroke-linejoin="round" stroke-linecap="round" stroke="rgb(0,0,255)" stroke-width="1.874998" fill="none" d="M 0.000000 750.000000 L 63.025208 0.000000 " />
<path stroke-linejoin="round" stroke-linecap="round" stroke="rgb(255,0,0)" stroke-width="3.749996" fill="none" d="M 41.095242 260.966553 L 41.937366 271.914032 " />
<path stroke-linejoin="round" stroke-linecap="round" stroke="rgb(0,0,255)" stroke-width="1.874998" fill="none" d="M 0.000000 750.000000 L 60.810818 0.000000 " />
<path stroke-linejoin="round" stroke-linecap="round" stroke="rgb(255,0,0)" stroke-width="3.749996" fill="none" d="M 40.392303 251.828217 L 41.095242 260.966553 " />
<path stroke-linejoin="round" stroke-linecap="round" stroke="rgb(0,0,255)" stroke-width="1.874998" fill="none" d="M 0.000000 750.000000 L 55.327869 0.000000 " />
<path stroke-linejoin="round" stroke-linecap="round" stroke="rgb(255,0,0)" stroke-width="3.749996" fill="none" d="M 38.533241 227.660492 L 40.392303 251.828217 " />
<path stroke-linejoin="round" stroke-linecap="round" stroke="rgb(0,0,255)" stroke-width="1.874998" fill="none" d="M 0.000000 750.000000 L 55.045856 0.000000 " />
<path stroke-linejoin="round" stroke-linecap="round" stroke="rgb(255,0,0)" stroke-width="3.749996" fill="none" d="M 38.389565 226.942200 L 38.533241 227.660492 " />
<path stroke-linejoin="round" stroke-linecap="round" stroke="rgb(0,0,255)" stroke-width="1.874998" fill="none" d="M 0.000000 750.000000 L 52.173904 0.000000 " />
<path stroke-linejoin="round" stroke-linecap="round" stroke="rgb(255,0,0)" stroke-width="3.749996" fill="none" d="M 36.903507 219.511948 L 38.389565 226.942200 " />
<path stroke-linejoin="round" stroke-linecap="round" stroke="rgb(0,0,255)" stroke-width="1.874998" fill="none" d="M 0.000000 750.000000 L 51.282047 0.000000 " />
<path stroke-linejoin="round" stroke-linecap="round" stroke="rgb(255,0,0)" stroke-width="3.749996" fill="none" d="M 36.433407 217.161438 L 36.903507 219.511948 " />
<path stroke-linejoin="round" stroke-linecap="round" stroke="rgb(0,0,255)" stroke-width="1.874998" fill="none" d="M 0.000000 750.000000 L 50.420166 0.000000 " />
<path stroke-linejoin="round" stroke-linecap="round" stroke="rgb(255,0,0)" stroke-width="3.749996" fill="none" d="M 35.975128 214.870026 L 36.433407 217.161438 " />
<path stroke-linejoin="round" stroke-linecap="round" stroke="rgb(0,0,255)" stroke-width="1.874998" fill="none" d="M 0.000000 750.000000 L 49.586781 0.000000 " />
<path stroke-linejoin="round" stroke-linecap="round" stroke="rgb(255,0,0)" stroke-width="3.749996" fill="none" d="M 35.528229 212.635513 L 35.975128 214.870026 " />
<path stroke-linejoin="round" stroke-linecap="round" stroke="rgb(0,0,255)" stroke-width="1.874998" fill="none" d="M 0.000000 750.000000 L 48.780487 0.000000 " />
<path stroke-linejoin="round" stroke-linecap="round" stroke="rgb(255,0,0)" stroke-width="3.749996" fill="none" d="M 35.092300 210.455902 L 35.528229 212.635513 " />
<path stroke-linejoin="round" stroke-linecap="round" stroke="rgb(0,0,255)" stroke-width="1.874998" fill="none" d="M 0.000000 750.000000 L 48.000008 0.000000 " />
<path stroke-linejoin="round" stroke-linecap="round" stroke="rgb(255,0,0)" stroke-width="3.749996" fill="none" d="M 34.666946 208.329056 L 35.092300 210.455902 " />
<path stroke-linejoin="round" stroke-linecap="round" stroke="rgb(0,0,255)" stroke-width="1.874998" fill="none" d="M 0.000000 750.000000 L 47.244095 0.000000 " />
<path stroke-linejoin="round" stroke-linecap="round" stroke="rgb(255,0,0)" stroke-width="3.749996" fill="none" d="M 34.251766 206.253204 L 34.666946 208.329056 " />
<path stroke-linejoin="round" stroke-linecap="round" stroke="rgb(0,0,255)" stroke-width="1.874998" fill="none" d="M 0.000000 750.000000 L 46.511627 0.000000 " />
<path stroke-linejoin="round" stroke-linecap="round" stroke="rgb(255,0,0)" stroke-width="3.749996" fill="none" d="M 33.846416 204.226486 L 34.251766 206.253204 " />
<path stroke-linejoin="round" stroke-linecap="round" stroke="rgb(0,0,255)" stroke-width="1.874998" fill="none" d="M 0.000000 750.000000 L 45.801537 0.000000 " />
<path stroke-linejoin="round" stroke-linecap="round" stroke="rgb(255,0,0)" stroke-width="3.749996" fill="none" d="M 33.450542 202.247192 L 33.846416 204.226486 " />
<path stroke-linejoin="round" stroke-linecap="round" stroke="rgb(0,0,255)" stroke-width="1.874998" fill="none" d="M 0.000000 750.000000 L 45.112789 0.000000 " />
<path stroke-linejoin="round" stroke-linecap="round" stroke="rgb(255,0,0)" stroke-width="3.749996" fill="none" d="M 33.063835 200.313644 L 33.450542 202.247192 " />
<path stroke-linejoin="round" stroke-linecap="round" stroke="rgb(0,0,255)" stroke-width="1.874998" fill="none" d="M 0.000000 750.000000 L 36.971836 0.000000 " />
<path stroke-linejoin="round" stroke-linecap="round" stroke="rgb(255,0,0)" stroke-width="3.749996" fill="none" d="M 29.427521 153.041565 L 33.063835 200.313644 " />
<path stroke-linejoin="round" stroke-linecap="round" stroke="rgb(0,0,255)" stroke-width="1.874998" fill="none" d="M 0.000000 750.000000 L 29.605263 0.000000 " />
<path stroke-linejoin="round" stroke-linecap="round" stroke="rgb(255,0,0)" stroke-width="3.749996" fill="none" d="M 25.552601 102.667564 L 29.427521 153.041565 " />
<path stroke-linejoin="round" stroke-linecap="round" stroke="rgb(0,0,255)" stroke-width="1.874998" fill="none" d="M 0.000000 750.000000 L 29.220789 0.000000 " />
<path stroke-linejoin="round" stroke-linecap="round" stroke="rgb(255,0,0)" stroke-width="3.749996" fill="none" d="M 25.332325 99.803879 L 25.552601 102.667564 " />
<path stroke-linejoin="round" stroke-linecap="round" stroke="rgb(0,0,255)" stroke-width="1.874998" fill="none" d="M 0.000000 750.000000 L 27.950317 0.000000 " />
<path stroke-linejoin="round" stroke-linecap="round" stroke="rgb(255,0,0)" stroke-width="3.749996" fill="none" d="M 24.590359 90.158501 L 25.332325 99.803810 " />
<path stroke-linejoin="round" stroke-linecap="round" stroke="rgb(0,0,255)" stroke-width="1.874998" fill="none" d="M 0.000000 750.000000 L 27.777784 0.000000 " />
<path stroke-linejoin="round" stroke-linecap="round" stroke="rgb(255,0,0)" stroke-width="3.749996" fill="none" d="M 24.462282 89.518097 L 24.590359 90.158501 " />
<path stroke-linejoin="round" stroke-linecap="round" stroke="rgb(0,0,255)" stroke-width="1.874998" fill="none" d="M 0.000000 750.000000 L 22.058823 0.000000 " />
<path stroke-linejoin="round" stroke-linecap="round" stroke="rgb(255,0,0)" stroke-width="3.749996" fill="none" d="M 20.071619 67.564804 L 24.462282 89.518097 " />
<path stroke-linejoin="round" stroke-linecap="round" stroke="rgb(0,0,255)" stroke-width="1.874998" fill="none" d="M 0.000000 750.000000 L 21.739124 0.000000 " />
<path stroke-linejoin="round" stroke-linecap="round" stroke="rgb(255,0,0)" stroke-width="3.749996" fill="none" d="M 19.817547 66.294441 L 20.071619 67.564804 " />
<path stroke-linejoin="round" stroke-linecap="round" stroke="rgb(0,0,255)" stroke-width="1.874998" fill="none" d="M 0.000000 750.000000 L 21.428570 0.000000 " />
<path stroke-linejoin="round" stroke-linecap="round" stroke="rgb(255,0,0)" stroke-width="3.749996" fill="none" d="M 19.569843 65.055840 L 19.817547 66.294350 " />
<path stroke-linejoin="round" stroke-linecap="round" stroke="rgb(0,0,255)" stroke-width="1.874998" fill="none" d="M 0.000000 750.000000 L 18.518507 0.000000 " />
<path stroke-linejoin="round" stroke-linecap="round" stroke="rgb(255,0,0)" stroke-width="3.749996" fill="none" d="M 17.557985 38.901642 L 19.569843 65.055687 " />
<path stroke-linejoin="round" stroke-linecap="round" stroke="rgb(0,0,255)" stroke-width="1.874998" fill="none" d="M 0.000000 750.000000 L 17.441868 0.000000 " />
<path stroke-linejoin="round" stroke-linecap="round" stroke="rgb(255,0,0)" stroke-width="3.749996" fill="none" d="M 16.774155 28.711706 L 17.557985 38.901642 " />
<path stroke-linejoin="round" stroke-linecap="round" stroke="rgb(0,0,255)" stroke-width="1.874998" fill="none" d="M 0.000000 750.000000 L 16.574577 0.000000 " />
<path stroke-linejoin="round" stroke-linecap="round" stroke="rgb(255,0,0)" stroke-width="3.749996" fill="none" d="M 16.126223 20.288631 L 16.774155 28.711639 " />
<path stroke-linejoin="round" stroke-linecap="round" stroke="rgb(0,0,255)" stroke-width="1.874998" fill="none" d="M 0.000000 750.000000 L 16.483515 0.000000 " />
<path stroke-linejoin="round" stroke-linecap="round" stroke="rgb(255,0,0)" stroke-width="3.749996" fill="none" d="M 16.057312 19.392639 L 16.126223 20.288631 " />
<path stroke-linejoin="round" stroke-linecap="round" stroke="rgb(0,0,255)" stroke-width="1.874998" fill="none" d="M 0.000000 750.000000 L 16.393438 0.000000 " />
<path stroke-linejoin="round" stroke-linecap="round" stroke="rgb(255,0,0)" stroke-width="3.749996" fill="none" d="M 15.988983 18.504381 L 16.057312 19.392639 " />
<path stroke-linejoin="round" stroke-linecap="round" stroke="rgb(0,0,255)" stroke-width="1.874998" fill="none" d="M 0.000000 750.000000 L 15.789472 0.000000 " />
<path stroke-linejoin="round" stroke-linecap="round" stroke="rgb(255,0,0)" stroke-width="3.749996" fill="none" d="M 15.451849 16.037308 L 15.988983 18.504381 " />
<path stroke-linejoin="round" stroke-linecap="round" stroke="rgb(0,0,255)" stroke-width="1.874998" fill="none" d="M 0.000000 750.000000 L 15.625008 0.000000 " />
<path stroke-linejoin="round" stroke-linecap="round" stroke="rgb(255,0,0)" stroke-width="3.749996" fill="none" d="M 15.303299 15.441187 L 15.451849 16.037308 " />
<path stroke-linejoin="round" stroke-linecap="round" stroke="rgb(0,0,255)" stroke-width="1.874998" fill="none" d="M 0.000000 750.000000 L 14.705881 0.000000 " />
<path stroke-linejoin="round" stroke-linecap="round" stroke="rgb(255,0,0)" stroke-width="3.749996" fill="none" d="M 14.421098 14.524385 L 15.303299 15.441187 " />
<path stroke-linejoin="round" stroke-linecap="round" stroke="rgb(0,0,255)" stroke-width="1.874998" fill="none" d="M 0.000000 750.000000 L 9.740263 0.000000 " />
<path stroke-linejoin="round" stroke-linecap="round" stroke="rgb(255,0,0)" stroke-width="3.749996" fill="none" d="M 9.614401 9.691805 L 14.421098 14.524385 " />
<path stroke-linejoin="round" stroke-linecap="round" stroke="rgb(0,0,255)" stroke-width="1.874998" fill="none" d="M 0.000000 750.000000 L 4.573166 0.000000 " />
<path stroke-linejoin="round" stroke-linecap="round" stroke="rgb(255,0,0)" stroke-width="3.749996" fill="none" d="M 4.545339 4.564672 L 9.614401 9.691715 " />
<path stroke-linejoin="round" stroke-linecap="round" stroke="rgb(0,0,255)" stroke-width="1.874998" fill="none" d="M 0.000000 750.000000 L 0.000000 0.000000 " />
<path stroke-linejoin="round" stroke-linecap="round" stroke="rgb(255,0,0)" stroke-width="3.749996" fill="none" d="M 0.000000 0.000000 L 4.545339 4.564672 " />
<circle cx="83.210975" cy="747.919723" r="3.749996" style="fill:rgb(0,127,0);stroke-width:1" /><circle cx="82.778022" cy="745.754980" r="3.749996" style="fill:rgb(0,127,0);stroke-width:1" /><circle cx="82.327120" cy="743.500493" r="3.749996" style="fill:rgb(0,127,0);stroke-width:1" /><circle cx="81.946068" cy="741.595276" r="3.749996" style="fill:rgb(0,127,0);stroke-width:1" /><circle cx="81.857130" cy="741.150588" r="3.749996" style="fill:rgb(0,127,0);stroke-width:1" /><circle cx="81.366822" cy="738.699049" r="3.749996" style="fill:rgb(0,127,0);stroke-width:1" /><circle cx="80.854833" cy="736.139171" r="3.749996" style="fill:rgb(0,127,0);stroke-width:1" /><circle cx="80.319732" cy="733.463578" r="3.749996" style="fill:rgb(0,127,0);stroke-width:1" /><circle cx="79.971179" cy="731.720880" r="3.749996" style="fill:rgb(0,127,0);stroke-width:1" /><circle cx="79.422288" cy="728.976443" r="3.749996" style="fill:rgb(0,127,0);stroke-width:1" /><circle cx="79.106636" cy="727.398098" r="3.749996" style="fill:rgb(0,127,0);stroke-width:1" /><circle cx="78.848317" cy="726.106569" r="3.749996" style="fill:rgb(0,127,0);stroke-width:1" /><circle cx="78.247480" cy="723.102428" r="3.749996" style="fill:rgb(0,127,0);stroke-width:1" /><circle cx="77.957354" cy="721.651867" r="3.749996" style="fill:rgb(0,127,0);stroke-width:1" /><circle cx="77.617854" cy="719.954386" r="3.749996" style="fill:rgb(0,127,0);stroke-width:1" /><circle cx="76.957338" cy="716.651827" r="3.749996" style="fill:rgb(0,127,0);stroke-width:1" /><circle cx="76.699309" cy="715.361595" r="3.749996" style="fill:rgb(0,127,0);stroke-width:1" /><circle cx="76.024532" cy="711.987734" r="3.749996" style="fill:rgb(0,127,0);stroke-width:1" /><circle cx="74.038826" cy="686.173439" r="3.749996" style="fill:rgb(0,127,0);stroke-width:1" /><circle cx="72.023235" cy="659.970939" r="3.749996" style="fill:rgb(0,127,0);stroke-width:1" /><circle cx="69.977134" cy="633.371450" r="3.749996" style="fill:rgb(0,127,0);stroke-width:1" /><circle cx="67.899764" cy="606.365874" r="3.749996" style="fill:rgb(0,127,0);stroke-width:1" /><circle cx="65.790452" cy="578.944802" r="3.749996" style="fill:rgb(0,127,0);stroke-width:1" /><circle cx="63.648440" cy="551.098622" r="3.749996" style="fill:rgb(0,127,0);stroke-width:1" /><circle cx="62.581167" cy="537.224036" r="3.749996" style="fill:rgb(0,127,0);stroke-width:1" /><circle cx="60.520738" cy="510.438703" r="3.749996" style="fill:rgb(0,127,0);stroke-width:1" /><circle cx="59.670411" cy="499.384325" r="3.749996" style="fill:rgb(0,127,0);stroke-width:1" /><circle cx="58.429733" cy="483.255565" r="3.749996" style="fill:rgb(0,127,0);stroke-width:1" /><circle cx="56.307435" cy="455.665687" r="3.749996" style="fill:rgb(0,127,0);stroke-width:1" /><circle cx="55.673607" cy="447.426042" r="3.749996" style="fill:rgb(0,127,0);stroke-width:1" /><circle cx="54.175816" cy="427.954830" r="3.749996" style="fill:rgb(0,127,0);stroke-width:1" /><circle cx="53.572208" cy="420.107922" r="3.749996" style="fill:rgb(0,127,0);stroke-width:1" /><circle cx="53.454727" cy="418.580672" r="3.749996" style="fill:rgb(0,127,0);stroke-width:1" /><circle cx="50.400183" cy="378.871441" r="3.749996" style="fill:rgb(0,127,0);stroke-width:1" /><circle cx="46.440303" cy="327.393176" r="3.749996" style="fill:rgb(0,127,0);stroke-width:1" /><circle cx="46.269022" cy="325.166345" r="3.749996" style="fill:rgb(0,127,0);stroke-width:1" /><circle cx="45.886628" cy="323.254388" r="3.749996" style="fill:rgb(0,127,0);stroke-width:1" /><circle cx="43.729551" cy="295.212625" r="3.749996" style="fill:rgb(0,127,0);stroke-width:1" /><circle cx="42.459413" cy="278.700594" r="3.749996" style="fill:rgb(0,127,0);stroke-width:1" /><circle cx="41.937366" cy="271.914046" r="3.749996" style="fill:rgb(0,127,0);stroke-width:1" /><circle cx="41.095242" cy="260.966543" r="3.749996" style="fill:rgb(0,127,0);stroke-width:1" /><circle cx="40.392302" cy="251.828235" r="3.749996" style="fill:rgb(0,127,0);stroke-width:1" /><circle cx="38.533241" cy="227.660492" r="3.749996" style="fill:rgb(0,127,0);stroke-width:1" /><circle cx="38.389564" cy="226.942185" r="3.749996" style="fill:rgb(0,127,0);stroke-width:1" /><circle cx="36.903508" cy="219.511941" r="3.749996" style="fill:rgb(0,127,0);stroke-width:1" /><circle cx="36.433406" cy="217.161421" r="3.749996" style="fill:rgb(0,127,0);stroke-width:1" /><circle cx="35.975128" cy="214.870021" r="3.749996" style="fill:rgb(0,127,0);stroke-width:1" /><circle cx="35.528228" cy="212.635517" r="3.749996" style="fill:rgb(0,127,0);stroke-width:1" /><circle cx="35.092302" cy="210.455898" r="3.749996" style="fill:rgb(0,127,0);stroke-width:1" /><circle cx="34.666948" cy="208.329041" r="3.749996" style="fill:rgb(0,127,0);stroke-width:1" /><circle cx="34.251764" cy="206.253212" r="3.749996" style="fill:rgb(0,127,0);stroke-width:1" /><circle cx="33.846416" cy="204.226490" r="3.749996" style="fill:rgb(0,127,0);stroke-width:1" /><circle cx="33.450544" cy="202.247187" r="3.749996" style="fill:rgb(0,127,0);stroke-width:1" /><circle cx="33.063836" cy="200.313650" r="3.749996" style="fill:rgb(0,127,0);stroke-width:1" /><circle cx="29.427521" cy="153.041571" r="3.749996" style="fill:rgb(0,127,0);stroke-width:1" /><circle cx="25.552601" cy="102.667563" r="3.749996" style="fill:rgb(0,127,0);stroke-width:1" /><circle cx="25.332324" cy="99.803880" r="3.749996" style="fill:rgb(0,127,0);stroke-width:1" /><circle cx="24.590358" cy="90.158500" r="3.749996" style="fill:rgb(0,127,0);stroke-width:1" /><circle cx="24.462283" cy="89.518100" r="3.749996" style="fill:rgb(0,127,0);stroke-width:1" /><circle cx="20.071618" cy="67.564800" r="3.749996" style="fill:rgb(0,127,0);stroke-width:1" /><circle cx="19.817546" cy="66.294439" r="3.749996" style="fill:rgb(0,127,0);stroke-width:1" /><circle cx="19.569844" cy="65.055840" r="3.749996" style="fill:rgb(0,127,0);stroke-width:1" /><circle cx="17.557986" cy="38.901642" r="3.749996" style="fill:rgb(0,127,0);stroke-width:1" /><circle cx="16.774155" cy="28.711706" r="3.749996" style="fill:rgb(0,127,0);stroke-width:1" /><circle cx="16.126223" cy="20.288631" r="3.749996" style="fill:rgb(0,127,0);stroke-width:1" /><circle cx="16.057312" cy="19.392639" r="3.749996" style="fill:rgb(0,127,0);stroke-width:1" /><circle cx="15.988983" cy="18.504381" r="3.749996" style="fill:rgb(0,127,0);stroke-width:1" /><circle cx="15.451849" cy="16.037308" r="3.749996" style="fill:rgb(0,127,0);stroke-width:1" /><circle cx="15.303299" cy="15.441187" r="3.749996" style="fill:rgb(0,127,0);stroke-width:1" /><circle cx="14.421098" cy="14.524385" r="3.749996" style="fill:rgb(0,127,0);stroke-width:1" /><circle cx="9.614401" cy="9.691805" r="3.749996" style="fill:rgb(0,127,0);stroke-width:1" /><circle cx="4.545338" cy="4.564673" r="3.749996" style="fill:rgb(0,127,0);stroke-width:1" /><circle cx="750.000000" cy="750.000000" r="3.749996" style="fill:rgb(0,127,0);stroke-width:1" /><path stroke-linejoin="round" stroke-linecap="round" stroke="rgb(255,255,255)" stroke-width="3.749996" fill="none" d="M 0.000000 750.000000 L 750.000000 750.000000 M 0.000000 750.000000 L 0.000000 0.000000 " />

</svg>