<svg xmlns="http://www.w3.org/2000/svg" version="1.1" width = "750" height = "750" viewBox = "0 0 750 750"  shape-rendering="crispEdges">
<path stroke-linejoin="round" stroke-linecap="round" stroke="rgb(255,255,0)" stroke-width="3.749996" fill="none" d="M 375.000000 750.000000 L 0.000000 0.000000 " />
<path stroke-linejoin="round" stroke-linecap="round" stroke="rgb(63,63,63)" stroke-width="3.749996" fill="none" d="M 0.000000 0.000000 L 750.000000 750.000000 M 375.000000 750.000000 L 124.999992 0.000000 " />
<path stroke-linejoin="round" stroke-linecap="round" stroke="rgb(191,191,191)" stroke-width="3.749996" fill="none" d="M 0.000000 375.000000 L 375.000000 750.000000 M 0.000000 0.000000 L 250.000000 750.000000 " />
<path stroke-linejoin="round" stroke-linecap="round" stroke="rgb(0,0,255)" stroke-width="1.874998" fill="none" d="M 0.000000 750.000000 L 750.000000 529.411743 " />
<path stroke-linejoin="round" stroke-linecap="round" stroke="rgb(255,0,0)" stroke-width="3.749996" fill="none" d="M 341.517853 649.553589 L 375.000000 750.000000 " />
<path stroke-linejoin="round" stroke-linecap="round" stroke="rgb(0,0,255)" stroke-width="1.874998" fill="none" d="M 0.000000 750.000000 L 750.000000 295.454529 " />
<path stroke-linejoin="round" stroke-linecap="round" stroke="rgb(255,0,0)" stroke-width="3.749996" fill="none" d="M 311.974792 560.924377 L 341.517853 649.553589 " />
<path stroke-linejoin="round" stroke-linecap="round" stroke="rgb(0,0,255)" stroke-width="1.874998" fill="none" d="M 0.000000 750.000000 L 750.000000 46.875000 " />
<path stroke-linejoin="round" stroke-linecap="round" stroke="rgb(255,0,0)" stroke-width="3.749996" fill="none" d="M 285.714294 482.142853 L 311.974792 560.924377 " />
<path stroke-linejoin="round" stroke-linecap="round" stroke="rgb(0,0,255)" stroke-width="1.874998" fill="none" d="M 0.000000 750.000000 L 581.250000 0.000000 " />
<path stroke-linejoin="round" stroke-linecap="round" stroke="rgb(255,0,0)" stroke-width="3.749996" fill="none" d="M 262.218048 411.654144 L 285.714294 482.142853 " />
<path stroke-linejoin="round" stroke-linecap="round" stroke="rgb(0,0,255)" stroke-width="1.874998" fill="none" d="M 0.000000 750.000000 L 450.000031 0.000000 " />
<path stroke-linejoin="round" stroke-linecap="round" stroke="rgb(255,0,0)" stroke-width="3.749996" fill="none" d="M 241.071426 348.214294 L 262.218048 411.654144 " />
<path stroke-linejoin="round" stroke-linecap="round" stroke="rgb(0,0,255)" stroke-width="1.874998" fill="none" d="M 0.000000 750.000000 L 387.500031 0.000000 " />
<path stroke-linejoin="round" stroke-linecap="round" stroke="rgb(255,0,0)" stroke-width="3.749996" fill="none" d="M 227.941162 308.823547 L 241.071426 348.214294 " />
<path stroke-linejoin="round" stroke-linecap="round" stroke="rgb(0,0,255)" stroke-width="1.874998" fill="none" d="M 0.000000 750.000000 L 342.857147 0.000000 " />
<path stroke-linejoin="round" stroke-linecap="round" stroke="rgb(255,0,0)" stroke-width="3.749996" fill="none" d="M 216.867447 275.602478 L 227.941147 308.823608 " />
<path stroke-linejoin="round" stroke-linecap="round" stroke="rgb(0,0,255)" stroke-width="1.874998" fill="none" d="M 0.000000 750.000000 L 321.428589 0.000000 " />
<path stroke-linejoin="round" stroke-linecap="round" stroke="rgb(255,0,0)" stroke-width="3.749996" fill="none" d="M 210.937485 257.812592 L 216.867447 275.602478 " />
<path stroke-linejoin="round" stroke-linecap="round" stroke="rgb(0,0,255)" stroke-width="1.874998" fill="none" d="M 0.000000 750.000000 L 271.875000 0.000000 " />
<path stroke-linejoin="round" stroke-linecap="round" stroke="rgb(255,0,0)" stroke-width="3.749996" fill="none" d="M 195.359253 211.077911 L 210.937485 257.812592 " />
<path stroke-linejoin="round" stroke-linecap="round" stroke="rgb(0,0,255)" stroke-width="1.874998" fill="none" d="M 0.000000 750.000000 L 233.333344 0.000000 " />
<path stroke-linejoin="round" stroke-linecap="round" stroke="rgb(255,0,0)" stroke-width="3.749996" fill="none" d="M 177.966125 177.966049 L 195.359253 211.077911 " />
<path stroke-linejoin="round" stroke-linecap="round" stroke="rgb(0,0,255)" stroke-width="1.874998" fill="none" d="M 0.000000 750.000000 L 202.500015 0.000000 " />
<path stroke-linejoin="round" stroke-linecap="round" stroke="rgb(255,0,0)" stroke-width="3.749996" fill="none" d="M 159.448807 159.448883 L 177.966125 177.966049 " />
<path stroke-linejoin="round" stroke-linecap="round" stroke="rgb(0,0,255)" stroke-width="1.874998" fill="none" d="M 0.000000 750.000000 L 190.909088 0.000000 " />
<path stroke-linejoin="round" stroke-linecap="round" stroke="rgb(255,0,0)" stroke-width="3.749996" fill="none" d="M 152.173904 152.173965 L 159.448807 159.448883 " />
<path stroke-linejoin="round" stroke-linecap="round" stroke="rgb(0,0,255)" stroke-width="1.874998" fill="none" d="M 0.000000 750.000000 L 177.272736 0.000000 " />
<path stroke-linejoin="round" stroke-linecap="round" stroke="rgb(255,0,0)" stroke-width="3.749996" fill="none" d="M 143.382355 143.382355 L 152.173874 152.174011 " />
<path stroke-linejoin="round" stroke-linecap="round" stroke="rgb(0,0,255)" stroke-width="1.874998" fill="none" d="M 0.000000 750.000000 L 156.249985 0.000000 " />
<path stroke-linejoin="round" stroke-linecap="round" stroke="rgb(255,0,0)" stroke-width="3.749996" fill="none" d="M 129.310318 129.310410 L 143.382355 143.382401 " />
<path stroke-linejoin="round" stroke-linecap="round" stroke="rgb(0,0,255)" stroke-width="1.874998" fill="none" d="M 0.000000 750.000000 L 149.999985 0.000000 " />
<path stroke-linejoin="round" stroke-linecap="round" stroke="rgb(255,0,0)" stroke-width="3.749996" fill="none" d="M 125.000015 124.999969 L 129.310318 129.310410 " />
<path stroke-linejoin="round" stroke-linecap="round" stroke="rgb(0,0,255)" stroke-width="1.874998" fill="none" d="M 0.000000 750.000000 L 138.461533 0.000000 " />
<path stroke-linejoin="round" stroke-linecap="round" stroke="rgb(255,0,0)" stroke-width="3.749996" fill="none" d="M 116.883118 116.883072 L 125.000015 124.999969 " />
<path stroke-linejoin="round" stroke-linecap="round" stroke="rgb(0,0,255)" stroke-width="1.874998" fill="none" d="M 0.000000 750.000000 L 123.214287 0.000000 " />
<path stroke-linejoin="round" stroke-linecap="round" stroke="rgb(255,0,0)" stroke-width="3.749996" fill="none" d="M 105.828209 105.828209 L 116.883118 116.883072 " />
<path stroke-linejoin="round" stroke-linecap="round" stroke="rgb(0,0,255)" stroke-width="1.874998" fill="none" d="M 0.000000 750.000000 L 120.000000 0.000000 " />
<path stroke-linejoin="round" stroke-linecap="round" stroke="rgb(255,0,0)" stroke-width="3.749996" fill="none" d="M 103.448288 103.448288 L 105.828232 105.828163 " />
<path stroke-linejoin="round" stroke-linecap="round" stroke="rgb(0,0,255)" stroke-width="1.874998" fill="none" d="M 0.000000 750.000000 L 117.187500 0.000000 " />
<path stroke-linejoin="round" stroke-linecap="round" stroke="rgb(255,0,0)" stroke-width="3.749996" fill="none" d="M 101.351334 101.351379 L 103.448288 103.448288 " />
<path stroke-linejoin="round" stroke-linecap="round" stroke="rgb(0,0,255)" stroke-width="1.874998" fill="none" d="M 0.000000 750.000000 L 107.812508 0.000000 " />
<path stroke-linejoin="round" stroke-linecap="round" stroke="rgb(255,0,0)" stroke-width="3.749996" fill="none" d="M 94.262299 94.262260 L 101.351334 101.351379 " />
<path stroke-linejoin="round" stroke-linecap="round" stroke="rgb(0,0,255)" stroke-width="1.874998" fill="none" d="M 0.000000 750.000000 L 105.882347 0.000000 " />
<path stroke-linejoin="round" stroke-linecap="round" stroke="rgb(255,0,0)" stroke-width="3.749996" fill="none" d="M 92.783508 92.783508 L 94.262299 94.262215 " />
<path stroke-linejoin="round" stroke-linecap="round" stroke="rgb(0,0,255)" stroke-width="1.874998" fill="none" d="M 0.000000 750.000000 L 97.058815 0.000000 " />
<path stroke-linejoin="round" stroke-linecap="round" stroke="rgb(255,0,0)" stroke-width="3.749996" fill="none" d="M 85.937485 85.937531 L 92.783508 92.783508 " />
<path stroke-linejoin="round" stroke-linecap="round" stroke="rgb(0,0,255)" stroke-width="1.874998" fill="none" d="M 0.000000 750.000000 L 95.833313 0.000000 " />
<path stroke-linejoin="round" stroke-linecap="round" stroke="rgb(255,0,0)" stroke-width="3.749996" fill="none" d="M 84.975380 84.975334 L 85.937508 85.937439 " />
<path stroke-linejoin="round" stroke-linecap="round" stroke="rgb(0,0,255)" stroke-width="1.874998" fill="none" d="M 0.000000 750.000000 L 87.500008 0.000000 " />
<path stroke-linejoin="round" stroke-linecap="round" stroke="rgb(255,0,0)" stroke-width="3.749996" fill="none" d="M 78.358208 78.358276 L 84.975380 84.975334 " />
<path stroke-linejoin="round" stroke-linecap="round" stroke="rgb(0,0,255)" stroke-width="1.874998" fill="none" d="M 0.000000 750.000000 L 86.842102 0.000000 " />
<path stroke-linejoin="round" stroke-linecap="round" stroke="rgb(255,0,0)" stroke-width="3.749996" fill="none" d="M 77.830193 77.830193 L 78.358208 78.358276 " />
<path stroke-linejoin="round" stroke-linecap="round" stroke="rgb(0,0,255)" stroke-width="1.874998" fill="none" d="M 0.000000 750.000000 L 78.750015 0.000000 " />
<path stroke-linejoin="round" stroke-linecap="round" stroke="rgb(255,0,0)" stroke-width="3.749996" fill="none" d="M 71.266968 71.266968 L 77.830170 77.830238 " />
<path stroke-linejoin="round" stroke-linecap="round" stroke="rgb(0,0,255)" stroke-width="1.874998" fill="none" d="M 0.000000 750.000000 L 78.571426 0.000000 " />
<path stroke-linejoin="round" stroke-linecap="round" stroke="rgb(255,0,0)" stroke-width="3.749996" fill="none" d="M 71.120697 71.120651 L 71.266968 71.266968 " />
<path stroke-linejoin="round" stroke-linecap="round" stroke="rgb(0,0,255)" stroke-width="1.874998" fill="none" d="M 0.000000 750.000000 L 71.428566 0.000000 " />
<path stroke-linejoin="round" stroke-linecap="round" stroke="rgb(255,0,0)" stroke-width="3.749996" fill="none" d="M 65.217400 65.217377 L 71.120697 71.120651 " />
<path stroke-linejoin="round" stroke-linecap="round" stroke="rgb(0,0,255)" stroke-width="1.874998" fill="none" d="M 0.000000 750.000000 L 69.174751 0.000000 " />
<path stroke-linejoin="round" stroke-linecap="round" stroke="rgb(255,0,0)" stroke-width="3.749996" fill="none" d="M 63.333347 63.333302 L 65.217400 65.217377 " />
<path stroke-linejoin="round" stroke-linecap="round" stroke="rgb(0,0,255)" stroke-width="1.874998" fill="none" d="M 0.000000 750.000000 L 65.217400 0.000000 " />
<path stroke-linejoin="round" stroke-linecap="round" stroke="rgb(255,0,0)" stroke-width="3.749996" fill="none" d="M 59.999989 60.000076 L 63.333347 63.333302 " />
<path stroke-linejoin="round" stroke-linecap="round" stroke="rgb(0,0,255)" stroke-width="1.874998" fill="none" d="M 0.000000 750.000000 L 61.298088 0.000000 " />
<path stroke-linejoin="round" stroke-linecap="round" stroke="rgb(255,0,0)" stroke-width="3.749996" fill="none" d="M 56.666649 56.666805 L 59.999989 60.000076 " />
<path stroke-linejoin="round" stroke-linecap="round" stroke="rgb(0,0,255)" stroke-width="1.874998" fill="none" d="M 0.000000 750.000000 L 58.755756 0.000000 " />
<path stroke-linejoin="round" stroke-linecap="round" stroke="rgb(255,0,0)" stroke-width="3.749996" fill="none" d="M 54.487175 54.487152 L 56.666649 56.666805 " />
<path stroke-linejoin="round" stroke-linecap="round" stroke="rgb(0,0,255)" stroke-width="1.874998" fill="none" d="M 0.000000 750.000000 L 57.416260 0.000000 " />
<path stroke-linejoin="round" stroke-linecap="round" stroke="rgb(255,0,0)" stroke-width="3.749996" fill="none" d="M 53.333336 53.333313 L 54.487175 54.487152 " />
<path stroke-linejoin="round" stroke-linecap="round" stroke="rgb(0,0,255)" stroke-width="1.874998" fill="none" d="M 0.000000 750.000000 L 56.872040 0.000000 " />
<path stroke-linejoin="round" stroke-linecap="round" stroke="rgb(255,0,0)" stroke-width="3.749996" fill="none" d="M 52.863434 52.863480 L 53.333336 53.333313 " />
<path stroke-linejoin="round" stroke-linecap="round" stroke="rgb(0,0,255)" stroke-width="1.874998" fill="none" d="M 0.000000 750.000000 L 53.066029 0.000000 " />
<path stroke-linejoin="round" stroke-linecap="round" stroke="rgb(255,0,0)" stroke-width="3.749996" fill="none" d="M 49.559467 49.559532 L 52.863434 52.863522 " />
<path stroke-linejoin="round" stroke-linecap="round" stroke="rgb(0,0,255)" stroke-width="1.874998" fill="none" d="M 0.000000 750.000000 L 49.295784 0.000000 " />
<path stroke-linejoin="round" stroke-linecap="round" stroke="rgb(255,0,0)" stroke-width="3.749996" fill="none" d="M 46.255501 46.255634 L 49.559467 49.559532 " />
<path stroke-linejoin="round" stroke-linecap="round" stroke="rgb(0,0,255)" stroke-width="1.874998" fill="none" d="M 0.000000 750.000000 L 45.560741 0.000000 " />
<path stroke-linejoin="round" stroke-linecap="round" stroke="rgb(255,0,0)" stroke-width="3.749996" fill="none" d="M 42.951530 42.951733 L 46.255501 46.255676 " />
<path stroke-linejoin="round" stroke-linecap="round" stroke="rgb(0,0,255)" stroke-width="1.874998" fill="none" d="M 0.000000 750.000000 L 41.860477 0.000000 " />
<path stroke-linejoin="round" stroke-linecap="round" stroke="rgb(255,0,0)" stroke-width="3.749996" fill="none" d="M 39.647564 39.647743 L 42.951530 42.951733 " />
<path stroke-linejoin="round" stroke-linecap="round" stroke="rgb(0,0,255)" stroke-width="1.874998" fill="none" d="M 0.000000 750.000000 L 38.194431 0.000000 " />
<path stroke-linejoin="round" stroke-linecap="round" stroke="rgb(255,0,0)" stroke-width="3.749996" fill="none" d="M 36.343597 36.343800 L 39.647564 39.647743 " />
<path stroke-linejoin="round" stroke-linecap="round" stroke="rgb(0,0,255)" stroke-width="1.874998" fill="none" d="M 0.000000 750.000000 L 34.562206 0.000000 " />
<path stroke-linejoin="round" stroke-linecap="round" stroke="rgb(255,0,0)" stroke-width="3.749996" fill="none" d="M 33.039631 33.039852 L 36.343597 36.343800 " />
<path stroke-linejoin="round" stroke-linecap="round" stroke="rgb(0,0,255)" stroke-width="1.874998" fill="none" d="M 0.000000 750.000000 L 34.246578 0.000000 " />
<path stroke-linejoin="round" stroke-linecap="round" stroke="rgb(255,0,0)" stroke-width="3.749996" fill="none" d="M 32.751091 32.751293 L 33.039631 33.039898 " />
<path stroke-linejoin="round" stroke-linecap="round" stroke="rgb(0,0,255)" stroke-width="1.874998" fill="none" d="M 0.000000 750.000000 L 30.681810 0.000000 " />
<path stroke-linejoin="round" stroke-linecap="round" stroke="rgb(255,0,0)" stroke-width="3.749996" fill="none" d="M 29.475979 29.476271 L 32.751091 32.751293 " />
<path stroke-linejoin="round" stroke-linecap="round" stroke="rgb(0,0,255)" stroke-width="1.874998" fill="none" d="M 0.000000 750.000000 L 30.405409 0.000000 " />
<path stroke-linejoin="round" stroke-linecap="round" stroke="rgb(255,0,0)" stroke-width="3.749996" fill="none" d="M 29.220768 29.221102 L 29.475958 29.476315 " />
<path stroke-linejoin="round" stroke-linecap="round" stroke="rgb(0,0,255)" stroke-width="1.874998" fill="none" d="M 0.000000 750.000000 L 26.905819 0.000000 " />
<path stroke-linejoin="round" stroke-linecap="round" stroke="rgb(255,0,0)" stroke-width="3.749996" fill="none" d="M 25.974020 25.974333 L 29.220768 29.221102 " />
<path stroke-linejoin="round" stroke-linecap="round" stroke="rgb(0,0,255)" stroke-width="1.874998" fill="none" d="M 0.000000 750.000000 L 26.666656 0.000000 " />
<path stroke-linejoin="round" stroke-linecap="round" stroke="rgb(255,0,0)" stroke-width="3.749996" fill="none" d="M 25.751062 25.751396 L 25.974020 25.974333 " />
<path stroke-linejoin="round" stroke-linecap="round" stroke="rgb(0,0,255)" stroke-width="1.874998" fill="none" d="M 0.000000 750.000000 L 23.230099 0.000000 " />
<path stroke-linejoin="round" stroke-linecap="round" stroke="rgb(255,0,0)" stroke-width="3.749996" fill="none" d="M 22.532187 22.532522 L 25.751062 25.751396 " />
<path stroke-linejoin="round" stroke-linecap="round" stroke="rgb(0,0,255)" stroke-width="1.874998" fill="none" d="M 0.000000 750.000000 L 19.823782 0.000000 " />
<path stroke-linejoin="round" stroke-linecap="round" stroke="rgb(255,0,0)" stroke-width="3.749996" fill="none" d="M 19.313292 19.313648 L 22.532187 22.532522 " />
<path stroke-linejoin="round" stroke-linecap="round" stroke="rgb(0,0,255)" stroke-width="1.874998" fill="none" d="M 0.000000 750.000000 L 19.650646 0.000000 " />
<path stroke-linejoin="round" stroke-linecap="round" stroke="rgb(255,0,0)" stroke-width="3.749996" fill="none" d="M 19.148916 19.149319 L 19.313292 19.313648 " />
<path stroke-linejoin="round" stroke-linecap="round" stroke="rgb(0,0,255)" stroke-width="1.874998" fill="none" d="M 0.000000 750.000000 L 16.304344 0.000000 " />
<path stroke-linejoin="round" stroke-linecap="round" stroke="rgb(255,0,0)" stroke-width="3.749996" fill="none" d="M 15.957445 15.957848 L 19.148916 19.149363 " />
<path stroke-linejoin="round" stroke-linecap="round" stroke="rgb(0,0,255)" stroke-width="1.874998" fill="none" d="M 0.000000 750.000000 L 12.987010 0.000000 " />
<path stroke-linejoin="round" stroke-linecap="round" stroke="rgb(255,0,0)" stroke-width="3.749996" fill="none" d="M 12.765951 12.766376 L 15.957445 15.957848 " />
<circle cx="341.517851" cy="649.553575" r="3.749999" style="fill:rgb(0,127,0);stroke-width:1" /><circle cx="311.974794" cy="560.924359" r="3.750002" style="fill:rgb(0,127,0);stroke-width:1" /><circle cx="285.714291" cy="482.142851" r="3.750002" style="fill:rgb(0,127,0);stroke-width:1" /><circle cx="262.218051" cy="411.654130" r="3.749996" style="fill:rgb(0,127,0);stroke-width:1" /><circle cx="241.071425" cy="348.214298" r="3.749996" style="fill:rgb(0,127,0);stroke-width:1" /><circle cx="227.941163" cy="308.823556" r="3.749996" style="fill:rgb(0,127,0);stroke-width:1" /><circle cx="216.867439" cy="275.602475" r="3.749996" style="fill:rgb(0,127,0);stroke-width:1" /><circle cx="210.937478" cy="257.812589" r="3.749996" style="fill:rgb(0,127,0);stroke-width:1" /><circle cx="195.359252" cy="211.077914" r="3.749996" style="fill:rgb(0,127,0);stroke-width:1" /><circle cx="177.966133" cy="177.966043" r="3.749996" style="fill:rgb(0,127,0);stroke-width:1" /><circle cx="159.448810" cy="159.448877" r="3.749996" style="fill:rgb(0,127,0);stroke-width:1" /><circle cx="152.173899" cy="152.173966" r="3.749996" style="fill:rgb(0,127,0);stroke-width:1" /><circle cx="143.382356" cy="143.382356" r="3.749996" style="fill:rgb(0,127,0);stroke-width:1" /><circle cx="129.310325" cy="129.310414" r="3.749996" style="fill:rgb(0,127,0);stroke-width:1" /><circle cx="125.000015" cy="124.999970" r="3.749996" style="fill:rgb(0,127,0);stroke-width:1" /><circle cx="116.883114" cy="116.883069" r="3.749996" style="fill:rgb(0,127,0);stroke-width:1" /><circle cx="105.828211" cy="105.828211" r="3.749996" style="fill:rgb(0,127,0);stroke-width:1" /><circle cx="103.448287" cy="103.448287" r="3.749996" style="fill:rgb(0,127,0);stroke-width:1" /><circle cx="101.351336" cy="101.351380" r="3.749996" style="fill:rgb(0,127,0);stroke-width:1" /><circle cx="94.262302" cy="94.262257" r="3.749996" style="fill:rgb(0,127,0);stroke-width:1" /><circle cx="92.783511" cy="92.783511" r="3.749996" style="fill:rgb(0,127,0);stroke-width:1" /><circle cx="85.937485" cy="85.937530" r="3.749996" style="fill:rgb(0,127,0);stroke-width:1" /><circle cx="84.975377" cy="84.975332" r="3.749996" style="fill:rgb(0,127,0);stroke-width:1" /><circle cx="78.358211" cy="78.358278" r="3.749996" style="fill:rgb(0,127,0);stroke-width:1" /><circle cx="77.830195" cy="77.830195" r="3.749996" style="fill:rgb(0,127,0);stroke-width:1" /><circle cx="71.266964" cy="71.266964" r="3.749996" style="fill:rgb(0,127,0);stroke-width:1" /><circle cx="71.120694" cy="71.120650" r="3.749996" style="fill:rgb(0,127,0);stroke-width:1" /><circle cx="65.217398" cy="65.217376" r="3.749996" style="fill:rgb(0,127,0);stroke-width:1" /><circle cx="63.333347" cy="63.333303" r="3.749996" style="fill:rgb(0,127,0);stroke-width:1" /><circle cx="59.999987" cy="60.000077" r="3.749996" style="fill:rgb(0,127,0);stroke-width:1" /><circle cx="56.666650" cy="56.666806" r="3.749996" style="fill:rgb(0,127,0);stroke-width:1" /><circle cx="54.487176" cy="54.487154" r="3.749996" style="fill:rgb(0,127,0);stroke-width:1" /><circle cx="53.333335" cy="53.333312" r="3.749996" style="fill:rgb(0,127,0);stroke-width:1" /><circle cx="52.863434" cy="52.863479" r="3.749996" style="fill:rgb(0,127,0);stroke-width:1" /><circle cx="49.559467" cy="49.559534" r="3.749996" style="fill:rgb(0,127,0);stroke-width:1" /><circle cx="46.255499" cy="46.255633" r="3.749996" style="fill:rgb(0,127,0);stroke-width:1" /><circle cx="42.951532" cy="42.951733" r="3.749996" style="fill:rgb(0,127,0);stroke-width:1" /><circle cx="39.647564" cy="39.647743" r="3.749996" style="fill:rgb(0,127,0);stroke-width:1" /><circle cx="36.343597" cy="36.343798" r="3.749996" style="fill:rgb(0,127,0);stroke-width:1" /><circle cx="33.039629" cy="33.039853" r="3.749996" style="fill:rgb(0,127,0);stroke-width:1" /><circle cx="32.751091" cy="32.751292" r="3.749996" style="fill:rgb(0,127,0);stroke-width:1" /><circle cx="29.475980" cy="29.476270" r="3.749996" style="fill:rgb(0,127,0);stroke-width:1" /><circle cx="29.220767" cy="29.221103" r="3.749996" style="fill:rgb(0,127,0);stroke-width:1" /><circle cx="25.974020" cy="25.974333" r="3.749996" style="fill:rgb(0,127,0);stroke-width:1" /><circle cx="25.751062" cy="25.751397" r="3.749996" style="fill:rgb(0,127,0);stroke-width:1" /><circle cx="22.532187" cy="22.532523" r="3.749996" style="fill:rgb(0,127,0);stroke-width:1" /><circle cx="19.313291" cy="19.313648" r="3.749996" style="fill:rgb(0,127,0);stroke-width:1" /><circle cx="19.148916" cy="19.149318" r="3.749996" style="fill:rgb(0,127,0);stroke-width:1" /><circle cx="15.957445" cy="15.957847" r="3.749996" style="fill:rgb(0,127,0);stroke-width:1" /><circle cx="12.765951" cy="12.766376" r="3.749996" style="fill:rgb(0,127,0);stroke-width:1" /><path stroke-linejoin="round" stroke-linecap="round" stroke="rgb(255,255,255)" stroke-width="3.749996" fill="none" d="M 0.000000 750.000000 L 750.000000 750.000000 M 0.000000 750.000000 L 0.000000 0.000000 " />

</svg>