<svg xmlns="http://www.w3.org/2000/svg" version="1.1" width = "750" height = "750" viewBox = "0 0 750 750"  shape-rendering="crispEdges">
<path stroke-linejoin="round" stroke-linecap="round" stroke="rgb(255,255,0)" stroke-width="3.749996" fill="none" d="M 93.750000 750.000000 L 0.000000 0.000000 " />
<path stroke-linejoin="round" stroke-linecap="round" stroke="rgb(63,63,63)" stroke-width="3.749996" fill="none" d="M 0.000000 0.000000 L 750.000000 750.000000 M 93.750000 750.000000 L 43.750004 0.000000 " />
<path stroke-linejoin="round" stroke-linecap="round" stroke="rgb(191,191,191)" stroke-width="3.749996" fill="none" d="M 0.000000 656.250000 L 93.750000 750.000000 M 0.000000 0.000000 L 49.999996 750.000000 " />
<path stroke-linejoin="round" stroke-linecap="round" stroke="rgb(0,0,255)" stroke-width="1.874998" fill="none" d="M 0.000000 750.000000 L 750.000000 571.428589 " />
<path stroke-linejoin="round" stroke-linecap="round" stroke="rgb(255,0,0)" stroke-width="3.749996" fill="none" d="M 92.285156 728.027344 L 93.750000 750.000000 " />
<path stroke-linejoin="round" stroke-linecap="round" stroke="rgb(0,0,255)" stroke-width="1.874998" fill="none" d="M 0.000000 750.000000 L 750.000000 384.146332 " />
<path stroke-linejoin="round" stroke-linecap="round" stroke="rgb(255,0,0)" stroke-width="3.749996" fill="none" d="M 90.797249 705.708679 L 92.285156 728.027344 " />
<path stroke-linejoin="round" stroke-linecap="round" stroke="rgb(0,0,255)" stroke-width="1.874998" fill="none" d="M 0.000000 750.000000 L 750.000000 214.285706 " />
<path stroke-linejoin="round" stroke-linecap="round" stroke="rgb(255,0,0)" stroke-width="3.749996" fill="none" d="M 89.488640 686.079590 L 90.797249 705.708679 " />
<path stroke-linejoin="round" stroke-linecap="round" stroke="rgb(0,0,255)" stroke-width="1.874998" fill="none" d="M 0.000000 750.000000 L 750.000000 18.292665 " />
<path stroke-linejoin="round" stroke-linecap="round" stroke="rgb(255,0,0)" stroke-width="3.749996" fill="none" d="M 88.024803 664.122131 L 89.488640 686.079590 " />
<path stroke-linejoin="round" stroke-linecap="round" stroke="rgb(0,0,255)" stroke-width="1.874998" fill="none" d="M 0.000000 750.000000 L 600.000000 0.000000 " />
<path stroke-linejoin="round" stroke-linecap="round" stroke="rgb(255,0,0)" stroke-width="3.749996" fill="none" d="M 86.538460 641.826965 L 88.024803 664.122131 " />
<path stroke-linejoin="round" stroke-linecap="round" stroke="rgb(0,0,255)" stroke-width="1.874998" fill="none" d="M 0.000000 750.000000 L 487.499969 0.000000 " />
<path stroke-linejoin="round" stroke-linecap="round" stroke="rgb(255,0,0)" stroke-width="3.749996" fill="none" d="M 85.029068 619.186096 L 86.538460 641.826965 " />
<path stroke-linejoin="round" stroke-linecap="round" stroke="rgb(0,0,255)" stroke-width="1.874998" fill="none" d="M 0.000000 750.000000 L 407.142883 0.000000 " />
<path stroke-linejoin="round" stroke-linecap="round" stroke="rgb(255,0,0)" stroke-width="3.749996" fill="none" d="M 83.496071 596.191467 L 85.029068 619.186096 " />
<path stroke-linejoin="round" stroke-linecap="round" stroke="rgb(0,0,255)" stroke-width="1.874998" fill="none" d="M 0.000000 750.000000 L 346.875000 0.000000 " />
<path stroke-linejoin="round" stroke-linecap="round" stroke="rgb(255,0,0)" stroke-width="3.749996" fill="none" d="M 81.938957 572.834656 L 83.496071 596.191467 " />
<path stroke-linejoin="round" stroke-linecap="round" stroke="rgb(0,0,255)" stroke-width="1.874998" fill="none" d="M 0.000000 750.000000 L 300.000000 0.000000 " />
<path stroke-linejoin="round" stroke-linecap="round" stroke="rgb(255,0,0)" stroke-width="3.749996" fill="none" d="M 80.357124 549.107178 L 81.938957 572.834656 " />
<path stroke-linejoin="round" stroke-linecap="round" stroke="rgb(0,0,255)" stroke-width="1.874998" fill="none" d="M 0.000000 750.000000 L 277.500000 0.000000 " />
<path stroke-linejoin="round" stroke-linecap="round" stroke="rgb(255,0,0)" stroke-width="3.749996" fill="none" d="M 79.437019 535.305359 L 80.357124 549.107178 " />
<path stroke-linejoin="round" stroke-linecap="round" stroke="rgb(0,0,255)" stroke-width="1.874998" fill="none" d="M 0.000000 750.000000 L 262.500000 0.000000 " />
<path stroke-linejoin="round" stroke-linecap="round" stroke="rgb(255,0,0)" stroke-width="3.749996" fill="none" d="M 78.749992 525.000061 L 79.437019 535.305359 " />
<path stroke-linejoin="round" stroke-linecap="round" stroke="rgb(0,0,255)" stroke-width="1.874998" fill="none" d="M 0.000000 750.000000 L 245.454529 0.000000 " />
<path stroke-linejoin="round" stroke-linecap="round" stroke="rgb(255,0,0)" stroke-width="3.749996" fill="none" d="M 77.884598 512.019287 L 78.749992 525.000061 " />
<path stroke-linejoin="round" stroke-linecap="round" stroke="rgb(0,0,255)" stroke-width="1.874998" fill="none" d="M 0.000000 750.000000 L 231.818192 0.000000 " />
<path stroke-linejoin="round" stroke-linecap="round" stroke="rgb(255,0,0)" stroke-width="3.749996" fill="none" d="M 77.116928 500.504059 L 77.884598 512.019287 " />
<path stroke-linejoin="round" stroke-linecap="round" stroke="rgb(0,0,255)" stroke-width="1.874998" fill="none" d="M 0.000000 750.000000 L 206.250000 0.000000 " />
<path stroke-linejoin="round" stroke-linecap="round" stroke="rgb(255,0,0)" stroke-width="3.749996" fill="none" d="M 75.457291 475.609833 L 77.116928 500.504059 " />
<path stroke-linejoin="round" stroke-linecap="round" stroke="rgb(0,0,255)" stroke-width="1.874998" fill="none" d="M 0.000000 750.000000 L 196.153839 0.000000 " />
<path stroke-linejoin="round" stroke-linecap="round" stroke="rgb(255,0,0)" stroke-width="3.749996" fill="none" d="M 74.707008 464.355560 L 75.457291 475.609833 " />
<path stroke-linejoin="round" stroke-linecap="round" stroke="rgb(0,0,255)" stroke-width="1.874998" fill="none" d="M 0.000000 750.000000 L 176.785736 0.000000 " />
<path stroke-linejoin="round" stroke-linecap="round" stroke="rgb(255,0,0)" stroke-width="3.749996" fill="none" d="M 73.080696 439.960724 L 74.707008 464.355560 " />
<path stroke-linejoin="round" stroke-linecap="round" stroke="rgb(0,0,255)" stroke-width="1.874998" fill="none" d="M 0.000000 750.000000 L 160.000000 0.000000 " />
<path stroke-linejoin="round" stroke-linecap="round" stroke="rgb(255,0,0)" stroke-width="3.749996" fill="none" d="M 71.428543 415.178680 L 73.080696 439.960724 " />
<path stroke-linejoin="round" stroke-linecap="round" stroke="rgb(0,0,255)" stroke-width="1.874998" fill="none" d="M 0.000000 750.000000 L 154.687515 0.000000 " />
<path stroke-linejoin="round" stroke-linecap="round" stroke="rgb(255,0,0)" stroke-width="3.749996" fill="none" d="M 70.849213 406.488586 L 71.428543 415.178680 " />
<path stroke-linejoin="round" stroke-linecap="round" stroke="rgb(0,0,255)" stroke-width="1.874998" fill="none" d="M 0.000000 750.000000 L 145.312515 0.000000 " />
<path stroke-linejoin="round" stroke-linecap="round" stroke="rgb(255,0,0)" stroke-width="3.749996" fill="none" d="M 69.749992 390.000061 L 70.849236 406.488586 " />
<path stroke-linejoin="round" stroke-linecap="round" stroke="rgb(0,0,255)" stroke-width="1.874998" fill="none" d="M 0.000000 750.000000 L 141.176468 0.000000 " />
<path stroke-linejoin="round" stroke-linecap="round" stroke="rgb(255,0,0)" stroke-width="3.749996" fill="none" d="M 69.230766 382.211578 L 69.749992 390.000061 " />
<path stroke-linejoin="round" stroke-linecap="round" stroke="rgb(0,0,255)" stroke-width="1.874998" fill="none" d="M 0.000000 750.000000 L 132.352936 0.000000 " />
<path stroke-linejoin="round" stroke-linecap="round" stroke="rgb(255,0,0)" stroke-width="3.749996" fill="none" d="M 68.044334 364.415375 L 69.230766 382.211578 " />
<path stroke-linejoin="round" stroke-linecap="round" stroke="rgb(0,0,255)" stroke-width="1.874998" fill="none" d="M 0.000000 750.000000 L 129.166641 0.000000 " />
<path stroke-linejoin="round" stroke-linecap="round" stroke="rgb(255,0,0)" stroke-width="3.749996" fill="none" d="M 67.587196 357.558228 L 68.044334 364.415375 " />
<path stroke-linejoin="round" stroke-linecap="round" stroke="rgb(0,0,255)" stroke-width="1.874998" fill="none" d="M 0.000000 750.000000 L 118.421051 0.000000 " />
<path stroke-linejoin="round" stroke-linecap="round" stroke="rgb(255,0,0)" stroke-width="3.749996" fill="none" d="M 65.917969 332.519562 L 67.587196 357.558228 " />
<path stroke-linejoin="round" stroke-linecap="round" stroke="rgb(0,0,255)" stroke-width="1.874998" fill="none" d="M 0.000000 750.000000 L 108.749985 0.000000 " />
<path stroke-linejoin="round" stroke-linecap="round" stroke="rgb(255,0,0)" stroke-width="3.749996" fill="none" d="M 64.222435 307.086700 L 65.917969 332.519562 " />
<path stroke-linejoin="round" stroke-linecap="round" stroke="rgb(0,0,255)" stroke-width="1.874998" fill="none" d="M 0.000000 750.000000 L 107.142853 0.000000 " />
<path stroke-linejoin="round" stroke-linecap="round" stroke="rgb(255,0,0)" stroke-width="3.749996" fill="none" d="M 63.920437 302.556885 L 64.222435 307.086700 " />
<path stroke-linejoin="round" stroke-linecap="round" stroke="rgb(0,0,255)" stroke-width="1.874998" fill="none" d="M 0.000000 750.000000 L 99.999992 0.000000 " />
<path stroke-linejoin="round" stroke-linecap="round" stroke="rgb(255,0,0)" stroke-width="3.749996" fill="none" d="M 62.499985 281.250092 L 63.920437 302.556885 " />
<path stroke-linejoin="round" stroke-linecap="round" stroke="rgb(0,0,255)" stroke-width="1.874998" fill="none" d="M 0.000000 750.000000 L 92.045456 0.000000 " />
<path stroke-linejoin="round" stroke-linecap="round" stroke="rgb(255,0,0)" stroke-width="3.749996" fill="none" d="M 60.749977 255.000076 L 62.499985 281.250092 " />
<path stroke-linejoin="round" stroke-linecap="round" stroke="rgb(0,0,255)" stroke-width="1.874998" fill="none" d="M 0.000000 750.000000 L 84.782616 0.000000 " />
<path stroke-linejoin="round" stroke-linecap="round" stroke="rgb(255,0,0)" stroke-width="3.749996" fill="none" d="M 58.971764 228.326706 L 60.749977 255.000076 " />
<path stroke-linejoin="round" stroke-linecap="round" stroke="rgb(0,0,255)" stroke-width="1.874998" fill="none" d="M 0.000000 750.000000 L 78.124992 0.000000 " />
<path stroke-linejoin="round" stroke-linecap="round" stroke="rgb(255,0,0)" stroke-width="3.749996" fill="none" d="M 57.164623 201.219589 L 58.971764 228.326706 " />
<path stroke-linejoin="round" stroke-linecap="round" stroke="rgb(0,0,255)" stroke-width="1.874998" fill="none" d="M 0.000000 750.000000 L 78.000000 0.000000 " />
<path stroke-linejoin="round" stroke-linecap="round" stroke="rgb(255,0,0)" stroke-width="3.749996" fill="none" d="M 57.128906 200.683685 L 57.164623 201.219589 " />
<path stroke-linejoin="round" stroke-linecap="round" stroke="rgb(0,0,255)" stroke-width="1.874998" fill="none" d="M 0.000000 750.000000 L 72.115395 0.000000 " />
<path stroke-linejoin="round" stroke-linecap="round" stroke="rgb(255,0,0)" stroke-width="3.749996" fill="none" d="M 55.364170 174.212738 L 57.128906 200.683685 " />
<path stroke-linejoin="round" stroke-linecap="round" stroke="rgb(0,0,255)" stroke-width="1.874998" fill="none" d="M 0.000000 750.000000 L 71.999992 0.000000 " />
<path stroke-linejoin="round" stroke-linecap="round" stroke="rgb(255,0,0)" stroke-width="3.749996" fill="none" d="M 55.327847 173.668121 L 55.364170 174.212738 " />
<path stroke-linejoin="round" stroke-linecap="round" stroke="rgb(0,0,255)" stroke-width="1.874998" fill="none" d="M 0.000000 750.000000 L 66.346161 0.000000 " />
<path stroke-linejoin="round" stroke-linecap="round" stroke="rgb(255,0,0)" stroke-width="3.749996" fill="none" d="M 53.460739 145.661255 L 55.327847 173.668121 " />
<path stroke-linejoin="round" stroke-linecap="round" stroke="rgb(0,0,255)" stroke-width="1.874998" fill="none" d="M 0.000000 750.000000 L 61.111115 0.000000 " />
<path stroke-linejoin="round" stroke-linecap="round" stroke="rgb(255,0,0)" stroke-width="3.749996" fill="none" d="M 51.562496 117.187637 L 53.460739 145.661255 " />
<path stroke-linejoin="round" stroke-linecap="round" stroke="rgb(0,0,255)" stroke-width="1.874998" fill="none" d="M 0.000000 750.000000 L 56.249992 0.000000 " />
<path stroke-linejoin="round" stroke-linecap="round" stroke="rgb(255,0,0)" stroke-width="3.749996" fill="none" d="M 49.632355 88.235336 L 51.562496 117.187637 " />
<path stroke-linejoin="round" stroke-linecap="round" stroke="rgb(0,0,255)" stroke-width="1.874998" fill="none" d="M 0.000000 750.000000 L 55.147068 0.000000 " />
<path stroke-linejoin="round" stroke-linecap="round" stroke="rgb(255,0,0)" stroke-width="3.749996" fill="none" d="M 48.725815 87.328751 L 49.632355 88.235291 " />
<path stroke-linejoin="round" stroke-linecap="round" stroke="rgb(0,0,255)" stroke-width="1.874998" fill="none" d="M 0.000000 750.000000 L 52.197800 0.000000 " />
<path stroke-linejoin="round" stroke-linecap="round" stroke="rgb(255,0,0)" stroke-width="3.749996" fill="none" d="M 46.289539 84.892494 L 48.725815 87.328751 " />
<path stroke-linejoin="round" stroke-linecap="round" stroke="rgb(0,0,255)" stroke-width="1.874998" fill="none" d="M 0.000000 750.000000 L 49.270077 0.000000 " />
<path stroke-linejoin="round" stroke-linecap="round" stroke="rgb(255,0,0)" stroke-width="3.749996" fill="none" d="M 43.853245 82.456154 L 46.289539 84.892494 " />
<path stroke-linejoin="round" stroke-linecap="round" stroke="rgb(0,0,255)" stroke-width="1.874998" fill="none" d="M 0.000000 750.000000 L 48.913033 0.000000 " />
<path stroke-linejoin="round" stroke-linecap="round" stroke="rgb(255,0,0)" stroke-width="3.749996" fill="none" d="M 43.554939 82.157761 L 43.853245 82.456070 " />
<path stroke-linejoin="round" stroke-linecap="round" stroke="rgb(0,0,255)" stroke-width="1.874998" fill="none" d="M 0.000000 750.000000 L 46.028873 0.000000 " />
<path stroke-linejoin="round" stroke-linecap="round" stroke="rgb(255,0,0)" stroke-width="3.749996" fill="none" d="M 41.135208 79.738098 L 43.554939 82.157761 " />
<path stroke-linejoin="round" stroke-linecap="round" stroke="rgb(0,0,255)" stroke-width="1.874998" fill="none" d="M 0.000000 750.000000 L 43.165459 0.000000 " />
<path stroke-linejoin="round" stroke-linecap="round" stroke="rgb(255,0,0)" stroke-width="3.749996" fill="none" d="M 38.715496 77.318382 L 41.135208 79.738098 " />
<path stroke-linejoin="round" stroke-linecap="round" stroke="rgb(0,0,255)" stroke-width="1.874998" fill="none" d="M 0.000000 750.000000 L 42.857140 0.000000 " />
<path stroke-linejoin="round" stroke-linecap="round" stroke="rgb(255,0,0)" stroke-width="3.749996" fill="none" d="M 38.453892 77.056732 L 38.715496 77.318382 " />
<path stroke-linejoin="round" stroke-linecap="round" stroke="rgb(0,0,255)" stroke-width="1.874998" fill="none" d="M 0.000000 750.000000 L 42.553200 0.000000 " />
<path stroke-linejoin="round" stroke-linecap="round" stroke="rgb(255,0,0)" stroke-width="3.749996" fill="none" d="M 38.195820 76.798660 L 38.453892 77.056732 " />
<path stroke-linejoin="round" stroke-linecap="round" stroke="rgb(0,0,255)" stroke-width="1.874998" fill="none" d="M 0.000000 750.000000 L 39.752663 0.000000 " />
<path stroke-linejoin="round" stroke-linecap="round" stroke="rgb(255,0,0)" stroke-width="3.749996" fill="none" d="M 35.808586 74.411453 L 38.195820 76.798660 " />
<path stroke-linejoin="round" stroke-linecap="round" stroke="rgb(0,0,255)" stroke-width="1.874998" fill="none" d="M 0.000000 750.000000 L 36.971836 0.000000 " />
<path stroke-linejoin="round" stroke-linecap="round" stroke="rgb(255,0,0)" stroke-width="3.749996" fill="none" d="M 33.421329 72.024239 L 35.808586 74.411453 " />
<path stroke-linejoin="round" stroke-linecap="round" stroke="rgb(0,0,255)" stroke-width="1.874998" fill="none" d="M 0.000000 750.000000 L 34.210526 0.000000 " />
<path stroke-linejoin="round" stroke-linecap="round" stroke="rgb(255,0,0)" stroke-width="3.749996" fill="none" d="M 31.034098 69.636986 L 33.421329 72.024239 " />
<path stroke-linejoin="round" stroke-linecap="round" stroke="rgb(0,0,255)" stroke-width="1.874998" fill="none" d="M 0.000000 750.000000 L 31.468525 0.000000 " />
<path stroke-linejoin="round" stroke-linecap="round" stroke="rgb(255,0,0)" stroke-width="3.749996" fill="none" d="M 28.646864 67.249771 L 31.034098 69.636986 " />
<path stroke-linejoin="round" stroke-linecap="round" stroke="rgb(0,0,255)" stroke-width="1.874998" fill="none" d="M 0.000000 750.000000 L 28.745636 0.000000 " />
<path stroke-linejoin="round" stroke-linecap="round" stroke="rgb(255,0,0)" stroke-width="3.749996" fill="none" d="M 26.259630 64.862610 L 28.646864 67.249771 " />
<path stroke-linejoin="round" stroke-linecap="round" stroke="rgb(0,0,255)" stroke-width="1.874998" fill="none" d="M 0.000000 750.000000 L 26.041656 0.000000 " />
<path stroke-linejoin="round" stroke-linecap="round" stroke="rgb(255,0,0)" stroke-width="3.749996" fill="none" d="M 23.872375 62.475353 L 26.259630 64.862610 " />
<path stroke-linejoin="round" stroke-linecap="round" stroke="rgb(0,0,255)" stroke-width="1.874998" fill="none" d="M 0.000000 750.000000 L 25.862061 0.000000 " />
<path stroke-linejoin="round" stroke-linecap="round" stroke="rgb(255,0,0)" stroke-width="3.749996" fill="none" d="M 23.713230 62.316120 L 23.872375 62.475353 " />
<path stroke-linejoin="round" stroke-linecap="round" stroke="rgb(0,0,255)" stroke-width="1.874998" fill="none" d="M 0.000000 750.000000 L 25.684923 0.000000 " />
<path stroke-linejoin="round" stroke-linecap="round" stroke="rgb(255,0,0)" stroke-width="3.749996" fill="none" d="M 23.556189 62.159077 L 23.713230 62.316120 " />
<path stroke-linejoin="round" stroke-linecap="round" stroke="rgb(0,0,255)" stroke-width="1.874998" fill="none" d="M 0.000000 750.000000 L 23.037539 0.000000 " />
<path stroke-linejoin="round" stroke-linecap="round" stroke="rgb(255,0,0)" stroke-width="3.749996" fill="none" d="M 21.200583 59.803516 L 23.556189 62.159077 " />
<path stroke-linejoin="round" stroke-linecap="round" stroke="rgb(0,0,255)" stroke-width="1.874998" fill="none" d="M 0.000000 750.000000 L 22.881344 0.000000 " />
<path stroke-linejoin="round" stroke-linecap="round" stroke="rgb(255,0,0)" stroke-width="3.749996" fill="none" d="M 21.061085 59.664085 L 21.200583 59.803562 " />
<path stroke-linejoin="round" stroke-linecap="round" stroke="rgb(0,0,255)" stroke-width="1.874998" fill="none" d="M 0.000000 750.000000 L 20.270281 0.000000 " />
<path stroke-linejoin="round" stroke-linecap="round" stroke="rgb(255,0,0)" stroke-width="3.749996" fill="none" d="M 18.720970 57.323902 L 21.061085 59.664085 " />
<path stroke-linejoin="round" stroke-linecap="round" stroke="rgb(0,0,255)" stroke-width="1.874998" fill="none" d="M 0.000000 750.000000 L 17.676764 0.000000 " />
<path stroke-linejoin="round" stroke-linecap="round" stroke="rgb(255,0,0)" stroke-width="3.749996" fill="none" d="M 16.380854 54.983810 L 18.720970 57.323902 " />
<path stroke-linejoin="round" stroke-linecap="round" stroke="rgb(0,0,255)" stroke-width="1.874998" fill="none" d="M 0.000000 750.000000 L 15.100680 0.000000 " />
<path stroke-linejoin="round" stroke-linecap="round" stroke="rgb(255,0,0)" stroke-width="3.749996" fill="none" d="M 14.040738 52.643673 L 16.380854 54.983810 " />
<path stroke-linejoin="round" stroke-linecap="round" stroke="rgb(0,0,255)" stroke-width="1.874998" fill="none" d="M 0.000000 750.000000 L 15.000008 0.000000 " />
<path stroke-linejoin="round" stroke-linecap="round" stroke="rgb(255,0,0)" stroke-width="3.749996" fill="none" d="M 13.948962 52.551987 L 14.040738 52.643673 " />
<path stroke-linejoin="round" stroke-linecap="round" stroke="rgb(0,0,255)" stroke-width="1.874998" fill="none" d="M 0.000000 750.000000 L 14.900655 0.000000 " />
<path stroke-linejoin="round" stroke-linecap="round" stroke="rgb(255,0,0)" stroke-width="3.749996" fill="none" d="M 13.858393 52.461414 L 13.948962 52.551987 " />
<path stroke-linejoin="round" stroke-linecap="round" stroke="rgb(0,0,255)" stroke-width="1.874998" fill="none" d="M 0.000000 750.000000 L 12.376249 0.000000 " />
<path stroke-linejoin="round" stroke-linecap="round" stroke="rgb(255,0,0)" stroke-width="3.749996" fill="none" d="M 11.548654 50.151676 L 13.858393 52.461414 " />
<path stroke-linejoin="round" stroke-linecap="round" stroke="rgb(0,0,255)" stroke-width="1.874998" fill="none" d="M 0.000000 750.000000 L 9.868428 0.000000 " />
<path stroke-linejoin="round" stroke-linecap="round" stroke="rgb(255,0,0)" stroke-width="3.749996" fill="none" d="M 9.238914 47.841980 L 11.548654 50.151676 " />
<path stroke-linejoin="round" stroke-linecap="round" stroke="rgb(0,0,255)" stroke-width="1.874998" fill="none" d="M 0.000000 750.000000 L 9.803921 0.000000 " />
<path stroke-linejoin="round" stroke-linecap="round" stroke="rgb(255,0,0)" stroke-width="3.749996" fill="none" d="M 9.179324 47.782345 L 9.238914 47.841980 " />
<path stroke-linejoin="round" stroke-linecap="round" stroke="rgb(0,0,255)" stroke-width="1.874998" fill="none" d="M 0.000000 750.000000 L 9.740263 0.000000 " />
<path stroke-linejoin="round" stroke-linecap="round" stroke="rgb(255,0,0)" stroke-width="3.749996" fill="none" d="M 9.120472 47.723518 L 9.179324 47.782345 " />
<path stroke-linejoin="round" stroke-linecap="round" stroke="rgb(0,0,255)" stroke-width="1.874998" fill="none" d="M 0.000000 750.000000 L 7.281549 0.000000 " />
<path stroke-linejoin="round" stroke-linecap="round" stroke="rgb(255,0,0)" stroke-width="3.749996" fill="none" d="M 6.840348 45.443417 L 9.120472 47.723518 " />
<path stroke-linejoin="round" stroke-linecap="round" stroke="rgb(0,0,255)" stroke-width="1.874998" fill="none" d="M 0.000000 750.000000 L 4.838705 0.000000 " />
<path stroke-linejoin="round" stroke-linecap="round" stroke="rgb(255,0,0)" stroke-width="3.749996" fill="none" d="M 4.560247 43.163269 L 6.840348 45.443417 " />
<path stroke-linejoin="round" stroke-linecap="round" stroke="rgb(0,0,255)" stroke-width="1.874998" fill="none" d="M 0.000000 750.000000 L 2.411574 0.000000 " />
<path stroke-linejoin="round" stroke-linecap="round" stroke="rgb(255,0,0)" stroke-width="3.749996" fill="none" d="M 2.300620 34.509212 L 4.560247 43.163269 " />
<path stroke-linejoin="round" stroke-linecap="round" stroke="rgb(0,0,255)" stroke-width="1.874998" fill="none" d="M 0.000000 750.000000 L 0.000000 0.000000 " />
<path stroke-linejoin="round" stroke-linecap="round" stroke="rgb(255,0,0)" stroke-width="3.749996" fill="none" d="M 0.000000 0.000000 L 2.300620 34.509212 " />
<circle cx="92.285156" cy="728.027344" r="3.749996" style="fill:rgb(0,127,0);stroke-width:1" /><circle cx="90.797246" cy="705.708660" r="3.749996" style="fill:rgb(0,127,0);stroke-width:1" /><circle cx="89.488640" cy="686.079562" r="3.749996" style="fill:rgb(0,127,0);stroke-width:1" /><circle cx="88.024803" cy="664.122149" r="3.749996" style="fill:rgb(0,127,0);stroke-width:1" /><circle cx="86.538456" cy="641.826935" r="3.749996" style="fill:rgb(0,127,0);stroke-width:1" /><circle cx="85.029066" cy="619.186074" r="3.749996" style="fill:rgb(0,127,0);stroke-width:1" /><circle cx="83.496071" cy="596.191451" r="3.749996" style="fill:rgb(0,127,0);stroke-width:1" /><circle cx="81.938960" cy="572.834685" r="3.749996" style="fill:rgb(0,127,0);stroke-width:1" /><circle cx="80.357127" cy="549.107194" r="3.749996" style="fill:rgb(0,127,0);stroke-width:1" /><circle cx="79.437017" cy="535.305373" r="3.749996" style="fill:rgb(0,127,0);stroke-width:1" /><circle cx="78.749992" cy="525.000036" r="3.749996" style="fill:rgb(0,127,0);stroke-width:1" /><circle cx="77.884600" cy="512.019262" r="3.749996" style="fill:rgb(0,127,0);stroke-width:1" /><circle cx="77.116929" cy="500.504069" r="3.749996" style="fill:rgb(0,127,0);stroke-width:1" /><circle cx="75.457290" cy="475.609817" r="3.749996" style="fill:rgb(0,127,0);stroke-width:1" /><circle cx="74.707009" cy="464.355536" r="3.749996" style="fill:rgb(0,127,0);stroke-width:1" /><circle cx="73.080696" cy="439.960733" r="3.749996" style="fill:rgb(0,127,0);stroke-width:1" /><circle cx="71.428545" cy="415.178664" r="3.749996" style="fill:rgb(0,127,0);stroke-width:1" /><circle cx="70.849210" cy="406.488620" r="3.749996" style="fill:rgb(0,127,0);stroke-width:1" /><circle cx="69.749996" cy="390.000053" r="3.749996" style="fill:rgb(0,127,0);stroke-width:1" /><circle cx="69.230765" cy="382.211588" r="3.749996" style="fill:rgb(0,127,0);stroke-width:1" /><circle cx="68.044335" cy="364.415377" r="3.749996" style="fill:rgb(0,127,0);stroke-width:1" /><circle cx="67.587197" cy="357.558221" r="3.749996" style="fill:rgb(0,127,0);stroke-width:1" /><circle cx="65.917969" cy="332.519576" r="3.749996" style="fill:rgb(0,127,0);stroke-width:1" /><circle cx="64.222433" cy="307.086691" r="3.749996" style="fill:rgb(0,127,0);stroke-width:1" /><circle cx="63.920438" cy="302.556887" r="3.749996" style="fill:rgb(0,127,0);stroke-width:1" /><circle cx="62.499985" cy="281.250089" r="3.749996" style="fill:rgb(0,127,0);stroke-width:1" /><circle cx="60.749978" cy="255.000070" r="3.749996" style="fill:rgb(0,127,0);stroke-width:1" /><circle cx="58.971763" cy="228.326708" r="3.749996" style="fill:rgb(0,127,0);stroke-width:1" /><circle cx="57.164624" cy="201.219589" r="3.749996" style="fill:rgb(0,127,0);stroke-width:1" /><circle cx="57.128906" cy="200.683683" r="3.749996" style="fill:rgb(0,127,0);stroke-width:1" /><circle cx="55.364169" cy="174.212739" r="3.749996" style="fill:rgb(0,127,0);stroke-width:1" /><circle cx="55.327848" cy="173.668116" r="3.749996" style="fill:rgb(0,127,0);stroke-width:1" /><circle cx="53.460740" cy="145.661250" r="3.749996" style="fill:rgb(0,127,0);stroke-width:1" /><circle cx="51.562496" cy="117.187634" r="3.749996" style="fill:rgb(0,127,0);stroke-width:1" /><circle cx="49.632356" cy="88.235334" r="3.749996" style="fill:rgb(0,127,0);stroke-width:1" /><circle cx="48.725814" cy="87.328747" r="3.749996" style="fill:rgb(0,127,0);stroke-width:1" /><circle cx="46.289541" cy="84.892496" r="3.749996" style="fill:rgb(0,127,0);stroke-width:1" /><circle cx="43.853246" cy="82.456157" r="3.749996" style="fill:rgb(0,127,0);stroke-width:1" /><circle cx="43.554939" cy="82.157761" r="3.749996" style="fill:rgb(0,127,0);stroke-width:1" /><circle cx="41.135207" cy="79.738095" r="3.749996" style="fill:rgb(0,127,0);stroke-width:1" /><circle cx="38.715497" cy="77.318385" r="3.749996" style="fill:rgb(0,127,0);stroke-width:1" /><circle cx="38.453892" cy="77.056736" r="3.749996" style="fill:rgb(0,127,0);stroke-width:1" /><circle cx="38.195819" cy="76.798663" r="3.749996" style="fill:rgb(0,127,0);stroke-width:1" /><circle cx="35.808586" cy="74.411452" r="3.749996" style="fill:rgb(0,127,0);stroke-width:1" /><circle cx="33.421330" cy="72.024241" r="3.749996" style="fill:rgb(0,127,0);stroke-width:1" /><circle cx="31.034097" cy="69.636986" r="3.749996" style="fill:rgb(0,127,0);stroke-width:1" /><circle cx="28.646864" cy="67.249775" r="3.749996" style="fill:rgb(0,127,0);stroke-width:1" /><circle cx="26.259631" cy="64.862609" r="3.749996" style="fill:rgb(0,127,0);stroke-width:1" /><circle cx="23.872375" cy="62.475353" r="3.749996" style="fill:rgb(0,127,0);stroke-width:1" /><circle cx="23.713231" cy="62.316120" r="3.749996" style="fill:rgb(0,127,0);stroke-width:1" /><circle cx="23.556188" cy="62.159076" r="3.749996" style="fill:rgb(0,127,0);stroke-width:1" /><circle cx="21.200582" cy="59.803516" r="3.749996" style="fill:rgb(0,127,0);stroke-width:1" /><circle cx="21.061085" cy="59.664086" r="3.749996" style="fill:rgb(0,127,0);stroke-width:1" /><circle cx="18.720970" cy="57.323903" r="3.749996" style="fill:rgb(0,127,0);stroke-width:1" /><circle cx="16.380854" cy="54.983810" r="3.749996" style="fill:rgb(0,127,0);stroke-width:1" /><circle cx="14.040738" cy="52.643672" r="3.749996" style="fill:rgb(0,127,0);stroke-width:1" /><circle cx="13.948962" cy="52.551985" r="3.749996" style="fill:rgb(0,127,0);stroke-width:1" /><circle cx="13.858393" cy="52.461416" r="3.749996" style="fill:rgb(0,127,0);stroke-width:1" /><circle cx="11.548653" cy="50.151676" r="3.749996" style="fill:rgb(0,127,0);stroke-width:1" /><circle cx="9.238914" cy="47.841981" r="3.749996" style="fill:rgb(0,127,0);stroke-width:1" /><circle cx="9.179324" cy="47.782347" r="3.749996" style="fill:rgb(0,127,0);stroke-width:1" /><circle cx="9.120472" cy="47.723517" r="3.749996" style="fill:rgb(0,127,0);stroke-width:1" /><circle cx="6.840348" cy="45.443416" r="3.749996" style="fill:rgb(0,127,0);stroke-width:1" /><circle cx="4.560247" cy="43.163270" r="3.749996" style="fill:rgb(0,127,0);stroke-width:1" /><circle cx="2.300620" cy="34.509212" r="3.749996" style="fill:rgb(0,127,0);stroke-width:1" /><circle cx="750.000000" cy="750.000000" r="3.749996" style="fill:rgb(0,127,0);stroke-width:1" /><path stroke-linejoin="round" stroke-linecap="round" stroke="rgb(255,255,255)" stroke-width="3.749996" fill="none" d="M 0.000000 750.000000 L 750.000000 750.000000 M 0.000000 750.000000 L 0.000000 0.000000 " />

</svg>