<svg xmlns="http://www.w3.org/2000/svg" version="1.1" width = "750" height = "750" viewBox = "0 0 750 750"  shape-rendering="crispEdges">
<path stroke-linejoin="round" stroke-linecap="round" stroke="rgb(255,255,0)" stroke-width="3.749996" fill="none" d="M 187.500000 750.000000 L 0.000000 0.000000 " />
<path stroke-linejoin="round" stroke-linecap="round" stroke="rgb(63,63,63)" stroke-width="3.749996" fill="none" d="M 0.000000 0.000000 L 750.000000 750.000000 M 187.500000 750.000000 L 80.357147 0.000000 " />
<path stroke-linejoin="round" stroke-linecap="round" stroke="rgb(191,191,191)" stroke-width="3.749996" fill="none" d="M 0.000000 562.500000 L 187.500000 750.000000 M 0.000000 0.000000 L 107.142853 750.000000 " />
<path stroke-linejoin="round" stroke-linecap="round" stroke="rgb(0,0,255)" stroke-width="1.874998" fill="none" d="M 0.000000 750.000000 L 750.000000 529.411743 " />
<path stroke-linejoin="round" stroke-linecap="round" stroke="rgb(255,0,0)" stroke-width="3.749996" fill="none" d="M 179.939499 697.076599 L 187.500000 750.000000 " />
<path stroke-linejoin="round" stroke-linecap="round" stroke="rgb(0,0,255)" stroke-width="1.874998" fill="none" d="M 0.000000 750.000000 L 750.000000 295.454529 " />
<path stroke-linejoin="round" stroke-linecap="round" stroke="rgb(255,0,0)" stroke-width="3.749996" fill="none" d="M 172.559738 645.418335 L 179.939499 697.076599 " />
<path stroke-linejoin="round" stroke-linecap="round" stroke="rgb(0,0,255)" stroke-width="1.874998" fill="none" d="M 0.000000 750.000000 L 750.000000 46.875000 " />
<path stroke-linejoin="round" stroke-linecap="round" stroke="rgb(255,0,0)" stroke-width="3.749996" fill="none" d="M 165.354324 594.980286 L 172.559738 645.418335 " />
<path stroke-linejoin="round" stroke-linecap="round" stroke="rgb(0,0,255)" stroke-width="1.874998" fill="none" d="M 0.000000 750.000000 L 581.250000 0.000000 " />
<path stroke-linejoin="round" stroke-linecap="round" stroke="rgb(255,0,0)" stroke-width="3.749996" fill="none" d="M 158.317123 545.719849 L 165.354324 594.980286 " />
<path stroke-linejoin="round" stroke-linecap="round" stroke="rgb(0,0,255)" stroke-width="1.874998" fill="none" d="M 0.000000 750.000000 L 450.000031 0.000000 " />
<path stroke-linejoin="round" stroke-linecap="round" stroke="rgb(255,0,0)" stroke-width="3.749996" fill="none" d="M 151.442307 497.596161 L 158.317123 545.719849 " />
<path stroke-linejoin="round" stroke-linecap="round" stroke="rgb(0,0,255)" stroke-width="1.874998" fill="none" d="M 0.000000 750.000000 L 387.500031 0.000000 " />
<path stroke-linejoin="round" stroke-linecap="round" stroke="rgb(255,0,0)" stroke-width="3.749996" fill="none" d="M 146.886276 465.703979 L 151.442307 497.596161 " />
<path stroke-linejoin="round" stroke-linecap="round" stroke="rgb(0,0,255)" stroke-width="1.874998" fill="none" d="M 0.000000 750.000000 L 362.500000 0.000000 " />
<path stroke-linejoin="round" stroke-linecap="round" stroke="rgb(255,0,0)" stroke-width="3.749996" fill="none" d="M 144.724335 450.570343 L 146.886276 465.703979 " />
<path stroke-linejoin="round" stroke-linecap="round" stroke="rgb(0,0,255)" stroke-width="1.874998" fill="none" d="M 0.000000 750.000000 L 300.000000 0.000000 " />
<path stroke-linejoin="round" stroke-linecap="round" stroke="rgb(255,0,0)" stroke-width="3.749996" fill="none" d="M 138.157898 404.605225 L 144.724335 450.570343 " />
<path stroke-linejoin="round" stroke-linecap="round" stroke="rgb(0,0,255)" stroke-width="1.874998" fill="none" d="M 0.000000 750.000000 L 253.125000 0.000000 " />
<path stroke-linejoin="round" stroke-linecap="round" stroke="rgb(255,0,0)" stroke-width="3.749996" fill="none" d="M 131.737900 359.665466 L 138.157898 404.605225 " />
<path stroke-linejoin="round" stroke-linecap="round" stroke="rgb(0,0,255)" stroke-width="1.874998" fill="none" d="M 0.000000 750.000000 L 216.666656 0.000000 " />
<path stroke-linejoin="round" stroke-linecap="round" stroke="rgb(255,0,0)" stroke-width="3.749996" fill="none" d="M 125.459564 315.716919 L 131.737900 359.665466 " />
<path stroke-linejoin="round" stroke-linecap="round" stroke="rgb(0,0,255)" stroke-width="1.874998" fill="none" d="M 0.000000 750.000000 L 187.500000 0.000000 " />
<path stroke-linejoin="round" stroke-linecap="round" stroke="rgb(255,0,0)" stroke-width="3.749996" fill="none" d="M 119.318176 272.727295 L 125.459564 315.716919 " />
<path stroke-linejoin="round" stroke-linecap="round" stroke="rgb(0,0,255)" stroke-width="1.874998" fill="none" d="M 0.000000 750.000000 L 163.636337 0.000000 " />
<path stroke-linejoin="round" stroke-linecap="round" stroke="rgb(255,0,0)" stroke-width="3.749996" fill="none" d="M 113.309341 230.665512 L 119.318176 272.727295 " />
<path stroke-linejoin="round" stroke-linecap="round" stroke="rgb(0,0,255)" stroke-width="1.874998" fill="none" d="M 0.000000 750.000000 L 143.750000 0.000000 " />
<path stroke-linejoin="round" stroke-linecap="round" stroke="rgb(255,0,0)" stroke-width="3.749996" fill="none" d="M 107.428795 189.501907 L 113.309341 230.665543 " />
<path stroke-linejoin="round" stroke-linecap="round" stroke="rgb(0,0,255)" stroke-width="1.874998" fill="none" d="M 0.000000 750.000000 L 126.923073 0.000000 " />
<path stroke-linejoin="round" stroke-linecap="round" stroke="rgb(255,0,0)" stroke-width="3.749996" fill="none" d="M 101.672508 149.207886 L 107.428795 189.501907 " />
<path stroke-linejoin="round" stroke-linecap="round" stroke="rgb(0,0,255)" stroke-width="1.874998" fill="none" d="M 0.000000 750.000000 L 123.214287 0.000000 " />
<path stroke-linejoin="round" stroke-linecap="round" stroke="rgb(255,0,0)" stroke-width="3.749996" fill="none" d="M 100.290680 139.534988 L 101.672508 149.207886 " />
<path stroke-linejoin="round" stroke-linecap="round" stroke="rgb(0,0,255)" stroke-width="1.874998" fill="none" d="M 0.000000 750.000000 L 112.500008 0.000000 " />
<path stroke-linejoin="round" stroke-linecap="round" stroke="rgb(255,0,0)" stroke-width="3.749996" fill="none" d="M 96.036560 109.756264 L 100.290680 139.534988 " />
<path stroke-linejoin="round" stroke-linecap="round" stroke="rgb(0,0,255)" stroke-width="1.874998" fill="none" d="M 0.000000 750.000000 L 109.999985 0.000000 " />
<path stroke-linejoin="round" stroke-linecap="round" stroke="rgb(255,0,0)" stroke-width="3.749996" fill="none" d="M 94.983528 102.385017 L 96.036560 109.756264 " />
<path stroke-linejoin="round" stroke-linecap="round" stroke="rgb(0,0,255)" stroke-width="1.874998" fill="none" d="M 0.000000 750.000000 L 99.999992 0.000000 " />
<path stroke-linejoin="round" stroke-linecap="round" stroke="rgb(255,0,0)" stroke-width="3.749996" fill="none" d="M 88.235291 88.235291 L 94.983528 102.385017 " />
<path stroke-linejoin="round" stroke-linecap="round" stroke="rgb(0,0,255)" stroke-width="1.874998" fill="none" d="M 0.000000 750.000000 L 98.437492 0.000000 " />
<path stroke-linejoin="round" stroke-linecap="round" stroke="rgb(255,0,0)" stroke-width="3.749996" fill="none" d="M 87.016586 87.016541 L 88.235291 88.235291 " />
<path stroke-linejoin="round" stroke-linecap="round" stroke="rgb(0,0,255)" stroke-width="1.874998" fill="none" d="M 0.000000 750.000000 L 88.235291 0.000000 " />
<path stroke-linejoin="round" stroke-linecap="round" stroke="rgb(255,0,0)" stroke-width="3.749996" fill="none" d="M 78.947380 78.947380 L 87.016586 87.016541 " />
<path stroke-linejoin="round" stroke-linecap="round" stroke="rgb(0,0,255)" stroke-width="1.874998" fill="none" d="M 0.000000 750.000000 L 87.500008 0.000000 " />
<path stroke-linejoin="round" stroke-linecap="round" stroke="rgb(255,0,0)" stroke-width="3.749996" fill="none" d="M 78.358208 78.358231 L 78.947380 78.947380 " />
<path stroke-linejoin="round" stroke-linecap="round" stroke="rgb(0,0,255)" stroke-width="1.874998" fill="none" d="M 0.000000 750.000000 L 79.166672 0.000000 " />
<path stroke-linejoin="round" stroke-linecap="round" stroke="rgb(255,0,0)" stroke-width="3.749996" fill="none" d="M 71.608032 71.608093 L 78.358208 78.358276 " />
<path stroke-linejoin="round" stroke-linecap="round" stroke="rgb(0,0,255)" stroke-width="1.874998" fill="none" d="M 0.000000 750.000000 L 71.052635 0.000000 " />
<path stroke-linejoin="round" stroke-linecap="round" stroke="rgb(255,0,0)" stroke-width="3.749996" fill="none" d="M 64.903847 64.903824 L 71.608032 71.608093 " />
<path stroke-linejoin="round" stroke-linecap="round" stroke="rgb(0,0,255)" stroke-width="1.874998" fill="none" d="M 0.000000 750.000000 L 67.164169 0.000000 " />
<path stroke-linejoin="round" stroke-linecap="round" stroke="rgb(255,0,0)" stroke-width="3.749996" fill="none" d="M 61.643826 61.643867 L 64.903847 64.903824 " />
<path stroke-linejoin="round" stroke-linecap="round" stroke="rgb(0,0,255)" stroke-width="1.874998" fill="none" d="M 0.000000 750.000000 L 63.118816 0.000000 " />
<path stroke-linejoin="round" stroke-linecap="round" stroke="rgb(255,0,0)" stroke-width="3.749996" fill="none" d="M 58.219181 58.219315 L 61.643826 61.643959 " />
<path stroke-linejoin="round" stroke-linecap="round" stroke="rgb(0,0,255)" stroke-width="1.874998" fill="none" d="M 0.000000 750.000000 L 60.426548 0.000000 " />
<path stroke-linejoin="round" stroke-linecap="round" stroke="rgb(255,0,0)" stroke-width="3.749996" fill="none" d="M 55.921040 55.921108 L 58.219181 58.219315 " />
<path stroke-linejoin="round" stroke-linecap="round" stroke="rgb(0,0,255)" stroke-width="1.874998" fill="none" d="M 0.000000 750.000000 L 59.113293 0.000000 " />
<path stroke-linejoin="round" stroke-linecap="round" stroke="rgb(255,0,0)" stroke-width="3.749996" fill="none" d="M 54.794514 54.794624 L 55.921040 55.921196 " />
<path stroke-linejoin="round" stroke-linecap="round" stroke="rgb(0,0,255)" stroke-width="1.874998" fill="none" d="M 0.000000 750.000000 L 55.147068 0.000000 " />
<path stroke-linejoin="round" stroke-linecap="round" stroke="rgb(255,0,0)" stroke-width="3.749996" fill="none" d="M 51.369846 51.369934 L 54.794514 54.794624 " />
<path stroke-linejoin="round" stroke-linecap="round" stroke="rgb(0,0,255)" stroke-width="1.874998" fill="none" d="M 0.000000 750.000000 L 51.219509 0.000000 " />
<path stroke-linejoin="round" stroke-linecap="round" stroke="rgb(255,0,0)" stroke-width="3.749996" fill="none" d="M 47.945202 47.945335 L 51.369846 51.369934 " />
<path stroke-linejoin="round" stroke-linecap="round" stroke="rgb(0,0,255)" stroke-width="1.874998" fill="none" d="M 0.000000 750.000000 L 47.330105 0.000000 " />
<path stroke-linejoin="round" stroke-linecap="round" stroke="rgb(255,0,0)" stroke-width="3.749996" fill="none" d="M 44.520535 44.520645 L 47.945202 47.945423 " />
<path stroke-linejoin="round" stroke-linecap="round" stroke="rgb(0,0,255)" stroke-width="1.874998" fill="none" d="M 0.000000 750.000000 L 43.478249 0.000000 " />
<path stroke-linejoin="round" stroke-linecap="round" stroke="rgb(255,0,0)" stroke-width="3.749996" fill="none" d="M 41.095890 41.095959 L 44.520557 44.520557 " />
<path stroke-linejoin="round" stroke-linecap="round" stroke="rgb(0,0,255)" stroke-width="1.874998" fill="none" d="M 0.000000 750.000000 L 39.663456 0.000000 " />
<path stroke-linejoin="round" stroke-linecap="round" stroke="rgb(255,0,0)" stroke-width="3.749996" fill="none" d="M 37.671223 37.671268 L 41.095890 41.095959 " />
<path stroke-linejoin="round" stroke-linecap="round" stroke="rgb(0,0,255)" stroke-width="1.874998" fill="none" d="M 0.000000 750.000000 L 35.885162 0.000000 " />
<path stroke-linejoin="round" stroke-linecap="round" stroke="rgb(255,0,0)" stroke-width="3.749996" fill="none" d="M 34.246578 34.246624 L 37.671223 37.671268 " />
<path stroke-linejoin="round" stroke-linecap="round" stroke="rgb(0,0,255)" stroke-width="1.874998" fill="none" d="M 0.000000 750.000000 L 35.545013 0.000000 " />
<path stroke-linejoin="round" stroke-linecap="round" stroke="rgb(255,0,0)" stroke-width="3.749996" fill="none" d="M 33.936649 33.936737 L 34.246578 34.246624 " />
<path stroke-linejoin="round" stroke-linecap="round" stroke="rgb(0,0,255)" stroke-width="1.874998" fill="none" d="M 0.000000 750.000000 L 35.211281 0.000000 " />
<path stroke-linejoin="round" stroke-linecap="round" stroke="rgb(255,0,0)" stroke-width="3.749996" fill="none" d="M 33.632286 33.632355 L 33.936649 33.936737 " />
<path stroke-linejoin="round" stroke-linecap="round" stroke="rgb(0,0,255)" stroke-width="1.874998" fill="none" d="M 0.000000 750.000000 L 31.542063 0.000000 " />
<path stroke-linejoin="round" stroke-linecap="round" stroke="rgb(255,0,0)" stroke-width="3.749996" fill="none" d="M 30.269041 30.269176 L 33.632286 33.632355 " />
<path stroke-linejoin="round" stroke-linecap="round" stroke="rgb(0,0,255)" stroke-width="1.874998" fill="none" d="M 0.000000 750.000000 L 27.906977 0.000000 " />
<path stroke-linejoin="round" stroke-linecap="round" stroke="rgb(255,0,0)" stroke-width="3.749996" fill="none" d="M 26.905819 26.905954 L 30.269041 30.269220 " />
<path stroke-linejoin="round" stroke-linecap="round" stroke="rgb(0,0,255)" stroke-width="1.874998" fill="none" d="M 0.000000 750.000000 L 27.649775 0.000000 " />
<path stroke-linejoin="round" stroke-linecap="round" stroke="rgb(255,0,0)" stroke-width="3.749996" fill="none" d="M 26.666656 26.666880 L 26.905819 26.905954 " />
<path stroke-linejoin="round" stroke-linecap="round" stroke="rgb(0,0,255)" stroke-width="1.874998" fill="none" d="M 0.000000 750.000000 L 24.082571 0.000000 " />
<path stroke-linejoin="round" stroke-linecap="round" stroke="rgb(255,0,0)" stroke-width="3.749996" fill="none" d="M 23.333319 23.333609 L 26.666656 26.666880 " />
<path stroke-linejoin="round" stroke-linecap="round" stroke="rgb(0,0,255)" stroke-width="1.874998" fill="none" d="M 0.000000 750.000000 L 20.547956 0.000000 " />
<path stroke-linejoin="round" stroke-linecap="round" stroke="rgb(255,0,0)" stroke-width="3.749996" fill="none" d="M 19.999981 20.000294 L 23.333319 23.333609 " />
<path stroke-linejoin="round" stroke-linecap="round" stroke="rgb(0,0,255)" stroke-width="1.874998" fill="none" d="M 0.000000 750.000000 L 20.361990 0.000000 " />
<path stroke-linejoin="round" stroke-linecap="round" stroke="rgb(255,0,0)" stroke-width="3.749996" fill="none" d="M 19.823782 19.824162 L 19.999981 20.000383 " />
<path stroke-linejoin="round" stroke-linecap="round" stroke="rgb(0,0,255)" stroke-width="1.874998" fill="none" d="M 0.000000 750.000000 L 16.891882 0.000000 " />
<path stroke-linejoin="round" stroke-linecap="round" stroke="rgb(255,0,0)" stroke-width="3.749996" fill="none" d="M 16.519815 16.520262 L 19.823782 19.824251 " />
<path stroke-linejoin="round" stroke-linecap="round" stroke="rgb(0,0,255)" stroke-width="1.874998" fill="none" d="M 0.000000 750.000000 L 13.452909 0.000000 " />
<path stroke-linejoin="round" stroke-linecap="round" stroke="rgb(255,0,0)" stroke-width="3.749996" fill="none" d="M 13.215847 13.216272 L 16.519815 16.520262 " />
<path stroke-linejoin="round" stroke-linecap="round" stroke="rgb(0,0,255)" stroke-width="1.874998" fill="none" d="M 0.000000 750.000000 L 13.333328 0.000000 " />
<path stroke-linejoin="round" stroke-linecap="round" stroke="rgb(255,0,0)" stroke-width="3.749996" fill="none" d="M 13.100423 13.100892 L 13.215847 13.216272 " />
<path stroke-linejoin="round" stroke-linecap="round" stroke="rgb(0,0,255)" stroke-width="1.874998" fill="none" d="M 0.000000 750.000000 L 13.215870 0.000000 " />
<path stroke-linejoin="round" stroke-linecap="round" stroke="rgb(255,0,0)" stroke-width="3.749996" fill="none" d="M 12.987010 12.987479 L 13.100423 13.100892 " />
<path stroke-linejoin="round" stroke-linecap="round" stroke="rgb(0,0,255)" stroke-width="1.874998" fill="none" d="M 0.000000 750.000000 L 9.868428 0.000000 " />
<path stroke-linejoin="round" stroke-linecap="round" stroke="rgb(255,0,0)" stroke-width="3.749996" fill="none" d="M 9.740263 9.740800 L 12.987010 12.987569 " />
<path stroke-linejoin="round" stroke-linecap="round" stroke="rgb(0,0,255)" stroke-width="1.874998" fill="none" d="M 0.000000 750.000000 L 6.550222 0.000000 " />
<path stroke-linejoin="round" stroke-linecap="round" stroke="rgb(255,0,0)" stroke-width="3.749996" fill="none" d="M 6.493494 6.494075 L 9.740263 9.740800 " />
<path stroke-linejoin="round" stroke-linecap="round" stroke="rgb(0,0,255)" stroke-width="1.874998" fill="none" d="M 0.000000 750.000000 L 3.260873 0.000000 " />
<path stroke-linejoin="round" stroke-linecap="round" stroke="rgb(255,0,0)" stroke-width="3.749996" fill="none" d="M 3.246747 3.247395 L 6.493494 6.494164 " />
<path stroke-linejoin="round" stroke-linecap="round" stroke="rgb(0,0,255)" stroke-width="1.874998" fill="none" d="M 0.000000 750.000000 L 0.000000 0.000000 " />
<path stroke-linejoin="round" stroke-linecap="round" stroke="rgb(255,0,0)" stroke-width="3.749996" fill="none" d="M 0.000000 0.000000 L 3.246747 3.247395 " />
<circle cx="179.939501" cy="697.076619" r="3.749996" style="fill:rgb(0,127,0);stroke-width:1" /><circle cx="172.559738" cy="645.418346" r="3.749996" style="fill:rgb(0,127,0);stroke-width:1" /><circle cx="165.354319" cy="594.980322" r="3.749996" style="fill:rgb(0,127,0);stroke-width:1" /><circle cx="158.317119" cy="545.719855" r="3.749996" style="fill:rgb(0,127,0);stroke-width:1" /><circle cx="151.442304" cy="497.596174" r="3.749996" style="fill:rgb(0,127,0);stroke-width:1" /><circle cx="146.886282" cy="465.703972" r="3.749996" style="fill:rgb(0,127,0);stroke-width:1" /><circle cx="144.724332" cy="450.570367" r="3.749996" style="fill:rgb(0,127,0);stroke-width:1" /><circle cx="138.157904" cy="404.605262" r="3.749996" style="fill:rgb(0,127,0);stroke-width:1" /><circle cx="131.737903" cy="359.665453" r="3.749996" style="fill:rgb(0,127,0);stroke-width:1" /><circle cx="125.459567" cy="315.716922" r="3.749996" style="fill:rgb(0,127,0);stroke-width:1" /><circle cx="119.318180" cy="272.727281" r="3.749996" style="fill:rgb(0,127,0);stroke-width:1" /><circle cx="113.309339" cy="230.665505" r="3.749996" style="fill:rgb(0,127,0);stroke-width:1" /><circle cx="107.428797" cy="189.501911" r="3.749996" style="fill:rgb(0,127,0);stroke-width:1" /><circle cx="101.672508" cy="149.207890" r="3.749996" style="fill:rgb(0,127,0);stroke-width:1" /><circle cx="100.290678" cy="139.534995" r="3.749996" style="fill:rgb(0,127,0);stroke-width:1" /><circle cx="96.036561" cy="109.756261" r="3.749996" style="fill:rgb(0,127,0);stroke-width:1" /><circle cx="94.983526" cy="102.385014" r="3.749996" style="fill:rgb(0,127,0);stroke-width:1" /><circle cx="88.235289" cy="88.235289" r="3.749996" style="fill:rgb(0,127,0);stroke-width:1" /><circle cx="87.016582" cy="87.016538" r="3.749996" style="fill:rgb(0,127,0);stroke-width:1" /><circle cx="78.947380" cy="78.947380" r="3.749996" style="fill:rgb(0,127,0);stroke-width:1" /><circle cx="78.358211" cy="78.358233" r="3.749996" style="fill:rgb(0,127,0);stroke-width:1" /><circle cx="71.608029" cy="71.608096" r="3.749996" style="fill:rgb(0,127,0);stroke-width:1" /><circle cx="64.903848" cy="64.903826" r="3.749996" style="fill:rgb(0,127,0);stroke-width:1" /><circle cx="61.643824" cy="61.643869" r="3.749996" style="fill:rgb(0,127,0);stroke-width:1" /><circle cx="58.219180" cy="58.219314" r="3.749996" style="fill:rgb(0,127,0);stroke-width:1" /><circle cx="55.921040" cy="55.921108" r="3.749996" style="fill:rgb(0,127,0);stroke-width:1" /><circle cx="54.794513" cy="54.794624" r="3.749996" style="fill:rgb(0,127,0);stroke-width:1" /><circle cx="51.369846" cy="51.369935" r="3.749996" style="fill:rgb(0,127,0);stroke-width:1" /><circle cx="47.945201" cy="47.945336" r="3.749996" style="fill:rgb(0,127,0);stroke-width:1" /><circle cx="44.520535" cy="44.520646" r="3.749996" style="fill:rgb(0,127,0);stroke-width:1" /><circle cx="41.095890" cy="41.095957" r="3.749996" style="fill:rgb(0,127,0);stroke-width:1" /><circle cx="37.671223" cy="37.671268" r="3.749996" style="fill:rgb(0,127,0);stroke-width:1" /><circle cx="34.246579" cy="34.246624" r="3.749996" style="fill:rgb(0,127,0);stroke-width:1" /><circle cx="33.936650" cy="33.936739" r="3.749996" style="fill:rgb(0,127,0);stroke-width:1" /><circle cx="33.632286" cy="33.632353" r="3.749996" style="fill:rgb(0,127,0);stroke-width:1" /><circle cx="30.269042" cy="30.269176" r="3.749996" style="fill:rgb(0,127,0);stroke-width:1" /><circle cx="26.905820" cy="26.905954" r="3.749996" style="fill:rgb(0,127,0);stroke-width:1" /><circle cx="26.666656" cy="26.666880" r="3.749996" style="fill:rgb(0,127,0);stroke-width:1" /><circle cx="23.333319" cy="23.333609" r="3.749996" style="fill:rgb(0,127,0);stroke-width:1" /><circle cx="19.999981" cy="20.000294" r="3.749996" style="fill:rgb(0,127,0);stroke-width:1" /><circle cx="19.823782" cy="19.824162" r="3.749996" style="fill:rgb(0,127,0);stroke-width:1" /><circle cx="16.519815" cy="16.520262" r="3.749996" style="fill:rgb(0,127,0);stroke-width:1" /><circle cx="13.215847" cy="13.216272" r="3.749996" style="fill:rgb(0,127,0);stroke-width:1" /><circle cx="13.100423" cy="13.100892" r="3.749996" style="fill:rgb(0,127,0);stroke-width:1" /><circle cx="12.987010" cy="12.987480" r="3.749996" style="fill:rgb(0,127,0);stroke-width:1" /><circle cx="9.740263" cy="9.740800" r="3.749996" style="fill:rgb(0,127,0);stroke-width:1" /><circle cx="6.493494" cy="6.494075" r="3.749996" style="fill:rgb(0,127,0);stroke-width:1" /><circle cx="3.246725" cy="3.247395" r="3.750008" style="fill:rgb(0,127,0);stroke-width:1" /><circle cx="750.000000" cy="750.000000" r="3.749996" style="fill:rgb(0,127,0);stroke-width:1" /><path stroke-linejoin="round" stroke-linecap="round" stroke="rgb(255,255,255)" stroke-width="3.749996" fill="none" d="M 0.000000 750.000000 L 750.000000 750.000000 M 0.000000 750.000000 L 0.000000 0.000000 " />

</svg>