<svg xmlns="http://www.w3.org/2000/svg" version="1.1" width = "750" height = "750" viewBox = "0 0 750 750"  shape-rendering="crispEdges">
<path stroke-linejoin="round" stroke-linecap="round" stroke="rgb(255,255,0)" stroke-width="3.749996" fill="none" d="M 74.999992 750.000000 L 0.000000 0.000000 " />
<path stroke-linejoin="round" stroke-linecap="round" stroke="rgb(63,63,63)" stroke-width="3.749996" fill="none" d="M 0.000000 0.000000 L 750.000000 750.000000 M 74.999992 750.000000 L 35.526306 0.000000 " />
<path stroke-linejoin="round" stroke-linecap="round" stroke="rgb(191,191,191)" stroke-width="3.749996" fill="none" d="M 0.000000 675.000000 L 74.999992 750.000000 M 0.000000 0.000000 L 39.473690 750.000000 " />
<path stroke-linejoin="round" stroke-linecap="round" stroke="rgb(0,0,255)" stroke-width="1.874998" fill="none" d="M 0.000000 750.000000 L 750.000000 557.692322 " />
<path stroke-linejoin="round" stroke-linecap="round" stroke="rgb(255,0,0)" stroke-width="3.749996" fill="none" d="M 74.001320 731.025269 L 74.999992 750.000000 " />
<path stroke-linejoin="round" stroke-linecap="round" stroke="rgb(0,0,255)" stroke-width="1.874998" fill="none" d="M 0.000000 750.000000 L 750.000000 355.263153 " />
<path stroke-linejoin="round" stroke-linecap="round" stroke="rgb(255,0,0)" stroke-width="3.749996" fill="none" d="M 72.672104 711.751526 L 74.001320 731.025269 " />
<path stroke-linejoin="round" stroke-linecap="round" stroke="rgb(0,0,255)" stroke-width="1.874998" fill="none" d="M 0.000000 750.000000 L 750.000000 173.076920 " />
<path stroke-linejoin="round" stroke-linecap="round" stroke="rgb(255,0,0)" stroke-width="3.749996" fill="none" d="M 71.515961 694.987732 L 72.672104 711.751526 " />
<path stroke-linejoin="round" stroke-linecap="round" stroke="rgb(0,0,255)" stroke-width="1.874998" fill="none" d="M 0.000000 750.000000 L 712.500000 0.000000 " />
<path stroke-linejoin="round" stroke-linecap="round" stroke="rgb(255,0,0)" stroke-width="3.749996" fill="none" d="M 70.212814 676.091797 L 71.515961 694.987732 " />
<path stroke-linejoin="round" stroke-linecap="round" stroke="rgb(0,0,255)" stroke-width="1.874998" fill="none" d="M 0.000000 750.000000 L 585.000000 0.000000 " />
<path stroke-linejoin="round" stroke-linecap="round" stroke="rgb(255,0,0)" stroke-width="3.749996" fill="none" d="M 69.192139 661.292114 L 70.212814 676.091797 " />
<path stroke-linejoin="round" stroke-linecap="round" stroke="rgb(0,0,255)" stroke-width="1.874998" fill="none" d="M 0.000000 750.000000 L 555.000000 0.000000 " />
<path stroke-linejoin="round" stroke-linecap="round" stroke="rgb(255,0,0)" stroke-width="3.749996" fill="none" d="M 68.889633 656.905884 L 69.192139 661.292114 " />
<path stroke-linejoin="round" stroke-linecap="round" stroke="rgb(0,0,255)" stroke-width="1.874998" fill="none" d="M 0.000000 750.000000 L 450.000031 0.000000 " />
<path stroke-linejoin="round" stroke-linecap="round" stroke="rgb(255,0,0)" stroke-width="3.749996" fill="none" d="M 67.546028 637.423279 L 68.889633 656.905884 " />
<path stroke-linejoin="round" stroke-linecap="round" stroke="rgb(0,0,255)" stroke-width="1.874998" fill="none" d="M 0.000000 750.000000 L 375.000000 0.000000 " />
<path stroke-linejoin="round" stroke-linecap="round" stroke="rgb(255,0,0)" stroke-width="3.749996" fill="none" d="M 66.181450 617.637085 L 67.546028 637.423279 " />
<path stroke-linejoin="round" stroke-linecap="round" stroke="rgb(0,0,255)" stroke-width="1.874998" fill="none" d="M 0.000000 750.000000 L 337.500000 0.000000 " />
<path stroke-linejoin="round" stroke-linecap="round" stroke="rgb(255,0,0)" stroke-width="3.749996" fill="none" d="M 65.301979 604.884521 L 66.181450 617.637085 " />
<path stroke-linejoin="round" stroke-linecap="round" stroke="rgb(0,0,255)" stroke-width="1.874998" fill="none" d="M 0.000000 750.000000 L 318.750000 0.000000 " />
<path stroke-linejoin="round" stroke-linecap="round" stroke="rgb(255,0,0)" stroke-width="3.749996" fill="none" d="M 64.795464 597.540100 L 65.301979 604.884460 " />
<path stroke-linejoin="round" stroke-linecap="round" stroke="rgb(0,0,255)" stroke-width="1.874998" fill="none" d="M 0.000000 750.000000 L 275.000000 0.000000 " />
<path stroke-linejoin="round" stroke-linecap="round" stroke="rgb(255,0,0)" stroke-width="3.749996" fill="none" d="M 63.387527 577.124939 L 64.795464 597.540100 " />
<path stroke-linejoin="round" stroke-linecap="round" stroke="rgb(0,0,255)" stroke-width="1.874998" fill="none" d="M 0.000000 750.000000 L 240.000000 0.000000 " />
<path stroke-linejoin="round" stroke-linecap="round" stroke="rgb(255,0,0)" stroke-width="3.749996" fill="none" d="M 61.957108 556.384033 L 63.387527 577.124939 " />
<path stroke-linejoin="round" stroke-linecap="round" stroke="rgb(0,0,255)" stroke-width="1.874998" fill="none" d="M 0.000000 750.000000 L 225.000015 0.000000 " />
<path stroke-linejoin="round" stroke-linecap="round" stroke="rgb(255,0,0)" stroke-width="3.749996" fill="none" d="M 61.233311 545.888977 L 61.957108 556.384033 " />
<path stroke-linejoin="round" stroke-linecap="round" stroke="rgb(0,0,255)" stroke-width="1.874998" fill="none" d="M 0.000000 750.000000 L 211.363632 0.000000 " />
<path stroke-linejoin="round" stroke-linecap="round" stroke="rgb(255,0,0)" stroke-width="3.749996" fill="none" d="M 60.503685 535.309509 L 61.233311 545.888977 " />
<path stroke-linejoin="round" stroke-linecap="round" stroke="rgb(0,0,255)" stroke-width="1.874998" fill="none" d="M 0.000000 750.000000 L 200.000015 0.000000 " />
<path stroke-linejoin="round" stroke-linecap="round" stroke="rgb(255,0,0)" stroke-width="3.749996" fill="none" d="M 59.835278 525.617676 L 60.503685 535.309509 " />
<path stroke-linejoin="round" stroke-linecap="round" stroke="rgb(0,0,255)" stroke-width="1.874998" fill="none" d="M 0.000000 750.000000 L 187.500000 0.000000 " />
<path stroke-linejoin="round" stroke-linecap="round" stroke="rgb(255,0,0)" stroke-width="3.749996" fill="none" d="M 59.026703 513.893250 L 59.835278 525.617676 " />
<path stroke-linejoin="round" stroke-linecap="round" stroke="rgb(0,0,255)" stroke-width="1.874998" fill="none" d="M 0.000000 750.000000 L 167.307709 0.000000 " />
<path stroke-linejoin="round" stroke-linecap="round" stroke="rgb(255,0,0)" stroke-width="3.749996" fill="none" d="M 57.525558 492.126801 L 59.026680 513.893250 " />
<path stroke-linejoin="round" stroke-linecap="round" stroke="rgb(0,0,255)" stroke-width="1.874998" fill="none" d="M 0.000000 750.000000 L 149.999985 0.000000 " />
<path stroke-linejoin="round" stroke-linecap="round" stroke="rgb(255,0,0)" stroke-width="3.749996" fill="none" d="M 55.999676 470.001617 L 57.525558 492.126801 " />
<path stroke-linejoin="round" stroke-linecap="round" stroke="rgb(0,0,255)" stroke-width="1.874998" fill="none" d="M 0.000000 750.000000 L 145.000000 0.000000 " />
<path stroke-linejoin="round" stroke-linecap="round" stroke="rgb(255,0,0)" stroke-width="3.749996" fill="none" d="M 55.508896 462.885040 L 55.999676 470.001617 " />
<path stroke-linejoin="round" stroke-linecap="round" stroke="rgb(0,0,255)" stroke-width="1.874998" fill="none" d="M 0.000000 750.000000 L 131.250015 0.000000 " />
<path stroke-linejoin="round" stroke-linecap="round" stroke="rgb(255,0,0)" stroke-width="3.749996" fill="none" d="M 54.020897 441.309113 L 55.508896 462.884979 " />
<path stroke-linejoin="round" stroke-linecap="round" stroke="rgb(0,0,255)" stroke-width="1.874998" fill="none" d="M 0.000000 750.000000 L 119.117661 0.000000 " />
<path stroke-linejoin="round" stroke-linecap="round" stroke="rgb(255,0,0)" stroke-width="3.749996" fill="none" d="M 52.509071 419.387421 L 54.020897 441.309113 " />
<path stroke-linejoin="round" stroke-linecap="round" stroke="rgb(0,0,255)" stroke-width="1.874998" fill="none" d="M 0.000000 750.000000 L 116.666656 0.000000 " />
<path stroke-linejoin="round" stroke-linecap="round" stroke="rgb(255,0,0)" stroke-width="3.749996" fill="none" d="M 52.177193 414.575226 L 52.509071 419.387421 " />
<path stroke-linejoin="round" stroke-linecap="round" stroke="rgb(0,0,255)" stroke-width="1.874998" fill="none" d="M 0.000000 750.000000 L 108.333328 0.000000 " />
<path stroke-linejoin="round" stroke-linecap="round" stroke="rgb(255,0,0)" stroke-width="3.749996" fill="none" d="M 50.972790 397.111450 L 52.177193 414.575226 " />
<path stroke-linejoin="round" stroke-linecap="round" stroke="rgb(0,0,255)" stroke-width="1.874998" fill="none" d="M 0.000000 750.000000 L 106.578964 0.000000 " />
<path stroke-linejoin="round" stroke-linecap="round" stroke="rgb(255,0,0)" stroke-width="3.749996" fill="none" d="M 50.703072 393.200562 L 50.972790 397.111420 " />
<path stroke-linejoin="round" stroke-linecap="round" stroke="rgb(0,0,255)" stroke-width="1.874998" fill="none" d="M 0.000000 750.000000 L 97.500000 0.000000 " />
<path stroke-linejoin="round" stroke-linecap="round" stroke="rgb(255,0,0)" stroke-width="3.749996" fill="none" d="M 49.205975 371.492523 L 50.703072 393.200562 " />
<path stroke-linejoin="round" stroke-linecap="round" stroke="rgb(0,0,255)" stroke-width="1.874998" fill="none" d="M 0.000000 750.000000 L 89.285728 0.000000 " />
<path stroke-linejoin="round" stroke-linecap="round" stroke="rgb(255,0,0)" stroke-width="3.749996" fill="none" d="M 47.685341 349.443237 L 49.205975 371.492493 " />
<path stroke-linejoin="round" stroke-linecap="round" stroke="rgb(0,0,255)" stroke-width="1.874998" fill="none" d="M 0.000000 750.000000 L 81.818169 0.000000 " />
<path stroke-linejoin="round" stroke-linecap="round" stroke="rgb(255,0,0)" stroke-width="3.749996" fill="none" d="M 46.140591 327.044525 L 47.685341 349.443237 " />
<path stroke-linejoin="round" stroke-linecap="round" stroke="rgb(0,0,255)" stroke-width="1.874998" fill="none" d="M 0.000000 750.000000 L 81.521744 0.000000 " />
<path stroke-linejoin="round" stroke-linecap="round" stroke="rgb(255,0,0)" stroke-width="3.749996" fill="none" d="M 46.075703 326.103546 L 46.140591 327.044525 " />
<path stroke-linejoin="round" stroke-linecap="round" stroke="rgb(0,0,255)" stroke-width="1.874998" fill="none" d="M 0.000000 750.000000 L 77.922081 0.000000 " />
<path stroke-linejoin="round" stroke-linecap="round" stroke="rgb(255,0,0)" stroke-width="3.749996" fill="none" d="M 45.264000 314.333923 L 46.075703 326.103546 " />
<path stroke-linejoin="round" stroke-linecap="round" stroke="rgb(0,0,255)" stroke-width="1.874998" fill="none" d="M 0.000000 750.000000 L 77.354263 0.000000 " />
<path stroke-linejoin="round" stroke-linecap="round" stroke="rgb(255,0,0)" stroke-width="3.749996" fill="none" d="M 45.053558 313.176453 L 45.264000 314.333923 " />
<path stroke-linejoin="round" stroke-linecap="round" stroke="rgb(0,0,255)" stroke-width="1.874998" fill="none" d="M 0.000000 750.000000 L 73.660721 0.000000 " />
<path stroke-linejoin="round" stroke-linecap="round" stroke="rgb(255,0,0)" stroke-width="3.749996" fill="none" d="M 43.656818 305.494324 L 45.053558 313.176453 " />
<path stroke-linejoin="round" stroke-linecap="round" stroke="rgb(0,0,255)" stroke-width="1.874998" fill="none" d="M 0.000000 750.000000 L 70.000000 0.000000 " />
<path stroke-linejoin="round" stroke-linecap="round" stroke="rgb(255,0,0)" stroke-width="3.749996" fill="none" d="M 42.223133 297.609192 L 43.656818 305.494324 " />
<path stroke-linejoin="round" stroke-linecap="round" stroke="rgb(0,0,255)" stroke-width="1.874998" fill="none" d="M 0.000000 750.000000 L 66.371689 0.000000 " />
<path stroke-linejoin="round" stroke-linecap="round" stroke="rgb(255,0,0)" stroke-width="3.749996" fill="none" d="M 40.751068 289.512817 L 42.223133 297.609192 " />
<path stroke-linejoin="round" stroke-linecap="round" stroke="rgb(0,0,255)" stroke-width="1.874998" fill="none" d="M 0.000000 750.000000 L 62.775337 0.000000 " />
<path stroke-linejoin="round" stroke-linecap="round" stroke="rgb(255,0,0)" stroke-width="3.749996" fill="none" d="M 39.239040 281.196655 L 40.751068 289.512817 " />
<path stroke-linejoin="round" stroke-linecap="round" stroke="rgb(0,0,255)" stroke-width="1.874998" fill="none" d="M 0.000000 750.000000 L 62.227070 0.000000 " />
<path stroke-linejoin="round" stroke-linecap="round" stroke="rgb(255,0,0)" stroke-width="3.749996" fill="none" d="M 39.003723 279.902405 L 39.239040 281.196655 " />
<path stroke-linejoin="round" stroke-linecap="round" stroke="rgb(0,0,255)" stroke-width="1.874998" fill="none" d="M 0.000000 750.000000 L 58.695652 0.000000 " />
<path stroke-linejoin="round" stroke-linecap="round" stroke="rgb(255,0,0)" stroke-width="3.749996" fill="none" d="M 37.456310 271.391571 L 39.003723 279.902405 " />
<path stroke-linejoin="round" stroke-linecap="round" stroke="rgb(0,0,255)" stroke-width="1.874998" fill="none" d="M 0.000000 750.000000 L 55.194809 0.000000 " />
<path stroke-linejoin="round" stroke-linecap="round" stroke="rgb(255,0,0)" stroke-width="3.749996" fill="none" d="M 35.865986 262.644714 L 37.456310 271.391571 " />
<path stroke-linejoin="round" stroke-linecap="round" stroke="rgb(0,0,255)" stroke-width="1.874998" fill="none" d="M 0.000000 750.000000 L 51.724144 0.000000 " />
<path stroke-linejoin="round" stroke-linecap="round" stroke="rgb(255,0,0)" stroke-width="3.749996" fill="none" d="M 34.230911 253.651794 L 35.865986 262.644623 " />
<path stroke-linejoin="round" stroke-linecap="round" stroke="rgb(0,0,255)" stroke-width="1.874998" fill="none" d="M 0.000000 750.000000 L 51.282047 0.000000 " />
<path stroke-linejoin="round" stroke-linecap="round" stroke="rgb(255,0,0)" stroke-width="3.749996" fill="none" d="M 34.018299 252.482422 L 34.230911 253.651794 " />
<path stroke-linejoin="round" stroke-linecap="round" stroke="rgb(0,0,255)" stroke-width="1.874998" fill="none" d="M 0.000000 750.000000 L 50.847462 0.000000 " />
<path stroke-linejoin="round" stroke-linecap="round" stroke="rgb(255,0,0)" stroke-width="3.749996" fill="none" d="M 33.808308 251.327499 L 34.018299 252.482422 " />
<path stroke-linejoin="round" stroke-linecap="round" stroke="rgb(0,0,255)" stroke-width="1.874998" fill="none" d="M 0.000000 750.000000 L 47.468349 0.000000 " />
<path stroke-linejoin="round" stroke-linecap="round" stroke="rgb(255,0,0)" stroke-width="3.749996" fill="none" d="M 32.141693 242.161102 L 33.808308 251.327499 " />
<path stroke-linejoin="round" stroke-linecap="round" stroke="rgb(0,0,255)" stroke-width="1.874998" fill="none" d="M 0.000000 750.000000 L 44.117645 0.000000 " />
<path stroke-linejoin="round" stroke-linecap="round" stroke="rgb(255,0,0)" stroke-width="3.749996" fill="none" d="M 30.427471 232.732880 L 32.141693 242.161102 " />
<path stroke-linejoin="round" stroke-linecap="round" stroke="rgb(0,0,255)" stroke-width="1.874998" fill="none" d="M 0.000000 750.000000 L 43.750004 0.000000 " />
<path stroke-linejoin="round" stroke-linecap="round" stroke="rgb(255,0,0)" stroke-width="3.749996" fill="none" d="M 30.235514 231.677063 L 30.427471 232.732880 " />
<path stroke-linejoin="round" stroke-linecap="round" stroke="rgb(0,0,255)" stroke-width="1.874998" fill="none" d="M 0.000000 750.000000 L 43.388420 0.000000 " />
<path stroke-linejoin="round" stroke-linecap="round" stroke="rgb(255,0,0)" stroke-width="3.749996" fill="none" d="M 30.045927 230.634460 L 30.235514 231.677063 " />
<path stroke-linejoin="round" stroke-linecap="round" stroke="rgb(0,0,255)" stroke-width="1.874998" fill="none" d="M 0.000000 750.000000 L 40.123455 0.000000 " />
<path stroke-linejoin="round" stroke-linecap="round" stroke="rgb(255,0,0)" stroke-width="3.749996" fill="none" d="M 28.299004 221.026291 L 30.045927 230.634460 " />
<path stroke-linejoin="round" stroke-linecap="round" stroke="rgb(0,0,255)" stroke-width="1.874998" fill="none" d="M 0.000000 750.000000 L 36.885246 0.000000 " />
<path stroke-linejoin="round" stroke-linecap="round" stroke="rgb(255,0,0)" stroke-width="3.749996" fill="none" d="M 26.501343 211.139206 L 28.299004 221.026291 " />
<path stroke-linejoin="round" stroke-linecap="round" stroke="rgb(0,0,255)" stroke-width="1.874998" fill="none" d="M 0.000000 750.000000 L 36.585377 0.000000 " />
<path stroke-linejoin="round" stroke-linecap="round" stroke="rgb(255,0,0)" stroke-width="3.749996" fill="none" d="M 26.331469 210.204849 L 26.501343 211.139206 " />
<path stroke-linejoin="round" stroke-linecap="round" stroke="rgb(0,0,255)" stroke-width="1.874998" fill="none" d="M 0.000000 750.000000 L 36.290333 0.000000 " />
<path stroke-linejoin="round" stroke-linecap="round" stroke="rgb(255,0,0)" stroke-width="3.749996" fill="none" d="M 26.163742 209.282471 L 26.331469 210.204849 " />
<path stroke-linejoin="round" stroke-linecap="round" stroke="rgb(0,0,255)" stroke-width="1.874998" fill="none" d="M 0.000000 750.000000 L 33.400810 0.000000 " />
<path stroke-linejoin="round" stroke-linecap="round" stroke="rgb(255,0,0)" stroke-width="3.749996" fill="none" d="M 24.490400 200.079071 L 26.163742 209.282471 " />
<path stroke-linejoin="round" stroke-linecap="round" stroke="rgb(0,0,255)" stroke-width="1.874998" fill="none" d="M 0.000000 750.000000 L 33.132523 0.000000 " />
<path stroke-linejoin="round" stroke-linecap="round" stroke="rgb(255,0,0)" stroke-width="3.749996" fill="none" d="M 24.332151 199.208618 L 24.490400 200.079071 " />
<path stroke-linejoin="round" stroke-linecap="round" stroke="rgb(0,0,255)" stroke-width="1.874998" fill="none" d="M 0.000000 750.000000 L 32.868526 0.000000 " />
<path stroke-linejoin="round" stroke-linecap="round" stroke="rgb(255,0,0)" stroke-width="3.749996" fill="none" d="M 24.175913 198.349396 L 24.332151 199.208618 " />
<path stroke-linejoin="round" stroke-linecap="round" stroke="rgb(0,0,255)" stroke-width="1.874998" fill="none" d="M 0.000000 750.000000 L 29.761904 0.000000 " />
<path stroke-linejoin="round" stroke-linecap="round" stroke="rgb(255,0,0)" stroke-width="3.749996" fill="none" d="M 22.300266 188.033295 L 24.175913 198.349396 " />
<path stroke-linejoin="round" stroke-linecap="round" stroke="rgb(0,0,255)" stroke-width="1.874998" fill="none" d="M 0.000000 750.000000 L 29.527567 0.000000 " />
<path stroke-linejoin="round" stroke-linecap="round" stroke="rgb(255,0,0)" stroke-width="3.749996" fill="none" d="M 22.155941 187.239395 L 22.300266 188.033295 " />
<path stroke-linejoin="round" stroke-linecap="round" stroke="rgb(0,0,255)" stroke-width="1.874998" fill="none" d="M 0.000000 750.000000 L 29.296875 0.000000 " />
<path stroke-linejoin="round" stroke-linecap="round" stroke="rgb(255,0,0)" stroke-width="3.749996" fill="none" d="M 22.013449 186.455719 L 22.155941 187.239395 " />
<path stroke-linejoin="round" stroke-linecap="round" stroke="rgb(0,0,255)" stroke-width="1.874998" fill="none" d="M 0.000000 750.000000 L 29.069759 0.000000 " />
<path stroke-linejoin="round" stroke-linecap="round" stroke="rgb(255,0,0)" stroke-width="3.749996" fill="none" d="M 21.872789 185.682068 L 22.013449 186.455719 " />
<path stroke-linejoin="round" stroke-linecap="round" stroke="rgb(0,0,255)" stroke-width="1.874998" fill="none" d="M 0.000000 750.000000 L 26.264593 0.000000 " />
<path stroke-linejoin="round" stroke-linecap="round" stroke="rgb(255,0,0)" stroke-width="3.749996" fill="none" d="M 20.102978 175.948196 L 21.872789 185.682068 " />
<path stroke-linejoin="round" stroke-linecap="round" stroke="rgb(0,0,255)" stroke-width="1.874998" fill="none" d="M 0.000000 750.000000 L 23.255825 0.000000 " />
<path stroke-linejoin="round" stroke-linecap="round" stroke="rgb(255,0,0)" stroke-width="3.749996" fill="none" d="M 18.135578 165.127472 L 20.102978 175.948212 " />
<path stroke-linejoin="round" stroke-linecap="round" stroke="rgb(0,0,255)" stroke-width="1.874998" fill="none" d="M 0.000000 750.000000 L 20.270281 0.000000 " />
<path stroke-linejoin="round" stroke-linecap="round" stroke="rgb(255,0,0)" stroke-width="3.749996" fill="none" d="M 16.108654 153.979401 L 18.135578 165.127472 " />
<path stroke-linejoin="round" stroke-linecap="round" stroke="rgb(0,0,255)" stroke-width="1.874998" fill="none" d="M 0.000000 750.000000 L 20.114937 0.000000 " />
<path stroke-linejoin="round" stroke-linecap="round" stroke="rgb(255,0,0)" stroke-width="3.749996" fill="none" d="M 16.001099 153.387726 L 16.108654 153.979401 " />
<path stroke-linejoin="round" stroke-linecap="round" stroke="rgb(0,0,255)" stroke-width="1.874998" fill="none" d="M 0.000000 750.000000 L 17.175570 0.000000 " />
<path stroke-linejoin="round" stroke-linecap="round" stroke="rgb(255,0,0)" stroke-width="3.749996" fill="none" d="M 13.924442 141.966171 L 16.001099 153.387726 " />
<path stroke-linejoin="round" stroke-linecap="round" stroke="rgb(0,0,255)" stroke-width="1.874998" fill="none" d="M 0.000000 750.000000 L 17.045460 0.000000 " />
<path stroke-linejoin="round" stroke-linecap="round" stroke="rgb(255,0,0)" stroke-width="3.749996" fill="none" d="M 13.830677 141.450409 L 13.924442 141.966171 " />
<path stroke-linejoin="round" stroke-linecap="round" stroke="rgb(0,0,255)" stroke-width="1.874998" fill="none" d="M 0.000000 750.000000 L 16.917295 0.000000 " />
<path stroke-linejoin="round" stroke-linecap="round" stroke="rgb(255,0,0)" stroke-width="3.749996" fill="none" d="M 13.738163 140.941635 L 13.830677 141.450409 " />
<path stroke-linejoin="round" stroke-linecap="round" stroke="rgb(0,0,255)" stroke-width="1.874998" fill="none" d="M 0.000000 750.000000 L 16.791054 0.000000 " />
<path stroke-linejoin="round" stroke-linecap="round" stroke="rgb(255,0,0)" stroke-width="3.749996" fill="none" d="M 13.646878 140.439529 L 13.738163 140.941635 " />
<path stroke-linejoin="round" stroke-linecap="round" stroke="rgb(0,0,255)" stroke-width="1.874998" fill="none" d="M 0.000000 750.000000 L 16.666666 0.000000 " />
<path stroke-linejoin="round" stroke-linecap="round" stroke="rgb(255,0,0)" stroke-width="3.749996" fill="none" d="M 13.556801 139.944138 L 13.646878 140.439529 " />
<path stroke-linejoin="round" stroke-linecap="round" stroke="rgb(0,0,255)" stroke-width="1.874998" fill="none" d="M 0.000000 750.000000 L 16.544111 0.000000 " />
<path stroke-linejoin="round" stroke-linecap="round" stroke="rgb(255,0,0)" stroke-width="3.749996" fill="none" d="M 13.467908 139.455139 L 13.556801 139.944138 " />
<path stroke-linejoin="round" stroke-linecap="round" stroke="rgb(0,0,255)" stroke-width="1.874998" fill="none" d="M 0.000000 750.000000 L 16.423367 0.000000 " />
<path stroke-linejoin="round" stroke-linecap="round" stroke="rgb(255,0,0)" stroke-width="3.749996" fill="none" d="M 13.380155 138.972534 L 13.467908 139.455139 " />
<path stroke-linejoin="round" stroke-linecap="round" stroke="rgb(0,0,255)" stroke-width="1.874998" fill="none" d="M 0.000000 750.000000 L 16.304344 0.000000 " />
<path stroke-linejoin="round" stroke-linecap="round" stroke="rgb(255,0,0)" stroke-width="3.749996" fill="none" d="M 13.293564 138.496262 L 13.380155 138.972534 " />
<path stroke-linejoin="round" stroke-linecap="round" stroke="rgb(0,0,255)" stroke-width="1.874998" fill="none" d="M 0.000000 750.000000 L 14.044941 0.000000 " />
<path stroke-linejoin="round" stroke-linecap="round" stroke="rgb(255,0,0)" stroke-width="3.749996" fill="none" d="M 11.623398 129.310364 L 13.293564 138.496262 " />
<path stroke-linejoin="round" stroke-linecap="round" stroke="rgb(0,0,255)" stroke-width="1.874998" fill="none" d="M 0.000000 750.000000 L 11.194020 0.000000 " />
<path stroke-linejoin="round" stroke-linecap="round" stroke="rgb(255,0,0)" stroke-width="3.749996" fill="none" d="M 9.443007 117.318169 L 11.623398 129.310364 " />
<path stroke-linejoin="round" stroke-linecap="round" stroke="rgb(0,0,255)" stroke-width="1.874998" fill="none" d="M 0.000000 750.000000 L 11.111118 0.000000 " />
<path stroke-linejoin="round" stroke-linecap="round" stroke="rgb(255,0,0)" stroke-width="3.749996" fill="none" d="M 9.378344 116.962486 L 9.443007 117.318169 " />
<path stroke-linejoin="round" stroke-linecap="round" stroke="rgb(0,0,255)" stroke-width="1.874998" fill="none" d="M 0.000000 750.000000 L 11.029423 0.000000 " />
<path stroke-linejoin="round" stroke-linecap="round" stroke="rgb(255,0,0)" stroke-width="3.749996" fill="none" d="M 9.314529 116.611588 L 9.378344 116.962486 " />
<path stroke-linejoin="round" stroke-linecap="round" stroke="rgb(0,0,255)" stroke-width="1.874998" fill="none" d="M 0.000000 750.000000 L 10.948912 0.000000 " />
<path stroke-linejoin="round" stroke-linecap="round" stroke="rgb(255,0,0)" stroke-width="3.749996" fill="none" d="M 9.251610 116.265404 L 9.314529 116.611588 " />
<path stroke-linejoin="round" stroke-linecap="round" stroke="rgb(0,0,255)" stroke-width="1.874998" fill="none" d="M 0.000000 750.000000 L 10.791376 0.000000 " />
<path stroke-linejoin="round" stroke-linecap="round" stroke="rgb(255,0,0)" stroke-width="3.749996" fill="none" d="M 9.128250 115.586983 L 9.251610 116.265404 " />
<path stroke-linejoin="round" stroke-linecap="round" stroke="rgb(0,0,255)" stroke-width="1.874998" fill="none" d="M 0.000000 750.000000 L 10.714285 0.000000 " />
<path stroke-linejoin="round" stroke-linecap="round" stroke="rgb(255,0,0)" stroke-width="3.749996" fill="none" d="M 9.067789 115.254456 L 9.128250 115.586983 " />
<path stroke-linejoin="round" stroke-linecap="round" stroke="rgb(0,0,255)" stroke-width="1.874998" fill="none" d="M 0.000000 750.000000 L 10.638289 0.000000 " />
<path stroke-linejoin="round" stroke-linecap="round" stroke="rgb(255,0,0)" stroke-width="3.749996" fill="none" d="M 9.008132 114.926353 L 9.067789 115.254456 " />
<path stroke-linejoin="round" stroke-linecap="round" stroke="rgb(0,0,255)" stroke-width="1.874998" fill="none" d="M 0.000000 750.000000 L 10.563389 0.000000 " />
<path stroke-linejoin="round" stroke-linecap="round" stroke="rgb(255,0,0)" stroke-width="3.749996" fill="none" d="M 8.949258 114.602501 L 9.008132 114.926353 " />
<path stroke-linejoin="round" stroke-linecap="round" stroke="rgb(0,0,255)" stroke-width="1.874998" fill="none" d="M 0.000000 750.000000 L 10.489516 0.000000 " />
<path stroke-linejoin="round" stroke-linecap="round" stroke="rgb(255,0,0)" stroke-width="3.749996" fill="none" d="M 8.891143 114.282913 L 8.949258 114.602501 " />
<path stroke-linejoin="round" stroke-linecap="round" stroke="rgb(0,0,255)" stroke-width="1.874998" fill="none" d="M 0.000000 750.000000 L 10.416672 0.000000 " />
<path stroke-linejoin="round" stroke-linecap="round" stroke="rgb(255,0,0)" stroke-width="3.749996" fill="none" d="M 8.833788 113.967422 L 8.891143 114.282913 " />
<path stroke-linejoin="round" stroke-linecap="round" stroke="rgb(0,0,255)" stroke-width="1.874998" fill="none" d="M 0.000000 750.000000 L 10.344833 0.000000 " />
<path stroke-linejoin="round" stroke-linecap="round" stroke="rgb(255,0,0)" stroke-width="3.749996" fill="none" d="M 8.777149 113.655991 L 8.833788 113.967422 " />
<path stroke-linejoin="round" stroke-linecap="round" stroke="rgb(0,0,255)" stroke-width="1.874998" fill="none" d="M 0.000000 750.000000 L 10.273978 0.000000 " />
<path stroke-linejoin="round" stroke-linecap="round" stroke="rgb(255,0,0)" stroke-width="3.749996" fill="none" d="M 8.721248 113.348434 L 8.777149 113.655991 " />
<path stroke-linejoin="round" stroke-linecap="round" stroke="rgb(0,0,255)" stroke-width="1.874998" fill="none" d="M 0.000000 750.000000 L 7.839717 0.000000 " />
<path stroke-linejoin="round" stroke-linecap="round" stroke="rgb(255,0,0)" stroke-width="3.749996" fill="none" d="M 6.767236 102.601357 L 8.721248 113.348434 " />
<path stroke-linejoin="round" stroke-linecap="round" stroke="rgb(0,0,255)" stroke-width="1.874998" fill="none" d="M 0.000000 750.000000 L 7.785469 0.000000 " />
<path stroke-linejoin="round" stroke-linecap="round" stroke="rgb(255,0,0)" stroke-width="3.749996" fill="none" d="M 6.722935 102.357742 L 6.767236 102.601425 " />
<path stroke-linejoin="round" stroke-linecap="round" stroke="rgb(0,0,255)" stroke-width="1.874998" fill="none" d="M 0.000000 750.000000 L 7.731959 0.000000 " />
<path stroke-linejoin="round" stroke-linecap="round" stroke="rgb(255,0,0)" stroke-width="3.749996" fill="none" d="M 6.679192 102.117287 L 6.722935 102.357742 " />
<path stroke-linejoin="round" stroke-linecap="round" stroke="rgb(0,0,255)" stroke-width="1.874998" fill="none" d="M 0.000000 750.000000 L 5.136989 0.000000 " />
<path stroke-linejoin="round" stroke-linecap="round" stroke="rgb(255,0,0)" stroke-width="3.749996" fill="none" d="M 4.585102 80.574699 L 6.679192 102.117355 " />
<path stroke-linejoin="round" stroke-linecap="round" stroke="rgb(0,0,255)" stroke-width="1.874998" fill="none" d="M 0.000000 750.000000 L 2.559721 0.000000 " />
<path stroke-linejoin="round" stroke-linecap="round" stroke="rgb(255,0,0)" stroke-width="3.749996" fill="none" d="M 2.409115 44.125916 L 4.585102 80.574699 " />
<path stroke-linejoin="round" stroke-linecap="round" stroke="rgb(0,0,255)" stroke-width="1.874998" fill="none" d="M 0.000000 750.000000 L 0.000000 0.000000 " />
<path stroke-linejoin="round" stroke-linecap="round" stroke="rgb(255,0,0)" stroke-width="3.749996" fill="none" d="M 0.000000 0.000000 L 2.409115 44.125980 " />
<circle cx="74.001320" cy="731.025293" r="3.749996" style="fill:rgb(0,127,0);stroke-width:1" /><circle cx="72.672106" cy="711.751521" r="3.749996" style="fill:rgb(0,127,0);stroke-width:1" /><circle cx="71.515962" cy="694.987714" r="3.749996" style="fill:rgb(0,127,0);stroke-width:1" /><circle cx="70.212811" cy="676.091775" r="3.749996" style="fill:rgb(0,127,0);stroke-width:1" /><circle cx="69.192141" cy="661.292128" r="3.749996" style="fill:rgb(0,127,0);stroke-width:1" /><circle cx="68.889633" cy="656.905890" r="3.749996" style="fill:rgb(0,127,0);stroke-width:1" /><circle cx="67.546025" cy="637.423307" r="3.749996" style="fill:rgb(0,127,0);stroke-width:1" /><circle cx="66.181451" cy="617.637098" r="3.749996" style="fill:rgb(0,127,0);stroke-width:1" /><circle cx="65.301977" cy="604.884513" r="3.749996" style="fill:rgb(0,127,0);stroke-width:1" /><circle cx="64.795464" cy="597.540088" r="3.749996" style="fill:rgb(0,127,0);stroke-width:1" /><circle cx="63.387528" cy="577.124946" r="3.749996" style="fill:rgb(0,127,0);stroke-width:1" /><circle cx="61.957106" cy="556.384027" r="3.749996" style="fill:rgb(0,127,0);stroke-width:1" /><circle cx="61.233312" cy="545.888968" r="3.749996" style="fill:rgb(0,127,0);stroke-width:1" /><circle cx="60.503684" cy="535.309497" r="3.749996" style="fill:rgb(0,127,0);stroke-width:1" /><circle cx="59.835277" cy="525.617693" r="3.749996" style="fill:rgb(0,127,0);stroke-width:1" /><circle cx="59.026703" cy="513.893221" r="3.749996" style="fill:rgb(0,127,0);stroke-width:1" /><circle cx="57.525560" cy="492.126815" r="3.749996" style="fill:rgb(0,127,0);stroke-width:1" /><circle cx="55.999674" cy="470.001608" r="3.749996" style="fill:rgb(0,127,0);stroke-width:1" /><circle cx="55.508897" cy="462.885048" r="3.749996" style="fill:rgb(0,127,0);stroke-width:1" /><circle cx="54.020897" cy="441.309141" r="3.749996" style="fill:rgb(0,127,0);stroke-width:1" /><circle cx="52.509069" cy="419.387413" r="3.749996" style="fill:rgb(0,127,0);stroke-width:1" /><circle cx="52.177191" cy="414.575242" r="3.749996" style="fill:rgb(0,127,0);stroke-width:1" /><circle cx="50.972790" cy="397.111452" r="3.749996" style="fill:rgb(0,127,0);stroke-width:1" /><circle cx="50.703071" cy="393.200576" r="3.749996" style="fill:rgb(0,127,0);stroke-width:1" /><circle cx="49.205974" cy="371.492529" r="3.749996" style="fill:rgb(0,127,0);stroke-width:1" /><circle cx="47.685340" cy="349.443234" r="3.749996" style="fill:rgb(0,127,0);stroke-width:1" /><circle cx="46.140589" cy="327.044534" r="3.749996" style="fill:rgb(0,127,0);stroke-width:1" /><circle cx="46.075702" cy="326.103542" r="3.749996" style="fill:rgb(0,127,0);stroke-width:1" /><circle cx="45.263998" cy="314.333942" r="3.749996" style="fill:rgb(0,127,0);stroke-width:1" /><circle cx="45.053557" cy="313.176440" r="3.749996" style="fill:rgb(0,127,0);stroke-width:1" /><circle cx="43.656819" cy="305.494308" r="3.749996" style="fill:rgb(0,127,0);stroke-width:1" /><circle cx="42.223133" cy="297.609184" r="3.749996" style="fill:rgb(0,127,0);stroke-width:1" /><circle cx="40.751070" cy="289.512813" r="3.749996" style="fill:rgb(0,127,0);stroke-width:1" /><circle cx="39.239042" cy="281.196646" r="3.749996" style="fill:rgb(0,127,0);stroke-width:1" /><circle cx="39.003722" cy="279.902391" r="3.749996" style="fill:rgb(0,127,0);stroke-width:1" /><circle cx="37.456311" cy="271.391597" r="3.749996" style="fill:rgb(0,127,0);stroke-width:1" /><circle cx="35.865985" cy="262.644701" r="3.749996" style="fill:rgb(0,127,0);stroke-width:1" /><circle cx="34.230910" cy="253.651790" r="3.749996" style="fill:rgb(0,127,0);stroke-width:1" /><circle cx="34.018300" cy="252.482414" r="3.749996" style="fill:rgb(0,127,0);stroke-width:1" /><circle cx="33.808306" cy="251.327489" r="3.749996" style="fill:rgb(0,127,0);stroke-width:1" /><circle cx="32.141693" cy="242.161095" r="3.749996" style="fill:rgb(0,127,0);stroke-width:1" /><circle cx="30.427471" cy="232.732885" r="3.749996" style="fill:rgb(0,127,0);stroke-width:1" /><circle cx="30.235514" cy="231.677055" r="3.749996" style="fill:rgb(0,127,0);stroke-width:1" /><circle cx="30.045927" cy="230.634458" r="3.749996" style="fill:rgb(0,127,0);stroke-width:1" /><circle cx="28.299004" cy="221.026294" r="3.749996" style="fill:rgb(0,127,0);stroke-width:1" /><circle cx="26.501343" cy="211.139202" r="3.749996" style="fill:rgb(0,127,0);stroke-width:1" /><circle cx="26.331469" cy="210.204866" r="3.749996" style="fill:rgb(0,127,0);stroke-width:1" /><circle cx="26.163742" cy="209.282465" r="3.749996" style="fill:rgb(0,127,0);stroke-width:1" /><circle cx="24.490401" cy="200.079057" r="3.749996" style="fill:rgb(0,127,0);stroke-width:1" /><circle cx="24.332151" cy="199.208625" r="3.749996" style="fill:rgb(0,127,0);stroke-width:1" /><circle cx="24.175912" cy="198.349390" r="3.749996" style="fill:rgb(0,127,0);stroke-width:1" /><circle cx="22.300266" cy="188.033290" r="3.749996" style="fill:rgb(0,127,0);stroke-width:1" /><circle cx="22.155941" cy="187.239401" r="3.749996" style="fill:rgb(0,127,0);stroke-width:1" /><circle cx="22.013448" cy="186.455727" r="3.749996" style="fill:rgb(0,127,0);stroke-width:1" /><circle cx="21.872789" cy="185.682066" r="3.749996" style="fill:rgb(0,127,0);stroke-width:1" /><circle cx="20.102978" cy="175.948195" r="3.749996" style="fill:rgb(0,127,0);stroke-width:1" /><circle cx="18.135577" cy="165.127471" r="3.749996" style="fill:rgb(0,127,0);stroke-width:1" /><circle cx="16.108654" cy="153.979406" r="3.749996" style="fill:rgb(0,127,0);stroke-width:1" /><circle cx="16.001098" cy="153.387733" r="3.749996" style="fill:rgb(0,127,0);stroke-width:1" /><circle cx="13.924442" cy="141.966172" r="3.749996" style="fill:rgb(0,127,0);stroke-width:1" /><circle cx="13.830677" cy="141.450405" r="3.749996" style="fill:rgb(0,127,0);stroke-width:1" /><circle cx="13.738163" cy="140.941635" r="3.749996" style="fill:rgb(0,127,0);stroke-width:1" /><circle cx="13.646878" cy="140.439525" r="3.749996" style="fill:rgb(0,127,0);stroke-width:1" /><circle cx="13.556801" cy="139.944144" r="3.749996" style="fill:rgb(0,127,0);stroke-width:1" /><circle cx="13.467908" cy="139.455132" r="3.749996" style="fill:rgb(0,127,0);stroke-width:1" /><circle cx="13.380155" cy="138.972536" r="3.749996" style="fill:rgb(0,127,0);stroke-width:1" /><circle cx="13.293564" cy="138.496265" r="3.749996" style="fill:rgb(0,127,0);stroke-width:1" /><circle cx="11.623397" cy="129.310369" r="3.749996" style="fill:rgb(0,127,0);stroke-width:1" /><circle cx="9.443007" cy="117.318168" r="3.749996" style="fill:rgb(0,127,0);stroke-width:1" /><circle cx="9.378344" cy="116.962485" r="3.749996" style="fill:rgb(0,127,0);stroke-width:1" /><circle cx="9.314530" cy="116.611585" r="3.749996" style="fill:rgb(0,127,0);stroke-width:1" /><circle cx="9.251609" cy="116.265401" r="3.749996" style="fill:rgb(0,127,0);stroke-width:1" /><circle cx="9.128250" cy="115.586981" r="3.749996" style="fill:rgb(0,127,0);stroke-width:1" /><circle cx="9.067789" cy="115.254454" r="3.749996" style="fill:rgb(0,127,0);stroke-width:1" /><circle cx="9.008132" cy="114.926353" r="3.749996" style="fill:rgb(0,127,0);stroke-width:1" /><circle cx="8.949257" cy="114.602499" r="3.749996" style="fill:rgb(0,127,0);stroke-width:1" /><circle cx="8.891143" cy="114.282914" r="3.749996" style="fill:rgb(0,127,0);stroke-width:1" /><circle cx="8.833788" cy="113.967419" r="3.749996" style="fill:rgb(0,127,0);stroke-width:1" /><circle cx="8.777149" cy="113.655992" r="3.749996" style="fill:rgb(0,127,0);stroke-width:1" /><circle cx="8.721247" cy="113.348432" r="3.749996" style="fill:rgb(0,127,0);stroke-width:1" /><circle cx="6.767236" cy="102.601357" r="3.749996" style="fill:rgb(0,127,0);stroke-width:1" /><circle cx="6.722935" cy="102.357745" r="3.749996" style="fill:rgb(0,127,0);stroke-width:1" /><circle cx="6.679192" cy="102.117285" r="3.749996" style="fill:rgb(0,127,0);stroke-width:1" /><circle cx="4.585102" cy="80.574699" r="3.749996" style="fill:rgb(0,127,0);stroke-width:1" /><circle cx="2.409115" cy="44.125915" r="3.749996" style="fill:rgb(0,127,0);stroke-width:1" /><circle cx="750.000000" cy="750.000000" r="3.749996" style="fill:rgb(0,127,0);stroke-width:1" /><path stroke-linejoin="round" stroke-linecap="round" stroke="rgb(255,255,255)" stroke-width="3.749996" fill="none" d="M 0.000000 750.000000 L 750.000000 750.000000 M 0.000000 750.000000 L 0.000000 0.000000 " />

</svg>