<svg xmlns="http://www.w3.org/2000/svg" version="1.1" width = "750" height = "750" viewBox = "0 0 750 750"  shape-rendering="crispEdges">
<path stroke-linejoin="round" stroke-linecap="round" stroke="rgb(255,255,0)" stroke-width="3.749996" fill="none" d="M 93.750000 750.000000 L 0.000000 0.000000 " />
<path stroke-linejoin="round" stroke-linecap="round" stroke="rgb(63,63,63)" stroke-width="3.749996" fill="none" d="M 0.000000 0.000000 L 750.000000 750.000000 M 93.750000 750.000000 L 43.750004 0.000000 " />
<path stroke-linejoin="round" stroke-linecap="round" stroke="rgb(191,191,191)" stroke-width="3.749996" fill="none" d="M 0.000000 656.250000 L 93.750000 750.000000 M 0.000000 0.000000 L 49.999996 750.000000 " />
<path stroke-linejoin="round" stroke-linecap="round" stroke="rgb(0,0,255)" stroke-width="1.874998" fill="none" d="M 0.000000 750.000000 L 750.000000 727.941162 " />
<path stroke-linejoin="round" stroke-linecap="round" stroke="rgb(255,0,0)" stroke-width="3.749996" fill="none" d="M 93.566536 747.248047 L 93.750000 750.000000 " />
<path stroke-linejoin="round" stroke-linecap="round" stroke="rgb(0,0,255)" stroke-width="1.874998" fill="none" d="M 0.000000 750.000000 L 750.000000 704.545471 " />
<path stroke-linejoin="round" stroke-linecap="round" stroke="rgb(255,0,0)" stroke-width="3.749996" fill="none" d="M 90.814590 744.496094 L 93.566536 747.248047 " />
<path stroke-linejoin="round" stroke-linecap="round" stroke="rgb(0,0,255)" stroke-width="1.874998" fill="none" d="M 0.000000 750.000000 L 750.000000 679.687500 " />
<path stroke-linejoin="round" stroke-linecap="round" stroke="rgb(255,0,0)" stroke-width="3.749996" fill="none" d="M 88.062645 741.744141 L 90.814590 744.496094 " />
<path stroke-linejoin="round" stroke-linecap="round" stroke="rgb(0,0,255)" stroke-width="1.874998" fill="none" d="M 0.000000 750.000000 L 750.000000 659.090881 " />
<path stroke-linejoin="round" stroke-linecap="round" stroke="rgb(255,0,0)" stroke-width="3.749996" fill="none" d="M 85.905701 739.587219 L 88.062645 741.744141 " />
<path stroke-linejoin="round" stroke-linecap="round" stroke="rgb(0,0,255)" stroke-width="1.874998" fill="none" d="M 0.000000 750.000000 L 750.000000 653.225830 " />
<path stroke-linejoin="round" stroke-linecap="round" stroke="rgb(255,0,0)" stroke-width="3.749996" fill="none" d="M 85.310677 738.992188 L 85.905701 739.587219 " />
<path stroke-linejoin="round" stroke-linecap="round" stroke="rgb(0,0,255)" stroke-width="1.874998" fill="none" d="M 0.000000 750.000000 L 750.000000 625.000000 " />
<path stroke-linejoin="round" stroke-linecap="round" stroke="rgb(255,0,0)" stroke-width="3.749996" fill="none" d="M 82.558731 736.240234 L 85.310677 738.992188 " />
<path stroke-linejoin="round" stroke-linecap="round" stroke="rgb(0,0,255)" stroke-width="1.874998" fill="none" d="M 0.000000 750.000000 L 750.000000 594.827576 " />
<path stroke-linejoin="round" stroke-linecap="round" stroke="rgb(255,0,0)" stroke-width="3.749996" fill="none" d="M 79.806763 733.488220 L 82.558731 736.240234 " />
<path stroke-linejoin="round" stroke-linecap="round" stroke="rgb(0,0,255)" stroke-width="1.874998" fill="none" d="M 0.000000 750.000000 L 750.000000 562.500000 " />
<path stroke-linejoin="round" stroke-linecap="round" stroke="rgb(255,0,0)" stroke-width="3.749996" fill="none" d="M 77.054817 730.736267 L 79.806763 733.488220 " />
<path stroke-linejoin="round" stroke-linecap="round" stroke="rgb(0,0,255)" stroke-width="1.874998" fill="none" d="M 0.000000 750.000000 L 750.000000 543.103455 " />
<path stroke-linejoin="round" stroke-linecap="round" stroke="rgb(255,0,0)" stroke-width="3.749996" fill="none" d="M 75.492874 729.174316 L 77.054817 730.736267 " />
<path stroke-linejoin="round" stroke-linecap="round" stroke="rgb(0,0,255)" stroke-width="1.874998" fill="none" d="M 0.000000 750.000000 L 750.000000 508.928589 " />
<path stroke-linejoin="round" stroke-linecap="round" stroke="rgb(255,0,0)" stroke-width="3.749996" fill="none" d="M 72.889679 726.571167 L 75.492874 729.174316 " />
<path stroke-linejoin="round" stroke-linecap="round" stroke="rgb(0,0,255)" stroke-width="1.874998" fill="none" d="M 0.000000 750.000000 L 750.000000 472.222198 " />
<path stroke-linejoin="round" stroke-linecap="round" stroke="rgb(255,0,0)" stroke-width="3.749996" fill="none" d="M 70.286484 723.968018 L 72.889679 726.571167 " />
<path stroke-linejoin="round" stroke-linecap="round" stroke="rgb(0,0,255)" stroke-width="1.874998" fill="none" d="M 0.000000 750.000000 L 750.000000 455.357147 " />
<path stroke-linejoin="round" stroke-linecap="round" stroke="rgb(255,0,0)" stroke-width="3.749996" fill="none" d="M 69.151749 722.833252 L 70.286484 723.968018 " />
<path stroke-linejoin="round" stroke-linecap="round" stroke="rgb(0,0,255)" stroke-width="1.874998" fill="none" d="M 0.000000 750.000000 L 750.000000 432.692291 " />
<path stroke-linejoin="round" stroke-linecap="round" stroke="rgb(255,0,0)" stroke-width="3.749996" fill="none" d="M 67.683289 721.364746 L 69.151749 722.833252 " />
<path stroke-linejoin="round" stroke-linecap="round" stroke="rgb(0,0,255)" stroke-width="1.874998" fill="none" d="M 0.000000 750.000000 L 750.000000 390.000000 " />
<path stroke-linejoin="round" stroke-linecap="round" stroke="rgb(255,0,0)" stroke-width="3.749996" fill="none" d="M 65.080070 718.761536 L 67.683289 721.364746 " />
<path stroke-linejoin="round" stroke-linecap="round" stroke="rgb(0,0,255)" stroke-width="1.874998" fill="none" d="M 0.000000 750.000000 L 750.000000 343.750000 " />
<path stroke-linejoin="round" stroke-linecap="round" stroke="rgb(255,0,0)" stroke-width="3.749996" fill="none" d="M 62.476875 716.158386 L 65.080070 718.761536 " />
<path stroke-linejoin="round" stroke-linecap="round" stroke="rgb(0,0,255)" stroke-width="1.874998" fill="none" d="M 0.000000 750.000000 L 750.000000 0.000000 " />
<path stroke-linejoin="round" stroke-linecap="round" stroke="rgb(255,0,0)" stroke-width="3.749996" fill="none" d="M 60.687168 689.312805 L 62.476875 716.158386 " />
<path stroke-linejoin="round" stroke-linecap="round" stroke="rgb(0,0,255)" stroke-width="1.874998" fill="none" d="M 0.000000 750.000000 L 710.526306 0.000000 " />
<path stroke-linejoin="round" stroke-linecap="round" stroke="rgb(255,0,0)" stroke-width="3.749996" fill="none" d="M 59.046978 687.672607 L 60.687168 689.312805 " />
<path stroke-linejoin="round" stroke-linecap="round" stroke="rgb(0,0,255)" stroke-width="1.874998" fill="none" d="M 0.000000 750.000000 L 637.500000 0.000000 " />
<path stroke-linejoin="round" stroke-linecap="round" stroke="rgb(255,0,0)" stroke-width="3.749996" fill="none" d="M 55.766567 684.392273 L 59.046978 687.672607 " />
<path stroke-linejoin="round" stroke-linecap="round" stroke="rgb(0,0,255)" stroke-width="1.874998" fill="none" d="M 0.000000 750.000000 L 571.428589 0.000000 " />
<path stroke-linejoin="round" stroke-linecap="round" stroke="rgb(255,0,0)" stroke-width="3.749996" fill="none" d="M 52.486183 681.111877 L 55.766567 684.392273 " />
<path stroke-linejoin="round" stroke-linecap="round" stroke="rgb(0,0,255)" stroke-width="1.874998" fill="none" d="M 0.000000 750.000000 L 362.903229 0.000000 " />
<path stroke-linejoin="round" stroke-linecap="round" stroke="rgb(255,0,0)" stroke-width="3.749996" fill="none" d="M 50.166851 646.321838 L 52.486183 681.111877 " />
<path stroke-linejoin="round" stroke-linecap="round" stroke="rgb(0,0,255)" stroke-width="1.874998" fill="none" d="M 0.000000 750.000000 L 256.097565 0.000000 " />
<path stroke-linejoin="round" stroke-linecap="round" stroke="rgb(255,0,0)" stroke-width="3.749996" fill="none" d="M 47.755123 610.145752 L 50.166851 646.321838 " />
<path stroke-linejoin="round" stroke-linecap="round" stroke="rgb(0,0,255)" stroke-width="1.874998" fill="none" d="M 0.000000 750.000000 L 220.588226 0.000000 " />
<path stroke-linejoin="round" stroke-linecap="round" stroke="rgb(255,0,0)" stroke-width="3.749996" fill="none" d="M 46.531567 591.792603 L 47.755123 610.145752 " />
<path stroke-linejoin="round" stroke-linecap="round" stroke="rgb(0,0,255)" stroke-width="1.874998" fill="none" d="M 0.000000 750.000000 L 166.666656 0.000000 " />
<path stroke-linejoin="round" stroke-linecap="round" stroke="rgb(255,0,0)" stroke-width="3.749996" fill="none" d="M 43.906712 552.419739 L 46.531567 591.792603 " />
<path stroke-linejoin="round" stroke-linecap="round" stroke="rgb(0,0,255)" stroke-width="1.874998" fill="none" d="M 0.000000 750.000000 L 152.343750 0.000000 " />
<path stroke-linejoin="round" stroke-linecap="round" stroke="rgb(255,0,0)" stroke-width="3.749996" fill="none" d="M 42.974331 538.434082 L 43.906712 552.419739 " />
<path stroke-linejoin="round" stroke-linecap="round" stroke="rgb(0,0,255)" stroke-width="1.874998" fill="none" d="M 0.000000 750.000000 L 138.461533 0.000000 " />
<path stroke-linejoin="round" stroke-linecap="round" stroke="rgb(255,0,0)" stroke-width="3.749996" fill="none" d="M 41.935398 522.849915 L 42.974331 538.434082 " />
<path stroke-linejoin="round" stroke-linecap="round" stroke="rgb(0,0,255)" stroke-width="1.874998" fill="none" d="M 0.000000 750.000000 L 130.000015 0.000000 " />
<path stroke-linejoin="round" stroke-linecap="round" stroke="rgb(255,0,0)" stroke-width="3.749996" fill="none" d="M 41.223541 512.171936 L 41.935398 522.849915 " />
<path stroke-linejoin="round" stroke-linecap="round" stroke="rgb(0,0,255)" stroke-width="1.874998" fill="none" d="M 0.000000 750.000000 L 126.623375 0.000000 " />
<path stroke-linejoin="round" stroke-linecap="round" stroke="rgb(255,0,0)" stroke-width="3.749996" fill="none" d="M 40.920429 507.625183 L 41.223541 512.171936 " />
<path stroke-linejoin="round" stroke-linecap="round" stroke="rgb(0,0,255)" stroke-width="1.874998" fill="none" d="M 0.000000 750.000000 L 121.621635 0.000000 " />
<path stroke-linejoin="round" stroke-linecap="round" stroke="rgb(255,0,0)" stroke-width="3.749996" fill="none" d="M 40.449501 500.561401 L 40.920429 507.625183 " />
<path stroke-linejoin="round" stroke-linecap="round" stroke="rgb(0,0,255)" stroke-width="1.874998" fill="none" d="M 0.000000 750.000000 L 116.071434 0.000000 " />
<path stroke-linejoin="round" stroke-linecap="round" stroke="rgb(255,0,0)" stroke-width="3.749996" fill="none" d="M 39.893745 492.225037 L 40.449501 500.561401 " />
<path stroke-linejoin="round" stroke-linecap="round" stroke="rgb(0,0,255)" stroke-width="1.874998" fill="none" d="M 0.000000 750.000000 L 114.705879 0.000000 " />
<path stroke-linejoin="round" stroke-linecap="round" stroke="rgb(255,0,0)" stroke-width="3.749996" fill="none" d="M 39.751278 490.087860 L 39.893745 492.225037 " />
<path stroke-linejoin="round" stroke-linecap="round" stroke="rgb(0,0,255)" stroke-width="1.874998" fill="none" d="M 0.000000 750.000000 L 112.068970 0.000000 " />
<path stroke-linejoin="round" stroke-linecap="round" stroke="rgb(255,0,0)" stroke-width="3.749996" fill="none" d="M 39.469353 485.859009 L 39.751278 490.087860 " />
<path stroke-linejoin="round" stroke-linecap="round" stroke="rgb(0,0,255)" stroke-width="1.874998" fill="none" d="M 0.000000 750.000000 L 88.815788 0.000000 " />
<path stroke-linejoin="round" stroke-linecap="round" stroke="rgb(255,0,0)" stroke-width="3.749996" fill="none" d="M 36.519573 441.612488 L 39.469353 485.859009 " />
<path stroke-linejoin="round" stroke-linecap="round" stroke="rgb(0,0,255)" stroke-width="1.874998" fill="none" d="M 0.000000 750.000000 L 69.767433 0.000000 " />
<path stroke-linejoin="round" stroke-linecap="round" stroke="rgb(255,0,0)" stroke-width="3.749996" fill="none" d="M 33.249760 392.565155 L 36.519573 441.612488 " />
<path stroke-linejoin="round" stroke-linecap="round" stroke="rgb(0,0,255)" stroke-width="1.874998" fill="none" d="M 0.000000 750.000000 L 56.603775 0.000000 " />
<path stroke-linejoin="round" stroke-linecap="round" stroke="rgb(255,0,0)" stroke-width="3.749996" fill="none" d="M 30.307285 348.428345 L 33.249760 392.565155 " />
<path stroke-linejoin="round" stroke-linecap="round" stroke="rgb(0,0,255)" stroke-width="1.874998" fill="none" d="M 0.000000 750.000000 L 52.631580 0.000000 " />
<path stroke-linejoin="round" stroke-linecap="round" stroke="rgb(255,0,0)" stroke-width="3.749996" fill="none" d="M 29.271149 332.886139 L 30.307285 348.428345 " />
<path stroke-linejoin="round" stroke-linecap="round" stroke="rgb(0,0,255)" stroke-width="1.874998" fill="none" d="M 0.000000 750.000000 L 50.420166 0.000000 " />
<path stroke-linejoin="round" stroke-linecap="round" stroke="rgb(255,0,0)" stroke-width="3.749996" fill="none" d="M 28.658777 323.700653 L 29.271149 332.886139 " />
<path stroke-linejoin="round" stroke-linecap="round" stroke="rgb(0,0,255)" stroke-width="1.874998" fill="none" d="M 0.000000 750.000000 L 41.999996 0.000000 " />
<path stroke-linejoin="round" stroke-linecap="round" stroke="rgb(255,0,0)" stroke-width="3.749996" fill="none" d="M 26.057682 284.684204 L 28.658777 323.700653 " />
<path stroke-linejoin="round" stroke-linecap="round" stroke="rgb(0,0,255)" stroke-width="1.874998" fill="none" d="M 0.000000 750.000000 L 33.333332 0.000000 " />
<path stroke-linejoin="round" stroke-linecap="round" stroke="rgb(255,0,0)" stroke-width="3.749996" fill="none" d="M 22.831499 236.291397 L 26.057682 284.684204 " />
<path stroke-linejoin="round" stroke-linecap="round" stroke="rgb(0,0,255)" stroke-width="1.874998" fill="none" d="M 0.000000 750.000000 L 25.862061 0.000000 " />
<path stroke-linejoin="round" stroke-linecap="round" stroke="rgb(255,0,0)" stroke-width="3.749996" fill="none" d="M 19.458666 185.698898 L 22.831499 236.291397 " />
<path stroke-linejoin="round" stroke-linecap="round" stroke="rgb(0,0,255)" stroke-width="1.874998" fill="none" d="M 0.000000 750.000000 L 19.354843 0.000000 " />
<path stroke-linejoin="round" stroke-linecap="round" stroke="rgb(255,0,0)" stroke-width="3.749996" fill="none" d="M 15.928946 132.753250 L 19.458666 185.698898 " />
<path stroke-linejoin="round" stroke-linecap="round" stroke="rgb(0,0,255)" stroke-width="1.874998" fill="none" d="M 0.000000 750.000000 L 17.142847 0.000000 " />
<path stroke-linejoin="round" stroke-linecap="round" stroke="rgb(255,0,0)" stroke-width="3.749996" fill="none" d="M 14.573291 112.418442 L 15.928946 132.753250 " />
<path stroke-linejoin="round" stroke-linecap="round" stroke="rgb(0,0,255)" stroke-width="1.874998" fill="none" d="M 0.000000 750.000000 L 14.423087 0.000000 " />
<path stroke-linejoin="round" stroke-linecap="round" stroke="rgb(255,0,0)" stroke-width="3.749996" fill="none" d="M 12.778826 85.501312 L 14.573291 112.418442 " />
<path stroke-linejoin="round" stroke-linecap="round" stroke="rgb(0,0,255)" stroke-width="1.874998" fill="none" d="M 0.000000 750.000000 L 9.036139 0.000000 " />
<path stroke-linejoin="round" stroke-linecap="round" stroke="rgb(255,0,0)" stroke-width="3.749996" fill="none" d="M 8.736536 24.867117 L 12.778826 85.501312 " />
<path stroke-linejoin="round" stroke-linecap="round" stroke="rgb(0,0,255)" stroke-width="1.874998" fill="none" d="M 0.000000 750.000000 L 4.261360 0.000000 " />
<path stroke-linejoin="round" stroke-linecap="round" stroke="rgb(255,0,0)" stroke-width="3.749996" fill="none" d="M 4.237287 4.237354 L 8.736536 24.867117 " />
<path stroke-linejoin="round" stroke-linecap="round" stroke="rgb(0,0,255)" stroke-width="1.874998" fill="none" d="M 0.000000 750.000000 L 0.000000 0.000000 " />
<path stroke-linejoin="round" stroke-linecap="round" stroke="rgb(255,0,0)" stroke-width="3.749996" fill="none" d="M 0.000000 0.000000 L 4.237287 4.237354 " />
<circle cx="93.566537" cy="747.248054" r="3.749996" style="fill:rgb(0,127,0);stroke-width:1" /><circle cx="90.814590" cy="744.496085" r="3.749996" style="fill:rgb(0,127,0);stroke-width:1" /><circle cx="88.062644" cy="741.744138" r="3.749996" style="fill:rgb(0,127,0);stroke-width:1" /><circle cx="85.905701" cy="739.587195" r="3.749996" style="fill:rgb(0,127,0);stroke-width:1" /><circle cx="85.310675" cy="738.992169" r="3.749996" style="fill:rgb(0,127,0);stroke-width:1" /><circle cx="82.558729" cy="736.240223" r="3.749996" style="fill:rgb(0,127,0);stroke-width:1" /><circle cx="79.806760" cy="733.488254" r="3.749996" style="fill:rgb(0,127,0);stroke-width:1" /><circle cx="77.054814" cy="730.736308" r="3.749996" style="fill:rgb(0,127,0);stroke-width:1" /><circle cx="75.492874" cy="729.174368" r="3.749996" style="fill:rgb(0,127,0);stroke-width:1" /><circle cx="72.889678" cy="726.571172" r="3.749996" style="fill:rgb(0,127,0);stroke-width:1" /><circle cx="70.286483" cy="723.967977" r="3.749996" style="fill:rgb(0,127,0);stroke-width:1" /><circle cx="69.151752" cy="722.833246" r="3.749996" style="fill:rgb(0,127,0);stroke-width:1" /><circle cx="67.683287" cy="721.364759" r="3.749996" style="fill:rgb(0,127,0);stroke-width:1" /><circle cx="65.080069" cy="718.761563" r="3.749996" style="fill:rgb(0,127,0);stroke-width:1" /><circle cx="62.476873" cy="716.158368" r="3.749996" style="fill:rgb(0,127,0);stroke-width:1" /><circle cx="60.687169" cy="689.312831" r="3.749996" style="fill:rgb(0,127,0);stroke-width:1" /><circle cx="59.046976" cy="687.672637" r="3.749996" style="fill:rgb(0,127,0);stroke-width:1" /><circle cx="55.766568" cy="684.392251" r="3.749996" style="fill:rgb(0,127,0);stroke-width:1" /><circle cx="52.486181" cy="681.111887" r="3.749996" style="fill:rgb(0,127,0);stroke-width:1" /><circle cx="50.166853" cy="646.321848" r="3.749996" style="fill:rgb(0,127,0);stroke-width:1" /><circle cx="47.755122" cy="610.145733" r="3.749996" style="fill:rgb(0,127,0);stroke-width:1" /><circle cx="46.531565" cy="591.792628" r="3.749996" style="fill:rgb(0,127,0);stroke-width:1" /><circle cx="43.906711" cy="552.419767" r="3.749996" style="fill:rgb(0,127,0);stroke-width:1" /><circle cx="42.974330" cy="538.434036" r="3.749996" style="fill:rgb(0,127,0);stroke-width:1" /><circle cx="41.935399" cy="522.849932" r="3.749996" style="fill:rgb(0,127,0);stroke-width:1" /><circle cx="41.223541" cy="512.171902" r="3.749996" style="fill:rgb(0,127,0);stroke-width:1" /><circle cx="40.920429" cy="507.625178" r="3.749996" style="fill:rgb(0,127,0);stroke-width:1" /><circle cx="40.449500" cy="500.561401" r="3.749996" style="fill:rgb(0,127,0);stroke-width:1" /><circle cx="39.893746" cy="492.225051" r="3.749996" style="fill:rgb(0,127,0);stroke-width:1" /><circle cx="39.751276" cy="490.087867" r="3.749996" style="fill:rgb(0,127,0);stroke-width:1" /><circle cx="39.469354" cy="485.859007" r="3.749996" style="fill:rgb(0,127,0);stroke-width:1" /><circle cx="36.519572" cy="441.612460" r="3.749996" style="fill:rgb(0,127,0);stroke-width:1" /><circle cx="33.249758" cy="392.565161" r="3.749996" style="fill:rgb(0,127,0);stroke-width:1" /><circle cx="30.307285" cy="348.428339" r="3.749996" style="fill:rgb(0,127,0);stroke-width:1" /><circle cx="29.271148" cy="332.886145" r="3.749996" style="fill:rgb(0,127,0);stroke-width:1" /><circle cx="28.658777" cy="323.700652" r="3.749996" style="fill:rgb(0,127,0);stroke-width:1" /><circle cx="26.057683" cy="284.684211" r="3.749996" style="fill:rgb(0,127,0);stroke-width:1" /><circle cx="22.831500" cy="236.291394" r="3.749996" style="fill:rgb(0,127,0);stroke-width:1" /><circle cx="19.458666" cy="185.698897" r="3.749996" style="fill:rgb(0,127,0);stroke-width:1" /><circle cx="15.928946" cy="132.753253" r="3.749996" style="fill:rgb(0,127,0);stroke-width:1" /><circle cx="14.573291" cy="112.418443" r="3.749996" style="fill:rgb(0,127,0);stroke-width:1" /><circle cx="12.778826" cy="85.501313" r="3.749996" style="fill:rgb(0,127,0);stroke-width:1" /><circle cx="8.736536" cy="24.867117" r="3.749996" style="fill:rgb(0,127,0);stroke-width:1" /><circle cx="4.237287" cy="4.237354" r="3.749996" style="fill:rgb(0,127,0);stroke-width:1" /><circle cx="750.000000" cy="750.000000" r="3.749996" style="fill:rgb(0,127,0);stroke-width:1" /><path stroke-linejoin="round" stroke-linecap="round" stroke="rgb(255,255,255)" stroke-width="3.749996" fill="none" d="M 0.000000 750.000000 L 750.000000 750.000000 M 0.000000 750.000000 L 0.000000 0.000000 " />

</svg>