<svg xmlns="http://www.w3.org/2000/svg" version="1.1" width = "750" height = "750" viewBox = "0 0 750 750"  shape-rendering="crispEdges">
<path stroke-linejoin="round" stroke-linecap="round" stroke="rgb(255,255,0)" stroke-width="3.749996" fill="none" d="M 375.000000 750.000000 L 0.000000 0.000000 " />
<path stroke-linejoin="round" stroke-linecap="round" stroke="rgb(63,63,63)" stroke-width="3.749996" fill="none" d="M 0.000000 0.000000 L 750.000000 750.000000 M 375.000000 750.000000 L 124.999992 0.000000 " />
<path stroke-linejoin="round" stroke-linecap="round" stroke="rgb(191,191,191)" stroke-width="3.749996" fill="none" d="M 0.000000 375.000000 L 375.000000 750.000000 M 0.000000 0.000000 L 250.000000 750.000000 " />
<path stroke-linejoin="round" stroke-linecap="round" stroke="rgb(0,0,255)" stroke-width="1.874998" fill="none" d="M 0.000000 750.000000 L 750.000000 729.729736 " />
<path stroke-linejoin="round" stroke-linecap="round" stroke="rgb(255,0,0)" stroke-width="3.749996" fill="none" d="M 371.651764 739.955322 L 375.000000 750.000000 " />
<path stroke-linejoin="round" stroke-linecap="round" stroke="rgb(0,0,255)" stroke-width="1.874998" fill="none" d="M 0.000000 750.000000 L 750.000000 708.333313 " />
<path stroke-linejoin="round" stroke-linecap="round" stroke="rgb(255,0,0)" stroke-width="3.749996" fill="none" d="M 364.835754 729.731323 L 371.651764 739.955322 " />
<path stroke-linejoin="round" stroke-linecap="round" stroke="rgb(0,0,255)" stroke-width="1.874998" fill="none" d="M 0.000000 750.000000 L 750.000000 689.189209 " />
<path stroke-linejoin="round" stroke-linecap="round" stroke="rgb(255,0,0)" stroke-width="3.749996" fill="none" d="M 358.945709 720.896301 L 364.835754 729.731323 " />
<path stroke-linejoin="round" stroke-linecap="round" stroke="rgb(0,0,255)" stroke-width="1.874998" fill="none" d="M 0.000000 750.000000 L 750.000000 666.666687 " />
<path stroke-linejoin="round" stroke-linecap="round" stroke="rgb(255,0,0)" stroke-width="3.749996" fill="none" d="M 352.255188 710.860535 L 358.945709 720.896301 " />
<path stroke-linejoin="round" stroke-linecap="round" stroke="rgb(0,0,255)" stroke-width="1.874998" fill="none" d="M 0.000000 750.000000 L 750.000000 642.857178 " />
<path stroke-linejoin="round" stroke-linecap="round" stroke="rgb(255,0,0)" stroke-width="3.749996" fill="none" d="M 345.448303 700.650208 L 352.255188 710.860535 " />
<path stroke-linejoin="round" stroke-linecap="round" stroke="rgb(0,0,255)" stroke-width="1.874998" fill="none" d="M 0.000000 750.000000 L 750.000000 617.647095 " />
<path stroke-linejoin="round" stroke-linecap="round" stroke="rgb(255,0,0)" stroke-width="3.749996" fill="none" d="M 338.522034 690.260803 L 345.448303 700.650208 " />
<path stroke-linejoin="round" stroke-linecap="round" stroke="rgb(0,0,255)" stroke-width="1.874998" fill="none" d="M 0.000000 750.000000 L 750.000000 590.909058 " />
<path stroke-linejoin="round" stroke-linecap="round" stroke="rgb(255,0,0)" stroke-width="3.749996" fill="none" d="M 331.473206 679.687500 L 338.522034 690.260803 " />
<path stroke-linejoin="round" stroke-linecap="round" stroke="rgb(0,0,255)" stroke-width="1.874998" fill="none" d="M 0.000000 750.000000 L 750.000000 573.529419 " />
<path stroke-linejoin="round" stroke-linecap="round" stroke="rgb(255,0,0)" stroke-width="3.749996" fill="none" d="M 327.046753 673.047852 L 331.473206 679.687500 " />
<path stroke-linejoin="round" stroke-linecap="round" stroke="rgb(0,0,255)" stroke-width="1.874998" fill="none" d="M 0.000000 750.000000 L 750.000000 545.454590 " />
<path stroke-linejoin="round" stroke-linecap="round" stroke="rgb(255,0,0)" stroke-width="3.749996" fill="none" d="M 320.140839 662.688843 L 327.046753 673.047852 " />
<path stroke-linejoin="round" stroke-linecap="round" stroke="rgb(0,0,255)" stroke-width="1.874998" fill="none" d="M 0.000000 750.000000 L 750.000000 515.625000 " />
<path stroke-linejoin="round" stroke-linecap="round" stroke="rgb(255,0,0)" stroke-width="3.749996" fill="none" d="M 313.115784 652.151306 L 320.140839 662.688843 " />
<path stroke-linejoin="round" stroke-linecap="round" stroke="rgb(0,0,255)" stroke-width="1.874998" fill="none" d="M 0.000000 750.000000 L 750.000000 483.870941 " />
<path stroke-linejoin="round" stroke-linecap="round" stroke="rgb(255,0,0)" stroke-width="3.749996" fill="none" d="M 305.968567 641.430542 L 313.115784 652.151306 " />
<path stroke-linejoin="round" stroke-linecap="round" stroke="rgb(0,0,255)" stroke-width="1.874998" fill="none" d="M 0.000000 750.000000 L 750.000000 450.000031 " />
<path stroke-linejoin="round" stroke-linecap="round" stroke="rgb(255,0,0)" stroke-width="3.749996" fill="none" d="M 298.695984 630.521606 L 305.968567 641.430542 " />
<path stroke-linejoin="round" stroke-linecap="round" stroke="rgb(0,0,255)" stroke-width="1.874998" fill="none" d="M 0.000000 750.000000 L 750.000000 413.793091 " />
<path stroke-linejoin="round" stroke-linecap="round" stroke="rgb(255,0,0)" stroke-width="3.749996" fill="none" d="M 291.294647 619.419678 L 298.695984 630.521606 " />
<path stroke-linejoin="round" stroke-linecap="round" stroke="rgb(0,0,255)" stroke-width="1.874998" fill="none" d="M 0.000000 750.000000 L 750.000000 375.000000 " />
<path stroke-linejoin="round" stroke-linecap="round" stroke="rgb(255,0,0)" stroke-width="3.749996" fill="none" d="M 283.761139 608.119385 L 291.294647 619.419678 " />
<path stroke-linejoin="round" stroke-linecap="round" stroke="rgb(0,0,255)" stroke-width="1.874998" fill="none" d="M 0.000000 750.000000 L 750.000000 362.068970 " />
<path stroke-linejoin="round" stroke-linecap="round" stroke="rgb(255,0,0)" stroke-width="3.749996" fill="none" d="M 281.335815 604.481506 L 283.761139 608.119385 " />
<path stroke-linejoin="round" stroke-linecap="round" stroke="rgb(0,0,255)" stroke-width="1.874998" fill="none" d="M 0.000000 750.000000 L 750.000000 321.428558 " />
<path stroke-linejoin="round" stroke-linecap="round" stroke="rgb(255,0,0)" stroke-width="3.749996" fill="none" d="M 273.976288 593.442139 L 281.335815 604.481506 " />
<path stroke-linejoin="round" stroke-linecap="round" stroke="rgb(0,0,255)" stroke-width="1.874998" fill="none" d="M 0.000000 750.000000 L 750.000000 277.777802 " />
<path stroke-linejoin="round" stroke-linecap="round" stroke="rgb(255,0,0)" stroke-width="3.749996" fill="none" d="M 266.488739 582.210815 L 273.976288 593.442078 " />
<path stroke-linejoin="round" stroke-linecap="round" stroke="rgb(0,0,255)" stroke-width="1.874998" fill="none" d="M 0.000000 750.000000 L 750.000000 230.769211 " />
<path stroke-linejoin="round" stroke-linecap="round" stroke="rgb(255,0,0)" stroke-width="3.749996" fill="none" d="M 258.869812 570.782410 L 266.488739 582.210815 " />
<path stroke-linejoin="round" stroke-linecap="round" stroke="rgb(0,0,255)" stroke-width="1.874998" fill="none" d="M 0.000000 750.000000 L 750.000000 180.000000 " />
<path stroke-linejoin="round" stroke-linecap="round" stroke="rgb(255,0,0)" stroke-width="3.749996" fill="none" d="M 251.116074 559.151794 L 258.869812 570.782410 " />
<path stroke-linejoin="round" stroke-linecap="round" stroke="rgb(0,0,255)" stroke-width="1.874998" fill="none" d="M 0.000000 750.000000 L 750.000000 173.076920 " />
<path stroke-linejoin="round" stroke-linecap="round" stroke="rgb(255,0,0)" stroke-width="3.749996" fill="none" d="M 250.094574 557.619568 L 251.116074 559.151794 " />
<path stroke-linejoin="round" stroke-linecap="round" stroke="rgb(0,0,255)" stroke-width="1.874998" fill="none" d="M 0.000000 750.000000 L 750.000000 130.434799 " />
<path stroke-linejoin="round" stroke-linecap="round" stroke="rgb(255,0,0)" stroke-width="3.749996" fill="none" d="M 243.981552 548.450073 L 250.094574 557.619568 " />
<path stroke-linejoin="round" stroke-linecap="round" stroke="rgb(0,0,255)" stroke-width="1.874998" fill="none" d="M 0.000000 750.000000 L 750.000000 125.000015 " />
<path stroke-linejoin="round" stroke-linecap="round" stroke="rgb(255,0,0)" stroke-width="3.749996" fill="none" d="M 243.223846 547.313477 L 243.981552 548.450073 " />
<path stroke-linejoin="round" stroke-linecap="round" stroke="rgb(0,0,255)" stroke-width="1.874998" fill="none" d="M 0.000000 750.000000 L 750.000000 65.217377 " />
<path stroke-linejoin="round" stroke-linecap="round" stroke="rgb(255,0,0)" stroke-width="3.749996" fill="none" d="M 235.189438 535.261780 L 243.223846 547.313477 " />
<path stroke-linejoin="round" stroke-linecap="round" stroke="rgb(0,0,255)" stroke-width="1.874998" fill="none" d="M 0.000000 750.000000 L 750.000000 0.000000 " />
<path stroke-linejoin="round" stroke-linecap="round" stroke="rgb(255,0,0)" stroke-width="3.749996" fill="none" d="M 227.008911 522.991089 L 235.189438 535.261780 " />
<path stroke-linejoin="round" stroke-linecap="round" stroke="rgb(0,0,255)" stroke-width="1.874998" fill="none" d="M 0.000000 750.000000 L 684.782654 0.000000 " />
<path stroke-linejoin="round" stroke-linecap="round" stroke="rgb(255,0,0)" stroke-width="3.749996" fill="none" d="M 218.678314 510.495178 L 227.008911 522.991089 " />
<path stroke-linejoin="round" stroke-linecap="round" stroke="rgb(0,0,255)" stroke-width="1.874998" fill="none" d="M 0.000000 750.000000 L 625.000000 0.000000 " />
<path stroke-linejoin="round" stroke-linecap="round" stroke="rgb(255,0,0)" stroke-width="3.749996" fill="none" d="M 210.193436 497.767883 L 218.678284 510.495178 " />
<path stroke-linejoin="round" stroke-linecap="round" stroke="rgb(0,0,255)" stroke-width="1.874998" fill="none" d="M 0.000000 750.000000 L 570.000000 0.000000 " />
<path stroke-linejoin="round" stroke-linecap="round" stroke="rgb(255,0,0)" stroke-width="3.749996" fill="none" d="M 201.549973 484.802673 L 210.193436 497.767883 " />
<path stroke-linejoin="round" stroke-linecap="round" stroke="rgb(0,0,255)" stroke-width="1.874998" fill="none" d="M 0.000000 750.000000 L 519.230774 0.000000 " />
<path stroke-linejoin="round" stroke-linecap="round" stroke="rgb(255,0,0)" stroke-width="3.749996" fill="none" d="M 192.743423 471.592834 L 201.549973 484.802673 " />
<path stroke-linejoin="round" stroke-linecap="round" stroke="rgb(0,0,255)" stroke-width="1.874998" fill="none" d="M 0.000000 750.000000 L 472.222260 0.000000 " />
<path stroke-linejoin="round" stroke-linecap="round" stroke="rgb(255,0,0)" stroke-width="3.749996" fill="none" d="M 183.769135 458.131409 L 192.743423 471.592834 " />
<path stroke-linejoin="round" stroke-linecap="round" stroke="rgb(0,0,255)" stroke-width="1.874998" fill="none" d="M 0.000000 750.000000 L 428.571442 0.000000 " />
<path stroke-linejoin="round" stroke-linecap="round" stroke="rgb(255,0,0)" stroke-width="3.749996" fill="none" d="M 174.622269 444.411041 L 183.769135 458.131409 " />
<path stroke-linejoin="round" stroke-linecap="round" stroke="rgb(0,0,255)" stroke-width="1.874998" fill="none" d="M 0.000000 750.000000 L 387.931061 0.000000 " />
<path stroke-linejoin="round" stroke-linecap="round" stroke="rgb(255,0,0)" stroke-width="3.749996" fill="none" d="M 165.297745 430.424377 L 174.622269 444.411041 " />
<path stroke-linejoin="round" stroke-linecap="round" stroke="rgb(0,0,255)" stroke-width="1.874998" fill="none" d="M 0.000000 750.000000 L 350.000000 0.000000 " />
<path stroke-linejoin="round" stroke-linecap="round" stroke="rgb(255,0,0)" stroke-width="3.749996" fill="none" d="M 155.790436 416.163361 L 165.297745 430.424377 " />
<path stroke-linejoin="round" stroke-linecap="round" stroke="rgb(0,0,255)" stroke-width="1.874998" fill="none" d="M 0.000000 750.000000 L 328.124969 0.000000 " />
<path stroke-linejoin="round" stroke-linecap="round" stroke="rgb(255,0,0)" stroke-width="3.749996" fill="none" d="M 149.911545 407.345032 L 155.790436 416.163361 " />
<path stroke-linejoin="round" stroke-linecap="round" stroke="rgb(0,0,255)" stroke-width="1.874998" fill="none" d="M 0.000000 750.000000 L 308.823547 0.000000 " />
<path stroke-linejoin="round" stroke-linecap="round" stroke="rgb(255,0,0)" stroke-width="3.749996" fill="none" d="M 144.460220 399.168030 L 149.911545 407.345032 " />
<path stroke-linejoin="round" stroke-linecap="round" stroke="rgb(0,0,255)" stroke-width="1.874998" fill="none" d="M 0.000000 750.000000 L 295.454559 0.000000 " />
<path stroke-linejoin="round" stroke-linecap="round" stroke="rgb(255,0,0)" stroke-width="3.749996" fill="none" d="M 140.529327 393.271698 L 144.460220 399.168030 " />
<path stroke-linejoin="round" stroke-linecap="round" stroke="rgb(0,0,255)" stroke-width="1.874998" fill="none" d="M 0.000000 750.000000 L 278.571442 0.000000 " />
<path stroke-linejoin="round" stroke-linecap="round" stroke="rgb(255,0,0)" stroke-width="3.749996" fill="none" d="M 135.372299 385.536072 L 140.529327 393.271698 " />
<path stroke-linejoin="round" stroke-linecap="round" stroke="rgb(0,0,255)" stroke-width="1.874998" fill="none" d="M 0.000000 750.000000 L 250.000000 0.000000 " />
<path stroke-linejoin="round" stroke-linecap="round" stroke="rgb(255,0,0)" stroke-width="3.749996" fill="none" d="M 126.140358 371.578888 L 135.372299 385.536072 " />
<path stroke-linejoin="round" stroke-linecap="round" stroke="rgb(0,0,255)" stroke-width="1.874998" fill="none" d="M 0.000000 750.000000 L 222.972977 0.000000 " />
<path stroke-linejoin="round" stroke-linecap="round" stroke="rgb(255,0,0)" stroke-width="3.749996" fill="none" d="M 118.154953 352.569702 L 126.140381 371.578857 " />
<path stroke-linejoin="round" stroke-linecap="round" stroke="rgb(0,0,255)" stroke-width="1.874998" fill="none" d="M 0.000000 750.000000 L 197.368423 0.000000 " />
<path stroke-linejoin="round" stroke-linecap="round" stroke="rgb(255,0,0)" stroke-width="3.749996" fill="none" d="M 110.365707 330.610382 L 118.154976 352.569672 " />
<path stroke-linejoin="round" stroke-linecap="round" stroke="rgb(0,0,255)" stroke-width="1.874998" fill="none" d="M 0.000000 750.000000 L 173.076920 0.000000 " />
<path stroke-linejoin="round" stroke-linecap="round" stroke="rgb(255,0,0)" stroke-width="3.749996" fill="none" d="M 102.289436 306.745789 L 110.365707 330.610382 " />
<path stroke-linejoin="round" stroke-linecap="round" stroke="rgb(0,0,255)" stroke-width="1.874998" fill="none" d="M 0.000000 750.000000 L 164.634171 0.000000 " />
<path stroke-linejoin="round" stroke-linecap="round" stroke="rgb(255,0,0)" stroke-width="3.749996" fill="none" d="M 99.268776 297.775574 L 102.289436 306.745728 " />
<path stroke-linejoin="round" stroke-linecap="round" stroke="rgb(0,0,255)" stroke-width="1.874998" fill="none" d="M 0.000000 750.000000 L 142.857132 0.000000 " />
<path stroke-linejoin="round" stroke-linecap="round" stroke="rgb(255,0,0)" stroke-width="3.749996" fill="none" d="M 90.910034 272.722351 L 99.268776 297.775574 " />
<path stroke-linejoin="round" stroke-linecap="round" stroke="rgb(0,0,255)" stroke-width="1.874998" fill="none" d="M 0.000000 750.000000 L 136.363647 0.000000 " />
<path stroke-linejoin="round" stroke-linecap="round" stroke="rgb(255,0,0)" stroke-width="3.749996" fill="none" d="M 88.235512 264.704620 L 90.910034 272.722351 " />
<path stroke-linejoin="round" stroke-linecap="round" stroke="rgb(0,0,255)" stroke-width="1.874998" fill="none" d="M 0.000000 750.000000 L 130.434799 0.000000 " />
<path stroke-linejoin="round" stroke-linecap="round" stroke="rgb(255,0,0)" stroke-width="3.749996" fill="none" d="M 85.714348 257.142517 L 88.235512 264.704620 " />
<path stroke-linejoin="round" stroke-linecap="round" stroke="rgb(0,0,255)" stroke-width="1.874998" fill="none" d="M 0.000000 750.000000 L 125.000015 0.000000 " />
<path stroke-linejoin="round" stroke-linecap="round" stroke="rgb(255,0,0)" stroke-width="3.749996" fill="none" d="M 83.333351 249.999893 L 85.714348 257.142517 " />
<path stroke-linejoin="round" stroke-linecap="round" stroke="rgb(0,0,255)" stroke-width="1.874998" fill="none" d="M 0.000000 750.000000 L 105.263161 0.000000 " />
<path stroke-linejoin="round" stroke-linecap="round" stroke="rgb(255,0,0)" stroke-width="3.749996" fill="none" d="M 74.074074 222.222229 L 83.333328 249.999939 " />
<path stroke-linejoin="round" stroke-linecap="round" stroke="rgb(0,0,255)" stroke-width="1.874998" fill="none" d="M 0.000000 750.000000 L 101.694923 0.000000 " />
<path stroke-linejoin="round" stroke-linecap="round" stroke="rgb(255,0,0)" stroke-width="3.749996" fill="none" d="M 72.289154 216.867508 L 74.074074 222.222229 " />
<path stroke-linejoin="round" stroke-linecap="round" stroke="rgb(0,0,255)" stroke-width="1.874998" fill="none" d="M 0.000000 750.000000 L 97.826088 0.000000 " />
<path stroke-linejoin="round" stroke-linecap="round" stroke="rgb(255,0,0)" stroke-width="3.749996" fill="none" d="M 70.312500 210.937500 L 72.289154 216.867554 " />
<path stroke-linejoin="round" stroke-linecap="round" stroke="rgb(0,0,255)" stroke-width="1.874998" fill="none" d="M 0.000000 750.000000 L 79.787224 0.000000 " />
<path stroke-linejoin="round" stroke-linecap="round" stroke="rgb(255,0,0)" stroke-width="3.749996" fill="none" d="M 60.483879 181.451614 L 70.312500 210.937454 " />
<path stroke-linejoin="round" stroke-linecap="round" stroke="rgb(0,0,255)" stroke-width="1.874998" fill="none" d="M 0.000000 750.000000 L 76.530617 0.000000 " />
<path stroke-linejoin="round" stroke-linecap="round" stroke="rgb(255,0,0)" stroke-width="3.749996" fill="none" d="M 58.593750 175.781296 L 60.483856 181.451660 " />
<path stroke-linejoin="round" stroke-linecap="round" stroke="rgb(0,0,255)" stroke-width="1.874998" fill="none" d="M 0.000000 750.000000 L 76.271187 0.000000 " />
<path stroke-linejoin="round" stroke-linecap="round" stroke="rgb(255,0,0)" stroke-width="3.749996" fill="none" d="M 58.441559 175.324783 L 58.593750 175.781342 " />
<path stroke-linejoin="round" stroke-linecap="round" stroke="rgb(0,0,255)" stroke-width="1.874998" fill="none" d="M 0.000000 750.000000 L 59.999989 0.000000 " />
<path stroke-linejoin="round" stroke-linecap="round" stroke="rgb(255,0,0)" stroke-width="3.749996" fill="none" d="M 48.387096 145.161469 L 58.441536 175.324829 " />
<path stroke-linejoin="round" stroke-linecap="round" stroke="rgb(0,0,255)" stroke-width="1.874998" fill="none" d="M 0.000000 750.000000 L 49.180313 0.000000 " />
<path stroke-linejoin="round" stroke-linecap="round" stroke="rgb(255,0,0)" stroke-width="3.749996" fill="none" d="M 41.095867 123.287872 L 48.387074 145.161514 " />
<path stroke-linejoin="round" stroke-linecap="round" stroke="rgb(0,0,255)" stroke-width="1.874998" fill="none" d="M 0.000000 750.000000 L 47.619045 0.000000 " />
<path stroke-linejoin="round" stroke-linecap="round" stroke="rgb(255,0,0)" stroke-width="3.749996" fill="none" d="M 39.999985 120.000244 L 41.095867 123.287872 " />
<path stroke-linejoin="round" stroke-linecap="round" stroke="rgb(0,0,255)" stroke-width="1.874998" fill="none" d="M 0.000000 750.000000 L 43.478249 0.000000 " />
<path stroke-linejoin="round" stroke-linecap="round" stroke="rgb(255,0,0)" stroke-width="3.749996" fill="none" d="M 37.037014 111.111359 L 39.999985 120.000244 " />
<path stroke-linejoin="round" stroke-linecap="round" stroke="rgb(0,0,255)" stroke-width="1.874998" fill="none" d="M 0.000000 750.000000 L 38.135605 0.000000 " />
<path stroke-linejoin="round" stroke-linecap="round" stroke="rgb(255,0,0)" stroke-width="3.749996" fill="none" d="M 33.088223 99.264938 L 37.037014 111.111359 " />
<path stroke-linejoin="round" stroke-linecap="round" stroke="rgb(0,0,255)" stroke-width="1.874998" fill="none" d="M 0.000000 750.000000 L 36.885246 0.000000 " />
<path stroke-linejoin="round" stroke-linecap="round" stroke="rgb(255,0,0)" stroke-width="3.749996" fill="none" d="M 32.142857 96.428764 L 33.088223 99.264938 " />
<path stroke-linejoin="round" stroke-linecap="round" stroke="rgb(0,0,255)" stroke-width="1.874998" fill="none" d="M 0.000000 750.000000 L 21.739124 0.000000 " />
<path stroke-linejoin="round" stroke-linecap="round" stroke="rgb(255,0,0)" stroke-width="3.749996" fill="none" d="M 19.999981 60.000256 L 32.142857 96.428764 " />
<path stroke-linejoin="round" stroke-linecap="round" stroke="rgb(0,0,255)" stroke-width="1.874998" fill="none" d="M 0.000000 750.000000 L 9.493679 0.000000 " />
<path stroke-linejoin="round" stroke-linecap="round" stroke="rgb(255,0,0)" stroke-width="3.749996" fill="none" d="M 9.146333 27.439266 L 19.999981 60.000256 " />
<path stroke-linejoin="round" stroke-linecap="round" stroke="rgb(0,0,255)" stroke-width="1.874998" fill="none" d="M 0.000000 750.000000 L 0.000000 0.000000 " />
<path stroke-linejoin="round" stroke-linecap="round" stroke="rgb(255,0,0)" stroke-width="3.749996" fill="none" d="M 0.000000 0.000000 L 9.146333 27.439266 " />
<circle cx="371.651754" cy="739.955351" r="3.750000" style="fill:rgb(0,127,0);stroke-width:1" /><circle cx="364.835747" cy="729.731351" r="3.750000" style="fill:rgb(0,127,0);stroke-width:1" /><circle cx="358.945705" cy="720.896289" r="3.749999" style="fill:rgb(0,127,0);stroke-width:1" /><circle cx="352.255203" cy="710.860536" r="3.749999" style="fill:rgb(0,127,0);stroke-width:1" /><circle cx="345.448315" cy="700.650238" r="3.749999" style="fill:rgb(0,127,0);stroke-width:1" /><circle cx="338.522047" cy="690.260813" r="3.749999" style="fill:rgb(0,127,0);stroke-width:1" /><circle cx="331.473202" cy="679.687500" r="3.750001" style="fill:rgb(0,127,0);stroke-width:1" /><circle cx="327.046752" cy="673.047826" r="3.750001" style="fill:rgb(0,127,0);stroke-width:1" /><circle cx="320.140824" cy="662.688866" r="3.750002" style="fill:rgb(0,127,0);stroke-width:1" /><circle cx="313.115783" cy="652.151316" r="3.750002" style="fill:rgb(0,127,0);stroke-width:1" /><circle cx="305.968568" cy="641.430527" r="3.750002" style="fill:rgb(0,127,0);stroke-width:1" /><circle cx="298.695982" cy="630.521603" r="3.750002" style="fill:rgb(0,127,0);stroke-width:1" /><circle cx="291.294649" cy="619.419649" r="3.750002" style="fill:rgb(0,127,0);stroke-width:1" /><circle cx="283.761151" cy="608.119413" r="3.749999" style="fill:rgb(0,127,0);stroke-width:1" /><circle cx="281.335831" cy="604.481488" r="3.749999" style="fill:rgb(0,127,0);stroke-width:1" /><circle cx="273.976274" cy="593.442120" r="3.749996" style="fill:rgb(0,127,0);stroke-width:1" /><circle cx="266.488753" cy="582.210794" r="3.749996" style="fill:rgb(0,127,0);stroke-width:1" /><circle cx="258.869827" cy="570.782438" r="3.749996" style="fill:rgb(0,127,0);stroke-width:1" /><circle cx="251.116075" cy="559.151776" r="3.749996" style="fill:rgb(0,127,0);stroke-width:1" /><circle cx="250.094578" cy="557.619542" r="3.749996" style="fill:rgb(0,127,0);stroke-width:1" /><circle cx="243.981555" cy="548.450030" r="3.749996" style="fill:rgb(0,127,0);stroke-width:1" /><circle cx="243.223853" cy="547.313467" r="3.749996" style="fill:rgb(0,127,0);stroke-width:1" /><circle cx="235.189430" cy="535.261810" r="3.749996" style="fill:rgb(0,127,0);stroke-width:1" /><circle cx="227.008916" cy="522.991084" r="3.749996" style="fill:rgb(0,127,0);stroke-width:1" /><circle cx="218.678311" cy="510.495186" r="3.749996" style="fill:rgb(0,127,0);stroke-width:1" /><circle cx="210.193433" cy="497.767881" r="3.749996" style="fill:rgb(0,127,0);stroke-width:1" /><circle cx="201.549970" cy="484.802663" r="3.749996" style="fill:rgb(0,127,0);stroke-width:1" /><circle cx="192.743428" cy="471.592829" r="3.749996" style="fill:rgb(0,127,0);stroke-width:1" /><circle cx="183.769137" cy="458.131403" r="3.749996" style="fill:rgb(0,127,0);stroke-width:1" /><circle cx="174.622267" cy="444.411054" r="3.749996" style="fill:rgb(0,127,0);stroke-width:1" /><circle cx="165.297747" cy="430.424340" r="3.749996" style="fill:rgb(0,127,0);stroke-width:1" /><circle cx="155.790433" cy="416.163370" r="3.749996" style="fill:rgb(0,127,0);stroke-width:1" /><circle cx="149.911545" cy="407.345027" r="3.749996" style="fill:rgb(0,127,0);stroke-width:1" /><circle cx="144.460224" cy="399.168022" r="3.749996" style="fill:rgb(0,127,0);stroke-width:1" /><circle cx="140.529335" cy="393.271700" r="3.749996" style="fill:rgb(0,127,0);stroke-width:1" /><circle cx="135.372296" cy="385.536097" r="3.749996" style="fill:rgb(0,127,0);stroke-width:1" /><circle cx="126.140356" cy="371.578887" r="3.749996" style="fill:rgb(0,127,0);stroke-width:1" /><circle cx="118.154950" cy="352.569714" r="3.749996" style="fill:rgb(0,127,0);stroke-width:1" /><circle cx="110.365704" cy="330.610380" r="3.749996" style="fill:rgb(0,127,0);stroke-width:1" /><circle cx="102.289438" cy="306.745782" r="3.749996" style="fill:rgb(0,127,0);stroke-width:1" /><circle cx="99.268779" cy="297.775581" r="3.749996" style="fill:rgb(0,127,0);stroke-width:1" /><circle cx="90.910032" cy="272.722363" r="3.749996" style="fill:rgb(0,127,0);stroke-width:1" /><circle cx="88.235512" cy="264.704615" r="3.749996" style="fill:rgb(0,127,0);stroke-width:1" /><circle cx="85.714348" cy="257.142529" r="3.749996" style="fill:rgb(0,127,0);stroke-width:1" /><circle cx="83.333351" cy="249.999896" r="3.749996" style="fill:rgb(0,127,0);stroke-width:1" /><circle cx="74.074075" cy="222.222224" r="3.749996" style="fill:rgb(0,127,0);stroke-width:1" /><circle cx="72.289154" cy="216.867507" r="3.749996" style="fill:rgb(0,127,0);stroke-width:1" /><circle cx="70.312500" cy="210.937500" r="3.749996" style="fill:rgb(0,127,0);stroke-width:1" /><circle cx="60.483880" cy="181.451619" r="3.749996" style="fill:rgb(0,127,0);stroke-width:1" /><circle cx="58.593750" cy="175.781295" r="3.749996" style="fill:rgb(0,127,0);stroke-width:1" /><circle cx="58.441557" cy="175.324783" r="3.749996" style="fill:rgb(0,127,0);stroke-width:1" /><circle cx="48.387095" cy="145.161465" r="3.749996" style="fill:rgb(0,127,0);stroke-width:1" /><circle cx="41.095868" cy="123.287871" r="3.749996" style="fill:rgb(0,127,0);stroke-width:1" /><circle cx="39.999984" cy="120.000243" r="3.749996" style="fill:rgb(0,127,0);stroke-width:1" /><circle cx="37.037015" cy="111.111358" r="3.749996" style="fill:rgb(0,127,0);stroke-width:1" /><circle cx="33.088222" cy="99.264935" r="3.749996" style="fill:rgb(0,127,0);stroke-width:1" /><circle cx="32.142855" cy="96.428767" r="3.749996" style="fill:rgb(0,127,0);stroke-width:1" /><circle cx="19.999981" cy="60.000256" r="3.749996" style="fill:rgb(0,127,0);stroke-width:1" /><circle cx="9.146333" cy="27.439266" r="3.749996" style="fill:rgb(0,127,0);stroke-width:1" /><circle cx="750.000000" cy="750.000000" r="3.749996" style="fill:rgb(0,127,0);stroke-width:1" /><path stroke-linejoin="round" stroke-linecap="round" stroke="rgb(255,255,255)" stroke-width="3.749996" fill="none" d="M 0.000000 750.000000 L 750.000000 750.000000 M 0.000000 750.000000 L 0.000000 0.000000 " />

</svg>