<svg xmlns="http://www.w3.org/2000/svg" version="1.1" width = "750" height = "750" viewBox = "0 0 750 750"  shape-rendering="crispEdges">
<path stroke-linejoin="round" stroke-linecap="round" stroke="rgb(255,255,0)" stroke-width="3.749996" fill="none" d="M 83.333328 750.000000 L 0.000000 0.000000 " />
<path stroke-linejoin="round" stroke-linecap="round" stroke="rgb(63,63,63)" stroke-width="3.749996" fill="none" d="M 0.000000 0.000000 L 750.000000 750.000000 M 83.333328 750.000000 L 39.215683 0.000000 " />
<path stroke-linejoin="round" stroke-linecap="round" stroke="rgb(191,191,191)" stroke-width="3.749996" fill="none" d="M 0.000000 666.666687 L 83.333328 750.000000 M 0.000000 0.000000 L 44.117645 750.000000 " />
<path stroke-linejoin="round" stroke-linecap="round" stroke="rgb(0,0,255)" stroke-width="1.874998" fill="none" d="M 0.000000 750.000000 L 750.000000 725.806458 " />
<path stroke-linejoin="round" stroke-linecap="round" stroke="rgb(255,0,0)" stroke-width="3.749996" fill="none" d="M 83.175499 747.316895 L 83.333328 750.000000 " />
<path stroke-linejoin="round" stroke-linecap="round" stroke="rgb(0,0,255)" stroke-width="1.874998" fill="none" d="M 0.000000 750.000000 L 750.000000 700.000000 " />
<path stroke-linejoin="round" stroke-linecap="round" stroke="rgb(255,0,0)" stroke-width="3.749996" fill="none" d="M 80.492424 744.633850 L 83.175499 747.316895 " />
<path stroke-linejoin="round" stroke-linecap="round" stroke="rgb(0,0,255)" stroke-width="1.874998" fill="none" d="M 0.000000 750.000000 L 750.000000 672.413818 " />
<path stroke-linejoin="round" stroke-linecap="round" stroke="rgb(255,0,0)" stroke-width="3.749996" fill="none" d="M 77.809341 741.950806 L 80.492424 744.633850 " />
<path stroke-linejoin="round" stroke-linecap="round" stroke="rgb(0,0,255)" stroke-width="1.874998" fill="none" d="M 0.000000 750.000000 L 750.000000 642.857178 " />
<path stroke-linejoin="round" stroke-linecap="round" stroke="rgb(255,0,0)" stroke-width="3.749996" fill="none" d="M 75.126259 739.267700 L 77.809341 741.950806 " />
<path stroke-linejoin="round" stroke-linecap="round" stroke="rgb(0,0,255)" stroke-width="1.874998" fill="none" d="M 0.000000 750.000000 L 750.000000 620.689636 " />
<path stroke-linejoin="round" stroke-linecap="round" stroke="rgb(255,0,0)" stroke-width="3.749996" fill="none" d="M 73.232307 737.373779 L 75.126259 739.267700 " />
<path stroke-linejoin="round" stroke-linecap="round" stroke="rgb(0,0,255)" stroke-width="1.874998" fill="none" d="M 0.000000 750.000000 L 750.000000 589.285706 " />
<path stroke-linejoin="round" stroke-linecap="round" stroke="rgb(255,0,0)" stroke-width="3.749996" fill="none" d="M 70.707077 734.848450 L 73.232307 737.373779 " />
<path stroke-linejoin="round" stroke-linecap="round" stroke="rgb(0,0,255)" stroke-width="1.874998" fill="none" d="M 0.000000 750.000000 L 750.000000 568.965515 " />
<path stroke-linejoin="round" stroke-linecap="round" stroke="rgb(255,0,0)" stroke-width="3.749996" fill="none" d="M 69.163864 733.305298 L 70.707077 734.848450 " />
<path stroke-linejoin="round" stroke-linecap="round" stroke="rgb(0,0,255)" stroke-width="1.874998" fill="none" d="M 0.000000 750.000000 L 750.000000 535.714294 " />
<path stroke-linejoin="round" stroke-linecap="round" stroke="rgb(255,0,0)" stroke-width="3.749996" fill="none" d="M 66.778893 730.920288 L 69.163864 733.305298 " />
<path stroke-linejoin="round" stroke-linecap="round" stroke="rgb(0,0,255)" stroke-width="1.874998" fill="none" d="M 0.000000 750.000000 L 750.000000 517.241394 " />
<path stroke-linejoin="round" stroke-linecap="round" stroke="rgb(255,0,0)" stroke-width="3.749996" fill="none" d="M 65.523659 729.665100 L 66.778893 730.920288 " />
<path stroke-linejoin="round" stroke-linecap="round" stroke="rgb(0,0,255)" stroke-width="1.874998" fill="none" d="M 0.000000 750.000000 L 750.000000 499.999969 " />
<path stroke-linejoin="round" stroke-linecap="round" stroke="rgb(255,0,0)" stroke-width="3.749996" fill="none" d="M 64.393936 728.535339 L 65.523659 729.665100 " />
<path stroke-linejoin="round" stroke-linecap="round" stroke="rgb(0,0,255)" stroke-width="1.874998" fill="none" d="M 0.000000 750.000000 L 750.000000 461.538422 " />
<path stroke-linejoin="round" stroke-linecap="round" stroke="rgb(255,0,0)" stroke-width="3.749996" fill="none" d="M 62.008961 726.150452 L 64.393936 728.535339 " />
<path stroke-linejoin="round" stroke-linecap="round" stroke="rgb(0,0,255)" stroke-width="1.874998" fill="none" d="M 0.000000 750.000000 L 750.000000 444.444458 " />
<path stroke-linejoin="round" stroke-linecap="round" stroke="rgb(255,0,0)" stroke-width="3.749996" fill="none" d="M 61.004765 725.146179 L 62.008961 726.150452 " />
<path stroke-linejoin="round" stroke-linecap="round" stroke="rgb(0,0,255)" stroke-width="1.874998" fill="none" d="M 0.000000 750.000000 L 750.000000 420.000000 " />
<path stroke-linejoin="round" stroke-linecap="round" stroke="rgb(255,0,0)" stroke-width="3.749996" fill="none" d="M 59.624008 723.765442 L 61.004765 725.146179 " />
<path stroke-linejoin="round" stroke-linecap="round" stroke="rgb(0,0,255)" stroke-width="1.874998" fill="none" d="M 0.000000 750.000000 L 750.000000 375.000000 " />
<path stroke-linejoin="round" stroke-linecap="round" stroke="rgb(255,0,0)" stroke-width="3.749996" fill="none" d="M 57.239033 721.380493 L 59.624008 723.765442 " />
<path stroke-linejoin="round" stroke-linecap="round" stroke="rgb(0,0,255)" stroke-width="1.874998" fill="none" d="M 0.000000 750.000000 L 750.000000 360.000000 " />
<path stroke-linejoin="round" stroke-linecap="round" stroke="rgb(255,0,0)" stroke-width="3.749996" fill="none" d="M 56.485893 720.627319 L 57.239033 721.380493 " />
<path stroke-linejoin="round" stroke-linecap="round" stroke="rgb(0,0,255)" stroke-width="1.874998" fill="none" d="M 0.000000 750.000000 L 750.000000 326.086975 " />
<path stroke-linejoin="round" stroke-linecap="round" stroke="rgb(255,0,0)" stroke-width="3.749996" fill="none" d="M 54.854080 718.995544 L 56.485893 720.627319 " />
<path stroke-linejoin="round" stroke-linecap="round" stroke="rgb(0,0,255)" stroke-width="1.874998" fill="none" d="M 0.000000 750.000000 L 750.000000 272.727295 " />
<path stroke-linejoin="round" stroke-linecap="round" stroke="rgb(255,0,0)" stroke-width="3.749996" fill="none" d="M 52.469128 716.610596 L 54.854080 718.995544 " />
<path stroke-linejoin="round" stroke-linecap="round" stroke="rgb(0,0,255)" stroke-width="1.874998" fill="none" d="M 0.000000 750.000000 L 750.000000 260.869537 " />
<path stroke-linejoin="round" stroke-linecap="round" stroke="rgb(255,0,0)" stroke-width="3.749996" fill="none" d="M 51.967018 716.108459 L 52.469128 716.610596 " />
<path stroke-linejoin="round" stroke-linecap="round" stroke="rgb(0,0,255)" stroke-width="1.874998" fill="none" d="M 0.000000 750.000000 L 750.000000 204.545441 " />
<path stroke-linejoin="round" stroke-linecap="round" stroke="rgb(255,0,0)" stroke-width="3.749996" fill="none" d="M 49.707592 713.848999 L 51.967018 716.108459 " />
<path stroke-linejoin="round" stroke-linecap="round" stroke="rgb(0,0,255)" stroke-width="1.874998" fill="none" d="M 0.000000 750.000000 L 750.000000 195.652176 " />
<path stroke-linejoin="round" stroke-linecap="round" stroke="rgb(255,0,0)" stroke-width="3.749996" fill="none" d="M 49.368671 713.510132 L 49.707592 713.848999 " />
<path stroke-linejoin="round" stroke-linecap="round" stroke="rgb(0,0,255)" stroke-width="1.874998" fill="none" d="M 0.000000 750.000000 L 750.000000 142.857132 " />
<path stroke-linejoin="round" stroke-linecap="round" stroke="rgb(255,0,0)" stroke-width="3.749996" fill="none" d="M 47.448143 711.589600 L 49.368671 713.510132 " />
<path stroke-linejoin="round" stroke-linecap="round" stroke="rgb(0,0,255)" stroke-width="1.874998" fill="none" d="M 0.000000 750.000000 L 750.000000 136.363647 " />
<path stroke-linejoin="round" stroke-linecap="round" stroke="rgb(255,0,0)" stroke-width="3.749996" fill="none" d="M 47.222214 711.363647 L 47.448143 711.589600 " />
<path stroke-linejoin="round" stroke-linecap="round" stroke="rgb(0,0,255)" stroke-width="1.874998" fill="none" d="M 0.000000 750.000000 L 750.000000 75.000015 " />
<path stroke-linejoin="round" stroke-linecap="round" stroke="rgb(255,0,0)" stroke-width="3.749996" fill="none" d="M 45.188717 709.330139 L 47.222214 711.363647 " />
<path stroke-linejoin="round" stroke-linecap="round" stroke="rgb(0,0,255)" stroke-width="1.874998" fill="none" d="M 0.000000 750.000000 L 750.000000 0.000000 " />
<path stroke-linejoin="round" stroke-linecap="round" stroke="rgb(255,0,0)" stroke-width="3.749996" fill="none" d="M 42.929291 707.070679 L 45.188717 709.330139 " />
<path stroke-linejoin="round" stroke-linecap="round" stroke="rgb(0,0,255)" stroke-width="1.874998" fill="none" d="M 0.000000 750.000000 L 675.000000 0.000000 " />
<path stroke-linejoin="round" stroke-linecap="round" stroke="rgb(255,0,0)" stroke-width="3.749996" fill="none" d="M 41.411049 703.987732 L 42.929291 707.070679 " />
<path stroke-linejoin="round" stroke-linecap="round" stroke="rgb(0,0,255)" stroke-width="1.874998" fill="none" d="M 0.000000 750.000000 L 607.142883 0.000000 " />
<path stroke-linejoin="round" stroke-linecap="round" stroke="rgb(255,0,0)" stroke-width="3.749996" fill="none" d="M 41.129036 699.193542 L 41.411049 703.987732 " />
<path stroke-linejoin="round" stroke-linecap="round" stroke="rgb(0,0,255)" stroke-width="1.874998" fill="none" d="M 0.000000 750.000000 L 554.347839 0.000000 " />
<path stroke-linejoin="round" stroke-linecap="round" stroke="rgb(255,0,0)" stroke-width="3.749996" fill="none" d="M 40.865376 694.711548 L 41.129036 699.193542 " />
<path stroke-linejoin="round" stroke-linecap="round" stroke="rgb(0,0,255)" stroke-width="1.874998" fill="none" d="M 0.000000 750.000000 L 510.000000 0.000000 " />
<path stroke-linejoin="round" stroke-linecap="round" stroke="rgb(255,0,0)" stroke-width="3.749996" fill="none" d="M 40.605091 690.286621 L 40.865376 694.711548 " />
<path stroke-linejoin="round" stroke-linecap="round" stroke="rgb(0,0,255)" stroke-width="1.874998" fill="none" d="M 0.000000 750.000000 L 489.130463 0.000000 " />
<path stroke-linejoin="round" stroke-linecap="round" stroke="rgb(255,0,0)" stroke-width="3.749996" fill="none" d="M 40.467628 687.949646 L 40.605091 690.286621 " />
<path stroke-linejoin="round" stroke-linecap="round" stroke="rgb(0,0,255)" stroke-width="1.874998" fill="none" d="M 0.000000 750.000000 L 450.000031 0.000000 " />
<path stroke-linejoin="round" stroke-linecap="round" stroke="rgb(255,0,0)" stroke-width="3.749996" fill="none" d="M 40.178574 683.035706 L 40.467628 687.949646 " />
<path stroke-linejoin="round" stroke-linecap="round" stroke="rgb(0,0,255)" stroke-width="1.874998" fill="none" d="M 0.000000 750.000000 L 416.666687 0.000000 " />
<path stroke-linejoin="round" stroke-linecap="round" stroke="rgb(255,0,0)" stroke-width="3.749996" fill="none" d="M 39.893612 678.191528 L 40.178574 683.035706 " />
<path stroke-linejoin="round" stroke-linecap="round" stroke="rgb(0,0,255)" stroke-width="1.874998" fill="none" d="M 0.000000 750.000000 L 387.931061 0.000000 " />
<path stroke-linejoin="round" stroke-linecap="round" stroke="rgb(255,0,0)" stroke-width="3.749996" fill="none" d="M 39.612675 673.415527 L 39.893612 678.191467 " />
<path stroke-linejoin="round" stroke-linecap="round" stroke="rgb(0,0,255)" stroke-width="1.874998" fill="none" d="M 0.000000 750.000000 L 362.903229 0.000000 " />
<path stroke-linejoin="round" stroke-linecap="round" stroke="rgb(255,0,0)" stroke-width="3.749996" fill="none" d="M 39.335667 668.706238 L 39.612675 673.415527 " />
<path stroke-linejoin="round" stroke-linecap="round" stroke="rgb(0,0,255)" stroke-width="1.874998" fill="none" d="M 0.000000 750.000000 L 350.000000 0.000000 " />
<path stroke-linejoin="round" stroke-linecap="round" stroke="rgb(255,0,0)" stroke-width="3.749996" fill="none" d="M 39.179092 666.044800 L 39.335667 668.706238 " />
<path stroke-linejoin="round" stroke-linecap="round" stroke="rgb(0,0,255)" stroke-width="1.874998" fill="none" d="M 0.000000 750.000000 L 314.516113 0.000000 " />
<path stroke-linejoin="round" stroke-linecap="round" stroke="rgb(255,0,0)" stroke-width="3.749996" fill="none" d="M 38.690487 657.738098 L 39.179092 666.044800 " />
<path stroke-linejoin="round" stroke-linecap="round" stroke="rgb(0,0,255)" stroke-width="1.874998" fill="none" d="M 0.000000 750.000000 L 295.454559 0.000000 " />
<path stroke-linejoin="round" stroke-linecap="round" stroke="rgb(255,0,0)" stroke-width="3.749996" fill="none" d="M 38.385830 652.559082 L 38.690487 657.738098 " />
<path stroke-linejoin="round" stroke-linecap="round" stroke="rgb(0,0,255)" stroke-width="1.874998" fill="none" d="M 0.000000 750.000000 L 278.571442 0.000000 " />
<path stroke-linejoin="round" stroke-linecap="round" stroke="rgb(255,0,0)" stroke-width="3.749996" fill="none" d="M 38.085938 647.460938 L 38.385830 652.559082 " />
<path stroke-linejoin="round" stroke-linecap="round" stroke="rgb(0,0,255)" stroke-width="1.874998" fill="none" d="M 0.000000 750.000000 L 276.315796 0.000000 " />
<path stroke-linejoin="round" stroke-linecap="round" stroke="rgb(255,0,0)" stroke-width="3.749996" fill="none" d="M 38.043468 646.739136 L 38.085938 647.460938 " />
<path stroke-linejoin="round" stroke-linecap="round" stroke="rgb(0,0,255)" stroke-width="1.874998" fill="none" d="M 0.000000 750.000000 L 263.513519 0.000000 " />
<path stroke-linejoin="round" stroke-linecap="round" stroke="rgb(255,0,0)" stroke-width="3.749996" fill="none" d="M 37.790695 642.441833 L 38.043468 646.739136 " />
<path stroke-linejoin="round" stroke-linecap="round" stroke="rgb(0,0,255)" stroke-width="1.874998" fill="none" d="M 0.000000 750.000000 L 250.000000 0.000000 " />
<path stroke-linejoin="round" stroke-linecap="round" stroke="rgb(255,0,0)" stroke-width="3.749996" fill="none" d="M 37.500008 637.500000 L 37.790695 642.441833 " />
<path stroke-linejoin="round" stroke-linecap="round" stroke="rgb(0,0,255)" stroke-width="1.874998" fill="none" d="M 0.000000 750.000000 L 237.804871 0.000000 " />
<path stroke-linejoin="round" stroke-linecap="round" stroke="rgb(255,0,0)" stroke-width="3.749996" fill="none" d="M 37.213749 632.633606 L 37.500008 637.500000 " />
<path stroke-linejoin="round" stroke-linecap="round" stroke="rgb(0,0,255)" stroke-width="1.874998" fill="none" d="M 0.000000 750.000000 L 226.744186 0.000000 " />
<path stroke-linejoin="round" stroke-linecap="round" stroke="rgb(255,0,0)" stroke-width="3.749996" fill="none" d="M 36.931828 627.840942 L 37.213749 632.633606 " />
<path stroke-linejoin="round" stroke-linecap="round" stroke="rgb(0,0,255)" stroke-width="1.874998" fill="none" d="M 0.000000 750.000000 L 225.000015 0.000000 " />
<path stroke-linejoin="round" stroke-linecap="round" stroke="rgb(255,0,0)" stroke-width="3.749996" fill="none" d="M 36.885246 627.049133 L 36.931828 627.840942 " />
<path stroke-linejoin="round" stroke-linecap="round" stroke="rgb(0,0,255)" stroke-width="1.874998" fill="none" d="M 0.000000 750.000000 L 201.219528 0.000000 " />
<path stroke-linejoin="round" stroke-linecap="round" stroke="rgb(255,0,0)" stroke-width="3.749996" fill="none" d="M 36.184208 615.131531 L 36.885246 627.049194 " />
<path stroke-linejoin="round" stroke-linecap="round" stroke="rgb(0,0,255)" stroke-width="1.874998" fill="none" d="M 0.000000 750.000000 L 191.860474 0.000000 " />
<path stroke-linejoin="round" stroke-linecap="round" stroke="rgb(255,0,0)" stroke-width="3.749996" fill="none" d="M 35.869560 609.782593 L 36.184208 615.131531 " />
<path stroke-linejoin="round" stroke-linecap="round" stroke="rgb(0,0,255)" stroke-width="1.874998" fill="none" d="M 0.000000 750.000000 L 183.333328 0.000000 " />
<path stroke-linejoin="round" stroke-linecap="round" stroke="rgb(255,0,0)" stroke-width="3.749996" fill="none" d="M 35.560349 604.525818 L 35.869560 609.782593 " />
<path stroke-linejoin="round" stroke-linecap="round" stroke="rgb(0,0,255)" stroke-width="1.874998" fill="none" d="M 0.000000 750.000000 L 175.531891 0.000000 " />
<path stroke-linejoin="round" stroke-linecap="round" stroke="rgb(255,0,0)" stroke-width="3.749996" fill="none" d="M 35.256409 599.359009 L 35.560349 604.525818 " />
<path stroke-linejoin="round" stroke-linecap="round" stroke="rgb(0,0,255)" stroke-width="1.874998" fill="none" d="M 0.000000 750.000000 L 161.764694 0.000000 " />
<path stroke-linejoin="round" stroke-linecap="round" stroke="rgb(255,0,0)" stroke-width="3.749996" fill="none" d="M 34.663864 589.285706 L 35.256409 599.359009 " />
<path stroke-linejoin="round" stroke-linecap="round" stroke="rgb(0,0,255)" stroke-width="1.874998" fill="none" d="M 0.000000 750.000000 L 155.660370 0.000000 " />
<path stroke-linejoin="round" stroke-linecap="round" stroke="rgb(255,0,0)" stroke-width="3.749996" fill="none" d="M 34.374989 584.375000 L 34.663864 589.285706 " />
<path stroke-linejoin="round" stroke-linecap="round" stroke="rgb(0,0,255)" stroke-width="1.874998" fill="none" d="M 0.000000 750.000000 L 149.999985 0.000000 " />
<path stroke-linejoin="round" stroke-linecap="round" stroke="rgb(255,0,0)" stroke-width="3.749996" fill="none" d="M 34.090900 579.545410 L 34.374989 584.375000 " />
<path stroke-linejoin="round" stroke-linecap="round" stroke="rgb(0,0,255)" stroke-width="1.874998" fill="none" d="M 0.000000 750.000000 L 144.736847 0.000000 " />
<path stroke-linejoin="round" stroke-linecap="round" stroke="rgb(255,0,0)" stroke-width="3.749996" fill="none" d="M 33.811481 574.795044 L 34.090900 579.545410 " />
<path stroke-linejoin="round" stroke-linecap="round" stroke="rgb(0,0,255)" stroke-width="1.874998" fill="none" d="M 0.000000 750.000000 L 139.830505 0.000000 " />
<path stroke-linejoin="round" stroke-linecap="round" stroke="rgb(255,0,0)" stroke-width="3.749996" fill="none" d="M 33.536575 570.121948 L 33.811481 574.795044 " />
<path stroke-linejoin="round" stroke-linecap="round" stroke="rgb(0,0,255)" stroke-width="1.874998" fill="none" d="M 0.000000 750.000000 L 135.245926 0.000000 " />
<path stroke-linejoin="round" stroke-linecap="round" stroke="rgb(255,0,0)" stroke-width="3.749996" fill="none" d="M 33.266121 565.524170 L 33.536575 570.121948 " />
<path stroke-linejoin="round" stroke-linecap="round" stroke="rgb(0,0,255)" stroke-width="1.874998" fill="none" d="M 0.000000 750.000000 L 130.952377 0.000000 " />
<path stroke-linejoin="round" stroke-linecap="round" stroke="rgb(255,0,0)" stroke-width="3.749996" fill="none" d="M 33.000000 561.000000 L 33.266121 565.524170 " />
<path stroke-linejoin="round" stroke-linecap="round" stroke="rgb(0,0,255)" stroke-width="1.874998" fill="none" d="M 0.000000 750.000000 L 115.384605 0.000000 " />
<path stroke-linejoin="round" stroke-linecap="round" stroke="rgb(255,0,0)" stroke-width="3.749996" fill="none" d="M 31.914890 542.553101 L 33.000000 561.000000 " />
<path stroke-linejoin="round" stroke-linecap="round" stroke="rgb(0,0,255)" stroke-width="1.874998" fill="none" d="M 0.000000 750.000000 L 90.000000 0.000000 " />
<path stroke-linejoin="round" stroke-linecap="round" stroke="rgb(255,0,0)" stroke-width="3.749996" fill="none" d="M 29.605263 503.289398 L 31.914890 542.553101 " />
<path stroke-linejoin="round" stroke-linecap="round" stroke="rgb(0,0,255)" stroke-width="1.874998" fill="none" d="M 0.000000 750.000000 L 70.588234 0.000000 " />
<path stroke-linejoin="round" stroke-linecap="round" stroke="rgb(255,0,0)" stroke-width="3.749996" fill="none" d="M 27.149319 461.538391 L 29.605284 503.289398 " />
<path stroke-linejoin="round" stroke-linecap="round" stroke="rgb(0,0,255)" stroke-width="1.874998" fill="none" d="M 0.000000 750.000000 L 57.142853 0.000000 " />
<path stroke-linejoin="round" stroke-linecap="round" stroke="rgb(255,0,0)" stroke-width="3.749996" fill="none" d="M 24.896263 423.236389 L 27.149319 461.538391 " />
<path stroke-linejoin="round" stroke-linecap="round" stroke="rgb(0,0,255)" stroke-width="1.874998" fill="none" d="M 0.000000 750.000000 L 56.074753 0.000000 " />
<path stroke-linejoin="round" stroke-linecap="round" stroke="rgb(255,0,0)" stroke-width="3.749996" fill="none" d="M 24.691366 419.752960 L 24.896263 423.236389 " />
<path stroke-linejoin="round" stroke-linecap="round" stroke="rgb(0,0,255)" stroke-width="1.874998" fill="none" d="M 0.000000 750.000000 L 49.180313 0.000000 " />
<path stroke-linejoin="round" stroke-linecap="round" stroke="rgb(255,0,0)" stroke-width="3.749996" fill="none" d="M 23.255825 395.348724 L 24.691366 419.752960 " />
<path stroke-linejoin="round" stroke-linecap="round" stroke="rgb(0,0,255)" stroke-width="1.874998" fill="none" d="M 0.000000 750.000000 L 39.772736 0.000000 " />
<path stroke-linejoin="round" stroke-linecap="round" stroke="rgb(255,0,0)" stroke-width="3.749996" fill="none" d="M 20.916336 355.577576 L 23.255825 395.348724 " />
<path stroke-linejoin="round" stroke-linecap="round" stroke="rgb(0,0,255)" stroke-width="1.874998" fill="none" d="M 0.000000 750.000000 L 31.690144 0.000000 " />
<path stroke-linejoin="round" stroke-linecap="round" stroke="rgb(255,0,0)" stroke-width="3.749996" fill="none" d="M 18.442623 313.524536 L 20.916336 355.577637 " />
<path stroke-linejoin="round" stroke-linecap="round" stroke="rgb(0,0,255)" stroke-width="1.874998" fill="none" d="M 0.000000 750.000000 L 24.671047 0.000000 " />
<path stroke-linejoin="round" stroke-linecap="round" stroke="rgb(255,0,0)" stroke-width="3.749996" fill="none" d="M 15.822798 268.987305 L 18.442623 313.524536 " />
<path stroke-linejoin="round" stroke-linecap="round" stroke="rgb(0,0,255)" stroke-width="1.874998" fill="none" d="M 0.000000 750.000000 L 18.518507 0.000000 " />
<path stroke-linejoin="round" stroke-linecap="round" stroke="rgb(255,0,0)" stroke-width="3.749996" fill="none" d="M 13.043470 221.739075 L 15.822798 268.987305 " />
<path stroke-linejoin="round" stroke-linecap="round" stroke="rgb(0,0,255)" stroke-width="1.874998" fill="none" d="M 0.000000 750.000000 L 16.483515 0.000000 " />
<path stroke-linejoin="round" stroke-linecap="round" stroke="rgb(255,0,0)" stroke-width="3.749996" fill="none" d="M 12.000002 203.999969 L 13.043470 221.739075 " />
<path stroke-linejoin="round" stroke-linecap="round" stroke="rgb(0,0,255)" stroke-width="1.874998" fill="none" d="M 0.000000 750.000000 L 16.216211 0.000000 " />
<path stroke-linejoin="round" stroke-linecap="round" stroke="rgb(255,0,0)" stroke-width="3.749996" fill="none" d="M 11.857711 201.580933 L 12.000002 203.999969 " />
<path stroke-linejoin="round" stroke-linecap="round" stroke="rgb(0,0,255)" stroke-width="1.874998" fill="none" d="M 0.000000 750.000000 L 16.042784 0.000000 " />
<path stroke-linejoin="round" stroke-linecap="round" stroke="rgb(255,0,0)" stroke-width="3.749996" fill="none" d="M 11.764706 199.999939 L 11.857711 201.580933 " />
<path stroke-linejoin="round" stroke-linecap="round" stroke="rgb(0,0,255)" stroke-width="1.874998" fill="none" d="M 0.000000 750.000000 L 15.625008 0.000000 " />
<path stroke-linejoin="round" stroke-linecap="round" stroke="rgb(255,0,0)" stroke-width="3.749996" fill="none" d="M 11.538461 196.153748 L 11.764706 199.999939 " />
<path stroke-linejoin="round" stroke-linecap="round" stroke="rgb(0,0,255)" stroke-width="1.874998" fill="none" d="M 0.000000 750.000000 L 13.803676 0.000000 " />
<path stroke-linejoin="round" stroke-linecap="round" stroke="rgb(255,0,0)" stroke-width="3.749996" fill="none" d="M 10.514013 178.738205 L 11.538461 196.153748 " />
<path stroke-linejoin="round" stroke-linecap="round" stroke="rgb(0,0,255)" stroke-width="1.874998" fill="none" d="M 0.000000 750.000000 L 13.313614 0.000000 " />
<path stroke-linejoin="round" stroke-linecap="round" stroke="rgb(255,0,0)" stroke-width="3.749996" fill="none" d="M 10.227285 173.863449 L 10.514013 178.738205 " />
<path stroke-linejoin="round" stroke-linecap="round" stroke="rgb(0,0,255)" stroke-width="1.874998" fill="none" d="M 0.000000 750.000000 L 8.379891 0.000000 " />
<path stroke-linejoin="round" stroke-linecap="round" stroke="rgb(255,0,0)" stroke-width="3.749996" fill="none" d="M 7.042252 119.718117 L 10.227285 173.863403 " />
<path stroke-linejoin="round" stroke-linecap="round" stroke="rgb(0,0,255)" stroke-width="1.874998" fill="none" d="M 0.000000 750.000000 L 3.968261 0.000000 " />
<path stroke-linejoin="round" stroke-linecap="round" stroke="rgb(255,0,0)" stroke-width="3.749996" fill="none" d="M 3.640786 61.892979 L 7.042252 119.718117 " />
<path stroke-linejoin="round" stroke-linecap="round" stroke="rgb(0,0,255)" stroke-width="1.874998" fill="none" d="M 0.000000 750.000000 L 0.000000 0.000000 " />
<path stroke-linejoin="round" stroke-linecap="round" stroke="rgb(255,0,0)" stroke-width="3.749996" fill="none" d="M 0.000000 0.000000 L 3.640786 61.892979 " />
<circle cx="83.175503" cy="747.316942" r="3.749996" style="fill:rgb(0,127,0);stroke-width:1" /><circle cx="80.492422" cy="744.633839" r="3.749996" style="fill:rgb(0,127,0);stroke-width:1" /><circle cx="77.809341" cy="741.950758" r="3.749996" style="fill:rgb(0,127,0);stroke-width:1" /><circle cx="75.126261" cy="739.267677" r="3.749996" style="fill:rgb(0,127,0);stroke-width:1" /><circle cx="73.232308" cy="737.373747" r="3.749996" style="fill:rgb(0,127,0);stroke-width:1" /><circle cx="70.707075" cy="734.848492" r="3.749996" style="fill:rgb(0,127,0);stroke-width:1" /><circle cx="69.163866" cy="733.305283" r="3.749996" style="fill:rgb(0,127,0);stroke-width:1" /><circle cx="66.778891" cy="730.920307" r="3.749996" style="fill:rgb(0,127,0);stroke-width:1" /><circle cx="65.523662" cy="729.665078" r="3.749996" style="fill:rgb(0,127,0);stroke-width:1" /><circle cx="64.393938" cy="728.535354" r="3.749996" style="fill:rgb(0,127,0);stroke-width:1" /><circle cx="62.008962" cy="726.150401" r="3.749996" style="fill:rgb(0,127,0);stroke-width:1" /><circle cx="61.004765" cy="725.146204" r="3.749996" style="fill:rgb(0,127,0);stroke-width:1" /><circle cx="59.624009" cy="723.765448" r="3.749996" style="fill:rgb(0,127,0);stroke-width:1" /><circle cx="57.239033" cy="721.380472" r="3.749996" style="fill:rgb(0,127,0);stroke-width:1" /><circle cx="56.485891" cy="720.627330" r="3.749996" style="fill:rgb(0,127,0);stroke-width:1" /><circle cx="54.854080" cy="718.995519" r="3.749996" style="fill:rgb(0,127,0);stroke-width:1" /><circle cx="52.469127" cy="716.610566" r="3.749996" style="fill:rgb(0,127,0);stroke-width:1" /><circle cx="51.967017" cy="716.108456" r="3.749996" style="fill:rgb(0,127,0);stroke-width:1" /><circle cx="49.707592" cy="713.849030" r="3.749996" style="fill:rgb(0,127,0);stroke-width:1" /><circle cx="49.368672" cy="713.510111" r="3.749996" style="fill:rgb(0,127,0);stroke-width:1" /><circle cx="47.448143" cy="711.589605" r="3.749996" style="fill:rgb(0,127,0);stroke-width:1" /><circle cx="47.222212" cy="711.363651" r="3.749996" style="fill:rgb(0,127,0);stroke-width:1" /><circle cx="45.188718" cy="709.330156" r="3.749996" style="fill:rgb(0,127,0);stroke-width:1" /><circle cx="42.929292" cy="707.070708" r="3.749996" style="fill:rgb(0,127,0);stroke-width:1" /><circle cx="41.411050" cy="703.987733" r="3.749996" style="fill:rgb(0,127,0);stroke-width:1" /><circle cx="41.129038" cy="699.193552" r="3.749996" style="fill:rgb(0,127,0);stroke-width:1" /><circle cx="40.865377" cy="694.711536" r="3.749996" style="fill:rgb(0,127,0);stroke-width:1" /><circle cx="40.605091" cy="690.286629" r="3.749996" style="fill:rgb(0,127,0);stroke-width:1" /><circle cx="40.467627" cy="687.949643" r="3.749996" style="fill:rgb(0,127,0);stroke-width:1" /><circle cx="40.178575" cy="683.035724" r="3.749996" style="fill:rgb(0,127,0);stroke-width:1" /><circle cx="39.893612" cy="678.191498" r="3.749996" style="fill:rgb(0,127,0);stroke-width:1" /><circle cx="39.612673" cy="673.415489" r="3.749996" style="fill:rgb(0,127,0);stroke-width:1" /><circle cx="39.335668" cy="668.706290" r="3.749996" style="fill:rgb(0,127,0);stroke-width:1" /><circle cx="39.179094" cy="666.044779" r="3.749996" style="fill:rgb(0,127,0);stroke-width:1" /><circle cx="38.690485" cy="657.738090" r="3.749996" style="fill:rgb(0,127,0);stroke-width:1" /><circle cx="38.385831" cy="652.559057" r="3.749996" style="fill:rgb(0,127,0);stroke-width:1" /><circle cx="38.085938" cy="647.460938" r="3.749996" style="fill:rgb(0,127,0);stroke-width:1" /><circle cx="38.043469" cy="646.739133" r="3.749996" style="fill:rgb(0,127,0);stroke-width:1" /><circle cx="37.790693" cy="642.441854" r="3.749996" style="fill:rgb(0,127,0);stroke-width:1" /><circle cx="37.500009" cy="637.499996" r="3.749996" style="fill:rgb(0,127,0);stroke-width:1" /><circle cx="37.213750" cy="632.633597" r="3.749996" style="fill:rgb(0,127,0);stroke-width:1" /><circle cx="36.931828" cy="627.840914" r="3.749996" style="fill:rgb(0,127,0);stroke-width:1" /><circle cx="36.885247" cy="627.049170" r="3.749996" style="fill:rgb(0,127,0);stroke-width:1" /><circle cx="36.184207" cy="615.131579" r="3.749996" style="fill:rgb(0,127,0);stroke-width:1" /><circle cx="35.869561" cy="609.782606" r="3.749996" style="fill:rgb(0,127,0);stroke-width:1" /><circle cx="35.560347" cy="604.525857" r="3.749996" style="fill:rgb(0,127,0);stroke-width:1" /><circle cx="35.256408" cy="599.358983" r="3.749996" style="fill:rgb(0,127,0);stroke-width:1" /><circle cx="34.663863" cy="589.285724" r="3.749996" style="fill:rgb(0,127,0);stroke-width:1" /><circle cx="34.374990" cy="584.375024" r="3.749996" style="fill:rgb(0,127,0);stroke-width:1" /><circle cx="34.090899" cy="579.545461" r="3.749996" style="fill:rgb(0,127,0);stroke-width:1" /><circle cx="33.811480" cy="574.795090" r="3.749996" style="fill:rgb(0,127,0);stroke-width:1" /><circle cx="33.536576" cy="570.121944" r="3.749996" style="fill:rgb(0,127,0);stroke-width:1" /><circle cx="33.266120" cy="565.524191" r="3.749996" style="fill:rgb(0,127,0);stroke-width:1" /><circle cx="33.000000" cy="560.999997" r="3.749996" style="fill:rgb(0,127,0);stroke-width:1" /><circle cx="31.914890" cy="542.553149" r="3.749996" style="fill:rgb(0,127,0);stroke-width:1" /><circle cx="29.605262" cy="503.289398" r="3.749996" style="fill:rgb(0,127,0);stroke-width:1" /><circle cx="27.149320" cy="461.538373" r="3.749996" style="fill:rgb(0,127,0);stroke-width:1" /><circle cx="24.896264" cy="423.236411" r="3.749996" style="fill:rgb(0,127,0);stroke-width:1" /><circle cx="24.691366" cy="419.752976" r="3.749996" style="fill:rgb(0,127,0);stroke-width:1" /><circle cx="23.255825" cy="395.348707" r="3.749996" style="fill:rgb(0,127,0);stroke-width:1" /><circle cx="20.916335" cy="355.577588" r="3.749996" style="fill:rgb(0,127,0);stroke-width:1" /><circle cx="18.442623" cy="313.524524" r="3.749996" style="fill:rgb(0,127,0);stroke-width:1" /><circle cx="15.822798" cy="268.987298" r="3.749996" style="fill:rgb(0,127,0);stroke-width:1" /><circle cx="13.043471" cy="221.739057" r="3.749996" style="fill:rgb(0,127,0);stroke-width:1" /><circle cx="12.000002" cy="203.999955" r="3.749996" style="fill:rgb(0,127,0);stroke-width:1" /><circle cx="11.857711" cy="201.580927" r="3.749996" style="fill:rgb(0,127,0);stroke-width:1" /><circle cx="11.764705" cy="199.999932" r="3.749996" style="fill:rgb(0,127,0);stroke-width:1" /><circle cx="11.538461" cy="196.153756" r="3.749996" style="fill:rgb(0,127,0);stroke-width:1" /><circle cx="10.514013" cy="178.738207" r="3.749996" style="fill:rgb(0,127,0);stroke-width:1" /><circle cx="10.227285" cy="173.863448" r="3.749996" style="fill:rgb(0,127,0);stroke-width:1" /><circle cx="7.042252" cy="119.718120" r="3.749996" style="fill:rgb(0,127,0);stroke-width:1" /><circle cx="3.640786" cy="61.892979" r="3.749996" style="fill:rgb(0,127,0);stroke-width:1" /><circle cx="750.000000" cy="750.000000" r="3.749996" style="fill:rgb(0,127,0);stroke-width:1" /><path stroke-linejoin="round" stroke-linecap="round" stroke="rgb(255,255,255)" stroke-width="3.749996" fill="none" d="M 0.000000 750.000000 L 750.000000 750.000000 M 0.000000 750.000000 L 0.000000 0.000000 " />

</svg>