<svg xmlns="http://www.w3.org/2000/svg" version="1.1" width = "750" height = "750" viewBox = "0 0 750 750"  shape-rendering="crispEdges">
<path stroke-linejoin="round" stroke-linecap="round" stroke="rgb(255,255,0)" stroke-width="3.749996" fill="none" d="M 249.999985 750.000000 L 0.000000 0.000000 " />
<path stroke-linejoin="round" stroke-linecap="round" stroke="rgb(63,63,63)" stroke-width="3.749996" fill="none" d="M 0.000000 0.000000 L 750.000000 750.000000 M 249.999985 750.000000 L 99.999992 0.000000 " />
<path stroke-linejoin="round" stroke-linecap="round" stroke="rgb(191,191,191)" stroke-width="3.749996" fill="none" d="M 0.000000 500.000000 L 249.999985 750.000000 M 0.000000 0.000000 L 150.000015 750.000000 " />
<path stroke-linejoin="round" stroke-linecap="round" stroke="rgb(0,0,255)" stroke-width="1.874998" fill="none" d="M 0.000000 750.000000 L 750.000000 728.571411 " />
<path stroke-linejoin="round" stroke-linecap="round" stroke="rgb(255,0,0)" stroke-width="3.749996" fill="none" d="M 248.579529 742.897705 L 249.999985 750.000000 " />
<path stroke-linejoin="round" stroke-linecap="round" stroke="rgb(0,0,255)" stroke-width="1.874998" fill="none" d="M 0.000000 750.000000 L 750.000000 705.882385 " />
<path stroke-linejoin="round" stroke-linecap="round" stroke="rgb(255,0,0)" stroke-width="3.749996" fill="none" d="M 244.926941 735.592529 L 248.579575 742.897705 " />
<path stroke-linejoin="round" stroke-linecap="round" stroke="rgb(0,0,255)" stroke-width="1.874998" fill="none" d="M 0.000000 750.000000 L 750.000000 685.714294 " />
<path stroke-linejoin="round" stroke-linecap="round" stroke="rgb(255,0,0)" stroke-width="3.749996" fill="none" d="M 241.769135 729.276917 L 244.926941 735.592529 " />
<path stroke-linejoin="round" stroke-linecap="round" stroke="rgb(0,0,255)" stroke-width="1.874998" fill="none" d="M 0.000000 750.000000 L 750.000000 661.764709 " />
<path stroke-linejoin="round" stroke-linecap="round" stroke="rgb(255,0,0)" stroke-width="3.749996" fill="none" d="M 238.123428 721.985474 L 241.769135 729.276917 " />
<path stroke-linejoin="round" stroke-linecap="round" stroke="rgb(0,0,255)" stroke-width="1.874998" fill="none" d="M 0.000000 750.000000 L 750.000000 636.363647 " />
<path stroke-linejoin="round" stroke-linecap="round" stroke="rgb(255,0,0)" stroke-width="3.749996" fill="none" d="M 234.375000 714.488647 L 238.123428 721.985474 " />
<path stroke-linejoin="round" stroke-linecap="round" stroke="rgb(0,0,255)" stroke-width="1.874998" fill="none" d="M 0.000000 750.000000 L 750.000000 617.647095 " />
<path stroke-linejoin="round" stroke-linecap="round" stroke="rgb(255,0,0)" stroke-width="3.749996" fill="none" d="M 231.687653 709.113953 L 234.374954 714.488647 " />
<path stroke-linejoin="round" stroke-linecap="round" stroke="rgb(0,0,255)" stroke-width="1.874998" fill="none" d="M 0.000000 750.000000 L 750.000000 609.375000 " />
<path stroke-linejoin="round" stroke-linecap="round" stroke="rgb(255,0,0)" stroke-width="3.749996" fill="none" d="M 230.519501 706.777588 L 231.687653 709.113953 " />
<path stroke-linejoin="round" stroke-linecap="round" stroke="rgb(0,0,255)" stroke-width="1.874998" fill="none" d="M 0.000000 750.000000 L 750.000000 590.909058 " />
<path stroke-linejoin="round" stroke-linecap="round" stroke="rgb(255,0,0)" stroke-width="3.749996" fill="none" d="M 227.953796 701.646179 L 230.519501 706.777588 " />
<path stroke-linejoin="round" stroke-linecap="round" stroke="rgb(0,0,255)" stroke-width="1.874998" fill="none" d="M 0.000000 750.000000 L 750.000000 562.500000 " />
<path stroke-linejoin="round" stroke-linecap="round" stroke="rgb(255,0,0)" stroke-width="3.749996" fill="none" d="M 224.116180 693.971008 L 227.953796 701.646179 " />
<path stroke-linejoin="round" stroke-linecap="round" stroke="rgb(0,0,255)" stroke-width="1.874998" fill="none" d="M 0.000000 750.000000 L 750.000000 532.258118 " />
<path stroke-linejoin="round" stroke-linecap="round" stroke="rgb(255,0,0)" stroke-width="3.749996" fill="none" d="M 220.170471 686.079590 L 224.116180 693.971008 " />
<path stroke-linejoin="round" stroke-linecap="round" stroke="rgb(0,0,255)" stroke-width="1.874998" fill="none" d="M 0.000000 750.000000 L 750.000000 515.625000 " />
<path stroke-linejoin="round" stroke-linecap="round" stroke="rgb(255,0,0)" stroke-width="3.749996" fill="none" d="M 218.058990 681.856567 L 220.170471 686.079590 " />
<path stroke-linejoin="round" stroke-linecap="round" stroke="rgb(0,0,255)" stroke-width="1.874998" fill="none" d="M 0.000000 750.000000 L 750.000000 483.870941 " />
<path stroke-linejoin="round" stroke-linecap="round" stroke="rgb(255,0,0)" stroke-width="3.749996" fill="none" d="M 214.138397 674.015442 L 218.058990 681.856567 " />
<path stroke-linejoin="round" stroke-linecap="round" stroke="rgb(0,0,255)" stroke-width="1.874998" fill="none" d="M 0.000000 750.000000 L 750.000000 468.750000 " />
<path stroke-linejoin="round" stroke-linecap="round" stroke="rgb(255,0,0)" stroke-width="3.749996" fill="none" d="M 212.320633 670.379761 L 214.138397 674.015442 " />
<path stroke-linejoin="round" stroke-linecap="round" stroke="rgb(0,0,255)" stroke-width="1.874998" fill="none" d="M 0.000000 750.000000 L 750.000000 450.000031 " />
<path stroke-linejoin="round" stroke-linecap="round" stroke="rgb(255,0,0)" stroke-width="3.749996" fill="none" d="M 210.108917 665.956421 L 212.320633 670.379761 " />
<path stroke-linejoin="round" stroke-linecap="round" stroke="rgb(0,0,255)" stroke-width="1.874998" fill="none" d="M 0.000000 750.000000 L 750.000000 435.483917 " />
<path stroke-linejoin="round" stroke-linecap="round" stroke="rgb(255,0,0)" stroke-width="3.749996" fill="none" d="M 208.428070 662.594666 L 210.108917 665.956421 " />
<path stroke-linejoin="round" stroke-linecap="round" stroke="rgb(0,0,255)" stroke-width="1.874998" fill="none" d="M 0.000000 750.000000 L 750.000000 413.793091 " />
<path stroke-linejoin="round" stroke-linecap="round" stroke="rgb(255,0,0)" stroke-width="3.749996" fill="none" d="M 205.965942 657.670410 L 208.428070 662.594666 " />
<path stroke-linejoin="round" stroke-linecap="round" stroke="rgb(0,0,255)" stroke-width="1.874998" fill="none" d="M 0.000000 750.000000 L 750.000000 399.999969 " />
<path stroke-linejoin="round" stroke-linecap="round" stroke="rgb(255,0,0)" stroke-width="3.749996" fill="none" d="M 204.430328 654.599182 L 205.965942 657.670410 " />
<path stroke-linejoin="round" stroke-linecap="round" stroke="rgb(0,0,255)" stroke-width="1.874998" fill="none" d="M 0.000000 750.000000 L 750.000000 362.068970 " />
<path stroke-linejoin="round" stroke-linecap="round" stroke="rgb(255,0,0)" stroke-width="3.749996" fill="none" d="M 200.323013 646.384644 L 204.430328 654.599182 " />
<path stroke-linejoin="round" stroke-linecap="round" stroke="rgb(0,0,255)" stroke-width="1.874998" fill="none" d="M 0.000000 750.000000 L 750.000000 349.999969 " />
<path stroke-linejoin="round" stroke-linecap="round" stroke="rgb(255,0,0)" stroke-width="3.749996" fill="none" d="M 199.050583 643.839661 L 200.323013 646.384644 " />
<path stroke-linejoin="round" stroke-linecap="round" stroke="rgb(0,0,255)" stroke-width="1.874998" fill="none" d="M 0.000000 750.000000 L 750.000000 321.428558 " />
<path stroke-linejoin="round" stroke-linecap="round" stroke="rgb(255,0,0)" stroke-width="3.749996" fill="none" d="M 196.101715 637.941895 L 199.050613 643.839661 " />
<path stroke-linejoin="round" stroke-linecap="round" stroke="rgb(0,0,255)" stroke-width="1.874998" fill="none" d="M 0.000000 750.000000 L 750.000000 310.344818 " />
<path stroke-linejoin="round" stroke-linecap="round" stroke="rgb(255,0,0)" stroke-width="3.749996" fill="none" d="M 194.981125 635.700684 L 196.101715 637.941895 " />
<path stroke-linejoin="round" stroke-linecap="round" stroke="rgb(0,0,255)" stroke-width="1.874998" fill="none" d="M 0.000000 750.000000 L 750.000000 277.777802 " />
<path stroke-linejoin="round" stroke-linecap="round" stroke="rgb(255,0,0)" stroke-width="3.749996" fill="none" d="M 191.761398 629.261353 L 194.981125 635.700684 " />
<path stroke-linejoin="round" stroke-linecap="round" stroke="rgb(0,0,255)" stroke-width="1.874998" fill="none" d="M 0.000000 750.000000 L 750.000000 267.857147 " />
<path stroke-linejoin="round" stroke-linecap="round" stroke="rgb(255,0,0)" stroke-width="3.749996" fill="none" d="M 190.801666 627.341797 L 191.761398 629.261353 " />
<path stroke-linejoin="round" stroke-linecap="round" stroke="rgb(0,0,255)" stroke-width="1.874998" fill="none" d="M 0.000000 750.000000 L 750.000000 230.769211 " />
<path stroke-linejoin="round" stroke-linecap="round" stroke="rgb(255,0,0)" stroke-width="3.749996" fill="none" d="M 187.297165 620.332703 L 190.801666 627.341797 " />
<path stroke-linejoin="round" stroke-linecap="round" stroke="rgb(0,0,255)" stroke-width="1.874998" fill="none" d="M 0.000000 750.000000 L 750.000000 222.222229 " />
<path stroke-linejoin="round" stroke-linecap="round" stroke="rgb(255,0,0)" stroke-width="3.749996" fill="none" d="M 186.507721 618.753845 L 187.297165 620.332703 " />
<path stroke-linejoin="round" stroke-linecap="round" stroke="rgb(0,0,255)" stroke-width="1.874998" fill="none" d="M 0.000000 750.000000 L 750.000000 173.076920 " />
<path stroke-linejoin="round" stroke-linecap="round" stroke="rgb(255,0,0)" stroke-width="3.749996" fill="none" d="M 182.094482 609.927368 L 186.507736 618.753784 " />
<path stroke-linejoin="round" stroke-linecap="round" stroke="rgb(0,0,255)" stroke-width="1.874998" fill="none" d="M 0.000000 750.000000 L 750.000000 120.000023 " />
<path stroke-linejoin="round" stroke-linecap="round" stroke="rgb(255,0,0)" stroke-width="3.749996" fill="none" d="M 177.556900 600.852173 L 182.094482 609.927368 " />
<path stroke-linejoin="round" stroke-linecap="round" stroke="rgb(0,0,255)" stroke-width="1.874998" fill="none" d="M 0.000000 750.000000 L 750.000000 62.499985 " />
<path stroke-linejoin="round" stroke-linecap="round" stroke="rgb(255,0,0)" stroke-width="3.749996" fill="none" d="M 172.889694 591.517761 L 177.556900 600.852173 " />
<path stroke-linejoin="round" stroke-linecap="round" stroke="rgb(0,0,255)" stroke-width="1.874998" fill="none" d="M 0.000000 750.000000 L 750.000000 59.999989 " />
<path stroke-linejoin="round" stroke-linecap="round" stroke="rgb(255,0,0)" stroke-width="3.749996" fill="none" d="M 172.692322 591.123047 L 172.889694 591.517761 " />
<path stroke-linejoin="round" stroke-linecap="round" stroke="rgb(0,0,255)" stroke-width="1.874998" fill="none" d="M 0.000000 750.000000 L 750.000000 0.000000 " />
<path stroke-linejoin="round" stroke-linecap="round" stroke="rgb(255,0,0)" stroke-width="3.749996" fill="none" d="M 168.087219 581.912781 L 172.692322 591.123047 " />
<path stroke-linejoin="round" stroke-linecap="round" stroke="rgb(0,0,255)" stroke-width="1.874998" fill="none" d="M 0.000000 750.000000 L 687.500000 0.000000 " />
<path stroke-linejoin="round" stroke-linecap="round" stroke="rgb(255,0,0)" stroke-width="3.749996" fill="none" d="M 163.143463 572.025330 L 168.087219 581.912781 " />
<path stroke-linejoin="round" stroke-linecap="round" stroke="rgb(0,0,255)" stroke-width="1.874998" fill="none" d="M 0.000000 750.000000 L 634.615417 0.000000 " />
<path stroke-linejoin="round" stroke-linecap="round" stroke="rgb(255,0,0)" stroke-width="3.749996" fill="none" d="M 158.482239 562.702820 L 163.143463 572.025330 " />
<path stroke-linejoin="round" stroke-linecap="round" stroke="rgb(0,0,255)" stroke-width="1.874998" fill="none" d="M 0.000000 750.000000 L 583.333313 0.000000 " />
<path stroke-linejoin="round" stroke-linecap="round" stroke="rgb(255,0,0)" stroke-width="3.749996" fill="none" d="M 153.470947 552.680237 L 158.482254 562.702759 " />
<path stroke-linejoin="round" stroke-linecap="round" stroke="rgb(0,0,255)" stroke-width="1.874998" fill="none" d="M 0.000000 750.000000 L 543.103455 0.000000 " />
<path stroke-linejoin="round" stroke-linecap="round" stroke="rgb(255,0,0)" stroke-width="3.749996" fill="none" d="M 149.147812 544.033997 L 153.470947 552.680237 " />
<path stroke-linejoin="round" stroke-linecap="round" stroke="rgb(0,0,255)" stroke-width="1.874998" fill="none" d="M 0.000000 750.000000 L 508.064514 0.000000 " />
<path stroke-linejoin="round" stroke-linecap="round" stroke="rgb(255,0,0)" stroke-width="3.749996" fill="none" d="M 145.061569 535.861511 L 149.147812 544.033997 " />
<path stroke-linejoin="round" stroke-linecap="round" stroke="rgb(0,0,255)" stroke-width="1.874998" fill="none" d="M 0.000000 750.000000 L 500.000000 0.000000 " />
<path stroke-linejoin="round" stroke-linecap="round" stroke="rgb(255,0,0)" stroke-width="3.749996" fill="none" d="M 144.074753 533.887878 L 145.061569 535.861511 " />
<path stroke-linejoin="round" stroke-linecap="round" stroke="rgb(0,0,255)" stroke-width="1.874998" fill="none" d="M 0.000000 750.000000 L 459.677429 0.000000 " />
<path stroke-linejoin="round" stroke-linecap="round" stroke="rgb(255,0,0)" stroke-width="3.749996" fill="none" d="M 138.854660 523.447693 L 144.074753 533.887878 " />
<path stroke-linejoin="round" stroke-linecap="round" stroke="rgb(0,0,255)" stroke-width="1.874998" fill="none" d="M 0.000000 750.000000 L 431.818176 0.000000 " />
<path stroke-linejoin="round" stroke-linecap="round" stroke="rgb(255,0,0)" stroke-width="3.749996" fill="none" d="M 134.943253 515.624878 L 138.854660 523.447693 " />
<path stroke-linejoin="round" stroke-linecap="round" stroke="rgb(0,0,255)" stroke-width="1.874998" fill="none" d="M 0.000000 750.000000 L 397.058838 0.000000 " />
<path stroke-linejoin="round" stroke-linecap="round" stroke="rgb(255,0,0)" stroke-width="3.749996" fill="none" d="M 129.667267 505.072968 L 134.943253 515.624878 " />
<path stroke-linejoin="round" stroke-linecap="round" stroke="rgb(0,0,255)" stroke-width="1.874998" fill="none" d="M 0.000000 750.000000 L 375.000000 0.000000 " />
<path stroke-linejoin="round" stroke-linecap="round" stroke="rgb(255,0,0)" stroke-width="3.749996" fill="none" d="M 126.065414 497.869171 L 129.667267 505.072968 " />
<path stroke-linejoin="round" stroke-linecap="round" stroke="rgb(0,0,255)" stroke-width="1.874998" fill="none" d="M 0.000000 750.000000 L 344.594604 0.000000 " />
<path stroke-linejoin="round" stroke-linecap="round" stroke="rgb(255,0,0)" stroke-width="3.749996" fill="none" d="M 120.738701 487.215790 L 126.065414 497.869171 " />
<path stroke-linejoin="round" stroke-linecap="round" stroke="rgb(0,0,255)" stroke-width="1.874998" fill="none" d="M 0.000000 750.000000 L 326.923065 0.000000 " />
<path stroke-linejoin="round" stroke-linecap="round" stroke="rgb(255,0,0)" stroke-width="3.749996" fill="none" d="M 117.430779 480.599945 L 120.738701 487.215790 " />
<path stroke-linejoin="round" stroke-linecap="round" stroke="rgb(0,0,255)" stroke-width="1.874998" fill="none" d="M 0.000000 750.000000 L 300.000000 0.000000 " />
<path stroke-linejoin="round" stroke-linecap="round" stroke="rgb(255,0,0)" stroke-width="3.749996" fill="none" d="M 112.058136 469.854675 L 117.430779 480.599945 " />
<path stroke-linejoin="round" stroke-linecap="round" stroke="rgb(0,0,255)" stroke-width="1.874998" fill="none" d="M 0.000000 750.000000 L 288.461548 0.000000 " />
<path stroke-linejoin="round" stroke-linecap="round" stroke="rgb(255,0,0)" stroke-width="3.749996" fill="none" d="M 109.622086 464.982574 L 112.058136 469.854675 " />
<path stroke-linejoin="round" stroke-linecap="round" stroke="rgb(0,0,255)" stroke-width="1.874998" fill="none" d="M 0.000000 750.000000 L 262.500000 0.000000 " />
<path stroke-linejoin="round" stroke-linecap="round" stroke="rgb(255,0,0)" stroke-width="3.749996" fill="none" d="M 103.818565 453.375488 L 109.622086 464.982574 " />
<path stroke-linejoin="round" stroke-linecap="round" stroke="rgb(0,0,255)" stroke-width="1.874998" fill="none" d="M 0.000000 750.000000 L 237.804871 0.000000 " />
<path stroke-linejoin="round" stroke-linecap="round" stroke="rgb(255,0,0)" stroke-width="3.749996" fill="none" d="M 97.841820 441.421967 L 103.818565 453.375488 " />
<path stroke-linejoin="round" stroke-linecap="round" stroke="rgb(0,0,255)" stroke-width="1.874998" fill="none" d="M 0.000000 750.000000 L 214.285721 0.000000 " />
<path stroke-linejoin="round" stroke-linecap="round" stroke="rgb(255,0,0)" stroke-width="3.749996" fill="none" d="M 91.683937 429.106201 L 97.841820 441.421967 " />
<path stroke-linejoin="round" stroke-linecap="round" stroke="rgb(0,0,255)" stroke-width="1.874998" fill="none" d="M 0.000000 750.000000 L 204.545456 0.000000 " />
<path stroke-linejoin="round" stroke-linecap="round" stroke="rgb(255,0,0)" stroke-width="3.749996" fill="none" d="M 88.987358 423.713043 L 91.683937 429.106201 " />
<path stroke-linejoin="round" stroke-linecap="round" stroke="rgb(0,0,255)" stroke-width="1.874998" fill="none" d="M 0.000000 750.000000 L 183.333328 0.000000 " />
<path stroke-linejoin="round" stroke-linecap="round" stroke="rgb(255,0,0)" stroke-width="3.749996" fill="none" d="M 83.299423 409.229584 L 88.987358 423.713043 " />
<path stroke-linejoin="round" stroke-linecap="round" stroke="rgb(0,0,255)" stroke-width="1.874998" fill="none" d="M 0.000000 750.000000 L 163.043488 0.000000 " />
<path stroke-linejoin="round" stroke-linecap="round" stroke="rgb(255,0,0)" stroke-width="3.749996" fill="none" d="M 78.337578 389.647095 L 83.299423 409.229584 " />
<path stroke-linejoin="round" stroke-linecap="round" stroke="rgb(0,0,255)" stroke-width="1.874998" fill="none" d="M 0.000000 750.000000 L 156.249985 0.000000 " />
<path stroke-linejoin="round" stroke-linecap="round" stroke="rgb(255,0,0)" stroke-width="3.749996" fill="none" d="M 76.587593 382.379517 L 78.337578 389.647156 " />
<path stroke-linejoin="round" stroke-linecap="round" stroke="rgb(0,0,255)" stroke-width="1.874998" fill="none" d="M 0.000000 750.000000 L 142.241394 0.000000 " />
<path stroke-linejoin="round" stroke-linecap="round" stroke="rgb(255,0,0)" stroke-width="3.749996" fill="none" d="M 73.049782 364.828430 L 76.587593 382.379517 " />
<path stroke-linejoin="round" stroke-linecap="round" stroke="rgb(0,0,255)" stroke-width="1.874998" fill="none" d="M 0.000000 750.000000 L 138.888901 0.000000 " />
<path stroke-linejoin="round" stroke-linecap="round" stroke="rgb(255,0,0)" stroke-width="3.749996" fill="none" d="M 72.125832 360.520538 L 73.049782 364.828430 " />
<path stroke-linejoin="round" stroke-linecap="round" stroke="rgb(0,0,255)" stroke-width="1.874998" fill="none" d="M 0.000000 750.000000 L 128.906250 0.000000 " />
<path stroke-linejoin="round" stroke-linecap="round" stroke="rgb(255,0,0)" stroke-width="3.749996" fill="none" d="M 69.335258 346.594849 L 72.125832 360.520538 " />
<path stroke-linejoin="round" stroke-linecap="round" stroke="rgb(0,0,255)" stroke-width="1.874998" fill="none" d="M 0.000000 750.000000 L 123.134315 0.000000 " />
<path stroke-linejoin="round" stroke-linecap="round" stroke="rgb(255,0,0)" stroke-width="3.749996" fill="none" d="M 67.628456 338.081177 L 69.335258 346.594818 " />
<path stroke-linejoin="round" stroke-linecap="round" stroke="rgb(0,0,255)" stroke-width="1.874998" fill="none" d="M 0.000000 750.000000 L 112.500008 0.000000 " />
<path stroke-linejoin="round" stroke-linecap="round" stroke="rgb(255,0,0)" stroke-width="3.749996" fill="none" d="M 64.289642 321.402374 L 67.628456 338.081207 " />
<path stroke-linejoin="round" stroke-linecap="round" stroke="rgb(0,0,255)" stroke-width="1.874998" fill="none" d="M 0.000000 750.000000 L 88.235291 0.000000 " />
<path stroke-linejoin="round" stroke-linecap="round" stroke="rgb(255,0,0)" stroke-width="3.749996" fill="none" d="M 55.558094 277.756165 L 64.289642 321.402374 " />
<path stroke-linejoin="round" stroke-linecap="round" stroke="rgb(0,0,255)" stroke-width="1.874998" fill="none" d="M 0.000000 750.000000 L 67.307686 0.000000 " />
<path stroke-linejoin="round" stroke-linecap="round" stroke="rgb(255,0,0)" stroke-width="3.749996" fill="none" d="M 46.461761 232.283188 L 55.558094 277.756165 " />
<path stroke-linejoin="round" stroke-linecap="round" stroke="rgb(0,0,255)" stroke-width="1.874998" fill="none" d="M 0.000000 750.000000 L 51.136360 0.000000 " />
<path stroke-linejoin="round" stroke-linecap="round" stroke="rgb(255,0,0)" stroke-width="3.749996" fill="none" d="M 38.136562 190.663620 L 46.461761 232.283234 " />
<path stroke-linejoin="round" stroke-linecap="round" stroke="rgb(0,0,255)" stroke-width="1.874998" fill="none" d="M 0.000000 750.000000 L 42.613640 0.000000 " />
<path stroke-linejoin="round" stroke-linecap="round" stroke="rgb(255,0,0)" stroke-width="3.749996" fill="none" d="M 33.186481 165.917938 L 38.136562 190.663620 " />
<path stroke-linejoin="round" stroke-linecap="round" stroke="rgb(0,0,255)" stroke-width="1.874998" fill="none" d="M 0.000000 750.000000 L 41.666664 0.000000 " />
<path stroke-linejoin="round" stroke-linecap="round" stroke="rgb(255,0,0)" stroke-width="3.749996" fill="none" d="M 32.609180 163.034973 L 33.186481 165.917938 " />
<path stroke-linejoin="round" stroke-linecap="round" stroke="rgb(0,0,255)" stroke-width="1.874998" fill="none" d="M 0.000000 750.000000 L 34.482746 0.000000 " />
<path stroke-linejoin="round" stroke-linecap="round" stroke="rgb(255,0,0)" stroke-width="3.749996" fill="none" d="M 28.037689 140.180283 L 32.609180 163.034973 " />
<path stroke-linejoin="round" stroke-linecap="round" stroke="rgb(0,0,255)" stroke-width="1.874998" fill="none" d="M 0.000000 750.000000 L 32.258057 0.000000 " />
<path stroke-linejoin="round" stroke-linecap="round" stroke="rgb(255,0,0)" stroke-width="3.749996" fill="none" d="M 26.548885 132.738342 L 28.037689 140.180283 " />
<path stroke-linejoin="round" stroke-linecap="round" stroke="rgb(0,0,255)" stroke-width="1.874998" fill="none" d="M 0.000000 750.000000 L 31.578943 0.000000 " />
<path stroke-linejoin="round" stroke-linecap="round" stroke="rgb(255,0,0)" stroke-width="3.749996" fill="none" d="M 26.087120 130.431000 L 26.548885 132.738342 " />
<path stroke-linejoin="round" stroke-linecap="round" stroke="rgb(0,0,255)" stroke-width="1.874998" fill="none" d="M 0.000000 750.000000 L 30.927837 0.000000 " />
<path stroke-linejoin="round" stroke-linecap="round" stroke="rgb(255,0,0)" stroke-width="3.749996" fill="none" d="M 25.641136 128.202332 L 26.087120 130.431000 " />
<path stroke-linejoin="round" stroke-linecap="round" stroke="rgb(0,0,255)" stroke-width="1.874998" fill="none" d="M 0.000000 750.000000 L 30.612253 0.000000 " />
<path stroke-linejoin="round" stroke-linecap="round" stroke="rgb(255,0,0)" stroke-width="3.749996" fill="none" d="M 25.423809 127.116570 L 25.641136 128.202332 " />
<path stroke-linejoin="round" stroke-linecap="round" stroke="rgb(0,0,255)" stroke-width="1.874998" fill="none" d="M 0.000000 750.000000 L 23.437500 0.000000 " />
<path stroke-linejoin="round" stroke-linecap="round" stroke="rgb(255,0,0)" stroke-width="3.749996" fill="none" d="M 20.270325 101.349701 L 25.423809 127.116570 " />
<path stroke-linejoin="round" stroke-linecap="round" stroke="rgb(0,0,255)" stroke-width="1.874998" fill="none" d="M 0.000000 750.000000 L 14.150932 0.000000 " />
<path stroke-linejoin="round" stroke-linecap="round" stroke="rgb(255,0,0)" stroke-width="3.749996" fill="none" d="M 12.931064 64.653870 L 20.270325 101.349701 " />
<path stroke-linejoin="round" stroke-linecap="round" stroke="rgb(0,0,255)" stroke-width="1.874998" fill="none" d="M 0.000000 750.000000 L 6.696425 0.000000 " />
<path stroke-linejoin="round" stroke-linecap="round" stroke="rgb(255,0,0)" stroke-width="3.749996" fill="none" d="M 6.410256 32.050251 L 12.931064 64.653931 " />
<path stroke-linejoin="round" stroke-linecap="round" stroke="rgb(0,0,255)" stroke-width="1.874998" fill="none" d="M 0.000000 750.000000 L 0.000000 0.000000 " />
<path stroke-linejoin="round" stroke-linecap="round" stroke="rgb(255,0,0)" stroke-width="3.749996" fill="none" d="M 0.000000 0.000000 L 6.410256 32.050251 " />
<circle cx="248.579543" cy="742.897734" r="3.749996" style="fill:rgb(0,127,0);stroke-width:1" /><circle cx="244.926944" cy="735.592537" r="3.749996" style="fill:rgb(0,127,0);stroke-width:1" /><circle cx="241.769146" cy="729.276940" r="3.749996" style="fill:rgb(0,127,0);stroke-width:1" /><circle cx="238.123421" cy="721.985489" r="3.749996" style="fill:rgb(0,127,0);stroke-width:1" /><circle cx="234.374989" cy="714.488626" r="3.749996" style="fill:rgb(0,127,0);stroke-width:1" /><circle cx="231.687650" cy="709.113948" r="3.749996" style="fill:rgb(0,127,0);stroke-width:1" /><circle cx="230.519492" cy="706.777588" r="3.749996" style="fill:rgb(0,127,0);stroke-width:1" /><circle cx="227.953780" cy="701.646164" r="3.749996" style="fill:rgb(0,127,0);stroke-width:1" /><circle cx="224.116165" cy="693.970956" r="3.749996" style="fill:rgb(0,127,0);stroke-width:1" /><circle cx="220.170457" cy="686.079539" r="3.749996" style="fill:rgb(0,127,0);stroke-width:1" /><circle cx="218.058988" cy="681.856558" r="3.749996" style="fill:rgb(0,127,0);stroke-width:1" /><circle cx="214.138415" cy="674.015410" r="3.749996" style="fill:rgb(0,127,0);stroke-width:1" /><circle cx="212.320615" cy="670.379765" r="3.749996" style="fill:rgb(0,127,0);stroke-width:1" /><circle cx="210.108921" cy="665.956423" r="3.749996" style="fill:rgb(0,127,0);stroke-width:1" /><circle cx="208.428059" cy="662.594698" r="3.749996" style="fill:rgb(0,127,0);stroke-width:1" /><circle cx="205.965936" cy="657.670431" r="3.749996" style="fill:rgb(0,127,0);stroke-width:1" /><circle cx="204.430316" cy="654.599190" r="3.749996" style="fill:rgb(0,127,0);stroke-width:1" /><circle cx="200.323027" cy="646.384634" r="3.749996" style="fill:rgb(0,127,0);stroke-width:1" /><circle cx="199.050575" cy="643.839687" r="3.749996" style="fill:rgb(0,127,0);stroke-width:1" /><circle cx="196.101699" cy="637.941889" r="3.749996" style="fill:rgb(0,127,0);stroke-width:1" /><circle cx="194.981117" cy="635.700725" r="3.749996" style="fill:rgb(0,127,0);stroke-width:1" /><circle cx="191.761415" cy="629.261322" r="3.749996" style="fill:rgb(0,127,0);stroke-width:1" /><circle cx="190.801665" cy="627.341799" r="3.749996" style="fill:rgb(0,127,0);stroke-width:1" /><circle cx="187.297158" cy="620.332740" r="3.749996" style="fill:rgb(0,127,0);stroke-width:1" /><circle cx="186.507717" cy="618.753836" r="3.749996" style="fill:rgb(0,127,0);stroke-width:1" /><circle cx="182.094477" cy="609.927334" r="3.749996" style="fill:rgb(0,127,0);stroke-width:1" /><circle cx="177.556895" cy="600.852214" r="3.749996" style="fill:rgb(0,127,0);stroke-width:1" /><circle cx="172.889695" cy="591.517769" r="3.749996" style="fill:rgb(0,127,0);stroke-width:1" /><circle cx="172.692329" cy="591.123059" r="3.749996" style="fill:rgb(0,127,0);stroke-width:1" /><circle cx="168.087222" cy="581.912778" r="3.749996" style="fill:rgb(0,127,0);stroke-width:1" /><circle cx="163.143463" cy="572.025307" r="3.749996" style="fill:rgb(0,127,0);stroke-width:1" /><circle cx="158.482231" cy="562.702820" r="3.749996" style="fill:rgb(0,127,0);stroke-width:1" /><circle cx="153.470948" cy="552.680209" r="3.749996" style="fill:rgb(0,127,0);stroke-width:1" /><circle cx="149.147809" cy="544.033986" r="3.749996" style="fill:rgb(0,127,0);stroke-width:1" /><circle cx="145.061575" cy="535.861507" r="3.749996" style="fill:rgb(0,127,0);stroke-width:1" /><circle cx="144.074745" cy="533.887859" r="3.749996" style="fill:rgb(0,127,0);stroke-width:1" /><circle cx="138.854653" cy="523.447674" r="3.749996" style="fill:rgb(0,127,0);stroke-width:1" /><circle cx="134.943254" cy="515.624877" r="3.749996" style="fill:rgb(0,127,0);stroke-width:1" /><circle cx="129.667260" cy="505.072955" r="3.749996" style="fill:rgb(0,127,0);stroke-width:1" /><circle cx="126.065411" cy="497.869190" r="3.749996" style="fill:rgb(0,127,0);stroke-width:1" /><circle cx="120.738700" cy="487.215791" r="3.749996" style="fill:rgb(0,127,0);stroke-width:1" /><circle cx="117.430776" cy="480.599966" r="3.749996" style="fill:rgb(0,127,0);stroke-width:1" /><circle cx="112.058133" cy="469.854657" r="3.749996" style="fill:rgb(0,127,0);stroke-width:1" /><circle cx="109.622084" cy="464.982569" r="3.749996" style="fill:rgb(0,127,0);stroke-width:1" /><circle cx="103.818566" cy="453.375489" r="3.749996" style="fill:rgb(0,127,0);stroke-width:1" /><circle cx="97.841822" cy="441.421956" r="3.749996" style="fill:rgb(0,127,0);stroke-width:1" /><circle cx="91.683939" cy="429.106208" r="3.749996" style="fill:rgb(0,127,0);stroke-width:1" /><circle cx="88.987358" cy="423.713028" r="3.749996" style="fill:rgb(0,127,0);stroke-width:1" /><circle cx="83.299421" cy="409.229605" r="3.749996" style="fill:rgb(0,127,0);stroke-width:1" /><circle cx="78.337580" cy="389.647096" r="3.749996" style="fill:rgb(0,127,0);stroke-width:1" /><circle cx="76.587595" cy="382.379532" r="3.749996" style="fill:rgb(0,127,0);stroke-width:1" /><circle cx="73.049784" cy="364.828438" r="3.749996" style="fill:rgb(0,127,0);stroke-width:1" /><circle cx="72.125830" cy="360.520542" r="3.749996" style="fill:rgb(0,127,0);stroke-width:1" /><circle cx="69.335259" cy="346.594839" r="3.749996" style="fill:rgb(0,127,0);stroke-width:1" /><circle cx="67.628458" cy="338.081181" r="3.749996" style="fill:rgb(0,127,0);stroke-width:1" /><circle cx="64.289644" cy="321.402373" r="3.749996" style="fill:rgb(0,127,0);stroke-width:1" /><circle cx="55.558093" cy="277.756155" r="3.749996" style="fill:rgb(0,127,0);stroke-width:1" /><circle cx="46.461761" cy="232.283179" r="3.749996" style="fill:rgb(0,127,0);stroke-width:1" /><circle cx="38.136564" cy="190.663621" r="3.749996" style="fill:rgb(0,127,0);stroke-width:1" /><circle cx="33.186480" cy="165.917940" r="3.749996" style="fill:rgb(0,127,0);stroke-width:1" /><circle cx="32.609180" cy="163.034968" r="3.749996" style="fill:rgb(0,127,0);stroke-width:1" /><circle cx="28.037690" cy="140.180290" r="3.749996" style="fill:rgb(0,127,0);stroke-width:1" /><circle cx="26.548885" cy="132.738344" r="3.749996" style="fill:rgb(0,127,0);stroke-width:1" /><circle cx="26.087120" cy="130.430996" r="3.749996" style="fill:rgb(0,127,0);stroke-width:1" /><circle cx="25.641136" cy="128.202327" r="3.749996" style="fill:rgb(0,127,0);stroke-width:1" /><circle cx="25.423810" cy="127.116568" r="3.749996" style="fill:rgb(0,127,0);stroke-width:1" /><circle cx="20.270325" cy="101.349704" r="3.749996" style="fill:rgb(0,127,0);stroke-width:1" /><circle cx="12.931064" cy="64.653866" r="3.749996" style="fill:rgb(0,127,0);stroke-width:1" /><circle cx="6.410256" cy="32.050252" r="3.749996" style="fill:rgb(0,127,0);stroke-width:1" /><circle cx="750.000000" cy="750.000000" r="3.749996" style="fill:rgb(0,127,0);stroke-width:1" /><path stroke-linejoin="round" stroke-linecap="round" stroke="rgb(255,255,255)" stroke-width="3.749996" fill="none" d="M 0.000000 750.000000 L 750.000000 750.000000 M 0.000000 750.000000 L 0.000000 0.000000 " />

</svg>