<svg xmlns="http://www.w3.org/2000/svg" version="1.1" width = "750" height = "750" viewBox = "0 0 750 750"  shape-rendering="crispEdges">
<path stroke-linejoin="round" stroke-linecap="round" stroke="rgb(255,255,0)" stroke-width="3.749996" fill="none" d="M 83.333328 750.000000 L 0.000000 0.000000 " />
<path stroke-linejoin="round" stroke-linecap="round" stroke="rgb(63,63,63)" stroke-width="3.749996" fill="none" d="M 0.000000 0.000000 L 750.000000 750.000000 M 83.333328 750.000000 L 39.215683 0.000000 " />
<path stroke-linejoin="round" stroke-linecap="round" stroke="rgb(191,191,191)" stroke-width="3.749996" fill="none" d="M 0.000000 666.666687 L 83.333328 750.000000 M 0.000000 0.000000 L 44.117645 750.000000 " />
<path stroke-linejoin="round" stroke-linecap="round" stroke="rgb(0,0,255)" stroke-width="1.874998" fill="none" d="M 0.000000 750.000000 L 750.000000 728.571411 " />
<path stroke-linejoin="round" stroke-linecap="round" stroke="rgb(255,0,0)" stroke-width="3.749996" fill="none" d="M 83.193497 747.623047 L 83.333328 750.000000 " />
<path stroke-linejoin="round" stroke-linecap="round" stroke="rgb(0,0,255)" stroke-width="1.874998" fill="none" d="M 0.000000 750.000000 L 750.000000 705.882385 " />
<path stroke-linejoin="round" stroke-linecap="round" stroke="rgb(255,0,0)" stroke-width="3.749996" fill="none" d="M 80.816544 745.246033 L 83.193497 747.623047 " />
<path stroke-linejoin="round" stroke-linecap="round" stroke="rgb(0,0,255)" stroke-width="1.874998" fill="none" d="M 0.000000 750.000000 L 750.000000 685.714294 " />
<path stroke-linejoin="round" stroke-linecap="round" stroke="rgb(255,0,0)" stroke-width="3.749996" fill="none" d="M 78.814903 743.244385 L 80.816544 745.246033 " />
<path stroke-linejoin="round" stroke-linecap="round" stroke="rgb(0,0,255)" stroke-width="1.874998" fill="none" d="M 0.000000 750.000000 L 750.000000 666.666687 " />
<path stroke-linejoin="round" stroke-linecap="round" stroke="rgb(255,0,0)" stroke-width="3.749996" fill="none" d="M 77.013397 741.442932 L 78.814880 743.244385 " />
<path stroke-linejoin="round" stroke-linecap="round" stroke="rgb(0,0,255)" stroke-width="1.874998" fill="none" d="M 0.000000 750.000000 L 750.000000 661.764709 " />
<path stroke-linejoin="round" stroke-linecap="round" stroke="rgb(255,0,0)" stroke-width="3.749996" fill="none" d="M 76.563034 740.992615 L 77.013397 741.442932 " />
<path stroke-linejoin="round" stroke-linecap="round" stroke="rgb(0,0,255)" stroke-width="1.874998" fill="none" d="M 0.000000 750.000000 L 750.000000 636.363647 " />
<path stroke-linejoin="round" stroke-linecap="round" stroke="rgb(255,0,0)" stroke-width="3.749996" fill="none" d="M 74.311180 738.740723 L 76.563034 740.992615 " />
<path stroke-linejoin="round" stroke-linecap="round" stroke="rgb(0,0,255)" stroke-width="1.874998" fill="none" d="M 0.000000 750.000000 L 750.000000 617.647095 " />
<path stroke-linejoin="round" stroke-linecap="round" stroke="rgb(255,0,0)" stroke-width="3.749996" fill="none" d="M 72.734871 737.164429 L 74.311180 738.740723 " />
<path stroke-linejoin="round" stroke-linecap="round" stroke="rgb(0,0,255)" stroke-width="1.874998" fill="none" d="M 0.000000 750.000000 L 750.000000 609.375000 " />
<path stroke-linejoin="round" stroke-linecap="round" stroke="rgb(255,0,0)" stroke-width="3.749996" fill="none" d="M 72.059334 736.488892 L 72.734871 737.164429 " />
<path stroke-linejoin="round" stroke-linecap="round" stroke="rgb(0,0,255)" stroke-width="1.874998" fill="none" d="M 0.000000 750.000000 L 750.000000 580.645142 " />
<path stroke-linejoin="round" stroke-linecap="round" stroke="rgb(255,0,0)" stroke-width="3.749996" fill="none" d="M 69.807465 734.237000 L 72.059334 736.488892 " />
<path stroke-linejoin="round" stroke-linecap="round" stroke="rgb(0,0,255)" stroke-width="1.874998" fill="none" d="M 0.000000 750.000000 L 750.000000 550.000000 " />
<path stroke-linejoin="round" stroke-linecap="round" stroke="rgb(255,0,0)" stroke-width="3.749996" fill="none" d="M 67.555611 731.985168 L 69.807465 734.237000 " />
<path stroke-linejoin="round" stroke-linecap="round" stroke="rgb(0,0,255)" stroke-width="1.874998" fill="none" d="M 0.000000 750.000000 L 750.000000 532.258118 " />
<path stroke-linejoin="round" stroke-linecap="round" stroke="rgb(255,0,0)" stroke-width="3.749996" fill="none" d="M 66.317078 730.746643 L 67.555611 731.985168 " />
<path stroke-linejoin="round" stroke-linecap="round" stroke="rgb(0,0,255)" stroke-width="1.874998" fill="none" d="M 0.000000 750.000000 L 750.000000 499.999969 " />
<path stroke-linejoin="round" stroke-linecap="round" stroke="rgb(255,0,0)" stroke-width="3.749996" fill="none" d="M 64.177818 728.607422 L 66.317078 730.746643 " />
<path stroke-linejoin="round" stroke-linecap="round" stroke="rgb(0,0,255)" stroke-width="1.874998" fill="none" d="M 0.000000 750.000000 L 750.000000 483.870941 " />
<path stroke-linejoin="round" stroke-linecap="round" stroke="rgb(255,0,0)" stroke-width="3.749996" fill="none" d="M 63.159138 727.588684 L 64.177818 728.607422 " />
<path stroke-linejoin="round" stroke-linecap="round" stroke="rgb(0,0,255)" stroke-width="1.874998" fill="none" d="M 0.000000 750.000000 L 750.000000 465.517212 " />
<path stroke-linejoin="round" stroke-linecap="round" stroke="rgb(255,0,0)" stroke-width="3.749996" fill="none" d="M 62.038555 726.468140 L 63.159138 727.588684 " />
<path stroke-linejoin="round" stroke-linecap="round" stroke="rgb(0,0,255)" stroke-width="1.874998" fill="none" d="M 0.000000 750.000000 L 750.000000 428.571411 " />
<path stroke-linejoin="round" stroke-linecap="round" stroke="rgb(255,0,0)" stroke-width="3.749996" fill="none" d="M 59.899292 724.328857 L 62.038555 726.468140 " />
<path stroke-linejoin="round" stroke-linecap="round" stroke="rgb(0,0,255)" stroke-width="1.874998" fill="none" d="M 0.000000 750.000000 L 750.000000 388.888885 " />
<path stroke-linejoin="round" stroke-linecap="round" stroke="rgb(255,0,0)" stroke-width="3.749996" fill="none" d="M 57.760029 722.189575 L 59.899292 724.328857 " />
<path stroke-linejoin="round" stroke-linecap="round" stroke="rgb(0,0,255)" stroke-width="1.874998" fill="none" d="M 0.000000 750.000000 L 750.000000 346.153839 " />
<path stroke-linejoin="round" stroke-linecap="round" stroke="rgb(255,0,0)" stroke-width="3.749996" fill="none" d="M 55.620789 720.050354 L 57.760029 722.189575 " />
<path stroke-linejoin="round" stroke-linecap="round" stroke="rgb(0,0,255)" stroke-width="1.874998" fill="none" d="M 0.000000 750.000000 L 750.000000 333.333313 " />
<path stroke-linejoin="round" stroke-linecap="round" stroke="rgb(255,0,0)" stroke-width="3.749996" fill="none" d="M 55.009560 719.439148 L 55.620789 720.050354 " />
<path stroke-linejoin="round" stroke-linecap="round" stroke="rgb(0,0,255)" stroke-width="1.874998" fill="none" d="M 0.000000 750.000000 L 750.000000 299.999969 " />
<path stroke-linejoin="round" stroke-linecap="round" stroke="rgb(255,0,0)" stroke-width="3.749996" fill="none" d="M 53.481503 717.911072 L 55.009560 719.439148 " />
<path stroke-linejoin="round" stroke-linecap="round" stroke="rgb(0,0,255)" stroke-width="1.874998" fill="none" d="M 0.000000 750.000000 L 750.000000 249.999985 " />
<path stroke-linejoin="round" stroke-linecap="round" stroke="rgb(255,0,0)" stroke-width="3.749996" fill="none" d="M 51.342243 715.771851 L 53.481503 717.911072 " />
<path stroke-linejoin="round" stroke-linecap="round" stroke="rgb(0,0,255)" stroke-width="1.874998" fill="none" d="M 0.000000 750.000000 L 750.000000 240.000000 " />
<path stroke-linejoin="round" stroke-linecap="round" stroke="rgb(255,0,0)" stroke-width="3.749996" fill="none" d="M 50.934769 715.364380 L 51.342243 715.771851 " />
<path stroke-linejoin="round" stroke-linecap="round" stroke="rgb(0,0,255)" stroke-width="1.874998" fill="none" d="M 0.000000 750.000000 L 720.000000 0.000000 " />
<path stroke-linejoin="round" stroke-linecap="round" stroke="rgb(255,0,0)" stroke-width="3.749996" fill="none" d="M 49.913719 698.006531 L 50.934769 715.364380 " />
<path stroke-linejoin="round" stroke-linecap="round" stroke="rgb(0,0,255)" stroke-width="1.874998" fill="none" d="M 0.000000 750.000000 L 535.714294 0.000000 " />
<path stroke-linejoin="round" stroke-linecap="round" stroke="rgb(255,0,0)" stroke-width="3.749996" fill="none" d="M 48.941666 681.481628 L 49.913719 698.006531 " />
<path stroke-linejoin="round" stroke-linecap="round" stroke="rgb(0,0,255)" stroke-width="1.874998" fill="none" d="M 0.000000 750.000000 L 442.307709 0.000000 " />
<path stroke-linejoin="round" stroke-linecap="round" stroke="rgb(255,0,0)" stroke-width="3.749996" fill="none" d="M 48.167713 668.324341 L 48.941666 681.481628 " />
<path stroke-linejoin="round" stroke-linecap="round" stroke="rgb(0,0,255)" stroke-width="1.874998" fill="none" d="M 0.000000 750.000000 L 336.734680 0.000000 " />
<path stroke-linejoin="round" stroke-linecap="round" stroke="rgb(255,0,0)" stroke-width="3.749996" fill="none" d="M 46.835907 645.683655 L 48.167713 668.324341 " />
<path stroke-linejoin="round" stroke-linecap="round" stroke="rgb(0,0,255)" stroke-width="1.874998" fill="none" d="M 0.000000 750.000000 L 284.482758 0.000000 " />
<path stroke-linejoin="round" stroke-linecap="round" stroke="rgb(255,0,0)" stroke-width="3.749996" fill="none" d="M 45.860165 629.095947 L 46.835907 645.683594 " />
<path stroke-linejoin="round" stroke-linecap="round" stroke="rgb(0,0,255)" stroke-width="1.874998" fill="none" d="M 0.000000 750.000000 L 236.842102 0.000000 " />
<path stroke-linejoin="round" stroke-linecap="round" stroke="rgb(255,0,0)" stroke-width="3.749996" fill="none" d="M 44.654221 608.594910 L 45.860165 629.095947 " />
<path stroke-linejoin="round" stroke-linecap="round" stroke="rgb(0,0,255)" stroke-width="1.874998" fill="none" d="M 0.000000 750.000000 L 212.686569 0.000000 " />
<path stroke-linejoin="round" stroke-linecap="round" stroke="rgb(255,0,0)" stroke-width="3.749996" fill="none" d="M 43.871819 595.294128 L 44.654221 608.594910 " />
<path stroke-linejoin="round" stroke-linecap="round" stroke="rgb(0,0,255)" stroke-width="1.874998" fill="none" d="M 0.000000 750.000000 L 175.324692 0.000000 " />
<path stroke-linejoin="round" stroke-linecap="round" stroke="rgb(255,0,0)" stroke-width="3.749996" fill="none" d="M 42.322395 568.954163 L 43.871819 595.294128 " />
<path stroke-linejoin="round" stroke-linecap="round" stroke="rgb(0,0,255)" stroke-width="1.874998" fill="none" d="M 0.000000 750.000000 L 169.014084 0.000000 " />
<path stroke-linejoin="round" stroke-linecap="round" stroke="rgb(255,0,0)" stroke-width="3.749996" fill="none" d="M 42.007080 563.593567 L 42.322395 568.954224 " />
<path stroke-linejoin="round" stroke-linecap="round" stroke="rgb(0,0,255)" stroke-width="1.874998" fill="none" d="M 0.000000 750.000000 L 157.407410 0.000000 " />
<path stroke-linejoin="round" stroke-linecap="round" stroke="rgb(255,0,0)" stroke-width="3.749996" fill="none" d="M 41.375557 552.857666 L 42.007080 563.593567 " />
<path stroke-linejoin="round" stroke-linecap="round" stroke="rgb(0,0,255)" stroke-width="1.874998" fill="none" d="M 0.000000 750.000000 L 131.868118 0.000000 " />
<path stroke-linejoin="round" stroke-linecap="round" stroke="rgb(255,0,0)" stroke-width="3.749996" fill="none" d="M 39.692646 524.248108 L 41.375557 552.857666 " />
<path stroke-linejoin="round" stroke-linecap="round" stroke="rgb(0,0,255)" stroke-width="1.874998" fill="none" d="M 0.000000 750.000000 L 129.032272 0.000000 " />
<path stroke-linejoin="round" stroke-linecap="round" stroke="rgb(255,0,0)" stroke-width="3.749996" fill="none" d="M 39.475143 520.550720 L 39.692646 524.248108 " />
<path stroke-linejoin="round" stroke-linecap="round" stroke="rgb(0,0,255)" stroke-width="1.874998" fill="none" d="M 0.000000 750.000000 L 123.786407 0.000000 " />
<path stroke-linejoin="round" stroke-linecap="round" stroke="rgb(255,0,0)" stroke-width="3.749996" fill="none" d="M 39.053455 513.381958 L 39.475143 520.550720 " />
<path stroke-linejoin="round" stroke-linecap="round" stroke="rgb(0,0,255)" stroke-width="1.874998" fill="none" d="M 0.000000 750.000000 L 111.702118 0.000000 " />
<path stroke-linejoin="round" stroke-linecap="round" stroke="rgb(255,0,0)" stroke-width="3.749996" fill="none" d="M 37.974022 495.031586 L 39.053455 513.381958 " />
<path stroke-linejoin="round" stroke-linecap="round" stroke="rgb(0,0,255)" stroke-width="1.874998" fill="none" d="M 0.000000 750.000000 L 108.173088 0.000000 " />
<path stroke-linejoin="round" stroke-linecap="round" stroke="rgb(255,0,0)" stroke-width="3.749996" fill="none" d="M 37.626476 489.123169 L 37.974022 495.031586 " />
<path stroke-linejoin="round" stroke-linecap="round" stroke="rgb(0,0,255)" stroke-width="1.874998" fill="none" d="M 0.000000 750.000000 L 92.105270 0.000000 " />
<path stroke-linejoin="round" stroke-linecap="round" stroke="rgb(255,0,0)" stroke-width="3.749996" fill="none" d="M 35.816410 458.352112 L 37.626476 489.123169 " />
<path stroke-linejoin="round" stroke-linecap="round" stroke="rgb(0,0,255)" stroke-width="1.874998" fill="none" d="M 0.000000 750.000000 L 90.517242 0.000000 " />
<path stroke-linejoin="round" stroke-linecap="round" stroke="rgb(255,0,0)" stroke-width="3.749996" fill="none" d="M 35.614059 454.912140 L 35.816410 458.352112 " />
<path stroke-linejoin="round" stroke-linecap="round" stroke="rgb(0,0,255)" stroke-width="1.874998" fill="none" d="M 0.000000 750.000000 L 86.776863 0.000000 " />
<path stroke-linejoin="round" stroke-linecap="round" stroke="rgb(255,0,0)" stroke-width="3.749996" fill="none" d="M 35.118027 446.479828 L 35.614059 454.912140 " />
<path stroke-linejoin="round" stroke-linecap="round" stroke="rgb(0,0,255)" stroke-width="1.874998" fill="none" d="M 0.000000 750.000000 L 85.877853 0.000000 " />
<path stroke-linejoin="round" stroke-linecap="round" stroke="rgb(255,0,0)" stroke-width="3.749996" fill="none" d="M 34.994556 444.380829 L 35.118027 446.479828 " />
<path stroke-linejoin="round" stroke-linecap="round" stroke="rgb(0,0,255)" stroke-width="1.874998" fill="none" d="M 0.000000 750.000000 L 83.999992 0.000000 " />
<path stroke-linejoin="round" stroke-linecap="round" stroke="rgb(255,0,0)" stroke-width="3.749996" fill="none" d="M 34.731052 439.901245 L 34.994556 444.380829 " />
<path stroke-linejoin="round" stroke-linecap="round" stroke="rgb(0,0,255)" stroke-width="1.874998" fill="none" d="M 0.000000 750.000000 L 83.333328 0.000000 " />
<path stroke-linejoin="round" stroke-linecap="round" stroke="rgb(255,0,0)" stroke-width="3.749996" fill="none" d="M 34.482994 439.653168 L 34.731052 439.901245 " />
<path stroke-linejoin="round" stroke-linecap="round" stroke="rgb(0,0,255)" stroke-width="1.874998" fill="none" d="M 0.000000 750.000000 L 68.807335 0.000000 " />
<path stroke-linejoin="round" stroke-linecap="round" stroke="rgb(255,0,0)" stroke-width="3.749996" fill="none" d="M 32.134674 399.731964 L 34.482994 439.653137 " />
<path stroke-linejoin="round" stroke-linecap="round" stroke="rgb(0,0,255)" stroke-width="1.874998" fill="none" d="M 0.000000 750.000000 L 58.139542 0.000000 " />
<path stroke-linejoin="round" stroke-linecap="round" stroke="rgb(255,0,0)" stroke-width="3.749996" fill="none" d="M 29.985197 363.190887 L 32.134674 399.731964 " />
<path stroke-linejoin="round" stroke-linecap="round" stroke="rgb(0,0,255)" stroke-width="1.874998" fill="none" d="M 0.000000 750.000000 L 57.692303 0.000000 " />
<path stroke-linejoin="round" stroke-linecap="round" stroke="rgb(255,0,0)" stroke-width="3.749996" fill="none" d="M 29.771023 362.976746 L 29.985197 363.190887 " />
<path stroke-linejoin="round" stroke-linecap="round" stroke="rgb(0,0,255)" stroke-width="1.874998" fill="none" d="M 0.000000 750.000000 L 56.603775 0.000000 " />
<path stroke-linejoin="round" stroke-linecap="round" stroke="rgb(255,0,0)" stroke-width="3.749996" fill="none" d="M 29.248730 362.454468 L 29.771023 362.976807 " />
<path stroke-linejoin="round" stroke-linecap="round" stroke="rgb(0,0,255)" stroke-width="1.874998" fill="none" d="M 0.000000 750.000000 L 51.282047 0.000000 " />
<path stroke-linejoin="round" stroke-linecap="round" stroke="rgb(255,0,0)" stroke-width="3.749996" fill="none" d="M 27.977028 340.835846 L 29.248730 362.454468 " />
<path stroke-linejoin="round" stroke-linecap="round" stroke="rgb(0,0,255)" stroke-width="1.874998" fill="none" d="M 0.000000 750.000000 L 43.795624 0.000000 " />
<path stroke-linejoin="round" stroke-linecap="round" stroke="rgb(255,0,0)" stroke-width="3.749996" fill="none" d="M 25.927439 305.992584 L 27.977028 340.835846 " />
<path stroke-linejoin="round" stroke-linecap="round" stroke="rgb(0,0,255)" stroke-width="1.874998" fill="none" d="M 0.000000 750.000000 L 42.553200 0.000000 " />
<path stroke-linejoin="round" stroke-linecap="round" stroke="rgb(255,0,0)" stroke-width="3.749996" fill="none" d="M 25.553026 299.627747 L 25.927439 305.992584 " />
<path stroke-linejoin="round" stroke-linecap="round" stroke="rgb(0,0,255)" stroke-width="1.874998" fill="none" d="M 0.000000 750.000000 L 40.000008 0.000000 " />
<path stroke-linejoin="round" stroke-linecap="round" stroke="rgb(255,0,0)" stroke-width="3.749996" fill="none" d="M 24.748920 285.957764 L 25.553026 299.627747 " />
<path stroke-linejoin="round" stroke-linecap="round" stroke="rgb(0,0,255)" stroke-width="1.874998" fill="none" d="M 0.000000 750.000000 L 39.473690 0.000000 " />
<path stroke-linejoin="round" stroke-linecap="round" stroke="rgb(255,0,0)" stroke-width="3.749996" fill="none" d="M 24.577059 283.036041 L 24.748920 285.957764 " />
<path stroke-linejoin="round" stroke-linecap="round" stroke="rgb(0,0,255)" stroke-width="1.874998" fill="none" d="M 0.000000 750.000000 L 37.267082 0.000000 " />
<path stroke-linejoin="round" stroke-linecap="round" stroke="rgb(255,0,0)" stroke-width="3.749996" fill="none" d="M 23.832298 270.375122 L 24.577059 283.036041 " />
<path stroke-linejoin="round" stroke-linecap="round" stroke="rgb(0,0,255)" stroke-width="1.874998" fill="none" d="M 0.000000 750.000000 L 32.208591 0.000000 " />
<path stroke-linejoin="round" stroke-linecap="round" stroke="rgb(255,0,0)" stroke-width="3.749996" fill="none" d="M 21.962463 238.588120 L 23.832298 270.375122 " />
<path stroke-linejoin="round" stroke-linecap="round" stroke="rgb(0,0,255)" stroke-width="1.874998" fill="none" d="M 0.000000 750.000000 L 26.011572 0.000000 " />
<path stroke-linejoin="round" stroke-linecap="round" stroke="rgb(255,0,0)" stroke-width="3.749996" fill="none" d="M 19.304150 193.396790 L 21.962463 238.588074 " />
<path stroke-linejoin="round" stroke-linecap="round" stroke="rgb(0,0,255)" stroke-width="1.874998" fill="none" d="M 0.000000 750.000000 L 20.491808 0.000000 " />
<path stroke-linejoin="round" stroke-linecap="round" stroke="rgb(255,0,0)" stroke-width="3.749996" fill="none" d="M 16.506985 145.844742 L 19.304150 193.396790 " />
<path stroke-linejoin="round" stroke-linecap="round" stroke="rgb(0,0,255)" stroke-width="1.874998" fill="none" d="M 0.000000 750.000000 L 15.544049 0.000000 " />
<path stroke-linejoin="round" stroke-linecap="round" stroke="rgb(255,0,0)" stroke-width="3.749996" fill="none" d="M 13.559752 95.741943 L 16.506985 145.844772 " />
<path stroke-linejoin="round" stroke-linecap="round" stroke="rgb(0,0,255)" stroke-width="1.874998" fill="none" d="M 0.000000 750.000000 L 14.084503 0.000000 " />
<path stroke-linejoin="round" stroke-linecap="round" stroke="rgb(255,0,0)" stroke-width="3.749996" fill="none" d="M 12.594647 79.335136 L 13.559752 95.741943 " />
<path stroke-linejoin="round" stroke-linecap="round" stroke="rgb(0,0,255)" stroke-width="1.874998" fill="none" d="M 0.000000 750.000000 L 13.574659 0.000000 " />
<path stroke-linejoin="round" stroke-linecap="round" stroke="rgb(255,0,0)" stroke-width="3.749996" fill="none" d="M 12.246005 73.408287 L 12.594647 79.335136 " />
<path stroke-linejoin="round" stroke-linecap="round" stroke="rgb(0,0,255)" stroke-width="1.874998" fill="none" d="M 0.000000 750.000000 L 13.100445 0.000000 " />
<path stroke-linejoin="round" stroke-linecap="round" stroke="rgb(255,0,0)" stroke-width="3.749996" fill="none" d="M 11.916139 67.800682 L 12.246005 73.408287 " />
<path stroke-linejoin="round" stroke-linecap="round" stroke="rgb(0,0,255)" stroke-width="1.874998" fill="none" d="M 0.000000 750.000000 L 13.043470 0.000000 " />
<path stroke-linejoin="round" stroke-linecap="round" stroke="rgb(255,0,0)" stroke-width="3.749996" fill="none" d="M 11.876151 67.120872 L 11.916139 67.800682 " />
<path stroke-linejoin="round" stroke-linecap="round" stroke="rgb(0,0,255)" stroke-width="1.874998" fill="none" d="M 0.000000 750.000000 L 12.987010 0.000000 " />
<path stroke-linejoin="round" stroke-linecap="round" stroke="rgb(255,0,0)" stroke-width="3.749996" fill="none" d="M 11.836432 66.445580 L 11.876151 67.120872 " />
<path stroke-linejoin="round" stroke-linecap="round" stroke="rgb(0,0,255)" stroke-width="1.874998" fill="none" d="M 0.000000 750.000000 L 12.396701 0.000000 " />
<path stroke-linejoin="round" stroke-linecap="round" stroke="rgb(255,0,0)" stroke-width="3.749996" fill="none" d="M 11.416443 59.305519 L 11.836432 66.445580 " />
<path stroke-linejoin="round" stroke-linecap="round" stroke="rgb(0,0,255)" stroke-width="1.874998" fill="none" d="M 0.000000 750.000000 L 9.109318 0.000000 " />
<path stroke-linejoin="round" stroke-linecap="round" stroke="rgb(255,0,0)" stroke-width="3.749996" fill="none" d="M 8.907125 16.647108 L 11.416443 59.305519 " />
<path stroke-linejoin="round" stroke-linecap="round" stroke="rgb(0,0,255)" stroke-width="1.874998" fill="none" d="M 0.000000 750.000000 L 5.836576 0.000000 " />
<path stroke-linejoin="round" stroke-linecap="round" stroke="rgb(255,0,0)" stroke-width="3.749996" fill="none" d="M 5.791515 5.791515 L 8.907125 16.647108 " />
<path stroke-linejoin="round" stroke-linecap="round" stroke="rgb(0,0,255)" stroke-width="1.874998" fill="none" d="M 0.000000 750.000000 L 2.808988 0.000000 " />
<path stroke-linejoin="round" stroke-linecap="round" stroke="rgb(255,0,0)" stroke-width="3.749996" fill="none" d="M 2.798505 2.798483 L 5.791515 5.791515 " />
<path stroke-linejoin="round" stroke-linecap="round" stroke="rgb(0,0,255)" stroke-width="1.874998" fill="none" d="M 0.000000 750.000000 L 0.000000 0.000000 " />
<path stroke-linejoin="round" stroke-linecap="round" stroke="rgb(255,0,0)" stroke-width="3.749996" fill="none" d="M 0.000000 0.000000 L 2.798505 2.798550 " />
<circle cx="83.193496" cy="747.623071" r="3.749996" style="fill:rgb(0,127,0);stroke-width:1" /><circle cx="80.816545" cy="745.246075" r="3.749996" style="fill:rgb(0,127,0);stroke-width:1" /><circle cx="78.814901" cy="743.244432" r="3.749996" style="fill:rgb(0,127,0);stroke-width:1" /><circle cx="77.013396" cy="741.442949" r="3.749996" style="fill:rgb(0,127,0);stroke-width:1" /><circle cx="76.563030" cy="740.992583" r="3.749996" style="fill:rgb(0,127,0);stroke-width:1" /><circle cx="74.311182" cy="738.740735" r="3.749996" style="fill:rgb(0,127,0);stroke-width:1" /><circle cx="72.734870" cy="737.164423" r="3.749996" style="fill:rgb(0,127,0);stroke-width:1" /><circle cx="72.059333" cy="736.488886" r="3.749996" style="fill:rgb(0,127,0);stroke-width:1" /><circle cx="69.807462" cy="734.237015" r="3.749996" style="fill:rgb(0,127,0);stroke-width:1" /><circle cx="67.555614" cy="731.985167" r="3.749996" style="fill:rgb(0,127,0);stroke-width:1" /><circle cx="66.317081" cy="730.746657" r="3.749996" style="fill:rgb(0,127,0);stroke-width:1" /><circle cx="64.177819" cy="728.607394" r="3.749996" style="fill:rgb(0,127,0);stroke-width:1" /><circle cx="63.159138" cy="727.588691" r="3.749996" style="fill:rgb(0,127,0);stroke-width:1" /><circle cx="62.038556" cy="726.468131" r="3.749996" style="fill:rgb(0,127,0);stroke-width:1" /><circle cx="59.899293" cy="724.328868" r="3.749996" style="fill:rgb(0,127,0);stroke-width:1" /><circle cx="57.760030" cy="722.189605" r="3.749996" style="fill:rgb(0,127,0);stroke-width:1" /><circle cx="55.620790" cy="720.050342" r="3.749996" style="fill:rgb(0,127,0);stroke-width:1" /><circle cx="55.009559" cy="719.439134" r="3.749996" style="fill:rgb(0,127,0);stroke-width:1" /><circle cx="53.481504" cy="717.911080" r="3.749996" style="fill:rgb(0,127,0);stroke-width:1" /><circle cx="51.342241" cy="715.771839" r="3.749996" style="fill:rgb(0,127,0);stroke-width:1" /><circle cx="50.934769" cy="715.364367" r="3.749996" style="fill:rgb(0,127,0);stroke-width:1" /><circle cx="49.913719" cy="698.006541" r="3.749996" style="fill:rgb(0,127,0);stroke-width:1" /><circle cx="48.941664" cy="681.481652" r="3.749996" style="fill:rgb(0,127,0);stroke-width:1" /><circle cx="48.167713" cy="668.324322" r="3.749996" style="fill:rgb(0,127,0);stroke-width:1" /><circle cx="46.835907" cy="645.683661" r="3.749996" style="fill:rgb(0,127,0);stroke-width:1" /><circle cx="45.860164" cy="629.095942" r="3.749996" style="fill:rgb(0,127,0);stroke-width:1" /><circle cx="44.654220" cy="608.594947" r="3.749996" style="fill:rgb(0,127,0);stroke-width:1" /><circle cx="43.871820" cy="595.294118" r="3.749996" style="fill:rgb(0,127,0);stroke-width:1" /><circle cx="42.322397" cy="568.954155" r="3.749996" style="fill:rgb(0,127,0);stroke-width:1" /><circle cx="42.007081" cy="563.593581" r="3.749996" style="fill:rgb(0,127,0);stroke-width:1" /><circle cx="41.375555" cy="552.857660" r="3.749996" style="fill:rgb(0,127,0);stroke-width:1" /><circle cx="39.692648" cy="524.248101" r="3.749996" style="fill:rgb(0,127,0);stroke-width:1" /><circle cx="39.475143" cy="520.550709" r="3.749996" style="fill:rgb(0,127,0);stroke-width:1" /><circle cx="39.053455" cy="513.381980" r="3.749996" style="fill:rgb(0,127,0);stroke-width:1" /><circle cx="37.974022" cy="495.031580" r="3.749996" style="fill:rgb(0,127,0);stroke-width:1" /><circle cx="37.626475" cy="489.123166" r="3.749996" style="fill:rgb(0,127,0);stroke-width:1" /><circle cx="35.816409" cy="458.352109" r="3.749996" style="fill:rgb(0,127,0);stroke-width:1" /><circle cx="35.614058" cy="454.912126" r="3.749996" style="fill:rgb(0,127,0);stroke-width:1" /><circle cx="35.118029" cy="446.479836" r="3.749996" style="fill:rgb(0,127,0);stroke-width:1" /><circle cx="34.994557" cy="444.380818" r="3.749996" style="fill:rgb(0,127,0);stroke-width:1" /><circle cx="34.731053" cy="439.901233" r="3.749996" style="fill:rgb(0,127,0);stroke-width:1" /><circle cx="34.482993" cy="439.653156" r="3.749996" style="fill:rgb(0,127,0);stroke-width:1" /><circle cx="32.134674" cy="399.731993" r="3.749996" style="fill:rgb(0,127,0);stroke-width:1" /><circle cx="29.985197" cy="363.190889" r="3.749996" style="fill:rgb(0,127,0);stroke-width:1" /><circle cx="29.771022" cy="362.976749" r="3.749996" style="fill:rgb(0,127,0);stroke-width:1" /><circle cx="29.248729" cy="362.454453" r="3.749996" style="fill:rgb(0,127,0);stroke-width:1" /><circle cx="27.977027" cy="340.835849" r="3.749996" style="fill:rgb(0,127,0);stroke-width:1" /><circle cx="25.927439" cy="305.992601" r="3.749996" style="fill:rgb(0,127,0);stroke-width:1" /><circle cx="25.553025" cy="299.627742" r="3.749996" style="fill:rgb(0,127,0);stroke-width:1" /><circle cx="24.748921" cy="285.957774" r="3.749996" style="fill:rgb(0,127,0);stroke-width:1" /><circle cx="24.577059" cy="283.036033" r="3.749996" style="fill:rgb(0,127,0);stroke-width:1" /><circle cx="23.832299" cy="270.375129" r="3.749996" style="fill:rgb(0,127,0);stroke-width:1" /><circle cx="21.962464" cy="238.588136" r="3.749996" style="fill:rgb(0,127,0);stroke-width:1" /><circle cx="19.304149" cy="193.396803" r="3.749996" style="fill:rgb(0,127,0);stroke-width:1" /><circle cx="16.506985" cy="145.844735" r="3.749996" style="fill:rgb(0,127,0);stroke-width:1" /><circle cx="13.559751" cy="95.741943" r="3.749996" style="fill:rgb(0,127,0);stroke-width:1" /><circle cx="12.594648" cy="79.335138" r="3.749996" style="fill:rgb(0,127,0);stroke-width:1" /><circle cx="12.246005" cy="73.408283" r="3.749996" style="fill:rgb(0,127,0);stroke-width:1" /><circle cx="11.916138" cy="67.800678" r="3.749996" style="fill:rgb(0,127,0);stroke-width:1" /><circle cx="11.876151" cy="67.120872" r="3.749996" style="fill:rgb(0,127,0);stroke-width:1" /><circle cx="11.836432" cy="66.445582" r="3.749996" style="fill:rgb(0,127,0);stroke-width:1" /><circle cx="11.416443" cy="59.305519" r="3.749996" style="fill:rgb(0,127,0);stroke-width:1" /><circle cx="8.907124" cy="16.647108" r="3.749996" style="fill:rgb(0,127,0);stroke-width:1" /><circle cx="5.791515" cy="5.791515" r="3.749996" style="fill:rgb(0,127,0);stroke-width:1" /><circle cx="2.798483" cy="2.798483" r="3.750008" style="fill:rgb(0,127,0);stroke-width:1" /><circle cx="750.000000" cy="750.000000" r="3.749996" style="fill:rgb(0,127,0);stroke-width:1" /><path stroke-linejoin="round" stroke-linecap="round" stroke="rgb(255,255,255)" stroke-width="3.749996" fill="none" d="M 0.000000 750.000000 L 750.000000 750.000000 M 0.000000 750.000000 L 0.000000 0.000000 " />

</svg>