<svg xmlns="http://www.w3.org/2000/svg" version="1.1" width = "750" height = "750" viewBox = "0 0 750 750"  shape-rendering="crispEdges">
<path stroke-linejoin="round" stroke-linecap="round" stroke="rgb(255,255,0)" stroke-width="3.749996" fill="none" d="M 187.500000 750.000000 L 0.000000 0.000000 " />
<path stroke-linejoin="round" stroke-linecap="round" stroke="rgb(63,63,63)" stroke-width="3.749996" fill="none" d="M 0.000000 0.000000 L 750.000000 750.000000 M 187.500000 750.000000 L 80.357147 0.000000 " />
<path stroke-linejoin="round" stroke-linecap="round" stroke="rgb(191,191,191)" stroke-width="3.749996" fill="none" d="M 0.000000 562.500000 L 187.500000 750.000000 M 0.000000 0.000000 L 107.142853 750.000000 " />
<path stroke-linejoin="round" stroke-linecap="round" stroke="rgb(0,0,255)" stroke-width="1.874998" fill="none" d="M 0.000000 750.000000 L 750.000000 535.714294 " />
<path stroke-linejoin="round" stroke-linecap="round" stroke="rgb(255,0,0)" stroke-width="3.749996" fill="none" d="M 180.147064 698.529419 L 187.500000 750.000000 " />
<path stroke-linejoin="round" stroke-linecap="round" stroke="rgb(0,0,255)" stroke-width="1.874998" fill="none" d="M 0.000000 750.000000 L 750.000000 308.823517 " />
<path stroke-linejoin="round" stroke-linecap="round" stroke="rgb(255,0,0)" stroke-width="3.749996" fill="none" d="M 172.965103 648.255798 L 180.147064 698.529419 " />
<path stroke-linejoin="round" stroke-linecap="round" stroke="rgb(0,0,255)" stroke-width="1.874998" fill="none" d="M 0.000000 750.000000 L 750.000000 68.181801 " />
<path stroke-linejoin="round" stroke-linecap="round" stroke="rgb(255,0,0)" stroke-width="3.749996" fill="none" d="M 165.948242 599.137939 L 172.965103 648.255798 " />
<path stroke-linejoin="round" stroke-linecap="round" stroke="rgb(0,0,255)" stroke-width="1.874998" fill="none" d="M 0.000000 750.000000 L 637.500000 0.000000 " />
<path stroke-linejoin="round" stroke-linecap="round" stroke="rgb(255,0,0)" stroke-width="3.749996" fill="none" d="M 160.521530 561.151123 L 165.948242 599.137939 " />
<path stroke-linejoin="round" stroke-linecap="round" stroke="rgb(0,0,255)" stroke-width="1.874998" fill="none" d="M 0.000000 750.000000 L 600.000000 0.000000 " />
<path stroke-linejoin="round" stroke-linecap="round" stroke="rgb(255,0,0)" stroke-width="3.749996" fill="none" d="M 159.090866 551.136414 L 160.521530 561.151123 " />
<path stroke-linejoin="round" stroke-linecap="round" stroke="rgb(0,0,255)" stroke-width="1.874998" fill="none" d="M 0.000000 750.000000 L 465.000000 0.000000 " />
<path stroke-linejoin="round" stroke-linecap="round" stroke="rgb(255,0,0)" stroke-width="3.749996" fill="none" d="M 152.387604 504.213531 L 159.090866 551.136414 " />
<path stroke-linejoin="round" stroke-linecap="round" stroke="rgb(0,0,255)" stroke-width="1.874998" fill="none" d="M 0.000000 750.000000 L 375.000000 0.000000 " />
<path stroke-linejoin="round" stroke-linecap="round" stroke="rgb(255,0,0)" stroke-width="3.749996" fill="none" d="M 145.833267 458.333466 L 152.387589 504.213593 " />
<path stroke-linejoin="round" stroke-linecap="round" stroke="rgb(0,0,255)" stroke-width="1.874998" fill="none" d="M 0.000000 750.000000 L 310.714294 0.000000 " />
<path stroke-linejoin="round" stroke-linecap="round" stroke="rgb(255,0,0)" stroke-width="3.749996" fill="none" d="M 139.423019 413.461670 L 145.833267 458.333466 " />
<path stroke-linejoin="round" stroke-linecap="round" stroke="rgb(0,0,255)" stroke-width="1.874998" fill="none" d="M 0.000000 750.000000 L 262.500000 0.000000 " />
<path stroke-linejoin="round" stroke-linecap="round" stroke="rgb(255,0,0)" stroke-width="3.749996" fill="none" d="M 133.152100 369.565399 L 139.423019 413.461670 " />
<path stroke-linejoin="round" stroke-linecap="round" stroke="rgb(0,0,255)" stroke-width="1.874998" fill="none" d="M 0.000000 750.000000 L 241.666656 0.000000 " />
<path stroke-linejoin="round" stroke-linecap="round" stroke="rgb(255,0,0)" stroke-width="3.749996" fill="none" d="M 129.906082 346.843201 L 133.152100 369.565430 " />
<path stroke-linejoin="round" stroke-linecap="round" stroke="rgb(0,0,255)" stroke-width="1.874998" fill="none" d="M 0.000000 750.000000 L 210.000000 0.000000 " />
<path stroke-linejoin="round" stroke-linecap="round" stroke="rgb(255,0,0)" stroke-width="3.749996" fill="none" d="M 124.155342 306.588074 L 129.906082 346.843201 " />
<path stroke-linejoin="round" stroke-linecap="round" stroke="rgb(0,0,255)" stroke-width="1.874998" fill="none" d="M 0.000000 750.000000 L 184.090912 0.000000 " />
<path stroke-linejoin="round" stroke-linecap="round" stroke="rgb(255,0,0)" stroke-width="3.749996" fill="none" d="M 118.519997 267.140717 L 124.155342 306.588074 " />
<path stroke-linejoin="round" stroke-linecap="round" stroke="rgb(0,0,255)" stroke-width="1.874998" fill="none" d="M 0.000000 750.000000 L 175.000015 0.000000 " />
<path stroke-linejoin="round" stroke-linecap="round" stroke="rgb(255,0,0)" stroke-width="3.749996" fill="none" d="M 116.297409 251.582535 L 118.519997 267.140717 " />
<path stroke-linejoin="round" stroke-linecap="round" stroke="rgb(0,0,255)" stroke-width="1.874998" fill="none" d="M 0.000000 750.000000 L 162.500000 0.000000 " />
<path stroke-linejoin="round" stroke-linecap="round" stroke="rgb(255,0,0)" stroke-width="3.749996" fill="none" d="M 112.996613 228.477173 L 116.297409 251.582535 " />
<path stroke-linejoin="round" stroke-linecap="round" stroke="rgb(0,0,255)" stroke-width="1.874998" fill="none" d="M 0.000000 750.000000 L 155.769226 0.000000 " />
<path stroke-linejoin="round" stroke-linecap="round" stroke="rgb(255,0,0)" stroke-width="3.749996" fill="none" d="M 111.089272 215.125717 L 112.996613 228.477173 " />
<path stroke-linejoin="round" stroke-linecap="round" stroke="rgb(0,0,255)" stroke-width="1.874998" fill="none" d="M 0.000000 750.000000 L 144.230789 0.000000 " />
<path stroke-linejoin="round" stroke-linecap="round" stroke="rgb(255,0,0)" stroke-width="3.749996" fill="none" d="M 107.581886 190.574173 L 111.089272 215.125717 " />
<path stroke-linejoin="round" stroke-linecap="round" stroke="rgb(0,0,255)" stroke-width="1.874998" fill="none" d="M 0.000000 750.000000 L 128.571426 0.000000 " />
<path stroke-linejoin="round" stroke-linecap="round" stroke="rgb(255,0,0)" stroke-width="3.749996" fill="none" d="M 102.272652 153.409531 L 107.581886 190.574173 " />
<path stroke-linejoin="round" stroke-linecap="round" stroke="rgb(0,0,255)" stroke-width="1.874998" fill="none" d="M 0.000000 750.000000 L 125.000015 0.000000 " />
<path stroke-linejoin="round" stroke-linecap="round" stroke="rgb(255,0,0)" stroke-width="3.749996" fill="none" d="M 100.961456 144.231277 L 102.272629 153.409576 " />
<path stroke-linejoin="round" stroke-linecap="round" stroke="rgb(0,0,255)" stroke-width="1.874998" fill="none" d="M 0.000000 750.000000 L 112.500008 0.000000 " />
<path stroke-linejoin="round" stroke-linecap="round" stroke="rgb(255,0,0)" stroke-width="3.749996" fill="none" d="M 96.036514 109.756577 L 100.961456 144.231277 " />
<path stroke-linejoin="round" stroke-linecap="round" stroke="rgb(0,0,255)" stroke-width="1.874998" fill="none" d="M 0.000000 750.000000 L 110.294113 0.000000 " />
<path stroke-linejoin="round" stroke-linecap="round" stroke="rgb(255,0,0)" stroke-width="3.749996" fill="none" d="M 95.108627 103.261383 L 96.036514 109.756577 " />
<path stroke-linejoin="round" stroke-linecap="round" stroke="rgb(0,0,255)" stroke-width="1.874998" fill="none" d="M 0.000000 750.000000 L 101.470581 0.000000 " />
<path stroke-linejoin="round" stroke-linecap="round" stroke="rgb(255,0,0)" stroke-width="3.749996" fill="none" d="M 89.378242 89.378220 L 95.108627 103.261383 " />
<path stroke-linejoin="round" stroke-linecap="round" stroke="rgb(0,0,255)" stroke-width="1.874998" fill="none" d="M 0.000000 750.000000 L 91.666664 0.000000 " />
<path stroke-linejoin="round" stroke-linecap="round" stroke="rgb(255,0,0)" stroke-width="3.749996" fill="none" d="M 81.683167 81.683144 L 89.378242 89.378220 " />
<path stroke-linejoin="round" stroke-linecap="round" stroke="rgb(0,0,255)" stroke-width="1.874998" fill="none" d="M 0.000000 750.000000 L 90.789467 0.000000 " />
<path stroke-linejoin="round" stroke-linecap="round" stroke="rgb(255,0,0)" stroke-width="3.749996" fill="none" d="M 80.985901 80.985947 L 81.683189 81.683098 " />
<path stroke-linejoin="round" stroke-linecap="round" stroke="rgb(0,0,255)" stroke-width="1.874998" fill="none" d="M 0.000000 750.000000 L 82.500008 0.000000 " />
<path stroke-linejoin="round" stroke-linecap="round" stroke="rgb(255,0,0)" stroke-width="3.749996" fill="none" d="M 74.324326 74.324326 L 80.985901 80.985947 " />
<path stroke-linejoin="round" stroke-linecap="round" stroke="rgb(0,0,255)" stroke-width="1.874998" fill="none" d="M 0.000000 750.000000 L 82.142853 0.000000 " />
<path stroke-linejoin="round" stroke-linecap="round" stroke="rgb(255,0,0)" stroke-width="3.749996" fill="none" d="M 74.034332 74.034332 L 74.324326 74.324326 " />
<path stroke-linejoin="round" stroke-linecap="round" stroke="rgb(0,0,255)" stroke-width="1.874998" fill="none" d="M 0.000000 750.000000 L 74.999992 0.000000 " />
<path stroke-linejoin="round" stroke-linecap="round" stroke="rgb(255,0,0)" stroke-width="3.749996" fill="none" d="M 68.181824 68.181801 L 74.034332 74.034332 " />
<path stroke-linejoin="round" stroke-linecap="round" stroke="rgb(0,0,255)" stroke-width="1.874998" fill="none" d="M 0.000000 750.000000 L 74.257423 0.000000 " />
<path stroke-linejoin="round" stroke-linecap="round" stroke="rgb(255,0,0)" stroke-width="3.749996" fill="none" d="M 67.567574 67.567619 L 68.181824 68.181801 " />
<path stroke-linejoin="round" stroke-linecap="round" stroke="rgb(0,0,255)" stroke-width="1.874998" fill="none" d="M 0.000000 750.000000 L 71.090050 0.000000 " />
<path stroke-linejoin="round" stroke-linecap="round" stroke="rgb(255,0,0)" stroke-width="3.749996" fill="none" d="M 64.935051 64.935165 L 67.567574 67.567619 " />
<path stroke-linejoin="round" stroke-linecap="round" stroke="rgb(0,0,255)" stroke-width="1.874998" fill="none" d="M 0.000000 750.000000 L 70.197029 0.000000 " />
<path stroke-linejoin="round" stroke-linecap="round" stroke="rgb(255,0,0)" stroke-width="3.749996" fill="none" d="M 64.189194 64.189240 L 64.935051 64.935165 " />
<path stroke-linejoin="round" stroke-linecap="round" stroke="rgb(0,0,255)" stroke-width="1.874998" fill="none" d="M 0.000000 750.000000 L 66.176468 0.000000 " />
<path stroke-linejoin="round" stroke-linecap="round" stroke="rgb(255,0,0)" stroke-width="3.749996" fill="none" d="M 60.810799 60.810909 L 64.189194 64.189240 " />
<path stroke-linejoin="round" stroke-linecap="round" stroke="rgb(0,0,255)" stroke-width="1.874998" fill="none" d="M 0.000000 750.000000 L 62.195129 0.000000 " />
<path stroke-linejoin="round" stroke-linecap="round" stroke="rgb(255,0,0)" stroke-width="3.749996" fill="none" d="M 57.432419 57.432487 L 60.810799 60.810909 " />
<path stroke-linejoin="round" stroke-linecap="round" stroke="rgb(0,0,255)" stroke-width="1.874998" fill="none" d="M 0.000000 750.000000 L 58.252438 0.000000 " />
<path stroke-linejoin="round" stroke-linecap="round" stroke="rgb(255,0,0)" stroke-width="3.749996" fill="none" d="M 54.054043 54.054199 L 57.432419 57.432487 " />
<path stroke-linejoin="round" stroke-linecap="round" stroke="rgb(0,0,255)" stroke-width="1.874998" fill="none" d="M 0.000000 750.000000 L 57.692303 0.000000 " />
<path stroke-linejoin="round" stroke-linecap="round" stroke="rgb(255,0,0)" stroke-width="3.749996" fill="none" d="M 53.571404 53.571625 L 54.054043 54.054199 " />
<path stroke-linejoin="round" stroke-linecap="round" stroke="rgb(0,0,255)" stroke-width="1.874998" fill="none" d="M 0.000000 750.000000 L 53.827755 0.000000 " />
<path stroke-linejoin="round" stroke-linecap="round" stroke="rgb(255,0,0)" stroke-width="3.749996" fill="none" d="M 50.223202 50.223469 L 53.571404 53.571671 " />
<path stroke-linejoin="round" stroke-linecap="round" stroke="rgb(0,0,255)" stroke-width="1.874998" fill="none" d="M 0.000000 750.000000 L 49.999996 0.000000 " />
<path stroke-linejoin="round" stroke-linecap="round" stroke="rgb(255,0,0)" stroke-width="3.749996" fill="none" d="M 46.874977 46.875267 L 50.223202 50.223469 " />
<path stroke-linejoin="round" stroke-linecap="round" stroke="rgb(0,0,255)" stroke-width="1.874998" fill="none" d="M 0.000000 750.000000 L 46.208515 0.000000 " />
<path stroke-linejoin="round" stroke-linecap="round" stroke="rgb(255,0,0)" stroke-width="3.749996" fill="none" d="M 43.526775 43.527023 L 46.874977 46.875267 " />
<path stroke-linejoin="round" stroke-linecap="round" stroke="rgb(0,0,255)" stroke-width="1.874998" fill="none" d="M 0.000000 750.000000 L 42.452843 0.000000 " />
<path stroke-linejoin="round" stroke-linecap="round" stroke="rgb(255,0,0)" stroke-width="3.749996" fill="none" d="M 40.178551 40.178776 L 43.526775 43.527023 " />
<path stroke-linejoin="round" stroke-linecap="round" stroke="rgb(0,0,255)" stroke-width="1.874998" fill="none" d="M 0.000000 750.000000 L 42.056076 0.000000 " />
<path stroke-linejoin="round" stroke-linecap="round" stroke="rgb(255,0,0)" stroke-width="3.749996" fill="none" d="M 39.822979 39.823296 L 40.178551 40.178776 " />
<path stroke-linejoin="round" stroke-linecap="round" stroke="rgb(0,0,255)" stroke-width="1.874998" fill="none" d="M 0.000000 750.000000 L 38.372086 0.000000 " />
<path stroke-linejoin="round" stroke-linecap="round" stroke="rgb(255,0,0)" stroke-width="3.749996" fill="none" d="M 36.504417 36.504730 L 39.822979 39.823383 " />
<path stroke-linejoin="round" stroke-linecap="round" stroke="rgb(0,0,255)" stroke-width="1.874998" fill="none" d="M 0.000000 750.000000 L 34.722225 0.000000 " />
<path stroke-linejoin="round" stroke-linecap="round" stroke="rgb(255,0,0)" stroke-width="3.749996" fill="none" d="M 33.185833 33.186211 L 36.504417 36.504730 " />
<path stroke-linejoin="round" stroke-linecap="round" stroke="rgb(0,0,255)" stroke-width="1.874998" fill="none" d="M 0.000000 750.000000 L 31.105980 0.000000 " />
<path stroke-linejoin="round" stroke-linecap="round" stroke="rgb(255,0,0)" stroke-width="3.749996" fill="none" d="M 29.867247 29.867693 L 33.185810 33.186256 " />
<path stroke-linejoin="round" stroke-linecap="round" stroke="rgb(0,0,255)" stroke-width="1.874998" fill="none" d="M 0.000000 750.000000 L 27.522928 0.000000 " />
<path stroke-linejoin="round" stroke-linecap="round" stroke="rgb(255,0,0)" stroke-width="3.749996" fill="none" d="M 26.548662 26.549131 L 29.867247 29.867693 " />
<path stroke-linejoin="round" stroke-linecap="round" stroke="rgb(0,0,255)" stroke-width="1.874998" fill="none" d="M 0.000000 750.000000 L 27.272724 0.000000 " />
<path stroke-linejoin="round" stroke-linecap="round" stroke="rgb(255,0,0)" stroke-width="3.749996" fill="none" d="M 26.315779 26.316315 L 26.548662 26.549221 " />
<path stroke-linejoin="round" stroke-linecap="round" stroke="rgb(0,0,255)" stroke-width="1.874998" fill="none" d="M 0.000000 750.000000 L 27.027033 0.000000 " />
<path stroke-linejoin="round" stroke-linecap="round" stroke="rgb(255,0,0)" stroke-width="3.749996" fill="none" d="M 26.086941 26.087433 L 26.315779 26.316315 " />
<path stroke-linejoin="round" stroke-linecap="round" stroke="rgb(0,0,255)" stroke-width="1.874998" fill="none" d="M 0.000000 750.000000 L 23.542599 0.000000 " />
<path stroke-linejoin="round" stroke-linecap="round" stroke="rgb(255,0,0)" stroke-width="3.749996" fill="none" d="M 22.826069 22.826582 L 26.086941 26.087433 " />
<path stroke-linejoin="round" stroke-linecap="round" stroke="rgb(0,0,255)" stroke-width="1.874998" fill="none" d="M 0.000000 750.000000 L 20.089275 0.000000 " />
<path stroke-linejoin="round" stroke-linecap="round" stroke="rgb(255,0,0)" stroke-width="3.749996" fill="none" d="M 19.565195 19.565731 L 22.826069 22.826582 " />
<path stroke-linejoin="round" stroke-linecap="round" stroke="rgb(0,0,255)" stroke-width="1.874998" fill="none" d="M 0.000000 750.000000 L 19.911512 0.000000 " />
<path stroke-linejoin="round" stroke-linecap="round" stroke="rgb(255,0,0)" stroke-width="3.749996" fill="none" d="M 19.396528 19.397020 L 19.565195 19.565731 " />
<path stroke-linejoin="round" stroke-linecap="round" stroke="rgb(0,0,255)" stroke-width="1.874998" fill="none" d="M 0.000000 750.000000 L 16.519815 0.000000 " />
<path stroke-linejoin="round" stroke-linecap="round" stroke="rgb(255,0,0)" stroke-width="3.749996" fill="none" d="M 16.163774 16.164333 L 19.396528 19.397020 " />
<path stroke-linejoin="round" stroke-linecap="round" stroke="rgb(0,0,255)" stroke-width="1.874998" fill="none" d="M 0.000000 750.000000 L 13.157889 0.000000 " />
<path stroke-linejoin="round" stroke-linecap="round" stroke="rgb(255,0,0)" stroke-width="3.749996" fill="none" d="M 12.931019 12.931601 L 16.163774 16.164333 " />
<path stroke-linejoin="round" stroke-linecap="round" stroke="rgb(0,0,255)" stroke-width="1.874998" fill="none" d="M 0.000000 750.000000 L 13.043470 0.000000 " />
<path stroke-linejoin="round" stroke-linecap="round" stroke="rgb(255,0,0)" stroke-width="3.749996" fill="none" d="M 12.820512 12.821138 L 12.931019 12.931689 " />
<path stroke-linejoin="round" stroke-linecap="round" stroke="rgb(0,0,255)" stroke-width="1.874998" fill="none" d="M 0.000000 750.000000 L 9.740263 0.000000 " />
<path stroke-linejoin="round" stroke-linecap="round" stroke="rgb(255,0,0)" stroke-width="3.749996" fill="none" d="M 9.615384 9.616033 L 12.820512 12.821138 " />
<path stroke-linejoin="round" stroke-linecap="round" stroke="rgb(0,0,255)" stroke-width="1.874998" fill="none" d="M 0.000000 750.000000 L 6.465509 0.000000 " />
<path stroke-linejoin="round" stroke-linecap="round" stroke="rgb(255,0,0)" stroke-width="3.749996" fill="none" d="M 6.410256 6.410927 L 9.615384 9.616121 " />
<path stroke-linejoin="round" stroke-linecap="round" stroke="rgb(0,0,255)" stroke-width="1.874998" fill="none" d="M 0.000000 750.000000 L 3.218874 0.000000 " />
<path stroke-linejoin="round" stroke-linecap="round" stroke="rgb(255,0,0)" stroke-width="3.749996" fill="none" d="M 3.205128 3.205821 L 6.410256 6.410927 " />
<path stroke-linejoin="round" stroke-linecap="round" stroke="rgb(0,0,255)" stroke-width="1.874998" fill="none" d="M 0.000000 750.000000 L 0.000000 0.000000 " />
<path stroke-linejoin="round" stroke-linecap="round" stroke="rgb(255,0,0)" stroke-width="3.749996" fill="none" d="M 0.000000 0.000000 L 3.205128 3.205821 " />
<circle cx="180.147059" cy="698.529415" r="3.749996" style="fill:rgb(0,127,0);stroke-width:1" /><circle cx="172.965109" cy="648.255810" r="3.749996" style="fill:rgb(0,127,0);stroke-width:1" /><circle cx="165.948249" cy="599.137947" r="3.749996" style="fill:rgb(0,127,0);stroke-width:1" /><circle cx="160.521537" cy="561.151117" r="3.749996" style="fill:rgb(0,127,0);stroke-width:1" /><circle cx="159.090869" cy="551.136419" r="3.749996" style="fill:rgb(0,127,0);stroke-width:1" /><circle cx="152.387604" cy="504.213564" r="3.749996" style="fill:rgb(0,127,0);stroke-width:1" /><circle cx="145.833269" cy="458.333440" r="3.749996" style="fill:rgb(0,127,0);stroke-width:1" /><circle cx="139.423013" cy="413.461670" r="3.749996" style="fill:rgb(0,127,0);stroke-width:1" /><circle cx="133.152097" cy="369.565398" r="3.749996" style="fill:rgb(0,127,0);stroke-width:1" /><circle cx="129.906088" cy="346.843198" r="3.749996" style="fill:rgb(0,127,0);stroke-width:1" /><circle cx="124.155343" cy="306.588069" r="3.749996" style="fill:rgb(0,127,0);stroke-width:1" /><circle cx="118.519999" cy="267.140731" r="3.749996" style="fill:rgb(0,127,0);stroke-width:1" /><circle cx="116.297409" cy="251.582533" r="3.749996" style="fill:rgb(0,127,0);stroke-width:1" /><circle cx="112.996615" cy="228.477180" r="3.749996" style="fill:rgb(0,127,0);stroke-width:1" /><circle cx="111.089274" cy="215.125725" r="3.749996" style="fill:rgb(0,127,0);stroke-width:1" /><circle cx="107.581884" cy="190.574169" r="3.749996" style="fill:rgb(0,127,0);stroke-width:1" /><circle cx="102.272652" cy="153.409526" r="3.749996" style="fill:rgb(0,127,0);stroke-width:1" /><circle cx="100.961454" cy="144.231275" r="3.749996" style="fill:rgb(0,127,0);stroke-width:1" /><circle cx="96.036516" cy="109.756574" r="3.749996" style="fill:rgb(0,127,0);stroke-width:1" /><circle cx="95.108628" cy="103.261381" r="3.749996" style="fill:rgb(0,127,0);stroke-width:1" /><circle cx="89.378245" cy="89.378223" r="3.749996" style="fill:rgb(0,127,0);stroke-width:1" /><circle cx="81.683166" cy="81.683144" r="3.749996" style="fill:rgb(0,127,0);stroke-width:1" /><circle cx="80.985904" cy="80.985948" r="3.749996" style="fill:rgb(0,127,0);stroke-width:1" /><circle cx="74.324325" cy="74.324325" r="3.749996" style="fill:rgb(0,127,0);stroke-width:1" /><circle cx="74.034333" cy="74.034333" r="3.749996" style="fill:rgb(0,127,0);stroke-width:1" /><circle cx="68.181820" cy="68.181798" r="3.749996" style="fill:rgb(0,127,0);stroke-width:1" /><circle cx="67.567572" cy="67.567617" r="3.749996" style="fill:rgb(0,127,0);stroke-width:1" /><circle cx="64.935051" cy="64.935163" r="3.749996" style="fill:rgb(0,127,0);stroke-width:1" /><circle cx="64.189196" cy="64.189240" r="3.749996" style="fill:rgb(0,127,0);stroke-width:1" /><circle cx="60.810797" cy="60.810909" r="3.749996" style="fill:rgb(0,127,0);stroke-width:1" /><circle cx="57.432421" cy="57.432488" r="3.749996" style="fill:rgb(0,127,0);stroke-width:1" /><circle cx="54.054044" cy="54.054201" r="3.749996" style="fill:rgb(0,127,0);stroke-width:1" /><circle cx="53.571403" cy="53.571627" r="3.749996" style="fill:rgb(0,127,0);stroke-width:1" /><circle cx="50.223202" cy="50.223470" r="3.749996" style="fill:rgb(0,127,0);stroke-width:1" /><circle cx="46.874978" cy="46.875268" r="3.749996" style="fill:rgb(0,127,0);stroke-width:1" /><circle cx="43.526776" cy="43.527022" r="3.749996" style="fill:rgb(0,127,0);stroke-width:1" /><circle cx="40.178552" cy="40.178776" r="3.749996" style="fill:rgb(0,127,0);stroke-width:1" /><circle cx="39.822981" cy="39.823294" r="3.749996" style="fill:rgb(0,127,0);stroke-width:1" /><circle cx="36.504418" cy="36.504731" r="3.749996" style="fill:rgb(0,127,0);stroke-width:1" /><circle cx="33.185832" cy="33.186212" r="3.749996" style="fill:rgb(0,127,0);stroke-width:1" /><circle cx="29.867247" cy="29.867694" r="3.749996" style="fill:rgb(0,127,0);stroke-width:1" /><circle cx="26.548661" cy="26.549131" r="3.749996" style="fill:rgb(0,127,0);stroke-width:1" /><circle cx="26.315778" cy="26.316315" r="3.749996" style="fill:rgb(0,127,0);stroke-width:1" /><circle cx="26.086941" cy="26.087433" r="3.749996" style="fill:rgb(0,127,0);stroke-width:1" /><circle cx="22.826068" cy="22.826582" r="3.749996" style="fill:rgb(0,127,0);stroke-width:1" /><circle cx="19.565195" cy="19.565731" r="3.749996" style="fill:rgb(0,127,0);stroke-width:1" /><circle cx="19.396529" cy="19.397020" r="3.749996" style="fill:rgb(0,127,0);stroke-width:1" /><circle cx="16.163774" cy="16.164333" r="3.749996" style="fill:rgb(0,127,0);stroke-width:1" /><circle cx="12.931019" cy="12.931600" r="3.749996" style="fill:rgb(0,127,0);stroke-width:1" /><circle cx="12.820512" cy="12.821138" r="3.749996" style="fill:rgb(0,127,0);stroke-width:1" /><circle cx="9.615384" cy="9.616032" r="3.749996" style="fill:rgb(0,127,0);stroke-width:1" /><circle cx="6.410256" cy="6.410927" r="3.749996" style="fill:rgb(0,127,0);stroke-width:1" /><circle cx="3.205106" cy="3.205821" r="3.750008" style="fill:rgb(0,127,0);stroke-width:1" /><circle cx="750.000000" cy="750.000000" r="3.749996" style="fill:rgb(0,127,0);stroke-width:1" /><path stroke-linejoin="round" stroke-linecap="round" stroke="rgb(255,255,255)" stroke-width="3.749996" fill="none" d="M 0.000000 750.000000 L 750.000000 750.000000 M 0.000000 750.000000 L 0.000000 0.000000 " />

</svg>