<svg xmlns="http://www.w3.org/2000/svg" version="1.1" width = "750" height = "750" viewBox = "0 0 750 750"  shape-rendering="crispEdges">
<path stroke-linejoin="round" stroke-linecap="round" stroke="rgb(255,255,0)" stroke-width="3.749996" fill="none" d="M 107.142853 750.000000 L 0.000000 0.000000 " />
<path stroke-linejoin="round" stroke-linecap="round" stroke="rgb(63,63,63)" stroke-width="3.749996" fill="none" d="M 0.000000 0.000000 L 750.000000 750.000000 M 107.142853 750.000000 L 49.450546 0.000000 " />
<path stroke-linejoin="round" stroke-linecap="round" stroke="rgb(191,191,191)" stroke-width="3.749996" fill="none" d="M 0.000000 642.857178 L 107.142853 750.000000 M 0.000000 0.000000 L 57.692303 750.000000 " />
<path stroke-linejoin="round" stroke-linecap="round" stroke="rgb(0,0,255)" stroke-width="1.874998" fill="none" d="M 0.000000 750.000000 L 750.000000 734.693909 " />
<path stroke-linejoin="round" stroke-linecap="round" stroke="rgb(255,0,0)" stroke-width="3.749996" fill="none" d="M 106.974899 747.816833 L 107.142853 750.000000 " />
<path stroke-linejoin="round" stroke-linecap="round" stroke="rgb(0,0,255)" stroke-width="1.874998" fill="none" d="M 0.000000 750.000000 L 750.000000 720.000000 " />
<path stroke-linejoin="round" stroke-linecap="round" stroke="rgb(255,0,0)" stroke-width="3.749996" fill="none" d="M 104.959686 745.801636 L 106.974899 747.816833 " />
<path stroke-linejoin="round" stroke-linecap="round" stroke="rgb(0,0,255)" stroke-width="1.874998" fill="none" d="M 0.000000 750.000000 L 750.000000 718.750000 " />
<path stroke-linejoin="round" stroke-linecap="round" stroke="rgb(255,0,0)" stroke-width="3.749996" fill="none" d="M 104.791763 745.633667 L 104.959686 745.801636 " />
<path stroke-linejoin="round" stroke-linecap="round" stroke="rgb(0,0,255)" stroke-width="1.874998" fill="none" d="M 0.000000 750.000000 L 750.000000 702.127686 " />
<path stroke-linejoin="round" stroke-linecap="round" stroke="rgb(255,0,0)" stroke-width="3.749996" fill="none" d="M 102.608597 743.450500 L 104.791786 745.633667 " />
<path stroke-linejoin="round" stroke-linecap="round" stroke="rgb(0,0,255)" stroke-width="1.874998" fill="none" d="M 0.000000 750.000000 L 750.000000 684.782654 " />
<path stroke-linejoin="round" stroke-linecap="round" stroke="rgb(255,0,0)" stroke-width="3.749996" fill="none" d="M 100.425461 741.267334 L 102.608597 743.450500 " />
<path stroke-linejoin="round" stroke-linecap="round" stroke="rgb(0,0,255)" stroke-width="1.874998" fill="none" d="M 0.000000 750.000000 L 750.000000 666.666687 " />
<path stroke-linejoin="round" stroke-linecap="round" stroke="rgb(255,0,0)" stroke-width="3.749996" fill="none" d="M 98.242294 739.084229 L 100.425461 741.267334 " />
<path stroke-linejoin="round" stroke-linecap="round" stroke="rgb(0,0,255)" stroke-width="1.874998" fill="none" d="M 0.000000 750.000000 L 750.000000 647.727295 " />
<path stroke-linejoin="round" stroke-linecap="round" stroke="rgb(255,0,0)" stroke-width="3.749996" fill="none" d="M 96.059135 736.901001 L 98.242294 739.084229 " />
<path stroke-linejoin="round" stroke-linecap="round" stroke="rgb(0,0,255)" stroke-width="1.874998" fill="none" d="M 0.000000 750.000000 L 750.000000 633.333313 " />
<path stroke-linejoin="round" stroke-linecap="round" stroke="rgb(255,0,0)" stroke-width="3.749996" fill="none" d="M 94.463737 735.305603 L 96.059135 736.901001 " />
<path stroke-linejoin="round" stroke-linecap="round" stroke="rgb(0,0,255)" stroke-width="1.874998" fill="none" d="M 0.000000 750.000000 L 750.000000 627.906982 " />
<path stroke-linejoin="round" stroke-linecap="round" stroke="rgb(255,0,0)" stroke-width="3.749996" fill="none" d="M 93.875977 734.717834 L 94.463737 735.305603 " />
<path stroke-linejoin="round" stroke-linecap="round" stroke="rgb(0,0,255)" stroke-width="1.874998" fill="none" d="M 0.000000 750.000000 L 750.000000 613.636353 " />
<path stroke-linejoin="round" stroke-linecap="round" stroke="rgb(255,0,0)" stroke-width="3.749996" fill="none" d="M 92.364548 733.206421 L 93.875977 734.717834 " />
<path stroke-linejoin="round" stroke-linecap="round" stroke="rgb(0,0,255)" stroke-width="1.874998" fill="none" d="M 0.000000 750.000000 L 750.000000 607.142883 " />
<path stroke-linejoin="round" stroke-linecap="round" stroke="rgb(255,0,0)" stroke-width="3.749996" fill="none" d="M 91.692787 732.534729 L 92.364525 733.206421 " />
<path stroke-linejoin="round" stroke-linecap="round" stroke="rgb(0,0,255)" stroke-width="1.874998" fill="none" d="M 0.000000 750.000000 L 750.000000 593.023254 " />
<path stroke-linejoin="round" stroke-linecap="round" stroke="rgb(255,0,0)" stroke-width="3.749996" fill="none" d="M 90.265343 731.107239 L 91.692787 732.534729 " />
<path stroke-linejoin="round" stroke-linecap="round" stroke="rgb(0,0,255)" stroke-width="1.874998" fill="none" d="M 0.000000 750.000000 L 750.000000 585.365845 " />
<path stroke-linejoin="round" stroke-linecap="round" stroke="rgb(255,0,0)" stroke-width="3.749996" fill="none" d="M 89.509628 730.351562 L 90.265343 731.107239 " />
<path stroke-linejoin="round" stroke-linecap="round" stroke="rgb(0,0,255)" stroke-width="1.874998" fill="none" d="M 0.000000 750.000000 L 750.000000 562.500000 " />
<path stroke-linejoin="round" stroke-linecap="round" stroke="rgb(255,0,0)" stroke-width="3.749996" fill="none" d="M 87.326447 728.168396 L 89.509628 730.351562 " />
<path stroke-linejoin="round" stroke-linecap="round" stroke="rgb(0,0,255)" stroke-width="1.874998" fill="none" d="M 0.000000 750.000000 L 750.000000 446.428558 " />
<path stroke-linejoin="round" stroke-linecap="round" stroke="rgb(255,0,0)" stroke-width="3.749996" fill="none" d="M 86.318245 715.061646 L 87.326447 728.168396 " />
<path stroke-linejoin="round" stroke-linecap="round" stroke="rgb(0,0,255)" stroke-width="1.874998" fill="none" d="M 0.000000 750.000000 L 750.000000 428.571411 " />
<path stroke-linejoin="round" stroke-linecap="round" stroke="rgb(255,0,0)" stroke-width="3.749996" fill="none" d="M 84.879601 713.623047 L 86.318245 715.061646 " />
<path stroke-linejoin="round" stroke-linecap="round" stroke="rgb(0,0,255)" stroke-width="1.874998" fill="none" d="M 0.000000 750.000000 L 750.000000 397.058838 " />
<path stroke-linejoin="round" stroke-linecap="round" stroke="rgb(255,0,0)" stroke-width="3.749996" fill="none" d="M 82.454483 711.197937 L 84.879601 713.623047 " />
<path stroke-linejoin="round" stroke-linecap="round" stroke="rgb(0,0,255)" stroke-width="1.874998" fill="none" d="M 0.000000 750.000000 L 750.000000 363.636383 " />
<path stroke-linejoin="round" stroke-linecap="round" stroke="rgb(255,0,0)" stroke-width="3.749996" fill="none" d="M 80.029335 708.772766 L 82.454483 711.197937 " />
<path stroke-linejoin="round" stroke-linecap="round" stroke="rgb(0,0,255)" stroke-width="1.874998" fill="none" d="M 0.000000 750.000000 L 750.000000 328.125000 " />
<path stroke-linejoin="round" stroke-linecap="round" stroke="rgb(255,0,0)" stroke-width="3.749996" fill="none" d="M 77.604218 706.347656 L 80.029335 708.772766 " />
<path stroke-linejoin="round" stroke-linecap="round" stroke="rgb(0,0,255)" stroke-width="1.874998" fill="none" d="M 0.000000 750.000000 L 750.000000 318.181824 " />
<path stroke-linejoin="round" stroke-linecap="round" stroke="rgb(255,0,0)" stroke-width="3.749996" fill="none" d="M 76.951302 705.694763 L 77.604218 706.347656 " />
<path stroke-linejoin="round" stroke-linecap="round" stroke="rgb(0,0,255)" stroke-width="1.874998" fill="none" d="M 0.000000 750.000000 L 750.000000 290.322571 " />
<path stroke-linejoin="round" stroke-linecap="round" stroke="rgb(255,0,0)" stroke-width="3.749996" fill="none" d="M 75.179077 703.922485 L 76.951302 705.694763 " />
<path stroke-linejoin="round" stroke-linecap="round" stroke="rgb(0,0,255)" stroke-width="1.874998" fill="none" d="M 0.000000 750.000000 L 750.000000 281.250000 " />
<path stroke-linejoin="round" stroke-linecap="round" stroke="rgb(255,0,0)" stroke-width="3.749996" fill="none" d="M 74.619438 703.362793 L 75.179077 703.922485 " />
<path stroke-linejoin="round" stroke-linecap="round" stroke="rgb(0,0,255)" stroke-width="1.874998" fill="none" d="M 0.000000 750.000000 L 750.000000 249.999985 " />
<path stroke-linejoin="round" stroke-linecap="round" stroke="rgb(255,0,0)" stroke-width="3.749996" fill="none" d="M 72.753960 701.497375 L 74.619438 703.362793 " />
<path stroke-linejoin="round" stroke-linecap="round" stroke="rgb(0,0,255)" stroke-width="1.874998" fill="none" d="M 0.000000 750.000000 L 750.000000 206.896576 " />
<path stroke-linejoin="round" stroke-linecap="round" stroke="rgb(255,0,0)" stroke-width="3.749996" fill="none" d="M 70.328819 699.072205 L 72.753960 701.497375 " />
<path stroke-linejoin="round" stroke-linecap="round" stroke="rgb(0,0,255)" stroke-width="1.874998" fill="none" d="M 0.000000 750.000000 L 750.000000 160.714294 " />
<path stroke-linejoin="round" stroke-linecap="round" stroke="rgb(255,0,0)" stroke-width="3.749996" fill="none" d="M 67.903694 696.647095 L 70.328819 699.072205 " />
<path stroke-linejoin="round" stroke-linecap="round" stroke="rgb(0,0,255)" stroke-width="1.874998" fill="none" d="M 0.000000 750.000000 L 750.000000 111.111092 " />
<path stroke-linejoin="round" stroke-linecap="round" stroke="rgb(255,0,0)" stroke-width="3.749996" fill="none" d="M 65.478554 694.221924 L 67.903694 696.647095 " />
<path stroke-linejoin="round" stroke-linecap="round" stroke="rgb(0,0,255)" stroke-width="1.874998" fill="none" d="M 0.000000 750.000000 L 750.000000 57.692303 " />
<path stroke-linejoin="round" stroke-linecap="round" stroke="rgb(255,0,0)" stroke-width="3.749996" fill="none" d="M 63.053436 691.796875 L 65.478554 694.221924 " />
<path stroke-linejoin="round" stroke-linecap="round" stroke="rgb(0,0,255)" stroke-width="1.874998" fill="none" d="M 0.000000 750.000000 L 750.000000 0.000000 " />
<path stroke-linejoin="round" stroke-linecap="round" stroke="rgb(255,0,0)" stroke-width="3.749996" fill="none" d="M 60.628296 689.371704 L 63.053436 691.796875 " />
<path stroke-linejoin="round" stroke-linecap="round" stroke="rgb(0,0,255)" stroke-width="1.874998" fill="none" d="M 0.000000 750.000000 L 694.444458 0.000000 " />
<path stroke-linejoin="round" stroke-linecap="round" stroke="rgb(255,0,0)" stroke-width="3.749996" fill="none" d="M 58.296448 687.039856 L 60.628296 689.371704 " />
<path stroke-linejoin="round" stroke-linecap="round" stroke="rgb(0,0,255)" stroke-width="1.874998" fill="none" d="M 0.000000 750.000000 L 642.857178 0.000000 " />
<path stroke-linejoin="round" stroke-linecap="round" stroke="rgb(255,0,0)" stroke-width="3.749996" fill="none" d="M 55.964581 684.707947 L 58.296448 687.039856 " />
<path stroke-linejoin="round" stroke-linecap="round" stroke="rgb(0,0,255)" stroke-width="1.874998" fill="none" d="M 0.000000 750.000000 L 594.827576 0.000000 " />
<path stroke-linejoin="round" stroke-linecap="round" stroke="rgb(255,0,0)" stroke-width="3.749996" fill="none" d="M 53.632713 682.376160 L 55.964581 684.707947 " />
<path stroke-linejoin="round" stroke-linecap="round" stroke="rgb(0,0,255)" stroke-width="1.874998" fill="none" d="M 0.000000 750.000000 L 461.538483 0.000000 " />
<path stroke-linejoin="round" stroke-linecap="round" stroke="rgb(255,0,0)" stroke-width="3.749996" fill="none" d="M 52.297375 665.016785 L 53.632713 682.376160 " />
<path stroke-linejoin="round" stroke-linecap="round" stroke="rgb(0,0,255)" stroke-width="1.874998" fill="none" d="M 0.000000 750.000000 L 431.818176 0.000000 " />
<path stroke-linejoin="round" stroke-linecap="round" stroke="rgb(255,0,0)" stroke-width="3.749996" fill="none" d="M 50.892860 661.607117 L 52.297375 665.016785 " />
<path stroke-linejoin="round" stroke-linecap="round" stroke="rgb(0,0,255)" stroke-width="1.874998" fill="none" d="M 0.000000 750.000000 L 348.837189 0.000000 " />
<path stroke-linejoin="round" stroke-linecap="round" stroke="rgb(255,0,0)" stroke-width="3.749996" fill="none" d="M 49.504951 643.564331 L 50.892860 661.607117 " />
<path stroke-linejoin="round" stroke-linecap="round" stroke="rgb(0,0,255)" stroke-width="1.874998" fill="none" d="M 0.000000 750.000000 L 323.863647 0.000000 " />
<path stroke-linejoin="round" stroke-linecap="round" stroke="rgb(255,0,0)" stroke-width="3.749996" fill="none" d="M 48.969067 636.597961 L 49.504951 643.564331 " />
<path stroke-linejoin="round" stroke-linecap="round" stroke="rgb(0,0,255)" stroke-width="1.874998" fill="none" d="M 0.000000 750.000000 L 277.777771 0.000000 " />
<path stroke-linejoin="round" stroke-linecap="round" stroke="rgb(255,0,0)" stroke-width="3.749996" fill="none" d="M 47.770702 621.019104 L 48.969067 636.597961 " />
<path stroke-linejoin="round" stroke-linecap="round" stroke="rgb(0,0,255)" stroke-width="1.874998" fill="none" d="M 0.000000 750.000000 L 268.867920 0.000000 " />
<path stroke-linejoin="round" stroke-linecap="round" stroke="rgb(255,0,0)" stroke-width="3.749996" fill="none" d="M 47.500000 617.500000 L 47.770702 621.019104 " />
<path stroke-linejoin="round" stroke-linecap="round" stroke="rgb(0,0,255)" stroke-width="1.874998" fill="none" d="M 0.000000 750.000000 L 238.095230 0.000000 " />
<path stroke-linejoin="round" stroke-linecap="round" stroke="rgb(255,0,0)" stroke-width="3.749996" fill="none" d="M 46.439632 603.715210 L 47.500000 617.500000 " />
<path stroke-linejoin="round" stroke-linecap="round" stroke="rgb(0,0,255)" stroke-width="1.874998" fill="none" d="M 0.000000 750.000000 L 228.813568 0.000000 " />
<path stroke-linejoin="round" stroke-linecap="round" stroke="rgb(255,0,0)" stroke-width="3.749996" fill="none" d="M 46.075077 598.976135 L 46.439632 603.715210 " />
<path stroke-linejoin="round" stroke-linecap="round" stroke="rgb(0,0,255)" stroke-width="1.874998" fill="none" d="M 0.000000 750.000000 L 184.782608 0.000000 " />
<path stroke-linejoin="round" stroke-linecap="round" stroke="rgb(255,0,0)" stroke-width="3.749996" fill="none" d="M 43.965519 571.551758 L 46.075077 598.976135 " />
<path stroke-linejoin="round" stroke-linecap="round" stroke="rgb(0,0,255)" stroke-width="1.874998" fill="none" d="M 0.000000 750.000000 L 170.886078 0.000000 " />
<path stroke-linejoin="round" stroke-linecap="round" stroke="rgb(255,0,0)" stroke-width="3.749996" fill="none" d="M 43.130993 560.702881 L 43.965519 571.551758 " />
<path stroke-linejoin="round" stroke-linecap="round" stroke="rgb(0,0,255)" stroke-width="1.874998" fill="none" d="M 0.000000 750.000000 L 169.354858 0.000000 " />
<path stroke-linejoin="round" stroke-linecap="round" stroke="rgb(255,0,0)" stroke-width="3.749996" fill="none" d="M 43.032780 559.426208 L 43.130993 560.702881 " />
<path stroke-linejoin="round" stroke-linecap="round" stroke="rgb(0,0,255)" stroke-width="1.874998" fill="none" d="M 0.000000 750.000000 L 164.062500 0.000000 " />
<path stroke-linejoin="round" stroke-linecap="round" stroke="rgb(255,0,0)" stroke-width="3.749996" fill="none" d="M 42.682930 554.878052 L 43.032780 559.426270 " />
<path stroke-linejoin="round" stroke-linecap="round" stroke="rgb(0,0,255)" stroke-width="1.874998" fill="none" d="M 0.000000 750.000000 L 159.090897 0.000000 " />
<path stroke-linejoin="round" stroke-linecap="round" stroke="rgb(255,0,0)" stroke-width="3.749996" fill="none" d="M 42.338715 550.403259 L 42.682930 554.878052 " />
<path stroke-linejoin="round" stroke-linecap="round" stroke="rgb(0,0,255)" stroke-width="1.874998" fill="none" d="M 0.000000 750.000000 L 154.411774 0.000000 " />
<path stroke-linejoin="round" stroke-linecap="round" stroke="rgb(255,0,0)" stroke-width="3.749996" fill="none" d="M 41.999996 545.999939 L 42.338715 550.403198 " />
<path stroke-linejoin="round" stroke-linecap="round" stroke="rgb(0,0,255)" stroke-width="1.874998" fill="none" d="M 0.000000 750.000000 L 141.304337 0.000000 " />
<path stroke-linejoin="round" stroke-linecap="round" stroke="rgb(255,0,0)" stroke-width="3.749996" fill="none" d="M 40.966385 532.562988 L 41.999996 545.999939 " />
<path stroke-linejoin="round" stroke-linecap="round" stroke="rgb(0,0,255)" stroke-width="1.874998" fill="none" d="M 0.000000 750.000000 L 137.323959 0.000000 " />
<path stroke-linejoin="round" stroke-linecap="round" stroke="rgb(255,0,0)" stroke-width="3.749996" fill="none" d="M 40.625008 528.125000 L 40.966385 532.562988 " />
<path stroke-linejoin="round" stroke-linecap="round" stroke="rgb(0,0,255)" stroke-width="1.874998" fill="none" d="M 0.000000 750.000000 L 133.561646 0.000000 " />
<path stroke-linejoin="round" stroke-linecap="round" stroke="rgb(255,0,0)" stroke-width="3.749996" fill="none" d="M 40.289261 523.760315 L 40.625008 528.125000 " />
<path stroke-linejoin="round" stroke-linecap="round" stroke="rgb(0,0,255)" stroke-width="1.874998" fill="none" d="M 0.000000 750.000000 L 130.000015 0.000000 " />
<path stroke-linejoin="round" stroke-linecap="round" stroke="rgb(255,0,0)" stroke-width="3.749996" fill="none" d="M 39.959015 519.467163 L 40.289261 523.760315 " />
<path stroke-linejoin="round" stroke-linecap="round" stroke="rgb(0,0,255)" stroke-width="1.874998" fill="none" d="M 0.000000 750.000000 L 126.623375 0.000000 " />
<path stroke-linejoin="round" stroke-linecap="round" stroke="rgb(255,0,0)" stroke-width="3.749996" fill="none" d="M 39.634151 515.243896 L 39.959015 519.467163 " />
<path stroke-linejoin="round" stroke-linecap="round" stroke="rgb(0,0,255)" stroke-width="1.874998" fill="none" d="M 0.000000 750.000000 L 123.417732 0.000000 " />
<path stroke-linejoin="round" stroke-linecap="round" stroke="rgb(255,0,0)" stroke-width="3.749996" fill="none" d="M 39.314522 511.088715 L 39.634151 515.243896 " />
<path stroke-linejoin="round" stroke-linecap="round" stroke="rgb(0,0,255)" stroke-width="1.874998" fill="none" d="M 0.000000 750.000000 L 120.370392 0.000000 " />
<path stroke-linejoin="round" stroke-linecap="round" stroke="rgb(255,0,0)" stroke-width="3.749996" fill="none" d="M 38.999989 507.000031 L 39.314522 511.088715 " />
<path stroke-linejoin="round" stroke-linecap="round" stroke="rgb(0,0,255)" stroke-width="1.874998" fill="none" d="M 0.000000 750.000000 L 117.469894 0.000000 " />
<path stroke-linejoin="round" stroke-linecap="round" stroke="rgb(255,0,0)" stroke-width="3.749996" fill="none" d="M 38.690464 502.976227 L 38.999989 507.000031 " />
<path stroke-linejoin="round" stroke-linecap="round" stroke="rgb(0,0,255)" stroke-width="1.874998" fill="none" d="M 0.000000 750.000000 L 115.384605 0.000000 " />
<path stroke-linejoin="round" stroke-linecap="round" stroke="rgb(255,0,0)" stroke-width="3.749996" fill="none" d="M 38.461536 500.000000 L 38.690487 502.976196 " />
<path stroke-linejoin="round" stroke-linecap="round" stroke="rgb(0,0,255)" stroke-width="1.874998" fill="none" d="M 0.000000 750.000000 L 112.500008 0.000000 " />
<path stroke-linejoin="round" stroke-linecap="round" stroke="rgb(255,0,0)" stroke-width="3.749996" fill="none" d="M 38.135605 495.762695 L 38.461536 500.000000 " />
<path stroke-linejoin="round" stroke-linecap="round" stroke="rgb(0,0,255)" stroke-width="1.874998" fill="none" d="M 0.000000 750.000000 L 109.756081 0.000000 " />
<path stroke-linejoin="round" stroke-linecap="round" stroke="rgb(255,0,0)" stroke-width="3.749996" fill="none" d="M 37.815125 491.596649 L 38.135605 495.762695 " />
<path stroke-linejoin="round" stroke-linecap="round" stroke="rgb(0,0,255)" stroke-width="1.874998" fill="none" d="M 0.000000 750.000000 L 99.397591 0.000000 " />
<path stroke-linejoin="round" stroke-linecap="round" stroke="rgb(255,0,0)" stroke-width="3.749996" fill="none" d="M 36.504417 474.557526 L 37.815125 491.596649 " />
<path stroke-linejoin="round" stroke-linecap="round" stroke="rgb(0,0,255)" stroke-width="1.874998" fill="none" d="M 0.000000 750.000000 L 89.285728 0.000000 " />
<path stroke-linejoin="round" stroke-linecap="round" stroke="rgb(255,0,0)" stroke-width="3.749996" fill="none" d="M 35.046726 455.607483 L 36.504417 474.557526 " />
<path stroke-linejoin="round" stroke-linecap="round" stroke="rgb(0,0,255)" stroke-width="1.874998" fill="none" d="M 0.000000 750.000000 L 87.209297 0.000000 " />
<path stroke-linejoin="round" stroke-linecap="round" stroke="rgb(255,0,0)" stroke-width="3.749996" fill="none" d="M 34.722225 451.388916 L 35.046726 455.607483 " />
<path stroke-linejoin="round" stroke-linecap="round" stroke="rgb(0,0,255)" stroke-width="1.874998" fill="none" d="M 0.000000 750.000000 L 83.333328 0.000000 " />
<path stroke-linejoin="round" stroke-linecap="round" stroke="rgb(255,0,0)" stroke-width="3.749996" fill="none" d="M 34.090900 443.181854 L 34.722225 451.388916 " />
<path stroke-linejoin="round" stroke-linecap="round" stroke="rgb(0,0,255)" stroke-width="1.874998" fill="none" d="M 0.000000 750.000000 L 81.521744 0.000000 " />
<path stroke-linejoin="round" stroke-linecap="round" stroke="rgb(255,0,0)" stroke-width="3.749996" fill="none" d="M 33.783787 439.189270 L 34.090900 443.181854 " />
<path stroke-linejoin="round" stroke-linecap="round" stroke="rgb(0,0,255)" stroke-width="1.874998" fill="none" d="M 0.000000 750.000000 L 79.787224 0.000000 " />
<path stroke-linejoin="round" stroke-linecap="round" stroke="rgb(255,0,0)" stroke-width="3.749996" fill="none" d="M 33.482128 435.267944 L 33.783787 439.189270 " />
<path stroke-linejoin="round" stroke-linecap="round" stroke="rgb(0,0,255)" stroke-width="1.874998" fill="none" d="M 0.000000 750.000000 L 71.052635 0.000000 " />
<path stroke-linejoin="round" stroke-linecap="round" stroke="rgb(255,0,0)" stroke-width="3.749996" fill="none" d="M 31.839609 413.915192 L 33.482128 435.267944 " />
<path stroke-linejoin="round" stroke-linecap="round" stroke="rgb(0,0,255)" stroke-width="1.874998" fill="none" d="M 0.000000 750.000000 L 62.500008 0.000000 " />
<path stroke-linejoin="round" stroke-linecap="round" stroke="rgb(255,0,0)" stroke-width="3.749996" fill="none" d="M 29.999994 390.000061 L 31.839609 413.915192 " />
<path stroke-linejoin="round" stroke-linecap="round" stroke="rgb(0,0,255)" stroke-width="1.874998" fill="none" d="M 0.000000 750.000000 L 61.224483 0.000000 " />
<path stroke-linejoin="round" stroke-linecap="round" stroke="rgb(255,0,0)" stroke-width="3.749996" fill="none" d="M 29.702961 386.138733 L 29.999994 390.000061 " />
<path stroke-linejoin="round" stroke-linecap="round" stroke="rgb(0,0,255)" stroke-width="1.874998" fill="none" d="M 0.000000 750.000000 L 59.999989 0.000000 " />
<path stroke-linejoin="round" stroke-linecap="round" stroke="rgb(255,0,0)" stroke-width="3.749996" fill="none" d="M 29.411762 382.353058 L 29.702961 386.138733 " />
<path stroke-linejoin="round" stroke-linecap="round" stroke="rgb(0,0,255)" stroke-width="1.874998" fill="none" d="M 0.000000 750.000000 L 58.823524 0.000000 " />
<path stroke-linejoin="round" stroke-linecap="round" stroke="rgb(255,0,0)" stroke-width="3.749996" fill="none" d="M 29.126198 378.640869 L 29.411762 382.353058 " />
<path stroke-linejoin="round" stroke-linecap="round" stroke="rgb(0,0,255)" stroke-width="1.874998" fill="none" d="M 0.000000 750.000000 L 56.603775 0.000000 " />
<path stroke-linejoin="round" stroke-linecap="round" stroke="rgb(255,0,0)" stroke-width="3.749996" fill="none" d="M 28.571426 371.428680 L 29.126198 378.640869 " />
<path stroke-linejoin="round" stroke-linecap="round" stroke="rgb(0,0,255)" stroke-width="1.874998" fill="none" d="M 0.000000 750.000000 L 55.555569 0.000000 " />
<path stroke-linejoin="round" stroke-linecap="round" stroke="rgb(255,0,0)" stroke-width="3.749996" fill="none" d="M 28.301888 367.924652 L 28.571426 371.428680 " />
<path stroke-linejoin="round" stroke-linecap="round" stroke="rgb(0,0,255)" stroke-width="1.874998" fill="none" d="M 0.000000 750.000000 L 54.545448 0.000000 " />
<path stroke-linejoin="round" stroke-linecap="round" stroke="rgb(255,0,0)" stroke-width="3.749996" fill="none" d="M 28.037376 364.486084 L 28.301888 367.924652 " />
<path stroke-linejoin="round" stroke-linecap="round" stroke="rgb(0,0,255)" stroke-width="1.874998" fill="none" d="M 0.000000 750.000000 L 53.571426 0.000000 " />
<path stroke-linejoin="round" stroke-linecap="round" stroke="rgb(255,0,0)" stroke-width="3.749996" fill="none" d="M 27.777761 361.111206 L 28.037376 364.486084 " />
<path stroke-linejoin="round" stroke-linecap="round" stroke="rgb(0,0,255)" stroke-width="1.874998" fill="none" d="M 0.000000 750.000000 L 52.631580 0.000000 " />
<path stroke-linejoin="round" stroke-linecap="round" stroke="rgb(255,0,0)" stroke-width="3.749996" fill="none" d="M 27.522928 357.798248 L 27.777761 361.111206 " />
<path stroke-linejoin="round" stroke-linecap="round" stroke="rgb(0,0,255)" stroke-width="1.874998" fill="none" d="M 0.000000 750.000000 L 51.724144 0.000000 " />
<path stroke-linejoin="round" stroke-linecap="round" stroke="rgb(255,0,0)" stroke-width="3.749996" fill="none" d="M 27.272724 354.545532 L 27.522928 357.798248 " />
<path stroke-linejoin="round" stroke-linecap="round" stroke="rgb(0,0,255)" stroke-width="1.874998" fill="none" d="M 0.000000 750.000000 L 50.847462 0.000000 " />
<path stroke-linejoin="round" stroke-linecap="round" stroke="rgb(255,0,0)" stroke-width="3.749996" fill="none" d="M 27.027012 351.351440 L 27.272724 354.545532 " />
<path stroke-linejoin="round" stroke-linecap="round" stroke="rgb(0,0,255)" stroke-width="1.874998" fill="none" d="M 0.000000 750.000000 L 49.999996 0.000000 " />
<path stroke-linejoin="round" stroke-linecap="round" stroke="rgb(255,0,0)" stroke-width="3.749996" fill="none" d="M 26.785702 348.214386 L 27.027012 351.351440 " />
<path stroke-linejoin="round" stroke-linecap="round" stroke="rgb(0,0,255)" stroke-width="1.874998" fill="none" d="M 0.000000 750.000000 L 45.000000 0.000000 " />
<path stroke-linejoin="round" stroke-linecap="round" stroke="rgb(255,0,0)" stroke-width="3.749996" fill="none" d="M 25.280893 328.651794 L 26.785702 348.214386 " />
<path stroke-linejoin="round" stroke-linecap="round" stroke="rgb(0,0,255)" stroke-width="1.874998" fill="none" d="M 0.000000 750.000000 L 44.117645 0.000000 " />
<path stroke-linejoin="round" stroke-linecap="round" stroke="rgb(255,0,0)" stroke-width="3.749996" fill="none" d="M 24.999998 325.000122 L 25.280893 328.651794 " />
<path stroke-linejoin="round" stroke-linecap="round" stroke="rgb(0,0,255)" stroke-width="1.874998" fill="none" d="M 0.000000 750.000000 L 36.407768 0.000000 " />
<path stroke-linejoin="round" stroke-linecap="round" stroke="rgb(255,0,0)" stroke-width="3.749996" fill="none" d="M 22.321432 290.178680 L 24.999998 325.000122 " />
<path stroke-linejoin="round" stroke-linecap="round" stroke="rgb(0,0,255)" stroke-width="1.874998" fill="none" d="M 0.000000 750.000000 L 28.846151 0.000000 " />
<path stroke-linejoin="round" stroke-linecap="round" stroke="rgb(255,0,0)" stroke-width="3.749996" fill="none" d="M 19.230768 250.000168 L 22.321432 290.178680 " />
<path stroke-linejoin="round" stroke-linecap="round" stroke="rgb(0,0,255)" stroke-width="1.874998" fill="none" d="M 0.000000 750.000000 L 28.301888 0.000000 " />
<path stroke-linejoin="round" stroke-linecap="round" stroke="rgb(255,0,0)" stroke-width="3.749996" fill="none" d="M 18.987335 246.835632 L 19.230768 250.000168 " />
<path stroke-linejoin="round" stroke-linecap="round" stroke="rgb(0,0,255)" stroke-width="1.874998" fill="none" d="M 0.000000 750.000000 L 27.777784 0.000000 " />
<path stroke-linejoin="round" stroke-linecap="round" stroke="rgb(255,0,0)" stroke-width="3.749996" fill="none" d="M 18.749983 243.750168 L 18.987335 246.835632 " />
<path stroke-linejoin="round" stroke-linecap="round" stroke="rgb(0,0,255)" stroke-width="1.874998" fill="none" d="M 0.000000 750.000000 L 26.785725 0.000000 " />
<path stroke-linejoin="round" stroke-linecap="round" stroke="rgb(255,0,0)" stroke-width="3.749996" fill="none" d="M 18.292665 237.805054 L 18.749983 243.750168 " />
<path stroke-linejoin="round" stroke-linecap="round" stroke="rgb(0,0,255)" stroke-width="1.874998" fill="none" d="M 0.000000 750.000000 L 26.315779 0.000000 " />
<path stroke-linejoin="round" stroke-linecap="round" stroke="rgb(255,0,0)" stroke-width="3.749996" fill="none" d="M 18.072277 234.939957 L 18.292665 237.805054 " />
<path stroke-linejoin="round" stroke-linecap="round" stroke="rgb(0,0,255)" stroke-width="1.874998" fill="none" d="M 0.000000 750.000000 L 25.423721 0.000000 " />
<path stroke-linejoin="round" stroke-linecap="round" stroke="rgb(255,0,0)" stroke-width="3.749996" fill="none" d="M 17.647058 229.411926 L 18.072277 234.939957 " />
<path stroke-linejoin="round" stroke-linecap="round" stroke="rgb(0,0,255)" stroke-width="1.874998" fill="none" d="M 0.000000 750.000000 L 24.999998 0.000000 " />
<path stroke-linejoin="round" stroke-linecap="round" stroke="rgb(255,0,0)" stroke-width="3.749996" fill="none" d="M 17.441847 226.744339 L 17.647058 229.411926 " />
<path stroke-linejoin="round" stroke-linecap="round" stroke="rgb(0,0,255)" stroke-width="1.874998" fill="none" d="M 0.000000 750.000000 L 24.193548 0.000000 " />
<path stroke-linejoin="round" stroke-linecap="round" stroke="rgb(255,0,0)" stroke-width="3.749996" fill="none" d="M 17.045439 221.591141 L 17.441847 226.744339 " />
<path stroke-linejoin="round" stroke-linecap="round" stroke="rgb(0,0,255)" stroke-width="1.874998" fill="none" d="M 0.000000 750.000000 L 23.809523 0.000000 " />
<path stroke-linejoin="round" stroke-linecap="round" stroke="rgb(255,0,0)" stroke-width="3.749996" fill="none" d="M 16.853928 219.101334 L 17.045439 221.591141 " />
<path stroke-linejoin="round" stroke-linecap="round" stroke="rgb(0,0,255)" stroke-width="1.874998" fill="none" d="M 0.000000 750.000000 L 19.565218 0.000000 " />
<path stroke-linejoin="round" stroke-linecap="round" stroke="rgb(255,0,0)" stroke-width="3.749996" fill="none" d="M 14.610394 189.935242 L 16.853928 219.101334 " />
<path stroke-linejoin="round" stroke-linecap="round" stroke="rgb(0,0,255)" stroke-width="1.874998" fill="none" d="M 0.000000 750.000000 L 12.931042 0.000000 " />
<path stroke-linejoin="round" stroke-linecap="round" stroke="rgb(255,0,0)" stroke-width="3.749996" fill="none" d="M 10.563366 137.324142 L 14.610394 189.935242 " />
<path stroke-linejoin="round" stroke-linecap="round" stroke="rgb(0,0,255)" stroke-width="1.874998" fill="none" d="M 0.000000 750.000000 L 6.410256 0.000000 " />
<path stroke-linejoin="round" stroke-linecap="round" stroke="rgb(255,0,0)" stroke-width="3.749996" fill="none" d="M 5.769230 75.000290 L 10.563366 137.324142 " />
<path stroke-linejoin="round" stroke-linecap="round" stroke="rgb(0,0,255)" stroke-width="1.874998" fill="none" d="M 0.000000 750.000000 L 0.000000 0.000000 " />
<path stroke-linejoin="round" stroke-linecap="round" stroke="rgb(255,0,0)" stroke-width="3.749996" fill="none" d="M 0.000000 0.000000 L 5.769230 75.000328 " />
<circle cx="106.974900" cy="747.816861" r="3.749996" style="fill:rgb(0,127,0);stroke-width:1" /><circle cx="104.959689" cy="745.801605" r="3.749996" style="fill:rgb(0,127,0);stroke-width:1" /><circle cx="104.791760" cy="745.633677" r="3.749996" style="fill:rgb(0,127,0);stroke-width:1" /><circle cx="102.608599" cy="743.450515" r="3.749996" style="fill:rgb(0,127,0);stroke-width:1" /><circle cx="100.425459" cy="741.267353" r="3.749996" style="fill:rgb(0,127,0);stroke-width:1" /><circle cx="98.242298" cy="739.084192" r="3.749996" style="fill:rgb(0,127,0);stroke-width:1" /><circle cx="96.059136" cy="736.901030" r="3.749996" style="fill:rgb(0,127,0);stroke-width:1" /><circle cx="94.463736" cy="735.305630" r="3.749996" style="fill:rgb(0,127,0);stroke-width:1" /><circle cx="93.875974" cy="734.717868" r="3.749996" style="fill:rgb(0,127,0);stroke-width:1" /><circle cx="92.364550" cy="733.206443" r="3.749996" style="fill:rgb(0,127,0);stroke-width:1" /><circle cx="91.692790" cy="732.534707" r="3.749996" style="fill:rgb(0,127,0);stroke-width:1" /><circle cx="90.265341" cy="731.107257" r="3.749996" style="fill:rgb(0,127,0);stroke-width:1" /><circle cx="89.509629" cy="730.351545" r="3.749996" style="fill:rgb(0,127,0);stroke-width:1" /><circle cx="87.326445" cy="728.168383" r="3.749996" style="fill:rgb(0,127,0);stroke-width:1" /><circle cx="86.318247" cy="715.061657" r="3.749996" style="fill:rgb(0,127,0);stroke-width:1" /><circle cx="84.879600" cy="713.623032" r="3.749996" style="fill:rgb(0,127,0);stroke-width:1" /><circle cx="82.454480" cy="711.197890" r="3.749996" style="fill:rgb(0,127,0);stroke-width:1" /><circle cx="80.029339" cy="708.772771" r="3.749996" style="fill:rgb(0,127,0);stroke-width:1" /><circle cx="77.604219" cy="706.347629" r="3.749996" style="fill:rgb(0,127,0);stroke-width:1" /><circle cx="76.951303" cy="705.694713" r="3.749996" style="fill:rgb(0,127,0);stroke-width:1" /><circle cx="75.179078" cy="703.922488" r="3.749996" style="fill:rgb(0,127,0);stroke-width:1" /><circle cx="74.619435" cy="703.362845" r="3.749996" style="fill:rgb(0,127,0);stroke-width:1" /><circle cx="72.753958" cy="701.497369" r="3.749996" style="fill:rgb(0,127,0);stroke-width:1" /><circle cx="70.328817" cy="699.072227" r="3.749996" style="fill:rgb(0,127,0);stroke-width:1" /><circle cx="67.903697" cy="696.647108" r="3.749996" style="fill:rgb(0,127,0);stroke-width:1" /><circle cx="65.478556" cy="694.221966" r="3.749996" style="fill:rgb(0,127,0);stroke-width:1" /><circle cx="63.053437" cy="691.796847" r="3.749996" style="fill:rgb(0,127,0);stroke-width:1" /><circle cx="60.628295" cy="689.371705" r="3.749996" style="fill:rgb(0,127,0);stroke-width:1" /><circle cx="58.296449" cy="687.039837" r="3.749996" style="fill:rgb(0,127,0);stroke-width:1" /><circle cx="55.964582" cy="684.707992" r="3.749996" style="fill:rgb(0,127,0);stroke-width:1" /><circle cx="53.632714" cy="682.376124" r="3.749996" style="fill:rgb(0,127,0);stroke-width:1" /><circle cx="52.297376" cy="665.016755" r="3.749996" style="fill:rgb(0,127,0);stroke-width:1" /><circle cx="50.892860" cy="661.607131" r="3.749996" style="fill:rgb(0,127,0);stroke-width:1" /><circle cx="49.504951" cy="643.564336" r="3.749996" style="fill:rgb(0,127,0);stroke-width:1" /><circle cx="48.969068" cy="636.597946" r="3.749996" style="fill:rgb(0,127,0);stroke-width:1" /><circle cx="47.770701" cy="621.019118" r="3.749996" style="fill:rgb(0,127,0);stroke-width:1" /><circle cx="47.499999" cy="617.499992" r="3.749996" style="fill:rgb(0,127,0);stroke-width:1" /><circle cx="46.439633" cy="603.715159" r="3.749996" style="fill:rgb(0,127,0);stroke-width:1" /><circle cx="46.075076" cy="598.976120" r="3.749996" style="fill:rgb(0,127,0);stroke-width:1" /><circle cx="43.965518" cy="571.551718" r="3.749996" style="fill:rgb(0,127,0);stroke-width:1" /><circle cx="43.130994" cy="560.702898" r="3.749996" style="fill:rgb(0,127,0);stroke-width:1" /><circle cx="43.032780" cy="559.426256" r="3.749996" style="fill:rgb(0,127,0);stroke-width:1" /><circle cx="42.682931" cy="554.878034" r="3.749996" style="fill:rgb(0,127,0);stroke-width:1" /><circle cx="42.338714" cy="550.403215" r="3.749996" style="fill:rgb(0,127,0);stroke-width:1" /><circle cx="41.999996" cy="545.999967" r="3.749996" style="fill:rgb(0,127,0);stroke-width:1" /><circle cx="40.966384" cy="532.563027" r="3.749996" style="fill:rgb(0,127,0);stroke-width:1" /><circle cx="40.625006" cy="528.125010" r="3.749996" style="fill:rgb(0,127,0);stroke-width:1" /><circle cx="40.289260" cy="523.760341" r="3.749996" style="fill:rgb(0,127,0);stroke-width:1" /><circle cx="39.959013" cy="519.467197" r="3.749996" style="fill:rgb(0,127,0);stroke-width:1" /><circle cx="39.634153" cy="515.243892" r="3.749996" style="fill:rgb(0,127,0);stroke-width:1" /><circle cx="39.314523" cy="511.088725" r="3.749996" style="fill:rgb(0,127,0);stroke-width:1" /><circle cx="38.999990" cy="507.000033" r="3.749996" style="fill:rgb(0,127,0);stroke-width:1" /><circle cx="38.690463" cy="502.976216" r="3.749996" style="fill:rgb(0,127,0);stroke-width:1" /><circle cx="38.461536" cy="500.000004" r="3.749996" style="fill:rgb(0,127,0);stroke-width:1" /><circle cx="38.135603" cy="495.762706" r="3.749996" style="fill:rgb(0,127,0);stroke-width:1" /><circle cx="37.815124" cy="491.596643" r="3.749996" style="fill:rgb(0,127,0);stroke-width:1" /><circle cx="36.504418" cy="474.557519" r="3.749996" style="fill:rgb(0,127,0);stroke-width:1" /><circle cx="35.046726" cy="455.607506" r="3.749996" style="fill:rgb(0,127,0);stroke-width:1" /><circle cx="34.722224" cy="451.388905" r="3.749996" style="fill:rgb(0,127,0);stroke-width:1" /><circle cx="34.090899" cy="443.181854" r="3.749996" style="fill:rgb(0,127,0);stroke-width:1" /><circle cx="33.783786" cy="439.189274" r="3.749996" style="fill:rgb(0,127,0);stroke-width:1" /><circle cx="33.482127" cy="435.267935" r="3.749996" style="fill:rgb(0,127,0);stroke-width:1" /><circle cx="31.839609" cy="413.915173" r="3.749996" style="fill:rgb(0,127,0);stroke-width:1" /><circle cx="29.999994" cy="390.000088" r="3.749996" style="fill:rgb(0,127,0);stroke-width:1" /><circle cx="29.702961" cy="386.138729" r="3.749996" style="fill:rgb(0,127,0);stroke-width:1" /><circle cx="29.411763" cy="382.353034" r="3.749996" style="fill:rgb(0,127,0);stroke-width:1" /><circle cx="29.126197" cy="378.640856" r="3.749996" style="fill:rgb(0,127,0);stroke-width:1" /><circle cx="28.571427" cy="371.428677" r="3.749996" style="fill:rgb(0,127,0);stroke-width:1" /><circle cx="28.301887" cy="367.924639" r="3.749996" style="fill:rgb(0,127,0);stroke-width:1" /><circle cx="28.037377" cy="364.486072" r="3.749996" style="fill:rgb(0,127,0);stroke-width:1" /><circle cx="27.777761" cy="361.111216" r="3.749996" style="fill:rgb(0,127,0);stroke-width:1" /><circle cx="27.522929" cy="357.798253" r="3.749996" style="fill:rgb(0,127,0);stroke-width:1" /><circle cx="27.272724" cy="354.545551" r="3.749996" style="fill:rgb(0,127,0);stroke-width:1" /><circle cx="27.027011" cy="351.351449" r="3.749996" style="fill:rgb(0,127,0);stroke-width:1" /><circle cx="26.785702" cy="348.214388" r="3.749996" style="fill:rgb(0,127,0);stroke-width:1" /><circle cx="25.280893" cy="328.651811" r="3.749996" style="fill:rgb(0,127,0);stroke-width:1" /><circle cx="24.999999" cy="325.000126" r="3.749996" style="fill:rgb(0,127,0);stroke-width:1" /><circle cx="22.321433" cy="290.178688" r="3.749996" style="fill:rgb(0,127,0);stroke-width:1" /><circle cx="19.230768" cy="250.000175" r="3.749996" style="fill:rgb(0,127,0);stroke-width:1" /><circle cx="18.987335" cy="246.835627" r="3.749996" style="fill:rgb(0,127,0);stroke-width:1" /><circle cx="18.749982" cy="243.750159" r="3.749996" style="fill:rgb(0,127,0);stroke-width:1" /><circle cx="18.292665" cy="237.805065" r="3.749996" style="fill:rgb(0,127,0);stroke-width:1" /><circle cx="18.072277" cy="234.939951" r="3.749996" style="fill:rgb(0,127,0);stroke-width:1" /><circle cx="17.647058" cy="229.411941" r="3.749996" style="fill:rgb(0,127,0);stroke-width:1" /><circle cx="17.441846" cy="226.744350" r="3.749996" style="fill:rgb(0,127,0);stroke-width:1" /><circle cx="17.045438" cy="221.591134" r="3.749996" style="fill:rgb(0,127,0);stroke-width:1" /><circle cx="16.853929" cy="219.101328" r="3.749996" style="fill:rgb(0,127,0);stroke-width:1" /><circle cx="14.610395" cy="189.935245" r="3.749996" style="fill:rgb(0,127,0);stroke-width:1" /><circle cx="10.563366" cy="137.324139" r="3.749996" style="fill:rgb(0,127,0);stroke-width:1" /><circle cx="5.769230" cy="75.000286" r="3.749996" style="fill:rgb(0,127,0);stroke-width:1" /><circle cx="750.000000" cy="750.000000" r="3.749996" style="fill:rgb(0,127,0);stroke-width:1" /><path stroke-linejoin="round" stroke-linecap="round" stroke="rgb(255,255,255)" stroke-width="3.749996" fill="none" d="M 0.000000 750.000000 L 750.000000 750.000000 M 0.000000 750.000000 L 0.000000 0.000000 " />

</svg>