<svg xmlns="http://www.w3.org/2000/svg" version="1.1" width = "750" height = "750" viewBox = "0 0 750 750"  shape-rendering="crispEdges">
<path stroke-linejoin="round" stroke-linecap="round" stroke="rgb(255,255,0)" stroke-width="3.749996" fill="none" d="M 93.750000 750.000000 L 0.000000 0.000000 " />
<path stroke-linejoin="round" stroke-linecap="round" stroke="rgb(63,63,63)" stroke-width="3.749996" fill="none" d="M 0.000000 0.000000 L 750.000000 750.000000 M 93.750000 750.000000 L 43.750004 0.000000 " />
<path stroke-linejoin="round" stroke-linecap="round" stroke="rgb(191,191,191)" stroke-width="3.749996" fill="none" d="M 0.000000 656.250000 L 93.750000 750.000000 M 0.000000 0.000000 L 49.999996 750.000000 " />
<path stroke-linejoin="round" stroke-linecap="round" stroke="rgb(0,0,255)" stroke-width="1.874998" fill="none" d="M 0.000000 750.000000 L 750.000000 732.142822 " />
<path stroke-linejoin="round" stroke-linecap="round" stroke="rgb(255,0,0)" stroke-width="3.749996" fill="none" d="M 93.601402 747.771423 L 93.750000 750.000000 " />
<path stroke-linejoin="round" stroke-linecap="round" stroke="rgb(0,0,255)" stroke-width="1.874998" fill="none" d="M 0.000000 750.000000 L 750.000000 715.116272 " />
<path stroke-linejoin="round" stroke-linecap="round" stroke="rgb(255,0,0)" stroke-width="3.749996" fill="none" d="M 93.134033 745.668213 L 93.601402 747.771423 " />
<path stroke-linejoin="round" stroke-linecap="round" stroke="rgb(0,0,255)" stroke-width="1.874998" fill="none" d="M 0.000000 750.000000 L 750.000000 696.428589 " />
<path stroke-linejoin="round" stroke-linecap="round" stroke="rgb(255,0,0)" stroke-width="3.749996" fill="none" d="M 92.626404 743.383850 L 93.134033 745.668213 " />
<path stroke-linejoin="round" stroke-linecap="round" stroke="rgb(0,0,255)" stroke-width="1.874998" fill="none" d="M 0.000000 750.000000 L 750.000000 676.829224 " />
<path stroke-linejoin="round" stroke-linecap="round" stroke="rgb(255,0,0)" stroke-width="3.749996" fill="none" d="M 92.099907 741.014648 L 92.626381 743.383850 " />
<path stroke-linejoin="round" stroke-linecap="round" stroke="rgb(0,0,255)" stroke-width="1.874998" fill="none" d="M 0.000000 750.000000 L 750.000000 656.250000 " />
<path stroke-linejoin="round" stroke-linecap="round" stroke="rgb(255,0,0)" stroke-width="3.749996" fill="none" d="M 91.553497 738.555847 L 92.099930 741.014648 " />
<path stroke-linejoin="round" stroke-linecap="round" stroke="rgb(0,0,255)" stroke-width="1.874998" fill="none" d="M 0.000000 750.000000 L 750.000000 634.615417 " />
<path stroke-linejoin="round" stroke-linecap="round" stroke="rgb(255,0,0)" stroke-width="3.749996" fill="none" d="M 90.986031 736.002197 L 91.553497 738.555847 " />
<path stroke-linejoin="round" stroke-linecap="round" stroke="rgb(0,0,255)" stroke-width="1.874998" fill="none" d="M 0.000000 750.000000 L 750.000000 611.842102 " />
<path stroke-linejoin="round" stroke-linecap="round" stroke="rgb(255,0,0)" stroke-width="3.749996" fill="none" d="M 90.396233 733.348022 L 90.986031 736.002197 " />
<path stroke-linejoin="round" stroke-linecap="round" stroke="rgb(0,0,255)" stroke-width="1.874998" fill="none" d="M 0.000000 750.000000 L 750.000000 587.837830 " />
<path stroke-linejoin="round" stroke-linecap="round" stroke="rgb(255,0,0)" stroke-width="3.749996" fill="none" d="M 89.782768 730.587524 L 90.396233 733.348022 " />
<path stroke-linejoin="round" stroke-linecap="round" stroke="rgb(0,0,255)" stroke-width="1.874998" fill="none" d="M 0.000000 750.000000 L 750.000000 572.368408 " />
<path stroke-linejoin="round" stroke-linecap="round" stroke="rgb(255,0,0)" stroke-width="3.749996" fill="none" d="M 89.391815 728.828247 L 89.782768 730.587524 " />
<path stroke-linejoin="round" stroke-linecap="round" stroke="rgb(0,0,255)" stroke-width="1.874998" fill="none" d="M 0.000000 750.000000 L 750.000000 547.297302 " />
<path stroke-linejoin="round" stroke-linecap="round" stroke="rgb(255,0,0)" stroke-width="3.749996" fill="none" d="M 88.765404 726.009338 L 89.391815 728.828247 " />
<path stroke-linejoin="round" stroke-linecap="round" stroke="rgb(0,0,255)" stroke-width="1.874998" fill="none" d="M 0.000000 750.000000 L 750.000000 532.894775 " />
<path stroke-linejoin="round" stroke-linecap="round" stroke="rgb(255,0,0)" stroke-width="3.749996" fill="none" d="M 88.409500 724.407776 L 88.765404 726.009338 " />
<path stroke-linejoin="round" stroke-linecap="round" stroke="rgb(0,0,255)" stroke-width="1.874998" fill="none" d="M 0.000000 750.000000 L 750.000000 520.833313 " />
<path stroke-linejoin="round" stroke-linecap="round" stroke="rgb(255,0,0)" stroke-width="3.749996" fill="none" d="M 88.113625 723.076416 L 88.409500 724.407776 " />
<path stroke-linejoin="round" stroke-linecap="round" stroke="rgb(0,0,255)" stroke-width="1.874998" fill="none" d="M 0.000000 750.000000 L 750.000000 506.756775 " />
<path stroke-linejoin="round" stroke-linecap="round" stroke="rgb(255,0,0)" stroke-width="3.749996" fill="none" d="M 87.770844 721.533813 L 88.113625 723.076416 " />
<path stroke-linejoin="round" stroke-linecap="round" stroke="rgb(0,0,255)" stroke-width="1.874998" fill="none" d="M 0.000000 750.000000 L 750.000000 479.166656 " />
<path stroke-linejoin="round" stroke-linecap="round" stroke="rgb(255,0,0)" stroke-width="3.749996" fill="none" d="M 87.106613 718.544861 L 87.770866 721.533813 " />
<path stroke-linejoin="round" stroke-linecap="round" stroke="rgb(0,0,255)" stroke-width="1.874998" fill="none" d="M 0.000000 750.000000 L 750.000000 450.000031 " />
<path stroke-linejoin="round" stroke-linecap="round" stroke="rgb(255,0,0)" stroke-width="3.749996" fill="none" d="M 86.415298 715.433899 L 87.106613 718.544861 " />
<path stroke-linejoin="round" stroke-linecap="round" stroke="rgb(0,0,255)" stroke-width="1.874998" fill="none" d="M 0.000000 750.000000 L 750.000000 419.117645 " />
<path stroke-linejoin="round" stroke-linecap="round" stroke="rgb(255,0,0)" stroke-width="3.749996" fill="none" d="M 85.695168 712.193298 L 86.415298 715.433899 " />
<path stroke-linejoin="round" stroke-linecap="round" stroke="rgb(0,0,255)" stroke-width="1.874998" fill="none" d="M 0.000000 750.000000 L 750.000000 407.142883 " />
<path stroke-linejoin="round" stroke-linecap="round" stroke="rgb(255,0,0)" stroke-width="3.749996" fill="none" d="M 85.419151 710.951233 L 85.695168 712.193298 " />
<path stroke-linejoin="round" stroke-linecap="round" stroke="rgb(0,0,255)" stroke-width="1.874998" fill="none" d="M 0.000000 750.000000 L 750.000000 375.000000 " />
<path stroke-linejoin="round" stroke-linecap="round" stroke="rgb(255,0,0)" stroke-width="3.749996" fill="none" d="M 84.686996 707.656494 L 85.419151 710.951233 " />
<path stroke-linejoin="round" stroke-linecap="round" stroke="rgb(0,0,255)" stroke-width="1.874998" fill="none" d="M 0.000000 750.000000 L 750.000000 351.562500 " />
<path stroke-linejoin="round" stroke-linecap="round" stroke="rgb(255,0,0)" stroke-width="3.749996" fill="none" d="M 84.160965 705.289429 L 84.686996 707.656494 " />
<path stroke-linejoin="round" stroke-linecap="round" stroke="rgb(0,0,255)" stroke-width="1.874998" fill="none" d="M 0.000000 750.000000 L 750.000000 314.516144 " />
<path stroke-linejoin="round" stroke-linecap="round" stroke="rgb(255,0,0)" stroke-width="3.749996" fill="none" d="M 83.342758 701.607422 L 84.160965 705.289429 " />
<path stroke-linejoin="round" stroke-linecap="round" stroke="rgb(0,0,255)" stroke-width="1.874998" fill="none" d="M 0.000000 750.000000 L 750.000000 275.000000 " />
<path stroke-linejoin="round" stroke-linecap="round" stroke="rgb(255,0,0)" stroke-width="3.749996" fill="none" d="M 82.487312 697.758057 L 83.342758 701.607422 " />
<path stroke-linejoin="round" stroke-linecap="round" stroke="rgb(0,0,255)" stroke-width="1.874998" fill="none" d="M 0.000000 750.000000 L 750.000000 266.129059 " />
<path stroke-linejoin="round" stroke-linecap="round" stroke="rgb(255,0,0)" stroke-width="3.749996" fill="none" d="M 82.297707 696.904663 L 82.487312 697.758057 " />
<path stroke-linejoin="round" stroke-linecap="round" stroke="rgb(0,0,255)" stroke-width="1.874998" fill="none" d="M 0.000000 750.000000 L 750.000000 225.000015 " />
<path stroke-linejoin="round" stroke-linecap="round" stroke="rgb(255,0,0)" stroke-width="3.749996" fill="none" d="M 81.429810 692.999146 L 82.297707 696.904663 " />
<path stroke-linejoin="round" stroke-linecap="round" stroke="rgb(0,0,255)" stroke-width="1.874998" fill="none" d="M 0.000000 750.000000 L 750.000000 181.034485 " />
<path stroke-linejoin="round" stroke-linecap="round" stroke="rgb(255,0,0)" stroke-width="3.749996" fill="none" d="M 80.522064 688.914307 L 81.429810 692.999146 " />
<path stroke-linejoin="round" stroke-linecap="round" stroke="rgb(0,0,255)" stroke-width="1.874998" fill="none" d="M 0.000000 750.000000 L 750.000000 175.000015 " />
<path stroke-linejoin="round" stroke-linecap="round" stroke="rgb(255,0,0)" stroke-width="3.749996" fill="none" d="M 80.399055 688.360718 L 80.522064 688.914307 " />
<path stroke-linejoin="round" stroke-linecap="round" stroke="rgb(0,0,255)" stroke-width="1.874998" fill="none" d="M 0.000000 750.000000 L 750.000000 133.928558 " />
<path stroke-linejoin="round" stroke-linecap="round" stroke="rgb(255,0,0)" stroke-width="3.749996" fill="none" d="M 79.571686 684.637512 L 80.399055 688.360718 " />
<path stroke-linejoin="round" stroke-linecap="round" stroke="rgb(0,0,255)" stroke-width="1.874998" fill="none" d="M 0.000000 750.000000 L 750.000000 129.310318 " />
<path stroke-linejoin="round" stroke-linecap="round" stroke="rgb(255,0,0)" stroke-width="3.749996" fill="none" d="M 79.479706 684.223633 L 79.571686 684.637512 " />
<path stroke-linejoin="round" stroke-linecap="round" stroke="rgb(0,0,255)" stroke-width="1.874998" fill="none" d="M 0.000000 750.000000 L 613.636353 0.000000 " />
<path stroke-linejoin="round" stroke-linecap="round" stroke="rgb(255,0,0)" stroke-width="3.749996" fill="none" d="M 77.014313 655.871399 L 79.479706 684.223633 " />
<path stroke-linejoin="round" stroke-linecap="round" stroke="rgb(0,0,255)" stroke-width="1.874998" fill="none" d="M 0.000000 750.000000 L 535.714294 0.000000 " />
<path stroke-linejoin="round" stroke-linecap="round" stroke="rgb(255,0,0)" stroke-width="3.749996" fill="none" d="M 75.952965 643.665894 L 77.014313 655.871399 " />
<path stroke-linejoin="round" stroke-linecap="round" stroke="rgb(0,0,255)" stroke-width="1.874998" fill="none" d="M 0.000000 750.000000 L 433.333313 0.000000 " />
<path stroke-linejoin="round" stroke-linecap="round" stroke="rgb(255,0,0)" stroke-width="3.749996" fill="none" d="M 74.054138 621.829407 L 75.952965 643.665894 " />
<path stroke-linejoin="round" stroke-linecap="round" stroke="rgb(0,0,255)" stroke-width="1.874998" fill="none" d="M 0.000000 750.000000 L 400.000031 0.000000 " />
<path stroke-linejoin="round" stroke-linecap="round" stroke="rgb(255,0,0)" stroke-width="3.749996" fill="none" d="M 73.255554 612.645813 L 74.054138 621.829407 " />
<path stroke-linejoin="round" stroke-linecap="round" stroke="rgb(0,0,255)" stroke-width="1.874998" fill="none" d="M 0.000000 750.000000 L 340.909088 0.000000 " />
<path stroke-linejoin="round" stroke-linecap="round" stroke="rgb(255,0,0)" stroke-width="3.749996" fill="none" d="M 71.517754 592.660950 L 73.255554 612.645874 " />
<path stroke-linejoin="round" stroke-linecap="round" stroke="rgb(0,0,255)" stroke-width="1.874998" fill="none" d="M 0.000000 750.000000 L 313.636383 0.000000 " />
<path stroke-linejoin="round" stroke-linecap="round" stroke="rgb(255,0,0)" stroke-width="3.749996" fill="none" d="M 70.532845 581.334534 L 71.517754 592.660950 " />
<path stroke-linejoin="round" stroke-linecap="round" stroke="rgb(0,0,255)" stroke-width="1.874998" fill="none" d="M 0.000000 750.000000 L 253.846161 0.000000 " />
<path stroke-linejoin="round" stroke-linecap="round" stroke="rgb(255,0,0)" stroke-width="3.749996" fill="none" d="M 67.784431 549.727844 L 70.532845 581.334534 " />
<path stroke-linejoin="round" stroke-linecap="round" stroke="rgb(0,0,255)" stroke-width="1.874998" fill="none" d="M 0.000000 750.000000 L 230.000000 0.000000 " />
<path stroke-linejoin="round" stroke-linecap="round" stroke="rgb(255,0,0)" stroke-width="3.749996" fill="none" d="M 66.377747 533.550903 L 67.784431 549.727844 " />
<path stroke-linejoin="round" stroke-linecap="round" stroke="rgb(0,0,255)" stroke-width="1.874998" fill="none" d="M 0.000000 750.000000 L 210.000000 0.000000 " />
<path stroke-linejoin="round" stroke-linecap="round" stroke="rgb(255,0,0)" stroke-width="3.749996" fill="none" d="M 65.009972 517.821533 L 66.377747 533.550903 " />
<path stroke-linejoin="round" stroke-linecap="round" stroke="rgb(0,0,255)" stroke-width="1.874998" fill="none" d="M 0.000000 750.000000 L 176.470581 0.000000 " />
<path stroke-linejoin="round" stroke-linecap="round" stroke="rgb(255,0,0)" stroke-width="3.749996" fill="none" d="M 62.209076 485.611389 L 65.009972 517.821533 " />
<path stroke-linejoin="round" stroke-linecap="round" stroke="rgb(0,0,255)" stroke-width="1.874998" fill="none" d="M 0.000000 750.000000 L 149.999985 0.000000 " />
<path stroke-linejoin="round" stroke-linecap="round" stroke="rgb(255,0,0)" stroke-width="3.749996" fill="none" d="M 59.381405 453.093018 L 62.209076 485.611389 " />
<path stroke-linejoin="round" stroke-linecap="round" stroke="rgb(0,0,255)" stroke-width="1.874998" fill="none" d="M 0.000000 750.000000 L 128.571426 0.000000 " />
<path stroke-linejoin="round" stroke-linecap="round" stroke="rgb(255,0,0)" stroke-width="3.749996" fill="none" d="M 56.526527 420.261932 L 59.381405 453.093018 " />
<path stroke-linejoin="round" stroke-linecap="round" stroke="rgb(0,0,255)" stroke-width="1.874998" fill="none" d="M 0.000000 750.000000 L 123.913048 0.000000 " />
<path stroke-linejoin="round" stroke-linecap="round" stroke="rgb(255,0,0)" stroke-width="3.749996" fill="none" d="M 55.820301 412.140320 L 56.526527 420.261932 " />
<path stroke-linejoin="round" stroke-linecap="round" stroke="rgb(0,0,255)" stroke-width="1.874998" fill="none" d="M 0.000000 750.000000 L 114.795906 0.000000 " />
<path stroke-linejoin="round" stroke-linecap="round" stroke="rgb(255,0,0)" stroke-width="3.749996" fill="none" d="M 54.332344 395.028778 L 55.820301 412.140320 " />
<path stroke-linejoin="round" stroke-linecap="round" stroke="rgb(0,0,255)" stroke-width="1.874998" fill="none" d="M 0.000000 750.000000 L 112.903229 0.000000 " />
<path stroke-linejoin="round" stroke-linecap="round" stroke="rgb(255,0,0)" stroke-width="3.749996" fill="none" d="M 53.798294 392.625610 L 54.332344 395.028778 " />
<path stroke-linejoin="round" stroke-linecap="round" stroke="rgb(0,0,255)" stroke-width="1.874998" fill="none" d="M 0.000000 750.000000 L 103.723389 0.000000 " />
<path stroke-linejoin="round" stroke-linecap="round" stroke="rgb(255,0,0)" stroke-width="3.749996" fill="none" d="M 51.102074 380.492615 L 53.798294 392.625610 " />
<path stroke-linejoin="round" stroke-linecap="round" stroke="rgb(0,0,255)" stroke-width="1.874998" fill="none" d="M 0.000000 750.000000 L 101.562515 0.000000 " />
<path stroke-linejoin="round" stroke-linecap="round" stroke="rgb(255,0,0)" stroke-width="3.749996" fill="none" d="M 50.440571 377.515808 L 51.102074 380.492615 " />
<path stroke-linejoin="round" stroke-linecap="round" stroke="rgb(0,0,255)" stroke-width="1.874998" fill="none" d="M 0.000000 750.000000 L 99.489792 0.000000 " />
<path stroke-linejoin="round" stroke-linecap="round" stroke="rgb(255,0,0)" stroke-width="3.749996" fill="none" d="M 49.795971 374.615051 L 50.440571 377.515808 " />
<path stroke-linejoin="round" stroke-linecap="round" stroke="rgb(0,0,255)" stroke-width="1.874998" fill="none" d="M 0.000000 750.000000 L 97.500000 0.000000 " />
<path stroke-linejoin="round" stroke-linecap="round" stroke="rgb(255,0,0)" stroke-width="3.749996" fill="none" d="M 49.167618 371.787567 L 49.795971 374.615051 " />
<path stroke-linejoin="round" stroke-linecap="round" stroke="rgb(0,0,255)" stroke-width="1.874998" fill="none" d="M 0.000000 750.000000 L 95.588249 0.000000 " />
<path stroke-linejoin="round" stroke-linecap="round" stroke="rgb(255,0,0)" stroke-width="3.749996" fill="none" d="M 48.554935 369.030487 L 49.167618 371.787567 " />
<path stroke-linejoin="round" stroke-linecap="round" stroke="rgb(0,0,255)" stroke-width="1.874998" fill="none" d="M 0.000000 750.000000 L 93.750000 0.000000 " />
<path stroke-linejoin="round" stroke-linecap="round" stroke="rgb(255,0,0)" stroke-width="3.749996" fill="none" d="M 47.957340 366.341278 L 48.554935 369.030487 " />
<path stroke-linejoin="round" stroke-linecap="round" stroke="rgb(0,0,255)" stroke-width="1.874998" fill="none" d="M 0.000000 750.000000 L 85.714279 0.000000 " />
<path stroke-linejoin="round" stroke-linecap="round" stroke="rgb(255,0,0)" stroke-width="3.749996" fill="none" d="M 45.242764 354.125763 L 47.957340 366.341278 " />
<path stroke-linejoin="round" stroke-linecap="round" stroke="rgb(0,0,255)" stroke-width="1.874998" fill="none" d="M 0.000000 750.000000 L 84.112152 0.000000 " />
<path stroke-linejoin="round" stroke-linecap="round" stroke="rgb(255,0,0)" stroke-width="3.749996" fill="none" d="M 44.680752 351.596649 L 45.242764 354.125763 " />
<path stroke-linejoin="round" stroke-linecap="round" stroke="rgb(0,0,255)" stroke-width="1.874998" fill="none" d="M 0.000000 750.000000 L 82.568810 0.000000 " />
<path stroke-linejoin="round" stroke-linecap="round" stroke="rgb(255,0,0)" stroke-width="3.749996" fill="none" d="M 44.132530 349.129608 L 44.680752 351.596649 " />
<path stroke-linejoin="round" stroke-linecap="round" stroke="rgb(0,0,255)" stroke-width="1.874998" fill="none" d="M 0.000000 750.000000 L 81.081078 0.000000 " />
<path stroke-linejoin="round" stroke-linecap="round" stroke="rgb(255,0,0)" stroke-width="3.749996" fill="none" d="M 43.597588 346.722351 L 44.132530 349.129608 " />
<path stroke-linejoin="round" stroke-linecap="round" stroke="rgb(0,0,255)" stroke-width="1.874998" fill="none" d="M 0.000000 750.000000 L 79.326912 0.000000 " />
<path stroke-linejoin="round" stroke-linecap="round" stroke="rgb(255,0,0)" stroke-width="3.749996" fill="none" d="M 42.958527 343.846649 L 43.597588 346.722351 " />
<path stroke-linejoin="round" stroke-linecap="round" stroke="rgb(0,0,255)" stroke-width="1.874998" fill="none" d="M 0.000000 750.000000 L 71.428566 0.000000 " />
<path stroke-linejoin="round" stroke-linecap="round" stroke="rgb(255,0,0)" stroke-width="3.749996" fill="none" d="M 39.964443 330.373322 L 42.958527 343.846649 " />
<path stroke-linejoin="round" stroke-linecap="round" stroke="rgb(0,0,255)" stroke-width="1.874998" fill="none" d="M 0.000000 750.000000 L 63.679241 0.000000 " />
<path stroke-linejoin="round" stroke-linecap="round" stroke="rgb(255,0,0)" stroke-width="3.749996" fill="none" d="M 36.827312 316.256195 L 39.964443 330.373322 " />
<path stroke-linejoin="round" stroke-linecap="round" stroke="rgb(0,0,255)" stroke-width="1.874998" fill="none" d="M 0.000000 750.000000 L 62.500008 0.000000 " />
<path stroke-linejoin="round" stroke-linecap="round" stroke="rgb(255,0,0)" stroke-width="3.749996" fill="none" d="M 36.331326 314.024231 L 36.827312 316.256195 " />
<path stroke-linejoin="round" stroke-linecap="round" stroke="rgb(0,0,255)" stroke-width="1.874998" fill="none" d="M 0.000000 750.000000 L 61.363621 0.000000 " />
<path stroke-linejoin="round" stroke-linecap="round" stroke="rgb(255,0,0)" stroke-width="3.749996" fill="none" d="M 35.848507 311.851501 L 36.331326 314.024231 " />
<path stroke-linejoin="round" stroke-linecap="round" stroke="rgb(0,0,255)" stroke-width="1.874998" fill="none" d="M 0.000000 750.000000 L 60.267849 0.000000 " />
<path stroke-linejoin="round" stroke-linecap="round" stroke="rgb(255,0,0)" stroke-width="3.749996" fill="none" d="M 35.378361 309.735901 L 35.848507 311.851501 " />
<path stroke-linejoin="round" stroke-linecap="round" stroke="rgb(0,0,255)" stroke-width="1.874998" fill="none" d="M 0.000000 750.000000 L 56.249992 0.000000 " />
<path stroke-linejoin="round" stroke-linecap="round" stroke="rgb(255,0,0)" stroke-width="3.749996" fill="none" d="M 33.614964 301.800537 L 35.378361 309.735901 " />
<path stroke-linejoin="round" stroke-linecap="round" stroke="rgb(0,0,255)" stroke-width="1.874998" fill="none" d="M 0.000000 750.000000 L 49.586781 0.000000 " />
<path stroke-linejoin="round" stroke-linecap="round" stroke="rgb(255,0,0)" stroke-width="3.749996" fill="none" d="M 30.546070 287.990570 L 33.614964 301.800507 " />
<path stroke-linejoin="round" stroke-linecap="round" stroke="rgb(0,0,255)" stroke-width="1.874998" fill="none" d="M 0.000000 750.000000 L 40.076336 0.000000 " />
<path stroke-linejoin="round" stroke-linecap="round" stroke="rgb(255,0,0)" stroke-width="3.749996" fill="none" d="M 26.917376 246.260498 L 30.546070 287.990570 " />
<path stroke-linejoin="round" stroke-linecap="round" stroke="rgb(0,0,255)" stroke-width="1.874998" fill="none" d="M 0.000000 750.000000 L 31.914890 0.000000 " />
<path stroke-linejoin="round" stroke-linecap="round" stroke="rgb(255,0,0)" stroke-width="3.749996" fill="none" d="M 23.236826 203.934341 L 26.917376 246.260498 " />
<path stroke-linejoin="round" stroke-linecap="round" stroke="rgb(0,0,255)" stroke-width="1.874998" fill="none" d="M 0.000000 750.000000 L 27.950317 0.000000 " />
<path stroke-linejoin="round" stroke-linecap="round" stroke="rgb(255,0,0)" stroke-width="3.749996" fill="none" d="M 21.216251 180.697510 L 23.236826 203.934341 " />
<path stroke-linejoin="round" stroke-linecap="round" stroke="rgb(0,0,255)" stroke-width="1.874998" fill="none" d="M 0.000000 750.000000 L 22.900768 0.000000 " />
<path stroke-linejoin="round" stroke-linecap="round" stroke="rgb(255,0,0)" stroke-width="3.749996" fill="none" d="M 17.846323 165.532837 L 21.216251 180.697510 " />
<path stroke-linejoin="round" stroke-linecap="round" stroke="rgb(0,0,255)" stroke-width="1.874998" fill="none" d="M 0.000000 750.000000 L 22.556395 0.000000 " />
<path stroke-linejoin="round" stroke-linecap="round" stroke="rgb(255,0,0)" stroke-width="3.749996" fill="none" d="M 17.609955 164.469116 L 17.846323 165.532791 " />
<path stroke-linejoin="round" stroke-linecap="round" stroke="rgb(0,0,255)" stroke-width="1.874998" fill="none" d="M 0.000000 750.000000 L 22.222214 0.000000 " />
<path stroke-linejoin="round" stroke-linecap="round" stroke="rgb(255,0,0)" stroke-width="3.749996" fill="none" d="M 17.379753 163.433258 L 17.609955 164.469116 " />
<path stroke-linejoin="round" stroke-linecap="round" stroke="rgb(0,0,255)" stroke-width="1.874998" fill="none" d="M 0.000000 750.000000 L 21.897800 0.000000 " />
<path stroke-linejoin="round" stroke-linecap="round" stroke="rgb(255,0,0)" stroke-width="3.749996" fill="none" d="M 17.155499 162.424118 L 17.379753 163.433258 " />
<path stroke-linejoin="round" stroke-linecap="round" stroke="rgb(0,0,255)" stroke-width="1.874998" fill="none" d="M 0.000000 750.000000 L 21.126755 0.000000 " />
<path stroke-linejoin="round" stroke-linecap="round" stroke="rgb(255,0,0)" stroke-width="3.749996" fill="none" d="M 16.619392 160.011612 L 17.155499 162.424118 " />
<path stroke-linejoin="round" stroke-linecap="round" stroke="rgb(0,0,255)" stroke-width="1.874998" fill="none" d="M 0.000000 750.000000 L 20.833344 0.000000 " />
<path stroke-linejoin="round" stroke-linecap="round" stroke="rgb(255,0,0)" stroke-width="3.749996" fill="none" d="M 16.414204 159.088348 L 16.619392 160.011612 " />
<path stroke-linejoin="round" stroke-linecap="round" stroke="rgb(0,0,255)" stroke-width="1.874998" fill="none" d="M 0.000000 750.000000 L 20.689667 0.000000 " />
<path stroke-linejoin="round" stroke-linecap="round" stroke="rgb(255,0,0)" stroke-width="3.749996" fill="none" d="M 16.313509 158.635132 L 16.414204 159.088348 " />
<path stroke-linejoin="round" stroke-linecap="round" stroke="rgb(0,0,255)" stroke-width="1.874998" fill="none" d="M 0.000000 750.000000 L 18.181824 0.000000 " />
<path stroke-linejoin="round" stroke-linecap="round" stroke="rgb(255,0,0)" stroke-width="3.749996" fill="none" d="M 14.767215 140.852631 L 16.313509 158.635132 " />
<path stroke-linejoin="round" stroke-linecap="round" stroke="rgb(0,0,255)" stroke-width="1.874998" fill="none" d="M 0.000000 750.000000 L 17.543859 0.000000 " />
<path stroke-linejoin="round" stroke-linecap="round" stroke="rgb(255,0,0)" stroke-width="3.749996" fill="none" d="M 14.358893 136.157028 L 14.767215 140.852631 " />
<path stroke-linejoin="round" stroke-linecap="round" stroke="rgb(0,0,255)" stroke-width="1.874998" fill="none" d="M 0.000000 750.000000 L 16.949146 0.000000 " />
<path stroke-linejoin="round" stroke-linecap="round" stroke="rgb(255,0,0)" stroke-width="3.749996" fill="none" d="M 13.972566 131.714172 L 14.358893 136.156982 " />
<path stroke-linejoin="round" stroke-linecap="round" stroke="rgb(0,0,255)" stroke-width="1.874998" fill="none" d="M 0.000000 750.000000 L 13.636373 0.000000 " />
<path stroke-linejoin="round" stroke-linecap="round" stroke="rgb(255,0,0)" stroke-width="3.749996" fill="none" d="M 11.713833 105.738846 L 13.972566 131.714172 " />
<path stroke-linejoin="round" stroke-linecap="round" stroke="rgb(0,0,255)" stroke-width="1.874998" fill="none" d="M 0.000000 750.000000 L 8.571424 0.000000 " />
<path stroke-linejoin="round" stroke-linecap="round" stroke="rgb(255,0,0)" stroke-width="3.749996" fill="none" d="M 7.868394 61.516106 L 11.713833 105.738846 " />
<path stroke-linejoin="round" stroke-linecap="round" stroke="rgb(0,0,255)" stroke-width="1.874998" fill="none" d="M 0.000000 750.000000 L 4.054047 0.000000 " />
<path stroke-linejoin="round" stroke-linecap="round" stroke="rgb(255,0,0)" stroke-width="3.749996" fill="none" d="M 3.965378 16.403988 L 7.868394 61.516106 " />
<path stroke-linejoin="round" stroke-linecap="round" stroke="rgb(0,0,255)" stroke-width="1.874998" fill="none" d="M 0.000000 750.000000 L 0.000000 0.000000 " />
<path stroke-linejoin="round" stroke-linecap="round" stroke="rgb(255,0,0)" stroke-width="3.749996" fill="none" d="M 0.000000 0.000000 L 3.965378 16.403988 " />
<circle cx="93.601406" cy="747.771397" r="3.749996" style="fill:rgb(0,127,0);stroke-width:1" /><circle cx="93.134031" cy="745.668188" r="3.749996" style="fill:rgb(0,127,0);stroke-width:1" /><circle cx="92.626400" cy="743.383840" r="3.749996" style="fill:rgb(0,127,0);stroke-width:1" /><circle cx="92.099905" cy="741.014645" r="3.749996" style="fill:rgb(0,127,0);stroke-width:1" /><circle cx="91.553494" cy="738.555819" r="3.749996" style="fill:rgb(0,127,0);stroke-width:1" /><circle cx="90.986028" cy="736.002155" r="3.749996" style="fill:rgb(0,127,0);stroke-width:1" /><circle cx="90.396233" cy="733.348064" r="3.749996" style="fill:rgb(0,127,0);stroke-width:1" /><circle cx="89.782767" cy="730.587512" r="3.749996" style="fill:rgb(0,127,0);stroke-width:1" /><circle cx="89.391813" cy="728.828251" r="3.749996" style="fill:rgb(0,127,0);stroke-width:1" /><circle cx="88.765405" cy="726.009339" r="3.749996" style="fill:rgb(0,127,0);stroke-width:1" /><circle cx="88.409498" cy="724.407770" r="3.749996" style="fill:rgb(0,127,0);stroke-width:1" /><circle cx="88.113628" cy="723.076388" r="3.749996" style="fill:rgb(0,127,0);stroke-width:1" /><circle cx="87.770842" cy="721.533783" r="3.749996" style="fill:rgb(0,127,0);stroke-width:1" /><circle cx="87.106615" cy="718.544841" r="3.749996" style="fill:rgb(0,127,0);stroke-width:1" /><circle cx="86.415298" cy="715.433881" r="3.749996" style="fill:rgb(0,127,0);stroke-width:1" /><circle cx="85.695170" cy="712.193303" r="3.749996" style="fill:rgb(0,127,0);stroke-width:1" /><circle cx="85.419148" cy="710.951239" r="3.749996" style="fill:rgb(0,127,0);stroke-width:1" /><circle cx="84.686995" cy="707.656503" r="3.749996" style="fill:rgb(0,127,0);stroke-width:1" /><circle cx="84.160969" cy="705.289476" r="3.749996" style="fill:rgb(0,127,0);stroke-width:1" /><circle cx="83.342761" cy="701.607451" r="3.749996" style="fill:rgb(0,127,0);stroke-width:1" /><circle cx="82.487315" cy="697.758034" r="3.749996" style="fill:rgb(0,127,0);stroke-width:1" /><circle cx="82.297705" cy="696.904711" r="3.749996" style="fill:rgb(0,127,0);stroke-width:1" /><circle cx="81.429809" cy="692.999125" r="3.749996" style="fill:rgb(0,127,0);stroke-width:1" /><circle cx="80.522060" cy="688.914299" r="3.749996" style="fill:rgb(0,127,0);stroke-width:1" /><circle cx="80.399059" cy="688.360736" r="3.749996" style="fill:rgb(0,127,0);stroke-width:1" /><circle cx="79.571687" cy="684.637539" r="3.749996" style="fill:rgb(0,127,0);stroke-width:1" /><circle cx="79.479709" cy="684.223674" r="3.749996" style="fill:rgb(0,127,0);stroke-width:1" /><circle cx="77.014312" cy="655.871406" r="3.749996" style="fill:rgb(0,127,0);stroke-width:1" /><circle cx="75.952962" cy="643.665858" r="3.749996" style="fill:rgb(0,127,0);stroke-width:1" /><circle cx="74.054137" cy="621.829391" r="3.749996" style="fill:rgb(0,127,0);stroke-width:1" /><circle cx="73.255554" cy="612.645820" r="3.749996" style="fill:rgb(0,127,0);stroke-width:1" /><circle cx="71.517751" cy="592.660949" r="3.749996" style="fill:rgb(0,127,0);stroke-width:1" /><circle cx="70.532843" cy="581.334539" r="3.749996" style="fill:rgb(0,127,0);stroke-width:1" /><circle cx="67.784429" cy="549.727835" r="3.749996" style="fill:rgb(0,127,0);stroke-width:1" /><circle cx="66.377744" cy="533.550873" r="3.749996" style="fill:rgb(0,127,0);stroke-width:1" /><circle cx="65.009974" cy="517.821550" r="3.749996" style="fill:rgb(0,127,0);stroke-width:1" /><circle cx="62.209077" cy="485.611394" r="3.749996" style="fill:rgb(0,127,0);stroke-width:1" /><circle cx="59.381403" cy="453.093007" r="3.749996" style="fill:rgb(0,127,0);stroke-width:1" /><circle cx="56.526527" cy="420.261942" r="3.749996" style="fill:rgb(0,127,0);stroke-width:1" /><circle cx="55.820301" cy="412.140325" r="3.749996" style="fill:rgb(0,127,0);stroke-width:1" /><circle cx="54.332346" cy="395.028748" r="3.749996" style="fill:rgb(0,127,0);stroke-width:1" /><circle cx="53.798296" cy="392.625622" r="3.749996" style="fill:rgb(0,127,0);stroke-width:1" /><circle cx="51.102072" cy="380.492628" r="3.749996" style="fill:rgb(0,127,0);stroke-width:1" /><circle cx="50.440572" cy="377.515823" r="3.749996" style="fill:rgb(0,127,0);stroke-width:1" /><circle cx="49.795970" cy="374.615058" r="3.749996" style="fill:rgb(0,127,0);stroke-width:1" /><circle cx="49.167618" cy="371.787563" r="3.749996" style="fill:rgb(0,127,0);stroke-width:1" /><circle cx="48.554935" cy="369.030476" r="3.749996" style="fill:rgb(0,127,0);stroke-width:1" /><circle cx="47.957338" cy="366.341293" r="3.749996" style="fill:rgb(0,127,0);stroke-width:1" /><circle cx="45.242764" cy="354.125753" r="3.749996" style="fill:rgb(0,127,0);stroke-width:1" /><circle cx="44.680752" cy="351.596653" r="3.749996" style="fill:rgb(0,127,0);stroke-width:1" /><circle cx="44.132531" cy="349.129602" r="3.749996" style="fill:rgb(0,127,0);stroke-width:1" /><circle cx="43.597586" cy="346.722364" r="3.749996" style="fill:rgb(0,127,0);stroke-width:1" /><circle cx="42.958528" cy="343.846634" r="3.749996" style="fill:rgb(0,127,0);stroke-width:1" /><circle cx="39.964445" cy="330.373317" r="3.749996" style="fill:rgb(0,127,0);stroke-width:1" /><circle cx="36.827311" cy="316.256180" r="3.749996" style="fill:rgb(0,127,0);stroke-width:1" /><circle cx="36.331326" cy="314.024225" r="3.749996" style="fill:rgb(0,127,0);stroke-width:1" /><circle cx="35.848506" cy="311.851501" r="3.749996" style="fill:rgb(0,127,0);stroke-width:1" /><circle cx="35.378359" cy="309.735909" r="3.749996" style="fill:rgb(0,127,0);stroke-width:1" /><circle cx="33.614963" cy="301.800549" r="3.749996" style="fill:rgb(0,127,0);stroke-width:1" /><circle cx="30.546069" cy="287.990570" r="3.749996" style="fill:rgb(0,127,0);stroke-width:1" /><circle cx="26.917376" cy="246.260494" r="3.749996" style="fill:rgb(0,127,0);stroke-width:1" /><circle cx="23.236826" cy="203.934342" r="3.749996" style="fill:rgb(0,127,0);stroke-width:1" /><circle cx="21.216251" cy="180.697516" r="3.749996" style="fill:rgb(0,127,0);stroke-width:1" /><circle cx="17.846324" cy="165.532842" r="3.749996" style="fill:rgb(0,127,0);stroke-width:1" /><circle cx="17.609954" cy="164.469123" r="3.749996" style="fill:rgb(0,127,0);stroke-width:1" /><circle cx="17.379753" cy="163.433254" r="3.749996" style="fill:rgb(0,127,0);stroke-width:1" /><circle cx="17.155498" cy="162.424117" r="3.749996" style="fill:rgb(0,127,0);stroke-width:1" /><circle cx="16.619392" cy="160.011604" r="3.749996" style="fill:rgb(0,127,0);stroke-width:1" /><circle cx="16.414203" cy="159.088343" r="3.749996" style="fill:rgb(0,127,0);stroke-width:1" /><circle cx="16.313508" cy="158.635139" r="3.749996" style="fill:rgb(0,127,0);stroke-width:1" /><circle cx="14.767215" cy="140.852630" r="3.749996" style="fill:rgb(0,127,0);stroke-width:1" /><circle cx="14.358893" cy="136.157021" r="3.749996" style="fill:rgb(0,127,0);stroke-width:1" /><circle cx="13.972566" cy="131.714165" r="3.749996" style="fill:rgb(0,127,0);stroke-width:1" /><circle cx="11.713833" cy="105.738848" r="3.749996" style="fill:rgb(0,127,0);stroke-width:1" /><circle cx="7.868394" cy="61.516106" r="3.749996" style="fill:rgb(0,127,0);stroke-width:1" /><circle cx="3.965378" cy="16.403988" r="3.749996" style="fill:rgb(0,127,0);stroke-width:1" /><circle cx="750.000000" cy="750.000000" r="3.749996" style="fill:rgb(0,127,0);stroke-width:1" /><path stroke-linejoin="round" stroke-linecap="round" stroke="rgb(255,255,255)" stroke-width="3.749996" fill="none" d="M 0.000000 750.000000 L 750.000000 750.000000 M 0.000000 750.000000 L 0.000000 0.000000 " />

</svg>