<svg xmlns="http://www.w3.org/2000/svg" version="1.1" width = "750" height = "750" viewBox = "0 0 750 750"  shape-rendering="crispEdges">
<path stroke-linejoin="round" stroke-linecap="round" stroke="rgb(255,255,0)" stroke-width="3.749996" fill="none" d="M 107.142853 750.000000 L 0.000000 0.000000 " />
<path stroke-linejoin="round" stroke-linecap="round" stroke="rgb(63,63,63)" stroke-width="3.749996" fill="none" d="M 0.000000 0.000000 L 750.000000 750.000000 M 107.142853 750.000000 L 49.450546 0.000000 " />
<path stroke-linejoin="round" stroke-linecap="round" stroke="rgb(191,191,191)" stroke-width="3.749996" fill="none" d="M 0.000000 642.857178 L 107.142853 750.000000 M 0.000000 0.000000 L 57.692303 750.000000 " />
<path stroke-linejoin="round" stroke-linecap="round" stroke="rgb(0,0,255)" stroke-width="1.874998" fill="none" d="M 0.000000 750.000000 L 750.000000 733.333313 " />
<path stroke-linejoin="round" stroke-linecap="round" stroke="rgb(255,0,0)" stroke-width="3.749996" fill="none" d="M 106.960014 747.623108 L 107.142853 750.000000 " />
<path stroke-linejoin="round" stroke-linecap="round" stroke="rgb(0,0,255)" stroke-width="1.874998" fill="none" d="M 0.000000 750.000000 L 750.000000 717.391296 " />
<path stroke-linejoin="round" stroke-linecap="round" stroke="rgb(255,0,0)" stroke-width="3.749996" fill="none" d="M 104.781212 745.444275 L 106.960014 747.623108 " />
<path stroke-linejoin="round" stroke-linecap="round" stroke="rgb(0,0,255)" stroke-width="1.874998" fill="none" d="M 0.000000 750.000000 L 750.000000 715.909058 " />
<path stroke-linejoin="round" stroke-linecap="round" stroke="rgb(255,0,0)" stroke-width="3.749996" fill="none" d="M 104.583130 745.246216 L 104.781212 745.444275 " />
<path stroke-linejoin="round" stroke-linecap="round" stroke="rgb(0,0,255)" stroke-width="1.874998" fill="none" d="M 0.000000 750.000000 L 750.000000 697.674377 " />
<path stroke-linejoin="round" stroke-linecap="round" stroke="rgb(255,0,0)" stroke-width="3.749996" fill="none" d="M 102.206223 742.869324 L 104.583130 745.246216 " />
<path stroke-linejoin="round" stroke-linecap="round" stroke="rgb(0,0,255)" stroke-width="1.874998" fill="none" d="M 0.000000 750.000000 L 750.000000 678.571411 " />
<path stroke-linejoin="round" stroke-linecap="round" stroke="rgb(255,0,0)" stroke-width="3.749996" fill="none" d="M 99.829361 740.492493 L 102.206223 742.869324 " />
<path stroke-linejoin="round" stroke-linecap="round" stroke="rgb(0,0,255)" stroke-width="1.874998" fill="none" d="M 0.000000 750.000000 L 750.000000 658.536560 " />
<path stroke-linejoin="round" stroke-linecap="round" stroke="rgb(255,0,0)" stroke-width="3.749996" fill="none" d="M 97.452477 738.115601 L 99.829361 740.492493 " />
<path stroke-linejoin="round" stroke-linecap="round" stroke="rgb(0,0,255)" stroke-width="1.874998" fill="none" d="M 0.000000 750.000000 L 750.000000 642.857178 " />
<path stroke-linejoin="round" stroke-linecap="round" stroke="rgb(255,0,0)" stroke-width="3.749996" fill="none" d="M 95.669815 736.332886 L 97.452477 738.115601 " />
<path stroke-linejoin="round" stroke-linecap="round" stroke="rgb(0,0,255)" stroke-width="1.874998" fill="none" d="M 0.000000 750.000000 L 750.000000 637.500000 " />
<path stroke-linejoin="round" stroke-linecap="round" stroke="rgb(255,0,0)" stroke-width="3.749996" fill="none" d="M 95.075592 735.738647 L 95.669815 736.332886 " />
<path stroke-linejoin="round" stroke-linecap="round" stroke="rgb(0,0,255)" stroke-width="1.874998" fill="none" d="M 0.000000 750.000000 L 750.000000 621.951233 " />
<path stroke-linejoin="round" stroke-linecap="round" stroke="rgb(255,0,0)" stroke-width="3.749996" fill="none" d="M 93.391968 734.055054 L 95.075592 735.738647 " />
<path stroke-linejoin="round" stroke-linecap="round" stroke="rgb(0,0,255)" stroke-width="1.874998" fill="none" d="M 0.000000 750.000000 L 750.000000 615.384644 " />
<path stroke-linejoin="round" stroke-linecap="round" stroke="rgb(255,0,0)" stroke-width="3.749996" fill="none" d="M 92.698708 733.361755 L 93.391968 734.055054 " />
<path stroke-linejoin="round" stroke-linecap="round" stroke="rgb(0,0,255)" stroke-width="1.874998" fill="none" d="M 0.000000 750.000000 L 750.000000 592.105225 " />
<path stroke-linejoin="round" stroke-linecap="round" stroke="rgb(255,0,0)" stroke-width="3.749996" fill="none" d="M 90.321800 730.984863 L 92.698708 733.361755 " />
<path stroke-linejoin="round" stroke-linecap="round" stroke="rgb(0,0,255)" stroke-width="1.874998" fill="none" d="M 0.000000 750.000000 L 750.000000 576.923096 " />
<path stroke-linejoin="round" stroke-linecap="round" stroke="rgb(255,0,0)" stroke-width="3.749996" fill="none" d="M 88.836258 729.499329 L 90.321800 730.984863 " />
<path stroke-linejoin="round" stroke-linecap="round" stroke="rgb(0,0,255)" stroke-width="1.874998" fill="none" d="M 0.000000 750.000000 L 750.000000 552.631592 " />
<path stroke-linejoin="round" stroke-linecap="round" stroke="rgb(255,0,0)" stroke-width="3.749996" fill="none" d="M 86.558418 727.221497 L 88.836258 729.499329 " />
<path stroke-linejoin="round" stroke-linecap="round" stroke="rgb(0,0,255)" stroke-width="1.874998" fill="none" d="M 0.000000 750.000000 L 750.000000 538.461487 " />
<path stroke-linejoin="round" stroke-linecap="round" stroke="rgb(255,0,0)" stroke-width="3.749996" fill="none" d="M 85.282806 725.945862 L 86.558418 727.221497 " />
<path stroke-linejoin="round" stroke-linecap="round" stroke="rgb(0,0,255)" stroke-width="1.874998" fill="none" d="M 0.000000 750.000000 L 750.000000 527.027039 " />
<path stroke-linejoin="round" stroke-linecap="round" stroke="rgb(255,0,0)" stroke-width="3.749996" fill="none" d="M 84.280548 724.943604 L 85.282806 725.945862 " />
<path stroke-linejoin="round" stroke-linecap="round" stroke="rgb(0,0,255)" stroke-width="1.874998" fill="none" d="M 0.000000 750.000000 L 750.000000 499.999969 " />
<path stroke-linejoin="round" stroke-linecap="round" stroke="rgb(255,0,0)" stroke-width="3.749996" fill="none" d="M 82.002708 722.665771 L 84.280571 724.943604 " />
<path stroke-linejoin="round" stroke-linecap="round" stroke="rgb(0,0,255)" stroke-width="1.874998" fill="none" d="M 0.000000 750.000000 L 750.000000 471.428558 " />
<path stroke-linejoin="round" stroke-linecap="round" stroke="rgb(255,0,0)" stroke-width="3.749996" fill="none" d="M 79.724861 720.387939 L 82.002708 722.665771 " />
<path stroke-linejoin="round" stroke-linecap="round" stroke="rgb(0,0,255)" stroke-width="1.874998" fill="none" d="M 0.000000 750.000000 L 750.000000 441.176453 " />
<path stroke-linejoin="round" stroke-linecap="round" stroke="rgb(255,0,0)" stroke-width="3.749996" fill="none" d="M 77.446999 718.110046 L 79.724861 720.387939 " />
<path stroke-linejoin="round" stroke-linecap="round" stroke="rgb(0,0,255)" stroke-width="1.874998" fill="none" d="M 0.000000 750.000000 L 750.000000 428.571411 " />
<path stroke-linejoin="round" stroke-linecap="round" stroke="rgb(255,0,0)" stroke-width="3.749996" fill="none" d="M 76.535851 717.198914 L 77.446999 718.110046 " />
<path stroke-linejoin="round" stroke-linecap="round" stroke="rgb(0,0,255)" stroke-width="1.874998" fill="none" d="M 0.000000 750.000000 L 750.000000 409.090881 " />
<path stroke-linejoin="round" stroke-linecap="round" stroke="rgb(255,0,0)" stroke-width="3.749996" fill="none" d="M 75.169151 715.832214 L 76.535851 717.198914 " />
<path stroke-linejoin="round" stroke-linecap="round" stroke="rgb(0,0,255)" stroke-width="1.874998" fill="none" d="M 0.000000 750.000000 L 750.000000 375.000000 " />
<path stroke-linejoin="round" stroke-linecap="round" stroke="rgb(255,0,0)" stroke-width="3.749996" fill="none" d="M 72.891289 713.554321 L 75.169151 715.832214 " />
<path stroke-linejoin="round" stroke-linecap="round" stroke="rgb(0,0,255)" stroke-width="1.874998" fill="none" d="M 0.000000 750.000000 L 750.000000 363.636383 " />
<path stroke-linejoin="round" stroke-linecap="round" stroke="rgb(255,0,0)" stroke-width="3.749996" fill="none" d="M 72.162399 712.825439 L 72.891289 713.554321 " />
<path stroke-linejoin="round" stroke-linecap="round" stroke="rgb(0,0,255)" stroke-width="1.874998" fill="none" d="M 0.000000 750.000000 L 750.000000 338.709656 " />
<path stroke-linejoin="round" stroke-linecap="round" stroke="rgb(255,0,0)" stroke-width="3.749996" fill="none" d="M 70.613464 711.276489 L 72.162399 712.825439 " />
<path stroke-linejoin="round" stroke-linecap="round" stroke="rgb(0,0,255)" stroke-width="1.874998" fill="none" d="M 0.000000 750.000000 L 750.000000 328.125000 " />
<path stroke-linejoin="round" stroke-linecap="round" stroke="rgb(255,0,0)" stroke-width="3.749996" fill="none" d="M 69.975662 710.638672 L 70.613464 711.276489 " />
<path stroke-linejoin="round" stroke-linecap="round" stroke="rgb(0,0,255)" stroke-width="1.874998" fill="none" d="M 0.000000 750.000000 L 750.000000 290.322571 " />
<path stroke-linejoin="round" stroke-linecap="round" stroke="rgb(255,0,0)" stroke-width="3.749996" fill="none" d="M 67.788918 708.451965 L 69.975662 710.638672 " />
<path stroke-linejoin="round" stroke-linecap="round" stroke="rgb(0,0,255)" stroke-width="1.874998" fill="none" d="M 0.000000 750.000000 L 750.000000 249.999985 " />
<path stroke-linejoin="round" stroke-linecap="round" stroke="rgb(255,0,0)" stroke-width="3.749996" fill="none" d="M 65.602158 706.265259 L 67.788918 708.451965 " />
<path stroke-linejoin="round" stroke-linecap="round" stroke="rgb(0,0,255)" stroke-width="1.874998" fill="none" d="M 0.000000 750.000000 L 750.000000 206.896576 " />
<path stroke-linejoin="round" stroke-linecap="round" stroke="rgb(255,0,0)" stroke-width="3.749996" fill="none" d="M 63.415447 704.078491 L 65.602158 706.265259 " />
<path stroke-linejoin="round" stroke-linecap="round" stroke="rgb(0,0,255)" stroke-width="1.874998" fill="none" d="M 0.000000 750.000000 L 750.000000 160.714294 " />
<path stroke-linejoin="round" stroke-linecap="round" stroke="rgb(255,0,0)" stroke-width="3.749996" fill="none" d="M 61.228706 701.891724 L 63.415447 704.078491 " />
<path stroke-linejoin="round" stroke-linecap="round" stroke="rgb(0,0,255)" stroke-width="1.874998" fill="none" d="M 0.000000 750.000000 L 750.000000 155.172409 " />
<path stroke-linejoin="round" stroke-linecap="round" stroke="rgb(255,0,0)" stroke-width="3.749996" fill="none" d="M 60.976379 701.639404 L 61.228706 701.891724 " />
<path stroke-linejoin="round" stroke-linecap="round" stroke="rgb(0,0,255)" stroke-width="1.874998" fill="none" d="M 0.000000 750.000000 L 750.000000 111.111092 " />
<path stroke-linejoin="round" stroke-linecap="round" stroke="rgb(255,0,0)" stroke-width="3.749996" fill="none" d="M 59.041969 699.705017 L 60.976379 701.639404 " />
<path stroke-linejoin="round" stroke-linecap="round" stroke="rgb(0,0,255)" stroke-width="1.874998" fill="none" d="M 0.000000 750.000000 L 750.000000 57.692303 " />
<path stroke-linejoin="round" stroke-linecap="round" stroke="rgb(255,0,0)" stroke-width="3.749996" fill="none" d="M 56.855232 697.518250 L 59.041969 699.705017 " />
<path stroke-linejoin="round" stroke-linecap="round" stroke="rgb(0,0,255)" stroke-width="1.874998" fill="none" d="M 0.000000 750.000000 L 750.000000 55.555569 " />
<path stroke-linejoin="round" stroke-linecap="round" stroke="rgb(255,0,0)" stroke-width="3.749996" fill="none" d="M 56.771122 697.434143 L 56.855232 697.518250 " />
<path stroke-linejoin="round" stroke-linecap="round" stroke="rgb(0,0,255)" stroke-width="1.874998" fill="none" d="M 0.000000 750.000000 L 750.000000 0.000000 " />
<path stroke-linejoin="round" stroke-linecap="round" stroke="rgb(255,0,0)" stroke-width="3.749996" fill="none" d="M 54.668495 695.331482 L 56.771122 697.434143 " />
<path stroke-linejoin="round" stroke-linecap="round" stroke="rgb(0,0,255)" stroke-width="1.874998" fill="none" d="M 0.000000 750.000000 L 692.307678 0.000000 " />
<path stroke-linejoin="round" stroke-linecap="round" stroke="rgb(255,0,0)" stroke-width="3.749996" fill="none" d="M 53.254433 692.307678 L 54.668495 695.331482 " />
<path stroke-linejoin="round" stroke-linecap="round" stroke="rgb(0,0,255)" stroke-width="1.874998" fill="none" d="M 0.000000 750.000000 L 638.888916 0.000000 " />
<path stroke-linejoin="round" stroke-linecap="round" stroke="rgb(255,0,0)" stroke-width="3.749996" fill="none" d="M 52.914104 687.883423 L 53.254433 692.307678 " />
<path stroke-linejoin="round" stroke-linecap="round" stroke="rgb(0,0,255)" stroke-width="1.874998" fill="none" d="M 0.000000 750.000000 L 594.827576 0.000000 " />
<path stroke-linejoin="round" stroke-linecap="round" stroke="rgb(255,0,0)" stroke-width="3.749996" fill="none" d="M 52.591457 683.689026 L 52.914104 687.883423 " />
<path stroke-linejoin="round" stroke-linecap="round" stroke="rgb(0,0,255)" stroke-width="1.874998" fill="none" d="M 0.000000 750.000000 L 550.000000 0.000000 " />
<path stroke-linejoin="round" stroke-linecap="round" stroke="rgb(255,0,0)" stroke-width="3.749996" fill="none" d="M 52.215187 678.797424 L 52.591457 683.689026 " />
<path stroke-linejoin="round" stroke-linecap="round" stroke="rgb(0,0,255)" stroke-width="1.874998" fill="none" d="M 0.000000 750.000000 L 515.625000 0.000000 " />
<path stroke-linejoin="round" stroke-linecap="round" stroke="rgb(255,0,0)" stroke-width="3.749996" fill="none" d="M 51.886795 674.528320 L 52.215187 678.797424 " />
<path stroke-linejoin="round" stroke-linecap="round" stroke="rgb(0,0,255)" stroke-width="1.874998" fill="none" d="M 0.000000 750.000000 L 477.272705 0.000000 " />
<path stroke-linejoin="round" stroke-linecap="round" stroke="rgb(255,0,0)" stroke-width="3.749996" fill="none" d="M 51.470585 669.117615 L 51.886795 674.528320 " />
<path stroke-linejoin="round" stroke-linecap="round" stroke="rgb(0,0,255)" stroke-width="1.874998" fill="none" d="M 0.000000 750.000000 L 441.176453 0.000000 " />
<path stroke-linejoin="round" stroke-linecap="round" stroke="rgb(255,0,0)" stroke-width="3.749996" fill="none" d="M 51.020397 663.265320 L 51.470585 669.117615 " />
<path stroke-linejoin="round" stroke-linecap="round" stroke="rgb(0,0,255)" stroke-width="1.874998" fill="none" d="M 0.000000 750.000000 L 416.666687 0.000000 " />
<path stroke-linejoin="round" stroke-linecap="round" stroke="rgb(255,0,0)" stroke-width="3.749996" fill="none" d="M 50.675667 658.783813 L 51.020397 663.265320 " />
<path stroke-linejoin="round" stroke-linecap="round" stroke="rgb(0,0,255)" stroke-width="1.874998" fill="none" d="M 0.000000 750.000000 L 394.736847 0.000000 " />
<path stroke-linejoin="round" stroke-linecap="round" stroke="rgb(255,0,0)" stroke-width="3.749996" fill="none" d="M 50.335564 654.362427 L 50.675667 658.783813 " />
<path stroke-linejoin="round" stroke-linecap="round" stroke="rgb(0,0,255)" stroke-width="1.874998" fill="none" d="M 0.000000 750.000000 L 375.000000 0.000000 " />
<path stroke-linejoin="round" stroke-linecap="round" stroke="rgb(255,0,0)" stroke-width="3.749996" fill="none" d="M 49.999996 650.000000 L 50.335564 654.362427 " />
<path stroke-linejoin="round" stroke-linecap="round" stroke="rgb(0,0,255)" stroke-width="1.874998" fill="none" d="M 0.000000 750.000000 L 357.142883 0.000000 " />
<path stroke-linejoin="round" stroke-linecap="round" stroke="rgb(255,0,0)" stroke-width="3.749996" fill="none" d="M 49.668877 645.695374 L 49.999996 650.000000 " />
<path stroke-linejoin="round" stroke-linecap="round" stroke="rgb(0,0,255)" stroke-width="1.874998" fill="none" d="M 0.000000 750.000000 L 331.395355 0.000000 " />
<path stroke-linejoin="round" stroke-linecap="round" stroke="rgb(255,0,0)" stroke-width="3.749996" fill="none" d="M 49.137936 638.793091 L 49.668877 645.695374 " />
<path stroke-linejoin="round" stroke-linecap="round" stroke="rgb(0,0,255)" stroke-width="1.874998" fill="none" d="M 0.000000 750.000000 L 306.818176 0.000000 " />
<path stroke-linejoin="round" stroke-linecap="round" stroke="rgb(255,0,0)" stroke-width="3.749996" fill="none" d="M 48.561150 631.294983 L 49.137936 638.793091 " />
<path stroke-linejoin="round" stroke-linecap="round" stroke="rgb(0,0,255)" stroke-width="1.874998" fill="none" d="M 0.000000 750.000000 L 293.478271 0.000000 " />
<path stroke-linejoin="round" stroke-linecap="round" stroke="rgb(255,0,0)" stroke-width="3.749996" fill="none" d="M 48.214272 626.785767 L 48.561127 631.294983 " />
<path stroke-linejoin="round" stroke-linecap="round" stroke="rgb(0,0,255)" stroke-width="1.874998" fill="none" d="M 0.000000 750.000000 L 281.250000 0.000000 " />
<path stroke-linejoin="round" stroke-linecap="round" stroke="rgb(255,0,0)" stroke-width="3.749996" fill="none" d="M 47.872334 622.340454 L 48.214272 626.785767 " />
<path stroke-linejoin="round" stroke-linecap="round" stroke="rgb(0,0,255)" stroke-width="1.874998" fill="none" d="M 0.000000 750.000000 L 260.204102 0.000000 " />
<path stroke-linejoin="round" stroke-linecap="round" stroke="rgb(255,0,0)" stroke-width="3.749996" fill="none" d="M 47.222214 613.888916 L 47.872334 622.340454 " />
<path stroke-linejoin="round" stroke-linecap="round" stroke="rgb(0,0,255)" stroke-width="1.874998" fill="none" d="M 0.000000 750.000000 L 250.000000 0.000000 " />
<path stroke-linejoin="round" stroke-linecap="round" stroke="rgb(255,0,0)" stroke-width="3.749996" fill="none" d="M 46.874977 609.375061 L 47.222214 613.888916 " />
<path stroke-linejoin="round" stroke-linecap="round" stroke="rgb(0,0,255)" stroke-width="1.874998" fill="none" d="M 0.000000 750.000000 L 240.566025 0.000000 " />
<path stroke-linejoin="round" stroke-linecap="round" stroke="rgb(255,0,0)" stroke-width="3.749996" fill="none" d="M 46.532841 604.927063 L 46.874977 609.375061 " />
<path stroke-linejoin="round" stroke-linecap="round" stroke="rgb(0,0,255)" stroke-width="1.874998" fill="none" d="M 0.000000 750.000000 L 231.818192 0.000000 " />
<path stroke-linejoin="round" stroke-linecap="round" stroke="rgb(255,0,0)" stroke-width="3.749996" fill="none" d="M 46.195641 600.543518 L 46.532841 604.927063 " />
<path stroke-linejoin="round" stroke-linecap="round" stroke="rgb(0,0,255)" stroke-width="1.874998" fill="none" d="M 0.000000 750.000000 L 223.684204 0.000000 " />
<path stroke-linejoin="round" stroke-linecap="round" stroke="rgb(255,0,0)" stroke-width="3.749996" fill="none" d="M 45.863293 596.223083 L 46.195641 600.543518 " />
<path stroke-linejoin="round" stroke-linecap="round" stroke="rgb(0,0,255)" stroke-width="1.874998" fill="none" d="M 0.000000 750.000000 L 206.896545 0.000000 " />
<path stroke-linejoin="round" stroke-linecap="round" stroke="rgb(255,0,0)" stroke-width="3.749996" fill="none" d="M 45.112766 586.466187 L 45.863293 596.223083 " />
<path stroke-linejoin="round" stroke-linecap="round" stroke="rgb(0,0,255)" stroke-width="1.874998" fill="none" d="M 0.000000 750.000000 L 200.000015 0.000000 " />
<path stroke-linejoin="round" stroke-linecap="round" stroke="rgb(255,0,0)" stroke-width="3.749996" fill="none" d="M 44.776104 582.089600 L 45.112766 586.466187 " />
<path stroke-linejoin="round" stroke-linecap="round" stroke="rgb(0,0,255)" stroke-width="1.874998" fill="none" d="M 0.000000 750.000000 L 184.426239 0.000000 " />
<path stroke-linejoin="round" stroke-linecap="round" stroke="rgb(255,0,0)" stroke-width="3.749996" fill="none" d="M 43.945312 571.289124 L 44.776104 582.089600 " />
<path stroke-linejoin="round" stroke-linecap="round" stroke="rgb(0,0,255)" stroke-width="1.874998" fill="none" d="M 0.000000 750.000000 L 178.571442 0.000000 " />
<path stroke-linejoin="round" stroke-linecap="round" stroke="rgb(255,0,0)" stroke-width="3.749996" fill="none" d="M 43.604649 566.860535 L 43.945312 571.289124 " />
<path stroke-linejoin="round" stroke-linecap="round" stroke="rgb(0,0,255)" stroke-width="1.874998" fill="none" d="M 0.000000 750.000000 L 173.076920 0.000000 " />
<path stroke-linejoin="round" stroke-linecap="round" stroke="rgb(255,0,0)" stroke-width="3.749996" fill="none" d="M 43.269218 562.500061 L 43.604649 566.860535 " />
<path stroke-linejoin="round" stroke-linecap="round" stroke="rgb(0,0,255)" stroke-width="1.874998" fill="none" d="M 0.000000 750.000000 L 164.062500 0.000000 " />
<path stroke-linejoin="round" stroke-linecap="round" stroke="rgb(255,0,0)" stroke-width="3.749996" fill="none" d="M 42.682907 554.878113 L 43.269218 562.500061 " />
<path stroke-linejoin="round" stroke-linecap="round" stroke="rgb(0,0,255)" stroke-width="1.874998" fill="none" d="M 0.000000 750.000000 L 159.090897 0.000000 " />
<path stroke-linejoin="round" stroke-linecap="round" stroke="rgb(255,0,0)" stroke-width="3.749996" fill="none" d="M 42.338692 550.403259 L 42.682907 554.878113 " />
<path stroke-linejoin="round" stroke-linecap="round" stroke="rgb(0,0,255)" stroke-width="1.874998" fill="none" d="M 0.000000 750.000000 L 154.411774 0.000000 " />
<path stroke-linejoin="round" stroke-linecap="round" stroke="rgb(255,0,0)" stroke-width="3.749996" fill="none" d="M 41.999996 546.000061 L 42.338692 550.403259 " />
<path stroke-linejoin="round" stroke-linecap="round" stroke="rgb(0,0,255)" stroke-width="1.874998" fill="none" d="M 0.000000 750.000000 L 149.999985 0.000000 " />
<path stroke-linejoin="round" stroke-linecap="round" stroke="rgb(255,0,0)" stroke-width="3.749996" fill="none" d="M 41.666664 541.666748 L 41.999996 546.000061 " />
<path stroke-linejoin="round" stroke-linecap="round" stroke="rgb(0,0,255)" stroke-width="1.874998" fill="none" d="M 0.000000 750.000000 L 145.833328 0.000000 " />
<path stroke-linejoin="round" stroke-linecap="round" stroke="rgb(255,0,0)" stroke-width="3.749996" fill="none" d="M 41.338562 537.401611 L 41.666664 541.666748 " />
<path stroke-linejoin="round" stroke-linecap="round" stroke="rgb(0,0,255)" stroke-width="1.874998" fill="none" d="M 0.000000 750.000000 L 141.891891 0.000000 " />
<path stroke-linejoin="round" stroke-linecap="round" stroke="rgb(255,0,0)" stroke-width="3.749996" fill="none" d="M 41.015625 533.203186 L 41.338562 537.401611 " />
<path stroke-linejoin="round" stroke-linecap="round" stroke="rgb(0,0,255)" stroke-width="1.874998" fill="none" d="M 0.000000 750.000000 L 130.000015 0.000000 " />
<path stroke-linejoin="round" stroke-linecap="round" stroke="rgb(255,0,0)" stroke-width="3.749996" fill="none" d="M 39.959015 519.467285 L 41.015625 533.203186 " />
<path stroke-linejoin="round" stroke-linecap="round" stroke="rgb(0,0,255)" stroke-width="1.874998" fill="none" d="M 0.000000 750.000000 L 105.882347 0.000000 " />
<path stroke-linejoin="round" stroke-linecap="round" stroke="rgb(255,0,0)" stroke-width="3.749996" fill="none" d="M 37.344395 485.477234 L 39.959015 519.467285 " />
<path stroke-linejoin="round" stroke-linecap="round" stroke="rgb(0,0,255)" stroke-width="1.874998" fill="none" d="M 0.000000 750.000000 L 102.631577 0.000000 " />
<path stroke-linejoin="round" stroke-linecap="round" stroke="rgb(255,0,0)" stroke-width="3.749996" fill="none" d="M 36.931805 480.113708 L 37.344395 485.477234 " />
<path stroke-linejoin="round" stroke-linecap="round" stroke="rgb(0,0,255)" stroke-width="1.874998" fill="none" d="M 0.000000 750.000000 L 85.714279 0.000000 " />
<path stroke-linejoin="round" stroke-linecap="round" stroke="rgb(255,0,0)" stroke-width="3.749996" fill="none" d="M 34.482746 448.275940 L 36.931805 480.113770 " />
<path stroke-linejoin="round" stroke-linecap="round" stroke="rgb(0,0,255)" stroke-width="1.874998" fill="none" d="M 0.000000 750.000000 L 84.112152 0.000000 " />
<path stroke-linejoin="round" stroke-linecap="round" stroke="rgb(255,0,0)" stroke-width="3.749996" fill="none" d="M 34.220516 444.867035 L 34.482746 448.275940 " />
<path stroke-linejoin="round" stroke-linecap="round" stroke="rgb(0,0,255)" stroke-width="1.874998" fill="none" d="M 0.000000 750.000000 L 80.097084 0.000000 " />
<path stroke-linejoin="round" stroke-linecap="round" stroke="rgb(255,0,0)" stroke-width="3.749996" fill="none" d="M 33.536575 435.975739 L 34.220516 444.867035 " />
<path stroke-linejoin="round" stroke-linecap="round" stroke="rgb(0,0,255)" stroke-width="1.874998" fill="none" d="M 0.000000 750.000000 L 79.646004 0.000000 " />
<path stroke-linejoin="round" stroke-linecap="round" stroke="rgb(255,0,0)" stroke-width="3.749996" fill="none" d="M 33.457226 434.944366 L 33.536575 435.975739 " />
<path stroke-linejoin="round" stroke-linecap="round" stroke="rgb(0,0,255)" stroke-width="1.874998" fill="none" d="M 0.000000 750.000000 L 67.073174 0.000000 " />
<path stroke-linejoin="round" stroke-linecap="round" stroke="rgb(255,0,0)" stroke-width="3.749996" fill="none" d="M 31.015032 403.195648 L 33.457226 434.944366 " />
<path stroke-linejoin="round" stroke-linecap="round" stroke="rgb(0,0,255)" stroke-width="1.874998" fill="none" d="M 0.000000 750.000000 L 66.000000 0.000000 " />
<path stroke-linejoin="round" stroke-linecap="round" stroke="rgb(255,0,0)" stroke-width="3.749996" fill="none" d="M 30.783579 400.186707 L 31.015032 403.195618 " />
<path stroke-linejoin="round" stroke-linecap="round" stroke="rgb(0,0,255)" stroke-width="1.874998" fill="none" d="M 0.000000 750.000000 L 62.977104 0.000000 " />
<path stroke-linejoin="round" stroke-linecap="round" stroke="rgb(255,0,0)" stroke-width="3.749996" fill="none" d="M 30.109472 391.423523 L 30.783579 400.186707 " />
<path stroke-linejoin="round" stroke-linecap="round" stroke="rgb(0,0,255)" stroke-width="1.874998" fill="none" d="M 0.000000 750.000000 L 61.983482 0.000000 " />
<path stroke-linejoin="round" stroke-linecap="round" stroke="rgb(255,0,0)" stroke-width="3.749996" fill="none" d="M 29.880457 388.446350 L 30.109472 391.423523 " />
<path stroke-linejoin="round" stroke-linecap="round" stroke="rgb(0,0,255)" stroke-width="1.874998" fill="none" d="M 0.000000 750.000000 L 56.074753 0.000000 " />
<path stroke-linejoin="round" stroke-linecap="round" stroke="rgb(255,0,0)" stroke-width="3.749996" fill="none" d="M 28.435997 369.668457 L 29.880457 388.446350 " />
<path stroke-linejoin="round" stroke-linecap="round" stroke="rgb(0,0,255)" stroke-width="1.874998" fill="none" d="M 0.000000 750.000000 L 50.847462 0.000000 " />
<path stroke-linejoin="round" stroke-linecap="round" stroke="rgb(255,0,0)" stroke-width="3.749996" fill="none" d="M 27.027012 351.351624 L 28.435997 369.668457 " />
<path stroke-linejoin="round" stroke-linecap="round" stroke="rgb(0,0,255)" stroke-width="1.874998" fill="none" d="M 0.000000 750.000000 L 46.511627 0.000000 " />
<path stroke-linejoin="round" stroke-linecap="round" stroke="rgb(255,0,0)" stroke-width="3.749996" fill="none" d="M 25.751062 334.764191 L 27.027012 351.351624 " />
<path stroke-linejoin="round" stroke-linecap="round" stroke="rgb(0,0,255)" stroke-width="1.874998" fill="none" d="M 0.000000 750.000000 L 37.769794 0.000000 " />
<path stroke-linejoin="round" stroke-linecap="round" stroke="rgb(255,0,0)" stroke-width="3.749996" fill="none" d="M 22.826069 296.739380 L 25.751062 334.764191 " />
<path stroke-linejoin="round" stroke-linecap="round" stroke="rgb(0,0,255)" stroke-width="1.874998" fill="none" d="M 0.000000 750.000000 L 30.201338 0.000000 " />
<path stroke-linejoin="round" stroke-linecap="round" stroke="rgb(255,0,0)" stroke-width="3.749996" fill="none" d="M 19.823782 257.709503 L 22.826069 296.739380 " />
<path stroke-linejoin="round" stroke-linecap="round" stroke="rgb(0,0,255)" stroke-width="1.874998" fill="none" d="M 0.000000 750.000000 L 29.411762 0.000000 " />
<path stroke-linejoin="round" stroke-linecap="round" stroke="rgb(255,0,0)" stroke-width="3.749996" fill="none" d="M 19.480505 253.247070 L 19.823782 257.709503 " />
<path stroke-linejoin="round" stroke-linecap="round" stroke="rgb(0,0,255)" stroke-width="1.874998" fill="none" d="M 0.000000 750.000000 L 29.032253 0.000000 " />
<path stroke-linejoin="round" stroke-linecap="round" stroke="rgb(255,0,0)" stroke-width="3.749996" fill="none" d="M 19.313292 251.073273 L 19.480505 253.247070 " />
<path stroke-linejoin="round" stroke-linecap="round" stroke="rgb(0,0,255)" stroke-width="1.874998" fill="none" d="M 0.000000 750.000000 L 26.627228 0.000000 " />
<path stroke-linejoin="round" stroke-linecap="round" stroke="rgb(255,0,0)" stroke-width="3.749996" fill="none" d="M 18.218615 236.842361 L 19.313292 251.073273 " />
<path stroke-linejoin="round" stroke-linecap="round" stroke="rgb(0,0,255)" stroke-width="1.874998" fill="none" d="M 0.000000 750.000000 L 26.011572 0.000000 " />
<path stroke-linejoin="round" stroke-linecap="round" stroke="rgb(255,0,0)" stroke-width="3.749996" fill="none" d="M 17.928265 233.068069 L 18.218615 236.842361 " />
<path stroke-linejoin="round" stroke-linecap="round" stroke="rgb(0,0,255)" stroke-width="1.874998" fill="none" d="M 0.000000 750.000000 L 22.727274 0.000000 " />
<path stroke-linejoin="round" stroke-linecap="round" stroke="rgb(255,0,0)" stroke-width="3.749996" fill="none" d="M 16.304344 211.956894 L 17.928265 233.068146 " />
<path stroke-linejoin="round" stroke-linecap="round" stroke="rgb(0,0,255)" stroke-width="1.874998" fill="none" d="M 0.000000 750.000000 L 17.142847 0.000000 " />
<path stroke-linejoin="round" stroke-linecap="round" stroke="rgb(255,0,0)" stroke-width="3.749996" fill="none" d="M 13.215847 171.806534 L 16.304344 211.956894 " />
<path stroke-linejoin="round" stroke-linecap="round" stroke="rgb(0,0,255)" stroke-width="1.874998" fill="none" d="M 0.000000 750.000000 L 15.384615 0.000000 " />
<path stroke-linejoin="round" stroke-linecap="round" stroke="rgb(255,0,0)" stroke-width="3.749996" fill="none" d="M 12.145736 157.895096 L 13.215847 171.806458 " />
<path stroke-linejoin="round" stroke-linecap="round" stroke="rgb(0,0,255)" stroke-width="1.874998" fill="none" d="M 0.000000 750.000000 L 11.029423 0.000000 " />
<path stroke-linejoin="round" stroke-linecap="round" stroke="rgb(255,0,0)" stroke-width="3.749996" fill="none" d="M 9.259254 120.370743 L 12.145736 157.895096 " />
<path stroke-linejoin="round" stroke-linecap="round" stroke="rgb(0,0,255)" stroke-width="1.874998" fill="none" d="M 0.000000 750.000000 L 7.009350 0.000000 " />
<path stroke-linejoin="round" stroke-linecap="round" stroke="rgb(255,0,0)" stroke-width="3.749996" fill="none" d="M 6.249994 81.250351 L 9.259254 120.370743 " />
<path stroke-linejoin="round" stroke-linecap="round" stroke="rgb(0,0,255)" stroke-width="1.874998" fill="none" d="M 0.000000 750.000000 L 3.348224 0.000000 " />
<path stroke-linejoin="round" stroke-linecap="round" stroke="rgb(255,0,0)" stroke-width="3.749996" fill="none" d="M 3.164560 41.139610 L 6.249994 81.250351 " />
<path stroke-linejoin="round" stroke-linecap="round" stroke="rgb(0,0,255)" stroke-width="1.874998" fill="none" d="M 0.000000 750.000000 L 0.000000 0.000000 " />
<path stroke-linejoin="round" stroke-linecap="round" stroke="rgb(255,0,0)" stroke-width="3.749996" fill="none" d="M 0.000000 0.000000 L 3.164560 41.139610 " />
<circle cx="106.960014" cy="747.623116" r="3.749996" style="fill:rgb(0,127,0);stroke-width:1" /><circle cx="104.781210" cy="745.444290" r="3.749996" style="fill:rgb(0,127,0);stroke-width:1" /><circle cx="104.583129" cy="745.246232" r="3.749996" style="fill:rgb(0,127,0);stroke-width:1" /><circle cx="102.206223" cy="742.869325" r="3.749996" style="fill:rgb(0,127,0);stroke-width:1" /><circle cx="99.829361" cy="740.492441" r="3.749996" style="fill:rgb(0,127,0);stroke-width:1" /><circle cx="97.452477" cy="738.115557" r="3.749996" style="fill:rgb(0,127,0);stroke-width:1" /><circle cx="95.669813" cy="736.332893" r="3.749996" style="fill:rgb(0,127,0);stroke-width:1" /><circle cx="95.075592" cy="735.738650" r="3.749996" style="fill:rgb(0,127,0);stroke-width:1" /><circle cx="93.391970" cy="734.055027" r="3.749996" style="fill:rgb(0,127,0);stroke-width:1" /><circle cx="92.698708" cy="733.361766" r="3.749996" style="fill:rgb(0,127,0);stroke-width:1" /><circle cx="90.321802" cy="730.984882" r="3.749996" style="fill:rgb(0,127,0);stroke-width:1" /><circle cx="88.836260" cy="729.499318" r="3.749996" style="fill:rgb(0,127,0);stroke-width:1" /><circle cx="86.558416" cy="727.221474" r="3.749996" style="fill:rgb(0,127,0);stroke-width:1" /><circle cx="85.282803" cy="725.945882" r="3.749996" style="fill:rgb(0,127,0);stroke-width:1" /><circle cx="84.280550" cy="724.943608" r="3.749996" style="fill:rgb(0,127,0);stroke-width:1" /><circle cx="82.002707" cy="722.665764" r="3.749996" style="fill:rgb(0,127,0);stroke-width:1" /><circle cx="79.724863" cy="720.387921" r="3.749996" style="fill:rgb(0,127,0);stroke-width:1" /><circle cx="77.446997" cy="718.110055" r="3.749996" style="fill:rgb(0,127,0);stroke-width:1" /><circle cx="76.535851" cy="717.198908" r="3.749996" style="fill:rgb(0,127,0);stroke-width:1" /><circle cx="75.169154" cy="715.832211" r="3.749996" style="fill:rgb(0,127,0);stroke-width:1" /><circle cx="72.891288" cy="713.554345" r="3.749996" style="fill:rgb(0,127,0);stroke-width:1" /><circle cx="72.162397" cy="712.825432" r="3.749996" style="fill:rgb(0,127,0);stroke-width:1" /><circle cx="70.613466" cy="711.276501" r="3.749996" style="fill:rgb(0,127,0);stroke-width:1" /><circle cx="69.975659" cy="710.638694" r="3.749996" style="fill:rgb(0,127,0);stroke-width:1" /><circle cx="67.788921" cy="708.451957" r="3.749996" style="fill:rgb(0,127,0);stroke-width:1" /><circle cx="65.602161" cy="706.265219" r="3.749996" style="fill:rgb(0,127,0);stroke-width:1" /><circle cx="63.415445" cy="704.078481" r="3.749996" style="fill:rgb(0,127,0);stroke-width:1" /><circle cx="61.228707" cy="701.891743" r="3.749996" style="fill:rgb(0,127,0);stroke-width:1" /><circle cx="60.976379" cy="701.639414" r="3.749996" style="fill:rgb(0,127,0);stroke-width:1" /><circle cx="59.041969" cy="699.705005" r="3.749996" style="fill:rgb(0,127,0);stroke-width:1" /><circle cx="56.855232" cy="697.518244" r="3.749996" style="fill:rgb(0,127,0);stroke-width:1" /><circle cx="56.771122" cy="697.434157" r="3.749996" style="fill:rgb(0,127,0);stroke-width:1" /><circle cx="54.668494" cy="695.331506" r="3.749996" style="fill:rgb(0,127,0);stroke-width:1" /><circle cx="53.254433" cy="692.307696" r="3.749996" style="fill:rgb(0,127,0);stroke-width:1" /><circle cx="52.914105" cy="687.883437" r="3.749996" style="fill:rgb(0,127,0);stroke-width:1" /><circle cx="52.591458" cy="683.689021" r="3.749996" style="fill:rgb(0,127,0);stroke-width:1" /><circle cx="52.215189" cy="678.797476" r="3.749996" style="fill:rgb(0,127,0);stroke-width:1" /><circle cx="51.886797" cy="674.528316" r="3.749996" style="fill:rgb(0,127,0);stroke-width:1" /><circle cx="51.470585" cy="669.117652" r="3.749996" style="fill:rgb(0,127,0);stroke-width:1" /><circle cx="51.020399" cy="663.265318" r="3.749996" style="fill:rgb(0,127,0);stroke-width:1" /><circle cx="50.675668" cy="658.783793" r="3.749996" style="fill:rgb(0,127,0);stroke-width:1" /><circle cx="50.335564" cy="654.362418" r="3.749996" style="fill:rgb(0,127,0);stroke-width:1" /><circle cx="49.999997" cy="650.000006" r="3.749996" style="fill:rgb(0,127,0);stroke-width:1" /><circle cx="49.668878" cy="645.695373" r="3.749996" style="fill:rgb(0,127,0);stroke-width:1" /><circle cx="49.137935" cy="638.793133" r="3.749996" style="fill:rgb(0,127,0);stroke-width:1" /><circle cx="48.561148" cy="631.294973" r="3.749996" style="fill:rgb(0,127,0);stroke-width:1" /><circle cx="48.214272" cy="626.785755" r="3.749996" style="fill:rgb(0,127,0);stroke-width:1" /><circle cx="47.872335" cy="622.340463" r="3.749996" style="fill:rgb(0,127,0);stroke-width:1" /><circle cx="47.222212" cy="613.888934" r="3.749996" style="fill:rgb(0,127,0);stroke-width:1" /><circle cx="46.874978" cy="609.375045" r="3.749996" style="fill:rgb(0,127,0);stroke-width:1" /><circle cx="46.532840" cy="604.927048" r="3.749996" style="fill:rgb(0,127,0);stroke-width:1" /><circle cx="46.195641" cy="600.543514" r="3.749996" style="fill:rgb(0,127,0);stroke-width:1" /><circle cx="45.863293" cy="596.223056" r="3.749996" style="fill:rgb(0,127,0);stroke-width:1" /><circle cx="45.112766" cy="586.466208" r="3.749996" style="fill:rgb(0,127,0);stroke-width:1" /><circle cx="44.776104" cy="582.089603" r="3.749996" style="fill:rgb(0,127,0);stroke-width:1" /><circle cx="43.945312" cy="571.289107" r="3.749996" style="fill:rgb(0,127,0);stroke-width:1" /><circle cx="43.604650" cy="566.860512" r="3.749996" style="fill:rgb(0,127,0);stroke-width:1" /><circle cx="43.269217" cy="562.500045" r="3.749996" style="fill:rgb(0,127,0);stroke-width:1" /><circle cx="42.682908" cy="554.878090" r="3.749996" style="fill:rgb(0,127,0);stroke-width:1" /><circle cx="42.338692" cy="550.403271" r="3.749996" style="fill:rgb(0,127,0);stroke-width:1" /><circle cx="41.999996" cy="546.000045" r="3.749996" style="fill:rgb(0,127,0);stroke-width:1" /><circle cx="41.666664" cy="541.666724" r="3.749996" style="fill:rgb(0,127,0);stroke-width:1" /><circle cx="41.338563" cy="537.401620" r="3.749996" style="fill:rgb(0,127,0);stroke-width:1" /><circle cx="41.015625" cy="533.203181" r="3.749996" style="fill:rgb(0,127,0);stroke-width:1" /><circle cx="39.959013" cy="519.467253" r="3.749996" style="fill:rgb(0,127,0);stroke-width:1" /><circle cx="37.344396" cy="485.477228" r="3.749996" style="fill:rgb(0,127,0);stroke-width:1" /><circle cx="36.931805" cy="480.113726" r="3.749996" style="fill:rgb(0,127,0);stroke-width:1" /><circle cx="34.482747" cy="448.275955" r="3.749996" style="fill:rgb(0,127,0);stroke-width:1" /><circle cx="34.220517" cy="444.867047" r="3.749996" style="fill:rgb(0,127,0);stroke-width:1" /><circle cx="33.536576" cy="435.975730" r="3.749996" style="fill:rgb(0,127,0);stroke-width:1" /><circle cx="33.457227" cy="434.944382" r="3.749996" style="fill:rgb(0,127,0);stroke-width:1" /><circle cx="31.015031" cy="403.195635" r="3.749996" style="fill:rgb(0,127,0);stroke-width:1" /><circle cx="30.783579" cy="400.186683" r="3.749996" style="fill:rgb(0,127,0);stroke-width:1" /><circle cx="30.109473" cy="391.423523" r="3.749996" style="fill:rgb(0,127,0);stroke-width:1" /><circle cx="29.880457" cy="388.446373" r="3.749996" style="fill:rgb(0,127,0);stroke-width:1" /><circle cx="28.435998" cy="369.668458" r="3.749996" style="fill:rgb(0,127,0);stroke-width:1" /><circle cx="27.027011" cy="351.351603" r="3.749996" style="fill:rgb(0,127,0);stroke-width:1" /><circle cx="25.751062" cy="334.764183" r="3.749996" style="fill:rgb(0,127,0);stroke-width:1" /><circle cx="22.826068" cy="296.739371" r="3.749996" style="fill:rgb(0,127,0);stroke-width:1" /><circle cx="19.823782" cy="257.709503" r="3.749996" style="fill:rgb(0,127,0);stroke-width:1" /><circle cx="19.480504" cy="253.247079" r="3.749996" style="fill:rgb(0,127,0);stroke-width:1" /><circle cx="19.313291" cy="251.073260" r="3.749996" style="fill:rgb(0,127,0);stroke-width:1" /><circle cx="18.218614" cy="236.842375" r="3.749996" style="fill:rgb(0,127,0);stroke-width:1" /><circle cx="17.928265" cy="233.068071" r="3.749996" style="fill:rgb(0,127,0);stroke-width:1" /><circle cx="16.304344" cy="211.956896" r="3.749996" style="fill:rgb(0,127,0);stroke-width:1" /><circle cx="13.215847" cy="171.806529" r="3.749996" style="fill:rgb(0,127,0);stroke-width:1" /><circle cx="12.145735" cy="157.895096" r="3.749996" style="fill:rgb(0,127,0);stroke-width:1" /><circle cx="9.259254" cy="120.370746" r="3.749996" style="fill:rgb(0,127,0);stroke-width:1" /><circle cx="6.249994" cy="81.250347" r="3.749996" style="fill:rgb(0,127,0);stroke-width:1" /><circle cx="3.164560" cy="41.139610" r="3.749996" style="fill:rgb(0,127,0);stroke-width:1" /><circle cx="750.000000" cy="750.000000" r="3.749996" style="fill:rgb(0,127,0);stroke-width:1" /><path stroke-linejoin="round" stroke-linecap="round" stroke="rgb(255,255,255)" stroke-width="3.749996" fill="none" d="M 0.000000 750.000000 L 750.000000 750.000000 M 0.000000 750.000000 L 0.000000 0.000000 " />

</svg>