<svg xmlns="http://www.w3.org/2000/svg" version="1.1" width = "750" height = "750" viewBox = "0 0 750 750"  shape-rendering="crispEdges">
<path stroke-linejoin="round" stroke-linecap="round" stroke="rgb(255,255,0)" stroke-width="3.749996" fill="none" d="M 74.999992 750.000000 L 0.000000 0.000000 " />
<path stroke-linejoin="round" stroke-linecap="round" stroke="rgb(63,63,63)" stroke-width="3.749996" fill="none" d="M 0.000000 0.000000 L 750.000000 750.000000 M 74.999992 750.000000 L 35.526306 0.000000 " />
<path stroke-linejoin="round" stroke-linecap="round" stroke="rgb(191,191,191)" stroke-width="3.749996" fill="none" d="M 0.000000 675.000000 L 74.999992 750.000000 M 0.000000 0.000000 L 39.473690 750.000000 " />
<path stroke-linejoin="round" stroke-linecap="round" stroke="rgb(0,0,255)" stroke-width="1.874998" fill="none" d="M 0.000000 750.000000 L 750.000000 724.137939 " />
<path stroke-linejoin="round" stroke-linecap="round" stroke="rgb(255,0,0)" stroke-width="3.749996" fill="none" d="M 74.864143 747.418457 L 74.999992 750.000000 " />
<path stroke-linejoin="round" stroke-linecap="round" stroke="rgb(0,0,255)" stroke-width="1.874998" fill="none" d="M 0.000000 750.000000 L 750.000000 700.000000 " />
<path stroke-linejoin="round" stroke-linecap="round" stroke="rgb(255,0,0)" stroke-width="3.749996" fill="none" d="M 74.431297 745.037903 L 74.864120 747.418457 " />
<path stroke-linejoin="round" stroke-linecap="round" stroke="rgb(0,0,255)" stroke-width="1.874998" fill="none" d="M 0.000000 750.000000 L 750.000000 696.428589 " />
<path stroke-linejoin="round" stroke-linecap="round" stroke="rgb(255,0,0)" stroke-width="3.749996" fill="none" d="M 74.367683 744.688049 L 74.431297 745.037903 " />
<path stroke-linejoin="round" stroke-linecap="round" stroke="rgb(0,0,255)" stroke-width="1.874998" fill="none" d="M 0.000000 750.000000 L 750.000000 672.413818 " />
<path stroke-linejoin="round" stroke-linecap="round" stroke="rgb(255,0,0)" stroke-width="3.749996" fill="none" d="M 73.942734 742.350769 L 74.367683 744.688049 " />
<path stroke-linejoin="round" stroke-linecap="round" stroke="rgb(0,0,255)" stroke-width="1.874998" fill="none" d="M 0.000000 750.000000 L 750.000000 642.857178 " />
<path stroke-linejoin="round" stroke-linecap="round" stroke="rgb(255,0,0)" stroke-width="3.749996" fill="none" d="M 73.426323 739.510498 L 73.942734 742.350769 " />
<path stroke-linejoin="round" stroke-linecap="round" stroke="rgb(0,0,255)" stroke-width="1.874998" fill="none" d="M 0.000000 750.000000 L 750.000000 620.689636 " />
<path stroke-linejoin="round" stroke-linecap="round" stroke="rgb(255,0,0)" stroke-width="3.749996" fill="none" d="M 73.043701 737.406250 L 73.426323 739.510498 " />
<path stroke-linejoin="round" stroke-linecap="round" stroke="rgb(0,0,255)" stroke-width="1.874998" fill="none" d="M 0.000000 750.000000 L 750.000000 611.111084 " />
<path stroke-linejoin="round" stroke-linecap="round" stroke="rgb(255,0,0)" stroke-width="3.749996" fill="none" d="M 72.879623 736.503723 L 73.043701 737.406250 " />
<path stroke-linejoin="round" stroke-linecap="round" stroke="rgb(0,0,255)" stroke-width="1.874998" fill="none" d="M 0.000000 750.000000 L 750.000000 576.923096 " />
<path stroke-linejoin="round" stroke-linecap="round" stroke="rgb(255,0,0)" stroke-width="3.749996" fill="none" d="M 72.299927 733.315430 L 72.879623 736.503723 " />
<path stroke-linejoin="round" stroke-linecap="round" stroke="rgb(0,0,255)" stroke-width="1.874998" fill="none" d="M 0.000000 750.000000 L 750.000000 540.000000 " />
<path stroke-linejoin="round" stroke-linecap="round" stroke="rgb(255,0,0)" stroke-width="3.749996" fill="none" d="M 71.684113 729.928467 L 72.299927 733.315430 " />
<path stroke-linejoin="round" stroke-linecap="round" stroke="rgb(0,0,255)" stroke-width="1.874998" fill="none" d="M 0.000000 750.000000 L 750.000000 519.230774 " />
<path stroke-linejoin="round" stroke-linecap="round" stroke="rgb(255,0,0)" stroke-width="3.749996" fill="none" d="M 71.342293 728.048523 L 71.684090 729.928467 " />
<path stroke-linejoin="round" stroke-linecap="round" stroke="rgb(0,0,255)" stroke-width="1.874998" fill="none" d="M 0.000000 750.000000 L 750.000000 499.999969 " />
<path stroke-linejoin="round" stroke-linecap="round" stroke="rgb(255,0,0)" stroke-width="3.749996" fill="none" d="M 71.028694 726.323792 L 71.342293 728.048523 " />
<path stroke-linejoin="round" stroke-linecap="round" stroke="rgb(0,0,255)" stroke-width="1.874998" fill="none" d="M 0.000000 750.000000 L 750.000000 456.521729 " />
<path stroke-linejoin="round" stroke-linecap="round" stroke="rgb(255,0,0)" stroke-width="3.749996" fill="none" d="M 70.329781 722.479614 L 71.028694 726.323792 " />
<path stroke-linejoin="round" stroke-linecap="round" stroke="rgb(0,0,255)" stroke-width="1.874998" fill="none" d="M 0.000000 750.000000 L 750.000000 437.500031 " />
<path stroke-linejoin="round" stroke-linecap="round" stroke="rgb(255,0,0)" stroke-width="3.749996" fill="none" d="M 70.028297 720.821533 L 70.329781 722.479614 " />
<path stroke-linejoin="round" stroke-linecap="round" stroke="rgb(0,0,255)" stroke-width="1.874998" fill="none" d="M 0.000000 750.000000 L 750.000000 391.304352 " />
<path stroke-linejoin="round" stroke-linecap="round" stroke="rgb(255,0,0)" stroke-width="3.749996" fill="none" d="M 69.306808 716.853271 L 70.028297 720.821533 " />
<path stroke-linejoin="round" stroke-linecap="round" stroke="rgb(0,0,255)" stroke-width="1.874998" fill="none" d="M 0.000000 750.000000 L 750.000000 375.000000 " />
<path stroke-linejoin="round" stroke-linecap="round" stroke="rgb(255,0,0)" stroke-width="3.749996" fill="none" d="M 69.055687 715.472168 L 69.306808 716.853271 " />
<path stroke-linejoin="round" stroke-linecap="round" stroke="rgb(0,0,255)" stroke-width="1.874998" fill="none" d="M 0.000000 750.000000 L 750.000000 326.086975 " />
<path stroke-linejoin="round" stroke-linecap="round" stroke="rgb(255,0,0)" stroke-width="3.749996" fill="none" d="M 68.313156 711.388245 L 69.055687 715.472168 " />
<path stroke-linejoin="round" stroke-linecap="round" stroke="rgb(0,0,255)" stroke-width="1.874998" fill="none" d="M 0.000000 750.000000 L 750.000000 272.727295 " />
<path stroke-linejoin="round" stroke-linecap="round" stroke="rgb(255,0,0)" stroke-width="3.749996" fill="none" d="M 67.521103 707.031982 L 68.313133 711.388245 " />
<path stroke-linejoin="round" stroke-linecap="round" stroke="rgb(0,0,255)" stroke-width="1.874998" fill="none" d="M 0.000000 750.000000 L 750.000000 214.285706 " />
<path stroke-linejoin="round" stroke-linecap="round" stroke="rgb(255,0,0)" stroke-width="3.749996" fill="none" d="M 66.674461 702.375427 L 67.521103 707.031982 " />
<path stroke-linejoin="round" stroke-linecap="round" stroke="rgb(0,0,255)" stroke-width="1.874998" fill="none" d="M 0.000000 750.000000 L 750.000000 204.545441 " />
<path stroke-linejoin="round" stroke-linecap="round" stroke="rgb(255,0,0)" stroke-width="3.749996" fill="none" d="M 66.535393 701.610596 L 66.674461 702.375427 " />
<path stroke-linejoin="round" stroke-linecap="round" stroke="rgb(0,0,255)" stroke-width="1.874998" fill="none" d="M 0.000000 750.000000 L 750.000000 142.857132 " />
<path stroke-linejoin="round" stroke-linecap="round" stroke="rgb(255,0,0)" stroke-width="3.749996" fill="none" d="M 65.668030 696.840149 L 66.535393 701.610596 " />
<path stroke-linejoin="round" stroke-linecap="round" stroke="rgb(0,0,255)" stroke-width="1.874998" fill="none" d="M 0.000000 750.000000 L 750.000000 136.363647 " />
<path stroke-linejoin="round" stroke-linecap="round" stroke="rgb(255,0,0)" stroke-width="3.749996" fill="none" d="M 65.578041 696.345215 L 65.668030 696.840149 " />
<path stroke-linejoin="round" stroke-linecap="round" stroke="rgb(0,0,255)" stroke-width="1.874998" fill="none" d="M 0.000000 750.000000 L 750.000000 71.428566 " />
<path stroke-linejoin="round" stroke-linecap="round" stroke="rgb(255,0,0)" stroke-width="3.749996" fill="none" d="M 64.691574 691.469543 L 65.578041 696.345215 " />
<path stroke-linejoin="round" stroke-linecap="round" stroke="rgb(0,0,255)" stroke-width="1.874998" fill="none" d="M 0.000000 750.000000 L 750.000000 0.000000 " />
<path stroke-linejoin="round" stroke-linecap="round" stroke="rgb(255,0,0)" stroke-width="3.749996" fill="none" d="M 63.743702 686.256348 L 64.691574 691.469543 " />
<path stroke-linejoin="round" stroke-linecap="round" stroke="rgb(0,0,255)" stroke-width="1.874998" fill="none" d="M 0.000000 750.000000 L 678.571472 0.000000 " />
<path stroke-linejoin="round" stroke-linecap="round" stroke="rgb(255,0,0)" stroke-width="3.749996" fill="none" d="M 62.727859 680.669189 L 63.743702 686.256348 " />
<path stroke-linejoin="round" stroke-linecap="round" stroke="rgb(0,0,255)" stroke-width="1.874998" fill="none" d="M 0.000000 750.000000 L 619.565186 0.000000 " />
<path stroke-linejoin="round" stroke-linecap="round" stroke="rgb(255,0,0)" stroke-width="3.749996" fill="none" d="M 61.743893 675.257385 L 62.727859 680.669189 " />
<path stroke-linejoin="round" stroke-linecap="round" stroke="rgb(0,0,255)" stroke-width="1.874998" fill="none" d="M 0.000000 750.000000 L 570.000000 0.000000 " />
<path stroke-linejoin="round" stroke-linecap="round" stroke="rgb(255,0,0)" stroke-width="3.749996" fill="none" d="M 60.790321 670.012756 L 61.743893 675.257385 " />
<path stroke-linejoin="round" stroke-linecap="round" stroke="rgb(0,0,255)" stroke-width="1.874998" fill="none" d="M 0.000000 750.000000 L 562.500000 0.000000 " />
<path stroke-linejoin="round" stroke-linecap="round" stroke="rgb(255,0,0)" stroke-width="3.749996" fill="none" d="M 60.634239 669.154358 L 60.790321 670.012756 " />
<path stroke-linejoin="round" stroke-linecap="round" stroke="rgb(0,0,255)" stroke-width="1.874998" fill="none" d="M 0.000000 750.000000 L 510.000000 0.000000 " />
<path stroke-linejoin="round" stroke-linecap="round" stroke="rgb(255,0,0)" stroke-width="3.749996" fill="none" d="M 59.440323 662.587769 L 60.634239 669.154358 " />
<path stroke-linejoin="round" stroke-linecap="round" stroke="rgb(0,0,255)" stroke-width="1.874998" fill="none" d="M 0.000000 750.000000 L 472.222260 0.000000 " />
<path stroke-linejoin="round" stroke-linecap="round" stroke="rgb(255,0,0)" stroke-width="3.749996" fill="none" d="M 58.453762 657.161682 L 59.440323 662.587769 " />
<path stroke-linejoin="round" stroke-linecap="round" stroke="rgb(0,0,255)" stroke-width="1.874998" fill="none" d="M 0.000000 750.000000 L 428.571442 0.000000 " />
<path stroke-linejoin="round" stroke-linecap="round" stroke="rgb(255,0,0)" stroke-width="3.749996" fill="none" d="M 57.149513 649.988342 L 58.453762 657.161682 " />
<path stroke-linejoin="round" stroke-linecap="round" stroke="rgb(0,0,255)" stroke-width="1.874998" fill="none" d="M 0.000000 750.000000 L 400.000031 0.000000 " />
<path stroke-linejoin="round" stroke-linecap="round" stroke="rgb(255,0,0)" stroke-width="3.749996" fill="none" d="M 56.180878 644.660828 L 57.149536 649.988342 " />
<path stroke-linejoin="round" stroke-linecap="round" stroke="rgb(0,0,255)" stroke-width="1.874998" fill="none" d="M 0.000000 750.000000 L 375.000000 0.000000 " />
<path stroke-linejoin="round" stroke-linecap="round" stroke="rgb(255,0,0)" stroke-width="3.749996" fill="none" d="M 55.244541 639.510925 L 56.180878 644.660828 " />
<path stroke-linejoin="round" stroke-linecap="round" stroke="rgb(0,0,255)" stroke-width="1.874998" fill="none" d="M 0.000000 750.000000 L 352.941193 0.000000 " />
<path stroke-linejoin="round" stroke-linecap="round" stroke="rgb(255,0,0)" stroke-width="3.749996" fill="none" d="M 54.338894 634.529846 L 55.244541 639.510925 " />
<path stroke-linejoin="round" stroke-linecap="round" stroke="rgb(0,0,255)" stroke-width="1.874998" fill="none" d="M 0.000000 750.000000 L 333.333344 0.000000 " />
<path stroke-linejoin="round" stroke-linecap="round" stroke="rgb(255,0,0)" stroke-width="3.749996" fill="none" d="M 53.462460 629.709473 L 54.338894 634.529846 " />
<path stroke-linejoin="round" stroke-linecap="round" stroke="rgb(0,0,255)" stroke-width="1.874998" fill="none" d="M 0.000000 750.000000 L 255.319138 0.000000 " />
<path stroke-linejoin="round" stroke-linecap="round" stroke="rgb(255,0,0)" stroke-width="3.749996" fill="none" d="M 51.354626 599.145752 L 53.462460 629.709473 " />
<path stroke-linejoin="round" stroke-linecap="round" stroke="rgb(0,0,255)" stroke-width="1.874998" fill="none" d="M 0.000000 750.000000 L 250.000000 0.000000 " />
<path stroke-linejoin="round" stroke-linecap="round" stroke="rgb(255,0,0)" stroke-width="3.749996" fill="none" d="M 50.977013 597.068909 L 51.354626 599.145752 " />
<path stroke-linejoin="round" stroke-linecap="round" stroke="rgb(0,0,255)" stroke-width="1.874998" fill="none" d="M 0.000000 750.000000 L 238.636353 0.000000 " />
<path stroke-linejoin="round" stroke-linecap="round" stroke="rgb(255,0,0)" stroke-width="3.749996" fill="none" d="M 50.134422 592.434631 L 50.977013 597.068909 " />
<path stroke-linejoin="round" stroke-linecap="round" stroke="rgb(0,0,255)" stroke-width="1.874998" fill="none" d="M 0.000000 750.000000 L 228.260864 0.000000 " />
<path stroke-linejoin="round" stroke-linecap="round" stroke="rgb(255,0,0)" stroke-width="3.749996" fill="none" d="M 49.319229 587.951050 L 50.134422 592.434631 " />
<path stroke-linejoin="round" stroke-linecap="round" stroke="rgb(0,0,255)" stroke-width="1.874998" fill="none" d="M 0.000000 750.000000 L 218.750000 0.000000 " />
<path stroke-linejoin="round" stroke-linecap="round" stroke="rgb(255,0,0)" stroke-width="3.749996" fill="none" d="M 48.530125 583.611023 L 49.319229 587.951050 " />
<path stroke-linejoin="round" stroke-linecap="round" stroke="rgb(0,0,255)" stroke-width="1.874998" fill="none" d="M 0.000000 750.000000 L 210.000000 0.000000 " />
<path stroke-linejoin="round" stroke-linecap="round" stroke="rgb(255,0,0)" stroke-width="3.749996" fill="none" d="M 47.765873 579.407593 L 48.530125 583.611023 " />
<path stroke-linejoin="round" stroke-linecap="round" stroke="rgb(0,0,255)" stroke-width="1.874998" fill="none" d="M 0.000000 750.000000 L 204.545456 0.000000 " />
<path stroke-linejoin="round" stroke-linecap="round" stroke="rgb(255,0,0)" stroke-width="3.749996" fill="none" d="M 47.269596 576.678162 L 47.765873 579.407593 " />
<path stroke-linejoin="round" stroke-linecap="round" stroke="rgb(0,0,255)" stroke-width="1.874998" fill="none" d="M 0.000000 750.000000 L 195.652176 0.000000 " />
<path stroke-linejoin="round" stroke-linecap="round" stroke="rgb(255,0,0)" stroke-width="3.749996" fill="none" d="M 46.425507 572.035583 L 47.269596 576.678162 " />
<path stroke-linejoin="round" stroke-linecap="round" stroke="rgb(0,0,255)" stroke-width="1.874998" fill="none" d="M 0.000000 750.000000 L 187.500000 0.000000 " />
<path stroke-linejoin="round" stroke-linecap="round" stroke="rgb(255,0,0)" stroke-width="3.749996" fill="none" d="M 45.611008 567.555969 L 46.425507 572.035583 " />
<path stroke-linejoin="round" stroke-linecap="round" stroke="rgb(0,0,255)" stroke-width="1.874998" fill="none" d="M 0.000000 750.000000 L 147.540985 0.000000 " />
<path stroke-linejoin="round" stroke-linecap="round" stroke="rgb(255,0,0)" stroke-width="3.749996" fill="none" d="M 43.087856 530.970093 L 45.611008 567.555969 " />
<path stroke-linejoin="round" stroke-linecap="round" stroke="rgb(0,0,255)" stroke-width="1.874998" fill="none" d="M 0.000000 750.000000 L 116.197182 0.000000 " />
<path stroke-linejoin="round" stroke-linecap="round" stroke="rgb(255,0,0)" stroke-width="3.749996" fill="none" d="M 40.268295 490.086426 L 43.087856 530.970093 " />
<path stroke-linejoin="round" stroke-linecap="round" stroke="rgb(0,0,255)" stroke-width="1.874998" fill="none" d="M 0.000000 750.000000 L 111.111115 0.000000 " />
<path stroke-linejoin="round" stroke-linecap="round" stroke="rgb(255,0,0)" stroke-width="3.749996" fill="none" d="M 39.708405 481.968201 L 40.268295 490.086426 " />
<path stroke-linejoin="round" stroke-linecap="round" stroke="rgb(0,0,255)" stroke-width="1.874998" fill="none" d="M 0.000000 750.000000 L 108.433754 0.000000 " />
<path stroke-linejoin="round" stroke-linecap="round" stroke="rgb(255,0,0)" stroke-width="3.749996" fill="none" d="M 39.399391 477.487488 L 39.708405 481.968201 " />
<path stroke-linejoin="round" stroke-linecap="round" stroke="rgb(0,0,255)" stroke-width="1.874998" fill="none" d="M 0.000000 750.000000 L 90.361435 0.000000 " />
<path stroke-linejoin="round" stroke-linecap="round" stroke="rgb(255,0,0)" stroke-width="3.749996" fill="none" d="M 37.008942 442.825775 L 39.399391 477.487488 " />
<path stroke-linejoin="round" stroke-linecap="round" stroke="rgb(0,0,255)" stroke-width="1.874998" fill="none" d="M 0.000000 750.000000 L 86.206894 0.000000 " />
<path stroke-linejoin="round" stroke-linecap="round" stroke="rgb(255,0,0)" stroke-width="3.749996" fill="none" d="M 36.370865 433.573547 L 37.008942 442.825745 " />
<path stroke-linejoin="round" stroke-linecap="round" stroke="rgb(0,0,255)" stroke-width="1.874998" fill="none" d="M 0.000000 750.000000 L 85.051552 0.000000 " />
<path stroke-linejoin="round" stroke-linecap="round" stroke="rgb(255,0,0)" stroke-width="3.749996" fill="none" d="M 36.186531 430.900665 L 36.370865 433.573547 " />
<path stroke-linejoin="round" stroke-linecap="round" stroke="rgb(0,0,255)" stroke-width="1.874998" fill="none" d="M 0.000000 750.000000 L 82.417580 0.000000 " />
<path stroke-linejoin="round" stroke-linecap="round" stroke="rgb(255,0,0)" stroke-width="3.749996" fill="none" d="M 35.754406 424.634918 L 36.186531 430.900665 " />
<path stroke-linejoin="round" stroke-linecap="round" stroke="rgb(0,0,255)" stroke-width="1.874998" fill="none" d="M 0.000000 750.000000 L 81.683167 0.000000 " />
<path stroke-linejoin="round" stroke-linecap="round" stroke="rgb(255,0,0)" stroke-width="3.749996" fill="none" d="M 35.630890 422.843719 L 35.754406 424.634918 " />
<path stroke-linejoin="round" stroke-linecap="round" stroke="rgb(0,0,255)" stroke-width="1.874998" fill="none" d="M 0.000000 750.000000 L 80.645149 0.000000 " />
<path stroke-linejoin="round" stroke-linecap="round" stroke="rgb(255,0,0)" stroke-width="3.749996" fill="none" d="M 35.453953 420.278229 L 35.630890 422.843719 " />
<path stroke-linejoin="round" stroke-linecap="round" stroke="rgb(0,0,255)" stroke-width="1.874998" fill="none" d="M 0.000000 750.000000 L 78.947380 0.000000 " />
<path stroke-linejoin="round" stroke-linecap="round" stroke="rgb(255,0,0)" stroke-width="3.749996" fill="none" d="M 35.158508 415.994171 L 35.453953 420.278137 " />
<path stroke-linejoin="round" stroke-linecap="round" stroke="rgb(0,0,255)" stroke-width="1.874998" fill="none" d="M 0.000000 750.000000 L 78.571426 0.000000 " />
<path stroke-linejoin="round" stroke-linecap="round" stroke="rgb(255,0,0)" stroke-width="3.749996" fill="none" d="M 35.092056 415.030457 L 35.158508 415.994171 " />
<path stroke-linejoin="round" stroke-linecap="round" stroke="rgb(0,0,255)" stroke-width="1.874998" fill="none" d="M 0.000000 750.000000 L 71.428566 0.000000 " />
<path stroke-linejoin="round" stroke-linecap="round" stroke="rgb(255,0,0)" stroke-width="3.749996" fill="none" d="M 33.752159 395.602234 L 35.092056 415.030457 " />
<path stroke-linejoin="round" stroke-linecap="round" stroke="rgb(0,0,255)" stroke-width="1.874998" fill="none" d="M 0.000000 750.000000 L 66.831688 0.000000 " />
<path stroke-linejoin="round" stroke-linecap="round" stroke="rgb(255,0,0)" stroke-width="3.749996" fill="none" d="M 32.804489 381.860779 L 33.752159 395.602234 " />
<path stroke-linejoin="round" stroke-linecap="round" stroke="rgb(0,0,255)" stroke-width="1.874998" fill="none" d="M 0.000000 750.000000 L 64.285713 0.000000 " />
<path stroke-linejoin="round" stroke-linecap="round" stroke="rgb(255,0,0)" stroke-width="3.749996" fill="none" d="M 32.247307 373.781525 L 32.804489 381.860718 " />
<path stroke-linejoin="round" stroke-linecap="round" stroke="rgb(0,0,255)" stroke-width="1.874998" fill="none" d="M 0.000000 750.000000 L 61.926617 0.000000 " />
<path stroke-linejoin="round" stroke-linecap="round" stroke="rgb(255,0,0)" stroke-width="3.749996" fill="none" d="M 31.708717 365.972168 L 32.247307 373.781525 " />
<path stroke-linejoin="round" stroke-linecap="round" stroke="rgb(0,0,255)" stroke-width="1.874998" fill="none" d="M 0.000000 750.000000 L 52.173904 0.000000 " />
<path stroke-linejoin="round" stroke-linecap="round" stroke="rgb(255,0,0)" stroke-width="3.749996" fill="none" d="M 29.222668 329.924286 L 31.708717 365.972229 " />
<path stroke-linejoin="round" stroke-linecap="round" stroke="rgb(0,0,255)" stroke-width="1.874998" fill="none" d="M 0.000000 750.000000 L 44.444450 0.000000 " />
<path stroke-linejoin="round" stroke-linecap="round" stroke="rgb(255,0,0)" stroke-width="3.749996" fill="none" d="M 26.894152 296.161072 L 29.222668 329.924286 " />
<path stroke-linejoin="round" stroke-linecap="round" stroke="rgb(0,0,255)" stroke-width="1.874998" fill="none" d="M 0.000000 750.000000 L 39.130436 0.000000 " />
<path stroke-linejoin="round" stroke-linecap="round" stroke="rgb(255,0,0)" stroke-width="3.749996" fill="none" d="M 25.063499 269.616364 L 26.894152 296.161072 " />
<path stroke-linejoin="round" stroke-linecap="round" stroke="rgb(0,0,255)" stroke-width="1.874998" fill="none" d="M 0.000000 750.000000 L 29.999994 0.000000 " />
<path stroke-linejoin="round" stroke-linecap="round" stroke="rgb(255,0,0)" stroke-width="3.749996" fill="none" d="M 21.362141 215.946655 L 25.063499 269.616333 " />
<path stroke-linejoin="round" stroke-linecap="round" stroke="rgb(0,0,255)" stroke-width="1.874998" fill="none" d="M 0.000000 750.000000 L 22.222214 0.000000 " />
<path stroke-linejoin="round" stroke-linecap="round" stroke="rgb(255,0,0)" stroke-width="3.749996" fill="none" d="M 17.488182 159.774185 L 21.362141 215.946655 " />
<path stroke-linejoin="round" stroke-linecap="round" stroke="rgb(0,0,255)" stroke-width="1.874998" fill="none" d="M 0.000000 750.000000 L 19.354843 0.000000 " />
<path stroke-linejoin="round" stroke-linecap="round" stroke="rgb(255,0,0)" stroke-width="3.749996" fill="none" d="M 15.846088 135.964035 L 17.488182 159.774185 " />
<path stroke-linejoin="round" stroke-linecap="round" stroke="rgb(0,0,255)" stroke-width="1.874998" fill="none" d="M 0.000000 750.000000 L 17.142847 0.000000 " />
<path stroke-linejoin="round" stroke-linecap="round" stroke="rgb(255,0,0)" stroke-width="3.749996" fill="none" d="M 14.485918 116.241348 L 15.846088 135.964035 " />
<path stroke-linejoin="round" stroke-linecap="round" stroke="rgb(0,0,255)" stroke-width="1.874998" fill="none" d="M 0.000000 750.000000 L 15.384615 0.000000 " />
<path stroke-linejoin="round" stroke-linecap="round" stroke="rgb(255,0,0)" stroke-width="3.749996" fill="none" d="M 13.340771 99.636978 L 14.485918 116.241348 " />
<path stroke-linejoin="round" stroke-linecap="round" stroke="rgb(0,0,255)" stroke-width="1.874998" fill="none" d="M 0.000000 750.000000 L 14.925376 0.000000 " />
<path stroke-linejoin="round" stroke-linecap="round" stroke="rgb(255,0,0)" stroke-width="3.749996" fill="none" d="M 13.031736 95.155701 L 13.340771 99.636978 " />
<path stroke-linejoin="round" stroke-linecap="round" stroke="rgb(0,0,255)" stroke-width="1.874998" fill="none" d="M 0.000000 750.000000 L 11.421315 0.000000 " />
<path stroke-linejoin="round" stroke-linecap="round" stroke="rgb(255,0,0)" stroke-width="3.749996" fill="none" d="M 10.525637 58.817268 L 13.031736 95.155701 " />
<path stroke-linejoin="round" stroke-linecap="round" stroke="rgb(0,0,255)" stroke-width="1.874998" fill="none" d="M 0.000000 750.000000 L 7.246367 0.000000 " />
<path stroke-linejoin="round" stroke-linecap="round" stroke="rgb(255,0,0)" stroke-width="3.749996" fill="none" d="M 7.072337 18.012867 L 10.525637 58.817268 " />
<path stroke-linejoin="round" stroke-linecap="round" stroke="rgb(0,0,255)" stroke-width="1.874998" fill="none" d="M 0.000000 750.000000 L 3.456228 0.000000 " />
<path stroke-linejoin="round" stroke-linecap="round" stroke="rgb(255,0,0)" stroke-width="3.749996" fill="none" d="M 3.427953 6.135039 L 7.072337 18.012867 " />
<path stroke-linejoin="round" stroke-linecap="round" stroke="rgb(0,0,255)" stroke-width="1.874998" fill="none" d="M 0.000000 750.000000 L 0.000000 0.000000 " />
<path stroke-linejoin="round" stroke-linecap="round" stroke="rgb(255,0,0)" stroke-width="3.749996" fill="none" d="M 0.000000 0.000000 L 3.427953 6.135039 " />
<circle cx="74.864142" cy="747.418508" r="3.749996" style="fill:rgb(0,127,0);stroke-width:1" /><circle cx="74.431300" cy="745.037913" r="3.749996" style="fill:rgb(0,127,0);stroke-width:1" /><circle cx="74.367687" cy="744.688019" r="3.749996" style="fill:rgb(0,127,0);stroke-width:1" /><circle cx="73.942736" cy="742.350742" r="3.749996" style="fill:rgb(0,127,0);stroke-width:1" /><circle cx="73.426321" cy="739.510529" r="3.749996" style="fill:rgb(0,127,0);stroke-width:1" /><circle cx="73.043704" cy="737.406246" r="3.749996" style="fill:rgb(0,127,0);stroke-width:1" /><circle cx="72.879620" cy="736.503772" r="3.749996" style="fill:rgb(0,127,0);stroke-width:1" /><circle cx="72.299927" cy="733.315408" r="3.749996" style="fill:rgb(0,127,0);stroke-width:1" /><circle cx="71.684115" cy="729.928449" r="3.749996" style="fill:rgb(0,127,0);stroke-width:1" /><circle cx="71.342289" cy="728.048533" r="3.749996" style="fill:rgb(0,127,0);stroke-width:1" /><circle cx="71.028695" cy="726.323761" r="3.749996" style="fill:rgb(0,127,0);stroke-width:1" /><circle cx="70.329778" cy="722.479664" r="3.749996" style="fill:rgb(0,127,0);stroke-width:1" /><circle cx="70.028298" cy="720.821545" r="3.749996" style="fill:rgb(0,127,0);stroke-width:1" /><circle cx="69.306806" cy="716.853261" r="3.749996" style="fill:rgb(0,127,0);stroke-width:1" /><circle cx="69.055684" cy="715.472147" r="3.749996" style="fill:rgb(0,127,0);stroke-width:1" /><circle cx="68.313159" cy="711.388215" r="3.749996" style="fill:rgb(0,127,0);stroke-width:1" /><circle cx="67.521103" cy="707.032017" r="3.749996" style="fill:rgb(0,127,0);stroke-width:1" /><circle cx="66.674463" cy="702.375390" r="3.749996" style="fill:rgb(0,127,0);stroke-width:1" /><circle cx="66.535391" cy="701.610625" r="3.749996" style="fill:rgb(0,127,0);stroke-width:1" /><circle cx="65.668032" cy="696.840160" r="3.749996" style="fill:rgb(0,127,0);stroke-width:1" /><circle cx="65.578043" cy="696.345225" r="3.749996" style="fill:rgb(0,127,0);stroke-width:1" /><circle cx="64.691573" cy="691.469528" r="3.749996" style="fill:rgb(0,127,0);stroke-width:1" /><circle cx="63.743703" cy="686.256297" r="3.749996" style="fill:rgb(0,127,0);stroke-width:1" /><circle cx="62.727861" cy="680.669211" r="3.749996" style="fill:rgb(0,127,0);stroke-width:1" /><circle cx="61.743893" cy="675.257407" r="3.749996" style="fill:rgb(0,127,0);stroke-width:1" /><circle cx="60.790323" cy="670.012750" r="3.749996" style="fill:rgb(0,127,0);stroke-width:1" /><circle cx="60.634241" cy="669.154331" r="3.749996" style="fill:rgb(0,127,0);stroke-width:1" /><circle cx="59.440322" cy="662.587769" r="3.749996" style="fill:rgb(0,127,0);stroke-width:1" /><circle cx="58.453761" cy="657.161683" r="3.749996" style="fill:rgb(0,127,0);stroke-width:1" /><circle cx="57.149515" cy="649.988338" r="3.749996" style="fill:rgb(0,127,0);stroke-width:1" /><circle cx="56.180879" cy="644.660845" r="3.749996" style="fill:rgb(0,127,0);stroke-width:1" /><circle cx="55.244543" cy="639.510915" r="3.749996" style="fill:rgb(0,127,0);stroke-width:1" /><circle cx="54.338895" cy="634.529851" r="3.749996" style="fill:rgb(0,127,0);stroke-width:1" /><circle cx="53.462461" cy="629.709452" r="3.749996" style="fill:rgb(0,127,0);stroke-width:1" /><circle cx="51.354624" cy="599.145792" r="3.749996" style="fill:rgb(0,127,0);stroke-width:1" /><circle cx="50.977014" cy="597.068958" r="3.749996" style="fill:rgb(0,127,0);stroke-width:1" /><circle cx="50.134420" cy="592.434660" r="3.749996" style="fill:rgb(0,127,0);stroke-width:1" /><circle cx="49.319230" cy="587.951079" r="3.749996" style="fill:rgb(0,127,0);stroke-width:1" /><circle cx="48.530124" cy="583.611019" r="3.749996" style="fill:rgb(0,127,0);stroke-width:1" /><circle cx="47.765873" cy="579.407617" r="3.749996" style="fill:rgb(0,127,0);stroke-width:1" /><circle cx="47.269598" cy="576.678135" r="3.749996" style="fill:rgb(0,127,0);stroke-width:1" /><circle cx="46.425506" cy="572.035588" r="3.749996" style="fill:rgb(0,127,0);stroke-width:1" /><circle cx="45.611009" cy="567.555942" r="3.749996" style="fill:rgb(0,127,0);stroke-width:1" /><circle cx="43.087855" cy="530.970074" r="3.749996" style="fill:rgb(0,127,0);stroke-width:1" /><circle cx="40.268295" cy="490.086459" r="3.749996" style="fill:rgb(0,127,0);stroke-width:1" /><circle cx="39.708406" cy="481.968194" r="3.749996" style="fill:rgb(0,127,0);stroke-width:1" /><circle cx="39.399393" cy="477.487475" r="3.749996" style="fill:rgb(0,127,0);stroke-width:1" /><circle cx="37.008941" cy="442.825768" r="3.749996" style="fill:rgb(0,127,0);stroke-width:1" /><circle cx="36.370866" cy="433.573544" r="3.749996" style="fill:rgb(0,127,0);stroke-width:1" /><circle cx="36.186531" cy="430.900667" r="3.749996" style="fill:rgb(0,127,0);stroke-width:1" /><circle cx="35.754405" cy="424.634887" r="3.749996" style="fill:rgb(0,127,0);stroke-width:1" /><circle cx="35.630889" cy="422.843708" r="3.749996" style="fill:rgb(0,127,0);stroke-width:1" /><circle cx="35.453953" cy="420.278228" r="3.749996" style="fill:rgb(0,127,0);stroke-width:1" /><circle cx="35.158508" cy="415.994167" r="3.749996" style="fill:rgb(0,127,0);stroke-width:1" /><circle cx="35.092056" cy="415.030466" r="3.749996" style="fill:rgb(0,127,0);stroke-width:1" /><circle cx="33.752158" cy="395.602226" r="3.749996" style="fill:rgb(0,127,0);stroke-width:1" /><circle cx="32.804489" cy="381.860769" r="3.749996" style="fill:rgb(0,127,0);stroke-width:1" /><circle cx="32.247305" cy="373.781526" r="3.749996" style="fill:rgb(0,127,0);stroke-width:1" /><circle cx="31.708717" cy="365.972185" r="3.749996" style="fill:rgb(0,127,0);stroke-width:1" /><circle cx="29.222667" cy="329.924298" r="3.749996" style="fill:rgb(0,127,0);stroke-width:1" /><circle cx="26.894152" cy="296.161082" r="3.749996" style="fill:rgb(0,127,0);stroke-width:1" /><circle cx="25.063500" cy="269.616365" r="3.749996" style="fill:rgb(0,127,0);stroke-width:1" /><circle cx="21.362141" cy="215.946648" r="3.749996" style="fill:rgb(0,127,0);stroke-width:1" /><circle cx="17.488182" cy="159.774184" r="3.749996" style="fill:rgb(0,127,0);stroke-width:1" /><circle cx="15.846089" cy="135.964036" r="3.749996" style="fill:rgb(0,127,0);stroke-width:1" /><circle cx="14.485918" cy="116.241351" r="3.749996" style="fill:rgb(0,127,0);stroke-width:1" /><circle cx="13.340771" cy="99.636979" r="3.749996" style="fill:rgb(0,127,0);stroke-width:1" /><circle cx="13.031736" cy="95.155701" r="3.749996" style="fill:rgb(0,127,0);stroke-width:1" /><circle cx="10.525636" cy="58.817267" r="3.749996" style="fill:rgb(0,127,0);stroke-width:1" /><circle cx="7.072337" cy="18.012866" r="3.749996" style="fill:rgb(0,127,0);stroke-width:1" /><circle cx="3.427953" cy="6.135039" r="3.749996" style="fill:rgb(0,127,0);stroke-width:1" /><circle cx="750.000000" cy="750.000000" r="3.749996" style="fill:rgb(0,127,0);stroke-width:1" /><path stroke-linejoin="round" stroke-linecap="round" stroke="rgb(255,255,255)" stroke-width="3.749996" fill="none" d="M 0.000000 750.000000 L 750.000000 750.000000 M 0.000000 750.000000 L 0.000000 0.000000 " />

</svg>