<svg xmlns="http://www.w3.org/2000/svg" version="1.1" width = "750" height = "750" viewBox = "0 0 750 750"  shape-rendering="crispEdges">
<path stroke-linejoin="round" stroke-linecap="round" stroke="rgb(255,255,0)" stroke-width="3.749996" fill="none" d="M 93.750000 750.000000 L 0.000000 0.000000 " />
<path stroke-linejoin="round" stroke-linecap="round" stroke="rgb(63,63,63)" stroke-width="3.749996" fill="none" d="M 0.000000 0.000000 L 750.000000 750.000000 M 93.750000 750.000000 L 43.750004 0.000000 " />
<path stroke-linejoin="round" stroke-linecap="round" stroke="rgb(191,191,191)" stroke-width="3.749996" fill="none" d="M 0.000000 656.250000 L 93.750000 750.000000 M 0.000000 0.000000 L 49.999996 750.000000 " />
<path stroke-linejoin="round" stroke-linecap="round" stroke="rgb(0,0,255)" stroke-width="1.874998" fill="none" d="M 0.000000 750.000000 L 750.000000 730.769226 " />
<path stroke-linejoin="round" stroke-linecap="round" stroke="rgb(255,0,0)" stroke-width="3.749996" fill="none" d="M 93.590004 747.600220 L 93.750000 750.000000 " />
<path stroke-linejoin="round" stroke-linecap="round" stroke="rgb(0,0,255)" stroke-width="1.874998" fill="none" d="M 0.000000 750.000000 L 750.000000 710.526306 " />
<path stroke-linejoin="round" stroke-linecap="round" stroke="rgb(255,0,0)" stroke-width="3.749996" fill="none" d="M 93.035172 745.103394 L 93.590004 747.600220 " />
<path stroke-linejoin="round" stroke-linecap="round" stroke="rgb(0,0,255)" stroke-width="1.874998" fill="none" d="M 0.000000 750.000000 L 750.000000 692.307678 " />
<path stroke-linejoin="round" stroke-linecap="round" stroke="rgb(255,0,0)" stroke-width="3.749996" fill="none" d="M 92.541397 742.881409 L 93.035172 745.103394 " />
<path stroke-linejoin="round" stroke-linecap="round" stroke="rgb(0,0,255)" stroke-width="1.874998" fill="none" d="M 0.000000 750.000000 L 750.000000 671.052612 " />
<path stroke-linejoin="round" stroke-linecap="round" stroke="rgb(255,0,0)" stroke-width="3.749996" fill="none" d="M 91.971916 740.318726 L 92.541397 742.881409 " />
<path stroke-linejoin="round" stroke-linecap="round" stroke="rgb(0,0,255)" stroke-width="1.874998" fill="none" d="M 0.000000 750.000000 L 750.000000 648.648682 " />
<path stroke-linejoin="round" stroke-linecap="round" stroke="rgb(255,0,0)" stroke-width="3.749996" fill="none" d="M 91.379173 737.651489 L 91.971916 740.318726 " />
<path stroke-linejoin="round" stroke-linecap="round" stroke="rgb(0,0,255)" stroke-width="1.874998" fill="none" d="M 0.000000 750.000000 L 750.000000 625.000000 " />
<path stroke-linejoin="round" stroke-linecap="round" stroke="rgb(255,0,0)" stroke-width="3.749996" fill="none" d="M 90.761749 734.873047 L 91.379173 737.651489 " />
<path stroke-linejoin="round" stroke-linecap="round" stroke="rgb(0,0,255)" stroke-width="1.874998" fill="none" d="M 0.000000 750.000000 L 750.000000 608.108093 " />
<path stroke-linejoin="round" stroke-linecap="round" stroke="rgb(255,0,0)" stroke-width="3.749996" fill="none" d="M 90.325829 732.911316 L 90.761749 734.873047 " />
<path stroke-linejoin="round" stroke-linecap="round" stroke="rgb(0,0,255)" stroke-width="1.874998" fill="none" d="M 0.000000 750.000000 L 750.000000 600.000000 " />
<path stroke-linejoin="round" stroke-linecap="round" stroke="rgb(255,0,0)" stroke-width="3.749996" fill="none" d="M 90.118065 731.976379 L 90.325829 732.911316 " />
<path stroke-linejoin="round" stroke-linecap="round" stroke="rgb(0,0,255)" stroke-width="1.874998" fill="none" d="M 0.000000 750.000000 L 750.000000 573.529419 " />
<path stroke-linejoin="round" stroke-linecap="round" stroke="rgb(255,0,0)" stroke-width="3.749996" fill="none" d="M 89.446350 728.953796 L 90.118065 731.976379 " />
<path stroke-linejoin="round" stroke-linecap="round" stroke="rgb(0,0,255)" stroke-width="1.874998" fill="none" d="M 0.000000 750.000000 L 750.000000 545.454590 " />
<path stroke-linejoin="round" stroke-linecap="round" stroke="rgb(255,0,0)" stroke-width="3.749996" fill="none" d="M 88.744820 725.796875 L 89.446350 728.953796 " />
<path stroke-linejoin="round" stroke-linecap="round" stroke="rgb(0,0,255)" stroke-width="1.874998" fill="none" d="M 0.000000 750.000000 L 750.000000 515.625000 " />
<path stroke-linejoin="round" stroke-linecap="round" stroke="rgb(255,0,0)" stroke-width="3.749996" fill="none" d="M 88.011391 722.496460 L 88.744820 725.796875 " />
<path stroke-linejoin="round" stroke-linecap="round" stroke="rgb(0,0,255)" stroke-width="1.874998" fill="none" d="M 0.000000 750.000000 L 750.000000 499.999969 " />
<path stroke-linejoin="round" stroke-linecap="round" stroke="rgb(255,0,0)" stroke-width="3.749996" fill="none" d="M 87.632034 720.789307 L 88.011391 722.496460 " />
<path stroke-linejoin="round" stroke-linecap="round" stroke="rgb(0,0,255)" stroke-width="1.874998" fill="none" d="M 0.000000 750.000000 L 750.000000 468.750000 " />
<path stroke-linejoin="round" stroke-linecap="round" stroke="rgb(255,0,0)" stroke-width="3.749996" fill="none" d="M 86.883057 717.418823 L 87.632034 720.789307 " />
<path stroke-linejoin="round" stroke-linecap="round" stroke="rgb(0,0,255)" stroke-width="1.874998" fill="none" d="M 0.000000 750.000000 L 750.000000 435.483917 " />
<path stroke-linejoin="round" stroke-linecap="round" stroke="rgb(255,0,0)" stroke-width="3.749996" fill="none" d="M 86.099670 713.893738 L 86.883057 717.418823 " />
<path stroke-linejoin="round" stroke-linecap="round" stroke="rgb(0,0,255)" stroke-width="1.874998" fill="none" d="M 0.000000 750.000000 L 750.000000 421.875000 " />
<path stroke-linejoin="round" stroke-linecap="round" stroke="rgb(255,0,0)" stroke-width="3.749996" fill="none" d="M 85.783257 712.469788 L 86.099670 713.893738 " />
<path stroke-linejoin="round" stroke-linecap="round" stroke="rgb(0,0,255)" stroke-width="1.874998" fill="none" d="M 0.000000 750.000000 L 750.000000 387.096771 " />
<path stroke-linejoin="round" stroke-linecap="round" stroke="rgb(255,0,0)" stroke-width="3.749996" fill="none" d="M 84.985123 708.878174 L 85.783279 712.469788 " />
<path stroke-linejoin="round" stroke-linecap="round" stroke="rgb(0,0,255)" stroke-width="1.874998" fill="none" d="M 0.000000 750.000000 L 750.000000 349.999969 " />
<path stroke-linejoin="round" stroke-linecap="round" stroke="rgb(255,0,0)" stroke-width="3.749996" fill="none" d="M 84.149971 705.120056 L 84.985123 708.878174 " />
<path stroke-linejoin="round" stroke-linecap="round" stroke="rgb(0,0,255)" stroke-width="1.874998" fill="none" d="M 0.000000 750.000000 L 750.000000 338.709656 " />
<path stroke-linejoin="round" stroke-linecap="round" stroke="rgb(255,0,0)" stroke-width="3.749996" fill="none" d="M 83.899048 703.990845 L 84.149971 705.120056 " />
<path stroke-linejoin="round" stroke-linecap="round" stroke="rgb(0,0,255)" stroke-width="1.874998" fill="none" d="M 0.000000 750.000000 L 750.000000 310.344818 " />
<path stroke-linejoin="round" stroke-linecap="round" stroke="rgb(255,0,0)" stroke-width="3.749996" fill="none" d="M 83.275215 701.183533 L 83.899048 703.990845 " />
<path stroke-linejoin="round" stroke-linecap="round" stroke="rgb(0,0,255)" stroke-width="1.874998" fill="none" d="M 0.000000 750.000000 L 750.000000 299.999969 " />
<path stroke-linejoin="round" stroke-linecap="round" stroke="rgb(255,0,0)" stroke-width="3.749996" fill="none" d="M 83.049995 700.169983 L 83.275215 701.183533 " />
<path stroke-linejoin="round" stroke-linecap="round" stroke="rgb(0,0,255)" stroke-width="1.874998" fill="none" d="M 0.000000 750.000000 L 750.000000 258.620697 " />
<path stroke-linejoin="round" stroke-linecap="round" stroke="rgb(255,0,0)" stroke-width="3.749996" fill="none" d="M 82.161156 696.170288 L 83.049995 700.169983 " />
<path stroke-linejoin="round" stroke-linecap="round" stroke="rgb(0,0,255)" stroke-width="1.874998" fill="none" d="M 0.000000 750.000000 L 750.000000 214.285706 " />
<path stroke-linejoin="round" stroke-linecap="round" stroke="rgb(255,0,0)" stroke-width="3.749996" fill="none" d="M 81.229713 691.978760 L 82.161156 696.170288 " />
<path stroke-linejoin="round" stroke-linecap="round" stroke="rgb(0,0,255)" stroke-width="1.874998" fill="none" d="M 0.000000 750.000000 L 750.000000 206.896576 " />
<path stroke-linejoin="round" stroke-linecap="round" stroke="rgb(255,0,0)" stroke-width="3.749996" fill="none" d="M 81.076515 691.289368 L 81.229713 691.978760 " />
<path stroke-linejoin="round" stroke-linecap="round" stroke="rgb(0,0,255)" stroke-width="1.874998" fill="none" d="M 0.000000 750.000000 L 750.000000 160.714294 " />
<path stroke-linejoin="round" stroke-linecap="round" stroke="rgb(255,0,0)" stroke-width="3.749996" fill="none" d="M 80.132019 687.039124 L 81.076515 691.289368 " />
<path stroke-linejoin="round" stroke-linecap="round" stroke="rgb(0,0,255)" stroke-width="1.874998" fill="none" d="M 0.000000 750.000000 L 750.000000 155.172409 " />
<path stroke-linejoin="round" stroke-linecap="round" stroke="rgb(255,0,0)" stroke-width="3.749996" fill="none" d="M 80.020149 686.535706 L 80.132019 687.039124 " />
<path stroke-linejoin="round" stroke-linecap="round" stroke="rgb(0,0,255)" stroke-width="1.874998" fill="none" d="M 0.000000 750.000000 L 750.000000 107.142853 " />
<path stroke-linejoin="round" stroke-linecap="round" stroke="rgb(255,0,0)" stroke-width="3.749996" fill="none" d="M 79.063583 682.231201 L 80.020149 686.535706 " />
<path stroke-linejoin="round" stroke-linecap="round" stroke="rgb(0,0,255)" stroke-width="1.874998" fill="none" d="M 0.000000 750.000000 L 750.000000 55.555569 " />
<path stroke-linejoin="round" stroke-linecap="round" stroke="rgb(255,0,0)" stroke-width="3.749996" fill="none" d="M 78.061310 677.721008 L 79.063583 682.231201 " />
<path stroke-linejoin="round" stroke-linecap="round" stroke="rgb(0,0,255)" stroke-width="1.874998" fill="none" d="M 0.000000 750.000000 L 750.000000 53.571449 " />
<path stroke-linejoin="round" stroke-linecap="round" stroke="rgb(255,0,0)" stroke-width="3.749996" fill="none" d="M 78.023270 677.549805 L 78.061310 677.721008 " />
<path stroke-linejoin="round" stroke-linecap="round" stroke="rgb(0,0,255)" stroke-width="1.874998" fill="none" d="M 0.000000 750.000000 L 750.000000 0.000000 " />
<path stroke-linejoin="round" stroke-linecap="round" stroke="rgb(255,0,0)" stroke-width="3.749996" fill="none" d="M 77.009979 672.990051 L 78.023270 677.549805 " />
<path stroke-linejoin="round" stroke-linecap="round" stroke="rgb(0,0,255)" stroke-width="1.874998" fill="none" d="M 0.000000 750.000000 L 696.428528 0.000000 " />
<path stroke-linejoin="round" stroke-linecap="round" stroke="rgb(255,0,0)" stroke-width="3.749996" fill="none" d="M 75.947777 668.210083 L 77.009979 672.990051 " />
<path stroke-linejoin="round" stroke-linecap="round" stroke="rgb(0,0,255)" stroke-width="1.874998" fill="none" d="M 0.000000 750.000000 L 650.000000 0.000000 " />
<path stroke-linejoin="round" stroke-linecap="round" stroke="rgb(255,0,0)" stroke-width="3.749996" fill="none" d="M 74.914474 663.560242 L 75.947777 668.210083 " />
<path stroke-linejoin="round" stroke-linecap="round" stroke="rgb(0,0,255)" stroke-width="1.874998" fill="none" d="M 0.000000 750.000000 L 506.250000 0.000000 " />
<path stroke-linejoin="round" stroke-linecap="round" stroke="rgb(255,0,0)" stroke-width="3.749996" fill="none" d="M 73.023720 641.816650 L 74.914474 663.560242 " />
<path stroke-linejoin="round" stroke-linecap="round" stroke="rgb(0,0,255)" stroke-width="1.874998" fill="none" d="M 0.000000 750.000000 L 460.227295 0.000000 " />
<path stroke-linejoin="round" stroke-linecap="round" stroke="rgb(255,0,0)" stroke-width="3.749996" fill="none" d="M 72.199768 632.341125 L 73.023720 641.816650 " />
<path stroke-linejoin="round" stroke-linecap="round" stroke="rgb(0,0,255)" stroke-width="1.874998" fill="none" d="M 0.000000 750.000000 L 450.000031 0.000000 " />
<path stroke-linejoin="round" stroke-linecap="round" stroke="rgb(255,0,0)" stroke-width="3.749996" fill="none" d="M 71.766144 630.389771 L 72.199768 632.341125 " />
<path stroke-linejoin="round" stroke-linecap="round" stroke="rgb(0,0,255)" stroke-width="1.874998" fill="none" d="M 0.000000 750.000000 L 420.731720 0.000000 " />
<path stroke-linejoin="round" stroke-linecap="round" stroke="rgb(255,0,0)" stroke-width="3.749996" fill="none" d="M 70.441734 624.429932 L 71.766144 630.389771 " />
<path stroke-linejoin="round" stroke-linecap="round" stroke="rgb(0,0,255)" stroke-width="1.874998" fill="none" d="M 0.000000 750.000000 L 392.857178 0.000000 " />
<path stroke-linejoin="round" stroke-linecap="round" stroke="rgb(255,0,0)" stroke-width="3.749996" fill="none" d="M 69.051590 618.174255 L 70.441734 624.429932 " />
<path stroke-linejoin="round" stroke-linecap="round" stroke="rgb(0,0,255)" stroke-width="1.874998" fill="none" d="M 0.000000 750.000000 L 375.000000 0.000000 " />
<path stroke-linejoin="round" stroke-linecap="round" stroke="rgb(255,0,0)" stroke-width="3.749996" fill="none" d="M 68.085823 613.828369 L 69.051590 618.174255 " />
<path stroke-linejoin="round" stroke-linecap="round" stroke="rgb(0,0,255)" stroke-width="1.874998" fill="none" d="M 0.000000 750.000000 L 360.576935 0.000000 " />
<path stroke-linejoin="round" stroke-linecap="round" stroke="rgb(255,0,0)" stroke-width="3.749996" fill="none" d="M 67.684738 609.215759 L 68.085823 613.828369 " />
<path stroke-linejoin="round" stroke-linecap="round" stroke="rgb(0,0,255)" stroke-width="1.874998" fill="none" d="M 0.000000 750.000000 L 343.750000 0.000000 " />
<path stroke-linejoin="round" stroke-linecap="round" stroke="rgb(255,0,0)" stroke-width="3.749996" fill="none" d="M 66.653343 604.574524 L 67.684738 609.215759 " />
<path stroke-linejoin="round" stroke-linecap="round" stroke="rgb(0,0,255)" stroke-width="1.874998" fill="none" d="M 0.000000 750.000000 L 330.000000 0.000000 " />
<path stroke-linejoin="round" stroke-linecap="round" stroke="rgb(255,0,0)" stroke-width="3.749996" fill="none" d="M 65.758667 600.548462 L 66.653343 604.574524 " />
<path stroke-linejoin="round" stroke-linecap="round" stroke="rgb(0,0,255)" stroke-width="1.874998" fill="none" d="M 0.000000 750.000000 L 308.823547 0.000000 " />
<path stroke-linejoin="round" stroke-linecap="round" stroke="rgb(255,0,0)" stroke-width="3.749996" fill="none" d="M 64.279541 593.892517 L 65.758667 600.548462 " />
<path stroke-linejoin="round" stroke-linecap="round" stroke="rgb(0,0,255)" stroke-width="1.874998" fill="none" d="M 0.000000 750.000000 L 288.461548 0.000000 " />
<path stroke-linejoin="round" stroke-linecap="round" stroke="rgb(255,0,0)" stroke-width="3.749996" fill="none" d="M 62.727528 586.908386 L 64.279541 593.892517 " />
<path stroke-linejoin="round" stroke-linecap="round" stroke="rgb(0,0,255)" stroke-width="1.874998" fill="none" d="M 0.000000 750.000000 L 277.777771 0.000000 " />
<path stroke-linejoin="round" stroke-linecap="round" stroke="rgb(255,0,0)" stroke-width="3.749996" fill="none" d="M 61.856323 582.987915 L 62.727528 586.908386 " />
<path stroke-linejoin="round" stroke-linecap="round" stroke="rgb(0,0,255)" stroke-width="1.874998" fill="none" d="M 0.000000 750.000000 L 269.531250 0.000000 " />
<path stroke-linejoin="round" stroke-linecap="round" stroke="rgb(255,0,0)" stroke-width="3.749996" fill="none" d="M 61.498562 578.873596 L 61.856323 582.987915 " />
<path stroke-linejoin="round" stroke-linecap="round" stroke="rgb(0,0,255)" stroke-width="1.874998" fill="none" d="M 0.000000 750.000000 L 267.857147 0.000000 " />
<path stroke-linejoin="round" stroke-linecap="round" stroke="rgb(255,0,0)" stroke-width="3.749996" fill="none" d="M 61.352043 578.214294 L 61.498562 578.873596 " />
<path stroke-linejoin="round" stroke-linecap="round" stroke="rgb(0,0,255)" stroke-width="1.874998" fill="none" d="M 0.000000 750.000000 L 258.620667 0.000000 " />
<path stroke-linejoin="round" stroke-linecap="round" stroke="rgb(255,0,0)" stroke-width="3.749996" fill="none" d="M 60.522953 574.483398 L 61.352043 578.214294 " />
<path stroke-linejoin="round" stroke-linecap="round" stroke="rgb(0,0,255)" stroke-width="1.874998" fill="none" d="M 0.000000 750.000000 L 241.525406 0.000000 " />
<path stroke-linejoin="round" stroke-linecap="round" stroke="rgb(255,0,0)" stroke-width="3.749996" fill="none" d="M 58.889465 567.132690 L 60.522953 574.483398 " />
<path stroke-linejoin="round" stroke-linecap="round" stroke="rgb(0,0,255)" stroke-width="1.874998" fill="none" d="M 0.000000 750.000000 L 225.000015 0.000000 " />
<path stroke-linejoin="round" stroke-linecap="round" stroke="rgb(255,0,0)" stroke-width="3.749996" fill="none" d="M 57.174885 559.417053 L 58.889465 567.132690 " />
<path stroke-linejoin="round" stroke-linecap="round" stroke="rgb(0,0,255)" stroke-width="1.874998" fill="none" d="M 0.000000 750.000000 L 217.741928 0.000000 " />
<path stroke-linejoin="round" stroke-linecap="round" stroke="rgb(255,0,0)" stroke-width="3.749996" fill="none" d="M 56.375229 555.818604 L 57.174885 559.417053 " />
<path stroke-linejoin="round" stroke-linecap="round" stroke="rgb(0,0,255)" stroke-width="1.874998" fill="none" d="M 0.000000 750.000000 L 210.937500 0.000000 " />
<path stroke-linejoin="round" stroke-linecap="round" stroke="rgb(255,0,0)" stroke-width="3.749996" fill="none" d="M 55.597633 552.319519 L 56.375229 555.818604 " />
<path stroke-linejoin="round" stroke-linecap="round" stroke="rgb(0,0,255)" stroke-width="1.874998" fill="none" d="M 0.000000 750.000000 L 196.153839 0.000000 " />
<path stroke-linejoin="round" stroke-linecap="round" stroke="rgb(255,0,0)" stroke-width="3.749996" fill="none" d="M 53.807705 544.264648 L 55.597656 552.319519 " />
<path stroke-linejoin="round" stroke-linecap="round" stroke="rgb(0,0,255)" stroke-width="1.874998" fill="none" d="M 0.000000 750.000000 L 181.818192 0.000000 " />
<path stroke-linejoin="round" stroke-linecap="round" stroke="rgb(255,0,0)" stroke-width="3.749996" fill="none" d="M 51.926964 535.801270 L 53.807705 544.264648 " />
<path stroke-linejoin="round" stroke-linecap="round" stroke="rgb(0,0,255)" stroke-width="1.874998" fill="none" d="M 0.000000 750.000000 L 176.470581 0.000000 " />
<path stroke-linejoin="round" stroke-linecap="round" stroke="rgb(255,0,0)" stroke-width="3.749996" fill="none" d="M 51.185131 532.463135 L 51.926964 535.801270 " />
<path stroke-linejoin="round" stroke-linecap="round" stroke="rgb(0,0,255)" stroke-width="1.874998" fill="none" d="M 0.000000 750.000000 L 171.428558 0.000000 " />
<path stroke-linejoin="round" stroke-linecap="round" stroke="rgb(255,0,0)" stroke-width="3.749996" fill="none" d="M 50.464222 529.218994 L 51.185131 532.463135 " />
<path stroke-linejoin="round" stroke-linecap="round" stroke="rgb(0,0,255)" stroke-width="1.874998" fill="none" d="M 0.000000 750.000000 L 140.625000 0.000000 " />
<path stroke-linejoin="round" stroke-linecap="round" stroke="rgb(255,0,0)" stroke-width="3.749996" fill="none" d="M 47.591263 496.179932 L 50.464222 529.218994 " />
<path stroke-linejoin="round" stroke-linecap="round" stroke="rgb(0,0,255)" stroke-width="1.874998" fill="none" d="M 0.000000 750.000000 L 116.666656 0.000000 " />
<path stroke-linejoin="round" stroke-linecap="round" stroke="rgb(255,0,0)" stroke-width="3.749996" fill="none" d="M 44.683971 462.745972 L 47.591263 496.179932 " />
<path stroke-linejoin="round" stroke-linecap="round" stroke="rgb(0,0,255)" stroke-width="1.874998" fill="none" d="M 0.000000 750.000000 L 112.500008 0.000000 " />
<path stroke-linejoin="round" stroke-linecap="round" stroke="rgb(255,0,0)" stroke-width="3.749996" fill="none" d="M 44.098331 456.011169 L 44.683971 462.745972 " />
<path stroke-linejoin="round" stroke-linecap="round" stroke="rgb(0,0,255)" stroke-width="1.874998" fill="none" d="M 0.000000 750.000000 L 107.142853 0.000000 " />
<path stroke-linejoin="round" stroke-linecap="round" stroke="rgb(255,0,0)" stroke-width="3.749996" fill="none" d="M 42.820126 450.259216 L 44.098331 456.011169 " />
<path stroke-linejoin="round" stroke-linecap="round" stroke="rgb(0,0,255)" stroke-width="1.874998" fill="none" d="M 0.000000 750.000000 L 95.454544 0.000000 " />
<path stroke-linejoin="round" stroke-linecap="round" stroke="rgb(255,0,0)" stroke-width="3.749996" fill="none" d="M 40.924026 428.454102 L 42.820126 450.259216 " />
<path stroke-linejoin="round" stroke-linecap="round" stroke="rgb(0,0,255)" stroke-width="1.874998" fill="none" d="M 0.000000 750.000000 L 90.909096 0.000000 " />
<path stroke-linejoin="round" stroke-linecap="round" stroke="rgb(255,0,0)" stroke-width="3.749996" fill="none" d="M 39.663055 422.779755 L 40.924026 428.454102 " />
<path stroke-linejoin="round" stroke-linecap="round" stroke="rgb(0,0,255)" stroke-width="1.874998" fill="none" d="M 0.000000 750.000000 L 89.449547 0.000000 " />
<path stroke-linejoin="round" stroke-linecap="round" stroke="rgb(255,0,0)" stroke-width="3.749996" fill="none" d="M 39.394543 419.691864 L 39.663055 422.779755 " />
<path stroke-linejoin="round" stroke-linecap="round" stroke="rgb(0,0,255)" stroke-width="1.874998" fill="none" d="M 0.000000 750.000000 L 89.108910 0.000000 " />
<path stroke-linejoin="round" stroke-linecap="round" stroke="rgb(255,0,0)" stroke-width="3.749996" fill="none" d="M 39.296799 419.251984 L 39.394543 419.691864 " />
<path stroke-linejoin="round" stroke-linecap="round" stroke="rgb(0,0,255)" stroke-width="1.874998" fill="none" d="M 0.000000 750.000000 L 82.500008 0.000000 " />
<path stroke-linejoin="round" stroke-linecap="round" stroke="rgb(255,0,0)" stroke-width="3.749996" fill="none" d="M 38.010033 404.454224 L 39.296799 419.251984 " />
<path stroke-linejoin="round" stroke-linecap="round" stroke="rgb(0,0,255)" stroke-width="1.874998" fill="none" d="M 0.000000 750.000000 L 74.257423 0.000000 " />
<path stroke-linejoin="round" stroke-linecap="round" stroke="rgb(255,0,0)" stroke-width="3.749996" fill="none" d="M 35.382942 392.632294 L 38.010033 404.454224 " />
<path stroke-linejoin="round" stroke-linecap="round" stroke="rgb(0,0,255)" stroke-width="1.874998" fill="none" d="M 0.000000 750.000000 L 60.810818 0.000000 " />
<path stroke-linejoin="round" stroke-linecap="round" stroke="rgb(255,0,0)" stroke-width="3.749996" fill="none" d="M 32.067329 354.502838 L 35.382942 392.632294 " />
<path stroke-linejoin="round" stroke-linecap="round" stroke="rgb(0,0,255)" stroke-width="1.874998" fill="none" d="M 0.000000 750.000000 L 53.571426 0.000000 " />
<path stroke-linejoin="round" stroke-linecap="round" stroke="rgb(255,0,0)" stroke-width="3.749996" fill="none" d="M 29.178389 341.502563 L 32.067329 354.502838 " />
<path stroke-linejoin="round" stroke-linecap="round" stroke="rgb(0,0,255)" stroke-width="1.874998" fill="none" d="M 0.000000 750.000000 L 52.631580 0.000000 " />
<path stroke-linejoin="round" stroke-linecap="round" stroke="rgb(255,0,0)" stroke-width="3.749996" fill="none" d="M 28.789356 339.751831 L 29.178389 341.502563 " />
<path stroke-linejoin="round" stroke-linecap="round" stroke="rgb(0,0,255)" stroke-width="1.874998" fill="none" d="M 0.000000 750.000000 L 51.526711 0.000000 " />
<path stroke-linejoin="round" stroke-linecap="round" stroke="rgb(255,0,0)" stroke-width="3.749996" fill="none" d="M 28.451733 335.869202 L 28.789356 339.751831 " />
<path stroke-linejoin="round" stroke-linecap="round" stroke="rgb(0,0,255)" stroke-width="1.874998" fill="none" d="M 0.000000 750.000000 L 49.999996 0.000000 " />
<path stroke-linejoin="round" stroke-linecap="round" stroke="rgb(255,0,0)" stroke-width="3.749996" fill="none" d="M 27.803265 332.951111 L 28.451733 335.869202 " />
<path stroke-linejoin="round" stroke-linecap="round" stroke="rgb(0,0,255)" stroke-width="1.874998" fill="none" d="M 0.000000 750.000000 L 45.801537 0.000000 " />
<path stroke-linejoin="round" stroke-linecap="round" stroke="rgb(255,0,0)" stroke-width="3.749996" fill="none" d="M 25.971920 324.710022 L 27.803265 332.951111 " />
<path stroke-linejoin="round" stroke-linecap="round" stroke="rgb(0,0,255)" stroke-width="1.874998" fill="none" d="M 0.000000 750.000000 L 42.682930 0.000000 " />
<path stroke-linejoin="round" stroke-linecap="round" stroke="rgb(255,0,0)" stroke-width="3.749996" fill="none" d="M 24.564051 318.374603 L 25.971920 324.710022 " />
<path stroke-linejoin="round" stroke-linecap="round" stroke="rgb(0,0,255)" stroke-width="1.874998" fill="none" d="M 0.000000 750.000000 L 36.290333 0.000000 " />
<path stroke-linejoin="round" stroke-linecap="round" stroke="rgb(255,0,0)" stroke-width="3.749996" fill="none" d="M 21.542921 304.779541 L 24.564051 318.374603 " />
<path stroke-linejoin="round" stroke-linecap="round" stroke="rgb(0,0,255)" stroke-width="1.874998" fill="none" d="M 0.000000 750.000000 L 35.714283 0.000000 " />
<path stroke-linejoin="round" stroke-linecap="round" stroke="rgb(255,0,0)" stroke-width="3.749996" fill="none" d="M 21.261312 303.512329 L 21.542921 304.779541 " />
<path stroke-linejoin="round" stroke-linecap="round" stroke="rgb(0,0,255)" stroke-width="1.874998" fill="none" d="M 0.000000 750.000000 L 33.582085 0.000000 " />
<path stroke-linejoin="round" stroke-linecap="round" stroke="rgb(255,0,0)" stroke-width="3.749996" fill="none" d="M 20.229488 298.208130 L 21.261312 303.512329 " />
<path stroke-linejoin="round" stroke-linecap="round" stroke="rgb(0,0,255)" stroke-width="1.874998" fill="none" d="M 0.000000 750.000000 L 33.088245 0.000000 " />
<path stroke-linejoin="round" stroke-linecap="round" stroke="rgb(255,0,0)" stroke-width="3.749996" fill="none" d="M 19.981272 297.091217 L 20.229488 298.208130 " />
<path stroke-linejoin="round" stroke-linecap="round" stroke="rgb(0,0,255)" stroke-width="1.874998" fill="none" d="M 0.000000 750.000000 L 29.999994 0.000000 " />
<path stroke-linejoin="round" stroke-linecap="round" stroke="rgb(255,0,0)" stroke-width="3.749996" fill="none" d="M 18.767103 280.822235 L 19.981272 297.091217 " />
<path stroke-linejoin="round" stroke-linecap="round" stroke="rgb(0,0,255)" stroke-width="1.874998" fill="none" d="M 0.000000 750.000000 L 23.809523 0.000000 " />
<path stroke-linejoin="round" stroke-linecap="round" stroke="rgb(255,0,0)" stroke-width="3.749996" fill="none" d="M 16.132727 241.819107 L 18.767103 280.822174 " />
<path stroke-linejoin="round" stroke-linecap="round" stroke="rgb(0,0,255)" stroke-width="1.874998" fill="none" d="M 0.000000 750.000000 L 23.437500 0.000000 " />
<path stroke-linejoin="round" stroke-linecap="round" stroke="rgb(255,0,0)" stroke-width="3.749996" fill="none" d="M 15.958384 239.332031 L 16.132727 241.819107 " />
<path stroke-linejoin="round" stroke-linecap="round" stroke="rgb(0,0,255)" stroke-width="1.874998" fill="none" d="M 0.000000 750.000000 L 22.388063 0.000000 " />
<path stroke-linejoin="round" stroke-linecap="round" stroke="rgb(255,0,0)" stroke-width="3.749996" fill="none" d="M 15.464142 231.951263 L 15.958384 239.332031 " />
<path stroke-linejoin="round" stroke-linecap="round" stroke="rgb(0,0,255)" stroke-width="1.874998" fill="none" d="M 0.000000 750.000000 L 22.058823 0.000000 " />
<path stroke-linejoin="round" stroke-linecap="round" stroke="rgb(255,0,0)" stroke-width="3.749996" fill="none" d="M 15.306182 229.589981 L 15.464142 231.951309 " />
<path stroke-linejoin="round" stroke-linecap="round" stroke="rgb(0,0,255)" stroke-width="1.874998" fill="none" d="M 0.000000 750.000000 L 21.739124 0.000000 " />
<path stroke-linejoin="round" stroke-linecap="round" stroke="rgb(255,0,0)" stroke-width="3.749996" fill="none" d="M 15.151530 227.272293 L 15.306182 229.589981 " />
<path stroke-linejoin="round" stroke-linecap="round" stroke="rgb(0,0,255)" stroke-width="1.874998" fill="none" d="M 0.000000 750.000000 L 21.126755 0.000000 " />
<path stroke-linejoin="round" stroke-linecap="round" stroke="rgb(255,0,0)" stroke-width="3.749996" fill="none" d="M 14.851480 222.772171 L 15.151530 227.272339 " />
<path stroke-linejoin="round" stroke-linecap="round" stroke="rgb(0,0,255)" stroke-width="1.874998" fill="none" d="M 0.000000 750.000000 L 20.833344 0.000000 " />
<path stroke-linejoin="round" stroke-linecap="round" stroke="rgb(255,0,0)" stroke-width="3.749996" fill="none" d="M 14.705881 220.588226 L 14.851480 222.772171 " />
<path stroke-linejoin="round" stroke-linecap="round" stroke="rgb(0,0,255)" stroke-width="1.874998" fill="none" d="M 0.000000 750.000000 L 19.867546 0.000000 " />
<path stroke-linejoin="round" stroke-linecap="round" stroke="rgb(255,0,0)" stroke-width="3.749996" fill="none" d="M 14.218010 213.270126 L 14.705881 220.588226 " />
<path stroke-linejoin="round" stroke-linecap="round" stroke="rgb(0,0,255)" stroke-width="1.874998" fill="none" d="M 0.000000 750.000000 L 19.607841 0.000000 " />
<path stroke-linejoin="round" stroke-linecap="round" stroke="rgb(255,0,0)" stroke-width="3.749996" fill="none" d="M 14.084503 211.267639 L 14.218010 213.270172 " />
<path stroke-linejoin="round" stroke-linecap="round" stroke="rgb(0,0,255)" stroke-width="1.874998" fill="none" d="M 0.000000 750.000000 L 19.354843 0.000000 " />
<path stroke-linejoin="round" stroke-linecap="round" stroke="rgb(255,0,0)" stroke-width="3.749996" fill="none" d="M 13.953477 209.302383 L 14.084503 211.267731 " />
<path stroke-linejoin="round" stroke-linecap="round" stroke="rgb(0,0,255)" stroke-width="1.874998" fill="none" d="M 0.000000 750.000000 L 18.633530 0.000000 " />
<path stroke-linejoin="round" stroke-linecap="round" stroke="rgb(255,0,0)" stroke-width="3.749996" fill="none" d="M 13.574659 203.619980 L 13.953477 209.302383 " />
<path stroke-linejoin="round" stroke-linecap="round" stroke="rgb(0,0,255)" stroke-width="1.874998" fill="none" d="M 0.000000 750.000000 L 18.404917 0.000000 " />
<path stroke-linejoin="round" stroke-linecap="round" stroke="rgb(255,0,0)" stroke-width="3.749996" fill="none" d="M 13.452909 201.793808 L 13.574659 203.619980 " />
<path stroke-linejoin="round" stroke-linecap="round" stroke="rgb(0,0,255)" stroke-width="1.874998" fill="none" d="M 0.000000 750.000000 L 17.647058 0.000000 " />
<path stroke-linejoin="round" stroke-linecap="round" stroke="rgb(255,0,0)" stroke-width="3.749996" fill="none" d="M 13.043470 195.652313 L 13.452909 201.793808 " />
<path stroke-linejoin="round" stroke-linecap="round" stroke="rgb(0,0,255)" stroke-width="1.874998" fill="none" d="M 0.000000 750.000000 L 15.517250 0.000000 " />
<path stroke-linejoin="round" stroke-linecap="round" stroke="rgb(255,0,0)" stroke-width="3.749996" fill="none" d="M 11.842110 177.631744 L 13.043470 195.652313 " />
<path stroke-linejoin="round" stroke-linecap="round" stroke="rgb(0,0,255)" stroke-width="1.874998" fill="none" d="M 0.000000 750.000000 L 10.273978 0.000000 " />
<path stroke-linejoin="round" stroke-linecap="round" stroke="rgb(255,0,0)" stroke-width="3.749996" fill="none" d="M 8.522719 127.841148 L 11.842110 177.631790 " />
<path stroke-linejoin="round" stroke-linecap="round" stroke="rgb(0,0,255)" stroke-width="1.874998" fill="none" d="M 0.000000 750.000000 L 5.102031 0.000000 " />
<path stroke-linejoin="round" stroke-linecap="round" stroke="rgb(255,0,0)" stroke-width="3.749996" fill="none" d="M 4.629627 69.444717 L 8.522719 127.841148 " />
<path stroke-linejoin="round" stroke-linecap="round" stroke="rgb(0,0,255)" stroke-width="1.874998" fill="none" d="M 0.000000 750.000000 L 0.000000 0.000000 " />
<path stroke-linejoin="round" stroke-linecap="round" stroke="rgb(255,0,0)" stroke-width="3.749996" fill="none" d="M 0.000000 0.000000 L 4.629627 69.444717 " />
<circle cx="93.590006" cy="747.600272" r="3.749996" style="fill:rgb(0,127,0);stroke-width:1" /><circle cx="93.035169" cy="745.103404" r="3.749996" style="fill:rgb(0,127,0);stroke-width:1" /><circle cx="92.541397" cy="742.881440" r="3.749996" style="fill:rgb(0,127,0);stroke-width:1" /><circle cx="91.971919" cy="740.318745" r="3.749996" style="fill:rgb(0,127,0);stroke-width:1" /><circle cx="91.379173" cy="737.651467" r="3.749996" style="fill:rgb(0,127,0);stroke-width:1" /><circle cx="90.761751" cy="734.873034" r="3.749996" style="fill:rgb(0,127,0);stroke-width:1" /><circle cx="90.325825" cy="732.911333" r="3.749996" style="fill:rgb(0,127,0);stroke-width:1" /><circle cx="90.118065" cy="731.976382" r="3.749996" style="fill:rgb(0,127,0);stroke-width:1" /><circle cx="89.446351" cy="728.953801" r="3.749996" style="fill:rgb(0,127,0);stroke-width:1" /><circle cx="88.744819" cy="725.796863" r="3.749996" style="fill:rgb(0,127,0);stroke-width:1" /><circle cx="88.011391" cy="722.496450" r="3.749996" style="fill:rgb(0,127,0);stroke-width:1" /><circle cx="87.632038" cy="720.789313" r="3.749996" style="fill:rgb(0,127,0);stroke-width:1" /><circle cx="86.883053" cy="717.418849" r="3.749996" style="fill:rgb(0,127,0);stroke-width:1" /><circle cx="86.099669" cy="713.893689" r="3.749996" style="fill:rgb(0,127,0);stroke-width:1" /><circle cx="85.783258" cy="712.469816" r="3.749996" style="fill:rgb(0,127,0);stroke-width:1" /><circle cx="84.985122" cy="708.878160" r="3.749996" style="fill:rgb(0,127,0);stroke-width:1" /><circle cx="84.149972" cy="705.120005" r="3.749996" style="fill:rgb(0,127,0);stroke-width:1" /><circle cx="83.899051" cy="703.990839" r="3.749996" style="fill:rgb(0,127,0);stroke-width:1" /><circle cx="83.275214" cy="701.183505" r="3.749996" style="fill:rgb(0,127,0);stroke-width:1" /><circle cx="83.049998" cy="700.170010" r="3.749996" style="fill:rgb(0,127,0);stroke-width:1" /><circle cx="82.161158" cy="696.170278" r="3.749996" style="fill:rgb(0,127,0);stroke-width:1" /><circle cx="81.229717" cy="691.978768" r="3.749996" style="fill:rgb(0,127,0);stroke-width:1" /><circle cx="81.076518" cy="691.289417" r="3.749996" style="fill:rgb(0,127,0);stroke-width:1" /><circle cx="80.132023" cy="687.039122" r="3.749996" style="fill:rgb(0,127,0);stroke-width:1" /><circle cx="80.020152" cy="686.535738" r="3.749996" style="fill:rgb(0,127,0);stroke-width:1" /><circle cx="79.063587" cy="682.231218" r="3.749996" style="fill:rgb(0,127,0);stroke-width:1" /><circle cx="78.061312" cy="677.720994" r="3.749996" style="fill:rgb(0,127,0);stroke-width:1" /><circle cx="78.023270" cy="677.549824" r="3.749996" style="fill:rgb(0,127,0);stroke-width:1" /><circle cx="77.009976" cy="672.990024" r="3.749996" style="fill:rgb(0,127,0);stroke-width:1" /><circle cx="75.947776" cy="668.210082" r="3.749996" style="fill:rgb(0,127,0);stroke-width:1" /><circle cx="74.914478" cy="663.560227" r="3.749996" style="fill:rgb(0,127,0);stroke-width:1" /><circle cx="73.023722" cy="641.816698" r="3.749996" style="fill:rgb(0,127,0);stroke-width:1" /><circle cx="72.199769" cy="632.341102" r="3.749996" style="fill:rgb(0,127,0);stroke-width:1" /><circle cx="71.766146" cy="630.389750" r="3.749996" style="fill:rgb(0,127,0);stroke-width:1" /><circle cx="70.441738" cy="624.429926" r="3.749996" style="fill:rgb(0,127,0);stroke-width:1" /><circle cx="69.051594" cy="618.174255" r="3.749996" style="fill:rgb(0,127,0);stroke-width:1" /><circle cx="68.085819" cy="613.828361" r="3.749996" style="fill:rgb(0,127,0);stroke-width:1" /><circle cx="67.684740" cy="609.215766" r="3.749996" style="fill:rgb(0,127,0);stroke-width:1" /><circle cx="66.653341" cy="604.574516" r="3.749996" style="fill:rgb(0,127,0);stroke-width:1" /><circle cx="65.758668" cy="600.548476" r="3.749996" style="fill:rgb(0,127,0);stroke-width:1" /><circle cx="64.279541" cy="593.892530" r="3.749996" style="fill:rgb(0,127,0);stroke-width:1" /><circle cx="62.727526" cy="586.908415" r="3.749996" style="fill:rgb(0,127,0);stroke-width:1" /><circle cx="61.856322" cy="582.987919" r="3.749996" style="fill:rgb(0,127,0);stroke-width:1" /><circle cx="61.498560" cy="578.873590" r="3.749996" style="fill:rgb(0,127,0);stroke-width:1" /><circle cx="61.352044" cy="578.214303" r="3.749996" style="fill:rgb(0,127,0);stroke-width:1" /><circle cx="60.522951" cy="574.483417" r="3.749996" style="fill:rgb(0,127,0);stroke-width:1" /><circle cx="58.889464" cy="567.132711" r="3.749996" style="fill:rgb(0,127,0);stroke-width:1" /><circle cx="57.174884" cy="559.417069" r="3.749996" style="fill:rgb(0,127,0);stroke-width:1" /><circle cx="56.375228" cy="555.818640" r="3.749996" style="fill:rgb(0,127,0);stroke-width:1" /><circle cx="55.597633" cy="552.319475" r="3.749996" style="fill:rgb(0,127,0);stroke-width:1" /><circle cx="53.807706" cy="544.264667" r="3.749996" style="fill:rgb(0,127,0);stroke-width:1" /><circle cx="51.926963" cy="535.801291" r="3.749996" style="fill:rgb(0,127,0);stroke-width:1" /><circle cx="51.185131" cy="532.463148" r="3.749996" style="fill:rgb(0,127,0);stroke-width:1" /><circle cx="50.464220" cy="529.219016" r="3.749996" style="fill:rgb(0,127,0);stroke-width:1" /><circle cx="47.591262" cy="496.179923" r="3.749996" style="fill:rgb(0,127,0);stroke-width:1" /><circle cx="44.683971" cy="462.745965" r="3.749996" style="fill:rgb(0,127,0);stroke-width:1" /><circle cx="44.098333" cy="456.011161" r="3.749996" style="fill:rgb(0,127,0);stroke-width:1" /><circle cx="42.820126" cy="450.259209" r="3.749996" style="fill:rgb(0,127,0);stroke-width:1" /><circle cx="40.924028" cy="428.454101" r="3.749996" style="fill:rgb(0,127,0);stroke-width:1" /><circle cx="39.663054" cy="422.779754" r="3.749996" style="fill:rgb(0,127,0);stroke-width:1" /><circle cx="39.394543" cy="419.691883" r="3.749996" style="fill:rgb(0,127,0);stroke-width:1" /><circle cx="39.296798" cy="419.251978" r="3.749996" style="fill:rgb(0,127,0);stroke-width:1" /><circle cx="38.010031" cy="404.454209" r="3.749996" style="fill:rgb(0,127,0);stroke-width:1" /><circle cx="35.382941" cy="392.632283" r="3.749996" style="fill:rgb(0,127,0);stroke-width:1" /><circle cx="32.067329" cy="354.502827" r="3.749996" style="fill:rgb(0,127,0);stroke-width:1" /><circle cx="29.178388" cy="341.502562" r="3.749996" style="fill:rgb(0,127,0);stroke-width:1" /><circle cx="28.789356" cy="339.751840" r="3.749996" style="fill:rgb(0,127,0);stroke-width:1" /><circle cx="28.451733" cy="335.869208" r="3.749996" style="fill:rgb(0,127,0);stroke-width:1" /><circle cx="27.803265" cy="332.951099" r="3.749996" style="fill:rgb(0,127,0);stroke-width:1" /><circle cx="25.971919" cy="324.710011" r="3.749996" style="fill:rgb(0,127,0);stroke-width:1" /><circle cx="24.564050" cy="318.374589" r="3.749996" style="fill:rgb(0,127,0);stroke-width:1" /><circle cx="21.542922" cy="304.779544" r="3.749996" style="fill:rgb(0,127,0);stroke-width:1" /><circle cx="21.261312" cy="303.512335" r="3.749996" style="fill:rgb(0,127,0);stroke-width:1" /><circle cx="20.229489" cy="298.208132" r="3.749996" style="fill:rgb(0,127,0);stroke-width:1" /><circle cx="19.981273" cy="297.091216" r="3.749996" style="fill:rgb(0,127,0);stroke-width:1" /><circle cx="18.767104" cy="280.822232" r="3.749996" style="fill:rgb(0,127,0);stroke-width:1" /><circle cx="16.132727" cy="241.819113" r="3.749996" style="fill:rgb(0,127,0);stroke-width:1" /><circle cx="15.958384" cy="239.332035" r="3.749996" style="fill:rgb(0,127,0);stroke-width:1" /><circle cx="15.464142" cy="231.951267" r="3.749996" style="fill:rgb(0,127,0);stroke-width:1" /><circle cx="15.306182" cy="229.589984" r="3.749996" style="fill:rgb(0,127,0);stroke-width:1" /><circle cx="15.151531" cy="227.272287" r="3.749996" style="fill:rgb(0,127,0);stroke-width:1" /><circle cx="14.851481" cy="222.772166" r="3.749996" style="fill:rgb(0,127,0);stroke-width:1" /><circle cx="14.705881" cy="220.588222" r="3.749996" style="fill:rgb(0,127,0);stroke-width:1" /><circle cx="14.218010" cy="213.270128" r="3.749996" style="fill:rgb(0,127,0);stroke-width:1" /><circle cx="14.084503" cy="211.267635" r="3.749996" style="fill:rgb(0,127,0);stroke-width:1" /><circle cx="13.953477" cy="209.302381" r="3.749996" style="fill:rgb(0,127,0);stroke-width:1" /><circle cx="13.574660" cy="203.619987" r="3.749996" style="fill:rgb(0,127,0);stroke-width:1" /><circle cx="13.452910" cy="201.793805" r="3.749996" style="fill:rgb(0,127,0);stroke-width:1" /><circle cx="13.043471" cy="195.652306" r="3.749996" style="fill:rgb(0,127,0);stroke-width:1" /><circle cx="11.842109" cy="177.631751" r="3.749996" style="fill:rgb(0,127,0);stroke-width:1" /><circle cx="8.522719" cy="127.841145" r="3.749996" style="fill:rgb(0,127,0);stroke-width:1" /><circle cx="4.629627" cy="69.444716" r="3.749996" style="fill:rgb(0,127,0);stroke-width:1" /><circle cx="750.000000" cy="750.000000" r="3.749996" style="fill:rgb(0,127,0);stroke-width:1" /><path stroke-linejoin="round" stroke-linecap="round" stroke="rgb(255,255,255)" stroke-width="3.749996" fill="none" d="M 0.000000 750.000000 L 750.000000 750.000000 M 0.000000 750.000000 L 0.000000 0.000000 " />

</svg>