<svg xmlns="http://www.w3.org/2000/svg" version="1.1" width = "750" height = "750" viewBox = "0 0 750 750"  shape-rendering="crispEdges">
<path stroke-linejoin="round" stroke-linecap="round" stroke="rgb(255,255,0)" stroke-width="3.749996" fill="none" d="M 83.333328 750.000000 L 0.000000 0.000000 " />
<path stroke-linejoin="round" stroke-linecap="round" stroke="rgb(63,63,63)" stroke-width="3.749996" fill="none" d="M 0.000000 0.000000 L 750.000000 750.000000 M 83.333328 750.000000 L 39.215683 0.000000 " />
<path stroke-linejoin="round" stroke-linecap="round" stroke="rgb(191,191,191)" stroke-width="3.749996" fill="none" d="M 0.000000 666.666687 L 83.333328 750.000000 M 0.000000 0.000000 L 44.117645 750.000000 " />
<path stroke-linejoin="round" stroke-linecap="round" stroke="rgb(0,0,255)" stroke-width="1.874998" fill="none" d="M 0.000000 750.000000 L 750.000000 731.707336 " />
<path stroke-linejoin="round" stroke-linecap="round" stroke="rgb(255,0,0)" stroke-width="3.749996" fill="none" d="M 83.213928 747.970398 L 83.333328 750.000000 " />
<path stroke-linejoin="round" stroke-linecap="round" stroke="rgb(0,0,255)" stroke-width="1.874998" fill="none" d="M 0.000000 750.000000 L 750.000000 714.285706 " />
<path stroke-linejoin="round" stroke-linecap="round" stroke="rgb(255,0,0)" stroke-width="3.749996" fill="none" d="M 81.368835 746.125305 L 83.213928 747.970398 " />
<path stroke-linejoin="round" stroke-linecap="round" stroke="rgb(0,0,255)" stroke-width="1.874998" fill="none" d="M 0.000000 750.000000 L 750.000000 712.500000 " />
<path stroke-linejoin="round" stroke-linecap="round" stroke="rgb(255,0,0)" stroke-width="3.749996" fill="none" d="M 81.184319 745.940796 L 81.368813 746.125305 " />
<path stroke-linejoin="round" stroke-linecap="round" stroke="rgb(0,0,255)" stroke-width="1.874998" fill="none" d="M 0.000000 750.000000 L 750.000000 695.121948 " />
<path stroke-linejoin="round" stroke-linecap="round" stroke="rgb(255,0,0)" stroke-width="3.749996" fill="none" d="M 79.431473 744.187927 L 81.184341 745.940796 " />
<path stroke-linejoin="round" stroke-linecap="round" stroke="rgb(0,0,255)" stroke-width="1.874998" fill="none" d="M 0.000000 750.000000 L 750.000000 675.000000 " />
<path stroke-linejoin="round" stroke-linecap="round" stroke="rgb(255,0,0)" stroke-width="3.749996" fill="none" d="M 77.494141 742.250549 L 79.431473 744.187927 " />
<path stroke-linejoin="round" stroke-linecap="round" stroke="rgb(0,0,255)" stroke-width="1.874998" fill="none" d="M 0.000000 750.000000 L 750.000000 658.536560 " />
<path stroke-linejoin="round" stroke-linecap="round" stroke="rgb(255,0,0)" stroke-width="3.749996" fill="none" d="M 75.977928 740.734375 L 77.494141 742.250549 " />
<path stroke-linejoin="round" stroke-linecap="round" stroke="rgb(0,0,255)" stroke-width="1.874998" fill="none" d="M 0.000000 750.000000 L 750.000000 653.846130 " />
<path stroke-linejoin="round" stroke-linecap="round" stroke="rgb(255,0,0)" stroke-width="3.749996" fill="none" d="M 75.556778 740.313232 L 75.977928 740.734375 " />
<path stroke-linejoin="round" stroke-linecap="round" stroke="rgb(0,0,255)" stroke-width="1.874998" fill="none" d="M 0.000000 750.000000 L 750.000000 637.500000 " />
<path stroke-linejoin="round" stroke-linecap="round" stroke="rgb(255,0,0)" stroke-width="3.749996" fill="none" d="M 74.124817 738.881287 L 75.556778 740.313232 " />
<path stroke-linejoin="round" stroke-linecap="round" stroke="rgb(0,0,255)" stroke-width="1.874998" fill="none" d="M 0.000000 750.000000 L 750.000000 631.578979 " />
<path stroke-linejoin="round" stroke-linecap="round" stroke="rgb(255,0,0)" stroke-width="3.749996" fill="none" d="M 73.619415 738.375916 L 74.124817 738.881287 " />
<path stroke-linejoin="round" stroke-linecap="round" stroke="rgb(0,0,255)" stroke-width="1.874998" fill="none" d="M 0.000000 750.000000 L 750.000000 615.384644 " />
<path stroke-linejoin="round" stroke-linecap="round" stroke="rgb(255,0,0)" stroke-width="3.749996" fill="none" d="M 72.271698 737.028137 L 73.619415 738.375916 " />
<path stroke-linejoin="round" stroke-linecap="round" stroke="rgb(0,0,255)" stroke-width="1.874998" fill="none" d="M 0.000000 750.000000 L 750.000000 608.108093 " />
<path stroke-linejoin="round" stroke-linecap="round" stroke="rgb(255,0,0)" stroke-width="3.749996" fill="none" d="M 71.682083 736.438538 L 72.271698 737.028137 " />
<path stroke-linejoin="round" stroke-linecap="round" stroke="rgb(0,0,255)" stroke-width="1.874998" fill="none" d="M 0.000000 750.000000 L 750.000000 583.333313 " />
<path stroke-linejoin="round" stroke-linecap="round" stroke="rgb(255,0,0)" stroke-width="3.749996" fill="none" d="M 69.744720 734.501160 L 71.682083 736.438538 " />
<path stroke-linejoin="round" stroke-linecap="round" stroke="rgb(0,0,255)" stroke-width="1.874998" fill="none" d="M 0.000000 750.000000 L 750.000000 557.142822 " />
<path stroke-linejoin="round" stroke-linecap="round" stroke="rgb(255,0,0)" stroke-width="3.749996" fill="none" d="M 67.807358 732.563843 L 69.744720 734.501160 " />
<path stroke-linejoin="round" stroke-linecap="round" stroke="rgb(0,0,255)" stroke-width="1.874998" fill="none" d="M 0.000000 750.000000 L 750.000000 529.411743 " />
<path stroke-linejoin="round" stroke-linecap="round" stroke="rgb(255,0,0)" stroke-width="3.749996" fill="none" d="M 65.870003 730.626465 L 67.807358 732.563843 " />
<path stroke-linejoin="round" stroke-linecap="round" stroke="rgb(0,0,255)" stroke-width="1.874998" fill="none" d="M 0.000000 750.000000 L 750.000000 499.999969 " />
<path stroke-linejoin="round" stroke-linecap="round" stroke="rgb(255,0,0)" stroke-width="3.749996" fill="none" d="M 63.932644 728.689148 L 65.870003 730.626465 " />
<path stroke-linejoin="round" stroke-linecap="round" stroke="rgb(0,0,255)" stroke-width="1.874998" fill="none" d="M 0.000000 750.000000 L 750.000000 485.294128 " />
<path stroke-linejoin="round" stroke-linecap="round" stroke="rgb(255,0,0)" stroke-width="3.749996" fill="none" d="M 63.006096 727.762573 L 63.932644 728.689148 " />
<path stroke-linejoin="round" stroke-linecap="round" stroke="rgb(0,0,255)" stroke-width="1.874998" fill="none" d="M 0.000000 750.000000 L 750.000000 468.750000 " />
<path stroke-linejoin="round" stroke-linecap="round" stroke="rgb(255,0,0)" stroke-width="3.749996" fill="none" d="M 61.995304 726.751770 L 63.006096 727.762573 " />
<path stroke-linejoin="round" stroke-linecap="round" stroke="rgb(0,0,255)" stroke-width="1.874998" fill="none" d="M 0.000000 750.000000 L 750.000000 454.545471 " />
<path stroke-linejoin="round" stroke-linecap="round" stroke="rgb(255,0,0)" stroke-width="3.749996" fill="none" d="M 61.152981 725.909424 L 61.995304 726.751770 " />
<path stroke-linejoin="round" stroke-linecap="round" stroke="rgb(0,0,255)" stroke-width="1.874998" fill="none" d="M 0.000000 750.000000 L 750.000000 421.875000 " />
<path stroke-linejoin="round" stroke-linecap="round" stroke="rgb(255,0,0)" stroke-width="3.749996" fill="none" d="M 59.299843 724.056335 L 61.152981 725.909424 " />
<path stroke-linejoin="round" stroke-linecap="round" stroke="rgb(0,0,255)" stroke-width="1.874998" fill="none" d="M 0.000000 750.000000 L 750.000000 387.096771 " />
<path stroke-linejoin="round" stroke-linecap="round" stroke="rgb(255,0,0)" stroke-width="3.749996" fill="none" d="M 57.446724 722.203186 L 59.299843 724.056335 " />
<path stroke-linejoin="round" stroke-linecap="round" stroke="rgb(0,0,255)" stroke-width="1.874998" fill="none" d="M 0.000000 750.000000 L 750.000000 349.999969 " />
<path stroke-linejoin="round" stroke-linecap="round" stroke="rgb(255,0,0)" stroke-width="3.749996" fill="none" d="M 55.593609 720.350037 L 57.446724 722.203186 " />
<path stroke-linejoin="round" stroke-linecap="round" stroke="rgb(0,0,255)" stroke-width="1.874998" fill="none" d="M 0.000000 750.000000 L 750.000000 310.344818 " />
<path stroke-linejoin="round" stroke-linecap="round" stroke="rgb(255,0,0)" stroke-width="3.749996" fill="none" d="M 53.740471 718.496948 L 55.593609 720.350037 " />
<path stroke-linejoin="round" stroke-linecap="round" stroke="rgb(0,0,255)" stroke-width="1.874998" fill="none" d="M 0.000000 750.000000 L 750.000000 299.999969 " />
<path stroke-linejoin="round" stroke-linecap="round" stroke="rgb(255,0,0)" stroke-width="3.749996" fill="none" d="M 53.277187 718.033691 L 53.740471 718.496948 " />
<path stroke-linejoin="round" stroke-linecap="round" stroke="rgb(0,0,255)" stroke-width="1.874998" fill="none" d="M 0.000000 750.000000 L 750.000000 267.857147 " />
<path stroke-linejoin="round" stroke-linecap="round" stroke="rgb(255,0,0)" stroke-width="3.749996" fill="none" d="M 51.887356 716.643860 L 53.277187 718.033691 " />
<path stroke-linejoin="round" stroke-linecap="round" stroke="rgb(0,0,255)" stroke-width="1.874998" fill="none" d="M 0.000000 750.000000 L 750.000000 222.222229 " />
<path stroke-linejoin="round" stroke-linecap="round" stroke="rgb(255,0,0)" stroke-width="3.749996" fill="none" d="M 50.034241 714.790710 L 51.887356 716.643860 " />
<path stroke-linejoin="round" stroke-linecap="round" stroke="rgb(0,0,255)" stroke-width="1.874998" fill="none" d="M 0.000000 750.000000 L 750.000000 173.076920 " />
<path stroke-linejoin="round" stroke-linecap="round" stroke="rgb(255,0,0)" stroke-width="3.749996" fill="none" d="M 48.181103 712.937622 L 50.034241 714.790710 " />
<path stroke-linejoin="round" stroke-linecap="round" stroke="rgb(0,0,255)" stroke-width="1.874998" fill="none" d="M 0.000000 750.000000 L 750.000000 166.666656 " />
<path stroke-linejoin="round" stroke-linecap="round" stroke="rgb(255,0,0)" stroke-width="3.749996" fill="none" d="M 47.949471 712.705933 L 48.181103 712.937622 " />
<path stroke-linejoin="round" stroke-linecap="round" stroke="rgb(0,0,255)" stroke-width="1.874998" fill="none" d="M 0.000000 750.000000 L 750.000000 115.384605 " />
<path stroke-linejoin="round" stroke-linecap="round" stroke="rgb(255,0,0)" stroke-width="3.749996" fill="none" d="M 46.173557 710.930054 L 47.949471 712.705933 " />
<path stroke-linejoin="round" stroke-linecap="round" stroke="rgb(0,0,255)" stroke-width="1.874998" fill="none" d="M 0.000000 750.000000 L 750.000000 59.999989 " />
<path stroke-linejoin="round" stroke-linecap="round" stroke="rgb(255,0,0)" stroke-width="3.749996" fill="none" d="M 44.397667 709.154175 L 46.173557 710.930054 " />
<path stroke-linejoin="round" stroke-linecap="round" stroke="rgb(0,0,255)" stroke-width="1.874998" fill="none" d="M 0.000000 750.000000 L 750.000000 57.692303 " />
<path stroke-linejoin="round" stroke-linecap="round" stroke="rgb(255,0,0)" stroke-width="3.749996" fill="none" d="M 44.326611 709.083130 L 44.397667 709.154175 " />
<path stroke-linejoin="round" stroke-linecap="round" stroke="rgb(0,0,255)" stroke-width="1.874998" fill="none" d="M 0.000000 750.000000 L 750.000000 0.000000 " />
<path stroke-linejoin="round" stroke-linecap="round" stroke="rgb(255,0,0)" stroke-width="3.749996" fill="none" d="M 42.621754 707.378296 L 44.326611 709.083130 " />
<path stroke-linejoin="round" stroke-linecap="round" stroke="rgb(0,0,255)" stroke-width="1.874998" fill="none" d="M 0.000000 750.000000 L 690.000000 0.000000 " />
<path stroke-linejoin="round" stroke-linecap="round" stroke="rgb(255,0,0)" stroke-width="3.749996" fill="none" d="M 41.466347 704.927917 L 42.621754 707.378296 " />
<path stroke-linejoin="round" stroke-linecap="round" stroke="rgb(0,0,255)" stroke-width="1.874998" fill="none" d="M 0.000000 750.000000 L 634.615417 0.000000 " />
<path stroke-linejoin="round" stroke-linecap="round" stroke="rgb(255,0,0)" stroke-width="3.749996" fill="none" d="M 41.250004 701.250000 L 41.466347 704.927917 " />
<path stroke-linejoin="round" stroke-linecap="round" stroke="rgb(0,0,255)" stroke-width="1.874998" fill="none" d="M 0.000000 750.000000 L 583.333313 0.000000 " />
<path stroke-linejoin="round" stroke-linecap="round" stroke="rgb(255,0,0)" stroke-width="3.749996" fill="none" d="M 41.015625 697.265625 L 41.250004 701.250000 " />
<path stroke-linejoin="round" stroke-linecap="round" stroke="rgb(0,0,255)" stroke-width="1.874998" fill="none" d="M 0.000000 750.000000 L 535.714294 0.000000 " />
<path stroke-linejoin="round" stroke-linecap="round" stroke="rgb(255,0,0)" stroke-width="3.749996" fill="none" d="M 40.760860 692.934814 L 41.015625 697.265625 " />
<path stroke-linejoin="round" stroke-linecap="round" stroke="rgb(0,0,255)" stroke-width="1.874998" fill="none" d="M 0.000000 750.000000 L 500.000000 0.000000 " />
<path stroke-linejoin="round" stroke-linecap="round" stroke="rgb(255,0,0)" stroke-width="3.749996" fill="none" d="M 40.540539 689.189209 L 40.760860 692.934814 " />
<path stroke-linejoin="round" stroke-linecap="round" stroke="rgb(0,0,255)" stroke-width="1.874998" fill="none" d="M 0.000000 750.000000 L 459.677429 0.000000 " />
<path stroke-linejoin="round" stroke-linecap="round" stroke="rgb(255,0,0)" stroke-width="3.749996" fill="none" d="M 40.254234 684.322021 L 40.540539 689.189209 " />
<path stroke-linejoin="round" stroke-linecap="round" stroke="rgb(0,0,255)" stroke-width="1.874998" fill="none" d="M 0.000000 750.000000 L 421.875000 0.000000 " />
<path stroke-linejoin="round" stroke-linecap="round" stroke="rgb(255,0,0)" stroke-width="3.749996" fill="none" d="M 39.940819 678.994080 L 40.254234 684.322021 " />
<path stroke-linejoin="round" stroke-linecap="round" stroke="rgb(0,0,255)" stroke-width="1.874998" fill="none" d="M 0.000000 750.000000 L 397.058838 0.000000 " />
<path stroke-linejoin="round" stroke-linecap="round" stroke="rgb(255,0,0)" stroke-width="3.749996" fill="none" d="M 39.705879 675.000000 L 39.940819 678.994080 " />
<path stroke-linejoin="round" stroke-linecap="round" stroke="rgb(0,0,255)" stroke-width="1.874998" fill="none" d="M 0.000000 750.000000 L 364.285706 0.000000 " />
<path stroke-linejoin="round" stroke-linecap="round" stroke="rgb(255,0,0)" stroke-width="3.749996" fill="none" d="M 39.351852 668.981445 L 39.705879 675.000000 " />
<path stroke-linejoin="round" stroke-linecap="round" stroke="rgb(0,0,255)" stroke-width="1.874998" fill="none" d="M 0.000000 750.000000 L 344.594604 0.000000 " />
<path stroke-linejoin="round" stroke-linecap="round" stroke="rgb(255,0,0)" stroke-width="3.749996" fill="none" d="M 39.110428 664.877319 L 39.351852 668.981445 " />
<path stroke-linejoin="round" stroke-linecap="round" stroke="rgb(0,0,255)" stroke-width="1.874998" fill="none" d="M 0.000000 750.000000 L 315.789490 0.000000 " />
<path stroke-linejoin="round" stroke-linecap="round" stroke="rgb(255,0,0)" stroke-width="3.749996" fill="none" d="M 38.709686 658.064514 L 39.110428 664.877319 " />
<path stroke-linejoin="round" stroke-linecap="round" stroke="rgb(0,0,255)" stroke-width="1.874998" fill="none" d="M 0.000000 750.000000 L 300.000000 0.000000 " />
<path stroke-linejoin="round" stroke-linecap="round" stroke="rgb(255,0,0)" stroke-width="3.749996" fill="none" d="M 38.461536 653.846130 L 38.709686 658.064514 " />
<path stroke-linejoin="round" stroke-linecap="round" stroke="rgb(0,0,255)" stroke-width="1.874998" fill="none" d="M 0.000000 750.000000 L 285.714294 0.000000 " />
<path stroke-linejoin="round" stroke-linecap="round" stroke="rgb(255,0,0)" stroke-width="3.749996" fill="none" d="M 38.216560 649.681519 L 38.461536 653.846130 " />
<path stroke-linejoin="round" stroke-linecap="round" stroke="rgb(0,0,255)" stroke-width="1.874998" fill="none" d="M 0.000000 750.000000 L 261.627930 0.000000 " />
<path stroke-linejoin="round" stroke-linecap="round" stroke="rgb(255,0,0)" stroke-width="3.749996" fill="none" d="M 37.751667 641.778503 L 38.216560 649.681519 " />
<path stroke-linejoin="round" stroke-linecap="round" stroke="rgb(0,0,255)" stroke-width="1.874998" fill="none" d="M 0.000000 750.000000 L 226.415100 0.000000 " />
<path stroke-linejoin="round" stroke-linecap="round" stroke="rgb(255,0,0)" stroke-width="3.749996" fill="none" d="M 36.923088 627.692322 L 37.751667 641.778503 " />
<path stroke-linejoin="round" stroke-linecap="round" stroke="rgb(0,0,255)" stroke-width="1.874998" fill="none" d="M 0.000000 750.000000 L 190.909088 0.000000 " />
<path stroke-linejoin="round" stroke-linecap="round" stroke="rgb(255,0,0)" stroke-width="3.749996" fill="none" d="M 35.836166 609.215027 L 36.923088 627.692322 " />
<path stroke-linejoin="round" stroke-linecap="round" stroke="rgb(0,0,255)" stroke-width="1.874998" fill="none" d="M 0.000000 750.000000 L 173.076920 0.000000 " />
<path stroke-linejoin="round" stroke-linecap="round" stroke="rgb(255,0,0)" stroke-width="3.749996" fill="none" d="M 35.156250 597.656250 L 35.836166 609.215027 " />
<path stroke-linejoin="round" stroke-linecap="round" stroke="rgb(0,0,255)" stroke-width="1.874998" fill="none" d="M 0.000000 750.000000 L 140.000000 0.000000 " />
<path stroke-linejoin="round" stroke-linecap="round" stroke="rgb(255,0,0)" stroke-width="3.749996" fill="none" d="M 33.546322 570.287537 L 35.156250 597.656250 " />
<path stroke-linejoin="round" stroke-linecap="round" stroke="rgb(0,0,255)" stroke-width="1.874998" fill="none" d="M 0.000000 750.000000 L 133.928574 0.000000 " />
<path stroke-linejoin="round" stroke-linecap="round" stroke="rgb(255,0,0)" stroke-width="3.749996" fill="none" d="M 33.185833 564.159302 L 33.546322 570.287537 " />
<path stroke-linejoin="round" stroke-linecap="round" stroke="rgb(0,0,255)" stroke-width="1.874998" fill="none" d="M 0.000000 750.000000 L 123.529404 0.000000 " />
<path stroke-linejoin="round" stroke-linecap="round" stroke="rgb(255,0,0)" stroke-width="3.749996" fill="none" d="M 32.507748 552.631592 L 33.185833 564.159302 " />
<path stroke-linejoin="round" stroke-linecap="round" stroke="rgb(0,0,255)" stroke-width="1.874998" fill="none" d="M 0.000000 750.000000 L 117.977524 0.000000 " />
<path stroke-linejoin="round" stroke-linecap="round" stroke="rgb(255,0,0)" stroke-width="3.749996" fill="none" d="M 32.110088 545.871582 L 32.507748 552.631592 " />
<path stroke-linejoin="round" stroke-linecap="round" stroke="rgb(0,0,255)" stroke-width="1.874998" fill="none" d="M 0.000000 750.000000 L 111.702118 0.000000 " />
<path stroke-linejoin="round" stroke-linecap="round" stroke="rgb(255,0,0)" stroke-width="3.749996" fill="none" d="M 31.626507 537.650635 L 32.110088 545.871582 " />
<path stroke-linejoin="round" stroke-linecap="round" stroke="rgb(0,0,255)" stroke-width="1.874998" fill="none" d="M 0.000000 750.000000 L 105.882347 0.000000 " />
<path stroke-linejoin="round" stroke-linecap="round" stroke="rgb(255,0,0)" stroke-width="3.749996" fill="none" d="M 31.141855 529.411804 L 31.626507 537.650635 " />
<path stroke-linejoin="round" stroke-linecap="round" stroke="rgb(0,0,255)" stroke-width="1.874998" fill="none" d="M 0.000000 750.000000 L 102.631577 0.000000 " />
<path stroke-linejoin="round" stroke-linecap="round" stroke="rgb(255,0,0)" stroke-width="3.749996" fill="none" d="M 30.854433 524.525330 L 31.141855 529.411804 " />
<path stroke-linejoin="round" stroke-linecap="round" stroke="rgb(0,0,255)" stroke-width="1.874998" fill="none" d="M 0.000000 750.000000 L 85.714279 0.000000 " />
<path stroke-linejoin="round" stroke-linecap="round" stroke="rgb(255,0,0)" stroke-width="3.749996" fill="none" d="M 29.126219 495.145660 L 30.854433 524.525330 " />
<path stroke-linejoin="round" stroke-linecap="round" stroke="rgb(0,0,255)" stroke-width="1.874998" fill="none" d="M 0.000000 750.000000 L 84.782616 0.000000 " />
<path stroke-linejoin="round" stroke-linecap="round" stroke="rgb(255,0,0)" stroke-width="3.749996" fill="none" d="M 29.017859 493.303558 L 29.126219 495.145660 " />
<path stroke-linejoin="round" stroke-linecap="round" stroke="rgb(0,0,255)" stroke-width="1.874998" fill="none" d="M 0.000000 750.000000 L 79.646004 0.000000 " />
<path stroke-linejoin="round" stroke-linecap="round" stroke="rgb(255,0,0)" stroke-width="3.749996" fill="none" d="M 28.391161 482.649872 L 29.017859 493.303558 " />
<path stroke-linejoin="round" stroke-linecap="round" stroke="rgb(0,0,255)" stroke-width="1.874998" fill="none" d="M 0.000000 750.000000 L 79.268303 0.000000 " />
<path stroke-linejoin="round" stroke-linecap="round" stroke="rgb(255,0,0)" stroke-width="3.749996" fill="none" d="M 28.343014 481.831451 L 28.391161 482.649872 " />
<path stroke-linejoin="round" stroke-linecap="round" stroke="rgb(0,0,255)" stroke-width="1.874998" fill="none" d="M 0.000000 750.000000 L 71.999992 0.000000 " />
<path stroke-linejoin="round" stroke-linecap="round" stroke="rgb(255,0,0)" stroke-width="3.749996" fill="none" d="M 27.355627 465.045593 L 28.343014 481.831451 " />
<path stroke-linejoin="round" stroke-linecap="round" stroke="rgb(0,0,255)" stroke-width="1.874998" fill="none" d="M 0.000000 750.000000 L 70.512817 0.000000 " />
<path stroke-linejoin="round" stroke-linecap="round" stroke="rgb(255,0,0)" stroke-width="3.749996" fill="none" d="M 27.138166 461.348724 L 27.355627 465.045593 " />
<path stroke-linejoin="round" stroke-linecap="round" stroke="rgb(0,0,255)" stroke-width="1.874998" fill="none" d="M 0.000000 750.000000 L 68.807335 0.000000 " />
<path stroke-linejoin="round" stroke-linecap="round" stroke="rgb(255,0,0)" stroke-width="3.749996" fill="none" d="M 26.881725 456.989227 L 27.138166 461.348663 " />
<path stroke-linejoin="round" stroke-linecap="round" stroke="rgb(0,0,255)" stroke-width="1.874998" fill="none" d="M 0.000000 750.000000 L 56.722687 0.000000 " />
<path stroke-linejoin="round" stroke-linecap="round" stroke="rgb(255,0,0)" stroke-width="3.749996" fill="none" d="M 24.816177 421.875000 L 26.881725 456.989227 " />
<path stroke-linejoin="round" stroke-linecap="round" stroke="rgb(0,0,255)" stroke-width="1.874998" fill="none" d="M 0.000000 750.000000 L 48.561150 0.000000 " />
<path stroke-linejoin="round" stroke-linecap="round" stroke="rgb(255,0,0)" stroke-width="3.749996" fill="none" d="M 23.116440 392.979370 L 24.816177 421.874969 " />
<path stroke-linejoin="round" stroke-linecap="round" stroke="rgb(0,0,255)" stroke-width="1.874998" fill="none" d="M 0.000000 750.000000 L 42.452843 0.000000 " />
<path stroke-linejoin="round" stroke-linecap="round" stroke="rgb(255,0,0)" stroke-width="3.749996" fill="none" d="M 21.634630 367.788391 L 23.116440 392.979340 " />
<path stroke-linejoin="round" stroke-linecap="round" stroke="rgb(0,0,255)" stroke-width="1.874998" fill="none" d="M 0.000000 750.000000 L 40.909096 0.000000 " />
<path stroke-linejoin="round" stroke-linecap="round" stroke="rgb(255,0,0)" stroke-width="3.749996" fill="none" d="M 21.226421 360.848969 L 21.634630 367.788391 " />
<path stroke-linejoin="round" stroke-linecap="round" stroke="rgb(0,0,255)" stroke-width="1.874998" fill="none" d="M 0.000000 750.000000 L 39.017334 0.000000 " />
<path stroke-linejoin="round" stroke-linecap="round" stroke="rgb(255,0,0)" stroke-width="3.749996" fill="none" d="M 20.705536 351.993805 L 21.226421 360.848969 " />
<path stroke-linejoin="round" stroke-linecap="round" stroke="rgb(0,0,255)" stroke-width="1.874998" fill="none" d="M 0.000000 750.000000 L 37.087910 0.000000 " />
<path stroke-linejoin="round" stroke-linecap="round" stroke="rgb(255,0,0)" stroke-width="3.749996" fill="none" d="M 20.149246 342.537231 L 20.705536 351.993805 " />
<path stroke-linejoin="round" stroke-linecap="round" stroke="rgb(0,0,255)" stroke-width="1.874998" fill="none" d="M 0.000000 750.000000 L 31.249992 0.000000 " />
<path stroke-linejoin="round" stroke-linecap="round" stroke="rgb(255,0,0)" stroke-width="3.749996" fill="none" d="M 18.292688 310.975555 L 20.149246 342.537231 " />
<path stroke-linejoin="round" stroke-linecap="round" stroke="rgb(0,0,255)" stroke-width="1.874998" fill="none" d="M 0.000000 750.000000 L 28.846151 0.000000 " />
<path stroke-linejoin="round" stroke-linecap="round" stroke="rgb(255,0,0)" stroke-width="3.749996" fill="none" d="M 17.441868 296.511566 L 18.292688 310.975555 " />
<path stroke-linejoin="round" stroke-linecap="round" stroke="rgb(0,0,255)" stroke-width="1.874998" fill="none" d="M 0.000000 750.000000 L 28.708130 0.000000 " />
<path stroke-linejoin="round" stroke-linecap="round" stroke="rgb(255,0,0)" stroke-width="3.749996" fill="none" d="M 17.391310 295.652130 L 17.441868 296.511566 " />
<path stroke-linejoin="round" stroke-linecap="round" stroke="rgb(0,0,255)" stroke-width="1.874998" fill="none" d="M 0.000000 750.000000 L 28.301888 0.000000 " />
<path stroke-linejoin="round" stroke-linecap="round" stroke="rgb(255,0,0)" stroke-width="3.749996" fill="none" d="M 17.241373 293.103363 L 17.391310 295.652130 " />
<path stroke-linejoin="round" stroke-linecap="round" stroke="rgb(0,0,255)" stroke-width="1.874998" fill="none" d="M 0.000000 750.000000 L 27.631580 0.000000 " />
<path stroke-linejoin="round" stroke-linecap="round" stroke="rgb(255,0,0)" stroke-width="3.749996" fill="none" d="M 16.990297 288.834839 L 17.241373 293.103363 " />
<path stroke-linejoin="round" stroke-linecap="round" stroke="rgb(0,0,255)" stroke-width="1.874998" fill="none" d="M 0.000000 750.000000 L 22.500000 0.000000 " />
<path stroke-linejoin="round" stroke-linecap="round" stroke="rgb(255,0,0)" stroke-width="3.749996" fill="none" d="M 14.900655 253.311172 L 16.990297 288.834839 " />
<path stroke-linejoin="round" stroke-linecap="round" stroke="rgb(0,0,255)" stroke-width="1.874998" fill="none" d="M 0.000000 750.000000 L 20.454548 0.000000 " />
<path stroke-linejoin="round" stroke-linecap="round" stroke="rgb(255,0,0)" stroke-width="3.749996" fill="none" d="M 13.975159 237.577560 L 14.900655 253.311172 " />
<path stroke-linejoin="round" stroke-linecap="round" stroke="rgb(0,0,255)" stroke-width="1.874998" fill="none" d="M 0.000000 750.000000 L 18.750004 0.000000 " />
<path stroke-linejoin="round" stroke-linecap="round" stroke="rgb(255,0,0)" stroke-width="3.749996" fill="none" d="M 13.157889 223.684158 L 13.975159 237.577560 " />
<path stroke-linejoin="round" stroke-linecap="round" stroke="rgb(0,0,255)" stroke-width="1.874998" fill="none" d="M 0.000000 750.000000 L 18.672197 0.000000 " />
<path stroke-linejoin="round" stroke-linecap="round" stroke="rgb(255,0,0)" stroke-width="3.749996" fill="none" d="M 13.119534 223.031982 L 13.157889 223.684158 " />
<path stroke-linejoin="round" stroke-linecap="round" stroke="rgb(0,0,255)" stroke-width="1.874998" fill="none" d="M 0.000000 750.000000 L 18.367342 0.000000 " />
<path stroke-linejoin="round" stroke-linecap="round" stroke="rgb(255,0,0)" stroke-width="3.749996" fill="none" d="M 12.968302 220.460999 L 13.119534 223.031982 " />
<path stroke-linejoin="round" stroke-linecap="round" stroke="rgb(0,0,255)" stroke-width="1.874998" fill="none" d="M 0.000000 750.000000 L 18.115953 0.000000 " />
<path stroke-linejoin="round" stroke-linecap="round" stroke="rgb(255,0,0)" stroke-width="3.749996" fill="none" d="M 12.842462 218.321808 L 12.968302 220.460999 " />
<path stroke-linejoin="round" stroke-linecap="round" stroke="rgb(0,0,255)" stroke-width="1.874998" fill="none" d="M 0.000000 750.000000 L 16.163795 0.000000 " />
<path stroke-linejoin="round" stroke-linecap="round" stroke="rgb(255,0,0)" stroke-width="3.749996" fill="none" d="M 11.829659 201.103958 L 12.842462 218.321808 " />
<path stroke-linejoin="round" stroke-linecap="round" stroke="rgb(0,0,255)" stroke-width="1.874998" fill="none" d="M 0.000000 750.000000 L 12.396701 0.000000 " />
<path stroke-linejoin="round" stroke-linecap="round" stroke="rgb(255,0,0)" stroke-width="3.749996" fill="none" d="M 9.677410 164.516068 L 11.829659 201.103958 " />
<path stroke-linejoin="round" stroke-linecap="round" stroke="rgb(0,0,255)" stroke-width="1.874998" fill="none" d="M 0.000000 750.000000 L 11.450373 0.000000 " />
<path stroke-linejoin="round" stroke-linecap="round" stroke="rgb(255,0,0)" stroke-width="3.749996" fill="none" d="M 9.090900 154.545349 L 9.677410 164.516068 " />
<path stroke-linejoin="round" stroke-linecap="round" stroke="rgb(0,0,255)" stroke-width="1.874998" fill="none" d="M 0.000000 750.000000 L 10.638289 0.000000 " />
<path stroke-linejoin="round" stroke-linecap="round" stroke="rgb(255,0,0)" stroke-width="3.749996" fill="none" d="M 8.571424 145.714157 L 9.090900 154.545349 " />
<path stroke-linejoin="round" stroke-linecap="round" stroke="rgb(0,0,255)" stroke-width="1.874998" fill="none" d="M 0.000000 750.000000 L 10.600716 0.000000 " />
<path stroke-linejoin="round" stroke-linecap="round" stroke="rgb(255,0,0)" stroke-width="3.749996" fill="none" d="M 8.547015 145.298996 L 8.571424 145.714157 " />
<path stroke-linejoin="round" stroke-linecap="round" stroke="rgb(0,0,255)" stroke-width="1.874998" fill="none" d="M 0.000000 750.000000 L 8.789062 0.000000 " />
<path stroke-linejoin="round" stroke-linecap="round" stroke="rgb(255,0,0)" stroke-width="3.749996" fill="none" d="M 7.329002 124.592697 L 8.547015 145.298996 " />
<path stroke-linejoin="round" stroke-linecap="round" stroke="rgb(0,0,255)" stroke-width="1.874998" fill="none" d="M 0.000000 750.000000 L 5.639099 0.000000 " />
<path stroke-linejoin="round" stroke-linecap="round" stroke="rgb(255,0,0)" stroke-width="3.749996" fill="none" d="M 4.999995 84.999878 L 7.329002 124.592697 " />
<path stroke-linejoin="round" stroke-linecap="round" stroke="rgb(0,0,255)" stroke-width="1.874998" fill="none" d="M 0.000000 750.000000 L 2.717391 0.000000 " />
<path stroke-linejoin="round" stroke-linecap="round" stroke="rgb(255,0,0)" stroke-width="3.749996" fill="none" d="M 2.559721 43.515285 L 4.999995 84.999878 " />
<path stroke-linejoin="round" stroke-linecap="round" stroke="rgb(0,0,255)" stroke-width="1.874998" fill="none" d="M 0.000000 750.000000 L 0.000000 0.000000 " />
<path stroke-linejoin="round" stroke-linecap="round" stroke="rgb(255,0,0)" stroke-width="3.749996" fill="none" d="M 0.000000 0.000000 L 2.559721 43.515354 " />
<circle cx="83.213925" cy="747.970417" r="3.749996" style="fill:rgb(0,127,0);stroke-width:1" /><circle cx="81.368834" cy="746.125303" r="3.749996" style="fill:rgb(0,127,0);stroke-width:1" /><circle cx="81.184320" cy="745.940790" r="3.749996" style="fill:rgb(0,127,0);stroke-width:1" /><circle cx="79.431474" cy="744.187944" r="3.749996" style="fill:rgb(0,127,0);stroke-width:1" /><circle cx="77.494137" cy="742.250584" r="3.749996" style="fill:rgb(0,127,0);stroke-width:1" /><circle cx="75.977929" cy="740.734398" r="3.749996" style="fill:rgb(0,127,0);stroke-width:1" /><circle cx="75.556777" cy="740.313224" r="3.749996" style="fill:rgb(0,127,0);stroke-width:1" /><circle cx="74.124813" cy="738.881283" r="3.749996" style="fill:rgb(0,127,0);stroke-width:1" /><circle cx="73.619418" cy="738.375887" r="3.749996" style="fill:rgb(0,127,0);stroke-width:1" /><circle cx="72.271697" cy="737.028167" r="3.749996" style="fill:rgb(0,127,0);stroke-width:1" /><circle cx="71.682081" cy="736.438528" r="3.749996" style="fill:rgb(0,127,0);stroke-width:1" /><circle cx="69.744721" cy="734.501168" r="3.749996" style="fill:rgb(0,127,0);stroke-width:1" /><circle cx="67.807361" cy="732.563831" r="3.749996" style="fill:rgb(0,127,0);stroke-width:1" /><circle cx="65.870002" cy="730.626471" r="3.749996" style="fill:rgb(0,127,0);stroke-width:1" /><circle cx="63.932642" cy="728.689112" r="3.749996" style="fill:rgb(0,127,0);stroke-width:1" /><circle cx="63.006096" cy="727.762565" r="3.749996" style="fill:rgb(0,127,0);stroke-width:1" /><circle cx="61.995305" cy="726.751775" r="3.749996" style="fill:rgb(0,127,0);stroke-width:1" /><circle cx="61.152980" cy="725.909427" r="3.749996" style="fill:rgb(0,127,0);stroke-width:1" /><circle cx="59.299842" cy="724.056311" r="3.749996" style="fill:rgb(0,127,0);stroke-width:1" /><circle cx="57.446726" cy="722.203195" r="3.749996" style="fill:rgb(0,127,0);stroke-width:1" /><circle cx="55.593610" cy="720.350079" r="3.749996" style="fill:rgb(0,127,0);stroke-width:1" /><circle cx="53.740472" cy="718.496963" r="3.749996" style="fill:rgb(0,127,0);stroke-width:1" /><circle cx="53.277187" cy="718.033679" r="3.749996" style="fill:rgb(0,127,0);stroke-width:1" /><circle cx="51.887356" cy="716.643848" r="3.749996" style="fill:rgb(0,127,0);stroke-width:1" /><circle cx="50.034240" cy="714.790732" r="3.749996" style="fill:rgb(0,127,0);stroke-width:1" /><circle cx="48.181102" cy="712.937616" r="3.749996" style="fill:rgb(0,127,0);stroke-width:1" /><circle cx="47.949471" cy="712.705962" r="3.749996" style="fill:rgb(0,127,0);stroke-width:1" /><circle cx="46.173558" cy="710.930072" r="3.749996" style="fill:rgb(0,127,0);stroke-width:1" /><circle cx="44.397667" cy="709.154159" r="3.749996" style="fill:rgb(0,127,0);stroke-width:1" /><circle cx="44.326611" cy="709.083125" r="3.749996" style="fill:rgb(0,127,0);stroke-width:1" /><circle cx="42.621754" cy="707.378246" r="3.749996" style="fill:rgb(0,127,0);stroke-width:1" /><circle cx="41.466348" cy="704.927891" r="3.749996" style="fill:rgb(0,127,0);stroke-width:1" /><circle cx="41.250005" cy="701.250002" r="3.749996" style="fill:rgb(0,127,0);stroke-width:1" /><circle cx="41.015625" cy="697.265625" r="3.749996" style="fill:rgb(0,127,0);stroke-width:1" /><circle cx="40.760860" cy="692.934796" r="3.749996" style="fill:rgb(0,127,0);stroke-width:1" /><circle cx="40.540539" cy="689.189203" r="3.749996" style="fill:rgb(0,127,0);stroke-width:1" /><circle cx="40.254235" cy="684.322044" r="3.749996" style="fill:rgb(0,127,0);stroke-width:1" /><circle cx="39.940819" cy="678.994104" r="3.749996" style="fill:rgb(0,127,0);stroke-width:1" /><circle cx="39.705880" cy="675.000027" r="3.749996" style="fill:rgb(0,127,0);stroke-width:1" /><circle cx="39.351851" cy="668.981485" r="3.749996" style="fill:rgb(0,127,0);stroke-width:1" /><circle cx="39.110430" cy="664.877303" r="3.749996" style="fill:rgb(0,127,0);stroke-width:1" /><circle cx="38.709685" cy="658.064514" r="3.749996" style="fill:rgb(0,127,0);stroke-width:1" /><circle cx="38.461536" cy="653.846160" r="3.749996" style="fill:rgb(0,127,0);stroke-width:1" /><circle cx="38.216561" cy="649.681538" r="3.749996" style="fill:rgb(0,127,0);stroke-width:1" /><circle cx="37.751667" cy="641.778521" r="3.749996" style="fill:rgb(0,127,0);stroke-width:1" /><circle cx="36.923088" cy="627.692297" r="3.749996" style="fill:rgb(0,127,0);stroke-width:1" /><circle cx="35.836168" cy="609.215006" r="3.749996" style="fill:rgb(0,127,0);stroke-width:1" /><circle cx="35.156250" cy="597.656250" r="3.749996" style="fill:rgb(0,127,0);stroke-width:1" /><circle cx="33.546321" cy="570.287548" r="3.749996" style="fill:rgb(0,127,0);stroke-width:1" /><circle cx="33.185832" cy="564.159304" r="3.749996" style="fill:rgb(0,127,0);stroke-width:1" /><circle cx="32.507747" cy="552.631572" r="3.749996" style="fill:rgb(0,127,0);stroke-width:1" /><circle cx="32.110088" cy="545.871578" r="3.749996" style="fill:rgb(0,127,0);stroke-width:1" /><circle cx="31.626508" cy="537.650630" r="3.749996" style="fill:rgb(0,127,0);stroke-width:1" /><circle cx="31.141855" cy="529.411789" r="3.749996" style="fill:rgb(0,127,0);stroke-width:1" /><circle cx="30.854434" cy="524.525341" r="3.749996" style="fill:rgb(0,127,0);stroke-width:1" /><circle cx="29.126219" cy="495.145664" r="3.749996" style="fill:rgb(0,127,0);stroke-width:1" /><circle cx="29.017858" cy="493.303578" r="3.749996" style="fill:rgb(0,127,0);stroke-width:1" /><circle cx="28.391160" cy="482.649866" r="3.749996" style="fill:rgb(0,127,0);stroke-width:1" /><circle cx="28.343014" cy="481.831435" r="3.749996" style="fill:rgb(0,127,0);stroke-width:1" /><circle cx="27.355626" cy="465.045612" r="3.749996" style="fill:rgb(0,127,0);stroke-width:1" /><circle cx="27.138166" cy="461.348690" r="3.749996" style="fill:rgb(0,127,0);stroke-width:1" /><circle cx="26.881725" cy="456.989251" r="3.749996" style="fill:rgb(0,127,0);stroke-width:1" /><circle cx="24.816178" cy="421.874980" r="3.749996" style="fill:rgb(0,127,0);stroke-width:1" /><circle cx="23.116440" cy="392.979383" r="3.749996" style="fill:rgb(0,127,0);stroke-width:1" /><circle cx="21.634631" cy="367.788394" r="3.749996" style="fill:rgb(0,127,0);stroke-width:1" /><circle cx="21.226421" cy="360.848984" r="3.749996" style="fill:rgb(0,127,0);stroke-width:1" /><circle cx="20.705536" cy="351.993799" r="3.749996" style="fill:rgb(0,127,0);stroke-width:1" /><circle cx="20.149246" cy="342.537244" r="3.749996" style="fill:rgb(0,127,0);stroke-width:1" /><circle cx="18.292688" cy="310.975553" r="3.749996" style="fill:rgb(0,127,0);stroke-width:1" /><circle cx="17.441869" cy="296.511568" r="3.749996" style="fill:rgb(0,127,0);stroke-width:1" /><circle cx="17.391309" cy="295.652110" r="3.749996" style="fill:rgb(0,127,0);stroke-width:1" /><circle cx="17.241374" cy="293.103375" r="3.749996" style="fill:rgb(0,127,0);stroke-width:1" /><circle cx="16.990297" cy="288.834851" r="3.749996" style="fill:rgb(0,127,0);stroke-width:1" /><circle cx="14.900655" cy="253.311161" r="3.749996" style="fill:rgb(0,127,0);stroke-width:1" /><circle cx="13.975158" cy="237.577558" r="3.749996" style="fill:rgb(0,127,0);stroke-width:1" /><circle cx="13.157889" cy="223.684151" r="3.749996" style="fill:rgb(0,127,0);stroke-width:1" /><circle cx="13.119534" cy="223.031994" r="3.749996" style="fill:rgb(0,127,0);stroke-width:1" /><circle cx="12.968302" cy="220.461007" r="3.749996" style="fill:rgb(0,127,0);stroke-width:1" /><circle cx="12.842461" cy="218.321800" r="3.749996" style="fill:rgb(0,127,0);stroke-width:1" /><circle cx="11.829659" cy="201.103963" r="3.749996" style="fill:rgb(0,127,0);stroke-width:1" /><circle cx="9.677410" cy="164.516062" r="3.749996" style="fill:rgb(0,127,0);stroke-width:1" /><circle cx="9.090900" cy="154.545352" r="3.749996" style="fill:rgb(0,127,0);stroke-width:1" /><circle cx="8.571424" cy="145.714156" r="3.749996" style="fill:rgb(0,127,0);stroke-width:1" /><circle cx="8.547015" cy="145.298995" r="3.749996" style="fill:rgb(0,127,0);stroke-width:1" /><circle cx="7.329002" cy="124.592699" r="3.749996" style="fill:rgb(0,127,0);stroke-width:1" /><circle cx="4.999995" cy="84.999874" r="3.749996" style="fill:rgb(0,127,0);stroke-width:1" /><circle cx="2.559721" cy="43.515287" r="3.749996" style="fill:rgb(0,127,0);stroke-width:1" /><circle cx="750.000000" cy="750.000000" r="3.749996" style="fill:rgb(0,127,0);stroke-width:1" /><path stroke-linejoin="round" stroke-linecap="round" stroke="rgb(255,255,255)" stroke-width="3.749996" fill="none" d="M 0.000000 750.000000 L 750.000000 750.000000 M 0.000000 750.000000 L 0.000000 0.000000 " />

</svg>