<svg xmlns="http://www.w3.org/2000/svg" version="1.1" width = "750" height = "750" viewBox = "0 0 750 750"  shape-rendering="crispEdges">
<path stroke-linejoin="round" stroke-linecap="round" stroke="rgb(255,255,0)" stroke-width="3.749996" fill="none" d="M 93.750000 750.000000 L 0.000000 0.000000 " />
<path stroke-linejoin="round" stroke-linecap="round" stroke="rgb(63,63,63)" stroke-width="3.749996" fill="none" d="M 0.000000 0.000000 L 750.000000 750.000000 M 93.750000 750.000000 L 43.750004 0.000000 " />
<path stroke-linejoin="round" stroke-linecap="round" stroke="rgb(191,191,191)" stroke-width="3.749996" fill="none" d="M 0.000000 656.250000 L 93.750000 750.000000 M 0.000000 0.000000 L 49.999996 750.000000 " />
<path stroke-linejoin="round" stroke-linecap="round" stroke="rgb(0,0,255)" stroke-width="1.874998" fill="none" d="M 0.000000 750.000000 L 750.000000 535.714294 " />
<path stroke-linejoin="round" stroke-linecap="round" stroke="rgb(255,0,0)" stroke-width="3.749996" fill="none" d="M 91.997665 723.714966 L 93.750000 750.000000 " />
<path stroke-linejoin="round" stroke-linecap="round" stroke="rgb(0,0,255)" stroke-width="1.874998" fill="none" d="M 0.000000 750.000000 L 750.000000 308.823517 " />
<path stroke-linejoin="round" stroke-linecap="round" stroke="rgb(255,0,0)" stroke-width="3.749996" fill="none" d="M 89.695328 697.238037 L 91.997665 723.714966 " />
<path stroke-linejoin="round" stroke-linecap="round" stroke="rgb(0,0,255)" stroke-width="1.874998" fill="none" d="M 0.000000 750.000000 L 750.000000 107.142853 " />
<path stroke-linejoin="round" stroke-linecap="round" stroke="rgb(255,0,0)" stroke-width="3.749996" fill="none" d="M 87.743439 674.791321 L 89.695328 697.238037 " />
<path stroke-linejoin="round" stroke-linecap="round" stroke="rgb(0,0,255)" stroke-width="1.874998" fill="none" d="M 0.000000 750.000000 L 637.500000 0.000000 " />
<path stroke-linejoin="round" stroke-linecap="round" stroke="rgb(255,0,0)" stroke-width="3.749996" fill="none" d="M 85.533119 649.372803 L 87.743439 674.791321 " />
<path stroke-linejoin="round" stroke-linecap="round" stroke="rgb(0,0,255)" stroke-width="1.874998" fill="none" d="M 0.000000 750.000000 L 495.000031 0.000000 " />
<path stroke-linejoin="round" stroke-linecap="round" stroke="rgb(255,0,0)" stroke-width="3.749996" fill="none" d="M 83.307381 623.776733 L 85.533119 649.372803 " />
<path stroke-linejoin="round" stroke-linecap="round" stroke="rgb(0,0,255)" stroke-width="1.874998" fill="none" d="M 0.000000 750.000000 L 400.000031 0.000000 " />
<path stroke-linejoin="round" stroke-linecap="round" stroke="rgb(255,0,0)" stroke-width="3.749996" fill="none" d="M 81.066010 598.001221 L 83.307358 623.776733 " />
<path stroke-linejoin="round" stroke-linecap="round" stroke="rgb(0,0,255)" stroke-width="1.874998" fill="none" d="M 0.000000 750.000000 L 332.142853 0.000000 " />
<path stroke-linejoin="round" stroke-linecap="round" stroke="rgb(255,0,0)" stroke-width="3.749996" fill="none" d="M 78.808914 572.044434 L 81.066010 598.001221 " />
<path stroke-linejoin="round" stroke-linecap="round" stroke="rgb(0,0,255)" stroke-width="1.874998" fill="none" d="M 0.000000 750.000000 L 281.250000 0.000000 " />
<path stroke-linejoin="round" stroke-linecap="round" stroke="rgb(255,0,0)" stroke-width="3.749996" fill="none" d="M 76.535851 545.904358 L 78.808914 572.044373 " />
<path stroke-linejoin="round" stroke-linecap="round" stroke="rgb(0,0,255)" stroke-width="1.874998" fill="none" d="M 0.000000 750.000000 L 258.333313 0.000000 " />
<path stroke-linejoin="round" stroke-linecap="round" stroke="rgb(255,0,0)" stroke-width="3.749996" fill="none" d="M 75.278831 531.448486 L 76.535851 545.904358 " />
<path stroke-linejoin="round" stroke-linecap="round" stroke="rgb(0,0,255)" stroke-width="1.874998" fill="none" d="M 0.000000 750.000000 L 225.000015 0.000000 " />
<path stroke-linejoin="round" stroke-linecap="round" stroke="rgb(255,0,0)" stroke-width="3.749996" fill="none" d="M 73.096054 506.346527 L 75.278831 531.448486 " />
<path stroke-linejoin="round" stroke-linecap="round" stroke="rgb(0,0,255)" stroke-width="1.874998" fill="none" d="M 0.000000 750.000000 L 197.727264 0.000000 " />
<path stroke-linejoin="round" stroke-linecap="round" stroke="rgb(255,0,0)" stroke-width="3.749996" fill="none" d="M 70.898499 481.074646 L 73.096054 506.346466 " />
<path stroke-linejoin="round" stroke-linecap="round" stroke="rgb(0,0,255)" stroke-width="1.874998" fill="none" d="M 0.000000 750.000000 L 187.500000 0.000000 " />
<path stroke-linejoin="round" stroke-linecap="round" stroke="rgb(255,0,0)" stroke-width="3.749996" fill="none" d="M 69.952148 470.191467 L 70.898499 481.074646 " />
<path stroke-linejoin="round" stroke-linecap="round" stroke="rgb(0,0,255)" stroke-width="1.874998" fill="none" d="M 0.000000 750.000000 L 175.000015 0.000000 " />
<path stroke-linejoin="round" stroke-linecap="round" stroke="rgb(255,0,0)" stroke-width="3.749996" fill="none" d="M 68.686028 455.631317 L 69.952126 470.191498 " />
<path stroke-linejoin="round" stroke-linecap="round" stroke="rgb(0,0,255)" stroke-width="1.874998" fill="none" d="M 0.000000 750.000000 L 167.307709 0.000000 " />
<path stroke-linejoin="round" stroke-linecap="round" stroke="rgb(255,0,0)" stroke-width="3.749996" fill="none" d="M 67.839233 445.893097 L 68.686005 455.631348 " />
<path stroke-linejoin="round" stroke-linecap="round" stroke="rgb(0,0,255)" stroke-width="1.874998" fill="none" d="M 0.000000 750.000000 L 155.769226 0.000000 " />
<path stroke-linejoin="round" stroke-linecap="round" stroke="rgb(255,0,0)" stroke-width="3.749996" fill="none" d="M 66.458481 430.014648 L 67.839233 445.893097 " />
<path stroke-linejoin="round" stroke-linecap="round" stroke="rgb(0,0,255)" stroke-width="1.874998" fill="none" d="M 0.000000 750.000000 L 139.285721 0.000000 " />
<path stroke-linejoin="round" stroke-linecap="round" stroke="rgb(255,0,0)" stroke-width="3.749996" fill="none" d="M 64.215729 404.222992 L 66.458481 430.014648 " />
<path stroke-linejoin="round" stroke-linecap="round" stroke="rgb(0,0,255)" stroke-width="1.874998" fill="none" d="M 0.000000 750.000000 L 125.000015 0.000000 " />
<path stroke-linejoin="round" stroke-linecap="round" stroke="rgb(255,0,0)" stroke-width="3.749996" fill="none" d="M 61.957596 378.254425 L 64.215729 404.222992 " />
<path stroke-linejoin="round" stroke-linecap="round" stroke="rgb(0,0,255)" stroke-width="1.874998" fill="none" d="M 0.000000 750.000000 L 112.500008 0.000000 " />
<path stroke-linejoin="round" stroke-linecap="round" stroke="rgb(255,0,0)" stroke-width="3.749996" fill="none" d="M 59.683933 352.107178 L 61.957596 378.254425 " />
<path stroke-linejoin="round" stroke-linecap="round" stroke="rgb(0,0,255)" stroke-width="1.874998" fill="none" d="M 0.000000 750.000000 L 110.294113 0.000000 " />
<path stroke-linejoin="round" stroke-linecap="round" stroke="rgb(255,0,0)" stroke-width="3.749996" fill="none" d="M 59.249081 347.106293 L 59.683933 352.107178 " />
<path stroke-linejoin="round" stroke-linecap="round" stroke="rgb(0,0,255)" stroke-width="1.874998" fill="none" d="M 0.000000 750.000000 L 101.470581 0.000000 " />
<path stroke-linejoin="round" stroke-linecap="round" stroke="rgb(255,0,0)" stroke-width="3.749996" fill="none" d="M 57.394558 325.779358 L 59.249081 347.106293 " />
<path stroke-linejoin="round" stroke-linecap="round" stroke="rgb(0,0,255)" stroke-width="1.874998" fill="none" d="M 0.000000 750.000000 L 91.666664 0.000000 " />
<path stroke-linejoin="round" stroke-linecap="round" stroke="rgb(255,0,0)" stroke-width="3.749996" fill="none" d="M 55.089333 299.269165 L 57.394558 325.779358 " />
<path stroke-linejoin="round" stroke-linecap="round" stroke="rgb(0,0,255)" stroke-width="1.874998" fill="none" d="M 0.000000 750.000000 L 82.894745 0.000000 " />
<path stroke-linejoin="round" stroke-linecap="round" stroke="rgb(255,0,0)" stroke-width="3.749996" fill="none" d="M 52.768059 272.574677 L 55.089333 299.269165 " />
<path stroke-linejoin="round" stroke-linecap="round" stroke="rgb(0,0,255)" stroke-width="1.874998" fill="none" d="M 0.000000 750.000000 L 74.999992 0.000000 " />
<path stroke-linejoin="round" stroke-linecap="round" stroke="rgb(255,0,0)" stroke-width="3.749996" fill="none" d="M 50.430603 245.693970 L 52.768059 272.574677 " />
<path stroke-linejoin="round" stroke-linecap="round" stroke="rgb(0,0,255)" stroke-width="1.874998" fill="none" d="M 0.000000 750.000000 L 70.895523 0.000000 " />
<path stroke-linejoin="round" stroke-linecap="round" stroke="rgb(255,0,0)" stroke-width="3.749996" fill="none" d="M 48.494339 236.980850 L 50.430603 245.693970 " />
<path stroke-linejoin="round" stroke-linecap="round" stroke="rgb(0,0,255)" stroke-width="1.874998" fill="none" d="M 0.000000 750.000000 L 66.831688 0.000000 " />
<path stroke-linejoin="round" stroke-linecap="round" stroke="rgb(255,0,0)" stroke-width="3.749996" fill="none" d="M 46.510197 228.052185 L 48.494339 236.980850 " />
<path stroke-linejoin="round" stroke-linecap="round" stroke="rgb(0,0,255)" stroke-width="1.874998" fill="none" d="M 0.000000 750.000000 L 66.176468 0.000000 " />
<path stroke-linejoin="round" stroke-linecap="round" stroke="rgb(255,0,0)" stroke-width="3.749996" fill="none" d="M 46.183819 226.583405 L 46.510197 228.052185 " />
<path stroke-linejoin="round" stroke-linecap="round" stroke="rgb(0,0,255)" stroke-width="1.874998" fill="none" d="M 0.000000 750.000000 L 62.195129 0.000000 " />
<path stroke-linejoin="round" stroke-linecap="round" stroke="rgb(255,0,0)" stroke-width="3.749996" fill="none" d="M 44.160381 217.477890 L 46.183819 226.583405 " />
<path stroke-linejoin="round" stroke-linecap="round" stroke="rgb(0,0,255)" stroke-width="1.874998" fill="none" d="M 0.000000 750.000000 L 58.252438 0.000000 " />
<path stroke-linejoin="round" stroke-linecap="round" stroke="rgb(255,0,0)" stroke-width="3.749996" fill="none" d="M 42.085960 208.143127 L 44.160381 217.477890 " />
<path stroke-linejoin="round" stroke-linecap="round" stroke="rgb(0,0,255)" stroke-width="1.874998" fill="none" d="M 0.000000 750.000000 L 54.347813 0.000000 " />
<path stroke-linejoin="round" stroke-linecap="round" stroke="rgb(255,0,0)" stroke-width="3.749996" fill="none" d="M 39.958679 198.570236 L 42.085960 208.143127 " />
<path stroke-linejoin="round" stroke-linecap="round" stroke="rgb(0,0,255)" stroke-width="1.874998" fill="none" d="M 0.000000 750.000000 L 50.480782 0.000000 " />
<path stroke-linejoin="round" stroke-linecap="round" stroke="rgb(255,0,0)" stroke-width="3.749996" fill="none" d="M 37.776432 188.750137 L 39.958679 198.570190 " />
<path stroke-linejoin="round" stroke-linecap="round" stroke="rgb(0,0,255)" stroke-width="1.874998" fill="none" d="M 0.000000 750.000000 L 49.999996 0.000000 " />
<path stroke-linejoin="round" stroke-linecap="round" stroke="rgb(255,0,0)" stroke-width="3.749996" fill="none" d="M 37.499695 187.504745 L 37.776432 188.750137 " />
<path stroke-linejoin="round" stroke-linecap="round" stroke="rgb(0,0,255)" stroke-width="1.874998" fill="none" d="M 0.000000 750.000000 L 49.528309 0.000000 " />
<path stroke-linejoin="round" stroke-linecap="round" stroke="rgb(255,0,0)" stroke-width="3.749996" fill="none" d="M 37.226959 186.277405 L 37.499695 187.504745 " />
<path stroke-linejoin="round" stroke-linecap="round" stroke="rgb(0,0,255)" stroke-width="1.874998" fill="none" d="M 0.000000 750.000000 L 45.774647 0.000000 " />
<path stroke-linejoin="round" stroke-linecap="round" stroke="rgb(255,0,0)" stroke-width="3.749996" fill="none" d="M 35.013512 176.316895 L 37.226959 186.277359 " />
<path stroke-linejoin="round" stroke-linecap="round" stroke="rgb(0,0,255)" stroke-width="1.874998" fill="none" d="M 0.000000 750.000000 L 45.348846 0.000000 " />
<path stroke-linejoin="round" stroke-linecap="round" stroke="rgb(255,0,0)" stroke-width="3.749996" fill="none" d="M 34.757496 175.164703 L 35.013535 176.316849 " />
<path stroke-linejoin="round" stroke-linecap="round" stroke="rgb(0,0,255)" stroke-width="1.874998" fill="none" d="M 0.000000 750.000000 L 41.666664 0.000000 " />
<path stroke-linejoin="round" stroke-linecap="round" stroke="rgb(255,0,0)" stroke-width="3.749996" fill="none" d="M 32.499744 165.004761 L 34.757496 175.164703 " />
<path stroke-linejoin="round" stroke-linecap="round" stroke="rgb(0,0,255)" stroke-width="1.874998" fill="none" d="M 0.000000 750.000000 L 41.284405 0.000000 " />
<path stroke-linejoin="round" stroke-linecap="round" stroke="rgb(255,0,0)" stroke-width="3.749996" fill="none" d="M 32.260761 163.929413 L 32.499744 165.004761 " />
<path stroke-linejoin="round" stroke-linecap="round" stroke="rgb(0,0,255)" stroke-width="1.874998" fill="none" d="M 0.000000 750.000000 L 40.909096 0.000000 " />
<path stroke-linejoin="round" stroke-linecap="round" stroke="rgb(255,0,0)" stroke-width="3.749996" fill="none" d="M 32.025284 162.869812 L 32.260761 163.929413 " />
<path stroke-linejoin="round" stroke-linecap="round" stroke="rgb(0,0,255)" stroke-width="1.874998" fill="none" d="M 0.000000 750.000000 L 40.540539 0.000000 " />
<path stroke-linejoin="round" stroke-linecap="round" stroke="rgb(255,0,0)" stroke-width="3.749996" fill="none" d="M 31.793207 161.825531 L 32.025284 162.869858 " />
<path stroke-linejoin="round" stroke-linecap="round" stroke="rgb(0,0,255)" stroke-width="1.874998" fill="none" d="M 0.000000 750.000000 L 40.178574 0.000000 " />
<path stroke-linejoin="round" stroke-linecap="round" stroke="rgb(255,0,0)" stroke-width="3.749996" fill="none" d="M 31.564482 160.796326 L 31.793207 161.825531 " />
<path stroke-linejoin="round" stroke-linecap="round" stroke="rgb(0,0,255)" stroke-width="1.874998" fill="none" d="M 0.000000 750.000000 L 36.995506 0.000000 " />
<path stroke-linejoin="round" stroke-linecap="round" stroke="rgb(255,0,0)" stroke-width="3.749996" fill="none" d="M 29.518089 151.587631 L 31.564482 160.796326 " />
<path stroke-linejoin="round" stroke-linecap="round" stroke="rgb(0,0,255)" stroke-width="1.874998" fill="none" d="M 0.000000 750.000000 L 33.482151 0.000000 " />
<path stroke-linejoin="round" stroke-linecap="round" stroke="rgb(255,0,0)" stroke-width="3.749996" fill="none" d="M 27.183786 141.083206 L 29.518089 151.587631 " />
<path stroke-linejoin="round" stroke-linecap="round" stroke="rgb(0,0,255)" stroke-width="1.874998" fill="none" d="M 0.000000 750.000000 L 33.185833 0.000000 " />
<path stroke-linejoin="round" stroke-linecap="round" stroke="rgb(255,0,0)" stroke-width="3.749996" fill="none" d="M 26.983156 140.180374 L 27.183786 141.083206 " />
<path stroke-linejoin="round" stroke-linecap="round" stroke="rgb(0,0,255)" stroke-width="1.874998" fill="none" d="M 0.000000 750.000000 L 29.735683 0.000000 " />
<path stroke-linejoin="round" stroke-linecap="round" stroke="rgb(255,0,0)" stroke-width="3.749996" fill="none" d="M 24.602608 129.467728 L 26.983179 140.180328 " />
<path stroke-linejoin="round" stroke-linecap="round" stroke="rgb(0,0,255)" stroke-width="1.874998" fill="none" d="M 0.000000 750.000000 L 26.315779 0.000000 " />
<path stroke-linejoin="round" stroke-linecap="round" stroke="rgb(255,0,0)" stroke-width="3.749996" fill="none" d="M 22.158913 118.471069 L 24.602608 129.467682 " />
<path stroke-linejoin="round" stroke-linecap="round" stroke="rgb(0,0,255)" stroke-width="1.874998" fill="none" d="M 0.000000 750.000000 L 26.086964 0.000000 " />
<path stroke-linejoin="round" stroke-linecap="round" stroke="rgb(255,0,0)" stroke-width="3.749996" fill="none" d="M 21.992304 117.721352 L 22.158913 118.471069 " />
<path stroke-linejoin="round" stroke-linecap="round" stroke="rgb(0,0,255)" stroke-width="1.874998" fill="none" d="M 0.000000 750.000000 L 25.862061 0.000000 " />
<path stroke-linejoin="round" stroke-linecap="round" stroke="rgb(255,0,0)" stroke-width="3.749996" fill="none" d="M 21.828175 116.982803 L 21.992304 117.721352 " />
<path stroke-linejoin="round" stroke-linecap="round" stroke="rgb(0,0,255)" stroke-width="1.874998" fill="none" d="M 0.000000 750.000000 L 25.641024 0.000000 " />
<path stroke-linejoin="round" stroke-linecap="round" stroke="rgb(255,0,0)" stroke-width="3.749996" fill="none" d="M 21.666483 116.255211 L 21.828175 116.982803 " />
<path stroke-linejoin="round" stroke-linecap="round" stroke="rgb(0,0,255)" stroke-width="1.874998" fill="none" d="M 0.000000 750.000000 L 25.423721 0.000000 " />
<path stroke-linejoin="round" stroke-linecap="round" stroke="rgb(255,0,0)" stroke-width="3.749996" fill="none" d="M 21.507181 115.538300 L 21.666483 116.255211 " />
<path stroke-linejoin="round" stroke-linecap="round" stroke="rgb(0,0,255)" stroke-width="1.874998" fill="none" d="M 0.000000 750.000000 L 25.210083 0.000000 " />
<path stroke-linejoin="round" stroke-linecap="round" stroke="rgb(255,0,0)" stroke-width="3.749996" fill="none" d="M 21.350183 114.831848 L 21.507181 115.538300 " />
<path stroke-linejoin="round" stroke-linecap="round" stroke="rgb(0,0,255)" stroke-width="1.874998" fill="none" d="M 0.000000 750.000000 L 24.999998 0.000000 " />
<path stroke-linejoin="round" stroke-linecap="round" stroke="rgb(255,0,0)" stroke-width="3.749996" fill="none" d="M 21.195486 114.135681 L 21.350183 114.831848 " />
<path stroke-linejoin="round" stroke-linecap="round" stroke="rgb(0,0,255)" stroke-width="1.874998" fill="none" d="M 0.000000 750.000000 L 24.793379 0.000000 " />
<path stroke-linejoin="round" stroke-linecap="round" stroke="rgb(255,0,0)" stroke-width="3.749996" fill="none" d="M 21.043003 113.449532 L 21.195486 114.135681 " />
<path stroke-linejoin="round" stroke-linecap="round" stroke="rgb(0,0,255)" stroke-width="1.874998" fill="none" d="M 0.000000 750.000000 L 22.532187 0.000000 " />
<path stroke-linejoin="round" stroke-linecap="round" stroke="rgb(255,0,0)" stroke-width="3.749996" fill="none" d="M 19.352385 105.841797 L 21.042980 113.449570 " />
<path stroke-linejoin="round" stroke-linecap="round" stroke="rgb(0,0,255)" stroke-width="1.874998" fill="none" d="M 0.000000 750.000000 L 19.230768 0.000000 " />
<path stroke-linejoin="round" stroke-linecap="round" stroke="rgb(255,0,0)" stroke-width="3.749996" fill="none" d="M 16.810209 94.401909 L 19.352406 105.841713 " />
<path stroke-linejoin="round" stroke-linecap="round" stroke="rgb(0,0,255)" stroke-width="1.874998" fill="none" d="M 0.000000 750.000000 L 15.957445 0.000000 " />
<path stroke-linejoin="round" stroke-linecap="round" stroke="rgb(255,0,0)" stroke-width="3.749996" fill="none" d="M 14.198921 82.651062 L 16.810209 94.401909 " />
<path stroke-linejoin="round" stroke-linecap="round" stroke="rgb(0,0,255)" stroke-width="1.874998" fill="none" d="M 0.000000 750.000000 L 12.711861 0.000000 " />
<path stroke-linejoin="round" stroke-linecap="round" stroke="rgb(255,0,0)" stroke-width="3.749996" fill="none" d="M 11.515662 70.576431 L 14.198921 82.651062 " />
<path stroke-linejoin="round" stroke-linecap="round" stroke="rgb(0,0,255)" stroke-width="1.874998" fill="none" d="M 0.000000 750.000000 L 12.605042 0.000000 " />
<path stroke-linejoin="round" stroke-linecap="round" stroke="rgb(255,0,0)" stroke-width="3.749996" fill="none" d="M 11.425696 70.171547 L 11.515662 70.576431 " />
<path stroke-linejoin="round" stroke-linecap="round" stroke="rgb(0,0,255)" stroke-width="1.874998" fill="none" d="M 0.000000 750.000000 L 12.500010 0.000000 " />
<path stroke-linejoin="round" stroke-linecap="round" stroke="rgb(255,0,0)" stroke-width="3.749996" fill="none" d="M 11.337116 69.773018 L 11.425696 70.171547 " />
<path stroke-linejoin="round" stroke-linecap="round" stroke="rgb(0,0,255)" stroke-width="1.874998" fill="none" d="M 0.000000 750.000000 L 12.396701 0.000000 " />
<path stroke-linejoin="round" stroke-linecap="round" stroke="rgb(255,0,0)" stroke-width="3.749996" fill="none" d="M 11.249900 69.380608 L 11.337116 69.773018 " />
<path stroke-linejoin="round" stroke-linecap="round" stroke="rgb(0,0,255)" stroke-width="1.874998" fill="none" d="M 0.000000 750.000000 L 12.295090 0.000000 " />
<path stroke-linejoin="round" stroke-linecap="round" stroke="rgb(255,0,0)" stroke-width="3.749996" fill="none" d="M 11.164024 68.994102 L 11.249900 69.380608 " />
<path stroke-linejoin="round" stroke-linecap="round" stroke="rgb(0,0,255)" stroke-width="1.874998" fill="none" d="M 0.000000 750.000000 L 12.195110 0.000000 " />
<path stroke-linejoin="round" stroke-linecap="round" stroke="rgb(255,0,0)" stroke-width="3.749996" fill="none" d="M 11.079446 68.613541 L 11.164024 68.994102 " />
<path stroke-linejoin="round" stroke-linecap="round" stroke="rgb(0,0,255)" stroke-width="1.874998" fill="none" d="M 0.000000 750.000000 L 12.096763 0.000000 " />
<path stroke-linejoin="round" stroke-linecap="round" stroke="rgb(255,0,0)" stroke-width="3.749996" fill="none" d="M 10.996140 68.238663 L 11.079446 68.613541 " />
<path stroke-linejoin="round" stroke-linecap="round" stroke="rgb(0,0,255)" stroke-width="1.874998" fill="none" d="M 0.000000 750.000000 L 12.000002 0.000000 " />
<path stroke-linejoin="round" stroke-linecap="round" stroke="rgb(255,0,0)" stroke-width="3.749996" fill="none" d="M 10.914087 67.869408 L 10.996140 68.238663 " />
<path stroke-linejoin="round" stroke-linecap="round" stroke="rgb(0,0,255)" stroke-width="1.874998" fill="none" d="M 0.000000 750.000000 L 11.904761 0.000000 " />
<path stroke-linejoin="round" stroke-linecap="round" stroke="rgb(255,0,0)" stroke-width="3.749996" fill="none" d="M 10.833241 67.505615 L 10.914087 67.869408 " />
<path stroke-linejoin="round" stroke-linecap="round" stroke="rgb(0,0,255)" stroke-width="1.874998" fill="none" d="M 0.000000 750.000000 L 11.811018 0.000000 " />
<path stroke-linejoin="round" stroke-linecap="round" stroke="rgb(255,0,0)" stroke-width="3.749996" fill="none" d="M 10.753579 67.147179 L 10.833241 67.505615 " />
<path stroke-linejoin="round" stroke-linecap="round" stroke="rgb(0,0,255)" stroke-width="1.874998" fill="none" d="M 0.000000 750.000000 L 11.718750 0.000000 " />
<path stroke-linejoin="round" stroke-linecap="round" stroke="rgb(255,0,0)" stroke-width="3.749996" fill="none" d="M 10.675102 66.793930 L 10.753579 67.147179 " />
<path stroke-linejoin="round" stroke-linecap="round" stroke="rgb(0,0,255)" stroke-width="1.874998" fill="none" d="M 0.000000 750.000000 L 11.627913 0.000000 " />
<path stroke-linejoin="round" stroke-linecap="round" stroke="rgb(255,0,0)" stroke-width="3.749996" fill="none" d="M 10.597743 66.445831 L 10.675102 66.793930 " />
<path stroke-linejoin="round" stroke-linecap="round" stroke="rgb(0,0,255)" stroke-width="1.874998" fill="none" d="M 0.000000 750.000000 L 11.538461 0.000000 " />
<path stroke-linejoin="round" stroke-linecap="round" stroke="rgb(255,0,0)" stroke-width="3.749996" fill="none" d="M 10.521502 66.102776 L 10.597743 66.445831 " />
<path stroke-linejoin="round" stroke-linecap="round" stroke="rgb(0,0,255)" stroke-width="1.874998" fill="none" d="M 0.000000 750.000000 L 8.964144 0.000000 " />
<path stroke-linejoin="round" stroke-linecap="round" stroke="rgb(255,0,0)" stroke-width="3.749996" fill="none" d="M 8.293882 56.078552 L 10.521502 66.102821 " />
<path stroke-linejoin="round" stroke-linecap="round" stroke="rgb(0,0,255)" stroke-width="1.874998" fill="none" d="M 0.000000 750.000000 L 5.952381 0.000000 " />
<path stroke-linejoin="round" stroke-linecap="round" stroke="rgb(255,0,0)" stroke-width="3.749996" fill="none" d="M 5.603403 43.971329 L 8.293882 56.078552 " />
<path stroke-linejoin="round" stroke-linecap="round" stroke="rgb(0,0,255)" stroke-width="1.874998" fill="none" d="M 0.000000 750.000000 L 2.964422 0.000000 " />
<path stroke-linejoin="round" stroke-linecap="round" stroke="rgb(255,0,0)" stroke-width="3.749996" fill="none" d="M 2.839789 31.535044 L 5.603403 43.971287 " />
<path stroke-linejoin="round" stroke-linecap="round" stroke="rgb(0,0,255)" stroke-width="1.874998" fill="none" d="M 0.000000 750.000000 L 0.000000 0.000000 " />
<path stroke-linejoin="round" stroke-linecap="round" stroke="rgb(255,0,0)" stroke-width="3.749996" fill="none" d="M 0.000000 0.000000 L 2.839789 31.535044 " />
<circle cx="91.997668" cy="723.714955" r="3.749996" style="fill:rgb(0,127,0);stroke-width:1" /><circle cx="89.695327" cy="697.238043" r="3.749996" style="fill:rgb(0,127,0);stroke-width:1" /><circle cx="87.743439" cy="674.791351" r="3.749996" style="fill:rgb(0,127,0);stroke-width:1" /><circle cx="85.533120" cy="649.372794" r="3.749996" style="fill:rgb(0,127,0);stroke-width:1" /><circle cx="83.307378" cy="623.776719" r="3.749996" style="fill:rgb(0,127,0);stroke-width:1" /><circle cx="81.066012" cy="598.001227" r="3.749996" style="fill:rgb(0,127,0);stroke-width:1" /><circle cx="78.808911" cy="572.044417" r="3.749996" style="fill:rgb(0,127,0);stroke-width:1" /><circle cx="76.535851" cy="545.904368" r="3.749996" style="fill:rgb(0,127,0);stroke-width:1" /><circle cx="75.278834" cy="531.448536" r="3.749996" style="fill:rgb(0,127,0);stroke-width:1" /><circle cx="73.096052" cy="506.346501" r="3.749996" style="fill:rgb(0,127,0);stroke-width:1" /><circle cx="70.898496" cy="481.074661" r="3.749996" style="fill:rgb(0,127,0);stroke-width:1" /><circle cx="69.952145" cy="470.191464" r="3.749996" style="fill:rgb(0,127,0);stroke-width:1" /><circle cx="68.686031" cy="455.631338" r="3.749996" style="fill:rgb(0,127,0);stroke-width:1" /><circle cx="67.839235" cy="445.893131" r="3.749996" style="fill:rgb(0,127,0);stroke-width:1" /><circle cx="66.458479" cy="430.014655" r="3.749996" style="fill:rgb(0,127,0);stroke-width:1" /><circle cx="64.215727" cy="404.222980" r="3.749996" style="fill:rgb(0,127,0);stroke-width:1" /><circle cx="61.957598" cy="378.254414" r="3.749996" style="fill:rgb(0,127,0);stroke-width:1" /><circle cx="59.683934" cy="352.107167" r="3.749996" style="fill:rgb(0,127,0);stroke-width:1" /><circle cx="59.249081" cy="347.106278" r="3.749996" style="fill:rgb(0,127,0);stroke-width:1" /><circle cx="57.394557" cy="325.779364" r="3.749996" style="fill:rgb(0,127,0);stroke-width:1" /><circle cx="55.089332" cy="299.269170" r="3.749996" style="fill:rgb(0,127,0);stroke-width:1" /><circle cx="52.768059" cy="272.574663" r="3.749996" style="fill:rgb(0,127,0);stroke-width:1" /><circle cx="50.430603" cy="245.693967" r="3.749996" style="fill:rgb(0,127,0);stroke-width:1" /><circle cx="48.494339" cy="236.980855" r="3.749996" style="fill:rgb(0,127,0);stroke-width:1" /><circle cx="46.510197" cy="228.052184" r="3.749996" style="fill:rgb(0,127,0);stroke-width:1" /><circle cx="46.183817" cy="226.583406" r="3.749996" style="fill:rgb(0,127,0);stroke-width:1" /><circle cx="44.160381" cy="217.477888" r="3.749996" style="fill:rgb(0,127,0);stroke-width:1" /><circle cx="42.085961" cy="208.143130" r="3.749996" style="fill:rgb(0,127,0);stroke-width:1" /><circle cx="39.958678" cy="198.570237" r="3.749996" style="fill:rgb(0,127,0);stroke-width:1" /><circle cx="37.776433" cy="188.750133" r="3.749996" style="fill:rgb(0,127,0);stroke-width:1" /><circle cx="37.499696" cy="187.504739" r="3.749996" style="fill:rgb(0,127,0);stroke-width:1" /><circle cx="37.226960" cy="186.277404" r="3.749996" style="fill:rgb(0,127,0);stroke-width:1" /><circle cx="35.013512" cy="176.316887" r="3.749996" style="fill:rgb(0,127,0);stroke-width:1" /><circle cx="34.757495" cy="175.164700" r="3.749996" style="fill:rgb(0,127,0);stroke-width:1" /><circle cx="32.499745" cy="165.004760" r="3.749996" style="fill:rgb(0,127,0);stroke-width:1" /><circle cx="32.260761" cy="163.929418" r="3.749996" style="fill:rgb(0,127,0);stroke-width:1" /><circle cx="32.025285" cy="162.869811" r="3.749996" style="fill:rgb(0,127,0);stroke-width:1" /><circle cx="31.793207" cy="161.825538" r="3.749996" style="fill:rgb(0,127,0);stroke-width:1" /><circle cx="31.564482" cy="160.796329" r="3.749996" style="fill:rgb(0,127,0);stroke-width:1" /><circle cx="29.518090" cy="151.587635" r="3.749996" style="fill:rgb(0,127,0);stroke-width:1" /><circle cx="27.183786" cy="141.083211" r="3.749996" style="fill:rgb(0,127,0);stroke-width:1" /><circle cx="26.983157" cy="140.180379" r="3.749996" style="fill:rgb(0,127,0);stroke-width:1" /><circle cx="24.602607" cy="129.467726" r="3.749996" style="fill:rgb(0,127,0);stroke-width:1" /><circle cx="22.158913" cy="118.471071" r="3.749996" style="fill:rgb(0,127,0);stroke-width:1" /><circle cx="21.992303" cy="117.721349" r="3.749996" style="fill:rgb(0,127,0);stroke-width:1" /><circle cx="21.828175" cy="116.982803" r="3.749996" style="fill:rgb(0,127,0);stroke-width:1" /><circle cx="21.666482" cy="116.255209" r="3.749996" style="fill:rgb(0,127,0);stroke-width:1" /><circle cx="21.507181" cy="115.538299" r="3.749996" style="fill:rgb(0,127,0);stroke-width:1" /><circle cx="21.350183" cy="114.831850" r="3.749996" style="fill:rgb(0,127,0);stroke-width:1" /><circle cx="21.195486" cy="114.135683" r="3.749996" style="fill:rgb(0,127,0);stroke-width:1" /><circle cx="21.043003" cy="113.449529" r="3.749996" style="fill:rgb(0,127,0);stroke-width:1" /><circle cx="19.352384" cy="105.841801" r="3.749996" style="fill:rgb(0,127,0);stroke-width:1" /><circle cx="16.810209" cy="94.401911" r="3.749996" style="fill:rgb(0,127,0);stroke-width:1" /><circle cx="14.198922" cy="82.651064" r="3.749996" style="fill:rgb(0,127,0);stroke-width:1" /><circle cx="11.515662" cy="70.576429" r="3.749996" style="fill:rgb(0,127,0);stroke-width:1" /><circle cx="11.425696" cy="70.171550" r="3.749996" style="fill:rgb(0,127,0);stroke-width:1" /><circle cx="11.337116" cy="69.773018" r="3.749996" style="fill:rgb(0,127,0);stroke-width:1" /><circle cx="11.249900" cy="69.380611" r="3.749996" style="fill:rgb(0,127,0);stroke-width:1" /><circle cx="11.164024" cy="68.994105" r="3.749996" style="fill:rgb(0,127,0);stroke-width:1" /><circle cx="11.079445" cy="68.613544" r="3.749996" style="fill:rgb(0,127,0);stroke-width:1" /><circle cx="10.996141" cy="68.238661" r="3.749996" style="fill:rgb(0,127,0);stroke-width:1" /><circle cx="10.914087" cy="67.869410" r="3.749996" style="fill:rgb(0,127,0);stroke-width:1" /><circle cx="10.833241" cy="67.505613" r="3.749996" style="fill:rgb(0,127,0);stroke-width:1" /><circle cx="10.753579" cy="67.147180" r="3.749996" style="fill:rgb(0,127,0);stroke-width:1" /><circle cx="10.675102" cy="66.793934" r="3.749996" style="fill:rgb(0,127,0);stroke-width:1" /><circle cx="10.597743" cy="66.445827" r="3.749996" style="fill:rgb(0,127,0);stroke-width:1" /><circle cx="10.521501" cy="66.102773" r="3.749996" style="fill:rgb(0,127,0);stroke-width:1" /><circle cx="8.293882" cy="56.078553" r="3.749996" style="fill:rgb(0,127,0);stroke-width:1" /><circle cx="5.603403" cy="43.971330" r="3.749996" style="fill:rgb(0,127,0);stroke-width:1" /><circle cx="2.839789" cy="31.535044" r="3.749996" style="fill:rgb(0,127,0);stroke-width:1" /><circle cx="750.000000" cy="750.000000" r="3.749996" style="fill:rgb(0,127,0);stroke-width:1" /><path stroke-linejoin="round" stroke-linecap="round" stroke="rgb(255,255,255)" stroke-width="3.749996" fill="none" d="M 0.000000 750.000000 L 750.000000 750.000000 M 0.000000 750.000000 L 0.000000 0.000000 " />

</svg>