<svg xmlns="http://www.w3.org/2000/svg" version="1.1" width = "750" height = "750" viewBox = "0 0 750 750"  shape-rendering="crispEdges">
<path stroke-linejoin="round" stroke-linecap="round" stroke="rgb(255,255,0)" stroke-width="3.749996" fill="none" d="M 187.500000 750.000000 L 0.000000 0.000000 " />
<path stroke-linejoin="round" stroke-linecap="round" stroke="rgb(63,63,63)" stroke-width="3.749996" fill="none" d="M 0.000000 0.000000 L 750.000000 750.000000 M 187.500000 750.000000 L 80.357147 0.000000 " />
<path stroke-linejoin="round" stroke-linecap="round" stroke="rgb(191,191,191)" stroke-width="3.749996" fill="none" d="M 0.000000 562.500000 L 187.500000 750.000000 M 0.000000 0.000000 L 107.142853 750.000000 " />
<path stroke-linejoin="round" stroke-linecap="round" stroke="rgb(0,0,255)" stroke-width="1.874998" fill="none" d="M 0.000000 750.000000 L 750.000000 734.042542 " />
<path stroke-linejoin="round" stroke-linecap="round" stroke="rgb(255,0,0)" stroke-width="3.749996" fill="none" d="M 186.931824 746.022705 L 187.500000 750.000000 " />
<path stroke-linejoin="round" stroke-linecap="round" stroke="rgb(0,0,255)" stroke-width="1.874998" fill="none" d="M 0.000000 750.000000 L 750.000000 718.750000 " />
<path stroke-linejoin="round" stroke-linecap="round" stroke="rgb(255,0,0)" stroke-width="3.749996" fill="none" d="M 183.272720 742.363647 L 186.931824 746.022705 " />
<path stroke-linejoin="round" stroke-linecap="round" stroke="rgb(0,0,255)" stroke-width="1.874998" fill="none" d="M 0.000000 750.000000 L 750.000000 702.127686 " />
<path stroke-linejoin="round" stroke-linecap="round" stroke="rgb(255,0,0)" stroke-width="3.749996" fill="none" d="M 179.454529 738.545471 L 183.272720 742.363647 " />
<path stroke-linejoin="round" stroke-linecap="round" stroke="rgb(0,0,255)" stroke-width="1.874998" fill="none" d="M 0.000000 750.000000 L 750.000000 684.782654 " />
<path stroke-linejoin="round" stroke-linecap="round" stroke="rgb(255,0,0)" stroke-width="3.749996" fill="none" d="M 175.636368 734.727295 L 179.454529 738.545471 " />
<path stroke-linejoin="round" stroke-linecap="round" stroke="rgb(0,0,255)" stroke-width="1.874998" fill="none" d="M 0.000000 750.000000 L 750.000000 666.666687 " />
<path stroke-linejoin="round" stroke-linecap="round" stroke="rgb(255,0,0)" stroke-width="3.749996" fill="none" d="M 171.818192 730.909119 L 175.636368 734.727295 " />
<path stroke-linejoin="round" stroke-linecap="round" stroke="rgb(0,0,255)" stroke-width="1.874998" fill="none" d="M 0.000000 750.000000 L 750.000000 652.173950 " />
<path stroke-linejoin="round" stroke-linecap="round" stroke="rgb(255,0,0)" stroke-width="3.749996" fill="none" d="M 168.881134 727.971985 L 171.818192 730.909119 " />
<path stroke-linejoin="round" stroke-linecap="round" stroke="rgb(0,0,255)" stroke-width="1.874998" fill="none" d="M 0.000000 750.000000 L 750.000000 647.727295 " />
<path stroke-linejoin="round" stroke-linecap="round" stroke="rgb(255,0,0)" stroke-width="3.749996" fill="none" d="M 167.999985 727.090881 L 168.881134 727.971985 " />
<path stroke-linejoin="round" stroke-linecap="round" stroke="rgb(0,0,255)" stroke-width="1.874998" fill="none" d="M 0.000000 750.000000 L 750.000000 633.333313 " />
<path stroke-linejoin="round" stroke-linecap="round" stroke="rgb(255,0,0)" stroke-width="3.749996" fill="none" d="M 165.209778 724.300659 L 167.999985 727.090881 " />
<path stroke-linejoin="round" stroke-linecap="round" stroke="rgb(0,0,255)" stroke-width="1.874998" fill="none" d="M 0.000000 750.000000 L 750.000000 627.906982 " />
<path stroke-linejoin="round" stroke-linecap="round" stroke="rgb(255,0,0)" stroke-width="3.749996" fill="none" d="M 164.181808 723.272705 L 165.209778 724.300659 " />
<path stroke-linejoin="round" stroke-linecap="round" stroke="rgb(0,0,255)" stroke-width="1.874998" fill="none" d="M 0.000000 750.000000 L 750.000000 613.636353 " />
<path stroke-linejoin="round" stroke-linecap="round" stroke="rgb(255,0,0)" stroke-width="3.749996" fill="none" d="M 161.538452 720.629395 L 164.181808 723.272705 " />
<path stroke-linejoin="round" stroke-linecap="round" stroke="rgb(0,0,255)" stroke-width="1.874998" fill="none" d="M 0.000000 750.000000 L 750.000000 607.142883 " />
<path stroke-linejoin="round" stroke-linecap="round" stroke="rgb(255,0,0)" stroke-width="3.749996" fill="none" d="M 160.363647 719.454529 L 161.538452 720.629395 " />
<path stroke-linejoin="round" stroke-linecap="round" stroke="rgb(0,0,255)" stroke-width="1.874998" fill="none" d="M 0.000000 750.000000 L 750.000000 585.365845 " />
<path stroke-linejoin="round" stroke-linecap="round" stroke="rgb(255,0,0)" stroke-width="3.749996" fill="none" d="M 156.545456 715.636353 L 160.363647 719.454529 " />
<path stroke-linejoin="round" stroke-linecap="round" stroke="rgb(0,0,255)" stroke-width="1.874998" fill="none" d="M 0.000000 750.000000 L 750.000000 571.428589 " />
<path stroke-linejoin="round" stroke-linecap="round" stroke="rgb(255,0,0)" stroke-width="3.749996" fill="none" d="M 154.195786 713.286743 L 156.545456 715.636353 " />
<path stroke-linejoin="round" stroke-linecap="round" stroke="rgb(0,0,255)" stroke-width="1.874998" fill="none" d="M 0.000000 750.000000 L 750.000000 548.780518 " />
<path stroke-linejoin="round" stroke-linecap="round" stroke="rgb(255,0,0)" stroke-width="3.749996" fill="none" d="M 150.524475 709.615417 L 154.195786 713.286743 " />
<path stroke-linejoin="round" stroke-linecap="round" stroke="rgb(0,0,255)" stroke-width="1.874998" fill="none" d="M 0.000000 750.000000 L 750.000000 525.000000 " />
<path stroke-linejoin="round" stroke-linecap="round" stroke="rgb(255,0,0)" stroke-width="3.749996" fill="none" d="M 146.853134 705.944031 L 150.524475 709.615417 " />
<path stroke-linejoin="round" stroke-linecap="round" stroke="rgb(0,0,255)" stroke-width="1.874998" fill="none" d="M 0.000000 750.000000 L 750.000000 512.195129 " />
<path stroke-linejoin="round" stroke-linecap="round" stroke="rgb(255,0,0)" stroke-width="3.749996" fill="none" d="M 144.949509 704.040405 L 146.853134 705.944031 " />
<path stroke-linejoin="round" stroke-linecap="round" stroke="rgb(0,0,255)" stroke-width="1.874998" fill="none" d="M 0.000000 750.000000 L 750.000000 499.999969 " />
<path stroke-linejoin="round" stroke-linecap="round" stroke="rgb(255,0,0)" stroke-width="3.749996" fill="none" d="M 143.181808 702.272705 L 144.949524 704.040405 " />
<path stroke-linejoin="round" stroke-linecap="round" stroke="rgb(0,0,255)" stroke-width="1.874998" fill="none" d="M 0.000000 750.000000 L 750.000000 487.499969 " />
<path stroke-linejoin="round" stroke-linecap="round" stroke="rgb(255,0,0)" stroke-width="3.749996" fill="none" d="M 141.414154 700.505005 L 143.181808 702.272705 " />
<path stroke-linejoin="round" stroke-linecap="round" stroke="rgb(0,0,255)" stroke-width="1.874998" fill="none" d="M 0.000000 750.000000 L 750.000000 473.684204 " />
<path stroke-linejoin="round" stroke-linecap="round" stroke="rgb(255,0,0)" stroke-width="3.749996" fill="none" d="M 139.510498 698.601379 L 141.414154 700.505005 " />
<path stroke-linejoin="round" stroke-linecap="round" stroke="rgb(0,0,255)" stroke-width="1.874998" fill="none" d="M 0.000000 750.000000 L 750.000000 445.945953 " />
<path stroke-linejoin="round" stroke-linecap="round" stroke="rgb(255,0,0)" stroke-width="3.749996" fill="none" d="M 135.839157 694.930054 L 139.510498 698.601379 " />
<path stroke-linejoin="round" stroke-linecap="round" stroke="rgb(0,0,255)" stroke-width="1.874998" fill="none" d="M 0.000000 750.000000 L 750.000000 434.210510 " />
<path stroke-linejoin="round" stroke-linecap="round" stroke="rgb(255,0,0)" stroke-width="3.749996" fill="none" d="M 134.343445 693.434387 L 135.839157 694.930054 " />
<path stroke-linejoin="round" stroke-linecap="round" stroke="rgb(0,0,255)" stroke-width="1.874998" fill="none" d="M 0.000000 750.000000 L 750.000000 416.666687 " />
<path stroke-linejoin="round" stroke-linecap="round" stroke="rgb(255,0,0)" stroke-width="3.749996" fill="none" d="M 132.167831 691.258728 L 134.343445 693.434387 " />
<path stroke-linejoin="round" stroke-linecap="round" stroke="rgb(0,0,255)" stroke-width="1.874998" fill="none" d="M 0.000000 750.000000 L 750.000000 405.405426 " />
<path stroke-linejoin="round" stroke-linecap="round" stroke="rgb(255,0,0)" stroke-width="3.749996" fill="none" d="M 130.808075 689.898987 L 132.167831 691.258728 " />
<path stroke-linejoin="round" stroke-linecap="round" stroke="rgb(0,0,255)" stroke-width="1.874998" fill="none" d="M 0.000000 750.000000 L 750.000000 310.975616 " />
<path stroke-linejoin="round" stroke-linecap="round" stroke="rgb(255,0,0)" stroke-width="3.749996" fill="none" d="M 128.636871 674.700378 L 130.808075 689.898987 " />
<path stroke-linejoin="round" stroke-linecap="round" stroke="rgb(0,0,255)" stroke-width="1.874998" fill="none" d="M 0.000000 750.000000 L 750.000000 288.461517 " />
<path stroke-linejoin="round" stroke-linecap="round" stroke="rgb(255,0,0)" stroke-width="3.749996" fill="none" d="M 128.129791 671.150940 L 128.636871 674.700378 " />
<path stroke-linejoin="round" stroke-linecap="round" stroke="rgb(0,0,255)" stroke-width="1.874998" fill="none" d="M 0.000000 750.000000 L 750.000000 264.705872 " />
<path stroke-linejoin="round" stroke-linecap="round" stroke="rgb(255,0,0)" stroke-width="3.749996" fill="none" d="M 125.665741 668.686890 L 128.129776 671.150940 " />
<path stroke-linejoin="round" stroke-linecap="round" stroke="rgb(0,0,255)" stroke-width="1.874998" fill="none" d="M 0.000000 750.000000 L 750.000000 257.142853 " />
<path stroke-linejoin="round" stroke-linecap="round" stroke="rgb(255,0,0)" stroke-width="3.749996" fill="none" d="M 124.901039 667.922180 L 125.665741 668.686890 " />
<path stroke-linejoin="round" stroke-linecap="round" stroke="rgb(0,0,255)" stroke-width="1.874998" fill="none" d="M 0.000000 750.000000 L 750.000000 220.588226 " />
<path stroke-linejoin="round" stroke-linecap="round" stroke="rgb(255,0,0)" stroke-width="3.749996" fill="none" d="M 121.332451 664.353577 L 124.901039 667.922180 " />
<path stroke-linejoin="round" stroke-linecap="round" stroke="rgb(0,0,255)" stroke-width="1.874998" fill="none" d="M 0.000000 750.000000 L 750.000000 64.285713 " />
<path stroke-linejoin="round" stroke-linecap="round" stroke="rgb(255,0,0)" stroke-width="3.749996" fill="none" d="M 118.137451 641.988586 L 121.332451 664.353577 " />
<path stroke-linejoin="round" stroke-linecap="round" stroke="rgb(0,0,255)" stroke-width="1.874998" fill="none" d="M 0.000000 750.000000 L 750.000000 49.999996 " />
<path stroke-linejoin="round" stroke-linecap="round" stroke="rgb(255,0,0)" stroke-width="3.749996" fill="none" d="M 116.973549 640.824707 L 118.137451 641.988586 " />
<path stroke-linejoin="round" stroke-linecap="round" stroke="rgb(0,0,255)" stroke-width="1.874998" fill="none" d="M 0.000000 750.000000 L 750.000000 0.000000 " />
<path stroke-linejoin="round" stroke-linecap="round" stroke="rgb(255,0,0)" stroke-width="3.749996" fill="none" d="M 113.074425 636.925598 L 116.973549 640.824707 " />
<path stroke-linejoin="round" stroke-linecap="round" stroke="rgb(0,0,255)" stroke-width="1.874998" fill="none" d="M 0.000000 750.000000 L 700.000000 0.000000 " />
<path stroke-linejoin="round" stroke-linecap="round" stroke="rgb(255,0,0)" stroke-width="3.749996" fill="none" d="M 109.175293 633.026428 L 113.074425 636.925598 " />
<path stroke-linejoin="round" stroke-linecap="round" stroke="rgb(0,0,255)" stroke-width="1.874998" fill="none" d="M 0.000000 750.000000 L 653.225830 0.000000 " />
<path stroke-linejoin="round" stroke-linecap="round" stroke="rgb(255,0,0)" stroke-width="3.749996" fill="none" d="M 105.276192 629.127319 L 109.175293 633.026428 " />
<path stroke-linejoin="round" stroke-linecap="round" stroke="rgb(0,0,255)" stroke-width="1.874998" fill="none" d="M 0.000000 750.000000 L 609.374939 0.000000 " />
<path stroke-linejoin="round" stroke-linecap="round" stroke="rgb(255,0,0)" stroke-width="3.749996" fill="none" d="M 101.377083 625.228210 L 105.276192 629.127319 " />
<path stroke-linejoin="round" stroke-linecap="round" stroke="rgb(0,0,255)" stroke-width="1.874998" fill="none" d="M 0.000000 750.000000 L 573.529419 0.000000 " />
<path stroke-linejoin="round" stroke-linecap="round" stroke="rgb(255,0,0)" stroke-width="3.749996" fill="none" d="M 97.997856 621.848999 L 101.377083 625.228210 " />
<path stroke-linejoin="round" stroke-linecap="round" stroke="rgb(0,0,255)" stroke-width="1.874998" fill="none" d="M 0.000000 750.000000 L 535.714294 0.000000 " />
<path stroke-linejoin="round" stroke-linecap="round" stroke="rgb(255,0,0)" stroke-width="3.749996" fill="none" d="M 94.228683 618.079834 L 97.997856 621.848999 " />
<path stroke-linejoin="round" stroke-linecap="round" stroke="rgb(0,0,255)" stroke-width="1.874998" fill="none" d="M 0.000000 750.000000 L 500.000000 0.000000 " />
<path stroke-linejoin="round" stroke-linecap="round" stroke="rgb(255,0,0)" stroke-width="3.749996" fill="none" d="M 90.459557 614.310669 L 94.228683 618.079834 " />
<path stroke-linejoin="round" stroke-linecap="round" stroke="rgb(0,0,255)" stroke-width="1.874998" fill="none" d="M 0.000000 750.000000 L 466.216217 0.000000 " />
<path stroke-linejoin="round" stroke-linecap="round" stroke="rgb(255,0,0)" stroke-width="3.749996" fill="none" d="M 87.121208 609.848511 L 90.459534 614.310730 " />
<path stroke-linejoin="round" stroke-linecap="round" stroke="rgb(0,0,255)" stroke-width="1.874998" fill="none" d="M 0.000000 750.000000 L 434.210510 0.000000 " />
<path stroke-linejoin="round" stroke-linecap="round" stroke="rgb(255,0,0)" stroke-width="3.749996" fill="none" d="M 85.937485 601.562500 L 87.121208 609.848511 " />
<path stroke-linejoin="round" stroke-linecap="round" stroke="rgb(0,0,255)" stroke-width="1.874998" fill="none" d="M 0.000000 750.000000 L 403.846161 0.000000 " />
<path stroke-linejoin="round" stroke-linecap="round" stroke="rgb(255,0,0)" stroke-width="3.749996" fill="none" d="M 84.677429 592.741943 L 85.937485 601.562500 " />
<path stroke-linejoin="round" stroke-linecap="round" stroke="rgb(0,0,255)" stroke-width="1.874998" fill="none" d="M 0.000000 750.000000 L 375.000000 0.000000 " />
<path stroke-linejoin="round" stroke-linecap="round" stroke="rgb(255,0,0)" stroke-width="3.749996" fill="none" d="M 83.333328 583.333313 L 84.677429 592.741882 " />
<path stroke-linejoin="round" stroke-linecap="round" stroke="rgb(0,0,255)" stroke-width="1.874998" fill="none" d="M 0.000000 750.000000 L 347.560944 0.000000 " />
<path stroke-linejoin="round" stroke-linecap="round" stroke="rgb(255,0,0)" stroke-width="3.749996" fill="none" d="M 81.896561 573.275879 L 83.333328 583.333313 " />
<path stroke-linejoin="round" stroke-linecap="round" stroke="rgb(0,0,255)" stroke-width="1.874998" fill="none" d="M 0.000000 750.000000 L 331.395355 0.000000 " />
<path stroke-linejoin="round" stroke-linecap="round" stroke="rgb(255,0,0)" stroke-width="3.749996" fill="none" d="M 80.965897 566.761414 L 81.896538 573.275879 " />
<path stroke-linejoin="round" stroke-linecap="round" stroke="rgb(0,0,255)" stroke-width="1.874998" fill="none" d="M 0.000000 750.000000 L 316.666656 0.000000 " />
<path stroke-linejoin="round" stroke-linecap="round" stroke="rgb(255,0,0)" stroke-width="3.749996" fill="none" d="M 80.056160 560.393311 L 80.965897 566.761414 " />
<path stroke-linejoin="round" stroke-linecap="round" stroke="rgb(0,0,255)" stroke-width="1.874998" fill="none" d="M 0.000000 750.000000 L 293.478271 0.000000 " />
<path stroke-linejoin="round" stroke-linecap="round" stroke="rgb(255,0,0)" stroke-width="3.749996" fill="none" d="M 78.488365 549.418640 L 80.056160 560.393311 " />
<path stroke-linejoin="round" stroke-linecap="round" stroke="rgb(0,0,255)" stroke-width="1.874998" fill="none" d="M 0.000000 750.000000 L 271.276581 0.000000 " />
<path stroke-linejoin="round" stroke-linecap="round" stroke="rgb(255,0,0)" stroke-width="3.749996" fill="none" d="M 76.807220 537.650635 L 78.488365 549.418640 " />
<path stroke-linejoin="round" stroke-linecap="round" stroke="rgb(0,0,255)" stroke-width="1.874998" fill="none" d="M 0.000000 750.000000 L 250.000000 0.000000 " />
<path stroke-linejoin="round" stroke-linecap="round" stroke="rgb(255,0,0)" stroke-width="3.749996" fill="none" d="M 74.999992 525.000061 L 76.807220 537.650574 " />
<path stroke-linejoin="round" stroke-linecap="round" stroke="rgb(0,0,255)" stroke-width="1.874998" fill="none" d="M 0.000000 750.000000 L 229.591843 0.000000 " />
<path stroke-linejoin="round" stroke-linecap="round" stroke="rgb(255,0,0)" stroke-width="3.749996" fill="none" d="M 73.051926 511.363678 L 74.999992 525.000061 " />
<path stroke-linejoin="round" stroke-linecap="round" stroke="rgb(0,0,255)" stroke-width="1.874998" fill="none" d="M 0.000000 750.000000 L 210.000000 0.000000 " />
<path stroke-linejoin="round" stroke-linecap="round" stroke="rgb(255,0,0)" stroke-width="3.749996" fill="none" d="M 70.945946 496.621643 L 73.051926 511.363678 " />
<path stroke-linejoin="round" stroke-linecap="round" stroke="rgb(0,0,255)" stroke-width="1.874998" fill="none" d="M 0.000000 750.000000 L 201.923080 0.000000 " />
<path stroke-linejoin="round" stroke-linecap="round" stroke="rgb(255,0,0)" stroke-width="3.749996" fill="none" d="M 70.000000 490.000031 L 70.945946 496.621643 " />
<path stroke-linejoin="round" stroke-linecap="round" stroke="rgb(0,0,255)" stroke-width="1.874998" fill="none" d="M 0.000000 750.000000 L 194.444443 0.000000 " />
<path stroke-linejoin="round" stroke-linecap="round" stroke="rgb(255,0,0)" stroke-width="3.749996" fill="none" d="M 69.078926 483.552673 L 70.000000 490.000031 " />
<path stroke-linejoin="round" stroke-linecap="round" stroke="rgb(0,0,255)" stroke-width="1.874998" fill="none" d="M 0.000000 750.000000 L 187.500000 0.000000 " />
<path stroke-linejoin="round" stroke-linecap="round" stroke="rgb(255,0,0)" stroke-width="3.749996" fill="none" d="M 68.181801 477.272797 L 69.078926 483.552704 " />
<path stroke-linejoin="round" stroke-linecap="round" stroke="rgb(0,0,255)" stroke-width="1.874998" fill="none" d="M 0.000000 750.000000 L 181.034485 0.000000 " />
<path stroke-linejoin="round" stroke-linecap="round" stroke="rgb(255,0,0)" stroke-width="3.749996" fill="none" d="M 67.307663 471.153931 L 68.181801 477.272797 " />
<path stroke-linejoin="round" stroke-linecap="round" stroke="rgb(0,0,255)" stroke-width="1.874998" fill="none" d="M 0.000000 750.000000 L 165.254227 0.000000 " />
<path stroke-linejoin="round" stroke-linecap="round" stroke="rgb(255,0,0)" stroke-width="3.749996" fill="none" d="M 64.999985 455.000092 L 67.307663 471.153931 " />
<path stroke-linejoin="round" stroke-linecap="round" stroke="rgb(0,0,255)" stroke-width="1.874998" fill="none" d="M 0.000000 750.000000 L 149.999985 0.000000 " />
<path stroke-linejoin="round" stroke-linecap="round" stroke="rgb(255,0,0)" stroke-width="3.749996" fill="none" d="M 62.499985 437.500122 L 64.999985 455.000092 " />
<path stroke-linejoin="round" stroke-linecap="round" stroke="rgb(0,0,255)" stroke-width="1.874998" fill="none" d="M 0.000000 750.000000 L 145.161285 0.000000 " />
<path stroke-linejoin="round" stroke-linecap="round" stroke="rgb(255,0,0)" stroke-width="3.749996" fill="none" d="M 61.643826 431.506989 L 62.499985 437.500122 " />
<path stroke-linejoin="round" stroke-linecap="round" stroke="rgb(0,0,255)" stroke-width="1.874998" fill="none" d="M 0.000000 750.000000 L 140.625000 0.000000 " />
<path stroke-linejoin="round" stroke-linecap="round" stroke="rgb(255,0,0)" stroke-width="3.749996" fill="none" d="M 60.810776 425.675781 L 61.643826 431.506989 " />
<path stroke-linejoin="round" stroke-linecap="round" stroke="rgb(0,0,255)" stroke-width="1.874998" fill="none" d="M 0.000000 750.000000 L 126.923073 0.000000 " />
<path stroke-linejoin="round" stroke-linecap="round" stroke="rgb(255,0,0)" stroke-width="3.749996" fill="none" d="M 58.098568 406.690308 L 60.810776 425.675812 " />
<path stroke-linejoin="round" stroke-linecap="round" stroke="rgb(0,0,255)" stroke-width="1.874998" fill="none" d="M 0.000000 750.000000 L 113.636368 0.000000 " />
<path stroke-linejoin="round" stroke-linecap="round" stroke="rgb(255,0,0)" stroke-width="3.749996" fill="none" d="M 55.147022 386.029602 L 58.098568 406.690308 " />
<path stroke-linejoin="round" stroke-linecap="round" stroke="rgb(0,0,255)" stroke-width="1.874998" fill="none" d="M 0.000000 750.000000 L 110.294113 0.000000 " />
<path stroke-linejoin="round" stroke-linecap="round" stroke="rgb(255,0,0)" stroke-width="3.749996" fill="none" d="M 54.347790 380.434998 L 55.147022 386.029694 " />
<path stroke-linejoin="round" stroke-linecap="round" stroke="rgb(0,0,255)" stroke-width="1.874998" fill="none" d="M 0.000000 750.000000 L 104.166672 0.000000 " />
<path stroke-linejoin="round" stroke-linecap="round" stroke="rgb(255,0,0)" stroke-width="3.749996" fill="none" d="M 52.816875 369.718567 L 54.347790 380.434998 " />
<path stroke-linejoin="round" stroke-linecap="round" stroke="rgb(0,0,255)" stroke-width="1.874998" fill="none" d="M 0.000000 750.000000 L 101.351334 0.000000 " />
<path stroke-linejoin="round" stroke-linecap="round" stroke="rgb(255,0,0)" stroke-width="3.749996" fill="none" d="M 52.083313 364.583557 L 52.816875 369.718567 " />
<path stroke-linejoin="round" stroke-linecap="round" stroke="rgb(0,0,255)" stroke-width="1.874998" fill="none" d="M 0.000000 750.000000 L 98.684212 0.000000 " />
<path stroke-linejoin="round" stroke-linecap="round" stroke="rgb(255,0,0)" stroke-width="3.749996" fill="none" d="M 51.369823 359.589325 L 52.083313 364.583557 " />
<path stroke-linejoin="round" stroke-linecap="round" stroke="rgb(0,0,255)" stroke-width="1.874998" fill="none" d="M 0.000000 750.000000 L 93.750000 0.000000 " />
<path stroke-linejoin="round" stroke-linecap="round" stroke="rgb(255,0,0)" stroke-width="3.749996" fill="none" d="M 49.999954 350.000305 L 51.369823 359.589355 " />
<path stroke-linejoin="round" stroke-linecap="round" stroke="rgb(0,0,255)" stroke-width="1.874998" fill="none" d="M 0.000000 750.000000 L 91.463417 0.000000 " />
<path stroke-linejoin="round" stroke-linecap="round" stroke="rgb(255,0,0)" stroke-width="3.749996" fill="none" d="M 49.342075 345.395020 L 49.999954 350.000305 " />
<path stroke-linejoin="round" stroke-linecap="round" stroke="rgb(0,0,255)" stroke-width="1.874998" fill="none" d="M 0.000000 750.000000 L 81.081078 0.000000 " />
<path stroke-linejoin="round" stroke-linecap="round" stroke="rgb(255,0,0)" stroke-width="3.749996" fill="none" d="M 46.153820 323.077209 L 49.342075 345.395020 " />
<path stroke-linejoin="round" stroke-linecap="round" stroke="rgb(0,0,255)" stroke-width="1.874998" fill="none" d="M 0.000000 750.000000 L 78.947380 0.000000 " />
<path stroke-linejoin="round" stroke-linecap="round" stroke="rgb(255,0,0)" stroke-width="3.749996" fill="none" d="M 45.454502 318.182129 L 46.153820 323.077209 " />
<path stroke-linejoin="round" stroke-linecap="round" stroke="rgb(0,0,255)" stroke-width="1.874998" fill="none" d="M 0.000000 750.000000 L 74.999992 0.000000 " />
<path stroke-linejoin="round" stroke-linecap="round" stroke="rgb(255,0,0)" stroke-width="3.749996" fill="none" d="M 44.117622 308.823822 L 45.454502 318.182129 " />
<path stroke-linejoin="round" stroke-linecap="round" stroke="rgb(0,0,255)" stroke-width="1.874998" fill="none" d="M 0.000000 750.000000 L 73.170731 0.000000 " />
<path stroke-linejoin="round" stroke-linecap="round" stroke="rgb(255,0,0)" stroke-width="3.749996" fill="none" d="M 43.478230 304.348114 L 44.117622 308.823822 " />
<path stroke-linejoin="round" stroke-linecap="round" stroke="rgb(0,0,255)" stroke-width="1.874998" fill="none" d="M 0.000000 750.000000 L 64.814819 0.000000 " />
<path stroke-linejoin="round" stroke-linecap="round" stroke="rgb(255,0,0)" stroke-width="3.749996" fill="none" d="M 40.384590 282.692627 L 43.478230 304.348114 " />
<path stroke-linejoin="round" stroke-linecap="round" stroke="rgb(0,0,255)" stroke-width="1.874998" fill="none" d="M 0.000000 750.000000 L 54.878040 0.000000 " />
<path stroke-linejoin="round" stroke-linecap="round" stroke="rgb(255,0,0)" stroke-width="3.749996" fill="none" d="M 36.290287 254.032639 L 40.384590 282.692627 " />
<path stroke-linejoin="round" stroke-linecap="round" stroke="rgb(0,0,255)" stroke-width="1.874998" fill="none" d="M 0.000000 750.000000 L 45.180717 0.000000 " />
<path stroke-linejoin="round" stroke-linecap="round" stroke="rgb(255,0,0)" stroke-width="3.749996" fill="none" d="M 31.779640 222.458084 L 36.290287 254.032684 " />
<path stroke-linejoin="round" stroke-linecap="round" stroke="rgb(0,0,255)" stroke-width="1.874998" fill="none" d="M 0.000000 750.000000 L 44.117645 0.000000 " />
<path stroke-linejoin="round" stroke-linecap="round" stroke="rgb(255,0,0)" stroke-width="3.749996" fill="none" d="M 31.249969 218.750412 L 31.779640 222.458084 " />
<path stroke-linejoin="round" stroke-linecap="round" stroke="rgb(0,0,255)" stroke-width="1.874998" fill="none" d="M 0.000000 750.000000 L 43.103455 0.000000 " />
<path stroke-linejoin="round" stroke-linecap="round" stroke="rgb(255,0,0)" stroke-width="3.749996" fill="none" d="M 30.737669 215.164398 L 31.249969 218.750412 " />
<path stroke-linejoin="round" stroke-linecap="round" stroke="rgb(0,0,255)" stroke-width="1.874998" fill="none" d="M 0.000000 750.000000 L 34.090919 0.000000 " />
<path stroke-linejoin="round" stroke-linecap="round" stroke="rgb(255,0,0)" stroke-width="3.749996" fill="none" d="M 25.862038 181.034988 L 30.737669 215.164398 " />
<path stroke-linejoin="round" stroke-linecap="round" stroke="rgb(0,0,255)" stroke-width="1.874998" fill="none" d="M 0.000000 750.000000 L 33.333332 0.000000 " />
<path stroke-linejoin="round" stroke-linecap="round" stroke="rgb(255,0,0)" stroke-width="3.749996" fill="none" d="M 25.423698 177.966675 L 25.862038 181.034988 " />
<path stroke-linejoin="round" stroke-linecap="round" stroke="rgb(0,0,255)" stroke-width="1.874998" fill="none" d="M 0.000000 750.000000 L 31.249992 0.000000 " />
<path stroke-linejoin="round" stroke-linecap="round" stroke="rgb(255,0,0)" stroke-width="3.749996" fill="none" d="M 24.193525 169.355484 L 25.423698 177.966721 " />
<path stroke-linejoin="round" stroke-linecap="round" stroke="rgb(0,0,255)" stroke-width="1.874998" fill="none" d="M 0.000000 750.000000 L 30.612253 0.000000 " />
<path stroke-linejoin="round" stroke-linecap="round" stroke="rgb(255,0,0)" stroke-width="3.749996" fill="none" d="M 23.809500 166.667328 L 24.193525 169.355484 " />
<path stroke-linejoin="round" stroke-linecap="round" stroke="rgb(0,0,255)" stroke-width="1.874998" fill="none" d="M 0.000000 750.000000 L 24.193548 0.000000 " />
<path stroke-linejoin="round" stroke-linecap="round" stroke="rgb(255,0,0)" stroke-width="3.749996" fill="none" d="M 19.736811 138.158615 L 23.809500 166.667374 " />
<path stroke-linejoin="round" stroke-linecap="round" stroke="rgb(0,0,255)" stroke-width="1.874998" fill="none" d="M 0.000000 750.000000 L 15.957445 0.000000 " />
<path stroke-linejoin="round" stroke-linecap="round" stroke="rgb(255,0,0)" stroke-width="3.749996" fill="none" d="M 13.888881 97.223015 L 19.736811 138.158615 " />
<path stroke-linejoin="round" stroke-linecap="round" stroke="rgb(0,0,255)" stroke-width="1.874998" fill="none" d="M 0.000000 750.000000 L 7.894747 0.000000 " />
<path stroke-linejoin="round" stroke-linecap="round" stroke="rgb(255,0,0)" stroke-width="3.749996" fill="none" d="M 7.352941 51.471413 L 13.888881 97.223015 " />
<path stroke-linejoin="round" stroke-linecap="round" stroke="rgb(0,0,255)" stroke-width="1.874998" fill="none" d="M 0.000000 750.000000 L 0.000000 0.000000 " />
<path stroke-linejoin="round" stroke-linecap="round" stroke="rgb(255,0,0)" stroke-width="3.749996" fill="none" d="M 0.000000 0.000000 L 7.352941 51.471413 " />
<circle cx="186.931819" cy="746.022731" r="3.749996" style="fill:rgb(0,127,0);stroke-width:1" /><circle cx="183.272727" cy="742.363639" r="3.749996" style="fill:rgb(0,127,0);stroke-width:1" /><circle cx="179.454535" cy="738.545448" r="3.749996" style="fill:rgb(0,127,0);stroke-width:1" /><circle cx="175.636366" cy="734.727278" r="3.749996" style="fill:rgb(0,127,0);stroke-width:1" /><circle cx="171.818197" cy="730.909087" r="3.749996" style="fill:rgb(0,127,0);stroke-width:1" /><circle cx="168.881133" cy="727.972023" r="3.749996" style="fill:rgb(0,127,0);stroke-width:1" /><circle cx="167.999983" cy="727.090918" r="3.749996" style="fill:rgb(0,127,0);stroke-width:1" /><circle cx="165.209770" cy="724.300705" r="3.749996" style="fill:rgb(0,127,0);stroke-width:1" /><circle cx="164.181814" cy="723.272726" r="3.749996" style="fill:rgb(0,127,0);stroke-width:1" /><circle cx="161.538452" cy="720.629364" r="3.749996" style="fill:rgb(0,127,0);stroke-width:1" /><circle cx="160.363644" cy="719.454557" r="3.749996" style="fill:rgb(0,127,0);stroke-width:1" /><circle cx="156.545453" cy="715.636365" r="3.749996" style="fill:rgb(0,127,0);stroke-width:1" /><circle cx="154.195793" cy="713.286728" r="3.749996" style="fill:rgb(0,127,0);stroke-width:1" /><circle cx="150.524475" cy="709.615387" r="3.749996" style="fill:rgb(0,127,0);stroke-width:1" /><circle cx="146.853134" cy="705.944046" r="3.749996" style="fill:rgb(0,127,0);stroke-width:1" /><circle cx="144.949503" cy="704.040393" r="3.749996" style="fill:rgb(0,127,0);stroke-width:1" /><circle cx="143.181816" cy="702.272728" r="3.749996" style="fill:rgb(0,127,0);stroke-width:1" /><circle cx="141.414151" cy="700.505041" r="3.749996" style="fill:rgb(0,127,0);stroke-width:1" /><circle cx="139.510497" cy="698.601410" r="3.749996" style="fill:rgb(0,127,0);stroke-width:1" /><circle cx="135.839157" cy="694.930069" r="3.749996" style="fill:rgb(0,127,0);stroke-width:1" /><circle cx="134.343445" cy="693.434335" r="3.749996" style="fill:rgb(0,127,0);stroke-width:1" /><circle cx="132.167839" cy="691.258729" r="3.749996" style="fill:rgb(0,127,0);stroke-width:1" /><circle cx="130.808070" cy="689.898983" r="3.749996" style="fill:rgb(0,127,0);stroke-width:1" /><circle cx="128.636867" cy="674.700379" r="3.749996" style="fill:rgb(0,127,0);stroke-width:1" /><circle cx="128.129795" cy="671.150900" r="3.749996" style="fill:rgb(0,127,0);stroke-width:1" /><circle cx="125.665739" cy="668.686867" r="3.749996" style="fill:rgb(0,127,0);stroke-width:1" /><circle cx="124.901041" cy="667.922169" r="3.749996" style="fill:rgb(0,127,0);stroke-width:1" /><circle cx="121.332452" cy="664.353579" r="3.749996" style="fill:rgb(0,127,0);stroke-width:1" /><circle cx="118.137449" cy="641.988605" r="3.749996" style="fill:rgb(0,127,0);stroke-width:1" /><circle cx="116.973549" cy="640.824705" r="3.749996" style="fill:rgb(0,127,0);stroke-width:1" /><circle cx="113.074422" cy="636.925578" r="3.749996" style="fill:rgb(0,127,0);stroke-width:1" /><circle cx="109.175295" cy="633.026451" r="3.749996" style="fill:rgb(0,127,0);stroke-width:1" /><circle cx="105.276190" cy="629.127324" r="3.749996" style="fill:rgb(0,127,0);stroke-width:1" /><circle cx="101.377085" cy="625.228196" r="3.749996" style="fill:rgb(0,127,0);stroke-width:1" /><circle cx="97.997859" cy="621.848971" r="3.749996" style="fill:rgb(0,127,0);stroke-width:1" /><circle cx="94.228685" cy="618.079841" r="3.749996" style="fill:rgb(0,127,0);stroke-width:1" /><circle cx="90.459555" cy="614.310667" r="3.749996" style="fill:rgb(0,127,0);stroke-width:1" /><circle cx="87.121211" cy="609.848499" r="3.749996" style="fill:rgb(0,127,0);stroke-width:1" /><circle cx="85.937485" cy="601.562507" r="3.749996" style="fill:rgb(0,127,0);stroke-width:1" /><circle cx="84.677428" cy="592.741951" r="3.749996" style="fill:rgb(0,127,0);stroke-width:1" /><circle cx="83.333328" cy="583.333343" r="3.749996" style="fill:rgb(0,127,0);stroke-width:1" /><circle cx="81.896558" cy="573.275864" r="3.749996" style="fill:rgb(0,127,0);stroke-width:1" /><circle cx="80.965899" cy="566.761404" r="3.749996" style="fill:rgb(0,127,0);stroke-width:1" /><circle cx="80.056161" cy="560.393281" r="3.749996" style="fill:rgb(0,127,0);stroke-width:1" /><circle cx="78.488365" cy="549.418643" r="3.749996" style="fill:rgb(0,127,0);stroke-width:1" /><circle cx="76.807223" cy="537.650630" r="3.749996" style="fill:rgb(0,127,0);stroke-width:1" /><circle cx="74.999996" cy="525.000013" r="3.749996" style="fill:rgb(0,127,0);stroke-width:1" /><circle cx="73.051929" cy="511.363663" r="3.749996" style="fill:rgb(0,127,0);stroke-width:1" /><circle cx="70.945948" cy="496.621639" r="3.749996" style="fill:rgb(0,127,0);stroke-width:1" /><circle cx="70.000000" cy="490.000024" r="3.749996" style="fill:rgb(0,127,0);stroke-width:1" /><circle cx="69.078930" cy="483.552665" r="3.749996" style="fill:rgb(0,127,0);stroke-width:1" /><circle cx="68.181798" cy="477.272809" r="3.749996" style="fill:rgb(0,127,0);stroke-width:1" /><circle cx="67.307666" cy="471.153930" r="3.749996" style="fill:rgb(0,127,0);stroke-width:1" /><circle cx="64.999983" cy="455.000103" r="3.749996" style="fill:rgb(0,127,0);stroke-width:1" /><circle cx="62.499985" cy="437.500097" r="3.749996" style="fill:rgb(0,127,0);stroke-width:1" /><circle cx="61.643824" cy="431.506969" r="3.749996" style="fill:rgb(0,127,0);stroke-width:1" /><circle cx="60.810775" cy="425.675802" r="3.749996" style="fill:rgb(0,127,0);stroke-width:1" /><circle cx="58.098570" cy="406.690300" r="3.749996" style="fill:rgb(0,127,0);stroke-width:1" /><circle cx="55.147022" cy="386.029623" r="3.749996" style="fill:rgb(0,127,0);stroke-width:1" /><circle cx="54.347791" cy="380.435005" r="3.749996" style="fill:rgb(0,127,0);stroke-width:1" /><circle cx="52.816875" cy="369.718552" r="3.749996" style="fill:rgb(0,127,0);stroke-width:1" /><circle cx="52.083313" cy="364.583552" r="3.749996" style="fill:rgb(0,127,0);stroke-width:1" /><circle cx="51.369824" cy="359.589323" r="3.749996" style="fill:rgb(0,127,0);stroke-width:1" /><circle cx="49.999952" cy="350.000292" r="3.749996" style="fill:rgb(0,127,0);stroke-width:1" /><circle cx="49.342074" cy="345.395029" r="3.749996" style="fill:rgb(0,127,0);stroke-width:1" /><circle cx="46.153821" cy="323.077217" r="3.749996" style="fill:rgb(0,127,0);stroke-width:1" /><circle cx="45.454502" cy="318.182141" r="3.749996" style="fill:rgb(0,127,0);stroke-width:1" /><circle cx="44.117622" cy="308.823824" r="3.749996" style="fill:rgb(0,127,0);stroke-width:1" /><circle cx="43.478228" cy="304.348111" r="3.749996" style="fill:rgb(0,127,0);stroke-width:1" /><circle cx="40.384591" cy="282.692626" r="3.749996" style="fill:rgb(0,127,0);stroke-width:1" /><circle cx="36.290288" cy="254.032642" r="3.749996" style="fill:rgb(0,127,0);stroke-width:1" /><circle cx="31.779639" cy="222.458079" r="3.749996" style="fill:rgb(0,127,0);stroke-width:1" /><circle cx="31.249970" cy="218.750417" r="3.749996" style="fill:rgb(0,127,0);stroke-width:1" /><circle cx="30.737668" cy="215.164393" r="3.749996" style="fill:rgb(0,127,0);stroke-width:1" /><circle cx="25.862038" cy="181.034982" r="3.749996" style="fill:rgb(0,127,0);stroke-width:1" /><circle cx="25.423698" cy="177.966669" r="3.749996" style="fill:rgb(0,127,0);stroke-width:1" /><circle cx="24.193525" cy="169.355482" r="3.749996" style="fill:rgb(0,127,0);stroke-width:1" /><circle cx="23.809500" cy="166.667327" r="3.749996" style="fill:rgb(0,127,0);stroke-width:1" /><circle cx="19.736812" cy="138.158619" r="3.749996" style="fill:rgb(0,127,0);stroke-width:1" /><circle cx="13.888881" cy="97.223014" r="3.749996" style="fill:rgb(0,127,0);stroke-width:1" /><circle cx="7.352941" cy="51.471412" r="3.749996" style="fill:rgb(0,127,0);stroke-width:1" /><circle cx="750.000000" cy="750.000000" r="3.749996" style="fill:rgb(0,127,0);stroke-width:1" /><path stroke-linejoin="round" stroke-linecap="round" stroke="rgb(255,255,255)" stroke-width="3.749996" fill="none" d="M 0.000000 750.000000 L 750.000000 750.000000 M 0.000000 750.000000 L 0.000000 0.000000 " />

</svg>