<svg xmlns="http://www.w3.org/2000/svg" version="1.1" width = "750" height = "750" viewBox = "0 0 750 750"  shape-rendering="crispEdges">
<path stroke-linejoin="round" stroke-linecap="round" stroke="rgb(255,255,0)" stroke-width="3.749996" fill="none" d="M 74.999992 750.000000 L 0.000000 0.000000 " />
<path stroke-linejoin="round" stroke-linecap="round" stroke="rgb(63,63,63)" stroke-width="3.749996" fill="none" d="M 0.000000 0.000000 L 750.000000 750.000000 M 74.999992 750.000000 L 35.526306 0.000000 " />
<path stroke-linejoin="round" stroke-linecap="round" stroke="rgb(191,191,191)" stroke-width="3.749996" fill="none" d="M 0.000000 675.000000 L 74.999992 750.000000 M 0.000000 0.000000 L 39.473690 750.000000 " />
<path stroke-linejoin="round" stroke-linecap="round" stroke="rgb(0,0,255)" stroke-width="1.874998" fill="none" d="M 0.000000 750.000000 L 750.000000 734.693909 " />
<path stroke-linejoin="round" stroke-linecap="round" stroke="rgb(255,0,0)" stroke-width="3.749996" fill="none" d="M 74.919533 748.471069 L 74.999992 750.000000 " />
<path stroke-linejoin="round" stroke-linecap="round" stroke="rgb(0,0,255)" stroke-width="1.874998" fill="none" d="M 0.000000 750.000000 L 750.000000 720.000000 " />
<path stroke-linejoin="round" stroke-linecap="round" stroke="rgb(255,0,0)" stroke-width="3.749996" fill="none" d="M 74.654572 747.013794 L 74.919533 748.471069 " />
<path stroke-linejoin="round" stroke-linecap="round" stroke="rgb(0,0,255)" stroke-width="1.874998" fill="none" d="M 0.000000 750.000000 L 750.000000 718.750000 " />
<path stroke-linejoin="round" stroke-linecap="round" stroke="rgb(255,0,0)" stroke-width="3.749996" fill="none" d="M 74.632133 746.890320 L 74.654572 747.013794 " />
<path stroke-linejoin="round" stroke-linecap="round" stroke="rgb(0,0,255)" stroke-width="1.874998" fill="none" d="M 0.000000 750.000000 L 750.000000 702.127686 " />
<path stroke-linejoin="round" stroke-linecap="round" stroke="rgb(255,0,0)" stroke-width="3.749996" fill="none" d="M 74.334831 745.255188 L 74.632133 746.890320 " />
<path stroke-linejoin="round" stroke-linecap="round" stroke="rgb(0,0,255)" stroke-width="1.874998" fill="none" d="M 0.000000 750.000000 L 750.000000 684.782654 " />
<path stroke-linejoin="round" stroke-linecap="round" stroke="rgb(255,0,0)" stroke-width="3.749996" fill="none" d="M 74.027138 743.562866 L 74.334831 745.255188 " />
<path stroke-linejoin="round" stroke-linecap="round" stroke="rgb(0,0,255)" stroke-width="1.874998" fill="none" d="M 0.000000 750.000000 L 750.000000 666.666687 " />
<path stroke-linejoin="round" stroke-linecap="round" stroke="rgb(255,0,0)" stroke-width="3.749996" fill="none" d="M 73.708443 741.810120 L 74.027138 743.562866 " />
<path stroke-linejoin="round" stroke-linecap="round" stroke="rgb(0,0,255)" stroke-width="1.874998" fill="none" d="M 0.000000 750.000000 L 750.000000 647.727295 " />
<path stroke-linejoin="round" stroke-linecap="round" stroke="rgb(255,0,0)" stroke-width="3.749996" fill="none" d="M 73.378220 739.993896 L 73.708443 741.810120 " />
<path stroke-linejoin="round" stroke-linecap="round" stroke="rgb(0,0,255)" stroke-width="1.874998" fill="none" d="M 0.000000 750.000000 L 750.000000 633.333313 " />
<path stroke-linejoin="round" stroke-linecap="round" stroke="rgb(255,0,0)" stroke-width="3.749996" fill="none" d="M 73.129219 738.624329 L 73.378220 739.993896 " />
<path stroke-linejoin="round" stroke-linecap="round" stroke="rgb(0,0,255)" stroke-width="1.874998" fill="none" d="M 0.000000 750.000000 L 750.000000 613.636353 " />
<path stroke-linejoin="round" stroke-linecap="round" stroke="rgb(255,0,0)" stroke-width="3.749996" fill="none" d="M 72.791199 736.765259 L 73.129219 738.624329 " />
<path stroke-linejoin="round" stroke-linecap="round" stroke="rgb(0,0,255)" stroke-width="1.874998" fill="none" d="M 0.000000 750.000000 L 750.000000 593.023254 " />
<path stroke-linejoin="round" stroke-linecap="round" stroke="rgb(255,0,0)" stroke-width="3.749996" fill="none" d="M 72.440788 734.837952 L 72.791199 736.765259 " />
<path stroke-linejoin="round" stroke-linecap="round" stroke="rgb(0,0,255)" stroke-width="1.874998" fill="none" d="M 0.000000 750.000000 L 750.000000 410.714294 " />
<path stroke-linejoin="round" stroke-linecap="round" stroke="rgb(255,0,0)" stroke-width="3.749996" fill="none" d="M 71.263123 717.761902 L 72.440788 734.837952 " />
<path stroke-linejoin="round" stroke-linecap="round" stroke="rgb(0,0,255)" stroke-width="1.874998" fill="none" d="M 0.000000 750.000000 L 750.000000 244.186035 " />
<path stroke-linejoin="round" stroke-linecap="round" stroke="rgb(255,0,0)" stroke-width="3.749996" fill="none" d="M 70.220367 702.642090 L 71.263123 717.761902 " />
<path stroke-linejoin="round" stroke-linecap="round" stroke="rgb(0,0,255)" stroke-width="1.874998" fill="none" d="M 0.000000 750.000000 L 750.000000 214.285706 " />
<path stroke-linejoin="round" stroke-linecap="round" stroke="rgb(255,0,0)" stroke-width="3.749996" fill="none" d="M 70.036369 699.974060 L 70.220367 702.642090 " />
<path stroke-linejoin="round" stroke-linecap="round" stroke="rgb(0,0,255)" stroke-width="1.874998" fill="none" d="M 0.000000 750.000000 L 750.000000 18.292665 " />
<path stroke-linejoin="round" stroke-linecap="round" stroke="rgb(255,0,0)" stroke-width="3.749996" fill="none" d="M 68.853714 682.825623 L 70.036369 699.974060 " />
<path stroke-linejoin="round" stroke-linecap="round" stroke="rgb(0,0,255)" stroke-width="1.874998" fill="none" d="M 0.000000 750.000000 L 600.000000 0.000000 " />
<path stroke-linejoin="round" stroke-linecap="round" stroke="rgb(255,0,0)" stroke-width="3.749996" fill="none" d="M 67.654182 665.432251 L 68.853714 682.825623 " />
<path stroke-linejoin="round" stroke-linecap="round" stroke="rgb(0,0,255)" stroke-width="1.874998" fill="none" d="M 0.000000 750.000000 L 487.499969 0.000000 " />
<path stroke-linejoin="round" stroke-linecap="round" stroke="rgb(255,0,0)" stroke-width="3.749996" fill="none" d="M 66.437378 647.788635 L 67.654182 665.432251 " />
<path stroke-linejoin="round" stroke-linecap="round" stroke="rgb(0,0,255)" stroke-width="1.874998" fill="none" d="M 0.000000 750.000000 L 407.142883 0.000000 " />
<path stroke-linejoin="round" stroke-linecap="round" stroke="rgb(255,0,0)" stroke-width="3.749996" fill="none" d="M 65.202934 629.889343 L 66.437378 647.788635 " />
<path stroke-linejoin="round" stroke-linecap="round" stroke="rgb(0,0,255)" stroke-width="1.874998" fill="none" d="M 0.000000 750.000000 L 346.875000 0.000000 " />
<path stroke-linejoin="round" stroke-linecap="round" stroke="rgb(255,0,0)" stroke-width="3.749996" fill="none" d="M 63.950478 611.728699 L 65.202934 629.889343 " />
<path stroke-linejoin="round" stroke-linecap="round" stroke="rgb(0,0,255)" stroke-width="1.874998" fill="none" d="M 0.000000 750.000000 L 300.000000 0.000000 " />
<path stroke-linejoin="round" stroke-linecap="round" stroke="rgb(255,0,0)" stroke-width="3.749996" fill="none" d="M 62.679604 593.301025 L 63.950478 611.728699 " />
<path stroke-linejoin="round" stroke-linecap="round" stroke="rgb(0,0,255)" stroke-width="1.874998" fill="none" d="M 0.000000 750.000000 L 262.500000 0.000000 " />
<path stroke-linejoin="round" stroke-linecap="round" stroke="rgb(255,0,0)" stroke-width="3.749996" fill="none" d="M 61.389885 574.600281 L 62.679604 593.301025 " />
<path stroke-linejoin="round" stroke-linecap="round" stroke="rgb(0,0,255)" stroke-width="1.874998" fill="none" d="M 0.000000 750.000000 L 245.454529 0.000000 " />
<path stroke-linejoin="round" stroke-linecap="round" stroke="rgb(255,0,0)" stroke-width="3.749996" fill="none" d="M 60.696064 564.539795 L 61.389885 574.600281 " />
<path stroke-linejoin="round" stroke-linecap="round" stroke="rgb(0,0,255)" stroke-width="1.874998" fill="none" d="M 0.000000 750.000000 L 244.897949 0.000000 " />
<path stroke-linejoin="round" stroke-linecap="round" stroke="rgb(255,0,0)" stroke-width="3.749996" fill="none" d="M 60.646824 564.269104 L 60.696064 564.539795 " />
<path stroke-linejoin="round" stroke-linecap="round" stroke="rgb(0,0,255)" stroke-width="1.874998" fill="none" d="M 0.000000 750.000000 L 240.000000 0.000000 " />
<path stroke-linejoin="round" stroke-linecap="round" stroke="rgb(255,0,0)" stroke-width="3.749996" fill="none" d="M 60.207367 561.852051 L 60.646824 564.269104 " />
<path stroke-linejoin="round" stroke-linecap="round" stroke="rgb(0,0,255)" stroke-width="1.874998" fill="none" d="M 0.000000 750.000000 L 230.198013 0.000000 " />
<path stroke-linejoin="round" stroke-linecap="round" stroke="rgb(255,0,0)" stroke-width="3.749996" fill="none" d="M 59.292599 556.820862 L 60.207344 561.852051 " />
<path stroke-linejoin="round" stroke-linecap="round" stroke="rgb(0,0,255)" stroke-width="1.874998" fill="none" d="M 0.000000 750.000000 L 220.588226 0.000000 " />
<path stroke-linejoin="round" stroke-linecap="round" stroke="rgb(255,0,0)" stroke-width="3.749996" fill="none" d="M 58.347031 551.620117 L 59.292599 556.820862 " />
<path stroke-linejoin="round" stroke-linecap="round" stroke="rgb(0,0,255)" stroke-width="1.874998" fill="none" d="M 0.000000 750.000000 L 211.165039 0.000000 " />
<path stroke-linejoin="round" stroke-linecap="round" stroke="rgb(255,0,0)" stroke-width="3.749996" fill="none" d="M 57.369007 546.241089 L 58.347031 551.620117 " />
<path stroke-linejoin="round" stroke-linecap="round" stroke="rgb(0,0,255)" stroke-width="1.874998" fill="none" d="M 0.000000 750.000000 L 201.923080 0.000000 " />
<path stroke-linejoin="round" stroke-linecap="round" stroke="rgb(255,0,0)" stroke-width="3.749996" fill="none" d="M 56.356876 540.674438 L 57.369007 546.241150 " />
<path stroke-linejoin="round" stroke-linecap="round" stroke="rgb(0,0,255)" stroke-width="1.874998" fill="none" d="M 0.000000 750.000000 L 198.113205 0.000000 " />
<path stroke-linejoin="round" stroke-linecap="round" stroke="rgb(255,0,0)" stroke-width="3.749996" fill="none" d="M 55.923367 538.290039 L 56.356876 540.674438 " />
<path stroke-linejoin="round" stroke-linecap="round" stroke="rgb(0,0,255)" stroke-width="1.874998" fill="none" d="M 0.000000 750.000000 L 189.252335 0.000000 " />
<path stroke-linejoin="round" stroke-linecap="round" stroke="rgb(255,0,0)" stroke-width="3.749996" fill="none" d="M 54.875874 532.528931 L 55.923367 538.290039 " />
<path stroke-linejoin="round" stroke-linecap="round" stroke="rgb(0,0,255)" stroke-width="1.874998" fill="none" d="M 0.000000 750.000000 L 185.779816 0.000000 " />
<path stroke-linejoin="round" stroke-linecap="round" stroke="rgb(255,0,0)" stroke-width="3.749996" fill="none" d="M 54.449669 530.184692 L 54.875874 532.528931 " />
<path stroke-linejoin="round" stroke-linecap="round" stroke="rgb(0,0,255)" stroke-width="1.874998" fill="none" d="M 0.000000 750.000000 L 177.272736 0.000000 " />
<path stroke-linejoin="round" stroke-linecap="round" stroke="rgb(255,0,0)" stroke-width="3.749996" fill="none" d="M 53.365612 524.222412 L 54.449669 530.184692 " />
<path stroke-linejoin="round" stroke-linecap="round" stroke="rgb(0,0,255)" stroke-width="1.874998" fill="none" d="M 0.000000 750.000000 L 168.918915 0.000000 " />
<path stroke-linejoin="round" stroke-linecap="round" stroke="rgb(255,0,0)" stroke-width="3.749996" fill="none" d="M 52.242302 518.044189 L 53.365612 524.222412 " />
<path stroke-linejoin="round" stroke-linecap="round" stroke="rgb(0,0,255)" stroke-width="1.874998" fill="none" d="M 0.000000 750.000000 L 160.714294 0.000000 " />
<path stroke-linejoin="round" stroke-linecap="round" stroke="rgb(255,0,0)" stroke-width="3.749996" fill="none" d="M 51.077553 511.638062 L 52.242302 518.044189 " />
<path stroke-linejoin="round" stroke-linecap="round" stroke="rgb(0,0,255)" stroke-width="1.874998" fill="none" d="M 0.000000 750.000000 L 157.894745 0.000000 " />
<path stroke-linejoin="round" stroke-linecap="round" stroke="rgb(255,0,0)" stroke-width="3.749996" fill="none" d="M 50.662277 509.354126 L 51.077553 511.638062 " />
<path stroke-linejoin="round" stroke-linecap="round" stroke="rgb(0,0,255)" stroke-width="1.874998" fill="none" d="M 0.000000 750.000000 L 155.172409 0.000000 " />
<path stroke-linejoin="round" stroke-linecap="round" stroke="rgb(255,0,0)" stroke-width="3.749996" fill="none" d="M 50.253712 507.107025 L 50.662277 509.354126 " />
<path stroke-linejoin="round" stroke-linecap="round" stroke="rgb(0,0,255)" stroke-width="1.874998" fill="none" d="M 0.000000 750.000000 L 152.542374 0.000000 " />
<path stroke-linejoin="round" stroke-linecap="round" stroke="rgb(255,0,0)" stroke-width="3.749996" fill="none" d="M 49.851692 504.895844 L 50.253712 507.107025 " />
<path stroke-linejoin="round" stroke-linecap="round" stroke="rgb(0,0,255)" stroke-width="1.874998" fill="none" d="M 0.000000 750.000000 L 144.957977 0.000000 " />
<path stroke-linejoin="round" stroke-linecap="round" stroke="rgb(255,0,0)" stroke-width="3.749996" fill="none" d="M 48.650242 498.287872 L 49.851692 504.895844 " />
<path stroke-linejoin="round" stroke-linecap="round" stroke="rgb(0,0,255)" stroke-width="1.874998" fill="none" d="M 0.000000 750.000000 L 137.500000 0.000000 " />
<path stroke-linejoin="round" stroke-linecap="round" stroke="rgb(255,0,0)" stroke-width="3.749996" fill="none" d="M 47.403931 491.433167 L 48.650242 498.287872 " />
<path stroke-linejoin="round" stroke-linecap="round" stroke="rgb(0,0,255)" stroke-width="1.874998" fill="none" d="M 0.000000 750.000000 L 130.165283 0.000000 " />
<path stroke-linejoin="round" stroke-linecap="round" stroke="rgb(255,0,0)" stroke-width="3.749996" fill="none" d="M 46.110191 484.317535 L 47.403931 491.433167 " />
<path stroke-linejoin="round" stroke-linecap="round" stroke="rgb(0,0,255)" stroke-width="1.874998" fill="none" d="M 0.000000 750.000000 L 122.950806 0.000000 " />
<path stroke-linejoin="round" stroke-linecap="round" stroke="rgb(255,0,0)" stroke-width="3.749996" fill="none" d="M 44.766247 476.925903 L 46.110191 484.317535 " />
<path stroke-linejoin="round" stroke-linecap="round" stroke="rgb(0,0,255)" stroke-width="1.874998" fill="none" d="M 0.000000 750.000000 L 120.967758 0.000000 " />
<path stroke-linejoin="round" stroke-linecap="round" stroke="rgb(255,0,0)" stroke-width="3.749996" fill="none" d="M 44.383629 474.821533 L 44.766247 476.925964 " />
<path stroke-linejoin="round" stroke-linecap="round" stroke="rgb(0,0,255)" stroke-width="1.874998" fill="none" d="M 0.000000 750.000000 L 114.000008 0.000000 " />
<path stroke-linejoin="round" stroke-linecap="round" stroke="rgb(255,0,0)" stroke-width="3.749996" fill="none" d="M 42.991207 467.163147 L 44.383629 474.821533 " />
<path stroke-linejoin="round" stroke-linecap="round" stroke="rgb(0,0,255)" stroke-width="1.874998" fill="none" d="M 0.000000 750.000000 L 112.204712 0.000000 " />
<path stroke-linejoin="round" stroke-linecap="round" stroke="rgb(255,0,0)" stroke-width="3.749996" fill="none" d="M 42.619785 465.120422 L 42.991207 467.163147 " />
<path stroke-linejoin="round" stroke-linecap="round" stroke="rgb(0,0,255)" stroke-width="1.874998" fill="none" d="M 0.000000 750.000000 L 105.468750 0.000000 " />
<path stroke-linejoin="round" stroke-linecap="round" stroke="rgb(255,0,0)" stroke-width="3.749996" fill="none" d="M 41.177048 457.185394 L 42.619785 465.120422 " />
<path stroke-linejoin="round" stroke-linecap="round" stroke="rgb(0,0,255)" stroke-width="1.874998" fill="none" d="M 0.000000 750.000000 L 103.846146 0.000000 " />
<path stroke-linejoin="round" stroke-linecap="round" stroke="rgb(255,0,0)" stroke-width="3.749996" fill="none" d="M 40.817432 455.207428 L 41.177048 457.185394 " />
<path stroke-linejoin="round" stroke-linecap="round" stroke="rgb(0,0,255)" stroke-width="1.874998" fill="none" d="M 0.000000 750.000000 L 100.746277 0.000000 " />
<path stroke-linejoin="round" stroke-linecap="round" stroke="rgb(255,0,0)" stroke-width="3.749996" fill="none" d="M 40.116707 451.353455 L 40.817432 455.207428 " />
<path stroke-linejoin="round" stroke-linecap="round" stroke="rgb(0,0,255)" stroke-width="1.874998" fill="none" d="M 0.000000 750.000000 L 94.444443 0.000000 " />
<path stroke-linejoin="round" stroke-linecap="round" stroke="rgb(255,0,0)" stroke-width="3.749996" fill="none" d="M 38.634136 443.199402 L 40.116707 451.353455 " />
<path stroke-linejoin="round" stroke-linecap="round" stroke="rgb(0,0,255)" stroke-width="1.874998" fill="none" d="M 0.000000 750.000000 L 88.235291 0.000000 " />
<path stroke-linejoin="round" stroke-linecap="round" stroke="rgb(255,0,0)" stroke-width="3.749996" fill="none" d="M 37.092022 434.717773 L 38.634136 443.199402 " />
<path stroke-linejoin="round" stroke-linecap="round" stroke="rgb(0,0,255)" stroke-width="1.874998" fill="none" d="M 0.000000 750.000000 L 86.956520 0.000000 " />
<path stroke-linejoin="round" stroke-linecap="round" stroke="rgb(255,0,0)" stroke-width="3.749996" fill="none" d="M 36.763763 432.912415 L 37.092022 434.717773 " />
<path stroke-linejoin="round" stroke-linecap="round" stroke="rgb(0,0,255)" stroke-width="1.874998" fill="none" d="M 0.000000 750.000000 L 85.714279 0.000000 " />
<path stroke-linejoin="round" stroke-linecap="round" stroke="rgb(255,0,0)" stroke-width="3.749996" fill="none" d="M 36.441296 431.138733 L 36.763763 432.912415 " />
<path stroke-linejoin="round" stroke-linecap="round" stroke="rgb(0,0,255)" stroke-width="1.874998" fill="none" d="M 0.000000 750.000000 L 79.787224 0.000000 " />
<path stroke-linejoin="round" stroke-linecap="round" stroke="rgb(255,0,0)" stroke-width="3.749996" fill="none" d="M 34.851574 422.395264 L 36.441296 431.138733 " />
<path stroke-linejoin="round" stroke-linecap="round" stroke="rgb(0,0,255)" stroke-width="1.874998" fill="none" d="M 0.000000 750.000000 L 69.536423 0.000000 " />
<path stroke-linejoin="round" stroke-linecap="round" stroke="rgb(255,0,0)" stroke-width="3.749996" fill="none" d="M 32.941616 394.701050 L 34.851574 422.395264 " />
<path stroke-linejoin="round" stroke-linecap="round" stroke="rgb(0,0,255)" stroke-width="1.874998" fill="none" d="M 0.000000 750.000000 L 61.403500 0.000000 " />
<path stroke-linejoin="round" stroke-linecap="round" stroke="rgb(255,0,0)" stroke-width="3.749996" fill="none" d="M 31.180054 369.158051 L 32.941639 394.700989 " />
<path stroke-linejoin="round" stroke-linecap="round" stroke="rgb(0,0,255)" stroke-width="1.874998" fill="none" d="M 0.000000 750.000000 L 61.320751 0.000000 " />
<path stroke-linejoin="round" stroke-linecap="round" stroke="rgb(255,0,0)" stroke-width="3.749996" fill="none" d="M 31.151064 368.998657 L 31.180054 369.158051 " />
<path stroke-linejoin="round" stroke-linecap="round" stroke="rgb(0,0,255)" stroke-width="1.874998" fill="none" d="M 0.000000 750.000000 L 59.451206 0.000000 " />
<path stroke-linejoin="round" stroke-linecap="round" stroke="rgb(255,0,0)" stroke-width="3.749996" fill="none" d="M 30.489676 365.361084 L 31.151041 368.998688 " />
<path stroke-linejoin="round" stroke-linecap="round" stroke="rgb(0,0,255)" stroke-width="1.874998" fill="none" d="M 0.000000 750.000000 L 59.090897 0.000000 " />
<path stroke-linejoin="round" stroke-linecap="round" stroke="rgb(255,0,0)" stroke-width="3.749996" fill="none" d="M 30.360750 364.652008 L 30.489676 365.361084 " />
<path stroke-linejoin="round" stroke-linecap="round" stroke="rgb(0,0,255)" stroke-width="1.874998" fill="none" d="M 0.000000 750.000000 L 58.383240 0.000000 " />
<path stroke-linejoin="round" stroke-linecap="round" stroke="rgb(255,0,0)" stroke-width="3.749996" fill="none" d="M 30.106165 363.251678 L 30.360750 364.652008 " />
<path stroke-linejoin="round" stroke-linecap="round" stroke="rgb(0,0,255)" stroke-width="1.874998" fill="none" d="M 0.000000 750.000000 L 57.692303 0.000000 " />
<path stroke-linejoin="round" stroke-linecap="round" stroke="rgb(255,0,0)" stroke-width="3.749996" fill="none" d="M 29.855803 361.874695 L 30.106165 363.251678 " />
<path stroke-linejoin="round" stroke-linecap="round" stroke="rgb(0,0,255)" stroke-width="1.874998" fill="none" d="M 0.000000 750.000000 L 54.775269 0.000000 " />
<path stroke-linejoin="round" stroke-linecap="round" stroke="rgb(255,0,0)" stroke-width="3.749996" fill="none" d="M 28.778830 355.951385 L 29.855803 361.874695 " />
<path stroke-linejoin="round" stroke-linecap="round" stroke="rgb(0,0,255)" stroke-width="1.874998" fill="none" d="M 0.000000 750.000000 L 54.216877 0.000000 " />
<path stroke-linejoin="round" stroke-linecap="round" stroke="rgb(255,0,0)" stroke-width="3.749996" fill="none" d="M 28.568901 354.796814 L 28.778830 355.951385 " />
<path stroke-linejoin="round" stroke-linecap="round" stroke="rgb(0,0,255)" stroke-width="1.874998" fill="none" d="M 0.000000 750.000000 L 49.401196 0.000000 " />
<path stroke-linejoin="round" stroke-linecap="round" stroke="rgb(255,0,0)" stroke-width="3.749996" fill="none" d="M 26.706175 344.551788 L 28.568901 354.796814 " />
<path stroke-linejoin="round" stroke-linecap="round" stroke="rgb(0,0,255)" stroke-width="1.874998" fill="none" d="M 0.000000 750.000000 L 48.816563 0.000000 " />
<path stroke-linejoin="round" stroke-linecap="round" stroke="rgb(255,0,0)" stroke-width="3.749996" fill="none" d="M 26.473448 343.271759 L 26.706175 344.551788 " />
<path stroke-linejoin="round" stroke-linecap="round" stroke="rgb(0,0,255)" stroke-width="1.874998" fill="none" d="M 0.000000 750.000000 L 44.117645 0.000000 " />
<path stroke-linejoin="round" stroke-linecap="round" stroke="rgb(255,0,0)" stroke-width="3.749996" fill="none" d="M 24.548092 332.682373 L 26.473448 343.271759 " />
<path stroke-linejoin="round" stroke-linecap="round" stroke="rgb(0,0,255)" stroke-width="1.874998" fill="none" d="M 0.000000 750.000000 L 43.604649 0.000000 " />
<path stroke-linejoin="round" stroke-linecap="round" stroke="rgb(255,0,0)" stroke-width="3.749996" fill="none" d="M 24.331816 331.492828 L 24.548092 332.682373 " />
<path stroke-linejoin="round" stroke-linecap="round" stroke="rgb(0,0,255)" stroke-width="1.874998" fill="none" d="M 0.000000 750.000000 L 43.103455 0.000000 " />
<path stroke-linejoin="round" stroke-linecap="round" stroke="rgb(255,0,0)" stroke-width="3.749996" fill="none" d="M 24.119318 330.324066 L 24.331816 331.492828 " />
<path stroke-linejoin="round" stroke-linecap="round" stroke="rgb(0,0,255)" stroke-width="1.874998" fill="none" d="M 0.000000 750.000000 L 42.613640 0.000000 " />
<path stroke-linejoin="round" stroke-linecap="round" stroke="rgb(255,0,0)" stroke-width="3.749996" fill="none" d="M 23.910484 329.175537 L 24.119318 330.324066 " />
<path stroke-linejoin="round" stroke-linecap="round" stroke="rgb(0,0,255)" stroke-width="1.874998" fill="none" d="M 0.000000 750.000000 L 38.135605 0.000000 " />
<path stroke-linejoin="round" stroke-linecap="round" stroke="rgb(255,0,0)" stroke-width="3.749996" fill="none" d="M 21.946974 318.376282 L 23.910484 329.175537 " />
<path stroke-linejoin="round" stroke-linecap="round" stroke="rgb(0,0,255)" stroke-width="1.874998" fill="none" d="M 0.000000 750.000000 L 33.707855 0.000000 " />
<path stroke-linejoin="round" stroke-linecap="round" stroke="rgb(255,0,0)" stroke-width="3.749996" fill="none" d="M 19.903868 307.139099 L 21.946974 318.376282 " />
<path stroke-linejoin="round" stroke-linecap="round" stroke="rgb(0,0,255)" stroke-width="1.874998" fill="none" d="M 0.000000 750.000000 L 33.333332 0.000000 " />
<path stroke-linejoin="round" stroke-linecap="round" stroke="rgb(255,0,0)" stroke-width="3.749996" fill="none" d="M 19.726151 306.161713 L 19.903868 307.139099 " />
<path stroke-linejoin="round" stroke-linecap="round" stroke="rgb(0,0,255)" stroke-width="1.874998" fill="none" d="M 0.000000 750.000000 L 32.258057 0.000000 " />
<path stroke-linejoin="round" stroke-linecap="round" stroke="rgb(255,0,0)" stroke-width="3.749996" fill="none" d="M 19.211546 303.331451 L 19.726151 306.161713 " />
<path stroke-linejoin="round" stroke-linecap="round" stroke="rgb(0,0,255)" stroke-width="1.874998" fill="none" d="M 0.000000 750.000000 L 31.914890 0.000000 " />
<path stroke-linejoin="round" stroke-linecap="round" stroke="rgb(255,0,0)" stroke-width="3.749996" fill="none" d="M 19.045942 302.420532 L 19.211546 303.331451 " />
<path stroke-linejoin="round" stroke-linecap="round" stroke="rgb(0,0,255)" stroke-width="1.874998" fill="none" d="M 0.000000 750.000000 L 31.578943 0.000000 " />
<path stroke-linejoin="round" stroke-linecap="round" stroke="rgb(255,0,0)" stroke-width="3.749996" fill="none" d="M 18.883154 301.525208 L 19.045942 302.420532 " />
<path stroke-linejoin="round" stroke-linecap="round" stroke="rgb(0,0,255)" stroke-width="1.874998" fill="none" d="M 0.000000 750.000000 L 31.249992 0.000000 " />
<path stroke-linejoin="round" stroke-linecap="round" stroke="rgb(255,0,0)" stroke-width="3.749996" fill="none" d="M 18.723116 300.645050 L 18.883154 301.525208 " />
<path stroke-linejoin="round" stroke-linecap="round" stroke="rgb(0,0,255)" stroke-width="1.874998" fill="none" d="M 0.000000 750.000000 L 30.927837 0.000000 " />
<path stroke-linejoin="round" stroke-linecap="round" stroke="rgb(255,0,0)" stroke-width="3.749996" fill="none" d="M 18.565781 299.779663 L 18.723116 300.645050 " />
<path stroke-linejoin="round" stroke-linecap="round" stroke="rgb(0,0,255)" stroke-width="1.874998" fill="none" d="M 0.000000 750.000000 L 28.688528 0.000000 " />
<path stroke-linejoin="round" stroke-linecap="round" stroke="rgb(255,0,0)" stroke-width="3.749996" fill="none" d="M 17.455191 293.671417 L 18.565781 299.779663 " />
<path stroke-linejoin="round" stroke-linecap="round" stroke="rgb(0,0,255)" stroke-width="1.874998" fill="none" d="M 0.000000 750.000000 L 28.378374 0.000000 " />
<path stroke-linejoin="round" stroke-linecap="round" stroke="rgb(255,0,0)" stroke-width="3.749996" fill="none" d="M 17.298996 292.812347 L 17.455191 293.671417 " />
<path stroke-linejoin="round" stroke-linecap="round" stroke="rgb(0,0,255)" stroke-width="1.874998" fill="none" d="M 0.000000 750.000000 L 27.486919 0.000000 " />
<path stroke-linejoin="round" stroke-linecap="round" stroke="rgb(255,0,0)" stroke-width="3.749996" fill="none" d="M 16.846731 290.324921 L 17.298996 292.812408 " />
<path stroke-linejoin="round" stroke-linecap="round" stroke="rgb(0,0,255)" stroke-width="1.874998" fill="none" d="M 0.000000 750.000000 L 23.437500 0.000000 " />
<path stroke-linejoin="round" stroke-linecap="round" stroke="rgb(255,0,0)" stroke-width="3.749996" fill="none" d="M 14.889277 273.543243 L 16.846731 290.324951 " />
<path stroke-linejoin="round" stroke-linecap="round" stroke="rgb(0,0,255)" stroke-width="1.874998" fill="none" d="M 0.000000 750.000000 L 19.430056 0.000000 " />
<path stroke-linejoin="round" stroke-linecap="round" stroke="rgb(255,0,0)" stroke-width="3.749996" fill="none" d="M 13.064258 245.719620 L 14.889277 273.543243 " />
<path stroke-linejoin="round" stroke-linecap="round" stroke="rgb(0,0,255)" stroke-width="1.874998" fill="none" d="M 0.000000 750.000000 L 15.463919 0.000000 " />
<path stroke-linejoin="round" stroke-linecap="round" stroke="rgb(255,0,0)" stroke-width="3.749996" fill="none" d="M 11.120505 210.655334 L 13.064258 245.719620 " />
<path stroke-linejoin="round" stroke-linecap="round" stroke="rgb(0,0,255)" stroke-width="1.874998" fill="none" d="M 0.000000 750.000000 L 15.306115 0.000000 " />
<path stroke-linejoin="round" stroke-linecap="round" stroke="rgb(255,0,0)" stroke-width="3.749996" fill="none" d="M 11.031948 209.435043 L 11.120505 210.655380 " />
<path stroke-linejoin="round" stroke-linecap="round" stroke="rgb(0,0,255)" stroke-width="1.874998" fill="none" d="M 0.000000 750.000000 L 15.000008 0.000000 " />
<path stroke-linejoin="round" stroke-linecap="round" stroke="rgb(255,0,0)" stroke-width="3.749996" fill="none" d="M 10.870189 206.490265 L 11.031948 209.434998 " />
<path stroke-linejoin="round" stroke-linecap="round" stroke="rgb(0,0,255)" stroke-width="1.874998" fill="none" d="M 0.000000 750.000000 L 14.851480 0.000000 " />
<path stroke-linejoin="round" stroke-linecap="round" stroke="rgb(255,0,0)" stroke-width="3.749996" fill="none" d="M 10.791533 205.028061 L 10.870189 206.490280 " />
<path stroke-linejoin="round" stroke-linecap="round" stroke="rgb(0,0,255)" stroke-width="1.874998" fill="none" d="M 0.000000 750.000000 L 14.705881 0.000000 " />
<path stroke-linejoin="round" stroke-linecap="round" stroke="rgb(255,0,0)" stroke-width="3.749996" fill="none" d="M 10.714330 203.569473 L 10.791533 205.028061 " />
<path stroke-linejoin="round" stroke-linecap="round" stroke="rgb(0,0,255)" stroke-width="1.874998" fill="none" d="M 0.000000 750.000000 L 14.563099 0.000000 " />
<path stroke-linejoin="round" stroke-linecap="round" stroke="rgb(255,0,0)" stroke-width="3.749996" fill="none" d="M 10.638311 202.127197 L 10.714330 203.569473 " />
<path stroke-linejoin="round" stroke-linecap="round" stroke="rgb(0,0,255)" stroke-width="1.874998" fill="none" d="M 0.000000 750.000000 L 14.423087 0.000000 " />
<path stroke-linejoin="round" stroke-linecap="round" stroke="rgb(255,0,0)" stroke-width="3.749996" fill="none" d="M 10.563389 200.704163 L 10.638311 202.127228 " />
<path stroke-linejoin="round" stroke-linecap="round" stroke="rgb(0,0,255)" stroke-width="1.874998" fill="none" d="M 0.000000 750.000000 L 14.285713 0.000000 " />
<path stroke-linejoin="round" stroke-linecap="round" stroke="rgb(255,0,0)" stroke-width="3.749996" fill="none" d="M 10.489516 199.300720 L 10.563389 200.704208 " />
<path stroke-linejoin="round" stroke-linecap="round" stroke="rgb(0,0,255)" stroke-width="1.874998" fill="none" d="M 0.000000 750.000000 L 14.150932 0.000000 " />
<path stroke-linejoin="round" stroke-linecap="round" stroke="rgb(255,0,0)" stroke-width="3.749996" fill="none" d="M 10.416672 197.916687 L 10.489516 199.300720 " />
<path stroke-linejoin="round" stroke-linecap="round" stroke="rgb(0,0,255)" stroke-width="1.874998" fill="none" d="M 0.000000 750.000000 L 14.018700 0.000000 " />
<path stroke-linejoin="round" stroke-linecap="round" stroke="rgb(255,0,0)" stroke-width="3.749996" fill="none" d="M 10.344833 196.551788 L 10.416672 197.916687 " />
<path stroke-linejoin="round" stroke-linecap="round" stroke="rgb(0,0,255)" stroke-width="1.874998" fill="none" d="M 0.000000 750.000000 L 13.888881 0.000000 " />
<path stroke-linejoin="round" stroke-linecap="round" stroke="rgb(255,0,0)" stroke-width="3.749996" fill="none" d="M 10.273978 195.205566 L 10.344833 196.551788 " />
<path stroke-linejoin="round" stroke-linecap="round" stroke="rgb(0,0,255)" stroke-width="1.874998" fill="none" d="M 0.000000 750.000000 L 13.761476 0.000000 " />
<path stroke-linejoin="round" stroke-linecap="round" stroke="rgb(255,0,0)" stroke-width="3.749996" fill="none" d="M 10.204084 193.877579 L 10.273978 195.205566 " />
<path stroke-linejoin="round" stroke-linecap="round" stroke="rgb(0,0,255)" stroke-width="1.874998" fill="none" d="M 0.000000 750.000000 L 13.513506 0.000000 " />
<path stroke-linejoin="round" stroke-linecap="round" stroke="rgb(255,0,0)" stroke-width="3.749996" fill="none" d="M 10.067113 191.275238 L 10.204084 193.877579 " />
<path stroke-linejoin="round" stroke-linecap="round" stroke="rgb(0,0,255)" stroke-width="1.874998" fill="none" d="M 0.000000 750.000000 L 13.392851 0.000000 " />
<path stroke-linejoin="round" stroke-linecap="round" stroke="rgb(255,0,0)" stroke-width="3.749996" fill="none" d="M 9.999990 190.000046 L 10.067113 191.275238 " />
<path stroke-linejoin="round" stroke-linecap="round" stroke="rgb(0,0,255)" stroke-width="1.874998" fill="none" d="M 0.000000 750.000000 L 10.765560 0.000000 " />
<path stroke-linejoin="round" stroke-linecap="round" stroke="rgb(255,0,0)" stroke-width="3.749996" fill="none" d="M 8.458636 160.714279 L 9.999990 190.000046 " />
<path stroke-linejoin="round" stroke-linecap="round" stroke="rgb(0,0,255)" stroke-width="1.874998" fill="none" d="M 0.000000 750.000000 L 7.142857 0.000000 " />
<path stroke-linejoin="round" stroke-linecap="round" stroke="rgb(255,0,0)" stroke-width="3.749996" fill="none" d="M 6.048381 114.919357 L 8.458636 160.714249 " />
<path stroke-linejoin="round" stroke-linecap="round" stroke="rgb(0,0,255)" stroke-width="1.874998" fill="none" d="M 0.000000 750.000000 L 3.554508 0.000000 " />
<path stroke-linejoin="round" stroke-linecap="round" stroke="rgb(255,0,0)" stroke-width="3.749996" fill="none" d="M 3.260873 61.956524 L 6.048381 114.919357 " />
<path stroke-linejoin="round" stroke-linecap="round" stroke="rgb(0,0,255)" stroke-width="1.874998" fill="none" d="M 0.000000 750.000000 L 0.000000 0.000000 " />
<path stroke-linejoin="round" stroke-linecap="round" stroke="rgb(255,0,0)" stroke-width="3.749996" fill="none" d="M 0.000000 0.000000 L 3.260873 61.956524 " />
<circle cx="74.919529" cy="748.471051" r="3.749996" style="fill:rgb(0,127,0);stroke-width:1" /><circle cx="74.654572" cy="747.013807" r="3.749996" style="fill:rgb(0,127,0);stroke-width:1" /><circle cx="74.632131" cy="746.890336" r="3.749996" style="fill:rgb(0,127,0);stroke-width:1" /><circle cx="74.334830" cy="745.255217" r="3.749996" style="fill:rgb(0,127,0);stroke-width:1" /><circle cx="74.027136" cy="743.562855" r="3.749996" style="fill:rgb(0,127,0);stroke-width:1" /><circle cx="73.708445" cy="741.810165" r="3.749996" style="fill:rgb(0,127,0);stroke-width:1" /><circle cx="73.378220" cy="739.993885" r="3.749996" style="fill:rgb(0,127,0);stroke-width:1" /><circle cx="73.129222" cy="738.624349" r="3.749996" style="fill:rgb(0,127,0);stroke-width:1" /><circle cx="72.791196" cy="736.765243" r="3.749996" style="fill:rgb(0,127,0);stroke-width:1" /><circle cx="72.440788" cy="734.837964" r="3.749996" style="fill:rgb(0,127,0);stroke-width:1" /><circle cx="71.263120" cy="717.761926" r="3.749996" style="fill:rgb(0,127,0);stroke-width:1" /><circle cx="70.220366" cy="702.642068" r="3.749996" style="fill:rgb(0,127,0);stroke-width:1" /><circle cx="70.036367" cy="699.974030" r="3.749996" style="fill:rgb(0,127,0);stroke-width:1" /><circle cx="68.853714" cy="682.825640" r="3.749996" style="fill:rgb(0,127,0);stroke-width:1" /><circle cx="67.654185" cy="665.432274" r="3.749996" style="fill:rgb(0,127,0);stroke-width:1" /><circle cx="66.437379" cy="647.788659" r="3.749996" style="fill:rgb(0,127,0);stroke-width:1" /><circle cx="65.202937" cy="629.889339" r="3.749996" style="fill:rgb(0,127,0);stroke-width:1" /><circle cx="63.950479" cy="611.728705" r="3.749996" style="fill:rgb(0,127,0);stroke-width:1" /><circle cx="62.679604" cy="593.301013" r="3.749996" style="fill:rgb(0,127,0);stroke-width:1" /><circle cx="61.389886" cy="574.600294" r="3.749996" style="fill:rgb(0,127,0);stroke-width:1" /><circle cx="60.696065" cy="564.539798" r="3.749996" style="fill:rgb(0,127,0);stroke-width:1" /><circle cx="60.646825" cy="564.269073" r="3.749996" style="fill:rgb(0,127,0);stroke-width:1" /><circle cx="60.207367" cy="561.852023" r="3.749996" style="fill:rgb(0,127,0);stroke-width:1" /><circle cx="59.292600" cy="556.820869" r="3.749996" style="fill:rgb(0,127,0);stroke-width:1" /><circle cx="58.347031" cy="551.620122" r="3.749996" style="fill:rgb(0,127,0);stroke-width:1" /><circle cx="57.369009" cy="546.241097" r="3.749996" style="fill:rgb(0,127,0);stroke-width:1" /><circle cx="56.356877" cy="540.674441" r="3.749996" style="fill:rgb(0,127,0);stroke-width:1" /><circle cx="55.923365" cy="538.290080" r="3.749996" style="fill:rgb(0,127,0);stroke-width:1" /><circle cx="54.875873" cy="532.528929" r="3.749996" style="fill:rgb(0,127,0);stroke-width:1" /><circle cx="54.449670" cy="530.184712" r="3.749996" style="fill:rgb(0,127,0);stroke-width:1" /><circle cx="53.365611" cy="524.222430" r="3.749996" style="fill:rgb(0,127,0);stroke-width:1" /><circle cx="52.242301" cy="518.044196" r="3.749996" style="fill:rgb(0,127,0);stroke-width:1" /><circle cx="51.077552" cy="511.638075" r="3.749996" style="fill:rgb(0,127,0);stroke-width:1" /><circle cx="50.662279" cy="509.354141" r="3.749996" style="fill:rgb(0,127,0);stroke-width:1" /><circle cx="50.253712" cy="507.106997" r="3.749996" style="fill:rgb(0,127,0);stroke-width:1" /><circle cx="49.851693" cy="504.895840" r="3.749996" style="fill:rgb(0,127,0);stroke-width:1" /><circle cx="48.650242" cy="498.287883" r="3.749996" style="fill:rgb(0,127,0);stroke-width:1" /><circle cx="47.403932" cy="491.433151" r="3.749996" style="fill:rgb(0,127,0);stroke-width:1" /><circle cx="46.110190" cy="484.317519" r="3.749996" style="fill:rgb(0,127,0);stroke-width:1" /><circle cx="44.766247" cy="476.925932" r="3.749996" style="fill:rgb(0,127,0);stroke-width:1" /><circle cx="44.383630" cy="474.821538" r="3.749996" style="fill:rgb(0,127,0);stroke-width:1" /><circle cx="42.991206" cy="467.163172" r="3.749996" style="fill:rgb(0,127,0);stroke-width:1" /><circle cx="42.619787" cy="465.120418" r="3.749996" style="fill:rgb(0,127,0);stroke-width:1" /><circle cx="41.177049" cy="457.185388" r="3.749996" style="fill:rgb(0,127,0);stroke-width:1" /><circle cx="40.817432" cy="455.207454" r="3.749996" style="fill:rgb(0,127,0);stroke-width:1" /><circle cx="40.116705" cy="451.353477" r="3.749996" style="fill:rgb(0,127,0);stroke-width:1" /><circle cx="38.634136" cy="443.199422" r="3.749996" style="fill:rgb(0,127,0);stroke-width:1" /><circle cx="37.092023" cy="434.717774" r="3.749996" style="fill:rgb(0,127,0);stroke-width:1" /><circle cx="36.763765" cy="432.912435" r="3.749996" style="fill:rgb(0,127,0);stroke-width:1" /><circle cx="36.441296" cy="431.138741" r="3.749996" style="fill:rgb(0,127,0);stroke-width:1" /><circle cx="34.851573" cy="422.395276" r="3.749996" style="fill:rgb(0,127,0);stroke-width:1" /><circle cx="32.941617" cy="394.701040" r="3.749996" style="fill:rgb(0,127,0);stroke-width:1" /><circle cx="31.180054" cy="369.158042" r="3.749996" style="fill:rgb(0,127,0);stroke-width:1" /><circle cx="31.151064" cy="368.998647" r="3.749996" style="fill:rgb(0,127,0);stroke-width:1" /><circle cx="30.489676" cy="365.361070" r="3.749996" style="fill:rgb(0,127,0);stroke-width:1" /><circle cx="30.360751" cy="364.652002" r="3.749996" style="fill:rgb(0,127,0);stroke-width:1" /><circle cx="30.106165" cy="363.251674" r="3.749996" style="fill:rgb(0,127,0);stroke-width:1" /><circle cx="29.855803" cy="361.874700" r="3.749996" style="fill:rgb(0,127,0);stroke-width:1" /><circle cx="28.778829" cy="355.951380" r="3.749996" style="fill:rgb(0,127,0);stroke-width:1" /><circle cx="28.568901" cy="354.796815" r="3.749996" style="fill:rgb(0,127,0);stroke-width:1" /><circle cx="26.706174" cy="344.551778" r="3.749996" style="fill:rgb(0,127,0);stroke-width:1" /><circle cx="26.473448" cy="343.271756" r="3.749996" style="fill:rgb(0,127,0);stroke-width:1" /><circle cx="24.548091" cy="332.682394" r="3.749996" style="fill:rgb(0,127,0);stroke-width:1" /><circle cx="24.331816" cy="331.492818" r="3.749996" style="fill:rgb(0,127,0);stroke-width:1" /><circle cx="24.119318" cy="330.324054" r="3.749996" style="fill:rgb(0,127,0);stroke-width:1" /><circle cx="23.910485" cy="329.175532" r="3.749996" style="fill:rgb(0,127,0);stroke-width:1" /><circle cx="21.946974" cy="318.376277" r="3.749996" style="fill:rgb(0,127,0);stroke-width:1" /><circle cx="19.903868" cy="307.139112" r="3.749996" style="fill:rgb(0,127,0);stroke-width:1" /><circle cx="19.726150" cy="306.161715" r="3.749996" style="fill:rgb(0,127,0);stroke-width:1" /><circle cx="19.211546" cy="303.331448" r="3.749996" style="fill:rgb(0,127,0);stroke-width:1" /><circle cx="19.045942" cy="302.420530" r="3.749996" style="fill:rgb(0,127,0);stroke-width:1" /><circle cx="18.883154" cy="301.525209" r="3.749996" style="fill:rgb(0,127,0);stroke-width:1" /><circle cx="18.723115" cy="300.645053" r="3.749996" style="fill:rgb(0,127,0);stroke-width:1" /><circle cx="18.565781" cy="299.779667" r="3.749996" style="fill:rgb(0,127,0);stroke-width:1" /><circle cx="17.455190" cy="293.671416" r="3.749996" style="fill:rgb(0,127,0);stroke-width:1" /><circle cx="17.298996" cy="292.812360" r="3.749996" style="fill:rgb(0,127,0);stroke-width:1" /><circle cx="16.846731" cy="290.324913" r="3.749996" style="fill:rgb(0,127,0);stroke-width:1" /><circle cx="14.889278" cy="273.543265" r="3.749996" style="fill:rgb(0,127,0);stroke-width:1" /><circle cx="13.064258" cy="245.719638" r="3.749996" style="fill:rgb(0,127,0);stroke-width:1" /><circle cx="11.120506" cy="210.655332" r="3.749996" style="fill:rgb(0,127,0);stroke-width:1" /><circle cx="11.031948" cy="209.435038" r="3.749996" style="fill:rgb(0,127,0);stroke-width:1" /><circle cx="10.870188" cy="206.490252" r="3.749996" style="fill:rgb(0,127,0);stroke-width:1" /><circle cx="10.791533" cy="205.028057" r="3.749996" style="fill:rgb(0,127,0);stroke-width:1" /><circle cx="10.714330" cy="203.569472" r="3.749996" style="fill:rgb(0,127,0);stroke-width:1" /><circle cx="10.638312" cy="202.127192" r="3.749996" style="fill:rgb(0,127,0);stroke-width:1" /><circle cx="10.563388" cy="200.704157" r="3.749996" style="fill:rgb(0,127,0);stroke-width:1" /><circle cx="10.489516" cy="199.300714" r="3.749996" style="fill:rgb(0,127,0);stroke-width:1" /><circle cx="10.416672" cy="197.916694" r="3.749996" style="fill:rgb(0,127,0);stroke-width:1" /><circle cx="10.344833" cy="196.551774" r="3.749996" style="fill:rgb(0,127,0);stroke-width:1" /><circle cx="10.273978" cy="195.205562" r="3.749996" style="fill:rgb(0,127,0);stroke-width:1" /><circle cx="10.204084" cy="193.877578" r="3.749996" style="fill:rgb(0,127,0);stroke-width:1" /><circle cx="10.067113" cy="191.275232" r="3.749996" style="fill:rgb(0,127,0);stroke-width:1" /><circle cx="9.999990" cy="190.000020" r="3.749996" style="fill:rgb(0,127,0);stroke-width:1" /><circle cx="8.458637" cy="160.714276" r="3.749996" style="fill:rgb(0,127,0);stroke-width:1" /><circle cx="6.048381" cy="114.919357" r="3.749996" style="fill:rgb(0,127,0);stroke-width:1" /><circle cx="3.260851" cy="61.956525" r="3.750008" style="fill:rgb(0,127,0);stroke-width:1" /><circle cx="750.000000" cy="750.000000" r="3.749996" style="fill:rgb(0,127,0);stroke-width:1" /><path stroke-linejoin="round" stroke-linecap="round" stroke="rgb(255,255,255)" stroke-width="3.749996" fill="none" d="M 0.000000 750.000000 L 750.000000 750.000000 M 0.000000 750.000000 L 0.000000 0.000000 " />

</svg>