<svg xmlns="http://www.w3.org/2000/svg" version="1.1" width = "750" height = "750" viewBox = "0 0 750 750"  shape-rendering="crispEdges">
<path stroke-linejoin="round" stroke-linecap="round" stroke="rgb(255,255,0)" stroke-width="3.749996" fill="none" d="M 93.750000 750.000000 L 0.000000 0.000000 " />
<path stroke-linejoin="round" stroke-linecap="round" stroke="rgb(63,63,63)" stroke-width="3.749996" fill="none" d="M 0.000000 0.000000 L 750.000000 750.000000 M 93.750000 750.000000 L 43.750004 0.000000 " />
<path stroke-linejoin="round" stroke-linecap="round" stroke="rgb(191,191,191)" stroke-width="3.749996" fill="none" d="M 0.000000 656.250000 L 93.750000 750.000000 M 0.000000 0.000000 L 49.999996 750.000000 " />
<path stroke-linejoin="round" stroke-linecap="round" stroke="rgb(0,0,255)" stroke-width="1.874998" fill="none" d="M 0.000000 750.000000 L 750.000000 729.729736 " />
<path stroke-linejoin="round" stroke-linecap="round" stroke="rgb(255,0,0)" stroke-width="3.749996" fill="none" d="M 93.581375 747.470764 L 93.750000 750.000000 " />
<path stroke-linejoin="round" stroke-linecap="round" stroke="rgb(0,0,255)" stroke-width="1.874998" fill="none" d="M 0.000000 750.000000 L 750.000000 708.333313 " />
<path stroke-linejoin="round" stroke-linecap="round" stroke="rgb(255,0,0)" stroke-width="3.749996" fill="none" d="M 91.052147 744.941528 L 93.581375 747.470764 " />
<path stroke-linejoin="round" stroke-linecap="round" stroke="rgb(0,0,255)" stroke-width="1.874998" fill="none" d="M 0.000000 750.000000 L 750.000000 685.714294 " />
<path stroke-linejoin="round" stroke-linecap="round" stroke="rgb(255,0,0)" stroke-width="3.749996" fill="none" d="M 88.522911 742.412292 L 91.052124 744.941528 " />
<path stroke-linejoin="round" stroke-linecap="round" stroke="rgb(0,0,255)" stroke-width="1.874998" fill="none" d="M 0.000000 750.000000 L 750.000000 666.666687 " />
<path stroke-linejoin="round" stroke-linecap="round" stroke="rgb(255,0,0)" stroke-width="3.749996" fill="none" d="M 86.499519 740.388916 L 88.522888 742.412292 " />
<path stroke-linejoin="round" stroke-linecap="round" stroke="rgb(0,0,255)" stroke-width="1.874998" fill="none" d="M 0.000000 750.000000 L 750.000000 642.857178 " />
<path stroke-linejoin="round" stroke-linecap="round" stroke="rgb(255,0,0)" stroke-width="3.749996" fill="none" d="M 84.096748 737.986206 L 86.499519 740.388916 " />
<path stroke-linejoin="round" stroke-linecap="round" stroke="rgb(0,0,255)" stroke-width="1.874998" fill="none" d="M 0.000000 750.000000 L 750.000000 617.647095 " />
<path stroke-linejoin="round" stroke-linecap="round" stroke="rgb(255,0,0)" stroke-width="3.749996" fill="none" d="M 81.693985 735.583374 L 84.096733 737.986206 " />
<path stroke-linejoin="round" stroke-linecap="round" stroke="rgb(0,0,255)" stroke-width="1.874998" fill="none" d="M 0.000000 750.000000 L 750.000000 590.909058 " />
<path stroke-linejoin="round" stroke-linecap="round" stroke="rgb(255,0,0)" stroke-width="3.749996" fill="none" d="M 79.291214 733.180664 L 81.693985 735.583374 " />
<path stroke-linejoin="round" stroke-linecap="round" stroke="rgb(0,0,255)" stroke-width="1.874998" fill="none" d="M 0.000000 750.000000 L 750.000000 573.529419 " />
<path stroke-linejoin="round" stroke-linecap="round" stroke="rgb(255,0,0)" stroke-width="3.749996" fill="none" d="M 77.803795 731.693237 L 79.291214 733.180664 " />
<path stroke-linejoin="round" stroke-linecap="round" stroke="rgb(0,0,255)" stroke-width="1.874998" fill="none" d="M 0.000000 750.000000 L 750.000000 562.500000 " />
<path stroke-linejoin="round" stroke-linecap="round" stroke="rgb(255,0,0)" stroke-width="3.749996" fill="none" d="M 76.888451 730.777832 L 77.803795 731.693237 " />
<path stroke-linejoin="round" stroke-linecap="round" stroke="rgb(0,0,255)" stroke-width="1.874998" fill="none" d="M 0.000000 750.000000 L 750.000000 532.258118 " />
<path stroke-linejoin="round" stroke-linecap="round" stroke="rgb(255,0,0)" stroke-width="3.749996" fill="none" d="M 74.485703 728.375122 L 76.888451 730.777832 " />
<path stroke-linejoin="round" stroke-linecap="round" stroke="rgb(0,0,255)" stroke-width="1.874998" fill="none" d="M 0.000000 750.000000 L 750.000000 499.999969 " />
<path stroke-linejoin="round" stroke-linecap="round" stroke="rgb(255,0,0)" stroke-width="3.749996" fill="none" d="M 72.082916 725.972351 L 74.485703 728.375122 " />
<path stroke-linejoin="round" stroke-linecap="round" stroke="rgb(0,0,255)" stroke-width="1.874998" fill="none" d="M 0.000000 750.000000 L 750.000000 465.517212 " />
<path stroke-linejoin="round" stroke-linecap="round" stroke="rgb(255,0,0)" stroke-width="3.749996" fill="none" d="M 69.680168 723.569580 L 72.082916 725.972351 " />
<path stroke-linejoin="round" stroke-linecap="round" stroke="rgb(0,0,255)" stroke-width="1.874998" fill="none" d="M 0.000000 750.000000 L 750.000000 450.000031 " />
<path stroke-linejoin="round" stroke-linecap="round" stroke="rgb(255,0,0)" stroke-width="3.749996" fill="none" d="M 68.650406 722.539795 L 69.680168 723.569580 " />
<path stroke-linejoin="round" stroke-linecap="round" stroke="rgb(0,0,255)" stroke-width="1.874998" fill="none" d="M 0.000000 750.000000 L 750.000000 428.571411 " />
<path stroke-linejoin="round" stroke-linecap="round" stroke="rgb(255,0,0)" stroke-width="3.749996" fill="none" d="M 67.277405 721.166809 L 68.650406 722.539795 " />
<path stroke-linejoin="round" stroke-linecap="round" stroke="rgb(0,0,255)" stroke-width="1.874998" fill="none" d="M 0.000000 750.000000 L 750.000000 413.793091 " />
<path stroke-linejoin="round" stroke-linecap="round" stroke="rgb(255,0,0)" stroke-width="3.749996" fill="none" d="M 66.362053 720.251465 L 67.277405 721.166809 " />
<path stroke-linejoin="round" stroke-linecap="round" stroke="rgb(0,0,255)" stroke-width="1.874998" fill="none" d="M 0.000000 750.000000 L 750.000000 388.888885 " />
<path stroke-linejoin="round" stroke-linecap="round" stroke="rgb(255,0,0)" stroke-width="3.749996" fill="none" d="M 64.874634 718.764038 L 66.362053 720.251465 " />
<path stroke-linejoin="round" stroke-linecap="round" stroke="rgb(0,0,255)" stroke-width="1.874998" fill="none" d="M 0.000000 750.000000 L 750.000000 346.153839 " />
<path stroke-linejoin="round" stroke-linecap="round" stroke="rgb(255,0,0)" stroke-width="3.749996" fill="none" d="M 62.471867 716.361328 L 64.874634 718.764038 " />
<path stroke-linejoin="round" stroke-linecap="round" stroke="rgb(0,0,255)" stroke-width="1.874998" fill="none" d="M 0.000000 750.000000 L 750.000000 299.999969 " />
<path stroke-linejoin="round" stroke-linecap="round" stroke="rgb(255,0,0)" stroke-width="3.749996" fill="none" d="M 60.069099 713.958557 L 62.471867 716.361328 " />
<path stroke-linejoin="round" stroke-linecap="round" stroke="rgb(0,0,255)" stroke-width="1.874998" fill="none" d="M 0.000000 750.000000 L 750.000000 249.999985 " />
<path stroke-linejoin="round" stroke-linecap="round" stroke="rgb(255,0,0)" stroke-width="3.749996" fill="none" d="M 57.666332 711.555786 L 60.069099 713.958557 " />
<path stroke-linejoin="round" stroke-linecap="round" stroke="rgb(0,0,255)" stroke-width="1.874998" fill="none" d="M 0.000000 750.000000 L 750.000000 195.652176 " />
<path stroke-linejoin="round" stroke-linecap="round" stroke="rgb(255,0,0)" stroke-width="3.749996" fill="none" d="M 55.263565 709.153015 L 57.666332 711.555786 " />
<path stroke-linejoin="round" stroke-linecap="round" stroke="rgb(0,0,255)" stroke-width="1.874998" fill="none" d="M 0.000000 750.000000 L 750.000000 187.500000 " />
<path stroke-linejoin="round" stroke-linecap="round" stroke="rgb(255,0,0)" stroke-width="3.749996" fill="none" d="M 54.920330 708.809753 L 55.263565 709.153015 " />
<path stroke-linejoin="round" stroke-linecap="round" stroke="rgb(0,0,255)" stroke-width="1.874998" fill="none" d="M 0.000000 750.000000 L 750.000000 136.363647 " />
<path stroke-linejoin="round" stroke-linecap="round" stroke="rgb(255,0,0)" stroke-width="3.749996" fill="none" d="M 52.860798 706.750244 L 54.920330 708.809753 " />
<path stroke-linejoin="round" stroke-linecap="round" stroke="rgb(0,0,255)" stroke-width="1.874998" fill="none" d="M 0.000000 750.000000 L 750.000000 71.428566 " />
<path stroke-linejoin="round" stroke-linecap="round" stroke="rgb(255,0,0)" stroke-width="3.749996" fill="none" d="M 50.458050 704.347473 L 52.860798 706.750244 " />
<path stroke-linejoin="round" stroke-linecap="round" stroke="rgb(0,0,255)" stroke-width="1.874998" fill="none" d="M 0.000000 750.000000 L 750.000000 0.000000 " />
<path stroke-linejoin="round" stroke-linecap="round" stroke="rgb(255,0,0)" stroke-width="3.749996" fill="none" d="M 48.055283 701.944763 L 50.458050 704.347473 " />
<path stroke-linejoin="round" stroke-linecap="round" stroke="rgb(0,0,255)" stroke-width="1.874998" fill="none" d="M 0.000000 750.000000 L 678.571472 0.000000 " />
<path stroke-linejoin="round" stroke-linecap="round" stroke="rgb(255,0,0)" stroke-width="3.749996" fill="none" d="M 46.568626 698.529419 L 48.055283 701.944763 " />
<path stroke-linejoin="round" stroke-linecap="round" stroke="rgb(0,0,255)" stroke-width="1.874998" fill="none" d="M 0.000000 750.000000 L 613.636353 0.000000 " />
<path stroke-linejoin="round" stroke-linecap="round" stroke="rgb(255,0,0)" stroke-width="3.749996" fill="none" d="M 46.232880 693.493164 L 46.568626 698.529419 " />
<path stroke-linejoin="round" stroke-linecap="round" stroke="rgb(0,0,255)" stroke-width="1.874998" fill="none" d="M 0.000000 750.000000 L 554.347839 0.000000 " />
<path stroke-linejoin="round" stroke-linecap="round" stroke="rgb(255,0,0)" stroke-width="3.749996" fill="none" d="M 45.863316 687.949646 L 46.232880 693.493164 " />
<path stroke-linejoin="round" stroke-linecap="round" stroke="rgb(0,0,255)" stroke-width="1.874998" fill="none" d="M 0.000000 750.000000 L 510.000000 0.000000 " />
<path stroke-linejoin="round" stroke-linecap="round" stroke="rgb(255,0,0)" stroke-width="3.749996" fill="none" d="M 45.535706 683.035706 L 45.863316 687.949646 " />
<path stroke-linejoin="round" stroke-linecap="round" stroke="rgb(0,0,255)" stroke-width="1.874998" fill="none" d="M 0.000000 750.000000 L 500.000000 0.000000 " />
<path stroke-linejoin="round" stroke-linecap="round" stroke="rgb(255,0,0)" stroke-width="3.749996" fill="none" d="M 45.454548 681.818176 L 45.535706 683.035706 " />
<path stroke-linejoin="round" stroke-linecap="round" stroke="rgb(0,0,255)" stroke-width="1.874998" fill="none" d="M 0.000000 750.000000 L 330.882355 0.000000 " />
<path stroke-linejoin="round" stroke-linecap="round" stroke="rgb(255,0,0)" stroke-width="3.749996" fill="none" d="M 43.436295 651.544434 L 45.454548 681.818176 " />
<path stroke-linejoin="round" stroke-linecap="round" stroke="rgb(0,0,255)" stroke-width="1.874998" fill="none" d="M 0.000000 750.000000 L 250.000000 0.000000 " />
<path stroke-linejoin="round" stroke-linecap="round" stroke="rgb(255,0,0)" stroke-width="3.749996" fill="none" d="M 41.666664 625.000000 L 43.436295 651.544434 " />
<path stroke-linejoin="round" stroke-linecap="round" stroke="rgb(0,0,255)" stroke-width="1.874998" fill="none" d="M 0.000000 750.000000 L 227.678574 0.000000 " />
<path stroke-linejoin="round" stroke-linecap="round" stroke="rgb(255,0,0)" stroke-width="3.749996" fill="none" d="M 40.996784 614.951782 L 41.666664 625.000000 " />
<path stroke-linejoin="round" stroke-linecap="round" stroke="rgb(0,0,255)" stroke-width="1.874998" fill="none" d="M 0.000000 750.000000 L 174.107147 0.000000 " />
<path stroke-linejoin="round" stroke-linecap="round" stroke="rgb(255,0,0)" stroke-width="3.749996" fill="none" d="M 38.844624 582.669312 L 40.996784 614.951782 " />
<path stroke-linejoin="round" stroke-linecap="round" stroke="rgb(0,0,255)" stroke-width="1.874998" fill="none" d="M 0.000000 750.000000 L 136.363647 0.000000 " />
<path stroke-linejoin="round" stroke-linecap="round" stroke="rgb(255,0,0)" stroke-width="3.749996" fill="none" d="M 36.585354 548.780518 L 38.844601 582.669373 " />
<path stroke-linejoin="round" stroke-linecap="round" stroke="rgb(0,0,255)" stroke-width="1.874998" fill="none" d="M 0.000000 750.000000 L 108.552620 0.000000 " />
<path stroke-linejoin="round" stroke-linecap="round" stroke="rgb(255,0,0)" stroke-width="3.749996" fill="none" d="M 34.232365 513.485596 L 36.585354 548.780518 " />
<path stroke-linejoin="round" stroke-linecap="round" stroke="rgb(0,0,255)" stroke-width="1.874998" fill="none" d="M 0.000000 750.000000 L 104.651169 0.000000 " />
<path stroke-linejoin="round" stroke-linecap="round" stroke="rgb(255,0,0)" stroke-width="3.749996" fill="none" d="M 33.834568 507.518921 L 34.232365 513.485596 " />
<path stroke-linejoin="round" stroke-linecap="round" stroke="rgb(0,0,255)" stroke-width="1.874998" fill="none" d="M 0.000000 750.000000 L 85.937485 0.000000 " />
<path stroke-linejoin="round" stroke-linecap="round" stroke="rgb(255,0,0)" stroke-width="3.749996" fill="none" d="M 31.609184 474.138031 L 33.834568 507.518921 " />
<path stroke-linejoin="round" stroke-linecap="round" stroke="rgb(0,0,255)" stroke-width="1.874998" fill="none" d="M 0.000000 750.000000 L 84.905663 0.000000 " />
<path stroke-linejoin="round" stroke-linecap="round" stroke="rgb(255,0,0)" stroke-width="3.749996" fill="none" d="M 31.468525 472.028076 L 31.609184 474.138031 " />
<path stroke-linejoin="round" stroke-linecap="round" stroke="rgb(0,0,255)" stroke-width="1.874998" fill="none" d="M 0.000000 750.000000 L 84.051712 0.000000 " />
<path stroke-linejoin="round" stroke-linecap="round" stroke="rgb(255,0,0)" stroke-width="3.749996" fill="none" d="M 31.350464 470.257324 L 31.468525 472.028076 " />
<path stroke-linejoin="round" stroke-linecap="round" stroke="rgb(0,0,255)" stroke-width="1.874998" fill="none" d="M 0.000000 750.000000 L 79.326912 0.000000 " />
<path stroke-linejoin="round" stroke-linecap="round" stroke="rgb(255,0,0)" stroke-width="3.749996" fill="none" d="M 30.669138 460.037292 L 31.350464 470.257324 " />
<path stroke-linejoin="round" stroke-linecap="round" stroke="rgb(0,0,255)" stroke-width="1.874998" fill="none" d="M 0.000000 750.000000 L 78.947380 0.000000 " />
<path stroke-linejoin="round" stroke-linecap="round" stroke="rgb(255,0,0)" stroke-width="3.749996" fill="none" d="M 30.612230 459.183807 L 30.669138 460.037292 " />
<path stroke-linejoin="round" stroke-linecap="round" stroke="rgb(0,0,255)" stroke-width="1.874998" fill="none" d="M 0.000000 750.000000 L 65.789467 0.000000 " />
<path stroke-linejoin="round" stroke-linecap="round" stroke="rgb(255,0,0)" stroke-width="3.749996" fill="none" d="M 28.409086 426.136505 L 30.612230 459.183807 " />
<path stroke-linejoin="round" stroke-linecap="round" stroke="rgb(0,0,255)" stroke-width="1.874998" fill="none" d="M 0.000000 750.000000 L 54.435478 0.000000 " />
<path stroke-linejoin="round" stroke-linecap="round" stroke="rgb(255,0,0)" stroke-width="3.749996" fill="none" d="M 26.061773 390.926880 L 28.409086 426.136505 " />
<path stroke-linejoin="round" stroke-linecap="round" stroke="rgb(0,0,255)" stroke-width="1.874998" fill="none" d="M 0.000000 750.000000 L 44.776127 0.000000 " />
<path stroke-linejoin="round" stroke-linecap="round" stroke="rgb(255,0,0)" stroke-width="3.749996" fill="none" d="M 23.622036 354.330933 L 26.061750 390.926880 " />
<path stroke-linejoin="round" stroke-linecap="round" stroke="rgb(0,0,255)" stroke-width="1.874998" fill="none" d="M 0.000000 750.000000 L 38.961029 0.000000 " />
<path stroke-linejoin="round" stroke-linecap="round" stroke="rgb(255,0,0)" stroke-width="3.749996" fill="none" d="M 21.897800 328.467377 L 23.622036 354.330933 " />
<path stroke-linejoin="round" stroke-linecap="round" stroke="rgb(0,0,255)" stroke-width="1.874998" fill="none" d="M 0.000000 750.000000 L 37.974693 0.000000 " />
<path stroke-linejoin="round" stroke-linecap="round" stroke="rgb(255,0,0)" stroke-width="3.749996" fill="none" d="M 21.582729 323.741241 L 21.897800 328.467377 " />
<path stroke-linejoin="round" stroke-linecap="round" stroke="rgb(0,0,255)" stroke-width="1.874998" fill="none" d="M 0.000000 750.000000 L 35.928146 0.000000 " />
<path stroke-linejoin="round" stroke-linecap="round" stroke="rgb(255,0,0)" stroke-width="3.749996" fill="none" d="M 20.905920 313.589111 L 21.582729 323.741241 " />
<path stroke-linejoin="round" stroke-linecap="round" stroke="rgb(0,0,255)" stroke-width="1.874998" fill="none" d="M 0.000000 750.000000 L 30.523249 0.000000 " />
<path stroke-linejoin="round" stroke-linecap="round" stroke="rgb(255,0,0)" stroke-width="3.749996" fill="none" d="M 18.953047 284.296326 L 20.905897 313.589172 " />
<path stroke-linejoin="round" stroke-linecap="round" stroke="rgb(0,0,255)" stroke-width="1.874998" fill="none" d="M 0.000000 750.000000 L 24.725273 0.000000 " />
<path stroke-linejoin="round" stroke-linecap="round" stroke="rgb(255,0,0)" stroke-width="3.749996" fill="none" d="M 16.544111 248.162094 L 18.953070 284.296265 " />
<path stroke-linejoin="round" stroke-linecap="round" stroke="rgb(0,0,255)" stroke-width="1.874998" fill="none" d="M 0.000000 750.000000 L 19.531242 0.000000 " />
<path stroke-linejoin="round" stroke-linecap="round" stroke="rgb(255,0,0)" stroke-width="3.749996" fill="none" d="M 14.044941 210.674561 L 16.544111 248.162186 " />
<path stroke-linejoin="round" stroke-linecap="round" stroke="rgb(0,0,255)" stroke-width="1.874998" fill="none" d="M 0.000000 750.000000 L 17.688677 0.000000 " />
<path stroke-linejoin="round" stroke-linecap="round" stroke="rgb(255,0,0)" stroke-width="3.749996" fill="none" d="M 13.066202 195.993393 L 14.044941 210.674561 " />
<path stroke-linejoin="round" stroke-linecap="round" stroke="rgb(0,0,255)" stroke-width="1.874998" fill="none" d="M 0.000000 750.000000 L 13.513506 0.000000 " />
<path stroke-linejoin="round" stroke-linecap="round" stroke="rgb(255,0,0)" stroke-width="3.749996" fill="none" d="M 10.638289 159.574890 L 13.066202 195.993393 " />
<path stroke-linejoin="round" stroke-linecap="round" stroke="rgb(0,0,255)" stroke-width="1.874998" fill="none" d="M 0.000000 750.000000 L 13.333328 0.000000 " />
<path stroke-linejoin="round" stroke-linecap="round" stroke="rgb(255,0,0)" stroke-width="3.749996" fill="none" d="M 10.526307 157.895203 L 10.638289 159.574890 " />
<path stroke-linejoin="round" stroke-linecap="round" stroke="rgb(0,0,255)" stroke-width="1.874998" fill="none" d="M 0.000000 750.000000 L 13.100445 0.000000 " />
<path stroke-linejoin="round" stroke-linecap="round" stroke="rgb(255,0,0)" stroke-width="3.749996" fill="none" d="M 10.380618 155.709839 L 10.526307 157.895248 " />
<path stroke-linejoin="round" stroke-linecap="round" stroke="rgb(0,0,255)" stroke-width="1.874998" fill="none" d="M 0.000000 750.000000 L 12.820512 0.000000 " />
<path stroke-linejoin="round" stroke-linecap="round" stroke="rgb(255,0,0)" stroke-width="3.749996" fill="none" d="M 10.204062 153.061737 L 10.380618 155.709839 " />
<path stroke-linejoin="round" stroke-linecap="round" stroke="rgb(0,0,255)" stroke-width="1.874998" fill="none" d="M 0.000000 750.000000 L 12.658238 0.000000 " />
<path stroke-linejoin="round" stroke-linecap="round" stroke="rgb(255,0,0)" stroke-width="3.749996" fill="none" d="M 10.100998 151.515656 L 10.204062 153.061737 " />
<path stroke-linejoin="round" stroke-linecap="round" stroke="rgb(0,0,255)" stroke-width="1.874998" fill="none" d="M 0.000000 750.000000 L 12.396701 0.000000 " />
<path stroke-linejoin="round" stroke-linecap="round" stroke="rgb(255,0,0)" stroke-width="3.749996" fill="none" d="M 9.933763 149.007080 L 10.100998 151.515656 " />
<path stroke-linejoin="round" stroke-linecap="round" stroke="rgb(0,0,255)" stroke-width="1.874998" fill="none" d="M 0.000000 750.000000 L 9.183682 0.000000 " />
<path stroke-linejoin="round" stroke-linecap="round" stroke="rgb(255,0,0)" stroke-width="3.749996" fill="none" d="M 7.758625 116.379845 L 9.933763 149.007080 " />
<path stroke-linejoin="round" stroke-linecap="round" stroke="rgb(0,0,255)" stroke-width="1.874998" fill="none" d="M 0.000000 750.000000 L 5.882353 0.000000 " />
<path stroke-linejoin="round" stroke-linecap="round" stroke="rgb(255,0,0)" stroke-width="3.749996" fill="none" d="M 5.263165 78.947914 L 7.758625 116.379845 " />
<path stroke-linejoin="round" stroke-linecap="round" stroke="rgb(0,0,255)" stroke-width="1.874998" fill="none" d="M 0.000000 750.000000 L 2.830178 0.000000 " />
<path stroke-linejoin="round" stroke-linecap="round" stroke="rgb(255,0,0)" stroke-width="3.749996" fill="none" d="M 2.678566 40.179176 L 5.263165 78.947914 " />
<path stroke-linejoin="round" stroke-linecap="round" stroke="rgb(0,0,255)" stroke-width="1.874998" fill="none" d="M 0.000000 750.000000 L 0.000000 0.000000 " />
<path stroke-linejoin="round" stroke-linecap="round" stroke="rgb(255,0,0)" stroke-width="3.749996" fill="none" d="M 0.000000 0.000000 L 2.678566 40.179176 " />
<circle cx="93.581378" cy="747.470766" r="3.749996" style="fill:rgb(0,127,0);stroke-width:1" /><circle cx="91.052145" cy="744.941555" r="3.749996" style="fill:rgb(0,127,0);stroke-width:1" /><circle cx="88.522911" cy="742.412321" r="3.749996" style="fill:rgb(0,127,0);stroke-width:1" /><circle cx="86.499520" cy="740.388952" r="3.749996" style="fill:rgb(0,127,0);stroke-width:1" /><circle cx="84.096752" cy="737.986185" r="3.749996" style="fill:rgb(0,127,0);stroke-width:1" /><circle cx="81.693985" cy="735.583417" r="3.749996" style="fill:rgb(0,127,0);stroke-width:1" /><circle cx="79.291217" cy="733.180650" r="3.749996" style="fill:rgb(0,127,0);stroke-width:1" /><circle cx="77.803798" cy="731.693231" r="3.749996" style="fill:rgb(0,127,0);stroke-width:1" /><circle cx="76.888449" cy="730.777882" r="3.749996" style="fill:rgb(0,127,0);stroke-width:1" /><circle cx="74.485704" cy="728.375115" r="3.749996" style="fill:rgb(0,127,0);stroke-width:1" /><circle cx="72.082914" cy="725.972369" r="3.749996" style="fill:rgb(0,127,0);stroke-width:1" /><circle cx="69.680169" cy="723.569602" r="3.749996" style="fill:rgb(0,127,0);stroke-width:1" /><circle cx="68.650402" cy="722.539835" r="3.749996" style="fill:rgb(0,127,0);stroke-width:1" /><circle cx="67.277402" cy="721.166834" r="3.749996" style="fill:rgb(0,127,0);stroke-width:1" /><circle cx="66.362053" cy="720.251486" r="3.749996" style="fill:rgb(0,127,0);stroke-width:1" /><circle cx="64.874634" cy="718.764067" r="3.749996" style="fill:rgb(0,127,0);stroke-width:1" /><circle cx="62.471867" cy="716.361299" r="3.749996" style="fill:rgb(0,127,0);stroke-width:1" /><circle cx="60.069099" cy="713.958532" r="3.749996" style="fill:rgb(0,127,0);stroke-width:1" /><circle cx="57.666332" cy="711.555786" r="3.749996" style="fill:rgb(0,127,0);stroke-width:1" /><circle cx="55.263564" cy="709.153019" r="3.749996" style="fill:rgb(0,127,0);stroke-width:1" /><circle cx="54.920331" cy="708.809763" r="3.749996" style="fill:rgb(0,127,0);stroke-width:1" /><circle cx="52.860796" cy="706.750251" r="3.749996" style="fill:rgb(0,127,0);stroke-width:1" /><circle cx="50.458051" cy="704.347484" r="3.749996" style="fill:rgb(0,127,0);stroke-width:1" /><circle cx="48.055284" cy="701.944716" r="3.749996" style="fill:rgb(0,127,0);stroke-width:1" /><circle cx="46.568625" cy="698.529415" r="3.749996" style="fill:rgb(0,127,0);stroke-width:1" /><circle cx="46.232879" cy="693.493143" r="3.749996" style="fill:rgb(0,127,0);stroke-width:1" /><circle cx="45.863315" cy="687.949643" r="3.749996" style="fill:rgb(0,127,0);stroke-width:1" /><circle cx="45.535706" cy="683.035724" r="3.749996" style="fill:rgb(0,127,0);stroke-width:1" /><circle cx="45.454547" cy="681.818202" r="3.749996" style="fill:rgb(0,127,0);stroke-width:1" /><circle cx="43.436296" cy="651.544422" r="3.749996" style="fill:rgb(0,127,0);stroke-width:1" /><circle cx="41.666664" cy="625.000030" r="3.749996" style="fill:rgb(0,127,0);stroke-width:1" /><circle cx="40.996782" cy="614.951760" r="3.749996" style="fill:rgb(0,127,0);stroke-width:1" /><circle cx="38.844623" cy="582.669340" r="3.749996" style="fill:rgb(0,127,0);stroke-width:1" /><circle cx="36.585353" cy="548.780546" r="3.749996" style="fill:rgb(0,127,0);stroke-width:1" /><circle cx="34.232363" cy="513.485558" r="3.749996" style="fill:rgb(0,127,0);stroke-width:1" /><circle cx="33.834569" cy="507.518895" r="3.749996" style="fill:rgb(0,127,0);stroke-width:1" /><circle cx="31.609185" cy="474.138021" r="3.749996" style="fill:rgb(0,127,0);stroke-width:1" /><circle cx="31.468526" cy="472.028062" r="3.749996" style="fill:rgb(0,127,0);stroke-width:1" /><circle cx="31.350464" cy="470.257334" r="3.749996" style="fill:rgb(0,127,0);stroke-width:1" /><circle cx="30.669138" cy="460.037291" r="3.749996" style="fill:rgb(0,127,0);stroke-width:1" /><circle cx="30.612230" cy="459.183790" r="3.749996" style="fill:rgb(0,127,0);stroke-width:1" /><circle cx="28.409086" cy="426.136516" r="3.749996" style="fill:rgb(0,127,0);stroke-width:1" /><circle cx="26.061773" cy="390.926845" r="3.749996" style="fill:rgb(0,127,0);stroke-width:1" /><circle cx="23.622036" cy="354.330942" r="3.749996" style="fill:rgb(0,127,0);stroke-width:1" /><circle cx="21.897800" cy="328.467384" r="3.749996" style="fill:rgb(0,127,0);stroke-width:1" /><circle cx="21.582730" cy="323.741242" r="3.749996" style="fill:rgb(0,127,0);stroke-width:1" /><circle cx="20.905919" cy="313.589126" r="3.749996" style="fill:rgb(0,127,0);stroke-width:1" /><circle cx="18.953048" cy="284.296319" r="3.749996" style="fill:rgb(0,127,0);stroke-width:1" /><circle cx="16.544111" cy="248.162091" r="3.749996" style="fill:rgb(0,127,0);stroke-width:1" /><circle cx="14.044940" cy="210.674554" r="3.749996" style="fill:rgb(0,127,0);stroke-width:1" /><circle cx="13.066202" cy="195.993394" r="3.749996" style="fill:rgb(0,127,0);stroke-width:1" /><circle cx="10.638289" cy="159.574896" r="3.749996" style="fill:rgb(0,127,0);stroke-width:1" /><circle cx="10.526307" cy="157.895207" r="3.749996" style="fill:rgb(0,127,0);stroke-width:1" /><circle cx="10.380618" cy="155.709833" r="3.749996" style="fill:rgb(0,127,0);stroke-width:1" /><circle cx="10.204062" cy="153.061733" r="3.749996" style="fill:rgb(0,127,0);stroke-width:1" /><circle cx="10.100998" cy="151.515663" r="3.749996" style="fill:rgb(0,127,0);stroke-width:1" /><circle cx="9.933762" cy="149.007082" r="3.749996" style="fill:rgb(0,127,0);stroke-width:1" /><circle cx="7.758625" cy="116.379842" r="3.749996" style="fill:rgb(0,127,0);stroke-width:1" /><circle cx="5.263165" cy="78.947917" r="3.749996" style="fill:rgb(0,127,0);stroke-width:1" /><circle cx="2.678543" cy="40.179178" r="3.750008" style="fill:rgb(0,127,0);stroke-width:1" /><circle cx="750.000000" cy="750.000000" r="3.749996" style="fill:rgb(0,127,0);stroke-width:1" /><path stroke-linejoin="round" stroke-linecap="round" stroke="rgb(255,255,255)" stroke-width="3.749996" fill="none" d="M 0.000000 750.000000 L 750.000000 750.000000 M 0.000000 750.000000 L 0.000000 0.000000 " />

</svg>