<svg xmlns="http://www.w3.org/2000/svg" version="1.1" width = "750" height = "750" viewBox = "0 0 750 750"  shape-rendering="crispEdges">
<path stroke-linejoin="round" stroke-linecap="round" stroke="rgb(255,255,0)" stroke-width="3.749996" fill="none" d="M 124.999992 750.000000 L 0.000000 0.000000 " />
<path stroke-linejoin="round" stroke-linecap="round" stroke="rgb(63,63,63)" stroke-width="3.749996" fill="none" d="M 0.000000 0.000000 L 750.000000 750.000000 M 124.999992 750.000000 L 56.818172 0.000000 " />
<path stroke-linejoin="round" stroke-linecap="round" stroke="rgb(191,191,191)" stroke-width="3.749996" fill="none" d="M 0.000000 625.000000 L 124.999992 750.000000 M 0.000000 0.000000 L 68.181824 750.000000 " />
<path stroke-linejoin="round" stroke-linecap="round" stroke="rgb(0,0,255)" stroke-width="1.874998" fill="none" d="M 0.000000 750.000000 L 750.000000 729.729736 " />
<path stroke-linejoin="round" stroke-linecap="round" stroke="rgb(255,0,0)" stroke-width="3.749996" fill="none" d="M 124.693619 746.629883 L 124.999992 750.000000 " />
<path stroke-linejoin="round" stroke-linecap="round" stroke="rgb(0,0,255)" stroke-width="1.874998" fill="none" d="M 0.000000 750.000000 L 750.000000 708.333313 " />
<path stroke-linejoin="round" stroke-linecap="round" stroke="rgb(255,0,0)" stroke-width="3.749996" fill="none" d="M 121.323532 743.259766 L 124.693619 746.629883 " />
<path stroke-linejoin="round" stroke-linecap="round" stroke="rgb(0,0,255)" stroke-width="1.874998" fill="none" d="M 0.000000 750.000000 L 750.000000 689.189209 " />
<path stroke-linejoin="round" stroke-linecap="round" stroke="rgb(255,0,0)" stroke-width="3.749996" fill="none" d="M 118.458954 740.395203 L 121.323532 743.259766 " />
<path stroke-linejoin="round" stroke-linecap="round" stroke="rgb(0,0,255)" stroke-width="1.874998" fill="none" d="M 0.000000 750.000000 L 750.000000 666.666687 " />
<path stroke-linejoin="round" stroke-linecap="round" stroke="rgb(255,0,0)" stroke-width="3.749996" fill="none" d="M 115.257362 737.193604 L 118.458954 740.395203 " />
<path stroke-linejoin="round" stroke-linecap="round" stroke="rgb(0,0,255)" stroke-width="1.874998" fill="none" d="M 0.000000 750.000000 L 750.000000 642.857178 " />
<path stroke-linejoin="round" stroke-linecap="round" stroke="rgb(255,0,0)" stroke-width="3.749996" fill="none" d="M 112.055763 733.992065 L 115.257362 737.193604 " />
<path stroke-linejoin="round" stroke-linecap="round" stroke="rgb(0,0,255)" stroke-width="1.874998" fill="none" d="M 0.000000 750.000000 L 750.000000 617.647095 " />
<path stroke-linejoin="round" stroke-linecap="round" stroke="rgb(255,0,0)" stroke-width="3.749996" fill="none" d="M 108.854164 730.790466 L 112.055763 733.992065 " />
<path stroke-linejoin="round" stroke-linecap="round" stroke="rgb(0,0,255)" stroke-width="1.874998" fill="none" d="M 0.000000 750.000000 L 750.000000 600.000000 " />
<path stroke-linejoin="round" stroke-linecap="round" stroke="rgb(255,0,0)" stroke-width="3.749996" fill="none" d="M 106.719757 728.656067 L 108.854164 730.790466 " />
<path stroke-linejoin="round" stroke-linecap="round" stroke="rgb(0,0,255)" stroke-width="1.874998" fill="none" d="M 0.000000 750.000000 L 750.000000 590.909058 " />
<path stroke-linejoin="round" stroke-linecap="round" stroke="rgb(255,0,0)" stroke-width="3.749996" fill="none" d="M 105.652573 727.588867 L 106.719757 728.656067 " />
<path stroke-linejoin="round" stroke-linecap="round" stroke="rgb(0,0,255)" stroke-width="1.874998" fill="none" d="M 0.000000 750.000000 L 750.000000 562.500000 " />
<path stroke-linejoin="round" stroke-linecap="round" stroke="rgb(255,0,0)" stroke-width="3.749996" fill="none" d="M 102.450974 724.387207 L 105.652573 727.588867 " />
<path stroke-linejoin="round" stroke-linecap="round" stroke="rgb(0,0,255)" stroke-width="1.874998" fill="none" d="M 0.000000 750.000000 L 750.000000 314.516144 " />
<path stroke-linejoin="round" stroke-linecap="round" stroke="rgb(255,0,0)" stroke-width="3.749996" fill="none" d="M 99.525826 692.210815 L 102.450974 724.387207 " />
<path stroke-linejoin="round" stroke-linecap="round" stroke="rgb(0,0,255)" stroke-width="1.874998" fill="none" d="M 0.000000 750.000000 L 750.000000 93.750000 " />
<path stroke-linejoin="round" stroke-linecap="round" stroke="rgb(255,0,0)" stroke-width="3.749996" fill="none" d="M 97.058815 665.073547 L 99.525826 692.210815 " />
<path stroke-linejoin="round" stroke-linecap="round" stroke="rgb(0,0,255)" stroke-width="1.874998" fill="none" d="M 0.000000 750.000000 L 750.000000 49.999996 " />
<path stroke-linejoin="round" stroke-linecap="round" stroke="rgb(255,0,0)" stroke-width="3.749996" fill="none" d="M 96.584358 659.854614 L 97.058815 665.073547 " />
<path stroke-linejoin="round" stroke-linecap="round" stroke="rgb(0,0,255)" stroke-width="1.874998" fill="none" d="M 0.000000 750.000000 L 750.000000 48.387096 " />
<path stroke-linejoin="round" stroke-linecap="round" stroke="rgb(255,0,0)" stroke-width="3.749996" fill="none" d="M 96.566948 659.663208 L 96.584358 659.854614 " />
<path stroke-linejoin="round" stroke-linecap="round" stroke="rgb(0,0,255)" stroke-width="1.874998" fill="none" d="M 0.000000 750.000000 L 611.842102 0.000000 " />
<path stroke-linejoin="round" stroke-linecap="round" stroke="rgb(255,0,0)" stroke-width="3.749996" fill="none" d="M 94.273811 634.438538 L 96.566948 659.663208 " />
<path stroke-linejoin="round" stroke-linecap="round" stroke="rgb(0,0,255)" stroke-width="1.874998" fill="none" d="M 0.000000 750.000000 L 482.142853 0.000000 " />
<path stroke-linejoin="round" stroke-linecap="round" stroke="rgb(255,0,0)" stroke-width="3.749996" fill="none" d="M 91.797867 607.203308 L 94.273811 634.438538 " />
<path stroke-linejoin="round" stroke-linecap="round" stroke="rgb(0,0,255)" stroke-width="1.874998" fill="none" d="M 0.000000 750.000000 L 403.846161 0.000000 " />
<path stroke-linejoin="round" stroke-linecap="round" stroke="rgb(255,0,0)" stroke-width="3.749996" fill="none" d="M 89.644592 583.517151 L 91.797867 607.203308 " />
<path stroke-linejoin="round" stroke-linecap="round" stroke="rgb(0,0,255)" stroke-width="1.874998" fill="none" d="M 0.000000 750.000000 L 375.000000 0.000000 " />
<path stroke-linejoin="round" stroke-linecap="round" stroke="rgb(255,0,0)" stroke-width="3.749996" fill="none" d="M 88.659477 572.681030 L 89.644592 583.517151 " />
<path stroke-linejoin="round" stroke-linecap="round" stroke="rgb(0,0,255)" stroke-width="1.874998" fill="none" d="M 0.000000 750.000000 L 326.612915 0.000000 " />
<path stroke-linejoin="round" stroke-linecap="round" stroke="rgb(255,0,0)" stroke-width="3.749996" fill="none" d="M 86.683784 550.948364 L 88.659477 572.681030 " />
<path stroke-linejoin="round" stroke-linecap="round" stroke="rgb(0,0,255)" stroke-width="1.874998" fill="none" d="M 0.000000 750.000000 L 302.419342 0.000000 " />
<path stroke-linejoin="round" stroke-linecap="round" stroke="rgb(255,0,0)" stroke-width="3.749996" fill="none" d="M 85.502472 537.953857 L 86.683784 550.948364 " />
<path stroke-linejoin="round" stroke-linecap="round" stroke="rgb(0,0,255)" stroke-width="1.874998" fill="none" d="M 0.000000 750.000000 L 270.833344 0.000000 " />
<path stroke-linejoin="round" stroke-linecap="round" stroke="rgb(255,0,0)" stroke-width="3.749996" fill="none" d="M 83.706444 518.197510 L 85.502472 537.953857 " />
<path stroke-linejoin="round" stroke-linecap="round" stroke="rgb(0,0,255)" stroke-width="1.874998" fill="none" d="M 0.000000 750.000000 L 256.849304 0.000000 " />
<path stroke-linejoin="round" stroke-linecap="round" stroke="rgb(255,0,0)" stroke-width="3.749996" fill="none" d="M 82.799812 508.224548 L 83.706444 518.197510 " />
<path stroke-linejoin="round" stroke-linecap="round" stroke="rgb(0,0,255)" stroke-width="1.874998" fill="none" d="M 0.000000 750.000000 L 234.939758 0.000000 " />
<path stroke-linejoin="round" stroke-linecap="round" stroke="rgb(255,0,0)" stroke-width="3.749996" fill="none" d="M 81.211121 490.749084 L 82.799812 508.224548 " />
<path stroke-linejoin="round" stroke-linecap="round" stroke="rgb(0,0,255)" stroke-width="1.874998" fill="none" d="M 0.000000 750.000000 L 221.311478 0.000000 " />
<path stroke-linejoin="round" stroke-linecap="round" stroke="rgb(255,0,0)" stroke-width="3.749996" fill="none" d="M 80.101624 478.544525 L 81.211121 490.749084 " />
<path stroke-linejoin="round" stroke-linecap="round" stroke="rgb(0,0,255)" stroke-width="1.874998" fill="none" d="M 0.000000 750.000000 L 200.704224 0.000000 " />
<path stroke-linejoin="round" stroke-linecap="round" stroke="rgb(255,0,0)" stroke-width="3.749996" fill="none" d="M 78.210335 457.740387 L 80.101601 478.544586 " />
<path stroke-linejoin="round" stroke-linecap="round" stroke="rgb(0,0,255)" stroke-width="1.874998" fill="none" d="M 0.000000 750.000000 L 193.965530 0.000000 " />
<path stroke-linejoin="round" stroke-linecap="round" stroke="rgb(255,0,0)" stroke-width="3.749996" fill="none" d="M 76.123955 455.654022 L 78.210312 457.740387 " />
<path stroke-linejoin="round" stroke-linecap="round" stroke="rgb(0,0,255)" stroke-width="1.874998" fill="none" d="M 0.000000 750.000000 L 177.966095 0.000000 " />
<path stroke-linejoin="round" stroke-linecap="round" stroke="rgb(255,0,0)" stroke-width="3.749996" fill="none" d="M 71.049011 450.579102 L 76.123955 455.654083 " />
<path stroke-linejoin="round" stroke-linecap="round" stroke="rgb(0,0,255)" stroke-width="1.874998" fill="none" d="M 0.000000 750.000000 L 172.131149 0.000000 " />
<path stroke-linejoin="round" stroke-linecap="round" stroke="rgb(255,0,0)" stroke-width="3.749996" fill="none" d="M 69.154388 448.684479 L 71.049011 450.579102 " />
<path stroke-linejoin="round" stroke-linecap="round" stroke="rgb(0,0,255)" stroke-width="1.874998" fill="none" d="M 0.000000 750.000000 L 157.258041 0.000000 " />
<path stroke-linejoin="round" stroke-linecap="round" stroke="rgb(255,0,0)" stroke-width="3.749996" fill="none" d="M 64.214790 443.744843 L 69.154388 448.684479 " />
<path stroke-linejoin="round" stroke-linecap="round" stroke="rgb(0,0,255)" stroke-width="1.874998" fill="none" d="M 0.000000 750.000000 L 152.343750 0.000000 " />
<path stroke-linejoin="round" stroke-linecap="round" stroke="rgb(255,0,0)" stroke-width="3.749996" fill="none" d="M 62.546879 442.076904 L 64.214790 443.744843 " />
<path stroke-linejoin="round" stroke-linecap="round" stroke="rgb(0,0,255)" stroke-width="1.874998" fill="none" d="M 0.000000 750.000000 L 133.561646 0.000000 " />
<path stroke-linejoin="round" stroke-linecap="round" stroke="rgb(255,0,0)" stroke-width="3.749996" fill="none" d="M 59.940754 413.409637 L 62.546879 442.076904 " />
<path stroke-linejoin="round" stroke-linecap="round" stroke="rgb(0,0,255)" stroke-width="1.874998" fill="none" d="M 0.000000 750.000000 L 130.000015 0.000000 " />
<path stroke-linejoin="round" stroke-linecap="round" stroke="rgb(255,0,0)" stroke-width="3.749996" fill="none" d="M 59.390835 407.360535 L 59.940754 413.409637 " />
<path stroke-linejoin="round" stroke-linecap="round" stroke="rgb(0,0,255)" stroke-width="1.874998" fill="none" d="M 0.000000 750.000000 L 108.433754 0.000000 " />
<path stroke-linejoin="round" stroke-linecap="round" stroke="rgb(255,0,0)" stroke-width="3.749996" fill="none" d="M 55.587284 365.521332 L 59.390835 407.360535 " />
<path stroke-linejoin="round" stroke-linecap="round" stroke="rgb(0,0,255)" stroke-width="1.874998" fill="none" d="M 0.000000 750.000000 L 104.838699 0.000000 " />
<path stroke-linejoin="round" stroke-linecap="round" stroke="rgb(255,0,0)" stroke-width="3.749996" fill="none" d="M 54.861031 357.532623 L 55.587284 365.521332 " />
<path stroke-linejoin="round" stroke-linecap="round" stroke="rgb(0,0,255)" stroke-width="1.874998" fill="none" d="M 0.000000 750.000000 L 98.214294 0.000000 " />
<path stroke-linejoin="round" stroke-linecap="round" stroke="rgb(255,0,0)" stroke-width="3.749996" fill="none" d="M 53.440624 341.907990 L 54.861031 357.532623 " />
<path stroke-linejoin="round" stroke-linecap="round" stroke="rgb(0,0,255)" stroke-width="1.874998" fill="none" d="M 0.000000 750.000000 L 86.842102 0.000000 " />
<path stroke-linejoin="round" stroke-linecap="round" stroke="rgb(255,0,0)" stroke-width="3.749996" fill="none" d="M 50.719097 311.971344 L 53.440624 341.907990 " />
<path stroke-linejoin="round" stroke-linecap="round" stroke="rgb(0,0,255)" stroke-width="1.874998" fill="none" d="M 0.000000 750.000000 L 85.051552 0.000000 " />
<path stroke-linejoin="round" stroke-linecap="round" stroke="rgb(255,0,0)" stroke-width="3.749996" fill="none" d="M 50.253799 306.852875 L 50.719097 311.971313 " />
<path stroke-linejoin="round" stroke-linecap="round" stroke="rgb(0,0,255)" stroke-width="1.874998" fill="none" d="M 0.000000 750.000000 L 80.097084 0.000000 " />
<path stroke-linejoin="round" stroke-linecap="round" stroke="rgb(255,0,0)" stroke-width="3.749996" fill="none" d="M 48.907711 292.045990 L 50.253799 306.852875 " />
<path stroke-linejoin="round" stroke-linecap="round" stroke="rgb(0,0,255)" stroke-width="1.874998" fill="none" d="M 0.000000 750.000000 L 73.529404 0.000000 " />
<path stroke-linejoin="round" stroke-linecap="round" stroke="rgb(255,0,0)" stroke-width="3.749996" fill="none" d="M 46.978241 270.821899 L 48.907711 292.045990 " />
<path stroke-linejoin="round" stroke-linecap="round" stroke="rgb(0,0,255)" stroke-width="1.874998" fill="none" d="M 0.000000 750.000000 L 73.369568 0.000000 " />
<path stroke-linejoin="round" stroke-linecap="round" stroke="rgb(255,0,0)" stroke-width="3.749996" fill="none" d="M 46.885216 270.728821 L 46.978241 270.821899 " />
<path stroke-linejoin="round" stroke-linecap="round" stroke="rgb(0,0,255)" stroke-width="1.874998" fill="none" d="M 0.000000 750.000000 L 64.516136 0.000000 " />
<path stroke-linejoin="round" stroke-linecap="round" stroke="rgb(255,0,0)" stroke-width="3.749996" fill="none" d="M 41.675762 265.519348 L 46.885216 270.728821 " />
<path stroke-linejoin="round" stroke-linecap="round" stroke="rgb(0,0,255)" stroke-width="1.874998" fill="none" d="M 0.000000 750.000000 L 63.157887 0.000000 " />
<path stroke-linejoin="round" stroke-linecap="round" stroke="rgb(255,0,0)" stroke-width="3.749996" fill="none" d="M 40.866516 264.710114 L 41.675762 265.519348 " />
<path stroke-linejoin="round" stroke-linecap="round" stroke="rgb(0,0,255)" stroke-width="1.874998" fill="none" d="M 0.000000 750.000000 L 60.606056 0.000000 " />
<path stroke-linejoin="round" stroke-linecap="round" stroke="rgb(255,0,0)" stroke-width="3.749996" fill="none" d="M 39.338799 263.182373 L 40.866516 264.710144 " />
<path stroke-linejoin="round" stroke-linecap="round" stroke="rgb(0,0,255)" stroke-width="1.874998" fill="none" d="M 0.000000 750.000000 L 59.405945 0.000000 " />
<path stroke-linejoin="round" stroke-linecap="round" stroke="rgb(255,0,0)" stroke-width="3.749996" fill="none" d="M 38.616993 262.460541 L 39.338799 263.182373 " />
<path stroke-linejoin="round" stroke-linecap="round" stroke="rgb(0,0,255)" stroke-width="1.874998" fill="none" d="M 0.000000 750.000000 L 57.142853 0.000000 " />
<path stroke-linejoin="round" stroke-linecap="round" stroke="rgb(255,0,0)" stroke-width="3.749996" fill="none" d="M 37.250004 261.093597 L 38.616993 262.460541 " />
<path stroke-linejoin="round" stroke-linecap="round" stroke="rgb(0,0,255)" stroke-width="1.874998" fill="none" d="M 0.000000 750.000000 L 56.074753 0.000000 " />
<path stroke-linejoin="round" stroke-linecap="round" stroke="rgb(255,0,0)" stroke-width="3.749996" fill="none" d="M 36.602184 260.445770 L 37.250004 261.093597 " />
<path stroke-linejoin="round" stroke-linecap="round" stroke="rgb(0,0,255)" stroke-width="1.874998" fill="none" d="M 0.000000 750.000000 L 55.045856 0.000000 " />
<path stroke-linejoin="round" stroke-linecap="round" stroke="rgb(255,0,0)" stroke-width="3.749996" fill="none" d="M 35.976513 259.820099 L 36.602184 260.445770 " />
<path stroke-linejoin="round" stroke-linecap="round" stroke="rgb(0,0,255)" stroke-width="1.874998" fill="none" d="M 0.000000 750.000000 L 50.480782 0.000000 " />
<path stroke-linejoin="round" stroke-linecap="round" stroke="rgb(255,0,0)" stroke-width="3.749996" fill="none" d="M 33.181026 257.024658 L 35.976513 259.820099 " />
<path stroke-linejoin="round" stroke-linecap="round" stroke="rgb(0,0,255)" stroke-width="1.874998" fill="none" d="M 0.000000 750.000000 L 42.857140 0.000000 " />
<path stroke-linejoin="round" stroke-linecap="round" stroke="rgb(255,0,0)" stroke-width="3.749996" fill="none" d="M 28.440893 252.284470 L 33.181026 257.024658 " />
<path stroke-linejoin="round" stroke-linecap="round" stroke="rgb(0,0,255)" stroke-width="1.874998" fill="none" d="M 0.000000 750.000000 L 42.056076 0.000000 " />
<path stroke-linejoin="round" stroke-linecap="round" stroke="rgb(255,0,0)" stroke-width="3.749996" fill="none" d="M 27.937510 251.781113 L 28.440893 252.284470 " />
<path stroke-linejoin="round" stroke-linecap="round" stroke="rgb(0,0,255)" stroke-width="1.874998" fill="none" d="M 0.000000 750.000000 L 40.540539 0.000000 " />
<path stroke-linejoin="round" stroke-linecap="round" stroke="rgb(255,0,0)" stroke-width="3.749996" fill="none" d="M 26.982374 250.825974 L 27.937510 251.781113 " />
<path stroke-linejoin="round" stroke-linecap="round" stroke="rgb(0,0,255)" stroke-width="1.874998" fill="none" d="M 0.000000 750.000000 L 33.482151 0.000000 " />
<path stroke-linejoin="round" stroke-linecap="round" stroke="rgb(255,0,0)" stroke-width="3.749996" fill="none" d="M 22.485315 246.328888 L 26.982374 250.825974 " />
<path stroke-linejoin="round" stroke-linecap="round" stroke="rgb(0,0,255)" stroke-width="1.874998" fill="none" d="M 0.000000 750.000000 L 26.548683 0.000000 " />
<path stroke-linejoin="round" stroke-linecap="round" stroke="rgb(255,0,0)" stroke-width="3.749996" fill="none" d="M 19.108280 210.191086 L 22.485315 246.328888 " />
<path stroke-linejoin="round" stroke-linecap="round" stroke="rgb(0,0,255)" stroke-width="1.874998" fill="none" d="M 0.000000 750.000000 L 26.086964 0.000000 " />
<path stroke-linejoin="round" stroke-linecap="round" stroke="rgb(255,0,0)" stroke-width="3.749996" fill="none" d="M 18.867931 207.547180 L 19.108280 210.191086 " />
<path stroke-linejoin="round" stroke-linecap="round" stroke="rgb(0,0,255)" stroke-width="1.874998" fill="none" d="M 0.000000 750.000000 L 25.641024 0.000000 " />
<path stroke-linejoin="round" stroke-linecap="round" stroke="rgb(255,0,0)" stroke-width="3.749996" fill="none" d="M 18.633530 204.968918 L 18.867931 207.547180 " />
<path stroke-linejoin="round" stroke-linecap="round" stroke="rgb(0,0,255)" stroke-width="1.874998" fill="none" d="M 0.000000 750.000000 L 21.226421 0.000000 " />
<path stroke-linejoin="round" stroke-linecap="round" stroke="rgb(255,0,0)" stroke-width="3.749996" fill="none" d="M 16.187042 178.057556 L 18.633530 204.968918 " />
<path stroke-linejoin="round" stroke-linecap="round" stroke="rgb(0,0,255)" stroke-width="1.874998" fill="none" d="M 0.000000 750.000000 L 14.018700 0.000000 " />
<path stroke-linejoin="round" stroke-linecap="round" stroke="rgb(255,0,0)" stroke-width="3.749996" fill="none" d="M 11.627913 127.907036 L 16.187042 178.057617 " />
<path stroke-linejoin="round" stroke-linecap="round" stroke="rgb(0,0,255)" stroke-width="1.874998" fill="none" d="M 0.000000 750.000000 L 6.944440 0.000000 " />
<path stroke-linejoin="round" stroke-linecap="round" stroke="rgb(255,0,0)" stroke-width="3.749996" fill="none" d="M 6.302521 69.327835 L 11.627913 127.907036 " />
<path stroke-linejoin="round" stroke-linecap="round" stroke="rgb(0,0,255)" stroke-width="1.874998" fill="none" d="M 0.000000 750.000000 L 0.000000 0.000000 " />
<path stroke-linejoin="round" stroke-linecap="round" stroke="rgb(255,0,0)" stroke-width="3.749996" fill="none" d="M 0.000000 0.000000 L 6.302521 69.327835 " />
<circle cx="124.693617" cy="746.629894" r="3.749996" style="fill:rgb(0,127,0);stroke-width:1" /><circle cx="121.323533" cy="743.259810" r="3.749996" style="fill:rgb(0,127,0);stroke-width:1" /><circle cx="118.458956" cy="740.395211" r="3.749996" style="fill:rgb(0,127,0);stroke-width:1" /><circle cx="115.257360" cy="737.193637" r="3.749996" style="fill:rgb(0,127,0);stroke-width:1" /><circle cx="112.055764" cy="733.992040" r="3.749996" style="fill:rgb(0,127,0);stroke-width:1" /><circle cx="108.854167" cy="730.790444" r="3.749996" style="fill:rgb(0,127,0);stroke-width:1" /><circle cx="106.719755" cy="728.656054" r="3.749996" style="fill:rgb(0,127,0);stroke-width:1" /><circle cx="105.652571" cy="727.588847" r="3.749996" style="fill:rgb(0,127,0);stroke-width:1" /><circle cx="102.450974" cy="724.387251" r="3.749996" style="fill:rgb(0,127,0);stroke-width:1" /><circle cx="99.525824" cy="692.210801" r="3.749996" style="fill:rgb(0,127,0);stroke-width:1" /><circle cx="97.058818" cy="665.073551" r="3.749996" style="fill:rgb(0,127,0);stroke-width:1" /><circle cx="96.584357" cy="659.854598" r="3.749996" style="fill:rgb(0,127,0);stroke-width:1" /><circle cx="96.566945" cy="659.663178" r="3.749996" style="fill:rgb(0,127,0);stroke-width:1" /><circle cx="94.273813" cy="634.438545" r="3.749996" style="fill:rgb(0,127,0);stroke-width:1" /><circle cx="91.797866" cy="607.203305" r="3.749996" style="fill:rgb(0,127,0);stroke-width:1" /><circle cx="89.644589" cy="583.517186" r="3.749996" style="fill:rgb(0,127,0);stroke-width:1" /><circle cx="88.659480" cy="572.681017" r="3.749996" style="fill:rgb(0,127,0);stroke-width:1" /><circle cx="86.683787" cy="550.948340" r="3.749996" style="fill:rgb(0,127,0);stroke-width:1" /><circle cx="85.502476" cy="537.953854" r="3.749996" style="fill:rgb(0,127,0);stroke-width:1" /><circle cx="83.706446" cy="518.197518" r="3.749996" style="fill:rgb(0,127,0);stroke-width:1" /><circle cx="82.799815" cy="508.224562" r="3.749996" style="fill:rgb(0,127,0);stroke-width:1" /><circle cx="81.211120" cy="490.749087" r="3.749996" style="fill:rgb(0,127,0);stroke-width:1" /><circle cx="80.101624" cy="478.544533" r="3.749996" style="fill:rgb(0,127,0);stroke-width:1" /><circle cx="78.210331" cy="457.740365" r="3.749996" style="fill:rgb(0,127,0);stroke-width:1" /><circle cx="76.123953" cy="455.654025" r="3.749996" style="fill:rgb(0,127,0);stroke-width:1" /><circle cx="71.049012" cy="450.579107" r="3.749996" style="fill:rgb(0,127,0);stroke-width:1" /><circle cx="69.154389" cy="448.684484" r="3.749996" style="fill:rgb(0,127,0);stroke-width:1" /><circle cx="64.214788" cy="443.744838" r="3.749996" style="fill:rgb(0,127,0);stroke-width:1" /><circle cx="62.546879" cy="442.076923" r="3.749996" style="fill:rgb(0,127,0);stroke-width:1" /><circle cx="59.940755" cy="413.409649" r="3.749996" style="fill:rgb(0,127,0);stroke-width:1" /><circle cx="59.390835" cy="407.360525" r="3.749996" style="fill:rgb(0,127,0);stroke-width:1" /><circle cx="55.587284" cy="365.521312" r="3.749996" style="fill:rgb(0,127,0);stroke-width:1" /><circle cx="54.861031" cy="357.532621" r="3.749996" style="fill:rgb(0,127,0);stroke-width:1" /><circle cx="53.440623" cy="341.908009" r="3.749996" style="fill:rgb(0,127,0);stroke-width:1" /><circle cx="50.719097" cy="311.971335" r="3.749996" style="fill:rgb(0,127,0);stroke-width:1" /><circle cx="50.253801" cy="306.852875" r="3.749996" style="fill:rgb(0,127,0);stroke-width:1" /><circle cx="48.907712" cy="292.045981" r="3.749996" style="fill:rgb(0,127,0);stroke-width:1" /><circle cx="46.978243" cy="270.821895" r="3.749996" style="fill:rgb(0,127,0);stroke-width:1" /><circle cx="46.885215" cy="270.728823" r="3.749996" style="fill:rgb(0,127,0);stroke-width:1" /><circle cx="41.675761" cy="265.519347" r="3.749996" style="fill:rgb(0,127,0);stroke-width:1" /><circle cx="40.866517" cy="264.710125" r="3.749996" style="fill:rgb(0,127,0);stroke-width:1" /><circle cx="39.338797" cy="263.182372" r="3.749996" style="fill:rgb(0,127,0);stroke-width:1" /><circle cx="38.616993" cy="262.460556" r="3.749996" style="fill:rgb(0,127,0);stroke-width:1" /><circle cx="37.250005" cy="261.093590" r="3.749996" style="fill:rgb(0,127,0);stroke-width:1" /><circle cx="36.602184" cy="260.445748" r="3.749996" style="fill:rgb(0,127,0);stroke-width:1" /><circle cx="35.976514" cy="259.820100" r="3.749996" style="fill:rgb(0,127,0);stroke-width:1" /><circle cx="33.181027" cy="257.024646" r="3.749996" style="fill:rgb(0,127,0);stroke-width:1" /><circle cx="28.440893" cy="252.284467" r="3.749996" style="fill:rgb(0,127,0);stroke-width:1" /><circle cx="27.937509" cy="251.781106" r="3.749996" style="fill:rgb(0,127,0);stroke-width:1" /><circle cx="26.982374" cy="250.825971" r="3.749996" style="fill:rgb(0,127,0);stroke-width:1" /><circle cx="22.485316" cy="246.328890" r="3.749996" style="fill:rgb(0,127,0);stroke-width:1" /><circle cx="19.108281" cy="210.191075" r="3.749996" style="fill:rgb(0,127,0);stroke-width:1" /><circle cx="18.867932" cy="207.547188" r="3.749996" style="fill:rgb(0,127,0);stroke-width:1" /><circle cx="18.633530" cy="204.968926" r="3.749996" style="fill:rgb(0,127,0);stroke-width:1" /><circle cx="16.187042" cy="178.057551" r="3.749996" style="fill:rgb(0,127,0);stroke-width:1" /><circle cx="11.627913" cy="127.907038" r="3.749996" style="fill:rgb(0,127,0);stroke-width:1" /><circle cx="6.302521" cy="69.327839" r="3.749996" style="fill:rgb(0,127,0);stroke-width:1" /><circle cx="750.000000" cy="750.000000" r="3.749996" style="fill:rgb(0,127,0);stroke-width:1" /><path stroke-linejoin="round" stroke-linecap="round" stroke="rgb(255,255,255)" stroke-width="3.749996" fill="none" d="M 0.000000 750.000000 L 750.000000 750.000000 M 0.000000 750.000000 L 0.000000 0.000000 " />

</svg>