<svg xmlns="http://www.w3.org/2000/svg" version="1.1" width = "750" height = "750" viewBox = "0 0 750 750"  shape-rendering="crispEdges">
<path stroke-linejoin="round" stroke-linecap="round" stroke="rgb(255,255,0)" stroke-width="3.749996" fill="none" d="M 74.999992 750.000000 L 0.000000 0.000000 " />
<path stroke-linejoin="round" stroke-linecap="round" stroke="rgb(63,63,63)" stroke-width="3.749996" fill="none" d="M 0.000000 0.000000 L 750.000000 750.000000 M 74.999992 750.000000 L 35.526306 0.000000 " />
<path stroke-linejoin="round" stroke-linecap="round" stroke="rgb(191,191,191)" stroke-width="3.749996" fill="none" d="M 0.000000 675.000000 L 74.999992 750.000000 M 0.000000 0.000000 L 39.473690 750.000000 " />
<path stroke-linejoin="round" stroke-linecap="round" stroke="rgb(0,0,255)" stroke-width="1.874998" fill="none" d="M 0.000000 750.000000 L 750.000000 732.142822 " />
<path stroke-linejoin="round" stroke-linecap="round" stroke="rgb(255,0,0)" stroke-width="3.749996" fill="none" d="M 74.906143 748.216492 L 74.999992 750.000000 " />
<path stroke-linejoin="round" stroke-linecap="round" stroke="rgb(0,0,255)" stroke-width="1.874998" fill="none" d="M 0.000000 750.000000 L 750.000000 548.780518 " />
<path stroke-linejoin="round" stroke-linecap="round" stroke="rgb(255,0,0)" stroke-width="3.749996" fill="none" d="M 73.666092 730.235901 L 74.906143 748.216492 " />
<path stroke-linejoin="round" stroke-linecap="round" stroke="rgb(0,0,255)" stroke-width="1.874998" fill="none" d="M 0.000000 750.000000 L 750.000000 375.000000 " />
<path stroke-linejoin="round" stroke-linecap="round" stroke="rgb(255,0,0)" stroke-width="3.749996" fill="none" d="M 72.528160 713.735901 L 73.666092 730.235901 " />
<path stroke-linejoin="round" stroke-linecap="round" stroke="rgb(0,0,255)" stroke-width="1.874998" fill="none" d="M 0.000000 750.000000 L 750.000000 347.560944 " />
<path stroke-linejoin="round" stroke-linecap="round" stroke="rgb(255,0,0)" stroke-width="3.749996" fill="none" d="M 72.351692 711.177185 L 72.528160 713.735901 " />
<path stroke-linejoin="round" stroke-linecap="round" stroke="rgb(0,0,255)" stroke-width="1.874998" fill="none" d="M 0.000000 750.000000 L 750.000000 149.999985 " />
<path stroke-linejoin="round" stroke-linecap="round" stroke="rgb(255,0,0)" stroke-width="3.749996" fill="none" d="M 71.106033 693.115173 L 72.351692 711.177185 " />
<path stroke-linejoin="round" stroke-linecap="round" stroke="rgb(0,0,255)" stroke-width="1.874998" fill="none" d="M 0.000000 750.000000 L 750.000000 146.341461 " />
<path stroke-linejoin="round" stroke-linecap="round" stroke="rgb(255,0,0)" stroke-width="3.749996" fill="none" d="M 71.083366 692.786560 L 71.106033 693.115173 " />
<path stroke-linejoin="round" stroke-linecap="round" stroke="rgb(0,0,255)" stroke-width="1.874998" fill="none" d="M 0.000000 750.000000 L 750.000000 145.833313 " />
<path stroke-linejoin="round" stroke-linecap="round" stroke="rgb(255,0,0)" stroke-width="3.749996" fill="none" d="M 71.075745 692.744568 L 71.083366 692.786560 " />
<path stroke-linejoin="round" stroke-linecap="round" stroke="rgb(0,0,255)" stroke-width="1.874998" fill="none" d="M 0.000000 750.000000 L 750.000000 107.142853 " />
<path stroke-linejoin="round" stroke-linecap="round" stroke="rgb(255,0,0)" stroke-width="3.749996" fill="none" d="M 70.498955 689.572327 L 71.075745 692.744568 " />
<path stroke-linejoin="round" stroke-linecap="round" stroke="rgb(0,0,255)" stroke-width="1.874998" fill="none" d="M 0.000000 750.000000 L 750.000000 66.176491 " />
<path stroke-linejoin="round" stroke-linecap="round" stroke="rgb(255,0,0)" stroke-width="3.749996" fill="none" d="M 69.898392 686.269104 L 70.498955 689.572327 " />
<path stroke-linejoin="round" stroke-linecap="round" stroke="rgb(0,0,255)" stroke-width="1.874998" fill="none" d="M 0.000000 750.000000 L 750.000000 64.285713 " />
<path stroke-linejoin="round" stroke-linecap="round" stroke="rgb(255,0,0)" stroke-width="3.749996" fill="none" d="M 69.870918 686.117981 L 69.898392 686.269104 " />
<path stroke-linejoin="round" stroke-linecap="round" stroke="rgb(0,0,255)" stroke-width="1.874998" fill="none" d="M 0.000000 750.000000 L 750.000000 22.058846 " />
<path stroke-linejoin="round" stroke-linecap="round" stroke="rgb(255,0,0)" stroke-width="3.749996" fill="none" d="M 69.262955 682.774170 L 69.870918 686.117981 " />
<path stroke-linejoin="round" stroke-linecap="round" stroke="rgb(0,0,255)" stroke-width="1.874998" fill="none" d="M 0.000000 750.000000 L 727.941223 0.000000 " />
<path stroke-linejoin="round" stroke-linecap="round" stroke="rgb(255,0,0)" stroke-width="3.749996" fill="none" d="M 68.629593 679.290710 L 69.262955 682.774170 " />
<path stroke-linejoin="round" stroke-linecap="round" stroke="rgb(0,0,255)" stroke-width="1.874998" fill="none" d="M 0.000000 750.000000 L 685.714294 0.000000 " />
<path stroke-linejoin="round" stroke-linecap="round" stroke="rgb(255,0,0)" stroke-width="3.749996" fill="none" d="M 67.969208 675.658691 L 68.629593 679.290710 " />
<path stroke-linejoin="round" stroke-linecap="round" stroke="rgb(0,0,255)" stroke-width="1.874998" fill="none" d="M 0.000000 750.000000 L 645.833374 0.000000 " />
<path stroke-linejoin="round" stroke-linecap="round" stroke="rgb(255,0,0)" stroke-width="3.749996" fill="none" d="M 67.280060 671.868347 L 67.969208 675.658691 " />
<path stroke-linejoin="round" stroke-linecap="round" stroke="rgb(0,0,255)" stroke-width="1.874998" fill="none" d="M 0.000000 750.000000 L 608.108093 0.000000 " />
<path stroke-linejoin="round" stroke-linecap="round" stroke="rgb(255,0,0)" stroke-width="3.749996" fill="none" d="M 66.560181 667.909119 L 67.280060 671.868347 " />
<path stroke-linejoin="round" stroke-linecap="round" stroke="rgb(0,0,255)" stroke-width="1.874998" fill="none" d="M 0.000000 750.000000 L 576.923096 0.000000 " />
<path stroke-linejoin="round" stroke-linecap="round" stroke="rgb(255,0,0)" stroke-width="3.749996" fill="none" d="M 65.907639 664.320068 L 66.560181 667.909119 " />
<path stroke-linejoin="round" stroke-linecap="round" stroke="rgb(0,0,255)" stroke-width="1.874998" fill="none" d="M 0.000000 750.000000 L 572.368408 0.000000 " />
<path stroke-linejoin="round" stroke-linecap="round" stroke="rgb(255,0,0)" stroke-width="3.749996" fill="none" d="M 65.807526 663.769409 L 65.907639 664.320068 " />
<path stroke-linejoin="round" stroke-linecap="round" stroke="rgb(0,0,255)" stroke-width="1.874998" fill="none" d="M 0.000000 750.000000 L 543.750000 0.000000 " />
<path stroke-linejoin="round" stroke-linecap="round" stroke="rgb(255,0,0)" stroke-width="3.749996" fill="none" d="M 65.147797 660.140991 L 65.807526 663.769409 " />
<path stroke-linejoin="round" stroke-linecap="round" stroke="rgb(0,0,255)" stroke-width="1.874998" fill="none" d="M 0.000000 750.000000 L 538.461487 0.000000 " />
<path stroke-linejoin="round" stroke-linecap="round" stroke="rgb(255,0,0)" stroke-width="3.749996" fill="none" d="M 65.019768 659.436707 L 65.147797 660.140991 " />
<path stroke-linejoin="round" stroke-linecap="round" stroke="rgb(0,0,255)" stroke-width="1.874998" fill="none" d="M 0.000000 750.000000 L 506.250000 0.000000 " />
<path stroke-linejoin="round" stroke-linecap="round" stroke="rgb(255,0,0)" stroke-width="3.749996" fill="none" d="M 64.194382 654.897156 L 65.019768 659.436707 " />
<path stroke-linejoin="round" stroke-linecap="round" stroke="rgb(0,0,255)" stroke-width="1.874998" fill="none" d="M 0.000000 750.000000 L 475.609741 0.000000 " />
<path stroke-linejoin="round" stroke-linecap="round" stroke="rgb(255,0,0)" stroke-width="3.749996" fill="none" d="M 63.328655 650.135620 L 64.194382 654.897156 " />
<path stroke-linejoin="round" stroke-linecap="round" stroke="rgb(0,0,255)" stroke-width="1.874998" fill="none" d="M 0.000000 750.000000 L 446.428558 0.000000 " />
<path stroke-linejoin="round" stroke-linecap="round" stroke="rgb(255,0,0)" stroke-width="3.749996" fill="none" d="M 62.419495 645.135254 L 63.328655 650.135620 " />
<path stroke-linejoin="round" stroke-linecap="round" stroke="rgb(0,0,255)" stroke-width="1.874998" fill="none" d="M 0.000000 750.000000 L 418.604675 0.000000 " />
<path stroke-linejoin="round" stroke-linecap="round" stroke="rgb(255,0,0)" stroke-width="3.749996" fill="none" d="M 61.463581 639.877747 L 62.419495 645.135254 " />
<path stroke-linejoin="round" stroke-linecap="round" stroke="rgb(0,0,255)" stroke-width="1.874998" fill="none" d="M 0.000000 750.000000 L 392.045441 0.000000 " />
<path stroke-linejoin="round" stroke-linecap="round" stroke="rgb(255,0,0)" stroke-width="3.749996" fill="none" d="M 60.457214 634.342712 L 61.463581 639.877747 " />
<path stroke-linejoin="round" stroke-linecap="round" stroke="rgb(0,0,255)" stroke-width="1.874998" fill="none" d="M 0.000000 750.000000 L 366.666656 0.000000 " />
<path stroke-linejoin="round" stroke-linecap="round" stroke="rgb(255,0,0)" stroke-width="3.749996" fill="none" d="M 59.396290 628.507629 L 60.457214 634.342712 " />
<path stroke-linejoin="round" stroke-linecap="round" stroke="rgb(0,0,255)" stroke-width="1.874998" fill="none" d="M 0.000000 750.000000 L 351.063812 0.000000 " />
<path stroke-linejoin="round" stroke-linecap="round" stroke="rgb(255,0,0)" stroke-width="3.749996" fill="none" d="M 58.689194 624.618530 L 59.396290 628.507629 " />
<path stroke-linejoin="round" stroke-linecap="round" stroke="rgb(0,0,255)" stroke-width="1.874998" fill="none" d="M 0.000000 750.000000 L 328.124969 0.000000 " />
<path stroke-linejoin="round" stroke-linecap="round" stroke="rgb(255,0,0)" stroke-width="3.749996" fill="none" d="M 57.563381 618.426575 L 58.689194 624.618530 " />
<path stroke-linejoin="round" stroke-linecap="round" stroke="rgb(0,0,255)" stroke-width="1.874998" fill="none" d="M 0.000000 750.000000 L 306.122437 0.000000 " />
<path stroke-linejoin="round" stroke-linecap="round" stroke="rgb(255,0,0)" stroke-width="3.749996" fill="none" d="M 56.373840 611.884094 L 57.563381 618.426575 " />
<path stroke-linejoin="round" stroke-linecap="round" stroke="rgb(0,0,255)" stroke-width="1.874998" fill="none" d="M 0.000000 750.000000 L 294.117645 0.000000 " />
<path stroke-linejoin="round" stroke-linecap="round" stroke="rgb(255,0,0)" stroke-width="3.749996" fill="none" d="M 55.673538 608.032471 L 56.373840 611.884094 " />
<path stroke-linejoin="round" stroke-linecap="round" stroke="rgb(0,0,255)" stroke-width="1.874998" fill="none" d="M 0.000000 750.000000 L 274.038452 0.000000 " />
<path stroke-linejoin="round" stroke-linecap="round" stroke="rgb(255,0,0)" stroke-width="3.749996" fill="none" d="M 54.410645 601.086609 L 55.673538 608.032471 " />
<path stroke-linejoin="round" stroke-linecap="round" stroke="rgb(0,0,255)" stroke-width="1.874998" fill="none" d="M 0.000000 750.000000 L 263.888916 0.000000 " />
<path stroke-linejoin="round" stroke-linecap="round" stroke="rgb(255,0,0)" stroke-width="3.749996" fill="none" d="M 53.724087 597.310486 L 54.410645 601.086609 " />
<path stroke-linejoin="round" stroke-linecap="round" stroke="rgb(0,0,255)" stroke-width="1.874998" fill="none" d="M 0.000000 750.000000 L 245.454529 0.000000 " />
<path stroke-linejoin="round" stroke-linecap="round" stroke="rgb(255,0,0)" stroke-width="3.749996" fill="none" d="M 52.383743 589.938538 L 53.724087 597.310486 " />
<path stroke-linejoin="round" stroke-linecap="round" stroke="rgb(0,0,255)" stroke-width="1.874998" fill="none" d="M 0.000000 750.000000 L 236.842102 0.000000 " />
<path stroke-linejoin="round" stroke-linecap="round" stroke="rgb(255,0,0)" stroke-width="3.749996" fill="none" d="M 51.712139 586.244873 L 52.383743 589.938538 " />
<path stroke-linejoin="round" stroke-linecap="round" stroke="rgb(0,0,255)" stroke-width="1.874998" fill="none" d="M 0.000000 750.000000 L 228.813568 0.000000 " />
<path stroke-linejoin="round" stroke-linecap="round" stroke="rgb(255,0,0)" stroke-width="3.749996" fill="none" d="M 51.057571 582.644653 L 51.712139 586.244873 " />
<path stroke-linejoin="round" stroke-linecap="round" stroke="rgb(0,0,255)" stroke-width="1.874998" fill="none" d="M 0.000000 750.000000 L 221.311478 0.000000 " />
<path stroke-linejoin="round" stroke-linecap="round" stroke="rgb(255,0,0)" stroke-width="3.749996" fill="none" d="M 50.419338 579.134460 L 51.057571 582.644653 " />
<path stroke-linejoin="round" stroke-linecap="round" stroke="rgb(0,0,255)" stroke-width="1.874998" fill="none" d="M 0.000000 750.000000 L 205.645172 0.000000 " />
<path stroke-linejoin="round" stroke-linecap="round" stroke="rgb(255,0,0)" stroke-width="3.749996" fill="none" d="M 48.996292 571.307617 L 50.419338 579.134460 " />
<path stroke-linejoin="round" stroke-linecap="round" stroke="rgb(0,0,255)" stroke-width="1.874998" fill="none" d="M 0.000000 750.000000 L 190.476196 0.000000 " />
<path stroke-linejoin="round" stroke-linecap="round" stroke="rgb(255,0,0)" stroke-width="3.749996" fill="none" d="M 47.488422 563.014343 L 48.996292 571.307617 " />
<path stroke-linejoin="round" stroke-linecap="round" stroke="rgb(0,0,255)" stroke-width="1.874998" fill="none" d="M 0.000000 750.000000 L 184.615372 0.000000 " />
<path stroke-linejoin="round" stroke-linecap="round" stroke="rgb(255,0,0)" stroke-width="3.749996" fill="none" d="M 46.867668 559.600159 L 47.488422 563.014343 " />
<path stroke-linejoin="round" stroke-linecap="round" stroke="rgb(0,0,255)" stroke-width="1.874998" fill="none" d="M 0.000000 750.000000 L 179.104462 0.000000 " />
<path stroke-linejoin="round" stroke-linecap="round" stroke="rgb(255,0,0)" stroke-width="3.749996" fill="none" d="M 46.262920 556.274048 L 46.867645 559.600159 " />
<path stroke-linejoin="round" stroke-linecap="round" stroke="rgb(0,0,255)" stroke-width="1.874998" fill="none" d="M 0.000000 750.000000 L 165.441177 0.000000 " />
<path stroke-linejoin="round" stroke-linecap="round" stroke="rgb(255,0,0)" stroke-width="3.749996" fill="none" d="M 44.668301 547.503662 L 46.262920 556.274048 " />
<path stroke-linejoin="round" stroke-linecap="round" stroke="rgb(0,0,255)" stroke-width="1.874998" fill="none" d="M 0.000000 750.000000 L 152.173920 0.000000 " />
<path stroke-linejoin="round" stroke-linecap="round" stroke="rgb(255,0,0)" stroke-width="3.749996" fill="none" d="M 42.975380 538.192749 L 44.668301 547.503662 " />
<path stroke-linejoin="round" stroke-linecap="round" stroke="rgb(0,0,255)" stroke-width="1.874998" fill="none" d="M 0.000000 750.000000 L 147.887299 0.000000 " />
<path stroke-linejoin="round" stroke-linecap="round" stroke="rgb(255,0,0)" stroke-width="3.749996" fill="none" d="M 42.394638 534.998596 L 42.975380 538.192749 " />
<path stroke-linejoin="round" stroke-linecap="round" stroke="rgb(0,0,255)" stroke-width="1.874998" fill="none" d="M 0.000000 750.000000 L 143.835602 0.000000 " />
<path stroke-linejoin="round" stroke-linecap="round" stroke="rgb(255,0,0)" stroke-width="3.749996" fill="none" d="M 41.829384 531.889648 L 42.394638 534.998535 " />
<path stroke-linejoin="round" stroke-linecap="round" stroke="rgb(0,0,255)" stroke-width="1.874998" fill="none" d="M 0.000000 750.000000 L 135.542175 0.000000 " />
<path stroke-linejoin="round" stroke-linecap="round" stroke="rgb(255,0,0)" stroke-width="3.749996" fill="none" d="M 41.163212 522.230225 L 41.829384 531.889648 " />
<path stroke-linejoin="round" stroke-linecap="round" stroke="rgb(0,0,255)" stroke-width="1.874998" fill="none" d="M 0.000000 750.000000 L 131.756775 0.000000 " />
<path stroke-linejoin="round" stroke-linecap="round" stroke="rgb(255,0,0)" stroke-width="3.749996" fill="none" d="M 40.578537 519.014465 L 41.163212 522.230164 " />
<path stroke-linejoin="round" stroke-linecap="round" stroke="rgb(0,0,255)" stroke-width="1.874998" fill="none" d="M 0.000000 750.000000 L 128.289474 0.000000 " />
<path stroke-linejoin="round" stroke-linecap="round" stroke="rgb(255,0,0)" stroke-width="3.749996" fill="none" d="M 40.028328 515.988281 L 40.578537 519.014465 " />
<path stroke-linejoin="round" stroke-linecap="round" stroke="rgb(0,0,255)" stroke-width="1.874998" fill="none" d="M 0.000000 750.000000 L 116.883118 0.000000 " />
<path stroke-linejoin="round" stroke-linecap="round" stroke="rgb(255,0,0)" stroke-width="3.749996" fill="none" d="M 38.111954 505.448242 L 40.028328 515.988220 " />
<path stroke-linejoin="round" stroke-linecap="round" stroke="rgb(0,0,255)" stroke-width="1.874998" fill="none" d="M 0.000000 750.000000 L 113.924057 0.000000 " />
<path stroke-linejoin="round" stroke-linecap="round" stroke="rgb(255,0,0)" stroke-width="3.749996" fill="none" d="M 37.586288 502.556976 L 38.111977 505.448212 " />
<path stroke-linejoin="round" stroke-linecap="round" stroke="rgb(0,0,255)" stroke-width="1.874998" fill="none" d="M 0.000000 750.000000 L 111.111115 0.000000 " />
<path stroke-linejoin="round" stroke-linecap="round" stroke="rgb(255,0,0)" stroke-width="3.749996" fill="none" d="M 37.074902 499.744354 L 37.586288 502.556976 " />
<path stroke-linejoin="round" stroke-linecap="round" stroke="rgb(0,0,255)" stroke-width="1.874998" fill="none" d="M 0.000000 750.000000 L 108.433754 0.000000 " />
<path stroke-linejoin="round" stroke-linecap="round" stroke="rgb(255,0,0)" stroke-width="3.749996" fill="none" d="M 36.577263 497.007294 L 37.074902 499.744354 " />
<path stroke-linejoin="round" stroke-linecap="round" stroke="rgb(0,0,255)" stroke-width="1.874998" fill="none" d="M 0.000000 750.000000 L 98.214294 0.000000 " />
<path stroke-linejoin="round" stroke-linecap="round" stroke="rgb(255,0,0)" stroke-width="3.749996" fill="none" d="M 34.573318 485.985657 L 36.577263 497.007294 " />
<path stroke-linejoin="round" stroke-linecap="round" stroke="rgb(0,0,255)" stroke-width="1.874998" fill="none" d="M 0.000000 750.000000 L 95.930237 0.000000 " />
<path stroke-linejoin="round" stroke-linecap="round" stroke="rgb(255,0,0)" stroke-width="3.749996" fill="none" d="M 34.101315 483.389679 L 34.573318 485.985687 " />
<path stroke-linejoin="round" stroke-linecap="round" stroke="rgb(0,0,255)" stroke-width="1.874998" fill="none" d="M 0.000000 750.000000 L 86.206894 0.000000 " />
<path stroke-linejoin="round" stroke-linecap="round" stroke="rgb(255,0,0)" stroke-width="3.749996" fill="none" d="M 31.983644 471.742371 L 34.101315 483.389679 " />
<path stroke-linejoin="round" stroke-linecap="round" stroke="rgb(0,0,255)" stroke-width="1.874998" fill="none" d="M 0.000000 750.000000 L 84.269669 0.000000 " />
<path stroke-linejoin="round" stroke-linecap="round" stroke="rgb(255,0,0)" stroke-width="3.749996" fill="none" d="M 31.539425 469.299194 L 31.983644 471.742371 " />
<path stroke-linejoin="round" stroke-linecap="round" stroke="rgb(0,0,255)" stroke-width="1.874998" fill="none" d="M 0.000000 750.000000 L 82.417580 0.000000 " />
<path stroke-linejoin="round" stroke-linecap="round" stroke="rgb(255,0,0)" stroke-width="3.749996" fill="none" d="M 31.107367 466.922913 L 31.539425 469.299194 " />
<path stroke-linejoin="round" stroke-linecap="round" stroke="rgb(0,0,255)" stroke-width="1.874998" fill="none" d="M 0.000000 750.000000 L 80.645149 0.000000 " />
<path stroke-linejoin="round" stroke-linecap="round" stroke="rgb(255,0,0)" stroke-width="3.749996" fill="none" d="M 30.686996 464.610901 L 31.107367 466.922913 " />
<path stroke-linejoin="round" stroke-linecap="round" stroke="rgb(0,0,255)" stroke-width="1.874998" fill="none" d="M 0.000000 750.000000 L 78.947380 0.000000 " />
<path stroke-linejoin="round" stroke-linecap="round" stroke="rgb(255,0,0)" stroke-width="3.749996" fill="none" d="M 30.277847 462.360535 L 30.686996 464.610901 " />
<path stroke-linejoin="round" stroke-linecap="round" stroke="rgb(0,0,255)" stroke-width="1.874998" fill="none" d="M 0.000000 750.000000 L 77.319595 0.000000 " />
<path stroke-linejoin="round" stroke-linecap="round" stroke="rgb(255,0,0)" stroke-width="3.749996" fill="none" d="M 29.879452 460.169342 L 30.277847 462.360535 " />
<path stroke-linejoin="round" stroke-linecap="round" stroke="rgb(0,0,255)" stroke-width="1.874998" fill="none" d="M 0.000000 750.000000 L 71.808502 0.000000 " />
<path stroke-linejoin="round" stroke-linecap="round" stroke="rgb(255,0,0)" stroke-width="3.749996" fill="none" d="M 28.484388 452.496490 L 29.879452 460.169342 " />
<path stroke-linejoin="round" stroke-linecap="round" stroke="rgb(0,0,255)" stroke-width="1.874998" fill="none" d="M 0.000000 750.000000 L 70.312500 0.000000 " />
<path stroke-linejoin="round" stroke-linecap="round" stroke="rgb(255,0,0)" stroke-width="3.749996" fill="none" d="M 28.092831 450.343018 L 28.484388 452.496490 " />
<path stroke-linejoin="round" stroke-linecap="round" stroke="rgb(0,0,255)" stroke-width="1.874998" fill="none" d="M 0.000000 750.000000 L 68.877541 0.000000 " />
<path stroke-linejoin="round" stroke-linecap="round" stroke="rgb(255,0,0)" stroke-width="3.749996" fill="none" d="M 27.711912 448.247986 L 28.092831 450.343018 " />
<path stroke-linejoin="round" stroke-linecap="round" stroke="rgb(0,0,255)" stroke-width="1.874998" fill="none" d="M 0.000000 750.000000 L 65.934059 0.000000 " />
<path stroke-linejoin="round" stroke-linecap="round" stroke="rgb(255,0,0)" stroke-width="3.749996" fill="none" d="M 26.913643 443.857391 L 27.711912 448.247986 " />
<path stroke-linejoin="round" stroke-linecap="round" stroke="rgb(0,0,255)" stroke-width="1.874998" fill="none" d="M 0.000000 750.000000 L 64.516136 0.000000 " />
<path stroke-linejoin="round" stroke-linecap="round" stroke="rgb(255,0,0)" stroke-width="3.749996" fill="none" d="M 26.520744 441.696442 L 26.913643 443.857391 " />
<path stroke-linejoin="round" stroke-linecap="round" stroke="rgb(0,0,255)" stroke-width="1.874998" fill="none" d="M 0.000000 750.000000 L 61.855675 0.000000 " />
<path stroke-linejoin="round" stroke-linecap="round" stroke="rgb(255,0,0)" stroke-width="3.749996" fill="none" d="M 25.768385 437.558411 L 26.520744 441.696442 " />
<path stroke-linejoin="round" stroke-linecap="round" stroke="rgb(0,0,255)" stroke-width="1.874998" fill="none" d="M 0.000000 750.000000 L 60.606056 0.000000 " />
<path stroke-linejoin="round" stroke-linecap="round" stroke="rgb(255,0,0)" stroke-width="3.749996" fill="none" d="M 25.407986 435.576263 L 25.768385 437.558411 " />
<path stroke-linejoin="round" stroke-linecap="round" stroke="rgb(0,0,255)" stroke-width="1.874998" fill="none" d="M 0.000000 750.000000 L 59.405945 0.000000 " />
<path stroke-linejoin="round" stroke-linecap="round" stroke="rgb(255,0,0)" stroke-width="3.749996" fill="none" d="M 25.057531 433.648773 L 25.407986 435.576263 " />
<path stroke-linejoin="round" stroke-linecap="round" stroke="rgb(0,0,255)" stroke-width="1.874998" fill="none" d="M 0.000000 750.000000 L 53.571426 0.000000 " />
<path stroke-linejoin="round" stroke-linecap="round" stroke="rgb(255,0,0)" stroke-width="3.749996" fill="none" d="M 23.290649 423.930969 L 25.057531 433.648773 " />
<path stroke-linejoin="round" stroke-linecap="round" stroke="rgb(0,0,255)" stroke-width="1.874998" fill="none" d="M 0.000000 750.000000 L 52.499996 0.000000 " />
<path stroke-linejoin="round" stroke-linecap="round" stroke="rgb(255,0,0)" stroke-width="3.749996" fill="none" d="M 22.954323 422.081116 L 23.290649 423.930969 " />
<path stroke-linejoin="round" stroke-linecap="round" stroke="rgb(0,0,255)" stroke-width="1.874998" fill="none" d="M 0.000000 750.000000 L 51.470585 0.000000 " />
<path stroke-linejoin="round" stroke-linecap="round" stroke="rgb(255,0,0)" stroke-width="3.749996" fill="none" d="M 22.627562 420.283997 L 22.954323 422.081116 " />
<path stroke-linejoin="round" stroke-linecap="round" stroke="rgb(0,0,255)" stroke-width="1.874998" fill="none" d="M 0.000000 750.000000 L 43.689320 0.000000 " />
<path stroke-linejoin="round" stroke-linecap="round" stroke="rgb(255,0,0)" stroke-width="3.749996" fill="none" d="M 20.811840 392.730072 L 22.627562 420.283997 " />
<path stroke-linejoin="round" stroke-linecap="round" stroke="rgb(0,0,255)" stroke-width="1.874998" fill="none" d="M 0.000000 750.000000 L 36.057697 0.000000 " />
<path stroke-linejoin="round" stroke-linecap="round" stroke="rgb(255,0,0)" stroke-width="3.749996" fill="none" d="M 18.861607 357.678772 L 20.811840 392.730072 " />
<path stroke-linejoin="round" stroke-linecap="round" stroke="rgb(0,0,255)" stroke-width="1.874998" fill="none" d="M 0.000000 750.000000 L 28.571426 0.000000 " />
<path stroke-linejoin="round" stroke-linecap="round" stroke="rgb(255,0,0)" stroke-width="3.749996" fill="none" d="M 16.578421 314.816315 L 18.861607 357.678772 " />
<path stroke-linejoin="round" stroke-linecap="round" stroke="rgb(0,0,255)" stroke-width="1.874998" fill="none" d="M 0.000000 750.000000 L 28.037376 0.000000 " />
<path stroke-linejoin="round" stroke-linecap="round" stroke="rgb(255,0,0)" stroke-width="3.749996" fill="none" d="M 16.394400 311.449585 L 16.578421 314.816345 " />
<path stroke-linejoin="round" stroke-linecap="round" stroke="rgb(0,0,255)" stroke-width="1.874998" fill="none" d="M 0.000000 750.000000 L 27.027033 0.000000 " />
<path stroke-linejoin="round" stroke-linecap="round" stroke="rgb(255,0,0)" stroke-width="3.749996" fill="none" d="M 16.043007 304.806335 L 16.394400 311.449585 " />
<path stroke-linejoin="round" stroke-linecap="round" stroke="rgb(0,0,255)" stroke-width="1.874998" fill="none" d="M 0.000000 750.000000 L 26.548683 0.000000 " />
<path stroke-linejoin="round" stroke-linecap="round" stroke="rgb(255,0,0)" stroke-width="3.749996" fill="none" d="M 15.873067 301.585663 L 16.043007 304.806335 " />
<path stroke-linejoin="round" stroke-linecap="round" stroke="rgb(0,0,255)" stroke-width="1.874998" fill="none" d="M 0.000000 750.000000 L 26.086964 0.000000 " />
<path stroke-linejoin="round" stroke-linecap="round" stroke="rgb(255,0,0)" stroke-width="3.749996" fill="none" d="M 15.706815 298.428864 L 15.873067 301.585663 " />
<path stroke-linejoin="round" stroke-linecap="round" stroke="rgb(0,0,255)" stroke-width="1.874998" fill="none" d="M 0.000000 750.000000 L 25.641024 0.000000 " />
<path stroke-linejoin="round" stroke-linecap="round" stroke="rgb(255,0,0)" stroke-width="3.749996" fill="none" d="M 15.544049 295.336609 L 15.706815 298.428864 " />
<path stroke-linejoin="round" stroke-linecap="round" stroke="rgb(0,0,255)" stroke-width="1.874998" fill="none" d="M 0.000000 750.000000 L 25.210083 0.000000 " />
<path stroke-linejoin="round" stroke-linecap="round" stroke="rgb(255,0,0)" stroke-width="3.749996" fill="none" d="M 15.384615 292.307678 L 15.544049 295.336609 " />
<path stroke-linejoin="round" stroke-linecap="round" stroke="rgb(0,0,255)" stroke-width="1.874998" fill="none" d="M 0.000000 750.000000 L 24.793379 0.000000 " />
<path stroke-linejoin="round" stroke-linecap="round" stroke="rgb(255,0,0)" stroke-width="3.749996" fill="none" d="M 15.228420 289.340179 L 15.384615 292.307678 " />
<path stroke-linejoin="round" stroke-linecap="round" stroke="rgb(0,0,255)" stroke-width="1.874998" fill="none" d="M 0.000000 750.000000 L 24.390244 0.000000 " />
<path stroke-linejoin="round" stroke-linecap="round" stroke="rgb(255,0,0)" stroke-width="3.749996" fill="none" d="M 15.075378 286.432251 L 15.228420 289.340179 " />
<path stroke-linejoin="round" stroke-linecap="round" stroke="rgb(0,0,255)" stroke-width="1.874998" fill="none" d="M 0.000000 750.000000 L 24.000004 0.000000 " />
<path stroke-linejoin="round" stroke-linecap="round" stroke="rgb(255,0,0)" stroke-width="3.749996" fill="none" d="M 14.925376 283.582214 L 15.075378 286.432251 " />
<path stroke-linejoin="round" stroke-linecap="round" stroke="rgb(0,0,255)" stroke-width="1.874998" fill="none" d="M 0.000000 750.000000 L 23.622036 0.000000 " />
<path stroke-linejoin="round" stroke-linecap="round" stroke="rgb(255,0,0)" stroke-width="3.749996" fill="none" d="M 14.778323 280.788269 L 14.925376 283.582214 " />
<path stroke-linejoin="round" stroke-linecap="round" stroke="rgb(0,0,255)" stroke-width="1.874998" fill="none" d="M 0.000000 750.000000 L 23.255825 0.000000 " />
<path stroke-linejoin="round" stroke-linecap="round" stroke="rgb(255,0,0)" stroke-width="3.749996" fill="none" d="M 14.634132 278.048859 L 14.778323 280.788269 " />
<path stroke-linejoin="round" stroke-linecap="round" stroke="rgb(0,0,255)" stroke-width="1.874998" fill="none" d="M 0.000000 750.000000 L 22.900768 0.000000 " />
<path stroke-linejoin="round" stroke-linecap="round" stroke="rgb(255,0,0)" stroke-width="3.749996" fill="none" d="M 14.492758 275.362366 L 14.634132 278.048859 " />
<path stroke-linejoin="round" stroke-linecap="round" stroke="rgb(0,0,255)" stroke-width="1.874998" fill="none" d="M 0.000000 750.000000 L 22.556395 0.000000 " />
<path stroke-linejoin="round" stroke-linecap="round" stroke="rgb(255,0,0)" stroke-width="3.749996" fill="none" d="M 14.354065 272.727295 L 14.492758 275.362366 " />
<path stroke-linejoin="round" stroke-linecap="round" stroke="rgb(0,0,255)" stroke-width="1.874998" fill="none" d="M 0.000000 750.000000 L 22.222214 0.000000 " />
<path stroke-linejoin="round" stroke-linecap="round" stroke="rgb(255,0,0)" stroke-width="3.749996" fill="none" d="M 14.218010 270.142212 L 14.354065 272.727295 " />
<path stroke-linejoin="round" stroke-linecap="round" stroke="rgb(0,0,255)" stroke-width="1.874998" fill="none" d="M 0.000000 750.000000 L 21.897800 0.000000 " />
<path stroke-linejoin="round" stroke-linecap="round" stroke="rgb(255,0,0)" stroke-width="3.749996" fill="none" d="M 14.084503 267.605652 L 14.218010 270.142212 " />
<path stroke-linejoin="round" stroke-linecap="round" stroke="rgb(0,0,255)" stroke-width="1.874998" fill="none" d="M 0.000000 750.000000 L 21.582729 0.000000 " />
<path stroke-linejoin="round" stroke-linecap="round" stroke="rgb(255,0,0)" stroke-width="3.749996" fill="none" d="M 13.953477 265.116302 L 14.084503 267.605652 " />
<path stroke-linejoin="round" stroke-linecap="round" stroke="rgb(0,0,255)" stroke-width="1.874998" fill="none" d="M 0.000000 750.000000 L 21.276600 0.000000 " />
<path stroke-linejoin="round" stroke-linecap="round" stroke="rgb(255,0,0)" stroke-width="3.749996" fill="none" d="M 13.824887 262.672852 L 13.953477 265.116302 " />
<path stroke-linejoin="round" stroke-linecap="round" stroke="rgb(0,0,255)" stroke-width="1.874998" fill="none" d="M 0.000000 750.000000 L 20.979033 0.000000 " />
<path stroke-linejoin="round" stroke-linecap="round" stroke="rgb(255,0,0)" stroke-width="3.749996" fill="none" d="M 13.698623 260.274017 L 13.824887 262.672882 " />
<path stroke-linejoin="round" stroke-linecap="round" stroke="rgb(0,0,255)" stroke-width="1.874998" fill="none" d="M 0.000000 750.000000 L 20.689667 0.000000 " />
<path stroke-linejoin="round" stroke-linecap="round" stroke="rgb(255,0,0)" stroke-width="3.749996" fill="none" d="M 13.574659 257.918610 L 13.698623 260.274017 " />
<path stroke-linejoin="round" stroke-linecap="round" stroke="rgb(0,0,255)" stroke-width="1.874998" fill="none" d="M 0.000000 750.000000 L 20.408169 0.000000 " />
<path stroke-linejoin="round" stroke-linecap="round" stroke="rgb(255,0,0)" stroke-width="3.749996" fill="none" d="M 13.452909 255.605392 L 13.574659 257.918610 " />
<path stroke-linejoin="round" stroke-linecap="round" stroke="rgb(0,0,255)" stroke-width="1.874998" fill="none" d="M 0.000000 750.000000 L 16.304344 0.000000 " />
<path stroke-linejoin="round" stroke-linecap="round" stroke="rgb(255,0,0)" stroke-width="3.749996" fill="none" d="M 11.538461 219.230759 L 13.452909 255.605392 " />
<path stroke-linejoin="round" stroke-linecap="round" stroke="rgb(0,0,255)" stroke-width="1.874998" fill="none" d="M 0.000000 750.000000 L 10.791376 0.000000 " />
<path stroke-linejoin="round" stroke-linecap="round" stroke="rgb(255,0,0)" stroke-width="3.749996" fill="none" d="M 8.474573 161.016983 L 11.538461 219.230759 " />
<path stroke-linejoin="round" stroke-linecap="round" stroke="rgb(0,0,255)" stroke-width="1.874998" fill="none" d="M 0.000000 750.000000 L 5.357154 0.000000 " />
<path stroke-linejoin="round" stroke-linecap="round" stroke="rgb(255,0,0)" stroke-width="3.749996" fill="none" d="M 4.716978 89.622681 L 8.474573 161.016983 " />
<path stroke-linejoin="round" stroke-linecap="round" stroke="rgb(0,0,255)" stroke-width="1.874998" fill="none" d="M 0.000000 750.000000 L 0.000000 0.000000 " />
<path stroke-linejoin="round" stroke-linecap="round" stroke="rgb(255,0,0)" stroke-width="3.749996" fill="none" d="M 0.000000 0.000000 L 4.716978 89.622681 " />
<circle cx="74.906141" cy="748.216510" r="3.749996" style="fill:rgb(0,127,0);stroke-width:1" /><circle cx="73.666088" cy="730.235919" r="3.749996" style="fill:rgb(0,127,0);stroke-width:1" /><circle cx="72.528161" cy="713.735908" r="3.749996" style="fill:rgb(0,127,0);stroke-width:1" /><circle cx="72.351694" cy="711.177148" r="3.749996" style="fill:rgb(0,127,0);stroke-width:1" /><circle cx="71.106032" cy="693.115175" r="3.749996" style="fill:rgb(0,127,0);stroke-width:1" /><circle cx="71.083367" cy="692.786559" r="3.749996" style="fill:rgb(0,127,0);stroke-width:1" /><circle cx="71.075745" cy="692.744538" r="3.749996" style="fill:rgb(0,127,0);stroke-width:1" /><circle cx="70.498958" cy="689.572312" r="3.749996" style="fill:rgb(0,127,0);stroke-width:1" /><circle cx="69.898389" cy="686.269127" r="3.749996" style="fill:rgb(0,127,0);stroke-width:1" /><circle cx="69.870919" cy="686.118029" r="3.749996" style="fill:rgb(0,127,0);stroke-width:1" /><circle cx="69.262952" cy="682.774208" r="3.749996" style="fill:rgb(0,127,0);stroke-width:1" /><circle cx="68.629593" cy="679.290734" r="3.749996" style="fill:rgb(0,127,0);stroke-width:1" /><circle cx="67.969210" cy="675.658688" r="3.749996" style="fill:rgb(0,127,0);stroke-width:1" /><circle cx="67.280062" cy="671.868324" r="3.749996" style="fill:rgb(0,127,0);stroke-width:1" /><circle cx="66.560179" cy="667.909093" r="3.749996" style="fill:rgb(0,127,0);stroke-width:1" /><circle cx="65.907642" cy="664.320074" r="3.749996" style="fill:rgb(0,127,0);stroke-width:1" /><circle cx="65.807529" cy="663.769439" r="3.749996" style="fill:rgb(0,127,0);stroke-width:1" /><circle cx="65.147795" cy="660.140969" r="3.749996" style="fill:rgb(0,127,0);stroke-width:1" /><circle cx="65.019764" cy="659.436755" r="3.749996" style="fill:rgb(0,127,0);stroke-width:1" /><circle cx="64.194381" cy="654.897206" r="3.749996" style="fill:rgb(0,127,0);stroke-width:1" /><circle cx="63.328654" cy="650.135592" r="3.749996" style="fill:rgb(0,127,0);stroke-width:1" /><circle cx="62.419496" cy="645.135239" r="3.749996" style="fill:rgb(0,127,0);stroke-width:1" /><circle cx="61.463580" cy="639.877751" r="3.749996" style="fill:rgb(0,127,0);stroke-width:1" /><circle cx="60.457215" cy="634.342723" r="3.749996" style="fill:rgb(0,127,0);stroke-width:1" /><circle cx="59.396289" cy="628.507599" r="3.749996" style="fill:rgb(0,127,0);stroke-width:1" /><circle cx="58.689192" cy="624.618553" r="3.749996" style="fill:rgb(0,127,0);stroke-width:1" /><circle cx="57.563379" cy="618.426584" r="3.749996" style="fill:rgb(0,127,0);stroke-width:1" /><circle cx="56.373842" cy="611.884117" r="3.749996" style="fill:rgb(0,127,0);stroke-width:1" /><circle cx="55.673540" cy="608.032487" r="3.749996" style="fill:rgb(0,127,0);stroke-width:1" /><circle cx="54.410644" cy="601.086639" r="3.749996" style="fill:rgb(0,127,0);stroke-width:1" /><circle cx="53.724088" cy="597.310491" r="3.749996" style="fill:rgb(0,127,0);stroke-width:1" /><circle cx="52.383743" cy="589.938574" r="3.749996" style="fill:rgb(0,127,0);stroke-width:1" /><circle cx="51.712140" cy="586.244859" r="3.749996" style="fill:rgb(0,127,0);stroke-width:1" /><circle cx="51.057570" cy="582.644641" r="3.749996" style="fill:rgb(0,127,0);stroke-width:1" /><circle cx="50.419338" cy="579.134434" r="3.749996" style="fill:rgb(0,127,0);stroke-width:1" /><circle cx="48.996292" cy="571.307614" r="3.749996" style="fill:rgb(0,127,0);stroke-width:1" /><circle cx="47.488421" cy="563.014314" r="3.749996" style="fill:rgb(0,127,0);stroke-width:1" /><circle cx="46.867669" cy="559.600152" r="3.749996" style="fill:rgb(0,127,0);stroke-width:1" /><circle cx="46.262920" cy="556.274034" r="3.749996" style="fill:rgb(0,127,0);stroke-width:1" /><circle cx="44.668302" cy="547.503702" r="3.749996" style="fill:rgb(0,127,0);stroke-width:1" /><circle cx="42.975381" cy="538.192727" r="3.749996" style="fill:rgb(0,127,0);stroke-width:1" /><circle cx="42.394638" cy="534.998596" r="3.749996" style="fill:rgb(0,127,0);stroke-width:1" /><circle cx="41.829385" cy="531.889625" r="3.749996" style="fill:rgb(0,127,0);stroke-width:1" /><circle cx="41.163214" cy="522.230186" r="3.749996" style="fill:rgb(0,127,0);stroke-width:1" /><circle cx="40.578537" cy="519.014474" r="3.749996" style="fill:rgb(0,127,0);stroke-width:1" /><circle cx="40.028326" cy="515.988238" r="3.749996" style="fill:rgb(0,127,0);stroke-width:1" /><circle cx="38.111955" cy="505.448230" r="3.749996" style="fill:rgb(0,127,0);stroke-width:1" /><circle cx="37.586287" cy="502.556976" r="3.749996" style="fill:rgb(0,127,0);stroke-width:1" /><circle cx="37.074901" cy="499.744378" r="3.749996" style="fill:rgb(0,127,0);stroke-width:1" /><circle cx="36.577262" cy="497.007307" r="3.749996" style="fill:rgb(0,127,0);stroke-width:1" /><circle cx="34.573317" cy="485.985640" r="3.749996" style="fill:rgb(0,127,0);stroke-width:1" /><circle cx="34.101315" cy="483.389676" r="3.749996" style="fill:rgb(0,127,0);stroke-width:1" /><circle cx="31.983644" cy="471.742384" r="3.749996" style="fill:rgb(0,127,0);stroke-width:1" /><circle cx="31.539425" cy="469.299193" r="3.749996" style="fill:rgb(0,127,0);stroke-width:1" /><circle cx="31.107366" cy="466.922935" r="3.749996" style="fill:rgb(0,127,0);stroke-width:1" /><circle cx="30.686997" cy="464.610904" r="3.749996" style="fill:rgb(0,127,0);stroke-width:1" /><circle cx="30.277848" cy="462.360531" r="3.749996" style="fill:rgb(0,127,0);stroke-width:1" /><circle cx="29.879451" cy="460.169362" r="3.749996" style="fill:rgb(0,127,0);stroke-width:1" /><circle cx="28.484389" cy="452.496473" r="3.749996" style="fill:rgb(0,127,0);stroke-width:1" /><circle cx="28.092831" cy="450.343039" r="3.749996" style="fill:rgb(0,127,0);stroke-width:1" /><circle cx="27.711913" cy="448.247982" r="3.749996" style="fill:rgb(0,127,0);stroke-width:1" /><circle cx="26.913643" cy="443.857385" r="3.749996" style="fill:rgb(0,127,0);stroke-width:1" /><circle cx="26.520744" cy="441.696418" r="3.749996" style="fill:rgb(0,127,0);stroke-width:1" /><circle cx="25.768384" cy="437.558413" r="3.749996" style="fill:rgb(0,127,0);stroke-width:1" /><circle cx="25.407985" cy="435.576260" r="3.749996" style="fill:rgb(0,127,0);stroke-width:1" /><circle cx="25.057532" cy="433.648791" r="3.749996" style="fill:rgb(0,127,0);stroke-width:1" /><circle cx="23.290649" cy="423.930969" r="3.749996" style="fill:rgb(0,127,0);stroke-width:1" /><circle cx="22.954322" cy="422.081139" r="3.749996" style="fill:rgb(0,127,0);stroke-width:1" /><circle cx="22.627562" cy="420.284020" r="3.749996" style="fill:rgb(0,127,0);stroke-width:1" /><circle cx="20.811841" cy="392.730081" r="3.749996" style="fill:rgb(0,127,0);stroke-width:1" /><circle cx="18.861607" cy="357.678794" r="3.749996" style="fill:rgb(0,127,0);stroke-width:1" /><circle cx="16.578421" cy="314.816309" r="3.749996" style="fill:rgb(0,127,0);stroke-width:1" /><circle cx="16.394399" cy="311.449600" r="3.749996" style="fill:rgb(0,127,0);stroke-width:1" /><circle cx="16.043007" cy="304.806339" r="3.749996" style="fill:rgb(0,127,0);stroke-width:1" /><circle cx="15.873067" cy="301.585648" r="3.749996" style="fill:rgb(0,127,0);stroke-width:1" /><circle cx="15.706815" cy="298.428867" r="3.749996" style="fill:rgb(0,127,0);stroke-width:1" /><circle cx="15.544049" cy="295.336604" r="3.749996" style="fill:rgb(0,127,0);stroke-width:1" /><circle cx="15.384614" cy="292.307675" r="3.749996" style="fill:rgb(0,127,0);stroke-width:1" /><circle cx="15.228420" cy="289.340185" r="3.749996" style="fill:rgb(0,127,0);stroke-width:1" /><circle cx="15.075378" cy="286.432240" r="3.749996" style="fill:rgb(0,127,0);stroke-width:1" /><circle cx="14.925376" cy="283.582198" r="3.749996" style="fill:rgb(0,127,0);stroke-width:1" /><circle cx="14.778323" cy="280.788269" r="3.749996" style="fill:rgb(0,127,0);stroke-width:1" /><circle cx="14.634132" cy="278.048873" r="3.749996" style="fill:rgb(0,127,0);stroke-width:1" /><circle cx="14.492758" cy="275.362372" r="3.749996" style="fill:rgb(0,127,0);stroke-width:1" /><circle cx="14.354065" cy="272.727303" r="3.749996" style="fill:rgb(0,127,0);stroke-width:1" /><circle cx="14.218010" cy="270.142224" r="3.749996" style="fill:rgb(0,127,0);stroke-width:1" /><circle cx="14.084503" cy="267.605636" r="3.749996" style="fill:rgb(0,127,0);stroke-width:1" /><circle cx="13.953477" cy="265.116300" r="3.749996" style="fill:rgb(0,127,0);stroke-width:1" /><circle cx="13.824888" cy="262.672842" r="3.749996" style="fill:rgb(0,127,0);stroke-width:1" /><circle cx="13.698623" cy="260.274019" r="3.749996" style="fill:rgb(0,127,0);stroke-width:1" /><circle cx="13.574660" cy="257.918604" r="3.749996" style="fill:rgb(0,127,0);stroke-width:1" /><circle cx="13.452910" cy="255.605400" r="3.749996" style="fill:rgb(0,127,0);stroke-width:1" /><circle cx="11.538461" cy="219.230745" r="3.749996" style="fill:rgb(0,127,0);stroke-width:1" /><circle cx="8.474573" cy="161.016986" r="3.749996" style="fill:rgb(0,127,0);stroke-width:1" /><circle cx="4.716977" cy="89.622684" r="3.749996" style="fill:rgb(0,127,0);stroke-width:1" /><circle cx="750.000000" cy="750.000000" r="3.749996" style="fill:rgb(0,127,0);stroke-width:1" /><path stroke-linejoin="round" stroke-linecap="round" stroke="rgb(255,255,255)" stroke-width="3.749996" fill="none" d="M 0.000000 750.000000 L 750.000000 750.000000 M 0.000000 750.000000 L 0.000000 0.000000 " />

</svg>