<svg xmlns="http://www.w3.org/2000/svg" version="1.1" width = "750" height = "750" viewBox = "0 0 750 750"  shape-rendering="crispEdges">
<path stroke-linejoin="round" stroke-linecap="round" stroke="rgb(255,255,0)" stroke-width="3.749996" fill="none" d="M 249.999985 750.000000 L 0.000000 0.000000 " />
<path stroke-linejoin="round" stroke-linecap="round" stroke="rgb(63,63,63)" stroke-width="3.749996" fill="none" d="M 0.000000 0.000000 L 750.000000 750.000000 M 249.999985 750.000000 L 99.999992 0.000000 " />
<path stroke-linejoin="round" stroke-linecap="round" stroke="rgb(191,191,191)" stroke-width="3.749996" fill="none" d="M 0.000000 500.000000 L 249.999985 750.000000 M 0.000000 0.000000 L 150.000015 750.000000 " />
<path stroke-linejoin="round" stroke-linecap="round" stroke="rgb(0,0,255)" stroke-width="1.874998" fill="none" d="M 0.000000 750.000000 L 750.000000 729.729736 " />
<path stroke-linejoin="round" stroke-linecap="round" stroke="rgb(255,0,0)" stroke-width="3.749996" fill="none" d="M 248.655930 743.279541 L 249.999985 750.000000 " />
<path stroke-linejoin="round" stroke-linecap="round" stroke="rgb(0,0,255)" stroke-width="1.874998" fill="none" d="M 0.000000 750.000000 L 750.000000 708.333313 " />
<path stroke-linejoin="round" stroke-linecap="round" stroke="rgb(255,0,0)" stroke-width="3.749996" fill="none" d="M 245.204865 736.377502 L 248.655930 743.279541 " />
<path stroke-linejoin="round" stroke-linecap="round" stroke="rgb(0,0,255)" stroke-width="1.874998" fill="none" d="M 0.000000 750.000000 L 750.000000 689.189209 " />
<path stroke-linejoin="round" stroke-linecap="round" stroke="rgb(255,0,0)" stroke-width="3.749996" fill="none" d="M 242.197311 730.362366 L 245.204865 736.377502 " />
<path stroke-linejoin="round" stroke-linecap="round" stroke="rgb(0,0,255)" stroke-width="1.874998" fill="none" d="M 0.000000 750.000000 L 750.000000 666.666687 " />
<path stroke-linejoin="round" stroke-linecap="round" stroke="rgb(255,0,0)" stroke-width="3.749996" fill="none" d="M 238.752090 723.471985 L 242.197311 730.362366 " />
<path stroke-linejoin="round" stroke-linecap="round" stroke="rgb(0,0,255)" stroke-width="1.874998" fill="none" d="M 0.000000 750.000000 L 750.000000 642.857178 " />
<path stroke-linejoin="round" stroke-linecap="round" stroke="rgb(255,0,0)" stroke-width="3.749996" fill="none" d="M 235.215073 716.397827 L 238.752090 723.471985 " />
<path stroke-linejoin="round" stroke-linecap="round" stroke="rgb(0,0,255)" stroke-width="1.874998" fill="none" d="M 0.000000 750.000000 L 750.000000 617.647095 " />
<path stroke-linejoin="round" stroke-linecap="round" stroke="rgb(255,0,0)" stroke-width="3.749996" fill="none" d="M 231.582367 709.132507 L 235.215073 716.397827 " />
<path stroke-linejoin="round" stroke-linecap="round" stroke="rgb(0,0,255)" stroke-width="1.874998" fill="none" d="M 0.000000 750.000000 L 750.000000 590.909058 " />
<path stroke-linejoin="round" stroke-linecap="round" stroke="rgb(255,0,0)" stroke-width="3.749996" fill="none" d="M 227.850220 701.668091 L 231.582367 709.132507 " />
<path stroke-linejoin="round" stroke-linecap="round" stroke="rgb(0,0,255)" stroke-width="1.874998" fill="none" d="M 0.000000 750.000000 L 750.000000 573.529419 " />
<path stroke-linejoin="round" stroke-linecap="round" stroke="rgb(255,0,0)" stroke-width="3.749996" fill="none" d="M 225.488129 696.943909 L 227.850220 701.668091 " />
<path stroke-linejoin="round" stroke-linecap="round" stroke="rgb(0,0,255)" stroke-width="1.874998" fill="none" d="M 0.000000 750.000000 L 750.000000 545.454590 " />
<path stroke-linejoin="round" stroke-linecap="round" stroke="rgb(255,0,0)" stroke-width="3.749996" fill="none" d="M 221.774200 689.516113 L 225.488129 696.943909 " />
<path stroke-linejoin="round" stroke-linecap="round" stroke="rgb(0,0,255)" stroke-width="1.874998" fill="none" d="M 0.000000 750.000000 L 750.000000 515.625000 " />
<path stroke-linejoin="round" stroke-linecap="round" stroke="rgb(255,0,0)" stroke-width="3.749996" fill="none" d="M 217.959930 681.887512 L 221.774200 689.516113 " />
<path stroke-linejoin="round" stroke-linecap="round" stroke="rgb(0,0,255)" stroke-width="1.874998" fill="none" d="M 0.000000 750.000000 L 750.000000 483.870941 " />
<path stroke-linejoin="round" stroke-linecap="round" stroke="rgb(255,0,0)" stroke-width="3.749996" fill="none" d="M 214.041122 674.049927 L 217.959930 681.887512 " />
<path stroke-linejoin="round" stroke-linecap="round" stroke="rgb(0,0,255)" stroke-width="1.874998" fill="none" d="M 0.000000 750.000000 L 750.000000 450.000031 " />
<path stroke-linejoin="round" stroke-linecap="round" stroke="rgb(255,0,0)" stroke-width="3.749996" fill="none" d="M 210.013474 665.994629 L 214.041168 674.049927 " />
<path stroke-linejoin="round" stroke-linecap="round" stroke="rgb(0,0,255)" stroke-width="1.874998" fill="none" d="M 0.000000 750.000000 L 750.000000 413.793091 " />
<path stroke-linejoin="round" stroke-linecap="round" stroke="rgb(255,0,0)" stroke-width="3.749996" fill="none" d="M 205.872375 657.712402 L 210.013474 665.994629 " />
<path stroke-linejoin="round" stroke-linecap="round" stroke="rgb(0,0,255)" stroke-width="1.874998" fill="none" d="M 0.000000 750.000000 L 750.000000 375.000000 " />
<path stroke-linejoin="round" stroke-linecap="round" stroke="rgb(255,0,0)" stroke-width="3.749996" fill="none" d="M 201.612976 649.193481 L 205.872375 657.712402 " />
<path stroke-linejoin="round" stroke-linecap="round" stroke="rgb(0,0,255)" stroke-width="1.874998" fill="none" d="M 0.000000 750.000000 L 750.000000 362.068970 " />
<path stroke-linejoin="round" stroke-linecap="round" stroke="rgb(255,0,0)" stroke-width="3.749996" fill="none" d="M 200.232086 646.431702 L 201.612976 649.193481 " />
<path stroke-linejoin="round" stroke-linecap="round" stroke="rgb(0,0,255)" stroke-width="1.874998" fill="none" d="M 0.000000 750.000000 L 750.000000 321.428558 " />
<path stroke-linejoin="round" stroke-linecap="round" stroke="rgb(255,0,0)" stroke-width="3.749996" fill="none" d="M 196.012619 637.992798 L 200.232086 646.431702 " />
<path stroke-linejoin="round" stroke-linecap="round" stroke="rgb(0,0,255)" stroke-width="1.874998" fill="none" d="M 0.000000 750.000000 L 750.000000 277.777802 " />
<path stroke-linejoin="round" stroke-linecap="round" stroke="rgb(255,0,0)" stroke-width="3.749996" fill="none" d="M 191.674316 629.316162 L 196.012619 637.992798 " />
<path stroke-linejoin="round" stroke-linecap="round" stroke="rgb(0,0,255)" stroke-width="1.874998" fill="none" d="M 0.000000 750.000000 L 750.000000 230.769211 " />
<path stroke-linejoin="round" stroke-linecap="round" stroke="rgb(255,0,0)" stroke-width="3.749996" fill="none" d="M 187.212067 620.391663 L 191.674316 629.316162 " />
<path stroke-linejoin="round" stroke-linecap="round" stroke="rgb(0,0,255)" stroke-width="1.874998" fill="none" d="M 0.000000 750.000000 L 750.000000 180.000000 " />
<path stroke-linejoin="round" stroke-linecap="round" stroke="rgb(255,0,0)" stroke-width="3.749996" fill="none" d="M 182.620453 611.208496 L 187.212067 620.391663 " />
<path stroke-linejoin="round" stroke-linecap="round" stroke="rgb(0,0,255)" stroke-width="1.874998" fill="none" d="M 0.000000 750.000000 L 750.000000 173.076920 " />
<path stroke-linejoin="round" stroke-linecap="round" stroke="rgb(255,0,0)" stroke-width="3.749996" fill="none" d="M 182.011734 609.991028 L 182.620453 611.208496 " />
<path stroke-linejoin="round" stroke-linecap="round" stroke="rgb(0,0,255)" stroke-width="1.874998" fill="none" d="M 0.000000 750.000000 L 750.000000 120.000023 " />
<path stroke-linejoin="round" stroke-linecap="round" stroke="rgb(255,0,0)" stroke-width="3.749996" fill="none" d="M 177.476227 600.919983 L 182.011734 609.991028 " />
<path stroke-linejoin="round" stroke-linecap="round" stroke="rgb(0,0,255)" stroke-width="1.874998" fill="none" d="M 0.000000 750.000000 L 750.000000 62.499985 " />
<path stroke-linejoin="round" stroke-linecap="round" stroke="rgb(255,0,0)" stroke-width="3.749996" fill="none" d="M 172.811127 591.589783 L 177.476227 600.919983 " />
<path stroke-linejoin="round" stroke-linecap="round" stroke="rgb(0,0,255)" stroke-width="1.874998" fill="none" d="M 0.000000 750.000000 L 750.000000 0.000000 " />
<path stroke-linejoin="round" stroke-linecap="round" stroke="rgb(255,0,0)" stroke-width="3.749996" fill="none" d="M 168.010818 581.989197 L 172.811127 591.589783 " />
<path stroke-linejoin="round" stroke-linecap="round" stroke="rgb(0,0,255)" stroke-width="1.874998" fill="none" d="M 0.000000 750.000000 L 687.500000 0.000000 " />
<path stroke-linejoin="round" stroke-linecap="round" stroke="rgb(255,0,0)" stroke-width="3.749996" fill="none" d="M 163.069351 572.106140 L 168.010818 581.989197 " />
<path stroke-linejoin="round" stroke-linecap="round" stroke="rgb(0,0,255)" stroke-width="1.874998" fill="none" d="M 0.000000 750.000000 L 630.000000 0.000000 " />
<path stroke-linejoin="round" stroke-linecap="round" stroke="rgb(255,0,0)" stroke-width="3.749996" fill="none" d="M 157.980316 561.928223 L 163.069351 572.106140 " />
<path stroke-linejoin="round" stroke-linecap="round" stroke="rgb(0,0,255)" stroke-width="1.874998" fill="none" d="M 0.000000 750.000000 L 576.923096 0.000000 " />
<path stroke-linejoin="round" stroke-linecap="round" stroke="rgb(255,0,0)" stroke-width="3.749996" fill="none" d="M 152.737122 551.441772 L 157.980316 561.928223 " />
<path stroke-linejoin="round" stroke-linecap="round" stroke="rgb(0,0,255)" stroke-width="1.874998" fill="none" d="M 0.000000 750.000000 L 535.714294 0.000000 " />
<path stroke-linejoin="round" stroke-linecap="round" stroke="rgb(255,0,0)" stroke-width="3.749996" fill="none" d="M 148.244843 542.457214 L 152.737122 551.441772 " />
<path stroke-linejoin="round" stroke-linecap="round" stroke="rgb(0,0,255)" stroke-width="1.874998" fill="none" d="M 0.000000 750.000000 L 491.379303 0.000000 " />
<path stroke-linejoin="round" stroke-linecap="round" stroke="rgb(255,0,0)" stroke-width="3.749996" fill="none" d="M 142.934586 531.836670 L 148.244843 542.457214 " />
<path stroke-linejoin="round" stroke-linecap="round" stroke="rgb(0,0,255)" stroke-width="1.874998" fill="none" d="M 0.000000 750.000000 L 450.000031 0.000000 " />
<path stroke-linejoin="round" stroke-linecap="round" stroke="rgb(255,0,0)" stroke-width="3.749996" fill="none" d="M 137.463409 520.894348 L 142.934586 531.836670 " />
<path stroke-linejoin="round" stroke-linecap="round" stroke="rgb(0,0,255)" stroke-width="1.874998" fill="none" d="M 0.000000 750.000000 L 411.290344 0.000000 " />
<path stroke-linejoin="round" stroke-linecap="round" stroke="rgb(255,0,0)" stroke-width="3.749996" fill="none" d="M 131.823883 509.615295 L 137.463409 520.894348 " />
<path stroke-linejoin="round" stroke-linecap="round" stroke="rgb(0,0,255)" stroke-width="1.874998" fill="none" d="M 0.000000 750.000000 L 375.000000 0.000000 " />
<path stroke-linejoin="round" stroke-linecap="round" stroke="rgb(255,0,0)" stroke-width="3.749996" fill="none" d="M 126.008125 497.983765 L 131.823883 509.615295 " />
<path stroke-linejoin="round" stroke-linecap="round" stroke="rgb(0,0,255)" stroke-width="1.874998" fill="none" d="M 0.000000 750.000000 L 340.909088 0.000000 " />
<path stroke-linejoin="round" stroke-linecap="round" stroke="rgb(255,0,0)" stroke-width="3.749996" fill="none" d="M 120.007729 485.982971 L 126.008125 497.983765 " />
<path stroke-linejoin="round" stroke-linecap="round" stroke="rgb(0,0,255)" stroke-width="1.874998" fill="none" d="M 0.000000 750.000000 L 321.428589 0.000000 " />
<path stroke-linejoin="round" stroke-linecap="round" stroke="rgb(255,0,0)" stroke-width="3.749996" fill="none" d="M 116.315201 478.597870 L 120.007729 485.982971 " />
<path stroke-linejoin="round" stroke-linecap="round" stroke="rgb(0,0,255)" stroke-width="1.874998" fill="none" d="M 0.000000 750.000000 L 291.666656 0.000000 " />
<path stroke-linejoin="round" stroke-linecap="round" stroke="rgb(255,0,0)" stroke-width="3.749996" fill="none" d="M 110.257118 466.481689 L 116.315201 478.597870 " />
<path stroke-linejoin="round" stroke-linecap="round" stroke="rgb(0,0,255)" stroke-width="1.874998" fill="none" d="M 0.000000 750.000000 L 263.513519 0.000000 " />
<path stroke-linejoin="round" stroke-linecap="round" stroke="rgb(255,0,0)" stroke-width="3.749996" fill="none" d="M 104.006699 453.980957 L 110.257118 466.481689 " />
<path stroke-linejoin="round" stroke-linecap="round" stroke="rgb(0,0,255)" stroke-width="1.874998" fill="none" d="M 0.000000 750.000000 L 236.842102 0.000000 " />
<path stroke-linejoin="round" stroke-linecap="round" stroke="rgb(255,0,0)" stroke-width="3.749996" fill="none" d="M 97.554672 441.076904 L 104.006699 453.980957 " />
<path stroke-linejoin="round" stroke-linecap="round" stroke="rgb(0,0,255)" stroke-width="1.874998" fill="none" d="M 0.000000 750.000000 L 225.000015 0.000000 " />
<path stroke-linejoin="round" stroke-linecap="round" stroke="rgb(255,0,0)" stroke-width="3.749996" fill="none" d="M 94.506096 434.979706 L 97.554672 441.076904 " />
<path stroke-linejoin="round" stroke-linecap="round" stroke="rgb(0,0,255)" stroke-width="1.874998" fill="none" d="M 0.000000 750.000000 L 214.285721 0.000000 " />
<path stroke-linejoin="round" stroke-linecap="round" stroke="rgb(255,0,0)" stroke-width="3.749996" fill="none" d="M 91.642273 429.252045 L 94.506096 434.979706 " />
<path stroke-linejoin="round" stroke-linecap="round" stroke="rgb(0,0,255)" stroke-width="1.874998" fill="none" d="M 0.000000 750.000000 L 191.860474 0.000000 " />
<path stroke-linejoin="round" stroke-linecap="round" stroke="rgb(255,0,0)" stroke-width="3.749996" fill="none" d="M 85.390892 416.199219 L 91.642250 429.252106 " />
<path stroke-linejoin="round" stroke-linecap="round" stroke="rgb(0,0,255)" stroke-width="1.874998" fill="none" d="M 0.000000 750.000000 L 141.509415 0.000000 " />
<path stroke-linejoin="round" stroke-linecap="round" stroke="rgb(255,0,0)" stroke-width="3.749996" fill="none" d="M 73.615280 359.839020 L 85.390892 416.199219 " />
<path stroke-linejoin="round" stroke-linecap="round" stroke="rgb(0,0,255)" stroke-width="1.874998" fill="none" d="M 0.000000 750.000000 L 131.578934 0.000000 " />
<path stroke-linejoin="round" stroke-linecap="round" stroke="rgb(255,0,0)" stroke-width="3.749996" fill="none" d="M 70.704216 346.985992 L 73.615257 359.839050 " />
<path stroke-linejoin="round" stroke-linecap="round" stroke="rgb(0,0,255)" stroke-width="1.874998" fill="none" d="M 0.000000 750.000000 L 103.846146 0.000000 " />
<path stroke-linejoin="round" stroke-linecap="round" stroke="rgb(255,0,0)" stroke-width="3.749996" fill="none" d="M 61.770470 303.879974 L 70.704216 346.986023 " />
<path stroke-linejoin="round" stroke-linecap="round" stroke="rgb(0,0,255)" stroke-width="1.874998" fill="none" d="M 0.000000 750.000000 L 100.746277 0.000000 " />
<path stroke-linejoin="round" stroke-linecap="round" stroke="rgb(255,0,0)" stroke-width="3.749996" fill="none" d="M 60.588867 298.949554 L 61.770470 303.879974 " />
<path stroke-linejoin="round" stroke-linecap="round" stroke="rgb(0,0,255)" stroke-width="1.874998" fill="none" d="M 0.000000 750.000000 L 82.191780 0.000000 " />
<path stroke-linejoin="round" stroke-linecap="round" stroke="rgb(255,0,0)" stroke-width="3.749996" fill="none" d="M 53.311474 263.532745 L 60.588867 298.949554 " />
<path stroke-linejoin="round" stroke-linecap="round" stroke="rgb(0,0,255)" stroke-width="1.874998" fill="none" d="M 0.000000 750.000000 L 80.000015 0.000000 " />
<path stroke-linejoin="round" stroke-linecap="round" stroke="rgb(255,0,0)" stroke-width="3.749996" fill="none" d="M 52.339375 259.318390 L 53.311474 263.532745 " />
<path stroke-linejoin="round" stroke-linecap="round" stroke="rgb(0,0,255)" stroke-width="1.874998" fill="none" d="M 0.000000 750.000000 L 77.922081 0.000000 " />
<path stroke-linejoin="round" stroke-linecap="round" stroke="rgb(255,0,0)" stroke-width="3.749996" fill="none" d="M 51.408894 255.189346 L 52.339375 259.318420 " />
<path stroke-linejoin="round" stroke-linecap="round" stroke="rgb(0,0,255)" stroke-width="1.874998" fill="none" d="M 0.000000 750.000000 L 66.455704 0.000000 " />
<path stroke-linejoin="round" stroke-linecap="round" stroke="rgb(255,0,0)" stroke-width="3.749996" fill="none" d="M 46.138512 229.293869 L 51.408894 255.189346 " />
<path stroke-linejoin="round" stroke-linecap="round" stroke="rgb(0,0,255)" stroke-width="1.874998" fill="none" d="M 0.000000 750.000000 L 64.814819 0.000000 " />
<path stroke-linejoin="round" stroke-linecap="round" stroke="rgb(255,0,0)" stroke-width="3.749996" fill="none" d="M 45.323475 225.542526 L 46.138512 229.293961 " />
<path stroke-linejoin="round" stroke-linecap="round" stroke="rgb(0,0,255)" stroke-width="1.874998" fill="none" d="M 0.000000 750.000000 L 63.253014 0.000000 " />
<path stroke-linejoin="round" stroke-linecap="round" stroke="rgb(255,0,0)" stroke-width="3.749996" fill="none" d="M 44.540272 221.879532 L 45.323475 225.542526 " />
<path stroke-linejoin="round" stroke-linecap="round" stroke="rgb(0,0,255)" stroke-width="1.874998" fill="none" d="M 0.000000 750.000000 L 50.561787 0.000000 " />
<path stroke-linejoin="round" stroke-linecap="round" stroke="rgb(255,0,0)" stroke-width="3.749996" fill="none" d="M 37.846260 188.613968 L 44.540272 221.879623 " />
<path stroke-linejoin="round" stroke-linecap="round" stroke="rgb(0,0,255)" stroke-width="1.874998" fill="none" d="M 0.000000 750.000000 L 49.450546 0.000000 " />
<path stroke-linejoin="round" stroke-linecap="round" stroke="rgb(255,0,0)" stroke-width="3.749996" fill="none" d="M 37.213326 185.598068 L 37.846260 188.613968 " />
<circle cx="248.655919" cy="743.279569" r="3.749996" style="fill:rgb(0,127,0);stroke-width:1" /><circle cx="245.204877" cy="736.377507" r="3.749996" style="fill:rgb(0,127,0);stroke-width:1" /><circle cx="242.197316" cy="730.362386" r="3.749996" style="fill:rgb(0,127,0);stroke-width:1" /><circle cx="238.752108" cy="723.471992" r="3.749996" style="fill:rgb(0,127,0);stroke-width:1" /><circle cx="235.215057" cy="716.397844" r="3.749996" style="fill:rgb(0,127,0);stroke-width:1" /><circle cx="231.582385" cy="709.132522" r="3.749996" style="fill:rgb(0,127,0);stroke-width:1" /><circle cx="227.850214" cy="701.668136" r="3.749996" style="fill:rgb(0,127,0);stroke-width:1" /><circle cx="225.488137" cy="696.943961" r="3.749996" style="fill:rgb(0,127,0);stroke-width:1" /><circle cx="221.774217" cy="689.516120" r="3.749996" style="fill:rgb(0,127,0);stroke-width:1" /><circle cx="217.959926" cy="681.887515" r="3.749996" style="fill:rgb(0,127,0);stroke-width:1" /><circle cx="214.041140" cy="674.049921" r="3.749996" style="fill:rgb(0,127,0);stroke-width:1" /><circle cx="210.013479" cy="665.994599" r="3.749996" style="fill:rgb(0,127,0);stroke-width:1" /><circle cx="205.872383" cy="657.712385" r="3.749996" style="fill:rgb(0,127,0);stroke-width:1" /><circle cx="201.612968" cy="649.193510" r="3.749996" style="fill:rgb(0,127,0);stroke-width:1" /><circle cx="200.232077" cy="646.431684" r="3.749996" style="fill:rgb(0,127,0);stroke-width:1" /><circle cx="196.012627" cy="637.992784" r="3.749996" style="fill:rgb(0,127,0);stroke-width:1" /><circle cx="191.674333" cy="629.316151" r="3.749996" style="fill:rgb(0,127,0);stroke-width:1" /><circle cx="187.212065" cy="620.391637" r="3.749996" style="fill:rgb(0,127,0);stroke-width:1" /><circle cx="182.620458" cy="611.208446" r="3.749996" style="fill:rgb(0,127,0);stroke-width:1" /><circle cx="182.011731" cy="609.990992" r="3.749996" style="fill:rgb(0,127,0);stroke-width:1" /><circle cx="177.476227" cy="600.919984" r="3.749996" style="fill:rgb(0,127,0);stroke-width:1" /><circle cx="172.811128" cy="591.589808" r="3.749996" style="fill:rgb(0,127,0);stroke-width:1" /><circle cx="168.010823" cy="581.989177" r="3.749996" style="fill:rgb(0,127,0);stroke-width:1" /><circle cx="163.069345" cy="572.106175" r="3.749996" style="fill:rgb(0,127,0);stroke-width:1" /><circle cx="157.980323" cy="561.928198" r="3.749996" style="fill:rgb(0,127,0);stroke-width:1" /><circle cx="152.737118" cy="551.441744" r="3.749996" style="fill:rgb(0,127,0);stroke-width:1" /><circle cx="148.244843" cy="542.457227" r="3.749996" style="fill:rgb(0,127,0);stroke-width:1" /><circle cx="142.934583" cy="531.836674" r="3.749996" style="fill:rgb(0,127,0);stroke-width:1" /><circle cx="137.463413" cy="520.894334" r="3.749996" style="fill:rgb(0,127,0);stroke-width:1" /><circle cx="131.823890" cy="509.615276" r="3.749996" style="fill:rgb(0,127,0);stroke-width:1" /><circle cx="126.008123" cy="497.983754" r="3.749996" style="fill:rgb(0,127,0);stroke-width:1" /><circle cx="120.007731" cy="485.982981" r="3.749996" style="fill:rgb(0,127,0);stroke-width:1" /><circle cx="116.315201" cy="478.597876" r="3.749996" style="fill:rgb(0,127,0);stroke-width:1" /><circle cx="110.257119" cy="466.481717" r="3.749996" style="fill:rgb(0,127,0);stroke-width:1" /><circle cx="104.006700" cy="453.980953" r="3.749996" style="fill:rgb(0,127,0);stroke-width:1" /><circle cx="97.554669" cy="441.076906" r="3.749996" style="fill:rgb(0,127,0);stroke-width:1" /><circle cx="94.506092" cy="434.979709" r="3.749996" style="fill:rgb(0,127,0);stroke-width:1" /><circle cx="91.642275" cy="429.252058" r="3.749996" style="fill:rgb(0,127,0);stroke-width:1" /><circle cx="85.390896" cy="416.199236" r="3.749996" style="fill:rgb(0,127,0);stroke-width:1" /><circle cx="73.615283" cy="359.839022" r="3.749996" style="fill:rgb(0,127,0);stroke-width:1" /><circle cx="70.704214" cy="346.985995" r="3.749996" style="fill:rgb(0,127,0);stroke-width:1" /><circle cx="61.770469" cy="303.879976" r="3.749996" style="fill:rgb(0,127,0);stroke-width:1" /><circle cx="60.588866" cy="298.949540" r="3.749996" style="fill:rgb(0,127,0);stroke-width:1" /><circle cx="53.311475" cy="263.532758" r="3.749996" style="fill:rgb(0,127,0);stroke-width:1" /><circle cx="52.339375" cy="259.318382" r="3.749996" style="fill:rgb(0,127,0);stroke-width:1" /><circle cx="51.408894" cy="255.189355" r="3.749996" style="fill:rgb(0,127,0);stroke-width:1" /><circle cx="46.138510" cy="229.293879" r="3.749996" style="fill:rgb(0,127,0);stroke-width:1" /><circle cx="45.323476" cy="225.542542" r="3.749996" style="fill:rgb(0,127,0);stroke-width:1" /><circle cx="44.540271" cy="221.879538" r="3.749996" style="fill:rgb(0,127,0);stroke-width:1" /><circle cx="37.846260" cy="188.613944" r="3.749996" style="fill:rgb(0,127,0);stroke-width:1" /><circle cx="37.213326" cy="185.598068" r="3.749996" style="fill:rgb(0,127,0);stroke-width:1" /><path stroke-linejoin="round" stroke-linecap="round" stroke="rgb(255,255,255)" stroke-width="3.749996" fill="none" d="M 0.000000 750.000000 L 750.000000 750.000000 M 0.000000 750.000000 L 0.000000 0.000000 " />

</svg>