<svg xmlns="http://www.w3.org/2000/svg" version="1.1" width = "750" height = "750" viewBox = "0 0 750 750"  shape-rendering="crispEdges">
<path stroke-linejoin="round" stroke-linecap="round" stroke="rgb(255,255,0)" stroke-width="3.749996" fill="none" d="M 375.000000 750.000000 L 0.000000 0.000000 " />
<path stroke-linejoin="round" stroke-linecap="round" stroke="rgb(63,63,63)" stroke-width="3.749996" fill="none" d="M 0.000000 0.000000 L 750.000000 750.000000 M 375.000000 750.000000 L 124.999992 0.000000 " />
<path stroke-linejoin="round" stroke-linecap="round" stroke="rgb(191,191,191)" stroke-width="3.749996" fill="none" d="M 0.000000 375.000000 L 375.000000 750.000000 M 0.000000 0.000000 L 250.000000 750.000000 " />
<path stroke-linejoin="round" stroke-linecap="round" stroke="rgb(0,0,255)" stroke-width="1.874998" fill="none" d="M 0.000000 750.000000 L 750.000000 732.142822 " />
<path stroke-linejoin="round" stroke-linecap="round" stroke="rgb(255,0,0)" stroke-width="3.749996" fill="none" d="M 372.047241 741.141724 L 375.000000 750.000000 " />
<path stroke-linejoin="round" stroke-linecap="round" stroke="rgb(0,0,255)" stroke-width="1.874998" fill="none" d="M 0.000000 750.000000 L 750.000000 713.414612 " />
<path stroke-linejoin="round" stroke-linecap="round" stroke="rgb(255,0,0)" stroke-width="3.749996" fill="none" d="M 363.188995 732.283447 L 372.047241 741.141724 " />
<path stroke-linejoin="round" stroke-linecap="round" stroke="rgb(0,0,255)" stroke-width="1.874998" fill="none" d="M 0.000000 750.000000 L 750.000000 693.750000 " />
<path stroke-linejoin="round" stroke-linecap="round" stroke="rgb(255,0,0)" stroke-width="3.749996" fill="none" d="M 354.330688 723.425232 L 363.188995 732.283447 " />
<path stroke-linejoin="round" stroke-linecap="round" stroke="rgb(0,0,255)" stroke-width="1.874998" fill="none" d="M 0.000000 750.000000 L 750.000000 673.076904 " />
<path stroke-linejoin="round" stroke-linecap="round" stroke="rgb(255,0,0)" stroke-width="3.749996" fill="none" d="M 345.472443 714.566956 L 354.330688 723.425232 " />
<path stroke-linejoin="round" stroke-linecap="round" stroke="rgb(0,0,255)" stroke-width="1.874998" fill="none" d="M 0.000000 750.000000 L 750.000000 656.250000 " />
<path stroke-linejoin="round" stroke-linecap="round" stroke="rgb(255,0,0)" stroke-width="3.749996" fill="none" d="M 338.582672 707.677185 L 345.472443 714.566956 " />
<path stroke-linejoin="round" stroke-linecap="round" stroke="rgb(0,0,255)" stroke-width="1.874998" fill="none" d="M 0.000000 750.000000 L 750.000000 651.315796 " />
<path stroke-linejoin="round" stroke-linecap="round" stroke="rgb(255,0,0)" stroke-width="3.749996" fill="none" d="M 336.614197 705.708679 L 338.582672 707.677185 " />
<path stroke-linejoin="round" stroke-linecap="round" stroke="rgb(0,0,255)" stroke-width="1.874998" fill="none" d="M 0.000000 750.000000 L 750.000000 628.378357 " />
<path stroke-linejoin="round" stroke-linecap="round" stroke="rgb(255,0,0)" stroke-width="3.749996" fill="none" d="M 327.755920 696.850403 L 336.614227 705.708679 " />
<path stroke-linejoin="round" stroke-linecap="round" stroke="rgb(0,0,255)" stroke-width="1.874998" fill="none" d="M 0.000000 750.000000 L 750.000000 611.842102 " />
<path stroke-linejoin="round" stroke-linecap="round" stroke="rgb(255,0,0)" stroke-width="3.749996" fill="none" d="M 321.653595 690.748047 L 327.755920 696.850403 " />
<path stroke-linejoin="round" stroke-linecap="round" stroke="rgb(0,0,255)" stroke-width="1.874998" fill="none" d="M 0.000000 750.000000 L 750.000000 604.166687 " />
<path stroke-linejoin="round" stroke-linecap="round" stroke="rgb(255,0,0)" stroke-width="3.749996" fill="none" d="M 318.897675 687.992126 L 321.653595 690.748047 " />
<path stroke-linejoin="round" stroke-linecap="round" stroke="rgb(0,0,255)" stroke-width="1.874998" fill="none" d="M 0.000000 750.000000 L 750.000000 578.571411 " />
<path stroke-linejoin="round" stroke-linecap="round" stroke="rgb(255,0,0)" stroke-width="3.749996" fill="none" d="M 310.039398 679.133850 L 318.897675 687.992126 " />
<path stroke-linejoin="round" stroke-linecap="round" stroke="rgb(0,0,255)" stroke-width="1.874998" fill="none" d="M 0.000000 750.000000 L 750.000000 562.500000 " />
<path stroke-linejoin="round" stroke-linecap="round" stroke="rgb(255,0,0)" stroke-width="3.749996" fill="none" d="M 304.724457 673.818909 L 310.039398 679.133850 " />
<path stroke-linejoin="round" stroke-linecap="round" stroke="rgb(0,0,255)" stroke-width="1.874998" fill="none" d="M 0.000000 750.000000 L 750.000000 551.470581 " />
<path stroke-linejoin="round" stroke-linecap="round" stroke="rgb(255,0,0)" stroke-width="3.749996" fill="none" d="M 301.181152 670.275574 L 304.724457 673.818909 " />
<path stroke-linejoin="round" stroke-linecap="round" stroke="rgb(0,0,255)" stroke-width="1.874998" fill="none" d="M 0.000000 750.000000 L 750.000000 535.714294 " />
<path stroke-linejoin="round" stroke-linecap="round" stroke="rgb(255,0,0)" stroke-width="3.749996" fill="none" d="M 296.259888 665.354309 L 301.181152 670.275574 " />
<path stroke-linejoin="round" stroke-linecap="round" stroke="rgb(0,0,255)" stroke-width="1.874998" fill="none" d="M 0.000000 750.000000 L 750.000000 522.727295 " />
<path stroke-linejoin="round" stroke-linecap="round" stroke="rgb(255,0,0)" stroke-width="3.749996" fill="none" d="M 292.322937 661.417297 L 296.259918 665.354309 " />
<path stroke-linejoin="round" stroke-linecap="round" stroke="rgb(0,0,255)" stroke-width="1.874998" fill="none" d="M 0.000000 750.000000 L 750.000000 492.187500 " />
<path stroke-linejoin="round" stroke-linecap="round" stroke="rgb(255,0,0)" stroke-width="3.749996" fill="none" d="M 283.464691 652.559021 L 292.322968 661.417297 " />
<path stroke-linejoin="round" stroke-linecap="round" stroke="rgb(0,0,255)" stroke-width="1.874998" fill="none" d="M 0.000000 750.000000 L 750.000000 477.272705 " />
<path stroke-linejoin="round" stroke-linecap="round" stroke="rgb(255,0,0)" stroke-width="3.749996" fill="none" d="M 279.330872 648.425171 L 283.464691 652.559021 " />
<path stroke-linejoin="round" stroke-linecap="round" stroke="rgb(0,0,255)" stroke-width="1.874998" fill="none" d="M 0.000000 750.000000 L 750.000000 445.312500 " />
<path stroke-linejoin="round" stroke-linecap="round" stroke="rgb(255,0,0)" stroke-width="3.749996" fill="none" d="M 270.866302 639.960571 L 279.330872 648.425171 " />
<path stroke-linejoin="round" stroke-linecap="round" stroke="rgb(0,0,255)" stroke-width="1.874998" fill="none" d="M 0.000000 750.000000 L 750.000000 411.290344 " />
<path stroke-linejoin="round" stroke-linecap="round" stroke="rgb(255,0,0)" stroke-width="3.749996" fill="none" d="M 262.401703 631.495972 L 270.866302 639.960571 " />
<path stroke-linejoin="round" stroke-linecap="round" stroke="rgb(0,0,255)" stroke-width="1.874998" fill="none" d="M 0.000000 750.000000 L 750.000000 398.437500 " />
<path stroke-linejoin="round" stroke-linecap="round" stroke="rgb(255,0,0)" stroke-width="3.749996" fill="none" d="M 259.340057 628.434326 L 262.401703 631.496033 " />
<path stroke-linejoin="round" stroke-linecap="round" stroke="rgb(0,0,255)" stroke-width="1.874998" fill="none" d="M 0.000000 750.000000 L 750.000000 375.000000 " />
<path stroke-linejoin="round" stroke-linecap="round" stroke="rgb(255,0,0)" stroke-width="3.749996" fill="none" d="M 253.937149 623.031433 L 259.340057 628.434326 " />
<path stroke-linejoin="round" stroke-linecap="round" stroke="rgb(0,0,255)" stroke-width="1.874998" fill="none" d="M 0.000000 750.000000 L 750.000000 362.903229 " />
<path stroke-linejoin="round" stroke-linecap="round" stroke="rgb(255,0,0)" stroke-width="3.749996" fill="none" d="M 251.235672 620.330017 L 253.937149 623.031433 " />
<path stroke-linejoin="round" stroke-linecap="round" stroke="rgb(0,0,255)" stroke-width="1.874998" fill="none" d="M 0.000000 750.000000 L 750.000000 336.206909 " />
<path stroke-linejoin="round" stroke-linecap="round" stroke="rgb(255,0,0)" stroke-width="3.749996" fill="none" d="M 245.472549 614.566833 L 251.235672 620.330017 " />
<path stroke-linejoin="round" stroke-linecap="round" stroke="rgb(0,0,255)" stroke-width="1.874998" fill="none" d="M 0.000000 750.000000 L 750.000000 325.000000 " />
<path stroke-linejoin="round" stroke-linecap="round" stroke="rgb(255,0,0)" stroke-width="3.749996" fill="none" d="M 243.131317 612.225586 L 245.472549 614.566833 " />
<path stroke-linejoin="round" stroke-linecap="round" stroke="rgb(0,0,255)" stroke-width="1.874998" fill="none" d="M 0.000000 750.000000 L 750.000000 294.642853 " />
<path stroke-linejoin="round" stroke-linecap="round" stroke="rgb(255,0,0)" stroke-width="3.749996" fill="none" d="M 237.007996 606.102295 L 243.131317 612.225586 " />
<path stroke-linejoin="round" stroke-linecap="round" stroke="rgb(0,0,255)" stroke-width="1.874998" fill="none" d="M 0.000000 750.000000 L 750.000000 284.482788 " />
<path stroke-linejoin="round" stroke-linecap="round" stroke="rgb(255,0,0)" stroke-width="3.749996" fill="none" d="M 235.026932 604.121216 L 237.007996 606.102295 " />
<path stroke-linejoin="round" stroke-linecap="round" stroke="rgb(0,0,255)" stroke-width="1.874998" fill="none" d="M 0.000000 750.000000 L 750.000000 249.999985 " />
<path stroke-linejoin="round" stroke-linecap="round" stroke="rgb(255,0,0)" stroke-width="3.749996" fill="none" d="M 228.543411 597.637756 L 235.026932 604.121216 " />
<path stroke-linejoin="round" stroke-linecap="round" stroke="rgb(0,0,255)" stroke-width="1.874998" fill="none" d="M 0.000000 750.000000 L 750.000000 201.923080 " />
<path stroke-linejoin="round" stroke-linecap="round" stroke="rgb(255,0,0)" stroke-width="3.749996" fill="none" d="M 220.078873 589.173157 L 228.543411 597.637756 " />
<path stroke-linejoin="round" stroke-linecap="round" stroke="rgb(0,0,255)" stroke-width="1.874998" fill="none" d="M 0.000000 750.000000 L 750.000000 149.999985 " />
<path stroke-linejoin="round" stroke-linecap="round" stroke="rgb(255,0,0)" stroke-width="3.749996" fill="none" d="M 211.614288 580.708557 L 220.078873 589.173157 " />
<path stroke-linejoin="round" stroke-linecap="round" stroke="rgb(0,0,255)" stroke-width="1.874998" fill="none" d="M 0.000000 750.000000 L 750.000000 93.750000 " />
<path stroke-linejoin="round" stroke-linecap="round" stroke="rgb(255,0,0)" stroke-width="3.749996" fill="none" d="M 203.149704 572.244019 L 211.614288 580.708557 " />
<path stroke-linejoin="round" stroke-linecap="round" stroke="rgb(0,0,255)" stroke-width="1.874998" fill="none" d="M 0.000000 750.000000 L 750.000000 90.000000 " />
<path stroke-linejoin="round" stroke-linecap="round" stroke="rgb(255,0,0)" stroke-width="3.749996" fill="none" d="M 202.609421 571.703735 L 203.149704 572.244019 " />
<path stroke-linejoin="round" stroke-linecap="round" stroke="rgb(0,0,255)" stroke-width="1.874998" fill="none" d="M 0.000000 750.000000 L 604.838684 0.000000 " />
<path stroke-linejoin="round" stroke-linecap="round" stroke="rgb(255,0,0)" stroke-width="3.749996" fill="none" d="M 185.406754 520.095642 L 202.609390 571.703735 " />
<path stroke-linejoin="round" stroke-linecap="round" stroke="rgb(0,0,255)" stroke-width="1.874998" fill="none" d="M 0.000000 750.000000 L 562.500000 0.000000 " />
<path stroke-linejoin="round" stroke-linecap="round" stroke="rgb(255,0,0)" stroke-width="3.749996" fill="none" d="M 177.990448 512.679382 L 185.406754 520.095642 " />
<path stroke-linejoin="round" stroke-linecap="round" stroke="rgb(0,0,255)" stroke-width="1.874998" fill="none" d="M 0.000000 750.000000 L 517.241333 0.000000 " />
<path stroke-linejoin="round" stroke-linecap="round" stroke="rgb(255,0,0)" stroke-width="3.749996" fill="none" d="M 169.514740 504.203613 L 177.990448 512.679382 " />
<path stroke-linejoin="round" stroke-linecap="round" stroke="rgb(0,0,255)" stroke-width="1.874998" fill="none" d="M 0.000000 750.000000 L 475.000000 0.000000 " />
<path stroke-linejoin="round" stroke-linecap="round" stroke="rgb(255,0,0)" stroke-width="3.749996" fill="none" d="M 163.793121 491.379272 L 169.514740 504.203613 " />
<path stroke-linejoin="round" stroke-linecap="round" stroke="rgb(0,0,255)" stroke-width="1.874998" fill="none" d="M 0.000000 750.000000 L 445.312500 0.000000 " />
<path stroke-linejoin="round" stroke-linecap="round" stroke="rgb(255,0,0)" stroke-width="3.749996" fill="none" d="M 160.112366 480.337067 L 163.793121 491.379272 " />
<path stroke-linejoin="round" stroke-linecap="round" stroke="rgb(0,0,255)" stroke-width="1.874998" fill="none" d="M 0.000000 750.000000 L 409.090912 0.000000 " />
<path stroke-linejoin="round" stroke-linecap="round" stroke="rgb(255,0,0)" stroke-width="3.749996" fill="none" d="M 155.172409 465.517212 L 160.112366 480.337067 " />
<path stroke-linejoin="round" stroke-linecap="round" stroke="rgb(0,0,255)" stroke-width="1.874998" fill="none" d="M 0.000000 750.000000 L 385.714294 0.000000 " />
<path stroke-linejoin="round" stroke-linecap="round" stroke="rgb(255,0,0)" stroke-width="3.749996" fill="none" d="M 151.685394 455.056152 L 155.172409 465.517212 " />
<path stroke-linejoin="round" stroke-linecap="round" stroke="rgb(0,0,255)" stroke-width="1.874998" fill="none" d="M 0.000000 750.000000 L 354.166656 0.000000 " />
<path stroke-linejoin="round" stroke-linecap="round" stroke="rgb(255,0,0)" stroke-width="3.749996" fill="none" d="M 146.551727 439.655182 L 151.685394 455.056152 " />
<path stroke-linejoin="round" stroke-linecap="round" stroke="rgb(0,0,255)" stroke-width="1.874998" fill="none" d="M 0.000000 750.000000 L 324.324341 0.000000 " />
<path stroke-linejoin="round" stroke-linecap="round" stroke="rgb(255,0,0)" stroke-width="3.749996" fill="none" d="M 141.176468 423.529388 L 146.551727 439.655182 " />
<path stroke-linejoin="round" stroke-linecap="round" stroke="rgb(0,0,255)" stroke-width="1.874998" fill="none" d="M 0.000000 750.000000 L 296.052643 0.000000 " />
<path stroke-linejoin="round" stroke-linecap="round" stroke="rgb(255,0,0)" stroke-width="3.749996" fill="none" d="M 135.542175 406.626495 L 141.176468 423.529388 " />
<path stroke-linejoin="round" stroke-linecap="round" stroke="rgb(0,0,255)" stroke-width="1.874998" fill="none" d="M 0.000000 750.000000 L 269.230743 0.000000 " />
<path stroke-linejoin="round" stroke-linecap="round" stroke="rgb(255,0,0)" stroke-width="3.749996" fill="none" d="M 129.629639 388.888885 L 135.542175 406.626495 " />
<path stroke-linejoin="round" stroke-linecap="round" stroke="rgb(0,0,255)" stroke-width="1.874998" fill="none" d="M 0.000000 750.000000 L 256.097565 0.000000 " />
<path stroke-linejoin="round" stroke-linecap="round" stroke="rgb(255,0,0)" stroke-width="3.749996" fill="none" d="M 126.506027 379.518036 L 129.629639 388.888885 " />
<path stroke-linejoin="round" stroke-linecap="round" stroke="rgb(0,0,255)" stroke-width="1.874998" fill="none" d="M 0.000000 750.000000 L 244.186050 0.000000 " />
<path stroke-linejoin="round" stroke-linecap="round" stroke="rgb(255,0,0)" stroke-width="3.749996" fill="none" d="M 123.529404 370.588226 L 126.506027 379.518036 " />
<path stroke-linejoin="round" stroke-linecap="round" stroke="rgb(0,0,255)" stroke-width="1.874998" fill="none" d="M 0.000000 750.000000 L 233.333344 0.000000 " />
<path stroke-linejoin="round" stroke-linecap="round" stroke="rgb(255,0,0)" stroke-width="3.749996" fill="none" d="M 120.689659 362.068970 L 123.529404 370.588226 " />
<path stroke-linejoin="round" stroke-linecap="round" stroke="rgb(0,0,255)" stroke-width="1.874998" fill="none" d="M 0.000000 750.000000 L 223.404251 0.000000 " />
<path stroke-linejoin="round" stroke-linecap="round" stroke="rgb(255,0,0)" stroke-width="3.749996" fill="none" d="M 117.977501 353.932648 L 120.689636 362.069031 " />
<path stroke-linejoin="round" stroke-linecap="round" stroke="rgb(0,0,255)" stroke-width="1.874998" fill="none" d="M 0.000000 750.000000 L 203.125000 0.000000 " />
<path stroke-linejoin="round" stroke-linecap="round" stroke="rgb(255,0,0)" stroke-width="3.749996" fill="none" d="M 112.068954 336.206940 L 117.977501 353.932648 " />
<path stroke-linejoin="round" stroke-linecap="round" stroke="rgb(0,0,255)" stroke-width="1.874998" fill="none" d="M 0.000000 750.000000 L 183.673477 0.000000 " />
<path stroke-linejoin="round" stroke-linecap="round" stroke="rgb(255,0,0)" stroke-width="3.749996" fill="none" d="M 105.882347 317.647125 L 112.068954 336.206940 " />
<path stroke-linejoin="round" stroke-linecap="round" stroke="rgb(0,0,255)" stroke-width="1.874998" fill="none" d="M 0.000000 750.000000 L 165.000000 0.000000 " />
<path stroke-linejoin="round" stroke-linecap="round" stroke="rgb(255,0,0)" stroke-width="3.749996" fill="none" d="M 99.397568 298.192902 L 105.882324 317.647186 " />
<path stroke-linejoin="round" stroke-linecap="round" stroke="rgb(0,0,255)" stroke-width="1.874998" fill="none" d="M 0.000000 750.000000 L 147.058807 0.000000 " />
<path stroke-linejoin="round" stroke-linecap="round" stroke="rgb(255,0,0)" stroke-width="3.749996" fill="none" d="M 92.592560 277.777924 L 99.397568 298.192902 " />
<path stroke-linejoin="round" stroke-linecap="round" stroke="rgb(0,0,255)" stroke-width="1.874998" fill="none" d="M 0.000000 750.000000 L 141.509415 0.000000 " />
<path stroke-linejoin="round" stroke-linecap="round" stroke="rgb(255,0,0)" stroke-width="3.749996" fill="none" d="M 90.361412 271.084473 L 92.592560 277.777985 " />
<path stroke-linejoin="round" stroke-linecap="round" stroke="rgb(0,0,255)" stroke-width="1.874998" fill="none" d="M 0.000000 750.000000 L 136.363647 0.000000 " />
<path stroke-linejoin="round" stroke-linecap="round" stroke="rgb(255,0,0)" stroke-width="3.749996" fill="none" d="M 88.235268 264.706055 L 90.361412 271.084473 " />
<path stroke-linejoin="round" stroke-linecap="round" stroke="rgb(0,0,255)" stroke-width="1.874998" fill="none" d="M 0.000000 750.000000 L 131.578934 0.000000 " />
<path stroke-linejoin="round" stroke-linecap="round" stroke="rgb(255,0,0)" stroke-width="3.749996" fill="none" d="M 86.206871 258.620880 L 88.235268 264.706055 " />
<path stroke-linejoin="round" stroke-linecap="round" stroke="rgb(0,0,255)" stroke-width="1.874998" fill="none" d="M 0.000000 750.000000 L 127.118645 0.000000 " />
<path stroke-linejoin="round" stroke-linecap="round" stroke="rgb(255,0,0)" stroke-width="3.749996" fill="none" d="M 84.269646 252.809158 L 86.206871 258.620880 " />
<path stroke-linejoin="round" stroke-linecap="round" stroke="rgb(0,0,255)" stroke-width="1.874998" fill="none" d="M 0.000000 750.000000 L 125.000015 0.000000 " />
<path stroke-linejoin="round" stroke-linecap="round" stroke="rgb(255,0,0)" stroke-width="3.749996" fill="none" d="M 83.333305 250.000168 L 84.269646 252.809158 " />
<path stroke-linejoin="round" stroke-linecap="round" stroke="rgb(0,0,255)" stroke-width="1.874998" fill="none" d="M 0.000000 750.000000 L 120.535698 0.000000 " />
<path stroke-linejoin="round" stroke-linecap="round" stroke="rgb(255,0,0)" stroke-width="3.749996" fill="none" d="M 81.325272 243.976059 L 83.333305 250.000168 " />
<path stroke-linejoin="round" stroke-linecap="round" stroke="rgb(0,0,255)" stroke-width="1.874998" fill="none" d="M 0.000000 750.000000 L 113.207550 0.000000 " />
<path stroke-linejoin="round" stroke-linecap="round" stroke="rgb(255,0,0)" stroke-width="3.749996" fill="none" d="M 77.922035 233.766449 L 81.325272 243.976059 " />
<path stroke-linejoin="round" stroke-linecap="round" stroke="rgb(0,0,255)" stroke-width="1.874998" fill="none" d="M 0.000000 750.000000 L 109.090897 0.000000 " />
<path stroke-linejoin="round" stroke-linecap="round" stroke="rgb(255,0,0)" stroke-width="3.749996" fill="none" d="M 75.949341 227.848343 L 77.922035 233.766495 " />
<path stroke-linejoin="round" stroke-linecap="round" stroke="rgb(0,0,255)" stroke-width="1.874998" fill="none" d="M 0.000000 750.000000 L 101.694923 0.000000 " />
<path stroke-linejoin="round" stroke-linecap="round" stroke="rgb(255,0,0)" stroke-width="3.749996" fill="none" d="M 72.289131 216.867691 L 75.949341 227.848343 " />
<path stroke-linejoin="round" stroke-linecap="round" stroke="rgb(0,0,255)" stroke-width="1.874998" fill="none" d="M 0.000000 750.000000 L 87.500008 0.000000 " />
<path stroke-linejoin="round" stroke-linecap="round" stroke="rgb(255,0,0)" stroke-width="3.749996" fill="none" d="M 64.814774 194.444733 L 72.289131 216.867691 " />
<path stroke-linejoin="round" stroke-linecap="round" stroke="rgb(0,0,255)" stroke-width="1.874998" fill="none" d="M 0.000000 750.000000 L 73.770493 0.000000 " />
<path stroke-linejoin="round" stroke-linecap="round" stroke="rgb(255,0,0)" stroke-width="3.749996" fill="none" d="M 56.961983 170.886444 L 64.814774 194.444778 " />
<path stroke-linejoin="round" stroke-linecap="round" stroke="rgb(0,0,255)" stroke-width="1.874998" fill="none" d="M 0.000000 750.000000 L 71.428566 0.000000 " />
<path stroke-linejoin="round" stroke-linecap="round" stroke="rgb(255,0,0)" stroke-width="3.749996" fill="none" d="M 55.555523 166.667053 L 56.961983 170.886490 " />
<path stroke-linejoin="round" stroke-linecap="round" stroke="rgb(0,0,255)" stroke-width="1.874998" fill="none" d="M 0.000000 750.000000 L 69.230766 0.000000 " />
<path stroke-linejoin="round" stroke-linecap="round" stroke="rgb(255,0,0)" stroke-width="3.749996" fill="none" d="M 54.216831 162.650986 L 55.555523 166.667053 " />
<path stroke-linejoin="round" stroke-linecap="round" stroke="rgb(0,0,255)" stroke-width="1.874998" fill="none" d="M 0.000000 750.000000 L 67.164169 0.000000 " />
<path stroke-linejoin="round" stroke-linecap="round" stroke="rgb(255,0,0)" stroke-width="3.749996" fill="none" d="M 52.941128 158.823975 L 54.216831 162.650986 " />
<path stroke-linejoin="round" stroke-linecap="round" stroke="rgb(0,0,255)" stroke-width="1.874998" fill="none" d="M 0.000000 750.000000 L 65.217400 0.000000 " />
<path stroke-linejoin="round" stroke-linecap="round" stroke="rgb(255,0,0)" stroke-width="3.749996" fill="none" d="M 51.724098 155.172943 L 52.941128 158.823975 " />
<path stroke-linejoin="round" stroke-linecap="round" stroke="rgb(0,0,255)" stroke-width="1.874998" fill="none" d="M 0.000000 750.000000 L 60.483879 0.000000 " />
<path stroke-linejoin="round" stroke-linecap="round" stroke="rgb(255,0,0)" stroke-width="3.749996" fill="none" d="M 48.701248 146.104446 L 51.724098 155.172943 " />
<path stroke-linejoin="round" stroke-linecap="round" stroke="rgb(0,0,255)" stroke-width="1.874998" fill="none" d="M 0.000000 750.000000 L 47.619045 0.000000 " />
<path stroke-linejoin="round" stroke-linecap="round" stroke="rgb(255,0,0)" stroke-width="3.749996" fill="none" d="M 39.999962 120.000557 L 48.701248 146.104446 " />
<path stroke-linejoin="round" stroke-linecap="round" stroke="rgb(0,0,255)" stroke-width="1.874998" fill="none" d="M 0.000000 750.000000 L 46.153843 0.000000 " />
<path stroke-linejoin="round" stroke-linecap="round" stroke="rgb(255,0,0)" stroke-width="3.749996" fill="none" d="M 38.961010 116.883743 L 39.999962 120.000557 " />
<path stroke-linejoin="round" stroke-linecap="round" stroke="rgb(0,0,255)" stroke-width="1.874998" fill="none" d="M 0.000000 750.000000 L 44.776127 0.000000 " />
<path stroke-linejoin="round" stroke-linecap="round" stroke="rgb(255,0,0)" stroke-width="3.749996" fill="none" d="M 37.974648 113.924728 L 38.961010 116.883781 " />
<path stroke-linejoin="round" stroke-linecap="round" stroke="rgb(0,0,255)" stroke-width="1.874998" fill="none" d="M 0.000000 750.000000 L 43.478249 0.000000 " />
<path stroke-linejoin="round" stroke-linecap="round" stroke="rgb(255,0,0)" stroke-width="3.749996" fill="none" d="M 37.036991 111.111763 L 37.974648 113.924728 " />
<path stroke-linejoin="round" stroke-linecap="round" stroke="rgb(0,0,255)" stroke-width="1.874998" fill="none" d="M 0.000000 750.000000 L 42.253510 0.000000 " />
<path stroke-linejoin="round" stroke-linecap="round" stroke="rgb(255,0,0)" stroke-width="3.749996" fill="none" d="M 36.144531 108.434471 L 37.036991 111.111763 " />
<path stroke-linejoin="round" stroke-linecap="round" stroke="rgb(0,0,255)" stroke-width="1.874998" fill="none" d="M 0.000000 750.000000 L 41.095890 0.000000 " />
<path stroke-linejoin="round" stroke-linecap="round" stroke="rgb(255,0,0)" stroke-width="3.749996" fill="none" d="M 35.294071 105.883110 L 36.144531 108.434517 " />
<path stroke-linejoin="round" stroke-linecap="round" stroke="rgb(0,0,255)" stroke-width="1.874998" fill="none" d="M 0.000000 750.000000 L 40.000008 0.000000 " />
<path stroke-linejoin="round" stroke-linecap="round" stroke="rgb(255,0,0)" stroke-width="3.749996" fill="none" d="M 34.482723 103.449043 L 35.294071 105.883110 " />
<path stroke-linejoin="round" stroke-linecap="round" stroke="rgb(0,0,255)" stroke-width="1.874998" fill="none" d="M 0.000000 750.000000 L 34.090919 0.000000 " />
<path stroke-linejoin="round" stroke-linecap="round" stroke="rgb(255,0,0)" stroke-width="3.749996" fill="none" d="M 29.999971 90.000809 L 34.482723 103.449043 " />
<path stroke-linejoin="round" stroke-linecap="round" stroke="rgb(0,0,255)" stroke-width="1.874998" fill="none" d="M 0.000000 750.000000 L 33.088245 0.000000 " />
<path stroke-linejoin="round" stroke-linecap="round" stroke="rgb(255,0,0)" stroke-width="3.749996" fill="none" d="M 29.220745 87.663177 L 29.999971 90.000900 " />
<path stroke-linejoin="round" stroke-linecap="round" stroke="rgb(0,0,255)" stroke-width="1.874998" fill="none" d="M 0.000000 750.000000 L 30.405409 0.000000 " />
<path stroke-linejoin="round" stroke-linecap="round" stroke="rgb(255,0,0)" stroke-width="3.749996" fill="none" d="M 27.108393 81.326187 L 29.220745 87.663177 " />
<path stroke-linejoin="round" stroke-linecap="round" stroke="rgb(0,0,255)" stroke-width="1.874998" fill="none" d="M 0.000000 750.000000 L 20.000004 0.000000 " />
<path stroke-linejoin="round" stroke-linecap="round" stroke="rgb(255,0,0)" stroke-width="3.749996" fill="none" d="M 18.518486 55.556507 L 27.108393 81.326187 " />
<path stroke-linejoin="round" stroke-linecap="round" stroke="rgb(0,0,255)" stroke-width="1.874998" fill="none" d="M 0.000000 750.000000 L 9.868428 0.000000 " />
<path stroke-linejoin="round" stroke-linecap="round" stroke="rgb(255,0,0)" stroke-width="3.749996" fill="none" d="M 9.493656 28.482065 L 18.518486 55.556549 " />
<path stroke-linejoin="round" stroke-linecap="round" stroke="rgb(0,0,255)" stroke-width="1.874998" fill="none" d="M 0.000000 750.000000 L 0.000000 0.000000 " />
<path stroke-linejoin="round" stroke-linecap="round" stroke="rgb(255,0,0)" stroke-width="3.749996" fill="none" d="M 0.000000 0.000000 L 9.493656 28.482065 " />
<circle cx="372.047246" cy="741.141737" r="3.750000" style="fill:rgb(0,127,0);stroke-width:1" /><circle cx="363.188982" cy="732.283473" r="3.750000" style="fill:rgb(0,127,0);stroke-width:1" /><circle cx="354.330696" cy="723.425187" r="3.749999" style="fill:rgb(0,127,0);stroke-width:1" /><circle cx="345.472433" cy="714.566924" r="3.749999" style="fill:rgb(0,127,0);stroke-width:1" /><circle cx="338.582687" cy="707.677156" r="3.749999" style="fill:rgb(0,127,0);stroke-width:1" /><circle cx="336.614192" cy="705.708660" r="3.749999" style="fill:rgb(0,127,0);stroke-width:1" /><circle cx="327.755928" cy="696.850397" r="3.750001" style="fill:rgb(0,127,0);stroke-width:1" /><circle cx="321.653590" cy="690.748036" r="3.750002" style="fill:rgb(0,127,0);stroke-width:1" /><circle cx="318.897687" cy="687.992111" r="3.750002" style="fill:rgb(0,127,0);stroke-width:1" /><circle cx="310.039401" cy="679.133847" r="3.750002" style="fill:rgb(0,127,0);stroke-width:1" /><circle cx="304.724447" cy="673.818894" r="3.750002" style="fill:rgb(0,127,0);stroke-width:1" /><circle cx="301.181138" cy="670.275584" r="3.750002" style="fill:rgb(0,127,0);stroke-width:1" /><circle cx="296.259888" cy="665.354311" r="3.750002" style="fill:rgb(0,127,0);stroke-width:1" /><circle cx="292.322941" cy="661.417276" r="3.750002" style="fill:rgb(0,127,0);stroke-width:1" /><circle cx="283.464678" cy="652.559012" r="3.749999" style="fill:rgb(0,127,0);stroke-width:1" /><circle cx="279.330857" cy="648.425147" r="3.749999" style="fill:rgb(0,127,0);stroke-width:1" /><circle cx="270.866297" cy="639.960565" r="3.749996" style="fill:rgb(0,127,0);stroke-width:1" /><circle cx="262.401715" cy="631.496005" r="3.749996" style="fill:rgb(0,127,0);stroke-width:1" /><circle cx="259.340063" cy="628.434330" r="3.749996" style="fill:rgb(0,127,0);stroke-width:1" /><circle cx="253.937155" cy="623.031422" r="3.749996" style="fill:rgb(0,127,0);stroke-width:1" /><circle cx="251.235679" cy="620.329991" r="3.749996" style="fill:rgb(0,127,0);stroke-width:1" /><circle cx="245.472550" cy="614.566863" r="3.749996" style="fill:rgb(0,127,0);stroke-width:1" /><circle cx="243.131317" cy="612.225585" r="3.749996" style="fill:rgb(0,127,0);stroke-width:1" /><circle cx="237.007990" cy="606.102303" r="3.749996" style="fill:rgb(0,127,0);stroke-width:1" /><circle cx="235.026933" cy="604.121223" r="3.749996" style="fill:rgb(0,127,0);stroke-width:1" /><circle cx="228.543408" cy="597.637720" r="3.749996" style="fill:rgb(0,127,0);stroke-width:1" /><circle cx="220.078871" cy="589.173138" r="3.749996" style="fill:rgb(0,127,0);stroke-width:1" /><circle cx="211.614288" cy="580.708578" r="3.749996" style="fill:rgb(0,127,0);stroke-width:1" /><circle cx="203.149706" cy="572.244018" r="3.749996" style="fill:rgb(0,127,0);stroke-width:1" /><circle cx="202.609420" cy="571.703710" r="3.749996" style="fill:rgb(0,127,0);stroke-width:1" /><circle cx="185.406759" cy="520.095639" r="3.749996" style="fill:rgb(0,127,0);stroke-width:1" /><circle cx="177.990451" cy="512.679376" r="3.749996" style="fill:rgb(0,127,0);stroke-width:1" /><circle cx="169.514738" cy="504.203618" r="3.749996" style="fill:rgb(0,127,0);stroke-width:1" /><circle cx="163.793117" cy="491.379283" r="3.749996" style="fill:rgb(0,127,0);stroke-width:1" /><circle cx="160.112366" cy="480.337076" r="3.749996" style="fill:rgb(0,127,0);stroke-width:1" /><circle cx="155.172408" cy="465.517245" r="3.749996" style="fill:rgb(0,127,0);stroke-width:1" /><circle cx="151.685402" cy="455.056183" r="3.749996" style="fill:rgb(0,127,0);stroke-width:1" /><circle cx="146.551721" cy="439.655162" r="3.749996" style="fill:rgb(0,127,0);stroke-width:1" /><circle cx="141.176462" cy="423.529409" r="3.749996" style="fill:rgb(0,127,0);stroke-width:1" /><circle cx="135.542169" cy="406.626508" r="3.749996" style="fill:rgb(0,127,0);stroke-width:1" /><circle cx="129.629642" cy="388.888881" r="3.749996" style="fill:rgb(0,127,0);stroke-width:1" /><circle cx="126.506031" cy="379.518047" r="3.749996" style="fill:rgb(0,127,0);stroke-width:1" /><circle cx="123.529404" cy="370.588213" r="3.749996" style="fill:rgb(0,127,0);stroke-width:1" /><circle cx="120.689660" cy="362.068981" r="3.749996" style="fill:rgb(0,127,0);stroke-width:1" /><circle cx="117.977500" cy="353.932634" r="3.749996" style="fill:rgb(0,127,0);stroke-width:1" /><circle cx="112.068951" cy="336.206943" r="3.749996" style="fill:rgb(0,127,0);stroke-width:1" /><circle cx="105.882347" cy="317.647129" r="3.749996" style="fill:rgb(0,127,0);stroke-width:1" /><circle cx="99.397570" cy="298.192888" r="3.749996" style="fill:rgb(0,127,0);stroke-width:1" /><circle cx="92.592560" cy="277.777925" r="3.749996" style="fill:rgb(0,127,0);stroke-width:1" /><circle cx="90.361409" cy="271.084473" r="3.749996" style="fill:rgb(0,127,0);stroke-width:1" /><circle cx="88.235267" cy="264.706045" r="3.749996" style="fill:rgb(0,127,0);stroke-width:1" /><circle cx="86.206868" cy="258.620873" r="3.749996" style="fill:rgb(0,127,0);stroke-width:1" /><circle cx="84.269643" cy="252.809152" r="3.749996" style="fill:rgb(0,127,0);stroke-width:1" /><circle cx="83.333306" cy="250.000164" r="3.749996" style="fill:rgb(0,127,0);stroke-width:1" /><circle cx="81.325270" cy="243.976057" r="3.749996" style="fill:rgb(0,127,0);stroke-width:1" /><circle cx="77.922039" cy="233.766451" r="3.749996" style="fill:rgb(0,127,0);stroke-width:1" /><circle cx="75.949341" cy="227.848336" r="3.749996" style="fill:rgb(0,127,0);stroke-width:1" /><circle cx="72.289132" cy="216.867685" r="3.749996" style="fill:rgb(0,127,0);stroke-width:1" /><circle cx="64.814776" cy="194.444731" r="3.749996" style="fill:rgb(0,127,0);stroke-width:1" /><circle cx="56.961983" cy="170.886442" r="3.749996" style="fill:rgb(0,127,0);stroke-width:1" /><circle cx="55.555522" cy="166.667059" r="3.749996" style="fill:rgb(0,127,0);stroke-width:1" /><circle cx="54.216832" cy="162.650988" r="3.749996" style="fill:rgb(0,127,0);stroke-width:1" /><circle cx="52.941129" cy="158.823967" r="3.749996" style="fill:rgb(0,127,0);stroke-width:1" /><circle cx="51.724099" cy="155.172944" r="3.749996" style="fill:rgb(0,127,0);stroke-width:1" /><circle cx="48.701249" cy="146.104440" r="3.749996" style="fill:rgb(0,127,0);stroke-width:1" /><circle cx="39.999962" cy="120.000556" r="3.749996" style="fill:rgb(0,127,0);stroke-width:1" /><circle cx="38.961008" cy="116.883740" r="3.749996" style="fill:rgb(0,127,0);stroke-width:1" /><circle cx="37.974648" cy="113.924727" r="3.749996" style="fill:rgb(0,127,0);stroke-width:1" /><circle cx="37.036993" cy="111.111760" r="3.749996" style="fill:rgb(0,127,0);stroke-width:1" /><circle cx="36.144532" cy="108.434469" r="3.749996" style="fill:rgb(0,127,0);stroke-width:1" /><circle cx="35.294071" cy="105.883107" r="3.749996" style="fill:rgb(0,127,0);stroke-width:1" /><circle cx="34.482725" cy="103.449047" r="3.749996" style="fill:rgb(0,127,0);stroke-width:1" /><circle cx="29.999971" cy="90.000808" r="3.749996" style="fill:rgb(0,127,0);stroke-width:1" /><circle cx="29.220745" cy="87.663174" r="3.749996" style="fill:rgb(0,127,0);stroke-width:1" /><circle cx="27.108394" cy="81.326187" r="3.749996" style="fill:rgb(0,127,0);stroke-width:1" /><circle cx="18.518485" cy="55.556506" r="3.749996" style="fill:rgb(0,127,0);stroke-width:1" /><circle cx="9.493656" cy="28.482065" r="3.749996" style="fill:rgb(0,127,0);stroke-width:1" /><circle cx="750.000000" cy="750.000000" r="3.749996" style="fill:rgb(0,127,0);stroke-width:1" /><path stroke-linejoin="round" stroke-linecap="round" stroke="rgb(255,255,255)" stroke-width="3.749996" fill="none" d="M 0.000000 750.000000 L 750.000000 750.000000 M 0.000000 750.000000 L 0.000000 0.000000 " />

</svg>