<svg xmlns="http://www.w3.org/2000/svg" version="1.1" width = "750" height = "750" viewBox = "0 0 750 750"  shape-rendering="crispEdges">
<path stroke-linejoin="round" stroke-linecap="round" stroke="rgb(255,255,0)" stroke-width="3.749996" fill="none" d="M 149.999985 750.000000 L 0.000000 0.000000 " />
<path stroke-linejoin="round" stroke-linecap="round" stroke="rgb(63,63,63)" stroke-width="3.749996" fill="none" d="M 0.000000 0.000000 L 750.000000 750.000000 M 149.999985 750.000000 L 66.666664 0.000000 " />
<path stroke-linejoin="round" stroke-linecap="round" stroke="rgb(191,191,191)" stroke-width="3.749996" fill="none" d="M 0.000000 600.000000 L 149.999985 750.000000 M 0.000000 0.000000 L 83.333328 750.000000 " />
<path stroke-linejoin="round" stroke-linecap="round" stroke="rgb(0,0,255)" stroke-width="1.874998" fill="none" d="M 0.000000 750.000000 L 750.000000 728.571411 " />
<path stroke-linejoin="round" stroke-linecap="round" stroke="rgb(255,0,0)" stroke-width="3.749996" fill="none" d="M 149.525330 745.727844 L 149.999985 750.000000 " />
<path stroke-linejoin="round" stroke-linecap="round" stroke="rgb(0,0,255)" stroke-width="1.874998" fill="none" d="M 0.000000 750.000000 L 750.000000 708.333313 " />
<path stroke-linejoin="round" stroke-linecap="round" stroke="rgb(255,0,0)" stroke-width="3.749996" fill="none" d="M 148.204849 741.766418 L 149.525330 745.727844 " />
<path stroke-linejoin="round" stroke-linecap="round" stroke="rgb(0,0,255)" stroke-width="1.874998" fill="none" d="M 0.000000 750.000000 L 750.000000 705.882385 " />
<path stroke-linejoin="round" stroke-linecap="round" stroke="rgb(255,0,0)" stroke-width="3.749996" fill="none" d="M 148.046494 741.291382 L 148.204849 741.766418 " />
<path stroke-linejoin="round" stroke-linecap="round" stroke="rgb(0,0,255)" stroke-width="1.874998" fill="none" d="M 0.000000 750.000000 L 750.000000 681.818176 " />
<path stroke-linejoin="round" stroke-linecap="round" stroke="rgb(255,0,0)" stroke-width="3.749996" fill="none" d="M 146.509674 736.680969 L 148.046494 741.291382 " />
<path stroke-linejoin="round" stroke-linecap="round" stroke="rgb(0,0,255)" stroke-width="1.874998" fill="none" d="M 0.000000 750.000000 L 750.000000 656.250000 " />
<path stroke-linejoin="round" stroke-linecap="round" stroke="rgb(255,0,0)" stroke-width="3.749996" fill="none" d="M 144.911392 731.886047 L 146.509659 736.680969 " />
<path stroke-linejoin="round" stroke-linecap="round" stroke="rgb(0,0,255)" stroke-width="1.874998" fill="none" d="M 0.000000 750.000000 L 750.000000 636.363647 " />
<path stroke-linejoin="round" stroke-linecap="round" stroke="rgb(255,0,0)" stroke-width="3.749996" fill="none" d="M 143.692169 728.228455 L 144.911392 731.886047 " />
<path stroke-linejoin="round" stroke-linecap="round" stroke="rgb(0,0,255)" stroke-width="1.874998" fill="none" d="M 0.000000 750.000000 L 750.000000 629.032288 " />
<path stroke-linejoin="round" stroke-linecap="round" stroke="rgb(255,0,0)" stroke-width="3.749996" fill="none" d="M 143.247864 726.895508 L 143.692169 728.228455 " />
<path stroke-linejoin="round" stroke-linecap="round" stroke="rgb(0,0,255)" stroke-width="1.874998" fill="none" d="M 0.000000 750.000000 L 750.000000 609.375000 " />
<path stroke-linejoin="round" stroke-linecap="round" stroke="rgb(255,0,0)" stroke-width="3.749996" fill="none" d="M 142.069977 723.361938 L 143.247864 726.895508 " />
<path stroke-linejoin="round" stroke-linecap="round" stroke="rgb(0,0,255)" stroke-width="1.874998" fill="none" d="M 0.000000 750.000000 L 750.000000 580.645142 " />
<path stroke-linejoin="round" stroke-linecap="round" stroke="rgb(255,0,0)" stroke-width="3.749996" fill="none" d="M 140.382889 718.300598 L 142.069977 723.361938 " />
<path stroke-linejoin="round" stroke-linecap="round" stroke="rgb(0,0,255)" stroke-width="1.874998" fill="none" d="M 0.000000 750.000000 L 750.000000 562.500000 " />
<path stroke-linejoin="round" stroke-linecap="round" stroke="rgb(255,0,0)" stroke-width="3.749996" fill="none" d="M 139.337875 715.165527 L 140.382889 718.300598 " />
<path stroke-linejoin="round" stroke-linecap="round" stroke="rgb(0,0,255)" stroke-width="1.874998" fill="none" d="M 0.000000 750.000000 L 750.000000 550.000000 " />
<path stroke-linejoin="round" stroke-linecap="round" stroke="rgb(255,0,0)" stroke-width="3.749996" fill="none" d="M 138.626953 713.032837 L 139.337875 715.165527 " />
<path stroke-linejoin="round" stroke-linecap="round" stroke="rgb(0,0,255)" stroke-width="1.874998" fill="none" d="M 0.000000 750.000000 L 750.000000 532.258118 " />
<path stroke-linejoin="round" stroke-linecap="round" stroke="rgb(255,0,0)" stroke-width="3.749996" fill="none" d="M 137.630295 710.042847 L 138.626953 713.032837 " />
<path stroke-linejoin="round" stroke-linecap="round" stroke="rgb(0,0,255)" stroke-width="1.874998" fill="none" d="M 0.000000 750.000000 L 750.000000 499.999969 " />
<path stroke-linejoin="round" stroke-linecap="round" stroke="rgb(255,0,0)" stroke-width="3.749996" fill="none" d="M 135.854416 704.715210 L 137.630295 710.042847 " />
<path stroke-linejoin="round" stroke-linecap="round" stroke="rgb(0,0,255)" stroke-width="1.874998" fill="none" d="M 0.000000 750.000000 L 750.000000 483.870941 " />
<path stroke-linejoin="round" stroke-linecap="round" stroke="rgb(255,0,0)" stroke-width="3.749996" fill="none" d="M 134.983551 702.102661 L 135.854416 704.715210 " />
<path stroke-linejoin="round" stroke-linecap="round" stroke="rgb(0,0,255)" stroke-width="1.874998" fill="none" d="M 0.000000 750.000000 L 750.000000 465.517212 " />
<path stroke-linejoin="round" stroke-linecap="round" stroke="rgb(255,0,0)" stroke-width="3.749996" fill="none" d="M 134.006073 699.170105 L 134.983551 702.102661 " />
<path stroke-linejoin="round" stroke-linecap="round" stroke="rgb(0,0,255)" stroke-width="1.874998" fill="none" d="M 0.000000 750.000000 L 750.000000 450.000031 " />
<path stroke-linejoin="round" stroke-linecap="round" stroke="rgb(255,0,0)" stroke-width="3.749996" fill="none" d="M 133.190613 696.723755 L 134.006073 699.170105 " />
<path stroke-linejoin="round" stroke-linecap="round" stroke="rgb(0,0,255)" stroke-width="1.874998" fill="none" d="M 0.000000 750.000000 L 750.000000 413.793091 " />
<path stroke-linejoin="round" stroke-linecap="round" stroke="rgb(255,0,0)" stroke-width="3.749996" fill="none" d="M 131.325943 691.129761 L 133.190613 696.723755 " />
<path stroke-linejoin="round" stroke-linecap="round" stroke="rgb(0,0,255)" stroke-width="1.874998" fill="none" d="M 0.000000 750.000000 L 750.000000 375.000000 " />
<path stroke-linejoin="round" stroke-linecap="round" stroke="rgb(255,0,0)" stroke-width="3.749996" fill="none" d="M 129.385162 685.307434 L 131.325943 691.129761 " />
<path stroke-linejoin="round" stroke-linecap="round" stroke="rgb(0,0,255)" stroke-width="1.874998" fill="none" d="M 0.000000 750.000000 L 750.000000 362.068970 " />
<path stroke-linejoin="round" stroke-linecap="round" stroke="rgb(255,0,0)" stroke-width="3.749996" fill="none" d="M 128.750900 683.404663 L 129.385162 685.307434 " />
<path stroke-linejoin="round" stroke-linecap="round" stroke="rgb(0,0,255)" stroke-width="1.874998" fill="none" d="M 0.000000 750.000000 L 750.000000 321.428558 " />
<path stroke-linejoin="round" stroke-linecap="round" stroke="rgb(255,0,0)" stroke-width="3.749996" fill="none" d="M 126.797455 677.544312 L 128.750900 683.404663 " />
<path stroke-linejoin="round" stroke-linecap="round" stroke="rgb(0,0,255)" stroke-width="1.874998" fill="none" d="M 0.000000 750.000000 L 750.000000 288.461517 " />
<path stroke-linejoin="round" stroke-linecap="round" stroke="rgb(255,0,0)" stroke-width="3.749996" fill="none" d="M 125.255852 672.919495 L 126.797455 677.544312 " />
<path stroke-linejoin="round" stroke-linecap="round" stroke="rgb(0,0,255)" stroke-width="1.874998" fill="none" d="M 0.000000 750.000000 L 750.000000 240.000000 " />
<path stroke-linejoin="round" stroke-linecap="round" stroke="rgb(255,0,0)" stroke-width="3.749996" fill="none" d="M 123.056534 666.321533 L 125.255852 672.919495 " />
<path stroke-linejoin="round" stroke-linecap="round" stroke="rgb(0,0,255)" stroke-width="1.874998" fill="none" d="M 0.000000 750.000000 L 750.000000 187.500000 " />
<path stroke-linejoin="round" stroke-linecap="round" stroke="rgb(255,0,0)" stroke-width="3.749996" fill="none" d="M 120.759491 659.430359 L 123.056534 666.321533 " />
<path stroke-linejoin="round" stroke-linecap="round" stroke="rgb(0,0,255)" stroke-width="1.874998" fill="none" d="M 0.000000 750.000000 L 750.000000 180.000000 " />
<path stroke-linejoin="round" stroke-linecap="round" stroke="rgb(255,0,0)" stroke-width="3.749996" fill="none" d="M 120.438316 658.466919 L 120.759491 659.430359 " />
<path stroke-linejoin="round" stroke-linecap="round" stroke="rgb(0,0,255)" stroke-width="1.874998" fill="none" d="M 0.000000 750.000000 L 750.000000 125.000015 " />
<path stroke-linejoin="round" stroke-linecap="round" stroke="rgb(255,0,0)" stroke-width="3.749996" fill="none" d="M 118.134277 651.554810 L 120.438316 658.466919 " />
<path stroke-linejoin="round" stroke-linecap="round" stroke="rgb(0,0,255)" stroke-width="1.874998" fill="none" d="M 0.000000 750.000000 L 750.000000 120.000023 " />
<path stroke-linejoin="round" stroke-linecap="round" stroke="rgb(255,0,0)" stroke-width="3.749996" fill="none" d="M 117.929176 650.939514 L 118.134277 651.554810 " />
<path stroke-linejoin="round" stroke-linecap="round" stroke="rgb(0,0,255)" stroke-width="1.874998" fill="none" d="M 0.000000 750.000000 L 750.000000 62.499985 " />
<path stroke-linejoin="round" stroke-linecap="round" stroke="rgb(255,0,0)" stroke-width="3.749996" fill="none" d="M 115.620773 644.014282 L 117.929176 650.939514 " />
<path stroke-linejoin="round" stroke-linecap="round" stroke="rgb(0,0,255)" stroke-width="1.874998" fill="none" d="M 0.000000 750.000000 L 750.000000 59.999989 " />
<path stroke-linejoin="round" stroke-linecap="round" stroke="rgb(255,0,0)" stroke-width="3.749996" fill="none" d="M 115.522453 643.719360 L 115.620773 644.014282 " />
<path stroke-linejoin="round" stroke-linecap="round" stroke="rgb(0,0,255)" stroke-width="1.874998" fill="none" d="M 0.000000 750.000000 L 750.000000 0.000000 " />
<path stroke-linejoin="round" stroke-linecap="round" stroke="rgb(255,0,0)" stroke-width="3.749996" fill="none" d="M 113.212021 636.787964 L 115.522453 643.719360 " />
<path stroke-linejoin="round" stroke-linecap="round" stroke="rgb(0,0,255)" stroke-width="1.874998" fill="none" d="M 0.000000 750.000000 L 690.000000 0.000000 " />
<path stroke-linejoin="round" stroke-linecap="round" stroke="rgb(255,0,0)" stroke-width="3.749996" fill="none" d="M 110.803238 629.561707 L 113.212021 636.787964 " />
<path stroke-linejoin="round" stroke-linecap="round" stroke="rgb(0,0,255)" stroke-width="1.874998" fill="none" d="M 0.000000 750.000000 L 634.615417 0.000000 " />
<path stroke-linejoin="round" stroke-linecap="round" stroke="rgb(255,0,0)" stroke-width="3.749996" fill="none" d="M 108.289764 622.021240 L 110.803238 629.561707 " />
<path stroke-linejoin="round" stroke-linecap="round" stroke="rgb(0,0,255)" stroke-width="1.874998" fill="none" d="M 0.000000 750.000000 L 583.333313 0.000000 " />
<path stroke-linejoin="round" stroke-linecap="round" stroke="rgb(255,0,0)" stroke-width="3.749996" fill="none" d="M 105.664551 614.145569 L 108.289764 622.021240 " />
<path stroke-linejoin="round" stroke-linecap="round" stroke="rgb(0,0,255)" stroke-width="1.874998" fill="none" d="M 0.000000 750.000000 L 535.714294 0.000000 " />
<path stroke-linejoin="round" stroke-linecap="round" stroke="rgb(255,0,0)" stroke-width="3.749996" fill="none" d="M 102.920006 605.911987 L 105.664551 614.145569 " />
<path stroke-linejoin="round" stroke-linecap="round" stroke="rgb(0,0,255)" stroke-width="1.874998" fill="none" d="M 0.000000 750.000000 L 500.000000 0.000000 " />
<path stroke-linejoin="round" stroke-linecap="round" stroke="rgb(255,0,0)" stroke-width="3.749996" fill="none" d="M 100.632904 599.050659 L 102.920006 605.911987 " />
<path stroke-linejoin="round" stroke-linecap="round" stroke="rgb(0,0,255)" stroke-width="1.874998" fill="none" d="M 0.000000 750.000000 L 468.750000 0.000000 " />
<path stroke-linejoin="round" stroke-linecap="round" stroke="rgb(255,0,0)" stroke-width="3.749996" fill="none" d="M 98.445229 592.487610 L 100.632904 599.050659 " />
<path stroke-linejoin="round" stroke-linecap="round" stroke="rgb(0,0,255)" stroke-width="1.874998" fill="none" d="M 0.000000 750.000000 L 441.176453 0.000000 " />
<path stroke-linejoin="round" stroke-linecap="round" stroke="rgb(255,0,0)" stroke-width="3.749996" fill="none" d="M 96.350647 586.203918 L 98.445229 592.487610 " />
<path stroke-linejoin="round" stroke-linecap="round" stroke="rgb(0,0,255)" stroke-width="1.874998" fill="none" d="M 0.000000 750.000000 L 407.142883 0.000000 " />
<path stroke-linejoin="round" stroke-linecap="round" stroke="rgb(255,0,0)" stroke-width="3.749996" fill="none" d="M 93.522972 577.720825 L 96.350647 586.203918 " />
<path stroke-linejoin="round" stroke-linecap="round" stroke="rgb(0,0,255)" stroke-width="1.874998" fill="none" d="M 0.000000 750.000000 L 375.000000 0.000000 " />
<path stroke-linejoin="round" stroke-linecap="round" stroke="rgb(255,0,0)" stroke-width="3.749996" fill="none" d="M 90.569618 568.860779 L 93.522972 577.720825 " />
<path stroke-linejoin="round" stroke-linecap="round" stroke="rgb(0,0,255)" stroke-width="1.874998" fill="none" d="M 0.000000 750.000000 L 355.263153 0.000000 " />
<path stroke-linejoin="round" stroke-linecap="round" stroke="rgb(255,0,0)" stroke-width="3.749996" fill="none" d="M 88.600693 562.954041 L 90.569618 568.860779 " />
<path stroke-linejoin="round" stroke-linecap="round" stroke="rgb(0,0,255)" stroke-width="1.874998" fill="none" d="M 0.000000 750.000000 L 337.500000 0.000000 " />
<path stroke-linejoin="round" stroke-linecap="round" stroke="rgb(255,0,0)" stroke-width="3.749996" fill="none" d="M 86.715591 557.298706 L 88.600693 562.954041 " />
<path stroke-linejoin="round" stroke-linecap="round" stroke="rgb(0,0,255)" stroke-width="1.874998" fill="none" d="M 0.000000 750.000000 L 321.428589 0.000000 " />
<path stroke-linejoin="round" stroke-linecap="round" stroke="rgb(255,0,0)" stroke-width="3.749996" fill="none" d="M 84.909012 551.878967 L 86.715591 557.298706 " />
<path stroke-linejoin="round" stroke-linecap="round" stroke="rgb(0,0,255)" stroke-width="1.874998" fill="none" d="M 0.000000 750.000000 L 310.975616 0.000000 " />
<path stroke-linejoin="round" stroke-linecap="round" stroke="rgb(255,0,0)" stroke-width="3.749996" fill="none" d="M 83.678436 548.187256 L 84.909012 551.878967 " />
<path stroke-linejoin="round" stroke-linecap="round" stroke="rgb(0,0,255)" stroke-width="1.874998" fill="none" d="M 0.000000 750.000000 L 300.000000 0.000000 " />
<path stroke-linejoin="round" stroke-linecap="round" stroke="rgb(255,0,0)" stroke-width="3.749996" fill="none" d="M 82.336014 544.159973 L 83.678436 548.187256 " />
<path stroke-linejoin="round" stroke-linecap="round" stroke="rgb(0,0,255)" stroke-width="1.874998" fill="none" d="M 0.000000 750.000000 L 274.390259 0.000000 " />
<path stroke-linejoin="round" stroke-linecap="round" stroke="rgb(255,0,0)" stroke-width="3.749996" fill="none" d="M 78.985107 534.107361 L 82.336014 544.159973 " />
<path stroke-linejoin="round" stroke-linecap="round" stroke="rgb(0,0,255)" stroke-width="1.874998" fill="none" d="M 0.000000 750.000000 L 261.627930 0.000000 " />
<path stroke-linejoin="round" stroke-linecap="round" stroke="rgb(255,0,0)" stroke-width="3.749996" fill="none" d="M 77.189995 528.721985 L 78.985107 534.107361 " />
<path stroke-linejoin="round" stroke-linecap="round" stroke="rgb(0,0,255)" stroke-width="1.874998" fill="none" d="M 0.000000 750.000000 L 250.000000 0.000000 " />
<path stroke-linejoin="round" stroke-linecap="round" stroke="rgb(255,0,0)" stroke-width="3.749996" fill="none" d="M 75.474678 523.575989 L 77.189995 528.721985 " />
<path stroke-linejoin="round" stroke-linecap="round" stroke="rgb(0,0,255)" stroke-width="1.874998" fill="none" d="M 0.000000 750.000000 L 228.260864 0.000000 " />
<path stroke-linejoin="round" stroke-linecap="round" stroke="rgb(255,0,0)" stroke-width="3.749996" fill="none" d="M 72.043999 513.283997 L 75.474678 523.575989 " />
<path stroke-linejoin="round" stroke-linecap="round" stroke="rgb(0,0,255)" stroke-width="1.874998" fill="none" d="M 0.000000 750.000000 L 218.750000 0.000000 " />
<path stroke-linejoin="round" stroke-linecap="round" stroke="rgb(255,0,0)" stroke-width="3.749996" fill="none" d="M 70.443031 508.481079 L 72.044022 513.283997 " />
<path stroke-linejoin="round" stroke-linecap="round" stroke="rgb(0,0,255)" stroke-width="1.874998" fill="none" d="M 0.000000 750.000000 L 207.446808 0.000000 " />
<path stroke-linejoin="round" stroke-linecap="round" stroke="rgb(255,0,0)" stroke-width="3.749996" fill="none" d="M 68.453773 502.513275 L 70.443031 508.481079 " />
<path stroke-linejoin="round" stroke-linecap="round" stroke="rgb(0,0,255)" stroke-width="1.874998" fill="none" d="M 0.000000 750.000000 L 198.979584 0.000000 " />
<path stroke-linejoin="round" stroke-linecap="round" stroke="rgb(255,0,0)" stroke-width="3.749996" fill="none" d="M 66.898003 497.845978 L 68.453773 502.513275 " />
<path stroke-linejoin="round" stroke-linecap="round" stroke="rgb(0,0,255)" stroke-width="1.874998" fill="none" d="M 0.000000 750.000000 L 180.000000 0.000000 " />
<path stroke-linejoin="round" stroke-linecap="round" stroke="rgb(255,0,0)" stroke-width="3.749996" fill="none" d="M 63.188107 486.716248 L 66.898003 497.845978 " />
<path stroke-linejoin="round" stroke-linecap="round" stroke="rgb(0,0,255)" stroke-width="1.874998" fill="none" d="M 0.000000 750.000000 L 173.076920 0.000000 " />
<path stroke-linejoin="round" stroke-linecap="round" stroke="rgb(255,0,0)" stroke-width="3.749996" fill="none" d="M 61.752007 482.407990 L 63.188107 486.716248 " />
<path stroke-linejoin="round" stroke-linecap="round" stroke="rgb(0,0,255)" stroke-width="1.874998" fill="none" d="M 0.000000 750.000000 L 166.666656 0.000000 " />
<path stroke-linejoin="round" stroke-linecap="round" stroke="rgb(255,0,0)" stroke-width="3.749996" fill="none" d="M 60.379745 478.291168 L 61.752007 482.407990 " />
<path stroke-linejoin="round" stroke-linecap="round" stroke="rgb(0,0,255)" stroke-width="1.874998" fill="none" d="M 0.000000 750.000000 L 160.714294 0.000000 " />
<path stroke-linejoin="round" stroke-linecap="round" stroke="rgb(255,0,0)" stroke-width="3.749996" fill="none" d="M 59.067139 474.353363 L 60.379745 478.291168 " />
<path stroke-linejoin="round" stroke-linecap="round" stroke="rgb(0,0,255)" stroke-width="1.874998" fill="none" d="M 0.000000 750.000000 L 155.172409 0.000000 " />
<path stroke-linejoin="round" stroke-linecap="round" stroke="rgb(255,0,0)" stroke-width="3.749996" fill="none" d="M 57.810387 470.583099 L 59.067139 474.353363 " />
<path stroke-linejoin="round" stroke-linecap="round" stroke="rgb(0,0,255)" stroke-width="1.874998" fill="none" d="M 0.000000 750.000000 L 152.542374 0.000000 " />
<path stroke-linejoin="round" stroke-linecap="round" stroke="rgb(255,0,0)" stroke-width="3.749996" fill="none" d="M 57.406136 467.753204 L 57.810387 470.583099 " />
<path stroke-linejoin="round" stroke-linecap="round" stroke="rgb(0,0,255)" stroke-width="1.874998" fill="none" d="M 0.000000 750.000000 L 137.500000 0.000000 " />
<path stroke-linejoin="round" stroke-linecap="round" stroke="rgb(255,0,0)" stroke-width="3.749996" fill="none" d="M 53.753948 456.796692 L 57.406136 467.753204 " />
<path stroke-linejoin="round" stroke-linecap="round" stroke="rgb(0,0,255)" stroke-width="1.874998" fill="none" d="M 0.000000 750.000000 L 128.571426 0.000000 " />
<path stroke-linejoin="round" stroke-linecap="round" stroke="rgb(255,0,0)" stroke-width="3.749996" fill="none" d="M 52.167336 445.690521 L 53.753929 456.796722 " />
<path stroke-linejoin="round" stroke-linecap="round" stroke="rgb(0,0,255)" stroke-width="1.874998" fill="none" d="M 0.000000 750.000000 L 125.000015 0.000000 " />
<path stroke-linejoin="round" stroke-linecap="round" stroke="rgb(255,0,0)" stroke-width="3.749996" fill="none" d="M 51.201267 442.792328 L 52.167336 445.690521 " />
<path stroke-linejoin="round" stroke-linecap="round" stroke="rgb(0,0,255)" stroke-width="1.874998" fill="none" d="M 0.000000 750.000000 L 120.967758 0.000000 " />
<path stroke-linejoin="round" stroke-linecap="round" stroke="rgb(255,0,0)" stroke-width="3.749996" fill="none" d="M 50.088196 439.453125 L 51.201267 442.792328 " />
<path stroke-linejoin="round" stroke-linecap="round" stroke="rgb(0,0,255)" stroke-width="1.874998" fill="none" d="M 0.000000 750.000000 L 105.633797 0.000000 " />
<path stroke-linejoin="round" stroke-linecap="round" stroke="rgb(255,0,0)" stroke-width="3.749996" fill="none" d="M 47.140091 415.305298 L 50.088196 439.453125 " />
<path stroke-linejoin="round" stroke-linecap="round" stroke="rgb(0,0,255)" stroke-width="1.874998" fill="none" d="M 0.000000 750.000000 L 101.851837 0.000000 " />
<path stroke-linejoin="round" stroke-linecap="round" stroke="rgb(255,0,0)" stroke-width="3.749996" fill="none" d="M 46.291798 409.124054 L 47.140091 415.305298 " />
<path stroke-linejoin="round" stroke-linecap="round" stroke="rgb(0,0,255)" stroke-width="1.874998" fill="none" d="M 0.000000 750.000000 L 99.999992 0.000000 " />
<path stroke-linejoin="round" stroke-linecap="round" stroke="rgb(255,0,0)" stroke-width="3.749996" fill="none" d="M 45.690605 407.320496 L 46.291798 409.124054 " />
<path stroke-linejoin="round" stroke-linecap="round" stroke="rgb(0,0,255)" stroke-width="1.874998" fill="none" d="M 0.000000 750.000000 L 93.750000 0.000000 " />
<path stroke-linejoin="round" stroke-linecap="round" stroke="rgb(255,0,0)" stroke-width="3.749996" fill="none" d="M 44.181950 396.544403 L 45.690605 407.320496 " />
<path stroke-linejoin="round" stroke-linecap="round" stroke="rgb(0,0,255)" stroke-width="1.874998" fill="none" d="M 0.000000 750.000000 L 90.909096 0.000000 " />
<path stroke-linejoin="round" stroke-linecap="round" stroke="rgb(255,0,0)" stroke-width="3.749996" fill="none" d="M 43.495258 391.164154 L 44.181950 396.544403 " />
<path stroke-linejoin="round" stroke-linecap="round" stroke="rgb(0,0,255)" stroke-width="1.874998" fill="none" d="M 0.000000 750.000000 L 83.333328 0.000000 " />
<path stroke-linejoin="round" stroke-linecap="round" stroke="rgb(255,0,0)" stroke-width="3.749996" fill="none" d="M 41.670753 374.963135 L 43.495258 391.164154 " />
<path stroke-linejoin="round" stroke-linecap="round" stroke="rgb(0,0,255)" stroke-width="1.874998" fill="none" d="M 0.000000 750.000000 L 81.081078 0.000000 " />
<path stroke-linejoin="round" stroke-linecap="round" stroke="rgb(255,0,0)" stroke-width="3.749996" fill="none" d="M 41.096897 369.853638 L 41.670753 374.963135 " />
<path stroke-linejoin="round" stroke-linecap="round" stroke="rgb(0,0,255)" stroke-width="1.874998" fill="none" d="M 0.000000 750.000000 L 71.428566 0.000000 " />
<path stroke-linejoin="round" stroke-linecap="round" stroke="rgb(255,0,0)" stroke-width="3.749996" fill="none" d="M 38.462250 346.146362 L 41.096897 369.853638 " />
<path stroke-linejoin="round" stroke-linecap="round" stroke="rgb(0,0,255)" stroke-width="1.874998" fill="none" d="M 0.000000 750.000000 L 68.965515 0.000000 " />
<path stroke-linejoin="round" stroke-linecap="round" stroke="rgb(255,0,0)" stroke-width="3.749996" fill="none" d="M 37.736378 339.616882 L 38.462250 346.146301 " />
<path stroke-linejoin="round" stroke-linecap="round" stroke="rgb(0,0,255)" stroke-width="1.874998" fill="none" d="M 0.000000 750.000000 L 68.181824 0.000000 " />
<path stroke-linejoin="round" stroke-linecap="round" stroke="rgb(255,0,0)" stroke-width="3.749996" fill="none" d="M 37.500389 337.495667 L 37.736378 339.616882 " />
<path stroke-linejoin="round" stroke-linecap="round" stroke="rgb(0,0,255)" stroke-width="1.874998" fill="none" d="M 0.000000 750.000000 L 55.263161 0.000000 " />
<path stroke-linejoin="round" stroke-linecap="round" stroke="rgb(255,0,0)" stroke-width="3.749996" fill="none" d="M 33.228100 299.047119 L 37.500389 337.495667 " />
<path stroke-linejoin="round" stroke-linecap="round" stroke="rgb(0,0,255)" stroke-width="1.874998" fill="none" d="M 0.000000 750.000000 L 42.857140 0.000000 " />
<path stroke-linejoin="round" stroke-linecap="round" stroke="rgb(255,0,0)" stroke-width="3.749996" fill="none" d="M 28.302044 254.714127 L 33.228100 299.047119 " />
<path stroke-linejoin="round" stroke-linecap="round" stroke="rgb(0,0,255)" stroke-width="1.874998" fill="none" d="M 0.000000 750.000000 L 32.608688 0.000000 " />
<path stroke-linejoin="round" stroke-linecap="round" stroke="rgb(255,0,0)" stroke-width="3.749996" fill="none" d="M 23.437590 210.935181 L 28.302044 254.714142 " />
<path stroke-linejoin="round" stroke-linecap="round" stroke="rgb(0,0,255)" stroke-width="1.874998" fill="none" d="M 0.000000 750.000000 L 24.000004 0.000000 " />
<path stroke-linejoin="round" stroke-linecap="round" stroke="rgb(255,0,0)" stroke-width="3.749996" fill="none" d="M 18.633596 167.699997 L 23.437590 210.935242 " />
<path stroke-linejoin="round" stroke-linecap="round" stroke="rgb(0,0,255)" stroke-width="1.874998" fill="none" d="M 0.000000 750.000000 L 23.622036 0.000000 " />
<path stroke-linejoin="round" stroke-linecap="round" stroke="rgb(255,0,0)" stroke-width="3.749996" fill="none" d="M 18.404961 165.642792 L 18.633596 167.699997 " />
<path stroke-linejoin="round" stroke-linecap="round" stroke="rgb(0,0,255)" stroke-width="1.874998" fill="none" d="M 0.000000 750.000000 L 19.396551 0.000000 " />
<path stroke-linejoin="round" stroke-linecap="round" stroke="rgb(255,0,0)" stroke-width="3.749996" fill="none" d="M 15.734285 141.607330 L 18.404961 165.642792 " />
<path stroke-linejoin="round" stroke-linecap="round" stroke="rgb(0,0,255)" stroke-width="1.874998" fill="none" d="M 0.000000 750.000000 L 17.999992 0.000000 " />
<path stroke-linejoin="round" stroke-linecap="round" stroke="rgb(255,0,0)" stroke-width="3.749996" fill="none" d="M 14.802642 133.222885 L 15.734285 141.607330 " />
<path stroke-linejoin="round" stroke-linecap="round" stroke="rgb(0,0,255)" stroke-width="1.874998" fill="none" d="M 0.000000 750.000000 L 16.423367 0.000000 " />
<path stroke-linejoin="round" stroke-linecap="round" stroke="rgb(255,0,0)" stroke-width="3.749996" fill="none" d="M 13.719522 123.475021 L 14.802642 133.222885 " />
<path stroke-linejoin="round" stroke-linecap="round" stroke="rgb(0,0,255)" stroke-width="1.874998" fill="none" d="M 0.000000 750.000000 L 10.948912 0.000000 " />
<path stroke-linejoin="round" stroke-linecap="round" stroke="rgb(255,0,0)" stroke-width="3.749996" fill="none" d="M 9.677432 87.096268 L 13.719522 123.475021 " />
<path stroke-linejoin="round" stroke-linecap="round" stroke="rgb(0,0,255)" stroke-width="1.874998" fill="none" d="M 0.000000 750.000000 L 5.102031 0.000000 " />
<path stroke-linejoin="round" stroke-linecap="round" stroke="rgb(255,0,0)" stroke-width="3.749996" fill="none" d="M 4.807703 43.268906 L 9.677432 87.096268 " />
<path stroke-linejoin="round" stroke-linecap="round" stroke="rgb(0,0,255)" stroke-width="1.874998" fill="none" d="M 0.000000 750.000000 L 0.000000 0.000000 " />
<path stroke-linejoin="round" stroke-linecap="round" stroke="rgb(255,0,0)" stroke-width="3.749996" fill="none" d="M 0.000000 0.000000 L 4.807703 43.268906 " />
<circle cx="149.525329" cy="745.727845" r="3.749996" style="fill:rgb(0,127,0);stroke-width:1" /><circle cx="148.204856" cy="741.766401" r="3.749996" style="fill:rgb(0,127,0);stroke-width:1" /><circle cx="148.046494" cy="741.291381" r="3.749996" style="fill:rgb(0,127,0);stroke-width:1" /><circle cx="146.509677" cy="736.680932" r="3.749996" style="fill:rgb(0,127,0);stroke-width:1" /><circle cx="144.911394" cy="731.886081" r="3.749996" style="fill:rgb(0,127,0);stroke-width:1" /><circle cx="143.692173" cy="728.228465" r="3.749996" style="fill:rgb(0,127,0);stroke-width:1" /><circle cx="143.247865" cy="726.895496" r="3.749996" style="fill:rgb(0,127,0);stroke-width:1" /><circle cx="142.069973" cy="723.361887" r="3.749996" style="fill:rgb(0,127,0);stroke-width:1" /><circle cx="140.382886" cy="718.300626" r="3.749996" style="fill:rgb(0,127,0);stroke-width:1" /><circle cx="139.337875" cy="715.165526" r="3.749996" style="fill:rgb(0,127,0);stroke-width:1" /><circle cx="138.626955" cy="713.032812" r="3.749996" style="fill:rgb(0,127,0);stroke-width:1" /><circle cx="137.630291" cy="710.042819" r="3.749996" style="fill:rgb(0,127,0);stroke-width:1" /><circle cx="135.854423" cy="704.715192" r="3.749996" style="fill:rgb(0,127,0);stroke-width:1" /><circle cx="134.983554" cy="702.102609" r="3.749996" style="fill:rgb(0,127,0);stroke-width:1" /><circle cx="134.006068" cy="699.170105" r="3.749996" style="fill:rgb(0,127,0);stroke-width:1" /><circle cx="133.190610" cy="696.723752" r="3.749996" style="fill:rgb(0,127,0);stroke-width:1" /><circle cx="131.325938" cy="691.129759" r="3.749996" style="fill:rgb(0,127,0);stroke-width:1" /><circle cx="129.385158" cy="685.307421" r="3.749996" style="fill:rgb(0,127,0);stroke-width:1" /><circle cx="128.750905" cy="683.404706" r="3.749996" style="fill:rgb(0,127,0);stroke-width:1" /><circle cx="126.797453" cy="677.544303" r="3.749996" style="fill:rgb(0,127,0);stroke-width:1" /><circle cx="125.255853" cy="672.919482" r="3.749996" style="fill:rgb(0,127,0);stroke-width:1" /><circle cx="123.056531" cy="666.321561" r="3.749996" style="fill:rgb(0,127,0);stroke-width:1" /><circle cx="120.759487" cy="659.430385" r="3.749996" style="fill:rgb(0,127,0);stroke-width:1" /><circle cx="120.438315" cy="658.466890" r="3.749996" style="fill:rgb(0,127,0);stroke-width:1" /><circle cx="118.134275" cy="651.554771" r="3.749996" style="fill:rgb(0,127,0);stroke-width:1" /><circle cx="117.929175" cy="650.939494" r="3.749996" style="fill:rgb(0,127,0);stroke-width:1" /><circle cx="115.620777" cy="644.014277" r="3.749996" style="fill:rgb(0,127,0);stroke-width:1" /><circle cx="115.522452" cy="643.719345" r="3.749996" style="fill:rgb(0,127,0);stroke-width:1" /><circle cx="113.212019" cy="636.787981" r="3.749996" style="fill:rgb(0,127,0);stroke-width:1" /><circle cx="110.803239" cy="629.561707" r="3.749996" style="fill:rgb(0,127,0);stroke-width:1" /><circle cx="108.289763" cy="622.021213" r="3.749996" style="fill:rgb(0,127,0);stroke-width:1" /><circle cx="105.664551" cy="614.145577" r="3.749996" style="fill:rgb(0,127,0);stroke-width:1" /><circle cx="102.920003" cy="605.912000" r="3.749996" style="fill:rgb(0,127,0);stroke-width:1" /><circle cx="100.632906" cy="599.050641" r="3.749996" style="fill:rgb(0,127,0);stroke-width:1" /><circle cx="98.445229" cy="592.487611" r="3.749996" style="fill:rgb(0,127,0);stroke-width:1" /><circle cx="96.350648" cy="586.203888" r="3.749996" style="fill:rgb(0,127,0);stroke-width:1" /><circle cx="93.522973" cy="577.720843" r="3.749996" style="fill:rgb(0,127,0);stroke-width:1" /><circle cx="90.569615" cy="568.860792" r="3.749996" style="fill:rgb(0,127,0);stroke-width:1" /><circle cx="88.600695" cy="562.954053" r="3.749996" style="fill:rgb(0,127,0);stroke-width:1" /><circle cx="86.715594" cy="557.298694" r="3.749996" style="fill:rgb(0,127,0);stroke-width:1" /><circle cx="84.909014" cy="551.878966" r="3.749996" style="fill:rgb(0,127,0);stroke-width:1" /><circle cx="83.678439" cy="548.187286" r="3.749996" style="fill:rgb(0,127,0);stroke-width:1" /><circle cx="82.336016" cy="544.159971" r="3.749996" style="fill:rgb(0,127,0);stroke-width:1" /><circle cx="78.985110" cy="534.107331" r="3.749996" style="fill:rgb(0,127,0);stroke-width:1" /><circle cx="77.189997" cy="528.721992" r="3.749996" style="fill:rgb(0,127,0);stroke-width:1" /><circle cx="75.474679" cy="523.575995" r="3.749996" style="fill:rgb(0,127,0);stroke-width:1" /><circle cx="72.044000" cy="513.283990" r="3.749996" style="fill:rgb(0,127,0);stroke-width:1" /><circle cx="70.443034" cy="508.481059" r="3.749996" style="fill:rgb(0,127,0);stroke-width:1" /><circle cx="68.453774" cy="502.513289" r="3.749996" style="fill:rgb(0,127,0);stroke-width:1" /><circle cx="66.898003" cy="497.845978" r="3.749996" style="fill:rgb(0,127,0);stroke-width:1" /><circle cx="63.188106" cy="486.716263" r="3.749996" style="fill:rgb(0,127,0);stroke-width:1" /><circle cx="61.752006" cy="482.407965" r="3.749996" style="fill:rgb(0,127,0);stroke-width:1" /><circle cx="60.379744" cy="478.291176" r="3.749996" style="fill:rgb(0,127,0);stroke-width:1" /><circle cx="59.067138" cy="474.353369" r="3.749996" style="fill:rgb(0,127,0);stroke-width:1" /><circle cx="57.810389" cy="470.583111" r="3.749996" style="fill:rgb(0,127,0);stroke-width:1" /><circle cx="57.406135" cy="467.753218" r="3.749996" style="fill:rgb(0,127,0);stroke-width:1" /><circle cx="53.753950" cy="456.796680" r="3.749996" style="fill:rgb(0,127,0);stroke-width:1" /><circle cx="52.167334" cy="445.690513" r="3.749996" style="fill:rgb(0,127,0);stroke-width:1" /><circle cx="51.201269" cy="442.792330" r="3.749996" style="fill:rgb(0,127,0);stroke-width:1" /><circle cx="50.088197" cy="439.453125" r="3.749996" style="fill:rgb(0,127,0);stroke-width:1" /><circle cx="47.140092" cy="415.305303" r="3.749996" style="fill:rgb(0,127,0);stroke-width:1" /><circle cx="46.291798" cy="409.124030" r="3.749996" style="fill:rgb(0,127,0);stroke-width:1" /><circle cx="45.690604" cy="407.320476" r="3.749996" style="fill:rgb(0,127,0);stroke-width:1" /><circle cx="44.181950" cy="396.544397" r="3.749996" style="fill:rgb(0,127,0);stroke-width:1" /><circle cx="43.495260" cy="391.164172" r="3.749996" style="fill:rgb(0,127,0);stroke-width:1" /><circle cx="41.670755" cy="374.963129" r="3.749996" style="fill:rgb(0,127,0);stroke-width:1" /><circle cx="41.096896" cy="369.853628" r="3.749996" style="fill:rgb(0,127,0);stroke-width:1" /><circle cx="38.462251" cy="346.146368" r="3.749996" style="fill:rgb(0,127,0);stroke-width:1" /><circle cx="37.736379" cy="339.616871" r="3.749996" style="fill:rgb(0,127,0);stroke-width:1" /><circle cx="37.500389" cy="337.495672" r="3.749996" style="fill:rgb(0,127,0);stroke-width:1" /><circle cx="33.228099" cy="299.047139" r="3.749996" style="fill:rgb(0,127,0);stroke-width:1" /><circle cx="28.302044" cy="254.714124" r="3.749996" style="fill:rgb(0,127,0);stroke-width:1" /><circle cx="23.437589" cy="210.935175" r="3.749996" style="fill:rgb(0,127,0);stroke-width:1" /><circle cx="18.633597" cy="167.700000" r="3.749996" style="fill:rgb(0,127,0);stroke-width:1" /><circle cx="18.404961" cy="165.642790" r="3.749996" style="fill:rgb(0,127,0);stroke-width:1" /><circle cx="15.734285" cy="141.607337" r="3.749996" style="fill:rgb(0,127,0);stroke-width:1" /><circle cx="14.802642" cy="133.222885" r="3.749996" style="fill:rgb(0,127,0);stroke-width:1" /><circle cx="13.719521" cy="123.475023" r="3.749996" style="fill:rgb(0,127,0);stroke-width:1" /><circle cx="9.677432" cy="87.096266" r="3.749996" style="fill:rgb(0,127,0);stroke-width:1" /><circle cx="4.807703" cy="43.268904" r="3.749996" style="fill:rgb(0,127,0);stroke-width:1" /><circle cx="750.000000" cy="750.000000" r="3.749996" style="fill:rgb(0,127,0);stroke-width:1" /><path stroke-linejoin="round" stroke-linecap="round" stroke="rgb(255,255,255)" stroke-width="3.749996" fill="none" d="M 0.000000 750.000000 L 750.000000 750.000000 M 0.000000 750.000000 L 0.000000 0.000000 " />

</svg>