<svg xmlns="http://www.w3.org/2000/svg" version="1.1" width = "750" height = "750" viewBox = "0 0 750 750"  shape-rendering="crispEdges">
<path stroke-linejoin="round" stroke-linecap="round" stroke="rgb(255,255,0)" stroke-width="3.749996" fill="none" d="M 249.999985 750.000000 L 0.000000 0.000000 " />
<path stroke-linejoin="round" stroke-linecap="round" stroke="rgb(63,63,63)" stroke-width="3.749996" fill="none" d="M 0.000000 0.000000 L 750.000000 750.000000 M 249.999985 750.000000 L 99.999992 0.000000 " />
<path stroke-linejoin="round" stroke-linecap="round" stroke="rgb(191,191,191)" stroke-width="3.749996" fill="none" d="M 0.000000 500.000000 L 249.999985 750.000000 M 0.000000 0.000000 L 150.000015 750.000000 " />
<path stroke-linejoin="round" stroke-linecap="round" stroke="rgb(0,0,255)" stroke-width="1.874998" fill="none" d="M 0.000000 750.000000 L 750.000000 723.214294 " />
<path stroke-linejoin="round" stroke-linecap="round" stroke="rgb(255,0,0)" stroke-width="3.749996" fill="none" d="M 248.226959 741.134766 L 249.999985 750.000000 " />
<path stroke-linejoin="round" stroke-linecap="round" stroke="rgb(0,0,255)" stroke-width="1.874998" fill="none" d="M 0.000000 750.000000 L 750.000000 694.444458 " />
<path stroke-linejoin="round" stroke-linecap="round" stroke="rgb(255,0,0)" stroke-width="3.749996" fill="none" d="M 243.636002 731.952881 L 248.226913 741.134766 " />
<path stroke-linejoin="round" stroke-linecap="round" stroke="rgb(0,0,255)" stroke-width="1.874998" fill="none" d="M 0.000000 750.000000 L 750.000000 663.461548 " />
<path stroke-linejoin="round" stroke-linecap="round" stroke="rgb(255,0,0)" stroke-width="3.749996" fill="none" d="M 238.878113 722.437134 L 243.636002 731.952881 " />
<path stroke-linejoin="round" stroke-linecap="round" stroke="rgb(0,0,255)" stroke-width="1.874998" fill="none" d="M 0.000000 750.000000 L 750.000000 638.888855 " />
<path stroke-linejoin="round" stroke-linecap="round" stroke="rgb(255,0,0)" stroke-width="3.749996" fill="none" d="M 235.234787 715.150391 L 238.878113 722.437134 " />
<path stroke-linejoin="round" stroke-linecap="round" stroke="rgb(0,0,255)" stroke-width="1.874998" fill="none" d="M 0.000000 750.000000 L 750.000000 605.769226 " />
<path stroke-linejoin="round" stroke-linecap="round" stroke="rgb(255,0,0)" stroke-width="3.749996" fill="none" d="M 230.496429 705.673767 L 235.234787 715.150391 " />
<path stroke-linejoin="round" stroke-linecap="round" stroke="rgb(0,0,255)" stroke-width="1.874998" fill="none" d="M 0.000000 750.000000 L 750.000000 570.000000 " />
<path stroke-linejoin="round" stroke-linecap="round" stroke="rgb(255,0,0)" stroke-width="3.749996" fill="none" d="M 225.588882 695.858643 L 230.496429 705.673767 " />
<path stroke-linejoin="round" stroke-linecap="round" stroke="rgb(0,0,255)" stroke-width="1.874998" fill="none" d="M 0.000000 750.000000 L 750.000000 531.250000 " />
<path stroke-linejoin="round" stroke-linecap="round" stroke="rgb(255,0,0)" stroke-width="3.749996" fill="none" d="M 220.502884 685.686646 L 225.588882 695.858643 " />
<path stroke-linejoin="round" stroke-linecap="round" stroke="rgb(0,0,255)" stroke-width="1.874998" fill="none" d="M 0.000000 750.000000 L 750.000000 489.130402 " />
<path stroke-linejoin="round" stroke-linecap="round" stroke="rgb(255,0,0)" stroke-width="3.749996" fill="none" d="M 215.228500 675.137939 L 220.502884 685.686646 " />
<path stroke-linejoin="round" stroke-linecap="round" stroke="rgb(0,0,255)" stroke-width="1.874998" fill="none" d="M 0.000000 750.000000 L 750.000000 443.181854 " />
<path stroke-linejoin="round" stroke-linecap="round" stroke="rgb(255,0,0)" stroke-width="3.749996" fill="none" d="M 209.755096 664.191101 L 215.228500 675.137939 " />
<path stroke-linejoin="round" stroke-linecap="round" stroke="rgb(0,0,255)" stroke-width="1.874998" fill="none" d="M 0.000000 750.000000 L 750.000000 392.857178 " />
<path stroke-linejoin="round" stroke-linecap="round" stroke="rgb(255,0,0)" stroke-width="3.749996" fill="none" d="M 204.071182 652.823242 L 209.755096 664.191101 " />
<path stroke-linejoin="round" stroke-linecap="round" stroke="rgb(0,0,255)" stroke-width="1.874998" fill="none" d="M 0.000000 750.000000 L 750.000000 337.500000 " />
<path stroke-linejoin="round" stroke-linecap="round" stroke="rgb(255,0,0)" stroke-width="3.749996" fill="none" d="M 198.164322 641.009583 L 204.071136 652.823242 " />
<path stroke-linejoin="round" stroke-linecap="round" stroke="rgb(0,0,255)" stroke-width="1.874998" fill="none" d="M 0.000000 750.000000 L 750.000000 276.315796 " />
<path stroke-linejoin="round" stroke-linecap="round" stroke="rgb(255,0,0)" stroke-width="3.749996" fill="none" d="M 192.021271 628.723450 L 198.164322 641.009583 " />
<path stroke-linejoin="round" stroke-linecap="round" stroke="rgb(0,0,255)" stroke-width="1.874998" fill="none" d="M 0.000000 750.000000 L 750.000000 208.333344 " />
<path stroke-linejoin="round" stroke-linecap="round" stroke="rgb(255,0,0)" stroke-width="3.749996" fill="none" d="M 185.627396 615.935791 L 192.021271 628.723450 " />
<path stroke-linejoin="round" stroke-linecap="round" stroke="rgb(0,0,255)" stroke-width="1.874998" fill="none" d="M 0.000000 750.000000 L 750.000000 197.368423 " />
<path stroke-linejoin="round" stroke-linecap="round" stroke="rgb(255,0,0)" stroke-width="3.749996" fill="none" d="M 184.635788 613.952576 L 185.627365 615.935791 " />
<path stroke-linejoin="round" stroke-linecap="round" stroke="rgb(0,0,255)" stroke-width="1.874998" fill="none" d="M 0.000000 750.000000 L 750.000000 125.000015 " />
<path stroke-linejoin="round" stroke-linecap="round" stroke="rgb(255,0,0)" stroke-width="3.749996" fill="none" d="M 178.347885 601.376770 L 184.635788 613.952576 " />
<path stroke-linejoin="round" stroke-linecap="round" stroke="rgb(0,0,255)" stroke-width="1.874998" fill="none" d="M 0.000000 750.000000 L 750.000000 44.117645 " />
<path stroke-linejoin="round" stroke-linecap="round" stroke="rgb(255,0,0)" stroke-width="3.749996" fill="none" d="M 171.808472 588.297913 L 178.347885 601.376770 " />
<path stroke-linejoin="round" stroke-linecap="round" stroke="rgb(0,0,255)" stroke-width="1.874998" fill="none" d="M 0.000000 750.000000 L 705.882385 0.000000 " />
<path stroke-linejoin="round" stroke-linecap="round" stroke="rgb(255,0,0)" stroke-width="3.749996" fill="none" d="M 165.002121 574.685303 L 171.808472 588.297913 " />
<path stroke-linejoin="round" stroke-linecap="round" stroke="rgb(0,0,255)" stroke-width="1.874998" fill="none" d="M 0.000000 750.000000 L 631.578979 0.000000 " />
<path stroke-linejoin="round" stroke-linecap="round" stroke="rgb(255,0,0)" stroke-width="3.749996" fill="none" d="M 158.531448 561.743896 L 165.002121 574.685303 " />
<path stroke-linejoin="round" stroke-linecap="round" stroke="rgb(0,0,255)" stroke-width="1.874998" fill="none" d="M 0.000000 750.000000 L 571.428589 0.000000 " />
<path stroke-linejoin="round" stroke-linecap="round" stroke="rgb(255,0,0)" stroke-width="3.749996" fill="none" d="M 152.549118 549.779236 L 158.531448 561.743896 " />
<path stroke-linejoin="round" stroke-linecap="round" stroke="rgb(0,0,255)" stroke-width="1.874998" fill="none" d="M 0.000000 750.000000 L 511.363647 0.000000 " />
<path stroke-linejoin="round" stroke-linecap="round" stroke="rgb(255,0,0)" stroke-width="3.749996" fill="none" d="M 145.765076 536.211243 L 152.549118 549.779236 " />
<path stroke-linejoin="round" stroke-linecap="round" stroke="rgb(0,0,255)" stroke-width="1.874998" fill="none" d="M 0.000000 750.000000 L 456.521729 0.000000 " />
<path stroke-linejoin="round" stroke-linecap="round" stroke="rgb(255,0,0)" stroke-width="3.749996" fill="none" d="M 138.714996 522.111084 L 145.765076 536.211243 " />
<path stroke-linejoin="round" stroke-linecap="round" stroke="rgb(0,0,255)" stroke-width="1.874998" fill="none" d="M 0.000000 750.000000 L 406.250000 0.000000 " />
<path stroke-linejoin="round" stroke-linecap="round" stroke="rgb(255,0,0)" stroke-width="3.749996" fill="none" d="M 131.382935 507.446899 L 138.714996 522.111084 " />
<path stroke-linejoin="round" stroke-linecap="round" stroke="rgb(0,0,255)" stroke-width="1.874998" fill="none" d="M 0.000000 750.000000 L 360.000000 0.000000 " />
<path stroke-linejoin="round" stroke-linecap="round" stroke="rgb(255,0,0)" stroke-width="3.749996" fill="none" d="M 123.751579 492.184235 L 131.382935 507.446899 " />
<path stroke-linejoin="round" stroke-linecap="round" stroke="rgb(0,0,255)" stroke-width="1.874998" fill="none" d="M 0.000000 750.000000 L 333.333344 0.000000 " />
<path stroke-linejoin="round" stroke-linecap="round" stroke="rgb(255,0,0)" stroke-width="3.749996" fill="none" d="M 118.898567 482.478210 L 123.751579 492.184235 " />
<path stroke-linejoin="round" stroke-linecap="round" stroke="rgb(0,0,255)" stroke-width="1.874998" fill="none" d="M 0.000000 750.000000 L 310.344818 0.000000 " />
<path stroke-linejoin="round" stroke-linecap="round" stroke="rgb(255,0,0)" stroke-width="3.749996" fill="none" d="M 114.411819 473.504761 L 118.898567 482.478210 " />
<path stroke-linejoin="round" stroke-linecap="round" stroke="rgb(0,0,255)" stroke-width="1.874998" fill="none" d="M 0.000000 750.000000 L 275.000000 0.000000 " />
<path stroke-linejoin="round" stroke-linecap="round" stroke="rgb(255,0,0)" stroke-width="3.749996" fill="none" d="M 106.894363 458.469910 L 114.411819 473.504791 " />
<path stroke-linejoin="round" stroke-linecap="round" stroke="rgb(0,0,255)" stroke-width="1.874998" fill="none" d="M 0.000000 750.000000 L 257.812500 0.000000 " />
<path stroke-linejoin="round" stroke-linecap="round" stroke="rgb(255,0,0)" stroke-width="3.749996" fill="none" d="M 102.935318 450.551788 L 106.894341 458.469940 " />
<path stroke-linejoin="round" stroke-linecap="round" stroke="rgb(0,0,255)" stroke-width="1.874998" fill="none" d="M 0.000000 750.000000 L 241.935501 0.000000 " />
<path stroke-linejoin="round" stroke-linecap="round" stroke="rgb(255,0,0)" stroke-width="3.749996" fill="none" d="M 99.082123 442.845459 L 102.935318 450.551788 " />
<path stroke-linejoin="round" stroke-linecap="round" stroke="rgb(0,0,255)" stroke-width="1.874998" fill="none" d="M 0.000000 750.000000 L 210.937500 0.000000 " />
<path stroke-linejoin="round" stroke-linecap="round" stroke="rgb(255,0,0)" stroke-width="3.749996" fill="none" d="M 90.957397 426.595947 L 99.082123 442.845459 " />
<path stroke-linejoin="round" stroke-linecap="round" stroke="rgb(0,0,255)" stroke-width="1.874998" fill="none" d="M 0.000000 750.000000 L 181.818192 0.000000 " />
<path stroke-linejoin="round" stroke-linecap="round" stroke="rgb(255,0,0)" stroke-width="3.749996" fill="none" d="M 83.241661 406.628174 L 90.957375 426.596008 " />
<path stroke-linejoin="round" stroke-linecap="round" stroke="rgb(0,0,255)" stroke-width="1.874998" fill="none" d="M 0.000000 750.000000 L 156.976746 0.000000 " />
<path stroke-linejoin="round" stroke-linecap="round" stroke="rgb(255,0,0)" stroke-width="3.749996" fill="none" d="M 77.467987 379.875153 L 83.241661 406.628174 " />
<path stroke-linejoin="round" stroke-linecap="round" stroke="rgb(0,0,255)" stroke-width="1.874998" fill="none" d="M 0.000000 750.000000 L 143.617004 0.000000 " />
<path stroke-linejoin="round" stroke-linecap="round" stroke="rgb(255,0,0)" stroke-width="3.749996" fill="none" d="M 73.942780 363.854340 L 77.467987 379.875153 " />
<path stroke-linejoin="round" stroke-linecap="round" stroke="rgb(0,0,255)" stroke-width="1.874998" fill="none" d="M 0.000000 750.000000 L 132.352936 0.000000 " />
<path stroke-linejoin="round" stroke-linecap="round" stroke="rgb(255,0,0)" stroke-width="3.749996" fill="none" d="M 70.740692 349.136047 L 73.942780 363.854340 " />
<path stroke-linejoin="round" stroke-linecap="round" stroke="rgb(0,0,255)" stroke-width="1.874998" fill="none" d="M 0.000000 750.000000 L 115.384605 0.000000 " />
<path stroke-linejoin="round" stroke-linecap="round" stroke="rgb(255,0,0)" stroke-width="3.749996" fill="none" d="M 65.322342 325.404724 L 70.740692 349.136047 " />
<path stroke-linejoin="round" stroke-linecap="round" stroke="rgb(0,0,255)" stroke-width="1.874998" fill="none" d="M 0.000000 750.000000 L 107.142853 0.000000 " />
<path stroke-linejoin="round" stroke-linecap="round" stroke="rgb(255,0,0)" stroke-width="3.749996" fill="none" d="M 62.576115 311.967194 L 65.322342 325.404724 " />
<path stroke-linejoin="round" stroke-linecap="round" stroke="rgb(0,0,255)" stroke-width="1.874998" fill="none" d="M 0.000000 750.000000 L 102.941170 0.000000 " />
<path stroke-linejoin="round" stroke-linecap="round" stroke="rgb(255,0,0)" stroke-width="3.749996" fill="none" d="M 61.102955 304.821320 L 62.576115 311.967194 " />
<path stroke-linejoin="round" stroke-linecap="round" stroke="rgb(0,0,255)" stroke-width="1.874998" fill="none" d="M 0.000000 750.000000 L 70.754707 0.000000 " />
<path stroke-linejoin="round" stroke-linecap="round" stroke="rgb(255,0,0)" stroke-width="3.749996" fill="none" d="M 48.110291 240.030930 L 61.102955 304.821320 " />
<path stroke-linejoin="round" stroke-linecap="round" stroke="rgb(0,0,255)" stroke-width="1.874998" fill="none" d="M 0.000000 750.000000 L 58.593750 0.000000 " />
<path stroke-linejoin="round" stroke-linecap="round" stroke="rgb(255,0,0)" stroke-width="3.749996" fill="none" d="M 42.156792 210.393143 L 48.110291 240.030930 " />
<path stroke-linejoin="round" stroke-linecap="round" stroke="rgb(0,0,255)" stroke-width="1.874998" fill="none" d="M 0.000000 750.000000 L 44.776127 0.000000 " />
<path stroke-linejoin="round" stroke-linecap="round" stroke="rgb(255,0,0)" stroke-width="3.749996" fill="none" d="M 34.496246 172.187988 L 42.156792 210.393143 " />
<path stroke-linejoin="round" stroke-linecap="round" stroke="rgb(0,0,255)" stroke-width="1.874998" fill="none" d="M 0.000000 750.000000 L 43.478249 0.000000 " />
<path stroke-linejoin="round" stroke-linecap="round" stroke="rgb(255,0,0)" stroke-width="3.749996" fill="none" d="M 33.717781 168.368164 L 34.496246 172.187988 " />
<path stroke-linejoin="round" stroke-linecap="round" stroke="rgb(0,0,255)" stroke-width="1.874998" fill="none" d="M 0.000000 750.000000 L 42.253510 0.000000 " />
<path stroke-linejoin="round" stroke-linecap="round" stroke="rgb(255,0,0)" stroke-width="3.749996" fill="none" d="M 32.974339 164.705521 L 33.717781 168.368164 " />
<path stroke-linejoin="round" stroke-linecap="round" stroke="rgb(0,0,255)" stroke-width="1.874998" fill="none" d="M 0.000000 750.000000 L 41.095890 0.000000 " />
<path stroke-linejoin="round" stroke-linecap="round" stroke="rgb(255,0,0)" stroke-width="3.749996" fill="none" d="M 32.263443 161.192291 L 32.974339 164.705521 " />
<path stroke-linejoin="round" stroke-linecap="round" stroke="rgb(0,0,255)" stroke-width="1.874998" fill="none" d="M 0.000000 750.000000 L 40.540539 0.000000 " />
<path stroke-linejoin="round" stroke-linecap="round" stroke="rgb(255,0,0)" stroke-width="3.749996" fill="none" d="M 31.918890 159.500488 L 32.263443 161.192291 " />
<path stroke-linejoin="round" stroke-linecap="round" stroke="rgb(0,0,255)" stroke-width="1.874998" fill="none" d="M 0.000000 750.000000 L 31.690144 0.000000 " />
<path stroke-linejoin="round" stroke-linecap="round" stroke="rgb(255,0,0)" stroke-width="3.749996" fill="none" d="M 26.165262 130.755722 L 31.918890 159.500488 " />
<path stroke-linejoin="round" stroke-linecap="round" stroke="rgb(0,0,255)" stroke-width="1.874998" fill="none" d="M 0.000000 750.000000 L 18.518507 0.000000 " />
<path stroke-linejoin="round" stroke-linecap="round" stroke="rgb(255,0,0)" stroke-width="3.749996" fill="none" d="M 16.484678 82.370461 L 26.165262 130.755661 " />
<path stroke-linejoin="round" stroke-linecap="round" stroke="rgb(0,0,255)" stroke-width="1.874998" fill="none" d="M 0.000000 750.000000 L 17.647058 0.000000 " />
<path stroke-linejoin="round" stroke-linecap="round" stroke="rgb(255,0,0)" stroke-width="3.749996" fill="none" d="M 15.790298 78.911842 L 16.484678 82.370461 " />
<path stroke-linejoin="round" stroke-linecap="round" stroke="rgb(0,0,255)" stroke-width="1.874998" fill="none" d="M 0.000000 750.000000 L 8.241757 0.000000 " />
<path stroke-linejoin="round" stroke-linecap="round" stroke="rgb(255,0,0)" stroke-width="3.749996" fill="none" d="M 7.812806 39.034298 L 15.790298 78.911842 " />
<path stroke-linejoin="round" stroke-linecap="round" stroke="rgb(0,0,255)" stroke-width="1.874998" fill="none" d="M 0.000000 750.000000 L 0.000000 0.000000 " />
<path stroke-linejoin="round" stroke-linecap="round" stroke="rgb(255,0,0)" stroke-width="3.749996" fill="none" d="M 0.000000 0.000000 L 7.812806 39.034298 " />
<circle cx="248.226944" cy="741.134763" r="3.749996" style="fill:rgb(0,127,0);stroke-width:1" /><circle cx="243.636008" cy="731.952891" r="3.749996" style="fill:rgb(0,127,0);stroke-width:1" /><circle cx="238.878127" cy="722.437128" r="3.749996" style="fill:rgb(0,127,0);stroke-width:1" /><circle cx="235.234771" cy="715.150416" r="3.749996" style="fill:rgb(0,127,0);stroke-width:1" /><circle cx="230.496436" cy="705.673769" r="3.749996" style="fill:rgb(0,127,0);stroke-width:1" /><circle cx="225.588899" cy="695.858672" r="3.749996" style="fill:rgb(0,127,0);stroke-width:1" /><circle cx="220.502883" cy="685.686663" r="3.749996" style="fill:rgb(0,127,0);stroke-width:1" /><circle cx="215.228509" cy="675.137915" r="3.749996" style="fill:rgb(0,127,0);stroke-width:1" /><circle cx="209.755093" cy="664.191104" r="3.749996" style="fill:rgb(0,127,0);stroke-width:1" /><circle cx="204.071168" cy="652.823254" r="3.749996" style="fill:rgb(0,127,0);stroke-width:1" /><circle cx="198.164340" cy="641.009599" r="3.749996" style="fill:rgb(0,127,0);stroke-width:1" /><circle cx="192.021254" cy="628.723428" r="3.749996" style="fill:rgb(0,127,0);stroke-width:1" /><circle cx="185.627393" cy="615.935773" r="3.749996" style="fill:rgb(0,127,0);stroke-width:1" /><circle cx="184.635781" cy="613.952570" r="3.749996" style="fill:rgb(0,127,0);stroke-width:1" /><circle cx="178.347878" cy="601.376764" r="3.749996" style="fill:rgb(0,127,0);stroke-width:1" /><circle cx="171.808474" cy="588.297911" r="3.749996" style="fill:rgb(0,127,0);stroke-width:1" /><circle cx="165.002123" cy="574.685253" r="3.749996" style="fill:rgb(0,127,0);stroke-width:1" /><circle cx="158.531450" cy="561.743908" r="3.749996" style="fill:rgb(0,127,0);stroke-width:1" /><circle cx="152.549118" cy="549.779277" r="3.749996" style="fill:rgb(0,127,0);stroke-width:1" /><circle cx="145.765074" cy="536.211211" r="3.749996" style="fill:rgb(0,127,0);stroke-width:1" /><circle cx="138.714999" cy="522.111073" r="3.749996" style="fill:rgb(0,127,0);stroke-width:1" /><circle cx="131.382935" cy="507.446900" r="3.749996" style="fill:rgb(0,127,0);stroke-width:1" /><circle cx="123.751581" cy="492.184225" r="3.749996" style="fill:rgb(0,127,0);stroke-width:1" /><circle cx="118.898571" cy="482.478205" r="3.749996" style="fill:rgb(0,127,0);stroke-width:1" /><circle cx="114.411816" cy="473.504752" r="3.749996" style="fill:rgb(0,127,0);stroke-width:1" /><circle cx="106.894366" cy="458.469898" r="3.749996" style="fill:rgb(0,127,0);stroke-width:1" /><circle cx="102.935314" cy="450.551810" r="3.749996" style="fill:rgb(0,127,0);stroke-width:1" /><circle cx="99.082120" cy="442.845432" r="3.749996" style="fill:rgb(0,127,0);stroke-width:1" /><circle cx="90.957396" cy="426.595956" r="3.749996" style="fill:rgb(0,127,0);stroke-width:1" /><circle cx="83.241664" cy="406.628162" r="3.749996" style="fill:rgb(0,127,0);stroke-width:1" /><circle cx="77.467985" cy="379.875153" r="3.749996" style="fill:rgb(0,127,0);stroke-width:1" /><circle cx="73.942780" cy="363.854319" r="3.749996" style="fill:rgb(0,127,0);stroke-width:1" /><circle cx="70.740692" cy="349.136054" r="3.749996" style="fill:rgb(0,127,0);stroke-width:1" /><circle cx="65.322340" cy="325.404732" r="3.749996" style="fill:rgb(0,127,0);stroke-width:1" /><circle cx="62.576115" cy="311.967194" r="3.749996" style="fill:rgb(0,127,0);stroke-width:1" /><circle cx="61.102957" cy="304.821314" r="3.749996" style="fill:rgb(0,127,0);stroke-width:1" /><circle cx="48.110291" cy="240.030941" r="3.749996" style="fill:rgb(0,127,0);stroke-width:1" /><circle cx="42.156793" cy="210.393135" r="3.749996" style="fill:rgb(0,127,0);stroke-width:1" /><circle cx="34.496248" cy="172.187984" r="3.749996" style="fill:rgb(0,127,0);stroke-width:1" /><circle cx="33.717781" cy="168.368161" r="3.749996" style="fill:rgb(0,127,0);stroke-width:1" /><circle cx="32.974340" cy="164.705515" r="3.749996" style="fill:rgb(0,127,0);stroke-width:1" /><circle cx="32.263443" cy="161.192290" r="3.749996" style="fill:rgb(0,127,0);stroke-width:1" /><circle cx="31.918891" cy="159.500487" r="3.749996" style="fill:rgb(0,127,0);stroke-width:1" /><circle cx="26.165262" cy="130.755723" r="3.749996" style="fill:rgb(0,127,0);stroke-width:1" /><circle cx="16.484678" cy="82.370460" r="3.749996" style="fill:rgb(0,127,0);stroke-width:1" /><circle cx="15.790299" cy="78.911841" r="3.749996" style="fill:rgb(0,127,0);stroke-width:1" /><circle cx="7.812805" cy="39.034300" r="3.749996" style="fill:rgb(0,127,0);stroke-width:1" /><circle cx="750.000000" cy="750.000000" r="3.749996" style="fill:rgb(0,127,0);stroke-width:1" /><path stroke-linejoin="round" stroke-linecap="round" stroke="rgb(255,255,255)" stroke-width="3.749996" fill="none" d="M 0.000000 750.000000 L 750.000000 750.000000 M 0.000000 750.000000 L 0.000000 0.000000 " />

</svg>