<svg xmlns="http://www.w3.org/2000/svg" version="1.1" width = "750" height = "750" viewBox = "0 0 750 750"  shape-rendering="crispEdges">
<path stroke-linejoin="round" stroke-linecap="round" stroke="rgb(255,255,0)" stroke-width="3.749996" fill="none" d="M 74.999992 750.000000 L 0.000000 0.000000 " />
<path stroke-linejoin="round" stroke-linecap="round" stroke="rgb(63,63,63)" stroke-width="3.749996" fill="none" d="M 0.000000 0.000000 L 750.000000 750.000000 M 74.999992 750.000000 L 35.526306 0.000000 " />
<path stroke-linejoin="round" stroke-linecap="round" stroke="rgb(191,191,191)" stroke-width="3.749996" fill="none" d="M 0.000000 675.000000 L 74.999992 750.000000 M 0.000000 0.000000 L 39.473690 750.000000 " />
<path stroke-linejoin="round" stroke-linecap="round" stroke="rgb(0,0,255)" stroke-width="1.874998" fill="none" d="M 0.000000 750.000000 L 750.000000 562.500000 " />
<path stroke-linejoin="round" stroke-linecap="round" stroke="rgb(255,0,0)" stroke-width="3.749996" fill="none" d="M 74.025970 731.493469 L 74.999992 750.000000 " />
<path stroke-linejoin="round" stroke-linecap="round" stroke="rgb(0,0,255)" stroke-width="1.874998" fill="none" d="M 0.000000 750.000000 L 750.000000 365.384583 " />
<path stroke-linejoin="round" stroke-linecap="round" stroke="rgb(255,0,0)" stroke-width="3.749996" fill="none" d="M 72.730042 712.702515 L 74.025970 731.493469 " />
<path stroke-linejoin="round" stroke-linecap="round" stroke="rgb(0,0,255)" stroke-width="1.874998" fill="none" d="M 0.000000 750.000000 L 750.000000 187.500000 " />
<path stroke-linejoin="round" stroke-linecap="round" stroke="rgb(255,0,0)" stroke-width="3.749996" fill="none" d="M 71.598885 696.300842 L 72.730042 712.702515 " />
<path stroke-linejoin="round" stroke-linecap="round" stroke="rgb(0,0,255)" stroke-width="1.874998" fill="none" d="M 0.000000 750.000000 L 750.000000 18.292665 " />
<path stroke-linejoin="round" stroke-linecap="round" stroke="rgb(255,0,0)" stroke-width="3.749996" fill="none" d="M 70.555107 681.165771 L 71.598885 696.300842 " />
<path stroke-linejoin="round" stroke-linecap="round" stroke="rgb(0,0,255)" stroke-width="1.874998" fill="none" d="M 0.000000 750.000000 L 731.250000 0.000000 " />
<path stroke-linejoin="round" stroke-linecap="round" stroke="rgb(255,0,0)" stroke-width="3.749996" fill="none" d="M 70.327721 677.868958 L 70.555107 681.165771 " />
<path stroke-linejoin="round" stroke-linecap="round" stroke="rgb(0,0,255)" stroke-width="1.874998" fill="none" d="M 0.000000 750.000000 L 570.000000 0.000000 " />
<path stroke-linejoin="round" stroke-linecap="round" stroke="rgb(255,0,0)" stroke-width="3.749996" fill="none" d="M 69.037537 659.161133 L 70.327721 677.868958 " />
<path stroke-linejoin="round" stroke-linecap="round" stroke="rgb(0,0,255)" stroke-width="1.874998" fill="none" d="M 0.000000 750.000000 L 487.499969 0.000000 " />
<path stroke-linejoin="round" stroke-linecap="round" stroke="rgb(255,0,0)" stroke-width="3.749996" fill="none" d="M 68.079025 645.263062 L 69.037537 659.161133 " />
<path stroke-linejoin="round" stroke-linecap="round" stroke="rgb(0,0,255)" stroke-width="1.874998" fill="none" d="M 0.000000 750.000000 L 462.500000 0.000000 " />
<path stroke-linejoin="round" stroke-linecap="round" stroke="rgb(255,0,0)" stroke-width="3.749996" fill="none" d="M 67.727859 640.171021 L 68.079025 645.263062 " />
<path stroke-linejoin="round" stroke-linecap="round" stroke="rgb(0,0,255)" stroke-width="1.874998" fill="none" d="M 0.000000 750.000000 L 385.714294 0.000000 " />
<path stroke-linejoin="round" stroke-linecap="round" stroke="rgb(255,0,0)" stroke-width="3.749996" fill="none" d="M 66.398285 620.892212 L 67.727859 640.171021 " />
<path stroke-linejoin="round" stroke-linecap="round" stroke="rgb(0,0,255)" stroke-width="1.874998" fill="none" d="M 0.000000 750.000000 L 328.124969 0.000000 " />
<path stroke-linejoin="round" stroke-linecap="round" stroke="rgb(255,0,0)" stroke-width="3.749996" fill="none" d="M 65.048355 601.318115 L 66.398285 620.892212 " />
<path stroke-linejoin="round" stroke-linecap="round" stroke="rgb(0,0,255)" stroke-width="1.874998" fill="none" d="M 0.000000 750.000000 L 283.333344 0.000000 " />
<path stroke-linejoin="round" stroke-linecap="round" stroke="rgb(255,0,0)" stroke-width="3.749996" fill="none" d="M 63.677563 581.441772 L 65.048355 601.318115 " />
<path stroke-linejoin="round" stroke-linecap="round" stroke="rgb(0,0,255)" stroke-width="1.874998" fill="none" d="M 0.000000 750.000000 L 247.500015 0.000000 " />
<path stroke-linejoin="round" stroke-linecap="round" stroke="rgb(255,0,0)" stroke-width="3.749996" fill="none" d="M 62.285454 561.256226 L 63.677563 581.441772 " />
<path stroke-linejoin="round" stroke-linecap="round" stroke="rgb(0,0,255)" stroke-width="1.874998" fill="none" d="M 0.000000 750.000000 L 231.818192 0.000000 " />
<path stroke-linejoin="round" stroke-linecap="round" stroke="rgb(255,0,0)" stroke-width="3.749996" fill="none" d="M 61.565525 550.817383 L 62.285454 561.256226 " />
<path stroke-linejoin="round" stroke-linecap="round" stroke="rgb(0,0,255)" stroke-width="1.874998" fill="none" d="M 0.000000 750.000000 L 218.181808 0.000000 " />
<path stroke-linejoin="round" stroke-linecap="round" stroke="rgb(255,0,0)" stroke-width="3.749996" fill="none" d="M 60.871525 540.754150 L 61.565525 550.817383 " />
<path stroke-linejoin="round" stroke-linecap="round" stroke="rgb(0,0,255)" stroke-width="1.874998" fill="none" d="M 0.000000 750.000000 L 206.250000 0.000000 " />
<path stroke-linejoin="round" stroke-linecap="round" stroke="rgb(255,0,0)" stroke-width="3.749996" fill="none" d="M 60.204082 531.076111 L 60.871525 540.754150 " />
<path stroke-linejoin="round" stroke-linecap="round" stroke="rgb(0,0,255)" stroke-width="1.874998" fill="none" d="M 0.000000 750.000000 L 193.750015 0.000000 " />
<path stroke-linejoin="round" stroke-linecap="round" stroke="rgb(255,0,0)" stroke-width="3.749996" fill="none" d="M 59.435249 519.928101 L 60.204082 531.076111 " />
<path stroke-linejoin="round" stroke-linecap="round" stroke="rgb(0,0,255)" stroke-width="1.874998" fill="none" d="M 0.000000 750.000000 L 184.615372 0.000000 " />
<path stroke-linejoin="round" stroke-linecap="round" stroke="rgb(255,0,0)" stroke-width="3.749996" fill="none" d="M 58.821983 511.035736 L 59.435249 519.928101 " />
<path stroke-linejoin="round" stroke-linecap="round" stroke="rgb(0,0,255)" stroke-width="1.874998" fill="none" d="M 0.000000 750.000000 L 173.076920 0.000000 " />
<path stroke-linejoin="round" stroke-linecap="round" stroke="rgb(255,0,0)" stroke-width="3.749996" fill="none" d="M 57.976082 498.770325 L 58.821983 511.035736 " />
<path stroke-linejoin="round" stroke-linecap="round" stroke="rgb(0,0,255)" stroke-width="1.874998" fill="none" d="M 0.000000 750.000000 L 155.357147 0.000000 " />
<path stroke-linejoin="round" stroke-linecap="round" stroke="rgb(255,0,0)" stroke-width="3.749996" fill="none" d="M 56.493492 477.272797 L 57.976082 498.770325 " />
<path stroke-linejoin="round" stroke-linecap="round" stroke="rgb(0,0,255)" stroke-width="1.874998" fill="none" d="M 0.000000 750.000000 L 149.999985 0.000000 " />
<path stroke-linejoin="round" stroke-linecap="round" stroke="rgb(255,0,0)" stroke-width="3.749996" fill="none" d="M 55.993996 470.030029 L 56.493492 477.272797 " />
<path stroke-linejoin="round" stroke-linecap="round" stroke="rgb(0,0,255)" stroke-width="1.874998" fill="none" d="M 0.000000 750.000000 L 140.000000 0.000000 " />
<path stroke-linejoin="round" stroke-linecap="round" stroke="rgb(255,0,0)" stroke-width="3.749996" fill="none" d="M 54.986893 455.427338 L 55.993973 470.030090 " />
<path stroke-linejoin="round" stroke-linecap="round" stroke="rgb(0,0,255)" stroke-width="1.874998" fill="none" d="M 0.000000 750.000000 L 135.937485 0.000000 " />
<path stroke-linejoin="round" stroke-linecap="round" stroke="rgb(255,0,0)" stroke-width="3.749996" fill="none" d="M 54.547100 449.050415 L 54.986893 455.427338 " />
<path stroke-linejoin="round" stroke-linecap="round" stroke="rgb(0,0,255)" stroke-width="1.874998" fill="none" d="M 0.000000 750.000000 L 126.562492 0.000000 " />
<path stroke-linejoin="round" stroke-linecap="round" stroke="rgb(255,0,0)" stroke-width="3.749996" fill="none" d="M 53.455734 433.225342 L 54.547100 449.050415 " />
<path stroke-linejoin="round" stroke-linecap="round" stroke="rgb(0,0,255)" stroke-width="1.874998" fill="none" d="M 0.000000 750.000000 L 123.529404 0.000000 " />
<path stroke-linejoin="round" stroke-linecap="round" stroke="rgb(255,0,0)" stroke-width="3.749996" fill="none" d="M 53.077629 427.742950 L 53.455734 433.225342 " />
<path stroke-linejoin="round" stroke-linecap="round" stroke="rgb(0,0,255)" stroke-width="1.874998" fill="none" d="M 0.000000 750.000000 L 114.705879 0.000000 " />
<path stroke-linejoin="round" stroke-linecap="round" stroke="rgb(255,0,0)" stroke-width="3.749996" fill="none" d="M 51.899357 410.658051 L 53.077629 427.742950 " />
<path stroke-linejoin="round" stroke-linecap="round" stroke="rgb(0,0,255)" stroke-width="1.874998" fill="none" d="M 0.000000 750.000000 L 104.166672 0.000000 " />
<path stroke-linejoin="round" stroke-linecap="round" stroke="rgb(255,0,0)" stroke-width="3.749996" fill="none" d="M 50.317169 387.716339 L 51.899357 410.658051 " />
<path stroke-linejoin="round" stroke-linecap="round" stroke="rgb(0,0,255)" stroke-width="1.874998" fill="none" d="M 0.000000 750.000000 L 94.736832 0.000000 " />
<path stroke-linejoin="round" stroke-linecap="round" stroke="rgb(255,0,0)" stroke-width="3.749996" fill="none" d="M 48.708515 364.390869 L 50.317169 387.716339 " />
<path stroke-linejoin="round" stroke-linecap="round" stroke="rgb(0,0,255)" stroke-width="1.874998" fill="none" d="M 0.000000 750.000000 L 93.750000 0.000000 " />
<path stroke-linejoin="round" stroke-linecap="round" stroke="rgb(255,0,0)" stroke-width="3.749996" fill="none" d="M 48.528114 361.775055 L 48.708515 364.390869 " />
<path stroke-linejoin="round" stroke-linecap="round" stroke="rgb(0,0,255)" stroke-width="1.874998" fill="none" d="M 0.000000 750.000000 L 86.250008 0.000000 " />
<path stroke-linejoin="round" stroke-linecap="round" stroke="rgb(255,0,0)" stroke-width="3.749996" fill="none" d="M 47.072723 340.671906 L 48.528114 361.775055 " />
<path stroke-linejoin="round" stroke-linecap="round" stroke="rgb(0,0,255)" stroke-width="1.874998" fill="none" d="M 0.000000 750.000000 L 85.714279 0.000000 " />
<path stroke-linejoin="round" stroke-linecap="round" stroke="rgb(255,0,0)" stroke-width="3.749996" fill="none" d="M 46.962685 339.076416 L 47.072723 340.671906 " />
<path stroke-linejoin="round" stroke-linecap="round" stroke="rgb(0,0,255)" stroke-width="1.874998" fill="none" d="M 0.000000 750.000000 L 78.409103 0.000000 " />
<path stroke-linejoin="round" stroke-linecap="round" stroke="rgb(255,0,0)" stroke-width="3.749996" fill="none" d="M 45.371822 316.008667 L 46.962685 339.076416 " />
<path stroke-linejoin="round" stroke-linecap="round" stroke="rgb(0,0,255)" stroke-width="1.874998" fill="none" d="M 0.000000 750.000000 L 78.260872 0.000000 " />
<path stroke-linejoin="round" stroke-linecap="round" stroke="rgb(255,0,0)" stroke-width="3.749996" fill="none" d="M 45.337692 315.513794 L 45.371822 316.008667 " />
<path stroke-linejoin="round" stroke-linecap="round" stroke="rgb(0,0,255)" stroke-width="1.874998" fill="none" d="M 0.000000 750.000000 L 71.875000 0.000000 " />
<path stroke-linejoin="round" stroke-linecap="round" stroke="rgb(255,0,0)" stroke-width="3.749996" fill="none" d="M 43.789543 293.065674 L 45.337692 315.513794 " />
<path stroke-linejoin="round" stroke-linecap="round" stroke="rgb(0,0,255)" stroke-width="1.874998" fill="none" d="M 0.000000 750.000000 L 71.120697 0.000000 " />
<path stroke-linejoin="round" stroke-linecap="round" stroke="rgb(255,0,0)" stroke-width="3.749996" fill="none" d="M 43.487503 291.404480 L 43.789543 293.065674 " />
<path stroke-linejoin="round" stroke-linecap="round" stroke="rgb(0,0,255)" stroke-width="1.874998" fill="none" d="M 0.000000 750.000000 L 67.596565 0.000000 " />
<path stroke-linejoin="round" stroke-linecap="round" stroke="rgb(255,0,0)" stroke-width="3.749996" fill="none" d="M 42.046822 283.480591 L 43.487503 291.404480 " />
<path stroke-linejoin="round" stroke-linecap="round" stroke="rgb(0,0,255)" stroke-width="1.874998" fill="none" d="M 0.000000 750.000000 L 67.021271 0.000000 " />
<path stroke-linejoin="round" stroke-linecap="round" stroke="rgb(255,0,0)" stroke-width="3.749996" fill="none" d="M 41.806900 282.160980 L 42.046822 283.480591 " />
<path stroke-linejoin="round" stroke-linecap="round" stroke="rgb(0,0,255)" stroke-width="1.874998" fill="none" d="M 0.000000 750.000000 L 65.899574 0.000000 " />
<path stroke-linejoin="round" stroke-linecap="round" stroke="rgb(255,0,0)" stroke-width="3.749996" fill="none" d="M 41.335167 279.566467 L 41.806900 282.160980 " />
<path stroke-linejoin="round" stroke-linecap="round" stroke="rgb(0,0,255)" stroke-width="1.874998" fill="none" d="M 0.000000 750.000000 L 62.500008 0.000000 " />
<path stroke-linejoin="round" stroke-linecap="round" stroke="rgb(255,0,0)" stroke-width="3.749996" fill="none" d="M 39.872959 271.524445 L 41.335167 279.566467 " />
<path stroke-linejoin="round" stroke-linecap="round" stroke="rgb(0,0,255)" stroke-width="1.874998" fill="none" d="M 0.000000 750.000000 L 59.128628 0.000000 " />
<path stroke-linejoin="round" stroke-linecap="round" stroke="rgb(255,0,0)" stroke-width="3.749996" fill="none" d="M 38.372665 263.272888 L 39.872959 271.524445 " />
<path stroke-linejoin="round" stroke-linecap="round" stroke="rgb(0,0,255)" stroke-width="1.874998" fill="none" d="M 0.000000 750.000000 L 58.641987 0.000000 " />
<path stroke-linejoin="round" stroke-linecap="round" stroke="rgb(255,0,0)" stroke-width="3.749996" fill="none" d="M 38.151829 262.058228 L 38.372665 263.272888 " />
<path stroke-linejoin="round" stroke-linecap="round" stroke="rgb(0,0,255)" stroke-width="1.874998" fill="none" d="M 0.000000 750.000000 L 55.327869 0.000000 " />
<path stroke-linejoin="round" stroke-linecap="round" stroke="rgb(255,0,0)" stroke-width="3.749996" fill="none" d="M 36.618031 253.622314 L 38.151829 262.058228 " />
<path stroke-linejoin="round" stroke-linecap="round" stroke="rgb(0,0,255)" stroke-width="1.874998" fill="none" d="M 0.000000 750.000000 L 54.878040 0.000000 " />
<path stroke-linejoin="round" stroke-linecap="round" stroke="rgb(255,0,0)" stroke-width="3.749996" fill="none" d="M 36.405758 252.454803 L 36.618031 253.622314 " />
<path stroke-linejoin="round" stroke-linecap="round" stroke="rgb(0,0,255)" stroke-width="1.874998" fill="none" d="M 0.000000 750.000000 L 53.999996 0.000000 " />
<path stroke-linejoin="round" stroke-linecap="round" stroke="rgb(255,0,0)" stroke-width="3.749996" fill="none" d="M 35.988495 250.159851 L 36.405758 252.454803 " />
<path stroke-linejoin="round" stroke-linecap="round" stroke="rgb(0,0,255)" stroke-width="1.874998" fill="none" d="M 0.000000 750.000000 L 53.571426 0.000000 " />
<path stroke-linejoin="round" stroke-linecap="round" stroke="rgb(255,0,0)" stroke-width="3.749996" fill="none" d="M 35.783440 249.031982 L 35.988495 250.159851 " />
<path stroke-linejoin="round" stroke-linecap="round" stroke="rgb(0,0,255)" stroke-width="1.874998" fill="none" d="M 0.000000 750.000000 L 53.149605 0.000000 " />
<path stroke-linejoin="round" stroke-linecap="round" stroke="rgb(255,0,0)" stroke-width="3.749996" fill="none" d="M 35.580688 247.916931 L 35.783440 249.031982 " />
<path stroke-linejoin="round" stroke-linecap="round" stroke="rgb(0,0,255)" stroke-width="1.874998" fill="none" d="M 0.000000 750.000000 L 52.734375 0.000000 " />
<path stroke-linejoin="round" stroke-linecap="round" stroke="rgb(255,0,0)" stroke-width="3.749996" fill="none" d="M 35.380238 246.814407 L 35.580688 247.916931 " />
<path stroke-linejoin="round" stroke-linecap="round" stroke="rgb(0,0,255)" stroke-width="1.874998" fill="none" d="M 0.000000 750.000000 L 49.610897 0.000000 " />
<path stroke-linejoin="round" stroke-linecap="round" stroke="rgb(255,0,0)" stroke-width="3.749996" fill="none" d="M 33.843666 238.363327 L 35.380238 246.814407 " />
<path stroke-linejoin="round" stroke-linecap="round" stroke="rgb(0,0,255)" stroke-width="1.874998" fill="none" d="M 0.000000 750.000000 L 49.227791 0.000000 " />
<path stroke-linejoin="round" stroke-linecap="round" stroke="rgb(255,0,0)" stroke-width="3.749996" fill="none" d="M 33.651642 237.307236 L 33.843666 238.363373 " />
<path stroke-linejoin="round" stroke-linecap="round" stroke="rgb(0,0,255)" stroke-width="1.874998" fill="none" d="M 0.000000 750.000000 L 46.153843 0.000000 " />
<path stroke-linejoin="round" stroke-linecap="round" stroke="rgb(255,0,0)" stroke-width="3.749996" fill="none" d="M 32.081699 228.672516 L 33.651642 237.307236 " />
<path stroke-linejoin="round" stroke-linecap="round" stroke="rgb(0,0,255)" stroke-width="1.874998" fill="none" d="M 0.000000 750.000000 L 45.801537 0.000000 " />
<path stroke-linejoin="round" stroke-linecap="round" stroke="rgb(255,0,0)" stroke-width="3.749996" fill="none" d="M 31.898373 227.664185 L 32.081699 228.672516 " />
<path stroke-linejoin="round" stroke-linecap="round" stroke="rgb(0,0,255)" stroke-width="1.874998" fill="none" d="M 0.000000 750.000000 L 45.454548 0.000000 " />
<path stroke-linejoin="round" stroke-linecap="round" stroke="rgb(255,0,0)" stroke-width="3.749996" fill="none" d="M 31.717121 226.667358 L 31.898373 227.664185 " />
<path stroke-linejoin="round" stroke-linecap="round" stroke="rgb(0,0,255)" stroke-width="1.874998" fill="none" d="M 0.000000 750.000000 L 42.452843 0.000000 " />
<path stroke-linejoin="round" stroke-linecap="round" stroke="rgb(255,0,0)" stroke-width="3.749996" fill="none" d="M 30.119865 217.882416 L 31.717121 226.667358 " />
<path stroke-linejoin="round" stroke-linecap="round" stroke="rgb(0,0,255)" stroke-width="1.874998" fill="none" d="M 0.000000 750.000000 L 42.134823 0.000000 " />
<path stroke-linejoin="round" stroke-linecap="round" stroke="rgb(255,0,0)" stroke-width="3.749996" fill="none" d="M 29.947512 216.934448 L 30.119865 217.882416 " />
<path stroke-linejoin="round" stroke-linecap="round" stroke="rgb(0,0,255)" stroke-width="1.874998" fill="none" d="M 0.000000 750.000000 L 41.821560 0.000000 " />
<path stroke-linejoin="round" stroke-linecap="round" stroke="rgb(255,0,0)" stroke-width="3.749996" fill="none" d="M 29.777102 215.997269 L 29.947512 216.934448 " />
<path stroke-linejoin="round" stroke-linecap="round" stroke="rgb(0,0,255)" stroke-width="1.874998" fill="none" d="M 0.000000 750.000000 L 41.512905 0.000000 " />
<path stroke-linejoin="round" stroke-linecap="round" stroke="rgb(255,0,0)" stroke-width="3.749996" fill="none" d="M 29.608637 215.070648 L 29.777102 215.997269 " />
<path stroke-linejoin="round" stroke-linecap="round" stroke="rgb(0,0,255)" stroke-width="1.874998" fill="none" d="M 0.000000 750.000000 L 39.772736 0.000000 " />
<path stroke-linejoin="round" stroke-linecap="round" stroke="rgb(255,0,0)" stroke-width="3.749996" fill="none" d="M 28.647736 209.785645 L 29.608637 215.070648 " />
<path stroke-linejoin="round" stroke-linecap="round" stroke="rgb(0,0,255)" stroke-width="1.874998" fill="none" d="M 0.000000 750.000000 L 36.792442 0.000000 " />
<path stroke-linejoin="round" stroke-linecap="round" stroke="rgb(255,0,0)" stroke-width="3.749996" fill="none" d="M 26.957207 200.487732 L 28.647736 209.785629 " />
<path stroke-linejoin="round" stroke-linecap="round" stroke="rgb(0,0,255)" stroke-width="1.874998" fill="none" d="M 0.000000 750.000000 L 36.516846 0.000000 " />
<path stroke-linejoin="round" stroke-linecap="round" stroke="rgb(255,0,0)" stroke-width="3.749996" fill="none" d="M 26.797928 199.611740 L 26.957207 200.487732 " />
<path stroke-linejoin="round" stroke-linecap="round" stroke="rgb(0,0,255)" stroke-width="1.874998" fill="none" d="M 0.000000 750.000000 L 36.245361 0.000000 " />
<path stroke-linejoin="round" stroke-linecap="round" stroke="rgb(255,0,0)" stroke-width="3.749996" fill="none" d="M 26.640528 198.746017 L 26.797928 199.611740 " />
<path stroke-linejoin="round" stroke-linecap="round" stroke="rgb(0,0,255)" stroke-width="1.874998" fill="none" d="M 0.000000 750.000000 L 35.977856 0.000000 " />
<path stroke-linejoin="round" stroke-linecap="round" stroke="rgb(255,0,0)" stroke-width="3.749996" fill="none" d="M 26.484959 197.890457 L 26.640528 198.746017 " />
<path stroke-linejoin="round" stroke-linecap="round" stroke="rgb(0,0,255)" stroke-width="1.874998" fill="none" d="M 0.000000 750.000000 L 35.714283 0.000000 " />
<path stroke-linejoin="round" stroke-linecap="round" stroke="rgb(255,0,0)" stroke-width="3.749996" fill="none" d="M 26.331202 197.044769 L 26.484959 197.890457 " />
<path stroke-linejoin="round" stroke-linecap="round" stroke="rgb(0,0,255)" stroke-width="1.874998" fill="none" d="M 0.000000 750.000000 L 35.454556 0.000000 " />
<path stroke-linejoin="round" stroke-linecap="round" stroke="rgb(255,0,0)" stroke-width="3.749996" fill="none" d="M 26.179209 196.208817 L 26.331202 197.044769 " />
<path stroke-linejoin="round" stroke-linecap="round" stroke="rgb(0,0,255)" stroke-width="1.874998" fill="none" d="M 0.000000 750.000000 L 33.333332 0.000000 " />
<path stroke-linejoin="round" stroke-linecap="round" stroke="rgb(255,0,0)" stroke-width="3.749996" fill="none" d="M 24.920605 189.286423 L 26.179209 196.208771 " />
<path stroke-linejoin="round" stroke-linecap="round" stroke="rgb(0,0,255)" stroke-width="1.874998" fill="none" d="M 0.000000 750.000000 L 30.442804 0.000000 " />
<path stroke-linejoin="round" stroke-linecap="round" stroke="rgb(255,0,0)" stroke-width="3.749996" fill="none" d="M 23.153990 179.570023 L 24.920605 189.286423 " />
<path stroke-linejoin="round" stroke-linecap="round" stroke="rgb(0,0,255)" stroke-width="1.874998" fill="none" d="M 0.000000 750.000000 L 30.219778 0.000000 " />
<path stroke-linejoin="round" stroke-linecap="round" stroke="rgb(255,0,0)" stroke-width="3.749996" fill="none" d="M 23.015141 178.806305 L 23.153990 179.570023 " />
<path stroke-linejoin="round" stroke-linecap="round" stroke="rgb(0,0,255)" stroke-width="1.874998" fill="none" d="M 0.000000 750.000000 L 29.999994 0.000000 " />
<path stroke-linejoin="round" stroke-linecap="round" stroke="rgb(255,0,0)" stroke-width="3.749996" fill="none" d="M 22.877924 178.051712 L 23.015141 178.806305 " />
<path stroke-linejoin="round" stroke-linecap="round" stroke="rgb(0,0,255)" stroke-width="1.874998" fill="none" d="M 0.000000 750.000000 L 29.783382 0.000000 " />
<path stroke-linejoin="round" stroke-linecap="round" stroke="rgb(255,0,0)" stroke-width="3.749996" fill="none" d="M 22.742361 177.306061 L 22.877924 178.051712 " />
<path stroke-linejoin="round" stroke-linecap="round" stroke="rgb(0,0,255)" stroke-width="1.874998" fill="none" d="M 0.000000 750.000000 L 29.569902 0.000000 " />
<path stroke-linejoin="round" stroke-linecap="round" stroke="rgb(255,0,0)" stroke-width="3.749996" fill="none" d="M 22.608385 176.569214 L 22.742361 177.306061 " />
<path stroke-linejoin="round" stroke-linecap="round" stroke="rgb(0,0,255)" stroke-width="1.874998" fill="none" d="M 0.000000 750.000000 L 29.359438 0.000000 " />
<path stroke-linejoin="round" stroke-linecap="round" stroke="rgb(255,0,0)" stroke-width="3.749996" fill="none" d="M 22.475973 175.840973 L 22.608385 176.569214 " />
<path stroke-linejoin="round" stroke-linecap="round" stroke="rgb(0,0,255)" stroke-width="1.874998" fill="none" d="M 0.000000 750.000000 L 29.151947 0.000000 " />
<path stroke-linejoin="round" stroke-linecap="round" stroke="rgb(255,0,0)" stroke-width="3.749996" fill="none" d="M 22.345104 175.121201 L 22.475973 175.840973 " />
<path stroke-linejoin="round" stroke-linecap="round" stroke="rgb(0,0,255)" stroke-width="1.874998" fill="none" d="M 0.000000 750.000000 L 28.947361 0.000000 " />
<path stroke-linejoin="round" stroke-linecap="round" stroke="rgb(255,0,0)" stroke-width="3.749996" fill="none" d="M 22.215754 174.409821 L 22.345104 175.121201 " />
<path stroke-linejoin="round" stroke-linecap="round" stroke="rgb(0,0,255)" stroke-width="1.874998" fill="none" d="M 0.000000 750.000000 L 28.745636 0.000000 " />
<path stroke-linejoin="round" stroke-linecap="round" stroke="rgb(255,0,0)" stroke-width="3.749996" fill="none" d="M 22.087902 173.706543 L 22.215754 174.409821 " />
<path stroke-linejoin="round" stroke-linecap="round" stroke="rgb(0,0,255)" stroke-width="1.874998" fill="none" d="M 0.000000 750.000000 L 28.546705 0.000000 " />
<path stroke-linejoin="round" stroke-linecap="round" stroke="rgb(255,0,0)" stroke-width="3.749996" fill="none" d="M 21.961502 173.011429 L 22.087902 173.706543 " />
<path stroke-linejoin="round" stroke-linecap="round" stroke="rgb(0,0,255)" stroke-width="1.874998" fill="none" d="M 0.000000 750.000000 L 27.173906 0.000000 " />
<path stroke-linejoin="round" stroke-linecap="round" stroke="rgb(255,0,0)" stroke-width="3.749996" fill="none" d="M 21.080866 168.167892 L 21.961502 173.011429 " />
<path stroke-linejoin="round" stroke-linecap="round" stroke="rgb(0,0,255)" stroke-width="1.874998" fill="none" d="M 0.000000 750.000000 L 24.368227 0.000000 " />
<path stroke-linejoin="round" stroke-linecap="round" stroke="rgb(255,0,0)" stroke-width="3.749996" fill="none" d="M 19.234278 158.011612 L 21.080866 168.167892 " />
<path stroke-linejoin="round" stroke-linecap="round" stroke="rgb(0,0,255)" stroke-width="1.874998" fill="none" d="M 0.000000 750.000000 L 21.582729 0.000000 " />
<path stroke-linejoin="round" stroke-linecap="round" stroke="rgb(255,0,0)" stroke-width="3.749996" fill="none" d="M 17.336079 147.571503 L 19.234278 158.011612 " />
<path stroke-linejoin="round" stroke-linecap="round" stroke="rgb(0,0,255)" stroke-width="1.874998" fill="none" d="M 0.000000 750.000000 L 18.817194 0.000000 " />
<path stroke-linejoin="round" stroke-linecap="round" stroke="rgb(255,0,0)" stroke-width="3.749996" fill="none" d="M 15.384056 136.835434 L 17.336079 147.571503 " />
<path stroke-linejoin="round" stroke-linecap="round" stroke="rgb(0,0,255)" stroke-width="1.874998" fill="none" d="M 0.000000 750.000000 L 18.683285 0.000000 " />
<path stroke-linejoin="round" stroke-linecap="round" stroke="rgb(255,0,0)" stroke-width="3.749996" fill="none" d="M 15.287765 136.305801 L 15.384056 136.835434 " />
<path stroke-linejoin="round" stroke-linecap="round" stroke="rgb(0,0,255)" stroke-width="1.874998" fill="none" d="M 0.000000 750.000000 L 18.421055 0.000000 " />
<path stroke-linejoin="round" stroke-linecap="round" stroke="rgb(255,0,0)" stroke-width="3.749996" fill="none" d="M 15.098736 135.266083 L 15.287765 136.305801 " />
<path stroke-linejoin="round" stroke-linecap="round" stroke="rgb(0,0,255)" stroke-width="1.874998" fill="none" d="M 0.000000 750.000000 L 18.292688 0.000000 " />
<path stroke-linejoin="round" stroke-linecap="round" stroke="rgb(255,0,0)" stroke-width="3.749996" fill="none" d="M 15.005954 134.755829 L 15.098736 135.266083 " />
<path stroke-linejoin="round" stroke-linecap="round" stroke="rgb(0,0,255)" stroke-width="1.874998" fill="none" d="M 0.000000 750.000000 L 18.166088 0.000000 " />
<path stroke-linejoin="round" stroke-linecap="round" stroke="rgb(255,0,0)" stroke-width="3.749996" fill="none" d="M 14.914311 134.251846 L 15.005954 134.755829 " />
<path stroke-linejoin="round" stroke-linecap="round" stroke="rgb(0,0,255)" stroke-width="1.874998" fill="none" d="M 0.000000 750.000000 L 18.041231 0.000000 " />
<path stroke-linejoin="round" stroke-linecap="round" stroke="rgb(255,0,0)" stroke-width="3.749996" fill="none" d="M 14.823787 133.753967 L 14.914311 134.251846 " />
<path stroke-linejoin="round" stroke-linecap="round" stroke="rgb(0,0,255)" stroke-width="1.874998" fill="none" d="M 0.000000 750.000000 L 17.918095 0.000000 " />
<path stroke-linejoin="round" stroke-linecap="round" stroke="rgb(255,0,0)" stroke-width="3.749996" fill="none" d="M 14.734358 133.262024 L 14.823787 133.753967 " />
<path stroke-linejoin="round" stroke-linecap="round" stroke="rgb(0,0,255)" stroke-width="1.874998" fill="none" d="M 0.000000 750.000000 L 17.796614 0.000000 " />
<path stroke-linejoin="round" stroke-linecap="round" stroke="rgb(255,0,0)" stroke-width="3.749996" fill="none" d="M 14.646001 132.776001 L 14.734358 133.261932 " />
<path stroke-linejoin="round" stroke-linecap="round" stroke="rgb(0,0,255)" stroke-width="1.874998" fill="none" d="M 0.000000 750.000000 L 17.676764 0.000000 " />
<path stroke-linejoin="round" stroke-linecap="round" stroke="rgb(255,0,0)" stroke-width="3.749996" fill="none" d="M 14.558695 132.295776 L 14.646001 132.776001 " />
<path stroke-linejoin="round" stroke-linecap="round" stroke="rgb(0,0,255)" stroke-width="1.874998" fill="none" d="M 0.000000 750.000000 L 15.100680 0.000000 " />
<path stroke-linejoin="round" stroke-linecap="round" stroke="rgb(255,0,0)" stroke-width="3.749996" fill="none" d="M 12.648516 121.789879 L 14.558695 132.295776 " />
<path stroke-linejoin="round" stroke-linecap="round" stroke="rgb(0,0,255)" stroke-width="1.874998" fill="none" d="M 0.000000 750.000000 L 12.541808 0.000000 " />
<path stroke-linejoin="round" stroke-linecap="round" stroke="rgb(255,0,0)" stroke-width="3.749996" fill="none" d="M 10.685719 110.994461 L 12.648516 121.789879 " />
<path stroke-linejoin="round" stroke-linecap="round" stroke="rgb(0,0,255)" stroke-width="1.874998" fill="none" d="M 0.000000 750.000000 L 9.999990 0.000000 " />
<path stroke-linejoin="round" stroke-linecap="round" stroke="rgb(255,0,0)" stroke-width="3.749996" fill="none" d="M 8.668028 99.897263 L 10.685719 110.994522 " />
<path stroke-linejoin="round" stroke-linecap="round" stroke="rgb(0,0,255)" stroke-width="1.874998" fill="none" d="M 0.000000 750.000000 L 9.933784 0.000000 " />
<path stroke-linejoin="round" stroke-linecap="round" stroke="rgb(255,0,0)" stroke-width="3.749996" fill="none" d="M 8.614540 99.602867 L 8.668028 99.897263 " />
<path stroke-linejoin="round" stroke-linecap="round" stroke="rgb(0,0,255)" stroke-width="1.874998" fill="none" d="M 0.000000 750.000000 L 7.425740 0.000000 " />
<path stroke-linejoin="round" stroke-linecap="round" stroke="rgb(255,0,0)" stroke-width="3.749996" fill="none" d="M 6.551899 88.258400 L 8.614540 99.602867 " />
<path stroke-linejoin="round" stroke-linecap="round" stroke="rgb(0,0,255)" stroke-width="1.874998" fill="none" d="M 0.000000 750.000000 L 7.377058 0.000000 " />
<path stroke-linejoin="round" stroke-linecap="round" stroke="rgb(255,0,0)" stroke-width="3.749996" fill="none" d="M 6.511129 88.034256 L 6.551899 88.258400 " />
<path stroke-linejoin="round" stroke-linecap="round" stroke="rgb(0,0,255)" stroke-width="1.874998" fill="none" d="M 0.000000 750.000000 L 7.188499 0.000000 " />
<path stroke-linejoin="round" stroke-linecap="round" stroke="rgb(255,0,0)" stroke-width="3.749996" fill="none" d="M 6.353058 87.164772 L 6.511129 88.034256 " />
<path stroke-linejoin="round" stroke-linecap="round" stroke="rgb(0,0,255)" stroke-width="1.874998" fill="none" d="M 0.000000 750.000000 L 4.777059 0.000000 " />
<path stroke-linejoin="round" stroke-linecap="round" stroke="rgb(255,0,0)" stroke-width="3.749996" fill="none" d="M 4.312500 72.936638 L 6.353058 87.164772 " />
<path stroke-linejoin="round" stroke-linecap="round" stroke="rgb(0,0,255)" stroke-width="1.874998" fill="none" d="M 0.000000 750.000000 L 2.380952 0.000000 " />
<path stroke-linejoin="round" stroke-linecap="round" stroke="rgb(255,0,0)" stroke-width="3.749996" fill="none" d="M 2.252318 40.521450 L 4.312500 72.936638 " />
<path stroke-linejoin="round" stroke-linecap="round" stroke="rgb(0,0,255)" stroke-width="1.874998" fill="none" d="M 0.000000 750.000000 L 0.000000 0.000000 " />
<path stroke-linejoin="round" stroke-linecap="round" stroke="rgb(255,0,0)" stroke-width="3.749996" fill="none" d="M 0.000000 0.000000 L 2.252318 40.521450 " />
<circle cx="74.025974" cy="731.493495" r="3.749996" style="fill:rgb(0,127,0);stroke-width:1" /><circle cx="72.730042" cy="712.702543" r="3.749996" style="fill:rgb(0,127,0);stroke-width:1" /><circle cx="71.598887" cy="696.300834" r="3.749996" style="fill:rgb(0,127,0);stroke-width:1" /><circle cx="70.555106" cy="681.165755" r="3.749996" style="fill:rgb(0,127,0);stroke-width:1" /><circle cx="70.327722" cy="677.868985" r="3.749996" style="fill:rgb(0,127,0);stroke-width:1" /><circle cx="69.037534" cy="659.161136" r="3.749996" style="fill:rgb(0,127,0);stroke-width:1" /><circle cx="68.079025" cy="645.263024" r="3.749996" style="fill:rgb(0,127,0);stroke-width:1" /><circle cx="67.727856" cy="640.171051" r="3.749996" style="fill:rgb(0,127,0);stroke-width:1" /><circle cx="66.398285" cy="620.892227" r="3.749996" style="fill:rgb(0,127,0);stroke-width:1" /><circle cx="65.048352" cy="601.318069" r="3.749996" style="fill:rgb(0,127,0);stroke-width:1" /><circle cx="63.677564" cy="581.441738" r="3.749996" style="fill:rgb(0,127,0);stroke-width:1" /><circle cx="62.285453" cy="561.256215" r="3.749996" style="fill:rgb(0,127,0);stroke-width:1" /><circle cx="61.565526" cy="550.817393" r="3.749996" style="fill:rgb(0,127,0);stroke-width:1" /><circle cx="60.871527" cy="540.754147" r="3.749996" style="fill:rgb(0,127,0);stroke-width:1" /><circle cx="60.204081" cy="531.076100" r="3.749996" style="fill:rgb(0,127,0);stroke-width:1" /><circle cx="59.435248" cy="519.928101" r="3.749996" style="fill:rgb(0,127,0);stroke-width:1" /><circle cx="58.821984" cy="511.035718" r="3.749996" style="fill:rgb(0,127,0);stroke-width:1" /><circle cx="57.976082" cy="498.770300" r="3.749996" style="fill:rgb(0,127,0);stroke-width:1" /><circle cx="56.493491" cy="477.272809" r="3.749996" style="fill:rgb(0,127,0);stroke-width:1" /><circle cx="55.993997" cy="470.030062" r="3.749996" style="fill:rgb(0,127,0);stroke-width:1" /><circle cx="54.986894" cy="455.427345" r="3.749996" style="fill:rgb(0,127,0);stroke-width:1" /><circle cx="54.547101" cy="449.050426" r="3.749996" style="fill:rgb(0,127,0);stroke-width:1" /><circle cx="53.455733" cy="433.225360" r="3.749996" style="fill:rgb(0,127,0);stroke-width:1" /><circle cx="53.077631" cy="427.742958" r="3.749996" style="fill:rgb(0,127,0);stroke-width:1" /><circle cx="51.899359" cy="410.658038" r="3.749996" style="fill:rgb(0,127,0);stroke-width:1" /><circle cx="50.317168" cy="387.716353" r="3.749996" style="fill:rgb(0,127,0);stroke-width:1" /><circle cx="48.708513" cy="364.390862" r="3.749996" style="fill:rgb(0,127,0);stroke-width:1" /><circle cx="48.528112" cy="361.775064" r="3.749996" style="fill:rgb(0,127,0);stroke-width:1" /><circle cx="47.072724" cy="340.671910" r="3.749996" style="fill:rgb(0,127,0);stroke-width:1" /><circle cx="46.962686" cy="339.076423" r="3.749996" style="fill:rgb(0,127,0);stroke-width:1" /><circle cx="45.371823" cy="316.008674" r="3.749996" style="fill:rgb(0,127,0);stroke-width:1" /><circle cx="45.337692" cy="315.513790" r="3.749996" style="fill:rgb(0,127,0);stroke-width:1" /><circle cx="43.789543" cy="293.065667" r="3.749996" style="fill:rgb(0,127,0);stroke-width:1" /><circle cx="43.487504" cy="291.404486" r="3.749996" style="fill:rgb(0,127,0);stroke-width:1" /><circle cx="42.046823" cy="283.480598" r="3.749996" style="fill:rgb(0,127,0);stroke-width:1" /><circle cx="41.806899" cy="282.160984" r="3.749996" style="fill:rgb(0,127,0);stroke-width:1" /><circle cx="41.335166" cy="279.566467" r="3.749996" style="fill:rgb(0,127,0);stroke-width:1" /><circle cx="39.872959" cy="271.524455" r="3.749996" style="fill:rgb(0,127,0);stroke-width:1" /><circle cx="38.372666" cy="263.272908" r="3.749996" style="fill:rgb(0,127,0);stroke-width:1" /><circle cx="38.151830" cy="262.058225" r="3.749996" style="fill:rgb(0,127,0);stroke-width:1" /><circle cx="36.618032" cy="253.622320" r="3.749996" style="fill:rgb(0,127,0);stroke-width:1" /><circle cx="36.405757" cy="252.454810" r="3.749996" style="fill:rgb(0,127,0);stroke-width:1" /><circle cx="35.988495" cy="250.159834" r="3.749996" style="fill:rgb(0,127,0);stroke-width:1" /><circle cx="35.783440" cy="249.031987" r="3.749996" style="fill:rgb(0,127,0);stroke-width:1" /><circle cx="35.580687" cy="247.916937" r="3.749996" style="fill:rgb(0,127,0);stroke-width:1" /><circle cx="35.380237" cy="246.814404" r="3.749996" style="fill:rgb(0,127,0);stroke-width:1" /><circle cx="33.843666" cy="238.363333" r="3.749996" style="fill:rgb(0,127,0);stroke-width:1" /><circle cx="33.651643" cy="237.307224" r="3.749996" style="fill:rgb(0,127,0);stroke-width:1" /><circle cx="32.081701" cy="228.672512" r="3.749996" style="fill:rgb(0,127,0);stroke-width:1" /><circle cx="31.898372" cy="227.664180" r="3.749996" style="fill:rgb(0,127,0);stroke-width:1" /><circle cx="31.717122" cy="226.667371" r="3.749996" style="fill:rgb(0,127,0);stroke-width:1" /><circle cx="30.119866" cy="217.882421" r="3.749996" style="fill:rgb(0,127,0);stroke-width:1" /><circle cx="29.947512" cy="216.934450" r="3.749996" style="fill:rgb(0,127,0);stroke-width:1" /><circle cx="29.777102" cy="215.997253" r="3.749996" style="fill:rgb(0,127,0);stroke-width:1" /><circle cx="29.608637" cy="215.070639" r="3.749996" style="fill:rgb(0,127,0);stroke-width:1" /><circle cx="28.647736" cy="209.785648" r="3.749996" style="fill:rgb(0,127,0);stroke-width:1" /><circle cx="26.957206" cy="200.487725" r="3.749996" style="fill:rgb(0,127,0);stroke-width:1" /><circle cx="26.797928" cy="199.611750" r="3.749996" style="fill:rgb(0,127,0);stroke-width:1" /><circle cx="26.640527" cy="198.745999" r="3.749996" style="fill:rgb(0,127,0);stroke-width:1" /><circle cx="26.484959" cy="197.890453" r="3.749996" style="fill:rgb(0,127,0);stroke-width:1" /><circle cx="26.331201" cy="197.044764" r="3.749996" style="fill:rgb(0,127,0);stroke-width:1" /><circle cx="26.179209" cy="196.208809" r="3.749996" style="fill:rgb(0,127,0);stroke-width:1" /><circle cx="24.920605" cy="189.286418" r="3.749996" style="fill:rgb(0,127,0);stroke-width:1" /><circle cx="23.153991" cy="179.570027" r="3.749996" style="fill:rgb(0,127,0);stroke-width:1" /><circle cx="23.015141" cy="178.806312" r="3.749996" style="fill:rgb(0,127,0);stroke-width:1" /><circle cx="22.877924" cy="178.051718" r="3.749996" style="fill:rgb(0,127,0);stroke-width:1" /><circle cx="22.742361" cy="177.306063" r="3.749996" style="fill:rgb(0,127,0);stroke-width:1" /><circle cx="22.608384" cy="176.569216" r="3.749996" style="fill:rgb(0,127,0);stroke-width:1" /><circle cx="22.475973" cy="175.840974" r="3.749996" style="fill:rgb(0,127,0);stroke-width:1" /><circle cx="22.345103" cy="175.121203" r="3.749996" style="fill:rgb(0,127,0);stroke-width:1" /><circle cx="22.215754" cy="174.409814" r="3.749996" style="fill:rgb(0,127,0);stroke-width:1" /><circle cx="22.087902" cy="173.706539" r="3.749996" style="fill:rgb(0,127,0);stroke-width:1" /><circle cx="21.961503" cy="173.011422" r="3.749996" style="fill:rgb(0,127,0);stroke-width:1" /><circle cx="21.080866" cy="168.167889" r="3.749996" style="fill:rgb(0,127,0);stroke-width:1" /><circle cx="19.234277" cy="158.011615" r="3.749996" style="fill:rgb(0,127,0);stroke-width:1" /><circle cx="17.336078" cy="147.571497" r="3.749996" style="fill:rgb(0,127,0);stroke-width:1" /><circle cx="15.384056" cy="136.835441" r="3.749996" style="fill:rgb(0,127,0);stroke-width:1" /><circle cx="15.287764" cy="136.305794" r="3.749996" style="fill:rgb(0,127,0);stroke-width:1" /><circle cx="15.098736" cy="135.266080" r="3.749996" style="fill:rgb(0,127,0);stroke-width:1" /><circle cx="15.005954" cy="134.755835" r="3.749996" style="fill:rgb(0,127,0);stroke-width:1" /><circle cx="14.914311" cy="134.251848" r="3.749996" style="fill:rgb(0,127,0);stroke-width:1" /><circle cx="14.823787" cy="133.753963" r="3.749996" style="fill:rgb(0,127,0);stroke-width:1" /><circle cx="14.734358" cy="133.262023" r="3.749996" style="fill:rgb(0,127,0);stroke-width:1" /><circle cx="14.646001" cy="132.776007" r="3.749996" style="fill:rgb(0,127,0);stroke-width:1" /><circle cx="14.558695" cy="132.295780" r="3.749996" style="fill:rgb(0,127,0);stroke-width:1" /><circle cx="12.648515" cy="121.789880" r="3.749996" style="fill:rgb(0,127,0);stroke-width:1" /><circle cx="10.685720" cy="110.994458" r="3.749996" style="fill:rgb(0,127,0);stroke-width:1" /><circle cx="8.668028" cy="99.897265" r="3.749996" style="fill:rgb(0,127,0);stroke-width:1" /><circle cx="8.614540" cy="99.602871" r="3.749996" style="fill:rgb(0,127,0);stroke-width:1" /><circle cx="6.551899" cy="88.258401" r="3.749996" style="fill:rgb(0,127,0);stroke-width:1" /><circle cx="6.511129" cy="88.034257" r="3.749996" style="fill:rgb(0,127,0);stroke-width:1" /><circle cx="6.353058" cy="87.164775" r="3.749996" style="fill:rgb(0,127,0);stroke-width:1" /><circle cx="4.312500" cy="72.936639" r="3.749996" style="fill:rgb(0,127,0);stroke-width:1" /><circle cx="2.252296" cy="40.521450" r="3.750008" style="fill:rgb(0,127,0);stroke-width:1" /><circle cx="750.000000" cy="750.000000" r="3.749996" style="fill:rgb(0,127,0);stroke-width:1" /><path stroke-linejoin="round" stroke-linecap="round" stroke="rgb(255,255,255)" stroke-width="3.749996" fill="none" d="M 0.000000 750.000000 L 750.000000 750.000000 M 0.000000 750.000000 L 0.000000 0.000000 " />

</svg>