<svg xmlns="http://www.w3.org/2000/svg" version="1.1" width = "750" height = "750" viewBox = "0 0 750 750"  shape-rendering="crispEdges">
<path stroke-linejoin="round" stroke-linecap="round" stroke="rgb(255,255,0)" stroke-width="3.749996" fill="none" d="M 93.750000 750.000000 L 0.000000 0.000000 " />
<path stroke-linejoin="round" stroke-linecap="round" stroke="rgb(63,63,63)" stroke-width="3.749996" fill="none" d="M 0.000000 0.000000 L 750.000000 750.000000 M 93.750000 750.000000 L 43.750004 0.000000 " />
<path stroke-linejoin="round" stroke-linecap="round" stroke="rgb(191,191,191)" stroke-width="3.749996" fill="none" d="M 0.000000 656.250000 L 93.750000 750.000000 M 0.000000 0.000000 L 49.999996 750.000000 " />
<path stroke-linejoin="round" stroke-linecap="round" stroke="rgb(0,0,255)" stroke-width="1.874998" fill="none" d="M 0.000000 750.000000 L 750.000000 562.500000 " />
<path stroke-linejoin="round" stroke-linecap="round" stroke="rgb(255,0,0)" stroke-width="3.749996" fill="none" d="M 92.213097 726.946716 L 93.750000 750.000000 " />
<path stroke-linejoin="round" stroke-linecap="round" stroke="rgb(0,0,255)" stroke-width="1.874998" fill="none" d="M 0.000000 750.000000 L 750.000000 365.384583 " />
<path stroke-linejoin="round" stroke-linecap="round" stroke="rgb(255,0,0)" stroke-width="3.749996" fill="none" d="M 90.195625 703.745850 L 92.213097 726.946716 " />
<path stroke-linejoin="round" stroke-linecap="round" stroke="rgb(0,0,255)" stroke-width="1.874998" fill="none" d="M 0.000000 750.000000 L 750.000000 187.500000 " />
<path stroke-linejoin="round" stroke-linecap="round" stroke="rgb(255,0,0)" stroke-width="3.749996" fill="none" d="M 88.449310 683.663025 L 90.195625 703.745850 " />
<path stroke-linejoin="round" stroke-linecap="round" stroke="rgb(0,0,255)" stroke-width="1.874998" fill="none" d="M 0.000000 750.000000 L 750.000000 18.292665 " />
<path stroke-linejoin="round" stroke-linecap="round" stroke="rgb(255,0,0)" stroke-width="3.749996" fill="none" d="M 86.849792 665.268494 L 88.449326 683.663025 " />
<path stroke-linejoin="round" stroke-linecap="round" stroke="rgb(0,0,255)" stroke-width="1.874998" fill="none" d="M 0.000000 750.000000 L 731.250000 0.000000 " />
<path stroke-linejoin="round" stroke-linecap="round" stroke="rgb(255,0,0)" stroke-width="3.749996" fill="none" d="M 86.502892 661.279053 L 86.849792 665.268494 " />
<path stroke-linejoin="round" stroke-linecap="round" stroke="rgb(0,0,255)" stroke-width="1.874998" fill="none" d="M 0.000000 750.000000 L 570.000000 0.000000 " />
<path stroke-linejoin="round" stroke-linecap="round" stroke="rgb(255,0,0)" stroke-width="3.749996" fill="none" d="M 84.544479 638.757263 L 86.502892 661.279053 " />
<path stroke-linejoin="round" stroke-linecap="round" stroke="rgb(0,0,255)" stroke-width="1.874998" fill="none" d="M 0.000000 750.000000 L 487.499969 0.000000 " />
<path stroke-linejoin="round" stroke-linecap="round" stroke="rgb(255,0,0)" stroke-width="3.749996" fill="none" d="M 83.100624 622.152893 L 84.544479 638.757263 " />
<path stroke-linejoin="round" stroke-linecap="round" stroke="rgb(0,0,255)" stroke-width="1.874998" fill="none" d="M 0.000000 750.000000 L 462.500000 0.000000 " />
<path stroke-linejoin="round" stroke-linecap="round" stroke="rgb(255,0,0)" stroke-width="3.749996" fill="none" d="M 82.573952 616.096252 L 83.100624 622.152893 " />
<path stroke-linejoin="round" stroke-linecap="round" stroke="rgb(0,0,255)" stroke-width="1.874998" fill="none" d="M 0.000000 750.000000 L 385.714294 0.000000 " />
<path stroke-linejoin="round" stroke-linecap="round" stroke="rgb(255,0,0)" stroke-width="3.749996" fill="none" d="M 80.591217 593.294861 L 82.573952 616.096252 " />
<path stroke-linejoin="round" stroke-linecap="round" stroke="rgb(0,0,255)" stroke-width="1.874998" fill="none" d="M 0.000000 750.000000 L 328.124969 0.000000 " />
<path stroke-linejoin="round" stroke-linecap="round" stroke="rgb(255,0,0)" stroke-width="3.749996" fill="none" d="M 78.596169 570.351624 L 80.591217 593.294861 " />
<path stroke-linejoin="round" stroke-linecap="round" stroke="rgb(0,0,255)" stroke-width="1.874998" fill="none" d="M 0.000000 750.000000 L 283.333344 0.000000 " />
<path stroke-linejoin="round" stroke-linecap="round" stroke="rgb(255,0,0)" stroke-width="3.749996" fill="none" d="M 76.588669 547.265320 L 78.596191 570.351562 " />
<path stroke-linejoin="round" stroke-linecap="round" stroke="rgb(0,0,255)" stroke-width="1.874998" fill="none" d="M 0.000000 750.000000 L 247.500015 0.000000 " />
<path stroke-linejoin="round" stroke-linecap="round" stroke="rgb(255,0,0)" stroke-width="3.749996" fill="none" d="M 74.568604 524.034546 L 76.588669 547.265320 " />
<path stroke-linejoin="round" stroke-linecap="round" stroke="rgb(0,0,255)" stroke-width="1.874998" fill="none" d="M 0.000000 750.000000 L 231.818192 0.000000 " />
<path stroke-linejoin="round" stroke-linecap="round" stroke="rgb(255,0,0)" stroke-width="3.749996" fill="none" d="M 73.531242 512.104797 L 74.568604 524.034546 " />
<path stroke-linejoin="round" stroke-linecap="round" stroke="rgb(0,0,255)" stroke-width="1.874998" fill="none" d="M 0.000000 750.000000 L 218.181808 0.000000 " />
<path stroke-linejoin="round" stroke-linecap="round" stroke="rgb(255,0,0)" stroke-width="3.749996" fill="none" d="M 72.535873 500.658020 L 73.531242 512.104797 " />
<path stroke-linejoin="round" stroke-linecap="round" stroke="rgb(0,0,255)" stroke-width="1.874998" fill="none" d="M 0.000000 750.000000 L 206.250000 0.000000 " />
<path stroke-linejoin="round" stroke-linecap="round" stroke="rgb(255,0,0)" stroke-width="3.749996" fill="none" d="M 71.582886 489.698578 L 72.535873 500.658020 " />
<path stroke-linejoin="round" stroke-linecap="round" stroke="rgb(0,0,255)" stroke-width="1.874998" fill="none" d="M 0.000000 750.000000 L 193.750015 0.000000 " />
<path stroke-linejoin="round" stroke-linecap="round" stroke="rgb(255,0,0)" stroke-width="3.749996" fill="none" d="M 70.490334 477.134216 L 71.582886 489.698578 " />
<path stroke-linejoin="round" stroke-linecap="round" stroke="rgb(0,0,255)" stroke-width="1.874998" fill="none" d="M 0.000000 750.000000 L 184.615372 0.000000 " />
<path stroke-linejoin="round" stroke-linecap="round" stroke="rgb(255,0,0)" stroke-width="3.749996" fill="none" d="M 69.622772 467.157471 L 70.490334 477.134216 " />
<path stroke-linejoin="round" stroke-linecap="round" stroke="rgb(0,0,255)" stroke-width="1.874998" fill="none" d="M 0.000000 750.000000 L 173.076920 0.000000 " />
<path stroke-linejoin="round" stroke-linecap="round" stroke="rgb(255,0,0)" stroke-width="3.749996" fill="none" d="M 68.431870 453.461945 L 69.622772 467.157471 " />
<path stroke-linejoin="round" stroke-linecap="round" stroke="rgb(0,0,255)" stroke-width="1.874998" fill="none" d="M 0.000000 750.000000 L 155.357147 0.000000 " />
<path stroke-linejoin="round" stroke-linecap="round" stroke="rgb(255,0,0)" stroke-width="3.749996" fill="none" d="M 66.360352 429.639648 L 68.431870 453.461945 " />
<path stroke-linejoin="round" stroke-linecap="round" stroke="rgb(0,0,255)" stroke-width="1.874998" fill="none" d="M 0.000000 750.000000 L 149.999985 0.000000 " />
<path stroke-linejoin="round" stroke-linecap="round" stroke="rgb(255,0,0)" stroke-width="3.749996" fill="none" d="M 65.666939 421.665283 L 66.360352 429.639648 " />
<path stroke-linejoin="round" stroke-linecap="round" stroke="rgb(0,0,255)" stroke-width="1.874998" fill="none" d="M 0.000000 750.000000 L 140.000000 0.000000 " />
<path stroke-linejoin="round" stroke-linecap="round" stroke="rgb(255,0,0)" stroke-width="3.749996" fill="none" d="M 64.275696 405.665955 L 65.666939 421.665283 " />
<path stroke-linejoin="round" stroke-linecap="round" stroke="rgb(0,0,255)" stroke-width="1.874998" fill="none" d="M 0.000000 750.000000 L 135.937485 0.000000 " />
<path stroke-linejoin="round" stroke-linecap="round" stroke="rgb(255,0,0)" stroke-width="3.749996" fill="none" d="M 63.670971 398.711853 L 64.275696 405.665955 " />
<path stroke-linejoin="round" stroke-linecap="round" stroke="rgb(0,0,255)" stroke-width="1.874998" fill="none" d="M 0.000000 750.000000 L 126.562492 0.000000 " />
<path stroke-linejoin="round" stroke-linecap="round" stroke="rgb(255,0,0)" stroke-width="3.749996" fill="none" d="M 62.177719 381.539490 L 63.670971 398.711884 " />
<path stroke-linejoin="round" stroke-linecap="round" stroke="rgb(0,0,255)" stroke-width="1.874998" fill="none" d="M 0.000000 750.000000 L 123.529404 0.000000 " />
<path stroke-linejoin="round" stroke-linecap="round" stroke="rgb(255,0,0)" stroke-width="3.749996" fill="none" d="M 61.662846 375.618378 L 62.177719 381.539490 " />
<path stroke-linejoin="round" stroke-linecap="round" stroke="rgb(0,0,255)" stroke-width="1.874998" fill="none" d="M 0.000000 750.000000 L 114.705879 0.000000 " />
<path stroke-linejoin="round" stroke-linecap="round" stroke="rgb(255,0,0)" stroke-width="3.749996" fill="none" d="M 60.066349 357.258484 L 61.662868 375.618347 " />
<path stroke-linejoin="round" stroke-linecap="round" stroke="rgb(0,0,255)" stroke-width="1.874998" fill="none" d="M 0.000000 750.000000 L 104.166672 0.000000 " />
<path stroke-linejoin="round" stroke-linecap="round" stroke="rgb(255,0,0)" stroke-width="3.749996" fill="none" d="M 57.941414 332.821808 L 60.066349 357.258484 " />
<path stroke-linejoin="round" stroke-linecap="round" stroke="rgb(0,0,255)" stroke-width="1.874998" fill="none" d="M 0.000000 750.000000 L 94.736832 0.000000 " />
<path stroke-linejoin="round" stroke-linecap="round" stroke="rgb(255,0,0)" stroke-width="3.749996" fill="none" d="M 55.802822 308.227753 L 57.941414 332.821808 " />
<path stroke-linejoin="round" stroke-linecap="round" stroke="rgb(0,0,255)" stroke-width="1.874998" fill="none" d="M 0.000000 750.000000 L 93.750000 0.000000 " />
<path stroke-linejoin="round" stroke-linecap="round" stroke="rgb(255,0,0)" stroke-width="3.749996" fill="none" d="M 55.564327 305.485321 L 55.802822 308.227753 " />
<path stroke-linejoin="round" stroke-linecap="round" stroke="rgb(0,0,255)" stroke-width="1.874998" fill="none" d="M 0.000000 750.000000 L 86.250008 0.000000 " />
<path stroke-linejoin="round" stroke-linecap="round" stroke="rgb(255,0,0)" stroke-width="3.749996" fill="none" d="M 53.650394 283.474945 L 55.564327 305.485321 " />
<path stroke-linejoin="round" stroke-linecap="round" stroke="rgb(0,0,255)" stroke-width="1.874998" fill="none" d="M 0.000000 750.000000 L 85.714279 0.000000 " />
<path stroke-linejoin="round" stroke-linecap="round" stroke="rgb(255,0,0)" stroke-width="3.749996" fill="none" d="M 53.506405 281.819061 L 53.650394 283.474945 " />
<path stroke-linejoin="round" stroke-linecap="round" stroke="rgb(0,0,255)" stroke-width="1.874998" fill="none" d="M 0.000000 750.000000 L 78.409103 0.000000 " />
<path stroke-linejoin="round" stroke-linecap="round" stroke="rgb(255,0,0)" stroke-width="3.749996" fill="none" d="M 51.435715 258.006195 L 53.506405 281.819061 " />
<path stroke-linejoin="round" stroke-linecap="round" stroke="rgb(0,0,255)" stroke-width="1.874998" fill="none" d="M 0.000000 750.000000 L 78.260872 0.000000 " />
<path stroke-linejoin="round" stroke-linecap="round" stroke="rgb(255,0,0)" stroke-width="3.749996" fill="none" d="M 51.391525 257.497925 L 51.435715 258.006195 " />
<path stroke-linejoin="round" stroke-linecap="round" stroke="rgb(0,0,255)" stroke-width="1.874998" fill="none" d="M 0.000000 750.000000 L 71.739120 0.000000 " />
<path stroke-linejoin="round" stroke-linecap="round" stroke="rgb(255,0,0)" stroke-width="3.749996" fill="none" d="M 49.352177 234.045441 L 51.391525 257.497925 " />
<path stroke-linejoin="round" stroke-linecap="round" stroke="rgb(0,0,255)" stroke-width="1.874998" fill="none" d="M 0.000000 750.000000 L 68.181824 0.000000 " />
<path stroke-linejoin="round" stroke-linecap="round" stroke="rgb(255,0,0)" stroke-width="3.749996" fill="none" d="M 47.615448 226.230118 L 49.352177 234.045395 " />
<path stroke-linejoin="round" stroke-linecap="round" stroke="rgb(0,0,255)" stroke-width="1.874998" fill="none" d="M 0.000000 750.000000 L 67.596565 0.000000 " />
<path stroke-linejoin="round" stroke-linecap="round" stroke="rgb(255,0,0)" stroke-width="3.749996" fill="none" d="M 47.324673 224.921555 L 47.615448 226.230118 " />
<path stroke-linejoin="round" stroke-linecap="round" stroke="rgb(0,0,255)" stroke-width="1.874998" fill="none" d="M 0.000000 750.000000 L 65.625008 0.000000 " />
<path stroke-linejoin="round" stroke-linecap="round" stroke="rgb(255,0,0)" stroke-width="3.749996" fill="none" d="M 46.636662 217.009491 L 47.324673 224.921509 " />
<path stroke-linejoin="round" stroke-linecap="round" stroke="rgb(0,0,255)" stroke-width="1.874998" fill="none" d="M 0.000000 750.000000 L 64.285713 0.000000 " />
<path stroke-linejoin="round" stroke-linecap="round" stroke="rgb(255,0,0)" stroke-width="3.749996" fill="none" d="M 45.949818 213.918686 L 46.636662 217.009491 " />
<path stroke-linejoin="round" stroke-linecap="round" stroke="rgb(0,0,255)" stroke-width="1.874998" fill="none" d="M 0.000000 750.000000 L 63.679241 0.000000 " />
<path stroke-linejoin="round" stroke-linecap="round" stroke="rgb(255,0,0)" stroke-width="3.749996" fill="none" d="M 45.636177 212.507309 L 45.949818 213.918686 " />
<path stroke-linejoin="round" stroke-linecap="round" stroke="rgb(0,0,255)" stroke-width="1.874998" fill="none" d="M 0.000000 750.000000 L 59.859150 0.000000 " />
<path stroke-linejoin="round" stroke-linecap="round" stroke="rgb(255,0,0)" stroke-width="3.749996" fill="none" d="M 43.621906 203.443192 L 45.636177 212.507401 " />
<path stroke-linejoin="round" stroke-linecap="round" stroke="rgb(0,0,255)" stroke-width="1.874998" fill="none" d="M 0.000000 750.000000 L 59.302322 0.000000 " />
<path stroke-linejoin="round" stroke-linecap="round" stroke="rgb(255,0,0)" stroke-width="3.749996" fill="none" d="M 43.322617 202.096405 L 43.621906 203.443222 " />
<path stroke-linejoin="round" stroke-linecap="round" stroke="rgb(0,0,255)" stroke-width="1.874998" fill="none" d="M 0.000000 750.000000 L 58.755756 0.000000 " />
<path stroke-linejoin="round" stroke-linecap="round" stroke="rgb(255,0,0)" stroke-width="3.749996" fill="none" d="M 43.027393 200.767899 L 43.322617 202.096405 " />
<path stroke-linejoin="round" stroke-linecap="round" stroke="rgb(0,0,255)" stroke-width="1.874998" fill="none" d="M 0.000000 750.000000 L 58.219181 0.000000 " />
<path stroke-linejoin="round" stroke-linecap="round" stroke="rgb(255,0,0)" stroke-width="3.749996" fill="none" d="M 42.736172 199.457474 L 43.027393 200.767899 " />
<path stroke-linejoin="round" stroke-linecap="round" stroke="rgb(0,0,255)" stroke-width="1.874998" fill="none" d="M 0.000000 750.000000 L 54.545448 0.000000 " />
<path stroke-linejoin="round" stroke-linecap="round" stroke="rgb(255,0,0)" stroke-width="3.749996" fill="none" d="M 40.704399 190.314484 L 42.736172 199.457474 " />
<path stroke-linejoin="round" stroke-linecap="round" stroke="rgb(0,0,255)" stroke-width="1.874998" fill="none" d="M 0.000000 750.000000 L 50.904976 0.000000 " />
<path stroke-linejoin="round" stroke-linecap="round" stroke="rgb(255,0,0)" stroke-width="3.749996" fill="none" d="M 38.623318 180.949692 L 40.704399 190.314529 " />
<path stroke-linejoin="round" stroke-linecap="round" stroke="rgb(0,0,255)" stroke-width="1.874998" fill="none" d="M 0.000000 750.000000 L 50.448418 0.000000 " />
<path stroke-linejoin="round" stroke-linecap="round" stroke="rgb(255,0,0)" stroke-width="3.749996" fill="none" d="M 38.357422 179.753113 L 38.623318 180.949692 " />
<path stroke-linejoin="round" stroke-linecap="round" stroke="rgb(0,0,255)" stroke-width="1.874998" fill="none" d="M 0.000000 750.000000 L 49.999996 0.000000 " />
<path stroke-linejoin="round" stroke-linecap="round" stroke="rgb(255,0,0)" stroke-width="3.749996" fill="none" d="M 38.095146 178.572891 L 38.357422 179.753113 " />
<path stroke-linejoin="round" stroke-linecap="round" stroke="rgb(0,0,255)" stroke-width="1.874998" fill="none" d="M 0.000000 750.000000 L 49.559467 0.000000 " />
<path stroke-linejoin="round" stroke-linecap="round" stroke="rgb(255,0,0)" stroke-width="3.749996" fill="none" d="M 37.836426 177.408768 L 38.095146 178.572937 " />
<path stroke-linejoin="round" stroke-linecap="round" stroke="rgb(0,0,255)" stroke-width="1.874998" fill="none" d="M 0.000000 750.000000 L 49.126625 0.000000 " />
<path stroke-linejoin="round" stroke-linecap="round" stroke="rgb(255,0,0)" stroke-width="3.749996" fill="none" d="M 37.581211 176.260300 L 37.836426 177.408813 " />
<path stroke-linejoin="round" stroke-linecap="round" stroke="rgb(0,0,255)" stroke-width="1.874998" fill="none" d="M 0.000000 750.000000 L 45.652180 0.000000 " />
<path stroke-linejoin="round" stroke-linecap="round" stroke="rgb(255,0,0)" stroke-width="3.749996" fill="none" d="M 35.494789 166.871399 L 37.581211 176.260300 " />
<path stroke-linejoin="round" stroke-linecap="round" stroke="rgb(0,0,255)" stroke-width="1.874998" fill="none" d="M 0.000000 750.000000 L 42.207798 0.000000 " />
<path stroke-linejoin="round" stroke-linecap="round" stroke="rgb(255,0,0)" stroke-width="3.749996" fill="none" d="M 33.357918 157.255539 L 35.494789 166.871399 " />
<path stroke-linejoin="round" stroke-linecap="round" stroke="rgb(0,0,255)" stroke-width="1.874998" fill="none" d="M 0.000000 750.000000 L 41.845501 0.000000 " />
<path stroke-linejoin="round" stroke-linecap="round" stroke="rgb(255,0,0)" stroke-width="3.749996" fill="none" d="M 33.129036 156.225616 L 33.357918 157.255539 " />
<path stroke-linejoin="round" stroke-linecap="round" stroke="rgb(0,0,255)" stroke-width="1.874998" fill="none" d="M 0.000000 750.000000 L 41.489368 0.000000 " />
<path stroke-linejoin="round" stroke-linecap="round" stroke="rgb(255,0,0)" stroke-width="3.749996" fill="none" d="M 32.903282 155.209686 L 33.129036 156.225616 " />
<path stroke-linejoin="round" stroke-linecap="round" stroke="rgb(0,0,255)" stroke-width="1.874998" fill="none" d="M 0.000000 750.000000 L 41.139229 0.000000 " />
<path stroke-linejoin="round" stroke-linecap="round" stroke="rgb(255,0,0)" stroke-width="3.749996" fill="none" d="M 32.680592 154.207565 L 32.903282 155.209686 " />
<path stroke-linejoin="round" stroke-linecap="round" stroke="rgb(0,0,255)" stroke-width="1.874998" fill="none" d="M 0.000000 750.000000 L 40.794968 0.000000 " />
<path stroke-linejoin="round" stroke-linecap="round" stroke="rgb(255,0,0)" stroke-width="3.749996" fill="none" d="M 32.460899 153.218948 L 32.680592 154.207565 " />
<path stroke-linejoin="round" stroke-linecap="round" stroke="rgb(0,0,255)" stroke-width="1.874998" fill="none" d="M 0.000000 750.000000 L 40.456429 0.000000 " />
<path stroke-linejoin="round" stroke-linecap="round" stroke="rgb(255,0,0)" stroke-width="3.749996" fill="none" d="M 32.244129 152.243484 L 32.460899 153.218948 " />
<path stroke-linejoin="round" stroke-linecap="round" stroke="rgb(0,0,255)" stroke-width="1.874998" fill="none" d="M 0.000000 750.000000 L 38.135605 0.000000 " />
<path stroke-linejoin="round" stroke-linecap="round" stroke="rgb(255,0,0)" stroke-width="3.749996" fill="none" d="M 30.738831 145.469650 L 32.244129 152.243484 " />
<path stroke-linejoin="round" stroke-linecap="round" stroke="rgb(0,0,255)" stroke-width="1.874998" fill="none" d="M 0.000000 750.000000 L 37.815125 0.000000 " />
<path stroke-linejoin="round" stroke-linecap="round" stroke="rgb(255,0,0)" stroke-width="3.749996" fill="none" d="M 30.528299 144.522202 L 30.738831 145.469650 " />
<path stroke-linejoin="round" stroke-linecap="round" stroke="rgb(0,0,255)" stroke-width="1.874998" fill="none" d="M 0.000000 750.000000 L 37.500008 0.000000 " />
<path stroke-linejoin="round" stroke-linecap="round" stroke="rgb(255,0,0)" stroke-width="3.749996" fill="none" d="M 30.320606 143.587677 L 30.528299 144.522202 " />
<path stroke-linejoin="round" stroke-linecap="round" stroke="rgb(0,0,255)" stroke-width="1.874998" fill="none" d="M 0.000000 750.000000 L 35.407730 0.000000 " />
<path stroke-linejoin="round" stroke-linecap="round" stroke="rgb(255,0,0)" stroke-width="3.749996" fill="none" d="M 28.925344 137.308853 L 30.320606 143.587677 " />
<path stroke-linejoin="round" stroke-linecap="round" stroke="rgb(0,0,255)" stroke-width="1.874998" fill="none" d="M 0.000000 750.000000 L 32.051281 0.000000 " />
<path stroke-linejoin="round" stroke-linecap="round" stroke="rgb(255,0,0)" stroke-width="3.749996" fill="none" d="M 26.625641 126.960220 L 28.925344 137.308853 " />
<path stroke-linejoin="round" stroke-linecap="round" stroke="rgb(0,0,255)" stroke-width="1.874998" fill="none" d="M 0.000000 750.000000 L 28.723396 0.000000 " />
<path stroke-linejoin="round" stroke-linecap="round" stroke="rgb(255,0,0)" stroke-width="3.749996" fill="none" d="M 24.267509 116.348686 L 26.625641 126.960220 " />
<path stroke-linejoin="round" stroke-linecap="round" stroke="rgb(0,0,255)" stroke-width="1.874998" fill="none" d="M 0.000000 750.000000 L 28.481014 0.000000 " />
<path stroke-linejoin="round" stroke-linecap="round" stroke="rgb(255,0,0)" stroke-width="3.749996" fill="none" d="M 24.092585 115.561676 L 24.267487 116.348732 " />
<path stroke-linejoin="round" stroke-linecap="round" stroke="rgb(0,0,255)" stroke-width="1.874998" fill="none" d="M 0.000000 750.000000 L 27.777784 0.000000 " />
<path stroke-linejoin="round" stroke-linecap="round" stroke="rgb(255,0,0)" stroke-width="3.749996" fill="none" d="M 23.582697 113.267181 L 24.092585 115.561676 " />
<path stroke-linejoin="round" stroke-linecap="round" stroke="rgb(0,0,255)" stroke-width="1.874998" fill="none" d="M 0.000000 750.000000 L 27.551025 0.000000 " />
<path stroke-linejoin="round" stroke-linecap="round" stroke="rgb(255,0,0)" stroke-width="3.749996" fill="none" d="M 23.417496 112.523857 L 23.582697 113.267273 " />
<path stroke-linejoin="round" stroke-linecap="round" stroke="rgb(0,0,255)" stroke-width="1.874998" fill="none" d="M 0.000000 750.000000 L 27.108438 0.000000 " />
<path stroke-linejoin="round" stroke-linecap="round" stroke="rgb(255,0,0)" stroke-width="3.749996" fill="none" d="M 23.093931 111.067818 L 23.417496 112.523895 " />
<path stroke-linejoin="round" stroke-linecap="round" stroke="rgb(0,0,255)" stroke-width="1.874998" fill="none" d="M 0.000000 750.000000 L 24.000004 0.000000 " />
<path stroke-linejoin="round" stroke-linecap="round" stroke="rgb(255,0,0)" stroke-width="3.749996" fill="none" d="M 20.779163 100.651237 L 23.093931 111.067726 " />
<path stroke-linejoin="round" stroke-linecap="round" stroke="rgb(0,0,255)" stroke-width="1.874998" fill="none" d="M 0.000000 750.000000 L 20.916336 0.000000 " />
<path stroke-linejoin="round" stroke-linecap="round" stroke="rgb(255,0,0)" stroke-width="3.749996" fill="none" d="M 18.407017 89.976624 L 20.779163 100.651192 " />
<path stroke-linejoin="round" stroke-linecap="round" stroke="rgb(0,0,255)" stroke-width="1.874998" fill="none" d="M 0.000000 750.000000 L 20.750999 0.000000 " />
<path stroke-linejoin="round" stroke-linecap="round" stroke="rgb(255,0,0)" stroke-width="3.749996" fill="none" d="M 18.277622 89.394318 L 18.407017 89.976624 " />
<path stroke-linejoin="round" stroke-linecap="round" stroke="rgb(0,0,255)" stroke-width="1.874998" fill="none" d="M 0.000000 750.000000 L 20.588234 0.000000 " />
<path stroke-linejoin="round" stroke-linecap="round" stroke="rgb(255,0,0)" stroke-width="3.749996" fill="none" d="M 18.150040 88.820145 L 18.277622 89.394318 " />
<path stroke-linejoin="round" stroke-linecap="round" stroke="rgb(0,0,255)" stroke-width="1.874998" fill="none" d="M 0.000000 750.000000 L 20.428017 0.000000 " />
<path stroke-linejoin="round" stroke-linecap="round" stroke="rgb(255,0,0)" stroke-width="3.749996" fill="none" d="M 18.024221 88.253929 L 18.150040 88.820145 " />
<path stroke-linejoin="round" stroke-linecap="round" stroke="rgb(0,0,255)" stroke-width="1.874998" fill="none" d="M 0.000000 750.000000 L 20.270281 0.000000 " />
<path stroke-linejoin="round" stroke-linecap="round" stroke="rgb(255,0,0)" stroke-width="3.749996" fill="none" d="M 17.900124 87.695496 L 18.024221 88.253929 " />
<path stroke-linejoin="round" stroke-linecap="round" stroke="rgb(0,0,255)" stroke-width="1.874998" fill="none" d="M 0.000000 750.000000 L 20.114937 0.000000 " />
<path stroke-linejoin="round" stroke-linecap="round" stroke="rgb(255,0,0)" stroke-width="3.749996" fill="none" d="M 17.777725 87.144745 L 17.900124 87.695496 " />
<path stroke-linejoin="round" stroke-linecap="round" stroke="rgb(0,0,255)" stroke-width="1.874998" fill="none" d="M 0.000000 750.000000 L 17.857141 0.000000 " />
<path stroke-linejoin="round" stroke-linecap="round" stroke="rgb(255,0,0)" stroke-width="3.749996" fill="none" d="M 15.975371 79.034195 L 17.777725 87.144745 " />
<path stroke-linejoin="round" stroke-linecap="round" stroke="rgb(0,0,255)" stroke-width="1.874998" fill="none" d="M 0.000000 750.000000 L 17.716526 0.000000 " />
<path stroke-linejoin="round" stroke-linecap="round" stroke="rgb(255,0,0)" stroke-width="3.749996" fill="none" d="M 15.861668 78.522522 L 15.975371 79.034195 " />
<path stroke-linejoin="round" stroke-linecap="round" stroke="rgb(0,0,255)" stroke-width="1.874998" fill="none" d="M 0.000000 750.000000 L 17.307692 0.000000 " />
<path stroke-linejoin="round" stroke-linecap="round" stroke="rgb(255,0,0)" stroke-width="3.749996" fill="none" d="M 15.530080 77.030319 L 15.861668 78.522522 " />
<path stroke-linejoin="round" stroke-linecap="round" stroke="rgb(0,0,255)" stroke-width="1.874998" fill="none" d="M 0.000000 750.000000 L 17.175570 0.000000 " />
<path stroke-linejoin="round" stroke-linecap="round" stroke="rgb(255,0,0)" stroke-width="3.749996" fill="none" d="M 15.422590 76.546623 L 15.530080 77.030319 " />
<path stroke-linejoin="round" stroke-linecap="round" stroke="rgb(0,0,255)" stroke-width="1.874998" fill="none" d="M 0.000000 750.000000 L 14.258556 0.000000 " />
<path stroke-linejoin="round" stroke-linecap="round" stroke="rgb(255,0,0)" stroke-width="3.749996" fill="none" d="M 13.009720 65.688774 L 15.422590 76.546623 " />
<path stroke-linejoin="round" stroke-linecap="round" stroke="rgb(0,0,255)" stroke-width="1.874998" fill="none" d="M 0.000000 750.000000 L 11.363626 0.000000 " />
<path stroke-linejoin="round" stroke-linecap="round" stroke="rgb(255,0,0)" stroke-width="3.749996" fill="none" d="M 10.536946 54.561405 L 13.009720 65.688774 " />
<path stroke-linejoin="round" stroke-linecap="round" stroke="rgb(0,0,255)" stroke-width="1.874998" fill="none" d="M 0.000000 750.000000 L 8.490555 0.000000 " />
<path stroke-linejoin="round" stroke-linecap="round" stroke="rgb(255,0,0)" stroke-width="3.749996" fill="none" d="M 8.002035 43.154327 L 10.536946 54.561451 " />
<path stroke-linejoin="round" stroke-linecap="round" stroke="rgb(0,0,255)" stroke-width="1.874998" fill="none" d="M 0.000000 750.000000 L 8.426964 0.000000 " />
<path stroke-linejoin="round" stroke-linecap="round" stroke="rgb(255,0,0)" stroke-width="3.749996" fill="none" d="M 7.944971 42.897598 L 8.002035 43.154327 " />
<path stroke-linejoin="round" stroke-linecap="round" stroke="rgb(0,0,255)" stroke-width="1.874998" fill="none" d="M 0.000000 750.000000 L 8.241757 0.000000 " />
<path stroke-linejoin="round" stroke-linecap="round" stroke="rgb(255,0,0)" stroke-width="3.749996" fill="none" d="M 7.778585 42.148903 L 7.944971 42.897598 " />
<path stroke-linejoin="round" stroke-linecap="round" stroke="rgb(0,0,255)" stroke-width="1.874998" fill="none" d="M 0.000000 750.000000 L 5.474456 0.000000 " />
<path stroke-linejoin="round" stroke-linecap="round" stroke="rgb(255,0,0)" stroke-width="3.749996" fill="none" d="M 5.249866 30.769587 L 7.778585 42.148903 " />
<path stroke-linejoin="round" stroke-linecap="round" stroke="rgb(0,0,255)" stroke-width="1.874998" fill="none" d="M 0.000000 750.000000 L 2.727270 0.000000 " />
<path stroke-linejoin="round" stroke-linecap="round" stroke="rgb(255,0,0)" stroke-width="3.749996" fill="none" d="M 2.648681 21.615341 L 5.249866 30.769587 " />
<path stroke-linejoin="round" stroke-linecap="round" stroke="rgb(0,0,255)" stroke-width="1.874998" fill="none" d="M 0.000000 750.000000 L 0.000000 0.000000 " />
<path stroke-linejoin="round" stroke-linecap="round" stroke="rgb(255,0,0)" stroke-width="3.749996" fill="none" d="M 0.000000 0.000000 L 2.648681 21.615341 " />
<circle cx="92.213094" cy="726.946726" r="3.749996" style="fill:rgb(0,127,0);stroke-width:1" /><circle cx="90.195626" cy="703.745820" r="3.749996" style="fill:rgb(0,127,0);stroke-width:1" /><circle cx="88.449307" cy="683.663025" r="3.749996" style="fill:rgb(0,127,0);stroke-width:1" /><circle cx="86.849794" cy="665.268481" r="3.749996" style="fill:rgb(0,127,0);stroke-width:1" /><circle cx="86.502895" cy="661.279075" r="3.749996" style="fill:rgb(0,127,0);stroke-width:1" /><circle cx="84.544480" cy="638.757259" r="3.749996" style="fill:rgb(0,127,0);stroke-width:1" /><circle cx="83.100624" cy="622.152887" r="3.749996" style="fill:rgb(0,127,0);stroke-width:1" /><circle cx="82.573950" cy="616.096281" r="3.749996" style="fill:rgb(0,127,0);stroke-width:1" /><circle cx="80.591217" cy="593.294844" r="3.749996" style="fill:rgb(0,127,0);stroke-width:1" /><circle cx="78.596167" cy="570.351608" r="3.749996" style="fill:rgb(0,127,0);stroke-width:1" /><circle cx="76.588668" cy="547.265299" r="3.749996" style="fill:rgb(0,127,0);stroke-width:1" /><circle cx="74.568607" cy="524.034552" r="3.749996" style="fill:rgb(0,127,0);stroke-width:1" /><circle cx="73.531240" cy="512.104824" r="3.749996" style="fill:rgb(0,127,0);stroke-width:1" /><circle cx="72.535872" cy="500.657983" r="3.749996" style="fill:rgb(0,127,0);stroke-width:1" /><circle cx="71.582884" cy="489.698611" r="3.749996" style="fill:rgb(0,127,0);stroke-width:1" /><circle cx="70.490330" cy="477.134228" r="3.749996" style="fill:rgb(0,127,0);stroke-width:1" /><circle cx="69.622770" cy="467.157483" r="3.749996" style="fill:rgb(0,127,0);stroke-width:1" /><circle cx="68.431869" cy="453.461945" r="3.749996" style="fill:rgb(0,127,0);stroke-width:1" /><circle cx="66.360354" cy="429.639660" r="3.749996" style="fill:rgb(0,127,0);stroke-width:1" /><circle cx="65.666936" cy="421.665296" r="3.749996" style="fill:rgb(0,127,0);stroke-width:1" /><circle cx="64.275697" cy="405.665964" r="3.749996" style="fill:rgb(0,127,0);stroke-width:1" /><circle cx="63.670970" cy="398.711845" r="3.749996" style="fill:rgb(0,127,0);stroke-width:1" /><circle cx="62.177718" cy="381.539471" r="3.749996" style="fill:rgb(0,127,0);stroke-width:1" /><circle cx="61.662845" cy="375.618383" r="3.749996" style="fill:rgb(0,127,0);stroke-width:1" /><circle cx="60.066350" cy="357.258484" r="3.749996" style="fill:rgb(0,127,0);stroke-width:1" /><circle cx="57.941414" cy="332.821816" r="3.749996" style="fill:rgb(0,127,0);stroke-width:1" /><circle cx="55.802822" cy="308.227748" r="3.749996" style="fill:rgb(0,127,0);stroke-width:1" /><circle cx="55.564329" cy="305.485323" r="3.749996" style="fill:rgb(0,127,0);stroke-width:1" /><circle cx="53.650394" cy="283.474937" r="3.749996" style="fill:rgb(0,127,0);stroke-width:1" /><circle cx="53.506404" cy="281.819075" r="3.749996" style="fill:rgb(0,127,0);stroke-width:1" /><circle cx="51.435716" cy="258.006200" r="3.749996" style="fill:rgb(0,127,0);stroke-width:1" /><circle cx="51.391527" cy="257.497922" r="3.749996" style="fill:rgb(0,127,0);stroke-width:1" /><circle cx="49.352176" cy="234.045446" r="3.749996" style="fill:rgb(0,127,0);stroke-width:1" /><circle cx="47.615446" cy="226.230115" r="3.749996" style="fill:rgb(0,127,0);stroke-width:1" /><circle cx="47.324672" cy="224.921554" r="3.749996" style="fill:rgb(0,127,0);stroke-width:1" /><circle cx="46.636663" cy="217.009485" r="3.749996" style="fill:rgb(0,127,0);stroke-width:1" /><circle cx="45.949817" cy="213.918686" r="3.749996" style="fill:rgb(0,127,0);stroke-width:1" /><circle cx="45.636177" cy="212.507308" r="3.749996" style="fill:rgb(0,127,0);stroke-width:1" /><circle cx="43.621905" cy="203.443184" r="3.749996" style="fill:rgb(0,127,0);stroke-width:1" /><circle cx="43.322615" cy="202.096403" r="3.749996" style="fill:rgb(0,127,0);stroke-width:1" /><circle cx="43.027394" cy="200.767905" r="3.749996" style="fill:rgb(0,127,0);stroke-width:1" /><circle cx="42.736173" cy="199.457467" r="3.749996" style="fill:rgb(0,127,0);stroke-width:1" /><circle cx="40.704399" cy="190.314487" r="3.749996" style="fill:rgb(0,127,0);stroke-width:1" /><circle cx="38.623318" cy="180.949688" r="3.749996" style="fill:rgb(0,127,0);stroke-width:1" /><circle cx="38.357422" cy="179.753110" r="3.749996" style="fill:rgb(0,127,0);stroke-width:1" /><circle cx="38.095146" cy="178.572893" r="3.749996" style="fill:rgb(0,127,0);stroke-width:1" /><circle cx="37.836425" cy="177.408770" r="3.749996" style="fill:rgb(0,127,0);stroke-width:1" /><circle cx="37.581213" cy="176.260293" r="3.749996" style="fill:rgb(0,127,0);stroke-width:1" /><circle cx="35.494789" cy="166.871399" r="3.749996" style="fill:rgb(0,127,0);stroke-width:1" /><circle cx="33.357918" cy="157.255545" r="3.749996" style="fill:rgb(0,127,0);stroke-width:1" /><circle cx="33.129036" cy="156.225622" r="3.749996" style="fill:rgb(0,127,0);stroke-width:1" /><circle cx="32.903284" cy="155.209690" r="3.749996" style="fill:rgb(0,127,0);stroke-width:1" /><circle cx="32.680593" cy="154.207572" r="3.749996" style="fill:rgb(0,127,0);stroke-width:1" /><circle cx="32.460898" cy="153.218955" r="3.749996" style="fill:rgb(0,127,0);stroke-width:1" /><circle cx="32.244131" cy="152.243480" r="3.749996" style="fill:rgb(0,127,0);stroke-width:1" /><circle cx="30.738831" cy="145.469651" r="3.749996" style="fill:rgb(0,127,0);stroke-width:1" /><circle cx="30.528300" cy="144.522205" r="3.749996" style="fill:rgb(0,127,0);stroke-width:1" /><circle cx="30.320607" cy="143.587679" r="3.749996" style="fill:rgb(0,127,0);stroke-width:1" /><circle cx="28.925344" cy="137.308851" r="3.749996" style="fill:rgb(0,127,0);stroke-width:1" /><circle cx="26.625641" cy="126.960218" r="3.749996" style="fill:rgb(0,127,0);stroke-width:1" /><circle cx="24.267510" cy="116.348684" r="3.749996" style="fill:rgb(0,127,0);stroke-width:1" /><circle cx="24.092585" cy="115.561679" r="3.749996" style="fill:rgb(0,127,0);stroke-width:1" /><circle cx="23.582697" cy="113.267183" r="3.749996" style="fill:rgb(0,127,0);stroke-width:1" /><circle cx="23.417495" cy="112.523854" r="3.749996" style="fill:rgb(0,127,0);stroke-width:1" /><circle cx="23.093931" cy="111.067817" r="3.749996" style="fill:rgb(0,127,0);stroke-width:1" /><circle cx="20.779163" cy="100.651234" r="3.749996" style="fill:rgb(0,127,0);stroke-width:1" /><circle cx="18.407017" cy="89.976624" r="3.749996" style="fill:rgb(0,127,0);stroke-width:1" /><circle cx="18.277623" cy="89.394316" r="3.749996" style="fill:rgb(0,127,0);stroke-width:1" /><circle cx="18.150039" cy="88.820145" r="3.749996" style="fill:rgb(0,127,0);stroke-width:1" /><circle cx="18.024221" cy="88.253930" r="3.749996" style="fill:rgb(0,127,0);stroke-width:1" /><circle cx="17.900124" cy="87.695494" r="3.749996" style="fill:rgb(0,127,0);stroke-width:1" /><circle cx="17.777726" cy="87.144747" r="3.749996" style="fill:rgb(0,127,0);stroke-width:1" /><circle cx="15.975371" cy="79.034194" r="3.749996" style="fill:rgb(0,127,0);stroke-width:1" /><circle cx="15.861668" cy="78.522518" r="3.749996" style="fill:rgb(0,127,0);stroke-width:1" /><circle cx="15.530080" cy="77.030316" r="3.749996" style="fill:rgb(0,127,0);stroke-width:1" /><circle cx="15.422590" cy="76.546624" r="3.749996" style="fill:rgb(0,127,0);stroke-width:1" /><circle cx="13.009720" cy="65.688774" r="3.749996" style="fill:rgb(0,127,0);stroke-width:1" /><circle cx="10.536946" cy="54.561406" r="3.749996" style="fill:rgb(0,127,0);stroke-width:1" /><circle cx="8.002035" cy="43.154329" r="3.749996" style="fill:rgb(0,127,0);stroke-width:1" /><circle cx="7.944971" cy="42.897597" r="3.749996" style="fill:rgb(0,127,0);stroke-width:1" /><circle cx="7.778585" cy="42.148903" r="3.749996" style="fill:rgb(0,127,0);stroke-width:1" /><circle cx="5.249865" cy="30.769587" r="3.749996" style="fill:rgb(0,127,0);stroke-width:1" /><circle cx="2.648681" cy="21.615341" r="3.749996" style="fill:rgb(0,127,0);stroke-width:1" /><circle cx="750.000000" cy="750.000000" r="3.749996" style="fill:rgb(0,127,0);stroke-width:1" /><path stroke-linejoin="round" stroke-linecap="round" stroke="rgb(255,255,255)" stroke-width="3.749996" fill="none" d="M 0.000000 750.000000 L 750.000000 750.000000 M 0.000000 750.000000 L 0.000000 0.000000 " />

</svg>