<svg xmlns="http://www.w3.org/2000/svg" version="1.1" width = "750" height = "750" viewBox = "0 0 750 750"  shape-rendering="crispEdges">
<path stroke-linejoin="round" stroke-linecap="round" stroke="rgb(255,255,0)" stroke-width="3.749996" fill="none" d="M 83.333328 750.000000 L 0.000000 0.000000 " />
<path stroke-linejoin="round" stroke-linecap="round" stroke="rgb(63,63,63)" stroke-width="3.749996" fill="none" d="M 0.000000 0.000000 L 750.000000 750.000000 M 83.333328 750.000000 L 39.215683 0.000000 " />
<path stroke-linejoin="round" stroke-linecap="round" stroke="rgb(191,191,191)" stroke-width="3.749996" fill="none" d="M 0.000000 666.666687 L 83.333328 750.000000 M 0.000000 0.000000 L 44.117645 750.000000 " />
<path stroke-linejoin="round" stroke-linecap="round" stroke="rgb(0,0,255)" stroke-width="1.874998" fill="none" d="M 0.000000 750.000000 L 750.000000 727.941162 " />
<path stroke-linejoin="round" stroke-linecap="round" stroke="rgb(255,0,0)" stroke-width="3.749996" fill="none" d="M 83.189407 747.553223 L 83.333328 750.000000 " />
<path stroke-linejoin="round" stroke-linecap="round" stroke="rgb(0,0,255)" stroke-width="1.874998" fill="none" d="M 0.000000 750.000000 L 750.000000 704.545471 " />
<path stroke-linejoin="round" stroke-linecap="round" stroke="rgb(255,0,0)" stroke-width="3.749996" fill="none" d="M 82.676613 744.989258 L 83.189407 747.553223 " />
<path stroke-linejoin="round" stroke-linecap="round" stroke="rgb(0,0,255)" stroke-width="1.874998" fill="none" d="M 0.000000 750.000000 L 750.000000 679.687500 " />
<path stroke-linejoin="round" stroke-linecap="round" stroke="rgb(255,0,0)" stroke-width="3.749996" fill="none" d="M 82.138649 742.299500 L 82.676590 744.989258 " />
<path stroke-linejoin="round" stroke-linecap="round" stroke="rgb(0,0,255)" stroke-width="1.874998" fill="none" d="M 0.000000 750.000000 L 750.000000 659.090881 " />
<path stroke-linejoin="round" stroke-linecap="round" stroke="rgb(255,0,0)" stroke-width="3.749996" fill="none" d="M 81.698189 740.097168 L 82.138649 742.299500 " />
<path stroke-linejoin="round" stroke-linecap="round" stroke="rgb(0,0,255)" stroke-width="1.874998" fill="none" d="M 0.000000 750.000000 L 750.000000 435.483917 " />
<path stroke-linejoin="round" stroke-linecap="round" stroke="rgb(255,0,0)" stroke-width="3.749996" fill="none" d="M 79.883072 716.500610 L 81.698189 740.097168 " />
<path stroke-linejoin="round" stroke-linecap="round" stroke="rgb(0,0,255)" stroke-width="1.874998" fill="none" d="M 0.000000 750.000000 L 750.000000 210.937500 " />
<path stroke-linejoin="round" stroke-linecap="round" stroke="rgb(255,0,0)" stroke-width="3.749996" fill="none" d="M 78.139725 693.837036 L 79.883072 716.500610 " />
<path stroke-linejoin="round" stroke-linecap="round" stroke="rgb(0,0,255)" stroke-width="1.874998" fill="none" d="M 0.000000 750.000000 L 750.000000 26.785702 " />
<path stroke-linejoin="round" stroke-linecap="round" stroke="rgb(255,0,0)" stroke-width="3.749996" fill="none" d="M 76.765785 675.975830 L 78.139725 693.837036 " />
<path stroke-linejoin="round" stroke-linecap="round" stroke="rgb(0,0,255)" stroke-width="1.874998" fill="none" d="M 0.000000 750.000000 L 587.837830 0.000000 " />
<path stroke-linejoin="round" stroke-linecap="round" stroke="rgb(255,0,0)" stroke-width="3.749996" fill="none" d="M 75.090340 654.195068 L 76.765785 675.975830 " />
<path stroke-linejoin="round" stroke-linecap="round" stroke="rgb(0,0,255)" stroke-width="1.874998" fill="none" d="M 0.000000 750.000000 L 562.500000 0.000000 " />
<path stroke-linejoin="round" stroke-linecap="round" stroke="rgb(255,0,0)" stroke-width="3.749996" fill="none" d="M 74.408928 650.788086 L 75.090340 654.195068 " />
<path stroke-linejoin="round" stroke-linecap="round" stroke="rgb(0,0,255)" stroke-width="1.874998" fill="none" d="M 0.000000 750.000000 L 529.411804 0.000000 " />
<path stroke-linejoin="round" stroke-linecap="round" stroke="rgb(255,0,0)" stroke-width="3.749996" fill="none" d="M 73.442596 645.956360 L 74.408928 650.788086 " />
<path stroke-linejoin="round" stroke-linecap="round" stroke="rgb(0,0,255)" stroke-width="1.874998" fill="none" d="M 0.000000 750.000000 L 500.000000 0.000000 " />
<path stroke-linejoin="round" stroke-linecap="round" stroke="rgb(255,0,0)" stroke-width="3.749996" fill="none" d="M 72.501007 641.248474 L 73.442596 645.956360 " />
<path stroke-linejoin="round" stroke-linecap="round" stroke="rgb(0,0,255)" stroke-width="1.874998" fill="none" d="M 0.000000 750.000000 L 473.684204 0.000000 " />
<path stroke-linejoin="round" stroke-linecap="round" stroke="rgb(255,0,0)" stroke-width="3.749996" fill="none" d="M 71.583267 636.659790 L 72.501007 641.248474 " />
<path stroke-linejoin="round" stroke-linecap="round" stroke="rgb(0,0,255)" stroke-width="1.874998" fill="none" d="M 0.000000 750.000000 L 442.307709 0.000000 " />
<path stroke-linejoin="round" stroke-linecap="round" stroke="rgb(255,0,0)" stroke-width="3.749996" fill="none" d="M 70.382462 630.655823 L 71.583267 636.659851 " />
<path stroke-linejoin="round" stroke-linecap="round" stroke="rgb(0,0,255)" stroke-width="1.874998" fill="none" d="M 0.000000 750.000000 L 412.500000 0.000000 " />
<path stroke-linejoin="round" stroke-linecap="round" stroke="rgb(255,0,0)" stroke-width="3.749996" fill="none" d="M 69.117622 624.331604 L 70.382462 630.655823 " />
<path stroke-linejoin="round" stroke-linecap="round" stroke="rgb(0,0,255)" stroke-width="1.874998" fill="none" d="M 0.000000 750.000000 L 392.857178 0.000000 " />
<path stroke-linejoin="round" stroke-linecap="round" stroke="rgb(255,0,0)" stroke-width="3.749996" fill="none" d="M 68.208176 619.784363 L 69.117622 624.331604 " />
<path stroke-linejoin="round" stroke-linecap="round" stroke="rgb(0,0,255)" stroke-width="1.874998" fill="none" d="M 0.000000 750.000000 L 375.000000 0.000000 " />
<path stroke-linejoin="round" stroke-linecap="round" stroke="rgb(255,0,0)" stroke-width="3.749996" fill="none" d="M 67.322350 615.355286 L 68.208176 619.784363 " />
<path stroke-linejoin="round" stroke-linecap="round" stroke="rgb(0,0,255)" stroke-width="1.874998" fill="none" d="M 0.000000 750.000000 L 350.000000 0.000000 " />
<path stroke-linejoin="round" stroke-linecap="round" stroke="rgb(255,0,0)" stroke-width="3.749996" fill="none" d="M 65.975906 608.623108 L 67.322350 615.355286 " />
<path stroke-linejoin="round" stroke-linecap="round" stroke="rgb(0,0,255)" stroke-width="1.874998" fill="none" d="M 0.000000 750.000000 L 326.086975 0.000000 " />
<path stroke-linejoin="round" stroke-linecap="round" stroke="rgb(255,0,0)" stroke-width="3.749996" fill="none" d="M 64.555672 601.521912 L 65.975906 608.623108 " />
<path stroke-linejoin="round" stroke-linecap="round" stroke="rgb(0,0,255)" stroke-width="1.874998" fill="none" d="M 0.000000 750.000000 L 312.500000 0.000000 " />
<path stroke-linejoin="round" stroke-linecap="round" stroke="rgb(255,0,0)" stroke-width="3.749996" fill="none" d="M 63.683285 597.160095 L 64.555672 601.521912 " />
<path stroke-linejoin="round" stroke-linecap="round" stroke="rgb(0,0,255)" stroke-width="1.874998" fill="none" d="M 0.000000 750.000000 L 290.816345 0.000000 " />
<path stroke-linejoin="round" stroke-linecap="round" stroke="rgb(255,0,0)" stroke-width="3.749996" fill="none" d="M 62.179661 589.641907 L 63.683285 597.160095 " />
<path stroke-linejoin="round" stroke-linecap="round" stroke="rgb(0,0,255)" stroke-width="1.874998" fill="none" d="M 0.000000 750.000000 L 279.411774 0.000000 " />
<path stroke-linejoin="round" stroke-linecap="round" stroke="rgb(255,0,0)" stroke-width="3.749996" fill="none" d="M 61.327881 585.383057 L 62.179661 589.641907 " />
<path stroke-linejoin="round" stroke-linecap="round" stroke="rgb(0,0,255)" stroke-width="1.874998" fill="none" d="M 0.000000 750.000000 L 268.867920 0.000000 " />
<path stroke-linejoin="round" stroke-linecap="round" stroke="rgb(255,0,0)" stroke-width="3.749996" fill="none" d="M 60.499123 581.239258 L 61.327881 585.383118 " />
<path stroke-linejoin="round" stroke-linecap="round" stroke="rgb(0,0,255)" stroke-width="1.874998" fill="none" d="M 0.000000 750.000000 L 250.000000 0.000000 " />
<path stroke-linejoin="round" stroke-linecap="round" stroke="rgb(255,0,0)" stroke-width="3.749996" fill="none" d="M 58.907055 573.278870 L 60.499123 581.239258 " />
<path stroke-linejoin="round" stroke-linecap="round" stroke="rgb(0,0,255)" stroke-width="1.874998" fill="none" d="M 0.000000 750.000000 L 241.071426 0.000000 " />
<path stroke-linejoin="round" stroke-linecap="round" stroke="rgb(255,0,0)" stroke-width="3.749996" fill="none" d="M 58.100113 569.244141 L 58.907055 573.278870 " />
<path stroke-linejoin="round" stroke-linecap="round" stroke="rgb(0,0,255)" stroke-width="1.874998" fill="none" d="M 0.000000 750.000000 L 223.684204 0.000000 " />
<path stroke-linejoin="round" stroke-linecap="round" stroke="rgb(255,0,0)" stroke-width="3.749996" fill="none" d="M 56.418011 560.833740 L 58.100113 569.244080 " />
<path stroke-linejoin="round" stroke-linecap="round" stroke="rgb(0,0,255)" stroke-width="1.874998" fill="none" d="M 0.000000 750.000000 L 216.101685 0.000000 " />
<path stroke-linejoin="round" stroke-linecap="round" stroke="rgb(255,0,0)" stroke-width="3.749996" fill="none" d="M 55.634422 556.915833 L 56.418011 560.833740 " />
<path stroke-linejoin="round" stroke-linecap="round" stroke="rgb(0,0,255)" stroke-width="1.874998" fill="none" d="M 0.000000 750.000000 L 200.000015 0.000000 " />
<path stroke-linejoin="round" stroke-linecap="round" stroke="rgb(255,0,0)" stroke-width="3.749996" fill="none" d="M 53.857864 548.033020 L 55.634422 556.915833 " />
<path stroke-linejoin="round" stroke-linecap="round" stroke="rgb(0,0,255)" stroke-width="1.874998" fill="none" d="M 0.000000 750.000000 L 193.548386 0.000000 " />
<path stroke-linejoin="round" stroke-linecap="round" stroke="rgb(255,0,0)" stroke-width="3.749996" fill="none" d="M 53.099289 544.240234 L 53.857864 548.033081 " />
<path stroke-linejoin="round" stroke-linecap="round" stroke="rgb(0,0,255)" stroke-width="1.874998" fill="none" d="M 0.000000 750.000000 L 178.571442 0.000000 " />
<path stroke-linejoin="round" stroke-linecap="round" stroke="rgb(255,0,0)" stroke-width="3.749996" fill="none" d="M 51.223511 534.861267 L 53.099289 544.240234 " />
<path stroke-linejoin="round" stroke-linecap="round" stroke="rgb(0,0,255)" stroke-width="1.874998" fill="none" d="M 0.000000 750.000000 L 173.076920 0.000000 " />
<path stroke-linejoin="round" stroke-linecap="round" stroke="rgb(255,0,0)" stroke-width="3.749996" fill="none" d="M 50.491734 531.202454 L 51.223511 534.861267 " />
<path stroke-linejoin="round" stroke-linecap="round" stroke="rgb(0,0,255)" stroke-width="1.874998" fill="none" d="M 0.000000 750.000000 L 167.910446 0.000000 " />
<path stroke-linejoin="round" stroke-linecap="round" stroke="rgb(255,0,0)" stroke-width="3.749996" fill="none" d="M 49.780594 527.646729 L 50.491734 531.202454 " />
<path stroke-linejoin="round" stroke-linecap="round" stroke="rgb(0,0,255)" stroke-width="1.874998" fill="none" d="M 0.000000 750.000000 L 163.043488 0.000000 " />
<path stroke-linejoin="round" stroke-linecap="round" stroke="rgb(255,0,0)" stroke-width="3.749996" fill="none" d="M 49.089188 524.189758 L 49.780594 527.646729 " />
<path stroke-linejoin="round" stroke-linecap="round" stroke="rgb(0,0,255)" stroke-width="1.874998" fill="none" d="M 0.000000 750.000000 L 158.450714 0.000000 " />
<path stroke-linejoin="round" stroke-linecap="round" stroke="rgb(255,0,0)" stroke-width="3.749996" fill="none" d="M 48.416733 520.827454 L 49.089188 524.189758 " />
<path stroke-linejoin="round" stroke-linecap="round" stroke="rgb(0,0,255)" stroke-width="1.874998" fill="none" d="M 0.000000 750.000000 L 145.833328 0.000000 " />
<path stroke-linejoin="round" stroke-linecap="round" stroke="rgb(255,0,0)" stroke-width="3.749996" fill="none" d="M 46.461872 511.053223 L 48.416733 520.827515 " />
<path stroke-linejoin="round" stroke-linecap="round" stroke="rgb(0,0,255)" stroke-width="1.874998" fill="none" d="M 0.000000 750.000000 L 141.891891 0.000000 " />
<path stroke-linejoin="round" stroke-linecap="round" stroke="rgb(255,0,0)" stroke-width="3.749996" fill="none" d="M 45.816555 507.826752 L 46.461872 511.053223 " />
<path stroke-linejoin="round" stroke-linecap="round" stroke="rgb(0,0,255)" stroke-width="1.874998" fill="none" d="M 0.000000 750.000000 L 137.323959 0.000000 " />
<path stroke-linejoin="round" stroke-linecap="round" stroke="rgb(255,0,0)" stroke-width="3.749996" fill="none" d="M 45.046539 503.976624 L 45.816555 507.826752 " />
<path stroke-linejoin="round" stroke-linecap="round" stroke="rgb(0,0,255)" stroke-width="1.874998" fill="none" d="M 0.000000 750.000000 L 133.561646 0.000000 " />
<path stroke-linejoin="round" stroke-linecap="round" stroke="rgb(255,0,0)" stroke-width="3.749996" fill="none" d="M 44.393688 500.712372 L 45.046539 503.976624 " />
<path stroke-linejoin="round" stroke-linecap="round" stroke="rgb(0,0,255)" stroke-width="1.874998" fill="none" d="M 0.000000 750.000000 L 130.000015 0.000000 " />
<path stroke-linejoin="round" stroke-linecap="round" stroke="rgb(255,0,0)" stroke-width="3.749996" fill="none" d="M 43.759480 497.541412 L 44.393688 500.712402 " />
<path stroke-linejoin="round" stroke-linecap="round" stroke="rgb(0,0,255)" stroke-width="1.874998" fill="none" d="M 0.000000 750.000000 L 118.421051 0.000000 " />
<path stroke-linejoin="round" stroke-linecap="round" stroke="rgb(255,0,0)" stroke-width="3.749996" fill="none" d="M 41.581413 486.651062 L 43.759480 497.541412 " />
<path stroke-linejoin="round" stroke-linecap="round" stroke="rgb(0,0,255)" stroke-width="1.874998" fill="none" d="M 0.000000 750.000000 L 115.384605 0.000000 " />
<path stroke-linejoin="round" stroke-linecap="round" stroke="rgb(255,0,0)" stroke-width="3.749996" fill="none" d="M 40.978790 483.637909 L 41.581413 486.651062 " />
<path stroke-linejoin="round" stroke-linecap="round" stroke="rgb(0,0,255)" stroke-width="1.874998" fill="none" d="M 0.000000 750.000000 L 104.430374 0.000000 " />
<path stroke-linejoin="round" stroke-linecap="round" stroke="rgb(255,0,0)" stroke-width="3.749996" fill="none" d="M 38.685188 472.169983 L 40.978790 483.637909 " />
<path stroke-linejoin="round" stroke-linecap="round" stroke="rgb(0,0,255)" stroke-width="1.874998" fill="none" d="M 0.000000 750.000000 L 101.851837 0.000000 " />
<path stroke-linejoin="round" stroke-linecap="round" stroke="rgb(255,0,0)" stroke-width="3.749996" fill="none" d="M 38.116291 469.325409 L 38.685188 472.169983 " />
<path stroke-linejoin="round" stroke-linecap="round" stroke="rgb(0,0,255)" stroke-width="1.874998" fill="none" d="M 0.000000 750.000000 L 99.397591 0.000000 " />
<path stroke-linejoin="round" stroke-linecap="round" stroke="rgb(255,0,0)" stroke-width="3.749996" fill="none" d="M 37.563889 466.563416 L 38.116291 469.325409 " />
<path stroke-linejoin="round" stroke-linecap="round" stroke="rgb(0,0,255)" stroke-width="1.874998" fill="none" d="M 0.000000 750.000000 L 97.058815 0.000000 " />
<path stroke-linejoin="round" stroke-linecap="round" stroke="rgb(255,0,0)" stroke-width="3.749996" fill="none" d="M 37.027271 463.880280 L 37.563889 466.563416 " />
<path stroke-linejoin="round" stroke-linecap="round" stroke="rgb(0,0,255)" stroke-width="1.874998" fill="none" d="M 0.000000 750.000000 L 94.827576 0.000000 " />
<path stroke-linejoin="round" stroke-linecap="round" stroke="rgb(255,0,0)" stroke-width="3.749996" fill="none" d="M 36.505737 461.272705 L 37.027271 463.880280 " />
<path stroke-linejoin="round" stroke-linecap="round" stroke="rgb(0,0,255)" stroke-width="1.874998" fill="none" d="M 0.000000 750.000000 L 92.696632 0.000000 " />
<path stroke-linejoin="round" stroke-linecap="round" stroke="rgb(255,0,0)" stroke-width="3.749996" fill="none" d="M 35.998734 458.737640 L 36.505737 461.272766 " />
<path stroke-linejoin="round" stroke-linecap="round" stroke="rgb(0,0,255)" stroke-width="1.874998" fill="none" d="M 0.000000 750.000000 L 91.463417 0.000000 " />
<path stroke-linejoin="round" stroke-linecap="round" stroke="rgb(255,0,0)" stroke-width="3.749996" fill="none" d="M 35.701206 457.250061 L 35.998734 458.737640 " />
<path stroke-linejoin="round" stroke-linecap="round" stroke="rgb(0,0,255)" stroke-width="1.874998" fill="none" d="M 0.000000 750.000000 L 89.285728 0.000000 " />
<path stroke-linejoin="round" stroke-linecap="round" stroke="rgb(255,0,0)" stroke-width="3.749996" fill="none" d="M 35.168365 454.585785 L 35.701206 457.250061 " />
<path stroke-linejoin="round" stroke-linecap="round" stroke="rgb(0,0,255)" stroke-width="1.874998" fill="none" d="M 0.000000 750.000000 L 87.209297 0.000000 " />
<path stroke-linejoin="round" stroke-linecap="round" stroke="rgb(255,0,0)" stroke-width="3.749996" fill="none" d="M 34.651169 451.999908 L 35.168365 454.585785 " />
<path stroke-linejoin="round" stroke-linecap="round" stroke="rgb(0,0,255)" stroke-width="1.874998" fill="none" d="M 0.000000 750.000000 L 85.227280 0.000000 " />
<path stroke-linejoin="round" stroke-linecap="round" stroke="rgb(255,0,0)" stroke-width="3.749996" fill="none" d="M 34.148991 449.488922 L 34.651169 451.999908 " />
<path stroke-linejoin="round" stroke-linecap="round" stroke="rgb(0,0,255)" stroke-width="1.874998" fill="none" d="M 0.000000 750.000000 L 75.842697 0.000000 " />
<path stroke-linejoin="round" stroke-linecap="round" stroke="rgb(255,0,0)" stroke-width="3.749996" fill="none" d="M 31.651520 437.001617 L 34.148991 449.488922 " />
<path stroke-linejoin="round" stroke-linecap="round" stroke="rgb(0,0,255)" stroke-width="1.874998" fill="none" d="M 0.000000 750.000000 L 66.666664 0.000000 " />
<path stroke-linejoin="round" stroke-linecap="round" stroke="rgb(255,0,0)" stroke-width="3.749996" fill="none" d="M 29.000357 423.745880 L 31.651520 437.001617 " />
<path stroke-linejoin="round" stroke-linecap="round" stroke="rgb(0,0,255)" stroke-width="1.874998" fill="none" d="M 0.000000 750.000000 L 65.217400 0.000000 " />
<path stroke-linejoin="round" stroke-linecap="round" stroke="rgb(255,0,0)" stroke-width="3.749996" fill="none" d="M 28.560966 421.548828 L 29.000357 423.745880 " />
<path stroke-linejoin="round" stroke-linecap="round" stroke="rgb(0,0,255)" stroke-width="1.874998" fill="none" d="M 0.000000 750.000000 L 62.500008 0.000000 " />
<path stroke-linejoin="round" stroke-linecap="round" stroke="rgb(255,0,0)" stroke-width="3.749996" fill="none" d="M 27.720943 417.348724 L 28.560966 421.548828 " />
<path stroke-linejoin="round" stroke-linecap="round" stroke="rgb(0,0,255)" stroke-width="1.874998" fill="none" d="M 0.000000 750.000000 L 61.224483 0.000000 " />
<path stroke-linejoin="round" stroke-linecap="round" stroke="rgb(255,0,0)" stroke-width="3.749996" fill="none" d="M 27.319193 415.339966 L 27.720943 417.348785 " />
<path stroke-linejoin="round" stroke-linecap="round" stroke="rgb(0,0,255)" stroke-width="1.874998" fill="none" d="M 0.000000 750.000000 L 59.999989 0.000000 " />
<path stroke-linejoin="round" stroke-linecap="round" stroke="rgb(255,0,0)" stroke-width="3.749996" fill="none" d="M 26.928909 413.388672 L 27.319193 415.339966 " />
<path stroke-linejoin="round" stroke-linecap="round" stroke="rgb(0,0,255)" stroke-width="1.874998" fill="none" d="M 0.000000 750.000000 L 58.823524 0.000000 " />
<path stroke-linejoin="round" stroke-linecap="round" stroke="rgb(255,0,0)" stroke-width="3.749996" fill="none" d="M 26.549622 411.492249 L 26.928909 413.388672 " />
<path stroke-linejoin="round" stroke-linecap="round" stroke="rgb(0,0,255)" stroke-width="1.874998" fill="none" d="M 0.000000 750.000000 L 57.692303 0.000000 " />
<path stroke-linejoin="round" stroke-linecap="round" stroke="rgb(255,0,0)" stroke-width="3.749996" fill="none" d="M 26.180885 409.648560 L 26.549622 411.492249 " />
<path stroke-linejoin="round" stroke-linecap="round" stroke="rgb(0,0,255)" stroke-width="1.874998" fill="none" d="M 0.000000 750.000000 L 56.603775 0.000000 " />
<path stroke-linejoin="round" stroke-linecap="round" stroke="rgb(255,0,0)" stroke-width="3.749996" fill="none" d="M 25.822229 407.855347 L 26.180885 409.648560 " />
<path stroke-linejoin="round" stroke-linecap="round" stroke="rgb(0,0,255)" stroke-width="1.874998" fill="none" d="M 0.000000 750.000000 L 56.451603 0.000000 " />
<path stroke-linejoin="round" stroke-linecap="round" stroke="rgb(255,0,0)" stroke-width="3.749996" fill="none" d="M 25.771805 407.603241 L 25.822229 407.855408 " />
<path stroke-linejoin="round" stroke-linecap="round" stroke="rgb(0,0,255)" stroke-width="1.874998" fill="none" d="M 0.000000 750.000000 L 55.263161 0.000000 " />
<path stroke-linejoin="round" stroke-linecap="round" stroke="rgb(255,0,0)" stroke-width="3.749996" fill="none" d="M 25.375307 405.620819 L 25.771805 407.603241 " />
<path stroke-linejoin="round" stroke-linecap="round" stroke="rgb(0,0,255)" stroke-width="1.874998" fill="none" d="M 0.000000 750.000000 L 46.875000 0.000000 " />
<path stroke-linejoin="round" stroke-linecap="round" stroke="rgb(255,0,0)" stroke-width="3.749996" fill="none" d="M 22.977814 382.355011 L 25.375307 405.620819 " />
<path stroke-linejoin="round" stroke-linecap="round" stroke="rgb(0,0,255)" stroke-width="1.874998" fill="none" d="M 0.000000 750.000000 L 38.659798 0.000000 " />
<path stroke-linejoin="round" stroke-linecap="round" stroke="rgb(255,0,0)" stroke-width="3.749996" fill="none" d="M 20.665571 349.087921 L 22.977814 382.354980 " />
<path stroke-linejoin="round" stroke-linecap="round" stroke="rgb(0,0,255)" stroke-width="1.874998" fill="none" d="M 0.000000 750.000000 L 30.612253 0.000000 " />
<path stroke-linejoin="round" stroke-linecap="round" stroke="rgb(255,0,0)" stroke-width="3.749996" fill="none" d="M 18.085913 306.895050 L 20.665571 349.087952 " />
<path stroke-linejoin="round" stroke-linecap="round" stroke="rgb(0,0,255)" stroke-width="1.874998" fill="none" d="M 0.000000 750.000000 L 29.999994 0.000000 " />
<path stroke-linejoin="round" stroke-linecap="round" stroke="rgb(255,0,0)" stroke-width="3.749996" fill="none" d="M 17.860674 303.483398 L 18.085913 306.895081 " />
<path stroke-linejoin="round" stroke-linecap="round" stroke="rgb(0,0,255)" stroke-width="1.874998" fill="none" d="M 0.000000 750.000000 L 29.411762 0.000000 " />
<path stroke-linejoin="round" stroke-linecap="round" stroke="rgb(255,0,0)" stroke-width="3.749996" fill="none" d="M 17.647930 299.977600 L 17.860674 303.483398 " />
<path stroke-linejoin="round" stroke-linecap="round" stroke="rgb(0,0,255)" stroke-width="1.874998" fill="none" d="M 0.000000 750.000000 L 28.846151 0.000000 " />
<path stroke-linejoin="round" stroke-linecap="round" stroke="rgb(255,0,0)" stroke-width="3.749996" fill="none" d="M 17.442070 296.505920 L 17.647930 299.977600 " />
<path stroke-linejoin="round" stroke-linecap="round" stroke="rgb(0,0,255)" stroke-width="1.874998" fill="none" d="M 0.000000 750.000000 L 28.301888 0.000000 " />
<path stroke-linejoin="round" stroke-linecap="round" stroke="rgb(255,0,0)" stroke-width="3.749996" fill="none" d="M 17.241440 293.102020 L 17.442070 296.505920 " />
<path stroke-linejoin="round" stroke-linecap="round" stroke="rgb(0,0,255)" stroke-width="1.874998" fill="none" d="M 0.000000 750.000000 L 27.777784 0.000000 " />
<path stroke-linejoin="round" stroke-linecap="round" stroke="rgb(255,0,0)" stroke-width="3.749996" fill="none" d="M 17.045460 289.772369 L 17.241440 293.102020 " />
<path stroke-linejoin="round" stroke-linecap="round" stroke="rgb(0,0,255)" stroke-width="1.874998" fill="none" d="M 0.000000 750.000000 L 26.785725 0.000000 " />
<path stroke-linejoin="round" stroke-linecap="round" stroke="rgb(255,0,0)" stroke-width="3.749996" fill="none" d="M 16.666666 283.333282 L 17.045460 289.772369 " />
<path stroke-linejoin="round" stroke-linecap="round" stroke="rgb(0,0,255)" stroke-width="1.874998" fill="none" d="M 0.000000 750.000000 L 26.315779 0.000000 " />
<path stroke-linejoin="round" stroke-linecap="round" stroke="rgb(255,0,0)" stroke-width="3.749996" fill="none" d="M 16.483515 280.219757 L 16.666666 283.333282 " />
<path stroke-linejoin="round" stroke-linecap="round" stroke="rgb(0,0,255)" stroke-width="1.874998" fill="none" d="M 0.000000 750.000000 L 25.862061 0.000000 " />
<path stroke-linejoin="round" stroke-linecap="round" stroke="rgb(255,0,0)" stroke-width="3.749996" fill="none" d="M 16.304344 277.173889 L 16.483515 280.219757 " />
<path stroke-linejoin="round" stroke-linecap="round" stroke="rgb(0,0,255)" stroke-width="1.874998" fill="none" d="M 0.000000 750.000000 L 25.423721 0.000000 " />
<path stroke-linejoin="round" stroke-linecap="round" stroke="rgb(255,0,0)" stroke-width="3.749996" fill="none" d="M 16.129040 274.193512 L 16.304344 277.173889 " />
<path stroke-linejoin="round" stroke-linecap="round" stroke="rgb(0,0,255)" stroke-width="1.874998" fill="none" d="M 0.000000 750.000000 L 24.999998 0.000000 " />
<path stroke-linejoin="round" stroke-linecap="round" stroke="rgb(255,0,0)" stroke-width="3.749996" fill="none" d="M 15.957445 271.276611 L 16.129040 274.193481 " />
<path stroke-linejoin="round" stroke-linecap="round" stroke="rgb(0,0,255)" stroke-width="1.874998" fill="none" d="M 0.000000 750.000000 L 24.590157 0.000000 " />
<path stroke-linejoin="round" stroke-linecap="round" stroke="rgb(255,0,0)" stroke-width="3.749996" fill="none" d="M 15.789472 268.421051 L 15.957445 271.276642 " />
<path stroke-linejoin="round" stroke-linecap="round" stroke="rgb(0,0,255)" stroke-width="1.874998" fill="none" d="M 0.000000 750.000000 L 24.193548 0.000000 " />
<path stroke-linejoin="round" stroke-linecap="round" stroke="rgb(255,0,0)" stroke-width="3.749996" fill="none" d="M 15.625008 265.624969 L 15.789472 268.421021 " />
<path stroke-linejoin="round" stroke-linecap="round" stroke="rgb(0,0,255)" stroke-width="1.874998" fill="none" d="M 0.000000 750.000000 L 17.999992 0.000000 " />
<path stroke-linejoin="round" stroke-linecap="round" stroke="rgb(255,0,0)" stroke-width="3.749996" fill="none" d="M 12.784101 217.329514 L 15.625008 265.624939 " />
<path stroke-linejoin="round" stroke-linecap="round" stroke="rgb(0,0,255)" stroke-width="1.874998" fill="none" d="M 0.000000 750.000000 L 11.904761 0.000000 " />
<path stroke-linejoin="round" stroke-linecap="round" stroke="rgb(255,0,0)" stroke-width="3.749996" fill="none" d="M 9.374991 159.374908 L 12.784101 217.329468 " />
<path stroke-linejoin="round" stroke-linecap="round" stroke="rgb(0,0,255)" stroke-width="1.874998" fill="none" d="M 0.000000 750.000000 L 5.905509 0.000000 " />
<path stroke-linejoin="round" stroke-linecap="round" stroke="rgb(255,0,0)" stroke-width="3.749996" fill="none" d="M 5.208336 88.541595 L 9.374991 159.374908 " />
<path stroke-linejoin="round" stroke-linecap="round" stroke="rgb(0,0,255)" stroke-width="1.874998" fill="none" d="M 0.000000 750.000000 L 0.000000 0.000000 " />
<path stroke-linejoin="round" stroke-linecap="round" stroke="rgb(255,0,0)" stroke-width="3.749996" fill="none" d="M 0.000000 0.000000 L 5.208336 88.541595 " />
<circle cx="83.189406" cy="747.553244" r="3.749996" style="fill:rgb(0,127,0);stroke-width:1" /><circle cx="82.676612" cy="744.989298" r="3.749996" style="fill:rgb(0,127,0);stroke-width:1" /><circle cx="82.138650" cy="742.299512" r="3.749996" style="fill:rgb(0,127,0);stroke-width:1" /><circle cx="81.698187" cy="740.097195" r="3.749996" style="fill:rgb(0,127,0);stroke-width:1" /><circle cx="79.883069" cy="716.500640" r="3.749996" style="fill:rgb(0,127,0);stroke-width:1" /><circle cx="78.139722" cy="693.837069" r="3.749996" style="fill:rgb(0,127,0);stroke-width:1" /><circle cx="76.765783" cy="675.975859" r="3.749996" style="fill:rgb(0,127,0);stroke-width:1" /><circle cx="75.090341" cy="654.195093" r="3.749996" style="fill:rgb(0,127,0);stroke-width:1" /><circle cx="74.408926" cy="650.788084" r="3.749996" style="fill:rgb(0,127,0);stroke-width:1" /><circle cx="73.442593" cy="645.956352" r="3.749996" style="fill:rgb(0,127,0);stroke-width:1" /><circle cx="72.501004" cy="641.248494" r="3.749996" style="fill:rgb(0,127,0);stroke-width:1" /><circle cx="71.583264" cy="636.659816" r="3.749996" style="fill:rgb(0,127,0);stroke-width:1" /><circle cx="70.382461" cy="630.655825" r="3.749996" style="fill:rgb(0,127,0);stroke-width:1" /><circle cx="69.117621" cy="624.331579" r="3.749996" style="fill:rgb(0,127,0);stroke-width:1" /><circle cx="68.208173" cy="619.784385" r="3.749996" style="fill:rgb(0,127,0);stroke-width:1" /><circle cx="67.322351" cy="615.355298" r="3.749996" style="fill:rgb(0,127,0);stroke-width:1" /><circle cx="65.975904" cy="608.623065" r="3.749996" style="fill:rgb(0,127,0);stroke-width:1" /><circle cx="64.555675" cy="601.521939" r="3.749996" style="fill:rgb(0,127,0);stroke-width:1" /><circle cx="63.683286" cy="597.160086" r="3.749996" style="fill:rgb(0,127,0);stroke-width:1" /><circle cx="62.179662" cy="589.641921" r="3.749996" style="fill:rgb(0,127,0);stroke-width:1" /><circle cx="61.327882" cy="585.383043" r="3.749996" style="fill:rgb(0,127,0);stroke-width:1" /><circle cx="60.499124" cy="581.239253" r="3.749996" style="fill:rgb(0,127,0);stroke-width:1" /><circle cx="58.907054" cy="573.278859" r="3.749996" style="fill:rgb(0,127,0);stroke-width:1" /><circle cx="58.100112" cy="569.244124" r="3.749996" style="fill:rgb(0,127,0);stroke-width:1" /><circle cx="56.418009" cy="560.833722" r="3.749996" style="fill:rgb(0,127,0);stroke-width:1" /><circle cx="55.634424" cy="556.915797" r="3.749996" style="fill:rgb(0,127,0);stroke-width:1" /><circle cx="53.857863" cy="548.033014" r="3.749996" style="fill:rgb(0,127,0);stroke-width:1" /><circle cx="53.099290" cy="544.240214" r="3.749996" style="fill:rgb(0,127,0);stroke-width:1" /><circle cx="51.223509" cy="534.861267" r="3.749996" style="fill:rgb(0,127,0);stroke-width:1" /><circle cx="50.491735" cy="531.202454" r="3.749996" style="fill:rgb(0,127,0);stroke-width:1" /><circle cx="49.780592" cy="527.646706" r="3.749996" style="fill:rgb(0,127,0);stroke-width:1" /><circle cx="49.089186" cy="524.189729" r="3.749996" style="fill:rgb(0,127,0);stroke-width:1" /><circle cx="48.416734" cy="520.827468" r="3.749996" style="fill:rgb(0,127,0);stroke-width:1" /><circle cx="46.461873" cy="511.053219" r="3.749996" style="fill:rgb(0,127,0);stroke-width:1" /><circle cx="45.816556" cy="507.826723" r="3.749996" style="fill:rgb(0,127,0);stroke-width:1" /><circle cx="45.046538" cy="503.976602" r="3.749996" style="fill:rgb(0,127,0);stroke-width:1" /><circle cx="44.393688" cy="500.712376" r="3.749996" style="fill:rgb(0,127,0);stroke-width:1" /><circle cx="43.759480" cy="497.541413" r="3.749996" style="fill:rgb(0,127,0);stroke-width:1" /><circle cx="41.581415" cy="486.651041" r="3.749996" style="fill:rgb(0,127,0);stroke-width:1" /><circle cx="40.978789" cy="483.637914" r="3.749996" style="fill:rgb(0,127,0);stroke-width:1" /><circle cx="38.685188" cy="472.169973" r="3.749996" style="fill:rgb(0,127,0);stroke-width:1" /><circle cx="38.116291" cy="469.325446" r="3.749996" style="fill:rgb(0,127,0);stroke-width:1" /><circle cx="37.563890" cy="466.563402" r="3.749996" style="fill:rgb(0,127,0);stroke-width:1" /><circle cx="37.027270" cy="463.880282" r="3.749996" style="fill:rgb(0,127,0);stroke-width:1" /><circle cx="36.505736" cy="461.272739" r="3.749996" style="fill:rgb(0,127,0);stroke-width:1" /><circle cx="35.998732" cy="458.737610" r="3.749996" style="fill:rgb(0,127,0);stroke-width:1" /><circle cx="35.701208" cy="457.250057" r="3.749996" style="fill:rgb(0,127,0);stroke-width:1" /><circle cx="35.168365" cy="454.585813" r="3.749996" style="fill:rgb(0,127,0);stroke-width:1" /><circle cx="34.651168" cy="451.999901" r="3.749996" style="fill:rgb(0,127,0);stroke-width:1" /><circle cx="34.148991" cy="449.488940" r="3.749996" style="fill:rgb(0,127,0);stroke-width:1" /><circle cx="31.651519" cy="437.001625" r="3.749996" style="fill:rgb(0,127,0);stroke-width:1" /><circle cx="29.000357" cy="423.745869" r="3.749996" style="fill:rgb(0,127,0);stroke-width:1" /><circle cx="28.560966" cy="421.548863" r="3.749996" style="fill:rgb(0,127,0);stroke-width:1" /><circle cx="27.720943" cy="417.348742" r="3.749996" style="fill:rgb(0,127,0);stroke-width:1" /><circle cx="27.319193" cy="415.339988" r="3.749996" style="fill:rgb(0,127,0);stroke-width:1" /><circle cx="26.928909" cy="413.388650" r="3.749996" style="fill:rgb(0,127,0);stroke-width:1" /><circle cx="26.549622" cy="411.492269" r="3.749996" style="fill:rgb(0,127,0);stroke-width:1" /><circle cx="26.180886" cy="409.648539" r="3.749996" style="fill:rgb(0,127,0);stroke-width:1" /><circle cx="25.822230" cy="407.855351" r="3.749996" style="fill:rgb(0,127,0);stroke-width:1" /><circle cx="25.771804" cy="407.603223" r="3.749996" style="fill:rgb(0,127,0);stroke-width:1" /><circle cx="25.375307" cy="405.620813" r="3.749996" style="fill:rgb(0,127,0);stroke-width:1" /><circle cx="22.977814" cy="382.355015" r="3.749996" style="fill:rgb(0,127,0);stroke-width:1" /><circle cx="20.665571" cy="349.087914" r="3.749996" style="fill:rgb(0,127,0);stroke-width:1" /><circle cx="18.085912" cy="306.895059" r="3.749996" style="fill:rgb(0,127,0);stroke-width:1" /><circle cx="17.860673" cy="303.483406" r="3.749996" style="fill:rgb(0,127,0);stroke-width:1" /><circle cx="17.647929" cy="299.977580" r="3.749996" style="fill:rgb(0,127,0);stroke-width:1" /><circle cx="17.442070" cy="296.505930" r="3.749996" style="fill:rgb(0,127,0);stroke-width:1" /><circle cx="17.241441" cy="293.102028" r="3.749996" style="fill:rgb(0,127,0);stroke-width:1" /><circle cx="17.045461" cy="289.772350" r="3.749996" style="fill:rgb(0,127,0);stroke-width:1" /><circle cx="16.666666" cy="283.333261" r="3.749996" style="fill:rgb(0,127,0);stroke-width:1" /><circle cx="16.483516" cy="280.219752" r="3.749996" style="fill:rgb(0,127,0);stroke-width:1" /><circle cx="16.304344" cy="277.173880" r="3.749996" style="fill:rgb(0,127,0);stroke-width:1" /><circle cx="16.129039" cy="274.193522" r="3.749996" style="fill:rgb(0,127,0);stroke-width:1" /><circle cx="15.957445" cy="271.276597" r="3.749996" style="fill:rgb(0,127,0);stroke-width:1" /><circle cx="15.789472" cy="268.421050" r="3.749996" style="fill:rgb(0,127,0);stroke-width:1" /><circle cx="15.625007" cy="265.624959" r="3.749996" style="fill:rgb(0,127,0);stroke-width:1" /><circle cx="12.784101" cy="217.329506" r="3.749996" style="fill:rgb(0,127,0);stroke-width:1" /><circle cx="9.374991" cy="159.374915" r="3.749996" style="fill:rgb(0,127,0);stroke-width:1" /><circle cx="5.208336" cy="88.541597" r="3.749996" style="fill:rgb(0,127,0);stroke-width:1" /><circle cx="750.000000" cy="750.000000" r="3.749996" style="fill:rgb(0,127,0);stroke-width:1" /><path stroke-linejoin="round" stroke-linecap="round" stroke="rgb(255,255,255)" stroke-width="3.749996" fill="none" d="M 0.000000 750.000000 L 750.000000 750.000000 M 0.000000 750.000000 L 0.000000 0.000000 " />

</svg>