<svg xmlns="http://www.w3.org/2000/svg" version="1.1" width = "750" height = "750" viewBox = "0 0 750 750"  shape-rendering="crispEdges">
<path stroke-linejoin="round" stroke-linecap="round" stroke="rgb(255,255,0)" stroke-width="3.749996" fill="none" d="M 83.333328 750.000000 L 0.000000 0.000000 " />
<path stroke-linejoin="round" stroke-linecap="round" stroke="rgb(63,63,63)" stroke-width="3.749996" fill="none" d="M 0.000000 0.000000 L 750.000000 750.000000 M 83.333328 750.000000 L 39.215683 0.000000 " />
<path stroke-linejoin="round" stroke-linecap="round" stroke="rgb(191,191,191)" stroke-width="3.749996" fill="none" d="M 0.000000 666.666687 L 83.333328 750.000000 M 0.000000 0.000000 L 44.117645 750.000000 " />
<path stroke-linejoin="round" stroke-linecap="round" stroke="rgb(0,0,255)" stroke-width="1.874998" fill="none" d="M 0.000000 750.000000 L 750.000000 562.500000 " />
<path stroke-linejoin="round" stroke-linecap="round" stroke="rgb(255,0,0)" stroke-width="3.749996" fill="none" d="M 82.125595 729.468567 L 83.333328 750.000000 " />
<path stroke-linejoin="round" stroke-linecap="round" stroke="rgb(0,0,255)" stroke-width="1.874998" fill="none" d="M 0.000000 750.000000 L 750.000000 365.384583 " />
<path stroke-linejoin="round" stroke-linecap="round" stroke="rgb(255,0,0)" stroke-width="3.749996" fill="none" d="M 80.893120 708.516357 L 82.125595 729.468567 " />
<path stroke-linejoin="round" stroke-linecap="round" stroke="rgb(0,0,255)" stroke-width="1.874998" fill="none" d="M 0.000000 750.000000 L 750.000000 157.894714 " />
<path stroke-linejoin="round" stroke-linecap="round" stroke="rgb(255,0,0)" stroke-width="3.749996" fill="none" d="M 79.635101 687.130188 L 80.893120 708.516357 " />
<path stroke-linejoin="round" stroke-linecap="round" stroke="rgb(0,0,255)" stroke-width="1.874998" fill="none" d="M 0.000000 750.000000 L 693.750000 0.000000 " />
<path stroke-linejoin="round" stroke-linecap="round" stroke="rgb(255,0,0)" stroke-width="3.749996" fill="none" d="M 78.350769 665.296448 L 79.635101 687.130188 " />
<path stroke-linejoin="round" stroke-linecap="round" stroke="rgb(0,0,255)" stroke-width="1.874998" fill="none" d="M 0.000000 750.000000 L 540.000000 0.000000 " />
<path stroke-linejoin="round" stroke-linecap="round" stroke="rgb(255,0,0)" stroke-width="3.749996" fill="none" d="M 77.039276 643.001038 L 78.350769 665.296448 " />
<path stroke-linejoin="round" stroke-linecap="round" stroke="rgb(0,0,255)" stroke-width="1.874998" fill="none" d="M 0.000000 750.000000 L 437.500000 0.000000 " />
<path stroke-linejoin="round" stroke-linecap="round" stroke="rgb(255,0,0)" stroke-width="3.749996" fill="none" d="M 75.699738 620.229004 L 77.039276 643.001038 " />
<path stroke-linejoin="round" stroke-linecap="round" stroke="rgb(0,0,255)" stroke-width="1.874998" fill="none" d="M 0.000000 750.000000 L 364.285706 0.000000 " />
<path stroke-linejoin="round" stroke-linecap="round" stroke="rgb(255,0,0)" stroke-width="3.749996" fill="none" d="M 74.331276 596.965027 L 75.699738 620.229004 " />
<path stroke-linejoin="round" stroke-linecap="round" stroke="rgb(0,0,255)" stroke-width="1.874998" fill="none" d="M 0.000000 750.000000 L 328.124969 0.000000 " />
<path stroke-linejoin="round" stroke-linecap="round" stroke="rgb(255,0,0)" stroke-width="3.749996" fill="none" d="M 73.456787 582.098755 L 74.331276 596.965027 " />
<path stroke-linejoin="round" stroke-linecap="round" stroke="rgb(0,0,255)" stroke-width="1.874998" fill="none" d="M 0.000000 750.000000 L 309.375000 0.000000 " />
<path stroke-linejoin="round" stroke-linecap="round" stroke="rgb(255,0,0)" stroke-width="3.749996" fill="none" d="M 72.932907 573.192932 L 73.456764 582.098816 " />
<path stroke-linejoin="round" stroke-linecap="round" stroke="rgb(0,0,255)" stroke-width="1.874998" fill="none" d="M 0.000000 750.000000 L 283.333344 0.000000 " />
<path stroke-linejoin="round" stroke-linecap="round" stroke="rgb(255,0,0)" stroke-width="3.749996" fill="none" d="M 72.105782 559.131775 L 72.932930 573.192871 " />
<path stroke-linejoin="round" stroke-linecap="round" stroke="rgb(0,0,255)" stroke-width="1.874998" fill="none" d="M 0.000000 750.000000 L 266.666687 0.000000 " />
<path stroke-linejoin="round" stroke-linecap="round" stroke="rgb(255,0,0)" stroke-width="3.749996" fill="none" d="M 71.503693 548.895874 L 72.105782 559.131775 " />
<path stroke-linejoin="round" stroke-linecap="round" stroke="rgb(0,0,255)" stroke-width="1.874998" fill="none" d="M 0.000000 750.000000 L 232.500000 0.000000 " />
<path stroke-linejoin="round" stroke-linecap="round" stroke="rgb(255,0,0)" stroke-width="3.749996" fill="none" d="M 70.042534 524.056396 L 71.503693 548.895874 " />
<path stroke-linejoin="round" stroke-linecap="round" stroke="rgb(0,0,255)" stroke-width="1.874998" fill="none" d="M 0.000000 750.000000 L 204.545456 0.000000 " />
<path stroke-linejoin="round" stroke-linecap="round" stroke="rgb(255,0,0)" stroke-width="3.749996" fill="none" d="M 68.548363 498.655945 L 70.042511 524.056396 " />
<path stroke-linejoin="round" stroke-linecap="round" stroke="rgb(0,0,255)" stroke-width="1.874998" fill="none" d="M 0.000000 750.000000 L 181.250000 0.000000 " />
<path stroke-linejoin="round" stroke-linecap="round" stroke="rgb(255,0,0)" stroke-width="3.749996" fill="none" d="M 67.020111 472.675446 L 68.548363 498.655945 " />
<path stroke-linejoin="round" stroke-linecap="round" stroke="rgb(0,0,255)" stroke-width="1.874998" fill="none" d="M 0.000000 750.000000 L 161.538452 0.000000 " />
<path stroke-linejoin="round" stroke-linecap="round" stroke="rgb(255,0,0)" stroke-width="3.749996" fill="none" d="M 65.456543 446.094666 L 67.020111 472.675446 " />
<path stroke-linejoin="round" stroke-linecap="round" stroke="rgb(0,0,255)" stroke-width="1.874998" fill="none" d="M 0.000000 750.000000 L 155.357147 0.000000 " />
<path stroke-linejoin="round" stroke-linecap="round" stroke="rgb(255,0,0)" stroke-width="3.749996" fill="none" d="M 64.902573 436.677277 L 65.456543 446.094666 " />
<path stroke-linejoin="round" stroke-linecap="round" stroke="rgb(0,0,255)" stroke-width="1.874998" fill="none" d="M 0.000000 750.000000 L 140.000000 0.000000 " />
<path stroke-linejoin="round" stroke-linecap="round" stroke="rgb(255,0,0)" stroke-width="3.749996" fill="none" d="M 63.365265 410.543213 L 64.902573 436.677277 " />
<path stroke-linejoin="round" stroke-linecap="round" stroke="rgb(0,0,255)" stroke-width="1.874998" fill="none" d="M 0.000000 750.000000 L 126.562492 0.000000 " />
<path stroke-linejoin="round" stroke-linecap="round" stroke="rgb(255,0,0)" stroke-width="3.749996" fill="none" d="M 61.793201 383.818085 L 63.365265 410.543213 " />
<path stroke-linejoin="round" stroke-linecap="round" stroke="rgb(0,0,255)" stroke-width="1.874998" fill="none" d="M 0.000000 750.000000 L 114.705879 0.000000 " />
<path stroke-linejoin="round" stroke-linecap="round" stroke="rgb(255,0,0)" stroke-width="3.749996" fill="none" d="M 60.185173 356.481567 L 61.793201 383.818085 " />
<path stroke-linejoin="round" stroke-linecap="round" stroke="rgb(0,0,255)" stroke-width="1.874998" fill="none" d="M 0.000000 750.000000 L 112.500008 0.000000 " />
<path stroke-linejoin="round" stroke-linecap="round" stroke="rgb(255,0,0)" stroke-width="3.749996" fill="none" d="M 59.859150 350.939056 L 60.185173 356.481567 " />
<path stroke-linejoin="round" stroke-linecap="round" stroke="rgb(0,0,255)" stroke-width="1.874998" fill="none" d="M 0.000000 750.000000 L 102.631577 0.000000 " />
<path stroke-linejoin="round" stroke-linecap="round" stroke="rgb(255,0,0)" stroke-width="3.749996" fill="none" d="M 58.280579 324.103485 L 59.859150 350.938995 " />
<path stroke-linejoin="round" stroke-linecap="round" stroke="rgb(0,0,255)" stroke-width="1.874998" fill="none" d="M 0.000000 750.000000 L 93.750000 0.000000 " />
<path stroke-linejoin="round" stroke-linecap="round" stroke="rgb(255,0,0)" stroke-width="3.749996" fill="none" d="M 56.666649 296.666779 L 58.280579 324.103516 " />
<path stroke-linejoin="round" stroke-linecap="round" stroke="rgb(0,0,255)" stroke-width="1.874998" fill="none" d="M 0.000000 750.000000 L 92.857140 0.000000 " />
<path stroke-linejoin="round" stroke-linecap="round" stroke="rgb(255,0,0)" stroke-width="3.749996" fill="none" d="M 56.492821 293.711731 L 56.666649 296.666779 " />
<path stroke-linejoin="round" stroke-linecap="round" stroke="rgb(0,0,255)" stroke-width="1.874998" fill="none" d="M 0.000000 750.000000 L 88.862572 0.000000 " />
<path stroke-linejoin="round" stroke-linecap="round" stroke="rgb(255,0,0)" stroke-width="3.749996" fill="none" d="M 55.686569 280.005310 L 56.492821 293.711731 " />
<path stroke-linejoin="round" stroke-linecap="round" stroke="rgb(0,0,255)" stroke-width="1.874998" fill="none" d="M 0.000000 750.000000 L 85.227280 0.000000 " />
<path stroke-linejoin="round" stroke-linecap="round" stroke="rgb(255,0,0)" stroke-width="3.749996" fill="none" d="M 54.909557 266.795898 L 55.686569 280.005310 " />
<path stroke-linejoin="round" stroke-linecap="round" stroke="rgb(0,0,255)" stroke-width="1.874998" fill="none" d="M 0.000000 750.000000 L 84.558830 0.000000 " />
<path stroke-linejoin="round" stroke-linecap="round" stroke="rgb(255,0,0)" stroke-width="3.749996" fill="none" d="M 54.522537 266.408905 L 54.909557 266.795898 " />
<path stroke-linejoin="round" stroke-linecap="round" stroke="rgb(0,0,255)" stroke-width="1.874998" fill="none" d="M 0.000000 750.000000 L 80.487793 0.000000 " />
<path stroke-linejoin="round" stroke-linecap="round" stroke="rgb(255,0,0)" stroke-width="3.749996" fill="none" d="M 52.151978 264.038300 L 54.522537 266.408905 " />
<path stroke-linejoin="round" stroke-linecap="round" stroke="rgb(0,0,255)" stroke-width="1.874998" fill="none" d="M 0.000000 750.000000 L 76.456322 0.000000 " />
<path stroke-linejoin="round" stroke-linecap="round" stroke="rgb(255,0,0)" stroke-width="3.749996" fill="none" d="M 49.781441 261.667786 L 52.151978 264.038300 " />
<path stroke-linejoin="round" stroke-linecap="round" stroke="rgb(0,0,255)" stroke-width="1.874998" fill="none" d="M 0.000000 750.000000 L 72.463768 0.000000 " />
<path stroke-linejoin="round" stroke-linecap="round" stroke="rgb(255,0,0)" stroke-width="3.749996" fill="none" d="M 47.410885 259.297241 L 49.781441 261.667786 " />
<path stroke-linejoin="round" stroke-linecap="round" stroke="rgb(0,0,255)" stroke-width="1.874998" fill="none" d="M 0.000000 750.000000 L 71.770325 0.000000 " />
<path stroke-linejoin="round" stroke-linecap="round" stroke="rgb(255,0,0)" stroke-width="3.749996" fill="none" d="M 46.996819 258.883148 L 47.410885 259.297241 " />
<path stroke-linejoin="round" stroke-linecap="round" stroke="rgb(0,0,255)" stroke-width="1.874998" fill="none" d="M 0.000000 750.000000 L 67.857140 0.000000 " />
<path stroke-linejoin="round" stroke-linecap="round" stroke="rgb(255,0,0)" stroke-width="3.749996" fill="none" d="M 44.646980 256.533356 L 46.996819 258.883148 " />
<path stroke-linejoin="round" stroke-linecap="round" stroke="rgb(0,0,255)" stroke-width="1.874998" fill="none" d="M 0.000000 750.000000 L 63.981033 0.000000 " />
<path stroke-linejoin="round" stroke-linecap="round" stroke="rgb(255,0,0)" stroke-width="3.749996" fill="none" d="M 42.297138 254.183456 L 44.646980 256.533356 " />
<path stroke-linejoin="round" stroke-linecap="round" stroke="rgb(0,0,255)" stroke-width="1.874998" fill="none" d="M 0.000000 750.000000 L 60.141518 0.000000 " />
<path stroke-linejoin="round" stroke-linecap="round" stroke="rgb(255,0,0)" stroke-width="3.749996" fill="none" d="M 39.947300 251.833633 L 42.297138 254.183456 " />
<path stroke-linejoin="round" stroke-linecap="round" stroke="rgb(0,0,255)" stroke-width="1.874998" fill="none" d="M 0.000000 750.000000 L 56.338036 0.000000 " />
<path stroke-linejoin="round" stroke-linecap="round" stroke="rgb(255,0,0)" stroke-width="3.749996" fill="none" d="M 37.597462 249.483795 L 39.947300 251.833633 " />
<path stroke-linejoin="round" stroke-linecap="round" stroke="rgb(0,0,255)" stroke-width="1.874998" fill="none" d="M 0.000000 750.000000 L 55.813953 0.000000 " />
<path stroke-linejoin="round" stroke-linecap="round" stroke="rgb(255,0,0)" stroke-width="3.749996" fill="none" d="M 37.271931 249.158310 L 37.597462 249.483795 " />
<path stroke-linejoin="round" stroke-linecap="round" stroke="rgb(0,0,255)" stroke-width="1.874998" fill="none" d="M 0.000000 750.000000 L 52.083336 0.000000 " />
<path stroke-linejoin="round" stroke-linecap="round" stroke="rgb(255,0,0)" stroke-width="3.749996" fill="none" d="M 34.942455 246.828812 L 37.271931 249.158310 " />
<path stroke-linejoin="round" stroke-linecap="round" stroke="rgb(0,0,255)" stroke-width="1.874998" fill="none" d="M 0.000000 750.000000 L 48.387096 0.000000 " />
<path stroke-linejoin="round" stroke-linecap="round" stroke="rgb(255,0,0)" stroke-width="3.749996" fill="none" d="M 32.612957 244.499283 L 34.942455 246.828812 " />
<path stroke-linejoin="round" stroke-linecap="round" stroke="rgb(0,0,255)" stroke-width="1.874998" fill="none" d="M 0.000000 750.000000 L 44.724762 0.000000 " />
<path stroke-linejoin="round" stroke-linecap="round" stroke="rgb(255,0,0)" stroke-width="3.749996" fill="none" d="M 30.283459 242.169815 L 32.612957 244.499283 " />
<path stroke-linejoin="round" stroke-linecap="round" stroke="rgb(0,0,255)" stroke-width="1.874998" fill="none" d="M 0.000000 750.000000 L 41.095890 0.000000 " />
<path stroke-linejoin="round" stroke-linecap="round" stroke="rgb(255,0,0)" stroke-width="3.749996" fill="none" d="M 27.953960 239.840317 L 30.283459 242.169815 " />
<path stroke-linejoin="round" stroke-linecap="round" stroke="rgb(0,0,255)" stroke-width="1.874998" fill="none" d="M 0.000000 750.000000 L 40.723980 0.000000 " />
<path stroke-linejoin="round" stroke-linecap="round" stroke="rgb(255,0,0)" stroke-width="3.749996" fill="none" d="M 27.714014 239.600342 L 27.953960 239.840317 " />
<path stroke-linejoin="round" stroke-linecap="round" stroke="rgb(0,0,255)" stroke-width="1.874998" fill="none" d="M 0.000000 750.000000 L 37.162163 0.000000 " />
<path stroke-linejoin="round" stroke-linecap="round" stroke="rgb(255,0,0)" stroke-width="3.749996" fill="none" d="M 25.404497 237.290878 L 27.714014 239.600342 " />
<path stroke-linejoin="round" stroke-linecap="round" stroke="rgb(0,0,255)" stroke-width="1.874998" fill="none" d="M 0.000000 750.000000 L 36.830349 0.000000 " />
<path stroke-linejoin="round" stroke-linecap="round" stroke="rgb(255,0,0)" stroke-width="3.749996" fill="none" d="M 25.188290 237.074646 L 25.404497 237.290878 " />
<path stroke-linejoin="round" stroke-linecap="round" stroke="rgb(0,0,255)" stroke-width="1.874998" fill="none" d="M 0.000000 750.000000 L 33.333332 0.000000 " />
<path stroke-linejoin="round" stroke-linecap="round" stroke="rgb(255,0,0)" stroke-width="3.749996" fill="none" d="M 22.898443 234.784790 L 25.188290 237.074646 " />
<path stroke-linejoin="round" stroke-linecap="round" stroke="rgb(0,0,255)" stroke-width="1.874998" fill="none" d="M 0.000000 750.000000 L 33.039650 0.000000 " />
<path stroke-linejoin="round" stroke-linecap="round" stroke="rgb(255,0,0)" stroke-width="3.749996" fill="none" d="M 22.705212 234.591568 L 22.898443 234.784790 " />
<path stroke-linejoin="round" stroke-linecap="round" stroke="rgb(0,0,255)" stroke-width="1.874998" fill="none" d="M 0.000000 750.000000 L 32.751091 0.000000 " />
<path stroke-linejoin="round" stroke-linecap="round" stroke="rgb(255,0,0)" stroke-width="3.749996" fill="none" d="M 22.515223 234.401596 L 22.705212 234.591568 " />
<path stroke-linejoin="round" stroke-linecap="round" stroke="rgb(0,0,255)" stroke-width="1.874998" fill="none" d="M 0.000000 750.000000 L 29.347837 0.000000 " />
<path stroke-linejoin="round" stroke-linecap="round" stroke="rgb(255,0,0)" stroke-width="3.749996" fill="none" d="M 20.263687 232.150040 L 22.515223 234.401596 " />
<path stroke-linejoin="round" stroke-linecap="round" stroke="rgb(0,0,255)" stroke-width="1.874998" fill="none" d="M 0.000000 750.000000 L 25.974020 0.000000 " />
<path stroke-linejoin="round" stroke-linecap="round" stroke="rgb(255,0,0)" stroke-width="3.749996" fill="none" d="M 18.012173 229.898529 L 20.263687 232.150040 " />
<path stroke-linejoin="round" stroke-linecap="round" stroke="rgb(0,0,255)" stroke-width="1.874998" fill="none" d="M 0.000000 750.000000 L 22.629305 0.000000 " />
<path stroke-linejoin="round" stroke-linecap="round" stroke="rgb(255,0,0)" stroke-width="3.749996" fill="none" d="M 15.760660 227.647034 L 18.012173 229.898529 " />
<path stroke-linejoin="round" stroke-linecap="round" stroke="rgb(0,0,255)" stroke-width="1.874998" fill="none" d="M 0.000000 750.000000 L 19.313313 0.000000 " />
<path stroke-linejoin="round" stroke-linecap="round" stroke="rgb(255,0,0)" stroke-width="3.749996" fill="none" d="M 13.509125 225.395477 L 15.760660 227.647034 " />
<path stroke-linejoin="round" stroke-linecap="round" stroke="rgb(0,0,255)" stroke-width="1.874998" fill="none" d="M 0.000000 750.000000 L 16.025640 0.000000 " />
<path stroke-linejoin="round" stroke-linecap="round" stroke="rgb(255,0,0)" stroke-width="3.749996" fill="none" d="M 11.755496 199.843307 L 13.509125 225.395523 " />
<path stroke-linejoin="round" stroke-linecap="round" stroke="rgb(0,0,255)" stroke-width="1.874998" fill="none" d="M 0.000000 750.000000 L 12.765951 0.000000 " />
<path stroke-linejoin="round" stroke-linecap="round" stroke="rgb(255,0,0)" stroke-width="3.749996" fill="none" d="M 9.900994 168.316833 L 11.755496 199.843307 " />
<path stroke-linejoin="round" stroke-linecap="round" stroke="rgb(0,0,255)" stroke-width="1.874998" fill="none" d="M 0.000000 750.000000 L 12.658238 0.000000 " />
<path stroke-linejoin="round" stroke-linecap="round" stroke="rgb(255,0,0)" stroke-width="3.749996" fill="none" d="M 9.836062 167.213120 L 9.900994 168.316833 " />
<path stroke-linejoin="round" stroke-linecap="round" stroke="rgb(0,0,255)" stroke-width="1.874998" fill="none" d="M 0.000000 750.000000 L 12.552291 0.000000 " />
<path stroke-linejoin="round" stroke-linecap="round" stroke="rgb(255,0,0)" stroke-width="3.749996" fill="none" d="M 9.771980 166.123749 L 9.836062 167.213120 " />
<path stroke-linejoin="round" stroke-linecap="round" stroke="rgb(0,0,255)" stroke-width="1.874998" fill="none" d="M 0.000000 750.000000 L 12.448132 0.000000 " />
<path stroke-linejoin="round" stroke-linecap="round" stroke="rgb(255,0,0)" stroke-width="3.749996" fill="none" d="M 9.708747 165.048569 L 9.771980 166.123749 " />
<path stroke-linejoin="round" stroke-linecap="round" stroke="rgb(0,0,255)" stroke-width="1.874998" fill="none" d="M 0.000000 750.000000 L 12.345672 0.000000 " />
<path stroke-linejoin="round" stroke-linecap="round" stroke="rgb(255,0,0)" stroke-width="3.749996" fill="none" d="M 9.646297 163.987198 L 9.708747 165.048523 " />
<path stroke-linejoin="round" stroke-linecap="round" stroke="rgb(0,0,255)" stroke-width="1.874998" fill="none" d="M 0.000000 750.000000 L 12.244887 0.000000 " />
<path stroke-linejoin="round" stroke-linecap="round" stroke="rgb(255,0,0)" stroke-width="3.749996" fill="none" d="M 9.584673 162.939301 L 9.646297 163.987198 " />
<path stroke-linejoin="round" stroke-linecap="round" stroke="rgb(0,0,255)" stroke-width="1.874998" fill="none" d="M 0.000000 750.000000 L 12.145758 0.000000 " />
<path stroke-linejoin="round" stroke-linecap="round" stroke="rgb(255,0,0)" stroke-width="3.749996" fill="none" d="M 9.523809 161.904770 L 9.584673 162.939301 " />
<path stroke-linejoin="round" stroke-linecap="round" stroke="rgb(0,0,255)" stroke-width="1.874998" fill="none" d="M 0.000000 750.000000 L 12.048192 0.000000 " />
<path stroke-linejoin="round" stroke-linecap="round" stroke="rgb(255,0,0)" stroke-width="3.749996" fill="none" d="M 9.463728 160.883270 L 9.523809 161.904770 " />
<path stroke-linejoin="round" stroke-linecap="round" stroke="rgb(0,0,255)" stroke-width="1.874998" fill="none" d="M 0.000000 750.000000 L 9.374991 0.000000 " />
<path stroke-linejoin="round" stroke-linecap="round" stroke="rgb(255,0,0)" stroke-width="3.749996" fill="none" d="M 7.731959 131.443268 L 9.463728 160.883194 " />
<path stroke-linejoin="round" stroke-linecap="round" stroke="rgb(0,0,255)" stroke-width="1.874998" fill="none" d="M 0.000000 750.000000 L 6.224066 0.000000 " />
<path stroke-linejoin="round" stroke-linecap="round" stroke="rgb(255,0,0)" stroke-width="3.749996" fill="none" d="M 5.454540 92.727295 L 7.731959 131.443268 " />
<path stroke-linejoin="round" stroke-linecap="round" stroke="rgb(0,0,255)" stroke-width="1.874998" fill="none" d="M 0.000000 750.000000 L 3.099181 0.000000 " />
<path stroke-linejoin="round" stroke-linecap="round" stroke="rgb(255,0,0)" stroke-width="3.749996" fill="none" d="M 2.895758 49.227791 L 5.454540 92.727295 " />
<path stroke-linejoin="round" stroke-linecap="round" stroke="rgb(0,0,255)" stroke-width="1.874998" fill="none" d="M 0.000000 750.000000 L 0.000000 0.000000 " />
<path stroke-linejoin="round" stroke-linecap="round" stroke="rgb(255,0,0)" stroke-width="3.749996" fill="none" d="M 0.000000 0.000000 L 2.895758 49.227791 " />
<circle cx="82.125597" cy="729.468606" r="3.749996" style="fill:rgb(0,127,0);stroke-width:1" /><circle cx="80.893122" cy="708.516352" r="3.749996" style="fill:rgb(0,127,0);stroke-width:1" /><circle cx="79.635099" cy="687.130183" r="3.749996" style="fill:rgb(0,127,0);stroke-width:1" /><circle cx="78.350767" cy="665.296465" r="3.749996" style="fill:rgb(0,127,0);stroke-width:1" /><circle cx="77.039279" cy="643.001027" r="3.749996" style="fill:rgb(0,127,0);stroke-width:1" /><circle cx="75.699739" cy="620.229006" r="3.749996" style="fill:rgb(0,127,0);stroke-width:1" /><circle cx="74.331276" cy="596.965022" r="3.749996" style="fill:rgb(0,127,0);stroke-width:1" /><circle cx="73.456787" cy="582.098767" r="3.749996" style="fill:rgb(0,127,0);stroke-width:1" /><circle cx="72.932906" cy="573.192939" r="3.749996" style="fill:rgb(0,127,0);stroke-width:1" /><circle cx="72.105780" cy="559.131771" r="3.749996" style="fill:rgb(0,127,0);stroke-width:1" /><circle cx="71.503691" cy="548.895892" r="3.749996" style="fill:rgb(0,127,0);stroke-width:1" /><circle cx="70.042536" cy="524.056379" r="3.749996" style="fill:rgb(0,127,0);stroke-width:1" /><circle cx="68.548366" cy="498.655960" r="3.749996" style="fill:rgb(0,127,0);stroke-width:1" /><circle cx="67.020111" cy="472.675446" r="3.749996" style="fill:rgb(0,127,0);stroke-width:1" /><circle cx="65.456539" cy="446.094671" r="3.749996" style="fill:rgb(0,127,0);stroke-width:1" /><circle cx="64.902574" cy="436.677279" r="3.749996" style="fill:rgb(0,127,0);stroke-width:1" /><circle cx="63.365266" cy="410.543203" r="3.749996" style="fill:rgb(0,127,0);stroke-width:1" /><circle cx="61.793201" cy="383.818070" r="3.749996" style="fill:rgb(0,127,0);stroke-width:1" /><circle cx="60.185172" cy="356.481553" r="3.749996" style="fill:rgb(0,127,0);stroke-width:1" /><circle cx="59.859149" cy="350.939034" r="3.749996" style="fill:rgb(0,127,0);stroke-width:1" /><circle cx="58.280580" cy="324.103475" r="3.749996" style="fill:rgb(0,127,0);stroke-width:1" /><circle cx="56.666650" cy="296.666779" r="3.749996" style="fill:rgb(0,127,0);stroke-width:1" /><circle cx="56.492820" cy="293.711744" r="3.749996" style="fill:rgb(0,127,0);stroke-width:1" /><circle cx="55.686571" cy="280.005332" r="3.749996" style="fill:rgb(0,127,0);stroke-width:1" /><circle cx="54.909557" cy="266.795911" r="3.749996" style="fill:rgb(0,127,0);stroke-width:1" /><circle cx="54.522537" cy="266.408879" r="3.749996" style="fill:rgb(0,127,0);stroke-width:1" /><circle cx="52.151978" cy="264.038321" r="3.749996" style="fill:rgb(0,127,0);stroke-width:1" /><circle cx="49.781442" cy="261.667773" r="3.749996" style="fill:rgb(0,127,0);stroke-width:1" /><circle cx="47.410883" cy="259.297248" r="3.749996" style="fill:rgb(0,127,0);stroke-width:1" /><circle cx="46.996817" cy="258.883160" r="3.749996" style="fill:rgb(0,127,0);stroke-width:1" /><circle cx="44.646978" cy="256.533343" r="3.749996" style="fill:rgb(0,127,0);stroke-width:1" /><circle cx="42.297140" cy="254.183449" r="3.749996" style="fill:rgb(0,127,0);stroke-width:1" /><circle cx="39.947301" cy="251.833633" r="3.749996" style="fill:rgb(0,127,0);stroke-width:1" /><circle cx="37.597463" cy="249.483783" r="3.749996" style="fill:rgb(0,127,0);stroke-width:1" /><circle cx="37.271932" cy="249.158308" r="3.749996" style="fill:rgb(0,127,0);stroke-width:1" /><circle cx="34.942456" cy="246.828798" r="3.749996" style="fill:rgb(0,127,0);stroke-width:1" /><circle cx="32.612957" cy="244.499288" r="3.749996" style="fill:rgb(0,127,0);stroke-width:1" /><circle cx="30.283459" cy="242.169812" r="3.749996" style="fill:rgb(0,127,0);stroke-width:1" /><circle cx="27.953960" cy="239.840314" r="3.749996" style="fill:rgb(0,127,0);stroke-width:1" /><circle cx="27.714014" cy="239.600345" r="3.749996" style="fill:rgb(0,127,0);stroke-width:1" /><circle cx="25.404498" cy="237.290863" r="3.749996" style="fill:rgb(0,127,0);stroke-width:1" /><circle cx="25.188290" cy="237.074655" r="3.749996" style="fill:rgb(0,127,0);stroke-width:1" /><circle cx="22.898443" cy="234.784797" r="3.749996" style="fill:rgb(0,127,0);stroke-width:1" /><circle cx="22.705212" cy="234.591566" r="3.749996" style="fill:rgb(0,127,0);stroke-width:1" /><circle cx="22.515222" cy="234.401587" r="3.749996" style="fill:rgb(0,127,0);stroke-width:1" /><circle cx="20.263687" cy="232.150041" r="3.749996" style="fill:rgb(0,127,0);stroke-width:1" /><circle cx="18.012173" cy="229.898527" r="3.749996" style="fill:rgb(0,127,0);stroke-width:1" /><circle cx="15.760660" cy="227.647025" r="3.749996" style="fill:rgb(0,127,0);stroke-width:1" /><circle cx="13.509125" cy="225.395478" r="3.749996" style="fill:rgb(0,127,0);stroke-width:1" /><circle cx="11.755496" cy="199.843291" r="3.749996" style="fill:rgb(0,127,0);stroke-width:1" /><circle cx="9.900995" cy="168.316841" r="3.749996" style="fill:rgb(0,127,0);stroke-width:1" /><circle cx="9.836063" cy="167.213112" r="3.749996" style="fill:rgb(0,127,0);stroke-width:1" /><circle cx="9.771980" cy="166.123755" r="3.749996" style="fill:rgb(0,127,0);stroke-width:1" /><circle cx="9.708747" cy="165.048569" r="3.749996" style="fill:rgb(0,127,0);stroke-width:1" /><circle cx="9.646297" cy="163.987197" r="3.749996" style="fill:rgb(0,127,0);stroke-width:1" /><circle cx="9.584673" cy="162.939303" r="3.749996" style="fill:rgb(0,127,0);stroke-width:1" /><circle cx="9.523809" cy="161.904775" r="3.749996" style="fill:rgb(0,127,0);stroke-width:1" /><circle cx="9.463727" cy="160.883278" r="3.749996" style="fill:rgb(0,127,0);stroke-width:1" /><circle cx="7.731959" cy="131.443262" r="3.749996" style="fill:rgb(0,127,0);stroke-width:1" /><circle cx="5.454540" cy="92.727296" r="3.749996" style="fill:rgb(0,127,0);stroke-width:1" /><circle cx="2.895758" cy="49.227789" r="3.749996" style="fill:rgb(0,127,0);stroke-width:1" /><circle cx="750.000000" cy="750.000000" r="3.749996" style="fill:rgb(0,127,0);stroke-width:1" /><path stroke-linejoin="round" stroke-linecap="round" stroke="rgb(255,255,255)" stroke-width="3.749996" fill="none" d="M 0.000000 750.000000 L 750.000000 750.000000 M 0.000000 750.000000 L 0.000000 0.000000 " />

</svg>