<svg xmlns="http://www.w3.org/2000/svg" version="1.1" width = "750" height = "750" viewBox = "0 0 750 750"  shape-rendering="crispEdges">
<path stroke-linejoin="round" stroke-linecap="round" stroke="rgb(255,255,0)" stroke-width="3.749996" fill="none" d="M 249.999985 750.000000 L 0.000000 0.000000 " />
<path stroke-linejoin="round" stroke-linecap="round" stroke="rgb(63,63,63)" stroke-width="3.749996" fill="none" d="M 0.000000 0.000000 L 750.000000 750.000000 M 249.999985 750.000000 L 99.999992 0.000000 " />
<path stroke-linejoin="round" stroke-linecap="round" stroke="rgb(191,191,191)" stroke-width="3.749996" fill="none" d="M 0.000000 500.000000 L 249.999985 750.000000 M 0.000000 0.000000 L 150.000015 750.000000 " />
<path stroke-linejoin="round" stroke-linecap="round" stroke="rgb(0,0,255)" stroke-width="1.874998" fill="none" d="M 0.000000 750.000000 L 750.000000 730.769226 " />
<path stroke-linejoin="round" stroke-linecap="round" stroke="rgb(255,0,0)" stroke-width="3.749996" fill="none" d="M 248.724457 743.622437 L 249.999985 750.000000 " />
<path stroke-linejoin="round" stroke-linecap="round" stroke="rgb(0,0,255)" stroke-width="1.874998" fill="none" d="M 0.000000 750.000000 L 750.000000 712.500000 " />
<path stroke-linejoin="round" stroke-linecap="round" stroke="rgb(255,0,0)" stroke-width="3.749996" fill="none" d="M 242.954361 737.852295 L 248.724457 743.622437 " />
<path stroke-linejoin="round" stroke-linecap="round" stroke="rgb(0,0,255)" stroke-width="1.874998" fill="none" d="M 0.000000 750.000000 L 750.000000 710.526306 " />
<path stroke-linejoin="round" stroke-linecap="round" stroke="rgb(255,0,0)" stroke-width="3.749996" fill="none" d="M 242.346970 737.244873 L 242.954361 737.852295 " />
<path stroke-linejoin="round" stroke-linecap="round" stroke="rgb(0,0,255)" stroke-width="1.874998" fill="none" d="M 0.000000 750.000000 L 750.000000 689.189209 " />
<path stroke-linejoin="round" stroke-linecap="round" stroke="rgb(255,0,0)" stroke-width="3.749996" fill="none" d="M 235.969437 730.867371 L 242.346970 737.244873 " />
<path stroke-linejoin="round" stroke-linecap="round" stroke="rgb(0,0,255)" stroke-width="1.874998" fill="none" d="M 0.000000 750.000000 L 750.000000 666.666687 " />
<path stroke-linejoin="round" stroke-linecap="round" stroke="rgb(255,0,0)" stroke-width="3.749996" fill="none" d="M 229.591812 724.489807 L 235.969437 730.867371 " />
<path stroke-linejoin="round" stroke-linecap="round" stroke="rgb(0,0,255)" stroke-width="1.874998" fill="none" d="M 0.000000 750.000000 L 750.000000 648.648682 " />
<path stroke-linejoin="round" stroke-linecap="round" stroke="rgb(255,0,0)" stroke-width="3.749996" fill="none" d="M 224.732727 719.630676 L 229.591812 724.489807 " />
<path stroke-linejoin="round" stroke-linecap="round" stroke="rgb(0,0,255)" stroke-width="1.874998" fill="none" d="M 0.000000 750.000000 L 750.000000 642.857178 " />
<path stroke-linejoin="round" stroke-linecap="round" stroke="rgb(255,0,0)" stroke-width="3.749996" fill="none" d="M 223.214233 718.112244 L 224.732727 719.630676 " />
<path stroke-linejoin="round" stroke-linecap="round" stroke="rgb(0,0,255)" stroke-width="1.874998" fill="none" d="M 0.000000 750.000000 L 750.000000 625.000000 " />
<path stroke-linejoin="round" stroke-linecap="round" stroke="rgb(255,0,0)" stroke-width="3.749996" fill="none" d="M 218.658859 713.556824 L 223.214233 718.112244 " />
<path stroke-linejoin="round" stroke-linecap="round" stroke="rgb(0,0,255)" stroke-width="1.874998" fill="none" d="M 0.000000 750.000000 L 750.000000 617.647095 " />
<path stroke-linejoin="round" stroke-linecap="round" stroke="rgb(255,0,0)" stroke-width="3.749996" fill="none" d="M 216.836700 711.734741 L 218.658905 713.556824 " />
<path stroke-linejoin="round" stroke-linecap="round" stroke="rgb(0,0,255)" stroke-width="1.874998" fill="none" d="M 0.000000 750.000000 L 750.000000 590.909058 " />
<path stroke-linejoin="round" stroke-linecap="round" stroke="rgb(255,0,0)" stroke-width="3.749996" fill="none" d="M 210.459167 705.357117 L 216.836700 711.734741 " />
<path stroke-linejoin="round" stroke-linecap="round" stroke="rgb(0,0,255)" stroke-width="1.874998" fill="none" d="M 0.000000 750.000000 L 750.000000 562.500000 " />
<path stroke-linejoin="round" stroke-linecap="round" stroke="rgb(255,0,0)" stroke-width="3.749996" fill="none" d="M 204.081635 698.979614 L 210.459167 705.357117 " />
<path stroke-linejoin="round" stroke-linecap="round" stroke="rgb(0,0,255)" stroke-width="1.874998" fill="none" d="M 0.000000 750.000000 L 750.000000 545.454590 " />
<path stroke-linejoin="round" stroke-linecap="round" stroke="rgb(255,0,0)" stroke-width="3.749996" fill="none" d="M 200.437317 695.335266 L 204.081635 698.979614 " />
<path stroke-linejoin="round" stroke-linecap="round" stroke="rgb(0,0,255)" stroke-width="1.874998" fill="none" d="M 0.000000 750.000000 L 750.000000 532.258118 " />
<path stroke-linejoin="round" stroke-linecap="round" stroke="rgb(255,0,0)" stroke-width="3.749996" fill="none" d="M 197.704056 692.602051 L 200.437317 695.335266 " />
<path stroke-linejoin="round" stroke-linecap="round" stroke="rgb(0,0,255)" stroke-width="1.874998" fill="none" d="M 0.000000 750.000000 L 750.000000 515.625000 " />
<path stroke-linejoin="round" stroke-linecap="round" stroke="rgb(255,0,0)" stroke-width="3.749996" fill="none" d="M 194.363464 689.261414 L 197.704056 692.602051 " />
<path stroke-linejoin="round" stroke-linecap="round" stroke="rgb(0,0,255)" stroke-width="1.874998" fill="none" d="M 0.000000 750.000000 L 750.000000 499.999969 " />
<path stroke-linejoin="round" stroke-linecap="round" stroke="rgb(255,0,0)" stroke-width="3.749996" fill="none" d="M 191.326523 686.224487 L 194.363464 689.261414 " />
<path stroke-linejoin="round" stroke-linecap="round" stroke="rgb(0,0,255)" stroke-width="1.874998" fill="none" d="M 0.000000 750.000000 L 750.000000 465.517212 " />
<path stroke-linejoin="round" stroke-linecap="round" stroke="rgb(255,0,0)" stroke-width="3.749996" fill="none" d="M 184.948975 679.846924 L 191.326523 686.224487 " />
<path stroke-linejoin="round" stroke-linecap="round" stroke="rgb(0,0,255)" stroke-width="1.874998" fill="none" d="M 0.000000 750.000000 L 750.000000 450.000031 " />
<path stroke-linejoin="round" stroke-linecap="round" stroke="rgb(255,0,0)" stroke-width="3.749996" fill="none" d="M 182.215759 677.113708 L 184.948975 679.846924 " />
<path stroke-linejoin="round" stroke-linecap="round" stroke="rgb(0,0,255)" stroke-width="1.874998" fill="none" d="M 0.000000 750.000000 L 750.000000 428.571411 " />
<path stroke-linejoin="round" stroke-linecap="round" stroke="rgb(255,0,0)" stroke-width="3.749996" fill="none" d="M 178.571411 673.469421 L 182.215759 677.113708 " />
<path stroke-linejoin="round" stroke-linecap="round" stroke="rgb(0,0,255)" stroke-width="1.874998" fill="none" d="M 0.000000 750.000000 L 750.000000 388.888885 " />
<path stroke-linejoin="round" stroke-linecap="round" stroke="rgb(255,0,0)" stroke-width="3.749996" fill="none" d="M 172.193863 667.091858 L 178.571411 673.469421 " />
<path stroke-linejoin="round" stroke-linecap="round" stroke="rgb(0,0,255)" stroke-width="1.874998" fill="none" d="M 0.000000 750.000000 L 750.000000 375.000000 " />
<path stroke-linejoin="round" stroke-linecap="round" stroke="rgb(255,0,0)" stroke-width="3.749996" fill="none" d="M 170.068039 664.966003 L 172.193863 667.091858 " />
<path stroke-linejoin="round" stroke-linecap="round" stroke="rgb(0,0,255)" stroke-width="1.874998" fill="none" d="M 0.000000 750.000000 L 750.000000 333.333313 " />
<path stroke-linejoin="round" stroke-linecap="round" stroke="rgb(255,0,0)" stroke-width="3.749996" fill="none" d="M 163.994171 658.892151 L 170.068039 664.966003 " />
<path stroke-linejoin="round" stroke-linecap="round" stroke="rgb(0,0,255)" stroke-width="1.874998" fill="none" d="M 0.000000 750.000000 L 750.000000 288.461517 " />
<path stroke-linejoin="round" stroke-linecap="round" stroke="rgb(255,0,0)" stroke-width="3.749996" fill="none" d="M 157.920303 652.818298 L 163.994171 658.892151 " />
<path stroke-linejoin="round" stroke-linecap="round" stroke="rgb(0,0,255)" stroke-width="1.874998" fill="none" d="M 0.000000 750.000000 L 750.000000 240.000000 " />
<path stroke-linejoin="round" stroke-linecap="round" stroke="rgb(255,0,0)" stroke-width="3.749996" fill="none" d="M 151.846451 646.744446 L 157.920303 652.818298 " />
<path stroke-linejoin="round" stroke-linecap="round" stroke="rgb(0,0,255)" stroke-width="1.874998" fill="none" d="M 0.000000 750.000000 L 750.000000 230.769211 " />
<path stroke-linejoin="round" stroke-linecap="round" stroke="rgb(255,0,0)" stroke-width="3.749996" fill="none" d="M 150.742096 645.640076 L 151.846420 646.744446 " />
<path stroke-linejoin="round" stroke-linecap="round" stroke="rgb(0,0,255)" stroke-width="1.874998" fill="none" d="M 0.000000 750.000000 L 750.000000 187.500000 " />
<path stroke-linejoin="round" stroke-linecap="round" stroke="rgb(255,0,0)" stroke-width="3.749996" fill="none" d="M 145.772568 640.670593 L 150.742065 645.640076 " />
<path stroke-linejoin="round" stroke-linecap="round" stroke="rgb(0,0,255)" stroke-width="1.874998" fill="none" d="M 0.000000 750.000000 L 750.000000 130.434799 " />
<path stroke-linejoin="round" stroke-linecap="round" stroke="rgb(255,0,0)" stroke-width="3.749996" fill="none" d="M 139.698700 634.596680 L 145.772568 640.670593 " />
<path stroke-linejoin="round" stroke-linecap="round" stroke="rgb(0,0,255)" stroke-width="1.874998" fill="none" d="M 0.000000 750.000000 L 750.000000 125.000015 " />
<path stroke-linejoin="round" stroke-linecap="round" stroke="rgb(255,0,0)" stroke-width="3.749996" fill="none" d="M 139.146545 634.044556 L 139.698700 634.596680 " />
<path stroke-linejoin="round" stroke-linecap="round" stroke="rgb(0,0,255)" stroke-width="1.874998" fill="none" d="M 0.000000 750.000000 L 750.000000 68.181801 " />
<path stroke-linejoin="round" stroke-linecap="round" stroke="rgb(255,0,0)" stroke-width="3.749996" fill="none" d="M 133.624832 628.522827 L 139.146545 634.044556 " />
<path stroke-linejoin="round" stroke-linecap="round" stroke="rgb(0,0,255)" stroke-width="1.874998" fill="none" d="M 0.000000 750.000000 L 750.000000 0.000000 " />
<path stroke-linejoin="round" stroke-linecap="round" stroke="rgb(255,0,0)" stroke-width="3.749996" fill="none" d="M 127.550995 622.448975 L 133.624832 628.522827 " />
<path stroke-linejoin="round" stroke-linecap="round" stroke="rgb(0,0,255)" stroke-width="1.874998" fill="none" d="M 0.000000 750.000000 L 684.782654 0.000000 " />
<path stroke-linejoin="round" stroke-linecap="round" stroke="rgb(255,0,0)" stroke-width="3.749996" fill="none" d="M 123.046875 615.234375 L 127.550995 622.448975 " />
<path stroke-linejoin="round" stroke-linecap="round" stroke="rgb(0,0,255)" stroke-width="1.874998" fill="none" d="M 0.000000 750.000000 L 625.000000 0.000000 " />
<path stroke-linejoin="round" stroke-linecap="round" stroke="rgb(255,0,0)" stroke-width="3.749996" fill="none" d="M 120.967735 604.838684 L 123.046875 615.234375 " />
<path stroke-linejoin="round" stroke-linecap="round" stroke="rgb(0,0,255)" stroke-width="1.874998" fill="none" d="M 0.000000 750.000000 L 570.000000 0.000000 " />
<path stroke-linejoin="round" stroke-linecap="round" stroke="rgb(255,0,0)" stroke-width="3.749996" fill="none" d="M 118.750000 593.750000 L 120.967735 604.838684 " />
<path stroke-linejoin="round" stroke-linecap="round" stroke="rgb(0,0,255)" stroke-width="1.874998" fill="none" d="M 0.000000 750.000000 L 527.777832 0.000000 " />
<path stroke-linejoin="round" stroke-linecap="round" stroke="rgb(255,0,0)" stroke-width="3.749996" fill="none" d="M 116.803276 584.016418 L 118.750000 593.750000 " />
<path stroke-linejoin="round" stroke-linecap="round" stroke="rgb(0,0,255)" stroke-width="1.874998" fill="none" d="M 0.000000 750.000000 L 482.142853 0.000000 " />
<path stroke-linejoin="round" stroke-linecap="round" stroke="rgb(255,0,0)" stroke-width="3.749996" fill="none" d="M 114.406784 572.033936 L 116.803276 584.016418 " />
<path stroke-linejoin="round" stroke-linecap="round" stroke="rgb(0,0,255)" stroke-width="1.874998" fill="none" d="M 0.000000 750.000000 L 439.655182 0.000000 " />
<path stroke-linejoin="round" stroke-linecap="round" stroke="rgb(255,0,0)" stroke-width="3.749996" fill="none" d="M 111.842125 559.210510 L 114.406784 572.033875 " />
<path stroke-linejoin="round" stroke-linecap="round" stroke="rgb(0,0,255)" stroke-width="1.874998" fill="none" d="M 0.000000 750.000000 L 411.290344 0.000000 " />
<path stroke-linejoin="round" stroke-linecap="round" stroke="rgb(255,0,0)" stroke-width="3.749996" fill="none" d="M 109.913795 549.568970 L 111.842102 559.210510 " />
<path stroke-linejoin="round" stroke-linecap="round" stroke="rgb(0,0,255)" stroke-width="1.874998" fill="none" d="M 0.000000 750.000000 L 386.363617 0.000000 " />
<path stroke-linejoin="round" stroke-linecap="round" stroke="rgb(255,0,0)" stroke-width="3.749996" fill="none" d="M 108.050842 540.254272 L 109.913795 549.568970 " />
<path stroke-linejoin="round" stroke-linecap="round" stroke="rgb(0,0,255)" stroke-width="1.874998" fill="none" d="M 0.000000 750.000000 L 364.285706 0.000000 " />
<path stroke-linejoin="round" stroke-linecap="round" stroke="rgb(255,0,0)" stroke-width="3.749996" fill="none" d="M 106.249985 531.250000 L 108.050842 540.254272 " />
<path stroke-linejoin="round" stroke-linecap="round" stroke="rgb(0,0,255)" stroke-width="1.874998" fill="none" d="M 0.000000 750.000000 L 333.333344 0.000000 " />
<path stroke-linejoin="round" stroke-linecap="round" stroke="rgb(255,0,0)" stroke-width="3.749996" fill="none" d="M 103.448265 517.241394 L 106.249985 531.250000 " />
<path stroke-linejoin="round" stroke-linecap="round" stroke="rgb(0,0,255)" stroke-width="1.874998" fill="none" d="M 0.000000 750.000000 L 304.054047 0.000000 " />
<path stroke-linejoin="round" stroke-linecap="round" stroke="rgb(255,0,0)" stroke-width="3.749996" fill="none" d="M 100.446426 502.232147 L 103.448265 517.241394 " />
<path stroke-linejoin="round" stroke-linecap="round" stroke="rgb(0,0,255)" stroke-width="1.874998" fill="none" d="M 0.000000 750.000000 L 288.461548 0.000000 " />
<path stroke-linejoin="round" stroke-linecap="round" stroke="rgb(255,0,0)" stroke-width="3.749996" fill="none" d="M 98.684189 493.421082 L 100.446426 502.232147 " />
<path stroke-linejoin="round" stroke-linecap="round" stroke="rgb(0,0,255)" stroke-width="1.874998" fill="none" d="M 0.000000 750.000000 L 274.390259 0.000000 " />
<path stroke-linejoin="round" stroke-linecap="round" stroke="rgb(255,0,0)" stroke-width="3.749996" fill="none" d="M 96.982758 484.913849 L 98.684189 493.421082 " />
<path stroke-linejoin="round" stroke-linecap="round" stroke="rgb(0,0,255)" stroke-width="1.874998" fill="none" d="M 0.000000 750.000000 L 261.627930 0.000000 " />
<path stroke-linejoin="round" stroke-linecap="round" stroke="rgb(255,0,0)" stroke-width="3.749996" fill="none" d="M 95.338966 476.694977 L 96.982758 484.913849 " />
<path stroke-linejoin="round" stroke-linecap="round" stroke="rgb(0,0,255)" stroke-width="1.874998" fill="none" d="M 0.000000 750.000000 L 250.000000 0.000000 " />
<path stroke-linejoin="round" stroke-linecap="round" stroke="rgb(255,0,0)" stroke-width="3.749996" fill="none" d="M 93.750000 468.750031 L 95.338966 476.694977 " />
<path stroke-linejoin="round" stroke-linecap="round" stroke="rgb(0,0,255)" stroke-width="1.874998" fill="none" d="M 0.000000 750.000000 L 237.804871 0.000000 " />
<path stroke-linejoin="round" stroke-linecap="round" stroke="rgb(255,0,0)" stroke-width="3.749996" fill="none" d="M 91.981125 459.905670 L 93.750000 468.750031 " />
<path stroke-linejoin="round" stroke-linecap="round" stroke="rgb(0,0,255)" stroke-width="1.874998" fill="none" d="M 0.000000 750.000000 L 214.285721 0.000000 " />
<path stroke-linejoin="round" stroke-linecap="round" stroke="rgb(255,0,0)" stroke-width="3.749996" fill="none" d="M 88.235291 441.176483 L 91.981125 459.905670 " />
<path stroke-linejoin="round" stroke-linecap="round" stroke="rgb(0,0,255)" stroke-width="1.874998" fill="none" d="M 0.000000 750.000000 L 191.860474 0.000000 " />
<path stroke-linejoin="round" stroke-linecap="round" stroke="rgb(255,0,0)" stroke-width="3.749996" fill="none" d="M 84.183655 420.918396 L 88.235291 441.176483 " />
<path stroke-linejoin="round" stroke-linecap="round" stroke="rgb(0,0,255)" stroke-width="1.874998" fill="none" d="M 0.000000 750.000000 L 183.333328 0.000000 " />
<path stroke-linejoin="round" stroke-linecap="round" stroke="rgb(255,0,0)" stroke-width="3.749996" fill="none" d="M 82.499985 412.500061 L 84.183655 420.918396 " />
<path stroke-linejoin="round" stroke-linecap="round" stroke="rgb(0,0,255)" stroke-width="1.874998" fill="none" d="M 0.000000 750.000000 L 163.043488 0.000000 " />
<path stroke-linejoin="round" stroke-linecap="round" stroke="rgb(255,0,0)" stroke-width="3.749996" fill="none" d="M 78.124992 390.625061 L 82.499985 412.500061 " />
<path stroke-linejoin="round" stroke-linecap="round" stroke="rgb(0,0,255)" stroke-width="1.874998" fill="none" d="M 0.000000 750.000000 L 143.617004 0.000000 " />
<path stroke-linejoin="round" stroke-linecap="round" stroke="rgb(255,0,0)" stroke-width="3.749996" fill="none" d="M 73.369545 366.847900 L 78.124992 390.625061 " />
<path stroke-linejoin="round" stroke-linecap="round" stroke="rgb(0,0,255)" stroke-width="1.874998" fill="none" d="M 0.000000 750.000000 L 137.755081 0.000000 " />
<path stroke-linejoin="round" stroke-linecap="round" stroke="rgb(255,0,0)" stroke-width="3.749996" fill="none" d="M 71.808502 359.042633 L 73.369545 366.847900 " />
<path stroke-linejoin="round" stroke-linecap="round" stroke="rgb(0,0,255)" stroke-width="1.874998" fill="none" d="M 0.000000 750.000000 L 132.352936 0.000000 " />
<path stroke-linejoin="round" stroke-linecap="round" stroke="rgb(255,0,0)" stroke-width="3.749996" fill="none" d="M 70.312500 351.562561 L 71.808502 359.042572 " />
<path stroke-linejoin="round" stroke-linecap="round" stroke="rgb(0,0,255)" stroke-width="1.874998" fill="none" d="M 0.000000 750.000000 L 115.384605 0.000000 " />
<path stroke-linejoin="round" stroke-linecap="round" stroke="rgb(255,0,0)" stroke-width="3.749996" fill="none" d="M 65.217377 326.087006 L 70.312500 351.562561 " />
<path stroke-linejoin="round" stroke-linecap="round" stroke="rgb(0,0,255)" stroke-width="1.874998" fill="none" d="M 0.000000 750.000000 L 111.111115 0.000000 " />
<path stroke-linejoin="round" stroke-linecap="round" stroke="rgb(255,0,0)" stroke-width="3.749996" fill="none" d="M 63.829781 319.148987 L 65.217377 326.087006 " />
<path stroke-linejoin="round" stroke-linecap="round" stroke="rgb(0,0,255)" stroke-width="1.874998" fill="none" d="M 0.000000 750.000000 L 107.142853 0.000000 " />
<path stroke-linejoin="round" stroke-linecap="round" stroke="rgb(255,0,0)" stroke-width="3.749996" fill="none" d="M 62.499985 312.500061 L 63.829781 319.148987 " />
<path stroke-linejoin="round" stroke-linecap="round" stroke="rgb(0,0,255)" stroke-width="1.874998" fill="none" d="M 0.000000 750.000000 L 102.272720 0.000000 " />
<path stroke-linejoin="round" stroke-linecap="round" stroke="rgb(255,0,0)" stroke-width="3.749996" fill="none" d="M 60.810799 304.054077 L 62.499985 312.500061 " />
<path stroke-linejoin="round" stroke-linecap="round" stroke="rgb(0,0,255)" stroke-width="1.874998" fill="none" d="M 0.000000 750.000000 L 92.105270 0.000000 " />
<path stroke-linejoin="round" stroke-linecap="round" stroke="rgb(255,0,0)" stroke-width="3.749996" fill="none" d="M 57.065205 285.326141 L 60.810799 304.054077 " />
<path stroke-linejoin="round" stroke-linecap="round" stroke="rgb(0,0,255)" stroke-width="1.874998" fill="none" d="M 0.000000 750.000000 L 77.586205 0.000000 " />
<path stroke-linejoin="round" stroke-linecap="round" stroke="rgb(255,0,0)" stroke-width="3.749996" fill="none" d="M 51.136360 255.681885 L 57.065205 285.326141 " />
<path stroke-linejoin="round" stroke-linecap="round" stroke="rgb(0,0,255)" stroke-width="1.874998" fill="none" d="M 0.000000 750.000000 L 63.559322 0.000000 " />
<path stroke-linejoin="round" stroke-linecap="round" stroke="rgb(255,0,0)" stroke-width="3.749996" fill="none" d="M 44.642864 223.214325 L 51.136360 255.681885 " />
<path stroke-linejoin="round" stroke-linecap="round" stroke="rgb(0,0,255)" stroke-width="1.874998" fill="none" d="M 0.000000 750.000000 L 49.999996 0.000000 " />
<path stroke-linejoin="round" stroke-linecap="round" stroke="rgb(255,0,0)" stroke-width="3.749996" fill="none" d="M 37.499985 187.500137 L 44.642864 223.214325 " />
<path stroke-linejoin="round" stroke-linecap="round" stroke="rgb(0,0,255)" stroke-width="1.874998" fill="none" d="M 0.000000 750.000000 L 42.253510 0.000000 " />
<path stroke-linejoin="round" stroke-linecap="round" stroke="rgb(255,0,0)" stroke-width="3.749996" fill="none" d="M 32.967030 164.835266 L 37.499985 187.500137 " />
<path stroke-linejoin="round" stroke-linecap="round" stroke="rgb(0,0,255)" stroke-width="1.874998" fill="none" d="M 0.000000 750.000000 L 41.666664 0.000000 " />
<path stroke-linejoin="round" stroke-linecap="round" stroke="rgb(255,0,0)" stroke-width="3.749996" fill="none" d="M 32.608688 163.043549 L 32.967030 164.835266 " />
<path stroke-linejoin="round" stroke-linecap="round" stroke="rgb(0,0,255)" stroke-width="1.874998" fill="none" d="M 0.000000 750.000000 L 37.037037 0.000000 " />
<path stroke-linejoin="round" stroke-linecap="round" stroke="rgb(255,0,0)" stroke-width="3.749996" fill="none" d="M 29.702961 148.514923 L 32.608688 163.043549 " />
<path stroke-linejoin="round" stroke-linecap="round" stroke="rgb(0,0,255)" stroke-width="1.874998" fill="none" d="M 0.000000 750.000000 L 36.144577 0.000000 " />
<path stroke-linejoin="round" stroke-linecap="round" stroke="rgb(255,0,0)" stroke-width="3.749996" fill="none" d="M 29.126219 145.631073 L 29.702961 148.514923 " />
<path stroke-linejoin="round" stroke-linecap="round" stroke="rgb(0,0,255)" stroke-width="1.874998" fill="none" d="M 0.000000 750.000000 L 35.294117 0.000000 " />
<path stroke-linejoin="round" stroke-linecap="round" stroke="rgb(255,0,0)" stroke-width="3.749996" fill="none" d="M 28.571426 142.857132 L 29.126219 145.631073 " />
<path stroke-linejoin="round" stroke-linecap="round" stroke="rgb(0,0,255)" stroke-width="1.874998" fill="none" d="M 0.000000 750.000000 L 23.936167 0.000000 " />
<path stroke-linejoin="round" stroke-linecap="round" stroke="rgb(255,0,0)" stroke-width="3.749996" fill="none" d="M 20.642191 103.211113 L 28.571426 142.857132 " />
<path stroke-linejoin="round" stroke-linecap="round" stroke="rgb(0,0,255)" stroke-width="1.874998" fill="none" d="M 0.000000 750.000000 L 17.647058 0.000000 " />
<path stroke-linejoin="round" stroke-linecap="round" stroke="rgb(255,0,0)" stroke-width="3.749996" fill="none" d="M 15.789472 78.947495 L 20.642191 103.211159 " />
<path stroke-linejoin="round" stroke-linecap="round" stroke="rgb(0,0,255)" stroke-width="1.874998" fill="none" d="M 0.000000 750.000000 L 7.894747 0.000000 " />
<path stroke-linejoin="round" stroke-linecap="round" stroke="rgb(255,0,0)" stroke-width="3.749996" fill="none" d="M 7.499993 37.500076 L 15.789472 78.947495 " />
<path stroke-linejoin="round" stroke-linecap="round" stroke="rgb(0,0,255)" stroke-width="1.874998" fill="none" d="M 0.000000 750.000000 L 0.000000 0.000000 " />
<path stroke-linejoin="round" stroke-linecap="round" stroke="rgb(255,0,0)" stroke-width="3.749996" fill="none" d="M 0.000000 0.000000 L 7.499993 37.500145 " />
<circle cx="248.724472" cy="743.622445" r="3.749996" style="fill:rgb(0,127,0);stroke-width:1" /><circle cx="242.954347" cy="737.852275" r="3.749996" style="fill:rgb(0,127,0);stroke-width:1" /><circle cx="242.346961" cy="737.244889" r="3.749996" style="fill:rgb(0,127,0);stroke-width:1" /><circle cx="235.969428" cy="730.867356" r="3.749996" style="fill:rgb(0,127,0);stroke-width:1" /><circle cx="229.591828" cy="724.489801" r="3.749996" style="fill:rgb(0,127,0);stroke-width:1" /><circle cx="224.732738" cy="719.630711" r="3.749996" style="fill:rgb(0,127,0);stroke-width:1" /><circle cx="223.214250" cy="718.112245" r="3.749996" style="fill:rgb(0,127,0);stroke-width:1" /><circle cx="218.658876" cy="713.556848" r="3.749996" style="fill:rgb(0,127,0);stroke-width:1" /><circle cx="216.836717" cy="711.734690" r="3.749996" style="fill:rgb(0,127,0);stroke-width:1" /><circle cx="210.459173" cy="705.357134" r="3.749996" style="fill:rgb(0,127,0);stroke-width:1" /><circle cx="204.081628" cy="698.979601" r="3.749996" style="fill:rgb(0,127,0);stroke-width:1" /><circle cx="200.437322" cy="695.335284" r="3.749996" style="fill:rgb(0,127,0);stroke-width:1" /><circle cx="197.704073" cy="692.602046" r="3.749996" style="fill:rgb(0,127,0);stroke-width:1" /><circle cx="194.363460" cy="689.261422" r="3.749996" style="fill:rgb(0,127,0);stroke-width:1" /><circle cx="191.326518" cy="686.224490" r="3.749996" style="fill:rgb(0,127,0);stroke-width:1" /><circle cx="184.948973" cy="679.846935" r="3.749996" style="fill:rgb(0,127,0);stroke-width:1" /><circle cx="182.215758" cy="677.113697" r="3.749996" style="fill:rgb(0,127,0);stroke-width:1" /><circle cx="178.571418" cy="673.469402" r="3.749996" style="fill:rgb(0,127,0);stroke-width:1" /><circle cx="172.193862" cy="667.091846" r="3.749996" style="fill:rgb(0,127,0);stroke-width:1" /><circle cx="170.068033" cy="664.965995" r="3.749996" style="fill:rgb(0,127,0);stroke-width:1" /><circle cx="163.994171" cy="658.892132" r="3.749996" style="fill:rgb(0,127,0);stroke-width:1" /><circle cx="157.920308" cy="652.818270" r="3.749996" style="fill:rgb(0,127,0);stroke-width:1" /><circle cx="151.846446" cy="646.744430" r="3.749996" style="fill:rgb(0,127,0);stroke-width:1" /><circle cx="150.742091" cy="645.640098" r="3.749996" style="fill:rgb(0,127,0);stroke-width:1" /><circle cx="145.772561" cy="640.670590" r="3.749996" style="fill:rgb(0,127,0);stroke-width:1" /><circle cx="139.698699" cy="634.596728" r="3.749996" style="fill:rgb(0,127,0);stroke-width:1" /><circle cx="139.146544" cy="634.044550" r="3.749996" style="fill:rgb(0,127,0);stroke-width:1" /><circle cx="133.624837" cy="628.522865" r="3.749996" style="fill:rgb(0,127,0);stroke-width:1" /><circle cx="127.550997" cy="622.449003" r="3.749996" style="fill:rgb(0,127,0);stroke-width:1" /><circle cx="123.046875" cy="615.234353" r="3.749996" style="fill:rgb(0,127,0);stroke-width:1" /><circle cx="120.967738" cy="604.838692" r="3.749996" style="fill:rgb(0,127,0);stroke-width:1" /><circle cx="118.749999" cy="593.749993" r="3.749996" style="fill:rgb(0,127,0);stroke-width:1" /><circle cx="116.803274" cy="584.016390" r="3.749996" style="fill:rgb(0,127,0);stroke-width:1" /><circle cx="114.406787" cy="572.033890" r="3.749996" style="fill:rgb(0,127,0);stroke-width:1" /><circle cx="111.842126" cy="559.210517" r="3.749996" style="fill:rgb(0,127,0);stroke-width:1" /><circle cx="109.913796" cy="549.568981" r="3.749996" style="fill:rgb(0,127,0);stroke-width:1" /><circle cx="108.050846" cy="540.254261" r="3.749996" style="fill:rgb(0,127,0);stroke-width:1" /><circle cx="106.249988" cy="531.250019" r="3.749996" style="fill:rgb(0,127,0);stroke-width:1" /><circle cx="103.448264" cy="517.241400" r="3.749996" style="fill:rgb(0,127,0);stroke-width:1" /><circle cx="100.446425" cy="502.232160" r="3.749996" style="fill:rgb(0,127,0);stroke-width:1" /><circle cx="98.684192" cy="493.421081" r="3.749996" style="fill:rgb(0,127,0);stroke-width:1" /><circle cx="96.982755" cy="484.913830" r="3.749996" style="fill:rgb(0,127,0);stroke-width:1" /><circle cx="95.338963" cy="476.694971" r="3.749996" style="fill:rgb(0,127,0);stroke-width:1" /><circle cx="93.750000" cy="468.750034" r="3.749996" style="fill:rgb(0,127,0);stroke-width:1" /><circle cx="91.981128" cy="459.905684" r="3.749996" style="fill:rgb(0,127,0);stroke-width:1" /><circle cx="88.235289" cy="441.176506" r="3.749996" style="fill:rgb(0,127,0);stroke-width:1" /><circle cx="84.183656" cy="420.918404" r="3.749996" style="fill:rgb(0,127,0);stroke-width:1" /><circle cx="82.499988" cy="412.500054" r="3.749996" style="fill:rgb(0,127,0);stroke-width:1" /><circle cx="78.124993" cy="390.625090" r="3.749996" style="fill:rgb(0,127,0);stroke-width:1" /><circle cx="73.369548" cy="366.847903" r="3.749996" style="fill:rgb(0,127,0);stroke-width:1" /><circle cx="71.808502" cy="359.042615" r="3.749996" style="fill:rgb(0,127,0);stroke-width:1" /><circle cx="70.312500" cy="351.562560" r="3.749996" style="fill:rgb(0,127,0);stroke-width:1" /><circle cx="65.217376" cy="326.086996" r="3.749996" style="fill:rgb(0,127,0);stroke-width:1" /><circle cx="63.829780" cy="319.148988" r="3.749996" style="fill:rgb(0,127,0);stroke-width:1" /><circle cx="62.499985" cy="312.500060" r="3.749996" style="fill:rgb(0,127,0);stroke-width:1" /><circle cx="60.810797" cy="304.054080" r="3.749996" style="fill:rgb(0,127,0);stroke-width:1" /><circle cx="57.065204" cy="285.326125" r="3.749996" style="fill:rgb(0,127,0);stroke-width:1" /><circle cx="51.136360" cy="255.681876" r="3.749996" style="fill:rgb(0,127,0);stroke-width:1" /><circle cx="44.642866" cy="223.214328" r="3.749996" style="fill:rgb(0,127,0);stroke-width:1" /><circle cx="37.499987" cy="187.500112" r="3.749996" style="fill:rgb(0,127,0);stroke-width:1" /><circle cx="32.967031" cy="164.835267" r="3.749996" style="fill:rgb(0,127,0);stroke-width:1" /><circle cx="32.608688" cy="163.043551" r="3.749996" style="fill:rgb(0,127,0);stroke-width:1" /><circle cx="29.702961" cy="148.514919" r="3.749996" style="fill:rgb(0,127,0);stroke-width:1" /><circle cx="29.126219" cy="145.631075" r="3.749996" style="fill:rgb(0,127,0);stroke-width:1" /><circle cx="28.571427" cy="142.857134" r="3.749996" style="fill:rgb(0,127,0);stroke-width:1" /><circle cx="20.642191" cy="103.211112" r="3.749996" style="fill:rgb(0,127,0);stroke-width:1" /><circle cx="15.789472" cy="78.947492" r="3.749996" style="fill:rgb(0,127,0);stroke-width:1" /><circle cx="7.499993" cy="37.500076" r="3.749996" style="fill:rgb(0,127,0);stroke-width:1" /><circle cx="750.000000" cy="750.000000" r="3.749996" style="fill:rgb(0,127,0);stroke-width:1" /><path stroke-linejoin="round" stroke-linecap="round" stroke="rgb(255,255,255)" stroke-width="3.749996" fill="none" d="M 0.000000 750.000000 L 750.000000 750.000000 M 0.000000 750.000000 L 0.000000 0.000000 " />

</svg>