<svg xmlns="http://www.w3.org/2000/svg" version="1.1" width = "750" height = "750" viewBox = "0 0 750 750"  shape-rendering="crispEdges">
<path stroke-linejoin="round" stroke-linecap="round" stroke="rgb(255,255,0)" stroke-width="3.749996" fill="none" d="M 149.999985 750.000000 L 0.000000 0.000000 " />
<path stroke-linejoin="round" stroke-linecap="round" stroke="rgb(63,63,63)" stroke-width="3.749996" fill="none" d="M 0.000000 0.000000 L 750.000000 750.000000 M 149.999985 750.000000 L 66.666664 0.000000 " />
<path stroke-linejoin="round" stroke-linecap="round" stroke="rgb(191,191,191)" stroke-width="3.749996" fill="none" d="M 0.000000 600.000000 L 149.999985 750.000000 M 0.000000 0.000000 L 83.333328 750.000000 " />
<path stroke-linejoin="round" stroke-linecap="round" stroke="rgb(0,0,255)" stroke-width="1.874998" fill="none" d="M 0.000000 750.000000 L 750.000000 731.250000 " />
<path stroke-linejoin="round" stroke-linecap="round" stroke="rgb(255,0,0)" stroke-width="3.749996" fill="none" d="M 149.584488 746.260376 L 149.999985 750.000000 " />
<path stroke-linejoin="round" stroke-linecap="round" stroke="rgb(0,0,255)" stroke-width="1.874998" fill="none" d="M 0.000000 750.000000 L 750.000000 713.414612 " />
<path stroke-linejoin="round" stroke-linecap="round" stroke="rgb(255,0,0)" stroke-width="3.749996" fill="none" d="M 148.417740 742.760071 L 149.584473 746.260376 " />
<path stroke-linejoin="round" stroke-linecap="round" stroke="rgb(0,0,255)" stroke-width="1.874998" fill="none" d="M 0.000000 750.000000 L 750.000000 693.750000 " />
<path stroke-linejoin="round" stroke-linecap="round" stroke="rgb(255,0,0)" stroke-width="3.749996" fill="none" d="M 147.152222 738.963623 L 148.417740 742.760071 " />
<path stroke-linejoin="round" stroke-linecap="round" stroke="rgb(0,0,255)" stroke-width="1.874998" fill="none" d="M 0.000000 750.000000 L 750.000000 512.195129 " />
<path stroke-linejoin="round" stroke-linecap="round" stroke="rgb(255,0,0)" stroke-width="3.749996" fill="none" d="M 142.283920 704.885620 L 147.152222 738.963623 " />
<path stroke-linejoin="round" stroke-linecap="round" stroke="rgb(0,0,255)" stroke-width="1.874998" fill="none" d="M 0.000000 750.000000 L 750.000000 405.405426 " />
<path stroke-linejoin="round" stroke-linecap="round" stroke="rgb(255,0,0)" stroke-width="3.749996" fill="none" d="M 139.568008 685.874146 L 142.283920 704.885620 " />
<path stroke-linejoin="round" stroke-linecap="round" stroke="rgb(0,0,255)" stroke-width="1.874998" fill="none" d="M 0.000000 750.000000 L 750.000000 394.736847 " />
<path stroke-linejoin="round" stroke-linecap="round" stroke="rgb(255,0,0)" stroke-width="3.749996" fill="none" d="M 138.996475 684.159546 L 139.567993 685.874207 " />
<path stroke-linejoin="round" stroke-linecap="round" stroke="rgb(0,0,255)" stroke-width="1.874998" fill="none" d="M 0.000000 750.000000 L 750.000000 387.931030 " />
<path stroke-linejoin="round" stroke-linecap="round" stroke="rgb(255,0,0)" stroke-width="3.749996" fill="none" d="M 138.634308 683.073059 L 138.996475 684.159546 " />
<path stroke-linejoin="round" stroke-linecap="round" stroke="rgb(0,0,255)" stroke-width="1.874998" fill="none" d="M 0.000000 750.000000 L 750.000000 348.214294 " />
<path stroke-linejoin="round" stroke-linecap="round" stroke="rgb(255,0,0)" stroke-width="3.749996" fill="none" d="M 136.557938 676.843933 L 138.634308 683.073059 " />
<path stroke-linejoin="round" stroke-linecap="round" stroke="rgb(0,0,255)" stroke-width="1.874998" fill="none" d="M 0.000000 750.000000 L 750.000000 305.555542 " />
<path stroke-linejoin="round" stroke-linecap="round" stroke="rgb(255,0,0)" stroke-width="3.749996" fill="none" d="M 134.395920 670.357971 L 136.557938 676.843933 " />
<path stroke-linejoin="round" stroke-linecap="round" stroke="rgb(0,0,255)" stroke-width="1.874998" fill="none" d="M 0.000000 750.000000 L 750.000000 259.615387 " />
<path stroke-linejoin="round" stroke-linecap="round" stroke="rgb(255,0,0)" stroke-width="3.749996" fill="none" d="M 132.142914 663.598877 L 134.395920 670.357971 " />
<path stroke-linejoin="round" stroke-linecap="round" stroke="rgb(0,0,255)" stroke-width="1.874998" fill="none" d="M 0.000000 750.000000 L 750.000000 209.999985 " />
<path stroke-linejoin="round" stroke-linecap="round" stroke="rgb(255,0,0)" stroke-width="3.749996" fill="none" d="M 129.792969 656.549072 L 132.142914 663.598877 " />
<path stroke-linejoin="round" stroke-linecap="round" stroke="rgb(0,0,255)" stroke-width="1.874998" fill="none" d="M 0.000000 750.000000 L 750.000000 156.249985 " />
<path stroke-linejoin="round" stroke-linecap="round" stroke="rgb(255,0,0)" stroke-width="3.749996" fill="none" d="M 127.339752 649.189331 L 129.792969 656.549072 " />
<path stroke-linejoin="round" stroke-linecap="round" stroke="rgb(0,0,255)" stroke-width="1.874998" fill="none" d="M 0.000000 750.000000 L 750.000000 97.826111 " />
<path stroke-linejoin="round" stroke-linecap="round" stroke="rgb(255,0,0)" stroke-width="3.749996" fill="none" d="M 124.776253 641.498901 L 127.339752 649.189331 " />
<path stroke-linejoin="round" stroke-linecap="round" stroke="rgb(0,0,255)" stroke-width="1.874998" fill="none" d="M 0.000000 750.000000 L 750.000000 93.750000 " />
<path stroke-linejoin="round" stroke-linecap="round" stroke="rgb(255,0,0)" stroke-width="3.749996" fill="none" d="M 124.601257 640.973938 L 124.776253 641.498901 " />
<path stroke-linejoin="round" stroke-linecap="round" stroke="rgb(0,0,255)" stroke-width="1.874998" fill="none" d="M 0.000000 750.000000 L 750.000000 34.090919 " />
<path stroke-linejoin="round" stroke-linecap="round" stroke="rgb(255,0,0)" stroke-width="3.749996" fill="none" d="M 122.094917 633.454895 L 124.601257 640.973938 " />
<path stroke-linejoin="round" stroke-linecap="round" stroke="rgb(0,0,255)" stroke-width="1.874998" fill="none" d="M 0.000000 750.000000 L 750.000000 32.608688 " />
<path stroke-linejoin="round" stroke-linecap="round" stroke="rgb(255,0,0)" stroke-width="3.749996" fill="none" d="M 122.033936 633.271851 L 122.094917 633.454895 " />
<path stroke-linejoin="round" stroke-linecap="round" stroke="rgb(0,0,255)" stroke-width="1.874998" fill="none" d="M 0.000000 750.000000 L 717.391296 0.000000 " />
<path stroke-linejoin="round" stroke-linecap="round" stroke="rgb(255,0,0)" stroke-width="3.749996" fill="none" d="M 119.351196 625.223755 L 122.033936 633.271851 " />
<path stroke-linejoin="round" stroke-linecap="round" stroke="rgb(0,0,255)" stroke-width="1.874998" fill="none" d="M 0.000000 750.000000 L 660.000000 0.000000 " />
<path stroke-linejoin="round" stroke-linecap="round" stroke="rgb(255,0,0)" stroke-width="3.749996" fill="none" d="M 116.728104 617.354431 L 119.351196 625.223755 " />
<path stroke-linejoin="round" stroke-linecap="round" stroke="rgb(0,0,255)" stroke-width="1.874998" fill="none" d="M 0.000000 750.000000 L 656.249939 0.000000 " />
<path stroke-linejoin="round" stroke-linecap="round" stroke="rgb(255,0,0)" stroke-width="3.749996" fill="none" d="M 116.545158 616.805542 L 116.728104 617.354431 " />
<path stroke-linejoin="round" stroke-linecap="round" stroke="rgb(0,0,255)" stroke-width="1.874998" fill="none" d="M 0.000000 750.000000 L 605.769226 0.000000 " />
<path stroke-linejoin="round" stroke-linecap="round" stroke="rgb(255,0,0)" stroke-width="3.749996" fill="none" d="M 113.926155 608.948547 L 116.545158 616.805542 " />
<path stroke-linejoin="round" stroke-linecap="round" stroke="rgb(0,0,255)" stroke-width="1.874998" fill="none" d="M 0.000000 750.000000 L 555.555542 0.000000 " />
<path stroke-linejoin="round" stroke-linecap="round" stroke="rgb(255,0,0)" stroke-width="3.749996" fill="none" d="M 110.995377 600.156250 L 113.926155 608.948547 " />
<path stroke-linejoin="round" stroke-linecap="round" stroke="rgb(0,0,255)" stroke-width="1.874998" fill="none" d="M 0.000000 750.000000 L 508.928589 0.000000 " />
<path stroke-linejoin="round" stroke-linecap="round" stroke="rgb(255,0,0)" stroke-width="3.749996" fill="none" d="M 107.926682 590.950195 L 110.995377 600.156250 " />
<path stroke-linejoin="round" stroke-linecap="round" stroke="rgb(0,0,255)" stroke-width="1.874998" fill="none" d="M 0.000000 750.000000 L 465.517212 0.000000 " />
<path stroke-linejoin="round" stroke-linecap="round" stroke="rgb(255,0,0)" stroke-width="3.749996" fill="none" d="M 104.710091 581.300415 L 107.926682 590.950195 " />
<path stroke-linejoin="round" stroke-linecap="round" stroke="rgb(0,0,255)" stroke-width="1.874998" fill="none" d="M 0.000000 750.000000 L 435.483856 0.000000 " />
<path stroke-linejoin="round" stroke-linecap="round" stroke="rgb(255,0,0)" stroke-width="3.749996" fill="none" d="M 102.246323 573.909119 L 104.710091 581.300415 " />
<path stroke-linejoin="round" stroke-linecap="round" stroke="rgb(0,0,255)" stroke-width="1.874998" fill="none" d="M 0.000000 750.000000 L 409.090912 0.000000 " />
<path stroke-linejoin="round" stroke-linecap="round" stroke="rgb(255,0,0)" stroke-width="3.749996" fill="none" d="M 99.895836 566.857605 L 102.246323 573.909119 " />
<path stroke-linejoin="round" stroke-linecap="round" stroke="rgb(0,0,255)" stroke-width="1.874998" fill="none" d="M 0.000000 750.000000 L 398.437500 0.000000 " />
<path stroke-linejoin="round" stroke-linecap="round" stroke="rgb(255,0,0)" stroke-width="3.749996" fill="none" d="M 98.892868 563.848694 L 99.895836 566.857605 " />
<path stroke-linejoin="round" stroke-linecap="round" stroke="rgb(0,0,255)" stroke-width="1.874998" fill="none" d="M 0.000000 750.000000 L 363.636383 0.000000 " />
<path stroke-linejoin="round" stroke-linecap="round" stroke="rgb(255,0,0)" stroke-width="3.749996" fill="none" d="M 95.373810 553.291504 L 98.892868 563.848694 " />
<path stroke-linejoin="round" stroke-linecap="round" stroke="rgb(0,0,255)" stroke-width="1.874998" fill="none" d="M 0.000000 750.000000 L 342.857147 0.000000 " />
<path stroke-linejoin="round" stroke-linecap="round" stroke="rgb(255,0,0)" stroke-width="3.749996" fill="none" d="M 93.075645 546.397034 L 95.373810 553.291504 " />
<path stroke-linejoin="round" stroke-linecap="round" stroke="rgb(0,0,255)" stroke-width="1.874998" fill="none" d="M 0.000000 750.000000 L 324.324341 0.000000 " />
<path stroke-linejoin="round" stroke-linecap="round" stroke="rgb(255,0,0)" stroke-width="3.749996" fill="none" d="M 90.885628 539.827026 L 93.075645 546.397034 " />
<path stroke-linejoin="round" stroke-linecap="round" stroke="rgb(0,0,255)" stroke-width="1.874998" fill="none" d="M 0.000000 750.000000 L 296.052643 0.000000 " />
<path stroke-linejoin="round" stroke-linecap="round" stroke="rgb(255,0,0)" stroke-width="3.749996" fill="none" d="M 87.258408 528.945374 L 90.885628 539.827026 " />
<path stroke-linejoin="round" stroke-linecap="round" stroke="rgb(0,0,255)" stroke-width="1.874998" fill="none" d="M 0.000000 750.000000 L 281.250000 0.000000 " />
<path stroke-linejoin="round" stroke-linecap="round" stroke="rgb(255,0,0)" stroke-width="3.749996" fill="none" d="M 85.205261 522.785950 L 87.258408 528.945374 " />
<path stroke-linejoin="round" stroke-linecap="round" stroke="rgb(0,0,255)" stroke-width="1.874998" fill="none" d="M 0.000000 750.000000 L 256.097565 0.000000 " />
<path stroke-linejoin="round" stroke-linecap="round" stroke="rgb(255,0,0)" stroke-width="3.749996" fill="none" d="M 81.441185 511.493683 L 85.205261 522.785950 " />
<path stroke-linejoin="round" stroke-linecap="round" stroke="rgb(0,0,255)" stroke-width="1.874998" fill="none" d="M 0.000000 750.000000 L 244.186050 0.000000 " />
<path stroke-linejoin="round" stroke-linecap="round" stroke="rgb(255,0,0)" stroke-width="3.749996" fill="none" d="M 79.524925 505.744904 L 81.441185 511.493683 " />
<path stroke-linejoin="round" stroke-linecap="round" stroke="rgb(0,0,255)" stroke-width="1.874998" fill="none" d="M 0.000000 750.000000 L 233.333344 0.000000 " />
<path stroke-linejoin="round" stroke-linecap="round" stroke="rgb(255,0,0)" stroke-width="3.749996" fill="none" d="M 77.696754 500.260406 L 79.524925 505.744904 " />
<path stroke-linejoin="round" stroke-linecap="round" stroke="rgb(0,0,255)" stroke-width="1.874998" fill="none" d="M 0.000000 750.000000 L 221.590897 0.000000 " />
<path stroke-linejoin="round" stroke-linecap="round" stroke="rgb(255,0,0)" stroke-width="3.749996" fill="none" d="M 75.623947 494.041992 L 77.696754 500.260406 " />
<path stroke-linejoin="round" stroke-linecap="round" stroke="rgb(0,0,255)" stroke-width="1.874998" fill="none" d="M 0.000000 750.000000 L 211.956543 0.000000 " />
<path stroke-linejoin="round" stroke-linecap="round" stroke="rgb(255,0,0)" stroke-width="3.749996" fill="none" d="M 73.844566 488.703857 L 75.623947 494.041992 " />
<path stroke-linejoin="round" stroke-linecap="round" stroke="rgb(0,0,255)" stroke-width="1.874998" fill="none" d="M 0.000000 750.000000 L 191.489365 0.000000 " />
<path stroke-linejoin="round" stroke-linecap="round" stroke="rgb(255,0,0)" stroke-width="3.749996" fill="none" d="M 69.806725 476.590332 L 73.844566 488.703857 " />
<path stroke-linejoin="round" stroke-linecap="round" stroke="rgb(0,0,255)" stroke-width="1.874998" fill="none" d="M 0.000000 750.000000 L 171.875000 0.000000 " />
<path stroke-linejoin="round" stroke-linecap="round" stroke="rgb(255,0,0)" stroke-width="3.749996" fill="none" d="M 65.569481 463.878571 L 69.806725 476.590332 " />
<path stroke-linejoin="round" stroke-linecap="round" stroke="rgb(0,0,255)" stroke-width="1.874998" fill="none" d="M 0.000000 750.000000 L 165.000000 0.000000 " />
<path stroke-linejoin="round" stroke-linecap="round" stroke="rgb(255,0,0)" stroke-width="3.749996" fill="none" d="M 63.989506 459.138672 L 65.569481 463.878571 " />
<path stroke-linejoin="round" stroke-linecap="round" stroke="rgb(0,0,255)" stroke-width="1.874998" fill="none" d="M 0.000000 750.000000 L 147.058807 0.000000 " />
<path stroke-linejoin="round" stroke-linecap="round" stroke="rgb(255,0,0)" stroke-width="3.749996" fill="none" d="M 59.608631 445.996002 L 63.989506 459.138672 " />
<path stroke-linejoin="round" stroke-linecap="round" stroke="rgb(0,0,255)" stroke-width="1.874998" fill="none" d="M 0.000000 750.000000 L 141.509415 0.000000 " />
<path stroke-linejoin="round" stroke-linecap="round" stroke="rgb(255,0,0)" stroke-width="3.749996" fill="none" d="M 58.172264 441.686951 L 59.608631 445.996002 " />
<path stroke-linejoin="round" stroke-linecap="round" stroke="rgb(0,0,255)" stroke-width="1.874998" fill="none" d="M 0.000000 750.000000 L 131.578934 0.000000 " />
<path stroke-linejoin="round" stroke-linecap="round" stroke="rgb(255,0,0)" stroke-width="3.749996" fill="none" d="M 55.497677 433.663208 L 58.172264 441.687012 " />
<path stroke-linejoin="round" stroke-linecap="round" stroke="rgb(0,0,255)" stroke-width="1.874998" fill="none" d="M 0.000000 750.000000 L 127.118645 0.000000 " />
<path stroke-linejoin="round" stroke-linecap="round" stroke="rgb(255,0,0)" stroke-width="3.749996" fill="none" d="M 54.250538 429.921753 L 55.497700 433.663177 " />
<path stroke-linejoin="round" stroke-linecap="round" stroke="rgb(0,0,255)" stroke-width="1.874998" fill="none" d="M 0.000000 750.000000 L 120.535698 0.000000 " />
<path stroke-linejoin="round" stroke-linecap="round" stroke="rgb(255,0,0)" stroke-width="3.749996" fill="none" d="M 52.355045 424.235260 L 54.250538 429.921753 " />
<path stroke-linejoin="round" stroke-linecap="round" stroke="rgb(0,0,255)" stroke-width="1.874998" fill="none" d="M 0.000000 750.000000 L 105.263161 0.000000 " />
<path stroke-linejoin="round" stroke-linecap="round" stroke="rgb(255,0,0)" stroke-width="3.749996" fill="none" d="M 47.686905 410.230865 L 52.355045 424.235260 " />
<path stroke-linejoin="round" stroke-linecap="round" stroke="rgb(0,0,255)" stroke-width="1.874998" fill="none" d="M 0.000000 750.000000 L 90.517242 0.000000 " />
<path stroke-linejoin="round" stroke-linecap="round" stroke="rgb(255,0,0)" stroke-width="3.749996" fill="none" d="M 43.727360 387.687653 L 47.686905 410.230865 " />
<path stroke-linejoin="round" stroke-linecap="round" stroke="rgb(0,0,255)" stroke-width="1.874998" fill="none" d="M 0.000000 750.000000 L 76.271187 0.000000 " />
<path stroke-linejoin="round" stroke-linecap="round" stroke="rgb(255,0,0)" stroke-width="3.749996" fill="none" d="M 39.905727 357.593781 L 43.727337 387.687683 " />
<path stroke-linejoin="round" stroke-linecap="round" stroke="rgb(0,0,255)" stroke-width="1.874998" fill="none" d="M 0.000000 750.000000 L 73.770493 0.000000 " />
<path stroke-linejoin="round" stroke-linecap="round" stroke="rgb(255,0,0)" stroke-width="3.749996" fill="none" d="M 39.152496 351.949707 L 39.905727 357.593781 " />
<path stroke-linejoin="round" stroke-linecap="round" stroke="rgb(0,0,255)" stroke-width="1.874998" fill="none" d="M 0.000000 750.000000 L 71.428566 0.000000 " />
<path stroke-linejoin="round" stroke-linecap="round" stroke="rgb(255,0,0)" stroke-width="3.749996" fill="none" d="M 38.467079 346.095581 L 39.152496 351.949707 " />
<path stroke-linejoin="round" stroke-linecap="round" stroke="rgb(0,0,255)" stroke-width="1.874998" fill="none" d="M 0.000000 750.000000 L 67.164169 0.000000 " />
<path stroke-linejoin="round" stroke-linecap="round" stroke="rgb(255,0,0)" stroke-width="3.749996" fill="none" d="M 37.191422 334.695709 L 38.467079 346.095612 " />
<path stroke-linejoin="round" stroke-linecap="round" stroke="rgb(0,0,255)" stroke-width="1.874998" fill="none" d="M 0.000000 750.000000 L 65.217400 0.000000 " />
<path stroke-linejoin="round" stroke-linecap="round" stroke="rgb(255,0,0)" stroke-width="3.749996" fill="none" d="M 36.585690 329.264465 L 37.191422 334.695709 " />
<path stroke-linejoin="round" stroke-linecap="round" stroke="rgb(0,0,255)" stroke-width="1.874998" fill="none" d="M 0.000000 750.000000 L 63.380287 0.000000 " />
<path stroke-linejoin="round" stroke-linecap="round" stroke="rgb(255,0,0)" stroke-width="3.749996" fill="none" d="M 36.000072 323.998993 L 36.585690 329.264465 " />
<path stroke-linejoin="round" stroke-linecap="round" stroke="rgb(0,0,255)" stroke-width="1.874998" fill="none" d="M 0.000000 750.000000 L 61.643826 0.000000 " />
<path stroke-linejoin="round" stroke-linecap="round" stroke="rgb(255,0,0)" stroke-width="3.749996" fill="none" d="M 35.433098 318.897430 L 36.000095 323.998993 " />
<path stroke-linejoin="round" stroke-linecap="round" stroke="rgb(0,0,255)" stroke-width="1.874998" fill="none" d="M 0.000000 750.000000 L 56.818172 0.000000 " />
<path stroke-linejoin="round" stroke-linecap="round" stroke="rgb(255,0,0)" stroke-width="3.749996" fill="none" d="M 33.783787 304.054016 L 35.433098 318.897430 " />
<path stroke-linejoin="round" stroke-linecap="round" stroke="rgb(0,0,255)" stroke-width="1.874998" fill="none" d="M 0.000000 750.000000 L 44.776127 0.000000 " />
<path stroke-linejoin="round" stroke-linecap="round" stroke="rgb(255,0,0)" stroke-width="3.749996" fill="none" d="M 29.126219 262.135925 L 33.783787 304.054016 " />
<path stroke-linejoin="round" stroke-linecap="round" stroke="rgb(0,0,255)" stroke-width="1.874998" fill="none" d="M 0.000000 750.000000 L 43.478249 0.000000 " />
<path stroke-linejoin="round" stroke-linecap="round" stroke="rgb(255,0,0)" stroke-width="3.749996" fill="none" d="M 28.571426 257.142853 L 29.126219 262.135925 " />
<path stroke-linejoin="round" stroke-linecap="round" stroke="rgb(0,0,255)" stroke-width="1.874998" fill="none" d="M 0.000000 750.000000 L 42.253510 0.000000 " />
<path stroke-linejoin="round" stroke-linecap="round" stroke="rgb(255,0,0)" stroke-width="3.749996" fill="none" d="M 28.037376 252.336441 L 28.571426 257.142853 " />
<path stroke-linejoin="round" stroke-linecap="round" stroke="rgb(0,0,255)" stroke-width="1.874998" fill="none" d="M 0.000000 750.000000 L 38.961029 0.000000 " />
<path stroke-linejoin="round" stroke-linecap="round" stroke="rgb(255,0,0)" stroke-width="3.749996" fill="none" d="M 26.548683 238.938019 L 28.037376 252.336441 " />
<path stroke-linejoin="round" stroke-linecap="round" stroke="rgb(0,0,255)" stroke-width="1.874998" fill="none" d="M 0.000000 750.000000 L 37.974693 0.000000 " />
<path stroke-linejoin="round" stroke-linecap="round" stroke="rgb(255,0,0)" stroke-width="3.749996" fill="none" d="M 26.086964 234.782578 L 26.548683 238.938019 " />
<path stroke-linejoin="round" stroke-linecap="round" stroke="rgb(0,0,255)" stroke-width="1.874998" fill="none" d="M 0.000000 750.000000 L 36.144577 0.000000 " />
<path stroke-linejoin="round" stroke-linecap="round" stroke="rgb(255,0,0)" stroke-width="3.749996" fill="none" d="M 25.210083 226.890747 L 26.086964 234.782562 " />
<path stroke-linejoin="round" stroke-linecap="round" stroke="rgb(0,0,255)" stroke-width="1.874998" fill="none" d="M 0.000000 750.000000 L 35.294117 0.000000 " />
<path stroke-linejoin="round" stroke-linecap="round" stroke="rgb(255,0,0)" stroke-width="3.749996" fill="none" d="M 24.793379 223.140518 L 25.210083 226.890747 " />
<path stroke-linejoin="round" stroke-linecap="round" stroke="rgb(0,0,255)" stroke-width="1.874998" fill="none" d="M 0.000000 750.000000 L 34.482746 0.000000 " />
<path stroke-linejoin="round" stroke-linecap="round" stroke="rgb(255,0,0)" stroke-width="3.749996" fill="none" d="M 24.390244 219.512207 L 24.793379 223.140518 " />
<path stroke-linejoin="round" stroke-linecap="round" stroke="rgb(0,0,255)" stroke-width="1.874998" fill="none" d="M 0.000000 750.000000 L 33.707855 0.000000 " />
<path stroke-linejoin="round" stroke-linecap="round" stroke="rgb(255,0,0)" stroke-width="3.749996" fill="none" d="M 24.000004 216.000015 L 24.390244 219.512207 " />
<path stroke-linejoin="round" stroke-linecap="round" stroke="rgb(0,0,255)" stroke-width="1.874998" fill="none" d="M 0.000000 750.000000 L 30.405409 0.000000 " />
<path stroke-linejoin="round" stroke-linecap="round" stroke="rgb(255,0,0)" stroke-width="3.749996" fill="none" d="M 22.277222 200.495056 L 24.000004 216.000015 " />
<path stroke-linejoin="round" stroke-linecap="round" stroke="rgb(0,0,255)" stroke-width="1.874998" fill="none" d="M 0.000000 750.000000 L 20.000004 0.000000 " />
<path stroke-linejoin="round" stroke-linecap="round" stroke="rgb(255,0,0)" stroke-width="3.749996" fill="none" d="M 16.129040 145.161285 L 22.277222 200.495056 " />
<path stroke-linejoin="round" stroke-linecap="round" stroke="rgb(0,0,255)" stroke-width="1.874998" fill="none" d="M 0.000000 750.000000 L 9.868428 0.000000 " />
<path stroke-linejoin="round" stroke-linecap="round" stroke="rgb(255,0,0)" stroke-width="3.749996" fill="none" d="M 8.823529 79.411758 L 16.129040 145.161285 " />
<path stroke-linejoin="round" stroke-linecap="round" stroke="rgb(0,0,255)" stroke-width="1.874998" fill="none" d="M 0.000000 750.000000 L 0.000000 0.000000 " />
<path stroke-linejoin="round" stroke-linecap="round" stroke="rgb(255,0,0)" stroke-width="3.749996" fill="none" d="M 0.000000 0.000000 L 8.823529 79.411758 " />
<circle cx="149.584495" cy="746.260419" r="3.749996" style="fill:rgb(0,127,0);stroke-width:1" /><circle cx="148.417734" cy="742.760114" r="3.749996" style="fill:rgb(0,127,0);stroke-width:1" /><circle cx="147.152223" cy="738.963582" r="3.749996" style="fill:rgb(0,127,0);stroke-width:1" /><circle cx="142.283924" cy="704.885580" r="3.749996" style="fill:rgb(0,127,0);stroke-width:1" /><circle cx="139.568008" cy="685.874149" r="3.749996" style="fill:rgb(0,127,0);stroke-width:1" /><circle cx="138.996474" cy="684.159569" r="3.749996" style="fill:rgb(0,127,0);stroke-width:1" /><circle cx="138.634309" cy="683.073096" r="3.749996" style="fill:rgb(0,127,0);stroke-width:1" /><circle cx="136.557944" cy="676.843956" r="3.749996" style="fill:rgb(0,127,0);stroke-width:1" /><circle cx="134.395927" cy="670.357972" r="3.749996" style="fill:rgb(0,127,0);stroke-width:1" /><circle cx="132.142916" cy="663.598873" r="3.749996" style="fill:rgb(0,127,0);stroke-width:1" /><circle cx="129.792966" cy="656.549066" r="3.749996" style="fill:rgb(0,127,0);stroke-width:1" /><circle cx="127.339751" cy="649.189375" r="3.749996" style="fill:rgb(0,127,0);stroke-width:1" /><circle cx="124.776252" cy="641.498923" r="3.749996" style="fill:rgb(0,127,0);stroke-width:1" /><circle cx="124.601260" cy="640.973903" r="3.749996" style="fill:rgb(0,127,0);stroke-width:1" /><circle cx="122.094914" cy="633.454867" r="3.749996" style="fill:rgb(0,127,0);stroke-width:1" /><circle cx="122.033939" cy="633.271895" r="3.749996" style="fill:rgb(0,127,0);stroke-width:1" /><circle cx="119.351193" cy="625.223748" r="3.749996" style="fill:rgb(0,127,0);stroke-width:1" /><circle cx="116.728105" cy="617.354438" r="3.749996" style="fill:rgb(0,127,0);stroke-width:1" /><circle cx="116.545156" cy="616.805546" r="3.749996" style="fill:rgb(0,127,0);stroke-width:1" /><circle cx="113.926157" cy="608.948573" r="3.749996" style="fill:rgb(0,127,0);stroke-width:1" /><circle cx="110.995375" cy="600.156248" r="3.749996" style="fill:rgb(0,127,0);stroke-width:1" /><circle cx="107.926682" cy="590.950169" r="3.749996" style="fill:rgb(0,127,0);stroke-width:1" /><circle cx="104.710087" cy="581.300408" r="3.749996" style="fill:rgb(0,127,0);stroke-width:1" /><circle cx="102.246322" cy="573.909089" r="3.749996" style="fill:rgb(0,127,0);stroke-width:1" /><circle cx="99.895835" cy="566.857629" r="3.749996" style="fill:rgb(0,127,0);stroke-width:1" /><circle cx="98.892868" cy="563.848726" r="3.749996" style="fill:rgb(0,127,0);stroke-width:1" /><circle cx="95.373809" cy="553.291529" r="3.749996" style="fill:rgb(0,127,0);stroke-width:1" /><circle cx="93.075648" cy="546.397034" r="3.749996" style="fill:rgb(0,127,0);stroke-width:1" /><circle cx="90.885624" cy="539.826997" r="3.749996" style="fill:rgb(0,127,0);stroke-width:1" /><circle cx="87.258406" cy="528.945364" r="3.749996" style="fill:rgb(0,127,0);stroke-width:1" /><circle cx="85.205264" cy="522.785939" r="3.749996" style="fill:rgb(0,127,0);stroke-width:1" /><circle cx="81.441186" cy="511.493683" r="3.749996" style="fill:rgb(0,127,0);stroke-width:1" /><circle cx="79.524927" cy="505.744882" r="3.749996" style="fill:rgb(0,127,0);stroke-width:1" /><circle cx="77.696756" cy="500.260435" r="3.749996" style="fill:rgb(0,127,0);stroke-width:1" /><circle cx="75.623944" cy="494.042002" r="3.749996" style="fill:rgb(0,127,0);stroke-width:1" /><circle cx="73.844567" cy="488.703847" r="3.749996" style="fill:rgb(0,127,0);stroke-width:1" /><circle cx="69.806725" cy="476.590332" r="3.749996" style="fill:rgb(0,127,0);stroke-width:1" /><circle cx="65.569483" cy="463.878589" r="3.749996" style="fill:rgb(0,127,0);stroke-width:1" /><circle cx="63.989505" cy="459.138645" r="3.749996" style="fill:rgb(0,127,0);stroke-width:1" /><circle cx="59.608631" cy="445.996033" r="3.749996" style="fill:rgb(0,127,0);stroke-width:1" /><circle cx="58.172263" cy="441.686975" r="3.749996" style="fill:rgb(0,127,0);stroke-width:1" /><circle cx="55.497676" cy="433.663202" r="3.749996" style="fill:rgb(0,127,0);stroke-width:1" /><circle cx="54.250538" cy="429.921772" r="3.749996" style="fill:rgb(0,127,0);stroke-width:1" /><circle cx="52.355044" cy="424.235271" r="3.749996" style="fill:rgb(0,127,0);stroke-width:1" /><circle cx="47.686905" cy="410.230852" r="3.749996" style="fill:rgb(0,127,0);stroke-width:1" /><circle cx="43.727361" cy="387.687671" r="3.749996" style="fill:rgb(0,127,0);stroke-width:1" /><circle cx="39.905727" cy="357.593786" r="3.749996" style="fill:rgb(0,127,0);stroke-width:1" /><circle cx="39.152496" cy="351.949703" r="3.749996" style="fill:rgb(0,127,0);stroke-width:1" /><circle cx="38.467079" cy="346.095585" r="3.749996" style="fill:rgb(0,127,0);stroke-width:1" /><circle cx="37.191421" cy="334.695697" r="3.749996" style="fill:rgb(0,127,0);stroke-width:1" /><circle cx="36.585689" cy="329.264475" r="3.749996" style="fill:rgb(0,127,0);stroke-width:1" /><circle cx="36.000073" cy="323.999014" r="3.749996" style="fill:rgb(0,127,0);stroke-width:1" /><circle cx="35.433099" cy="318.897413" r="3.749996" style="fill:rgb(0,127,0);stroke-width:1" /><circle cx="33.783786" cy="304.054035" r="3.749996" style="fill:rgb(0,127,0);stroke-width:1" /><circle cx="29.126219" cy="262.135930" r="3.749996" style="fill:rgb(0,127,0);stroke-width:1" /><circle cx="28.571427" cy="257.142842" r="3.749996" style="fill:rgb(0,127,0);stroke-width:1" /><circle cx="28.037377" cy="252.336435" r="3.749996" style="fill:rgb(0,127,0);stroke-width:1" /><circle cx="26.548684" cy="238.938008" r="3.749996" style="fill:rgb(0,127,0);stroke-width:1" /><circle cx="26.086964" cy="234.782584" r="3.749996" style="fill:rgb(0,127,0);stroke-width:1" /><circle cx="25.210083" cy="226.890743" r="3.749996" style="fill:rgb(0,127,0);stroke-width:1" /><circle cx="24.793379" cy="223.140512" r="3.749996" style="fill:rgb(0,127,0);stroke-width:1" /><circle cx="24.390243" cy="219.512198" r="3.749996" style="fill:rgb(0,127,0);stroke-width:1" /><circle cx="24.000004" cy="216.000013" r="3.749996" style="fill:rgb(0,127,0);stroke-width:1" /><circle cx="22.277221" cy="200.495057" r="3.749996" style="fill:rgb(0,127,0);stroke-width:1" /><circle cx="16.129039" cy="145.161286" r="3.749996" style="fill:rgb(0,127,0);stroke-width:1" /><circle cx="8.823529" cy="79.411760" r="3.749996" style="fill:rgb(0,127,0);stroke-width:1" /><circle cx="750.000000" cy="750.000000" r="3.749996" style="fill:rgb(0,127,0);stroke-width:1" /><path stroke-linejoin="round" stroke-linecap="round" stroke="rgb(255,255,255)" stroke-width="3.749996" fill="none" d="M 0.000000 750.000000 L 750.000000 750.000000 M 0.000000 750.000000 L 0.000000 0.000000 " />

</svg>