<svg xmlns="http://www.w3.org/2000/svg" version="1.1" width = "750" height = "750" viewBox = "0 0 750 750"  shape-rendering="crispEdges">
<path stroke-linejoin="round" stroke-linecap="round" stroke="rgb(255,255,0)" stroke-width="3.749996" fill="none" d="M 187.500000 750.000000 L 0.000000 0.000000 " />
<path stroke-linejoin="round" stroke-linecap="round" stroke="rgb(63,63,63)" stroke-width="3.749996" fill="none" d="M 0.000000 0.000000 L 750.000000 750.000000 M 187.500000 750.000000 L 80.357147 0.000000 " />
<path stroke-linejoin="round" stroke-linecap="round" stroke="rgb(191,191,191)" stroke-width="3.749996" fill="none" d="M 0.000000 562.500000 L 187.500000 750.000000 M 0.000000 0.000000 L 107.142853 750.000000 " />
<path stroke-linejoin="round" stroke-linecap="round" stroke="rgb(0,0,255)" stroke-width="1.874998" fill="none" d="M 0.000000 750.000000 L 750.000000 729.729736 " />
<path stroke-linejoin="round" stroke-linecap="round" stroke="rgb(255,0,0)" stroke-width="3.749996" fill="none" d="M 186.778839 744.951904 L 187.500000 750.000000 " />
<path stroke-linejoin="round" stroke-linecap="round" stroke="rgb(0,0,255)" stroke-width="1.874998" fill="none" d="M 0.000000 750.000000 L 750.000000 708.333313 " />
<path stroke-linejoin="round" stroke-linecap="round" stroke="rgb(255,0,0)" stroke-width="3.749996" fill="none" d="M 181.730774 739.903870 L 186.778839 744.951904 " />
<path stroke-linejoin="round" stroke-linecap="round" stroke="rgb(0,0,255)" stroke-width="1.874998" fill="none" d="M 0.000000 750.000000 L 750.000000 689.189209 " />
<path stroke-linejoin="round" stroke-linecap="round" stroke="rgb(255,0,0)" stroke-width="3.749996" fill="none" d="M 177.439880 735.612976 L 181.730774 739.903870 " />
<path stroke-linejoin="round" stroke-linecap="round" stroke="rgb(0,0,255)" stroke-width="1.874998" fill="none" d="M 0.000000 750.000000 L 750.000000 666.666687 " />
<path stroke-linejoin="round" stroke-linecap="round" stroke="rgb(255,0,0)" stroke-width="3.749996" fill="none" d="M 172.644226 730.817261 L 177.439880 735.612976 " />
<path stroke-linejoin="round" stroke-linecap="round" stroke="rgb(0,0,255)" stroke-width="1.874998" fill="none" d="M 0.000000 750.000000 L 750.000000 642.857178 " />
<path stroke-linejoin="round" stroke-linecap="round" stroke="rgb(255,0,0)" stroke-width="3.749996" fill="none" d="M 167.848526 726.021606 L 172.644226 730.817261 " />
<path stroke-linejoin="round" stroke-linecap="round" stroke="rgb(0,0,255)" stroke-width="1.874998" fill="none" d="M 0.000000 750.000000 L 750.000000 617.647095 " />
<path stroke-linejoin="round" stroke-linecap="round" stroke="rgb(255,0,0)" stroke-width="3.749996" fill="none" d="M 163.052856 721.225952 L 167.848526 726.021606 " />
<path stroke-linejoin="round" stroke-linecap="round" stroke="rgb(0,0,255)" stroke-width="1.874998" fill="none" d="M 0.000000 750.000000 L 750.000000 600.000000 " />
<path stroke-linejoin="round" stroke-linecap="round" stroke="rgb(255,0,0)" stroke-width="3.749996" fill="none" d="M 159.855743 718.028870 L 163.052856 721.225952 " />
<path stroke-linejoin="round" stroke-linecap="round" stroke="rgb(0,0,255)" stroke-width="1.874998" fill="none" d="M 0.000000 750.000000 L 750.000000 590.909058 " />
<path stroke-linejoin="round" stroke-linecap="round" stroke="rgb(255,0,0)" stroke-width="3.749996" fill="none" d="M 158.257172 716.430298 L 159.855743 718.028870 " />
<path stroke-linejoin="round" stroke-linecap="round" stroke="rgb(0,0,255)" stroke-width="1.874998" fill="none" d="M 0.000000 750.000000 L 750.000000 562.500000 " />
<path stroke-linejoin="round" stroke-linecap="round" stroke="rgb(255,0,0)" stroke-width="3.749996" fill="none" d="M 153.461517 711.634644 L 158.257172 716.430298 " />
<path stroke-linejoin="round" stroke-linecap="round" stroke="rgb(0,0,255)" stroke-width="1.874998" fill="none" d="M 0.000000 750.000000 L 750.000000 532.258118 " />
<path stroke-linejoin="round" stroke-linecap="round" stroke="rgb(255,0,0)" stroke-width="3.749996" fill="none" d="M 148.665833 706.838989 L 153.461487 711.634644 " />
<path stroke-linejoin="round" stroke-linecap="round" stroke="rgb(0,0,255)" stroke-width="1.874998" fill="none" d="M 0.000000 750.000000 L 750.000000 499.999969 " />
<path stroke-linejoin="round" stroke-linecap="round" stroke="rgb(255,0,0)" stroke-width="3.749996" fill="none" d="M 143.870163 702.043274 L 148.665863 706.838989 " />
<path stroke-linejoin="round" stroke-linecap="round" stroke="rgb(0,0,255)" stroke-width="1.874998" fill="none" d="M 0.000000 750.000000 L 750.000000 483.870941 " />
<path stroke-linejoin="round" stroke-linecap="round" stroke="rgb(255,0,0)" stroke-width="3.749996" fill="none" d="M 141.586502 699.759644 L 143.870163 702.043274 " />
<path stroke-linejoin="round" stroke-linecap="round" stroke="rgb(0,0,255)" stroke-width="1.874998" fill="none" d="M 0.000000 750.000000 L 750.000000 465.517212 " />
<path stroke-linejoin="round" stroke-linecap="round" stroke="rgb(255,0,0)" stroke-width="3.749996" fill="none" d="M 139.074478 697.247620 L 141.586487 699.759644 " />
<path stroke-linejoin="round" stroke-linecap="round" stroke="rgb(0,0,255)" stroke-width="1.874998" fill="none" d="M 0.000000 750.000000 L 750.000000 428.571411 " />
<path stroke-linejoin="round" stroke-linecap="round" stroke="rgb(255,0,0)" stroke-width="3.749996" fill="none" d="M 134.278809 692.451965 L 139.074478 697.247620 " />
<path stroke-linejoin="round" stroke-linecap="round" stroke="rgb(0,0,255)" stroke-width="1.874998" fill="none" d="M 0.000000 750.000000 L 750.000000 413.793091 " />
<path stroke-linejoin="round" stroke-linecap="round" stroke="rgb(255,0,0)" stroke-width="3.749996" fill="none" d="M 132.451859 690.625000 L 134.278809 692.451965 " />
<path stroke-linejoin="round" stroke-linecap="round" stroke="rgb(0,0,255)" stroke-width="1.874998" fill="none" d="M 0.000000 750.000000 L 750.000000 388.888885 " />
<path stroke-linejoin="round" stroke-linecap="round" stroke="rgb(255,0,0)" stroke-width="3.749996" fill="none" d="M 129.483109 687.656250 L 132.451859 690.625000 " />
<path stroke-linejoin="round" stroke-linecap="round" stroke="rgb(0,0,255)" stroke-width="1.874998" fill="none" d="M 0.000000 750.000000 L 750.000000 346.153839 " />
<path stroke-linejoin="round" stroke-linecap="round" stroke="rgb(255,0,0)" stroke-width="3.749996" fill="none" d="M 124.687447 682.860596 L 129.483109 687.656250 " />
<path stroke-linejoin="round" stroke-linecap="round" stroke="rgb(0,0,255)" stroke-width="1.874998" fill="none" d="M 0.000000 750.000000 L 750.000000 299.999969 " />
<path stroke-linejoin="round" stroke-linecap="round" stroke="rgb(255,0,0)" stroke-width="3.749996" fill="none" d="M 119.891792 678.064941 L 124.687447 682.860596 " />
<path stroke-linejoin="round" stroke-linecap="round" stroke="rgb(0,0,255)" stroke-width="1.874998" fill="none" d="M 0.000000 750.000000 L 750.000000 249.999985 " />
<path stroke-linejoin="round" stroke-linecap="round" stroke="rgb(255,0,0)" stroke-width="3.749996" fill="none" d="M 115.096092 673.269226 L 119.891792 678.064941 " />
<path stroke-linejoin="round" stroke-linecap="round" stroke="rgb(0,0,255)" stroke-width="1.874998" fill="none" d="M 0.000000 750.000000 L 750.000000 240.000000 " />
<path stroke-linejoin="round" stroke-linecap="round" stroke="rgb(255,0,0)" stroke-width="3.749996" fill="none" d="M 114.182640 672.355774 L 115.096092 673.269226 " />
<path stroke-linejoin="round" stroke-linecap="round" stroke="rgb(0,0,255)" stroke-width="1.874998" fill="none" d="M 0.000000 750.000000 L 750.000000 195.652176 " />
<path stroke-linejoin="round" stroke-linecap="round" stroke="rgb(255,0,0)" stroke-width="3.749996" fill="none" d="M 110.300438 668.473572 L 114.182640 672.355774 " />
<path stroke-linejoin="round" stroke-linecap="round" stroke="rgb(0,0,255)" stroke-width="1.874998" fill="none" d="M 0.000000 750.000000 L 750.000000 136.363647 " />
<path stroke-linejoin="round" stroke-linecap="round" stroke="rgb(255,0,0)" stroke-width="3.749996" fill="none" d="M 105.504784 663.677917 L 110.300438 668.473572 " />
<path stroke-linejoin="round" stroke-linecap="round" stroke="rgb(0,0,255)" stroke-width="1.874998" fill="none" d="M 0.000000 750.000000 L 750.000000 130.434799 " />
<path stroke-linejoin="round" stroke-linecap="round" stroke="rgb(255,0,0)" stroke-width="3.749996" fill="none" d="M 105.048042 663.221191 L 105.504784 663.677917 " />
<path stroke-linejoin="round" stroke-linecap="round" stroke="rgb(0,0,255)" stroke-width="1.874998" fill="none" d="M 0.000000 750.000000 L 750.000000 71.428566 " />
<path stroke-linejoin="round" stroke-linecap="round" stroke="rgb(255,0,0)" stroke-width="3.749996" fill="none" d="M 100.709084 658.882202 L 105.048042 663.221191 " />
<path stroke-linejoin="round" stroke-linecap="round" stroke="rgb(0,0,255)" stroke-width="1.874998" fill="none" d="M 0.000000 750.000000 L 750.000000 0.000000 " />
<path stroke-linejoin="round" stroke-linecap="round" stroke="rgb(255,0,0)" stroke-width="3.749996" fill="none" d="M 95.913422 654.086548 L 100.709084 658.882202 " />
<path stroke-linejoin="round" stroke-linecap="round" stroke="rgb(0,0,255)" stroke-width="1.874998" fill="none" d="M 0.000000 750.000000 L 678.571472 0.000000 " />
<path stroke-linejoin="round" stroke-linecap="round" stroke="rgb(255,0,0)" stroke-width="3.749996" fill="none" d="M 92.532455 647.727295 L 95.913422 654.086548 " />
<path stroke-linejoin="round" stroke-linecap="round" stroke="rgb(0,0,255)" stroke-width="1.874998" fill="none" d="M 0.000000 750.000000 L 613.636353 0.000000 " />
<path stroke-linejoin="round" stroke-linecap="round" stroke="rgb(255,0,0)" stroke-width="3.749996" fill="none" d="M 91.216209 638.513550 L 92.532455 647.727295 " />
<path stroke-linejoin="round" stroke-linecap="round" stroke="rgb(0,0,255)" stroke-width="1.874998" fill="none" d="M 0.000000 750.000000 L 562.500000 0.000000 " />
<path stroke-linejoin="round" stroke-linecap="round" stroke="rgb(255,0,0)" stroke-width="3.749996" fill="none" d="M 90.000000 630.000000 L 91.216209 638.513550 " />
<path stroke-linejoin="round" stroke-linecap="round" stroke="rgb(0,0,255)" stroke-width="1.874998" fill="none" d="M 0.000000 750.000000 L 554.347839 0.000000 " />
<path stroke-linejoin="round" stroke-linecap="round" stroke="rgb(255,0,0)" stroke-width="3.749996" fill="none" d="M 89.788712 628.521118 L 90.000000 630.000000 " />
<path stroke-linejoin="round" stroke-linecap="round" stroke="rgb(0,0,255)" stroke-width="1.874998" fill="none" d="M 0.000000 750.000000 L 500.000000 0.000000 " />
<path stroke-linejoin="round" stroke-linecap="round" stroke="rgb(255,0,0)" stroke-width="3.749996" fill="none" d="M 88.235268 617.647095 L 89.788712 628.521118 " />
<path stroke-linejoin="round" stroke-linecap="round" stroke="rgb(0,0,255)" stroke-width="1.874998" fill="none" d="M 0.000000 750.000000 L 450.000031 0.000000 " />
<path stroke-linejoin="round" stroke-linecap="round" stroke="rgb(255,0,0)" stroke-width="3.749996" fill="none" d="M 86.538437 605.769287 L 88.235268 617.647095 " />
<path stroke-linejoin="round" stroke-linecap="round" stroke="rgb(0,0,255)" stroke-width="1.874998" fill="none" d="M 0.000000 750.000000 L 403.846161 0.000000 " />
<path stroke-linejoin="round" stroke-linecap="round" stroke="rgb(255,0,0)" stroke-width="3.749996" fill="none" d="M 84.677406 592.741943 L 86.538437 605.769287 " />
<path stroke-linejoin="round" stroke-linecap="round" stroke="rgb(0,0,255)" stroke-width="1.874998" fill="none" d="M 0.000000 750.000000 L 361.111084 0.000000 " />
<path stroke-linejoin="round" stroke-linecap="round" stroke="rgb(255,0,0)" stroke-width="3.749996" fill="none" d="M 82.627106 578.389832 L 84.677406 592.741943 " />
<path stroke-linejoin="round" stroke-linecap="round" stroke="rgb(0,0,255)" stroke-width="1.874998" fill="none" d="M 0.000000 750.000000 L 336.206909 0.000000 " />
<path stroke-linejoin="round" stroke-linecap="round" stroke="rgb(255,0,0)" stroke-width="3.749996" fill="none" d="M 81.249992 568.750061 L 82.627106 578.389832 " />
<path stroke-linejoin="round" stroke-linecap="round" stroke="rgb(0,0,255)" stroke-width="1.874998" fill="none" d="M 0.000000 750.000000 L 314.516113 0.000000 " />
<path stroke-linejoin="round" stroke-linecap="round" stroke="rgb(255,0,0)" stroke-width="3.749996" fill="none" d="M 79.918030 559.426270 L 81.249992 568.750061 " />
<path stroke-linejoin="round" stroke-linecap="round" stroke="rgb(0,0,255)" stroke-width="1.874998" fill="none" d="M 0.000000 750.000000 L 295.454559 0.000000 " />
<path stroke-linejoin="round" stroke-linecap="round" stroke="rgb(255,0,0)" stroke-width="3.749996" fill="none" d="M 78.629021 550.403259 L 79.918030 559.426208 " />
<path stroke-linejoin="round" stroke-linecap="round" stroke="rgb(0,0,255)" stroke-width="1.874998" fill="none" d="M 0.000000 750.000000 L 209.302338 0.000000 " />
<path stroke-linejoin="round" stroke-linecap="round" stroke="rgb(255,0,0)" stroke-width="3.749996" fill="none" d="M 70.866127 496.063019 L 78.629021 550.403259 " />
<path stroke-linejoin="round" stroke-linecap="round" stroke="rgb(0,0,255)" stroke-width="1.874998" fill="none" d="M 0.000000 750.000000 L 187.500000 0.000000 " />
<path stroke-linejoin="round" stroke-linecap="round" stroke="rgb(255,0,0)" stroke-width="3.749996" fill="none" d="M 68.181824 477.272705 L 70.866127 496.063019 " />
<path stroke-linejoin="round" stroke-linecap="round" stroke="rgb(0,0,255)" stroke-width="1.874998" fill="none" d="M 0.000000 750.000000 L 166.666656 0.000000 " />
<path stroke-linejoin="round" stroke-linecap="round" stroke="rgb(255,0,0)" stroke-width="3.749996" fill="none" d="M 65.217377 456.521759 L 68.181824 477.272705 " />
<path stroke-linejoin="round" stroke-linecap="round" stroke="rgb(0,0,255)" stroke-width="1.874998" fill="none" d="M 0.000000 750.000000 L 149.999985 0.000000 " />
<path stroke-linejoin="round" stroke-linecap="round" stroke="rgb(255,0,0)" stroke-width="3.749996" fill="none" d="M 62.499985 437.500031 L 65.217377 456.521759 " />
<path stroke-linejoin="round" stroke-linecap="round" stroke="rgb(0,0,255)" stroke-width="1.874998" fill="none" d="M 0.000000 750.000000 L 128.906250 0.000000 " />
<path stroke-linejoin="round" stroke-linecap="round" stroke="rgb(255,0,0)" stroke-width="3.749996" fill="none" d="M 58.510624 409.574554 L 62.499985 437.500061 " />
<path stroke-linejoin="round" stroke-linecap="round" stroke="rgb(0,0,255)" stroke-width="1.874998" fill="none" d="M 0.000000 750.000000 L 96.774193 0.000000 " />
<path stroke-linejoin="round" stroke-linecap="round" stroke="rgb(255,0,0)" stroke-width="3.749996" fill="none" d="M 50.847443 355.932312 L 58.510624 409.574554 " />
<path stroke-linejoin="round" stroke-linecap="round" stroke="rgb(0,0,255)" stroke-width="1.874998" fill="none" d="M 0.000000 750.000000 L 83.333328 0.000000 " />
<path stroke-linejoin="round" stroke-linecap="round" stroke="rgb(255,0,0)" stroke-width="3.749996" fill="none" d="M 46.875000 328.125092 L 50.847443 355.932312 " />
<path stroke-linejoin="round" stroke-linecap="round" stroke="rgb(0,0,255)" stroke-width="1.874998" fill="none" d="M 0.000000 750.000000 L 82.191780 0.000000 " />
<path stroke-linejoin="round" stroke-linecap="round" stroke="rgb(255,0,0)" stroke-width="3.749996" fill="none" d="M 46.511604 325.581512 L 46.875000 328.125092 " />
<path stroke-linejoin="round" stroke-linecap="round" stroke="rgb(0,0,255)" stroke-width="1.874998" fill="none" d="M 0.000000 750.000000 L 70.945946 0.000000 " />
<path stroke-linejoin="round" stroke-linecap="round" stroke="rgb(255,0,0)" stroke-width="3.749996" fill="none" d="M 42.682907 298.780609 L 46.511604 325.581512 " />
<path stroke-linejoin="round" stroke-linecap="round" stroke="rgb(0,0,255)" stroke-width="1.874998" fill="none" d="M 0.000000 750.000000 L 66.176468 0.000000 " />
<path stroke-linejoin="round" stroke-linecap="round" stroke="rgb(255,0,0)" stroke-width="3.749996" fill="none" d="M 40.909096 286.363708 L 42.682907 298.780609 " />
<path stroke-linejoin="round" stroke-linecap="round" stroke="rgb(0,0,255)" stroke-width="1.874998" fill="none" d="M 0.000000 750.000000 L 54.347813 0.000000 " />
<path stroke-linejoin="round" stroke-linecap="round" stroke="rgb(255,0,0)" stroke-width="3.749996" fill="none" d="M 36.057697 252.403961 L 40.909096 286.363708 " />
<path stroke-linejoin="round" stroke-linecap="round" stroke="rgb(0,0,255)" stroke-width="1.874998" fill="none" d="M 0.000000 750.000000 L 42.857140 0.000000 " />
<path stroke-linejoin="round" stroke-linecap="round" stroke="rgb(255,0,0)" stroke-width="3.749996" fill="none" d="M 30.612230 214.285843 L 36.057697 252.403961 " />
<path stroke-linejoin="round" stroke-linecap="round" stroke="rgb(0,0,255)" stroke-width="1.874998" fill="none" d="M 0.000000 750.000000 L 41.666664 0.000000 " />
<path stroke-linejoin="round" stroke-linecap="round" stroke="rgb(255,0,0)" stroke-width="3.749996" fill="none" d="M 29.999994 210.000107 L 30.612230 214.285843 " />
<path stroke-linejoin="round" stroke-linecap="round" stroke="rgb(0,0,255)" stroke-width="1.874998" fill="none" d="M 0.000000 750.000000 L 38.461536 0.000000 " />
<path stroke-linejoin="round" stroke-linecap="round" stroke="rgb(255,0,0)" stroke-width="3.749996" fill="none" d="M 28.301888 198.113327 L 29.999994 210.000107 " />
<path stroke-linejoin="round" stroke-linecap="round" stroke="rgb(0,0,255)" stroke-width="1.874998" fill="none" d="M 0.000000 750.000000 L 37.500008 0.000000 " />
<path stroke-linejoin="round" stroke-linecap="round" stroke="rgb(255,0,0)" stroke-width="3.749996" fill="none" d="M 27.777761 194.444550 L 28.301888 198.113327 " />
<path stroke-linejoin="round" stroke-linecap="round" stroke="rgb(0,0,255)" stroke-width="1.874998" fill="none" d="M 0.000000 750.000000 L 37.128700 0.000000 " />
<path stroke-linejoin="round" stroke-linecap="round" stroke="rgb(255,0,0)" stroke-width="3.749996" fill="none" d="M 27.573511 193.014847 L 27.777761 194.444550 " />
<path stroke-linejoin="round" stroke-linecap="round" stroke="rgb(0,0,255)" stroke-width="1.874998" fill="none" d="M 0.000000 750.000000 L 33.333332 0.000000 " />
<path stroke-linejoin="round" stroke-linecap="round" stroke="rgb(255,0,0)" stroke-width="3.749996" fill="none" d="M 25.423721 177.966217 L 27.573511 193.014847 " />
<path stroke-linejoin="round" stroke-linecap="round" stroke="rgb(0,0,255)" stroke-width="1.874998" fill="none" d="M 0.000000 750.000000 L 32.608688 0.000000 " />
<path stroke-linejoin="round" stroke-linecap="round" stroke="rgb(255,0,0)" stroke-width="3.749996" fill="none" d="M 24.999998 175.000153 L 25.423721 177.966217 " />
<path stroke-linejoin="round" stroke-linecap="round" stroke="rgb(0,0,255)" stroke-width="1.874998" fill="none" d="M 0.000000 750.000000 L 24.725273 0.000000 " />
<path stroke-linejoin="round" stroke-linecap="round" stroke="rgb(255,0,0)" stroke-width="3.749996" fill="none" d="M 20.089275 140.625137 L 24.999998 175.000153 " />
<path stroke-linejoin="round" stroke-linecap="round" stroke="rgb(0,0,255)" stroke-width="1.874998" fill="none" d="M 0.000000 750.000000 L 16.304344 0.000000 " />
<path stroke-linejoin="round" stroke-linecap="round" stroke="rgb(255,0,0)" stroke-width="3.749996" fill="none" d="M 14.150932 99.056709 L 20.089275 140.625137 " />
<path stroke-linejoin="round" stroke-linecap="round" stroke="rgb(0,0,255)" stroke-width="1.874998" fill="none" d="M 0.000000 750.000000 L 8.064508 0.000000 " />
<path stroke-linejoin="round" stroke-linecap="round" stroke="rgb(255,0,0)" stroke-width="3.749996" fill="none" d="M 7.499993 52.500130 L 14.150932 99.056709 " />
<path stroke-linejoin="round" stroke-linecap="round" stroke="rgb(0,0,255)" stroke-width="1.874998" fill="none" d="M 0.000000 750.000000 L 0.000000 0.000000 " />
<path stroke-linejoin="round" stroke-linecap="round" stroke="rgb(255,0,0)" stroke-width="3.749996" fill="none" d="M 0.000000 0.000000 L 7.499993 52.500084 " />
<circle cx="186.778843" cy="744.951926" r="3.749996" style="fill:rgb(0,127,0);stroke-width:1" /><circle cx="181.730770" cy="739.903852" r="3.749996" style="fill:rgb(0,127,0);stroke-width:1" /><circle cx="177.439883" cy="735.612988" r="3.749996" style="fill:rgb(0,127,0);stroke-width:1" /><circle cx="172.644228" cy="730.817311" r="3.749996" style="fill:rgb(0,127,0);stroke-width:1" /><circle cx="167.848527" cy="726.021633" r="3.749996" style="fill:rgb(0,127,0);stroke-width:1" /><circle cx="163.052849" cy="721.225977" r="3.749996" style="fill:rgb(0,127,0);stroke-width:1" /><circle cx="159.855746" cy="718.028851" r="3.749996" style="fill:rgb(0,127,0);stroke-width:1" /><circle cx="158.257172" cy="716.430299" r="3.749996" style="fill:rgb(0,127,0);stroke-width:1" /><circle cx="153.461516" cy="711.634621" r="3.749996" style="fill:rgb(0,127,0);stroke-width:1" /><circle cx="148.665838" cy="706.838943" r="3.749996" style="fill:rgb(0,127,0);stroke-width:1" /><circle cx="143.870160" cy="702.043265" r="3.749996" style="fill:rgb(0,127,0);stroke-width:1" /><circle cx="141.586505" cy="699.759632" r="3.749996" style="fill:rgb(0,127,0);stroke-width:1" /><circle cx="139.074482" cy="697.247609" r="3.749996" style="fill:rgb(0,127,0);stroke-width:1" /><circle cx="134.278804" cy="692.451954" r="3.749996" style="fill:rgb(0,127,0);stroke-width:1" /><circle cx="132.451862" cy="690.625012" r="3.749996" style="fill:rgb(0,127,0);stroke-width:1" /><circle cx="129.483104" cy="687.656276" r="3.749996" style="fill:rgb(0,127,0);stroke-width:1" /><circle cx="124.687448" cy="682.860598" r="3.749996" style="fill:rgb(0,127,0);stroke-width:1" /><circle cx="119.891793" cy="678.064920" r="3.749996" style="fill:rgb(0,127,0);stroke-width:1" /><circle cx="115.096092" cy="673.269264" r="3.749996" style="fill:rgb(0,127,0);stroke-width:1" /><circle cx="114.182644" cy="672.355793" r="3.749996" style="fill:rgb(0,127,0);stroke-width:1" /><circle cx="110.300437" cy="668.473586" r="3.749996" style="fill:rgb(0,127,0);stroke-width:1" /><circle cx="105.504781" cy="663.677908" r="3.749996" style="fill:rgb(0,127,0);stroke-width:1" /><circle cx="105.048046" cy="663.221195" r="3.749996" style="fill:rgb(0,127,0);stroke-width:1" /><circle cx="100.709081" cy="658.882253" r="3.749996" style="fill:rgb(0,127,0);stroke-width:1" /><circle cx="95.913425" cy="654.086575" r="3.749996" style="fill:rgb(0,127,0);stroke-width:1" /><circle cx="92.532456" cy="647.727281" r="3.749996" style="fill:rgb(0,127,0);stroke-width:1" /><circle cx="91.216207" cy="638.513535" r="3.749996" style="fill:rgb(0,127,0);stroke-width:1" /><circle cx="90.000004" cy="630.000003" r="3.749996" style="fill:rgb(0,127,0);stroke-width:1" /><circle cx="89.788713" cy="628.521144" r="3.749996" style="fill:rgb(0,127,0);stroke-width:1" /><circle cx="88.235267" cy="617.647089" r="3.749996" style="fill:rgb(0,127,0);stroke-width:1" /><circle cx="86.538434" cy="605.769262" r="3.749996" style="fill:rgb(0,127,0);stroke-width:1" /><circle cx="84.677406" cy="592.741951" r="3.749996" style="fill:rgb(0,127,0);stroke-width:1" /><circle cx="82.627103" cy="578.389876" r="3.749996" style="fill:rgb(0,127,0);stroke-width:1" /><circle cx="81.249990" cy="568.750039" r="3.749996" style="fill:rgb(0,127,0);stroke-width:1" /><circle cx="79.918027" cy="559.426256" r="3.749996" style="fill:rgb(0,127,0);stroke-width:1" /><circle cx="78.629024" cy="550.403260" r="3.749996" style="fill:rgb(0,127,0);stroke-width:1" /><circle cx="70.866130" cy="496.063024" r="3.749996" style="fill:rgb(0,127,0);stroke-width:1" /><circle cx="68.181820" cy="477.272741" r="3.749996" style="fill:rgb(0,127,0);stroke-width:1" /><circle cx="65.217376" cy="456.521764" r="3.749996" style="fill:rgb(0,127,0);stroke-width:1" /><circle cx="62.499985" cy="437.500052" r="3.749996" style="fill:rgb(0,127,0);stroke-width:1" /><circle cx="58.510624" cy="409.574546" r="3.749996" style="fill:rgb(0,127,0);stroke-width:1" /><circle cx="50.847441" cy="355.932310" r="3.749996" style="fill:rgb(0,127,0);stroke-width:1" /><circle cx="46.875000" cy="328.125089" r="3.749996" style="fill:rgb(0,127,0);stroke-width:1" /><circle cx="46.511605" cy="325.581506" r="3.749996" style="fill:rgb(0,127,0);stroke-width:1" /><circle cx="42.682908" cy="298.780605" r="3.749996" style="fill:rgb(0,127,0);stroke-width:1" /><circle cx="40.909097" cy="286.363721" r="3.749996" style="fill:rgb(0,127,0);stroke-width:1" /><circle cx="36.057696" cy="252.403960" r="3.749996" style="fill:rgb(0,127,0);stroke-width:1" /><circle cx="30.612230" cy="214.285836" r="3.749996" style="fill:rgb(0,127,0);stroke-width:1" /><circle cx="29.999994" cy="210.000113" r="3.749996" style="fill:rgb(0,127,0);stroke-width:1" /><circle cx="28.301887" cy="198.113322" r="3.749996" style="fill:rgb(0,127,0);stroke-width:1" /><circle cx="27.777761" cy="194.444552" r="3.749996" style="fill:rgb(0,127,0);stroke-width:1" /><circle cx="27.573511" cy="193.014845" r="3.749996" style="fill:rgb(0,127,0);stroke-width:1" /><circle cx="25.423720" cy="177.966222" r="3.749996" style="fill:rgb(0,127,0);stroke-width:1" /><circle cx="24.999999" cy="175.000146" r="3.749996" style="fill:rgb(0,127,0);stroke-width:1" /><circle cx="20.089276" cy="140.625134" r="3.749996" style="fill:rgb(0,127,0);stroke-width:1" /><circle cx="14.150932" cy="99.056706" r="3.749996" style="fill:rgb(0,127,0);stroke-width:1" /><circle cx="7.499993" cy="52.500129" r="3.749996" style="fill:rgb(0,127,0);stroke-width:1" /><circle cx="750.000000" cy="750.000000" r="3.749996" style="fill:rgb(0,127,0);stroke-width:1" /><path stroke-linejoin="round" stroke-linecap="round" stroke="rgb(255,255,255)" stroke-width="3.749996" fill="none" d="M 0.000000 750.000000 L 750.000000 750.000000 M 0.000000 750.000000 L 0.000000 0.000000 " />

</svg>