<svg xmlns="http://www.w3.org/2000/svg" version="1.1" width = "750" height = "750" viewBox = "0 0 750 750"  shape-rendering="crispEdges">
<path stroke-linejoin="round" stroke-linecap="round" stroke="rgb(255,255,0)" stroke-width="3.749996" fill="none" d="M 107.142853 750.000000 L 0.000000 0.000000 " />
<path stroke-linejoin="round" stroke-linecap="round" stroke="rgb(63,63,63)" stroke-width="3.749996" fill="none" d="M 0.000000 0.000000 L 750.000000 750.000000 M 107.142853 750.000000 L 49.450546 0.000000 " />
<path stroke-linejoin="round" stroke-linecap="round" stroke="rgb(191,191,191)" stroke-width="3.749996" fill="none" d="M 0.000000 642.857178 L 107.142853 750.000000 M 0.000000 0.000000 L 57.692303 750.000000 " />
<path stroke-linejoin="round" stroke-linecap="round" stroke="rgb(0,0,255)" stroke-width="1.874998" fill="none" d="M 0.000000 750.000000 L 750.000000 733.333313 " />
<path stroke-linejoin="round" stroke-linecap="round" stroke="rgb(255,0,0)" stroke-width="3.749996" fill="none" d="M 106.960014 747.623108 L 107.142853 750.000000 " />
<path stroke-linejoin="round" stroke-linecap="round" stroke="rgb(0,0,255)" stroke-width="1.874998" fill="none" d="M 0.000000 750.000000 L 750.000000 717.391296 " />
<path stroke-linejoin="round" stroke-linecap="round" stroke="rgb(255,0,0)" stroke-width="3.749996" fill="none" d="M 106.397736 745.374023 L 106.960014 747.623108 " />
<path stroke-linejoin="round" stroke-linecap="round" stroke="rgb(0,0,255)" stroke-width="1.874998" fill="none" d="M 0.000000 750.000000 L 750.000000 715.909058 " />
<path stroke-linejoin="round" stroke-linecap="round" stroke="rgb(255,0,0)" stroke-width="3.749996" fill="none" d="M 106.345764 745.166138 L 106.397736 745.374023 " />
<path stroke-linejoin="round" stroke-linecap="round" stroke="rgb(0,0,255)" stroke-width="1.874998" fill="none" d="M 0.000000 750.000000 L 750.000000 697.674377 " />
<path stroke-linejoin="round" stroke-linecap="round" stroke="rgb(255,0,0)" stroke-width="3.749996" fill="none" d="M 105.710464 742.624817 L 106.345764 745.166138 " />
<path stroke-linejoin="round" stroke-linecap="round" stroke="rgb(0,0,255)" stroke-width="1.874998" fill="none" d="M 0.000000 750.000000 L 750.000000 678.571411 " />
<path stroke-linejoin="round" stroke-linecap="round" stroke="rgb(255,0,0)" stroke-width="3.749996" fill="none" d="M 105.052986 739.994934 L 105.710464 742.624817 " />
<path stroke-linejoin="round" stroke-linecap="round" stroke="rgb(0,0,255)" stroke-width="1.874998" fill="none" d="M 0.000000 750.000000 L 750.000000 658.536560 " />
<path stroke-linejoin="round" stroke-linecap="round" stroke="rgb(255,0,0)" stroke-width="3.749996" fill="none" d="M 104.372177 737.271667 L 105.052986 739.994934 " />
<path stroke-linejoin="round" stroke-linecap="round" stroke="rgb(0,0,255)" stroke-width="1.874998" fill="none" d="M 0.000000 750.000000 L 750.000000 642.857178 " />
<path stroke-linejoin="round" stroke-linecap="round" stroke="rgb(255,0,0)" stroke-width="3.749996" fill="none" d="M 103.845474 735.164917 L 104.372177 737.271667 " />
<path stroke-linejoin="round" stroke-linecap="round" stroke="rgb(0,0,255)" stroke-width="1.874998" fill="none" d="M 0.000000 750.000000 L 750.000000 637.500000 " />
<path stroke-linejoin="round" stroke-linecap="round" stroke="rgb(255,0,0)" stroke-width="3.749996" fill="none" d="M 103.666756 734.450012 L 103.845497 735.164917 " />
<path stroke-linejoin="round" stroke-linecap="round" stroke="rgb(0,0,255)" stroke-width="1.874998" fill="none" d="M 0.000000 750.000000 L 750.000000 621.951233 " />
<path stroke-linejoin="round" stroke-linecap="round" stroke="rgb(255,0,0)" stroke-width="3.749996" fill="none" d="M 103.151459 732.388794 L 103.666756 734.450012 " />
<path stroke-linejoin="round" stroke-linecap="round" stroke="rgb(0,0,255)" stroke-width="1.874998" fill="none" d="M 0.000000 750.000000 L 750.000000 600.000000 " />
<path stroke-linejoin="round" stroke-linecap="round" stroke="rgb(255,0,0)" stroke-width="3.749996" fill="none" d="M 102.432648 729.513489 L 103.151482 732.388794 " />
<path stroke-linejoin="round" stroke-linecap="round" stroke="rgb(0,0,255)" stroke-width="1.874998" fill="none" d="M 0.000000 750.000000 L 750.000000 585.365845 " />
<path stroke-linejoin="round" stroke-linecap="round" stroke="rgb(255,0,0)" stroke-width="3.749996" fill="none" d="M 101.958969 727.618774 L 102.432648 729.513489 " />
<path stroke-linejoin="round" stroke-linecap="round" stroke="rgb(0,0,255)" stroke-width="1.874998" fill="none" d="M 0.000000 750.000000 L 750.000000 576.923096 " />
<path stroke-linejoin="round" stroke-linecap="round" stroke="rgb(255,0,0)" stroke-width="3.749996" fill="none" d="M 101.687683 726.533630 L 101.958992 727.618774 " />
<path stroke-linejoin="round" stroke-linecap="round" stroke="rgb(0,0,255)" stroke-width="1.874998" fill="none" d="M 0.000000 750.000000 L 750.000000 552.631592 " />
<path stroke-linejoin="round" stroke-linecap="round" stroke="rgb(255,0,0)" stroke-width="3.749996" fill="none" d="M 100.915138 723.443359 L 101.687683 726.533630 " />
<path stroke-linejoin="round" stroke-linecap="round" stroke="rgb(0,0,255)" stroke-width="1.874998" fill="none" d="M 0.000000 750.000000 L 750.000000 538.461487 " />
<path stroke-linejoin="round" stroke-linecap="round" stroke="rgb(255,0,0)" stroke-width="3.749996" fill="none" d="M 100.469872 721.662354 L 100.915138 723.443359 " />
<path stroke-linejoin="round" stroke-linecap="round" stroke="rgb(0,0,255)" stroke-width="1.874998" fill="none" d="M 0.000000 750.000000 L 750.000000 513.157898 " />
<path stroke-linejoin="round" stroke-linecap="round" stroke="rgb(255,0,0)" stroke-width="3.749996" fill="none" d="M 99.684479 718.520691 L 100.469894 721.662354 " />
<path stroke-linejoin="round" stroke-linecap="round" stroke="rgb(0,0,255)" stroke-width="1.874998" fill="none" d="M 0.000000 750.000000 L 750.000000 486.486450 " />
<path stroke-linejoin="round" stroke-linecap="round" stroke="rgb(255,0,0)" stroke-width="3.749996" fill="none" d="M 98.869797 715.262024 L 99.684479 718.520691 " />
<path stroke-linejoin="round" stroke-linecap="round" stroke="rgb(0,0,255)" stroke-width="1.874998" fill="none" d="M 0.000000 750.000000 L 750.000000 458.333344 " />
<path stroke-linejoin="round" stroke-linecap="round" stroke="rgb(255,0,0)" stroke-width="3.749996" fill="none" d="M 98.024193 711.879456 L 98.869797 715.261963 " />
<path stroke-linejoin="round" stroke-linecap="round" stroke="rgb(0,0,255)" stroke-width="1.874998" fill="none" d="M 0.000000 750.000000 L 750.000000 428.571411 " />
<path stroke-linejoin="round" stroke-linecap="round" stroke="rgb(255,0,0)" stroke-width="3.749996" fill="none" d="M 97.145836 708.366089 L 98.024193 711.879456 " />
<path stroke-linejoin="round" stroke-linecap="round" stroke="rgb(0,0,255)" stroke-width="1.874998" fill="none" d="M 0.000000 750.000000 L 750.000000 397.058838 " />
<path stroke-linejoin="round" stroke-linecap="round" stroke="rgb(255,0,0)" stroke-width="3.749996" fill="none" d="M 96.232811 704.713989 L 97.145836 708.366089 " />
<path stroke-linejoin="round" stroke-linecap="round" stroke="rgb(0,0,255)" stroke-width="1.874998" fill="none" d="M 0.000000 750.000000 L 750.000000 363.636383 " />
<path stroke-linejoin="round" stroke-linecap="round" stroke="rgb(255,0,0)" stroke-width="3.749996" fill="none" d="M 95.283020 700.914795 L 96.232811 704.713989 " />
<path stroke-linejoin="round" stroke-linecap="round" stroke="rgb(0,0,255)" stroke-width="1.874998" fill="none" d="M 0.000000 750.000000 L 750.000000 328.125000 " />
<path stroke-linejoin="round" stroke-linecap="round" stroke="rgb(255,0,0)" stroke-width="3.749996" fill="none" d="M 94.294197 696.959473 L 95.283020 700.914795 " />
<path stroke-linejoin="round" stroke-linecap="round" stroke="rgb(0,0,255)" stroke-width="1.874998" fill="none" d="M 0.000000 750.000000 L 750.000000 318.181824 " />
<path stroke-linejoin="round" stroke-linecap="round" stroke="rgb(255,0,0)" stroke-width="3.749996" fill="none" d="M 94.020996 695.866699 L 94.294197 696.959473 " />
<path stroke-linejoin="round" stroke-linecap="round" stroke="rgb(0,0,255)" stroke-width="1.874998" fill="none" d="M 0.000000 750.000000 L 750.000000 281.250000 " />
<path stroke-linejoin="round" stroke-linecap="round" stroke="rgb(255,0,0)" stroke-width="3.749996" fill="none" d="M 93.019951 691.862549 L 94.020996 695.866699 " />
<path stroke-linejoin="round" stroke-linecap="round" stroke="rgb(0,0,255)" stroke-width="1.874998" fill="none" d="M 0.000000 750.000000 L 750.000000 241.935471 " />
<path stroke-linejoin="round" stroke-linecap="round" stroke="rgb(255,0,0)" stroke-width="3.749996" fill="none" d="M 91.977486 687.692627 L 93.019951 691.862549 " />
<path stroke-linejoin="round" stroke-linecap="round" stroke="rgb(0,0,255)" stroke-width="1.874998" fill="none" d="M 0.000000 750.000000 L 750.000000 199.999985 " />
<path stroke-linejoin="round" stroke-linecap="round" stroke="rgb(255,0,0)" stroke-width="3.749996" fill="none" d="M 90.890968 683.346619 L 91.977509 687.692627 " />
<path stroke-linejoin="round" stroke-linecap="round" stroke="rgb(0,0,255)" stroke-width="1.874998" fill="none" d="M 0.000000 750.000000 L 750.000000 193.548386 " />
<path stroke-linejoin="round" stroke-linecap="round" stroke="rgb(255,0,0)" stroke-width="3.749996" fill="none" d="M 90.726097 682.687134 L 90.890968 683.346619 " />
<path stroke-linejoin="round" stroke-linecap="round" stroke="rgb(0,0,255)" stroke-width="1.874998" fill="none" d="M 0.000000 750.000000 L 750.000000 149.999985 " />
<path stroke-linejoin="round" stroke-linecap="round" stroke="rgb(255,0,0)" stroke-width="3.749996" fill="none" d="M 89.628586 678.297119 L 90.726097 682.687134 " />
<path stroke-linejoin="round" stroke-linecap="round" stroke="rgb(0,0,255)" stroke-width="1.874998" fill="none" d="M 0.000000 750.000000 L 750.000000 103.448288 " />
<path stroke-linejoin="round" stroke-linecap="round" stroke="rgb(255,0,0)" stroke-width="3.749996" fill="none" d="M 88.484398 673.720337 L 89.628586 678.297119 " />
<path stroke-linejoin="round" stroke-linecap="round" stroke="rgb(0,0,255)" stroke-width="1.874998" fill="none" d="M 0.000000 750.000000 L 750.000000 53.571449 " />
<path stroke-linejoin="round" stroke-linecap="round" stroke="rgb(255,0,0)" stroke-width="3.749996" fill="none" d="M 87.290459 668.944580 L 88.484398 673.720337 " />
<path stroke-linejoin="round" stroke-linecap="round" stroke="rgb(0,0,255)" stroke-width="1.874998" fill="none" d="M 0.000000 750.000000 L 750.000000 51.724121 " />
<path stroke-linejoin="round" stroke-linecap="round" stroke="rgb(255,0,0)" stroke-width="3.749996" fill="none" d="M 87.246872 668.770203 L 87.290459 668.944519 " />
<path stroke-linejoin="round" stroke-linecap="round" stroke="rgb(0,0,255)" stroke-width="1.874998" fill="none" d="M 0.000000 750.000000 L 750.000000 0.000000 " />
<path stroke-linejoin="round" stroke-linecap="round" stroke="rgb(255,0,0)" stroke-width="3.749996" fill="none" d="M 86.043457 663.956543 L 87.246872 668.770203 " />
<path stroke-linejoin="round" stroke-linecap="round" stroke="rgb(0,0,255)" stroke-width="1.874998" fill="none" d="M 0.000000 750.000000 L 696.428528 0.000000 " />
<path stroke-linejoin="round" stroke-linecap="round" stroke="rgb(255,0,0)" stroke-width="3.749996" fill="none" d="M 84.739769 658.741760 L 86.043457 663.956543 " />
<path stroke-linejoin="round" stroke-linecap="round" stroke="rgb(0,0,255)" stroke-width="1.874998" fill="none" d="M 0.000000 750.000000 L 650.000000 0.000000 " />
<path stroke-linejoin="round" stroke-linecap="round" stroke="rgb(255,0,0)" stroke-width="3.749996" fill="none" d="M 83.474991 653.682678 L 84.739769 658.741760 " />
<path stroke-linejoin="round" stroke-linecap="round" stroke="rgb(0,0,255)" stroke-width="1.874998" fill="none" d="M 0.000000 750.000000 L 609.374939 0.000000 " />
<path stroke-linejoin="round" stroke-linecap="round" stroke="rgb(255,0,0)" stroke-width="3.749996" fill="none" d="M 82.247414 648.772400 L 83.474991 653.682678 " />
<path stroke-linejoin="round" stroke-linecap="round" stroke="rgb(0,0,255)" stroke-width="1.874998" fill="none" d="M 0.000000 750.000000 L 568.181824 0.000000 " />
<path stroke-linejoin="round" stroke-linecap="round" stroke="rgb(255,0,0)" stroke-width="3.749996" fill="none" d="M 80.867912 643.254333 L 82.247414 648.772400 " />
<path stroke-linejoin="round" stroke-linecap="round" stroke="rgb(0,0,255)" stroke-width="1.874998" fill="none" d="M 0.000000 750.000000 L 529.411804 0.000000 " />
<path stroke-linejoin="round" stroke-linecap="round" stroke="rgb(255,0,0)" stroke-width="3.749996" fill="none" d="M 79.424744 637.481628 L 80.867912 643.254333 " />
<path stroke-linejoin="round" stroke-linecap="round" stroke="rgb(0,0,255)" stroke-width="1.874998" fill="none" d="M 0.000000 750.000000 L 500.000000 0.000000 " />
<path stroke-linejoin="round" stroke-linecap="round" stroke="rgb(255,0,0)" stroke-width="3.749996" fill="none" d="M 78.221329 632.668030 L 79.424744 637.481628 " />
<path stroke-linejoin="round" stroke-linecap="round" stroke="rgb(0,0,255)" stroke-width="1.874998" fill="none" d="M 0.000000 750.000000 L 492.857147 0.000000 " />
<path stroke-linejoin="round" stroke-linecap="round" stroke="rgb(255,0,0)" stroke-width="3.749996" fill="none" d="M 77.913368 631.436157 L 78.221329 632.668030 " />
<path stroke-linejoin="round" stroke-linecap="round" stroke="rgb(0,0,255)" stroke-width="1.874998" fill="none" d="M 0.000000 750.000000 L 458.333344 0.000000 " />
<path stroke-linejoin="round" stroke-linecap="round" stroke="rgb(255,0,0)" stroke-width="3.749996" fill="none" d="M 76.328873 625.098206 L 77.913368 631.436157 " />
<path stroke-linejoin="round" stroke-linecap="round" stroke="rgb(0,0,255)" stroke-width="1.874998" fill="none" d="M 0.000000 750.000000 L 434.210510 0.000000 " />
<path stroke-linejoin="round" stroke-linecap="round" stroke="rgb(255,0,0)" stroke-width="3.749996" fill="none" d="M 75.117294 620.251892 L 76.328873 625.098206 " />
<path stroke-linejoin="round" stroke-linecap="round" stroke="rgb(0,0,255)" stroke-width="1.874998" fill="none" d="M 0.000000 750.000000 L 412.500000 0.000000 " />
<path stroke-linejoin="round" stroke-linecap="round" stroke="rgb(255,0,0)" stroke-width="3.749996" fill="none" d="M 73.943611 615.557068 L 75.117294 620.251892 " />
<path stroke-linejoin="round" stroke-linecap="round" stroke="rgb(0,0,255)" stroke-width="1.874998" fill="none" d="M 0.000000 750.000000 L 392.857178 0.000000 " />
<path stroke-linejoin="round" stroke-linecap="round" stroke="rgb(255,0,0)" stroke-width="3.749996" fill="none" d="M 72.805992 611.006714 L 73.943588 615.557129 " />
<path stroke-linejoin="round" stroke-linecap="round" stroke="rgb(0,0,255)" stroke-width="1.874998" fill="none" d="M 0.000000 750.000000 L 375.000000 0.000000 " />
<path stroke-linejoin="round" stroke-linecap="round" stroke="rgb(255,0,0)" stroke-width="3.749996" fill="none" d="M 71.702888 606.594238 L 72.805992 611.006714 " />
<path stroke-linejoin="round" stroke-linecap="round" stroke="rgb(0,0,255)" stroke-width="1.874998" fill="none" d="M 0.000000 750.000000 L 358.695648 0.000000 " />
<path stroke-linejoin="round" stroke-linecap="round" stroke="rgb(255,0,0)" stroke-width="3.749996" fill="none" d="M 70.632690 602.313477 L 71.702888 606.594238 " />
<path stroke-linejoin="round" stroke-linecap="round" stroke="rgb(0,0,255)" stroke-width="1.874998" fill="none" d="M 0.000000 750.000000 L 343.750000 0.000000 " />
<path stroke-linejoin="round" stroke-linecap="round" stroke="rgb(255,0,0)" stroke-width="3.749996" fill="none" d="M 69.593979 598.158569 L 70.632690 602.313477 " />
<path stroke-linejoin="round" stroke-linecap="round" stroke="rgb(0,0,255)" stroke-width="1.874998" fill="none" d="M 0.000000 750.000000 L 330.000000 0.000000 " />
<path stroke-linejoin="round" stroke-linecap="round" stroke="rgb(255,0,0)" stroke-width="3.749996" fill="none" d="M 68.585381 594.124146 L 69.593979 598.158569 " />
<path stroke-linejoin="round" stroke-linecap="round" stroke="rgb(0,0,255)" stroke-width="1.874998" fill="none" d="M 0.000000 750.000000 L 317.307709 0.000000 " />
<path stroke-linejoin="round" stroke-linecap="round" stroke="rgb(255,0,0)" stroke-width="3.749996" fill="none" d="M 67.605591 590.204956 L 68.585381 594.124146 " />
<path stroke-linejoin="round" stroke-linecap="round" stroke="rgb(0,0,255)" stroke-width="1.874998" fill="none" d="M 0.000000 750.000000 L 297.169830 0.000000 " />
<path stroke-linejoin="round" stroke-linecap="round" stroke="rgb(255,0,0)" stroke-width="3.749996" fill="none" d="M 65.945732 583.565552 L 67.605591 590.204956 " />
<path stroke-linejoin="round" stroke-linecap="round" stroke="rgb(0,0,255)" stroke-width="1.874998" fill="none" d="M 0.000000 750.000000 L 277.777771 0.000000 " />
<path stroke-linejoin="round" stroke-linecap="round" stroke="rgb(255,0,0)" stroke-width="3.749996" fill="none" d="M 64.211548 576.628845 L 65.945732 583.565552 " />
<path stroke-linejoin="round" stroke-linecap="round" stroke="rgb(0,0,255)" stroke-width="1.874998" fill="none" d="M 0.000000 750.000000 L 267.857147 0.000000 " />
<path stroke-linejoin="round" stroke-linecap="round" stroke="rgb(255,0,0)" stroke-width="3.749996" fill="none" d="M 63.267254 572.851746 L 64.211548 576.628845 " />
<path stroke-linejoin="round" stroke-linecap="round" stroke="rgb(0,0,255)" stroke-width="1.874998" fill="none" d="M 0.000000 750.000000 L 250.000000 0.000000 " />
<path stroke-linejoin="round" stroke-linecap="round" stroke="rgb(255,0,0)" stroke-width="3.749996" fill="none" d="M 61.459621 565.621155 L 63.267254 572.851746 " />
<path stroke-linejoin="round" stroke-linecap="round" stroke="rgb(0,0,255)" stroke-width="1.874998" fill="none" d="M 0.000000 750.000000 L 232.758606 0.000000 " />
<path stroke-linejoin="round" stroke-linecap="round" stroke="rgb(255,0,0)" stroke-width="3.749996" fill="none" d="M 59.568554 558.056946 L 61.459621 565.621155 " />
<path stroke-linejoin="round" stroke-linecap="round" stroke="rgb(0,0,255)" stroke-width="1.874998" fill="none" d="M 0.000000 750.000000 L 225.000015 0.000000 " />
<path stroke-linejoin="round" stroke-linecap="round" stroke="rgb(255,0,0)" stroke-width="3.749996" fill="none" d="M 58.665993 554.446655 L 59.568554 558.056946 " />
<path stroke-linejoin="round" stroke-linecap="round" stroke="rgb(0,0,255)" stroke-width="1.874998" fill="none" d="M 0.000000 750.000000 L 217.741928 0.000000 " />
<path stroke-linejoin="round" stroke-linecap="round" stroke="rgb(255,0,0)" stroke-width="3.749996" fill="none" d="M 57.790382 550.944214 L 58.665993 554.446655 " />
<path stroke-linejoin="round" stroke-linecap="round" stroke="rgb(0,0,255)" stroke-width="1.874998" fill="none" d="M 0.000000 750.000000 L 195.652176 0.000000 " />
<path stroke-linejoin="round" stroke-linecap="round" stroke="rgb(255,0,0)" stroke-width="3.749996" fill="none" d="M 56.165749 534.697937 L 57.790382 550.944214 " />
<path stroke-linejoin="round" stroke-linecap="round" stroke="rgb(0,0,255)" stroke-width="1.874998" fill="none" d="M 0.000000 750.000000 L 190.140839 0.000000 " />
<path stroke-linejoin="round" stroke-linecap="round" stroke="rgb(255,0,0)" stroke-width="3.749996" fill="none" d="M 55.718220 530.222595 L 56.165749 534.697937 " />
<path stroke-linejoin="round" stroke-linecap="round" stroke="rgb(0,0,255)" stroke-width="1.874998" fill="none" d="M 0.000000 750.000000 L 157.407410 0.000000 " />
<path stroke-linejoin="round" stroke-linecap="round" stroke="rgb(255,0,0)" stroke-width="3.749996" fill="none" d="M 52.622772 499.268005 L 55.718220 530.222595 " />
<path stroke-linejoin="round" stroke-linecap="round" stroke="rgb(0,0,255)" stroke-width="1.874998" fill="none" d="M 0.000000 750.000000 L 131.868118 0.000000 " />
<path stroke-linejoin="round" stroke-linecap="round" stroke="rgb(255,0,0)" stroke-width="3.749996" fill="none" d="M 49.527302 468.313416 L 52.622772 499.268005 " />
<path stroke-linejoin="round" stroke-linecap="round" stroke="rgb(0,0,255)" stroke-width="1.874998" fill="none" d="M 0.000000 750.000000 L 126.237633 0.000000 " />
<path stroke-linejoin="round" stroke-linecap="round" stroke="rgb(255,0,0)" stroke-width="3.749996" fill="none" d="M 48.739159 460.432037 L 49.527302 468.313416 " />
<path stroke-linejoin="round" stroke-linecap="round" stroke="rgb(0,0,255)" stroke-width="1.874998" fill="none" d="M 0.000000 750.000000 L 105.882347 0.000000 " />
<path stroke-linejoin="round" stroke-linecap="round" stroke="rgb(255,0,0)" stroke-width="3.749996" fill="none" d="M 45.480564 427.846008 L 48.739159 460.432037 " />
<path stroke-linejoin="round" stroke-linecap="round" stroke="rgb(0,0,255)" stroke-width="1.874998" fill="none" d="M 0.000000 750.000000 L 86.842102 0.000000 " />
<path stroke-linejoin="round" stroke-linecap="round" stroke="rgb(255,0,0)" stroke-width="3.749996" fill="none" d="M 41.690514 389.945526 L 45.480564 427.846008 " />
<path stroke-linejoin="round" stroke-linecap="round" stroke="rgb(0,0,255)" stroke-width="1.874998" fill="none" d="M 0.000000 750.000000 L 85.714279 0.000000 " />
<path stroke-linejoin="round" stroke-linecap="round" stroke="rgb(255,0,0)" stroke-width="3.749996" fill="none" d="M 41.437851 387.418854 L 41.690514 389.945526 " />
<path stroke-linejoin="round" stroke-linecap="round" stroke="rgb(0,0,255)" stroke-width="1.874998" fill="none" d="M 0.000000 750.000000 L 77.830193 0.000000 " />
<path stroke-linejoin="round" stroke-linecap="round" stroke="rgb(255,0,0)" stroke-width="3.749996" fill="none" d="M 39.567390 368.714233 L 41.437851 387.418854 " />
<path stroke-linejoin="round" stroke-linecap="round" stroke="rgb(0,0,255)" stroke-width="1.874998" fill="none" d="M 0.000000 750.000000 L 64.655159 0.000000 " />
<path stroke-linejoin="round" stroke-linecap="round" stroke="rgb(255,0,0)" stroke-width="3.749996" fill="none" d="M 35.970345 332.743866 L 39.567390 368.714233 " />
<path stroke-linejoin="round" stroke-linecap="round" stroke="rgb(0,0,255)" stroke-width="1.874998" fill="none" d="M 0.000000 750.000000 L 62.500008 0.000000 " />
<path stroke-linejoin="round" stroke-linecap="round" stroke="rgb(255,0,0)" stroke-width="3.749996" fill="none" d="M 35.316357 326.203857 L 35.970345 332.743866 " />
<path stroke-linejoin="round" stroke-linecap="round" stroke="rgb(0,0,255)" stroke-width="1.874998" fill="none" d="M 0.000000 750.000000 L 53.571426 0.000000 " />
<path stroke-linejoin="round" stroke-linecap="round" stroke="rgb(255,0,0)" stroke-width="3.749996" fill="none" d="M 32.373325 296.773499 L 35.316357 326.203857 " />
<path stroke-linejoin="round" stroke-linecap="round" stroke="rgb(0,0,255)" stroke-width="1.874998" fill="none" d="M 0.000000 750.000000 L 44.117645 0.000000 " />
<path stroke-linejoin="round" stroke-linecap="round" stroke="rgb(255,0,0)" stroke-width="3.749996" fill="none" d="M 28.776281 260.803131 L 32.373325 296.773499 " />
<path stroke-linejoin="round" stroke-linecap="round" stroke="rgb(0,0,255)" stroke-width="1.874998" fill="none" d="M 0.000000 750.000000 L 35.958900 0.000000 " />
<path stroke-linejoin="round" stroke-linecap="round" stroke="rgb(255,0,0)" stroke-width="3.749996" fill="none" d="M 25.179237 224.832825 L 28.776281 260.803131 " />
<path stroke-linejoin="round" stroke-linecap="round" stroke="rgb(0,0,255)" stroke-width="1.874998" fill="none" d="M 0.000000 750.000000 L 35.000011 0.000000 " />
<path stroke-linejoin="round" stroke-linecap="round" stroke="rgb(255,0,0)" stroke-width="3.749996" fill="none" d="M 24.721451 220.254776 L 25.179237 224.832825 " />
<path stroke-linejoin="round" stroke-linecap="round" stroke="rgb(0,0,255)" stroke-width="1.874998" fill="none" d="M 0.000000 750.000000 L 33.439503 0.000000 " />
<path stroke-linejoin="round" stroke-linecap="round" stroke="rgb(255,0,0)" stroke-width="3.749996" fill="none" d="M 23.959101 212.631500 L 24.721451 220.254776 " />
<path stroke-linejoin="round" stroke-linecap="round" stroke="rgb(0,0,255)" stroke-width="1.874998" fill="none" d="M 0.000000 750.000000 L 33.018864 0.000000 " />
<path stroke-linejoin="round" stroke-linecap="round" stroke="rgb(255,0,0)" stroke-width="3.749996" fill="none" d="M 23.749844 210.539062 L 23.959101 212.631500 " />
<path stroke-linejoin="round" stroke-linecap="round" stroke="rgb(0,0,255)" stroke-width="1.874998" fill="none" d="M 0.000000 750.000000 L 32.608688 0.000000 " />
<path stroke-linejoin="round" stroke-linecap="round" stroke="rgb(255,0,0)" stroke-width="3.749996" fill="none" d="M 23.544230 208.482834 L 23.749844 210.539062 " />
<path stroke-linejoin="round" stroke-linecap="round" stroke="rgb(0,0,255)" stroke-width="1.874998" fill="none" d="M 0.000000 750.000000 L 32.208591 0.000000 " />
<path stroke-linejoin="round" stroke-linecap="round" stroke="rgb(255,0,0)" stroke-width="3.749996" fill="none" d="M 23.342125 206.461838 L 23.544230 208.482834 " />
<path stroke-linejoin="round" stroke-linecap="round" stroke="rgb(0,0,255)" stroke-width="1.874998" fill="none" d="M 0.000000 750.000000 L 31.626507 0.000000 " />
<path stroke-linejoin="round" stroke-linecap="round" stroke="rgb(255,0,0)" stroke-width="3.749996" fill="none" d="M 23.045406 203.494705 L 23.342125 206.461838 " />
<path stroke-linejoin="round" stroke-linecap="round" stroke="rgb(0,0,255)" stroke-width="1.874998" fill="none" d="M 0.000000 750.000000 L 31.437120 0.000000 " />
<path stroke-linejoin="round" stroke-linecap="round" stroke="rgb(255,0,0)" stroke-width="3.749996" fill="none" d="M 22.948175 202.522354 L 23.045406 203.494751 " />
<path stroke-linejoin="round" stroke-linecap="round" stroke="rgb(0,0,255)" stroke-width="1.874998" fill="none" d="M 0.000000 750.000000 L 30.882351 0.000000 " />
<path stroke-linejoin="round" stroke-linecap="round" stroke="rgb(255,0,0)" stroke-width="3.749996" fill="none" d="M 22.661314 199.653778 L 22.948175 202.522354 " />
<path stroke-linejoin="round" stroke-linecap="round" stroke="rgb(0,0,255)" stroke-width="1.874998" fill="none" d="M 0.000000 750.000000 L 27.272724 0.000000 " />
<path stroke-linejoin="round" stroke-linecap="round" stroke="rgb(255,0,0)" stroke-width="3.749996" fill="none" d="M 20.718925 180.229782 L 22.661314 199.653717 " />
<path stroke-linejoin="round" stroke-linecap="round" stroke="rgb(0,0,255)" stroke-width="1.874998" fill="none" d="M 0.000000 750.000000 L 21.428570 0.000000 " />
<path stroke-linejoin="round" stroke-linecap="round" stroke="rgb(255,0,0)" stroke-width="3.749996" fill="none" d="M 17.265759 145.698257 L 20.718925 180.229782 " />
<path stroke-linejoin="round" stroke-linecap="round" stroke="rgb(0,0,255)" stroke-width="1.874998" fill="none" d="M 0.000000 750.000000 L 16.216211 0.000000 " />
<path stroke-linejoin="round" stroke-linecap="round" stroke="rgb(255,0,0)" stroke-width="3.749996" fill="none" d="M 13.812616 111.166725 L 17.265759 145.698257 " />
<path stroke-linejoin="round" stroke-linecap="round" stroke="rgb(0,0,255)" stroke-width="1.874998" fill="none" d="M 0.000000 750.000000 L 16.042784 0.000000 " />
<path stroke-linejoin="round" stroke-linecap="round" stroke="rgb(255,0,0)" stroke-width="3.749996" fill="none" d="M 13.690911 109.949715 L 13.812616 111.166725 " />
<path stroke-linejoin="round" stroke-linecap="round" stroke="rgb(0,0,255)" stroke-width="1.874998" fill="none" d="M 0.000000 750.000000 L 15.228420 0.000000 " />
<path stroke-linejoin="round" stroke-linecap="round" stroke="rgb(255,0,0)" stroke-width="3.749996" fill="none" d="M 13.113231 104.172951 L 13.690911 109.949715 " />
<path stroke-linejoin="round" stroke-linecap="round" stroke="rgb(0,0,255)" stroke-width="1.874998" fill="none" d="M 0.000000 750.000000 L 14.925376 0.000000 " />
<path stroke-linejoin="round" stroke-linecap="round" stroke="rgb(255,0,0)" stroke-width="3.749996" fill="none" d="M 12.895592 101.996544 L 13.113231 104.172951 " />
<path stroke-linejoin="round" stroke-linecap="round" stroke="rgb(0,0,255)" stroke-width="1.874998" fill="none" d="M 0.000000 750.000000 L 14.778323 0.000000 " />
<path stroke-linejoin="round" stroke-linecap="round" stroke="rgb(255,0,0)" stroke-width="3.749996" fill="none" d="M 12.789443 100.935211 L 12.895592 101.996544 " />
<path stroke-linejoin="round" stroke-linecap="round" stroke="rgb(0,0,255)" stroke-width="1.874998" fill="none" d="M 0.000000 750.000000 L 10.563389 0.000000 " />
<path stroke-linejoin="round" stroke-linecap="round" stroke="rgb(255,0,0)" stroke-width="3.749996" fill="none" d="M 9.592093 68.961624 L 12.789443 100.935257 " />
<path stroke-linejoin="round" stroke-linecap="round" stroke="rgb(0,0,255)" stroke-width="1.874998" fill="none" d="M 0.000000 750.000000 L 6.726466 0.000000 " />
<path stroke-linejoin="round" stroke-linecap="round" stroke="rgb(255,0,0)" stroke-width="3.749996" fill="none" d="M 6.394722 36.988022 L 9.592093 68.961624 " />
<path stroke-linejoin="round" stroke-linecap="round" stroke="rgb(0,0,255)" stroke-width="1.874998" fill="none" d="M 0.000000 750.000000 L 3.218874 0.000000 " />
<path stroke-linejoin="round" stroke-linecap="round" stroke="rgb(255,0,0)" stroke-width="3.749996" fill="none" d="M 3.173411 10.593698 L 6.394722 36.988022 " />
<path stroke-linejoin="round" stroke-linecap="round" stroke="rgb(0,0,255)" stroke-width="1.874998" fill="none" d="M 0.000000 750.000000 L 0.000000 0.000000 " />
<path stroke-linejoin="round" stroke-linecap="round" stroke="rgb(255,0,0)" stroke-width="3.749996" fill="none" d="M 0.000000 0.000000 L 3.173411 10.593764 " />
<circle cx="106.960014" cy="747.623116" r="3.749996" style="fill:rgb(0,127,0);stroke-width:1" /><circle cx="106.397733" cy="745.374016" r="3.749996" style="fill:rgb(0,127,0);stroke-width:1" /><circle cx="106.345765" cy="745.166101" r="3.749996" style="fill:rgb(0,127,0);stroke-width:1" /><circle cx="105.710462" cy="742.624842" r="3.749996" style="fill:rgb(0,127,0);stroke-width:1" /><circle cx="105.052985" cy="739.994958" r="3.749996" style="fill:rgb(0,127,0);stroke-width:1" /><circle cx="104.372174" cy="737.271689" r="3.749996" style="fill:rgb(0,127,0);stroke-width:1" /><circle cx="103.845477" cy="735.164925" r="3.749996" style="fill:rgb(0,127,0);stroke-width:1" /><circle cx="103.666753" cy="734.449983" r="3.749996" style="fill:rgb(0,127,0);stroke-width:1" /><circle cx="103.151456" cy="732.388772" r="3.749996" style="fill:rgb(0,127,0);stroke-width:1" /><circle cx="102.432646" cy="729.513466" r="3.749996" style="fill:rgb(0,127,0);stroke-width:1" /><circle cx="101.958968" cy="727.618754" r="3.749996" style="fill:rgb(0,127,0);stroke-width:1" /><circle cx="101.687685" cy="726.533622" r="3.749996" style="fill:rgb(0,127,0);stroke-width:1" /><circle cx="100.915141" cy="723.443381" r="3.749996" style="fill:rgb(0,127,0);stroke-width:1" /><circle cx="100.469872" cy="721.662350" r="3.749996" style="fill:rgb(0,127,0);stroke-width:1" /><circle cx="99.684477" cy="718.520701" r="3.749996" style="fill:rgb(0,127,0);stroke-width:1" /><circle cx="98.869801" cy="715.261973" r="3.749996" style="fill:rgb(0,127,0);stroke-width:1" /><circle cx="98.024189" cy="711.879484" r="3.749996" style="fill:rgb(0,127,0);stroke-width:1" /><circle cx="97.145833" cy="708.366081" r="3.749996" style="fill:rgb(0,127,0);stroke-width:1" /><circle cx="96.232809" cy="704.713985" r="3.749996" style="fill:rgb(0,127,0);stroke-width:1" /><circle cx="95.283017" cy="700.914815" r="3.749996" style="fill:rgb(0,127,0);stroke-width:1" /><circle cx="94.294198" cy="696.959518" r="3.749996" style="fill:rgb(0,127,0);stroke-width:1" /><circle cx="94.020993" cy="695.866697" r="3.749996" style="fill:rgb(0,127,0);stroke-width:1" /><circle cx="93.019947" cy="691.862538" r="3.749996" style="fill:rgb(0,127,0);stroke-width:1" /><circle cx="91.977485" cy="687.692665" r="3.749996" style="fill:rgb(0,127,0);stroke-width:1" /><circle cx="90.890966" cy="683.346614" r="3.749996" style="fill:rgb(0,127,0);stroke-width:1" /><circle cx="90.726100" cy="682.687081" r="3.749996" style="fill:rgb(0,127,0);stroke-width:1" /><circle cx="89.628585" cy="678.297132" r="3.749996" style="fill:rgb(0,127,0);stroke-width:1" /><circle cx="88.484399" cy="673.720345" r="3.749996" style="fill:rgb(0,127,0);stroke-width:1" /><circle cx="87.290458" cy="668.944582" r="3.749996" style="fill:rgb(0,127,0);stroke-width:1" /><circle cx="87.246872" cy="668.770172" r="3.749996" style="fill:rgb(0,127,0);stroke-width:1" /><circle cx="86.043455" cy="663.956545" r="3.749996" style="fill:rgb(0,127,0);stroke-width:1" /><circle cx="84.739767" cy="658.741795" r="3.749996" style="fill:rgb(0,127,0);stroke-width:1" /><circle cx="83.474994" cy="653.682701" r="3.749996" style="fill:rgb(0,127,0);stroke-width:1" /><circle cx="82.247414" cy="648.772404" r="3.749996" style="fill:rgb(0,127,0);stroke-width:1" /><circle cx="80.867909" cy="643.254362" r="3.749996" style="fill:rgb(0,127,0);stroke-width:1" /><circle cx="79.424746" cy="637.481622" r="3.749996" style="fill:rgb(0,127,0);stroke-width:1" /><circle cx="78.221329" cy="632.667996" r="3.749996" style="fill:rgb(0,127,0);stroke-width:1" /><circle cx="77.913366" cy="631.436169" r="3.749996" style="fill:rgb(0,127,0);stroke-width:1" /><circle cx="76.328874" cy="625.098199" r="3.749996" style="fill:rgb(0,127,0);stroke-width:1" /><circle cx="75.117297" cy="620.251916" r="3.749996" style="fill:rgb(0,127,0);stroke-width:1" /><circle cx="73.943608" cy="615.557089" r="3.749996" style="fill:rgb(0,127,0);stroke-width:1" /><circle cx="72.805993" cy="611.006722" r="3.749996" style="fill:rgb(0,127,0);stroke-width:1" /><circle cx="71.702890" cy="606.594242" r="3.749996" style="fill:rgb(0,127,0);stroke-width:1" /><circle cx="70.632689" cy="602.313481" r="3.749996" style="fill:rgb(0,127,0);stroke-width:1" /><circle cx="69.593981" cy="598.158583" r="3.749996" style="fill:rgb(0,127,0);stroke-width:1" /><circle cx="68.585381" cy="594.124161" r="3.749996" style="fill:rgb(0,127,0);stroke-width:1" /><circle cx="67.605592" cy="590.205006" r="3.749996" style="fill:rgb(0,127,0);stroke-width:1" /><circle cx="65.945730" cy="583.565556" r="3.749996" style="fill:rgb(0,127,0);stroke-width:1" /><circle cx="64.211547" cy="576.628849" r="3.749996" style="fill:rgb(0,127,0);stroke-width:1" /><circle cx="63.267253" cy="572.851695" r="3.749996" style="fill:rgb(0,127,0);stroke-width:1" /><circle cx="61.459623" cy="565.621153" r="3.749996" style="fill:rgb(0,127,0);stroke-width:1" /><circle cx="59.568554" cy="558.056898" r="3.749996" style="fill:rgb(0,127,0);stroke-width:1" /><circle cx="58.665991" cy="554.446679" r="3.749996" style="fill:rgb(0,127,0);stroke-width:1" /><circle cx="57.790384" cy="550.944239" r="3.749996" style="fill:rgb(0,127,0);stroke-width:1" /><circle cx="56.165747" cy="534.697931" r="3.749996" style="fill:rgb(0,127,0);stroke-width:1" /><circle cx="55.718221" cy="530.222554" r="3.749996" style="fill:rgb(0,127,0);stroke-width:1" /><circle cx="52.622773" cy="499.268018" r="3.749996" style="fill:rgb(0,127,0);stroke-width:1" /><circle cx="49.527302" cy="468.313437" r="3.749996" style="fill:rgb(0,127,0);stroke-width:1" /><circle cx="48.739158" cy="460.432034" r="3.749996" style="fill:rgb(0,127,0);stroke-width:1" /><circle cx="45.480564" cy="427.846005" r="3.749996" style="fill:rgb(0,127,0);stroke-width:1" /><circle cx="41.690513" cy="389.945524" r="3.749996" style="fill:rgb(0,127,0);stroke-width:1" /><circle cx="41.437849" cy="387.418858" r="3.749996" style="fill:rgb(0,127,0);stroke-width:1" /><circle cx="39.567389" cy="368.714231" r="3.749996" style="fill:rgb(0,127,0);stroke-width:1" /><circle cx="35.970345" cy="332.743867" r="3.749996" style="fill:rgb(0,127,0);stroke-width:1" /><circle cx="35.316356" cy="326.203851" r="3.749996" style="fill:rgb(0,127,0);stroke-width:1" /><circle cx="32.373324" cy="296.773503" r="3.749996" style="fill:rgb(0,127,0);stroke-width:1" /><circle cx="28.776281" cy="260.803141" r="3.749996" style="fill:rgb(0,127,0);stroke-width:1" /><circle cx="25.179237" cy="224.832829" r="3.749996" style="fill:rgb(0,127,0);stroke-width:1" /><circle cx="24.721451" cy="220.254779" r="3.749996" style="fill:rgb(0,127,0);stroke-width:1" /><circle cx="23.959100" cy="212.631483" r="3.749996" style="fill:rgb(0,127,0);stroke-width:1" /><circle cx="23.749843" cy="210.539047" r="3.749996" style="fill:rgb(0,127,0);stroke-width:1" /><circle cx="23.544230" cy="208.482843" r="3.749996" style="fill:rgb(0,127,0);stroke-width:1" /><circle cx="23.342125" cy="206.461843" r="3.749996" style="fill:rgb(0,127,0);stroke-width:1" /><circle cx="23.045406" cy="203.494705" r="3.749996" style="fill:rgb(0,127,0);stroke-width:1" /><circle cx="22.948176" cy="202.522360" r="3.749996" style="fill:rgb(0,127,0);stroke-width:1" /><circle cx="22.661313" cy="199.653782" r="3.749996" style="fill:rgb(0,127,0);stroke-width:1" /><circle cx="20.718925" cy="180.229783" r="3.749996" style="fill:rgb(0,127,0);stroke-width:1" /><circle cx="17.265759" cy="145.698264" r="3.749996" style="fill:rgb(0,127,0);stroke-width:1" /><circle cx="13.812616" cy="111.166723" r="3.749996" style="fill:rgb(0,127,0);stroke-width:1" /><circle cx="13.690911" cy="109.949715" r="3.749996" style="fill:rgb(0,127,0);stroke-width:1" /><circle cx="13.113230" cy="104.172952" r="3.749996" style="fill:rgb(0,127,0);stroke-width:1" /><circle cx="12.895592" cy="101.996541" r="3.749996" style="fill:rgb(0,127,0);stroke-width:1" /><circle cx="12.789443" cy="100.935213" r="3.749996" style="fill:rgb(0,127,0);stroke-width:1" /><circle cx="9.592094" cy="68.961628" r="3.749996" style="fill:rgb(0,127,0);stroke-width:1" /><circle cx="6.394722" cy="36.988020" r="3.749996" style="fill:rgb(0,127,0);stroke-width:1" /><circle cx="3.173411" cy="10.593697" r="3.749996" style="fill:rgb(0,127,0);stroke-width:1" /><circle cx="750.000000" cy="750.000000" r="3.749996" style="fill:rgb(0,127,0);stroke-width:1" /><path stroke-linejoin="round" stroke-linecap="round" stroke="rgb(255,255,255)" stroke-width="3.749996" fill="none" d="M 0.000000 750.000000 L 750.000000 750.000000 M 0.000000 750.000000 L 0.000000 0.000000 " />

</svg>