<svg xmlns="http://www.w3.org/2000/svg" version="1.1" width = "750" height = "750" viewBox = "0 0 750 750"  shape-rendering="crispEdges">
<path stroke-linejoin="round" stroke-linecap="round" stroke="rgb(255,255,0)" stroke-width="3.749996" fill="none" d="M 187.500000 750.000000 L 0.000000 0.000000 " />
<path stroke-linejoin="round" stroke-linecap="round" stroke="rgb(63,63,63)" stroke-width="3.749996" fill="none" d="M 0.000000 0.000000 L 750.000000 750.000000 M 187.500000 750.000000 L 80.357147 0.000000 " />
<path stroke-linejoin="round" stroke-linecap="round" stroke="rgb(191,191,191)" stroke-width="3.749996" fill="none" d="M 0.000000 562.500000 L 187.500000 750.000000 M 0.000000 0.000000 L 107.142853 750.000000 " />
<path stroke-linejoin="round" stroke-linecap="round" stroke="rgb(0,0,255)" stroke-width="1.874998" fill="none" d="M 0.000000 750.000000 L 750.000000 731.250000 " />
<path stroke-linejoin="round" stroke-linecap="round" stroke="rgb(255,0,0)" stroke-width="3.749996" fill="none" d="M 186.832718 745.329224 L 187.500000 750.000000 " />
<path stroke-linejoin="round" stroke-linecap="round" stroke="rgb(0,0,255)" stroke-width="1.874998" fill="none" d="M 0.000000 750.000000 L 750.000000 713.414612 " />
<path stroke-linejoin="round" stroke-linecap="round" stroke="rgb(255,0,0)" stroke-width="3.749996" fill="none" d="M 185.089539 740.971252 L 186.832718 745.329224 " />
<path stroke-linejoin="round" stroke-linecap="round" stroke="rgb(0,0,255)" stroke-width="1.874998" fill="none" d="M 0.000000 750.000000 L 750.000000 693.750000 " />
<path stroke-linejoin="round" stroke-linecap="round" stroke="rgb(255,0,0)" stroke-width="3.749996" fill="none" d="M 183.204910 736.259644 L 185.089539 740.971252 " />
<path stroke-linejoin="round" stroke-linecap="round" stroke="rgb(0,0,255)" stroke-width="1.874998" fill="none" d="M 0.000000 750.000000 L 750.000000 676.829224 " />
<path stroke-linejoin="round" stroke-linecap="round" stroke="rgb(255,0,0)" stroke-width="3.749996" fill="none" d="M 181.613708 732.281616 L 183.204910 736.259644 " />
<path stroke-linejoin="round" stroke-linecap="round" stroke="rgb(0,0,255)" stroke-width="1.874998" fill="none" d="M 0.000000 750.000000 L 750.000000 673.076904 " />
<path stroke-linejoin="round" stroke-linecap="round" stroke="rgb(255,0,0)" stroke-width="3.749996" fill="none" d="M 181.264572 731.408752 L 181.613708 732.281616 " />
<path stroke-linejoin="round" stroke-linecap="round" stroke="rgb(0,0,255)" stroke-width="1.874998" fill="none" d="M 0.000000 750.000000 L 750.000000 656.250000 " />
<path stroke-linejoin="round" stroke-linecap="round" stroke="rgb(255,0,0)" stroke-width="3.749996" fill="none" d="M 179.715286 727.535583 L 181.264572 731.408752 " />
<path stroke-linejoin="round" stroke-linecap="round" stroke="rgb(0,0,255)" stroke-width="1.874998" fill="none" d="M 0.000000 750.000000 L 750.000000 651.315796 " />
<path stroke-linejoin="round" stroke-linecap="round" stroke="rgb(255,0,0)" stroke-width="3.749996" fill="none" d="M 179.266022 726.412415 L 179.715286 727.535583 " />
<path stroke-linejoin="round" stroke-linecap="round" stroke="rgb(0,0,255)" stroke-width="1.874998" fill="none" d="M 0.000000 750.000000 L 750.000000 634.615417 " />
<path stroke-linejoin="round" stroke-linecap="round" stroke="rgb(255,0,0)" stroke-width="3.749996" fill="none" d="M 177.761902 722.652039 L 179.266068 726.412415 " />
<path stroke-linejoin="round" stroke-linecap="round" stroke="rgb(0,0,255)" stroke-width="1.874998" fill="none" d="M 0.000000 750.000000 L 750.000000 628.378357 " />
<path stroke-linejoin="round" stroke-linecap="round" stroke="rgb(255,0,0)" stroke-width="3.749996" fill="none" d="M 177.206619 721.263794 L 177.761902 722.652039 " />
<path stroke-linejoin="round" stroke-linecap="round" stroke="rgb(0,0,255)" stroke-width="1.874998" fill="none" d="M 0.000000 750.000000 L 750.000000 604.166687 " />
<path stroke-linejoin="round" stroke-linecap="round" stroke="rgb(255,0,0)" stroke-width="3.749996" fill="none" d="M 175.083511 715.955994 L 177.206650 721.263794 " />
<path stroke-linejoin="round" stroke-linecap="round" stroke="rgb(0,0,255)" stroke-width="1.874998" fill="none" d="M 0.000000 750.000000 L 750.000000 578.571411 " />
<path stroke-linejoin="round" stroke-linecap="round" stroke="rgb(255,0,0)" stroke-width="3.749996" fill="none" d="M 172.893723 710.481445 L 175.083511 715.955994 " />
<path stroke-linejoin="round" stroke-linecap="round" stroke="rgb(0,0,255)" stroke-width="1.874998" fill="none" d="M 0.000000 750.000000 L 750.000000 551.470581 " />
<path stroke-linejoin="round" stroke-linecap="round" stroke="rgb(255,0,0)" stroke-width="3.749996" fill="none" d="M 170.634003 704.832153 L 172.893723 710.481445 " />
<path stroke-linejoin="round" stroke-linecap="round" stroke="rgb(0,0,255)" stroke-width="1.874998" fill="none" d="M 0.000000 750.000000 L 750.000000 522.727295 " />
<path stroke-linejoin="round" stroke-linecap="round" stroke="rgb(255,0,0)" stroke-width="3.749996" fill="none" d="M 168.301010 698.999695 L 170.634003 704.832153 " />
<path stroke-linejoin="round" stroke-linecap="round" stroke="rgb(0,0,255)" stroke-width="1.874998" fill="none" d="M 0.000000 750.000000 L 750.000000 507.352936 " />
<path stroke-linejoin="round" stroke-linecap="round" stroke="rgb(255,0,0)" stroke-width="3.749996" fill="none" d="M 167.079132 695.945007 L 168.301010 698.999695 " />
<path stroke-linejoin="round" stroke-linecap="round" stroke="rgb(0,0,255)" stroke-width="1.874998" fill="none" d="M 0.000000 750.000000 L 750.000000 492.187500 " />
<path stroke-linejoin="round" stroke-linecap="round" stroke="rgb(255,0,0)" stroke-width="3.749996" fill="none" d="M 165.891098 692.974915 L 167.079132 695.945007 " />
<path stroke-linejoin="round" stroke-linecap="round" stroke="rgb(0,0,255)" stroke-width="1.874998" fill="none" d="M 0.000000 750.000000 L 750.000000 459.677429 " />
<path stroke-linejoin="round" stroke-linecap="round" stroke="rgb(255,0,0)" stroke-width="3.749996" fill="none" d="M 163.400421 686.748230 L 165.891098 692.974915 " />
<path stroke-linejoin="round" stroke-linecap="round" stroke="rgb(0,0,255)" stroke-width="1.874998" fill="none" d="M 0.000000 750.000000 L 750.000000 425.000000 " />
<path stroke-linejoin="round" stroke-linecap="round" stroke="rgb(255,0,0)" stroke-width="3.749996" fill="none" d="M 160.824799 680.309265 L 163.400421 686.748230 " />
<path stroke-linejoin="round" stroke-linecap="round" stroke="rgb(0,0,255)" stroke-width="1.874998" fill="none" d="M 0.000000 750.000000 L 750.000000 387.931030 " />
<path stroke-linejoin="round" stroke-linecap="round" stroke="rgb(255,0,0)" stroke-width="3.749996" fill="none" d="M 158.159897 673.646912 L 160.824799 680.309265 " />
<path stroke-linejoin="round" stroke-linecap="round" stroke="rgb(0,0,255)" stroke-width="1.874998" fill="none" d="M 0.000000 750.000000 L 750.000000 348.214294 " />
<path stroke-linejoin="round" stroke-linecap="round" stroke="rgb(255,0,0)" stroke-width="3.749996" fill="none" d="M 155.400925 666.749512 L 158.159897 673.646912 " />
<path stroke-linejoin="round" stroke-linecap="round" stroke="rgb(0,0,255)" stroke-width="1.874998" fill="none" d="M 0.000000 750.000000 L 750.000000 305.555542 " />
<path stroke-linejoin="round" stroke-linecap="round" stroke="rgb(255,0,0)" stroke-width="3.749996" fill="none" d="M 152.542816 659.604309 L 155.400925 666.749512 " />
<path stroke-linejoin="round" stroke-linecap="round" stroke="rgb(0,0,255)" stroke-width="1.874998" fill="none" d="M 0.000000 750.000000 L 750.000000 259.615387 " />
<path stroke-linejoin="round" stroke-linecap="round" stroke="rgb(255,0,0)" stroke-width="3.749996" fill="none" d="M 149.580139 652.197632 L 152.542786 659.604309 " />
<path stroke-linejoin="round" stroke-linecap="round" stroke="rgb(0,0,255)" stroke-width="1.874998" fill="none" d="M 0.000000 750.000000 L 750.000000 209.999985 " />
<path stroke-linejoin="round" stroke-linecap="round" stroke="rgb(255,0,0)" stroke-width="3.749996" fill="none" d="M 146.507080 644.514893 L 149.580139 652.197632 " />
<path stroke-linejoin="round" stroke-linecap="round" stroke="rgb(0,0,255)" stroke-width="1.874998" fill="none" d="M 0.000000 750.000000 L 750.000000 156.249985 " />
<path stroke-linejoin="round" stroke-linecap="round" stroke="rgb(255,0,0)" stroke-width="3.749996" fill="none" d="M 143.317291 636.540527 L 146.507080 644.514893 " />
<path stroke-linejoin="round" stroke-linecap="round" stroke="rgb(0,0,255)" stroke-width="1.874998" fill="none" d="M 0.000000 750.000000 L 750.000000 97.826111 " />
<path stroke-linejoin="round" stroke-linecap="round" stroke="rgb(255,0,0)" stroke-width="3.749996" fill="none" d="M 140.004028 628.257324 L 143.317291 636.540527 " />
<path stroke-linejoin="round" stroke-linecap="round" stroke="rgb(0,0,255)" stroke-width="1.874998" fill="none" d="M 0.000000 750.000000 L 750.000000 93.750000 " />
<path stroke-linejoin="round" stroke-linecap="round" stroke="rgb(255,0,0)" stroke-width="3.749996" fill="none" d="M 139.778580 627.693726 L 140.004028 628.257324 " />
<path stroke-linejoin="round" stroke-linecap="round" stroke="rgb(0,0,255)" stroke-width="1.874998" fill="none" d="M 0.000000 750.000000 L 750.000000 34.090919 " />
<path stroke-linejoin="round" stroke-linecap="round" stroke="rgb(255,0,0)" stroke-width="3.749996" fill="none" d="M 136.559998 619.647278 L 139.778580 627.693726 " />
<path stroke-linejoin="round" stroke-linecap="round" stroke="rgb(0,0,255)" stroke-width="1.874998" fill="none" d="M 0.000000 750.000000 L 750.000000 32.608688 " />
<path stroke-linejoin="round" stroke-linecap="round" stroke="rgb(255,0,0)" stroke-width="3.749996" fill="none" d="M 136.481918 619.452087 L 136.559998 619.647278 " />
<path stroke-linejoin="round" stroke-linecap="round" stroke="rgb(0,0,255)" stroke-width="1.874998" fill="none" d="M 0.000000 750.000000 L 717.391296 0.000000 " />
<path stroke-linejoin="round" stroke-linecap="round" stroke="rgb(255,0,0)" stroke-width="3.749996" fill="none" d="M 133.058487 610.893372 L 136.481918 619.452087 " />
<path stroke-linejoin="round" stroke-linecap="round" stroke="rgb(0,0,255)" stroke-width="1.874998" fill="none" d="M 0.000000 750.000000 L 656.249939 0.000000 " />
<path stroke-linejoin="round" stroke-linecap="round" stroke="rgb(255,0,0)" stroke-width="3.749996" fill="none" d="M 129.500763 601.999084 L 133.058487 610.893372 " />
<path stroke-linejoin="round" stroke-linecap="round" stroke="rgb(0,0,255)" stroke-width="1.874998" fill="none" d="M 0.000000 750.000000 L 600.000000 0.000000 " />
<path stroke-linejoin="round" stroke-linecap="round" stroke="rgb(255,0,0)" stroke-width="3.749996" fill="none" d="M 125.800743 592.749084 L 129.500763 601.999084 " />
<path stroke-linejoin="round" stroke-linecap="round" stroke="rgb(0,0,255)" stroke-width="1.874998" fill="none" d="M 0.000000 750.000000 L 555.555542 0.000000 " />
<path stroke-linejoin="round" stroke-linecap="round" stroke="rgb(255,0,0)" stroke-width="3.749996" fill="none" d="M 122.533188 584.580200 L 125.800743 592.749084 " />
<path stroke-linejoin="round" stroke-linecap="round" stroke="rgb(0,0,255)" stroke-width="1.874998" fill="none" d="M 0.000000 750.000000 L 508.928589 0.000000 " />
<path stroke-linejoin="round" stroke-linecap="round" stroke="rgb(255,0,0)" stroke-width="3.749996" fill="none" d="M 118.719246 575.045288 L 122.533188 584.580200 " />
<path stroke-linejoin="round" stroke-linecap="round" stroke="rgb(0,0,255)" stroke-width="1.874998" fill="none" d="M 0.000000 750.000000 L 475.000000 0.000000 " />
<path stroke-linejoin="round" stroke-linecap="round" stroke="rgb(255,0,0)" stroke-width="3.749996" fill="none" d="M 115.655510 567.385986 L 118.719246 575.045288 " />
<path stroke-linejoin="round" stroke-linecap="round" stroke="rgb(0,0,255)" stroke-width="1.874998" fill="none" d="M 0.000000 750.000000 L 435.483856 0.000000 " />
<path stroke-linejoin="round" stroke-linecap="round" stroke="rgb(255,0,0)" stroke-width="3.749996" fill="none" d="M 111.730904 557.574585 L 115.655510 567.385986 " />
<path stroke-linejoin="round" stroke-linecap="round" stroke="rgb(0,0,255)" stroke-width="1.874998" fill="none" d="M 0.000000 750.000000 L 398.437500 0.000000 " />
<path stroke-linejoin="round" stroke-linecap="round" stroke="rgb(255,0,0)" stroke-width="3.749996" fill="none" d="M 107.648270 547.367981 L 111.730904 557.574585 " />
<path stroke-linejoin="round" stroke-linecap="round" stroke="rgb(0,0,255)" stroke-width="1.874998" fill="none" d="M 0.000000 750.000000 L 363.636383 0.000000 " />
<path stroke-linejoin="round" stroke-linecap="round" stroke="rgb(255,0,0)" stroke-width="3.749996" fill="none" d="M 103.397858 536.741882 L 107.648293 547.367920 " />
<path stroke-linejoin="round" stroke-linecap="round" stroke="rgb(0,0,255)" stroke-width="1.874998" fill="none" d="M 0.000000 750.000000 L 342.857147 0.000000 " />
<path stroke-linejoin="round" stroke-linecap="round" stroke="rgb(255,0,0)" stroke-width="3.749996" fill="none" d="M 100.640594 529.848694 L 103.397858 536.741882 " />
<path stroke-linejoin="round" stroke-linecap="round" stroke="rgb(0,0,255)" stroke-width="1.874998" fill="none" d="M 0.000000 750.000000 L 324.324341 0.000000 " />
<path stroke-linejoin="round" stroke-linecap="round" stroke="rgb(255,0,0)" stroke-width="3.749996" fill="none" d="M 98.026558 523.313538 L 100.640594 529.848694 " />
<path stroke-linejoin="round" stroke-linecap="round" stroke="rgb(0,0,255)" stroke-width="1.874998" fill="none" d="M 0.000000 750.000000 L 296.052643 0.000000 " />
<path stroke-linejoin="round" stroke-linecap="round" stroke="rgb(255,0,0)" stroke-width="3.749996" fill="none" d="M 93.725723 512.561523 L 98.026558 523.313538 " />
<path stroke-linejoin="round" stroke-linecap="round" stroke="rgb(0,0,255)" stroke-width="1.874998" fill="none" d="M 0.000000 750.000000 L 281.250000 0.000000 " />
<path stroke-linejoin="round" stroke-linecap="round" stroke="rgb(255,0,0)" stroke-width="3.749996" fill="none" d="M 91.306999 506.514709 L 93.725723 512.561523 " />
<path stroke-linejoin="round" stroke-linecap="round" stroke="rgb(0,0,255)" stroke-width="1.874998" fill="none" d="M 0.000000 750.000000 L 256.097565 0.000000 " />
<path stroke-linejoin="round" stroke-linecap="round" stroke="rgb(255,0,0)" stroke-width="3.749996" fill="none" d="M 86.901825 495.501831 L 91.306999 506.514709 " />
<path stroke-linejoin="round" stroke-linecap="round" stroke="rgb(0,0,255)" stroke-width="1.874998" fill="none" d="M 0.000000 750.000000 L 244.186050 0.000000 " />
<path stroke-linejoin="round" stroke-linecap="round" stroke="rgb(255,0,0)" stroke-width="3.749996" fill="none" d="M 84.673584 489.931122 L 86.901825 495.501831 " />
<path stroke-linejoin="round" stroke-linecap="round" stroke="rgb(0,0,255)" stroke-width="1.874998" fill="none" d="M 0.000000 750.000000 L 221.590897 0.000000 " />
<path stroke-linejoin="round" stroke-linecap="round" stroke="rgb(255,0,0)" stroke-width="3.749996" fill="none" d="M 80.167137 478.665039 L 84.673584 489.931122 " />
<path stroke-linejoin="round" stroke-linecap="round" stroke="rgb(0,0,255)" stroke-width="1.874998" fill="none" d="M 0.000000 750.000000 L 211.956543 0.000000 " />
<path stroke-linejoin="round" stroke-linecap="round" stroke="rgb(255,0,0)" stroke-width="3.749996" fill="none" d="M 78.124657 473.558838 L 80.167137 478.665039 " />
<path stroke-linejoin="round" stroke-linecap="round" stroke="rgb(0,0,255)" stroke-width="1.874998" fill="none" d="M 0.000000 750.000000 L 191.489365 0.000000 " />
<path stroke-linejoin="round" stroke-linecap="round" stroke="rgb(255,0,0)" stroke-width="3.749996" fill="none" d="M 73.519905 462.046967 L 78.124657 473.558838 " />
<path stroke-linejoin="round" stroke-linecap="round" stroke="rgb(0,0,255)" stroke-width="1.874998" fill="none" d="M 0.000000 750.000000 L 171.875000 0.000000 " />
<path stroke-linejoin="round" stroke-linecap="round" stroke="rgb(255,0,0)" stroke-width="3.749996" fill="none" d="M 68.732185 450.077698 L 73.519905 462.046967 " />
<path stroke-linejoin="round" stroke-linecap="round" stroke="rgb(0,0,255)" stroke-width="1.874998" fill="none" d="M 0.000000 750.000000 L 165.000000 0.000000 " />
<path stroke-linejoin="round" stroke-linecap="round" stroke="rgb(255,0,0)" stroke-width="3.749996" fill="none" d="M 66.958466 445.643402 L 68.732185 450.077698 " />
<path stroke-linejoin="round" stroke-linecap="round" stroke="rgb(0,0,255)" stroke-width="1.874998" fill="none" d="M 0.000000 750.000000 L 147.058807 0.000000 " />
<path stroke-linejoin="round" stroke-linecap="round" stroke="rgb(255,0,0)" stroke-width="3.749996" fill="none" d="M 62.652222 430.473663 L 66.958466 445.643402 " />
<path stroke-linejoin="round" stroke-linecap="round" stroke="rgb(0,0,255)" stroke-width="1.874998" fill="none" d="M 0.000000 750.000000 L 141.509415 0.000000 " />
<path stroke-linejoin="round" stroke-linecap="round" stroke="rgb(255,0,0)" stroke-width="3.749996" fill="none" d="M 61.208656 425.594116 L 62.652222 430.473663 " />
<path stroke-linejoin="round" stroke-linecap="round" stroke="rgb(0,0,255)" stroke-width="1.874998" fill="none" d="M 0.000000 750.000000 L 125.000015 0.000000 " />
<path stroke-linejoin="round" stroke-linecap="round" stroke="rgb(255,0,0)" stroke-width="3.749996" fill="none" d="M 57.750149 403.499054 L 61.208656 425.594116 " />
<path stroke-linejoin="round" stroke-linecap="round" stroke="rgb(0,0,255)" stroke-width="1.874998" fill="none" d="M 0.000000 750.000000 L 109.090897 0.000000 " />
<path stroke-linejoin="round" stroke-linecap="round" stroke="rgb(255,0,0)" stroke-width="3.749996" fill="none" d="M 54.067745 378.284180 L 57.750149 403.498993 " />
<path stroke-linejoin="round" stroke-linecap="round" stroke="rgb(0,0,255)" stroke-width="1.874998" fill="none" d="M 0.000000 750.000000 L 105.263161 0.000000 " />
<path stroke-linejoin="round" stroke-linecap="round" stroke="rgb(255,0,0)" stroke-width="3.749996" fill="none" d="M 53.100742 371.657166 L 54.067745 378.284180 " />
<path stroke-linejoin="round" stroke-linecap="round" stroke="rgb(0,0,255)" stroke-width="1.874998" fill="none" d="M 0.000000 750.000000 L 90.517242 0.000000 " />
<path stroke-linejoin="round" stroke-linecap="round" stroke="rgb(255,0,0)" stroke-width="3.749996" fill="none" d="M 49.066208 343.451416 L 53.100765 371.657104 " />
<path stroke-linejoin="round" stroke-linecap="round" stroke="rgb(0,0,255)" stroke-width="1.874998" fill="none" d="M 0.000000 750.000000 L 87.500008 0.000000 " />
<path stroke-linejoin="round" stroke-linecap="round" stroke="rgb(255,0,0)" stroke-width="3.749996" fill="none" d="M 48.165321 337.154297 L 49.066208 343.451416 " />
<path stroke-linejoin="round" stroke-linecap="round" stroke="rgb(0,0,255)" stroke-width="1.874998" fill="none" d="M 0.000000 750.000000 L 84.677429 0.000000 " />
<path stroke-linejoin="round" stroke-linecap="round" stroke="rgb(255,0,0)" stroke-width="3.749996" fill="none" d="M 47.297337 331.080719 L 48.165321 337.154297 " />
<path stroke-linejoin="round" stroke-linecap="round" stroke="rgb(0,0,255)" stroke-width="1.874998" fill="none" d="M 0.000000 750.000000 L 78.947380 0.000000 " />
<path stroke-linejoin="round" stroke-linecap="round" stroke="rgb(255,0,0)" stroke-width="3.749996" fill="none" d="M 45.454548 318.181732 L 47.297337 331.080719 " />
<path stroke-linejoin="round" stroke-linecap="round" stroke="rgb(0,0,255)" stroke-width="1.874998" fill="none" d="M 0.000000 750.000000 L 76.271187 0.000000 " />
<path stroke-linejoin="round" stroke-linecap="round" stroke="rgb(255,0,0)" stroke-width="3.749996" fill="none" d="M 44.554443 311.881226 L 45.454548 318.181793 " />
<path stroke-linejoin="round" stroke-linecap="round" stroke="rgb(0,0,255)" stroke-width="1.874998" fill="none" d="M 0.000000 750.000000 L 69.230766 0.000000 " />
<path stroke-linejoin="round" stroke-linecap="round" stroke="rgb(255,0,0)" stroke-width="3.749996" fill="none" d="M 42.056076 294.392548 L 44.554443 311.881226 " />
<path stroke-linejoin="round" stroke-linecap="round" stroke="rgb(0,0,255)" stroke-width="1.874998" fill="none" d="M 0.000000 750.000000 L 67.164169 0.000000 " />
<path stroke-linejoin="round" stroke-linecap="round" stroke="rgb(255,0,0)" stroke-width="3.749996" fill="none" d="M 41.284405 288.990906 L 42.056076 294.392548 " />
<path stroke-linejoin="round" stroke-linecap="round" stroke="rgb(0,0,255)" stroke-width="1.874998" fill="none" d="M 0.000000 750.000000 L 63.380287 0.000000 " />
<path stroke-linejoin="round" stroke-linecap="round" stroke="rgb(255,0,0)" stroke-width="3.749996" fill="none" d="M 39.823002 278.761139 L 41.284382 288.990936 " />
<path stroke-linejoin="round" stroke-linecap="round" stroke="rgb(0,0,255)" stroke-width="1.874998" fill="none" d="M 0.000000 750.000000 L 61.643826 0.000000 " />
<path stroke-linejoin="round" stroke-linecap="round" stroke="rgb(255,0,0)" stroke-width="3.749996" fill="none" d="M 39.130436 273.913086 L 39.823002 278.761078 " />
<path stroke-linejoin="round" stroke-linecap="round" stroke="rgb(0,0,255)" stroke-width="1.874998" fill="none" d="M 0.000000 750.000000 L 58.593750 0.000000 " />
<path stroke-linejoin="round" stroke-linecap="round" stroke="rgb(255,0,0)" stroke-width="3.749996" fill="none" d="M 37.878780 265.151550 L 39.130436 273.913086 " />
<path stroke-linejoin="round" stroke-linecap="round" stroke="rgb(0,0,255)" stroke-width="1.874998" fill="none" d="M 0.000000 750.000000 L 46.153843 0.000000 " />
<path stroke-linejoin="round" stroke-linecap="round" stroke="rgb(255,0,0)" stroke-width="3.749996" fill="none" d="M 32.258057 225.806503 L 37.878780 265.151550 " />
<path stroke-linejoin="round" stroke-linecap="round" stroke="rgb(0,0,255)" stroke-width="1.874998" fill="none" d="M 0.000000 750.000000 L 44.776127 0.000000 " />
<path stroke-linejoin="round" stroke-linecap="round" stroke="rgb(255,0,0)" stroke-width="3.749996" fill="none" d="M 31.578943 221.052643 L 32.258057 225.806503 " />
<path stroke-linejoin="round" stroke-linecap="round" stroke="rgb(0,0,255)" stroke-width="1.874998" fill="none" d="M 0.000000 750.000000 L 43.478249 0.000000 " />
<path stroke-linejoin="round" stroke-linecap="round" stroke="rgb(255,0,0)" stroke-width="3.749996" fill="none" d="M 30.927837 216.494904 L 31.578943 221.052643 " />
<path stroke-linejoin="round" stroke-linecap="round" stroke="rgb(0,0,255)" stroke-width="1.874998" fill="none" d="M 0.000000 750.000000 L 42.253510 0.000000 " />
<path stroke-linejoin="round" stroke-linecap="round" stroke="rgb(255,0,0)" stroke-width="3.749996" fill="none" d="M 30.303017 212.121292 L 30.927837 216.494904 " />
<path stroke-linejoin="round" stroke-linecap="round" stroke="rgb(0,0,255)" stroke-width="1.874998" fill="none" d="M 0.000000 750.000000 L 41.095890 0.000000 " />
<path stroke-linejoin="round" stroke-linecap="round" stroke="rgb(255,0,0)" stroke-width="3.749996" fill="none" d="M 29.702961 207.920914 L 30.303017 212.121292 " />
<path stroke-linejoin="round" stroke-linecap="round" stroke="rgb(0,0,255)" stroke-width="1.874998" fill="none" d="M 0.000000 750.000000 L 40.000008 0.000000 " />
<path stroke-linejoin="round" stroke-linecap="round" stroke="rgb(255,0,0)" stroke-width="3.749996" fill="none" d="M 29.126198 203.883606 L 29.702961 207.920914 " />
<path stroke-linejoin="round" stroke-linecap="round" stroke="rgb(0,0,255)" stroke-width="1.874998" fill="none" d="M 0.000000 750.000000 L 38.961029 0.000000 " />
<path stroke-linejoin="round" stroke-linecap="round" stroke="rgb(255,0,0)" stroke-width="3.749996" fill="none" d="M 28.571426 200.000122 L 29.126198 203.883606 " />
<path stroke-linejoin="round" stroke-linecap="round" stroke="rgb(0,0,255)" stroke-width="1.874998" fill="none" d="M 0.000000 750.000000 L 37.974693 0.000000 " />
<path stroke-linejoin="round" stroke-linecap="round" stroke="rgb(255,0,0)" stroke-width="3.749996" fill="none" d="M 28.037376 196.261795 L 28.571426 200.000122 " />
<path stroke-linejoin="round" stroke-linecap="round" stroke="rgb(0,0,255)" stroke-width="1.874998" fill="none" d="M 0.000000 750.000000 L 37.037037 0.000000 " />
<path stroke-linejoin="round" stroke-linecap="round" stroke="rgb(255,0,0)" stroke-width="3.749996" fill="none" d="M 27.522928 192.660706 L 28.037376 196.261795 " />
<path stroke-linejoin="round" stroke-linecap="round" stroke="rgb(0,0,255)" stroke-width="1.874998" fill="none" d="M 0.000000 750.000000 L 36.144577 0.000000 " />
<path stroke-linejoin="round" stroke-linecap="round" stroke="rgb(255,0,0)" stroke-width="3.749996" fill="none" d="M 27.027012 189.189301 L 27.522928 192.660706 " />
<path stroke-linejoin="round" stroke-linecap="round" stroke="rgb(0,0,255)" stroke-width="1.874998" fill="none" d="M 0.000000 750.000000 L 35.294117 0.000000 " />
<path stroke-linejoin="round" stroke-linecap="round" stroke="rgb(255,0,0)" stroke-width="3.749996" fill="none" d="M 26.548662 185.840881 L 27.027012 189.189301 " />
<path stroke-linejoin="round" stroke-linecap="round" stroke="rgb(0,0,255)" stroke-width="1.874998" fill="none" d="M 0.000000 750.000000 L 34.482746 0.000000 " />
<path stroke-linejoin="round" stroke-linecap="round" stroke="rgb(255,0,0)" stroke-width="3.749996" fill="none" d="M 26.086941 182.608902 L 26.548662 185.840881 " />
<path stroke-linejoin="round" stroke-linecap="round" stroke="rgb(0,0,255)" stroke-width="1.874998" fill="none" d="M 0.000000 750.000000 L 28.846151 0.000000 " />
<path stroke-linejoin="round" stroke-linecap="round" stroke="rgb(255,0,0)" stroke-width="3.749996" fill="none" d="M 22.727274 159.091110 L 26.086941 182.608902 " />
<path stroke-linejoin="round" stroke-linecap="round" stroke="rgb(0,0,255)" stroke-width="1.874998" fill="none" d="M 0.000000 750.000000 L 18.987335 0.000000 " />
<path stroke-linejoin="round" stroke-linecap="round" stroke="rgb(255,0,0)" stroke-width="3.749996" fill="none" d="M 16.129017 112.903435 L 22.727274 159.091110 " />
<path stroke-linejoin="round" stroke-linecap="round" stroke="rgb(0,0,255)" stroke-width="1.874998" fill="none" d="M 0.000000 750.000000 L 9.374991 0.000000 " />
<path stroke-linejoin="round" stroke-linecap="round" stroke="rgb(255,0,0)" stroke-width="3.749996" fill="none" d="M 8.620687 60.345055 L 16.129017 112.903435 " />
<path stroke-linejoin="round" stroke-linecap="round" stroke="rgb(0,0,255)" stroke-width="1.874998" fill="none" d="M 0.000000 750.000000 L 0.000000 0.000000 " />
<path stroke-linejoin="round" stroke-linecap="round" stroke="rgb(255,0,0)" stroke-width="3.749996" fill="none" d="M 0.000000 0.000000 L 8.620687 60.345055 " />
<circle cx="186.832711" cy="745.329179" r="3.749996" style="fill:rgb(0,127,0);stroke-width:1" /><circle cx="185.089543" cy="740.971237" r="3.749996" style="fill:rgb(0,127,0);stroke-width:1" /><circle cx="183.204912" cy="736.259624" r="3.749996" style="fill:rgb(0,127,0);stroke-width:1" /><circle cx="181.613714" cy="732.281595" r="3.749996" style="fill:rgb(0,127,0);stroke-width:1" /><circle cx="181.264579" cy="731.408760" r="3.749996" style="fill:rgb(0,127,0);stroke-width:1" /><circle cx="179.715291" cy="727.535583" r="3.749996" style="fill:rgb(0,127,0);stroke-width:1" /><circle cx="179.266021" cy="726.412363" r="3.749996" style="fill:rgb(0,127,0);stroke-width:1" /><circle cx="177.761905" cy="722.652018" r="3.749996" style="fill:rgb(0,127,0);stroke-width:1" /><circle cx="177.206621" cy="721.263796" r="3.749996" style="fill:rgb(0,127,0);stroke-width:1" /><circle cx="175.083518" cy="715.955973" r="3.749996" style="fill:rgb(0,127,0);stroke-width:1" /><circle cx="172.893718" cy="710.481450" r="3.749996" style="fill:rgb(0,127,0);stroke-width:1" /><circle cx="170.634001" cy="704.832181" r="3.749996" style="fill:rgb(0,127,0);stroke-width:1" /><circle cx="168.301016" cy="698.999695" r="3.749996" style="fill:rgb(0,127,0);stroke-width:1" /><circle cx="167.079136" cy="695.944995" r="3.749996" style="fill:rgb(0,127,0);stroke-width:1" /><circle cx="165.891096" cy="692.974940" r="3.749996" style="fill:rgb(0,127,0);stroke-width:1" /><circle cx="163.400419" cy="686.748236" r="3.749996" style="fill:rgb(0,127,0);stroke-width:1" /><circle cx="160.824805" cy="680.309236" r="3.749996" style="fill:rgb(0,127,0);stroke-width:1" /><circle cx="158.159897" cy="673.646942" r="3.749996" style="fill:rgb(0,127,0);stroke-width:1" /><circle cx="155.400932" cy="666.749507" r="3.749996" style="fill:rgb(0,127,0);stroke-width:1" /><circle cx="152.542815" cy="659.604259" r="3.749996" style="fill:rgb(0,127,0);stroke-width:1" /><circle cx="149.580136" cy="652.197607" r="3.749996" style="fill:rgb(0,127,0);stroke-width:1" /><circle cx="146.507084" cy="644.514889" r="3.749996" style="fill:rgb(0,127,0);stroke-width:1" /><circle cx="143.317290" cy="636.540480" r="3.749996" style="fill:rgb(0,127,0);stroke-width:1" /><circle cx="140.004024" cy="628.257349" r="3.749996" style="fill:rgb(0,127,0);stroke-width:1" /><circle cx="139.778584" cy="627.693728" r="3.749996" style="fill:rgb(0,127,0);stroke-width:1" /><circle cx="136.560000" cy="619.647279" r="3.749996" style="fill:rgb(0,127,0);stroke-width:1" /><circle cx="136.481926" cy="619.452059" r="3.749996" style="fill:rgb(0,127,0);stroke-width:1" /><circle cx="133.058488" cy="610.893421" r="3.749996" style="fill:rgb(0,127,0);stroke-width:1" /><circle cx="129.500762" cy="601.999126" r="3.749996" style="fill:rgb(0,127,0);stroke-width:1" /><circle cx="125.800744" cy="592.749059" r="3.749996" style="fill:rgb(0,127,0);stroke-width:1" /><circle cx="122.533187" cy="584.580190" r="3.749996" style="fill:rgb(0,127,0);stroke-width:1" /><circle cx="118.719243" cy="575.045317" r="3.749996" style="fill:rgb(0,127,0);stroke-width:1" /><circle cx="115.655512" cy="567.386024" r="3.749996" style="fill:rgb(0,127,0);stroke-width:1" /><circle cx="111.730903" cy="557.574548" r="3.749996" style="fill:rgb(0,127,0);stroke-width:1" /><circle cx="107.648268" cy="547.367938" r="3.749996" style="fill:rgb(0,127,0);stroke-width:1" /><circle cx="103.397861" cy="536.741897" r="3.749996" style="fill:rgb(0,127,0);stroke-width:1" /><circle cx="100.640595" cy="529.848710" r="3.749996" style="fill:rgb(0,127,0);stroke-width:1" /><circle cx="98.026559" cy="523.313574" r="3.749996" style="fill:rgb(0,127,0);stroke-width:1" /><circle cx="93.725726" cy="512.561515" r="3.749996" style="fill:rgb(0,127,0);stroke-width:1" /><circle cx="91.306999" cy="506.514698" r="3.749996" style="fill:rgb(0,127,0);stroke-width:1" /><circle cx="86.901829" cy="495.501794" r="3.749996" style="fill:rgb(0,127,0);stroke-width:1" /><circle cx="84.673584" cy="489.931136" r="3.749996" style="fill:rgb(0,127,0);stroke-width:1" /><circle cx="80.167137" cy="478.665054" r="3.749996" style="fill:rgb(0,127,0);stroke-width:1" /><circle cx="78.124657" cy="473.558865" r="3.749996" style="fill:rgb(0,127,0);stroke-width:1" /><circle cx="73.519908" cy="462.047003" r="3.749996" style="fill:rgb(0,127,0);stroke-width:1" /><circle cx="68.732187" cy="450.077690" r="3.749996" style="fill:rgb(0,127,0);stroke-width:1" /><circle cx="66.958465" cy="445.643373" r="3.749996" style="fill:rgb(0,127,0);stroke-width:1" /><circle cx="62.652223" cy="430.473670" r="3.749996" style="fill:rgb(0,127,0);stroke-width:1" /><circle cx="61.208658" cy="425.594106" r="3.749996" style="fill:rgb(0,127,0);stroke-width:1" /><circle cx="57.750151" cy="403.499052" r="3.749996" style="fill:rgb(0,127,0);stroke-width:1" /><circle cx="54.067746" cy="378.284164" r="3.749996" style="fill:rgb(0,127,0);stroke-width:1" /><circle cx="53.100742" cy="371.657163" r="3.749996" style="fill:rgb(0,127,0);stroke-width:1" /><circle cx="49.066208" cy="343.451411" r="3.749996" style="fill:rgb(0,127,0);stroke-width:1" /><circle cx="48.165321" cy="337.154299" r="3.749996" style="fill:rgb(0,127,0);stroke-width:1" /><circle cx="47.297336" cy="331.080705" r="3.749996" style="fill:rgb(0,127,0);stroke-width:1" /><circle cx="45.454547" cy="318.181738" r="3.749996" style="fill:rgb(0,127,0);stroke-width:1" /><circle cx="44.554442" cy="311.881229" r="3.749996" style="fill:rgb(0,127,0);stroke-width:1" /><circle cx="42.056076" cy="294.392556" r="3.749996" style="fill:rgb(0,127,0);stroke-width:1" /><circle cx="41.284405" cy="288.990900" r="3.749996" style="fill:rgb(0,127,0);stroke-width:1" /><circle cx="39.823003" cy="278.761134" r="3.749996" style="fill:rgb(0,127,0);stroke-width:1" /><circle cx="39.130434" cy="273.913085" r="3.749996" style="fill:rgb(0,127,0);stroke-width:1" /><circle cx="37.878782" cy="265.151560" r="3.749996" style="fill:rgb(0,127,0);stroke-width:1" /><circle cx="32.258056" cy="225.806504" r="3.749996" style="fill:rgb(0,127,0);stroke-width:1" /><circle cx="31.578943" cy="221.052647" r="3.749996" style="fill:rgb(0,127,0);stroke-width:1" /><circle cx="30.927837" cy="216.494903" r="3.749996" style="fill:rgb(0,127,0);stroke-width:1" /><circle cx="30.303016" cy="212.121293" r="3.749996" style="fill:rgb(0,127,0);stroke-width:1" /><circle cx="29.702961" cy="207.920909" r="3.749996" style="fill:rgb(0,127,0);stroke-width:1" /><circle cx="29.126197" cy="203.883603" r="3.749996" style="fill:rgb(0,127,0);stroke-width:1" /><circle cx="28.571427" cy="200.000122" r="3.749996" style="fill:rgb(0,127,0);stroke-width:1" /><circle cx="28.037377" cy="196.261793" r="3.749996" style="fill:rgb(0,127,0);stroke-width:1" /><circle cx="27.522929" cy="192.660704" r="3.749996" style="fill:rgb(0,127,0);stroke-width:1" /><circle cx="27.027011" cy="189.189300" r="3.749996" style="fill:rgb(0,127,0);stroke-width:1" /><circle cx="26.548661" cy="185.840875" r="3.749996" style="fill:rgb(0,127,0);stroke-width:1" /><circle cx="26.086941" cy="182.608902" r="3.749996" style="fill:rgb(0,127,0);stroke-width:1" /><circle cx="22.727273" cy="159.091115" r="3.749996" style="fill:rgb(0,127,0);stroke-width:1" /><circle cx="16.129017" cy="112.903431" r="3.749996" style="fill:rgb(0,127,0);stroke-width:1" /><circle cx="8.620687" cy="60.345054" r="3.749996" style="fill:rgb(0,127,0);stroke-width:1" /><circle cx="750.000000" cy="750.000000" r="3.749996" style="fill:rgb(0,127,0);stroke-width:1" /><path stroke-linejoin="round" stroke-linecap="round" stroke="rgb(255,255,255)" stroke-width="3.749996" fill="none" d="M 0.000000 750.000000 L 750.000000 750.000000 M 0.000000 750.000000 L 0.000000 0.000000 " />

</svg>