<svg xmlns="http://www.w3.org/2000/svg" version="1.1" width = "750" height = "750" viewBox = "0 0 750 750"  shape-rendering="crispEdges">
<path stroke-linejoin="round" stroke-linecap="round" stroke="rgb(255,255,0)" stroke-width="3.749996" fill="none" d="M 124.999992 750.000000 L 0.000000 0.000000 " />
<path stroke-linejoin="round" stroke-linecap="round" stroke="rgb(63,63,63)" stroke-width="3.749996" fill="none" d="M 0.000000 0.000000 L 750.000000 750.000000 M 124.999992 750.000000 L 56.818172 0.000000 " />
<path stroke-linejoin="round" stroke-linecap="round" stroke="rgb(191,191,191)" stroke-width="3.749996" fill="none" d="M 0.000000 625.000000 L 124.999992 750.000000 M 0.000000 0.000000 L 68.181824 750.000000 " />
<path stroke-linejoin="round" stroke-linecap="round" stroke="rgb(0,0,255)" stroke-width="1.874998" fill="none" d="M 0.000000 750.000000 L 750.000000 727.272766 " />
<path stroke-linejoin="round" stroke-linecap="round" stroke="rgb(255,0,0)" stroke-width="3.749996" fill="none" d="M 124.656601 746.222534 L 124.999992 750.000000 " />
<path stroke-linejoin="round" stroke-linecap="round" stroke="rgb(0,0,255)" stroke-width="1.874998" fill="none" d="M 0.000000 750.000000 L 750.000000 703.125000 " />
<path stroke-linejoin="round" stroke-linecap="round" stroke="rgb(255,0,0)" stroke-width="3.749996" fill="none" d="M 123.529961 742.279358 L 124.656601 746.222534 " />
<path stroke-linejoin="round" stroke-linecap="round" stroke="rgb(0,0,255)" stroke-width="1.874998" fill="none" d="M 0.000000 750.000000 L 750.000000 677.419312 " />
<path stroke-linejoin="round" stroke-linecap="round" stroke="rgb(255,0,0)" stroke-width="3.749996" fill="none" d="M 122.352852 738.159363 L 123.529961 742.279358 " />
<path stroke-linejoin="round" stroke-linecap="round" stroke="rgb(0,0,255)" stroke-width="1.874998" fill="none" d="M 0.000000 750.000000 L 750.000000 650.000000 " />
<path stroke-linejoin="round" stroke-linecap="round" stroke="rgb(255,0,0)" stroke-width="3.749996" fill="none" d="M 121.121696 733.850403 L 122.352852 738.159363 " />
<path stroke-linejoin="round" stroke-linecap="round" stroke="rgb(0,0,255)" stroke-width="1.874998" fill="none" d="M 0.000000 750.000000 L 750.000000 629.032288 " />
<path stroke-linejoin="round" stroke-linecap="round" stroke="rgb(255,0,0)" stroke-width="3.749996" fill="none" d="M 120.196846 730.613464 L 121.121696 733.850403 " />
<path stroke-linejoin="round" stroke-linecap="round" stroke="rgb(0,0,255)" stroke-width="1.874998" fill="none" d="M 0.000000 750.000000 L 750.000000 600.000000 " />
<path stroke-linejoin="round" stroke-linecap="round" stroke="rgb(255,0,0)" stroke-width="3.749996" fill="none" d="M 118.939316 726.212097 L 120.196846 730.613464 " />
<path stroke-linejoin="round" stroke-linecap="round" stroke="rgb(0,0,255)" stroke-width="1.874998" fill="none" d="M 0.000000 750.000000 L 750.000000 580.645142 " />
<path stroke-linejoin="round" stroke-linecap="round" stroke="rgb(255,0,0)" stroke-width="3.749996" fill="none" d="M 118.115524 723.328735 L 118.939316 726.212097 " />
<path stroke-linejoin="round" stroke-linecap="round" stroke="rgb(0,0,255)" stroke-width="1.874998" fill="none" d="M 0.000000 750.000000 L 750.000000 550.000000 " />
<path stroke-linejoin="round" stroke-linecap="round" stroke="rgb(255,0,0)" stroke-width="3.749996" fill="none" d="M 116.834206 718.844177 L 118.115524 723.328735 " />
<path stroke-linejoin="round" stroke-linecap="round" stroke="rgb(0,0,255)" stroke-width="1.874998" fill="none" d="M 0.000000 750.000000 L 750.000000 517.241394 " />
<path stroke-linejoin="round" stroke-linecap="round" stroke="rgb(255,0,0)" stroke-width="3.749996" fill="none" d="M 115.494934 714.156738 L 116.834206 718.844177 " />
<path stroke-linejoin="round" stroke-linecap="round" stroke="rgb(0,0,255)" stroke-width="1.874998" fill="none" d="M 0.000000 750.000000 L 750.000000 482.142853 " />
<path stroke-linejoin="round" stroke-linecap="round" stroke="rgb(255,0,0)" stroke-width="3.749996" fill="none" d="M 114.093658 709.252258 L 115.494934 714.156738 " />
<path stroke-linejoin="round" stroke-linecap="round" stroke="rgb(0,0,255)" stroke-width="1.874998" fill="none" d="M 0.000000 750.000000 L 750.000000 465.517212 " />
<path stroke-linejoin="round" stroke-linecap="round" stroke="rgb(255,0,0)" stroke-width="3.749996" fill="none" d="M 113.441681 706.970398 L 114.093658 709.252258 " />
<path stroke-linejoin="round" stroke-linecap="round" stroke="rgb(0,0,255)" stroke-width="1.874998" fill="none" d="M 0.000000 750.000000 L 750.000000 428.571411 " />
<path stroke-linejoin="round" stroke-linecap="round" stroke="rgb(255,0,0)" stroke-width="3.749996" fill="none" d="M 112.019218 701.991760 L 113.441681 706.970398 " />
<path stroke-linejoin="round" stroke-linecap="round" stroke="rgb(0,0,255)" stroke-width="1.874998" fill="none" d="M 0.000000 750.000000 L 750.000000 388.888885 " />
<path stroke-linejoin="round" stroke-linecap="round" stroke="rgb(255,0,0)" stroke-width="3.749996" fill="none" d="M 110.530594 696.781555 L 112.019218 701.991760 " />
<path stroke-linejoin="round" stroke-linecap="round" stroke="rgb(0,0,255)" stroke-width="1.874998" fill="none" d="M 0.000000 750.000000 L 750.000000 346.153839 " />
<path stroke-linejoin="round" stroke-linecap="round" stroke="rgb(255,0,0)" stroke-width="3.749996" fill="none" d="M 108.971092 691.323303 L 110.530594 696.781555 " />
<path stroke-linejoin="round" stroke-linecap="round" stroke="rgb(0,0,255)" stroke-width="1.874998" fill="none" d="M 0.000000 750.000000 L 750.000000 299.999969 " />
<path stroke-linejoin="round" stroke-linecap="round" stroke="rgb(255,0,0)" stroke-width="3.749996" fill="none" d="M 107.335503 685.598755 L 108.971092 691.323303 " />
<path stroke-linejoin="round" stroke-linecap="round" stroke="rgb(0,0,255)" stroke-width="1.874998" fill="none" d="M 0.000000 750.000000 L 750.000000 288.461517 " />
<path stroke-linejoin="round" stroke-linecap="round" stroke="rgb(255,0,0)" stroke-width="3.749996" fill="none" d="M 106.934242 684.194336 L 107.335503 685.598755 " />
<path stroke-linejoin="round" stroke-linecap="round" stroke="rgb(0,0,255)" stroke-width="1.874998" fill="none" d="M 0.000000 750.000000 L 750.000000 249.999985 " />
<path stroke-linejoin="round" stroke-linecap="round" stroke="rgb(255,0,0)" stroke-width="3.749996" fill="none" d="M 105.618126 679.587891 L 106.934242 684.194336 " />
<path stroke-linejoin="round" stroke-linecap="round" stroke="rgb(0,0,255)" stroke-width="1.874998" fill="none" d="M 0.000000 750.000000 L 750.000000 240.000000 " />
<path stroke-linejoin="round" stroke-linecap="round" stroke="rgb(255,0,0)" stroke-width="3.749996" fill="none" d="M 105.281242 678.408752 L 105.618149 679.587891 " />
<path stroke-linejoin="round" stroke-linecap="round" stroke="rgb(0,0,255)" stroke-width="1.874998" fill="none" d="M 0.000000 750.000000 L 750.000000 187.500000 " />
<path stroke-linejoin="round" stroke-linecap="round" stroke="rgb(255,0,0)" stroke-width="3.749996" fill="none" d="M 103.547195 672.339600 L 105.281242 678.408752 " />
<path stroke-linejoin="round" stroke-linecap="round" stroke="rgb(0,0,255)" stroke-width="1.874998" fill="none" d="M 0.000000 750.000000 L 750.000000 180.000000 " />
<path stroke-linejoin="round" stroke-linecap="round" stroke="rgb(255,0,0)" stroke-width="3.749996" fill="none" d="M 103.304115 671.488892 L 103.547195 672.339600 " />
<path stroke-linejoin="round" stroke-linecap="round" stroke="rgb(0,0,255)" stroke-width="1.874998" fill="none" d="M 0.000000 750.000000 L 750.000000 130.434799 " />
<path stroke-linejoin="round" stroke-linecap="round" stroke="rgb(255,0,0)" stroke-width="3.749996" fill="none" d="M 101.726021 665.965515 L 103.304115 671.488892 " />
<path stroke-linejoin="round" stroke-linecap="round" stroke="rgb(0,0,255)" stroke-width="1.874998" fill="none" d="M 0.000000 750.000000 L 568.965515 0.000000 " />
<path stroke-linejoin="round" stroke-linecap="round" stroke="rgb(255,0,0)" stroke-width="3.749996" fill="none" d="M 96.627426 622.627502 L 101.726021 665.965515 " />
<path stroke-linejoin="round" stroke-linecap="round" stroke="rgb(0,0,255)" stroke-width="1.874998" fill="none" d="M 0.000000 750.000000 L 403.846161 0.000000 " />
<path stroke-linejoin="round" stroke-linecap="round" stroke="rgb(255,0,0)" stroke-width="3.749996" fill="none" d="M 91.599159 579.887268 L 96.627426 622.627502 " />
<path stroke-linejoin="round" stroke-linecap="round" stroke="rgb(0,0,255)" stroke-width="1.874998" fill="none" d="M 0.000000 750.000000 L 375.000000 0.000000 " />
<path stroke-linejoin="round" stroke-linecap="round" stroke="rgb(255,0,0)" stroke-width="3.749996" fill="none" d="M 90.352913 569.294128 L 91.599159 579.887268 " />
<path stroke-linejoin="round" stroke-linecap="round" stroke="rgb(0,0,255)" stroke-width="1.874998" fill="none" d="M 0.000000 750.000000 L 306.122437 0.000000 " />
<path stroke-linejoin="round" stroke-linecap="round" stroke="rgb(255,0,0)" stroke-width="3.749996" fill="none" d="M 86.639778 537.732544 L 90.352913 569.294128 " />
<path stroke-linejoin="round" stroke-linecap="round" stroke="rgb(0,0,255)" stroke-width="1.874998" fill="none" d="M 0.000000 750.000000 L 266.949158 0.000000 " />
<path stroke-linejoin="round" stroke-linecap="round" stroke="rgb(255,0,0)" stroke-width="3.749996" fill="none" d="M 83.885551 514.321533 L 86.639778 537.732544 " />
<path stroke-linejoin="round" stroke-linecap="round" stroke="rgb(0,0,255)" stroke-width="1.874998" fill="none" d="M 0.000000 750.000000 L 254.716980 0.000000 " />
<path stroke-linejoin="round" stroke-linecap="round" stroke="rgb(255,0,0)" stroke-width="3.749996" fill="none" d="M 82.896599 505.915527 L 83.885551 514.321533 " />
<path stroke-linejoin="round" stroke-linecap="round" stroke="rgb(0,0,255)" stroke-width="1.874998" fill="none" d="M 0.000000 750.000000 L 202.380966 0.000000 " />
<path stroke-linejoin="round" stroke-linecap="round" stroke="rgb(255,0,0)" stroke-width="3.749996" fill="none" d="M 77.725273 461.959229 L 82.896599 505.915527 " />
<path stroke-linejoin="round" stroke-linecap="round" stroke="rgb(0,0,255)" stroke-width="1.874998" fill="none" d="M 0.000000 750.000000 L 184.931519 0.000000 " />
<path stroke-linejoin="round" stroke-linecap="round" stroke="rgb(255,0,0)" stroke-width="3.749996" fill="none" d="M 75.560623 443.559662 L 77.725273 461.959229 " />
<path stroke-linejoin="round" stroke-linecap="round" stroke="rgb(0,0,255)" stroke-width="1.874998" fill="none" d="M 0.000000 750.000000 L 179.104462 0.000000 " />
<path stroke-linejoin="round" stroke-linecap="round" stroke="rgb(255,0,0)" stroke-width="3.749996" fill="none" d="M 74.774826 436.880402 L 75.560623 443.559662 " />
<path stroke-linejoin="round" stroke-linecap="round" stroke="rgb(0,0,255)" stroke-width="1.874998" fill="none" d="M 0.000000 750.000000 L 146.103897 0.000000 " />
<path stroke-linejoin="round" stroke-linecap="round" stroke="rgb(255,0,0)" stroke-width="3.749996" fill="none" d="M 69.587212 392.785675 L 74.774826 436.880402 " />
<path stroke-linejoin="round" stroke-linecap="round" stroke="rgb(0,0,255)" stroke-width="1.874998" fill="none" d="M 0.000000 750.000000 L 137.931030 0.000000 " />
<path stroke-linejoin="round" stroke-linecap="round" stroke="rgb(255,0,0)" stroke-width="3.749996" fill="none" d="M 68.068565 379.877197 L 69.587212 392.785675 " />
<path stroke-linejoin="round" stroke-linecap="round" stroke="rgb(0,0,255)" stroke-width="1.874998" fill="none" d="M 0.000000 750.000000 L 117.469894 0.000000 " />
<path stroke-linejoin="round" stroke-linecap="round" stroke="rgb(255,0,0)" stroke-width="3.749996" fill="none" d="M 63.737331 343.061676 L 68.068565 379.877197 " />
<path stroke-linejoin="round" stroke-linecap="round" stroke="rgb(0,0,255)" stroke-width="1.874998" fill="none" d="M 0.000000 750.000000 L 112.903229 0.000000 " />
<path stroke-linejoin="round" stroke-linecap="round" stroke="rgb(255,0,0)" stroke-width="3.749996" fill="none" d="M 62.650368 333.822540 L 63.737331 343.061676 " />
<path stroke-linejoin="round" stroke-linecap="round" stroke="rgb(0,0,255)" stroke-width="1.874998" fill="none" d="M 0.000000 750.000000 L 104.651169 0.000000 " />
<path stroke-linejoin="round" stroke-linecap="round" stroke="rgb(255,0,0)" stroke-width="3.749996" fill="none" d="M 60.555676 316.017609 L 62.650368 333.822540 " />
<path stroke-linejoin="round" stroke-linecap="round" stroke="rgb(0,0,255)" stroke-width="1.874998" fill="none" d="M 0.000000 750.000000 L 92.783508 0.000000 " />
<path stroke-linejoin="round" stroke-linecap="round" stroke="rgb(255,0,0)" stroke-width="3.749996" fill="none" d="M 57.208389 287.565582 L 60.555676 316.017609 " />
<path stroke-linejoin="round" stroke-linecap="round" stroke="rgb(0,0,255)" stroke-width="1.874998" fill="none" d="M 0.000000 750.000000 L 91.836739 0.000000 " />
<path stroke-linejoin="round" stroke-linecap="round" stroke="rgb(255,0,0)" stroke-width="3.749996" fill="none" d="M 56.922333 285.134277 L 57.208389 287.565582 " />
<path stroke-linejoin="round" stroke-linecap="round" stroke="rgb(0,0,255)" stroke-width="1.874998" fill="none" d="M 0.000000 750.000000 L 87.378639 0.000000 " />
<path stroke-linejoin="round" stroke-linecap="round" stroke="rgb(255,0,0)" stroke-width="3.749996" fill="none" d="M 55.533997 273.333221 L 56.922333 285.134277 " />
<path stroke-linejoin="round" stroke-linecap="round" stroke="rgb(0,0,255)" stroke-width="1.874998" fill="none" d="M 0.000000 750.000000 L 78.488365 0.000000 " />
<path stroke-linejoin="round" stroke-linecap="round" stroke="rgb(255,0,0)" stroke-width="3.749996" fill="none" d="M 51.398479 258.858917 L 55.533997 273.333221 " />
<path stroke-linejoin="round" stroke-linecap="round" stroke="rgb(0,0,255)" stroke-width="1.874998" fill="none" d="M 0.000000 750.000000 L 62.500008 0.000000 " />
<path stroke-linejoin="round" stroke-linecap="round" stroke="rgb(255,0,0)" stroke-width="3.749996" fill="none" d="M 45.269676 206.763931 L 51.398479 258.858917 " />
<path stroke-linejoin="round" stroke-linecap="round" stroke="rgb(0,0,255)" stroke-width="1.874998" fill="none" d="M 0.000000 750.000000 L 56.074753 0.000000 " />
<path stroke-linejoin="round" stroke-linecap="round" stroke="rgb(255,0,0)" stroke-width="3.749996" fill="none" d="M 42.424141 182.577011 L 45.269676 206.763931 " />
<path stroke-linejoin="round" stroke-linecap="round" stroke="rgb(0,0,255)" stroke-width="1.874998" fill="none" d="M 0.000000 750.000000 L 54.054066 0.000000 " />
<path stroke-linejoin="round" stroke-linecap="round" stroke="rgb(255,0,0)" stroke-width="3.749996" fill="none" d="M 41.476116 174.518753 L 42.424141 182.577011 " />
<path stroke-linejoin="round" stroke-linecap="round" stroke="rgb(0,0,255)" stroke-width="1.874998" fill="none" d="M 0.000000 750.000000 L 52.173904 0.000000 " />
<path stroke-linejoin="round" stroke-linecap="round" stroke="rgb(255,0,0)" stroke-width="3.749996" fill="none" d="M 40.569530 166.812836 L 41.476116 174.518753 " />
<path stroke-linejoin="round" stroke-linecap="round" stroke="rgb(0,0,255)" stroke-width="1.874998" fill="none" d="M 0.000000 750.000000 L 43.032780 0.000000 " />
<path stroke-linejoin="round" stroke-linecap="round" stroke="rgb(255,0,0)" stroke-width="3.749996" fill="none" d="M 35.791710 126.201401 L 40.569530 166.812836 " />
<path stroke-linejoin="round" stroke-linecap="round" stroke="rgb(0,0,255)" stroke-width="1.874998" fill="none" d="M 0.000000 750.000000 L 34.090919 0.000000 " />
<path stroke-linejoin="round" stroke-linecap="round" stroke="rgb(255,0,0)" stroke-width="3.749996" fill="none" d="M 30.427158 80.602592 L 35.791710 126.201401 " />
<path stroke-linejoin="round" stroke-linecap="round" stroke="rgb(0,0,255)" stroke-width="1.874998" fill="none" d="M 0.000000 750.000000 L 32.142857 0.000000 " />
<path stroke-linejoin="round" stroke-linecap="round" stroke="rgb(255,0,0)" stroke-width="3.749996" fill="none" d="M 29.152729 69.769867 L 30.427158 80.602592 " />
<path stroke-linejoin="round" stroke-linecap="round" stroke="rgb(0,0,255)" stroke-width="1.874998" fill="none" d="M 0.000000 750.000000 L 31.779661 0.000000 " />
<path stroke-linejoin="round" stroke-linecap="round" stroke="rgb(255,0,0)" stroke-width="3.749996" fill="none" d="M 28.865845 68.765869 L 29.152729 69.769867 " />
<path stroke-linejoin="round" stroke-linecap="round" stroke="rgb(0,0,255)" stroke-width="1.874998" fill="none" d="M 0.000000 750.000000 L 23.437500 0.000000 " />
<path stroke-linejoin="round" stroke-linecap="round" stroke="rgb(255,0,0)" stroke-width="3.749996" fill="none" d="M 22.463903 31.155043 L 28.865845 68.765869 " />
<path stroke-linejoin="round" stroke-linecap="round" stroke="rgb(0,0,255)" stroke-width="1.874998" fill="none" d="M 0.000000 750.000000 L 21.582729 0.000000 " />
<path stroke-linejoin="round" stroke-linecap="round" stroke="rgb(255,0,0)" stroke-width="3.749996" fill="none" d="M 20.924896 22.860109 L 22.463903 31.155109 " />
<path stroke-linejoin="round" stroke-linecap="round" stroke="rgb(0,0,255)" stroke-width="1.874998" fill="none" d="M 0.000000 750.000000 L 20.270281 0.000000 " />
<path stroke-linejoin="round" stroke-linecap="round" stroke="rgb(255,0,0)" stroke-width="3.749996" fill="none" d="M 19.724518 20.193213 L 20.924896 22.860109 " />
<path stroke-linejoin="round" stroke-linecap="round" stroke="rgb(0,0,255)" stroke-width="1.874998" fill="none" d="M 0.000000 750.000000 L 19.230768 0.000000 " />
<path stroke-linejoin="round" stroke-linecap="round" stroke="rgb(255,0,0)" stroke-width="3.749996" fill="none" d="M 18.747099 18.863194 L 19.724518 20.193213 " />
<path stroke-linejoin="round" stroke-linecap="round" stroke="rgb(0,0,255)" stroke-width="1.874998" fill="none" d="M 0.000000 750.000000 L 17.578125 0.000000 " />
<path stroke-linejoin="round" stroke-linecap="round" stroke="rgb(255,0,0)" stroke-width="3.749996" fill="none" d="M 17.173580 17.260664 L 18.747099 18.863194 " />
<path stroke-linejoin="round" stroke-linecap="round" stroke="rgb(0,0,255)" stroke-width="1.874998" fill="none" d="M 0.000000 750.000000 L 10.869562 0.000000 " />
<path stroke-linejoin="round" stroke-linecap="round" stroke="rgb(255,0,0)" stroke-width="3.749996" fill="none" d="M 10.713972 10.735743 L 17.173580 17.260664 " />
<path stroke-linejoin="round" stroke-linecap="round" stroke="rgb(0,0,255)" stroke-width="1.874998" fill="none" d="M 0.000000 750.000000 L 5.067564 0.000000 " />
<path stroke-linejoin="round" stroke-linecap="round" stroke="rgb(255,0,0)" stroke-width="3.749996" fill="none" d="M 5.033523 5.038977 L 10.713972 10.735743 " />
<path stroke-linejoin="round" stroke-linecap="round" stroke="rgb(0,0,255)" stroke-width="1.874998" fill="none" d="M 0.000000 750.000000 L 0.000000 0.000000 " />
<path stroke-linejoin="round" stroke-linecap="round" stroke="rgb(255,0,0)" stroke-width="3.749996" fill="none" d="M 0.000000 0.000000 L 5.033523 5.039044 " />
<circle cx="124.656603" cy="746.222533" r="3.749996" style="fill:rgb(0,127,0);stroke-width:1" /><circle cx="123.529963" cy="742.279373" r="3.749996" style="fill:rgb(0,127,0);stroke-width:1" /><circle cx="122.352853" cy="738.159411" r="3.749996" style="fill:rgb(0,127,0);stroke-width:1" /><circle cx="121.121697" cy="733.850442" r="3.749996" style="fill:rgb(0,127,0);stroke-width:1" /><circle cx="120.196849" cy="730.613418" r="3.749996" style="fill:rgb(0,127,0);stroke-width:1" /><circle cx="118.939318" cy="726.212136" r="3.749996" style="fill:rgb(0,127,0);stroke-width:1" /><circle cx="118.115522" cy="723.328762" r="3.749996" style="fill:rgb(0,127,0);stroke-width:1" /><circle cx="116.834208" cy="718.844198" r="3.749996" style="fill:rgb(0,127,0);stroke-width:1" /><circle cx="115.494937" cy="714.156747" r="3.749996" style="fill:rgb(0,127,0);stroke-width:1" /><circle cx="114.093661" cy="709.252261" r="3.749996" style="fill:rgb(0,127,0);stroke-width:1" /><circle cx="113.441683" cy="706.970394" r="3.749996" style="fill:rgb(0,127,0);stroke-width:1" /><circle cx="112.019219" cy="701.991767" r="3.749996" style="fill:rgb(0,127,0);stroke-width:1" /><circle cx="110.530593" cy="696.781576" r="3.749996" style="fill:rgb(0,127,0);stroke-width:1" /><circle cx="108.971089" cy="691.323258" r="3.749996" style="fill:rgb(0,127,0);stroke-width:1" /><circle cx="107.335500" cy="685.598709" r="3.749996" style="fill:rgb(0,127,0);stroke-width:1" /><circle cx="106.934242" cy="684.194304" r="3.749996" style="fill:rgb(0,127,0);stroke-width:1" /><circle cx="105.618127" cy="679.587901" r="3.749996" style="fill:rgb(0,127,0);stroke-width:1" /><circle cx="105.281241" cy="678.408757" r="3.749996" style="fill:rgb(0,127,0);stroke-width:1" /><circle cx="103.547193" cy="672.339611" r="3.749996" style="fill:rgb(0,127,0);stroke-width:1" /><circle cx="103.304118" cy="671.488859" r="3.749996" style="fill:rgb(0,127,0);stroke-width:1" /><circle cx="101.726018" cy="665.965475" r="3.749996" style="fill:rgb(0,127,0);stroke-width:1" /><circle cx="96.627429" cy="622.627482" r="3.749996" style="fill:rgb(0,127,0);stroke-width:1" /><circle cx="91.599159" cy="579.887263" r="3.749996" style="fill:rgb(0,127,0);stroke-width:1" /><circle cx="90.352915" cy="569.294147" r="3.749996" style="fill:rgb(0,127,0);stroke-width:1" /><circle cx="86.639777" cy="537.732527" r="3.749996" style="fill:rgb(0,127,0);stroke-width:1" /><circle cx="83.885550" cy="514.321547" r="3.749996" style="fill:rgb(0,127,0);stroke-width:1" /><circle cx="82.896598" cy="505.915549" r="3.749996" style="fill:rgb(0,127,0);stroke-width:1" /><circle cx="77.725276" cy="461.959245" r="3.749996" style="fill:rgb(0,127,0);stroke-width:1" /><circle cx="75.560622" cy="443.559676" r="3.749996" style="fill:rgb(0,127,0);stroke-width:1" /><circle cx="74.774824" cy="436.880412" r="3.749996" style="fill:rgb(0,127,0);stroke-width:1" /><circle cx="69.587208" cy="392.785668" r="3.749996" style="fill:rgb(0,127,0);stroke-width:1" /><circle cx="68.068564" cy="379.877180" r="3.749996" style="fill:rgb(0,127,0);stroke-width:1" /><circle cx="63.737333" cy="343.061655" r="3.749996" style="fill:rgb(0,127,0);stroke-width:1" /><circle cx="62.650368" cy="333.822518" r="3.749996" style="fill:rgb(0,127,0);stroke-width:1" /><circle cx="60.555674" cy="316.017626" r="3.749996" style="fill:rgb(0,127,0);stroke-width:1" /><circle cx="57.208389" cy="287.565591" r="3.749996" style="fill:rgb(0,127,0);stroke-width:1" /><circle cx="56.922331" cy="285.134258" r="3.749996" style="fill:rgb(0,127,0);stroke-width:1" /><circle cx="55.533998" cy="273.333225" r="3.749996" style="fill:rgb(0,127,0);stroke-width:1" /><circle cx="51.398478" cy="258.858919" r="3.749996" style="fill:rgb(0,127,0);stroke-width:1" /><circle cx="45.269676" cy="206.763927" r="3.749996" style="fill:rgb(0,127,0);stroke-width:1" /><circle cx="42.424142" cy="182.577007" r="3.749996" style="fill:rgb(0,127,0);stroke-width:1" /><circle cx="41.476116" cy="174.518757" r="3.749996" style="fill:rgb(0,127,0);stroke-width:1" /><circle cx="40.569529" cy="166.812837" r="3.749996" style="fill:rgb(0,127,0);stroke-width:1" /><circle cx="35.791710" cy="126.201399" r="3.749996" style="fill:rgb(0,127,0);stroke-width:1" /><circle cx="30.427158" cy="80.602594" r="3.749996" style="fill:rgb(0,127,0);stroke-width:1" /><circle cx="29.152729" cy="69.769867" r="3.749996" style="fill:rgb(0,127,0);stroke-width:1" /><circle cx="28.865844" cy="68.765871" r="3.749996" style="fill:rgb(0,127,0);stroke-width:1" /><circle cx="22.463903" cy="31.155042" r="3.749996" style="fill:rgb(0,127,0);stroke-width:1" /><circle cx="20.924896" cy="22.860110" r="3.749996" style="fill:rgb(0,127,0);stroke-width:1" /><circle cx="19.724518" cy="20.193212" r="3.749996" style="fill:rgb(0,127,0);stroke-width:1" /><circle cx="18.747099" cy="18.863194" r="3.749996" style="fill:rgb(0,127,0);stroke-width:1" /><circle cx="17.173581" cy="17.260663" r="3.749996" style="fill:rgb(0,127,0);stroke-width:1" /><circle cx="10.713972" cy="10.735743" r="3.749996" style="fill:rgb(0,127,0);stroke-width:1" /><circle cx="5.033523" cy="5.038977" r="3.749996" style="fill:rgb(0,127,0);stroke-width:1" /><circle cx="750.000000" cy="750.000000" r="3.749996" style="fill:rgb(0,127,0);stroke-width:1" /><path stroke-linejoin="round" stroke-linecap="round" stroke="rgb(255,255,255)" stroke-width="3.749996" fill="none" d="M 0.000000 750.000000 L 750.000000 750.000000 M 0.000000 750.000000 L 0.000000 0.000000 " />

</svg>