<svg xmlns="http://www.w3.org/2000/svg" version="1.1" width = "750" height = "750" viewBox = "0 0 750 750"  shape-rendering="crispEdges">
<path stroke-linejoin="round" stroke-linecap="round" stroke="rgb(255,255,0)" stroke-width="3.749996" fill="none" d="M 124.999992 750.000000 L 0.000000 0.000000 " />
<path stroke-linejoin="round" stroke-linecap="round" stroke="rgb(63,63,63)" stroke-width="3.749996" fill="none" d="M 0.000000 0.000000 L 750.000000 750.000000 M 124.999992 750.000000 L 56.818172 0.000000 " />
<path stroke-linejoin="round" stroke-linecap="round" stroke="rgb(191,191,191)" stroke-width="3.749996" fill="none" d="M 0.000000 625.000000 L 124.999992 750.000000 M 0.000000 0.000000 L 68.181824 750.000000 " />
<path stroke-linejoin="round" stroke-linecap="round" stroke="rgb(0,0,255)" stroke-width="1.874998" fill="none" d="M 0.000000 750.000000 L 750.000000 730.263123 " />
<path stroke-linejoin="round" stroke-linecap="round" stroke="rgb(255,0,0)" stroke-width="3.749996" fill="none" d="M 124.701660 746.718384 L 124.999992 750.000000 " />
<path stroke-linejoin="round" stroke-linecap="round" stroke="rgb(0,0,255)" stroke-width="1.874998" fill="none" d="M 0.000000 750.000000 L 750.000000 709.459473 " />
<path stroke-linejoin="round" stroke-linecap="round" stroke="rgb(255,0,0)" stroke-width="3.749996" fill="none" d="M 121.420052 743.436707 L 124.701660 746.718384 " />
<path stroke-linejoin="round" stroke-linecap="round" stroke="rgb(0,0,255)" stroke-width="1.874998" fill="none" d="M 0.000000 750.000000 L 750.000000 690.789490 " />
<path stroke-linejoin="round" stroke-linecap="round" stroke="rgb(255,0,0)" stroke-width="3.749996" fill="none" d="M 118.618660 740.635376 L 121.420052 743.436707 " />
<path stroke-linejoin="round" stroke-linecap="round" stroke="rgb(0,0,255)" stroke-width="1.874998" fill="none" d="M 0.000000 750.000000 L 750.000000 687.500000 " />
<path stroke-linejoin="round" stroke-linecap="round" stroke="rgb(255,0,0)" stroke-width="3.749996" fill="none" d="M 118.138412 740.155151 L 118.618660 740.635376 " />
<path stroke-linejoin="round" stroke-linecap="round" stroke="rgb(0,0,255)" stroke-width="1.874998" fill="none" d="M 0.000000 750.000000 L 750.000000 664.285706 " />
<path stroke-linejoin="round" stroke-linecap="round" stroke="rgb(255,0,0)" stroke-width="3.749996" fill="none" d="M 114.856796 736.873535 L 118.138412 740.155151 " />
<path stroke-linejoin="round" stroke-linecap="round" stroke="rgb(0,0,255)" stroke-width="1.874998" fill="none" d="M 0.000000 750.000000 L 750.000000 639.705872 " />
<path stroke-linejoin="round" stroke-linecap="round" stroke="rgb(255,0,0)" stroke-width="3.749996" fill="none" d="M 111.575180 733.591858 L 114.856796 736.873535 " />
<path stroke-linejoin="round" stroke-linecap="round" stroke="rgb(0,0,255)" stroke-width="1.874998" fill="none" d="M 0.000000 750.000000 L 750.000000 621.428589 " />
<path stroke-linejoin="round" stroke-linecap="round" stroke="rgb(255,0,0)" stroke-width="3.749996" fill="none" d="M 109.254021 731.270752 L 111.575180 733.591858 " />
<path stroke-linejoin="round" stroke-linecap="round" stroke="rgb(0,0,255)" stroke-width="1.874998" fill="none" d="M 0.000000 750.000000 L 750.000000 595.588196 " />
<path stroke-linejoin="round" stroke-linecap="round" stroke="rgb(255,0,0)" stroke-width="3.749996" fill="none" d="M 106.132484 728.149231 L 109.254021 731.270752 " />
<path stroke-linejoin="round" stroke-linecap="round" stroke="rgb(0,0,255)" stroke-width="1.874998" fill="none" d="M 0.000000 750.000000 L 750.000000 578.571411 " />
<path stroke-linejoin="round" stroke-linecap="round" stroke="rgb(255,0,0)" stroke-width="3.749996" fill="none" d="M 104.172440 726.189148 L 106.132484 728.149231 " />
<path stroke-linejoin="round" stroke-linecap="round" stroke="rgb(0,0,255)" stroke-width="1.874998" fill="none" d="M 0.000000 750.000000 L 750.000000 568.181824 " />
<path stroke-linejoin="round" stroke-linecap="round" stroke="rgb(255,0,0)" stroke-width="3.749996" fill="none" d="M 103.010933 725.027649 L 104.172440 726.189148 " />
<path stroke-linejoin="round" stroke-linecap="round" stroke="rgb(0,0,255)" stroke-width="1.874998" fill="none" d="M 0.000000 750.000000 L 750.000000 539.062500 " />
<path stroke-linejoin="round" stroke-linecap="round" stroke="rgb(255,0,0)" stroke-width="3.749996" fill="none" d="M 99.889374 721.906067 L 103.010933 725.027649 " />
<path stroke-linejoin="round" stroke-linecap="round" stroke="rgb(0,0,255)" stroke-width="1.874998" fill="none" d="M 0.000000 750.000000 L 750.000000 508.064514 " />
<path stroke-linejoin="round" stroke-linecap="round" stroke="rgb(255,0,0)" stroke-width="3.749996" fill="none" d="M 96.767845 718.784546 L 99.889374 721.906067 " />
<path stroke-linejoin="round" stroke-linecap="round" stroke="rgb(0,0,255)" stroke-width="1.874998" fill="none" d="M 0.000000 750.000000 L 750.000000 492.187500 " />
<path stroke-linejoin="round" stroke-linecap="round" stroke="rgb(255,0,0)" stroke-width="3.749996" fill="none" d="M 95.243362 717.260071 L 96.767868 718.784546 " />
<path stroke-linejoin="round" stroke-linecap="round" stroke="rgb(0,0,255)" stroke-width="1.874998" fill="none" d="M 0.000000 750.000000 L 750.000000 475.000000 " />
<path stroke-linejoin="round" stroke-linecap="round" stroke="rgb(255,0,0)" stroke-width="3.749996" fill="none" d="M 93.646309 715.663025 L 95.243362 717.260071 " />
<path stroke-linejoin="round" stroke-linecap="round" stroke="rgb(0,0,255)" stroke-width="1.874998" fill="none" d="M 0.000000 750.000000 L 750.000000 459.677429 " />
<path stroke-linejoin="round" stroke-linecap="round" stroke="rgb(255,0,0)" stroke-width="3.749996" fill="none" d="M 92.267006 714.283752 L 93.646309 715.663025 " />
<path stroke-linejoin="round" stroke-linecap="round" stroke="rgb(0,0,255)" stroke-width="1.874998" fill="none" d="M 0.000000 750.000000 L 750.000000 425.000000 " />
<path stroke-linejoin="round" stroke-linecap="round" stroke="rgb(255,0,0)" stroke-width="3.749996" fill="none" d="M 89.290649 711.307373 L 92.267006 714.283752 " />
<path stroke-linejoin="round" stroke-linecap="round" stroke="rgb(0,0,255)" stroke-width="1.874998" fill="none" d="M 0.000000 750.000000 L 750.000000 387.931030 " />
<path stroke-linejoin="round" stroke-linecap="round" stroke="rgb(255,0,0)" stroke-width="3.749996" fill="none" d="M 86.314293 708.331055 L 89.290649 711.307373 " />
<path stroke-linejoin="round" stroke-linecap="round" stroke="rgb(0,0,255)" stroke-width="1.874998" fill="none" d="M 0.000000 750.000000 L 750.000000 348.214294 " />
<path stroke-linejoin="round" stroke-linecap="round" stroke="rgb(255,0,0)" stroke-width="3.749996" fill="none" d="M 83.337952 705.354675 L 86.314293 708.331055 " />
<path stroke-linejoin="round" stroke-linecap="round" stroke="rgb(0,0,255)" stroke-width="1.874998" fill="none" d="M 0.000000 750.000000 L 750.000000 336.206909 " />
<path stroke-linejoin="round" stroke-linecap="round" stroke="rgb(255,0,0)" stroke-width="3.749996" fill="none" d="M 82.478104 704.494873 L 83.337952 705.354675 " />
<path stroke-linejoin="round" stroke-linecap="round" stroke="rgb(0,0,255)" stroke-width="1.874998" fill="none" d="M 0.000000 750.000000 L 750.000000 305.555542 " />
<path stroke-linejoin="round" stroke-linecap="round" stroke="rgb(255,0,0)" stroke-width="3.749996" fill="none" d="M 80.361595 702.378296 L 82.478104 704.494873 " />
<path stroke-linejoin="round" stroke-linecap="round" stroke="rgb(0,0,255)" stroke-width="1.874998" fill="none" d="M 0.000000 750.000000 L 750.000000 294.642853 " />
<path stroke-linejoin="round" stroke-linecap="round" stroke="rgb(255,0,0)" stroke-width="3.749996" fill="none" d="M 79.634048 701.650757 L 80.361595 702.378296 " />
<path stroke-linejoin="round" stroke-linecap="round" stroke="rgb(0,0,255)" stroke-width="1.874998" fill="none" d="M 0.000000 750.000000 L 750.000000 249.999985 " />
<path stroke-linejoin="round" stroke-linecap="round" stroke="rgb(255,0,0)" stroke-width="3.749996" fill="none" d="M 76.789970 698.806702 L 79.634026 701.650757 " />
<path stroke-linejoin="round" stroke-linecap="round" stroke="rgb(0,0,255)" stroke-width="1.874998" fill="none" d="M 0.000000 750.000000 L 750.000000 201.923080 " />
<path stroke-linejoin="round" stroke-linecap="round" stroke="rgb(255,0,0)" stroke-width="3.749996" fill="none" d="M 73.945885 695.962585 L 76.789970 698.806702 " />
<path stroke-linejoin="round" stroke-linecap="round" stroke="rgb(0,0,255)" stroke-width="1.874998" fill="none" d="M 0.000000 750.000000 L 750.000000 194.444458 " />
<path stroke-linejoin="round" stroke-linecap="round" stroke="rgb(255,0,0)" stroke-width="3.749996" fill="none" d="M 73.522301 695.539062 L 73.945885 695.962585 " />
<path stroke-linejoin="round" stroke-linecap="round" stroke="rgb(0,0,255)" stroke-width="1.874998" fill="none" d="M 0.000000 750.000000 L 750.000000 149.999985 " />
<path stroke-linejoin="round" stroke-linecap="round" stroke="rgb(255,0,0)" stroke-width="3.749996" fill="none" d="M 71.101830 693.118591 L 73.522301 695.539062 " />
<path stroke-linejoin="round" stroke-linecap="round" stroke="rgb(0,0,255)" stroke-width="1.874998" fill="none" d="M 0.000000 750.000000 L 750.000000 93.750000 " />
<path stroke-linejoin="round" stroke-linecap="round" stroke="rgb(255,0,0)" stroke-width="3.749996" fill="none" d="M 68.257751 690.274475 L 71.101830 693.118591 " />
<path stroke-linejoin="round" stroke-linecap="round" stroke="rgb(0,0,255)" stroke-width="1.874998" fill="none" d="M 0.000000 750.000000 L 750.000000 90.000000 " />
<path stroke-linejoin="round" stroke-linecap="round" stroke="rgb(255,0,0)" stroke-width="3.749996" fill="none" d="M 68.076210 690.092957 L 68.257751 690.274475 " />
<path stroke-linejoin="round" stroke-linecap="round" stroke="rgb(0,0,255)" stroke-width="1.874998" fill="none" d="M 0.000000 750.000000 L 750.000000 32.608688 " />
<path stroke-linejoin="round" stroke-linecap="round" stroke="rgb(255,0,0)" stroke-width="3.749996" fill="none" d="M 65.413666 687.430420 L 68.076210 690.092957 " />
<path stroke-linejoin="round" stroke-linecap="round" stroke="rgb(0,0,255)" stroke-width="1.874998" fill="none" d="M 0.000000 750.000000 L 717.391296 0.000000 " />
<path stroke-linejoin="round" stroke-linecap="round" stroke="rgb(255,0,0)" stroke-width="3.749996" fill="none" d="M 62.569611 684.586304 L 65.413666 687.430420 " />
<path stroke-linejoin="round" stroke-linecap="round" stroke="rgb(0,0,255)" stroke-width="1.874998" fill="none" d="M 0.000000 750.000000 L 656.249939 0.000000 " />
<path stroke-linejoin="round" stroke-linecap="round" stroke="rgb(255,0,0)" stroke-width="3.749996" fill="none" d="M 61.764702 679.411743 L 62.569611 684.586304 " />
<path stroke-linejoin="round" stroke-linecap="round" stroke="rgb(0,0,255)" stroke-width="1.874998" fill="none" d="M 0.000000 750.000000 L 600.000000 0.000000 " />
<path stroke-linejoin="round" stroke-linecap="round" stroke="rgb(255,0,0)" stroke-width="3.749996" fill="none" d="M 61.224506 673.469360 L 61.764702 679.411743 " />
<path stroke-linejoin="round" stroke-linecap="round" stroke="rgb(0,0,255)" stroke-width="1.874998" fill="none" d="M 0.000000 750.000000 L 548.076904 0.000000 " />
<path stroke-linejoin="round" stroke-linecap="round" stroke="rgb(255,0,0)" stroke-width="3.749996" fill="none" d="M 60.638309 667.021301 L 61.224506 673.469360 " />
<path stroke-linejoin="round" stroke-linecap="round" stroke="rgb(0,0,255)" stroke-width="1.874998" fill="none" d="M 0.000000 750.000000 L 500.000000 0.000000 " />
<path stroke-linejoin="round" stroke-linecap="round" stroke="rgb(255,0,0)" stroke-width="3.749996" fill="none" d="M 60.000011 660.000000 L 60.638309 667.021301 " />
<path stroke-linejoin="round" stroke-linecap="round" stroke="rgb(0,0,255)" stroke-width="1.874998" fill="none" d="M 0.000000 750.000000 L 465.517212 0.000000 " />
<path stroke-linejoin="round" stroke-linecap="round" stroke="rgb(255,0,0)" stroke-width="3.749996" fill="none" d="M 59.471367 654.185059 L 60.000011 660.000000 " />
<path stroke-linejoin="round" stroke-linecap="round" stroke="rgb(0,0,255)" stroke-width="1.874998" fill="none" d="M 0.000000 750.000000 L 435.483856 0.000000 " />
<path stroke-linejoin="round" stroke-linecap="round" stroke="rgb(255,0,0)" stroke-width="3.749996" fill="none" d="M 58.951958 648.471619 L 59.471367 654.185059 " />
<path stroke-linejoin="round" stroke-linecap="round" stroke="rgb(0,0,255)" stroke-width="1.874998" fill="none" d="M 0.000000 750.000000 L 310.975616 0.000000 " />
<path stroke-linejoin="round" stroke-linecap="round" stroke="rgb(255,0,0)" stroke-width="3.749996" fill="none" d="M 55.921040 615.131592 L 58.951958 648.471619 " />
<path stroke-linejoin="round" stroke-linecap="round" stroke="rgb(0,0,255)" stroke-width="1.874998" fill="none" d="M 0.000000 750.000000 L 264.705902 0.000000 " />
<path stroke-linejoin="round" stroke-linecap="round" stroke="rgb(255,0,0)" stroke-width="3.749996" fill="none" d="M 54.216854 596.385620 L 55.921040 615.131592 " />
<path stroke-linejoin="round" stroke-linecap="round" stroke="rgb(0,0,255)" stroke-width="1.874998" fill="none" d="M 0.000000 750.000000 L 255.681824 0.000000 " />
<path stroke-linejoin="round" stroke-linecap="round" stroke="rgb(255,0,0)" stroke-width="3.749996" fill="none" d="M 53.827732 592.105286 L 54.216854 596.385620 " />
<path stroke-linejoin="round" stroke-linecap="round" stroke="rgb(0,0,255)" stroke-width="1.874998" fill="none" d="M 0.000000 750.000000 L 244.565231 0.000000 " />
<path stroke-linejoin="round" stroke-linecap="round" stroke="rgb(255,0,0)" stroke-width="3.749996" fill="none" d="M 53.317532 586.492920 L 53.827732 592.105286 " />
<path stroke-linejoin="round" stroke-linecap="round" stroke="rgb(0,0,255)" stroke-width="1.874998" fill="none" d="M 0.000000 750.000000 L 234.375000 0.000000 " />
<path stroke-linejoin="round" stroke-linecap="round" stroke="rgb(255,0,0)" stroke-width="3.749996" fill="none" d="M 52.816898 580.985962 L 53.317532 586.492920 " />
<path stroke-linejoin="round" stroke-linecap="round" stroke="rgb(0,0,255)" stroke-width="1.874998" fill="none" d="M 0.000000 750.000000 L 214.285721 0.000000 " />
<path stroke-linejoin="round" stroke-linecap="round" stroke="rgb(255,0,0)" stroke-width="3.749996" fill="none" d="M 51.724121 568.965576 L 52.816898 580.985962 " />
<path stroke-linejoin="round" stroke-linecap="round" stroke="rgb(0,0,255)" stroke-width="1.874998" fill="none" d="M 0.000000 750.000000 L 195.000015 0.000000 " />
<path stroke-linejoin="round" stroke-linecap="round" stroke="rgb(255,0,0)" stroke-width="3.749996" fill="none" d="M 50.518131 555.699524 L 51.724121 568.965576 " />
<path stroke-linejoin="round" stroke-linecap="round" stroke="rgb(0,0,255)" stroke-width="1.874998" fill="none" d="M 0.000000 750.000000 L 187.500000 0.000000 " />
<path stroke-linejoin="round" stroke-linecap="round" stroke="rgb(255,0,0)" stroke-width="3.749996" fill="none" d="M 49.999996 550.000000 L 50.518131 555.699524 " />
<path stroke-linejoin="round" stroke-linecap="round" stroke="rgb(0,0,255)" stroke-width="1.874998" fill="none" d="M 0.000000 750.000000 L 180.555542 0.000000 " />
<path stroke-linejoin="round" stroke-linecap="round" stroke="rgb(255,0,0)" stroke-width="3.749996" fill="none" d="M 49.492390 544.416260 L 49.999996 550.000000 " />
<path stroke-linejoin="round" stroke-linecap="round" stroke="rgb(0,0,255)" stroke-width="1.874998" fill="none" d="M 0.000000 750.000000 L 177.966095 0.000000 " />
<path stroke-linejoin="round" stroke-linecap="round" stroke="rgb(255,0,0)" stroke-width="3.749996" fill="none" d="M 49.295761 542.253540 L 49.492390 544.416260 " />
<path stroke-linejoin="round" stroke-linecap="round" stroke="rgb(0,0,255)" stroke-width="1.874998" fill="none" d="M 0.000000 750.000000 L 162.500000 0.000000 " />
<path stroke-linejoin="round" stroke-linecap="round" stroke="rgb(255,0,0)" stroke-width="3.749996" fill="none" d="M 48.029556 528.325195 L 49.295761 542.253540 " />
<path stroke-linejoin="round" stroke-linecap="round" stroke="rgb(0,0,255)" stroke-width="1.874998" fill="none" d="M 0.000000 750.000000 L 157.258041 0.000000 " />
<path stroke-linejoin="round" stroke-linecap="round" stroke="rgb(255,0,0)" stroke-width="3.749996" fill="none" d="M 47.560974 523.170776 L 48.029556 528.325195 " />
<path stroke-linejoin="round" stroke-linecap="round" stroke="rgb(0,0,255)" stroke-width="1.874998" fill="none" d="M 0.000000 750.000000 L 142.857132 0.000000 " />
<path stroke-linejoin="round" stroke-linecap="round" stroke="rgb(255,0,0)" stroke-width="3.749996" fill="none" d="M 46.153843 507.692322 L 47.560974 523.170776 " />
<path stroke-linejoin="round" stroke-linecap="round" stroke="rgb(0,0,255)" stroke-width="1.874998" fill="none" d="M 0.000000 750.000000 L 138.461533 0.000000 " />
<path stroke-linejoin="round" stroke-linecap="round" stroke="rgb(255,0,0)" stroke-width="3.749996" fill="none" d="M 45.685261 502.538086 L 46.153843 507.692322 " />
<path stroke-linejoin="round" stroke-linecap="round" stroke="rgb(0,0,255)" stroke-width="1.874998" fill="none" d="M 0.000000 750.000000 L 134.328354 0.000000 " />
<path stroke-linejoin="round" stroke-linecap="round" stroke="rgb(255,0,0)" stroke-width="3.749996" fill="none" d="M 45.226112 497.487488 L 45.685261 502.538086 " />
<path stroke-linejoin="round" stroke-linecap="round" stroke="rgb(0,0,255)" stroke-width="1.874998" fill="none" d="M 0.000000 750.000000 L 130.434799 0.000000 " />
<path stroke-linejoin="round" stroke-linecap="round" stroke="rgb(255,0,0)" stroke-width="3.749996" fill="none" d="M 44.776127 492.537354 L 45.226112 497.487488 " />
<path stroke-linejoin="round" stroke-linecap="round" stroke="rgb(0,0,255)" stroke-width="1.874998" fill="none" d="M 0.000000 750.000000 L 126.760574 0.000000 " />
<path stroke-linejoin="round" stroke-linecap="round" stroke="rgb(255,0,0)" stroke-width="3.749996" fill="none" d="M 44.334969 487.684753 L 44.776127 492.537354 " />
<path stroke-linejoin="round" stroke-linecap="round" stroke="rgb(0,0,255)" stroke-width="1.874998" fill="none" d="M 0.000000 750.000000 L 123.287674 0.000000 " />
<path stroke-linejoin="round" stroke-linecap="round" stroke="rgb(255,0,0)" stroke-width="3.749996" fill="none" d="M 43.902443 482.926849 L 44.334969 487.684753 " />
<path stroke-linejoin="round" stroke-linecap="round" stroke="rgb(0,0,255)" stroke-width="1.874998" fill="none" d="M 0.000000 750.000000 L 122.950806 0.000000 " />
<path stroke-linejoin="round" stroke-linecap="round" stroke="rgb(255,0,0)" stroke-width="3.749996" fill="none" d="M 43.859638 482.456177 L 43.902443 482.926849 " />
<path stroke-linejoin="round" stroke-linecap="round" stroke="rgb(0,0,255)" stroke-width="1.874998" fill="none" d="M 0.000000 750.000000 L 119.047615 0.000000 " />
<path stroke-linejoin="round" stroke-linecap="round" stroke="rgb(255,0,0)" stroke-width="3.749996" fill="none" d="M 43.352589 476.878601 L 43.859638 482.456177 " />
<path stroke-linejoin="round" stroke-linecap="round" stroke="rgb(0,0,255)" stroke-width="1.874998" fill="none" d="M 0.000000 750.000000 L 115.384605 0.000000 " />
<path stroke-linejoin="round" stroke-linecap="round" stroke="rgb(255,0,0)" stroke-width="3.749996" fill="none" d="M 42.857140 471.428589 L 43.352612 476.878571 " />
<path stroke-linejoin="round" stroke-linecap="round" stroke="rgb(0,0,255)" stroke-width="1.874998" fill="none" d="M 0.000000 750.000000 L 111.940292 0.000000 " />
<path stroke-linejoin="round" stroke-linecap="round" stroke="rgb(255,0,0)" stroke-width="3.749996" fill="none" d="M 42.372868 466.101715 L 42.857140 471.428589 " />
<path stroke-linejoin="round" stroke-linecap="round" stroke="rgb(0,0,255)" stroke-width="1.874998" fill="none" d="M 0.000000 750.000000 L 108.695648 0.000000 " />
<path stroke-linejoin="round" stroke-linecap="round" stroke="rgb(255,0,0)" stroke-width="3.749996" fill="none" d="M 41.899437 460.893860 L 42.372868 466.101715 " />
<path stroke-linejoin="round" stroke-linecap="round" stroke="rgb(0,0,255)" stroke-width="1.874998" fill="none" d="M 0.000000 750.000000 L 105.633797 0.000000 " />
<path stroke-linejoin="round" stroke-linecap="round" stroke="rgb(255,0,0)" stroke-width="3.749996" fill="none" d="M 41.436462 455.801147 L 41.899437 460.893860 " />
<path stroke-linejoin="round" stroke-linecap="round" stroke="rgb(0,0,255)" stroke-width="1.874998" fill="none" d="M 0.000000 750.000000 L 102.739738 0.000000 " />
<path stroke-linejoin="round" stroke-linecap="round" stroke="rgb(255,0,0)" stroke-width="3.749996" fill="none" d="M 40.983597 450.819702 L 41.436462 455.801147 " />
<path stroke-linejoin="round" stroke-linecap="round" stroke="rgb(0,0,255)" stroke-width="1.874998" fill="none" d="M 0.000000 750.000000 L 99.999992 0.000000 " />
<path stroke-linejoin="round" stroke-linecap="round" stroke="rgb(255,0,0)" stroke-width="3.749996" fill="none" d="M 40.540539 445.945984 L 40.983597 450.819702 " />
<path stroke-linejoin="round" stroke-linecap="round" stroke="rgb(0,0,255)" stroke-width="1.874998" fill="none" d="M 0.000000 750.000000 L 97.402588 0.000000 " />
<path stroke-linejoin="round" stroke-linecap="round" stroke="rgb(255,0,0)" stroke-width="3.749996" fill="none" d="M 40.106937 441.176544 L 40.540539 445.945984 " />
<path stroke-linejoin="round" stroke-linecap="round" stroke="rgb(0,0,255)" stroke-width="1.874998" fill="none" d="M 0.000000 750.000000 L 94.936699 0.000000 " />
<path stroke-linejoin="round" stroke-linecap="round" stroke="rgb(255,0,0)" stroke-width="3.749996" fill="none" d="M 39.682545 436.507935 L 40.106937 441.176544 " />
<path stroke-linejoin="round" stroke-linecap="round" stroke="rgb(0,0,255)" stroke-width="1.874998" fill="none" d="M 0.000000 750.000000 L 82.031250 0.000000 " />
<path stroke-linejoin="round" stroke-linecap="round" stroke="rgb(255,0,0)" stroke-width="3.749996" fill="none" d="M 37.234047 409.574432 L 39.682545 436.507935 " />
<path stroke-linejoin="round" stroke-linecap="round" stroke="rgb(0,0,255)" stroke-width="1.874998" fill="none" d="M 0.000000 750.000000 L 69.230766 0.000000 " />
<path stroke-linejoin="round" stroke-linecap="round" stroke="rgb(255,0,0)" stroke-width="3.749996" fill="none" d="M 34.351139 377.862640 L 37.234047 409.574432 " />
<path stroke-linejoin="round" stroke-linecap="round" stroke="rgb(0,0,255)" stroke-width="1.874998" fill="none" d="M 0.000000 750.000000 L 67.164169 0.000000 " />
<path stroke-linejoin="round" stroke-linecap="round" stroke="rgb(255,0,0)" stroke-width="3.749996" fill="none" d="M 33.834591 372.180542 L 34.351139 377.862640 " />
<path stroke-linejoin="round" stroke-linecap="round" stroke="rgb(0,0,255)" stroke-width="1.874998" fill="none" d="M 0.000000 750.000000 L 65.217400 0.000000 " />
<path stroke-linejoin="round" stroke-linecap="round" stroke="rgb(255,0,0)" stroke-width="3.749996" fill="none" d="M 33.333332 366.666748 L 33.834591 372.180542 " />
<path stroke-linejoin="round" stroke-linecap="round" stroke="rgb(0,0,255)" stroke-width="1.874998" fill="none" d="M 0.000000 750.000000 L 63.380287 0.000000 " />
<path stroke-linejoin="round" stroke-linecap="round" stroke="rgb(255,0,0)" stroke-width="3.749996" fill="none" d="M 32.846710 361.313904 L 33.333332 366.666748 " />
<path stroke-linejoin="round" stroke-linecap="round" stroke="rgb(0,0,255)" stroke-width="1.874998" fill="none" d="M 0.000000 750.000000 L 59.999989 0.000000 " />
<path stroke-linejoin="round" stroke-linecap="round" stroke="rgb(255,0,0)" stroke-width="3.749996" fill="none" d="M 31.914890 351.063873 L 32.846710 361.313904 " />
<path stroke-linejoin="round" stroke-linecap="round" stroke="rgb(0,0,255)" stroke-width="1.874998" fill="none" d="M 0.000000 750.000000 L 58.441559 0.000000 " />
<path stroke-linejoin="round" stroke-linecap="round" stroke="rgb(255,0,0)" stroke-width="3.749996" fill="none" d="M 31.468525 346.153900 L 31.914890 351.063873 " />
<path stroke-linejoin="round" stroke-linecap="round" stroke="rgb(0,0,255)" stroke-width="1.874998" fill="none" d="M 0.000000 750.000000 L 50.675667 0.000000 " />
<path stroke-linejoin="round" stroke-linecap="round" stroke="rgb(255,0,0)" stroke-width="3.749996" fill="none" d="M 29.069759 319.767426 L 31.468525 346.153900 " />
<path stroke-linejoin="round" stroke-linecap="round" stroke="rgb(0,0,255)" stroke-width="1.874998" fill="none" d="M 0.000000 750.000000 L 40.000008 0.000000 " />
<path stroke-linejoin="round" stroke-linecap="round" stroke="rgb(255,0,0)" stroke-width="3.749996" fill="none" d="M 25.210083 277.310944 L 29.069759 319.767426 " />
<path stroke-linejoin="round" stroke-linecap="round" stroke="rgb(0,0,255)" stroke-width="1.874998" fill="none" d="M 0.000000 750.000000 L 38.961029 0.000000 " />
<path stroke-linejoin="round" stroke-linecap="round" stroke="rgb(255,0,0)" stroke-width="3.749996" fill="none" d="M 24.793379 272.727325 L 25.210083 277.311005 " />
<path stroke-linejoin="round" stroke-linecap="round" stroke="rgb(0,0,255)" stroke-width="1.874998" fill="none" d="M 0.000000 750.000000 L 36.144577 0.000000 " />
<path stroke-linejoin="round" stroke-linecap="round" stroke="rgb(255,0,0)" stroke-width="3.749996" fill="none" d="M 23.622036 259.842621 L 24.793379 272.727325 " />
<path stroke-linejoin="round" stroke-linecap="round" stroke="rgb(0,0,255)" stroke-width="1.874998" fill="none" d="M 0.000000 750.000000 L 35.294117 0.000000 " />
<path stroke-linejoin="round" stroke-linecap="round" stroke="rgb(255,0,0)" stroke-width="3.749996" fill="none" d="M 23.255802 255.813980 L 23.622036 259.842621 " />
<path stroke-linejoin="round" stroke-linecap="round" stroke="rgb(0,0,255)" stroke-width="1.874998" fill="none" d="M 0.000000 750.000000 L 33.185833 0.000000 " />
<path stroke-linejoin="round" stroke-linecap="round" stroke="rgb(255,0,0)" stroke-width="3.749996" fill="none" d="M 22.321432 245.535721 L 23.255802 255.813980 " />
<path stroke-linejoin="round" stroke-linecap="round" stroke="rgb(0,0,255)" stroke-width="1.874998" fill="none" d="M 0.000000 750.000000 L 28.571426 0.000000 " />
<path stroke-linejoin="round" stroke-linecap="round" stroke="rgb(255,0,0)" stroke-width="3.749996" fill="none" d="M 20.134226 221.476562 L 22.321432 245.535721 " />
<path stroke-linejoin="round" stroke-linecap="round" stroke="rgb(0,0,255)" stroke-width="1.874998" fill="none" d="M 0.000000 750.000000 L 28.037376 0.000000 " />
<path stroke-linejoin="round" stroke-linecap="round" stroke="rgb(255,0,0)" stroke-width="3.749996" fill="none" d="M 19.867546 218.543121 L 20.134226 221.476562 " />
<path stroke-linejoin="round" stroke-linecap="round" stroke="rgb(0,0,255)" stroke-width="1.874998" fill="none" d="M 0.000000 750.000000 L 26.785725 0.000000 " />
<path stroke-linejoin="round" stroke-linecap="round" stroke="rgb(255,0,0)" stroke-width="3.749996" fill="none" d="M 19.230768 211.538544 L 19.867546 218.543121 " />
<path stroke-linejoin="round" stroke-linecap="round" stroke="rgb(0,0,255)" stroke-width="1.874998" fill="none" d="M 0.000000 750.000000 L 26.315779 0.000000 " />
<path stroke-linejoin="round" stroke-linecap="round" stroke="rgb(255,0,0)" stroke-width="3.749996" fill="none" d="M 18.987335 208.860794 L 19.230768 211.538544 " />
<path stroke-linejoin="round" stroke-linecap="round" stroke="rgb(0,0,255)" stroke-width="1.874998" fill="none" d="M 0.000000 750.000000 L 26.086964 0.000000 " />
<path stroke-linejoin="round" stroke-linecap="round" stroke="rgb(255,0,0)" stroke-width="3.749996" fill="none" d="M 18.867910 207.547226 L 18.987335 208.860794 " />
<path stroke-linejoin="round" stroke-linecap="round" stroke="rgb(0,0,255)" stroke-width="1.874998" fill="none" d="M 0.000000 750.000000 L 25.641024 0.000000 " />
<path stroke-linejoin="round" stroke-linecap="round" stroke="rgb(255,0,0)" stroke-width="3.749996" fill="none" d="M 18.633530 204.969009 L 18.867910 207.547226 " />
<path stroke-linejoin="round" stroke-linecap="round" stroke="rgb(0,0,255)" stroke-width="1.874998" fill="none" d="M 0.000000 750.000000 L 23.437500 0.000000 " />
<path stroke-linejoin="round" stroke-linecap="round" stroke="rgb(255,0,0)" stroke-width="3.749996" fill="none" d="M 17.441868 191.860550 L 18.633530 204.969009 " />
<path stroke-linejoin="round" stroke-linecap="round" stroke="rgb(0,0,255)" stroke-width="1.874998" fill="none" d="M 0.000000 750.000000 L 15.463919 0.000000 " />
<path stroke-linejoin="round" stroke-linecap="round" stroke="rgb(255,0,0)" stroke-width="3.749996" fill="none" d="M 12.605042 138.655548 L 17.441868 191.860550 " />
<path stroke-linejoin="round" stroke-linecap="round" stroke="rgb(0,0,255)" stroke-width="1.874998" fill="none" d="M 0.000000 750.000000 L 7.653058 0.000000 " />
<path stroke-linejoin="round" stroke-linecap="round" stroke="rgb(255,0,0)" stroke-width="3.749996" fill="none" d="M 6.880738 75.688118 L 12.605042 138.655548 " />
<path stroke-linejoin="round" stroke-linecap="round" stroke="rgb(0,0,255)" stroke-width="1.874998" fill="none" d="M 0.000000 750.000000 L 0.000000 0.000000 " />
<path stroke-linejoin="round" stroke-linecap="round" stroke="rgb(255,0,0)" stroke-width="3.749996" fill="none" d="M 0.000000 0.000000 L 6.880738 75.688118 " />
<circle cx="124.701664" cy="746.718407" r="3.749996" style="fill:rgb(0,127,0);stroke-width:1" /><circle cx="121.420048" cy="743.436746" r="3.749996" style="fill:rgb(0,127,0);stroke-width:1" /><circle cx="118.618660" cy="740.635380" r="3.749996" style="fill:rgb(0,127,0);stroke-width:1" /><circle cx="118.138410" cy="740.155131" r="3.749996" style="fill:rgb(0,127,0);stroke-width:1" /><circle cx="114.856794" cy="736.873515" r="3.749996" style="fill:rgb(0,127,0);stroke-width:1" /><circle cx="111.575179" cy="733.591877" r="3.749996" style="fill:rgb(0,127,0);stroke-width:1" /><circle cx="109.254017" cy="731.270738" r="3.749996" style="fill:rgb(0,127,0);stroke-width:1" /><circle cx="106.132485" cy="728.149205" r="3.749996" style="fill:rgb(0,127,0);stroke-width:1" /><circle cx="104.172438" cy="726.189159" r="3.749996" style="fill:rgb(0,127,0);stroke-width:1" /><circle cx="103.010930" cy="725.027651" r="3.749996" style="fill:rgb(0,127,0);stroke-width:1" /><circle cx="99.889375" cy="721.906118" r="3.749996" style="fill:rgb(0,127,0);stroke-width:1" /><circle cx="96.767843" cy="718.784563" r="3.749996" style="fill:rgb(0,127,0);stroke-width:1" /><circle cx="95.243365" cy="717.260085" r="3.749996" style="fill:rgb(0,127,0);stroke-width:1" /><circle cx="93.646310" cy="715.663031" r="3.749996" style="fill:rgb(0,127,0);stroke-width:1" /><circle cx="92.267007" cy="714.283749" r="3.749996" style="fill:rgb(0,127,0);stroke-width:1" /><circle cx="89.290649" cy="711.307392" r="3.749996" style="fill:rgb(0,127,0);stroke-width:1" /><circle cx="86.314291" cy="708.331034" r="3.749996" style="fill:rgb(0,127,0);stroke-width:1" /><circle cx="83.337955" cy="705.354676" r="3.749996" style="fill:rgb(0,127,0);stroke-width:1" /><circle cx="82.478106" cy="704.494849" r="3.749996" style="fill:rgb(0,127,0);stroke-width:1" /><circle cx="80.361597" cy="702.378318" r="3.749996" style="fill:rgb(0,127,0);stroke-width:1" /><circle cx="79.634048" cy="701.650769" r="3.749996" style="fill:rgb(0,127,0);stroke-width:1" /><circle cx="76.789968" cy="698.806688" r="3.749996" style="fill:rgb(0,127,0);stroke-width:1" /><circle cx="73.945887" cy="695.962608" r="3.749996" style="fill:rgb(0,127,0);stroke-width:1" /><circle cx="73.522300" cy="695.539042" r="3.749996" style="fill:rgb(0,127,0);stroke-width:1" /><circle cx="71.101829" cy="693.118550" r="3.749996" style="fill:rgb(0,127,0);stroke-width:1" /><circle cx="68.257749" cy="690.274470" r="3.749996" style="fill:rgb(0,127,0);stroke-width:1" /><circle cx="68.076208" cy="690.092929" r="3.749996" style="fill:rgb(0,127,0);stroke-width:1" /><circle cx="65.413669" cy="687.430412" r="3.749996" style="fill:rgb(0,127,0);stroke-width:1" /><circle cx="62.569611" cy="684.586331" r="3.749996" style="fill:rgb(0,127,0);stroke-width:1" /><circle cx="61.764702" cy="679.411747" r="3.749996" style="fill:rgb(0,127,0);stroke-width:1" /><circle cx="61.224505" cy="673.469380" r="3.749996" style="fill:rgb(0,127,0);stroke-width:1" /><circle cx="60.638309" cy="667.021282" r="3.749996" style="fill:rgb(0,127,0);stroke-width:1" /><circle cx="60.000010" cy="659.999996" r="3.749996" style="fill:rgb(0,127,0);stroke-width:1" /><circle cx="59.471369" cy="654.185034" r="3.749996" style="fill:rgb(0,127,0);stroke-width:1" /><circle cx="58.951959" cy="648.471616" r="3.749996" style="fill:rgb(0,127,0);stroke-width:1" /><circle cx="55.921040" cy="615.131602" r="3.749996" style="fill:rgb(0,127,0);stroke-width:1" /><circle cx="54.216854" cy="596.385576" r="3.749996" style="fill:rgb(0,127,0);stroke-width:1" /><circle cx="53.827733" cy="592.105284" r="3.749996" style="fill:rgb(0,127,0);stroke-width:1" /><circle cx="53.317532" cy="586.492918" r="3.749996" style="fill:rgb(0,127,0);stroke-width:1" /><circle cx="52.816898" cy="580.985941" r="3.749996" style="fill:rgb(0,127,0);stroke-width:1" /><circle cx="51.724121" cy="568.965532" r="3.749996" style="fill:rgb(0,127,0);stroke-width:1" /><circle cx="50.518133" cy="555.699516" r="3.749996" style="fill:rgb(0,127,0);stroke-width:1" /><circle cx="49.999997" cy="550.000012" r="3.749996" style="fill:rgb(0,127,0);stroke-width:1" /><circle cx="49.492389" cy="544.416279" r="3.749996" style="fill:rgb(0,127,0);stroke-width:1" /><circle cx="49.295761" cy="542.253535" r="3.749996" style="fill:rgb(0,127,0);stroke-width:1" /><circle cx="48.029557" cy="528.325159" r="3.749996" style="fill:rgb(0,127,0);stroke-width:1" /><circle cx="47.560975" cy="523.170769" r="3.749996" style="fill:rgb(0,127,0);stroke-width:1" /><circle cx="46.153843" cy="507.692333" r="3.749996" style="fill:rgb(0,127,0);stroke-width:1" /><circle cx="45.685261" cy="502.538111" r="3.749996" style="fill:rgb(0,127,0);stroke-width:1" /><circle cx="45.226112" cy="497.487489" r="3.749996" style="fill:rgb(0,127,0);stroke-width:1" /><circle cx="44.776127" cy="492.537349" r="3.749996" style="fill:rgb(0,127,0);stroke-width:1" /><circle cx="44.334970" cy="487.684753" r="3.749996" style="fill:rgb(0,127,0);stroke-width:1" /><circle cx="43.902442" cy="482.926849" r="3.749996" style="fill:rgb(0,127,0);stroke-width:1" /><circle cx="43.859638" cy="482.456177" r="3.749996" style="fill:rgb(0,127,0);stroke-width:1" /><circle cx="43.352589" cy="476.878613" r="3.749996" style="fill:rgb(0,127,0);stroke-width:1" /><circle cx="42.857140" cy="471.428577" r="3.749996" style="fill:rgb(0,127,0);stroke-width:1" /><circle cx="42.372867" cy="466.101738" r="3.749996" style="fill:rgb(0,127,0);stroke-width:1" /><circle cx="41.899435" cy="460.893871" r="3.749996" style="fill:rgb(0,127,0);stroke-width:1" /><circle cx="41.436464" cy="455.801161" r="3.749996" style="fill:rgb(0,127,0);stroke-width:1" /><circle cx="40.983595" cy="450.819701" r="3.749996" style="fill:rgb(0,127,0);stroke-width:1" /><circle cx="40.540539" cy="445.945976" r="3.749996" style="fill:rgb(0,127,0);stroke-width:1" /><circle cx="40.106937" cy="441.176534" r="3.749996" style="fill:rgb(0,127,0);stroke-width:1" /><circle cx="39.682545" cy="436.507942" r="3.749996" style="fill:rgb(0,127,0);stroke-width:1" /><circle cx="37.234046" cy="409.574448" r="3.749996" style="fill:rgb(0,127,0);stroke-width:1" /><circle cx="34.351140" cy="377.862632" r="3.749996" style="fill:rgb(0,127,0);stroke-width:1" /><circle cx="33.834592" cy="372.180521" r="3.749996" style="fill:rgb(0,127,0);stroke-width:1" /><circle cx="33.333331" cy="366.666734" r="3.749996" style="fill:rgb(0,127,0);stroke-width:1" /><circle cx="32.846712" cy="361.313910" r="3.749996" style="fill:rgb(0,127,0);stroke-width:1" /><circle cx="31.914890" cy="351.063877" r="3.749996" style="fill:rgb(0,127,0);stroke-width:1" /><circle cx="31.468526" cy="346.153884" r="3.749996" style="fill:rgb(0,127,0);stroke-width:1" /><circle cx="29.069759" cy="319.767443" r="3.749996" style="fill:rgb(0,127,0);stroke-width:1" /><circle cx="25.210083" cy="277.310964" r="3.749996" style="fill:rgb(0,127,0);stroke-width:1" /><circle cx="24.793379" cy="272.727337" r="3.749996" style="fill:rgb(0,127,0);stroke-width:1" /><circle cx="23.622036" cy="259.842608" r="3.749996" style="fill:rgb(0,127,0);stroke-width:1" /><circle cx="23.255803" cy="255.813986" r="3.749996" style="fill:rgb(0,127,0);stroke-width:1" /><circle cx="22.321433" cy="245.535728" r="3.749996" style="fill:rgb(0,127,0);stroke-width:1" /><circle cx="20.134225" cy="221.476559" r="3.749996" style="fill:rgb(0,127,0);stroke-width:1" /><circle cx="19.867547" cy="218.543116" r="3.749996" style="fill:rgb(0,127,0);stroke-width:1" /><circle cx="19.230768" cy="211.538550" r="3.749996" style="fill:rgb(0,127,0);stroke-width:1" /><circle cx="18.987335" cy="208.860811" r="3.749996" style="fill:rgb(0,127,0);stroke-width:1" /><circle cx="18.867910" cy="207.547244" r="3.749996" style="fill:rgb(0,127,0);stroke-width:1" /><circle cx="18.633530" cy="204.968993" r="3.749996" style="fill:rgb(0,127,0);stroke-width:1" /><circle cx="17.441869" cy="191.860557" r="3.749996" style="fill:rgb(0,127,0);stroke-width:1" /><circle cx="12.605041" cy="138.655543" r="3.749996" style="fill:rgb(0,127,0);stroke-width:1" /><circle cx="6.880738" cy="75.688116" r="3.749996" style="fill:rgb(0,127,0);stroke-width:1" /><circle cx="750.000000" cy="750.000000" r="3.749996" style="fill:rgb(0,127,0);stroke-width:1" /><path stroke-linejoin="round" stroke-linecap="round" stroke="rgb(255,255,255)" stroke-width="3.749996" fill="none" d="M 0.000000 750.000000 L 750.000000 750.000000 M 0.000000 750.000000 L 0.000000 0.000000 " />

</svg>