<svg xmlns="http://www.w3.org/2000/svg" version="1.1" width = "750" height = "750" viewBox = "0 0 750 750"  shape-rendering="crispEdges">
<path stroke-linejoin="round" stroke-linecap="round" stroke="rgb(255,255,0)" stroke-width="3.749996" fill="none" d="M 93.750000 750.000000 L 0.000000 0.000000 " />
<path stroke-linejoin="round" stroke-linecap="round" stroke="rgb(63,63,63)" stroke-width="3.749996" fill="none" d="M 0.000000 0.000000 L 750.000000 750.000000 M 93.750000 750.000000 L 43.750004 0.000000 " />
<path stroke-linejoin="round" stroke-linecap="round" stroke="rgb(191,191,191)" stroke-width="3.749996" fill="none" d="M 0.000000 656.250000 L 93.750000 750.000000 M 0.000000 0.000000 L 49.999996 750.000000 " />
<path stroke-linejoin="round" stroke-linecap="round" stroke="rgb(0,0,255)" stroke-width="1.874998" fill="none" d="M 0.000000 750.000000 L 750.000000 727.941162 " />
<path stroke-linejoin="round" stroke-linecap="round" stroke="rgb(255,0,0)" stroke-width="3.749996" fill="none" d="M 93.566536 747.248047 L 93.750000 750.000000 " />
<path stroke-linejoin="round" stroke-linecap="round" stroke="rgb(0,0,255)" stroke-width="1.874998" fill="none" d="M 0.000000 750.000000 L 750.000000 704.545471 " />
<path stroke-linejoin="round" stroke-linecap="round" stroke="rgb(255,0,0)" stroke-width="3.749996" fill="none" d="M 92.926559 744.368103 L 93.566536 747.248047 " />
<path stroke-linejoin="round" stroke-linecap="round" stroke="rgb(0,0,255)" stroke-width="1.874998" fill="none" d="M 0.000000 750.000000 L 750.000000 679.687500 " />
<path stroke-linejoin="round" stroke-linecap="round" stroke="rgb(255,0,0)" stroke-width="3.749996" fill="none" d="M 92.256073 741.351013 L 92.926559 744.368103 " />
<path stroke-linejoin="round" stroke-linecap="round" stroke="rgb(0,0,255)" stroke-width="1.874998" fill="none" d="M 0.000000 750.000000 L 750.000000 653.225830 " />
<path stroke-linejoin="round" stroke-linecap="round" stroke="rgb(255,0,0)" stroke-width="3.749996" fill="none" d="M 91.552910 738.186768 L 92.256073 741.351013 " />
<path stroke-linejoin="round" stroke-linecap="round" stroke="rgb(0,0,255)" stroke-width="1.874998" fill="none" d="M 0.000000 750.000000 L 750.000000 632.812500 " />
<path stroke-linejoin="round" stroke-linecap="round" stroke="rgb(255,0,0)" stroke-width="3.749996" fill="none" d="M 91.017769 735.778503 L 91.552910 738.186768 " />
<path stroke-linejoin="round" stroke-linecap="round" stroke="rgb(0,0,255)" stroke-width="1.874998" fill="none" d="M 0.000000 750.000000 L 750.000000 625.000000 " />
<path stroke-linejoin="round" stroke-linecap="round" stroke="rgb(255,0,0)" stroke-width="3.749996" fill="none" d="M 90.814590 734.864197 L 91.017769 735.778503 " />
<path stroke-linejoin="round" stroke-linecap="round" stroke="rgb(0,0,255)" stroke-width="1.874998" fill="none" d="M 0.000000 750.000000 L 750.000000 594.827576 " />
<path stroke-linejoin="round" stroke-linecap="round" stroke="rgb(255,0,0)" stroke-width="3.749996" fill="none" d="M 90.038406 731.371338 L 90.814590 734.864197 " />
<path stroke-linejoin="round" stroke-linecap="round" stroke="rgb(0,0,255)" stroke-width="1.874998" fill="none" d="M 0.000000 750.000000 L 750.000000 562.500000 " />
<path stroke-linejoin="round" stroke-linecap="round" stroke="rgb(255,0,0)" stroke-width="3.749996" fill="none" d="M 89.221359 727.694641 L 90.038383 731.371338 " />
<path stroke-linejoin="round" stroke-linecap="round" stroke="rgb(0,0,255)" stroke-width="1.874998" fill="none" d="M 0.000000 750.000000 L 750.000000 527.777771 " />
<path stroke-linejoin="round" stroke-linecap="round" stroke="rgb(255,0,0)" stroke-width="3.749996" fill="none" d="M 88.360146 723.819214 L 89.221359 727.694641 " />
<path stroke-linejoin="round" stroke-linecap="round" stroke="rgb(0,0,255)" stroke-width="1.874998" fill="none" d="M 0.000000 750.000000 L 750.000000 490.384613 " />
<path stroke-linejoin="round" stroke-linecap="round" stroke="rgb(255,0,0)" stroke-width="3.749996" fill="none" d="M 87.451080 719.728516 L 88.360146 723.819214 " />
<path stroke-linejoin="round" stroke-linecap="round" stroke="rgb(0,0,255)" stroke-width="1.874998" fill="none" d="M 0.000000 750.000000 L 750.000000 450.000031 " />
<path stroke-linejoin="round" stroke-linecap="round" stroke="rgb(255,0,0)" stroke-width="3.749996" fill="none" d="M 86.490067 715.403992 L 87.451080 719.728516 " />
<path stroke-linejoin="round" stroke-linecap="round" stroke="rgb(0,0,255)" stroke-width="1.874998" fill="none" d="M 0.000000 750.000000 L 750.000000 432.692291 " />
<path stroke-linejoin="round" stroke-linecap="round" stroke="rgb(255,0,0)" stroke-width="3.749996" fill="none" d="M 86.084648 713.579590 L 86.490067 715.403992 " />
<path stroke-linejoin="round" stroke-linecap="round" stroke="rgb(0,0,255)" stroke-width="1.874998" fill="none" d="M 0.000000 750.000000 L 750.000000 390.000000 " />
<path stroke-linejoin="round" stroke-linecap="round" stroke="rgb(255,0,0)" stroke-width="3.749996" fill="none" d="M 85.100677 709.151672 L 86.084648 713.579590 " />
<path stroke-linejoin="round" stroke-linecap="round" stroke="rgb(0,0,255)" stroke-width="1.874998" fill="none" d="M 0.000000 750.000000 L 750.000000 343.750000 " />
<path stroke-linejoin="round" stroke-linecap="round" stroke="rgb(255,0,0)" stroke-width="3.749996" fill="none" d="M 84.059784 704.467651 L 85.100677 709.151672 " />
<path stroke-linejoin="round" stroke-linecap="round" stroke="rgb(0,0,255)" stroke-width="1.874998" fill="none" d="M 0.000000 750.000000 L 750.000000 293.478271 " />
<path stroke-linejoin="round" stroke-linecap="round" stroke="rgb(255,0,0)" stroke-width="3.749996" fill="none" d="M 82.956856 699.504517 L 84.059784 704.467651 " />
<path stroke-linejoin="round" stroke-linecap="round" stroke="rgb(0,0,255)" stroke-width="1.874998" fill="none" d="M 0.000000 750.000000 L 750.000000 281.250000 " />
<path stroke-linejoin="round" stroke-linecap="round" stroke="rgb(255,0,0)" stroke-width="3.749996" fill="none" d="M 82.692947 698.316895 L 82.956856 699.504517 " />
<path stroke-linejoin="round" stroke-linecap="round" stroke="rgb(0,0,255)" stroke-width="1.874998" fill="none" d="M 0.000000 750.000000 L 750.000000 228.260864 " />
<path stroke-linejoin="round" stroke-linecap="round" stroke="rgb(255,0,0)" stroke-width="3.749996" fill="none" d="M 81.568481 693.256714 L 82.692947 698.316895 " />
<path stroke-linejoin="round" stroke-linecap="round" stroke="rgb(0,0,255)" stroke-width="1.874998" fill="none" d="M 0.000000 750.000000 L 750.000000 170.454559 " />
<path stroke-linejoin="round" stroke-linecap="round" stroke="rgb(255,0,0)" stroke-width="3.749996" fill="none" d="M 80.376129 687.891174 L 81.568481 693.256714 " />
<path stroke-linejoin="round" stroke-linecap="round" stroke="rgb(0,0,255)" stroke-width="1.874998" fill="none" d="M 0.000000 750.000000 L 750.000000 163.043488 " />
<path stroke-linejoin="round" stroke-linecap="round" stroke="rgb(255,0,0)" stroke-width="3.749996" fill="none" d="M 80.225784 687.214600 L 80.376129 687.891174 " />
<path stroke-linejoin="round" stroke-linecap="round" stroke="rgb(0,0,255)" stroke-width="1.874998" fill="none" d="M 0.000000 750.000000 L 750.000000 102.272720 " />
<path stroke-linejoin="round" stroke-linecap="round" stroke="rgb(255,0,0)" stroke-width="3.749996" fill="none" d="M 79.013809 681.760803 L 80.225784 687.214600 " />
<path stroke-linejoin="round" stroke-linecap="round" stroke="rgb(0,0,255)" stroke-width="1.874998" fill="none" d="M 0.000000 750.000000 L 750.000000 35.714283 " />
<path stroke-linejoin="round" stroke-linecap="round" stroke="rgb(255,0,0)" stroke-width="3.749996" fill="none" d="M 77.727783 675.973511 L 79.013809 681.760803 " />
<path stroke-linejoin="round" stroke-linecap="round" stroke="rgb(0,0,255)" stroke-width="1.874998" fill="none" d="M 0.000000 750.000000 L 750.000000 34.090919 " />
<path stroke-linejoin="round" stroke-linecap="round" stroke="rgb(255,0,0)" stroke-width="3.749996" fill="none" d="M 77.696938 675.834778 L 77.727783 675.973511 " />
<path stroke-linejoin="round" stroke-linecap="round" stroke="rgb(0,0,255)" stroke-width="1.874998" fill="none" d="M 0.000000 750.000000 L 714.285767 0.000000 " />
<path stroke-linejoin="round" stroke-linecap="round" stroke="rgb(255,0,0)" stroke-width="3.749996" fill="none" d="M 76.360611 669.821350 L 77.696938 675.834778 " />
<path stroke-linejoin="round" stroke-linecap="round" stroke="rgb(0,0,255)" stroke-width="1.874998" fill="none" d="M 0.000000 750.000000 L 647.727295 0.000000 " />
<path stroke-linejoin="round" stroke-linecap="round" stroke="rgb(255,0,0)" stroke-width="3.749996" fill="none" d="M 74.904442 663.268555 L 76.360611 669.821350 " />
<path stroke-linejoin="round" stroke-linecap="round" stroke="rgb(0,0,255)" stroke-width="1.874998" fill="none" d="M 0.000000 750.000000 L 586.956543 0.000000 " />
<path stroke-linejoin="round" stroke-linecap="round" stroke="rgb(255,0,0)" stroke-width="3.749996" fill="none" d="M 73.350235 656.274658 L 74.904442 663.268555 " />
<path stroke-linejoin="round" stroke-linecap="round" stroke="rgb(0,0,255)" stroke-width="1.874998" fill="none" d="M 0.000000 750.000000 L 540.000000 0.000000 " />
<path stroke-linejoin="round" stroke-linecap="round" stroke="rgb(255,0,0)" stroke-width="3.749996" fill="none" d="M 71.966286 650.046875 L 73.350258 656.274658 " />
<path stroke-linejoin="round" stroke-linecap="round" stroke="rgb(0,0,255)" stroke-width="1.874998" fill="none" d="M 0.000000 750.000000 L 500.000000 0.000000 " />
<path stroke-linejoin="round" stroke-linecap="round" stroke="rgb(255,0,0)" stroke-width="3.749996" fill="none" d="M 70.633583 644.049622 L 71.966286 650.046875 " />
<path stroke-linejoin="round" stroke-linecap="round" stroke="rgb(0,0,255)" stroke-width="1.874998" fill="none" d="M 0.000000 750.000000 L 465.517212 0.000000 " />
<path stroke-linejoin="round" stroke-linecap="round" stroke="rgb(255,0,0)" stroke-width="3.749996" fill="none" d="M 69.349319 638.270508 L 70.633583 644.049622 " />
<path stroke-linejoin="round" stroke-linecap="round" stroke="rgb(0,0,255)" stroke-width="1.874998" fill="none" d="M 0.000000 750.000000 L 455.357147 0.000000 " />
<path stroke-linejoin="round" stroke-linecap="round" stroke="rgb(255,0,0)" stroke-width="3.749996" fill="none" d="M 68.943771 636.445557 L 69.349319 638.270508 " />
<path stroke-linejoin="round" stroke-linecap="round" stroke="rgb(0,0,255)" stroke-width="1.874998" fill="none" d="M 0.000000 750.000000 L 413.793091 0.000000 " />
<path stroke-linejoin="round" stroke-linecap="round" stroke="rgb(255,0,0)" stroke-width="3.749996" fill="none" d="M 67.136856 628.314453 L 68.943771 636.445557 " />
<path stroke-linejoin="round" stroke-linecap="round" stroke="rgb(0,0,255)" stroke-width="1.874998" fill="none" d="M 0.000000 750.000000 L 387.096771 0.000000 " />
<path stroke-linejoin="round" stroke-linecap="round" stroke="rgb(255,0,0)" stroke-width="3.749996" fill="none" d="M 65.833237 622.448059 L 67.136856 628.314453 " />
<path stroke-linejoin="round" stroke-linecap="round" stroke="rgb(0,0,255)" stroke-width="1.874998" fill="none" d="M 0.000000 750.000000 L 351.562469 0.000000 " />
<path stroke-linejoin="round" stroke-linecap="round" stroke="rgb(255,0,0)" stroke-width="3.749996" fill="none" d="M 63.889683 613.702026 L 65.833252 622.448059 " />
<path stroke-linejoin="round" stroke-linecap="round" stroke="rgb(0,0,255)" stroke-width="1.874998" fill="none" d="M 0.000000 750.000000 L 330.882355 0.000000 " />
<path stroke-linejoin="round" stroke-linecap="round" stroke="rgb(255,0,0)" stroke-width="3.749996" fill="none" d="M 62.630764 608.036926 L 63.889683 613.702026 " />
<path stroke-linejoin="round" stroke-linecap="round" stroke="rgb(0,0,255)" stroke-width="1.874998" fill="none" d="M 0.000000 750.000000 L 300.000000 0.000000 " />
<path stroke-linejoin="round" stroke-linecap="round" stroke="rgb(255,0,0)" stroke-width="3.749996" fill="none" d="M 60.543091 598.642334 L 62.630764 608.036926 " />
<path stroke-linejoin="round" stroke-linecap="round" stroke="rgb(0,0,255)" stroke-width="1.874998" fill="none" d="M 0.000000 750.000000 L 283.783783 0.000000 " />
<path stroke-linejoin="round" stroke-linecap="round" stroke="rgb(255,0,0)" stroke-width="3.749996" fill="none" d="M 59.332207 593.193420 L 60.543091 598.642334 " />
<path stroke-linejoin="round" stroke-linecap="round" stroke="rgb(0,0,255)" stroke-width="1.874998" fill="none" d="M 0.000000 750.000000 L 269.230743 0.000000 " />
<path stroke-linejoin="round" stroke-linecap="round" stroke="rgb(255,0,0)" stroke-width="3.749996" fill="none" d="M 58.168842 587.958252 L 59.332207 593.193420 " />
<path stroke-linejoin="round" stroke-linecap="round" stroke="rgb(0,0,255)" stroke-width="1.874998" fill="none" d="M 0.000000 750.000000 L 239.361694 0.000000 " />
<path stroke-linejoin="round" stroke-linecap="round" stroke="rgb(255,0,0)" stroke-width="3.749996" fill="none" d="M 56.787014 572.067322 L 58.168842 587.958252 " />
<path stroke-linejoin="round" stroke-linecap="round" stroke="rgb(0,0,255)" stroke-width="1.874998" fill="none" d="M 0.000000 750.000000 L 184.210510 0.000000 " />
<path stroke-linejoin="round" stroke-linecap="round" stroke="rgb(255,0,0)" stroke-width="3.749996" fill="none" d="M 53.365902 532.724548 L 56.787014 572.067322 " />
<path stroke-linejoin="round" stroke-linecap="round" stroke="rgb(0,0,255)" stroke-width="1.874998" fill="none" d="M 0.000000 750.000000 L 145.522400 0.000000 " />
<path stroke-linejoin="round" stroke-linecap="round" stroke="rgb(255,0,0)" stroke-width="3.749996" fill="none" d="M 49.897381 492.836548 L 53.365902 532.724548 " />
<path stroke-linejoin="round" stroke-linecap="round" stroke="rgb(0,0,255)" stroke-width="1.874998" fill="none" d="M 0.000000 750.000000 L 136.363647 0.000000 " />
<path stroke-linejoin="round" stroke-linecap="round" stroke="rgb(255,0,0)" stroke-width="3.749996" fill="none" d="M 48.881382 481.152435 L 49.897381 492.836548 " />
<path stroke-linejoin="round" stroke-linecap="round" stroke="rgb(0,0,255)" stroke-width="1.874998" fill="none" d="M 0.000000 750.000000 L 116.883118 0.000000 " />
<path stroke-linejoin="round" stroke-linecap="round" stroke="rgb(255,0,0)" stroke-width="3.749996" fill="none" d="M 46.380466 452.391998 L 48.881382 481.152435 " />
<path stroke-linejoin="round" stroke-linecap="round" stroke="rgb(0,0,255)" stroke-width="1.874998" fill="none" d="M 0.000000 750.000000 L 112.068970 0.000000 " />
<path stroke-linejoin="round" stroke-linecap="round" stroke="rgb(255,0,0)" stroke-width="3.749996" fill="none" d="M 45.677750 444.310516 L 46.380466 452.391998 " />
<path stroke-linejoin="round" stroke-linecap="round" stroke="rgb(0,0,255)" stroke-width="1.874998" fill="none" d="M 0.000000 750.000000 L 111.940292 0.000000 " />
<path stroke-linejoin="round" stroke-linecap="round" stroke="rgb(255,0,0)" stroke-width="3.749996" fill="none" d="M 45.658440 444.088531 L 45.677750 444.310516 " />
<path stroke-linejoin="round" stroke-linecap="round" stroke="rgb(0,0,255)" stroke-width="1.874998" fill="none" d="M 0.000000 750.000000 L 107.142853 0.000000 " />
<path stroke-linejoin="round" stroke-linecap="round" stroke="rgb(255,0,0)" stroke-width="3.749996" fill="none" d="M 44.918015 435.573853 L 45.658440 444.088531 " />
<path stroke-linejoin="round" stroke-linecap="round" stroke="rgb(0,0,255)" stroke-width="1.874998" fill="none" d="M 0.000000 750.000000 L 104.430374 0.000000 " />
<path stroke-linejoin="round" stroke-linecap="round" stroke="rgb(255,0,0)" stroke-width="3.749996" fill="none" d="M 44.480862 430.546539 L 44.918015 435.573853 " />
<path stroke-linejoin="round" stroke-linecap="round" stroke="rgb(0,0,255)" stroke-width="1.874998" fill="none" d="M 0.000000 750.000000 L 86.206894 0.000000 " />
<path stroke-linejoin="round" stroke-linecap="round" stroke="rgb(255,0,0)" stroke-width="3.749996" fill="none" d="M 41.137798 392.101227 L 44.480862 430.546539 " />
<path stroke-linejoin="round" stroke-linecap="round" stroke="rgb(0,0,255)" stroke-width="1.874998" fill="none" d="M 0.000000 750.000000 L 85.051552 0.000000 " />
<path stroke-linejoin="round" stroke-linecap="round" stroke="rgb(255,0,0)" stroke-width="3.749996" fill="none" d="M 40.898502 389.349457 L 41.137798 392.101227 " />
<path stroke-linejoin="round" stroke-linecap="round" stroke="rgb(0,0,255)" stroke-width="1.874998" fill="none" d="M 0.000000 750.000000 L 84.269669 0.000000 " />
<path stroke-linejoin="round" stroke-linecap="round" stroke="rgb(255,0,0)" stroke-width="3.749996" fill="none" d="M 40.734486 387.463104 L 40.898502 389.349457 " />
<path stroke-linejoin="round" stroke-linecap="round" stroke="rgb(0,0,255)" stroke-width="1.874998" fill="none" d="M 0.000000 750.000000 L 68.181824 0.000000 " />
<path stroke-linejoin="round" stroke-linecap="round" stroke="rgb(255,0,0)" stroke-width="3.749996" fill="none" d="M 36.932587 343.741394 L 40.734486 387.463104 " />
<path stroke-linejoin="round" stroke-linecap="round" stroke="rgb(0,0,255)" stroke-width="1.874998" fill="none" d="M 0.000000 750.000000 L 55.045856 0.000000 " />
<path stroke-linejoin="round" stroke-linecap="round" stroke="rgb(255,0,0)" stroke-width="3.749996" fill="none" d="M 33.073963 299.367157 L 36.932587 343.741394 " />
<path stroke-linejoin="round" stroke-linecap="round" stroke="rgb(0,0,255)" stroke-width="1.874998" fill="none" d="M 0.000000 750.000000 L 46.511627 0.000000 " />
<path stroke-linejoin="round" stroke-linecap="round" stroke="rgb(255,0,0)" stroke-width="3.749996" fill="none" d="M 30.080839 264.946289 L 33.073963 299.367157 " />
<path stroke-linejoin="round" stroke-linecap="round" stroke="rgb(0,0,255)" stroke-width="1.874998" fill="none" d="M 0.000000 750.000000 L 44.554443 0.000000 " />
<path stroke-linejoin="round" stroke-linecap="round" stroke="rgb(255,0,0)" stroke-width="3.749996" fill="none" d="M 29.328838 256.298035 L 30.080839 264.946289 " />
<path stroke-linejoin="round" stroke-linecap="round" stroke="rgb(0,0,255)" stroke-width="1.874998" fill="none" d="M 0.000000 750.000000 L 37.190079 0.000000 " />
<path stroke-linejoin="round" stroke-linecap="round" stroke="rgb(255,0,0)" stroke-width="3.749996" fill="none" d="M 26.241571 220.794800 L 29.328838 256.298035 " />
<path stroke-linejoin="round" stroke-linecap="round" stroke="rgb(0,0,255)" stroke-width="1.874998" fill="none" d="M 0.000000 750.000000 L 34.090919 0.000000 " />
<path stroke-linejoin="round" stroke-linecap="round" stroke="rgb(255,0,0)" stroke-width="3.749996" fill="none" d="M 24.805471 204.279587 L 26.241571 220.794800 " />
<path stroke-linejoin="round" stroke-linecap="round" stroke="rgb(0,0,255)" stroke-width="1.874998" fill="none" d="M 0.000000 750.000000 L 29.296875 0.000000 " />
<path stroke-linejoin="round" stroke-linecap="round" stroke="rgb(255,0,0)" stroke-width="3.749996" fill="none" d="M 22.398479 176.599014 L 24.805471 204.279587 " />
<path stroke-linejoin="round" stroke-linecap="round" stroke="rgb(0,0,255)" stroke-width="1.874998" fill="none" d="M 0.000000 750.000000 L 21.739124 0.000000 " />
<path stroke-linejoin="round" stroke-linecap="round" stroke="rgb(255,0,0)" stroke-width="3.749996" fill="none" d="M 18.064857 126.762405 L 22.398479 176.599014 " />
<path stroke-linejoin="round" stroke-linecap="round" stroke="rgb(0,0,255)" stroke-width="1.874998" fill="none" d="M 0.000000 750.000000 L 18.987335 0.000000 " />
<path stroke-linejoin="round" stroke-linecap="round" stroke="rgb(255,0,0)" stroke-width="3.749996" fill="none" d="M 16.293795 106.395142 L 18.064857 126.762405 " />
<path stroke-linejoin="round" stroke-linecap="round" stroke="rgb(0,0,255)" stroke-width="1.874998" fill="none" d="M 0.000000 750.000000 L 18.292688 0.000000 " />
<path stroke-linejoin="round" stroke-linecap="round" stroke="rgb(255,0,0)" stroke-width="3.749996" fill="none" d="M 15.828252 101.041496 L 16.293795 106.395142 " />
<path stroke-linejoin="round" stroke-linecap="round" stroke="rgb(0,0,255)" stroke-width="1.874998" fill="none" d="M 0.000000 750.000000 L 16.304344 0.000000 " />
<path stroke-linejoin="round" stroke-linecap="round" stroke="rgb(255,0,0)" stroke-width="3.749996" fill="none" d="M 14.451877 85.213242 L 15.828252 101.041496 " />
<path stroke-linejoin="round" stroke-linecap="round" stroke="rgb(0,0,255)" stroke-width="1.874998" fill="none" d="M 0.000000 750.000000 L 10.135129 0.000000 " />
<path stroke-linejoin="round" stroke-linecap="round" stroke="rgb(255,0,0)" stroke-width="3.749996" fill="none" d="M 9.719096 30.786261 L 14.451877 85.213242 " />
<path stroke-linejoin="round" stroke-linecap="round" stroke="rgb(0,0,255)" stroke-width="1.874998" fill="none" d="M 0.000000 750.000000 L 4.746840 0.000000 " />
<path stroke-linejoin="round" stroke-linecap="round" stroke="rgb(255,0,0)" stroke-width="3.749996" fill="none" d="M 4.684500 9.848759 L 9.719096 30.786261 " />
<path stroke-linejoin="round" stroke-linecap="round" stroke="rgb(0,0,255)" stroke-width="1.874998" fill="none" d="M 0.000000 750.000000 L 0.000000 0.000000 " />
<path stroke-linejoin="round" stroke-linecap="round" stroke="rgb(255,0,0)" stroke-width="3.749996" fill="none" d="M 0.000000 0.000000 L 4.684500 9.848759 " />
<circle cx="93.566537" cy="747.248054" r="3.749996" style="fill:rgb(0,127,0);stroke-width:1" /><circle cx="92.926562" cy="744.368076" r="3.749996" style="fill:rgb(0,127,0);stroke-width:1" /><circle cx="92.256077" cy="741.350994" r="3.749996" style="fill:rgb(0,127,0);stroke-width:1" /><circle cx="91.552913" cy="738.186724" r="3.749996" style="fill:rgb(0,127,0);stroke-width:1" /><circle cx="91.017768" cy="735.778481" r="3.749996" style="fill:rgb(0,127,0);stroke-width:1" /><circle cx="90.814590" cy="734.864227" r="3.749996" style="fill:rgb(0,127,0);stroke-width:1" /><circle cx="90.038404" cy="731.371365" r="3.749996" style="fill:rgb(0,127,0);stroke-width:1" /><circle cx="89.221358" cy="727.694660" r="3.749996" style="fill:rgb(0,127,0);stroke-width:1" /><circle cx="88.360146" cy="723.819226" r="3.749996" style="fill:rgb(0,127,0);stroke-width:1" /><circle cx="87.451078" cy="719.728477" r="3.749996" style="fill:rgb(0,127,0);stroke-width:1" /><circle cx="86.490065" cy="715.403974" r="3.749996" style="fill:rgb(0,127,0);stroke-width:1" /><circle cx="86.084649" cy="713.579580" r="3.749996" style="fill:rgb(0,127,0);stroke-width:1" /><circle cx="85.100681" cy="709.151678" r="3.749996" style="fill:rgb(0,127,0);stroke-width:1" /><circle cx="84.059782" cy="704.467624" r="3.749996" style="fill:rgb(0,127,0);stroke-width:1" /><circle cx="82.956858" cy="699.504510" r="3.749996" style="fill:rgb(0,127,0);stroke-width:1" /><circle cx="82.692951" cy="698.316894" r="3.749996" style="fill:rgb(0,127,0);stroke-width:1" /><circle cx="81.568480" cy="693.256706" r="3.749996" style="fill:rgb(0,127,0);stroke-width:1" /><circle cx="80.376126" cy="687.891170" r="3.749996" style="fill:rgb(0,127,0);stroke-width:1" /><circle cx="80.225788" cy="687.214606" r="3.749996" style="fill:rgb(0,127,0);stroke-width:1" /><circle cx="79.013810" cy="681.760803" r="3.749996" style="fill:rgb(0,127,0);stroke-width:1" /><circle cx="77.727780" cy="675.973557" r="3.749996" style="fill:rgb(0,127,0);stroke-width:1" /><circle cx="77.696934" cy="675.834753" r="3.749996" style="fill:rgb(0,127,0);stroke-width:1" /><circle cx="76.360613" cy="669.821352" r="3.749996" style="fill:rgb(0,127,0);stroke-width:1" /><circle cx="74.904442" cy="663.268536" r="3.749996" style="fill:rgb(0,127,0);stroke-width:1" /><circle cx="73.350236" cy="656.274676" r="3.749996" style="fill:rgb(0,127,0);stroke-width:1" /><circle cx="71.966283" cy="650.046833" r="3.749996" style="fill:rgb(0,127,0);stroke-width:1" /><circle cx="70.633583" cy="644.049637" r="3.749996" style="fill:rgb(0,127,0);stroke-width:1" /><circle cx="69.349319" cy="638.270527" r="3.749996" style="fill:rgb(0,127,0);stroke-width:1" /><circle cx="68.943769" cy="636.445552" r="3.749996" style="fill:rgb(0,127,0);stroke-width:1" /><circle cx="67.136854" cy="628.314435" r="3.749996" style="fill:rgb(0,127,0);stroke-width:1" /><circle cx="65.833233" cy="622.448087" r="3.749996" style="fill:rgb(0,127,0);stroke-width:1" /><circle cx="63.889682" cy="613.702029" r="3.749996" style="fill:rgb(0,127,0);stroke-width:1" /><circle cx="62.630765" cy="608.036935" r="3.749996" style="fill:rgb(0,127,0);stroke-width:1" /><circle cx="60.543090" cy="598.642297" r="3.749996" style="fill:rgb(0,127,0);stroke-width:1" /><circle cx="59.332207" cy="593.193412" r="3.749996" style="fill:rgb(0,127,0);stroke-width:1" /><circle cx="58.168843" cy="587.958232" r="3.749996" style="fill:rgb(0,127,0);stroke-width:1" /><circle cx="56.787014" cy="572.067328" r="3.749996" style="fill:rgb(0,127,0);stroke-width:1" /><circle cx="53.365901" cy="532.724507" r="3.749996" style="fill:rgb(0,127,0);stroke-width:1" /><circle cx="49.897380" cy="492.836550" r="3.749996" style="fill:rgb(0,127,0);stroke-width:1" /><circle cx="48.881382" cy="481.152423" r="3.749996" style="fill:rgb(0,127,0);stroke-width:1" /><circle cx="46.380468" cy="452.391990" r="3.749996" style="fill:rgb(0,127,0);stroke-width:1" /><circle cx="45.677751" cy="444.310516" r="3.749996" style="fill:rgb(0,127,0);stroke-width:1" /><circle cx="45.658439" cy="444.088541" r="3.749996" style="fill:rgb(0,127,0);stroke-width:1" /><circle cx="44.918016" cy="435.573846" r="3.749996" style="fill:rgb(0,127,0);stroke-width:1" /><circle cx="44.480860" cy="430.546537" r="3.749996" style="fill:rgb(0,127,0);stroke-width:1" /><circle cx="41.137800" cy="392.101228" r="3.749996" style="fill:rgb(0,127,0);stroke-width:1" /><circle cx="40.898502" cy="389.349483" r="3.749996" style="fill:rgb(0,127,0);stroke-width:1" /><circle cx="40.734485" cy="387.463108" r="3.749996" style="fill:rgb(0,127,0);stroke-width:1" /><circle cx="36.932588" cy="343.741402" r="3.749996" style="fill:rgb(0,127,0);stroke-width:1" /><circle cx="33.073962" cy="299.367160" r="3.749996" style="fill:rgb(0,127,0);stroke-width:1" /><circle cx="30.080840" cy="264.946282" r="3.749996" style="fill:rgb(0,127,0);stroke-width:1" /><circle cx="29.328838" cy="256.298035" r="3.749996" style="fill:rgb(0,127,0);stroke-width:1" /><circle cx="26.241571" cy="220.794797" r="3.749996" style="fill:rgb(0,127,0);stroke-width:1" /><circle cx="24.805471" cy="204.279587" r="3.749996" style="fill:rgb(0,127,0);stroke-width:1" /><circle cx="22.398479" cy="176.599011" r="3.749996" style="fill:rgb(0,127,0);stroke-width:1" /><circle cx="18.064857" cy="126.762405" r="3.749996" style="fill:rgb(0,127,0);stroke-width:1" /><circle cx="16.293794" cy="106.395140" r="3.749996" style="fill:rgb(0,127,0);stroke-width:1" /><circle cx="15.828252" cy="101.041496" r="3.749996" style="fill:rgb(0,127,0);stroke-width:1" /><circle cx="14.451876" cy="85.213244" r="3.749996" style="fill:rgb(0,127,0);stroke-width:1" /><circle cx="9.719096" cy="30.786261" r="3.749996" style="fill:rgb(0,127,0);stroke-width:1" /><circle cx="4.684500" cy="9.848759" r="3.749996" style="fill:rgb(0,127,0);stroke-width:1" /><circle cx="750.000000" cy="750.000000" r="3.749996" style="fill:rgb(0,127,0);stroke-width:1" /><path stroke-linejoin="round" stroke-linecap="round" stroke="rgb(255,255,255)" stroke-width="3.749996" fill="none" d="M 0.000000 750.000000 L 750.000000 750.000000 M 0.000000 750.000000 L 0.000000 0.000000 " />

</svg>