<svg xmlns="http://www.w3.org/2000/svg" version="1.1" width = "750" height = "750" viewBox = "0 0 750 750"  shape-rendering="crispEdges">
<path stroke-linejoin="round" stroke-linecap="round" stroke="rgb(255,255,0)" stroke-width="3.749996" fill="none" d="M 93.750000 750.000000 L 0.000000 0.000000 " />
<path stroke-linejoin="round" stroke-linecap="round" stroke="rgb(63,63,63)" stroke-width="3.749996" fill="none" d="M 0.000000 0.000000 L 750.000000 750.000000 M 93.750000 750.000000 L 43.750004 0.000000 " />
<path stroke-linejoin="round" stroke-linecap="round" stroke="rgb(191,191,191)" stroke-width="3.749996" fill="none" d="M 0.000000 656.250000 L 93.750000 750.000000 M 0.000000 0.000000 L 49.999996 750.000000 " />
<path stroke-linejoin="round" stroke-linecap="round" stroke="rgb(0,0,255)" stroke-width="1.874998" fill="none" d="M 0.000000 750.000000 L 750.000000 728.571411 " />
<path stroke-linejoin="round" stroke-linecap="round" stroke="rgb(255,0,0)" stroke-width="3.749996" fill="none" d="M 93.571770 747.326538 L 93.750000 750.000000 " />
<path stroke-linejoin="round" stroke-linecap="round" stroke="rgb(0,0,255)" stroke-width="1.874998" fill="none" d="M 0.000000 750.000000 L 750.000000 705.882385 " />
<path stroke-linejoin="round" stroke-linecap="round" stroke="rgb(255,0,0)" stroke-width="3.749996" fill="none" d="M 92.950836 744.532288 L 93.571770 747.326538 " />
<path stroke-linejoin="round" stroke-linecap="round" stroke="rgb(0,0,255)" stroke-width="1.874998" fill="none" d="M 0.000000 750.000000 L 750.000000 685.714294 " />
<path stroke-linejoin="round" stroke-linecap="round" stroke="rgb(255,0,0)" stroke-width="3.749996" fill="none" d="M 92.405769 742.079529 L 92.950836 744.532288 " />
<path stroke-linejoin="round" stroke-linecap="round" stroke="rgb(0,0,255)" stroke-width="1.874998" fill="none" d="M 0.000000 750.000000 L 750.000000 666.666687 " />
<path stroke-linejoin="round" stroke-linecap="round" stroke="rgb(255,0,0)" stroke-width="3.749996" fill="none" d="M 91.896820 739.789246 L 92.405769 742.079529 " />
<path stroke-linejoin="round" stroke-linecap="round" stroke="rgb(0,0,255)" stroke-width="1.874998" fill="none" d="M 0.000000 750.000000 L 750.000000 661.764709 " />
<path stroke-linejoin="round" stroke-linecap="round" stroke="rgb(255,0,0)" stroke-width="3.749996" fill="none" d="M 91.766731 739.203918 L 91.896820 739.789246 " />
<path stroke-linejoin="round" stroke-linecap="round" stroke="rgb(0,0,255)" stroke-width="1.874998" fill="none" d="M 0.000000 750.000000 L 750.000000 636.363647 " />
<path stroke-linejoin="round" stroke-linecap="round" stroke="rgb(255,0,0)" stroke-width="3.749996" fill="none" d="M 91.098595 736.197144 L 91.766731 739.203918 " />
<path stroke-linejoin="round" stroke-linecap="round" stroke="rgb(0,0,255)" stroke-width="1.874998" fill="none" d="M 0.000000 750.000000 L 750.000000 617.647095 " />
<path stroke-linejoin="round" stroke-linecap="round" stroke="rgb(255,0,0)" stroke-width="3.749996" fill="none" d="M 90.612442 734.009583 L 91.098595 736.197144 " />
<path stroke-linejoin="round" stroke-linecap="round" stroke="rgb(0,0,255)" stroke-width="1.874998" fill="none" d="M 0.000000 750.000000 L 750.000000 609.375000 " />
<path stroke-linejoin="round" stroke-linecap="round" stroke="rgb(255,0,0)" stroke-width="3.749996" fill="none" d="M 90.399254 733.050110 L 90.612442 734.009583 " />
<path stroke-linejoin="round" stroke-linecap="round" stroke="rgb(0,0,255)" stroke-width="1.874998" fill="none" d="M 0.000000 750.000000 L 750.000000 590.909058 " />
<path stroke-linejoin="round" stroke-linecap="round" stroke="rgb(255,0,0)" stroke-width="3.749996" fill="none" d="M 89.926888 730.924561 L 90.399254 733.050110 " />
<path stroke-linejoin="round" stroke-linecap="round" stroke="rgb(0,0,255)" stroke-width="1.874998" fill="none" d="M 0.000000 750.000000 L 750.000000 562.500000 " />
<path stroke-linejoin="round" stroke-linecap="round" stroke="rgb(255,0,0)" stroke-width="3.749996" fill="none" d="M 89.209778 727.697571 L 89.926888 730.924561 " />
<path stroke-linejoin="round" stroke-linecap="round" stroke="rgb(0,0,255)" stroke-width="1.874998" fill="none" d="M 0.000000 750.000000 L 750.000000 532.258118 " />
<path stroke-linejoin="round" stroke-linecap="round" stroke="rgb(255,0,0)" stroke-width="3.749996" fill="none" d="M 88.458855 724.318359 L 89.209778 727.697571 " />
<path stroke-linejoin="round" stroke-linecap="round" stroke="rgb(0,0,255)" stroke-width="1.874998" fill="none" d="M 0.000000 750.000000 L 750.000000 499.999969 " />
<path stroke-linejoin="round" stroke-linecap="round" stroke="rgb(255,0,0)" stroke-width="3.749996" fill="none" d="M 87.671669 720.776062 L 88.458855 724.318359 " />
<path stroke-linejoin="round" stroke-linecap="round" stroke="rgb(0,0,255)" stroke-width="1.874998" fill="none" d="M 0.000000 750.000000 L 750.000000 483.870941 " />
<path stroke-linejoin="round" stroke-linecap="round" stroke="rgb(255,0,0)" stroke-width="3.749996" fill="none" d="M 87.283302 719.028503 L 87.671669 720.776062 " />
<path stroke-linejoin="round" stroke-linecap="round" stroke="rgb(0,0,255)" stroke-width="1.874998" fill="none" d="M 0.000000 750.000000 L 750.000000 450.000031 " />
<path stroke-linejoin="round" stroke-linecap="round" stroke="rgb(255,0,0)" stroke-width="3.749996" fill="none" d="M 86.478844 715.408447 L 87.283302 719.028503 " />
<path stroke-linejoin="round" stroke-linecap="round" stroke="rgb(0,0,255)" stroke-width="1.874998" fill="none" d="M 0.000000 750.000000 L 750.000000 435.483917 " />
<path stroke-linejoin="round" stroke-linecap="round" stroke="rgb(255,0,0)" stroke-width="3.749996" fill="none" d="M 86.138603 713.877380 L 86.478844 715.408447 " />
<path stroke-linejoin="round" stroke-linecap="round" stroke="rgb(0,0,255)" stroke-width="1.874998" fill="none" d="M 0.000000 750.000000 L 750.000000 421.875000 " />
<path stroke-linejoin="round" stroke-linecap="round" stroke="rgb(255,0,0)" stroke-width="3.749996" fill="none" d="M 85.822037 712.452820 L 86.138603 713.877380 " />
<path stroke-linejoin="round" stroke-linecap="round" stroke="rgb(0,0,255)" stroke-width="1.874998" fill="none" d="M 0.000000 750.000000 L 750.000000 399.999969 " />
<path stroke-linejoin="round" stroke-linecap="round" stroke="rgb(255,0,0)" stroke-width="3.749996" fill="none" d="M 85.318054 710.184937 L 85.822037 712.452820 " />
<path stroke-linejoin="round" stroke-linecap="round" stroke="rgb(0,0,255)" stroke-width="1.874998" fill="none" d="M 0.000000 750.000000 L 750.000000 362.068970 " />
<path stroke-linejoin="round" stroke-linecap="round" stroke="rgb(255,0,0)" stroke-width="3.749996" fill="none" d="M 84.458023 706.314819 L 85.318054 710.184937 " />
<path stroke-linejoin="round" stroke-linecap="round" stroke="rgb(0,0,255)" stroke-width="1.874998" fill="none" d="M 0.000000 750.000000 L 750.000000 349.999969 " />
<path stroke-linejoin="round" stroke-linecap="round" stroke="rgb(255,0,0)" stroke-width="3.749996" fill="none" d="M 84.188011 705.099731 L 84.458023 706.314819 " />
<path stroke-linejoin="round" stroke-linecap="round" stroke="rgb(0,0,255)" stroke-width="1.874998" fill="none" d="M 0.000000 750.000000 L 750.000000 321.428558 " />
<path stroke-linejoin="round" stroke-linecap="round" stroke="rgb(255,0,0)" stroke-width="3.749996" fill="none" d="M 83.555618 702.253906 L 84.188011 705.099731 " />
<path stroke-linejoin="round" stroke-linecap="round" stroke="rgb(0,0,255)" stroke-width="1.874998" fill="none" d="M 0.000000 750.000000 L 750.000000 310.344818 " />
<path stroke-linejoin="round" stroke-linecap="round" stroke="rgb(255,0,0)" stroke-width="3.749996" fill="none" d="M 83.312851 701.161438 L 83.555618 702.253906 " />
<path stroke-linejoin="round" stroke-linecap="round" stroke="rgb(0,0,255)" stroke-width="1.874998" fill="none" d="M 0.000000 750.000000 L 750.000000 267.857147 " />
<path stroke-linejoin="round" stroke-linecap="round" stroke="rgb(255,0,0)" stroke-width="3.749996" fill="none" d="M 82.395134 697.031677 L 83.312851 701.161438 " />
<path stroke-linejoin="round" stroke-linecap="round" stroke="rgb(0,0,255)" stroke-width="1.874998" fill="none" d="M 0.000000 750.000000 L 750.000000 258.620697 " />
<path stroke-linejoin="round" stroke-linecap="round" stroke="rgb(255,0,0)" stroke-width="3.749996" fill="none" d="M 82.198288 696.145935 L 82.395134 697.031677 " />
<path stroke-linejoin="round" stroke-linecap="round" stroke="rgb(0,0,255)" stroke-width="1.874998" fill="none" d="M 0.000000 750.000000 L 750.000000 249.999985 " />
<path stroke-linejoin="round" stroke-linecap="round" stroke="rgb(255,0,0)" stroke-width="3.749996" fill="none" d="M 82.015427 695.323059 L 82.198288 696.145935 " />
<path stroke-linejoin="round" stroke-linecap="round" stroke="rgb(0,0,255)" stroke-width="1.874998" fill="none" d="M 0.000000 750.000000 L 750.000000 214.285706 " />
<path stroke-linejoin="round" stroke-linecap="round" stroke="rgb(255,0,0)" stroke-width="3.749996" fill="none" d="M 81.266418 691.952515 L 82.015427 695.323059 " />
<path stroke-linejoin="round" stroke-linecap="round" stroke="rgb(0,0,255)" stroke-width="1.874998" fill="none" d="M 0.000000 750.000000 L 750.000000 166.666656 " />
<path stroke-linejoin="round" stroke-linecap="round" stroke="rgb(255,0,0)" stroke-width="3.749996" fill="none" d="M 80.288773 687.553162 L 81.266418 691.952515 " />
<path stroke-linejoin="round" stroke-linecap="round" stroke="rgb(0,0,255)" stroke-width="1.874998" fill="none" d="M 0.000000 750.000000 L 750.000000 115.384605 " />
<path stroke-linejoin="round" stroke-linecap="round" stroke="rgb(255,0,0)" stroke-width="3.749996" fill="none" d="M 79.261917 682.932251 L 80.288773 687.553162 " />
<path stroke-linejoin="round" stroke-linecap="round" stroke="rgb(0,0,255)" stroke-width="1.874998" fill="none" d="M 0.000000 750.000000 L 750.000000 111.111092 " />
<path stroke-linejoin="round" stroke-linecap="round" stroke="rgb(255,0,0)" stroke-width="3.749996" fill="none" d="M 79.177513 682.552429 L 79.261917 682.932251 " />
<path stroke-linejoin="round" stroke-linecap="round" stroke="rgb(0,0,255)" stroke-width="1.874998" fill="none" d="M 0.000000 750.000000 L 750.000000 57.692303 " />
<path stroke-linejoin="round" stroke-linecap="round" stroke="rgb(255,0,0)" stroke-width="3.749996" fill="none" d="M 78.137619 677.872986 L 79.177513 682.552429 " />
<path stroke-linejoin="round" stroke-linecap="round" stroke="rgb(0,0,255)" stroke-width="1.874998" fill="none" d="M 0.000000 750.000000 L 750.000000 0.000000 " />
<path stroke-linejoin="round" stroke-linecap="round" stroke="rgb(255,0,0)" stroke-width="3.749996" fill="none" d="M 77.044800 672.955200 L 78.137619 677.872986 " />
<path stroke-linejoin="round" stroke-linecap="round" stroke="rgb(0,0,255)" stroke-width="1.874998" fill="none" d="M 0.000000 750.000000 L 692.307678 0.000000 " />
<path stroke-linejoin="round" stroke-linecap="round" stroke="rgb(255,0,0)" stroke-width="3.749996" fill="none" d="M 75.894867 667.780579 L 77.044800 672.955200 " />
<path stroke-linejoin="round" stroke-linecap="round" stroke="rgb(0,0,255)" stroke-width="1.874998" fill="none" d="M 0.000000 750.000000 L 638.888916 0.000000 " />
<path stroke-linejoin="round" stroke-linecap="round" stroke="rgb(255,0,0)" stroke-width="3.749996" fill="none" d="M 74.683273 662.328308 L 75.894867 667.780579 " />
<path stroke-linejoin="round" stroke-linecap="round" stroke="rgb(0,0,255)" stroke-width="1.874998" fill="none" d="M 0.000000 750.000000 L 589.285767 0.000000 " />
<path stroke-linejoin="round" stroke-linecap="round" stroke="rgb(255,0,0)" stroke-width="3.749996" fill="none" d="M 73.404884 656.575623 L 74.683273 662.328308 " />
<path stroke-linejoin="round" stroke-linecap="round" stroke="rgb(0,0,255)" stroke-width="1.874998" fill="none" d="M 0.000000 750.000000 L 550.000000 0.000000 " />
<path stroke-linejoin="round" stroke-linecap="round" stroke="rgb(255,0,0)" stroke-width="3.749996" fill="none" d="M 72.266823 651.454346 L 73.404884 656.575623 " />
<path stroke-linejoin="round" stroke-linecap="round" stroke="rgb(0,0,255)" stroke-width="1.874998" fill="none" d="M 0.000000 750.000000 L 515.625000 0.000000 " />
<path stroke-linejoin="round" stroke-linecap="round" stroke="rgb(255,0,0)" stroke-width="3.749996" fill="none" d="M 71.163521 646.489441 L 72.266823 651.454346 " />
<path stroke-linejoin="round" stroke-linecap="round" stroke="rgb(0,0,255)" stroke-width="1.874998" fill="none" d="M 0.000000 750.000000 L 485.294128 0.000000 " />
<path stroke-linejoin="round" stroke-linecap="round" stroke="rgb(255,0,0)" stroke-width="3.749996" fill="none" d="M 70.093384 641.673889 L 71.163521 646.489441 " />
<path stroke-linejoin="round" stroke-linecap="round" stroke="rgb(0,0,255)" stroke-width="1.874998" fill="none" d="M 0.000000 750.000000 L 450.000031 0.000000 " />
<path stroke-linejoin="round" stroke-linecap="round" stroke="rgb(255,0,0)" stroke-width="3.749996" fill="none" d="M 68.715622 635.473938 L 70.093384 641.673889 " />
<path stroke-linejoin="round" stroke-linecap="round" stroke="rgb(0,0,255)" stroke-width="1.874998" fill="none" d="M 0.000000 750.000000 L 416.666687 0.000000 " />
<path stroke-linejoin="round" stroke-linecap="round" stroke="rgb(255,0,0)" stroke-width="3.749996" fill="none" d="M 67.261307 628.929626 L 68.715622 635.473938 " />
<path stroke-linejoin="round" stroke-linecap="round" stroke="rgb(0,0,255)" stroke-width="1.874998" fill="none" d="M 0.000000 750.000000 L 394.736847 0.000000 " />
<path stroke-linejoin="round" stroke-linecap="round" stroke="rgb(255,0,0)" stroke-width="3.749996" fill="none" d="M 66.210373 624.200256 L 67.261307 628.929626 " />
<path stroke-linejoin="round" stroke-linecap="round" stroke="rgb(0,0,255)" stroke-width="1.874998" fill="none" d="M 0.000000 750.000000 L 375.000000 0.000000 " />
<path stroke-linejoin="round" stroke-linecap="round" stroke="rgb(255,0,0)" stroke-width="3.749996" fill="none" d="M 65.191742 619.616516 L 66.210373 624.200256 " />
<path stroke-linejoin="round" stroke-linecap="round" stroke="rgb(0,0,255)" stroke-width="1.874998" fill="none" d="M 0.000000 750.000000 L 347.560944 0.000000 " />
<path stroke-linejoin="round" stroke-linecap="round" stroke="rgb(255,0,0)" stroke-width="3.749996" fill="none" d="M 63.645691 612.659302 L 65.191742 619.616516 " />
<path stroke-linejoin="round" stroke-linecap="round" stroke="rgb(0,0,255)" stroke-width="1.874998" fill="none" d="M 0.000000 750.000000 L 321.428589 0.000000 " />
<path stroke-linejoin="round" stroke-linecap="round" stroke="rgb(255,0,0)" stroke-width="3.749996" fill="none" d="M 62.011665 605.306152 L 63.645691 612.659302 " />
<path stroke-linejoin="round" stroke-linecap="round" stroke="rgb(0,0,255)" stroke-width="1.874998" fill="none" d="M 0.000000 750.000000 L 296.511627 0.000000 " />
<path stroke-linejoin="round" stroke-linecap="round" stroke="rgb(255,0,0)" stroke-width="3.749996" fill="none" d="M 60.281910 597.522217 L 62.011665 605.306152 " />
<path stroke-linejoin="round" stroke-linecap="round" stroke="rgb(0,0,255)" stroke-width="1.874998" fill="none" d="M 0.000000 750.000000 L 283.333344 0.000000 " />
<path stroke-linejoin="round" stroke-linecap="round" stroke="rgb(255,0,0)" stroke-width="3.749996" fill="none" d="M 59.289604 593.056946 L 60.281910 597.522217 " />
<path stroke-linejoin="round" stroke-linecap="round" stroke="rgb(0,0,255)" stroke-width="1.874998" fill="none" d="M 0.000000 750.000000 L 271.276581 0.000000 " />
<path stroke-linejoin="round" stroke-linecap="round" stroke="rgb(255,0,0)" stroke-width="3.749996" fill="none" d="M 58.329464 588.736206 L 59.289604 593.056946 " />
<path stroke-linejoin="round" stroke-linecap="round" stroke="rgb(0,0,255)" stroke-width="1.874998" fill="none" d="M 0.000000 750.000000 L 250.000000 0.000000 " />
<path stroke-linejoin="round" stroke-linecap="round" stroke="rgb(255,0,0)" stroke-width="3.749996" fill="none" d="M 56.499504 580.501465 L 58.329464 588.736206 " />
<path stroke-linejoin="round" stroke-linecap="round" stroke="rgb(0,0,255)" stroke-width="1.874998" fill="none" d="M 0.000000 750.000000 L 240.000000 0.000000 " />
<path stroke-linejoin="round" stroke-linecap="round" stroke="rgb(255,0,0)" stroke-width="3.749996" fill="none" d="M 55.573292 576.333435 L 56.499504 580.501465 " />
<path stroke-linejoin="round" stroke-linecap="round" stroke="rgb(0,0,255)" stroke-width="1.874998" fill="none" d="M 0.000000 750.000000 L 220.588226 0.000000 " />
<path stroke-linejoin="round" stroke-linecap="round" stroke="rgb(255,0,0)" stroke-width="3.749996" fill="none" d="M 53.638771 567.628113 L 55.573292 576.333435 " />
<path stroke-linejoin="round" stroke-linecap="round" stroke="rgb(0,0,255)" stroke-width="1.874998" fill="none" d="M 0.000000 750.000000 L 187.500000 0.000000 " />
<path stroke-linejoin="round" stroke-linecap="round" stroke="rgb(255,0,0)" stroke-width="3.749996" fill="none" d="M 51.562428 543.750244 L 53.638771 567.628113 " />
<path stroke-linejoin="round" stroke-linecap="round" stroke="rgb(0,0,255)" stroke-width="1.874998" fill="none" d="M 0.000000 750.000000 L 149.999985 0.000000 " />
<path stroke-linejoin="round" stroke-linecap="round" stroke="rgb(255,0,0)" stroke-width="3.749996" fill="none" d="M 48.437431 507.812805 L 51.562428 543.750244 " />
<path stroke-linejoin="round" stroke-linecap="round" stroke="rgb(0,0,255)" stroke-width="1.874998" fill="none" d="M 0.000000 750.000000 L 140.625000 0.000000 " />
<path stroke-linejoin="round" stroke-linecap="round" stroke="rgb(255,0,0)" stroke-width="3.749996" fill="none" d="M 47.478275 496.782471 L 48.437431 507.812805 " />
<path stroke-linejoin="round" stroke-linecap="round" stroke="rgb(0,0,255)" stroke-width="1.874998" fill="none" d="M 0.000000 750.000000 L 133.928574 0.000000 " />
<path stroke-linejoin="round" stroke-linecap="round" stroke="rgb(255,0,0)" stroke-width="3.749996" fill="none" d="M 46.737896 488.267853 L 47.478275 496.782471 " />
<path stroke-linejoin="round" stroke-linecap="round" stroke="rgb(0,0,255)" stroke-width="1.874998" fill="none" d="M 0.000000 750.000000 L 130.813965 0.000000 " />
<path stroke-linejoin="round" stroke-linecap="round" stroke="rgb(255,0,0)" stroke-width="3.749996" fill="none" d="M 46.376289 484.109344 L 46.737896 488.267853 " />
<path stroke-linejoin="round" stroke-linecap="round" stroke="rgb(0,0,255)" stroke-width="1.874998" fill="none" d="M 0.000000 750.000000 L 113.372101 0.000000 " />
<path stroke-linejoin="round" stroke-linecap="round" stroke="rgb(255,0,0)" stroke-width="3.749996" fill="none" d="M 44.118179 458.141235 L 46.376289 484.109344 " />
<path stroke-linejoin="round" stroke-linecap="round" stroke="rgb(0,0,255)" stroke-width="1.874998" fill="none" d="M 0.000000 750.000000 L 93.750000 0.000000 " />
<path stroke-linejoin="round" stroke-linecap="round" stroke="rgb(255,0,0)" stroke-width="3.749996" fill="none" d="M 40.985538 422.115784 L 44.118179 458.141235 " />
<path stroke-linejoin="round" stroke-linecap="round" stroke="rgb(0,0,255)" stroke-width="1.874998" fill="none" d="M 0.000000 750.000000 L 77.830193 0.000000 " />
<path stroke-linejoin="round" stroke-linecap="round" stroke="rgb(255,0,0)" stroke-width="3.749996" fill="none" d="M 37.812466 385.625397 L 40.985538 422.115784 " />
<path stroke-linejoin="round" stroke-linecap="round" stroke="rgb(0,0,255)" stroke-width="1.874998" fill="none" d="M 0.000000 750.000000 L 77.586205 0.000000 " />
<path stroke-linejoin="round" stroke-linecap="round" stroke="rgb(255,0,0)" stroke-width="3.749996" fill="none" d="M 37.758327 385.002838 L 37.812466 385.625397 " />
<path stroke-linejoin="round" stroke-linecap="round" stroke="rgb(0,0,255)" stroke-width="1.874998" fill="none" d="M 0.000000 750.000000 L 64.655159 0.000000 " />
<path stroke-linejoin="round" stroke-linecap="round" stroke="rgb(255,0,0)" stroke-width="3.749996" fill="none" d="M 34.598171 348.661163 L 37.758327 385.002838 " />
<path stroke-linejoin="round" stroke-linecap="round" stroke="rgb(0,0,255)" stroke-width="1.874998" fill="none" d="M 0.000000 750.000000 L 63.559322 0.000000 " />
<path stroke-linejoin="round" stroke-linecap="round" stroke="rgb(255,0,0)" stroke-width="3.749996" fill="none" d="M 34.301205 345.245911 L 34.598171 348.661163 " />
<path stroke-linejoin="round" stroke-linecap="round" stroke="rgb(0,0,255)" stroke-width="1.874998" fill="none" d="M 0.000000 750.000000 L 53.571426 0.000000 " />
<path stroke-linejoin="round" stroke-linecap="round" stroke="rgb(255,0,0)" stroke-width="3.749996" fill="none" d="M 31.341881 311.213715 L 34.301205 345.245911 " />
<path stroke-linejoin="round" stroke-linecap="round" stroke="rgb(0,0,255)" stroke-width="1.874998" fill="none" d="M 0.000000 750.000000 L 50.847462 0.000000 " />
<path stroke-linejoin="round" stroke-linecap="round" stroke="rgb(255,0,0)" stroke-width="3.749996" fill="none" d="M 30.446404 300.915649 L 31.341881 311.213715 " />
<path stroke-linejoin="round" stroke-linecap="round" stroke="rgb(0,0,255)" stroke-width="1.874998" fill="none" d="M 0.000000 750.000000 L 41.015625 0.000000 " />
<path stroke-linejoin="round" stroke-linecap="round" stroke="rgb(255,0,0)" stroke-width="3.749996" fill="none" d="M 26.832260 259.353027 L 30.446404 300.915649 " />
<path stroke-linejoin="round" stroke-linecap="round" stroke="rgb(0,0,255)" stroke-width="1.874998" fill="none" d="M 0.000000 750.000000 L 35.472973 0.000000 " />
<path stroke-linejoin="round" stroke-linecap="round" stroke="rgb(255,0,0)" stroke-width="3.749996" fill="none" d="M 24.483696 232.344650 L 26.832260 259.353027 " />
<path stroke-linejoin="round" stroke-linecap="round" stroke="rgb(0,0,255)" stroke-width="1.874998" fill="none" d="M 0.000000 750.000000 L 35.000011 0.000000 " />
<path stroke-linejoin="round" stroke-linecap="round" stroke="rgb(255,0,0)" stroke-width="3.749996" fill="none" d="M 24.271265 229.901657 L 24.483696 232.344650 " />
<path stroke-linejoin="round" stroke-linecap="round" stroke="rgb(0,0,255)" stroke-width="1.874998" fill="none" d="M 0.000000 750.000000 L 28.124996 0.000000 " />
<path stroke-linejoin="round" stroke-linecap="round" stroke="rgb(255,0,0)" stroke-width="3.749996" fill="none" d="M 20.940207 191.594482 L 24.271265 229.901657 " />
<path stroke-linejoin="round" stroke-linecap="round" stroke="rgb(0,0,255)" stroke-width="1.874998" fill="none" d="M 0.000000 750.000000 L 22.058823 0.000000 " />
<path stroke-linejoin="round" stroke-linecap="round" stroke="rgb(255,0,0)" stroke-width="3.749996" fill="none" d="M 17.565228 152.782242 L 20.940207 191.594437 " />
<path stroke-linejoin="round" stroke-linecap="round" stroke="rgb(0,0,255)" stroke-width="1.874998" fill="none" d="M 0.000000 750.000000 L 19.736834 0.000000 " />
<path stroke-linejoin="round" stroke-linecap="round" stroke="rgb(255,0,0)" stroke-width="3.749996" fill="none" d="M 16.145824 136.459000 L 17.565228 152.782242 " />
<path stroke-linejoin="round" stroke-linecap="round" stroke="rgb(0,0,255)" stroke-width="1.874998" fill="none" d="M 0.000000 750.000000 L 15.000008 0.000000 " />
<path stroke-linejoin="round" stroke-linecap="round" stroke="rgb(255,0,0)" stroke-width="3.749996" fill="none" d="M 12.995415 100.229370 L 16.145824 136.459000 " />
<path stroke-linejoin="round" stroke-linecap="round" stroke="rgb(0,0,255)" stroke-width="1.874998" fill="none" d="M 0.000000 750.000000 L 14.851480 0.000000 " />
<path stroke-linejoin="round" stroke-linecap="round" stroke="rgb(255,0,0)" stroke-width="3.749996" fill="none" d="M 12.890607 99.024117 L 12.995415 100.229370 " />
<path stroke-linejoin="round" stroke-linecap="round" stroke="rgb(0,0,255)" stroke-width="1.874998" fill="none" d="M 0.000000 750.000000 L 10.613211 0.000000 " />
<path stroke-linejoin="round" stroke-linecap="round" stroke="rgb(255,0,0)" stroke-width="3.749996" fill="none" d="M 9.726785 62.640175 L 12.890607 99.024117 " />
<path stroke-linejoin="round" stroke-linecap="round" stroke="rgb(0,0,255)" stroke-width="1.874998" fill="none" d="M 0.000000 750.000000 L 6.756753 0.000000 " />
<path stroke-linejoin="round" stroke-linecap="round" stroke="rgb(255,0,0)" stroke-width="3.749996" fill="none" d="M 6.524228 25.810719 L 9.726785 62.640175 " />
<path stroke-linejoin="round" stroke-linecap="round" stroke="rgb(0,0,255)" stroke-width="1.874998" fill="none" d="M 0.000000 750.000000 L 3.232755 0.000000 " />
<path stroke-linejoin="round" stroke-linecap="round" stroke="rgb(255,0,0)" stroke-width="3.749996" fill="none" d="M 3.198579 7.931292 L 6.524228 25.810719 " />
<path stroke-linejoin="round" stroke-linecap="round" stroke="rgb(0,0,255)" stroke-width="1.874998" fill="none" d="M 0.000000 750.000000 L 0.000000 0.000000 " />
<path stroke-linejoin="round" stroke-linecap="round" stroke="rgb(255,0,0)" stroke-width="3.749996" fill="none" d="M 0.000000 0.000000 L 3.198579 7.931292 " />
<circle cx="93.571767" cy="747.326553" r="3.749996" style="fill:rgb(0,127,0);stroke-width:1" /><circle cx="92.950836" cy="744.532295" r="3.749996" style="fill:rgb(0,127,0);stroke-width:1" /><circle cx="92.405766" cy="742.079504" r="3.749996" style="fill:rgb(0,127,0);stroke-width:1" /><circle cx="91.896817" cy="739.789233" r="3.749996" style="fill:rgb(0,127,0);stroke-width:1" /><circle cx="91.766730" cy="739.203908" r="3.749996" style="fill:rgb(0,127,0);stroke-width:1" /><circle cx="91.098592" cy="736.197174" r="3.749996" style="fill:rgb(0,127,0);stroke-width:1" /><circle cx="90.612441" cy="734.009564" r="3.749996" style="fill:rgb(0,127,0);stroke-width:1" /><circle cx="90.399250" cy="733.050138" r="3.749996" style="fill:rgb(0,127,0);stroke-width:1" /><circle cx="89.926891" cy="730.924599" r="3.749996" style="fill:rgb(0,127,0);stroke-width:1" /><circle cx="89.209780" cy="727.697566" r="3.749996" style="fill:rgb(0,127,0);stroke-width:1" /><circle cx="88.458851" cy="724.318407" r="3.749996" style="fill:rgb(0,127,0);stroke-width:1" /><circle cx="87.671667" cy="720.776103" r="3.749996" style="fill:rgb(0,127,0);stroke-width:1" /><circle cx="87.283306" cy="719.028510" r="3.749996" style="fill:rgb(0,127,0);stroke-width:1" /><circle cx="86.478844" cy="715.408467" r="3.749996" style="fill:rgb(0,127,0);stroke-width:1" /><circle cx="86.138606" cy="713.877350" r="3.749996" style="fill:rgb(0,127,0);stroke-width:1" /><circle cx="85.822038" cy="712.452851" r="3.749996" style="fill:rgb(0,127,0);stroke-width:1" /><circle cx="85.318051" cy="710.184909" r="3.749996" style="fill:rgb(0,127,0);stroke-width:1" /><circle cx="84.458023" cy="706.314817" r="3.749996" style="fill:rgb(0,127,0);stroke-width:1" /><circle cx="84.188014" cy="705.099732" r="3.749996" style="fill:rgb(0,127,0);stroke-width:1" /><circle cx="83.555616" cy="702.253930" r="3.749996" style="fill:rgb(0,127,0);stroke-width:1" /><circle cx="83.312854" cy="701.161444" r="3.749996" style="fill:rgb(0,127,0);stroke-width:1" /><circle cx="82.395136" cy="697.031692" r="3.749996" style="fill:rgb(0,127,0);stroke-width:1" /><circle cx="82.198285" cy="696.145937" r="3.749996" style="fill:rgb(0,127,0);stroke-width:1" /><circle cx="82.015425" cy="695.323035" r="3.749996" style="fill:rgb(0,127,0);stroke-width:1" /><circle cx="81.266418" cy="691.952549" r="3.749996" style="fill:rgb(0,127,0);stroke-width:1" /><circle cx="80.288775" cy="687.553167" r="3.749996" style="fill:rgb(0,127,0);stroke-width:1" /><circle cx="79.261914" cy="682.932235" r="3.749996" style="fill:rgb(0,127,0);stroke-width:1" /><circle cx="79.177514" cy="682.552479" r="3.749996" style="fill:rgb(0,127,0);stroke-width:1" /><circle cx="78.137621" cy="677.872963" r="3.749996" style="fill:rgb(0,127,0);stroke-width:1" /><circle cx="77.044800" cy="672.955200" r="3.749996" style="fill:rgb(0,127,0);stroke-width:1" /><circle cx="75.894870" cy="667.780548" r="3.749996" style="fill:rgb(0,127,0);stroke-width:1" /><circle cx="74.683271" cy="662.328333" r="3.749996" style="fill:rgb(0,127,0);stroke-width:1" /><circle cx="73.404886" cy="656.575598" r="3.749996" style="fill:rgb(0,127,0);stroke-width:1" /><circle cx="72.266825" cy="651.454344" r="3.749996" style="fill:rgb(0,127,0);stroke-width:1" /><circle cx="71.163520" cy="646.489441" r="3.749996" style="fill:rgb(0,127,0);stroke-width:1" /><circle cx="70.093386" cy="641.673870" r="3.749996" style="fill:rgb(0,127,0);stroke-width:1" /><circle cx="68.715625" cy="635.473967" r="3.749996" style="fill:rgb(0,127,0);stroke-width:1" /><circle cx="67.261308" cy="628.929622" r="3.749996" style="fill:rgb(0,127,0);stroke-width:1" /><circle cx="66.210374" cy="624.200307" r="3.749996" style="fill:rgb(0,127,0);stroke-width:1" /><circle cx="65.191738" cy="619.616523" r="3.749996" style="fill:rgb(0,127,0);stroke-width:1" /><circle cx="63.645691" cy="612.659276" r="3.749996" style="fill:rgb(0,127,0);stroke-width:1" /><circle cx="62.011667" cy="605.306134" r="3.749996" style="fill:rgb(0,127,0);stroke-width:1" /><circle cx="60.281910" cy="597.522229" r="3.749996" style="fill:rgb(0,127,0);stroke-width:1" /><circle cx="59.289604" cy="593.056932" r="3.749996" style="fill:rgb(0,127,0);stroke-width:1" /><circle cx="58.329463" cy="588.736206" r="3.749996" style="fill:rgb(0,127,0);stroke-width:1" /><circle cx="56.499504" cy="580.501467" r="3.749996" style="fill:rgb(0,127,0);stroke-width:1" /><circle cx="55.573292" cy="576.333448" r="3.749996" style="fill:rgb(0,127,0);stroke-width:1" /><circle cx="53.638771" cy="567.628138" r="3.749996" style="fill:rgb(0,127,0);stroke-width:1" /><circle cx="51.562428" cy="543.750241" r="3.749996" style="fill:rgb(0,127,0);stroke-width:1" /><circle cx="48.437431" cy="507.812798" r="3.749996" style="fill:rgb(0,127,0);stroke-width:1" /><circle cx="47.478274" cy="496.782482" r="3.749996" style="fill:rgb(0,127,0);stroke-width:1" /><circle cx="46.737894" cy="488.267854" r="3.749996" style="fill:rgb(0,127,0);stroke-width:1" /><circle cx="46.376288" cy="484.109357" r="3.749996" style="fill:rgb(0,127,0);stroke-width:1" /><circle cx="44.118181" cy="458.141260" r="3.749996" style="fill:rgb(0,127,0);stroke-width:1" /><circle cx="40.985540" cy="422.115751" r="3.749996" style="fill:rgb(0,127,0);stroke-width:1" /><circle cx="37.812464" cy="385.625415" r="3.749996" style="fill:rgb(0,127,0);stroke-width:1" /><circle cx="37.758328" cy="385.002874" r="3.749996" style="fill:rgb(0,127,0);stroke-width:1" /><circle cx="34.598172" cy="348.661155" r="3.749996" style="fill:rgb(0,127,0);stroke-width:1" /><circle cx="34.301206" cy="345.245898" r="3.749996" style="fill:rgb(0,127,0);stroke-width:1" /><circle cx="31.341881" cy="311.213717" r="3.749996" style="fill:rgb(0,127,0);stroke-width:1" /><circle cx="30.446403" cy="300.915644" r="3.749996" style="fill:rgb(0,127,0);stroke-width:1" /><circle cx="26.832260" cy="259.353027" r="3.749996" style="fill:rgb(0,127,0);stroke-width:1" /><circle cx="24.483696" cy="232.344657" r="3.749996" style="fill:rgb(0,127,0);stroke-width:1" /><circle cx="24.271265" cy="229.901657" r="3.749996" style="fill:rgb(0,127,0);stroke-width:1" /><circle cx="20.940207" cy="191.594481" r="3.749996" style="fill:rgb(0,127,0);stroke-width:1" /><circle cx="17.565228" cy="152.782246" r="3.749996" style="fill:rgb(0,127,0);stroke-width:1" /><circle cx="16.145825" cy="136.458993" r="3.749996" style="fill:rgb(0,127,0);stroke-width:1" /><circle cx="12.995414" cy="100.229368" r="3.749996" style="fill:rgb(0,127,0);stroke-width:1" /><circle cx="12.890607" cy="99.024117" r="3.749996" style="fill:rgb(0,127,0);stroke-width:1" /><circle cx="9.726785" cy="62.640175" r="3.749996" style="fill:rgb(0,127,0);stroke-width:1" /><circle cx="6.524228" cy="25.810719" r="3.749996" style="fill:rgb(0,127,0);stroke-width:1" /><circle cx="3.198579" cy="7.931292" r="3.749996" style="fill:rgb(0,127,0);stroke-width:1" /><circle cx="750.000000" cy="750.000000" r="3.749996" style="fill:rgb(0,127,0);stroke-width:1" /><path stroke-linejoin="round" stroke-linecap="round" stroke="rgb(255,255,255)" stroke-width="3.749996" fill="none" d="M 0.000000 750.000000 L 750.000000 750.000000 M 0.000000 750.000000 L 0.000000 0.000000 " />

</svg>