<svg xmlns="http://www.w3.org/2000/svg" version="1.1" width = "750" height = "750" viewBox = "0 0 750 750"  shape-rendering="crispEdges">
<path stroke-linejoin="round" stroke-linecap="round" stroke="rgb(255,255,0)" stroke-width="3.749996" fill="none" d="M 107.142853 750.000000 L 0.000000 0.000000 " />
<path stroke-linejoin="round" stroke-linecap="round" stroke="rgb(63,63,63)" stroke-width="3.749996" fill="none" d="M 0.000000 0.000000 L 750.000000 750.000000 M 107.142853 750.000000 L 49.450546 0.000000 " />
<path stroke-linejoin="round" stroke-linecap="round" stroke="rgb(191,191,191)" stroke-width="3.749996" fill="none" d="M 0.000000 642.857178 L 107.142853 750.000000 M 0.000000 0.000000 L 57.692303 750.000000 " />
<path stroke-linejoin="round" stroke-linecap="round" stroke="rgb(0,0,255)" stroke-width="1.874998" fill="none" d="M 0.000000 750.000000 L 750.000000 731.250000 " />
<path stroke-linejoin="round" stroke-linecap="round" stroke="rgb(255,0,0)" stroke-width="3.749996" fill="none" d="M 106.937218 747.326538 L 107.142853 750.000000 " />
<path stroke-linejoin="round" stroke-linecap="round" stroke="rgb(0,0,255)" stroke-width="1.874998" fill="none" d="M 0.000000 750.000000 L 750.000000 711.538452 " />
<path stroke-linejoin="round" stroke-linecap="round" stroke="rgb(255,0,0)" stroke-width="3.749996" fill="none" d="M 106.243462 744.551636 L 106.937195 747.326538 " />
<path stroke-linejoin="round" stroke-linecap="round" stroke="rgb(0,0,255)" stroke-width="1.874998" fill="none" d="M 0.000000 750.000000 L 750.000000 690.789490 " />
<path stroke-linejoin="round" stroke-linecap="round" stroke="rgb(255,0,0)" stroke-width="3.749996" fill="none" d="M 105.522865 741.669250 L 106.243439 744.551636 " />
<path stroke-linejoin="round" stroke-linecap="round" stroke="rgb(0,0,255)" stroke-width="1.874998" fill="none" d="M 0.000000 750.000000 L 750.000000 668.918945 " />
<path stroke-linejoin="round" stroke-linecap="round" stroke="rgb(255,0,0)" stroke-width="3.749996" fill="none" d="M 104.773811 738.673096 L 105.522842 741.669250 " />
<path stroke-linejoin="round" stroke-linecap="round" stroke="rgb(0,0,255)" stroke-width="1.874998" fill="none" d="M 0.000000 750.000000 L 750.000000 645.833313 " />
<path stroke-linejoin="round" stroke-linecap="round" stroke="rgb(255,0,0)" stroke-width="3.749996" fill="none" d="M 103.994606 735.556274 L 104.773811 738.673096 " />
<path stroke-linejoin="round" stroke-linecap="round" stroke="rgb(0,0,255)" stroke-width="1.874998" fill="none" d="M 0.000000 750.000000 L 750.000000 621.428589 " />
<path stroke-linejoin="round" stroke-linecap="round" stroke="rgb(255,0,0)" stroke-width="3.749996" fill="none" d="M 103.183372 732.311401 L 103.994583 735.556274 " />
<path stroke-linejoin="round" stroke-linecap="round" stroke="rgb(0,0,255)" stroke-width="1.874998" fill="none" d="M 0.000000 750.000000 L 750.000000 604.166687 " />
<path stroke-linejoin="round" stroke-linecap="round" stroke="rgb(255,0,0)" stroke-width="3.749996" fill="none" d="M 102.617180 730.046692 L 103.183372 732.311401 " />
<path stroke-linejoin="round" stroke-linecap="round" stroke="rgb(0,0,255)" stroke-width="1.874998" fill="none" d="M 0.000000 750.000000 L 750.000000 578.571411 " />
<path stroke-linejoin="round" stroke-linecap="round" stroke="rgb(255,0,0)" stroke-width="3.749996" fill="none" d="M 101.789001 726.733948 L 102.617180 730.046692 " />
<path stroke-linejoin="round" stroke-linecap="round" stroke="rgb(0,0,255)" stroke-width="1.874998" fill="none" d="M 0.000000 750.000000 L 750.000000 551.470581 " />
<path stroke-linejoin="round" stroke-linecap="round" stroke="rgb(255,0,0)" stroke-width="3.749996" fill="none" d="M 100.926559 723.284119 L 101.789001 726.733948 " />
<path stroke-linejoin="round" stroke-linecap="round" stroke="rgb(0,0,255)" stroke-width="1.874998" fill="none" d="M 0.000000 750.000000 L 750.000000 522.727295 " />
<path stroke-linejoin="round" stroke-linecap="round" stroke="rgb(255,0,0)" stroke-width="3.749996" fill="none" d="M 100.027664 719.688599 L 100.926559 723.284119 " />
<path stroke-linejoin="round" stroke-linecap="round" stroke="rgb(0,0,255)" stroke-width="1.874998" fill="none" d="M 0.000000 750.000000 L 750.000000 507.352936 " />
<path stroke-linejoin="round" stroke-linecap="round" stroke="rgb(255,0,0)" stroke-width="3.749996" fill="none" d="M 99.553406 717.791565 L 100.027664 719.688599 " />
<path stroke-linejoin="round" stroke-linecap="round" stroke="rgb(0,0,255)" stroke-width="1.874998" fill="none" d="M 0.000000 750.000000 L 750.000000 477.272705 " />
<path stroke-linejoin="round" stroke-linecap="round" stroke="rgb(255,0,0)" stroke-width="3.749996" fill="none" d="M 98.638390 714.131470 L 99.553406 717.791565 " />
<path stroke-linejoin="round" stroke-linecap="round" stroke="rgb(0,0,255)" stroke-width="1.874998" fill="none" d="M 0.000000 750.000000 L 750.000000 445.312500 " />
<path stroke-linejoin="round" stroke-linecap="round" stroke="rgb(255,0,0)" stroke-width="3.749996" fill="none" d="M 97.684441 710.315674 L 98.638390 714.131470 " />
<path stroke-linejoin="round" stroke-linecap="round" stroke="rgb(0,0,255)" stroke-width="1.874998" fill="none" d="M 0.000000 750.000000 L 750.000000 411.290344 " />
<path stroke-linejoin="round" stroke-linecap="round" stroke="rgb(255,0,0)" stroke-width="3.749996" fill="none" d="M 96.689011 706.333984 L 97.684441 710.315674 " />
<path stroke-linejoin="round" stroke-linecap="round" stroke="rgb(0,0,255)" stroke-width="1.874998" fill="none" d="M 0.000000 750.000000 L 750.000000 398.437500 " />
<path stroke-linejoin="round" stroke-linecap="round" stroke="rgb(255,0,0)" stroke-width="3.749996" fill="none" d="M 96.318237 704.850830 L 96.689011 706.333984 " />
<path stroke-linejoin="round" stroke-linecap="round" stroke="rgb(0,0,255)" stroke-width="1.874998" fill="none" d="M 0.000000 750.000000 L 750.000000 375.000000 " />
<path stroke-linejoin="round" stroke-linecap="round" stroke="rgb(255,0,0)" stroke-width="3.749996" fill="none" d="M 95.649338 702.175293 L 96.318237 704.850830 " />
<path stroke-linejoin="round" stroke-linecap="round" stroke="rgb(0,0,255)" stroke-width="1.874998" fill="none" d="M 0.000000 750.000000 L 750.000000 362.903229 " />
<path stroke-linejoin="round" stroke-linecap="round" stroke="rgb(255,0,0)" stroke-width="3.749996" fill="none" d="M 95.307739 700.808899 L 95.649338 702.175293 " />
<path stroke-linejoin="round" stroke-linecap="round" stroke="rgb(0,0,255)" stroke-width="1.874998" fill="none" d="M 0.000000 750.000000 L 750.000000 336.206909 " />
<path stroke-linejoin="round" stroke-linecap="round" stroke="rgb(255,0,0)" stroke-width="3.749996" fill="none" d="M 94.562416 697.827637 L 95.307739 700.808899 " />
<path stroke-linejoin="round" stroke-linecap="round" stroke="rgb(0,0,255)" stroke-width="1.874998" fill="none" d="M 0.000000 750.000000 L 750.000000 325.000000 " />
<path stroke-linejoin="round" stroke-linecap="round" stroke="rgb(255,0,0)" stroke-width="3.749996" fill="none" d="M 94.253006 696.589966 L 94.562416 697.827637 " />
<path stroke-linejoin="round" stroke-linecap="round" stroke="rgb(0,0,255)" stroke-width="1.874998" fill="none" d="M 0.000000 750.000000 L 750.000000 294.642853 " />
<path stroke-linejoin="round" stroke-linecap="round" stroke="rgb(255,0,0)" stroke-width="3.749996" fill="none" d="M 93.424957 693.277710 L 94.253029 696.589966 " />
<path stroke-linejoin="round" stroke-linecap="round" stroke="rgb(0,0,255)" stroke-width="1.874998" fill="none" d="M 0.000000 750.000000 L 750.000000 249.999985 " />
<path stroke-linejoin="round" stroke-linecap="round" stroke="rgb(255,0,0)" stroke-width="3.749996" fill="none" d="M 92.233299 688.511108 L 93.424957 693.277710 " />
<path stroke-linejoin="round" stroke-linecap="round" stroke="rgb(0,0,255)" stroke-width="1.874998" fill="none" d="M 0.000000 750.000000 L 750.000000 241.071442 " />
<path stroke-linejoin="round" stroke-linecap="round" stroke="rgb(255,0,0)" stroke-width="3.749996" fill="none" d="M 91.998627 687.572388 L 92.233299 688.511108 " />
<path stroke-linejoin="round" stroke-linecap="round" stroke="rgb(0,0,255)" stroke-width="1.874998" fill="none" d="M 0.000000 750.000000 L 750.000000 194.444458 " />
<path stroke-linejoin="round" stroke-linecap="round" stroke="rgb(255,0,0)" stroke-width="3.749996" fill="none" d="M 90.792152 682.746582 L 91.998627 687.572388 " />
<path stroke-linejoin="round" stroke-linecap="round" stroke="rgb(0,0,255)" stroke-width="1.874998" fill="none" d="M 0.000000 750.000000 L 750.000000 144.230789 " />
<path stroke-linejoin="round" stroke-linecap="round" stroke="rgb(255,0,0)" stroke-width="3.749996" fill="none" d="M 89.527779 677.689087 L 90.792152 682.746582 " />
<path stroke-linejoin="round" stroke-linecap="round" stroke="rgb(0,0,255)" stroke-width="1.874998" fill="none" d="M 0.000000 750.000000 L 750.000000 138.888901 " />
<path stroke-linejoin="round" stroke-linecap="round" stroke="rgb(255,0,0)" stroke-width="3.749996" fill="none" d="M 89.395348 677.159363 L 89.527779 677.689087 " />
<path stroke-linejoin="round" stroke-linecap="round" stroke="rgb(0,0,255)" stroke-width="1.874998" fill="none" d="M 0.000000 750.000000 L 750.000000 86.538475 " />
<path stroke-linejoin="round" stroke-linecap="round" stroke="rgb(255,0,0)" stroke-width="3.749996" fill="none" d="M 88.117897 672.049561 L 89.395348 677.159363 " />
<path stroke-linejoin="round" stroke-linecap="round" stroke="rgb(0,0,255)" stroke-width="1.874998" fill="none" d="M 0.000000 750.000000 L 750.000000 30.000015 " />
<path stroke-linejoin="round" stroke-linecap="round" stroke="rgb(255,0,0)" stroke-width="3.749996" fill="none" d="M 86.778625 666.692566 L 88.117897 672.049561 " />
<path stroke-linejoin="round" stroke-linecap="round" stroke="rgb(0,0,255)" stroke-width="1.874998" fill="none" d="M 0.000000 750.000000 L 720.000000 0.000000 " />
<path stroke-linejoin="round" stroke-linecap="round" stroke="rgb(255,0,0)" stroke-width="3.749996" fill="none" d="M 85.372971 661.069824 L 86.778625 666.692566 " />
<path stroke-linejoin="round" stroke-linecap="round" stroke="rgb(0,0,255)" stroke-width="1.874998" fill="none" d="M 0.000000 750.000000 L 663.461548 0.000000 " />
<path stroke-linejoin="round" stroke-linecap="round" stroke="rgb(255,0,0)" stroke-width="3.749996" fill="none" d="M 83.895813 655.161316 L 85.372971 661.069824 " />
<path stroke-linejoin="round" stroke-linecap="round" stroke="rgb(0,0,255)" stroke-width="1.874998" fill="none" d="M 0.000000 750.000000 L 611.111084 0.000000 " />
<path stroke-linejoin="round" stroke-linecap="round" stroke="rgb(255,0,0)" stroke-width="3.749996" fill="none" d="M 82.341606 648.944397 L 83.895813 655.161316 " />
<path stroke-linejoin="round" stroke-linecap="round" stroke="rgb(0,0,255)" stroke-width="1.874998" fill="none" d="M 0.000000 750.000000 L 568.965515 0.000000 " />
<path stroke-linejoin="round" stroke-linecap="round" stroke="rgb(255,0,0)" stroke-width="3.749996" fill="none" d="M 80.934052 643.314209 L 82.341606 648.944397 " />
<path stroke-linejoin="round" stroke-linecap="round" stroke="rgb(0,0,255)" stroke-width="1.874998" fill="none" d="M 0.000000 750.000000 L 525.000000 0.000000 " />
<path stroke-linejoin="round" stroke-linecap="round" stroke="rgb(255,0,0)" stroke-width="3.749996" fill="none" d="M 79.288269 636.731018 L 80.934052 643.314209 " />
<path stroke-linejoin="round" stroke-linecap="round" stroke="rgb(0,0,255)" stroke-width="1.874998" fill="none" d="M 0.000000 750.000000 L 483.871002 0.000000 " />
<path stroke-linejoin="round" stroke-linecap="round" stroke="rgb(255,0,0)" stroke-width="3.749996" fill="none" d="M 77.553505 629.792053 L 79.288269 636.731018 " />
<path stroke-linejoin="round" stroke-linecap="round" stroke="rgb(0,0,255)" stroke-width="1.874998" fill="none" d="M 0.000000 750.000000 L 445.312500 0.000000 " />
<path stroke-linejoin="round" stroke-linecap="round" stroke="rgb(255,0,0)" stroke-width="3.749996" fill="none" d="M 75.722382 622.467590 L 77.553505 629.792053 " />
<path stroke-linejoin="round" stroke-linecap="round" stroke="rgb(0,0,255)" stroke-width="1.874998" fill="none" d="M 0.000000 750.000000 L 419.117645 0.000000 " />
<path stroke-linejoin="round" stroke-linecap="round" stroke="rgb(255,0,0)" stroke-width="3.749996" fill="none" d="M 74.345627 616.960449 L 75.722382 622.467590 " />
<path stroke-linejoin="round" stroke-linecap="round" stroke="rgb(0,0,255)" stroke-width="1.874998" fill="none" d="M 0.000000 750.000000 L 395.833344 0.000000 " />
<path stroke-linejoin="round" stroke-linecap="round" stroke="rgb(255,0,0)" stroke-width="3.749996" fill="none" d="M 73.018021 611.650024 L 74.345627 616.960449 " />
<path stroke-linejoin="round" stroke-linecap="round" stroke="rgb(0,0,255)" stroke-width="1.874998" fill="none" d="M 0.000000 750.000000 L 364.864868 0.000000 " />
<path stroke-linejoin="round" stroke-linecap="round" stroke="rgb(255,0,0)" stroke-width="3.749996" fill="none" d="M 71.078873 603.893433 L 73.018021 611.650024 " />
<path stroke-linejoin="round" stroke-linecap="round" stroke="rgb(0,0,255)" stroke-width="1.874998" fill="none" d="M 0.000000 750.000000 L 335.526306 0.000000 " />
<path stroke-linejoin="round" stroke-linecap="round" stroke="rgb(255,0,0)" stroke-width="3.749996" fill="none" d="M 69.029961 595.697754 L 71.078873 603.893433 " />
<path stroke-linejoin="round" stroke-linecap="round" stroke="rgb(0,0,255)" stroke-width="1.874998" fill="none" d="M 0.000000 750.000000 L 307.692322 0.000000 " />
<path stroke-linejoin="round" stroke-linecap="round" stroke="rgb(255,0,0)" stroke-width="3.749996" fill="none" d="M 66.861679 587.024658 L 69.029961 595.697754 " />
<path stroke-linejoin="round" stroke-linecap="round" stroke="rgb(0,0,255)" stroke-width="1.874998" fill="none" d="M 0.000000 750.000000 L 292.682922 0.000000 " />
<path stroke-linejoin="round" stroke-linecap="round" stroke="rgb(255,0,0)" stroke-width="3.749996" fill="none" d="M 65.588127 581.930420 L 66.861679 587.024658 " />
<path stroke-linejoin="round" stroke-linecap="round" stroke="rgb(0,0,255)" stroke-width="1.874998" fill="none" d="M 0.000000 750.000000 L 279.069763 0.000000 " />
<path stroke-linejoin="round" stroke-linecap="round" stroke="rgb(255,0,0)" stroke-width="3.749996" fill="none" d="M 64.362175 577.026672 L 65.588127 581.930420 " />
<path stroke-linejoin="round" stroke-linecap="round" stroke="rgb(0,0,255)" stroke-width="1.874998" fill="none" d="M 0.000000 750.000000 L 255.681824 0.000000 " />
<path stroke-linejoin="round" stroke-linecap="round" stroke="rgb(255,0,0)" stroke-width="3.749996" fill="none" d="M 62.080109 567.898376 L 64.362175 577.026672 " />
<path stroke-linejoin="round" stroke-linecap="round" stroke="rgb(0,0,255)" stroke-width="1.874998" fill="none" d="M 0.000000 750.000000 L 233.333344 0.000000 " />
<path stroke-linejoin="round" stroke-linecap="round" stroke="rgb(255,0,0)" stroke-width="3.749996" fill="none" d="M 59.662453 558.227783 L 62.080109 567.898376 " />
<path stroke-linejoin="round" stroke-linecap="round" stroke="rgb(0,0,255)" stroke-width="1.874998" fill="none" d="M 0.000000 750.000000 L 223.404251 0.000000 " />
<path stroke-linejoin="round" stroke-linecap="round" stroke="rgb(255,0,0)" stroke-width="3.749996" fill="none" d="M 58.503963 553.593811 L 59.662453 558.227783 " />
<path stroke-linejoin="round" stroke-linecap="round" stroke="rgb(0,0,255)" stroke-width="1.874998" fill="none" d="M 0.000000 750.000000 L 214.285721 0.000000 " />
<path stroke-linejoin="round" stroke-linecap="round" stroke="rgb(255,0,0)" stroke-width="3.749996" fill="none" d="M 57.389618 549.136353 L 58.503963 553.593811 " />
<path stroke-linejoin="round" stroke-linecap="round" stroke="rgb(0,0,255)" stroke-width="1.874998" fill="none" d="M 0.000000 750.000000 L 205.882370 0.000000 " />
<path stroke-linejoin="round" stroke-linecap="round" stroke="rgb(255,0,0)" stroke-width="3.749996" fill="none" d="M 56.316914 544.845520 L 57.389618 549.136353 " />
<path stroke-linejoin="round" stroke-linecap="round" stroke="rgb(0,0,255)" stroke-width="1.874998" fill="none" d="M 0.000000 750.000000 L 198.113205 0.000000 " />
<path stroke-linejoin="round" stroke-linecap="round" stroke="rgb(255,0,0)" stroke-width="3.749996" fill="none" d="M 55.283569 540.712219 L 56.316914 544.845520 " />
<path stroke-linejoin="round" stroke-linecap="round" stroke="rgb(0,0,255)" stroke-width="1.874998" fill="none" d="M 0.000000 750.000000 L 180.555542 0.000000 " />
<path stroke-linejoin="round" stroke-linecap="round" stroke="rgb(255,0,0)" stroke-width="3.749996" fill="none" d="M 52.787617 530.728333 L 55.283569 540.712219 " />
<path stroke-linejoin="round" stroke-linecap="round" stroke="rgb(0,0,255)" stroke-width="1.874998" fill="none" d="M 0.000000 750.000000 L 174.107147 0.000000 " />
<path stroke-linejoin="round" stroke-linecap="round" stroke="rgb(255,0,0)" stroke-width="3.749996" fill="none" d="M 51.810062 526.818176 L 52.787617 530.728333 " />
<path stroke-linejoin="round" stroke-linecap="round" stroke="rgb(0,0,255)" stroke-width="1.874998" fill="none" d="M 0.000000 750.000000 L 168.103455 0.000000 " />
<path stroke-linejoin="round" stroke-linecap="round" stroke="rgb(255,0,0)" stroke-width="3.749996" fill="none" d="M 50.868073 523.050171 L 51.810062 526.818176 " />
<path stroke-linejoin="round" stroke-linecap="round" stroke="rgb(0,0,255)" stroke-width="1.874998" fill="none" d="M 0.000000 750.000000 L 157.894745 0.000000 " />
<path stroke-linejoin="round" stroke-linecap="round" stroke="rgb(255,0,0)" stroke-width="3.749996" fill="none" d="M 49.191086 516.342285 L 50.868073 523.050171 " />
<path stroke-linejoin="round" stroke-linecap="round" stroke="rgb(0,0,255)" stroke-width="1.874998" fill="none" d="M 0.000000 750.000000 L 152.542374 0.000000 " />
<path stroke-linejoin="round" stroke-linecap="round" stroke="rgb(255,0,0)" stroke-width="3.749996" fill="none" d="M 48.271648 512.664429 L 49.191086 516.342285 " />
<path stroke-linejoin="round" stroke-linecap="round" stroke="rgb(0,0,255)" stroke-width="1.874998" fill="none" d="M 0.000000 750.000000 L 147.540985 0.000000 " />
<path stroke-linejoin="round" stroke-linecap="round" stroke="rgb(255,0,0)" stroke-width="3.749996" fill="none" d="M 47.385918 509.121552 L 48.271648 512.664429 " />
<path stroke-linejoin="round" stroke-linecap="round" stroke="rgb(0,0,255)" stroke-width="1.874998" fill="none" d="M 0.000000 750.000000 L 137.500000 0.000000 " />
<path stroke-linejoin="round" stroke-linecap="round" stroke="rgb(255,0,0)" stroke-width="3.749996" fill="none" d="M 45.525402 501.679565 L 47.385918 509.121613 " />
<path stroke-linejoin="round" stroke-linecap="round" stroke="rgb(0,0,255)" stroke-width="1.874998" fill="none" d="M 0.000000 750.000000 L 133.064529 0.000000 " />
<path stroke-linejoin="round" stroke-linecap="round" stroke="rgb(255,0,0)" stroke-width="3.749996" fill="none" d="M 44.666447 498.243713 L 45.525402 501.679565 " />
<path stroke-linejoin="round" stroke-linecap="round" stroke="rgb(0,0,255)" stroke-width="1.874998" fill="none" d="M 0.000000 750.000000 L 128.906250 0.000000 " />
<path stroke-linejoin="round" stroke-linecap="round" stroke="rgb(255,0,0)" stroke-width="3.749996" fill="none" d="M 43.839275 494.935059 L 44.666447 498.243713 " />
<path stroke-linejoin="round" stroke-linecap="round" stroke="rgb(0,0,255)" stroke-width="1.874998" fill="none" d="M 0.000000 750.000000 L 125.000015 0.000000 " />
<path stroke-linejoin="round" stroke-linecap="round" stroke="rgb(255,0,0)" stroke-width="3.749996" fill="none" d="M 43.042213 491.746735 L 43.839275 494.935059 " />
<path stroke-linejoin="round" stroke-linecap="round" stroke="rgb(0,0,255)" stroke-width="1.874998" fill="none" d="M 0.000000 750.000000 L 98.684212 0.000000 " />
<path stroke-linejoin="round" stroke-linecap="round" stroke="rgb(255,0,0)" stroke-width="3.749996" fill="none" d="M 39.225788 451.883942 L 43.042213 491.746735 " />
<path stroke-linejoin="round" stroke-linecap="round" stroke="rgb(0,0,255)" stroke-width="1.874998" fill="none" d="M 0.000000 750.000000 L 78.488365 0.000000 " />
<path stroke-linejoin="round" stroke-linecap="round" stroke="rgb(255,0,0)" stroke-width="3.749996" fill="none" d="M 35.414478 411.595032 L 39.225788 451.884003 " />
<path stroke-linejoin="round" stroke-linecap="round" stroke="rgb(0,0,255)" stroke-width="1.874998" fill="none" d="M 0.000000 750.000000 L 62.500008 0.000000 " />
<path stroke-linejoin="round" stroke-linecap="round" stroke="rgb(255,0,0)" stroke-width="3.749996" fill="none" d="M 31.608782 370.694733 L 35.414478 411.595032 " />
<path stroke-linejoin="round" stroke-linecap="round" stroke="rgb(0,0,255)" stroke-width="1.874998" fill="none" d="M 0.000000 750.000000 L 51.470585 0.000000 " />
<path stroke-linejoin="round" stroke-linecap="round" stroke="rgb(255,0,0)" stroke-width="3.749996" fill="none" d="M 28.394825 336.246735 L 31.608782 370.694733 " />
<path stroke-linejoin="round" stroke-linecap="round" stroke="rgb(0,0,255)" stroke-width="1.874998" fill="none" d="M 0.000000 750.000000 L 49.528309 0.000000 " />
<path stroke-linejoin="round" stroke-linecap="round" stroke="rgb(255,0,0)" stroke-width="3.749996" fill="none" d="M 27.749487 329.793335 L 28.394825 336.246735 " />
<path stroke-linejoin="round" stroke-linecap="round" stroke="rgb(0,0,255)" stroke-width="1.874998" fill="none" d="M 0.000000 750.000000 L 48.165142 0.000000 " />
<path stroke-linejoin="round" stroke-linecap="round" stroke="rgb(255,0,0)" stroke-width="3.749996" fill="none" d="M 27.284414 325.142548 L 27.749508 329.793304 " />
<path stroke-linejoin="round" stroke-linecap="round" stroke="rgb(0,0,255)" stroke-width="1.874998" fill="none" d="M 0.000000 750.000000 L 47.297291 0.000000 " />
<path stroke-linejoin="round" stroke-linecap="round" stroke="rgb(255,0,0)" stroke-width="3.749996" fill="none" d="M 26.982933 322.127747 L 27.284414 325.142548 " />
<path stroke-linejoin="round" stroke-linecap="round" stroke="rgb(0,0,255)" stroke-width="1.874998" fill="none" d="M 0.000000 750.000000 L 45.652180 0.000000 " />
<path stroke-linejoin="round" stroke-linecap="round" stroke="rgb(255,0,0)" stroke-width="3.749996" fill="none" d="M 26.399530 316.293549 L 26.982933 322.127747 " />
<path stroke-linejoin="round" stroke-linecap="round" stroke="rgb(0,0,255)" stroke-width="1.874998" fill="none" d="M 0.000000 750.000000 L 36.000008 0.000000 " />
<path stroke-linejoin="round" stroke-linecap="round" stroke="rgb(255,0,0)" stroke-width="3.749996" fill="none" d="M 22.793188 275.141907 L 26.399530 316.293518 " />
<path stroke-linejoin="round" stroke-linecap="round" stroke="rgb(0,0,255)" stroke-width="1.874998" fill="none" d="M 0.000000 750.000000 L 27.777784 0.000000 " />
<path stroke-linejoin="round" stroke-linecap="round" stroke="rgb(255,0,0)" stroke-width="3.749996" fill="none" d="M 19.160360 232.670349 L 22.793188 275.141998 " />
<path stroke-linejoin="round" stroke-linecap="round" stroke="rgb(0,0,255)" stroke-width="1.874998" fill="none" d="M 0.000000 750.000000 L 20.689667 0.000000 " />
<path stroke-linejoin="round" stroke-linecap="round" stroke="rgb(255,0,0)" stroke-width="3.749996" fill="none" d="M 15.483811 188.712204 L 19.160360 232.670349 " />
<path stroke-linejoin="round" stroke-linecap="round" stroke="rgb(0,0,255)" stroke-width="1.874998" fill="none" d="M 0.000000 750.000000 L 20.134226 0.000000 " />
<path stroke-linejoin="round" stroke-linecap="round" stroke="rgb(255,0,0)" stroke-width="3.749996" fill="none" d="M 15.156090 185.435211 L 15.483811 188.712204 " />
<path stroke-linejoin="round" stroke-linecap="round" stroke="rgb(0,0,255)" stroke-width="1.874998" fill="none" d="M 0.000000 750.000000 L 20.000004 0.000000 " />
<path stroke-linejoin="round" stroke-linecap="round" stroke="rgb(255,0,0)" stroke-width="3.749996" fill="none" d="M 15.076340 184.637497 L 15.156090 185.435211 " />
<path stroke-linejoin="round" stroke-linecap="round" stroke="rgb(0,0,255)" stroke-width="1.874998" fill="none" d="M 0.000000 750.000000 L 18.987335 0.000000 " />
<path stroke-linejoin="round" stroke-linecap="round" stroke="rgb(255,0,0)" stroke-width="3.749996" fill="none" d="M 14.467187 178.546112 L 15.076340 184.637497 " />
<path stroke-linejoin="round" stroke-linecap="round" stroke="rgb(0,0,255)" stroke-width="1.874998" fill="none" d="M 0.000000 750.000000 L 15.000008 0.000000 " />
<path stroke-linejoin="round" stroke-linecap="round" stroke="rgb(255,0,0)" stroke-width="3.749996" fill="none" d="M 12.019873 149.005890 L 14.467187 178.546112 " />
<path stroke-linejoin="round" stroke-linecap="round" stroke="rgb(0,0,255)" stroke-width="1.874998" fill="none" d="M 0.000000 750.000000 L 13.235293 0.000000 " />
<path stroke-linejoin="round" stroke-linecap="round" stroke="rgb(255,0,0)" stroke-width="3.749996" fill="none" d="M 10.845288 135.433990 L 12.019873 149.005890 " />
<path stroke-linejoin="round" stroke-linecap="round" stroke="rgb(0,0,255)" stroke-width="1.874998" fill="none" d="M 0.000000 750.000000 L 8.620687 0.000000 " />
<path stroke-linejoin="round" stroke-linecap="round" stroke="rgb(255,0,0)" stroke-width="3.749996" fill="none" d="M 7.541835 93.860466 L 10.845288 135.434036 " />
<path stroke-linejoin="round" stroke-linecap="round" stroke="rgb(0,0,255)" stroke-width="1.874998" fill="none" d="M 0.000000 750.000000 L 4.076086 0.000000 " />
<path stroke-linejoin="round" stroke-linecap="round" stroke="rgb(255,0,0)" stroke-width="3.749996" fill="none" d="M 3.823064 46.557739 L 7.541835 93.860466 " />
<path stroke-linejoin="round" stroke-linecap="round" stroke="rgb(0,0,255)" stroke-width="1.874998" fill="none" d="M 0.000000 750.000000 L 0.000000 0.000000 " />
<path stroke-linejoin="round" stroke-linecap="round" stroke="rgb(255,0,0)" stroke-width="3.749996" fill="none" d="M 0.000000 0.000000 L 3.823064 46.557785 " />
<circle cx="106.937215" cy="747.326598" r="3.749996" style="fill:rgb(0,127,0);stroke-width:1" /><circle cx="106.243461" cy="744.551606" r="3.749996" style="fill:rgb(0,127,0);stroke-width:1" /><circle cx="105.522864" cy="741.669238" r="3.749996" style="fill:rgb(0,127,0);stroke-width:1" /><circle cx="104.773812" cy="738.673098" r="3.749996" style="fill:rgb(0,127,0);stroke-width:1" /><circle cx="103.994608" cy="735.556304" r="3.749996" style="fill:rgb(0,127,0);stroke-width:1" /><circle cx="103.183374" cy="732.311413" r="3.749996" style="fill:rgb(0,127,0);stroke-width:1" /><circle cx="102.617182" cy="730.046667" r="3.749996" style="fill:rgb(0,127,0);stroke-width:1" /><circle cx="101.789005" cy="726.733938" r="3.749996" style="fill:rgb(0,127,0);stroke-width:1" /><circle cx="100.926563" cy="723.284148" r="3.749996" style="fill:rgb(0,127,0);stroke-width:1" /><circle cx="100.027665" cy="719.688579" r="3.749996" style="fill:rgb(0,127,0);stroke-width:1" /><circle cx="99.553406" cy="717.791542" r="3.749996" style="fill:rgb(0,127,0);stroke-width:1" /><circle cx="98.638393" cy="714.131489" r="3.749996" style="fill:rgb(0,127,0);stroke-width:1" /><circle cx="97.684443" cy="710.315689" r="3.749996" style="fill:rgb(0,127,0);stroke-width:1" /><circle cx="96.689008" cy="706.333995" r="3.749996" style="fill:rgb(0,127,0);stroke-width:1" /><circle cx="96.318237" cy="704.850823" r="3.749996" style="fill:rgb(0,127,0);stroke-width:1" /><circle cx="95.649339" cy="702.175319" r="3.749996" style="fill:rgb(0,127,0);stroke-width:1" /><circle cx="95.307738" cy="700.808913" r="3.749996" style="fill:rgb(0,127,0);stroke-width:1" /><circle cx="94.562419" cy="697.827637" r="3.749996" style="fill:rgb(0,127,0);stroke-width:1" /><circle cx="94.253004" cy="696.589954" r="3.749996" style="fill:rgb(0,127,0);stroke-width:1" /><circle cx="93.424961" cy="693.277694" r="3.749996" style="fill:rgb(0,127,0);stroke-width:1" /><circle cx="92.233300" cy="688.511118" r="3.749996" style="fill:rgb(0,127,0);stroke-width:1" /><circle cx="91.998629" cy="687.572367" r="3.749996" style="fill:rgb(0,127,0);stroke-width:1" /><circle cx="90.792149" cy="682.746559" r="3.749996" style="fill:rgb(0,127,0);stroke-width:1" /><circle cx="89.527778" cy="677.689098" r="3.749996" style="fill:rgb(0,127,0);stroke-width:1" /><circle cx="89.395344" cy="677.159362" r="3.749996" style="fill:rgb(0,127,0);stroke-width:1" /><circle cx="88.117898" cy="672.049552" r="3.749996" style="fill:rgb(0,127,0);stroke-width:1" /><circle cx="86.778626" cy="666.692533" r="3.749996" style="fill:rgb(0,127,0);stroke-width:1" /><circle cx="85.372970" cy="661.069840" r="3.749996" style="fill:rgb(0,127,0);stroke-width:1" /><circle cx="83.895810" cy="655.161269" r="3.749996" style="fill:rgb(0,127,0);stroke-width:1" /><circle cx="82.341604" cy="648.944400" r="3.749996" style="fill:rgb(0,127,0);stroke-width:1" /><circle cx="80.934048" cy="643.314198" r="3.749996" style="fill:rgb(0,127,0);stroke-width:1" /><circle cx="79.288267" cy="636.731051" r="3.749996" style="fill:rgb(0,127,0);stroke-width:1" /><circle cx="77.553503" cy="629.792064" r="3.749996" style="fill:rgb(0,127,0);stroke-width:1" /><circle cx="75.722381" cy="622.467555" r="3.749996" style="fill:rgb(0,127,0);stroke-width:1" /><circle cx="74.345626" cy="616.960466" r="3.749996" style="fill:rgb(0,127,0);stroke-width:1" /><circle cx="73.018022" cy="611.650050" r="3.749996" style="fill:rgb(0,127,0);stroke-width:1" /><circle cx="71.078874" cy="603.893414" r="3.749996" style="fill:rgb(0,127,0);stroke-width:1" /><circle cx="69.029957" cy="595.697746" r="3.749996" style="fill:rgb(0,127,0);stroke-width:1" /><circle cx="66.861682" cy="587.024644" r="3.749996" style="fill:rgb(0,127,0);stroke-width:1" /><circle cx="65.588124" cy="581.930414" r="3.749996" style="fill:rgb(0,127,0);stroke-width:1" /><circle cx="64.362176" cy="577.026643" r="3.749996" style="fill:rgb(0,127,0);stroke-width:1" /><circle cx="62.080108" cy="567.898348" r="3.749996" style="fill:rgb(0,127,0);stroke-width:1" /><circle cx="59.662454" cy="558.227800" r="3.749996" style="fill:rgb(0,127,0);stroke-width:1" /><circle cx="58.503963" cy="553.593826" r="3.749996" style="fill:rgb(0,127,0);stroke-width:1" /><circle cx="57.389617" cy="549.136363" r="3.749996" style="fill:rgb(0,127,0);stroke-width:1" /><circle cx="56.316912" cy="544.845533" r="3.749996" style="fill:rgb(0,127,0);stroke-width:1" /><circle cx="55.283569" cy="540.712181" r="3.749996" style="fill:rgb(0,127,0);stroke-width:1" /><circle cx="52.787617" cy="530.728363" r="3.749996" style="fill:rgb(0,127,0);stroke-width:1" /><circle cx="51.810063" cy="526.818160" r="3.749996" style="fill:rgb(0,127,0);stroke-width:1" /><circle cx="50.868072" cy="523.050170" r="3.749996" style="fill:rgb(0,127,0);stroke-width:1" /><circle cx="49.191087" cy="516.342301" r="3.749996" style="fill:rgb(0,127,0);stroke-width:1" /><circle cx="48.271649" cy="512.664434" r="3.749996" style="fill:rgb(0,127,0);stroke-width:1" /><circle cx="47.385916" cy="509.121560" r="3.749996" style="fill:rgb(0,127,0);stroke-width:1" /><circle cx="45.525402" cy="501.679581" r="3.749996" style="fill:rgb(0,127,0);stroke-width:1" /><circle cx="44.666447" cy="498.243693" r="3.749996" style="fill:rgb(0,127,0);stroke-width:1" /><circle cx="43.839276" cy="494.935054" r="3.749996" style="fill:rgb(0,127,0);stroke-width:1" /><circle cx="43.042213" cy="491.746746" r="3.749996" style="fill:rgb(0,127,0);stroke-width:1" /><circle cx="39.225787" cy="451.883962" r="3.749996" style="fill:rgb(0,127,0);stroke-width:1" /><circle cx="35.414480" cy="411.595012" r="3.749996" style="fill:rgb(0,127,0);stroke-width:1" /><circle cx="31.608783" cy="370.694723" r="3.749996" style="fill:rgb(0,127,0);stroke-width:1" /><circle cx="28.394826" cy="336.246729" r="3.749996" style="fill:rgb(0,127,0);stroke-width:1" /><circle cx="27.749486" cy="329.793334" r="3.749996" style="fill:rgb(0,127,0);stroke-width:1" /><circle cx="27.284414" cy="325.142562" r="3.749996" style="fill:rgb(0,127,0);stroke-width:1" /><circle cx="26.982933" cy="322.127732" r="3.749996" style="fill:rgb(0,127,0);stroke-width:1" /><circle cx="26.399530" cy="316.293547" r="3.749996" style="fill:rgb(0,127,0);stroke-width:1" /><circle cx="22.793189" cy="275.141917" r="3.749996" style="fill:rgb(0,127,0);stroke-width:1" /><circle cx="19.160360" cy="232.670344" r="3.749996" style="fill:rgb(0,127,0);stroke-width:1" /><circle cx="15.483811" cy="188.712202" r="3.749996" style="fill:rgb(0,127,0);stroke-width:1" /><circle cx="15.156090" cy="185.435213" r="3.749996" style="fill:rgb(0,127,0);stroke-width:1" /><circle cx="15.076339" cy="184.637502" r="3.749996" style="fill:rgb(0,127,0);stroke-width:1" /><circle cx="14.467187" cy="178.546116" r="3.749996" style="fill:rgb(0,127,0);stroke-width:1" /><circle cx="12.019873" cy="149.005897" r="3.749996" style="fill:rgb(0,127,0);stroke-width:1" /><circle cx="10.845289" cy="135.433987" r="3.749996" style="fill:rgb(0,127,0);stroke-width:1" /><circle cx="7.541835" cy="93.860462" r="3.749996" style="fill:rgb(0,127,0);stroke-width:1" /><circle cx="3.823064" cy="46.557739" r="3.749996" style="fill:rgb(0,127,0);stroke-width:1" /><circle cx="750.000000" cy="750.000000" r="3.749996" style="fill:rgb(0,127,0);stroke-width:1" /><path stroke-linejoin="round" stroke-linecap="round" stroke="rgb(255,255,255)" stroke-width="3.749996" fill="none" d="M 0.000000 750.000000 L 750.000000 750.000000 M 0.000000 750.000000 L 0.000000 0.000000 " />

</svg>