<svg xmlns="http://www.w3.org/2000/svg" version="1.1" width = "750" height = "750" viewBox = "0 0 750 750"  shape-rendering="crispEdges">
<path stroke-linejoin="round" stroke-linecap="round" stroke="rgb(255,255,0)" stroke-width="3.749996" fill="none" d="M 249.999985 750.000000 L 0.000000 0.000000 " />
<path stroke-linejoin="round" stroke-linecap="round" stroke="rgb(63,63,63)" stroke-width="3.749996" fill="none" d="M 0.000000 0.000000 L 750.000000 750.000000 M 249.999985 750.000000 L 99.999992 0.000000 " />
<path stroke-linejoin="round" stroke-linecap="round" stroke="rgb(191,191,191)" stroke-width="3.749996" fill="none" d="M 0.000000 500.000000 L 249.999985 750.000000 M 0.000000 0.000000 L 150.000015 750.000000 " />
<path stroke-linejoin="round" stroke-linecap="round" stroke="rgb(0,0,255)" stroke-width="1.874998" fill="none" d="M 0.000000 750.000000 L 750.000000 522.727295 " />
<path stroke-linejoin="round" stroke-linecap="round" stroke="rgb(255,0,0)" stroke-width="3.749996" fill="none" d="M 235.714279 678.571411 L 249.999985 750.000000 " />
<path stroke-linejoin="round" stroke-linecap="round" stroke="rgb(0,0,255)" stroke-width="1.874998" fill="none" d="M 0.000000 750.000000 L 750.000000 281.250000 " />
<path stroke-linejoin="round" stroke-linecap="round" stroke="rgb(255,0,0)" stroke-width="3.749996" fill="none" d="M 222.222183 611.111084 L 235.714233 678.571411 " />
<path stroke-linejoin="round" stroke-linecap="round" stroke="rgb(0,0,255)" stroke-width="1.874998" fill="none" d="M 0.000000 750.000000 L 750.000000 24.193569 " />
<path stroke-linejoin="round" stroke-linecap="round" stroke="rgb(255,0,0)" stroke-width="3.749996" fill="none" d="M 209.459473 547.297302 L 222.222183 611.111084 " />
<path stroke-linejoin="round" stroke-linecap="round" stroke="rgb(0,0,255)" stroke-width="1.874998" fill="none" d="M 0.000000 750.000000 L 600.000000 0.000000 " />
<path stroke-linejoin="round" stroke-linecap="round" stroke="rgb(255,0,0)" stroke-width="3.749996" fill="none" d="M 199.999985 500.000000 L 209.459473 547.297302 " />
<path stroke-linejoin="round" stroke-linecap="round" stroke="rgb(0,0,255)" stroke-width="1.874998" fill="none" d="M 0.000000 750.000000 L 465.000000 0.000000 " />
<path stroke-linejoin="round" stroke-linecap="round" stroke="rgb(255,0,0)" stroke-width="3.749996" fill="none" d="M 189.024384 445.121918 L 199.999985 500.000000 " />
<path stroke-linejoin="round" stroke-linecap="round" stroke="rgb(0,0,255)" stroke-width="1.874998" fill="none" d="M 0.000000 750.000000 L 400.000031 0.000000 " />
<path stroke-linejoin="round" stroke-linecap="round" stroke="rgb(255,0,0)" stroke-width="3.749996" fill="none" d="M 181.818192 409.090912 L 189.024384 445.121918 " />
<path stroke-linejoin="round" stroke-linecap="round" stroke="rgb(0,0,255)" stroke-width="1.874998" fill="none" d="M 0.000000 750.000000 L 375.000000 0.000000 " />
<path stroke-linejoin="round" stroke-linecap="round" stroke="rgb(255,0,0)" stroke-width="3.749996" fill="none" d="M 178.571442 392.857117 L 181.818192 409.090912 " />
<path stroke-linejoin="round" stroke-linecap="round" stroke="rgb(0,0,255)" stroke-width="1.874998" fill="none" d="M 0.000000 750.000000 L 310.714294 0.000000 " />
<path stroke-linejoin="round" stroke-linecap="round" stroke="rgb(255,0,0)" stroke-width="3.749996" fill="none" d="M 168.604645 343.023254 L 178.571442 392.857117 " />
<path stroke-linejoin="round" stroke-linecap="round" stroke="rgb(0,0,255)" stroke-width="1.874998" fill="none" d="M 0.000000 750.000000 L 262.500000 0.000000 " />
<path stroke-linejoin="round" stroke-linecap="round" stroke="rgb(255,0,0)" stroke-width="3.749996" fill="none" d="M 159.090912 295.454529 L 168.604645 343.023254 " />
<path stroke-linejoin="round" stroke-linecap="round" stroke="rgb(0,0,255)" stroke-width="1.874998" fill="none" d="M 0.000000 750.000000 L 225.000015 0.000000 " />
<path stroke-linejoin="round" stroke-linecap="round" stroke="rgb(255,0,0)" stroke-width="3.749996" fill="none" d="M 150.000015 249.999985 L 159.090912 295.454529 " />
<path stroke-linejoin="round" stroke-linecap="round" stroke="rgb(0,0,255)" stroke-width="1.874998" fill="none" d="M 0.000000 750.000000 L 195.000015 0.000000 " />
<path stroke-linejoin="round" stroke-linecap="round" stroke="rgb(255,0,0)" stroke-width="3.749996" fill="none" d="M 141.304352 206.521683 L 150.000015 249.999985 " />
<path stroke-linejoin="round" stroke-linecap="round" stroke="rgb(0,0,255)" stroke-width="1.874998" fill="none" d="M 0.000000 750.000000 L 170.454544 0.000000 " />
<path stroke-linejoin="round" stroke-linecap="round" stroke="rgb(255,0,0)" stroke-width="3.749996" fill="none" d="M 132.978745 164.893555 L 141.304352 206.521683 " />
<path stroke-linejoin="round" stroke-linecap="round" stroke="rgb(0,0,255)" stroke-width="1.874998" fill="none" d="M 0.000000 750.000000 L 162.500000 0.000000 " />
<path stroke-linejoin="round" stroke-linecap="round" stroke="rgb(255,0,0)" stroke-width="3.749996" fill="none" d="M 130.000015 149.999969 L 132.978745 164.893555 " />
<path stroke-linejoin="round" stroke-linecap="round" stroke="rgb(0,0,255)" stroke-width="1.874998" fill="none" d="M 0.000000 750.000000 L 149.999985 0.000000 " />
<path stroke-linejoin="round" stroke-linecap="round" stroke="rgb(255,0,0)" stroke-width="3.749996" fill="none" d="M 125.000015 124.999947 L 130.000015 149.999969 " />
<path stroke-linejoin="round" stroke-linecap="round" stroke="rgb(0,0,255)" stroke-width="1.874998" fill="none" d="M 0.000000 750.000000 L 144.230789 0.000000 " />
<path stroke-linejoin="round" stroke-linecap="round" stroke="rgb(255,0,0)" stroke-width="3.749996" fill="none" d="M 120.967735 120.967735 L 125.000015 124.999947 " />
<path stroke-linejoin="round" stroke-linecap="round" stroke="rgb(0,0,255)" stroke-width="1.874998" fill="none" d="M 0.000000 750.000000 L 139.285721 0.000000 " />
<path stroke-linejoin="round" stroke-linecap="round" stroke="rgb(255,0,0)" stroke-width="3.749996" fill="none" d="M 117.469872 117.469917 L 120.967735 120.967735 " />
<path stroke-linejoin="round" stroke-linecap="round" stroke="rgb(0,0,255)" stroke-width="1.874998" fill="none" d="M 0.000000 750.000000 L 128.571426 0.000000 " />
<path stroke-linejoin="round" stroke-linecap="round" stroke="rgb(255,0,0)" stroke-width="3.749996" fill="none" d="M 109.756081 109.756104 L 117.469872 117.469917 " />
<path stroke-linejoin="round" stroke-linecap="round" stroke="rgb(0,0,255)" stroke-width="1.874998" fill="none" d="M 0.000000 750.000000 L 115.000000 0.000000 " />
<path stroke-linejoin="round" stroke-linecap="round" stroke="rgb(255,0,0)" stroke-width="3.749996" fill="none" d="M 99.710983 99.711006 L 109.756081 109.756104 " />
<path stroke-linejoin="round" stroke-linecap="round" stroke="rgb(0,0,255)" stroke-width="1.874998" fill="none" d="M 0.000000 750.000000 L 112.500008 0.000000 " />
<path stroke-linejoin="round" stroke-linecap="round" stroke="rgb(255,0,0)" stroke-width="3.749996" fill="none" d="M 97.826088 97.826134 L 99.710983 99.711006 " />
<path stroke-linejoin="round" stroke-linecap="round" stroke="rgb(0,0,255)" stroke-width="1.874998" fill="none" d="M 0.000000 750.000000 L 101.470581 0.000000 " />
<path stroke-linejoin="round" stroke-linecap="round" stroke="rgb(255,0,0)" stroke-width="3.749996" fill="none" d="M 89.378242 89.378181 L 97.826088 97.826134 " />
<path stroke-linejoin="round" stroke-linecap="round" stroke="rgb(0,0,255)" stroke-width="1.874998" fill="none" d="M 0.000000 750.000000 L 99.999992 0.000000 " />
<path stroke-linejoin="round" stroke-linecap="round" stroke="rgb(255,0,0)" stroke-width="3.749996" fill="none" d="M 88.235291 88.235313 L 89.378242 89.378113 " />
<path stroke-linejoin="round" stroke-linecap="round" stroke="rgb(0,0,255)" stroke-width="1.874998" fill="none" d="M 0.000000 750.000000 L 91.666664 0.000000 " />
<path stroke-linejoin="round" stroke-linecap="round" stroke="rgb(255,0,0)" stroke-width="3.749996" fill="none" d="M 81.683167 81.683212 L 88.235291 88.235313 " />
<path stroke-linejoin="round" stroke-linecap="round" stroke="rgb(0,0,255)" stroke-width="1.874998" fill="none" d="M 0.000000 750.000000 L 82.894745 0.000000 " />
<path stroke-linejoin="round" stroke-linecap="round" stroke="rgb(255,0,0)" stroke-width="3.749996" fill="none" d="M 74.644562 74.644562 L 81.683167 81.683212 " />
<path stroke-linejoin="round" stroke-linecap="round" stroke="rgb(0,0,255)" stroke-width="1.874998" fill="none" d="M 0.000000 750.000000 L 82.500008 0.000000 " />
<path stroke-linejoin="round" stroke-linecap="round" stroke="rgb(255,0,0)" stroke-width="3.749996" fill="none" d="M 74.324326 74.324303 L 74.644539 74.644623 " />
<path stroke-linejoin="round" stroke-linecap="round" stroke="rgb(0,0,255)" stroke-width="1.874998" fill="none" d="M 0.000000 750.000000 L 74.999992 0.000000 " />
<path stroke-linejoin="round" stroke-linecap="round" stroke="rgb(255,0,0)" stroke-width="3.749996" fill="none" d="M 68.181824 68.181824 L 74.324326 74.324303 " />
<path stroke-linejoin="round" stroke-linecap="round" stroke="rgb(0,0,255)" stroke-width="1.874998" fill="none" d="M 0.000000 750.000000 L 71.090050 0.000000 " />
<path stroke-linejoin="round" stroke-linecap="round" stroke="rgb(255,0,0)" stroke-width="3.749996" fill="none" d="M 64.935074 64.935028 L 68.181824 68.181824 " />
<path stroke-linejoin="round" stroke-linecap="round" stroke="rgb(0,0,255)" stroke-width="1.874998" fill="none" d="M 0.000000 750.000000 L 69.512199 0.000000 " />
<path stroke-linejoin="round" stroke-linecap="round" stroke="rgb(255,0,0)" stroke-width="3.749996" fill="none" d="M 63.616074 63.616165 L 64.935074 64.935028 " />
<path stroke-linejoin="round" stroke-linecap="round" stroke="rgb(0,0,255)" stroke-width="1.874998" fill="none" d="M 0.000000 750.000000 L 65.533966 0.000000 " />
<path stroke-linejoin="round" stroke-linecap="round" stroke="rgb(255,0,0)" stroke-width="3.749996" fill="none" d="M 60.267849 60.267918 L 63.616051 63.616207 " />
<path stroke-linejoin="round" stroke-linecap="round" stroke="rgb(0,0,255)" stroke-width="1.874998" fill="none" d="M 0.000000 750.000000 L 61.594204 0.000000 " />
<path stroke-linejoin="round" stroke-linecap="round" stroke="rgb(255,0,0)" stroke-width="3.749996" fill="none" d="M 56.919628 56.919762 L 60.267849 60.267918 " />
<path stroke-linejoin="round" stroke-linecap="round" stroke="rgb(0,0,255)" stroke-width="1.874998" fill="none" d="M 0.000000 750.000000 L 57.692303 0.000000 " />
<path stroke-linejoin="round" stroke-linecap="round" stroke="rgb(255,0,0)" stroke-width="3.749996" fill="none" d="M 53.571426 53.571468 L 56.919628 56.919762 " />
<path stroke-linejoin="round" stroke-linecap="round" stroke="rgb(0,0,255)" stroke-width="1.874998" fill="none" d="M 0.000000 750.000000 L 53.827755 0.000000 " />
<path stroke-linejoin="round" stroke-linecap="round" stroke="rgb(255,0,0)" stroke-width="3.749996" fill="none" d="M 50.223202 50.223289 L 53.571426 53.571468 " />
<path stroke-linejoin="round" stroke-linecap="round" stroke="rgb(0,0,255)" stroke-width="1.874998" fill="none" d="M 0.000000 750.000000 L 49.999996 0.000000 " />
<path stroke-linejoin="round" stroke-linecap="round" stroke="rgb(255,0,0)" stroke-width="3.749996" fill="none" d="M 46.875000 46.875069 L 50.223202 50.223289 " />
<path stroke-linejoin="round" stroke-linecap="round" stroke="rgb(0,0,255)" stroke-width="1.874998" fill="none" d="M 0.000000 750.000000 L 46.208515 0.000000 " />
<path stroke-linejoin="round" stroke-linecap="round" stroke="rgb(255,0,0)" stroke-width="3.749996" fill="none" d="M 43.526775 43.526886 L 46.875000 46.875069 " />
<path stroke-linejoin="round" stroke-linecap="round" stroke="rgb(0,0,255)" stroke-width="1.874998" fill="none" d="M 0.000000 750.000000 L 42.452843 0.000000 " />
<path stroke-linejoin="round" stroke-linecap="round" stroke="rgb(255,0,0)" stroke-width="3.749996" fill="none" d="M 40.178574 40.178665 L 43.526775 43.526886 " />
<path stroke-linejoin="round" stroke-linecap="round" stroke="rgb(0,0,255)" stroke-width="1.874998" fill="none" d="M 0.000000 750.000000 L 38.732395 0.000000 " />
<path stroke-linejoin="round" stroke-linecap="round" stroke="rgb(255,0,0)" stroke-width="3.749996" fill="none" d="M 36.830349 36.830418 L 40.178574 40.178665 " />
<path stroke-linejoin="round" stroke-linecap="round" stroke="rgb(0,0,255)" stroke-width="1.874998" fill="none" d="M 0.000000 750.000000 L 35.046726 0.000000 " />
<path stroke-linejoin="round" stroke-linecap="round" stroke="rgb(255,0,0)" stroke-width="3.749996" fill="none" d="M 33.482151 33.482262 L 36.830349 36.830418 " />
<path stroke-linejoin="round" stroke-linecap="round" stroke="rgb(0,0,255)" stroke-width="1.874998" fill="none" d="M 0.000000 750.000000 L 34.722225 0.000000 " />
<path stroke-linejoin="round" stroke-linecap="round" stroke="rgb(255,0,0)" stroke-width="3.749996" fill="none" d="M 33.185833 33.185966 L 33.482151 33.482262 " />
<path stroke-linejoin="round" stroke-linecap="round" stroke="rgb(0,0,255)" stroke-width="1.874998" fill="none" d="M 0.000000 750.000000 L 34.403667 0.000000 " />
<path stroke-linejoin="round" stroke-linecap="round" stroke="rgb(255,0,0)" stroke-width="3.749996" fill="none" d="M 32.894745 32.894791 L 33.185833 33.185966 " />
<path stroke-linejoin="round" stroke-linecap="round" stroke="rgb(0,0,255)" stroke-width="1.874998" fill="none" d="M 0.000000 750.000000 L 30.821913 0.000000 " />
<path stroke-linejoin="round" stroke-linecap="round" stroke="rgb(255,0,0)" stroke-width="3.749996" fill="none" d="M 29.605263 29.605396 L 32.894745 32.894791 " />
<path stroke-linejoin="round" stroke-linecap="round" stroke="rgb(0,0,255)" stroke-width="1.874998" fill="none" d="M 0.000000 750.000000 L 27.272724 0.000000 " />
<path stroke-linejoin="round" stroke-linecap="round" stroke="rgb(255,0,0)" stroke-width="3.749996" fill="none" d="M 26.315779 26.315868 L 29.605263 29.605396 " />
<path stroke-linejoin="round" stroke-linecap="round" stroke="rgb(0,0,255)" stroke-width="1.874998" fill="none" d="M 0.000000 750.000000 L 27.027033 0.000000 " />
<path stroke-linejoin="round" stroke-linecap="round" stroke="rgb(255,0,0)" stroke-width="3.749996" fill="none" d="M 26.086941 26.087053 L 26.315779 26.315868 " />
<path stroke-linejoin="round" stroke-linecap="round" stroke="rgb(0,0,255)" stroke-width="1.874998" fill="none" d="M 0.000000 750.000000 L 23.542599 0.000000 " />
<path stroke-linejoin="round" stroke-linecap="round" stroke="rgb(255,0,0)" stroke-width="3.749996" fill="none" d="M 22.826090 22.826136 L 26.086941 26.087053 " />
<path stroke-linejoin="round" stroke-linecap="round" stroke="rgb(0,0,255)" stroke-width="1.874998" fill="none" d="M 0.000000 750.000000 L 20.089275 0.000000 " />
<path stroke-linejoin="round" stroke-linecap="round" stroke="rgb(255,0,0)" stroke-width="3.749996" fill="none" d="M 19.565218 19.565351 L 22.826090 22.826136 " />
<path stroke-linejoin="round" stroke-linecap="round" stroke="rgb(0,0,255)" stroke-width="1.874998" fill="none" d="M 0.000000 750.000000 L 19.911512 0.000000 " />
<path stroke-linejoin="round" stroke-linecap="round" stroke="rgb(255,0,0)" stroke-width="3.749996" fill="none" d="M 19.396551 19.396595 L 19.565218 19.565351 " />
<path stroke-linejoin="round" stroke-linecap="round" stroke="rgb(0,0,255)" stroke-width="1.874998" fill="none" d="M 0.000000 750.000000 L 16.519815 0.000000 " />
<path stroke-linejoin="round" stroke-linecap="round" stroke="rgb(255,0,0)" stroke-width="3.749996" fill="none" d="M 16.163795 16.163885 L 19.396551 19.396595 " />
<path stroke-linejoin="round" stroke-linecap="round" stroke="rgb(0,0,255)" stroke-width="1.874998" fill="none" d="M 0.000000 750.000000 L 13.157889 0.000000 " />
<path stroke-linejoin="round" stroke-linecap="round" stroke="rgb(255,0,0)" stroke-width="3.749996" fill="none" d="M 12.931042 12.931108 L 16.163795 16.163885 " />
<path stroke-linejoin="round" stroke-linecap="round" stroke="rgb(0,0,255)" stroke-width="1.874998" fill="none" d="M 0.000000 750.000000 L 13.043470 0.000000 " />
<path stroke-linejoin="round" stroke-linecap="round" stroke="rgb(255,0,0)" stroke-width="3.749996" fill="none" d="M 12.820512 12.820601 L 12.931042 12.931108 " />
<circle cx="235.714272" cy="678.571433" r="3.749996" style="fill:rgb(0,127,0);stroke-width:1" /><circle cx="222.222190" cy="611.111127" r="3.749996" style="fill:rgb(0,127,0);stroke-width:1" /><circle cx="209.459458" cy="547.297318" r="3.749996" style="fill:rgb(0,127,0);stroke-width:1" /><circle cx="199.999999" cy="500.000004" r="3.749996" style="fill:rgb(0,127,0);stroke-width:1" /><circle cx="189.024389" cy="445.121946" r="3.749996" style="fill:rgb(0,127,0);stroke-width:1" /><circle cx="181.818187" cy="409.090907" r="3.749996" style="fill:rgb(0,127,0);stroke-width:1" /><circle cx="178.571440" cy="392.857135" r="3.749996" style="fill:rgb(0,127,0);stroke-width:1" /><circle cx="168.604642" cy="343.023271" r="3.749996" style="fill:rgb(0,127,0);stroke-width:1" /><circle cx="159.090914" cy="295.454532" r="3.749996" style="fill:rgb(0,127,0);stroke-width:1" /><circle cx="150.000013" cy="249.999996" r="3.749996" style="fill:rgb(0,127,0);stroke-width:1" /><circle cx="141.304359" cy="206.521690" r="3.749996" style="fill:rgb(0,127,0);stroke-width:1" /><circle cx="132.978737" cy="164.893560" r="3.749996" style="fill:rgb(0,127,0);stroke-width:1" /><circle cx="130.000010" cy="149.999969" r="3.749996" style="fill:rgb(0,127,0);stroke-width:1" /><circle cx="125.000015" cy="124.999948" r="3.749996" style="fill:rgb(0,127,0);stroke-width:1" /><circle cx="120.967738" cy="120.967738" r="3.749996" style="fill:rgb(0,127,0);stroke-width:1" /><circle cx="117.469870" cy="117.469914" r="3.749996" style="fill:rgb(0,127,0);stroke-width:1" /><circle cx="109.756082" cy="109.756105" r="3.749996" style="fill:rgb(0,127,0);stroke-width:1" /><circle cx="99.710986" cy="99.711008" r="3.749996" style="fill:rgb(0,127,0);stroke-width:1" /><circle cx="97.826086" cy="97.826131" r="3.749996" style="fill:rgb(0,127,0);stroke-width:1" /><circle cx="89.378245" cy="89.378178" r="3.749996" style="fill:rgb(0,127,0);stroke-width:1" /><circle cx="88.235289" cy="88.235311" r="3.749996" style="fill:rgb(0,127,0);stroke-width:1" /><circle cx="81.683166" cy="81.683211" r="3.749996" style="fill:rgb(0,127,0);stroke-width:1" /><circle cx="74.644558" cy="74.644558" r="3.749996" style="fill:rgb(0,127,0);stroke-width:1" /><circle cx="74.324325" cy="74.324302" r="3.749996" style="fill:rgb(0,127,0);stroke-width:1" /><circle cx="68.181820" cy="68.181820" r="3.749996" style="fill:rgb(0,127,0);stroke-width:1" /><circle cx="64.935073" cy="64.935029" r="3.749996" style="fill:rgb(0,127,0);stroke-width:1" /><circle cx="63.616075" cy="63.616164" r="3.749996" style="fill:rgb(0,127,0);stroke-width:1" /><circle cx="60.267851" cy="60.267918" r="3.749996" style="fill:rgb(0,127,0);stroke-width:1" /><circle cx="56.919627" cy="56.919761" r="3.749996" style="fill:rgb(0,127,0);stroke-width:1" /><circle cx="53.571425" cy="53.571470" r="3.749996" style="fill:rgb(0,127,0);stroke-width:1" /><circle cx="50.223202" cy="50.223291" r="3.749996" style="fill:rgb(0,127,0);stroke-width:1" /><circle cx="46.875000" cy="46.875067" r="3.749996" style="fill:rgb(0,127,0);stroke-width:1" /><circle cx="43.526776" cy="43.526888" r="3.749996" style="fill:rgb(0,127,0);stroke-width:1" /><circle cx="40.178575" cy="40.178664" r="3.749996" style="fill:rgb(0,127,0);stroke-width:1" /><circle cx="36.830351" cy="36.830418" r="3.749996" style="fill:rgb(0,127,0);stroke-width:1" /><circle cx="33.482149" cy="33.482261" r="3.749996" style="fill:rgb(0,127,0);stroke-width:1" /><circle cx="33.185832" cy="33.185966" r="3.749996" style="fill:rgb(0,127,0);stroke-width:1" /><circle cx="32.894745" cy="32.894790" r="3.749996" style="fill:rgb(0,127,0);stroke-width:1" /><circle cx="29.605262" cy="29.605396" r="3.749996" style="fill:rgb(0,127,0);stroke-width:1" /><circle cx="26.315778" cy="26.315868" r="3.749996" style="fill:rgb(0,127,0);stroke-width:1" /><circle cx="26.086941" cy="26.087053" r="3.749996" style="fill:rgb(0,127,0);stroke-width:1" /><circle cx="22.826090" cy="22.826135" r="3.749996" style="fill:rgb(0,127,0);stroke-width:1" /><circle cx="19.565217" cy="19.565351" r="3.749996" style="fill:rgb(0,127,0);stroke-width:1" /><circle cx="19.396551" cy="19.396596" r="3.749996" style="fill:rgb(0,127,0);stroke-width:1" /><circle cx="16.163796" cy="16.163886" r="3.749996" style="fill:rgb(0,127,0);stroke-width:1" /><circle cx="12.931041" cy="12.931108" r="3.749996" style="fill:rgb(0,127,0);stroke-width:1" /><circle cx="12.820512" cy="12.820601" r="3.749996" style="fill:rgb(0,127,0);stroke-width:1" /><path stroke-linejoin="round" stroke-linecap="round" stroke="rgb(255,255,255)" stroke-width="3.749996" fill="none" d="M 0.000000 750.000000 L 750.000000 750.000000 M 0.000000 750.000000 L 0.000000 0.000000 " />

</svg>