<svg xmlns="http://www.w3.org/2000/svg" version="1.1" width = "750" height = "750" viewBox = "0 0 750 750"  shape-rendering="crispEdges">
<path stroke-linejoin="round" stroke-linecap="round" stroke="rgb(255,255,0)" stroke-width="3.749996" fill="none" d="M 93.750000 750.000000 L 0.000000 0.000000 " />
<path stroke-linejoin="round" stroke-linecap="round" stroke="rgb(63,63,63)" stroke-width="3.749996" fill="none" d="M 0.000000 0.000000 L 750.000000 750.000000 M 93.750000 750.000000 L 43.750004 0.000000 " />
<path stroke-linejoin="round" stroke-linecap="round" stroke="rgb(191,191,191)" stroke-width="3.749996" fill="none" d="M 0.000000 656.250000 L 93.750000 750.000000 M 0.000000 0.000000 L 49.999996 750.000000 " />
<path stroke-linejoin="round" stroke-linecap="round" stroke="rgb(0,0,255)" stroke-width="1.874998" fill="none" d="M 0.000000 750.000000 L 750.000000 726.562500 " />
<path stroke-linejoin="round" stroke-linecap="round" stroke="rgb(255,0,0)" stroke-width="3.749996" fill="none" d="M 93.555092 747.076416 L 93.750000 750.000000 " />
<path stroke-linejoin="round" stroke-linecap="round" stroke="rgb(0,0,255)" stroke-width="1.874998" fill="none" d="M 0.000000 750.000000 L 750.000000 701.612915 " />
<path stroke-linejoin="round" stroke-linecap="round" stroke="rgb(255,0,0)" stroke-width="3.749996" fill="none" d="M 92.873253 744.008179 L 93.555092 747.076416 " />
<path stroke-linejoin="round" stroke-linecap="round" stroke="rgb(0,0,255)" stroke-width="1.874998" fill="none" d="M 0.000000 750.000000 L 750.000000 675.000000 " />
<path stroke-linejoin="round" stroke-linecap="round" stroke="rgb(255,0,0)" stroke-width="3.749996" fill="none" d="M 92.156860 740.784302 L 92.873253 744.008179 " />
<path stroke-linejoin="round" stroke-linecap="round" stroke="rgb(0,0,255)" stroke-width="1.874998" fill="none" d="M 0.000000 750.000000 L 750.000000 653.225830 " />
<path stroke-linejoin="round" stroke-linecap="round" stroke="rgb(255,0,0)" stroke-width="3.749996" fill="none" d="M 91.578865 738.183350 L 92.156860 740.784302 " />
<path stroke-linejoin="round" stroke-linecap="round" stroke="rgb(0,0,255)" stroke-width="1.874998" fill="none" d="M 0.000000 750.000000 L 750.000000 625.000000 " />
<path stroke-linejoin="round" stroke-linecap="round" stroke="rgb(255,0,0)" stroke-width="3.749996" fill="none" d="M 90.840340 734.859924 L 91.578865 738.183350 " />
<path stroke-linejoin="round" stroke-linecap="round" stroke="rgb(0,0,255)" stroke-width="1.874998" fill="none" d="M 0.000000 750.000000 L 750.000000 604.838684 " />
<path stroke-linejoin="round" stroke-linecap="round" stroke="rgb(255,0,0)" stroke-width="3.749996" fill="none" d="M 90.320084 732.518677 L 90.840340 734.859924 " />
<path stroke-linejoin="round" stroke-linecap="round" stroke="rgb(0,0,255)" stroke-width="1.874998" fill="none" d="M 0.000000 750.000000 L 750.000000 594.827576 " />
<path stroke-linejoin="round" stroke-linecap="round" stroke="rgb(255,0,0)" stroke-width="3.749996" fill="none" d="M 90.063927 731.366089 L 90.320084 732.518677 " />
<path stroke-linejoin="round" stroke-linecap="round" stroke="rgb(0,0,255)" stroke-width="1.874998" fill="none" d="M 0.000000 750.000000 L 750.000000 575.000000 " />
<path stroke-linejoin="round" stroke-linecap="round" stroke="rgb(255,0,0)" stroke-width="3.749996" fill="none" d="M 89.560905 729.102478 L 90.063927 731.366089 " />
<path stroke-linejoin="round" stroke-linecap="round" stroke="rgb(0,0,255)" stroke-width="1.874998" fill="none" d="M 0.000000 750.000000 L 750.000000 543.103455 " />
<path stroke-linejoin="round" stroke-linecap="round" stroke="rgb(255,0,0)" stroke-width="3.749996" fill="none" d="M 88.763374 725.513550 L 89.560905 729.102478 " />
<path stroke-linejoin="round" stroke-linecap="round" stroke="rgb(0,0,255)" stroke-width="1.874998" fill="none" d="M 0.000000 750.000000 L 750.000000 508.928589 " />
<path stroke-linejoin="round" stroke-linecap="round" stroke="rgb(255,0,0)" stroke-width="3.749996" fill="none" d="M 87.924484 721.738525 L 88.763374 725.513550 " />
<path stroke-linejoin="round" stroke-linecap="round" stroke="rgb(0,0,255)" stroke-width="1.874998" fill="none" d="M 0.000000 750.000000 L 750.000000 472.222198 " />
<path stroke-linejoin="round" stroke-linecap="round" stroke="rgb(255,0,0)" stroke-width="3.749996" fill="none" d="M 87.040947 717.762634 L 87.924484 721.738525 " />
<path stroke-linejoin="round" stroke-linecap="round" stroke="rgb(0,0,255)" stroke-width="1.874998" fill="none" d="M 0.000000 750.000000 L 750.000000 455.357147 " />
<path stroke-linejoin="round" stroke-linecap="round" stroke="rgb(255,0,0)" stroke-width="3.749996" fill="none" d="M 86.640915 715.962524 L 87.040947 717.762634 " />
<path stroke-linejoin="round" stroke-linecap="round" stroke="rgb(0,0,255)" stroke-width="1.874998" fill="none" d="M 0.000000 750.000000 L 750.000000 416.666687 " />
<path stroke-linejoin="round" stroke-linecap="round" stroke="rgb(255,0,0)" stroke-width="3.749996" fill="none" d="M 85.736946 711.894653 L 86.640915 715.962524 " />
<path stroke-linejoin="round" stroke-linecap="round" stroke="rgb(0,0,255)" stroke-width="1.874998" fill="none" d="M 0.000000 750.000000 L 750.000000 401.785706 " />
<path stroke-linejoin="round" stroke-linecap="round" stroke="rgb(255,0,0)" stroke-width="3.749996" fill="none" d="M 85.394295 710.352661 L 85.736946 711.894653 " />
<path stroke-linejoin="round" stroke-linecap="round" stroke="rgb(0,0,255)" stroke-width="1.874998" fill="none" d="M 0.000000 750.000000 L 750.000000 375.000000 " />
<path stroke-linejoin="round" stroke-linecap="round" stroke="rgb(255,0,0)" stroke-width="3.749996" fill="none" d="M 84.784317 707.607849 L 85.394295 710.352661 " />
<path stroke-linejoin="round" stroke-linecap="round" stroke="rgb(0,0,255)" stroke-width="1.874998" fill="none" d="M 0.000000 750.000000 L 750.000000 361.111115 " />
<path stroke-linejoin="round" stroke-linecap="round" stroke="rgb(255,0,0)" stroke-width="3.749996" fill="none" d="M 84.471481 706.199951 L 84.784317 707.607849 " />
<path stroke-linejoin="round" stroke-linecap="round" stroke="rgb(0,0,255)" stroke-width="1.874998" fill="none" d="M 0.000000 750.000000 L 750.000000 111.111092 " />
<path stroke-linejoin="round" stroke-linecap="round" stroke="rgb(255,0,0)" stroke-width="3.749996" fill="none" d="M 82.191895 679.984680 L 84.471481 706.199951 " />
<path stroke-linejoin="round" stroke-linecap="round" stroke="rgb(0,0,255)" stroke-width="1.874998" fill="none" d="M 0.000000 750.000000 L 750.000000 0.000000 " />
<path stroke-linejoin="round" stroke-linecap="round" stroke="rgb(255,0,0)" stroke-width="3.749996" fill="none" d="M 81.217758 668.782288 L 82.191895 679.984680 " />
<path stroke-linejoin="round" stroke-linecap="round" stroke="rgb(0,0,255)" stroke-width="1.874998" fill="none" d="M 0.000000 750.000000 L 694.444458 0.000000 " />
<path stroke-linejoin="round" stroke-linecap="round" stroke="rgb(255,0,0)" stroke-width="3.749996" fill="none" d="M 80.701279 662.842590 L 81.217758 668.782288 " />
<path stroke-linejoin="round" stroke-linecap="round" stroke="rgb(0,0,255)" stroke-width="1.874998" fill="none" d="M 0.000000 750.000000 L 594.827576 0.000000 " />
<path stroke-linejoin="round" stroke-linecap="round" stroke="rgb(255,0,0)" stroke-width="3.749996" fill="none" d="M 79.557426 649.688477 L 80.701279 662.842590 " />
<path stroke-linejoin="round" stroke-linecap="round" stroke="rgb(0,0,255)" stroke-width="1.874998" fill="none" d="M 0.000000 750.000000 L 423.076935 0.000000 " />
<path stroke-linejoin="round" stroke-linecap="round" stroke="rgb(255,0,0)" stroke-width="3.749996" fill="none" d="M 76.489311 614.405334 L 79.557426 649.688477 " />
<path stroke-linejoin="round" stroke-linecap="round" stroke="rgb(0,0,255)" stroke-width="1.874998" fill="none" d="M 0.000000 750.000000 L 321.428589 0.000000 " />
<path stroke-linejoin="round" stroke-linecap="round" stroke="rgb(255,0,0)" stroke-width="3.749996" fill="none" d="M 73.389526 578.757751 L 76.489311 614.405334 " />
<path stroke-linejoin="round" stroke-linecap="round" stroke="rgb(0,0,255)" stroke-width="1.874998" fill="none" d="M 0.000000 750.000000 L 279.661011 0.000000 " />
<path stroke-linejoin="round" stroke-linecap="round" stroke="rgb(255,0,0)" stroke-width="3.749996" fill="none" d="M 71.586143 558.018921 L 73.389526 578.757751 " />
<path stroke-linejoin="round" stroke-linecap="round" stroke="rgb(0,0,255)" stroke-width="1.874998" fill="none" d="M 0.000000 750.000000 L 259.090912 0.000000 " />
<path stroke-linejoin="round" stroke-linecap="round" stroke="rgb(255,0,0)" stroke-width="3.749996" fill="none" d="M 70.527298 545.842041 L 71.586143 558.018921 " />
<path stroke-linejoin="round" stroke-linecap="round" stroke="rgb(0,0,255)" stroke-width="1.874998" fill="none" d="M 0.000000 750.000000 L 250.000000 0.000000 " />
<path stroke-linejoin="round" stroke-linecap="round" stroke="rgb(255,0,0)" stroke-width="3.749996" fill="none" d="M 70.015312 539.954102 L 70.527298 545.842041 " />
<path stroke-linejoin="round" stroke-linecap="round" stroke="rgb(0,0,255)" stroke-width="1.874998" fill="none" d="M 0.000000 750.000000 L 216.101685 0.000000 " />
<path stroke-linejoin="round" stroke-linecap="round" stroke="rgb(255,0,0)" stroke-width="3.749996" fill="none" d="M 67.814423 514.644043 L 70.015312 539.954102 " />
<path stroke-linejoin="round" stroke-linecap="round" stroke="rgb(0,0,255)" stroke-width="1.874998" fill="none" d="M 0.000000 750.000000 L 173.913040 0.000000 " />
<path stroke-linejoin="round" stroke-linecap="round" stroke="rgb(255,0,0)" stroke-width="3.749996" fill="none" d="M 64.203743 473.121277 L 67.814423 514.644043 " />
<path stroke-linejoin="round" stroke-linecap="round" stroke="rgb(0,0,255)" stroke-width="1.874998" fill="none" d="M 0.000000 750.000000 L 161.392410 0.000000 " />
<path stroke-linejoin="round" stroke-linecap="round" stroke="rgb(255,0,0)" stroke-width="3.749996" fill="none" d="M 62.873482 457.823212 L 64.203743 473.121277 " />
<path stroke-linejoin="round" stroke-linecap="round" stroke="rgb(0,0,255)" stroke-width="1.874998" fill="none" d="M 0.000000 750.000000 L 157.407410 0.000000 " />
<path stroke-linejoin="round" stroke-linecap="round" stroke="rgb(255,0,0)" stroke-width="3.749996" fill="none" d="M 62.418713 452.593231 L 62.873482 457.823212 " />
<path stroke-linejoin="round" stroke-linecap="round" stroke="rgb(0,0,255)" stroke-width="1.874998" fill="none" d="M 0.000000 750.000000 L 138.888901 0.000000 " />
<path stroke-linejoin="round" stroke-linecap="round" stroke="rgb(255,0,0)" stroke-width="3.749996" fill="none" d="M 60.072319 425.609528 L 62.418713 452.593231 " />
<path stroke-linejoin="round" stroke-linecap="round" stroke="rgb(0,0,255)" stroke-width="1.874998" fill="none" d="M 0.000000 750.000000 L 115.384605 0.000000 " />
<path stroke-linejoin="round" stroke-linecap="round" stroke="rgb(255,0,0)" stroke-width="3.749996" fill="none" d="M 56.401222 383.392059 L 60.072319 425.609528 " />
<path stroke-linejoin="round" stroke-linecap="round" stroke="rgb(0,0,255)" stroke-width="1.874998" fill="none" d="M 0.000000 750.000000 L 111.386147 0.000000 " />
<path stroke-linejoin="round" stroke-linecap="round" stroke="rgb(255,0,0)" stroke-width="3.749996" fill="none" d="M 55.679440 375.091736 L 56.401222 383.392059 " />
<path stroke-linejoin="round" stroke-linecap="round" stroke="rgb(0,0,255)" stroke-width="1.874998" fill="none" d="M 0.000000 750.000000 L 105.769249 0.000000 " />
<path stroke-linejoin="round" stroke-linecap="round" stroke="rgb(255,0,0)" stroke-width="3.749996" fill="none" d="M 53.961754 367.362091 L 55.679440 375.091736 " />
<path stroke-linejoin="round" stroke-linecap="round" stroke="rgb(0,0,255)" stroke-width="1.874998" fill="none" d="M 0.000000 750.000000 L 103.124992 0.000000 " />
<path stroke-linejoin="round" stroke-linecap="round" stroke="rgb(255,0,0)" stroke-width="3.749996" fill="none" d="M 53.128368 363.611877 L 53.961754 367.362091 " />
<path stroke-linejoin="round" stroke-linecap="round" stroke="rgb(0,0,255)" stroke-width="1.874998" fill="none" d="M 0.000000 750.000000 L 92.592583 0.000000 " />
<path stroke-linejoin="round" stroke-linecap="round" stroke="rgb(255,0,0)" stroke-width="3.749996" fill="none" d="M 49.640133 347.914886 L 53.128345 363.611908 " />
<path stroke-linejoin="round" stroke-linecap="round" stroke="rgb(0,0,255)" stroke-width="1.874998" fill="none" d="M 0.000000 750.000000 L 90.361435 0.000000 " />
<path stroke-linejoin="round" stroke-linecap="round" stroke="rgb(255,0,0)" stroke-width="3.749996" fill="none" d="M 48.864506 344.424591 L 49.640133 347.914886 " />
<path stroke-linejoin="round" stroke-linecap="round" stroke="rgb(0,0,255)" stroke-width="1.874998" fill="none" d="M 0.000000 750.000000 L 88.709679 0.000000 " />
<path stroke-linejoin="round" stroke-linecap="round" stroke="rgb(255,0,0)" stroke-width="3.749996" fill="none" d="M 48.486069 340.072418 L 48.864506 344.424591 " />
<path stroke-linejoin="round" stroke-linecap="round" stroke="rgb(0,0,255)" stroke-width="1.874998" fill="none" d="M 0.000000 750.000000 L 84.375008 0.000000 " />
<path stroke-linejoin="round" stroke-linecap="round" stroke="rgb(255,0,0)" stroke-width="3.749996" fill="none" d="M 46.913132 332.994293 L 48.486069 340.072418 " />
<path stroke-linejoin="round" stroke-linecap="round" stroke="rgb(0,0,255)" stroke-width="1.874998" fill="none" d="M 0.000000 750.000000 L 82.317085 0.000000 " />
<path stroke-linejoin="round" stroke-linecap="round" stroke="rgb(255,0,0)" stroke-width="3.749996" fill="none" d="M 46.147228 329.547607 L 46.913132 332.994293 " />
<path stroke-linejoin="round" stroke-linecap="round" stroke="rgb(0,0,255)" stroke-width="1.874998" fill="none" d="M 0.000000 750.000000 L 72.289154 0.000000 " />
<path stroke-linejoin="round" stroke-linecap="round" stroke="rgb(255,0,0)" stroke-width="3.749996" fill="none" d="M 42.226219 311.903076 L 46.147228 329.547607 " />
<path stroke-linejoin="round" stroke-linecap="round" stroke="rgb(0,0,255)" stroke-width="1.874998" fill="none" d="M 0.000000 750.000000 L 70.588234 0.000000 " />
<path stroke-linejoin="round" stroke-linecap="round" stroke="rgb(255,0,0)" stroke-width="3.749996" fill="none" d="M 41.528263 308.762299 L 42.226219 311.903076 " />
<path stroke-linejoin="round" stroke-linecap="round" stroke="rgb(0,0,255)" stroke-width="1.874998" fill="none" d="M 0.000000 750.000000 L 68.965515 0.000000 " />
<path stroke-linejoin="round" stroke-linecap="round" stroke="rgb(255,0,0)" stroke-width="3.749996" fill="none" d="M 40.852993 305.723633 L 41.528263 308.762299 " />
<path stroke-linejoin="round" stroke-linecap="round" stroke="rgb(0,0,255)" stroke-width="1.874998" fill="none" d="M 0.000000 750.000000 L 67.415733 0.000000 " />
<path stroke-linejoin="round" stroke-linecap="round" stroke="rgb(255,0,0)" stroke-width="3.749996" fill="none" d="M 40.199360 302.782196 L 40.852993 305.723633 " />
<path stroke-linejoin="round" stroke-linecap="round" stroke="rgb(0,0,255)" stroke-width="1.874998" fill="none" d="M 0.000000 750.000000 L 63.679241 0.000000 " />
<path stroke-linejoin="round" stroke-linecap="round" stroke="rgb(255,0,0)" stroke-width="3.749996" fill="none" d="M 39.072052 289.818176 L 40.199360 302.782196 " />
<path stroke-linejoin="round" stroke-linecap="round" stroke="rgb(0,0,255)" stroke-width="1.874998" fill="none" d="M 0.000000 750.000000 L 63.157887 0.000000 " />
<path stroke-linejoin="round" stroke-linecap="round" stroke="rgb(255,0,0)" stroke-width="3.749996" fill="none" d="M 38.840061 288.774261 L 39.072052 289.818176 " />
<path stroke-linejoin="round" stroke-linecap="round" stroke="rgb(0,0,255)" stroke-width="1.874998" fill="none" d="M 0.000000 750.000000 L 61.855675 0.000000 " />
<path stroke-linejoin="round" stroke-linecap="round" stroke="rgb(255,0,0)" stroke-width="3.749996" fill="none" d="M 38.255989 286.145966 L 38.840061 288.774261 " />
<path stroke-linejoin="round" stroke-linecap="round" stroke="rgb(0,0,255)" stroke-width="1.874998" fill="none" d="M 0.000000 750.000000 L 60.606056 0.000000 " />
<path stroke-linejoin="round" stroke-linecap="round" stroke="rgb(255,0,0)" stroke-width="3.749996" fill="none" d="M 37.689240 283.595581 L 38.255989 286.145966 " />
<path stroke-linejoin="round" stroke-linecap="round" stroke="rgb(0,0,255)" stroke-width="1.874998" fill="none" d="M 0.000000 750.000000 L 59.405945 0.000000 " />
<path stroke-linejoin="round" stroke-linecap="round" stroke="rgb(255,0,0)" stroke-width="3.749996" fill="none" d="M 37.139027 281.119659 L 37.689240 283.595581 " />
<path stroke-linejoin="round" stroke-linecap="round" stroke="rgb(0,0,255)" stroke-width="1.874998" fill="none" d="M 0.000000 750.000000 L 55.045856 0.000000 " />
<path stroke-linejoin="round" stroke-linecap="round" stroke="rgb(255,0,0)" stroke-width="3.749996" fill="none" d="M 35.660862 264.120667 L 37.139027 281.119659 " />
<path stroke-linejoin="round" stroke-linecap="round" stroke="rgb(0,0,255)" stroke-width="1.874998" fill="none" d="M 0.000000 750.000000 L 54.054066 0.000000 " />
<path stroke-linejoin="round" stroke-linecap="round" stroke="rgb(255,0,0)" stroke-width="3.749996" fill="none" d="M 35.309540 260.080261 L 35.660862 264.120667 " />
<path stroke-linejoin="round" stroke-linecap="round" stroke="rgb(0,0,255)" stroke-width="1.874998" fill="none" d="M 0.000000 750.000000 L 46.391754 0.000000 " />
<path stroke-linejoin="round" stroke-linecap="round" stroke="rgb(255,0,0)" stroke-width="3.749996" fill="none" d="M 31.394161 242.461105 L 35.309540 260.080231 " />
<path stroke-linejoin="round" stroke-linecap="round" stroke="rgb(0,0,255)" stroke-width="1.874998" fill="none" d="M 0.000000 750.000000 L 38.265308 0.000000 " />
<path stroke-linejoin="round" stroke-linecap="round" stroke="rgb(255,0,0)" stroke-width="3.749996" fill="none" d="M 26.921690 222.334915 L 31.394161 242.461105 " />
<path stroke-linejoin="round" stroke-linecap="round" stroke="rgb(0,0,255)" stroke-width="1.874998" fill="none" d="M 0.000000 750.000000 L 37.500008 0.000000 " />
<path stroke-linejoin="round" stroke-linecap="round" stroke="rgb(255,0,0)" stroke-width="3.749996" fill="none" d="M 26.482143 220.356964 L 26.921690 222.334915 " />
<path stroke-linejoin="round" stroke-linecap="round" stroke="rgb(0,0,255)" stroke-width="1.874998" fill="none" d="M 0.000000 750.000000 L 29.702961 0.000000 " />
<path stroke-linejoin="round" stroke-linecap="round" stroke="rgb(255,0,0)" stroke-width="3.749996" fill="none" d="M 21.808840 199.326981 L 26.482143 220.356964 " />
<path stroke-linejoin="round" stroke-linecap="round" stroke="rgb(0,0,255)" stroke-width="1.874998" fill="none" d="M 0.000000 750.000000 L 29.126219 0.000000 " />
<path stroke-linejoin="round" stroke-linecap="round" stroke="rgb(255,0,0)" stroke-width="3.749996" fill="none" d="M 21.448351 197.704819 L 21.808840 199.326981 " />
<path stroke-linejoin="round" stroke-linecap="round" stroke="rgb(0,0,255)" stroke-width="1.874998" fill="none" d="M 0.000000 750.000000 L 28.037376 0.000000 " />
<path stroke-linejoin="round" stroke-linecap="round" stroke="rgb(255,0,0)" stroke-width="3.749996" fill="none" d="M 20.762018 194.616257 L 21.448351 197.704819 " />
<path stroke-linejoin="round" stroke-linecap="round" stroke="rgb(0,0,255)" stroke-width="1.874998" fill="none" d="M 0.000000 750.000000 L 27.522928 0.000000 " />
<path stroke-linejoin="round" stroke-linecap="round" stroke="rgb(255,0,0)" stroke-width="3.749996" fill="none" d="M 20.435057 193.144882 L 20.762018 194.616257 " />
<path stroke-linejoin="round" stroke-linecap="round" stroke="rgb(0,0,255)" stroke-width="1.874998" fill="none" d="M 0.000000 750.000000 L 23.622036 0.000000 " />
<path stroke-linejoin="round" stroke-linecap="round" stroke="rgb(255,0,0)" stroke-width="3.749996" fill="none" d="M 18.308870 168.693695 L 20.435057 193.144836 " />
<path stroke-linejoin="round" stroke-linecap="round" stroke="rgb(0,0,255)" stroke-width="1.874998" fill="none" d="M 0.000000 750.000000 L 23.255825 0.000000 " />
<path stroke-linejoin="round" stroke-linecap="round" stroke="rgb(255,0,0)" stroke-width="3.749996" fill="none" d="M 18.099613 166.287399 L 18.308870 168.693695 " />
<path stroke-linejoin="round" stroke-linecap="round" stroke="rgb(0,0,255)" stroke-width="1.874998" fill="none" d="M 0.000000 750.000000 L 22.556395 0.000000 " />
<path stroke-linejoin="round" stroke-linecap="round" stroke="rgb(255,0,0)" stroke-width="3.749996" fill="none" d="M 17.695158 161.636124 L 18.099613 166.287399 " />
<path stroke-linejoin="round" stroke-linecap="round" stroke="rgb(0,0,255)" stroke-width="1.874998" fill="none" d="M 0.000000 750.000000 L 22.222214 0.000000 " />
<path stroke-linejoin="round" stroke-linecap="round" stroke="rgb(255,0,0)" stroke-width="3.749996" fill="none" d="M 17.499626 159.387634 L 17.695158 161.636169 " />
<path stroke-linejoin="round" stroke-linecap="round" stroke="rgb(0,0,255)" stroke-width="1.874998" fill="none" d="M 0.000000 750.000000 L 21.897800 0.000000 " />
<path stroke-linejoin="round" stroke-linecap="round" stroke="rgb(255,0,0)" stroke-width="3.749996" fill="none" d="M 17.308384 157.188217 L 17.499626 159.387680 " />
<path stroke-linejoin="round" stroke-linecap="round" stroke="rgb(0,0,255)" stroke-width="1.874998" fill="none" d="M 0.000000 750.000000 L 21.582729 0.000000 " />
<path stroke-linejoin="round" stroke-linecap="round" stroke="rgb(255,0,0)" stroke-width="3.749996" fill="none" d="M 17.121256 155.036331 L 17.308384 157.188171 " />
<path stroke-linejoin="round" stroke-linecap="round" stroke="rgb(0,0,255)" stroke-width="1.874998" fill="none" d="M 0.000000 750.000000 L 21.126755 0.000000 " />
<path stroke-linejoin="round" stroke-linecap="round" stroke="rgb(255,0,0)" stroke-width="3.749996" fill="none" d="M 16.848049 151.894440 L 17.121256 155.036331 " />
<path stroke-linejoin="round" stroke-linecap="round" stroke="rgb(0,0,255)" stroke-width="1.874998" fill="none" d="M 0.000000 750.000000 L 20.979033 0.000000 " />
<path stroke-linejoin="round" stroke-linecap="round" stroke="rgb(255,0,0)" stroke-width="3.749996" fill="none" d="M 16.758911 150.869247 L 16.848049 151.894440 " />
<path stroke-linejoin="round" stroke-linecap="round" stroke="rgb(0,0,255)" stroke-width="1.874998" fill="none" d="M 0.000000 750.000000 L 15.517250 0.000000 " />
<path stroke-linejoin="round" stroke-linecap="round" stroke="rgb(255,0,0)" stroke-width="3.749996" fill="none" d="M 13.234399 110.337448 L 16.758911 150.869247 " />
<path stroke-linejoin="round" stroke-linecap="round" stroke="rgb(0,0,255)" stroke-width="1.874998" fill="none" d="M 0.000000 750.000000 L 15.100680 0.000000 " />
<path stroke-linejoin="round" stroke-linecap="round" stroke="rgb(255,0,0)" stroke-width="3.749996" fill="none" d="M 12.945906 107.019875 L 13.234399 110.337448 " />
<path stroke-linejoin="round" stroke-linecap="round" stroke="rgb(0,0,255)" stroke-width="1.874998" fill="none" d="M 0.000000 750.000000 L 11.450373 0.000000 " />
<path stroke-linejoin="round" stroke-linecap="round" stroke="rgb(255,0,0)" stroke-width="3.749996" fill="none" d="M 10.283880 76.406433 L 12.945906 107.019875 " />
<path stroke-linejoin="round" stroke-linecap="round" stroke="rgb(0,0,255)" stroke-width="1.874998" fill="none" d="M 0.000000 750.000000 L 5.319156 0.000000 " />
<path stroke-linejoin="round" stroke-linecap="round" stroke="rgb(255,0,0)" stroke-width="3.749996" fill="none" d="M 5.172863 20.624712 L 10.283880 76.406433 " />
<path stroke-linejoin="round" stroke-linecap="round" stroke="rgb(0,0,255)" stroke-width="1.874998" fill="none" d="M 0.000000 750.000000 L 0.000000 0.000000 " />
<path stroke-linejoin="round" stroke-linecap="round" stroke="rgb(255,0,0)" stroke-width="3.749996" fill="none" d="M 0.000000 0.000000 L 5.172863 20.624712 " />
<circle cx="93.555093" cy="747.076437" r="3.749996" style="fill:rgb(0,127,0);stroke-width:1" /><circle cx="92.873253" cy="744.008169" r="3.749996" style="fill:rgb(0,127,0);stroke-width:1" /><circle cx="92.156857" cy="740.784310" r="3.749996" style="fill:rgb(0,127,0);stroke-width:1" /><circle cx="91.578864" cy="738.183372" r="3.749996" style="fill:rgb(0,127,0);stroke-width:1" /><circle cx="90.840340" cy="734.859936" r="3.749996" style="fill:rgb(0,127,0);stroke-width:1" /><circle cx="90.320081" cy="732.518703" r="3.749996" style="fill:rgb(0,127,0);stroke-width:1" /><circle cx="90.063930" cy="731.366090" r="3.749996" style="fill:rgb(0,127,0);stroke-width:1" /><circle cx="89.560904" cy="729.102463" r="3.749996" style="fill:rgb(0,127,0);stroke-width:1" /><circle cx="88.763371" cy="725.513555" r="3.749996" style="fill:rgb(0,127,0);stroke-width:1" /><circle cx="87.924488" cy="721.738547" r="3.749996" style="fill:rgb(0,127,0);stroke-width:1" /><circle cx="87.040946" cy="717.762619" r="3.749996" style="fill:rgb(0,127,0);stroke-width:1" /><circle cx="86.640917" cy="715.962499" r="3.749996" style="fill:rgb(0,127,0);stroke-width:1" /><circle cx="85.736945" cy="711.894684" r="3.749996" style="fill:rgb(0,127,0);stroke-width:1" /><circle cx="85.394293" cy="710.352659" r="3.749996" style="fill:rgb(0,127,0);stroke-width:1" /><circle cx="84.784314" cy="707.607843" r="3.749996" style="fill:rgb(0,127,0);stroke-width:1" /><circle cx="84.471479" cy="706.199974" r="3.749996" style="fill:rgb(0,127,0);stroke-width:1" /><circle cx="82.191892" cy="679.984689" r="3.749996" style="fill:rgb(0,127,0);stroke-width:1" /><circle cx="81.217758" cy="668.782242" r="3.749996" style="fill:rgb(0,127,0);stroke-width:1" /><circle cx="80.701277" cy="662.842624" r="3.749996" style="fill:rgb(0,127,0);stroke-width:1" /><circle cx="79.557426" cy="649.688467" r="3.749996" style="fill:rgb(0,127,0);stroke-width:1" /><circle cx="76.489314" cy="614.405304" r="3.749996" style="fill:rgb(0,127,0);stroke-width:1" /><circle cx="73.389530" cy="578.757763" r="3.749996" style="fill:rgb(0,127,0);stroke-width:1" /><circle cx="71.586147" cy="558.018945" r="3.749996" style="fill:rgb(0,127,0);stroke-width:1" /><circle cx="70.527300" cy="545.842052" r="3.749996" style="fill:rgb(0,127,0);stroke-width:1" /><circle cx="70.015311" cy="539.954111" r="3.749996" style="fill:rgb(0,127,0);stroke-width:1" /><circle cx="67.814425" cy="514.644049" r="3.749996" style="fill:rgb(0,127,0);stroke-width:1" /><circle cx="64.203747" cy="473.121308" r="3.749996" style="fill:rgb(0,127,0);stroke-width:1" /><circle cx="62.873483" cy="457.823195" r="3.749996" style="fill:rgb(0,127,0);stroke-width:1" /><circle cx="62.418714" cy="452.593222" r="3.749996" style="fill:rgb(0,127,0);stroke-width:1" /><circle cx="60.072318" cy="425.609529" r="3.749996" style="fill:rgb(0,127,0);stroke-width:1" /><circle cx="56.401223" cy="383.392051" r="3.749996" style="fill:rgb(0,127,0);stroke-width:1" /><circle cx="55.679440" cy="375.091732" r="3.749996" style="fill:rgb(0,127,0);stroke-width:1" /><circle cx="53.961754" cy="367.362097" r="3.749996" style="fill:rgb(0,127,0);stroke-width:1" /><circle cx="53.128369" cy="363.611877" r="3.749996" style="fill:rgb(0,127,0);stroke-width:1" /><circle cx="49.640134" cy="347.914875" r="3.749996" style="fill:rgb(0,127,0);stroke-width:1" /><circle cx="48.864506" cy="344.424605" r="3.749996" style="fill:rgb(0,127,0);stroke-width:1" /><circle cx="48.486069" cy="340.072408" r="3.749996" style="fill:rgb(0,127,0);stroke-width:1" /><circle cx="46.913132" cy="332.994282" r="3.749996" style="fill:rgb(0,127,0);stroke-width:1" /><circle cx="46.147227" cy="329.547599" r="3.749996" style="fill:rgb(0,127,0);stroke-width:1" /><circle cx="42.226218" cy="311.903089" r="3.749996" style="fill:rgb(0,127,0);stroke-width:1" /><circle cx="41.528262" cy="308.762312" r="3.749996" style="fill:rgb(0,127,0);stroke-width:1" /><circle cx="40.852994" cy="305.723637" r="3.749996" style="fill:rgb(0,127,0);stroke-width:1" /><circle cx="40.199362" cy="302.782193" r="3.749996" style="fill:rgb(0,127,0);stroke-width:1" /><circle cx="39.072052" cy="289.818183" r="3.749996" style="fill:rgb(0,127,0);stroke-width:1" /><circle cx="38.840063" cy="288.774267" r="3.749996" style="fill:rgb(0,127,0);stroke-width:1" /><circle cx="38.255990" cy="286.145970" r="3.749996" style="fill:rgb(0,127,0);stroke-width:1" /><circle cx="37.689239" cy="283.595592" r="3.749996" style="fill:rgb(0,127,0);stroke-width:1" /><circle cx="37.139028" cy="281.119645" r="3.749996" style="fill:rgb(0,127,0);stroke-width:1" /><circle cx="35.660863" cy="264.120653" r="3.749996" style="fill:rgb(0,127,0);stroke-width:1" /><circle cx="35.309538" cy="260.080263" r="3.749996" style="fill:rgb(0,127,0);stroke-width:1" /><circle cx="31.394161" cy="242.461100" r="3.749996" style="fill:rgb(0,127,0);stroke-width:1" /><circle cx="26.921690" cy="222.334921" r="3.749996" style="fill:rgb(0,127,0);stroke-width:1" /><circle cx="26.482143" cy="220.356971" r="3.749996" style="fill:rgb(0,127,0);stroke-width:1" /><circle cx="21.808840" cy="199.326977" r="3.749996" style="fill:rgb(0,127,0);stroke-width:1" /><circle cx="21.448351" cy="197.704822" r="3.749996" style="fill:rgb(0,127,0);stroke-width:1" /><circle cx="20.762019" cy="194.616258" r="3.749996" style="fill:rgb(0,127,0);stroke-width:1" /><circle cx="20.435058" cy="193.144888" r="3.749996" style="fill:rgb(0,127,0);stroke-width:1" /><circle cx="18.308870" cy="168.693691" r="3.749996" style="fill:rgb(0,127,0);stroke-width:1" /><circle cx="18.099613" cy="166.287392" r="3.749996" style="fill:rgb(0,127,0);stroke-width:1" /><circle cx="17.695159" cy="161.636129" r="3.749996" style="fill:rgb(0,127,0);stroke-width:1" /><circle cx="17.499626" cy="159.387633" r="3.749996" style="fill:rgb(0,127,0);stroke-width:1" /><circle cx="17.308384" cy="157.188222" r="3.749996" style="fill:rgb(0,127,0);stroke-width:1" /><circle cx="17.121255" cy="155.036330" r="3.749996" style="fill:rgb(0,127,0);stroke-width:1" /><circle cx="16.848050" cy="151.894435" r="3.749996" style="fill:rgb(0,127,0);stroke-width:1" /><circle cx="16.758911" cy="150.869250" r="3.749996" style="fill:rgb(0,127,0);stroke-width:1" /><circle cx="13.234399" cy="110.337451" r="3.749996" style="fill:rgb(0,127,0);stroke-width:1" /><circle cx="12.945905" cy="107.019871" r="3.749996" style="fill:rgb(0,127,0);stroke-width:1" /><circle cx="10.283880" cy="76.406434" r="3.749996" style="fill:rgb(0,127,0);stroke-width:1" /><circle cx="5.172864" cy="20.624712" r="3.749996" style="fill:rgb(0,127,0);stroke-width:1" /><circle cx="750.000000" cy="750.000000" r="3.749996" style="fill:rgb(0,127,0);stroke-width:1" /><path stroke-linejoin="round" stroke-linecap="round" stroke="rgb(255,255,255)" stroke-width="3.749996" fill="none" d="M 0.000000 750.000000 L 750.000000 750.000000 M 0.000000 750.000000 L 0.000000 0.000000 " />

</svg>