<svg xmlns="http://www.w3.org/2000/svg" version="1.1" width = "750" height = "750" viewBox = "0 0 750 750"  shape-rendering="crispEdges">
<path stroke-linejoin="round" stroke-linecap="round" stroke="rgb(255,255,0)" stroke-width="3.749996" fill="none" d="M 93.750000 750.000000 L 0.000000 0.000000 " />
<path stroke-linejoin="round" stroke-linecap="round" stroke="rgb(63,63,63)" stroke-width="3.749996" fill="none" d="M 0.000000 0.000000 L 750.000000 750.000000 M 93.750000 750.000000 L 43.750004 0.000000 " />
<path stroke-linejoin="round" stroke-linecap="round" stroke="rgb(191,191,191)" stroke-width="3.749996" fill="none" d="M 0.000000 656.250000 L 93.750000 750.000000 M 0.000000 0.000000 L 49.999996 750.000000 " />
<path stroke-linejoin="round" stroke-linecap="round" stroke="rgb(0,0,255)" stroke-width="1.874998" fill="none" d="M 0.000000 750.000000 L 750.000000 482.142853 " />
<path stroke-linejoin="round" stroke-linecap="round" stroke="rgb(255,0,0)" stroke-width="3.749996" fill="none" d="M 91.569763 717.296570 L 93.750000 750.000000 " />
<path stroke-linejoin="round" stroke-linecap="round" stroke="rgb(0,0,255)" stroke-width="1.874998" fill="none" d="M 0.000000 750.000000 L 750.000000 232.758606 " />
<path stroke-linejoin="round" stroke-linecap="round" stroke="rgb(255,0,0)" stroke-width="3.749996" fill="none" d="M 89.071915 688.571045 L 91.569763 717.296570 " />
<path stroke-linejoin="round" stroke-linecap="round" stroke="rgb(0,0,255)" stroke-width="1.874998" fill="none" d="M 0.000000 750.000000 L 700.000000 0.000000 " />
<path stroke-linejoin="round" stroke-linecap="round" stroke="rgb(255,0,0)" stroke-width="3.749996" fill="none" d="M 86.366951 657.463989 L 89.071915 688.571045 " />
<path stroke-linejoin="round" stroke-linecap="round" stroke="rgb(0,0,255)" stroke-width="1.874998" fill="none" d="M 0.000000 750.000000 L 506.250000 0.000000 " />
<path stroke-linejoin="round" stroke-linecap="round" stroke="rgb(255,0,0)" stroke-width="3.749996" fill="none" d="M 83.638832 626.090637 L 86.366951 657.463989 " />
<path stroke-linejoin="round" stroke-linecap="round" stroke="rgb(0,0,255)" stroke-width="1.874998" fill="none" d="M 0.000000 750.000000 L 390.000031 0.000000 " />
<path stroke-linejoin="round" stroke-linecap="round" stroke="rgb(255,0,0)" stroke-width="3.749996" fill="none" d="M 80.887268 594.447571 L 83.638832 626.090637 " />
<path stroke-linejoin="round" stroke-linecap="round" stroke="rgb(0,0,255)" stroke-width="1.874998" fill="none" d="M 0.000000 750.000000 L 312.500000 0.000000 " />
<path stroke-linejoin="round" stroke-linecap="round" stroke="rgb(255,0,0)" stroke-width="3.749996" fill="none" d="M 78.111961 562.531311 L 80.887268 594.447571 " />
<path stroke-linejoin="round" stroke-linecap="round" stroke="rgb(0,0,255)" stroke-width="1.874998" fill="none" d="M 0.000000 750.000000 L 278.571442 0.000000 " />
<path stroke-linejoin="round" stroke-linecap="round" stroke="rgb(255,0,0)" stroke-width="3.749996" fill="none" d="M 76.503151 544.029968 L 78.111961 562.531311 " />
<path stroke-linejoin="round" stroke-linecap="round" stroke="rgb(0,0,255)" stroke-width="1.874998" fill="none" d="M 0.000000 750.000000 L 234.375000 0.000000 " />
<path stroke-linejoin="round" stroke-linecap="round" stroke="rgb(255,0,0)" stroke-width="3.749996" fill="none" d="M 73.860970 513.644897 L 76.503151 544.029968 " />
<path stroke-linejoin="round" stroke-linecap="round" stroke="rgb(0,0,255)" stroke-width="1.874998" fill="none" d="M 0.000000 750.000000 L 200.000015 0.000000 " />
<path stroke-linejoin="round" stroke-linecap="round" stroke="rgb(255,0,0)" stroke-width="3.749996" fill="none" d="M 71.197136 483.010773 L 73.860970 513.644897 " />
<path stroke-linejoin="round" stroke-linecap="round" stroke="rgb(0,0,255)" stroke-width="1.874998" fill="none" d="M 0.000000 750.000000 L 172.500015 0.000000 " />
<path stroke-linejoin="round" stroke-linecap="round" stroke="rgb(255,0,0)" stroke-width="3.749996" fill="none" d="M 68.511375 452.124512 L 71.197136 483.010773 " />
<path stroke-linejoin="round" stroke-linecap="round" stroke="rgb(0,0,255)" stroke-width="1.874998" fill="none" d="M 0.000000 750.000000 L 149.999985 0.000000 " />
<path stroke-linejoin="round" stroke-linecap="round" stroke="rgb(255,0,0)" stroke-width="3.749996" fill="none" d="M 65.803413 420.982941 L 68.511375 452.124512 " />
<path stroke-linejoin="round" stroke-linecap="round" stroke="rgb(0,0,255)" stroke-width="1.874998" fill="none" d="M 0.000000 750.000000 L 143.750000 0.000000 " />
<path stroke-linejoin="round" stroke-linecap="round" stroke="rgb(255,0,0)" stroke-width="3.749996" fill="none" d="M 64.947701 411.142395 L 65.803413 420.982941 " />
<path stroke-linejoin="round" stroke-linecap="round" stroke="rgb(0,0,255)" stroke-width="1.874998" fill="none" d="M 0.000000 750.000000 L 126.923073 0.000000 " />
<path stroke-linejoin="round" stroke-linecap="round" stroke="rgb(255,0,0)" stroke-width="3.749996" fill="none" d="M 62.367195 381.466583 L 64.947701 411.142395 " />
<path stroke-linejoin="round" stroke-linecap="round" stroke="rgb(0,0,255)" stroke-width="1.874998" fill="none" d="M 0.000000 750.000000 L 123.214287 0.000000 " />
<path stroke-linejoin="round" stroke-linecap="round" stroke="rgb(255,0,0)" stroke-width="3.749996" fill="none" d="M 61.736450 374.212952 L 62.367195 381.466583 " />
<path stroke-linejoin="round" stroke-linecap="round" stroke="rgb(0,0,255)" stroke-width="1.874998" fill="none" d="M 0.000000 750.000000 L 112.500008 0.000000 " />
<path stroke-linejoin="round" stroke-linecap="round" stroke="rgb(255,0,0)" stroke-width="3.749996" fill="none" d="M 59.766388 351.557373 L 61.736450 374.212952 " />
<path stroke-linejoin="round" stroke-linecap="round" stroke="rgb(0,0,255)" stroke-width="1.874998" fill="none" d="M 0.000000 750.000000 L 99.999992 0.000000 " />
<path stroke-linejoin="round" stroke-linecap="round" stroke="rgb(255,0,0)" stroke-width="3.749996" fill="none" d="M 57.145065 321.412048 L 59.766388 351.557373 " />
<path stroke-linejoin="round" stroke-linecap="round" stroke="rgb(0,0,255)" stroke-width="1.874998" fill="none" d="M 0.000000 750.000000 L 89.062508 0.000000 " />
<path stroke-linejoin="round" stroke-linecap="round" stroke="rgb(255,0,0)" stroke-width="3.749996" fill="none" d="M 54.502956 291.027771 L 57.145065 321.412048 " />
<path stroke-linejoin="round" stroke-linecap="round" stroke="rgb(0,0,255)" stroke-width="1.874998" fill="none" d="M 0.000000 750.000000 L 79.411758 0.000000 " />
<path stroke-linejoin="round" stroke-linecap="round" stroke="rgb(255,0,0)" stroke-width="3.749996" fill="none" d="M 51.839813 260.401672 L 54.502956 291.027771 " />
<path stroke-linejoin="round" stroke-linecap="round" stroke="rgb(0,0,255)" stroke-width="1.874998" fill="none" d="M 0.000000 750.000000 L 79.166672 0.000000 " />
<path stroke-linejoin="round" stroke-linecap="round" stroke="rgb(255,0,0)" stroke-width="3.749996" fill="none" d="M 51.767551 259.570557 L 51.839813 260.401672 " />
<path stroke-linejoin="round" stroke-linecap="round" stroke="rgb(0,0,255)" stroke-width="1.874998" fill="none" d="M 0.000000 750.000000 L 74.585640 0.000000 " />
<path stroke-linejoin="round" stroke-linecap="round" stroke="rgb(255,0,0)" stroke-width="3.749996" fill="none" d="M 50.370140 243.500320 L 51.767551 259.570557 " />
<path stroke-linejoin="round" stroke-linecap="round" stroke="rgb(0,0,255)" stroke-width="1.874998" fill="none" d="M 0.000000 750.000000 L 71.052635 0.000000 " />
<path stroke-linejoin="round" stroke-linecap="round" stroke="rgb(255,0,0)" stroke-width="3.749996" fill="none" d="M 49.228237 230.368500 L 50.370140 243.500320 " />
<path stroke-linejoin="round" stroke-linecap="round" stroke="rgb(0,0,255)" stroke-width="1.874998" fill="none" d="M 0.000000 750.000000 L 63.750008 0.000000 " />
<path stroke-linejoin="round" stroke-linecap="round" stroke="rgb(255,0,0)" stroke-width="3.749996" fill="none" d="M 46.669678 200.944977 L 49.228237 230.368500 " />
<path stroke-linejoin="round" stroke-linecap="round" stroke="rgb(0,0,255)" stroke-width="1.874998" fill="none" d="M 0.000000 750.000000 L 57.142853 0.000000 " />
<path stroke-linejoin="round" stroke-linecap="round" stroke="rgb(255,0,0)" stroke-width="3.749996" fill="none" d="M 44.091625 171.297363 L 46.669678 200.944977 " />
<path stroke-linejoin="round" stroke-linecap="round" stroke="rgb(0,0,255)" stroke-width="1.874998" fill="none" d="M 0.000000 750.000000 L 56.756748 0.000000 " />
<path stroke-linejoin="round" stroke-linecap="round" stroke="rgb(255,0,0)" stroke-width="3.749996" fill="none" d="M 43.932350 169.465546 L 44.091625 171.297363 " />
<path stroke-linejoin="round" stroke-linecap="round" stroke="rgb(0,0,255)" stroke-width="1.874998" fill="none" d="M 0.000000 750.000000 L 53.571426 0.000000 " />
<path stroke-linejoin="round" stroke-linecap="round" stroke="rgb(255,0,0)" stroke-width="3.749996" fill="none" d="M 42.578682 153.898453 L 43.932350 169.465546 " />
<path stroke-linejoin="round" stroke-linecap="round" stroke="rgb(0,0,255)" stroke-width="1.874998" fill="none" d="M 0.000000 750.000000 L 52.499996 0.000000 " />
<path stroke-linejoin="round" stroke-linecap="round" stroke="rgb(255,0,0)" stroke-width="3.749996" fill="none" d="M 42.106903 148.472870 L 42.578682 153.898407 " />
<path stroke-linejoin="round" stroke-linecap="round" stroke="rgb(0,0,255)" stroke-width="1.874998" fill="none" d="M 0.000000 750.000000 L 51.219509 0.000000 " />
<path stroke-linejoin="round" stroke-linecap="round" stroke="rgb(255,0,0)" stroke-width="3.749996" fill="none" d="M 41.531681 141.857651 L 42.106903 148.472870 " />
<path stroke-linejoin="round" stroke-linecap="round" stroke="rgb(0,0,255)" stroke-width="1.874998" fill="none" d="M 0.000000 750.000000 L 51.047131 0.000000 " />
<path stroke-linejoin="round" stroke-linecap="round" stroke="rgb(255,0,0)" stroke-width="3.749996" fill="none" d="M 41.424664 141.376114 L 41.531681 141.857651 " />
<path stroke-linejoin="round" stroke-linecap="round" stroke="rgb(0,0,255)" stroke-width="1.874998" fill="none" d="M 0.000000 750.000000 L 50.518131 0.000000 " />
<path stroke-linejoin="round" stroke-linecap="round" stroke="rgb(255,0,0)" stroke-width="3.749996" fill="none" d="M 41.095242 139.893600 L 41.424664 141.376068 " />
<path stroke-linejoin="round" stroke-linecap="round" stroke="rgb(0,0,255)" stroke-width="1.874998" fill="none" d="M 0.000000 750.000000 L 49.999996 0.000000 " />
<path stroke-linejoin="round" stroke-linecap="round" stroke="rgb(255,0,0)" stroke-width="3.749996" fill="none" d="M 40.771030 138.434570 L 41.095242 139.893555 " />
<path stroke-linejoin="round" stroke-linecap="round" stroke="rgb(0,0,255)" stroke-width="1.874998" fill="none" d="M 0.000000 750.000000 L 49.492390 0.000000 " />
<path stroke-linejoin="round" stroke-linecap="round" stroke="rgb(255,0,0)" stroke-width="3.749996" fill="none" d="M 40.451870 136.998474 L 40.771030 138.434570 " />
<path stroke-linejoin="round" stroke-linecap="round" stroke="rgb(0,0,255)" stroke-width="1.874998" fill="none" d="M 0.000000 750.000000 L 48.994972 0.000000 " />
<path stroke-linejoin="round" stroke-linecap="round" stroke="rgb(255,0,0)" stroke-width="3.749996" fill="none" d="M 40.137691 135.584641 L 40.451870 136.998474 " />
<path stroke-linejoin="round" stroke-linecap="round" stroke="rgb(0,0,255)" stroke-width="1.874998" fill="none" d="M 0.000000 750.000000 L 45.454548 0.000000 " />
<path stroke-linejoin="round" stroke-linecap="round" stroke="rgb(255,0,0)" stroke-width="3.749996" fill="none" d="M 37.858799 125.329659 L 40.137691 135.584686 " />
<path stroke-linejoin="round" stroke-linecap="round" stroke="rgb(0,0,255)" stroke-width="1.874998" fill="none" d="M 0.000000 750.000000 L 41.457294 0.000000 " />
<path stroke-linejoin="round" stroke-linecap="round" stroke="rgb(255,0,0)" stroke-width="3.749996" fill="none" d="M 35.192684 113.332138 L 37.858799 125.329613 " />
<path stroke-linejoin="round" stroke-linecap="round" stroke="rgb(0,0,255)" stroke-width="1.874998" fill="none" d="M 0.000000 750.000000 L 41.044773 0.000000 " />
<path stroke-linejoin="round" stroke-linecap="round" stroke="rgb(255,0,0)" stroke-width="3.749996" fill="none" d="M 34.911720 112.067703 L 35.192684 113.332138 " />
<path stroke-linejoin="round" stroke-linecap="round" stroke="rgb(0,0,255)" stroke-width="1.874998" fill="none" d="M 0.000000 750.000000 L 40.640385 0.000000 " />
<path stroke-linejoin="round" stroke-linecap="round" stroke="rgb(255,0,0)" stroke-width="3.749996" fill="none" d="M 34.635185 110.823334 L 34.911720 112.067703 " />
<path stroke-linejoin="round" stroke-linecap="round" stroke="rgb(0,0,255)" stroke-width="1.874998" fill="none" d="M 0.000000 750.000000 L 40.243908 0.000000 " />
<path stroke-linejoin="round" stroke-linecap="round" stroke="rgb(255,0,0)" stroke-width="3.749996" fill="none" d="M 34.363010 109.598457 L 34.635185 110.823334 " />
<path stroke-linejoin="round" stroke-linecap="round" stroke="rgb(0,0,255)" stroke-width="1.874998" fill="none" d="M 0.000000 750.000000 L 39.855080 0.000000 " />
<path stroke-linejoin="round" stroke-linecap="round" stroke="rgb(255,0,0)" stroke-width="3.749996" fill="none" d="M 34.095078 108.392761 L 34.363010 109.598457 " />
<path stroke-linejoin="round" stroke-linecap="round" stroke="rgb(0,0,255)" stroke-width="1.874998" fill="none" d="M 0.000000 750.000000 L 39.473690 0.000000 " />
<path stroke-linejoin="round" stroke-linecap="round" stroke="rgb(255,0,0)" stroke-width="3.749996" fill="none" d="M 33.831284 107.205658 L 34.095078 108.392761 " />
<path stroke-linejoin="round" stroke-linecap="round" stroke="rgb(0,0,255)" stroke-width="1.874998" fill="none" d="M 0.000000 750.000000 L 36.057697 0.000000 " />
<path stroke-linejoin="round" stroke-linecap="round" stroke="rgb(255,0,0)" stroke-width="3.749996" fill="none" d="M 31.424314 96.374359 L 33.831284 107.205658 " />
<path stroke-linejoin="round" stroke-linecap="round" stroke="rgb(0,0,255)" stroke-width="1.874998" fill="none" d="M 0.000000 750.000000 L 32.296658 0.000000 " />
<path stroke-linejoin="round" stroke-linecap="round" stroke="rgb(255,0,0)" stroke-width="3.749996" fill="none" d="M 28.678625 84.018723 L 31.424314 96.374359 " />
<path stroke-linejoin="round" stroke-linecap="round" stroke="rgb(0,0,255)" stroke-width="1.874998" fill="none" d="M 0.000000 750.000000 L 31.990528 0.000000 " />
<path stroke-linejoin="round" stroke-linecap="round" stroke="rgb(255,0,0)" stroke-width="3.749996" fill="none" d="M 28.450548 82.992416 L 28.678625 84.018723 " />
<path stroke-linejoin="round" stroke-linecap="round" stroke="rgb(0,0,255)" stroke-width="1.874998" fill="none" d="M 0.000000 750.000000 L 31.690144 0.000000 " />
<path stroke-linejoin="round" stroke-linecap="round" stroke="rgb(255,0,0)" stroke-width="3.749996" fill="none" d="M 28.226093 81.982346 L 28.450548 82.992416 " />
<path stroke-linejoin="round" stroke-linecap="round" stroke="rgb(0,0,255)" stroke-width="1.874998" fill="none" d="M 0.000000 750.000000 L 28.037376 0.000000 " />
<path stroke-linejoin="round" stroke-linecap="round" stroke="rgb(255,0,0)" stroke-width="3.749996" fill="none" d="M 25.441111 69.449989 L 28.226093 81.982346 " />
<path stroke-linejoin="round" stroke-linecap="round" stroke="rgb(0,0,255)" stroke-width="1.874998" fill="none" d="M 0.000000 750.000000 L 27.777784 0.000000 " />
<path stroke-linejoin="round" stroke-linecap="round" stroke="rgb(255,0,0)" stroke-width="3.749996" fill="none" d="M 25.239206 68.541351 L 25.441111 69.449989 " />
<path stroke-linejoin="round" stroke-linecap="round" stroke="rgb(0,0,255)" stroke-width="1.874998" fill="none" d="M 0.000000 750.000000 L 24.193548 0.000000 " />
<path stroke-linejoin="round" stroke-linecap="round" stroke="rgb(255,0,0)" stroke-width="3.749996" fill="none" d="M 22.395350 55.744083 L 25.239206 68.541351 " />
<path stroke-linejoin="round" stroke-linecap="round" stroke="rgb(0,0,255)" stroke-width="1.874998" fill="none" d="M 0.000000 750.000000 L 23.972601 0.000000 " />
<path stroke-linejoin="round" stroke-linecap="round" stroke="rgb(255,0,0)" stroke-width="3.749996" fill="none" d="M 22.216558 54.939419 L 22.395350 55.744083 " />
<path stroke-linejoin="round" stroke-linecap="round" stroke="rgb(0,0,255)" stroke-width="1.874998" fill="none" d="M 0.000000 750.000000 L 23.542599 0.000000 " />
<path stroke-linejoin="round" stroke-linecap="round" stroke="rgb(255,0,0)" stroke-width="3.749996" fill="none" d="M 21.867380 53.368092 L 22.216558 54.939419 " />
<path stroke-linejoin="round" stroke-linecap="round" stroke="rgb(0,0,255)" stroke-width="1.874998" fill="none" d="M 0.000000 750.000000 L 23.333342 0.000000 " />
<path stroke-linejoin="round" stroke-linecap="round" stroke="rgb(255,0,0)" stroke-width="3.749996" fill="none" d="M 21.696857 52.600800 L 21.867380 53.368092 " />
<path stroke-linejoin="round" stroke-linecap="round" stroke="rgb(0,0,255)" stroke-width="1.874998" fill="none" d="M 0.000000 750.000000 L 23.127750 0.000000 " />
<path stroke-linejoin="round" stroke-linecap="round" stroke="rgb(255,0,0)" stroke-width="3.749996" fill="none" d="M 21.528997 51.845402 L 21.696857 52.600800 " />
<path stroke-linejoin="round" stroke-linecap="round" stroke="rgb(0,0,255)" stroke-width="1.874998" fill="none" d="M 0.000000 750.000000 L 22.925756 0.000000 " />
<path stroke-linejoin="round" stroke-linecap="round" stroke="rgb(255,0,0)" stroke-width="3.749996" fill="none" d="M 21.363705 51.101624 L 21.528997 51.845402 " />
<path stroke-linejoin="round" stroke-linecap="round" stroke="rgb(0,0,255)" stroke-width="1.874998" fill="none" d="M 0.000000 750.000000 L 19.911512 0.000000 " />
<path stroke-linejoin="round" stroke-linecap="round" stroke="rgb(255,0,0)" stroke-width="3.749996" fill="none" d="M 18.854588 39.810596 L 21.363705 51.101624 " />
<path stroke-linejoin="round" stroke-linecap="round" stroke="rgb(0,0,255)" stroke-width="1.874998" fill="none" d="M 0.000000 750.000000 L 16.519815 0.000000 " />
<path stroke-linejoin="round" stroke-linecap="round" stroke="rgb(255,0,0)" stroke-width="3.749996" fill="none" d="M 15.838713 30.922741 L 18.854588 39.810596 " />
<path stroke-linejoin="round" stroke-linecap="round" stroke="rgb(0,0,255)" stroke-width="1.874998" fill="none" d="M 0.000000 750.000000 L 13.157889 0.000000 " />
<path stroke-linejoin="round" stroke-linecap="round" stroke="rgb(255,0,0)" stroke-width="3.749996" fill="none" d="M 12.740247 23.805767 L 15.838713 30.922695 " />
<path stroke-linejoin="round" stroke-linecap="round" stroke="rgb(0,0,255)" stroke-width="1.874998" fill="none" d="M 0.000000 750.000000 L 9.825334 0.000000 " />
<path stroke-linejoin="round" stroke-linecap="round" stroke="rgb(255,0,0)" stroke-width="3.749996" fill="none" d="M 9.592205 17.794804 L 12.740247 23.805767 " />
<path stroke-linejoin="round" stroke-linecap="round" stroke="rgb(0,0,255)" stroke-width="1.874998" fill="none" d="M 0.000000 750.000000 L 9.740263 0.000000 " />
<path stroke-linejoin="round" stroke-linecap="round" stroke="rgb(255,0,0)" stroke-width="3.749996" fill="none" d="M 9.513751 17.441734 L 9.592205 17.794804 " />
<path stroke-linejoin="round" stroke-linecap="round" stroke="rgb(0,0,255)" stroke-width="1.874998" fill="none" d="M 0.000000 750.000000 L 9.656646 0.000000 " />
<path stroke-linejoin="round" stroke-linecap="round" stroke="rgb(255,0,0)" stroke-width="3.749996" fill="none" d="M 9.436548 17.094343 L 9.513751 17.441734 " />
<path stroke-linejoin="round" stroke-linecap="round" stroke="rgb(0,0,255)" stroke-width="1.874998" fill="none" d="M 0.000000 750.000000 L 6.410256 0.000000 " />
<path stroke-linejoin="round" stroke-linecap="round" stroke="rgb(255,0,0)" stroke-width="3.749996" fill="none" d="M 6.307505 12.020767 L 9.436548 17.094343 " />
<path stroke-linejoin="round" stroke-linecap="round" stroke="rgb(0,0,255)" stroke-width="1.874998" fill="none" d="M 0.000000 750.000000 L 3.191494 0.000000 " />
<path stroke-linejoin="round" stroke-linecap="round" stroke="rgb(255,0,0)" stroke-width="3.749996" fill="none" d="M 3.159843 7.436469 L 6.307505 12.020767 " />
<path stroke-linejoin="round" stroke-linecap="round" stroke="rgb(0,0,255)" stroke-width="1.874998" fill="none" d="M 0.000000 750.000000 L 0.000000 0.000000 " />
<path stroke-linejoin="round" stroke-linecap="round" stroke="rgb(255,0,0)" stroke-width="3.749996" fill="none" d="M 0.000000 0.000000 L 3.159843 7.436469 " />
<circle cx="91.569766" cy="717.296518" r="3.749996" style="fill:rgb(0,127,0);stroke-width:1" /><circle cx="89.071915" cy="688.571088" r="3.749996" style="fill:rgb(0,127,0);stroke-width:1" /><circle cx="86.366951" cy="657.463990" r="3.749996" style="fill:rgb(0,127,0);stroke-width:1" /><circle cx="83.638832" cy="626.090616" r="3.749996" style="fill:rgb(0,127,0);stroke-width:1" /><circle cx="80.887266" cy="594.447568" r="3.749996" style="fill:rgb(0,127,0);stroke-width:1" /><circle cx="78.111961" cy="562.531315" r="3.749996" style="fill:rgb(0,127,0);stroke-width:1" /><circle cx="76.503150" cy="544.029996" r="3.749996" style="fill:rgb(0,127,0);stroke-width:1" /><circle cx="73.860973" cy="513.644904" r="3.749996" style="fill:rgb(0,127,0);stroke-width:1" /><circle cx="71.197137" cy="483.010747" r="3.749996" style="fill:rgb(0,127,0);stroke-width:1" /><circle cx="68.511374" cy="452.124484" r="3.749996" style="fill:rgb(0,127,0);stroke-width:1" /><circle cx="65.803416" cy="420.982942" r="3.749996" style="fill:rgb(0,127,0);stroke-width:1" /><circle cx="64.947702" cy="411.142386" r="3.749996" style="fill:rgb(0,127,0);stroke-width:1" /><circle cx="62.367193" cy="381.466582" r="3.749996" style="fill:rgb(0,127,0);stroke-width:1" /><circle cx="61.736450" cy="374.212950" r="3.749996" style="fill:rgb(0,127,0);stroke-width:1" /><circle cx="59.766389" cy="351.557359" r="3.749996" style="fill:rgb(0,127,0);stroke-width:1" /><circle cx="57.145067" cy="321.412057" r="3.749996" style="fill:rgb(0,127,0);stroke-width:1" /><circle cx="54.502957" cy="291.027769" r="3.749996" style="fill:rgb(0,127,0);stroke-width:1" /><circle cx="51.839814" cy="260.401681" r="3.749996" style="fill:rgb(0,127,0);stroke-width:1" /><circle cx="51.767550" cy="259.570554" r="3.749996" style="fill:rgb(0,127,0);stroke-width:1" /><circle cx="50.370142" cy="243.500322" r="3.749996" style="fill:rgb(0,127,0);stroke-width:1" /><circle cx="49.228236" cy="230.368495" r="3.749996" style="fill:rgb(0,127,0);stroke-width:1" /><circle cx="46.669677" cy="200.944975" r="3.749996" style="fill:rgb(0,127,0);stroke-width:1" /><circle cx="44.091627" cy="171.297356" r="3.749996" style="fill:rgb(0,127,0);stroke-width:1" /><circle cx="43.932348" cy="169.465542" r="3.749996" style="fill:rgb(0,127,0);stroke-width:1" /><circle cx="42.578682" cy="153.898448" r="3.749996" style="fill:rgb(0,127,0);stroke-width:1" /><circle cx="42.106904" cy="148.472875" r="3.749996" style="fill:rgb(0,127,0);stroke-width:1" /><circle cx="41.531682" cy="141.857654" r="3.749996" style="fill:rgb(0,127,0);stroke-width:1" /><circle cx="41.424662" cy="141.376108" r="3.749996" style="fill:rgb(0,127,0);stroke-width:1" /><circle cx="41.095242" cy="139.893606" r="3.749996" style="fill:rgb(0,127,0);stroke-width:1" /><circle cx="40.771030" cy="138.434574" r="3.749996" style="fill:rgb(0,127,0);stroke-width:1" /><circle cx="40.451869" cy="136.998475" r="3.749996" style="fill:rgb(0,127,0);stroke-width:1" /><circle cx="40.137693" cy="135.584638" r="3.749996" style="fill:rgb(0,127,0);stroke-width:1" /><circle cx="37.858799" cy="125.329658" r="3.749996" style="fill:rgb(0,127,0);stroke-width:1" /><circle cx="35.192683" cy="113.332137" r="3.749996" style="fill:rgb(0,127,0);stroke-width:1" /><circle cx="34.911722" cy="112.067699" r="3.749996" style="fill:rgb(0,127,0);stroke-width:1" /><circle cx="34.635186" cy="110.823333" r="3.749996" style="fill:rgb(0,127,0);stroke-width:1" /><circle cx="34.363009" cy="109.598458" r="3.749996" style="fill:rgb(0,127,0);stroke-width:1" /><circle cx="34.095079" cy="108.392760" r="3.749996" style="fill:rgb(0,127,0);stroke-width:1" /><circle cx="33.831283" cy="107.205659" r="3.749996" style="fill:rgb(0,127,0);stroke-width:1" /><circle cx="31.424314" cy="96.374363" r="3.749996" style="fill:rgb(0,127,0);stroke-width:1" /><circle cx="28.678626" cy="84.018722" r="3.749996" style="fill:rgb(0,127,0);stroke-width:1" /><circle cx="28.450549" cy="82.992420" r="3.749996" style="fill:rgb(0,127,0);stroke-width:1" /><circle cx="28.226092" cy="81.982344" r="3.749996" style="fill:rgb(0,127,0);stroke-width:1" /><circle cx="25.441110" cy="69.449991" r="3.749996" style="fill:rgb(0,127,0);stroke-width:1" /><circle cx="25.239207" cy="68.541348" r="3.749996" style="fill:rgb(0,127,0);stroke-width:1" /><circle cx="22.395350" cy="55.744082" r="3.749996" style="fill:rgb(0,127,0);stroke-width:1" /><circle cx="22.216558" cy="54.939419" r="3.749996" style="fill:rgb(0,127,0);stroke-width:1" /><circle cx="21.867380" cy="53.368092" r="3.749996" style="fill:rgb(0,127,0);stroke-width:1" /><circle cx="21.696858" cy="52.600801" r="3.749996" style="fill:rgb(0,127,0);stroke-width:1" /><circle cx="21.528997" cy="51.845402" r="3.749996" style="fill:rgb(0,127,0);stroke-width:1" /><circle cx="21.363705" cy="51.101625" r="3.749996" style="fill:rgb(0,127,0);stroke-width:1" /><circle cx="18.854588" cy="39.810598" r="3.749996" style="fill:rgb(0,127,0);stroke-width:1" /><circle cx="15.838712" cy="30.922741" r="3.749996" style="fill:rgb(0,127,0);stroke-width:1" /><circle cx="12.740247" cy="23.805767" r="3.749996" style="fill:rgb(0,127,0);stroke-width:1" /><circle cx="9.592205" cy="17.794803" r="3.749996" style="fill:rgb(0,127,0);stroke-width:1" /><circle cx="9.513751" cy="17.441735" r="3.749996" style="fill:rgb(0,127,0);stroke-width:1" /><circle cx="9.436548" cy="17.094344" r="3.749996" style="fill:rgb(0,127,0);stroke-width:1" /><circle cx="6.307505" cy="12.020767" r="3.749996" style="fill:rgb(0,127,0);stroke-width:1" /><circle cx="3.159821" cy="7.436469" r="3.750008" style="fill:rgb(0,127,0);stroke-width:1" /><circle cx="750.000000" cy="750.000000" r="3.749996" style="fill:rgb(0,127,0);stroke-width:1" /><path stroke-linejoin="round" stroke-linecap="round" stroke="rgb(255,255,255)" stroke-width="3.749996" fill="none" d="M 0.000000 750.000000 L 750.000000 750.000000 M 0.000000 750.000000 L 0.000000 0.000000 " />

</svg>