<svg xmlns="http://www.w3.org/2000/svg" version="1.1" width = "750" height = "750" viewBox = "0 0 750 750"  shape-rendering="crispEdges">
<path stroke-linejoin="round" stroke-linecap="round" stroke="rgb(255,255,0)" stroke-width="3.749996" fill="none" d="M 93.750000 750.000000 L 0.000000 0.000000 " />
<path stroke-linejoin="round" stroke-linecap="round" stroke="rgb(63,63,63)" stroke-width="3.749996" fill="none" d="M 0.000000 0.000000 L 750.000000 750.000000 M 93.750000 750.000000 L 43.750004 0.000000 " />
<path stroke-linejoin="round" stroke-linecap="round" stroke="rgb(191,191,191)" stroke-width="3.749996" fill="none" d="M 0.000000 656.250000 L 93.750000 750.000000 M 0.000000 0.000000 L 49.999996 750.000000 " />
<path stroke-linejoin="round" stroke-linecap="round" stroke="rgb(0,0,255)" stroke-width="1.874998" fill="none" d="M 0.000000 750.000000 L 750.000000 499.999969 " />
<path stroke-linejoin="round" stroke-linecap="round" stroke="rgb(255,0,0)" stroke-width="3.749996" fill="none" d="M 91.711945 719.429321 L 93.750000 750.000000 " />
<path stroke-linejoin="round" stroke-linecap="round" stroke="rgb(0,0,255)" stroke-width="1.874998" fill="none" d="M 0.000000 750.000000 L 750.000000 232.758606 " />
<path stroke-linejoin="round" stroke-linecap="round" stroke="rgb(255,0,0)" stroke-width="3.749996" fill="none" d="M 89.031059 688.599243 L 91.711945 719.429321 " />
<path stroke-linejoin="round" stroke-linecap="round" stroke="rgb(0,0,255)" stroke-width="1.874998" fill="none" d="M 0.000000 750.000000 L 700.000000 0.000000 " />
<path stroke-linejoin="round" stroke-linecap="round" stroke="rgb(255,0,0)" stroke-width="3.749996" fill="none" d="M 86.327347 657.506409 L 89.031059 688.599243 " />
<path stroke-linejoin="round" stroke-linecap="round" stroke="rgb(0,0,255)" stroke-width="1.874998" fill="none" d="M 0.000000 750.000000 L 543.750000 0.000000 " />
<path stroke-linejoin="round" stroke-linecap="round" stroke="rgb(255,0,0)" stroke-width="3.749996" fill="none" d="M 84.263672 633.774231 L 86.327347 657.506409 " />
<path stroke-linejoin="round" stroke-linecap="round" stroke="rgb(0,0,255)" stroke-width="1.874998" fill="none" d="M 0.000000 750.000000 L 506.250000 0.000000 " />
<path stroke-linejoin="round" stroke-linecap="round" stroke="rgb(255,0,0)" stroke-width="3.749996" fill="none" d="M 83.600479 626.147461 L 84.263672 633.774231 " />
<path stroke-linejoin="round" stroke-linecap="round" stroke="rgb(0,0,255)" stroke-width="1.874998" fill="none" d="M 0.000000 750.000000 L 390.000031 0.000000 " />
<path stroke-linejoin="round" stroke-linecap="round" stroke="rgb(255,0,0)" stroke-width="3.749996" fill="none" d="M 80.850182 594.518921 L 83.600479 626.147461 " />
<path stroke-linejoin="round" stroke-linecap="round" stroke="rgb(0,0,255)" stroke-width="1.874998" fill="none" d="M 0.000000 750.000000 L 312.500000 0.000000 " />
<path stroke-linejoin="round" stroke-linecap="round" stroke="rgb(255,0,0)" stroke-width="3.749996" fill="none" d="M 78.076134 562.617310 L 80.850182 594.518921 " />
<path stroke-linejoin="round" stroke-linecap="round" stroke="rgb(0,0,255)" stroke-width="1.874998" fill="none" d="M 0.000000 750.000000 L 257.142853 0.000000 " />
<path stroke-linejoin="round" stroke-linecap="round" stroke="rgb(255,0,0)" stroke-width="3.749996" fill="none" d="M 75.278030 530.439087 L 78.076134 562.617310 " />
<path stroke-linejoin="round" stroke-linecap="round" stroke="rgb(0,0,255)" stroke-width="1.874998" fill="none" d="M 0.000000 750.000000 L 215.625015 0.000000 " />
<path stroke-linejoin="round" stroke-linecap="round" stroke="rgb(255,0,0)" stroke-width="3.749996" fill="none" d="M 72.455544 497.980713 L 75.278030 530.439087 " />
<path stroke-linejoin="round" stroke-linecap="round" stroke="rgb(0,0,255)" stroke-width="1.874998" fill="none" d="M 0.000000 750.000000 L 183.333328 0.000000 " />
<path stroke-linejoin="round" stroke-linecap="round" stroke="rgb(255,0,0)" stroke-width="3.749996" fill="none" d="M 69.608398 465.238373 L 72.455544 497.980713 " />
<path stroke-linejoin="round" stroke-linecap="round" stroke="rgb(0,0,255)" stroke-width="1.874998" fill="none" d="M 0.000000 750.000000 L 172.500015 0.000000 " />
<path stroke-linejoin="round" stroke-linecap="round" stroke="rgb(255,0,0)" stroke-width="3.749996" fill="none" d="M 68.479950 452.261108 L 69.608398 465.238373 " />
<path stroke-linejoin="round" stroke-linecap="round" stroke="rgb(0,0,255)" stroke-width="1.874998" fill="none" d="M 0.000000 750.000000 L 157.500000 0.000000 " />
<path stroke-linejoin="round" stroke-linecap="round" stroke="rgb(255,0,0)" stroke-width="3.749996" fill="none" d="M 66.736221 432.208466 L 68.479950 452.261108 " />
<path stroke-linejoin="round" stroke-linecap="round" stroke="rgb(0,0,255)" stroke-width="1.874998" fill="none" d="M 0.000000 750.000000 L 136.363647 0.000000 " />
<path stroke-linejoin="round" stroke-linecap="round" stroke="rgb(255,0,0)" stroke-width="3.749996" fill="none" d="M 63.838722 398.887024 L 66.736221 432.208466 " />
<path stroke-linejoin="round" stroke-linecap="round" stroke="rgb(0,0,255)" stroke-width="1.874998" fill="none" d="M 0.000000 750.000000 L 131.250015 0.000000 " />
<path stroke-linejoin="round" stroke-linecap="round" stroke="rgb(255,0,0)" stroke-width="3.749996" fill="none" d="M 63.044025 389.748352 L 63.838722 398.887024 " />
<path stroke-linejoin="round" stroke-linecap="round" stroke="rgb(0,0,255)" stroke-width="1.874998" fill="none" d="M 0.000000 750.000000 L 115.384605 0.000000 " />
<path stroke-linejoin="round" stroke-linecap="round" stroke="rgb(255,0,0)" stroke-width="3.749996" fill="none" d="M 60.292126 358.101288 L 63.044025 389.748383 " />
<path stroke-linejoin="round" stroke-linecap="round" stroke="rgb(0,0,255)" stroke-width="1.874998" fill="none" d="M 0.000000 750.000000 L 112.500008 0.000000 " />
<path stroke-linejoin="round" stroke-linecap="round" stroke="rgb(255,0,0)" stroke-width="3.749996" fill="none" d="M 59.738987 351.740143 L 60.292126 358.101288 " />
<path stroke-linejoin="round" stroke-linecap="round" stroke="rgb(0,0,255)" stroke-width="1.874998" fill="none" d="M 0.000000 750.000000 L 99.999992 0.000000 " />
<path stroke-linejoin="round" stroke-linecap="round" stroke="rgb(255,0,0)" stroke-width="3.749996" fill="none" d="M 57.118847 321.608612 L 59.738987 351.740112 " />
<path stroke-linejoin="round" stroke-linecap="round" stroke="rgb(0,0,255)" stroke-width="1.874998" fill="none" d="M 0.000000 750.000000 L 89.062508 0.000000 " />
<path stroke-linejoin="round" stroke-linecap="round" stroke="rgb(255,0,0)" stroke-width="3.749996" fill="none" d="M 54.477943 291.238281 L 57.118847 321.608612 " />
<path stroke-linejoin="round" stroke-linecap="round" stroke="rgb(0,0,255)" stroke-width="1.874998" fill="none" d="M 0.000000 750.000000 L 79.411758 0.000000 " />
<path stroke-linejoin="round" stroke-linecap="round" stroke="rgb(255,0,0)" stroke-width="3.749996" fill="none" d="M 51.816032 260.626282 L 54.477943 291.238281 " />
<path stroke-linejoin="round" stroke-linecap="round" stroke="rgb(0,0,255)" stroke-width="1.874998" fill="none" d="M 0.000000 750.000000 L 79.166672 0.000000 " />
<path stroke-linejoin="round" stroke-linecap="round" stroke="rgb(255,0,0)" stroke-width="3.749996" fill="none" d="M 51.743813 259.795502 L 51.816032 260.626282 " />
<path stroke-linejoin="round" stroke-linecap="round" stroke="rgb(0,0,255)" stroke-width="1.874998" fill="none" d="M 0.000000 750.000000 L 70.833344 0.000000 " />
<path stroke-linejoin="round" stroke-linecap="round" stroke="rgb(255,0,0)" stroke-width="3.749996" fill="none" d="M 49.132862 229.769653 L 51.743813 259.795502 " />
<path stroke-linejoin="round" stroke-linecap="round" stroke="rgb(0,0,255)" stroke-width="1.874998" fill="none" d="M 0.000000 750.000000 L 63.750008 0.000000 " />
<path stroke-linejoin="round" stroke-linecap="round" stroke="rgb(255,0,0)" stroke-width="3.749996" fill="none" d="M 46.648262 201.196793 L 49.132885 229.769608 " />
<path stroke-linejoin="round" stroke-linecap="round" stroke="rgb(0,0,255)" stroke-width="1.874998" fill="none" d="M 0.000000 750.000000 L 57.142853 0.000000 " />
<path stroke-linejoin="round" stroke-linecap="round" stroke="rgb(255,0,0)" stroke-width="3.749996" fill="none" d="M 44.071400 171.562805 L 46.648262 201.196793 " />
<path stroke-linejoin="round" stroke-linecap="round" stroke="rgb(0,0,255)" stroke-width="1.874998" fill="none" d="M 0.000000 750.000000 L 51.136360 0.000000 " />
<path stroke-linejoin="round" stroke-linecap="round" stroke="rgb(255,0,0)" stroke-width="3.749996" fill="none" d="M 41.474842 141.702316 L 44.071400 171.562805 " />
<path stroke-linejoin="round" stroke-linecap="round" stroke="rgb(0,0,255)" stroke-width="1.874998" fill="none" d="M 0.000000 750.000000 L 45.652180 0.000000 " />
<path stroke-linejoin="round" stroke-linecap="round" stroke="rgb(255,0,0)" stroke-width="3.749996" fill="none" d="M 38.858345 111.612709 L 41.474842 141.702316 " />
<path stroke-linejoin="round" stroke-linecap="round" stroke="rgb(0,0,255)" stroke-width="1.874998" fill="none" d="M 0.000000 750.000000 L 40.625008 0.000000 " />
<path stroke-linejoin="round" stroke-linecap="round" stroke="rgb(255,0,0)" stroke-width="3.749996" fill="none" d="M 36.221714 81.291405 L 38.858345 111.612709 " />
<path stroke-linejoin="round" stroke-linecap="round" stroke="rgb(0,0,255)" stroke-width="1.874998" fill="none" d="M 0.000000 750.000000 L 38.844624 0.000000 " />
<path stroke-linejoin="round" stroke-linecap="round" stroke="rgb(255,0,0)" stroke-width="3.749996" fill="none" d="M 35.226860 69.850578 L 36.221714 81.291405 " />
<path stroke-linejoin="round" stroke-linecap="round" stroke="rgb(0,0,255)" stroke-width="1.874998" fill="none" d="M 0.000000 750.000000 L 37.500008 0.000000 " />
<path stroke-linejoin="round" stroke-linecap="round" stroke="rgb(255,0,0)" stroke-width="3.749996" fill="none" d="M 34.452641 60.947121 L 35.226860 69.850578 " />
<path stroke-linejoin="round" stroke-linecap="round" stroke="rgb(0,0,255)" stroke-width="1.874998" fill="none" d="M 0.000000 750.000000 L 33.333332 0.000000 " />
<path stroke-linejoin="round" stroke-linecap="round" stroke="rgb(255,0,0)" stroke-width="3.749996" fill="none" d="M 31.703487 36.671741 L 34.452641 60.947166 " />
<path stroke-linejoin="round" stroke-linecap="round" stroke="rgb(0,0,255)" stroke-width="1.874998" fill="none" d="M 0.000000 750.000000 L 33.266144 0.000000 " />
<path stroke-linejoin="round" stroke-linecap="round" stroke="rgb(255,0,0)" stroke-width="3.749996" fill="none" d="M 31.650200 36.431908 L 31.703487 36.671741 " />
<path stroke-linejoin="round" stroke-linecap="round" stroke="rgb(0,0,255)" stroke-width="1.874998" fill="none" d="M 0.000000 750.000000 L 33.000000 0.000000 " />
<path stroke-linejoin="round" stroke-linecap="round" stroke="rgb(255,0,0)" stroke-width="3.749996" fill="none" d="M 31.438843 35.480751 L 31.650200 36.431866 " />
<path stroke-linejoin="round" stroke-linecap="round" stroke="rgb(0,0,255)" stroke-width="1.874998" fill="none" d="M 0.000000 750.000000 L 32.738106 0.000000 " />
<path stroke-linejoin="round" stroke-linecap="round" stroke="rgb(255,0,0)" stroke-width="3.749996" fill="none" d="M 31.230301 34.542248 L 31.438843 35.480751 " />
<path stroke-linejoin="round" stroke-linecap="round" stroke="rgb(0,0,255)" stroke-width="1.874998" fill="none" d="M 0.000000 750.000000 L 32.480320 0.000000 " />
<path stroke-linejoin="round" stroke-linecap="round" stroke="rgb(255,0,0)" stroke-width="3.749996" fill="none" d="M 31.024487 33.616127 L 31.230301 34.542248 " />
<path stroke-linejoin="round" stroke-linecap="round" stroke="rgb(0,0,255)" stroke-width="1.874998" fill="none" d="M 0.000000 750.000000 L 32.226562 0.000000 " />
<path stroke-linejoin="round" stroke-linecap="round" stroke="rgb(255,0,0)" stroke-width="3.749996" fill="none" d="M 30.821398 32.702209 L 31.024487 33.616127 " />
<path stroke-linejoin="round" stroke-linecap="round" stroke="rgb(0,0,255)" stroke-width="1.874998" fill="none" d="M 0.000000 750.000000 L 31.976738 0.000000 " />
<path stroke-linejoin="round" stroke-linecap="round" stroke="rgb(255,0,0)" stroke-width="3.749996" fill="none" d="M 30.617929 31.870365 L 30.821398 32.702251 " />
<path stroke-linejoin="round" stroke-linecap="round" stroke="rgb(0,0,255)" stroke-width="1.874998" fill="none" d="M 0.000000 750.000000 L 31.730778 0.000000 " />
<path stroke-linejoin="round" stroke-linecap="round" stroke="rgb(255,0,0)" stroke-width="3.749996" fill="none" d="M 30.407265 31.283007 L 30.617929 31.870365 " />
<path stroke-linejoin="round" stroke-linecap="round" stroke="rgb(0,0,255)" stroke-width="1.874998" fill="none" d="M 0.000000 750.000000 L 29.182880 0.000000 " />
<path stroke-linejoin="round" stroke-linecap="round" stroke="rgb(255,0,0)" stroke-width="3.749996" fill="none" d="M 28.065384 28.719843 L 30.407265 31.282961 " />
<path stroke-linejoin="round" stroke-linecap="round" stroke="rgb(0,0,255)" stroke-width="1.874998" fill="none" d="M 0.000000 750.000000 L 28.957531 0.000000 " />
<path stroke-linejoin="round" stroke-linecap="round" stroke="rgb(255,0,0)" stroke-width="3.749996" fill="none" d="M 27.863369 28.338566 L 28.065384 28.719843 " />
<path stroke-linejoin="round" stroke-linecap="round" stroke="rgb(0,0,255)" stroke-width="1.874998" fill="none" d="M 0.000000 750.000000 L 28.735622 0.000000 " />
<path stroke-linejoin="round" stroke-linecap="round" stroke="rgb(255,0,0)" stroke-width="3.749996" fill="none" d="M 27.662426 28.010756 L 27.863369 28.338612 " />
<path stroke-linejoin="round" stroke-linecap="round" stroke="rgb(0,0,255)" stroke-width="1.874998" fill="none" d="M 0.000000 750.000000 L 28.517113 0.000000 " />
<path stroke-linejoin="round" stroke-linecap="round" stroke="rgb(255,0,0)" stroke-width="3.749996" fill="none" d="M 27.463116 27.720093 L 27.662426 28.010756 " />
<path stroke-linejoin="round" stroke-linecap="round" stroke="rgb(0,0,255)" stroke-width="1.874998" fill="none" d="M 0.000000 750.000000 L 25.568180 0.000000 " />
<path stroke-linejoin="round" stroke-linecap="round" stroke="rgb(255,0,0)" stroke-width="3.749996" fill="none" d="M 24.718925 24.911509 L 27.463116 27.720093 " />
<path stroke-linejoin="round" stroke-linecap="round" stroke="rgb(0,0,255)" stroke-width="1.874998" fill="none" d="M 0.000000 750.000000 L 22.641510 0.000000 " />
<path stroke-linejoin="round" stroke-linecap="round" stroke="rgb(255,0,0)" stroke-width="3.749996" fill="none" d="M 21.973797 22.118122 L 24.718925 24.911419 " />
<path stroke-linejoin="round" stroke-linecap="round" stroke="rgb(0,0,255)" stroke-width="1.874998" fill="none" d="M 0.000000 750.000000 L 22.471905 0.000000 " />
<path stroke-linejoin="round" stroke-linecap="round" stroke="rgb(255,0,0)" stroke-width="3.749996" fill="none" d="M 21.815054 21.922588 L 21.973797 22.118122 " />
<path stroke-linejoin="round" stroke-linecap="round" stroke="rgb(0,0,255)" stroke-width="1.874998" fill="none" d="M 0.000000 750.000000 L 22.304825 0.000000 " />
<path stroke-linejoin="round" stroke-linecap="round" stroke="rgb(255,0,0)" stroke-width="3.749996" fill="none" d="M 21.658323 21.738544 L 21.815054 21.922455 " />
<path stroke-linejoin="round" stroke-linecap="round" stroke="rgb(0,0,255)" stroke-width="1.874998" fill="none" d="M 0.000000 750.000000 L 19.444450 0.000000 " />
<path stroke-linejoin="round" stroke-linecap="round" stroke="rgb(255,0,0)" stroke-width="3.749996" fill="none" d="M 18.951550 19.011721 L 21.658323 21.738544 " />
<path stroke-linejoin="round" stroke-linecap="round" stroke="rgb(0,0,255)" stroke-width="1.874998" fill="none" d="M 0.000000 750.000000 L 16.605177 0.000000 " />
<path stroke-linejoin="round" stroke-linecap="round" stroke="rgb(255,0,0)" stroke-width="3.749996" fill="none" d="M 16.244509 16.289637 L 18.951550 19.011721 " />
<path stroke-linejoin="round" stroke-linecap="round" stroke="rgb(0,0,255)" stroke-width="1.874998" fill="none" d="M 0.000000 750.000000 L 13.786756 0.000000 " />
<path stroke-linejoin="round" stroke-linecap="round" stroke="rgb(255,0,0)" stroke-width="3.749996" fill="none" d="M 13.537288 13.571128 L 16.244509 16.289637 " />
<path stroke-linejoin="round" stroke-linecap="round" stroke="rgb(0,0,255)" stroke-width="1.874998" fill="none" d="M 0.000000 750.000000 L 10.989010 0.000000 " />
<path stroke-linejoin="round" stroke-linecap="round" stroke="rgb(255,0,0)" stroke-width="3.749996" fill="none" d="M 10.829955 10.855302 L 13.537288 13.571128 " />
<path stroke-linejoin="round" stroke-linecap="round" stroke="rgb(0,0,255)" stroke-width="1.874998" fill="none" d="M 0.000000 750.000000 L 10.909081 0.000000 " />
<path stroke-linejoin="round" stroke-linecap="round" stroke="rgb(255,0,0)" stroke-width="3.749996" fill="none" d="M 10.752418 10.771349 L 10.829955 10.855302 " />
<path stroke-linejoin="round" stroke-linecap="round" stroke="rgb(0,0,255)" stroke-width="1.874998" fill="none" d="M 0.000000 750.000000 L 10.830336 0.000000 " />
<path stroke-linejoin="round" stroke-linecap="round" stroke="rgb(255,0,0)" stroke-width="3.749996" fill="none" d="M 10.675952 10.690212 L 10.752418 10.771349 " />
<path stroke-linejoin="round" stroke-linecap="round" stroke="rgb(0,0,255)" stroke-width="1.874998" fill="none" d="M 0.000000 750.000000 L 8.093521 0.000000 " />
<path stroke-linejoin="round" stroke-linecap="round" stroke="rgb(255,0,0)" stroke-width="3.749996" fill="none" d="M 8.006997 8.017659 L 10.675952 10.690212 " />
<path stroke-linejoin="round" stroke-linecap="round" stroke="rgb(0,0,255)" stroke-width="1.874998" fill="none" d="M 0.000000 750.000000 L 8.035719 0.000000 " />
<path stroke-linejoin="round" stroke-linecap="round" stroke="rgb(255,0,0)" stroke-width="3.749996" fill="none" d="M 7.950448 7.958472 L 8.006997 8.017659 " />
<path stroke-linejoin="round" stroke-linecap="round" stroke="rgb(0,0,255)" stroke-width="1.874998" fill="none" d="M 0.000000 750.000000 L 5.338088 0.000000 " />
<path stroke-linejoin="round" stroke-linecap="round" stroke="rgb(255,0,0)" stroke-width="3.749996" fill="none" d="M 5.300313 5.306393 L 7.950448 7.958561 " />
<path stroke-linejoin="round" stroke-linecap="round" stroke="rgb(0,0,255)" stroke-width="1.874998" fill="none" d="M 0.000000 750.000000 L 2.659567 0.000000 " />
<path stroke-linejoin="round" stroke-linecap="round" stroke="rgb(255,0,0)" stroke-width="3.749996" fill="none" d="M 2.650156 2.654761 L 5.300313 5.306437 " />
<path stroke-linejoin="round" stroke-linecap="round" stroke="rgb(0,0,255)" stroke-width="1.874998" fill="none" d="M 0.000000 750.000000 L 0.000000 0.000000 " />
<path stroke-linejoin="round" stroke-linecap="round" stroke="rgb(255,0,0)" stroke-width="3.749996" fill="none" d="M 0.000000 0.000000 L 2.650156 2.654761 " />
<circle cx="91.711946" cy="719.429344" r="3.749996" style="fill:rgb(0,127,0);stroke-width:1" /><circle cx="89.031056" cy="688.599274" r="3.749996" style="fill:rgb(0,127,0);stroke-width:1" /><circle cx="86.327344" cy="657.506414" r="3.749996" style="fill:rgb(0,127,0);stroke-width:1" /><circle cx="84.263675" cy="633.774228" r="3.749996" style="fill:rgb(0,127,0);stroke-width:1" /><circle cx="83.600476" cy="626.147434" r="3.749996" style="fill:rgb(0,127,0);stroke-width:1" /><circle cx="80.850184" cy="594.518915" r="3.749996" style="fill:rgb(0,127,0);stroke-width:1" /><circle cx="78.076132" cy="562.617302" r="3.749996" style="fill:rgb(0,127,0);stroke-width:1" /><circle cx="75.278029" cy="530.439086" r="3.749996" style="fill:rgb(0,127,0);stroke-width:1" /><circle cx="72.455540" cy="497.980691" r="3.749996" style="fill:rgb(0,127,0);stroke-width:1" /><circle cx="69.608398" cy="465.238385" r="3.749996" style="fill:rgb(0,127,0);stroke-width:1" /><circle cx="68.479948" cy="452.261120" r="3.749996" style="fill:rgb(0,127,0);stroke-width:1" /><circle cx="66.736221" cy="432.208456" r="3.749996" style="fill:rgb(0,127,0);stroke-width:1" /><circle cx="63.838720" cy="398.887061" r="3.749996" style="fill:rgb(0,127,0);stroke-width:1" /><circle cx="63.044026" cy="389.748350" r="3.749996" style="fill:rgb(0,127,0);stroke-width:1" /><circle cx="60.292125" cy="358.101279" r="3.749996" style="fill:rgb(0,127,0);stroke-width:1" /><circle cx="59.738986" cy="351.740152" r="3.749996" style="fill:rgb(0,127,0);stroke-width:1" /><circle cx="57.118848" cy="321.608618" r="3.749996" style="fill:rgb(0,127,0);stroke-width:1" /><circle cx="54.477945" cy="291.238278" r="3.749996" style="fill:rgb(0,127,0);stroke-width:1" /><circle cx="51.816031" cy="260.626271" r="3.749996" style="fill:rgb(0,127,0);stroke-width:1" /><circle cx="51.743813" cy="259.795502" r="3.749996" style="fill:rgb(0,127,0);stroke-width:1" /><circle cx="49.132861" cy="229.769647" r="3.749996" style="fill:rgb(0,127,0);stroke-width:1" /><circle cx="46.648264" cy="201.196790" r="3.749996" style="fill:rgb(0,127,0);stroke-width:1" /><circle cx="44.071399" cy="171.562806" r="3.749996" style="fill:rgb(0,127,0);stroke-width:1" /><circle cx="41.474842" cy="141.702309" r="3.749996" style="fill:rgb(0,127,0);stroke-width:1" /><circle cx="38.858347" cy="111.612707" r="3.749996" style="fill:rgb(0,127,0);stroke-width:1" /><circle cx="36.221713" cy="81.291407" r="3.749996" style="fill:rgb(0,127,0);stroke-width:1" /><circle cx="35.226859" cy="69.850579" r="3.749996" style="fill:rgb(0,127,0);stroke-width:1" /><circle cx="34.452640" cy="60.947120" r="3.749996" style="fill:rgb(0,127,0);stroke-width:1" /><circle cx="31.703487" cy="36.671743" r="3.749996" style="fill:rgb(0,127,0);stroke-width:1" /><circle cx="31.650200" cy="36.431909" r="3.749996" style="fill:rgb(0,127,0);stroke-width:1" /><circle cx="31.438842" cy="35.480753" r="3.749996" style="fill:rgb(0,127,0);stroke-width:1" /><circle cx="31.230301" cy="34.542248" r="3.749996" style="fill:rgb(0,127,0);stroke-width:1" /><circle cx="31.024486" cy="33.616126" r="3.749996" style="fill:rgb(0,127,0);stroke-width:1" /><circle cx="30.821398" cy="32.702208" r="3.749996" style="fill:rgb(0,127,0);stroke-width:1" /><circle cx="30.617930" cy="31.870365" r="3.749996" style="fill:rgb(0,127,0);stroke-width:1" /><circle cx="30.407265" cy="31.283006" r="3.749996" style="fill:rgb(0,127,0);stroke-width:1" /><circle cx="28.065383" cy="28.719842" r="3.749996" style="fill:rgb(0,127,0);stroke-width:1" /><circle cx="27.863368" cy="28.338566" r="3.749996" style="fill:rgb(0,127,0);stroke-width:1" /><circle cx="27.662426" cy="28.010756" r="3.749996" style="fill:rgb(0,127,0);stroke-width:1" /><circle cx="27.463116" cy="27.720094" r="3.749996" style="fill:rgb(0,127,0);stroke-width:1" /><circle cx="24.718925" cy="24.911508" r="3.749996" style="fill:rgb(0,127,0);stroke-width:1" /><circle cx="21.973796" cy="22.118121" r="3.749996" style="fill:rgb(0,127,0);stroke-width:1" /><circle cx="21.815054" cy="21.922588" r="3.749996" style="fill:rgb(0,127,0);stroke-width:1" /><circle cx="21.658324" cy="21.738544" r="3.749996" style="fill:rgb(0,127,0);stroke-width:1" /><circle cx="18.951550" cy="19.011721" r="3.749996" style="fill:rgb(0,127,0);stroke-width:1" /><circle cx="16.244508" cy="16.289636" r="3.749996" style="fill:rgb(0,127,0);stroke-width:1" /><circle cx="13.537288" cy="13.571128" r="3.749996" style="fill:rgb(0,127,0);stroke-width:1" /><circle cx="10.829955" cy="10.855302" r="3.749996" style="fill:rgb(0,127,0);stroke-width:1" /><circle cx="10.752417" cy="10.771349" r="3.749996" style="fill:rgb(0,127,0);stroke-width:1" /><circle cx="10.675952" cy="10.690212" r="3.749996" style="fill:rgb(0,127,0);stroke-width:1" /><circle cx="8.006997" cy="8.017659" r="3.749996" style="fill:rgb(0,127,0);stroke-width:1" /><circle cx="7.950447" cy="7.958472" r="3.749996" style="fill:rgb(0,127,0);stroke-width:1" /><circle cx="5.300313" cy="5.306393" r="3.749996" style="fill:rgb(0,127,0);stroke-width:1" /><circle cx="2.650157" cy="2.654761" r="3.749996" style="fill:rgb(0,127,0);stroke-width:1" /><circle cx="750.000000" cy="750.000000" r="3.749996" style="fill:rgb(0,127,0);stroke-width:1" /><path stroke-linejoin="round" stroke-linecap="round" stroke="rgb(255,255,255)" stroke-width="3.749996" fill="none" d="M 0.000000 750.000000 L 750.000000 750.000000 M 0.000000 750.000000 L 0.000000 0.000000 " />

</svg>