<svg xmlns="http://www.w3.org/2000/svg" version="1.1" width = "750" height = "750" viewBox = "0 0 750 750"  shape-rendering="crispEdges">
<path stroke-linejoin="round" stroke-linecap="round" stroke="rgb(255,255,0)" stroke-width="3.749996" fill="none" d="M 124.999992 750.000000 L 0.000000 0.000000 " />
<path stroke-linejoin="round" stroke-linecap="round" stroke="rgb(63,63,63)" stroke-width="3.749996" fill="none" d="M 0.000000 0.000000 L 750.000000 750.000000 M 124.999992 750.000000 L 56.818172 0.000000 " />
<path stroke-linejoin="round" stroke-linecap="round" stroke="rgb(191,191,191)" stroke-width="3.749996" fill="none" d="M 0.000000 625.000000 L 124.999992 750.000000 M 0.000000 0.000000 L 68.181824 750.000000 " />
<path stroke-linejoin="round" stroke-linecap="round" stroke="rgb(0,0,255)" stroke-width="1.874998" fill="none" d="M 0.000000 750.000000 L 750.000000 732.142822 " />
<path stroke-linejoin="round" stroke-linecap="round" stroke="rgb(255,0,0)" stroke-width="3.749996" fill="none" d="M 124.730026 747.030273 L 124.999992 750.000000 " />
<path stroke-linejoin="round" stroke-linecap="round" stroke="rgb(0,0,255)" stroke-width="1.874998" fill="none" d="M 0.000000 750.000000 L 750.000000 713.414612 " />
<path stroke-linejoin="round" stroke-linecap="round" stroke="rgb(255,0,0)" stroke-width="3.749996" fill="none" d="M 121.760262 744.060486 L 124.730003 747.030273 " />
<path stroke-linejoin="round" stroke-linecap="round" stroke="rgb(0,0,255)" stroke-width="1.874998" fill="none" d="M 0.000000 750.000000 L 750.000000 693.750000 " />
<path stroke-linejoin="round" stroke-linecap="round" stroke="rgb(255,0,0)" stroke-width="3.749996" fill="none" d="M 118.790497 741.090698 L 121.760284 744.060486 " />
<path stroke-linejoin="round" stroke-linecap="round" stroke="rgb(0,0,255)" stroke-width="1.874998" fill="none" d="M 0.000000 750.000000 L 750.000000 673.076904 " />
<path stroke-linejoin="round" stroke-linecap="round" stroke="rgb(255,0,0)" stroke-width="3.749996" fill="none" d="M 115.820732 738.120972 L 118.790497 741.090698 " />
<path stroke-linejoin="round" stroke-linecap="round" stroke="rgb(0,0,255)" stroke-width="1.874998" fill="none" d="M 0.000000 750.000000 L 750.000000 656.250000 " />
<path stroke-linejoin="round" stroke-linecap="round" stroke="rgb(255,0,0)" stroke-width="3.749996" fill="none" d="M 113.510925 735.811096 L 115.820732 738.120972 " />
<path stroke-linejoin="round" stroke-linecap="round" stroke="rgb(0,0,255)" stroke-width="1.874998" fill="none" d="M 0.000000 750.000000 L 750.000000 651.315796 " />
<path stroke-linejoin="round" stroke-linecap="round" stroke="rgb(255,0,0)" stroke-width="3.749996" fill="none" d="M 112.850975 735.151184 L 113.510925 735.811096 " />
<path stroke-linejoin="round" stroke-linecap="round" stroke="rgb(0,0,255)" stroke-width="1.874998" fill="none" d="M 0.000000 750.000000 L 750.000000 628.378357 " />
<path stroke-linejoin="round" stroke-linecap="round" stroke="rgb(255,0,0)" stroke-width="3.749996" fill="none" d="M 109.881210 732.181396 L 112.850975 735.151184 " />
<path stroke-linejoin="round" stroke-linecap="round" stroke="rgb(0,0,255)" stroke-width="1.874998" fill="none" d="M 0.000000 750.000000 L 750.000000 604.166687 " />
<path stroke-linejoin="round" stroke-linecap="round" stroke="rgb(255,0,0)" stroke-width="3.749996" fill="none" d="M 106.911469 729.211609 L 109.881210 732.181396 " />
<path stroke-linejoin="round" stroke-linecap="round" stroke="rgb(0,0,255)" stroke-width="1.874998" fill="none" d="M 0.000000 750.000000 L 750.000000 587.837830 " />
<path stroke-linejoin="round" stroke-linecap="round" stroke="rgb(255,0,0)" stroke-width="3.749996" fill="none" d="M 104.997597 727.297791 L 106.911469 729.211609 " />
<path stroke-linejoin="round" stroke-linecap="round" stroke="rgb(0,0,255)" stroke-width="1.874998" fill="none" d="M 0.000000 750.000000 L 750.000000 562.500000 " />
<path stroke-linejoin="round" stroke-linecap="round" stroke="rgb(255,0,0)" stroke-width="3.749996" fill="none" d="M 102.159843 724.460022 L 104.997597 727.297791 " />
<path stroke-linejoin="round" stroke-linecap="round" stroke="rgb(0,0,255)" stroke-width="1.874998" fill="none" d="M 0.000000 750.000000 L 750.000000 535.714294 " />
<path stroke-linejoin="round" stroke-linecap="round" stroke="rgb(255,0,0)" stroke-width="3.749996" fill="none" d="M 99.322067 721.622253 L 102.159843 724.460022 " />
<path stroke-linejoin="round" stroke-linecap="round" stroke="rgb(0,0,255)" stroke-width="1.874998" fill="none" d="M 0.000000 750.000000 L 750.000000 507.352936 " />
<path stroke-linejoin="round" stroke-linecap="round" stroke="rgb(255,0,0)" stroke-width="3.749996" fill="none" d="M 96.484291 718.784485 L 99.322067 721.622253 " />
<path stroke-linejoin="round" stroke-linecap="round" stroke="rgb(0,0,255)" stroke-width="1.874998" fill="none" d="M 0.000000 750.000000 L 750.000000 492.857147 " />
<path stroke-linejoin="round" stroke-linecap="round" stroke="rgb(255,0,0)" stroke-width="3.749996" fill="none" d="M 95.095596 717.395752 L 96.484291 718.784485 " />
<path stroke-linejoin="round" stroke-linecap="round" stroke="rgb(0,0,255)" stroke-width="1.874998" fill="none" d="M 0.000000 750.000000 L 750.000000 477.272705 " />
<path stroke-linejoin="round" stroke-linecap="round" stroke="rgb(255,0,0)" stroke-width="3.749996" fill="none" d="M 93.646515 715.946716 L 95.095596 717.395752 " />
<path stroke-linejoin="round" stroke-linecap="round" stroke="rgb(0,0,255)" stroke-width="1.874998" fill="none" d="M 0.000000 750.000000 L 750.000000 445.312500 " />
<path stroke-linejoin="round" stroke-linecap="round" stroke="rgb(255,0,0)" stroke-width="3.749996" fill="none" d="M 90.808731 713.108948 L 93.646515 715.946716 " />
<path stroke-linejoin="round" stroke-linecap="round" stroke="rgb(0,0,255)" stroke-width="1.874998" fill="none" d="M 0.000000 750.000000 L 750.000000 411.290344 " />
<path stroke-linejoin="round" stroke-linecap="round" stroke="rgb(255,0,0)" stroke-width="3.749996" fill="none" d="M 87.970955 710.271179 L 90.808731 713.108948 " />
<path stroke-linejoin="round" stroke-linecap="round" stroke="rgb(0,0,255)" stroke-width="1.874998" fill="none" d="M 0.000000 750.000000 L 750.000000 375.000000 " />
<path stroke-linejoin="round" stroke-linecap="round" stroke="rgb(255,0,0)" stroke-width="3.749996" fill="none" d="M 85.133202 707.433411 L 87.970955 710.271179 " />
<path stroke-linejoin="round" stroke-linecap="round" stroke="rgb(0,0,255)" stroke-width="1.874998" fill="none" d="M 0.000000 750.000000 L 750.000000 336.206909 " />
<path stroke-linejoin="round" stroke-linecap="round" stroke="rgb(255,0,0)" stroke-width="3.749996" fill="none" d="M 82.295425 704.595642 L 85.133202 707.433411 " />
<path stroke-linejoin="round" stroke-linecap="round" stroke="rgb(0,0,255)" stroke-width="1.874998" fill="none" d="M 0.000000 750.000000 L 750.000000 294.642853 " />
<path stroke-linejoin="round" stroke-linecap="round" stroke="rgb(255,0,0)" stroke-width="3.749996" fill="none" d="M 79.457649 701.757874 L 82.295425 704.595642 " />
<path stroke-linejoin="round" stroke-linecap="round" stroke="rgb(0,0,255)" stroke-width="1.874998" fill="none" d="M 0.000000 750.000000 L 750.000000 284.482788 " />
<path stroke-linejoin="round" stroke-linecap="round" stroke="rgb(255,0,0)" stroke-width="3.749996" fill="none" d="M 78.793488 701.093689 L 79.457649 701.757874 " />
<path stroke-linejoin="round" stroke-linecap="round" stroke="rgb(0,0,255)" stroke-width="1.874998" fill="none" d="M 0.000000 750.000000 L 750.000000 241.071442 " />
<path stroke-linejoin="round" stroke-linecap="round" stroke="rgb(255,0,0)" stroke-width="3.749996" fill="none" d="M 76.076477 698.376709 L 78.793488 701.093689 " />
<path stroke-linejoin="round" stroke-linecap="round" stroke="rgb(0,0,255)" stroke-width="1.874998" fill="none" d="M 0.000000 750.000000 L 750.000000 232.758606 " />
<path stroke-linejoin="round" stroke-linecap="round" stroke="rgb(255,0,0)" stroke-width="3.749996" fill="none" d="M 75.577431 697.877625 L 76.076477 698.376709 " />
<path stroke-linejoin="round" stroke-linecap="round" stroke="rgb(0,0,255)" stroke-width="1.874998" fill="none" d="M 0.000000 750.000000 L 750.000000 194.444458 " />
<path stroke-linejoin="round" stroke-linecap="round" stroke="rgb(255,0,0)" stroke-width="3.749996" fill="none" d="M 73.359444 695.659668 L 75.577431 697.877625 " />
<path stroke-linejoin="round" stroke-linecap="round" stroke="rgb(0,0,255)" stroke-width="1.874998" fill="none" d="M 0.000000 750.000000 L 750.000000 187.500000 " />
<path stroke-linejoin="round" stroke-linecap="round" stroke="rgb(255,0,0)" stroke-width="3.749996" fill="none" d="M 72.971306 695.271484 L 73.359444 695.659668 " />
<path stroke-linejoin="round" stroke-linecap="round" stroke="rgb(0,0,255)" stroke-width="1.874998" fill="none" d="M 0.000000 750.000000 L 750.000000 144.230789 " />
<path stroke-linejoin="round" stroke-linecap="round" stroke="rgb(255,0,0)" stroke-width="3.749996" fill="none" d="M 70.642433 692.942627 L 72.971306 695.271484 " />
<path stroke-linejoin="round" stroke-linecap="round" stroke="rgb(0,0,255)" stroke-width="1.874998" fill="none" d="M 0.000000 750.000000 L 750.000000 138.888901 " />
<path stroke-linejoin="round" stroke-linecap="round" stroke="rgb(255,0,0)" stroke-width="3.749996" fill="none" d="M 70.365181 692.665405 L 70.642433 692.942627 " />
<path stroke-linejoin="round" stroke-linecap="round" stroke="rgb(0,0,255)" stroke-width="1.874998" fill="none" d="M 0.000000 750.000000 L 750.000000 90.000000 " />
<path stroke-linejoin="round" stroke-linecap="round" stroke="rgb(255,0,0)" stroke-width="3.749996" fill="none" d="M 67.925423 690.225647 L 70.365181 692.665405 " />
<path stroke-linejoin="round" stroke-linecap="round" stroke="rgb(0,0,255)" stroke-width="1.874998" fill="none" d="M 0.000000 750.000000 L 750.000000 86.538475 " />
<path stroke-linejoin="round" stroke-linecap="round" stroke="rgb(255,0,0)" stroke-width="3.749996" fill="none" d="M 67.759079 690.059265 L 67.925423 690.225647 " />
<path stroke-linejoin="round" stroke-linecap="round" stroke="rgb(0,0,255)" stroke-width="1.874998" fill="none" d="M 0.000000 750.000000 L 750.000000 31.250015 " />
<path stroke-linejoin="round" stroke-linecap="round" stroke="rgb(255,0,0)" stroke-width="3.749996" fill="none" d="M 65.208412 687.508667 L 67.759079 690.059265 " />
<path stroke-linejoin="round" stroke-linecap="round" stroke="rgb(0,0,255)" stroke-width="1.874998" fill="none" d="M 0.000000 750.000000 L 718.750000 0.000000 " />
<path stroke-linejoin="round" stroke-linecap="round" stroke="rgb(255,0,0)" stroke-width="3.749996" fill="none" d="M 62.491379 684.791565 L 65.208412 687.508667 " />
<path stroke-linejoin="round" stroke-linecap="round" stroke="rgb(0,0,255)" stroke-width="1.874998" fill="none" d="M 0.000000 750.000000 L 660.000000 0.000000 " />
<path stroke-linejoin="round" stroke-linecap="round" stroke="rgb(255,0,0)" stroke-width="3.749996" fill="none" d="M 61.797737 679.775269 L 62.491379 684.791565 " />
<path stroke-linejoin="round" stroke-linecap="round" stroke="rgb(0,0,255)" stroke-width="1.874998" fill="none" d="M 0.000000 750.000000 L 605.769226 0.000000 " />
<path stroke-linejoin="round" stroke-linecap="round" stroke="rgb(255,0,0)" stroke-width="3.749996" fill="none" d="M 61.284027 674.124512 L 61.797737 679.775269 " />
<path stroke-linejoin="round" stroke-linecap="round" stroke="rgb(0,0,255)" stroke-width="1.874998" fill="none" d="M 0.000000 750.000000 L 555.555542 0.000000 " />
<path stroke-linejoin="round" stroke-linecap="round" stroke="rgb(255,0,0)" stroke-width="3.749996" fill="none" d="M 60.728745 668.016235 L 61.284027 674.124512 " />
<path stroke-linejoin="round" stroke-linecap="round" stroke="rgb(0,0,255)" stroke-width="1.874998" fill="none" d="M 0.000000 750.000000 L 508.928589 0.000000 " />
<path stroke-linejoin="round" stroke-linecap="round" stroke="rgb(255,0,0)" stroke-width="3.749996" fill="none" d="M 60.126587 661.392395 L 60.728745 668.016235 " />
<path stroke-linejoin="round" stroke-linecap="round" stroke="rgb(0,0,255)" stroke-width="1.874998" fill="none" d="M 0.000000 750.000000 L 475.000000 0.000000 " />
<path stroke-linejoin="round" stroke-linecap="round" stroke="rgb(255,0,0)" stroke-width="3.749996" fill="none" d="M 59.623428 655.857788 L 60.126587 661.392395 " />
<path stroke-linejoin="round" stroke-linecap="round" stroke="rgb(0,0,255)" stroke-width="1.874998" fill="none" d="M 0.000000 750.000000 L 435.483856 0.000000 " />
<path stroke-linejoin="round" stroke-linecap="round" stroke="rgb(255,0,0)" stroke-width="3.749996" fill="none" d="M 58.951958 648.471619 L 59.623428 655.857788 " />
<path stroke-linejoin="round" stroke-linecap="round" stroke="rgb(0,0,255)" stroke-width="1.874998" fill="none" d="M 0.000000 750.000000 L 398.437500 0.000000 " />
<path stroke-linejoin="round" stroke-linecap="round" stroke="rgb(255,0,0)" stroke-width="3.749996" fill="none" d="M 58.219181 640.410950 L 58.951958 648.471619 " />
<path stroke-linejoin="round" stroke-linecap="round" stroke="rgb(0,0,255)" stroke-width="1.874998" fill="none" d="M 0.000000 750.000000 L 375.000000 0.000000 " />
<path stroke-linejoin="round" stroke-linecap="round" stroke="rgb(255,0,0)" stroke-width="3.749996" fill="none" d="M 57.692303 634.615417 L 58.219181 640.410950 " />
<path stroke-linejoin="round" stroke-linecap="round" stroke="rgb(0,0,255)" stroke-width="1.874998" fill="none" d="M 0.000000 750.000000 L 342.857147 0.000000 " />
<path stroke-linejoin="round" stroke-linecap="round" stroke="rgb(255,0,0)" stroke-width="3.749996" fill="none" d="M 56.872040 625.592468 L 57.692303 634.615417 " />
<path stroke-linejoin="round" stroke-linecap="round" stroke="rgb(0,0,255)" stroke-width="1.874998" fill="none" d="M 0.000000 750.000000 L 324.324341 0.000000 " />
<path stroke-linejoin="round" stroke-linecap="round" stroke="rgb(255,0,0)" stroke-width="3.749996" fill="none" d="M 56.338013 619.718323 L 56.872040 625.592468 " />
<path stroke-linejoin="round" stroke-linecap="round" stroke="rgb(0,0,255)" stroke-width="1.874998" fill="none" d="M 0.000000 750.000000 L 307.692322 0.000000 " />
<path stroke-linejoin="round" stroke-linecap="round" stroke="rgb(255,0,0)" stroke-width="3.749996" fill="none" d="M 55.813953 613.953552 L 56.338013 619.718323 " />
<path stroke-linejoin="round" stroke-linecap="round" stroke="rgb(0,0,255)" stroke-width="1.874998" fill="none" d="M 0.000000 750.000000 L 292.682922 0.000000 " />
<path stroke-linejoin="round" stroke-linecap="round" stroke="rgb(255,0,0)" stroke-width="3.749996" fill="none" d="M 55.299526 608.294983 L 55.813953 613.953552 " />
<path stroke-linejoin="round" stroke-linecap="round" stroke="rgb(0,0,255)" stroke-width="1.874998" fill="none" d="M 0.000000 750.000000 L 279.069763 0.000000 " />
<path stroke-linejoin="round" stroke-linecap="round" stroke="rgb(255,0,0)" stroke-width="3.749996" fill="none" d="M 54.794514 602.739746 L 55.299526 608.294983 " />
<path stroke-linejoin="round" stroke-linecap="round" stroke="rgb(0,0,255)" stroke-width="1.874998" fill="none" d="M 0.000000 750.000000 L 255.681824 0.000000 " />
<path stroke-linejoin="round" stroke-linecap="round" stroke="rgb(255,0,0)" stroke-width="3.749996" fill="none" d="M 53.827732 592.105286 L 54.794514 602.739746 " />
<path stroke-linejoin="round" stroke-linecap="round" stroke="rgb(0,0,255)" stroke-width="1.874998" fill="none" d="M 0.000000 750.000000 L 233.333344 0.000000 " />
<path stroke-linejoin="round" stroke-linecap="round" stroke="rgb(255,0,0)" stroke-width="3.749996" fill="none" d="M 52.763813 580.402039 L 53.827732 592.105286 " />
<path stroke-linejoin="round" stroke-linecap="round" stroke="rgb(0,0,255)" stroke-width="1.874998" fill="none" d="M 0.000000 750.000000 L 223.404251 0.000000 " />
<path stroke-linejoin="round" stroke-linecap="round" stroke="rgb(255,0,0)" stroke-width="3.749996" fill="none" d="M 52.238792 574.626892 L 52.763813 580.402039 " />
<path stroke-linejoin="round" stroke-linecap="round" stroke="rgb(0,0,255)" stroke-width="1.874998" fill="none" d="M 0.000000 750.000000 L 203.125000 0.000000 " />
<path stroke-linejoin="round" stroke-linecap="round" stroke="rgb(255,0,0)" stroke-width="3.749996" fill="none" d="M 51.047108 561.518372 L 52.238792 574.626892 " />
<path stroke-linejoin="round" stroke-linecap="round" stroke="rgb(0,0,255)" stroke-width="1.874998" fill="none" d="M 0.000000 750.000000 L 183.673477 0.000000 " />
<path stroke-linejoin="round" stroke-linecap="round" stroke="rgb(255,0,0)" stroke-width="3.749996" fill="none" d="M 49.723751 546.961365 L 51.047108 561.518372 " />
<path stroke-linejoin="round" stroke-linecap="round" stroke="rgb(0,0,255)" stroke-width="1.874998" fill="none" d="M 0.000000 750.000000 L 176.470581 0.000000 " />
<path stroke-linejoin="round" stroke-linecap="round" stroke="rgb(255,0,0)" stroke-width="3.749996" fill="none" d="M 49.180313 540.983643 L 49.723751 546.961365 " />
<path stroke-linejoin="round" stroke-linecap="round" stroke="rgb(0,0,255)" stroke-width="1.874998" fill="none" d="M 0.000000 750.000000 L 163.636337 0.000000 " />
<path stroke-linejoin="round" stroke-linecap="round" stroke="rgb(255,0,0)" stroke-width="3.749996" fill="none" d="M 48.128330 529.411804 L 49.180313 540.983643 " />
<path stroke-linejoin="round" stroke-linecap="round" stroke="rgb(0,0,255)" stroke-width="1.874998" fill="none" d="M 0.000000 750.000000 L 157.894745 0.000000 " />
<path stroke-linejoin="round" stroke-linecap="round" stroke="rgb(255,0,0)" stroke-width="3.749996" fill="none" d="M 47.619045 523.809509 L 48.128330 529.411804 " />
<path stroke-linejoin="round" stroke-linecap="round" stroke="rgb(0,0,255)" stroke-width="1.874998" fill="none" d="M 0.000000 750.000000 L 142.241394 0.000000 " />
<path stroke-linejoin="round" stroke-linecap="round" stroke="rgb(255,0,0)" stroke-width="3.749996" fill="none" d="M 46.089382 506.983276 L 47.619045 523.809509 " />
<path stroke-linejoin="round" stroke-linecap="round" stroke="rgb(0,0,255)" stroke-width="1.874998" fill="none" d="M 0.000000 750.000000 L 137.500000 0.000000 " />
<path stroke-linejoin="round" stroke-linecap="round" stroke="rgb(255,0,0)" stroke-width="3.749996" fill="none" d="M 45.580097 501.381256 L 46.089382 506.983276 " />
<path stroke-linejoin="round" stroke-linecap="round" stroke="rgb(0,0,255)" stroke-width="1.874998" fill="none" d="M 0.000000 750.000000 L 122.950806 0.000000 " />
<path stroke-linejoin="round" stroke-linecap="round" stroke="rgb(255,0,0)" stroke-width="3.749996" fill="none" d="M 43.859638 482.456177 L 45.580097 501.381256 " />
<path stroke-linejoin="round" stroke-linecap="round" stroke="rgb(0,0,255)" stroke-width="1.874998" fill="none" d="M 0.000000 750.000000 L 119.047615 0.000000 " />
<path stroke-linejoin="round" stroke-linecap="round" stroke="rgb(255,0,0)" stroke-width="3.749996" fill="none" d="M 43.352589 476.878601 L 43.859638 482.456177 " />
<path stroke-linejoin="round" stroke-linecap="round" stroke="rgb(0,0,255)" stroke-width="1.874998" fill="none" d="M 0.000000 750.000000 L 113.013718 0.000000 " />
<path stroke-linejoin="round" stroke-linecap="round" stroke="rgb(255,0,0)" stroke-width="3.749996" fill="none" d="M 42.525776 467.783508 L 43.352612 476.878571 " />
<path stroke-linejoin="round" stroke-linecap="round" stroke="rgb(0,0,255)" stroke-width="1.874998" fill="none" d="M 0.000000 750.000000 L 111.940292 0.000000 " />
<path stroke-linejoin="round" stroke-linecap="round" stroke="rgb(255,0,0)" stroke-width="3.749996" fill="none" d="M 42.372868 466.101715 L 42.525776 467.783508 " />
<path stroke-linejoin="round" stroke-linecap="round" stroke="rgb(0,0,255)" stroke-width="1.874998" fill="none" d="M 0.000000 750.000000 L 90.361435 0.000000 " />
<path stroke-linejoin="round" stroke-linecap="round" stroke="rgb(255,0,0)" stroke-width="3.749996" fill="none" d="M 38.860111 427.461151 L 42.372868 466.101715 " />
<path stroke-linejoin="round" stroke-linecap="round" stroke="rgb(0,0,255)" stroke-width="1.874998" fill="none" d="M 0.000000 750.000000 L 72.580643 0.000000 " />
<path stroke-linejoin="round" stroke-linecap="round" stroke="rgb(255,0,0)" stroke-width="3.749996" fill="none" d="M 35.156250 386.718781 L 38.860111 427.461151 " />
<path stroke-linejoin="round" stroke-linecap="round" stroke="rgb(0,0,255)" stroke-width="1.874998" fill="none" d="M 0.000000 750.000000 L 69.767433 0.000000 " />
<path stroke-linejoin="round" stroke-linecap="round" stroke="rgb(255,0,0)" stroke-width="3.749996" fill="none" d="M 34.482746 379.310394 L 35.156250 386.718781 " />
<path stroke-linejoin="round" stroke-linecap="round" stroke="rgb(0,0,255)" stroke-width="1.874998" fill="none" d="M 0.000000 750.000000 L 68.181824 0.000000 " />
<path stroke-linejoin="round" stroke-linecap="round" stroke="rgb(255,0,0)" stroke-width="3.749996" fill="none" d="M 34.090900 375.000031 L 34.482746 379.310394 " />
<path stroke-linejoin="round" stroke-linecap="round" stroke="rgb(0,0,255)" stroke-width="1.874998" fill="none" d="M 0.000000 750.000000 L 64.285713 0.000000 " />
<path stroke-linejoin="round" stroke-linecap="round" stroke="rgb(255,0,0)" stroke-width="3.749996" fill="none" d="M 33.088223 363.970642 L 34.090900 375.000031 " />
<path stroke-linejoin="round" stroke-linecap="round" stroke="rgb(0,0,255)" stroke-width="1.874998" fill="none" d="M 0.000000 750.000000 L 63.084103 0.000000 " />
<path stroke-linejoin="round" stroke-linecap="round" stroke="rgb(255,0,0)" stroke-width="3.749996" fill="none" d="M 32.766983 360.436920 L 33.088223 363.970642 " />
<path stroke-linejoin="round" stroke-linecap="round" stroke="rgb(0,0,255)" stroke-width="1.874998" fill="none" d="M 0.000000 750.000000 L 61.926617 0.000000 " />
<path stroke-linejoin="round" stroke-linecap="round" stroke="rgb(255,0,0)" stroke-width="3.749996" fill="none" d="M 32.451912 356.971191 L 32.766983 360.436920 " />
<path stroke-linejoin="round" stroke-linecap="round" stroke="rgb(0,0,255)" stroke-width="1.874998" fill="none" d="M 0.000000 750.000000 L 60.810818 0.000000 " />
<path stroke-linejoin="round" stroke-linecap="round" stroke="rgb(255,0,0)" stroke-width="3.749996" fill="none" d="M 32.142857 353.571472 L 32.451912 356.971191 " />
<path stroke-linejoin="round" stroke-linecap="round" stroke="rgb(0,0,255)" stroke-width="1.874998" fill="none" d="M 0.000000 750.000000 L 53.571426 0.000000 " />
<path stroke-linejoin="round" stroke-linecap="round" stroke="rgb(255,0,0)" stroke-width="3.749996" fill="none" d="M 29.999994 330.000031 L 32.142857 353.571472 " />
<path stroke-linejoin="round" stroke-linecap="round" stroke="rgb(0,0,255)" stroke-width="1.874998" fill="none" d="M 0.000000 750.000000 L 52.631580 0.000000 " />
<path stroke-linejoin="round" stroke-linecap="round" stroke="rgb(255,0,0)" stroke-width="3.749996" fill="none" d="M 29.702961 326.732758 L 29.999994 330.000031 " />
<path stroke-linejoin="round" stroke-linecap="round" stroke="rgb(0,0,255)" stroke-width="1.874998" fill="none" d="M 0.000000 750.000000 L 48.000008 0.000000 " />
<path stroke-linejoin="round" stroke-linecap="round" stroke="rgb(255,0,0)" stroke-width="3.749996" fill="none" d="M 28.169006 309.859192 L 29.702961 326.732758 " />
<path stroke-linejoin="round" stroke-linecap="round" stroke="rgb(0,0,255)" stroke-width="1.874998" fill="none" d="M 0.000000 750.000000 L 47.297291 0.000000 " />
<path stroke-linejoin="round" stroke-linecap="round" stroke="rgb(255,0,0)" stroke-width="3.749996" fill="none" d="M 27.925529 307.180908 L 28.169006 309.859192 " />
<path stroke-linejoin="round" stroke-linecap="round" stroke="rgb(0,0,255)" stroke-width="1.874998" fill="none" d="M 0.000000 750.000000 L 44.117645 0.000000 " />
<path stroke-linejoin="round" stroke-linecap="round" stroke="rgb(255,0,0)" stroke-width="3.749996" fill="none" d="M 26.785702 294.642883 L 27.925529 307.180908 " />
<path stroke-linejoin="round" stroke-linecap="round" stroke="rgb(0,0,255)" stroke-width="1.874998" fill="none" d="M 0.000000 750.000000 L 43.388420 0.000000 " />
<path stroke-linejoin="round" stroke-linecap="round" stroke="rgb(255,0,0)" stroke-width="3.749996" fill="none" d="M 26.515156 291.666687 L 26.785702 294.642883 " />
<path stroke-linejoin="round" stroke-linecap="round" stroke="rgb(0,0,255)" stroke-width="1.874998" fill="none" d="M 0.000000 750.000000 L 41.999996 0.000000 " />
<path stroke-linejoin="round" stroke-linecap="round" stroke="rgb(255,0,0)" stroke-width="3.749996" fill="none" d="M 25.990091 285.891144 L 26.515156 291.666687 " />
<path stroke-linejoin="round" stroke-linecap="round" stroke="rgb(0,0,255)" stroke-width="1.874998" fill="none" d="M 0.000000 750.000000 L 40.697670 0.000000 " />
<path stroke-linejoin="round" stroke-linecap="round" stroke="rgb(255,0,0)" stroke-width="3.749996" fill="none" d="M 25.485434 280.339874 L 25.990091 285.891144 " />
<path stroke-linejoin="round" stroke-linecap="round" stroke="rgb(0,0,255)" stroke-width="1.874998" fill="none" d="M 0.000000 750.000000 L 37.190079 0.000000 " />
<path stroke-linejoin="round" stroke-linecap="round" stroke="rgb(255,0,0)" stroke-width="3.749996" fill="none" d="M 24.064177 264.705963 L 25.485434 280.339874 " />
<path stroke-linejoin="round" stroke-linecap="round" stroke="rgb(0,0,255)" stroke-width="1.874998" fill="none" d="M 0.000000 750.000000 L 36.585377 0.000000 " />
<path stroke-linejoin="round" stroke-linecap="round" stroke="rgb(255,0,0)" stroke-width="3.749996" fill="none" d="M 23.809523 261.904785 L 24.064177 264.705963 " />
<path stroke-linejoin="round" stroke-linecap="round" stroke="rgb(0,0,255)" stroke-width="1.874998" fill="none" d="M 0.000000 750.000000 L 28.195494 0.000000 " />
<path stroke-linejoin="round" stroke-linecap="round" stroke="rgb(255,0,0)" stroke-width="3.749996" fill="none" d="M 19.946806 219.414841 L 23.809523 261.904755 " />
<path stroke-linejoin="round" stroke-linecap="round" stroke="rgb(0,0,255)" stroke-width="1.874998" fill="none" d="M 0.000000 750.000000 L 20.979033 0.000000 " />
<path stroke-linejoin="round" stroke-linecap="round" stroke="rgb(255,0,0)" stroke-width="3.749996" fill="none" d="M 16.042784 176.470505 L 19.946806 219.414841 " />
<path stroke-linejoin="round" stroke-linecap="round" stroke="rgb(0,0,255)" stroke-width="1.874998" fill="none" d="M 0.000000 750.000000 L 20.689667 0.000000 " />
<path stroke-linejoin="round" stroke-linecap="round" stroke="rgb(255,0,0)" stroke-width="3.749996" fill="none" d="M 15.873022 174.603149 L 16.042784 176.470505 " />
<path stroke-linejoin="round" stroke-linecap="round" stroke="rgb(0,0,255)" stroke-width="1.874998" fill="none" d="M 0.000000 750.000000 L 20.134226 0.000000 " />
<path stroke-linejoin="round" stroke-linecap="round" stroke="rgb(255,0,0)" stroke-width="3.749996" fill="none" d="M 15.544049 170.984451 L 15.873022 174.603149 " />
<path stroke-linejoin="round" stroke-linecap="round" stroke="rgb(0,0,255)" stroke-width="1.874998" fill="none" d="M 0.000000 750.000000 L 14.150932 0.000000 " />
<path stroke-linejoin="round" stroke-linecap="round" stroke="rgb(255,0,0)" stroke-width="3.749996" fill="none" d="M 11.718750 128.906250 L 15.544049 170.984451 " />
<path stroke-linejoin="round" stroke-linecap="round" stroke="rgb(0,0,255)" stroke-width="1.874998" fill="none" d="M 0.000000 750.000000 L 12.569838 0.000000 " />
<path stroke-linejoin="round" stroke-linecap="round" stroke="rgb(255,0,0)" stroke-width="3.749996" fill="none" d="M 10.613211 116.745293 L 11.718750 128.906250 " />
<path stroke-linejoin="round" stroke-linecap="round" stroke="rgb(0,0,255)" stroke-width="1.874998" fill="none" d="M 0.000000 750.000000 L 8.982047 0.000000 " />
<path stroke-linejoin="round" stroke-linecap="round" stroke="rgb(255,0,0)" stroke-width="3.749996" fill="none" d="M 7.936500 87.301544 L 10.613211 116.745293 " />
<path stroke-linejoin="round" stroke-linecap="round" stroke="rgb(0,0,255)" stroke-width="1.874998" fill="none" d="M 0.000000 750.000000 L 4.237287 0.000000 " />
<path stroke-linejoin="round" stroke-linecap="round" stroke="rgb(255,0,0)" stroke-width="3.749996" fill="none" d="M 3.989361 43.882973 L 7.936500 87.301544 " />
<path stroke-linejoin="round" stroke-linecap="round" stroke="rgb(0,0,255)" stroke-width="1.874998" fill="none" d="M 0.000000 750.000000 L 0.000000 0.000000 " />
<path stroke-linejoin="round" stroke-linecap="round" stroke="rgb(255,0,0)" stroke-width="3.749996" fill="none" d="M 0.000000 0.000000 L 3.989361 43.882973 " />
<circle cx="124.730028" cy="747.030258" r="3.749996" style="fill:rgb(0,127,0);stroke-width:1" /><circle cx="121.760264" cy="744.060472" r="3.749996" style="fill:rgb(0,127,0);stroke-width:1" /><circle cx="118.790500" cy="741.090707" r="3.749996" style="fill:rgb(0,127,0);stroke-width:1" /><circle cx="115.820736" cy="738.120943" r="3.749996" style="fill:rgb(0,127,0);stroke-width:1" /><circle cx="113.510929" cy="735.811137" r="3.749996" style="fill:rgb(0,127,0);stroke-width:1" /><circle cx="112.850972" cy="735.151179" r="3.749996" style="fill:rgb(0,127,0);stroke-width:1" /><circle cx="109.881207" cy="732.181415" r="3.749996" style="fill:rgb(0,127,0);stroke-width:1" /><circle cx="106.911466" cy="729.211651" r="3.749996" style="fill:rgb(0,127,0);stroke-width:1" /><circle cx="104.997598" cy="727.297805" r="3.749996" style="fill:rgb(0,127,0);stroke-width:1" /><circle cx="102.159843" cy="724.460050" r="3.749996" style="fill:rgb(0,127,0);stroke-width:1" /><circle cx="99.322066" cy="721.622273" r="3.749996" style="fill:rgb(0,127,0);stroke-width:1" /><circle cx="96.484289" cy="718.784496" r="3.749996" style="fill:rgb(0,127,0);stroke-width:1" /><circle cx="95.095597" cy="717.395805" r="3.749996" style="fill:rgb(0,127,0);stroke-width:1" /><circle cx="93.646511" cy="715.946719" r="3.749996" style="fill:rgb(0,127,0);stroke-width:1" /><circle cx="90.808734" cy="713.108942" r="3.749996" style="fill:rgb(0,127,0);stroke-width:1" /><circle cx="87.970957" cy="710.271187" r="3.749996" style="fill:rgb(0,127,0);stroke-width:1" /><circle cx="85.133202" cy="707.433410" r="3.749996" style="fill:rgb(0,127,0);stroke-width:1" /><circle cx="82.295425" cy="704.595633" r="3.749996" style="fill:rgb(0,127,0);stroke-width:1" /><circle cx="79.457648" cy="701.757856" r="3.749996" style="fill:rgb(0,127,0);stroke-width:1" /><circle cx="78.793488" cy="701.093696" r="3.749996" style="fill:rgb(0,127,0);stroke-width:1" /><circle cx="76.076478" cy="698.376685" r="3.749996" style="fill:rgb(0,127,0);stroke-width:1" /><circle cx="75.577430" cy="697.877638" r="3.749996" style="fill:rgb(0,127,0);stroke-width:1" /><circle cx="73.359445" cy="695.659675" r="3.749996" style="fill:rgb(0,127,0);stroke-width:1" /><circle cx="72.971307" cy="695.271514" r="3.749996" style="fill:rgb(0,127,0);stroke-width:1" /><circle cx="70.642434" cy="692.942642" r="3.749996" style="fill:rgb(0,127,0);stroke-width:1" /><circle cx="70.365183" cy="692.665413" r="3.749996" style="fill:rgb(0,127,0);stroke-width:1" /><circle cx="67.925423" cy="690.225631" r="3.749996" style="fill:rgb(0,127,0);stroke-width:1" /><circle cx="67.759082" cy="690.059289" r="3.749996" style="fill:rgb(0,127,0);stroke-width:1" /><circle cx="65.208413" cy="687.508620" r="3.749996" style="fill:rgb(0,127,0);stroke-width:1" /><circle cx="62.491380" cy="684.791587" r="3.749996" style="fill:rgb(0,127,0);stroke-width:1" /><circle cx="61.797738" cy="679.775298" r="3.749996" style="fill:rgb(0,127,0);stroke-width:1" /><circle cx="61.284028" cy="674.124531" r="3.749996" style="fill:rgb(0,127,0);stroke-width:1" /><circle cx="60.728744" cy="668.016203" r="3.749996" style="fill:rgb(0,127,0);stroke-width:1" /><circle cx="60.126588" cy="661.392421" r="3.749996" style="fill:rgb(0,127,0);stroke-width:1" /><circle cx="59.623428" cy="655.857749" r="3.749996" style="fill:rgb(0,127,0);stroke-width:1" /><circle cx="58.951959" cy="648.471616" r="3.749996" style="fill:rgb(0,127,0);stroke-width:1" /><circle cx="58.219180" cy="640.410952" r="3.749996" style="fill:rgb(0,127,0);stroke-width:1" /><circle cx="57.692304" cy="634.615391" r="3.749996" style="fill:rgb(0,127,0);stroke-width:1" /><circle cx="56.872040" cy="625.592440" r="3.749996" style="fill:rgb(0,127,0);stroke-width:1" /><circle cx="56.338012" cy="619.718336" r="3.749996" style="fill:rgb(0,127,0);stroke-width:1" /><circle cx="55.813953" cy="613.953508" r="3.749996" style="fill:rgb(0,127,0);stroke-width:1" /><circle cx="55.299528" cy="608.294941" r="3.749996" style="fill:rgb(0,127,0);stroke-width:1" /><circle cx="54.794513" cy="602.739729" r="3.749996" style="fill:rgb(0,127,0);stroke-width:1" /><circle cx="53.827733" cy="592.105284" r="3.749996" style="fill:rgb(0,127,0);stroke-width:1" /><circle cx="52.763812" cy="580.402024" r="3.749996" style="fill:rgb(0,127,0);stroke-width:1" /><circle cx="52.238792" cy="574.626893" r="3.749996" style="fill:rgb(0,127,0);stroke-width:1" /><circle cx="51.047109" cy="561.518356" r="3.749996" style="fill:rgb(0,127,0);stroke-width:1" /><circle cx="49.723752" cy="546.961349" r="3.749996" style="fill:rgb(0,127,0);stroke-width:1" /><circle cx="49.180314" cy="540.983632" r="3.749996" style="fill:rgb(0,127,0);stroke-width:1" /><circle cx="48.128329" cy="529.411778" r="3.749996" style="fill:rgb(0,127,0);stroke-width:1" /><circle cx="47.619045" cy="523.809537" r="3.749996" style="fill:rgb(0,127,0);stroke-width:1" /><circle cx="46.089381" cy="506.983280" r="3.749996" style="fill:rgb(0,127,0);stroke-width:1" /><circle cx="45.580097" cy="501.381252" r="3.749996" style="fill:rgb(0,127,0);stroke-width:1" /><circle cx="43.859638" cy="482.456177" r="3.749996" style="fill:rgb(0,127,0);stroke-width:1" /><circle cx="43.352589" cy="476.878613" r="3.749996" style="fill:rgb(0,127,0);stroke-width:1" /><circle cx="42.525776" cy="467.783511" r="3.749996" style="fill:rgb(0,127,0);stroke-width:1" /><circle cx="42.372867" cy="466.101738" r="3.749996" style="fill:rgb(0,127,0);stroke-width:1" /><circle cx="38.860112" cy="427.461147" r="3.749996" style="fill:rgb(0,127,0);stroke-width:1" /><circle cx="35.156250" cy="386.718810" r="3.749996" style="fill:rgb(0,127,0);stroke-width:1" /><circle cx="34.482747" cy="379.310399" r="3.749996" style="fill:rgb(0,127,0);stroke-width:1" /><circle cx="34.090899" cy="375.000030" r="3.749996" style="fill:rgb(0,127,0);stroke-width:1" /><circle cx="33.088222" cy="363.970637" r="3.749996" style="fill:rgb(0,127,0);stroke-width:1" /><circle cx="32.766983" cy="360.436917" r="3.749996" style="fill:rgb(0,127,0);stroke-width:1" /><circle cx="32.451913" cy="356.971204" r="3.749996" style="fill:rgb(0,127,0);stroke-width:1" /><circle cx="32.142855" cy="353.571475" r="3.749996" style="fill:rgb(0,127,0);stroke-width:1" /><circle cx="29.999994" cy="330.000043" r="3.749996" style="fill:rgb(0,127,0);stroke-width:1" /><circle cx="29.702961" cy="326.732755" r="3.749996" style="fill:rgb(0,127,0);stroke-width:1" /><circle cx="28.169006" cy="309.859185" r="3.749996" style="fill:rgb(0,127,0);stroke-width:1" /><circle cx="27.925529" cy="307.180909" r="3.749996" style="fill:rgb(0,127,0);stroke-width:1" /><circle cx="26.785702" cy="294.642895" r="3.749996" style="fill:rgb(0,127,0);stroke-width:1" /><circle cx="26.515156" cy="291.666688" r="3.749996" style="fill:rgb(0,127,0);stroke-width:1" /><circle cx="25.990091" cy="285.891144" r="3.749996" style="fill:rgb(0,127,0);stroke-width:1" /><circle cx="25.485434" cy="280.339893" r="3.749996" style="fill:rgb(0,127,0);stroke-width:1" /><circle cx="24.064176" cy="264.705956" r="3.749996" style="fill:rgb(0,127,0);stroke-width:1" /><circle cx="23.809522" cy="261.904780" r="3.749996" style="fill:rgb(0,127,0);stroke-width:1" /><circle cx="19.946806" cy="219.414834" r="3.749996" style="fill:rgb(0,127,0);stroke-width:1" /><circle cx="16.042784" cy="176.470511" r="3.749996" style="fill:rgb(0,127,0);stroke-width:1" /><circle cx="15.873022" cy="174.603157" r="3.749996" style="fill:rgb(0,127,0);stroke-width:1" /><circle cx="15.544049" cy="170.984454" r="3.749996" style="fill:rgb(0,127,0);stroke-width:1" /><circle cx="11.718750" cy="128.906250" r="3.749996" style="fill:rgb(0,127,0);stroke-width:1" /><circle cx="10.613210" cy="116.745293" r="3.749996" style="fill:rgb(0,127,0);stroke-width:1" /><circle cx="7.936500" cy="87.301545" r="3.749996" style="fill:rgb(0,127,0);stroke-width:1" /><circle cx="3.989361" cy="43.882973" r="3.749996" style="fill:rgb(0,127,0);stroke-width:1" /><circle cx="750.000000" cy="750.000000" r="3.749996" style="fill:rgb(0,127,0);stroke-width:1" /><path stroke-linejoin="round" stroke-linecap="round" stroke="rgb(255,255,255)" stroke-width="3.749996" fill="none" d="M 0.000000 750.000000 L 750.000000 750.000000 M 0.000000 750.000000 L 0.000000 0.000000 " />

</svg>