<svg xmlns="http://www.w3.org/2000/svg" version="1.1" width = "750" height = "750" viewBox = "0 0 750 750"  shape-rendering="crispEdges">
<path stroke-linejoin="round" stroke-linecap="round" stroke="rgb(255,255,0)" stroke-width="3.749996" fill="none" d="M 107.142853 750.000000 L 0.000000 0.000000 " />
<path stroke-linejoin="round" stroke-linecap="round" stroke="rgb(63,63,63)" stroke-width="3.749996" fill="none" d="M 0.000000 0.000000 L 750.000000 750.000000 M 107.142853 750.000000 L 49.450546 0.000000 " />
<path stroke-linejoin="round" stroke-linecap="round" stroke="rgb(191,191,191)" stroke-width="3.749996" fill="none" d="M 0.000000 642.857178 L 107.142853 750.000000 M 0.000000 0.000000 L 57.692303 750.000000 " />
<path stroke-linejoin="round" stroke-linecap="round" stroke="rgb(0,0,255)" stroke-width="1.874998" fill="none" d="M 0.000000 750.000000 L 750.000000 562.500000 " />
<path stroke-linejoin="round" stroke-linecap="round" stroke="rgb(255,0,0)" stroke-width="3.749996" fill="none" d="M 105.121292 723.719666 L 107.142853 750.000000 " />
<path stroke-linejoin="round" stroke-linecap="round" stroke="rgb(0,0,255)" stroke-width="1.874998" fill="none" d="M 0.000000 750.000000 L 750.000000 365.384583 " />
<path stroke-linejoin="round" stroke-linecap="round" stroke="rgb(255,0,0)" stroke-width="3.749996" fill="none" d="M 103.076714 697.140137 L 105.121292 723.719666 " />
<path stroke-linejoin="round" stroke-linecap="round" stroke="rgb(0,0,255)" stroke-width="1.874998" fill="none" d="M 0.000000 750.000000 L 750.000000 157.894714 " />
<path stroke-linejoin="round" stroke-linecap="round" stroke="rgb(255,0,0)" stroke-width="3.749996" fill="none" d="M 101.008728 670.256287 L 103.076714 697.140137 " />
<path stroke-linejoin="round" stroke-linecap="round" stroke="rgb(0,0,255)" stroke-width="1.874998" fill="none" d="M 0.000000 750.000000 L 731.250000 0.000000 " />
<path stroke-linejoin="round" stroke-linecap="round" stroke="rgb(255,0,0)" stroke-width="3.749996" fill="none" d="M 99.307892 648.145691 L 101.008728 670.256287 " />
<path stroke-linejoin="round" stroke-linecap="round" stroke="rgb(0,0,255)" stroke-width="1.874998" fill="none" d="M 0.000000 750.000000 L 570.000000 0.000000 " />
<path stroke-linejoin="round" stroke-linecap="round" stroke="rgb(255,0,0)" stroke-width="3.749996" fill="none" d="M 97.295166 621.980042 L 99.307892 648.145752 " />
<path stroke-linejoin="round" stroke-linecap="round" stroke="rgb(0,0,255)" stroke-width="1.874998" fill="none" d="M 0.000000 750.000000 L 462.500000 0.000000 " />
<path stroke-linejoin="round" stroke-linecap="round" stroke="rgb(255,0,0)" stroke-width="3.749996" fill="none" d="M 95.260086 595.524170 L 97.295166 621.980042 " />
<path stroke-linejoin="round" stroke-linecap="round" stroke="rgb(0,0,255)" stroke-width="1.874998" fill="none" d="M 0.000000 750.000000 L 407.142883 0.000000 " />
<path stroke-linejoin="round" stroke-linecap="round" stroke="rgb(255,0,0)" stroke-width="3.749996" fill="none" d="M 93.844994 577.127625 L 95.260086 595.524170 " />
<path stroke-linejoin="round" stroke-linecap="round" stroke="rgb(0,0,255)" stroke-width="1.874998" fill="none" d="M 0.000000 750.000000 L 385.714294 0.000000 " />
<path stroke-linejoin="round" stroke-linecap="round" stroke="rgb(255,0,0)" stroke-width="3.749996" fill="none" d="M 93.202339 568.773254 L 93.844994 577.127625 " />
<path stroke-linejoin="round" stroke-linecap="round" stroke="rgb(0,0,255)" stroke-width="1.874998" fill="none" d="M 0.000000 750.000000 L 346.875000 0.000000 " />
<path stroke-linejoin="round" stroke-linecap="round" stroke="rgb(255,0,0)" stroke-width="3.749996" fill="none" d="M 91.864029 551.375061 L 93.202339 568.773254 " />
<path stroke-linejoin="round" stroke-linecap="round" stroke="rgb(0,0,255)" stroke-width="1.874998" fill="none" d="M 0.000000 750.000000 L 328.124969 0.000000 " />
<path stroke-linejoin="round" stroke-linecap="round" stroke="rgb(255,0,0)" stroke-width="3.749996" fill="none" d="M 91.121506 541.722290 L 91.864029 551.375061 " />
<path stroke-linejoin="round" stroke-linecap="round" stroke="rgb(0,0,255)" stroke-width="1.874998" fill="none" d="M 0.000000 750.000000 L 283.333344 0.000000 " />
<path stroke-linejoin="round" stroke-linecap="round" stroke="rgb(255,0,0)" stroke-width="3.749996" fill="none" d="M 89.017197 514.366272 L 91.121506 541.722290 " />
<path stroke-linejoin="round" stroke-linecap="round" stroke="rgb(0,0,255)" stroke-width="1.874998" fill="none" d="M 0.000000 750.000000 L 262.500000 0.000000 " />
<path stroke-linejoin="round" stroke-linecap="round" stroke="rgb(255,0,0)" stroke-width="3.749996" fill="none" d="M 87.837830 499.034729 L 89.017197 514.366272 " />
<path stroke-linejoin="round" stroke-linecap="round" stroke="rgb(0,0,255)" stroke-width="1.874998" fill="none" d="M 0.000000 750.000000 L 231.818192 0.000000 " />
<path stroke-linejoin="round" stroke-linecap="round" stroke="rgb(255,0,0)" stroke-width="3.749996" fill="none" d="M 85.791931 472.437866 L 87.837830 499.034790 " />
<path stroke-linejoin="round" stroke-linecap="round" stroke="rgb(0,0,255)" stroke-width="1.874998" fill="none" d="M 0.000000 750.000000 L 206.250000 0.000000 " />
<path stroke-linejoin="round" stroke-linecap="round" stroke="rgb(255,0,0)" stroke-width="3.749996" fill="none" d="M 83.723656 445.550354 L 85.791931 472.437866 " />
<path stroke-linejoin="round" stroke-linecap="round" stroke="rgb(0,0,255)" stroke-width="1.874998" fill="none" d="M 0.000000 750.000000 L 184.615372 0.000000 " />
<path stroke-linejoin="round" stroke-linecap="round" stroke="rgb(255,0,0)" stroke-width="3.749996" fill="none" d="M 81.632652 418.367340 L 83.723656 445.550354 " />
<path stroke-linejoin="round" stroke-linecap="round" stroke="rgb(0,0,255)" stroke-width="1.874998" fill="none" d="M 0.000000 750.000000 L 176.785736 0.000000 " />
<path stroke-linejoin="round" stroke-linecap="round" stroke="rgb(255,0,0)" stroke-width="3.749996" fill="none" d="M 80.780823 407.293518 L 81.632652 418.367340 " />
<path stroke-linejoin="round" stroke-linecap="round" stroke="rgb(0,0,255)" stroke-width="1.874998" fill="none" d="M 0.000000 750.000000 L 166.071426 0.000000 " />
<path stroke-linejoin="round" stroke-linecap="round" stroke="rgb(255,0,0)" stroke-width="3.749996" fill="none" d="M 79.518532 390.884003 L 80.780823 407.293518 " />
<path stroke-linejoin="round" stroke-linecap="round" stroke="rgb(0,0,255)" stroke-width="1.874998" fill="none" d="M 0.000000 750.000000 L 160.000000 0.000000 " />
<path stroke-linejoin="round" stroke-linecap="round" stroke="rgb(255,0,0)" stroke-width="3.749996" fill="none" d="M 78.748116 380.868286 L 79.518532 390.884003 " />
<path stroke-linejoin="round" stroke-linecap="round" stroke="rgb(0,0,255)" stroke-width="1.874998" fill="none" d="M 0.000000 750.000000 L 149.999985 0.000000 " />
<path stroke-linejoin="round" stroke-linecap="round" stroke="rgb(255,0,0)" stroke-width="3.749996" fill="none" d="M 77.380951 363.095245 L 78.748116 380.868286 " />
<path stroke-linejoin="round" stroke-linecap="round" stroke="rgb(0,0,255)" stroke-width="1.874998" fill="none" d="M 0.000000 750.000000 L 135.937485 0.000000 " />
<path stroke-linejoin="round" stroke-linecap="round" stroke="rgb(255,0,0)" stroke-width="3.749996" fill="none" d="M 75.219467 334.996033 L 77.380951 363.095245 " />
<path stroke-linejoin="round" stroke-linecap="round" stroke="rgb(0,0,255)" stroke-width="1.874998" fill="none" d="M 0.000000 750.000000 L 123.529404 0.000000 " />
<path stroke-linejoin="round" stroke-linecap="round" stroke="rgb(255,0,0)" stroke-width="3.749996" fill="none" d="M 73.033714 306.581085 L 75.219467 334.996033 " />
<path stroke-linejoin="round" stroke-linecap="round" stroke="rgb(0,0,255)" stroke-width="1.874998" fill="none" d="M 0.000000 750.000000 L 120.833336 0.000000 " />
<path stroke-linejoin="round" stroke-linecap="round" stroke="rgb(255,0,0)" stroke-width="3.749996" fill="none" d="M 72.518593 299.884613 L 73.033714 306.581085 " />
<path stroke-linejoin="round" stroke-linecap="round" stroke="rgb(0,0,255)" stroke-width="1.874998" fill="none" d="M 0.000000 750.000000 L 110.526321 0.000000 " />
<path stroke-linejoin="round" stroke-linecap="round" stroke="rgb(255,0,0)" stroke-width="3.749996" fill="none" d="M 70.397102 272.305328 L 72.518593 299.884613 " />
<path stroke-linejoin="round" stroke-linecap="round" stroke="rgb(0,0,255)" stroke-width="1.874998" fill="none" d="M 0.000000 750.000000 L 101.249992 0.000000 " />
<path stroke-linejoin="round" stroke-linecap="round" stroke="rgb(255,0,0)" stroke-width="3.749996" fill="none" d="M 68.252518 244.425735 L 70.397102 272.305328 " />
<path stroke-linejoin="round" stroke-linecap="round" stroke="rgb(0,0,255)" stroke-width="1.874998" fill="none" d="M 0.000000 750.000000 L 97.014915 0.000000 " />
<path stroke-linejoin="round" stroke-linecap="round" stroke="rgb(255,0,0)" stroke-width="3.749996" fill="none" d="M 65.724648 241.897903 L 68.252518 244.425781 " />
<path stroke-linejoin="round" stroke-linecap="round" stroke="rgb(0,0,255)" stroke-width="1.874998" fill="none" d="M 0.000000 750.000000 L 95.971565 0.000000 " />
<path stroke-linejoin="round" stroke-linecap="round" stroke="rgb(255,0,0)" stroke-width="3.749996" fill="none" d="M 65.459267 238.447937 L 65.724648 241.897964 " />
<path stroke-linejoin="round" stroke-linecap="round" stroke="rgb(0,0,255)" stroke-width="1.874998" fill="none" d="M 0.000000 750.000000 L 91.911774 0.000000 " />
<path stroke-linejoin="round" stroke-linecap="round" stroke="rgb(255,0,0)" stroke-width="3.749996" fill="none" d="M 62.992504 235.981155 L 65.459267 238.447937 " />
<path stroke-linejoin="round" stroke-linecap="round" stroke="rgb(0,0,255)" stroke-width="1.874998" fill="none" d="M 0.000000 750.000000 L 87.804886 0.000000 " />
<path stroke-linejoin="round" stroke-linecap="round" stroke="rgb(255,0,0)" stroke-width="3.749996" fill="none" d="M 60.472794 233.461456 L 62.992504 235.981155 " />
<path stroke-linejoin="round" stroke-linecap="round" stroke="rgb(0,0,255)" stroke-width="1.874998" fill="none" d="M 0.000000 750.000000 L 86.956520 0.000000 " />
<path stroke-linejoin="round" stroke-linecap="round" stroke="rgb(255,0,0)" stroke-width="3.749996" fill="none" d="M 59.949226 232.937958 L 60.472794 233.461533 " />
<path stroke-linejoin="round" stroke-linecap="round" stroke="rgb(0,0,255)" stroke-width="1.874998" fill="none" d="M 0.000000 750.000000 L 83.737854 0.000000 " />
<path stroke-linejoin="round" stroke-linecap="round" stroke="rgb(255,0,0)" stroke-width="3.749996" fill="none" d="M 57.953106 230.941818 L 59.949226 232.937958 " />
<path stroke-linejoin="round" stroke-linecap="round" stroke="rgb(0,0,255)" stroke-width="1.874998" fill="none" d="M 0.000000 750.000000 L 79.710159 0.000000 " />
<path stroke-linejoin="round" stroke-linecap="round" stroke="rgb(255,0,0)" stroke-width="3.749996" fill="none" d="M 55.433392 228.422195 L 57.953106 230.941818 " />
<path stroke-linejoin="round" stroke-linecap="round" stroke="rgb(0,0,255)" stroke-width="1.874998" fill="none" d="M 0.000000 750.000000 L 75.721153 0.000000 " />
<path stroke-linejoin="round" stroke-linecap="round" stroke="rgb(255,0,0)" stroke-width="3.749996" fill="none" d="M 52.913681 225.902481 L 55.433392 228.422195 " />
<path stroke-linejoin="round" stroke-linecap="round" stroke="rgb(0,0,255)" stroke-width="1.874998" fill="none" d="M 0.000000 750.000000 L 74.999992 0.000000 " />
<path stroke-linejoin="round" stroke-linecap="round" stroke="rgb(255,0,0)" stroke-width="3.749996" fill="none" d="M 52.455559 225.444321 L 52.913681 225.902481 " />
<path stroke-linejoin="round" stroke-linecap="round" stroke="rgb(0,0,255)" stroke-width="1.874998" fill="none" d="M 0.000000 750.000000 L 71.090050 0.000000 " />
<path stroke-linejoin="round" stroke-linecap="round" stroke="rgb(255,0,0)" stroke-width="3.749996" fill="none" d="M 49.957684 222.946381 L 52.455582 225.444275 " />
<path stroke-linejoin="round" stroke-linecap="round" stroke="rgb(0,0,255)" stroke-width="1.874998" fill="none" d="M 0.000000 750.000000 L 67.216988 0.000000 " />
<path stroke-linejoin="round" stroke-linecap="round" stroke="rgb(255,0,0)" stroke-width="3.749996" fill="none" d="M 47.459812 220.448456 L 49.957684 222.946381 " />
<path stroke-linejoin="round" stroke-linecap="round" stroke="rgb(0,0,255)" stroke-width="1.874998" fill="none" d="M 0.000000 750.000000 L 63.380287 0.000000 " />
<path stroke-linejoin="round" stroke-linecap="round" stroke="rgb(255,0,0)" stroke-width="3.749996" fill="none" d="M 44.961914 217.950577 L 47.459812 220.448456 " />
<path stroke-linejoin="round" stroke-linecap="round" stroke="rgb(0,0,255)" stroke-width="1.874998" fill="none" d="M 0.000000 750.000000 L 59.579441 0.000000 " />
<path stroke-linejoin="round" stroke-linecap="round" stroke="rgb(255,0,0)" stroke-width="3.749996" fill="none" d="M 42.464039 215.452713 L 44.961914 217.950577 " />
<path stroke-linejoin="round" stroke-linecap="round" stroke="rgb(0,0,255)" stroke-width="1.874998" fill="none" d="M 0.000000 750.000000 L 55.813953 0.000000 " />
<path stroke-linejoin="round" stroke-linecap="round" stroke="rgb(255,0,0)" stroke-width="3.749996" fill="none" d="M 39.966145 212.954880 L 42.464039 215.452713 " />
<path stroke-linejoin="round" stroke-linecap="round" stroke="rgb(0,0,255)" stroke-width="1.874998" fill="none" d="M 0.000000 750.000000 L 55.299549 0.000000 " />
<path stroke-linejoin="round" stroke-linecap="round" stroke="rgb(255,0,0)" stroke-width="3.749996" fill="none" d="M 39.623089 212.611862 L 39.966145 212.954880 " />
<path stroke-linejoin="round" stroke-linecap="round" stroke="rgb(0,0,255)" stroke-width="1.874998" fill="none" d="M 0.000000 750.000000 L 51.605499 0.000000 " />
<path stroke-linejoin="round" stroke-linecap="round" stroke="rgb(255,0,0)" stroke-width="3.749996" fill="none" d="M 37.146648 210.135498 L 39.623089 212.611908 " />
<path stroke-linejoin="round" stroke-linecap="round" stroke="rgb(0,0,255)" stroke-width="1.874998" fill="none" d="M 0.000000 750.000000 L 47.945202 0.000000 " />
<path stroke-linejoin="round" stroke-linecap="round" stroke="rgb(255,0,0)" stroke-width="3.749996" fill="none" d="M 34.670189 207.659042 L 37.146648 210.135498 " />
<path stroke-linejoin="round" stroke-linecap="round" stroke="rgb(0,0,255)" stroke-width="1.874998" fill="none" d="M 0.000000 750.000000 L 44.318184 0.000000 " />
<path stroke-linejoin="round" stroke-linecap="round" stroke="rgb(255,0,0)" stroke-width="3.749996" fill="none" d="M 32.193748 205.182602 L 34.670189 207.659042 " />
<path stroke-linejoin="round" stroke-linecap="round" stroke="rgb(0,0,255)" stroke-width="1.874998" fill="none" d="M 0.000000 750.000000 L 40.723980 0.000000 " />
<path stroke-linejoin="round" stroke-linecap="round" stroke="rgb(255,0,0)" stroke-width="3.749996" fill="none" d="M 29.717312 202.706131 L 32.193748 205.182602 " />
<path stroke-linejoin="round" stroke-linecap="round" stroke="rgb(0,0,255)" stroke-width="1.874998" fill="none" d="M 0.000000 750.000000 L 37.500008 0.000000 " />
<path stroke-linejoin="round" stroke-linecap="round" stroke="rgb(255,0,0)" stroke-width="3.749996" fill="none" d="M 27.476728 200.465530 L 29.717312 202.706131 " />
<path stroke-linejoin="round" stroke-linecap="round" stroke="rgb(0,0,255)" stroke-width="1.874998" fill="none" d="M 0.000000 750.000000 L 33.936649 0.000000 " />
<path stroke-linejoin="round" stroke-linecap="round" stroke="rgb(255,0,0)" stroke-width="3.749996" fill="none" d="M 24.978832 197.967682 L 27.476728 200.465530 " />
<path stroke-linejoin="round" stroke-linecap="round" stroke="rgb(0,0,255)" stroke-width="1.874998" fill="none" d="M 0.000000 750.000000 L 33.632286 0.000000 " />
<path stroke-linejoin="round" stroke-linecap="round" stroke="rgb(255,0,0)" stroke-width="3.749996" fill="none" d="M 24.764433 197.753281 L 24.978832 197.967682 " />
<path stroke-linejoin="round" stroke-linecap="round" stroke="rgb(0,0,255)" stroke-width="1.874998" fill="none" d="M 0.000000 750.000000 L 33.333332 0.000000 " />
<path stroke-linejoin="round" stroke-linecap="round" stroke="rgb(255,0,0)" stroke-width="3.749996" fill="none" d="M 24.553658 197.542542 L 24.764433 197.753281 " />
<path stroke-linejoin="round" stroke-linecap="round" stroke="rgb(0,0,255)" stroke-width="1.874998" fill="none" d="M 0.000000 750.000000 L 30.133924 0.000000 " />
<path stroke-linejoin="round" stroke-linecap="round" stroke="rgb(255,0,0)" stroke-width="3.749996" fill="none" d="M 22.287994 195.276825 L 24.553658 197.542542 " />
<path stroke-linejoin="round" stroke-linecap="round" stroke="rgb(0,0,255)" stroke-width="1.874998" fill="none" d="M 0.000000 750.000000 L 26.666656 0.000000 " />
<path stroke-linejoin="round" stroke-linecap="round" stroke="rgb(255,0,0)" stroke-width="3.749996" fill="none" d="M 19.811533 192.800400 L 22.287994 195.276825 " />
<path stroke-linejoin="round" stroke-linecap="round" stroke="rgb(0,0,255)" stroke-width="1.874998" fill="none" d="M 0.000000 750.000000 L 26.431717 0.000000 " />
<path stroke-linejoin="round" stroke-linecap="round" stroke="rgb(255,0,0)" stroke-width="3.749996" fill="none" d="M 19.642935 192.631760 L 19.811533 192.800400 " />
<path stroke-linejoin="round" stroke-linecap="round" stroke="rgb(0,0,255)" stroke-width="1.874998" fill="none" d="M 0.000000 750.000000 L 26.200869 0.000000 " />
<path stroke-linejoin="round" stroke-linecap="round" stroke="rgb(255,0,0)" stroke-width="3.749996" fill="none" d="M 19.477173 192.465973 L 19.642935 192.631760 " />
<path stroke-linejoin="round" stroke-linecap="round" stroke="rgb(0,0,255)" stroke-width="1.874998" fill="none" d="M 0.000000 750.000000 L 22.826090 0.000000 " />
<path stroke-linejoin="round" stroke-linecap="round" stroke="rgb(255,0,0)" stroke-width="3.749996" fill="none" d="M 17.042532 190.031342 L 19.477173 192.465973 " />
<path stroke-linejoin="round" stroke-linecap="round" stroke="rgb(0,0,255)" stroke-width="1.874998" fill="none" d="M 0.000000 750.000000 L 19.480526 0.000000 " />
<path stroke-linejoin="round" stroke-linecap="round" stroke="rgb(255,0,0)" stroke-width="3.749996" fill="none" d="M 14.607869 187.596649 L 17.042532 190.031342 " />
<path stroke-linejoin="round" stroke-linecap="round" stroke="rgb(0,0,255)" stroke-width="1.874998" fill="none" d="M 0.000000 750.000000 L 19.313313 0.000000 " />
<path stroke-linejoin="round" stroke-linecap="round" stroke="rgb(255,0,0)" stroke-width="3.749996" fill="none" d="M 14.485627 187.474411 L 14.607869 187.596649 " />
<path stroke-linejoin="round" stroke-linecap="round" stroke="rgb(0,0,255)" stroke-width="1.874998" fill="none" d="M 0.000000 750.000000 L 19.148939 0.000000 " />
<path stroke-linejoin="round" stroke-linecap="round" stroke="rgb(255,0,0)" stroke-width="3.749996" fill="none" d="M 14.376998 186.901016 L 14.485627 187.474411 " />
<path stroke-linejoin="round" stroke-linecap="round" stroke="rgb(0,0,255)" stroke-width="1.874998" fill="none" d="M 0.000000 750.000000 L 15.889831 0.000000 " />
<path stroke-linejoin="round" stroke-linecap="round" stroke="rgb(255,0,0)" stroke-width="3.749996" fill="none" d="M 12.458459 161.960205 L 14.376998 186.901016 " />
<path stroke-linejoin="round" stroke-linecap="round" stroke="rgb(0,0,255)" stroke-width="1.874998" fill="none" d="M 0.000000 750.000000 L 12.658238 0.000000 " />
<path stroke-linejoin="round" stroke-linecap="round" stroke="rgb(255,0,0)" stroke-width="3.749996" fill="none" d="M 10.380618 134.948166 L 12.458459 161.960205 " />
<path stroke-linejoin="round" stroke-linecap="round" stroke="rgb(0,0,255)" stroke-width="1.874998" fill="none" d="M 0.000000 750.000000 L 12.552291 0.000000 " />
<path stroke-linejoin="round" stroke-linecap="round" stroke="rgb(255,0,0)" stroke-width="3.749996" fill="none" d="M 10.309272 134.020691 L 10.380618 134.948166 " />
<path stroke-linejoin="round" stroke-linecap="round" stroke="rgb(0,0,255)" stroke-width="1.874998" fill="none" d="M 0.000000 750.000000 L 12.448132 0.000000 " />
<path stroke-linejoin="round" stroke-linecap="round" stroke="rgb(255,0,0)" stroke-width="3.749996" fill="none" d="M 10.238908 133.105881 L 10.309272 134.020691 " />
<path stroke-linejoin="round" stroke-linecap="round" stroke="rgb(0,0,255)" stroke-width="1.874998" fill="none" d="M 0.000000 750.000000 L 12.345672 0.000000 " />
<path stroke-linejoin="round" stroke-linecap="round" stroke="rgb(255,0,0)" stroke-width="3.749996" fill="none" d="M 10.169484 132.203461 L 10.238908 133.105881 " />
<path stroke-linejoin="round" stroke-linecap="round" stroke="rgb(0,0,255)" stroke-width="1.874998" fill="none" d="M 0.000000 750.000000 L 12.244887 0.000000 " />
<path stroke-linejoin="round" stroke-linecap="round" stroke="rgb(255,0,0)" stroke-width="3.749996" fill="none" d="M 10.100998 131.313248 L 10.169484 132.203461 " />
<circle cx="105.121292" cy="723.719671" r="3.749996" style="fill:rgb(0,127,0);stroke-width:1" /><circle cx="103.076711" cy="697.140142" r="3.749996" style="fill:rgb(0,127,0);stroke-width:1" /><circle cx="101.008728" cy="670.256272" r="3.749996" style="fill:rgb(0,127,0);stroke-width:1" /><circle cx="99.307895" cy="648.145728" r="3.749996" style="fill:rgb(0,127,0);stroke-width:1" /><circle cx="97.295165" cy="621.980064" r="3.749996" style="fill:rgb(0,127,0);stroke-width:1" /><circle cx="95.260084" cy="595.524184" r="3.749996" style="fill:rgb(0,127,0);stroke-width:1" /><circle cx="93.844995" cy="577.127650" r="3.749996" style="fill:rgb(0,127,0);stroke-width:1" /><circle cx="93.202338" cy="568.773262" r="3.749996" style="fill:rgb(0,127,0);stroke-width:1" /><circle cx="91.864027" cy="551.375102" r="3.749996" style="fill:rgb(0,127,0);stroke-width:1" /><circle cx="91.121502" cy="541.722279" r="3.749996" style="fill:rgb(0,127,0);stroke-width:1" /><circle cx="89.017197" cy="514.366273" r="3.749996" style="fill:rgb(0,127,0);stroke-width:1" /><circle cx="87.837830" cy="499.034744" r="3.749996" style="fill:rgb(0,127,0);stroke-width:1" /><circle cx="85.791931" cy="472.437881" r="3.749996" style="fill:rgb(0,127,0);stroke-width:1" /><circle cx="83.723657" cy="445.550350" r="3.749996" style="fill:rgb(0,127,0);stroke-width:1" /><circle cx="81.632651" cy="418.367336" r="3.749996" style="fill:rgb(0,127,0);stroke-width:1" /><circle cx="80.780827" cy="407.293514" r="3.749996" style="fill:rgb(0,127,0);stroke-width:1" /><circle cx="79.518534" cy="390.883990" r="3.749996" style="fill:rgb(0,127,0);stroke-width:1" /><circle cx="78.748114" cy="380.868265" r="3.749996" style="fill:rgb(0,127,0);stroke-width:1" /><circle cx="77.380948" cy="363.095232" r="3.749996" style="fill:rgb(0,127,0);stroke-width:1" /><circle cx="75.219467" cy="334.996029" r="3.749996" style="fill:rgb(0,127,0);stroke-width:1" /><circle cx="73.033713" cy="306.581089" r="3.749996" style="fill:rgb(0,127,0);stroke-width:1" /><circle cx="72.518595" cy="299.884608" r="3.749996" style="fill:rgb(0,127,0);stroke-width:1" /><circle cx="70.397101" cy="272.305313" r="3.749996" style="fill:rgb(0,127,0);stroke-width:1" /><circle cx="68.252519" cy="244.425718" r="3.749996" style="fill:rgb(0,127,0);stroke-width:1" /><circle cx="65.724649" cy="241.897903" r="3.749996" style="fill:rgb(0,127,0);stroke-width:1" /><circle cx="65.459266" cy="238.447923" r="3.749996" style="fill:rgb(0,127,0);stroke-width:1" /><circle cx="62.992506" cy="235.981163" r="3.749996" style="fill:rgb(0,127,0);stroke-width:1" /><circle cx="60.472794" cy="233.461462" r="3.749996" style="fill:rgb(0,127,0);stroke-width:1" /><circle cx="59.949227" cy="232.937951" r="3.749996" style="fill:rgb(0,127,0);stroke-width:1" /><circle cx="57.953104" cy="230.941828" r="3.749996" style="fill:rgb(0,127,0);stroke-width:1" /><circle cx="55.433393" cy="228.422184" r="3.749996" style="fill:rgb(0,127,0);stroke-width:1" /><circle cx="52.913681" cy="225.902494" r="3.749996" style="fill:rgb(0,127,0);stroke-width:1" /><circle cx="52.455559" cy="225.444317" r="3.749996" style="fill:rgb(0,127,0);stroke-width:1" /><circle cx="49.957685" cy="222.946387" r="3.749996" style="fill:rgb(0,127,0);stroke-width:1" /><circle cx="47.459811" cy="220.448457" r="3.749996" style="fill:rgb(0,127,0);stroke-width:1" /><circle cx="44.961914" cy="217.950583" r="3.749996" style="fill:rgb(0,127,0);stroke-width:1" /><circle cx="42.464040" cy="215.452708" r="3.749996" style="fill:rgb(0,127,0);stroke-width:1" /><circle cx="39.966144" cy="212.954879" r="3.749996" style="fill:rgb(0,127,0);stroke-width:1" /><circle cx="39.623089" cy="212.611858" r="3.749996" style="fill:rgb(0,127,0);stroke-width:1" /><circle cx="37.146650" cy="210.135497" r="3.749996" style="fill:rgb(0,127,0);stroke-width:1" /><circle cx="34.670189" cy="207.659025" r="3.749996" style="fill:rgb(0,127,0);stroke-width:1" /><circle cx="32.193750" cy="205.182608" r="3.749996" style="fill:rgb(0,127,0);stroke-width:1" /><circle cx="29.717311" cy="202.706136" r="3.749996" style="fill:rgb(0,127,0);stroke-width:1" /><circle cx="27.476728" cy="200.465541" r="3.749996" style="fill:rgb(0,127,0);stroke-width:1" /><circle cx="24.978831" cy="197.967667" r="3.749996" style="fill:rgb(0,127,0);stroke-width:1" /><circle cx="24.764434" cy="197.753292" r="3.749996" style="fill:rgb(0,127,0);stroke-width:1" /><circle cx="24.553657" cy="197.542548" r="3.749996" style="fill:rgb(0,127,0);stroke-width:1" /><circle cx="22.287995" cy="195.276819" r="3.749996" style="fill:rgb(0,127,0);stroke-width:1" /><circle cx="19.811533" cy="192.800403" r="3.749996" style="fill:rgb(0,127,0);stroke-width:1" /><circle cx="19.642934" cy="192.631759" r="3.749996" style="fill:rgb(0,127,0);stroke-width:1" /><circle cx="19.477174" cy="192.465965" r="3.749996" style="fill:rgb(0,127,0);stroke-width:1" /><circle cx="17.042533" cy="190.031335" r="3.749996" style="fill:rgb(0,127,0);stroke-width:1" /><circle cx="14.607869" cy="187.596649" r="3.749996" style="fill:rgb(0,127,0);stroke-width:1" /><circle cx="14.485627" cy="187.474407" r="3.749996" style="fill:rgb(0,127,0);stroke-width:1" /><circle cx="14.376998" cy="186.901018" r="3.749996" style="fill:rgb(0,127,0);stroke-width:1" /><circle cx="12.458459" cy="161.960207" r="3.749996" style="fill:rgb(0,127,0);stroke-width:1" /><circle cx="10.380618" cy="134.948172" r="3.749996" style="fill:rgb(0,127,0);stroke-width:1" /><circle cx="10.309272" cy="134.020686" r="3.749996" style="fill:rgb(0,127,0);stroke-width:1" /><circle cx="10.238908" cy="133.105874" r="3.749996" style="fill:rgb(0,127,0);stroke-width:1" /><circle cx="10.169484" cy="132.203467" r="3.749996" style="fill:rgb(0,127,0);stroke-width:1" /><circle cx="10.100998" cy="131.313242" r="3.749996" style="fill:rgb(0,127,0);stroke-width:1" /><path stroke-linejoin="round" stroke-linecap="round" stroke="rgb(255,255,255)" stroke-width="3.749996" fill="none" d="M 0.000000 750.000000 L 750.000000 750.000000 M 0.000000 750.000000 L 0.000000 0.000000 " />

</svg>