<svg xmlns="http://www.w3.org/2000/svg" version="1.1" width = "750" height = "750" viewBox = "0 0 750 750"  shape-rendering="crispEdges">
<path stroke-linejoin="round" stroke-linecap="round" stroke="rgb(255,255,0)" stroke-width="3.749996" fill="none" d="M 187.500000 750.000000 L 0.000000 0.000000 " />
<path stroke-linejoin="round" stroke-linecap="round" stroke="rgb(63,63,63)" stroke-width="3.749996" fill="none" d="M 0.000000 0.000000 L 750.000000 750.000000 M 187.500000 750.000000 L 80.357147 0.000000 " />
<path stroke-linejoin="round" stroke-linecap="round" stroke="rgb(191,191,191)" stroke-width="3.749996" fill="none" d="M 0.000000 562.500000 L 187.500000 750.000000 M 0.000000 0.000000 L 107.142853 750.000000 " />
<path stroke-linejoin="round" stroke-linecap="round" stroke="rgb(0,0,255)" stroke-width="1.874998" fill="none" d="M 0.000000 750.000000 L 750.000000 729.166687 " />
<path stroke-linejoin="round" stroke-linecap="round" stroke="rgb(255,0,0)" stroke-width="3.749996" fill="none" d="M 186.758911 744.812256 L 187.500000 750.000000 " />
<path stroke-linejoin="round" stroke-linecap="round" stroke="rgb(0,0,255)" stroke-width="1.874998" fill="none" d="M 0.000000 750.000000 L 750.000000 707.142883 " />
<path stroke-linejoin="round" stroke-linecap="round" stroke="rgb(255,0,0)" stroke-width="3.749996" fill="none" d="M 181.571152 739.624512 L 186.758911 744.812256 " />
<path stroke-linejoin="round" stroke-linecap="round" stroke="rgb(0,0,255)" stroke-width="1.874998" fill="none" d="M 0.000000 750.000000 L 750.000000 683.823547 " />
<path stroke-linejoin="round" stroke-linecap="round" stroke="rgb(255,0,0)" stroke-width="3.749996" fill="none" d="M 176.383408 734.436768 L 181.571152 739.624512 " />
<path stroke-linejoin="round" stroke-linecap="round" stroke="rgb(0,0,255)" stroke-width="1.874998" fill="none" d="M 0.000000 750.000000 L 750.000000 664.285706 " />
<path stroke-linejoin="round" stroke-linecap="round" stroke="rgb(255,0,0)" stroke-width="3.749996" fill="none" d="M 172.259827 730.313171 L 176.383408 734.436768 " />
<path stroke-linejoin="round" stroke-linecap="round" stroke="rgb(0,0,255)" stroke-width="1.874998" fill="none" d="M 0.000000 750.000000 L 750.000000 639.705872 " />
<path stroke-linejoin="round" stroke-linecap="round" stroke="rgb(255,0,0)" stroke-width="3.749996" fill="none" d="M 167.338104 725.391418 L 172.259827 730.313171 " />
<path stroke-linejoin="round" stroke-linecap="round" stroke="rgb(0,0,255)" stroke-width="1.874998" fill="none" d="M 0.000000 750.000000 L 750.000000 613.636353 " />
<path stroke-linejoin="round" stroke-linecap="round" stroke="rgb(255,0,0)" stroke-width="3.749996" fill="none" d="M 162.416412 720.469788 L 167.338104 725.391418 " />
<path stroke-linejoin="round" stroke-linecap="round" stroke="rgb(0,0,255)" stroke-width="1.874998" fill="none" d="M 0.000000 750.000000 L 750.000000 595.588196 " />
<path stroke-linejoin="round" stroke-linecap="round" stroke="rgb(255,0,0)" stroke-width="3.749996" fill="none" d="M 159.175293 717.228577 L 162.416412 720.469788 " />
<path stroke-linejoin="round" stroke-linecap="round" stroke="rgb(0,0,255)" stroke-width="1.874998" fill="none" d="M 0.000000 750.000000 L 750.000000 568.181824 " />
<path stroke-linejoin="round" stroke-linecap="round" stroke="rgb(255,0,0)" stroke-width="3.749996" fill="none" d="M 154.493652 712.546997 L 159.175293 717.228577 " />
<path stroke-linejoin="round" stroke-linecap="round" stroke="rgb(0,0,255)" stroke-width="1.874998" fill="none" d="M 0.000000 750.000000 L 750.000000 539.062500 " />
<path stroke-linejoin="round" stroke-linecap="round" stroke="rgb(255,0,0)" stroke-width="3.749996" fill="none" d="M 149.812012 707.865356 L 154.493652 712.546997 " />
<path stroke-linejoin="round" stroke-linecap="round" stroke="rgb(0,0,255)" stroke-width="1.874998" fill="none" d="M 0.000000 750.000000 L 750.000000 508.064514 " />
<path stroke-linejoin="round" stroke-linecap="round" stroke="rgb(255,0,0)" stroke-width="3.749996" fill="none" d="M 145.130402 703.183716 L 149.812012 707.865356 " />
<path stroke-linejoin="round" stroke-linecap="round" stroke="rgb(0,0,255)" stroke-width="1.874998" fill="none" d="M 0.000000 750.000000 L 750.000000 492.187500 " />
<path stroke-linejoin="round" stroke-linecap="round" stroke="rgb(255,0,0)" stroke-width="3.749996" fill="none" d="M 142.844040 700.897339 L 145.130402 703.183716 " />
<path stroke-linejoin="round" stroke-linecap="round" stroke="rgb(0,0,255)" stroke-width="1.874998" fill="none" d="M 0.000000 750.000000 L 750.000000 475.000000 " />
<path stroke-linejoin="round" stroke-linecap="round" stroke="rgb(255,0,0)" stroke-width="3.749996" fill="none" d="M 140.448776 698.502136 L 142.844040 700.897339 " />
<path stroke-linejoin="round" stroke-linecap="round" stroke="rgb(0,0,255)" stroke-width="1.874998" fill="none" d="M 0.000000 750.000000 L 750.000000 459.677429 " />
<path stroke-linejoin="round" stroke-linecap="round" stroke="rgb(255,0,0)" stroke-width="3.749996" fill="none" d="M 138.380173 696.433533 L 140.448776 698.502136 " />
<path stroke-linejoin="round" stroke-linecap="round" stroke="rgb(0,0,255)" stroke-width="1.874998" fill="none" d="M 0.000000 750.000000 L 750.000000 439.655182 " />
<path stroke-linejoin="round" stroke-linecap="round" stroke="rgb(255,0,0)" stroke-width="3.749996" fill="none" d="M 135.767166 693.820496 L 138.380173 696.433533 " />
<path stroke-linejoin="round" stroke-linecap="round" stroke="rgb(0,0,255)" stroke-width="1.874998" fill="none" d="M 0.000000 750.000000 L 750.000000 401.785706 " />
<path stroke-linejoin="round" stroke-linecap="round" stroke="rgb(255,0,0)" stroke-width="3.749996" fill="none" d="M 131.085541 689.138855 L 135.767181 693.820435 " />
<path stroke-linejoin="round" stroke-linecap="round" stroke="rgb(0,0,255)" stroke-width="1.874998" fill="none" d="M 0.000000 750.000000 L 750.000000 387.931030 " />
<path stroke-linejoin="round" stroke-linecap="round" stroke="rgb(255,0,0)" stroke-width="3.749996" fill="none" d="M 129.452438 687.505737 L 131.085541 689.138855 " />
<path stroke-linejoin="round" stroke-linecap="round" stroke="rgb(0,0,255)" stroke-width="1.874998" fill="none" d="M 0.000000 750.000000 L 750.000000 348.214294 " />
<path stroke-linejoin="round" stroke-linecap="round" stroke="rgb(255,0,0)" stroke-width="3.749996" fill="none" d="M 124.988548 683.041870 L 129.452438 687.505737 " />
<path stroke-linejoin="round" stroke-linecap="round" stroke="rgb(0,0,255)" stroke-width="1.874998" fill="none" d="M 0.000000 750.000000 L 750.000000 336.206909 " />
<path stroke-linejoin="round" stroke-linecap="round" stroke="rgb(255,0,0)" stroke-width="3.749996" fill="none" d="M 123.698967 681.752258 L 124.988548 683.041870 " />
<path stroke-linejoin="round" stroke-linecap="round" stroke="rgb(0,0,255)" stroke-width="1.874998" fill="none" d="M 0.000000 750.000000 L 750.000000 305.555542 " />
<path stroke-linejoin="round" stroke-linecap="round" stroke="rgb(255,0,0)" stroke-width="3.749996" fill="none" d="M 120.524658 678.577942 L 123.698967 681.752258 " />
<path stroke-linejoin="round" stroke-linecap="round" stroke="rgb(0,0,255)" stroke-width="1.874998" fill="none" d="M 0.000000 750.000000 L 750.000000 294.642853 " />
<path stroke-linejoin="round" stroke-linecap="round" stroke="rgb(255,0,0)" stroke-width="3.749996" fill="none" d="M 119.433495 677.486816 L 120.524658 678.577942 " />
<path stroke-linejoin="round" stroke-linecap="round" stroke="rgb(0,0,255)" stroke-width="1.874998" fill="none" d="M 0.000000 750.000000 L 750.000000 259.615387 " />
<path stroke-linejoin="round" stroke-linecap="round" stroke="rgb(255,0,0)" stroke-width="3.749996" fill="none" d="M 116.060791 674.114075 L 119.433495 677.486816 " />
<path stroke-linejoin="round" stroke-linecap="round" stroke="rgb(0,0,255)" stroke-width="1.874998" fill="none" d="M 0.000000 750.000000 L 750.000000 249.999985 " />
<path stroke-linejoin="round" stroke-linecap="round" stroke="rgb(255,0,0)" stroke-width="3.749996" fill="none" d="M 115.168022 673.221313 L 116.060791 674.114075 " />
<path stroke-linejoin="round" stroke-linecap="round" stroke="rgb(0,0,255)" stroke-width="1.874998" fill="none" d="M 0.000000 750.000000 L 750.000000 209.999985 " />
<path stroke-linejoin="round" stroke-linecap="round" stroke="rgb(255,0,0)" stroke-width="3.749996" fill="none" d="M 111.596901 669.650208 L 115.168022 673.221313 " />
<path stroke-linejoin="round" stroke-linecap="round" stroke="rgb(0,0,255)" stroke-width="1.874998" fill="none" d="M 0.000000 750.000000 L 750.000000 201.923080 " />
<path stroke-linejoin="round" stroke-linecap="round" stroke="rgb(255,0,0)" stroke-width="3.749996" fill="none" d="M 110.902550 668.955872 L 111.596901 669.650208 " />
<path stroke-linejoin="round" stroke-linecap="round" stroke="rgb(0,0,255)" stroke-width="1.874998" fill="none" d="M 0.000000 750.000000 L 750.000000 156.249985 " />
<path stroke-linejoin="round" stroke-linecap="round" stroke="rgb(255,0,0)" stroke-width="3.749996" fill="none" d="M 107.133041 665.186340 L 110.902550 668.955811 " />
<path stroke-linejoin="round" stroke-linecap="round" stroke="rgb(0,0,255)" stroke-width="1.874998" fill="none" d="M 0.000000 750.000000 L 750.000000 149.999985 " />
<path stroke-linejoin="round" stroke-linecap="round" stroke="rgb(255,0,0)" stroke-width="3.749996" fill="none" d="M 106.637054 664.690369 L 107.133041 665.186340 " />
<path stroke-linejoin="round" stroke-linecap="round" stroke="rgb(0,0,255)" stroke-width="1.874998" fill="none" d="M 0.000000 750.000000 L 750.000000 97.826111 " />
<path stroke-linejoin="round" stroke-linecap="round" stroke="rgb(255,0,0)" stroke-width="3.749996" fill="none" d="M 102.669151 660.722473 L 106.637054 664.690369 " />
<path stroke-linejoin="round" stroke-linecap="round" stroke="rgb(0,0,255)" stroke-width="1.874998" fill="none" d="M 0.000000 750.000000 L 750.000000 34.090919 " />
<path stroke-linejoin="round" stroke-linecap="round" stroke="rgb(255,0,0)" stroke-width="3.749996" fill="none" d="M 98.205284 656.258606 L 102.669151 660.722473 " />
<path stroke-linejoin="round" stroke-linecap="round" stroke="rgb(0,0,255)" stroke-width="1.874998" fill="none" d="M 0.000000 750.000000 L 715.909058 0.000000 " />
<path stroke-linejoin="round" stroke-linecap="round" stroke="rgb(255,0,0)" stroke-width="3.749996" fill="none" d="M 93.741417 651.794739 L 98.205284 656.258606 " />
<path stroke-linejoin="round" stroke-linecap="round" stroke="rgb(0,0,255)" stroke-width="1.874998" fill="none" d="M 0.000000 750.000000 L 652.173950 0.000000 " />
<path stroke-linejoin="round" stroke-linecap="round" stroke="rgb(255,0,0)" stroke-width="3.749996" fill="none" d="M 92.024536 644.171814 L 93.741417 651.794739 " />
<path stroke-linejoin="round" stroke-linecap="round" stroke="rgb(0,0,255)" stroke-width="1.874998" fill="none" d="M 0.000000 750.000000 L 600.000000 0.000000 " />
<path stroke-linejoin="round" stroke-linecap="round" stroke="rgb(255,0,0)" stroke-width="3.749996" fill="none" d="M 90.909096 636.363647 L 92.024559 644.171753 " />
<path stroke-linejoin="round" stroke-linecap="round" stroke="rgb(0,0,255)" stroke-width="1.874998" fill="none" d="M 0.000000 750.000000 L 555.555542 0.000000 " />
<path stroke-linejoin="round" stroke-linecap="round" stroke="rgb(255,0,0)" stroke-width="3.749996" fill="none" d="M 89.820366 628.742493 L 90.909096 636.363586 " />
<path stroke-linejoin="round" stroke-linecap="round" stroke="rgb(0,0,255)" stroke-width="1.874998" fill="none" d="M 0.000000 750.000000 L 508.928589 0.000000 " />
<path stroke-linejoin="round" stroke-linecap="round" stroke="rgb(255,0,0)" stroke-width="3.749996" fill="none" d="M 88.509323 619.565247 L 89.820366 628.742493 " />
<path stroke-linejoin="round" stroke-linecap="round" stroke="rgb(0,0,255)" stroke-width="1.874998" fill="none" d="M 0.000000 750.000000 L 465.517212 0.000000 " />
<path stroke-linejoin="round" stroke-linecap="round" stroke="rgb(255,0,0)" stroke-width="3.749996" fill="none" d="M 87.096779 609.677429 L 88.509323 619.565247 " />
<path stroke-linejoin="round" stroke-linecap="round" stroke="rgb(0,0,255)" stroke-width="1.874998" fill="none" d="M 0.000000 750.000000 L 425.000000 0.000000 " />
<path stroke-linejoin="round" stroke-linecap="round" stroke="rgb(255,0,0)" stroke-width="3.749996" fill="none" d="M 85.570473 598.993286 L 87.096779 609.677429 " />
<path stroke-linejoin="round" stroke-linecap="round" stroke="rgb(0,0,255)" stroke-width="1.874998" fill="none" d="M 0.000000 750.000000 L 387.096771 0.000000 " />
<path stroke-linejoin="round" stroke-linecap="round" stroke="rgb(255,0,0)" stroke-width="3.749996" fill="none" d="M 83.916084 587.412598 L 85.570473 598.993286 " />
<path stroke-linejoin="round" stroke-linecap="round" stroke="rgb(0,0,255)" stroke-width="1.874998" fill="none" d="M 0.000000 750.000000 L 351.562469 0.000000 " />
<path stroke-linejoin="round" stroke-linecap="round" stroke="rgb(255,0,0)" stroke-width="3.749996" fill="none" d="M 82.116768 574.817505 L 83.916084 587.412598 " />
<path stroke-linejoin="round" stroke-linecap="round" stroke="rgb(0,0,255)" stroke-width="1.874998" fill="none" d="M 0.000000 750.000000 L 318.181793 0.000000 " />
<path stroke-linejoin="round" stroke-linecap="round" stroke="rgb(255,0,0)" stroke-width="3.749996" fill="none" d="M 80.152657 561.068726 L 82.116768 574.817505 " />
<path stroke-linejoin="round" stroke-linecap="round" stroke="rgb(0,0,255)" stroke-width="1.874998" fill="none" d="M 0.000000 750.000000 L 286.764709 0.000000 " />
<path stroke-linejoin="round" stroke-linecap="round" stroke="rgb(255,0,0)" stroke-width="3.749996" fill="none" d="M 77.999977 546.000061 L 80.152657 561.068787 " />
<path stroke-linejoin="round" stroke-linecap="round" stroke="rgb(0,0,255)" stroke-width="1.874998" fill="none" d="M 0.000000 750.000000 L 257.142853 0.000000 " />
<path stroke-linejoin="round" stroke-linecap="round" stroke="rgb(255,0,0)" stroke-width="3.749996" fill="none" d="M 75.630249 529.411804 L 77.999977 546.000061 " />
<path stroke-linejoin="round" stroke-linecap="round" stroke="rgb(0,0,255)" stroke-width="1.874998" fill="none" d="M 0.000000 750.000000 L 243.243256 0.000000 " />
<path stroke-linejoin="round" stroke-linecap="round" stroke="rgb(255,0,0)" stroke-width="3.749996" fill="none" d="M 74.380157 520.661194 L 75.630249 529.411804 " />
<path stroke-linejoin="round" stroke-linecap="round" stroke="rgb(0,0,255)" stroke-width="1.874998" fill="none" d="M 0.000000 750.000000 L 219.512192 0.000000 " />
<path stroke-linejoin="round" stroke-linecap="round" stroke="rgb(255,0,0)" stroke-width="3.749996" fill="none" d="M 71.999969 504.000031 L 74.380157 520.661194 " />
<path stroke-linejoin="round" stroke-linecap="round" stroke="rgb(0,0,255)" stroke-width="1.874998" fill="none" d="M 0.000000 750.000000 L 196.428589 0.000000 " />
<path stroke-linejoin="round" stroke-linecap="round" stroke="rgb(255,0,0)" stroke-width="3.749996" fill="none" d="M 69.327705 485.294220 L 71.999969 504.000092 " />
<path stroke-linejoin="round" stroke-linecap="round" stroke="rgb(0,0,255)" stroke-width="1.874998" fill="none" d="M 0.000000 750.000000 L 144.230789 0.000000 " />
<path stroke-linejoin="round" stroke-linecap="round" stroke="rgb(255,0,0)" stroke-width="3.749996" fill="none" d="M 61.475380 430.327972 L 69.327705 485.294220 " />
<path stroke-linejoin="round" stroke-linecap="round" stroke="rgb(0,0,255)" stroke-width="1.874998" fill="none" d="M 0.000000 750.000000 L 119.047615 0.000000 " />
<path stroke-linejoin="round" stroke-linecap="round" stroke="rgb(255,0,0)" stroke-width="3.749996" fill="none" d="M 56.390942 394.737030 L 61.475380 430.328033 " />
<path stroke-linejoin="round" stroke-linecap="round" stroke="rgb(0,0,255)" stroke-width="1.874998" fill="none" d="M 0.000000 750.000000 L 108.695648 0.000000 " />
<path stroke-linejoin="round" stroke-linecap="round" stroke="rgb(255,0,0)" stroke-width="3.749996" fill="none" d="M 53.956791 377.698029 L 56.390942 394.737030 " />
<path stroke-linejoin="round" stroke-linecap="round" stroke="rgb(0,0,255)" stroke-width="1.874998" fill="none" d="M 0.000000 750.000000 L 102.739738 0.000000 " />
<path stroke-linejoin="round" stroke-linecap="round" stroke="rgb(255,0,0)" stroke-width="3.749996" fill="none" d="M 52.447514 367.133118 L 53.956791 377.698029 " />
<path stroke-linejoin="round" stroke-linecap="round" stroke="rgb(0,0,255)" stroke-width="1.874998" fill="none" d="M 0.000000 750.000000 L 96.428589 0.000000 " />
<path stroke-linejoin="round" stroke-linecap="round" stroke="rgb(255,0,0)" stroke-width="3.749996" fill="none" d="M 50.751842 355.263458 L 52.447514 367.133118 " />
<path stroke-linejoin="round" stroke-linecap="round" stroke="rgb(0,0,255)" stroke-width="1.874998" fill="none" d="M 0.000000 750.000000 L 74.999992 0.000000 " />
<path stroke-linejoin="round" stroke-linecap="round" stroke="rgb(255,0,0)" stroke-width="3.749996" fill="none" d="M 44.117622 308.823822 L 50.751842 355.263458 " />
<path stroke-linejoin="round" stroke-linecap="round" stroke="rgb(0,0,255)" stroke-width="1.874998" fill="none" d="M 0.000000 750.000000 L 65.934059 0.000000 " />
<path stroke-linejoin="round" stroke-linecap="round" stroke="rgb(255,0,0)" stroke-width="3.749996" fill="none" d="M 40.816292 285.714630 L 44.117622 308.823822 " />
<path stroke-linejoin="round" stroke-linecap="round" stroke="rgb(0,0,255)" stroke-width="1.874998" fill="none" d="M 0.000000 750.000000 L 55.851059 0.000000 " />
<path stroke-linejoin="round" stroke-linecap="round" stroke="rgb(255,0,0)" stroke-width="3.749996" fill="none" d="M 36.713249 256.993408 L 40.816292 285.714630 " />
<path stroke-linejoin="round" stroke-linecap="round" stroke="rgb(0,0,255)" stroke-width="1.874998" fill="none" d="M 0.000000 750.000000 L 43.269218 0.000000 " />
<path stroke-linejoin="round" stroke-linecap="round" stroke="rgb(255,0,0)" stroke-width="3.749996" fill="none" d="M 30.821890 215.753891 L 36.713249 256.993408 " />
<path stroke-linejoin="round" stroke-linecap="round" stroke="rgb(0,0,255)" stroke-width="1.874998" fill="none" d="M 0.000000 750.000000 L 41.666664 0.000000 " />
<path stroke-linejoin="round" stroke-linecap="round" stroke="rgb(255,0,0)" stroke-width="3.749996" fill="none" d="M 29.999971 210.000519 L 30.821890 215.753937 " />
<path stroke-linejoin="round" stroke-linecap="round" stroke="rgb(0,0,255)" stroke-width="1.874998" fill="none" d="M 0.000000 750.000000 L 40.909096 0.000000 " />
<path stroke-linejoin="round" stroke-linecap="round" stroke="rgb(255,0,0)" stroke-width="3.749996" fill="none" d="M 29.605240 207.237350 L 29.999971 210.000519 " />
<path stroke-linejoin="round" stroke-linecap="round" stroke="rgb(0,0,255)" stroke-width="1.874998" fill="none" d="M 0.000000 750.000000 L 31.779661 0.000000 " />
<path stroke-linejoin="round" stroke-linecap="round" stroke="rgb(255,0,0)" stroke-width="3.749996" fill="none" d="M 24.509781 171.569199 L 29.605240 207.237350 " />
<path stroke-linejoin="round" stroke-linecap="round" stroke="rgb(0,0,255)" stroke-width="1.874998" fill="none" d="M 0.000000 750.000000 L 23.809523 0.000000 " />
<path stroke-linejoin="round" stroke-linecap="round" stroke="rgb(255,0,0)" stroke-width="3.749996" fill="none" d="M 19.480505 136.364273 L 24.509781 171.569199 " />
<path stroke-linejoin="round" stroke-linecap="round" stroke="rgb(0,0,255)" stroke-width="1.874998" fill="none" d="M 0.000000 750.000000 L 23.437500 0.000000 " />
<path stroke-linejoin="round" stroke-linecap="round" stroke="rgb(255,0,0)" stroke-width="3.749996" fill="none" d="M 19.230745 134.616043 L 19.480505 136.364304 " />
<path stroke-linejoin="round" stroke-linecap="round" stroke="rgb(0,0,255)" stroke-width="1.874998" fill="none" d="M 0.000000 750.000000 L 23.076921 0.000000 " />
<path stroke-linejoin="round" stroke-linecap="round" stroke="rgb(255,0,0)" stroke-width="3.749996" fill="none" d="M 18.987312 132.912033 L 19.230745 134.616043 " />
<path stroke-linejoin="round" stroke-linecap="round" stroke="rgb(0,0,255)" stroke-width="1.874998" fill="none" d="M 0.000000 750.000000 L 22.727274 0.000000 " />
<path stroke-linejoin="round" stroke-linecap="round" stroke="rgb(255,0,0)" stroke-width="3.749996" fill="none" d="M 18.749983 131.250641 L 18.987312 132.912033 " />
<path stroke-linejoin="round" stroke-linecap="round" stroke="rgb(0,0,255)" stroke-width="1.874998" fill="none" d="M 0.000000 750.000000 L 22.388063 0.000000 " />
<path stroke-linejoin="round" stroke-linecap="round" stroke="rgb(255,0,0)" stroke-width="3.749996" fill="none" d="M 18.518507 129.630264 L 18.749983 131.250641 " />
<path stroke-linejoin="round" stroke-linecap="round" stroke="rgb(0,0,255)" stroke-width="1.874998" fill="none" d="M 0.000000 750.000000 L 22.222214 0.000000 " />
<path stroke-linejoin="round" stroke-linecap="round" stroke="rgb(255,0,0)" stroke-width="3.749996" fill="none" d="M 18.404894 128.834991 L 18.518507 129.630264 " />
<path stroke-linejoin="round" stroke-linecap="round" stroke="rgb(0,0,255)" stroke-width="1.874998" fill="none" d="M 0.000000 750.000000 L 15.845060 0.000000 " />
<path stroke-linejoin="round" stroke-linecap="round" stroke="rgb(255,0,0)" stroke-width="3.749996" fill="none" d="M 13.803676 96.626442 L 18.404894 128.834991 " />
<path stroke-linejoin="round" stroke-linecap="round" stroke="rgb(0,0,255)" stroke-width="1.874998" fill="none" d="M 0.000000 750.000000 L 15.625008 0.000000 " />
<path stroke-linejoin="round" stroke-linecap="round" stroke="rgb(255,0,0)" stroke-width="3.749996" fill="none" d="M 13.636351 95.455261 L 13.803676 96.626442 " />
<path stroke-linejoin="round" stroke-linecap="round" stroke="rgb(0,0,255)" stroke-width="1.874998" fill="none" d="M 0.000000 750.000000 L 9.868428 0.000000 " />
<path stroke-linejoin="round" stroke-linecap="round" stroke="rgb(255,0,0)" stroke-width="3.749996" fill="none" d="M 9.036139 63.253777 L 13.636351 95.455261 " />
<path stroke-linejoin="round" stroke-linecap="round" stroke="rgb(0,0,255)" stroke-width="1.874998" fill="none" d="M 0.000000 750.000000 L 4.629627 0.000000 " />
<path stroke-linejoin="round" stroke-linecap="round" stroke="rgb(255,0,0)" stroke-width="3.749996" fill="none" d="M 4.437871 31.065926 L 9.036139 63.253819 " />
<path stroke-linejoin="round" stroke-linecap="round" stroke="rgb(0,0,255)" stroke-width="1.874998" fill="none" d="M 0.000000 750.000000 L 0.000000 0.000000 " />
<path stroke-linejoin="round" stroke-linecap="round" stroke="rgb(255,0,0)" stroke-width="3.749996" fill="none" d="M 0.000000 0.000000 L 4.437871 31.065926 " />
<circle cx="186.758906" cy="744.812250" r="3.749996" style="fill:rgb(0,127,0);stroke-width:1" /><circle cx="181.571156" cy="739.624500" r="3.749996" style="fill:rgb(0,127,0);stroke-width:1" /><circle cx="176.383406" cy="734.436750" r="3.749996" style="fill:rgb(0,127,0);stroke-width:1" /><circle cx="172.259822" cy="730.313167" r="3.749996" style="fill:rgb(0,127,0);stroke-width:1" /><circle cx="167.338103" cy="725.391448" r="3.749996" style="fill:rgb(0,127,0);stroke-width:1" /><circle cx="162.416406" cy="720.469750" r="3.749996" style="fill:rgb(0,127,0);stroke-width:1" /><circle cx="159.175292" cy="717.228614" r="3.749996" style="fill:rgb(0,127,0);stroke-width:1" /><circle cx="154.493652" cy="712.546997" r="3.749996" style="fill:rgb(0,127,0);stroke-width:1" /><circle cx="149.812013" cy="707.865357" r="3.749996" style="fill:rgb(0,127,0);stroke-width:1" /><circle cx="145.130396" cy="703.183740" r="3.749996" style="fill:rgb(0,127,0);stroke-width:1" /><circle cx="142.844036" cy="700.897358" r="3.749996" style="fill:rgb(0,127,0);stroke-width:1" /><circle cx="140.448779" cy="698.502123" r="3.749996" style="fill:rgb(0,127,0);stroke-width:1" /><circle cx="138.380170" cy="696.433492" r="3.749996" style="fill:rgb(0,127,0);stroke-width:1" /><circle cx="135.767162" cy="693.820484" r="3.749996" style="fill:rgb(0,127,0);stroke-width:1" /><circle cx="131.085545" cy="689.138845" r="3.749996" style="fill:rgb(0,127,0);stroke-width:1" /><circle cx="129.452437" cy="687.505737" r="3.749996" style="fill:rgb(0,127,0);stroke-width:1" /><circle cx="124.988548" cy="683.041848" r="3.749996" style="fill:rgb(0,127,0);stroke-width:1" /><circle cx="123.698965" cy="681.752287" r="3.749996" style="fill:rgb(0,127,0);stroke-width:1" /><circle cx="120.524660" cy="678.577960" r="3.749996" style="fill:rgb(0,127,0);stroke-width:1" /><circle cx="119.433492" cy="677.486815" r="3.749996" style="fill:rgb(0,127,0);stroke-width:1" /><circle cx="116.060793" cy="674.114093" r="3.749996" style="fill:rgb(0,127,0);stroke-width:1" /><circle cx="115.168020" cy="673.221320" r="3.749996" style="fill:rgb(0,127,0);stroke-width:1" /><circle cx="111.596905" cy="669.650227" r="3.749996" style="fill:rgb(0,127,0);stroke-width:1" /><circle cx="110.902548" cy="668.955848" r="3.749996" style="fill:rgb(0,127,0);stroke-width:1" /><circle cx="107.133038" cy="665.186338" r="3.749996" style="fill:rgb(0,127,0);stroke-width:1" /><circle cx="106.637053" cy="664.690353" r="3.749996" style="fill:rgb(0,127,0);stroke-width:1" /><circle cx="102.669150" cy="660.722472" r="3.749996" style="fill:rgb(0,127,0);stroke-width:1" /><circle cx="98.205283" cy="656.258583" r="3.749996" style="fill:rgb(0,127,0);stroke-width:1" /><circle cx="93.741417" cy="651.794717" r="3.749996" style="fill:rgb(0,127,0);stroke-width:1" /><circle cx="92.024535" cy="644.171789" r="3.749996" style="fill:rgb(0,127,0);stroke-width:1" /><circle cx="90.909094" cy="636.363633" r="3.749996" style="fill:rgb(0,127,0);stroke-width:1" /><circle cx="89.820363" cy="628.742516" r="3.749996" style="fill:rgb(0,127,0);stroke-width:1" /><circle cx="88.509321" cy="619.565226" r="3.749996" style="fill:rgb(0,127,0);stroke-width:1" /><circle cx="87.096781" cy="609.677419" r="3.749996" style="fill:rgb(0,127,0);stroke-width:1" /><circle cx="85.570469" cy="598.993286" r="3.749996" style="fill:rgb(0,127,0);stroke-width:1" /><circle cx="83.916083" cy="587.412603" r="3.749996" style="fill:rgb(0,127,0);stroke-width:1" /><circle cx="82.116768" cy="574.817531" r="3.749996" style="fill:rgb(0,127,0);stroke-width:1" /><circle cx="80.152653" cy="561.068729" r="3.749996" style="fill:rgb(0,127,0);stroke-width:1" /><circle cx="77.999979" cy="546.000056" r="3.749996" style="fill:rgb(0,127,0);stroke-width:1" /><circle cx="75.630248" cy="529.411800" r="3.749996" style="fill:rgb(0,127,0);stroke-width:1" /><circle cx="74.380159" cy="520.661205" r="3.749996" style="fill:rgb(0,127,0);stroke-width:1" /><circle cx="71.999967" cy="504.000060" r="3.749996" style="fill:rgb(0,127,0);stroke-width:1" /><circle cx="69.327705" cy="485.294223" r="3.749996" style="fill:rgb(0,127,0);stroke-width:1" /><circle cx="61.475381" cy="430.328004" r="3.749996" style="fill:rgb(0,127,0);stroke-width:1" /><circle cx="56.390941" cy="394.737035" r="3.749996" style="fill:rgb(0,127,0);stroke-width:1" /><circle cx="53.956792" cy="377.698056" r="3.749996" style="fill:rgb(0,127,0);stroke-width:1" /><circle cx="52.447513" cy="367.133126" r="3.749996" style="fill:rgb(0,127,0);stroke-width:1" /><circle cx="50.751843" cy="355.263457" r="3.749996" style="fill:rgb(0,127,0);stroke-width:1" /><circle cx="44.117622" cy="308.823824" r="3.749996" style="fill:rgb(0,127,0);stroke-width:1" /><circle cx="40.816292" cy="285.714626" r="3.749996" style="fill:rgb(0,127,0);stroke-width:1" /><circle cx="36.713250" cy="256.993398" r="3.749996" style="fill:rgb(0,127,0);stroke-width:1" /><circle cx="30.821890" cy="215.753898" r="3.749996" style="fill:rgb(0,127,0);stroke-width:1" /><circle cx="29.999971" cy="210.000515" r="3.749996" style="fill:rgb(0,127,0);stroke-width:1" /><circle cx="29.605240" cy="207.237348" r="3.749996" style="fill:rgb(0,127,0);stroke-width:1" /><circle cx="24.509780" cy="171.569198" r="3.749996" style="fill:rgb(0,127,0);stroke-width:1" /><circle cx="19.480504" cy="136.364266" r="3.749996" style="fill:rgb(0,127,0);stroke-width:1" /><circle cx="19.230746" cy="134.616047" r="3.749996" style="fill:rgb(0,127,0);stroke-width:1" /><circle cx="18.987313" cy="132.912040" r="3.749996" style="fill:rgb(0,127,0);stroke-width:1" /><circle cx="18.749982" cy="131.250635" r="3.749996" style="fill:rgb(0,127,0);stroke-width:1" /><circle cx="18.518507" cy="129.630268" r="3.749996" style="fill:rgb(0,127,0);stroke-width:1" /><circle cx="18.404894" cy="128.834993" r="3.749996" style="fill:rgb(0,127,0);stroke-width:1" /><circle cx="13.803676" cy="96.626446" r="3.749996" style="fill:rgb(0,127,0);stroke-width:1" /><circle cx="13.636351" cy="95.455259" r="3.749996" style="fill:rgb(0,127,0);stroke-width:1" /><circle cx="9.036139" cy="63.253775" r="3.749996" style="fill:rgb(0,127,0);stroke-width:1" /><circle cx="4.437871" cy="31.065926" r="3.749996" style="fill:rgb(0,127,0);stroke-width:1" /><circle cx="750.000000" cy="750.000000" r="3.749996" style="fill:rgb(0,127,0);stroke-width:1" /><path stroke-linejoin="round" stroke-linecap="round" stroke="rgb(255,255,255)" stroke-width="3.749996" fill="none" d="M 0.000000 750.000000 L 750.000000 750.000000 M 0.000000 750.000000 L 0.000000 0.000000 " />

</svg>