<svg xmlns="http://www.w3.org/2000/svg" version="1.1" width = "750" height = "750" viewBox = "0 0 750 750"  shape-rendering="crispEdges">
<path stroke-linejoin="round" stroke-linecap="round" stroke="rgb(255,255,0)" stroke-width="3.749996" fill="none" d="M 187.500000 750.000000 L 0.000000 0.000000 " />
<path stroke-linejoin="round" stroke-linecap="round" stroke="rgb(63,63,63)" stroke-width="3.749996" fill="none" d="M 0.000000 0.000000 L 750.000000 750.000000 M 187.500000 750.000000 L 80.357147 0.000000 " />
<path stroke-linejoin="round" stroke-linecap="round" stroke="rgb(191,191,191)" stroke-width="3.749996" fill="none" d="M 0.000000 562.500000 L 187.500000 750.000000 M 0.000000 0.000000 L 107.142853 750.000000 " />
<path stroke-linejoin="round" stroke-linecap="round" stroke="rgb(0,0,255)" stroke-width="1.874998" fill="none" d="M 0.000000 750.000000 L 750.000000 541.666687 " />
<path stroke-linejoin="round" stroke-linecap="round" stroke="rgb(255,0,0)" stroke-width="3.749996" fill="none" d="M 180.343506 699.904541 L 187.500000 750.000000 " />
<path stroke-linejoin="round" stroke-linecap="round" stroke="rgb(0,0,255)" stroke-width="1.874998" fill="none" d="M 0.000000 750.000000 L 750.000000 321.428558 " />
<path stroke-linejoin="round" stroke-linecap="round" stroke="rgb(255,0,0)" stroke-width="3.749996" fill="none" d="M 171.620987 651.930847 L 180.343506 699.904541 " />
<path stroke-linejoin="round" stroke-linecap="round" stroke="rgb(0,0,255)" stroke-width="1.874998" fill="none" d="M 0.000000 750.000000 L 750.000000 125.000015 " />
<path stroke-linejoin="round" stroke-linecap="round" stroke="rgb(255,0,0)" stroke-width="3.749996" fill="none" d="M 164.523880 612.896790 L 171.620987 651.930847 " />
<path stroke-linejoin="round" stroke-linecap="round" stroke="rgb(0,0,255)" stroke-width="1.874998" fill="none" d="M 0.000000 750.000000 L 656.249939 0.000000 " />
<path stroke-linejoin="round" stroke-linecap="round" stroke="rgb(255,0,0)" stroke-width="3.749996" fill="none" d="M 156.857910 570.733826 L 164.523880 612.896790 " />
<path stroke-linejoin="round" stroke-linecap="round" stroke="rgb(0,0,255)" stroke-width="1.874998" fill="none" d="M 0.000000 750.000000 L 540.000000 0.000000 " />
<path stroke-linejoin="round" stroke-linecap="round" stroke="rgb(255,0,0)" stroke-width="3.749996" fill="none" d="M 151.255844 539.922424 L 156.857910 570.733826 " />
<path stroke-linejoin="round" stroke-linecap="round" stroke="rgb(0,0,255)" stroke-width="1.874998" fill="none" d="M 0.000000 750.000000 L 510.000000 0.000000 " />
<path stroke-linejoin="round" stroke-linecap="round" stroke="rgb(255,0,0)" stroke-width="3.749996" fill="none" d="M 149.483047 530.171997 L 151.255844 539.922424 " />
<path stroke-linejoin="round" stroke-linecap="round" stroke="rgb(0,0,255)" stroke-width="1.874998" fill="none" d="M 0.000000 750.000000 L 412.500000 0.000000 " />
<path stroke-linejoin="round" stroke-linecap="round" stroke="rgb(255,0,0)" stroke-width="3.749996" fill="none" d="M 142.383011 491.121826 L 149.483047 530.171997 " />
<path stroke-linejoin="round" stroke-linecap="round" stroke="rgb(0,0,255)" stroke-width="1.874998" fill="none" d="M 0.000000 750.000000 L 342.857147 0.000000 " />
<path stroke-linejoin="round" stroke-linecap="round" stroke="rgb(255,0,0)" stroke-width="3.749996" fill="none" d="M 135.542709 453.500305 L 142.383011 491.121826 " />
<path stroke-linejoin="round" stroke-linecap="round" stroke="rgb(0,0,255)" stroke-width="1.874998" fill="none" d="M 0.000000 750.000000 L 309.375000 0.000000 " />
<path stroke-linejoin="round" stroke-linecap="round" stroke="rgb(255,0,0)" stroke-width="3.749996" fill="none" d="M 131.493286 431.228394 L 135.542709 453.500305 " />
<path stroke-linejoin="round" stroke-linecap="round" stroke="rgb(0,0,255)" stroke-width="1.874998" fill="none" d="M 0.000000 750.000000 L 290.625000 0.000000 " />
<path stroke-linejoin="round" stroke-linecap="round" stroke="rgb(255,0,0)" stroke-width="3.749996" fill="none" d="M 128.948227 417.230408 L 131.493286 431.228394 " />
<path stroke-linejoin="round" stroke-linecap="round" stroke="rgb(0,0,255)" stroke-width="1.874998" fill="none" d="M 0.000000 750.000000 L 250.000000 0.000000 " />
<path stroke-linejoin="round" stroke-linecap="round" stroke="rgb(255,0,0)" stroke-width="3.749996" fill="none" d="M 122.586426 382.240662 L 128.948227 417.230408 " />
<path stroke-linejoin="round" stroke-linecap="round" stroke="rgb(0,0,255)" stroke-width="1.874998" fill="none" d="M 0.000000 750.000000 L 232.500000 0.000000 " />
<path stroke-linejoin="round" stroke-linecap="round" stroke="rgb(255,0,0)" stroke-width="3.749996" fill="none" d="M 119.414162 364.793030 L 122.586426 382.240662 " />
<path stroke-linejoin="round" stroke-linecap="round" stroke="rgb(0,0,255)" stroke-width="1.874998" fill="none" d="M 0.000000 750.000000 L 217.500000 0.000000 " />
<path stroke-linejoin="round" stroke-linecap="round" stroke="rgb(255,0,0)" stroke-width="3.749996" fill="none" d="M 116.445335 348.464417 L 119.414162 364.793030 " />
<path stroke-linejoin="round" stroke-linecap="round" stroke="rgb(0,0,255)" stroke-width="1.874998" fill="none" d="M 0.000000 750.000000 L 190.909088 0.000000 " />
<path stroke-linejoin="round" stroke-linecap="round" stroke="rgb(255,0,0)" stroke-width="3.749996" fill="none" d="M 110.513535 315.839691 L 116.445335 348.464417 " />
<path stroke-linejoin="round" stroke-linecap="round" stroke="rgb(0,0,255)" stroke-width="1.874998" fill="none" d="M 0.000000 750.000000 L 168.750000 0.000000 " />
<path stroke-linejoin="round" stroke-linecap="round" stroke="rgb(255,0,0)" stroke-width="3.749996" fill="none" d="M 104.780586 284.308472 L 110.513535 315.839722 " />
<path stroke-linejoin="round" stroke-linecap="round" stroke="rgb(0,0,255)" stroke-width="1.874998" fill="none" d="M 0.000000 750.000000 L 149.999985 0.000000 " />
<path stroke-linejoin="round" stroke-linecap="round" stroke="rgb(255,0,0)" stroke-width="3.749996" fill="none" d="M 99.236641 253.816772 L 104.780586 284.308472 " />
<path stroke-linejoin="round" stroke-linecap="round" stroke="rgb(0,0,255)" stroke-width="1.874998" fill="none" d="M 0.000000 750.000000 L 144.642853 0.000000 " />
<path stroke-linejoin="round" stroke-linecap="round" stroke="rgb(255,0,0)" stroke-width="3.749996" fill="none" d="M 97.516785 244.357468 L 99.236641 253.816772 " />
<path stroke-linejoin="round" stroke-linecap="round" stroke="rgb(0,0,255)" stroke-width="1.874998" fill="none" d="M 0.000000 750.000000 L 133.928574 0.000000 " />
<path stroke-linejoin="round" stroke-linecap="round" stroke="rgb(255,0,0)" stroke-width="3.749996" fill="none" d="M 93.872490 224.314041 L 97.516785 244.357468 " />
<path stroke-linejoin="round" stroke-linecap="round" stroke="rgb(0,0,255)" stroke-width="1.874998" fill="none" d="M 0.000000 750.000000 L 120.000000 0.000000 " />
<path stroke-linejoin="round" stroke-linecap="round" stroke="rgb(255,0,0)" stroke-width="3.749996" fill="none" d="M 88.679550 195.752792 L 93.872490 224.314041 " />
<path stroke-linejoin="round" stroke-linecap="round" stroke="rgb(0,0,255)" stroke-width="1.874998" fill="none" d="M 0.000000 750.000000 L 117.187500 0.000000 " />
<path stroke-linejoin="round" stroke-linecap="round" stroke="rgb(255,0,0)" stroke-width="3.749996" fill="none" d="M 87.561745 189.604813 L 88.679550 195.752792 " />
<path stroke-linejoin="round" stroke-linecap="round" stroke="rgb(0,0,255)" stroke-width="1.874998" fill="none" d="M 0.000000 750.000000 L 105.882347 0.000000 " />
<path stroke-linejoin="round" stroke-linecap="round" stroke="rgb(255,0,0)" stroke-width="3.749996" fill="none" d="M 82.806747 163.452255 L 87.561745 189.604813 " />
<path stroke-linejoin="round" stroke-linecap="round" stroke="rgb(0,0,255)" stroke-width="1.874998" fill="none" d="M 0.000000 750.000000 L 95.833313 0.000000 " />
<path stroke-linejoin="round" stroke-linecap="round" stroke="rgb(255,0,0)" stroke-width="3.749996" fill="none" d="M 78.191353 138.067642 L 82.806747 163.452255 " />
<path stroke-linejoin="round" stroke-linecap="round" stroke="rgb(0,0,255)" stroke-width="1.874998" fill="none" d="M 0.000000 750.000000 L 86.842102 0.000000 " />
<path stroke-linejoin="round" stroke-linecap="round" stroke="rgb(255,0,0)" stroke-width="3.749996" fill="none" d="M 73.709541 113.417610 L 78.191353 138.067642 " />
<path stroke-linejoin="round" stroke-linecap="round" stroke="rgb(0,0,255)" stroke-width="1.874998" fill="none" d="M 0.000000 750.000000 L 86.250008 0.000000 " />
<path stroke-linejoin="round" stroke-linecap="round" stroke="rgb(255,0,0)" stroke-width="3.749996" fill="none" d="M 73.401688 111.724464 L 73.709541 113.417610 " />
<path stroke-linejoin="round" stroke-linecap="round" stroke="rgb(0,0,255)" stroke-width="1.874998" fill="none" d="M 0.000000 750.000000 L 78.750015 0.000000 " />
<path stroke-linejoin="round" stroke-linecap="round" stroke="rgb(255,0,0)" stroke-width="3.749996" fill="none" d="M 69.355576 89.470802 L 73.401688 111.724464 " />
<path stroke-linejoin="round" stroke-linecap="round" stroke="rgb(0,0,255)" stroke-width="1.874998" fill="none" d="M 0.000000 750.000000 L 78.571426 0.000000 " />
<path stroke-linejoin="round" stroke-linecap="round" stroke="rgb(255,0,0)" stroke-width="3.749996" fill="none" d="M 69.255798 88.921982 L 69.355576 89.470802 " />
<path stroke-linejoin="round" stroke-linecap="round" stroke="rgb(0,0,255)" stroke-width="1.874998" fill="none" d="M 0.000000 750.000000 L 77.970299 0.000000 " />
<path stroke-linejoin="round" stroke-linecap="round" stroke="rgb(255,0,0)" stroke-width="3.749996" fill="none" d="M 68.835251 87.870506 L 69.255798 88.921936 " />
<path stroke-linejoin="round" stroke-linecap="round" stroke="rgb(0,0,255)" stroke-width="1.874998" fill="none" d="M 0.000000 750.000000 L 77.205887 0.000000 " />
<path stroke-linejoin="round" stroke-linecap="round" stroke="rgb(255,0,0)" stroke-width="3.749996" fill="none" d="M 68.298515 86.528732 L 68.835251 87.870506 " />
<path stroke-linejoin="round" stroke-linecap="round" stroke="rgb(0,0,255)" stroke-width="1.874998" fill="none" d="M 0.000000 750.000000 L 73.170731 0.000000 " />
<path stroke-linejoin="round" stroke-linecap="round" stroke="rgb(255,0,0)" stroke-width="3.749996" fill="none" d="M 65.428825 79.354492 L 68.298515 86.528778 " />
<path stroke-linejoin="round" stroke-linecap="round" stroke="rgb(0,0,255)" stroke-width="1.874998" fill="none" d="M 0.000000 750.000000 L 69.174751 0.000000 " />
<path stroke-linejoin="round" stroke-linecap="round" stroke="rgb(255,0,0)" stroke-width="3.749996" fill="none" d="M 62.525196 72.095367 L 65.428825 79.354446 " />
<path stroke-linejoin="round" stroke-linecap="round" stroke="rgb(0,0,255)" stroke-width="1.874998" fill="none" d="M 0.000000 750.000000 L 68.509605 0.000000 " />
<path stroke-linejoin="round" stroke-linecap="round" stroke="rgb(255,0,0)" stroke-width="3.749996" fill="none" d="M 62.035740 70.871788 L 62.525196 72.095367 " />
<path stroke-linejoin="round" stroke-linecap="round" stroke="rgb(0,0,255)" stroke-width="1.874998" fill="none" d="M 0.000000 750.000000 L 64.593315 0.000000 " />
<path stroke-linejoin="round" stroke-linecap="round" stroke="rgb(255,0,0)" stroke-width="3.749996" fill="none" d="M 58.979473 65.182732 L 62.035740 70.871788 " />
<path stroke-linejoin="round" stroke-linecap="round" stroke="rgb(0,0,255)" stroke-width="1.874998" fill="none" d="M 0.000000 750.000000 L 63.981033 0.000000 " />
<path stroke-linejoin="round" stroke-linecap="round" stroke="rgb(255,0,0)" stroke-width="3.749996" fill="none" d="M 58.518692 64.030807 L 58.979473 65.182732 " />
<path stroke-linejoin="round" stroke-linecap="round" stroke="rgb(0,0,255)" stroke-width="1.874998" fill="none" d="M 0.000000 750.000000 L 60.141518 0.000000 " />
<path stroke-linejoin="round" stroke-linecap="round" stroke="rgb(255,0,0)" stroke-width="3.749996" fill="none" d="M 55.380619 59.371143 L 58.518692 64.030807 " />
<path stroke-linejoin="round" stroke-linecap="round" stroke="rgb(0,0,255)" stroke-width="1.874998" fill="none" d="M 0.000000 750.000000 L 56.338036 0.000000 " />
<path stroke-linejoin="round" stroke-linecap="round" stroke="rgb(255,0,0)" stroke-width="3.749996" fill="none" d="M 52.197418 55.121853 L 55.380619 59.371143 " />
<path stroke-linejoin="round" stroke-linecap="round" stroke="rgb(0,0,255)" stroke-width="1.874998" fill="none" d="M 0.000000 750.000000 L 52.570091 0.000000 " />
<path stroke-linejoin="round" stroke-linecap="round" stroke="rgb(255,0,0)" stroke-width="3.749996" fill="none" d="M 48.985184 51.144810 L 52.197418 55.121853 " />
<path stroke-linejoin="round" stroke-linecap="round" stroke="rgb(0,0,255)" stroke-width="1.874998" fill="none" d="M 0.000000 750.000000 L 48.837215 0.000000 " />
<path stroke-linejoin="round" stroke-linecap="round" stroke="rgb(255,0,0)" stroke-width="3.749996" fill="none" d="M 45.753525 47.356544 L 48.985184 51.144810 " />
<path stroke-linejoin="round" stroke-linecap="round" stroke="rgb(0,0,255)" stroke-width="1.874998" fill="none" d="M 0.000000 750.000000 L 48.387096 0.000000 " />
<path stroke-linejoin="round" stroke-linecap="round" stroke="rgb(255,0,0)" stroke-width="3.749996" fill="none" d="M 45.387157 46.499043 L 45.753525 47.356544 " />
<path stroke-linejoin="round" stroke-linecap="round" stroke="rgb(0,0,255)" stroke-width="1.874998" fill="none" d="M 0.000000 750.000000 L 47.945202 0.000000 " />
<path stroke-linejoin="round" stroke-linecap="round" stroke="rgb(255,0,0)" stroke-width="3.749996" fill="none" d="M 45.016743 45.809536 L 45.387157 46.499043 " />
<path stroke-linejoin="round" stroke-linecap="round" stroke="rgb(0,0,255)" stroke-width="1.874998" fill="none" d="M 0.000000 750.000000 L 44.724762 0.000000 " />
<path stroke-linejoin="round" stroke-linecap="round" stroke="rgb(255,0,0)" stroke-width="3.749996" fill="none" d="M 42.174473 42.766659 L 45.016743 45.809448 " />
<path stroke-linejoin="round" stroke-linecap="round" stroke="rgb(0,0,255)" stroke-width="1.874998" fill="none" d="M 0.000000 750.000000 L 44.318184 0.000000 " />
<path stroke-linejoin="round" stroke-linecap="round" stroke="rgb(255,0,0)" stroke-width="3.749996" fill="none" d="M 41.821316 42.254627 L 42.174473 42.766659 " />
<path stroke-linejoin="round" stroke-linecap="round" stroke="rgb(0,0,255)" stroke-width="1.874998" fill="none" d="M 0.000000 750.000000 L 40.723980 0.000000 " />
<path stroke-linejoin="round" stroke-linecap="round" stroke="rgb(255,0,0)" stroke-width="3.749996" fill="none" d="M 38.609905 38.934277 L 41.821316 42.254627 " />
<path stroke-linejoin="round" stroke-linecap="round" stroke="rgb(0,0,255)" stroke-width="1.874998" fill="none" d="M 0.000000 750.000000 L 37.500008 0.000000 " />
<path stroke-linejoin="round" stroke-linecap="round" stroke="rgb(255,0,0)" stroke-width="3.749996" fill="none" d="M 35.702705 35.945667 L 38.609905 38.934277 " />
<path stroke-linejoin="round" stroke-linecap="round" stroke="rgb(0,0,255)" stroke-width="1.874998" fill="none" d="M 0.000000 750.000000 L 37.162163 0.000000 " />
<path stroke-linejoin="round" stroke-linecap="round" stroke="rgb(255,0,0)" stroke-width="3.749996" fill="none" d="M 35.399212 35.579681 L 35.702705 35.945667 " />
<path stroke-linejoin="round" stroke-linecap="round" stroke="rgb(0,0,255)" stroke-width="1.874998" fill="none" d="M 0.000000 750.000000 L 33.632286 0.000000 " />
<path stroke-linejoin="round" stroke-linecap="round" stroke="rgb(255,0,0)" stroke-width="3.749996" fill="none" d="M 32.183044 32.318340 L 35.399212 35.579681 " />
<path stroke-linejoin="round" stroke-linecap="round" stroke="rgb(0,0,255)" stroke-width="1.874998" fill="none" d="M 0.000000 750.000000 L 30.133924 0.000000 " />
<path stroke-linejoin="round" stroke-linecap="round" stroke="rgb(255,0,0)" stroke-width="3.749996" fill="none" d="M 28.966047 29.067457 L 32.183044 32.318340 " />
<path stroke-linejoin="round" stroke-linecap="round" stroke="rgb(0,0,255)" stroke-width="1.874998" fill="none" d="M 0.000000 750.000000 L 26.666656 0.000000 " />
<path stroke-linejoin="round" stroke-linecap="round" stroke="rgb(255,0,0)" stroke-width="3.749996" fill="none" d="M 25.748468 25.824488 L 28.966047 29.067457 " />
<path stroke-linejoin="round" stroke-linecap="round" stroke="rgb(0,0,255)" stroke-width="1.874998" fill="none" d="M 0.000000 750.000000 L 23.230099 0.000000 " />
<path stroke-linejoin="round" stroke-linecap="round" stroke="rgb(255,0,0)" stroke-width="3.749996" fill="none" d="M 22.530466 22.587553 L 25.748468 25.824488 " />
<path stroke-linejoin="round" stroke-linecap="round" stroke="rgb(0,0,255)" stroke-width="1.874998" fill="none" d="M 0.000000 750.000000 L 23.026318 0.000000 " />
<path stroke-linejoin="round" stroke-linecap="round" stroke="rgb(255,0,0)" stroke-width="3.749996" fill="none" d="M 22.339157 22.381872 L 22.530466 22.587553 " />
<path stroke-linejoin="round" stroke-linecap="round" stroke="rgb(0,0,255)" stroke-width="1.874998" fill="none" d="M 0.000000 750.000000 L 19.650646 0.000000 " />
<path stroke-linejoin="round" stroke-linecap="round" stroke="rgb(255,0,0)" stroke-width="3.749996" fill="none" d="M 19.148111 19.180164 L 22.339157 22.381872 " />
<path stroke-linejoin="round" stroke-linecap="round" stroke="rgb(0,0,255)" stroke-width="1.874998" fill="none" d="M 0.000000 750.000000 L 16.304344 0.000000 " />
<path stroke-linejoin="round" stroke-linecap="round" stroke="rgb(255,0,0)" stroke-width="3.749996" fill="none" d="M 15.956931 15.981004 L 19.148111 19.180164 " />
<path stroke-linejoin="round" stroke-linecap="round" stroke="rgb(0,0,255)" stroke-width="1.874998" fill="none" d="M 0.000000 750.000000 L 12.987010 0.000000 " />
<path stroke-linejoin="round" stroke-linecap="round" stroke="rgb(255,0,0)" stroke-width="3.749996" fill="none" d="M 12.765661 12.783721 L 15.956931 15.981049 " />
<path stroke-linejoin="round" stroke-linecap="round" stroke="rgb(0,0,255)" stroke-width="1.874998" fill="none" d="M 0.000000 750.000000 L 9.698287 0.000000 " />
<path stroke-linejoin="round" stroke-linecap="round" stroke="rgb(255,0,0)" stroke-width="3.749996" fill="none" d="M 9.574302 9.587869 L 12.765661 12.783721 " />
<path stroke-linejoin="round" stroke-linecap="round" stroke="rgb(0,0,255)" stroke-width="1.874998" fill="none" d="M 0.000000 750.000000 L 9.453781 0.000000 " />
<path stroke-linejoin="round" stroke-linecap="round" stroke="rgb(255,0,0)" stroke-width="3.749996" fill="none" d="M 9.335965 9.346112 L 9.574302 9.587824 " />
<path stroke-linejoin="round" stroke-linecap="round" stroke="rgb(0,0,255)" stroke-width="1.874998" fill="none" d="M 0.000000 750.000000 L 6.276145 0.000000 " />
<path stroke-linejoin="round" stroke-linecap="round" stroke="rgb(255,0,0)" stroke-width="3.749996" fill="none" d="M 6.223999 6.231710 L 9.335965 9.346157 " />
<path stroke-linejoin="round" stroke-linecap="round" stroke="rgb(0,0,255)" stroke-width="1.874998" fill="none" d="M 0.000000 750.000000 L 3.124997 0.000000 " />
<path stroke-linejoin="round" stroke-linecap="round" stroke="rgb(255,0,0)" stroke-width="3.749996" fill="none" d="M 3.112011 3.117800 L 6.223999 6.231710 " />
<path stroke-linejoin="round" stroke-linecap="round" stroke="rgb(0,0,255)" stroke-width="1.874998" fill="none" d="M 0.000000 750.000000 L 0.000000 0.000000 " />
<path stroke-linejoin="round" stroke-linecap="round" stroke="rgb(255,0,0)" stroke-width="3.749996" fill="none" d="M 0.000000 0.000000 L 3.112011 3.117800 " />
<circle cx="180.343509" cy="699.904583" r="3.749996" style="fill:rgb(0,127,0);stroke-width:1" /><circle cx="171.620987" cy="651.930861" r="3.749996" style="fill:rgb(0,127,0);stroke-width:1" /><circle cx="164.523885" cy="612.896785" r="3.749996" style="fill:rgb(0,127,0);stroke-width:1" /><circle cx="156.857908" cy="570.733823" r="3.749996" style="fill:rgb(0,127,0);stroke-width:1" /><circle cx="151.255846" cy="539.922439" r="3.749996" style="fill:rgb(0,127,0);stroke-width:1" /><circle cx="149.483040" cy="530.172005" r="3.749996" style="fill:rgb(0,127,0);stroke-width:1" /><circle cx="142.383009" cy="491.121814" r="3.749996" style="fill:rgb(0,127,0);stroke-width:1" /><circle cx="135.542706" cy="453.500301" r="3.749996" style="fill:rgb(0,127,0);stroke-width:1" /><circle cx="131.493285" cy="431.228399" r="3.749996" style="fill:rgb(0,127,0);stroke-width:1" /><circle cx="128.948227" cy="417.230420" r="3.749996" style="fill:rgb(0,127,0);stroke-width:1" /><circle cx="122.586429" cy="382.240668" r="3.749996" style="fill:rgb(0,127,0);stroke-width:1" /><circle cx="119.414158" cy="364.793032" r="3.749996" style="fill:rgb(0,127,0);stroke-width:1" /><circle cx="116.445333" cy="348.464414" r="3.749996" style="fill:rgb(0,127,0);stroke-width:1" /><circle cx="110.513538" cy="315.839678" r="3.749996" style="fill:rgb(0,127,0);stroke-width:1" /><circle cx="104.780585" cy="284.308478" r="3.749996" style="fill:rgb(0,127,0);stroke-width:1" /><circle cx="99.236637" cy="253.816769" r="3.749996" style="fill:rgb(0,127,0);stroke-width:1" /><circle cx="97.516783" cy="244.357467" r="3.749996" style="fill:rgb(0,127,0);stroke-width:1" /><circle cx="93.872488" cy="224.314034" r="3.749996" style="fill:rgb(0,127,0);stroke-width:1" /><circle cx="88.679552" cy="195.752800" r="3.749996" style="fill:rgb(0,127,0);stroke-width:1" /><circle cx="87.561741" cy="189.604819" r="3.749996" style="fill:rgb(0,127,0);stroke-width:1" /><circle cx="82.806744" cy="163.452253" r="3.749996" style="fill:rgb(0,127,0);stroke-width:1" /><circle cx="78.191355" cy="138.067648" r="3.749996" style="fill:rgb(0,127,0);stroke-width:1" /><circle cx="73.709540" cy="113.417611" r="3.749996" style="fill:rgb(0,127,0);stroke-width:1" /><circle cx="73.401690" cy="111.724466" r="3.749996" style="fill:rgb(0,127,0);stroke-width:1" /><circle cx="69.355577" cy="89.470804" r="3.749996" style="fill:rgb(0,127,0);stroke-width:1" /><circle cx="69.255799" cy="88.921979" r="3.749996" style="fill:rgb(0,127,0);stroke-width:1" /><circle cx="68.835251" cy="87.870508" r="3.749996" style="fill:rgb(0,127,0);stroke-width:1" /><circle cx="68.298519" cy="86.528733" r="3.749996" style="fill:rgb(0,127,0);stroke-width:1" /><circle cx="65.428823" cy="79.354495" r="3.749996" style="fill:rgb(0,127,0);stroke-width:1" /><circle cx="62.525198" cy="72.095364" r="3.749996" style="fill:rgb(0,127,0);stroke-width:1" /><circle cx="62.035739" cy="70.871785" r="3.749996" style="fill:rgb(0,127,0);stroke-width:1" /><circle cx="58.979474" cy="65.182731" r="3.749996" style="fill:rgb(0,127,0);stroke-width:1" /><circle cx="58.518693" cy="64.030811" r="3.749996" style="fill:rgb(0,127,0);stroke-width:1" /><circle cx="55.380620" cy="59.371144" r="3.749996" style="fill:rgb(0,127,0);stroke-width:1" /><circle cx="52.197419" cy="55.121854" r="3.749996" style="fill:rgb(0,127,0);stroke-width:1" /><circle cx="48.985183" cy="51.144809" r="3.749996" style="fill:rgb(0,127,0);stroke-width:1" /><circle cx="45.753524" cy="47.356546" r="3.749996" style="fill:rgb(0,127,0);stroke-width:1" /><circle cx="45.387156" cy="46.499044" r="3.749996" style="fill:rgb(0,127,0);stroke-width:1" /><circle cx="45.016743" cy="45.809537" r="3.749996" style="fill:rgb(0,127,0);stroke-width:1" /><circle cx="42.174473" cy="42.766660" r="3.749996" style="fill:rgb(0,127,0);stroke-width:1" /><circle cx="41.821316" cy="42.254627" r="3.749996" style="fill:rgb(0,127,0);stroke-width:1" /><circle cx="38.609907" cy="38.934276" r="3.749996" style="fill:rgb(0,127,0);stroke-width:1" /><circle cx="35.702705" cy="35.945669" r="3.749996" style="fill:rgb(0,127,0);stroke-width:1" /><circle cx="35.399213" cy="35.579681" r="3.749996" style="fill:rgb(0,127,0);stroke-width:1" /><circle cx="32.183044" cy="32.318339" r="3.749996" style="fill:rgb(0,127,0);stroke-width:1" /><circle cx="28.966047" cy="29.067457" r="3.749996" style="fill:rgb(0,127,0);stroke-width:1" /><circle cx="25.748469" cy="25.824487" r="3.749996" style="fill:rgb(0,127,0);stroke-width:1" /><circle cx="22.530466" cy="22.587553" r="3.749996" style="fill:rgb(0,127,0);stroke-width:1" /><circle cx="22.339158" cy="22.381872" r="3.749996" style="fill:rgb(0,127,0);stroke-width:1" /><circle cx="19.148111" cy="19.180164" r="3.749996" style="fill:rgb(0,127,0);stroke-width:1" /><circle cx="15.956931" cy="15.981004" r="3.749996" style="fill:rgb(0,127,0);stroke-width:1" /><circle cx="12.765661" cy="12.783721" r="3.749996" style="fill:rgb(0,127,0);stroke-width:1" /><circle cx="9.574302" cy="9.587869" r="3.749996" style="fill:rgb(0,127,0);stroke-width:1" /><circle cx="9.335965" cy="9.346113" r="3.749996" style="fill:rgb(0,127,0);stroke-width:1" /><circle cx="6.223999" cy="6.231710" r="3.749996" style="fill:rgb(0,127,0);stroke-width:1" /><circle cx="3.111988" cy="3.117800" r="3.750008" style="fill:rgb(0,127,0);stroke-width:1" /><circle cx="750.000000" cy="750.000000" r="3.749996" style="fill:rgb(0,127,0);stroke-width:1" /><path stroke-linejoin="round" stroke-linecap="round" stroke="rgb(255,255,255)" stroke-width="3.749996" fill="none" d="M 0.000000 750.000000 L 750.000000 750.000000 M 0.000000 750.000000 L 0.000000 0.000000 " />

</svg>