<svg xmlns="http://www.w3.org/2000/svg" version="1.1" width = "750" height = "750" viewBox = "0 0 750 750"  shape-rendering="crispEdges">
<path stroke-linejoin="round" stroke-linecap="round" stroke="rgb(255,255,0)" stroke-width="3.749996" fill="none" d="M 74.999992 750.000000 L 0.000000 0.000000 " />
<path stroke-linejoin="round" stroke-linecap="round" stroke="rgb(63,63,63)" stroke-width="3.749996" fill="none" d="M 0.000000 0.000000 L 750.000000 750.000000 M 74.999992 750.000000 L 35.526306 0.000000 " />
<path stroke-linejoin="round" stroke-linecap="round" stroke="rgb(191,191,191)" stroke-width="3.749996" fill="none" d="M 0.000000 675.000000 L 74.999992 750.000000 M 0.000000 0.000000 L 39.473690 750.000000 " />
<path stroke-linejoin="round" stroke-linecap="round" stroke="rgb(0,0,255)" stroke-width="1.874998" fill="none" d="M 0.000000 750.000000 L 750.000000 729.729736 " />
<path stroke-linejoin="round" stroke-linecap="round" stroke="rgb(255,0,0)" stroke-width="3.749996" fill="none" d="M 74.893471 747.975830 L 74.999992 750.000000 " />
<path stroke-linejoin="round" stroke-linecap="round" stroke="rgb(0,0,255)" stroke-width="1.874998" fill="none" d="M 0.000000 750.000000 L 750.000000 708.333313 " />
<path stroke-linejoin="round" stroke-linecap="round" stroke="rgb(255,0,0)" stroke-width="3.749996" fill="none" d="M 74.508881 745.860657 L 74.893471 747.975830 " />
<path stroke-linejoin="round" stroke-linecap="round" stroke="rgb(0,0,255)" stroke-width="1.874998" fill="none" d="M 0.000000 750.000000 L 750.000000 689.189209 " />
<path stroke-linejoin="round" stroke-linecap="round" stroke="rgb(255,0,0)" stroke-width="3.749996" fill="none" d="M 74.168106 743.986389 L 74.508881 745.860657 " />
<path stroke-linejoin="round" stroke-linecap="round" stroke="rgb(0,0,255)" stroke-width="1.874998" fill="none" d="M 0.000000 750.000000 L 750.000000 666.666687 " />
<path stroke-linejoin="round" stroke-linecap="round" stroke="rgb(255,0,0)" stroke-width="3.749996" fill="none" d="M 73.771164 741.803223 L 74.168106 743.986389 " />
<path stroke-linejoin="round" stroke-linecap="round" stroke="rgb(0,0,255)" stroke-width="1.874998" fill="none" d="M 0.000000 750.000000 L 750.000000 642.857178 " />
<path stroke-linejoin="round" stroke-linecap="round" stroke="rgb(255,0,0)" stroke-width="3.749996" fill="none" d="M 73.356140 739.520508 L 73.771164 741.803223 " />
<path stroke-linejoin="round" stroke-linecap="round" stroke="rgb(0,0,255)" stroke-width="1.874998" fill="none" d="M 0.000000 750.000000 L 750.000000 617.647095 " />
<path stroke-linejoin="round" stroke-linecap="round" stroke="rgb(255,0,0)" stroke-width="3.749996" fill="none" d="M 72.921753 737.131470 L 73.356140 739.520508 " />
<path stroke-linejoin="round" stroke-linecap="round" stroke="rgb(0,0,255)" stroke-width="1.874998" fill="none" d="M 0.000000 750.000000 L 750.000000 590.909058 " />
<path stroke-linejoin="round" stroke-linecap="round" stroke="rgb(255,0,0)" stroke-width="3.749996" fill="none" d="M 72.466629 734.628235 L 72.921753 737.131470 " />
<path stroke-linejoin="round" stroke-linecap="round" stroke="rgb(0,0,255)" stroke-width="1.874998" fill="none" d="M 0.000000 750.000000 L 750.000000 573.529419 " />
<path stroke-linejoin="round" stroke-linecap="round" stroke="rgb(255,0,0)" stroke-width="3.749996" fill="none" d="M 72.173843 733.017944 L 72.466629 734.628235 " />
<path stroke-linejoin="round" stroke-linecap="round" stroke="rgb(0,0,255)" stroke-width="1.874998" fill="none" d="M 0.000000 750.000000 L 750.000000 545.454590 " />
<path stroke-linejoin="round" stroke-linecap="round" stroke="rgb(255,0,0)" stroke-width="3.749996" fill="none" d="M 71.705818 730.443848 L 72.173843 733.017944 " />
<path stroke-linejoin="round" stroke-linecap="round" stroke="rgb(0,0,255)" stroke-width="1.874998" fill="none" d="M 0.000000 750.000000 L 750.000000 515.625000 " />
<path stroke-linejoin="round" stroke-linecap="round" stroke="rgb(255,0,0)" stroke-width="3.749996" fill="none" d="M 71.215172 727.745239 L 71.705818 730.443848 " />
<path stroke-linejoin="round" stroke-linecap="round" stroke="rgb(0,0,255)" stroke-width="1.874998" fill="none" d="M 0.000000 750.000000 L 750.000000 483.870941 " />
<path stroke-linejoin="round" stroke-linecap="round" stroke="rgb(255,0,0)" stroke-width="3.749996" fill="none" d="M 70.700188 724.912842 L 71.215172 727.745239 " />
<path stroke-linejoin="round" stroke-linecap="round" stroke="rgb(0,0,255)" stroke-width="1.874998" fill="none" d="M 0.000000 750.000000 L 750.000000 450.000031 " />
<path stroke-linejoin="round" stroke-linecap="round" stroke="rgb(255,0,0)" stroke-width="3.749996" fill="none" d="M 70.159012 721.936401 L 70.700188 724.912842 " />
<path stroke-linejoin="round" stroke-linecap="round" stroke="rgb(0,0,255)" stroke-width="1.874998" fill="none" d="M 0.000000 750.000000 L 750.000000 413.793091 " />
<path stroke-linejoin="round" stroke-linecap="round" stroke="rgb(255,0,0)" stroke-width="3.749996" fill="none" d="M 69.589600 718.804688 L 70.159012 721.936401 " />
<path stroke-linejoin="round" stroke-linecap="round" stroke="rgb(0,0,255)" stroke-width="1.874998" fill="none" d="M 0.000000 750.000000 L 750.000000 375.000000 " />
<path stroke-linejoin="round" stroke-linecap="round" stroke="rgb(255,0,0)" stroke-width="3.749996" fill="none" d="M 68.989700 715.505188 L 69.589600 718.804688 " />
<path stroke-linejoin="round" stroke-linecap="round" stroke="rgb(0,0,255)" stroke-width="1.874998" fill="none" d="M 0.000000 750.000000 L 750.000000 362.068970 " />
<path stroke-linejoin="round" stroke-linecap="round" stroke="rgb(255,0,0)" stroke-width="3.749996" fill="none" d="M 68.792023 714.417908 L 68.989700 715.505188 " />
<path stroke-linejoin="round" stroke-linecap="round" stroke="rgb(0,0,255)" stroke-width="1.874998" fill="none" d="M 0.000000 750.000000 L 750.000000 321.428558 " />
<path stroke-linejoin="round" stroke-linecap="round" stroke="rgb(255,0,0)" stroke-width="3.749996" fill="none" d="M 68.178040 711.041077 L 68.792023 714.417908 " />
<path stroke-linejoin="round" stroke-linecap="round" stroke="rgb(0,0,255)" stroke-width="1.874998" fill="none" d="M 0.000000 750.000000 L 750.000000 277.777802 " />
<path stroke-linejoin="round" stroke-linecap="round" stroke="rgb(255,0,0)" stroke-width="3.749996" fill="none" d="M 67.530693 707.480713 L 68.178040 711.041077 " />
<path stroke-linejoin="round" stroke-linecap="round" stroke="rgb(0,0,255)" stroke-width="1.874998" fill="none" d="M 0.000000 750.000000 L 750.000000 230.769211 " />
<path stroke-linejoin="round" stroke-linecap="round" stroke="rgb(255,0,0)" stroke-width="3.749996" fill="none" d="M 66.847153 703.721191 L 67.530693 707.480713 " />
<path stroke-linejoin="round" stroke-linecap="round" stroke="rgb(0,0,255)" stroke-width="1.874998" fill="none" d="M 0.000000 750.000000 L 750.000000 180.000000 " />
<path stroke-linejoin="round" stroke-linecap="round" stroke="rgb(255,0,0)" stroke-width="3.749996" fill="none" d="M 66.124298 699.745483 L 66.847153 703.721191 " />
<path stroke-linejoin="round" stroke-linecap="round" stroke="rgb(0,0,255)" stroke-width="1.874998" fill="none" d="M 0.000000 750.000000 L 750.000000 173.076920 " />
<path stroke-linejoin="round" stroke-linecap="round" stroke="rgb(255,0,0)" stroke-width="3.749996" fill="none" d="M 66.026955 699.210022 L 66.124298 699.745483 " />
<path stroke-linejoin="round" stroke-linecap="round" stroke="rgb(0,0,255)" stroke-width="1.874998" fill="none" d="M 0.000000 750.000000 L 750.000000 120.000023 " />
<path stroke-linejoin="round" stroke-linecap="round" stroke="rgb(255,0,0)" stroke-width="3.749996" fill="none" d="M 65.289932 695.156433 L 66.026955 699.210022 " />
<path stroke-linejoin="round" stroke-linecap="round" stroke="rgb(0,0,255)" stroke-width="1.874998" fill="none" d="M 0.000000 750.000000 L 750.000000 62.499985 " />
<path stroke-linejoin="round" stroke-linecap="round" stroke="rgb(255,0,0)" stroke-width="3.749996" fill="none" d="M 64.509857 690.865967 L 65.289932 695.156433 " />
<path stroke-linejoin="round" stroke-linecap="round" stroke="rgb(0,0,255)" stroke-width="1.874998" fill="none" d="M 0.000000 750.000000 L 750.000000 0.000000 " />
<path stroke-linejoin="round" stroke-linecap="round" stroke="rgb(255,0,0)" stroke-width="3.749996" fill="none" d="M 63.682793 686.317200 L 64.509857 690.865967 " />
<path stroke-linejoin="round" stroke-linecap="round" stroke="rgb(0,0,255)" stroke-width="1.874998" fill="none" d="M 0.000000 750.000000 L 687.500000 0.000000 " />
<path stroke-linejoin="round" stroke-linecap="round" stroke="rgb(255,0,0)" stroke-width="3.749996" fill="none" d="M 62.804417 681.486084 L 63.682793 686.317200 " />
<path stroke-linejoin="round" stroke-linecap="round" stroke="rgb(0,0,255)" stroke-width="1.874998" fill="none" d="M 0.000000 750.000000 L 630.000000 0.000000 " />
<path stroke-linejoin="round" stroke-linecap="round" stroke="rgb(255,0,0)" stroke-width="3.749996" fill="none" d="M 61.869778 676.345520 L 62.804417 681.486084 " />
<path stroke-linejoin="round" stroke-linecap="round" stroke="rgb(0,0,255)" stroke-width="1.874998" fill="none" d="M 0.000000 750.000000 L 583.333313 0.000000 " />
<path stroke-linejoin="round" stroke-linecap="round" stroke="rgb(255,0,0)" stroke-width="3.749996" fill="none" d="M 61.001434 671.569641 L 61.869778 676.345520 " />
<path stroke-linejoin="round" stroke-linecap="round" stroke="rgb(0,0,255)" stroke-width="1.874998" fill="none" d="M 0.000000 750.000000 L 535.714294 0.000000 " />
<path stroke-linejoin="round" stroke-linecap="round" stroke="rgb(255,0,0)" stroke-width="3.749996" fill="none" d="M 59.991047 666.012512 L 61.001434 671.569641 " />
<path stroke-linejoin="round" stroke-linecap="round" stroke="rgb(0,0,255)" stroke-width="1.874998" fill="none" d="M 0.000000 750.000000 L 491.379303 0.000000 " />
<path stroke-linejoin="round" stroke-linecap="round" stroke="rgb(255,0,0)" stroke-width="3.749996" fill="none" d="M 58.912552 660.080811 L 59.991047 666.012512 " />
<path stroke-linejoin="round" stroke-linecap="round" stroke="rgb(0,0,255)" stroke-width="1.874998" fill="none" d="M 0.000000 750.000000 L 450.000031 0.000000 " />
<path stroke-linejoin="round" stroke-linecap="round" stroke="rgb(255,0,0)" stroke-width="3.749996" fill="none" d="M 57.758823 653.735291 L 58.912552 660.080811 " />
<path stroke-linejoin="round" stroke-linecap="round" stroke="rgb(0,0,255)" stroke-width="1.874998" fill="none" d="M 0.000000 750.000000 L 421.875000 0.000000 " />
<path stroke-linejoin="round" stroke-linecap="round" stroke="rgb(255,0,0)" stroke-width="3.749996" fill="none" d="M 56.877003 648.885315 L 57.758823 653.735291 " />
<path stroke-linejoin="round" stroke-linecap="round" stroke="rgb(0,0,255)" stroke-width="1.874998" fill="none" d="M 0.000000 750.000000 L 386.363617 0.000000 " />
<path stroke-linejoin="round" stroke-linecap="round" stroke="rgb(255,0,0)" stroke-width="3.749996" fill="none" d="M 55.628056 642.016113 L 56.877003 648.885315 " />
<path stroke-linejoin="round" stroke-linecap="round" stroke="rgb(0,0,255)" stroke-width="1.874998" fill="none" d="M 0.000000 750.000000 L 352.941193 0.000000 " />
<path stroke-linejoin="round" stroke-linecap="round" stroke="rgb(255,0,0)" stroke-width="3.749996" fill="none" d="M 54.286972 634.640137 L 55.628056 642.016113 " />
<path stroke-linejoin="round" stroke-linecap="round" stroke="rgb(0,0,255)" stroke-width="1.874998" fill="none" d="M 0.000000 750.000000 L 333.333344 0.000000 " />
<path stroke-linejoin="round" stroke-linecap="round" stroke="rgb(255,0,0)" stroke-width="3.749996" fill="none" d="M 53.411388 629.824402 L 54.286972 634.640137 " />
<path stroke-linejoin="round" stroke-linecap="round" stroke="rgb(0,0,255)" stroke-width="1.874998" fill="none" d="M 0.000000 750.000000 L 315.789490 0.000000 " />
<path stroke-linejoin="round" stroke-linecap="round" stroke="rgb(255,0,0)" stroke-width="3.749996" fill="none" d="M 52.563587 625.161499 L 53.411388 629.824402 " />
<path stroke-linejoin="round" stroke-linecap="round" stroke="rgb(0,0,255)" stroke-width="1.874998" fill="none" d="M 0.000000 750.000000 L 288.461548 0.000000 " />
<path stroke-linejoin="round" stroke-linecap="round" stroke="rgb(255,0,0)" stroke-width="3.749996" fill="none" d="M 51.103481 617.130981 L 52.563587 625.161499 " />
<path stroke-linejoin="round" stroke-linecap="round" stroke="rgb(0,0,255)" stroke-width="1.874998" fill="none" d="M 0.000000 750.000000 L 274.390259 0.000000 " />
<path stroke-linejoin="round" stroke-linecap="round" stroke="rgb(255,0,0)" stroke-width="3.749996" fill="none" d="M 50.275883 612.579224 L 51.103481 617.130981 " />
<path stroke-linejoin="round" stroke-linecap="round" stroke="rgb(0,0,255)" stroke-width="1.874998" fill="none" d="M 0.000000 750.000000 L 244.897949 0.000000 " />
<path stroke-linejoin="round" stroke-linecap="round" stroke="rgb(255,0,0)" stroke-width="3.749996" fill="none" d="M 49.333603 598.915833 L 50.275883 612.579224 " />
<path stroke-linejoin="round" stroke-linecap="round" stroke="rgb(0,0,255)" stroke-width="1.874998" fill="none" d="M 0.000000 750.000000 L 190.677963 0.000000 " />
<path stroke-linejoin="round" stroke-linecap="round" stroke="rgb(255,0,0)" stroke-width="3.749996" fill="none" d="M 47.002964 565.121704 L 49.333603 598.915833 " />
<path stroke-linejoin="round" stroke-linecap="round" stroke="rgb(0,0,255)" stroke-width="1.874998" fill="none" d="M 0.000000 750.000000 L 152.173920 0.000000 " />
<path stroke-linejoin="round" stroke-linecap="round" stroke="rgb(255,0,0)" stroke-width="3.749996" fill="none" d="M 44.595211 530.209351 L 47.002941 565.121704 " />
<path stroke-linejoin="round" stroke-linecap="round" stroke="rgb(0,0,255)" stroke-width="1.874998" fill="none" d="M 0.000000 750.000000 L 142.405045 0.000000 " />
<path stroke-linejoin="round" stroke-linecap="round" stroke="rgb(255,0,0)" stroke-width="3.749996" fill="none" d="M 43.832436 519.149170 L 44.595211 530.209351 " />
<path stroke-linejoin="round" stroke-linecap="round" stroke="rgb(0,0,255)" stroke-width="1.874998" fill="none" d="M 0.000000 750.000000 L 135.542175 0.000000 " />
<path stroke-linejoin="round" stroke-linecap="round" stroke="rgb(255,0,0)" stroke-width="3.749996" fill="none" d="M 43.248966 510.689026 L 43.832436 519.149170 " />
<path stroke-linejoin="round" stroke-linecap="round" stroke="rgb(0,0,255)" stroke-width="1.874998" fill="none" d="M 0.000000 750.000000 L 123.417732 0.000000 " />
<path stroke-linejoin="round" stroke-linecap="round" stroke="rgb(255,0,0)" stroke-width="3.749996" fill="none" d="M 42.106457 494.122345 L 43.248966 510.689026 " />
<path stroke-linejoin="round" stroke-linecap="round" stroke="rgb(0,0,255)" stroke-width="1.874998" fill="none" d="M 0.000000 750.000000 L 117.977524 0.000000 " />
<path stroke-linejoin="round" stroke-linecap="round" stroke="rgb(255,0,0)" stroke-width="3.749996" fill="none" d="M 41.540733 485.919586 L 42.106457 494.122345 " />
<path stroke-linejoin="round" stroke-linecap="round" stroke="rgb(0,0,255)" stroke-width="1.874998" fill="none" d="M 0.000000 750.000000 L 98.484856 0.000000 " />
<path stroke-linejoin="round" stroke-linecap="round" stroke="rgb(255,0,0)" stroke-width="3.749996" fill="none" d="M 39.177307 451.649811 L 41.540733 485.919617 " />
<path stroke-linejoin="round" stroke-linecap="round" stroke="rgb(0,0,255)" stroke-width="1.874998" fill="none" d="M 0.000000 750.000000 L 96.330284 0.000000 " />
<path stroke-linejoin="round" stroke-linecap="round" stroke="rgb(255,0,0)" stroke-width="3.749996" fill="none" d="M 38.877861 447.308014 L 39.177307 451.649811 " />
<path stroke-linejoin="round" stroke-linecap="round" stroke="rgb(0,0,255)" stroke-width="1.874998" fill="none" d="M 0.000000 750.000000 L 82.568810 0.000000 " />
<path stroke-linejoin="round" stroke-linecap="round" stroke="rgb(255,0,0)" stroke-width="3.749996" fill="none" d="M 36.738708 416.290100 L 38.877861 447.308014 " />
<path stroke-linejoin="round" stroke-linecap="round" stroke="rgb(0,0,255)" stroke-width="1.874998" fill="none" d="M 0.000000 750.000000 L 81.932770 0.000000 " />
<path stroke-linejoin="round" stroke-linecap="round" stroke="rgb(255,0,0)" stroke-width="3.749996" fill="none" d="M 36.629185 414.702148 L 36.738708 416.290100 " />
<path stroke-linejoin="round" stroke-linecap="round" stroke="rgb(0,0,255)" stroke-width="1.874998" fill="none" d="M 0.000000 750.000000 L 81.683167 0.000000 " />
<path stroke-linejoin="round" stroke-linecap="round" stroke="rgb(255,0,0)" stroke-width="3.749996" fill="none" d="M 36.585911 414.074829 L 36.629185 414.702148 " />
<path stroke-linejoin="round" stroke-linecap="round" stroke="rgb(0,0,255)" stroke-width="1.874998" fill="none" d="M 0.000000 750.000000 L 67.567574 0.000000 " />
<path stroke-linejoin="round" stroke-linecap="round" stroke="rgb(255,0,0)" stroke-width="3.749996" fill="none" d="M 33.844559 374.325348 L 36.585911 414.074829 " />
<path stroke-linejoin="round" stroke-linecap="round" stroke="rgb(0,0,255)" stroke-width="1.874998" fill="none" d="M 0.000000 750.000000 L 57.251907 0.000000 " />
<path stroke-linejoin="round" stroke-linecap="round" stroke="rgb(255,0,0)" stroke-width="3.749996" fill="none" d="M 31.392059 338.764008 L 33.844559 374.325348 " />
<path stroke-linejoin="round" stroke-linecap="round" stroke="rgb(0,0,255)" stroke-width="1.874998" fill="none" d="M 0.000000 750.000000 L 55.555569 0.000000 " />
<path stroke-linejoin="round" stroke-linecap="round" stroke="rgb(255,0,0)" stroke-width="3.749996" fill="none" d="M 30.943594 332.261383 L 31.392059 338.764008 " />
<path stroke-linejoin="round" stroke-linecap="round" stroke="rgb(0,0,255)" stroke-width="1.874998" fill="none" d="M 0.000000 750.000000 L 52.816898 0.000000 " />
<path stroke-linejoin="round" stroke-linecap="round" stroke="rgb(255,0,0)" stroke-width="3.749996" fill="none" d="M 30.188889 321.317902 L 30.943594 332.261383 " />
<path stroke-linejoin="round" stroke-linecap="round" stroke="rgb(0,0,255)" stroke-width="1.874998" fill="none" d="M 0.000000 750.000000 L 46.551727 0.000000 " />
<path stroke-linejoin="round" stroke-linecap="round" stroke="rgb(255,0,0)" stroke-width="3.749996" fill="none" d="M 28.304123 293.989014 L 30.188889 321.317902 " />
<path stroke-linejoin="round" stroke-linecap="round" stroke="rgb(0,0,255)" stroke-width="1.874998" fill="none" d="M 0.000000 750.000000 L 40.909096 0.000000 " />
<path stroke-linejoin="round" stroke-linecap="round" stroke="rgb(255,0,0)" stroke-width="3.749996" fill="none" d="M 26.388445 266.211761 L 28.304123 293.989014 " />
<path stroke-linejoin="round" stroke-linecap="round" stroke="rgb(0,0,255)" stroke-width="1.874998" fill="none" d="M 0.000000 750.000000 L 40.000008 0.000000 " />
<path stroke-linejoin="round" stroke-linecap="round" stroke="rgb(255,0,0)" stroke-width="3.749996" fill="none" d="M 26.057772 261.416840 L 26.388445 266.211823 " />
<path stroke-linejoin="round" stroke-linecap="round" stroke="rgb(0,0,255)" stroke-width="1.874998" fill="none" d="M 0.000000 750.000000 L 38.961029 0.000000 " />
<path stroke-linejoin="round" stroke-linecap="round" stroke="rgb(255,0,0)" stroke-width="3.749996" fill="none" d="M 25.671736 255.819260 L 26.057772 261.416840 " />
<path stroke-linejoin="round" stroke-linecap="round" stroke="rgb(0,0,255)" stroke-width="1.874998" fill="none" d="M 0.000000 750.000000 L 38.461536 0.000000 " />
<path stroke-linejoin="round" stroke-linecap="round" stroke="rgb(255,0,0)" stroke-width="3.749996" fill="none" d="M 25.482952 253.082199 L 25.671736 255.819260 " />
<path stroke-linejoin="round" stroke-linecap="round" stroke="rgb(0,0,255)" stroke-width="1.874998" fill="none" d="M 0.000000 750.000000 L 35.958900 0.000000 " />
<path stroke-linejoin="round" stroke-linecap="round" stroke="rgb(255,0,0)" stroke-width="3.749996" fill="none" d="M 24.504841 238.899170 L 25.482975 253.082153 " />
<path stroke-linejoin="round" stroke-linecap="round" stroke="rgb(0,0,255)" stroke-width="1.874998" fill="none" d="M 0.000000 750.000000 L 28.846151 0.000000 " />
<path stroke-linejoin="round" stroke-linecap="round" stroke="rgb(255,0,0)" stroke-width="3.749996" fill="none" d="M 21.393099 193.779236 L 24.504841 238.899170 " />
<path stroke-linejoin="round" stroke-linecap="round" stroke="rgb(0,0,255)" stroke-width="1.874998" fill="none" d="M 0.000000 750.000000 L 25.568180 0.000000 " />
<path stroke-linejoin="round" stroke-linecap="round" stroke="rgb(255,0,0)" stroke-width="3.749996" fill="none" d="M 19.766249 170.189865 L 21.393099 193.779236 " />
<path stroke-linejoin="round" stroke-linecap="round" stroke="rgb(0,0,255)" stroke-width="1.874998" fill="none" d="M 0.000000 750.000000 L 20.949728 0.000000 " />
<path stroke-linejoin="round" stroke-linecap="round" stroke="rgb(255,0,0)" stroke-width="3.749996" fill="none" d="M 17.225058 133.342560 L 19.766249 170.189865 " />
<path stroke-linejoin="round" stroke-linecap="round" stroke="rgb(0,0,255)" stroke-width="1.874998" fill="none" d="M 0.000000 750.000000 L 15.873022 0.000000 " />
<path stroke-linejoin="round" stroke-linecap="round" stroke="rgb(255,0,0)" stroke-width="3.749996" fill="none" d="M 14.031105 87.030106 L 17.225058 133.342560 " />
<path stroke-linejoin="round" stroke-linecap="round" stroke="rgb(0,0,255)" stroke-width="1.874998" fill="none" d="M 0.000000 750.000000 L 14.354065 0.000000 " />
<path stroke-linejoin="round" stroke-linecap="round" stroke="rgb(255,0,0)" stroke-width="3.749996" fill="none" d="M 12.980082 71.790352 L 14.031105 87.030106 " />
<path stroke-linejoin="round" stroke-linecap="round" stroke="rgb(0,0,255)" stroke-width="1.874998" fill="none" d="M 0.000000 750.000000 L 14.084503 0.000000 " />
<path stroke-linejoin="round" stroke-linecap="round" stroke="rgb(255,0,0)" stroke-width="3.749996" fill="none" d="M 12.788505 69.012299 L 12.980082 71.790352 " />
<path stroke-linejoin="round" stroke-linecap="round" stroke="rgb(0,0,255)" stroke-width="1.874998" fill="none" d="M 0.000000 750.000000 L 14.018700 0.000000 " />
<path stroke-linejoin="round" stroke-linecap="round" stroke="rgb(255,0,0)" stroke-width="3.749996" fill="none" d="M 12.741476 68.330597 L 12.788505 69.012299 " />
<path stroke-linejoin="round" stroke-linecap="round" stroke="rgb(0,0,255)" stroke-width="1.874998" fill="none" d="M 0.000000 750.000000 L 13.888881 0.000000 " />
<path stroke-linejoin="round" stroke-linecap="round" stroke="rgb(255,0,0)" stroke-width="3.749996" fill="none" d="M 12.648471 66.982132 L 12.741476 68.330658 " />
<path stroke-linejoin="round" stroke-linecap="round" stroke="rgb(0,0,255)" stroke-width="1.874998" fill="none" d="M 0.000000 750.000000 L 13.761476 0.000000 " />
<path stroke-linejoin="round" stroke-linecap="round" stroke="rgb(255,0,0)" stroke-width="3.749996" fill="none" d="M 12.556828 65.653099 L 12.648471 66.982132 " />
<path stroke-linejoin="round" stroke-linecap="round" stroke="rgb(0,0,255)" stroke-width="1.874998" fill="none" d="M 0.000000 750.000000 L 13.636373 0.000000 " />
<path stroke-linejoin="round" stroke-linecap="round" stroke="rgb(255,0,0)" stroke-width="3.749996" fill="none" d="M 12.466483 64.343201 L 12.556828 65.653099 " />
<path stroke-linejoin="round" stroke-linecap="round" stroke="rgb(0,0,255)" stroke-width="1.874998" fill="none" d="M 0.000000 750.000000 L 13.513506 0.000000 " />
<path stroke-linejoin="round" stroke-linecap="round" stroke="rgb(255,0,0)" stroke-width="3.749996" fill="none" d="M 12.377434 63.052074 L 12.466483 64.343201 " />
<path stroke-linejoin="round" stroke-linecap="round" stroke="rgb(0,0,255)" stroke-width="1.874998" fill="none" d="M 0.000000 750.000000 L 10.613211 0.000000 " />
<path stroke-linejoin="round" stroke-linecap="round" stroke="rgb(255,0,0)" stroke-width="3.749996" fill="none" d="M 10.173239 31.091095 L 12.377434 63.052074 " />
<path stroke-linejoin="round" stroke-linecap="round" stroke="rgb(0,0,255)" stroke-width="1.874998" fill="none" d="M 0.000000 750.000000 L 9.698287 0.000000 " />
<path stroke-linejoin="round" stroke-linecap="round" stroke="rgb(255,0,0)" stroke-width="3.749996" fill="none" d="M 9.434715 20.382420 L 10.173239 31.091095 " />
<path stroke-linejoin="round" stroke-linecap="round" stroke="rgb(0,0,255)" stroke-width="1.874998" fill="none" d="M 0.000000 750.000000 L 6.437771 0.000000 " />
<path stroke-linejoin="round" stroke-linecap="round" stroke="rgb(255,0,0)" stroke-width="3.749996" fill="none" d="M 6.360210 9.035892 L 9.434715 20.382353 " />
<path stroke-linejoin="round" stroke-linecap="round" stroke="rgb(0,0,255)" stroke-width="1.874998" fill="none" d="M 0.000000 750.000000 L 3.086418 0.000000 " />
<path stroke-linejoin="round" stroke-linecap="round" stroke="rgb(255,0,0)" stroke-width="3.749996" fill="none" d="M 3.071040 3.738217 L 6.360210 9.035892 " />
<path stroke-linejoin="round" stroke-linecap="round" stroke="rgb(0,0,255)" stroke-width="1.874998" fill="none" d="M 0.000000 750.000000 L 0.000000 0.000000 " />
<path stroke-linejoin="round" stroke-linecap="round" stroke="rgb(255,0,0)" stroke-width="3.749996" fill="none" d="M 0.000000 0.000000 L 3.071040 3.738284 " />
<circle cx="74.893467" cy="747.975871" r="3.749996" style="fill:rgb(0,127,0);stroke-width:1" /><circle cx="74.508883" cy="745.860614" r="3.749996" style="fill:rgb(0,127,0);stroke-width:1" /><circle cx="74.168108" cy="743.986376" r="3.749996" style="fill:rgb(0,127,0);stroke-width:1" /><circle cx="73.771164" cy="741.803214" r="3.749996" style="fill:rgb(0,127,0);stroke-width:1" /><circle cx="73.356137" cy="739.520542" r="3.749996" style="fill:rgb(0,127,0);stroke-width:1" /><circle cx="72.921753" cy="737.131454" r="3.749996" style="fill:rgb(0,127,0);stroke-width:1" /><circle cx="72.466627" cy="734.628282" r="3.749996" style="fill:rgb(0,127,0);stroke-width:1" /><circle cx="72.173841" cy="733.017929" r="3.749996" style="fill:rgb(0,127,0);stroke-width:1" /><circle cx="71.705818" cy="730.443858" r="3.749996" style="fill:rgb(0,127,0);stroke-width:1" /><circle cx="71.215175" cy="727.745265" r="3.749996" style="fill:rgb(0,127,0);stroke-width:1" /><circle cx="70.700191" cy="724.912830" r="3.749996" style="fill:rgb(0,127,0);stroke-width:1" /><circle cx="70.159011" cy="721.936382" r="3.749996" style="fill:rgb(0,127,0);stroke-width:1" /><circle cx="69.589600" cy="718.804657" r="3.749996" style="fill:rgb(0,127,0);stroke-width:1" /><circle cx="68.989702" cy="715.505160" r="3.749996" style="fill:rgb(0,127,0);stroke-width:1" /><circle cx="68.792023" cy="714.417927" r="3.749996" style="fill:rgb(0,127,0);stroke-width:1" /><circle cx="68.178043" cy="711.041115" r="3.749996" style="fill:rgb(0,127,0);stroke-width:1" /><circle cx="67.530692" cy="707.480684" r="3.749996" style="fill:rgb(0,127,0);stroke-width:1" /><circle cx="66.847153" cy="703.721188" r="3.749996" style="fill:rgb(0,127,0);stroke-width:1" /><circle cx="66.124298" cy="699.745528" r="3.749996" style="fill:rgb(0,127,0);stroke-width:1" /><circle cx="66.026956" cy="699.210048" r="3.749996" style="fill:rgb(0,127,0);stroke-width:1" /><circle cx="65.289930" cy="695.156448" r="3.749996" style="fill:rgb(0,127,0);stroke-width:1" /><circle cx="64.509854" cy="690.865964" r="3.749996" style="fill:rgb(0,127,0);stroke-width:1" /><circle cx="63.682795" cy="686.317205" r="3.749996" style="fill:rgb(0,127,0);stroke-width:1" /><circle cx="62.804416" cy="681.486078" r="3.749996" style="fill:rgb(0,127,0);stroke-width:1" /><circle cx="61.869778" cy="676.345512" r="3.749996" style="fill:rgb(0,127,0);stroke-width:1" /><circle cx="61.001435" cy="671.569593" r="3.749996" style="fill:rgb(0,127,0);stroke-width:1" /><circle cx="59.991047" cy="666.012526" r="3.749996" style="fill:rgb(0,127,0);stroke-width:1" /><circle cx="58.912553" cy="660.080820" r="3.749996" style="fill:rgb(0,127,0);stroke-width:1" /><circle cx="57.758823" cy="653.735295" r="3.749996" style="fill:rgb(0,127,0);stroke-width:1" /><circle cx="56.877002" cy="648.885325" r="3.749996" style="fill:rgb(0,127,0);stroke-width:1" /><circle cx="55.628054" cy="642.016120" r="3.749996" style="fill:rgb(0,127,0);stroke-width:1" /><circle cx="54.286972" cy="634.640180" r="3.749996" style="fill:rgb(0,127,0);stroke-width:1" /><circle cx="53.411387" cy="629.824385" r="3.749996" style="fill:rgb(0,127,0);stroke-width:1" /><circle cx="52.563585" cy="625.161499" r="3.749996" style="fill:rgb(0,127,0);stroke-width:1" /><circle cx="51.103480" cy="617.130965" r="3.749996" style="fill:rgb(0,127,0);stroke-width:1" /><circle cx="50.275885" cy="612.579212" r="3.749996" style="fill:rgb(0,127,0);stroke-width:1" /><circle cx="49.333602" cy="598.915860" r="3.749996" style="fill:rgb(0,127,0);stroke-width:1" /><circle cx="47.002964" cy="565.121703" r="3.749996" style="fill:rgb(0,127,0);stroke-width:1" /><circle cx="44.595212" cy="530.209355" r="3.749996" style="fill:rgb(0,127,0);stroke-width:1" /><circle cx="43.832436" cy="519.149154" r="3.749996" style="fill:rgb(0,127,0);stroke-width:1" /><circle cx="43.248966" cy="510.688998" r="3.749996" style="fill:rgb(0,127,0);stroke-width:1" /><circle cx="42.106457" cy="494.122356" r="3.749996" style="fill:rgb(0,127,0);stroke-width:1" /><circle cx="41.540734" cy="485.919591" r="3.749996" style="fill:rgb(0,127,0);stroke-width:1" /><circle cx="39.177306" cy="451.649789" r="3.749996" style="fill:rgb(0,127,0);stroke-width:1" /><circle cx="38.877860" cy="447.308030" r="3.749996" style="fill:rgb(0,127,0);stroke-width:1" /><circle cx="36.738709" cy="416.290104" r="3.749996" style="fill:rgb(0,127,0);stroke-width:1" /><circle cx="36.629185" cy="414.702130" r="3.749996" style="fill:rgb(0,127,0);stroke-width:1" /><circle cx="36.585912" cy="414.074815" r="3.749996" style="fill:rgb(0,127,0);stroke-width:1" /><circle cx="33.844560" cy="374.325335" r="3.749996" style="fill:rgb(0,127,0);stroke-width:1" /><circle cx="31.392060" cy="338.763999" r="3.749996" style="fill:rgb(0,127,0);stroke-width:1" /><circle cx="30.943595" cy="332.261397" r="3.749996" style="fill:rgb(0,127,0);stroke-width:1" /><circle cx="30.188888" cy="321.317911" r="3.749996" style="fill:rgb(0,127,0);stroke-width:1" /><circle cx="28.304122" cy="293.989029" r="3.749996" style="fill:rgb(0,127,0);stroke-width:1" /><circle cx="26.388444" cy="266.211748" r="3.749996" style="fill:rgb(0,127,0);stroke-width:1" /><circle cx="26.057772" cy="261.416852" r="3.749996" style="fill:rgb(0,127,0);stroke-width:1" /><circle cx="25.671735" cy="255.819261" r="3.749996" style="fill:rgb(0,127,0);stroke-width:1" /><circle cx="25.482953" cy="253.082190" r="3.749996" style="fill:rgb(0,127,0);stroke-width:1" /><circle cx="24.504840" cy="238.899171" r="3.749996" style="fill:rgb(0,127,0);stroke-width:1" /><circle cx="21.393098" cy="193.779230" r="3.749996" style="fill:rgb(0,127,0);stroke-width:1" /><circle cx="19.766249" cy="170.189872" r="3.749996" style="fill:rgb(0,127,0);stroke-width:1" /><circle cx="17.225057" cy="133.342557" r="3.749996" style="fill:rgb(0,127,0);stroke-width:1" /><circle cx="14.031105" cy="87.030105" r="3.749996" style="fill:rgb(0,127,0);stroke-width:1" /><circle cx="12.980081" cy="71.790352" r="3.749996" style="fill:rgb(0,127,0);stroke-width:1" /><circle cx="12.788504" cy="69.012299" r="3.749996" style="fill:rgb(0,127,0);stroke-width:1" /><circle cx="12.741476" cy="68.330593" r="3.749996" style="fill:rgb(0,127,0);stroke-width:1" /><circle cx="12.648471" cy="66.982135" r="3.749996" style="fill:rgb(0,127,0);stroke-width:1" /><circle cx="12.556829" cy="65.653101" r="3.749996" style="fill:rgb(0,127,0);stroke-width:1" /><circle cx="12.466483" cy="64.343199" r="3.749996" style="fill:rgb(0,127,0);stroke-width:1" /><circle cx="12.377433" cy="63.052073" r="3.749996" style="fill:rgb(0,127,0);stroke-width:1" /><circle cx="10.173239" cy="31.091094" r="3.749996" style="fill:rgb(0,127,0);stroke-width:1" /><circle cx="9.434715" cy="20.382419" r="3.749996" style="fill:rgb(0,127,0);stroke-width:1" /><circle cx="6.360210" cy="9.035893" r="3.749996" style="fill:rgb(0,127,0);stroke-width:1" /><circle cx="3.071040" cy="3.738195" r="3.749996" style="fill:rgb(0,127,0);stroke-width:1" /><circle cx="750.000000" cy="750.000000" r="3.749996" style="fill:rgb(0,127,0);stroke-width:1" /><path stroke-linejoin="round" stroke-linecap="round" stroke="rgb(255,255,255)" stroke-width="3.749996" fill="none" d="M 0.000000 750.000000 L 750.000000 750.000000 M 0.000000 750.000000 L 0.000000 0.000000 " />

</svg>