<svg xmlns="http://www.w3.org/2000/svg" version="1.1" width = "750" height = "750" viewBox = "0 0 750 750"  shape-rendering="crispEdges">
<path stroke-linejoin="round" stroke-linecap="round" stroke="rgb(255,255,0)" stroke-width="3.749996" fill="none" d="M 74.999992 750.000000 L 0.000000 0.000000 " />
<path stroke-linejoin="round" stroke-linecap="round" stroke="rgb(63,63,63)" stroke-width="3.749996" fill="none" d="M 0.000000 0.000000 L 750.000000 750.000000 M 74.999992 750.000000 L 35.526306 0.000000 " />
<path stroke-linejoin="round" stroke-linecap="round" stroke="rgb(191,191,191)" stroke-width="3.749996" fill="none" d="M 0.000000 675.000000 L 74.999992 750.000000 M 0.000000 0.000000 L 39.473690 750.000000 " />
<path stroke-linejoin="round" stroke-linecap="round" stroke="rgb(0,0,255)" stroke-width="1.874998" fill="none" d="M 0.000000 750.000000 L 750.000000 571.428589 " />
<path stroke-linejoin="round" stroke-linecap="round" stroke="rgb(255,0,0)" stroke-width="3.749996" fill="none" d="M 74.071793 732.363831 L 74.999992 750.000000 " />
<path stroke-linejoin="round" stroke-linecap="round" stroke="rgb(0,0,255)" stroke-width="1.874998" fill="none" d="M 0.000000 750.000000 L 750.000000 384.146332 " />
<path stroke-linejoin="round" stroke-linecap="round" stroke="rgb(255,0,0)" stroke-width="3.749996" fill="none" d="M 73.122650 714.330444 L 74.071793 732.363831 " />
<path stroke-linejoin="round" stroke-linecap="round" stroke="rgb(0,0,255)" stroke-width="1.874998" fill="none" d="M 0.000000 750.000000 L 750.000000 187.500000 " />
<path stroke-linejoin="round" stroke-linecap="round" stroke="rgb(255,0,0)" stroke-width="3.749996" fill="none" d="M 72.151917 695.886047 L 73.122673 714.330383 " />
<path stroke-linejoin="round" stroke-linecap="round" stroke="rgb(0,0,255)" stroke-width="1.874998" fill="none" d="M 0.000000 750.000000 L 731.250000 0.000000 " />
<path stroke-linejoin="round" stroke-linecap="round" stroke="rgb(255,0,0)" stroke-width="3.749996" fill="none" d="M 71.158783 677.016663 L 72.151917 695.886047 " />
<path stroke-linejoin="round" stroke-linecap="round" stroke="rgb(0,0,255)" stroke-width="1.874998" fill="none" d="M 0.000000 750.000000 L 600.000000 0.000000 " />
<path stroke-linejoin="round" stroke-linecap="round" stroke="rgb(255,0,0)" stroke-width="3.749996" fill="none" d="M 70.370392 662.037048 L 71.158783 677.016663 " />
<path stroke-linejoin="round" stroke-linecap="round" stroke="rgb(0,0,255)" stroke-width="1.874998" fill="none" d="M 0.000000 750.000000 L 570.000000 0.000000 " />
<path stroke-linejoin="round" stroke-linecap="round" stroke="rgb(255,0,0)" stroke-width="3.749996" fill="none" d="M 70.142494 657.707214 L 70.370392 662.037048 " />
<path stroke-linejoin="round" stroke-linecap="round" stroke="rgb(0,0,255)" stroke-width="1.874998" fill="none" d="M 0.000000 750.000000 L 462.500000 0.000000 " />
<path stroke-linejoin="round" stroke-linecap="round" stroke="rgb(255,0,0)" stroke-width="3.749996" fill="none" d="M 69.102242 637.942322 L 70.142494 657.707214 " />
<path stroke-linejoin="round" stroke-linecap="round" stroke="rgb(0,0,255)" stroke-width="1.874998" fill="none" d="M 0.000000 750.000000 L 385.714294 0.000000 " />
<path stroke-linejoin="round" stroke-linecap="round" stroke="rgb(255,0,0)" stroke-width="3.749996" fill="none" d="M 68.037140 617.705566 L 69.102242 637.942322 " />
<path stroke-linejoin="round" stroke-linecap="round" stroke="rgb(0,0,255)" stroke-width="1.874998" fill="none" d="M 0.000000 750.000000 L 346.875000 0.000000 " />
<path stroke-linejoin="round" stroke-linecap="round" stroke="rgb(255,0,0)" stroke-width="3.749996" fill="none" d="M 67.337173 604.406128 L 68.037163 617.705566 " />
<path stroke-linejoin="round" stroke-linecap="round" stroke="rgb(0,0,255)" stroke-width="1.874998" fill="none" d="M 0.000000 750.000000 L 300.000000 0.000000 " />
<path stroke-linejoin="round" stroke-linecap="round" stroke="rgb(255,0,0)" stroke-width="3.749996" fill="none" d="M 66.279083 584.302307 L 67.337173 604.406128 " />
<path stroke-linejoin="round" stroke-linecap="round" stroke="rgb(0,0,255)" stroke-width="1.874998" fill="none" d="M 0.000000 750.000000 L 262.500000 0.000000 " />
<path stroke-linejoin="round" stroke-linecap="round" stroke="rgb(255,0,0)" stroke-width="3.749996" fill="none" d="M 65.196098 563.725464 L 66.279083 584.302307 " />
<path stroke-linejoin="round" stroke-linecap="round" stroke="rgb(0,0,255)" stroke-width="1.874998" fill="none" d="M 0.000000 750.000000 L 231.818192 0.000000 " />
<path stroke-linejoin="round" stroke-linecap="round" stroke="rgb(255,0,0)" stroke-width="3.749996" fill="none" d="M 64.087318 542.658691 L 65.196098 563.725464 " />
<path stroke-linejoin="round" stroke-linecap="round" stroke="rgb(0,0,255)" stroke-width="1.874998" fill="none" d="M 0.000000 750.000000 L 218.750000 0.000000 " />
<path stroke-linejoin="round" stroke-linecap="round" stroke="rgb(255,0,0)" stroke-width="3.749996" fill="none" d="M 63.535049 532.165527 L 64.087318 542.658691 " />
<path stroke-linejoin="round" stroke-linecap="round" stroke="rgb(0,0,255)" stroke-width="1.874998" fill="none" d="M 0.000000 750.000000 L 196.153839 0.000000 " />
<path stroke-linejoin="round" stroke-linecap="round" stroke="rgb(255,0,0)" stroke-width="3.749996" fill="none" d="M 62.435589 511.275696 L 63.535049 532.165527 " />
<path stroke-linejoin="round" stroke-linecap="round" stroke="rgb(0,0,255)" stroke-width="1.874998" fill="none" d="M 0.000000 750.000000 L 176.785736 0.000000 " />
<path stroke-linejoin="round" stroke-linecap="round" stroke="rgb(255,0,0)" stroke-width="3.749996" fill="none" d="M 61.310314 489.895630 L 62.435589 511.275696 " />
<path stroke-linejoin="round" stroke-linecap="round" stroke="rgb(0,0,255)" stroke-width="1.874998" fill="none" d="M 0.000000 750.000000 L 170.000015 0.000000 " />
<path stroke-linejoin="round" stroke-linecap="round" stroke="rgb(255,0,0)" stroke-width="3.749996" fill="none" d="M 60.866856 481.469788 L 61.310314 489.895630 " />
<path stroke-linejoin="round" stroke-linecap="round" stroke="rgb(0,0,255)" stroke-width="1.874998" fill="none" d="M 0.000000 750.000000 L 166.071426 0.000000 " />
<path stroke-linejoin="round" stroke-linecap="round" stroke="rgb(255,0,0)" stroke-width="3.749996" fill="none" d="M 60.596733 476.337402 L 60.866856 481.469788 " />
<path stroke-linejoin="round" stroke-linecap="round" stroke="rgb(0,0,255)" stroke-width="1.874998" fill="none" d="M 0.000000 750.000000 L 149.999985 0.000000 " />
<path stroke-linejoin="round" stroke-linecap="round" stroke="rgb(255,0,0)" stroke-width="3.749996" fill="none" d="M 59.375011 453.124939 L 60.596733 476.337402 " />
<path stroke-linejoin="round" stroke-linecap="round" stroke="rgb(0,0,255)" stroke-width="1.874998" fill="none" d="M 0.000000 750.000000 L 135.937485 0.000000 " />
<path stroke-linejoin="round" stroke-linecap="round" stroke="rgb(255,0,0)" stroke-width="3.749996" fill="none" d="M 58.122375 429.324829 L 59.375011 453.124939 " />
<path stroke-linejoin="round" stroke-linecap="round" stroke="rgb(0,0,255)" stroke-width="1.874998" fill="none" d="M 0.000000 750.000000 L 123.529404 0.000000 " />
<path stroke-linejoin="round" stroke-linecap="round" stroke="rgb(255,0,0)" stroke-width="3.749996" fill="none" d="M 56.837620 404.914459 L 58.122375 429.324829 " />
<path stroke-linejoin="round" stroke-linecap="round" stroke="rgb(0,0,255)" stroke-width="1.874998" fill="none" d="M 0.000000 750.000000 L 120.833336 0.000000 " />
<path stroke-linejoin="round" stroke-linecap="round" stroke="rgb(255,0,0)" stroke-width="3.749996" fill="none" d="M 56.532158 399.110748 L 56.837620 404.914459 " />
<path stroke-linejoin="round" stroke-linecap="round" stroke="rgb(0,0,255)" stroke-width="1.874998" fill="none" d="M 0.000000 750.000000 L 110.526321 0.000000 " />
<path stroke-linejoin="round" stroke-linecap="round" stroke="rgb(255,0,0)" stroke-width="3.749996" fill="none" d="M 55.263161 374.999939 L 56.532158 399.110748 " />
<path stroke-linejoin="round" stroke-linecap="round" stroke="rgb(0,0,255)" stroke-width="1.874998" fill="none" d="M 0.000000 750.000000 L 108.749985 0.000000 " />
<path stroke-linejoin="round" stroke-linecap="round" stroke="rgb(255,0,0)" stroke-width="3.749996" fill="none" d="M 55.026634 370.505920 L 55.263161 374.999939 " />
<path stroke-linejoin="round" stroke-linecap="round" stroke="rgb(0,0,255)" stroke-width="1.874998" fill="none" d="M 0.000000 750.000000 L 101.249992 0.000000 " />
<path stroke-linejoin="round" stroke-linecap="round" stroke="rgb(255,0,0)" stroke-width="3.749996" fill="none" d="M 53.962135 350.280457 L 55.026634 370.505920 " />
<path stroke-linejoin="round" stroke-linecap="round" stroke="rgb(0,0,255)" stroke-width="1.874998" fill="none" d="M 0.000000 750.000000 L 99.999992 0.000000 " />
<path stroke-linejoin="round" stroke-linecap="round" stroke="rgb(255,0,0)" stroke-width="3.749996" fill="none" d="M 53.773598 346.697998 L 53.962135 350.280457 " />
<path stroke-linejoin="round" stroke-linecap="round" stroke="rgb(0,0,255)" stroke-width="1.874998" fill="none" d="M 0.000000 750.000000 L 92.857140 0.000000 " />
<path stroke-linejoin="round" stroke-linecap="round" stroke="rgb(255,0,0)" stroke-width="3.749996" fill="none" d="M 52.627846 324.928894 L 53.773598 346.697998 " />
<path stroke-linejoin="round" stroke-linecap="round" stroke="rgb(0,0,255)" stroke-width="1.874998" fill="none" d="M 0.000000 750.000000 L 92.045456 0.000000 " />
<path stroke-linejoin="round" stroke-linecap="round" stroke="rgb(255,0,0)" stroke-width="3.749996" fill="none" d="M 52.489780 322.305450 L 52.627846 324.928894 " />
<path stroke-linejoin="round" stroke-linecap="round" stroke="rgb(0,0,255)" stroke-width="1.874998" fill="none" d="M 0.000000 750.000000 L 84.782616 0.000000 " />
<path stroke-linejoin="round" stroke-linecap="round" stroke="rgb(255,0,0)" stroke-width="3.749996" fill="none" d="M 51.174046 297.306519 L 52.489780 322.305450 " />
<path stroke-linejoin="round" stroke-linecap="round" stroke="rgb(0,0,255)" stroke-width="1.874998" fill="none" d="M 0.000000 750.000000 L 83.737854 0.000000 " />
<path stroke-linejoin="round" stroke-linecap="round" stroke="rgb(255,0,0)" stroke-width="3.749996" fill="none" d="M 50.606781 296.739258 L 51.174046 297.306549 " />
<path stroke-linejoin="round" stroke-linecap="round" stroke="rgb(0,0,255)" stroke-width="1.874998" fill="none" d="M 0.000000 750.000000 L 79.710159 0.000000 " />
<path stroke-linejoin="round" stroke-linecap="round" stroke="rgb(255,0,0)" stroke-width="3.749996" fill="none" d="M 48.406475 294.538971 L 50.606781 296.739258 " />
<path stroke-linejoin="round" stroke-linecap="round" stroke="rgb(0,0,255)" stroke-width="1.874998" fill="none" d="M 0.000000 750.000000 L 78.947380 0.000000 " />
<path stroke-linejoin="round" stroke-linecap="round" stroke="rgb(255,0,0)" stroke-width="3.749996" fill="none" d="M 47.987381 294.119965 L 48.406475 294.539032 " />
<path stroke-linejoin="round" stroke-linecap="round" stroke="rgb(0,0,255)" stroke-width="1.874998" fill="none" d="M 0.000000 750.000000 L 78.199043 0.000000 " />
<path stroke-linejoin="round" stroke-linecap="round" stroke="rgb(255,0,0)" stroke-width="3.749996" fill="none" d="M 47.575459 293.708069 L 47.987381 294.119965 " />
<path stroke-linejoin="round" stroke-linecap="round" stroke="rgb(0,0,255)" stroke-width="1.874998" fill="none" d="M 0.000000 750.000000 L 74.292450 0.000000 " />
<path stroke-linejoin="round" stroke-linecap="round" stroke="rgb(255,0,0)" stroke-width="3.749996" fill="none" d="M 45.412949 291.545563 L 47.575459 293.708099 " />
<path stroke-linejoin="round" stroke-linecap="round" stroke="rgb(0,0,255)" stroke-width="1.874998" fill="none" d="M 0.000000 750.000000 L 70.422539 0.000000 " />
<path stroke-linejoin="round" stroke-linecap="round" stroke="rgb(255,0,0)" stroke-width="3.749996" fill="none" d="M 43.250420 289.383057 L 45.412949 291.545563 " />
<path stroke-linejoin="round" stroke-linecap="round" stroke="rgb(0,0,255)" stroke-width="1.874998" fill="none" d="M 0.000000 750.000000 L 69.767433 0.000000 " />
<path stroke-linejoin="round" stroke-linecap="round" stroke="rgb(255,0,0)" stroke-width="3.749996" fill="none" d="M 42.882332 289.014954 L 43.250420 289.383057 " />
<path stroke-linejoin="round" stroke-linecap="round" stroke="rgb(0,0,255)" stroke-width="1.874998" fill="none" d="M 0.000000 750.000000 L 65.972237 0.000000 " />
<path stroke-linejoin="round" stroke-linecap="round" stroke="rgb(255,0,0)" stroke-width="3.749996" fill="none" d="M 40.738216 286.870880 L 42.882332 289.014954 " />
<path stroke-linejoin="round" stroke-linecap="round" stroke="rgb(0,0,255)" stroke-width="1.874998" fill="none" d="M 0.000000 750.000000 L 65.366974 0.000000 " />
<path stroke-linejoin="round" stroke-linecap="round" stroke="rgb(255,0,0)" stroke-width="3.749996" fill="none" d="M 40.394424 286.527039 L 40.738216 286.870880 " />
<path stroke-linejoin="round" stroke-linecap="round" stroke="rgb(0,0,255)" stroke-width="1.874998" fill="none" d="M 0.000000 750.000000 L 61.643826 0.000000 " />
<path stroke-linejoin="round" stroke-linecap="round" stroke="rgb(255,0,0)" stroke-width="3.749996" fill="none" d="M 38.268394 284.401062 L 40.394424 286.527039 " />
<path stroke-linejoin="round" stroke-linecap="round" stroke="rgb(0,0,255)" stroke-width="1.874998" fill="none" d="M 0.000000 750.000000 L 57.954536 0.000000 " />
<path stroke-linejoin="round" stroke-linecap="round" stroke="rgb(255,0,0)" stroke-width="3.749996" fill="none" d="M 36.142387 282.275024 L 38.268394 284.401062 " />
<path stroke-linejoin="round" stroke-linecap="round" stroke="rgb(0,0,255)" stroke-width="1.874998" fill="none" d="M 0.000000 750.000000 L 54.298637 0.000000 " />
<path stroke-linejoin="round" stroke-linecap="round" stroke="rgb(255,0,0)" stroke-width="3.749996" fill="none" d="M 34.016357 280.148987 L 36.142387 282.275024 " />
<path stroke-linejoin="round" stroke-linecap="round" stroke="rgb(0,0,255)" stroke-width="1.874998" fill="none" d="M 0.000000 750.000000 L 53.811661 0.000000 " />
<path stroke-linejoin="round" stroke-linecap="round" stroke="rgb(255,0,0)" stroke-width="3.749996" fill="none" d="M 33.731705 279.864380 L 34.016357 280.148987 " />
<path stroke-linejoin="round" stroke-linecap="round" stroke="rgb(0,0,255)" stroke-width="1.874998" fill="none" d="M 0.000000 750.000000 L 50.223202 0.000000 " />
<path stroke-linejoin="round" stroke-linecap="round" stroke="rgb(255,0,0)" stroke-width="3.749996" fill="none" d="M 31.623468 277.756104 L 33.731705 279.864380 " />
<path stroke-linejoin="round" stroke-linecap="round" stroke="rgb(0,0,255)" stroke-width="1.874998" fill="none" d="M 0.000000 750.000000 L 46.666660 0.000000 " />
<path stroke-linejoin="round" stroke-linecap="round" stroke="rgb(255,0,0)" stroke-width="3.749996" fill="none" d="M 29.515251 275.647888 L 31.623468 277.756104 " />
<path stroke-linejoin="round" stroke-linecap="round" stroke="rgb(0,0,255)" stroke-width="1.874998" fill="none" d="M 0.000000 750.000000 L 43.141590 0.000000 " />
<path stroke-linejoin="round" stroke-linecap="round" stroke="rgb(255,0,0)" stroke-width="3.749996" fill="none" d="M 27.407013 273.539673 L 29.515251 275.647888 " />
<path stroke-linejoin="round" stroke-linecap="round" stroke="rgb(0,0,255)" stroke-width="1.874998" fill="none" d="M 0.000000 750.000000 L 39.647587 0.000000 " />
<path stroke-linejoin="round" stroke-linecap="round" stroke="rgb(255,0,0)" stroke-width="3.749996" fill="none" d="M 25.298775 271.431396 L 27.407013 273.539673 " />
<path stroke-linejoin="round" stroke-linecap="round" stroke="rgb(0,0,255)" stroke-width="1.874998" fill="none" d="M 0.000000 750.000000 L 39.301315 0.000000 " />
<path stroke-linejoin="round" stroke-linecap="round" stroke="rgb(255,0,0)" stroke-width="3.749996" fill="none" d="M 25.088825 271.221497 L 25.298775 271.431396 " />
<path stroke-linejoin="round" stroke-linecap="round" stroke="rgb(0,0,255)" stroke-width="1.874998" fill="none" d="M 0.000000 750.000000 L 35.869560 0.000000 " />
<path stroke-linejoin="round" stroke-linecap="round" stroke="rgb(255,0,0)" stroke-width="3.749996" fill="none" d="M 22.998087 269.130737 L 25.088825 271.221497 " />
<path stroke-linejoin="round" stroke-linecap="round" stroke="rgb(0,0,255)" stroke-width="1.874998" fill="none" d="M 0.000000 750.000000 L 32.467537 0.000000 " />
<path stroke-linejoin="round" stroke-linecap="round" stroke="rgb(255,0,0)" stroke-width="3.749996" fill="none" d="M 20.907351 267.040009 L 22.998087 269.130737 " />
<path stroke-linejoin="round" stroke-linecap="round" stroke="rgb(0,0,255)" stroke-width="1.874998" fill="none" d="M 0.000000 750.000000 L 29.094814 0.000000 " />
<path stroke-linejoin="round" stroke-linecap="round" stroke="rgb(255,0,0)" stroke-width="3.749996" fill="none" d="M 18.816635 264.949249 L 20.907351 267.040009 " />
<path stroke-linejoin="round" stroke-linecap="round" stroke="rgb(0,0,255)" stroke-width="1.874998" fill="none" d="M 0.000000 750.000000 L 25.751083 0.000000 " />
<path stroke-linejoin="round" stroke-linecap="round" stroke="rgb(255,0,0)" stroke-width="3.749996" fill="none" d="M 16.725899 262.858521 L 18.816635 264.949249 " />
<path stroke-linejoin="round" stroke-linecap="round" stroke="rgb(0,0,255)" stroke-width="1.874998" fill="none" d="M 0.000000 750.000000 L 22.435896 0.000000 " />
<path stroke-linejoin="round" stroke-linecap="round" stroke="rgb(255,0,0)" stroke-width="3.749996" fill="none" d="M 14.635160 260.767761 L 16.725899 262.858521 " />
<path stroke-linejoin="round" stroke-linecap="round" stroke="rgb(0,0,255)" stroke-width="1.874998" fill="none" d="M 0.000000 750.000000 L 19.148939 0.000000 " />
<path stroke-linejoin="round" stroke-linecap="round" stroke="rgb(255,0,0)" stroke-width="3.749996" fill="none" d="M 12.893982 244.985687 L 14.635160 260.767761 " />
<path stroke-linejoin="round" stroke-linecap="round" stroke="rgb(0,0,255)" stroke-width="1.874998" fill="none" d="M 0.000000 750.000000 L 18.987335 0.000000 " />
<path stroke-linejoin="round" stroke-linecap="round" stroke="rgb(255,0,0)" stroke-width="3.749996" fill="none" d="M 12.820512 243.589752 L 12.893982 244.985687 " />
<path stroke-linejoin="round" stroke-linecap="round" stroke="rgb(0,0,255)" stroke-width="1.874998" fill="none" d="M 0.000000 750.000000 L 15.756302 0.000000 " />
<path stroke-linejoin="round" stroke-linecap="round" stroke="rgb(255,0,0)" stroke-width="3.749996" fill="none" d="M 11.261254 213.963989 L 12.820512 243.589752 " />
<path stroke-linejoin="round" stroke-linecap="round" stroke="rgb(0,0,255)" stroke-width="1.874998" fill="none" d="M 0.000000 750.000000 L 12.552291 0.000000 " />
<path stroke-linejoin="round" stroke-linecap="round" stroke="rgb(255,0,0)" stroke-width="3.749996" fill="none" d="M 9.523809 180.952332 L 11.261254 213.963989 " />
<path stroke-linejoin="round" stroke-linecap="round" stroke="rgb(0,0,255)" stroke-width="1.874998" fill="none" d="M 0.000000 750.000000 L 12.448132 0.000000 " />
<path stroke-linejoin="round" stroke-linecap="round" stroke="rgb(255,0,0)" stroke-width="3.749996" fill="none" d="M 9.463728 179.810684 L 9.523809 180.952301 " />
<path stroke-linejoin="round" stroke-linecap="round" stroke="rgb(0,0,255)" stroke-width="1.874998" fill="none" d="M 0.000000 750.000000 L 12.345672 0.000000 " />
<path stroke-linejoin="round" stroke-linecap="round" stroke="rgb(255,0,0)" stroke-width="3.749996" fill="none" d="M 9.404384 178.683350 L 9.463728 179.810593 " />
<path stroke-linejoin="round" stroke-linecap="round" stroke="rgb(0,0,255)" stroke-width="1.874998" fill="none" d="M 0.000000 750.000000 L 12.244887 0.000000 " />
<path stroke-linejoin="round" stroke-linecap="round" stroke="rgb(255,0,0)" stroke-width="3.749996" fill="none" d="M 9.345799 177.570053 L 9.404384 178.683350 " />
<path stroke-linejoin="round" stroke-linecap="round" stroke="rgb(0,0,255)" stroke-width="1.874998" fill="none" d="M 0.000000 750.000000 L 12.145758 0.000000 " />
<path stroke-linejoin="round" stroke-linecap="round" stroke="rgb(255,0,0)" stroke-width="3.749996" fill="none" d="M 9.287931 176.470642 L 9.345799 177.570145 " />
<path stroke-linejoin="round" stroke-linecap="round" stroke="rgb(0,0,255)" stroke-width="1.874998" fill="none" d="M 0.000000 750.000000 L 12.048192 0.000000 " />
<path stroke-linejoin="round" stroke-linecap="round" stroke="rgb(255,0,0)" stroke-width="3.749996" fill="none" d="M 9.230778 175.384689 L 9.287931 176.470642 " />
<path stroke-linejoin="round" stroke-linecap="round" stroke="rgb(0,0,255)" stroke-width="1.874998" fill="none" d="M 0.000000 750.000000 L 11.952191 0.000000 " />
<path stroke-linejoin="round" stroke-linecap="round" stroke="rgb(255,0,0)" stroke-width="3.749996" fill="none" d="M 9.174317 174.311996 L 9.230778 175.384689 " />
<path stroke-linejoin="round" stroke-linecap="round" stroke="rgb(0,0,255)" stroke-width="1.874998" fill="none" d="M 0.000000 750.000000 L 11.857711 0.000000 " />
<path stroke-linejoin="round" stroke-linecap="round" stroke="rgb(255,0,0)" stroke-width="3.749996" fill="none" d="M 9.118549 173.252396 L 9.174317 174.311996 " />
<path stroke-linejoin="round" stroke-linecap="round" stroke="rgb(0,0,255)" stroke-width="1.874998" fill="none" d="M 0.000000 750.000000 L 9.374991 0.000000 " />
<path stroke-linejoin="round" stroke-linecap="round" stroke="rgb(255,0,0)" stroke-width="3.749996" fill="none" d="M 7.575765 143.939499 L 9.118549 173.252396 " />
<path stroke-linejoin="round" stroke-linecap="round" stroke="rgb(0,0,255)" stroke-width="1.874998" fill="none" d="M 0.000000 750.000000 L 9.297520 0.000000 " />
<path stroke-linejoin="round" stroke-linecap="round" stroke="rgb(255,0,0)" stroke-width="3.749996" fill="none" d="M 7.525072 142.976700 L 7.575765 143.939499 " />
<path stroke-linejoin="round" stroke-linecap="round" stroke="rgb(0,0,255)" stroke-width="1.874998" fill="none" d="M 0.000000 750.000000 L 9.072572 0.000000 " />
<path stroke-linejoin="round" stroke-linecap="round" stroke="rgb(255,0,0)" stroke-width="3.749996" fill="none" d="M 7.377058 140.164017 L 7.525072 142.976700 " />
<path stroke-linejoin="round" stroke-linecap="round" stroke="rgb(0,0,255)" stroke-width="1.874998" fill="none" d="M 0.000000 750.000000 L 6.024107 0.000000 " />
<path stroke-linejoin="round" stroke-linecap="round" stroke="rgb(255,0,0)" stroke-width="3.749996" fill="none" d="M 5.226485 99.303177 L 7.377058 140.164017 " />
<path stroke-linejoin="round" stroke-linecap="round" stroke="rgb(0,0,255)" stroke-width="1.874998" fill="none" d="M 0.000000 750.000000 L 3.000006 0.000000 " />
<path stroke-linejoin="round" stroke-linecap="round" stroke="rgb(255,0,0)" stroke-width="3.749996" fill="none" d="M 2.788112 52.973984 L 5.226485 99.303177 " />
<path stroke-linejoin="round" stroke-linecap="round" stroke="rgb(0,0,255)" stroke-width="1.874998" fill="none" d="M 0.000000 750.000000 L 0.000000 0.000000 " />
<path stroke-linejoin="round" stroke-linecap="round" stroke="rgb(255,0,0)" stroke-width="3.749996" fill="none" d="M 0.000000 0.000000 L 2.788112 52.973984 " />
<circle cx="74.071795" cy="732.363850" r="3.749996" style="fill:rgb(0,127,0);stroke-width:1" /><circle cx="73.122650" cy="714.330420" r="3.749996" style="fill:rgb(0,127,0);stroke-width:1" /><circle cx="72.151914" cy="695.886075" r="3.749996" style="fill:rgb(0,127,0);stroke-width:1" /><circle cx="71.158782" cy="677.016623" r="3.749996" style="fill:rgb(0,127,0);stroke-width:1" /><circle cx="70.370391" cy="662.037022" r="3.749996" style="fill:rgb(0,127,0);stroke-width:1" /><circle cx="70.142493" cy="657.707244" r="3.749996" style="fill:rgb(0,127,0);stroke-width:1" /><circle cx="69.102243" cy="637.942314" r="3.749996" style="fill:rgb(0,127,0);stroke-width:1" /><circle cx="68.037137" cy="617.705539" r="3.749996" style="fill:rgb(0,127,0);stroke-width:1" /><circle cx="67.337170" cy="604.406118" r="3.749996" style="fill:rgb(0,127,0);stroke-width:1" /><circle cx="66.279083" cy="584.302291" r="3.749996" style="fill:rgb(0,127,0);stroke-width:1" /><circle cx="65.196097" cy="563.725457" r="3.749996" style="fill:rgb(0,127,0);stroke-width:1" /><circle cx="64.087316" cy="542.658694" r="3.749996" style="fill:rgb(0,127,0);stroke-width:1" /><circle cx="63.535050" cy="532.165557" r="3.749996" style="fill:rgb(0,127,0);stroke-width:1" /><circle cx="62.435590" cy="511.275709" r="3.749996" style="fill:rgb(0,127,0);stroke-width:1" /><circle cx="61.310314" cy="489.895664" r="3.749996" style="fill:rgb(0,127,0);stroke-width:1" /><circle cx="60.866855" cy="481.469806" r="3.749996" style="fill:rgb(0,127,0);stroke-width:1" /><circle cx="60.596734" cy="476.337377" r="3.749996" style="fill:rgb(0,127,0);stroke-width:1" /><circle cx="59.375010" cy="453.124914" r="3.749996" style="fill:rgb(0,127,0);stroke-width:1" /><circle cx="58.122374" cy="429.324819" r="3.749996" style="fill:rgb(0,127,0);stroke-width:1" /><circle cx="56.837618" cy="404.914462" r="3.749996" style="fill:rgb(0,127,0);stroke-width:1" /><circle cx="56.532159" cy="399.110734" r="3.749996" style="fill:rgb(0,127,0);stroke-width:1" /><circle cx="55.263162" cy="374.999928" r="3.749996" style="fill:rgb(0,127,0);stroke-width:1" /><circle cx="55.026636" cy="370.505905" r="3.749996" style="fill:rgb(0,127,0);stroke-width:1" /><circle cx="53.962134" cy="350.280440" r="3.749996" style="fill:rgb(0,127,0);stroke-width:1" /><circle cx="53.773597" cy="346.698009" r="3.749996" style="fill:rgb(0,127,0);stroke-width:1" /><circle cx="52.627847" cy="324.928880" r="3.749996" style="fill:rgb(0,127,0);stroke-width:1" /><circle cx="52.489780" cy="322.305467" r="3.749996" style="fill:rgb(0,127,0);stroke-width:1" /><circle cx="51.174045" cy="297.306525" r="3.749996" style="fill:rgb(0,127,0);stroke-width:1" /><circle cx="50.606780" cy="296.739254" r="3.749996" style="fill:rgb(0,127,0);stroke-width:1" /><circle cx="48.406474" cy="294.538988" r="3.749996" style="fill:rgb(0,127,0);stroke-width:1" /><circle cx="47.987379" cy="294.119954" r="3.749996" style="fill:rgb(0,127,0);stroke-width:1" /><circle cx="47.575459" cy="293.708073" r="3.749996" style="fill:rgb(0,127,0);stroke-width:1" /><circle cx="45.412950" cy="291.545570" r="3.749996" style="fill:rgb(0,127,0);stroke-width:1" /><circle cx="43.250419" cy="289.383067" r="3.749996" style="fill:rgb(0,127,0);stroke-width:1" /><circle cx="42.882331" cy="289.014962" r="3.749996" style="fill:rgb(0,127,0);stroke-width:1" /><circle cx="40.738218" cy="286.870871" r="3.749996" style="fill:rgb(0,127,0);stroke-width:1" /><circle cx="40.394425" cy="286.527051" r="3.749996" style="fill:rgb(0,127,0);stroke-width:1" /><circle cx="38.268395" cy="284.401059" r="3.749996" style="fill:rgb(0,127,0);stroke-width:1" /><circle cx="36.142386" cy="282.275034" r="3.749996" style="fill:rgb(0,127,0);stroke-width:1" /><circle cx="34.016356" cy="280.149009" r="3.749996" style="fill:rgb(0,127,0);stroke-width:1" /><circle cx="33.731706" cy="279.864371" r="3.749996" style="fill:rgb(0,127,0);stroke-width:1" /><circle cx="31.623468" cy="277.756121" r="3.749996" style="fill:rgb(0,127,0);stroke-width:1" /><circle cx="29.515252" cy="275.647905" r="3.749996" style="fill:rgb(0,127,0);stroke-width:1" /><circle cx="27.407013" cy="273.539688" r="3.749996" style="fill:rgb(0,127,0);stroke-width:1" /><circle cx="25.298774" cy="271.431394" r="3.749996" style="fill:rgb(0,127,0);stroke-width:1" /><circle cx="25.088824" cy="271.221511" r="3.749996" style="fill:rgb(0,127,0);stroke-width:1" /><circle cx="22.998087" cy="269.130740" r="3.749996" style="fill:rgb(0,127,0);stroke-width:1" /><circle cx="20.907350" cy="267.040014" r="3.749996" style="fill:rgb(0,127,0);stroke-width:1" /><circle cx="18.816635" cy="264.949255" r="3.749996" style="fill:rgb(0,127,0);stroke-width:1" /><circle cx="16.725898" cy="262.858517" r="3.749996" style="fill:rgb(0,127,0);stroke-width:1" /><circle cx="14.635161" cy="260.767758" r="3.749996" style="fill:rgb(0,127,0);stroke-width:1" /><circle cx="12.893982" cy="244.985674" r="3.749996" style="fill:rgb(0,127,0);stroke-width:1" /><circle cx="12.820512" cy="243.589751" r="3.749996" style="fill:rgb(0,127,0);stroke-width:1" /><circle cx="11.261255" cy="213.963993" r="3.749996" style="fill:rgb(0,127,0);stroke-width:1" /><circle cx="9.523809" cy="180.952325" r="3.749996" style="fill:rgb(0,127,0);stroke-width:1" /><circle cx="9.463727" cy="179.810688" r="3.749996" style="fill:rgb(0,127,0);stroke-width:1" /><circle cx="9.404384" cy="178.683355" r="3.749996" style="fill:rgb(0,127,0);stroke-width:1" /><circle cx="9.345800" cy="177.570060" r="3.749996" style="fill:rgb(0,127,0);stroke-width:1" /><circle cx="9.287931" cy="176.470645" r="3.749996" style="fill:rgb(0,127,0);stroke-width:1" /><circle cx="9.230778" cy="175.384685" r="3.749996" style="fill:rgb(0,127,0);stroke-width:1" /><circle cx="9.174317" cy="174.312003" r="3.749996" style="fill:rgb(0,127,0);stroke-width:1" /><circle cx="9.118550" cy="173.252396" r="3.749996" style="fill:rgb(0,127,0);stroke-width:1" /><circle cx="7.575765" cy="143.939495" r="3.749996" style="fill:rgb(0,127,0);stroke-width:1" /><circle cx="7.525072" cy="142.976694" r="3.749996" style="fill:rgb(0,127,0);stroke-width:1" /><circle cx="7.377058" cy="140.164018" r="3.749996" style="fill:rgb(0,127,0);stroke-width:1" /><circle cx="5.226485" cy="99.303178" r="3.749996" style="fill:rgb(0,127,0);stroke-width:1" /><circle cx="2.788112" cy="52.973986" r="3.749996" style="fill:rgb(0,127,0);stroke-width:1" /><circle cx="750.000000" cy="750.000000" r="3.749996" style="fill:rgb(0,127,0);stroke-width:1" /><path stroke-linejoin="round" stroke-linecap="round" stroke="rgb(255,255,255)" stroke-width="3.749996" fill="none" d="M 0.000000 750.000000 L 750.000000 750.000000 M 0.000000 750.000000 L 0.000000 0.000000 " />

</svg>