<svg xmlns="http://www.w3.org/2000/svg" version="1.1" width = "750" height = "750" viewBox = "0 0 750 750"  shape-rendering="crispEdges">
<path stroke-linejoin="round" stroke-linecap="round" stroke="rgb(255,255,0)" stroke-width="3.749996" fill="none" d="M 74.999992 750.000000 L 0.000000 0.000000 " />
<path stroke-linejoin="round" stroke-linecap="round" stroke="rgb(63,63,63)" stroke-width="3.749996" fill="none" d="M 0.000000 0.000000 L 750.000000 750.000000 M 74.999992 750.000000 L 35.526306 0.000000 " />
<path stroke-linejoin="round" stroke-linecap="round" stroke="rgb(191,191,191)" stroke-width="3.749996" fill="none" d="M 0.000000 675.000000 L 74.999992 750.000000 M 0.000000 0.000000 L 39.473690 750.000000 " />
<path stroke-linejoin="round" stroke-linecap="round" stroke="rgb(0,0,255)" stroke-width="1.874998" fill="none" d="M 0.000000 750.000000 L 750.000000 731.250000 " />
<path stroke-linejoin="round" stroke-linecap="round" stroke="rgb(255,0,0)" stroke-width="3.749996" fill="none" d="M 74.901443 748.127441 L 74.999992 750.000000 " />
<path stroke-linejoin="round" stroke-linecap="round" stroke="rgb(0,0,255)" stroke-width="1.874998" fill="none" d="M 0.000000 750.000000 L 750.000000 711.538452 " />
<path stroke-linejoin="round" stroke-linecap="round" stroke="rgb(255,0,0)" stroke-width="3.749996" fill="none" d="M 74.546837 746.177063 L 74.901443 748.127441 " />
<path stroke-linejoin="round" stroke-linecap="round" stroke="rgb(0,0,255)" stroke-width="1.874998" fill="none" d="M 0.000000 750.000000 L 750.000000 690.789490 " />
<path stroke-linejoin="round" stroke-linecap="round" stroke="rgb(255,0,0)" stroke-width="3.749996" fill="none" d="M 74.177162 744.143921 L 74.546837 746.177063 " />
<path stroke-linejoin="round" stroke-linecap="round" stroke="rgb(0,0,255)" stroke-width="1.874998" fill="none" d="M 0.000000 750.000000 L 750.000000 673.076904 " />
<path stroke-linejoin="round" stroke-linecap="round" stroke="rgb(255,0,0)" stroke-width="3.749996" fill="none" d="M 73.864479 742.424133 L 74.177162 744.143921 " />
<path stroke-linejoin="round" stroke-linecap="round" stroke="rgb(0,0,255)" stroke-width="1.874998" fill="none" d="M 0.000000 750.000000 L 750.000000 668.918945 " />
<path stroke-linejoin="round" stroke-linecap="round" stroke="rgb(255,0,0)" stroke-width="3.749996" fill="none" d="M 73.791458 742.022583 L 73.864479 742.424133 " />
<path stroke-linejoin="round" stroke-linecap="round" stroke="rgb(0,0,255)" stroke-width="1.874998" fill="none" d="M 0.000000 750.000000 L 750.000000 645.833313 " />
<path stroke-linejoin="round" stroke-linecap="round" stroke="rgb(255,0,0)" stroke-width="3.749996" fill="none" d="M 73.388657 739.807129 L 73.791458 742.022583 " />
<path stroke-linejoin="round" stroke-linecap="round" stroke="rgb(0,0,255)" stroke-width="1.874998" fill="none" d="M 0.000000 750.000000 L 750.000000 628.378357 " />
<path stroke-linejoin="round" stroke-linecap="round" stroke="rgb(255,0,0)" stroke-width="3.749996" fill="none" d="M 73.086998 738.148010 L 73.388657 739.807129 " />
<path stroke-linejoin="round" stroke-linecap="round" stroke="rgb(0,0,255)" stroke-width="1.874998" fill="none" d="M 0.000000 750.000000 L 750.000000 604.166687 " />
<path stroke-linejoin="round" stroke-linecap="round" stroke="rgb(255,0,0)" stroke-width="3.749996" fill="none" d="M 72.672668 735.869202 L 73.086998 738.148010 " />
<path stroke-linejoin="round" stroke-linecap="round" stroke="rgb(0,0,255)" stroke-width="1.874998" fill="none" d="M 0.000000 750.000000 L 750.000000 578.571411 " />
<path stroke-linejoin="round" stroke-linecap="round" stroke="rgb(255,0,0)" stroke-width="3.749996" fill="none" d="M 72.239731 733.488037 L 72.672668 735.869202 " />
<path stroke-linejoin="round" stroke-linecap="round" stroke="rgb(0,0,255)" stroke-width="1.874998" fill="none" d="M 0.000000 750.000000 L 750.000000 551.470581 " />
<path stroke-linejoin="round" stroke-linecap="round" stroke="rgb(255,0,0)" stroke-width="3.749996" fill="none" d="M 71.786911 730.997559 L 72.239731 733.488037 " />
<path stroke-linejoin="round" stroke-linecap="round" stroke="rgb(0,0,255)" stroke-width="1.874998" fill="none" d="M 0.000000 750.000000 L 750.000000 522.727295 " />
<path stroke-linejoin="round" stroke-linecap="round" stroke="rgb(255,0,0)" stroke-width="3.749996" fill="none" d="M 71.312828 728.390076 L 71.786911 730.997559 " />
<path stroke-linejoin="round" stroke-linecap="round" stroke="rgb(0,0,255)" stroke-width="1.874998" fill="none" d="M 0.000000 750.000000 L 750.000000 492.187500 " />
<path stroke-linejoin="round" stroke-linecap="round" stroke="rgb(255,0,0)" stroke-width="3.749996" fill="none" d="M 70.815903 725.657043 L 71.312805 728.390076 " />
<path stroke-linejoin="round" stroke-linecap="round" stroke="rgb(0,0,255)" stroke-width="1.874998" fill="none" d="M 0.000000 750.000000 L 750.000000 477.272705 " />
<path stroke-linejoin="round" stroke-linecap="round" stroke="rgb(255,0,0)" stroke-width="3.749996" fill="none" d="M 70.575737 724.336060 L 70.815903 725.657043 " />
<path stroke-linejoin="round" stroke-linecap="round" stroke="rgb(0,0,255)" stroke-width="1.874998" fill="none" d="M 0.000000 750.000000 L 750.000000 445.312500 " />
<path stroke-linejoin="round" stroke-linecap="round" stroke="rgb(255,0,0)" stroke-width="3.749996" fill="none" d="M 70.066544 721.535461 L 70.575737 724.336060 " />
<path stroke-linejoin="round" stroke-linecap="round" stroke="rgb(0,0,255)" stroke-width="1.874998" fill="none" d="M 0.000000 750.000000 L 750.000000 411.290344 " />
<path stroke-linejoin="round" stroke-linecap="round" stroke="rgb(255,0,0)" stroke-width="3.749996" fill="none" d="M 69.532494 718.598206 L 70.066544 721.535461 " />
<path stroke-linejoin="round" stroke-linecap="round" stroke="rgb(0,0,255)" stroke-width="1.874998" fill="none" d="M 0.000000 750.000000 L 750.000000 398.437500 " />
<path stroke-linejoin="round" stroke-linecap="round" stroke="rgb(255,0,0)" stroke-width="3.749996" fill="none" d="M 69.332848 717.500183 L 69.532494 718.598206 " />
<path stroke-linejoin="round" stroke-linecap="round" stroke="rgb(0,0,255)" stroke-width="1.874998" fill="none" d="M 0.000000 750.000000 L 750.000000 362.903229 " />
<path stroke-linejoin="round" stroke-linecap="round" stroke="rgb(255,0,0)" stroke-width="3.749996" fill="none" d="M 68.786812 714.497131 L 69.332848 717.500183 " />
<path stroke-linejoin="round" stroke-linecap="round" stroke="rgb(0,0,255)" stroke-width="1.874998" fill="none" d="M 0.000000 750.000000 L 750.000000 325.000000 " />
<path stroke-linejoin="round" stroke-linecap="round" stroke="rgb(255,0,0)" stroke-width="3.749996" fill="none" d="M 68.213806 711.345520 L 68.786812 714.497131 " />
<path stroke-linejoin="round" stroke-linecap="round" stroke="rgb(0,0,255)" stroke-width="1.874998" fill="none" d="M 0.000000 750.000000 L 750.000000 314.516144 " />
<path stroke-linejoin="round" stroke-linecap="round" stroke="rgb(255,0,0)" stroke-width="3.749996" fill="none" d="M 68.056984 710.483032 L 68.213806 711.345520 " />
<path stroke-linejoin="round" stroke-linecap="round" stroke="rgb(0,0,255)" stroke-width="1.874998" fill="none" d="M 0.000000 750.000000 L 750.000000 275.000000 " />
<path stroke-linejoin="round" stroke-linecap="round" stroke="rgb(255,0,0)" stroke-width="3.749996" fill="none" d="M 67.472351 707.267517 L 68.056984 710.483032 " />
<path stroke-linejoin="round" stroke-linecap="round" stroke="rgb(0,0,255)" stroke-width="1.874998" fill="none" d="M 0.000000 750.000000 L 750.000000 266.129059 " />
<path stroke-linejoin="round" stroke-linecap="round" stroke="rgb(255,0,0)" stroke-width="3.749996" fill="none" d="M 67.342491 706.553223 L 67.472351 707.267517 " />
<path stroke-linejoin="round" stroke-linecap="round" stroke="rgb(0,0,255)" stroke-width="1.874998" fill="none" d="M 0.000000 750.000000 L 750.000000 225.000015 " />
<path stroke-linejoin="round" stroke-linecap="round" stroke="rgb(255,0,0)" stroke-width="3.749996" fill="none" d="M 66.746864 703.277222 L 67.342491 706.553223 " />
<path stroke-linejoin="round" stroke-linecap="round" stroke="rgb(0,0,255)" stroke-width="1.874998" fill="none" d="M 0.000000 750.000000 L 750.000000 217.741959 " />
<path stroke-linejoin="round" stroke-linecap="round" stroke="rgb(255,0,0)" stroke-width="3.749996" fill="none" d="M 66.642838 702.705078 L 66.746864 703.277222 " />
<path stroke-linejoin="round" stroke-linecap="round" stroke="rgb(0,0,255)" stroke-width="1.874998" fill="none" d="M 0.000000 750.000000 L 750.000000 175.000015 " />
<path stroke-linejoin="round" stroke-linecap="round" stroke="rgb(255,0,0)" stroke-width="3.749996" fill="none" d="M 66.036766 699.371765 L 66.642838 702.705078 " />
<path stroke-linejoin="round" stroke-linecap="round" stroke="rgb(0,0,255)" stroke-width="1.874998" fill="none" d="M 0.000000 750.000000 L 750.000000 169.354858 " />
<path stroke-linejoin="round" stroke-linecap="round" stroke="rgb(255,0,0)" stroke-width="3.749996" fill="none" d="M 65.957550 698.936096 L 66.036766 699.371765 " />
<path stroke-linejoin="round" stroke-linecap="round" stroke="rgb(0,0,255)" stroke-width="1.874998" fill="none" d="M 0.000000 750.000000 L 750.000000 129.310318 " />
<path stroke-linejoin="round" stroke-linecap="round" stroke="rgb(255,0,0)" stroke-width="3.749996" fill="none" d="M 65.400993 695.875061 L 65.957550 698.936096 " />
<path stroke-linejoin="round" stroke-linecap="round" stroke="rgb(0,0,255)" stroke-width="1.874998" fill="none" d="M 0.000000 750.000000 L 750.000000 80.357147 " />
<path stroke-linejoin="round" stroke-linecap="round" stroke="rgb(255,0,0)" stroke-width="3.749996" fill="none" d="M 64.733261 692.202393 L 65.400993 695.875061 " />
<path stroke-linejoin="round" stroke-linecap="round" stroke="rgb(0,0,255)" stroke-width="1.874998" fill="none" d="M 0.000000 750.000000 L 750.000000 77.586205 " />
<path stroke-linejoin="round" stroke-linecap="round" stroke="rgb(255,0,0)" stroke-width="3.749996" fill="none" d="M 64.695862 691.996765 L 64.733261 692.202393 " />
<path stroke-linejoin="round" stroke-linecap="round" stroke="rgb(0,0,255)" stroke-width="1.874998" fill="none" d="M 0.000000 750.000000 L 750.000000 26.785702 " />
<path stroke-linejoin="round" stroke-linecap="round" stroke="rgb(255,0,0)" stroke-width="3.749996" fill="none" d="M 64.017960 688.268372 L 64.695862 691.996765 " />
<path stroke-linejoin="round" stroke-linecap="round" stroke="rgb(0,0,255)" stroke-width="1.874998" fill="none" d="M 0.000000 750.000000 L 750.000000 25.862083 " />
<path stroke-linejoin="round" stroke-linecap="round" stroke="rgb(255,0,0)" stroke-width="3.749996" fill="none" d="M 64.005775 688.201294 L 64.017960 688.268372 " />
<path stroke-linejoin="round" stroke-linecap="round" stroke="rgb(0,0,255)" stroke-width="1.874998" fill="none" d="M 0.000000 750.000000 L 750.000000 25.000021 " />
<path stroke-linejoin="round" stroke-linecap="round" stroke="rgb(255,0,0)" stroke-width="3.749996" fill="none" d="M 63.994400 688.138733 L 64.005775 688.201294 " />
<path stroke-linejoin="round" stroke-linecap="round" stroke="rgb(0,0,255)" stroke-width="1.874998" fill="none" d="M 0.000000 750.000000 L 724.137939 0.000000 " />
<path stroke-linejoin="round" stroke-linecap="round" stroke="rgb(255,0,0)" stroke-width="3.749996" fill="none" d="M 63.318329 684.420288 L 63.994400 688.138733 " />
<path stroke-linejoin="round" stroke-linecap="round" stroke="rgb(0,0,255)" stroke-width="1.874998" fill="none" d="M 0.000000 750.000000 L 677.419373 0.000000 " />
<path stroke-linejoin="round" stroke-linecap="round" stroke="rgb(255,0,0)" stroke-width="3.749996" fill="none" d="M 62.633804 680.655396 L 63.318329 684.420288 " />
<path stroke-linejoin="round" stroke-linecap="round" stroke="rgb(0,0,255)" stroke-width="1.874998" fill="none" d="M 0.000000 750.000000 L 675.000000 0.000000 " />
<path stroke-linejoin="round" stroke-linecap="round" stroke="rgb(255,0,0)" stroke-width="3.749996" fill="none" d="M 62.596210 680.448669 L 62.633804 680.655396 " />
<path stroke-linejoin="round" stroke-linecap="round" stroke="rgb(0,0,255)" stroke-width="1.874998" fill="none" d="M 0.000000 750.000000 L 629.032227 0.000000 " />
<path stroke-linejoin="round" stroke-linecap="round" stroke="rgb(255,0,0)" stroke-width="3.749996" fill="none" d="M 61.836742 676.271606 L 62.596210 680.448669 " />
<path stroke-linejoin="round" stroke-linecap="round" stroke="rgb(0,0,255)" stroke-width="1.874998" fill="none" d="M 0.000000 750.000000 L 590.909119 0.000000 " />
<path stroke-linejoin="round" stroke-linecap="round" stroke="rgb(255,0,0)" stroke-width="3.749996" fill="none" d="M 61.134048 672.406799 L 61.836742 676.271606 " />
<path stroke-linejoin="round" stroke-linecap="round" stroke="rgb(0,0,255)" stroke-width="1.874998" fill="none" d="M 0.000000 750.000000 L 557.142883 0.000000 " />
<path stroke-linejoin="round" stroke-linecap="round" stroke="rgb(255,0,0)" stroke-width="3.749996" fill="none" d="M 60.447136 668.628845 L 61.134048 672.406799 " />
<path stroke-linejoin="round" stroke-linecap="round" stroke="rgb(0,0,255)" stroke-width="1.874998" fill="none" d="M 0.000000 750.000000 L 527.027039 0.000000 " />
<path stroke-linejoin="round" stroke-linecap="round" stroke="rgb(255,0,0)" stroke-width="3.749996" fill="none" d="M 59.775509 664.934875 L 60.447136 668.628845 " />
<path stroke-linejoin="round" stroke-linecap="round" stroke="rgb(0,0,255)" stroke-width="1.874998" fill="none" d="M 0.000000 750.000000 L 520.833313 0.000000 " />
<path stroke-linejoin="round" stroke-linecap="round" stroke="rgb(255,0,0)" stroke-width="3.749996" fill="none" d="M 59.629753 664.133118 L 59.775509 664.934875 " />
<path stroke-linejoin="round" stroke-linecap="round" stroke="rgb(0,0,255)" stroke-width="1.874998" fill="none" d="M 0.000000 750.000000 L 486.486511 0.000000 " />
<path stroke-linejoin="round" stroke-linecap="round" stroke="rgb(255,0,0)" stroke-width="3.749996" fill="none" d="M 58.768810 659.398071 L 59.629753 664.133118 " />
<path stroke-linejoin="round" stroke-linecap="round" stroke="rgb(0,0,255)" stroke-width="1.874998" fill="none" d="M 0.000000 750.000000 L 461.538483 0.000000 " />
<path stroke-linejoin="round" stroke-linecap="round" stroke="rgb(255,0,0)" stroke-width="3.749996" fill="none" d="M 58.081470 655.617615 L 58.768810 659.398071 " />
<path stroke-linejoin="round" stroke-linecap="round" stroke="rgb(0,0,255)" stroke-width="1.874998" fill="none" d="M 0.000000 750.000000 L 439.024384 0.000000 " />
<path stroke-linejoin="round" stroke-linecap="round" stroke="rgb(255,0,0)" stroke-width="3.749996" fill="none" d="M 57.410004 651.924561 L 58.081470 655.617615 " />
<path stroke-linejoin="round" stroke-linecap="round" stroke="rgb(0,0,255)" stroke-width="1.874998" fill="none" d="M 0.000000 750.000000 L 418.604675 0.000000 " />
<path stroke-linejoin="round" stroke-linecap="round" stroke="rgb(255,0,0)" stroke-width="3.749996" fill="none" d="M 56.753887 648.315918 L 57.410004 651.924561 " />
<path stroke-linejoin="round" stroke-linecap="round" stroke="rgb(0,0,255)" stroke-width="1.874998" fill="none" d="M 0.000000 750.000000 L 410.714294 0.000000 " />
<path stroke-linejoin="round" stroke-linecap="round" stroke="rgb(255,0,0)" stroke-width="3.749996" fill="none" d="M 56.487232 646.849365 L 56.753887 648.315918 " />
<path stroke-linejoin="round" stroke-linecap="round" stroke="rgb(0,0,255)" stroke-width="1.874998" fill="none" d="M 0.000000 750.000000 L 383.720947 0.000000 " />
<path stroke-linejoin="round" stroke-linecap="round" stroke="rgb(255,0,0)" stroke-width="3.749996" fill="none" d="M 55.513836 641.495728 L 56.487232 646.849365 " />
<path stroke-linejoin="round" stroke-linecap="round" stroke="rgb(0,0,255)" stroke-width="1.874998" fill="none" d="M 0.000000 750.000000 L 357.954529 0.000000 " />
<path stroke-linejoin="round" stroke-linecap="round" stroke="rgb(255,0,0)" stroke-width="3.749996" fill="none" d="M 54.485500 635.839905 L 55.513836 641.495728 " />
<path stroke-linejoin="round" stroke-linecap="round" stroke="rgb(0,0,255)" stroke-width="1.874998" fill="none" d="M 0.000000 750.000000 L 305.555542 0.000000 " />
<path stroke-linejoin="round" stroke-linecap="round" stroke="rgb(255,0,0)" stroke-width="3.749996" fill="none" d="M 53.330830 619.097046 L 54.485500 635.839905 " />
<path stroke-linejoin="round" stroke-linecap="round" stroke="rgb(0,0,255)" stroke-width="1.874998" fill="none" d="M 0.000000 750.000000 L 267.857147 0.000000 " />
<path stroke-linejoin="round" stroke-linecap="round" stroke="rgb(255,0,0)" stroke-width="3.749996" fill="none" d="M 52.265884 603.655518 L 53.330811 619.097046 " />
<path stroke-linejoin="round" stroke-linecap="round" stroke="rgb(0,0,255)" stroke-width="1.874998" fill="none" d="M 0.000000 750.000000 L 223.880615 0.000000 " />
<path stroke-linejoin="round" stroke-linecap="round" stroke="rgb(255,0,0)" stroke-width="3.749996" fill="none" d="M 50.655460 580.304260 L 52.265903 603.655518 " />
<path stroke-linejoin="round" stroke-linecap="round" stroke="rgb(0,0,255)" stroke-width="1.874998" fill="none" d="M 0.000000 750.000000 L 192.567566 0.000000 " />
<path stroke-linejoin="round" stroke-linecap="round" stroke="rgb(255,0,0)" stroke-width="3.749996" fill="none" d="M 49.155369 558.552795 L 50.655460 580.304260 " />
<path stroke-linejoin="round" stroke-linecap="round" stroke="rgb(0,0,255)" stroke-width="1.874998" fill="none" d="M 0.000000 750.000000 L 160.714294 0.000000 " />
<path stroke-linejoin="round" stroke-linecap="round" stroke="rgb(255,0,0)" stroke-width="3.749996" fill="none" d="M 47.175652 529.846985 L 49.155369 558.552795 " />
<path stroke-linejoin="round" stroke-linecap="round" stroke="rgb(0,0,255)" stroke-width="1.874998" fill="none" d="M 0.000000 750.000000 L 151.595734 0.000000 " />
<path stroke-linejoin="round" stroke-linecap="round" stroke="rgb(255,0,0)" stroke-width="3.749996" fill="none" d="M 46.494709 519.973511 L 47.175652 529.846985 " />
<path stroke-linejoin="round" stroke-linecap="round" stroke="rgb(0,0,255)" stroke-width="1.874998" fill="none" d="M 0.000000 750.000000 L 129.807693 0.000000 " />
<path stroke-linejoin="round" stroke-linecap="round" stroke="rgb(255,0,0)" stroke-width="3.749996" fill="none" d="M 44.590675 492.364960 L 46.494709 519.973511 " />
<path stroke-linejoin="round" stroke-linecap="round" stroke="rgb(0,0,255)" stroke-width="1.874998" fill="none" d="M 0.000000 750.000000 L 123.626366 0.000000 " />
<path stroke-linejoin="round" stroke-linecap="round" stroke="rgb(255,0,0)" stroke-width="3.749996" fill="none" d="M 43.964333 483.283020 L 44.590675 492.364960 " />
<path stroke-linejoin="round" stroke-linecap="round" stroke="rgb(0,0,255)" stroke-width="1.874998" fill="none" d="M 0.000000 750.000000 L 118.811890 0.000000 " />
<path stroke-linejoin="round" stroke-linecap="round" stroke="rgb(255,0,0)" stroke-width="3.749996" fill="none" d="M 43.445034 475.753143 L 43.964333 483.283020 " />
<path stroke-linejoin="round" stroke-linecap="round" stroke="rgb(0,0,255)" stroke-width="1.874998" fill="none" d="M 0.000000 750.000000 L 101.351334 0.000000 " />
<path stroke-linejoin="round" stroke-linecap="round" stroke="rgb(255,0,0)" stroke-width="3.749996" fill="none" d="M 41.287666 444.471283 L 43.445034 475.753143 " />
<path stroke-linejoin="round" stroke-linecap="round" stroke="rgb(0,0,255)" stroke-width="1.874998" fill="none" d="M 0.000000 750.000000 L 86.776863 0.000000 " />
<path stroke-linejoin="round" stroke-linecap="round" stroke="rgb(255,0,0)" stroke-width="3.749996" fill="none" d="M 39.070374 412.320404 L 41.287666 444.471283 " />
<path stroke-linejoin="round" stroke-linecap="round" stroke="rgb(0,0,255)" stroke-width="1.874998" fill="none" d="M 0.000000 750.000000 L 85.877853 0.000000 " />
<path stroke-linejoin="round" stroke-linecap="round" stroke="rgb(255,0,0)" stroke-width="3.749996" fill="none" d="M 38.918228 410.114227 L 39.070374 412.320404 " />
<path stroke-linejoin="round" stroke-linecap="round" stroke="rgb(0,0,255)" stroke-width="1.874998" fill="none" d="M 0.000000 750.000000 L 74.468094 0.000000 " />
<path stroke-linejoin="round" stroke-linecap="round" stroke="rgb(255,0,0)" stroke-width="3.749996" fill="none" d="M 36.798836 379.383179 L 38.918228 410.114227 " />
<path stroke-linejoin="round" stroke-linecap="round" stroke="rgb(0,0,255)" stroke-width="1.874998" fill="none" d="M 0.000000 750.000000 L 69.767433 0.000000 " />
<path stroke-linejoin="round" stroke-linecap="round" stroke="rgb(255,0,0)" stroke-width="3.749996" fill="none" d="M 35.809906 365.043610 L 36.798836 379.383179 " />
<path stroke-linejoin="round" stroke-linecap="round" stroke="rgb(0,0,255)" stroke-width="1.874998" fill="none" d="M 0.000000 750.000000 L 59.352524 0.000000 " />
<path stroke-linejoin="round" stroke-linecap="round" stroke="rgb(255,0,0)" stroke-width="3.749996" fill="none" d="M 33.320591 328.948761 L 35.809906 365.043610 " />
<path stroke-linejoin="round" stroke-linecap="round" stroke="rgb(0,0,255)" stroke-width="1.874998" fill="none" d="M 0.000000 750.000000 L 50.335564 0.000000 " />
<path stroke-linejoin="round" stroke-linecap="round" stroke="rgb(255,0,0)" stroke-width="3.749996" fill="none" d="M 30.755102 291.749023 L 33.320591 328.948761 " />
<path stroke-linejoin="round" stroke-linecap="round" stroke="rgb(0,0,255)" stroke-width="1.874998" fill="none" d="M 0.000000 750.000000 L 42.452843 0.000000 " />
<path stroke-linejoin="round" stroke-linecap="round" stroke="rgb(255,0,0)" stroke-width="3.749996" fill="none" d="M 28.109840 253.392761 L 30.755102 291.749023 " />
<path stroke-linejoin="round" stroke-linecap="round" stroke="rgb(0,0,255)" stroke-width="1.874998" fill="none" d="M 0.000000 750.000000 L 35.502972 0.000000 " />
<path stroke-linejoin="round" stroke-linecap="round" stroke="rgb(255,0,0)" stroke-width="3.749996" fill="none" d="M 25.381050 213.825302 L 28.109840 253.392761 " />
<path stroke-linejoin="round" stroke-linecap="round" stroke="rgb(0,0,255)" stroke-width="1.874998" fill="none" d="M 0.000000 750.000000 L 31.746023 0.000000 " />
<path stroke-linejoin="round" stroke-linecap="round" stroke="rgb(255,0,0)" stroke-width="3.749996" fill="none" d="M 23.716719 189.692490 L 25.381050 213.825302 " />
<path stroke-linejoin="round" stroke-linecap="round" stroke="rgb(0,0,255)" stroke-width="1.874998" fill="none" d="M 0.000000 750.000000 L 30.346827 0.000000 " />
<path stroke-linejoin="round" stroke-linecap="round" stroke="rgb(255,0,0)" stroke-width="3.749996" fill="none" d="M 23.057922 180.139908 L 23.716719 189.692490 " />
<path stroke-linejoin="round" stroke-linecap="round" stroke="rgb(0,0,255)" stroke-width="1.874998" fill="none" d="M 0.000000 750.000000 L 24.590157 0.000000 " />
<path stroke-linejoin="round" stroke-linecap="round" stroke="rgb(255,0,0)" stroke-width="3.749996" fill="none" d="M 20.093323 137.153442 L 23.057922 180.139908 " />
<path stroke-linejoin="round" stroke-linecap="round" stroke="rgb(0,0,255)" stroke-width="1.874998" fill="none" d="M 0.000000 750.000000 L 19.430056 0.000000 " />
<path stroke-linejoin="round" stroke-linecap="round" stroke="rgb(255,0,0)" stroke-width="3.749996" fill="none" d="M 17.028250 92.709724 L 20.093323 137.153442 " />
<path stroke-linejoin="round" stroke-linecap="round" stroke="rgb(0,0,255)" stroke-width="1.874998" fill="none" d="M 0.000000 750.000000 L 17.605640 0.000000 " />
<path stroke-linejoin="round" stroke-linecap="round" stroke="rgb(255,0,0)" stroke-width="3.749996" fill="none" d="M 15.835382 75.413055 L 17.028250 92.709724 " />
<path stroke-linejoin="round" stroke-linecap="round" stroke="rgb(0,0,255)" stroke-width="1.874998" fill="none" d="M 0.000000 750.000000 L 13.452909 0.000000 " />
<path stroke-linejoin="round" stroke-linecap="round" stroke="rgb(255,0,0)" stroke-width="3.749996" fill="none" d="M 12.871183 32.432064 L 15.835382 75.412987 " />
<path stroke-linejoin="round" stroke-linecap="round" stroke="rgb(0,0,255)" stroke-width="1.874998" fill="none" d="M 0.000000 750.000000 L 12.345672 0.000000 " />
<path stroke-linejoin="round" stroke-linecap="round" stroke="rgb(255,0,0)" stroke-width="3.749996" fill="none" d="M 12.015939 20.031319 L 12.871183 32.432064 " />
<path stroke-linejoin="round" stroke-linecap="round" stroke="rgb(0,0,255)" stroke-width="1.874998" fill="none" d="M 0.000000 750.000000 L 8.893289 0.000000 " />
<path stroke-linejoin="round" stroke-linecap="round" stroke="rgb(255,0,0)" stroke-width="3.749996" fill="none" d="M 8.766085 10.727115 L 12.015939 20.031319 " />
<path stroke-linejoin="round" stroke-linecap="round" stroke="rgb(0,0,255)" stroke-width="1.874998" fill="none" d="M 0.000000 750.000000 L 5.703427 0.000000 " />
<path stroke-linejoin="round" stroke-linecap="round" stroke="rgb(255,0,0)" stroke-width="3.749996" fill="none" d="M 5.656690 6.145187 L 8.766085 10.727182 " />
<path stroke-linejoin="round" stroke-linecap="round" stroke="rgb(0,0,255)" stroke-width="1.874998" fill="none" d="M 0.000000 750.000000 L 2.747252 0.000000 " />
<path stroke-linejoin="round" stroke-linecap="round" stroke="rgb(255,0,0)" stroke-width="3.749996" fill="none" d="M 2.736792 2.858877 L 5.656690 6.145187 " />
<path stroke-linejoin="round" stroke-linecap="round" stroke="rgb(0,0,255)" stroke-width="1.874998" fill="none" d="M 0.000000 750.000000 L 0.000000 0.000000 " />
<path stroke-linejoin="round" stroke-linecap="round" stroke="rgb(255,0,0)" stroke-width="3.749996" fill="none" d="M 0.000000 0.000000 L 2.736770 2.858944 " />
<circle cx="74.901447" cy="748.127460" r="3.749996" style="fill:rgb(0,127,0);stroke-width:1" /><circle cx="74.546836" cy="746.177092" r="3.749996" style="fill:rgb(0,127,0);stroke-width:1" /><circle cx="74.177161" cy="744.143911" r="3.749996" style="fill:rgb(0,127,0);stroke-width:1" /><circle cx="73.864482" cy="742.424145" r="3.749996" style="fill:rgb(0,127,0);stroke-width:1" /><circle cx="73.791459" cy="742.022552" r="3.749996" style="fill:rgb(0,127,0);stroke-width:1" /><circle cx="73.388658" cy="739.807136" r="3.749996" style="fill:rgb(0,127,0);stroke-width:1" /><circle cx="73.086999" cy="738.148056" r="3.749996" style="fill:rgb(0,127,0);stroke-width:1" /><circle cx="72.672665" cy="735.869206" r="3.749996" style="fill:rgb(0,127,0);stroke-width:1" /><circle cx="72.239734" cy="733.488053" r="3.749996" style="fill:rgb(0,127,0);stroke-width:1" /><circle cx="71.786910" cy="730.997577" r="3.749996" style="fill:rgb(0,127,0);stroke-width:1" /><circle cx="71.312830" cy="728.390045" r="3.749996" style="fill:rgb(0,127,0);stroke-width:1" /><circle cx="70.815906" cy="725.657031" r="3.749996" style="fill:rgb(0,127,0);stroke-width:1" /><circle cx="70.575736" cy="724.336088" r="3.749996" style="fill:rgb(0,127,0);stroke-width:1" /><circle cx="70.066541" cy="721.535459" r="3.749996" style="fill:rgb(0,127,0);stroke-width:1" /><circle cx="69.532491" cy="718.598239" r="3.749996" style="fill:rgb(0,127,0);stroke-width:1" /><circle cx="69.332846" cy="717.500232" r="3.749996" style="fill:rgb(0,127,0);stroke-width:1" /><circle cx="68.786815" cy="714.497119" r="3.749996" style="fill:rgb(0,127,0);stroke-width:1" /><circle cx="68.213806" cy="711.345501" r="3.749996" style="fill:rgb(0,127,0);stroke-width:1" /><circle cx="68.056986" cy="710.483037" r="3.749996" style="fill:rgb(0,127,0);stroke-width:1" /><circle cx="67.472354" cy="707.267515" r="3.749996" style="fill:rgb(0,127,0);stroke-width:1" /><circle cx="67.342490" cy="706.553243" r="3.749996" style="fill:rgb(0,127,0);stroke-width:1" /><circle cx="66.746861" cy="703.277215" r="3.749996" style="fill:rgb(0,127,0);stroke-width:1" /><circle cx="66.642836" cy="702.705078" r="3.749996" style="fill:rgb(0,127,0);stroke-width:1" /><circle cx="66.036768" cy="699.371807" r="3.749996" style="fill:rgb(0,127,0);stroke-width:1" /><circle cx="65.957554" cy="698.936082" r="3.749996" style="fill:rgb(0,127,0);stroke-width:1" /><circle cx="65.400995" cy="695.875034" r="3.749996" style="fill:rgb(0,127,0);stroke-width:1" /><circle cx="64.733259" cy="692.202441" r="3.749996" style="fill:rgb(0,127,0);stroke-width:1" /><circle cx="64.695865" cy="691.996805" r="3.749996" style="fill:rgb(0,127,0);stroke-width:1" /><circle cx="64.017959" cy="688.268378" r="3.749996" style="fill:rgb(0,127,0);stroke-width:1" /><circle cx="64.005777" cy="688.201323" r="3.749996" style="fill:rgb(0,127,0);stroke-width:1" /><circle cx="63.994400" cy="688.138738" r="3.749996" style="fill:rgb(0,127,0);stroke-width:1" /><circle cx="63.318327" cy="684.420303" r="3.749996" style="fill:rgb(0,127,0);stroke-width:1" /><circle cx="62.633805" cy="680.655442" r="3.749996" style="fill:rgb(0,127,0);stroke-width:1" /><circle cx="62.596209" cy="680.448666" r="3.749996" style="fill:rgb(0,127,0);stroke-width:1" /><circle cx="61.836742" cy="676.271595" r="3.749996" style="fill:rgb(0,127,0);stroke-width:1" /><circle cx="61.134048" cy="672.406800" r="3.749996" style="fill:rgb(0,127,0);stroke-width:1" /><circle cx="60.447134" cy="668.628842" r="3.749996" style="fill:rgb(0,127,0);stroke-width:1" /><circle cx="59.775509" cy="664.934859" r="3.749996" style="fill:rgb(0,127,0);stroke-width:1" /><circle cx="59.629753" cy="664.133146" r="3.749996" style="fill:rgb(0,127,0);stroke-width:1" /><circle cx="58.768809" cy="659.398064" r="3.749996" style="fill:rgb(0,127,0);stroke-width:1" /><circle cx="58.081470" cy="655.617625" r="3.749996" style="fill:rgb(0,127,0);stroke-width:1" /><circle cx="57.410002" cy="651.924580" r="3.749996" style="fill:rgb(0,127,0);stroke-width:1" /><circle cx="56.753889" cy="648.315959" r="3.749996" style="fill:rgb(0,127,0);stroke-width:1" /><circle cx="56.487232" cy="646.849394" r="3.749996" style="fill:rgb(0,127,0);stroke-width:1" /><circle cx="55.513836" cy="641.495682" r="3.749996" style="fill:rgb(0,127,0);stroke-width:1" /><circle cx="54.485500" cy="635.839887" r="3.749996" style="fill:rgb(0,127,0);stroke-width:1" /><circle cx="53.330831" cy="619.097069" r="3.749996" style="fill:rgb(0,127,0);stroke-width:1" /><circle cx="52.265882" cy="603.655502" r="3.749996" style="fill:rgb(0,127,0);stroke-width:1" /><circle cx="50.655462" cy="580.304213" r="3.749996" style="fill:rgb(0,127,0);stroke-width:1" /><circle cx="49.155369" cy="558.552805" r="3.749996" style="fill:rgb(0,127,0);stroke-width:1" /><circle cx="47.175653" cy="529.846989" r="3.749996" style="fill:rgb(0,127,0);stroke-width:1" /><circle cx="46.494707" cy="519.973509" r="3.749996" style="fill:rgb(0,127,0);stroke-width:1" /><circle cx="44.590674" cy="492.364973" r="3.749996" style="fill:rgb(0,127,0);stroke-width:1" /><circle cx="43.964334" cy="483.283013" r="3.749996" style="fill:rgb(0,127,0);stroke-width:1" /><circle cx="43.445036" cy="475.753181" r="3.749996" style="fill:rgb(0,127,0);stroke-width:1" /><circle cx="41.287668" cy="444.471253" r="3.749996" style="fill:rgb(0,127,0);stroke-width:1" /><circle cx="39.070375" cy="412.320399" r="3.749996" style="fill:rgb(0,127,0);stroke-width:1" /><circle cx="38.918227" cy="410.114229" r="3.749996" style="fill:rgb(0,127,0);stroke-width:1" /><circle cx="36.798835" cy="379.383159" r="3.749996" style="fill:rgb(0,127,0);stroke-width:1" /><circle cx="35.809904" cy="365.043605" r="3.749996" style="fill:rgb(0,127,0);stroke-width:1" /><circle cx="33.320591" cy="328.948759" r="3.749996" style="fill:rgb(0,127,0);stroke-width:1" /><circle cx="30.755103" cy="291.749027" r="3.749996" style="fill:rgb(0,127,0);stroke-width:1" /><circle cx="28.109841" cy="253.392756" r="3.749996" style="fill:rgb(0,127,0);stroke-width:1" /><circle cx="25.381051" cy="213.825312" r="3.749996" style="fill:rgb(0,127,0);stroke-width:1" /><circle cx="23.716718" cy="189.692460" r="3.749996" style="fill:rgb(0,127,0);stroke-width:1" /><circle cx="23.057923" cy="180.139907" r="3.749996" style="fill:rgb(0,127,0);stroke-width:1" /><circle cx="20.093322" cy="137.153439" r="3.749996" style="fill:rgb(0,127,0);stroke-width:1" /><circle cx="17.028250" cy="92.709728" r="3.749996" style="fill:rgb(0,127,0);stroke-width:1" /><circle cx="15.835382" cy="75.413056" r="3.749996" style="fill:rgb(0,127,0);stroke-width:1" /><circle cx="12.871183" cy="32.432064" r="3.749996" style="fill:rgb(0,127,0);stroke-width:1" /><circle cx="12.015939" cy="20.031318" r="3.749996" style="fill:rgb(0,127,0);stroke-width:1" /><circle cx="8.766085" cy="10.727115" r="3.749996" style="fill:rgb(0,127,0);stroke-width:1" /><circle cx="5.656689" cy="6.145187" r="3.749996" style="fill:rgb(0,127,0);stroke-width:1" /><circle cx="2.736792" cy="2.858877" r="3.749996" style="fill:rgb(0,127,0);stroke-width:1" /><circle cx="750.000000" cy="750.000000" r="3.749996" style="fill:rgb(0,127,0);stroke-width:1" /><path stroke-linejoin="round" stroke-linecap="round" stroke="rgb(255,255,255)" stroke-width="3.749996" fill="none" d="M 0.000000 750.000000 L 750.000000 750.000000 M 0.000000 750.000000 L 0.000000 0.000000 " />

</svg>