<svg xmlns="http://www.w3.org/2000/svg" version="1.1" width = "750" height = "750" viewBox = "0 0 750 750"  shape-rendering="crispEdges">
<path stroke-linejoin="round" stroke-linecap="round" stroke="rgb(255,255,0)" stroke-width="3.749996" fill="none" d="M 93.750000 750.000000 L 0.000000 0.000000 " />
<path stroke-linejoin="round" stroke-linecap="round" stroke="rgb(63,63,63)" stroke-width="3.749996" fill="none" d="M 0.000000 0.000000 L 750.000000 750.000000 M 93.750000 750.000000 L 43.750004 0.000000 " />
<path stroke-linejoin="round" stroke-linecap="round" stroke="rgb(191,191,191)" stroke-width="3.749996" fill="none" d="M 0.000000 656.250000 L 93.750000 750.000000 M 0.000000 0.000000 L 49.999996 750.000000 " />
<path stroke-linejoin="round" stroke-linecap="round" stroke="rgb(0,0,255)" stroke-width="1.874998" fill="none" d="M 0.000000 750.000000 L 750.000000 529.411743 " />
<path stroke-linejoin="round" stroke-linecap="round" stroke="rgb(255,0,0)" stroke-width="3.749996" fill="none" d="M 91.947105 722.956726 L 93.750000 750.000000 " />
<path stroke-linejoin="round" stroke-linecap="round" stroke="rgb(0,0,255)" stroke-width="1.874998" fill="none" d="M 0.000000 750.000000 L 750.000000 295.454529 " />
<path stroke-linejoin="round" stroke-linecap="round" stroke="rgb(255,0,0)" stroke-width="3.749996" fill="none" d="M 89.577866 695.710388 L 91.947105 722.956726 " />
<path stroke-linejoin="round" stroke-linecap="round" stroke="rgb(0,0,255)" stroke-width="1.874998" fill="none" d="M 0.000000 750.000000 L 750.000000 46.875000 " />
<path stroke-linejoin="round" stroke-linecap="round" stroke="rgb(255,0,0)" stroke-width="3.749996" fill="none" d="M 87.190773 668.258667 L 89.577866 695.710388 " />
<path stroke-linejoin="round" stroke-linecap="round" stroke="rgb(0,0,255)" stroke-width="1.874998" fill="none" d="M 0.000000 750.000000 L 618.750000 0.000000 " />
<path stroke-linejoin="round" stroke-linecap="round" stroke="rgb(255,0,0)" stroke-width="3.749996" fill="none" d="M 85.307190 646.597351 L 87.190773 668.258667 " />
<path stroke-linejoin="round" stroke-linecap="round" stroke="rgb(0,0,255)" stroke-width="1.874998" fill="none" d="M 0.000000 750.000000 L 581.250000 0.000000 " />
<path stroke-linejoin="round" stroke-linecap="round" stroke="rgb(255,0,0)" stroke-width="3.749996" fill="none" d="M 84.785614 640.599243 L 85.307190 646.597351 " />
<path stroke-linejoin="round" stroke-linecap="round" stroke="rgb(0,0,255)" stroke-width="1.874998" fill="none" d="M 0.000000 750.000000 L 450.000031 0.000000 " />
<path stroke-linejoin="round" stroke-linecap="round" stroke="rgb(255,0,0)" stroke-width="3.749996" fill="none" d="M 82.362190 612.729675 L 84.785614 640.599243 " />
<path stroke-linejoin="round" stroke-linecap="round" stroke="rgb(0,0,255)" stroke-width="1.874998" fill="none" d="M 0.000000 750.000000 L 362.500000 0.000000 " />
<path stroke-linejoin="round" stroke-linecap="round" stroke="rgb(255,0,0)" stroke-width="3.749996" fill="none" d="M 79.920288 584.647705 L 82.362190 612.729675 " />
<path stroke-linejoin="round" stroke-linecap="round" stroke="rgb(0,0,255)" stroke-width="1.874998" fill="none" d="M 0.000000 750.000000 L 300.000000 0.000000 " />
<path stroke-linejoin="round" stroke-linecap="round" stroke="rgb(255,0,0)" stroke-width="3.749996" fill="none" d="M 77.459671 556.350830 L 79.920288 584.647705 " />
<path stroke-linejoin="round" stroke-linecap="round" stroke="rgb(0,0,255)" stroke-width="1.874998" fill="none" d="M 0.000000 750.000000 L 271.875000 0.000000 " />
<path stroke-linejoin="round" stroke-linecap="round" stroke="rgb(255,0,0)" stroke-width="3.749996" fill="none" d="M 76.054733 540.193848 L 77.459671 556.350830 " />
<path stroke-linejoin="round" stroke-linecap="round" stroke="rgb(0,0,255)" stroke-width="1.874998" fill="none" d="M 0.000000 750.000000 L 233.333344 0.000000 " />
<path stroke-linejoin="round" stroke-linecap="round" stroke="rgb(255,0,0)" stroke-width="3.749996" fill="none" d="M 73.699501 513.108704 L 76.054733 540.193848 " />
<path stroke-linejoin="round" stroke-linecap="round" stroke="rgb(0,0,255)" stroke-width="1.874998" fill="none" d="M 0.000000 750.000000 L 202.500015 0.000000 " />
<path stroke-linejoin="round" stroke-linecap="round" stroke="rgb(255,0,0)" stroke-width="3.749996" fill="none" d="M 71.327049 485.825745 L 73.699501 513.108704 " />
<path stroke-linejoin="round" stroke-linecap="round" stroke="rgb(0,0,255)" stroke-width="1.874998" fill="none" d="M 0.000000 750.000000 L 190.909088 0.000000 " />
<path stroke-linejoin="round" stroke-linecap="round" stroke="rgb(255,0,0)" stroke-width="3.749996" fill="none" d="M 70.287491 473.870605 L 71.327049 485.825745 " />
<path stroke-linejoin="round" stroke-linecap="round" stroke="rgb(0,0,255)" stroke-width="1.874998" fill="none" d="M 0.000000 750.000000 L 177.272736 0.000000 " />
<path stroke-linejoin="round" stroke-linecap="round" stroke="rgb(255,0,0)" stroke-width="3.749996" fill="none" d="M 68.937218 458.342529 L 70.287491 473.870605 " />
<path stroke-linejoin="round" stroke-linecap="round" stroke="rgb(0,0,255)" stroke-width="1.874998" fill="none" d="M 0.000000 750.000000 L 156.249985 0.000000 " />
<path stroke-linejoin="round" stroke-linecap="round" stroke="rgb(255,0,0)" stroke-width="3.749996" fill="none" d="M 66.529778 430.657013 L 68.937218 458.342529 " />
<path stroke-linejoin="round" stroke-linecap="round" stroke="rgb(0,0,255)" stroke-width="1.874998" fill="none" d="M 0.000000 750.000000 L 138.461533 0.000000 " />
<path stroke-linejoin="round" stroke-linecap="round" stroke="rgb(255,0,0)" stroke-width="3.749996" fill="none" d="M 64.104568 402.766937 L 66.529778 430.657013 " />
<path stroke-linejoin="round" stroke-linecap="round" stroke="rgb(0,0,255)" stroke-width="1.874998" fill="none" d="M 0.000000 750.000000 L 123.214287 0.000000 " />
<path stroke-linejoin="round" stroke-linecap="round" stroke="rgb(255,0,0)" stroke-width="3.749996" fill="none" d="M 61.661346 374.670044 L 64.104568 402.766937 " />
<path stroke-linejoin="round" stroke-linecap="round" stroke="rgb(0,0,255)" stroke-width="1.874998" fill="none" d="M 0.000000 750.000000 L 120.000000 0.000000 " />
<path stroke-linejoin="round" stroke-linecap="round" stroke="rgb(255,0,0)" stroke-width="3.749996" fill="none" d="M 61.094955 368.156525 L 61.661346 374.670044 " />
<path stroke-linejoin="round" stroke-linecap="round" stroke="rgb(0,0,255)" stroke-width="1.874998" fill="none" d="M 0.000000 750.000000 L 109.999985 0.000000 " />
<path stroke-linejoin="round" stroke-linecap="round" stroke="rgb(255,0,0)" stroke-width="3.749996" fill="none" d="M 59.199951 346.363983 L 61.094955 368.156525 " />
<path stroke-linejoin="round" stroke-linecap="round" stroke="rgb(0,0,255)" stroke-width="1.874998" fill="none" d="M 0.000000 750.000000 L 98.437492 0.000000 " />
<path stroke-linejoin="round" stroke-linecap="round" stroke="rgb(255,0,0)" stroke-width="3.749996" fill="none" d="M 56.720161 317.846375 L 59.199951 346.363983 " />
<path stroke-linejoin="round" stroke-linecap="round" stroke="rgb(0,0,255)" stroke-width="1.874998" fill="none" d="M 0.000000 750.000000 L 88.235291 0.000000 " />
<path stroke-linejoin="round" stroke-linecap="round" stroke="rgb(255,0,0)" stroke-width="3.749996" fill="none" d="M 54.221771 289.114960 L 56.720161 317.846375 " />
<path stroke-linejoin="round" stroke-linecap="round" stroke="rgb(0,0,255)" stroke-width="1.874998" fill="none" d="M 0.000000 750.000000 L 79.166672 0.000000 " />
<path stroke-linejoin="round" stroke-linecap="round" stroke="rgb(255,0,0)" stroke-width="3.749996" fill="none" d="M 51.704586 260.167114 L 54.221771 289.114960 " />
<path stroke-linejoin="round" stroke-linecap="round" stroke="rgb(0,0,255)" stroke-width="1.874998" fill="none" d="M 0.000000 750.000000 L 74.585640 0.000000 " />
<path stroke-linejoin="round" stroke-linecap="round" stroke="rgb(255,0,0)" stroke-width="3.749996" fill="none" d="M 49.637630 250.865936 L 51.704586 260.167114 " />
<path stroke-linejoin="round" stroke-linecap="round" stroke="rgb(0,0,255)" stroke-width="1.874998" fill="none" d="M 0.000000 750.000000 L 66.753922 0.000000 " />
<path stroke-linejoin="round" stroke-linecap="round" stroke="rgb(255,0,0)" stroke-width="3.749996" fill="none" d="M 47.061928 221.245316 L 49.637630 250.865936 " />
<path stroke-linejoin="round" stroke-linecap="round" stroke="rgb(0,0,255)" stroke-width="1.874998" fill="none" d="M 0.000000 750.000000 L 62.500008 0.000000 " />
<path stroke-linejoin="round" stroke-linecap="round" stroke="rgb(255,0,0)" stroke-width="3.749996" fill="none" d="M 44.880821 211.430267 L 47.061928 221.245316 " />
<path stroke-linejoin="round" stroke-linecap="round" stroke="rgb(0,0,255)" stroke-width="1.874998" fill="none" d="M 0.000000 750.000000 L 58.290169 0.000000 " />
<path stroke-linejoin="round" stroke-linecap="round" stroke="rgb(255,0,0)" stroke-width="3.749996" fill="none" d="M 42.641068 201.351501 L 44.880821 211.430267 " />
<path stroke-linejoin="round" stroke-linecap="round" stroke="rgb(0,0,255)" stroke-width="1.874998" fill="none" d="M 0.000000 750.000000 L 54.123714 0.000000 " />
<path stroke-linejoin="round" stroke-linecap="round" stroke="rgb(255,0,0)" stroke-width="3.749996" fill="none" d="M 40.340336 190.998230 L 42.641068 201.351547 " />
<path stroke-linejoin="round" stroke-linecap="round" stroke="rgb(0,0,255)" stroke-width="1.874998" fill="none" d="M 0.000000 750.000000 L 53.571426 0.000000 " />
<path stroke-linejoin="round" stroke-linecap="round" stroke="rgb(255,0,0)" stroke-width="3.749996" fill="none" d="M 40.028816 189.596420 L 40.340336 190.998230 " />
<path stroke-linejoin="round" stroke-linecap="round" stroke="rgb(0,0,255)" stroke-width="1.874998" fill="none" d="M 0.000000 750.000000 L 49.492390 0.000000 " />
<path stroke-linejoin="round" stroke-linecap="round" stroke="rgb(255,0,0)" stroke-width="3.749996" fill="none" d="M 37.678799 179.021317 L 40.028816 189.596420 " />
<path stroke-linejoin="round" stroke-linecap="round" stroke="rgb(0,0,255)" stroke-width="1.874998" fill="none" d="M 0.000000 750.000000 L 45.454548 0.000000 " />
<path stroke-linejoin="round" stroke-linecap="round" stroke="rgb(255,0,0)" stroke-width="3.749996" fill="none" d="M 35.263493 168.152466 L 37.678799 179.021317 " />
<path stroke-linejoin="round" stroke-linecap="round" stroke="rgb(0,0,255)" stroke-width="1.874998" fill="none" d="M 0.000000 750.000000 L 45.000000 0.000000 " />
<path stroke-linejoin="round" stroke-linecap="round" stroke="rgb(255,0,0)" stroke-width="3.749996" fill="none" d="M 34.985817 166.903000 L 35.263493 168.152512 " />
<path stroke-linejoin="round" stroke-linecap="round" stroke="rgb(0,0,255)" stroke-width="1.874998" fill="none" d="M 0.000000 750.000000 L 44.554443 0.000000 " />
<path stroke-linejoin="round" stroke-linecap="round" stroke="rgb(255,0,0)" stroke-width="3.749996" fill="none" d="M 34.712502 165.673035 L 34.985817 166.903000 " />
<path stroke-linejoin="round" stroke-linecap="round" stroke="rgb(0,0,255)" stroke-width="1.874998" fill="none" d="M 0.000000 750.000000 L 44.117645 0.000000 " />
<path stroke-linejoin="round" stroke-linecap="round" stroke="rgb(255,0,0)" stroke-width="3.749996" fill="none" d="M 34.443409 164.462097 L 34.712502 165.673035 " />
<path stroke-linejoin="round" stroke-linecap="round" stroke="rgb(0,0,255)" stroke-width="1.874998" fill="none" d="M 0.000000 750.000000 L 43.689320 0.000000 " />
<path stroke-linejoin="round" stroke-linecap="round" stroke="rgb(255,0,0)" stroke-width="3.749996" fill="none" d="M 34.178452 163.269867 L 34.443409 164.462097 " />
<path stroke-linejoin="round" stroke-linecap="round" stroke="rgb(0,0,255)" stroke-width="1.874998" fill="none" d="M 0.000000 750.000000 L 41.044773 0.000000 " />
<path stroke-linejoin="round" stroke-linecap="round" stroke="rgb(255,0,0)" stroke-width="3.749996" fill="none" d="M 32.518433 155.799683 L 34.178452 163.269867 " />
<path stroke-linejoin="round" stroke-linecap="round" stroke="rgb(0,0,255)" stroke-width="1.874998" fill="none" d="M 0.000000 750.000000 L 40.640385 0.000000 " />
<path stroke-linejoin="round" stroke-linecap="round" stroke="rgb(255,0,0)" stroke-width="3.749996" fill="none" d="M 32.260849 154.640656 L 32.518433 155.799683 " />
<path stroke-linejoin="round" stroke-linecap="round" stroke="rgb(0,0,255)" stroke-width="1.874998" fill="none" d="M 0.000000 750.000000 L 36.764702 0.000000 " />
<path stroke-linejoin="round" stroke-linecap="round" stroke="rgb(255,0,0)" stroke-width="3.749996" fill="none" d="M 29.740290 143.298172 L 32.260849 154.640656 " />
<path stroke-linejoin="round" stroke-linecap="round" stroke="rgb(0,0,255)" stroke-width="1.874998" fill="none" d="M 0.000000 750.000000 L 36.407768 0.000000 " />
<path stroke-linejoin="round" stroke-linecap="round" stroke="rgb(255,0,0)" stroke-width="3.749996" fill="none" d="M 29.503315 142.231827 L 29.740290 143.298172 " />
<path stroke-linejoin="round" stroke-linecap="round" stroke="rgb(0,0,255)" stroke-width="1.874998" fill="none" d="M 0.000000 750.000000 L 36.057697 0.000000 " />
<path stroke-linejoin="round" stroke-linecap="round" stroke="rgb(255,0,0)" stroke-width="3.749996" fill="none" d="M 29.270075 141.182312 L 29.503315 142.231873 " />
<path stroke-linejoin="round" stroke-linecap="round" stroke="rgb(0,0,255)" stroke-width="1.874998" fill="none" d="M 0.000000 750.000000 L 35.714283 0.000000 " />
<path stroke-linejoin="round" stroke-linecap="round" stroke="rgb(255,0,0)" stroke-width="3.749996" fill="none" d="M 29.040501 140.149307 L 29.270075 141.182312 " />
<path stroke-linejoin="round" stroke-linecap="round" stroke="rgb(0,0,255)" stroke-width="1.874998" fill="none" d="M 0.000000 750.000000 L 31.990528 0.000000 " />
<path stroke-linejoin="round" stroke-linecap="round" stroke="rgb(255,0,0)" stroke-width="3.749996" fill="none" d="M 26.500181 128.717865 L 29.040501 140.149307 " />
<path stroke-linejoin="round" stroke-linecap="round" stroke="rgb(0,0,255)" stroke-width="1.874998" fill="none" d="M 0.000000 750.000000 L 28.301888 0.000000 " />
<path stroke-linejoin="round" stroke-linecap="round" stroke="rgb(255,0,0)" stroke-width="3.749996" fill="none" d="M 23.888155 116.963806 L 26.500181 128.717865 " />
<path stroke-linejoin="round" stroke-linecap="round" stroke="rgb(0,0,255)" stroke-width="1.874998" fill="none" d="M 0.000000 750.000000 L 28.037376 0.000000 " />
<path stroke-linejoin="round" stroke-linecap="round" stroke="rgb(255,0,0)" stroke-width="3.749996" fill="none" d="M 23.697048 116.103798 L 23.888155 116.963806 " />
<path stroke-linejoin="round" stroke-linecap="round" stroke="rgb(0,0,255)" stroke-width="1.874998" fill="none" d="M 0.000000 750.000000 L 27.777784 0.000000 " />
<path stroke-linejoin="round" stroke-linecap="round" stroke="rgb(255,0,0)" stroke-width="3.749996" fill="none" d="M 23.508982 115.257515 L 23.697048 116.103798 " />
<path stroke-linejoin="round" stroke-linecap="round" stroke="rgb(0,0,255)" stroke-width="1.874998" fill="none" d="M 0.000000 750.000000 L 27.522928 0.000000 " />
<path stroke-linejoin="round" stroke-linecap="round" stroke="rgb(255,0,0)" stroke-width="3.749996" fill="none" d="M 23.323864 114.424553 L 23.508982 115.257607 " />
<path stroke-linejoin="round" stroke-linecap="round" stroke="rgb(0,0,255)" stroke-width="1.874998" fill="none" d="M 0.000000 750.000000 L 27.272724 0.000000 " />
<path stroke-linejoin="round" stroke-linecap="round" stroke="rgb(255,0,0)" stroke-width="3.749996" fill="none" d="M 23.141653 113.604607 L 23.323864 114.424553 " />
<path stroke-linejoin="round" stroke-linecap="round" stroke="rgb(0,0,255)" stroke-width="1.874998" fill="none" d="M 0.000000 750.000000 L 27.027033 0.000000 " />
<path stroke-linejoin="round" stroke-linecap="round" stroke="rgb(255,0,0)" stroke-width="3.749996" fill="none" d="M 22.962257 112.797302 L 23.141653 113.604607 " />
<path stroke-linejoin="round" stroke-linecap="round" stroke="rgb(0,0,255)" stroke-width="1.874998" fill="none" d="M 0.000000 750.000000 L 26.785725 0.000000 " />
<path stroke-linejoin="round" stroke-linecap="round" stroke="rgb(255,0,0)" stroke-width="3.749996" fill="none" d="M 22.785633 112.002480 L 22.962257 112.797302 " />
<path stroke-linejoin="round" stroke-linecap="round" stroke="rgb(0,0,255)" stroke-width="1.874998" fill="none" d="M 0.000000 750.000000 L 26.548683 0.000000 " />
<path stroke-linejoin="round" stroke-linecap="round" stroke="rgb(255,0,0)" stroke-width="3.749996" fill="none" d="M 22.611692 111.219719 L 22.785633 112.002480 " />
<path stroke-linejoin="round" stroke-linecap="round" stroke="rgb(0,0,255)" stroke-width="1.874998" fill="none" d="M 0.000000 750.000000 L 26.315779 0.000000 " />
<path stroke-linejoin="round" stroke-linecap="round" stroke="rgb(255,0,0)" stroke-width="3.749996" fill="none" d="M 22.440390 110.448898 L 22.611692 111.219719 " />
<path stroke-linejoin="round" stroke-linecap="round" stroke="rgb(0,0,255)" stroke-width="1.874998" fill="none" d="M 0.000000 750.000000 L 23.542599 0.000000 " />
<path stroke-linejoin="round" stroke-linecap="round" stroke="rgb(255,0,0)" stroke-width="3.749996" fill="none" d="M 20.368294 101.124466 L 22.440390 110.448898 " />
<path stroke-linejoin="round" stroke-linecap="round" stroke="rgb(0,0,255)" stroke-width="1.874998" fill="none" d="M 0.000000 750.000000 L 20.089275 0.000000 " />
<path stroke-linejoin="round" stroke-linecap="round" stroke="rgb(255,0,0)" stroke-width="3.749996" fill="none" d="M 17.701977 89.126099 L 20.368294 101.124466 " />
<path stroke-linejoin="round" stroke-linecap="round" stroke="rgb(0,0,255)" stroke-width="1.874998" fill="none" d="M 0.000000 750.000000 L 16.666666 0.000000 " />
<path stroke-linejoin="round" stroke-linecap="round" stroke="rgb(255,0,0)" stroke-width="3.749996" fill="none" d="M 14.960267 76.788338 L 17.701977 89.126099 " />
<path stroke-linejoin="round" stroke-linecap="round" stroke="rgb(0,0,255)" stroke-width="1.874998" fill="none" d="M 0.000000 750.000000 L 16.519815 0.000000 " />
<path stroke-linejoin="round" stroke-linecap="round" stroke="rgb(255,0,0)" stroke-width="3.749996" fill="none" d="M 14.840349 76.248634 L 14.960267 76.788338 " />
<path stroke-linejoin="round" stroke-linecap="round" stroke="rgb(0,0,255)" stroke-width="1.874998" fill="none" d="M 0.000000 750.000000 L 13.157889 0.000000 " />
<path stroke-linejoin="round" stroke-linecap="round" stroke="rgb(255,0,0)" stroke-width="3.749996" fill="none" d="M 12.041174 63.652531 L 14.840349 76.248634 " />
<path stroke-linejoin="round" stroke-linecap="round" stroke="rgb(0,0,255)" stroke-width="1.874998" fill="none" d="M 0.000000 750.000000 L 13.043470 0.000000 " />
<path stroke-linejoin="round" stroke-linecap="round" stroke="rgb(255,0,0)" stroke-width="3.749996" fill="none" d="M 11.944077 63.215599 L 12.041174 63.652618 " />
<path stroke-linejoin="round" stroke-linecap="round" stroke="rgb(0,0,255)" stroke-width="1.874998" fill="none" d="M 0.000000 750.000000 L 12.931042 0.000000 " />
<path stroke-linejoin="round" stroke-linecap="round" stroke="rgb(255,0,0)" stroke-width="3.749996" fill="none" d="M 11.848524 62.785595 L 11.944077 63.215599 " />
<path stroke-linejoin="round" stroke-linecap="round" stroke="rgb(0,0,255)" stroke-width="1.874998" fill="none" d="M 0.000000 750.000000 L 12.820512 0.000000 " />
<path stroke-linejoin="round" stroke-linecap="round" stroke="rgb(255,0,0)" stroke-width="3.749996" fill="none" d="M 11.754491 62.362476 L 11.848524 62.785595 " />
<path stroke-linejoin="round" stroke-linecap="round" stroke="rgb(0,0,255)" stroke-width="1.874998" fill="none" d="M 0.000000 750.000000 L 12.711861 0.000000 " />
<path stroke-linejoin="round" stroke-linecap="round" stroke="rgb(255,0,0)" stroke-width="3.749996" fill="none" d="M 11.661932 61.946018 L 11.754491 62.362568 " />
<path stroke-linejoin="round" stroke-linecap="round" stroke="rgb(0,0,255)" stroke-width="1.874998" fill="none" d="M 0.000000 750.000000 L 12.500010 0.000000 " />
<path stroke-linejoin="round" stroke-linecap="round" stroke="rgb(255,0,0)" stroke-width="3.749996" fill="none" d="M 11.481129 61.132416 L 11.661932 61.946018 " />
<path stroke-linejoin="round" stroke-linecap="round" stroke="rgb(0,0,255)" stroke-width="1.874998" fill="none" d="M 0.000000 750.000000 L 12.396701 0.000000 " />
<path stroke-linejoin="round" stroke-linecap="round" stroke="rgb(255,0,0)" stroke-width="3.749996" fill="none" d="M 11.392817 60.735001 L 11.481129 61.132416 " />
<path stroke-linejoin="round" stroke-linecap="round" stroke="rgb(0,0,255)" stroke-width="1.874998" fill="none" d="M 0.000000 750.000000 L 12.295090 0.000000 " />
<path stroke-linejoin="round" stroke-linecap="round" stroke="rgb(255,0,0)" stroke-width="3.749996" fill="none" d="M 11.305846 60.343624 L 11.392817 60.735001 " />
<path stroke-linejoin="round" stroke-linecap="round" stroke="rgb(0,0,255)" stroke-width="1.874998" fill="none" d="M 0.000000 750.000000 L 12.195110 0.000000 " />
<path stroke-linejoin="round" stroke-linecap="round" stroke="rgb(255,0,0)" stroke-width="3.749996" fill="none" d="M 11.220195 59.958191 L 11.305846 60.343624 " />
<path stroke-linejoin="round" stroke-linecap="round" stroke="rgb(0,0,255)" stroke-width="1.874998" fill="none" d="M 0.000000 750.000000 L 12.096763 0.000000 " />
<path stroke-linejoin="round" stroke-linecap="round" stroke="rgb(255,0,0)" stroke-width="3.749996" fill="none" d="M 11.135839 59.578568 L 11.220195 59.958191 " />
<path stroke-linejoin="round" stroke-linecap="round" stroke="rgb(0,0,255)" stroke-width="1.874998" fill="none" d="M 0.000000 750.000000 L 9.109318 0.000000 " />
<path stroke-linejoin="round" stroke-linecap="round" stroke="rgb(255,0,0)" stroke-width="3.749996" fill="none" d="M 8.528217 47.844307 L 11.135839 59.578568 " />
<path stroke-linejoin="round" stroke-linecap="round" stroke="rgb(0,0,255)" stroke-width="1.874998" fill="none" d="M 0.000000 750.000000 L 6.048381 0.000000 " />
<path stroke-linejoin="round" stroke-linecap="round" stroke="rgb(255,0,0)" stroke-width="3.749996" fill="none" d="M 5.762905 35.400509 L 8.528195 47.844349 " />
<path stroke-linejoin="round" stroke-linecap="round" stroke="rgb(0,0,255)" stroke-width="1.874998" fill="none" d="M 0.000000 750.000000 L 3.012054 0.000000 " />
<path stroke-linejoin="round" stroke-linecap="round" stroke="rgb(255,0,0)" stroke-width="3.749996" fill="none" d="M 2.912030 24.904400 L 5.762905 35.400509 " />
<path stroke-linejoin="round" stroke-linecap="round" stroke="rgb(0,0,255)" stroke-width="1.874998" fill="none" d="M 0.000000 750.000000 L 0.000000 0.000000 " />
<path stroke-linejoin="round" stroke-linecap="round" stroke="rgb(255,0,0)" stroke-width="3.749996" fill="none" d="M 0.000000 0.000000 L 2.912030 24.904400 " />
<circle cx="91.947109" cy="722.956739" r="3.749996" style="fill:rgb(0,127,0);stroke-width:1" /><circle cx="89.577869" cy="695.710391" r="3.749996" style="fill:rgb(0,127,0);stroke-width:1" /><circle cx="87.190770" cy="668.258652" r="3.749996" style="fill:rgb(0,127,0);stroke-width:1" /><circle cx="85.307188" cy="646.597356" r="3.749996" style="fill:rgb(0,127,0);stroke-width:1" /><circle cx="84.785610" cy="640.599221" r="3.749996" style="fill:rgb(0,127,0);stroke-width:1" /><circle cx="82.362190" cy="612.729684" r="3.749996" style="fill:rgb(0,127,0);stroke-width:1" /><circle cx="79.920284" cy="584.647715" r="3.749996" style="fill:rgb(0,127,0);stroke-width:1" /><circle cx="77.459671" cy="556.350812" r="3.749996" style="fill:rgb(0,127,0);stroke-width:1" /><circle cx="76.054730" cy="540.193856" r="3.749996" style="fill:rgb(0,127,0);stroke-width:1" /><circle cx="73.699504" cy="513.108753" r="3.749996" style="fill:rgb(0,127,0);stroke-width:1" /><circle cx="71.327046" cy="485.825725" r="3.749996" style="fill:rgb(0,127,0);stroke-width:1" /><circle cx="70.287488" cy="473.870605" r="3.749996" style="fill:rgb(0,127,0);stroke-width:1" /><circle cx="68.937220" cy="458.342537" r="3.749996" style="fill:rgb(0,127,0);stroke-width:1" /><circle cx="66.529781" cy="430.657022" r="3.749996" style="fill:rgb(0,127,0);stroke-width:1" /><circle cx="64.104572" cy="402.766965" r="3.749996" style="fill:rgb(0,127,0);stroke-width:1" /><circle cx="61.661348" cy="374.670044" r="3.749996" style="fill:rgb(0,127,0);stroke-width:1" /><circle cx="61.094955" cy="368.156523" r="3.749996" style="fill:rgb(0,127,0);stroke-width:1" /><circle cx="59.199952" cy="346.363977" r="3.749996" style="fill:rgb(0,127,0);stroke-width:1" /><circle cx="56.720160" cy="317.846373" r="3.749996" style="fill:rgb(0,127,0);stroke-width:1" /><circle cx="54.221772" cy="289.114952" r="3.749996" style="fill:rgb(0,127,0);stroke-width:1" /><circle cx="51.704586" cy="260.167122" r="3.749996" style="fill:rgb(0,127,0);stroke-width:1" /><circle cx="49.637631" cy="250.865936" r="3.749996" style="fill:rgb(0,127,0);stroke-width:1" /><circle cx="47.061928" cy="221.245319" r="3.749996" style="fill:rgb(0,127,0);stroke-width:1" /><circle cx="44.880822" cy="211.430266" r="3.749996" style="fill:rgb(0,127,0);stroke-width:1" /><circle cx="42.641066" cy="201.351508" r="3.749996" style="fill:rgb(0,127,0);stroke-width:1" /><circle cx="40.340334" cy="190.998226" r="3.749996" style="fill:rgb(0,127,0);stroke-width:1" /><circle cx="40.028818" cy="189.596415" r="3.749996" style="fill:rgb(0,127,0);stroke-width:1" /><circle cx="37.678801" cy="179.021314" r="3.749996" style="fill:rgb(0,127,0);stroke-width:1" /><circle cx="35.263494" cy="168.152466" r="3.749996" style="fill:rgb(0,127,0);stroke-width:1" /><circle cx="34.985818" cy="166.903004" r="3.749996" style="fill:rgb(0,127,0);stroke-width:1" /><circle cx="34.712501" cy="165.673032" r="3.749996" style="fill:rgb(0,127,0);stroke-width:1" /><circle cx="34.443408" cy="164.462104" r="3.749996" style="fill:rgb(0,127,0);stroke-width:1" /><circle cx="34.178451" cy="163.269863" r="3.749996" style="fill:rgb(0,127,0);stroke-width:1" /><circle cx="32.518432" cy="155.799687" r="3.749996" style="fill:rgb(0,127,0);stroke-width:1" /><circle cx="32.260850" cy="154.640660" r="3.749996" style="fill:rgb(0,127,0);stroke-width:1" /><circle cx="29.740289" cy="143.298179" r="3.749996" style="fill:rgb(0,127,0);stroke-width:1" /><circle cx="29.503316" cy="142.231822" r="3.749996" style="fill:rgb(0,127,0);stroke-width:1" /><circle cx="29.270075" cy="141.182318" r="3.749996" style="fill:rgb(0,127,0);stroke-width:1" /><circle cx="29.040501" cy="140.149310" r="3.749996" style="fill:rgb(0,127,0);stroke-width:1" /><circle cx="26.500180" cy="128.717870" r="3.749996" style="fill:rgb(0,127,0);stroke-width:1" /><circle cx="23.888156" cy="116.963804" r="3.749996" style="fill:rgb(0,127,0);stroke-width:1" /><circle cx="23.697048" cy="116.103798" r="3.749996" style="fill:rgb(0,127,0);stroke-width:1" /><circle cx="23.508981" cy="115.257517" r="3.749996" style="fill:rgb(0,127,0);stroke-width:1" /><circle cx="23.323864" cy="114.424556" r="3.749996" style="fill:rgb(0,127,0);stroke-width:1" /><circle cx="23.141652" cy="113.604605" r="3.749996" style="fill:rgb(0,127,0);stroke-width:1" /><circle cx="22.962257" cy="112.797305" r="3.749996" style="fill:rgb(0,127,0);stroke-width:1" /><circle cx="22.785634" cy="112.002477" r="3.749996" style="fill:rgb(0,127,0);stroke-width:1" /><circle cx="22.611693" cy="111.219719" r="3.749996" style="fill:rgb(0,127,0);stroke-width:1" /><circle cx="22.440389" cy="110.448897" r="3.749996" style="fill:rgb(0,127,0);stroke-width:1" /><circle cx="20.368293" cy="101.124465" r="3.749996" style="fill:rgb(0,127,0);stroke-width:1" /><circle cx="17.701976" cy="89.126095" r="3.749996" style="fill:rgb(0,127,0);stroke-width:1" /><circle cx="14.960267" cy="76.788336" r="3.749996" style="fill:rgb(0,127,0);stroke-width:1" /><circle cx="14.840350" cy="76.248631" r="3.749996" style="fill:rgb(0,127,0);stroke-width:1" /><circle cx="12.041174" cy="63.652530" r="3.749996" style="fill:rgb(0,127,0);stroke-width:1" /><circle cx="11.944078" cy="63.215598" r="3.749996" style="fill:rgb(0,127,0);stroke-width:1" /><circle cx="11.848524" cy="62.785596" r="3.749996" style="fill:rgb(0,127,0);stroke-width:1" /><circle cx="11.754490" cy="62.362477" r="3.749996" style="fill:rgb(0,127,0);stroke-width:1" /><circle cx="11.661932" cy="61.946020" r="3.749996" style="fill:rgb(0,127,0);stroke-width:1" /><circle cx="11.481129" cy="61.132416" r="3.749996" style="fill:rgb(0,127,0);stroke-width:1" /><circle cx="11.392817" cy="60.735002" r="3.749996" style="fill:rgb(0,127,0);stroke-width:1" /><circle cx="11.305846" cy="60.343623" r="3.749996" style="fill:rgb(0,127,0);stroke-width:1" /><circle cx="11.220194" cy="59.958190" r="3.749996" style="fill:rgb(0,127,0);stroke-width:1" /><circle cx="11.135839" cy="59.578568" r="3.749996" style="fill:rgb(0,127,0);stroke-width:1" /><circle cx="8.528218" cy="47.844306" r="3.749996" style="fill:rgb(0,127,0);stroke-width:1" /><circle cx="5.762905" cy="35.400510" r="3.749996" style="fill:rgb(0,127,0);stroke-width:1" /><circle cx="2.912030" cy="24.904400" r="3.749996" style="fill:rgb(0,127,0);stroke-width:1" /><circle cx="750.000000" cy="750.000000" r="3.749996" style="fill:rgb(0,127,0);stroke-width:1" /><path stroke-linejoin="round" stroke-linecap="round" stroke="rgb(255,255,255)" stroke-width="3.749996" fill="none" d="M 0.000000 750.000000 L 750.000000 750.000000 M 0.000000 750.000000 L 0.000000 0.000000 " />

</svg>