<svg xmlns="http://www.w3.org/2000/svg" version="1.1" width = "750" height = "750" viewBox = "0 0 750 750"  shape-rendering="crispEdges">
<path stroke-linejoin="round" stroke-linecap="round" stroke="rgb(255,255,0)" stroke-width="3.749996" fill="none" d="M 93.750000 750.000000 L 0.000000 0.000000 " />
<path stroke-linejoin="round" stroke-linecap="round" stroke="rgb(63,63,63)" stroke-width="3.749996" fill="none" d="M 0.000000 0.000000 L 750.000000 750.000000 M 93.750000 750.000000 L 43.750004 0.000000 " />
<path stroke-linejoin="round" stroke-linecap="round" stroke="rgb(191,191,191)" stroke-width="3.749996" fill="none" d="M 0.000000 656.250000 L 93.750000 750.000000 M 0.000000 0.000000 L 49.999996 750.000000 " />
<path stroke-linejoin="round" stroke-linecap="round" stroke="rgb(0,0,255)" stroke-width="1.874998" fill="none" d="M 0.000000 750.000000 L 750.000000 535.714294 " />
<path stroke-linejoin="round" stroke-linecap="round" stroke="rgb(255,0,0)" stroke-width="3.749996" fill="none" d="M 91.997665 723.714966 L 93.750000 750.000000 " />
<path stroke-linejoin="round" stroke-linecap="round" stroke="rgb(0,0,255)" stroke-width="1.874998" fill="none" d="M 0.000000 750.000000 L 750.000000 308.823517 " />
<path stroke-linejoin="round" stroke-linecap="round" stroke="rgb(255,0,0)" stroke-width="3.749996" fill="none" d="M 89.695328 697.238037 L 91.997665 723.714966 " />
<path stroke-linejoin="round" stroke-linecap="round" stroke="rgb(0,0,255)" stroke-width="1.874998" fill="none" d="M 0.000000 750.000000 L 750.000000 68.181801 " />
<path stroke-linejoin="round" stroke-linecap="round" stroke="rgb(255,0,0)" stroke-width="3.749996" fill="none" d="M 87.376114 670.567200 L 89.695328 697.238037 " />
<path stroke-linejoin="round" stroke-linecap="round" stroke="rgb(0,0,255)" stroke-width="1.874998" fill="none" d="M 0.000000 750.000000 L 600.000000 0.000000 " />
<path stroke-linejoin="round" stroke-linecap="round" stroke="rgb(255,0,0)" stroke-width="3.749996" fill="none" d="M 85.039864 643.700195 L 87.376114 670.567200 " />
<path stroke-linejoin="round" stroke-linecap="round" stroke="rgb(0,0,255)" stroke-width="1.874998" fill="none" d="M 0.000000 750.000000 L 465.000000 0.000000 " />
<path stroke-linejoin="round" stroke-linecap="round" stroke="rgb(255,0,0)" stroke-width="3.749996" fill="none" d="M 82.686333 616.634949 L 85.039864 643.700195 " />
<path stroke-linejoin="round" stroke-linecap="round" stroke="rgb(0,0,255)" stroke-width="1.874998" fill="none" d="M 0.000000 750.000000 L 375.000000 0.000000 " />
<path stroke-linejoin="round" stroke-linecap="round" stroke="rgb(255,0,0)" stroke-width="3.749996" fill="none" d="M 80.315399 589.369202 L 82.686333 616.634949 " />
<path stroke-linejoin="round" stroke-linecap="round" stroke="rgb(0,0,255)" stroke-width="1.874998" fill="none" d="M 0.000000 750.000000 L 332.142853 0.000000 " />
<path stroke-linejoin="round" stroke-linecap="round" stroke="rgb(255,0,0)" stroke-width="3.749996" fill="none" d="M 78.808914 572.044434 L 80.315399 589.369202 " />
<path stroke-linejoin="round" stroke-linecap="round" stroke="rgb(0,0,255)" stroke-width="1.874998" fill="none" d="M 0.000000 750.000000 L 310.714294 0.000000 " />
<path stroke-linejoin="round" stroke-linecap="round" stroke="rgb(255,0,0)" stroke-width="3.749996" fill="none" d="M 77.926842 561.900696 L 78.808914 572.044373 " />
<path stroke-linejoin="round" stroke-linecap="round" stroke="rgb(0,0,255)" stroke-width="1.874998" fill="none" d="M 0.000000 750.000000 L 281.250000 0.000000 " />
<path stroke-linejoin="round" stroke-linecap="round" stroke="rgb(255,0,0)" stroke-width="3.749996" fill="none" d="M 76.535851 545.904358 L 77.926842 561.900757 " />
<path stroke-linejoin="round" stroke-linecap="round" stroke="rgb(0,0,255)" stroke-width="1.874998" fill="none" d="M 0.000000 750.000000 L 262.500000 0.000000 " />
<path stroke-linejoin="round" stroke-linecap="round" stroke="rgb(255,0,0)" stroke-width="3.749996" fill="none" d="M 75.520454 534.227295 L 76.535851 545.904358 " />
<path stroke-linejoin="round" stroke-linecap="round" stroke="rgb(0,0,255)" stroke-width="1.874998" fill="none" d="M 0.000000 750.000000 L 225.000015 0.000000 " />
<path stroke-linejoin="round" stroke-linecap="round" stroke="rgb(255,0,0)" stroke-width="3.749996" fill="none" d="M 73.096031 506.346527 L 75.520454 534.227295 " />
<path stroke-linejoin="round" stroke-linecap="round" stroke="rgb(0,0,255)" stroke-width="1.874998" fill="none" d="M 0.000000 750.000000 L 195.000015 0.000000 " />
<path stroke-linejoin="round" stroke-linecap="round" stroke="rgb(255,0,0)" stroke-width="3.749996" fill="none" d="M 70.653412 478.256195 L 73.096031 506.346527 " />
<path stroke-linejoin="round" stroke-linecap="round" stroke="rgb(0,0,255)" stroke-width="1.874998" fill="none" d="M 0.000000 750.000000 L 170.454544 0.000000 " />
<path stroke-linejoin="round" stroke-linecap="round" stroke="rgb(255,0,0)" stroke-width="3.749996" fill="none" d="M 68.192322 449.953796 L 70.653412 478.256195 " />
<path stroke-linejoin="round" stroke-linecap="round" stroke="rgb(0,0,255)" stroke-width="1.874998" fill="none" d="M 0.000000 750.000000 L 162.500000 0.000000 " />
<path stroke-linejoin="round" stroke-linecap="round" stroke="rgb(255,0,0)" stroke-width="3.749996" fill="none" d="M 67.280914 439.472717 L 68.192322 449.953796 " />
<path stroke-linejoin="round" stroke-linecap="round" stroke="rgb(0,0,255)" stroke-width="1.874998" fill="none" d="M 0.000000 750.000000 L 144.230789 0.000000 " />
<path stroke-linejoin="round" stroke-linecap="round" stroke="rgb(255,0,0)" stroke-width="3.749996" fill="none" d="M 64.925621 412.386810 L 67.280914 439.472748 " />
<path stroke-linejoin="round" stroke-linecap="round" stroke="rgb(0,0,255)" stroke-width="1.874998" fill="none" d="M 0.000000 750.000000 L 139.285721 0.000000 " />
<path stroke-linejoin="round" stroke-linecap="round" stroke="rgb(255,0,0)" stroke-width="3.749996" fill="none" d="M 64.215729 404.223022 L 64.925598 412.386871 " />
<path stroke-linejoin="round" stroke-linecap="round" stroke="rgb(0,0,255)" stroke-width="1.874998" fill="none" d="M 0.000000 750.000000 L 128.571426 0.000000 " />
<path stroke-linejoin="round" stroke-linecap="round" stroke="rgb(255,0,0)" stroke-width="3.749996" fill="none" d="M 62.553318 385.105591 L 64.215729 404.223022 " />
<path stroke-linejoin="round" stroke-linecap="round" stroke="rgb(0,0,255)" stroke-width="1.874998" fill="none" d="M 0.000000 750.000000 L 115.000000 0.000000 " />
<path stroke-linejoin="round" stroke-linecap="round" stroke="rgb(255,0,0)" stroke-width="3.749996" fill="none" d="M 60.163872 357.626923 L 62.553318 385.105591 " />
<path stroke-linejoin="round" stroke-linecap="round" stroke="rgb(0,0,255)" stroke-width="1.874998" fill="none" d="M 0.000000 750.000000 L 103.124992 0.000000 " />
<path stroke-linejoin="round" stroke-linecap="round" stroke="rgb(255,0,0)" stroke-width="3.749996" fill="none" d="M 57.757057 329.948669 L 60.163872 357.626923 " />
<path stroke-linejoin="round" stroke-linecap="round" stroke="rgb(0,0,255)" stroke-width="1.874998" fill="none" d="M 0.000000 750.000000 L 101.470581 0.000000 " />
<path stroke-linejoin="round" stroke-linecap="round" stroke="rgb(255,0,0)" stroke-width="3.749996" fill="none" d="M 57.394535 325.779541 L 57.757057 329.948730 " />
<path stroke-linejoin="round" stroke-linecap="round" stroke="rgb(0,0,255)" stroke-width="1.874998" fill="none" d="M 0.000000 750.000000 L 92.647079 0.000000 " />
<path stroke-linejoin="round" stroke-linecap="round" stroke="rgb(255,0,0)" stroke-width="3.749996" fill="none" d="M 55.332699 302.068604 L 57.394535 325.779541 " />
<path stroke-linejoin="round" stroke-linecap="round" stroke="rgb(0,0,255)" stroke-width="1.874998" fill="none" d="M 0.000000 750.000000 L 91.666664 0.000000 " />
<path stroke-linejoin="round" stroke-linecap="round" stroke="rgb(255,0,0)" stroke-width="3.749996" fill="none" d="M 55.089287 299.269440 L 55.332699 302.068604 " />
<path stroke-linejoin="round" stroke-linecap="round" stroke="rgb(0,0,255)" stroke-width="1.874998" fill="none" d="M 0.000000 750.000000 L 83.333328 0.000000 " />
<path stroke-linejoin="round" stroke-linecap="round" stroke="rgb(255,0,0)" stroke-width="3.749996" fill="none" d="M 52.890614 273.984528 L 55.089287 299.269440 " />
<path stroke-linejoin="round" stroke-linecap="round" stroke="rgb(0,0,255)" stroke-width="1.874998" fill="none" d="M 0.000000 750.000000 L 74.999992 0.000000 " />
<path stroke-linejoin="round" stroke-linecap="round" stroke="rgb(255,0,0)" stroke-width="3.749996" fill="none" d="M 50.430580 245.694183 L 52.890614 273.984528 " />
<path stroke-linejoin="round" stroke-linecap="round" stroke="rgb(0,0,255)" stroke-width="1.874998" fill="none" d="M 0.000000 750.000000 L 67.857140 0.000000 " />
<path stroke-linejoin="round" stroke-linecap="round" stroke="rgb(255,0,0)" stroke-width="3.749996" fill="none" d="M 48.076763 218.625290 L 50.430580 245.694183 " />
<path stroke-linejoin="round" stroke-linecap="round" stroke="rgb(0,0,255)" stroke-width="1.874998" fill="none" d="M 0.000000 750.000000 L 61.363621 0.000000 " />
<path stroke-linejoin="round" stroke-linecap="round" stroke="rgb(255,0,0)" stroke-width="3.749996" fill="none" d="M 45.706406 191.366135 L 48.076763 218.625290 " />
<path stroke-linejoin="round" stroke-linecap="round" stroke="rgb(0,0,255)" stroke-width="1.874998" fill="none" d="M 0.000000 750.000000 L 61.004787 0.000000 " />
<path stroke-linejoin="round" stroke-linecap="round" stroke="rgb(255,0,0)" stroke-width="3.749996" fill="none" d="M 45.510738 190.485565 L 45.706406 191.366089 " />
<path stroke-linejoin="round" stroke-linecap="round" stroke="rgb(0,0,255)" stroke-width="1.874998" fill="none" d="M 0.000000 750.000000 L 57.142853 0.000000 " />
<path stroke-linejoin="round" stroke-linecap="round" stroke="rgb(255,0,0)" stroke-width="3.749996" fill="none" d="M 43.365261 180.830917 L 45.510738 190.485519 " />
<path stroke-linejoin="round" stroke-linecap="round" stroke="rgb(0,0,255)" stroke-width="1.874998" fill="none" d="M 0.000000 750.000000 L 56.603775 0.000000 " />
<path stroke-linejoin="round" stroke-linecap="round" stroke="rgb(255,0,0)" stroke-width="3.749996" fill="none" d="M 43.059872 179.456589 L 43.365261 180.830917 " />
<path stroke-linejoin="round" stroke-linecap="round" stroke="rgb(0,0,255)" stroke-width="1.874998" fill="none" d="M 0.000000 750.000000 L 56.074753 0.000000 " />
<path stroke-linejoin="round" stroke-linecap="round" stroke="rgb(255,0,0)" stroke-width="3.749996" fill="none" d="M 42.758770 178.101532 L 43.059872 179.456543 " />
<path stroke-linejoin="round" stroke-linecap="round" stroke="rgb(0,0,255)" stroke-width="1.874998" fill="none" d="M 0.000000 750.000000 L 52.816898 0.000000 " />
<path stroke-linejoin="round" stroke-linecap="round" stroke="rgb(255,0,0)" stroke-width="3.749996" fill="none" d="M 40.872349 169.612701 L 42.758770 178.101532 " />
<path stroke-linejoin="round" stroke-linecap="round" stroke="rgb(0,0,255)" stroke-width="1.874998" fill="none" d="M 0.000000 750.000000 L 49.065426 0.000000 " />
<path stroke-linejoin="round" stroke-linecap="round" stroke="rgb(255,0,0)" stroke-width="3.749996" fill="none" d="M 38.629532 159.520050 L 40.872349 169.612747 " />
<path stroke-linejoin="round" stroke-linecap="round" stroke="rgb(0,0,255)" stroke-width="1.874998" fill="none" d="M 0.000000 750.000000 L 48.611103 0.000000 " />
<path stroke-linejoin="round" stroke-linecap="round" stroke="rgb(255,0,0)" stroke-width="3.749996" fill="none" d="M 38.352615 158.273941 L 38.629532 159.520050 " />
<path stroke-linejoin="round" stroke-linecap="round" stroke="rgb(0,0,255)" stroke-width="1.874998" fill="none" d="M 0.000000 750.000000 L 48.165142 0.000000 " />
<path stroke-linejoin="round" stroke-linecap="round" stroke="rgb(255,0,0)" stroke-width="3.749996" fill="none" d="M 38.079636 157.045624 L 38.352615 158.273941 " />
<path stroke-linejoin="round" stroke-linecap="round" stroke="rgb(0,0,255)" stroke-width="1.874998" fill="none" d="M 0.000000 750.000000 L 47.727272 0.000000 " />
<path stroke-linejoin="round" stroke-linecap="round" stroke="rgb(255,0,0)" stroke-width="3.749996" fill="none" d="M 37.810520 155.834595 L 38.079636 157.045624 " />
<path stroke-linejoin="round" stroke-linecap="round" stroke="rgb(0,0,255)" stroke-width="1.874998" fill="none" d="M 0.000000 750.000000 L 47.297291 0.000000 " />
<path stroke-linejoin="round" stroke-linecap="round" stroke="rgb(255,0,0)" stroke-width="3.749996" fill="none" d="M 37.545181 154.640610 L 37.810520 155.834595 " />
<path stroke-linejoin="round" stroke-linecap="round" stroke="rgb(0,0,255)" stroke-width="1.874998" fill="none" d="M 0.000000 750.000000 L 46.875000 0.000000 " />
<path stroke-linejoin="round" stroke-linecap="round" stroke="rgb(255,0,0)" stroke-width="3.749996" fill="none" d="M 37.283554 153.463257 L 37.545181 154.640656 " />
<path stroke-linejoin="round" stroke-linecap="round" stroke="rgb(0,0,255)" stroke-width="1.874998" fill="none" d="M 0.000000 750.000000 L 43.333344 0.000000 " />
<path stroke-linejoin="round" stroke-linecap="round" stroke="rgb(255,0,0)" stroke-width="3.749996" fill="none" d="M 35.047844 143.402603 L 37.283554 153.463257 " />
<path stroke-linejoin="round" stroke-linecap="round" stroke="rgb(0,0,255)" stroke-width="1.874998" fill="none" d="M 0.000000 750.000000 L 42.951553 0.000000 " />
<path stroke-linejoin="round" stroke-linecap="round" stroke="rgb(255,0,0)" stroke-width="3.749996" fill="none" d="M 34.802334 142.297806 L 35.047844 143.402603 " />
<path stroke-linejoin="round" stroke-linecap="round" stroke="rgb(0,0,255)" stroke-width="1.874998" fill="none" d="M 0.000000 750.000000 L 40.540539 0.000000 " />
<path stroke-linejoin="round" stroke-linecap="round" stroke="rgb(255,0,0)" stroke-width="3.749996" fill="none" d="M 33.230984 135.226700 L 34.802334 142.297806 " />
<path stroke-linejoin="round" stroke-linecap="round" stroke="rgb(0,0,255)" stroke-width="1.874998" fill="none" d="M 0.000000 750.000000 L 36.995506 0.000000 " />
<path stroke-linejoin="round" stroke-linecap="round" stroke="rgb(255,0,0)" stroke-width="3.749996" fill="none" d="M 30.852982 124.525757 L 33.230984 135.226700 " />
<path stroke-linejoin="round" stroke-linecap="round" stroke="rgb(0,0,255)" stroke-width="1.874998" fill="none" d="M 0.000000 750.000000 L 36.666668 0.000000 " />
<path stroke-linejoin="round" stroke-linecap="round" stroke="rgb(255,0,0)" stroke-width="3.749996" fill="none" d="M 30.628189 123.514160 L 30.852982 124.525757 " />
<path stroke-linejoin="round" stroke-linecap="round" stroke="rgb(0,0,255)" stroke-width="1.874998" fill="none" d="M 0.000000 750.000000 L 33.185833 0.000000 " />
<path stroke-linejoin="round" stroke-linecap="round" stroke="rgb(255,0,0)" stroke-width="3.749996" fill="none" d="M 28.203428 112.602707 L 30.628189 123.514160 " />
<path stroke-linejoin="round" stroke-linecap="round" stroke="rgb(0,0,255)" stroke-width="1.874998" fill="none" d="M 0.000000 750.000000 L 32.894745 0.000000 " />
<path stroke-linejoin="round" stroke-linecap="round" stroke="rgb(255,0,0)" stroke-width="3.749996" fill="none" d="M 27.996809 111.672920 L 28.203428 112.602707 " />
<path stroke-linejoin="round" stroke-linecap="round" stroke="rgb(0,0,255)" stroke-width="1.874998" fill="none" d="M 0.000000 750.000000 L 32.608688 0.000000 " />
<path stroke-linejoin="round" stroke-linecap="round" stroke="rgb(255,0,0)" stroke-width="3.749996" fill="none" d="M 27.793184 110.756638 L 27.996809 111.672920 " />
<path stroke-linejoin="round" stroke-linecap="round" stroke="rgb(0,0,255)" stroke-width="1.874998" fill="none" d="M 0.000000 750.000000 L 32.327591 0.000000 " />
<path stroke-linejoin="round" stroke-linecap="round" stroke="rgb(255,0,0)" stroke-width="3.749996" fill="none" d="M 27.592510 109.853622 L 27.793184 110.756638 " />
<path stroke-linejoin="round" stroke-linecap="round" stroke="rgb(0,0,255)" stroke-width="1.874998" fill="none" d="M 0.000000 750.000000 L 32.051281 0.000000 " />
<path stroke-linejoin="round" stroke-linecap="round" stroke="rgb(255,0,0)" stroke-width="3.749996" fill="none" d="M 27.394720 108.963577 L 27.592510 109.853622 " />
<path stroke-linejoin="round" stroke-linecap="round" stroke="rgb(0,0,255)" stroke-width="1.874998" fill="none" d="M 0.000000 750.000000 L 31.779661 0.000000 " />
<path stroke-linejoin="round" stroke-linecap="round" stroke="rgb(255,0,0)" stroke-width="3.749996" fill="none" d="M 27.199745 108.086182 L 27.394720 108.963623 " />
<path stroke-linejoin="round" stroke-linecap="round" stroke="rgb(0,0,255)" stroke-width="1.874998" fill="none" d="M 0.000000 750.000000 L 31.512604 0.000000 " />
<path stroke-linejoin="round" stroke-linecap="round" stroke="rgb(255,0,0)" stroke-width="3.749996" fill="none" d="M 27.007521 107.221169 L 27.199745 108.086182 " />
<path stroke-linejoin="round" stroke-linecap="round" stroke="rgb(0,0,255)" stroke-width="1.874998" fill="none" d="M 0.000000 750.000000 L 28.481014 0.000000 " />
<path stroke-linejoin="round" stroke-linecap="round" stroke="rgb(255,0,0)" stroke-width="3.749996" fill="none" d="M 24.788528 97.235710 L 27.007521 107.221169 " />
<path stroke-linejoin="round" stroke-linecap="round" stroke="rgb(0,0,255)" stroke-width="1.874998" fill="none" d="M 0.000000 750.000000 L 25.210083 0.000000 " />
<path stroke-linejoin="round" stroke-linecap="round" stroke="rgb(255,0,0)" stroke-width="3.749996" fill="none" d="M 22.315689 86.108032 L 24.788528 97.235710 " />
<path stroke-linejoin="round" stroke-linecap="round" stroke="rgb(0,0,255)" stroke-width="1.874998" fill="none" d="M 0.000000 750.000000 L 21.966532 0.000000 " />
<path stroke-linejoin="round" stroke-linecap="round" stroke="rgb(255,0,0)" stroke-width="3.749996" fill="none" d="M 19.778877 74.692368 L 22.315689 86.108032 " />
<path stroke-linejoin="round" stroke-linecap="round" stroke="rgb(0,0,255)" stroke-width="1.874998" fill="none" d="M 0.000000 750.000000 L 18.750004 0.000000 " />
<path stroke-linejoin="round" stroke-linecap="round" stroke="rgb(255,0,0)" stroke-width="3.749996" fill="none" d="M 17.175570 62.977417 L 19.778877 74.692368 " />
<path stroke-linejoin="round" stroke-linecap="round" stroke="rgb(0,0,255)" stroke-width="1.874998" fill="none" d="M 0.000000 750.000000 L 18.595039 0.000000 " />
<path stroke-linejoin="round" stroke-linecap="round" stroke="rgb(255,0,0)" stroke-width="3.749996" fill="none" d="M 17.047874 62.402802 L 17.175570 62.977417 " />
<path stroke-linejoin="round" stroke-linecap="round" stroke="rgb(0,0,255)" stroke-width="1.874998" fill="none" d="M 0.000000 750.000000 L 18.145166 0.000000 " />
<path stroke-linejoin="round" stroke-linecap="round" stroke="rgb(255,0,0)" stroke-width="3.749996" fill="none" d="M 16.675919 60.728966 L 17.047874 62.402802 " />
<path stroke-linejoin="round" stroke-linecap="round" stroke="rgb(0,0,255)" stroke-width="1.874998" fill="none" d="M 0.000000 750.000000 L 17.999992 0.000000 " />
<path stroke-linejoin="round" stroke-linecap="round" stroke="rgb(255,0,0)" stroke-width="3.749996" fill="none" d="M 16.555510 60.187206 L 16.675919 60.728966 " />
<path stroke-linejoin="round" stroke-linecap="round" stroke="rgb(0,0,255)" stroke-width="1.874998" fill="none" d="M 0.000000 750.000000 L 17.578125 0.000000 " />
<path stroke-linejoin="round" stroke-linecap="round" stroke="rgb(255,0,0)" stroke-width="3.749996" fill="none" d="M 16.204498 58.607742 L 16.555510 60.187206 " />
<path stroke-linejoin="round" stroke-linecap="round" stroke="rgb(0,0,255)" stroke-width="1.874998" fill="none" d="M 0.000000 750.000000 L 17.441868 0.000000 " />
<path stroke-linejoin="round" stroke-linecap="round" stroke="rgb(255,0,0)" stroke-width="3.749996" fill="none" d="M 16.090796 58.095978 L 16.204498 58.607742 " />
<path stroke-linejoin="round" stroke-linecap="round" stroke="rgb(0,0,255)" stroke-width="1.874998" fill="none" d="M 0.000000 750.000000 L 14.822133 0.000000 " />
<path stroke-linejoin="round" stroke-linecap="round" stroke="rgb(255,0,0)" stroke-width="3.749996" fill="none" d="M 13.871379 48.108593 L 16.090796 58.095932 " />
<path stroke-linejoin="round" stroke-linecap="round" stroke="rgb(0,0,255)" stroke-width="1.874998" fill="none" d="M 0.000000 750.000000 L 11.811018 0.000000 " />
<path stroke-linejoin="round" stroke-linecap="round" stroke="rgb(255,0,0)" stroke-width="3.749996" fill="none" d="M 11.239886 36.266907 L 13.871379 48.108593 " />
<path stroke-linejoin="round" stroke-linecap="round" stroke="rgb(0,0,255)" stroke-width="1.874998" fill="none" d="M 0.000000 750.000000 L 11.718750 0.000000 " />
<path stroke-linejoin="round" stroke-linecap="round" stroke="rgb(255,0,0)" stroke-width="3.749996" fill="none" d="M 11.157855 35.897701 L 11.239886 36.266907 " />
<path stroke-linejoin="round" stroke-linecap="round" stroke="rgb(0,0,255)" stroke-width="1.874998" fill="none" d="M 0.000000 750.000000 L 11.627913 0.000000 " />
<path stroke-linejoin="round" stroke-linecap="round" stroke="rgb(255,0,0)" stroke-width="3.749996" fill="none" d="M 11.076986 35.533905 L 11.157855 35.897701 " />
<path stroke-linejoin="round" stroke-linecap="round" stroke="rgb(0,0,255)" stroke-width="1.874998" fill="none" d="M 0.000000 750.000000 L 11.450373 0.000000 " />
<path stroke-linejoin="round" stroke-linecap="round" stroke="rgb(255,0,0)" stroke-width="3.749996" fill="none" d="M 10.918758 34.821869 L 11.076986 35.533905 " />
<path stroke-linejoin="round" stroke-linecap="round" stroke="rgb(0,0,255)" stroke-width="1.874998" fill="none" d="M 0.000000 750.000000 L 11.363626 0.000000 " />
<path stroke-linejoin="round" stroke-linecap="round" stroke="rgb(255,0,0)" stroke-width="3.749996" fill="none" d="M 10.841311 34.473404 L 10.918758 34.821869 " />
<path stroke-linejoin="round" stroke-linecap="round" stroke="rgb(0,0,255)" stroke-width="1.874998" fill="none" d="M 0.000000 750.000000 L 11.278197 0.000000 " />
<path stroke-linejoin="round" stroke-linecap="round" stroke="rgb(255,0,0)" stroke-width="3.749996" fill="none" d="M 10.764956 34.129768 L 10.841311 34.473404 " />
<path stroke-linejoin="round" stroke-linecap="round" stroke="rgb(0,0,255)" stroke-width="1.874998" fill="none" d="M 0.000000 750.000000 L 11.111118 0.000000 " />
<path stroke-linejoin="round" stroke-linecap="round" stroke="rgb(255,0,0)" stroke-width="3.749996" fill="none" d="M 10.615446 33.456982 L 10.764956 34.129768 " />
<path stroke-linejoin="round" stroke-linecap="round" stroke="rgb(0,0,255)" stroke-width="1.874998" fill="none" d="M 0.000000 750.000000 L 11.029423 0.000000 " />
<path stroke-linejoin="round" stroke-linecap="round" stroke="rgb(255,0,0)" stroke-width="3.749996" fill="none" d="M 10.542244 33.127560 L 10.615446 33.456982 " />
<path stroke-linejoin="round" stroke-linecap="round" stroke="rgb(0,0,255)" stroke-width="1.874998" fill="none" d="M 0.000000 750.000000 L 8.687250 0.000000 " />
<path stroke-linejoin="round" stroke-linecap="round" stroke="rgb(255,0,0)" stroke-width="3.749996" fill="none" d="M 8.400030 24.796619 L 10.542244 33.127472 " />
<path stroke-linejoin="round" stroke-linecap="round" stroke="rgb(0,0,255)" stroke-width="1.874998" fill="none" d="M 0.000000 750.000000 L 8.620687 0.000000 " />
<path stroke-linejoin="round" stroke-linecap="round" stroke="rgb(255,0,0)" stroke-width="3.749996" fill="none" d="M 8.338831 24.521246 L 8.400030 24.796619 " />
<path stroke-linejoin="round" stroke-linecap="round" stroke="rgb(0,0,255)" stroke-width="1.874998" fill="none" d="M 0.000000 750.000000 L 5.725197 0.000000 " />
<path stroke-linejoin="round" stroke-linecap="round" stroke="rgb(255,0,0)" stroke-width="3.749996" fill="none" d="M 5.590930 17.589390 L 8.338831 24.521292 " />
<path stroke-linejoin="round" stroke-linecap="round" stroke="rgb(0,0,255)" stroke-width="1.874998" fill="none" d="M 0.000000 750.000000 L 2.851702 0.000000 " />
<path stroke-linejoin="round" stroke-linecap="round" stroke="rgb(255,0,0)" stroke-width="3.749996" fill="none" d="M 2.806954 11.768818 L 5.590930 17.589390 " />
<path stroke-linejoin="round" stroke-linecap="round" stroke="rgb(0,0,255)" stroke-width="1.874998" fill="none" d="M 0.000000 750.000000 L 0.000000 0.000000 " />
<path stroke-linejoin="round" stroke-linecap="round" stroke="rgb(255,0,0)" stroke-width="3.749996" fill="none" d="M 0.000000 0.000000 L 2.806954 11.768818 " />
<circle cx="91.997668" cy="723.714955" r="3.749996" style="fill:rgb(0,127,0);stroke-width:1" /><circle cx="89.695327" cy="697.238043" r="3.749996" style="fill:rgb(0,127,0);stroke-width:1" /><circle cx="87.376110" cy="670.567162" r="3.749996" style="fill:rgb(0,127,0);stroke-width:1" /><circle cx="85.039862" cy="643.700168" r="3.749996" style="fill:rgb(0,127,0);stroke-width:1" /><circle cx="82.686335" cy="616.634935" r="3.749996" style="fill:rgb(0,127,0);stroke-width:1" /><circle cx="80.315396" cy="589.369185" r="3.749996" style="fill:rgb(0,127,0);stroke-width:1" /><circle cx="78.808911" cy="572.044417" r="3.749996" style="fill:rgb(0,127,0);stroke-width:1" /><circle cx="77.926844" cy="561.900727" r="3.749996" style="fill:rgb(0,127,0);stroke-width:1" /><circle cx="76.535851" cy="545.904368" r="3.749996" style="fill:rgb(0,127,0);stroke-width:1" /><circle cx="75.520456" cy="534.227282" r="3.749996" style="fill:rgb(0,127,0);stroke-width:1" /><circle cx="73.096029" cy="506.346546" r="3.749996" style="fill:rgb(0,127,0);stroke-width:1" /><circle cx="70.653409" cy="478.256173" r="3.749996" style="fill:rgb(0,127,0);stroke-width:1" /><circle cx="68.192326" cy="449.953794" r="3.749996" style="fill:rgb(0,127,0);stroke-width:1" /><circle cx="67.280911" cy="439.472727" r="3.749996" style="fill:rgb(0,127,0);stroke-width:1" /><circle cx="64.925618" cy="412.386820" r="3.749996" style="fill:rgb(0,127,0);stroke-width:1" /><circle cx="64.215727" cy="404.223025" r="3.749996" style="fill:rgb(0,127,0);stroke-width:1" /><circle cx="62.553316" cy="385.105580" r="3.749996" style="fill:rgb(0,127,0);stroke-width:1" /><circle cx="60.163870" cy="357.626930" r="3.749996" style="fill:rgb(0,127,0);stroke-width:1" /><circle cx="57.757057" cy="329.948679" r="3.749996" style="fill:rgb(0,127,0);stroke-width:1" /><circle cx="57.394534" cy="325.779542" r="3.749996" style="fill:rgb(0,127,0);stroke-width:1" /><circle cx="55.332698" cy="302.068591" r="3.749996" style="fill:rgb(0,127,0);stroke-width:1" /><circle cx="55.089287" cy="299.269438" r="3.749996" style="fill:rgb(0,127,0);stroke-width:1" /><circle cx="52.890614" cy="273.984522" r="3.749996" style="fill:rgb(0,127,0);stroke-width:1" /><circle cx="50.430581" cy="245.694190" r="3.749996" style="fill:rgb(0,127,0);stroke-width:1" /><circle cx="48.076764" cy="218.625292" r="3.749996" style="fill:rgb(0,127,0);stroke-width:1" /><circle cx="45.706406" cy="191.366136" r="3.749996" style="fill:rgb(0,127,0);stroke-width:1" /><circle cx="45.510739" cy="190.485567" r="3.749996" style="fill:rgb(0,127,0);stroke-width:1" /><circle cx="43.365262" cy="180.830911" r="3.749996" style="fill:rgb(0,127,0);stroke-width:1" /><circle cx="43.059871" cy="179.456592" r="3.749996" style="fill:rgb(0,127,0);stroke-width:1" /><circle cx="42.758770" cy="178.101540" r="3.749996" style="fill:rgb(0,127,0);stroke-width:1" /><circle cx="40.872350" cy="169.612706" r="3.749996" style="fill:rgb(0,127,0);stroke-width:1" /><circle cx="38.629532" cy="159.520045" r="3.749996" style="fill:rgb(0,127,0);stroke-width:1" /><circle cx="38.352616" cy="158.273935" r="3.749996" style="fill:rgb(0,127,0);stroke-width:1" /><circle cx="38.079634" cy="157.045618" r="3.749996" style="fill:rgb(0,127,0);stroke-width:1" /><circle cx="37.810519" cy="155.834600" r="3.749996" style="fill:rgb(0,127,0);stroke-width:1" /><circle cx="37.545182" cy="154.640615" r="3.749996" style="fill:rgb(0,127,0);stroke-width:1" /><circle cx="37.283555" cy="153.463259" r="3.749996" style="fill:rgb(0,127,0);stroke-width:1" /><circle cx="35.047844" cy="143.402606" r="3.749996" style="fill:rgb(0,127,0);stroke-width:1" /><circle cx="34.802333" cy="142.297804" r="3.749996" style="fill:rgb(0,127,0);stroke-width:1" /><circle cx="33.230983" cy="135.226697" r="3.749996" style="fill:rgb(0,127,0);stroke-width:1" /><circle cx="30.852981" cy="124.525756" r="3.749996" style="fill:rgb(0,127,0);stroke-width:1" /><circle cx="30.628189" cy="123.514161" r="3.749996" style="fill:rgb(0,127,0);stroke-width:1" /><circle cx="28.203428" cy="112.602711" r="3.749996" style="fill:rgb(0,127,0);stroke-width:1" /><circle cx="27.996808" cy="111.672923" r="3.749996" style="fill:rgb(0,127,0);stroke-width:1" /><circle cx="27.793184" cy="110.756636" r="3.749996" style="fill:rgb(0,127,0);stroke-width:1" /><circle cx="27.592510" cy="109.853625" r="3.749996" style="fill:rgb(0,127,0);stroke-width:1" /><circle cx="27.394719" cy="108.963579" r="3.749996" style="fill:rgb(0,127,0);stroke-width:1" /><circle cx="27.199745" cy="108.086184" r="3.749996" style="fill:rgb(0,127,0);stroke-width:1" /><circle cx="27.007520" cy="107.221171" r="3.749996" style="fill:rgb(0,127,0);stroke-width:1" /><circle cx="24.788529" cy="97.235709" r="3.749996" style="fill:rgb(0,127,0);stroke-width:1" /><circle cx="22.315688" cy="86.108029" r="3.749996" style="fill:rgb(0,127,0);stroke-width:1" /><circle cx="19.778877" cy="74.692369" r="3.749996" style="fill:rgb(0,127,0);stroke-width:1" /><circle cx="17.175570" cy="62.977418" r="3.749996" style="fill:rgb(0,127,0);stroke-width:1" /><circle cx="17.047875" cy="62.402800" r="3.749996" style="fill:rgb(0,127,0);stroke-width:1" /><circle cx="16.675919" cy="60.728967" r="3.749996" style="fill:rgb(0,127,0);stroke-width:1" /><circle cx="16.555510" cy="60.187206" r="3.749996" style="fill:rgb(0,127,0);stroke-width:1" /><circle cx="16.204499" cy="58.607742" r="3.749996" style="fill:rgb(0,127,0);stroke-width:1" /><circle cx="16.090795" cy="58.095977" r="3.749996" style="fill:rgb(0,127,0);stroke-width:1" /><circle cx="13.871379" cy="48.108593" r="3.749996" style="fill:rgb(0,127,0);stroke-width:1" /><circle cx="11.239886" cy="36.266908" r="3.749996" style="fill:rgb(0,127,0);stroke-width:1" /><circle cx="11.157855" cy="35.897702" r="3.749996" style="fill:rgb(0,127,0);stroke-width:1" /><circle cx="11.076987" cy="35.533905" r="3.749996" style="fill:rgb(0,127,0);stroke-width:1" /><circle cx="10.918759" cy="34.821868" r="3.749996" style="fill:rgb(0,127,0);stroke-width:1" /><circle cx="10.841310" cy="34.473404" r="3.749996" style="fill:rgb(0,127,0);stroke-width:1" /><circle cx="10.764956" cy="34.129769" r="3.749996" style="fill:rgb(0,127,0);stroke-width:1" /><circle cx="10.615446" cy="33.456981" r="3.749996" style="fill:rgb(0,127,0);stroke-width:1" /><circle cx="10.542244" cy="33.127561" r="3.749996" style="fill:rgb(0,127,0);stroke-width:1" /><circle cx="8.400030" cy="24.796620" r="3.749996" style="fill:rgb(0,127,0);stroke-width:1" /><circle cx="8.338831" cy="24.521247" r="3.749996" style="fill:rgb(0,127,0);stroke-width:1" /><circle cx="5.590931" cy="17.589390" r="3.749996" style="fill:rgb(0,127,0);stroke-width:1" /><circle cx="2.806932" cy="11.768818" r="3.750008" style="fill:rgb(0,127,0);stroke-width:1" /><circle cx="750.000000" cy="750.000000" r="3.749996" style="fill:rgb(0,127,0);stroke-width:1" /><path stroke-linejoin="round" stroke-linecap="round" stroke="rgb(255,255,255)" stroke-width="3.749996" fill="none" d="M 0.000000 750.000000 L 750.000000 750.000000 M 0.000000 750.000000 L 0.000000 0.000000 " />

</svg>