<svg xmlns="http://www.w3.org/2000/svg" version="1.1" width = "750" height = "750" viewBox = "0 0 750 750"  shape-rendering="crispEdges">
<path stroke-linejoin="round" stroke-linecap="round" stroke="rgb(255,255,0)" stroke-width="3.749996" fill="none" d="M 249.999985 750.000000 L 0.000000 0.000000 " />
<path stroke-linejoin="round" stroke-linecap="round" stroke="rgb(63,63,63)" stroke-width="3.749996" fill="none" d="M 0.000000 0.000000 L 750.000000 750.000000 M 249.999985 750.000000 L 99.999992 0.000000 " />
<path stroke-linejoin="round" stroke-linecap="round" stroke="rgb(191,191,191)" stroke-width="3.749996" fill="none" d="M 0.000000 500.000000 L 249.999985 750.000000 M 0.000000 0.000000 L 150.000015 750.000000 " />
<path stroke-linejoin="round" stroke-linecap="round" stroke="rgb(0,0,255)" stroke-width="1.874998" fill="none" d="M 0.000000 750.000000 L 750.000000 731.707336 " />
<path stroke-linejoin="round" stroke-linecap="round" stroke="rgb(255,0,0)" stroke-width="3.749996" fill="none" d="M 248.786423 743.932068 L 249.999985 750.000000 " />
<path stroke-linejoin="round" stroke-linecap="round" stroke="rgb(0,0,255)" stroke-width="1.874998" fill="none" d="M 0.000000 750.000000 L 750.000000 712.500000 " />
<path stroke-linejoin="round" stroke-linecap="round" stroke="rgb(255,0,0)" stroke-width="3.749996" fill="none" d="M 242.718460 737.864075 L 248.786423 743.932068 " />
<path stroke-linejoin="round" stroke-linecap="round" stroke="rgb(0,0,255)" stroke-width="1.874998" fill="none" d="M 0.000000 750.000000 L 750.000000 692.307678 " />
<path stroke-linejoin="round" stroke-linecap="round" stroke="rgb(255,0,0)" stroke-width="3.749996" fill="none" d="M 236.650497 731.796143 L 242.718506 737.864075 " />
<path stroke-linejoin="round" stroke-linecap="round" stroke="rgb(0,0,255)" stroke-width="1.874998" fill="none" d="M 0.000000 750.000000 L 750.000000 675.000000 " />
<path stroke-linejoin="round" stroke-linecap="round" stroke="rgb(255,0,0)" stroke-width="3.749996" fill="none" d="M 231.685822 726.831421 L 236.650497 731.796143 " />
<path stroke-linejoin="round" stroke-linecap="round" stroke="rgb(0,0,255)" stroke-width="1.874998" fill="none" d="M 0.000000 750.000000 L 750.000000 653.846130 " />
<path stroke-linejoin="round" stroke-linecap="round" stroke="rgb(255,0,0)" stroke-width="3.749996" fill="none" d="M 225.893677 721.039307 L 231.685822 726.831421 " />
<path stroke-linejoin="round" stroke-linecap="round" stroke="rgb(0,0,255)" stroke-width="1.874998" fill="none" d="M 0.000000 750.000000 L 750.000000 631.578979 " />
<path stroke-linejoin="round" stroke-linecap="round" stroke="rgb(255,0,0)" stroke-width="3.749996" fill="none" d="M 220.101486 715.247131 L 225.893677 721.039307 " />
<path stroke-linejoin="round" stroke-linecap="round" stroke="rgb(0,0,255)" stroke-width="1.874998" fill="none" d="M 0.000000 750.000000 L 750.000000 608.108093 " />
<path stroke-linejoin="round" stroke-linecap="round" stroke="rgb(255,0,0)" stroke-width="3.749996" fill="none" d="M 214.309357 709.455017 L 220.101486 715.247131 " />
<path stroke-linejoin="round" stroke-linecap="round" stroke="rgb(0,0,255)" stroke-width="1.874998" fill="none" d="M 0.000000 750.000000 L 750.000000 583.333313 " />
<path stroke-linejoin="round" stroke-linecap="round" stroke="rgb(255,0,0)" stroke-width="3.749996" fill="none" d="M 208.517212 703.662842 L 214.309357 709.455017 " />
<path stroke-linejoin="round" stroke-linecap="round" stroke="rgb(0,0,255)" stroke-width="1.874998" fill="none" d="M 0.000000 750.000000 L 750.000000 557.142822 " />
<path stroke-linejoin="round" stroke-linecap="round" stroke="rgb(255,0,0)" stroke-width="3.749996" fill="none" d="M 202.725067 697.870667 L 208.517212 703.662842 " />
<path stroke-linejoin="round" stroke-linecap="round" stroke="rgb(0,0,255)" stroke-width="1.874998" fill="none" d="M 0.000000 750.000000 L 750.000000 529.411743 " />
<path stroke-linejoin="round" stroke-linecap="round" stroke="rgb(255,0,0)" stroke-width="3.749996" fill="none" d="M 196.932922 692.078552 L 202.725067 697.870667 " />
<path stroke-linejoin="round" stroke-linecap="round" stroke="rgb(0,0,255)" stroke-width="1.874998" fill="none" d="M 0.000000 750.000000 L 750.000000 499.999969 " />
<path stroke-linejoin="round" stroke-linecap="round" stroke="rgb(255,0,0)" stroke-width="3.749996" fill="none" d="M 191.140793 686.286377 L 196.932922 692.078552 " />
<path stroke-linejoin="round" stroke-linecap="round" stroke="rgb(0,0,255)" stroke-width="1.874998" fill="none" d="M 0.000000 750.000000 L 750.000000 485.294128 " />
<path stroke-linejoin="round" stroke-linecap="round" stroke="rgb(255,0,0)" stroke-width="3.749996" fill="none" d="M 188.370651 683.516235 L 191.140793 686.286377 " />
<path stroke-linejoin="round" stroke-linecap="round" stroke="rgb(0,0,255)" stroke-width="1.874998" fill="none" d="M 0.000000 750.000000 L 750.000000 468.750000 " />
<path stroke-linejoin="round" stroke-linecap="round" stroke="rgb(255,0,0)" stroke-width="3.749996" fill="none" d="M 185.348663 680.494202 L 188.370651 683.516235 " />
<path stroke-linejoin="round" stroke-linecap="round" stroke="rgb(0,0,255)" stroke-width="1.874998" fill="none" d="M 0.000000 750.000000 L 750.000000 435.483917 " />
<path stroke-linejoin="round" stroke-linecap="round" stroke="rgb(255,0,0)" stroke-width="3.749996" fill="none" d="M 179.556549 674.702087 L 185.348694 680.494202 " />
<path stroke-linejoin="round" stroke-linecap="round" stroke="rgb(0,0,255)" stroke-width="1.874998" fill="none" d="M 0.000000 750.000000 L 750.000000 421.875000 " />
<path stroke-linejoin="round" stroke-linecap="round" stroke="rgb(255,0,0)" stroke-width="3.749996" fill="none" d="M 177.290054 672.435608 L 179.556549 674.702087 " />
<path stroke-linejoin="round" stroke-linecap="round" stroke="rgb(0,0,255)" stroke-width="1.874998" fill="none" d="M 0.000000 750.000000 L 750.000000 387.096771 " />
<path stroke-linejoin="round" stroke-linecap="round" stroke="rgb(255,0,0)" stroke-width="3.749996" fill="none" d="M 171.749741 666.895264 L 177.290054 672.435608 " />
<path stroke-linejoin="round" stroke-linecap="round" stroke="rgb(0,0,255)" stroke-width="1.874998" fill="none" d="M 0.000000 750.000000 L 750.000000 349.999969 " />
<path stroke-linejoin="round" stroke-linecap="round" stroke="rgb(255,0,0)" stroke-width="3.749996" fill="none" d="M 166.209412 661.354980 L 171.749741 666.895264 " />
<path stroke-linejoin="round" stroke-linecap="round" stroke="rgb(0,0,255)" stroke-width="1.874998" fill="none" d="M 0.000000 750.000000 L 750.000000 338.709656 " />
<path stroke-linejoin="round" stroke-linecap="round" stroke="rgb(255,0,0)" stroke-width="3.749996" fill="none" d="M 164.593506 659.739014 L 166.209412 661.354980 " />
<path stroke-linejoin="round" stroke-linecap="round" stroke="rgb(0,0,255)" stroke-width="1.874998" fill="none" d="M 0.000000 750.000000 L 750.000000 310.344818 " />
<path stroke-linejoin="round" stroke-linecap="round" stroke="rgb(255,0,0)" stroke-width="3.749996" fill="none" d="M 160.669098 655.814697 L 164.593506 659.739014 " />
<path stroke-linejoin="round" stroke-linecap="round" stroke="rgb(0,0,255)" stroke-width="1.874998" fill="none" d="M 0.000000 750.000000 L 750.000000 299.999969 " />
<path stroke-linejoin="round" stroke-linecap="round" stroke="rgb(255,0,0)" stroke-width="3.749996" fill="none" d="M 159.284027 654.429565 L 160.669098 655.814697 " />
<path stroke-linejoin="round" stroke-linecap="round" stroke="rgb(0,0,255)" stroke-width="1.874998" fill="none" d="M 0.000000 750.000000 L 750.000000 267.857147 " />
<path stroke-linejoin="round" stroke-linecap="round" stroke="rgb(255,0,0)" stroke-width="3.749996" fill="none" d="M 155.128799 650.274292 L 159.284027 654.429565 " />
<path stroke-linejoin="round" stroke-linecap="round" stroke="rgb(0,0,255)" stroke-width="1.874998" fill="none" d="M 0.000000 750.000000 L 750.000000 258.620697 " />
<path stroke-linejoin="round" stroke-linecap="round" stroke="rgb(255,0,0)" stroke-width="3.749996" fill="none" d="M 153.974579 649.120117 L 155.128799 650.274292 " />
<path stroke-linejoin="round" stroke-linecap="round" stroke="rgb(0,0,255)" stroke-width="1.874998" fill="none" d="M 0.000000 750.000000 L 750.000000 222.222229 " />
<path stroke-linejoin="round" stroke-linecap="round" stroke="rgb(255,0,0)" stroke-width="3.749996" fill="none" d="M 149.588516 644.734009 L 153.974579 649.120117 " />
<path stroke-linejoin="round" stroke-linecap="round" stroke="rgb(0,0,255)" stroke-width="1.874998" fill="none" d="M 0.000000 750.000000 L 750.000000 173.076920 " />
<path stroke-linejoin="round" stroke-linecap="round" stroke="rgb(255,0,0)" stroke-width="3.749996" fill="none" d="M 144.048187 639.193726 L 149.588516 644.734009 " />
<path stroke-linejoin="round" stroke-linecap="round" stroke="rgb(0,0,255)" stroke-width="1.874998" fill="none" d="M 0.000000 750.000000 L 750.000000 166.666656 " />
<path stroke-linejoin="round" stroke-linecap="round" stroke="rgb(255,0,0)" stroke-width="3.749996" fill="none" d="M 143.355667 638.501160 L 144.048187 639.193726 " />
<path stroke-linejoin="round" stroke-linecap="round" stroke="rgb(0,0,255)" stroke-width="1.874998" fill="none" d="M 0.000000 750.000000 L 750.000000 120.000023 " />
<path stroke-linejoin="round" stroke-linecap="round" stroke="rgb(255,0,0)" stroke-width="3.749996" fill="none" d="M 138.507904 633.653381 L 143.355667 638.501160 " />
<path stroke-linejoin="round" stroke-linecap="round" stroke="rgb(0,0,255)" stroke-width="1.874998" fill="none" d="M 0.000000 750.000000 L 750.000000 62.499985 " />
<path stroke-linejoin="round" stroke-linecap="round" stroke="rgb(255,0,0)" stroke-width="3.749996" fill="none" d="M 132.967590 628.113037 L 138.507904 633.653381 " />
<path stroke-linejoin="round" stroke-linecap="round" stroke="rgb(0,0,255)" stroke-width="1.874998" fill="none" d="M 0.000000 750.000000 L 750.000000 0.000000 " />
<path stroke-linejoin="round" stroke-linecap="round" stroke="rgb(255,0,0)" stroke-width="3.749996" fill="none" d="M 127.427261 622.572693 L 132.967590 628.113037 " />
<path stroke-linejoin="round" stroke-linecap="round" stroke="rgb(0,0,255)" stroke-width="1.874998" fill="none" d="M 0.000000 750.000000 L 687.500000 0.000000 " />
<path stroke-linejoin="round" stroke-linecap="round" stroke="rgb(255,0,0)" stroke-width="3.749996" fill="none" d="M 123.134338 615.671692 L 127.427261 622.572693 " />
<path stroke-linejoin="round" stroke-linecap="round" stroke="rgb(0,0,255)" stroke-width="1.874998" fill="none" d="M 0.000000 750.000000 L 634.615417 0.000000 " />
<path stroke-linejoin="round" stroke-linecap="round" stroke="rgb(255,0,0)" stroke-width="3.749996" fill="none" d="M 121.323532 606.617615 L 123.134338 615.671692 " />
<path stroke-linejoin="round" stroke-linecap="round" stroke="rgb(0,0,255)" stroke-width="1.874998" fill="none" d="M 0.000000 750.000000 L 583.333313 0.000000 " />
<path stroke-linejoin="round" stroke-linecap="round" stroke="rgb(255,0,0)" stroke-width="3.749996" fill="none" d="M 119.318176 596.590881 L 121.323532 606.617615 " />
<path stroke-linejoin="round" stroke-linecap="round" stroke="rgb(0,0,255)" stroke-width="1.874998" fill="none" d="M 0.000000 750.000000 L 535.714294 0.000000 " />
<path stroke-linejoin="round" stroke-linecap="round" stroke="rgb(255,0,0)" stroke-width="3.749996" fill="none" d="M 117.187500 585.937500 L 119.318176 596.590881 " />
<path stroke-linejoin="round" stroke-linecap="round" stroke="rgb(0,0,255)" stroke-width="1.874998" fill="none" d="M 0.000000 750.000000 L 500.000000 0.000000 " />
<path stroke-linejoin="round" stroke-linecap="round" stroke="rgb(255,0,0)" stroke-width="3.749996" fill="none" d="M 115.384605 576.923157 L 117.187477 585.937500 " />
<path stroke-linejoin="round" stroke-linecap="round" stroke="rgb(0,0,255)" stroke-width="1.874998" fill="none" d="M 0.000000 750.000000 L 459.677429 0.000000 " />
<path stroke-linejoin="round" stroke-linecap="round" stroke="rgb(255,0,0)" stroke-width="3.749996" fill="none" d="M 113.095230 565.476196 L 115.384605 576.923157 " />
<path stroke-linejoin="round" stroke-linecap="round" stroke="rgb(0,0,255)" stroke-width="1.874998" fill="none" d="M 0.000000 750.000000 L 421.875000 0.000000 " />
<path stroke-linejoin="round" stroke-linecap="round" stroke="rgb(255,0,0)" stroke-width="3.749996" fill="none" d="M 110.655716 553.278687 L 113.095230 565.476196 " />
<path stroke-linejoin="round" stroke-linecap="round" stroke="rgb(0,0,255)" stroke-width="1.874998" fill="none" d="M 0.000000 750.000000 L 397.058838 0.000000 " />
<path stroke-linejoin="round" stroke-linecap="round" stroke="rgb(255,0,0)" stroke-width="3.749996" fill="none" d="M 108.870956 544.354858 L 110.655716 553.278687 " />
<path stroke-linejoin="round" stroke-linecap="round" stroke="rgb(0,0,255)" stroke-width="1.874998" fill="none" d="M 0.000000 750.000000 L 375.000000 0.000000 " />
<path stroke-linejoin="round" stroke-linecap="round" stroke="rgb(255,0,0)" stroke-width="3.749996" fill="none" d="M 107.142853 535.714294 L 108.870956 544.354858 " />
<path stroke-linejoin="round" stroke-linecap="round" stroke="rgb(0,0,255)" stroke-width="1.874998" fill="none" d="M 0.000000 750.000000 L 344.594604 0.000000 " />
<path stroke-linejoin="round" stroke-linecap="round" stroke="rgb(255,0,0)" stroke-width="3.749996" fill="none" d="M 104.508186 522.541016 L 107.142853 535.714294 " />
<path stroke-linejoin="round" stroke-linecap="round" stroke="rgb(0,0,255)" stroke-width="1.874998" fill="none" d="M 0.000000 750.000000 L 315.789490 0.000000 " />
<path stroke-linejoin="round" stroke-linecap="round" stroke="rgb(255,0,0)" stroke-width="3.749996" fill="none" d="M 101.694901 508.474640 L 104.508186 522.541016 " />
<path stroke-linejoin="round" stroke-linecap="round" stroke="rgb(0,0,255)" stroke-width="1.874998" fill="none" d="M 0.000000 750.000000 L 300.000000 0.000000 " />
<path stroke-linejoin="round" stroke-linecap="round" stroke="rgb(255,0,0)" stroke-width="3.749996" fill="none" d="M 99.999992 500.000000 L 101.694901 508.474640 " />
<path stroke-linejoin="round" stroke-linecap="round" stroke="rgb(0,0,255)" stroke-width="1.874998" fill="none" d="M 0.000000 750.000000 L 285.714294 0.000000 " />
<path stroke-linejoin="round" stroke-linecap="round" stroke="rgb(255,0,0)" stroke-width="3.749996" fill="none" d="M 98.360649 491.803314 L 99.999992 500.000000 " />
<path stroke-linejoin="round" stroke-linecap="round" stroke="rgb(0,0,255)" stroke-width="1.874998" fill="none" d="M 0.000000 750.000000 L 261.627930 0.000000 " />
<path stroke-linejoin="round" stroke-linecap="round" stroke="rgb(255,0,0)" stroke-width="3.749996" fill="none" d="M 95.338966 476.694977 L 98.360649 491.803314 " />
<path stroke-linejoin="round" stroke-linecap="round" stroke="rgb(0,0,255)" stroke-width="1.874998" fill="none" d="M 0.000000 750.000000 L 238.636353 0.000000 " />
<path stroke-linejoin="round" stroke-linecap="round" stroke="rgb(255,0,0)" stroke-width="3.749996" fill="none" d="M 92.105270 460.526306 L 95.338966 476.694977 " />
<path stroke-linejoin="round" stroke-linecap="round" stroke="rgb(0,0,255)" stroke-width="1.874998" fill="none" d="M 0.000000 750.000000 L 228.260864 0.000000 " />
<path stroke-linejoin="round" stroke-linecap="round" stroke="rgb(255,0,0)" stroke-width="3.749996" fill="none" d="M 90.517242 452.586151 L 92.105270 460.526306 " />
<path stroke-linejoin="round" stroke-linecap="round" stroke="rgb(0,0,255)" stroke-width="1.874998" fill="none" d="M 0.000000 750.000000 L 207.446808 0.000000 " />
<path stroke-linejoin="round" stroke-linecap="round" stroke="rgb(255,0,0)" stroke-width="3.749996" fill="none" d="M 87.053574 435.267853 L 90.517242 452.586212 " />
<path stroke-linejoin="round" stroke-linecap="round" stroke="rgb(0,0,255)" stroke-width="1.874998" fill="none" d="M 0.000000 750.000000 L 187.500000 0.000000 " />
<path stroke-linejoin="round" stroke-linecap="round" stroke="rgb(255,0,0)" stroke-width="3.749996" fill="none" d="M 83.333328 416.666656 L 87.053551 435.267883 " />
<path stroke-linejoin="round" stroke-linecap="round" stroke="rgb(0,0,255)" stroke-width="1.874998" fill="none" d="M 0.000000 750.000000 L 180.000000 0.000000 " />
<path stroke-linejoin="round" stroke-linecap="round" stroke="rgb(255,0,0)" stroke-width="3.749996" fill="none" d="M 81.818192 409.090912 L 83.333328 416.666656 " />
<path stroke-linejoin="round" stroke-linecap="round" stroke="rgb(0,0,255)" stroke-width="1.874998" fill="none" d="M 0.000000 750.000000 L 173.076920 0.000000 " />
<path stroke-linejoin="round" stroke-linecap="round" stroke="rgb(255,0,0)" stroke-width="3.749996" fill="none" d="M 80.357147 401.785645 L 81.818192 409.090912 " />
<path stroke-linejoin="round" stroke-linecap="round" stroke="rgb(0,0,255)" stroke-width="1.874998" fill="none" d="M 0.000000 750.000000 L 155.660370 0.000000 " />
<path stroke-linejoin="round" stroke-linecap="round" stroke="rgb(255,0,0)" stroke-width="3.749996" fill="none" d="M 76.388885 381.944458 L 80.357147 401.785645 " />
<path stroke-linejoin="round" stroke-linecap="round" stroke="rgb(0,0,255)" stroke-width="1.874998" fill="none" d="M 0.000000 750.000000 L 149.999985 0.000000 " />
<path stroke-linejoin="round" stroke-linecap="round" stroke="rgb(255,0,0)" stroke-width="3.749996" fill="none" d="M 74.999992 375.000031 L 76.388885 381.944458 " />
<path stroke-linejoin="round" stroke-linecap="round" stroke="rgb(0,0,255)" stroke-width="1.874998" fill="none" d="M 0.000000 750.000000 L 133.928574 0.000000 " />
<path stroke-linejoin="round" stroke-linecap="round" stroke="rgb(255,0,0)" stroke-width="3.749996" fill="none" d="M 70.754707 353.773651 L 74.999992 375.000031 " />
<path stroke-linejoin="round" stroke-linecap="round" stroke="rgb(0,0,255)" stroke-width="1.874998" fill="none" d="M 0.000000 750.000000 L 129.310318 0.000000 " />
<path stroke-linejoin="round" stroke-linecap="round" stroke="rgb(255,0,0)" stroke-width="3.749996" fill="none" d="M 69.444450 347.222229 L 70.754707 353.773651 " />
<path stroke-linejoin="round" stroke-linecap="round" stroke="rgb(0,0,255)" stroke-width="1.874998" fill="none" d="M 0.000000 750.000000 L 125.000015 0.000000 " />
<path stroke-linejoin="round" stroke-linecap="round" stroke="rgb(255,0,0)" stroke-width="3.749996" fill="none" d="M 68.181824 340.909119 L 69.444450 347.222229 " />
<path stroke-linejoin="round" stroke-linecap="round" stroke="rgb(0,0,255)" stroke-width="1.874998" fill="none" d="M 0.000000 750.000000 L 114.406784 0.000000 " />
<path stroke-linejoin="round" stroke-linecap="round" stroke="rgb(255,0,0)" stroke-width="3.749996" fill="none" d="M 64.903847 324.519287 L 68.181824 340.909119 " />
<path stroke-linejoin="round" stroke-linecap="round" stroke="rgb(0,0,255)" stroke-width="1.874998" fill="none" d="M 0.000000 750.000000 L 99.999992 0.000000 " />
<path stroke-linejoin="round" stroke-linecap="round" stroke="rgb(255,0,0)" stroke-width="3.749996" fill="none" d="M 59.999989 300.000061 L 64.903847 324.519287 " />
<path stroke-linejoin="round" stroke-linecap="round" stroke="rgb(0,0,255)" stroke-width="1.874998" fill="none" d="M 0.000000 750.000000 L 86.065559 0.000000 " />
<path stroke-linejoin="round" stroke-linecap="round" stroke="rgb(255,0,0)" stroke-width="3.749996" fill="none" d="M 54.687492 273.437561 L 59.999989 300.000061 " />
<path stroke-linejoin="round" stroke-linecap="round" stroke="rgb(0,0,255)" stroke-width="1.874998" fill="none" d="M 0.000000 750.000000 L 83.333328 0.000000 " />
<path stroke-linejoin="round" stroke-linecap="round" stroke="rgb(255,0,0)" stroke-width="3.749996" fill="none" d="M 53.571426 267.857147 L 54.687492 273.437561 " />
<path stroke-linejoin="round" stroke-linecap="round" stroke="rgb(0,0,255)" stroke-width="1.874998" fill="none" d="M 0.000000 750.000000 L 70.312500 0.000000 " />
<path stroke-linejoin="round" stroke-linecap="round" stroke="rgb(255,0,0)" stroke-width="3.749996" fill="none" d="M 47.872334 239.361755 L 53.571426 267.857147 " />
<path stroke-linejoin="round" stroke-linecap="round" stroke="rgb(0,0,255)" stroke-width="1.874998" fill="none" d="M 0.000000 750.000000 L 68.181824 0.000000 " />
<path stroke-linejoin="round" stroke-linecap="round" stroke="rgb(255,0,0)" stroke-width="3.749996" fill="none" d="M 46.875000 234.375046 L 47.872334 239.361755 " />
<path stroke-linejoin="round" stroke-linecap="round" stroke="rgb(0,0,255)" stroke-width="1.874998" fill="none" d="M 0.000000 750.000000 L 64.285713 0.000000 " />
<path stroke-linejoin="round" stroke-linecap="round" stroke="rgb(255,0,0)" stroke-width="3.749996" fill="none" d="M 45.000000 225.000092 L 46.875000 234.375046 " />
<path stroke-linejoin="round" stroke-linecap="round" stroke="rgb(0,0,255)" stroke-width="1.874998" fill="none" d="M 0.000000 750.000000 L 62.500008 0.000000 " />
<path stroke-linejoin="round" stroke-linecap="round" stroke="rgb(255,0,0)" stroke-width="3.749996" fill="none" d="M 44.117645 220.588318 L 45.000000 225.000092 " />
<path stroke-linejoin="round" stroke-linecap="round" stroke="rgb(0,0,255)" stroke-width="1.874998" fill="none" d="M 0.000000 750.000000 L 56.962029 0.000000 " />
<path stroke-linejoin="round" stroke-linecap="round" stroke="rgb(255,0,0)" stroke-width="3.749996" fill="none" d="M 41.284382 206.422134 L 44.117645 220.588318 " />
<path stroke-linejoin="round" stroke-linecap="round" stroke="rgb(0,0,255)" stroke-width="1.874998" fill="none" d="M 0.000000 750.000000 L 49.999996 0.000000 " />
<path stroke-linejoin="round" stroke-linecap="round" stroke="rgb(255,0,0)" stroke-width="3.749996" fill="none" d="M 37.499985 187.500137 L 41.284382 206.422134 " />
<path stroke-linejoin="round" stroke-linecap="round" stroke="rgb(0,0,255)" stroke-width="1.874998" fill="none" d="M 0.000000 750.000000 L 48.701294 0.000000 " />
<path stroke-linejoin="round" stroke-linecap="round" stroke="rgb(255,0,0)" stroke-width="3.749996" fill="none" d="M 36.764702 183.823578 L 37.499985 187.500137 " />
<path stroke-linejoin="round" stroke-linecap="round" stroke="rgb(0,0,255)" stroke-width="1.874998" fill="none" d="M 0.000000 750.000000 L 34.482746 0.000000 " />
<path stroke-linejoin="round" stroke-linecap="round" stroke="rgb(255,0,0)" stroke-width="3.749996" fill="none" d="M 28.037376 140.187012 L 36.764702 183.823578 " />
<path stroke-linejoin="round" stroke-linecap="round" stroke="rgb(0,0,255)" stroke-width="1.874998" fill="none" d="M 0.000000 750.000000 L 32.967030 0.000000 " />
<path stroke-linejoin="round" stroke-linecap="round" stroke="rgb(255,0,0)" stroke-width="3.749996" fill="none" d="M 27.027033 135.135239 L 28.037376 140.187012 " />
<path stroke-linejoin="round" stroke-linecap="round" stroke="rgb(0,0,255)" stroke-width="1.874998" fill="none" d="M 0.000000 750.000000 L 30.927837 0.000000 " />
<path stroke-linejoin="round" stroke-linecap="round" stroke="rgb(255,0,0)" stroke-width="3.749996" fill="none" d="M 25.641024 128.205231 L 27.027033 135.135239 " />
<path stroke-linejoin="round" stroke-linecap="round" stroke="rgb(0,0,255)" stroke-width="1.874998" fill="none" d="M 0.000000 750.000000 L 28.037376 0.000000 " />
<path stroke-linejoin="round" stroke-linecap="round" stroke="rgb(255,0,0)" stroke-width="3.749996" fill="none" d="M 23.622036 118.110359 L 25.641024 128.205231 " />
<path stroke-linejoin="round" stroke-linecap="round" stroke="rgb(0,0,255)" stroke-width="1.874998" fill="none" d="M 0.000000 750.000000 L 27.027033 0.000000 " />
<path stroke-linejoin="round" stroke-linecap="round" stroke="rgb(255,0,0)" stroke-width="3.749996" fill="none" d="M 22.900768 114.503929 L 23.622036 118.110359 " />
<path stroke-linejoin="round" stroke-linecap="round" stroke="rgb(0,0,255)" stroke-width="1.874998" fill="none" d="M 0.000000 750.000000 L 26.548683 0.000000 " />
<path stroke-linejoin="round" stroke-linecap="round" stroke="rgb(255,0,0)" stroke-width="3.749996" fill="none" d="M 22.556395 112.782059 L 22.900768 114.503929 " />
<path stroke-linejoin="round" stroke-linecap="round" stroke="rgb(0,0,255)" stroke-width="1.874998" fill="none" d="M 0.000000 750.000000 L 20.642191 0.000000 " />
<path stroke-linejoin="round" stroke-linecap="round" stroke="rgb(255,0,0)" stroke-width="3.749996" fill="none" d="M 18.145166 90.725830 L 22.556395 112.782059 " />
<path stroke-linejoin="round" stroke-linecap="round" stroke="rgb(0,0,255)" stroke-width="1.874998" fill="none" d="M 0.000000 750.000000 L 12.605042 0.000000 " />
<path stroke-linejoin="round" stroke-linecap="round" stroke="rgb(255,0,0)" stroke-width="3.749996" fill="none" d="M 11.627913 58.139629 L 18.145166 90.725830 " />
<path stroke-linejoin="round" stroke-linecap="round" stroke="rgb(0,0,255)" stroke-width="1.874998" fill="none" d="M 0.000000 750.000000 L 5.999990 0.000000 " />
<path stroke-linejoin="round" stroke-linecap="round" stroke="rgb(255,0,0)" stroke-width="3.749996" fill="none" d="M 5.769230 28.846264 L 11.627913 58.139629 " />
<path stroke-linejoin="round" stroke-linecap="round" stroke="rgb(0,0,255)" stroke-width="1.874998" fill="none" d="M 0.000000 750.000000 L 0.000000 0.000000 " />
<path stroke-linejoin="round" stroke-linecap="round" stroke="rgb(255,0,0)" stroke-width="3.749996" fill="none" d="M 0.000000 0.000000 L 5.769230 28.846264 " />
<circle cx="248.786408" cy="743.932039" r="3.749996" style="fill:rgb(0,127,0);stroke-width:1" /><circle cx="242.718458" cy="737.864077" r="3.749996" style="fill:rgb(0,127,0);stroke-width:1" /><circle cx="236.650497" cy="731.796116" r="3.749996" style="fill:rgb(0,127,0);stroke-width:1" /><circle cx="231.685806" cy="726.831414" r="3.749996" style="fill:rgb(0,127,0);stroke-width:1" /><circle cx="225.893665" cy="721.039273" r="3.749996" style="fill:rgb(0,127,0);stroke-width:1" /><circle cx="220.101502" cy="715.247132" r="3.749996" style="fill:rgb(0,127,0);stroke-width:1" /><circle cx="214.309361" cy="709.454991" r="3.749996" style="fill:rgb(0,127,0);stroke-width:1" /><circle cx="208.517220" cy="703.662828" r="3.749996" style="fill:rgb(0,127,0);stroke-width:1" /><circle cx="202.725079" cy="697.870687" r="3.749996" style="fill:rgb(0,127,0);stroke-width:1" /><circle cx="196.932927" cy="692.078546" r="3.749996" style="fill:rgb(0,127,0);stroke-width:1" /><circle cx="191.140786" cy="686.286405" r="3.749996" style="fill:rgb(0,127,0);stroke-width:1" /><circle cx="188.370645" cy="683.516242" r="3.749996" style="fill:rgb(0,127,0);stroke-width:1" /><circle cx="185.348667" cy="680.494241" r="3.749996" style="fill:rgb(0,127,0);stroke-width:1" /><circle cx="179.556549" cy="674.702100" r="3.749996" style="fill:rgb(0,127,0);stroke-width:1" /><circle cx="177.290060" cy="672.435611" r="3.749996" style="fill:rgb(0,127,0);stroke-width:1" /><circle cx="171.749733" cy="666.895285" r="3.749996" style="fill:rgb(0,127,0);stroke-width:1" /><circle cx="166.209407" cy="661.354981" r="3.749996" style="fill:rgb(0,127,0);stroke-width:1" /><circle cx="164.593510" cy="659.739040" r="3.749996" style="fill:rgb(0,127,0);stroke-width:1" /><circle cx="160.669103" cy="655.814655" r="3.749996" style="fill:rgb(0,127,0);stroke-width:1" /><circle cx="159.284033" cy="654.429585" r="3.749996" style="fill:rgb(0,127,0);stroke-width:1" /><circle cx="155.128799" cy="650.274329" r="3.749996" style="fill:rgb(0,127,0);stroke-width:1" /><circle cx="153.974578" cy="649.120107" r="3.749996" style="fill:rgb(0,127,0);stroke-width:1" /><circle cx="149.588518" cy="644.734003" r="3.749996" style="fill:rgb(0,127,0);stroke-width:1" /><circle cx="144.048192" cy="639.193699" r="3.749996" style="fill:rgb(0,127,0);stroke-width:1" /><circle cx="143.355668" cy="638.501152" r="3.749996" style="fill:rgb(0,127,0);stroke-width:1" /><circle cx="138.507910" cy="633.653373" r="3.749996" style="fill:rgb(0,127,0);stroke-width:1" /><circle cx="132.967584" cy="628.113046" r="3.749996" style="fill:rgb(0,127,0);stroke-width:1" /><circle cx="127.427258" cy="622.572742" r="3.749996" style="fill:rgb(0,127,0);stroke-width:1" /><circle cx="123.134337" cy="615.671642" r="3.749996" style="fill:rgb(0,127,0);stroke-width:1" /><circle cx="121.323533" cy="606.617644" r="3.749996" style="fill:rgb(0,127,0);stroke-width:1" /><circle cx="119.318180" cy="596.590899" r="3.749996" style="fill:rgb(0,127,0);stroke-width:1" /><circle cx="117.187500" cy="585.937522" r="3.749996" style="fill:rgb(0,127,0);stroke-width:1" /><circle cx="115.384609" cy="576.923110" r="3.749996" style="fill:rgb(0,127,0);stroke-width:1" /><circle cx="113.095231" cy="565.476201" r="3.749996" style="fill:rgb(0,127,0);stroke-width:1" /><circle cx="110.655718" cy="553.278711" r="3.749996" style="fill:rgb(0,127,0);stroke-width:1" /><circle cx="108.870953" cy="544.354867" r="3.749996" style="fill:rgb(0,127,0);stroke-width:1" /><circle cx="107.142851" cy="535.714298" r="3.749996" style="fill:rgb(0,127,0);stroke-width:1" /><circle cx="104.508184" cy="522.541031" r="3.749996" style="fill:rgb(0,127,0);stroke-width:1" /><circle cx="101.694904" cy="508.474622" r="3.749996" style="fill:rgb(0,127,0);stroke-width:1" /><circle cx="99.999994" cy="500.000015" r="3.749996" style="fill:rgb(0,127,0);stroke-width:1" /><circle cx="98.360650" cy="491.803318" r="3.749996" style="fill:rgb(0,127,0);stroke-width:1" /><circle cx="95.338963" cy="476.694971" r="3.749996" style="fill:rgb(0,127,0);stroke-width:1" /><circle cx="92.105269" cy="460.526319" r="3.749996" style="fill:rgb(0,127,0);stroke-width:1" /><circle cx="90.517245" cy="452.586176" r="3.749996" style="fill:rgb(0,127,0);stroke-width:1" /><circle cx="87.053575" cy="435.267868" r="3.749996" style="fill:rgb(0,127,0);stroke-width:1" /><circle cx="83.333328" cy="416.666656" r="3.749996" style="fill:rgb(0,127,0);stroke-width:1" /><circle cx="81.818193" cy="409.090907" r="3.749996" style="fill:rgb(0,127,0);stroke-width:1" /><circle cx="80.357149" cy="401.785671" r="3.749996" style="fill:rgb(0,127,0);stroke-width:1" /><circle cx="76.388888" cy="381.944448" r="3.749996" style="fill:rgb(0,127,0);stroke-width:1" /><circle cx="74.999996" cy="375.000030" r="3.749996" style="fill:rgb(0,127,0);stroke-width:1" /><circle cx="70.754707" cy="353.773653" r="3.749996" style="fill:rgb(0,127,0);stroke-width:1" /><circle cx="69.444448" cy="347.222239" r="3.749996" style="fill:rgb(0,127,0);stroke-width:1" /><circle cx="68.181820" cy="340.909123" r="3.749996" style="fill:rgb(0,127,0);stroke-width:1" /><circle cx="64.903848" cy="324.519278" r="3.749996" style="fill:rgb(0,127,0);stroke-width:1" /><circle cx="59.999987" cy="300.000044" r="3.749996" style="fill:rgb(0,127,0);stroke-width:1" /><circle cx="54.687493" cy="273.437563" r="3.749996" style="fill:rgb(0,127,0);stroke-width:1" /><circle cx="53.571425" cy="267.857160" r="3.749996" style="fill:rgb(0,127,0);stroke-width:1" /><circle cx="47.872335" cy="239.361763" r="3.749996" style="fill:rgb(0,127,0);stroke-width:1" /><circle cx="46.875000" cy="234.375056" r="3.749996" style="fill:rgb(0,127,0);stroke-width:1" /><circle cx="45.000002" cy="225.000087" r="3.749996" style="fill:rgb(0,127,0);stroke-width:1" /><circle cx="44.117644" cy="220.588323" r="3.749996" style="fill:rgb(0,127,0);stroke-width:1" /><circle cx="41.284382" cy="206.422146" r="3.749996" style="fill:rgb(0,127,0);stroke-width:1" /><circle cx="37.499987" cy="187.500112" r="3.749996" style="fill:rgb(0,127,0);stroke-width:1" /><circle cx="36.764704" cy="183.823586" r="3.749996" style="fill:rgb(0,127,0);stroke-width:1" /><circle cx="28.037377" cy="140.187018" r="3.749996" style="fill:rgb(0,127,0);stroke-width:1" /><circle cx="27.027033" cy="135.135233" r="3.749996" style="fill:rgb(0,127,0);stroke-width:1" /><circle cx="25.641024" cy="128.205232" r="3.749996" style="fill:rgb(0,127,0);stroke-width:1" /><circle cx="23.622036" cy="118.110359" r="3.749996" style="fill:rgb(0,127,0);stroke-width:1" /><circle cx="22.900768" cy="114.503928" r="3.749996" style="fill:rgb(0,127,0);stroke-width:1" /><circle cx="22.556394" cy="112.782061" r="3.749996" style="fill:rgb(0,127,0);stroke-width:1" /><circle cx="18.145166" cy="90.725832" r="3.749996" style="fill:rgb(0,127,0);stroke-width:1" /><circle cx="11.627913" cy="58.139630" r="3.749996" style="fill:rgb(0,127,0);stroke-width:1" /><circle cx="5.769230" cy="28.846264" r="3.749996" style="fill:rgb(0,127,0);stroke-width:1" /><circle cx="750.000000" cy="750.000000" r="3.749996" style="fill:rgb(0,127,0);stroke-width:1" /><path stroke-linejoin="round" stroke-linecap="round" stroke="rgb(255,255,255)" stroke-width="3.749996" fill="none" d="M 0.000000 750.000000 L 750.000000 750.000000 M 0.000000 750.000000 L 0.000000 0.000000 " />

</svg>