<svg xmlns="http://www.w3.org/2000/svg" version="1.1" width = "750" height = "750" viewBox = "0 0 750 750"  shape-rendering="crispEdges">
<path stroke-linejoin="round" stroke-linecap="round" stroke="rgb(255,255,0)" stroke-width="3.749996" fill="none" d="M 93.750000 750.000000 L 0.000000 0.000000 " />
<path stroke-linejoin="round" stroke-linecap="round" stroke="rgb(63,63,63)" stroke-width="3.749996" fill="none" d="M 0.000000 0.000000 L 750.000000 750.000000 M 93.750000 750.000000 L 43.750004 0.000000 " />
<path stroke-linejoin="round" stroke-linecap="round" stroke="rgb(191,191,191)" stroke-width="3.749996" fill="none" d="M 0.000000 656.250000 L 93.750000 750.000000 M 0.000000 0.000000 L 49.999996 750.000000 " />
<path stroke-linejoin="round" stroke-linecap="round" stroke="rgb(0,0,255)" stroke-width="1.874998" fill="none" d="M 0.000000 750.000000 L 750.000000 725.806458 " />
<path stroke-linejoin="round" stroke-linecap="round" stroke="rgb(255,0,0)" stroke-width="3.749996" fill="none" d="M 93.548813 746.982300 L 93.750000 750.000000 " />
<path stroke-linejoin="round" stroke-linecap="round" stroke="rgb(0,0,255)" stroke-width="1.874998" fill="none" d="M 0.000000 750.000000 L 750.000000 703.125000 " />
<path stroke-linejoin="round" stroke-linecap="round" stroke="rgb(255,0,0)" stroke-width="3.749996" fill="none" d="M 90.886139 744.319641 L 93.548813 746.982300 " />
<path stroke-linejoin="round" stroke-linecap="round" stroke="rgb(0,0,255)" stroke-width="1.874998" fill="none" d="M 0.000000 750.000000 L 750.000000 677.419312 " />
<path stroke-linejoin="round" stroke-linecap="round" stroke="rgb(255,0,0)" stroke-width="3.749996" fill="none" d="M 88.045944 741.479431 L 90.886139 744.319641 " />
<path stroke-linejoin="round" stroke-linecap="round" stroke="rgb(0,0,255)" stroke-width="1.874998" fill="none" d="M 0.000000 750.000000 L 750.000000 650.000000 " />
<path stroke-linejoin="round" stroke-linecap="round" stroke="rgb(255,0,0)" stroke-width="3.749996" fill="none" d="M 85.205757 738.639221 L 88.045944 741.479431 " />
<path stroke-linejoin="round" stroke-linecap="round" stroke="rgb(0,0,255)" stroke-width="1.874998" fill="none" d="M 0.000000 750.000000 L 750.000000 620.689636 " />
<path stroke-linejoin="round" stroke-linecap="round" stroke="rgb(255,0,0)" stroke-width="3.749996" fill="none" d="M 82.365562 735.799072 L 85.205757 738.639221 " />
<path stroke-linejoin="round" stroke-linecap="round" stroke="rgb(0,0,255)" stroke-width="1.874998" fill="none" d="M 0.000000 750.000000 L 750.000000 589.285706 " />
<path stroke-linejoin="round" stroke-linecap="round" stroke="rgb(255,0,0)" stroke-width="3.749996" fill="none" d="M 79.525375 732.958862 L 82.365562 735.799072 " />
<path stroke-linejoin="round" stroke-linecap="round" stroke="rgb(0,0,255)" stroke-width="1.874998" fill="none" d="M 0.000000 750.000000 L 750.000000 555.555603 " />
<path stroke-linejoin="round" stroke-linecap="round" stroke="rgb(255,0,0)" stroke-width="3.749996" fill="none" d="M 76.685181 730.118652 L 79.525375 732.958862 " />
<path stroke-linejoin="round" stroke-linecap="round" stroke="rgb(0,0,255)" stroke-width="1.874998" fill="none" d="M 0.000000 750.000000 L 750.000000 535.714294 " />
<path stroke-linejoin="round" stroke-linecap="round" stroke="rgb(255,0,0)" stroke-width="3.749996" fill="none" d="M 75.107285 728.540771 L 76.685181 730.118652 " />
<path stroke-linejoin="round" stroke-linecap="round" stroke="rgb(0,0,255)" stroke-width="1.874998" fill="none" d="M 0.000000 750.000000 L 750.000000 519.230774 " />
<path stroke-linejoin="round" stroke-linecap="round" stroke="rgb(255,0,0)" stroke-width="3.749996" fill="none" d="M 73.844994 727.278442 L 75.107285 728.540771 " />
<path stroke-linejoin="round" stroke-linecap="round" stroke="rgb(0,0,255)" stroke-width="1.874998" fill="none" d="M 0.000000 750.000000 L 750.000000 499.999969 " />
<path stroke-linejoin="round" stroke-linecap="round" stroke="rgb(255,0,0)" stroke-width="3.749996" fill="none" d="M 72.424896 725.858398 L 73.844994 727.278442 " />
<path stroke-linejoin="round" stroke-linecap="round" stroke="rgb(0,0,255)" stroke-width="1.874998" fill="none" d="M 0.000000 750.000000 L 750.000000 461.538422 " />
<path stroke-linejoin="round" stroke-linecap="round" stroke="rgb(255,0,0)" stroke-width="3.749996" fill="none" d="M 69.742508 723.175964 L 72.424919 725.858398 " />
<path stroke-linejoin="round" stroke-linecap="round" stroke="rgb(0,0,255)" stroke-width="1.874998" fill="none" d="M 0.000000 750.000000 L 750.000000 420.000000 " />
<path stroke-linejoin="round" stroke-linecap="round" stroke="rgb(255,0,0)" stroke-width="3.749996" fill="none" d="M 67.060097 720.493530 L 69.742508 723.175964 " />
<path stroke-linejoin="round" stroke-linecap="round" stroke="rgb(0,0,255)" stroke-width="1.874998" fill="none" d="M 0.000000 750.000000 L 750.000000 375.000000 " />
<path stroke-linejoin="round" stroke-linecap="round" stroke="rgb(255,0,0)" stroke-width="3.749996" fill="none" d="M 64.377686 717.811157 L 67.060097 720.493530 " />
<path stroke-linejoin="round" stroke-linecap="round" stroke="rgb(0,0,255)" stroke-width="1.874998" fill="none" d="M 0.000000 750.000000 L 750.000000 326.086975 " />
<path stroke-linejoin="round" stroke-linecap="round" stroke="rgb(255,0,0)" stroke-width="3.749996" fill="none" d="M 61.695301 715.128784 L 64.377686 717.811157 " />
<path stroke-linejoin="round" stroke-linecap="round" stroke="rgb(0,0,255)" stroke-width="1.874998" fill="none" d="M 0.000000 750.000000 L 750.000000 312.500000 " />
<path stroke-linejoin="round" stroke-linecap="round" stroke="rgb(255,0,0)" stroke-width="3.749996" fill="none" d="M 60.989410 714.422852 L 61.695301 715.128784 " />
<path stroke-linejoin="round" stroke-linecap="round" stroke="rgb(0,0,255)" stroke-width="1.874998" fill="none" d="M 0.000000 750.000000 L 717.391296 0.000000 " />
<path stroke-linejoin="round" stroke-linecap="round" stroke="rgb(255,0,0)" stroke-width="3.749996" fill="none" d="M 59.232876 688.074707 L 60.989410 714.422852 " />
<path stroke-linejoin="round" stroke-linecap="round" stroke="rgb(0,0,255)" stroke-width="1.874998" fill="none" d="M 0.000000 750.000000 L 477.272705 0.000000 " />
<path stroke-linejoin="round" stroke-linecap="round" stroke="rgb(255,0,0)" stroke-width="3.749996" fill="none" d="M 57.352825 659.874084 L 59.232876 688.074707 " />
<path stroke-linejoin="round" stroke-linecap="round" stroke="rgb(0,0,255)" stroke-width="1.874998" fill="none" d="M 0.000000 750.000000 L 348.837189 0.000000 " />
<path stroke-linejoin="round" stroke-linecap="round" stroke="rgb(255,0,0)" stroke-width="3.749996" fill="none" d="M 55.417969 630.851379 L 57.352825 659.874084 " />
<path stroke-linejoin="round" stroke-linecap="round" stroke="rgb(0,0,255)" stroke-width="1.874998" fill="none" d="M 0.000000 750.000000 L 297.169830 0.000000 " />
<path stroke-linejoin="round" stroke-linecap="round" stroke="rgb(255,0,0)" stroke-width="3.749996" fill="none" d="M 54.235832 613.119080 L 55.417969 630.851379 " />
<path stroke-linejoin="round" stroke-linecap="round" stroke="rgb(0,0,255)" stroke-width="1.874998" fill="none" d="M 0.000000 750.000000 L 231.818192 0.000000 " />
<path stroke-linejoin="round" stroke-linecap="round" stroke="rgb(255,0,0)" stroke-width="3.749996" fill="none" d="M 52.119701 581.377441 L 54.235832 613.119141 " />
<path stroke-linejoin="round" stroke-linecap="round" stroke="rgb(0,0,255)" stroke-width="1.874998" fill="none" d="M 0.000000 750.000000 L 207.692291 0.000000 " />
<path stroke-linejoin="round" stroke-linecap="round" stroke="rgb(255,0,0)" stroke-width="3.749996" fill="none" d="M 51.067249 565.590515 L 52.119701 581.377441 " />
<path stroke-linejoin="round" stroke-linecap="round" stroke="rgb(0,0,255)" stroke-width="1.874998" fill="none" d="M 0.000000 750.000000 L 193.181808 0.000000 " />
<path stroke-linejoin="round" stroke-linecap="round" stroke="rgb(255,0,0)" stroke-width="3.749996" fill="none" d="M 50.333664 554.586975 L 51.067249 565.590515 " />
<path stroke-linejoin="round" stroke-linecap="round" stroke="rgb(0,0,255)" stroke-width="1.874998" fill="none" d="M 0.000000 750.000000 L 177.631577 0.000000 " />
<path stroke-linejoin="round" stroke-linecap="round" stroke="rgb(255,0,0)" stroke-width="3.749996" fill="none" d="M 49.443729 541.237610 L 50.333664 554.586975 " />
<path stroke-linejoin="round" stroke-linecap="round" stroke="rgb(0,0,255)" stroke-width="1.874998" fill="none" d="M 0.000000 750.000000 L 157.894745 0.000000 " />
<path stroke-linejoin="round" stroke-linecap="round" stroke="rgb(255,0,0)" stroke-width="3.749996" fill="none" d="M 48.122452 521.418396 L 49.443729 541.237610 " />
<path stroke-linejoin="round" stroke-linecap="round" stroke="rgb(0,0,255)" stroke-width="1.874998" fill="none" d="M 0.000000 750.000000 L 148.255814 0.000000 " />
<path stroke-linejoin="round" stroke-linecap="round" stroke="rgb(255,0,0)" stroke-width="3.749996" fill="none" d="M 47.381557 510.305115 L 48.122452 521.418396 " />
<path stroke-linejoin="round" stroke-linecap="round" stroke="rgb(0,0,255)" stroke-width="1.874998" fill="none" d="M 0.000000 750.000000 L 142.405045 0.000000 " />
<path stroke-linejoin="round" stroke-linecap="round" stroke="rgb(255,0,0)" stroke-width="3.749996" fill="none" d="M 46.895630 503.016296 L 47.381557 510.305054 " />
<path stroke-linejoin="round" stroke-linecap="round" stroke="rgb(0,0,255)" stroke-width="1.874998" fill="none" d="M 0.000000 750.000000 L 134.831467 0.000000 " />
<path stroke-linejoin="round" stroke-linecap="round" stroke="rgb(255,0,0)" stroke-width="3.749996" fill="none" d="M 46.220943 492.895966 L 46.895630 503.016296 " />
<path stroke-linejoin="round" stroke-linecap="round" stroke="rgb(0,0,255)" stroke-width="1.874998" fill="none" d="M 0.000000 750.000000 L 113.636368 0.000000 " />
<path stroke-linejoin="round" stroke-linecap="round" stroke="rgb(255,0,0)" stroke-width="3.749996" fill="none" d="M 44.000835 459.594452 L 46.220943 492.895966 " />
<path stroke-linejoin="round" stroke-linecap="round" stroke="rgb(0,0,255)" stroke-width="1.874998" fill="none" d="M 0.000000 750.000000 L 102.941170 0.000000 " />
<path stroke-linejoin="round" stroke-linecap="round" stroke="rgb(255,0,0)" stroke-width="3.749996" fill="none" d="M 40.359402 455.953003 L 44.000835 459.594452 " />
<path stroke-linejoin="round" stroke-linecap="round" stroke="rgb(0,0,255)" stroke-width="1.874998" fill="none" d="M 0.000000 750.000000 L 99.056618 0.000000 " />
<path stroke-linejoin="round" stroke-linecap="round" stroke="rgb(255,0,0)" stroke-width="3.749996" fill="none" d="M 39.014072 454.607635 L 40.359402 455.953003 " />
<path stroke-linejoin="round" stroke-linecap="round" stroke="rgb(0,0,255)" stroke-width="1.874998" fill="none" d="M 0.000000 750.000000 L 95.454544 0.000000 " />
<path stroke-linejoin="round" stroke-linecap="round" stroke="rgb(255,0,0)" stroke-width="3.749996" fill="none" d="M 37.755558 453.349213 L 39.014072 454.607635 " />
<path stroke-linejoin="round" stroke-linecap="round" stroke="rgb(0,0,255)" stroke-width="1.874998" fill="none" d="M 0.000000 750.000000 L 92.105270 0.000000 " />
<path stroke-linejoin="round" stroke-linecap="round" stroke="rgb(255,0,0)" stroke-width="3.749996" fill="none" d="M 36.575699 452.169312 L 37.755558 453.349213 " />
<path stroke-linejoin="round" stroke-linecap="round" stroke="rgb(0,0,255)" stroke-width="1.874998" fill="none" d="M 0.000000 750.000000 L 88.983047 0.000000 " />
<path stroke-linejoin="round" stroke-linecap="round" stroke="rgb(255,0,0)" stroke-width="3.749996" fill="none" d="M 35.467342 451.060974 L 36.575699 452.169312 " />
<path stroke-linejoin="round" stroke-linecap="round" stroke="rgb(0,0,255)" stroke-width="1.874998" fill="none" d="M 0.000000 750.000000 L 86.065559 0.000000 " />
<path stroke-linejoin="round" stroke-linecap="round" stroke="rgb(255,0,0)" stroke-width="3.749996" fill="none" d="M 34.424187 450.017822 L 35.467342 451.060974 " />
<path stroke-linejoin="round" stroke-linecap="round" stroke="rgb(0,0,255)" stroke-width="1.874998" fill="none" d="M 0.000000 750.000000 L 83.333328 0.000000 " />
<path stroke-linejoin="round" stroke-linecap="round" stroke="rgb(255,0,0)" stroke-width="3.749996" fill="none" d="M 33.440643 449.034241 L 34.424187 450.017822 " />
<path stroke-linejoin="round" stroke-linecap="round" stroke="rgb(0,0,255)" stroke-width="1.874998" fill="none" d="M 0.000000 750.000000 L 80.769226 0.000000 " />
<path stroke-linejoin="round" stroke-linecap="round" stroke="rgb(255,0,0)" stroke-width="3.749996" fill="none" d="M 32.511726 448.105347 L 33.440643 449.034241 " />
<path stroke-linejoin="round" stroke-linecap="round" stroke="rgb(0,0,255)" stroke-width="1.874998" fill="none" d="M 0.000000 750.000000 L 74.999992 0.000000 " />
<path stroke-linejoin="round" stroke-linecap="round" stroke="rgb(255,0,0)" stroke-width="3.749996" fill="none" d="M 30.400581 445.994232 L 32.511726 448.105347 " />
<path stroke-linejoin="round" stroke-linecap="round" stroke="rgb(0,0,255)" stroke-width="1.874998" fill="none" d="M 0.000000 750.000000 L 61.475403 0.000000 " />
<path stroke-linejoin="round" stroke-linecap="round" stroke="rgb(255,0,0)" stroke-width="3.749996" fill="none" d="M 27.573534 413.602875 L 30.400581 445.994232 " />
<path stroke-linejoin="round" stroke-linecap="round" stroke="rgb(0,0,255)" stroke-width="1.874998" fill="none" d="M 0.000000 750.000000 L 48.387096 0.000000 " />
<path stroke-linejoin="round" stroke-linecap="round" stroke="rgb(255,0,0)" stroke-width="3.749996" fill="none" d="M 24.590157 368.852478 L 27.573534 413.602875 " />
<path stroke-linejoin="round" stroke-linecap="round" stroke="rgb(0,0,255)" stroke-width="1.874998" fill="none" d="M 0.000000 750.000000 L 46.875000 0.000000 " />
<path stroke-linejoin="round" stroke-linecap="round" stroke="rgb(255,0,0)" stroke-width="3.749996" fill="none" d="M 24.193548 362.903290 L 24.590157 368.852509 " />
<path stroke-linejoin="round" stroke-linecap="round" stroke="rgb(0,0,255)" stroke-width="1.874998" fill="none" d="M 0.000000 750.000000 L 41.095890 0.000000 " />
<path stroke-linejoin="round" stroke-linecap="round" stroke="rgb(255,0,0)" stroke-width="3.749996" fill="none" d="M 22.556395 338.345917 L 24.193548 362.903290 " />
<path stroke-linejoin="round" stroke-linecap="round" stroke="rgb(0,0,255)" stroke-width="1.874998" fill="none" d="M 0.000000 750.000000 L 35.714283 0.000000 " />
<path stroke-linejoin="round" stroke-linecap="round" stroke="rgb(255,0,0)" stroke-width="3.749996" fill="none" d="M 20.833321 312.500061 L 22.556395 338.345917 " />
<path stroke-linejoin="round" stroke-linecap="round" stroke="rgb(0,0,255)" stroke-width="1.874998" fill="none" d="M 0.000000 750.000000 L 33.333332 0.000000 " />
<path stroke-linejoin="round" stroke-linecap="round" stroke="rgb(255,0,0)" stroke-width="3.749996" fill="none" d="M 20.000004 300.000061 L 20.833321 312.500061 " />
<path stroke-linejoin="round" stroke-linecap="round" stroke="rgb(0,0,255)" stroke-width="1.874998" fill="none" d="M 0.000000 750.000000 L 28.481014 0.000000 " />
<path stroke-linejoin="round" stroke-linecap="round" stroke="rgb(255,0,0)" stroke-width="3.749996" fill="none" d="M 18.145166 272.177521 L 20.000004 300.000061 " />
<path stroke-linejoin="round" stroke-linecap="round" stroke="rgb(0,0,255)" stroke-width="1.874998" fill="none" d="M 0.000000 750.000000 L 27.777784 0.000000 " />
<path stroke-linejoin="round" stroke-linecap="round" stroke="rgb(255,0,0)" stroke-width="3.749996" fill="none" d="M 17.857141 267.857269 L 18.145144 272.177551 " />
<path stroke-linejoin="round" stroke-linecap="round" stroke="rgb(0,0,255)" stroke-width="1.874998" fill="none" d="M 0.000000 750.000000 L 27.108438 0.000000 " />
<path stroke-linejoin="round" stroke-linecap="round" stroke="rgb(255,0,0)" stroke-width="3.749996" fill="none" d="M 17.578125 263.672058 L 17.857141 267.857330 " />
<path stroke-linejoin="round" stroke-linecap="round" stroke="rgb(0,0,255)" stroke-width="1.874998" fill="none" d="M 0.000000 750.000000 L 17.857141 0.000000 " />
<path stroke-linejoin="round" stroke-linecap="round" stroke="rgb(255,0,0)" stroke-width="3.749996" fill="none" d="M 13.157889 197.368607 L 17.578125 263.672058 " />
<path stroke-linejoin="round" stroke-linecap="round" stroke="rgb(0,0,255)" stroke-width="1.874998" fill="none" d="M 0.000000 750.000000 L 8.823529 0.000000 " />
<path stroke-linejoin="round" stroke-linecap="round" stroke="rgb(255,0,0)" stroke-width="3.749996" fill="none" d="M 7.499993 112.500252 L 13.157889 197.368607 " />
<path stroke-linejoin="round" stroke-linecap="round" stroke="rgb(0,0,255)" stroke-width="1.874998" fill="none" d="M 0.000000 750.000000 L 0.000000 0.000000 " />
<path stroke-linejoin="round" stroke-linecap="round" stroke="rgb(255,0,0)" stroke-width="3.749996" fill="none" d="M 0.000000 0.000000 L 7.499993 112.500252 " />
<circle cx="93.548812" cy="746.982291" r="3.749996" style="fill:rgb(0,127,0);stroke-width:1" /><circle cx="90.886138" cy="744.319618" r="3.749996" style="fill:rgb(0,127,0);stroke-width:1" /><circle cx="88.045947" cy="741.479427" r="3.749996" style="fill:rgb(0,127,0);stroke-width:1" /><circle cx="85.205756" cy="738.639235" r="3.749996" style="fill:rgb(0,127,0);stroke-width:1" /><circle cx="82.365565" cy="735.799044" r="3.749996" style="fill:rgb(0,127,0);stroke-width:1" /><circle cx="79.525374" cy="732.958853" r="3.749996" style="fill:rgb(0,127,0);stroke-width:1" /><circle cx="76.685183" cy="730.118662" r="3.749996" style="fill:rgb(0,127,0);stroke-width:1" /><circle cx="75.107284" cy="728.540763" r="3.749996" style="fill:rgb(0,127,0);stroke-width:1" /><circle cx="73.844992" cy="727.278471" r="3.749996" style="fill:rgb(0,127,0);stroke-width:1" /><circle cx="72.424896" cy="725.858375" r="3.749996" style="fill:rgb(0,127,0);stroke-width:1" /><circle cx="69.742508" cy="723.175965" r="3.749996" style="fill:rgb(0,127,0);stroke-width:1" /><circle cx="67.060098" cy="720.493555" r="3.749996" style="fill:rgb(0,127,0);stroke-width:1" /><circle cx="64.377688" cy="717.811145" r="3.749996" style="fill:rgb(0,127,0);stroke-width:1" /><circle cx="61.695300" cy="715.128757" r="3.749996" style="fill:rgb(0,127,0);stroke-width:1" /><circle cx="60.989410" cy="714.422844" r="3.749996" style="fill:rgb(0,127,0);stroke-width:1" /><circle cx="59.232876" cy="688.074723" r="3.749996" style="fill:rgb(0,127,0);stroke-width:1" /><circle cx="57.352826" cy="659.874134" r="3.749996" style="fill:rgb(0,127,0);stroke-width:1" /><circle cx="55.417970" cy="630.851358" r="3.749996" style="fill:rgb(0,127,0);stroke-width:1" /><circle cx="54.235831" cy="613.119118" r="3.749996" style="fill:rgb(0,127,0);stroke-width:1" /><circle cx="52.119702" cy="581.377432" r="3.749996" style="fill:rgb(0,127,0);stroke-width:1" /><circle cx="51.067248" cy="565.590486" r="3.749996" style="fill:rgb(0,127,0);stroke-width:1" /><circle cx="50.333664" cy="554.586925" r="3.749996" style="fill:rgb(0,127,0);stroke-width:1" /><circle cx="49.443729" cy="541.237615" r="3.749996" style="fill:rgb(0,127,0);stroke-width:1" /><circle cx="48.122451" cy="521.418415" r="3.749996" style="fill:rgb(0,127,0);stroke-width:1" /><circle cx="47.381558" cy="510.305084" r="3.749996" style="fill:rgb(0,127,0);stroke-width:1" /><circle cx="46.895631" cy="503.016315" r="3.749996" style="fill:rgb(0,127,0);stroke-width:1" /><circle cx="46.220943" cy="492.895983" r="3.749996" style="fill:rgb(0,127,0);stroke-width:1" /><circle cx="44.000834" cy="459.594436" r="3.749996" style="fill:rgb(0,127,0);stroke-width:1" /><circle cx="40.359400" cy="455.952980" r="3.749996" style="fill:rgb(0,127,0);stroke-width:1" /><circle cx="39.014071" cy="454.607651" r="3.749996" style="fill:rgb(0,127,0);stroke-width:1" /><circle cx="37.755556" cy="453.349181" r="3.749996" style="fill:rgb(0,127,0);stroke-width:1" /><circle cx="36.575697" cy="452.169321" r="3.749996" style="fill:rgb(0,127,0);stroke-width:1" /><circle cx="35.467342" cy="451.060966" r="3.749996" style="fill:rgb(0,127,0);stroke-width:1" /><circle cx="34.424186" cy="450.017810" r="3.749996" style="fill:rgb(0,127,0);stroke-width:1" /><circle cx="33.440642" cy="449.034266" r="3.749996" style="fill:rgb(0,127,0);stroke-width:1" /><circle cx="32.511726" cy="448.105350" r="3.749996" style="fill:rgb(0,127,0);stroke-width:1" /><circle cx="30.400582" cy="445.994206" r="3.749996" style="fill:rgb(0,127,0);stroke-width:1" /><circle cx="27.573533" cy="413.602889" r="3.749996" style="fill:rgb(0,127,0);stroke-width:1" /><circle cx="24.590157" cy="368.852466" r="3.749996" style="fill:rgb(0,127,0);stroke-width:1" /><circle cx="24.193548" cy="362.903282" r="3.749996" style="fill:rgb(0,127,0);stroke-width:1" /><circle cx="22.556394" cy="338.345915" r="3.749996" style="fill:rgb(0,127,0);stroke-width:1" /><circle cx="20.833321" cy="312.500060" r="3.749996" style="fill:rgb(0,127,0);stroke-width:1" /><circle cx="20.000003" cy="300.000072" r="3.749996" style="fill:rgb(0,127,0);stroke-width:1" /><circle cx="18.145166" cy="272.177517" r="3.749996" style="fill:rgb(0,127,0);stroke-width:1" /><circle cx="17.857142" cy="267.857283" r="3.749996" style="fill:rgb(0,127,0);stroke-width:1" /><circle cx="17.578125" cy="263.672054" r="3.749996" style="fill:rgb(0,127,0);stroke-width:1" /><circle cx="13.157889" cy="197.368607" r="3.749996" style="fill:rgb(0,127,0);stroke-width:1" /><circle cx="7.499993" cy="112.500250" r="3.749996" style="fill:rgb(0,127,0);stroke-width:1" /><circle cx="750.000000" cy="750.000000" r="3.749996" style="fill:rgb(0,127,0);stroke-width:1" /><path stroke-linejoin="round" stroke-linecap="round" stroke="rgb(255,255,255)" stroke-width="3.749996" fill="none" d="M 0.000000 750.000000 L 750.000000 750.000000 M 0.000000 750.000000 L 0.000000 0.000000 " />

</svg>