<svg xmlns="http://www.w3.org/2000/svg" version="1.1" width = "750" height = "750" viewBox = "0 0 750 750"  shape-rendering="crispEdges">
<path stroke-linejoin="round" stroke-linecap="round" stroke="rgb(255,255,0)" stroke-width="3.749996" fill="none" d="M 249.999985 750.000000 L 0.000000 0.000000 " />
<path stroke-linejoin="round" stroke-linecap="round" stroke="rgb(63,63,63)" stroke-width="3.749996" fill="none" d="M 0.000000 0.000000 L 750.000000 750.000000 M 249.999985 750.000000 L 99.999992 0.000000 " />
<path stroke-linejoin="round" stroke-linecap="round" stroke="rgb(191,191,191)" stroke-width="3.749996" fill="none" d="M 0.000000 500.000000 L 249.999985 750.000000 M 0.000000 0.000000 L 150.000015 750.000000 " />
<path stroke-linejoin="round" stroke-linecap="round" stroke="rgb(0,0,255)" stroke-width="1.874998" fill="none" d="M 0.000000 750.000000 L 750.000000 727.941162 " />
<path stroke-linejoin="round" stroke-linecap="round" stroke="rgb(255,0,0)" stroke-width="3.749996" fill="none" d="M 248.538010 742.690063 L 249.999985 750.000000 " />
<path stroke-linejoin="round" stroke-linecap="round" stroke="rgb(0,0,255)" stroke-width="1.874998" fill="none" d="M 0.000000 750.000000 L 750.000000 704.545471 " />
<path stroke-linejoin="round" stroke-linecap="round" stroke="rgb(255,0,0)" stroke-width="3.749996" fill="none" d="M 244.775528 735.165161 L 248.538010 742.690063 " />
<path stroke-linejoin="round" stroke-linecap="round" stroke="rgb(0,0,255)" stroke-width="1.874998" fill="none" d="M 0.000000 750.000000 L 750.000000 679.687500 " />
<path stroke-linejoin="round" stroke-linecap="round" stroke="rgb(255,0,0)" stroke-width="3.749996" fill="none" d="M 240.900726 727.415527 L 244.775528 735.165161 " />
<path stroke-linejoin="round" stroke-linecap="round" stroke="rgb(0,0,255)" stroke-width="1.874998" fill="none" d="M 0.000000 750.000000 L 750.000000 653.225830 " />
<path stroke-linejoin="round" stroke-linecap="round" stroke="rgb(255,0,0)" stroke-width="3.749996" fill="none" d="M 236.908569 719.431152 L 240.900726 727.415527 " />
<path stroke-linejoin="round" stroke-linecap="round" stroke="rgb(0,0,255)" stroke-width="1.874998" fill="none" d="M 0.000000 750.000000 L 750.000000 625.000000 " />
<path stroke-linejoin="round" stroke-linecap="round" stroke="rgb(255,0,0)" stroke-width="3.749996" fill="none" d="M 232.793518 711.201111 L 236.908569 719.431152 " />
<path stroke-linejoin="round" stroke-linecap="round" stroke="rgb(0,0,255)" stroke-width="1.874998" fill="none" d="M 0.000000 750.000000 L 750.000000 594.827576 " />
<path stroke-linejoin="round" stroke-linecap="round" stroke="rgb(255,0,0)" stroke-width="3.749996" fill="none" d="M 228.549866 702.713806 L 232.793518 711.201111 " />
<path stroke-linejoin="round" stroke-linecap="round" stroke="rgb(0,0,255)" stroke-width="1.874998" fill="none" d="M 0.000000 750.000000 L 750.000000 575.000000 " />
<path stroke-linejoin="round" stroke-linecap="round" stroke="rgb(255,0,0)" stroke-width="3.749996" fill="none" d="M 225.844452 697.302979 L 228.549866 702.713806 " />
<path stroke-linejoin="round" stroke-linecap="round" stroke="rgb(0,0,255)" stroke-width="1.874998" fill="none" d="M 0.000000 750.000000 L 750.000000 543.103455 " />
<path stroke-linejoin="round" stroke-linecap="round" stroke="rgb(255,0,0)" stroke-width="3.749996" fill="none" d="M 221.624130 688.862305 L 225.844452 697.302979 " />
<path stroke-linejoin="round" stroke-linecap="round" stroke="rgb(0,0,255)" stroke-width="1.874998" fill="none" d="M 0.000000 750.000000 L 750.000000 525.000000 " />
<path stroke-linejoin="round" stroke-linecap="round" stroke="rgb(255,0,0)" stroke-width="3.749996" fill="none" d="M 219.298264 684.210510 L 221.624130 688.862305 " />
<path stroke-linejoin="round" stroke-linecap="round" stroke="rgb(0,0,255)" stroke-width="1.874998" fill="none" d="M 0.000000 750.000000 L 750.000000 508.928589 " />
<path stroke-linejoin="round" stroke-linecap="round" stroke="rgb(255,0,0)" stroke-width="3.749996" fill="none" d="M 217.273956 680.161926 L 219.298264 684.210510 " />
<path stroke-linejoin="round" stroke-linecap="round" stroke="rgb(0,0,255)" stroke-width="1.874998" fill="none" d="M 0.000000 750.000000 L 750.000000 472.222198 " />
<path stroke-linejoin="round" stroke-linecap="round" stroke="rgb(255,0,0)" stroke-width="3.749996" fill="none" d="M 212.787827 671.189697 L 217.273956 680.161926 " />
<path stroke-linejoin="round" stroke-linecap="round" stroke="rgb(0,0,255)" stroke-width="1.874998" fill="none" d="M 0.000000 750.000000 L 750.000000 432.692291 " />
<path stroke-linejoin="round" stroke-linecap="round" stroke="rgb(255,0,0)" stroke-width="3.749996" fill="none" d="M 208.159271 661.932617 L 212.787781 671.189697 " />
<path stroke-linejoin="round" stroke-linecap="round" stroke="rgb(0,0,255)" stroke-width="1.874998" fill="none" d="M 0.000000 750.000000 L 750.000000 390.000000 " />
<path stroke-linejoin="round" stroke-linecap="round" stroke="rgb(255,0,0)" stroke-width="3.749996" fill="none" d="M 203.381409 652.376953 L 208.159271 661.932617 " />
<path stroke-linejoin="round" stroke-linecap="round" stroke="rgb(0,0,255)" stroke-width="1.874998" fill="none" d="M 0.000000 750.000000 L 750.000000 343.750000 " />
<path stroke-linejoin="round" stroke-linecap="round" stroke="rgb(255,0,0)" stroke-width="3.749996" fill="none" d="M 198.446854 642.507996 L 203.381363 652.376953 " />
<path stroke-linejoin="round" stroke-linecap="round" stroke="rgb(0,0,255)" stroke-width="1.874998" fill="none" d="M 0.000000 750.000000 L 750.000000 293.478271 " />
<path stroke-linejoin="round" stroke-linecap="round" stroke="rgb(255,0,0)" stroke-width="3.749996" fill="none" d="M 193.347931 632.309937 L 198.446854 642.507996 " />
<path stroke-linejoin="round" stroke-linecap="round" stroke="rgb(0,0,255)" stroke-width="1.874998" fill="none" d="M 0.000000 750.000000 L 750.000000 238.636353 " />
<path stroke-linejoin="round" stroke-linecap="round" stroke="rgb(255,0,0)" stroke-width="3.749996" fill="none" d="M 188.076096 621.766296 L 193.347931 632.309937 " />
<path stroke-linejoin="round" stroke-linecap="round" stroke="rgb(0,0,255)" stroke-width="1.874998" fill="none" d="M 0.000000 750.000000 L 750.000000 178.571411 " />
<path stroke-linejoin="round" stroke-linecap="round" stroke="rgb(255,0,0)" stroke-width="3.749996" fill="none" d="M 182.622467 610.859070 L 188.076096 621.766296 " />
<path stroke-linejoin="round" stroke-linecap="round" stroke="rgb(0,0,255)" stroke-width="1.874998" fill="none" d="M 0.000000 750.000000 L 750.000000 170.454559 " />
<path stroke-linejoin="round" stroke-linecap="round" stroke="rgb(255,0,0)" stroke-width="3.749996" fill="none" d="M 181.909668 609.433472 L 182.622467 610.859070 " />
<path stroke-linejoin="round" stroke-linecap="round" stroke="rgb(0,0,255)" stroke-width="1.874998" fill="none" d="M 0.000000 750.000000 L 750.000000 107.142853 " />
<path stroke-linejoin="round" stroke-linecap="round" stroke="rgb(255,0,0)" stroke-width="3.749996" fill="none" d="M 176.535065 598.684265 L 181.909668 609.433472 " />
<path stroke-linejoin="round" stroke-linecap="round" stroke="rgb(0,0,255)" stroke-width="1.874998" fill="none" d="M 0.000000 750.000000 L 750.000000 102.272720 " />
<path stroke-linejoin="round" stroke-linecap="round" stroke="rgb(255,0,0)" stroke-width="3.749996" fill="none" d="M 176.134750 597.883606 L 176.535065 598.684265 " />
<path stroke-linejoin="round" stroke-linecap="round" stroke="rgb(0,0,255)" stroke-width="1.874998" fill="none" d="M 0.000000 750.000000 L 750.000000 37.500008 " />
<path stroke-linejoin="round" stroke-linecap="round" stroke="rgb(255,0,0)" stroke-width="3.749996" fill="none" d="M 170.978241 587.570679 L 176.134720 597.883606 " />
<path stroke-linejoin="round" stroke-linecap="round" stroke="rgb(0,0,255)" stroke-width="1.874998" fill="none" d="M 0.000000 750.000000 L 712.500000 0.000000 " />
<path stroke-linejoin="round" stroke-linecap="round" stroke="rgb(255,0,0)" stroke-width="3.749996" fill="none" d="M 165.229813 576.073853 L 170.978226 587.570679 " />
<path stroke-linejoin="round" stroke-linecap="round" stroke="rgb(0,0,255)" stroke-width="1.874998" fill="none" d="M 0.000000 750.000000 L 647.727295 0.000000 " />
<path stroke-linejoin="round" stroke-linecap="round" stroke="rgb(255,0,0)" stroke-width="3.749996" fill="none" d="M 159.722168 565.058533 L 165.229813 576.073853 " />
<path stroke-linejoin="round" stroke-linecap="round" stroke="rgb(0,0,255)" stroke-width="1.874998" fill="none" d="M 0.000000 750.000000 L 586.956543 0.000000 " />
<path stroke-linejoin="round" stroke-linecap="round" stroke="rgb(255,0,0)" stroke-width="3.749996" fill="none" d="M 153.880417 553.375061 L 159.722168 565.058533 " />
<path stroke-linejoin="round" stroke-linecap="round" stroke="rgb(0,0,255)" stroke-width="1.874998" fill="none" d="M 0.000000 750.000000 L 531.250000 0.000000 " />
<path stroke-linejoin="round" stroke-linecap="round" stroke="rgb(255,0,0)" stroke-width="3.749996" fill="none" d="M 147.837219 541.288635 L 153.880417 553.375061 " />
<path stroke-linejoin="round" stroke-linecap="round" stroke="rgb(0,0,255)" stroke-width="1.874998" fill="none" d="M 0.000000 750.000000 L 480.000000 0.000000 " />
<path stroke-linejoin="round" stroke-linecap="round" stroke="rgb(255,0,0)" stroke-width="3.749996" fill="none" d="M 141.581970 528.778198 L 147.837219 541.288635 " />
<path stroke-linejoin="round" stroke-linecap="round" stroke="rgb(0,0,255)" stroke-width="1.874998" fill="none" d="M 0.000000 750.000000 L 444.444458 0.000000 " />
<path stroke-linejoin="round" stroke-linecap="round" stroke="rgb(255,0,0)" stroke-width="3.749996" fill="none" d="M 136.782578 519.179443 L 141.581970 528.778198 " />
<path stroke-linejoin="round" stroke-linecap="round" stroke="rgb(0,0,255)" stroke-width="1.874998" fill="none" d="M 0.000000 750.000000 L 413.793091 0.000000 " />
<path stroke-linejoin="round" stroke-linecap="round" stroke="rgb(255,0,0)" stroke-width="3.749996" fill="none" d="M 132.297882 510.210052 L 136.782562 519.179443 " />
<path stroke-linejoin="round" stroke-linecap="round" stroke="rgb(0,0,255)" stroke-width="1.874998" fill="none" d="M 0.000000 750.000000 L 375.000000 0.000000 " />
<path stroke-linejoin="round" stroke-linecap="round" stroke="rgb(255,0,0)" stroke-width="3.749996" fill="none" d="M 126.096436 497.807129 L 132.297882 510.210052 " />
<path stroke-linejoin="round" stroke-linecap="round" stroke="rgb(0,0,255)" stroke-width="1.874998" fill="none" d="M 0.000000 750.000000 L 362.068970 0.000000 " />
<path stroke-linejoin="round" stroke-linecap="round" stroke="rgb(255,0,0)" stroke-width="3.749996" fill="none" d="M 123.884216 493.382751 L 126.096436 497.807129 " />
<path stroke-linejoin="round" stroke-linecap="round" stroke="rgb(0,0,255)" stroke-width="1.874998" fill="none" d="M 0.000000 750.000000 L 325.000000 0.000000 " />
<path stroke-linejoin="round" stroke-linecap="round" stroke="rgb(255,0,0)" stroke-width="3.749996" fill="none" d="M 117.089531 479.793427 L 123.884216 493.382751 " />
<path stroke-linejoin="round" stroke-linecap="round" stroke="rgb(0,0,255)" stroke-width="1.874998" fill="none" d="M 0.000000 750.000000 L 290.322601 0.000000 " />
<path stroke-linejoin="round" stroke-linecap="round" stroke="rgb(255,0,0)" stroke-width="3.749996" fill="none" d="M 110.047775 465.709930 L 117.089508 479.793427 " />
<path stroke-linejoin="round" stroke-linecap="round" stroke="rgb(0,0,255)" stroke-width="1.874998" fill="none" d="M 0.000000 750.000000 L 272.727295 0.000000 " />
<path stroke-linejoin="round" stroke-linecap="round" stroke="rgb(255,0,0)" stroke-width="3.749996" fill="none" d="M 106.186440 457.987244 L 110.047775 465.709930 " />
<path stroke-linejoin="round" stroke-linecap="round" stroke="rgb(0,0,255)" stroke-width="1.874998" fill="none" d="M 0.000000 750.000000 L 257.142853 0.000000 " />
<path stroke-linejoin="round" stroke-linecap="round" stroke="rgb(255,0,0)" stroke-width="3.749996" fill="none" d="M 102.586899 450.788177 L 106.186440 457.987244 " />
<path stroke-linejoin="round" stroke-linecap="round" stroke="rgb(0,0,255)" stroke-width="1.874998" fill="none" d="M 0.000000 750.000000 L 229.166672 0.000000 " />
<path stroke-linejoin="round" stroke-linecap="round" stroke="rgb(255,0,0)" stroke-width="3.749996" fill="none" d="M 95.659355 436.933044 L 102.586899 450.788239 " />
<path stroke-linejoin="round" stroke-linecap="round" stroke="rgb(0,0,255)" stroke-width="1.874998" fill="none" d="M 0.000000 750.000000 L 202.702698 0.000000 " />
<path stroke-linejoin="round" stroke-linecap="round" stroke="rgb(255,0,0)" stroke-width="3.749996" fill="none" d="M 88.488716 422.591736 L 95.659355 436.933044 " />
<path stroke-linejoin="round" stroke-linecap="round" stroke="rgb(0,0,255)" stroke-width="1.874998" fill="none" d="M 0.000000 750.000000 L 192.307678 0.000000 " />
<path stroke-linejoin="round" stroke-linecap="round" stroke="rgb(255,0,0)" stroke-width="3.749996" fill="none" d="M 85.489113 416.592529 L 88.488716 422.591736 " />
<path stroke-linejoin="round" stroke-linecap="round" stroke="rgb(0,0,255)" stroke-width="1.874998" fill="none" d="M 0.000000 750.000000 L 182.926834 0.000000 " />
<path stroke-linejoin="round" stroke-linecap="round" stroke="rgb(255,0,0)" stroke-width="3.749996" fill="none" d="M 82.838257 410.363190 L 85.489113 416.592529 " />
<path stroke-linejoin="round" stroke-linecap="round" stroke="rgb(0,0,255)" stroke-width="1.874998" fill="none" d="M 0.000000 750.000000 L 174.418594 0.000000 " />
<path stroke-linejoin="round" stroke-linecap="round" stroke="rgb(255,0,0)" stroke-width="3.749996" fill="none" d="M 80.764931 402.710785 L 82.838257 410.363129 " />
<path stroke-linejoin="round" stroke-linecap="round" stroke="rgb(0,0,255)" stroke-width="1.874998" fill="none" d="M 0.000000 750.000000 L 160.714294 0.000000 " />
<path stroke-linejoin="round" stroke-linecap="round" stroke="rgb(255,0,0)" stroke-width="3.749996" fill="none" d="M 77.615822 387.792847 L 80.764931 402.710785 " />
<path stroke-linejoin="round" stroke-linecap="round" stroke="rgb(0,0,255)" stroke-width="1.874998" fill="none" d="M 0.000000 750.000000 L 153.409073 0.000000 " />
<path stroke-linejoin="round" stroke-linecap="round" stroke="rgb(255,0,0)" stroke-width="3.749996" fill="none" d="M 75.850029 379.177643 L 77.615822 387.792847 " />
<path stroke-linejoin="round" stroke-linecap="round" stroke="rgb(0,0,255)" stroke-width="1.874998" fill="none" d="M 0.000000 750.000000 L 139.534882 0.000000 " />
<path stroke-linejoin="round" stroke-linecap="round" stroke="rgb(255,0,0)" stroke-width="3.749996" fill="none" d="M 72.290894 361.436401 L 75.850029 379.177643 " />
<path stroke-linejoin="round" stroke-linecap="round" stroke="rgb(0,0,255)" stroke-width="1.874998" fill="none" d="M 0.000000 750.000000 L 119.318176 0.000000 " />
<path stroke-linejoin="round" stroke-linecap="round" stroke="rgb(255,0,0)" stroke-width="3.749996" fill="none" d="M 66.456108 332.275909 L 72.290894 361.436401 " />
<path stroke-linejoin="round" stroke-linecap="round" stroke="rgb(0,0,255)" stroke-width="1.874998" fill="none" d="M 0.000000 750.000000 L 99.999992 0.000000 " />
<path stroke-linejoin="round" stroke-linecap="round" stroke="rgb(255,0,0)" stroke-width="3.749996" fill="none" d="M 60.000099 299.999298 L 66.456108 332.275909 " />
<path stroke-linejoin="round" stroke-linecap="round" stroke="rgb(0,0,255)" stroke-width="1.874998" fill="none" d="M 0.000000 750.000000 L 95.744667 0.000000 " />
<path stroke-linejoin="round" stroke-linecap="round" stroke="rgb(255,0,0)" stroke-width="3.749996" fill="none" d="M 58.441578 292.207642 L 60.000099 299.999298 " />
<path stroke-linejoin="round" stroke-linecap="round" stroke="rgb(0,0,255)" stroke-width="1.874998" fill="none" d="M 0.000000 750.000000 L 88.235291 0.000000 " />
<path stroke-linejoin="round" stroke-linecap="round" stroke="rgb(255,0,0)" stroke-width="3.749996" fill="none" d="M 55.555569 277.777740 L 58.441578 292.207703 " />
<path stroke-linejoin="round" stroke-linecap="round" stroke="rgb(0,0,255)" stroke-width="1.874998" fill="none" d="M 0.000000 750.000000 L 84.905663 0.000000 " />
<path stroke-linejoin="round" stroke-linecap="round" stroke="rgb(255,0,0)" stroke-width="3.749996" fill="none" d="M 54.216877 271.084290 L 55.555569 277.777740 " />
<path stroke-linejoin="round" stroke-linecap="round" stroke="rgb(0,0,255)" stroke-width="1.874998" fill="none" d="M 0.000000 750.000000 L 81.521744 0.000000 " />
<path stroke-linejoin="round" stroke-linecap="round" stroke="rgb(255,0,0)" stroke-width="3.749996" fill="none" d="M 52.816898 264.084534 L 54.216877 271.084290 " />
<path stroke-linejoin="round" stroke-linecap="round" stroke="rgb(0,0,255)" stroke-width="1.874998" fill="none" d="M 0.000000 750.000000 L 63.829781 0.000000 " />
<path stroke-linejoin="round" stroke-linecap="round" stroke="rgb(255,0,0)" stroke-width="3.749996" fill="none" d="M 44.776127 223.880630 L 52.816898 264.084564 " />
<path stroke-linejoin="round" stroke-linecap="round" stroke="rgb(0,0,255)" stroke-width="1.874998" fill="none" d="M 0.000000 750.000000 L 61.224483 0.000000 " />
<path stroke-linejoin="round" stroke-linecap="round" stroke="rgb(255,0,0)" stroke-width="3.749996" fill="none" d="M 43.478249 217.391296 L 44.776127 223.880630 " />
<path stroke-linejoin="round" stroke-linecap="round" stroke="rgb(0,0,255)" stroke-width="1.874998" fill="none" d="M 0.000000 750.000000 L 58.823524 0.000000 " />
<path stroke-linejoin="round" stroke-linecap="round" stroke="rgb(255,0,0)" stroke-width="3.749996" fill="none" d="M 42.253510 211.267593 L 43.478249 217.391296 " />
<path stroke-linejoin="round" stroke-linecap="round" stroke="rgb(0,0,255)" stroke-width="1.874998" fill="none" d="M 0.000000 750.000000 L 43.478249 0.000000 " />
<path stroke-linejoin="round" stroke-linecap="round" stroke="rgb(255,0,0)" stroke-width="3.749996" fill="none" d="M 33.707855 168.539352 L 42.253510 211.267593 " />
<path stroke-linejoin="round" stroke-linecap="round" stroke="rgb(0,0,255)" stroke-width="1.874998" fill="none" d="M 0.000000 750.000000 L 40.000008 0.000000 " />
<path stroke-linejoin="round" stroke-linecap="round" stroke="rgb(255,0,0)" stroke-width="3.749996" fill="none" d="M 31.578943 157.894745 L 33.707855 168.539352 " />
<path stroke-linejoin="round" stroke-linecap="round" stroke="rgb(0,0,255)" stroke-width="1.874998" fill="none" d="M 0.000000 750.000000 L 38.961029 0.000000 " />
<path stroke-linejoin="round" stroke-linecap="round" stroke="rgb(255,0,0)" stroke-width="3.749996" fill="none" d="M 30.927837 154.639114 L 31.578943 157.894745 " />
<path stroke-linejoin="round" stroke-linecap="round" stroke="rgb(0,0,255)" stroke-width="1.874998" fill="none" d="M 0.000000 750.000000 L 34.090919 0.000000 " />
<path stroke-linejoin="round" stroke-linecap="round" stroke="rgb(255,0,0)" stroke-width="3.749996" fill="none" d="M 27.777784 138.888901 L 30.927837 154.639114 " />
<path stroke-linejoin="round" stroke-linecap="round" stroke="rgb(0,0,255)" stroke-width="1.874998" fill="none" d="M 0.000000 750.000000 L 33.088245 0.000000 " />
<path stroke-linejoin="round" stroke-linecap="round" stroke="rgb(255,0,0)" stroke-width="3.749996" fill="none" d="M 27.108438 135.542221 L 27.777784 138.888901 " />
<path stroke-linejoin="round" stroke-linecap="round" stroke="rgb(0,0,255)" stroke-width="1.874998" fill="none" d="M 0.000000 750.000000 L 32.142857 0.000000 " />
<path stroke-linejoin="round" stroke-linecap="round" stroke="rgb(255,0,0)" stroke-width="3.749996" fill="none" d="M 26.470587 132.352997 L 27.108438 135.542282 " />
<path stroke-linejoin="round" stroke-linecap="round" stroke="rgb(0,0,255)" stroke-width="1.874998" fill="none" d="M 0.000000 750.000000 L 21.126755 0.000000 " />
<path stroke-linejoin="round" stroke-linecap="round" stroke="rgb(255,0,0)" stroke-width="3.749996" fill="none" d="M 18.518507 92.592651 L 26.470587 132.352997 " />
<path stroke-linejoin="round" stroke-linecap="round" stroke="rgb(0,0,255)" stroke-width="1.874998" fill="none" d="M 0.000000 750.000000 L 9.259254 0.000000 " />
<path stroke-linejoin="round" stroke-linecap="round" stroke="rgb(255,0,0)" stroke-width="3.749996" fill="none" d="M 8.720934 43.604782 L 18.518507 92.592651 " />
<path stroke-linejoin="round" stroke-linecap="round" stroke="rgb(0,0,255)" stroke-width="1.874998" fill="none" d="M 0.000000 750.000000 L 0.000000 0.000000 " />
<path stroke-linejoin="round" stroke-linecap="round" stroke="rgb(255,0,0)" stroke-width="3.749996" fill="none" d="M 0.000000 0.000000 L 8.720934 43.604782 " />
<circle cx="248.538002" cy="742.690064" r="3.749996" style="fill:rgb(0,127,0);stroke-width:1" /><circle cx="244.775523" cy="735.165127" r="3.749996" style="fill:rgb(0,127,0);stroke-width:1" /><circle cx="240.900736" cy="727.415554" r="3.749996" style="fill:rgb(0,127,0);stroke-width:1" /><circle cx="236.908559" cy="719.431154" r="3.749996" style="fill:rgb(0,127,0);stroke-width:1" /><circle cx="232.793514" cy="711.201087" r="3.749996" style="fill:rgb(0,127,0);stroke-width:1" /><circle cx="228.549879" cy="702.713817" r="3.749996" style="fill:rgb(0,127,0);stroke-width:1" /><circle cx="225.844447" cy="697.302952" r="3.749996" style="fill:rgb(0,127,0);stroke-width:1" /><circle cx="221.624125" cy="688.862309" r="3.749996" style="fill:rgb(0,127,0);stroke-width:1" /><circle cx="219.298247" cy="684.210531" r="3.749996" style="fill:rgb(0,127,0);stroke-width:1" /><circle cx="217.273951" cy="680.161938" r="3.749996" style="fill:rgb(0,127,0);stroke-width:1" /><circle cx="212.787811" cy="671.189703" r="3.749996" style="fill:rgb(0,127,0);stroke-width:1" /><circle cx="208.159257" cy="661.932617" r="3.749996" style="fill:rgb(0,127,0);stroke-width:1" /><circle cx="203.381393" cy="652.376935" r="3.749996" style="fill:rgb(0,127,0);stroke-width:1" /><circle cx="198.446866" cy="642.507948" r="3.749996" style="fill:rgb(0,127,0);stroke-width:1" /><circle cx="193.347920" cy="632.309966" r="3.749996" style="fill:rgb(0,127,0);stroke-width:1" /><circle cx="188.076094" cy="621.766292" r="3.749996" style="fill:rgb(0,127,0);stroke-width:1" /><circle cx="182.622470" cy="610.859066" r="3.749996" style="fill:rgb(0,127,0);stroke-width:1" /><circle cx="181.909673" cy="609.433450" r="3.749996" style="fill:rgb(0,127,0);stroke-width:1" /><circle cx="176.535062" cy="598.684229" r="3.749996" style="fill:rgb(0,127,0);stroke-width:1" /><circle cx="176.134743" cy="597.883634" r="3.749996" style="fill:rgb(0,127,0);stroke-width:1" /><circle cx="170.978241" cy="587.570675" r="3.749996" style="fill:rgb(0,127,0);stroke-width:1" /><circle cx="165.229820" cy="576.073878" r="3.749996" style="fill:rgb(0,127,0);stroke-width:1" /><circle cx="159.722172" cy="565.058537" r="3.749996" style="fill:rgb(0,127,0);stroke-width:1" /><circle cx="153.880410" cy="553.375036" r="3.749996" style="fill:rgb(0,127,0);stroke-width:1" /><circle cx="147.837214" cy="541.288644" r="3.749996" style="fill:rgb(0,127,0);stroke-width:1" /><circle cx="141.581967" cy="528.778184" r="3.749996" style="fill:rgb(0,127,0);stroke-width:1" /><circle cx="136.782579" cy="519.179408" r="3.749996" style="fill:rgb(0,127,0);stroke-width:1" /><circle cx="132.297881" cy="510.210078" r="3.749996" style="fill:rgb(0,127,0);stroke-width:1" /><circle cx="126.096435" cy="497.807141" r="3.749996" style="fill:rgb(0,127,0);stroke-width:1" /><circle cx="123.884216" cy="493.382726" r="3.749996" style="fill:rgb(0,127,0);stroke-width:1" /><circle cx="117.089532" cy="479.793403" r="3.749996" style="fill:rgb(0,127,0);stroke-width:1" /><circle cx="110.047773" cy="465.709923" r="3.749996" style="fill:rgb(0,127,0);stroke-width:1" /><circle cx="106.186442" cy="457.987251" r="3.749996" style="fill:rgb(0,127,0);stroke-width:1" /><circle cx="102.586895" cy="450.788202" r="3.749996" style="fill:rgb(0,127,0);stroke-width:1" /><circle cx="95.659353" cy="436.933039" r="3.749996" style="fill:rgb(0,127,0);stroke-width:1" /><circle cx="88.488713" cy="422.591748" r="3.749996" style="fill:rgb(0,127,0);stroke-width:1" /><circle cx="85.489109" cy="416.592509" r="3.749996" style="fill:rgb(0,127,0);stroke-width:1" /><circle cx="82.838260" cy="410.363168" r="3.749996" style="fill:rgb(0,127,0);stroke-width:1" /><circle cx="80.764934" cy="402.710795" r="3.749996" style="fill:rgb(0,127,0);stroke-width:1" /><circle cx="77.615820" cy="387.792825" r="3.749996" style="fill:rgb(0,127,0);stroke-width:1" /><circle cx="75.850032" cy="379.177630" r="3.749996" style="fill:rgb(0,127,0);stroke-width:1" /><circle cx="72.290897" cy="361.436397" r="3.749996" style="fill:rgb(0,127,0);stroke-width:1" /><circle cx="66.456109" cy="332.275928" r="3.749996" style="fill:rgb(0,127,0);stroke-width:1" /><circle cx="60.000099" cy="299.999295" r="3.749996" style="fill:rgb(0,127,0);stroke-width:1" /><circle cx="58.441579" cy="292.207628" r="3.749996" style="fill:rgb(0,127,0);stroke-width:1" /><circle cx="55.555567" cy="277.777735" r="3.749996" style="fill:rgb(0,127,0);stroke-width:1" /><circle cx="54.216877" cy="271.084305" r="3.749996" style="fill:rgb(0,127,0);stroke-width:1" /><circle cx="52.816898" cy="264.084544" r="3.749996" style="fill:rgb(0,127,0);stroke-width:1" /><circle cx="44.776127" cy="223.880645" r="3.749996" style="fill:rgb(0,127,0);stroke-width:1" /><circle cx="43.478251" cy="217.391308" r="3.749996" style="fill:rgb(0,127,0);stroke-width:1" /><circle cx="42.253509" cy="211.267591" r="3.749996" style="fill:rgb(0,127,0);stroke-width:1" /><circle cx="33.707857" cy="168.539353" r="3.749996" style="fill:rgb(0,127,0);stroke-width:1" /><circle cx="31.578943" cy="157.894738" r="3.749996" style="fill:rgb(0,127,0);stroke-width:1" /><circle cx="30.927837" cy="154.639117" r="3.749996" style="fill:rgb(0,127,0);stroke-width:1" /><circle cx="27.777784" cy="138.888896" r="3.749996" style="fill:rgb(0,127,0);stroke-width:1" /><circle cx="27.108438" cy="135.542214" r="3.749996" style="fill:rgb(0,127,0);stroke-width:1" /><circle cx="26.470587" cy="132.353000" r="3.749996" style="fill:rgb(0,127,0);stroke-width:1" /><circle cx="18.518507" cy="92.592649" r="3.749996" style="fill:rgb(0,127,0);stroke-width:1" /><circle cx="8.720934" cy="43.604784" r="3.749996" style="fill:rgb(0,127,0);stroke-width:1" /><circle cx="750.000000" cy="750.000000" r="3.749996" style="fill:rgb(0,127,0);stroke-width:1" /><path stroke-linejoin="round" stroke-linecap="round" stroke="rgb(255,255,255)" stroke-width="3.749996" fill="none" d="M 0.000000 750.000000 L 750.000000 750.000000 M 0.000000 750.000000 L 0.000000 0.000000 " />

</svg>