<svg xmlns="http://www.w3.org/2000/svg" version="1.1" width = "750" height = "750" viewBox = "0 0 750 750"  shape-rendering="crispEdges">
<path stroke-linejoin="round" stroke-linecap="round" stroke="rgb(255,255,0)" stroke-width="3.749996" fill="none" d="M 74.999992 750.000000 L 0.000000 0.000000 " />
<path stroke-linejoin="round" stroke-linecap="round" stroke="rgb(63,63,63)" stroke-width="3.749996" fill="none" d="M 0.000000 0.000000 L 750.000000 750.000000 M 74.999992 750.000000 L 35.526306 0.000000 " />
<path stroke-linejoin="round" stroke-linecap="round" stroke="rgb(191,191,191)" stroke-width="3.749996" fill="none" d="M 0.000000 675.000000 L 74.999992 750.000000 M 0.000000 0.000000 L 39.473690 750.000000 " />
<path stroke-linejoin="round" stroke-linecap="round" stroke="rgb(0,0,255)" stroke-width="1.874998" fill="none" d="M 0.000000 750.000000 L 750.000000 727.272766 " />
<path stroke-linejoin="round" stroke-linecap="round" stroke="rgb(255,0,0)" stroke-width="3.749996" fill="none" d="M 74.880569 747.730896 L 74.999992 750.000000 " />
<path stroke-linejoin="round" stroke-linecap="round" stroke="rgb(0,0,255)" stroke-width="1.874998" fill="none" d="M 0.000000 750.000000 L 750.000000 705.882385 " />
<path stroke-linejoin="round" stroke-linecap="round" stroke="rgb(255,0,0)" stroke-width="3.749996" fill="none" d="M 74.496391 745.617859 L 74.880569 747.730896 " />
<path stroke-linejoin="round" stroke-linecap="round" stroke="rgb(0,0,255)" stroke-width="1.874998" fill="none" d="M 0.000000 750.000000 L 750.000000 681.818176 " />
<path stroke-linejoin="round" stroke-linecap="round" stroke="rgb(255,0,0)" stroke-width="3.749996" fill="none" d="M 74.068863 743.266479 L 74.496391 745.617859 " />
<path stroke-linejoin="round" stroke-linecap="round" stroke="rgb(0,0,255)" stroke-width="1.874998" fill="none" d="M 0.000000 750.000000 L 750.000000 661.764709 " />
<path stroke-linejoin="round" stroke-linecap="round" stroke="rgb(255,0,0)" stroke-width="3.749996" fill="none" d="M 73.716316 741.327515 L 74.068863 743.266479 " />
<path stroke-linejoin="round" stroke-linecap="round" stroke="rgb(0,0,255)" stroke-width="1.874998" fill="none" d="M 0.000000 750.000000 L 750.000000 636.363647 " />
<path stroke-linejoin="round" stroke-linecap="round" stroke="rgb(255,0,0)" stroke-width="3.749996" fill="none" d="M 73.274551 738.897827 L 73.716316 741.327515 " />
<path stroke-linejoin="round" stroke-linecap="round" stroke="rgb(0,0,255)" stroke-width="1.874998" fill="none" d="M 0.000000 750.000000 L 750.000000 609.375000 " />
<path stroke-linejoin="round" stroke-linecap="round" stroke="rgb(255,0,0)" stroke-width="3.749996" fill="none" d="M 72.810959 736.347961 L 73.274551 738.897827 " />
<path stroke-linejoin="round" stroke-linecap="round" stroke="rgb(0,0,255)" stroke-width="1.874998" fill="none" d="M 0.000000 750.000000 L 750.000000 580.645142 " />
<path stroke-linejoin="round" stroke-linecap="round" stroke="rgb(255,0,0)" stroke-width="3.749996" fill="none" d="M 72.323845 733.668823 L 72.810959 736.347961 " />
<path stroke-linejoin="round" stroke-linecap="round" stroke="rgb(0,0,255)" stroke-width="1.874998" fill="none" d="M 0.000000 750.000000 L 750.000000 550.000000 " />
<path stroke-linejoin="round" stroke-linecap="round" stroke="rgb(255,0,0)" stroke-width="3.749996" fill="none" d="M 71.811386 730.850281 L 72.323845 733.668823 " />
<path stroke-linejoin="round" stroke-linecap="round" stroke="rgb(0,0,255)" stroke-width="1.874998" fill="none" d="M 0.000000 750.000000 L 750.000000 517.241394 " />
<path stroke-linejoin="round" stroke-linecap="round" stroke="rgb(255,0,0)" stroke-width="3.749996" fill="none" d="M 71.271545 727.881226 L 71.811386 730.850281 " />
<path stroke-linejoin="round" stroke-linecap="round" stroke="rgb(0,0,255)" stroke-width="1.874998" fill="none" d="M 0.000000 750.000000 L 750.000000 499.999969 " />
<path stroke-linejoin="round" stroke-linecap="round" stroke="rgb(255,0,0)" stroke-width="3.749996" fill="none" d="M 70.990700 726.336426 L 71.271568 727.881226 " />
<path stroke-linejoin="round" stroke-linecap="round" stroke="rgb(0,0,255)" stroke-width="1.874998" fill="none" d="M 0.000000 750.000000 L 750.000000 465.517212 " />
<path stroke-linejoin="round" stroke-linecap="round" stroke="rgb(255,0,0)" stroke-width="3.749996" fill="none" d="M 70.435524 723.283081 L 70.990700 726.336426 " />
<path stroke-linejoin="round" stroke-linecap="round" stroke="rgb(0,0,255)" stroke-width="1.874998" fill="none" d="M 0.000000 750.000000 L 750.000000 428.571411 " />
<path stroke-linejoin="round" stroke-linecap="round" stroke="rgb(255,0,0)" stroke-width="3.749996" fill="none" d="M 69.850288 720.064148 L 70.435547 723.283081 " />
<path stroke-linejoin="round" stroke-linecap="round" stroke="rgb(0,0,255)" stroke-width="1.874998" fill="none" d="M 0.000000 750.000000 L 750.000000 413.793091 " />
<path stroke-linejoin="round" stroke-linecap="round" stroke="rgb(255,0,0)" stroke-width="3.749996" fill="none" d="M 69.618881 718.791504 L 69.850288 720.064148 " />
<path stroke-linejoin="round" stroke-linecap="round" stroke="rgb(0,0,255)" stroke-width="1.874998" fill="none" d="M 0.000000 750.000000 L 750.000000 388.888885 " />
<path stroke-linejoin="round" stroke-linecap="round" stroke="rgb(255,0,0)" stroke-width="3.749996" fill="none" d="M 69.232399 716.665894 L 69.618881 718.791504 " />
<path stroke-linejoin="round" stroke-linecap="round" stroke="rgb(0,0,255)" stroke-width="1.874998" fill="none" d="M 0.000000 750.000000 L 750.000000 346.153839 " />
<path stroke-linejoin="round" stroke-linecap="round" stroke="rgb(255,0,0)" stroke-width="3.749996" fill="none" d="M 68.579124 713.072754 L 69.232399 716.665894 " />
<path stroke-linejoin="round" stroke-linecap="round" stroke="rgb(0,0,255)" stroke-width="1.874998" fill="none" d="M 0.000000 750.000000 L 750.000000 333.333313 " />
<path stroke-linejoin="round" stroke-linecap="round" stroke="rgb(255,0,0)" stroke-width="3.749996" fill="none" d="M 68.385536 712.008057 L 68.579124 713.072754 " />
<path stroke-linejoin="round" stroke-linecap="round" stroke="rgb(0,0,255)" stroke-width="1.874998" fill="none" d="M 0.000000 750.000000 L 750.000000 288.461517 " />
<path stroke-linejoin="round" stroke-linecap="round" stroke="rgb(255,0,0)" stroke-width="3.749996" fill="none" d="M 67.716499 708.328308 L 68.385536 712.008057 " />
<path stroke-linejoin="round" stroke-linecap="round" stroke="rgb(0,0,255)" stroke-width="1.874998" fill="none" d="M 0.000000 750.000000 L 750.000000 277.777802 " />
<path stroke-linejoin="round" stroke-linecap="round" stroke="rgb(255,0,0)" stroke-width="3.749996" fill="none" d="M 67.559120 707.462769 L 67.716499 708.328308 " />
<path stroke-linejoin="round" stroke-linecap="round" stroke="rgb(0,0,255)" stroke-width="1.874998" fill="none" d="M 0.000000 750.000000 L 750.000000 230.769211 " />
<path stroke-linejoin="round" stroke-linecap="round" stroke="rgb(255,0,0)" stroke-width="3.749996" fill="none" d="M 66.875298 703.701721 L 67.559120 707.462769 " />
<path stroke-linejoin="round" stroke-linecap="round" stroke="rgb(0,0,255)" stroke-width="1.874998" fill="none" d="M 0.000000 750.000000 L 750.000000 187.500000 " />
<path stroke-linejoin="round" stroke-linecap="round" stroke="rgb(255,0,0)" stroke-width="3.749996" fill="none" d="M 66.257980 700.306519 L 66.875298 703.701721 " />
<path stroke-linejoin="round" stroke-linecap="round" stroke="rgb(0,0,255)" stroke-width="1.874998" fill="none" d="M 0.000000 750.000000 L 721.153870 0.000000 " />
<path stroke-linejoin="round" stroke-linecap="round" stroke="rgb(255,0,0)" stroke-width="3.749996" fill="none" d="M 65.021507 682.377625 L 66.257980 700.306519 " />
<path stroke-linejoin="round" stroke-linecap="round" stroke="rgb(0,0,255)" stroke-width="1.874998" fill="none" d="M 0.000000 750.000000 L 687.500000 0.000000 " />
<path stroke-linejoin="round" stroke-linecap="round" stroke="rgb(255,0,0)" stroke-width="3.749996" fill="none" d="M 64.519287 679.615356 L 65.021507 682.377625 " />
<path stroke-linejoin="round" stroke-linecap="round" stroke="rgb(0,0,255)" stroke-width="1.874998" fill="none" d="M 0.000000 750.000000 L 634.615417 0.000000 " />
<path stroke-linejoin="round" stroke-linecap="round" stroke="rgb(255,0,0)" stroke-width="3.749996" fill="none" d="M 63.641468 674.787354 L 64.519287 679.615356 " />
<path stroke-linejoin="round" stroke-linecap="round" stroke="rgb(0,0,255)" stroke-width="1.874998" fill="none" d="M 0.000000 750.000000 L 463.235291 0.000000 " />
<path stroke-linejoin="round" stroke-linecap="round" stroke="rgb(255,0,0)" stroke-width="3.749996" fill="none" d="M 61.915195 649.756348 L 63.641468 674.787354 " />
<path stroke-linejoin="round" stroke-linecap="round" stroke="rgb(0,0,255)" stroke-width="1.874998" fill="none" d="M 0.000000 750.000000 L 375.000000 0.000000 " />
<path stroke-linejoin="round" stroke-linecap="round" stroke="rgb(255,0,0)" stroke-width="3.749996" fill="none" d="M 60.485691 629.028625 L 61.915195 649.756348 " />
<path stroke-linejoin="round" stroke-linecap="round" stroke="rgb(0,0,255)" stroke-width="1.874998" fill="none" d="M 0.000000 750.000000 L 350.000000 0.000000 " />
<path stroke-linejoin="round" stroke-linecap="round" stroke="rgb(255,0,0)" stroke-width="3.749996" fill="none" d="M 59.966503 621.500366 L 60.485691 629.028625 " />
<path stroke-linejoin="round" stroke-linecap="round" stroke="rgb(0,0,255)" stroke-width="1.874998" fill="none" d="M 0.000000 750.000000 L 312.500000 0.000000 " />
<path stroke-linejoin="round" stroke-linecap="round" stroke="rgb(255,0,0)" stroke-width="3.749996" fill="none" d="M 59.054085 608.270203 L 59.966503 621.500366 " />
<path stroke-linejoin="round" stroke-linecap="round" stroke="rgb(0,0,255)" stroke-width="1.874998" fill="none" d="M 0.000000 750.000000 L 271.551727 0.000000 " />
<path stroke-linejoin="round" stroke-linecap="round" stroke="rgb(255,0,0)" stroke-width="3.749996" fill="none" d="M 57.815975 590.317810 L 59.054062 608.270203 " />
<path stroke-linejoin="round" stroke-linecap="round" stroke="rgb(0,0,255)" stroke-width="1.874998" fill="none" d="M 0.000000 750.000000 L 254.237289 0.000000 " />
<path stroke-linejoin="round" stroke-linecap="round" stroke="rgb(255,0,0)" stroke-width="3.749996" fill="none" d="M 57.192764 581.281372 L 57.815975 590.317810 " />
<path stroke-linejoin="round" stroke-linecap="round" stroke="rgb(0,0,255)" stroke-width="1.874998" fill="none" d="M 0.000000 750.000000 L 228.260864 0.000000 " />
<path stroke-linejoin="round" stroke-linecap="round" stroke="rgb(255,0,0)" stroke-width="3.749996" fill="none" d="M 56.113220 565.627991 L 57.192764 581.281372 " />
<path stroke-linejoin="round" stroke-linecap="round" stroke="rgb(0,0,255)" stroke-width="1.874998" fill="none" d="M 0.000000 750.000000 L 198.529419 0.000000 " />
<path stroke-linejoin="round" stroke-linecap="round" stroke="rgb(255,0,0)" stroke-width="3.749996" fill="none" d="M 54.602577 543.723633 L 56.113220 565.627991 " />
<path stroke-linejoin="round" stroke-linecap="round" stroke="rgb(0,0,255)" stroke-width="1.874998" fill="none" d="M 0.000000 750.000000 L 182.692322 0.000000 " />
<path stroke-linejoin="round" stroke-linecap="round" stroke="rgb(255,0,0)" stroke-width="3.749996" fill="none" d="M 53.641476 529.787659 L 54.602554 543.723633 " />
<path stroke-linejoin="round" stroke-linecap="round" stroke="rgb(0,0,255)" stroke-width="1.874998" fill="none" d="M 0.000000 750.000000 L 153.409073 0.000000 " />
<path stroke-linejoin="round" stroke-linecap="round" stroke="rgb(255,0,0)" stroke-width="3.749996" fill="none" d="M 51.473492 498.351837 L 53.641476 529.787659 " />
<path stroke-linejoin="round" stroke-linecap="round" stroke="rgb(0,0,255)" stroke-width="1.874998" fill="none" d="M 0.000000 750.000000 L 136.363647 0.000000 " />
<path stroke-linejoin="round" stroke-linecap="round" stroke="rgb(255,0,0)" stroke-width="3.749996" fill="none" d="M 49.900688 475.546234 L 51.473492 498.351837 " />
<path stroke-linejoin="round" stroke-linecap="round" stroke="rgb(0,0,255)" stroke-width="1.874998" fill="none" d="M 0.000000 750.000000 L 130.102051 0.000000 " />
<path stroke-linejoin="round" stroke-linecap="round" stroke="rgb(255,0,0)" stroke-width="3.749996" fill="none" d="M 49.248867 466.094788 L 49.900688 475.546234 " />
<path stroke-linejoin="round" stroke-linecap="round" stroke="rgb(0,0,255)" stroke-width="1.874998" fill="none" d="M 0.000000 750.000000 L 123.417732 0.000000 " />
<path stroke-linejoin="round" stroke-linecap="round" stroke="rgb(255,0,0)" stroke-width="3.749996" fill="none" d="M 47.920681 458.789764 L 49.248867 466.094788 " />
<path stroke-linejoin="round" stroke-linecap="round" stroke="rgb(0,0,255)" stroke-width="1.874998" fill="none" d="M 0.000000 750.000000 L 120.370392 0.000000 " />
<path stroke-linejoin="round" stroke-linecap="round" stroke="rgb(255,0,0)" stroke-width="3.749996" fill="none" d="M 47.292194 455.333191 L 47.920681 458.789764 " />
<path stroke-linejoin="round" stroke-linecap="round" stroke="rgb(0,0,255)" stroke-width="1.874998" fill="none" d="M 0.000000 750.000000 L 117.469894 0.000000 " />
<path stroke-linejoin="round" stroke-linecap="round" stroke="rgb(255,0,0)" stroke-width="3.749996" fill="none" d="M 46.680004 451.966064 L 47.292194 455.333191 " />
<path stroke-linejoin="round" stroke-linecap="round" stroke="rgb(0,0,255)" stroke-width="1.874998" fill="none" d="M 0.000000 750.000000 L 114.705879 0.000000 " />
<path stroke-linejoin="round" stroke-linecap="round" stroke="rgb(255,0,0)" stroke-width="3.749996" fill="none" d="M 46.083458 448.685059 L 46.680004 451.966064 " />
<path stroke-linejoin="round" stroke-linecap="round" stroke="rgb(0,0,255)" stroke-width="1.874998" fill="none" d="M 0.000000 750.000000 L 112.068970 0.000000 " />
<path stroke-linejoin="round" stroke-linecap="round" stroke="rgb(255,0,0)" stroke-width="3.749996" fill="none" d="M 45.501953 445.486877 L 46.083458 448.685059 " />
<path stroke-linejoin="round" stroke-linecap="round" stroke="rgb(0,0,255)" stroke-width="1.874998" fill="none" d="M 0.000000 750.000000 L 109.550560 0.000000 " />
<path stroke-linejoin="round" stroke-linecap="round" stroke="rgb(255,0,0)" stroke-width="3.749996" fill="none" d="M 44.934959 442.368317 L 45.501953 445.486877 " />
<path stroke-linejoin="round" stroke-linecap="round" stroke="rgb(0,0,255)" stroke-width="1.874998" fill="none" d="M 0.000000 750.000000 L 107.142853 0.000000 " />
<path stroke-linejoin="round" stroke-linecap="round" stroke="rgb(255,0,0)" stroke-width="3.749996" fill="none" d="M 44.381908 439.326599 L 44.934959 442.368317 " />
<path stroke-linejoin="round" stroke-linecap="round" stroke="rgb(0,0,255)" stroke-width="1.874998" fill="none" d="M 0.000000 750.000000 L 104.838699 0.000000 " />
<path stroke-linejoin="round" stroke-linecap="round" stroke="rgb(255,0,0)" stroke-width="3.749996" fill="none" d="M 43.842316 436.358826 L 44.381908 439.326599 " />
<path stroke-linejoin="round" stroke-linecap="round" stroke="rgb(0,0,255)" stroke-width="1.874998" fill="none" d="M 0.000000 750.000000 L 99.489792 0.000000 " />
<path stroke-linejoin="round" stroke-linecap="round" stroke="rgb(255,0,0)" stroke-width="3.749996" fill="none" d="M 43.077171 425.264343 L 43.842316 436.358826 " />
<path stroke-linejoin="round" stroke-linecap="round" stroke="rgb(0,0,255)" stroke-width="1.874998" fill="none" d="M 0.000000 750.000000 L 83.333328 0.000000 " />
<path stroke-linejoin="round" stroke-linecap="round" stroke="rgb(255,0,0)" stroke-width="3.749996" fill="none" d="M 40.398067 386.417358 L 43.077171 425.264343 " />
<path stroke-linejoin="round" stroke-linecap="round" stroke="rgb(0,0,255)" stroke-width="1.874998" fill="none" d="M 0.000000 750.000000 L 69.915268 0.000000 " />
<path stroke-linejoin="round" stroke-linecap="round" stroke="rgb(255,0,0)" stroke-width="3.749996" fill="none" d="M 37.632084 346.310364 L 40.398067 386.417358 " />
<path stroke-linejoin="round" stroke-linecap="round" stroke="rgb(0,0,255)" stroke-width="1.874998" fill="none" d="M 0.000000 750.000000 L 63.953476 0.000000 " />
<path stroke-linejoin="round" stroke-linecap="round" stroke="rgb(255,0,0)" stroke-width="3.749996" fill="none" d="M 36.197239 325.505127 L 37.632084 346.310364 " />
<path stroke-linejoin="round" stroke-linecap="round" stroke="rgb(0,0,255)" stroke-width="1.874998" fill="none" d="M 0.000000 750.000000 L 53.571426 0.000000 " />
<path stroke-linejoin="round" stroke-linecap="round" stroke="rgb(255,0,0)" stroke-width="3.749996" fill="none" d="M 33.310688 283.650299 L 36.197239 325.505127 " />
<path stroke-linejoin="round" stroke-linecap="round" stroke="rgb(0,0,255)" stroke-width="1.874998" fill="none" d="M 0.000000 750.000000 L 44.117645 0.000000 " />
<path stroke-linejoin="round" stroke-linecap="round" stroke="rgb(255,0,0)" stroke-width="3.749996" fill="none" d="M 30.138239 237.649841 L 33.310688 283.650299 " />
<path stroke-linejoin="round" stroke-linecap="round" stroke="rgb(0,0,255)" stroke-width="1.874998" fill="none" d="M 0.000000 750.000000 L 35.958900 0.000000 " />
<path stroke-linejoin="round" stroke-linecap="round" stroke="rgb(255,0,0)" stroke-width="3.749996" fill="none" d="M 26.850431 189.976639 L 30.138239 237.649872 " />
<path stroke-linejoin="round" stroke-linecap="round" stroke="rgb(0,0,255)" stroke-width="1.874998" fill="none" d="M 0.000000 750.000000 L 33.439503 0.000000 " />
<path stroke-linejoin="round" stroke-linecap="round" stroke="rgb(255,0,0)" stroke-width="3.749996" fill="none" d="M 25.707855 173.409348 L 26.850431 189.976639 " />
<path stroke-linejoin="round" stroke-linecap="round" stroke="rgb(0,0,255)" stroke-width="1.874998" fill="none" d="M 0.000000 750.000000 L 31.626507 0.000000 " />
<path stroke-linejoin="round" stroke-linecap="round" stroke="rgb(255,0,0)" stroke-width="3.749996" fill="none" d="M 24.842934 160.867767 L 25.707855 173.409348 " />
<path stroke-linejoin="round" stroke-linecap="round" stroke="rgb(0,0,255)" stroke-width="1.874998" fill="none" d="M 0.000000 750.000000 L 28.225801 0.000000 " />
<path stroke-linejoin="round" stroke-linecap="round" stroke="rgb(255,0,0)" stroke-width="3.749996" fill="none" d="M 23.114719 135.808823 L 24.842934 160.867767 " />
<path stroke-linejoin="round" stroke-linecap="round" stroke="rgb(0,0,255)" stroke-width="1.874998" fill="none" d="M 0.000000 750.000000 L 22.727274 0.000000 " />
<path stroke-linejoin="round" stroke-linecap="round" stroke="rgb(255,0,0)" stroke-width="3.749996" fill="none" d="M 19.986414 90.448311 L 23.114719 135.808823 " />
<path stroke-linejoin="round" stroke-linecap="round" stroke="rgb(0,0,255)" stroke-width="1.874998" fill="none" d="M 0.000000 750.000000 L 17.142847 0.000000 " />
<path stroke-linejoin="round" stroke-linecap="round" stroke="rgb(255,0,0)" stroke-width="3.749996" fill="none" d="M 16.297930 36.965355 L 19.986414 90.448311 " />
<path stroke-linejoin="round" stroke-linecap="round" stroke="rgb(0,0,255)" stroke-width="1.874998" fill="none" d="M 0.000000 750.000000 L 15.384615 0.000000 " />
<path stroke-linejoin="round" stroke-linecap="round" stroke="rgb(255,0,0)" stroke-width="3.749996" fill="none" d="M 14.992610 19.110069 L 16.297930 36.965355 " />
<path stroke-linejoin="round" stroke-linecap="round" stroke="rgb(0,0,255)" stroke-width="1.874998" fill="none" d="M 0.000000 750.000000 L 14.634154 0.000000 " />
<path stroke-linejoin="round" stroke-linecap="round" stroke="rgb(255,0,0)" stroke-width="3.749996" fill="none" d="M 14.336027 15.278220 L 14.992610 19.110069 " />
<path stroke-linejoin="round" stroke-linecap="round" stroke="rgb(0,0,255)" stroke-width="1.874998" fill="none" d="M 0.000000 750.000000 L 14.354065 0.000000 " />
<path stroke-linejoin="round" stroke-linecap="round" stroke="rgb(255,0,0)" stroke-width="3.749996" fill="none" d="M 14.080301 14.304042 L 14.336027 15.278220 " />
<path stroke-linejoin="round" stroke-linecap="round" stroke="rgb(0,0,255)" stroke-width="1.874998" fill="none" d="M 0.000000 750.000000 L 13.100445 0.000000 " />
<path stroke-linejoin="round" stroke-linecap="round" stroke="rgb(255,0,0)" stroke-width="3.749996" fill="none" d="M 12.874581 12.930393 L 14.080301 14.303975 " />
<path stroke-linejoin="round" stroke-linecap="round" stroke="rgb(0,0,255)" stroke-width="1.874998" fill="none" d="M 0.000000 750.000000 L 8.426964 0.000000 " />
<path stroke-linejoin="round" stroke-linecap="round" stroke="rgb(255,0,0)" stroke-width="3.749996" fill="none" d="M 8.333177 8.347101 L 12.874581 12.930393 " />
<path stroke-linejoin="round" stroke-linecap="round" stroke="rgb(0,0,255)" stroke-width="1.874998" fill="none" d="M 0.000000 750.000000 L 3.989361 0.000000 " />
<path stroke-linejoin="round" stroke-linecap="round" stroke="rgb(255,0,0)" stroke-width="3.749996" fill="none" d="M 3.968239 3.971681 L 8.333177 8.347101 " />
<path stroke-linejoin="round" stroke-linecap="round" stroke="rgb(0,0,255)" stroke-width="1.874998" fill="none" d="M 0.000000 750.000000 L 0.000000 0.000000 " />
<path stroke-linejoin="round" stroke-linecap="round" stroke="rgb(255,0,0)" stroke-width="3.749996" fill="none" d="M 0.000000 0.000000 L 3.968239 3.971681 " />
<circle cx="74.880570" cy="747.730896" r="3.749996" style="fill:rgb(0,127,0);stroke-width:1" /><circle cx="74.496388" cy="745.617852" r="3.749996" style="fill:rgb(0,127,0);stroke-width:1" /><circle cx="74.068867" cy="743.266471" r="3.749996" style="fill:rgb(0,127,0);stroke-width:1" /><circle cx="73.716313" cy="741.327502" r="3.749996" style="fill:rgb(0,127,0);stroke-width:1" /><circle cx="73.274553" cy="738.897800" r="3.749996" style="fill:rgb(0,127,0);stroke-width:1" /><circle cx="72.810955" cy="736.347958" r="3.749996" style="fill:rgb(0,127,0);stroke-width:1" /><circle cx="72.323844" cy="733.668812" r="3.749996" style="fill:rgb(0,127,0);stroke-width:1" /><circle cx="71.811385" cy="730.850302" r="3.749996" style="fill:rgb(0,127,0);stroke-width:1" /><circle cx="71.271546" cy="727.881253" r="3.749996" style="fill:rgb(0,127,0);stroke-width:1" /><circle cx="70.990697" cy="726.336434" r="3.749996" style="fill:rgb(0,127,0);stroke-width:1" /><circle cx="70.435524" cy="723.283075" r="3.749996" style="fill:rgb(0,127,0);stroke-width:1" /><circle cx="69.850288" cy="720.064156" r="3.749996" style="fill:rgb(0,127,0);stroke-width:1" /><circle cx="69.618881" cy="718.791537" r="3.749996" style="fill:rgb(0,127,0);stroke-width:1" /><circle cx="69.232397" cy="716.665886" r="3.749996" style="fill:rgb(0,127,0);stroke-width:1" /><circle cx="68.579122" cy="713.072777" r="3.749996" style="fill:rgb(0,127,0);stroke-width:1" /><circle cx="68.385534" cy="712.008029" r="3.749996" style="fill:rgb(0,127,0);stroke-width:1" /><circle cx="67.716502" cy="708.328307" r="3.749996" style="fill:rgb(0,127,0);stroke-width:1" /><circle cx="67.559123" cy="707.462780" r="3.749996" style="fill:rgb(0,127,0);stroke-width:1" /><circle cx="66.875294" cy="703.701720" r="3.749996" style="fill:rgb(0,127,0);stroke-width:1" /><circle cx="66.257983" cy="700.306512" r="3.749996" style="fill:rgb(0,127,0);stroke-width:1" /><circle cx="65.021507" cy="682.377622" r="3.749996" style="fill:rgb(0,127,0);stroke-width:1" /><circle cx="64.519286" cy="679.615326" r="3.749996" style="fill:rgb(0,127,0);stroke-width:1" /><circle cx="63.641466" cy="674.787372" r="3.749996" style="fill:rgb(0,127,0);stroke-width:1" /><circle cx="61.915196" cy="649.756350" r="3.749996" style="fill:rgb(0,127,0);stroke-width:1" /><circle cx="60.485691" cy="629.028618" r="3.749996" style="fill:rgb(0,127,0);stroke-width:1" /><circle cx="59.966505" cy="621.500351" r="3.749996" style="fill:rgb(0,127,0);stroke-width:1" /><circle cx="59.054084" cy="608.270220" r="3.749996" style="fill:rgb(0,127,0);stroke-width:1" /><circle cx="57.815976" cy="590.317793" r="3.749996" style="fill:rgb(0,127,0);stroke-width:1" /><circle cx="57.192765" cy="581.281342" r="3.749996" style="fill:rgb(0,127,0);stroke-width:1" /><circle cx="56.113221" cy="565.627992" r="3.749996" style="fill:rgb(0,127,0);stroke-width:1" /><circle cx="54.602578" cy="543.723620" r="3.749996" style="fill:rgb(0,127,0);stroke-width:1" /><circle cx="53.641476" cy="529.787656" r="3.749996" style="fill:rgb(0,127,0);stroke-width:1" /><circle cx="51.473491" cy="498.351865" r="3.749996" style="fill:rgb(0,127,0);stroke-width:1" /><circle cx="49.900688" cy="475.546237" r="3.749996" style="fill:rgb(0,127,0);stroke-width:1" /><circle cx="49.248867" cy="466.094809" r="3.749996" style="fill:rgb(0,127,0);stroke-width:1" /><circle cx="47.920682" cy="458.789762" r="3.749996" style="fill:rgb(0,127,0);stroke-width:1" /><circle cx="47.292195" cy="455.333199" r="3.749996" style="fill:rgb(0,127,0);stroke-width:1" /><circle cx="46.680003" cy="451.966094" r="3.749996" style="fill:rgb(0,127,0);stroke-width:1" /><circle cx="46.083458" cy="448.685076" r="3.749996" style="fill:rgb(0,127,0);stroke-width:1" /><circle cx="45.501955" cy="445.486877" r="3.749996" style="fill:rgb(0,127,0);stroke-width:1" /><circle cx="44.934958" cy="442.368329" r="3.749996" style="fill:rgb(0,127,0);stroke-width:1" /><circle cx="44.381909" cy="439.326597" r="3.749996" style="fill:rgb(0,127,0);stroke-width:1" /><circle cx="43.842316" cy="436.358823" r="3.749996" style="fill:rgb(0,127,0);stroke-width:1" /><circle cx="43.077171" cy="425.264345" r="3.749996" style="fill:rgb(0,127,0);stroke-width:1" /><circle cx="40.398069" cy="386.417341" r="3.749996" style="fill:rgb(0,127,0);stroke-width:1" /><circle cx="37.632085" cy="346.310377" r="3.749996" style="fill:rgb(0,127,0);stroke-width:1" /><circle cx="36.197238" cy="325.505124" r="3.749996" style="fill:rgb(0,127,0);stroke-width:1" /><circle cx="33.310689" cy="283.650292" r="3.749996" style="fill:rgb(0,127,0);stroke-width:1" /><circle cx="30.138239" cy="237.649832" r="3.749996" style="fill:rgb(0,127,0);stroke-width:1" /><circle cx="26.850432" cy="189.976640" r="3.749996" style="fill:rgb(0,127,0);stroke-width:1" /><circle cx="25.707856" cy="173.409350" r="3.749996" style="fill:rgb(0,127,0);stroke-width:1" /><circle cx="24.842933" cy="160.867766" r="3.749996" style="fill:rgb(0,127,0);stroke-width:1" /><circle cx="23.114718" cy="135.808825" r="3.749996" style="fill:rgb(0,127,0);stroke-width:1" /><circle cx="19.986413" cy="90.448312" r="3.749996" style="fill:rgb(0,127,0);stroke-width:1" /><circle cx="16.297929" cy="36.965355" r="3.749996" style="fill:rgb(0,127,0);stroke-width:1" /><circle cx="14.992610" cy="19.110069" r="3.749996" style="fill:rgb(0,127,0);stroke-width:1" /><circle cx="14.336027" cy="15.278220" r="3.749996" style="fill:rgb(0,127,0);stroke-width:1" /><circle cx="14.080301" cy="14.304042" r="3.749996" style="fill:rgb(0,127,0);stroke-width:1" /><circle cx="12.874581" cy="12.930393" r="3.749996" style="fill:rgb(0,127,0);stroke-width:1" /><circle cx="8.333176" cy="8.347102" r="3.749996" style="fill:rgb(0,127,0);stroke-width:1" /><circle cx="3.968239" cy="3.971681" r="3.749996" style="fill:rgb(0,127,0);stroke-width:1" /><circle cx="750.000000" cy="750.000000" r="3.749996" style="fill:rgb(0,127,0);stroke-width:1" /><path stroke-linejoin="round" stroke-linecap="round" stroke="rgb(255,255,255)" stroke-width="3.749996" fill="none" d="M 0.000000 750.000000 L 750.000000 750.000000 M 0.000000 750.000000 L 0.000000 0.000000 " />

</svg>