<svg xmlns="http://www.w3.org/2000/svg" version="1.1" width = "750" height = "750" viewBox = "0 0 750 750"  shape-rendering="crispEdges">
<path stroke-linejoin="round" stroke-linecap="round" stroke="rgb(255,255,0)" stroke-width="3.749996" fill="none" d="M 124.999992 750.000000 L 0.000000 0.000000 " />
<path stroke-linejoin="round" stroke-linecap="round" stroke="rgb(63,63,63)" stroke-width="3.749996" fill="none" d="M 0.000000 0.000000 L 750.000000 750.000000 M 124.999992 750.000000 L 56.818172 0.000000 " />
<path stroke-linejoin="round" stroke-linecap="round" stroke="rgb(191,191,191)" stroke-width="3.749996" fill="none" d="M 0.000000 625.000000 L 124.999992 750.000000 M 0.000000 0.000000 L 68.181824 750.000000 " />
<path stroke-linejoin="round" stroke-linecap="round" stroke="rgb(0,0,255)" stroke-width="1.874998" fill="none" d="M 0.000000 750.000000 L 750.000000 728.571411 " />
<path stroke-linejoin="round" stroke-linecap="round" stroke="rgb(255,0,0)" stroke-width="3.749996" fill="none" d="M 124.676163 746.437866 L 124.999992 750.000000 " />
<path stroke-linejoin="round" stroke-linecap="round" stroke="rgb(0,0,255)" stroke-width="1.874998" fill="none" d="M 0.000000 750.000000 L 750.000000 708.333313 " />
<path stroke-linejoin="round" stroke-linecap="round" stroke="rgb(255,0,0)" stroke-width="3.749996" fill="none" d="M 121.488960 743.250610 L 124.676140 746.437866 " />
<path stroke-linejoin="round" stroke-linecap="round" stroke="rgb(0,0,255)" stroke-width="1.874998" fill="none" d="M 0.000000 750.000000 L 750.000000 685.714294 " />
<path stroke-linejoin="round" stroke-linecap="round" stroke="rgb(255,0,0)" stroke-width="3.749996" fill="none" d="M 118.114250 739.875916 L 121.488960 743.250610 " />
<path stroke-linejoin="round" stroke-linecap="round" stroke="rgb(0,0,255)" stroke-width="1.874998" fill="none" d="M 0.000000 750.000000 L 750.000000 666.666687 " />
<path stroke-linejoin="round" stroke-linecap="round" stroke="rgb(255,0,0)" stroke-width="3.749996" fill="none" d="M 115.414490 737.176208 L 118.114227 739.875916 " />
<path stroke-linejoin="round" stroke-linecap="round" stroke="rgb(0,0,255)" stroke-width="1.874998" fill="none" d="M 0.000000 750.000000 L 750.000000 661.764709 " />
<path stroke-linejoin="round" stroke-linecap="round" stroke="rgb(255,0,0)" stroke-width="3.749996" fill="none" d="M 114.739540 736.501221 L 115.414490 737.176208 " />
<path stroke-linejoin="round" stroke-linecap="round" stroke="rgb(0,0,255)" stroke-width="1.874998" fill="none" d="M 0.000000 750.000000 L 750.000000 642.857178 " />
<path stroke-linejoin="round" stroke-linecap="round" stroke="rgb(255,0,0)" stroke-width="3.749996" fill="none" d="M 112.208519 733.970215 L 114.739540 736.501221 " />
<path stroke-linejoin="round" stroke-linecap="round" stroke="rgb(0,0,255)" stroke-width="1.874998" fill="none" d="M 0.000000 750.000000 L 750.000000 636.363647 " />
<path stroke-linejoin="round" stroke-linecap="round" stroke="rgb(255,0,0)" stroke-width="3.749996" fill="none" d="M 111.364868 733.126526 L 112.208519 733.970215 " />
<path stroke-linejoin="round" stroke-linecap="round" stroke="rgb(0,0,255)" stroke-width="1.874998" fill="none" d="M 0.000000 750.000000 L 750.000000 609.375000 " />
<path stroke-linejoin="round" stroke-linecap="round" stroke="rgb(255,0,0)" stroke-width="3.749996" fill="none" d="M 107.990158 729.751831 L 111.364868 733.126526 " />
<path stroke-linejoin="round" stroke-linecap="round" stroke="rgb(0,0,255)" stroke-width="1.874998" fill="none" d="M 0.000000 750.000000 L 750.000000 590.909058 " />
<path stroke-linejoin="round" stroke-linecap="round" stroke="rgb(255,0,0)" stroke-width="3.749996" fill="none" d="M 105.796608 727.558289 L 107.990158 729.751831 " />
<path stroke-linejoin="round" stroke-linecap="round" stroke="rgb(0,0,255)" stroke-width="1.874998" fill="none" d="M 0.000000 750.000000 L 750.000000 562.500000 " />
<path stroke-linejoin="round" stroke-linecap="round" stroke="rgb(255,0,0)" stroke-width="3.749996" fill="none" d="M 102.590652 724.352356 L 105.796608 727.558289 " />
<path stroke-linejoin="round" stroke-linecap="round" stroke="rgb(0,0,255)" stroke-width="1.874998" fill="none" d="M 0.000000 750.000000 L 750.000000 532.258118 " />
<path stroke-linejoin="round" stroke-linecap="round" stroke="rgb(255,0,0)" stroke-width="3.749996" fill="none" d="M 99.384697 721.146423 L 102.590652 724.352356 " />
<path stroke-linejoin="round" stroke-linecap="round" stroke="rgb(0,0,255)" stroke-width="1.874998" fill="none" d="M 0.000000 750.000000 L 750.000000 515.625000 " />
<path stroke-linejoin="round" stroke-linecap="round" stroke="rgb(255,0,0)" stroke-width="3.749996" fill="none" d="M 97.705368 719.467102 L 99.384697 721.146423 " />
<path stroke-linejoin="round" stroke-linecap="round" stroke="rgb(0,0,255)" stroke-width="1.874998" fill="none" d="M 0.000000 750.000000 L 750.000000 499.999969 " />
<path stroke-linejoin="round" stroke-linecap="round" stroke="rgb(255,0,0)" stroke-width="3.749996" fill="none" d="M 96.178719 717.940430 L 97.705368 719.467102 " />
<path stroke-linejoin="round" stroke-linecap="round" stroke="rgb(0,0,255)" stroke-width="1.874998" fill="none" d="M 0.000000 750.000000 L 750.000000 483.870941 " />
<path stroke-linejoin="round" stroke-linecap="round" stroke="rgb(255,0,0)" stroke-width="3.749996" fill="none" d="M 94.652069 716.413757 L 96.178719 717.940430 " />
<path stroke-linejoin="round" stroke-linecap="round" stroke="rgb(0,0,255)" stroke-width="1.874998" fill="none" d="M 0.000000 750.000000 L 750.000000 465.517212 " />
<path stroke-linejoin="round" stroke-linecap="round" stroke="rgb(255,0,0)" stroke-width="3.749996" fill="none" d="M 92.972763 714.734497 L 94.652069 716.413757 " />
<path stroke-linejoin="round" stroke-linecap="round" stroke="rgb(0,0,255)" stroke-width="1.874998" fill="none" d="M 0.000000 750.000000 L 750.000000 450.000031 " />
<path stroke-linejoin="round" stroke-linecap="round" stroke="rgb(255,0,0)" stroke-width="3.749996" fill="none" d="M 91.598778 713.360474 L 92.972763 714.734497 " />
<path stroke-linejoin="round" stroke-linecap="round" stroke="rgb(0,0,255)" stroke-width="1.874998" fill="none" d="M 0.000000 750.000000 L 750.000000 428.571411 " />
<path stroke-linejoin="round" stroke-linecap="round" stroke="rgb(255,0,0)" stroke-width="3.749996" fill="none" d="M 89.766808 711.528564 L 91.598778 713.360474 " />
<path stroke-linejoin="round" stroke-linecap="round" stroke="rgb(0,0,255)" stroke-width="1.874998" fill="none" d="M 0.000000 750.000000 L 750.000000 413.793091 " />
<path stroke-linejoin="round" stroke-linecap="round" stroke="rgb(255,0,0)" stroke-width="3.749996" fill="none" d="M 88.545486 710.307190 L 89.766808 711.528564 " />
<path stroke-linejoin="round" stroke-linecap="round" stroke="rgb(0,0,255)" stroke-width="1.874998" fill="none" d="M 0.000000 750.000000 L 750.000000 388.888885 " />
<path stroke-linejoin="round" stroke-linecap="round" stroke="rgb(255,0,0)" stroke-width="3.749996" fill="none" d="M 86.560852 708.322510 L 88.545509 710.307190 " />
<path stroke-linejoin="round" stroke-linecap="round" stroke="rgb(0,0,255)" stroke-width="1.874998" fill="none" d="M 0.000000 750.000000 L 750.000000 346.153839 " />
<path stroke-linejoin="round" stroke-linecap="round" stroke="rgb(255,0,0)" stroke-width="3.749996" fill="none" d="M 83.354897 705.116577 L 86.560852 708.322510 " />
<path stroke-linejoin="round" stroke-linecap="round" stroke="rgb(0,0,255)" stroke-width="1.874998" fill="none" d="M 0.000000 750.000000 L 750.000000 333.333313 " />
<path stroke-linejoin="round" stroke-linecap="round" stroke="rgb(255,0,0)" stroke-width="3.749996" fill="none" d="M 82.438904 704.200623 L 83.354897 705.116577 " />
<path stroke-linejoin="round" stroke-linecap="round" stroke="rgb(0,0,255)" stroke-width="1.874998" fill="none" d="M 0.000000 750.000000 L 750.000000 299.999969 " />
<path stroke-linejoin="round" stroke-linecap="round" stroke="rgb(255,0,0)" stroke-width="3.749996" fill="none" d="M 80.148941 701.910645 L 82.438904 704.200623 " />
<path stroke-linejoin="round" stroke-linecap="round" stroke="rgb(0,0,255)" stroke-width="1.874998" fill="none" d="M 0.000000 750.000000 L 750.000000 249.999985 " />
<path stroke-linejoin="round" stroke-linecap="round" stroke="rgb(255,0,0)" stroke-width="3.749996" fill="none" d="M 76.942986 698.704651 L 80.148941 701.910645 " />
<path stroke-linejoin="round" stroke-linecap="round" stroke="rgb(0,0,255)" stroke-width="1.874998" fill="none" d="M 0.000000 750.000000 L 750.000000 240.000000 " />
<path stroke-linejoin="round" stroke-linecap="round" stroke="rgb(255,0,0)" stroke-width="3.749996" fill="none" d="M 76.332314 698.094055 L 76.942986 698.704651 " />
<path stroke-linejoin="round" stroke-linecap="round" stroke="rgb(0,0,255)" stroke-width="1.874998" fill="none" d="M 0.000000 750.000000 L 750.000000 30.000015 " />
<path stroke-linejoin="round" stroke-linecap="round" stroke="rgb(255,0,0)" stroke-width="3.749996" fill="none" d="M 74.545273 678.436523 L 76.332314 698.094055 " />
<path stroke-linejoin="round" stroke-linecap="round" stroke="rgb(0,0,255)" stroke-width="1.874998" fill="none" d="M 0.000000 750.000000 L 750.000000 0.000000 " />
<path stroke-linejoin="round" stroke-linecap="round" stroke="rgb(255,0,0)" stroke-width="3.749996" fill="none" d="M 73.054367 676.945679 L 74.545273 678.436523 " />
<path stroke-linejoin="round" stroke-linecap="round" stroke="rgb(0,0,255)" stroke-width="1.874998" fill="none" d="M 0.000000 750.000000 L 687.500000 0.000000 " />
<path stroke-linejoin="round" stroke-linecap="round" stroke="rgb(255,0,0)" stroke-width="3.749996" fill="none" d="M 69.878098 673.769348 L 73.054367 676.945679 " />
<path stroke-linejoin="round" stroke-linecap="round" stroke="rgb(0,0,255)" stroke-width="1.874998" fill="none" d="M 0.000000 750.000000 L 630.000000 0.000000 " />
<path stroke-linejoin="round" stroke-linecap="round" stroke="rgb(255,0,0)" stroke-width="3.749996" fill="none" d="M 66.701820 670.593079 L 69.878098 673.769348 " />
<path stroke-linejoin="round" stroke-linecap="round" stroke="rgb(0,0,255)" stroke-width="1.874998" fill="none" d="M 0.000000 750.000000 L 575.000000 0.000000 " />
<path stroke-linejoin="round" stroke-linecap="round" stroke="rgb(255,0,0)" stroke-width="3.749996" fill="none" d="M 66.084511 663.802795 L 66.701820 670.593079 " />
<path stroke-linejoin="round" stroke-linecap="round" stroke="rgb(0,0,255)" stroke-width="1.874998" fill="none" d="M 0.000000 750.000000 L 570.000000 0.000000 " />
<path stroke-linejoin="round" stroke-linecap="round" stroke="rgb(255,0,0)" stroke-width="3.749996" fill="none" d="M 65.758018 663.476318 L 66.084511 663.802795 " />
<path stroke-linejoin="round" stroke-linecap="round" stroke="rgb(0,0,255)" stroke-width="1.874998" fill="none" d="M 0.000000 750.000000 L 527.777832 0.000000 " />
<path stroke-linejoin="round" stroke-linecap="round" stroke="rgb(255,0,0)" stroke-width="3.749996" fill="none" d="M 62.898987 660.617249 L 65.758018 663.476318 " />
<path stroke-linejoin="round" stroke-linecap="round" stroke="rgb(0,0,255)" stroke-width="1.874998" fill="none" d="M 0.000000 750.000000 L 482.142853 0.000000 " />
<path stroke-linejoin="round" stroke-linecap="round" stroke="rgb(255,0,0)" stroke-width="3.749996" fill="none" d="M 59.734516 657.079651 L 62.898964 660.617249 " />
<path stroke-linejoin="round" stroke-linecap="round" stroke="rgb(0,0,255)" stroke-width="1.874998" fill="none" d="M 0.000000 750.000000 L 450.000031 0.000000 " />
<path stroke-linejoin="round" stroke-linecap="round" stroke="rgb(255,0,0)" stroke-width="3.749996" fill="none" d="M 59.210526 651.315796 L 59.734516 657.079651 " />
<path stroke-linejoin="round" stroke-linecap="round" stroke="rgb(0,0,255)" stroke-width="1.874998" fill="none" d="M 0.000000 750.000000 L 411.290344 0.000000 " />
<path stroke-linejoin="round" stroke-linecap="round" stroke="rgb(255,0,0)" stroke-width="3.749996" fill="none" d="M 58.486237 643.348694 L 59.210526 651.315796 " />
<path stroke-linejoin="round" stroke-linecap="round" stroke="rgb(0,0,255)" stroke-width="1.874998" fill="none" d="M 0.000000 750.000000 L 386.363617 0.000000 " />
<path stroke-linejoin="round" stroke-linecap="round" stroke="rgb(255,0,0)" stroke-width="3.749996" fill="none" d="M 57.954536 637.500000 L 58.486237 643.348694 " />
<path stroke-linejoin="round" stroke-linecap="round" stroke="rgb(0,0,255)" stroke-width="1.874998" fill="none" d="M 0.000000 750.000000 L 339.285736 0.000000 " />
<path stroke-linejoin="round" stroke-linecap="round" stroke="rgb(255,0,0)" stroke-width="3.749996" fill="none" d="M 56.772911 624.502014 L 57.954536 637.500000 " />
<path stroke-linejoin="round" stroke-linecap="round" stroke="rgb(0,0,255)" stroke-width="1.874998" fill="none" d="M 0.000000 750.000000 L 323.863647 0.000000 " />
<path stroke-linejoin="round" stroke-linecap="round" stroke="rgb(255,0,0)" stroke-width="3.749996" fill="none" d="M 56.324108 619.565247 L 56.772911 624.502014 " />
<path stroke-linejoin="round" stroke-linecap="round" stroke="rgb(0,0,255)" stroke-width="1.874998" fill="none" d="M 0.000000 750.000000 L 309.782593 0.000000 " />
<path stroke-linejoin="round" stroke-linecap="round" stroke="rgb(255,0,0)" stroke-width="3.749996" fill="none" d="M 55.882351 614.705872 L 56.324108 619.565247 " />
<path stroke-linejoin="round" stroke-linecap="round" stroke="rgb(0,0,255)" stroke-width="1.874998" fill="none" d="M 0.000000 750.000000 L 300.000000 0.000000 " />
<path stroke-linejoin="round" stroke-linecap="round" stroke="rgb(255,0,0)" stroke-width="3.749996" fill="none" d="M 55.555569 611.111084 L 55.882351 614.705872 " />
<path stroke-linejoin="round" stroke-linecap="round" stroke="rgb(0,0,255)" stroke-width="1.874998" fill="none" d="M 0.000000 750.000000 L 285.714294 0.000000 " />
<path stroke-linejoin="round" stroke-linecap="round" stroke="rgb(255,0,0)" stroke-width="3.749996" fill="none" d="M 55.045856 605.504578 L 55.555569 611.111084 " />
<path stroke-linejoin="round" stroke-linecap="round" stroke="rgb(0,0,255)" stroke-width="1.874998" fill="none" d="M 0.000000 750.000000 L 272.727295 0.000000 " />
<path stroke-linejoin="round" stroke-linecap="round" stroke="rgb(255,0,0)" stroke-width="3.749996" fill="none" d="M 54.545448 600.000000 L 55.045856 605.504578 " />
<path stroke-linejoin="round" stroke-linecap="round" stroke="rgb(0,0,255)" stroke-width="1.874998" fill="none" d="M 0.000000 750.000000 L 236.111130 0.000000 " />
<path stroke-linejoin="round" stroke-linecap="round" stroke="rgb(255,0,0)" stroke-width="3.749996" fill="none" d="M 52.904560 581.950195 L 54.545448 600.000061 " />
<path stroke-linejoin="round" stroke-linecap="round" stroke="rgb(0,0,255)" stroke-width="1.874998" fill="none" d="M 0.000000 750.000000 L 230.769241 0.000000 " />
<path stroke-linejoin="round" stroke-linecap="round" stroke="rgb(255,0,0)" stroke-width="3.749996" fill="none" d="M 52.631557 578.947388 L 52.904560 581.950195 " />
<path stroke-linejoin="round" stroke-linecap="round" stroke="rgb(0,0,255)" stroke-width="1.874998" fill="none" d="M 0.000000 750.000000 L 228.260864 0.000000 " />
<path stroke-linejoin="round" stroke-linecap="round" stroke="rgb(255,0,0)" stroke-width="3.749996" fill="none" d="M 52.499996 577.500000 L 52.631557 578.947388 " />
<path stroke-linejoin="round" stroke-linecap="round" stroke="rgb(0,0,255)" stroke-width="1.874998" fill="none" d="M 0.000000 750.000000 L 218.750000 0.000000 " />
<path stroke-linejoin="round" stroke-linecap="round" stroke="rgb(255,0,0)" stroke-width="3.749996" fill="none" d="M 51.980183 571.782227 L 52.499996 577.500000 " />
<path stroke-linejoin="round" stroke-linecap="round" stroke="rgb(0,0,255)" stroke-width="1.874998" fill="none" d="M 0.000000 750.000000 L 210.000000 0.000000 " />
<path stroke-linejoin="round" stroke-linecap="round" stroke="rgb(255,0,0)" stroke-width="3.749996" fill="none" d="M 51.470585 566.176514 L 51.980183 571.782227 " />
<path stroke-linejoin="round" stroke-linecap="round" stroke="rgb(0,0,255)" stroke-width="1.874998" fill="none" d="M 0.000000 750.000000 L 201.923080 0.000000 " />
<path stroke-linejoin="round" stroke-linecap="round" stroke="rgb(255,0,0)" stroke-width="3.749996" fill="none" d="M 50.970867 560.679688 L 51.470585 566.176514 " />
<path stroke-linejoin="round" stroke-linecap="round" stroke="rgb(0,0,255)" stroke-width="1.874998" fill="none" d="M 0.000000 750.000000 L 194.444443 0.000000 " />
<path stroke-linejoin="round" stroke-linecap="round" stroke="rgb(255,0,0)" stroke-width="3.749996" fill="none" d="M 50.480762 555.288513 L 50.970867 560.679688 " />
<path stroke-linejoin="round" stroke-linecap="round" stroke="rgb(0,0,255)" stroke-width="1.874998" fill="none" d="M 0.000000 750.000000 L 187.500000 0.000000 " />
<path stroke-linejoin="round" stroke-linecap="round" stroke="rgb(255,0,0)" stroke-width="3.749996" fill="none" d="M 49.999996 550.000061 L 50.480762 555.288513 " />
<path stroke-linejoin="round" stroke-linecap="round" stroke="rgb(0,0,255)" stroke-width="1.874998" fill="none" d="M 0.000000 750.000000 L 181.034485 0.000000 " />
<path stroke-linejoin="round" stroke-linecap="round" stroke="rgb(255,0,0)" stroke-width="3.749996" fill="none" d="M 49.528286 544.811340 L 49.999996 550.000061 " />
<path stroke-linejoin="round" stroke-linecap="round" stroke="rgb(0,0,255)" stroke-width="1.874998" fill="none" d="M 0.000000 750.000000 L 175.000015 0.000000 " />
<path stroke-linejoin="round" stroke-linecap="round" stroke="rgb(255,0,0)" stroke-width="3.749996" fill="none" d="M 49.065426 539.719666 L 49.528309 544.811340 " />
<path stroke-linejoin="round" stroke-linecap="round" stroke="rgb(0,0,255)" stroke-width="1.874998" fill="none" d="M 0.000000 750.000000 L 160.714294 0.000000 " />
<path stroke-linejoin="round" stroke-linecap="round" stroke="rgb(255,0,0)" stroke-width="3.749996" fill="none" d="M 47.872334 526.595764 L 49.065426 539.719666 " />
<path stroke-linejoin="round" stroke-linecap="round" stroke="rgb(0,0,255)" stroke-width="1.874998" fill="none" d="M 0.000000 750.000000 L 155.172409 0.000000 " />
<path stroke-linejoin="round" stroke-linecap="round" stroke="rgb(255,0,0)" stroke-width="3.749996" fill="none" d="M 47.368416 521.052673 L 47.872334 526.595764 " />
<path stroke-linejoin="round" stroke-linecap="round" stroke="rgb(0,0,255)" stroke-width="1.874998" fill="none" d="M 0.000000 750.000000 L 139.830505 0.000000 " />
<path stroke-linejoin="round" stroke-linecap="round" stroke="rgb(255,0,0)" stroke-width="3.749996" fill="none" d="M 45.833321 504.166687 L 47.368416 521.052673 " />
<path stroke-linejoin="round" stroke-linecap="round" stroke="rgb(0,0,255)" stroke-width="1.874998" fill="none" d="M 0.000000 750.000000 L 135.245926 0.000000 " />
<path stroke-linejoin="round" stroke-linecap="round" stroke="rgb(255,0,0)" stroke-width="3.749996" fill="none" d="M 45.329666 498.626373 L 45.833321 504.166687 " />
<path stroke-linejoin="round" stroke-linecap="round" stroke="rgb(0,0,255)" stroke-width="1.874998" fill="none" d="M 0.000000 750.000000 L 120.967758 0.000000 " />
<path stroke-linejoin="round" stroke-linecap="round" stroke="rgb(255,0,0)" stroke-width="3.749996" fill="none" d="M 43.604649 479.651215 L 45.329666 498.626373 " />
<path stroke-linejoin="round" stroke-linecap="round" stroke="rgb(0,0,255)" stroke-width="1.874998" fill="none" d="M 0.000000 750.000000 L 107.142853 0.000000 " />
<path stroke-linejoin="round" stroke-linecap="round" stroke="rgb(255,0,0)" stroke-width="3.749996" fill="none" d="M 41.666664 458.333374 L 43.604649 479.651215 " />
<path stroke-linejoin="round" stroke-linecap="round" stroke="rgb(0,0,255)" stroke-width="1.874998" fill="none" d="M 0.000000 750.000000 L 93.750000 0.000000 " />
<path stroke-linejoin="round" stroke-linecap="round" stroke="rgb(255,0,0)" stroke-width="3.749996" fill="none" d="M 39.473667 434.210571 L 41.666664 458.333374 " />
<path stroke-linejoin="round" stroke-linecap="round" stroke="rgb(0,0,255)" stroke-width="1.874998" fill="none" d="M 0.000000 750.000000 L 90.909096 0.000000 " />
<path stroke-linejoin="round" stroke-linecap="round" stroke="rgb(255,0,0)" stroke-width="3.749996" fill="none" d="M 38.961029 428.571442 L 39.473667 434.210571 " />
<path stroke-linejoin="round" stroke-linecap="round" stroke="rgb(0,0,255)" stroke-width="1.874998" fill="none" d="M 0.000000 750.000000 L 85.714279 0.000000 " />
<path stroke-linejoin="round" stroke-linecap="round" stroke="rgb(255,0,0)" stroke-width="3.749996" fill="none" d="M 37.974670 417.721558 L 38.961029 428.571442 " />
<path stroke-linejoin="round" stroke-linecap="round" stroke="rgb(0,0,255)" stroke-width="1.874998" fill="none" d="M 0.000000 750.000000 L 83.333328 0.000000 " />
<path stroke-linejoin="round" stroke-linecap="round" stroke="rgb(255,0,0)" stroke-width="3.749996" fill="none" d="M 37.499985 412.500061 L 37.974670 417.721558 " />
<path stroke-linejoin="round" stroke-linecap="round" stroke="rgb(0,0,255)" stroke-width="1.874998" fill="none" d="M 0.000000 750.000000 L 81.081078 0.000000 " />
<path stroke-linejoin="round" stroke-linecap="round" stroke="rgb(255,0,0)" stroke-width="3.749996" fill="none" d="M 37.037037 407.407440 L 37.499985 412.500061 " />
<path stroke-linejoin="round" stroke-linecap="round" stroke="rgb(0,0,255)" stroke-width="1.874998" fill="none" d="M 0.000000 750.000000 L 78.947380 0.000000 " />
<path stroke-linejoin="round" stroke-linecap="round" stroke="rgb(255,0,0)" stroke-width="3.749996" fill="none" d="M 36.585354 402.439056 L 37.037037 407.407440 " />
<path stroke-linejoin="round" stroke-linecap="round" stroke="rgb(0,0,255)" stroke-width="1.874998" fill="none" d="M 0.000000 750.000000 L 76.923073 0.000000 " />
<path stroke-linejoin="round" stroke-linecap="round" stroke="rgb(255,0,0)" stroke-width="3.749996" fill="none" d="M 36.144577 397.590424 L 36.585354 402.439056 " />
<path stroke-linejoin="round" stroke-linecap="round" stroke="rgb(0,0,255)" stroke-width="1.874998" fill="none" d="M 0.000000 750.000000 L 74.999992 0.000000 " />
<path stroke-linejoin="round" stroke-linecap="round" stroke="rgb(255,0,0)" stroke-width="3.749996" fill="none" d="M 35.714283 392.857208 L 36.144577 397.590424 " />
<path stroke-linejoin="round" stroke-linecap="round" stroke="rgb(0,0,255)" stroke-width="1.874998" fill="none" d="M 0.000000 750.000000 L 73.170731 0.000000 " />
<path stroke-linejoin="round" stroke-linecap="round" stroke="rgb(255,0,0)" stroke-width="3.749996" fill="none" d="M 35.294117 388.235321 L 35.714283 392.857208 " />
<path stroke-linejoin="round" stroke-linecap="round" stroke="rgb(0,0,255)" stroke-width="1.874998" fill="none" d="M 0.000000 750.000000 L 71.428566 0.000000 " />
<path stroke-linejoin="round" stroke-linecap="round" stroke="rgb(255,0,0)" stroke-width="3.749996" fill="none" d="M 34.883717 383.720978 L 35.294117 388.235321 " />
<path stroke-linejoin="round" stroke-linecap="round" stroke="rgb(0,0,255)" stroke-width="1.874998" fill="none" d="M 0.000000 750.000000 L 69.767433 0.000000 " />
<path stroke-linejoin="round" stroke-linecap="round" stroke="rgb(255,0,0)" stroke-width="3.749996" fill="none" d="M 34.482746 379.310394 L 34.883717 383.720978 " />
<path stroke-linejoin="round" stroke-linecap="round" stroke="rgb(0,0,255)" stroke-width="1.874998" fill="none" d="M 0.000000 750.000000 L 68.181824 0.000000 " />
<path stroke-linejoin="round" stroke-linecap="round" stroke="rgb(255,0,0)" stroke-width="3.749996" fill="none" d="M 34.090900 375.000031 L 34.482746 379.310394 " />
<path stroke-linejoin="round" stroke-linecap="round" stroke="rgb(0,0,255)" stroke-width="1.874998" fill="none" d="M 0.000000 750.000000 L 66.666664 0.000000 " />
<path stroke-linejoin="round" stroke-linecap="round" stroke="rgb(255,0,0)" stroke-width="3.749996" fill="none" d="M 33.707855 370.786591 L 34.090900 375.000031 " />
<path stroke-linejoin="round" stroke-linecap="round" stroke="rgb(0,0,255)" stroke-width="1.874998" fill="none" d="M 0.000000 750.000000 L 66.455704 0.000000 " />
<path stroke-linejoin="round" stroke-linecap="round" stroke="rgb(255,0,0)" stroke-width="3.749996" fill="none" d="M 33.653854 370.192352 L 33.707855 370.786591 " />
<path stroke-linejoin="round" stroke-linecap="round" stroke="rgb(0,0,255)" stroke-width="1.874998" fill="none" d="M 0.000000 750.000000 L 56.249992 0.000000 " />
<path stroke-linejoin="round" stroke-linecap="round" stroke="rgb(255,0,0)" stroke-width="3.749996" fill="none" d="M 30.821913 339.041138 L 33.653854 370.192352 " />
<path stroke-linejoin="round" stroke-linecap="round" stroke="rgb(0,0,255)" stroke-width="1.874998" fill="none" d="M 0.000000 750.000000 L 46.296291 0.000000 " />
<path stroke-linejoin="round" stroke-linecap="round" stroke="rgb(255,0,0)" stroke-width="3.749996" fill="none" d="M 27.573534 303.308838 L 30.821913 339.041138 " />
<path stroke-linejoin="round" stroke-linecap="round" stroke="rgb(0,0,255)" stroke-width="1.874998" fill="none" d="M 0.000000 750.000000 L 36.585377 0.000000 " />
<path stroke-linejoin="round" stroke-linecap="round" stroke="rgb(255,0,0)" stroke-width="3.749996" fill="none" d="M 23.809523 261.904785 L 27.573534 303.308838 " />
<path stroke-linejoin="round" stroke-linecap="round" stroke="rgb(0,0,255)" stroke-width="1.874998" fill="none" d="M 0.000000 750.000000 L 35.714283 0.000000 " />
<path stroke-linejoin="round" stroke-linecap="round" stroke="rgb(255,0,0)" stroke-width="3.749996" fill="none" d="M 23.437500 257.812500 L 23.809523 261.904755 " />
<path stroke-linejoin="round" stroke-linecap="round" stroke="rgb(0,0,255)" stroke-width="1.874998" fill="none" d="M 0.000000 750.000000 L 33.333332 0.000000 " />
<path stroke-linejoin="round" stroke-linecap="round" stroke="rgb(255,0,0)" stroke-width="3.749996" fill="none" d="M 22.388063 246.268631 L 23.437500 257.812500 " />
<path stroke-linejoin="round" stroke-linecap="round" stroke="rgb(0,0,255)" stroke-width="1.874998" fill="none" d="M 0.000000 750.000000 L 32.608688 0.000000 " />
<path stroke-linejoin="round" stroke-linecap="round" stroke="rgb(255,0,0)" stroke-width="3.749996" fill="none" d="M 22.058823 242.647110 L 22.388063 246.268631 " />
<path stroke-linejoin="round" stroke-linecap="round" stroke="rgb(0,0,255)" stroke-width="1.874998" fill="none" d="M 0.000000 750.000000 L 31.249992 0.000000 " />
<path stroke-linejoin="round" stroke-linecap="round" stroke="rgb(255,0,0)" stroke-width="3.749996" fill="none" d="M 21.428570 235.714355 L 22.058823 242.647110 " />
<path stroke-linejoin="round" stroke-linecap="round" stroke="rgb(0,0,255)" stroke-width="1.874998" fill="none" d="M 0.000000 750.000000 L 30.612253 0.000000 " />
<path stroke-linejoin="round" stroke-linecap="round" stroke="rgb(255,0,0)" stroke-width="3.749996" fill="none" d="M 21.126755 232.394409 L 21.428570 235.714355 " />
<path stroke-linejoin="round" stroke-linecap="round" stroke="rgb(0,0,255)" stroke-width="1.874998" fill="none" d="M 0.000000 750.000000 L 29.411762 0.000000 " />
<path stroke-linejoin="round" stroke-linecap="round" stroke="rgb(255,0,0)" stroke-width="3.749996" fill="none" d="M 20.547934 226.027435 L 21.126755 232.394409 " />
<path stroke-linejoin="round" stroke-linecap="round" stroke="rgb(0,0,255)" stroke-width="1.874998" fill="none" d="M 0.000000 750.000000 L 28.846151 0.000000 " />
<path stroke-linejoin="round" stroke-linecap="round" stroke="rgb(255,0,0)" stroke-width="3.749996" fill="none" d="M 20.270258 222.973068 L 20.547934 226.027435 " />
<path stroke-linejoin="round" stroke-linecap="round" stroke="rgb(0,0,255)" stroke-width="1.874998" fill="none" d="M 0.000000 750.000000 L 27.777784 0.000000 " />
<path stroke-linejoin="round" stroke-linecap="round" stroke="rgb(255,0,0)" stroke-width="3.749996" fill="none" d="M 19.736834 217.105331 L 20.270258 222.973068 " />
<path stroke-linejoin="round" stroke-linecap="round" stroke="rgb(0,0,255)" stroke-width="1.874998" fill="none" d="M 0.000000 750.000000 L 27.272724 0.000000 " />
<path stroke-linejoin="round" stroke-linecap="round" stroke="rgb(255,0,0)" stroke-width="3.749996" fill="none" d="M 19.480526 214.285797 L 19.736834 217.105331 " />
<path stroke-linejoin="round" stroke-linecap="round" stroke="rgb(0,0,255)" stroke-width="1.874998" fill="none" d="M 0.000000 750.000000 L 26.785725 0.000000 " />
<path stroke-linejoin="round" stroke-linecap="round" stroke="rgb(255,0,0)" stroke-width="3.749996" fill="none" d="M 19.230768 211.538544 L 19.480526 214.285797 " />
<path stroke-linejoin="round" stroke-linecap="round" stroke="rgb(0,0,255)" stroke-width="1.874998" fill="none" d="M 0.000000 750.000000 L 26.315779 0.000000 " />
<path stroke-linejoin="round" stroke-linecap="round" stroke="rgb(255,0,0)" stroke-width="3.749996" fill="none" d="M 18.987335 208.860794 L 19.230768 211.538544 " />
<path stroke-linejoin="round" stroke-linecap="round" stroke="rgb(0,0,255)" stroke-width="1.874998" fill="none" d="M 0.000000 750.000000 L 25.423721 0.000000 " />
<path stroke-linejoin="round" stroke-linecap="round" stroke="rgb(255,0,0)" stroke-width="3.749996" fill="none" d="M 18.518507 203.703766 L 18.987335 208.860794 " />
<path stroke-linejoin="round" stroke-linecap="round" stroke="rgb(0,0,255)" stroke-width="1.874998" fill="none" d="M 0.000000 750.000000 L 24.999998 0.000000 " />
<path stroke-linejoin="round" stroke-linecap="round" stroke="rgb(255,0,0)" stroke-width="3.749996" fill="none" d="M 18.292688 201.219543 L 18.518507 203.703766 " />
<path stroke-linejoin="round" stroke-linecap="round" stroke="rgb(0,0,255)" stroke-width="1.874998" fill="none" d="M 0.000000 750.000000 L 24.590157 0.000000 " />
<path stroke-linejoin="round" stroke-linecap="round" stroke="rgb(255,0,0)" stroke-width="3.749996" fill="none" d="M 18.072277 198.795273 L 18.292688 201.219543 " />
<path stroke-linejoin="round" stroke-linecap="round" stroke="rgb(0,0,255)" stroke-width="1.874998" fill="none" d="M 0.000000 750.000000 L 24.193548 0.000000 " />
<path stroke-linejoin="round" stroke-linecap="round" stroke="rgb(255,0,0)" stroke-width="3.749996" fill="none" d="M 17.857141 196.428665 L 18.072277 198.795273 " />
<path stroke-linejoin="round" stroke-linecap="round" stroke="rgb(0,0,255)" stroke-width="1.874998" fill="none" d="M 0.000000 750.000000 L 23.809523 0.000000 " />
<path stroke-linejoin="round" stroke-linecap="round" stroke="rgb(255,0,0)" stroke-width="3.749996" fill="none" d="M 17.647058 194.117676 L 17.857141 196.428665 " />
<path stroke-linejoin="round" stroke-linecap="round" stroke="rgb(0,0,255)" stroke-width="1.874998" fill="none" d="M 0.000000 750.000000 L 23.437500 0.000000 " />
<path stroke-linejoin="round" stroke-linecap="round" stroke="rgb(255,0,0)" stroke-width="3.749996" fill="none" d="M 17.441868 191.860519 L 17.647058 194.117676 " />
<path stroke-linejoin="round" stroke-linecap="round" stroke="rgb(0,0,255)" stroke-width="1.874998" fill="none" d="M 0.000000 750.000000 L 23.076921 0.000000 " />
<path stroke-linejoin="round" stroke-linecap="round" stroke="rgb(255,0,0)" stroke-width="3.749996" fill="none" d="M 17.241373 189.655243 L 17.441868 191.860550 " />
<path stroke-linejoin="round" stroke-linecap="round" stroke="rgb(0,0,255)" stroke-width="1.874998" fill="none" d="M 0.000000 750.000000 L 21.428570 0.000000 " />
<path stroke-linejoin="round" stroke-linecap="round" stroke="rgb(255,0,0)" stroke-width="3.749996" fill="none" d="M 16.304344 179.347870 L 17.241373 189.655243 " />
<path stroke-linejoin="round" stroke-linecap="round" stroke="rgb(0,0,255)" stroke-width="1.874998" fill="none" d="M 0.000000 750.000000 L 14.150932 0.000000 " />
<path stroke-linejoin="round" stroke-linecap="round" stroke="rgb(255,0,0)" stroke-width="3.749996" fill="none" d="M 11.718750 128.906311 L 16.304344 179.347870 " />
<path stroke-linejoin="round" stroke-linecap="round" stroke="rgb(0,0,255)" stroke-width="1.874998" fill="none" d="M 0.000000 750.000000 L 7.009350 0.000000 " />
<path stroke-linejoin="round" stroke-linecap="round" stroke="rgb(255,0,0)" stroke-width="3.749996" fill="none" d="M 6.355941 69.915352 L 11.718750 128.906311 " />
<path stroke-linejoin="round" stroke-linecap="round" stroke="rgb(0,0,255)" stroke-width="1.874998" fill="none" d="M 0.000000 750.000000 L 0.000000 0.000000 " />
<path stroke-linejoin="round" stroke-linecap="round" stroke="rgb(255,0,0)" stroke-width="3.749996" fill="none" d="M 0.000000 0.000000 L 6.355941 69.915352 " />
<circle cx="124.676161" cy="746.437848" r="3.749996" style="fill:rgb(0,127,0);stroke-width:1" /><circle cx="121.488959" cy="743.250623" r="3.749996" style="fill:rgb(0,127,0);stroke-width:1" /><circle cx="118.114248" cy="739.875913" r="3.749996" style="fill:rgb(0,127,0);stroke-width:1" /><circle cx="115.414493" cy="737.176158" r="3.749996" style="fill:rgb(0,127,0);stroke-width:1" /><circle cx="114.739537" cy="736.501224" r="3.749996" style="fill:rgb(0,127,0);stroke-width:1" /><circle cx="112.208515" cy="733.970203" r="3.749996" style="fill:rgb(0,127,0);stroke-width:1" /><circle cx="111.364871" cy="733.126536" r="3.749996" style="fill:rgb(0,127,0);stroke-width:1" /><circle cx="107.990161" cy="729.751848" r="3.749996" style="fill:rgb(0,127,0);stroke-width:1" /><circle cx="105.796605" cy="727.558292" r="3.749996" style="fill:rgb(0,127,0);stroke-width:1" /><circle cx="102.590650" cy="724.352337" r="3.749996" style="fill:rgb(0,127,0);stroke-width:1" /><circle cx="99.384695" cy="721.146382" r="3.749996" style="fill:rgb(0,127,0);stroke-width:1" /><circle cx="97.705364" cy="719.467074" r="3.749996" style="fill:rgb(0,127,0);stroke-width:1" /><circle cx="96.178718" cy="717.940427" r="3.749996" style="fill:rgb(0,127,0);stroke-width:1" /><circle cx="94.652072" cy="716.413781" r="3.749996" style="fill:rgb(0,127,0);stroke-width:1" /><circle cx="92.972763" cy="714.734472" r="3.749996" style="fill:rgb(0,127,0);stroke-width:1" /><circle cx="91.598779" cy="713.360488" r="3.749996" style="fill:rgb(0,127,0);stroke-width:1" /><circle cx="89.766808" cy="711.528517" r="3.749996" style="fill:rgb(0,127,0);stroke-width:1" /><circle cx="88.545486" cy="710.307196" r="3.749996" style="fill:rgb(0,127,0);stroke-width:1" /><circle cx="86.560853" cy="708.322540" r="3.749996" style="fill:rgb(0,127,0);stroke-width:1" /><circle cx="83.354898" cy="705.116585" r="3.749996" style="fill:rgb(0,127,0);stroke-width:1" /><circle cx="82.438901" cy="704.200611" r="3.749996" style="fill:rgb(0,127,0);stroke-width:1" /><circle cx="80.148943" cy="701.910630" r="3.749996" style="fill:rgb(0,127,0);stroke-width:1" /><circle cx="76.942988" cy="698.704675" r="3.749996" style="fill:rgb(0,127,0);stroke-width:1" /><circle cx="76.332316" cy="698.094025" r="3.749996" style="fill:rgb(0,127,0);stroke-width:1" /><circle cx="74.545272" cy="678.436540" r="3.749996" style="fill:rgb(0,127,0);stroke-width:1" /><circle cx="73.054366" cy="676.945634" r="3.749996" style="fill:rgb(0,127,0);stroke-width:1" /><circle cx="69.878094" cy="673.769340" r="3.749996" style="fill:rgb(0,127,0);stroke-width:1" /><circle cx="66.701822" cy="670.593068" r="3.749996" style="fill:rgb(0,127,0);stroke-width:1" /><circle cx="66.084512" cy="663.802788" r="3.749996" style="fill:rgb(0,127,0);stroke-width:1" /><circle cx="65.758020" cy="663.476296" r="3.749996" style="fill:rgb(0,127,0);stroke-width:1" /><circle cx="62.898986" cy="660.617240" r="3.749996" style="fill:rgb(0,127,0);stroke-width:1" /><circle cx="59.734516" cy="657.079652" r="3.749996" style="fill:rgb(0,127,0);stroke-width:1" /><circle cx="59.210524" cy="651.315808" r="3.749996" style="fill:rgb(0,127,0);stroke-width:1" /><circle cx="58.486238" cy="643.348642" r="3.749996" style="fill:rgb(0,127,0);stroke-width:1" /><circle cx="57.954535" cy="637.500018" r="3.749996" style="fill:rgb(0,127,0);stroke-width:1" /><circle cx="56.772910" cy="624.502011" r="3.749996" style="fill:rgb(0,127,0);stroke-width:1" /><circle cx="56.324109" cy="619.565226" r="3.749996" style="fill:rgb(0,127,0);stroke-width:1" /><circle cx="55.882350" cy="614.705868" r="3.749996" style="fill:rgb(0,127,0);stroke-width:1" /><circle cx="55.555567" cy="611.111104" r="3.749996" style="fill:rgb(0,127,0);stroke-width:1" /><circle cx="55.045858" cy="605.504595" r="3.749996" style="fill:rgb(0,127,0);stroke-width:1" /><circle cx="54.545447" cy="600.000009" r="3.749996" style="fill:rgb(0,127,0);stroke-width:1" /><circle cx="52.904561" cy="581.950240" r="3.749996" style="fill:rgb(0,127,0);stroke-width:1" /><circle cx="52.631557" cy="578.947417" r="3.749996" style="fill:rgb(0,127,0);stroke-width:1" /><circle cx="52.499995" cy="577.500030" r="3.749996" style="fill:rgb(0,127,0);stroke-width:1" /><circle cx="51.980183" cy="571.782209" r="3.749996" style="fill:rgb(0,127,0);stroke-width:1" /><circle cx="51.470585" cy="566.176504" r="3.749996" style="fill:rgb(0,127,0);stroke-width:1" /><circle cx="50.970867" cy="560.679674" r="3.749996" style="fill:rgb(0,127,0);stroke-width:1" /><circle cx="50.480761" cy="555.288512" r="3.749996" style="fill:rgb(0,127,0);stroke-width:1" /><circle cx="49.999997" cy="550.000045" r="3.749996" style="fill:rgb(0,127,0);stroke-width:1" /><circle cx="49.528286" cy="544.811357" r="3.749996" style="fill:rgb(0,127,0);stroke-width:1" /><circle cx="49.065426" cy="539.719652" r="3.749996" style="fill:rgb(0,127,0);stroke-width:1" /><circle cx="47.872335" cy="526.595782" r="3.749996" style="fill:rgb(0,127,0);stroke-width:1" /><circle cx="47.368415" cy="521.052662" r="3.749996" style="fill:rgb(0,127,0);stroke-width:1" /><circle cx="45.833319" cy="504.166681" r="3.749996" style="fill:rgb(0,127,0);stroke-width:1" /><circle cx="45.329668" cy="498.626377" r="3.749996" style="fill:rgb(0,127,0);stroke-width:1" /><circle cx="43.604650" cy="479.651213" r="3.749996" style="fill:rgb(0,127,0);stroke-width:1" /><circle cx="41.666664" cy="458.333373" r="3.749996" style="fill:rgb(0,127,0);stroke-width:1" /><circle cx="39.473668" cy="434.210569" r="3.749996" style="fill:rgb(0,127,0);stroke-width:1" /><circle cx="38.961031" cy="428.571464" r="3.749996" style="fill:rgb(0,127,0);stroke-width:1" /><circle cx="37.974671" cy="417.721541" r="3.749996" style="fill:rgb(0,127,0);stroke-width:1" /><circle cx="37.499987" cy="412.500054" r="3.749996" style="fill:rgb(0,127,0);stroke-width:1" /><circle cx="37.037037" cy="407.407433" r="3.749996" style="fill:rgb(0,127,0);stroke-width:1" /><circle cx="36.585353" cy="402.439057" r="3.749996" style="fill:rgb(0,127,0);stroke-width:1" /><circle cx="36.144577" cy="397.590398" r="3.749996" style="fill:rgb(0,127,0);stroke-width:1" /><circle cx="35.714284" cy="392.857193" r="3.749996" style="fill:rgb(0,127,0);stroke-width:1" /><circle cx="35.294116" cy="388.235331" r="3.749996" style="fill:rgb(0,127,0);stroke-width:1" /><circle cx="34.883715" cy="383.720994" r="3.749996" style="fill:rgb(0,127,0);stroke-width:1" /><circle cx="34.482747" cy="379.310399" r="3.749996" style="fill:rgb(0,127,0);stroke-width:1" /><circle cx="34.090899" cy="375.000030" r="3.749996" style="fill:rgb(0,127,0);stroke-width:1" /><circle cx="33.707857" cy="370.786577" r="3.749996" style="fill:rgb(0,127,0);stroke-width:1" /><circle cx="33.653855" cy="370.192349" r="3.749996" style="fill:rgb(0,127,0);stroke-width:1" /><circle cx="30.821912" cy="339.041144" r="3.749996" style="fill:rgb(0,127,0);stroke-width:1" /><circle cx="27.573533" cy="303.308845" r="3.749996" style="fill:rgb(0,127,0);stroke-width:1" /><circle cx="23.809522" cy="261.904780" r="3.749996" style="fill:rgb(0,127,0);stroke-width:1" /><circle cx="23.437500" cy="257.812500" r="3.749996" style="fill:rgb(0,127,0);stroke-width:1" /><circle cx="22.388063" cy="246.268630" r="3.749996" style="fill:rgb(0,127,0);stroke-width:1" /><circle cx="22.058822" cy="242.647111" r="3.749996" style="fill:rgb(0,127,0);stroke-width:1" /><circle cx="21.428570" cy="235.714372" r="3.749996" style="fill:rgb(0,127,0);stroke-width:1" /><circle cx="21.126755" cy="232.394401" r="3.749996" style="fill:rgb(0,127,0);stroke-width:1" /><circle cx="20.547934" cy="226.027429" r="3.749996" style="fill:rgb(0,127,0);stroke-width:1" /><circle cx="20.270258" cy="222.973052" r="3.749996" style="fill:rgb(0,127,0);stroke-width:1" /><circle cx="19.736834" cy="217.105329" r="3.749996" style="fill:rgb(0,127,0);stroke-width:1" /><circle cx="19.480526" cy="214.285791" r="3.749996" style="fill:rgb(0,127,0);stroke-width:1" /><circle cx="19.230768" cy="211.538550" r="3.749996" style="fill:rgb(0,127,0);stroke-width:1" /><circle cx="18.987335" cy="208.860811" r="3.749996" style="fill:rgb(0,127,0);stroke-width:1" /><circle cx="18.518507" cy="203.703761" r="3.749996" style="fill:rgb(0,127,0);stroke-width:1" /><circle cx="18.292688" cy="201.219555" r="3.749996" style="fill:rgb(0,127,0);stroke-width:1" /><circle cx="18.072277" cy="198.795263" r="3.749996" style="fill:rgb(0,127,0);stroke-width:1" /><circle cx="17.857142" cy="196.428660" r="3.749996" style="fill:rgb(0,127,0);stroke-width:1" /><circle cx="17.647058" cy="194.117669" r="3.749996" style="fill:rgb(0,127,0);stroke-width:1" /><circle cx="17.441869" cy="191.860501" r="3.749996" style="fill:rgb(0,127,0);stroke-width:1" /><circle cx="17.241374" cy="189.655244" r="3.749996" style="fill:rgb(0,127,0);stroke-width:1" /><circle cx="16.304344" cy="179.347873" r="3.749996" style="fill:rgb(0,127,0);stroke-width:1" /><circle cx="11.718750" cy="128.906317" r="3.749996" style="fill:rgb(0,127,0);stroke-width:1" /><circle cx="6.355941" cy="69.915354" r="3.749996" style="fill:rgb(0,127,0);stroke-width:1" /><circle cx="750.000000" cy="750.000000" r="3.749996" style="fill:rgb(0,127,0);stroke-width:1" /><path stroke-linejoin="round" stroke-linecap="round" stroke="rgb(255,255,255)" stroke-width="3.749996" fill="none" d="M 0.000000 750.000000 L 750.000000 750.000000 M 0.000000 750.000000 L 0.000000 0.000000 " />

</svg>