<svg xmlns="http://www.w3.org/2000/svg" version="1.1" width = "750" height = "750" viewBox = "0 0 750 750"  shape-rendering="crispEdges">
<path stroke-linejoin="round" stroke-linecap="round" stroke="rgb(255,255,0)" stroke-width="3.749996" fill="none" d="M 187.500000 750.000000 L 0.000000 0.000000 " />
<path stroke-linejoin="round" stroke-linecap="round" stroke="rgb(63,63,63)" stroke-width="3.749996" fill="none" d="M 0.000000 0.000000 L 750.000000 750.000000 M 187.500000 750.000000 L 80.357147 0.000000 " />
<path stroke-linejoin="round" stroke-linecap="round" stroke="rgb(191,191,191)" stroke-width="3.749996" fill="none" d="M 0.000000 562.500000 L 187.500000 750.000000 M 0.000000 0.000000 L 107.142853 750.000000 " />
<path stroke-linejoin="round" stroke-linecap="round" stroke="rgb(0,0,255)" stroke-width="1.874998" fill="none" d="M 0.000000 750.000000 L 750.000000 725.806458 " />
<path stroke-linejoin="round" stroke-linecap="round" stroke="rgb(255,0,0)" stroke-width="3.749996" fill="none" d="M 186.639908 743.979309 L 187.500000 750.000000 " />
<path stroke-linejoin="round" stroke-linecap="round" stroke="rgb(0,0,255)" stroke-width="1.874998" fill="none" d="M 0.000000 750.000000 L 750.000000 700.000000 " />
<path stroke-linejoin="round" stroke-linecap="round" stroke="rgb(255,0,0)" stroke-width="3.749996" fill="none" d="M 180.619232 737.958740 L 186.639908 743.979309 " />
<path stroke-linejoin="round" stroke-linecap="round" stroke="rgb(0,0,255)" stroke-width="1.874998" fill="none" d="M 0.000000 750.000000 L 750.000000 672.413818 " />
<path stroke-linejoin="round" stroke-linecap="round" stroke="rgb(255,0,0)" stroke-width="3.749996" fill="none" d="M 174.598602 731.938110 L 180.619232 737.958740 " />
<path stroke-linejoin="round" stroke-linecap="round" stroke="rgb(0,0,255)" stroke-width="1.874998" fill="none" d="M 0.000000 750.000000 L 750.000000 642.857178 " />
<path stroke-linejoin="round" stroke-linecap="round" stroke="rgb(255,0,0)" stroke-width="3.749996" fill="none" d="M 168.577957 725.917419 L 174.598602 731.938110 " />
<path stroke-linejoin="round" stroke-linecap="round" stroke="rgb(0,0,255)" stroke-width="1.874998" fill="none" d="M 0.000000 750.000000 L 750.000000 620.689636 " />
<path stroke-linejoin="round" stroke-linecap="round" stroke="rgb(255,0,0)" stroke-width="3.749996" fill="none" d="M 164.328079 721.667542 L 168.577957 725.917419 " />
<path stroke-linejoin="round" stroke-linecap="round" stroke="rgb(0,0,255)" stroke-width="1.874998" fill="none" d="M 0.000000 750.000000 L 750.000000 589.285706 " />
<path stroke-linejoin="round" stroke-linecap="round" stroke="rgb(255,0,0)" stroke-width="3.749996" fill="none" d="M 158.661606 716.001099 L 164.328079 721.667542 " />
<path stroke-linejoin="round" stroke-linecap="round" stroke="rgb(0,0,255)" stroke-width="1.874998" fill="none" d="M 0.000000 750.000000 L 750.000000 555.555603 " />
<path stroke-linejoin="round" stroke-linecap="round" stroke="rgb(255,0,0)" stroke-width="3.749996" fill="none" d="M 152.995117 710.334595 L 158.661606 716.001099 " />
<path stroke-linejoin="round" stroke-linecap="round" stroke="rgb(0,0,255)" stroke-width="1.874998" fill="none" d="M 0.000000 750.000000 L 750.000000 535.714294 " />
<path stroke-linejoin="round" stroke-linecap="round" stroke="rgb(255,0,0)" stroke-width="3.749996" fill="none" d="M 149.847107 707.186523 L 152.995148 710.334595 " />
<path stroke-linejoin="round" stroke-linecap="round" stroke="rgb(0,0,255)" stroke-width="1.874998" fill="none" d="M 0.000000 750.000000 L 750.000000 519.230774 " />
<path stroke-linejoin="round" stroke-linecap="round" stroke="rgb(255,0,0)" stroke-width="3.749996" fill="none" d="M 147.328644 704.668091 L 149.847107 707.186523 " />
<path stroke-linejoin="round" stroke-linecap="round" stroke="rgb(0,0,255)" stroke-width="1.874998" fill="none" d="M 0.000000 750.000000 L 750.000000 499.999969 " />
<path stroke-linejoin="round" stroke-linecap="round" stroke="rgb(255,0,0)" stroke-width="3.749996" fill="none" d="M 144.495377 701.834839 L 147.328644 704.668091 " />
<path stroke-linejoin="round" stroke-linecap="round" stroke="rgb(0,0,255)" stroke-width="1.874998" fill="none" d="M 0.000000 750.000000 L 750.000000 480.000000 " />
<path stroke-linejoin="round" stroke-linecap="round" stroke="rgb(255,0,0)" stroke-width="3.749996" fill="none" d="M 141.662170 699.001648 L 144.495377 701.834839 " />
<path stroke-linejoin="round" stroke-linecap="round" stroke="rgb(0,0,255)" stroke-width="1.874998" fill="none" d="M 0.000000 750.000000 L 750.000000 437.500031 " />
<path stroke-linejoin="round" stroke-linecap="round" stroke="rgb(255,0,0)" stroke-width="3.749996" fill="none" d="M 135.995667 693.335144 L 141.662170 699.001648 " />
<path stroke-linejoin="round" stroke-linecap="round" stroke="rgb(0,0,255)" stroke-width="1.874998" fill="none" d="M 0.000000 750.000000 L 750.000000 391.304352 " />
<path stroke-linejoin="round" stroke-linecap="round" stroke="rgb(255,0,0)" stroke-width="3.749996" fill="none" d="M 130.329163 687.668701 L 135.995667 693.335144 " />
<path stroke-linejoin="round" stroke-linecap="round" stroke="rgb(0,0,255)" stroke-width="1.874998" fill="none" d="M 0.000000 750.000000 L 750.000000 375.000000 " />
<path stroke-linejoin="round" stroke-linecap="round" stroke="rgb(255,0,0)" stroke-width="3.749996" fill="none" d="M 128.440353 685.779846 L 130.329163 687.668701 " />
<path stroke-linejoin="round" stroke-linecap="round" stroke="rgb(0,0,255)" stroke-width="1.874998" fill="none" d="M 0.000000 750.000000 L 750.000000 340.909088 " />
<path stroke-linejoin="round" stroke-linecap="round" stroke="rgb(255,0,0)" stroke-width="3.749996" fill="none" d="M 124.662682 682.002136 L 128.440353 685.779846 " />
<path stroke-linejoin="round" stroke-linecap="round" stroke="rgb(0,0,255)" stroke-width="1.874998" fill="none" d="M 0.000000 750.000000 L 750.000000 285.714264 " />
<path stroke-linejoin="round" stroke-linecap="round" stroke="rgb(255,0,0)" stroke-width="3.749996" fill="none" d="M 118.996201 676.335693 L 124.662682 682.002136 " />
<path stroke-linejoin="round" stroke-linecap="round" stroke="rgb(0,0,255)" stroke-width="1.874998" fill="none" d="M 0.000000 750.000000 L 750.000000 272.727295 " />
<path stroke-linejoin="round" stroke-linecap="round" stroke="rgb(255,0,0)" stroke-width="3.749996" fill="none" d="M 117.736992 675.076477 L 118.996201 676.335693 " />
<path stroke-linejoin="round" stroke-linecap="round" stroke="rgb(0,0,255)" stroke-width="1.874998" fill="none" d="M 0.000000 750.000000 L 750.000000 225.000015 " />
<path stroke-linejoin="round" stroke-linecap="round" stroke="rgb(255,0,0)" stroke-width="3.749996" fill="none" d="M 113.329727 670.669189 L 117.736992 675.076477 " />
<path stroke-linejoin="round" stroke-linecap="round" stroke="rgb(0,0,255)" stroke-width="1.874998" fill="none" d="M 0.000000 750.000000 L 750.000000 214.285706 " />
<path stroke-linejoin="round" stroke-linecap="round" stroke="rgb(255,0,0)" stroke-width="3.749996" fill="none" d="M 112.385315 669.724792 L 113.329727 670.669189 " />
<path stroke-linejoin="round" stroke-linecap="round" stroke="rgb(0,0,255)" stroke-width="1.874998" fill="none" d="M 0.000000 750.000000 L 750.000000 157.894714 " />
<path stroke-linejoin="round" stroke-linecap="round" stroke="rgb(255,0,0)" stroke-width="3.749996" fill="none" d="M 107.663246 665.002747 L 112.385315 669.724792 " />
<path stroke-linejoin="round" stroke-linecap="round" stroke="rgb(0,0,255)" stroke-width="1.874998" fill="none" d="M 0.000000 750.000000 L 750.000000 149.999985 " />
<path stroke-linejoin="round" stroke-linecap="round" stroke="rgb(255,0,0)" stroke-width="3.749996" fill="none" d="M 107.033638 664.373047 L 107.663246 665.002747 " />
<path stroke-linejoin="round" stroke-linecap="round" stroke="rgb(0,0,255)" stroke-width="1.874998" fill="none" d="M 0.000000 750.000000 L 750.000000 83.333328 " />
<path stroke-linejoin="round" stroke-linecap="round" stroke="rgb(255,0,0)" stroke-width="3.749996" fill="none" d="M 101.996765 659.336243 L 107.033638 664.373047 " />
<path stroke-linejoin="round" stroke-linecap="round" stroke="rgb(0,0,255)" stroke-width="1.874998" fill="none" d="M 0.000000 750.000000 L 750.000000 0.000000 " />
<path stroke-linejoin="round" stroke-linecap="round" stroke="rgb(255,0,0)" stroke-width="3.749996" fill="none" d="M 96.330261 653.669739 L 101.996765 659.336243 " />
<path stroke-linejoin="round" stroke-linecap="round" stroke="rgb(0,0,255)" stroke-width="1.874998" fill="none" d="M 0.000000 750.000000 L 666.666687 0.000000 " />
<path stroke-linejoin="round" stroke-linecap="round" stroke="rgb(255,0,0)" stroke-width="3.749996" fill="none" d="M 92.307686 646.153870 L 96.330261 653.669739 " />
<path stroke-linejoin="round" stroke-linecap="round" stroke="rgb(0,0,255)" stroke-width="1.874998" fill="none" d="M 0.000000 750.000000 L 592.105286 0.000000 " />
<path stroke-linejoin="round" stroke-linecap="round" stroke="rgb(255,0,0)" stroke-width="3.749996" fill="none" d="M 90.725807 635.080688 L 92.307686 646.153870 " />
<path stroke-linejoin="round" stroke-linecap="round" stroke="rgb(0,0,255)" stroke-width="1.874998" fill="none" d="M 0.000000 750.000000 L 525.000000 0.000000 " />
<path stroke-linejoin="round" stroke-linecap="round" stroke="rgb(255,0,0)" stroke-width="3.749996" fill="none" d="M 88.983047 622.881348 L 90.725807 635.080688 " />
<path stroke-linejoin="round" stroke-linecap="round" stroke="rgb(0,0,255)" stroke-width="1.874998" fill="none" d="M 0.000000 750.000000 L 477.272705 0.000000 " />
<path stroke-linejoin="round" stroke-linecap="round" stroke="rgb(255,0,0)" stroke-width="3.749996" fill="none" d="M 87.500008 612.500000 L 88.983047 622.881348 " />
<path stroke-linejoin="round" stroke-linecap="round" stroke="rgb(0,0,255)" stroke-width="1.874998" fill="none" d="M 0.000000 750.000000 L 437.500000 0.000000 " />
<path stroke-linejoin="round" stroke-linecap="round" stroke="rgb(255,0,0)" stroke-width="3.749996" fill="none" d="M 86.065559 602.458984 L 87.500008 612.500000 " />
<path stroke-linejoin="round" stroke-linecap="round" stroke="rgb(0,0,255)" stroke-width="1.874998" fill="none" d="M 0.000000 750.000000 L 390.000031 0.000000 " />
<path stroke-linejoin="round" stroke-linecap="round" stroke="rgb(255,0,0)" stroke-width="3.749996" fill="none" d="M 84.051712 588.362061 L 86.065559 602.458984 " />
<path stroke-linejoin="round" stroke-linecap="round" stroke="rgb(0,0,255)" stroke-width="1.874998" fill="none" d="M 0.000000 750.000000 L 361.111084 0.000000 " />
<path stroke-linejoin="round" stroke-linecap="round" stroke="rgb(255,0,0)" stroke-width="3.749996" fill="none" d="M 82.627106 578.389832 L 84.051712 588.362061 " />
<path stroke-linejoin="round" stroke-linecap="round" stroke="rgb(0,0,255)" stroke-width="1.874998" fill="none" d="M 0.000000 750.000000 L 321.428589 0.000000 " />
<path stroke-linejoin="round" stroke-linecap="round" stroke="rgb(255,0,0)" stroke-width="3.749996" fill="none" d="M 80.357147 562.500000 L 82.627106 578.389832 " />
<path stroke-linejoin="round" stroke-linecap="round" stroke="rgb(0,0,255)" stroke-width="1.874998" fill="none" d="M 0.000000 750.000000 L 284.482758 0.000000 " />
<path stroke-linejoin="round" stroke-linecap="round" stroke="rgb(255,0,0)" stroke-width="3.749996" fill="none" d="M 77.830170 544.811340 L 80.357147 562.500000 " />
<path stroke-linejoin="round" stroke-linecap="round" stroke="rgb(0,0,255)" stroke-width="1.874998" fill="none" d="M 0.000000 750.000000 L 266.129059 0.000000 " />
<path stroke-linejoin="round" stroke-linecap="round" stroke="rgb(255,0,0)" stroke-width="3.749996" fill="none" d="M 76.388885 534.722229 L 77.830170 544.811340 " />
<path stroke-linejoin="round" stroke-linecap="round" stroke="rgb(0,0,255)" stroke-width="1.874998" fill="none" d="M 0.000000 750.000000 L 264.705902 0.000000 " />
<path stroke-linejoin="round" stroke-linecap="round" stroke="rgb(255,0,0)" stroke-width="3.749996" fill="none" d="M 76.271187 533.898315 L 76.388885 534.722229 " />
<path stroke-linejoin="round" stroke-linecap="round" stroke="rgb(0,0,255)" stroke-width="1.874998" fill="none" d="M 0.000000 750.000000 L 235.714279 0.000000 " />
<path stroke-linejoin="round" stroke-linecap="round" stroke="rgb(255,0,0)" stroke-width="3.749996" fill="none" d="M 73.660721 515.625000 L 76.271187 533.898315 " />
<path stroke-linejoin="round" stroke-linecap="round" stroke="rgb(0,0,255)" stroke-width="1.874998" fill="none" d="M 0.000000 750.000000 L 222.972977 0.000000 " />
<path stroke-linejoin="round" stroke-linecap="round" stroke="rgb(255,0,0)" stroke-width="3.749996" fill="none" d="M 72.368416 506.578949 L 73.660721 515.625000 " />
<path stroke-linejoin="round" stroke-linecap="round" stroke="rgb(0,0,255)" stroke-width="1.874998" fill="none" d="M 0.000000 750.000000 L 204.545456 0.000000 " />
<path stroke-linejoin="round" stroke-linecap="round" stroke="rgb(255,0,0)" stroke-width="3.749996" fill="none" d="M 70.312500 492.187500 L 72.368416 506.578949 " />
<path stroke-linejoin="round" stroke-linecap="round" stroke="rgb(0,0,255)" stroke-width="1.874998" fill="none" d="M 0.000000 750.000000 L 192.857147 0.000000 " />
<path stroke-linejoin="round" stroke-linecap="round" stroke="rgb(255,0,0)" stroke-width="3.749996" fill="none" d="M 68.877541 482.142883 L 70.312500 492.187500 " />
<path stroke-linejoin="round" stroke-linecap="round" stroke="rgb(0,0,255)" stroke-width="1.874998" fill="none" d="M 0.000000 750.000000 L 176.470581 0.000000 " />
<path stroke-linejoin="round" stroke-linecap="round" stroke="rgb(255,0,0)" stroke-width="3.749996" fill="none" d="M 66.666664 466.666687 L 68.877541 482.142883 " />
<path stroke-linejoin="round" stroke-linecap="round" stroke="rgb(0,0,255)" stroke-width="1.874998" fill="none" d="M 0.000000 750.000000 L 149.999985 0.000000 " />
<path stroke-linejoin="round" stroke-linecap="round" stroke="rgb(255,0,0)" stroke-width="3.749996" fill="none" d="M 62.499985 437.500031 L 66.666664 466.666687 " />
<path stroke-linejoin="round" stroke-linecap="round" stroke="rgb(0,0,255)" stroke-width="1.874998" fill="none" d="M 0.000000 750.000000 L 141.891891 0.000000 " />
<path stroke-linejoin="round" stroke-linecap="round" stroke="rgb(255,0,0)" stroke-width="3.749996" fill="none" d="M 61.046497 427.325684 L 62.499985 437.500061 " />
<path stroke-linejoin="round" stroke-linecap="round" stroke="rgb(0,0,255)" stroke-width="1.874998" fill="none" d="M 0.000000 750.000000 L 128.048798 0.000000 " />
<path stroke-linejoin="round" stroke-linecap="round" stroke="rgb(255,0,0)" stroke-width="3.749996" fill="none" d="M 58.333309 408.333435 L 61.046497 427.325684 " />
<path stroke-linejoin="round" stroke-linecap="round" stroke="rgb(0,0,255)" stroke-width="1.874998" fill="none" d="M 0.000000 750.000000 L 122.093040 0.000000 " />
<path stroke-linejoin="round" stroke-linecap="round" stroke="rgb(255,0,0)" stroke-width="3.749996" fill="none" d="M 57.065205 399.456573 L 58.333309 408.333435 " />
<path stroke-linejoin="round" stroke-linecap="round" stroke="rgb(0,0,255)" stroke-width="1.874998" fill="none" d="M 0.000000 750.000000 L 116.666656 0.000000 " />
<path stroke-linejoin="round" stroke-linecap="round" stroke="rgb(255,0,0)" stroke-width="3.749996" fill="none" d="M 55.851059 390.957520 L 57.065205 399.456573 " />
<path stroke-linejoin="round" stroke-linecap="round" stroke="rgb(0,0,255)" stroke-width="1.874998" fill="none" d="M 0.000000 750.000000 L 111.702118 0.000000 " />
<path stroke-linejoin="round" stroke-linecap="round" stroke="rgb(255,0,0)" stroke-width="3.749996" fill="none" d="M 54.687492 382.812561 L 55.851059 390.957520 " />
<path stroke-linejoin="round" stroke-linecap="round" stroke="rgb(0,0,255)" stroke-width="1.874998" fill="none" d="M 0.000000 750.000000 L 107.142853 0.000000 " />
<path stroke-linejoin="round" stroke-linecap="round" stroke="rgb(255,0,0)" stroke-width="3.749996" fill="none" d="M 53.571404 375.000092 L 54.687492 382.812561 " />
<path stroke-linejoin="round" stroke-linecap="round" stroke="rgb(0,0,255)" stroke-width="1.874998" fill="none" d="M 0.000000 750.000000 L 84.905663 0.000000 " />
<path stroke-linejoin="round" stroke-linecap="round" stroke="rgb(255,0,0)" stroke-width="3.749996" fill="none" d="M 47.368416 331.579071 L 53.571404 375.000092 " />
<path stroke-linejoin="round" stroke-linecap="round" stroke="rgb(0,0,255)" stroke-width="1.874998" fill="none" d="M 0.000000 750.000000 L 59.523808 0.000000 " />
<path stroke-linejoin="round" stroke-linecap="round" stroke="rgb(255,0,0)" stroke-width="3.749996" fill="none" d="M 38.265289 267.857239 L 47.368416 331.579071 " />
<path stroke-linejoin="round" stroke-linecap="round" stroke="rgb(0,0,255)" stroke-width="1.874998" fill="none" d="M 0.000000 750.000000 L 41.095890 0.000000 " />
<path stroke-linejoin="round" stroke-linecap="round" stroke="rgb(255,0,0)" stroke-width="3.749996" fill="none" d="M 29.702961 207.920914 L 38.265289 267.857239 " />
<path stroke-linejoin="round" stroke-linecap="round" stroke="rgb(0,0,255)" stroke-width="1.874998" fill="none" d="M 0.000000 750.000000 L 27.108438 0.000000 " />
<path stroke-linejoin="round" stroke-linecap="round" stroke="rgb(255,0,0)" stroke-width="3.749996" fill="none" d="M 21.634609 151.442398 L 29.702961 207.920914 " />
<path stroke-linejoin="round" stroke-linecap="round" stroke="rgb(0,0,255)" stroke-width="1.874998" fill="none" d="M 0.000000 750.000000 L 24.193548 0.000000 " />
<path stroke-linejoin="round" stroke-linecap="round" stroke="rgb(255,0,0)" stroke-width="3.749996" fill="none" d="M 19.736834 138.157990 L 21.634609 151.442352 " />
<path stroke-linejoin="round" stroke-linecap="round" stroke="rgb(0,0,255)" stroke-width="1.874998" fill="none" d="M 0.000000 750.000000 L 22.277222 0.000000 " />
<path stroke-linejoin="round" stroke-linecap="round" stroke="rgb(255,0,0)" stroke-width="3.749996" fill="none" d="M 18.442623 129.098526 L 19.736834 138.158035 " />
<path stroke-linejoin="round" stroke-linecap="round" stroke="rgb(0,0,255)" stroke-width="1.874998" fill="none" d="M 0.000000 750.000000 L 13.513506 0.000000 " />
<path stroke-linejoin="round" stroke-linecap="round" stroke="rgb(255,0,0)" stroke-width="3.749996" fill="none" d="M 12.000002 84.000214 L 18.442623 129.098526 " />
<path stroke-linejoin="round" stroke-linecap="round" stroke="rgb(0,0,255)" stroke-width="1.874998" fill="none" d="M 0.000000 750.000000 L 6.198339 0.000000 " />
<path stroke-linejoin="round" stroke-linecap="round" stroke="rgb(255,0,0)" stroke-width="3.749996" fill="none" d="M 5.859375 41.015892 L 12.000002 84.000259 " />
<path stroke-linejoin="round" stroke-linecap="round" stroke="rgb(0,0,255)" stroke-width="1.874998" fill="none" d="M 0.000000 750.000000 L 0.000000 0.000000 " />
<path stroke-linejoin="round" stroke-linecap="round" stroke="rgb(255,0,0)" stroke-width="3.749996" fill="none" d="M 0.000000 0.000000 L 5.859375 41.015892 " />
<circle cx="186.639905" cy="743.979357" r="3.749996" style="fill:rgb(0,127,0);stroke-width:1" /><circle cx="180.619240" cy="737.958714" r="3.749996" style="fill:rgb(0,127,0);stroke-width:1" /><circle cx="174.598597" cy="731.938072" r="3.749996" style="fill:rgb(0,127,0);stroke-width:1" /><circle cx="168.577954" cy="725.917429" r="3.749996" style="fill:rgb(0,127,0);stroke-width:1" /><circle cx="164.328083" cy="721.667580" r="3.749996" style="fill:rgb(0,127,0);stroke-width:1" /><circle cx="158.661604" cy="716.001078" r="3.749996" style="fill:rgb(0,127,0);stroke-width:1" /><circle cx="152.995124" cy="710.334599" r="3.749996" style="fill:rgb(0,127,0);stroke-width:1" /><circle cx="149.847105" cy="707.186535" r="3.749996" style="fill:rgb(0,127,0);stroke-width:1" /><circle cx="147.328645" cy="704.668120" r="3.749996" style="fill:rgb(0,127,0);stroke-width:1" /><circle cx="144.495383" cy="701.834857" r="3.749996" style="fill:rgb(0,127,0);stroke-width:1" /><circle cx="141.662166" cy="699.001618" r="3.749996" style="fill:rgb(0,127,0);stroke-width:1" /><circle cx="135.995664" cy="693.335138" r="3.749996" style="fill:rgb(0,127,0);stroke-width:1" /><circle cx="130.329162" cy="687.668659" r="3.749996" style="fill:rgb(0,127,0);stroke-width:1" /><circle cx="128.440350" cy="685.779825" r="3.749996" style="fill:rgb(0,127,0);stroke-width:1" /><circle cx="124.662682" cy="682.002157" r="3.749996" style="fill:rgb(0,127,0);stroke-width:1" /><circle cx="118.996203" cy="676.335678" r="3.749996" style="fill:rgb(0,127,0);stroke-width:1" /><circle cx="117.736995" cy="675.076470" r="3.749996" style="fill:rgb(0,127,0);stroke-width:1" /><circle cx="113.329723" cy="670.669198" r="3.749996" style="fill:rgb(0,127,0);stroke-width:1" /><circle cx="112.385318" cy="669.724792" r="3.749996" style="fill:rgb(0,127,0);stroke-width:1" /><circle cx="107.663244" cy="665.002719" r="3.749996" style="fill:rgb(0,127,0);stroke-width:1" /><circle cx="107.033640" cy="664.373092" r="3.749996" style="fill:rgb(0,127,0);stroke-width:1" /><circle cx="101.996765" cy="659.336217" r="3.749996" style="fill:rgb(0,127,0);stroke-width:1" /><circle cx="96.330263" cy="653.669737" r="3.749996" style="fill:rgb(0,127,0);stroke-width:1" /><circle cx="92.307687" cy="646.153852" r="3.749996" style="fill:rgb(0,127,0);stroke-width:1" /><circle cx="90.725809" cy="635.080643" r="3.749996" style="fill:rgb(0,127,0);stroke-width:1" /><circle cx="88.983044" cy="622.881353" r="3.749996" style="fill:rgb(0,127,0);stroke-width:1" /><circle cx="87.500006" cy="612.499997" r="3.749996" style="fill:rgb(0,127,0);stroke-width:1" /><circle cx="86.065561" cy="602.459013" r="3.749996" style="fill:rgb(0,127,0);stroke-width:1" /><circle cx="84.051713" cy="588.362083" r="3.749996" style="fill:rgb(0,127,0);stroke-width:1" /><circle cx="82.627103" cy="578.389831" r="3.749996" style="fill:rgb(0,127,0);stroke-width:1" /><circle cx="80.357149" cy="562.500022" r="3.749996" style="fill:rgb(0,127,0);stroke-width:1" /><circle cx="77.830173" cy="544.811346" r="3.749996" style="fill:rgb(0,127,0);stroke-width:1" /><circle cx="76.388888" cy="534.722239" r="3.749996" style="fill:rgb(0,127,0);stroke-width:1" /><circle cx="76.271184" cy="533.898309" r="3.749996" style="fill:rgb(0,127,0);stroke-width:1" /><circle cx="73.660724" cy="515.624978" r="3.749996" style="fill:rgb(0,127,0);stroke-width:1" /><circle cx="72.368413" cy="506.578937" r="3.749996" style="fill:rgb(0,127,0);stroke-width:1" /><circle cx="70.312500" cy="492.187500" r="3.749996" style="fill:rgb(0,127,0);stroke-width:1" /><circle cx="68.877541" cy="482.142873" r="3.749996" style="fill:rgb(0,127,0);stroke-width:1" /><circle cx="66.666663" cy="466.666684" r="3.749996" style="fill:rgb(0,127,0);stroke-width:1" /><circle cx="62.499985" cy="437.500052" r="3.749996" style="fill:rgb(0,127,0);stroke-width:1" /><circle cx="61.046496" cy="427.325673" r="3.749996" style="fill:rgb(0,127,0);stroke-width:1" /><circle cx="58.333308" cy="408.333421" r="3.749996" style="fill:rgb(0,127,0);stroke-width:1" /><circle cx="57.065204" cy="399.456583" r="3.749996" style="fill:rgb(0,127,0);stroke-width:1" /><circle cx="55.851057" cy="390.957534" r="3.749996" style="fill:rgb(0,127,0);stroke-width:1" /><circle cx="54.687493" cy="382.812582" r="3.749996" style="fill:rgb(0,127,0);stroke-width:1" /><circle cx="53.571403" cy="375.000089" r="3.749996" style="fill:rgb(0,127,0);stroke-width:1" /><circle cx="47.368415" cy="331.579059" r="3.749996" style="fill:rgb(0,127,0);stroke-width:1" /><circle cx="38.265288" cy="267.857239" r="3.749996" style="fill:rgb(0,127,0);stroke-width:1" /><circle cx="29.702961" cy="207.920909" r="3.749996" style="fill:rgb(0,127,0);stroke-width:1" /><circle cx="21.634609" cy="151.442394" r="3.749996" style="fill:rgb(0,127,0);stroke-width:1" /><circle cx="19.736834" cy="138.157994" r="3.749996" style="fill:rgb(0,127,0);stroke-width:1" /><circle cx="18.442623" cy="129.098520" r="3.749996" style="fill:rgb(0,127,0);stroke-width:1" /><circle cx="12.000002" cy="84.000215" r="3.749996" style="fill:rgb(0,127,0);stroke-width:1" /><circle cx="5.859375" cy="41.015893" r="3.749996" style="fill:rgb(0,127,0);stroke-width:1" /><circle cx="750.000000" cy="750.000000" r="3.749996" style="fill:rgb(0,127,0);stroke-width:1" /><path stroke-linejoin="round" stroke-linecap="round" stroke="rgb(255,255,255)" stroke-width="3.749996" fill="none" d="M 0.000000 750.000000 L 750.000000 750.000000 M 0.000000 750.000000 L 0.000000 0.000000 " />

</svg>