<svg xmlns="http://www.w3.org/2000/svg" version="1.1" width = "750" height = "750" viewBox = "0 0 750 750"  shape-rendering="crispEdges">
<path stroke-linejoin="round" stroke-linecap="round" stroke="rgb(255,255,0)" stroke-width="3.749996" fill="none" d="M 375.000000 750.000000 L 0.000000 0.000000 " />
<path stroke-linejoin="round" stroke-linecap="round" stroke="rgb(63,63,63)" stroke-width="3.749996" fill="none" d="M 0.000000 0.000000 L 750.000000 750.000000 M 375.000000 750.000000 L 124.999992 0.000000 " />
<path stroke-linejoin="round" stroke-linecap="round" stroke="rgb(191,191,191)" stroke-width="3.749996" fill="none" d="M 0.000000 375.000000 L 375.000000 750.000000 M 0.000000 0.000000 L 250.000000 750.000000 " />
<path stroke-linejoin="round" stroke-linecap="round" stroke="rgb(0,0,255)" stroke-width="1.874998" fill="none" d="M 0.000000 750.000000 L 750.000000 726.562500 " />
<path stroke-linejoin="round" stroke-linecap="round" stroke="rgb(255,0,0)" stroke-width="3.749996" fill="none" d="M 371.134003 738.402039 L 375.000000 750.000000 " />
<path stroke-linejoin="round" stroke-linecap="round" stroke="rgb(0,0,255)" stroke-width="1.874998" fill="none" d="M 0.000000 750.000000 L 750.000000 701.612915 " />
<path stroke-linejoin="round" stroke-linecap="round" stroke="rgb(255,0,0)" stroke-width="3.749996" fill="none" d="M 359.536072 726.804138 L 371.134003 738.402039 " />
<path stroke-linejoin="round" stroke-linecap="round" stroke="rgb(0,0,255)" stroke-width="1.874998" fill="none" d="M 0.000000 750.000000 L 750.000000 675.000000 " />
<path stroke-linejoin="round" stroke-linecap="round" stroke="rgb(255,0,0)" stroke-width="3.749996" fill="none" d="M 347.938110 715.206177 L 359.536072 726.804138 " />
<path stroke-linejoin="round" stroke-linecap="round" stroke="rgb(0,0,255)" stroke-width="1.874998" fill="none" d="M 0.000000 750.000000 L 750.000000 653.225830 " />
<path stroke-linejoin="round" stroke-linecap="round" stroke="rgb(255,0,0)" stroke-width="3.749996" fill="none" d="M 338.991150 706.259216 L 347.938110 715.206177 " />
<path stroke-linejoin="round" stroke-linecap="round" stroke="rgb(0,0,255)" stroke-width="1.874998" fill="none" d="M 0.000000 750.000000 L 750.000000 625.000000 " />
<path stroke-linejoin="round" stroke-linecap="round" stroke="rgb(255,0,0)" stroke-width="3.749996" fill="none" d="M 328.055939 695.324036 L 338.991150 706.259216 " />
<path stroke-linejoin="round" stroke-linecap="round" stroke="rgb(0,0,255)" stroke-width="1.874998" fill="none" d="M 0.000000 750.000000 L 750.000000 604.838684 " />
<path stroke-linejoin="round" stroke-linecap="round" stroke="rgb(255,0,0)" stroke-width="3.749996" fill="none" d="M 320.667267 687.935364 L 328.055939 695.324036 " />
<path stroke-linejoin="round" stroke-linecap="round" stroke="rgb(0,0,255)" stroke-width="1.874998" fill="none" d="M 0.000000 750.000000 L 750.000000 594.827576 " />
<path stroke-linejoin="round" stroke-linecap="round" stroke="rgb(255,0,0)" stroke-width="3.749996" fill="none" d="M 317.120758 684.388794 L 320.667267 687.935364 " />
<path stroke-linejoin="round" stroke-linecap="round" stroke="rgb(0,0,255)" stroke-width="1.874998" fill="none" d="M 0.000000 750.000000 L 750.000000 575.000000 " />
<path stroke-linejoin="round" stroke-linecap="round" stroke="rgb(255,0,0)" stroke-width="3.749996" fill="none" d="M 310.323181 677.591248 L 317.120758 684.388794 " />
<path stroke-linejoin="round" stroke-linecap="round" stroke="rgb(0,0,255)" stroke-width="1.874998" fill="none" d="M 0.000000 750.000000 L 750.000000 321.428558 " />
<path stroke-linejoin="round" stroke-linecap="round" stroke="rgb(255,0,0)" stroke-width="3.749996" fill="none" d="M 280.945892 589.459473 L 310.323181 677.591248 " />
<path stroke-linejoin="round" stroke-linecap="round" stroke="rgb(0,0,255)" stroke-width="1.874998" fill="none" d="M 0.000000 750.000000 L 750.000000 317.307709 " />
<path stroke-linejoin="round" stroke-linecap="round" stroke="rgb(255,0,0)" stroke-width="3.749996" fill="none" d="M 279.966980 588.480591 L 280.945892 589.459473 " />
<path stroke-linejoin="round" stroke-linecap="round" stroke="rgb(0,0,255)" stroke-width="1.874998" fill="none" d="M 0.000000 750.000000 L 750.000000 281.250000 " />
<path stroke-linejoin="round" stroke-linecap="round" stroke="rgb(255,0,0)" stroke-width="3.749996" fill="none" d="M 271.683960 580.197510 L 279.966980 588.480591 " />
<path stroke-linejoin="round" stroke-linecap="round" stroke="rgb(0,0,255)" stroke-width="1.874998" fill="none" d="M 0.000000 750.000000 L 750.000000 270.000000 " />
<path stroke-linejoin="round" stroke-linecap="round" stroke="rgb(255,0,0)" stroke-width="3.749996" fill="none" d="M 269.199036 577.712585 L 271.683960 580.197510 " />
<path stroke-linejoin="round" stroke-linecap="round" stroke="rgb(0,0,255)" stroke-width="1.874998" fill="none" d="M 0.000000 750.000000 L 750.000000 228.260864 " />
<path stroke-linejoin="round" stroke-linecap="round" stroke="rgb(255,0,0)" stroke-width="3.749996" fill="none" d="M 260.363770 568.877380 L 269.199036 577.712585 " />
<path stroke-linejoin="round" stroke-linecap="round" stroke="rgb(0,0,255)" stroke-width="1.874998" fill="none" d="M 0.000000 750.000000 L 750.000000 170.454559 " />
<path stroke-linejoin="round" stroke-linecap="round" stroke="rgb(255,0,0)" stroke-width="3.749996" fill="none" d="M 249.043625 557.557251 L 260.363770 568.877380 " />
<path stroke-linejoin="round" stroke-linecap="round" stroke="rgb(0,0,255)" stroke-width="1.874998" fill="none" d="M 0.000000 750.000000 L 750.000000 107.142853 " />
<path stroke-linejoin="round" stroke-linecap="round" stroke="rgb(255,0,0)" stroke-width="3.749996" fill="none" d="M 237.723450 546.237061 L 249.043625 557.557251 " />
<path stroke-linejoin="round" stroke-linecap="round" stroke="rgb(0,0,255)" stroke-width="1.874998" fill="none" d="M 0.000000 750.000000 L 750.000000 37.500008 " />
<path stroke-linejoin="round" stroke-linecap="round" stroke="rgb(255,0,0)" stroke-width="3.749996" fill="none" d="M 226.403275 534.916870 L 237.723450 546.237061 " />
<path stroke-linejoin="round" stroke-linecap="round" stroke="rgb(0,0,255)" stroke-width="1.874998" fill="none" d="M 0.000000 750.000000 L 712.500000 0.000000 " />
<path stroke-linejoin="round" stroke-linecap="round" stroke="rgb(255,0,0)" stroke-width="3.749996" fill="none" d="M 215.083099 523.596680 L 226.403275 534.916870 " />
<path stroke-linejoin="round" stroke-linecap="round" stroke="rgb(0,0,255)" stroke-width="1.874998" fill="none" d="M 0.000000 750.000000 L 642.857178 0.000000 " />
<path stroke-linejoin="round" stroke-linecap="round" stroke="rgb(255,0,0)" stroke-width="3.749996" fill="none" d="M 203.762955 512.276550 L 215.083099 523.596680 " />
<path stroke-linejoin="round" stroke-linecap="round" stroke="rgb(0,0,255)" stroke-width="1.874998" fill="none" d="M 0.000000 750.000000 L 579.545410 0.000000 " />
<path stroke-linejoin="round" stroke-linecap="round" stroke="rgb(255,0,0)" stroke-width="3.749996" fill="none" d="M 192.442780 500.956390 L 203.762955 512.276550 " />
<path stroke-linejoin="round" stroke-linecap="round" stroke="rgb(0,0,255)" stroke-width="1.874998" fill="none" d="M 0.000000 750.000000 L 531.250000 0.000000 " />
<path stroke-linejoin="round" stroke-linecap="round" stroke="rgb(255,0,0)" stroke-width="3.749996" fill="none" d="M 183.055328 491.568939 L 192.442780 500.956390 " />
<path stroke-linejoin="round" stroke-linecap="round" stroke="rgb(0,0,255)" stroke-width="1.874998" fill="none" d="M 0.000000 750.000000 L 490.384613 0.000000 " />
<path stroke-linejoin="round" stroke-linecap="round" stroke="rgb(255,0,0)" stroke-width="3.749996" fill="none" d="M 174.541138 483.054749 L 183.055359 491.568878 " />
<path stroke-linejoin="round" stroke-linecap="round" stroke="rgb(0,0,255)" stroke-width="1.874998" fill="none" d="M 0.000000 750.000000 L 444.444458 0.000000 " />
<path stroke-linejoin="round" stroke-linecap="round" stroke="rgb(255,0,0)" stroke-width="3.749996" fill="none" d="M 164.273987 472.787628 L 174.541138 483.054749 " />
<path stroke-linejoin="round" stroke-linecap="round" stroke="rgb(0,0,255)" stroke-width="1.874998" fill="none" d="M 0.000000 750.000000 L 401.785706 0.000000 " />
<path stroke-linejoin="round" stroke-linecap="round" stroke="rgb(255,0,0)" stroke-width="3.749996" fill="none" d="M 154.109589 462.328796 L 164.273987 472.787628 " />
<path stroke-linejoin="round" stroke-linecap="round" stroke="rgb(0,0,255)" stroke-width="1.874998" fill="none" d="M 0.000000 750.000000 L 362.068970 0.000000 " />
<path stroke-linejoin="round" stroke-linecap="round" stroke="rgb(255,0,0)" stroke-width="3.749996" fill="none" d="M 147.887329 443.661957 L 154.109589 462.328796 " />
<path stroke-linejoin="round" stroke-linecap="round" stroke="rgb(0,0,255)" stroke-width="1.874998" fill="none" d="M 0.000000 750.000000 L 338.709686 0.000000 " />
<path stroke-linejoin="round" stroke-linecap="round" stroke="rgb(255,0,0)" stroke-width="3.749996" fill="none" d="M 143.835602 431.506897 L 147.887329 443.661957 " />
<path stroke-linejoin="round" stroke-linecap="round" stroke="rgb(0,0,255)" stroke-width="1.874998" fill="none" d="M 0.000000 750.000000 L 325.000000 0.000000 " />
<path stroke-linejoin="round" stroke-linecap="round" stroke="rgb(255,0,0)" stroke-width="3.749996" fill="none" d="M 141.304321 423.913116 L 143.835602 431.506897 " />
<path stroke-linejoin="round" stroke-linecap="round" stroke="rgb(0,0,255)" stroke-width="1.874998" fill="none" d="M 0.000000 750.000000 L 304.687469 0.000000 " />
<path stroke-linejoin="round" stroke-linecap="round" stroke="rgb(255,0,0)" stroke-width="3.749996" fill="none" d="M 137.323914 411.971893 L 141.304321 423.913116 " />
<path stroke-linejoin="round" stroke-linecap="round" stroke="rgb(0,0,255)" stroke-width="1.874998" fill="none" d="M 0.000000 750.000000 L 290.322601 0.000000 " />
<path stroke-linejoin="round" stroke-linecap="round" stroke="rgb(255,0,0)" stroke-width="3.749996" fill="none" d="M 134.328339 402.985138 L 137.323914 411.971893 " />
<path stroke-linejoin="round" stroke-linecap="round" stroke="rgb(0,0,255)" stroke-width="1.874998" fill="none" d="M 0.000000 750.000000 L 257.812500 0.000000 " />
<path stroke-linejoin="round" stroke-linecap="round" stroke="rgb(255,0,0)" stroke-width="3.749996" fill="none" d="M 126.923050 380.769287 L 134.328339 402.985138 " />
<path stroke-linejoin="round" stroke-linecap="round" stroke="rgb(0,0,255)" stroke-width="1.874998" fill="none" d="M 0.000000 750.000000 L 242.647064 0.000000 " />
<path stroke-linejoin="round" stroke-linecap="round" stroke="rgb(255,0,0)" stroke-width="3.749996" fill="none" d="M 123.134315 369.403076 L 126.923050 380.769287 " />
<path stroke-linejoin="round" stroke-linecap="round" stroke="rgb(0,0,255)" stroke-width="1.874998" fill="none" d="M 0.000000 750.000000 L 229.166672 0.000000 " />
<path stroke-linejoin="round" stroke-linecap="round" stroke="rgb(255,0,0)" stroke-width="3.749996" fill="none" d="M 119.565186 358.695709 L 123.134315 369.403076 " />
<path stroke-linejoin="round" stroke-linecap="round" stroke="rgb(0,0,255)" stroke-width="1.874998" fill="none" d="M 0.000000 750.000000 L 202.702698 0.000000 " />
<path stroke-linejoin="round" stroke-linecap="round" stroke="rgb(255,0,0)" stroke-width="3.749996" fill="none" d="M 111.940292 335.820923 L 119.565186 358.695709 " />
<path stroke-linejoin="round" stroke-linecap="round" stroke="rgb(0,0,255)" stroke-width="1.874998" fill="none" d="M 0.000000 750.000000 L 192.307678 0.000000 " />
<path stroke-linejoin="round" stroke-linecap="round" stroke="rgb(255,0,0)" stroke-width="3.749996" fill="none" d="M 108.695625 326.087006 L 111.940292 335.820923 " />
<path stroke-linejoin="round" stroke-linecap="round" stroke="rgb(0,0,255)" stroke-width="1.874998" fill="none" d="M 0.000000 750.000000 L 182.926834 0.000000 " />
<path stroke-linejoin="round" stroke-linecap="round" stroke="rgb(255,0,0)" stroke-width="3.749996" fill="none" d="M 105.633797 316.901428 L 108.695625 326.087006 " />
<path stroke-linejoin="round" stroke-linecap="round" stroke="rgb(0,0,255)" stroke-width="1.874998" fill="none" d="M 0.000000 750.000000 L 174.418594 0.000000 " />
<path stroke-linejoin="round" stroke-linecap="round" stroke="rgb(255,0,0)" stroke-width="3.749996" fill="none" d="M 102.739716 308.219208 L 105.633797 316.901428 " />
<path stroke-linejoin="round" stroke-linecap="round" stroke="rgb(0,0,255)" stroke-width="1.874998" fill="none" d="M 0.000000 750.000000 L 160.714294 0.000000 " />
<path stroke-linejoin="round" stroke-linecap="round" stroke="rgb(255,0,0)" stroke-width="3.749996" fill="none" d="M 97.826065 293.478333 L 102.739716 308.219208 " />
<path stroke-linejoin="round" stroke-linecap="round" stroke="rgb(0,0,255)" stroke-width="1.874998" fill="none" d="M 0.000000 750.000000 L 139.534882 0.000000 " />
<path stroke-linejoin="round" stroke-linecap="round" stroke="rgb(255,0,0)" stroke-width="3.749996" fill="none" d="M 89.552231 268.656769 L 97.826065 293.478333 " />
<path stroke-linejoin="round" stroke-linecap="round" stroke="rgb(0,0,255)" stroke-width="1.874998" fill="none" d="M 0.000000 750.000000 L 133.333328 0.000000 " />
<path stroke-linejoin="round" stroke-linecap="round" stroke="rgb(255,0,0)" stroke-width="3.749996" fill="none" d="M 86.956497 260.869629 L 89.552231 268.656769 " />
<path stroke-linejoin="round" stroke-linecap="round" stroke="rgb(0,0,255)" stroke-width="1.874998" fill="none" d="M 0.000000 750.000000 L 127.659561 0.000000 " />
<path stroke-linejoin="round" stroke-linecap="round" stroke="rgb(255,0,0)" stroke-width="3.749996" fill="none" d="M 84.507042 253.521194 L 86.956497 260.869629 " />
<path stroke-linejoin="round" stroke-linecap="round" stroke="rgb(0,0,255)" stroke-width="1.874998" fill="none" d="M 0.000000 750.000000 L 109.374985 0.000000 " />
<path stroke-linejoin="round" stroke-linecap="round" stroke="rgb(255,0,0)" stroke-width="3.749996" fill="none" d="M 76.086937 228.260956 L 84.507042 253.521194 " />
<path stroke-linejoin="round" stroke-linecap="round" stroke="rgb(0,0,255)" stroke-width="1.874998" fill="none" d="M 0.000000 750.000000 L 91.836739 0.000000 " />
<path stroke-linejoin="round" stroke-linecap="round" stroke="rgb(255,0,0)" stroke-width="3.749996" fill="none" d="M 67.164169 201.492630 L 76.086937 228.260986 " />
<path stroke-linejoin="round" stroke-linecap="round" stroke="rgb(0,0,255)" stroke-width="1.874998" fill="none" d="M 0.000000 750.000000 L 88.235291 0.000000 " />
<path stroke-linejoin="round" stroke-linecap="round" stroke="rgb(255,0,0)" stroke-width="3.749996" fill="none" d="M 65.217377 195.652313 L 67.164169 201.492630 " />
<path stroke-linejoin="round" stroke-linecap="round" stroke="rgb(0,0,255)" stroke-width="1.874998" fill="none" d="M 0.000000 750.000000 L 84.905663 0.000000 " />
<path stroke-linejoin="round" stroke-linecap="round" stroke="rgb(255,0,0)" stroke-width="3.749996" fill="none" d="M 63.380264 190.140991 L 65.217377 195.652313 " />
<path stroke-linejoin="round" stroke-linecap="round" stroke="rgb(0,0,255)" stroke-width="1.874998" fill="none" d="M 0.000000 750.000000 L 72.115395 0.000000 " />
<path stroke-linejoin="round" stroke-linecap="round" stroke="rgb(255,0,0)" stroke-width="3.749996" fill="none" d="M 55.970146 167.910538 L 63.380264 190.140991 " />
<path stroke-linejoin="round" stroke-linecap="round" stroke="rgb(0,0,255)" stroke-width="1.874998" fill="none" d="M 0.000000 750.000000 L 56.603775 0.000000 " />
<path stroke-linejoin="round" stroke-linecap="round" stroke="rgb(255,0,0)" stroke-width="3.749996" fill="none" d="M 46.153843 138.461624 L 55.970146 167.910538 " />
<path stroke-linejoin="round" stroke-linecap="round" stroke="rgb(0,0,255)" stroke-width="1.874998" fill="none" d="M 0.000000 750.000000 L 54.545448 0.000000 " />
<path stroke-linejoin="round" stroke-linecap="round" stroke="rgb(255,0,0)" stroke-width="3.749996" fill="none" d="M 44.776127 134.328430 L 46.153843 138.461624 " />
<path stroke-linejoin="round" stroke-linecap="round" stroke="rgb(0,0,255)" stroke-width="1.874998" fill="none" d="M 0.000000 750.000000 L 52.631580 0.000000 " />
<path stroke-linejoin="round" stroke-linecap="round" stroke="rgb(255,0,0)" stroke-width="3.749996" fill="none" d="M 43.478249 130.434845 L 44.776127 134.328430 " />
<path stroke-linejoin="round" stroke-linecap="round" stroke="rgb(0,0,255)" stroke-width="1.874998" fill="none" d="M 0.000000 750.000000 L 50.847462 0.000000 " />
<path stroke-linejoin="round" stroke-linecap="round" stroke="rgb(255,0,0)" stroke-width="3.749996" fill="none" d="M 42.253510 126.760620 L 43.478249 130.434845 " />
<path stroke-linejoin="round" stroke-linecap="round" stroke="rgb(0,0,255)" stroke-width="1.874998" fill="none" d="M 0.000000 750.000000 L 49.180313 0.000000 " />
<path stroke-linejoin="round" stroke-linecap="round" stroke="rgb(255,0,0)" stroke-width="3.749996" fill="none" d="M 41.095890 123.287735 L 42.253510 126.760620 " />
<path stroke-linejoin="round" stroke-linecap="round" stroke="rgb(0,0,255)" stroke-width="1.874998" fill="none" d="M 0.000000 750.000000 L 47.619045 0.000000 " />
<path stroke-linejoin="round" stroke-linecap="round" stroke="rgb(255,0,0)" stroke-width="3.749996" fill="none" d="M 40.000008 120.000061 L 41.095890 123.287735 " />
<path stroke-linejoin="round" stroke-linecap="round" stroke="rgb(0,0,255)" stroke-width="1.874998" fill="none" d="M 0.000000 750.000000 L 46.153843 0.000000 " />
<path stroke-linejoin="round" stroke-linecap="round" stroke="rgb(255,0,0)" stroke-width="3.749996" fill="none" d="M 38.961029 116.883156 L 40.000008 120.000061 " />
<path stroke-linejoin="round" stroke-linecap="round" stroke="rgb(0,0,255)" stroke-width="1.874998" fill="none" d="M 0.000000 750.000000 L 37.500008 0.000000 " />
<path stroke-linejoin="round" stroke-linecap="round" stroke="rgb(255,0,0)" stroke-width="3.749996" fill="none" d="M 32.608688 97.826157 L 38.961029 116.883156 " />
<path stroke-linejoin="round" stroke-linecap="round" stroke="rgb(0,0,255)" stroke-width="1.874998" fill="none" d="M 0.000000 750.000000 L 24.590157 0.000000 " />
<path stroke-linejoin="round" stroke-linecap="round" stroke="rgb(255,0,0)" stroke-width="3.749996" fill="none" d="M 22.388063 67.164261 L 32.608688 97.826157 " />
<path stroke-linejoin="round" stroke-linecap="round" stroke="rgb(0,0,255)" stroke-width="1.874998" fill="none" d="M 0.000000 750.000000 L 12.096763 0.000000 " />
<path stroke-linejoin="round" stroke-linecap="round" stroke="rgb(255,0,0)" stroke-width="3.749996" fill="none" d="M 11.538461 34.615471 L 22.388063 67.164261 " />
<path stroke-linejoin="round" stroke-linecap="round" stroke="rgb(0,0,255)" stroke-width="1.874998" fill="none" d="M 0.000000 750.000000 L 0.000000 0.000000 " />
<path stroke-linejoin="round" stroke-linecap="round" stroke="rgb(255,0,0)" stroke-width="3.749996" fill="none" d="M 0.000000 0.000000 L 11.538461 34.615471 " />
<circle cx="371.133998" cy="738.402061" r="3.750000" style="fill:rgb(0,127,0);stroke-width:1" /><circle cx="359.536059" cy="726.804122" r="3.750000" style="fill:rgb(0,127,0);stroke-width:1" /><circle cx="347.938120" cy="715.206183" r="3.749999" style="fill:rgb(0,127,0);stroke-width:1" /><circle cx="338.991143" cy="706.259206" r="3.749999" style="fill:rgb(0,127,0);stroke-width:1" /><circle cx="328.055933" cy="695.324019" r="3.750001" style="fill:rgb(0,127,0);stroke-width:1" /><circle cx="320.667274" cy="687.935360" r="3.750002" style="fill:rgb(0,127,0);stroke-width:1" /><circle cx="317.120746" cy="684.388809" r="3.750002" style="fill:rgb(0,127,0);stroke-width:1" /><circle cx="310.323179" cy="677.591264" r="3.750002" style="fill:rgb(0,127,0);stroke-width:1" /><circle cx="280.945905" cy="589.459464" r="3.749999" style="fill:rgb(0,127,0);stroke-width:1" /><circle cx="279.966988" cy="588.480592" r="3.749999" style="fill:rgb(0,127,0);stroke-width:1" /><circle cx="271.683946" cy="580.197528" r="3.749996" style="fill:rgb(0,127,0);stroke-width:1" /><circle cx="269.199036" cy="577.712618" r="3.749996" style="fill:rgb(0,127,0);stroke-width:1" /><circle cx="260.363773" cy="568.877377" r="3.749996" style="fill:rgb(0,127,0);stroke-width:1" /><circle cx="249.043621" cy="557.557203" r="3.749996" style="fill:rgb(0,127,0);stroke-width:1" /><circle cx="237.723447" cy="546.237051" r="3.749996" style="fill:rgb(0,127,0);stroke-width:1" /><circle cx="226.403274" cy="534.916900" r="3.749996" style="fill:rgb(0,127,0);stroke-width:1" /><circle cx="215.083100" cy="523.596726" r="3.749996" style="fill:rgb(0,127,0);stroke-width:1" /><circle cx="203.762949" cy="512.276575" r="3.749996" style="fill:rgb(0,127,0);stroke-width:1" /><circle cx="192.442775" cy="500.956401" r="3.749996" style="fill:rgb(0,127,0);stroke-width:1" /><circle cx="183.055334" cy="491.568938" r="3.749996" style="fill:rgb(0,127,0);stroke-width:1" /><circle cx="174.541131" cy="483.054735" r="3.749996" style="fill:rgb(0,127,0);stroke-width:1" /><circle cx="164.273992" cy="472.787619" r="3.749996" style="fill:rgb(0,127,0);stroke-width:1" /><circle cx="154.109582" cy="462.328769" r="3.749996" style="fill:rgb(0,127,0);stroke-width:1" /><circle cx="147.887327" cy="443.661980" r="3.749996" style="fill:rgb(0,127,0);stroke-width:1" /><circle cx="143.835604" cy="431.506902" r="3.749996" style="fill:rgb(0,127,0);stroke-width:1" /><circle cx="141.304314" cy="423.913099" r="3.749996" style="fill:rgb(0,127,0);stroke-width:1" /><circle cx="137.323916" cy="411.971882" r="3.749996" style="fill:rgb(0,127,0);stroke-width:1" /><circle cx="134.328336" cy="402.985141" r="3.749996" style="fill:rgb(0,127,0);stroke-width:1" /><circle cx="126.923047" cy="380.769297" r="3.749996" style="fill:rgb(0,127,0);stroke-width:1" /><circle cx="123.134315" cy="369.403079" r="3.749996" style="fill:rgb(0,127,0);stroke-width:1" /><circle cx="119.565189" cy="358.695701" r="3.749996" style="fill:rgb(0,127,0);stroke-width:1" /><circle cx="111.940295" cy="335.820928" r="3.749996" style="fill:rgb(0,127,0);stroke-width:1" /><circle cx="108.695626" cy="326.087013" r="3.749996" style="fill:rgb(0,127,0);stroke-width:1" /><circle cx="105.633795" cy="316.901430" r="3.749996" style="fill:rgb(0,127,0);stroke-width:1" /><circle cx="102.739714" cy="308.219209" r="3.749996" style="fill:rgb(0,127,0);stroke-width:1" /><circle cx="97.826064" cy="293.478325" r="3.749996" style="fill:rgb(0,127,0);stroke-width:1" /><circle cx="89.552231" cy="268.656760" r="3.749996" style="fill:rgb(0,127,0);stroke-width:1" /><circle cx="86.956501" cy="260.869637" r="3.749996" style="fill:rgb(0,127,0);stroke-width:1" /><circle cx="84.507041" cy="253.521189" r="3.749996" style="fill:rgb(0,127,0);stroke-width:1" /><circle cx="76.086938" cy="228.260949" r="3.749996" style="fill:rgb(0,127,0);stroke-width:1" /><circle cx="67.164168" cy="201.492637" r="3.749996" style="fill:rgb(0,127,0);stroke-width:1" /><circle cx="65.217376" cy="195.652306" r="3.749996" style="fill:rgb(0,127,0);stroke-width:1" /><circle cx="63.380264" cy="190.140992" r="3.749996" style="fill:rgb(0,127,0);stroke-width:1" /><circle cx="55.970147" cy="167.910531" r="3.749996" style="fill:rgb(0,127,0);stroke-width:1" /><circle cx="46.153843" cy="138.461620" r="3.749996" style="fill:rgb(0,127,0);stroke-width:1" /><circle cx="44.776127" cy="134.328425" r="3.749996" style="fill:rgb(0,127,0);stroke-width:1" /><circle cx="43.478251" cy="130.434841" r="3.749996" style="fill:rgb(0,127,0);stroke-width:1" /><circle cx="42.253509" cy="126.760617" r="3.749996" style="fill:rgb(0,127,0);stroke-width:1" /><circle cx="41.095890" cy="123.287737" r="3.749996" style="fill:rgb(0,127,0);stroke-width:1" /><circle cx="40.000007" cy="120.000064" r="3.749996" style="fill:rgb(0,127,0);stroke-width:1" /><circle cx="38.961031" cy="116.883159" r="3.749996" style="fill:rgb(0,127,0);stroke-width:1" /><circle cx="32.608688" cy="97.826153" r="3.749996" style="fill:rgb(0,127,0);stroke-width:1" /><circle cx="22.388063" cy="67.164257" r="3.749996" style="fill:rgb(0,127,0);stroke-width:1" /><circle cx="11.538461" cy="34.615472" r="3.749996" style="fill:rgb(0,127,0);stroke-width:1" /><circle cx="750.000000" cy="750.000000" r="3.749996" style="fill:rgb(0,127,0);stroke-width:1" /><path stroke-linejoin="round" stroke-linecap="round" stroke="rgb(255,255,255)" stroke-width="3.749996" fill="none" d="M 0.000000 750.000000 L 750.000000 750.000000 M 0.000000 750.000000 L 0.000000 0.000000 " />

</svg>