<svg xmlns="http://www.w3.org/2000/svg" version="1.1" width = "750" height = "750" viewBox = "0 0 750 750"  shape-rendering="crispEdges">
<path stroke-linejoin="round" stroke-linecap="round" stroke="rgb(255,255,0)" stroke-width="3.749996" fill="none" d="M 375.000000 750.000000 L 0.000000 0.000000 " />
<path stroke-linejoin="round" stroke-linecap="round" stroke="rgb(63,63,63)" stroke-width="3.749996" fill="none" d="M 0.000000 0.000000 L 750.000000 750.000000 M 375.000000 750.000000 L 124.999992 0.000000 " />
<path stroke-linejoin="round" stroke-linecap="round" stroke="rgb(191,191,191)" stroke-width="3.749996" fill="none" d="M 0.000000 375.000000 L 375.000000 750.000000 M 0.000000 0.000000 L 250.000000 750.000000 " />
<path stroke-linejoin="round" stroke-linecap="round" stroke="rgb(0,0,255)" stroke-width="1.874998" fill="none" d="M 0.000000 750.000000 L 750.000000 731.250000 " />
<path stroke-linejoin="round" stroke-linecap="round" stroke="rgb(255,0,0)" stroke-width="3.749996" fill="none" d="M 371.900787 740.702454 L 375.000000 750.000000 " />
<path stroke-linejoin="round" stroke-linecap="round" stroke="rgb(0,0,255)" stroke-width="1.874998" fill="none" d="M 0.000000 750.000000 L 750.000000 711.538452 " />
<path stroke-linejoin="round" stroke-linecap="round" stroke="rgb(255,0,0)" stroke-width="3.749996" fill="none" d="M 365.599945 731.251282 L 371.900757 740.702454 " />
<path stroke-linejoin="round" stroke-linecap="round" stroke="rgb(0,0,255)" stroke-width="1.874998" fill="none" d="M 0.000000 750.000000 L 750.000000 693.750000 " />
<path stroke-linejoin="round" stroke-linecap="round" stroke="rgb(255,0,0)" stroke-width="3.749996" fill="none" d="M 360.094330 722.992920 L 365.599915 731.251282 " />
<path stroke-linejoin="round" stroke-linecap="round" stroke="rgb(0,0,255)" stroke-width="1.874998" fill="none" d="M 0.000000 750.000000 L 750.000000 676.829224 " />
<path stroke-linejoin="round" stroke-linecap="round" stroke="rgb(255,0,0)" stroke-width="3.749996" fill="none" d="M 355.009064 715.364990 L 360.094330 722.992920 " />
<path stroke-linejoin="round" stroke-linecap="round" stroke="rgb(0,0,255)" stroke-width="1.874998" fill="none" d="M 0.000000 750.000000 L 750.000000 673.076904 " />
<path stroke-linejoin="round" stroke-linecap="round" stroke="rgb(255,0,0)" stroke-width="3.749996" fill="none" d="M 353.900726 713.702454 L 355.009064 715.364990 " />
<path stroke-linejoin="round" stroke-linecap="round" stroke="rgb(0,0,255)" stroke-width="1.874998" fill="none" d="M 0.000000 750.000000 L 750.000000 651.315796 " />
<path stroke-linejoin="round" stroke-linecap="round" stroke="rgb(255,0,0)" stroke-width="3.749996" fill="none" d="M 347.607208 704.262207 L 353.900726 713.702454 " />
<path stroke-linejoin="round" stroke-linecap="round" stroke="rgb(0,0,255)" stroke-width="1.874998" fill="none" d="M 0.000000 750.000000 L 750.000000 634.615417 " />
<path stroke-linejoin="round" stroke-linecap="round" stroke="rgb(255,0,0)" stroke-width="3.749996" fill="none" d="M 342.927094 697.242004 L 347.607208 704.262207 " />
<path stroke-linejoin="round" stroke-linecap="round" stroke="rgb(0,0,255)" stroke-width="1.874998" fill="none" d="M 0.000000 750.000000 L 750.000000 628.378357 " />
<path stroke-linejoin="round" stroke-linecap="round" stroke="rgb(255,0,0)" stroke-width="3.749996" fill="none" d="M 341.211334 694.668457 L 342.927094 697.242004 " />
<path stroke-linejoin="round" stroke-linecap="round" stroke="rgb(0,0,255)" stroke-width="1.874998" fill="none" d="M 0.000000 750.000000 L 750.000000 604.166687 " />
<path stroke-linejoin="round" stroke-linecap="round" stroke="rgb(255,0,0)" stroke-width="3.749996" fill="none" d="M 334.710663 684.917358 L 341.211334 694.668457 " />
<path stroke-linejoin="round" stroke-linecap="round" stroke="rgb(0,0,255)" stroke-width="1.874998" fill="none" d="M 0.000000 750.000000 L 750.000000 385.714264 " />
<path stroke-linejoin="round" stroke-linecap="round" stroke="rgb(255,0,0)" stroke-width="3.749996" fill="none" d="M 302.058167 603.286011 L 334.710693 684.917358 " />
<path stroke-linejoin="round" stroke-linecap="round" stroke="rgb(0,0,255)" stroke-width="1.874998" fill="none" d="M 0.000000 750.000000 L 750.000000 318.181824 " />
<path stroke-linejoin="round" stroke-linecap="round" stroke="rgb(255,0,0)" stroke-width="3.749996" fill="none" d="M 293.215393 581.179016 L 302.058197 603.286011 " />
<path stroke-linejoin="round" stroke-linecap="round" stroke="rgb(0,0,255)" stroke-width="1.874998" fill="none" d="M 0.000000 750.000000 L 750.000000 284.482788 " />
<path stroke-linejoin="round" stroke-linecap="round" stroke="rgb(255,0,0)" stroke-width="3.749996" fill="none" d="M 287.002869 571.860291 L 293.215393 581.179016 " />
<path stroke-linejoin="round" stroke-linecap="round" stroke="rgb(0,0,255)" stroke-width="1.874998" fill="none" d="M 0.000000 750.000000 L 750.000000 241.071442 " />
<path stroke-linejoin="round" stroke-linecap="round" stroke="rgb(255,0,0)" stroke-width="3.749996" fill="none" d="M 279.377594 560.422363 L 287.002869 571.860291 " />
<path stroke-linejoin="round" stroke-linecap="round" stroke="rgb(0,0,255)" stroke-width="1.874998" fill="none" d="M 0.000000 750.000000 L 750.000000 194.444458 " />
<path stroke-linejoin="round" stroke-linecap="round" stroke="rgb(255,0,0)" stroke-width="3.749996" fill="none" d="M 271.626282 548.795349 L 279.377594 560.422363 " />
<path stroke-linejoin="round" stroke-linecap="round" stroke="rgb(0,0,255)" stroke-width="1.874998" fill="none" d="M 0.000000 750.000000 L 750.000000 187.500000 " />
<path stroke-linejoin="round" stroke-linecap="round" stroke="rgb(255,0,0)" stroke-width="3.749996" fill="none" d="M 270.508453 547.118652 L 271.626282 548.795349 " />
<path stroke-linejoin="round" stroke-linecap="round" stroke="rgb(0,0,255)" stroke-width="1.874998" fill="none" d="M 0.000000 750.000000 L 750.000000 138.888901 " />
<path stroke-linejoin="round" stroke-linecap="round" stroke="rgb(255,0,0)" stroke-width="3.749996" fill="none" d="M 262.934235 535.757324 L 270.508453 547.118652 " />
<path stroke-linejoin="round" stroke-linecap="round" stroke="rgb(0,0,255)" stroke-width="1.874998" fill="none" d="M 0.000000 750.000000 L 750.000000 86.538475 " />
<path stroke-linejoin="round" stroke-linecap="round" stroke="rgb(255,0,0)" stroke-width="3.749996" fill="none" d="M 255.237823 524.212708 L 262.934235 535.757324 " />
<path stroke-linejoin="round" stroke-linecap="round" stroke="rgb(0,0,255)" stroke-width="1.874998" fill="none" d="M 0.000000 750.000000 L 750.000000 30.000015 " />
<path stroke-linejoin="round" stroke-linecap="round" stroke="rgb(255,0,0)" stroke-width="3.749996" fill="none" d="M 247.416275 512.480408 L 255.237823 524.212708 " />
<path stroke-linejoin="round" stroke-linecap="round" stroke="rgb(0,0,255)" stroke-width="1.874998" fill="none" d="M 0.000000 750.000000 L 720.000000 0.000000 " />
<path stroke-linejoin="round" stroke-linecap="round" stroke="rgb(255,0,0)" stroke-width="3.749996" fill="none" d="M 239.466522 500.555725 L 247.416275 512.480408 " />
<path stroke-linejoin="round" stroke-linecap="round" stroke="rgb(0,0,255)" stroke-width="1.874998" fill="none" d="M 0.000000 750.000000 L 663.461548 0.000000 " />
<path stroke-linejoin="round" stroke-linecap="round" stroke="rgb(255,0,0)" stroke-width="3.749996" fill="none" d="M 231.385361 488.433929 L 239.466553 500.555664 " />
<path stroke-linejoin="round" stroke-linecap="round" stroke="rgb(0,0,255)" stroke-width="1.874998" fill="none" d="M 0.000000 750.000000 L 616.071472 0.000000 " />
<path stroke-linejoin="round" stroke-linecap="round" stroke="rgb(255,0,0)" stroke-width="3.749996" fill="none" d="M 223.981033 477.327423 L 231.385361 488.433929 " />
<path stroke-linejoin="round" stroke-linecap="round" stroke="rgb(0,0,255)" stroke-width="1.874998" fill="none" d="M 0.000000 750.000000 L 568.965515 0.000000 " />
<path stroke-linejoin="round" stroke-linecap="round" stroke="rgb(255,0,0)" stroke-width="3.749996" fill="none" d="M 215.970459 465.311676 L 223.981033 477.327423 " />
<path stroke-linejoin="round" stroke-linecap="round" stroke="rgb(0,0,255)" stroke-width="1.874998" fill="none" d="M 0.000000 750.000000 L 525.000000 0.000000 " />
<path stroke-linejoin="round" stroke-linecap="round" stroke="rgb(255,0,0)" stroke-width="3.749996" fill="none" d="M 207.829666 453.100464 L 215.970459 465.311676 " />
<path stroke-linejoin="round" stroke-linecap="round" stroke="rgb(0,0,255)" stroke-width="1.874998" fill="none" d="M 0.000000 750.000000 L 492.187500 0.000000 " />
<path stroke-linejoin="round" stroke-linecap="round" stroke="rgb(255,0,0)" stroke-width="3.749996" fill="none" d="M 201.283875 443.281708 L 207.829666 453.100464 " />
<path stroke-linejoin="round" stroke-linecap="round" stroke="rgb(0,0,255)" stroke-width="1.874998" fill="none" d="M 0.000000 750.000000 L 454.545471 0.000000 " />
<path stroke-linejoin="round" stroke-linecap="round" stroke="rgb(255,0,0)" stroke-width="3.749996" fill="none" d="M 193.220352 431.186432 L 201.283875 443.281708 " />
<path stroke-linejoin="round" stroke-linecap="round" stroke="rgb(0,0,255)" stroke-width="1.874998" fill="none" d="M 0.000000 750.000000 L 419.117645 0.000000 " />
<path stroke-linejoin="round" stroke-linecap="round" stroke="rgb(255,0,0)" stroke-width="3.749996" fill="none" d="M 185.027802 418.897614 L 193.220352 431.186432 " />
<path stroke-linejoin="round" stroke-linecap="round" stroke="rgb(0,0,255)" stroke-width="1.874998" fill="none" d="M 0.000000 750.000000 L 395.833344 0.000000 " />
<path stroke-linejoin="round" stroke-linecap="round" stroke="rgb(255,0,0)" stroke-width="3.749996" fill="none" d="M 179.290512 410.291656 L 185.027802 418.897614 " />
<path stroke-linejoin="round" stroke-linecap="round" stroke="rgb(0,0,255)" stroke-width="1.874998" fill="none" d="M 0.000000 750.000000 L 385.714294 0.000000 " />
<path stroke-linejoin="round" stroke-linecap="round" stroke="rgb(255,0,0)" stroke-width="3.749996" fill="none" d="M 176.703125 406.410583 L 179.290512 410.291656 " />
<path stroke-linejoin="round" stroke-linecap="round" stroke="rgb(0,0,255)" stroke-width="1.874998" fill="none" d="M 0.000000 750.000000 L 354.166656 0.000000 " />
<path stroke-linejoin="round" stroke-linecap="round" stroke="rgb(255,0,0)" stroke-width="3.749996" fill="none" d="M 168.243088 393.720520 L 176.703125 406.410583 " />
<path stroke-linejoin="round" stroke-linecap="round" stroke="rgb(0,0,255)" stroke-width="1.874998" fill="none" d="M 0.000000 750.000000 L 342.857147 0.000000 " />
<path stroke-linejoin="round" stroke-linecap="round" stroke="rgb(255,0,0)" stroke-width="3.749996" fill="none" d="M 165.056030 388.939941 L 168.243088 393.720520 " />
<path stroke-linejoin="round" stroke-linecap="round" stroke="rgb(0,0,255)" stroke-width="1.874998" fill="none" d="M 0.000000 750.000000 L 312.500000 0.000000 " />
<path stroke-linejoin="round" stroke-linecap="round" stroke="rgb(255,0,0)" stroke-width="3.749996" fill="none" d="M 156.062592 375.449799 L 165.056030 388.939941 " />
<path stroke-linejoin="round" stroke-linecap="round" stroke="rgb(0,0,255)" stroke-width="1.874998" fill="none" d="M 0.000000 750.000000 L 296.052643 0.000000 " />
<path stroke-linejoin="round" stroke-linecap="round" stroke="rgb(255,0,0)" stroke-width="3.749996" fill="none" d="M 150.903488 367.711151 L 156.062592 375.449799 " />
<path stroke-linejoin="round" stroke-linecap="round" stroke="rgb(0,0,255)" stroke-width="1.874998" fill="none" d="M 0.000000 750.000000 L 281.250000 0.000000 " />
<path stroke-linejoin="round" stroke-linecap="round" stroke="rgb(255,0,0)" stroke-width="3.749996" fill="none" d="M 146.074585 360.467804 L 150.903488 367.711151 " />
<path stroke-linejoin="round" stroke-linecap="round" stroke="rgb(0,0,255)" stroke-width="1.874998" fill="none" d="M 0.000000 750.000000 L 256.097565 0.000000 " />
<path stroke-linejoin="round" stroke-linecap="round" stroke="rgb(255,0,0)" stroke-width="3.749996" fill="none" d="M 137.435760 347.509583 L 146.074585 360.467804 " />
<path stroke-linejoin="round" stroke-linecap="round" stroke="rgb(0,0,255)" stroke-width="1.874998" fill="none" d="M 0.000000 750.000000 L 244.186050 0.000000 " />
<path stroke-linejoin="round" stroke-linecap="round" stroke="rgb(255,0,0)" stroke-width="3.749996" fill="none" d="M 133.140884 341.067291 L 137.435745 347.509583 " />
<path stroke-linejoin="round" stroke-linecap="round" stroke="rgb(0,0,255)" stroke-width="1.874998" fill="none" d="M 0.000000 750.000000 L 232.142868 0.000000 " />
<path stroke-linejoin="round" stroke-linecap="round" stroke="rgb(255,0,0)" stroke-width="3.749996" fill="none" d="M 128.656464 334.340668 L 133.140884 341.067291 " />
<path stroke-linejoin="round" stroke-linecap="round" stroke="rgb(0,0,255)" stroke-width="1.874998" fill="none" d="M 0.000000 750.000000 L 221.590897 0.000000 " />
<path stroke-linejoin="round" stroke-linecap="round" stroke="rgb(255,0,0)" stroke-width="3.749996" fill="none" d="M 124.604301 328.262421 L 128.656464 334.340668 " />
<path stroke-linejoin="round" stroke-linecap="round" stroke="rgb(0,0,255)" stroke-width="1.874998" fill="none" d="M 0.000000 750.000000 L 200.000015 0.000000 " />
<path stroke-linejoin="round" stroke-linecap="round" stroke="rgb(255,0,0)" stroke-width="3.749996" fill="none" d="M 115.932205 315.254242 L 124.604301 328.262421 " />
<path stroke-linejoin="round" stroke-linecap="round" stroke="rgb(0,0,255)" stroke-width="1.874998" fill="none" d="M 0.000000 750.000000 L 179.347824 0.000000 " />
<path stroke-linejoin="round" stroke-linecap="round" stroke="rgb(255,0,0)" stroke-width="3.749996" fill="none" d="M 107.121346 302.038025 L 115.932205 315.254242 " />
<path stroke-linejoin="round" stroke-linecap="round" stroke="rgb(0,0,255)" stroke-width="1.874998" fill="none" d="M 0.000000 750.000000 L 171.875000 0.000000 " />
<path stroke-linejoin="round" stroke-linecap="round" stroke="rgb(255,0,0)" stroke-width="3.749996" fill="none" d="M 103.799744 297.055573 L 107.121346 302.038025 " />
<path stroke-linejoin="round" stroke-linecap="round" stroke="rgb(0,0,255)" stroke-width="1.874998" fill="none" d="M 0.000000 750.000000 L 159.574478 0.000000 " />
<path stroke-linejoin="round" stroke-linecap="round" stroke="rgb(255,0,0)" stroke-width="3.749996" fill="none" d="M 98.168404 288.608582 L 103.799744 297.055573 " />
<path stroke-linejoin="round" stroke-linecap="round" stroke="rgb(0,0,255)" stroke-width="1.874998" fill="none" d="M 0.000000 750.000000 L 140.625000 0.000000 " />
<path stroke-linejoin="round" stroke-linecap="round" stroke="rgb(255,0,0)" stroke-width="3.749996" fill="none" d="M 90.189186 268.990997 L 98.168404 288.608582 " />
<path stroke-linejoin="round" stroke-linecap="round" stroke="rgb(0,0,255)" stroke-width="1.874998" fill="none" d="M 0.000000 750.000000 L 135.000000 0.000000 " />
<path stroke-linejoin="round" stroke-linecap="round" stroke="rgb(255,0,0)" stroke-width="3.749996" fill="none" d="M 87.711075 262.716309 L 90.189186 268.990997 " />
<path stroke-linejoin="round" stroke-linecap="round" stroke="rgb(0,0,255)" stroke-width="1.874998" fill="none" d="M 0.000000 750.000000 L 129.807693 0.000000 " />
<path stroke-linejoin="round" stroke-linecap="round" stroke="rgb(255,0,0)" stroke-width="3.749996" fill="none" d="M 85.455093 256.259399 L 87.711075 262.716309 " />
<path stroke-linejoin="round" stroke-linecap="round" stroke="rgb(0,0,255)" stroke-width="1.874998" fill="none" d="M 0.000000 750.000000 L 113.207550 0.000000 " />
<path stroke-linejoin="round" stroke-linecap="round" stroke="rgb(255,0,0)" stroke-width="3.749996" fill="none" d="M 77.924835 233.747986 L 85.455093 256.259399 " />
<path stroke-linejoin="round" stroke-linecap="round" stroke="rgb(0,0,255)" stroke-width="1.874998" fill="none" d="M 0.000000 750.000000 L 104.999992 0.000000 " />
<path stroke-linejoin="round" stroke-linecap="round" stroke="rgb(255,0,0)" stroke-width="3.749996" fill="none" d="M 73.944321 221.826324 L 77.924835 233.747986 " />
<path stroke-linejoin="round" stroke-linecap="round" stroke="rgb(0,0,255)" stroke-width="1.874998" fill="none" d="M 0.000000 750.000000 L 88.235291 0.000000 " />
<path stroke-linejoin="round" stroke-linecap="round" stroke="rgb(255,0,0)" stroke-width="3.749996" fill="none" d="M 65.217529 195.650925 L 73.944321 221.826324 " />
<path stroke-linejoin="round" stroke-linecap="round" stroke="rgb(0,0,255)" stroke-width="1.874998" fill="none" d="M 0.000000 750.000000 L 72.115395 0.000000 " />
<path stroke-linejoin="round" stroke-linecap="round" stroke="rgb(255,0,0)" stroke-width="3.749996" fill="none" d="M 55.970192 167.910126 L 65.217529 195.650925 " />
<path stroke-linejoin="round" stroke-linecap="round" stroke="rgb(0,0,255)" stroke-width="1.874998" fill="none" d="M 0.000000 750.000000 L 56.603775 0.000000 " />
<path stroke-linejoin="round" stroke-linecap="round" stroke="rgb(255,0,0)" stroke-width="3.749996" fill="none" d="M 46.153843 138.461487 L 55.970192 167.910126 " />
<path stroke-linejoin="round" stroke-linecap="round" stroke="rgb(0,0,255)" stroke-width="1.874998" fill="none" d="M 0.000000 750.000000 L 54.545448 0.000000 " />
<path stroke-linejoin="round" stroke-linecap="round" stroke="rgb(255,0,0)" stroke-width="3.749996" fill="none" d="M 44.776127 134.328384 L 46.153843 138.461487 " />
<path stroke-linejoin="round" stroke-linecap="round" stroke="rgb(0,0,255)" stroke-width="1.874998" fill="none" d="M 0.000000 750.000000 L 50.847462 0.000000 " />
<path stroke-linejoin="round" stroke-linecap="round" stroke="rgb(255,0,0)" stroke-width="3.749996" fill="none" d="M 42.253510 126.760620 L 44.776127 134.328430 " />
<path stroke-linejoin="round" stroke-linecap="round" stroke="rgb(0,0,255)" stroke-width="1.874998" fill="none" d="M 0.000000 750.000000 L 49.180313 0.000000 " />
<path stroke-linejoin="round" stroke-linecap="round" stroke="rgb(255,0,0)" stroke-width="3.749996" fill="none" d="M 41.095890 123.287735 L 42.253510 126.760620 " />
<path stroke-linejoin="round" stroke-linecap="round" stroke="rgb(0,0,255)" stroke-width="1.874998" fill="none" d="M 0.000000 750.000000 L 47.619045 0.000000 " />
<path stroke-linejoin="round" stroke-linecap="round" stroke="rgb(255,0,0)" stroke-width="3.749996" fill="none" d="M 40.000008 120.000061 L 41.095890 123.287735 " />
<path stroke-linejoin="round" stroke-linecap="round" stroke="rgb(0,0,255)" stroke-width="1.874998" fill="none" d="M 0.000000 750.000000 L 36.290333 0.000000 " />
<path stroke-linejoin="round" stroke-linecap="round" stroke="rgb(255,0,0)" stroke-width="3.749996" fill="none" d="M 31.690144 95.070450 L 40.000008 120.000061 " />
<path stroke-linejoin="round" stroke-linecap="round" stroke="rgb(0,0,255)" stroke-width="1.874998" fill="none" d="M 0.000000 750.000000 L 23.809523 0.000000 " />
<path stroke-linejoin="round" stroke-linecap="round" stroke="rgb(255,0,0)" stroke-width="3.749996" fill="none" d="M 21.739124 65.217468 L 31.690144 95.070450 " />
<path stroke-linejoin="round" stroke-linecap="round" stroke="rgb(0,0,255)" stroke-width="1.874998" fill="none" d="M 0.000000 750.000000 L 11.718750 0.000000 " />
<path stroke-linejoin="round" stroke-linecap="round" stroke="rgb(255,0,0)" stroke-width="3.749996" fill="none" d="M 11.194020 33.582150 L 21.739124 65.217468 " />
<path stroke-linejoin="round" stroke-linecap="round" stroke="rgb(0,0,255)" stroke-width="1.874998" fill="none" d="M 0.000000 750.000000 L 0.000000 0.000000 " />
<path stroke-linejoin="round" stroke-linecap="round" stroke="rgb(255,0,0)" stroke-width="3.749996" fill="none" d="M 0.000000 0.000000 L 11.194020 33.582150 " />
<circle cx="371.900775" cy="740.702480" r="3.750000" style="fill:rgb(0,127,0);stroke-width:1" /><circle cx="365.599953" cy="731.251292" r="3.750000" style="fill:rgb(0,127,0);stroke-width:1" /><circle cx="360.094339" cy="722.992927" r="3.750000" style="fill:rgb(0,127,0);stroke-width:1" /><circle cx="355.009049" cy="715.364970" r="3.749999" style="fill:rgb(0,127,0);stroke-width:1" /><circle cx="353.900716" cy="713.702492" r="3.749999" style="fill:rgb(0,127,0);stroke-width:1" /><circle cx="347.607203" cy="704.262212" r="3.749999" style="fill:rgb(0,127,0);stroke-width:1" /><circle cx="342.927083" cy="697.241977" r="3.749999" style="fill:rgb(0,127,0);stroke-width:1" /><circle cx="341.211341" cy="694.668442" r="3.749999" style="fill:rgb(0,127,0);stroke-width:1" /><circle cx="334.710672" cy="684.917361" r="3.749999" style="fill:rgb(0,127,0);stroke-width:1" /><circle cx="302.058175" cy="603.286028" r="3.750002" style="fill:rgb(0,127,0);stroke-width:1" /><circle cx="293.215379" cy="581.179038" r="3.750002" style="fill:rgb(0,127,0);stroke-width:1" /><circle cx="287.002869" cy="571.860284" r="3.750002" style="fill:rgb(0,127,0);stroke-width:1" /><circle cx="279.377595" cy="560.422361" r="3.749999" style="fill:rgb(0,127,0);stroke-width:1" /><circle cx="271.626279" cy="548.795365" r="3.749996" style="fill:rgb(0,127,0);stroke-width:1" /><circle cx="270.508468" cy="547.118649" r="3.749996" style="fill:rgb(0,127,0);stroke-width:1" /><circle cx="262.934223" cy="535.757303" r="3.749996" style="fill:rgb(0,127,0);stroke-width:1" /><circle cx="255.237825" cy="524.212696" r="3.749996" style="fill:rgb(0,127,0);stroke-width:1" /><circle cx="247.416280" cy="512.480378" r="3.749996" style="fill:rgb(0,127,0);stroke-width:1" /><circle cx="239.466526" cy="500.555702" r="3.749996" style="fill:rgb(0,127,0);stroke-width:1" /><circle cx="231.385365" cy="488.433950" r="3.749996" style="fill:rgb(0,127,0);stroke-width:1" /><circle cx="223.981038" cy="477.327436" r="3.749996" style="fill:rgb(0,127,0);stroke-width:1" /><circle cx="215.970464" cy="465.311654" r="3.749996" style="fill:rgb(0,127,0);stroke-width:1" /><circle cx="207.829669" cy="453.100473" r="3.749996" style="fill:rgb(0,127,0);stroke-width:1" /><circle cx="201.283872" cy="443.281710" r="3.749996" style="fill:rgb(0,127,0);stroke-width:1" /><circle cx="193.220347" cy="431.186423" r="3.749996" style="fill:rgb(0,127,0);stroke-width:1" /><circle cx="185.027808" cy="418.897614" r="3.749996" style="fill:rgb(0,127,0);stroke-width:1" /><circle cx="179.290518" cy="410.291657" r="3.749996" style="fill:rgb(0,127,0);stroke-width:1" /><circle cx="176.703125" cy="406.410590" r="3.749996" style="fill:rgb(0,127,0);stroke-width:1" /><circle cx="168.243080" cy="393.720523" r="3.749996" style="fill:rgb(0,127,0);stroke-width:1" /><circle cx="165.056035" cy="388.939932" r="3.749996" style="fill:rgb(0,127,0);stroke-width:1" /><circle cx="156.062588" cy="375.449784" r="3.749996" style="fill:rgb(0,127,0);stroke-width:1" /><circle cx="150.903493" cy="367.711142" r="3.749996" style="fill:rgb(0,127,0);stroke-width:1" /><circle cx="146.074578" cy="360.467792" r="3.749996" style="fill:rgb(0,127,0);stroke-width:1" /><circle cx="137.435764" cy="347.509593" r="3.749996" style="fill:rgb(0,127,0);stroke-width:1" /><circle cx="133.140877" cy="341.067284" r="3.749996" style="fill:rgb(0,127,0);stroke-width:1" /><circle cx="128.656469" cy="334.340662" r="3.749996" style="fill:rgb(0,127,0);stroke-width:1" /><circle cx="124.604300" cy="328.262419" r="3.749996" style="fill:rgb(0,127,0);stroke-width:1" /><circle cx="115.932204" cy="315.254241" r="3.749996" style="fill:rgb(0,127,0);stroke-width:1" /><circle cx="107.121348" cy="302.038014" r="3.749996" style="fill:rgb(0,127,0);stroke-width:1" /><circle cx="103.799745" cy="297.055587" r="3.749996" style="fill:rgb(0,127,0);stroke-width:1" /><circle cx="98.168403" cy="288.608596" r="3.749996" style="fill:rgb(0,127,0);stroke-width:1" /><circle cx="90.189189" cy="268.991008" r="3.749996" style="fill:rgb(0,127,0);stroke-width:1" /><circle cx="87.711073" cy="262.716293" r="3.749996" style="fill:rgb(0,127,0);stroke-width:1" /><circle cx="85.455090" cy="256.259412" r="3.749996" style="fill:rgb(0,127,0);stroke-width:1" /><circle cx="77.924833" cy="233.747989" r="3.749996" style="fill:rgb(0,127,0);stroke-width:1" /><circle cx="73.944323" cy="221.826330" r="3.749996" style="fill:rgb(0,127,0);stroke-width:1" /><circle cx="65.217532" cy="195.650920" r="3.749996" style="fill:rgb(0,127,0);stroke-width:1" /><circle cx="55.970192" cy="167.910129" r="3.749996" style="fill:rgb(0,127,0);stroke-width:1" /><circle cx="46.153843" cy="138.461486" r="3.749996" style="fill:rgb(0,127,0);stroke-width:1" /><circle cx="44.776127" cy="134.328380" r="3.749996" style="fill:rgb(0,127,0);stroke-width:1" /><circle cx="42.253509" cy="126.760617" r="3.749996" style="fill:rgb(0,127,0);stroke-width:1" /><circle cx="41.095890" cy="123.287737" r="3.749996" style="fill:rgb(0,127,0);stroke-width:1" /><circle cx="40.000007" cy="120.000064" r="3.749996" style="fill:rgb(0,127,0);stroke-width:1" /><circle cx="31.690143" cy="95.070451" r="3.749996" style="fill:rgb(0,127,0);stroke-width:1" /><circle cx="21.739125" cy="65.217465" r="3.749996" style="fill:rgb(0,127,0);stroke-width:1" /><circle cx="11.194021" cy="33.582151" r="3.749996" style="fill:rgb(0,127,0);stroke-width:1" /><circle cx="750.000000" cy="750.000000" r="3.749996" style="fill:rgb(0,127,0);stroke-width:1" /><path stroke-linejoin="round" stroke-linecap="round" stroke="rgb(255,255,255)" stroke-width="3.749996" fill="none" d="M 0.000000 750.000000 L 750.000000 750.000000 M 0.000000 750.000000 L 0.000000 0.000000 " />

</svg>