<svg xmlns="http://www.w3.org/2000/svg" version="1.1" width = "750" height = "750" viewBox = "0 0 750 750"  shape-rendering="crispEdges">
<path stroke-linejoin="round" stroke-linecap="round" stroke="rgb(255,255,0)" stroke-width="3.749996" fill="none" d="M 93.750000 750.000000 L 0.000000 0.000000 " />
<path stroke-linejoin="round" stroke-linecap="round" stroke="rgb(63,63,63)" stroke-width="3.749996" fill="none" d="M 0.000000 0.000000 L 750.000000 750.000000 M 93.750000 750.000000 L 43.750004 0.000000 " />
<path stroke-linejoin="round" stroke-linecap="round" stroke="rgb(191,191,191)" stroke-width="3.749996" fill="none" d="M 0.000000 656.250000 L 93.750000 750.000000 M 0.000000 0.000000 L 49.999996 750.000000 " />
<path stroke-linejoin="round" stroke-linecap="round" stroke="rgb(0,0,255)" stroke-width="1.874998" fill="none" d="M 0.000000 750.000000 L 750.000000 571.428589 " />
<path stroke-linejoin="round" stroke-linecap="round" stroke="rgb(255,0,0)" stroke-width="3.749996" fill="none" d="M 92.285156 728.027344 L 93.750000 750.000000 " />
<path stroke-linejoin="round" stroke-linecap="round" stroke="rgb(0,0,255)" stroke-width="1.874998" fill="none" d="M 0.000000 750.000000 L 750.000000 384.146332 " />
<path stroke-linejoin="round" stroke-linecap="round" stroke="rgb(255,0,0)" stroke-width="3.749996" fill="none" d="M 90.362816 705.920593 L 92.285156 728.027344 " />
<path stroke-linejoin="round" stroke-linecap="round" stroke="rgb(0,0,255)" stroke-width="1.874998" fill="none" d="M 0.000000 750.000000 L 750.000000 214.285706 " />
<path stroke-linejoin="round" stroke-linecap="round" stroke="rgb(255,0,0)" stroke-width="3.749996" fill="none" d="M 88.687286 686.651917 L 90.362816 705.920593 " />
<path stroke-linejoin="round" stroke-linecap="round" stroke="rgb(0,0,255)" stroke-width="1.874998" fill="none" d="M 0.000000 750.000000 L 750.000000 18.292665 " />
<path stroke-linejoin="round" stroke-linecap="round" stroke="rgb(255,0,0)" stroke-width="3.749996" fill="none" d="M 86.829567 665.288269 L 88.687286 686.651917 " />
<path stroke-linejoin="round" stroke-linecap="round" stroke="rgb(0,0,255)" stroke-width="1.874998" fill="none" d="M 0.000000 750.000000 L 600.000000 0.000000 " />
<path stroke-linejoin="round" stroke-linecap="round" stroke="rgb(255,0,0)" stroke-width="3.749996" fill="none" d="M 84.960938 643.798828 L 86.829567 665.288269 " />
<path stroke-linejoin="round" stroke-linecap="round" stroke="rgb(0,0,255)" stroke-width="1.874998" fill="none" d="M 0.000000 750.000000 L 487.499969 0.000000 " />
<path stroke-linejoin="round" stroke-linecap="round" stroke="rgb(255,0,0)" stroke-width="3.749996" fill="none" d="M 83.081268 622.182678 L 84.960938 643.798828 " />
<path stroke-linejoin="round" stroke-linecap="round" stroke="rgb(0,0,255)" stroke-width="1.874998" fill="none" d="M 0.000000 750.000000 L 407.142883 0.000000 " />
<path stroke-linejoin="round" stroke-linecap="round" stroke="rgb(255,0,0)" stroke-width="3.749996" fill="none" d="M 81.190468 600.438599 L 83.081268 622.182617 " />
<path stroke-linejoin="round" stroke-linecap="round" stroke="rgb(0,0,255)" stroke-width="1.874998" fill="none" d="M 0.000000 750.000000 L 346.875000 0.000000 " />
<path stroke-linejoin="round" stroke-linecap="round" stroke="rgb(255,0,0)" stroke-width="3.749996" fill="none" d="M 79.288467 578.565491 L 81.190468 600.438599 " />
<path stroke-linejoin="round" stroke-linecap="round" stroke="rgb(0,0,255)" stroke-width="1.874998" fill="none" d="M 0.000000 750.000000 L 300.000000 0.000000 " />
<path stroke-linejoin="round" stroke-linecap="round" stroke="rgb(255,0,0)" stroke-width="3.749996" fill="none" d="M 77.375137 556.562195 L 79.288467 578.565491 " />
<path stroke-linejoin="round" stroke-linecap="round" stroke="rgb(0,0,255)" stroke-width="1.874998" fill="none" d="M 0.000000 750.000000 L 277.500000 0.000000 " />
<path stroke-linejoin="round" stroke-linecap="round" stroke="rgb(255,0,0)" stroke-width="3.749996" fill="none" d="M 76.270828 543.862610 L 77.375137 556.562195 " />
<path stroke-linejoin="round" stroke-linecap="round" stroke="rgb(0,0,255)" stroke-width="1.874998" fill="none" d="M 0.000000 750.000000 L 262.500000 0.000000 " />
<path stroke-linejoin="round" stroke-linecap="round" stroke="rgb(255,0,0)" stroke-width="3.749996" fill="none" d="M 75.450363 534.427490 L 76.270828 543.862610 " />
<path stroke-linejoin="round" stroke-linecap="round" stroke="rgb(0,0,255)" stroke-width="1.874998" fill="none" d="M 0.000000 750.000000 L 245.454529 0.000000 " />
<path stroke-linejoin="round" stroke-linecap="round" stroke="rgb(255,0,0)" stroke-width="3.749996" fill="none" d="M 74.421867 522.599792 L 75.450363 534.427490 " />
<path stroke-linejoin="round" stroke-linecap="round" stroke="rgb(0,0,255)" stroke-width="1.874998" fill="none" d="M 0.000000 750.000000 L 231.818192 0.000000 " />
<path stroke-linejoin="round" stroke-linecap="round" stroke="rgb(255,0,0)" stroke-width="3.749996" fill="none" d="M 73.514099 512.160278 L 74.421867 522.599792 " />
<path stroke-linejoin="round" stroke-linecap="round" stroke="rgb(0,0,255)" stroke-width="1.874998" fill="none" d="M 0.000000 750.000000 L 206.250000 0.000000 " />
<path stroke-linejoin="round" stroke-linecap="round" stroke="rgb(255,0,0)" stroke-width="3.749996" fill="none" d="M 71.566185 489.759308 L 73.514099 512.160278 " />
<path stroke-linejoin="round" stroke-linecap="round" stroke="rgb(0,0,255)" stroke-width="1.874998" fill="none" d="M 0.000000 750.000000 L 196.153839 0.000000 " />
<path stroke-linejoin="round" stroke-linecap="round" stroke="rgb(255,0,0)" stroke-width="3.749996" fill="none" d="M 70.692055 479.706818 L 71.566185 489.759308 " />
<path stroke-linejoin="round" stroke-linecap="round" stroke="rgb(0,0,255)" stroke-width="1.874998" fill="none" d="M 0.000000 750.000000 L 184.615372 0.000000 " />
<path stroke-linejoin="round" stroke-linecap="round" stroke="rgb(255,0,0)" stroke-width="3.749996" fill="none" d="M 69.606544 467.223419 L 70.692055 479.706818 " />
<path stroke-linejoin="round" stroke-linecap="round" stroke="rgb(0,0,255)" stroke-width="1.874998" fill="none" d="M 0.000000 750.000000 L 166.071426 0.000000 " />
<path stroke-linejoin="round" stroke-linecap="round" stroke="rgb(255,0,0)" stroke-width="3.749996" fill="none" d="M 67.635056 444.551392 L 69.606544 467.223480 " />
<path stroke-linejoin="round" stroke-linecap="round" stroke="rgb(0,0,255)" stroke-width="1.874998" fill="none" d="M 0.000000 750.000000 L 160.000000 0.000000 " />
<path stroke-linejoin="round" stroke-linecap="round" stroke="rgb(255,0,0)" stroke-width="3.749996" fill="none" d="M 66.919037 436.317047 L 67.635056 444.551392 " />
<path stroke-linejoin="round" stroke-linecap="round" stroke="rgb(0,0,255)" stroke-width="1.874998" fill="none" d="M 0.000000 750.000000 L 149.999985 0.000000 " />
<path stroke-linejoin="round" stroke-linecap="round" stroke="rgb(255,0,0)" stroke-width="3.749996" fill="none" d="M 65.651627 421.741882 L 66.919037 436.317047 " />
<path stroke-linejoin="round" stroke-linecap="round" stroke="rgb(0,0,255)" stroke-width="1.874998" fill="none" d="M 0.000000 750.000000 L 145.312515 0.000000 " />
<path stroke-linejoin="round" stroke-linecap="round" stroke="rgb(255,0,0)" stroke-width="3.749996" fill="none" d="M 65.016075 414.433136 L 65.651627 421.741882 " />
<path stroke-linejoin="round" stroke-linecap="round" stroke="rgb(0,0,255)" stroke-width="1.874998" fill="none" d="M 0.000000 750.000000 L 135.937485 0.000000 " />
<path stroke-linejoin="round" stroke-linecap="round" stroke="rgb(255,0,0)" stroke-width="3.749996" fill="none" d="M 63.656128 398.793793 L 65.016075 414.433136 " />
<path stroke-linejoin="round" stroke-linecap="round" stroke="rgb(0,0,255)" stroke-width="1.874998" fill="none" d="M 0.000000 750.000000 L 132.352936 0.000000 " />
<path stroke-linejoin="round" stroke-linecap="round" stroke="rgb(255,0,0)" stroke-width="3.749996" fill="none" d="M 63.102051 392.421753 L 63.656128 398.793793 " />
<path stroke-linejoin="round" stroke-linecap="round" stroke="rgb(0,0,255)" stroke-width="1.874998" fill="none" d="M 0.000000 750.000000 L 123.529404 0.000000 " />
<path stroke-linejoin="round" stroke-linecap="round" stroke="rgb(255,0,0)" stroke-width="3.749996" fill="none" d="M 61.648472 375.705658 L 63.102051 392.421753 " />
<path stroke-linejoin="round" stroke-linecap="round" stroke="rgb(0,0,255)" stroke-width="1.874998" fill="none" d="M 0.000000 750.000000 L 120.833336 0.000000 " />
<path stroke-linejoin="round" stroke-linecap="round" stroke="rgb(255,0,0)" stroke-width="3.749996" fill="none" d="M 61.176830 370.281738 L 61.648472 375.705597 " />
<path stroke-linejoin="round" stroke-linecap="round" stroke="rgb(0,0,255)" stroke-width="1.874998" fill="none" d="M 0.000000 750.000000 L 112.500008 0.000000 " />
<path stroke-linejoin="round" stroke-linecap="round" stroke="rgb(255,0,0)" stroke-width="3.749996" fill="none" d="M 59.628548 352.476410 L 61.176830 370.281769 " />
<path stroke-linejoin="round" stroke-linecap="round" stroke="rgb(0,0,255)" stroke-width="1.874998" fill="none" d="M 0.000000 750.000000 L 110.526321 0.000000 " />
<path stroke-linejoin="round" stroke-linecap="round" stroke="rgb(255,0,0)" stroke-width="3.749996" fill="none" d="M 59.240341 348.012024 L 59.628548 352.476410 " />
<path stroke-linejoin="round" stroke-linecap="round" stroke="rgb(0,0,255)" stroke-width="1.874998" fill="none" d="M 0.000000 750.000000 L 102.631577 0.000000 " />
<path stroke-linejoin="round" stroke-linecap="round" stroke="rgb(255,0,0)" stroke-width="3.749996" fill="none" d="M 57.596214 329.104584 L 59.240341 348.011963 " />
<path stroke-linejoin="round" stroke-linecap="round" stroke="rgb(0,0,255)" stroke-width="1.874998" fill="none" d="M 0.000000 750.000000 L 93.750000 0.000000 " />
<path stroke-linejoin="round" stroke-linecap="round" stroke="rgb(255,0,0)" stroke-width="3.749996" fill="none" d="M 55.551388 305.588959 L 57.596214 329.104584 " />
<path stroke-linejoin="round" stroke-linecap="round" stroke="rgb(0,0,255)" stroke-width="1.874998" fill="none" d="M 0.000000 750.000000 L 92.857140 0.000000 " />
<path stroke-linejoin="round" stroke-linecap="round" stroke="rgb(255,0,0)" stroke-width="3.749996" fill="none" d="M 55.333099 303.078766 L 55.551388 305.588959 " />
<path stroke-linejoin="round" stroke-linecap="round" stroke="rgb(0,0,255)" stroke-width="1.874998" fill="none" d="M 0.000000 750.000000 L 88.862572 0.000000 " />
<path stroke-linejoin="round" stroke-linecap="round" stroke="rgb(255,0,0)" stroke-width="3.749996" fill="none" d="M 54.325573 291.492157 L 55.333099 303.078766 " />
<path stroke-linejoin="round" stroke-linecap="round" stroke="rgb(0,0,255)" stroke-width="1.874998" fill="none" d="M 0.000000 750.000000 L 85.227280 0.000000 " />
<path stroke-linejoin="round" stroke-linecap="round" stroke="rgb(255,0,0)" stroke-width="3.749996" fill="none" d="M 53.362167 280.412842 L 54.325596 291.492096 " />
<path stroke-linejoin="round" stroke-linecap="round" stroke="rgb(0,0,255)" stroke-width="1.874998" fill="none" d="M 0.000000 750.000000 L 81.447960 0.000000 " />
<path stroke-linejoin="round" stroke-linecap="round" stroke="rgb(255,0,0)" stroke-width="3.749996" fill="none" d="M 51.772671 273.260071 L 53.362167 280.412842 " />
<path stroke-linejoin="round" stroke-linecap="round" stroke="rgb(0,0,255)" stroke-width="1.874998" fill="none" d="M 0.000000 750.000000 L 81.168831 0.000000 " />
<path stroke-linejoin="round" stroke-linecap="round" stroke="rgb(255,0,0)" stroke-width="3.749996" fill="none" d="M 51.693611 272.351013 L 51.772671 273.260010 " />
<path stroke-linejoin="round" stroke-linecap="round" stroke="rgb(0,0,255)" stroke-width="1.874998" fill="none" d="M 0.000000 750.000000 L 80.717484 0.000000 " />
<path stroke-linejoin="round" stroke-linecap="round" stroke="rgb(255,0,0)" stroke-width="3.749996" fill="none" d="M 51.499954 271.479553 L 51.693611 272.351044 " />
<path stroke-linejoin="round" stroke-linecap="round" stroke="rgb(0,0,255)" stroke-width="1.874998" fill="none" d="M 0.000000 750.000000 L 79.710159 0.000000 " />
<path stroke-linejoin="round" stroke-linecap="round" stroke="rgb(255,0,0)" stroke-width="3.749996" fill="none" d="M 51.065193 269.523071 L 51.499954 271.479553 " />
<path stroke-linejoin="round" stroke-linecap="round" stroke="rgb(0,0,255)" stroke-width="1.874998" fill="none" d="M 0.000000 750.000000 L 78.947380 0.000000 " />
<path stroke-linejoin="round" stroke-linecap="round" stroke="rgb(255,0,0)" stroke-width="3.749996" fill="none" d="M 50.733582 268.030914 L 51.065193 269.523071 " />
<path stroke-linejoin="round" stroke-linecap="round" stroke="rgb(0,0,255)" stroke-width="1.874998" fill="none" d="M 0.000000 750.000000 L 74.999992 0.000000 " />
<path stroke-linejoin="round" stroke-linecap="round" stroke="rgb(255,0,0)" stroke-width="3.749996" fill="none" d="M 48.984154 260.158447 L 50.733582 268.030914 " />
<path stroke-linejoin="round" stroke-linecap="round" stroke="rgb(0,0,255)" stroke-width="1.874998" fill="none" d="M 0.000000 750.000000 L 74.292450 0.000000 " />
<path stroke-linejoin="round" stroke-linecap="round" stroke="rgb(255,0,0)" stroke-width="3.749996" fill="none" d="M 48.664524 258.720123 L 48.984154 260.158447 " />
<path stroke-linejoin="round" stroke-linecap="round" stroke="rgb(0,0,255)" stroke-width="1.874998" fill="none" d="M 0.000000 750.000000 L 72.916656 0.000000 " />
<path stroke-linejoin="round" stroke-linecap="round" stroke="rgb(255,0,0)" stroke-width="3.749996" fill="none" d="M 48.037605 255.898926 L 48.664524 258.720123 " />
<path stroke-linejoin="round" stroke-linecap="round" stroke="rgb(0,0,255)" stroke-width="1.874998" fill="none" d="M 0.000000 750.000000 L 72.247711 0.000000 " />
<path stroke-linejoin="round" stroke-linecap="round" stroke="rgb(255,0,0)" stroke-width="3.749996" fill="none" d="M 47.730179 254.515396 L 48.037605 255.898880 " />
<path stroke-linejoin="round" stroke-linecap="round" stroke="rgb(0,0,255)" stroke-width="1.874998" fill="none" d="M 0.000000 750.000000 L 68.493156 0.000000 " />
<path stroke-linejoin="round" stroke-linecap="round" stroke="rgb(255,0,0)" stroke-width="3.749996" fill="none" d="M 45.972191 246.604538 L 47.730179 254.515396 " />
<path stroke-linejoin="round" stroke-linecap="round" stroke="rgb(0,0,255)" stroke-width="1.874998" fill="none" d="M 0.000000 750.000000 L 67.873299 0.000000 " />
<path stroke-linejoin="round" stroke-linecap="round" stroke="rgb(255,0,0)" stroke-width="3.749996" fill="none" d="M 45.676544 245.274155 L 45.972191 246.604538 " />
<path stroke-linejoin="round" stroke-linecap="round" stroke="rgb(0,0,255)" stroke-width="1.874998" fill="none" d="M 0.000000 750.000000 L 65.366974 0.000000 " />
<path stroke-linejoin="round" stroke-linecap="round" stroke="rgb(255,0,0)" stroke-width="3.749996" fill="none" d="M 44.465034 239.822296 L 45.676544 245.274155 " />
<path stroke-linejoin="round" stroke-linecap="round" stroke="rgb(0,0,255)" stroke-width="1.874998" fill="none" d="M 0.000000 750.000000 L 64.772736 0.000000 " />
<path stroke-linejoin="round" stroke-linecap="round" stroke="rgb(255,0,0)" stroke-width="3.749996" fill="none" d="M 44.173927 238.512360 L 44.465034 239.822296 " />
<path stroke-linejoin="round" stroke-linecap="round" stroke="rgb(0,0,255)" stroke-width="1.874998" fill="none" d="M 0.000000 750.000000 L 61.085968 0.000000 " />
<path stroke-linejoin="round" stroke-linecap="round" stroke="rgb(255,0,0)" stroke-width="3.749996" fill="none" d="M 42.334000 230.232681 L 44.173927 238.512360 " />
<path stroke-linejoin="round" stroke-linecap="round" stroke="rgb(0,0,255)" stroke-width="1.874998" fill="none" d="M 0.000000 750.000000 L 60.538128 0.000000 " />
<path stroke-linejoin="round" stroke-linecap="round" stroke="rgb(255,0,0)" stroke-width="3.749996" fill="none" d="M 42.055473 228.979385 L 42.333977 230.232773 " />
<path stroke-linejoin="round" stroke-linecap="round" stroke="rgb(0,0,255)" stroke-width="1.874998" fill="none" d="M 0.000000 750.000000 L 56.919651 0.000000 " />
<path stroke-linejoin="round" stroke-linecap="round" stroke="rgb(255,0,0)" stroke-width="3.749996" fill="none" d="M 40.181683 220.547318 L 42.055473 228.979385 " />
<path stroke-linejoin="round" stroke-linecap="round" stroke="rgb(0,0,255)" stroke-width="1.874998" fill="none" d="M 0.000000 750.000000 L 56.415932 0.000000 " />
<path stroke-linejoin="round" stroke-linecap="round" stroke="rgb(255,0,0)" stroke-width="3.749996" fill="none" d="M 39.916008 219.351776 L 40.181683 220.547318 " />
<path stroke-linejoin="round" stroke-linecap="round" stroke="rgb(0,0,255)" stroke-width="1.874998" fill="none" d="M 0.000000 750.000000 L 55.921062 0.000000 " />
<path stroke-linejoin="round" stroke-linecap="round" stroke="rgb(255,0,0)" stroke-width="3.749996" fill="none" d="M 39.653847 218.171997 L 39.916031 219.351685 " />
<path stroke-linejoin="round" stroke-linecap="round" stroke="rgb(0,0,255)" stroke-width="1.874998" fill="none" d="M 0.000000 750.000000 L 55.434780 0.000000 " />
<path stroke-linejoin="round" stroke-linecap="round" stroke="rgb(255,0,0)" stroke-width="3.749996" fill="none" d="M 39.395081 217.007645 L 39.653847 218.172043 " />
<path stroke-linejoin="round" stroke-linecap="round" stroke="rgb(0,0,255)" stroke-width="1.874998" fill="none" d="M 0.000000 750.000000 L 51.948040 0.000000 " />
<path stroke-linejoin="round" stroke-linecap="round" stroke="rgb(255,0,0)" stroke-width="3.749996" fill="none" d="M 37.506023 208.506836 L 39.395081 217.007645 " />
<path stroke-linejoin="round" stroke-linecap="round" stroke="rgb(0,0,255)" stroke-width="1.874998" fill="none" d="M 0.000000 750.000000 L 48.491390 0.000000 " />
<path stroke-linejoin="round" stroke-linecap="round" stroke="rgb(255,0,0)" stroke-width="3.749996" fill="none" d="M 35.572796 199.807358 L 37.506023 208.506836 " />
<path stroke-linejoin="round" stroke-linecap="round" stroke="rgb(0,0,255)" stroke-width="1.874998" fill="none" d="M 0.000000 750.000000 L 48.076920 0.000000 " />
<path stroke-linejoin="round" stroke-linecap="round" stroke="rgb(255,0,0)" stroke-width="3.749996" fill="none" d="M 35.336830 198.745422 L 35.572796 199.807358 " />
<path stroke-linejoin="round" stroke-linecap="round" stroke="rgb(0,0,255)" stroke-width="1.874998" fill="none" d="M 0.000000 750.000000 L 46.875000 0.000000 " />
<path stroke-linejoin="round" stroke-linecap="round" stroke="rgb(255,0,0)" stroke-width="3.749996" fill="none" d="M 34.647324 195.642700 L 35.336830 198.745392 " />
<path stroke-linejoin="round" stroke-linecap="round" stroke="rgb(0,0,255)" stroke-width="1.874998" fill="none" d="M 0.000000 750.000000 L 46.487598 0.000000 " />
<path stroke-linejoin="round" stroke-linecap="round" stroke="rgb(255,0,0)" stroke-width="3.749996" fill="none" d="M 34.423447 194.635162 L 34.647324 195.642700 " />
<path stroke-linejoin="round" stroke-linecap="round" stroke="rgb(0,0,255)" stroke-width="1.874998" fill="none" d="M 0.000000 750.000000 L 43.209873 0.000000 " />
<path stroke-linejoin="round" stroke-linecap="round" stroke="rgb(255,0,0)" stroke-width="3.749996" fill="none" d="M 32.496037 185.961792 L 34.423447 194.635162 " />
<path stroke-linejoin="round" stroke-linecap="round" stroke="rgb(0,0,255)" stroke-width="1.874998" fill="none" d="M 0.000000 750.000000 L 39.959015 0.000000 " />
<path stroke-linejoin="round" stroke-linecap="round" stroke="rgb(255,0,0)" stroke-width="3.749996" fill="none" d="M 30.524008 177.087753 L 32.496037 185.961792 " />
<path stroke-linejoin="round" stroke-linecap="round" stroke="rgb(0,0,255)" stroke-width="1.874998" fill="none" d="M 0.000000 750.000000 L 36.734684 0.000000 " />
<path stroke-linejoin="round" stroke-linecap="round" stroke="rgb(255,0,0)" stroke-width="3.749996" fill="none" d="M 28.505825 168.005936 L 30.524008 177.087753 " />
<path stroke-linejoin="round" stroke-linecap="round" stroke="rgb(0,0,255)" stroke-width="1.874998" fill="none" d="M 0.000000 750.000000 L 33.536598 0.000000 " />
<path stroke-linejoin="round" stroke-linecap="round" stroke="rgb(255,0,0)" stroke-width="3.749996" fill="none" d="M 26.439854 158.708939 L 28.505825 168.005936 " />
<path stroke-linejoin="round" stroke-linecap="round" stroke="rgb(0,0,255)" stroke-width="1.874998" fill="none" d="M 0.000000 750.000000 L 33.266144 0.000000 " />
<path stroke-linejoin="round" stroke-linecap="round" stroke="rgb(255,0,0)" stroke-width="3.749996" fill="none" d="M 26.262089 157.909073 L 26.439854 158.708939 " />
<path stroke-linejoin="round" stroke-linecap="round" stroke="rgb(0,0,255)" stroke-width="1.874998" fill="none" d="M 0.000000 750.000000 L 33.000000 0.000000 " />
<path stroke-linejoin="round" stroke-linecap="round" stroke="rgb(255,0,0)" stroke-width="3.749996" fill="none" d="M 26.086718 157.119965 L 26.262089 157.909073 " />
<path stroke-linejoin="round" stroke-linecap="round" stroke="rgb(0,0,255)" stroke-width="1.874998" fill="none" d="M 0.000000 750.000000 L 32.738106 0.000000 " />
<path stroke-linejoin="round" stroke-linecap="round" stroke="rgb(255,0,0)" stroke-width="3.749996" fill="none" d="M 25.913671 156.341187 L 26.086718 157.119965 " />
<path stroke-linejoin="round" stroke-linecap="round" stroke="rgb(0,0,255)" stroke-width="1.874998" fill="none" d="M 0.000000 750.000000 L 29.880480 0.000000 " />
<path stroke-linejoin="round" stroke-linecap="round" stroke="rgb(255,0,0)" stroke-width="3.749996" fill="none" d="M 23.995623 147.709915 L 25.913671 156.341187 " />
<path stroke-linejoin="round" stroke-linecap="round" stroke="rgb(0,0,255)" stroke-width="1.874998" fill="none" d="M 0.000000 750.000000 L 26.785725 0.000000 " />
<path stroke-linejoin="round" stroke-linecap="round" stroke="rgb(255,0,0)" stroke-width="3.749996" fill="none" d="M 21.854460 138.074799 L 23.995623 147.709915 " />
<path stroke-linejoin="round" stroke-linecap="round" stroke="rgb(0,0,255)" stroke-width="1.874998" fill="none" d="M 0.000000 750.000000 L 26.574812 0.000000 " />
<path stroke-linejoin="round" stroke-linecap="round" stroke="rgb(255,0,0)" stroke-width="3.749996" fill="none" d="M 21.706045 137.406891 L 21.854460 138.074799 " />
<path stroke-linejoin="round" stroke-linecap="round" stroke="rgb(0,0,255)" stroke-width="1.874998" fill="none" d="M 0.000000 750.000000 L 23.529411 0.000000 " />
<path stroke-linejoin="round" stroke-linecap="round" stroke="rgb(255,0,0)" stroke-width="3.749996" fill="none" d="M 19.526325 127.598183 L 21.706045 137.406891 " />
<path stroke-linejoin="round" stroke-linecap="round" stroke="rgb(0,0,255)" stroke-width="1.874998" fill="none" d="M 0.000000 750.000000 L 23.346306 0.000000 " />
<path stroke-linejoin="round" stroke-linecap="round" stroke="rgb(255,0,0)" stroke-width="3.749996" fill="none" d="M 19.393042 126.998398 L 19.526325 127.598183 " />
<path stroke-linejoin="round" stroke-linecap="round" stroke="rgb(0,0,255)" stroke-width="1.874998" fill="none" d="M 0.000000 750.000000 L 23.166016 0.000000 " />
<path stroke-linejoin="round" stroke-linecap="round" stroke="rgb(255,0,0)" stroke-width="3.749996" fill="none" d="M 19.261568 126.406700 L 19.393042 126.998398 " />
<path stroke-linejoin="round" stroke-linecap="round" stroke="rgb(0,0,255)" stroke-width="1.874998" fill="none" d="M 0.000000 750.000000 L 20.192318 0.000000 " />
<path stroke-linejoin="round" stroke-linecap="round" stroke="rgb(255,0,0)" stroke-width="3.749996" fill="none" d="M 17.056234 116.482750 L 19.261568 126.406700 " />
<path stroke-linejoin="round" stroke-linecap="round" stroke="rgb(0,0,255)" stroke-width="1.874998" fill="none" d="M 0.000000 750.000000 L 17.241373 0.000000 " />
<path stroke-linejoin="round" stroke-linecap="round" stroke="rgb(255,0,0)" stroke-width="3.749996" fill="none" d="M 14.797300 106.317490 L 17.056234 116.482750 " />
<path stroke-linejoin="round" stroke-linecap="round" stroke="rgb(0,0,255)" stroke-width="1.874998" fill="none" d="M 0.000000 750.000000 L 14.312983 0.000000 " />
<path stroke-linejoin="round" stroke-linecap="round" stroke="rgb(255,0,0)" stroke-width="3.749996" fill="none" d="M 12.482778 95.902252 L 14.797300 106.317490 " />
<path stroke-linejoin="round" stroke-linecap="round" stroke="rgb(0,0,255)" stroke-width="1.874998" fill="none" d="M 0.000000 750.000000 L 11.406854 0.000000 " />
<path stroke-linejoin="round" stroke-linecap="round" stroke="rgb(255,0,0)" stroke-width="3.749996" fill="none" d="M 10.110609 85.227501 L 12.482778 95.902290 " />
<path stroke-linejoin="round" stroke-linecap="round" stroke="rgb(0,0,255)" stroke-width="1.874998" fill="none" d="M 0.000000 750.000000 L 11.320755 0.000000 " />
<path stroke-linejoin="round" stroke-linecap="round" stroke="rgb(255,0,0)" stroke-width="3.749996" fill="none" d="M 10.039150 84.905998 L 10.110609 85.227501 " />
<path stroke-linejoin="round" stroke-linecap="round" stroke="rgb(0,0,255)" stroke-width="1.874998" fill="none" d="M 0.000000 750.000000 L 11.070103 0.000000 " />
<path stroke-linejoin="round" stroke-linecap="round" stroke="rgb(255,0,0)" stroke-width="3.749996" fill="none" d="M 9.830721 83.968117 L 10.039150 84.906044 " />
<path stroke-linejoin="round" stroke-linecap="round" stroke="rgb(0,0,255)" stroke-width="1.874998" fill="none" d="M 0.000000 750.000000 L 10.989010 0.000000 " />
<path stroke-linejoin="round" stroke-linecap="round" stroke="rgb(255,0,0)" stroke-width="3.749996" fill="none" d="M 9.763174 83.664047 L 9.830721 83.968117 " />
<path stroke-linejoin="round" stroke-linecap="round" stroke="rgb(0,0,255)" stroke-width="1.874998" fill="none" d="M 0.000000 750.000000 L 10.909081 0.000000 " />
<path stroke-linejoin="round" stroke-linecap="round" stroke="rgb(255,0,0)" stroke-width="3.749996" fill="none" d="M 9.696521 83.364174 L 9.763174 83.664047 " />
<path stroke-linejoin="round" stroke-linecap="round" stroke="rgb(0,0,255)" stroke-width="1.874998" fill="none" d="M 0.000000 750.000000 L 10.830336 0.000000 " />
<path stroke-linejoin="round" stroke-linecap="round" stroke="rgb(255,0,0)" stroke-width="3.749996" fill="none" d="M 9.630784 83.068375 L 9.696521 83.364174 " />
<path stroke-linejoin="round" stroke-linecap="round" stroke="rgb(0,0,255)" stroke-width="1.874998" fill="none" d="M 0.000000 750.000000 L 10.752686 0.000000 " />
<path stroke-linejoin="round" stroke-linecap="round" stroke="rgb(255,0,0)" stroke-width="3.749996" fill="none" d="M 9.565920 82.776505 L 9.630784 83.068375 " />
<path stroke-linejoin="round" stroke-linecap="round" stroke="rgb(0,0,255)" stroke-width="1.874998" fill="none" d="M 0.000000 750.000000 L 10.676153 0.000000 " />
<path stroke-linejoin="round" stroke-linecap="round" stroke="rgb(255,0,0)" stroke-width="3.749996" fill="none" d="M 9.501949 82.488525 L 9.565920 82.776505 " />
<path stroke-linejoin="round" stroke-linecap="round" stroke="rgb(0,0,255)" stroke-width="1.874998" fill="none" d="M 0.000000 750.000000 L 10.600716 0.000000 " />
<path stroke-linejoin="round" stroke-linecap="round" stroke="rgb(255,0,0)" stroke-width="3.749996" fill="none" d="M 9.438806 82.204384 L 9.501949 82.488480 " />
<path stroke-linejoin="round" stroke-linecap="round" stroke="rgb(0,0,255)" stroke-width="1.874998" fill="none" d="M 0.000000 750.000000 L 10.526307 0.000000 " />
<path stroke-linejoin="round" stroke-linecap="round" stroke="rgb(255,0,0)" stroke-width="3.749996" fill="none" d="M 9.376511 81.924049 L 9.438806 82.204384 " />
<path stroke-linejoin="round" stroke-linecap="round" stroke="rgb(0,0,255)" stroke-width="1.874998" fill="none" d="M 0.000000 750.000000 L 10.452971 0.000000 " />
<path stroke-linejoin="round" stroke-linecap="round" stroke="rgb(255,0,0)" stroke-width="3.749996" fill="none" d="M 9.315022 81.647385 L 9.376511 81.924049 " />
<path stroke-linejoin="round" stroke-linecap="round" stroke="rgb(0,0,255)" stroke-width="1.874998" fill="none" d="M 0.000000 750.000000 L 10.380618 0.000000 " />
<path stroke-linejoin="round" stroke-linecap="round" stroke="rgb(255,0,0)" stroke-width="3.749996" fill="none" d="M 9.254336 81.374290 L 9.315022 81.647385 " />
<path stroke-linejoin="round" stroke-linecap="round" stroke="rgb(0,0,255)" stroke-width="1.874998" fill="none" d="M 0.000000 750.000000 L 10.309272 0.000000 " />
<path stroke-linejoin="round" stroke-linecap="round" stroke="rgb(255,0,0)" stroke-width="3.749996" fill="none" d="M 9.194433 81.104683 L 9.254336 81.374290 " />
<path stroke-linejoin="round" stroke-linecap="round" stroke="rgb(0,0,255)" stroke-width="1.874998" fill="none" d="M 0.000000 750.000000 L 10.238908 0.000000 " />
<path stroke-linejoin="round" stroke-linecap="round" stroke="rgb(255,0,0)" stroke-width="3.749996" fill="none" d="M 9.135313 80.838608 L 9.194433 81.104683 " />
<path stroke-linejoin="round" stroke-linecap="round" stroke="rgb(0,0,255)" stroke-width="1.874998" fill="none" d="M 0.000000 750.000000 L 7.812492 0.000000 " />
<path stroke-linejoin="round" stroke-linecap="round" stroke="rgb(255,0,0)" stroke-width="3.749996" fill="none" d="M 7.067375 71.532906 L 9.135313 80.838608 " />
<path stroke-linejoin="round" stroke-linecap="round" stroke="rgb(0,0,255)" stroke-width="1.874998" fill="none" d="M 0.000000 750.000000 L 5.190320 0.000000 " />
<path stroke-linejoin="round" stroke-linecap="round" stroke="rgb(255,0,0)" stroke-width="3.749996" fill="none" d="M 4.766912 61.180832 L 7.067375 71.532906 " />
<path stroke-linejoin="round" stroke-linecap="round" stroke="rgb(0,0,255)" stroke-width="1.874998" fill="none" d="M 0.000000 750.000000 L 2.586208 0.000000 " />
<path stroke-linejoin="round" stroke-linecap="round" stroke="rgb(255,0,0)" stroke-width="3.749996" fill="none" d="M 2.467565 34.404160 L 4.766912 61.180832 " />
<path stroke-linejoin="round" stroke-linecap="round" stroke="rgb(0,0,255)" stroke-width="1.874998" fill="none" d="M 0.000000 750.000000 L 0.000000 0.000000 " />
<path stroke-linejoin="round" stroke-linecap="round" stroke="rgb(255,0,0)" stroke-width="3.749996" fill="none" d="M 0.000000 0.000000 L 2.467565 34.404160 " />
<circle cx="92.285156" cy="728.027344" r="3.749996" style="fill:rgb(0,127,0);stroke-width:1" /><circle cx="90.362817" cy="705.920577" r="3.749996" style="fill:rgb(0,127,0);stroke-width:1" /><circle cx="88.687286" cy="686.651945" r="3.749996" style="fill:rgb(0,127,0);stroke-width:1" /><circle cx="86.829565" cy="665.288217" r="3.749996" style="fill:rgb(0,127,0);stroke-width:1" /><circle cx="84.960938" cy="643.798828" r="3.749996" style="fill:rgb(0,127,0);stroke-width:1" /><circle cx="83.081268" cy="622.182682" r="3.749996" style="fill:rgb(0,127,0);stroke-width:1" /><circle cx="81.190467" cy="600.438595" r="3.749996" style="fill:rgb(0,127,0);stroke-width:1" /><circle cx="79.288468" cy="578.565493" r="3.749996" style="fill:rgb(0,127,0);stroke-width:1" /><circle cx="77.375136" cy="556.562170" r="3.749996" style="fill:rgb(0,127,0);stroke-width:1" /><circle cx="76.270826" cy="543.862626" r="3.749996" style="fill:rgb(0,127,0);stroke-width:1" /><circle cx="75.450361" cy="534.427509" r="3.749996" style="fill:rgb(0,127,0);stroke-width:1" /><circle cx="74.421868" cy="522.599816" r="3.749996" style="fill:rgb(0,127,0);stroke-width:1" /><circle cx="73.514096" cy="512.160301" r="3.749996" style="fill:rgb(0,127,0);stroke-width:1" /><circle cx="71.566187" cy="489.759319" r="3.749996" style="fill:rgb(0,127,0);stroke-width:1" /><circle cx="70.692055" cy="479.706824" r="3.749996" style="fill:rgb(0,127,0);stroke-width:1" /><circle cx="69.606543" cy="467.223421" r="3.749996" style="fill:rgb(0,127,0);stroke-width:1" /><circle cx="67.635052" cy="444.551356" r="3.749996" style="fill:rgb(0,127,0);stroke-width:1" /><circle cx="66.919036" cy="436.317042" r="3.749996" style="fill:rgb(0,127,0);stroke-width:1" /><circle cx="65.651625" cy="421.741873" r="3.749996" style="fill:rgb(0,127,0);stroke-width:1" /><circle cx="65.016076" cy="414.433144" r="3.749996" style="fill:rgb(0,127,0);stroke-width:1" /><circle cx="63.656129" cy="398.793764" r="3.749996" style="fill:rgb(0,127,0);stroke-width:1" /><circle cx="63.102052" cy="392.421752" r="3.749996" style="fill:rgb(0,127,0);stroke-width:1" /><circle cx="61.648473" cy="375.705644" r="3.749996" style="fill:rgb(0,127,0);stroke-width:1" /><circle cx="61.176829" cy="370.281726" r="3.749996" style="fill:rgb(0,127,0);stroke-width:1" /><circle cx="59.628546" cy="352.476418" r="3.749996" style="fill:rgb(0,127,0);stroke-width:1" /><circle cx="59.240341" cy="348.012015" r="3.749996" style="fill:rgb(0,127,0);stroke-width:1" /><circle cx="57.596214" cy="329.104587" r="3.749996" style="fill:rgb(0,127,0);stroke-width:1" /><circle cx="55.551387" cy="305.588946" r="3.749996" style="fill:rgb(0,127,0);stroke-width:1" /><circle cx="55.333100" cy="303.078756" r="3.749996" style="fill:rgb(0,127,0);stroke-width:1" /><circle cx="54.325573" cy="291.492149" r="3.749996" style="fill:rgb(0,127,0);stroke-width:1" /><circle cx="53.362168" cy="280.412838" r="3.749996" style="fill:rgb(0,127,0);stroke-width:1" /><circle cx="51.772669" cy="273.260057" r="3.749996" style="fill:rgb(0,127,0);stroke-width:1" /><circle cx="51.693611" cy="272.351012" r="3.749996" style="fill:rgb(0,127,0);stroke-width:1" /><circle cx="51.499955" cy="271.479562" r="3.749996" style="fill:rgb(0,127,0);stroke-width:1" /><circle cx="51.065192" cy="269.523069" r="3.749996" style="fill:rgb(0,127,0);stroke-width:1" /><circle cx="50.733581" cy="268.030912" r="3.749996" style="fill:rgb(0,127,0);stroke-width:1" /><circle cx="48.984155" cy="260.158449" r="3.749996" style="fill:rgb(0,127,0);stroke-width:1" /><circle cx="48.664525" cy="258.720115" r="3.749996" style="fill:rgb(0,127,0);stroke-width:1" /><circle cx="48.037603" cy="255.898923" r="3.749996" style="fill:rgb(0,127,0);stroke-width:1" /><circle cx="47.730178" cy="254.515395" r="3.749996" style="fill:rgb(0,127,0);stroke-width:1" /><circle cx="45.972191" cy="246.604532" r="3.749996" style="fill:rgb(0,127,0);stroke-width:1" /><circle cx="45.676544" cy="245.274156" r="3.749996" style="fill:rgb(0,127,0);stroke-width:1" /><circle cx="44.465035" cy="239.822298" r="3.749996" style="fill:rgb(0,127,0);stroke-width:1" /><circle cx="44.173926" cy="238.512352" r="3.749996" style="fill:rgb(0,127,0);stroke-width:1" /><circle cx="42.333998" cy="230.232686" r="3.749996" style="fill:rgb(0,127,0);stroke-width:1" /><circle cx="42.055473" cy="228.979379" r="3.749996" style="fill:rgb(0,127,0);stroke-width:1" /><circle cx="40.181682" cy="220.547318" r="3.749996" style="fill:rgb(0,127,0);stroke-width:1" /><circle cx="39.916009" cy="219.351768" r="3.749996" style="fill:rgb(0,127,0);stroke-width:1" /><circle cx="39.653845" cy="218.171999" r="3.749996" style="fill:rgb(0,127,0);stroke-width:1" /><circle cx="39.395079" cy="217.007652" r="3.749996" style="fill:rgb(0,127,0);stroke-width:1" /><circle cx="37.506022" cy="208.506837" r="3.749996" style="fill:rgb(0,127,0);stroke-width:1" /><circle cx="35.572797" cy="199.807361" r="3.749996" style="fill:rgb(0,127,0);stroke-width:1" /><circle cx="35.336830" cy="198.745430" r="3.749996" style="fill:rgb(0,127,0);stroke-width:1" /><circle cx="34.647323" cy="195.642695" r="3.749996" style="fill:rgb(0,127,0);stroke-width:1" /><circle cx="34.423448" cy="194.635168" r="3.749996" style="fill:rgb(0,127,0);stroke-width:1" /><circle cx="32.496035" cy="185.961798" r="3.749996" style="fill:rgb(0,127,0);stroke-width:1" /><circle cx="30.524008" cy="177.087754" r="3.749996" style="fill:rgb(0,127,0);stroke-width:1" /><circle cx="28.505825" cy="168.005928" r="3.749996" style="fill:rgb(0,127,0);stroke-width:1" /><circle cx="26.439853" cy="158.708945" r="3.749996" style="fill:rgb(0,127,0);stroke-width:1" /><circle cx="26.262090" cy="157.909065" r="3.749996" style="fill:rgb(0,127,0);stroke-width:1" /><circle cx="26.086718" cy="157.119960" r="3.749996" style="fill:rgb(0,127,0);stroke-width:1" /><circle cx="25.913671" cy="156.341180" r="3.749996" style="fill:rgb(0,127,0);stroke-width:1" /><circle cx="23.995623" cy="147.709921" r="3.749996" style="fill:rgb(0,127,0);stroke-width:1" /><circle cx="21.854460" cy="138.074800" r="3.749996" style="fill:rgb(0,127,0);stroke-width:1" /><circle cx="21.706045" cy="137.406886" r="3.749996" style="fill:rgb(0,127,0);stroke-width:1" /><circle cx="19.526325" cy="127.598181" r="3.749996" style="fill:rgb(0,127,0);stroke-width:1" /><circle cx="19.393042" cy="126.998395" r="3.749996" style="fill:rgb(0,127,0);stroke-width:1" /><circle cx="19.261569" cy="126.406699" r="3.749996" style="fill:rgb(0,127,0);stroke-width:1" /><circle cx="17.056234" cy="116.482750" r="3.749996" style="fill:rgb(0,127,0);stroke-width:1" /><circle cx="14.797300" cy="106.317490" r="3.749996" style="fill:rgb(0,127,0);stroke-width:1" /><circle cx="12.482777" cy="95.902249" r="3.749996" style="fill:rgb(0,127,0);stroke-width:1" /><circle cx="10.110609" cy="85.227504" r="3.749996" style="fill:rgb(0,127,0);stroke-width:1" /><circle cx="10.039151" cy="84.905997" r="3.749996" style="fill:rgb(0,127,0);stroke-width:1" /><circle cx="9.830721" cy="83.968118" r="3.749996" style="fill:rgb(0,127,0);stroke-width:1" /><circle cx="9.763174" cy="83.664045" r="3.749996" style="fill:rgb(0,127,0);stroke-width:1" /><circle cx="9.696521" cy="83.364174" r="3.749996" style="fill:rgb(0,127,0);stroke-width:1" /><circle cx="9.630784" cy="83.068371" r="3.749996" style="fill:rgb(0,127,0);stroke-width:1" /><circle cx="9.565920" cy="82.776502" r="3.749996" style="fill:rgb(0,127,0);stroke-width:1" /><circle cx="9.501949" cy="82.488522" r="3.749996" style="fill:rgb(0,127,0);stroke-width:1" /><circle cx="9.438805" cy="82.204387" r="3.749996" style="fill:rgb(0,127,0);stroke-width:1" /><circle cx="9.376511" cy="81.924051" r="3.749996" style="fill:rgb(0,127,0);stroke-width:1" /><circle cx="9.315021" cy="81.647381" r="3.749996" style="fill:rgb(0,127,0);stroke-width:1" /><circle cx="9.254336" cy="81.374288" r="3.749996" style="fill:rgb(0,127,0);stroke-width:1" /><circle cx="9.194434" cy="81.104681" r="3.749996" style="fill:rgb(0,127,0);stroke-width:1" /><circle cx="9.135313" cy="80.838606" r="3.749996" style="fill:rgb(0,127,0);stroke-width:1" /><circle cx="7.067375" cy="71.532905" r="3.749996" style="fill:rgb(0,127,0);stroke-width:1" /><circle cx="4.766911" cy="61.180830" r="3.749996" style="fill:rgb(0,127,0);stroke-width:1" /><circle cx="2.467543" cy="34.404159" r="3.750008" style="fill:rgb(0,127,0);stroke-width:1" /><circle cx="750.000000" cy="750.000000" r="3.749996" style="fill:rgb(0,127,0);stroke-width:1" /><path stroke-linejoin="round" stroke-linecap="round" stroke="rgb(255,255,255)" stroke-width="3.749996" fill="none" d="M 0.000000 750.000000 L 750.000000 750.000000 M 0.000000 750.000000 L 0.000000 0.000000 " />

</svg>