<svg xmlns="http://www.w3.org/2000/svg" version="1.1" width = "750" height = "750" viewBox = "0 0 750 750"  shape-rendering="crispEdges">
<path stroke-linejoin="round" stroke-linecap="round" stroke="rgb(255,255,0)" stroke-width="3.749996" fill="none" d="M 149.999985 750.000000 L 0.000000 0.000000 " />
<path stroke-linejoin="round" stroke-linecap="round" stroke="rgb(63,63,63)" stroke-width="3.749996" fill="none" d="M 0.000000 0.000000 L 750.000000 750.000000 M 149.999985 750.000000 L 66.666664 0.000000 " />
<path stroke-linejoin="round" stroke-linecap="round" stroke="rgb(191,191,191)" stroke-width="3.749996" fill="none" d="M 0.000000 600.000000 L 149.999985 750.000000 M 0.000000 0.000000 L 83.333328 750.000000 " />
<path stroke-linejoin="round" stroke-linecap="round" stroke="rgb(0,0,255)" stroke-width="1.874998" fill="none" d="M 0.000000 750.000000 L 750.000000 727.272766 " />
<path stroke-linejoin="round" stroke-linecap="round" stroke="rgb(255,0,0)" stroke-width="3.749996" fill="none" d="M 149.496628 745.469788 L 149.999985 750.000000 " />
<path stroke-linejoin="round" stroke-linecap="round" stroke="rgb(0,0,255)" stroke-width="1.874998" fill="none" d="M 0.000000 750.000000 L 750.000000 703.125000 " />
<path stroke-linejoin="round" stroke-linecap="round" stroke="rgb(255,0,0)" stroke-width="3.749996" fill="none" d="M 147.924942 740.754700 L 149.496658 745.469788 " />
<path stroke-linejoin="round" stroke-linecap="round" stroke="rgb(0,0,255)" stroke-width="1.874998" fill="none" d="M 0.000000 750.000000 L 750.000000 681.818176 " />
<path stroke-linejoin="round" stroke-linecap="round" stroke="rgb(255,0,0)" stroke-width="3.749996" fill="none" d="M 146.565353 736.675842 L 147.924942 740.754700 " />
<path stroke-linejoin="round" stroke-linecap="round" stroke="rgb(0,0,255)" stroke-width="1.874998" fill="none" d="M 0.000000 750.000000 L 750.000000 656.250000 " />
<path stroke-linejoin="round" stroke-linecap="round" stroke="rgb(255,0,0)" stroke-width="3.749996" fill="none" d="M 144.966461 731.879150 L 146.565353 736.675842 " />
<path stroke-linejoin="round" stroke-linecap="round" stroke="rgb(0,0,255)" stroke-width="1.874998" fill="none" d="M 0.000000 750.000000 L 750.000000 629.032288 " />
<path stroke-linejoin="round" stroke-linecap="round" stroke="rgb(255,0,0)" stroke-width="3.749996" fill="none" d="M 143.302292 726.886719 L 144.966461 731.879150 " />
<path stroke-linejoin="round" stroke-linecap="round" stroke="rgb(0,0,255)" stroke-width="1.874998" fill="none" d="M 0.000000 750.000000 L 750.000000 609.375000 " />
<path stroke-linejoin="round" stroke-linecap="round" stroke="rgb(255,0,0)" stroke-width="3.749996" fill="none" d="M 142.123978 723.351746 L 143.302292 726.886719 " />
<path stroke-linejoin="round" stroke-linecap="round" stroke="rgb(0,0,255)" stroke-width="1.874998" fill="none" d="M 0.000000 750.000000 L 750.000000 600.000000 " />
<path stroke-linejoin="round" stroke-linecap="round" stroke="rgb(255,0,0)" stroke-width="3.749996" fill="none" d="M 141.568802 721.686218 L 142.123978 723.351746 " />
<path stroke-linejoin="round" stroke-linecap="round" stroke="rgb(0,0,255)" stroke-width="1.874998" fill="none" d="M 0.000000 750.000000 L 750.000000 580.645142 " />
<path stroke-linejoin="round" stroke-linecap="round" stroke="rgb(255,0,0)" stroke-width="3.749996" fill="none" d="M 140.436264 718.288574 L 141.568802 721.686218 " />
<path stroke-linejoin="round" stroke-linecap="round" stroke="rgb(0,0,255)" stroke-width="1.874998" fill="none" d="M 0.000000 750.000000 L 750.000000 550.000000 " />
<path stroke-linejoin="round" stroke-linecap="round" stroke="rgb(255,0,0)" stroke-width="3.749996" fill="none" d="M 138.679642 713.018799 L 140.436264 718.288574 " />
<path stroke-linejoin="round" stroke-linecap="round" stroke="rgb(0,0,255)" stroke-width="1.874998" fill="none" d="M 0.000000 750.000000 L 750.000000 532.258118 " />
<path stroke-linejoin="round" stroke-linecap="round" stroke="rgb(255,0,0)" stroke-width="3.749996" fill="none" d="M 137.682602 710.027649 L 138.679642 713.018799 " />
<path stroke-linejoin="round" stroke-linecap="round" stroke="rgb(0,0,255)" stroke-width="1.874998" fill="none" d="M 0.000000 750.000000 L 750.000000 499.999969 " />
<path stroke-linejoin="round" stroke-linecap="round" stroke="rgb(255,0,0)" stroke-width="3.749996" fill="none" d="M 135.906052 704.697998 L 137.682602 710.027649 " />
<path stroke-linejoin="round" stroke-linecap="round" stroke="rgb(0,0,255)" stroke-width="1.874998" fill="none" d="M 0.000000 750.000000 L 750.000000 482.142853 " />
<path stroke-linejoin="round" stroke-linecap="round" stroke="rgb(255,0,0)" stroke-width="3.749996" fill="none" d="M 134.942184 701.806335 L 135.906052 704.697998 " />
<path stroke-linejoin="round" stroke-linecap="round" stroke="rgb(0,0,255)" stroke-width="1.874998" fill="none" d="M 0.000000 750.000000 L 750.000000 444.444458 " />
<path stroke-linejoin="round" stroke-linecap="round" stroke="rgb(255,0,0)" stroke-width="3.749996" fill="none" d="M 132.951584 695.834595 L 134.942184 701.806335 " />
<path stroke-linejoin="round" stroke-linecap="round" stroke="rgb(0,0,255)" stroke-width="1.874998" fill="none" d="M 0.000000 750.000000 L 750.000000 428.571411 " />
<path stroke-linejoin="round" stroke-linecap="round" stroke="rgb(255,0,0)" stroke-width="3.749996" fill="none" d="M 132.130890 693.372498 L 132.951584 695.834595 " />
<path stroke-linejoin="round" stroke-linecap="round" stroke="rgb(0,0,255)" stroke-width="1.874998" fill="none" d="M 0.000000 750.000000 L 750.000000 403.846161 " />
<path stroke-linejoin="round" stroke-linecap="round" stroke="rgb(255,0,0)" stroke-width="3.749996" fill="none" d="M 130.872482 689.597290 L 132.130890 693.372498 " />
<path stroke-linejoin="round" stroke-linecap="round" stroke="rgb(0,0,255)" stroke-width="1.874998" fill="none" d="M 0.000000 750.000000 L 750.000000 388.888885 " />
<path stroke-linejoin="round" stroke-linecap="round" stroke="rgb(255,0,0)" stroke-width="3.749996" fill="none" d="M 130.122818 687.348267 L 130.872482 689.597290 " />
<path stroke-linejoin="round" stroke-linecap="round" stroke="rgb(0,0,255)" stroke-width="1.874998" fill="none" d="M 0.000000 750.000000 L 750.000000 360.000000 " />
<path stroke-linejoin="round" stroke-linecap="round" stroke="rgb(255,0,0)" stroke-width="3.749996" fill="none" d="M 128.698914 683.076538 L 130.122818 687.348267 " />
<path stroke-linejoin="round" stroke-linecap="round" stroke="rgb(0,0,255)" stroke-width="1.874998" fill="none" d="M 0.000000 750.000000 L 750.000000 312.500000 " />
<path stroke-linejoin="round" stroke-linecap="round" stroke="rgb(255,0,0)" stroke-width="3.749996" fill="none" d="M 126.424248 676.252502 L 128.698914 683.076538 " />
<path stroke-linejoin="round" stroke-linecap="round" stroke="rgb(0,0,255)" stroke-width="1.874998" fill="none" d="M 0.000000 750.000000 L 750.000000 260.869537 " />
<path stroke-linejoin="round" stroke-linecap="round" stroke="rgb(255,0,0)" stroke-width="3.749996" fill="none" d="M 124.041237 669.103577 L 126.424248 676.252502 " />
<path stroke-linejoin="round" stroke-linecap="round" stroke="rgb(0,0,255)" stroke-width="1.874998" fill="none" d="M 0.000000 750.000000 L 750.000000 249.999985 " />
<path stroke-linejoin="round" stroke-linecap="round" stroke="rgb(255,0,0)" stroke-width="3.749996" fill="none" d="M 123.550949 667.632690 L 124.041237 669.103577 " />
<path stroke-linejoin="round" stroke-linecap="round" stroke="rgb(0,0,255)" stroke-width="1.874998" fill="none" d="M 0.000000 750.000000 L 750.000000 195.652176 " />
<path stroke-linejoin="round" stroke-linecap="round" stroke="rgb(255,0,0)" stroke-width="3.749996" fill="none" d="M 121.156563 660.449463 L 123.550949 667.632690 " />
<path stroke-linejoin="round" stroke-linecap="round" stroke="rgb(0,0,255)" stroke-width="1.874998" fill="none" d="M 0.000000 750.000000 L 750.000000 136.363647 " />
<path stroke-linejoin="round" stroke-linecap="round" stroke="rgb(255,0,0)" stroke-width="3.749996" fill="none" d="M 118.648140 652.924255 L 121.156563 660.449463 " />
<path stroke-linejoin="round" stroke-linecap="round" stroke="rgb(0,0,255)" stroke-width="1.874998" fill="none" d="M 0.000000 750.000000 L 750.000000 130.434799 " />
<path stroke-linejoin="round" stroke-linecap="round" stroke="rgb(255,0,0)" stroke-width="3.749996" fill="none" d="M 118.403008 652.188843 L 118.648140 652.924255 " />
<path stroke-linejoin="round" stroke-linecap="round" stroke="rgb(0,0,255)" stroke-width="1.874998" fill="none" d="M 0.000000 750.000000 L 750.000000 68.181801 " />
<path stroke-linejoin="round" stroke-linecap="round" stroke="rgb(255,0,0)" stroke-width="3.749996" fill="none" d="M 115.888885 644.646484 L 118.403008 652.188843 " />
<path stroke-linejoin="round" stroke-linecap="round" stroke="rgb(0,0,255)" stroke-width="1.874998" fill="none" d="M 0.000000 750.000000 L 750.000000 0.000000 " />
<path stroke-linejoin="round" stroke-linecap="round" stroke="rgb(255,0,0)" stroke-width="3.749996" fill="none" d="M 113.255043 636.744995 L 115.888885 644.646484 " />
<path stroke-linejoin="round" stroke-linecap="round" stroke="rgb(0,0,255)" stroke-width="1.874998" fill="none" d="M 0.000000 750.000000 L 681.818176 0.000000 " />
<path stroke-linejoin="round" stroke-linecap="round" stroke="rgb(255,0,0)" stroke-width="3.749996" fill="none" d="M 110.492729 628.458008 L 113.255043 636.744995 " />
<path stroke-linejoin="round" stroke-linecap="round" stroke="rgb(0,0,255)" stroke-width="1.874998" fill="none" d="M 0.000000 750.000000 L 625.000000 0.000000 " />
<path stroke-linejoin="round" stroke-linecap="round" stroke="rgb(255,0,0)" stroke-width="3.749996" fill="none" d="M 107.861954 620.565613 L 110.492729 628.458008 " />
<path stroke-linejoin="round" stroke-linecap="round" stroke="rgb(0,0,255)" stroke-width="1.874998" fill="none" d="M 0.000000 750.000000 L 576.923096 0.000000 " />
<path stroke-linejoin="round" stroke-linecap="round" stroke="rgb(255,0,0)" stroke-width="3.749996" fill="none" d="M 105.353523 613.040405 L 107.861954 620.565613 " />
<path stroke-linejoin="round" stroke-linecap="round" stroke="rgb(0,0,255)" stroke-width="1.874998" fill="none" d="M 0.000000 750.000000 L 535.714294 0.000000 " />
<path stroke-linejoin="round" stroke-linecap="round" stroke="rgb(255,0,0)" stroke-width="3.749996" fill="none" d="M 102.959122 605.857239 L 105.353508 613.040405 " />
<path stroke-linejoin="round" stroke-linecap="round" stroke="rgb(0,0,255)" stroke-width="1.874998" fill="none" d="M 0.000000 750.000000 L 491.379303 0.000000 " />
<path stroke-linejoin="round" stroke-linecap="round" stroke="rgb(255,0,0)" stroke-width="3.749996" fill="none" d="M 100.085846 597.237366 L 102.959122 605.857239 " />
<path stroke-linejoin="round" stroke-linecap="round" stroke="rgb(0,0,255)" stroke-width="1.874998" fill="none" d="M 0.000000 750.000000 L 450.000031 0.000000 " />
<path stroke-linejoin="round" stroke-linecap="round" stroke="rgb(255,0,0)" stroke-width="3.749996" fill="none" d="M 97.075760 588.207092 L 100.085869 597.237366 " />
<path stroke-linejoin="round" stroke-linecap="round" stroke="rgb(0,0,255)" stroke-width="1.874998" fill="none" d="M 0.000000 750.000000 L 421.875000 0.000000 " />
<path stroke-linejoin="round" stroke-linecap="round" stroke="rgb(255,0,0)" stroke-width="3.749996" fill="none" d="M 94.818192 581.434326 L 97.075760 588.207092 " />
<path stroke-linejoin="round" stroke-linecap="round" stroke="rgb(0,0,255)" stroke-width="1.874998" fill="none" d="M 0.000000 750.000000 L 386.363617 0.000000 " />
<path stroke-linejoin="round" stroke-linecap="round" stroke="rgb(255,0,0)" stroke-width="3.749996" fill="none" d="M 91.682663 572.027771 L 94.818192 581.434326 " />
<path stroke-linejoin="round" stroke-linecap="round" stroke="rgb(0,0,255)" stroke-width="1.874998" fill="none" d="M 0.000000 750.000000 L 352.941193 0.000000 " />
<path stroke-linejoin="round" stroke-linecap="round" stroke="rgb(255,0,0)" stroke-width="3.749996" fill="none" d="M 88.394188 562.162354 L 91.682663 572.027771 " />
<path stroke-linejoin="round" stroke-linecap="round" stroke="rgb(0,0,255)" stroke-width="1.874998" fill="none" d="M 0.000000 750.000000 L 333.333344 0.000000 " />
<path stroke-linejoin="round" stroke-linecap="round" stroke="rgb(255,0,0)" stroke-width="3.749996" fill="none" d="M 86.289566 555.848450 L 88.394188 562.162354 " />
<path stroke-linejoin="round" stroke-linecap="round" stroke="rgb(0,0,255)" stroke-width="1.874998" fill="none" d="M 0.000000 750.000000 L 304.054047 0.000000 " />
<path stroke-linejoin="round" stroke-linecap="round" stroke="rgb(255,0,0)" stroke-width="3.749996" fill="none" d="M 82.869553 545.588440 L 86.289566 555.848450 " />
<path stroke-linejoin="round" stroke-linecap="round" stroke="rgb(0,0,255)" stroke-width="1.874998" fill="none" d="M 0.000000 750.000000 L 276.315796 0.000000 " />
<path stroke-linejoin="round" stroke-linecap="round" stroke="rgb(255,0,0)" stroke-width="3.749996" fill="none" d="M 79.278519 534.815430 L 82.869553 545.588440 " />
<path stroke-linejoin="round" stroke-linecap="round" stroke="rgb(0,0,255)" stroke-width="1.874998" fill="none" d="M 0.000000 750.000000 L 262.500000 0.000000 " />
<path stroke-linejoin="round" stroke-linecap="round" stroke="rgb(255,0,0)" stroke-width="3.749996" fill="none" d="M 77.344894 529.014526 L 79.278519 534.815430 " />
<path stroke-linejoin="round" stroke-linecap="round" stroke="rgb(0,0,255)" stroke-width="1.874998" fill="none" d="M 0.000000 750.000000 L 225.000015 0.000000 " />
<path stroke-linejoin="round" stroke-linecap="round" stroke="rgb(255,0,0)" stroke-width="3.749996" fill="none" d="M 73.780617 504.064575 L 77.344894 529.014587 " />
<path stroke-linejoin="round" stroke-linecap="round" stroke="rgb(0,0,255)" stroke-width="1.874998" fill="none" d="M 0.000000 750.000000 L 204.545456 0.000000 " />
<path stroke-linejoin="round" stroke-linecap="round" stroke="rgb(255,0,0)" stroke-width="3.749996" fill="none" d="M 70.091599 492.997528 L 73.780640 504.064575 " />
<path stroke-linejoin="round" stroke-linecap="round" stroke="rgb(0,0,255)" stroke-width="1.874998" fill="none" d="M 0.000000 750.000000 L 180.555542 0.000000 " />
<path stroke-linejoin="round" stroke-linecap="round" stroke="rgb(255,0,0)" stroke-width="3.749996" fill="none" d="M 67.030121 471.567200 L 70.091599 492.997528 " />
<path stroke-linejoin="round" stroke-linecap="round" stroke="rgb(0,0,255)" stroke-width="1.874998" fill="none" d="M 0.000000 750.000000 L 163.636337 0.000000 " />
<path stroke-linejoin="round" stroke-linecap="round" stroke="rgb(255,0,0)" stroke-width="3.749996" fill="none" d="M 63.233814 460.178345 L 67.030121 471.567200 " />
<path stroke-linejoin="round" stroke-linecap="round" stroke="rgb(0,0,255)" stroke-width="1.874998" fill="none" d="M 0.000000 750.000000 L 162.500000 0.000000 " />
<path stroke-linejoin="round" stroke-linecap="round" stroke="rgb(255,0,0)" stroke-width="3.749996" fill="none" d="M 63.059338 458.956940 L 63.233814 460.178345 " />
<path stroke-linejoin="round" stroke-linecap="round" stroke="rgb(0,0,255)" stroke-width="1.874998" fill="none" d="M 0.000000 750.000000 L 160.714294 0.000000 " />
<path stroke-linejoin="round" stroke-linecap="round" stroke="rgb(255,0,0)" stroke-width="3.749996" fill="none" d="M 62.637539 457.691528 L 63.059338 458.956940 " />
<path stroke-linejoin="round" stroke-linecap="round" stroke="rgb(0,0,255)" stroke-width="1.874998" fill="none" d="M 0.000000 750.000000 L 157.894745 0.000000 " />
<path stroke-linejoin="round" stroke-linecap="round" stroke="rgb(255,0,0)" stroke-width="3.749996" fill="none" d="M 61.964012 455.670929 L 62.637539 457.691528 " />
<path stroke-linejoin="round" stroke-linecap="round" stroke="rgb(0,0,255)" stroke-width="1.874998" fill="none" d="M 0.000000 750.000000 L 149.999985 0.000000 " />
<path stroke-linejoin="round" stroke-linecap="round" stroke="rgb(255,0,0)" stroke-width="3.749996" fill="none" d="M 60.673088 446.634521 L 61.964012 455.670929 " />
<path stroke-linejoin="round" stroke-linecap="round" stroke="rgb(0,0,255)" stroke-width="1.874998" fill="none" d="M 0.000000 750.000000 L 144.230789 0.000000 " />
<path stroke-linejoin="round" stroke-linecap="round" stroke="rgb(255,0,0)" stroke-width="3.749996" fill="none" d="M 59.193268 442.195007 L 60.673088 446.634521 " />
<path stroke-linejoin="round" stroke-linecap="round" stroke="rgb(0,0,255)" stroke-width="1.874998" fill="none" d="M 0.000000 750.000000 L 137.500000 0.000000 " />
<path stroke-linejoin="round" stroke-linecap="round" stroke="rgb(255,0,0)" stroke-width="3.749996" fill="none" d="M 57.983479 433.726532 L 59.193268 442.195007 " />
<path stroke-linejoin="round" stroke-linecap="round" stroke="rgb(0,0,255)" stroke-width="1.874998" fill="none" d="M 0.000000 750.000000 L 122.950806 0.000000 " />
<path stroke-linejoin="round" stroke-linecap="round" stroke="rgb(255,0,0)" stroke-width="3.749996" fill="none" d="M 53.870758 421.388367 L 57.983479 433.726532 " />
<path stroke-linejoin="round" stroke-linecap="round" stroke="rgb(0,0,255)" stroke-width="1.874998" fill="none" d="M 0.000000 750.000000 L 116.197182 0.000000 " />
<path stroke-linejoin="round" stroke-linecap="round" stroke="rgb(255,0,0)" stroke-width="3.749996" fill="none" d="M 52.451202 411.451385 L 53.870758 421.388367 " />
<path stroke-linejoin="round" stroke-linecap="round" stroke="rgb(0,0,255)" stroke-width="1.874998" fill="none" d="M 0.000000 750.000000 L 111.111115 0.000000 " />
<path stroke-linejoin="round" stroke-linecap="round" stroke="rgb(255,0,0)" stroke-width="3.749996" fill="none" d="M 50.861767 406.683105 L 52.451202 411.451385 " />
<path stroke-linejoin="round" stroke-linecap="round" stroke="rgb(0,0,255)" stroke-width="1.874998" fill="none" d="M 0.000000 750.000000 L 107.142853 0.000000 " />
<path stroke-linejoin="round" stroke-linecap="round" stroke="rgb(255,0,0)" stroke-width="3.749996" fill="none" d="M 49.590221 402.868469 L 50.861767 406.683105 " />
<path stroke-linejoin="round" stroke-linecap="round" stroke="rgb(0,0,255)" stroke-width="1.874998" fill="none" d="M 0.000000 750.000000 L 102.272720 0.000000 " />
<path stroke-linejoin="round" stroke-linecap="round" stroke="rgb(255,0,0)" stroke-width="3.749996" fill="none" d="M 48.436962 394.795685 L 49.590221 402.868469 " />
<path stroke-linejoin="round" stroke-linecap="round" stroke="rgb(0,0,255)" stroke-width="1.874998" fill="none" d="M 0.000000 750.000000 L 99.999992 0.000000 " />
<path stroke-linejoin="round" stroke-linecap="round" stroke="rgb(255,0,0)" stroke-width="3.749996" fill="none" d="M 47.668106 392.489166 L 48.436962 394.795685 " />
<path stroke-linejoin="round" stroke-linecap="round" stroke="rgb(0,0,255)" stroke-width="1.874998" fill="none" d="M 0.000000 750.000000 L 96.774193 0.000000 " />
<path stroke-linejoin="round" stroke-linecap="round" stroke="rgb(255,0,0)" stroke-width="3.749996" fill="none" d="M 46.559551 389.163452 L 47.668106 392.489166 " />
<path stroke-linejoin="round" stroke-linecap="round" stroke="rgb(0,0,255)" stroke-width="1.874998" fill="none" d="M 0.000000 750.000000 L 77.205887 0.000000 " />
<path stroke-linejoin="round" stroke-linecap="round" stroke="rgb(255,0,0)" stroke-width="3.749996" fill="none" d="M 41.352039 348.294464 L 46.559551 389.163452 " />
<path stroke-linejoin="round" stroke-linecap="round" stroke="rgb(0,0,255)" stroke-width="1.874998" fill="none" d="M 0.000000 750.000000 L 57.692303 0.000000 " />
<path stroke-linejoin="round" stroke-linecap="round" stroke="rgb(255,0,0)" stroke-width="3.749996" fill="none" d="M 34.936375 295.827057 L 41.352039 348.294464 " />
<path stroke-linejoin="round" stroke-linecap="round" stroke="rgb(0,0,255)" stroke-width="1.874998" fill="none" d="M 0.000000 750.000000 L 42.613640 0.000000 " />
<path stroke-linejoin="round" stroke-linecap="round" stroke="rgb(255,0,0)" stroke-width="3.749996" fill="none" d="M 28.733902 244.283371 L 34.936375 295.826965 " />
<path stroke-linejoin="round" stroke-linecap="round" stroke="rgb(0,0,255)" stroke-width="1.874998" fill="none" d="M 0.000000 750.000000 L 30.612253 0.000000 " />
<path stroke-linejoin="round" stroke-linecap="round" stroke="rgb(255,0,0)" stroke-width="3.749996" fill="none" d="M 22.714197 193.502426 L 28.733902 244.283371 " />
<path stroke-linejoin="round" stroke-linecap="round" stroke="rgb(0,0,255)" stroke-width="1.874998" fill="none" d="M 0.000000 750.000000 L 28.301888 0.000000 " />
<path stroke-linejoin="round" stroke-linecap="round" stroke="rgb(255,0,0)" stroke-width="3.749996" fill="none" d="M 21.369339 183.712646 L 22.714197 193.502426 " />
<path stroke-linejoin="round" stroke-linecap="round" stroke="rgb(0,0,255)" stroke-width="1.874998" fill="none" d="M 0.000000 750.000000 L 27.272724 0.000000 " />
<path stroke-linejoin="round" stroke-linecap="round" stroke="rgb(255,0,0)" stroke-width="3.749996" fill="none" d="M 20.749928 179.376846 L 21.369339 183.712616 " />
<path stroke-linejoin="round" stroke-linecap="round" stroke="rgb(0,0,255)" stroke-width="1.874998" fill="none" d="M 0.000000 750.000000 L 26.785725 0.000000 " />
<path stroke-linejoin="round" stroke-linecap="round" stroke="rgb(255,0,0)" stroke-width="3.749996" fill="none" d="M 20.453497 177.301819 L 20.749928 179.376846 " />
<path stroke-linejoin="round" stroke-linecap="round" stroke="rgb(0,0,255)" stroke-width="1.874998" fill="none" d="M 0.000000 750.000000 L 26.315779 0.000000 " />
<path stroke-linejoin="round" stroke-linecap="round" stroke="rgb(255,0,0)" stroke-width="3.749996" fill="none" d="M 20.165428 175.285294 L 20.453497 177.301819 " />
<path stroke-linejoin="round" stroke-linecap="round" stroke="rgb(0,0,255)" stroke-width="1.874998" fill="none" d="M 0.000000 750.000000 L 19.396551 0.000000 " />
<path stroke-linejoin="round" stroke-linecap="round" stroke="rgb(255,0,0)" stroke-width="3.749996" fill="none" d="M 15.832588 137.806305 L 20.165428 175.285355 " />
<path stroke-linejoin="round" stroke-linecap="round" stroke="rgb(0,0,255)" stroke-width="1.874998" fill="none" d="M 0.000000 750.000000 L 12.195110 0.000000 " />
<path stroke-linejoin="round" stroke-linecap="round" stroke="rgb(255,0,0)" stroke-width="3.749996" fill="none" d="M 10.688313 92.668312 L 15.832588 137.806305 " />
<path stroke-linejoin="round" stroke-linecap="round" stroke="rgb(0,0,255)" stroke-width="1.874998" fill="none" d="M 0.000000 750.000000 L 5.639099 0.000000 " />
<path stroke-linejoin="round" stroke-linecap="round" stroke="rgb(255,0,0)" stroke-width="3.749996" fill="none" d="M 5.300335 45.054966 L 10.688313 92.668312 " />
<path stroke-linejoin="round" stroke-linecap="round" stroke="rgb(0,0,255)" stroke-width="1.874998" fill="none" d="M 0.000000 750.000000 L 0.000000 0.000000 " />
<path stroke-linejoin="round" stroke-linecap="round" stroke="rgb(255,0,0)" stroke-width="3.749996" fill="none" d="M 0.000000 0.000000 L 5.300335 45.054966 " />
<circle cx="149.496630" cy="745.469794" r="3.749996" style="fill:rgb(0,127,0);stroke-width:1" /><circle cx="147.924945" cy="740.754694" r="3.749996" style="fill:rgb(0,127,0);stroke-width:1" /><circle cx="146.565355" cy="736.675881" r="3.749996" style="fill:rgb(0,127,0);stroke-width:1" /><circle cx="144.966468" cy="731.879197" r="3.749996" style="fill:rgb(0,127,0);stroke-width:1" /><circle cx="143.302292" cy="726.886734" r="3.749996" style="fill:rgb(0,127,0);stroke-width:1" /><circle cx="142.123975" cy="723.351762" r="3.749996" style="fill:rgb(0,127,0);stroke-width:1" /><circle cx="141.568802" cy="721.686244" r="3.749996" style="fill:rgb(0,127,0);stroke-width:1" /><circle cx="140.436262" cy="718.288578" r="3.749996" style="fill:rgb(0,127,0);stroke-width:1" /><circle cx="138.679639" cy="713.018753" r="3.749996" style="fill:rgb(0,127,0);stroke-width:1" /><circle cx="137.682594" cy="710.027643" r="3.749996" style="fill:rgb(0,127,0);stroke-width:1" /><circle cx="135.906056" cy="704.697981" r="3.749996" style="fill:rgb(0,127,0);stroke-width:1" /><circle cx="134.942181" cy="701.806359" r="3.749996" style="fill:rgb(0,127,0);stroke-width:1" /><circle cx="132.951580" cy="695.834555" r="3.749996" style="fill:rgb(0,127,0);stroke-width:1" /><circle cx="132.130891" cy="693.372466" r="3.749996" style="fill:rgb(0,127,0);stroke-width:1" /><circle cx="130.872488" cy="689.597301" r="3.749996" style="fill:rgb(0,127,0);stroke-width:1" /><circle cx="130.122811" cy="687.348269" r="3.749996" style="fill:rgb(0,127,0);stroke-width:1" /><circle cx="128.698915" cy="683.076560" r="3.749996" style="fill:rgb(0,127,0);stroke-width:1" /><circle cx="126.424246" cy="676.252529" r="3.749996" style="fill:rgb(0,127,0);stroke-width:1" /><circle cx="124.041237" cy="669.103548" r="3.749996" style="fill:rgb(0,127,0);stroke-width:1" /><circle cx="123.550951" cy="667.632692" r="3.749996" style="fill:rgb(0,127,0);stroke-width:1" /><circle cx="121.156566" cy="660.449490" r="3.749996" style="fill:rgb(0,127,0);stroke-width:1" /><circle cx="118.648142" cy="652.924240" r="3.749996" style="fill:rgb(0,127,0);stroke-width:1" /><circle cx="118.403010" cy="652.188823" r="3.749996" style="fill:rgb(0,127,0);stroke-width:1" /><circle cx="115.888886" cy="644.646473" r="3.749996" style="fill:rgb(0,127,0);stroke-width:1" /><circle cx="113.255046" cy="636.744954" r="3.749996" style="fill:rgb(0,127,0);stroke-width:1" /><circle cx="110.492729" cy="628.457978" r="3.749996" style="fill:rgb(0,127,0);stroke-width:1" /><circle cx="107.861951" cy="620.565645" r="3.749996" style="fill:rgb(0,127,0);stroke-width:1" /><circle cx="105.353527" cy="613.040417" r="3.749996" style="fill:rgb(0,127,0);stroke-width:1" /><circle cx="102.959119" cy="605.857238" r="3.749996" style="fill:rgb(0,127,0);stroke-width:1" /><circle cx="100.085847" cy="597.237378" r="3.749996" style="fill:rgb(0,127,0);stroke-width:1" /><circle cx="97.075760" cy="588.207074" r="3.749996" style="fill:rgb(0,127,0);stroke-width:1" /><circle cx="94.818190" cy="581.434339" r="3.749996" style="fill:rgb(0,127,0);stroke-width:1" /><circle cx="91.682665" cy="572.027788" r="3.749996" style="fill:rgb(0,127,0);stroke-width:1" /><circle cx="88.394187" cy="562.162377" r="3.749996" style="fill:rgb(0,127,0);stroke-width:1" /><circle cx="86.289570" cy="555.848479" r="3.749996" style="fill:rgb(0,127,0);stroke-width:1" /><circle cx="82.869552" cy="545.588437" r="3.749996" style="fill:rgb(0,127,0);stroke-width:1" /><circle cx="79.278521" cy="534.815434" r="3.749996" style="fill:rgb(0,127,0);stroke-width:1" /><circle cx="77.344894" cy="529.014554" r="3.749996" style="fill:rgb(0,127,0);stroke-width:1" /><circle cx="73.780619" cy="504.064590" r="3.749996" style="fill:rgb(0,127,0);stroke-width:1" /><circle cx="70.091598" cy="492.997505" r="3.749996" style="fill:rgb(0,127,0);stroke-width:1" /><circle cx="67.030124" cy="471.567214" r="3.749996" style="fill:rgb(0,127,0);stroke-width:1" /><circle cx="63.233815" cy="460.178319" r="3.749996" style="fill:rgb(0,127,0);stroke-width:1" /><circle cx="63.059337" cy="458.956931" r="3.749996" style="fill:rgb(0,127,0);stroke-width:1" /><circle cx="62.637538" cy="457.691520" r="3.749996" style="fill:rgb(0,127,0);stroke-width:1" /><circle cx="61.964013" cy="455.670940" r="3.749996" style="fill:rgb(0,127,0);stroke-width:1" /><circle cx="60.673088" cy="446.634505" r="3.749996" style="fill:rgb(0,127,0);stroke-width:1" /><circle cx="59.193268" cy="442.195024" r="3.749996" style="fill:rgb(0,127,0);stroke-width:1" /><circle cx="57.983480" cy="433.726503" r="3.749996" style="fill:rgb(0,127,0);stroke-width:1" /><circle cx="53.870760" cy="421.388375" r="3.749996" style="fill:rgb(0,127,0);stroke-width:1" /><circle cx="52.451201" cy="411.451399" r="3.749996" style="fill:rgb(0,127,0);stroke-width:1" /><circle cx="50.861768" cy="406.683111" r="3.749996" style="fill:rgb(0,127,0);stroke-width:1" /><circle cx="49.590223" cy="402.868473" r="3.749996" style="fill:rgb(0,127,0);stroke-width:1" /><circle cx="48.436962" cy="394.795668" r="3.749996" style="fill:rgb(0,127,0);stroke-width:1" /><circle cx="47.668107" cy="392.489147" r="3.749996" style="fill:rgb(0,127,0);stroke-width:1" /><circle cx="46.559550" cy="389.163458" r="3.749996" style="fill:rgb(0,127,0);stroke-width:1" /><circle cx="41.352041" cy="348.294460" r="3.749996" style="fill:rgb(0,127,0);stroke-width:1" /><circle cx="34.936376" cy="295.827057" r="3.749996" style="fill:rgb(0,127,0);stroke-width:1" /><circle cx="28.733902" cy="244.283371" r="3.749996" style="fill:rgb(0,127,0);stroke-width:1" /><circle cx="22.714198" cy="193.502426" r="3.749996" style="fill:rgb(0,127,0);stroke-width:1" /><circle cx="21.369338" cy="183.712654" r="3.749996" style="fill:rgb(0,127,0);stroke-width:1" /><circle cx="20.749927" cy="179.376841" r="3.749996" style="fill:rgb(0,127,0);stroke-width:1" /><circle cx="20.453498" cy="177.301817" r="3.749996" style="fill:rgb(0,127,0);stroke-width:1" /><circle cx="20.165429" cy="175.285287" r="3.749996" style="fill:rgb(0,127,0);stroke-width:1" /><circle cx="15.832588" cy="137.806311" r="3.749996" style="fill:rgb(0,127,0);stroke-width:1" /><circle cx="10.688312" cy="92.668310" r="3.749996" style="fill:rgb(0,127,0);stroke-width:1" /><circle cx="5.300336" cy="45.054965" r="3.749996" style="fill:rgb(0,127,0);stroke-width:1" /><circle cx="750.000000" cy="750.000000" r="3.749996" style="fill:rgb(0,127,0);stroke-width:1" /><path stroke-linejoin="round" stroke-linecap="round" stroke="rgb(255,255,255)" stroke-width="3.749996" fill="none" d="M 0.000000 750.000000 L 750.000000 750.000000 M 0.000000 750.000000 L 0.000000 0.000000 " />

</svg>