<svg xmlns="http://www.w3.org/2000/svg" version="1.1" width = "750" height = "750" viewBox = "0 0 750 750"  shape-rendering="crispEdges">
<path stroke-linejoin="round" stroke-linecap="round" stroke="rgb(255,255,0)" stroke-width="3.749996" fill="none" d="M 124.999992 750.000000 L 0.000000 0.000000 " />
<path stroke-linejoin="round" stroke-linecap="round" stroke="rgb(63,63,63)" stroke-width="3.749996" fill="none" d="M 0.000000 0.000000 L 750.000000 750.000000 M 124.999992 750.000000 L 56.818172 0.000000 " />
<path stroke-linejoin="round" stroke-linecap="round" stroke="rgb(191,191,191)" stroke-width="3.749996" fill="none" d="M 0.000000 625.000000 L 124.999992 750.000000 M 0.000000 0.000000 L 68.181824 750.000000 " />
<path stroke-linejoin="round" stroke-linecap="round" stroke="rgb(0,0,255)" stroke-width="1.874998" fill="none" d="M 0.000000 750.000000 L 750.000000 499.999969 " />
<path stroke-linejoin="round" stroke-linecap="round" stroke="rgb(255,0,0)" stroke-width="3.749996" fill="none" d="M 121.323532 709.558838 L 124.999992 750.000000 " />
<path stroke-linejoin="round" stroke-linecap="round" stroke="rgb(0,0,255)" stroke-width="1.874998" fill="none" d="M 0.000000 750.000000 L 750.000000 232.758606 " />
<path stroke-linejoin="round" stroke-linecap="round" stroke="rgb(255,0,0)" stroke-width="3.749996" fill="none" d="M 117.625374 668.879089 L 121.323532 709.558838 " />
<path stroke-linejoin="round" stroke-linecap="round" stroke="rgb(0,0,255)" stroke-width="1.874998" fill="none" d="M 0.000000 750.000000 L 700.000000 0.000000 " />
<path stroke-linejoin="round" stroke-linecap="round" stroke="rgb(255,0,0)" stroke-width="3.749996" fill="none" d="M 113.905327 627.958618 L 117.625351 668.879089 " />
<path stroke-linejoin="round" stroke-linecap="round" stroke="rgb(0,0,255)" stroke-width="1.874998" fill="none" d="M 0.000000 750.000000 L 543.750000 0.000000 " />
<path stroke-linejoin="round" stroke-linecap="round" stroke="rgb(255,0,0)" stroke-width="3.749996" fill="none" d="M 111.072418 596.796692 L 113.905327 627.958618 " />
<path stroke-linejoin="round" stroke-linecap="round" stroke="rgb(0,0,255)" stroke-width="1.874998" fill="none" d="M 0.000000 750.000000 L 506.250000 0.000000 " />
<path stroke-linejoin="round" stroke-linecap="round" stroke="rgb(255,0,0)" stroke-width="3.749996" fill="none" d="M 110.163200 586.795288 L 111.072418 596.796692 " />
<path stroke-linejoin="round" stroke-linecap="round" stroke="rgb(0,0,255)" stroke-width="1.874998" fill="none" d="M 0.000000 750.000000 L 390.000031 0.000000 " />
<path stroke-linejoin="round" stroke-linecap="round" stroke="rgb(255,0,0)" stroke-width="3.749996" fill="none" d="M 106.398781 545.386963 L 110.163177 586.795288 " />
<path stroke-linejoin="round" stroke-linecap="round" stroke="rgb(0,0,255)" stroke-width="1.874998" fill="none" d="M 0.000000 750.000000 L 312.500000 0.000000 " />
<path stroke-linejoin="round" stroke-linecap="round" stroke="rgb(255,0,0)" stroke-width="3.749996" fill="none" d="M 102.611908 503.731415 L 106.398781 545.386963 " />
<path stroke-linejoin="round" stroke-linecap="round" stroke="rgb(0,0,255)" stroke-width="1.874998" fill="none" d="M 0.000000 750.000000 L 257.142853 0.000000 " />
<path stroke-linejoin="round" stroke-linecap="round" stroke="rgb(255,0,0)" stroke-width="3.749996" fill="none" d="M 98.802368 461.826416 L 102.611908 503.731415 " />
<path stroke-linejoin="round" stroke-linecap="round" stroke="rgb(0,0,255)" stroke-width="1.874998" fill="none" d="M 0.000000 750.000000 L 215.625015 0.000000 " />
<path stroke-linejoin="round" stroke-linecap="round" stroke="rgb(255,0,0)" stroke-width="3.749996" fill="none" d="M 94.969933 419.669769 L 98.802368 461.826416 " />
<path stroke-linejoin="round" stroke-linecap="round" stroke="rgb(0,0,255)" stroke-width="1.874998" fill="none" d="M 0.000000 750.000000 L 183.333328 0.000000 " />
<path stroke-linejoin="round" stroke-linecap="round" stroke="rgb(255,0,0)" stroke-width="3.749996" fill="none" d="M 91.114441 377.259125 L 94.969933 419.669769 " />
<path stroke-linejoin="round" stroke-linecap="round" stroke="rgb(0,0,255)" stroke-width="1.874998" fill="none" d="M 0.000000 750.000000 L 172.500015 0.000000 " />
<path stroke-linejoin="round" stroke-linecap="round" stroke="rgb(255,0,0)" stroke-width="3.749996" fill="none" d="M 89.589226 360.481659 L 91.114441 377.259125 " />
<path stroke-linejoin="round" stroke-linecap="round" stroke="rgb(0,0,255)" stroke-width="1.874998" fill="none" d="M 0.000000 750.000000 L 157.500000 0.000000 " />
<path stroke-linejoin="round" stroke-linecap="round" stroke="rgb(255,0,0)" stroke-width="3.749996" fill="none" d="M 87.235626 334.592255 L 89.589226 360.481659 " />
<path stroke-linejoin="round" stroke-linecap="round" stroke="rgb(0,0,255)" stroke-width="1.874998" fill="none" d="M 0.000000 750.000000 L 136.363647 0.000000 " />
<path stroke-linejoin="round" stroke-linecap="round" stroke="rgb(255,0,0)" stroke-width="3.749996" fill="none" d="M 83.333305 291.666779 L 87.235626 334.592255 " />
<path stroke-linejoin="round" stroke-linecap="round" stroke="rgb(0,0,255)" stroke-width="1.874998" fill="none" d="M 0.000000 750.000000 L 131.250015 0.000000 " />
<path stroke-linejoin="round" stroke-linecap="round" stroke="rgb(255,0,0)" stroke-width="3.749996" fill="none" d="M 82.264938 279.914673 L 83.333305 291.666779 " />
<path stroke-linejoin="round" stroke-linecap="round" stroke="rgb(0,0,255)" stroke-width="1.874998" fill="none" d="M 0.000000 750.000000 L 115.384605 0.000000 " />
<path stroke-linejoin="round" stroke-linecap="round" stroke="rgb(255,0,0)" stroke-width="3.749996" fill="none" d="M 78.571404 239.285950 L 82.264915 279.914703 " />
<path stroke-linejoin="round" stroke-linecap="round" stroke="rgb(0,0,255)" stroke-width="1.874998" fill="none" d="M 0.000000 750.000000 L 112.500008 0.000000 " />
<path stroke-linejoin="round" stroke-linecap="round" stroke="rgb(255,0,0)" stroke-width="3.749996" fill="none" d="M 77.830154 231.132248 L 78.571404 239.285950 " />
<path stroke-linejoin="round" stroke-linecap="round" stroke="rgb(0,0,255)" stroke-width="1.874998" fill="none" d="M 0.000000 750.000000 L 99.999992 0.000000 " />
<path stroke-linejoin="round" stroke-linecap="round" stroke="rgb(255,0,0)" stroke-width="3.749996" fill="none" d="M 74.324303 192.567719 L 77.830170 231.132248 " />
<path stroke-linejoin="round" stroke-linecap="round" stroke="rgb(0,0,255)" stroke-width="1.874998" fill="none" d="M 0.000000 750.000000 L 89.062508 0.000000 " />
<path stroke-linejoin="round" stroke-linecap="round" stroke="rgb(255,0,0)" stroke-width="3.749996" fill="none" d="M 70.799431 153.794174 L 74.324303 192.567719 " />
<path stroke-linejoin="round" stroke-linecap="round" stroke="rgb(0,0,255)" stroke-width="1.874998" fill="none" d="M 0.000000 750.000000 L 79.411758 0.000000 " />
<path stroke-linejoin="round" stroke-linecap="round" stroke="rgb(255,0,0)" stroke-width="3.749996" fill="none" d="M 67.255409 114.809921 L 70.799431 153.794174 " />
<path stroke-linejoin="round" stroke-linecap="round" stroke="rgb(0,0,255)" stroke-width="1.874998" fill="none" d="M 0.000000 750.000000 L 79.166672 0.000000 " />
<path stroke-linejoin="round" stroke-linecap="round" stroke="rgb(255,0,0)" stroke-width="3.749996" fill="none" d="M 67.159363 113.753380 L 67.255409 114.809921 " />
<path stroke-linejoin="round" stroke-linecap="round" stroke="rgb(0,0,255)" stroke-width="1.874998" fill="none" d="M 0.000000 750.000000 L 70.833344 0.000000 " />
<path stroke-linejoin="round" stroke-linecap="round" stroke="rgb(255,0,0)" stroke-width="3.749996" fill="none" d="M 63.692093 75.613258 L 67.159363 113.753380 " />
<path stroke-linejoin="round" stroke-linecap="round" stroke="rgb(0,0,255)" stroke-width="1.874998" fill="none" d="M 0.000000 750.000000 L 63.750008 0.000000 " />
<path stroke-linejoin="round" stroke-linecap="round" stroke="rgb(255,0,0)" stroke-width="3.749996" fill="none" d="M 58.755756 58.755756 L 63.692093 75.613258 " />
<path stroke-linejoin="round" stroke-linecap="round" stroke="rgb(0,0,255)" stroke-width="1.874998" fill="none" d="M 0.000000 750.000000 L 57.142853 0.000000 " />
<path stroke-linejoin="round" stroke-linecap="round" stroke="rgb(255,0,0)" stroke-width="3.749996" fill="none" d="M 53.097343 53.097301 L 58.755756 58.755688 " />
<path stroke-linejoin="round" stroke-linecap="round" stroke="rgb(0,0,255)" stroke-width="1.874998" fill="none" d="M 0.000000 750.000000 L 54.611652 0.000000 " />
<path stroke-linejoin="round" stroke-linecap="round" stroke="rgb(255,0,0)" stroke-width="3.749996" fill="none" d="M 50.904976 50.904930 L 53.097343 53.097256 " />
<path stroke-linejoin="round" stroke-linecap="round" stroke="rgb(0,0,255)" stroke-width="1.874998" fill="none" d="M 0.000000 750.000000 L 54.086544 0.000000 " />
<path stroke-linejoin="round" stroke-linecap="round" stroke="rgb(255,0,0)" stroke-width="3.749996" fill="none" d="M 50.448441 50.448418 L 50.904976 50.904930 " />
<path stroke-linejoin="round" stroke-linecap="round" stroke="rgb(0,0,255)" stroke-width="1.874998" fill="none" d="M 0.000000 750.000000 L 51.219509 0.000000 " />
<path stroke-linejoin="round" stroke-linecap="round" stroke="rgb(255,0,0)" stroke-width="3.749996" fill="none" d="M 47.945202 47.945202 L 50.448441 50.448418 " />
<path stroke-linejoin="round" stroke-linecap="round" stroke="rgb(0,0,255)" stroke-width="1.874998" fill="none" d="M 0.000000 750.000000 L 47.330105 0.000000 " />
<path stroke-linejoin="round" stroke-linecap="round" stroke="rgb(255,0,0)" stroke-width="3.749996" fill="none" d="M 44.520557 44.520489 L 47.945202 47.945202 " />
<path stroke-linejoin="round" stroke-linecap="round" stroke="rgb(0,0,255)" stroke-width="1.874998" fill="none" d="M 0.000000 750.000000 L 44.930866 0.000000 " />
<path stroke-linejoin="round" stroke-linecap="round" stroke="rgb(255,0,0)" stroke-width="3.749996" fill="none" d="M 42.391308 42.391308 L 44.520557 44.520489 " />
<path stroke-linejoin="round" stroke-linecap="round" stroke="rgb(0,0,255)" stroke-width="1.874998" fill="none" d="M 0.000000 750.000000 L 42.654030 0.000000 " />
<path stroke-linejoin="round" stroke-linecap="round" stroke="rgb(255,0,0)" stroke-width="3.749996" fill="none" d="M 40.358753 40.358730 L 42.391308 42.391308 " />
<path stroke-linejoin="round" stroke-linecap="round" stroke="rgb(0,0,255)" stroke-width="1.874998" fill="none" d="M 0.000000 750.000000 L 38.915096 0.000000 " />
<path stroke-linejoin="round" stroke-linecap="round" stroke="rgb(255,0,0)" stroke-width="3.749996" fill="none" d="M 36.995506 36.995464 L 40.358753 40.358730 " />
<path stroke-linejoin="round" stroke-linecap="round" stroke="rgb(0,0,255)" stroke-width="1.874998" fill="none" d="M 0.000000 750.000000 L 38.551392 0.000000 " />
<path stroke-linejoin="round" stroke-linecap="round" stroke="rgb(255,0,0)" stroke-width="3.749996" fill="none" d="M 36.666668 36.666759 L 36.995506 36.995464 " />
<path stroke-linejoin="round" stroke-linecap="round" stroke="rgb(0,0,255)" stroke-width="1.874998" fill="none" d="M 0.000000 750.000000 L 34.883717 0.000000 " />
<path stroke-linejoin="round" stroke-linecap="round" stroke="rgb(255,0,0)" stroke-width="3.749996" fill="none" d="M 33.333332 33.333488 L 36.666668 36.666759 " />
<path stroke-linejoin="round" stroke-linecap="round" stroke="rgb(0,0,255)" stroke-width="1.874998" fill="none" d="M 0.000000 750.000000 L 31.249992 0.000000 " />
<path stroke-linejoin="round" stroke-linecap="round" stroke="rgb(255,0,0)" stroke-width="3.749996" fill="none" d="M 29.999994 30.000151 L 33.333332 33.333488 " />
<path stroke-linejoin="round" stroke-linecap="round" stroke="rgb(0,0,255)" stroke-width="1.874998" fill="none" d="M 0.000000 750.000000 L 30.963308 0.000000 " />
<path stroke-linejoin="round" stroke-linecap="round" stroke="rgb(255,0,0)" stroke-width="3.749996" fill="none" d="M 29.735683 29.735796 L 29.999994 30.000151 " />
<path stroke-linejoin="round" stroke-linecap="round" stroke="rgb(0,0,255)" stroke-width="1.874998" fill="none" d="M 0.000000 750.000000 L 27.397268 0.000000 " />
<path stroke-linejoin="round" stroke-linecap="round" stroke="rgb(255,0,0)" stroke-width="3.749996" fill="none" d="M 26.431717 26.431850 L 29.735683 29.735752 " />
<path stroke-linejoin="round" stroke-linecap="round" stroke="rgb(0,0,255)" stroke-width="1.874998" fill="none" d="M 0.000000 750.000000 L 23.863636 0.000000 " />
<path stroke-linejoin="round" stroke-linecap="round" stroke="rgb(255,0,0)" stroke-width="3.749996" fill="none" d="M 23.127750 23.127861 L 26.431717 26.431850 " />
<path stroke-linejoin="round" stroke-linecap="round" stroke="rgb(0,0,255)" stroke-width="1.874998" fill="none" d="M 0.000000 750.000000 L 20.361990 0.000000 " />
<path stroke-linejoin="round" stroke-linecap="round" stroke="rgb(255,0,0)" stroke-width="3.749996" fill="none" d="M 19.823782 19.823915 L 23.127750 23.127861 " />
<path stroke-linejoin="round" stroke-linecap="round" stroke="rgb(0,0,255)" stroke-width="1.874998" fill="none" d="M 0.000000 750.000000 L 16.891882 0.000000 " />
<path stroke-linejoin="round" stroke-linecap="round" stroke="rgb(255,0,0)" stroke-width="3.749996" fill="none" d="M 16.519815 16.519972 L 19.823782 19.823915 " />
<path stroke-linejoin="round" stroke-linecap="round" stroke="rgb(0,0,255)" stroke-width="1.874998" fill="none" d="M 0.000000 750.000000 L 16.741076 0.000000 " />
<path stroke-linejoin="round" stroke-linecap="round" stroke="rgb(255,0,0)" stroke-width="3.749996" fill="none" d="M 16.375534 16.375668 L 16.519815 16.519972 " />
<path stroke-linejoin="round" stroke-linecap="round" stroke="rgb(0,0,255)" stroke-width="1.874998" fill="none" d="M 0.000000 750.000000 L 13.333328 0.000000 " />
<path stroke-linejoin="round" stroke-linecap="round" stroke="rgb(255,0,0)" stroke-width="3.749996" fill="none" d="M 13.100445 13.100513 L 16.375534 16.375668 " />
<path stroke-linejoin="round" stroke-linecap="round" stroke="rgb(0,0,255)" stroke-width="1.874998" fill="none" d="M 0.000000 750.000000 L 13.215870 0.000000 " />
<path stroke-linejoin="round" stroke-linecap="round" stroke="rgb(255,0,0)" stroke-width="3.749996" fill="none" d="M 12.987010 12.987078 L 13.100445 13.100513 " />
<path stroke-linejoin="round" stroke-linecap="round" stroke="rgb(0,0,255)" stroke-width="1.874998" fill="none" d="M 0.000000 750.000000 L 9.868428 0.000000 " />
<path stroke-linejoin="round" stroke-linecap="round" stroke="rgb(255,0,0)" stroke-width="3.749996" fill="none" d="M 9.740263 9.740353 L 12.987010 12.987078 " />
<path stroke-linejoin="round" stroke-linecap="round" stroke="rgb(0,0,255)" stroke-width="1.874998" fill="none" d="M 0.000000 750.000000 L 6.550222 0.000000 " />
<path stroke-linejoin="round" stroke-linecap="round" stroke="rgb(255,0,0)" stroke-width="3.749996" fill="none" d="M 6.493516 6.493561 L 9.740263 9.740353 " />
<path stroke-linejoin="round" stroke-linecap="round" stroke="rgb(0,0,255)" stroke-width="1.874998" fill="none" d="M 0.000000 750.000000 L 3.260873 0.000000 " />
<path stroke-linejoin="round" stroke-linecap="round" stroke="rgb(255,0,0)" stroke-width="3.749996" fill="none" d="M 3.246747 3.246792 L 6.493516 6.493561 " />
<path stroke-linejoin="round" stroke-linecap="round" stroke="rgb(0,0,255)" stroke-width="1.874998" fill="none" d="M 0.000000 750.000000 L 0.000000 0.000000 " />
<path stroke-linejoin="round" stroke-linecap="round" stroke="rgb(255,0,0)" stroke-width="3.749996" fill="none" d="M 0.000000 0.000000 L 3.246747 3.246792 " />
<circle cx="121.323533" cy="709.558815" r="3.749996" style="fill:rgb(0,127,0);stroke-width:1" /><circle cx="117.625371" cy="668.879069" r="3.749996" style="fill:rgb(0,127,0);stroke-width:1" /><circle cx="113.905326" cy="627.958596" r="3.749996" style="fill:rgb(0,127,0);stroke-width:1" /><circle cx="111.072421" cy="596.796669" r="3.749996" style="fill:rgb(0,127,0);stroke-width:1" /><circle cx="110.163197" cy="586.795293" r="3.749996" style="fill:rgb(0,127,0);stroke-width:1" /><circle cx="106.398784" cy="545.386959" r="3.749996" style="fill:rgb(0,127,0);stroke-width:1" /><circle cx="102.611907" cy="503.731403" r="3.749996" style="fill:rgb(0,127,0);stroke-width:1" /><circle cx="98.802365" cy="461.826414" r="3.749996" style="fill:rgb(0,127,0);stroke-width:1" /><circle cx="94.969936" cy="419.669777" r="3.749996" style="fill:rgb(0,127,0);stroke-width:1" /><circle cx="91.114439" cy="377.259135" r="3.749996" style="fill:rgb(0,127,0);stroke-width:1" /><circle cx="89.589223" cy="360.481679" r="3.749996" style="fill:rgb(0,127,0);stroke-width:1" /><circle cx="87.235630" cy="334.592253" r="3.749996" style="fill:rgb(0,127,0);stroke-width:1" /><circle cx="83.333306" cy="291.666778" r="3.749996" style="fill:rgb(0,127,0);stroke-width:1" /><circle cx="82.264937" cy="279.914673" r="3.749996" style="fill:rgb(0,127,0);stroke-width:1" /><circle cx="78.571402" cy="239.285946" r="3.749996" style="fill:rgb(0,127,0);stroke-width:1" /><circle cx="77.830151" cy="231.132265" r="3.749996" style="fill:rgb(0,127,0);stroke-width:1" /><circle cx="74.324302" cy="192.567710" r="3.749996" style="fill:rgb(0,127,0);stroke-width:1" /><circle cx="70.799433" cy="153.794177" r="3.749996" style="fill:rgb(0,127,0);stroke-width:1" /><circle cx="67.255408" cy="114.809923" r="3.749996" style="fill:rgb(0,127,0);stroke-width:1" /><circle cx="67.159362" cy="113.753378" r="3.749996" style="fill:rgb(0,127,0);stroke-width:1" /><circle cx="63.692093" cy="75.613260" r="3.749996" style="fill:rgb(0,127,0);stroke-width:1" /><circle cx="58.755755" cy="58.755755" r="3.749996" style="fill:rgb(0,127,0);stroke-width:1" /><circle cx="53.097345" cy="53.097300" r="3.749996" style="fill:rgb(0,127,0);stroke-width:1" /><circle cx="50.904974" cy="50.904930" r="3.749996" style="fill:rgb(0,127,0);stroke-width:1" /><circle cx="50.448440" cy="50.448418" r="3.749996" style="fill:rgb(0,127,0);stroke-width:1" /><circle cx="47.945201" cy="47.945201" r="3.749996" style="fill:rgb(0,127,0);stroke-width:1" /><circle cx="44.520557" cy="44.520490" r="3.749996" style="fill:rgb(0,127,0);stroke-width:1" /><circle cx="42.391308" cy="42.391308" r="3.749996" style="fill:rgb(0,127,0);stroke-width:1" /><circle cx="40.358752" cy="40.358730" r="3.749996" style="fill:rgb(0,127,0);stroke-width:1" /><circle cx="36.995508" cy="36.995463" r="3.749996" style="fill:rgb(0,127,0);stroke-width:1" /><circle cx="36.666669" cy="36.666758" r="3.749996" style="fill:rgb(0,127,0);stroke-width:1" /><circle cx="33.333331" cy="33.333488" r="3.749996" style="fill:rgb(0,127,0);stroke-width:1" /><circle cx="29.999994" cy="30.000150" r="3.749996" style="fill:rgb(0,127,0);stroke-width:1" /><circle cx="29.735684" cy="29.735796" r="3.749996" style="fill:rgb(0,127,0);stroke-width:1" /><circle cx="26.431717" cy="26.431851" r="3.749996" style="fill:rgb(0,127,0);stroke-width:1" /><circle cx="23.127750" cy="23.127861" r="3.749996" style="fill:rgb(0,127,0);stroke-width:1" /><circle cx="19.823782" cy="19.823916" r="3.749996" style="fill:rgb(0,127,0);stroke-width:1" /><circle cx="16.519815" cy="16.519971" r="3.749996" style="fill:rgb(0,127,0);stroke-width:1" /><circle cx="16.375534" cy="16.375668" r="3.749996" style="fill:rgb(0,127,0);stroke-width:1" /><circle cx="13.100445" cy="13.100512" r="3.749996" style="fill:rgb(0,127,0);stroke-width:1" /><circle cx="12.987010" cy="12.987077" r="3.749996" style="fill:rgb(0,127,0);stroke-width:1" /><circle cx="9.740263" cy="9.740353" r="3.749996" style="fill:rgb(0,127,0);stroke-width:1" /><circle cx="6.493516" cy="6.493561" r="3.749996" style="fill:rgb(0,127,0);stroke-width:1" /><circle cx="3.246725" cy="3.246769" r="3.750008" style="fill:rgb(0,127,0);stroke-width:1" /><circle cx="750.000000" cy="750.000000" r="3.749996" style="fill:rgb(0,127,0);stroke-width:1" /><path stroke-linejoin="round" stroke-linecap="round" stroke="rgb(255,255,255)" stroke-width="3.749996" fill="none" d="M 0.000000 750.000000 L 750.000000 750.000000 M 0.000000 750.000000 L 0.000000 0.000000 " />

</svg>