<svg xmlns="http://www.w3.org/2000/svg" version="1.1" width = "750" height = "750" viewBox = "0 0 750 750"  shape-rendering="crispEdges">
<path stroke-linejoin="round" stroke-linecap="round" stroke="rgb(255,255,0)" stroke-width="3.749996" fill="none" d="M 74.999992 750.000000 L 0.000000 0.000000 " />
<path stroke-linejoin="round" stroke-linecap="round" stroke="rgb(63,63,63)" stroke-width="3.749996" fill="none" d="M 0.000000 0.000000 L 750.000000 750.000000 M 74.999992 750.000000 L 35.526306 0.000000 " />
<path stroke-linejoin="round" stroke-linecap="round" stroke="rgb(191,191,191)" stroke-width="3.749996" fill="none" d="M 0.000000 675.000000 L 74.999992 750.000000 M 0.000000 0.000000 L 39.473690 750.000000 " />
<path stroke-linejoin="round" stroke-linecap="round" stroke="rgb(0,0,255)" stroke-width="1.874998" fill="none" d="M 0.000000 750.000000 L 750.000000 571.428589 " />
<path stroke-linejoin="round" stroke-linecap="round" stroke="rgb(255,0,0)" stroke-width="3.749996" fill="none" d="M 74.071793 732.363831 L 74.999992 750.000000 " />
<path stroke-linejoin="round" stroke-linecap="round" stroke="rgb(0,0,255)" stroke-width="1.874998" fill="none" d="M 0.000000 750.000000 L 750.000000 384.146332 " />
<path stroke-linejoin="round" stroke-linecap="round" stroke="rgb(255,0,0)" stroke-width="3.749996" fill="none" d="M 72.837685 714.469421 L 74.071793 732.363831 " />
<path stroke-linejoin="round" stroke-linecap="round" stroke="rgb(0,0,255)" stroke-width="1.874998" fill="none" d="M 0.000000 750.000000 L 750.000000 187.500000 " />
<path stroke-linejoin="round" stroke-linecap="round" stroke="rgb(255,0,0)" stroke-width="3.749996" fill="none" d="M 71.585388 696.310913 L 72.837685 714.469421 " />
<path stroke-linejoin="round" stroke-linecap="round" stroke="rgb(0,0,255)" stroke-width="1.874998" fill="none" d="M 0.000000 750.000000 L 731.250000 0.000000 " />
<path stroke-linejoin="round" stroke-linecap="round" stroke="rgb(255,0,0)" stroke-width="3.749996" fill="none" d="M 70.314468 677.882568 L 71.585388 696.310913 " />
<path stroke-linejoin="round" stroke-linecap="round" stroke="rgb(0,0,255)" stroke-width="1.874998" fill="none" d="M 0.000000 750.000000 L 600.000000 0.000000 " />
<path stroke-linejoin="round" stroke-linecap="round" stroke="rgb(255,0,0)" stroke-width="3.749996" fill="none" d="M 69.312843 663.358948 L 70.314468 677.882568 " />
<path stroke-linejoin="round" stroke-linecap="round" stroke="rgb(0,0,255)" stroke-width="1.874998" fill="none" d="M 0.000000 750.000000 L 570.000000 0.000000 " />
<path stroke-linejoin="round" stroke-linecap="round" stroke="rgb(255,0,0)" stroke-width="3.749996" fill="none" d="M 69.024506 659.178284 L 69.312843 663.358948 " />
<path stroke-linejoin="round" stroke-linecap="round" stroke="rgb(0,0,255)" stroke-width="1.874998" fill="none" d="M 0.000000 750.000000 L 462.500000 0.000000 " />
<path stroke-linejoin="round" stroke-linecap="round" stroke="rgb(255,0,0)" stroke-width="3.749996" fill="none" d="M 67.715096 640.191772 L 69.024506 659.178284 " />
<path stroke-linejoin="round" stroke-linecap="round" stroke="rgb(0,0,255)" stroke-width="1.874998" fill="none" d="M 0.000000 750.000000 L 385.714294 0.000000 " />
<path stroke-linejoin="round" stroke-linecap="round" stroke="rgb(255,0,0)" stroke-width="3.749996" fill="none" d="M 66.385765 620.916565 L 67.715096 640.191772 " />
<path stroke-linejoin="round" stroke-linecap="round" stroke="rgb(0,0,255)" stroke-width="1.874998" fill="none" d="M 0.000000 750.000000 L 346.875000 0.000000 " />
<path stroke-linejoin="round" stroke-linecap="round" stroke="rgb(255,0,0)" stroke-width="3.749996" fill="none" d="M 65.518318 608.338745 L 66.385765 620.916565 " />
<path stroke-linejoin="round" stroke-linecap="round" stroke="rgb(0,0,255)" stroke-width="1.874998" fill="none" d="M 0.000000 750.000000 L 300.000000 0.000000 " />
<path stroke-linejoin="round" stroke-linecap="round" stroke="rgb(255,0,0)" stroke-width="3.749996" fill="none" d="M 64.216286 589.459229 L 65.518318 608.338745 " />
<path stroke-linejoin="round" stroke-linecap="round" stroke="rgb(0,0,255)" stroke-width="1.874998" fill="none" d="M 0.000000 750.000000 L 262.500000 0.000000 " />
<path stroke-linejoin="round" stroke-linecap="round" stroke="rgb(255,0,0)" stroke-width="3.749996" fill="none" d="M 62.894962 570.300110 L 64.216286 589.459229 " />
<path stroke-linejoin="round" stroke-linecap="round" stroke="rgb(0,0,255)" stroke-width="1.874998" fill="none" d="M 0.000000 750.000000 L 231.818192 0.000000 " />
<path stroke-linejoin="round" stroke-linecap="round" stroke="rgb(255,0,0)" stroke-width="3.749996" fill="none" d="M 61.553925 550.854919 L 62.894962 570.300110 " />
<path stroke-linejoin="round" stroke-linecap="round" stroke="rgb(0,0,255)" stroke-width="1.874998" fill="none" d="M 0.000000 750.000000 L 218.750000 0.000000 " />
<path stroke-linejoin="round" stroke-linecap="round" stroke="rgb(255,0,0)" stroke-width="3.749996" fill="none" d="M 60.890347 541.233093 L 61.553925 550.854919 " />
<path stroke-linejoin="round" stroke-linecap="round" stroke="rgb(0,0,255)" stroke-width="1.874998" fill="none" d="M 0.000000 750.000000 L 206.250000 0.000000 " />
<path stroke-linejoin="round" stroke-linecap="round" stroke="rgb(255,0,0)" stroke-width="3.749996" fill="none" d="M 60.192726 531.117371 L 60.890347 541.233093 " />
<path stroke-linejoin="round" stroke-linecap="round" stroke="rgb(0,0,255)" stroke-width="1.874998" fill="none" d="M 0.000000 750.000000 L 184.615372 0.000000 " />
<path stroke-linejoin="round" stroke-linecap="round" stroke="rgb(255,0,0)" stroke-width="3.749996" fill="none" d="M 58.810875 511.080811 L 60.192726 531.117371 " />
<path stroke-linejoin="round" stroke-linecap="round" stroke="rgb(0,0,255)" stroke-width="1.874998" fill="none" d="M 0.000000 750.000000 L 166.071426 0.000000 " />
<path stroke-linejoin="round" stroke-linecap="round" stroke="rgb(255,0,0)" stroke-width="3.749996" fill="none" d="M 57.407944 490.738251 L 58.810875 511.080811 " />
<path stroke-linejoin="round" stroke-linecap="round" stroke="rgb(0,0,255)" stroke-width="1.874998" fill="none" d="M 0.000000 750.000000 L 149.999985 0.000000 " />
<path stroke-linejoin="round" stroke-linecap="round" stroke="rgb(255,0,0)" stroke-width="3.749996" fill="none" d="M 55.983448 470.082794 L 57.407967 490.738251 " />
<path stroke-linejoin="round" stroke-linecap="round" stroke="rgb(0,0,255)" stroke-width="1.874998" fill="none" d="M 0.000000 750.000000 L 135.937485 0.000000 " />
<path stroke-linejoin="round" stroke-linecap="round" stroke="rgb(255,0,0)" stroke-width="3.749996" fill="none" d="M 54.536842 449.107056 L 55.983448 470.082794 " />
<path stroke-linejoin="round" stroke-linecap="round" stroke="rgb(0,0,255)" stroke-width="1.874998" fill="none" d="M 0.000000 750.000000 L 123.529404 0.000000 " />
<path stroke-linejoin="round" stroke-linecap="round" stroke="rgb(255,0,0)" stroke-width="3.749996" fill="none" d="M 53.067638 427.803680 L 54.536842 449.107056 " />
<path stroke-linejoin="round" stroke-linecap="round" stroke="rgb(0,0,255)" stroke-width="1.874998" fill="none" d="M 0.000000 750.000000 L 120.833336 0.000000 " />
<path stroke-linejoin="round" stroke-linecap="round" stroke="rgb(255,0,0)" stroke-width="3.749996" fill="none" d="M 52.720451 422.769562 L 53.067638 427.803680 " />
<path stroke-linejoin="round" stroke-linecap="round" stroke="rgb(0,0,255)" stroke-width="1.874998" fill="none" d="M 0.000000 750.000000 L 110.526321 0.000000 " />
<path stroke-linejoin="round" stroke-linecap="round" stroke="rgb(255,0,0)" stroke-width="3.749996" fill="none" d="M 51.286854 401.982117 L 52.720451 422.769562 " />
<path stroke-linejoin="round" stroke-linecap="round" stroke="rgb(0,0,255)" stroke-width="1.874998" fill="none" d="M 0.000000 750.000000 L 108.749985 0.000000 " />
<path stroke-linejoin="round" stroke-linecap="round" stroke="rgb(255,0,0)" stroke-width="3.749996" fill="none" d="M 51.021179 398.129852 L 51.286854 401.982117 " />
<path stroke-linejoin="round" stroke-linecap="round" stroke="rgb(0,0,255)" stroke-width="1.874998" fill="none" d="M 0.000000 750.000000 L 101.249992 0.000000 " />
<path stroke-linejoin="round" stroke-linecap="round" stroke="rgb(255,0,0)" stroke-width="3.749996" fill="none" d="M 49.831421 380.878418 L 51.021179 398.129852 " />
<path stroke-linejoin="round" stroke-linecap="round" stroke="rgb(0,0,255)" stroke-width="1.874998" fill="none" d="M 0.000000 750.000000 L 99.999992 0.000000 " />
<path stroke-linejoin="round" stroke-linecap="round" stroke="rgb(255,0,0)" stroke-width="3.749996" fill="none" d="M 49.621693 377.837341 L 49.831421 380.878418 " />
<path stroke-linejoin="round" stroke-linecap="round" stroke="rgb(0,0,255)" stroke-width="1.874998" fill="none" d="M 0.000000 750.000000 L 97.014915 0.000000 " />
<path stroke-linejoin="round" stroke-linecap="round" stroke="rgb(255,0,0)" stroke-width="3.749996" fill="none" d="M 48.756191 373.077148 L 49.621693 377.837341 " />
<path stroke-linejoin="round" stroke-linecap="round" stroke="rgb(0,0,255)" stroke-width="1.874998" fill="none" d="M 0.000000 750.000000 L 95.971565 0.000000 " />
<path stroke-linejoin="round" stroke-linecap="round" stroke="rgb(255,0,0)" stroke-width="3.749996" fill="none" d="M 48.572548 370.414459 L 48.756191 373.077179 " />
<path stroke-linejoin="round" stroke-linecap="round" stroke="rgb(0,0,255)" stroke-width="1.874998" fill="none" d="M 0.000000 750.000000 L 91.911774 0.000000 " />
<path stroke-linejoin="round" stroke-linecap="round" stroke="rgb(255,0,0)" stroke-width="3.749996" fill="none" d="M 47.345146 363.663696 L 48.572548 370.414459 " />
<path stroke-linejoin="round" stroke-linecap="round" stroke="rgb(0,0,255)" stroke-width="1.874998" fill="none" d="M 0.000000 750.000000 L 87.804886 0.000000 " />
<path stroke-linejoin="round" stroke-linecap="round" stroke="rgb(255,0,0)" stroke-width="3.749996" fill="none" d="M 46.058247 356.585846 L 47.345123 363.663727 " />
<path stroke-linejoin="round" stroke-linecap="round" stroke="rgb(0,0,255)" stroke-width="1.874998" fill="none" d="M 0.000000 750.000000 L 83.737854 0.000000 " />
<path stroke-linejoin="round" stroke-linecap="round" stroke="rgb(255,0,0)" stroke-width="3.749996" fill="none" d="M 44.736519 349.316406 L 46.058247 356.585876 " />
<path stroke-linejoin="round" stroke-linecap="round" stroke="rgb(0,0,255)" stroke-width="1.874998" fill="none" d="M 0.000000 750.000000 L 79.710159 0.000000 " />
<path stroke-linejoin="round" stroke-linecap="round" stroke="rgb(255,0,0)" stroke-width="3.749996" fill="none" d="M 43.378517 341.847504 L 44.736519 349.316406 " />
<path stroke-linejoin="round" stroke-linecap="round" stroke="rgb(0,0,255)" stroke-width="1.874998" fill="none" d="M 0.000000 750.000000 L 78.947380 0.000000 " />
<path stroke-linejoin="round" stroke-linecap="round" stroke="rgb(255,0,0)" stroke-width="3.749996" fill="none" d="M 43.115616 340.401581 L 43.378517 341.847504 " />
<path stroke-linejoin="round" stroke-linecap="round" stroke="rgb(0,0,255)" stroke-width="1.874998" fill="none" d="M 0.000000 750.000000 L 78.199043 0.000000 " />
<path stroke-linejoin="round" stroke-linecap="round" stroke="rgb(255,0,0)" stroke-width="3.749996" fill="none" d="M 42.855888 338.973053 L 43.115616 340.401581 " />
<path stroke-linejoin="round" stroke-linecap="round" stroke="rgb(0,0,255)" stroke-width="1.874998" fill="none" d="M 0.000000 750.000000 L 74.292450 0.000000 " />
<path stroke-linejoin="round" stroke-linecap="round" stroke="rgb(255,0,0)" stroke-width="3.749996" fill="none" d="M 41.469990 331.350586 L 42.855888 338.973053 " />
<path stroke-linejoin="round" stroke-linecap="round" stroke="rgb(0,0,255)" stroke-width="1.874998" fill="none" d="M 0.000000 750.000000 L 70.422539 0.000000 " />
<path stroke-linejoin="round" stroke-linecap="round" stroke="rgb(255,0,0)" stroke-width="3.749996" fill="none" d="M 40.045471 323.515717 L 41.469990 331.350586 " />
<path stroke-linejoin="round" stroke-linecap="round" stroke="rgb(0,0,255)" stroke-width="1.874998" fill="none" d="M 0.000000 750.000000 L 69.767433 0.000000 " />
<path stroke-linejoin="round" stroke-linecap="round" stroke="rgb(255,0,0)" stroke-width="3.749996" fill="none" d="M 39.799042 322.160339 L 40.045471 323.515717 " />
<path stroke-linejoin="round" stroke-linecap="round" stroke="rgb(0,0,255)" stroke-width="1.874998" fill="none" d="M 0.000000 750.000000 L 69.124413 0.000000 " />
<path stroke-linejoin="round" stroke-linecap="round" stroke="rgb(255,0,0)" stroke-width="3.749996" fill="none" d="M 39.555611 320.821533 L 39.799042 322.160339 " />
<path stroke-linejoin="round" stroke-linecap="round" stroke="rgb(0,0,255)" stroke-width="1.874998" fill="none" d="M 0.000000 750.000000 L 65.366974 0.000000 " />
<path stroke-linejoin="round" stroke-linecap="round" stroke="rgb(255,0,0)" stroke-width="3.749996" fill="none" d="M 38.102188 312.827637 L 39.555611 320.821533 " />
<path stroke-linejoin="round" stroke-linecap="round" stroke="rgb(0,0,255)" stroke-width="1.874998" fill="none" d="M 0.000000 750.000000 L 64.772736 0.000000 " />
<path stroke-linejoin="round" stroke-linecap="round" stroke="rgb(255,0,0)" stroke-width="3.749996" fill="none" d="M 37.867336 311.536041 L 38.102165 312.827698 " />
<path stroke-linejoin="round" stroke-linecap="round" stroke="rgb(0,0,255)" stroke-width="1.874998" fill="none" d="M 0.000000 750.000000 L 61.643826 0.000000 " />
<path stroke-linejoin="round" stroke-linecap="round" stroke="rgb(255,0,0)" stroke-width="3.749996" fill="none" d="M 36.607594 304.607513 L 37.867336 311.536041 " />
<path stroke-linejoin="round" stroke-linecap="round" stroke="rgb(0,0,255)" stroke-width="1.874998" fill="none" d="M 0.000000 750.000000 L 61.085968 0.000000 " />
<path stroke-linejoin="round" stroke-linecap="round" stroke="rgb(255,0,0)" stroke-width="3.749996" fill="none" d="M 36.378799 303.349213 L 36.607594 304.607574 " />
<path stroke-linejoin="round" stroke-linecap="round" stroke="rgb(0,0,255)" stroke-width="1.874998" fill="none" d="M 0.000000 750.000000 L 60.538128 0.000000 " />
<path stroke-linejoin="round" stroke-linecap="round" stroke="rgb(255,0,0)" stroke-width="3.749996" fill="none" d="M 36.152847 302.106445 L 36.378799 303.349213 " />
<path stroke-linejoin="round" stroke-linecap="round" stroke="rgb(0,0,255)" stroke-width="1.874998" fill="none" d="M 0.000000 750.000000 L 56.919651 0.000000 " />
<path stroke-linejoin="round" stroke-linecap="round" stroke="rgb(255,0,0)" stroke-width="3.749996" fill="none" d="M 34.628281 293.721436 L 36.152847 302.106445 " />
<path stroke-linejoin="round" stroke-linecap="round" stroke="rgb(0,0,255)" stroke-width="1.874998" fill="none" d="M 0.000000 750.000000 L 56.415932 0.000000 " />
<path stroke-linejoin="round" stroke-linecap="round" stroke="rgb(255,0,0)" stroke-width="3.749996" fill="none" d="M 34.411533 292.529144 L 34.628281 293.721436 " />
<path stroke-linejoin="round" stroke-linecap="round" stroke="rgb(0,0,255)" stroke-width="1.874998" fill="none" d="M 0.000000 750.000000 L 55.921062 0.000000 " />
<path stroke-linejoin="round" stroke-linecap="round" stroke="rgb(255,0,0)" stroke-width="3.749996" fill="none" d="M 34.197449 291.351776 L 34.411533 292.529114 " />
<path stroke-linejoin="round" stroke-linecap="round" stroke="rgb(0,0,255)" stroke-width="1.874998" fill="none" d="M 0.000000 750.000000 L 55.434780 0.000000 " />
<path stroke-linejoin="round" stroke-linecap="round" stroke="rgb(255,0,0)" stroke-width="3.749996" fill="none" d="M 33.986046 290.188965 L 34.197449 291.351776 " />
<path stroke-linejoin="round" stroke-linecap="round" stroke="rgb(0,0,255)" stroke-width="1.874998" fill="none" d="M 0.000000 750.000000 L 54.956898 0.000000 " />
<path stroke-linejoin="round" stroke-linecap="round" stroke="rgb(255,0,0)" stroke-width="3.749996" fill="none" d="M 33.777214 289.040436 L 33.986046 290.188965 " />
<path stroke-linejoin="round" stroke-linecap="round" stroke="rgb(0,0,255)" stroke-width="1.874998" fill="none" d="M 0.000000 750.000000 L 51.502148 0.000000 " />
<path stroke-linejoin="round" stroke-linecap="round" stroke="rgb(255,0,0)" stroke-width="3.749996" fill="none" d="M 32.235973 280.563599 L 33.777214 289.040436 " />
<path stroke-linejoin="round" stroke-linecap="round" stroke="rgb(0,0,255)" stroke-width="1.874998" fill="none" d="M 0.000000 750.000000 L 48.076920 0.000000 " />
<path stroke-linejoin="round" stroke-linecap="round" stroke="rgb(255,0,0)" stroke-width="3.749996" fill="none" d="M 30.650898 271.845764 L 32.235973 280.563599 " />
<path stroke-linejoin="round" stroke-linecap="round" stroke="rgb(0,0,255)" stroke-width="1.874998" fill="none" d="M 0.000000 750.000000 L 47.669491 0.000000 " />
<path stroke-linejoin="round" stroke-linecap="round" stroke="rgb(255,0,0)" stroke-width="3.749996" fill="none" d="M 30.458450 270.787170 L 30.650898 271.845764 " />
<path stroke-linejoin="round" stroke-linecap="round" stroke="rgb(0,0,255)" stroke-width="1.874998" fill="none" d="M 0.000000 750.000000 L 44.303791 0.000000 " />
<path stroke-linejoin="round" stroke-linecap="round" stroke="rgb(255,0,0)" stroke-width="3.749996" fill="none" d="M 28.835289 261.859833 L 30.458450 270.787170 " />
<path stroke-linejoin="round" stroke-linecap="round" stroke="rgb(0,0,255)" stroke-width="1.874998" fill="none" d="M 0.000000 750.000000 L 43.933064 0.000000 " />
<path stroke-linejoin="round" stroke-linecap="round" stroke="rgb(255,0,0)" stroke-width="3.749996" fill="none" d="M 28.652786 260.856049 L 28.835289 261.859833 " />
<path stroke-linejoin="round" stroke-linecap="round" stroke="rgb(0,0,255)" stroke-width="1.874998" fill="none" d="M 0.000000 750.000000 L 43.568462 0.000000 " />
<path stroke-linejoin="round" stroke-linecap="round" stroke="rgb(255,0,0)" stroke-width="3.749996" fill="none" d="M 28.472588 259.864960 L 28.652786 260.856049 " />
<path stroke-linejoin="round" stroke-linecap="round" stroke="rgb(0,0,255)" stroke-width="1.874998" fill="none" d="M 0.000000 750.000000 L 43.209873 0.000000 " />
<path stroke-linejoin="round" stroke-linecap="round" stroke="rgb(255,0,0)" stroke-width="3.749996" fill="none" d="M 28.294622 258.886200 L 28.472588 259.864960 " />
<path stroke-linejoin="round" stroke-linecap="round" stroke="rgb(0,0,255)" stroke-width="1.874998" fill="none" d="M 0.000000 750.000000 L 39.959015 0.000000 " />
<path stroke-linejoin="round" stroke-linecap="round" stroke="rgb(255,0,0)" stroke-width="3.749996" fill="none" d="M 26.648327 249.831543 L 28.294622 258.886200 " />
<path stroke-linejoin="round" stroke-linecap="round" stroke="rgb(0,0,255)" stroke-width="1.874998" fill="none" d="M 0.000000 750.000000 L 36.734684 0.000000 " />
<path stroke-linejoin="round" stroke-linecap="round" stroke="rgb(255,0,0)" stroke-width="3.749996" fill="none" d="M 24.954378 240.514816 L 26.648327 249.831543 " />
<path stroke-linejoin="round" stroke-linecap="round" stroke="rgb(0,0,255)" stroke-width="1.874998" fill="none" d="M 0.000000 750.000000 L 36.437252 0.000000 " />
<path stroke-linejoin="round" stroke-linecap="round" stroke="rgb(255,0,0)" stroke-width="3.749996" fill="none" d="M 24.794922 239.637848 L 24.954378 240.514816 " />
<path stroke-linejoin="round" stroke-linecap="round" stroke="rgb(0,0,255)" stroke-width="1.874998" fill="none" d="M 0.000000 750.000000 L 36.144577 0.000000 " />
<path stroke-linejoin="round" stroke-linecap="round" stroke="rgb(255,0,0)" stroke-width="3.749996" fill="none" d="M 24.637499 238.771988 L 24.794922 239.637848 " />
<path stroke-linejoin="round" stroke-linecap="round" stroke="rgb(0,0,255)" stroke-width="1.874998" fill="none" d="M 0.000000 750.000000 L 35.856575 0.000000 " />
<path stroke-linejoin="round" stroke-linecap="round" stroke="rgb(255,0,0)" stroke-width="3.749996" fill="none" d="M 24.482063 237.917007 L 24.637499 238.771988 " />
<path stroke-linejoin="round" stroke-linecap="round" stroke="rgb(0,0,255)" stroke-width="1.874998" fill="none" d="M 0.000000 750.000000 L 33.000000 0.000000 " />
<path stroke-linejoin="round" stroke-linecap="round" stroke="rgb(255,0,0)" stroke-width="3.749996" fill="none" d="M 22.911674 229.279984 L 24.482063 237.917007 " />
<path stroke-linejoin="round" stroke-linecap="round" stroke="rgb(0,0,255)" stroke-width="1.874998" fill="none" d="M 0.000000 750.000000 L 29.880480 0.000000 " />
<path stroke-linejoin="round" stroke-linecap="round" stroke="rgb(255,0,0)" stroke-width="3.749996" fill="none" d="M 21.135115 219.508835 L 22.911674 229.280014 " />
<path stroke-linejoin="round" stroke-linecap="round" stroke="rgb(0,0,255)" stroke-width="1.874998" fill="none" d="M 0.000000 750.000000 L 29.644266 0.000000 " />
<path stroke-linejoin="round" stroke-linecap="round" stroke="rgb(255,0,0)" stroke-width="3.749996" fill="none" d="M 20.997875 218.754044 L 21.135115 219.508835 " />
<path stroke-linejoin="round" stroke-linecap="round" stroke="rgb(0,0,255)" stroke-width="1.874998" fill="none" d="M 0.000000 750.000000 L 29.411762 0.000000 " />
<path stroke-linejoin="round" stroke-linecap="round" stroke="rgb(255,0,0)" stroke-width="3.749996" fill="none" d="M 20.862400 218.008942 L 20.997875 218.754044 " />
<path stroke-linejoin="round" stroke-linecap="round" stroke="rgb(0,0,255)" stroke-width="1.874998" fill="none" d="M 0.000000 750.000000 L 29.182880 0.000000 " />
<path stroke-linejoin="round" stroke-linecap="round" stroke="rgb(255,0,0)" stroke-width="3.749996" fill="none" d="M 20.728670 217.273376 L 20.862400 218.008942 " />
<path stroke-linejoin="round" stroke-linecap="round" stroke="rgb(0,0,255)" stroke-width="1.874998" fill="none" d="M 0.000000 750.000000 L 28.957531 0.000000 " />
<path stroke-linejoin="round" stroke-linecap="round" stroke="rgb(255,0,0)" stroke-width="3.749996" fill="none" d="M 20.596638 216.547256 L 20.728670 217.273376 " />
<path stroke-linejoin="round" stroke-linecap="round" stroke="rgb(0,0,255)" stroke-width="1.874998" fill="none" d="M 0.000000 750.000000 L 28.735622 0.000000 " />
<path stroke-linejoin="round" stroke-linecap="round" stroke="rgb(255,0,0)" stroke-width="3.749996" fill="none" d="M 20.466284 215.830246 L 20.596638 216.547256 " />
<path stroke-linejoin="round" stroke-linecap="round" stroke="rgb(0,0,255)" stroke-width="1.874998" fill="none" d="M 0.000000 750.000000 L 28.517113 0.000000 " />
<path stroke-linejoin="round" stroke-linecap="round" stroke="rgb(255,0,0)" stroke-width="3.749996" fill="none" d="M 20.337559 215.122330 L 20.466284 215.830246 " />
<path stroke-linejoin="round" stroke-linecap="round" stroke="rgb(0,0,255)" stroke-width="1.874998" fill="none" d="M 0.000000 750.000000 L 28.301888 0.000000 " />
<path stroke-linejoin="round" stroke-linecap="round" stroke="rgb(255,0,0)" stroke-width="3.749996" fill="none" d="M 20.210445 214.423233 L 20.337559 215.122330 " />
<path stroke-linejoin="round" stroke-linecap="round" stroke="rgb(0,0,255)" stroke-width="1.874998" fill="none" d="M 0.000000 750.000000 L 28.089882 0.000000 " />
<path stroke-linejoin="round" stroke-linecap="round" stroke="rgb(255,0,0)" stroke-width="3.749996" fill="none" d="M 20.084917 213.732788 L 20.210445 214.423233 " />
<path stroke-linejoin="round" stroke-linecap="round" stroke="rgb(0,0,255)" stroke-width="1.874998" fill="none" d="M 0.000000 750.000000 L 27.881048 0.000000 " />
<path stroke-linejoin="round" stroke-linecap="round" stroke="rgb(255,0,0)" stroke-width="3.749996" fill="none" d="M 19.960932 213.050964 L 20.084917 213.732788 " />
<path stroke-linejoin="round" stroke-linecap="round" stroke="rgb(0,0,255)" stroke-width="1.874998" fill="none" d="M 0.000000 750.000000 L 24.999998 0.000000 " />
<path stroke-linejoin="round" stroke-linecap="round" stroke="rgb(255,0,0)" stroke-width="3.749996" fill="none" d="M 18.217854 203.464111 L 19.960932 213.050964 " />
<path stroke-linejoin="round" stroke-linecap="round" stroke="rgb(0,0,255)" stroke-width="1.874998" fill="none" d="M 0.000000 750.000000 L 22.140226 0.000000 " />
<path stroke-linejoin="round" stroke-linecap="round" stroke="rgb(255,0,0)" stroke-width="3.749996" fill="none" d="M 16.424999 193.603271 L 18.217854 203.464111 " />
<path stroke-linejoin="round" stroke-linecap="round" stroke="rgb(0,0,255)" stroke-width="1.874998" fill="none" d="M 0.000000 750.000000 L 21.978020 0.000000 " />
<path stroke-linejoin="round" stroke-linecap="round" stroke="rgb(255,0,0)" stroke-width="3.749996" fill="none" d="M 16.321377 193.033356 L 16.424999 193.603271 " />
<path stroke-linejoin="round" stroke-linecap="round" stroke="rgb(0,0,255)" stroke-width="1.874998" fill="none" d="M 0.000000 750.000000 L 21.818184 0.000000 " />
<path stroke-linejoin="round" stroke-linecap="round" stroke="rgb(255,0,0)" stroke-width="3.749996" fill="none" d="M 16.219049 192.470551 L 16.321377 193.033356 " />
<path stroke-linejoin="round" stroke-linecap="round" stroke="rgb(0,0,255)" stroke-width="1.874998" fill="none" d="M 0.000000 750.000000 L 21.660648 0.000000 " />
<path stroke-linejoin="round" stroke-linecap="round" stroke="rgb(255,0,0)" stroke-width="3.749996" fill="none" d="M 16.117975 191.914734 L 16.219049 192.470551 " />
<path stroke-linejoin="round" stroke-linecap="round" stroke="rgb(0,0,255)" stroke-width="1.874998" fill="none" d="M 0.000000 750.000000 L 21.505371 0.000000 " />
<path stroke-linejoin="round" stroke-linecap="round" stroke="rgb(255,0,0)" stroke-width="3.749996" fill="none" d="M 16.018175 191.365829 L 16.117975 191.914734 " />
<path stroke-linejoin="round" stroke-linecap="round" stroke="rgb(0,0,255)" stroke-width="1.874998" fill="none" d="M 0.000000 750.000000 L 21.352306 0.000000 " />
<path stroke-linejoin="round" stroke-linecap="round" stroke="rgb(255,0,0)" stroke-width="3.749996" fill="none" d="M 15.919603 190.823685 L 16.018175 191.365829 " />
<path stroke-linejoin="round" stroke-linecap="round" stroke="rgb(0,0,255)" stroke-width="1.874998" fill="none" d="M 0.000000 750.000000 L 21.201410 0.000000 " />
<path stroke-linejoin="round" stroke-linecap="round" stroke="rgb(255,0,0)" stroke-width="3.749996" fill="none" d="M 15.822239 190.288177 L 15.919603 190.823685 " />
<path stroke-linejoin="round" stroke-linecap="round" stroke="rgb(0,0,255)" stroke-width="1.874998" fill="none" d="M 0.000000 750.000000 L 18.617012 0.000000 " />
<path stroke-linejoin="round" stroke-linecap="round" stroke="rgb(255,0,0)" stroke-width="3.749996" fill="none" d="M 14.125250 180.954620 L 15.822239 190.288177 " />
<path stroke-linejoin="round" stroke-linecap="round" stroke="rgb(0,0,255)" stroke-width="1.874998" fill="none" d="M 0.000000 750.000000 L 15.901052 0.000000 " />
<path stroke-linejoin="round" stroke-linecap="round" stroke="rgb(255,0,0)" stroke-width="3.749996" fill="none" d="M 12.279757 170.804504 L 14.125250 180.954620 " />
<path stroke-linejoin="round" stroke-linecap="round" stroke="rgb(0,0,255)" stroke-width="1.874998" fill="none" d="M 0.000000 750.000000 L 13.204225 0.000000 " />
<path stroke-linejoin="round" stroke-linecap="round" stroke="rgb(255,0,0)" stroke-width="3.749996" fill="none" d="M 10.380976 160.361160 L 12.279757 170.804504 " />
<path stroke-linejoin="round" stroke-linecap="round" stroke="rgb(0,0,255)" stroke-width="1.874998" fill="none" d="M 0.000000 750.000000 L 10.526307 0.000000 " />
<path stroke-linejoin="round" stroke-linecap="round" stroke="rgb(255,0,0)" stroke-width="3.749996" fill="none" d="M 8.430139 149.351974 L 10.380976 160.361160 " />
<path stroke-linejoin="round" stroke-linecap="round" stroke="rgb(0,0,255)" stroke-width="1.874998" fill="none" d="M 0.000000 750.000000 L 10.452971 0.000000 " />
<path stroke-linejoin="round" stroke-linecap="round" stroke="rgb(255,0,0)" stroke-width="3.749996" fill="none" d="M 8.375578 149.051926 L 8.430139 149.351974 " />
<path stroke-linejoin="round" stroke-linecap="round" stroke="rgb(0,0,255)" stroke-width="1.874998" fill="none" d="M 0.000000 750.000000 L 10.380618 0.000000 " />
<path stroke-linejoin="round" stroke-linecap="round" stroke="rgb(255,0,0)" stroke-width="3.749996" fill="none" d="M 8.321733 148.755676 L 8.375578 149.051926 " />
<path stroke-linejoin="round" stroke-linecap="round" stroke="rgb(0,0,255)" stroke-width="1.874998" fill="none" d="M 0.000000 750.000000 L 10.309272 0.000000 " />
<path stroke-linejoin="round" stroke-linecap="round" stroke="rgb(255,0,0)" stroke-width="3.749996" fill="none" d="M 8.268558 148.463196 L 8.321733 148.755676 " />
<path stroke-linejoin="round" stroke-linecap="round" stroke="rgb(0,0,255)" stroke-width="1.874998" fill="none" d="M 0.000000 750.000000 L 10.238908 0.000000 " />
<path stroke-linejoin="round" stroke-linecap="round" stroke="rgb(255,0,0)" stroke-width="3.749996" fill="none" d="M 8.216053 148.174454 L 8.268558 148.463196 " />
<path stroke-linejoin="round" stroke-linecap="round" stroke="rgb(0,0,255)" stroke-width="1.874998" fill="none" d="M 0.000000 750.000000 L 10.169484 0.000000 " />
<path stroke-linejoin="round" stroke-linecap="round" stroke="rgb(255,0,0)" stroke-width="3.749996" fill="none" d="M 8.164220 147.889359 L 8.216053 148.174454 " />
<path stroke-linejoin="round" stroke-linecap="round" stroke="rgb(0,0,255)" stroke-width="1.874998" fill="none" d="M 0.000000 750.000000 L 10.101021 0.000000 " />
<path stroke-linejoin="round" stroke-linecap="round" stroke="rgb(255,0,0)" stroke-width="3.749996" fill="none" d="M 8.113034 147.607819 L 8.164220 147.889359 " />
<path stroke-linejoin="round" stroke-linecap="round" stroke="rgb(0,0,255)" stroke-width="1.874998" fill="none" d="M 0.000000 750.000000 L 10.033451 0.000000 " />
<path stroke-linejoin="round" stroke-linecap="round" stroke="rgb(255,0,0)" stroke-width="3.749996" fill="none" d="M 8.062474 147.329803 L 8.113034 147.607819 " />
<path stroke-linejoin="round" stroke-linecap="round" stroke="rgb(0,0,255)" stroke-width="1.874998" fill="none" d="M 0.000000 750.000000 L 9.966776 0.000000 " />
<path stroke-linejoin="round" stroke-linecap="round" stroke="rgb(255,0,0)" stroke-width="3.749996" fill="none" d="M 8.012563 147.055283 L 8.062474 147.329803 " />
<path stroke-linejoin="round" stroke-linecap="round" stroke="rgb(0,0,255)" stroke-width="1.874998" fill="none" d="M 0.000000 750.000000 L 8.035719 0.000000 " />
<path stroke-linejoin="round" stroke-linecap="round" stroke="rgb(255,0,0)" stroke-width="3.749996" fill="none" d="M 6.688401 125.749336 L 8.012563 147.055283 " />
<path stroke-linejoin="round" stroke-linecap="round" stroke="rgb(0,0,255)" stroke-width="1.874998" fill="none" d="M 0.000000 750.000000 L 5.338088 0.000000 " />
<path stroke-linejoin="round" stroke-linecap="round" stroke="rgb(255,0,0)" stroke-width="3.749996" fill="none" d="M 4.704282 89.047684 L 6.688401 125.749336 " />
<path stroke-linejoin="round" stroke-linecap="round" stroke="rgb(0,0,255)" stroke-width="1.874998" fill="none" d="M 0.000000 750.000000 L 2.659567 0.000000 " />
<path stroke-linejoin="round" stroke-linecap="round" stroke="rgb(255,0,0)" stroke-width="3.749996" fill="none" d="M 2.491973 47.264099 L 4.704282 89.047684 " />
<path stroke-linejoin="round" stroke-linecap="round" stroke="rgb(0,0,255)" stroke-width="1.874998" fill="none" d="M 0.000000 750.000000 L 0.000000 0.000000 " />
<path stroke-linejoin="round" stroke-linecap="round" stroke="rgb(255,0,0)" stroke-width="3.749996" fill="none" d="M 0.000000 0.000000 L 2.491973 47.264099 " />
<circle cx="74.071795" cy="732.363850" r="3.749996" style="fill:rgb(0,127,0);stroke-width:1" /><circle cx="72.837688" cy="714.469425" r="3.749996" style="fill:rgb(0,127,0);stroke-width:1" /><circle cx="71.585387" cy="696.310960" r="3.749996" style="fill:rgb(0,127,0);stroke-width:1" /><circle cx="70.314467" cy="677.882597" r="3.749996" style="fill:rgb(0,127,0);stroke-width:1" /><circle cx="69.312841" cy="663.358949" r="3.749996" style="fill:rgb(0,127,0);stroke-width:1" /><circle cx="69.024503" cy="659.178279" r="3.749996" style="fill:rgb(0,127,0);stroke-width:1" /><circle cx="67.715093" cy="640.191749" r="3.749996" style="fill:rgb(0,127,0);stroke-width:1" /><circle cx="66.385768" cy="620.916545" r="3.749996" style="fill:rgb(0,127,0);stroke-width:1" /><circle cx="65.518320" cy="608.338751" r="3.749996" style="fill:rgb(0,127,0);stroke-width:1" /><circle cx="64.216286" cy="589.459263" r="3.749996" style="fill:rgb(0,127,0);stroke-width:1" /><circle cx="62.894963" cy="570.300087" r="3.749996" style="fill:rgb(0,127,0);stroke-width:1" /><circle cx="61.553925" cy="550.854944" r="3.749996" style="fill:rgb(0,127,0);stroke-width:1" /><circle cx="60.890347" cy="541.233089" r="3.749996" style="fill:rgb(0,127,0);stroke-width:1" /><circle cx="60.192727" cy="531.117383" r="3.749996" style="fill:rgb(0,127,0);stroke-width:1" /><circle cx="58.810875" cy="511.080779" r="3.749996" style="fill:rgb(0,127,0);stroke-width:1" /><circle cx="57.407945" cy="490.738269" r="3.749996" style="fill:rgb(0,127,0);stroke-width:1" /><circle cx="55.983447" cy="470.082790" r="3.749996" style="fill:rgb(0,127,0);stroke-width:1" /><circle cx="54.536842" cy="449.107077" r="3.749996" style="fill:rgb(0,127,0);stroke-width:1" /><circle cx="53.067639" cy="427.803649" r="3.749996" style="fill:rgb(0,127,0);stroke-width:1" /><circle cx="52.720450" cy="422.769573" r="3.749996" style="fill:rgb(0,127,0);stroke-width:1" /><circle cx="51.286854" cy="401.982129" r="3.749996" style="fill:rgb(0,127,0);stroke-width:1" /><circle cx="51.021181" cy="398.129869" r="3.749996" style="fill:rgb(0,127,0);stroke-width:1" /><circle cx="49.831420" cy="380.878401" r="3.749996" style="fill:rgb(0,127,0);stroke-width:1" /><circle cx="49.621694" cy="377.837348" r="3.749996" style="fill:rgb(0,127,0);stroke-width:1" /><circle cx="48.756190" cy="373.077142" r="3.749996" style="fill:rgb(0,127,0);stroke-width:1" /><circle cx="48.572548" cy="370.414460" r="3.749996" style="fill:rgb(0,127,0);stroke-width:1" /><circle cx="47.345147" cy="363.663697" r="3.749996" style="fill:rgb(0,127,0);stroke-width:1" /><circle cx="46.058245" cy="356.585849" r="3.749996" style="fill:rgb(0,127,0);stroke-width:1" /><circle cx="44.736519" cy="349.316418" r="3.749996" style="fill:rgb(0,127,0);stroke-width:1" /><circle cx="43.378517" cy="341.847503" r="3.749996" style="fill:rgb(0,127,0);stroke-width:1" /><circle cx="43.115616" cy="340.401577" r="3.749996" style="fill:rgb(0,127,0);stroke-width:1" /><circle cx="42.855889" cy="338.973032" r="3.749996" style="fill:rgb(0,127,0);stroke-width:1" /><circle cx="41.469991" cy="331.350588" r="3.749996" style="fill:rgb(0,127,0);stroke-width:1" /><circle cx="40.045470" cy="323.515713" r="3.749996" style="fill:rgb(0,127,0);stroke-width:1" /><circle cx="39.799042" cy="322.160337" r="3.749996" style="fill:rgb(0,127,0);stroke-width:1" /><circle cx="39.555609" cy="320.821524" r="3.749996" style="fill:rgb(0,127,0);stroke-width:1" /><circle cx="38.102187" cy="312.827647" r="3.749996" style="fill:rgb(0,127,0);stroke-width:1" /><circle cx="37.867337" cy="311.536040" r="3.749996" style="fill:rgb(0,127,0);stroke-width:1" /><circle cx="36.607593" cy="304.607537" r="3.749996" style="fill:rgb(0,127,0);stroke-width:1" /><circle cx="36.378801" cy="303.349223" r="3.749996" style="fill:rgb(0,127,0);stroke-width:1" /><circle cx="36.152847" cy="302.106466" r="3.749996" style="fill:rgb(0,127,0);stroke-width:1" /><circle cx="34.628280" cy="293.721411" r="3.749996" style="fill:rgb(0,127,0);stroke-width:1" /><circle cx="34.411535" cy="292.529153" r="3.749996" style="fill:rgb(0,127,0);stroke-width:1" /><circle cx="34.197450" cy="291.351769" r="3.749996" style="fill:rgb(0,127,0);stroke-width:1" /><circle cx="33.986047" cy="290.188942" r="3.749996" style="fill:rgb(0,127,0);stroke-width:1" /><circle cx="33.777215" cy="289.040420" r="3.749996" style="fill:rgb(0,127,0);stroke-width:1" /><circle cx="32.235973" cy="280.563600" r="3.749996" style="fill:rgb(0,127,0);stroke-width:1" /><circle cx="30.650899" cy="271.845784" r="3.749996" style="fill:rgb(0,127,0);stroke-width:1" /><circle cx="30.458450" cy="270.787172" r="3.749996" style="fill:rgb(0,127,0);stroke-width:1" /><circle cx="28.835289" cy="261.859808" r="3.749996" style="fill:rgb(0,127,0);stroke-width:1" /><circle cx="28.652787" cy="260.856058" r="3.749996" style="fill:rgb(0,127,0);stroke-width:1" /><circle cx="28.472587" cy="259.864960" r="3.749996" style="fill:rgb(0,127,0);stroke-width:1" /><circle cx="28.294623" cy="258.886211" r="3.749996" style="fill:rgb(0,127,0);stroke-width:1" /><circle cx="26.648328" cy="249.831531" r="3.749996" style="fill:rgb(0,127,0);stroke-width:1" /><circle cx="24.954379" cy="240.514822" r="3.749996" style="fill:rgb(0,127,0);stroke-width:1" /><circle cx="24.794921" cy="239.637852" r="3.749996" style="fill:rgb(0,127,0);stroke-width:1" /><circle cx="24.637498" cy="238.772001" r="3.749996" style="fill:rgb(0,127,0);stroke-width:1" /><circle cx="24.482064" cy="237.917013" r="3.749996" style="fill:rgb(0,127,0);stroke-width:1" /><circle cx="22.911675" cy="229.279988" r="3.749996" style="fill:rgb(0,127,0);stroke-width:1" /><circle cx="21.135114" cy="219.508834" r="3.749996" style="fill:rgb(0,127,0);stroke-width:1" /><circle cx="20.997874" cy="218.754027" r="3.749996" style="fill:rgb(0,127,0);stroke-width:1" /><circle cx="20.862401" cy="218.008943" r="3.749996" style="fill:rgb(0,127,0);stroke-width:1" /><circle cx="20.728670" cy="217.273381" r="3.749996" style="fill:rgb(0,127,0);stroke-width:1" /><circle cx="20.596638" cy="216.547251" r="3.749996" style="fill:rgb(0,127,0);stroke-width:1" /><circle cx="20.466283" cy="215.830240" r="3.749996" style="fill:rgb(0,127,0);stroke-width:1" /><circle cx="20.337559" cy="215.122316" r="3.749996" style="fill:rgb(0,127,0);stroke-width:1" /><circle cx="20.210445" cy="214.423232" r="3.749996" style="fill:rgb(0,127,0);stroke-width:1" /><circle cx="20.084918" cy="213.732786" r="3.749996" style="fill:rgb(0,127,0);stroke-width:1" /><circle cx="19.960932" cy="213.050969" r="3.749996" style="fill:rgb(0,127,0);stroke-width:1" /><circle cx="18.217854" cy="203.464117" r="3.749996" style="fill:rgb(0,127,0);stroke-width:1" /><circle cx="16.424999" cy="193.603277" r="3.749996" style="fill:rgb(0,127,0);stroke-width:1" /><circle cx="16.321376" cy="193.033364" r="3.749996" style="fill:rgb(0,127,0);stroke-width:1" /><circle cx="16.219050" cy="192.470558" r="3.749996" style="fill:rgb(0,127,0);stroke-width:1" /><circle cx="16.117975" cy="191.914737" r="3.749996" style="fill:rgb(0,127,0);stroke-width:1" /><circle cx="16.018175" cy="191.365812" r="3.749996" style="fill:rgb(0,127,0);stroke-width:1" /><circle cx="15.919603" cy="190.823682" r="3.749996" style="fill:rgb(0,127,0);stroke-width:1" /><circle cx="15.822239" cy="190.288179" r="3.749996" style="fill:rgb(0,127,0);stroke-width:1" /><circle cx="14.125250" cy="180.954628" r="3.749996" style="fill:rgb(0,127,0);stroke-width:1" /><circle cx="12.279756" cy="170.804501" r="3.749996" style="fill:rgb(0,127,0);stroke-width:1" /><circle cx="10.380976" cy="160.361163" r="3.749996" style="fill:rgb(0,127,0);stroke-width:1" /><circle cx="8.430138" cy="149.351969" r="3.749996" style="fill:rgb(0,127,0);stroke-width:1" /><circle cx="8.375578" cy="149.051920" r="3.749996" style="fill:rgb(0,127,0);stroke-width:1" /><circle cx="8.321732" cy="148.755670" r="3.749996" style="fill:rgb(0,127,0);stroke-width:1" /><circle cx="8.268557" cy="148.463197" r="3.749996" style="fill:rgb(0,127,0);stroke-width:1" /><circle cx="8.216053" cy="148.174457" r="3.749996" style="fill:rgb(0,127,0);stroke-width:1" /><circle cx="8.164220" cy="147.889361" r="3.749996" style="fill:rgb(0,127,0);stroke-width:1" /><circle cx="8.113034" cy="147.607818" r="3.749996" style="fill:rgb(0,127,0);stroke-width:1" /><circle cx="8.062474" cy="147.329807" r="3.749996" style="fill:rgb(0,127,0);stroke-width:1" /><circle cx="8.012563" cy="147.055283" r="3.749996" style="fill:rgb(0,127,0);stroke-width:1" /><circle cx="6.688401" cy="125.749335" r="3.749996" style="fill:rgb(0,127,0);stroke-width:1" /><circle cx="4.704282" cy="89.047685" r="3.749996" style="fill:rgb(0,127,0);stroke-width:1" /><circle cx="2.491951" cy="47.264099" r="3.750008" style="fill:rgb(0,127,0);stroke-width:1" /><circle cx="750.000000" cy="750.000000" r="3.749996" style="fill:rgb(0,127,0);stroke-width:1" /><path stroke-linejoin="round" stroke-linecap="round" stroke="rgb(255,255,255)" stroke-width="3.749996" fill="none" d="M 0.000000 750.000000 L 750.000000 750.000000 M 0.000000 750.000000 L 0.000000 0.000000 " />

</svg>