<svg xmlns="http://www.w3.org/2000/svg" version="1.1" width = "750" height = "750" viewBox = "0 0 750 750"  shape-rendering="crispEdges">
<path stroke-linejoin="round" stroke-linecap="round" stroke="rgb(255,255,0)" stroke-width="3.749996" fill="none" d="M 124.999992 750.000000 L 0.000000 0.000000 " />
<path stroke-linejoin="round" stroke-linecap="round" stroke="rgb(63,63,63)" stroke-width="3.749996" fill="none" d="M 0.000000 0.000000 L 750.000000 750.000000 M 124.999992 750.000000 L 56.818172 0.000000 " />
<path stroke-linejoin="round" stroke-linecap="round" stroke="rgb(191,191,191)" stroke-width="3.749996" fill="none" d="M 0.000000 625.000000 L 124.999992 750.000000 M 0.000000 0.000000 L 68.181824 750.000000 " />
<path stroke-linejoin="round" stroke-linecap="round" stroke="rgb(0,0,255)" stroke-width="1.874998" fill="none" d="M 0.000000 750.000000 L 750.000000 727.941162 " />
<path stroke-linejoin="round" stroke-linecap="round" stroke="rgb(255,0,0)" stroke-width="3.749996" fill="none" d="M 124.666687 746.333313 L 124.999992 750.000000 " />
<path stroke-linejoin="round" stroke-linecap="round" stroke="rgb(0,0,255)" stroke-width="1.874998" fill="none" d="M 0.000000 750.000000 L 750.000000 704.545471 " />
<path stroke-linejoin="round" stroke-linecap="round" stroke="rgb(255,0,0)" stroke-width="3.749996" fill="none" d="M 123.574486 742.510620 L 124.666687 746.333313 " />
<path stroke-linejoin="round" stroke-linecap="round" stroke="rgb(0,0,255)" stroke-width="1.874998" fill="none" d="M 0.000000 750.000000 L 750.000000 679.687500 " />
<path stroke-linejoin="round" stroke-linecap="round" stroke="rgb(255,0,0)" stroke-width="3.749996" fill="none" d="M 122.434792 738.521729 L 123.574486 742.510620 " />
<path stroke-linejoin="round" stroke-linecap="round" stroke="rgb(0,0,255)" stroke-width="1.874998" fill="none" d="M 0.000000 750.000000 L 750.000000 653.225830 " />
<path stroke-linejoin="round" stroke-linecap="round" stroke="rgb(255,0,0)" stroke-width="3.749996" fill="none" d="M 121.244476 734.355591 L 122.434792 738.521729 " />
<path stroke-linejoin="round" stroke-linecap="round" stroke="rgb(0,0,255)" stroke-width="1.874998" fill="none" d="M 0.000000 750.000000 L 750.000000 632.812500 " />
<path stroke-linejoin="round" stroke-linecap="round" stroke="rgb(255,0,0)" stroke-width="3.749996" fill="none" d="M 120.341911 731.196533 L 121.244476 734.355591 " />
<path stroke-linejoin="round" stroke-linecap="round" stroke="rgb(0,0,255)" stroke-width="1.874998" fill="none" d="M 0.000000 750.000000 L 750.000000 625.000000 " />
<path stroke-linejoin="round" stroke-linecap="round" stroke="rgb(255,0,0)" stroke-width="3.749996" fill="none" d="M 120.000023 730.000000 L 120.341911 731.196533 " />
<path stroke-linejoin="round" stroke-linecap="round" stroke="rgb(0,0,255)" stroke-width="1.874998" fill="none" d="M 0.000000 750.000000 L 750.000000 594.827576 " />
<path stroke-linejoin="round" stroke-linecap="round" stroke="rgb(255,0,0)" stroke-width="3.749996" fill="none" d="M 118.697693 725.441895 L 120.000000 730.000000 " />
<path stroke-linejoin="round" stroke-linecap="round" stroke="rgb(0,0,255)" stroke-width="1.874998" fill="none" d="M 0.000000 750.000000 L 750.000000 562.500000 " />
<path stroke-linejoin="round" stroke-linecap="round" stroke="rgb(255,0,0)" stroke-width="3.749996" fill="none" d="M 117.333344 720.666626 L 118.697693 725.441895 " />
<path stroke-linejoin="round" stroke-linecap="round" stroke="rgb(0,0,255)" stroke-width="1.874998" fill="none" d="M 0.000000 750.000000 L 750.000000 277.777802 " />
<path stroke-linejoin="round" stroke-linecap="round" stroke="rgb(255,0,0)" stroke-width="3.749996" fill="none" d="M 112.454384 679.195435 L 117.333344 720.666626 " />
<path stroke-linejoin="round" stroke-linecap="round" stroke="rgb(0,0,255)" stroke-width="1.874998" fill="none" d="M 0.000000 750.000000 L 750.000000 26.785702 " />
<path stroke-linejoin="round" stroke-linecap="round" stroke="rgb(255,0,0)" stroke-width="3.749996" fill="none" d="M 108.478035 645.396179 L 112.454407 679.195435 " />
<path stroke-linejoin="round" stroke-linecap="round" stroke="rgb(0,0,255)" stroke-width="1.874998" fill="none" d="M 0.000000 750.000000 L 669.642822 0.000000 " />
<path stroke-linejoin="round" stroke-linecap="round" stroke="rgb(255,0,0)" stroke-width="3.749996" fill="none" d="M 106.722145 630.471191 L 108.478035 645.396179 " />
<path stroke-linejoin="round" stroke-linecap="round" stroke="rgb(0,0,255)" stroke-width="1.874998" fill="none" d="M 0.000000 750.000000 L 513.157898 0.000000 " />
<path stroke-linejoin="round" stroke-linecap="round" stroke="rgb(255,0,0)" stroke-width="3.749996" fill="none" d="M 103.063103 599.369263 L 106.722145 630.471191 " />
<path stroke-linejoin="round" stroke-linecap="round" stroke="rgb(0,0,255)" stroke-width="1.874998" fill="none" d="M 0.000000 750.000000 L 483.871002 0.000000 " />
<path stroke-linejoin="round" stroke-linecap="round" stroke="rgb(255,0,0)" stroke-width="3.749996" fill="none" d="M 101.257729 593.050537 L 103.063103 599.369263 " />
<path stroke-linejoin="round" stroke-linecap="round" stroke="rgb(0,0,255)" stroke-width="1.874998" fill="none" d="M 0.000000 750.000000 L 445.312500 0.000000 " />
<path stroke-linejoin="round" stroke-linecap="round" stroke="rgb(255,0,0)" stroke-width="3.749996" fill="none" d="M 98.636337 583.875671 L 101.257729 593.050537 " />
<path stroke-linejoin="round" stroke-linecap="round" stroke="rgb(0,0,255)" stroke-width="1.874998" fill="none" d="M 0.000000 750.000000 L 419.117645 0.000000 " />
<path stroke-linejoin="round" stroke-linecap="round" stroke="rgb(255,0,0)" stroke-width="3.749996" fill="none" d="M 96.673409 577.005493 L 98.636314 583.875671 " />
<path stroke-linejoin="round" stroke-linecap="round" stroke="rgb(0,0,255)" stroke-width="1.874998" fill="none" d="M 0.000000 750.000000 L 395.833344 0.000000 " />
<path stroke-linejoin="round" stroke-linecap="round" stroke="rgb(255,0,0)" stroke-width="3.749996" fill="none" d="M 94.787102 570.403381 L 96.673409 577.005493 " />
<path stroke-linejoin="round" stroke-linecap="round" stroke="rgb(0,0,255)" stroke-width="1.874998" fill="none" d="M 0.000000 750.000000 L 375.000000 0.000000 " />
<path stroke-linejoin="round" stroke-linecap="round" stroke="rgb(255,0,0)" stroke-width="3.749996" fill="none" d="M 92.973007 564.053955 L 94.787125 570.403381 " />
<path stroke-linejoin="round" stroke-linecap="round" stroke="rgb(0,0,255)" stroke-width="1.874998" fill="none" d="M 0.000000 750.000000 L 364.864868 0.000000 " />
<path stroke-linejoin="round" stroke-linecap="round" stroke="rgb(255,0,0)" stroke-width="3.749996" fill="none" d="M 92.043289 560.799927 L 92.973007 564.053955 " />
<path stroke-linejoin="round" stroke-linecap="round" stroke="rgb(0,0,255)" stroke-width="1.874998" fill="none" d="M 0.000000 750.000000 L 335.526306 0.000000 " />
<path stroke-linejoin="round" stroke-linecap="round" stroke="rgb(255,0,0)" stroke-width="3.749996" fill="none" d="M 89.158730 550.703979 L 92.043289 560.799927 " />
<path stroke-linejoin="round" stroke-linecap="round" stroke="rgb(0,0,255)" stroke-width="1.874998" fill="none" d="M 0.000000 750.000000 L 307.692322 0.000000 " />
<path stroke-linejoin="round" stroke-linecap="round" stroke="rgb(255,0,0)" stroke-width="3.749996" fill="none" d="M 86.122375 540.076721 L 89.158730 550.703979 " />
<path stroke-linejoin="round" stroke-linecap="round" stroke="rgb(0,0,255)" stroke-width="1.874998" fill="none" d="M 0.000000 750.000000 L 281.250000 0.000000 " />
<path stroke-linejoin="round" stroke-linecap="round" stroke="rgb(255,0,0)" stroke-width="3.749996" fill="none" d="M 82.921875 528.875000 L 86.122375 540.076721 " />
<path stroke-linejoin="round" stroke-linecap="round" stroke="rgb(0,0,255)" stroke-width="1.874998" fill="none" d="M 0.000000 750.000000 L 267.857147 0.000000 " />
<path stroke-linejoin="round" stroke-linecap="round" stroke="rgb(255,0,0)" stroke-width="3.749996" fill="none" d="M 81.166908 522.732666 L 82.921852 528.875000 " />
<path stroke-linejoin="round" stroke-linecap="round" stroke="rgb(0,0,255)" stroke-width="1.874998" fill="none" d="M 0.000000 750.000000 L 244.186050 0.000000 " />
<path stroke-linejoin="round" stroke-linecap="round" stroke="rgb(255,0,0)" stroke-width="3.749996" fill="none" d="M 77.814369 510.998718 L 81.166908 522.732666 " />
<path stroke-linejoin="round" stroke-linecap="round" stroke="rgb(0,0,255)" stroke-width="1.874998" fill="none" d="M 0.000000 750.000000 L 221.590897 0.000000 " />
<path stroke-linejoin="round" stroke-linecap="round" stroke="rgb(255,0,0)" stroke-width="3.749996" fill="none" d="M 74.274529 498.609283 L 77.814369 510.998718 " />
<path stroke-linejoin="round" stroke-linecap="round" stroke="rgb(0,0,255)" stroke-width="1.874998" fill="none" d="M 0.000000 750.000000 L 211.956543 0.000000 " />
<path stroke-linejoin="round" stroke-linecap="round" stroke="rgb(255,0,0)" stroke-width="3.749996" fill="none" d="M 72.651031 492.927124 L 74.274529 498.609283 " />
<path stroke-linejoin="round" stroke-linecap="round" stroke="rgb(0,0,255)" stroke-width="1.874998" fill="none" d="M 0.000000 750.000000 L 191.489365 0.000000 " />
<path stroke-linejoin="round" stroke-linecap="round" stroke="rgb(255,0,0)" stroke-width="3.749996" fill="none" d="M 68.946274 479.960419 L 72.651031 492.927124 " />
<path stroke-linejoin="round" stroke-linecap="round" stroke="rgb(0,0,255)" stroke-width="1.874998" fill="none" d="M 0.000000 750.000000 L 171.875000 0.000000 " />
<path stroke-linejoin="round" stroke-linecap="round" stroke="rgb(255,0,0)" stroke-width="3.749996" fill="none" d="M 65.027367 466.244232 L 68.946274 479.960419 " />
<path stroke-linejoin="round" stroke-linecap="round" stroke="rgb(0,0,255)" stroke-width="1.874998" fill="none" d="M 0.000000 750.000000 L 165.000000 0.000000 " />
<path stroke-linejoin="round" stroke-linecap="round" stroke="rgb(255,0,0)" stroke-width="3.749996" fill="none" d="M 63.557827 461.100800 L 65.027367 466.244232 " />
<path stroke-linejoin="round" stroke-linecap="round" stroke="rgb(0,0,255)" stroke-width="1.874998" fill="none" d="M 0.000000 750.000000 L 158.653854 0.000000 " />
<path stroke-linejoin="round" stroke-linecap="round" stroke="rgb(255,0,0)" stroke-width="3.749996" fill="none" d="M 62.153221 456.184753 L 63.557827 461.100800 " />
<path stroke-linejoin="round" stroke-linecap="round" stroke="rgb(0,0,255)" stroke-width="1.874998" fill="none" d="M 0.000000 750.000000 L 152.777771 0.000000 " />
<path stroke-linejoin="round" stroke-linecap="round" stroke="rgb(255,0,0)" stroke-width="3.749996" fill="none" d="M 60.809387 451.481232 L 62.153221 456.184753 " />
<path stroke-linejoin="round" stroke-linecap="round" stroke="rgb(0,0,255)" stroke-width="1.874998" fill="none" d="M 0.000000 750.000000 L 147.321442 0.000000 " />
<path stroke-linejoin="round" stroke-linecap="round" stroke="rgb(255,0,0)" stroke-width="3.749996" fill="none" d="M 59.522396 446.976868 L 60.809387 451.481232 " />
<path stroke-linejoin="round" stroke-linecap="round" stroke="rgb(0,0,255)" stroke-width="1.874998" fill="none" d="M 0.000000 750.000000 L 142.241394 0.000000 " />
<path stroke-linejoin="round" stroke-linecap="round" stroke="rgb(255,0,0)" stroke-width="3.749996" fill="none" d="M 58.288784 442.659180 L 59.522396 446.976868 " />
<path stroke-linejoin="round" stroke-linecap="round" stroke="rgb(0,0,255)" stroke-width="1.874998" fill="none" d="M 0.000000 750.000000 L 137.500000 0.000000 " />
<path stroke-linejoin="round" stroke-linecap="round" stroke="rgb(255,0,0)" stroke-width="3.749996" fill="none" d="M 57.105259 438.516815 L 58.288784 442.659180 " />
<path stroke-linejoin="round" stroke-linecap="round" stroke="rgb(0,0,255)" stroke-width="1.874998" fill="none" d="M 0.000000 750.000000 L 127.118645 0.000000 " />
<path stroke-linejoin="round" stroke-linecap="round" stroke="rgb(255,0,0)" stroke-width="3.749996" fill="none" d="M 54.399109 429.045319 L 57.105259 438.516815 " />
<path stroke-linejoin="round" stroke-linecap="round" stroke="rgb(0,0,255)" stroke-width="1.874998" fill="none" d="M 0.000000 750.000000 L 122.950806 0.000000 " />
<path stroke-linejoin="round" stroke-linecap="round" stroke="rgb(255,0,0)" stroke-width="3.749996" fill="none" d="M 53.265789 425.078674 L 54.399109 429.045319 " />
<path stroke-linejoin="round" stroke-linecap="round" stroke="rgb(0,0,255)" stroke-width="1.874998" fill="none" d="M 0.000000 750.000000 L 119.047615 0.000000 " />
<path stroke-linejoin="round" stroke-linecap="round" stroke="rgb(255,0,0)" stroke-width="3.749996" fill="none" d="M 52.178734 421.273956 L 53.265789 425.078674 " />
<path stroke-linejoin="round" stroke-linecap="round" stroke="rgb(0,0,255)" stroke-width="1.874998" fill="none" d="M 0.000000 750.000000 L 115.384605 0.000000 " />
<path stroke-linejoin="round" stroke-linecap="round" stroke="rgb(255,0,0)" stroke-width="3.749996" fill="none" d="M 51.135151 417.621521 L 52.178734 421.273956 " />
<path stroke-linejoin="round" stroke-linecap="round" stroke="rgb(0,0,255)" stroke-width="1.874998" fill="none" d="M 0.000000 750.000000 L 102.272720 0.000000 " />
<path stroke-linejoin="round" stroke-linecap="round" stroke="rgb(255,0,0)" stroke-width="3.749996" fill="none" d="M 47.201672 403.854370 L 51.135151 417.621521 " />
<path stroke-linejoin="round" stroke-linecap="round" stroke="rgb(0,0,255)" stroke-width="1.874998" fill="none" d="M 0.000000 750.000000 L 99.264709 0.000000 " />
<path stroke-linejoin="round" stroke-linecap="round" stroke="rgb(255,0,0)" stroke-width="3.749996" fill="none" d="M 46.252907 400.533661 L 47.201672 403.854370 " />
<path stroke-linejoin="round" stroke-linecap="round" stroke="rgb(0,0,255)" stroke-width="1.874998" fill="none" d="M 0.000000 750.000000 L 86.956520 0.000000 " />
<path stroke-linejoin="round" stroke-linecap="round" stroke="rgb(255,0,0)" stroke-width="3.749996" fill="none" d="M 42.173309 386.255096 L 46.252907 400.533661 " />
<path stroke-linejoin="round" stroke-linecap="round" stroke="rgb(0,0,255)" stroke-width="1.874998" fill="none" d="M 0.000000 750.000000 L 84.507042 0.000000 " />
<path stroke-linejoin="round" stroke-linecap="round" stroke="rgb(255,0,0)" stroke-width="3.749996" fill="none" d="M 41.321331 383.273132 L 42.173309 386.255096 " />
<path stroke-linejoin="round" stroke-linecap="round" stroke="rgb(0,0,255)" stroke-width="1.874998" fill="none" d="M 0.000000 750.000000 L 82.191780 0.000000 " />
<path stroke-linejoin="round" stroke-linecap="round" stroke="rgb(255,0,0)" stroke-width="3.749996" fill="none" d="M 40.503101 380.409241 L 41.321331 383.273132 " />
<path stroke-linejoin="round" stroke-linecap="round" stroke="rgb(0,0,255)" stroke-width="1.874998" fill="none" d="M 0.000000 750.000000 L 70.945946 0.000000 " />
<path stroke-linejoin="round" stroke-linecap="round" stroke="rgb(255,0,0)" stroke-width="3.749996" fill="none" d="M 36.339706 365.837402 L 40.503101 380.409241 " />
<path stroke-linejoin="round" stroke-linecap="round" stroke="rgb(0,0,255)" stroke-width="1.874998" fill="none" d="M 0.000000 750.000000 L 59.999989 0.000000 " />
<path stroke-linejoin="round" stroke-linecap="round" stroke="rgb(255,0,0)" stroke-width="3.749996" fill="none" d="M 32.392235 345.097046 L 36.339706 365.837402 " />
<path stroke-linejoin="round" stroke-linecap="round" stroke="rgb(0,0,255)" stroke-width="1.874998" fill="none" d="M 0.000000 750.000000 L 58.441559 0.000000 " />
<path stroke-linejoin="round" stroke-linecap="round" stroke="rgb(255,0,0)" stroke-width="3.749996" fill="none" d="M 31.731180 342.783264 L 32.392235 345.097046 " />
<path stroke-linejoin="round" stroke-linecap="round" stroke="rgb(0,0,255)" stroke-width="1.874998" fill="none" d="M 0.000000 750.000000 L 56.962029 0.000000 " />
<path stroke-linejoin="round" stroke-linecap="round" stroke="rgb(255,0,0)" stroke-width="3.749996" fill="none" d="M 31.124264 340.197052 L 31.731180 342.783264 " />
<path stroke-linejoin="round" stroke-linecap="round" stroke="rgb(0,0,255)" stroke-width="1.874998" fill="none" d="M 0.000000 750.000000 L 52.083336 0.000000 " />
<path stroke-linejoin="round" stroke-linecap="round" stroke="rgb(255,0,0)" stroke-width="3.749996" fill="none" d="M 29.549807 324.482727 L 31.124287 340.196991 " />
<path stroke-linejoin="round" stroke-linecap="round" stroke="rgb(0,0,255)" stroke-width="1.874998" fill="none" d="M 0.000000 750.000000 L 41.095890 0.000000 " />
<path stroke-linejoin="round" stroke-linecap="round" stroke="rgb(255,0,0)" stroke-width="3.749996" fill="none" d="M 25.645874 281.962769 L 29.549807 324.482727 " />
<path stroke-linejoin="round" stroke-linecap="round" stroke="rgb(0,0,255)" stroke-width="1.874998" fill="none" d="M 0.000000 750.000000 L 40.000008 0.000000 " />
<path stroke-linejoin="round" stroke-linecap="round" stroke="rgb(255,0,0)" stroke-width="3.749996" fill="none" d="M 25.211290 277.288391 L 25.645874 281.962769 " />
<path stroke-linejoin="round" stroke-linecap="round" stroke="rgb(0,0,255)" stroke-width="1.874998" fill="none" d="M 0.000000 750.000000 L 38.961029 0.000000 " />
<path stroke-linejoin="round" stroke-linecap="round" stroke="rgb(255,0,0)" stroke-width="3.749996" fill="none" d="M 24.793692 272.721619 L 25.211290 277.288391 " />
<path stroke-linejoin="round" stroke-linecap="round" stroke="rgb(0,0,255)" stroke-width="1.874998" fill="none" d="M 0.000000 750.000000 L 37.974693 0.000000 " />
<path stroke-linejoin="round" stroke-linecap="round" stroke="rgb(255,0,0)" stroke-width="3.749996" fill="none" d="M 24.390310 268.291260 L 24.793692 272.721619 " />
<path stroke-linejoin="round" stroke-linecap="round" stroke="rgb(0,0,255)" stroke-width="1.874998" fill="none" d="M 0.000000 750.000000 L 37.037037 0.000000 " />
<path stroke-linejoin="round" stroke-linecap="round" stroke="rgb(255,0,0)" stroke-width="3.749996" fill="none" d="M 24.000027 263.999603 L 24.390310 268.291260 " />
<path stroke-linejoin="round" stroke-linecap="round" stroke="rgb(0,0,255)" stroke-width="1.874998" fill="none" d="M 0.000000 750.000000 L 36.144577 0.000000 " />
<path stroke-linejoin="round" stroke-linecap="round" stroke="rgb(255,0,0)" stroke-width="3.749996" fill="none" d="M 23.622059 259.842407 L 24.000027 263.999603 " />
<path stroke-linejoin="round" stroke-linecap="round" stroke="rgb(0,0,255)" stroke-width="1.874998" fill="none" d="M 0.000000 750.000000 L 35.294117 0.000000 " />
<path stroke-linejoin="round" stroke-linecap="round" stroke="rgb(255,0,0)" stroke-width="3.749996" fill="none" d="M 23.255825 255.813934 L 23.622059 259.842407 " />
<path stroke-linejoin="round" stroke-linecap="round" stroke="rgb(0,0,255)" stroke-width="1.874998" fill="none" d="M 0.000000 750.000000 L 34.482746 0.000000 " />
<path stroke-linejoin="round" stroke-linecap="round" stroke="rgb(255,0,0)" stroke-width="3.749996" fill="none" d="M 22.900768 251.908417 L 23.255825 255.813934 " />
<path stroke-linejoin="round" stroke-linecap="round" stroke="rgb(0,0,255)" stroke-width="1.874998" fill="none" d="M 0.000000 750.000000 L 33.707855 0.000000 " />
<path stroke-linejoin="round" stroke-linecap="round" stroke="rgb(255,0,0)" stroke-width="3.749996" fill="none" d="M 22.556395 248.120377 L 22.900768 251.908463 " />
<path stroke-linejoin="round" stroke-linecap="round" stroke="rgb(0,0,255)" stroke-width="1.874998" fill="none" d="M 0.000000 750.000000 L 32.967030 0.000000 " />
<path stroke-linejoin="round" stroke-linecap="round" stroke="rgb(255,0,0)" stroke-width="3.749996" fill="none" d="M 22.222214 244.444504 L 22.556395 248.120377 " />
<path stroke-linejoin="round" stroke-linecap="round" stroke="rgb(0,0,255)" stroke-width="1.874998" fill="none" d="M 0.000000 750.000000 L 32.258057 0.000000 " />
<path stroke-linejoin="round" stroke-linecap="round" stroke="rgb(255,0,0)" stroke-width="3.749996" fill="none" d="M 21.897800 240.875961 L 22.222214 244.444504 " />
<path stroke-linejoin="round" stroke-linecap="round" stroke="rgb(0,0,255)" stroke-width="1.874998" fill="none" d="M 0.000000 750.000000 L 25.568180 0.000000 " />
<path stroke-linejoin="round" stroke-linecap="round" stroke="rgb(255,0,0)" stroke-width="3.749996" fill="none" d="M 18.595039 204.545578 L 21.897800 240.875961 " />
<path stroke-linejoin="round" stroke-linecap="round" stroke="rgb(0,0,255)" stroke-width="1.874998" fill="none" d="M 0.000000 750.000000 L 24.999998 0.000000 " />
<path stroke-linejoin="round" stroke-linecap="round" stroke="rgb(255,0,0)" stroke-width="3.749996" fill="none" d="M 18.292688 201.219543 L 18.595039 204.545578 " />
<path stroke-linejoin="round" stroke-linecap="round" stroke="rgb(0,0,255)" stroke-width="1.874998" fill="none" d="M 0.000000 750.000000 L 24.456516 0.000000 " />
<path stroke-linejoin="round" stroke-linecap="round" stroke="rgb(255,0,0)" stroke-width="3.749996" fill="none" d="M 17.999992 198.000000 L 18.292688 201.219543 " />
<path stroke-linejoin="round" stroke-linecap="round" stroke="rgb(0,0,255)" stroke-width="1.874998" fill="none" d="M 0.000000 750.000000 L 16.129040 0.000000 " />
<path stroke-linejoin="round" stroke-linecap="round" stroke="rgb(255,0,0)" stroke-width="3.749996" fill="none" d="M 13.043470 143.478333 L 17.999992 197.999954 " />
<path stroke-linejoin="round" stroke-linecap="round" stroke="rgb(0,0,255)" stroke-width="1.874998" fill="none" d="M 0.000000 750.000000 L 7.978723 0.000000 " />
<path stroke-linejoin="round" stroke-linecap="round" stroke="rgb(255,0,0)" stroke-width="3.749996" fill="none" d="M 7.142857 78.571487 L 13.043470 143.478333 " />
<path stroke-linejoin="round" stroke-linecap="round" stroke="rgb(0,0,255)" stroke-width="1.874998" fill="none" d="M 0.000000 750.000000 L 0.000000 0.000000 " />
<path stroke-linejoin="round" stroke-linecap="round" stroke="rgb(255,0,0)" stroke-width="3.749996" fill="none" d="M 0.000000 0.000000 L 7.142857 78.571556 " />
<circle cx="124.666683" cy="746.333331" r="3.749996" style="fill:rgb(0,127,0);stroke-width:1" /><circle cx="123.574488" cy="742.510647" r="3.749996" style="fill:rgb(0,127,0);stroke-width:1" /><circle cx="122.434795" cy="738.521732" r="3.749996" style="fill:rgb(0,127,0);stroke-width:1" /><circle cx="121.244475" cy="734.355547" r="3.749996" style="fill:rgb(0,127,0);stroke-width:1" /><circle cx="120.341912" cy="731.196575" r="3.749996" style="fill:rgb(0,127,0);stroke-width:1" /><circle cx="120.000020" cy="729.999997" r="3.749996" style="fill:rgb(0,127,0);stroke-width:1" /><circle cx="118.697695" cy="725.441851" r="3.749996" style="fill:rgb(0,127,0);stroke-width:1" /><circle cx="117.333345" cy="720.666669" r="3.749996" style="fill:rgb(0,127,0);stroke-width:1" /><circle cx="112.454385" cy="679.195382" r="3.749996" style="fill:rgb(0,127,0);stroke-width:1" /><circle cx="108.478032" cy="645.396195" r="3.749996" style="fill:rgb(0,127,0);stroke-width:1" /><circle cx="106.722146" cy="630.471200" r="3.749996" style="fill:rgb(0,127,0);stroke-width:1" /><circle cx="103.063099" cy="599.369310" r="3.749996" style="fill:rgb(0,127,0);stroke-width:1" /><circle cx="101.257727" cy="593.050517" r="3.749996" style="fill:rgb(0,127,0);stroke-width:1" /><circle cx="98.636337" cy="583.875664" r="3.749996" style="fill:rgb(0,127,0);stroke-width:1" /><circle cx="96.673407" cy="577.005476" r="3.749996" style="fill:rgb(0,127,0);stroke-width:1" /><circle cx="94.787098" cy="570.403375" r="3.749996" style="fill:rgb(0,127,0);stroke-width:1" /><circle cx="92.973009" cy="564.053982" r="3.749996" style="fill:rgb(0,127,0);stroke-width:1" /><circle cx="92.043288" cy="560.799927" r="3.749996" style="fill:rgb(0,127,0);stroke-width:1" /><circle cx="89.158729" cy="550.704002" r="3.749996" style="fill:rgb(0,127,0);stroke-width:1" /><circle cx="86.122379" cy="540.076721" r="3.749996" style="fill:rgb(0,127,0);stroke-width:1" /><circle cx="82.921878" cy="528.875012" r="3.749996" style="fill:rgb(0,127,0);stroke-width:1" /><circle cx="81.166908" cy="522.732664" r="3.749996" style="fill:rgb(0,127,0);stroke-width:1" /><circle cx="77.814370" cy="510.998726" r="3.749996" style="fill:rgb(0,127,0);stroke-width:1" /><circle cx="74.274525" cy="498.609301" r="3.749996" style="fill:rgb(0,127,0);stroke-width:1" /><circle cx="72.651029" cy="492.927108" r="3.749996" style="fill:rgb(0,127,0);stroke-width:1" /><circle cx="68.946272" cy="479.960438" r="3.749996" style="fill:rgb(0,127,0);stroke-width:1" /><circle cx="65.027364" cy="466.244219" r="3.749996" style="fill:rgb(0,127,0);stroke-width:1" /><circle cx="63.557826" cy="461.100787" r="3.749996" style="fill:rgb(0,127,0);stroke-width:1" /><circle cx="62.153220" cy="456.184745" r="3.749996" style="fill:rgb(0,127,0);stroke-width:1" /><circle cx="60.809389" cy="451.481223" r="3.749996" style="fill:rgb(0,127,0);stroke-width:1" /><circle cx="59.522398" cy="446.976839" r="3.749996" style="fill:rgb(0,127,0);stroke-width:1" /><circle cx="58.288783" cy="442.659169" r="3.749996" style="fill:rgb(0,127,0);stroke-width:1" /><circle cx="57.105258" cy="438.516827" r="3.749996" style="fill:rgb(0,127,0);stroke-width:1" /><circle cx="54.399110" cy="429.045288" r="3.749996" style="fill:rgb(0,127,0);stroke-width:1" /><circle cx="53.265788" cy="425.078692" r="3.749996" style="fill:rgb(0,127,0);stroke-width:1" /><circle cx="52.178733" cy="421.273976" r="3.749996" style="fill:rgb(0,127,0);stroke-width:1" /><circle cx="51.135153" cy="417.621494" r="3.749996" style="fill:rgb(0,127,0);stroke-width:1" /><circle cx="47.201671" cy="403.854341" r="3.749996" style="fill:rgb(0,127,0);stroke-width:1" /><circle cx="46.252906" cy="400.533646" r="3.749996" style="fill:rgb(0,127,0);stroke-width:1" /><circle cx="42.173311" cy="386.255085" r="3.749996" style="fill:rgb(0,127,0);stroke-width:1" /><circle cx="41.321330" cy="383.273125" r="3.749996" style="fill:rgb(0,127,0);stroke-width:1" /><circle cx="40.503100" cy="380.409270" r="3.749996" style="fill:rgb(0,127,0);stroke-width:1" /><circle cx="36.339708" cy="365.837425" r="3.749996" style="fill:rgb(0,127,0);stroke-width:1" /><circle cx="32.392234" cy="345.097035" r="3.749996" style="fill:rgb(0,127,0);stroke-width:1" /><circle cx="31.731181" cy="342.783272" r="3.749996" style="fill:rgb(0,127,0);stroke-width:1" /><circle cx="31.124264" cy="340.197056" r="3.749996" style="fill:rgb(0,127,0);stroke-width:1" /><circle cx="29.549807" cy="324.482739" r="3.749996" style="fill:rgb(0,127,0);stroke-width:1" /><circle cx="25.645874" cy="281.962780" r="3.749996" style="fill:rgb(0,127,0);stroke-width:1" /><circle cx="25.211290" cy="277.288377" r="3.749996" style="fill:rgb(0,127,0);stroke-width:1" /><circle cx="24.793692" cy="272.721592" r="3.749996" style="fill:rgb(0,127,0);stroke-width:1" /><circle cx="24.390310" cy="268.291265" r="3.749996" style="fill:rgb(0,127,0);stroke-width:1" /><circle cx="24.000026" cy="263.999607" r="3.749996" style="fill:rgb(0,127,0);stroke-width:1" /><circle cx="23.622058" cy="259.842396" r="3.749996" style="fill:rgb(0,127,0);stroke-width:1" /><circle cx="23.255825" cy="255.813953" r="3.749996" style="fill:rgb(0,127,0);stroke-width:1" /><circle cx="22.900768" cy="251.908422" r="3.749996" style="fill:rgb(0,127,0);stroke-width:1" /><circle cx="22.556394" cy="248.120371" r="3.749996" style="fill:rgb(0,127,0);stroke-width:1" /><circle cx="22.222213" cy="244.444493" r="3.749996" style="fill:rgb(0,127,0);stroke-width:1" /><circle cx="21.897800" cy="240.875959" r="3.749996" style="fill:rgb(0,127,0);stroke-width:1" /><circle cx="18.595040" cy="204.545561" r="3.749996" style="fill:rgb(0,127,0);stroke-width:1" /><circle cx="18.292688" cy="201.219555" r="3.749996" style="fill:rgb(0,127,0);stroke-width:1" /><circle cx="17.999992" cy="198.000010" r="3.749996" style="fill:rgb(0,127,0);stroke-width:1" /><circle cx="13.043471" cy="143.478334" r="3.749996" style="fill:rgb(0,127,0);stroke-width:1" /><circle cx="7.142857" cy="78.571491" r="3.749996" style="fill:rgb(0,127,0);stroke-width:1" /><circle cx="750.000000" cy="750.000000" r="3.749996" style="fill:rgb(0,127,0);stroke-width:1" /><path stroke-linejoin="round" stroke-linecap="round" stroke="rgb(255,255,255)" stroke-width="3.749996" fill="none" d="M 0.000000 750.000000 L 750.000000 750.000000 M 0.000000 750.000000 L 0.000000 0.000000 " />

</svg>