<svg xmlns="http://www.w3.org/2000/svg" version="1.1" width = "750" height = "750" viewBox = "0 0 750 750"  shape-rendering="crispEdges">
<path stroke-linejoin="round" stroke-linecap="round" stroke="rgb(255,255,0)" stroke-width="3.749996" fill="none" d="M 74.999992 750.000000 L 0.000000 0.000000 " />
<path stroke-linejoin="round" stroke-linecap="round" stroke="rgb(63,63,63)" stroke-width="3.749996" fill="none" d="M 0.000000 0.000000 L 750.000000 750.000000 M 74.999992 750.000000 L 35.526306 0.000000 " />
<path stroke-linejoin="round" stroke-linecap="round" stroke="rgb(191,191,191)" stroke-width="3.749996" fill="none" d="M 0.000000 675.000000 L 74.999992 750.000000 M 0.000000 0.000000 L 39.473690 750.000000 " />
<path stroke-linejoin="round" stroke-linecap="round" stroke="rgb(0,0,255)" stroke-width="1.874998" fill="none" d="M 0.000000 750.000000 L 750.000000 571.428589 " />
<path stroke-linejoin="round" stroke-linecap="round" stroke="rgb(255,0,0)" stroke-width="3.749996" fill="none" d="M 74.071793 732.363831 L 74.999992 750.000000 " />
<path stroke-linejoin="round" stroke-linecap="round" stroke="rgb(0,0,255)" stroke-width="1.874998" fill="none" d="M 0.000000 750.000000 L 750.000000 384.146332 " />
<path stroke-linejoin="round" stroke-linecap="round" stroke="rgb(255,0,0)" stroke-width="3.749996" fill="none" d="M 73.122650 714.330444 L 74.071793 732.363831 " />
<path stroke-linejoin="round" stroke-linecap="round" stroke="rgb(0,0,255)" stroke-width="1.874998" fill="none" d="M 0.000000 750.000000 L 750.000000 187.500000 " />
<path stroke-linejoin="round" stroke-linecap="round" stroke="rgb(255,0,0)" stroke-width="3.749996" fill="none" d="M 72.151917 695.886047 L 73.122673 714.330383 " />
<path stroke-linejoin="round" stroke-linecap="round" stroke="rgb(0,0,255)" stroke-width="1.874998" fill="none" d="M 0.000000 750.000000 L 731.250000 0.000000 " />
<path stroke-linejoin="round" stroke-linecap="round" stroke="rgb(255,0,0)" stroke-width="3.749996" fill="none" d="M 71.158783 677.016663 L 72.151917 695.886047 " />
<path stroke-linejoin="round" stroke-linecap="round" stroke="rgb(0,0,255)" stroke-width="1.874998" fill="none" d="M 0.000000 750.000000 L 600.000000 0.000000 " />
<path stroke-linejoin="round" stroke-linecap="round" stroke="rgb(255,0,0)" stroke-width="3.749996" fill="none" d="M 70.370392 662.037048 L 71.158783 677.016663 " />
<path stroke-linejoin="round" stroke-linecap="round" stroke="rgb(0,0,255)" stroke-width="1.874998" fill="none" d="M 0.000000 750.000000 L 570.000000 0.000000 " />
<path stroke-linejoin="round" stroke-linecap="round" stroke="rgb(255,0,0)" stroke-width="3.749996" fill="none" d="M 70.142494 657.707214 L 70.370392 662.037048 " />
<path stroke-linejoin="round" stroke-linecap="round" stroke="rgb(0,0,255)" stroke-width="1.874998" fill="none" d="M 0.000000 750.000000 L 487.499969 0.000000 " />
<path stroke-linejoin="round" stroke-linecap="round" stroke="rgb(255,0,0)" stroke-width="3.749996" fill="none" d="M 69.382042 643.258423 L 70.142494 657.707214 " />
<path stroke-linejoin="round" stroke-linecap="round" stroke="rgb(0,0,255)" stroke-width="1.874998" fill="none" d="M 0.000000 750.000000 L 462.500000 0.000000 " />
<path stroke-linejoin="round" stroke-linecap="round" stroke="rgb(255,0,0)" stroke-width="3.749996" fill="none" d="M 69.102242 637.942322 L 69.382042 643.258423 " />
<path stroke-linejoin="round" stroke-linecap="round" stroke="rgb(0,0,255)" stroke-width="1.874998" fill="none" d="M 0.000000 750.000000 L 407.142883 0.000000 " />
<path stroke-linejoin="round" stroke-linecap="round" stroke="rgb(255,0,0)" stroke-width="3.749996" fill="none" d="M 68.371231 624.053040 L 69.102242 637.942322 " />
<path stroke-linejoin="round" stroke-linecap="round" stroke="rgb(0,0,255)" stroke-width="1.874998" fill="none" d="M 0.000000 750.000000 L 385.714294 0.000000 " />
<path stroke-linejoin="round" stroke-linecap="round" stroke="rgb(255,0,0)" stroke-width="3.749996" fill="none" d="M 68.037140 617.705566 L 68.371231 624.053040 " />
<path stroke-linejoin="round" stroke-linecap="round" stroke="rgb(0,0,255)" stroke-width="1.874998" fill="none" d="M 0.000000 750.000000 L 346.875000 0.000000 " />
<path stroke-linejoin="round" stroke-linecap="round" stroke="rgb(255,0,0)" stroke-width="3.749996" fill="none" d="M 67.337173 604.406128 L 68.037163 617.705566 " />
<path stroke-linejoin="round" stroke-linecap="round" stroke="rgb(0,0,255)" stroke-width="1.874998" fill="none" d="M 0.000000 750.000000 L 328.124969 0.000000 " />
<path stroke-linejoin="round" stroke-linecap="round" stroke="rgb(255,0,0)" stroke-width="3.749996" fill="none" d="M 66.946327 596.979858 L 67.337173 604.406128 " />
<path stroke-linejoin="round" stroke-linecap="round" stroke="rgb(0,0,255)" stroke-width="1.874998" fill="none" d="M 0.000000 750.000000 L 300.000000 0.000000 " />
<path stroke-linejoin="round" stroke-linecap="round" stroke="rgb(255,0,0)" stroke-width="3.749996" fill="none" d="M 66.279083 584.302307 L 66.946327 596.979858 " />
<path stroke-linejoin="round" stroke-linecap="round" stroke="rgb(0,0,255)" stroke-width="1.874998" fill="none" d="M 0.000000 750.000000 L 283.333344 0.000000 " />
<path stroke-linejoin="round" stroke-linecap="round" stroke="rgb(255,0,0)" stroke-width="3.749996" fill="none" d="M 65.828827 575.747253 L 66.279083 584.302307 " />
<path stroke-linejoin="round" stroke-linecap="round" stroke="rgb(0,0,255)" stroke-width="1.874998" fill="none" d="M 0.000000 750.000000 L 262.500000 0.000000 " />
<path stroke-linejoin="round" stroke-linecap="round" stroke="rgb(255,0,0)" stroke-width="3.749996" fill="none" d="M 65.196098 563.725464 L 65.828827 575.747253 " />
<path stroke-linejoin="round" stroke-linecap="round" stroke="rgb(0,0,255)" stroke-width="1.874998" fill="none" d="M 0.000000 750.000000 L 231.818192 0.000000 " />
<path stroke-linejoin="round" stroke-linecap="round" stroke="rgb(255,0,0)" stroke-width="3.749996" fill="none" d="M 64.087318 542.658691 L 65.196098 563.725464 " />
<path stroke-linejoin="round" stroke-linecap="round" stroke="rgb(0,0,255)" stroke-width="1.874998" fill="none" d="M 0.000000 750.000000 L 206.250000 0.000000 " />
<path stroke-linejoin="round" stroke-linecap="round" stroke="rgb(255,0,0)" stroke-width="3.749996" fill="none" d="M 62.951824 521.084290 L 64.087318 542.658691 " />
<path stroke-linejoin="round" stroke-linecap="round" stroke="rgb(0,0,255)" stroke-width="1.874998" fill="none" d="M 0.000000 750.000000 L 196.153839 0.000000 " />
<path stroke-linejoin="round" stroke-linecap="round" stroke="rgb(255,0,0)" stroke-width="3.749996" fill="none" d="M 62.435589 511.275696 L 62.951824 521.084290 " />
<path stroke-linejoin="round" stroke-linecap="round" stroke="rgb(0,0,255)" stroke-width="1.874998" fill="none" d="M 0.000000 750.000000 L 184.615372 0.000000 " />
<path stroke-linejoin="round" stroke-linecap="round" stroke="rgb(255,0,0)" stroke-width="3.749996" fill="none" d="M 61.788620 498.983673 L 62.435589 511.275696 " />
<path stroke-linejoin="round" stroke-linecap="round" stroke="rgb(0,0,255)" stroke-width="1.874998" fill="none" d="M 0.000000 750.000000 L 176.785736 0.000000 " />
<path stroke-linejoin="round" stroke-linecap="round" stroke="rgb(255,0,0)" stroke-width="3.749996" fill="none" d="M 61.310314 489.895630 L 61.788620 498.983673 " />
<path stroke-linejoin="round" stroke-linecap="round" stroke="rgb(0,0,255)" stroke-width="1.874998" fill="none" d="M 0.000000 750.000000 L 166.071426 0.000000 " />
<path stroke-linejoin="round" stroke-linecap="round" stroke="rgb(255,0,0)" stroke-width="3.749996" fill="none" d="M 60.596733 476.337402 L 61.310314 489.895630 " />
<path stroke-linejoin="round" stroke-linecap="round" stroke="rgb(0,0,255)" stroke-width="1.874998" fill="none" d="M 0.000000 750.000000 L 160.000000 0.000000 " />
<path stroke-linejoin="round" stroke-linecap="round" stroke="rgb(255,0,0)" stroke-width="3.749996" fill="none" d="M 60.158329 468.007843 L 60.596733 476.337402 " />
<path stroke-linejoin="round" stroke-linecap="round" stroke="rgb(0,0,255)" stroke-width="1.874998" fill="none" d="M 0.000000 750.000000 L 145.312515 0.000000 " />
<path stroke-linejoin="round" stroke-linecap="round" stroke="rgb(255,0,0)" stroke-width="3.749996" fill="none" d="M 58.978645 445.594055 L 60.158329 468.007843 " />
<path stroke-linejoin="round" stroke-linecap="round" stroke="rgb(0,0,255)" stroke-width="1.874998" fill="none" d="M 0.000000 750.000000 L 141.176468 0.000000 " />
<path stroke-linejoin="round" stroke-linecap="round" stroke="rgb(255,0,0)" stroke-width="3.749996" fill="none" d="M 58.611832 438.624603 L 58.978645 445.594055 " />
<path stroke-linejoin="round" stroke-linecap="round" stroke="rgb(0,0,255)" stroke-width="1.874998" fill="none" d="M 0.000000 750.000000 L 132.352936 0.000000 " />
<path stroke-linejoin="round" stroke-linecap="round" stroke="rgb(255,0,0)" stroke-width="3.749996" fill="none" d="M 57.770290 422.635040 L 58.611832 438.624603 " />
<path stroke-linejoin="round" stroke-linecap="round" stroke="rgb(0,0,255)" stroke-width="1.874998" fill="none" d="M 0.000000 750.000000 L 129.166641 0.000000 " />
<path stroke-linejoin="round" stroke-linecap="round" stroke="rgb(255,0,0)" stroke-width="3.749996" fill="none" d="M 57.444759 416.449829 L 57.770290 422.635040 " />
<path stroke-linejoin="round" stroke-linecap="round" stroke="rgb(0,0,255)" stroke-width="1.874998" fill="none" d="M 0.000000 750.000000 L 120.833336 0.000000 " />
<path stroke-linejoin="round" stroke-linecap="round" stroke="rgb(255,0,0)" stroke-width="3.749996" fill="none" d="M 56.532158 399.110748 L 57.444759 416.449829 " />
<path stroke-linejoin="round" stroke-linecap="round" stroke="rgb(0,0,255)" stroke-width="1.874998" fill="none" d="M 0.000000 750.000000 L 110.526321 0.000000 " />
<path stroke-linejoin="round" stroke-linecap="round" stroke="rgb(255,0,0)" stroke-width="3.749996" fill="none" d="M 55.263161 374.999939 L 56.532158 399.110748 " />
<path stroke-linejoin="round" stroke-linecap="round" stroke="rgb(0,0,255)" stroke-width="1.874998" fill="none" d="M 0.000000 750.000000 L 101.249992 0.000000 " />
<path stroke-linejoin="round" stroke-linecap="round" stroke="rgb(255,0,0)" stroke-width="3.749996" fill="none" d="M 53.962135 350.280457 L 55.263161 374.999939 " />
<path stroke-linejoin="round" stroke-linecap="round" stroke="rgb(0,0,255)" stroke-width="1.874998" fill="none" d="M 0.000000 750.000000 L 99.999992 0.000000 " />
<path stroke-linejoin="round" stroke-linecap="round" stroke="rgb(255,0,0)" stroke-width="3.749996" fill="none" d="M 53.773598 346.697998 L 53.962135 350.280457 " />
<path stroke-linejoin="round" stroke-linecap="round" stroke="rgb(0,0,255)" stroke-width="1.874998" fill="none" d="M 0.000000 750.000000 L 92.045456 0.000000 " />
<path stroke-linejoin="round" stroke-linecap="round" stroke="rgb(255,0,0)" stroke-width="3.749996" fill="none" d="M 52.489780 322.305450 L 53.773598 346.697998 " />
<path stroke-linejoin="round" stroke-linecap="round" stroke="rgb(0,0,255)" stroke-width="1.874998" fill="none" d="M 0.000000 750.000000 L 91.304337 0.000000 " />
<path stroke-linejoin="round" stroke-linecap="round" stroke="rgb(255,0,0)" stroke-width="3.749996" fill="none" d="M 52.362217 319.881805 L 52.489780 322.305450 " />
<path stroke-linejoin="round" stroke-linecap="round" stroke="rgb(0,0,255)" stroke-width="1.874998" fill="none" d="M 0.000000 750.000000 L 88.235291 0.000000 " />
<path stroke-linejoin="round" stroke-linecap="round" stroke="rgb(255,0,0)" stroke-width="3.749996" fill="none" d="M 50.787403 318.306976 L 52.362217 319.881775 " />
<path stroke-linejoin="round" stroke-linecap="round" stroke="rgb(0,0,255)" stroke-width="1.874998" fill="none" d="M 0.000000 750.000000 L 87.662346 0.000000 " />
<path stroke-linejoin="round" stroke-linecap="round" stroke="rgb(255,0,0)" stroke-width="3.749996" fill="none" d="M 50.685009 316.361511 L 50.787403 318.306976 " />
<path stroke-linejoin="round" stroke-linecap="round" stroke="rgb(0,0,255)" stroke-width="1.874998" fill="none" d="M 0.000000 750.000000 L 84.459457 0.000000 " />
<path stroke-linejoin="round" stroke-linecap="round" stroke="rgb(255,0,0)" stroke-width="3.749996" fill="none" d="M 49.020588 314.697144 L 50.685009 316.361542 " />
<path stroke-linejoin="round" stroke-linecap="round" stroke="rgb(0,0,255)" stroke-width="1.874998" fill="none" d="M 0.000000 750.000000 L 80.717484 0.000000 " />
<path stroke-linejoin="round" stroke-linecap="round" stroke="rgb(255,0,0)" stroke-width="3.749996" fill="none" d="M 47.059761 312.736328 L 49.020588 314.697205 " />
<path stroke-linejoin="round" stroke-linecap="round" stroke="rgb(0,0,255)" stroke-width="1.874998" fill="none" d="M 0.000000 750.000000 L 80.000015 0.000000 " />
<path stroke-linejoin="round" stroke-linecap="round" stroke="rgb(255,0,0)" stroke-width="3.749996" fill="none" d="M 46.681793 312.358307 L 47.059761 312.736328 " />
<path stroke-linejoin="round" stroke-linecap="round" stroke="rgb(0,0,255)" stroke-width="1.874998" fill="none" d="M 0.000000 750.000000 L 76.327446 0.000000 " />
<path stroke-linejoin="round" stroke-linecap="round" stroke="rgb(255,0,0)" stroke-width="3.749996" fill="none" d="M 44.736698 310.413239 L 46.681793 312.358307 " />
<path stroke-linejoin="round" stroke-linecap="round" stroke="rgb(0,0,255)" stroke-width="1.874998" fill="none" d="M 0.000000 750.000000 L 72.687218 0.000000 " />
<path stroke-linejoin="round" stroke-linecap="round" stroke="rgb(255,0,0)" stroke-width="3.749996" fill="none" d="M 42.791626 308.468170 L 44.736698 310.413239 " />
<path stroke-linejoin="round" stroke-linecap="round" stroke="rgb(0,0,255)" stroke-width="1.874998" fill="none" d="M 0.000000 750.000000 L 69.078949 0.000000 " />
<path stroke-linejoin="round" stroke-linecap="round" stroke="rgb(255,0,0)" stroke-width="3.749996" fill="none" d="M 40.846558 306.523071 L 42.791626 308.468170 " />
<path stroke-linejoin="round" stroke-linecap="round" stroke="rgb(0,0,255)" stroke-width="1.874998" fill="none" d="M 0.000000 750.000000 L 65.502182 0.000000 " />
<path stroke-linejoin="round" stroke-linecap="round" stroke="rgb(255,0,0)" stroke-width="3.749996" fill="none" d="M 38.901485 304.578003 L 40.846558 306.523071 " />
<path stroke-linejoin="round" stroke-linecap="round" stroke="rgb(0,0,255)" stroke-width="1.874998" fill="none" d="M 0.000000 750.000000 L 64.935074 0.000000 " />
<path stroke-linejoin="round" stroke-linecap="round" stroke="rgb(255,0,0)" stroke-width="3.749996" fill="none" d="M 38.591511 304.268036 L 38.901485 304.578003 " />
<path stroke-linejoin="round" stroke-linecap="round" stroke="rgb(0,0,255)" stroke-width="1.874998" fill="none" d="M 0.000000 750.000000 L 64.377686 0.000000 " />
<path stroke-linejoin="round" stroke-linecap="round" stroke="rgb(255,0,0)" stroke-width="3.749996" fill="none" d="M 38.286434 303.962982 L 38.591511 304.268036 " />
<path stroke-linejoin="round" stroke-linecap="round" stroke="rgb(0,0,255)" stroke-width="1.874998" fill="none" d="M 0.000000 750.000000 L 60.897430 0.000000 " />
<path stroke-linejoin="round" stroke-linecap="round" stroke="rgb(255,0,0)" stroke-width="3.749996" fill="none" d="M 36.372116 302.048615 L 38.286434 303.962982 " />
<path stroke-linejoin="round" stroke-linecap="round" stroke="rgb(0,0,255)" stroke-width="1.874998" fill="none" d="M 0.000000 750.000000 L 57.446815 0.000000 " />
<path stroke-linejoin="round" stroke-linecap="round" stroke="rgb(255,0,0)" stroke-width="3.749996" fill="none" d="M 34.457802 300.134308 L 36.372116 302.048615 " />
<path stroke-linejoin="round" stroke-linecap="round" stroke="rgb(0,0,255)" stroke-width="1.874998" fill="none" d="M 0.000000 750.000000 L 56.962029 0.000000 " />
<path stroke-linejoin="round" stroke-linecap="round" stroke="rgb(255,0,0)" stroke-width="3.749996" fill="none" d="M 34.187550 299.864044 L 34.457802 300.134308 " />
<path stroke-linejoin="round" stroke-linecap="round" stroke="rgb(0,0,255)" stroke-width="1.874998" fill="none" d="M 0.000000 750.000000 L 53.571426 0.000000 " />
<path stroke-linejoin="round" stroke-linecap="round" stroke="rgb(255,0,0)" stroke-width="3.749996" fill="none" d="M 32.288231 297.964752 L 34.187550 299.864044 " />
<path stroke-linejoin="round" stroke-linecap="round" stroke="rgb(0,0,255)" stroke-width="1.874998" fill="none" d="M 0.000000 750.000000 L 50.209209 0.000000 " />
<path stroke-linejoin="round" stroke-linecap="round" stroke="rgb(255,0,0)" stroke-width="3.749996" fill="none" d="M 30.388914 296.065460 L 32.288231 297.964752 " />
<path stroke-linejoin="round" stroke-linecap="round" stroke="rgb(0,0,255)" stroke-width="1.874998" fill="none" d="M 0.000000 750.000000 L 49.792526 0.000000 " />
<path stroke-linejoin="round" stroke-linecap="round" stroke="rgb(255,0,0)" stroke-width="3.749996" fill="none" d="M 30.152433 295.828918 L 30.388914 296.065460 " />
<path stroke-linejoin="round" stroke-linecap="round" stroke="rgb(0,0,255)" stroke-width="1.874998" fill="none" d="M 0.000000 750.000000 L 46.487598 0.000000 " />
<path stroke-linejoin="round" stroke-linecap="round" stroke="rgb(255,0,0)" stroke-width="3.749996" fill="none" d="M 28.267912 293.944427 L 30.152433 295.828918 " />
<path stroke-linejoin="round" stroke-linecap="round" stroke="rgb(0,0,255)" stroke-width="1.874998" fill="none" d="M 0.000000 750.000000 L 43.209873 0.000000 " />
<path stroke-linejoin="round" stroke-linecap="round" stroke="rgb(255,0,0)" stroke-width="3.749996" fill="none" d="M 26.383369 292.059875 L 28.267912 293.944427 " />
<path stroke-linejoin="round" stroke-linecap="round" stroke="rgb(0,0,255)" stroke-width="1.874998" fill="none" d="M 0.000000 750.000000 L 42.857140 0.000000 " />
<path stroke-linejoin="round" stroke-linecap="round" stroke="rgb(255,0,0)" stroke-width="3.749996" fill="none" d="M 26.179657 291.856140 L 26.383369 292.059875 " />
<path stroke-linejoin="round" stroke-linecap="round" stroke="rgb(0,0,255)" stroke-width="1.874998" fill="none" d="M 0.000000 750.000000 L 39.634151 0.000000 " />
<path stroke-linejoin="round" stroke-linecap="round" stroke="rgb(255,0,0)" stroke-width="3.749996" fill="none" d="M 24.309666 289.986176 L 26.179657 291.856140 " />
<path stroke-linejoin="round" stroke-linecap="round" stroke="rgb(0,0,255)" stroke-width="1.874998" fill="none" d="M 0.000000 750.000000 L 36.437252 0.000000 " />
<path stroke-linejoin="round" stroke-linecap="round" stroke="rgb(255,0,0)" stroke-width="3.749996" fill="none" d="M 22.439695 288.116211 L 24.309666 289.986176 " />
<path stroke-linejoin="round" stroke-linecap="round" stroke="rgb(0,0,255)" stroke-width="1.874998" fill="none" d="M 0.000000 750.000000 L 36.144577 0.000000 " />
<path stroke-linejoin="round" stroke-linecap="round" stroke="rgb(255,0,0)" stroke-width="3.749996" fill="none" d="M 22.267744 287.944244 L 22.439695 288.116211 " />
<path stroke-linejoin="round" stroke-linecap="round" stroke="rgb(0,0,255)" stroke-width="1.874998" fill="none" d="M 0.000000 750.000000 L 33.000000 0.000000 " />
<path stroke-linejoin="round" stroke-linecap="round" stroke="rgb(255,0,0)" stroke-width="3.749996" fill="none" d="M 20.412102 286.088593 L 22.267744 287.944244 " />
<path stroke-linejoin="round" stroke-linecap="round" stroke="rgb(0,0,255)" stroke-width="1.874998" fill="none" d="M 0.000000 750.000000 L 29.880480 0.000000 " />
<path stroke-linejoin="round" stroke-linecap="round" stroke="rgb(255,0,0)" stroke-width="3.749996" fill="none" d="M 18.556461 284.233032 L 20.412102 286.088593 " />
<path stroke-linejoin="round" stroke-linecap="round" stroke="rgb(0,0,255)" stroke-width="1.874998" fill="none" d="M 0.000000 750.000000 L 29.644266 0.000000 " />
<path stroke-linejoin="round" stroke-linecap="round" stroke="rgb(255,0,0)" stroke-width="3.749996" fill="none" d="M 18.415333 284.091888 L 18.556461 284.233032 " />
<path stroke-linejoin="round" stroke-linecap="round" stroke="rgb(0,0,255)" stroke-width="1.874998" fill="none" d="M 0.000000 750.000000 L 27.000010 0.000000 " />
<path stroke-linejoin="round" stroke-linecap="round" stroke="rgb(255,0,0)" stroke-width="3.749996" fill="none" d="M 16.829767 282.506317 L 18.415333 284.091888 " />
<path stroke-linejoin="round" stroke-linecap="round" stroke="rgb(0,0,255)" stroke-width="1.874998" fill="none" d="M 0.000000 750.000000 L 23.904383 0.000000 " />
<path stroke-linejoin="round" stroke-linecap="round" stroke="rgb(255,0,0)" stroke-width="3.749996" fill="none" d="M 14.959797 280.636261 L 16.829767 282.506287 " />
<path stroke-linejoin="round" stroke-linecap="round" stroke="rgb(0,0,255)" stroke-width="1.874998" fill="none" d="M 0.000000 750.000000 L 23.715422 0.000000 " />
<path stroke-linejoin="round" stroke-linecap="round" stroke="rgb(255,0,0)" stroke-width="3.749996" fill="none" d="M 14.845155 280.521698 L 14.959797 280.636261 " />
<path stroke-linejoin="round" stroke-linecap="round" stroke="rgb(0,0,255)" stroke-width="1.874998" fill="none" d="M 0.000000 750.000000 L 20.669281 0.000000 " />
<path stroke-linejoin="round" stroke-linecap="round" stroke="rgb(255,0,0)" stroke-width="3.749996" fill="none" d="M 13.565898 257.751923 L 14.845155 280.521698 " />
<path stroke-linejoin="round" stroke-linecap="round" stroke="rgb(0,0,255)" stroke-width="1.874998" fill="none" d="M 0.000000 750.000000 L 17.647058 0.000000 " />
<path stroke-linejoin="round" stroke-linecap="round" stroke="rgb(255,0,0)" stroke-width="3.749996" fill="none" d="M 12.195132 231.707275 L 13.565898 257.751892 " />
<path stroke-linejoin="round" stroke-linecap="round" stroke="rgb(0,0,255)" stroke-width="1.874998" fill="none" d="M 0.000000 750.000000 L 17.509729 0.000000 " />
<path stroke-linejoin="round" stroke-linecap="round" stroke="rgb(255,0,0)" stroke-width="3.749996" fill="none" d="M 12.129374 230.458252 L 12.195132 231.707275 " />
<path stroke-linejoin="round" stroke-linecap="round" stroke="rgb(0,0,255)" stroke-width="1.874998" fill="none" d="M 0.000000 750.000000 L 17.374523 0.000000 " />
<path stroke-linejoin="round" stroke-linecap="round" stroke="rgb(255,0,0)" stroke-width="3.749996" fill="none" d="M 12.064353 229.222549 L 12.129374 230.458252 " />
<path stroke-linejoin="round" stroke-linecap="round" stroke="rgb(0,0,255)" stroke-width="1.874998" fill="none" d="M 0.000000 750.000000 L 17.241373 0.000000 " />
<path stroke-linejoin="round" stroke-linecap="round" stroke="rgb(255,0,0)" stroke-width="3.749996" fill="none" d="M 12.000002 228.000061 L 12.064353 229.222549 " />
<path stroke-linejoin="round" stroke-linecap="round" stroke="rgb(0,0,255)" stroke-width="1.874998" fill="none" d="M 0.000000 750.000000 L 17.110258 0.000000 " />
<path stroke-linejoin="round" stroke-linecap="round" stroke="rgb(255,0,0)" stroke-width="3.749996" fill="none" d="M 11.936344 226.790497 L 12.000002 228.000061 " />
<path stroke-linejoin="round" stroke-linecap="round" stroke="rgb(0,0,255)" stroke-width="1.874998" fill="none" d="M 0.000000 750.000000 L 16.981133 0.000000 " />
<path stroke-linejoin="round" stroke-linecap="round" stroke="rgb(255,0,0)" stroke-width="3.749996" fill="none" d="M 11.873357 225.593735 L 11.936344 226.790497 " />
<path stroke-linejoin="round" stroke-linecap="round" stroke="rgb(0,0,255)" stroke-width="1.874998" fill="none" d="M 0.000000 750.000000 L 15.625008 0.000000 " />
<path stroke-linejoin="round" stroke-linecap="round" stroke="rgb(255,0,0)" stroke-width="3.749996" fill="none" d="M 11.194020 212.686661 L 11.873357 225.593735 " />
<path stroke-linejoin="round" stroke-linecap="round" stroke="rgb(0,0,255)" stroke-width="1.874998" fill="none" d="M 0.000000 750.000000 L 15.495859 0.000000 " />
<path stroke-linejoin="round" stroke-linecap="round" stroke="rgb(255,0,0)" stroke-width="3.749996" fill="none" d="M 11.127591 211.424408 L 11.194020 212.686661 " />
<path stroke-linejoin="round" stroke-linecap="round" stroke="rgb(0,0,255)" stroke-width="1.874998" fill="none" d="M 0.000000 750.000000 L 12.345672 0.000000 " />
<path stroke-linejoin="round" stroke-linecap="round" stroke="rgb(255,0,0)" stroke-width="3.749996" fill="none" d="M 9.404384 178.683517 L 11.127591 211.424408 " />
<path stroke-linejoin="round" stroke-linecap="round" stroke="rgb(0,0,255)" stroke-width="1.874998" fill="none" d="M 0.000000 750.000000 L 12.244887 0.000000 " />
<path stroke-linejoin="round" stroke-linecap="round" stroke="rgb(255,0,0)" stroke-width="3.749996" fill="none" d="M 9.345799 177.570221 L 9.404384 178.683517 " />
<path stroke-linejoin="round" stroke-linecap="round" stroke="rgb(0,0,255)" stroke-width="1.874998" fill="none" d="M 0.000000 750.000000 L 12.048192 0.000000 " />
<path stroke-linejoin="round" stroke-linecap="round" stroke="rgb(255,0,0)" stroke-width="3.749996" fill="none" d="M 9.230778 175.384689 L 9.345799 177.570221 " />
<path stroke-linejoin="round" stroke-linecap="round" stroke="rgb(0,0,255)" stroke-width="1.874998" fill="none" d="M 0.000000 750.000000 L 11.952191 0.000000 " />
<path stroke-linejoin="round" stroke-linecap="round" stroke="rgb(255,0,0)" stroke-width="3.749996" fill="none" d="M 9.174317 174.311996 L 9.230778 175.384689 " />
<path stroke-linejoin="round" stroke-linecap="round" stroke="rgb(0,0,255)" stroke-width="1.874998" fill="none" d="M 0.000000 750.000000 L 11.857711 0.000000 " />
<path stroke-linejoin="round" stroke-linecap="round" stroke="rgb(255,0,0)" stroke-width="3.749996" fill="none" d="M 9.118549 173.252396 L 9.174317 174.311996 " />
<path stroke-linejoin="round" stroke-linecap="round" stroke="rgb(0,0,255)" stroke-width="1.874998" fill="none" d="M 0.000000 750.000000 L 11.764706 0.000000 " />
<path stroke-linejoin="round" stroke-linecap="round" stroke="rgb(255,0,0)" stroke-width="3.749996" fill="none" d="M 9.063453 172.205551 L 9.118549 173.252396 " />
<path stroke-linejoin="round" stroke-linecap="round" stroke="rgb(0,0,255)" stroke-width="1.874998" fill="none" d="M 0.000000 750.000000 L 11.673153 0.000000 " />
<path stroke-linejoin="round" stroke-linecap="round" stroke="rgb(255,0,0)" stroke-width="3.749996" fill="none" d="M 9.009004 171.171295 L 9.063453 172.205551 " />
<path stroke-linejoin="round" stroke-linecap="round" stroke="rgb(0,0,255)" stroke-width="1.874998" fill="none" d="M 0.000000 750.000000 L 11.583008 0.000000 " />
<path stroke-linejoin="round" stroke-linecap="round" stroke="rgb(255,0,0)" stroke-width="3.749996" fill="none" d="M 8.955225 170.149277 L 9.009004 171.171295 " />
<path stroke-linejoin="round" stroke-linecap="round" stroke="rgb(0,0,255)" stroke-width="1.874998" fill="none" d="M 0.000000 750.000000 L 11.494249 0.000000 " />
<path stroke-linejoin="round" stroke-linecap="round" stroke="rgb(255,0,0)" stroke-width="3.749996" fill="none" d="M 8.902073 169.139557 L 8.955225 170.149277 " />
<path stroke-linejoin="round" stroke-linecap="round" stroke="rgb(0,0,255)" stroke-width="1.874998" fill="none" d="M 0.000000 750.000000 L 11.406854 0.000000 " />
<path stroke-linejoin="round" stroke-linecap="round" stroke="rgb(255,0,0)" stroke-width="3.749996" fill="none" d="M 8.849546 168.141678 L 8.902073 169.139557 " />
<path stroke-linejoin="round" stroke-linecap="round" stroke="rgb(0,0,255)" stroke-width="1.874998" fill="none" d="M 0.000000 750.000000 L 11.320755 0.000000 " />
<path stroke-linejoin="round" stroke-linecap="round" stroke="rgb(255,0,0)" stroke-width="3.749996" fill="none" d="M 8.797646 167.155487 L 8.849546 168.141647 " />
<path stroke-linejoin="round" stroke-linecap="round" stroke="rgb(0,0,255)" stroke-width="1.874998" fill="none" d="M 0.000000 750.000000 L 11.235952 0.000000 " />
<path stroke-linejoin="round" stroke-linecap="round" stroke="rgb(255,0,0)" stroke-width="3.749996" fill="none" d="M 8.746348 166.180801 L 8.797646 167.155487 " />
<path stroke-linejoin="round" stroke-linecap="round" stroke="rgb(0,0,255)" stroke-width="1.874998" fill="none" d="M 0.000000 750.000000 L 11.152424 0.000000 " />
<path stroke-linejoin="round" stroke-linecap="round" stroke="rgb(255,0,0)" stroke-width="3.749996" fill="none" d="M 8.695655 165.217453 L 8.746348 166.180801 " />
<path stroke-linejoin="round" stroke-linecap="round" stroke="rgb(0,0,255)" stroke-width="1.874998" fill="none" d="M 0.000000 750.000000 L 9.072572 0.000000 " />
<path stroke-linejoin="round" stroke-linecap="round" stroke="rgb(255,0,0)" stroke-width="3.749996" fill="none" d="M 7.377058 140.164017 L 8.695655 165.217453 " />
<path stroke-linejoin="round" stroke-linecap="round" stroke="rgb(0,0,255)" stroke-width="1.874998" fill="none" d="M 0.000000 750.000000 L 8.999996 0.000000 " />
<path stroke-linejoin="round" stroke-linecap="round" stroke="rgb(255,0,0)" stroke-width="3.749996" fill="none" d="M 7.328979 139.250854 L 7.377058 140.164017 " />
<path stroke-linejoin="round" stroke-linecap="round" stroke="rgb(0,0,255)" stroke-width="1.874998" fill="none" d="M 0.000000 750.000000 L 8.458636 0.000000 " />
<path stroke-linejoin="round" stroke-linecap="round" stroke="rgb(255,0,0)" stroke-width="3.749996" fill="none" d="M 6.965943 132.352997 L 7.328979 139.250854 " />
<path stroke-linejoin="round" stroke-linecap="round" stroke="rgb(0,0,255)" stroke-width="1.874998" fill="none" d="M 0.000000 750.000000 L 5.617976 0.000000 " />
<path stroke-linejoin="round" stroke-linecap="round" stroke="rgb(255,0,0)" stroke-width="3.749996" fill="none" d="M 4.918031 93.442665 L 6.965943 132.352997 " />
<path stroke-linejoin="round" stroke-linecap="round" stroke="rgb(0,0,255)" stroke-width="1.874998" fill="none" d="M 0.000000 750.000000 L 2.798505 0.000000 " />
<path stroke-linejoin="round" stroke-linecap="round" stroke="rgb(255,0,0)" stroke-width="3.749996" fill="none" d="M 2.613232 49.651623 L 4.918031 93.442665 " />
<path stroke-linejoin="round" stroke-linecap="round" stroke="rgb(0,0,255)" stroke-width="1.874998" fill="none" d="M 0.000000 750.000000 L 0.000000 0.000000 " />
<path stroke-linejoin="round" stroke-linecap="round" stroke="rgb(255,0,0)" stroke-width="3.749996" fill="none" d="M 0.000000 0.000000 L 2.613232 49.651623 " />
<circle cx="74.071795" cy="732.363850" r="3.749996" style="fill:rgb(0,127,0);stroke-width:1" /><circle cx="73.122650" cy="714.330420" r="3.749996" style="fill:rgb(0,127,0);stroke-width:1" /><circle cx="72.151914" cy="695.886075" r="3.749996" style="fill:rgb(0,127,0);stroke-width:1" /><circle cx="71.158782" cy="677.016623" r="3.749996" style="fill:rgb(0,127,0);stroke-width:1" /><circle cx="70.370391" cy="662.037022" r="3.749996" style="fill:rgb(0,127,0);stroke-width:1" /><circle cx="70.142493" cy="657.707244" r="3.749996" style="fill:rgb(0,127,0);stroke-width:1" /><circle cx="69.382042" cy="643.258408" r="3.749996" style="fill:rgb(0,127,0);stroke-width:1" /><circle cx="69.102243" cy="637.942314" r="3.749996" style="fill:rgb(0,127,0);stroke-width:1" /><circle cx="68.371229" cy="624.053009" r="3.749996" style="fill:rgb(0,127,0);stroke-width:1" /><circle cx="68.037137" cy="617.705539" r="3.749996" style="fill:rgb(0,127,0);stroke-width:1" /><circle cx="67.337170" cy="604.406118" r="3.749996" style="fill:rgb(0,127,0);stroke-width:1" /><circle cx="66.946328" cy="596.979842" r="3.749996" style="fill:rgb(0,127,0);stroke-width:1" /><circle cx="66.279083" cy="584.302291" r="3.749996" style="fill:rgb(0,127,0);stroke-width:1" /><circle cx="65.828830" cy="575.747252" r="3.749996" style="fill:rgb(0,127,0);stroke-width:1" /><circle cx="65.196097" cy="563.725457" r="3.749996" style="fill:rgb(0,127,0);stroke-width:1" /><circle cx="64.087316" cy="542.658694" r="3.749996" style="fill:rgb(0,127,0);stroke-width:1" /><circle cx="62.951826" cy="521.084279" r="3.749996" style="fill:rgb(0,127,0);stroke-width:1" /><circle cx="62.435590" cy="511.275709" r="3.749996" style="fill:rgb(0,127,0);stroke-width:1" /><circle cx="61.788619" cy="498.983704" r="3.749996" style="fill:rgb(0,127,0);stroke-width:1" /><circle cx="61.310314" cy="489.895664" r="3.749996" style="fill:rgb(0,127,0);stroke-width:1" /><circle cx="60.596734" cy="476.337377" r="3.749996" style="fill:rgb(0,127,0);stroke-width:1" /><circle cx="60.158327" cy="468.007833" r="3.749996" style="fill:rgb(0,127,0);stroke-width:1" /><circle cx="58.978647" cy="445.594059" r="3.749996" style="fill:rgb(0,127,0);stroke-width:1" /><circle cx="58.611833" cy="438.624607" r="3.749996" style="fill:rgb(0,127,0);stroke-width:1" /><circle cx="57.770289" cy="422.635032" r="3.749996" style="fill:rgb(0,127,0);stroke-width:1" /><circle cx="57.444759" cy="416.449822" r="3.749996" style="fill:rgb(0,127,0);stroke-width:1" /><circle cx="56.532159" cy="399.110734" r="3.749996" style="fill:rgb(0,127,0);stroke-width:1" /><circle cx="55.263162" cy="374.999928" r="3.749996" style="fill:rgb(0,127,0);stroke-width:1" /><circle cx="53.962134" cy="350.280440" r="3.749996" style="fill:rgb(0,127,0);stroke-width:1" /><circle cx="53.773597" cy="346.698009" r="3.749996" style="fill:rgb(0,127,0);stroke-width:1" /><circle cx="52.489780" cy="322.305467" r="3.749996" style="fill:rgb(0,127,0);stroke-width:1" /><circle cx="52.362218" cy="319.881823" r="3.749996" style="fill:rgb(0,127,0);stroke-width:1" /><circle cx="50.787404" cy="318.306969" r="3.749996" style="fill:rgb(0,127,0);stroke-width:1" /><circle cx="50.685011" cy="316.361513" r="3.749996" style="fill:rgb(0,127,0);stroke-width:1" /><circle cx="49.020588" cy="314.697146" r="3.749996" style="fill:rgb(0,127,0);stroke-width:1" /><circle cx="47.059759" cy="312.736306" r="3.749996" style="fill:rgb(0,127,0);stroke-width:1" /><circle cx="46.681792" cy="312.358294" r="3.749996" style="fill:rgb(0,127,0);stroke-width:1" /><circle cx="44.736698" cy="310.413228" r="3.749996" style="fill:rgb(0,127,0);stroke-width:1" /><circle cx="42.791627" cy="308.468163" r="3.749996" style="fill:rgb(0,127,0);stroke-width:1" /><circle cx="40.846556" cy="306.523059" r="3.749996" style="fill:rgb(0,127,0);stroke-width:1" /><circle cx="38.901486" cy="304.577993" r="3.749996" style="fill:rgb(0,127,0);stroke-width:1" /><circle cx="38.591512" cy="304.268036" r="3.749996" style="fill:rgb(0,127,0);stroke-width:1" /><circle cx="38.286433" cy="303.962979" r="3.749996" style="fill:rgb(0,127,0);stroke-width:1" /><circle cx="36.372118" cy="302.048597" r="3.749996" style="fill:rgb(0,127,0);stroke-width:1" /><circle cx="34.457803" cy="300.134288" r="3.749996" style="fill:rgb(0,127,0);stroke-width:1" /><circle cx="34.187548" cy="299.864028" r="3.749996" style="fill:rgb(0,127,0);stroke-width:1" /><circle cx="32.288231" cy="297.964739" r="3.749996" style="fill:rgb(0,127,0);stroke-width:1" /><circle cx="30.388914" cy="296.065450" r="3.749996" style="fill:rgb(0,127,0);stroke-width:1" /><circle cx="30.152433" cy="295.828912" r="3.749996" style="fill:rgb(0,127,0);stroke-width:1" /><circle cx="28.267913" cy="293.944431" r="3.749996" style="fill:rgb(0,127,0);stroke-width:1" /><circle cx="26.383370" cy="292.059872" r="3.749996" style="fill:rgb(0,127,0);stroke-width:1" /><circle cx="26.179656" cy="291.856136" r="3.749996" style="fill:rgb(0,127,0);stroke-width:1" /><circle cx="24.309665" cy="289.986167" r="3.749996" style="fill:rgb(0,127,0);stroke-width:1" /><circle cx="22.439696" cy="288.116204" r="3.749996" style="fill:rgb(0,127,0);stroke-width:1" /><circle cx="22.267744" cy="287.944257" r="3.749996" style="fill:rgb(0,127,0);stroke-width:1" /><circle cx="20.412102" cy="286.088599" r="3.749996" style="fill:rgb(0,127,0);stroke-width:1" /><circle cx="18.556461" cy="284.233008" r="3.749996" style="fill:rgb(0,127,0);stroke-width:1" /><circle cx="18.415332" cy="284.091890" r="3.749996" style="fill:rgb(0,127,0);stroke-width:1" /><circle cx="16.829766" cy="282.506313" r="3.749996" style="fill:rgb(0,127,0);stroke-width:1" /><circle cx="14.959797" cy="280.636277" r="3.749996" style="fill:rgb(0,127,0);stroke-width:1" /><circle cx="14.845155" cy="280.521691" r="3.749996" style="fill:rgb(0,127,0);stroke-width:1" /><circle cx="13.565898" cy="257.751916" r="3.749996" style="fill:rgb(0,127,0);stroke-width:1" /><circle cx="12.195133" cy="231.707275" r="3.749996" style="fill:rgb(0,127,0);stroke-width:1" /><circle cx="12.129374" cy="230.458260" r="3.749996" style="fill:rgb(0,127,0);stroke-width:1" /><circle cx="12.064353" cy="229.222544" r="3.749996" style="fill:rgb(0,127,0);stroke-width:1" /><circle cx="12.000002" cy="228.000071" r="3.749996" style="fill:rgb(0,127,0);stroke-width:1" /><circle cx="11.936344" cy="226.790495" r="3.749996" style="fill:rgb(0,127,0);stroke-width:1" /><circle cx="11.873357" cy="225.593738" r="3.749996" style="fill:rgb(0,127,0);stroke-width:1" /><circle cx="11.194021" cy="212.686658" r="3.749996" style="fill:rgb(0,127,0);stroke-width:1" /><circle cx="11.127591" cy="211.424410" r="3.749996" style="fill:rgb(0,127,0);stroke-width:1" /><circle cx="9.404384" cy="178.683512" r="3.749996" style="fill:rgb(0,127,0);stroke-width:1" /><circle cx="9.345800" cy="177.570216" r="3.749996" style="fill:rgb(0,127,0);stroke-width:1" /><circle cx="9.230778" cy="175.384685" r="3.749996" style="fill:rgb(0,127,0);stroke-width:1" /><circle cx="9.174317" cy="174.312003" r="3.749996" style="fill:rgb(0,127,0);stroke-width:1" /><circle cx="9.118550" cy="173.252396" r="3.749996" style="fill:rgb(0,127,0);stroke-width:1" /><circle cx="9.063452" cy="172.205552" r="3.749996" style="fill:rgb(0,127,0);stroke-width:1" /><circle cx="9.009004" cy="171.171293" r="3.749996" style="fill:rgb(0,127,0);stroke-width:1" /><circle cx="8.955225" cy="170.149282" r="3.749996" style="fill:rgb(0,127,0);stroke-width:1" /><circle cx="8.902073" cy="169.139564" r="3.749996" style="fill:rgb(0,127,0);stroke-width:1" /><circle cx="8.849546" cy="168.141671" r="3.749996" style="fill:rgb(0,127,0);stroke-width:1" /><circle cx="8.797646" cy="167.155489" r="3.749996" style="fill:rgb(0,127,0);stroke-width:1" /><circle cx="8.746348" cy="166.180797" r="3.749996" style="fill:rgb(0,127,0);stroke-width:1" /><circle cx="8.695655" cy="165.217459" r="3.749996" style="fill:rgb(0,127,0);stroke-width:1" /><circle cx="7.377058" cy="140.164018" r="3.749996" style="fill:rgb(0,127,0);stroke-width:1" /><circle cx="7.328980" cy="139.250860" r="3.749996" style="fill:rgb(0,127,0);stroke-width:1" /><circle cx="6.965943" cy="132.353000" r="3.749996" style="fill:rgb(0,127,0);stroke-width:1" /><circle cx="4.918031" cy="93.442664" r="3.749996" style="fill:rgb(0,127,0);stroke-width:1" /><circle cx="2.613232" cy="49.651623" r="3.749996" style="fill:rgb(0,127,0);stroke-width:1" /><circle cx="750.000000" cy="750.000000" r="3.749996" style="fill:rgb(0,127,0);stroke-width:1" /><path stroke-linejoin="round" stroke-linecap="round" stroke="rgb(255,255,255)" stroke-width="3.749996" fill="none" d="M 0.000000 750.000000 L 750.000000 750.000000 M 0.000000 750.000000 L 0.000000 0.000000 " />

</svg>