<svg xmlns="http://www.w3.org/2000/svg" version="1.1" width = "750" height = "750" viewBox = "0 0 750 750"  shape-rendering="crispEdges">
<path stroke-linejoin="round" stroke-linecap="round" stroke="rgb(255,255,0)" stroke-width="3.749996" fill="none" d="M 83.333328 750.000000 L 0.000000 0.000000 " />
<path stroke-linejoin="round" stroke-linecap="round" stroke="rgb(63,63,63)" stroke-width="3.749996" fill="none" d="M 0.000000 0.000000 L 750.000000 750.000000 M 83.333328 750.000000 L 39.215683 0.000000 " />
<path stroke-linejoin="round" stroke-linecap="round" stroke="rgb(191,191,191)" stroke-width="3.749996" fill="none" d="M 0.000000 666.666687 L 83.333328 750.000000 M 0.000000 0.000000 L 44.117645 750.000000 " />
<path stroke-linejoin="round" stroke-linecap="round" stroke="rgb(0,0,255)" stroke-width="1.874998" fill="none" d="M 0.000000 750.000000 L 750.000000 727.941162 " />
<path stroke-linejoin="round" stroke-linecap="round" stroke="rgb(255,0,0)" stroke-width="3.749996" fill="none" d="M 83.189407 747.553223 L 83.333328 750.000000 " />
<path stroke-linejoin="round" stroke-linecap="round" stroke="rgb(0,0,255)" stroke-width="1.874998" fill="none" d="M 0.000000 750.000000 L 750.000000 704.545471 " />
<path stroke-linejoin="round" stroke-linecap="round" stroke="rgb(255,0,0)" stroke-width="3.749996" fill="none" d="M 82.676613 744.989258 L 83.189407 747.553223 " />
<path stroke-linejoin="round" stroke-linecap="round" stroke="rgb(0,0,255)" stroke-width="1.874998" fill="none" d="M 0.000000 750.000000 L 750.000000 683.823547 " />
<path stroke-linejoin="round" stroke-linecap="round" stroke="rgb(255,0,0)" stroke-width="3.749996" fill="none" d="M 82.227654 742.744629 L 82.676590 744.989258 " />
<path stroke-linejoin="round" stroke-linecap="round" stroke="rgb(0,0,255)" stroke-width="1.874998" fill="none" d="M 0.000000 750.000000 L 750.000000 679.687500 " />
<path stroke-linejoin="round" stroke-linecap="round" stroke="rgb(255,0,0)" stroke-width="3.749996" fill="none" d="M 82.138626 742.299500 L 82.227654 742.744629 " />
<path stroke-linejoin="round" stroke-linecap="round" stroke="rgb(0,0,255)" stroke-width="1.874998" fill="none" d="M 0.000000 750.000000 L 750.000000 653.225830 " />
<path stroke-linejoin="round" stroke-linecap="round" stroke="rgb(255,0,0)" stroke-width="3.749996" fill="none" d="M 81.573624 739.474365 L 82.138626 742.299500 " />
<path stroke-linejoin="round" stroke-linecap="round" stroke="rgb(0,0,255)" stroke-width="1.874998" fill="none" d="M 0.000000 750.000000 L 750.000000 625.000000 " />
<path stroke-linejoin="round" stroke-linecap="round" stroke="rgb(255,0,0)" stroke-width="3.749996" fill="none" d="M 80.979424 736.503418 L 81.573624 739.474365 " />
<path stroke-linejoin="round" stroke-linecap="round" stroke="rgb(0,0,255)" stroke-width="1.874998" fill="none" d="M 0.000000 750.000000 L 750.000000 594.827576 " />
<path stroke-linejoin="round" stroke-linecap="round" stroke="rgb(255,0,0)" stroke-width="3.749996" fill="none" d="M 80.353752 733.375061 L 80.979424 736.503418 " />
<path stroke-linejoin="round" stroke-linecap="round" stroke="rgb(0,0,255)" stroke-width="1.874998" fill="none" d="M 0.000000 750.000000 L 750.000000 575.000000 " />
<path stroke-linejoin="round" stroke-linecap="round" stroke="rgb(255,0,0)" stroke-width="3.749996" fill="none" d="M 79.947845 731.345520 L 80.353752 733.375061 " />
<path stroke-linejoin="round" stroke-linecap="round" stroke="rgb(0,0,255)" stroke-width="1.874998" fill="none" d="M 0.000000 750.000000 L 750.000000 562.500000 " />
<path stroke-linejoin="round" stroke-linecap="round" stroke="rgb(255,0,0)" stroke-width="3.749996" fill="none" d="M 79.694038 730.076477 L 79.947845 731.345520 " />
<path stroke-linejoin="round" stroke-linecap="round" stroke="rgb(0,0,255)" stroke-width="1.874998" fill="none" d="M 0.000000 750.000000 L 750.000000 277.777802 " />
<path stroke-linejoin="round" stroke-linecap="round" stroke="rgb(255,0,0)" stroke-width="3.749996" fill="none" d="M 77.474312 701.219849 L 79.694038 730.076477 " />
<path stroke-linejoin="round" stroke-linecap="round" stroke="rgb(0,0,255)" stroke-width="1.874998" fill="none" d="M 0.000000 750.000000 L 722.222168 0.000000 " />
<path stroke-linejoin="round" stroke-linecap="round" stroke="rgb(255,0,0)" stroke-width="3.749996" fill="none" d="M 75.218079 671.888916 L 77.474335 701.219849 " />
<path stroke-linejoin="round" stroke-linecap="round" stroke="rgb(0,0,255)" stroke-width="1.874998" fill="none" d="M 0.000000 750.000000 L 547.297302 0.000000 " />
<path stroke-linejoin="round" stroke-linecap="round" stroke="rgb(255,0,0)" stroke-width="3.749996" fill="none" d="M 73.480789 649.304077 L 75.218079 671.888916 " />
<path stroke-linejoin="round" stroke-linecap="round" stroke="rgb(0,0,255)" stroke-width="1.874998" fill="none" d="M 0.000000 750.000000 L 486.486511 0.000000 " />
<path stroke-linejoin="round" stroke-linecap="round" stroke="rgb(255,0,0)" stroke-width="3.749996" fill="none" d="M 72.615219 638.051575 L 73.480789 649.304077 " />
<path stroke-linejoin="round" stroke-linecap="round" stroke="rgb(0,0,255)" stroke-width="1.874998" fill="none" d="M 0.000000 750.000000 L 398.936157 0.000000 " />
<path stroke-linejoin="round" stroke-linecap="round" stroke="rgb(255,0,0)" stroke-width="3.749996" fill="none" d="M 70.964119 616.587463 L 72.615219 638.051575 " />
<path stroke-linejoin="round" stroke-linecap="round" stroke="rgb(0,0,255)" stroke-width="1.874998" fill="none" d="M 0.000000 750.000000 L 392.045441 0.000000 " />
<path stroke-linejoin="round" stroke-linecap="round" stroke="rgb(255,0,0)" stroke-width="3.749996" fill="none" d="M 70.806900 614.543335 L 70.964119 616.587463 " />
<path stroke-linejoin="round" stroke-linecap="round" stroke="rgb(0,0,255)" stroke-width="1.874998" fill="none" d="M 0.000000 750.000000 L 305.555542 0.000000 " />
<path stroke-linejoin="round" stroke-linecap="round" stroke="rgb(255,0,0)" stroke-width="3.749996" fill="none" d="M 68.325920 582.290833 L 70.806900 614.543335 " />
<path stroke-linejoin="round" stroke-linecap="round" stroke="rgb(0,0,255)" stroke-width="1.874998" fill="none" d="M 0.000000 750.000000 L 269.531250 0.000000 " />
<path stroke-linejoin="round" stroke-linecap="round" stroke="rgb(255,0,0)" stroke-width="3.749996" fill="none" d="M 66.905693 563.827637 L 68.325920 582.290833 " />
<path stroke-linejoin="round" stroke-linecap="round" stroke="rgb(0,0,255)" stroke-width="1.874998" fill="none" d="M 0.000000 750.000000 L 245.689651 0.000000 " />
<path stroke-linejoin="round" stroke-linecap="round" stroke="rgb(255,0,0)" stroke-width="3.749996" fill="none" d="M 65.780258 549.197083 L 66.905693 563.827637 " />
<path stroke-linejoin="round" stroke-linecap="round" stroke="rgb(0,0,255)" stroke-width="1.874998" fill="none" d="M 0.000000 750.000000 L 230.769241 0.000000 " />
<path stroke-linejoin="round" stroke-linecap="round" stroke="rgb(255,0,0)" stroke-width="3.749996" fill="none" d="M 64.206566 541.328674 L 65.780258 549.197083 " />
<path stroke-linejoin="round" stroke-linecap="round" stroke="rgb(0,0,255)" stroke-width="1.874998" fill="none" d="M 0.000000 750.000000 L 222.222229 0.000000 " />
<path stroke-linejoin="round" stroke-linecap="round" stroke="rgb(255,0,0)" stroke-width="3.749996" fill="none" d="M 63.248253 536.537109 L 64.206566 541.328674 " />
<path stroke-linejoin="round" stroke-linecap="round" stroke="rgb(0,0,255)" stroke-width="1.874998" fill="none" d="M 0.000000 750.000000 L 214.285721 0.000000 " />
<path stroke-linejoin="round" stroke-linecap="round" stroke="rgb(255,0,0)" stroke-width="3.749996" fill="none" d="M 62.318130 531.886536 L 63.248253 536.537109 " />
<path stroke-linejoin="round" stroke-linecap="round" stroke="rgb(0,0,255)" stroke-width="1.874998" fill="none" d="M 0.000000 750.000000 L 197.368423 0.000000 " />
<path stroke-linejoin="round" stroke-linecap="round" stroke="rgb(255,0,0)" stroke-width="3.749996" fill="none" d="M 60.193665 521.264099 L 62.318130 531.886536 " />
<path stroke-linejoin="round" stroke-linecap="round" stroke="rgb(0,0,255)" stroke-width="1.874998" fill="none" d="M 0.000000 750.000000 L 190.677963 0.000000 " />
<path stroke-linejoin="round" stroke-linecap="round" stroke="rgb(255,0,0)" stroke-width="3.749996" fill="none" d="M 59.295238 516.772034 L 60.193665 521.264099 " />
<path stroke-linejoin="round" stroke-linecap="round" stroke="rgb(0,0,255)" stroke-width="1.874998" fill="none" d="M 0.000000 750.000000 L 175.000015 0.000000 " />
<path stroke-linejoin="round" stroke-linecap="round" stroke="rgb(255,0,0)" stroke-width="3.749996" fill="none" d="M 57.045063 505.521118 L 59.295238 516.772034 " />
<path stroke-linejoin="round" stroke-linecap="round" stroke="rgb(0,0,255)" stroke-width="1.874998" fill="none" d="M 0.000000 750.000000 L 169.354858 0.000000 " />
<path stroke-linejoin="round" stroke-linecap="round" stroke="rgb(255,0,0)" stroke-width="3.749996" fill="none" d="M 56.180744 501.199554 L 57.045063 505.521118 " />
<path stroke-linejoin="round" stroke-linecap="round" stroke="rgb(0,0,255)" stroke-width="1.874998" fill="none" d="M 0.000000 750.000000 L 154.761902 0.000000 " />
<path stroke-linejoin="round" stroke-linecap="round" stroke="rgb(255,0,0)" stroke-width="3.749996" fill="none" d="M 53.798096 489.286194 L 56.180744 501.199554 " />
<path stroke-linejoin="round" stroke-linecap="round" stroke="rgb(0,0,255)" stroke-width="1.874998" fill="none" d="M 0.000000 750.000000 L 149.999985 0.000000 " />
<path stroke-linejoin="round" stroke-linecap="round" stroke="rgb(255,0,0)" stroke-width="3.749996" fill="none" d="M 52.970432 485.147858 L 53.798096 489.286163 " />
<path stroke-linejoin="round" stroke-linecap="round" stroke="rgb(0,0,255)" stroke-width="1.874998" fill="none" d="M 0.000000 750.000000 L 145.522400 0.000000 " />
<path stroke-linejoin="round" stroke-linecap="round" stroke="rgb(255,0,0)" stroke-width="3.749996" fill="none" d="M 52.167847 481.134979 L 52.970432 485.147858 " />
<path stroke-linejoin="round" stroke-linecap="round" stroke="rgb(0,0,255)" stroke-width="1.874998" fill="none" d="M 0.000000 750.000000 L 141.304337 0.000000 " />
<path stroke-linejoin="round" stroke-linecap="round" stroke="rgb(255,0,0)" stroke-width="3.749996" fill="none" d="M 51.389225 477.241821 L 52.167847 481.134979 " />
<path stroke-linejoin="round" stroke-linecap="round" stroke="rgb(0,0,255)" stroke-width="1.874998" fill="none" d="M 0.000000 750.000000 L 137.323959 0.000000 " />
<path stroke-linejoin="round" stroke-linecap="round" stroke="rgb(255,0,0)" stroke-width="3.749996" fill="none" d="M 50.633492 473.463226 L 51.389225 477.241821 " />
<path stroke-linejoin="round" stroke-linecap="round" stroke="rgb(0,0,255)" stroke-width="1.874998" fill="none" d="M 0.000000 750.000000 L 136.363647 0.000000 " />
<path stroke-linejoin="round" stroke-linecap="round" stroke="rgb(255,0,0)" stroke-width="3.749996" fill="none" d="M 50.448017 472.535858 L 50.633492 473.463226 " />
<path stroke-linejoin="round" stroke-linecap="round" stroke="rgb(0,0,255)" stroke-width="1.874998" fill="none" d="M 0.000000 750.000000 L 132.352936 0.000000 " />
<path stroke-linejoin="round" stroke-linecap="round" stroke="rgb(255,0,0)" stroke-width="3.749996" fill="none" d="M 49.659782 468.594604 L 50.448017 472.535858 " />
<path stroke-linejoin="round" stroke-linecap="round" stroke="rgb(0,0,255)" stroke-width="1.874998" fill="none" d="M 0.000000 750.000000 L 125.000015 0.000000 " />
<path stroke-linejoin="round" stroke-linecap="round" stroke="rgb(255,0,0)" stroke-width="3.749996" fill="none" d="M 48.154926 461.070374 L 49.659782 468.594604 " />
<path stroke-linejoin="round" stroke-linecap="round" stroke="rgb(0,0,255)" stroke-width="1.874998" fill="none" d="M 0.000000 750.000000 L 121.621635 0.000000 " />
<path stroke-linejoin="round" stroke-linecap="round" stroke="rgb(255,0,0)" stroke-width="3.749996" fill="none" d="M 47.436207 457.476715 L 48.154926 461.070374 " />
<path stroke-linejoin="round" stroke-linecap="round" stroke="rgb(0,0,255)" stroke-width="1.874998" fill="none" d="M 0.000000 750.000000 L 109.999985 0.000000 " />
<path stroke-linejoin="round" stroke-linecap="round" stroke="rgb(255,0,0)" stroke-width="3.749996" fill="none" d="M 44.821144 444.401367 L 47.436207 457.476715 " />
<path stroke-linejoin="round" stroke-linecap="round" stroke="rgb(0,0,255)" stroke-width="1.874998" fill="none" d="M 0.000000 750.000000 L 98.684212 0.000000 " />
<path stroke-linejoin="round" stroke-linecap="round" stroke="rgb(255,0,0)" stroke-width="3.749996" fill="none" d="M 42.040028 430.495850 L 44.821144 444.401367 " />
<path stroke-linejoin="round" stroke-linecap="round" stroke="rgb(0,0,255)" stroke-width="1.874998" fill="none" d="M 0.000000 750.000000 L 96.153839 0.000000 " />
<path stroke-linejoin="round" stroke-linecap="round" stroke="rgb(255,0,0)" stroke-width="3.749996" fill="none" d="M 41.383156 427.211426 L 42.040028 430.495850 " />
<path stroke-linejoin="round" stroke-linecap="round" stroke="rgb(0,0,255)" stroke-width="1.874998" fill="none" d="M 0.000000 750.000000 L 93.750000 0.000000 " />
<path stroke-linejoin="round" stroke-linecap="round" stroke="rgb(255,0,0)" stroke-width="3.749996" fill="none" d="M 40.746487 424.028137 L 41.383156 427.211426 " />
<path stroke-linejoin="round" stroke-linecap="round" stroke="rgb(0,0,255)" stroke-width="1.874998" fill="none" d="M 0.000000 750.000000 L 91.463417 0.000000 " />
<path stroke-linejoin="round" stroke-linecap="round" stroke="rgb(255,0,0)" stroke-width="3.749996" fill="none" d="M 40.129108 420.941284 L 40.746487 424.028137 " />
<path stroke-linejoin="round" stroke-linecap="round" stroke="rgb(0,0,255)" stroke-width="1.874998" fill="none" d="M 0.000000 750.000000 L 89.285728 0.000000 " />
<path stroke-linejoin="round" stroke-linecap="round" stroke="rgb(255,0,0)" stroke-width="3.749996" fill="none" d="M 39.530174 417.946594 L 40.129108 420.941284 " />
<path stroke-linejoin="round" stroke-linecap="round" stroke="rgb(0,0,255)" stroke-width="1.874998" fill="none" d="M 0.000000 750.000000 L 79.411758 0.000000 " />
<path stroke-linejoin="round" stroke-linecap="round" stroke="rgb(255,0,0)" stroke-width="3.749996" fill="none" d="M 36.671833 403.654877 L 39.530174 417.946594 " />
<path stroke-linejoin="round" stroke-linecap="round" stroke="rgb(0,0,255)" stroke-width="1.874998" fill="none" d="M 0.000000 750.000000 L 69.767433 0.000000 " />
<path stroke-linejoin="round" stroke-linecap="round" stroke="rgb(255,0,0)" stroke-width="3.749996" fill="none" d="M 33.632019 388.455841 L 36.671833 403.654877 " />
<path stroke-linejoin="round" stroke-linecap="round" stroke="rgb(0,0,255)" stroke-width="1.874998" fill="none" d="M 0.000000 750.000000 L 68.181824 0.000000 " />
<path stroke-linejoin="round" stroke-linecap="round" stroke="rgb(255,0,0)" stroke-width="3.749996" fill="none" d="M 33.106529 385.828308 L 33.632019 388.455841 " />
<path stroke-linejoin="round" stroke-linecap="round" stroke="rgb(0,0,255)" stroke-width="1.874998" fill="none" d="M 0.000000 750.000000 L 66.666664 0.000000 " />
<path stroke-linejoin="round" stroke-linecap="round" stroke="rgb(255,0,0)" stroke-width="3.749996" fill="none" d="M 32.597176 383.281677 L 33.106529 385.828308 " />
<path stroke-linejoin="round" stroke-linecap="round" stroke="rgb(0,0,255)" stroke-width="1.874998" fill="none" d="M 0.000000 750.000000 L 65.217400 0.000000 " />
<path stroke-linejoin="round" stroke-linecap="round" stroke="rgb(255,0,0)" stroke-width="3.749996" fill="none" d="M 32.103294 380.812164 L 32.597176 383.281677 " />
<path stroke-linejoin="round" stroke-linecap="round" stroke="rgb(0,0,255)" stroke-width="1.874998" fill="none" d="M 0.000000 750.000000 L 63.829781 0.000000 " />
<path stroke-linejoin="round" stroke-linecap="round" stroke="rgb(255,0,0)" stroke-width="3.749996" fill="none" d="M 31.624138 378.416382 L 32.103294 380.812164 " />
<path stroke-linejoin="round" stroke-linecap="round" stroke="rgb(0,0,255)" stroke-width="1.874998" fill="none" d="M 0.000000 750.000000 L 62.500008 0.000000 " />
<path stroke-linejoin="round" stroke-linecap="round" stroke="rgb(255,0,0)" stroke-width="3.749996" fill="none" d="M 31.159088 376.091064 L 31.624138 378.416321 " />
<path stroke-linejoin="round" stroke-linecap="round" stroke="rgb(0,0,255)" stroke-width="1.874998" fill="none" d="M 0.000000 750.000000 L 61.224483 0.000000 " />
<path stroke-linejoin="round" stroke-linecap="round" stroke="rgb(255,0,0)" stroke-width="3.749996" fill="none" d="M 30.707493 373.833160 L 31.159065 376.091064 " />
<path stroke-linejoin="round" stroke-linecap="round" stroke="rgb(0,0,255)" stroke-width="1.874998" fill="none" d="M 0.000000 750.000000 L 59.999989 0.000000 " />
<path stroke-linejoin="round" stroke-linecap="round" stroke="rgb(255,0,0)" stroke-width="3.749996" fill="none" d="M 30.268818 371.639832 L 30.707493 373.833160 " />
<path stroke-linejoin="round" stroke-linecap="round" stroke="rgb(0,0,255)" stroke-width="1.874998" fill="none" d="M 0.000000 750.000000 L 56.451603 0.000000 " />
<path stroke-linejoin="round" stroke-linecap="round" stroke="rgb(255,0,0)" stroke-width="3.749996" fill="none" d="M 28.968193 365.136749 L 30.268818 371.639832 " />
<path stroke-linejoin="round" stroke-linecap="round" stroke="rgb(0,0,255)" stroke-width="1.874998" fill="none" d="M 0.000000 750.000000 L 55.263161 0.000000 " />
<path stroke-linejoin="round" stroke-linecap="round" stroke="rgb(255,0,0)" stroke-width="3.749996" fill="none" d="M 28.522543 362.908386 L 28.968193 365.136749 " />
<path stroke-linejoin="round" stroke-linecap="round" stroke="rgb(0,0,255)" stroke-width="1.874998" fill="none" d="M 0.000000 750.000000 L 54.123714 0.000000 " />
<path stroke-linejoin="round" stroke-linecap="round" stroke="rgb(255,0,0)" stroke-width="3.749996" fill="none" d="M 28.090372 360.747650 L 28.522543 362.908386 " />
<path stroke-linejoin="round" stroke-linecap="round" stroke="rgb(0,0,255)" stroke-width="1.874998" fill="none" d="M 0.000000 750.000000 L 53.030312 0.000000 " />
<path stroke-linejoin="round" stroke-linecap="round" stroke="rgb(255,0,0)" stroke-width="3.749996" fill="none" d="M 27.671122 358.651306 L 28.090372 360.747650 " />
<path stroke-linejoin="round" stroke-linecap="round" stroke="rgb(0,0,255)" stroke-width="1.874998" fill="none" d="M 0.000000 750.000000 L 51.980206 0.000000 " />
<path stroke-linejoin="round" stroke-linecap="round" stroke="rgb(255,0,0)" stroke-width="3.749996" fill="none" d="M 27.264185 356.616699 L 27.671122 358.651306 " />
<path stroke-linejoin="round" stroke-linecap="round" stroke="rgb(0,0,255)" stroke-width="1.874998" fill="none" d="M 0.000000 750.000000 L 46.875000 0.000000 " />
<path stroke-linejoin="round" stroke-linecap="round" stroke="rgb(255,0,0)" stroke-width="3.749996" fill="none" d="M 25.224009 346.415802 L 27.264185 356.616699 " />
<path stroke-linejoin="round" stroke-linecap="round" stroke="rgb(0,0,255)" stroke-width="1.874998" fill="none" d="M 0.000000 750.000000 L 38.659798 0.000000 " />
<path stroke-linejoin="round" stroke-linecap="round" stroke="rgb(255,0,0)" stroke-width="3.749996" fill="none" d="M 21.709196 328.841675 L 25.224009 346.415802 " />
<path stroke-linejoin="round" stroke-linecap="round" stroke="rgb(0,0,255)" stroke-width="1.874998" fill="none" d="M 0.000000 750.000000 L 30.612253 0.000000 " />
<path stroke-linejoin="round" stroke-linecap="round" stroke="rgb(255,0,0)" stroke-width="3.749996" fill="none" d="M 18.375053 299.811401 L 21.709196 328.841644 " />
<path stroke-linejoin="round" stroke-linecap="round" stroke="rgb(0,0,255)" stroke-width="1.874998" fill="none" d="M 0.000000 750.000000 L 29.999994 0.000000 " />
<path stroke-linejoin="round" stroke-linecap="round" stroke="rgb(255,0,0)" stroke-width="3.749996" fill="none" d="M 18.068790 298.280121 L 18.375053 299.811401 " />
<path stroke-linejoin="round" stroke-linecap="round" stroke="rgb(0,0,255)" stroke-width="1.874998" fill="none" d="M 0.000000 750.000000 L 28.846151 0.000000 " />
<path stroke-linejoin="round" stroke-linecap="round" stroke="rgb(255,0,0)" stroke-width="3.749996" fill="none" d="M 17.510532 294.726379 L 18.068790 298.280121 " />
<path stroke-linejoin="round" stroke-linecap="round" stroke="rgb(0,0,255)" stroke-width="1.874998" fill="none" d="M 0.000000 750.000000 L 28.301888 0.000000 " />
<path stroke-linejoin="round" stroke-linecap="round" stroke="rgb(255,0,0)" stroke-width="3.749996" fill="none" d="M 17.262295 292.548889 L 17.510532 294.726379 " />
<path stroke-linejoin="round" stroke-linecap="round" stroke="rgb(0,0,255)" stroke-width="1.874998" fill="none" d="M 0.000000 750.000000 L 27.777784 0.000000 " />
<path stroke-linejoin="round" stroke-linecap="round" stroke="rgb(255,0,0)" stroke-width="3.749996" fill="none" d="M 17.051025 289.622314 L 17.262318 292.548859 " />
<path stroke-linejoin="round" stroke-linecap="round" stroke="rgb(0,0,255)" stroke-width="1.874998" fill="none" d="M 0.000000 750.000000 L 27.272724 0.000000 " />
<path stroke-linejoin="round" stroke-linecap="round" stroke="rgb(255,0,0)" stroke-width="3.749996" fill="none" d="M 16.855337 286.478210 L 17.051025 289.622314 " />
<path stroke-linejoin="round" stroke-linecap="round" stroke="rgb(0,0,255)" stroke-width="1.874998" fill="none" d="M 0.000000 750.000000 L 26.785725 0.000000 " />
<path stroke-linejoin="round" stroke-linecap="round" stroke="rgb(255,0,0)" stroke-width="3.749996" fill="none" d="M 16.667023 283.323578 L 16.855337 286.478210 " />
<path stroke-linejoin="round" stroke-linecap="round" stroke="rgb(0,0,255)" stroke-width="1.874998" fill="none" d="M 0.000000 750.000000 L 26.315779 0.000000 " />
<path stroke-linejoin="round" stroke-linecap="round" stroke="rgb(255,0,0)" stroke-width="3.749996" fill="none" d="M 16.483604 280.217316 L 16.667023 283.323578 " />
<path stroke-linejoin="round" stroke-linecap="round" stroke="rgb(0,0,255)" stroke-width="1.874998" fill="none" d="M 0.000000 750.000000 L 25.862061 0.000000 " />
<path stroke-linejoin="round" stroke-linecap="round" stroke="rgb(255,0,0)" stroke-width="3.749996" fill="none" d="M 16.304367 277.173309 L 16.483604 280.217316 " />
<path stroke-linejoin="round" stroke-linecap="round" stroke="rgb(0,0,255)" stroke-width="1.874998" fill="none" d="M 0.000000 750.000000 L 25.423721 0.000000 " />
<path stroke-linejoin="round" stroke-linecap="round" stroke="rgb(255,0,0)" stroke-width="3.749996" fill="none" d="M 16.129040 274.193420 L 16.304367 277.173370 " />
<path stroke-linejoin="round" stroke-linecap="round" stroke="rgb(0,0,255)" stroke-width="1.874998" fill="none" d="M 0.000000 750.000000 L 24.999998 0.000000 " />
<path stroke-linejoin="round" stroke-linecap="round" stroke="rgb(255,0,0)" stroke-width="3.749996" fill="none" d="M 15.957445 271.276611 L 16.129040 274.193420 " />
<path stroke-linejoin="round" stroke-linecap="round" stroke="rgb(0,0,255)" stroke-width="1.874998" fill="none" d="M 0.000000 750.000000 L 19.565218 0.000000 " />
<path stroke-linejoin="round" stroke-linecap="round" stroke="rgb(255,0,0)" stroke-width="3.749996" fill="none" d="M 13.554208 230.421692 L 15.957445 271.276611 " />
<path stroke-linejoin="round" stroke-linecap="round" stroke="rgb(0,0,255)" stroke-width="1.874998" fill="none" d="M 0.000000 750.000000 L 12.931042 0.000000 " />
<path stroke-linejoin="round" stroke-linecap="round" stroke="rgb(255,0,0)" stroke-width="3.749996" fill="none" d="M 9.999990 170.000000 L 13.554208 230.421692 " />
<path stroke-linejoin="round" stroke-linecap="round" stroke="rgb(0,0,255)" stroke-width="1.874998" fill="none" d="M 0.000000 750.000000 L 6.410256 0.000000 " />
<path stroke-linejoin="round" stroke-linecap="round" stroke="rgb(255,0,0)" stroke-width="3.749996" fill="none" d="M 5.597010 95.149284 L 9.999990 170.000000 " />
<path stroke-linejoin="round" stroke-linecap="round" stroke="rgb(0,0,255)" stroke-width="1.874998" fill="none" d="M 0.000000 750.000000 L 0.000000 0.000000 " />
<path stroke-linejoin="round" stroke-linecap="round" stroke="rgb(255,0,0)" stroke-width="3.749996" fill="none" d="M 0.000000 0.000000 L 5.597010 95.149284 " />
<circle cx="83.189406" cy="747.553244" r="3.749996" style="fill:rgb(0,127,0);stroke-width:1" /><circle cx="82.676612" cy="744.989298" r="3.749996" style="fill:rgb(0,127,0);stroke-width:1" /><circle cx="82.227655" cy="742.744625" r="3.749996" style="fill:rgb(0,127,0);stroke-width:1" /><circle cx="82.138628" cy="742.299512" r="3.749996" style="fill:rgb(0,127,0);stroke-width:1" /><circle cx="81.573620" cy="739.474364" r="3.749996" style="fill:rgb(0,127,0);stroke-width:1" /><circle cx="80.979422" cy="736.503437" r="3.749996" style="fill:rgb(0,127,0);stroke-width:1" /><circle cx="80.353752" cy="733.375087" r="3.749996" style="fill:rgb(0,127,0);stroke-width:1" /><circle cx="79.947844" cy="731.345505" r="3.749996" style="fill:rgb(0,127,0);stroke-width:1" /><circle cx="79.694040" cy="730.076484" r="3.749996" style="fill:rgb(0,127,0);stroke-width:1" /><circle cx="77.474311" cy="701.219872" r="3.749996" style="fill:rgb(0,127,0);stroke-width:1" /><circle cx="75.218081" cy="671.888910" r="3.749996" style="fill:rgb(0,127,0);stroke-width:1" /><circle cx="73.480792" cy="649.304107" r="3.749996" style="fill:rgb(0,127,0);stroke-width:1" /><circle cx="72.615221" cy="638.051547" r="3.749996" style="fill:rgb(0,127,0);stroke-width:1" /><circle cx="70.964120" cy="616.587438" r="3.749996" style="fill:rgb(0,127,0);stroke-width:1" /><circle cx="70.806898" cy="614.543349" r="3.749996" style="fill:rgb(0,127,0);stroke-width:1" /><circle cx="68.325922" cy="582.290880" r="3.749996" style="fill:rgb(0,127,0);stroke-width:1" /><circle cx="66.905692" cy="563.827649" r="3.749996" style="fill:rgb(0,127,0);stroke-width:1" /><circle cx="65.780260" cy="549.197093" r="3.749996" style="fill:rgb(0,127,0);stroke-width:1" /><circle cx="64.206563" cy="541.328665" r="3.749996" style="fill:rgb(0,127,0);stroke-width:1" /><circle cx="63.248254" cy="536.537133" r="3.749996" style="fill:rgb(0,127,0);stroke-width:1" /><circle cx="62.318131" cy="531.886518" r="3.749996" style="fill:rgb(0,127,0);stroke-width:1" /><circle cx="60.193665" cy="521.264099" r="3.749996" style="fill:rgb(0,127,0);stroke-width:1" /><circle cx="59.295237" cy="516.772047" r="3.749996" style="fill:rgb(0,127,0);stroke-width:1" /><circle cx="57.045065" cy="505.521141" r="3.749996" style="fill:rgb(0,127,0);stroke-width:1" /><circle cx="56.180745" cy="501.199543" r="3.749996" style="fill:rgb(0,127,0);stroke-width:1" /><circle cx="53.798094" cy="489.286188" r="3.749996" style="fill:rgb(0,127,0);stroke-width:1" /><circle cx="52.970432" cy="485.147875" r="3.749996" style="fill:rgb(0,127,0);stroke-width:1" /><circle cx="52.167848" cy="481.134955" r="3.749996" style="fill:rgb(0,127,0);stroke-width:1" /><circle cx="51.389225" cy="477.241829" r="3.749996" style="fill:rgb(0,127,0);stroke-width:1" /><circle cx="50.633490" cy="473.463222" r="3.749996" style="fill:rgb(0,127,0);stroke-width:1" /><circle cx="50.448015" cy="472.535871" r="3.749996" style="fill:rgb(0,127,0);stroke-width:1" /><circle cx="49.659781" cy="468.594588" r="3.749996" style="fill:rgb(0,127,0);stroke-width:1" /><circle cx="48.154928" cy="461.070377" r="3.749996" style="fill:rgb(0,127,0);stroke-width:1" /><circle cx="47.436208" cy="457.476737" r="3.749996" style="fill:rgb(0,127,0);stroke-width:1" /><circle cx="44.821143" cy="444.401365" r="3.749996" style="fill:rgb(0,127,0);stroke-width:1" /><circle cx="42.040028" cy="430.495860" r="3.749996" style="fill:rgb(0,127,0);stroke-width:1" /><circle cx="41.383155" cy="427.211445" r="3.749996" style="fill:rgb(0,127,0);stroke-width:1" /><circle cx="40.746488" cy="424.028138" r="3.749996" style="fill:rgb(0,127,0);stroke-width:1" /><circle cx="40.129110" cy="420.941292" r="3.749996" style="fill:rgb(0,127,0);stroke-width:1" /><circle cx="39.530173" cy="417.946578" r="3.749996" style="fill:rgb(0,127,0);stroke-width:1" /><circle cx="36.671832" cy="403.654894" r="3.749996" style="fill:rgb(0,127,0);stroke-width:1" /><circle cx="33.632018" cy="388.455828" r="3.749996" style="fill:rgb(0,127,0);stroke-width:1" /><circle cx="33.106528" cy="385.828296" r="3.749996" style="fill:rgb(0,127,0);stroke-width:1" /><circle cx="32.597177" cy="383.281668" r="3.749996" style="fill:rgb(0,127,0);stroke-width:1" /><circle cx="32.103293" cy="380.812168" r="3.749996" style="fill:rgb(0,127,0);stroke-width:1" /><circle cx="31.624138" cy="378.416379" r="3.749996" style="fill:rgb(0,127,0);stroke-width:1" /><circle cx="31.159088" cy="376.091083" r="3.749996" style="fill:rgb(0,127,0);stroke-width:1" /><circle cx="30.707493" cy="373.833179" r="3.749996" style="fill:rgb(0,127,0);stroke-width:1" /><circle cx="30.268818" cy="371.639808" r="3.749996" style="fill:rgb(0,127,0);stroke-width:1" /><circle cx="28.968193" cy="365.136743" r="3.749996" style="fill:rgb(0,127,0);stroke-width:1" /><circle cx="28.522544" cy="362.908403" r="3.749996" style="fill:rgb(0,127,0);stroke-width:1" /><circle cx="28.090373" cy="360.747655" r="3.749996" style="fill:rgb(0,127,0);stroke-width:1" /><circle cx="27.671121" cy="358.651320" r="3.749996" style="fill:rgb(0,127,0);stroke-width:1" /><circle cx="27.264185" cy="356.616695" r="3.749996" style="fill:rgb(0,127,0);stroke-width:1" /><circle cx="25.224008" cy="346.415799" r="3.749996" style="fill:rgb(0,127,0);stroke-width:1" /><circle cx="21.709196" cy="328.841686" r="3.749996" style="fill:rgb(0,127,0);stroke-width:1" /><circle cx="18.375054" cy="299.811400" r="3.749996" style="fill:rgb(0,127,0);stroke-width:1" /><circle cx="18.068790" cy="298.280122" r="3.749996" style="fill:rgb(0,127,0);stroke-width:1" /><circle cx="17.510533" cy="294.726374" r="3.749996" style="fill:rgb(0,127,0);stroke-width:1" /><circle cx="17.262295" cy="292.548895" r="3.749996" style="fill:rgb(0,127,0);stroke-width:1" /><circle cx="17.051026" cy="289.622309" r="3.749996" style="fill:rgb(0,127,0);stroke-width:1" /><circle cx="16.855337" cy="286.478201" r="3.749996" style="fill:rgb(0,127,0);stroke-width:1" /><circle cx="16.667023" cy="283.323565" r="3.749996" style="fill:rgb(0,127,0);stroke-width:1" /><circle cx="16.483605" cy="280.217327" r="3.749996" style="fill:rgb(0,127,0);stroke-width:1" /><circle cx="16.304366" cy="277.173322" r="3.749996" style="fill:rgb(0,127,0);stroke-width:1" /><circle cx="16.129039" cy="274.193410" r="3.749996" style="fill:rgb(0,127,0);stroke-width:1" /><circle cx="15.957445" cy="271.276597" r="3.749996" style="fill:rgb(0,127,0);stroke-width:1" /><circle cx="13.554208" cy="230.421703" r="3.749996" style="fill:rgb(0,127,0);stroke-width:1" /><circle cx="9.999990" cy="169.999994" r="3.749996" style="fill:rgb(0,127,0);stroke-width:1" /><circle cx="5.597010" cy="95.149286" r="3.749996" style="fill:rgb(0,127,0);stroke-width:1" /><circle cx="750.000000" cy="750.000000" r="3.749996" style="fill:rgb(0,127,0);stroke-width:1" /><path stroke-linejoin="round" stroke-linecap="round" stroke="rgb(255,255,255)" stroke-width="3.749996" fill="none" d="M 0.000000 750.000000 L 750.000000 750.000000 M 0.000000 750.000000 L 0.000000 0.000000 " />

</svg>