<svg xmlns="http://www.w3.org/2000/svg" version="1.1" width = "750" height = "750" viewBox = "0 0 750 750"  shape-rendering="crispEdges">
<path stroke-linejoin="round" stroke-linecap="round" stroke="rgb(255,255,0)" stroke-width="3.749996" fill="none" d="M 124.999992 750.000000 L 0.000000 0.000000 " />
<path stroke-linejoin="round" stroke-linecap="round" stroke="rgb(63,63,63)" stroke-width="3.749996" fill="none" d="M 0.000000 0.000000 L 750.000000 750.000000 M 124.999992 750.000000 L 56.818172 0.000000 " />
<path stroke-linejoin="round" stroke-linecap="round" stroke="rgb(191,191,191)" stroke-width="3.749996" fill="none" d="M 0.000000 625.000000 L 124.999992 750.000000 M 0.000000 0.000000 L 68.181824 750.000000 " />
<path stroke-linejoin="round" stroke-linecap="round" stroke="rgb(0,0,255)" stroke-width="1.874998" fill="none" d="M 0.000000 750.000000 L 750.000000 491.379303 " />
<path stroke-linejoin="round" stroke-linecap="round" stroke="rgb(255,0,0)" stroke-width="3.749996" fill="none" d="M 121.200600 708.206726 L 124.999992 750.000000 " />
<path stroke-linejoin="round" stroke-linecap="round" stroke="rgb(0,0,255)" stroke-width="1.874998" fill="none" d="M 0.000000 750.000000 L 750.000000 214.285706 " />
<path stroke-linejoin="round" stroke-linecap="round" stroke="rgb(255,0,0)" stroke-width="3.749996" fill="none" d="M 116.340927 666.899353 L 121.200600 708.206726 " />
<path stroke-linejoin="round" stroke-linecap="round" stroke="rgb(0,0,255)" stroke-width="1.874998" fill="none" d="M 0.000000 750.000000 L 725.000000 0.000000 " />
<path stroke-linejoin="round" stroke-linecap="round" stroke="rgb(255,0,0)" stroke-width="3.749996" fill="none" d="M 112.433846 633.689148 L 116.340927 666.899353 " />
<path stroke-linejoin="round" stroke-linecap="round" stroke="rgb(0,0,255)" stroke-width="1.874998" fill="none" d="M 0.000000 750.000000 L 525.000000 0.000000 " />
<path stroke-linejoin="round" stroke-linecap="round" stroke="rgb(255,0,0)" stroke-width="3.749996" fill="none" d="M 107.971069 595.755615 L 112.433846 633.689148 " />
<path stroke-linejoin="round" stroke-linecap="round" stroke="rgb(0,0,255)" stroke-width="1.874998" fill="none" d="M 0.000000 750.000000 L 435.000000 0.000000 " />
<path stroke-linejoin="round" stroke-linecap="round" stroke="rgb(255,0,0)" stroke-width="3.749996" fill="none" d="M 104.849762 569.224548 L 107.971069 595.755615 " />
<path stroke-linejoin="round" stroke-linecap="round" stroke="rgb(0,0,255)" stroke-width="1.874998" fill="none" d="M 0.000000 750.000000 L 405.000031 0.000000 " />
<path stroke-linejoin="round" stroke-linecap="round" stroke="rgb(255,0,0)" stroke-width="3.749996" fill="none" d="M 103.556198 558.229248 L 104.849762 569.224548 " />
<path stroke-linejoin="round" stroke-linecap="round" stroke="rgb(0,0,255)" stroke-width="1.874998" fill="none" d="M 0.000000 750.000000 L 350.000000 0.000000 " />
<path stroke-linejoin="round" stroke-linecap="round" stroke="rgb(255,0,0)" stroke-width="3.749996" fill="none" d="M 100.724701 534.161377 L 103.556198 558.229248 " />
<path stroke-linejoin="round" stroke-linecap="round" stroke="rgb(0,0,255)" stroke-width="1.874998" fill="none" d="M 0.000000 750.000000 L 325.000000 0.000000 " />
<path stroke-linejoin="round" stroke-linecap="round" stroke="rgb(255,0,0)" stroke-width="3.749996" fill="none" d="M 99.188469 521.103516 L 100.724701 534.161316 " />
<path stroke-linejoin="round" stroke-linecap="round" stroke="rgb(0,0,255)" stroke-width="1.874998" fill="none" d="M 0.000000 750.000000 L 289.285706 0.000000 " />
<path stroke-linejoin="round" stroke-linecap="round" stroke="rgb(255,0,0)" stroke-width="3.749996" fill="none" d="M 96.640930 499.449432 L 99.188469 521.103516 " />
<path stroke-linejoin="round" stroke-linecap="round" stroke="rgb(0,0,255)" stroke-width="1.874998" fill="none" d="M 0.000000 750.000000 L 267.857147 0.000000 " />
<path stroke-linejoin="round" stroke-linecap="round" stroke="rgb(255,0,0)" stroke-width="3.749996" fill="none" d="M 94.867119 484.372040 L 96.640930 499.449432 " />
<path stroke-linejoin="round" stroke-linecap="round" stroke="rgb(0,0,255)" stroke-width="1.874998" fill="none" d="M 0.000000 750.000000 L 225.000015 0.000000 " />
<path stroke-linejoin="round" stroke-linecap="round" stroke="rgb(255,0,0)" stroke-width="3.749996" fill="none" d="M 90.591431 448.028595 L 94.867119 484.372040 " />
<path stroke-linejoin="round" stroke-linecap="round" stroke="rgb(0,0,255)" stroke-width="1.874998" fill="none" d="M 0.000000 750.000000 L 208.333344 0.000000 " />
<path stroke-linejoin="round" stroke-linecap="round" stroke="rgb(255,0,0)" stroke-width="3.749996" fill="none" d="M 88.594910 431.058289 L 90.591431 448.028595 " />
<path stroke-linejoin="round" stroke-linecap="round" stroke="rgb(0,0,255)" stroke-width="1.874998" fill="none" d="M 0.000000 750.000000 L 191.666656 0.000000 " />
<path stroke-linejoin="round" stroke-linecap="round" stroke="rgb(255,0,0)" stroke-width="3.749996" fill="none" d="M 86.360649 412.067047 L 88.594910 431.058289 " />
<path stroke-linejoin="round" stroke-linecap="round" stroke="rgb(0,0,255)" stroke-width="1.874998" fill="none" d="M 0.000000 750.000000 L 180.000000 0.000000 " />
<path stroke-linejoin="round" stroke-linecap="round" stroke="rgb(255,0,0)" stroke-width="3.749996" fill="none" d="M 84.631447 397.368958 L 86.360626 412.067108 " />
<path stroke-linejoin="round" stroke-linecap="round" stroke="rgb(0,0,255)" stroke-width="1.874998" fill="none" d="M 0.000000 750.000000 L 170.792068 0.000000 " />
<path stroke-linejoin="round" stroke-linecap="round" stroke="rgb(255,0,0)" stroke-width="3.749996" fill="none" d="M 83.156708 384.833557 L 84.631447 397.368958 " />
<path stroke-linejoin="round" stroke-linecap="round" stroke="rgb(0,0,255)" stroke-width="1.874998" fill="none" d="M 0.000000 750.000000 L 167.553177 0.000000 " />
<path stroke-linejoin="round" stroke-linecap="round" stroke="rgb(255,0,0)" stroke-width="3.749996" fill="none" d="M 82.271713 381.736145 L 83.156708 384.833557 " />
<path stroke-linejoin="round" stroke-linecap="round" stroke="rgb(0,0,255)" stroke-width="1.874998" fill="none" d="M 0.000000 750.000000 L 164.062500 0.000000 " />
<path stroke-linejoin="round" stroke-linecap="round" stroke="rgb(255,0,0)" stroke-width="3.749996" fill="none" d="M 81.300949 378.338470 L 82.271713 381.736176 " />
<path stroke-linejoin="round" stroke-linecap="round" stroke="rgb(0,0,255)" stroke-width="1.874998" fill="none" d="M 0.000000 750.000000 L 154.639191 0.000000 " />
<path stroke-linejoin="round" stroke-linecap="round" stroke="rgb(255,0,0)" stroke-width="3.749996" fill="none" d="M 78.588615 368.845306 L 81.300972 378.338409 " />
<path stroke-linejoin="round" stroke-linecap="round" stroke="rgb(0,0,255)" stroke-width="1.874998" fill="none" d="M 0.000000 750.000000 L 145.408188 0.000000 " />
<path stroke-linejoin="round" stroke-linecap="round" stroke="rgb(255,0,0)" stroke-width="3.749996" fill="none" d="M 75.793816 359.063477 L 78.588593 368.845306 " />
<path stroke-linejoin="round" stroke-linecap="round" stroke="rgb(0,0,255)" stroke-width="1.874998" fill="none" d="M 0.000000 750.000000 L 136.363647 0.000000 " />
<path stroke-linejoin="round" stroke-linecap="round" stroke="rgb(255,0,0)" stroke-width="3.749996" fill="none" d="M 72.912766 348.979828 L 75.793816 359.063446 " />
<path stroke-linejoin="round" stroke-linecap="round" stroke="rgb(0,0,255)" stroke-width="1.874998" fill="none" d="M 0.000000 750.000000 L 127.500015 0.000000 " />
<path stroke-linejoin="round" stroke-linecap="round" stroke="rgb(255,0,0)" stroke-width="3.749996" fill="none" d="M 69.941391 338.580048 L 72.912766 348.979828 " />
<path stroke-linejoin="round" stroke-linecap="round" stroke="rgb(0,0,255)" stroke-width="1.874998" fill="none" d="M 0.000000 750.000000 L 118.811890 0.000000 " />
<path stroke-linejoin="round" stroke-linecap="round" stroke="rgb(255,0,0)" stroke-width="3.749996" fill="none" d="M 66.875404 327.849060 L 69.941391 338.580048 " />
<path stroke-linejoin="round" stroke-linecap="round" stroke="rgb(0,0,255)" stroke-width="1.874998" fill="none" d="M 0.000000 750.000000 L 110.294113 0.000000 " />
<path stroke-linejoin="round" stroke-linecap="round" stroke="rgb(255,0,0)" stroke-width="3.749996" fill="none" d="M 63.710175 316.770782 L 66.875404 327.849060 " />
<path stroke-linejoin="round" stroke-linecap="round" stroke="rgb(0,0,255)" stroke-width="1.874998" fill="none" d="M 0.000000 750.000000 L 108.173088 0.000000 " />
<path stroke-linejoin="round" stroke-linecap="round" stroke="rgb(255,0,0)" stroke-width="3.749996" fill="none" d="M 62.895992 313.921112 L 63.710175 316.770782 " />
<path stroke-linejoin="round" stroke-linecap="round" stroke="rgb(0,0,255)" stroke-width="1.874998" fill="none" d="M 0.000000 750.000000 L 101.941734 0.000000 " />
<path stroke-linejoin="round" stroke-linecap="round" stroke="rgb(255,0,0)" stroke-width="3.749996" fill="none" d="M 60.440830 305.328094 L 62.895992 313.921112 " />
<path stroke-linejoin="round" stroke-linecap="round" stroke="rgb(0,0,255)" stroke-width="1.874998" fill="none" d="M 0.000000 750.000000 L 99.999992 0.000000 " />
<path stroke-linejoin="round" stroke-linecap="round" stroke="rgb(255,0,0)" stroke-width="3.749996" fill="none" d="M 59.655884 302.580841 L 60.440830 305.328094 " />
<path stroke-linejoin="round" stroke-linecap="round" stroke="rgb(0,0,255)" stroke-width="1.874998" fill="none" d="M 0.000000 750.000000 L 91.981125 0.000000 " />
<path stroke-linejoin="round" stroke-linecap="round" stroke="rgb(255,0,0)" stroke-width="3.749996" fill="none" d="M 56.308865 290.866241 L 59.655884 302.580841 " />
<path stroke-linejoin="round" stroke-linecap="round" stroke="rgb(0,0,255)" stroke-width="1.874998" fill="none" d="M 0.000000 750.000000 L 84.112152 0.000000 " />
<path stroke-linejoin="round" stroke-linecap="round" stroke="rgb(255,0,0)" stroke-width="3.749996" fill="none" d="M 52.849510 278.758545 L 56.308865 290.866241 " />
<path stroke-linejoin="round" stroke-linecap="round" stroke="rgb(0,0,255)" stroke-width="1.874998" fill="none" d="M 0.000000 750.000000 L 82.568810 0.000000 " />
<path stroke-linejoin="round" stroke-linecap="round" stroke="rgb(255,0,0)" stroke-width="3.749996" fill="none" d="M 52.149521 276.308533 L 52.849510 278.758545 " />
<path stroke-linejoin="round" stroke-linecap="round" stroke="rgb(0,0,255)" stroke-width="1.874998" fill="none" d="M 0.000000 750.000000 L 81.081078 0.000000 " />
<path stroke-linejoin="round" stroke-linecap="round" stroke="rgb(255,0,0)" stroke-width="3.749996" fill="none" d="M 51.467834 273.922607 L 52.149521 276.308533 " />
<path stroke-linejoin="round" stroke-linecap="round" stroke="rgb(0,0,255)" stroke-width="1.874998" fill="none" d="M 0.000000 750.000000 L 73.660721 0.000000 " />
<path stroke-linejoin="round" stroke-linecap="round" stroke="rgb(255,0,0)" stroke-width="3.749996" fill="none" d="M 47.962547 261.654083 L 51.467834 273.922607 " />
<path stroke-linejoin="round" stroke-linecap="round" stroke="rgb(0,0,255)" stroke-width="1.874998" fill="none" d="M 0.000000 750.000000 L 72.368416 0.000000 " />
<path stroke-linejoin="round" stroke-linecap="round" stroke="rgb(255,0,0)" stroke-width="3.749996" fill="none" d="M 47.333523 259.452545 L 47.962547 261.654083 " />
<path stroke-linejoin="round" stroke-linecap="round" stroke="rgb(0,0,255)" stroke-width="1.874998" fill="none" d="M 0.000000 750.000000 L 65.217400 0.000000 " />
<path stroke-linejoin="round" stroke-linecap="round" stroke="rgb(255,0,0)" stroke-width="3.749996" fill="none" d="M 43.747658 246.901993 L 47.333523 259.452545 " />
<path stroke-linejoin="round" stroke-linecap="round" stroke="rgb(0,0,255)" stroke-width="1.874998" fill="none" d="M 0.000000 750.000000 L 64.102562 0.000000 " />
<path stroke-linejoin="round" stroke-linecap="round" stroke="rgb(255,0,0)" stroke-width="3.749996" fill="none" d="M 43.172031 244.887299 L 43.747658 246.901993 " />
<path stroke-linejoin="round" stroke-linecap="round" stroke="rgb(0,0,255)" stroke-width="1.874998" fill="none" d="M 0.000000 750.000000 L 57.203381 0.000000 " />
<path stroke-linejoin="round" stroke-linecap="round" stroke="rgb(255,0,0)" stroke-width="3.749996" fill="none" d="M 39.504581 232.051178 L 43.172031 244.887299 " />
<path stroke-linejoin="round" stroke-linecap="round" stroke="rgb(0,0,255)" stroke-width="1.874998" fill="none" d="M 0.000000 750.000000 L 50.420166 0.000000 " />
<path stroke-linejoin="round" stroke-linecap="round" stroke="rgb(255,0,0)" stroke-width="3.749996" fill="none" d="M 35.712360 218.778442 L 39.504581 232.051178 " />
<path stroke-linejoin="round" stroke-linecap="round" stroke="rgb(0,0,255)" stroke-width="1.874998" fill="none" d="M 0.000000 750.000000 L 49.586781 0.000000 " />
<path stroke-linejoin="round" stroke-linecap="round" stroke="rgb(255,0,0)" stroke-width="3.749996" fill="none" d="M 35.233006 217.100677 L 35.712360 218.778442 " />
<path stroke-linejoin="round" stroke-linecap="round" stroke="rgb(0,0,255)" stroke-width="1.874998" fill="none" d="M 0.000000 750.000000 L 48.780487 0.000000 " />
<path stroke-linejoin="round" stroke-linecap="round" stroke="rgb(255,0,0)" stroke-width="3.749996" fill="none" d="M 34.766346 215.467392 L 35.233006 217.100677 " />
<path stroke-linejoin="round" stroke-linecap="round" stroke="rgb(0,0,255)" stroke-width="1.874998" fill="none" d="M 0.000000 750.000000 L 44.491524 0.000000 " />
<path stroke-linejoin="round" stroke-linecap="round" stroke="rgb(255,0,0)" stroke-width="3.749996" fill="none" d="M 32.235100 206.608109 L 34.766346 215.467438 " />
<path stroke-linejoin="round" stroke-linecap="round" stroke="rgb(0,0,255)" stroke-width="1.874998" fill="none" d="M 0.000000 750.000000 L 37.815125 0.000000 " />
<path stroke-linejoin="round" stroke-linecap="round" stroke="rgb(255,0,0)" stroke-width="3.749996" fill="none" d="M 28.123497 192.217422 L 32.235100 206.608109 " />
<path stroke-linejoin="round" stroke-linecap="round" stroke="rgb(0,0,255)" stroke-width="1.874998" fill="none" d="M 0.000000 750.000000 L 37.190079 0.000000 " />
<path stroke-linejoin="round" stroke-linecap="round" stroke="rgb(255,0,0)" stroke-width="3.749996" fill="none" d="M 27.727381 190.831085 L 28.123497 192.217422 " />
<path stroke-linejoin="round" stroke-linecap="round" stroke="rgb(0,0,255)" stroke-width="1.874998" fill="none" d="M 0.000000 750.000000 L 36.585377 0.000000 " />
<path stroke-linejoin="round" stroke-linecap="round" stroke="rgb(255,0,0)" stroke-width="3.749996" fill="none" d="M 27.342281 189.483231 L 27.727381 190.831085 " />
<path stroke-linejoin="round" stroke-linecap="round" stroke="rgb(0,0,255)" stroke-width="1.874998" fill="none" d="M 0.000000 750.000000 L 30.241928 0.000000 " />
<path stroke-linejoin="round" stroke-linecap="round" stroke="rgb(255,0,0)" stroke-width="3.749996" fill="none" d="M 23.187809 174.942551 L 27.342281 189.483231 " />
<path stroke-linejoin="round" stroke-linecap="round" stroke="rgb(0,0,255)" stroke-width="1.874998" fill="none" d="M 0.000000 750.000000 L 24.000004 0.000000 " />
<path stroke-linejoin="round" stroke-linecap="round" stroke="rgb(255,0,0)" stroke-width="3.749996" fill="none" d="M 18.883869 159.878784 L 23.187809 174.942551 " />
<path stroke-linejoin="round" stroke-linecap="round" stroke="rgb(0,0,255)" stroke-width="1.874998" fill="none" d="M 0.000000 750.000000 L 23.622036 0.000000 " />
<path stroke-linejoin="round" stroke-linecap="round" stroke="rgb(255,0,0)" stroke-width="3.749996" fill="none" d="M 18.616028 158.941330 L 18.883869 159.878784 " />
<path stroke-linejoin="round" stroke-linecap="round" stroke="rgb(0,0,255)" stroke-width="1.874998" fill="none" d="M 0.000000 750.000000 L 23.255825 0.000000 " />
<path stroke-linejoin="round" stroke-linecap="round" stroke="rgb(255,0,0)" stroke-width="3.749996" fill="none" d="M 18.355652 158.030106 L 18.616028 158.941330 " />
<path stroke-linejoin="round" stroke-linecap="round" stroke="rgb(0,0,255)" stroke-width="1.874998" fill="none" d="M 0.000000 750.000000 L 22.900768 0.000000 " />
<path stroke-linejoin="round" stroke-linecap="round" stroke="rgb(255,0,0)" stroke-width="3.749996" fill="none" d="M 18.102474 157.143936 L 18.355652 158.030106 " />
<path stroke-linejoin="round" stroke-linecap="round" stroke="rgb(0,0,255)" stroke-width="1.874998" fill="none" d="M 0.000000 750.000000 L 22.556395 0.000000 " />
<path stroke-linejoin="round" stroke-linecap="round" stroke="rgb(255,0,0)" stroke-width="3.749996" fill="none" d="M 17.856180 156.281952 L 18.102474 157.143936 " />
<path stroke-linejoin="round" stroke-linecap="round" stroke="rgb(0,0,255)" stroke-width="1.874998" fill="none" d="M 0.000000 750.000000 L 22.222214 0.000000 " />
<path stroke-linejoin="round" stroke-linecap="round" stroke="rgb(255,0,0)" stroke-width="3.749996" fill="none" d="M 17.616503 155.443024 L 17.856180 156.281952 " />
<path stroke-linejoin="round" stroke-linecap="round" stroke="rgb(0,0,255)" stroke-width="1.874998" fill="none" d="M 0.000000 750.000000 L 21.897800 0.000000 " />
<path stroke-linejoin="round" stroke-linecap="round" stroke="rgb(255,0,0)" stroke-width="3.749996" fill="none" d="M 17.383173 154.626312 L 17.616503 155.443024 " />
<path stroke-linejoin="round" stroke-linecap="round" stroke="rgb(0,0,255)" stroke-width="1.874998" fill="none" d="M 0.000000 750.000000 L 21.582729 0.000000 " />
<path stroke-linejoin="round" stroke-linecap="round" stroke="rgb(255,0,0)" stroke-width="3.749996" fill="none" d="M 17.155945 153.831009 L 17.383173 154.626312 " />
<path stroke-linejoin="round" stroke-linecap="round" stroke="rgb(0,0,255)" stroke-width="1.874998" fill="none" d="M 0.000000 750.000000 L 21.276600 0.000000 " />
<path stroke-linejoin="round" stroke-linecap="round" stroke="rgb(255,0,0)" stroke-width="3.749996" fill="none" d="M 16.934574 153.056213 L 17.155945 153.831009 " />
<path stroke-linejoin="round" stroke-linecap="round" stroke="rgb(0,0,255)" stroke-width="1.874998" fill="none" d="M 0.000000 750.000000 L 20.979033 0.000000 " />
<path stroke-linejoin="round" stroke-linecap="round" stroke="rgb(255,0,0)" stroke-width="3.749996" fill="none" d="M 16.718857 152.301132 L 16.934574 153.056213 " />
<path stroke-linejoin="round" stroke-linecap="round" stroke="rgb(0,0,255)" stroke-width="1.874998" fill="none" d="M 0.000000 750.000000 L 20.689667 0.000000 " />
<path stroke-linejoin="round" stroke-linecap="round" stroke="rgb(255,0,0)" stroke-width="3.749996" fill="none" d="M 16.508549 151.565079 L 16.718857 152.301132 " />
<path stroke-linejoin="round" stroke-linecap="round" stroke="rgb(0,0,255)" stroke-width="1.874998" fill="none" d="M 0.000000 750.000000 L 17.045460 0.000000 " />
<path stroke-linejoin="round" stroke-linecap="round" stroke="rgb(255,0,0)" stroke-width="3.749996" fill="none" d="M 13.815053 142.137878 L 16.508549 151.565079 " />
<path stroke-linejoin="round" stroke-linecap="round" stroke="rgb(0,0,255)" stroke-width="1.874998" fill="none" d="M 0.000000 750.000000 L 11.278197 0.000000 " />
<path stroke-linejoin="round" stroke-linecap="round" stroke="rgb(255,0,0)" stroke-width="3.749996" fill="none" d="M 9.709865 104.293877 L 13.815053 142.137878 " />
<path stroke-linejoin="round" stroke-linecap="round" stroke="rgb(0,0,255)" stroke-width="1.874998" fill="none" d="M 0.000000 750.000000 L 5.597010 0.000000 " />
<path stroke-linejoin="round" stroke-linecap="round" stroke="rgb(255,0,0)" stroke-width="3.749996" fill="none" d="M 5.176753 56.313938 L 9.709865 104.293945 " />
<path stroke-linejoin="round" stroke-linecap="round" stroke="rgb(0,0,255)" stroke-width="1.874998" fill="none" d="M 0.000000 750.000000 L 0.000000 0.000000 " />
<path stroke-linejoin="round" stroke-linecap="round" stroke="rgb(255,0,0)" stroke-width="3.749996" fill="none" d="M 0.000000 0.000000 L 5.176753 56.313938 " />
<circle cx="121.200599" cy="708.206691" r="3.749996" style="fill:rgb(0,127,0);stroke-width:1" /><circle cx="116.340928" cy="666.899331" r="3.749996" style="fill:rgb(0,127,0);stroke-width:1" /><circle cx="112.433843" cy="633.689135" r="3.749996" style="fill:rgb(0,127,0);stroke-width:1" /><circle cx="107.971072" cy="595.755614" r="3.749996" style="fill:rgb(0,127,0);stroke-width:1" /><circle cx="104.849763" cy="569.224544" r="3.749996" style="fill:rgb(0,127,0);stroke-width:1" /><circle cx="103.556201" cy="558.229253" r="3.749996" style="fill:rgb(0,127,0);stroke-width:1" /><circle cx="100.724705" cy="534.161378" r="3.749996" style="fill:rgb(0,127,0);stroke-width:1" /><circle cx="99.188469" cy="521.103535" r="3.749996" style="fill:rgb(0,127,0);stroke-width:1" /><circle cx="96.640930" cy="499.449436" r="3.749996" style="fill:rgb(0,127,0);stroke-width:1" /><circle cx="94.867118" cy="484.372046" r="3.749996" style="fill:rgb(0,127,0);stroke-width:1" /><circle cx="90.591431" cy="448.028594" r="3.749996" style="fill:rgb(0,127,0);stroke-width:1" /><circle cx="88.594906" cy="431.058319" r="3.749996" style="fill:rgb(0,127,0);stroke-width:1" /><circle cx="86.360648" cy="412.067056" r="3.749996" style="fill:rgb(0,127,0);stroke-width:1" /><circle cx="84.631450" cy="397.368968" r="3.749996" style="fill:rgb(0,127,0);stroke-width:1" /><circle cx="83.156705" cy="384.833574" r="3.749996" style="fill:rgb(0,127,0);stroke-width:1" /><circle cx="82.271710" cy="381.736159" r="3.749996" style="fill:rgb(0,127,0);stroke-width:1" /><circle cx="81.300952" cy="378.338456" r="3.749996" style="fill:rgb(0,127,0);stroke-width:1" /><circle cx="78.588612" cy="368.845284" r="3.749996" style="fill:rgb(0,127,0);stroke-width:1" /><circle cx="75.793818" cy="359.063476" r="3.749996" style="fill:rgb(0,127,0);stroke-width:1" /><circle cx="72.912768" cy="348.979832" r="3.749996" style="fill:rgb(0,127,0);stroke-width:1" /><circle cx="69.941394" cy="338.580041" r="3.749996" style="fill:rgb(0,127,0);stroke-width:1" /><circle cx="66.875406" cy="327.849062" r="3.749996" style="fill:rgb(0,127,0);stroke-width:1" /><circle cx="63.710175" cy="316.770790" r="3.749996" style="fill:rgb(0,127,0);stroke-width:1" /><circle cx="62.895991" cy="313.921122" r="3.749996" style="fill:rgb(0,127,0);stroke-width:1" /><circle cx="60.440831" cy="305.328101" r="3.749996" style="fill:rgb(0,127,0);stroke-width:1" /><circle cx="59.655882" cy="302.580832" r="3.749996" style="fill:rgb(0,127,0);stroke-width:1" /><circle cx="56.308866" cy="290.866256" r="3.749996" style="fill:rgb(0,127,0);stroke-width:1" /><circle cx="52.849509" cy="278.758530" r="3.749996" style="fill:rgb(0,127,0);stroke-width:1" /><circle cx="52.149519" cy="276.308533" r="3.749996" style="fill:rgb(0,127,0);stroke-width:1" /><circle cx="51.467836" cy="273.922618" r="3.749996" style="fill:rgb(0,127,0);stroke-width:1" /><circle cx="47.962546" cy="261.654105" r="3.749996" style="fill:rgb(0,127,0);stroke-width:1" /><circle cx="47.333524" cy="259.452548" r="3.749996" style="fill:rgb(0,127,0);stroke-width:1" /><circle cx="43.747656" cy="246.901989" r="3.749996" style="fill:rgb(0,127,0);stroke-width:1" /><circle cx="43.172032" cy="244.887292" r="3.749996" style="fill:rgb(0,127,0);stroke-width:1" /><circle cx="39.504580" cy="232.051190" r="3.749996" style="fill:rgb(0,127,0);stroke-width:1" /><circle cx="35.712361" cy="218.778435" r="3.749996" style="fill:rgb(0,127,0);stroke-width:1" /><circle cx="35.233006" cy="217.100680" r="3.749996" style="fill:rgb(0,127,0);stroke-width:1" /><circle cx="34.766346" cy="215.467393" r="3.749996" style="fill:rgb(0,127,0);stroke-width:1" /><circle cx="32.235101" cy="206.608113" r="3.749996" style="fill:rgb(0,127,0);stroke-width:1" /><circle cx="28.123498" cy="192.217413" r="3.749996" style="fill:rgb(0,127,0);stroke-width:1" /><circle cx="27.727380" cy="190.831058" r="3.749996" style="fill:rgb(0,127,0);stroke-width:1" /><circle cx="27.342282" cy="189.483225" r="3.749996" style="fill:rgb(0,127,0);stroke-width:1" /><circle cx="23.187809" cy="174.942546" r="3.749996" style="fill:rgb(0,127,0);stroke-width:1" /><circle cx="18.883869" cy="159.878790" r="3.749996" style="fill:rgb(0,127,0);stroke-width:1" /><circle cx="18.616028" cy="158.941336" r="3.749996" style="fill:rgb(0,127,0);stroke-width:1" /><circle cx="18.355653" cy="158.030100" r="3.749996" style="fill:rgb(0,127,0);stroke-width:1" /><circle cx="18.102475" cy="157.143943" r="3.749996" style="fill:rgb(0,127,0);stroke-width:1" /><circle cx="17.856181" cy="156.281948" r="3.749996" style="fill:rgb(0,127,0);stroke-width:1" /><circle cx="17.616503" cy="155.443020" r="3.749996" style="fill:rgb(0,127,0);stroke-width:1" /><circle cx="17.383173" cy="154.626310" r="3.749996" style="fill:rgb(0,127,0);stroke-width:1" /><circle cx="17.155945" cy="153.831013" r="3.749996" style="fill:rgb(0,127,0);stroke-width:1" /><circle cx="16.934574" cy="153.056212" r="3.749996" style="fill:rgb(0,127,0);stroke-width:1" /><circle cx="16.718857" cy="152.301125" r="3.749996" style="fill:rgb(0,127,0);stroke-width:1" /><circle cx="16.508549" cy="151.565082" r="3.749996" style="fill:rgb(0,127,0);stroke-width:1" /><circle cx="13.815053" cy="142.137878" r="3.749996" style="fill:rgb(0,127,0);stroke-width:1" /><circle cx="9.709865" cy="104.293875" r="3.749996" style="fill:rgb(0,127,0);stroke-width:1" /><circle cx="5.176753" cy="56.313939" r="3.749996" style="fill:rgb(0,127,0);stroke-width:1" /><circle cx="750.000000" cy="750.000000" r="3.749996" style="fill:rgb(0,127,0);stroke-width:1" /><path stroke-linejoin="round" stroke-linecap="round" stroke="rgb(255,255,255)" stroke-width="3.749996" fill="none" d="M 0.000000 750.000000 L 750.000000 750.000000 M 0.000000 750.000000 L 0.000000 0.000000 " />

</svg>