<svg xmlns="http://www.w3.org/2000/svg" version="1.1" width = "750" height = "750" viewBox = "0 0 750 750"  shape-rendering="crispEdges">
<path stroke-linejoin="round" stroke-linecap="round" stroke="rgb(255,255,0)" stroke-width="3.749996" fill="none" d="M 107.142853 750.000000 L 0.000000 0.000000 " />
<path stroke-linejoin="round" stroke-linecap="round" stroke="rgb(63,63,63)" stroke-width="3.749996" fill="none" d="M 0.000000 0.000000 L 750.000000 750.000000 M 107.142853 750.000000 L 49.450546 0.000000 " />
<path stroke-linejoin="round" stroke-linecap="round" stroke="rgb(191,191,191)" stroke-width="3.749996" fill="none" d="M 0.000000 642.857178 L 107.142853 750.000000 M 0.000000 0.000000 L 57.692303 750.000000 " />
<path stroke-linejoin="round" stroke-linecap="round" stroke="rgb(0,0,255)" stroke-width="1.874998" fill="none" d="M 0.000000 750.000000 L 750.000000 731.250000 " />
<path stroke-linejoin="round" stroke-linecap="round" stroke="rgb(255,0,0)" stroke-width="3.749996" fill="none" d="M 106.937218 747.326538 L 107.142853 750.000000 " />
<path stroke-linejoin="round" stroke-linecap="round" stroke="rgb(0,0,255)" stroke-width="1.874998" fill="none" d="M 0.000000 750.000000 L 750.000000 711.538452 " />
<path stroke-linejoin="round" stroke-linecap="round" stroke="rgb(255,0,0)" stroke-width="3.749996" fill="none" d="M 104.263786 744.653137 L 106.937218 747.326538 " />
<path stroke-linejoin="round" stroke-linecap="round" stroke="rgb(0,0,255)" stroke-width="1.874998" fill="none" d="M 0.000000 750.000000 L 750.000000 690.789490 " />
<path stroke-linejoin="round" stroke-linecap="round" stroke="rgb(255,0,0)" stroke-width="3.749996" fill="none" d="M 101.590363 741.979675 L 104.263786 744.653137 " />
<path stroke-linejoin="round" stroke-linecap="round" stroke="rgb(0,0,255)" stroke-width="1.874998" fill="none" d="M 0.000000 750.000000 L 750.000000 673.076904 " />
<path stroke-linejoin="round" stroke-linecap="round" stroke="rgb(255,0,0)" stroke-width="3.749996" fill="none" d="M 99.414314 739.803650 L 101.590363 741.979675 " />
<path stroke-linejoin="round" stroke-linecap="round" stroke="rgb(0,0,255)" stroke-width="1.874998" fill="none" d="M 0.000000 750.000000 L 750.000000 668.918945 " />
<path stroke-linejoin="round" stroke-linecap="round" stroke="rgb(255,0,0)" stroke-width="3.749996" fill="none" d="M 98.916939 739.306274 L 99.414337 739.803650 " />
<path stroke-linejoin="round" stroke-linecap="round" stroke="rgb(0,0,255)" stroke-width="1.874998" fill="none" d="M 0.000000 750.000000 L 750.000000 645.833313 " />
<path stroke-linejoin="round" stroke-linecap="round" stroke="rgb(255,0,0)" stroke-width="3.749996" fill="none" d="M 96.243515 736.632874 L 98.916939 739.306274 " />
<path stroke-linejoin="round" stroke-linecap="round" stroke="rgb(0,0,255)" stroke-width="1.874998" fill="none" d="M 0.000000 750.000000 L 750.000000 621.428589 " />
<path stroke-linejoin="round" stroke-linecap="round" stroke="rgb(255,0,0)" stroke-width="3.749996" fill="none" d="M 93.570091 733.959412 L 96.243515 736.632874 " />
<path stroke-linejoin="round" stroke-linecap="round" stroke="rgb(0,0,255)" stroke-width="1.874998" fill="none" d="M 0.000000 750.000000 L 750.000000 595.588196 " />
<path stroke-linejoin="round" stroke-linecap="round" stroke="rgb(255,0,0)" stroke-width="3.749996" fill="none" d="M 90.896667 731.285950 L 93.570091 733.959412 " />
<path stroke-linejoin="round" stroke-linecap="round" stroke="rgb(0,0,255)" stroke-width="1.874998" fill="none" d="M 0.000000 750.000000 L 750.000000 578.571411 " />
<path stroke-linejoin="round" stroke-linecap="round" stroke="rgb(255,0,0)" stroke-width="3.749996" fill="none" d="M 89.218002 729.607361 L 90.896667 731.285950 " />
<path stroke-linejoin="round" stroke-linecap="round" stroke="rgb(0,0,255)" stroke-width="1.874998" fill="none" d="M 0.000000 750.000000 L 750.000000 568.181824 " />
<path stroke-linejoin="round" stroke-linecap="round" stroke="rgb(255,0,0)" stroke-width="3.749996" fill="none" d="M 88.223221 728.612549 L 89.218002 729.607361 " />
<path stroke-linejoin="round" stroke-linecap="round" stroke="rgb(0,0,255)" stroke-width="1.874998" fill="none" d="M 0.000000 750.000000 L 750.000000 539.062500 " />
<path stroke-linejoin="round" stroke-linecap="round" stroke="rgb(255,0,0)" stroke-width="3.749996" fill="none" d="M 85.549797 725.939087 L 88.223221 728.612549 " />
<path stroke-linejoin="round" stroke-linecap="round" stroke="rgb(0,0,255)" stroke-width="1.874998" fill="none" d="M 0.000000 750.000000 L 750.000000 522.727295 " />
<path stroke-linejoin="round" stroke-linecap="round" stroke="rgb(255,0,0)" stroke-width="3.749996" fill="none" d="M 84.119820 724.509155 L 85.549797 725.939087 " />
<path stroke-linejoin="round" stroke-linecap="round" stroke="rgb(0,0,255)" stroke-width="1.874998" fill="none" d="M 0.000000 750.000000 L 750.000000 508.064514 " />
<path stroke-linejoin="round" stroke-linecap="round" stroke="rgb(255,0,0)" stroke-width="3.749996" fill="none" d="M 82.876366 723.265686 L 84.119820 724.509155 " />
<path stroke-linejoin="round" stroke-linecap="round" stroke="rgb(0,0,255)" stroke-width="1.874998" fill="none" d="M 0.000000 750.000000 L 750.000000 475.000000 " />
<path stroke-linejoin="round" stroke-linecap="round" stroke="rgb(255,0,0)" stroke-width="3.749996" fill="none" d="M 80.202942 720.592285 L 82.876389 723.265686 " />
<path stroke-linejoin="round" stroke-linecap="round" stroke="rgb(0,0,255)" stroke-width="1.874998" fill="none" d="M 0.000000 750.000000 L 750.000000 459.677429 " />
<path stroke-linejoin="round" stroke-linecap="round" stroke="rgb(255,0,0)" stroke-width="3.749996" fill="none" d="M 79.021652 719.410950 L 80.202942 720.592285 " />
<path stroke-linejoin="round" stroke-linecap="round" stroke="rgb(0,0,255)" stroke-width="1.874998" fill="none" d="M 0.000000 750.000000 L 750.000000 439.655182 " />
<path stroke-linejoin="round" stroke-linecap="round" stroke="rgb(255,0,0)" stroke-width="3.749996" fill="none" d="M 77.529518 717.918823 L 79.021652 719.410950 " />
<path stroke-linejoin="round" stroke-linecap="round" stroke="rgb(0,0,255)" stroke-width="1.874998" fill="none" d="M 0.000000 750.000000 L 750.000000 401.785706 " />
<path stroke-linejoin="round" stroke-linecap="round" stroke="rgb(255,0,0)" stroke-width="3.749996" fill="none" d="M 74.856094 715.245361 L 77.529518 717.918823 " />
<path stroke-linejoin="round" stroke-linecap="round" stroke="rgb(0,0,255)" stroke-width="1.874998" fill="none" d="M 0.000000 750.000000 L 750.000000 361.111115 " />
<path stroke-linejoin="round" stroke-linecap="round" stroke="rgb(255,0,0)" stroke-width="3.749996" fill="none" d="M 72.182648 712.571960 L 74.856094 715.245361 " />
<path stroke-linejoin="round" stroke-linecap="round" stroke="rgb(0,0,255)" stroke-width="1.874998" fill="none" d="M 0.000000 750.000000 L 750.000000 317.307709 " />
<path stroke-linejoin="round" stroke-linecap="round" stroke="rgb(255,0,0)" stroke-width="3.749996" fill="none" d="M 69.509224 709.898560 L 72.182648 712.571960 " />
<path stroke-linejoin="round" stroke-linecap="round" stroke="rgb(0,0,255)" stroke-width="1.874998" fill="none" d="M 0.000000 750.000000 L 750.000000 305.555542 " />
<path stroke-linejoin="round" stroke-linecap="round" stroke="rgb(255,0,0)" stroke-width="3.749996" fill="none" d="M 68.825325 709.214600 L 69.509224 709.898560 " />
<path stroke-linejoin="round" stroke-linecap="round" stroke="rgb(0,0,255)" stroke-width="1.874998" fill="none" d="M 0.000000 750.000000 L 750.000000 259.615387 " />
<path stroke-linejoin="round" stroke-linecap="round" stroke="rgb(255,0,0)" stroke-width="3.749996" fill="none" d="M 66.276245 706.665527 L 68.825325 709.214600 " />
<path stroke-linejoin="round" stroke-linecap="round" stroke="rgb(0,0,255)" stroke-width="1.874998" fill="none" d="M 0.000000 750.000000 L 750.000000 249.999985 " />
<path stroke-linejoin="round" stroke-linecap="round" stroke="rgb(255,0,0)" stroke-width="3.749996" fill="none" d="M 65.766426 706.155701 L 66.276245 706.665527 " />
<path stroke-linejoin="round" stroke-linecap="round" stroke="rgb(0,0,255)" stroke-width="1.874998" fill="none" d="M 0.000000 750.000000 L 750.000000 209.999985 " />
<path stroke-linejoin="round" stroke-linecap="round" stroke="rgb(255,0,0)" stroke-width="3.749996" fill="none" d="M 63.727142 704.116455 L 65.766426 706.155701 " />
<path stroke-linejoin="round" stroke-linecap="round" stroke="rgb(0,0,255)" stroke-width="1.874998" fill="none" d="M 0.000000 750.000000 L 750.000000 201.923080 " />
<path stroke-linejoin="round" stroke-linecap="round" stroke="rgb(255,0,0)" stroke-width="3.749996" fill="none" d="M 63.330620 703.719910 L 63.727142 704.116455 " />
<path stroke-linejoin="round" stroke-linecap="round" stroke="rgb(0,0,255)" stroke-width="1.874998" fill="none" d="M 0.000000 750.000000 L 750.000000 156.249985 " />
<path stroke-linejoin="round" stroke-linecap="round" stroke="rgb(255,0,0)" stroke-width="3.749996" fill="none" d="M 61.178059 701.567322 L 63.330620 703.719910 " />
<path stroke-linejoin="round" stroke-linecap="round" stroke="rgb(0,0,255)" stroke-width="1.874998" fill="none" d="M 0.000000 750.000000 L 750.000000 149.999985 " />
<path stroke-linejoin="round" stroke-linecap="round" stroke="rgb(255,0,0)" stroke-width="3.749996" fill="none" d="M 60.894840 701.284119 L 61.178059 701.567322 " />
<path stroke-linejoin="round" stroke-linecap="round" stroke="rgb(0,0,255)" stroke-width="1.874998" fill="none" d="M 0.000000 750.000000 L 750.000000 97.826111 " />
<path stroke-linejoin="round" stroke-linecap="round" stroke="rgb(255,0,0)" stroke-width="3.749996" fill="none" d="M 58.628975 699.018250 L 60.894840 701.284119 " />
<path stroke-linejoin="round" stroke-linecap="round" stroke="rgb(0,0,255)" stroke-width="1.874998" fill="none" d="M 0.000000 750.000000 L 750.000000 34.090919 " />
<path stroke-linejoin="round" stroke-linecap="round" stroke="rgb(255,0,0)" stroke-width="3.749996" fill="none" d="M 56.079895 696.469177 L 58.628975 699.018250 " />
<path stroke-linejoin="round" stroke-linecap="round" stroke="rgb(0,0,255)" stroke-width="1.874998" fill="none" d="M 0.000000 750.000000 L 750.000000 32.608688 " />
<path stroke-linejoin="round" stroke-linecap="round" stroke="rgb(255,0,0)" stroke-width="3.749996" fill="none" d="M 56.023232 696.412537 L 56.079895 696.469177 " />
<path stroke-linejoin="round" stroke-linecap="round" stroke="rgb(0,0,255)" stroke-width="1.874998" fill="none" d="M 0.000000 750.000000 L 717.391296 0.000000 " />
<path stroke-linejoin="round" stroke-linecap="round" stroke="rgb(255,0,0)" stroke-width="3.749996" fill="none" d="M 53.587452 693.976807 L 56.023232 696.412537 " />
<path stroke-linejoin="round" stroke-linecap="round" stroke="rgb(0,0,255)" stroke-width="1.874998" fill="none" d="M 0.000000 750.000000 L 656.249939 0.000000 " />
<path stroke-linejoin="round" stroke-linecap="round" stroke="rgb(255,0,0)" stroke-width="3.749996" fill="none" d="M 53.030289 689.393982 L 53.587452 693.976807 " />
<path stroke-linejoin="round" stroke-linecap="round" stroke="rgb(0,0,255)" stroke-width="1.874998" fill="none" d="M 0.000000 750.000000 L 600.000000 0.000000 " />
<path stroke-linejoin="round" stroke-linecap="round" stroke="rgb(255,0,0)" stroke-width="3.749996" fill="none" d="M 52.631580 684.210510 L 53.030289 689.393982 " />
<path stroke-linejoin="round" stroke-linecap="round" stroke="rgb(0,0,255)" stroke-width="1.874998" fill="none" d="M 0.000000 750.000000 L 548.076904 0.000000 " />
<path stroke-linejoin="round" stroke-linecap="round" stroke="rgb(255,0,0)" stroke-width="3.749996" fill="none" d="M 52.197800 678.571411 L 52.631580 684.210510 " />
<path stroke-linejoin="round" stroke-linecap="round" stroke="rgb(0,0,255)" stroke-width="1.874998" fill="none" d="M 0.000000 750.000000 L 508.928589 0.000000 " />
<path stroke-linejoin="round" stroke-linecap="round" stroke="rgb(255,0,0)" stroke-width="3.749996" fill="none" d="M 51.818176 673.636353 L 52.197800 678.571411 " />
<path stroke-linejoin="round" stroke-linecap="round" stroke="rgb(0,0,255)" stroke-width="1.874998" fill="none" d="M 0.000000 750.000000 L 465.517212 0.000000 " />
<path stroke-linejoin="round" stroke-linecap="round" stroke="rgb(255,0,0)" stroke-width="3.749996" fill="none" d="M 51.330799 667.300415 L 51.818176 673.636353 " />
<path stroke-linejoin="round" stroke-linecap="round" stroke="rgb(0,0,255)" stroke-width="1.874998" fill="none" d="M 0.000000 750.000000 L 435.483856 0.000000 " />
<path stroke-linejoin="round" stroke-linecap="round" stroke="rgb(255,0,0)" stroke-width="3.749996" fill="none" d="M 50.943398 662.264160 L 51.330799 667.300415 " />
<path stroke-linejoin="round" stroke-linecap="round" stroke="rgb(0,0,255)" stroke-width="1.874998" fill="none" d="M 0.000000 750.000000 L 310.975616 0.000000 " />
<path stroke-linejoin="round" stroke-linecap="round" stroke="rgb(255,0,0)" stroke-width="3.749996" fill="none" d="M 48.664124 632.633606 L 50.943398 662.264160 " />
<path stroke-linejoin="round" stroke-linecap="round" stroke="rgb(0,0,255)" stroke-width="1.874998" fill="none" d="M 0.000000 750.000000 L 235.294128 0.000000 " />
<path stroke-linejoin="round" stroke-linecap="round" stroke="rgb(255,0,0)" stroke-width="3.749996" fill="none" d="M 46.332054 602.316589 L 48.664124 632.633606 " />
<path stroke-linejoin="round" stroke-linecap="round" stroke="rgb(0,0,255)" stroke-width="1.874998" fill="none" d="M 0.000000 750.000000 L 184.426239 0.000000 " />
<path stroke-linejoin="round" stroke-linecap="round" stroke="rgb(255,0,0)" stroke-width="3.749996" fill="none" d="M 43.945312 571.289062 L 46.332054 602.316589 " />
<path stroke-linejoin="round" stroke-linecap="round" stroke="rgb(0,0,255)" stroke-width="1.874998" fill="none" d="M 0.000000 750.000000 L 169.014084 0.000000 " />
<path stroke-linejoin="round" stroke-linecap="round" stroke="rgb(255,0,0)" stroke-width="3.749996" fill="none" d="M 43.010765 559.139771 L 43.945312 571.289062 " />
<path stroke-linejoin="round" stroke-linecap="round" stroke="rgb(0,0,255)" stroke-width="1.874998" fill="none" d="M 0.000000 750.000000 L 138.888901 0.000000 " />
<path stroke-linejoin="round" stroke-linecap="round" stroke="rgb(255,0,0)" stroke-width="3.749996" fill="none" d="M 40.760883 529.891296 L 43.010765 559.139709 " />
<path stroke-linejoin="round" stroke-linecap="round" stroke="rgb(0,0,255)" stroke-width="1.874998" fill="none" d="M 0.000000 750.000000 L 131.868118 0.000000 " />
<path stroke-linejoin="round" stroke-linecap="round" stroke="rgb(255,0,0)" stroke-width="3.749996" fill="none" d="M 40.133781 521.739075 L 40.760883 529.891296 " />
<path stroke-linejoin="round" stroke-linecap="round" stroke="rgb(0,0,255)" stroke-width="1.874998" fill="none" d="M 0.000000 750.000000 L 125.000015 0.000000 " />
<path stroke-linejoin="round" stroke-linecap="round" stroke="rgb(255,0,0)" stroke-width="3.749996" fill="none" d="M 39.473690 513.157837 L 40.133781 521.739075 " />
<path stroke-linejoin="round" stroke-linecap="round" stroke="rgb(0,0,255)" stroke-width="1.874998" fill="none" d="M 0.000000 750.000000 L 103.723389 0.000000 " />
<path stroke-linejoin="round" stroke-linecap="round" stroke="rgb(255,0,0)" stroke-width="3.749996" fill="none" d="M 37.072243 481.939148 L 39.473690 513.157837 " />
<path stroke-linejoin="round" stroke-linecap="round" stroke="rgb(0,0,255)" stroke-width="1.874998" fill="none" d="M 0.000000 750.000000 L 100.961540 0.000000 " />
<path stroke-linejoin="round" stroke-linecap="round" stroke="rgb(255,0,0)" stroke-width="3.749996" fill="none" d="M 36.713295 477.272705 L 37.072243 481.939148 " />
<path stroke-linejoin="round" stroke-linecap="round" stroke="rgb(0,0,255)" stroke-width="1.874998" fill="none" d="M 0.000000 750.000000 L 85.526306 0.000000 " />
<path stroke-linejoin="round" stroke-linecap="round" stroke="rgb(255,0,0)" stroke-width="3.749996" fill="none" d="M 34.452305 447.879791 L 36.713295 477.272705 " />
<path stroke-linejoin="round" stroke-linecap="round" stroke="rgb(0,0,255)" stroke-width="1.874998" fill="none" d="M 0.000000 750.000000 L 81.683167 0.000000 " />
<path stroke-linejoin="round" stroke-linecap="round" stroke="rgb(255,0,0)" stroke-width="3.749996" fill="none" d="M 33.811481 439.549133 L 34.452305 447.879791 " />
<path stroke-linejoin="round" stroke-linecap="round" stroke="rgb(0,0,255)" stroke-width="1.874998" fill="none" d="M 0.000000 750.000000 L 77.830193 0.000000 " />
<path stroke-linejoin="round" stroke-linecap="round" stroke="rgb(255,0,0)" stroke-width="3.749996" fill="none" d="M 33.132523 430.722839 L 33.811481 439.549133 " />
<path stroke-linejoin="round" stroke-linecap="round" stroke="rgb(0,0,255)" stroke-width="1.874998" fill="none" d="M 0.000000 750.000000 L 77.586205 0.000000 " />
<path stroke-linejoin="round" stroke-linecap="round" stroke="rgb(255,0,0)" stroke-width="3.749996" fill="none" d="M 33.088245 430.147034 L 33.132523 430.722839 " />
<path stroke-linejoin="round" stroke-linecap="round" stroke="rgb(0,0,255)" stroke-width="1.874998" fill="none" d="M 0.000000 750.000000 L 70.093452 0.000000 " />
<path stroke-linejoin="round" stroke-linecap="round" stroke="rgb(255,0,0)" stroke-width="3.749996" fill="none" d="M 31.645575 411.392334 L 33.088245 430.147034 " />
<path stroke-linejoin="round" stroke-linecap="round" stroke="rgb(0,0,255)" stroke-width="1.874998" fill="none" d="M 0.000000 750.000000 L 57.692303 0.000000 " />
<path stroke-linejoin="round" stroke-linecap="round" stroke="rgb(255,0,0)" stroke-width="3.749996" fill="none" d="M 28.846151 374.999969 L 31.645575 411.392334 " />
<path stroke-linejoin="round" stroke-linecap="round" stroke="rgb(0,0,255)" stroke-width="1.874998" fill="none" d="M 0.000000 750.000000 L 49.270077 0.000000 " />
<path stroke-linejoin="round" stroke-linecap="round" stroke="rgb(255,0,0)" stroke-width="3.749996" fill="none" d="M 26.574812 345.472382 L 28.846151 374.999969 " />
<path stroke-linejoin="round" stroke-linecap="round" stroke="rgb(0,0,255)" stroke-width="1.874998" fill="none" d="M 0.000000 750.000000 L 46.232880 0.000000 " />
<path stroke-linejoin="round" stroke-linecap="round" stroke="rgb(255,0,0)" stroke-width="3.749996" fill="none" d="M 25.665409 333.650146 L 26.574812 345.472382 " />
<path stroke-linejoin="round" stroke-linecap="round" stroke="rgb(0,0,255)" stroke-width="1.874998" fill="none" d="M 0.000000 750.000000 L 44.776127 0.000000 " />
<path stroke-linejoin="round" stroke-linecap="round" stroke="rgb(255,0,0)" stroke-width="3.749996" fill="none" d="M 25.210083 327.731049 L 25.665409 333.650146 " />
<path stroke-linejoin="round" stroke-linecap="round" stroke="rgb(0,0,255)" stroke-width="1.874998" fill="none" d="M 0.000000 750.000000 L 38.961029 0.000000 " />
<path stroke-linejoin="round" stroke-linecap="round" stroke="rgb(255,0,0)" stroke-width="3.749996" fill="none" d="M 23.255825 302.325470 L 25.210083 327.731049 " />
<path stroke-linejoin="round" stroke-linecap="round" stroke="rgb(0,0,255)" stroke-width="1.874998" fill="none" d="M 0.000000 750.000000 L 37.974693 0.000000 " />
<path stroke-linejoin="round" stroke-linecap="round" stroke="rgb(255,0,0)" stroke-width="3.749996" fill="none" d="M 22.900768 297.709869 L 23.255825 302.325470 " />
<path stroke-linejoin="round" stroke-linecap="round" stroke="rgb(0,0,255)" stroke-width="1.874998" fill="none" d="M 0.000000 750.000000 L 36.363647 0.000000 " />
<path stroke-linejoin="round" stroke-linecap="round" stroke="rgb(255,0,0)" stroke-width="3.749996" fill="none" d="M 22.304848 289.962738 L 22.900768 297.709869 " />
<path stroke-linejoin="round" stroke-linecap="round" stroke="rgb(0,0,255)" stroke-width="1.874998" fill="none" d="M 0.000000 750.000000 L 33.018864 0.000000 " />
<path stroke-linejoin="round" stroke-linecap="round" stroke="rgb(255,0,0)" stroke-width="3.749996" fill="none" d="M 20.999998 272.999939 L 22.304848 289.962738 " />
<path stroke-linejoin="round" stroke-linecap="round" stroke="rgb(0,0,255)" stroke-width="1.874998" fill="none" d="M 0.000000 750.000000 L 29.329597 0.000000 " />
<path stroke-linejoin="round" stroke-linecap="round" stroke="rgb(255,0,0)" stroke-width="3.749996" fill="none" d="M 19.444450 252.777664 L 20.999998 272.999939 " />
<path stroke-linejoin="round" stroke-linecap="round" stroke="rgb(0,0,255)" stroke-width="1.874998" fill="none" d="M 0.000000 750.000000 L 23.809523 0.000000 " />
<path stroke-linejoin="round" stroke-linecap="round" stroke="rgb(255,0,0)" stroke-width="3.749996" fill="none" d="M 16.853928 219.101074 L 19.444450 252.777664 " />
<path stroke-linejoin="round" stroke-linecap="round" stroke="rgb(0,0,255)" stroke-width="1.874998" fill="none" d="M 0.000000 750.000000 L 18.844217 0.000000 " />
<path stroke-linejoin="round" stroke-linecap="round" stroke="rgb(255,0,0)" stroke-width="3.749996" fill="none" d="M 14.204555 184.658997 L 16.853928 219.101074 " />
<path stroke-linejoin="round" stroke-linecap="round" stroke="rgb(0,0,255)" stroke-width="1.874998" fill="none" d="M 0.000000 750.000000 L 14.354065 0.000000 " />
<path stroke-linejoin="round" stroke-linecap="round" stroke="rgb(255,0,0)" stroke-width="3.749996" fill="none" d="M 11.494249 149.425186 L 14.204555 184.658997 " />
<path stroke-linejoin="round" stroke-linecap="round" stroke="rgb(0,0,255)" stroke-width="1.874998" fill="none" d="M 0.000000 750.000000 L 13.636373 0.000000 " />
<path stroke-linejoin="round" stroke-linecap="round" stroke="rgb(255,0,0)" stroke-width="3.749996" fill="none" d="M 11.029423 143.382263 L 11.494249 149.425186 " />
<path stroke-linejoin="round" stroke-linecap="round" stroke="rgb(0,0,255)" stroke-width="1.874998" fill="none" d="M 0.000000 750.000000 L 13.513506 0.000000 " />
<path stroke-linejoin="round" stroke-linecap="round" stroke="rgb(255,0,0)" stroke-width="3.749996" fill="none" d="M 10.948912 142.335648 L 11.029423 143.382263 " />
<path stroke-linejoin="round" stroke-linecap="round" stroke="rgb(0,0,255)" stroke-width="1.874998" fill="none" d="M 0.000000 750.000000 L 13.452909 0.000000 " />
<path stroke-linejoin="round" stroke-linecap="round" stroke="rgb(255,0,0)" stroke-width="3.749996" fill="none" d="M 10.909102 141.818085 L 10.948912 142.335648 " />
<path stroke-linejoin="round" stroke-linecap="round" stroke="rgb(0,0,255)" stroke-width="1.874998" fill="none" d="M 0.000000 750.000000 L 13.215870 0.000000 " />
<path stroke-linejoin="round" stroke-linecap="round" stroke="rgb(255,0,0)" stroke-width="3.749996" fill="none" d="M 10.752686 139.784821 L 10.909102 141.818085 " />
<path stroke-linejoin="round" stroke-linecap="round" stroke="rgb(0,0,255)" stroke-width="1.874998" fill="none" d="M 0.000000 750.000000 L 13.157889 0.000000 " />
<path stroke-linejoin="round" stroke-linecap="round" stroke="rgb(255,0,0)" stroke-width="3.749996" fill="none" d="M 10.714285 139.285645 L 10.752686 139.784821 " />
<path stroke-linejoin="round" stroke-linecap="round" stroke="rgb(0,0,255)" stroke-width="1.874998" fill="none" d="M 0.000000 750.000000 L 11.658020 0.000000 " />
<path stroke-linejoin="round" stroke-linecap="round" stroke="rgb(255,0,0)" stroke-width="3.749996" fill="none" d="M 9.698287 126.077461 L 10.714285 139.285645 " />
<path stroke-linejoin="round" stroke-linecap="round" stroke="rgb(0,0,255)" stroke-width="1.874998" fill="none" d="M 0.000000 750.000000 L 7.389173 0.000000 " />
<path stroke-linejoin="round" stroke-linecap="round" stroke="rgb(255,0,0)" stroke-width="3.749996" fill="none" d="M 6.550222 85.152672 L 9.698287 126.077461 " />
<path stroke-linejoin="round" stroke-linecap="round" stroke="rgb(0,0,255)" stroke-width="1.874998" fill="none" d="M 0.000000 750.000000 L 3.521137 0.000000 " />
<path stroke-linejoin="round" stroke-linecap="round" stroke="rgb(255,0,0)" stroke-width="3.749996" fill="none" d="M 3.318585 43.141365 L 6.550222 85.152626 " />
<path stroke-linejoin="round" stroke-linecap="round" stroke="rgb(0,0,255)" stroke-width="1.874998" fill="none" d="M 0.000000 750.000000 L 0.000000 0.000000 " />
<path stroke-linejoin="round" stroke-linecap="round" stroke="rgb(255,0,0)" stroke-width="3.749996" fill="none" d="M 0.000000 0.000000 L 3.318585 43.141365 " />
<circle cx="106.937215" cy="747.326598" r="3.749996" style="fill:rgb(0,127,0);stroke-width:1" /><circle cx="104.263790" cy="744.653150" r="3.749996" style="fill:rgb(0,127,0);stroke-width:1" /><circle cx="101.590365" cy="741.979703" r="3.749996" style="fill:rgb(0,127,0);stroke-width:1" /><circle cx="99.414311" cy="739.803649" r="3.749996" style="fill:rgb(0,127,0);stroke-width:1" /><circle cx="98.916940" cy="739.306279" r="3.749996" style="fill:rgb(0,127,0);stroke-width:1" /><circle cx="96.243516" cy="736.632854" r="3.749996" style="fill:rgb(0,127,0);stroke-width:1" /><circle cx="93.570091" cy="733.959407" r="3.749996" style="fill:rgb(0,127,0);stroke-width:1" /><circle cx="90.896666" cy="731.285982" r="3.749996" style="fill:rgb(0,127,0);stroke-width:1" /><circle cx="89.218006" cy="729.607321" r="3.749996" style="fill:rgb(0,127,0);stroke-width:1" /><circle cx="88.223219" cy="728.612557" r="3.749996" style="fill:rgb(0,127,0);stroke-width:1" /><circle cx="85.549794" cy="725.939110" r="3.749996" style="fill:rgb(0,127,0);stroke-width:1" /><circle cx="84.119819" cy="724.509135" r="3.749996" style="fill:rgb(0,127,0);stroke-width:1" /><circle cx="82.876369" cy="723.265685" r="3.749996" style="fill:rgb(0,127,0);stroke-width:1" /><circle cx="80.202945" cy="720.592260" r="3.749996" style="fill:rgb(0,127,0);stroke-width:1" /><circle cx="79.021655" cy="719.410971" r="3.749996" style="fill:rgb(0,127,0);stroke-width:1" /><circle cx="77.529520" cy="717.918813" r="3.749996" style="fill:rgb(0,127,0);stroke-width:1" /><circle cx="74.856095" cy="715.245388" r="3.749996" style="fill:rgb(0,127,0);stroke-width:1" /><circle cx="72.182648" cy="712.571964" r="3.749996" style="fill:rgb(0,127,0);stroke-width:1" /><circle cx="69.509223" cy="709.898539" r="3.749996" style="fill:rgb(0,127,0);stroke-width:1" /><circle cx="68.825327" cy="709.214620" r="3.749996" style="fill:rgb(0,127,0);stroke-width:1" /><circle cx="66.276245" cy="706.665538" r="3.749996" style="fill:rgb(0,127,0);stroke-width:1" /><circle cx="65.766424" cy="706.155717" r="3.749996" style="fill:rgb(0,127,0);stroke-width:1" /><circle cx="63.727140" cy="704.116456" r="3.749996" style="fill:rgb(0,127,0);stroke-width:1" /><circle cx="63.330621" cy="703.719936" r="3.749996" style="fill:rgb(0,127,0);stroke-width:1" /><circle cx="61.178058" cy="701.567374" r="3.749996" style="fill:rgb(0,127,0);stroke-width:1" /><circle cx="60.894839" cy="701.284133" r="3.749996" style="fill:rgb(0,127,0);stroke-width:1" /><circle cx="58.628976" cy="699.018270" r="3.749996" style="fill:rgb(0,127,0);stroke-width:1" /><circle cx="56.079894" cy="696.469188" r="3.749996" style="fill:rgb(0,127,0);stroke-width:1" /><circle cx="56.023233" cy="696.412548" r="3.749996" style="fill:rgb(0,127,0);stroke-width:1" /><circle cx="53.587452" cy="693.976767" r="3.749996" style="fill:rgb(0,127,0);stroke-width:1" /><circle cx="53.030290" cy="689.393945" r="3.749996" style="fill:rgb(0,127,0);stroke-width:1" /><circle cx="52.631579" cy="684.210531" r="3.749996" style="fill:rgb(0,127,0);stroke-width:1" /><circle cx="52.197799" cy="678.571433" r="3.749996" style="fill:rgb(0,127,0);stroke-width:1" /><circle cx="51.818177" cy="673.636369" r="3.749996" style="fill:rgb(0,127,0);stroke-width:1" /><circle cx="51.330797" cy="667.300388" r="3.749996" style="fill:rgb(0,127,0);stroke-width:1" /><circle cx="50.943397" cy="662.264161" r="3.749996" style="fill:rgb(0,127,0);stroke-width:1" /><circle cx="48.664123" cy="632.633574" r="3.749996" style="fill:rgb(0,127,0);stroke-width:1" /><circle cx="46.332054" cy="602.316611" r="3.749996" style="fill:rgb(0,127,0);stroke-width:1" /><circle cx="43.945312" cy="571.289040" r="3.749996" style="fill:rgb(0,127,0);stroke-width:1" /><circle cx="43.010764" cy="559.139773" r="3.749996" style="fill:rgb(0,127,0);stroke-width:1" /><circle cx="40.760882" cy="529.891256" r="3.749996" style="fill:rgb(0,127,0);stroke-width:1" /><circle cx="40.133782" cy="521.739107" r="3.749996" style="fill:rgb(0,127,0);stroke-width:1" /><circle cx="39.473690" cy="513.157848" r="3.749996" style="fill:rgb(0,127,0);stroke-width:1" /><circle cx="37.072241" cy="481.939137" r="3.749996" style="fill:rgb(0,127,0);stroke-width:1" /><circle cx="36.713295" cy="477.272708" r="3.749996" style="fill:rgb(0,127,0);stroke-width:1" /><circle cx="34.452304" cy="447.879782" r="3.749996" style="fill:rgb(0,127,0);stroke-width:1" /><circle cx="33.811480" cy="439.549148" r="3.749996" style="fill:rgb(0,127,0);stroke-width:1" /><circle cx="33.132523" cy="430.722842" r="3.749996" style="fill:rgb(0,127,0);stroke-width:1" /><circle cx="33.088244" cy="430.147011" r="3.749996" style="fill:rgb(0,127,0);stroke-width:1" /><circle cx="31.645574" cy="411.392366" r="3.749996" style="fill:rgb(0,127,0);stroke-width:1" /><circle cx="28.846152" cy="374.999949" r="3.749996" style="fill:rgb(0,127,0);stroke-width:1" /><circle cx="26.574813" cy="345.472380" r="3.749996" style="fill:rgb(0,127,0);stroke-width:1" /><circle cx="25.665410" cy="333.650147" r="3.749996" style="fill:rgb(0,127,0);stroke-width:1" /><circle cx="25.210083" cy="327.731045" r="3.749996" style="fill:rgb(0,127,0);stroke-width:1" /><circle cx="23.255825" cy="302.325469" r="3.749996" style="fill:rgb(0,127,0);stroke-width:1" /><circle cx="22.900768" cy="297.709873" r="3.749996" style="fill:rgb(0,127,0);stroke-width:1" /><circle cx="22.304848" cy="289.962737" r="3.749996" style="fill:rgb(0,127,0);stroke-width:1" /><circle cx="20.999998" cy="272.999939" r="3.749996" style="fill:rgb(0,127,0);stroke-width:1" /><circle cx="19.444451" cy="252.777658" r="3.749996" style="fill:rgb(0,127,0);stroke-width:1" /><circle cx="16.853929" cy="219.101071" r="3.749996" style="fill:rgb(0,127,0);stroke-width:1" /><circle cx="14.204554" cy="184.659004" r="3.749996" style="fill:rgb(0,127,0);stroke-width:1" /><circle cx="11.494249" cy="149.425194" r="3.749996" style="fill:rgb(0,127,0);stroke-width:1" /><circle cx="11.029422" cy="143.382266" r="3.749996" style="fill:rgb(0,127,0);stroke-width:1" /><circle cx="10.948911" cy="142.335646" r="3.749996" style="fill:rgb(0,127,0);stroke-width:1" /><circle cx="10.909103" cy="141.818091" r="3.749996" style="fill:rgb(0,127,0);stroke-width:1" /><circle cx="10.752685" cy="139.784820" r="3.749996" style="fill:rgb(0,127,0);stroke-width:1" /><circle cx="10.714285" cy="139.285639" r="3.749996" style="fill:rgb(0,127,0);stroke-width:1" /><circle cx="9.698287" cy="126.077458" r="3.749996" style="fill:rgb(0,127,0);stroke-width:1" /><circle cx="6.550223" cy="85.152671" r="3.749996" style="fill:rgb(0,127,0);stroke-width:1" /><circle cx="3.318563" cy="43.141365" r="3.750008" style="fill:rgb(0,127,0);stroke-width:1" /><circle cx="750.000000" cy="750.000000" r="3.749996" style="fill:rgb(0,127,0);stroke-width:1" /><path stroke-linejoin="round" stroke-linecap="round" stroke="rgb(255,255,255)" stroke-width="3.749996" fill="none" d="M 0.000000 750.000000 L 750.000000 750.000000 M 0.000000 750.000000 L 0.000000 0.000000 " />

</svg>