<svg xmlns="http://www.w3.org/2000/svg" version="1.1" width = "750" height = "750" viewBox = "0 0 750 750"  shape-rendering="crispEdges">
<path stroke-linejoin="round" stroke-linecap="round" stroke="rgb(255,255,0)" stroke-width="3.749996" fill="none" d="M 107.142853 750.000000 L 0.000000 0.000000 " />
<path stroke-linejoin="round" stroke-linecap="round" stroke="rgb(63,63,63)" stroke-width="3.749996" fill="none" d="M 0.000000 0.000000 L 750.000000 750.000000 M 107.142853 750.000000 L 49.450546 0.000000 " />
<path stroke-linejoin="round" stroke-linecap="round" stroke="rgb(191,191,191)" stroke-width="3.749996" fill="none" d="M 0.000000 642.857178 L 107.142853 750.000000 M 0.000000 0.000000 L 57.692303 750.000000 " />
<path stroke-linejoin="round" stroke-linecap="round" stroke="rgb(0,0,255)" stroke-width="1.874998" fill="none" d="M 0.000000 750.000000 L 750.000000 732.142822 " />
<path stroke-linejoin="round" stroke-linecap="round" stroke="rgb(255,0,0)" stroke-width="3.749996" fill="none" d="M 106.946983 747.453674 L 107.142853 750.000000 " />
<path stroke-linejoin="round" stroke-linecap="round" stroke="rgb(0,0,255)" stroke-width="1.874998" fill="none" d="M 0.000000 750.000000 L 750.000000 713.414612 " />
<path stroke-linejoin="round" stroke-linecap="round" stroke="rgb(255,0,0)" stroke-width="3.749996" fill="none" d="M 106.287384 744.815247 L 106.946983 747.453674 " />
<path stroke-linejoin="round" stroke-linecap="round" stroke="rgb(0,0,255)" stroke-width="1.874998" fill="none" d="M 0.000000 750.000000 L 750.000000 693.750000 " />
<path stroke-linejoin="round" stroke-linecap="round" stroke="rgb(255,0,0)" stroke-width="3.749996" fill="none" d="M 105.603508 742.079712 L 106.287384 744.815247 " />
<path stroke-linejoin="round" stroke-linecap="round" stroke="rgb(0,0,255)" stroke-width="1.874998" fill="none" d="M 0.000000 750.000000 L 750.000000 673.076904 " />
<path stroke-linejoin="round" stroke-linecap="round" stroke="rgb(255,0,0)" stroke-width="3.749996" fill="none" d="M 104.893997 739.241638 L 105.603531 742.079712 " />
<path stroke-linejoin="round" stroke-linecap="round" stroke="rgb(0,0,255)" stroke-width="1.874998" fill="none" d="M 0.000000 750.000000 L 750.000000 656.250000 " />
<path stroke-linejoin="round" stroke-linecap="round" stroke="rgb(255,0,0)" stroke-width="3.749996" fill="none" d="M 104.323471 736.959534 L 104.893997 739.241638 " />
<path stroke-linejoin="round" stroke-linecap="round" stroke="rgb(0,0,255)" stroke-width="1.874998" fill="none" d="M 0.000000 750.000000 L 750.000000 651.315796 " />
<path stroke-linejoin="round" stroke-linecap="round" stroke="rgb(255,0,0)" stroke-width="3.749996" fill="none" d="M 104.157349 736.295044 L 104.323448 736.959534 " />
<path stroke-linejoin="round" stroke-linecap="round" stroke="rgb(0,0,255)" stroke-width="1.874998" fill="none" d="M 0.000000 750.000000 L 750.000000 628.378357 " />
<path stroke-linejoin="round" stroke-linecap="round" stroke="rgb(255,0,0)" stroke-width="3.749996" fill="none" d="M 103.392006 733.233765 L 104.157349 736.295044 " />
<path stroke-linejoin="round" stroke-linecap="round" stroke="rgb(0,0,255)" stroke-width="1.874998" fill="none" d="M 0.000000 750.000000 L 750.000000 611.842102 " />
<path stroke-linejoin="round" stroke-linecap="round" stroke="rgb(255,0,0)" stroke-width="3.749996" fill="none" d="M 102.847183 731.054504 L 103.392006 733.233765 " />
<path stroke-linejoin="round" stroke-linecap="round" stroke="rgb(0,0,255)" stroke-width="1.874998" fill="none" d="M 0.000000 750.000000 L 750.000000 604.166687 " />
<path stroke-linejoin="round" stroke-linecap="round" stroke="rgb(255,0,0)" stroke-width="3.749996" fill="none" d="M 102.596237 730.050720 L 102.847183 731.054504 " />
<path stroke-linejoin="round" stroke-linecap="round" stroke="rgb(0,0,255)" stroke-width="1.874998" fill="none" d="M 0.000000 750.000000 L 750.000000 578.571411 " />
<path stroke-linejoin="round" stroke-linecap="round" stroke="rgb(255,0,0)" stroke-width="3.749996" fill="none" d="M 101.768219 726.738708 L 102.596237 730.050720 " />
<path stroke-linejoin="round" stroke-linecap="round" stroke="rgb(0,0,255)" stroke-width="1.874998" fill="none" d="M 0.000000 750.000000 L 750.000000 562.500000 " />
<path stroke-linejoin="round" stroke-linecap="round" stroke="rgb(255,0,0)" stroke-width="3.749996" fill="none" d="M 101.255112 724.686218 L 101.768219 726.738708 " />
<path stroke-linejoin="round" stroke-linecap="round" stroke="rgb(0,0,255)" stroke-width="1.874998" fill="none" d="M 0.000000 750.000000 L 750.000000 551.470581 " />
<path stroke-linejoin="round" stroke-linecap="round" stroke="rgb(255,0,0)" stroke-width="3.749996" fill="none" d="M 100.905952 723.289551 L 101.255112 724.686218 " />
<path stroke-linejoin="round" stroke-linecap="round" stroke="rgb(0,0,255)" stroke-width="1.874998" fill="none" d="M 0.000000 750.000000 L 750.000000 535.714294 " />
<path stroke-linejoin="round" stroke-linecap="round" stroke="rgb(255,0,0)" stroke-width="3.749996" fill="none" d="M 100.411331 721.311035 L 100.905952 723.289551 " />
<path stroke-linejoin="round" stroke-linecap="round" stroke="rgb(0,0,255)" stroke-width="1.874998" fill="none" d="M 0.000000 750.000000 L 750.000000 522.727295 " />
<path stroke-linejoin="round" stroke-linecap="round" stroke="rgb(255,0,0)" stroke-width="3.749996" fill="none" d="M 100.007256 719.694763 L 100.411331 721.311035 " />
<path stroke-linejoin="round" stroke-linecap="round" stroke="rgb(0,0,255)" stroke-width="1.874998" fill="none" d="M 0.000000 750.000000 L 750.000000 492.187500 " />
<path stroke-linejoin="round" stroke-linecap="round" stroke="rgb(255,0,0)" stroke-width="3.749996" fill="none" d="M 99.069756 715.944824 L 100.007256 719.694763 " />
<path stroke-linejoin="round" stroke-linecap="round" stroke="rgb(0,0,255)" stroke-width="1.874998" fill="none" d="M 0.000000 750.000000 L 750.000000 477.272705 " />
<path stroke-linejoin="round" stroke-linecap="round" stroke="rgb(255,0,0)" stroke-width="3.749996" fill="none" d="M 98.618256 714.138794 L 99.069756 715.944824 " />
<path stroke-linejoin="round" stroke-linecap="round" stroke="rgb(0,0,255)" stroke-width="1.874998" fill="none" d="M 0.000000 750.000000 L 750.000000 445.312500 " />
<path stroke-linejoin="round" stroke-linecap="round" stroke="rgb(255,0,0)" stroke-width="3.749996" fill="none" d="M 97.664505 710.323792 L 98.618256 714.138794 " />
<path stroke-linejoin="round" stroke-linecap="round" stroke="rgb(0,0,255)" stroke-width="1.874998" fill="none" d="M 0.000000 750.000000 L 750.000000 411.290344 " />
<path stroke-linejoin="round" stroke-linecap="round" stroke="rgb(255,0,0)" stroke-width="3.749996" fill="none" d="M 96.669273 706.342957 L 97.664482 710.323792 " />
<path stroke-linejoin="round" stroke-linecap="round" stroke="rgb(0,0,255)" stroke-width="1.874998" fill="none" d="M 0.000000 750.000000 L 750.000000 375.000000 " />
<path stroke-linejoin="round" stroke-linecap="round" stroke="rgb(255,0,0)" stroke-width="3.749996" fill="none" d="M 95.629807 702.185059 L 96.669250 706.342957 " />
<path stroke-linejoin="round" stroke-linecap="round" stroke="rgb(0,0,255)" stroke-width="1.874998" fill="none" d="M 0.000000 750.000000 L 750.000000 362.903229 " />
<path stroke-linejoin="round" stroke-linecap="round" stroke="rgb(255,0,0)" stroke-width="3.749996" fill="none" d="M 95.288269 700.818970 L 95.629807 702.185059 " />
<path stroke-linejoin="round" stroke-linecap="round" stroke="rgb(0,0,255)" stroke-width="1.874998" fill="none" d="M 0.000000 750.000000 L 750.000000 325.000000 " />
<path stroke-linejoin="round" stroke-linecap="round" stroke="rgb(255,0,0)" stroke-width="3.749996" fill="none" d="M 94.233757 696.600891 L 95.288269 700.818970 " />
<path stroke-linejoin="round" stroke-linecap="round" stroke="rgb(0,0,255)" stroke-width="1.874998" fill="none" d="M 0.000000 750.000000 L 750.000000 284.482788 " />
<path stroke-linejoin="round" stroke-linecap="round" stroke="rgb(255,0,0)" stroke-width="3.749996" fill="none" d="M 93.132019 692.193909 L 94.233757 696.600891 " />
<path stroke-linejoin="round" stroke-linecap="round" stroke="rgb(0,0,255)" stroke-width="1.874998" fill="none" d="M 0.000000 750.000000 L 750.000000 275.000000 " />
<path stroke-linejoin="round" stroke-linecap="round" stroke="rgb(255,0,0)" stroke-width="3.749996" fill="none" d="M 92.877876 691.177368 L 93.132019 692.193909 " />
<path stroke-linejoin="round" stroke-linecap="round" stroke="rgb(0,0,255)" stroke-width="1.874998" fill="none" d="M 0.000000 750.000000 L 750.000000 241.071442 " />
<path stroke-linejoin="round" stroke-linecap="round" stroke="rgb(255,0,0)" stroke-width="3.749996" fill="none" d="M 91.979813 687.585144 L 92.877876 691.177368 " />
<path stroke-linejoin="round" stroke-linecap="round" stroke="rgb(0,0,255)" stroke-width="1.874998" fill="none" d="M 0.000000 750.000000 L 750.000000 232.758606 " />
<path stroke-linejoin="round" stroke-linecap="round" stroke="rgb(255,0,0)" stroke-width="3.749996" fill="none" d="M 91.762413 686.715576 L 91.979813 687.585144 " />
<path stroke-linejoin="round" stroke-linecap="round" stroke="rgb(0,0,255)" stroke-width="1.874998" fill="none" d="M 0.000000 750.000000 L 750.000000 194.444458 " />
<path stroke-linejoin="round" stroke-linecap="round" stroke="rgb(255,0,0)" stroke-width="3.749996" fill="none" d="M 90.773598 682.760315 L 91.762413 686.715576 " />
<path stroke-linejoin="round" stroke-linecap="round" stroke="rgb(0,0,255)" stroke-width="1.874998" fill="none" d="M 0.000000 750.000000 L 750.000000 144.230789 " />
<path stroke-linejoin="round" stroke-linecap="round" stroke="rgb(255,0,0)" stroke-width="3.749996" fill="none" d="M 89.509491 677.703857 L 90.773598 682.760315 " />
<path stroke-linejoin="round" stroke-linecap="round" stroke="rgb(0,0,255)" stroke-width="1.874998" fill="none" d="M 0.000000 750.000000 L 653.225830 0.000000 " />
<path stroke-linejoin="round" stroke-linecap="round" stroke="rgb(255,0,0)" stroke-width="3.749996" fill="none" d="M 86.775940 650.368347 L 89.509491 677.703857 " />
<path stroke-linejoin="round" stroke-linecap="round" stroke="rgb(0,0,255)" stroke-width="1.874998" fill="none" d="M 0.000000 750.000000 L 475.609741 0.000000 " />
<path stroke-linejoin="round" stroke-linecap="round" stroke="rgb(255,0,0)" stroke-width="3.749996" fill="none" d="M 83.562012 618.229126 L 86.775940 650.368347 " />
<path stroke-linejoin="round" stroke-linecap="round" stroke="rgb(0,0,255)" stroke-width="1.874998" fill="none" d="M 0.000000 750.000000 L 367.647064 0.000000 " />
<path stroke-linejoin="round" stroke-linecap="round" stroke="rgb(255,0,0)" stroke-width="3.749996" fill="none" d="M 80.348099 586.089905 L 83.562012 618.229126 " />
<path stroke-linejoin="round" stroke-linecap="round" stroke="rgb(0,0,255)" stroke-width="1.874998" fill="none" d="M 0.000000 750.000000 L 319.672150 0.000000 " />
<path stroke-linejoin="round" stroke-linecap="round" stroke="rgb(255,0,0)" stroke-width="3.749996" fill="none" d="M 78.355659 566.165527 L 80.348099 586.089905 " />
<path stroke-linejoin="round" stroke-linecap="round" stroke="rgb(0,0,255)" stroke-width="1.874998" fill="none" d="M 0.000000 750.000000 L 312.500000 0.000000 " />
<path stroke-linejoin="round" stroke-linecap="round" stroke="rgb(255,0,0)" stroke-width="3.749996" fill="none" d="M 77.696419 563.528564 L 78.355659 566.165527 " />
<path stroke-linejoin="round" stroke-linecap="round" stroke="rgb(0,0,255)" stroke-width="1.874998" fill="none" d="M 0.000000 750.000000 L 290.816345 0.000000 " />
<path stroke-linejoin="round" stroke-linecap="round" stroke="rgb(255,0,0)" stroke-width="3.749996" fill="none" d="M 75.583084 555.075195 L 77.696419 563.528564 " />
<path stroke-linejoin="round" stroke-linecap="round" stroke="rgb(0,0,255)" stroke-width="1.874998" fill="none" d="M 0.000000 750.000000 L 270.000000 0.000000 " />
<path stroke-linejoin="round" stroke-linecap="round" stroke="rgb(255,0,0)" stroke-width="3.749996" fill="none" d="M 73.365814 546.206116 L 75.583084 555.075195 " />
<path stroke-linejoin="round" stroke-linecap="round" stroke="rgb(0,0,255)" stroke-width="1.874998" fill="none" d="M 0.000000 750.000000 L 259.615387 0.000000 " />
<path stroke-linejoin="round" stroke-linecap="round" stroke="rgb(255,0,0)" stroke-width="3.749996" fill="none" d="M 72.182495 541.472839 L 73.365814 546.206116 " />
<path stroke-linejoin="round" stroke-linecap="round" stroke="rgb(0,0,255)" stroke-width="1.874998" fill="none" d="M 0.000000 750.000000 L 250.000000 0.000000 " />
<path stroke-linejoin="round" stroke-linecap="round" stroke="rgb(255,0,0)" stroke-width="3.749996" fill="none" d="M 71.036720 536.889832 L 72.182495 541.472839 " />
<path stroke-linejoin="round" stroke-linecap="round" stroke="rgb(0,0,255)" stroke-width="1.874998" fill="none" d="M 0.000000 750.000000 L 231.818192 0.000000 " />
<path stroke-linejoin="round" stroke-linecap="round" stroke="rgb(255,0,0)" stroke-width="3.749996" fill="none" d="M 68.726601 527.649231 L 71.036720 536.889832 " />
<path stroke-linejoin="round" stroke-linecap="round" stroke="rgb(0,0,255)" stroke-width="1.874998" fill="none" d="M 0.000000 750.000000 L 214.285721 0.000000 " />
<path stroke-linejoin="round" stroke-linecap="round" stroke="rgb(255,0,0)" stroke-width="3.749996" fill="none" d="M 66.300941 517.946655 L 68.726601 527.649231 " />
<path stroke-linejoin="round" stroke-linecap="round" stroke="rgb(0,0,255)" stroke-width="1.874998" fill="none" d="M 0.000000 750.000000 L 197.368423 0.000000 " />
<path stroke-linejoin="round" stroke-linecap="round" stroke="rgb(255,0,0)" stroke-width="3.749996" fill="none" d="M 63.750900 507.746552 L 66.300941 517.946655 " />
<path stroke-linejoin="round" stroke-linecap="round" stroke="rgb(0,0,255)" stroke-width="1.874998" fill="none" d="M 0.000000 750.000000 L 181.034485 0.000000 " />
<path stroke-linejoin="round" stroke-linecap="round" stroke="rgb(255,0,0)" stroke-width="3.749996" fill="none" d="M 61.066658 497.009583 L 63.750900 507.746552 " />
<path stroke-linejoin="round" stroke-linecap="round" stroke="rgb(0,0,255)" stroke-width="1.874998" fill="none" d="M 0.000000 750.000000 L 175.000015 0.000000 " />
<path stroke-linejoin="round" stroke-linecap="round" stroke="rgb(255,0,0)" stroke-width="3.749996" fill="none" d="M 60.013779 492.798065 L 61.066658 497.009583 " />
<path stroke-linejoin="round" stroke-linecap="round" stroke="rgb(0,0,255)" stroke-width="1.874998" fill="none" d="M 0.000000 750.000000 L 159.836075 0.000000 " />
<path stroke-linejoin="round" stroke-linecap="round" stroke="rgb(255,0,0)" stroke-width="3.749996" fill="none" d="M 57.206577 481.569183 L 60.013779 492.798065 " />
<path stroke-linejoin="round" stroke-linecap="round" stroke="rgb(0,0,255)" stroke-width="1.874998" fill="none" d="M 0.000000 750.000000 L 145.161285 0.000000 " />
<path stroke-linejoin="round" stroke-linecap="round" stroke="rgb(255,0,0)" stroke-width="3.749996" fill="none" d="M 54.246223 469.727844 L 57.206577 481.569183 " />
<path stroke-linejoin="round" stroke-linecap="round" stroke="rgb(0,0,255)" stroke-width="1.874998" fill="none" d="M 0.000000 750.000000 L 140.625000 0.000000 " />
<path stroke-linejoin="round" stroke-linecap="round" stroke="rgb(255,0,0)" stroke-width="3.749996" fill="none" d="M 53.277546 465.853119 L 54.246223 469.727844 " />
<path stroke-linejoin="round" stroke-linecap="round" stroke="rgb(0,0,255)" stroke-width="1.874998" fill="none" d="M 0.000000 750.000000 L 126.923073 0.000000 " />
<path stroke-linejoin="round" stroke-linecap="round" stroke="rgb(255,0,0)" stroke-width="3.749996" fill="none" d="M 50.181896 453.470581 L 53.277546 465.853119 " />
<path stroke-linejoin="round" stroke-linecap="round" stroke="rgb(0,0,255)" stroke-width="1.874998" fill="none" d="M 0.000000 750.000000 L 123.134315 0.000000 " />
<path stroke-linejoin="round" stroke-linecap="round" stroke="rgb(255,0,0)" stroke-width="3.749996" fill="none" d="M 49.277721 449.853882 L 50.181896 453.470581 " />
<path stroke-linejoin="round" stroke-linecap="round" stroke="rgb(0,0,255)" stroke-width="1.874998" fill="none" d="M 0.000000 750.000000 L 110.294113 0.000000 " />
<path stroke-linejoin="round" stroke-linecap="round" stroke="rgb(255,0,0)" stroke-width="3.749996" fill="none" d="M 46.042332 436.912231 L 49.277721 449.853882 " />
<path stroke-linejoin="round" stroke-linecap="round" stroke="rgb(0,0,255)" stroke-width="1.874998" fill="none" d="M 0.000000 750.000000 L 107.142853 0.000000 " />
<path stroke-linejoin="round" stroke-linecap="round" stroke="rgb(255,0,0)" stroke-width="3.749996" fill="none" d="M 45.205193 433.563660 L 46.042332 436.912231 " />
<path stroke-linejoin="round" stroke-linecap="round" stroke="rgb(0,0,255)" stroke-width="1.874998" fill="none" d="M 0.000000 750.000000 L 86.538460 0.000000 " />
<path stroke-linejoin="round" stroke-linecap="round" stroke="rgb(255,0,0)" stroke-width="3.749996" fill="none" d="M 41.169003 393.201904 L 45.205193 433.563660 " />
<path stroke-linejoin="round" stroke-linecap="round" stroke="rgb(0,0,255)" stroke-width="1.874998" fill="none" d="M 0.000000 750.000000 L 68.181824 0.000000 " />
<path stroke-linejoin="round" stroke-linecap="round" stroke="rgb(255,0,0)" stroke-width="3.749996" fill="none" d="M 36.594673 347.458588 L 41.169003 393.201904 " />
<path stroke-linejoin="round" stroke-linecap="round" stroke="rgb(0,0,255)" stroke-width="1.874998" fill="none" d="M 0.000000 750.000000 L 65.934059 0.000000 " />
<path stroke-linejoin="round" stroke-linecap="round" stroke="rgb(255,0,0)" stroke-width="3.749996" fill="none" d="M 35.702126 343.888367 L 36.594673 347.458588 " />
<path stroke-linejoin="round" stroke-linecap="round" stroke="rgb(0,0,255)" stroke-width="1.874998" fill="none" d="M 0.000000 750.000000 L 63.829781 0.000000 " />
<path stroke-linejoin="round" stroke-linecap="round" stroke="rgb(255,0,0)" stroke-width="3.749996" fill="none" d="M 35.086555 337.732849 L 35.702126 343.888367 " />
<path stroke-linejoin="round" stroke-linecap="round" stroke="rgb(0,0,255)" stroke-width="1.874998" fill="none" d="M 0.000000 750.000000 L 50.480782 0.000000 " />
<path stroke-linejoin="round" stroke-linecap="round" stroke="rgb(255,0,0)" stroke-width="3.749996" fill="none" d="M 30.700743 293.874634 L 35.086555 337.732849 " />
<path stroke-linejoin="round" stroke-linecap="round" stroke="rgb(0,0,255)" stroke-width="1.874998" fill="none" d="M 0.000000 750.000000 L 42.857140 0.000000 " />
<path stroke-linejoin="round" stroke-linecap="round" stroke="rgb(255,0,0)" stroke-width="3.749996" fill="none" d="M 26.926897 278.779297 L 30.700743 293.874664 " />
<path stroke-linejoin="round" stroke-linecap="round" stroke="rgb(0,0,255)" stroke-width="1.874998" fill="none" d="M 0.000000 750.000000 L 42.056076 0.000000 " />
<path stroke-linejoin="round" stroke-linecap="round" stroke="rgb(255,0,0)" stroke-width="3.749996" fill="none" d="M 26.515804 277.134857 L 26.926897 278.779297 " />
<path stroke-linejoin="round" stroke-linecap="round" stroke="rgb(0,0,255)" stroke-width="1.874998" fill="none" d="M 0.000000 750.000000 L 38.265308 0.000000 " />
<path stroke-linejoin="round" stroke-linecap="round" stroke="rgb(255,0,0)" stroke-width="3.749996" fill="none" d="M 24.530857 269.195160 L 26.515804 277.134857 " />
<path stroke-linejoin="round" stroke-linecap="round" stroke="rgb(0,0,255)" stroke-width="1.874998" fill="none" d="M 0.000000 750.000000 L 30.303040 0.000000 " />
<path stroke-linejoin="round" stroke-linecap="round" stroke="rgb(255,0,0)" stroke-width="3.749996" fill="none" d="M 20.285168 247.942169 L 24.530857 269.195160 " />
<path stroke-linejoin="round" stroke-linecap="round" stroke="rgb(0,0,255)" stroke-width="1.874998" fill="none" d="M 0.000000 750.000000 L 29.702961 0.000000 " />
<path stroke-linejoin="round" stroke-linecap="round" stroke="rgb(255,0,0)" stroke-width="3.749996" fill="none" d="M 19.938402 246.555130 L 20.285168 247.942169 " />
<path stroke-linejoin="round" stroke-linecap="round" stroke="rgb(0,0,255)" stroke-width="1.874998" fill="none" d="M 0.000000 750.000000 L 28.571426 0.000000 " />
<path stroke-linejoin="round" stroke-linecap="round" stroke="rgb(255,0,0)" stroke-width="3.749996" fill="none" d="M 19.279293 243.918701 L 19.938402 246.555130 " />
<path stroke-linejoin="round" stroke-linecap="round" stroke="rgb(0,0,255)" stroke-width="1.874998" fill="none" d="M 0.000000 750.000000 L 28.037376 0.000000 " />
<path stroke-linejoin="round" stroke-linecap="round" stroke="rgb(255,0,0)" stroke-width="3.749996" fill="none" d="M 18.965811 242.664764 L 19.279293 243.918747 " />
<path stroke-linejoin="round" stroke-linecap="round" stroke="rgb(0,0,255)" stroke-width="1.874998" fill="none" d="M 0.000000 750.000000 L 26.785725 0.000000 " />
<path stroke-linejoin="round" stroke-linecap="round" stroke="rgb(255,0,0)" stroke-width="3.749996" fill="none" d="M 18.319220 237.062057 L 18.965811 242.664764 " />
<path stroke-linejoin="round" stroke-linecap="round" stroke="rgb(0,0,255)" stroke-width="1.874998" fill="none" d="M 0.000000 750.000000 L 25.423721 0.000000 " />
<path stroke-linejoin="round" stroke-linecap="round" stroke="rgb(255,0,0)" stroke-width="3.749996" fill="none" d="M 17.653652 229.217453 L 18.319220 237.062057 " />
<path stroke-linejoin="round" stroke-linecap="round" stroke="rgb(0,0,255)" stroke-width="1.874998" fill="none" d="M 0.000000 750.000000 L 24.193548 0.000000 " />
<path stroke-linejoin="round" stroke-linecap="round" stroke="rgb(255,0,0)" stroke-width="3.749996" fill="none" d="M 17.050243 221.442612 L 17.653652 229.217453 " />
<path stroke-linejoin="round" stroke-linecap="round" stroke="rgb(0,0,255)" stroke-width="1.874998" fill="none" d="M 0.000000 750.000000 L 22.900768 0.000000 " />
<path stroke-linejoin="round" stroke-linecap="round" stroke="rgb(255,0,0)" stroke-width="3.749996" fill="none" d="M 16.396902 213.001465 L 17.050243 221.442551 " />
<path stroke-linejoin="round" stroke-linecap="round" stroke="rgb(0,0,255)" stroke-width="1.874998" fill="none" d="M 0.000000 750.000000 L 22.388063 0.000000 " />
<path stroke-linejoin="round" stroke-linecap="round" stroke="rgb(255,0,0)" stroke-width="3.749996" fill="none" d="M 16.131588 209.591660 L 16.396902 213.001465 " />
<path stroke-linejoin="round" stroke-linecap="round" stroke="rgb(0,0,255)" stroke-width="1.874998" fill="none" d="M 0.000000 750.000000 L 16.304344 0.000000 " />
<path stroke-linejoin="round" stroke-linecap="round" stroke="rgb(255,0,0)" stroke-width="3.749996" fill="none" d="M 12.713380 165.184586 L 16.131588 209.591660 " />
<path stroke-linejoin="round" stroke-linecap="round" stroke="rgb(0,0,255)" stroke-width="1.874998" fill="none" d="M 0.000000 750.000000 L 10.135129 0.000000 " />
<path stroke-linejoin="round" stroke-linecap="round" stroke="rgb(255,0,0)" stroke-width="3.749996" fill="none" d="M 8.621469 112.012070 L 12.713380 165.184586 " />
<path stroke-linejoin="round" stroke-linecap="round" stroke="rgb(0,0,255)" stroke-width="1.874998" fill="none" d="M 0.000000 750.000000 L 4.746840 0.000000 " />
<path stroke-linejoin="round" stroke-linecap="round" stroke="rgb(255,0,0)" stroke-width="3.749996" fill="none" d="M 4.386261 56.971191 L 8.621469 112.012070 " />
<path stroke-linejoin="round" stroke-linecap="round" stroke="rgb(0,0,255)" stroke-width="1.874998" fill="none" d="M 0.000000 750.000000 L 0.000000 0.000000 " />
<path stroke-linejoin="round" stroke-linecap="round" stroke="rgb(255,0,0)" stroke-width="3.749996" fill="none" d="M 0.000000 0.000000 L 4.386261 56.971191 " />
<circle cx="106.946982" cy="747.453645" r="3.749996" style="fill:rgb(0,127,0);stroke-width:1" /><circle cx="106.287383" cy="744.815245" r="3.749996" style="fill:rgb(0,127,0);stroke-width:1" /><circle cx="105.603509" cy="742.079727" r="3.749996" style="fill:rgb(0,127,0);stroke-width:1" /><circle cx="104.893997" cy="739.241637" r="3.749996" style="fill:rgb(0,127,0);stroke-width:1" /><circle cx="104.323469" cy="736.959569" r="3.749996" style="fill:rgb(0,127,0);stroke-width:1" /><circle cx="104.157351" cy="736.295074" r="3.749996" style="fill:rgb(0,127,0);stroke-width:1" /><circle cx="103.392005" cy="733.233735" r="3.749996" style="fill:rgb(0,127,0);stroke-width:1" /><circle cx="102.847181" cy="731.054462" r="3.749996" style="fill:rgb(0,127,0);stroke-width:1" /><circle cx="102.596238" cy="730.050735" r="3.749996" style="fill:rgb(0,127,0);stroke-width:1" /><circle cx="101.768218" cy="726.738699" r="3.749996" style="fill:rgb(0,127,0);stroke-width:1" /><circle cx="101.255111" cy="724.686228" r="3.749996" style="fill:rgb(0,127,0);stroke-width:1" /><circle cx="100.905955" cy="723.289602" r="3.749996" style="fill:rgb(0,127,0);stroke-width:1" /><circle cx="100.411333" cy="721.311048" r="3.749996" style="fill:rgb(0,127,0);stroke-width:1" /><circle cx="100.007258" cy="719.694771" r="3.749996" style="fill:rgb(0,127,0);stroke-width:1" /><circle cx="99.069759" cy="715.944774" r="3.749996" style="fill:rgb(0,127,0);stroke-width:1" /><circle cx="98.618254" cy="714.138821" r="3.749996" style="fill:rgb(0,127,0);stroke-width:1" /><circle cx="97.664505" cy="710.323803" r="3.749996" style="fill:rgb(0,127,0);stroke-width:1" /><circle cx="96.669272" cy="706.342913" r="3.749996" style="fill:rgb(0,127,0);stroke-width:1" /><circle cx="95.629804" cy="702.185087" r="3.749996" style="fill:rgb(0,127,0);stroke-width:1" /><circle cx="95.288269" cy="700.818971" r="3.749996" style="fill:rgb(0,127,0);stroke-width:1" /><circle cx="94.233759" cy="696.600884" r="3.749996" style="fill:rgb(0,127,0);stroke-width:1" /><circle cx="93.132019" cy="692.193925" r="3.749996" style="fill:rgb(0,127,0);stroke-width:1" /><circle cx="92.877880" cy="691.177346" r="3.749996" style="fill:rgb(0,127,0);stroke-width:1" /><circle cx="91.979809" cy="687.585130" r="3.749996" style="fill:rgb(0,127,0);stroke-width:1" /><circle cx="91.762416" cy="686.715581" r="3.749996" style="fill:rgb(0,127,0);stroke-width:1" /><circle cx="90.773597" cy="682.760306" r="3.749996" style="fill:rgb(0,127,0);stroke-width:1" /><circle cx="89.509495" cy="677.703872" r="3.749996" style="fill:rgb(0,127,0);stroke-width:1" /><circle cx="86.775944" cy="650.368363" r="3.749996" style="fill:rgb(0,127,0);stroke-width:1" /><circle cx="83.562009" cy="618.229128" r="3.749996" style="fill:rgb(0,127,0);stroke-width:1" /><circle cx="80.348097" cy="586.089894" r="3.749996" style="fill:rgb(0,127,0);stroke-width:1" /><circle cx="78.355663" cy="566.165552" r="3.749996" style="fill:rgb(0,127,0);stroke-width:1" /><circle cx="77.696420" cy="563.528582" r="3.749996" style="fill:rgb(0,127,0);stroke-width:1" /><circle cx="75.583085" cy="555.075210" r="3.749996" style="fill:rgb(0,127,0);stroke-width:1" /><circle cx="73.365815" cy="546.206106" r="3.749996" style="fill:rgb(0,127,0);stroke-width:1" /><circle cx="72.182491" cy="541.472822" r="3.749996" style="fill:rgb(0,127,0);stroke-width:1" /><circle cx="71.036719" cy="536.889810" r="3.749996" style="fill:rgb(0,127,0);stroke-width:1" /><circle cx="68.726599" cy="527.649265" r="3.749996" style="fill:rgb(0,127,0);stroke-width:1" /><circle cx="66.300943" cy="517.946664" r="3.749996" style="fill:rgb(0,127,0);stroke-width:1" /><circle cx="63.750900" cy="507.746536" r="3.749996" style="fill:rgb(0,127,0);stroke-width:1" /><circle cx="61.066657" cy="497.009553" r="3.749996" style="fill:rgb(0,127,0);stroke-width:1" /><circle cx="60.013779" cy="492.798049" r="3.749996" style="fill:rgb(0,127,0);stroke-width:1" /><circle cx="57.206579" cy="481.569193" r="3.749996" style="fill:rgb(0,127,0);stroke-width:1" /><circle cx="54.246224" cy="469.727833" r="3.749996" style="fill:rgb(0,127,0);stroke-width:1" /><circle cx="53.277545" cy="465.853114" r="3.749996" style="fill:rgb(0,127,0);stroke-width:1" /><circle cx="50.181895" cy="453.470578" r="3.749996" style="fill:rgb(0,127,0);stroke-width:1" /><circle cx="49.277723" cy="449.853865" r="3.749996" style="fill:rgb(0,127,0);stroke-width:1" /><circle cx="46.042331" cy="436.912207" r="3.749996" style="fill:rgb(0,127,0);stroke-width:1" /><circle cx="45.205191" cy="433.563659" r="3.749996" style="fill:rgb(0,127,0);stroke-width:1" /><circle cx="41.169003" cy="393.201905" r="3.749996" style="fill:rgb(0,127,0);stroke-width:1" /><circle cx="36.594674" cy="347.458592" r="3.749996" style="fill:rgb(0,127,0);stroke-width:1" /><circle cx="35.702124" cy="343.888368" r="3.749996" style="fill:rgb(0,127,0);stroke-width:1" /><circle cx="35.086557" cy="337.732852" r="3.749996" style="fill:rgb(0,127,0);stroke-width:1" /><circle cx="30.700743" cy="293.874621" r="3.749996" style="fill:rgb(0,127,0);stroke-width:1" /><circle cx="26.926897" cy="278.779306" r="3.749996" style="fill:rgb(0,127,0);stroke-width:1" /><circle cx="26.515804" cy="277.134877" r="3.749996" style="fill:rgb(0,127,0);stroke-width:1" /><circle cx="24.530858" cy="269.195180" r="3.749996" style="fill:rgb(0,127,0);stroke-width:1" /><circle cx="20.285167" cy="247.942172" r="3.749996" style="fill:rgb(0,127,0);stroke-width:1" /><circle cx="19.938402" cy="246.555146" r="3.749996" style="fill:rgb(0,127,0);stroke-width:1" /><circle cx="19.279294" cy="243.918713" r="3.749996" style="fill:rgb(0,127,0);stroke-width:1" /><circle cx="18.965811" cy="242.664758" r="3.749996" style="fill:rgb(0,127,0);stroke-width:1" /><circle cx="18.319219" cy="237.062059" r="3.749996" style="fill:rgb(0,127,0);stroke-width:1" /><circle cx="17.653652" cy="229.217447" r="3.749996" style="fill:rgb(0,127,0);stroke-width:1" /><circle cx="17.050244" cy="221.442617" r="3.749996" style="fill:rgb(0,127,0);stroke-width:1" /><circle cx="16.396903" cy="213.001471" r="3.749996" style="fill:rgb(0,127,0);stroke-width:1" /><circle cx="16.131587" cy="209.591646" r="3.749996" style="fill:rgb(0,127,0);stroke-width:1" /><circle cx="12.713380" cy="165.184580" r="3.749996" style="fill:rgb(0,127,0);stroke-width:1" /><circle cx="8.621469" cy="112.012066" r="3.749996" style="fill:rgb(0,127,0);stroke-width:1" /><circle cx="4.386261" cy="56.971192" r="3.749996" style="fill:rgb(0,127,0);stroke-width:1" /><circle cx="750.000000" cy="750.000000" r="3.749996" style="fill:rgb(0,127,0);stroke-width:1" /><path stroke-linejoin="round" stroke-linecap="round" stroke="rgb(255,255,255)" stroke-width="3.749996" fill="none" d="M 0.000000 750.000000 L 750.000000 750.000000 M 0.000000 750.000000 L 0.000000 0.000000 " />

</svg>