<svg xmlns="http://www.w3.org/2000/svg" version="1.1" width = "750" height = "750" viewBox = "0 0 750 750"  shape-rendering="crispEdges">
<path stroke-linejoin="round" stroke-linecap="round" stroke="rgb(255,255,0)" stroke-width="3.749996" fill="none" d="M 83.333328 750.000000 L 0.000000 0.000000 " />
<path stroke-linejoin="round" stroke-linecap="round" stroke="rgb(63,63,63)" stroke-width="3.749996" fill="none" d="M 0.000000 0.000000 L 750.000000 750.000000 M 83.333328 750.000000 L 39.215683 0.000000 " />
<path stroke-linejoin="round" stroke-linecap="round" stroke="rgb(191,191,191)" stroke-width="3.749996" fill="none" d="M 0.000000 666.666687 L 83.333328 750.000000 M 0.000000 0.000000 L 44.117645 750.000000 " />
<path stroke-linejoin="round" stroke-linecap="round" stroke="rgb(0,0,255)" stroke-width="1.874998" fill="none" d="M 0.000000 750.000000 L 750.000000 727.272766 " />
<path stroke-linejoin="round" stroke-linecap="round" stroke="rgb(255,0,0)" stroke-width="3.749996" fill="none" d="M 83.185043 747.479248 L 83.333328 750.000000 " />
<path stroke-linejoin="round" stroke-linecap="round" stroke="rgb(0,0,255)" stroke-width="1.874998" fill="none" d="M 0.000000 750.000000 L 750.000000 703.125000 " />
<path stroke-linejoin="round" stroke-linecap="round" stroke="rgb(255,0,0)" stroke-width="3.749996" fill="none" d="M 82.656006 744.833984 L 83.185043 747.479248 " />
<path stroke-linejoin="round" stroke-linecap="round" stroke="rgb(0,0,255)" stroke-width="1.874998" fill="none" d="M 0.000000 750.000000 L 750.000000 677.419312 " />
<path stroke-linejoin="round" stroke-linecap="round" stroke="rgb(255,0,0)" stroke-width="3.749996" fill="none" d="M 82.100182 742.054871 L 82.656006 744.833984 " />
<path stroke-linejoin="round" stroke-linecap="round" stroke="rgb(0,0,255)" stroke-width="1.874998" fill="none" d="M 0.000000 750.000000 L 750.000000 650.000000 " />
<path stroke-linejoin="round" stroke-linecap="round" stroke="rgb(255,0,0)" stroke-width="3.749996" fill="none" d="M 81.515465 739.131226 L 82.100182 742.054871 " />
<path stroke-linejoin="round" stroke-linecap="round" stroke="rgb(0,0,255)" stroke-width="1.874998" fill="none" d="M 0.000000 750.000000 L 750.000000 629.032288 " />
<path stroke-linejoin="round" stroke-linecap="round" stroke="rgb(255,0,0)" stroke-width="3.749996" fill="none" d="M 81.073921 736.923584 L 81.515480 739.131226 " />
<path stroke-linejoin="round" stroke-linecap="round" stroke="rgb(0,0,255)" stroke-width="1.874998" fill="none" d="M 0.000000 750.000000 L 750.000000 600.000000 " />
<path stroke-linejoin="round" stroke-linecap="round" stroke="rgb(255,0,0)" stroke-width="3.749996" fill="none" d="M 80.470406 733.905945 L 81.073921 736.923584 " />
<path stroke-linejoin="round" stroke-linecap="round" stroke="rgb(0,0,255)" stroke-width="1.874998" fill="none" d="M 0.000000 750.000000 L 750.000000 580.645142 " />
<path stroke-linejoin="round" stroke-linecap="round" stroke="rgb(255,0,0)" stroke-width="3.749996" fill="none" d="M 80.073013 731.919006 L 80.470406 733.905945 " />
<path stroke-linejoin="round" stroke-linecap="round" stroke="rgb(0,0,255)" stroke-width="1.874998" fill="none" d="M 0.000000 750.000000 L 750.000000 550.000000 " />
<path stroke-linejoin="round" stroke-linecap="round" stroke="rgb(255,0,0)" stroke-width="3.749996" fill="none" d="M 79.451790 728.812866 L 80.073013 731.919006 " />
<path stroke-linejoin="round" stroke-linecap="round" stroke="rgb(0,0,255)" stroke-width="1.874998" fill="none" d="M 0.000000 750.000000 L 750.000000 517.241394 " />
<path stroke-linejoin="round" stroke-linecap="round" stroke="rgb(255,0,0)" stroke-width="3.749996" fill="none" d="M 78.798294 725.545349 L 79.451767 728.812866 " />
<path stroke-linejoin="round" stroke-linecap="round" stroke="rgb(0,0,255)" stroke-width="1.874998" fill="none" d="M 0.000000 750.000000 L 750.000000 482.142853 " />
<path stroke-linejoin="round" stroke-linecap="round" stroke="rgb(255,0,0)" stroke-width="3.749996" fill="none" d="M 78.109947 722.103577 L 78.798294 725.545349 " />
<path stroke-linejoin="round" stroke-linecap="round" stroke="rgb(0,0,255)" stroke-width="1.874998" fill="none" d="M 0.000000 750.000000 L 750.000000 465.517212 " />
<path stroke-linejoin="round" stroke-linecap="round" stroke="rgb(255,0,0)" stroke-width="3.749996" fill="none" d="M 77.788063 720.494202 L 78.109947 722.103577 " />
<path stroke-linejoin="round" stroke-linecap="round" stroke="rgb(0,0,255)" stroke-width="1.874998" fill="none" d="M 0.000000 750.000000 L 750.000000 428.571411 " />
<path stroke-linejoin="round" stroke-linecap="round" stroke="rgb(255,0,0)" stroke-width="3.749996" fill="none" d="M 77.082169 716.964722 L 77.788063 720.494202 " />
<path stroke-linejoin="round" stroke-linecap="round" stroke="rgb(0,0,255)" stroke-width="1.874998" fill="none" d="M 0.000000 750.000000 L 750.000000 388.888885 " />
<path stroke-linejoin="round" stroke-linecap="round" stroke="rgb(255,0,0)" stroke-width="3.749996" fill="none" d="M 76.338150 713.244629 L 77.082169 716.964722 " />
<path stroke-linejoin="round" stroke-linecap="round" stroke="rgb(0,0,255)" stroke-width="1.874998" fill="none" d="M 0.000000 750.000000 L 750.000000 346.153839 " />
<path stroke-linejoin="round" stroke-linecap="round" stroke="rgb(255,0,0)" stroke-width="3.749996" fill="none" d="M 75.552780 709.317749 L 76.338127 713.244629 " />
<path stroke-linejoin="round" stroke-linecap="round" stroke="rgb(0,0,255)" stroke-width="1.874998" fill="none" d="M 0.000000 750.000000 L 750.000000 299.999969 " />
<path stroke-linejoin="round" stroke-linecap="round" stroke="rgb(255,0,0)" stroke-width="3.749996" fill="none" d="M 74.722519 705.166504 L 75.552780 709.317749 " />
<path stroke-linejoin="round" stroke-linecap="round" stroke="rgb(0,0,255)" stroke-width="1.874998" fill="none" d="M 0.000000 750.000000 L 750.000000 288.461517 " />
<path stroke-linejoin="round" stroke-linecap="round" stroke="rgb(255,0,0)" stroke-width="3.749996" fill="none" d="M 74.517799 704.142883 L 74.722519 705.166504 " />
<path stroke-linejoin="round" stroke-linecap="round" stroke="rgb(0,0,255)" stroke-width="1.874998" fill="none" d="M 0.000000 750.000000 L 750.000000 249.999985 " />
<path stroke-linejoin="round" stroke-linecap="round" stroke="rgb(255,0,0)" stroke-width="3.749996" fill="none" d="M 73.843430 700.771057 L 74.517799 704.142883 " />
<path stroke-linejoin="round" stroke-linecap="round" stroke="rgb(0,0,255)" stroke-width="1.874998" fill="none" d="M 0.000000 750.000000 L 750.000000 240.000000 " />
<path stroke-linejoin="round" stroke-linecap="round" stroke="rgb(255,0,0)" stroke-width="3.749996" fill="none" d="M 73.670090 699.904358 L 73.843452 700.771057 " />
<path stroke-linejoin="round" stroke-linecap="round" stroke="rgb(0,0,255)" stroke-width="1.874998" fill="none" d="M 0.000000 750.000000 L 750.000000 187.500000 " />
<path stroke-linejoin="round" stroke-linecap="round" stroke="rgb(255,0,0)" stroke-width="3.749996" fill="none" d="M 72.773247 695.420105 L 73.670090 699.904358 " />
<path stroke-linejoin="round" stroke-linecap="round" stroke="rgb(0,0,255)" stroke-width="1.874998" fill="none" d="M 0.000000 750.000000 L 750.000000 180.000000 " />
<path stroke-linejoin="round" stroke-linecap="round" stroke="rgb(255,0,0)" stroke-width="3.749996" fill="none" d="M 72.646896 694.788330 L 72.773247 695.420105 " />
<path stroke-linejoin="round" stroke-linecap="round" stroke="rgb(0,0,255)" stroke-width="1.874998" fill="none" d="M 0.000000 750.000000 L 750.000000 130.434799 " />
<path stroke-linejoin="round" stroke-linecap="round" stroke="rgb(255,0,0)" stroke-width="3.749996" fill="none" d="M 71.822830 690.668091 L 72.646896 694.788330 " />
<path stroke-linejoin="round" stroke-linecap="round" stroke="rgb(0,0,255)" stroke-width="1.874998" fill="none" d="M 0.000000 750.000000 L 750.000000 68.181801 " />
<path stroke-linejoin="round" stroke-linecap="round" stroke="rgb(255,0,0)" stroke-width="3.749996" fill="none" d="M 70.813965 685.623657 L 71.822830 690.668091 " />
<path stroke-linejoin="round" stroke-linecap="round" stroke="rgb(0,0,255)" stroke-width="1.874998" fill="none" d="M 0.000000 750.000000 L 750.000000 0.000000 " />
<path stroke-linejoin="round" stroke-linecap="round" stroke="rgb(255,0,0)" stroke-width="3.749996" fill="none" d="M 69.741013 680.258972 L 70.813965 685.623657 " />
<path stroke-linejoin="round" stroke-linecap="round" stroke="rgb(0,0,255)" stroke-width="1.874998" fill="none" d="M 0.000000 750.000000 L 681.818176 0.000000 " />
<path stroke-linejoin="round" stroke-linecap="round" stroke="rgb(255,0,0)" stroke-width="3.749996" fill="none" d="M 68.597717 674.542480 L 69.741013 680.258972 " />
<path stroke-linejoin="round" stroke-linecap="round" stroke="rgb(0,0,255)" stroke-width="1.874998" fill="none" d="M 0.000000 750.000000 L 625.000000 0.000000 " />
<path stroke-linejoin="round" stroke-linecap="round" stroke="rgb(255,0,0)" stroke-width="3.749996" fill="none" d="M 67.491310 669.010437 L 68.597717 674.542480 " />
<path stroke-linejoin="round" stroke-linecap="round" stroke="rgb(0,0,255)" stroke-width="1.874998" fill="none" d="M 0.000000 750.000000 L 570.000000 0.000000 " />
<path stroke-linejoin="round" stroke-linecap="round" stroke="rgb(255,0,0)" stroke-width="3.749996" fill="none" d="M 66.253960 662.823730 L 67.491310 669.010437 " />
<path stroke-linejoin="round" stroke-linecap="round" stroke="rgb(0,0,255)" stroke-width="1.874998" fill="none" d="M 0.000000 750.000000 L 385.714294 0.000000 " />
<path stroke-linejoin="round" stroke-linecap="round" stroke="rgb(255,0,0)" stroke-width="3.749996" fill="none" d="M 63.466923 626.592102 L 66.253960 662.823730 " />
<path stroke-linejoin="round" stroke-linecap="round" stroke="rgb(0,0,255)" stroke-width="1.874998" fill="none" d="M 0.000000 750.000000 L 283.333344 0.000000 " />
<path stroke-linejoin="round" stroke-linecap="round" stroke="rgb(255,0,0)" stroke-width="3.749996" fill="none" d="M 60.617008 589.543213 L 63.466923 626.592102 " />
<path stroke-linejoin="round" stroke-linecap="round" stroke="rgb(0,0,255)" stroke-width="1.874998" fill="none" d="M 0.000000 750.000000 L 245.454529 0.000000 " />
<path stroke-linejoin="round" stroke-linecap="round" stroke="rgb(255,0,0)" stroke-width="3.749996" fill="none" d="M 59.074738 569.493835 L 60.616985 589.543274 " />
<path stroke-linejoin="round" stroke-linecap="round" stroke="rgb(0,0,255)" stroke-width="1.874998" fill="none" d="M 0.000000 750.000000 L 196.153839 0.000000 " />
<path stroke-linejoin="round" stroke-linecap="round" stroke="rgb(255,0,0)" stroke-width="3.749996" fill="none" d="M 56.378044 534.436890 L 59.074738 569.493835 " />
<path stroke-linejoin="round" stroke-linecap="round" stroke="rgb(0,0,255)" stroke-width="1.874998" fill="none" d="M 0.000000 750.000000 L 163.043488 0.000000 " />
<path stroke-linejoin="round" stroke-linecap="round" stroke="rgb(255,0,0)" stroke-width="3.749996" fill="none" d="M 53.890766 502.102417 L 56.378044 534.436890 " />
<path stroke-linejoin="round" stroke-linecap="round" stroke="rgb(0,0,255)" stroke-width="1.874998" fill="none" d="M 0.000000 750.000000 L 151.898727 0.000000 " />
<path stroke-linejoin="round" stroke-linecap="round" stroke="rgb(255,0,0)" stroke-width="3.749996" fill="none" d="M 52.876801 488.920807 L 53.890766 502.102417 " />
<path stroke-linejoin="round" stroke-linecap="round" stroke="rgb(0,0,255)" stroke-width="1.874998" fill="none" d="M 0.000000 750.000000 L 126.404510 0.000000 " />
<path stroke-linejoin="round" stroke-linecap="round" stroke="rgb(255,0,0)" stroke-width="3.749996" fill="none" d="M 50.095638 452.765808 L 52.876801 488.920837 " />
<path stroke-linejoin="round" stroke-linecap="round" stroke="rgb(0,0,255)" stroke-width="1.874998" fill="none" d="M 0.000000 750.000000 L 112.500008 0.000000 " />
<path stroke-linejoin="round" stroke-linecap="round" stroke="rgb(255,0,0)" stroke-width="3.749996" fill="none" d="M 48.227661 428.482208 L 50.095638 452.765869 " />
<path stroke-linejoin="round" stroke-linecap="round" stroke="rgb(0,0,255)" stroke-width="1.874998" fill="none" d="M 0.000000 750.000000 L 101.941734 0.000000 " />
<path stroke-linejoin="round" stroke-linecap="round" stroke="rgb(255,0,0)" stroke-width="3.749996" fill="none" d="M 46.591869 407.217010 L 48.227661 428.482208 " />
<path stroke-linejoin="round" stroke-linecap="round" stroke="rgb(0,0,255)" stroke-width="1.874998" fill="none" d="M 0.000000 750.000000 L 86.283180 0.000000 " />
<path stroke-linejoin="round" stroke-linecap="round" stroke="rgb(255,0,0)" stroke-width="3.749996" fill="none" d="M 43.724121 369.936432 L 46.591869 407.217010 " />
<path stroke-linejoin="round" stroke-linecap="round" stroke="rgb(0,0,255)" stroke-width="1.874998" fill="none" d="M 0.000000 750.000000 L 85.365860 0.000000 " />
<path stroke-linejoin="round" stroke-linecap="round" stroke="rgb(255,0,0)" stroke-width="3.749996" fill="none" d="M 43.536655 367.499329 L 43.724121 369.936432 " />
<path stroke-linejoin="round" stroke-linecap="round" stroke="rgb(0,0,255)" stroke-width="1.874998" fill="none" d="M 0.000000 750.000000 L 73.308258 0.000000 " />
<path stroke-linejoin="round" stroke-linecap="round" stroke="rgb(255,0,0)" stroke-width="3.749996" fill="none" d="M 40.828495 332.293152 L 43.536655 367.499329 " />
<path stroke-linejoin="round" stroke-linecap="round" stroke="rgb(0,0,255)" stroke-width="1.874998" fill="none" d="M 0.000000 750.000000 L 65.217400 0.000000 " />
<path stroke-linejoin="round" stroke-linecap="round" stroke="rgb(255,0,0)" stroke-width="3.749996" fill="none" d="M 38.713352 304.796417 L 40.828495 332.293152 " />
<path stroke-linejoin="round" stroke-linecap="round" stroke="rgb(0,0,255)" stroke-width="1.874998" fill="none" d="M 0.000000 750.000000 L 55.743233 0.000000 " />
<path stroke-linejoin="round" stroke-linecap="round" stroke="rgb(255,0,0)" stroke-width="3.749996" fill="none" d="M 35.853088 267.612976 L 38.713352 304.796417 " />
<path stroke-linejoin="round" stroke-linecap="round" stroke="rgb(0,0,255)" stroke-width="1.874998" fill="none" d="M 0.000000 750.000000 L 50.335564 0.000000 " />
<path stroke-linejoin="round" stroke-linecap="round" stroke="rgb(255,0,0)" stroke-width="3.749996" fill="none" d="M 33.995590 243.465591 L 35.853088 267.612976 " />
<path stroke-linejoin="round" stroke-linecap="round" stroke="rgb(0,0,255)" stroke-width="1.874998" fill="none" d="M 0.000000 750.000000 L 44.378689 0.000000 " />
<path stroke-linejoin="round" stroke-linecap="round" stroke="rgb(255,0,0)" stroke-width="3.749996" fill="none" d="M 31.721636 213.904175 L 33.995590 243.465591 " />
<path stroke-linejoin="round" stroke-linecap="round" stroke="rgb(0,0,255)" stroke-width="1.874998" fill="none" d="M 0.000000 750.000000 L 37.709488 0.000000 " />
<path stroke-linejoin="round" stroke-linecap="round" stroke="rgb(255,0,0)" stroke-width="3.749996" fill="none" d="M 28.838842 176.427643 L 31.721636 213.904175 " />
<path stroke-linejoin="round" stroke-linecap="round" stroke="rgb(0,0,255)" stroke-width="1.874998" fill="none" d="M 0.000000 750.000000 L 36.144577 0.000000 " />
<path stroke-linejoin="round" stroke-linecap="round" stroke="rgb(255,0,0)" stroke-width="3.749996" fill="none" d="M 28.103024 166.862213 L 28.838842 176.427643 " />
<path stroke-linejoin="round" stroke-linecap="round" stroke="rgb(0,0,255)" stroke-width="1.874998" fill="none" d="M 0.000000 750.000000 L 29.829540 0.000000 " />
<path stroke-linejoin="round" stroke-linecap="round" stroke="rgb(255,0,0)" stroke-width="3.749996" fill="none" d="M 24.866447 124.786621 L 28.103024 166.862213 " />
<path stroke-linejoin="round" stroke-linecap="round" stroke="rgb(0,0,255)" stroke-width="1.874998" fill="none" d="M 0.000000 750.000000 L 26.785725 0.000000 " />
<path stroke-linejoin="round" stroke-linecap="round" stroke="rgb(255,0,0)" stroke-width="3.749996" fill="none" d="M 23.133583 102.259506 L 24.866447 124.786621 " />
<path stroke-linejoin="round" stroke-linecap="round" stroke="rgb(0,0,255)" stroke-width="1.874998" fill="none" d="M 0.000000 750.000000 L 24.305552 0.000000 " />
<path stroke-linejoin="round" stroke-linecap="round" stroke="rgb(255,0,0)" stroke-width="3.749996" fill="none" d="M 21.626516 82.667511 L 23.133583 102.259506 " />
<path stroke-linejoin="round" stroke-linecap="round" stroke="rgb(0,0,255)" stroke-width="1.874998" fill="none" d="M 0.000000 750.000000 L 20.547956 0.000000 " />
<path stroke-linejoin="round" stroke-linecap="round" stroke="rgb(255,0,0)" stroke-width="3.749996" fill="none" d="M 19.161165 50.617844 L 21.626516 82.667511 " />
<path stroke-linejoin="round" stroke-linecap="round" stroke="rgb(0,0,255)" stroke-width="1.874998" fill="none" d="M 0.000000 750.000000 L 19.480526 0.000000 " />
<path stroke-linejoin="round" stroke-linecap="round" stroke="rgb(255,0,0)" stroke-width="3.749996" fill="none" d="M 18.417030 40.944256 L 19.161165 50.617844 " />
<path stroke-linejoin="round" stroke-linecap="round" stroke="rgb(0,0,255)" stroke-width="1.874998" fill="none" d="M 0.000000 750.000000 L 16.816154 0.000000 " />
<path stroke-linejoin="round" stroke-linecap="round" stroke="rgb(255,0,0)" stroke-width="3.749996" fill="none" d="M 16.343414 21.083593 L 18.417030 40.944344 " />
<path stroke-linejoin="round" stroke-linecap="round" stroke="rgb(0,0,255)" stroke-width="1.874998" fill="none" d="M 0.000000 750.000000 L 12.875542 0.000000 " />
<path stroke-linejoin="round" stroke-linecap="round" stroke="rgb(255,0,0)" stroke-width="3.749996" fill="none" d="M 12.638547 13.804592 L 16.343414 21.083593 " />
<path stroke-linejoin="round" stroke-linecap="round" stroke="rgb(0,0,255)" stroke-width="1.874998" fill="none" d="M 0.000000 750.000000 L 9.259254 0.000000 " />
<path stroke-linejoin="round" stroke-linecap="round" stroke="rgb(255,0,0)" stroke-width="3.749996" fill="none" d="M 9.142801 9.433418 L 12.638547 13.804592 " />
<path stroke-linejoin="round" stroke-linecap="round" stroke="rgb(0,0,255)" stroke-width="1.874998" fill="none" d="M 0.000000 750.000000 L 8.964144 0.000000 " />
<path stroke-linejoin="round" stroke-linecap="round" stroke="rgb(255,0,0)" stroke-width="3.749996" fill="none" d="M 8.857414 8.929409 L 9.142801 9.433418 " />
<path stroke-linejoin="round" stroke-linecap="round" stroke="rgb(0,0,255)" stroke-width="1.874998" fill="none" d="M 0.000000 750.000000 L 5.999990 0.000000 " />
<path stroke-linejoin="round" stroke-linecap="round" stroke="rgb(255,0,0)" stroke-width="3.749996" fill="none" d="M 5.952247 5.970240 L 8.857414 8.929409 " />
<path stroke-linejoin="round" stroke-linecap="round" stroke="rgb(0,0,255)" stroke-width="1.874998" fill="none" d="M 0.000000 750.000000 L 2.884626 0.000000 " />
<path stroke-linejoin="round" stroke-linecap="round" stroke="rgb(255,0,0)" stroke-width="3.749996" fill="none" d="M 2.873540 2.878100 L 5.952247 5.970150 " />
<path stroke-linejoin="round" stroke-linecap="round" stroke="rgb(0,0,255)" stroke-width="1.874998" fill="none" d="M 0.000000 750.000000 L 0.000000 0.000000 " />
<path stroke-linejoin="round" stroke-linecap="round" stroke="rgb(255,0,0)" stroke-width="3.749996" fill="none" d="M 0.000000 0.000000 L 2.873540 2.878189 " />
<circle cx="83.185047" cy="747.479260" r="3.749996" style="fill:rgb(0,127,0);stroke-width:1" /><circle cx="82.656004" cy="744.833998" r="3.749996" style="fill:rgb(0,127,0);stroke-width:1" /><circle cx="82.100183" cy="742.054828" r="3.749996" style="fill:rgb(0,127,0);stroke-width:1" /><circle cx="81.515461" cy="739.131264" r="3.749996" style="fill:rgb(0,127,0);stroke-width:1" /><circle cx="81.073925" cy="736.923561" r="3.749996" style="fill:rgb(0,127,0);stroke-width:1" /><circle cx="80.470406" cy="733.905919" r="3.749996" style="fill:rgb(0,127,0);stroke-width:1" /><circle cx="80.073014" cy="731.919006" r="3.749996" style="fill:rgb(0,127,0);stroke-width:1" /><circle cx="79.451792" cy="728.812851" r="3.749996" style="fill:rgb(0,127,0);stroke-width:1" /><circle cx="78.798294" cy="725.545362" r="3.749996" style="fill:rgb(0,127,0);stroke-width:1" /><circle cx="78.109950" cy="722.103596" r="3.749996" style="fill:rgb(0,127,0);stroke-width:1" /><circle cx="77.788062" cy="720.494181" r="3.749996" style="fill:rgb(0,127,0);stroke-width:1" /><circle cx="77.082172" cy="716.964774" r="3.749996" style="fill:rgb(0,127,0);stroke-width:1" /><circle cx="76.338150" cy="713.244595" r="3.749996" style="fill:rgb(0,127,0);stroke-width:1" /><circle cx="75.552776" cy="709.317729" r="3.749996" style="fill:rgb(0,127,0);stroke-width:1" /><circle cx="74.722521" cy="705.166496" r="3.749996" style="fill:rgb(0,127,0);stroke-width:1" /><circle cx="74.517801" cy="704.142898" r="3.749996" style="fill:rgb(0,127,0);stroke-width:1" /><circle cx="73.843427" cy="700.771049" r="3.749996" style="fill:rgb(0,127,0);stroke-width:1" /><circle cx="73.670089" cy="699.904338" r="3.749996" style="fill:rgb(0,127,0);stroke-width:1" /><circle cx="72.773248" cy="695.420064" r="3.749996" style="fill:rgb(0,127,0);stroke-width:1" /><circle cx="72.646894" cy="694.788359" r="3.749996" style="fill:rgb(0,127,0);stroke-width:1" /><circle cx="71.822830" cy="690.668084" r="3.749996" style="fill:rgb(0,127,0);stroke-width:1" /><circle cx="70.813961" cy="685.623676" r="3.749996" style="fill:rgb(0,127,0);stroke-width:1" /><circle cx="69.741011" cy="680.258989" r="3.749996" style="fill:rgb(0,127,0);stroke-width:1" /><circle cx="68.597719" cy="674.542509" r="3.749996" style="fill:rgb(0,127,0);stroke-width:1" /><circle cx="67.491308" cy="669.010431" r="3.749996" style="fill:rgb(0,127,0);stroke-width:1" /><circle cx="66.253960" cy="662.823737" r="3.749996" style="fill:rgb(0,127,0);stroke-width:1" /><circle cx="63.466921" cy="626.592100" r="3.749996" style="fill:rgb(0,127,0);stroke-width:1" /><circle cx="60.617007" cy="589.543238" r="3.749996" style="fill:rgb(0,127,0);stroke-width:1" /><circle cx="59.074737" cy="569.493860" r="3.749996" style="fill:rgb(0,127,0);stroke-width:1" /><circle cx="56.378044" cy="534.436896" r="3.749996" style="fill:rgb(0,127,0);stroke-width:1" /><circle cx="53.890765" cy="502.102431" r="3.749996" style="fill:rgb(0,127,0);stroke-width:1" /><circle cx="52.876800" cy="488.920804" r="3.749996" style="fill:rgb(0,127,0);stroke-width:1" /><circle cx="50.095640" cy="452.765845" r="3.749996" style="fill:rgb(0,127,0);stroke-width:1" /><circle cx="48.227660" cy="428.482214" r="3.749996" style="fill:rgb(0,127,0);stroke-width:1" /><circle cx="46.591870" cy="407.216985" r="3.749996" style="fill:rgb(0,127,0);stroke-width:1" /><circle cx="43.724120" cy="369.936427" r="3.749996" style="fill:rgb(0,127,0);stroke-width:1" /><circle cx="43.536656" cy="367.499311" r="3.749996" style="fill:rgb(0,127,0);stroke-width:1" /><circle cx="40.828496" cy="332.293153" r="3.749996" style="fill:rgb(0,127,0);stroke-width:1" /><circle cx="38.713351" cy="304.796420" r="3.749996" style="fill:rgb(0,127,0);stroke-width:1" /><circle cx="35.853088" cy="267.612979" r="3.749996" style="fill:rgb(0,127,0);stroke-width:1" /><circle cx="33.995591" cy="243.465587" r="3.749996" style="fill:rgb(0,127,0);stroke-width:1" /><circle cx="31.721637" cy="213.904180" r="3.749996" style="fill:rgb(0,127,0);stroke-width:1" /><circle cx="28.838843" cy="176.427640" r="3.749996" style="fill:rgb(0,127,0);stroke-width:1" /><circle cx="28.103024" cy="166.862212" r="3.749996" style="fill:rgb(0,127,0);stroke-width:1" /><circle cx="24.866447" cy="124.786623" r="3.749996" style="fill:rgb(0,127,0);stroke-width:1" /><circle cx="23.133583" cy="102.259509" r="3.749996" style="fill:rgb(0,127,0);stroke-width:1" /><circle cx="21.626517" cy="82.667515" r="3.749996" style="fill:rgb(0,127,0);stroke-width:1" /><circle cx="19.161165" cy="50.617844" r="3.749996" style="fill:rgb(0,127,0);stroke-width:1" /><circle cx="18.417031" cy="40.944256" r="3.749996" style="fill:rgb(0,127,0);stroke-width:1" /><circle cx="16.343415" cy="21.083593" r="3.749996" style="fill:rgb(0,127,0);stroke-width:1" /><circle cx="12.638547" cy="13.804592" r="3.749996" style="fill:rgb(0,127,0);stroke-width:1" /><circle cx="9.142801" cy="9.433419" r="3.749996" style="fill:rgb(0,127,0);stroke-width:1" /><circle cx="8.857414" cy="8.929409" r="3.749996" style="fill:rgb(0,127,0);stroke-width:1" /><circle cx="5.952246" cy="5.970240" r="3.749996" style="fill:rgb(0,127,0);stroke-width:1" /><circle cx="2.873540" cy="2.878100" r="3.749996" style="fill:rgb(0,127,0);stroke-width:1" /><circle cx="750.000000" cy="750.000000" r="3.749996" style="fill:rgb(0,127,0);stroke-width:1" /><path stroke-linejoin="round" stroke-linecap="round" stroke="rgb(255,255,255)" stroke-width="3.749996" fill="none" d="M 0.000000 750.000000 L 750.000000 750.000000 M 0.000000 750.000000 L 0.000000 0.000000 " />

</svg>