<svg xmlns="http://www.w3.org/2000/svg" version="1.1" width = "750" height = "750" viewBox = "0 0 750 750"  shape-rendering="crispEdges">
<path stroke-linejoin="round" stroke-linecap="round" stroke="rgb(255,255,0)" stroke-width="3.749996" fill="none" d="M 93.750000 750.000000 L 0.000000 0.000000 " />
<path stroke-linejoin="round" stroke-linecap="round" stroke="rgb(63,63,63)" stroke-width="3.749996" fill="none" d="M 0.000000 0.000000 L 750.000000 750.000000 M 93.750000 750.000000 L 43.750004 0.000000 " />
<path stroke-linejoin="round" stroke-linecap="round" stroke="rgb(191,191,191)" stroke-width="3.749996" fill="none" d="M 0.000000 656.250000 L 93.750000 750.000000 M 0.000000 0.000000 L 49.999996 750.000000 " />
<path stroke-linejoin="round" stroke-linecap="round" stroke="rgb(0,0,255)" stroke-width="1.874998" fill="none" d="M 0.000000 750.000000 L 750.000000 731.250000 " />
<path stroke-linejoin="round" stroke-linecap="round" stroke="rgb(255,0,0)" stroke-width="3.749996" fill="none" d="M 93.594009 747.660156 L 93.750000 750.000000 " />
<path stroke-linejoin="round" stroke-linecap="round" stroke="rgb(0,0,255)" stroke-width="1.874998" fill="none" d="M 0.000000 750.000000 L 750.000000 711.538452 " />
<path stroke-linejoin="round" stroke-linecap="round" stroke="rgb(255,0,0)" stroke-width="3.749996" fill="none" d="M 91.254158 745.320312 L 93.594032 747.660156 " />
<path stroke-linejoin="round" stroke-linecap="round" stroke="rgb(0,0,255)" stroke-width="1.874998" fill="none" d="M 0.000000 750.000000 L 750.000000 690.789490 " />
<path stroke-linejoin="round" stroke-linecap="round" stroke="rgb(255,0,0)" stroke-width="3.749996" fill="none" d="M 88.914314 742.980469 L 91.254158 745.320312 " />
<path stroke-linejoin="round" stroke-linecap="round" stroke="rgb(0,0,255)" stroke-width="1.874998" fill="none" d="M 0.000000 750.000000 L 750.000000 673.076904 " />
<path stroke-linejoin="round" stroke-linecap="round" stroke="rgb(255,0,0)" stroke-width="3.749996" fill="none" d="M 87.009789 741.075928 L 88.914314 742.980469 " />
<path stroke-linejoin="round" stroke-linecap="round" stroke="rgb(0,0,255)" stroke-width="1.874998" fill="none" d="M 0.000000 750.000000 L 750.000000 668.918945 " />
<path stroke-linejoin="round" stroke-linecap="round" stroke="rgb(255,0,0)" stroke-width="3.749996" fill="none" d="M 86.574463 740.640625 L 87.009789 741.075928 " />
<path stroke-linejoin="round" stroke-linecap="round" stroke="rgb(0,0,255)" stroke-width="1.874998" fill="none" d="M 0.000000 750.000000 L 750.000000 645.833313 " />
<path stroke-linejoin="round" stroke-linecap="round" stroke="rgb(255,0,0)" stroke-width="3.749996" fill="none" d="M 84.234619 738.300720 L 86.574463 740.640625 " />
<path stroke-linejoin="round" stroke-linecap="round" stroke="rgb(0,0,255)" stroke-width="1.874998" fill="none" d="M 0.000000 750.000000 L 750.000000 621.428589 " />
<path stroke-linejoin="round" stroke-linecap="round" stroke="rgb(255,0,0)" stroke-width="3.749996" fill="none" d="M 81.894768 735.960876 L 84.234619 738.300720 " />
<path stroke-linejoin="round" stroke-linecap="round" stroke="rgb(0,0,255)" stroke-width="1.874998" fill="none" d="M 0.000000 750.000000 L 750.000000 595.588196 " />
<path stroke-linejoin="round" stroke-linecap="round" stroke="rgb(255,0,0)" stroke-width="3.749996" fill="none" d="M 79.554924 733.621033 L 81.894768 735.960876 " />
<path stroke-linejoin="round" stroke-linecap="round" stroke="rgb(0,0,255)" stroke-width="1.874998" fill="none" d="M 0.000000 750.000000 L 750.000000 578.571411 " />
<path stroke-linejoin="round" stroke-linecap="round" stroke="rgb(255,0,0)" stroke-width="3.749996" fill="none" d="M 78.085724 732.151855 L 79.554924 733.621033 " />
<path stroke-linejoin="round" stroke-linecap="round" stroke="rgb(0,0,255)" stroke-width="1.874998" fill="none" d="M 0.000000 750.000000 L 750.000000 568.181824 " />
<path stroke-linejoin="round" stroke-linecap="round" stroke="rgb(255,0,0)" stroke-width="3.749996" fill="none" d="M 77.215073 731.281250 L 78.085724 732.151855 " />
<path stroke-linejoin="round" stroke-linecap="round" stroke="rgb(0,0,255)" stroke-width="1.874998" fill="none" d="M 0.000000 750.000000 L 750.000000 539.062500 " />
<path stroke-linejoin="round" stroke-linecap="round" stroke="rgb(255,0,0)" stroke-width="3.749996" fill="none" d="M 74.875206 728.941345 L 77.215073 731.281250 " />
<path stroke-linejoin="round" stroke-linecap="round" stroke="rgb(0,0,255)" stroke-width="1.874998" fill="none" d="M 0.000000 750.000000 L 750.000000 522.727295 " />
<path stroke-linejoin="round" stroke-linecap="round" stroke="rgb(255,0,0)" stroke-width="3.749996" fill="none" d="M 73.623688 727.689758 L 74.875206 728.941345 " />
<path stroke-linejoin="round" stroke-linecap="round" stroke="rgb(0,0,255)" stroke-width="1.874998" fill="none" d="M 0.000000 750.000000 L 750.000000 508.064514 " />
<path stroke-linejoin="round" stroke-linecap="round" stroke="rgb(255,0,0)" stroke-width="3.749996" fill="none" d="M 72.535378 726.601501 L 73.623688 727.689758 " />
<path stroke-linejoin="round" stroke-linecap="round" stroke="rgb(0,0,255)" stroke-width="1.874998" fill="none" d="M 0.000000 750.000000 L 750.000000 475.000000 " />
<path stroke-linejoin="round" stroke-linecap="round" stroke="rgb(255,0,0)" stroke-width="3.749996" fill="none" d="M 70.195511 724.261597 L 72.535378 726.601501 " />
<path stroke-linejoin="round" stroke-linecap="round" stroke="rgb(0,0,255)" stroke-width="1.874998" fill="none" d="M 0.000000 750.000000 L 750.000000 459.677429 " />
<path stroke-linejoin="round" stroke-linecap="round" stroke="rgb(255,0,0)" stroke-width="3.749996" fill="none" d="M 69.161629 723.227783 L 70.195511 724.261597 " />
<path stroke-linejoin="round" stroke-linecap="round" stroke="rgb(0,0,255)" stroke-width="1.874998" fill="none" d="M 0.000000 750.000000 L 750.000000 439.655182 " />
<path stroke-linejoin="round" stroke-linecap="round" stroke="rgb(255,0,0)" stroke-width="3.749996" fill="none" d="M 67.855667 721.921814 L 69.161629 723.227783 " />
<path stroke-linejoin="round" stroke-linecap="round" stroke="rgb(0,0,255)" stroke-width="1.874998" fill="none" d="M 0.000000 750.000000 L 750.000000 401.785706 " />
<path stroke-linejoin="round" stroke-linecap="round" stroke="rgb(255,0,0)" stroke-width="3.749996" fill="none" d="M 65.515816 719.581970 L 67.855667 721.921814 " />
<path stroke-linejoin="round" stroke-linecap="round" stroke="rgb(0,0,255)" stroke-width="1.874998" fill="none" d="M 0.000000 750.000000 L 750.000000 361.111115 " />
<path stroke-linejoin="round" stroke-linecap="round" stroke="rgb(255,0,0)" stroke-width="3.749996" fill="none" d="M 63.175968 717.242065 L 65.515816 719.581970 " />
<path stroke-linejoin="round" stroke-linecap="round" stroke="rgb(0,0,255)" stroke-width="1.874998" fill="none" d="M 0.000000 750.000000 L 750.000000 317.307709 " />
<path stroke-linejoin="round" stroke-linecap="round" stroke="rgb(255,0,0)" stroke-width="3.749996" fill="none" d="M 60.836121 714.902222 L 63.175968 717.242065 " />
<path stroke-linejoin="round" stroke-linecap="round" stroke="rgb(0,0,255)" stroke-width="1.874998" fill="none" d="M 0.000000 750.000000 L 750.000000 305.555542 " />
<path stroke-linejoin="round" stroke-linecap="round" stroke="rgb(255,0,0)" stroke-width="3.749996" fill="none" d="M 60.237541 714.303650 L 60.836121 714.902222 " />
<path stroke-linejoin="round" stroke-linecap="round" stroke="rgb(0,0,255)" stroke-width="1.874998" fill="none" d="M 0.000000 750.000000 L 750.000000 259.615387 " />
<path stroke-linejoin="round" stroke-linecap="round" stroke="rgb(255,0,0)" stroke-width="3.749996" fill="none" d="M 58.006523 712.072693 L 60.237541 714.303650 " />
<path stroke-linejoin="round" stroke-linecap="round" stroke="rgb(0,0,255)" stroke-width="1.874998" fill="none" d="M 0.000000 750.000000 L 750.000000 249.999985 " />
<path stroke-linejoin="round" stroke-linecap="round" stroke="rgb(255,0,0)" stroke-width="3.749996" fill="none" d="M 57.560318 711.626465 L 58.006523 712.072693 " />
<path stroke-linejoin="round" stroke-linecap="round" stroke="rgb(0,0,255)" stroke-width="1.874998" fill="none" d="M 0.000000 750.000000 L 750.000000 209.999985 " />
<path stroke-linejoin="round" stroke-linecap="round" stroke="rgb(255,0,0)" stroke-width="3.749996" fill="none" d="M 55.775509 709.841614 L 57.560318 711.626465 " />
<path stroke-linejoin="round" stroke-linecap="round" stroke="rgb(0,0,255)" stroke-width="1.874998" fill="none" d="M 0.000000 750.000000 L 750.000000 201.923080 " />
<path stroke-linejoin="round" stroke-linecap="round" stroke="rgb(255,0,0)" stroke-width="3.749996" fill="none" d="M 55.428474 709.494568 L 55.775509 709.841614 " />
<path stroke-linejoin="round" stroke-linecap="round" stroke="rgb(0,0,255)" stroke-width="1.874998" fill="none" d="M 0.000000 750.000000 L 750.000000 156.249985 " />
<path stroke-linejoin="round" stroke-linecap="round" stroke="rgb(255,0,0)" stroke-width="3.749996" fill="none" d="M 53.544491 707.610657 L 55.428474 709.494568 " />
<path stroke-linejoin="round" stroke-linecap="round" stroke="rgb(0,0,255)" stroke-width="1.874998" fill="none" d="M 0.000000 750.000000 L 750.000000 149.999985 " />
<path stroke-linejoin="round" stroke-linecap="round" stroke="rgb(255,0,0)" stroke-width="3.749996" fill="none" d="M 53.296612 707.362732 L 53.544491 707.610657 " />
<path stroke-linejoin="round" stroke-linecap="round" stroke="rgb(0,0,255)" stroke-width="1.874998" fill="none" d="M 0.000000 750.000000 L 750.000000 97.826111 " />
<path stroke-linejoin="round" stroke-linecap="round" stroke="rgb(255,0,0)" stroke-width="3.749996" fill="none" d="M 51.313477 705.379578 L 53.296612 707.362732 " />
<path stroke-linejoin="round" stroke-linecap="round" stroke="rgb(0,0,255)" stroke-width="1.874998" fill="none" d="M 0.000000 750.000000 L 750.000000 34.090919 " />
<path stroke-linejoin="round" stroke-linecap="round" stroke="rgb(255,0,0)" stroke-width="3.749996" fill="none" d="M 49.082458 703.148621 L 51.313477 705.379578 " />
<path stroke-linejoin="round" stroke-linecap="round" stroke="rgb(0,0,255)" stroke-width="1.874998" fill="none" d="M 0.000000 750.000000 L 750.000000 32.608688 " />
<path stroke-linejoin="round" stroke-linecap="round" stroke="rgb(255,0,0)" stroke-width="3.749996" fill="none" d="M 49.032883 703.098999 L 49.082458 703.148621 " />
<path stroke-linejoin="round" stroke-linecap="round" stroke="rgb(0,0,255)" stroke-width="1.874998" fill="none" d="M 0.000000 750.000000 L 717.391296 0.000000 " />
<path stroke-linejoin="round" stroke-linecap="round" stroke="rgb(255,0,0)" stroke-width="3.749996" fill="none" d="M 46.901016 700.967102 L 49.032883 703.098999 " />
<path stroke-linejoin="round" stroke-linecap="round" stroke="rgb(0,0,255)" stroke-width="1.874998" fill="none" d="M 0.000000 750.000000 L 656.249939 0.000000 " />
<path stroke-linejoin="round" stroke-linecap="round" stroke="rgb(255,0,0)" stroke-width="3.749996" fill="none" d="M 46.460175 696.902649 L 46.901016 700.967102 " />
<path stroke-linejoin="round" stroke-linecap="round" stroke="rgb(0,0,255)" stroke-width="1.874998" fill="none" d="M 0.000000 750.000000 L 600.000000 0.000000 " />
<path stroke-linejoin="round" stroke-linecap="round" stroke="rgb(255,0,0)" stroke-width="3.749996" fill="none" d="M 46.153843 692.307678 L 46.460175 696.902649 " />
<path stroke-linejoin="round" stroke-linecap="round" stroke="rgb(0,0,255)" stroke-width="1.874998" fill="none" d="M 0.000000 750.000000 L 555.555542 0.000000 " />
<path stroke-linejoin="round" stroke-linecap="round" stroke="rgb(255,0,0)" stroke-width="3.749996" fill="none" d="M 45.871540 688.073425 L 46.153843 692.307678 " />
<path stroke-linejoin="round" stroke-linecap="round" stroke="rgb(0,0,255)" stroke-width="1.874998" fill="none" d="M 0.000000 750.000000 L 508.928589 0.000000 " />
<path stroke-linejoin="round" stroke-linecap="round" stroke="rgb(255,0,0)" stroke-width="3.749996" fill="none" d="M 45.527145 682.907349 L 45.871540 688.073425 " />
<path stroke-linejoin="round" stroke-linecap="round" stroke="rgb(0,0,255)" stroke-width="1.874998" fill="none" d="M 0.000000 750.000000 L 465.517212 0.000000 " />
<path stroke-linejoin="round" stroke-linecap="round" stroke="rgb(255,0,0)" stroke-width="3.749996" fill="none" d="M 45.150497 677.257507 L 45.527145 682.907349 " />
<path stroke-linejoin="round" stroke-linecap="round" stroke="rgb(0,0,255)" stroke-width="1.874998" fill="none" d="M 0.000000 750.000000 L 435.483856 0.000000 " />
<path stroke-linejoin="round" stroke-linecap="round" stroke="rgb(255,0,0)" stroke-width="3.749996" fill="none" d="M 44.850491 672.757446 L 45.150497 677.257507 " />
<path stroke-linejoin="round" stroke-linecap="round" stroke="rgb(0,0,255)" stroke-width="1.874998" fill="none" d="M 0.000000 750.000000 L 419.117645 0.000000 " />
<path stroke-linejoin="round" stroke-linecap="round" stroke="rgb(255,0,0)" stroke-width="3.749996" fill="none" d="M 44.670826 670.062744 L 44.850491 672.757446 " />
<path stroke-linejoin="round" stroke-linecap="round" stroke="rgb(0,0,255)" stroke-width="1.874998" fill="none" d="M 0.000000 750.000000 L 395.833344 0.000000 " />
<path stroke-linejoin="round" stroke-linecap="round" stroke="rgb(255,0,0)" stroke-width="3.749996" fill="none" d="M 44.392506 665.887878 L 44.670826 670.062744 " />
<path stroke-linejoin="round" stroke-linecap="round" stroke="rgb(0,0,255)" stroke-width="1.874998" fill="none" d="M 0.000000 750.000000 L 364.864868 0.000000 " />
<path stroke-linejoin="round" stroke-linecap="round" stroke="rgb(255,0,0)" stroke-width="3.749996" fill="none" d="M 43.973923 659.609131 L 44.392506 665.887878 " />
<path stroke-linejoin="round" stroke-linecap="round" stroke="rgb(0,0,255)" stroke-width="1.874998" fill="none" d="M 0.000000 750.000000 L 346.153839 0.000000 " />
<path stroke-linejoin="round" stroke-linecap="round" stroke="rgb(255,0,0)" stroke-width="3.749996" fill="none" d="M 43.689297 655.339844 L 43.973923 659.609131 " />
<path stroke-linejoin="round" stroke-linecap="round" stroke="rgb(0,0,255)" stroke-width="1.874998" fill="none" d="M 0.000000 750.000000 L 310.975616 0.000000 " />
<path stroke-linejoin="round" stroke-linecap="round" stroke="rgb(255,0,0)" stroke-width="3.749996" fill="none" d="M 43.074310 646.114929 L 43.689297 655.339844 " />
<path stroke-linejoin="round" stroke-linecap="round" stroke="rgb(0,0,255)" stroke-width="1.874998" fill="none" d="M 0.000000 750.000000 L 235.294128 0.000000 " />
<path stroke-linejoin="round" stroke-linecap="round" stroke="rgb(255,0,0)" stroke-width="3.749996" fill="none" d="M 41.237110 618.556763 L 43.074310 646.114929 " />
<path stroke-linejoin="round" stroke-linecap="round" stroke="rgb(0,0,255)" stroke-width="1.874998" fill="none" d="M 0.000000 750.000000 L 184.426239 0.000000 " />
<path stroke-linejoin="round" stroke-linecap="round" stroke="rgb(255,0,0)" stroke-width="3.749996" fill="none" d="M 39.335648 590.035034 L 41.237110 618.556763 " />
<path stroke-linejoin="round" stroke-linecap="round" stroke="rgb(0,0,255)" stroke-width="1.874998" fill="none" d="M 0.000000 750.000000 L 169.014084 0.000000 " />
<path stroke-linejoin="round" stroke-linecap="round" stroke="rgb(255,0,0)" stroke-width="3.749996" fill="none" d="M 38.585186 578.778198 L 39.335648 590.035034 " />
<path stroke-linejoin="round" stroke-linecap="round" stroke="rgb(0,0,255)" stroke-width="1.874998" fill="none" d="M 0.000000 750.000000 L 138.888901 0.000000 " />
<path stroke-linejoin="round" stroke-linecap="round" stroke="rgb(255,0,0)" stroke-width="3.749996" fill="none" d="M 36.764683 551.470642 L 38.585186 578.778198 " />
<path stroke-linejoin="round" stroke-linecap="round" stroke="rgb(0,0,255)" stroke-width="1.874998" fill="none" d="M 0.000000 750.000000 L 131.868118 0.000000 " />
<path stroke-linejoin="round" stroke-linecap="round" stroke="rgb(255,0,0)" stroke-width="3.749996" fill="none" d="M 36.253765 543.806702 L 36.764683 551.470642 " />
<path stroke-linejoin="round" stroke-linecap="round" stroke="rgb(0,0,255)" stroke-width="1.874998" fill="none" d="M 0.000000 750.000000 L 125.000015 0.000000 " />
<path stroke-linejoin="round" stroke-linecap="round" stroke="rgb(255,0,0)" stroke-width="3.749996" fill="none" d="M 35.714283 535.714417 L 36.253765 543.806702 " />
<path stroke-linejoin="round" stroke-linecap="round" stroke="rgb(0,0,255)" stroke-width="1.874998" fill="none" d="M 0.000000 750.000000 L 103.723389 0.000000 " />
<path stroke-linejoin="round" stroke-linecap="round" stroke="rgb(255,0,0)" stroke-width="3.749996" fill="none" d="M 33.737003 506.055450 L 35.714283 535.714417 " />
<path stroke-linejoin="round" stroke-linecap="round" stroke="rgb(0,0,255)" stroke-width="1.874998" fill="none" d="M 0.000000 750.000000 L 100.961540 0.000000 " />
<path stroke-linejoin="round" stroke-linecap="round" stroke="rgb(255,0,0)" stroke-width="3.749996" fill="none" d="M 33.439480 501.592438 L 33.737003 506.055450 " />
<path stroke-linejoin="round" stroke-linecap="round" stroke="rgb(0,0,255)" stroke-width="1.874998" fill="none" d="M 0.000000 750.000000 L 85.526306 0.000000 " />
<path stroke-linejoin="round" stroke-linecap="round" stroke="rgb(255,0,0)" stroke-width="3.749996" fill="none" d="M 31.553394 473.301025 L 33.439480 501.592438 " />
<path stroke-linejoin="round" stroke-linecap="round" stroke="rgb(0,0,255)" stroke-width="1.874998" fill="none" d="M 0.000000 750.000000 L 77.830193 0.000000 " />
<path stroke-linejoin="round" stroke-linecap="round" stroke="rgb(255,0,0)" stroke-width="3.749996" fill="none" d="M 30.442804 456.642151 L 31.553394 473.300995 " />
<path stroke-linejoin="round" stroke-linecap="round" stroke="rgb(0,0,255)" stroke-width="1.874998" fill="none" d="M 0.000000 750.000000 L 77.586205 0.000000 " />
<path stroke-linejoin="round" stroke-linecap="round" stroke="rgb(255,0,0)" stroke-width="3.749996" fill="none" d="M 30.405388 456.081207 L 30.442804 456.642151 " />
<path stroke-linejoin="round" stroke-linecap="round" stroke="rgb(0,0,255)" stroke-width="1.874998" fill="none" d="M 0.000000 750.000000 L 73.008858 0.000000 " />
<path stroke-linejoin="round" stroke-linecap="round" stroke="rgb(255,0,0)" stroke-width="3.749996" fill="none" d="M 29.676250 445.144043 L 30.405388 456.081207 " />
<path stroke-linejoin="round" stroke-linecap="round" stroke="rgb(0,0,255)" stroke-width="1.874998" fill="none" d="M 0.000000 750.000000 L 69.327728 0.000000 " />
<path stroke-linejoin="round" stroke-linecap="round" stroke="rgb(255,0,0)" stroke-width="3.749996" fill="none" d="M 29.049284 435.739594 L 29.676250 445.144043 " />
<path stroke-linejoin="round" stroke-linecap="round" stroke="rgb(0,0,255)" stroke-width="1.874998" fill="none" d="M 0.000000 750.000000 L 66.371689 0.000000 " />
<path stroke-linejoin="round" stroke-linecap="round" stroke="rgb(255,0,0)" stroke-width="3.749996" fill="none" d="M 28.517090 427.756805 L 29.049284 435.739594 " />
<path stroke-linejoin="round" stroke-linecap="round" stroke="rgb(0,0,255)" stroke-width="1.874998" fill="none" d="M 0.000000 750.000000 L 56.390987 0.000000 " />
<path stroke-linejoin="round" stroke-linecap="round" stroke="rgb(255,0,0)" stroke-width="3.749996" fill="none" d="M 26.501745 397.526703 L 28.517090 427.756805 " />
<path stroke-linejoin="round" stroke-linecap="round" stroke="rgb(0,0,255)" stroke-width="1.874998" fill="none" d="M 0.000000 750.000000 L 50.373138 0.000000 " />
<path stroke-linejoin="round" stroke-linecap="round" stroke="rgb(255,0,0)" stroke-width="3.749996" fill="none" d="M 25.092915 376.394226 L 26.501745 397.526703 " />
<path stroke-linejoin="round" stroke-linecap="round" stroke="rgb(0,0,255)" stroke-width="1.874998" fill="none" d="M 0.000000 750.000000 L 43.831161 0.000000 " />
<path stroke-linejoin="round" stroke-linecap="round" stroke="rgb(255,0,0)" stroke-width="3.749996" fill="none" d="M 23.356386 350.346252 L 25.092915 376.394226 " />
<path stroke-linejoin="round" stroke-linecap="round" stroke="rgb(0,0,255)" stroke-width="1.874998" fill="none" d="M 0.000000 750.000000 L 42.452843 0.000000 " />
<path stroke-linejoin="round" stroke-linecap="round" stroke="rgb(255,0,0)" stroke-width="3.749996" fill="none" d="M 22.959173 344.387939 L 23.356386 350.346252 " />
<path stroke-linejoin="round" stroke-linecap="round" stroke="rgb(0,0,255)" stroke-width="1.874998" fill="none" d="M 0.000000 750.000000 L 39.473690 0.000000 " />
<path stroke-linejoin="round" stroke-linecap="round" stroke="rgb(255,0,0)" stroke-width="3.749996" fill="none" d="M 22.058823 330.882538 L 22.959173 344.387939 " />
<path stroke-linejoin="round" stroke-linecap="round" stroke="rgb(0,0,255)" stroke-width="1.874998" fill="none" d="M 0.000000 750.000000 L 34.883717 0.000000 " />
<path stroke-linejoin="round" stroke-linecap="round" stroke="rgb(255,0,0)" stroke-width="3.749996" fill="none" d="M 20.547934 308.219421 L 22.058823 330.882538 " />
<path stroke-linejoin="round" stroke-linecap="round" stroke="rgb(0,0,255)" stroke-width="1.874998" fill="none" d="M 0.000000 750.000000 L 34.482746 0.000000 " />
<path stroke-linejoin="round" stroke-linecap="round" stroke="rgb(255,0,0)" stroke-width="3.749996" fill="none" d="M 20.408146 306.122742 L 20.547934 308.219421 " />
<path stroke-linejoin="round" stroke-linecap="round" stroke="rgb(0,0,255)" stroke-width="1.874998" fill="none" d="M 0.000000 750.000000 L 33.018864 0.000000 " />
<path stroke-linejoin="round" stroke-linecap="round" stroke="rgb(255,0,0)" stroke-width="3.749996" fill="none" d="M 19.886345 298.295807 L 20.408146 306.122742 " />
<path stroke-linejoin="round" stroke-linecap="round" stroke="rgb(0,0,255)" stroke-width="1.874998" fill="none" d="M 0.000000 750.000000 L 26.627228 0.000000 " />
<path stroke-linejoin="round" stroke-linecap="round" stroke="rgb(255,0,0)" stroke-width="3.749996" fill="none" d="M 17.374500 260.618134 L 19.886345 298.295837 " />
<path stroke-linejoin="round" stroke-linecap="round" stroke="rgb(0,0,255)" stroke-width="1.874998" fill="none" d="M 0.000000 750.000000 L 23.809523 0.000000 " />
<path stroke-linejoin="round" stroke-linecap="round" stroke="rgb(255,0,0)" stroke-width="3.749996" fill="none" d="M 16.129017 241.935883 L 17.374500 260.618134 " />
<path stroke-linejoin="round" stroke-linecap="round" stroke="rgb(0,0,255)" stroke-width="1.874998" fill="none" d="M 0.000000 750.000000 L 20.833344 0.000000 " />
<path stroke-linejoin="round" stroke-linecap="round" stroke="rgb(255,0,0)" stroke-width="3.749996" fill="none" d="M 14.705881 220.588669 L 16.129017 241.935883 " />
<path stroke-linejoin="round" stroke-linecap="round" stroke="rgb(0,0,255)" stroke-width="1.874998" fill="none" d="M 0.000000 750.000000 L 18.750004 0.000000 " />
<path stroke-linejoin="round" stroke-linecap="round" stroke="rgb(255,0,0)" stroke-width="3.749996" fill="none" d="M 13.636351 204.545929 L 14.705881 220.588669 " />
<path stroke-linejoin="round" stroke-linecap="round" stroke="rgb(0,0,255)" stroke-width="1.874998" fill="none" d="M 0.000000 750.000000 L 17.123289 0.000000 " />
<path stroke-linejoin="round" stroke-linecap="round" stroke="rgb(255,0,0)" stroke-width="3.749996" fill="none" d="M 12.755089 191.327072 L 13.636351 204.545975 " />
<path stroke-linejoin="round" stroke-linecap="round" stroke="rgb(0,0,255)" stroke-width="1.874998" fill="none" d="M 0.000000 750.000000 L 13.100445 0.000000 " />
<path stroke-linejoin="round" stroke-linecap="round" stroke="rgb(255,0,0)" stroke-width="3.749996" fill="none" d="M 10.380618 155.709915 L 12.755089 191.327072 " />
<path stroke-linejoin="round" stroke-linecap="round" stroke="rgb(0,0,255)" stroke-width="1.874998" fill="none" d="M 0.000000 750.000000 L 12.987010 0.000000 " />
<path stroke-linejoin="round" stroke-linecap="round" stroke="rgb(255,0,0)" stroke-width="3.749996" fill="none" d="M 10.309272 154.639725 L 10.380618 155.709915 " />
<path stroke-linejoin="round" stroke-linecap="round" stroke="rgb(0,0,255)" stroke-width="1.874998" fill="none" d="M 0.000000 750.000000 L 12.931042 0.000000 " />
<path stroke-linejoin="round" stroke-linecap="round" stroke="rgb(255,0,0)" stroke-width="3.749996" fill="none" d="M 10.273955 154.110168 L 10.309272 154.639725 " />
<path stroke-linejoin="round" stroke-linecap="round" stroke="rgb(0,0,255)" stroke-width="1.874998" fill="none" d="M 0.000000 750.000000 L 12.711861 0.000000 " />
<path stroke-linejoin="round" stroke-linecap="round" stroke="rgb(255,0,0)" stroke-width="3.749996" fill="none" d="M 10.135129 152.027603 L 10.273955 154.110168 " />
<path stroke-linejoin="round" stroke-linecap="round" stroke="rgb(0,0,255)" stroke-width="1.874998" fill="none" d="M 0.000000 750.000000 L 12.244887 0.000000 " />
<path stroke-linejoin="round" stroke-linecap="round" stroke="rgb(255,0,0)" stroke-width="3.749996" fill="none" d="M 9.836062 147.541565 L 10.135129 152.027603 " />
<path stroke-linejoin="round" stroke-linecap="round" stroke="rgb(0,0,255)" stroke-width="1.874998" fill="none" d="M 0.000000 750.000000 L 12.096763 0.000000 " />
<path stroke-linejoin="round" stroke-linecap="round" stroke="rgb(255,0,0)" stroke-width="3.749996" fill="none" d="M 9.740241 146.104492 L 9.836062 147.541565 " />
<path stroke-linejoin="round" stroke-linecap="round" stroke="rgb(0,0,255)" stroke-width="1.874998" fill="none" d="M 0.000000 750.000000 L 12.048192 0.000000 " />
<path stroke-linejoin="round" stroke-linecap="round" stroke="rgb(255,0,0)" stroke-width="3.749996" fill="none" d="M 9.708725 145.631653 L 9.740241 146.104492 " />
<path stroke-linejoin="round" stroke-linecap="round" stroke="rgb(0,0,255)" stroke-width="1.874998" fill="none" d="M 0.000000 750.000000 L 12.000002 0.000000 " />
<path stroke-linejoin="round" stroke-linecap="round" stroke="rgb(255,0,0)" stroke-width="3.749996" fill="none" d="M 9.677410 145.161865 L 9.708725 145.631653 " />
<path stroke-linejoin="round" stroke-linecap="round" stroke="rgb(0,0,255)" stroke-width="1.874998" fill="none" d="M 0.000000 750.000000 L 10.416672 0.000000 " />
<path stroke-linejoin="round" stroke-linecap="round" stroke="rgb(255,0,0)" stroke-width="3.749996" fill="none" d="M 8.620687 129.310944 L 9.677410 145.161865 " />
<path stroke-linejoin="round" stroke-linecap="round" stroke="rgb(0,0,255)" stroke-width="1.874998" fill="none" d="M 0.000000 750.000000 L 6.637171 0.000000 " />
<path stroke-linejoin="round" stroke-linecap="round" stroke="rgb(255,0,0)" stroke-width="3.749996" fill="none" d="M 5.859375 87.891251 L 8.620687 129.310944 " />
<path stroke-linejoin="round" stroke-linecap="round" stroke="rgb(0,0,255)" stroke-width="1.874998" fill="none" d="M 0.000000 750.000000 L 3.177971 0.000000 " />
<path stroke-linejoin="round" stroke-linecap="round" stroke="rgb(255,0,0)" stroke-width="3.749996" fill="none" d="M 2.988048 44.821457 L 5.859375 87.891251 " />
<path stroke-linejoin="round" stroke-linecap="round" stroke="rgb(0,0,255)" stroke-width="1.874998" fill="none" d="M 0.000000 750.000000 L 0.000000 0.000000 " />
<path stroke-linejoin="round" stroke-linecap="round" stroke="rgb(255,0,0)" stroke-width="3.749996" fill="none" d="M 0.000000 0.000000 L 2.988048 44.821457 " />
<circle cx="93.594007" cy="747.660175" r="3.749996" style="fill:rgb(0,127,0);stroke-width:1" /><circle cx="91.254160" cy="745.320305" r="3.749996" style="fill:rgb(0,127,0);stroke-width:1" /><circle cx="88.914312" cy="742.980458" r="3.749996" style="fill:rgb(0,127,0);stroke-width:1" /><circle cx="87.009788" cy="741.075911" r="3.749996" style="fill:rgb(0,127,0);stroke-width:1" /><circle cx="86.574465" cy="740.640588" r="3.749996" style="fill:rgb(0,127,0);stroke-width:1" /><circle cx="84.234618" cy="738.300741" r="3.749996" style="fill:rgb(0,127,0);stroke-width:1" /><circle cx="81.894770" cy="735.960893" r="3.749996" style="fill:rgb(0,127,0);stroke-width:1" /><circle cx="79.554923" cy="733.621046" r="3.749996" style="fill:rgb(0,127,0);stroke-width:1" /><circle cx="78.085721" cy="732.151844" r="3.749996" style="fill:rgb(0,127,0);stroke-width:1" /><circle cx="77.215075" cy="731.281199" r="3.749996" style="fill:rgb(0,127,0);stroke-width:1" /><circle cx="74.875206" cy="728.941351" r="3.749996" style="fill:rgb(0,127,0);stroke-width:1" /><circle cx="73.623687" cy="727.689788" r="3.749996" style="fill:rgb(0,127,0);stroke-width:1" /><circle cx="72.535381" cy="726.601481" r="3.749996" style="fill:rgb(0,127,0);stroke-width:1" /><circle cx="70.195511" cy="724.261634" r="3.749996" style="fill:rgb(0,127,0);stroke-width:1" /><circle cx="69.161631" cy="723.227754" r="3.749996" style="fill:rgb(0,127,0);stroke-width:1" /><circle cx="67.855664" cy="721.921787" r="3.749996" style="fill:rgb(0,127,0);stroke-width:1" /><circle cx="65.515816" cy="719.581939" r="3.749996" style="fill:rgb(0,127,0);stroke-width:1" /><circle cx="63.175969" cy="717.242092" r="3.749996" style="fill:rgb(0,127,0);stroke-width:1" /><circle cx="60.836121" cy="714.902245" r="3.749996" style="fill:rgb(0,127,0);stroke-width:1" /><circle cx="60.237542" cy="714.303665" r="3.749996" style="fill:rgb(0,127,0);stroke-width:1" /><circle cx="58.006525" cy="712.072648" r="3.749996" style="fill:rgb(0,127,0);stroke-width:1" /><circle cx="57.560317" cy="711.626440" r="3.749996" style="fill:rgb(0,127,0);stroke-width:1" /><circle cx="55.775508" cy="709.841631" r="3.749996" style="fill:rgb(0,127,0);stroke-width:1" /><circle cx="55.428475" cy="709.494576" r="3.749996" style="fill:rgb(0,127,0);stroke-width:1" /><circle cx="53.544492" cy="707.610615" r="3.749996" style="fill:rgb(0,127,0);stroke-width:1" /><circle cx="53.296611" cy="707.362711" r="3.749996" style="fill:rgb(0,127,0);stroke-width:1" /><circle cx="51.313475" cy="705.379598" r="3.749996" style="fill:rgb(0,127,0);stroke-width:1" /><circle cx="49.082458" cy="703.148581" r="3.749996" style="fill:rgb(0,127,0);stroke-width:1" /><circle cx="49.032882" cy="703.098983" r="3.749996" style="fill:rgb(0,127,0);stroke-width:1" /><circle cx="46.901017" cy="700.967118" r="3.749996" style="fill:rgb(0,127,0);stroke-width:1" /><circle cx="46.460174" cy="696.902655" r="3.749996" style="fill:rgb(0,127,0);stroke-width:1" /><circle cx="46.153843" cy="692.307696" r="3.749996" style="fill:rgb(0,127,0);stroke-width:1" /><circle cx="45.871541" cy="688.073404" r="3.749996" style="fill:rgb(0,127,0);stroke-width:1" /><circle cx="45.527145" cy="682.907358" r="3.749996" style="fill:rgb(0,127,0);stroke-width:1" /><circle cx="45.150496" cy="677.257530" r="3.749996" style="fill:rgb(0,127,0);stroke-width:1" /><circle cx="44.850491" cy="672.757477" r="3.749996" style="fill:rgb(0,127,0);stroke-width:1" /><circle cx="44.670828" cy="670.062728" r="3.749996" style="fill:rgb(0,127,0);stroke-width:1" /><circle cx="44.392504" cy="665.887892" r="3.749996" style="fill:rgb(0,127,0);stroke-width:1" /><circle cx="43.973923" cy="659.609154" r="3.749996" style="fill:rgb(0,127,0);stroke-width:1" /><circle cx="43.689296" cy="655.339837" r="3.749996" style="fill:rgb(0,127,0);stroke-width:1" /><circle cx="43.074310" cy="646.114893" r="3.749996" style="fill:rgb(0,127,0);stroke-width:1" /><circle cx="41.237108" cy="618.556738" r="3.749996" style="fill:rgb(0,127,0);stroke-width:1" /><circle cx="39.335646" cy="590.035021" r="3.749996" style="fill:rgb(0,127,0);stroke-width:1" /><circle cx="38.585186" cy="578.778192" r="3.749996" style="fill:rgb(0,127,0);stroke-width:1" /><circle cx="36.764681" cy="551.470667" r="3.749996" style="fill:rgb(0,127,0);stroke-width:1" /><circle cx="36.253765" cy="543.806724" r="3.749996" style="fill:rgb(0,127,0);stroke-width:1" /><circle cx="35.714284" cy="535.714366" r="3.749996" style="fill:rgb(0,127,0);stroke-width:1" /><circle cx="33.737004" cy="506.055459" r="3.749996" style="fill:rgb(0,127,0);stroke-width:1" /><circle cx="33.439480" cy="501.592442" r="3.749996" style="fill:rgb(0,127,0);stroke-width:1" /><circle cx="31.553395" cy="473.301038" r="3.749996" style="fill:rgb(0,127,0);stroke-width:1" /><circle cx="30.442804" cy="456.642151" r="3.749996" style="fill:rgb(0,127,0);stroke-width:1" /><circle cx="30.405387" cy="456.081189" r="3.749996" style="fill:rgb(0,127,0);stroke-width:1" /><circle cx="29.676251" cy="445.144035" r="3.749996" style="fill:rgb(0,127,0);stroke-width:1" /><circle cx="29.049285" cy="435.739584" r="3.749996" style="fill:rgb(0,127,0);stroke-width:1" /><circle cx="28.517090" cy="427.756816" r="3.749996" style="fill:rgb(0,127,0);stroke-width:1" /><circle cx="26.501745" cy="397.526711" r="3.749996" style="fill:rgb(0,127,0);stroke-width:1" /><circle cx="25.092915" cy="376.394235" r="3.749996" style="fill:rgb(0,127,0);stroke-width:1" /><circle cx="23.356386" cy="350.346252" r="3.749996" style="fill:rgb(0,127,0);stroke-width:1" /><circle cx="22.959173" cy="344.387949" r="3.749996" style="fill:rgb(0,127,0);stroke-width:1" /><circle cx="22.058822" cy="330.882534" r="3.749996" style="fill:rgb(0,127,0);stroke-width:1" /><circle cx="20.547934" cy="308.219433" r="3.749996" style="fill:rgb(0,127,0);stroke-width:1" /><circle cx="20.408146" cy="306.122750" r="3.749996" style="fill:rgb(0,127,0);stroke-width:1" /><circle cx="19.886345" cy="298.295796" r="3.749996" style="fill:rgb(0,127,0);stroke-width:1" /><circle cx="17.374501" cy="260.618135" r="3.749996" style="fill:rgb(0,127,0);stroke-width:1" /><circle cx="16.129017" cy="241.935879" r="3.749996" style="fill:rgb(0,127,0);stroke-width:1" /><circle cx="14.705881" cy="220.588669" r="3.749996" style="fill:rgb(0,127,0);stroke-width:1" /><circle cx="13.636351" cy="204.545930" r="3.749996" style="fill:rgb(0,127,0);stroke-width:1" /><circle cx="12.755089" cy="191.327065" r="3.749996" style="fill:rgb(0,127,0);stroke-width:1" /><circle cx="10.380618" cy="155.709922" r="3.749996" style="fill:rgb(0,127,0);stroke-width:1" /><circle cx="10.309272" cy="154.639721" r="3.749996" style="fill:rgb(0,127,0);stroke-width:1" /><circle cx="10.273956" cy="154.110163" r="3.749996" style="fill:rgb(0,127,0);stroke-width:1" /><circle cx="10.135129" cy="152.027607" r="3.749996" style="fill:rgb(0,127,0);stroke-width:1" /><circle cx="9.836063" cy="147.541568" r="3.749996" style="fill:rgb(0,127,0);stroke-width:1" /><circle cx="9.740241" cy="146.104485" r="3.749996" style="fill:rgb(0,127,0);stroke-width:1" /><circle cx="9.708725" cy="145.631656" r="3.749996" style="fill:rgb(0,127,0);stroke-width:1" /><circle cx="9.677410" cy="145.161867" r="3.749996" style="fill:rgb(0,127,0);stroke-width:1" /><circle cx="8.620687" cy="129.310951" r="3.749996" style="fill:rgb(0,127,0);stroke-width:1" /><circle cx="5.859375" cy="87.891251" r="3.749996" style="fill:rgb(0,127,0);stroke-width:1" /><circle cx="2.988026" cy="44.821456" r="3.750008" style="fill:rgb(0,127,0);stroke-width:1" /><circle cx="750.000000" cy="750.000000" r="3.749996" style="fill:rgb(0,127,0);stroke-width:1" /><path stroke-linejoin="round" stroke-linecap="round" stroke="rgb(255,255,255)" stroke-width="3.749996" fill="none" d="M 0.000000 750.000000 L 750.000000 750.000000 M 0.000000 750.000000 L 0.000000 0.000000 " />

</svg>