<svg xmlns="http://www.w3.org/2000/svg" version="1.1" width = "750" height = "750" viewBox = "0 0 750 750"  shape-rendering="crispEdges">
<path stroke-linejoin="round" stroke-linecap="round" stroke="rgb(255,255,0)" stroke-width="3.749996" fill="none" d="M 249.999985 750.000000 L 0.000000 0.000000 " />
<path stroke-linejoin="round" stroke-linecap="round" stroke="rgb(63,63,63)" stroke-width="3.749996" fill="none" d="M 0.000000 0.000000 L 750.000000 750.000000 M 249.999985 750.000000 L 99.999992 0.000000 " />
<path stroke-linejoin="round" stroke-linecap="round" stroke="rgb(191,191,191)" stroke-width="3.749996" fill="none" d="M 0.000000 500.000000 L 249.999985 750.000000 M 0.000000 0.000000 L 150.000015 750.000000 " />
<path stroke-linejoin="round" stroke-linecap="round" stroke="rgb(0,0,255)" stroke-width="1.874998" fill="none" d="M 0.000000 750.000000 L 750.000000 727.941162 " />
<path stroke-linejoin="round" stroke-linecap="round" stroke="rgb(255,0,0)" stroke-width="3.749996" fill="none" d="M 248.538010 742.690063 L 249.999985 750.000000 " />
<path stroke-linejoin="round" stroke-linecap="round" stroke="rgb(0,0,255)" stroke-width="1.874998" fill="none" d="M 0.000000 750.000000 L 750.000000 704.545471 " />
<path stroke-linejoin="round" stroke-linecap="round" stroke="rgb(255,0,0)" stroke-width="3.749996" fill="none" d="M 244.775528 735.165161 L 248.538010 742.690063 " />
<path stroke-linejoin="round" stroke-linecap="round" stroke="rgb(0,0,255)" stroke-width="1.874998" fill="none" d="M 0.000000 750.000000 L 750.000000 679.687500 " />
<path stroke-linejoin="round" stroke-linecap="round" stroke="rgb(255,0,0)" stroke-width="3.749996" fill="none" d="M 240.900726 727.415527 L 244.775528 735.165161 " />
<path stroke-linejoin="round" stroke-linecap="round" stroke="rgb(0,0,255)" stroke-width="1.874998" fill="none" d="M 0.000000 750.000000 L 750.000000 653.225830 " />
<path stroke-linejoin="round" stroke-linecap="round" stroke="rgb(255,0,0)" stroke-width="3.749996" fill="none" d="M 236.908569 719.431152 L 240.900726 727.415527 " />
<path stroke-linejoin="round" stroke-linecap="round" stroke="rgb(0,0,255)" stroke-width="1.874998" fill="none" d="M 0.000000 750.000000 L 750.000000 632.812500 " />
<path stroke-linejoin="round" stroke-linecap="round" stroke="rgb(255,0,0)" stroke-width="3.749996" fill="none" d="M 233.918137 713.450317 L 236.908569 719.431152 " />
<path stroke-linejoin="round" stroke-linecap="round" stroke="rgb(0,0,255)" stroke-width="1.874998" fill="none" d="M 0.000000 750.000000 L 750.000000 625.000000 " />
<path stroke-linejoin="round" stroke-linecap="round" stroke="rgb(255,0,0)" stroke-width="3.749996" fill="none" d="M 232.793518 711.201111 L 233.918137 713.450317 " />
<path stroke-linejoin="round" stroke-linecap="round" stroke="rgb(0,0,255)" stroke-width="1.874998" fill="none" d="M 0.000000 750.000000 L 750.000000 594.827576 " />
<path stroke-linejoin="round" stroke-linecap="round" stroke="rgb(255,0,0)" stroke-width="3.749996" fill="none" d="M 228.549866 702.713806 L 232.793518 711.201111 " />
<path stroke-linejoin="round" stroke-linecap="round" stroke="rgb(0,0,255)" stroke-width="1.874998" fill="none" d="M 0.000000 750.000000 L 750.000000 562.500000 " />
<path stroke-linejoin="round" stroke-linecap="round" stroke="rgb(255,0,0)" stroke-width="3.749996" fill="none" d="M 224.171524 693.957092 L 228.549866 702.713806 " />
<path stroke-linejoin="round" stroke-linecap="round" stroke="rgb(0,0,255)" stroke-width="1.874998" fill="none" d="M 0.000000 750.000000 L 750.000000 527.777771 " />
<path stroke-linejoin="round" stroke-linecap="round" stroke="rgb(255,0,0)" stroke-width="3.749996" fill="none" d="M 219.651947 684.917969 L 224.171524 693.957092 " />
<path stroke-linejoin="round" stroke-linecap="round" stroke="rgb(0,0,255)" stroke-width="1.874998" fill="none" d="M 0.000000 750.000000 L 750.000000 490.384613 " />
<path stroke-linejoin="round" stroke-linecap="round" stroke="rgb(255,0,0)" stroke-width="3.749996" fill="none" d="M 214.984192 675.582397 L 219.651947 684.917969 " />
<path stroke-linejoin="round" stroke-linecap="round" stroke="rgb(0,0,255)" stroke-width="1.874998" fill="none" d="M 0.000000 750.000000 L 750.000000 450.000031 " />
<path stroke-linejoin="round" stroke-linecap="round" stroke="rgb(255,0,0)" stroke-width="3.749996" fill="none" d="M 210.160828 665.935669 L 214.984192 675.582397 " />
<path stroke-linejoin="round" stroke-linecap="round" stroke="rgb(0,0,255)" stroke-width="1.874998" fill="none" d="M 0.000000 750.000000 L 750.000000 432.692291 " />
<path stroke-linejoin="round" stroke-linecap="round" stroke="rgb(255,0,0)" stroke-width="3.749996" fill="none" d="M 208.159271 661.932617 L 210.160828 665.935669 " />
<path stroke-linejoin="round" stroke-linecap="round" stroke="rgb(0,0,255)" stroke-width="1.874998" fill="none" d="M 0.000000 750.000000 L 750.000000 390.000000 " />
<path stroke-linejoin="round" stroke-linecap="round" stroke="rgb(255,0,0)" stroke-width="3.749996" fill="none" d="M 203.381454 652.376892 L 208.159271 661.932617 " />
<path stroke-linejoin="round" stroke-linecap="round" stroke="rgb(0,0,255)" stroke-width="1.874998" fill="none" d="M 0.000000 750.000000 L 750.000000 343.750000 " />
<path stroke-linejoin="round" stroke-linecap="round" stroke="rgb(255,0,0)" stroke-width="3.749996" fill="none" d="M 198.446945 642.507874 L 203.381454 652.376892 " />
<path stroke-linejoin="round" stroke-linecap="round" stroke="rgb(0,0,255)" stroke-width="1.874998" fill="none" d="M 0.000000 750.000000 L 750.000000 293.478271 " />
<path stroke-linejoin="round" stroke-linecap="round" stroke="rgb(255,0,0)" stroke-width="3.749996" fill="none" d="M 193.347931 632.309937 L 198.446945 642.507874 " />
<path stroke-linejoin="round" stroke-linecap="round" stroke="rgb(0,0,255)" stroke-width="1.874998" fill="none" d="M 0.000000 750.000000 L 750.000000 281.250000 " />
<path stroke-linejoin="round" stroke-linecap="round" stroke="rgb(255,0,0)" stroke-width="3.749996" fill="none" d="M 192.147018 629.908142 L 193.347931 632.309937 " />
<path stroke-linejoin="round" stroke-linecap="round" stroke="rgb(0,0,255)" stroke-width="1.874998" fill="none" d="M 0.000000 750.000000 L 750.000000 228.260864 " />
<path stroke-linejoin="round" stroke-linecap="round" stroke="rgb(255,0,0)" stroke-width="3.749996" fill="none" d="M 187.110916 619.835876 L 192.147018 629.908142 " />
<path stroke-linejoin="round" stroke-linecap="round" stroke="rgb(0,0,255)" stroke-width="1.874998" fill="none" d="M 0.000000 750.000000 L 750.000000 170.454559 " />
<path stroke-linejoin="round" stroke-linecap="round" stroke="rgb(255,0,0)" stroke-width="3.749996" fill="none" d="M 181.909668 609.433411 L 187.110916 619.835876 " />
<path stroke-linejoin="round" stroke-linecap="round" stroke="rgb(0,0,255)" stroke-width="1.874998" fill="none" d="M 0.000000 750.000000 L 750.000000 163.043488 " />
<path stroke-linejoin="round" stroke-linecap="round" stroke="rgb(255,0,0)" stroke-width="3.749996" fill="none" d="M 181.263687 608.141479 L 181.909668 609.433411 " />
<path stroke-linejoin="round" stroke-linecap="round" stroke="rgb(0,0,255)" stroke-width="1.874998" fill="none" d="M 0.000000 750.000000 L 750.000000 107.142853 " />
<path stroke-linejoin="round" stroke-linecap="round" stroke="rgb(255,0,0)" stroke-width="3.749996" fill="none" d="M 176.535065 598.684265 L 181.263657 608.141479 " />
<path stroke-linejoin="round" stroke-linecap="round" stroke="rgb(0,0,255)" stroke-width="1.874998" fill="none" d="M 0.000000 750.000000 L 750.000000 102.272720 " />
<path stroke-linejoin="round" stroke-linecap="round" stroke="rgb(255,0,0)" stroke-width="3.749996" fill="none" d="M 176.134750 597.883606 L 176.535065 598.684265 " />
<path stroke-linejoin="round" stroke-linecap="round" stroke="rgb(0,0,255)" stroke-width="1.874998" fill="none" d="M 0.000000 750.000000 L 750.000000 35.714283 " />
<path stroke-linejoin="round" stroke-linecap="round" stroke="rgb(255,0,0)" stroke-width="3.749996" fill="none" d="M 170.840347 587.294861 L 176.134720 597.883606 " />
<path stroke-linejoin="round" stroke-linecap="round" stroke="rgb(0,0,255)" stroke-width="1.874998" fill="none" d="M 0.000000 750.000000 L 750.000000 34.090919 " />
<path stroke-linejoin="round" stroke-linecap="round" stroke="rgb(255,0,0)" stroke-width="3.749996" fill="none" d="M 170.715210 587.044556 L 170.840347 587.294861 " />
<path stroke-linejoin="round" stroke-linecap="round" stroke="rgb(0,0,255)" stroke-width="1.874998" fill="none" d="M 0.000000 750.000000 L 714.285767 0.000000 " />
<path stroke-linejoin="round" stroke-linecap="round" stroke="rgb(255,0,0)" stroke-width="3.749996" fill="none" d="M 165.372406 576.358948 L 170.715210 587.044556 " />
<path stroke-linejoin="round" stroke-linecap="round" stroke="rgb(0,0,255)" stroke-width="1.874998" fill="none" d="M 0.000000 750.000000 L 647.727295 0.000000 " />
<path stroke-linejoin="round" stroke-linecap="round" stroke="rgb(255,0,0)" stroke-width="3.749996" fill="none" d="M 159.722198 565.058533 L 165.372406 576.358948 " />
<path stroke-linejoin="round" stroke-linecap="round" stroke="rgb(0,0,255)" stroke-width="1.874998" fill="none" d="M 0.000000 750.000000 L 586.956543 0.000000 " />
<path stroke-linejoin="round" stroke-linecap="round" stroke="rgb(255,0,0)" stroke-width="3.749996" fill="none" d="M 153.880432 553.375000 L 159.722198 565.058533 " />
<path stroke-linejoin="round" stroke-linecap="round" stroke="rgb(0,0,255)" stroke-width="1.874998" fill="none" d="M 0.000000 750.000000 L 540.000000 0.000000 " />
<path stroke-linejoin="round" stroke-linecap="round" stroke="rgb(255,0,0)" stroke-width="3.749996" fill="none" d="M 148.835175 543.284485 L 153.880432 553.375000 " />
<path stroke-linejoin="round" stroke-linecap="round" stroke="rgb(0,0,255)" stroke-width="1.874998" fill="none" d="M 0.000000 750.000000 L 500.000000 0.000000 " />
<path stroke-linejoin="round" stroke-linecap="round" stroke="rgb(255,0,0)" stroke-width="3.749996" fill="none" d="M 144.110245 533.834656 L 148.835175 543.284485 " />
<path stroke-linejoin="round" stroke-linecap="round" stroke="rgb(0,0,255)" stroke-width="1.874998" fill="none" d="M 0.000000 750.000000 L 490.384613 0.000000 " />
<path stroke-linejoin="round" stroke-linecap="round" stroke="rgb(255,0,0)" stroke-width="3.749996" fill="none" d="M 142.909332 531.432800 L 144.110245 533.834656 " />
<path stroke-linejoin="round" stroke-linecap="round" stroke="rgb(0,0,255)" stroke-width="1.874998" fill="none" d="M 0.000000 750.000000 L 444.444458 0.000000 " />
<path stroke-linejoin="round" stroke-linecap="round" stroke="rgb(255,0,0)" stroke-width="3.749996" fill="none" d="M 136.782608 519.179382 L 142.909332 531.432800 " />
<path stroke-linejoin="round" stroke-linecap="round" stroke="rgb(0,0,255)" stroke-width="1.874998" fill="none" d="M 0.000000 750.000000 L 413.793091 0.000000 " />
<path stroke-linejoin="round" stroke-linecap="round" stroke="rgb(255,0,0)" stroke-width="3.749996" fill="none" d="M 132.297928 510.210022 L 136.782608 519.179382 " />
<path stroke-linejoin="round" stroke-linecap="round" stroke="rgb(0,0,255)" stroke-width="1.874998" fill="none" d="M 0.000000 750.000000 L 387.096771 0.000000 " />
<path stroke-linejoin="round" stroke-linecap="round" stroke="rgb(255,0,0)" stroke-width="3.749996" fill="none" d="M 128.097992 501.810150 L 132.297928 510.210022 " />
<path stroke-linejoin="round" stroke-linecap="round" stroke="rgb(0,0,255)" stroke-width="1.874998" fill="none" d="M 0.000000 750.000000 L 351.562469 0.000000 " />
<path stroke-linejoin="round" stroke-linecap="round" stroke="rgb(255,0,0)" stroke-width="3.749996" fill="none" d="M 122.028824 489.671814 L 128.097992 501.810150 " />
<path stroke-linejoin="round" stroke-linecap="round" stroke="rgb(0,0,255)" stroke-width="1.874998" fill="none" d="M 0.000000 750.000000 L 330.882355 0.000000 " />
<path stroke-linejoin="round" stroke-linecap="round" stroke="rgb(255,0,0)" stroke-width="3.749996" fill="none" d="M 118.215431 482.045044 L 122.028824 489.671814 " />
<path stroke-linejoin="round" stroke-linecap="round" stroke="rgb(0,0,255)" stroke-width="1.874998" fill="none" d="M 0.000000 750.000000 L 300.000000 0.000000 " />
<path stroke-linejoin="round" stroke-linecap="round" stroke="rgb(255,0,0)" stroke-width="3.749996" fill="none" d="M 112.085739 469.785645 L 118.215431 482.045044 " />
<path stroke-linejoin="round" stroke-linecap="round" stroke="rgb(0,0,255)" stroke-width="1.874998" fill="none" d="M 0.000000 750.000000 L 283.783783 0.000000 " />
<path stroke-linejoin="round" stroke-linecap="round" stroke="rgb(255,0,0)" stroke-width="3.749996" fill="none" d="M 108.636955 462.888092 L 112.085739 469.785645 " />
<path stroke-linejoin="round" stroke-linecap="round" stroke="rgb(0,0,255)" stroke-width="1.874998" fill="none" d="M 0.000000 750.000000 L 270.833344 0.000000 " />
<path stroke-linejoin="round" stroke-linecap="round" stroke="rgb(255,0,0)" stroke-width="3.749996" fill="none" d="M 105.758316 457.130798 L 108.636955 462.888092 " />
<path stroke-linejoin="round" stroke-linecap="round" stroke="rgb(0,0,255)" stroke-width="1.874998" fill="none" d="M 0.000000 750.000000 L 243.243256 0.000000 " />
<path stroke-linejoin="round" stroke-linecap="round" stroke="rgb(255,0,0)" stroke-width="3.749996" fill="none" d="M 99.223450 444.061066 L 105.758316 457.130798 " />
<path stroke-linejoin="round" stroke-linecap="round" stroke="rgb(0,0,255)" stroke-width="1.874998" fill="none" d="M 0.000000 750.000000 L 230.769241 0.000000 " />
<path stroke-linejoin="round" stroke-linecap="round" stroke="rgb(255,0,0)" stroke-width="3.749996" fill="none" d="M 96.073486 437.761139 L 99.223450 444.061066 " />
<path stroke-linejoin="round" stroke-linecap="round" stroke="rgb(0,0,255)" stroke-width="1.874998" fill="none" d="M 0.000000 750.000000 L 219.512192 0.000000 " />
<path stroke-linejoin="round" stroke-linecap="round" stroke="rgb(255,0,0)" stroke-width="3.749996" fill="none" d="M 93.117378 431.848938 L 96.073486 437.761139 " />
<path stroke-linejoin="round" stroke-linecap="round" stroke="rgb(0,0,255)" stroke-width="1.874998" fill="none" d="M 0.000000 750.000000 L 183.333328 0.000000 " />
<path stroke-linejoin="round" stroke-linecap="round" stroke="rgb(255,0,0)" stroke-width="3.749996" fill="none" d="M 85.549904 400.023132 L 93.117378 431.848938 " />
<path stroke-linejoin="round" stroke-linecap="round" stroke="rgb(0,0,255)" stroke-width="1.874998" fill="none" d="M 0.000000 750.000000 L 182.926834 0.000000 " />
<path stroke-linejoin="round" stroke-linecap="round" stroke="rgb(255,0,0)" stroke-width="3.749996" fill="none" d="M 85.422409 399.768158 L 85.549904 400.023132 " />
<path stroke-linejoin="round" stroke-linecap="round" stroke="rgb(0,0,255)" stroke-width="1.874998" fill="none" d="M 0.000000 750.000000 L 160.714294 0.000000 " />
<path stroke-linejoin="round" stroke-linecap="round" stroke="rgb(255,0,0)" stroke-width="3.749996" fill="none" d="M 78.555908 383.405823 L 85.422386 399.768188 " />
<path stroke-linejoin="round" stroke-linecap="round" stroke="rgb(0,0,255)" stroke-width="1.874998" fill="none" d="M 0.000000 750.000000 L 139.534882 0.000000 " />
<path stroke-linejoin="round" stroke-linecap="round" stroke="rgb(255,0,0)" stroke-width="3.749996" fill="none" d="M 72.542419 360.084534 L 78.555908 383.405731 " />
<path stroke-linejoin="round" stroke-linecap="round" stroke="rgb(0,0,255)" stroke-width="1.874998" fill="none" d="M 0.000000 750.000000 L 119.318176 0.000000 " />
<path stroke-linejoin="round" stroke-linecap="round" stroke="rgb(255,0,0)" stroke-width="3.749996" fill="none" d="M 66.515633 331.901794 L 72.542397 360.084564 " />
<path stroke-linejoin="round" stroke-linecap="round" stroke="rgb(0,0,255)" stroke-width="1.874998" fill="none" d="M 0.000000 750.000000 L 114.130432 0.000000 " />
<path stroke-linejoin="round" stroke-linecap="round" stroke="rgb(255,0,0)" stroke-width="3.749996" fill="none" d="M 64.829819 323.975525 L 66.515633 331.901794 " />
<path stroke-linejoin="round" stroke-linecap="round" stroke="rgb(0,0,255)" stroke-width="1.874998" fill="none" d="M 0.000000 750.000000 L 109.374985 0.000000 " />
<path stroke-linejoin="round" stroke-linecap="round" stroke="rgb(255,0,0)" stroke-width="3.749996" fill="none" d="M 63.256702 316.239807 L 64.829819 323.975525 " />
<path stroke-linejoin="round" stroke-linecap="round" stroke="rgb(0,0,255)" stroke-width="1.874998" fill="none" d="M 0.000000 750.000000 L 102.941170 0.000000 " />
<path stroke-linejoin="round" stroke-linecap="round" stroke="rgb(255,0,0)" stroke-width="3.749996" fill="none" d="M 61.049179 305.213135 L 63.256680 316.239838 " />
<path stroke-linejoin="round" stroke-linecap="round" stroke="rgb(0,0,255)" stroke-width="1.874998" fill="none" d="M 0.000000 750.000000 L 95.454544 0.000000 " />
<path stroke-linejoin="round" stroke-linecap="round" stroke="rgb(255,0,0)" stroke-width="3.749996" fill="none" d="M 58.335251 291.651642 L 61.049179 305.213135 " />
<path stroke-linejoin="round" stroke-linecap="round" stroke="rgb(0,0,255)" stroke-width="1.874998" fill="none" d="M 0.000000 750.000000 L 69.230766 0.000000 " />
<path stroke-linejoin="round" stroke-linecap="round" stroke="rgb(255,0,0)" stroke-width="3.749996" fill="none" d="M 47.369576 236.829575 L 58.335251 291.651642 " />
<path stroke-linejoin="round" stroke-linecap="round" stroke="rgb(0,0,255)" stroke-width="1.874998" fill="none" d="M 0.000000 750.000000 L 63.559322 0.000000 " />
<path stroke-linejoin="round" stroke-linecap="round" stroke="rgb(255,0,0)" stroke-width="3.749996" fill="none" d="M 44.643669 223.204666 L 47.369576 236.829575 " />
<path stroke-linejoin="round" stroke-linecap="round" stroke="rgb(0,0,255)" stroke-width="1.874998" fill="none" d="M 0.000000 750.000000 L 43.478249 0.000000 " />
<path stroke-linejoin="round" stroke-linecap="round" stroke="rgb(255,0,0)" stroke-width="3.749996" fill="none" d="M 33.708328 168.531357 L 44.643669 223.204666 " />
<path stroke-linejoin="round" stroke-linecap="round" stroke="rgb(0,0,255)" stroke-width="1.874998" fill="none" d="M 0.000000 750.000000 L 42.253510 0.000000 " />
<path stroke-linejoin="round" stroke-linecap="round" stroke="rgb(255,0,0)" stroke-width="3.749996" fill="none" d="M 32.967365 164.829147 L 33.708328 168.531357 " />
<path stroke-linejoin="round" stroke-linecap="round" stroke="rgb(0,0,255)" stroke-width="1.874998" fill="none" d="M 0.000000 750.000000 L 37.500008 0.000000 " />
<path stroke-linejoin="round" stroke-linecap="round" stroke="rgb(255,0,0)" stroke-width="3.749996" fill="none" d="M 30.000240 149.995392 L 32.967365 164.829147 " />
<path stroke-linejoin="round" stroke-linecap="round" stroke="rgb(0,0,255)" stroke-width="1.874998" fill="none" d="M 0.000000 750.000000 L 36.585377 0.000000 " />
<path stroke-linejoin="round" stroke-linecap="round" stroke="rgb(255,0,0)" stroke-width="3.749996" fill="none" d="M 29.411942 147.055389 L 30.000240 149.995392 " />
<path stroke-linejoin="round" stroke-linecap="round" stroke="rgb(0,0,255)" stroke-width="1.874998" fill="none" d="M 0.000000 750.000000 L 30.405409 0.000000 " />
<path stroke-linejoin="round" stroke-linecap="round" stroke="rgb(255,0,0)" stroke-width="3.749996" fill="none" d="M 25.281004 126.401779 L 29.411942 147.055389 " />
<path stroke-linejoin="round" stroke-linecap="round" stroke="rgb(0,0,255)" stroke-width="1.874998" fill="none" d="M 0.000000 750.000000 L 17.857141 0.000000 " />
<path stroke-linejoin="round" stroke-linecap="round" stroke="rgb(255,0,0)" stroke-width="3.749996" fill="none" d="M 15.957490 79.785103 L 25.281004 126.401779 " />
<path stroke-linejoin="round" stroke-linecap="round" stroke="rgb(0,0,255)" stroke-width="1.874998" fill="none" d="M 0.000000 750.000000 L 7.978723 0.000000 " />
<path stroke-linejoin="round" stroke-linecap="round" stroke="rgb(255,0,0)" stroke-width="3.749996" fill="none" d="M 7.575765 37.877151 L 15.957490 79.785103 " />
<path stroke-linejoin="round" stroke-linecap="round" stroke="rgb(0,0,255)" stroke-width="1.874998" fill="none" d="M 0.000000 750.000000 L 0.000000 0.000000 " />
<path stroke-linejoin="round" stroke-linecap="round" stroke="rgb(255,0,0)" stroke-width="3.749996" fill="none" d="M 0.000000 0.000000 L 7.575765 37.877151 " />
<circle cx="248.538002" cy="742.690064" r="3.749996" style="fill:rgb(0,127,0);stroke-width:1" /><circle cx="244.775523" cy="735.165127" r="3.749996" style="fill:rgb(0,127,0);stroke-width:1" /><circle cx="240.900736" cy="727.415554" r="3.749996" style="fill:rgb(0,127,0);stroke-width:1" /><circle cx="236.908559" cy="719.431154" r="3.749996" style="fill:rgb(0,127,0);stroke-width:1" /><circle cx="233.918130" cy="713.450298" r="3.749996" style="fill:rgb(0,127,0);stroke-width:1" /><circle cx="232.793514" cy="711.201087" r="3.749996" style="fill:rgb(0,127,0);stroke-width:1" /><circle cx="228.549879" cy="702.713817" r="3.749996" style="fill:rgb(0,127,0);stroke-width:1" /><circle cx="224.171530" cy="693.957120" r="3.749996" style="fill:rgb(0,127,0);stroke-width:1" /><circle cx="219.651952" cy="684.917942" r="3.749996" style="fill:rgb(0,127,0);stroke-width:1" /><circle cx="214.984182" cy="675.582401" r="3.749996" style="fill:rgb(0,127,0);stroke-width:1" /><circle cx="210.160811" cy="665.935680" r="3.749996" style="fill:rgb(0,127,0);stroke-width:1" /><circle cx="208.159268" cy="661.932617" r="3.749996" style="fill:rgb(0,127,0);stroke-width:1" /><circle cx="203.381438" cy="652.376913" r="3.749996" style="fill:rgb(0,127,0);stroke-width:1" /><circle cx="198.446933" cy="642.507903" r="3.749996" style="fill:rgb(0,127,0);stroke-width:1" /><circle cx="193.347942" cy="632.309943" r="3.749996" style="fill:rgb(0,127,0);stroke-width:1" /><circle cx="192.147028" cy="629.908115" r="3.749996" style="fill:rgb(0,127,0);stroke-width:1" /><circle cx="187.110923" cy="619.835883" r="3.749996" style="fill:rgb(0,127,0);stroke-width:1" /><circle cx="181.909673" cy="609.433427" r="3.749996" style="fill:rgb(0,127,0);stroke-width:1" /><circle cx="181.263685" cy="608.141474" r="3.749996" style="fill:rgb(0,127,0);stroke-width:1" /><circle cx="176.535062" cy="598.684229" r="3.749996" style="fill:rgb(0,127,0);stroke-width:1" /><circle cx="176.134743" cy="597.883634" r="3.749996" style="fill:rgb(0,127,0);stroke-width:1" /><circle cx="170.840353" cy="587.294899" r="3.749996" style="fill:rgb(0,127,0);stroke-width:1" /><circle cx="170.715205" cy="587.044582" r="3.749996" style="fill:rgb(0,127,0);stroke-width:1" /><circle cx="165.372401" cy="576.358996" r="3.749996" style="fill:rgb(0,127,0);stroke-width:1" /><circle cx="159.722194" cy="565.058514" r="3.749996" style="fill:rgb(0,127,0);stroke-width:1" /><circle cx="153.880432" cy="553.375002" r="3.749996" style="fill:rgb(0,127,0);stroke-width:1" /><circle cx="148.835175" cy="543.284487" r="3.749996" style="fill:rgb(0,127,0);stroke-width:1" /><circle cx="144.110240" cy="533.834651" r="3.749996" style="fill:rgb(0,127,0);stroke-width:1" /><circle cx="142.909326" cy="531.432811" r="3.749996" style="fill:rgb(0,127,0);stroke-width:1" /><circle cx="136.782601" cy="519.179363" r="3.749996" style="fill:rgb(0,127,0);stroke-width:1" /><circle cx="132.297926" cy="510.210022" r="3.749996" style="fill:rgb(0,127,0);stroke-width:1" /><circle cx="128.097989" cy="501.810137" r="3.749996" style="fill:rgb(0,127,0);stroke-width:1" /><circle cx="122.028820" cy="489.671823" r="3.749996" style="fill:rgb(0,127,0);stroke-width:1" /><circle cx="118.215434" cy="482.045028" r="3.749996" style="fill:rgb(0,127,0);stroke-width:1" /><circle cx="112.085737" cy="469.785657" r="3.749996" style="fill:rgb(0,127,0);stroke-width:1" /><circle cx="108.636953" cy="462.888094" r="3.749996" style="fill:rgb(0,127,0);stroke-width:1" /><circle cx="105.758317" cy="457.130821" r="3.749996" style="fill:rgb(0,127,0);stroke-width:1" /><circle cx="99.223450" cy="444.061071" r="3.749996" style="fill:rgb(0,127,0);stroke-width:1" /><circle cx="96.073486" cy="437.761160" r="3.749996" style="fill:rgb(0,127,0);stroke-width:1" /><circle cx="93.117379" cy="431.848945" r="3.749996" style="fill:rgb(0,127,0);stroke-width:1" /><circle cx="85.549906" cy="400.023133" r="3.749996" style="fill:rgb(0,127,0);stroke-width:1" /><circle cx="85.422412" cy="399.768144" r="3.749996" style="fill:rgb(0,127,0);stroke-width:1" /><circle cx="78.555912" cy="383.405805" r="3.749996" style="fill:rgb(0,127,0);stroke-width:1" /><circle cx="72.542422" cy="360.084533" r="3.749996" style="fill:rgb(0,127,0);stroke-width:1" /><circle cx="66.515632" cy="331.901788" r="3.749996" style="fill:rgb(0,127,0);stroke-width:1" /><circle cx="64.829819" cy="323.975505" r="3.749996" style="fill:rgb(0,127,0);stroke-width:1" /><circle cx="63.256703" cy="316.239802" r="3.749996" style="fill:rgb(0,127,0);stroke-width:1" /><circle cx="61.049178" cy="305.213124" r="3.749996" style="fill:rgb(0,127,0);stroke-width:1" /><circle cx="58.335252" cy="291.651634" r="3.749996" style="fill:rgb(0,127,0);stroke-width:1" /><circle cx="47.369577" cy="236.829579" r="3.749996" style="fill:rgb(0,127,0);stroke-width:1" /><circle cx="44.643670" cy="223.204672" r="3.749996" style="fill:rgb(0,127,0);stroke-width:1" /><circle cx="33.708327" cy="168.531351" r="3.749996" style="fill:rgb(0,127,0);stroke-width:1" /><circle cx="32.967366" cy="164.829142" r="3.749996" style="fill:rgb(0,127,0);stroke-width:1" /><circle cx="30.000240" cy="149.995387" r="3.749996" style="fill:rgb(0,127,0);stroke-width:1" /><circle cx="29.411942" cy="147.055395" r="3.749996" style="fill:rgb(0,127,0);stroke-width:1" /><circle cx="25.281005" cy="126.401782" r="3.749996" style="fill:rgb(0,127,0);stroke-width:1" /><circle cx="15.957490" cy="79.785101" r="3.749996" style="fill:rgb(0,127,0);stroke-width:1" /><circle cx="7.575765" cy="37.877150" r="3.749996" style="fill:rgb(0,127,0);stroke-width:1" /><circle cx="750.000000" cy="750.000000" r="3.749996" style="fill:rgb(0,127,0);stroke-width:1" /><path stroke-linejoin="round" stroke-linecap="round" stroke="rgb(255,255,255)" stroke-width="3.749996" fill="none" d="M 0.000000 750.000000 L 750.000000 750.000000 M 0.000000 750.000000 L 0.000000 0.000000 " />

</svg>