<svg xmlns="http://www.w3.org/2000/svg" version="1.1" width = "750" height = "750" viewBox = "0 0 750 750"  shape-rendering="crispEdges">
<path stroke-linejoin="round" stroke-linecap="round" stroke="rgb(255,255,0)" stroke-width="3.749996" fill="none" d="M 149.999985 750.000000 L 0.000000 0.000000 " />
<path stroke-linejoin="round" stroke-linecap="round" stroke="rgb(63,63,63)" stroke-width="3.749996" fill="none" d="M 0.000000 0.000000 L 750.000000 750.000000 M 149.999985 750.000000 L 66.666664 0.000000 " />
<path stroke-linejoin="round" stroke-linecap="round" stroke="rgb(191,191,191)" stroke-width="3.749996" fill="none" d="M 0.000000 600.000000 L 149.999985 750.000000 M 0.000000 0.000000 L 83.333328 750.000000 " />
<path stroke-linejoin="round" stroke-linecap="round" stroke="rgb(0,0,255)" stroke-width="1.874998" fill="none" d="M 0.000000 750.000000 L 750.000000 734.693909 " />
<path stroke-linejoin="round" stroke-linecap="round" stroke="rgb(255,0,0)" stroke-width="3.749996" fill="none" d="M 149.660629 746.945679 L 149.999985 750.000000 " />
<path stroke-linejoin="round" stroke-linecap="round" stroke="rgb(0,0,255)" stroke-width="1.874998" fill="none" d="M 0.000000 750.000000 L 750.000000 718.750000 " />
<path stroke-linejoin="round" stroke-linecap="round" stroke="rgb(255,0,0)" stroke-width="3.749996" fill="none" d="M 148.614624 743.807739 L 149.660629 746.945679 " />
<path stroke-linejoin="round" stroke-linecap="round" stroke="rgb(0,0,255)" stroke-width="1.874998" fill="none" d="M 0.000000 750.000000 L 750.000000 702.127686 " />
<path stroke-linejoin="round" stroke-linecap="round" stroke="rgb(255,0,0)" stroke-width="3.749996" fill="none" d="M 147.539551 740.582581 L 148.614624 743.807739 " />
<path stroke-linejoin="round" stroke-linecap="round" stroke="rgb(0,0,255)" stroke-width="1.874998" fill="none" d="M 0.000000 750.000000 L 750.000000 684.782654 " />
<path stroke-linejoin="round" stroke-linecap="round" stroke="rgb(255,0,0)" stroke-width="3.749996" fill="none" d="M 146.434235 737.266541 L 147.539551 740.582581 " />
<path stroke-linejoin="round" stroke-linecap="round" stroke="rgb(0,0,255)" stroke-width="1.874998" fill="none" d="M 0.000000 750.000000 L 750.000000 670.212769 " />
<path stroke-linejoin="round" stroke-linecap="round" stroke="rgb(255,0,0)" stroke-width="3.749996" fill="none" d="M 145.518463 734.519348 L 146.434235 737.266541 " />
<path stroke-linejoin="round" stroke-linecap="round" stroke="rgb(0,0,255)" stroke-width="1.874998" fill="none" d="M 0.000000 750.000000 L 750.000000 652.173950 " />
<path stroke-linejoin="round" stroke-linecap="round" stroke="rgb(255,0,0)" stroke-width="3.749996" fill="none" d="M 144.400406 731.165161 L 145.518448 734.519348 " />
<path stroke-linejoin="round" stroke-linecap="round" stroke="rgb(0,0,255)" stroke-width="1.874998" fill="none" d="M 0.000000 750.000000 L 750.000000 633.333313 " />
<path stroke-linejoin="round" stroke-linecap="round" stroke="rgb(255,0,0)" stroke-width="3.749996" fill="none" d="M 143.250885 727.716492 L 144.400406 731.165161 " />
<path stroke-linejoin="round" stroke-linecap="round" stroke="rgb(0,0,255)" stroke-width="1.874998" fill="none" d="M 0.000000 750.000000 L 750.000000 613.636353 " />
<path stroke-linejoin="round" stroke-linecap="round" stroke="rgb(255,0,0)" stroke-width="3.749996" fill="none" d="M 142.068481 724.169373 L 143.250885 727.716492 " />
<path stroke-linejoin="round" stroke-linecap="round" stroke="rgb(0,0,255)" stroke-width="1.874998" fill="none" d="M 0.000000 750.000000 L 750.000000 600.000000 " />
<path stroke-linejoin="round" stroke-linecap="round" stroke="rgb(255,0,0)" stroke-width="3.749996" fill="none" d="M 141.261261 721.747742 L 142.068481 724.169373 " />
<path stroke-linejoin="round" stroke-linecap="round" stroke="rgb(0,0,255)" stroke-width="1.874998" fill="none" d="M 0.000000 750.000000 L 750.000000 593.023254 " />
<path stroke-linejoin="round" stroke-linecap="round" stroke="rgb(255,0,0)" stroke-width="3.749996" fill="none" d="M 140.851807 720.519409 L 141.261261 721.747742 " />
<path stroke-linejoin="round" stroke-linecap="round" stroke="rgb(0,0,255)" stroke-width="1.874998" fill="none" d="M 0.000000 750.000000 L 750.000000 579.545410 " />
<path stroke-linejoin="round" stroke-linecap="round" stroke="rgb(255,0,0)" stroke-width="3.749996" fill="none" d="M 140.067505 718.166443 L 140.851807 720.519409 " />
<path stroke-linejoin="round" stroke-linecap="round" stroke="rgb(0,0,255)" stroke-width="1.874998" fill="none" d="M 0.000000 750.000000 L 750.000000 558.139526 " />
<path stroke-linejoin="round" stroke-linecap="round" stroke="rgb(255,0,0)" stroke-width="3.749996" fill="none" d="M 138.839630 714.482910 L 140.067505 718.166443 " />
<path stroke-linejoin="round" stroke-linecap="round" stroke="rgb(0,0,255)" stroke-width="1.874998" fill="none" d="M 0.000000 750.000000 L 750.000000 535.714294 " />
<path stroke-linejoin="round" stroke-linecap="round" stroke="rgb(255,0,0)" stroke-width="3.749996" fill="none" d="M 137.576172 710.692505 L 138.839630 714.482910 " />
<path stroke-linejoin="round" stroke-linecap="round" stroke="rgb(0,0,255)" stroke-width="1.874998" fill="none" d="M 0.000000 750.000000 L 750.000000 512.195129 " />
<path stroke-linejoin="round" stroke-linecap="round" stroke="rgb(255,0,0)" stroke-width="3.749996" fill="none" d="M 136.275574 706.790710 L 137.576172 710.692505 " />
<path stroke-linejoin="round" stroke-linecap="round" stroke="rgb(0,0,255)" stroke-width="1.874998" fill="none" d="M 0.000000 750.000000 L 750.000000 499.999969 " />
<path stroke-linejoin="round" stroke-linecap="round" stroke="rgb(255,0,0)" stroke-width="3.749996" fill="none" d="M 135.610840 704.796387 L 136.275574 706.790710 " />
<path stroke-linejoin="round" stroke-linecap="round" stroke="rgb(0,0,255)" stroke-width="1.874998" fill="none" d="M 0.000000 750.000000 L 750.000000 487.499969 " />
<path stroke-linejoin="round" stroke-linecap="round" stroke="rgb(255,0,0)" stroke-width="3.749996" fill="none" d="M 134.936127 702.772400 L 135.610840 704.796387 " />
<path stroke-linejoin="round" stroke-linecap="round" stroke="rgb(0,0,255)" stroke-width="1.874998" fill="none" d="M 0.000000 750.000000 L 750.000000 475.609741 " />
<path stroke-linejoin="round" stroke-linecap="round" stroke="rgb(255,0,0)" stroke-width="3.749996" fill="none" d="M 134.300552 700.865662 L 134.936127 702.772400 " />
<path stroke-linejoin="round" stroke-linecap="round" stroke="rgb(0,0,255)" stroke-width="1.874998" fill="none" d="M 0.000000 750.000000 L 750.000000 450.000031 " />
<path stroke-linejoin="round" stroke-linecap="round" stroke="rgb(255,0,0)" stroke-width="3.749996" fill="none" d="M 132.951782 696.819336 L 134.300552 700.865662 " />
<path stroke-linejoin="round" stroke-linecap="round" stroke="rgb(0,0,255)" stroke-width="1.874998" fill="none" d="M 0.000000 750.000000 L 750.000000 423.076904 " />
<path stroke-linejoin="round" stroke-linecap="round" stroke="rgb(255,0,0)" stroke-width="3.749996" fill="none" d="M 131.562729 692.652161 L 132.951782 696.819336 " />
<path stroke-linejoin="round" stroke-linecap="round" stroke="rgb(0,0,255)" stroke-width="1.874998" fill="none" d="M 0.000000 750.000000 L 750.000000 412.500000 " />
<path stroke-linejoin="round" stroke-linecap="round" stroke="rgb(255,0,0)" stroke-width="3.749996" fill="none" d="M 131.024933 691.038757 L 131.562759 692.652161 " />
<path stroke-linejoin="round" stroke-linecap="round" stroke="rgb(0,0,255)" stroke-width="1.874998" fill="none" d="M 0.000000 750.000000 L 750.000000 384.615356 " />
<path stroke-linejoin="round" stroke-linecap="round" stroke="rgb(255,0,0)" stroke-width="3.749996" fill="none" d="M 129.627991 686.847900 L 131.024933 691.038757 " />
<path stroke-linejoin="round" stroke-linecap="round" stroke="rgb(0,0,255)" stroke-width="1.874998" fill="none" d="M 0.000000 750.000000 L 750.000000 375.000000 " />
<path stroke-linejoin="round" stroke-linecap="round" stroke="rgb(255,0,0)" stroke-width="3.749996" fill="none" d="M 129.153152 685.423401 L 129.627991 686.847900 " />
<path stroke-linejoin="round" stroke-linecap="round" stroke="rgb(0,0,255)" stroke-width="1.874998" fill="none" d="M 0.000000 750.000000 L 750.000000 342.857117 " />
<path stroke-linejoin="round" stroke-linecap="round" stroke="rgb(255,0,0)" stroke-width="3.749996" fill="none" d="M 127.590805 680.736450 L 129.153152 685.423401 " />
<path stroke-linejoin="round" stroke-linecap="round" stroke="rgb(0,0,255)" stroke-width="1.874998" fill="none" d="M 0.000000 750.000000 L 750.000000 308.823517 " />
<path stroke-linejoin="round" stroke-linecap="round" stroke="rgb(255,0,0)" stroke-width="3.749996" fill="none" d="M 125.977257 675.895752 L 127.590805 680.736450 " />
<path stroke-linejoin="round" stroke-linecap="round" stroke="rgb(0,0,255)" stroke-width="1.874998" fill="none" d="M 0.000000 750.000000 L 750.000000 299.999969 " />
<path stroke-linejoin="round" stroke-linecap="round" stroke="rgb(255,0,0)" stroke-width="3.749996" fill="none" d="M 125.565559 674.660706 L 125.977257 675.895752 " />
<path stroke-linejoin="round" stroke-linecap="round" stroke="rgb(0,0,255)" stroke-width="1.874998" fill="none" d="M 0.000000 750.000000 L 750.000000 272.727295 " />
<path stroke-linejoin="round" stroke-linecap="round" stroke="rgb(255,0,0)" stroke-width="3.749996" fill="none" d="M 124.309929 670.893677 L 125.565559 674.660706 " />
<path stroke-linejoin="round" stroke-linecap="round" stroke="rgb(0,0,255)" stroke-width="1.874998" fill="none" d="M 0.000000 750.000000 L 750.000000 264.705872 " />
<path stroke-linejoin="round" stroke-linecap="round" stroke="rgb(255,0,0)" stroke-width="3.749996" fill="none" d="M 123.945374 669.800049 L 124.309929 670.893677 " />
<path stroke-linejoin="round" stroke-linecap="round" stroke="rgb(0,0,255)" stroke-width="1.874998" fill="none" d="M 0.000000 750.000000 L 750.000000 234.375000 " />
<path stroke-linejoin="round" stroke-linecap="round" stroke="rgb(255,0,0)" stroke-width="3.749996" fill="none" d="M 122.586052 665.722107 L 123.945374 669.800049 " />
<path stroke-linejoin="round" stroke-linecap="round" stroke="rgb(0,0,255)" stroke-width="1.874998" fill="none" d="M 0.000000 750.000000 L 750.000000 227.272736 " />
<path stroke-linejoin="round" stroke-linecap="round" stroke="rgb(255,0,0)" stroke-width="3.749996" fill="none" d="M 122.272026 664.780090 L 122.586052 665.722107 " />
<path stroke-linejoin="round" stroke-linecap="round" stroke="rgb(0,0,255)" stroke-width="1.874998" fill="none" d="M 0.000000 750.000000 L 750.000000 193.548386 " />
<path stroke-linejoin="round" stroke-linecap="round" stroke="rgb(255,0,0)" stroke-width="3.749996" fill="none" d="M 120.802719 660.372192 L 122.272026 664.780090 " />
<path stroke-linejoin="round" stroke-linecap="round" stroke="rgb(0,0,255)" stroke-width="1.874998" fill="none" d="M 0.000000 750.000000 L 750.000000 187.500000 " />
<path stroke-linejoin="round" stroke-linecap="round" stroke="rgb(255,0,0)" stroke-width="3.749996" fill="none" d="M 120.542946 659.592773 L 120.802719 660.372192 " />
<path stroke-linejoin="round" stroke-linecap="round" stroke="rgb(0,0,255)" stroke-width="1.874998" fill="none" d="M 0.000000 750.000000 L 750.000000 149.999985 " />
<path stroke-linejoin="round" stroke-linecap="round" stroke="rgb(255,0,0)" stroke-width="3.749996" fill="none" d="M 118.956863 654.834534 L 120.542946 659.592773 " />
<path stroke-linejoin="round" stroke-linecap="round" stroke="rgb(0,0,255)" stroke-width="1.874998" fill="none" d="M 0.000000 750.000000 L 750.000000 145.161285 " />
<path stroke-linejoin="round" stroke-linecap="round" stroke="rgb(255,0,0)" stroke-width="3.749996" fill="none" d="M 118.755249 654.229675 L 118.956863 654.834534 " />
<path stroke-linejoin="round" stroke-linecap="round" stroke="rgb(0,0,255)" stroke-width="1.874998" fill="none" d="M 0.000000 750.000000 L 750.000000 99.999992 " />
<path stroke-linejoin="round" stroke-linecap="round" stroke="rgb(255,0,0)" stroke-width="3.749996" fill="none" d="M 116.905869 648.681641 L 118.755249 654.229675 " />
<path stroke-linejoin="round" stroke-linecap="round" stroke="rgb(0,0,255)" stroke-width="1.874998" fill="none" d="M 0.000000 750.000000 L 750.000000 96.774193 " />
<path stroke-linejoin="round" stroke-linecap="round" stroke="rgb(255,0,0)" stroke-width="3.749996" fill="none" d="M 116.775963 648.291870 L 116.905869 648.681641 " />
<path stroke-linejoin="round" stroke-linecap="round" stroke="rgb(0,0,255)" stroke-width="1.874998" fill="none" d="M 0.000000 750.000000 L 750.000000 49.999996 " />
<path stroke-linejoin="round" stroke-linecap="round" stroke="rgb(255,0,0)" stroke-width="3.749996" fill="none" d="M 114.924408 642.737183 L 116.775963 648.291870 " />
<path stroke-linejoin="round" stroke-linecap="round" stroke="rgb(0,0,255)" stroke-width="1.874998" fill="none" d="M 0.000000 750.000000 L 750.000000 48.387096 " />
<path stroke-linejoin="round" stroke-linecap="round" stroke="rgb(255,0,0)" stroke-width="3.749996" fill="none" d="M 114.861626 642.548828 L 114.924431 642.737183 " />
<path stroke-linejoin="round" stroke-linecap="round" stroke="rgb(0,0,255)" stroke-width="1.874998" fill="none" d="M 0.000000 750.000000 L 750.000000 0.000000 " />
<path stroke-linejoin="round" stroke-linecap="round" stroke="rgb(255,0,0)" stroke-width="3.749996" fill="none" d="M 113.009018 636.990967 L 114.861626 642.548828 " />
<path stroke-linejoin="round" stroke-linecap="round" stroke="rgb(0,0,255)" stroke-width="1.874998" fill="none" d="M 0.000000 750.000000 L 700.000000 0.000000 " />
<path stroke-linejoin="round" stroke-linecap="round" stroke="rgb(255,0,0)" stroke-width="3.749996" fill="none" d="M 111.026421 631.043152 L 113.009018 636.990967 " />
<path stroke-linejoin="round" stroke-linecap="round" stroke="rgb(0,0,255)" stroke-width="1.874998" fill="none" d="M 0.000000 750.000000 L 656.249939 0.000000 " />
<path stroke-linejoin="round" stroke-linecap="round" stroke="rgb(255,0,0)" stroke-width="3.749996" fill="none" d="M 109.112175 625.300354 L 111.026421 631.043152 " />
<path stroke-linejoin="round" stroke-linecap="round" stroke="rgb(0,0,255)" stroke-width="1.874998" fill="none" d="M 0.000000 750.000000 L 617.647095 0.000000 " />
<path stroke-linejoin="round" stroke-linecap="round" stroke="rgb(255,0,0)" stroke-width="3.749996" fill="none" d="M 107.262787 619.752258 L 109.112175 625.300354 " />
<path stroke-linejoin="round" stroke-linecap="round" stroke="rgb(0,0,255)" stroke-width="1.874998" fill="none" d="M 0.000000 750.000000 L 494.318207 0.000000 " />
<path stroke-linejoin="round" stroke-linecap="round" stroke="rgb(255,0,0)" stroke-width="3.749996" fill="none" d="M 103.447479 593.045166 L 107.262787 619.752258 " />
<path stroke-linejoin="round" stroke-linecap="round" stroke="rgb(0,0,255)" stroke-width="1.874998" fill="none" d="M 0.000000 750.000000 L 493.902405 0.000000 " />
<path stroke-linejoin="round" stroke-linecap="round" stroke="rgb(255,0,0)" stroke-width="3.749996" fill="none" d="M 103.418243 592.957458 L 103.447479 593.045166 " />
<path stroke-linejoin="round" stroke-linecap="round" stroke="rgb(0,0,255)" stroke-width="1.874998" fill="none" d="M 0.000000 750.000000 L 464.285736 0.000000 " />
<path stroke-linejoin="round" stroke-linecap="round" stroke="rgb(255,0,0)" stroke-width="3.749996" fill="none" d="M 101.247757 586.445984 L 103.418243 592.957458 " />
<path stroke-linejoin="round" stroke-linecap="round" stroke="rgb(0,0,255)" stroke-width="1.874998" fill="none" d="M 0.000000 750.000000 L 443.181793 0.000000 " />
<path stroke-linejoin="round" stroke-linecap="round" stroke="rgb(255,0,0)" stroke-width="3.749996" fill="none" d="M 99.587959 581.466553 L 101.247757 586.445984 " />
<path stroke-linejoin="round" stroke-linecap="round" stroke="rgb(0,0,255)" stroke-width="1.874998" fill="none" d="M 0.000000 750.000000 L 423.913086 0.000000 " />
<path stroke-linejoin="round" stroke-linecap="round" stroke="rgb(255,0,0)" stroke-width="3.749996" fill="none" d="M 97.981674 576.647827 L 99.587959 581.466553 " />
<path stroke-linejoin="round" stroke-linecap="round" stroke="rgb(0,0,255)" stroke-width="1.874998" fill="none" d="M 0.000000 750.000000 L 398.936157 0.000000 " />
<path stroke-linejoin="round" stroke-linecap="round" stroke="rgb(255,0,0)" stroke-width="3.749996" fill="none" d="M 95.757637 569.975647 L 97.981674 576.647827 " />
<path stroke-linejoin="round" stroke-linecap="round" stroke="rgb(0,0,255)" stroke-width="1.874998" fill="none" d="M 0.000000 750.000000 L 375.000000 0.000000 " />
<path stroke-linejoin="round" stroke-linecap="round" stroke="rgb(255,0,0)" stroke-width="3.749996" fill="none" d="M 93.459450 563.081116 L 95.757637 569.975647 " />
<path stroke-linejoin="round" stroke-linecap="round" stroke="rgb(0,0,255)" stroke-width="1.874998" fill="none" d="M 0.000000 750.000000 L 360.000000 0.000000 " />
<path stroke-linejoin="round" stroke-linecap="round" stroke="rgb(255,0,0)" stroke-width="3.749996" fill="none" d="M 91.927330 558.484741 L 93.459450 563.081116 " />
<path stroke-linejoin="round" stroke-linecap="round" stroke="rgb(0,0,255)" stroke-width="1.874998" fill="none" d="M 0.000000 750.000000 L 346.153839 0.000000 " />
<path stroke-linejoin="round" stroke-linecap="round" stroke="rgb(255,0,0)" stroke-width="3.749996" fill="none" d="M 90.444626 554.036621 L 91.927330 558.484741 " />
<path stroke-linejoin="round" stroke-linecap="round" stroke="rgb(0,0,255)" stroke-width="1.874998" fill="none" d="M 0.000000 750.000000 L 325.471710 0.000000 " />
<path stroke-linejoin="round" stroke-linecap="round" stroke="rgb(255,0,0)" stroke-width="3.749996" fill="none" d="M 88.097023 546.993835 L 90.444626 554.036621 " />
<path stroke-linejoin="round" stroke-linecap="round" stroke="rgb(0,0,255)" stroke-width="1.874998" fill="none" d="M 0.000000 750.000000 L 305.555542 0.000000 " />
<path stroke-linejoin="round" stroke-linecap="round" stroke="rgb(255,0,0)" stroke-width="3.749996" fill="none" d="M 85.671165 539.716248 L 88.097023 546.993835 " />
<path stroke-linejoin="round" stroke-linecap="round" stroke="rgb(0,0,255)" stroke-width="1.874998" fill="none" d="M 0.000000 750.000000 L 294.642883 0.000000 " />
<path stroke-linejoin="round" stroke-linecap="round" stroke="rgb(255,0,0)" stroke-width="3.749996" fill="none" d="M 84.266739 535.502869 L 85.671165 539.716248 " />
<path stroke-linejoin="round" stroke-linecap="round" stroke="rgb(0,0,255)" stroke-width="1.874998" fill="none" d="M 0.000000 750.000000 L 284.482758 0.000000 " />
<path stroke-linejoin="round" stroke-linecap="round" stroke="rgb(255,0,0)" stroke-width="3.749996" fill="none" d="M 82.907570 531.425476 L 84.266739 535.502869 " />
<path stroke-linejoin="round" stroke-linecap="round" stroke="rgb(0,0,255)" stroke-width="1.874998" fill="none" d="M 0.000000 750.000000 L 275.000000 0.000000 " />
<path stroke-linejoin="round" stroke-linecap="round" stroke="rgb(255,0,0)" stroke-width="3.749996" fill="none" d="M 81.591591 527.477478 L 82.907570 531.425476 " />
<path stroke-linejoin="round" stroke-linecap="round" stroke="rgb(0,0,255)" stroke-width="1.874998" fill="none" d="M 0.000000 750.000000 L 258.196716 0.000000 " />
<path stroke-linejoin="round" stroke-linecap="round" stroke="rgb(255,0,0)" stroke-width="3.749996" fill="none" d="M 79.139069 520.119873 L 81.591591 527.477478 " />
<path stroke-linejoin="round" stroke-linecap="round" stroke="rgb(0,0,255)" stroke-width="1.874998" fill="none" d="M 0.000000 750.000000 L 241.935501 0.000000 " />
<path stroke-linejoin="round" stroke-linecap="round" stroke="rgb(255,0,0)" stroke-width="3.749996" fill="none" d="M 76.606125 512.521057 L 79.139069 520.119873 " />
<path stroke-linejoin="round" stroke-linecap="round" stroke="rgb(0,0,255)" stroke-width="1.874998" fill="none" d="M 0.000000 750.000000 L 234.375000 0.000000 " />
<path stroke-linejoin="round" stroke-linecap="round" stroke="rgb(255,0,0)" stroke-width="3.749996" fill="none" d="M 75.370544 508.814301 L 76.606125 512.521057 " />
<path stroke-linejoin="round" stroke-linecap="round" stroke="rgb(0,0,255)" stroke-width="1.874998" fill="none" d="M 0.000000 750.000000 L 227.272736 0.000000 " />
<path stroke-linejoin="round" stroke-linecap="round" stroke="rgb(255,0,0)" stroke-width="3.749996" fill="none" d="M 74.174164 505.225220 L 75.370544 508.814301 " />
<path stroke-linejoin="round" stroke-linecap="round" stroke="rgb(0,0,255)" stroke-width="1.874998" fill="none" d="M 0.000000 750.000000 L 212.686569 0.000000 " />
<path stroke-linejoin="round" stroke-linecap="round" stroke="rgb(255,0,0)" stroke-width="3.749996" fill="none" d="M 71.602020 497.508698 L 74.174164 505.225220 " />
<path stroke-linejoin="round" stroke-linecap="round" stroke="rgb(0,0,255)" stroke-width="1.874998" fill="none" d="M 0.000000 750.000000 L 198.529419 0.000000 " />
<path stroke-linejoin="round" stroke-linecap="round" stroke="rgb(255,0,0)" stroke-width="3.749996" fill="none" d="M 68.945511 489.539185 L 71.602020 497.508698 " />
<path stroke-linejoin="round" stroke-linecap="round" stroke="rgb(0,0,255)" stroke-width="1.874998" fill="none" d="M 0.000000 750.000000 L 192.857147 0.000000 " />
<path stroke-linejoin="round" stroke-linecap="round" stroke="rgb(255,0,0)" stroke-width="3.749996" fill="none" d="M 67.833488 486.203125 L 68.945511 489.539185 " />
<path stroke-linejoin="round" stroke-linecap="round" stroke="rgb(0,0,255)" stroke-width="1.874998" fill="none" d="M 0.000000 750.000000 L 179.577469 0.000000 " />
<path stroke-linejoin="round" stroke-linecap="round" stroke="rgb(255,0,0)" stroke-width="3.749996" fill="none" d="M 65.115204 478.048279 L 67.833488 486.203125 " />
<path stroke-linejoin="round" stroke-linecap="round" stroke="rgb(0,0,255)" stroke-width="1.874998" fill="none" d="M 0.000000 750.000000 L 166.666656 0.000000 " />
<path stroke-linejoin="round" stroke-linecap="round" stroke="rgb(255,0,0)" stroke-width="3.749996" fill="none" d="M 62.306309 469.621643 L 65.115181 478.048340 " />
<path stroke-linejoin="round" stroke-linecap="round" stroke="rgb(0,0,255)" stroke-width="1.874998" fill="none" d="M 0.000000 750.000000 L 162.162155 0.000000 " />
<path stroke-linejoin="round" stroke-linecap="round" stroke="rgb(255,0,0)" stroke-width="3.749996" fill="none" d="M 61.284901 466.557373 L 62.306309 469.621643 " />
<path stroke-linejoin="round" stroke-linecap="round" stroke="rgb(0,0,255)" stroke-width="1.874998" fill="none" d="M 0.000000 750.000000 L 149.999985 0.000000 " />
<path stroke-linejoin="round" stroke-linecap="round" stroke="rgb(255,0,0)" stroke-width="3.749996" fill="none" d="M 58.412163 457.939178 L 61.284901 466.557373 " />
<path stroke-linejoin="round" stroke-linecap="round" stroke="rgb(0,0,255)" stroke-width="1.874998" fill="none" d="M 0.000000 750.000000 L 146.103897 0.000000 " />
<path stroke-linejoin="round" stroke-linecap="round" stroke="rgb(255,0,0)" stroke-width="3.749996" fill="none" d="M 57.454594 455.066437 L 58.412163 457.939178 " />
<path stroke-linejoin="round" stroke-linecap="round" stroke="rgb(0,0,255)" stroke-width="1.874998" fill="none" d="M 0.000000 750.000000 L 134.615372 0.000000 " />
<path stroke-linejoin="round" stroke-linecap="round" stroke="rgb(255,0,0)" stroke-width="3.749996" fill="none" d="M 54.518021 446.256714 L 57.454594 455.066437 " />
<path stroke-linejoin="round" stroke-linecap="round" stroke="rgb(0,0,255)" stroke-width="1.874998" fill="none" d="M 0.000000 750.000000 L 131.250015 0.000000 " />
<path stroke-linejoin="round" stroke-linecap="round" stroke="rgb(255,0,0)" stroke-width="3.749996" fill="none" d="M 53.624287 443.575500 L 54.518021 446.256714 " />
<path stroke-linejoin="round" stroke-linecap="round" stroke="rgb(0,0,255)" stroke-width="1.874998" fill="none" d="M 0.000000 750.000000 L 126.623375 0.000000 " />
<path stroke-linejoin="round" stroke-linecap="round" stroke="rgb(255,0,0)" stroke-width="3.749996" fill="none" d="M 52.369526 439.811188 L 53.624287 443.575500 " />
<path stroke-linejoin="round" stroke-linecap="round" stroke="rgb(0,0,255)" stroke-width="1.874998" fill="none" d="M 0.000000 750.000000 L 115.384605 0.000000 " />
<path stroke-linejoin="round" stroke-linecap="round" stroke="rgb(255,0,0)" stroke-width="3.749996" fill="none" d="M 49.210800 430.129822 L 52.369526 439.811188 " />
<path stroke-linejoin="round" stroke-linecap="round" stroke="rgb(0,0,255)" stroke-width="1.874998" fill="none" d="M 0.000000 750.000000 L 110.795441 0.000000 " />
<path stroke-linejoin="round" stroke-linecap="round" stroke="rgb(255,0,0)" stroke-width="3.749996" fill="none" d="M 48.253120 423.363495 L 49.210800 430.129822 " />
<path stroke-linejoin="round" stroke-linecap="round" stroke="rgb(0,0,255)" stroke-width="1.874998" fill="none" d="M 0.000000 750.000000 L 108.333328 0.000000 " />
<path stroke-linejoin="round" stroke-linecap="round" stroke="rgb(255,0,0)" stroke-width="3.749996" fill="none" d="M 47.719940 419.631165 L 48.253120 423.363495 " />
<path stroke-linejoin="round" stroke-linecap="round" stroke="rgb(0,0,255)" stroke-width="1.874998" fill="none" d="M 0.000000 750.000000 L 107.142853 0.000000 " />
<path stroke-linejoin="round" stroke-linecap="round" stroke="rgb(255,0,0)" stroke-width="3.749996" fill="none" d="M 47.352859 418.529938 L 47.719940 419.631165 " />
<path stroke-linejoin="round" stroke-linecap="round" stroke="rgb(0,0,255)" stroke-width="1.874998" fill="none" d="M 0.000000 750.000000 L 104.651169 0.000000 " />
<path stroke-linejoin="round" stroke-linecap="round" stroke="rgb(255,0,0)" stroke-width="3.749996" fill="none" d="M 46.579151 416.182770 L 47.352859 418.529938 " />
<path stroke-linejoin="round" stroke-linecap="round" stroke="rgb(0,0,255)" stroke-width="1.874998" fill="none" d="M 0.000000 750.000000 L 102.272720 0.000000 " />
<path stroke-linejoin="round" stroke-linecap="round" stroke="rgb(255,0,0)" stroke-width="3.749996" fill="none" d="M 45.977108 412.834564 L 46.579151 416.182770 " />
<path stroke-linejoin="round" stroke-linecap="round" stroke="rgb(0,0,255)" stroke-width="1.874998" fill="none" d="M 0.000000 750.000000 L 101.123596 0.000000 " />
<path stroke-linejoin="round" stroke-linecap="round" stroke="rgb(255,0,0)" stroke-width="3.749996" fill="none" d="M 45.702473 411.040039 L 45.977108 412.834564 " />
<path stroke-linejoin="round" stroke-linecap="round" stroke="rgb(0,0,255)" stroke-width="1.874998" fill="none" d="M 0.000000 750.000000 L 98.484856 0.000000 " />
<path stroke-linejoin="round" stroke-linecap="round" stroke="rgb(255,0,0)" stroke-width="3.749996" fill="none" d="M 45.151726 406.152283 L 45.702473 411.040039 " />
<path stroke-linejoin="round" stroke-linecap="round" stroke="rgb(0,0,255)" stroke-width="1.874998" fill="none" d="M 0.000000 750.000000 L 94.827576 0.000000 " />
<path stroke-linejoin="round" stroke-linecap="round" stroke="rgb(255,0,0)" stroke-width="3.749996" fill="none" d="M 44.358036 399.168304 L 45.151726 406.152283 " />
<path stroke-linejoin="round" stroke-linecap="round" stroke="rgb(0,0,255)" stroke-width="1.874998" fill="none" d="M 0.000000 750.000000 L 85.227280 0.000000 " />
<path stroke-linejoin="round" stroke-linecap="round" stroke="rgb(255,0,0)" stroke-width="3.749996" fill="none" d="M 42.135582 379.206818 L 44.358036 399.168274 " />
<path stroke-linejoin="round" stroke-linecap="round" stroke="rgb(0,0,255)" stroke-width="1.874998" fill="none" d="M 0.000000 750.000000 L 75.842697 0.000000 " />
<path stroke-linejoin="round" stroke-linecap="round" stroke="rgb(255,0,0)" stroke-width="3.749996" fill="none" d="M 39.706059 357.351135 L 42.135582 379.206818 " />
<path stroke-linejoin="round" stroke-linecap="round" stroke="rgb(0,0,255)" stroke-width="1.874998" fill="none" d="M 0.000000 750.000000 L 66.666664 0.000000 " />
<path stroke-linejoin="round" stroke-linecap="round" stroke="rgb(255,0,0)" stroke-width="3.749996" fill="none" d="M 37.037083 333.332855 L 39.706059 357.351135 " />
<path stroke-linejoin="round" stroke-linecap="round" stroke="rgb(0,0,255)" stroke-width="1.874998" fill="none" d="M 0.000000 750.000000 L 59.405945 0.000000 " />
<path stroke-linejoin="round" stroke-linecap="round" stroke="rgb(255,0,0)" stroke-width="3.749996" fill="none" d="M 34.682079 312.138641 L 37.037083 333.332855 " />
<path stroke-linejoin="round" stroke-linecap="round" stroke="rgb(0,0,255)" stroke-width="1.874998" fill="none" d="M 0.000000 750.000000 L 53.571426 0.000000 " />
<path stroke-linejoin="round" stroke-linecap="round" stroke="rgb(255,0,0)" stroke-width="3.749996" fill="none" d="M 32.608688 293.478241 L 34.682079 312.138641 " />
<path stroke-linejoin="round" stroke-linecap="round" stroke="rgb(0,0,255)" stroke-width="1.874998" fill="none" d="M 0.000000 750.000000 L 50.970867 0.000000 " />
<path stroke-linejoin="round" stroke-linecap="round" stroke="rgb(255,0,0)" stroke-width="3.749996" fill="none" d="M 31.626507 284.638580 L 32.608688 293.478241 " />
<path stroke-linejoin="round" stroke-linecap="round" stroke="rgb(0,0,255)" stroke-width="1.874998" fill="none" d="M 0.000000 750.000000 L 43.269218 0.000000 " />
<path stroke-linejoin="round" stroke-linecap="round" stroke="rgb(255,0,0)" stroke-width="3.749996" fill="none" d="M 28.481014 256.329132 L 31.626507 284.638641 " />
<path stroke-linejoin="round" stroke-linecap="round" stroke="rgb(0,0,255)" stroke-width="1.874998" fill="none" d="M 0.000000 750.000000 L 42.452843 0.000000 " />
<path stroke-linejoin="round" stroke-linecap="round" stroke="rgb(255,0,0)" stroke-width="3.749996" fill="none" d="M 28.124996 253.125000 L 28.481014 256.329132 " />
<path stroke-linejoin="round" stroke-linecap="round" stroke="rgb(0,0,255)" stroke-width="1.874998" fill="none" d="M 0.000000 750.000000 L 39.473690 0.000000 " />
<path stroke-linejoin="round" stroke-linecap="round" stroke="rgb(255,0,0)" stroke-width="3.749996" fill="none" d="M 26.785725 241.071396 L 28.124996 253.125000 " />
<path stroke-linejoin="round" stroke-linecap="round" stroke="rgb(0,0,255)" stroke-width="1.874998" fill="none" d="M 0.000000 750.000000 L 38.793102 0.000000 " />
<path stroke-linejoin="round" stroke-linecap="round" stroke="rgb(255,0,0)" stroke-width="3.749996" fill="none" d="M 26.470587 238.235306 L 26.785725 241.071396 " />
<path stroke-linejoin="round" stroke-linecap="round" stroke="rgb(0,0,255)" stroke-width="1.874998" fill="none" d="M 0.000000 750.000000 L 38.659798 0.000000 " />
<path stroke-linejoin="round" stroke-linecap="round" stroke="rgb(255,0,0)" stroke-width="3.749996" fill="none" d="M 26.408449 237.676041 L 26.470587 238.235306 " />
<path stroke-linejoin="round" stroke-linecap="round" stroke="rgb(0,0,255)" stroke-width="1.874998" fill="none" d="M 0.000000 750.000000 L 30.612253 0.000000 " />
<path stroke-linejoin="round" stroke-linecap="round" stroke="rgb(255,0,0)" stroke-width="3.749996" fill="none" d="M 22.388063 201.492508 L 26.408449 237.676041 " />
<path stroke-linejoin="round" stroke-linecap="round" stroke="rgb(0,0,255)" stroke-width="1.874998" fill="none" d="M 0.000000 750.000000 L 29.999994 0.000000 " />
<path stroke-linejoin="round" stroke-linecap="round" stroke="rgb(255,0,0)" stroke-width="3.749996" fill="none" d="M 22.058823 198.529465 L 22.388063 201.492508 " />
<path stroke-linejoin="round" stroke-linecap="round" stroke="rgb(0,0,255)" stroke-width="1.874998" fill="none" d="M 0.000000 750.000000 L 29.411762 0.000000 " />
<path stroke-linejoin="round" stroke-linecap="round" stroke="rgb(255,0,0)" stroke-width="3.749996" fill="none" d="M 21.739124 195.652191 L 22.058823 198.529465 " />
<path stroke-linejoin="round" stroke-linecap="round" stroke="rgb(0,0,255)" stroke-width="1.874998" fill="none" d="M 0.000000 750.000000 L 28.301888 0.000000 " />
<path stroke-linejoin="round" stroke-linecap="round" stroke="rgb(255,0,0)" stroke-width="3.749996" fill="none" d="M 21.126755 190.140839 L 21.739124 195.652191 " />
<path stroke-linejoin="round" stroke-linecap="round" stroke="rgb(0,0,255)" stroke-width="1.874998" fill="none" d="M 0.000000 750.000000 L 27.777784 0.000000 " />
<path stroke-linejoin="round" stroke-linecap="round" stroke="rgb(255,0,0)" stroke-width="3.749996" fill="none" d="M 20.833344 187.499954 L 21.126755 190.140839 " />
<path stroke-linejoin="round" stroke-linecap="round" stroke="rgb(0,0,255)" stroke-width="1.874998" fill="none" d="M 0.000000 750.000000 L 27.272724 0.000000 " />
<path stroke-linejoin="round" stroke-linecap="round" stroke="rgb(255,0,0)" stroke-width="3.749996" fill="none" d="M 20.547934 184.931580 L 20.833344 187.500046 " />
<path stroke-linejoin="round" stroke-linecap="round" stroke="rgb(0,0,255)" stroke-width="1.874998" fill="none" d="M 0.000000 750.000000 L 25.641024 0.000000 " />
<path stroke-linejoin="round" stroke-linecap="round" stroke="rgb(255,0,0)" stroke-width="3.749996" fill="none" d="M 19.607841 176.470627 L 20.547934 184.931580 " />
<path stroke-linejoin="round" stroke-linecap="round" stroke="rgb(0,0,255)" stroke-width="1.874998" fill="none" d="M 0.000000 750.000000 L 25.210083 0.000000 " />
<path stroke-linejoin="round" stroke-linecap="round" stroke="rgb(255,0,0)" stroke-width="3.749996" fill="none" d="M 19.354843 174.193558 L 19.607841 176.470627 " />
<path stroke-linejoin="round" stroke-linecap="round" stroke="rgb(0,0,255)" stroke-width="1.874998" fill="none" d="M 0.000000 750.000000 L 23.809523 0.000000 " />
<path stroke-linejoin="round" stroke-linecap="round" stroke="rgb(255,0,0)" stroke-width="3.749996" fill="none" d="M 18.518507 166.666702 L 19.354843 174.193558 " />
<path stroke-linejoin="round" stroke-linecap="round" stroke="rgb(0,0,255)" stroke-width="1.874998" fill="none" d="M 0.000000 750.000000 L 23.437500 0.000000 " />
<path stroke-linejoin="round" stroke-linecap="round" stroke="rgb(255,0,0)" stroke-width="3.749996" fill="none" d="M 18.292688 164.634216 L 18.518507 166.666702 " />
<path stroke-linejoin="round" stroke-linecap="round" stroke="rgb(0,0,255)" stroke-width="1.874998" fill="none" d="M 0.000000 750.000000 L 23.255825 0.000000 " />
<path stroke-linejoin="round" stroke-linecap="round" stroke="rgb(255,0,0)" stroke-width="3.749996" fill="none" d="M 18.181824 163.636429 L 18.292688 164.634216 " />
<path stroke-linejoin="round" stroke-linecap="round" stroke="rgb(0,0,255)" stroke-width="1.874998" fill="none" d="M 0.000000 750.000000 L 21.739124 0.000000 " />
<path stroke-linejoin="round" stroke-linecap="round" stroke="rgb(255,0,0)" stroke-width="3.749996" fill="none" d="M 17.241373 155.172455 L 18.181824 163.636429 " />
<path stroke-linejoin="round" stroke-linecap="round" stroke="rgb(0,0,255)" stroke-width="1.874998" fill="none" d="M 0.000000 750.000000 L 17.441868 0.000000 " />
<path stroke-linejoin="round" stroke-linecap="round" stroke="rgb(255,0,0)" stroke-width="3.749996" fill="none" d="M 14.423087 129.807770 L 17.241373 155.172455 " />
<path stroke-linejoin="round" stroke-linecap="round" stroke="rgb(0,0,255)" stroke-width="1.874998" fill="none" d="M 0.000000 750.000000 L 11.538461 0.000000 " />
<path stroke-linejoin="round" stroke-linecap="round" stroke="rgb(255,0,0)" stroke-width="3.749996" fill="none" d="M 10.135129 91.216270 L 14.423087 129.807770 " />
<path stroke-linejoin="round" stroke-linecap="round" stroke="rgb(0,0,255)" stroke-width="1.874998" fill="none" d="M 0.000000 750.000000 L 5.725197 0.000000 " />
<path stroke-linejoin="round" stroke-linecap="round" stroke="rgb(255,0,0)" stroke-width="3.749996" fill="none" d="M 5.357131 48.214317 L 10.135129 91.216270 " />
<path stroke-linejoin="round" stroke-linecap="round" stroke="rgb(0,0,255)" stroke-width="1.874998" fill="none" d="M 0.000000 750.000000 L 0.000000 0.000000 " />
<path stroke-linejoin="round" stroke-linecap="round" stroke="rgb(255,0,0)" stroke-width="3.749996" fill="none" d="M 0.000000 0.000000 L 5.357154 48.214249 " />
<circle cx="149.660625" cy="746.945724" r="3.749996" style="fill:rgb(0,127,0);stroke-width:1" /><circle cx="148.614630" cy="743.807718" r="3.749996" style="fill:rgb(0,127,0);stroke-width:1" /><circle cx="147.539556" cy="740.582585" r="3.749996" style="fill:rgb(0,127,0);stroke-width:1" /><circle cx="146.434240" cy="737.266593" r="3.749996" style="fill:rgb(0,127,0);stroke-width:1" /><circle cx="145.518467" cy="734.519318" r="3.749996" style="fill:rgb(0,127,0);stroke-width:1" /><circle cx="144.400410" cy="731.165171" r="3.749996" style="fill:rgb(0,127,0);stroke-width:1" /><circle cx="143.250883" cy="727.716520" r="3.749996" style="fill:rgb(0,127,0);stroke-width:1" /><circle cx="142.068475" cy="724.169366" r="3.749996" style="fill:rgb(0,127,0);stroke-width:1" /><circle cx="141.261265" cy="721.747756" r="3.749996" style="fill:rgb(0,127,0);stroke-width:1" /><circle cx="140.851803" cy="720.519394" r="3.749996" style="fill:rgb(0,127,0);stroke-width:1" /><circle cx="140.067503" cy="718.166471" r="3.749996" style="fill:rgb(0,127,0);stroke-width:1" /><circle cx="138.839632" cy="714.482881" r="3.749996" style="fill:rgb(0,127,0);stroke-width:1" /><circle cx="137.576178" cy="710.692517" r="3.749996" style="fill:rgb(0,127,0);stroke-width:1" /><circle cx="136.275575" cy="706.790663" r="3.749996" style="fill:rgb(0,127,0);stroke-width:1" /><circle cx="135.610834" cy="704.796396" r="3.749996" style="fill:rgb(0,127,0);stroke-width:1" /><circle cx="134.936124" cy="702.772357" r="3.749996" style="fill:rgb(0,127,0);stroke-width:1" /><circle cx="134.300552" cy="700.865641" r="3.749996" style="fill:rgb(0,127,0);stroke-width:1" /><circle cx="132.951781" cy="696.819283" r="3.749996" style="fill:rgb(0,127,0);stroke-width:1" /><circle cx="131.562732" cy="692.652136" r="3.749996" style="fill:rgb(0,127,0);stroke-width:1" /><circle cx="131.024927" cy="691.038787" r="3.749996" style="fill:rgb(0,127,0);stroke-width:1" /><circle cx="129.627988" cy="686.847903" r="3.749996" style="fill:rgb(0,127,0);stroke-width:1" /><circle cx="129.153147" cy="685.423426" r="3.749996" style="fill:rgb(0,127,0);stroke-width:1" /><circle cx="127.590805" cy="680.736423" r="3.749996" style="fill:rgb(0,127,0);stroke-width:1" /><circle cx="125.977255" cy="675.895728" r="3.749996" style="fill:rgb(0,127,0);stroke-width:1" /><circle cx="125.565559" cy="674.660660" r="3.749996" style="fill:rgb(0,127,0);stroke-width:1" /><circle cx="124.309927" cy="670.893699" r="3.749996" style="fill:rgb(0,127,0);stroke-width:1" /><circle cx="123.945370" cy="669.800051" r="3.749996" style="fill:rgb(0,127,0);stroke-width:1" /><circle cx="122.586049" cy="665.722087" r="3.749996" style="fill:rgb(0,127,0);stroke-width:1" /><circle cx="122.272030" cy="664.780095" r="3.749996" style="fill:rgb(0,127,0);stroke-width:1" /><circle cx="120.802715" cy="660.372175" r="3.749996" style="fill:rgb(0,127,0);stroke-width:1" /><circle cx="120.542943" cy="659.592792" r="3.749996" style="fill:rgb(0,127,0);stroke-width:1" /><circle cx="118.956864" cy="654.834509" r="3.749996" style="fill:rgb(0,127,0);stroke-width:1" /><circle cx="118.755251" cy="654.229648" r="3.749996" style="fill:rgb(0,127,0);stroke-width:1" /><circle cx="116.905868" cy="648.681588" r="3.749996" style="fill:rgb(0,127,0);stroke-width:1" /><circle cx="116.775960" cy="648.291886" r="3.749996" style="fill:rgb(0,127,0);stroke-width:1" /><circle cx="114.924408" cy="642.737210" r="3.749996" style="fill:rgb(0,127,0);stroke-width:1" /><circle cx="114.861622" cy="642.548807" r="3.749996" style="fill:rgb(0,127,0);stroke-width:1" /><circle cx="113.009021" cy="636.990979" r="3.749996" style="fill:rgb(0,127,0);stroke-width:1" /><circle cx="111.026421" cy="631.043136" r="3.749996" style="fill:rgb(0,127,0);stroke-width:1" /><circle cx="109.112173" cy="625.300370" r="3.749996" style="fill:rgb(0,127,0);stroke-width:1" /><circle cx="107.262790" cy="619.752310" r="3.749996" style="fill:rgb(0,127,0);stroke-width:1" /><circle cx="103.447482" cy="593.045197" r="3.749996" style="fill:rgb(0,127,0);stroke-width:1" /><circle cx="103.418246" cy="592.957467" r="3.749996" style="fill:rgb(0,127,0);stroke-width:1" /><circle cx="101.247758" cy="586.445935" r="3.749996" style="fill:rgb(0,127,0);stroke-width:1" /><circle cx="99.587962" cy="581.466548" r="3.749996" style="fill:rgb(0,127,0);stroke-width:1" /><circle cx="97.981676" cy="576.647803" r="3.749996" style="fill:rgb(0,127,0);stroke-width:1" /><circle cx="95.757633" cy="569.975652" r="3.749996" style="fill:rgb(0,127,0);stroke-width:1" /><circle cx="93.459450" cy="563.081101" r="3.749996" style="fill:rgb(0,127,0);stroke-width:1" /><circle cx="91.927327" cy="558.484733" r="3.749996" style="fill:rgb(0,127,0);stroke-width:1" /><circle cx="90.444624" cy="554.036647" r="3.749996" style="fill:rgb(0,127,0);stroke-width:1" /><circle cx="88.097021" cy="546.993826" r="3.749996" style="fill:rgb(0,127,0);stroke-width:1" /><circle cx="85.671164" cy="539.716221" r="3.749996" style="fill:rgb(0,127,0);stroke-width:1" /><circle cx="84.266737" cy="535.502873" r="3.749996" style="fill:rgb(0,127,0);stroke-width:1" /><circle cx="82.907572" cy="531.425469" r="3.749996" style="fill:rgb(0,127,0);stroke-width:1" /><circle cx="81.591591" cy="527.477480" r="3.749996" style="fill:rgb(0,127,0);stroke-width:1" /><circle cx="79.139069" cy="520.119879" r="3.749996" style="fill:rgb(0,127,0);stroke-width:1" /><circle cx="76.606125" cy="512.521036" r="3.749996" style="fill:rgb(0,127,0);stroke-width:1" /><circle cx="75.370543" cy="508.814279" r="3.749996" style="fill:rgb(0,127,0);stroke-width:1" /><circle cx="74.174166" cy="505.225237" r="3.749996" style="fill:rgb(0,127,0);stroke-width:1" /><circle cx="71.602017" cy="497.508701" r="3.749996" style="fill:rgb(0,127,0);stroke-width:1" /><circle cx="68.945512" cy="489.539176" r="3.749996" style="fill:rgb(0,127,0);stroke-width:1" /><circle cx="67.833491" cy="486.203112" r="3.749996" style="fill:rgb(0,127,0);stroke-width:1" /><circle cx="65.115206" cy="478.048269" r="3.749996" style="fill:rgb(0,127,0);stroke-width:1" /><circle cx="62.306307" cy="469.621606" r="3.749996" style="fill:rgb(0,127,0);stroke-width:1" /><circle cx="61.284900" cy="466.557384" r="3.749996" style="fill:rgb(0,127,0);stroke-width:1" /><circle cx="58.412164" cy="457.939178" r="3.749996" style="fill:rgb(0,127,0);stroke-width:1" /><circle cx="57.454593" cy="455.066442" r="3.749996" style="fill:rgb(0,127,0);stroke-width:1" /><circle cx="54.518022" cy="446.256710" r="3.749996" style="fill:rgb(0,127,0);stroke-width:1" /><circle cx="53.624287" cy="443.575501" r="3.749996" style="fill:rgb(0,127,0);stroke-width:1" /><circle cx="52.369528" cy="439.811217" r="3.749996" style="fill:rgb(0,127,0);stroke-width:1" /><circle cx="49.210802" cy="430.129800" r="3.749996" style="fill:rgb(0,127,0);stroke-width:1" /><circle cx="48.253119" cy="423.363481" r="3.749996" style="fill:rgb(0,127,0);stroke-width:1" /><circle cx="47.719941" cy="419.631170" r="3.749996" style="fill:rgb(0,127,0);stroke-width:1" /><circle cx="47.352858" cy="418.529928" r="3.749996" style="fill:rgb(0,127,0);stroke-width:1" /><circle cx="46.579152" cy="416.182780" r="3.749996" style="fill:rgb(0,127,0);stroke-width:1" /><circle cx="45.977108" cy="412.834561" r="3.749996" style="fill:rgb(0,127,0);stroke-width:1" /><circle cx="45.702472" cy="411.040021" r="3.749996" style="fill:rgb(0,127,0);stroke-width:1" /><circle cx="45.151725" cy="406.152285" r="3.749996" style="fill:rgb(0,127,0);stroke-width:1" /><circle cx="44.358037" cy="399.168313" r="3.749996" style="fill:rgb(0,127,0);stroke-width:1" /><circle cx="42.135581" cy="379.206812" r="3.749996" style="fill:rgb(0,127,0);stroke-width:1" /><circle cx="39.706059" cy="357.351136" r="3.749996" style="fill:rgb(0,127,0);stroke-width:1" /><circle cx="37.037082" cy="333.332850" r="3.749996" style="fill:rgb(0,127,0);stroke-width:1" /><circle cx="34.682080" cy="312.138643" r="3.749996" style="fill:rgb(0,127,0);stroke-width:1" /><circle cx="32.608688" cy="293.478224" r="3.749996" style="fill:rgb(0,127,0);stroke-width:1" /><circle cx="31.626508" cy="284.638597" r="3.749996" style="fill:rgb(0,127,0);stroke-width:1" /><circle cx="28.481014" cy="256.329127" r="3.749996" style="fill:rgb(0,127,0);stroke-width:1" /><circle cx="28.124996" cy="253.125004" r="3.749996" style="fill:rgb(0,127,0);stroke-width:1" /><circle cx="26.785724" cy="241.071403" r="3.749996" style="fill:rgb(0,127,0);stroke-width:1" /><circle cx="26.470587" cy="238.235302" r="3.749996" style="fill:rgb(0,127,0);stroke-width:1" /><circle cx="26.408449" cy="237.676051" r="3.749996" style="fill:rgb(0,127,0);stroke-width:1" /><circle cx="22.388063" cy="201.492514" r="3.749996" style="fill:rgb(0,127,0);stroke-width:1" /><circle cx="22.058822" cy="198.529456" r="3.749996" style="fill:rgb(0,127,0);stroke-width:1" /><circle cx="21.739125" cy="195.652194" r="3.749996" style="fill:rgb(0,127,0);stroke-width:1" /><circle cx="21.126755" cy="190.140836" r="3.749996" style="fill:rgb(0,127,0);stroke-width:1" /><circle cx="20.833343" cy="187.499955" r="3.749996" style="fill:rgb(0,127,0);stroke-width:1" /><circle cx="20.547934" cy="184.931584" r="3.749996" style="fill:rgb(0,127,0);stroke-width:1" /><circle cx="19.607842" cy="176.470622" r="3.749996" style="fill:rgb(0,127,0);stroke-width:1" /><circle cx="19.354843" cy="174.193561" r="3.749996" style="fill:rgb(0,127,0);stroke-width:1" /><circle cx="18.518507" cy="166.666701" r="3.749996" style="fill:rgb(0,127,0);stroke-width:1" /><circle cx="18.292688" cy="164.634213" r="3.749996" style="fill:rgb(0,127,0);stroke-width:1" /><circle cx="18.181823" cy="163.636431" r="3.749996" style="fill:rgb(0,127,0);stroke-width:1" /><circle cx="17.241374" cy="155.172452" r="3.749996" style="fill:rgb(0,127,0);stroke-width:1" /><circle cx="14.423087" cy="129.807763" r="3.749996" style="fill:rgb(0,127,0);stroke-width:1" /><circle cx="10.135129" cy="91.216274" r="3.749996" style="fill:rgb(0,127,0);stroke-width:1" /><circle cx="5.357131" cy="48.214316" r="3.749996" style="fill:rgb(0,127,0);stroke-width:1" /><circle cx="750.000000" cy="750.000000" r="3.749996" style="fill:rgb(0,127,0);stroke-width:1" /><path stroke-linejoin="round" stroke-linecap="round" stroke="rgb(255,255,255)" stroke-width="3.749996" fill="none" d="M 0.000000 750.000000 L 750.000000 750.000000 M 0.000000 750.000000 L 0.000000 0.000000 " />

</svg>