<svg xmlns="http://www.w3.org/2000/svg" version="1.1" width = "750" height = "750" viewBox = "0 0 750 750"  shape-rendering="crispEdges">
<path stroke-linejoin="round" stroke-linecap="round" stroke="rgb(255,255,0)" stroke-width="3.749996" fill="none" d="M 149.999985 750.000000 L 0.000000 0.000000 " />
<path stroke-linejoin="round" stroke-linecap="round" stroke="rgb(63,63,63)" stroke-width="3.749996" fill="none" d="M 0.000000 0.000000 L 750.000000 750.000000 M 149.999985 750.000000 L 66.666664 0.000000 " />
<path stroke-linejoin="round" stroke-linecap="round" stroke="rgb(191,191,191)" stroke-width="3.749996" fill="none" d="M 0.000000 600.000000 L 149.999985 750.000000 M 0.000000 0.000000 L 83.333328 750.000000 " />
<path stroke-linejoin="round" stroke-linecap="round" stroke="rgb(0,0,255)" stroke-width="1.874998" fill="none" d="M 0.000000 750.000000 L 750.000000 727.941162 " />
<path stroke-linejoin="round" stroke-linecap="round" stroke="rgb(255,0,0)" stroke-width="3.749996" fill="none" d="M 149.511429 745.602600 L 149.999985 750.000000 " />
<path stroke-linejoin="round" stroke-linecap="round" stroke="rgb(0,0,255)" stroke-width="1.874998" fill="none" d="M 0.000000 750.000000 L 750.000000 704.545471 " />
<path stroke-linejoin="round" stroke-linecap="round" stroke="rgb(255,0,0)" stroke-width="3.749996" fill="none" d="M 145.114029 741.205200 L 149.511429 745.602600 " />
<path stroke-linejoin="round" stroke-linecap="round" stroke="rgb(0,0,255)" stroke-width="1.874998" fill="none" d="M 0.000000 750.000000 L 750.000000 679.687500 " />
<path stroke-linejoin="round" stroke-linecap="round" stroke="rgb(255,0,0)" stroke-width="3.749996" fill="none" d="M 140.716644 736.807800 L 145.114029 741.205200 " />
<path stroke-linejoin="round" stroke-linecap="round" stroke="rgb(0,0,255)" stroke-width="1.874998" fill="none" d="M 0.000000 750.000000 L 750.000000 659.090881 " />
<path stroke-linejoin="round" stroke-linecap="round" stroke="rgb(255,0,0)" stroke-width="3.749996" fill="none" d="M 137.270050 733.361206 L 140.716644 736.807800 " />
<path stroke-linejoin="round" stroke-linecap="round" stroke="rgb(0,0,255)" stroke-width="1.874998" fill="none" d="M 0.000000 750.000000 L 750.000000 653.225830 " />
<path stroke-linejoin="round" stroke-linecap="round" stroke="rgb(255,0,0)" stroke-width="3.749996" fill="none" d="M 136.319244 732.410400 L 137.270050 733.361206 " />
<path stroke-linejoin="round" stroke-linecap="round" stroke="rgb(0,0,255)" stroke-width="1.874998" fill="none" d="M 0.000000 750.000000 L 750.000000 632.812500 " />
<path stroke-linejoin="round" stroke-linecap="round" stroke="rgb(255,0,0)" stroke-width="3.749996" fill="none" d="M 133.110352 729.201538 L 136.319244 732.410400 " />
<path stroke-linejoin="round" stroke-linecap="round" stroke="rgb(0,0,255)" stroke-width="1.874998" fill="none" d="M 0.000000 750.000000 L 750.000000 625.000000 " />
<path stroke-linejoin="round" stroke-linecap="round" stroke="rgb(255,0,0)" stroke-width="3.749996" fill="none" d="M 131.921860 728.013062 L 133.110352 729.201538 " />
<path stroke-linejoin="round" stroke-linecap="round" stroke="rgb(0,0,255)" stroke-width="1.874998" fill="none" d="M 0.000000 750.000000 L 750.000000 604.838684 " />
<path stroke-linejoin="round" stroke-linecap="round" stroke="rgb(255,0,0)" stroke-width="3.749996" fill="none" d="M 128.950638 725.041809 L 131.921860 728.013062 " />
<path stroke-linejoin="round" stroke-linecap="round" stroke="rgb(0,0,255)" stroke-width="1.874998" fill="none" d="M 0.000000 750.000000 L 750.000000 575.000000 " />
<path stroke-linejoin="round" stroke-linecap="round" stroke="rgb(255,0,0)" stroke-width="3.749996" fill="none" d="M 124.790939 720.882141 L 128.950638 725.041809 " />
<path stroke-linejoin="round" stroke-linecap="round" stroke="rgb(0,0,255)" stroke-width="1.874998" fill="none" d="M 0.000000 750.000000 L 750.000000 556.451599 " />
<path stroke-linejoin="round" stroke-linecap="round" stroke="rgb(255,0,0)" stroke-width="3.749996" fill="none" d="M 122.337791 718.428955 L 124.790939 720.882141 " />
<path stroke-linejoin="round" stroke-linecap="round" stroke="rgb(0,0,255)" stroke-width="1.874998" fill="none" d="M 0.000000 750.000000 L 750.000000 543.103455 " />
<path stroke-linejoin="round" stroke-linecap="round" stroke="rgb(255,0,0)" stroke-width="3.749996" fill="none" d="M 120.631233 716.722412 L 122.337791 718.428955 " />
<path stroke-linejoin="round" stroke-linecap="round" stroke="rgb(0,0,255)" stroke-width="1.874998" fill="none" d="M 0.000000 750.000000 L 750.000000 508.928589 " />
<path stroke-linejoin="round" stroke-linecap="round" stroke="rgb(255,0,0)" stroke-width="3.749996" fill="none" d="M 116.471527 712.562683 L 120.631233 716.722412 " />
<path stroke-linejoin="round" stroke-linecap="round" stroke="rgb(0,0,255)" stroke-width="1.874998" fill="none" d="M 0.000000 750.000000 L 750.000000 472.222198 " />
<path stroke-linejoin="round" stroke-linecap="round" stroke="rgb(255,0,0)" stroke-width="3.749996" fill="none" d="M 112.311844 708.403076 L 116.471527 712.562683 " />
<path stroke-linejoin="round" stroke-linecap="round" stroke="rgb(0,0,255)" stroke-width="1.874998" fill="none" d="M 0.000000 750.000000 L 750.000000 455.357147 " />
<path stroke-linejoin="round" stroke-linecap="round" stroke="rgb(255,0,0)" stroke-width="3.749996" fill="none" d="M 110.498650 706.589783 L 112.311844 708.403076 " />
<path stroke-linejoin="round" stroke-linecap="round" stroke="rgb(0,0,255)" stroke-width="1.874998" fill="none" d="M 0.000000 750.000000 L 750.000000 432.692291 " />
<path stroke-linejoin="round" stroke-linecap="round" stroke="rgb(255,0,0)" stroke-width="3.749996" fill="none" d="M 108.152168 704.243286 L 110.498650 706.589783 " />
<path stroke-linejoin="round" stroke-linecap="round" stroke="rgb(0,0,255)" stroke-width="1.874998" fill="none" d="M 0.000000 750.000000 L 750.000000 390.000000 " />
<path stroke-linejoin="round" stroke-linecap="round" stroke="rgb(255,0,0)" stroke-width="3.749996" fill="none" d="M 103.992462 700.083618 L 108.152168 704.243286 " />
<path stroke-linejoin="round" stroke-linecap="round" stroke="rgb(0,0,255)" stroke-width="1.874998" fill="none" d="M 0.000000 750.000000 L 750.000000 343.750000 " />
<path stroke-linejoin="round" stroke-linecap="round" stroke="rgb(255,0,0)" stroke-width="3.749996" fill="none" d="M 99.832756 695.923889 L 103.992462 700.083618 " />
<path stroke-linejoin="round" stroke-linecap="round" stroke="rgb(0,0,255)" stroke-width="1.874998" fill="none" d="M 0.000000 750.000000 L 750.000000 330.000000 " />
<path stroke-linejoin="round" stroke-linecap="round" stroke="rgb(255,0,0)" stroke-width="3.749996" fill="none" d="M 98.659515 694.750671 L 99.832733 695.923950 " />
<path stroke-linejoin="round" stroke-linecap="round" stroke="rgb(0,0,255)" stroke-width="1.874998" fill="none" d="M 0.000000 750.000000 L 750.000000 293.478271 " />
<path stroke-linejoin="round" stroke-linecap="round" stroke="rgb(255,0,0)" stroke-width="3.749996" fill="none" d="M 95.673058 691.764221 L 98.659515 694.750671 " />
<path stroke-linejoin="round" stroke-linecap="round" stroke="rgb(0,0,255)" stroke-width="1.874998" fill="none" d="M 0.000000 750.000000 L 750.000000 281.250000 " />
<path stroke-linejoin="round" stroke-linecap="round" stroke="rgb(255,0,0)" stroke-width="3.749996" fill="none" d="M 94.713112 690.804260 L 95.673058 691.764221 " />
<path stroke-linejoin="round" stroke-linecap="round" stroke="rgb(0,0,255)" stroke-width="1.874998" fill="none" d="M 0.000000 750.000000 L 750.000000 228.260864 " />
<path stroke-linejoin="round" stroke-linecap="round" stroke="rgb(255,0,0)" stroke-width="3.749996" fill="none" d="M 90.766739 686.857910 L 94.713112 690.804260 " />
<path stroke-linejoin="round" stroke-linecap="round" stroke="rgb(0,0,255)" stroke-width="1.874998" fill="none" d="M 0.000000 750.000000 L 750.000000 170.454559 " />
<path stroke-linejoin="round" stroke-linecap="round" stroke="rgb(255,0,0)" stroke-width="3.749996" fill="none" d="M 86.820358 682.911499 L 90.766739 686.857910 " />
<path stroke-linejoin="round" stroke-linecap="round" stroke="rgb(0,0,255)" stroke-width="1.874998" fill="none" d="M 0.000000 750.000000 L 750.000000 163.043488 " />
<path stroke-linejoin="round" stroke-linecap="round" stroke="rgb(255,0,0)" stroke-width="3.749996" fill="none" d="M 86.339104 682.430298 L 86.820358 682.911499 " />
<path stroke-linejoin="round" stroke-linecap="round" stroke="rgb(0,0,255)" stroke-width="1.874998" fill="none" d="M 0.000000 750.000000 L 750.000000 107.142853 " />
<path stroke-linejoin="round" stroke-linecap="round" stroke="rgb(255,0,0)" stroke-width="3.749996" fill="none" d="M 82.873978 678.965210 L 86.339104 682.430298 " />
<path stroke-linejoin="round" stroke-linecap="round" stroke="rgb(0,0,255)" stroke-width="1.874998" fill="none" d="M 0.000000 750.000000 L 750.000000 102.272720 " />
<path stroke-linejoin="round" stroke-linecap="round" stroke="rgb(255,0,0)" stroke-width="3.749996" fill="none" d="M 82.585213 678.676392 L 82.873978 678.965210 " />
<path stroke-linejoin="round" stroke-linecap="round" stroke="rgb(0,0,255)" stroke-width="1.874998" fill="none" d="M 0.000000 750.000000 L 750.000000 35.714283 " />
<path stroke-linejoin="round" stroke-linecap="round" stroke="rgb(255,0,0)" stroke-width="3.749996" fill="none" d="M 78.831329 674.922546 L 82.585213 678.676392 " />
<path stroke-linejoin="round" stroke-linecap="round" stroke="rgb(0,0,255)" stroke-width="1.874998" fill="none" d="M 0.000000 750.000000 L 750.000000 34.090919 " />
<path stroke-linejoin="round" stroke-linecap="round" stroke="rgb(255,0,0)" stroke-width="3.749996" fill="none" d="M 78.744026 674.835266 L 78.831329 674.922546 " />
<path stroke-linejoin="round" stroke-linecap="round" stroke="rgb(0,0,255)" stroke-width="1.874998" fill="none" d="M 0.000000 750.000000 L 714.285767 0.000000 " />
<path stroke-linejoin="round" stroke-linecap="round" stroke="rgb(255,0,0)" stroke-width="3.749996" fill="none" d="M 75.077469 671.168640 L 78.744026 674.835266 " />
<path stroke-linejoin="round" stroke-linecap="round" stroke="rgb(0,0,255)" stroke-width="1.874998" fill="none" d="M 0.000000 750.000000 L 647.727295 0.000000 " />
<path stroke-linejoin="round" stroke-linecap="round" stroke="rgb(255,0,0)" stroke-width="3.749996" fill="none" d="M 73.834198 664.507751 L 75.077446 671.168640 " />
<path stroke-linejoin="round" stroke-linecap="round" stroke="rgb(0,0,255)" stroke-width="1.874998" fill="none" d="M 0.000000 750.000000 L 593.750000 0.000000 " />
<path stroke-linejoin="round" stroke-linecap="round" stroke="rgb(255,0,0)" stroke-width="3.749996" fill="none" d="M 73.076920 657.692322 L 73.834198 664.507751 " />
<path stroke-linejoin="round" stroke-linecap="round" stroke="rgb(0,0,255)" stroke-width="1.874998" fill="none" d="M 0.000000 750.000000 L 540.000000 0.000000 " />
<path stroke-linejoin="round" stroke-linecap="round" stroke="rgb(255,0,0)" stroke-width="3.749996" fill="none" d="M 72.192505 649.732605 L 73.076920 657.692322 " />
<path stroke-linejoin="round" stroke-linecap="round" stroke="rgb(0,0,255)" stroke-width="1.874998" fill="none" d="M 0.000000 750.000000 L 490.384613 0.000000 " />
<path stroke-linejoin="round" stroke-linecap="round" stroke="rgb(255,0,0)" stroke-width="3.749996" fill="none" d="M 71.229057 641.061462 L 72.192505 649.732605 " />
<path stroke-linejoin="round" stroke-linecap="round" stroke="rgb(0,0,255)" stroke-width="1.874998" fill="none" d="M 0.000000 750.000000 L 455.357147 0.000000 " />
<path stroke-linejoin="round" stroke-linecap="round" stroke="rgb(255,0,0)" stroke-width="3.749996" fill="none" d="M 70.441986 633.977905 L 71.229057 641.061462 " />
<path stroke-linejoin="round" stroke-linecap="round" stroke="rgb(0,0,255)" stroke-width="1.874998" fill="none" d="M 0.000000 750.000000 L 435.483856 0.000000 " />
<path stroke-linejoin="round" stroke-linecap="round" stroke="rgb(255,0,0)" stroke-width="3.749996" fill="none" d="M 69.948189 629.533691 L 70.441986 633.977905 " />
<path stroke-linejoin="round" stroke-linecap="round" stroke="rgb(0,0,255)" stroke-width="1.874998" fill="none" d="M 0.000000 750.000000 L 425.000000 0.000000 " />
<path stroke-linejoin="round" stroke-linecap="round" stroke="rgb(255,0,0)" stroke-width="3.749996" fill="none" d="M 69.672119 627.049133 L 69.948189 629.533691 " />
<path stroke-linejoin="round" stroke-linecap="round" stroke="rgb(0,0,255)" stroke-width="1.874998" fill="none" d="M 0.000000 750.000000 L 398.437500 0.000000 " />
<path stroke-linejoin="round" stroke-linecap="round" stroke="rgb(255,0,0)" stroke-width="3.749996" fill="none" d="M 68.918915 620.270264 L 69.672119 627.049133 " />
<path stroke-linejoin="round" stroke-linecap="round" stroke="rgb(0,0,255)" stroke-width="1.874998" fill="none" d="M 0.000000 750.000000 L 375.000000 0.000000 " />
<path stroke-linejoin="round" stroke-linecap="round" stroke="rgb(255,0,0)" stroke-width="3.749996" fill="none" d="M 68.181824 613.636414 L 68.918915 620.270264 " />
<path stroke-linejoin="round" stroke-linecap="round" stroke="rgb(0,0,255)" stroke-width="1.874998" fill="none" d="M 0.000000 750.000000 L 354.166656 0.000000 " />
<path stroke-linejoin="round" stroke-linecap="round" stroke="rgb(255,0,0)" stroke-width="3.749996" fill="none" d="M 67.460304 607.142883 L 68.181824 613.636414 " />
<path stroke-linejoin="round" stroke-linecap="round" stroke="rgb(0,0,255)" stroke-width="1.874998" fill="none" d="M 0.000000 750.000000 L 335.526306 0.000000 " />
<path stroke-linejoin="round" stroke-linecap="round" stroke="rgb(255,0,0)" stroke-width="3.749996" fill="none" d="M 66.753922 600.785339 L 67.460304 607.142883 " />
<path stroke-linejoin="round" stroke-linecap="round" stroke="rgb(0,0,255)" stroke-width="1.874998" fill="none" d="M 0.000000 750.000000 L 324.324341 0.000000 " />
<path stroke-linejoin="round" stroke-linecap="round" stroke="rgb(255,0,0)" stroke-width="3.749996" fill="none" d="M 66.298325 596.685120 L 66.753922 600.785339 " />
<path stroke-linejoin="round" stroke-linecap="round" stroke="rgb(0,0,255)" stroke-width="1.874998" fill="none" d="M 0.000000 750.000000 L 296.052643 0.000000 " />
<path stroke-linejoin="round" stroke-linecap="round" stroke="rgb(255,0,0)" stroke-width="3.749996" fill="none" d="M 65.028908 585.260132 L 66.298325 596.685120 " />
<path stroke-linejoin="round" stroke-linecap="round" stroke="rgb(0,0,255)" stroke-width="1.874998" fill="none" d="M 0.000000 750.000000 L 281.250000 0.000000 " />
<path stroke-linejoin="round" stroke-linecap="round" stroke="rgb(255,0,0)" stroke-width="3.749996" fill="none" d="M 64.285713 578.571411 L 65.028908 585.260132 " />
<path stroke-linejoin="round" stroke-linecap="round" stroke="rgb(0,0,255)" stroke-width="1.874998" fill="none" d="M 0.000000 750.000000 L 256.097565 0.000000 " />
<path stroke-linejoin="round" stroke-linecap="round" stroke="rgb(255,0,0)" stroke-width="3.749996" fill="none" d="M 62.874241 565.868286 L 64.285713 578.571411 " />
<path stroke-linejoin="round" stroke-linecap="round" stroke="rgb(0,0,255)" stroke-width="1.874998" fill="none" d="M 0.000000 750.000000 L 244.186050 0.000000 " />
<path stroke-linejoin="round" stroke-linecap="round" stroke="rgb(255,0,0)" stroke-width="3.749996" fill="none" d="M 62.130177 559.171631 L 62.874241 565.868286 " />
<path stroke-linejoin="round" stroke-linecap="round" stroke="rgb(0,0,255)" stroke-width="1.874998" fill="none" d="M 0.000000 750.000000 L 223.404251 0.000000 " />
<path stroke-linejoin="round" stroke-linecap="round" stroke="rgb(255,0,0)" stroke-width="3.749996" fill="none" d="M 60.693630 546.242798 L 62.130177 559.171631 " />
<path stroke-linejoin="round" stroke-linecap="round" stroke="rgb(0,0,255)" stroke-width="1.874998" fill="none" d="M 0.000000 750.000000 L 214.285721 0.000000 " />
<path stroke-linejoin="round" stroke-linecap="round" stroke="rgb(255,0,0)" stroke-width="3.749996" fill="none" d="M 59.999989 540.000000 L 60.693630 546.242798 " />
<path stroke-linejoin="round" stroke-linecap="round" stroke="rgb(0,0,255)" stroke-width="1.874998" fill="none" d="M 0.000000 750.000000 L 205.882370 0.000000 " />
<path stroke-linejoin="round" stroke-linecap="round" stroke="rgb(255,0,0)" stroke-width="3.749996" fill="none" d="M 59.322037 533.898376 L 59.999989 540.000000 " />
<path stroke-linejoin="round" stroke-linecap="round" stroke="rgb(0,0,255)" stroke-width="1.874998" fill="none" d="M 0.000000 750.000000 L 198.113205 0.000000 " />
<path stroke-linejoin="round" stroke-linecap="round" stroke="rgb(255,0,0)" stroke-width="3.749996" fill="none" d="M 58.659218 527.932983 L 59.322037 533.898376 " />
<path stroke-linejoin="round" stroke-linecap="round" stroke="rgb(0,0,255)" stroke-width="1.874998" fill="none" d="M 0.000000 750.000000 L 190.909088 0.000000 " />
<path stroke-linejoin="round" stroke-linecap="round" stroke="rgb(255,0,0)" stroke-width="3.749996" fill="none" d="M 58.011040 522.099426 L 58.659218 527.932983 " />
<path stroke-linejoin="round" stroke-linecap="round" stroke="rgb(0,0,255)" stroke-width="1.874998" fill="none" d="M 0.000000 750.000000 L 187.500000 0.000000 " />
<path stroke-linejoin="round" stroke-linecap="round" stroke="rgb(255,0,0)" stroke-width="3.749996" fill="none" d="M 57.692303 519.230774 L 58.011040 522.099426 " />
<path stroke-linejoin="round" stroke-linecap="round" stroke="rgb(0,0,255)" stroke-width="1.874998" fill="none" d="M 0.000000 750.000000 L 180.555542 0.000000 " />
<path stroke-linejoin="round" stroke-linecap="round" stroke="rgb(255,0,0)" stroke-width="3.749996" fill="none" d="M 57.017529 513.157898 L 57.692303 519.230774 " />
<path stroke-linejoin="round" stroke-linecap="round" stroke="rgb(0,0,255)" stroke-width="1.874998" fill="none" d="M 0.000000 750.000000 L 163.636337 0.000000 " />
<path stroke-linejoin="round" stroke-linecap="round" stroke="rgb(255,0,0)" stroke-width="3.749996" fill="none" d="M 55.214725 496.932556 L 57.017529 513.157898 " />
<path stroke-linejoin="round" stroke-linecap="round" stroke="rgb(0,0,255)" stroke-width="1.874998" fill="none" d="M 0.000000 750.000000 L 157.894745 0.000000 " />
<path stroke-linejoin="round" stroke-linecap="round" stroke="rgb(255,0,0)" stroke-width="3.749996" fill="none" d="M 54.545448 490.909119 L 55.214725 496.932556 " />
<path stroke-linejoin="round" stroke-linecap="round" stroke="rgb(0,0,255)" stroke-width="1.874998" fill="none" d="M 0.000000 750.000000 L 149.999985 0.000000 " />
<path stroke-linejoin="round" stroke-linecap="round" stroke="rgb(255,0,0)" stroke-width="3.749996" fill="none" d="M 53.571426 482.142883 L 54.545448 490.909119 " />
<path stroke-linejoin="round" stroke-linecap="round" stroke="rgb(0,0,255)" stroke-width="1.874998" fill="none" d="M 0.000000 750.000000 L 147.540985 0.000000 " />
<path stroke-linejoin="round" stroke-linecap="round" stroke="rgb(255,0,0)" stroke-width="3.749996" fill="none" d="M 53.254433 479.289978 L 53.571426 482.142883 " />
<path stroke-linejoin="round" stroke-linecap="round" stroke="rgb(0,0,255)" stroke-width="1.874998" fill="none" d="M 0.000000 750.000000 L 142.857132 0.000000 " />
<path stroke-linejoin="round" stroke-linecap="round" stroke="rgb(255,0,0)" stroke-width="3.749996" fill="none" d="M 52.631580 473.684296 L 53.254433 479.290009 " />
<path stroke-linejoin="round" stroke-linecap="round" stroke="rgb(0,0,255)" stroke-width="1.874998" fill="none" d="M 0.000000 750.000000 L 133.561646 0.000000 " />
<path stroke-linejoin="round" stroke-linecap="round" stroke="rgb(255,0,0)" stroke-width="3.749996" fill="none" d="M 51.315777 461.842194 L 52.631580 473.684296 " />
<path stroke-linejoin="round" stroke-linecap="round" stroke="rgb(0,0,255)" stroke-width="1.874998" fill="none" d="M 0.000000 750.000000 L 121.621635 0.000000 " />
<path stroke-linejoin="round" stroke-linecap="round" stroke="rgb(255,0,0)" stroke-width="3.749996" fill="none" d="M 49.450523 445.055054 L 51.315777 461.842194 " />
<path stroke-linejoin="round" stroke-linecap="round" stroke="rgb(0,0,255)" stroke-width="1.874998" fill="none" d="M 0.000000 750.000000 L 121.323532 0.000000 " />
<path stroke-linejoin="round" stroke-linecap="round" stroke="rgb(255,0,0)" stroke-width="3.749996" fill="none" d="M 49.401173 444.610931 L 49.450523 445.055054 " />
<path stroke-linejoin="round" stroke-linecap="round" stroke="rgb(0,0,255)" stroke-width="1.874998" fill="none" d="M 0.000000 750.000000 L 108.695648 0.000000 " />
<path stroke-linejoin="round" stroke-linecap="round" stroke="rgb(255,0,0)" stroke-width="3.749996" fill="none" d="M 47.169796 424.528412 L 49.401173 444.610931 " />
<path stroke-linejoin="round" stroke-linecap="round" stroke="rgb(0,0,255)" stroke-width="1.874998" fill="none" d="M 0.000000 750.000000 L 85.443039 0.000000 " />
<path stroke-linejoin="round" stroke-linecap="round" stroke="rgb(255,0,0)" stroke-width="3.749996" fill="none" d="M 42.187481 379.687683 L 47.169796 424.528412 " />
<path stroke-linejoin="round" stroke-linecap="round" stroke="rgb(0,0,255)" stroke-width="1.874998" fill="none" d="M 0.000000 750.000000 L 84.269669 0.000000 " />
<path stroke-linejoin="round" stroke-linecap="round" stroke="rgb(255,0,0)" stroke-width="3.749996" fill="none" d="M 41.899414 377.095154 L 42.187481 379.687683 " />
<path stroke-linejoin="round" stroke-linecap="round" stroke="rgb(0,0,255)" stroke-width="1.874998" fill="none" d="M 0.000000 750.000000 L 80.000015 0.000000 " />
<path stroke-linejoin="round" stroke-linecap="round" stroke="rgb(255,0,0)" stroke-width="3.749996" fill="none" d="M 40.816315 367.347076 L 41.899414 377.095154 " />
<path stroke-linejoin="round" stroke-linecap="round" stroke="rgb(0,0,255)" stroke-width="1.874998" fill="none" d="M 0.000000 750.000000 L 61.764702 0.000000 " />
<path stroke-linejoin="round" stroke-linecap="round" stroke="rgb(255,0,0)" stroke-width="3.749996" fill="none" d="M 35.472950 319.256897 L 40.816315 367.347076 " />
<path stroke-linejoin="round" stroke-linecap="round" stroke="rgb(0,0,255)" stroke-width="1.874998" fill="none" d="M 0.000000 750.000000 L 54.687492 0.000000 " />
<path stroke-linejoin="round" stroke-linecap="round" stroke="rgb(255,0,0)" stroke-width="3.749996" fill="none" d="M 33.018841 297.170013 L 35.472950 319.256897 " />
<path stroke-linejoin="round" stroke-linecap="round" stroke="rgb(0,0,255)" stroke-width="1.874998" fill="none" d="M 0.000000 750.000000 L 49.999996 0.000000 " />
<path stroke-linejoin="round" stroke-linecap="round" stroke="rgb(255,0,0)" stroke-width="3.749996" fill="none" d="M 31.249992 281.250214 L 33.018841 297.170013 " />
<path stroke-linejoin="round" stroke-linecap="round" stroke="rgb(0,0,255)" stroke-width="1.874998" fill="none" d="M 0.000000 750.000000 L 41.208790 0.000000 " />
<path stroke-linejoin="round" stroke-linecap="round" stroke="rgb(255,0,0)" stroke-width="3.749996" fill="none" d="M 27.573511 248.161957 L 31.249992 281.250214 " />
<path stroke-linejoin="round" stroke-linecap="round" stroke="rgb(0,0,255)" stroke-width="1.874998" fill="none" d="M 0.000000 750.000000 L 32.608688 0.000000 " />
<path stroke-linejoin="round" stroke-linecap="round" stroke="rgb(255,0,0)" stroke-width="3.749996" fill="none" d="M 23.437500 210.937729 L 27.573511 248.161957 " />
<path stroke-linejoin="round" stroke-linecap="round" stroke="rgb(0,0,255)" stroke-width="1.874998" fill="none" d="M 0.000000 750.000000 L 31.914890 0.000000 " />
<path stroke-linejoin="round" stroke-linecap="round" stroke="rgb(255,0,0)" stroke-width="3.749996" fill="none" d="M 23.076921 207.692490 L 23.437500 210.937729 " />
<path stroke-linejoin="round" stroke-linecap="round" stroke="rgb(0,0,255)" stroke-width="1.874998" fill="none" d="M 0.000000 750.000000 L 31.249992 0.000000 " />
<path stroke-linejoin="round" stroke-linecap="round" stroke="rgb(255,0,0)" stroke-width="3.749996" fill="none" d="M 22.727251 204.545685 L 23.076921 207.692490 " />
<path stroke-linejoin="round" stroke-linecap="round" stroke="rgb(0,0,255)" stroke-width="1.874998" fill="none" d="M 0.000000 750.000000 L 29.126219 0.000000 " />
<path stroke-linejoin="round" stroke-linecap="round" stroke="rgb(255,0,0)" stroke-width="3.749996" fill="none" d="M 21.582729 194.244858 L 22.727251 204.545685 " />
<path stroke-linejoin="round" stroke-linecap="round" stroke="rgb(0,0,255)" stroke-width="1.874998" fill="none" d="M 0.000000 750.000000 L 28.846151 0.000000 " />
<path stroke-linejoin="round" stroke-linecap="round" stroke="rgb(255,0,0)" stroke-width="3.749996" fill="none" d="M 21.428570 192.857407 L 21.582729 194.244858 " />
<path stroke-linejoin="round" stroke-linecap="round" stroke="rgb(0,0,255)" stroke-width="1.874998" fill="none" d="M 0.000000 750.000000 L 26.548683 0.000000 " />
<path stroke-linejoin="round" stroke-linecap="round" stroke="rgb(255,0,0)" stroke-width="3.749996" fill="none" d="M 20.134226 181.208313 L 21.428570 192.857407 " />
<path stroke-linejoin="round" stroke-linecap="round" stroke="rgb(0,0,255)" stroke-width="1.874998" fill="none" d="M 0.000000 750.000000 L 24.999998 0.000000 " />
<path stroke-linejoin="round" stroke-linecap="round" stroke="rgb(255,0,0)" stroke-width="3.749996" fill="none" d="M 19.230768 173.077164 L 20.134226 181.208313 " />
<path stroke-linejoin="round" stroke-linecap="round" stroke="rgb(0,0,255)" stroke-width="1.874998" fill="none" d="M 0.000000 750.000000 L 24.590157 0.000000 " />
<path stroke-linejoin="round" stroke-linecap="round" stroke="rgb(255,0,0)" stroke-width="3.749996" fill="none" d="M 18.987335 170.886292 L 19.230768 173.077164 " />
<path stroke-linejoin="round" stroke-linecap="round" stroke="rgb(0,0,255)" stroke-width="1.874998" fill="none" d="M 0.000000 750.000000 L 23.809523 0.000000 " />
<path stroke-linejoin="round" stroke-linecap="round" stroke="rgb(255,0,0)" stroke-width="3.749996" fill="none" d="M 18.518507 166.666931 L 18.987335 170.886292 " />
<path stroke-linejoin="round" stroke-linecap="round" stroke="rgb(0,0,255)" stroke-width="1.874998" fill="none" d="M 0.000000 750.000000 L 23.437500 0.000000 " />
<path stroke-linejoin="round" stroke-linecap="round" stroke="rgb(255,0,0)" stroke-width="3.749996" fill="none" d="M 18.292665 164.634415 L 18.518507 166.666992 " />
<path stroke-linejoin="round" stroke-linecap="round" stroke="rgb(0,0,255)" stroke-width="1.874998" fill="none" d="M 0.000000 750.000000 L 21.428570 0.000000 " />
<path stroke-linejoin="round" stroke-linecap="round" stroke="rgb(255,0,0)" stroke-width="3.749996" fill="none" d="M 17.045439 153.409348 L 18.292665 164.634415 " />
<path stroke-linejoin="round" stroke-linecap="round" stroke="rgb(0,0,255)" stroke-width="1.874998" fill="none" d="M 0.000000 750.000000 L 21.276600 0.000000 " />
<path stroke-linejoin="round" stroke-linecap="round" stroke="rgb(255,0,0)" stroke-width="3.749996" fill="none" d="M 16.949146 152.542587 L 17.045439 153.409302 " />
<path stroke-linejoin="round" stroke-linecap="round" stroke="rgb(0,0,255)" stroke-width="1.874998" fill="none" d="M 0.000000 750.000000 L 21.126755 0.000000 " />
<path stroke-linejoin="round" stroke-linecap="round" stroke="rgb(255,0,0)" stroke-width="3.749996" fill="none" d="M 16.853928 151.685608 L 16.949146 152.542587 " />
<path stroke-linejoin="round" stroke-linecap="round" stroke="rgb(0,0,255)" stroke-width="1.874998" fill="none" d="M 0.000000 750.000000 L 20.979033 0.000000 " />
<path stroke-linejoin="round" stroke-linecap="round" stroke="rgb(255,0,0)" stroke-width="3.749996" fill="none" d="M 16.759760 150.838242 L 16.853928 151.685608 " />
<path stroke-linejoin="round" stroke-linecap="round" stroke="rgb(0,0,255)" stroke-width="1.874998" fill="none" d="M 0.000000 750.000000 L 17.578125 0.000000 " />
<path stroke-linejoin="round" stroke-linecap="round" stroke="rgb(255,0,0)" stroke-width="3.749996" fill="none" d="M 14.516115 130.645401 L 16.759760 150.838242 " />
<path stroke-linejoin="round" stroke-linecap="round" stroke="rgb(0,0,255)" stroke-width="1.874998" fill="none" d="M 0.000000 750.000000 L 16.187042 0.000000 " />
<path stroke-linejoin="round" stroke-linecap="round" stroke="rgb(255,0,0)" stroke-width="3.749996" fill="none" d="M 13.554208 121.988159 L 14.516115 130.645401 " />
<path stroke-linejoin="round" stroke-linecap="round" stroke="rgb(0,0,255)" stroke-width="1.874998" fill="none" d="M 0.000000 750.000000 L 10.135129 0.000000 " />
<path stroke-linejoin="round" stroke-linecap="round" stroke="rgb(255,0,0)" stroke-width="3.749996" fill="none" d="M 9.036139 81.325516 L 13.554208 121.988159 " />
<path stroke-linejoin="round" stroke-linecap="round" stroke="rgb(0,0,255)" stroke-width="1.874998" fill="none" d="M 0.000000 750.000000 L 4.746840 0.000000 " />
<path stroke-linejoin="round" stroke-linecap="round" stroke="rgb(255,0,0)" stroke-width="3.749996" fill="none" d="M 4.491024 40.419392 L 9.036139 81.325516 " />
<path stroke-linejoin="round" stroke-linecap="round" stroke="rgb(0,0,255)" stroke-width="1.874998" fill="none" d="M 0.000000 750.000000 L 0.000000 0.000000 " />
<path stroke-linejoin="round" stroke-linecap="round" stroke="rgb(255,0,0)" stroke-width="3.749996" fill="none" d="M 0.000000 0.000000 L 4.491024 40.419392 " />
<circle cx="149.511427" cy="745.602608" r="3.749996" style="fill:rgb(0,127,0);stroke-width:1" /><circle cx="145.114034" cy="741.205215" r="3.749996" style="fill:rgb(0,127,0);stroke-width:1" /><circle cx="140.716642" cy="736.807823" r="3.749996" style="fill:rgb(0,127,0);stroke-width:1" /><circle cx="137.270048" cy="733.361207" r="3.749996" style="fill:rgb(0,127,0);stroke-width:1" /><circle cx="136.319250" cy="732.410409" r="3.749996" style="fill:rgb(0,127,0);stroke-width:1" /><circle cx="133.110344" cy="729.201503" r="3.749996" style="fill:rgb(0,127,0);stroke-width:1" /><circle cx="131.921858" cy="728.013016" r="3.749996" style="fill:rgb(0,127,0);stroke-width:1" /><circle cx="128.950641" cy="725.041822" r="3.749996" style="fill:rgb(0,127,0);stroke-width:1" /><circle cx="124.790937" cy="720.882118" r="3.749996" style="fill:rgb(0,127,0);stroke-width:1" /><circle cx="122.337788" cy="718.428969" r="3.749996" style="fill:rgb(0,127,0);stroke-width:1" /><circle cx="120.631233" cy="716.722414" r="3.749996" style="fill:rgb(0,127,0);stroke-width:1" /><circle cx="116.471529" cy="712.562710" r="3.749996" style="fill:rgb(0,127,0);stroke-width:1" /><circle cx="112.311848" cy="708.403029" r="3.749996" style="fill:rgb(0,127,0);stroke-width:1" /><circle cx="110.498652" cy="706.589811" r="3.749996" style="fill:rgb(0,127,0);stroke-width:1" /><circle cx="108.152166" cy="704.243325" r="3.749996" style="fill:rgb(0,127,0);stroke-width:1" /><circle cx="103.992462" cy="700.083621" r="3.749996" style="fill:rgb(0,127,0);stroke-width:1" /><circle cx="99.832758" cy="695.923917" r="3.749996" style="fill:rgb(0,127,0);stroke-width:1" /><circle cx="98.659515" cy="694.750674" r="3.749996" style="fill:rgb(0,127,0);stroke-width:1" /><circle cx="95.673054" cy="691.764235" r="3.749996" style="fill:rgb(0,127,0);stroke-width:1" /><circle cx="94.713114" cy="690.804295" r="3.749996" style="fill:rgb(0,127,0);stroke-width:1" /><circle cx="90.766735" cy="686.857916" r="3.749996" style="fill:rgb(0,127,0);stroke-width:1" /><circle cx="86.820357" cy="682.911538" r="3.749996" style="fill:rgb(0,127,0);stroke-width:1" /><circle cx="86.339101" cy="682.430282" r="3.749996" style="fill:rgb(0,127,0);stroke-width:1" /><circle cx="82.873978" cy="678.965159" r="3.749996" style="fill:rgb(0,127,0);stroke-width:1" /><circle cx="82.585216" cy="678.676397" r="3.749996" style="fill:rgb(0,127,0);stroke-width:1" /><circle cx="78.831330" cy="674.922533" r="3.749996" style="fill:rgb(0,127,0);stroke-width:1" /><circle cx="78.744024" cy="674.835250" r="3.749996" style="fill:rgb(0,127,0);stroke-width:1" /><circle cx="75.077467" cy="671.168670" r="3.749996" style="fill:rgb(0,127,0);stroke-width:1" /><circle cx="73.834196" cy="664.507762" r="3.749996" style="fill:rgb(0,127,0);stroke-width:1" /><circle cx="73.076919" cy="657.692313" r="3.749996" style="fill:rgb(0,127,0);stroke-width:1" /><circle cx="72.192505" cy="649.732634" r="3.749996" style="fill:rgb(0,127,0);stroke-width:1" /><circle cx="71.229056" cy="641.061455" r="3.749996" style="fill:rgb(0,127,0);stroke-width:1" /><circle cx="70.441984" cy="633.977897" r="3.749996" style="fill:rgb(0,127,0);stroke-width:1" /><circle cx="69.948189" cy="629.533678" r="3.749996" style="fill:rgb(0,127,0);stroke-width:1" /><circle cx="69.672123" cy="627.049170" r="3.749996" style="fill:rgb(0,127,0);stroke-width:1" /><circle cx="68.918914" cy="620.270267" r="3.749996" style="fill:rgb(0,127,0);stroke-width:1" /><circle cx="68.181820" cy="613.636382" r="3.749996" style="fill:rgb(0,127,0);stroke-width:1" /><circle cx="67.460306" cy="607.142866" r="3.749996" style="fill:rgb(0,127,0);stroke-width:1" /><circle cx="66.753924" cy="600.785360" r="3.749996" style="fill:rgb(0,127,0);stroke-width:1" /><circle cx="66.298328" cy="596.685112" r="3.749996" style="fill:rgb(0,127,0);stroke-width:1" /><circle cx="65.028906" cy="585.260130" r="3.749996" style="fill:rgb(0,127,0);stroke-width:1" /><circle cx="64.285710" cy="578.571439" r="3.749996" style="fill:rgb(0,127,0);stroke-width:1" /><circle cx="62.874243" cy="565.868273" r="3.749996" style="fill:rgb(0,127,0);stroke-width:1" /><circle cx="62.130176" cy="559.171624" r="3.749996" style="fill:rgb(0,127,0);stroke-width:1" /><circle cx="60.693629" cy="546.242796" r="3.749996" style="fill:rgb(0,127,0);stroke-width:1" /><circle cx="59.999987" cy="540.000021" r="3.749996" style="fill:rgb(0,127,0);stroke-width:1" /><circle cx="59.322037" cy="533.898331" r="3.749996" style="fill:rgb(0,127,0);stroke-width:1" /><circle cx="58.659218" cy="527.932975" r="3.749996" style="fill:rgb(0,127,0);stroke-width:1" /><circle cx="58.011040" cy="522.099461" r="3.749996" style="fill:rgb(0,127,0);stroke-width:1" /><circle cx="57.692304" cy="519.230783" r="3.749996" style="fill:rgb(0,127,0);stroke-width:1" /><circle cx="57.017528" cy="513.157926" r="3.749996" style="fill:rgb(0,127,0);stroke-width:1" /><circle cx="55.214725" cy="496.932540" r="3.749996" style="fill:rgb(0,127,0);stroke-width:1" /><circle cx="54.545447" cy="490.909103" r="3.749996" style="fill:rgb(0,127,0);stroke-width:1" /><circle cx="53.571425" cy="482.142873" r="3.749996" style="fill:rgb(0,127,0);stroke-width:1" /><circle cx="53.254433" cy="479.289975" r="3.749996" style="fill:rgb(0,127,0);stroke-width:1" /><circle cx="52.631579" cy="473.684259" r="3.749996" style="fill:rgb(0,127,0);stroke-width:1" /><circle cx="51.315777" cy="461.842183" r="3.749996" style="fill:rgb(0,127,0);stroke-width:1" /><circle cx="49.450524" cy="445.055041" r="3.749996" style="fill:rgb(0,127,0);stroke-width:1" /><circle cx="49.401172" cy="444.610907" r="3.749996" style="fill:rgb(0,127,0);stroke-width:1" /><circle cx="47.169797" cy="424.528420" r="3.749996" style="fill:rgb(0,127,0);stroke-width:1" /><circle cx="42.187482" cy="379.687679" r="3.749996" style="fill:rgb(0,127,0);stroke-width:1" /><circle cx="41.899413" cy="377.095163" r="3.749996" style="fill:rgb(0,127,0);stroke-width:1" /><circle cx="40.816315" cy="367.347086" r="3.749996" style="fill:rgb(0,127,0);stroke-width:1" /><circle cx="35.472952" cy="319.256902" r="3.749996" style="fill:rgb(0,127,0);stroke-width:1" /><circle cx="33.018842" cy="297.170017" r="3.749996" style="fill:rgb(0,127,0);stroke-width:1" /><circle cx="31.249993" cy="281.250212" r="3.749996" style="fill:rgb(0,127,0);stroke-width:1" /><circle cx="27.573511" cy="248.161945" r="3.749996" style="fill:rgb(0,127,0);stroke-width:1" /><circle cx="23.437500" cy="210.937712" r="3.749996" style="fill:rgb(0,127,0);stroke-width:1" /><circle cx="23.076922" cy="207.692496" r="3.749996" style="fill:rgb(0,127,0);stroke-width:1" /><circle cx="22.727251" cy="204.545684" r="3.749996" style="fill:rgb(0,127,0);stroke-width:1" /><circle cx="21.582730" cy="194.244862" r="3.749996" style="fill:rgb(0,127,0);stroke-width:1" /><circle cx="21.428570" cy="192.857411" r="3.749996" style="fill:rgb(0,127,0);stroke-width:1" /><circle cx="20.134225" cy="181.208320" r="3.749996" style="fill:rgb(0,127,0);stroke-width:1" /><circle cx="19.230768" cy="173.077159" r="3.749996" style="fill:rgb(0,127,0);stroke-width:1" /><circle cx="18.987335" cy="170.886286" r="3.749996" style="fill:rgb(0,127,0);stroke-width:1" /><circle cx="18.518507" cy="166.666925" r="3.749996" style="fill:rgb(0,127,0);stroke-width:1" /><circle cx="18.292665" cy="164.634414" r="3.749996" style="fill:rgb(0,127,0);stroke-width:1" /><circle cx="17.045438" cy="153.409347" r="3.749996" style="fill:rgb(0,127,0);stroke-width:1" /><circle cx="16.949147" cy="152.542591" r="3.749996" style="fill:rgb(0,127,0);stroke-width:1" /><circle cx="16.853929" cy="151.685603" r="3.749996" style="fill:rgb(0,127,0);stroke-width:1" /><circle cx="16.759761" cy="150.838248" r="3.749996" style="fill:rgb(0,127,0);stroke-width:1" /><circle cx="14.516115" cy="130.645394" r="3.749996" style="fill:rgb(0,127,0);stroke-width:1" /><circle cx="13.554208" cy="121.988162" r="3.749996" style="fill:rgb(0,127,0);stroke-width:1" /><circle cx="9.036139" cy="81.325516" r="3.749996" style="fill:rgb(0,127,0);stroke-width:1" /><circle cx="4.491024" cy="40.419392" r="3.749996" style="fill:rgb(0,127,0);stroke-width:1" /><circle cx="750.000000" cy="750.000000" r="3.749996" style="fill:rgb(0,127,0);stroke-width:1" /><path stroke-linejoin="round" stroke-linecap="round" stroke="rgb(255,255,255)" stroke-width="3.749996" fill="none" d="M 0.000000 750.000000 L 750.000000 750.000000 M 0.000000 750.000000 L 0.000000 0.000000 " />

</svg>