<svg xmlns="http://www.w3.org/2000/svg" version="1.1" width = "750" height = "750" viewBox = "0 0 750 750"  shape-rendering="crispEdges">
<path stroke-linejoin="round" stroke-linecap="round" stroke="rgb(255,255,0)" stroke-width="3.749996" fill="none" d="M 83.333328 750.000000 L 0.000000 0.000000 " />
<path stroke-linejoin="round" stroke-linecap="round" stroke="rgb(63,63,63)" stroke-width="3.749996" fill="none" d="M 0.000000 0.000000 L 750.000000 750.000000 M 83.333328 750.000000 L 39.215683 0.000000 " />
<path stroke-linejoin="round" stroke-linecap="round" stroke="rgb(191,191,191)" stroke-width="3.749996" fill="none" d="M 0.000000 666.666687 L 83.333328 750.000000 M 0.000000 0.000000 L 44.117645 750.000000 " />
<path stroke-linejoin="round" stroke-linecap="round" stroke="rgb(0,0,255)" stroke-width="1.874998" fill="none" d="M 0.000000 750.000000 L 750.000000 562.500000 " />
<path stroke-linejoin="round" stroke-linecap="round" stroke="rgb(255,0,0)" stroke-width="3.749996" fill="none" d="M 82.125595 729.468567 L 83.333328 750.000000 " />
<path stroke-linejoin="round" stroke-linecap="round" stroke="rgb(0,0,255)" stroke-width="1.874998" fill="none" d="M 0.000000 750.000000 L 750.000000 365.384583 " />
<path stroke-linejoin="round" stroke-linecap="round" stroke="rgb(255,0,0)" stroke-width="3.749996" fill="none" d="M 80.893120 708.516357 L 82.125595 729.468567 " />
<path stroke-linejoin="round" stroke-linecap="round" stroke="rgb(0,0,255)" stroke-width="1.874998" fill="none" d="M 0.000000 750.000000 L 750.000000 157.894714 " />
<path stroke-linejoin="round" stroke-linecap="round" stroke="rgb(255,0,0)" stroke-width="3.749996" fill="none" d="M 79.635101 687.130188 L 80.893120 708.516357 " />
<path stroke-linejoin="round" stroke-linecap="round" stroke="rgb(0,0,255)" stroke-width="1.874998" fill="none" d="M 0.000000 750.000000 L 731.250000 0.000000 " />
<path stroke-linejoin="round" stroke-linecap="round" stroke="rgb(255,0,0)" stroke-width="3.749996" fill="none" d="M 78.591743 669.393066 L 79.635101 687.130188 " />
<path stroke-linejoin="round" stroke-linecap="round" stroke="rgb(0,0,255)" stroke-width="1.874998" fill="none" d="M 0.000000 750.000000 L 570.000000 0.000000 " />
<path stroke-linejoin="round" stroke-linecap="round" stroke="rgb(255,0,0)" stroke-width="3.749996" fill="none" d="M 77.346748 648.227966 L 78.591743 669.393066 " />
<path stroke-linejoin="round" stroke-linecap="round" stroke="rgb(0,0,255)" stroke-width="1.874998" fill="none" d="M 0.000000 750.000000 L 462.500000 0.000000 " />
<path stroke-linejoin="round" stroke-linecap="round" stroke="rgb(255,0,0)" stroke-width="3.749996" fill="none" d="M 76.076431 626.632751 L 77.346748 648.227966 " />
<path stroke-linejoin="round" stroke-linecap="round" stroke="rgb(0,0,255)" stroke-width="1.874998" fill="none" d="M 0.000000 750.000000 L 407.142883 0.000000 " />
<path stroke-linejoin="round" stroke-linecap="round" stroke="rgb(255,0,0)" stroke-width="3.749996" fill="none" d="M 75.186211 611.499084 L 76.076431 626.632751 " />
<path stroke-linejoin="round" stroke-linecap="round" stroke="rgb(0,0,255)" stroke-width="1.874998" fill="none" d="M 0.000000 750.000000 L 385.714294 0.000000 " />
<path stroke-linejoin="round" stroke-linecap="round" stroke="rgb(255,0,0)" stroke-width="3.749996" fill="none" d="M 74.780052 604.594360 L 75.186211 611.499084 " />
<path stroke-linejoin="round" stroke-linecap="round" stroke="rgb(0,0,255)" stroke-width="1.874998" fill="none" d="M 0.000000 750.000000 L 346.875000 0.000000 " />
<path stroke-linejoin="round" stroke-linecap="round" stroke="rgb(255,0,0)" stroke-width="3.749996" fill="none" d="M 73.930397 590.150452 L 74.780052 604.594360 " />
<path stroke-linejoin="round" stroke-linecap="round" stroke="rgb(0,0,255)" stroke-width="1.874998" fill="none" d="M 0.000000 750.000000 L 300.000000 0.000000 " />
<path stroke-linejoin="round" stroke-linecap="round" stroke="rgb(255,0,0)" stroke-width="3.749996" fill="none" d="M 72.649551 568.376099 L 73.930397 590.150452 " />
<path stroke-linejoin="round" stroke-linecap="round" stroke="rgb(0,0,255)" stroke-width="1.874998" fill="none" d="M 0.000000 750.000000 L 262.500000 0.000000 " />
<path stroke-linejoin="round" stroke-linecap="round" stroke="rgb(255,0,0)" stroke-width="3.749996" fill="none" d="M 71.342918 546.163086 L 72.649551 568.376099 " />
<path stroke-linejoin="round" stroke-linecap="round" stroke="rgb(0,0,255)" stroke-width="1.874998" fill="none" d="M 0.000000 750.000000 L 231.818192 0.000000 " />
<path stroke-linejoin="round" stroke-linecap="round" stroke="rgb(255,0,0)" stroke-width="3.749996" fill="none" d="M 70.009682 523.498108 L 71.342918 546.163086 " />
<path stroke-linejoin="round" stroke-linecap="round" stroke="rgb(0,0,255)" stroke-width="1.874998" fill="none" d="M 0.000000 750.000000 L 206.250000 0.000000 " />
<path stroke-linejoin="round" stroke-linecap="round" stroke="rgb(255,0,0)" stroke-width="3.749996" fill="none" d="M 68.649040 500.367157 L 70.009682 523.498108 " />
<path stroke-linejoin="round" stroke-linecap="round" stroke="rgb(0,0,255)" stroke-width="1.874998" fill="none" d="M 0.000000 750.000000 L 184.615372 0.000000 " />
<path stroke-linejoin="round" stroke-linecap="round" stroke="rgb(255,0,0)" stroke-width="3.749996" fill="none" d="M 67.260124 476.755768 L 68.649040 500.367157 " />
<path stroke-linejoin="round" stroke-linecap="round" stroke="rgb(0,0,255)" stroke-width="1.874998" fill="none" d="M 0.000000 750.000000 L 176.785736 0.000000 " />
<path stroke-linejoin="round" stroke-linecap="round" stroke="rgb(255,0,0)" stroke-width="3.749996" fill="none" d="M 66.690422 467.070923 L 67.260124 476.755768 " />
<path stroke-linejoin="round" stroke-linecap="round" stroke="rgb(0,0,255)" stroke-width="1.874998" fill="none" d="M 0.000000 750.000000 L 166.071426 0.000000 " />
<path stroke-linejoin="round" stroke-linecap="round" stroke="rgb(255,0,0)" stroke-width="3.749996" fill="none" d="M 65.842064 452.648743 L 66.690422 467.070923 " />
<path stroke-linejoin="round" stroke-linecap="round" stroke="rgb(0,0,255)" stroke-width="1.874998" fill="none" d="M 0.000000 750.000000 L 160.000000 0.000000 " />
<path stroke-linejoin="round" stroke-linecap="round" stroke="rgb(255,0,0)" stroke-width="3.749996" fill="none" d="M 65.321800 443.804077 L 65.842064 452.648743 " />
<path stroke-linejoin="round" stroke-linecap="round" stroke="rgb(0,0,255)" stroke-width="1.874998" fill="none" d="M 0.000000 750.000000 L 149.999985 0.000000 " />
<path stroke-linejoin="round" stroke-linecap="round" stroke="rgb(255,0,0)" stroke-width="3.749996" fill="none" d="M 64.393936 428.030365 L 65.321800 443.804077 " />
<path stroke-linejoin="round" stroke-linecap="round" stroke="rgb(0,0,255)" stroke-width="1.874998" fill="none" d="M 0.000000 750.000000 L 135.937485 0.000000 " />
<path stroke-linejoin="round" stroke-linecap="round" stroke="rgb(255,0,0)" stroke-width="3.749996" fill="none" d="M 62.914745 402.884186 L 64.393936 428.030365 " />
<path stroke-linejoin="round" stroke-linecap="round" stroke="rgb(0,0,255)" stroke-width="1.874998" fill="none" d="M 0.000000 750.000000 L 123.529404 0.000000 " />
<path stroke-linejoin="round" stroke-linecap="round" stroke="rgb(255,0,0)" stroke-width="3.749996" fill="none" d="M 61.403500 377.193054 L 62.914745 402.884186 " />
<path stroke-linejoin="round" stroke-linecap="round" stroke="rgb(0,0,255)" stroke-width="1.874998" fill="none" d="M 0.000000 750.000000 L 120.833336 0.000000 " />
<path stroke-linejoin="round" stroke-linecap="round" stroke="rgb(255,0,0)" stroke-width="3.749996" fill="none" d="M 61.045067 371.099609 L 61.403500 377.193054 " />
<path stroke-linejoin="round" stroke-linecap="round" stroke="rgb(0,0,255)" stroke-width="1.874998" fill="none" d="M 0.000000 750.000000 L 110.526321 0.000000 " />
<path stroke-linejoin="round" stroke-linecap="round" stroke="rgb(255,0,0)" stroke-width="3.749996" fill="none" d="M 59.559547 345.845917 L 61.045067 371.099609 " />
<path stroke-linejoin="round" stroke-linecap="round" stroke="rgb(0,0,255)" stroke-width="1.874998" fill="none" d="M 0.000000 750.000000 L 101.249992 0.000000 " />
<path stroke-linejoin="round" stroke-linecap="round" stroke="rgb(255,0,0)" stroke-width="3.749996" fill="none" d="M 58.042465 320.055725 L 59.559547 345.845917 " />
<path stroke-linejoin="round" stroke-linecap="round" stroke="rgb(0,0,255)" stroke-width="1.874998" fill="none" d="M 0.000000 750.000000 L 97.014915 0.000000 " />
<path stroke-linejoin="round" stroke-linecap="round" stroke="rgb(255,0,0)" stroke-width="3.749996" fill="none" d="M 55.892765 317.906036 L 58.042465 320.055756 " />
<path stroke-linejoin="round" stroke-linecap="round" stroke="rgb(0,0,255)" stroke-width="1.874998" fill="none" d="M 0.000000 750.000000 L 95.971565 0.000000 " />
<path stroke-linejoin="round" stroke-linecap="round" stroke="rgb(255,0,0)" stroke-width="3.749996" fill="none" d="M 55.703445 314.687836 L 55.892765 317.906036 " />
<path stroke-linejoin="round" stroke-linecap="round" stroke="rgb(0,0,255)" stroke-width="1.874998" fill="none" d="M 0.000000 750.000000 L 91.911774 0.000000 " />
<path stroke-linejoin="round" stroke-linecap="round" stroke="rgb(255,0,0)" stroke-width="3.749996" fill="none" d="M 53.604328 312.588715 L 55.703445 314.687897 " />
<path stroke-linejoin="round" stroke-linecap="round" stroke="rgb(0,0,255)" stroke-width="1.874998" fill="none" d="M 0.000000 750.000000 L 87.804886 0.000000 " />
<path stroke-linejoin="round" stroke-linecap="round" stroke="rgb(255,0,0)" stroke-width="3.749996" fill="none" d="M 51.460148 310.444550 L 53.604328 312.588715 " />
<path stroke-linejoin="round" stroke-linecap="round" stroke="rgb(0,0,255)" stroke-width="1.874998" fill="none" d="M 0.000000 750.000000 L 86.956520 0.000000 " />
<path stroke-linejoin="round" stroke-linecap="round" stroke="rgb(255,0,0)" stroke-width="3.749996" fill="none" d="M 51.014610 309.999023 L 51.460148 310.444550 " />
<path stroke-linejoin="round" stroke-linecap="round" stroke="rgb(0,0,255)" stroke-width="1.874998" fill="none" d="M 0.000000 750.000000 L 86.124413 0.000000 " />
<path stroke-linejoin="round" stroke-linecap="round" stroke="rgb(255,0,0)" stroke-width="3.749996" fill="none" d="M 50.576717 309.561096 L 51.014610 309.999023 " />
<path stroke-linejoin="round" stroke-linecap="round" stroke="rgb(0,0,255)" stroke-width="1.874998" fill="none" d="M 0.000000 750.000000 L 82.142853 0.000000 " />
<path stroke-linejoin="round" stroke-linecap="round" stroke="rgb(255,0,0)" stroke-width="3.749996" fill="none" d="M 48.469349 307.453705 L 50.576717 309.561096 " />
<path stroke-linejoin="round" stroke-linecap="round" stroke="rgb(0,0,255)" stroke-width="1.874998" fill="none" d="M 0.000000 750.000000 L 78.199043 0.000000 " />
<path stroke-linejoin="round" stroke-linecap="round" stroke="rgb(255,0,0)" stroke-width="3.749996" fill="none" d="M 46.361984 305.346344 L 48.469349 307.453705 " />
<path stroke-linejoin="round" stroke-linecap="round" stroke="rgb(0,0,255)" stroke-width="1.874998" fill="none" d="M 0.000000 750.000000 L 74.292450 0.000000 " />
<path stroke-linejoin="round" stroke-linecap="round" stroke="rgb(255,0,0)" stroke-width="3.749996" fill="none" d="M 44.254639 303.238953 L 46.362003 305.346283 " />
<path stroke-linejoin="round" stroke-linecap="round" stroke="rgb(0,0,255)" stroke-width="1.874998" fill="none" d="M 0.000000 750.000000 L 70.422539 0.000000 " />
<path stroke-linejoin="round" stroke-linecap="round" stroke="rgb(255,0,0)" stroke-width="3.749996" fill="none" d="M 42.147270 301.131592 L 44.254639 303.238953 " />
<path stroke-linejoin="round" stroke-linecap="round" stroke="rgb(0,0,255)" stroke-width="1.874998" fill="none" d="M 0.000000 750.000000 L 69.767433 0.000000 " />
<path stroke-linejoin="round" stroke-linecap="round" stroke="rgb(255,0,0)" stroke-width="3.749996" fill="none" d="M 41.788570 300.772919 L 42.147270 301.131592 " />
<path stroke-linejoin="round" stroke-linecap="round" stroke="rgb(0,0,255)" stroke-width="1.874998" fill="none" d="M 0.000000 750.000000 L 65.972237 0.000000 " />
<path stroke-linejoin="round" stroke-linecap="round" stroke="rgb(255,0,0)" stroke-width="3.749996" fill="none" d="M 39.699154 298.683441 L 41.788570 300.772919 " />
<path stroke-linejoin="round" stroke-linecap="round" stroke="rgb(0,0,255)" stroke-width="1.874998" fill="none" d="M 0.000000 750.000000 L 62.211983 0.000000 " />
<path stroke-linejoin="round" stroke-linecap="round" stroke="rgb(255,0,0)" stroke-width="3.749996" fill="none" d="M 37.609711 296.593994 L 39.699154 298.683441 " />
<path stroke-linejoin="round" stroke-linecap="round" stroke="rgb(0,0,255)" stroke-width="1.874998" fill="none" d="M 0.000000 750.000000 L 58.486237 0.000000 " />
<path stroke-linejoin="round" stroke-linecap="round" stroke="rgb(255,0,0)" stroke-width="3.749996" fill="none" d="M 35.520294 294.504517 L 37.609711 296.593903 " />
<path stroke-linejoin="round" stroke-linecap="round" stroke="rgb(0,0,255)" stroke-width="1.874998" fill="none" d="M 0.000000 750.000000 L 54.794514 0.000000 " />
<path stroke-linejoin="round" stroke-linecap="round" stroke="rgb(255,0,0)" stroke-width="3.749996" fill="none" d="M 33.430851 292.415039 L 35.520294 294.504517 " />
<path stroke-linejoin="round" stroke-linecap="round" stroke="rgb(0,0,255)" stroke-width="1.874998" fill="none" d="M 0.000000 750.000000 L 51.136360 0.000000 " />
<path stroke-linejoin="round" stroke-linecap="round" stroke="rgb(255,0,0)" stroke-width="3.749996" fill="none" d="M 31.341434 290.325623 L 33.430874 292.415039 " />
<path stroke-linejoin="round" stroke-linecap="round" stroke="rgb(0,0,255)" stroke-width="1.874998" fill="none" d="M 0.000000 750.000000 L 47.511311 0.000000 " />
<path stroke-linejoin="round" stroke-linecap="round" stroke="rgb(255,0,0)" stroke-width="3.749996" fill="none" d="M 29.252014 288.236176 L 31.341434 290.325623 " />
<path stroke-linejoin="round" stroke-linecap="round" stroke="rgb(0,0,255)" stroke-width="1.874998" fill="none" d="M 0.000000 750.000000 L 47.085197 0.000000 " />
<path stroke-linejoin="round" stroke-linecap="round" stroke="rgb(255,0,0)" stroke-width="3.749996" fill="none" d="M 29.005163 287.989288 L 29.252014 288.236145 " />
<path stroke-linejoin="round" stroke-linecap="round" stroke="rgb(0,0,255)" stroke-width="1.874998" fill="none" d="M 0.000000 750.000000 L 43.526775 0.000000 " />
<path stroke-linejoin="round" stroke-linecap="round" stroke="rgb(255,0,0)" stroke-width="3.749996" fill="none" d="M 26.933357 285.917480 L 29.005163 287.989258 " />
<path stroke-linejoin="round" stroke-linecap="round" stroke="rgb(0,0,255)" stroke-width="1.874998" fill="none" d="M 0.000000 750.000000 L 43.141590 0.000000 " />
<path stroke-linejoin="round" stroke-linecap="round" stroke="rgb(255,0,0)" stroke-width="3.749996" fill="none" d="M 26.707985 285.692108 L 26.933357 285.917480 " />
<path stroke-linejoin="round" stroke-linecap="round" stroke="rgb(0,0,255)" stroke-width="1.874998" fill="none" d="M 0.000000 750.000000 L 39.647587 0.000000 " />
<path stroke-linejoin="round" stroke-linecap="round" stroke="rgb(255,0,0)" stroke-width="3.749996" fill="none" d="M 24.653524 283.637604 L 26.707985 285.692108 " />
<path stroke-linejoin="round" stroke-linecap="round" stroke="rgb(0,0,255)" stroke-width="1.874998" fill="none" d="M 0.000000 750.000000 L 39.301315 0.000000 " />
<path stroke-linejoin="round" stroke-linecap="round" stroke="rgb(255,0,0)" stroke-width="3.749996" fill="none" d="M 24.448915 283.432953 L 24.653524 283.637604 " />
<path stroke-linejoin="round" stroke-linecap="round" stroke="rgb(0,0,255)" stroke-width="1.874998" fill="none" d="M 0.000000 750.000000 L 35.869560 0.000000 " />
<path stroke-linejoin="round" stroke-linecap="round" stroke="rgb(255,0,0)" stroke-width="3.749996" fill="none" d="M 22.411510 281.395569 L 24.448915 283.432953 " />
<path stroke-linejoin="round" stroke-linecap="round" stroke="rgb(0,0,255)" stroke-width="1.874998" fill="none" d="M 0.000000 750.000000 L 32.467537 0.000000 " />
<path stroke-linejoin="round" stroke-linecap="round" stroke="rgb(255,0,0)" stroke-width="3.749996" fill="none" d="M 20.374104 279.358185 L 22.411510 281.395569 " />
<path stroke-linejoin="round" stroke-linecap="round" stroke="rgb(0,0,255)" stroke-width="1.874998" fill="none" d="M 0.000000 750.000000 L 29.094814 0.000000 " />
<path stroke-linejoin="round" stroke-linecap="round" stroke="rgb(255,0,0)" stroke-width="3.749996" fill="none" d="M 18.336699 277.320801 L 20.374104 279.358185 " />
<path stroke-linejoin="round" stroke-linecap="round" stroke="rgb(0,0,255)" stroke-width="1.874998" fill="none" d="M 0.000000 750.000000 L 25.751083 0.000000 " />
<path stroke-linejoin="round" stroke-linecap="round" stroke="rgb(255,0,0)" stroke-width="3.749996" fill="none" d="M 16.299292 275.283386 L 18.336699 277.320801 " />
<path stroke-linejoin="round" stroke-linecap="round" stroke="rgb(0,0,255)" stroke-width="1.874998" fill="none" d="M 0.000000 750.000000 L 22.435896 0.000000 " />
<path stroke-linejoin="round" stroke-linecap="round" stroke="rgb(255,0,0)" stroke-width="3.749996" fill="none" d="M 14.872514 252.832886 L 16.299292 275.283386 " />
<path stroke-linejoin="round" stroke-linecap="round" stroke="rgb(0,0,255)" stroke-width="1.874998" fill="none" d="M 0.000000 750.000000 L 22.245771 0.000000 " />
<path stroke-linejoin="round" stroke-linecap="round" stroke="rgb(255,0,0)" stroke-width="3.749996" fill="none" d="M 14.788739 251.408463 L 14.872514 252.832886 " />
<path stroke-linejoin="round" stroke-linecap="round" stroke="rgb(0,0,255)" stroke-width="1.874998" fill="none" d="M 0.000000 750.000000 L 18.987335 0.000000 " />
<path stroke-linejoin="round" stroke-linecap="round" stroke="rgb(255,0,0)" stroke-width="3.749996" fill="none" d="M 13.274342 225.663696 L 14.788739 251.408463 " />
<path stroke-linejoin="round" stroke-linecap="round" stroke="rgb(0,0,255)" stroke-width="1.874998" fill="none" d="M 0.000000 750.000000 L 15.756302 0.000000 " />
<path stroke-linejoin="round" stroke-linecap="round" stroke="rgb(255,0,0)" stroke-width="3.749996" fill="none" d="M 11.609897 197.368469 L 13.274342 225.663742 " />
<path stroke-linejoin="round" stroke-linecap="round" stroke="rgb(0,0,255)" stroke-width="1.874998" fill="none" d="M 0.000000 750.000000 L 12.552291 0.000000 " />
<path stroke-linejoin="round" stroke-linecap="round" stroke="rgb(255,0,0)" stroke-width="3.749996" fill="none" d="M 9.771980 166.123825 L 11.609897 197.368469 " />
<path stroke-linejoin="round" stroke-linecap="round" stroke="rgb(0,0,255)" stroke-width="1.874998" fill="none" d="M 0.000000 750.000000 L 9.374991 0.000000 " />
<path stroke-linejoin="round" stroke-linecap="round" stroke="rgb(255,0,0)" stroke-width="3.749996" fill="none" d="M 7.731959 131.443344 L 9.771980 166.123825 " />
<path stroke-linejoin="round" stroke-linecap="round" stroke="rgb(0,0,255)" stroke-width="1.874998" fill="none" d="M 0.000000 750.000000 L 9.297520 0.000000 " />
<path stroke-linejoin="round" stroke-linecap="round" stroke="rgb(255,0,0)" stroke-width="3.749996" fill="none" d="M 7.679187 130.546127 L 7.731959 131.443344 " />
<path stroke-linejoin="round" stroke-linecap="round" stroke="rgb(0,0,255)" stroke-width="1.874998" fill="none" d="M 0.000000 750.000000 L 8.720934 0.000000 " />
<path stroke-linejoin="round" stroke-linecap="round" stroke="rgb(255,0,0)" stroke-width="3.749996" fill="none" d="M 7.281549 123.786491 L 7.679187 130.546127 " />
<path stroke-linejoin="round" stroke-linecap="round" stroke="rgb(0,0,255)" stroke-width="1.874998" fill="none" d="M 0.000000 750.000000 L 5.791515 0.000000 " />
<path stroke-linejoin="round" stroke-linecap="round" stroke="rgb(255,0,0)" stroke-width="3.749996" fill="none" d="M 5.119443 87.030731 L 7.281549 123.786491 " />
<path stroke-linejoin="round" stroke-linecap="round" stroke="rgb(0,0,255)" stroke-width="1.874998" fill="none" d="M 0.000000 750.000000 L 2.884626 0.000000 " />
<path stroke-linejoin="round" stroke-linecap="round" stroke="rgb(255,0,0)" stroke-width="3.749996" fill="none" d="M 2.707578 46.028942 L 5.119443 87.030731 " />
<path stroke-linejoin="round" stroke-linecap="round" stroke="rgb(0,0,255)" stroke-width="1.874998" fill="none" d="M 0.000000 750.000000 L 0.000000 0.000000 " />
<path stroke-linejoin="round" stroke-linecap="round" stroke="rgb(255,0,0)" stroke-width="3.749996" fill="none" d="M 0.000000 0.000000 L 2.707578 46.028942 " />
<circle cx="82.125597" cy="729.468606" r="3.749996" style="fill:rgb(0,127,0);stroke-width:1" /><circle cx="80.893122" cy="708.516352" r="3.749996" style="fill:rgb(0,127,0);stroke-width:1" /><circle cx="79.635099" cy="687.130183" r="3.749996" style="fill:rgb(0,127,0);stroke-width:1" /><circle cx="78.591742" cy="669.393070" r="3.749996" style="fill:rgb(0,127,0);stroke-width:1" /><circle cx="77.346750" cy="648.227960" r="3.749996" style="fill:rgb(0,127,0);stroke-width:1" /><circle cx="76.076433" cy="626.632802" r="3.749996" style="fill:rgb(0,127,0);stroke-width:1" /><circle cx="75.186208" cy="611.499086" r="3.749996" style="fill:rgb(0,127,0);stroke-width:1" /><circle cx="74.780054" cy="604.594365" r="3.749996" style="fill:rgb(0,127,0);stroke-width:1" /><circle cx="73.930398" cy="590.150468" r="3.749996" style="fill:rgb(0,127,0);stroke-width:1" /><circle cx="72.649553" cy="568.376094" r="3.749996" style="fill:rgb(0,127,0);stroke-width:1" /><circle cx="71.342915" cy="546.163101" r="3.749996" style="fill:rgb(0,127,0);stroke-width:1" /><circle cx="70.009679" cy="523.498122" r="3.749996" style="fill:rgb(0,127,0);stroke-width:1" /><circle cx="68.649039" cy="500.367165" r="3.749996" style="fill:rgb(0,127,0);stroke-width:1" /><circle cx="67.260124" cy="476.755757" r="3.749996" style="fill:rgb(0,127,0);stroke-width:1" /><circle cx="66.690423" cy="467.070915" r="3.749996" style="fill:rgb(0,127,0);stroke-width:1" /><circle cx="65.842062" cy="452.648738" r="3.749996" style="fill:rgb(0,127,0);stroke-width:1" /><circle cx="65.321803" cy="443.804087" r="3.749996" style="fill:rgb(0,127,0);stroke-width:1" /><circle cx="64.393938" cy="428.030374" r="3.749996" style="fill:rgb(0,127,0);stroke-width:1" /><circle cx="62.914744" cy="402.884206" r="3.749996" style="fill:rgb(0,127,0);stroke-width:1" /><circle cx="61.403498" cy="377.193054" r="3.749996" style="fill:rgb(0,127,0);stroke-width:1" /><circle cx="61.045066" cy="371.099631" r="3.749996" style="fill:rgb(0,127,0);stroke-width:1" /><circle cx="59.559546" cy="345.845939" r="3.749996" style="fill:rgb(0,127,0);stroke-width:1" /><circle cx="58.042467" cy="320.055725" r="3.749996" style="fill:rgb(0,127,0);stroke-width:1" /><circle cx="55.892766" cy="317.906024" r="3.749996" style="fill:rgb(0,127,0);stroke-width:1" /><circle cx="55.703446" cy="314.687848" r="3.749996" style="fill:rgb(0,127,0);stroke-width:1" /><circle cx="53.604327" cy="312.588729" r="3.749996" style="fill:rgb(0,127,0);stroke-width:1" /><circle cx="51.460147" cy="310.444554" r="3.749996" style="fill:rgb(0,127,0);stroke-width:1" /><circle cx="51.014610" cy="309.999028" r="3.749996" style="fill:rgb(0,127,0);stroke-width:1" /><circle cx="50.576717" cy="309.561096" r="3.749996" style="fill:rgb(0,127,0);stroke-width:1" /><circle cx="48.469350" cy="307.453712" r="3.749996" style="fill:rgb(0,127,0);stroke-width:1" /><circle cx="46.361983" cy="305.346329" r="3.749996" style="fill:rgb(0,127,0);stroke-width:1" /><circle cx="44.254638" cy="303.238951" r="3.749996" style="fill:rgb(0,127,0);stroke-width:1" /><circle cx="42.147271" cy="301.131606" r="3.749996" style="fill:rgb(0,127,0);stroke-width:1" /><circle cx="41.788571" cy="300.772905" r="3.749996" style="fill:rgb(0,127,0);stroke-width:1" /><circle cx="39.699152" cy="298.683442" r="3.749996" style="fill:rgb(0,127,0);stroke-width:1" /><circle cx="37.609711" cy="296.593985" r="3.749996" style="fill:rgb(0,127,0);stroke-width:1" /><circle cx="35.520293" cy="294.504521" r="3.749996" style="fill:rgb(0,127,0);stroke-width:1" /><circle cx="33.430852" cy="292.415064" r="3.749996" style="fill:rgb(0,127,0);stroke-width:1" /><circle cx="31.341434" cy="290.325640" r="3.749996" style="fill:rgb(0,127,0);stroke-width:1" /><circle cx="29.252015" cy="288.236182" r="3.749996" style="fill:rgb(0,127,0);stroke-width:1" /><circle cx="29.005162" cy="287.989296" r="3.749996" style="fill:rgb(0,127,0);stroke-width:1" /><circle cx="26.933357" cy="285.917480" r="3.749996" style="fill:rgb(0,127,0);stroke-width:1" /><circle cx="26.707985" cy="285.692096" r="3.749996" style="fill:rgb(0,127,0);stroke-width:1" /><circle cx="24.653524" cy="283.637602" r="3.749996" style="fill:rgb(0,127,0);stroke-width:1" /><circle cx="24.448916" cy="283.432961" r="3.749996" style="fill:rgb(0,127,0);stroke-width:1" /><circle cx="22.411510" cy="281.395555" r="3.749996" style="fill:rgb(0,127,0);stroke-width:1" /><circle cx="20.374104" cy="279.358193" r="3.749996" style="fill:rgb(0,127,0);stroke-width:1" /><circle cx="18.336698" cy="277.320787" r="3.749996" style="fill:rgb(0,127,0);stroke-width:1" /><circle cx="16.299292" cy="275.283381" r="3.749996" style="fill:rgb(0,127,0);stroke-width:1" /><circle cx="14.872514" cy="252.832890" r="3.749996" style="fill:rgb(0,127,0);stroke-width:1" /><circle cx="14.788739" cy="251.408458" r="3.749996" style="fill:rgb(0,127,0);stroke-width:1" /><circle cx="13.274342" cy="225.663699" r="3.749996" style="fill:rgb(0,127,0);stroke-width:1" /><circle cx="11.609897" cy="197.368462" r="3.749996" style="fill:rgb(0,127,0);stroke-width:1" /><circle cx="9.771980" cy="166.123822" r="3.749996" style="fill:rgb(0,127,0);stroke-width:1" /><circle cx="7.731959" cy="131.443352" r="3.749996" style="fill:rgb(0,127,0);stroke-width:1" /><circle cx="7.679187" cy="130.546130" r="3.749996" style="fill:rgb(0,127,0);stroke-width:1" /><circle cx="7.281549" cy="123.786494" r="3.749996" style="fill:rgb(0,127,0);stroke-width:1" /><circle cx="5.119443" cy="87.030731" r="3.749996" style="fill:rgb(0,127,0);stroke-width:1" /><circle cx="2.707556" cy="46.028942" r="3.750008" style="fill:rgb(0,127,0);stroke-width:1" /><circle cx="750.000000" cy="750.000000" r="3.749996" style="fill:rgb(0,127,0);stroke-width:1" /><path stroke-linejoin="round" stroke-linecap="round" stroke="rgb(255,255,255)" stroke-width="3.749996" fill="none" d="M 0.000000 750.000000 L 750.000000 750.000000 M 0.000000 750.000000 L 0.000000 0.000000 " />

</svg>