<svg xmlns="http://www.w3.org/2000/svg" version="1.1" width = "750" height = "750" viewBox = "0 0 750 750"  shape-rendering="crispEdges">
<path stroke-linejoin="round" stroke-linecap="round" stroke="rgb(255,255,0)" stroke-width="3.749996" fill="none" d="M 83.333328 750.000000 L 0.000000 0.000000 " />
<path stroke-linejoin="round" stroke-linecap="round" stroke="rgb(63,63,63)" stroke-width="3.749996" fill="none" d="M 0.000000 0.000000 L 750.000000 750.000000 M 83.333328 750.000000 L 39.215683 0.000000 " />
<path stroke-linejoin="round" stroke-linecap="round" stroke="rgb(191,191,191)" stroke-width="3.749996" fill="none" d="M 0.000000 666.666687 L 83.333328 750.000000 M 0.000000 0.000000 L 44.117645 750.000000 " />
<path stroke-linejoin="round" stroke-linecap="round" stroke="rgb(0,0,255)" stroke-width="1.874998" fill="none" d="M 0.000000 750.000000 L 750.000000 732.954590 " />
<path stroke-linejoin="round" stroke-linecap="round" stroke="rgb(255,0,0)" stroke-width="3.749996" fill="none" d="M 83.222061 748.108582 L 83.333328 750.000000 " />
<path stroke-linejoin="round" stroke-linecap="round" stroke="rgb(0,0,255)" stroke-width="1.874998" fill="none" d="M 0.000000 750.000000 L 750.000000 715.116272 " />
<path stroke-linejoin="round" stroke-linecap="round" stroke="rgb(255,0,0)" stroke-width="3.749996" fill="none" d="M 81.330658 746.217163 L 83.222061 748.108582 " />
<path stroke-linejoin="round" stroke-linecap="round" stroke="rgb(0,0,255)" stroke-width="1.874998" fill="none" d="M 0.000000 750.000000 L 750.000000 696.428589 " />
<path stroke-linejoin="round" stroke-linecap="round" stroke="rgb(255,0,0)" stroke-width="3.749996" fill="none" d="M 79.439255 744.325806 L 81.330658 746.217163 " />
<path stroke-linejoin="round" stroke-linecap="round" stroke="rgb(0,0,255)" stroke-width="1.874998" fill="none" d="M 0.000000 750.000000 L 750.000000 676.829224 " />
<path stroke-linejoin="round" stroke-linecap="round" stroke="rgb(255,0,0)" stroke-width="3.749996" fill="none" d="M 77.547829 742.434387 L 79.439255 744.325806 " />
<path stroke-linejoin="round" stroke-linecap="round" stroke="rgb(0,0,255)" stroke-width="1.874998" fill="none" d="M 0.000000 750.000000 L 750.000000 656.250000 " />
<path stroke-linejoin="round" stroke-linecap="round" stroke="rgb(255,0,0)" stroke-width="3.749996" fill="none" d="M 75.656418 740.542969 L 77.547829 742.434387 " />
<path stroke-linejoin="round" stroke-linecap="round" stroke="rgb(0,0,255)" stroke-width="1.874998" fill="none" d="M 0.000000 750.000000 L 750.000000 634.615417 " />
<path stroke-linejoin="round" stroke-linecap="round" stroke="rgb(255,0,0)" stroke-width="3.749996" fill="none" d="M 73.765015 738.651550 L 75.656418 740.542969 " />
<path stroke-linejoin="round" stroke-linecap="round" stroke="rgb(0,0,255)" stroke-width="1.874998" fill="none" d="M 0.000000 750.000000 L 750.000000 611.842102 " />
<path stroke-linejoin="round" stroke-linecap="round" stroke="rgb(255,0,0)" stroke-width="3.749996" fill="none" d="M 71.873589 736.760132 L 73.765015 738.651550 " />
<path stroke-linejoin="round" stroke-linecap="round" stroke="rgb(0,0,255)" stroke-width="1.874998" fill="none" d="M 0.000000 750.000000 L 750.000000 587.837830 " />
<path stroke-linejoin="round" stroke-linecap="round" stroke="rgb(255,0,0)" stroke-width="3.749996" fill="none" d="M 69.982185 734.868713 L 71.873589 736.760132 " />
<path stroke-linejoin="round" stroke-linecap="round" stroke="rgb(0,0,255)" stroke-width="1.874998" fill="none" d="M 0.000000 750.000000 L 750.000000 562.500000 " />
<path stroke-linejoin="round" stroke-linecap="round" stroke="rgb(255,0,0)" stroke-width="3.749996" fill="none" d="M 68.090782 732.977295 L 69.982185 734.868713 " />
<path stroke-linejoin="round" stroke-linecap="round" stroke="rgb(0,0,255)" stroke-width="1.874998" fill="none" d="M 0.000000 750.000000 L 750.000000 535.714294 " />
<path stroke-linejoin="round" stroke-linecap="round" stroke="rgb(255,0,0)" stroke-width="3.749996" fill="none" d="M 66.199356 731.085876 L 68.090782 732.977295 " />
<path stroke-linejoin="round" stroke-linecap="round" stroke="rgb(0,0,255)" stroke-width="1.874998" fill="none" d="M 0.000000 750.000000 L 750.000000 520.833313 " />
<path stroke-linejoin="round" stroke-linecap="round" stroke="rgb(255,0,0)" stroke-width="3.749996" fill="none" d="M 65.193306 730.079834 L 66.199356 731.085876 " />
<path stroke-linejoin="round" stroke-linecap="round" stroke="rgb(0,0,255)" stroke-width="1.874998" fill="none" d="M 0.000000 750.000000 L 750.000000 507.352936 " />
<path stroke-linejoin="round" stroke-linecap="round" stroke="rgb(255,0,0)" stroke-width="3.749996" fill="none" d="M 64.307953 729.194458 L 65.193306 730.079834 " />
<path stroke-linejoin="round" stroke-linecap="round" stroke="rgb(0,0,255)" stroke-width="1.874998" fill="none" d="M 0.000000 750.000000 L 750.000000 477.272705 " />
<path stroke-linejoin="round" stroke-linecap="round" stroke="rgb(255,0,0)" stroke-width="3.749996" fill="none" d="M 62.416546 727.303040 L 64.307953 729.194458 " />
<path stroke-linejoin="round" stroke-linecap="round" stroke="rgb(0,0,255)" stroke-width="1.874998" fill="none" d="M 0.000000 750.000000 L 750.000000 445.312500 " />
<path stroke-linejoin="round" stroke-linecap="round" stroke="rgb(255,0,0)" stroke-width="3.749996" fill="none" d="M 60.525120 725.411682 L 62.416546 727.303040 " />
<path stroke-linejoin="round" stroke-linecap="round" stroke="rgb(0,0,255)" stroke-width="1.874998" fill="none" d="M 0.000000 750.000000 L 750.000000 411.290344 " />
<path stroke-linejoin="round" stroke-linecap="round" stroke="rgb(255,0,0)" stroke-width="3.749996" fill="none" d="M 58.633717 723.520264 L 60.525120 725.411682 " />
<path stroke-linejoin="round" stroke-linecap="round" stroke="rgb(0,0,255)" stroke-width="1.874998" fill="none" d="M 0.000000 750.000000 L 750.000000 398.437500 " />
<path stroke-linejoin="round" stroke-linecap="round" stroke="rgb(255,0,0)" stroke-width="3.749996" fill="none" d="M 57.949596 722.836121 L 58.633717 723.520264 " />
<path stroke-linejoin="round" stroke-linecap="round" stroke="rgb(0,0,255)" stroke-width="1.874998" fill="none" d="M 0.000000 750.000000 L 750.000000 375.000000 " />
<path stroke-linejoin="round" stroke-linecap="round" stroke="rgb(255,0,0)" stroke-width="3.749996" fill="none" d="M 56.742310 721.628845 L 57.949596 722.836121 " />
<path stroke-linejoin="round" stroke-linecap="round" stroke="rgb(0,0,255)" stroke-width="1.874998" fill="none" d="M 0.000000 750.000000 L 750.000000 362.903229 " />
<path stroke-linejoin="round" stroke-linecap="round" stroke="rgb(255,0,0)" stroke-width="3.749996" fill="none" d="M 56.138680 721.025208 L 56.742310 721.628845 " />
<path stroke-linejoin="round" stroke-linecap="round" stroke="rgb(0,0,255)" stroke-width="1.874998" fill="none" d="M 0.000000 750.000000 L 750.000000 336.206909 " />
<path stroke-linejoin="round" stroke-linecap="round" stroke="rgb(255,0,0)" stroke-width="3.749996" fill="none" d="M 54.850906 719.737427 L 56.138680 721.025208 " />
<path stroke-linejoin="round" stroke-linecap="round" stroke="rgb(0,0,255)" stroke-width="1.874998" fill="none" d="M 0.000000 750.000000 L 750.000000 325.000000 " />
<path stroke-linejoin="round" stroke-linecap="round" stroke="rgb(255,0,0)" stroke-width="3.749996" fill="none" d="M 54.327740 719.214294 L 54.850883 719.737427 " />
<path stroke-linejoin="round" stroke-linecap="round" stroke="rgb(0,0,255)" stroke-width="1.874998" fill="none" d="M 0.000000 750.000000 L 750.000000 294.642853 " />
<path stroke-linejoin="round" stroke-linecap="round" stroke="rgb(255,0,0)" stroke-width="3.749996" fill="none" d="M 52.959480 717.846008 L 54.327740 719.214294 " />
<path stroke-linejoin="round" stroke-linecap="round" stroke="rgb(0,0,255)" stroke-width="1.874998" fill="none" d="M 0.000000 750.000000 L 750.000000 249.999985 " />
<path stroke-linejoin="round" stroke-linecap="round" stroke="rgb(255,0,0)" stroke-width="3.749996" fill="none" d="M 51.068073 715.954651 L 52.959480 717.846008 " />
<path stroke-linejoin="round" stroke-linecap="round" stroke="rgb(0,0,255)" stroke-width="1.874998" fill="none" d="M 0.000000 750.000000 L 750.000000 201.923080 " />
<path stroke-linejoin="round" stroke-linecap="round" stroke="rgb(255,0,0)" stroke-width="3.749996" fill="none" d="M 49.176670 714.063232 L 51.068073 715.954651 " />
<path stroke-linejoin="round" stroke-linecap="round" stroke="rgb(0,0,255)" stroke-width="1.874998" fill="none" d="M 0.000000 750.000000 L 750.000000 149.999985 " />
<path stroke-linejoin="round" stroke-linecap="round" stroke="rgb(255,0,0)" stroke-width="3.749996" fill="none" d="M 47.285267 712.171814 L 49.176670 714.063232 " />
<path stroke-linejoin="round" stroke-linecap="round" stroke="rgb(0,0,255)" stroke-width="1.874998" fill="none" d="M 0.000000 750.000000 L 600.000000 0.000000 " />
<path stroke-linejoin="round" stroke-linecap="round" stroke="rgb(255,0,0)" stroke-width="3.749996" fill="none" d="M 46.119308 692.350830 L 47.285267 712.171814 " />
<path stroke-linejoin="round" stroke-linecap="round" stroke="rgb(0,0,255)" stroke-width="1.874998" fill="none" d="M 0.000000 750.000000 L 431.250031 0.000000 " />
<path stroke-linejoin="round" stroke-linecap="round" stroke="rgb(255,0,0)" stroke-width="3.749996" fill="none" d="M 44.915512 671.886108 L 46.119308 692.350830 " />
<path stroke-linejoin="round" stroke-linecap="round" stroke="rgb(0,0,255)" stroke-width="1.874998" fill="none" d="M 0.000000 750.000000 L 330.000000 0.000000 " />
<path stroke-linejoin="round" stroke-linecap="round" stroke="rgb(255,0,0)" stroke-width="3.749996" fill="none" d="M 43.671951 650.745544 L 44.915512 671.886108 " />
<path stroke-linejoin="round" stroke-linecap="round" stroke="rgb(0,0,255)" stroke-width="1.874998" fill="none" d="M 0.000000 750.000000 L 287.500000 0.000000 " />
<path stroke-linejoin="round" stroke-linecap="round" stroke="rgb(255,0,0)" stroke-width="3.749996" fill="none" d="M 42.923683 638.025208 L 43.671951 650.745544 " />
<path stroke-linejoin="round" stroke-linecap="round" stroke="rgb(0,0,255)" stroke-width="1.874998" fill="none" d="M 0.000000 750.000000 L 241.071426 0.000000 " />
<path stroke-linejoin="round" stroke-linecap="round" stroke="rgb(255,0,0)" stroke-width="3.749996" fill="none" d="M 41.851357 619.795715 L 42.923683 638.025208 " />
<path stroke-linejoin="round" stroke-linecap="round" stroke="rgb(0,0,255)" stroke-width="1.874998" fill="none" d="M 0.000000 750.000000 L 193.181808 0.000000 " />
<path stroke-linejoin="round" stroke-linecap="round" stroke="rgb(255,0,0)" stroke-width="3.749996" fill="none" d="M 40.305691 593.519104 L 41.851357 619.795715 " />
<path stroke-linejoin="round" stroke-linecap="round" stroke="rgb(0,0,255)" stroke-width="1.874998" fill="none" d="M 0.000000 750.000000 L 157.894745 0.000000 " />
<path stroke-linejoin="round" stroke-linecap="round" stroke="rgb(255,0,0)" stroke-width="3.749996" fill="none" d="M 38.697815 566.185364 L 40.305691 593.519104 " />
<path stroke-linejoin="round" stroke-linecap="round" stroke="rgb(0,0,255)" stroke-width="1.874998" fill="none" d="M 0.000000 750.000000 L 148.255814 0.000000 " />
<path stroke-linejoin="round" stroke-linecap="round" stroke="rgb(255,0,0)" stroke-width="3.749996" fill="none" d="M 38.156055 556.975281 L 38.697815 566.185364 " />
<path stroke-linejoin="round" stroke-linecap="round" stroke="rgb(0,0,255)" stroke-width="1.874998" fill="none" d="M 0.000000 750.000000 L 125.000015 0.000000 " />
<path stroke-linejoin="round" stroke-linecap="round" stroke="rgb(255,0,0)" stroke-width="3.749996" fill="none" d="M 36.594673 530.431946 L 38.156055 556.975281 " />
<path stroke-linejoin="round" stroke-linecap="round" stroke="rgb(0,0,255)" stroke-width="1.874998" fill="none" d="M 0.000000 750.000000 L 120.283012 0.000000 " />
<path stroke-linejoin="round" stroke-linecap="round" stroke="rgb(255,0,0)" stroke-width="3.749996" fill="none" d="M 36.224106 524.132080 L 36.594673 530.431946 " />
<path stroke-linejoin="round" stroke-linecap="round" stroke="rgb(0,0,255)" stroke-width="1.874998" fill="none" d="M 0.000000 750.000000 L 103.448288 0.000000 " />
<path stroke-linejoin="round" stroke-linecap="round" stroke="rgb(255,0,0)" stroke-width="3.749996" fill="none" d="M 34.708344 498.364441 L 36.224106 524.132080 " />
<path stroke-linejoin="round" stroke-linecap="round" stroke="rgb(0,0,255)" stroke-width="1.874998" fill="none" d="M 0.000000 750.000000 L 101.190491 0.000000 " />
<path stroke-linejoin="round" stroke-linecap="round" stroke="rgb(255,0,0)" stroke-width="3.749996" fill="none" d="M 34.478367 494.454498 L 34.708344 498.364441 " />
<path stroke-linejoin="round" stroke-linecap="round" stroke="rgb(0,0,255)" stroke-width="1.874998" fill="none" d="M 0.000000 750.000000 L 99.999992 0.000000 " />
<path stroke-linejoin="round" stroke-linecap="round" stroke="rgb(255,0,0)" stroke-width="3.749996" fill="none" d="M 34.120449 494.096558 L 34.478367 494.454498 " />
<path stroke-linejoin="round" stroke-linecap="round" stroke="rgb(0,0,255)" stroke-width="1.874998" fill="none" d="M 0.000000 750.000000 L 90.909096 0.000000 " />
<path stroke-linejoin="round" stroke-linecap="round" stroke="rgb(255,0,0)" stroke-width="3.749996" fill="none" d="M 33.106976 476.867432 L 34.120449 494.096558 " />
<path stroke-linejoin="round" stroke-linecap="round" stroke="rgb(0,0,255)" stroke-width="1.874998" fill="none" d="M 0.000000 750.000000 L 81.818169 0.000000 " />
<path stroke-linejoin="round" stroke-linecap="round" stroke="rgb(255,0,0)" stroke-width="3.749996" fill="none" d="M 31.947166 457.150879 L 33.106976 476.867432 " />
<path stroke-linejoin="round" stroke-linecap="round" stroke="rgb(0,0,255)" stroke-width="1.874998" fill="none" d="M 0.000000 750.000000 L 80.357147 0.000000 " />
<path stroke-linejoin="round" stroke-linecap="round" stroke="rgb(255,0,0)" stroke-width="3.749996" fill="none" d="M 31.744972 453.713531 L 31.947166 457.150909 " />
<path stroke-linejoin="round" stroke-linecap="round" stroke="rgb(0,0,255)" stroke-width="1.874998" fill="none" d="M 0.000000 750.000000 L 78.947380 0.000000 " />
<path stroke-linejoin="round" stroke-linecap="round" stroke="rgb(255,0,0)" stroke-width="3.749996" fill="none" d="M 31.545326 450.319427 L 31.744972 453.713531 " />
<path stroke-linejoin="round" stroke-linecap="round" stroke="rgb(0,0,255)" stroke-width="1.874998" fill="none" d="M 0.000000 750.000000 L 77.586205 0.000000 " />
<path stroke-linejoin="round" stroke-linecap="round" stroke="rgb(255,0,0)" stroke-width="3.749996" fill="none" d="M 31.348162 446.967743 L 31.545326 450.319427 " />
<path stroke-linejoin="round" stroke-linecap="round" stroke="rgb(0,0,255)" stroke-width="1.874998" fill="none" d="M 0.000000 750.000000 L 75.630249 0.000000 " />
<path stroke-linejoin="round" stroke-linecap="round" stroke="rgb(255,0,0)" stroke-width="3.749996" fill="none" d="M 31.057007 442.018036 L 31.348162 446.967743 " />
<path stroke-linejoin="round" stroke-linecap="round" stroke="rgb(0,0,255)" stroke-width="1.874998" fill="none" d="M 0.000000 750.000000 L 75.581390 0.000000 " />
<path stroke-linejoin="round" stroke-linecap="round" stroke="rgb(255,0,0)" stroke-width="3.749996" fill="none" d="M 31.049610 441.892334 L 31.057007 442.018036 " />
<path stroke-linejoin="round" stroke-linecap="round" stroke="rgb(0,0,255)" stroke-width="1.874998" fill="none" d="M 0.000000 750.000000 L 74.380157 0.000000 " />
<path stroke-linejoin="round" stroke-linecap="round" stroke="rgb(255,0,0)" stroke-width="3.749996" fill="none" d="M 30.865877 438.768982 L 31.049610 441.892334 " />
<path stroke-linejoin="round" stroke-linecap="round" stroke="rgb(0,0,255)" stroke-width="1.874998" fill="none" d="M 0.000000 750.000000 L 73.170731 0.000000 " />
<path stroke-linejoin="round" stroke-linecap="round" stroke="rgb(255,0,0)" stroke-width="3.749996" fill="none" d="M 30.677095 435.559662 L 30.865877 438.768982 " />
<path stroke-linejoin="round" stroke-linecap="round" stroke="rgb(0,0,255)" stroke-width="1.874998" fill="none" d="M 0.000000 750.000000 L 68.750000 0.000000 " />
<path stroke-linejoin="round" stroke-linecap="round" stroke="rgb(255,0,0)" stroke-width="3.749996" fill="none" d="M 28.979324 433.861938 L 30.677095 435.559662 " />
<path stroke-linejoin="round" stroke-linecap="round" stroke="rgb(0,0,255)" stroke-width="1.874998" fill="none" d="M 0.000000 750.000000 L 67.622963 0.000000 " />
<path stroke-linejoin="round" stroke-linecap="round" stroke="rgb(255,0,0)" stroke-width="3.749996" fill="none" d="M 28.543554 433.426147 L 28.979324 433.861938 " />
<path stroke-linejoin="round" stroke-linecap="round" stroke="rgb(0,0,255)" stroke-width="1.874998" fill="none" d="M 0.000000 750.000000 L 64.453125 0.000000 " />
<path stroke-linejoin="round" stroke-linecap="round" stroke="rgb(255,0,0)" stroke-width="3.749996" fill="none" d="M 27.311459 432.194031 L 28.543554 433.426147 " />
<path stroke-linejoin="round" stroke-linecap="round" stroke="rgb(0,0,255)" stroke-width="1.874998" fill="none" d="M 0.000000 750.000000 L 63.084103 0.000000 " />
<path stroke-linejoin="round" stroke-linecap="round" stroke="rgb(255,0,0)" stroke-width="3.749996" fill="none" d="M 27.072720 428.135498 L 27.311459 432.194031 " />
<path stroke-linejoin="round" stroke-linecap="round" stroke="rgb(0,0,255)" stroke-width="1.874998" fill="none" d="M 0.000000 750.000000 L 51.282047 0.000000 " />
<path stroke-linejoin="round" stroke-linecap="round" stroke="rgb(255,0,0)" stroke-width="3.749996" fill="none" d="M 24.730459 388.317108 L 27.072720 428.135498 " />
<path stroke-linejoin="round" stroke-linecap="round" stroke="rgb(0,0,255)" stroke-width="1.874998" fill="none" d="M 0.000000 750.000000 L 41.338585 0.000000 " />
<path stroke-linejoin="round" stroke-linecap="round" stroke="rgb(255,0,0)" stroke-width="3.749996" fill="none" d="M 22.254892 346.232605 L 24.730459 388.317108 " />
<path stroke-linejoin="round" stroke-linecap="round" stroke="rgb(0,0,255)" stroke-width="1.874998" fill="none" d="M 0.000000 750.000000 L 32.846710 0.000000 " />
<path stroke-linejoin="round" stroke-linecap="round" stroke="rgb(255,0,0)" stroke-width="3.749996" fill="none" d="M 19.634329 301.682922 L 22.254892 346.232605 " />
<path stroke-linejoin="round" stroke-linecap="round" stroke="rgb(0,0,255)" stroke-width="1.874998" fill="none" d="M 0.000000 750.000000 L 28.662420 0.000000 " />
<path stroke-linejoin="round" stroke-linecap="round" stroke="rgb(255,0,0)" stroke-width="3.749996" fill="none" d="M 18.118166 275.908081 L 19.634329 301.682922 " />
<path stroke-linejoin="round" stroke-linecap="round" stroke="rgb(0,0,255)" stroke-width="1.874998" fill="none" d="M 0.000000 750.000000 L 27.607351 0.000000 " />
<path stroke-linejoin="round" stroke-linecap="round" stroke="rgb(255,0,0)" stroke-width="3.749996" fill="none" d="M 17.707943 268.934235 L 18.118166 275.908081 " />
<path stroke-linejoin="round" stroke-linecap="round" stroke="rgb(0,0,255)" stroke-width="1.874998" fill="none" d="M 0.000000 750.000000 L 26.627228 0.000000 " />
<path stroke-linejoin="round" stroke-linecap="round" stroke="rgb(255,0,0)" stroke-width="3.749996" fill="none" d="M 17.315895 262.269226 L 17.707943 268.934235 " />
<path stroke-linejoin="round" stroke-linecap="round" stroke="rgb(0,0,255)" stroke-width="1.874998" fill="none" d="M 0.000000 750.000000 L 26.011572 0.000000 " />
<path stroke-linejoin="round" stroke-linecap="round" stroke="rgb(255,0,0)" stroke-width="3.749996" fill="none" d="M 17.064013 257.987518 L 17.315895 262.269165 " />
<path stroke-linejoin="round" stroke-linecap="round" stroke="rgb(0,0,255)" stroke-width="1.874998" fill="none" d="M 0.000000 750.000000 L 24.861887 0.000000 " />
<path stroke-linejoin="round" stroke-linecap="round" stroke="rgb(255,0,0)" stroke-width="3.749996" fill="none" d="M 16.581640 249.787109 L 17.064013 257.987518 " />
<path stroke-linejoin="round" stroke-linecap="round" stroke="rgb(0,0,255)" stroke-width="1.874998" fill="none" d="M 0.000000 750.000000 L 22.590368 0.000000 " />
<path stroke-linejoin="round" stroke-linecap="round" stroke="rgb(255,0,0)" stroke-width="3.749996" fill="none" d="M 15.579700 232.754074 L 16.581640 249.787109 " />
<path stroke-linejoin="round" stroke-linecap="round" stroke="rgb(0,0,255)" stroke-width="1.874998" fill="none" d="M 0.000000 750.000000 L 17.045460 0.000000 " />
<path stroke-linejoin="round" stroke-linecap="round" stroke="rgb(255,0,0)" stroke-width="3.749996" fill="none" d="M 12.821317 185.861755 L 15.579700 232.754074 " />
<path stroke-linejoin="round" stroke-linecap="round" stroke="rgb(0,0,255)" stroke-width="1.874998" fill="none" d="M 0.000000 750.000000 L 15.306115 0.000000 " />
<path stroke-linejoin="round" stroke-linecap="round" stroke="rgb(255,0,0)" stroke-width="3.749996" fill="none" d="M 11.850021 169.349426 L 12.821317 185.861755 " />
<path stroke-linejoin="round" stroke-linecap="round" stroke="rgb(0,0,255)" stroke-width="1.874998" fill="none" d="M 0.000000 750.000000 L 13.888881 0.000000 " />
<path stroke-linejoin="round" stroke-linecap="round" stroke="rgb(255,0,0)" stroke-width="3.749996" fill="none" d="M 11.015497 155.162811 L 11.850021 169.349426 " />
<path stroke-linejoin="round" stroke-linecap="round" stroke="rgb(0,0,255)" stroke-width="1.874998" fill="none" d="M 0.000000 750.000000 L 13.513506 0.000000 " />
<path stroke-linejoin="round" stroke-linecap="round" stroke="rgb(255,0,0)" stroke-width="3.749996" fill="none" d="M 10.787599 151.288345 L 11.015497 155.162811 " />
<path stroke-linejoin="round" stroke-linecap="round" stroke="rgb(0,0,255)" stroke-width="1.874998" fill="none" d="M 0.000000 750.000000 L 13.043470 0.000000 " />
<path stroke-linejoin="round" stroke-linecap="round" stroke="rgb(255,0,0)" stroke-width="3.749996" fill="none" d="M 10.497988 146.365173 L 10.787599 151.288345 " />
<path stroke-linejoin="round" stroke-linecap="round" stroke="rgb(0,0,255)" stroke-width="1.874998" fill="none" d="M 0.000000 750.000000 L 12.875542 0.000000 " />
<path stroke-linejoin="round" stroke-linecap="round" stroke="rgb(255,0,0)" stroke-width="3.749996" fill="none" d="M 10.393359 144.586395 L 10.497988 146.365173 " />
<path stroke-linejoin="round" stroke-linecap="round" stroke="rgb(0,0,255)" stroke-width="1.874998" fill="none" d="M 0.000000 750.000000 L 12.711861 0.000000 " />
<path stroke-linejoin="round" stroke-linecap="round" stroke="rgb(255,0,0)" stroke-width="3.749996" fill="none" d="M 10.290809 142.842804 L 10.393359 144.586395 " />
<path stroke-linejoin="round" stroke-linecap="round" stroke="rgb(0,0,255)" stroke-width="1.874998" fill="none" d="M 0.000000 750.000000 L 12.605042 0.000000 " />
<path stroke-linejoin="round" stroke-linecap="round" stroke="rgb(255,0,0)" stroke-width="3.749996" fill="none" d="M 10.223530 141.699356 L 10.290809 142.842804 " />
<path stroke-linejoin="round" stroke-linecap="round" stroke="rgb(0,0,255)" stroke-width="1.874998" fill="none" d="M 0.000000 750.000000 L 12.552291 0.000000 " />
<path stroke-linejoin="round" stroke-linecap="round" stroke="rgb(255,0,0)" stroke-width="3.749996" fill="none" d="M 10.190248 141.133240 L 10.223530 141.699356 " />
<path stroke-linejoin="round" stroke-linecap="round" stroke="rgb(0,0,255)" stroke-width="1.874998" fill="none" d="M 0.000000 750.000000 L 12.448132 0.000000 " />
<path stroke-linejoin="round" stroke-linecap="round" stroke="rgb(255,0,0)" stroke-width="3.749996" fill="none" d="M 10.124289 140.011978 L 10.190248 141.133240 " />
<path stroke-linejoin="round" stroke-linecap="round" stroke="rgb(0,0,255)" stroke-width="1.874998" fill="none" d="M 0.000000 750.000000 L 12.396701 0.000000 " />
<path stroke-linejoin="round" stroke-linecap="round" stroke="rgb(255,0,0)" stroke-width="3.749996" fill="none" d="M 10.091633 139.456741 L 10.124289 140.011978 " />
<path stroke-linejoin="round" stroke-linecap="round" stroke="rgb(0,0,255)" stroke-width="1.874998" fill="none" d="M 0.000000 750.000000 L 12.345672 0.000000 " />
<path stroke-linejoin="round" stroke-linecap="round" stroke="rgb(255,0,0)" stroke-width="3.749996" fill="none" d="M 10.059177 138.905121 L 10.091633 139.456741 " />
<path stroke-linejoin="round" stroke-linecap="round" stroke="rgb(0,0,255)" stroke-width="1.874998" fill="none" d="M 0.000000 750.000000 L 10.514013 0.000000 " />
<path stroke-linejoin="round" stroke-linecap="round" stroke="rgb(255,0,0)" stroke-width="3.749996" fill="none" d="M 8.853971 118.416710 L 10.059177 138.905121 " />
<path stroke-linejoin="round" stroke-linecap="round" stroke="rgb(0,0,255)" stroke-width="1.874998" fill="none" d="M 0.000000 750.000000 L 9.615384 0.000000 " />
<path stroke-linejoin="round" stroke-linecap="round" stroke="rgb(255,0,0)" stroke-width="3.749996" fill="none" d="M 8.232638 107.854080 L 8.853971 118.416710 " />
<path stroke-linejoin="round" stroke-linecap="round" stroke="rgb(0,0,255)" stroke-width="1.874998" fill="none" d="M 0.000000 750.000000 L 9.533890 0.000000 " />
<path stroke-linejoin="round" stroke-linecap="round" stroke="rgb(255,0,0)" stroke-width="3.749996" fill="none" d="M 8.175261 106.878830 L 8.232638 107.854126 " />
<path stroke-linejoin="round" stroke-linecap="round" stroke="rgb(0,0,255)" stroke-width="1.874998" fill="none" d="M 0.000000 750.000000 L 6.097555 0.000000 " />
<path stroke-linejoin="round" stroke-linecap="round" stroke="rgb(255,0,0)" stroke-width="3.749996" fill="none" d="M 5.586438 62.868587 L 8.175261 106.878830 " />
<path stroke-linejoin="round" stroke-linecap="round" stroke="rgb(0,0,255)" stroke-width="1.874998" fill="none" d="M 0.000000 750.000000 L 2.929688 0.000000 " />
<path stroke-linejoin="round" stroke-linecap="round" stroke="rgb(255,0,0)" stroke-width="3.749996" fill="none" d="M 2.864845 16.601488 L 5.586438 62.868587 " />
<path stroke-linejoin="round" stroke-linecap="round" stroke="rgb(0,0,255)" stroke-width="1.874998" fill="none" d="M 0.000000 750.000000 L 0.000000 0.000000 " />
<path stroke-linejoin="round" stroke-linecap="round" stroke="rgb(255,0,0)" stroke-width="3.749996" fill="none" d="M 0.000000 0.000000 L 2.864845 16.601555 " />
<circle cx="83.222061" cy="748.108596" r="3.749996" style="fill:rgb(0,127,0);stroke-width:1" /><circle cx="81.330657" cy="746.217169" r="3.749996" style="fill:rgb(0,127,0);stroke-width:1" /><circle cx="79.439253" cy="744.325764" r="3.749996" style="fill:rgb(0,127,0);stroke-width:1" /><circle cx="77.547826" cy="742.434360" r="3.749996" style="fill:rgb(0,127,0);stroke-width:1" /><circle cx="75.656421" cy="740.542956" r="3.749996" style="fill:rgb(0,127,0);stroke-width:1" /><circle cx="73.765017" cy="738.651529" r="3.749996" style="fill:rgb(0,127,0);stroke-width:1" /><circle cx="71.873590" cy="736.760125" r="3.749996" style="fill:rgb(0,127,0);stroke-width:1" /><circle cx="69.982186" cy="734.868720" r="3.749996" style="fill:rgb(0,127,0);stroke-width:1" /><circle cx="68.090782" cy="732.977316" r="3.749996" style="fill:rgb(0,127,0);stroke-width:1" /><circle cx="66.199355" cy="731.085889" r="3.749996" style="fill:rgb(0,127,0);stroke-width:1" /><circle cx="65.193303" cy="730.079837" r="3.749996" style="fill:rgb(0,127,0);stroke-width:1" /><circle cx="64.307950" cy="729.194485" r="3.749996" style="fill:rgb(0,127,0);stroke-width:1" /><circle cx="62.416546" cy="727.303080" r="3.749996" style="fill:rgb(0,127,0);stroke-width:1" /><circle cx="60.525119" cy="725.411676" r="3.749996" style="fill:rgb(0,127,0);stroke-width:1" /><circle cx="58.633715" cy="723.520249" r="3.749996" style="fill:rgb(0,127,0);stroke-width:1" /><circle cx="57.949595" cy="722.836129" r="3.749996" style="fill:rgb(0,127,0);stroke-width:1" /><circle cx="56.742311" cy="721.628845" r="3.749996" style="fill:rgb(0,127,0);stroke-width:1" /><circle cx="56.138679" cy="721.025214" r="3.749996" style="fill:rgb(0,127,0);stroke-width:1" /><circle cx="54.850906" cy="719.737440" r="3.749996" style="fill:rgb(0,127,0);stroke-width:1" /><circle cx="54.327741" cy="719.214275" r="3.749996" style="fill:rgb(0,127,0);stroke-width:1" /><circle cx="52.959479" cy="717.846036" r="3.749996" style="fill:rgb(0,127,0);stroke-width:1" /><circle cx="51.068075" cy="715.954609" r="3.749996" style="fill:rgb(0,127,0);stroke-width:1" /><circle cx="49.176671" cy="714.063205" r="3.749996" style="fill:rgb(0,127,0);stroke-width:1" /><circle cx="47.285266" cy="712.171800" r="3.749996" style="fill:rgb(0,127,0);stroke-width:1" /><circle cx="46.119310" cy="692.350857" r="3.749996" style="fill:rgb(0,127,0);stroke-width:1" /><circle cx="44.915512" cy="671.886094" r="3.749996" style="fill:rgb(0,127,0);stroke-width:1" /><circle cx="43.671951" cy="650.745593" r="3.749996" style="fill:rgb(0,127,0);stroke-width:1" /><circle cx="42.923681" cy="638.025172" r="3.749996" style="fill:rgb(0,127,0);stroke-width:1" /><circle cx="41.851357" cy="619.795740" r="3.749996" style="fill:rgb(0,127,0);stroke-width:1" /><circle cx="40.305689" cy="593.519121" r="3.749996" style="fill:rgb(0,127,0);stroke-width:1" /><circle cx="38.697816" cy="566.185378" r="3.749996" style="fill:rgb(0,127,0);stroke-width:1" /><circle cx="38.156055" cy="556.975286" r="3.749996" style="fill:rgb(0,127,0);stroke-width:1" /><circle cx="36.594674" cy="530.431945" r="3.749996" style="fill:rgb(0,127,0);stroke-width:1" /><circle cx="36.224104" cy="524.132095" r="3.749996" style="fill:rgb(0,127,0);stroke-width:1" /><circle cx="34.708343" cy="498.364426" r="3.749996" style="fill:rgb(0,127,0);stroke-width:1" /><circle cx="34.478366" cy="494.454525" r="3.749996" style="fill:rgb(0,127,0);stroke-width:1" /><circle cx="34.120448" cy="494.096573" r="3.749996" style="fill:rgb(0,127,0);stroke-width:1" /><circle cx="33.106975" cy="476.867460" r="3.749996" style="fill:rgb(0,127,0);stroke-width:1" /><circle cx="31.947166" cy="457.150899" r="3.749996" style="fill:rgb(0,127,0);stroke-width:1" /><circle cx="31.744972" cy="453.713559" r="3.749996" style="fill:rgb(0,127,0);stroke-width:1" /><circle cx="31.545326" cy="450.319430" r="3.749996" style="fill:rgb(0,127,0);stroke-width:1" /><circle cx="31.348161" cy="446.967719" r="3.749996" style="fill:rgb(0,127,0);stroke-width:1" /><circle cx="31.057008" cy="442.018054" r="3.749996" style="fill:rgb(0,127,0);stroke-width:1" /><circle cx="31.049609" cy="441.892348" r="3.749996" style="fill:rgb(0,127,0);stroke-width:1" /><circle cx="30.865878" cy="438.769005" r="3.749996" style="fill:rgb(0,127,0);stroke-width:1" /><circle cx="30.677095" cy="435.559692" r="3.749996" style="fill:rgb(0,127,0);stroke-width:1" /><circle cx="28.979324" cy="433.861909" r="3.749996" style="fill:rgb(0,127,0);stroke-width:1" /><circle cx="28.543554" cy="433.426140" r="3.749996" style="fill:rgb(0,127,0);stroke-width:1" /><circle cx="27.311459" cy="432.194034" r="3.749996" style="fill:rgb(0,127,0);stroke-width:1" /><circle cx="27.072720" cy="428.135516" r="3.749996" style="fill:rgb(0,127,0);stroke-width:1" /><circle cx="24.730459" cy="388.317108" r="3.749996" style="fill:rgb(0,127,0);stroke-width:1" /><circle cx="22.254892" cy="346.232613" r="3.749996" style="fill:rgb(0,127,0);stroke-width:1" /><circle cx="19.634329" cy="301.682912" r="3.749996" style="fill:rgb(0,127,0);stroke-width:1" /><circle cx="18.118165" cy="275.908068" r="3.749996" style="fill:rgb(0,127,0);stroke-width:1" /><circle cx="17.707944" cy="268.934246" r="3.749996" style="fill:rgb(0,127,0);stroke-width:1" /><circle cx="17.315894" cy="262.269214" r="3.749996" style="fill:rgb(0,127,0);stroke-width:1" /><circle cx="17.064013" cy="257.987503" r="3.749996" style="fill:rgb(0,127,0);stroke-width:1" /><circle cx="16.581640" cy="249.787096" r="3.749996" style="fill:rgb(0,127,0);stroke-width:1" /><circle cx="15.579700" cy="232.754074" r="3.749996" style="fill:rgb(0,127,0);stroke-width:1" /><circle cx="12.821317" cy="185.861751" r="3.749996" style="fill:rgb(0,127,0);stroke-width:1" /><circle cx="11.850022" cy="169.349425" r="3.749996" style="fill:rgb(0,127,0);stroke-width:1" /><circle cx="11.015497" cy="155.162819" r="3.749996" style="fill:rgb(0,127,0);stroke-width:1" /><circle cx="10.787599" cy="151.288345" r="3.749996" style="fill:rgb(0,127,0);stroke-width:1" /><circle cx="10.497987" cy="146.365173" r="3.749996" style="fill:rgb(0,127,0);stroke-width:1" /><circle cx="10.393359" cy="144.586399" r="3.749996" style="fill:rgb(0,127,0);stroke-width:1" /><circle cx="10.290809" cy="142.842807" r="3.749996" style="fill:rgb(0,127,0);stroke-width:1" /><circle cx="10.223530" cy="141.699359" r="3.749996" style="fill:rgb(0,127,0);stroke-width:1" /><circle cx="10.190248" cy="141.133234" r="3.749996" style="fill:rgb(0,127,0);stroke-width:1" /><circle cx="10.124288" cy="140.011981" r="3.749996" style="fill:rgb(0,127,0);stroke-width:1" /><circle cx="10.091633" cy="139.456742" r="3.749996" style="fill:rgb(0,127,0);stroke-width:1" /><circle cx="10.059178" cy="138.905123" r="3.749996" style="fill:rgb(0,127,0);stroke-width:1" /><circle cx="8.853972" cy="118.416712" r="3.749996" style="fill:rgb(0,127,0);stroke-width:1" /><circle cx="8.232638" cy="107.854083" r="3.749996" style="fill:rgb(0,127,0);stroke-width:1" /><circle cx="8.175261" cy="106.878832" r="3.749996" style="fill:rgb(0,127,0);stroke-width:1" /><circle cx="5.586438" cy="62.868588" r="3.749996" style="fill:rgb(0,127,0);stroke-width:1" /><circle cx="2.864823" cy="16.601488" r="3.750008" style="fill:rgb(0,127,0);stroke-width:1" /><circle cx="750.000000" cy="750.000000" r="3.749996" style="fill:rgb(0,127,0);stroke-width:1" /><path stroke-linejoin="round" stroke-linecap="round" stroke="rgb(255,255,255)" stroke-width="3.749996" fill="none" d="M 0.000000 750.000000 L 750.000000 750.000000 M 0.000000 750.000000 L 0.000000 0.000000 " />

</svg>