<svg xmlns="http://www.w3.org/2000/svg" version="1.1" width = "750" height = "750" viewBox = "0 0 750 750"  shape-rendering="crispEdges">
<path stroke-linejoin="round" stroke-linecap="round" stroke="rgb(255,255,0)" stroke-width="3.749996" fill="none" d="M 124.999992 750.000000 L 0.000000 0.000000 " />
<path stroke-linejoin="round" stroke-linecap="round" stroke="rgb(63,63,63)" stroke-width="3.749996" fill="none" d="M 0.000000 0.000000 L 750.000000 750.000000 M 124.999992 750.000000 L 56.818172 0.000000 " />
<path stroke-linejoin="round" stroke-linecap="round" stroke="rgb(191,191,191)" stroke-width="3.749996" fill="none" d="M 0.000000 625.000000 L 124.999992 750.000000 M 0.000000 0.000000 L 68.181824 750.000000 " />
<path stroke-linejoin="round" stroke-linecap="round" stroke="rgb(0,0,255)" stroke-width="1.874998" fill="none" d="M 0.000000 750.000000 L 750.000000 732.558105 " />
<path stroke-linejoin="round" stroke-linecap="round" stroke="rgb(255,0,0)" stroke-width="3.749996" fill="none" d="M 124.736290 747.099121 L 124.999992 750.000000 " />
<path stroke-linejoin="round" stroke-linecap="round" stroke="rgb(0,0,255)" stroke-width="1.874998" fill="none" d="M 0.000000 750.000000 L 750.000000 714.285706 " />
<path stroke-linejoin="round" stroke-linecap="round" stroke="rgb(255,0,0)" stroke-width="3.749996" fill="none" d="M 121.835434 744.198303 L 124.736290 747.099121 " />
<path stroke-linejoin="round" stroke-linecap="round" stroke="rgb(0,0,255)" stroke-width="1.874998" fill="none" d="M 0.000000 750.000000 L 750.000000 695.121948 " />
<path stroke-linejoin="round" stroke-linecap="round" stroke="rgb(255,0,0)" stroke-width="3.749996" fill="none" d="M 118.934601 741.297485 L 121.835434 744.198303 " />
<path stroke-linejoin="round" stroke-linecap="round" stroke="rgb(0,0,255)" stroke-width="1.874998" fill="none" d="M 0.000000 750.000000 L 750.000000 675.000000 " />
<path stroke-linejoin="round" stroke-linecap="round" stroke="rgb(255,0,0)" stroke-width="3.749996" fill="none" d="M 116.033745 738.396606 L 118.934578 741.297485 " />
<path stroke-linejoin="round" stroke-linecap="round" stroke="rgb(0,0,255)" stroke-width="1.874998" fill="none" d="M 0.000000 750.000000 L 750.000000 658.536560 " />
<path stroke-linejoin="round" stroke-linecap="round" stroke="rgb(255,0,0)" stroke-width="3.749996" fill="none" d="M 113.763527 736.126404 L 116.033745 738.396606 " />
<path stroke-linejoin="round" stroke-linecap="round" stroke="rgb(0,0,255)" stroke-width="1.874998" fill="none" d="M 0.000000 750.000000 L 750.000000 653.846130 " />
<path stroke-linejoin="round" stroke-linecap="round" stroke="rgb(255,0,0)" stroke-width="3.749996" fill="none" d="M 113.132896 735.495789 L 113.763527 736.126404 " />
<path stroke-linejoin="round" stroke-linecap="round" stroke="rgb(0,0,255)" stroke-width="1.874998" fill="none" d="M 0.000000 750.000000 L 750.000000 631.578979 " />
<path stroke-linejoin="round" stroke-linecap="round" stroke="rgb(255,0,0)" stroke-width="3.749996" fill="none" d="M 110.232063 732.594971 L 113.132896 735.495789 " />
<path stroke-linejoin="round" stroke-linecap="round" stroke="rgb(0,0,255)" stroke-width="1.874998" fill="none" d="M 0.000000 750.000000 L 750.000000 608.108093 " />
<path stroke-linejoin="round" stroke-linecap="round" stroke="rgb(255,0,0)" stroke-width="3.749996" fill="none" d="M 107.331207 729.694092 L 110.232063 732.594971 " />
<path stroke-linejoin="round" stroke-linecap="round" stroke="rgb(0,0,255)" stroke-width="1.874998" fill="none" d="M 0.000000 750.000000 L 750.000000 583.333313 " />
<path stroke-linejoin="round" stroke-linecap="round" stroke="rgb(255,0,0)" stroke-width="3.749996" fill="none" d="M 104.430359 726.793274 L 107.331207 729.694092 " />
<path stroke-linejoin="round" stroke-linecap="round" stroke="rgb(0,0,255)" stroke-width="1.874998" fill="none" d="M 0.000000 750.000000 L 750.000000 557.142822 " />
<path stroke-linejoin="round" stroke-linecap="round" stroke="rgb(255,0,0)" stroke-width="3.749996" fill="none" d="M 101.529526 723.892395 L 104.430359 726.793274 " />
<path stroke-linejoin="round" stroke-linecap="round" stroke="rgb(0,0,255)" stroke-width="1.874998" fill="none" d="M 0.000000 750.000000 L 750.000000 529.411743 " />
<path stroke-linejoin="round" stroke-linecap="round" stroke="rgb(255,0,0)" stroke-width="3.749996" fill="none" d="M 98.628670 720.991577 L 101.529526 723.892395 " />
<path stroke-linejoin="round" stroke-linecap="round" stroke="rgb(0,0,255)" stroke-width="1.874998" fill="none" d="M 0.000000 750.000000 L 750.000000 514.285706 " />
<path stroke-linejoin="round" stroke-linecap="round" stroke="rgb(255,0,0)" stroke-width="3.749996" fill="none" d="M 97.115189 719.478088 L 98.628670 720.991577 " />
<path stroke-linejoin="round" stroke-linecap="round" stroke="rgb(0,0,255)" stroke-width="1.874998" fill="none" d="M 0.000000 750.000000 L 750.000000 499.999969 " />
<path stroke-linejoin="round" stroke-linecap="round" stroke="rgb(255,0,0)" stroke-width="3.749996" fill="none" d="M 95.727837 718.090759 L 97.115189 719.478088 " />
<path stroke-linejoin="round" stroke-linecap="round" stroke="rgb(0,0,255)" stroke-width="1.874998" fill="none" d="M 0.000000 750.000000 L 750.000000 485.294128 " />
<path stroke-linejoin="round" stroke-linecap="round" stroke="rgb(255,0,0)" stroke-width="3.749996" fill="none" d="M 94.340469 716.703369 L 95.727837 718.090759 " />
<path stroke-linejoin="round" stroke-linecap="round" stroke="rgb(0,0,255)" stroke-width="1.874998" fill="none" d="M 0.000000 750.000000 L 750.000000 468.750000 " />
<path stroke-linejoin="round" stroke-linecap="round" stroke="rgb(255,0,0)" stroke-width="3.749996" fill="none" d="M 92.827003 715.189819 L 94.340469 716.703369 " />
<path stroke-linejoin="round" stroke-linecap="round" stroke="rgb(0,0,255)" stroke-width="1.874998" fill="none" d="M 0.000000 750.000000 L 750.000000 435.483917 " />
<path stroke-linejoin="round" stroke-linecap="round" stroke="rgb(255,0,0)" stroke-width="3.749996" fill="none" d="M 89.926155 712.289062 L 92.827003 715.189819 " />
<path stroke-linejoin="round" stroke-linecap="round" stroke="rgb(0,0,255)" stroke-width="1.874998" fill="none" d="M 0.000000 750.000000 L 750.000000 399.999969 " />
<path stroke-linejoin="round" stroke-linecap="round" stroke="rgb(255,0,0)" stroke-width="3.749996" fill="none" d="M 87.025299 709.388184 L 89.926155 712.289062 " />
<path stroke-linejoin="round" stroke-linecap="round" stroke="rgb(0,0,255)" stroke-width="1.874998" fill="none" d="M 0.000000 750.000000 L 750.000000 387.096771 " />
<path stroke-linejoin="round" stroke-linecap="round" stroke="rgb(255,0,0)" stroke-width="3.749996" fill="none" d="M 86.016319 708.379150 L 87.025299 709.388184 " />
<path stroke-linejoin="round" stroke-linecap="round" stroke="rgb(0,0,255)" stroke-width="1.874998" fill="none" d="M 0.000000 750.000000 L 750.000000 362.068970 " />
<path stroke-linejoin="round" stroke-linecap="round" stroke="rgb(255,0,0)" stroke-width="3.749996" fill="none" d="M 84.124466 706.487305 L 86.016319 708.379150 " />
<path stroke-linejoin="round" stroke-linecap="round" stroke="rgb(0,0,255)" stroke-width="1.874998" fill="none" d="M 0.000000 750.000000 L 750.000000 349.999969 " />
<path stroke-linejoin="round" stroke-linecap="round" stroke="rgb(255,0,0)" stroke-width="3.749996" fill="none" d="M 83.241600 705.604492 L 84.124466 706.487305 " />
<path stroke-linejoin="round" stroke-linecap="round" stroke="rgb(0,0,255)" stroke-width="1.874998" fill="none" d="M 0.000000 750.000000 L 750.000000 321.428558 " />
<path stroke-linejoin="round" stroke-linecap="round" stroke="rgb(255,0,0)" stroke-width="3.749996" fill="none" d="M 81.223618 703.586548 L 83.241600 705.604492 " />
<path stroke-linejoin="round" stroke-linecap="round" stroke="rgb(0,0,255)" stroke-width="1.874998" fill="none" d="M 0.000000 750.000000 L 750.000000 277.777802 " />
<path stroke-linejoin="round" stroke-linecap="round" stroke="rgb(255,0,0)" stroke-width="3.749996" fill="none" d="M 78.322784 700.685669 L 81.223618 703.586548 " />
<path stroke-linejoin="round" stroke-linecap="round" stroke="rgb(0,0,255)" stroke-width="1.874998" fill="none" d="M 0.000000 750.000000 L 750.000000 230.769211 " />
<path stroke-linejoin="round" stroke-linecap="round" stroke="rgb(255,0,0)" stroke-width="3.749996" fill="none" d="M 75.421928 697.784790 L 78.322784 700.685669 " />
<path stroke-linejoin="round" stroke-linecap="round" stroke="rgb(0,0,255)" stroke-width="1.874998" fill="none" d="M 0.000000 750.000000 L 750.000000 222.222229 " />
<path stroke-linejoin="round" stroke-linecap="round" stroke="rgb(255,0,0)" stroke-width="3.749996" fill="none" d="M 74.917450 697.280273 L 75.421928 697.784790 " />
<path stroke-linejoin="round" stroke-linecap="round" stroke="rgb(0,0,255)" stroke-width="1.874998" fill="none" d="M 0.000000 750.000000 L 750.000000 173.076920 " />
<path stroke-linejoin="round" stroke-linecap="round" stroke="rgb(255,0,0)" stroke-width="3.749996" fill="none" d="M 72.142731 694.505615 L 74.917450 697.280273 " />
<path stroke-linejoin="round" stroke-linecap="round" stroke="rgb(0,0,255)" stroke-width="1.874998" fill="none" d="M 0.000000 750.000000 L 750.000000 120.000023 " />
<path stroke-linejoin="round" stroke-linecap="round" stroke="rgb(255,0,0)" stroke-width="3.749996" fill="none" d="M 69.368004 691.730896 L 72.142731 694.505615 " />
<path stroke-linejoin="round" stroke-linecap="round" stroke="rgb(0,0,255)" stroke-width="1.874998" fill="none" d="M 0.000000 750.000000 L 750.000000 115.384605 " />
<path stroke-linejoin="round" stroke-linecap="round" stroke="rgb(255,0,0)" stroke-width="3.749996" fill="none" d="M 69.136780 691.499695 L 69.368004 691.730896 " />
<path stroke-linejoin="round" stroke-linecap="round" stroke="rgb(0,0,255)" stroke-width="1.874998" fill="none" d="M 0.000000 750.000000 L 750.000000 62.499985 " />
<path stroke-linejoin="round" stroke-linecap="round" stroke="rgb(255,0,0)" stroke-width="3.749996" fill="none" d="M 66.593285 688.956116 L 69.136780 691.499695 " />
<path stroke-linejoin="round" stroke-linecap="round" stroke="rgb(0,0,255)" stroke-width="1.874998" fill="none" d="M 0.000000 750.000000 L 750.000000 59.999989 " />
<path stroke-linejoin="round" stroke-linecap="round" stroke="rgb(255,0,0)" stroke-width="3.749996" fill="none" d="M 66.477654 688.840515 L 66.593285 688.956116 " />
<path stroke-linejoin="round" stroke-linecap="round" stroke="rgb(0,0,255)" stroke-width="1.874998" fill="none" d="M 0.000000 750.000000 L 539.062500 0.000000 " />
<path stroke-linejoin="round" stroke-linecap="round" stroke="rgb(255,0,0)" stroke-width="3.749996" fill="none" d="M 63.949184 661.027222 L 66.477654 688.840515 " />
<path stroke-linejoin="round" stroke-linecap="round" stroke="rgb(0,0,255)" stroke-width="1.874998" fill="none" d="M 0.000000 750.000000 L 392.857178 0.000000 " />
<path stroke-linejoin="round" stroke-linecap="round" stroke="rgb(255,0,0)" stroke-width="3.749996" fill="none" d="M 61.384163 632.812073 L 63.949184 661.027222 " />
<path stroke-linejoin="round" stroke-linecap="round" stroke="rgb(0,0,255)" stroke-width="1.874998" fill="none" d="M 0.000000 750.000000 L 302.884613 0.000000 " />
<path stroke-linejoin="round" stroke-linecap="round" stroke="rgb(255,0,0)" stroke-width="3.749996" fill="none" d="M 58.801018 604.397461 L 61.384163 632.812073 " />
<path stroke-linejoin="round" stroke-linecap="round" stroke="rgb(0,0,255)" stroke-width="1.874998" fill="none" d="M 0.000000 750.000000 L 266.129059 0.000000 " />
<path stroke-linejoin="round" stroke-linecap="round" stroke="rgb(255,0,0)" stroke-width="3.749996" fill="none" d="M 57.345718 588.389282 L 58.801018 604.397461 " />
<path stroke-linejoin="round" stroke-linecap="round" stroke="rgb(0,0,255)" stroke-width="1.874998" fill="none" d="M 0.000000 750.000000 L 241.935501 0.000000 " />
<path stroke-linejoin="round" stroke-linecap="round" stroke="rgb(255,0,0)" stroke-width="3.749996" fill="none" d="M 56.199543 575.781433 L 57.345718 588.389282 " />
<path stroke-linejoin="round" stroke-linecap="round" stroke="rgb(0,0,255)" stroke-width="1.874998" fill="none" d="M 0.000000 750.000000 L 218.750000 0.000000 " />
<path stroke-linejoin="round" stroke-linecap="round" stroke="rgb(255,0,0)" stroke-width="3.749996" fill="none" d="M 54.919750 561.703674 L 56.199543 575.781433 " />
<path stroke-linejoin="round" stroke-linecap="round" stroke="rgb(0,0,255)" stroke-width="1.874998" fill="none" d="M 0.000000 750.000000 L 200.892853 0.000000 " />
<path stroke-linejoin="round" stroke-linecap="round" stroke="rgb(255,0,0)" stroke-width="3.749996" fill="none" d="M 53.783722 549.207397 L 54.919750 561.703674 " />
<path stroke-linejoin="round" stroke-linecap="round" stroke="rgb(0,0,255)" stroke-width="1.874998" fill="none" d="M 0.000000 750.000000 L 198.979584 0.000000 " />
<path stroke-linejoin="round" stroke-linecap="round" stroke="rgb(255,0,0)" stroke-width="3.749996" fill="none" d="M 53.378887 548.802612 L 53.783722 549.207458 " />
<path stroke-linejoin="round" stroke-linecap="round" stroke="rgb(0,0,255)" stroke-width="1.874998" fill="none" d="M 0.000000 750.000000 L 180.000000 0.000000 " />
<path stroke-linejoin="round" stroke-linecap="round" stroke="rgb(255,0,0)" stroke-width="3.749996" fill="none" d="M 49.450546 543.956055 L 53.378887 548.802612 " />
<path stroke-linejoin="round" stroke-linecap="round" stroke="rgb(0,0,255)" stroke-width="1.874998" fill="none" d="M 0.000000 750.000000 L 161.764694 0.000000 " />
<path stroke-linejoin="round" stroke-linecap="round" stroke="rgb(255,0,0)" stroke-width="3.749996" fill="none" d="M 47.965118 527.616272 L 49.450546 543.956055 " />
<path stroke-linejoin="round" stroke-linecap="round" stroke="rgb(0,0,255)" stroke-width="1.874998" fill="none" d="M 0.000000 750.000000 L 144.230789 0.000000 " />
<path stroke-linejoin="round" stroke-linecap="round" stroke="rgb(255,0,0)" stroke-width="3.749996" fill="none" d="M 46.296291 509.259277 L 47.965118 527.616272 " />
<path stroke-linejoin="round" stroke-linecap="round" stroke="rgb(0,0,255)" stroke-width="1.874998" fill="none" d="M 0.000000 750.000000 L 133.064529 0.000000 " />
<path stroke-linejoin="round" stroke-linecap="round" stroke="rgb(255,0,0)" stroke-width="3.749996" fill="none" d="M 45.081966 495.901703 L 46.296291 509.259308 " />
<path stroke-linejoin="round" stroke-linecap="round" stroke="rgb(0,0,255)" stroke-width="1.874998" fill="none" d="M 0.000000 750.000000 L 119.047615 0.000000 " />
<path stroke-linejoin="round" stroke-linecap="round" stroke="rgb(255,0,0)" stroke-width="3.749996" fill="none" d="M 43.352589 476.878601 L 45.081966 495.901703 " />
<path stroke-linejoin="round" stroke-linecap="round" stroke="rgb(0,0,255)" stroke-width="1.874998" fill="none" d="M 0.000000 750.000000 L 113.013718 0.000000 " />
<path stroke-linejoin="round" stroke-linecap="round" stroke="rgb(255,0,0)" stroke-width="3.749996" fill="none" d="M 42.525776 467.783508 L 43.352612 476.878571 " />
<path stroke-linejoin="round" stroke-linecap="round" stroke="rgb(0,0,255)" stroke-width="1.874998" fill="none" d="M 0.000000 750.000000 L 108.695648 0.000000 " />
<path stroke-linejoin="round" stroke-linecap="round" stroke="rgb(255,0,0)" stroke-width="3.749996" fill="none" d="M 41.899437 460.893860 L 42.525776 467.783508 " />
<path stroke-linejoin="round" stroke-linecap="round" stroke="rgb(0,0,255)" stroke-width="1.874998" fill="none" d="M 0.000000 750.000000 L 104.430374 0.000000 " />
<path stroke-linejoin="round" stroke-linecap="round" stroke="rgb(255,0,0)" stroke-width="3.749996" fill="none" d="M 41.250004 453.749969 L 41.899437 460.893860 " />
<path stroke-linejoin="round" stroke-linecap="round" stroke="rgb(0,0,255)" stroke-width="1.874998" fill="none" d="M 0.000000 750.000000 L 93.750000 0.000000 " />
<path stroke-linejoin="round" stroke-linecap="round" stroke="rgb(255,0,0)" stroke-width="3.749996" fill="none" d="M 39.473667 434.210571 L 41.250004 453.749969 " />
<path stroke-linejoin="round" stroke-linecap="round" stroke="rgb(0,0,255)" stroke-width="1.874998" fill="none" d="M 0.000000 750.000000 L 90.909096 0.000000 " />
<path stroke-linejoin="round" stroke-linecap="round" stroke="rgb(255,0,0)" stroke-width="3.749996" fill="none" d="M 38.961029 428.571442 L 39.473667 434.210571 " />
<path stroke-linejoin="round" stroke-linecap="round" stroke="rgb(0,0,255)" stroke-width="1.874998" fill="none" d="M 0.000000 750.000000 L 83.333328 0.000000 " />
<path stroke-linejoin="round" stroke-linecap="round" stroke="rgb(255,0,0)" stroke-width="3.749996" fill="none" d="M 37.499985 412.500061 L 38.961029 428.571442 " />
<path stroke-linejoin="round" stroke-linecap="round" stroke="rgb(0,0,255)" stroke-width="1.874998" fill="none" d="M 0.000000 750.000000 L 81.081078 0.000000 " />
<path stroke-linejoin="round" stroke-linecap="round" stroke="rgb(255,0,0)" stroke-width="3.749996" fill="none" d="M 37.037037 407.407440 L 37.499985 412.500061 " />
<path stroke-linejoin="round" stroke-linecap="round" stroke="rgb(0,0,255)" stroke-width="1.874998" fill="none" d="M 0.000000 750.000000 L 78.947380 0.000000 " />
<path stroke-linejoin="round" stroke-linecap="round" stroke="rgb(255,0,0)" stroke-width="3.749996" fill="none" d="M 36.585354 402.439056 L 37.037037 407.407440 " />
<path stroke-linejoin="round" stroke-linecap="round" stroke="rgb(0,0,255)" stroke-width="1.874998" fill="none" d="M 0.000000 750.000000 L 70.588234 0.000000 " />
<path stroke-linejoin="round" stroke-linecap="round" stroke="rgb(255,0,0)" stroke-width="3.749996" fill="none" d="M 34.682079 381.502930 L 36.585354 402.439056 " />
<path stroke-linejoin="round" stroke-linecap="round" stroke="rgb(0,0,255)" stroke-width="1.874998" fill="none" d="M 0.000000 750.000000 L 68.965515 0.000000 " />
<path stroke-linejoin="round" stroke-linecap="round" stroke="rgb(255,0,0)" stroke-width="3.749996" fill="none" d="M 34.285717 377.142914 L 34.682079 381.502930 " />
<path stroke-linejoin="round" stroke-linecap="round" stroke="rgb(0,0,255)" stroke-width="1.874998" fill="none" d="M 0.000000 750.000000 L 61.224483 0.000000 " />
<path stroke-linejoin="round" stroke-linecap="round" stroke="rgb(255,0,0)" stroke-width="3.749996" fill="none" d="M 32.258057 354.838745 L 34.285717 377.142914 " />
<path stroke-linejoin="round" stroke-linecap="round" stroke="rgb(0,0,255)" stroke-width="1.874998" fill="none" d="M 0.000000 750.000000 L 59.999989 0.000000 " />
<path stroke-linejoin="round" stroke-linecap="round" stroke="rgb(255,0,0)" stroke-width="3.749996" fill="none" d="M 31.914890 351.063873 L 32.258057 354.838745 " />
<path stroke-linejoin="round" stroke-linecap="round" stroke="rgb(0,0,255)" stroke-width="1.874998" fill="none" d="M 0.000000 750.000000 L 55.851059 0.000000 " />
<path stroke-linejoin="round" stroke-linecap="round" stroke="rgb(255,0,0)" stroke-width="3.749996" fill="none" d="M 30.701750 337.719360 L 31.914890 351.063873 " />
<path stroke-linejoin="round" stroke-linecap="round" stroke="rgb(0,0,255)" stroke-width="1.874998" fill="none" d="M 0.000000 750.000000 L 43.269218 0.000000 " />
<path stroke-linejoin="round" stroke-linecap="round" stroke="rgb(255,0,0)" stroke-width="3.749996" fill="none" d="M 26.470587 291.176514 L 30.701750 337.719360 " />
<path stroke-linejoin="round" stroke-linecap="round" stroke="rgb(0,0,255)" stroke-width="1.874998" fill="none" d="M 0.000000 750.000000 L 36.290333 0.000000 " />
<path stroke-linejoin="round" stroke-linecap="round" stroke="rgb(255,0,0)" stroke-width="3.749996" fill="none" d="M 23.684219 260.526367 L 26.470587 291.176514 " />
<path stroke-linejoin="round" stroke-linecap="round" stroke="rgb(0,0,255)" stroke-width="1.874998" fill="none" d="M 0.000000 750.000000 L 27.985073 0.000000 " />
<path stroke-linejoin="round" stroke-linecap="round" stroke="rgb(255,0,0)" stroke-width="3.749996" fill="none" d="M 19.841261 218.254028 L 23.684219 260.526367 " />
<path stroke-linejoin="round" stroke-linecap="round" stroke="rgb(0,0,255)" stroke-width="1.874998" fill="none" d="M 0.000000 750.000000 L 20.833344 0.000000 " />
<path stroke-linejoin="round" stroke-linecap="round" stroke="rgb(255,0,0)" stroke-width="3.749996" fill="none" d="M 15.957445 175.531982 L 19.841261 218.254028 " />
<path stroke-linejoin="round" stroke-linecap="round" stroke="rgb(0,0,255)" stroke-width="1.874998" fill="none" d="M 0.000000 750.000000 L 20.689667 0.000000 " />
<path stroke-linejoin="round" stroke-linecap="round" stroke="rgb(255,0,0)" stroke-width="3.749996" fill="none" d="M 15.873022 174.603287 L 15.957445 175.531982 " />
<path stroke-linejoin="round" stroke-linecap="round" stroke="rgb(0,0,255)" stroke-width="1.874998" fill="none" d="M 0.000000 750.000000 L 19.867546 0.000000 " />
<path stroke-linejoin="round" stroke-linecap="round" stroke="rgb(255,0,0)" stroke-width="3.749996" fill="none" d="M 15.384615 169.230820 L 15.873022 174.603287 " />
<path stroke-linejoin="round" stroke-linecap="round" stroke="rgb(0,0,255)" stroke-width="1.874998" fill="none" d="M 0.000000 750.000000 L 19.480526 0.000000 " />
<path stroke-linejoin="round" stroke-linecap="round" stroke="rgb(255,0,0)" stroke-width="3.749996" fill="none" d="M 15.151508 166.666748 L 15.384615 169.230820 " />
<path stroke-linejoin="round" stroke-linecap="round" stroke="rgb(0,0,255)" stroke-width="1.874998" fill="none" d="M 0.000000 750.000000 L 19.354843 0.000000 " />
<path stroke-linejoin="round" stroke-linecap="round" stroke="rgb(255,0,0)" stroke-width="3.749996" fill="none" d="M 15.075378 165.829254 L 15.151508 166.666748 " />
<path stroke-linejoin="round" stroke-linecap="round" stroke="rgb(0,0,255)" stroke-width="1.874998" fill="none" d="M 0.000000 750.000000 L 16.917295 0.000000 " />
<path stroke-linejoin="round" stroke-linecap="round" stroke="rgb(255,0,0)" stroke-width="3.749996" fill="none" d="M 13.554208 149.096497 L 15.075378 165.829254 " />
<path stroke-linejoin="round" stroke-linecap="round" stroke="rgb(0,0,255)" stroke-width="1.874998" fill="none" d="M 0.000000 750.000000 L 10.489516 0.000000 " />
<path stroke-linejoin="round" stroke-linecap="round" stroke="rgb(255,0,0)" stroke-width="3.749996" fill="none" d="M 9.090900 100.000084 L 13.554208 149.096497 " />
<path stroke-linejoin="round" stroke-linecap="round" stroke="rgb(0,0,255)" stroke-width="1.874998" fill="none" d="M 0.000000 750.000000 L 4.901960 0.000000 " />
<path stroke-linejoin="round" stroke-linecap="round" stroke="rgb(255,0,0)" stroke-width="3.749996" fill="none" d="M 4.573166 50.304943 L 9.090900 100.000084 " />
<path stroke-linejoin="round" stroke-linecap="round" stroke="rgb(0,0,255)" stroke-width="1.874998" fill="none" d="M 0.000000 750.000000 L 0.000000 0.000000 " />
<path stroke-linejoin="round" stroke-linecap="round" stroke="rgb(255,0,0)" stroke-width="3.749996" fill="none" d="M 0.000000 0.000000 L 4.573166 50.304943 " />
<circle cx="124.736287" cy="747.099146" r="3.749996" style="fill:rgb(0,127,0);stroke-width:1" /><circle cx="121.835433" cy="744.198315" r="3.749996" style="fill:rgb(0,127,0);stroke-width:1" /><circle cx="118.934602" cy="741.297461" r="3.749996" style="fill:rgb(0,127,0);stroke-width:1" /><circle cx="116.033748" cy="738.396630" r="3.749996" style="fill:rgb(0,127,0);stroke-width:1" /><circle cx="113.763526" cy="736.126408" r="3.749996" style="fill:rgb(0,127,0);stroke-width:1" /><circle cx="113.132894" cy="735.495776" r="3.749996" style="fill:rgb(0,127,0);stroke-width:1" /><circle cx="110.232063" cy="732.594945" r="3.749996" style="fill:rgb(0,127,0);stroke-width:1" /><circle cx="107.331209" cy="729.694091" r="3.749996" style="fill:rgb(0,127,0);stroke-width:1" /><circle cx="104.430355" cy="726.793259" r="3.749996" style="fill:rgb(0,127,0);stroke-width:1" /><circle cx="101.529524" cy="723.892406" r="3.749996" style="fill:rgb(0,127,0);stroke-width:1" /><circle cx="98.628670" cy="720.991574" r="3.749996" style="fill:rgb(0,127,0);stroke-width:1" /><circle cx="97.115189" cy="719.478071" r="3.749996" style="fill:rgb(0,127,0);stroke-width:1" /><circle cx="95.727839" cy="718.090720" r="3.749996" style="fill:rgb(0,127,0);stroke-width:1" /><circle cx="94.340466" cy="716.703370" r="3.749996" style="fill:rgb(0,127,0);stroke-width:1" /><circle cx="92.827007" cy="715.189867" r="3.749996" style="fill:rgb(0,127,0);stroke-width:1" /><circle cx="89.926153" cy="712.289035" r="3.749996" style="fill:rgb(0,127,0);stroke-width:1" /><circle cx="87.025300" cy="709.388182" r="3.749996" style="fill:rgb(0,127,0);stroke-width:1" /><circle cx="86.016320" cy="708.379202" r="3.749996" style="fill:rgb(0,127,0);stroke-width:1" /><circle cx="84.124468" cy="706.487350" r="3.749996" style="fill:rgb(0,127,0);stroke-width:1" /><circle cx="83.241597" cy="705.604479" r="3.749996" style="fill:rgb(0,127,0);stroke-width:1" /><circle cx="81.223615" cy="703.586496" r="3.749996" style="fill:rgb(0,127,0);stroke-width:1" /><circle cx="78.322783" cy="700.685665" r="3.749996" style="fill:rgb(0,127,0);stroke-width:1" /><circle cx="75.421929" cy="697.784811" r="3.749996" style="fill:rgb(0,127,0);stroke-width:1" /><circle cx="74.917451" cy="697.280310" r="3.749996" style="fill:rgb(0,127,0);stroke-width:1" /><circle cx="72.142728" cy="694.505587" r="3.749996" style="fill:rgb(0,127,0);stroke-width:1" /><circle cx="69.368005" cy="691.730887" r="3.749996" style="fill:rgb(0,127,0);stroke-width:1" /><circle cx="69.136776" cy="691.499658" r="3.749996" style="fill:rgb(0,127,0);stroke-width:1" /><circle cx="66.593282" cy="688.956164" r="3.749996" style="fill:rgb(0,127,0);stroke-width:1" /><circle cx="66.477656" cy="688.840538" r="3.749996" style="fill:rgb(0,127,0);stroke-width:1" /><circle cx="63.949183" cy="661.027215" r="3.749996" style="fill:rgb(0,127,0);stroke-width:1" /><circle cx="61.384164" cy="632.812053" r="3.749996" style="fill:rgb(0,127,0);stroke-width:1" /><circle cx="58.801018" cy="604.397468" r="3.749996" style="fill:rgb(0,127,0);stroke-width:1" /><circle cx="57.345718" cy="588.389330" r="3.749996" style="fill:rgb(0,127,0);stroke-width:1" /><circle cx="56.199543" cy="575.781405" r="3.749996" style="fill:rgb(0,127,0);stroke-width:1" /><circle cx="54.919749" cy="561.703719" r="3.749996" style="fill:rgb(0,127,0);stroke-width:1" /><circle cx="53.783722" cy="549.207419" r="3.749996" style="fill:rgb(0,127,0);stroke-width:1" /><circle cx="53.378887" cy="548.802629" r="3.749996" style="fill:rgb(0,127,0);stroke-width:1" /><circle cx="49.450547" cy="543.956045" r="3.749996" style="fill:rgb(0,127,0);stroke-width:1" /><circle cx="47.965117" cy="527.616251" r="3.749996" style="fill:rgb(0,127,0);stroke-width:1" /><circle cx="46.296291" cy="509.259257" r="3.749996" style="fill:rgb(0,127,0);stroke-width:1" /><circle cx="45.081966" cy="495.901678" r="3.749996" style="fill:rgb(0,127,0);stroke-width:1" /><circle cx="43.352589" cy="476.878613" r="3.749996" style="fill:rgb(0,127,0);stroke-width:1" /><circle cx="42.525776" cy="467.783511" r="3.749996" style="fill:rgb(0,127,0);stroke-width:1" /><circle cx="41.899435" cy="460.893838" r="3.749996" style="fill:rgb(0,127,0);stroke-width:1" /><circle cx="41.250005" cy="453.749986" r="3.749996" style="fill:rgb(0,127,0);stroke-width:1" /><circle cx="39.473668" cy="434.210569" r="3.749996" style="fill:rgb(0,127,0);stroke-width:1" /><circle cx="38.961031" cy="428.571464" r="3.749996" style="fill:rgb(0,127,0);stroke-width:1" /><circle cx="37.499987" cy="412.500054" r="3.749996" style="fill:rgb(0,127,0);stroke-width:1" /><circle cx="37.037037" cy="407.407433" r="3.749996" style="fill:rgb(0,127,0);stroke-width:1" /><circle cx="36.585353" cy="402.439057" r="3.749996" style="fill:rgb(0,127,0);stroke-width:1" /><circle cx="34.682080" cy="381.502926" r="3.749996" style="fill:rgb(0,127,0);stroke-width:1" /><circle cx="34.285717" cy="377.142906" r="3.749996" style="fill:rgb(0,127,0);stroke-width:1" /><circle cx="32.258056" cy="354.838758" r="3.749996" style="fill:rgb(0,127,0);stroke-width:1" /><circle cx="31.914890" cy="351.063877" r="3.749996" style="fill:rgb(0,127,0);stroke-width:1" /><circle cx="30.701749" cy="337.719351" r="3.749996" style="fill:rgb(0,127,0);stroke-width:1" /><circle cx="26.470587" cy="291.176526" r="3.749996" style="fill:rgb(0,127,0);stroke-width:1" /><circle cx="23.684219" cy="260.526359" r="3.749996" style="fill:rgb(0,127,0);stroke-width:1" /><circle cx="19.841261" cy="218.254030" r="3.749996" style="fill:rgb(0,127,0);stroke-width:1" /><circle cx="15.957445" cy="175.531983" r="3.749996" style="fill:rgb(0,127,0);stroke-width:1" /><circle cx="15.873022" cy="174.603291" r="3.749996" style="fill:rgb(0,127,0);stroke-width:1" /><circle cx="15.384614" cy="169.230826" r="3.749996" style="fill:rgb(0,127,0);stroke-width:1" /><circle cx="15.151508" cy="166.666746" r="3.749996" style="fill:rgb(0,127,0);stroke-width:1" /><circle cx="15.075378" cy="165.829249" r="3.749996" style="fill:rgb(0,127,0);stroke-width:1" /><circle cx="13.554208" cy="149.096489" r="3.749996" style="fill:rgb(0,127,0);stroke-width:1" /><circle cx="9.090900" cy="100.000083" r="3.749996" style="fill:rgb(0,127,0);stroke-width:1" /><circle cx="4.573166" cy="50.304942" r="3.749996" style="fill:rgb(0,127,0);stroke-width:1" /><circle cx="750.000000" cy="750.000000" r="3.749996" style="fill:rgb(0,127,0);stroke-width:1" /><path stroke-linejoin="round" stroke-linecap="round" stroke="rgb(255,255,255)" stroke-width="3.749996" fill="none" d="M 0.000000 750.000000 L 750.000000 750.000000 M 0.000000 750.000000 L 0.000000 0.000000 " />

</svg>