<svg xmlns="http://www.w3.org/2000/svg" version="1.1" width = "750" height = "750" viewBox = "0 0 750 750"  shape-rendering="crispEdges">
<path stroke-linejoin="round" stroke-linecap="round" stroke="rgb(255,255,0)" stroke-width="3.749996" fill="none" d="M 74.999992 750.000000 L 0.000000 0.000000 " />
<path stroke-linejoin="round" stroke-linecap="round" stroke="rgb(63,63,63)" stroke-width="3.749996" fill="none" d="M 0.000000 0.000000 L 750.000000 750.000000 M 74.999992 750.000000 L 35.526306 0.000000 " />
<path stroke-linejoin="round" stroke-linecap="round" stroke="rgb(191,191,191)" stroke-width="3.749996" fill="none" d="M 0.000000 675.000000 L 74.999992 750.000000 M 0.000000 0.000000 L 39.473690 750.000000 " />
<path stroke-linejoin="round" stroke-linecap="round" stroke="rgb(0,0,255)" stroke-width="1.874998" fill="none" d="M 0.000000 750.000000 L 750.000000 728.571411 " />
<path stroke-linejoin="round" stroke-linecap="round" stroke="rgb(255,0,0)" stroke-width="3.749996" fill="none" d="M 74.887390 747.860352 L 74.999992 750.000000 " />
<path stroke-linejoin="round" stroke-linecap="round" stroke="rgb(0,0,255)" stroke-width="1.874998" fill="none" d="M 0.000000 750.000000 L 750.000000 708.333313 " />
<path stroke-linejoin="round" stroke-linecap="round" stroke="rgb(255,0,0)" stroke-width="3.749996" fill="none" d="M 74.523636 745.859802 L 74.887367 747.860352 " />
<path stroke-linejoin="round" stroke-linecap="round" stroke="rgb(0,0,255)" stroke-width="1.874998" fill="none" d="M 0.000000 750.000000 L 750.000000 685.714294 " />
<path stroke-linejoin="round" stroke-linecap="round" stroke="rgb(255,0,0)" stroke-width="3.749996" fill="none" d="M 74.121262 743.646729 L 74.523636 745.859802 " />
<path stroke-linejoin="round" stroke-linecap="round" stroke="rgb(0,0,255)" stroke-width="1.874998" fill="none" d="M 0.000000 750.000000 L 750.000000 661.764709 " />
<path stroke-linejoin="round" stroke-linecap="round" stroke="rgb(255,0,0)" stroke-width="3.749996" fill="none" d="M 73.699928 741.329407 L 74.121262 743.646729 " />
<path stroke-linejoin="round" stroke-linecap="round" stroke="rgb(0,0,255)" stroke-width="1.874998" fill="none" d="M 0.000000 750.000000 L 750.000000 642.857178 " />
<path stroke-linejoin="round" stroke-linecap="round" stroke="rgb(255,0,0)" stroke-width="3.749996" fill="none" d="M 73.370667 739.518494 L 73.699928 741.329407 " />
<path stroke-linejoin="round" stroke-linecap="round" stroke="rgb(0,0,255)" stroke-width="1.874998" fill="none" d="M 0.000000 750.000000 L 750.000000 617.647095 " />
<path stroke-linejoin="round" stroke-linecap="round" stroke="rgb(255,0,0)" stroke-width="3.749996" fill="none" d="M 72.936195 737.128906 L 73.370667 739.518494 " />
<path stroke-linejoin="round" stroke-linecap="round" stroke="rgb(0,0,255)" stroke-width="1.874998" fill="none" d="M 0.000000 750.000000 L 750.000000 590.909058 " />
<path stroke-linejoin="round" stroke-linecap="round" stroke="rgb(255,0,0)" stroke-width="3.749996" fill="none" d="M 72.480980 734.625244 L 72.936195 737.128906 " />
<path stroke-linejoin="round" stroke-linecap="round" stroke="rgb(0,0,255)" stroke-width="1.874998" fill="none" d="M 0.000000 750.000000 L 750.000000 562.500000 " />
<path stroke-linejoin="round" stroke-linecap="round" stroke="rgb(255,0,0)" stroke-width="3.749996" fill="none" d="M 72.003502 731.999084 L 72.480980 734.625244 " />
<path stroke-linejoin="round" stroke-linecap="round" stroke="rgb(0,0,255)" stroke-width="1.874998" fill="none" d="M 0.000000 750.000000 L 750.000000 545.454590 " />
<path stroke-linejoin="round" stroke-linecap="round" stroke="rgb(255,0,0)" stroke-width="3.749996" fill="none" d="M 71.720009 730.440002 L 72.003502 731.999084 " />
<path stroke-linejoin="round" stroke-linecap="round" stroke="rgb(0,0,255)" stroke-width="1.874998" fill="none" d="M 0.000000 750.000000 L 750.000000 515.625000 " />
<path stroke-linejoin="round" stroke-linecap="round" stroke="rgb(255,0,0)" stroke-width="3.749996" fill="none" d="M 71.229256 727.740906 L 71.720009 730.440002 " />
<path stroke-linejoin="round" stroke-linecap="round" stroke="rgb(0,0,255)" stroke-width="1.874998" fill="none" d="M 0.000000 750.000000 L 750.000000 499.999969 " />
<path stroke-linejoin="round" stroke-linecap="round" stroke="rgb(255,0,0)" stroke-width="3.749996" fill="none" d="M 70.974869 726.341736 L 71.229256 727.740906 " />
<path stroke-linejoin="round" stroke-linecap="round" stroke="rgb(0,0,255)" stroke-width="1.874998" fill="none" d="M 0.000000 750.000000 L 750.000000 483.870941 " />
<path stroke-linejoin="round" stroke-linecap="round" stroke="rgb(255,0,0)" stroke-width="3.749996" fill="none" d="M 70.714157 724.907837 L 70.974869 726.341736 " />
<path stroke-linejoin="round" stroke-linecap="round" stroke="rgb(0,0,255)" stroke-width="1.874998" fill="none" d="M 0.000000 750.000000 L 750.000000 468.750000 " />
<path stroke-linejoin="round" stroke-linecap="round" stroke="rgb(255,0,0)" stroke-width="3.749996" fill="none" d="M 70.471512 723.573181 L 70.714157 724.907837 " />
<path stroke-linejoin="round" stroke-linecap="round" stroke="rgb(0,0,255)" stroke-width="1.874998" fill="none" d="M 0.000000 750.000000 L 750.000000 435.483917 " />
<path stroke-linejoin="round" stroke-linecap="round" stroke="rgb(255,0,0)" stroke-width="3.749996" fill="none" d="M 69.943451 720.668884 L 70.471512 723.573181 " />
<path stroke-linejoin="round" stroke-linecap="round" stroke="rgb(0,0,255)" stroke-width="1.874998" fill="none" d="M 0.000000 750.000000 L 750.000000 399.999969 " />
<path stroke-linejoin="round" stroke-linecap="round" stroke="rgb(255,0,0)" stroke-width="3.749996" fill="none" d="M 69.388840 717.618530 L 69.943451 720.668884 " />
<path stroke-linejoin="round" stroke-linecap="round" stroke="rgb(0,0,255)" stroke-width="1.874998" fill="none" d="M 0.000000 750.000000 L 750.000000 362.068970 " />
<path stroke-linejoin="round" stroke-linecap="round" stroke="rgb(255,0,0)" stroke-width="3.749996" fill="none" d="M 68.805611 714.410889 L 69.388840 717.618530 " />
<path stroke-linejoin="round" stroke-linecap="round" stroke="rgb(0,0,255)" stroke-width="1.874998" fill="none" d="M 0.000000 750.000000 L 750.000000 349.999969 " />
<path stroke-linejoin="round" stroke-linecap="round" stroke="rgb(255,0,0)" stroke-width="3.749996" fill="none" d="M 68.622108 713.401550 L 68.805611 714.410889 " />
<path stroke-linejoin="round" stroke-linecap="round" stroke="rgb(0,0,255)" stroke-width="1.874998" fill="none" d="M 0.000000 750.000000 L 750.000000 310.344818 " />
<path stroke-linejoin="round" stroke-linecap="round" stroke="rgb(255,0,0)" stroke-width="3.749996" fill="none" d="M 68.025940 710.122681 L 68.622108 713.401550 " />
<path stroke-linejoin="round" stroke-linecap="round" stroke="rgb(0,0,255)" stroke-width="1.874998" fill="none" d="M 0.000000 750.000000 L 750.000000 267.857147 " />
<path stroke-linejoin="round" stroke-linecap="round" stroke="rgb(255,0,0)" stroke-width="3.749996" fill="none" d="M 67.398590 706.672302 L 68.025940 710.122681 " />
<path stroke-linejoin="round" stroke-linecap="round" stroke="rgb(0,0,255)" stroke-width="1.874998" fill="none" d="M 0.000000 750.000000 L 750.000000 258.620697 " />
<path stroke-linejoin="round" stroke-linecap="round" stroke="rgb(255,0,0)" stroke-width="3.749996" fill="none" d="M 67.263748 705.930664 L 67.398590 706.672302 " />
<path stroke-linejoin="round" stroke-linecap="round" stroke="rgb(0,0,255)" stroke-width="1.874998" fill="none" d="M 0.000000 750.000000 L 750.000000 214.285706 " />
<path stroke-linejoin="round" stroke-linecap="round" stroke="rgb(255,0,0)" stroke-width="3.749996" fill="none" d="M 66.623901 702.411499 L 67.263748 705.930664 " />
<path stroke-linejoin="round" stroke-linecap="round" stroke="rgb(0,0,255)" stroke-width="1.874998" fill="none" d="M 0.000000 750.000000 L 750.000000 206.896576 " />
<path stroke-linejoin="round" stroke-linecap="round" stroke="rgb(255,0,0)" stroke-width="3.749996" fill="none" d="M 66.518448 701.831482 L 66.623901 702.411499 " />
<path stroke-linejoin="round" stroke-linecap="round" stroke="rgb(0,0,255)" stroke-width="1.874998" fill="none" d="M 0.000000 750.000000 L 750.000000 166.666656 " />
<path stroke-linejoin="round" stroke-linecap="round" stroke="rgb(255,0,0)" stroke-width="3.749996" fill="none" d="M 65.950089 698.705505 L 66.518448 701.831482 " />
<path stroke-linejoin="round" stroke-linecap="round" stroke="rgb(0,0,255)" stroke-width="1.874998" fill="none" d="M 0.000000 750.000000 L 750.000000 115.384605 " />
<path stroke-linejoin="round" stroke-linecap="round" stroke="rgb(255,0,0)" stroke-width="3.749996" fill="none" d="M 65.239502 694.797363 L 65.950089 698.705505 " />
<path stroke-linejoin="round" stroke-linecap="round" stroke="rgb(0,0,255)" stroke-width="1.874998" fill="none" d="M 0.000000 750.000000 L 750.000000 59.999989 " />
<path stroke-linejoin="round" stroke-linecap="round" stroke="rgb(255,0,0)" stroke-width="3.749996" fill="none" d="M 64.489090 690.670044 L 65.239502 694.797363 " />
<path stroke-linejoin="round" stroke-linecap="round" stroke="rgb(0,0,255)" stroke-width="1.874998" fill="none" d="M 0.000000 750.000000 L 750.000000 57.692303 " />
<path stroke-linejoin="round" stroke-linecap="round" stroke="rgb(255,0,0)" stroke-width="3.749996" fill="none" d="M 64.458199 690.500122 L 64.489090 690.670044 " />
<path stroke-linejoin="round" stroke-linecap="round" stroke="rgb(0,0,255)" stroke-width="1.874998" fill="none" d="M 0.000000 750.000000 L 750.000000 0.000000 " />
<path stroke-linejoin="round" stroke-linecap="round" stroke="rgb(255,0,0)" stroke-width="3.749996" fill="none" d="M 63.695377 686.304626 L 64.458199 690.500122 " />
<path stroke-linejoin="round" stroke-linecap="round" stroke="rgb(0,0,255)" stroke-width="1.874998" fill="none" d="M 0.000000 750.000000 L 692.307678 0.000000 " />
<path stroke-linejoin="round" stroke-linecap="round" stroke="rgb(255,0,0)" stroke-width="3.749996" fill="none" d="M 62.889107 681.870117 L 63.695377 686.304626 " />
<path stroke-linejoin="round" stroke-linecap="round" stroke="rgb(0,0,255)" stroke-width="1.874998" fill="none" d="M 0.000000 750.000000 L 642.857178 0.000000 " />
<path stroke-linejoin="round" stroke-linecap="round" stroke="rgb(255,0,0)" stroke-width="3.749996" fill="none" d="M 62.102997 677.546509 L 62.889107 681.870117 " />
<path stroke-linejoin="round" stroke-linecap="round" stroke="rgb(0,0,255)" stroke-width="1.874998" fill="none" d="M 0.000000 750.000000 L 638.888916 0.000000 " />
<path stroke-linejoin="round" stroke-linecap="round" stroke="rgb(255,0,0)" stroke-width="3.749996" fill="none" d="M 62.035561 677.175598 L 62.102997 677.546509 " />
<path stroke-linejoin="round" stroke-linecap="round" stroke="rgb(0,0,255)" stroke-width="1.874998" fill="none" d="M 0.000000 750.000000 L 594.827576 0.000000 " />
<path stroke-linejoin="round" stroke-linecap="round" stroke="rgb(255,0,0)" stroke-width="3.749996" fill="none" d="M 61.237671 672.787231 L 62.035561 677.175598 " />
<path stroke-linejoin="round" stroke-linecap="round" stroke="rgb(0,0,255)" stroke-width="1.874998" fill="none" d="M 0.000000 750.000000 L 550.000000 0.000000 " />
<path stroke-linejoin="round" stroke-linecap="round" stroke="rgb(255,0,0)" stroke-width="3.749996" fill="none" d="M 60.320778 667.744385 L 61.237671 672.787292 " />
<path stroke-linejoin="round" stroke-linecap="round" stroke="rgb(0,0,255)" stroke-width="1.874998" fill="none" d="M 0.000000 750.000000 L 508.064514 0.000000 " />
<path stroke-linejoin="round" stroke-linecap="round" stroke="rgb(255,0,0)" stroke-width="3.749996" fill="none" d="M 59.347561 662.391724 L 60.320778 667.744385 " />
<path stroke-linejoin="round" stroke-linecap="round" stroke="rgb(0,0,255)" stroke-width="1.874998" fill="none" d="M 0.000000 750.000000 L 468.750000 0.000000 " />
<path stroke-linejoin="round" stroke-linecap="round" stroke="rgb(255,0,0)" stroke-width="3.749996" fill="none" d="M 58.312653 656.699707 L 59.347561 662.391724 " />
<path stroke-linejoin="round" stroke-linecap="round" stroke="rgb(0,0,255)" stroke-width="1.874998" fill="none" d="M 0.000000 750.000000 L 441.176453 0.000000 " />
<path stroke-linejoin="round" stroke-linecap="round" stroke="rgb(255,0,0)" stroke-width="3.749996" fill="none" d="M 57.502762 652.245300 L 58.312653 656.699707 " />
<path stroke-linejoin="round" stroke-linecap="round" stroke="rgb(0,0,255)" stroke-width="1.874998" fill="none" d="M 0.000000 750.000000 L 431.818176 0.000000 " />
<path stroke-linejoin="round" stroke-linecap="round" stroke="rgb(255,0,0)" stroke-width="3.749996" fill="none" d="M 57.210022 650.635254 L 57.502762 652.245300 " />
<path stroke-linejoin="round" stroke-linecap="round" stroke="rgb(0,0,255)" stroke-width="1.874998" fill="none" d="M 0.000000 750.000000 L 397.058838 0.000000 " />
<path stroke-linejoin="round" stroke-linecap="round" stroke="rgb(255,0,0)" stroke-width="3.749996" fill="none" d="M 56.032753 644.160339 L 57.210022 650.635254 " />
<path stroke-linejoin="round" stroke-linecap="round" stroke="rgb(0,0,255)" stroke-width="1.874998" fill="none" d="M 0.000000 750.000000 L 364.285706 0.000000 " />
<path stroke-linejoin="round" stroke-linecap="round" stroke="rgb(255,0,0)" stroke-width="3.749996" fill="none" d="M 54.773056 637.231934 L 56.032753 644.160339 " />
<path stroke-linejoin="round" stroke-linecap="round" stroke="rgb(0,0,255)" stroke-width="1.874998" fill="none" d="M 0.000000 750.000000 L 333.333344 0.000000 " />
<path stroke-linejoin="round" stroke-linecap="round" stroke="rgb(255,0,0)" stroke-width="3.749996" fill="none" d="M 53.421913 629.800720 L 54.773056 637.231934 " />
<path stroke-linejoin="round" stroke-linecap="round" stroke="rgb(0,0,255)" stroke-width="1.874998" fill="none" d="M 0.000000 750.000000 L 315.789490 0.000000 " />
<path stroke-linejoin="round" stroke-linecap="round" stroke="rgb(255,0,0)" stroke-width="3.749996" fill="none" d="M 52.573956 625.136841 L 53.421913 629.800659 " />
<path stroke-linejoin="round" stroke-linecap="round" stroke="rgb(0,0,255)" stroke-width="1.874998" fill="none" d="M 0.000000 750.000000 L 310.975616 0.000000 " />
<path stroke-linejoin="round" stroke-linecap="round" stroke="rgb(255,0,0)" stroke-width="3.749996" fill="none" d="M 52.329651 623.793213 L 52.573956 625.136841 " />
<path stroke-linejoin="round" stroke-linecap="round" stroke="rgb(0,0,255)" stroke-width="1.874998" fill="none" d="M 0.000000 750.000000 L 285.714294 0.000000 " />
<path stroke-linejoin="round" stroke-linecap="round" stroke="rgb(255,0,0)" stroke-width="3.749996" fill="none" d="M 50.956295 616.239746 L 52.329651 623.793213 " />
<path stroke-linejoin="round" stroke-linecap="round" stroke="rgb(0,0,255)" stroke-width="1.874998" fill="none" d="M 0.000000 750.000000 L 261.627930 0.000000 " />
<path stroke-linejoin="round" stroke-linecap="round" stroke="rgb(255,0,0)" stroke-width="3.749996" fill="none" d="M 49.484455 608.144592 L 50.956295 616.239746 " />
<path stroke-linejoin="round" stroke-linecap="round" stroke="rgb(0,0,255)" stroke-width="1.874998" fill="none" d="M 0.000000 750.000000 L 250.000000 0.000000 " />
<path stroke-linejoin="round" stroke-linecap="round" stroke="rgb(255,0,0)" stroke-width="3.749996" fill="none" d="M 48.708221 603.875366 L 49.484432 608.144592 " />
<path stroke-linejoin="round" stroke-linecap="round" stroke="rgb(0,0,255)" stroke-width="1.874998" fill="none" d="M 0.000000 750.000000 L 228.260864 0.000000 " />
<path stroke-linejoin="round" stroke-linecap="round" stroke="rgb(255,0,0)" stroke-width="3.749996" fill="none" d="M 47.124222 595.163330 L 48.708221 603.875366 " />
<path stroke-linejoin="round" stroke-linecap="round" stroke="rgb(0,0,255)" stroke-width="1.874998" fill="none" d="M 0.000000 750.000000 L 207.446808 0.000000 " />
<path stroke-linejoin="round" stroke-linecap="round" stroke="rgb(255,0,0)" stroke-width="3.749996" fill="none" d="M 45.419903 585.789551 L 47.124222 595.163269 " />
<path stroke-linejoin="round" stroke-linecap="round" stroke="rgb(0,0,255)" stroke-width="1.874998" fill="none" d="M 0.000000 750.000000 L 187.500000 0.000000 " />
<path stroke-linejoin="round" stroke-linecap="round" stroke="rgb(255,0,0)" stroke-width="3.749996" fill="none" d="M 43.581047 575.675842 L 45.419903 585.789551 " />
<path stroke-linejoin="round" stroke-linecap="round" stroke="rgb(0,0,255)" stroke-width="1.874998" fill="none" d="M 0.000000 750.000000 L 168.367355 0.000000 " />
<path stroke-linejoin="round" stroke-linecap="round" stroke="rgb(255,0,0)" stroke-width="3.749996" fill="none" d="M 41.591026 564.730835 L 43.581047 575.675842 " />
<path stroke-linejoin="round" stroke-linecap="round" stroke="rgb(0,0,255)" stroke-width="1.874998" fill="none" d="M 0.000000 750.000000 L 161.764694 0.000000 " />
<path stroke-linejoin="round" stroke-linecap="round" stroke="rgb(255,0,0)" stroke-width="3.749996" fill="none" d="M 40.845013 560.627747 L 41.591026 564.730835 " />
<path stroke-linejoin="round" stroke-linecap="round" stroke="rgb(0,0,255)" stroke-width="1.874998" fill="none" d="M 0.000000 750.000000 L 155.660370 0.000000 " />
<path stroke-linejoin="round" stroke-linecap="round" stroke="rgb(255,0,0)" stroke-width="3.749996" fill="none" d="M 40.125267 556.669128 L 40.845013 560.627747 " />
<path stroke-linejoin="round" stroke-linecap="round" stroke="rgb(0,0,255)" stroke-width="1.874998" fill="none" d="M 0.000000 750.000000 L 149.999985 0.000000 " />
<path stroke-linejoin="round" stroke-linecap="round" stroke="rgb(255,0,0)" stroke-width="3.749996" fill="none" d="M 39.430462 552.847717 L 40.125267 556.669128 " />
<path stroke-linejoin="round" stroke-linecap="round" stroke="rgb(0,0,255)" stroke-width="1.874998" fill="none" d="M 0.000000 750.000000 L 144.736847 0.000000 " />
<path stroke-linejoin="round" stroke-linecap="round" stroke="rgb(255,0,0)" stroke-width="3.749996" fill="none" d="M 38.759308 549.156311 L 39.430462 552.847717 " />
<path stroke-linejoin="round" stroke-linecap="round" stroke="rgb(0,0,255)" stroke-width="1.874998" fill="none" d="M 0.000000 750.000000 L 139.830505 0.000000 " />
<path stroke-linejoin="round" stroke-linecap="round" stroke="rgb(255,0,0)" stroke-width="3.749996" fill="none" d="M 38.110615 545.588501 L 38.759308 549.156311 " />
<path stroke-linejoin="round" stroke-linecap="round" stroke="rgb(0,0,255)" stroke-width="1.874998" fill="none" d="M 0.000000 750.000000 L 135.245926 0.000000 " />
<path stroke-linejoin="round" stroke-linecap="round" stroke="rgb(255,0,0)" stroke-width="3.749996" fill="none" d="M 37.483292 542.138123 L 38.110615 545.588501 " />
<path stroke-linejoin="round" stroke-linecap="round" stroke="rgb(0,0,255)" stroke-width="1.874998" fill="none" d="M 0.000000 750.000000 L 130.952377 0.000000 " />
<path stroke-linejoin="round" stroke-linecap="round" stroke="rgb(255,0,0)" stroke-width="3.749996" fill="none" d="M 36.876282 538.799500 L 37.483292 542.138123 " />
<path stroke-linejoin="round" stroke-linecap="round" stroke="rgb(0,0,255)" stroke-width="1.874998" fill="none" d="M 0.000000 750.000000 L 126.923073 0.000000 " />
<path stroke-linejoin="round" stroke-linecap="round" stroke="rgb(255,0,0)" stroke-width="3.749996" fill="none" d="M 36.288612 535.567383 L 36.876282 538.799500 " />
<path stroke-linejoin="round" stroke-linecap="round" stroke="rgb(0,0,255)" stroke-width="1.874998" fill="none" d="M 0.000000 750.000000 L 123.134315 0.000000 " />
<path stroke-linejoin="round" stroke-linecap="round" stroke="rgb(255,0,0)" stroke-width="3.749996" fill="none" d="M 35.719379 532.436523 L 36.288612 535.567383 " />
<path stroke-linejoin="round" stroke-linecap="round" stroke="rgb(0,0,255)" stroke-width="1.874998" fill="none" d="M 0.000000 750.000000 L 119.565208 0.000000 " />
<path stroke-linejoin="round" stroke-linecap="round" stroke="rgb(255,0,0)" stroke-width="3.749996" fill="none" d="M 35.167717 529.402527 L 35.719379 532.436523 " />
<path stroke-linejoin="round" stroke-linecap="round" stroke="rgb(0,0,255)" stroke-width="1.874998" fill="none" d="M 0.000000 750.000000 L 107.142853 0.000000 " />
<path stroke-linejoin="round" stroke-linecap="round" stroke="rgb(255,0,0)" stroke-width="3.749996" fill="none" d="M 33.121593 518.148865 L 35.167717 529.402527 " />
<path stroke-linejoin="round" stroke-linecap="round" stroke="rgb(0,0,255)" stroke-width="1.874998" fill="none" d="M 0.000000 750.000000 L 93.750000 0.000000 " />
<path stroke-linejoin="round" stroke-linecap="round" stroke="rgb(255,0,0)" stroke-width="3.749996" fill="none" d="M 30.668154 504.654846 L 33.121593 518.148865 " />
<path stroke-linejoin="round" stroke-linecap="round" stroke="rgb(0,0,255)" stroke-width="1.874998" fill="none" d="M 0.000000 750.000000 L 80.769226 0.000000 " />
<path stroke-linejoin="round" stroke-linecap="round" stroke="rgb(255,0,0)" stroke-width="3.749996" fill="none" d="M 28.001347 489.987457 L 30.668154 504.654846 " />
<path stroke-linejoin="round" stroke-linecap="round" stroke="rgb(0,0,255)" stroke-width="1.874998" fill="none" d="M 0.000000 750.000000 L 78.358208 0.000000 " />
<path stroke-linejoin="round" stroke-linecap="round" stroke="rgb(255,0,0)" stroke-width="3.749996" fill="none" d="M 27.470514 487.067932 L 28.001347 489.987457 " />
<path stroke-linejoin="round" stroke-linecap="round" stroke="rgb(0,0,255)" stroke-width="1.874998" fill="none" d="M 0.000000 750.000000 L 71.917801 0.000000 " />
<path stroke-linejoin="round" stroke-linecap="round" stroke="rgb(255,0,0)" stroke-width="3.749996" fill="none" d="M 26.021809 478.629608 L 27.470514 487.067932 " />
<path stroke-linejoin="round" stroke-linecap="round" stroke="rgb(0,0,255)" stroke-width="1.874998" fill="none" d="M 0.000000 750.000000 L 60.810818 0.000000 " />
<path stroke-linejoin="round" stroke-linecap="round" stroke="rgb(255,0,0)" stroke-width="3.749996" fill="none" d="M 24.089970 452.890289 L 26.021809 478.629608 " />
<path stroke-linejoin="round" stroke-linecap="round" stroke="rgb(0,0,255)" stroke-width="1.874998" fill="none" d="M 0.000000 750.000000 L 49.999996 0.000000 " />
<path stroke-linejoin="round" stroke-linecap="round" stroke="rgb(255,0,0)" stroke-width="3.749996" fill="none" d="M 22.096216 418.556763 L 24.089970 452.890289 " />
<path stroke-linejoin="round" stroke-linecap="round" stroke="rgb(0,0,255)" stroke-width="1.874998" fill="none" d="M 0.000000 750.000000 L 39.473690 0.000000 " />
<path stroke-linejoin="round" stroke-linecap="round" stroke="rgb(255,0,0)" stroke-width="3.749996" fill="none" d="M 19.745306 374.839355 L 22.096216 418.556763 " />
<path stroke-linejoin="round" stroke-linecap="round" stroke="rgb(0,0,255)" stroke-width="1.874998" fill="none" d="M 0.000000 750.000000 L 38.461536 0.000000 " />
<path stroke-linejoin="round" stroke-linecap="round" stroke="rgb(255,0,0)" stroke-width="3.749996" fill="none" d="M 19.482651 370.088196 L 19.745306 374.839355 " />
<path stroke-linejoin="round" stroke-linecap="round" stroke="rgb(0,0,255)" stroke-width="1.874998" fill="none" d="M 0.000000 750.000000 L 37.500008 0.000000 " />
<path stroke-linejoin="round" stroke-linecap="round" stroke="rgb(255,0,0)" stroke-width="3.749996" fill="none" d="M 19.231304 365.374023 L 19.482651 370.088196 " />
<path stroke-linejoin="round" stroke-linecap="round" stroke="rgb(0,0,255)" stroke-width="1.874998" fill="none" d="M 0.000000 750.000000 L 36.585377 0.000000 " />
<path stroke-linejoin="round" stroke-linecap="round" stroke="rgb(255,0,0)" stroke-width="3.749996" fill="none" d="M 18.987469 360.756836 L 19.231304 365.374023 " />
<path stroke-linejoin="round" stroke-linecap="round" stroke="rgb(0,0,255)" stroke-width="1.874998" fill="none" d="M 0.000000 750.000000 L 35.714283 0.000000 " />
<path stroke-linejoin="round" stroke-linecap="round" stroke="rgb(255,0,0)" stroke-width="3.749996" fill="none" d="M 18.750027 356.249268 L 18.987469 360.756836 " />
<path stroke-linejoin="round" stroke-linecap="round" stroke="rgb(0,0,255)" stroke-width="1.874998" fill="none" d="M 0.000000 750.000000 L 34.883717 0.000000 " />
<path stroke-linejoin="round" stroke-linecap="round" stroke="rgb(255,0,0)" stroke-width="3.749996" fill="none" d="M 18.518530 351.851685 L 18.750027 356.249268 " />
<path stroke-linejoin="round" stroke-linecap="round" stroke="rgb(0,0,255)" stroke-width="1.874998" fill="none" d="M 0.000000 750.000000 L 34.090919 0.000000 " />
<path stroke-linejoin="round" stroke-linecap="round" stroke="rgb(255,0,0)" stroke-width="3.749996" fill="none" d="M 18.292688 347.560944 L 18.518530 351.851685 " />
<path stroke-linejoin="round" stroke-linecap="round" stroke="rgb(0,0,255)" stroke-width="1.874998" fill="none" d="M 0.000000 750.000000 L 25.862061 0.000000 " />
<path stroke-linejoin="round" stroke-linecap="round" stroke="rgb(255,0,0)" stroke-width="3.749996" fill="none" d="M 15.625008 296.875000 L 18.292688 347.560944 " />
<path stroke-linejoin="round" stroke-linecap="round" stroke="rgb(0,0,255)" stroke-width="1.874998" fill="none" d="M 0.000000 750.000000 L 25.280893 0.000000 " />
<path stroke-linejoin="round" stroke-linecap="round" stroke="rgb(255,0,0)" stroke-width="3.749996" fill="none" d="M 15.410967 292.808167 L 15.625008 296.875000 " />
<path stroke-linejoin="round" stroke-linecap="round" stroke="rgb(0,0,255)" stroke-width="1.874998" fill="none" d="M 0.000000 750.000000 L 24.193548 0.000000 " />
<path stroke-linejoin="round" stroke-linecap="round" stroke="rgb(255,0,0)" stroke-width="3.749996" fill="none" d="M 15.000008 284.999969 L 15.410967 292.808167 " />
<path stroke-linejoin="round" stroke-linecap="round" stroke="rgb(0,0,255)" stroke-width="1.874998" fill="none" d="M 0.000000 750.000000 L 15.957445 0.000000 " />
<path stroke-linejoin="round" stroke-linecap="round" stroke="rgb(255,0,0)" stroke-width="3.749996" fill="none" d="M 11.363626 215.909058 L 15.000008 284.999939 " />
<path stroke-linejoin="round" stroke-linecap="round" stroke="rgb(0,0,255)" stroke-width="1.874998" fill="none" d="M 0.000000 750.000000 L 7.894747 0.000000 " />
<path stroke-linejoin="round" stroke-linecap="round" stroke="rgb(255,0,0)" stroke-width="3.749996" fill="none" d="M 6.578945 125.000015 L 11.363626 215.909058 " />
<path stroke-linejoin="round" stroke-linecap="round" stroke="rgb(0,0,255)" stroke-width="1.874998" fill="none" d="M 0.000000 750.000000 L 0.000000 0.000000 " />
<path stroke-linejoin="round" stroke-linecap="round" stroke="rgb(255,0,0)" stroke-width="3.749996" fill="none" d="M 0.000000 0.000000 L 6.578945 125.000015 " />
<circle cx="74.887387" cy="747.860357" r="3.749996" style="fill:rgb(0,127,0);stroke-width:1" /><circle cx="74.523635" cy="745.859787" r="3.749996" style="fill:rgb(0,127,0);stroke-width:1" /><circle cx="74.121259" cy="743.646741" r="3.749996" style="fill:rgb(0,127,0);stroke-width:1" /><circle cx="73.699929" cy="741.329424" r="3.749996" style="fill:rgb(0,127,0);stroke-width:1" /><circle cx="73.370665" cy="739.518486" r="3.749996" style="fill:rgb(0,127,0);stroke-width:1" /><circle cx="72.936192" cy="737.128906" r="3.749996" style="fill:rgb(0,127,0);stroke-width:1" /><circle cx="72.480977" cy="734.625243" r="3.749996" style="fill:rgb(0,127,0);stroke-width:1" /><circle cx="72.003499" cy="731.999114" r="3.749996" style="fill:rgb(0,127,0);stroke-width:1" /><circle cx="71.720012" cy="730.439991" r="3.749996" style="fill:rgb(0,127,0);stroke-width:1" /><circle cx="71.229257" cy="727.740861" r="3.749996" style="fill:rgb(0,127,0);stroke-width:1" /><circle cx="70.974872" cy="726.341709" r="3.749996" style="fill:rgb(0,127,0);stroke-width:1" /><circle cx="70.714161" cy="724.907868" r="3.749996" style="fill:rgb(0,127,0);stroke-width:1" /><circle cx="70.471510" cy="723.573178" r="3.749996" style="fill:rgb(0,127,0);stroke-width:1" /><circle cx="69.943450" cy="720.668882" r="3.749996" style="fill:rgb(0,127,0);stroke-width:1" /><circle cx="69.388837" cy="717.618540" r="3.749996" style="fill:rgb(0,127,0);stroke-width:1" /><circle cx="68.805613" cy="714.410886" r="3.749996" style="fill:rgb(0,127,0);stroke-width:1" /><circle cx="68.622105" cy="713.401549" r="3.749996" style="fill:rgb(0,127,0);stroke-width:1" /><circle cx="68.025939" cy="710.122727" r="3.749996" style="fill:rgb(0,127,0);stroke-width:1" /><circle cx="67.398593" cy="706.672333" r="3.749996" style="fill:rgb(0,127,0);stroke-width:1" /><circle cx="67.263745" cy="705.930635" r="3.749996" style="fill:rgb(0,127,0);stroke-width:1" /><circle cx="66.623904" cy="702.411488" r="3.749996" style="fill:rgb(0,127,0);stroke-width:1" /><circle cx="66.518448" cy="701.831460" r="3.749996" style="fill:rgb(0,127,0);stroke-width:1" /><circle cx="65.950088" cy="698.705480" r="3.749996" style="fill:rgb(0,127,0);stroke-width:1" /><circle cx="65.239504" cy="694.797345" r="3.749996" style="fill:rgb(0,127,0);stroke-width:1" /><circle cx="64.489089" cy="690.670028" r="3.749996" style="fill:rgb(0,127,0);stroke-width:1" /><circle cx="64.458199" cy="690.500133" r="3.749996" style="fill:rgb(0,127,0);stroke-width:1" /><circle cx="63.695379" cy="686.304621" r="3.749996" style="fill:rgb(0,127,0);stroke-width:1" /><circle cx="62.889107" cy="681.870148" r="3.749996" style="fill:rgb(0,127,0);stroke-width:1" /><circle cx="62.102996" cy="677.546516" r="3.749996" style="fill:rgb(0,127,0);stroke-width:1" /><circle cx="62.035561" cy="677.175634" r="3.749996" style="fill:rgb(0,127,0);stroke-width:1" /><circle cx="61.237670" cy="672.787271" r="3.749996" style="fill:rgb(0,127,0);stroke-width:1" /><circle cx="60.320780" cy="667.744383" r="3.749996" style="fill:rgb(0,127,0);stroke-width:1" /><circle cx="59.347562" cy="662.391700" r="3.749996" style="fill:rgb(0,127,0);stroke-width:1" /><circle cx="58.312654" cy="656.699739" r="3.749996" style="fill:rgb(0,127,0);stroke-width:1" /><circle cx="57.502761" cy="652.245305" r="3.749996" style="fill:rgb(0,127,0);stroke-width:1" /><circle cx="57.210021" cy="650.635242" r="3.749996" style="fill:rgb(0,127,0);stroke-width:1" /><circle cx="56.032754" cy="644.160345" r="3.749996" style="fill:rgb(0,127,0);stroke-width:1" /><circle cx="54.773055" cy="637.231931" r="3.749996" style="fill:rgb(0,127,0);stroke-width:1" /><circle cx="53.421915" cy="629.800692" r="3.749996" style="fill:rgb(0,127,0);stroke-width:1" /><circle cx="52.573957" cy="625.136867" r="3.749996" style="fill:rgb(0,127,0);stroke-width:1" /><circle cx="52.329652" cy="623.793192" r="3.749996" style="fill:rgb(0,127,0);stroke-width:1" /><circle cx="50.956294" cy="616.239734" r="3.749996" style="fill:rgb(0,127,0);stroke-width:1" /><circle cx="49.484454" cy="608.144604" r="3.749996" style="fill:rgb(0,127,0);stroke-width:1" /><circle cx="48.708223" cy="603.875354" r="3.749996" style="fill:rgb(0,127,0);stroke-width:1" /><circle cx="47.124222" cy="595.163293" r="3.749996" style="fill:rgb(0,127,0);stroke-width:1" /><circle cx="45.419902" cy="585.789576" r="3.749996" style="fill:rgb(0,127,0);stroke-width:1" /><circle cx="43.581046" cy="575.675860" r="3.749996" style="fill:rgb(0,127,0);stroke-width:1" /><circle cx="41.591026" cy="564.730838" r="3.749996" style="fill:rgb(0,127,0);stroke-width:1" /><circle cx="40.845014" cy="560.627706" r="3.749996" style="fill:rgb(0,127,0);stroke-width:1" /><circle cx="40.125266" cy="556.669146" r="3.749996" style="fill:rgb(0,127,0);stroke-width:1" /><circle cx="39.430462" cy="552.847691" r="3.749996" style="fill:rgb(0,127,0);stroke-width:1" /><circle cx="38.759306" cy="549.156334" r="3.749996" style="fill:rgb(0,127,0);stroke-width:1" /><circle cx="38.110614" cy="545.588493" r="3.749996" style="fill:rgb(0,127,0);stroke-width:1" /><circle cx="37.483290" cy="542.138133" r="3.749996" style="fill:rgb(0,127,0);stroke-width:1" /><circle cx="36.876284" cy="538.799521" r="3.749996" style="fill:rgb(0,127,0);stroke-width:1" /><circle cx="36.288612" cy="535.567347" r="3.749996" style="fill:rgb(0,127,0);stroke-width:1" /><circle cx="35.719380" cy="532.436572" r="3.749996" style="fill:rgb(0,127,0);stroke-width:1" /><circle cx="35.167716" cy="529.402502" r="3.749996" style="fill:rgb(0,127,0);stroke-width:1" /><circle cx="33.121593" cy="518.148847" r="3.749996" style="fill:rgb(0,127,0);stroke-width:1" /><circle cx="30.668154" cy="504.654855" r="3.749996" style="fill:rgb(0,127,0);stroke-width:1" /><circle cx="28.001346" cy="489.987485" r="3.749996" style="fill:rgb(0,127,0);stroke-width:1" /><circle cx="27.470514" cy="487.067912" r="3.749996" style="fill:rgb(0,127,0);stroke-width:1" /><circle cx="26.021808" cy="478.629593" r="3.749996" style="fill:rgb(0,127,0);stroke-width:1" /><circle cx="24.089970" cy="452.890294" r="3.749996" style="fill:rgb(0,127,0);stroke-width:1" /><circle cx="22.096217" cy="418.556750" r="3.749996" style="fill:rgb(0,127,0);stroke-width:1" /><circle cx="19.745305" cy="374.839353" r="3.749996" style="fill:rgb(0,127,0);stroke-width:1" /><circle cx="19.482650" cy="370.088196" r="3.749996" style="fill:rgb(0,127,0);stroke-width:1" /><circle cx="19.231305" cy="365.374017" r="3.749996" style="fill:rgb(0,127,0);stroke-width:1" /><circle cx="18.987469" cy="360.756826" r="3.749996" style="fill:rgb(0,127,0);stroke-width:1" /><circle cx="18.750027" cy="356.249284" r="3.749996" style="fill:rgb(0,127,0);stroke-width:1" /><circle cx="18.518530" cy="351.851678" r="3.749996" style="fill:rgb(0,127,0);stroke-width:1" /><circle cx="18.292688" cy="347.560929" r="3.749996" style="fill:rgb(0,127,0);stroke-width:1" /><circle cx="15.625007" cy="296.874974" r="3.749996" style="fill:rgb(0,127,0);stroke-width:1" /><circle cx="15.410967" cy="292.808175" r="3.749996" style="fill:rgb(0,127,0);stroke-width:1" /><circle cx="15.000008" cy="284.999980" r="3.749996" style="fill:rgb(0,127,0);stroke-width:1" /><circle cx="11.363626" cy="215.909064" r="3.749996" style="fill:rgb(0,127,0);stroke-width:1" /><circle cx="6.578945" cy="125.000015" r="3.749996" style="fill:rgb(0,127,0);stroke-width:1" /><circle cx="750.000000" cy="750.000000" r="3.749996" style="fill:rgb(0,127,0);stroke-width:1" /><path stroke-linejoin="round" stroke-linecap="round" stroke="rgb(255,255,255)" stroke-width="3.749996" fill="none" d="M 0.000000 750.000000 L 750.000000 750.000000 M 0.000000 750.000000 L 0.000000 0.000000 " />

</svg>