<svg xmlns="http://www.w3.org/2000/svg" version="1.1" width = "750" height = "750" viewBox = "0 0 750 750"  shape-rendering="crispEdges">
<path stroke-linejoin="round" stroke-linecap="round" stroke="rgb(255,255,0)" stroke-width="3.749996" fill="none" d="M 124.999992 750.000000 L 0.000000 0.000000 " />
<path stroke-linejoin="round" stroke-linecap="round" stroke="rgb(63,63,63)" stroke-width="3.749996" fill="none" d="M 0.000000 0.000000 L 750.000000 750.000000 M 124.999992 750.000000 L 56.818172 0.000000 " />
<path stroke-linejoin="round" stroke-linecap="round" stroke="rgb(191,191,191)" stroke-width="3.749996" fill="none" d="M 0.000000 625.000000 L 124.999992 750.000000 M 0.000000 0.000000 L 68.181824 750.000000 " />
<path stroke-linejoin="round" stroke-linecap="round" stroke="rgb(0,0,255)" stroke-width="1.874998" fill="none" d="M 0.000000 750.000000 L 750.000000 731.250000 " />
<path stroke-linejoin="round" stroke-linecap="round" stroke="rgb(255,0,0)" stroke-width="3.749996" fill="none" d="M 124.716553 746.882141 L 124.999992 750.000000 " />
<path stroke-linejoin="round" stroke-linecap="round" stroke="rgb(0,0,255)" stroke-width="1.874998" fill="none" d="M 0.000000 750.000000 L 750.000000 713.414612 " />
<path stroke-linejoin="round" stroke-linecap="round" stroke="rgb(255,0,0)" stroke-width="3.749996" fill="none" d="M 121.888695 744.054199 L 124.716576 746.882141 " />
<path stroke-linejoin="round" stroke-linecap="round" stroke="rgb(0,0,255)" stroke-width="1.874998" fill="none" d="M 0.000000 750.000000 L 750.000000 693.750000 " />
<path stroke-linejoin="round" stroke-linecap="round" stroke="rgb(255,0,0)" stroke-width="3.749996" fill="none" d="M 118.915802 741.081299 L 121.888695 744.054199 " />
<path stroke-linejoin="round" stroke-linecap="round" stroke="rgb(0,0,255)" stroke-width="1.874998" fill="none" d="M 0.000000 750.000000 L 750.000000 676.829224 " />
<path stroke-linejoin="round" stroke-linecap="round" stroke="rgb(255,0,0)" stroke-width="3.749996" fill="none" d="M 116.471420 738.636902 L 118.915802 741.081299 " />
<path stroke-linejoin="round" stroke-linecap="round" stroke="rgb(0,0,255)" stroke-width="1.874998" fill="none" d="M 0.000000 750.000000 L 750.000000 673.076904 " />
<path stroke-linejoin="round" stroke-linecap="round" stroke="rgb(255,0,0)" stroke-width="3.749996" fill="none" d="M 115.942909 738.108398 L 116.471420 738.636902 " />
<path stroke-linejoin="round" stroke-linecap="round" stroke="rgb(0,0,255)" stroke-width="1.874998" fill="none" d="M 0.000000 750.000000 L 750.000000 656.250000 " />
<path stroke-linejoin="round" stroke-linecap="round" stroke="rgb(255,0,0)" stroke-width="3.749996" fill="none" d="M 113.630669 735.796204 L 115.942909 738.108398 " />
<path stroke-linejoin="round" stroke-linecap="round" stroke="rgb(0,0,255)" stroke-width="1.874998" fill="none" d="M 0.000000 750.000000 L 750.000000 651.315796 " />
<path stroke-linejoin="round" stroke-linecap="round" stroke="rgb(255,0,0)" stroke-width="3.749996" fill="none" d="M 112.970016 735.135559 L 113.630669 735.796204 " />
<path stroke-linejoin="round" stroke-linecap="round" stroke="rgb(0,0,255)" stroke-width="1.874998" fill="none" d="M 0.000000 750.000000 L 750.000000 634.615417 " />
<path stroke-linejoin="round" stroke-linecap="round" stroke="rgb(255,0,0)" stroke-width="3.749996" fill="none" d="M 110.789894 732.955383 L 112.970016 735.135559 " />
<path stroke-linejoin="round" stroke-linecap="round" stroke="rgb(0,0,255)" stroke-width="1.874998" fill="none" d="M 0.000000 750.000000 L 750.000000 628.378357 " />
<path stroke-linejoin="round" stroke-linecap="round" stroke="rgb(255,0,0)" stroke-width="3.749996" fill="none" d="M 109.997124 732.162659 L 110.789894 732.955383 " />
<path stroke-linejoin="round" stroke-linecap="round" stroke="rgb(0,0,255)" stroke-width="1.874998" fill="none" d="M 0.000000 750.000000 L 750.000000 604.166687 " />
<path stroke-linejoin="round" stroke-linecap="round" stroke="rgb(255,0,0)" stroke-width="3.749996" fill="none" d="M 107.024231 729.189697 L 109.997124 732.162659 " />
<path stroke-linejoin="round" stroke-linecap="round" stroke="rgb(0,0,255)" stroke-width="1.874998" fill="none" d="M 0.000000 750.000000 L 750.000000 578.571411 " />
<path stroke-linejoin="round" stroke-linecap="round" stroke="rgb(255,0,0)" stroke-width="3.749996" fill="none" d="M 104.051338 726.216858 L 107.024231 729.189697 " />
<path stroke-linejoin="round" stroke-linecap="round" stroke="rgb(0,0,255)" stroke-width="1.874998" fill="none" d="M 0.000000 750.000000 L 750.000000 551.470581 " />
<path stroke-linejoin="round" stroke-linecap="round" stroke="rgb(255,0,0)" stroke-width="3.749996" fill="none" d="M 101.078423 723.243958 L 104.051338 726.216858 " />
<path stroke-linejoin="round" stroke-linecap="round" stroke="rgb(0,0,255)" stroke-width="1.874998" fill="none" d="M 0.000000 750.000000 L 750.000000 522.727295 " />
<path stroke-linejoin="round" stroke-linecap="round" stroke="rgb(255,0,0)" stroke-width="3.749996" fill="none" d="M 98.105553 720.270996 L 101.078423 723.243958 " />
<path stroke-linejoin="round" stroke-linecap="round" stroke="rgb(0,0,255)" stroke-width="1.874998" fill="none" d="M 0.000000 750.000000 L 750.000000 507.352936 " />
<path stroke-linejoin="round" stroke-linecap="round" stroke="rgb(255,0,0)" stroke-width="3.749996" fill="none" d="M 96.586060 718.751526 L 98.105553 720.270996 " />
<path stroke-linejoin="round" stroke-linecap="round" stroke="rgb(0,0,255)" stroke-width="1.874998" fill="none" d="M 0.000000 750.000000 L 750.000000 492.187500 " />
<path stroke-linejoin="round" stroke-linecap="round" stroke="rgb(255,0,0)" stroke-width="3.749996" fill="none" d="M 95.132660 717.298157 L 96.586060 718.751526 " />
<path stroke-linejoin="round" stroke-linecap="round" stroke="rgb(0,0,255)" stroke-width="1.874998" fill="none" d="M 0.000000 750.000000 L 750.000000 459.677429 " />
<path stroke-linejoin="round" stroke-linecap="round" stroke="rgb(255,0,0)" stroke-width="3.749996" fill="none" d="M 92.159760 714.325256 L 95.132660 717.298157 " />
<path stroke-linejoin="round" stroke-linecap="round" stroke="rgb(0,0,255)" stroke-width="1.874998" fill="none" d="M 0.000000 750.000000 L 750.000000 425.000000 " />
<path stroke-linejoin="round" stroke-linecap="round" stroke="rgb(255,0,0)" stroke-width="3.749996" fill="none" d="M 89.186844 711.352356 L 92.159760 714.325256 " />
<path stroke-linejoin="round" stroke-linecap="round" stroke="rgb(0,0,255)" stroke-width="1.874998" fill="none" d="M 0.000000 750.000000 L 750.000000 387.931030 " />
<path stroke-linejoin="round" stroke-linecap="round" stroke="rgb(255,0,0)" stroke-width="3.749996" fill="none" d="M 86.213951 708.379456 L 89.186844 711.352356 " />
<path stroke-linejoin="round" stroke-linecap="round" stroke="rgb(0,0,255)" stroke-width="1.874998" fill="none" d="M 0.000000 750.000000 L 750.000000 348.214294 " />
<path stroke-linejoin="round" stroke-linecap="round" stroke="rgb(255,0,0)" stroke-width="3.749996" fill="none" d="M 83.241058 705.406555 L 86.213951 708.379456 " />
<path stroke-linejoin="round" stroke-linecap="round" stroke="rgb(0,0,255)" stroke-width="1.874998" fill="none" d="M 0.000000 750.000000 L 750.000000 305.555542 " />
<path stroke-linejoin="round" stroke-linecap="round" stroke="rgb(255,0,0)" stroke-width="3.749996" fill="none" d="M 80.268166 702.433716 L 83.241058 705.406555 " />
<path stroke-linejoin="round" stroke-linecap="round" stroke="rgb(0,0,255)" stroke-width="1.874998" fill="none" d="M 0.000000 750.000000 L 750.000000 259.615387 " />
<path stroke-linejoin="round" stroke-linecap="round" stroke="rgb(255,0,0)" stroke-width="3.749996" fill="none" d="M 77.295273 699.460815 L 80.268166 702.433716 " />
<path stroke-linejoin="round" stroke-linecap="round" stroke="rgb(0,0,255)" stroke-width="1.874998" fill="none" d="M 0.000000 750.000000 L 750.000000 209.999985 " />
<path stroke-linejoin="round" stroke-linecap="round" stroke="rgb(255,0,0)" stroke-width="3.749996" fill="none" d="M 74.322380 696.487854 L 77.295273 699.460815 " />
<path stroke-linejoin="round" stroke-linecap="round" stroke="rgb(0,0,255)" stroke-width="1.874998" fill="none" d="M 0.000000 750.000000 L 750.000000 156.249985 " />
<path stroke-linejoin="round" stroke-linecap="round" stroke="rgb(255,0,0)" stroke-width="3.749996" fill="none" d="M 71.349487 693.515015 L 74.322380 696.487854 " />
<path stroke-linejoin="round" stroke-linecap="round" stroke="rgb(0,0,255)" stroke-width="1.874998" fill="none" d="M 0.000000 750.000000 L 750.000000 97.826111 " />
<path stroke-linejoin="round" stroke-linecap="round" stroke="rgb(255,0,0)" stroke-width="3.749996" fill="none" d="M 68.376595 690.542114 L 71.349487 693.515015 " />
<path stroke-linejoin="round" stroke-linecap="round" stroke="rgb(0,0,255)" stroke-width="1.874998" fill="none" d="M 0.000000 750.000000 L 750.000000 93.750000 " />
<path stroke-linejoin="round" stroke-linecap="round" stroke="rgb(255,0,0)" stroke-width="3.749996" fill="none" d="M 68.178398 690.343933 L 68.376595 690.542114 " />
<path stroke-linejoin="round" stroke-linecap="round" stroke="rgb(0,0,255)" stroke-width="1.874998" fill="none" d="M 0.000000 750.000000 L 750.000000 34.090919 " />
<path stroke-linejoin="round" stroke-linecap="round" stroke="rgb(255,0,0)" stroke-width="3.749996" fill="none" d="M 65.403702 687.569214 L 68.178398 690.343933 " />
<path stroke-linejoin="round" stroke-linecap="round" stroke="rgb(0,0,255)" stroke-width="1.874998" fill="none" d="M 0.000000 750.000000 L 750.000000 32.608688 " />
<path stroke-linejoin="round" stroke-linecap="round" stroke="rgb(255,0,0)" stroke-width="3.749996" fill="none" d="M 65.337631 687.503174 L 65.403679 687.569214 " />
<path stroke-linejoin="round" stroke-linecap="round" stroke="rgb(0,0,255)" stroke-width="1.874998" fill="none" d="M 0.000000 750.000000 L 715.909058 0.000000 " />
<path stroke-linejoin="round" stroke-linecap="round" stroke="rgb(255,0,0)" stroke-width="3.749996" fill="none" d="M 62.430805 684.596313 L 65.337631 687.503174 " />
<path stroke-linejoin="round" stroke-linecap="round" stroke="rgb(0,0,255)" stroke-width="1.874998" fill="none" d="M 0.000000 750.000000 L 656.249939 0.000000 " />
<path stroke-linejoin="round" stroke-linecap="round" stroke="rgb(255,0,0)" stroke-width="3.749996" fill="none" d="M 61.764702 679.411743 L 62.430782 684.596313 " />
<path stroke-linejoin="round" stroke-linecap="round" stroke="rgb(0,0,255)" stroke-width="1.874998" fill="none" d="M 0.000000 750.000000 L 600.000000 0.000000 " />
<path stroke-linejoin="round" stroke-linecap="round" stroke="rgb(255,0,0)" stroke-width="3.749996" fill="none" d="M 61.224483 673.469421 L 61.764702 679.411743 " />
<path stroke-linejoin="round" stroke-linecap="round" stroke="rgb(0,0,255)" stroke-width="1.874998" fill="none" d="M 0.000000 750.000000 L 548.076904 0.000000 " />
<path stroke-linejoin="round" stroke-linecap="round" stroke="rgb(255,0,0)" stroke-width="3.749996" fill="none" d="M 60.638287 667.021301 L 61.224483 673.469421 " />
<path stroke-linejoin="round" stroke-linecap="round" stroke="rgb(0,0,255)" stroke-width="1.874998" fill="none" d="M 0.000000 750.000000 L 500.000000 0.000000 " />
<path stroke-linejoin="round" stroke-linecap="round" stroke="rgb(255,0,0)" stroke-width="3.749996" fill="none" d="M 59.999989 660.000000 L 60.638287 667.021301 " />
<path stroke-linejoin="round" stroke-linecap="round" stroke="rgb(0,0,255)" stroke-width="1.874998" fill="none" d="M 0.000000 750.000000 L 465.517212 0.000000 " />
<path stroke-linejoin="round" stroke-linecap="round" stroke="rgb(255,0,0)" stroke-width="3.749996" fill="none" d="M 59.471367 654.185059 L 59.999989 660.000000 " />
<path stroke-linejoin="round" stroke-linecap="round" stroke="rgb(0,0,255)" stroke-width="1.874998" fill="none" d="M 0.000000 750.000000 L 337.500000 0.000000 " />
<path stroke-linejoin="round" stroke-linecap="round" stroke="rgb(255,0,0)" stroke-width="3.749996" fill="none" d="M 56.722687 623.949585 L 59.471367 654.185059 " />
<path stroke-linejoin="round" stroke-linecap="round" stroke="rgb(0,0,255)" stroke-width="1.874998" fill="none" d="M 0.000000 750.000000 L 324.324341 0.000000 " />
<path stroke-linejoin="round" stroke-linecap="round" stroke="rgb(255,0,0)" stroke-width="3.749996" fill="none" d="M 56.338013 619.718323 L 56.722687 623.949585 " />
<path stroke-linejoin="round" stroke-linecap="round" stroke="rgb(0,0,255)" stroke-width="1.874998" fill="none" d="M 0.000000 750.000000 L 318.750000 0.000000 " />
<path stroke-linejoin="round" stroke-linecap="round" stroke="rgb(255,0,0)" stroke-width="3.749996" fill="none" d="M 56.167377 617.841370 L 56.338013 619.718323 " />
<path stroke-linejoin="round" stroke-linecap="round" stroke="rgb(0,0,255)" stroke-width="1.874998" fill="none" d="M 0.000000 750.000000 L 270.000000 0.000000 " />
<path stroke-linejoin="round" stroke-linecap="round" stroke="rgb(255,0,0)" stroke-width="3.749996" fill="none" d="M 54.435478 598.790405 L 56.167377 617.841370 " />
<path stroke-linejoin="round" stroke-linecap="round" stroke="rgb(0,0,255)" stroke-width="1.874998" fill="none" d="M 0.000000 750.000000 L 256.097565 0.000000 " />
<path stroke-linejoin="round" stroke-linecap="round" stroke="rgb(255,0,0)" stroke-width="3.749996" fill="none" d="M 53.846149 592.307678 L 54.435478 598.790405 " />
<path stroke-linejoin="round" stroke-linecap="round" stroke="rgb(0,0,255)" stroke-width="1.874998" fill="none" d="M 0.000000 750.000000 L 244.186050 0.000000 " />
<path stroke-linejoin="round" stroke-linecap="round" stroke="rgb(255,0,0)" stroke-width="3.749996" fill="none" d="M 53.299473 586.294434 L 53.846149 592.307678 " />
<path stroke-linejoin="round" stroke-linecap="round" stroke="rgb(0,0,255)" stroke-width="1.874998" fill="none" d="M 0.000000 750.000000 L 214.285721 0.000000 " />
<path stroke-linejoin="round" stroke-linecap="round" stroke="rgb(255,0,0)" stroke-width="3.749996" fill="none" d="M 51.724121 568.965576 L 53.299473 586.294434 " />
<path stroke-linejoin="round" stroke-linecap="round" stroke="rgb(0,0,255)" stroke-width="1.874998" fill="none" d="M 0.000000 750.000000 L 187.500000 0.000000 " />
<path stroke-linejoin="round" stroke-linecap="round" stroke="rgb(255,0,0)" stroke-width="3.749996" fill="none" d="M 49.999996 550.000000 L 51.724121 568.965576 " />
<path stroke-linejoin="round" stroke-linecap="round" stroke="rgb(0,0,255)" stroke-width="1.874998" fill="none" d="M 0.000000 750.000000 L 156.716415 0.000000 " />
<path stroke-linejoin="round" stroke-linecap="round" stroke="rgb(255,0,0)" stroke-width="3.749996" fill="none" d="M 47.511311 522.624451 L 49.999996 550.000000 " />
<path stroke-linejoin="round" stroke-linecap="round" stroke="rgb(0,0,255)" stroke-width="1.874998" fill="none" d="M 0.000000 750.000000 L 143.382355 0.000000 " />
<path stroke-linejoin="round" stroke-linecap="round" stroke="rgb(255,0,0)" stroke-width="3.749996" fill="none" d="M 46.208515 508.293884 L 47.511311 522.624451 " />
<path stroke-linejoin="round" stroke-linecap="round" stroke="rgb(0,0,255)" stroke-width="1.874998" fill="none" d="M 0.000000 750.000000 L 134.615372 0.000000 " />
<path stroke-linejoin="round" stroke-linecap="round" stroke="rgb(255,0,0)" stroke-width="3.749996" fill="none" d="M 45.258610 497.844818 L 46.208515 508.293884 " />
<path stroke-linejoin="round" stroke-linecap="round" stroke="rgb(0,0,255)" stroke-width="1.874998" fill="none" d="M 0.000000 750.000000 L 126.760574 0.000000 " />
<path stroke-linejoin="round" stroke-linecap="round" stroke="rgb(255,0,0)" stroke-width="3.749996" fill="none" d="M 44.334969 487.684753 L 45.258610 497.844818 " />
<path stroke-linejoin="round" stroke-linecap="round" stroke="rgb(0,0,255)" stroke-width="1.874998" fill="none" d="M 0.000000 750.000000 L 123.287674 0.000000 " />
<path stroke-linejoin="round" stroke-linecap="round" stroke="rgb(255,0,0)" stroke-width="3.749996" fill="none" d="M 43.902443 482.926819 L 44.334969 487.684753 " />
<path stroke-linejoin="round" stroke-linecap="round" stroke="rgb(0,0,255)" stroke-width="1.874998" fill="none" d="M 0.000000 750.000000 L 113.372101 0.000000 " />
<path stroke-linejoin="round" stroke-linecap="round" stroke="rgb(255,0,0)" stroke-width="3.749996" fill="none" d="M 42.576424 468.340607 L 43.902443 482.926819 " />
<path stroke-linejoin="round" stroke-linecap="round" stroke="rgb(0,0,255)" stroke-width="1.874998" fill="none" d="M 0.000000 750.000000 L 93.750000 0.000000 " />
<path stroke-linejoin="round" stroke-linecap="round" stroke="rgb(255,0,0)" stroke-width="3.749996" fill="none" d="M 39.473690 434.210510 L 42.576424 468.340637 " />
<path stroke-linejoin="round" stroke-linecap="round" stroke="rgb(0,0,255)" stroke-width="1.874998" fill="none" d="M 0.000000 750.000000 L 91.981125 0.000000 " />
<path stroke-linejoin="round" stroke-linecap="round" stroke="rgb(255,0,0)" stroke-width="3.749996" fill="none" d="M 39.156631 430.722931 L 39.473690 434.210510 " />
<path stroke-linejoin="round" stroke-linecap="round" stroke="rgb(0,0,255)" stroke-width="1.874998" fill="none" d="M 0.000000 750.000000 L 91.666664 0.000000 " />
<path stroke-linejoin="round" stroke-linecap="round" stroke="rgb(255,0,0)" stroke-width="3.749996" fill="none" d="M 39.099522 430.094849 L 39.156631 430.722931 " />
<path stroke-linejoin="round" stroke-linecap="round" stroke="rgb(0,0,255)" stroke-width="1.874998" fill="none" d="M 0.000000 750.000000 L 91.463417 0.000000 " />
<path stroke-linejoin="round" stroke-linecap="round" stroke="rgb(255,0,0)" stroke-width="3.749996" fill="none" d="M 39.062485 429.687561 L 39.099522 430.094849 " />
<path stroke-linejoin="round" stroke-linecap="round" stroke="rgb(0,0,255)" stroke-width="1.874998" fill="none" d="M 0.000000 750.000000 L 89.673912 0.000000 " />
<path stroke-linejoin="round" stroke-linecap="round" stroke="rgb(255,0,0)" stroke-width="3.749996" fill="none" d="M 38.732395 426.056396 L 39.062485 429.687561 " />
<path stroke-linejoin="round" stroke-linecap="round" stroke="rgb(0,0,255)" stroke-width="1.874998" fill="none" d="M 0.000000 750.000000 L 78.124992 0.000000 " />
<path stroke-linejoin="round" stroke-linecap="round" stroke="rgb(255,0,0)" stroke-width="3.749996" fill="none" d="M 36.407768 400.485504 L 38.732395 426.056396 " />
<path stroke-linejoin="round" stroke-linecap="round" stroke="rgb(0,0,255)" stroke-width="1.874998" fill="none" d="M 0.000000 750.000000 L 74.999992 0.000000 " />
<path stroke-linejoin="round" stroke-linecap="round" stroke="rgb(255,0,0)" stroke-width="3.749996" fill="none" d="M 35.714283 392.857208 L 36.407768 400.485504 " />
<path stroke-linejoin="round" stroke-linecap="round" stroke="rgb(0,0,255)" stroke-width="1.874998" fill="none" d="M 0.000000 750.000000 L 73.369568 0.000000 " />
<path stroke-linejoin="round" stroke-linecap="round" stroke="rgb(255,0,0)" stroke-width="3.749996" fill="none" d="M 35.340317 388.743500 L 35.714283 392.857208 " />
<path stroke-linejoin="round" stroke-linecap="round" stroke="rgb(0,0,255)" stroke-width="1.874998" fill="none" d="M 0.000000 750.000000 L 58.823524 0.000000 " />
<path stroke-linejoin="round" stroke-linecap="round" stroke="rgb(255,0,0)" stroke-width="3.749996" fill="none" d="M 31.578943 347.368500 L 35.340317 388.743500 " />
<path stroke-linejoin="round" stroke-linecap="round" stroke="rgb(0,0,255)" stroke-width="1.874998" fill="none" d="M 0.000000 750.000000 L 53.097343 0.000000 " />
<path stroke-linejoin="round" stroke-linecap="round" stroke="rgb(255,0,0)" stroke-width="3.749996" fill="none" d="M 29.850752 328.358246 L 31.578943 347.368500 " />
<path stroke-linejoin="round" stroke-linecap="round" stroke="rgb(0,0,255)" stroke-width="1.874998" fill="none" d="M 0.000000 750.000000 L 42.682930 0.000000 " />
<path stroke-linejoin="round" stroke-linecap="round" stroke="rgb(255,0,0)" stroke-width="3.749996" fill="none" d="M 26.249998 288.750061 L 29.850752 328.358246 " />
<path stroke-linejoin="round" stroke-linecap="round" stroke="rgb(0,0,255)" stroke-width="1.874998" fill="none" d="M 0.000000 750.000000 L 41.338585 0.000000 " />
<path stroke-linejoin="round" stroke-linecap="round" stroke="rgb(255,0,0)" stroke-width="3.749996" fill="none" d="M 25.735281 283.088287 L 26.249998 288.750061 " />
<path stroke-linejoin="round" stroke-linecap="round" stroke="rgb(0,0,255)" stroke-width="1.874998" fill="none" d="M 0.000000 750.000000 L 38.888878 0.000000 " />
<path stroke-linejoin="round" stroke-linecap="round" stroke="rgb(255,0,0)" stroke-width="3.749996" fill="none" d="M 24.764143 272.405731 L 25.735281 283.088287 " />
<path stroke-linejoin="round" stroke-linecap="round" stroke="rgb(0,0,255)" stroke-width="1.874998" fill="none" d="M 0.000000 750.000000 L 31.034477 0.000000 " />
<path stroke-linejoin="round" stroke-linecap="round" stroke="rgb(255,0,0)" stroke-width="3.749996" fill="none" d="M 21.327003 234.597214 L 24.764143 272.405731 " />
<path stroke-linejoin="round" stroke-linecap="round" stroke="rgb(0,0,255)" stroke-width="1.874998" fill="none" d="M 0.000000 750.000000 L 24.193548 0.000000 " />
<path stroke-linejoin="round" stroke-linecap="round" stroke="rgb(255,0,0)" stroke-width="3.749996" fill="none" d="M 17.857141 196.428665 L 21.327003 234.597214 " />
<path stroke-linejoin="round" stroke-linecap="round" stroke="rgb(0,0,255)" stroke-width="1.874998" fill="none" d="M 0.000000 750.000000 L 18.181824 0.000000 " />
<path stroke-linejoin="round" stroke-linecap="round" stroke="rgb(255,0,0)" stroke-width="3.749996" fill="none" d="M 14.354065 157.894775 L 17.857141 196.428665 " />
<path stroke-linejoin="round" stroke-linecap="round" stroke="rgb(0,0,255)" stroke-width="1.874998" fill="none" d="M 0.000000 750.000000 L 17.751486 0.000000 " />
<path stroke-linejoin="round" stroke-linecap="round" stroke="rgb(255,0,0)" stroke-width="3.749996" fill="none" d="M 14.084503 154.929642 L 14.354065 157.894775 " />
<path stroke-linejoin="round" stroke-linecap="round" stroke="rgb(0,0,255)" stroke-width="1.874998" fill="none" d="M 0.000000 750.000000 L 17.341040 0.000000 " />
<path stroke-linejoin="round" stroke-linecap="round" stroke="rgb(255,0,0)" stroke-width="3.749996" fill="none" d="M 13.824887 152.073807 L 14.084503 154.929642 " />
<path stroke-linejoin="round" stroke-linecap="round" stroke="rgb(0,0,255)" stroke-width="1.874998" fill="none" d="M 0.000000 750.000000 L 14.610394 0.000000 " />
<path stroke-linejoin="round" stroke-linecap="round" stroke="rgb(255,0,0)" stroke-width="3.749996" fill="none" d="M 12.032077 132.352997 L 13.824887 152.073807 " />
<path stroke-linejoin="round" stroke-linecap="round" stroke="rgb(0,0,255)" stroke-width="1.874998" fill="none" d="M 0.000000 750.000000 L 12.931042 0.000000 " />
<path stroke-linejoin="round" stroke-linecap="round" stroke="rgb(255,0,0)" stroke-width="3.749996" fill="none" d="M 10.869562 119.565254 L 12.032077 132.352997 " />
<path stroke-linejoin="round" stroke-linecap="round" stroke="rgb(0,0,255)" stroke-width="1.874998" fill="none" d="M 0.000000 750.000000 L 12.096763 0.000000 " />
<path stroke-linejoin="round" stroke-linecap="round" stroke="rgb(255,0,0)" stroke-width="3.749996" fill="none" d="M 10.273978 113.013741 L 10.869562 119.565254 " />
<path stroke-linejoin="round" stroke-linecap="round" stroke="rgb(0,0,255)" stroke-width="1.874998" fill="none" d="M 0.000000 750.000000 L 7.653058 0.000000 " />
<path stroke-linejoin="round" stroke-linecap="round" stroke="rgb(255,0,0)" stroke-width="3.749996" fill="none" d="M 6.880738 75.688118 L 10.273978 113.013741 " />
<path stroke-linejoin="round" stroke-linecap="round" stroke="rgb(0,0,255)" stroke-width="1.874998" fill="none" d="M 0.000000 750.000000 L 3.640786 0.000000 " />
<path stroke-linejoin="round" stroke-linecap="round" stroke="rgb(255,0,0)" stroke-width="3.749996" fill="none" d="M 3.456228 38.018524 L 6.880738 75.688118 " />
<path stroke-linejoin="round" stroke-linecap="round" stroke="rgb(0,0,255)" stroke-width="1.874998" fill="none" d="M 0.000000 750.000000 L 0.000000 0.000000 " />
<path stroke-linejoin="round" stroke-linecap="round" stroke="rgb(255,0,0)" stroke-width="3.749996" fill="none" d="M 0.000000 0.000000 L 3.456228 38.018524 " />
<circle cx="124.716550" cy="746.882111" r="3.749996" style="fill:rgb(0,127,0);stroke-width:1" /><circle cx="121.888697" cy="744.054213" r="3.749996" style="fill:rgb(0,127,0);stroke-width:1" /><circle cx="118.915804" cy="741.081320" r="3.749996" style="fill:rgb(0,127,0);stroke-width:1" /><circle cx="116.471417" cy="738.636933" r="3.749996" style="fill:rgb(0,127,0);stroke-width:1" /><circle cx="115.942910" cy="738.108426" r="3.749996" style="fill:rgb(0,127,0);stroke-width:1" /><circle cx="113.630667" cy="735.796161" r="3.749996" style="fill:rgb(0,127,0);stroke-width:1" /><circle cx="112.970017" cy="735.135533" r="3.749996" style="fill:rgb(0,127,0);stroke-width:1" /><circle cx="110.789895" cy="732.955411" r="3.749996" style="fill:rgb(0,127,0);stroke-width:1" /><circle cx="109.997123" cy="732.162639" r="3.749996" style="fill:rgb(0,127,0);stroke-width:1" /><circle cx="107.024230" cy="729.189724" r="3.749996" style="fill:rgb(0,127,0);stroke-width:1" /><circle cx="104.051337" cy="726.216830" r="3.749996" style="fill:rgb(0,127,0);stroke-width:1" /><circle cx="101.078421" cy="723.243937" r="3.749996" style="fill:rgb(0,127,0);stroke-width:1" /><circle cx="98.105550" cy="720.271043" r="3.749996" style="fill:rgb(0,127,0);stroke-width:1" /><circle cx="96.586056" cy="718.751572" r="3.749996" style="fill:rgb(0,127,0);stroke-width:1" /><circle cx="95.132656" cy="717.298150" r="3.749996" style="fill:rgb(0,127,0);stroke-width:1" /><circle cx="92.159763" cy="714.325257" r="3.749996" style="fill:rgb(0,127,0);stroke-width:1" /><circle cx="89.186847" cy="711.352363" r="3.749996" style="fill:rgb(0,127,0);stroke-width:1" /><circle cx="86.213954" cy="708.379470" r="3.749996" style="fill:rgb(0,127,0);stroke-width:1" /><circle cx="83.241060" cy="705.406576" r="3.749996" style="fill:rgb(0,127,0);stroke-width:1" /><circle cx="80.268167" cy="702.433683" r="3.749996" style="fill:rgb(0,127,0);stroke-width:1" /><circle cx="77.295274" cy="699.460790" r="3.749996" style="fill:rgb(0,127,0);stroke-width:1" /><circle cx="74.322380" cy="696.487874" r="3.749996" style="fill:rgb(0,127,0);stroke-width:1" /><circle cx="71.349487" cy="693.514980" r="3.749996" style="fill:rgb(0,127,0);stroke-width:1" /><circle cx="68.376593" cy="690.542087" r="3.749996" style="fill:rgb(0,127,0);stroke-width:1" /><circle cx="68.178400" cy="690.343894" r="3.749996" style="fill:rgb(0,127,0);stroke-width:1" /><circle cx="65.403700" cy="687.569216" r="3.749996" style="fill:rgb(0,127,0);stroke-width:1" /><circle cx="65.337628" cy="687.503144" r="3.749996" style="fill:rgb(0,127,0);stroke-width:1" /><circle cx="62.430806" cy="684.596300" r="3.749996" style="fill:rgb(0,127,0);stroke-width:1" /><circle cx="61.764702" cy="679.411769" r="3.749996" style="fill:rgb(0,127,0);stroke-width:1" /><circle cx="61.224483" cy="673.469402" r="3.749996" style="fill:rgb(0,127,0);stroke-width:1" /><circle cx="60.638286" cy="667.021282" r="3.749996" style="fill:rgb(0,127,0);stroke-width:1" /><circle cx="59.999987" cy="660.000019" r="3.749996" style="fill:rgb(0,127,0);stroke-width:1" /><circle cx="59.471369" cy="654.185034" r="3.749996" style="fill:rgb(0,127,0);stroke-width:1" /><circle cx="56.722686" cy="623.949587" r="3.749996" style="fill:rgb(0,127,0);stroke-width:1" /><circle cx="56.338012" cy="619.718336" r="3.749996" style="fill:rgb(0,127,0);stroke-width:1" /><circle cx="56.167379" cy="617.841415" r="3.749996" style="fill:rgb(0,127,0);stroke-width:1" /><circle cx="54.435477" cy="598.790355" r="3.749996" style="fill:rgb(0,127,0);stroke-width:1" /><circle cx="53.846151" cy="592.307702" r="3.749996" style="fill:rgb(0,127,0);stroke-width:1" /><circle cx="53.299472" cy="586.294435" r="3.749996" style="fill:rgb(0,127,0);stroke-width:1" /><circle cx="51.724121" cy="568.965532" r="3.749996" style="fill:rgb(0,127,0);stroke-width:1" /><circle cx="49.999997" cy="550.000012" r="3.749996" style="fill:rgb(0,127,0);stroke-width:1" /><circle cx="47.511309" cy="522.624448" r="3.749996" style="fill:rgb(0,127,0);stroke-width:1" /><circle cx="46.208516" cy="508.293886" r="3.749996" style="fill:rgb(0,127,0);stroke-width:1" /><circle cx="45.258611" cy="497.844815" r="3.749996" style="fill:rgb(0,127,0);stroke-width:1" /><circle cx="44.334970" cy="487.684730" r="3.749996" style="fill:rgb(0,127,0);stroke-width:1" /><circle cx="43.902442" cy="482.926816" r="3.749996" style="fill:rgb(0,127,0);stroke-width:1" /><circle cx="42.576425" cy="468.340605" r="3.749996" style="fill:rgb(0,127,0);stroke-width:1" /><circle cx="39.473690" cy="434.210541" r="3.749996" style="fill:rgb(0,127,0);stroke-width:1" /><circle cx="39.156631" cy="430.722920" r="3.749996" style="fill:rgb(0,127,0);stroke-width:1" /><circle cx="39.099522" cy="430.094836" r="3.749996" style="fill:rgb(0,127,0);stroke-width:1" /><circle cx="39.062485" cy="429.687560" r="3.749996" style="fill:rgb(0,127,0);stroke-width:1" /><circle cx="38.732395" cy="426.056385" r="3.749996" style="fill:rgb(0,127,0);stroke-width:1" /><circle cx="36.407769" cy="400.485487" r="3.749996" style="fill:rgb(0,127,0);stroke-width:1" /><circle cx="35.714284" cy="392.857193" r="3.749996" style="fill:rgb(0,127,0);stroke-width:1" /><circle cx="35.340317" cy="388.743490" r="3.749996" style="fill:rgb(0,127,0);stroke-width:1" /><circle cx="31.578943" cy="347.368478" r="3.749996" style="fill:rgb(0,127,0);stroke-width:1" /><circle cx="29.850751" cy="328.358232" r="3.749996" style="fill:rgb(0,127,0);stroke-width:1" /><circle cx="26.249997" cy="288.750054" r="3.749996" style="fill:rgb(0,127,0);stroke-width:1" /><circle cx="25.735281" cy="283.088297" r="3.749996" style="fill:rgb(0,127,0);stroke-width:1" /><circle cx="24.764143" cy="272.405718" r="3.749996" style="fill:rgb(0,127,0);stroke-width:1" /><circle cx="21.327004" cy="234.597210" r="3.749996" style="fill:rgb(0,127,0);stroke-width:1" /><circle cx="17.857142" cy="196.428660" r="3.749996" style="fill:rgb(0,127,0);stroke-width:1" /><circle cx="14.354065" cy="157.894783" r="3.749996" style="fill:rgb(0,127,0);stroke-width:1" /><circle cx="14.084503" cy="154.929645" r="3.749996" style="fill:rgb(0,127,0);stroke-width:1" /><circle cx="13.824888" cy="152.073808" r="3.749996" style="fill:rgb(0,127,0);stroke-width:1" /><circle cx="12.032077" cy="132.353000" r="3.749996" style="fill:rgb(0,127,0);stroke-width:1" /><circle cx="10.869563" cy="119.565256" r="3.749996" style="fill:rgb(0,127,0);stroke-width:1" /><circle cx="10.273978" cy="113.013737" r="3.749996" style="fill:rgb(0,127,0);stroke-width:1" /><circle cx="6.880738" cy="75.688116" r="3.749996" style="fill:rgb(0,127,0);stroke-width:1" /><circle cx="3.456205" cy="38.018525" r="3.750008" style="fill:rgb(0,127,0);stroke-width:1" /><circle cx="750.000000" cy="750.000000" r="3.749996" style="fill:rgb(0,127,0);stroke-width:1" /><path stroke-linejoin="round" stroke-linecap="round" stroke="rgb(255,255,255)" stroke-width="3.749996" fill="none" d="M 0.000000 750.000000 L 750.000000 750.000000 M 0.000000 750.000000 L 0.000000 0.000000 " />

</svg>