<svg xmlns="http://www.w3.org/2000/svg" version="1.1" width = "750" height = "750" viewBox = "0 0 750 750"  shape-rendering="crispEdges">
<path stroke-linejoin="round" stroke-linecap="round" stroke="rgb(255,255,0)" stroke-width="3.749996" fill="none" d="M 93.750000 750.000000 L 0.000000 0.000000 " />
<path stroke-linejoin="round" stroke-linecap="round" stroke="rgb(63,63,63)" stroke-width="3.749996" fill="none" d="M 0.000000 0.000000 L 750.000000 750.000000 M 93.750000 750.000000 L 43.750004 0.000000 " />
<path stroke-linejoin="round" stroke-linecap="round" stroke="rgb(191,191,191)" stroke-width="3.749996" fill="none" d="M 0.000000 656.250000 L 93.750000 750.000000 M 0.000000 0.000000 L 49.999996 750.000000 " />
<path stroke-linejoin="round" stroke-linecap="round" stroke="rgb(0,0,255)" stroke-width="1.874998" fill="none" d="M 0.000000 750.000000 L 750.000000 472.222198 " />
<path stroke-linejoin="round" stroke-linecap="round" stroke="rgb(255,0,0)" stroke-width="3.749996" fill="none" d="M 91.490952 716.114441 L 93.750000 750.000000 " />
<path stroke-linejoin="round" stroke-linecap="round" stroke="rgb(0,0,255)" stroke-width="1.874998" fill="none" d="M 0.000000 750.000000 L 750.000000 173.076920 " />
<path stroke-linejoin="round" stroke-linecap="round" stroke="rgb(255,0,0)" stroke-width="3.749996" fill="none" d="M 88.516678 681.910217 L 91.490952 716.114441 " />
<path stroke-linejoin="round" stroke-linecap="round" stroke="rgb(0,0,255)" stroke-width="1.874998" fill="none" d="M 0.000000 750.000000 L 675.000000 0.000000 " />
<path stroke-linejoin="round" stroke-linecap="round" stroke="rgb(255,0,0)" stroke-width="3.749996" fill="none" d="M 86.117058 654.314392 L 88.516678 681.910217 " />
<path stroke-linejoin="round" stroke-linecap="round" stroke="rgb(0,0,255)" stroke-width="1.874998" fill="none" d="M 0.000000 750.000000 L 625.000000 0.000000 " />
<path stroke-linejoin="round" stroke-linecap="round" stroke="rgb(255,0,0)" stroke-width="3.749996" fill="none" d="M 85.514320 647.382812 L 86.117058 654.314392 " />
<path stroke-linejoin="round" stroke-linecap="round" stroke="rgb(0,0,255)" stroke-width="1.874998" fill="none" d="M 0.000000 750.000000 L 487.499969 0.000000 " />
<path stroke-linejoin="round" stroke-linecap="round" stroke="rgb(255,0,0)" stroke-width="3.749996" fill="none" d="M 83.294479 621.854675 L 85.514320 647.382812 " />
<path stroke-linejoin="round" stroke-linecap="round" stroke="rgb(0,0,255)" stroke-width="1.874998" fill="none" d="M 0.000000 750.000000 L 450.000031 0.000000 " />
<path stroke-linejoin="round" stroke-linecap="round" stroke="rgb(255,0,0)" stroke-width="3.749996" fill="none" d="M 82.483429 612.527649 L 83.294456 621.854675 " />
<path stroke-linejoin="round" stroke-linecap="round" stroke="rgb(0,0,255)" stroke-width="1.874998" fill="none" d="M 0.000000 750.000000 L 375.000000 0.000000 " />
<path stroke-linejoin="round" stroke-linecap="round" stroke="rgb(255,0,0)" stroke-width="3.749996" fill="none" d="M 80.446777 589.106445 L 82.483429 612.527649 " />
<path stroke-linejoin="round" stroke-linecap="round" stroke="rgb(0,0,255)" stroke-width="1.874998" fill="none" d="M 0.000000 750.000000 L 300.000000 0.000000 " />
<path stroke-linejoin="round" stroke-linecap="round" stroke="rgb(255,0,0)" stroke-width="3.749996" fill="none" d="M 77.573685 556.065735 L 80.446777 589.106445 " />
<path stroke-linejoin="round" stroke-linecap="round" stroke="rgb(0,0,255)" stroke-width="1.874998" fill="none" d="M 0.000000 750.000000 L 246.428574 0.000000 " />
<path stroke-linejoin="round" stroke-linecap="round" stroke="rgb(255,0,0)" stroke-width="3.749996" fill="none" d="M 74.674820 522.728821 L 77.573685 556.065735 " />
<path stroke-linejoin="round" stroke-linecap="round" stroke="rgb(0,0,255)" stroke-width="1.874998" fill="none" d="M 0.000000 750.000000 L 225.000015 0.000000 " />
<path stroke-linejoin="round" stroke-linecap="round" stroke="rgb(255,0,0)" stroke-width="3.749996" fill="none" d="M 73.215614 505.947937 L 74.674820 522.728821 " />
<path stroke-linejoin="round" stroke-linecap="round" stroke="rgb(0,0,255)" stroke-width="1.874998" fill="none" d="M 0.000000 750.000000 L 206.250000 0.000000 " />
<path stroke-linejoin="round" stroke-linecap="round" stroke="rgb(255,0,0)" stroke-width="3.749996" fill="none" d="M 71.749832 489.091522 L 73.215614 505.947937 " />
<path stroke-linejoin="round" stroke-linecap="round" stroke="rgb(0,0,255)" stroke-width="1.874998" fill="none" d="M 0.000000 750.000000 L 175.000015 0.000000 " />
<path stroke-linejoin="round" stroke-linecap="round" stroke="rgb(255,0,0)" stroke-width="3.749996" fill="none" d="M 68.798393 455.149780 L 71.749832 489.091522 " />
<path stroke-linejoin="round" stroke-linecap="round" stroke="rgb(0,0,255)" stroke-width="1.874998" fill="none" d="M 0.000000 750.000000 L 165.000000 0.000000 " />
<path stroke-linejoin="round" stroke-linecap="round" stroke="rgb(255,0,0)" stroke-width="3.749996" fill="none" d="M 67.684692 442.342316 L 68.798393 455.149780 " />
<path stroke-linejoin="round" stroke-linecap="round" stroke="rgb(0,0,255)" stroke-width="1.874998" fill="none" d="M 0.000000 750.000000 L 149.999985 0.000000 " />
<path stroke-linejoin="round" stroke-linecap="round" stroke="rgb(255,0,0)" stroke-width="3.749996" fill="none" d="M 65.820114 420.899475 L 67.684692 442.342316 " />
<path stroke-linejoin="round" stroke-linecap="round" stroke="rgb(0,0,255)" stroke-width="1.874998" fill="none" d="M 0.000000 750.000000 L 143.181808 0.000000 " />
<path stroke-linejoin="round" stroke-linecap="round" stroke="rgb(255,0,0)" stroke-width="3.749996" fill="none" d="M 64.883842 410.132294 L 65.820114 420.899475 " />
<path stroke-linejoin="round" stroke-linecap="round" stroke="rgb(0,0,255)" stroke-width="1.874998" fill="none" d="M 0.000000 750.000000 L 125.000015 0.000000 " />
<path stroke-linejoin="round" stroke-linecap="round" stroke="rgb(255,0,0)" stroke-width="3.749996" fill="none" d="M 62.058964 377.646210 L 64.883842 410.132294 " />
<path stroke-linejoin="round" stroke-linecap="round" stroke="rgb(0,0,255)" stroke-width="1.874998" fill="none" d="M 0.000000 750.000000 L 109.615379 0.000000 " />
<path stroke-linejoin="round" stroke-linecap="round" stroke="rgb(255,0,0)" stroke-width="3.749996" fill="none" d="M 59.209763 344.880524 L 62.058964 377.646210 " />
<path stroke-linejoin="round" stroke-linecap="round" stroke="rgb(0,0,255)" stroke-width="1.874998" fill="none" d="M 0.000000 750.000000 L 107.142853 0.000000 " />
<path stroke-linejoin="round" stroke-linecap="round" stroke="rgb(255,0,0)" stroke-width="3.749996" fill="none" d="M 58.704414 339.069092 L 59.209763 344.880524 " />
<path stroke-linejoin="round" stroke-linecap="round" stroke="rgb(0,0,255)" stroke-width="1.874998" fill="none" d="M 0.000000 750.000000 L 96.428589 0.000000 " />
<path stroke-linejoin="round" stroke-linecap="round" stroke="rgb(255,0,0)" stroke-width="3.749996" fill="none" d="M 56.335934 311.831665 L 58.704414 339.069122 " />
<path stroke-linejoin="round" stroke-linecap="round" stroke="rgb(0,0,255)" stroke-width="1.874998" fill="none" d="M 0.000000 750.000000 L 95.000000 0.000000 " />
<path stroke-linejoin="round" stroke-linecap="round" stroke="rgb(255,0,0)" stroke-width="3.749996" fill="none" d="M 55.996208 307.924713 L 56.335934 311.831696 " />
<path stroke-linejoin="round" stroke-linecap="round" stroke="rgb(0,0,255)" stroke-width="1.874998" fill="none" d="M 0.000000 750.000000 L 84.375008 0.000000 " />
<path stroke-linejoin="round" stroke-linecap="round" stroke="rgb(255,0,0)" stroke-width="3.749996" fill="none" d="M 53.265854 276.525696 L 55.996208 307.924713 " />
<path stroke-linejoin="round" stroke-linecap="round" stroke="rgb(0,0,255)" stroke-width="1.874998" fill="none" d="M 0.000000 750.000000 L 74.999992 0.000000 " />
<path stroke-linejoin="round" stroke-linecap="round" stroke="rgb(255,0,0)" stroke-width="3.749996" fill="none" d="M 50.513103 244.869003 L 53.265854 276.525696 " />
<path stroke-linejoin="round" stroke-linecap="round" stroke="rgb(0,0,255)" stroke-width="1.874998" fill="none" d="M 0.000000 750.000000 L 66.666664 0.000000 " />
<path stroke-linejoin="round" stroke-linecap="round" stroke="rgb(255,0,0)" stroke-width="3.749996" fill="none" d="M 47.737644 212.951385 L 50.513103 244.869003 " />
<path stroke-linejoin="round" stroke-linecap="round" stroke="rgb(0,0,255)" stroke-width="1.874998" fill="none" d="M 0.000000 750.000000 L 59.210526 0.000000 " />
<path stroke-linejoin="round" stroke-linecap="round" stroke="rgb(255,0,0)" stroke-width="3.749996" fill="none" d="M 44.939251 180.769623 L 47.737644 212.951385 " />
<path stroke-linejoin="round" stroke-linecap="round" stroke="rgb(0,0,255)" stroke-width="1.874998" fill="none" d="M 0.000000 750.000000 L 53.571426 0.000000 " />
<path stroke-linejoin="round" stroke-linecap="round" stroke="rgb(255,0,0)" stroke-width="3.749996" fill="none" d="M 42.589478 153.747391 L 44.939251 180.769623 " />
<path stroke-linejoin="round" stroke-linecap="round" stroke="rgb(0,0,255)" stroke-width="1.874998" fill="none" d="M 0.000000 750.000000 L 47.727272 0.000000 " />
<path stroke-linejoin="round" stroke-linecap="round" stroke="rgb(255,0,0)" stroke-width="3.749996" fill="none" d="M 39.906666 122.895195 L 42.589478 153.747437 " />
<path stroke-linejoin="round" stroke-linecap="round" stroke="rgb(0,0,255)" stroke-width="1.874998" fill="none" d="M 0.000000 750.000000 L 43.750004 0.000000 " />
<path stroke-linejoin="round" stroke-linecap="round" stroke="rgb(255,0,0)" stroke-width="3.749996" fill="none" d="M 37.916309 100.006073 L 39.906666 122.895195 " />
<path stroke-linejoin="round" stroke-linecap="round" stroke="rgb(0,0,255)" stroke-width="1.874998" fill="none" d="M 0.000000 750.000000 L 40.456429 0.000000 " />
<path stroke-linejoin="round" stroke-linecap="round" stroke="rgb(255,0,0)" stroke-width="3.749996" fill="none" d="M 35.619446 89.670135 L 37.916309 100.006027 " />
<path stroke-linejoin="round" stroke-linecap="round" stroke="rgb(0,0,255)" stroke-width="1.874998" fill="none" d="M 0.000000 750.000000 L 40.123455 0.000000 " />
<path stroke-linejoin="round" stroke-linecap="round" stroke="rgb(255,0,0)" stroke-width="3.749996" fill="none" d="M 35.383163 88.606865 L 35.619446 89.670135 " />
<path stroke-linejoin="round" stroke-linecap="round" stroke="rgb(0,0,255)" stroke-width="1.874998" fill="none" d="M 0.000000 750.000000 L 36.885246 0.000000 " />
<path stroke-linejoin="round" stroke-linecap="round" stroke="rgb(255,0,0)" stroke-width="3.749996" fill="none" d="M 33.044994 78.085098 L 35.383163 88.606865 " />
<path stroke-linejoin="round" stroke-linecap="round" stroke="rgb(0,0,255)" stroke-width="1.874998" fill="none" d="M 0.000000 750.000000 L 36.585377 0.000000 " />
<path stroke-linejoin="round" stroke-linecap="round" stroke="rgb(255,0,0)" stroke-width="3.749996" fill="none" d="M 32.824696 77.093750 L 33.044994 78.085098 " />
<path stroke-linejoin="round" stroke-linecap="round" stroke="rgb(0,0,255)" stroke-width="1.874998" fill="none" d="M 0.000000 750.000000 L 35.714283 0.000000 " />
<path stroke-linejoin="round" stroke-linecap="round" stroke="rgb(255,0,0)" stroke-width="3.749996" fill="none" d="M 32.181076 74.197456 L 32.824696 77.093750 " />
<path stroke-linejoin="round" stroke-linecap="round" stroke="rgb(0,0,255)" stroke-width="1.874998" fill="none" d="M 0.000000 750.000000 L 35.407730 0.000000 " />
<path stroke-linejoin="round" stroke-linecap="round" stroke="rgb(255,0,0)" stroke-width="3.749996" fill="none" d="M 31.953245 73.172226 L 32.181076 74.197456 " />
<path stroke-linejoin="round" stroke-linecap="round" stroke="rgb(0,0,255)" stroke-width="1.874998" fill="none" d="M 0.000000 750.000000 L 32.051281 0.000000 " />
<path stroke-linejoin="round" stroke-linecap="round" stroke="rgb(255,0,0)" stroke-width="3.749996" fill="none" d="M 29.412813 61.740250 L 31.953245 73.172226 " />
<path stroke-linejoin="round" stroke-linecap="round" stroke="rgb(0,0,255)" stroke-width="1.874998" fill="none" d="M 0.000000 750.000000 L 31.779661 0.000000 " />
<path stroke-linejoin="round" stroke-linecap="round" stroke="rgb(255,0,0)" stroke-width="3.749996" fill="none" d="M 29.203466 60.798214 L 29.412813 61.740250 " />
<path stroke-linejoin="round" stroke-linecap="round" stroke="rgb(0,0,255)" stroke-width="1.874998" fill="none" d="M 0.000000 750.000000 L 31.512604 0.000000 " />
<path stroke-linejoin="round" stroke-linecap="round" stroke="rgb(255,0,0)" stroke-width="3.749996" fill="none" d="M 28.997093 59.869453 L 29.203466 60.798214 " />
<path stroke-linejoin="round" stroke-linecap="round" stroke="rgb(0,0,255)" stroke-width="1.874998" fill="none" d="M 0.000000 750.000000 L 31.249992 0.000000 " />
<path stroke-linejoin="round" stroke-linecap="round" stroke="rgb(255,0,0)" stroke-width="3.749996" fill="none" d="M 28.793604 58.953793 L 28.997093 59.869453 " />
<path stroke-linejoin="round" stroke-linecap="round" stroke="rgb(0,0,255)" stroke-width="1.874998" fill="none" d="M 0.000000 750.000000 L 30.991741 0.000000 " />
<path stroke-linejoin="round" stroke-linecap="round" stroke="rgb(255,0,0)" stroke-width="3.749996" fill="none" d="M 28.592930 58.050827 L 28.793604 58.953793 " />
<path stroke-linejoin="round" stroke-linecap="round" stroke="rgb(0,0,255)" stroke-width="1.874998" fill="none" d="M 0.000000 750.000000 L 30.737713 0.000000 " />
<path stroke-linejoin="round" stroke-linecap="round" stroke="rgb(255,0,0)" stroke-width="3.749996" fill="none" d="M 28.395071 57.160378 L 28.592930 58.050827 " />
<path stroke-linejoin="round" stroke-linecap="round" stroke="rgb(0,0,255)" stroke-width="1.874998" fill="none" d="M 0.000000 750.000000 L 27.551025 0.000000 " />
<path stroke-linejoin="round" stroke-linecap="round" stroke="rgb(255,0,0)" stroke-width="3.749996" fill="none" d="M 25.868855 45.792461 L 28.395071 57.160378 " />
<path stroke-linejoin="round" stroke-linecap="round" stroke="rgb(0,0,255)" stroke-width="1.874998" fill="none" d="M 0.000000 750.000000 L 24.390244 0.000000 " />
<path stroke-linejoin="round" stroke-linecap="round" stroke="rgb(255,0,0)" stroke-width="3.749996" fill="none" d="M 23.182131 37.149532 L 25.868855 45.792461 " />
<path stroke-linejoin="round" stroke-linecap="round" stroke="rgb(0,0,255)" stroke-width="1.874998" fill="none" d="M 0.000000 750.000000 L 24.193548 0.000000 " />
<path stroke-linejoin="round" stroke-linecap="round" stroke="rgb(255,0,0)" stroke-width="3.749996" fill="none" d="M 23.018875 36.414921 L 23.182131 37.149532 " />
<path stroke-linejoin="round" stroke-linecap="round" stroke="rgb(0,0,255)" stroke-width="1.874998" fill="none" d="M 0.000000 750.000000 L 24.000004 0.000000 " />
<path stroke-linejoin="round" stroke-linecap="round" stroke="rgb(255,0,0)" stroke-width="3.749996" fill="none" d="M 22.857897 35.690544 L 23.018875 36.414921 " />
<path stroke-linejoin="round" stroke-linecap="round" stroke="rgb(0,0,255)" stroke-width="1.874998" fill="none" d="M 0.000000 750.000000 L 21.604948 0.000000 " />
<path stroke-linejoin="round" stroke-linecap="round" stroke="rgb(255,0,0)" stroke-width="3.749996" fill="none" d="M 20.742931 29.923618 L 22.857897 35.690636 " />
<path stroke-linejoin="round" stroke-linecap="round" stroke="rgb(0,0,255)" stroke-width="1.874998" fill="none" d="M 0.000000 750.000000 L 18.442623 0.000000 " />
<path stroke-linejoin="round" stroke-linecap="round" stroke="rgb(255,0,0)" stroke-width="3.749996" fill="none" d="M 17.838009 24.587900 L 20.742952 29.923529 " />
<path stroke-linejoin="round" stroke-linecap="round" stroke="rgb(0,0,255)" stroke-width="1.874998" fill="none" d="M 0.000000 750.000000 L 18.292688 0.000000 " />
<path stroke-linejoin="round" stroke-linecap="round" stroke="rgb(255,0,0)" stroke-width="3.749996" fill="none" d="M 17.707317 23.999825 L 17.838009 24.587900 " />
<path stroke-linejoin="round" stroke-linecap="round" stroke="rgb(0,0,255)" stroke-width="1.874998" fill="none" d="M 0.000000 750.000000 L 18.145166 0.000000 " />
<path stroke-linejoin="round" stroke-linecap="round" stroke="rgb(255,0,0)" stroke-width="3.749996" fill="none" d="M 17.578550 23.420334 L 17.707317 23.999825 " />
<path stroke-linejoin="round" stroke-linecap="round" stroke="rgb(0,0,255)" stroke-width="1.874998" fill="none" d="M 0.000000 750.000000 L 17.999992 0.000000 " />
<path stroke-linejoin="round" stroke-linecap="round" stroke="rgb(255,0,0)" stroke-width="3.749996" fill="none" d="M 17.451614 22.849201 L 17.578550 23.420334 " />
<path stroke-linejoin="round" stroke-linecap="round" stroke="rgb(0,0,255)" stroke-width="1.874998" fill="none" d="M 0.000000 750.000000 L 17.857141 0.000000 " />
<path stroke-linejoin="round" stroke-linecap="round" stroke="rgb(255,0,0)" stroke-width="3.749996" fill="none" d="M 17.326511 22.286207 L 17.451614 22.849201 " />
<path stroke-linejoin="round" stroke-linecap="round" stroke="rgb(0,0,255)" stroke-width="1.874998" fill="none" d="M 0.000000 750.000000 L 17.716526 0.000000 " />
<path stroke-linejoin="round" stroke-linecap="round" stroke="rgb(255,0,0)" stroke-width="3.749996" fill="none" d="M 17.203197 21.731302 L 17.326511 22.286207 " />
<path stroke-linejoin="round" stroke-linecap="round" stroke="rgb(0,0,255)" stroke-width="1.874998" fill="none" d="M 0.000000 750.000000 L 14.705881 0.000000 " />
<path stroke-linejoin="round" stroke-linecap="round" stroke="rgb(255,0,0)" stroke-width="3.749996" fill="none" d="M 14.358267 17.728016 L 17.203197 21.731302 " />
<path stroke-linejoin="round" stroke-linecap="round" stroke="rgb(0,0,255)" stroke-width="1.874998" fill="none" d="M 0.000000 750.000000 L 11.718750 0.000000 " />
<path stroke-linejoin="round" stroke-linecap="round" stroke="rgb(255,0,0)" stroke-width="3.749996" fill="none" d="M 11.499747 14.015526 L 14.358267 17.728016 " />
<path stroke-linejoin="round" stroke-linecap="round" stroke="rgb(0,0,255)" stroke-width="1.874998" fill="none" d="M 0.000000 750.000000 L 11.627913 0.000000 " />
<path stroke-linejoin="round" stroke-linecap="round" stroke="rgb(255,0,0)" stroke-width="3.749996" fill="none" d="M 11.416420 13.640508 L 11.499747 14.015526 " />
<path stroke-linejoin="round" stroke-linecap="round" stroke="rgb(0,0,255)" stroke-width="1.874998" fill="none" d="M 0.000000 750.000000 L 11.538461 0.000000 " />
<path stroke-linejoin="round" stroke-linecap="round" stroke="rgb(255,0,0)" stroke-width="3.749996" fill="none" d="M 11.334300 13.270945 L 11.416420 13.640508 " />
<path stroke-linejoin="round" stroke-linecap="round" stroke="rgb(0,0,255)" stroke-width="1.874998" fill="none" d="M 0.000000 750.000000 L 11.450373 0.000000 " />
<path stroke-linejoin="round" stroke-linecap="round" stroke="rgb(255,0,0)" stroke-width="3.749996" fill="none" d="M 11.253342 12.906610 L 11.334300 13.270945 " />
<path stroke-linejoin="round" stroke-linecap="round" stroke="rgb(0,0,255)" stroke-width="1.874998" fill="none" d="M 0.000000 750.000000 L 11.363626 0.000000 " />
<path stroke-linejoin="round" stroke-linecap="round" stroke="rgb(255,0,0)" stroke-width="3.749996" fill="none" d="M 11.173524 12.547463 L 11.253342 12.906610 " />
<path stroke-linejoin="round" stroke-linecap="round" stroke="rgb(0,0,255)" stroke-width="1.874998" fill="none" d="M 0.000000 750.000000 L 8.490555 0.000000 " />
<path stroke-linejoin="round" stroke-linecap="round" stroke="rgb(255,0,0)" stroke-width="3.749996" fill="none" d="M 8.384005 9.412989 L 11.173524 12.547463 " />
<path stroke-linejoin="round" stroke-linecap="round" stroke="rgb(0,0,255)" stroke-width="1.874998" fill="none" d="M 0.000000 750.000000 L 5.639099 0.000000 " />
<path stroke-linejoin="round" stroke-linecap="round" stroke="rgb(255,0,0)" stroke-width="3.749996" fill="none" d="M 5.591266 6.362423 L 8.384005 9.412945 " />
<path stroke-linejoin="round" stroke-linecap="round" stroke="rgb(0,0,255)" stroke-width="1.874998" fill="none" d="M 0.000000 750.000000 L 2.808988 0.000000 " />
<path stroke-linejoin="round" stroke-linecap="round" stroke="rgb(255,0,0)" stroke-width="3.749996" fill="none" d="M 2.796359 3.374621 L 5.591266 6.362423 " />
<path stroke-linejoin="round" stroke-linecap="round" stroke="rgb(0,0,255)" stroke-width="1.874998" fill="none" d="M 0.000000 750.000000 L 0.000000 0.000000 " />
<path stroke-linejoin="round" stroke-linecap="round" stroke="rgb(255,0,0)" stroke-width="3.749996" fill="none" d="M 0.000000 0.000000 L 2.796359 3.374621 " />
<circle cx="91.490954" cy="716.114447" r="3.749996" style="fill:rgb(0,127,0);stroke-width:1" /><circle cx="88.516675" cy="681.910247" r="3.749996" style="fill:rgb(0,127,0);stroke-width:1" /><circle cx="86.117059" cy="654.314384" r="3.749996" style="fill:rgb(0,127,0);stroke-width:1" /><circle cx="85.514322" cy="647.382818" r="3.749996" style="fill:rgb(0,127,0);stroke-width:1" /><circle cx="83.294481" cy="621.854648" r="3.749996" style="fill:rgb(0,127,0);stroke-width:1" /><circle cx="82.483426" cy="612.527624" r="3.749996" style="fill:rgb(0,127,0);stroke-width:1" /><circle cx="80.446780" cy="589.106418" r="3.749996" style="fill:rgb(0,127,0);stroke-width:1" /><circle cx="77.573687" cy="556.065761" r="3.749996" style="fill:rgb(0,127,0);stroke-width:1" /><circle cx="74.674822" cy="522.728808" r="3.749996" style="fill:rgb(0,127,0);stroke-width:1" /><circle cx="73.215611" cy="505.947948" r="3.749996" style="fill:rgb(0,127,0);stroke-width:1" /><circle cx="71.749829" cy="489.091493" r="3.749996" style="fill:rgb(0,127,0);stroke-width:1" /><circle cx="68.798393" cy="455.149770" r="3.749996" style="fill:rgb(0,127,0);stroke-width:1" /><circle cx="67.684695" cy="442.342289" r="3.749996" style="fill:rgb(0,127,0);stroke-width:1" /><circle cx="65.820113" cy="420.899481" r="3.749996" style="fill:rgb(0,127,0);stroke-width:1" /><circle cx="64.883843" cy="410.132311" r="3.749996" style="fill:rgb(0,127,0);stroke-width:1" /><circle cx="62.058963" cy="377.646223" r="3.749996" style="fill:rgb(0,127,0);stroke-width:1" /><circle cx="59.209764" cy="344.880536" r="3.749996" style="fill:rgb(0,127,0);stroke-width:1" /><circle cx="58.704413" cy="339.069083" r="3.749996" style="fill:rgb(0,127,0);stroke-width:1" /><circle cx="56.335934" cy="311.831653" r="3.749996" style="fill:rgb(0,127,0);stroke-width:1" /><circle cx="55.996209" cy="307.924703" r="3.749996" style="fill:rgb(0,127,0);stroke-width:1" /><circle cx="53.265855" cy="276.525691" r="3.749996" style="fill:rgb(0,127,0);stroke-width:1" /><circle cx="50.513104" cy="244.869009" r="3.749996" style="fill:rgb(0,127,0);stroke-width:1" /><circle cx="47.737643" cy="212.951392" r="3.749996" style="fill:rgb(0,127,0);stroke-width:1" /><circle cx="44.939250" cy="180.769622" r="3.749996" style="fill:rgb(0,127,0);stroke-width:1" /><circle cx="42.589478" cy="153.747395" r="3.749996" style="fill:rgb(0,127,0);stroke-width:1" /><circle cx="39.906666" cy="122.895196" r="3.749996" style="fill:rgb(0,127,0);stroke-width:1" /><circle cx="37.916310" cy="100.006074" r="3.749996" style="fill:rgb(0,127,0);stroke-width:1" /><circle cx="35.619445" cy="89.670137" r="3.749996" style="fill:rgb(0,127,0);stroke-width:1" /><circle cx="35.383165" cy="88.606864" r="3.749996" style="fill:rgb(0,127,0);stroke-width:1" /><circle cx="33.044994" cy="78.085095" r="3.749996" style="fill:rgb(0,127,0);stroke-width:1" /><circle cx="32.824695" cy="77.093750" r="3.749996" style="fill:rgb(0,127,0);stroke-width:1" /><circle cx="32.181077" cy="74.197456" r="3.749996" style="fill:rgb(0,127,0);stroke-width:1" /><circle cx="31.953245" cy="73.172227" r="3.749996" style="fill:rgb(0,127,0);stroke-width:1" /><circle cx="29.412813" cy="61.740249" r="3.749996" style="fill:rgb(0,127,0);stroke-width:1" /><circle cx="29.203467" cy="60.798213" r="3.749996" style="fill:rgb(0,127,0);stroke-width:1" /><circle cx="28.997093" cy="59.869453" r="3.749996" style="fill:rgb(0,127,0);stroke-width:1" /><circle cx="28.793603" cy="58.953792" r="3.749996" style="fill:rgb(0,127,0);stroke-width:1" /><circle cx="28.592929" cy="58.050826" r="3.749996" style="fill:rgb(0,127,0);stroke-width:1" /><circle cx="28.395072" cy="57.160378" r="3.749996" style="fill:rgb(0,127,0);stroke-width:1" /><circle cx="25.868855" cy="45.792460" r="3.749996" style="fill:rgb(0,127,0);stroke-width:1" /><circle cx="23.182131" cy="37.149534" r="3.749996" style="fill:rgb(0,127,0);stroke-width:1" /><circle cx="23.018874" cy="36.414921" r="3.749996" style="fill:rgb(0,127,0);stroke-width:1" /><circle cx="22.857897" cy="35.690546" r="3.749996" style="fill:rgb(0,127,0);stroke-width:1" /><circle cx="20.742930" cy="29.923618" r="3.749996" style="fill:rgb(0,127,0);stroke-width:1" /><circle cx="17.838009" cy="24.587899" r="3.749996" style="fill:rgb(0,127,0);stroke-width:1" /><circle cx="17.707318" cy="23.999825" r="3.749996" style="fill:rgb(0,127,0);stroke-width:1" /><circle cx="17.578550" cy="23.420334" r="3.749996" style="fill:rgb(0,127,0);stroke-width:1" /><circle cx="17.451614" cy="22.849202" r="3.749996" style="fill:rgb(0,127,0);stroke-width:1" /><circle cx="17.326511" cy="22.286206" r="3.749996" style="fill:rgb(0,127,0);stroke-width:1" /><circle cx="17.203197" cy="21.731302" r="3.749996" style="fill:rgb(0,127,0);stroke-width:1" /><circle cx="14.358267" cy="17.728016" r="3.749996" style="fill:rgb(0,127,0);stroke-width:1" /><circle cx="11.499748" cy="14.015526" r="3.749996" style="fill:rgb(0,127,0);stroke-width:1" /><circle cx="11.416420" cy="13.640508" r="3.749996" style="fill:rgb(0,127,0);stroke-width:1" /><circle cx="11.334300" cy="13.270944" r="3.749996" style="fill:rgb(0,127,0);stroke-width:1" /><circle cx="11.253342" cy="12.906611" r="3.749996" style="fill:rgb(0,127,0);stroke-width:1" /><circle cx="11.173524" cy="12.547463" r="3.749996" style="fill:rgb(0,127,0);stroke-width:1" /><circle cx="8.384004" cy="9.412989" r="3.749996" style="fill:rgb(0,127,0);stroke-width:1" /><circle cx="5.591266" cy="6.362423" r="3.749996" style="fill:rgb(0,127,0);stroke-width:1" /><circle cx="2.796337" cy="3.374621" r="3.750008" style="fill:rgb(0,127,0);stroke-width:1" /><circle cx="750.000000" cy="750.000000" r="3.749996" style="fill:rgb(0,127,0);stroke-width:1" /><path stroke-linejoin="round" stroke-linecap="round" stroke="rgb(255,255,255)" stroke-width="3.749996" fill="none" d="M 0.000000 750.000000 L 750.000000 750.000000 M 0.000000 750.000000 L 0.000000 0.000000 " />

</svg>