<svg xmlns="http://www.w3.org/2000/svg" version="1.1" width = "750" height = "750" viewBox = "0 0 750 750"  shape-rendering="crispEdges">
<path stroke-linejoin="round" stroke-linecap="round" stroke="rgb(255,255,0)" stroke-width="3.749996" fill="none" d="M 93.750000 750.000000 L 0.000000 0.000000 " />
<path stroke-linejoin="round" stroke-linecap="round" stroke="rgb(63,63,63)" stroke-width="3.749996" fill="none" d="M 0.000000 0.000000 L 750.000000 750.000000 M 93.750000 750.000000 L 43.750004 0.000000 " />
<path stroke-linejoin="round" stroke-linecap="round" stroke="rgb(191,191,191)" stroke-width="3.749996" fill="none" d="M 0.000000 656.250000 L 93.750000 750.000000 M 0.000000 0.000000 L 49.999996 750.000000 " />
<path stroke-linejoin="round" stroke-linecap="round" stroke="rgb(0,0,255)" stroke-width="1.874998" fill="none" d="M 0.000000 750.000000 L 750.000000 552.631592 " />
<path stroke-linejoin="round" stroke-linecap="round" stroke="rgb(255,0,0)" stroke-width="3.749996" fill="none" d="M 92.133614 725.754333 L 93.750000 750.000000 " />
<path stroke-linejoin="round" stroke-linecap="round" stroke="rgb(0,0,255)" stroke-width="1.874998" fill="none" d="M 0.000000 750.000000 L 750.000000 344.594604 " />
<path stroke-linejoin="round" stroke-linecap="round" stroke="rgb(255,0,0)" stroke-width="3.749996" fill="none" d="M 90.011093 701.345337 L 92.133614 725.754333 " />
<path stroke-linejoin="round" stroke-linecap="round" stroke="rgb(0,0,255)" stroke-width="1.874998" fill="none" d="M 0.000000 750.000000 L 750.000000 125.000015 " />
<path stroke-linejoin="round" stroke-linecap="round" stroke="rgb(255,0,0)" stroke-width="3.749996" fill="none" d="M 87.874245 676.771484 L 90.011093 701.345337 " />
<path stroke-linejoin="round" stroke-linecap="round" stroke="rgb(0,0,255)" stroke-width="1.874998" fill="none" d="M 0.000000 750.000000 L 656.249939 0.000000 " />
<path stroke-linejoin="round" stroke-linecap="round" stroke="rgb(255,0,0)" stroke-width="3.749996" fill="none" d="M 85.722885 652.030945 L 87.874245 676.771484 " />
<path stroke-linejoin="round" stroke-linecap="round" stroke="rgb(0,0,255)" stroke-width="1.874998" fill="none" d="M 0.000000 750.000000 L 510.000000 0.000000 " />
<path stroke-linejoin="round" stroke-linecap="round" stroke="rgb(255,0,0)" stroke-width="3.749996" fill="none" d="M 83.556915 627.122192 L 85.722885 652.030945 " />
<path stroke-linejoin="round" stroke-linecap="round" stroke="rgb(0,0,255)" stroke-width="1.874998" fill="none" d="M 0.000000 750.000000 L 412.500000 0.000000 " />
<path stroke-linejoin="round" stroke-linecap="round" stroke="rgb(255,0,0)" stroke-width="3.749996" fill="none" d="M 81.376144 602.043335 L 83.556915 627.122192 " />
<path stroke-linejoin="round" stroke-linecap="round" stroke="rgb(0,0,255)" stroke-width="1.874998" fill="none" d="M 0.000000 750.000000 L 364.285706 0.000000 " />
<path stroke-linejoin="round" stroke-linecap="round" stroke="rgb(255,0,0)" stroke-width="3.749996" fill="none" d="M 79.931885 585.434387 L 81.376144 602.043335 " />
<path stroke-linejoin="round" stroke-linecap="round" stroke="rgb(0,0,255)" stroke-width="1.874998" fill="none" d="M 0.000000 750.000000 L 342.857147 0.000000 " />
<path stroke-linejoin="round" stroke-linecap="round" stroke="rgb(255,0,0)" stroke-width="3.749996" fill="none" d="M 79.180443 576.792786 L 79.931885 585.434387 " />
<path stroke-linejoin="round" stroke-linecap="round" stroke="rgb(0,0,255)" stroke-width="1.874998" fill="none" d="M 0.000000 750.000000 L 290.625000 0.000000 " />
<path stroke-linejoin="round" stroke-linecap="round" stroke="rgb(255,0,0)" stroke-width="3.749996" fill="none" d="M 76.969650 551.368652 L 79.180443 576.792786 " />
<path stroke-linejoin="round" stroke-linecap="round" stroke="rgb(0,0,255)" stroke-width="1.874998" fill="none" d="M 0.000000 750.000000 L 250.000000 0.000000 " />
<path stroke-linejoin="round" stroke-linecap="round" stroke="rgb(255,0,0)" stroke-width="3.749996" fill="none" d="M 74.743599 525.769165 L 76.969650 551.368652 " />
<path stroke-linejoin="round" stroke-linecap="round" stroke="rgb(0,0,255)" stroke-width="1.874998" fill="none" d="M 0.000000 750.000000 L 217.500000 0.000000 " />
<path stroke-linejoin="round" stroke-linecap="round" stroke="rgb(255,0,0)" stroke-width="3.749996" fill="none" d="M 72.502167 499.992554 L 74.743599 525.769165 " />
<path stroke-linejoin="round" stroke-linecap="round" stroke="rgb(0,0,255)" stroke-width="1.874998" fill="none" d="M 0.000000 750.000000 L 190.909088 0.000000 " />
<path stroke-linejoin="round" stroke-linecap="round" stroke="rgb(255,0,0)" stroke-width="3.749996" fill="none" d="M 70.245155 474.036896 L 72.502167 499.992493 " />
<path stroke-linejoin="round" stroke-linecap="round" stroke="rgb(0,0,255)" stroke-width="1.874998" fill="none" d="M 0.000000 750.000000 L 168.750000 0.000000 " />
<path stroke-linejoin="round" stroke-linecap="round" stroke="rgb(255,0,0)" stroke-width="3.749996" fill="none" d="M 67.972404 447.900391 L 70.245155 474.036896 " />
<path stroke-linejoin="round" stroke-linecap="round" stroke="rgb(0,0,255)" stroke-width="1.874998" fill="none" d="M 0.000000 750.000000 L 161.538452 0.000000 " />
<path stroke-linejoin="round" stroke-linecap="round" stroke="rgb(255,0,0)" stroke-width="3.749996" fill="none" d="M 67.136963 438.292725 L 67.972404 447.900391 " />
<path stroke-linejoin="round" stroke-linecap="round" stroke="rgb(0,0,255)" stroke-width="1.874998" fill="none" d="M 0.000000 750.000000 L 149.999985 0.000000 " />
<path stroke-linejoin="round" stroke-linecap="round" stroke="rgb(255,0,0)" stroke-width="3.749996" fill="none" d="M 65.683769 421.581116 L 67.136963 438.292725 " />
<path stroke-linejoin="round" stroke-linecap="round" stroke="rgb(0,0,255)" stroke-width="1.874998" fill="none" d="M 0.000000 750.000000 L 133.928574 0.000000 " />
<path stroke-linejoin="round" stroke-linecap="round" stroke="rgb(255,0,0)" stroke-width="3.749996" fill="none" d="M 63.379078 395.077148 L 65.683769 421.581116 " />
<path stroke-linejoin="round" stroke-linecap="round" stroke="rgb(0,0,255)" stroke-width="1.874998" fill="none" d="M 0.000000 750.000000 L 120.000000 0.000000 " />
<path stroke-linejoin="round" stroke-linecap="round" stroke="rgb(255,0,0)" stroke-width="3.749996" fill="none" d="M 61.058163 368.386536 L 63.379078 395.077148 " />
<path stroke-linejoin="round" stroke-linecap="round" stroke="rgb(0,0,255)" stroke-width="1.874998" fill="none" d="M 0.000000 750.000000 L 107.812508 0.000000 " />
<path stroke-linejoin="round" stroke-linecap="round" stroke="rgb(255,0,0)" stroke-width="3.749996" fill="none" d="M 58.720840 341.507263 L 61.058163 368.386536 " />
<path stroke-linejoin="round" stroke-linecap="round" stroke="rgb(0,0,255)" stroke-width="1.874998" fill="none" d="M 0.000000 750.000000 L 105.882347 0.000000 " />
<path stroke-linejoin="round" stroke-linecap="round" stroke="rgb(255,0,0)" stroke-width="3.749996" fill="none" d="M 58.320122 336.899078 L 58.720840 341.507263 " />
<path stroke-linejoin="round" stroke-linecap="round" stroke="rgb(0,0,255)" stroke-width="1.874998" fill="none" d="M 0.000000 750.000000 L 95.833313 0.000000 " />
<path stroke-linejoin="round" stroke-linecap="round" stroke="rgb(255,0,0)" stroke-width="3.749996" fill="none" d="M 56.078732 311.123047 L 58.320122 336.899078 " />
<path stroke-linejoin="round" stroke-linecap="round" stroke="rgb(0,0,255)" stroke-width="1.874998" fill="none" d="M 0.000000 750.000000 L 94.736832 0.000000 " />
<path stroke-linejoin="round" stroke-linecap="round" stroke="rgb(255,0,0)" stroke-width="3.749996" fill="none" d="M 55.817104 308.114563 L 56.078709 311.123108 " />
<path stroke-linejoin="round" stroke-linecap="round" stroke="rgb(0,0,255)" stroke-width="1.874998" fill="none" d="M 0.000000 750.000000 L 86.250008 0.000000 " />
<path stroke-linejoin="round" stroke-linecap="round" stroke="rgb(255,0,0)" stroke-width="3.749996" fill="none" d="M 53.664139 283.355347 L 55.817104 308.114563 " />
<path stroke-linejoin="round" stroke-linecap="round" stroke="rgb(0,0,255)" stroke-width="1.874998" fill="none" d="M 0.000000 750.000000 L 85.714279 0.000000 " />
<path stroke-linejoin="round" stroke-linecap="round" stroke="rgb(255,0,0)" stroke-width="3.749996" fill="none" d="M 53.520107 281.699036 L 53.664139 283.355347 " />
<path stroke-linejoin="round" stroke-linecap="round" stroke="rgb(0,0,255)" stroke-width="1.874998" fill="none" d="M 0.000000 750.000000 L 82.089546 0.000000 " />
<path stroke-linejoin="round" stroke-linecap="round" stroke="rgb(255,0,0)" stroke-width="3.749996" fill="none" d="M 52.003696 274.875244 L 53.520107 281.699097 " />
<path stroke-linejoin="round" stroke-linecap="round" stroke="rgb(0,0,255)" stroke-width="1.874998" fill="none" d="M 0.000000 750.000000 L 74.644562 0.000000 " />
<path stroke-linejoin="round" stroke-linecap="round" stroke="rgb(255,0,0)" stroke-width="3.749996" fill="none" d="M 49.804443 249.583878 L 52.003696 274.875244 " />
<path stroke-linejoin="round" stroke-linecap="round" stroke="rgb(0,0,255)" stroke-width="1.874998" fill="none" d="M 0.000000 750.000000 L 71.770325 0.000000 " />
<path stroke-linejoin="round" stroke-linecap="round" stroke="rgb(255,0,0)" stroke-width="3.749996" fill="none" d="M 48.463963 243.551636 L 49.804462 249.583847 " />
<path stroke-linejoin="round" stroke-linecap="round" stroke="rgb(0,0,255)" stroke-width="1.874998" fill="none" d="M 0.000000 750.000000 L 67.857140 0.000000 " />
<path stroke-linejoin="round" stroke-linecap="round" stroke="rgb(255,0,0)" stroke-width="3.749996" fill="none" d="M 46.586082 235.101257 L 48.463963 243.551636 " />
<path stroke-linejoin="round" stroke-linecap="round" stroke="rgb(0,0,255)" stroke-width="1.874998" fill="none" d="M 0.000000 750.000000 L 67.216988 0.000000 " />
<path stroke-linejoin="round" stroke-linecap="round" stroke="rgb(255,0,0)" stroke-width="3.749996" fill="none" d="M 46.272888 233.691971 L 46.586082 235.101303 " />
<path stroke-linejoin="round" stroke-linecap="round" stroke="rgb(0,0,255)" stroke-width="1.874998" fill="none" d="M 0.000000 750.000000 L 66.588791 0.000000 " />
<path stroke-linejoin="round" stroke-linecap="round" stroke="rgb(255,0,0)" stroke-width="3.749996" fill="none" d="M 45.963898 232.301468 L 46.272888 233.692017 " />
<path stroke-linejoin="round" stroke-linecap="round" stroke="rgb(0,0,255)" stroke-width="1.874998" fill="none" d="M 0.000000 750.000000 L 65.668213 0.000000 " />
<path stroke-linejoin="round" stroke-linecap="round" stroke="rgb(255,0,0)" stroke-width="3.749996" fill="none" d="M 45.508057 230.250214 L 45.963898 232.301468 " />
<path stroke-linejoin="round" stroke-linecap="round" stroke="rgb(0,0,255)" stroke-width="1.874998" fill="none" d="M 0.000000 750.000000 L 65.068489 0.000000 " />
<path stroke-linejoin="round" stroke-linecap="round" stroke="rgb(255,0,0)" stroke-width="3.749996" fill="none" d="M 45.209148 228.905167 L 45.508057 230.250214 " />
<path stroke-linejoin="round" stroke-linecap="round" stroke="rgb(0,0,255)" stroke-width="1.874998" fill="none" d="M 0.000000 750.000000 L 61.363621 0.000000 " />
<path stroke-linejoin="round" stroke-linecap="round" stroke="rgb(255,0,0)" stroke-width="3.749996" fill="none" d="M 43.327732 220.438828 L 45.209148 228.905167 " />
<path stroke-linejoin="round" stroke-linecap="round" stroke="rgb(0,0,255)" stroke-width="1.874998" fill="none" d="M 0.000000 750.000000 L 57.692303 0.000000 " />
<path stroke-linejoin="round" stroke-linecap="round" stroke="rgb(255,0,0)" stroke-width="3.749996" fill="none" d="M 41.402065 211.773239 L 43.327732 220.438828 " />
<path stroke-linejoin="round" stroke-linecap="round" stroke="rgb(0,0,255)" stroke-width="1.874998" fill="none" d="M 0.000000 750.000000 L 57.174885 0.000000 " />
<path stroke-linejoin="round" stroke-linecap="round" stroke="rgb(255,0,0)" stroke-width="3.749996" fill="none" d="M 41.125595 210.529037 L 41.402065 211.773193 " />
<path stroke-linejoin="round" stroke-linecap="round" stroke="rgb(0,0,255)" stroke-width="1.874998" fill="none" d="M 0.000000 750.000000 L 56.666672 0.000000 " />
<path stroke-linejoin="round" stroke-linecap="round" stroke="rgb(255,0,0)" stroke-width="3.749996" fill="none" d="M 40.852772 209.301437 L 41.125595 210.529037 " />
<path stroke-linejoin="round" stroke-linecap="round" stroke="rgb(0,0,255)" stroke-width="1.874998" fill="none" d="M 0.000000 750.000000 L 53.097343 0.000000 " />
<path stroke-linejoin="round" stroke-linecap="round" stroke="rgb(255,0,0)" stroke-width="3.749996" fill="none" d="M 38.901260 200.519623 L 40.852772 209.301437 " />
<path stroke-linejoin="round" stroke-linecap="round" stroke="rgb(0,0,255)" stroke-width="1.874998" fill="none" d="M 0.000000 750.000000 L 49.559467 0.000000 " />
<path stroke-linejoin="round" stroke-linecap="round" stroke="rgb(255,0,0)" stroke-width="3.749996" fill="none" d="M 36.903374 191.529083 L 38.901260 200.519623 " />
<path stroke-linejoin="round" stroke-linecap="round" stroke="rgb(0,0,255)" stroke-width="1.874998" fill="none" d="M 0.000000 750.000000 L 49.126625 0.000000 " />
<path stroke-linejoin="round" stroke-linecap="round" stroke="rgb(255,0,0)" stroke-width="3.749996" fill="none" d="M 36.654442 190.408905 L 36.903374 191.529083 " />
<path stroke-linejoin="round" stroke-linecap="round" stroke="rgb(0,0,255)" stroke-width="1.874998" fill="none" d="M 0.000000 750.000000 L 48.701294 0.000000 " />
<path stroke-linejoin="round" stroke-linecap="round" stroke="rgb(255,0,0)" stroke-width="3.749996" fill="none" d="M 36.408840 189.303787 L 36.654442 190.408905 " />
<path stroke-linejoin="round" stroke-linecap="round" stroke="rgb(0,0,255)" stroke-width="1.874998" fill="none" d="M 0.000000 750.000000 L 45.258610 0.000000 " />
<path stroke-linejoin="round" stroke-linecap="round" stroke="rgb(255,0,0)" stroke-width="3.749996" fill="none" d="M 34.384758 180.195358 L 36.408840 189.303787 " />
<path stroke-linejoin="round" stroke-linecap="round" stroke="rgb(0,0,255)" stroke-width="1.874998" fill="none" d="M 0.000000 750.000000 L 41.845501 0.000000 " />
<path stroke-linejoin="round" stroke-linecap="round" stroke="rgb(255,0,0)" stroke-width="3.749996" fill="none" d="M 32.312080 170.868240 L 34.384758 180.195358 " />
<path stroke-linejoin="round" stroke-linecap="round" stroke="rgb(0,0,255)" stroke-width="1.874998" fill="none" d="M 0.000000 750.000000 L 41.489368 0.000000 " />
<path stroke-linejoin="round" stroke-linecap="round" stroke="rgb(255,0,0)" stroke-width="3.749996" fill="none" d="M 32.091892 169.877441 L 32.312080 170.868240 " />
<path stroke-linejoin="round" stroke-linecap="round" stroke="rgb(0,0,255)" stroke-width="1.874998" fill="none" d="M 0.000000 750.000000 L 41.139229 0.000000 " />
<path stroke-linejoin="round" stroke-linecap="round" stroke="rgb(255,0,0)" stroke-width="3.749996" fill="none" d="M 31.874680 168.899994 L 32.091892 169.877441 " />
<path stroke-linejoin="round" stroke-linecap="round" stroke="rgb(0,0,255)" stroke-width="1.874998" fill="none" d="M 0.000000 750.000000 L 37.815125 0.000000 " />
<path stroke-linejoin="round" stroke-linecap="round" stroke="rgb(255,0,0)" stroke-width="3.749996" fill="none" d="M 29.775448 159.453476 L 31.874680 168.899994 " />
<path stroke-linejoin="round" stroke-linecap="round" stroke="rgb(0,0,255)" stroke-width="1.874998" fill="none" d="M 0.000000 750.000000 L 34.518822 0.000000 " />
<path stroke-linejoin="round" stroke-linecap="round" stroke="rgb(255,0,0)" stroke-width="3.749996" fill="none" d="M 27.625299 149.777771 L 29.775448 159.453476 " />
<path stroke-linejoin="round" stroke-linecap="round" stroke="rgb(0,0,255)" stroke-width="1.874998" fill="none" d="M 0.000000 750.000000 L 34.232365 0.000000 " />
<path stroke-linejoin="round" stroke-linecap="round" stroke="rgb(255,0,0)" stroke-width="3.749996" fill="none" d="M 27.435108 148.921921 L 27.625299 149.777771 " />
<path stroke-linejoin="round" stroke-linecap="round" stroke="rgb(0,0,255)" stroke-width="1.874998" fill="none" d="M 0.000000 750.000000 L 33.950619 0.000000 " />
<path stroke-linejoin="round" stroke-linecap="round" stroke="rgb(255,0,0)" stroke-width="3.749996" fill="none" d="M 27.247511 148.077744 L 27.435108 148.921921 " />
<path stroke-linejoin="round" stroke-linecap="round" stroke="rgb(0,0,255)" stroke-width="1.874998" fill="none" d="M 0.000000 750.000000 L 33.673481 0.000000 " />
<path stroke-linejoin="round" stroke-linecap="round" stroke="rgb(255,0,0)" stroke-width="3.749996" fill="none" d="M 27.062460 147.245056 L 27.247511 148.077744 " />
<path stroke-linejoin="round" stroke-linecap="round" stroke="rgb(0,0,255)" stroke-width="1.874998" fill="none" d="M 0.000000 750.000000 L 33.400810 0.000000 " />
<path stroke-linejoin="round" stroke-linecap="round" stroke="rgb(255,0,0)" stroke-width="3.749996" fill="none" d="M 26.879913 146.423630 L 27.062460 147.245056 " />
<path stroke-linejoin="round" stroke-linecap="round" stroke="rgb(0,0,255)" stroke-width="1.874998" fill="none" d="M 0.000000 750.000000 L 30.241928 0.000000 " />
<path stroke-linejoin="round" stroke-linecap="round" stroke="rgb(255,0,0)" stroke-width="3.749996" fill="none" d="M 24.728180 136.740891 L 26.879913 146.423660 " />
<path stroke-linejoin="round" stroke-linecap="round" stroke="rgb(0,0,255)" stroke-width="1.874998" fill="none" d="M 0.000000 750.000000 L 27.108438 0.000000 " />
<path stroke-linejoin="round" stroke-linecap="round" stroke="rgb(255,0,0)" stroke-width="3.749996" fill="none" d="M 22.524431 126.823914 L 24.728180 136.740891 " />
<path stroke-linejoin="round" stroke-linecap="round" stroke="rgb(0,0,255)" stroke-width="1.874998" fill="none" d="M 0.000000 750.000000 L 24.000004 0.000000 " />
<path stroke-linejoin="round" stroke-linecap="round" stroke="rgb(255,0,0)" stroke-width="3.749996" fill="none" d="M 20.266748 116.664291 L 22.524431 126.823830 " />
<path stroke-linejoin="round" stroke-linecap="round" stroke="rgb(0,0,255)" stroke-width="1.874998" fill="none" d="M 0.000000 750.000000 L 20.916336 0.000000 " />
<path stroke-linejoin="round" stroke-linecap="round" stroke="rgb(255,0,0)" stroke-width="3.749996" fill="none" d="M 17.953098 106.252892 L 20.266748 116.664291 " />
<path stroke-linejoin="round" stroke-linecap="round" stroke="rgb(0,0,255)" stroke-width="1.874998" fill="none" d="M 0.000000 750.000000 L 20.750999 0.000000 " />
<path stroke-linejoin="round" stroke-linecap="round" stroke="rgb(255,0,0)" stroke-width="3.749996" fill="none" d="M 17.826900 105.684982 L 17.953098 106.252892 " />
<path stroke-linejoin="round" stroke-linecap="round" stroke="rgb(0,0,255)" stroke-width="1.874998" fill="none" d="M 0.000000 750.000000 L 20.588234 0.000000 " />
<path stroke-linejoin="round" stroke-linecap="round" stroke="rgb(255,0,0)" stroke-width="3.749996" fill="none" d="M 17.702446 105.124977 L 17.826900 105.684982 " />
<path stroke-linejoin="round" stroke-linecap="round" stroke="rgb(0,0,255)" stroke-width="1.874998" fill="none" d="M 0.000000 750.000000 L 20.428017 0.000000 " />
<path stroke-linejoin="round" stroke-linecap="round" stroke="rgb(255,0,0)" stroke-width="3.749996" fill="none" d="M 17.579735 104.572762 L 17.702446 105.124977 " />
<path stroke-linejoin="round" stroke-linecap="round" stroke="rgb(0,0,255)" stroke-width="1.874998" fill="none" d="M 0.000000 750.000000 L 20.270281 0.000000 " />
<path stroke-linejoin="round" stroke-linecap="round" stroke="rgb(255,0,0)" stroke-width="3.749996" fill="none" d="M 17.458700 104.028046 L 17.579735 104.572762 " />
<path stroke-linejoin="round" stroke-linecap="round" stroke="rgb(0,0,255)" stroke-width="1.874998" fill="none" d="M 0.000000 750.000000 L 20.114937 0.000000 " />
<path stroke-linejoin="round" stroke-linecap="round" stroke="rgb(255,0,0)" stroke-width="3.749996" fill="none" d="M 17.339319 103.490936 L 17.458700 104.028046 " />
<path stroke-linejoin="round" stroke-linecap="round" stroke="rgb(0,0,255)" stroke-width="1.874998" fill="none" d="M 0.000000 750.000000 L 19.961983 0.000000 " />
<path stroke-linejoin="round" stroke-linecap="round" stroke="rgb(255,0,0)" stroke-width="3.749996" fill="none" d="M 17.221569 102.960976 L 17.339319 103.490936 " />
<path stroke-linejoin="round" stroke-linecap="round" stroke="rgb(0,0,255)" stroke-width="1.874998" fill="none" d="M 0.000000 750.000000 L 17.175570 0.000000 " />
<path stroke-linejoin="round" stroke-linecap="round" stroke="rgb(255,0,0)" stroke-width="3.749996" fill="none" d="M 15.042275 93.154144 L 17.221569 102.960976 " />
<path stroke-linejoin="round" stroke-linecap="round" stroke="rgb(0,0,255)" stroke-width="1.874998" fill="none" d="M 0.000000 750.000000 L 17.045460 0.000000 " />
<path stroke-linejoin="round" stroke-linecap="round" stroke="rgb(255,0,0)" stroke-width="3.749996" fill="none" d="M 14.938898 92.688919 L 15.042275 93.154144 " />
<path stroke-linejoin="round" stroke-linecap="round" stroke="rgb(0,0,255)" stroke-width="1.874998" fill="none" d="M 0.000000 750.000000 L 16.917295 0.000000 " />
<path stroke-linejoin="round" stroke-linecap="round" stroke="rgb(255,0,0)" stroke-width="3.749996" fill="none" d="M 14.836907 92.230080 L 14.938898 92.688919 " />
<path stroke-linejoin="round" stroke-linecap="round" stroke="rgb(0,0,255)" stroke-width="1.874998" fill="none" d="M 0.000000 750.000000 L 16.791054 0.000000 " />
<path stroke-linejoin="round" stroke-linecap="round" stroke="rgb(255,0,0)" stroke-width="3.749996" fill="none" d="M 14.736324 91.777412 L 14.836907 92.230080 " />
<path stroke-linejoin="round" stroke-linecap="round" stroke="rgb(0,0,255)" stroke-width="1.874998" fill="none" d="M 0.000000 750.000000 L 13.940514 0.000000 " />
<path stroke-linejoin="round" stroke-linecap="round" stroke="rgb(255,0,0)" stroke-width="3.749996" fill="none" d="M 12.427725 81.388634 L 14.736324 91.777412 " />
<path stroke-linejoin="round" stroke-linecap="round" stroke="rgb(0,0,255)" stroke-width="1.874998" fill="none" d="M 0.000000 750.000000 L 11.111118 0.000000 " />
<path stroke-linejoin="round" stroke-linecap="round" stroke="rgb(255,0,0)" stroke-width="3.749996" fill="none" d="M 10.063000 70.747421 L 12.427725 81.388634 " />
<path stroke-linejoin="round" stroke-linecap="round" stroke="rgb(0,0,255)" stroke-width="1.874998" fill="none" d="M 0.000000 750.000000 L 11.029423 0.000000 " />
<path stroke-linejoin="round" stroke-linecap="round" stroke="rgb(255,0,0)" stroke-width="3.749996" fill="none" d="M 9.993598 70.435165 L 10.063000 70.747421 " />
<path stroke-linejoin="round" stroke-linecap="round" stroke="rgb(0,0,255)" stroke-width="1.874998" fill="none" d="M 0.000000 750.000000 L 10.948912 0.000000 " />
<path stroke-linejoin="round" stroke-linecap="round" stroke="rgb(255,0,0)" stroke-width="3.749996" fill="none" d="M 9.925157 70.127159 L 9.993598 70.435165 " />
<path stroke-linejoin="round" stroke-linecap="round" stroke="rgb(0,0,255)" stroke-width="1.874998" fill="none" d="M 0.000000 750.000000 L 10.869562 0.000000 " />
<path stroke-linejoin="round" stroke-linecap="round" stroke="rgb(255,0,0)" stroke-width="3.749996" fill="none" d="M 9.857633 69.823311 L 9.925157 70.127205 " />
<path stroke-linejoin="round" stroke-linecap="round" stroke="rgb(0,0,255)" stroke-width="1.874998" fill="none" d="M 0.000000 750.000000 L 10.791376 0.000000 " />
<path stroke-linejoin="round" stroke-linecap="round" stroke="rgb(255,0,0)" stroke-width="3.749996" fill="none" d="M 9.791024 69.523529 L 9.857633 69.823265 " />
<path stroke-linejoin="round" stroke-linecap="round" stroke="rgb(0,0,255)" stroke-width="1.874998" fill="none" d="M 0.000000 750.000000 L 10.714285 0.000000 " />
<path stroke-linejoin="round" stroke-linecap="round" stroke="rgb(255,0,0)" stroke-width="3.749996" fill="none" d="M 9.725310 69.227859 L 9.791024 69.523529 " />
<path stroke-linejoin="round" stroke-linecap="round" stroke="rgb(0,0,255)" stroke-width="1.874998" fill="none" d="M 0.000000 750.000000 L 10.638289 0.000000 " />
<path stroke-linejoin="round" stroke-linecap="round" stroke="rgb(255,0,0)" stroke-width="3.749996" fill="none" d="M 9.660490 68.936127 L 9.725310 69.227859 " />
<path stroke-linejoin="round" stroke-linecap="round" stroke="rgb(0,0,255)" stroke-width="1.874998" fill="none" d="M 0.000000 750.000000 L 10.563389 0.000000 " />
<path stroke-linejoin="round" stroke-linecap="round" stroke="rgb(255,0,0)" stroke-width="3.749996" fill="none" d="M 9.596497 68.648186 L 9.660490 68.936127 " />
<path stroke-linejoin="round" stroke-linecap="round" stroke="rgb(0,0,255)" stroke-width="1.874998" fill="none" d="M 0.000000 750.000000 L 8.064508 0.000000 " />
<path stroke-linejoin="round" stroke-linecap="round" stroke="rgb(255,0,0)" stroke-width="3.749996" fill="none" d="M 7.431149 58.904083 L 9.596497 68.648186 " />
<path stroke-linejoin="round" stroke-linecap="round" stroke="rgb(0,0,255)" stroke-width="1.874998" fill="none" d="M 0.000000 750.000000 L 5.357154 0.000000 " />
<path stroke-linejoin="round" stroke-linecap="round" stroke="rgb(255,0,0)" stroke-width="3.749996" fill="none" d="M 5.014099 48.027321 L 7.431149 58.904083 " />
<path stroke-linejoin="round" stroke-linecap="round" stroke="rgb(0,0,255)" stroke-width="1.874998" fill="none" d="M 0.000000 750.000000 L 2.669044 0.000000 " />
<path stroke-linejoin="round" stroke-linecap="round" stroke="rgb(255,0,0)" stroke-width="3.749996" fill="none" d="M 2.557397 31.370848 L 5.014099 48.027275 " />
<path stroke-linejoin="round" stroke-linecap="round" stroke="rgb(0,0,255)" stroke-width="1.874998" fill="none" d="M 0.000000 750.000000 L 0.000000 0.000000 " />
<path stroke-linejoin="round" stroke-linecap="round" stroke="rgb(255,0,0)" stroke-width="3.749996" fill="none" d="M 0.000000 0.000000 L 2.557397 31.370848 " />
<circle cx="92.133611" cy="725.754306" r="3.749996" style="fill:rgb(0,127,0);stroke-width:1" /><circle cx="90.011090" cy="701.345354" r="3.749996" style="fill:rgb(0,127,0);stroke-width:1" /><circle cx="87.874241" cy="676.771469" r="3.749996" style="fill:rgb(0,127,0);stroke-width:1" /><circle cx="85.722886" cy="652.030975" r="3.749996" style="fill:rgb(0,127,0);stroke-width:1" /><circle cx="83.556913" cy="627.122194" r="3.749996" style="fill:rgb(0,127,0);stroke-width:1" /><circle cx="81.376143" cy="602.043383" r="3.749996" style="fill:rgb(0,127,0);stroke-width:1" /><circle cx="79.931885" cy="585.434362" r="3.749996" style="fill:rgb(0,127,0);stroke-width:1" /><circle cx="79.180442" cy="576.792777" r="3.749996" style="fill:rgb(0,127,0);stroke-width:1" /><circle cx="76.969653" cy="551.368654" r="3.749996" style="fill:rgb(0,127,0);stroke-width:1" /><circle cx="74.743599" cy="525.769159" r="3.749996" style="fill:rgb(0,127,0);stroke-width:1" /><circle cx="72.502166" cy="499.992527" r="3.749996" style="fill:rgb(0,127,0);stroke-width:1" /><circle cx="70.245154" cy="474.036902" r="3.749996" style="fill:rgb(0,127,0);stroke-width:1" /><circle cx="67.972407" cy="447.900385" r="3.749996" style="fill:rgb(0,127,0);stroke-width:1" /><circle cx="67.136966" cy="438.292690" r="3.749996" style="fill:rgb(0,127,0);stroke-width:1" /><circle cx="65.683767" cy="421.581119" r="3.749996" style="fill:rgb(0,127,0);stroke-width:1" /><circle cx="63.379079" cy="395.077139" r="3.749996" style="fill:rgb(0,127,0);stroke-width:1" /><circle cx="61.058164" cy="368.386522" r="3.749996" style="fill:rgb(0,127,0);stroke-width:1" /><circle cx="58.720842" cy="341.507256" r="3.749996" style="fill:rgb(0,127,0);stroke-width:1" /><circle cx="58.320120" cy="336.899087" r="3.749996" style="fill:rgb(0,127,0);stroke-width:1" /><circle cx="56.078732" cy="311.123058" r="3.749996" style="fill:rgb(0,127,0);stroke-width:1" /><circle cx="55.817105" cy="308.114558" r="3.749996" style="fill:rgb(0,127,0);stroke-width:1" /><circle cx="53.664140" cy="283.355355" r="3.749996" style="fill:rgb(0,127,0);stroke-width:1" /><circle cx="53.520106" cy="281.699046" r="3.749996" style="fill:rgb(0,127,0);stroke-width:1" /><circle cx="52.003697" cy="274.875239" r="3.749996" style="fill:rgb(0,127,0);stroke-width:1" /><circle cx="49.804442" cy="249.583885" r="3.749996" style="fill:rgb(0,127,0);stroke-width:1" /><circle cx="48.463963" cy="243.551642" r="3.749996" style="fill:rgb(0,127,0);stroke-width:1" /><circle cx="46.586081" cy="235.101253" r="3.749996" style="fill:rgb(0,127,0);stroke-width:1" /><circle cx="46.272889" cy="233.691975" r="3.749996" style="fill:rgb(0,127,0);stroke-width:1" /><circle cx="45.963898" cy="232.301474" r="3.749996" style="fill:rgb(0,127,0);stroke-width:1" /><circle cx="45.508057" cy="230.250210" r="3.749996" style="fill:rgb(0,127,0);stroke-width:1" /><circle cx="45.209147" cy="228.905171" r="3.749996" style="fill:rgb(0,127,0);stroke-width:1" /><circle cx="43.327734" cy="220.438823" r="3.749996" style="fill:rgb(0,127,0);stroke-width:1" /><circle cx="41.402064" cy="211.773232" r="3.749996" style="fill:rgb(0,127,0);stroke-width:1" /><circle cx="41.125596" cy="210.529044" r="3.749996" style="fill:rgb(0,127,0);stroke-width:1" /><circle cx="40.852770" cy="209.301442" r="3.749996" style="fill:rgb(0,127,0);stroke-width:1" /><circle cx="38.901262" cy="200.519621" r="3.749996" style="fill:rgb(0,127,0);stroke-width:1" /><circle cx="36.903374" cy="191.529080" r="3.749996" style="fill:rgb(0,127,0);stroke-width:1" /><circle cx="36.654443" cy="190.408900" r="3.749996" style="fill:rgb(0,127,0);stroke-width:1" /><circle cx="36.408842" cy="189.303786" r="3.749996" style="fill:rgb(0,127,0);stroke-width:1" /><circle cx="34.384757" cy="180.195361" r="3.749996" style="fill:rgb(0,127,0);stroke-width:1" /><circle cx="32.312080" cy="170.868248" r="3.749996" style="fill:rgb(0,127,0);stroke-width:1" /><circle cx="32.091893" cy="169.877440" r="3.749996" style="fill:rgb(0,127,0);stroke-width:1" /><circle cx="31.874679" cy="168.899998" r="3.749996" style="fill:rgb(0,127,0);stroke-width:1" /><circle cx="29.775448" cy="159.453481" r="3.749996" style="fill:rgb(0,127,0);stroke-width:1" /><circle cx="27.625300" cy="149.777770" r="3.749996" style="fill:rgb(0,127,0);stroke-width:1" /><circle cx="27.435109" cy="148.921922" r="3.749996" style="fill:rgb(0,127,0);stroke-width:1" /><circle cx="27.247511" cy="148.077741" r="3.749996" style="fill:rgb(0,127,0);stroke-width:1" /><circle cx="27.062461" cy="147.245049" r="3.749996" style="fill:rgb(0,127,0);stroke-width:1" /><circle cx="26.879914" cy="146.423623" r="3.749996" style="fill:rgb(0,127,0);stroke-width:1" /><circle cx="24.728179" cy="136.740893" r="3.749996" style="fill:rgb(0,127,0);stroke-width:1" /><circle cx="22.524431" cy="126.823917" r="3.749996" style="fill:rgb(0,127,0);stroke-width:1" /><circle cx="20.266749" cy="116.664290" r="3.749996" style="fill:rgb(0,127,0);stroke-width:1" /><circle cx="17.953098" cy="106.252894" r="3.749996" style="fill:rgb(0,127,0);stroke-width:1" /><circle cx="17.826900" cy="105.684981" r="3.749996" style="fill:rgb(0,127,0);stroke-width:1" /><circle cx="17.702445" cy="105.124980" r="3.749996" style="fill:rgb(0,127,0);stroke-width:1" /><circle cx="17.579734" cy="104.572758" r="3.749996" style="fill:rgb(0,127,0);stroke-width:1" /><circle cx="17.458700" cy="104.028046" r="3.749996" style="fill:rgb(0,127,0);stroke-width:1" /><circle cx="17.339319" cy="103.490934" r="3.749996" style="fill:rgb(0,127,0);stroke-width:1" /><circle cx="17.221570" cy="102.960974" r="3.749996" style="fill:rgb(0,127,0);stroke-width:1" /><circle cx="15.042275" cy="93.154147" r="3.749996" style="fill:rgb(0,127,0);stroke-width:1" /><circle cx="14.938898" cy="92.688918" r="3.749996" style="fill:rgb(0,127,0);stroke-width:1" /><circle cx="14.836907" cy="92.230082" r="3.749996" style="fill:rgb(0,127,0);stroke-width:1" /><circle cx="14.736325" cy="91.777414" r="3.749996" style="fill:rgb(0,127,0);stroke-width:1" /><circle cx="12.427725" cy="81.388637" r="3.749996" style="fill:rgb(0,127,0);stroke-width:1" /><circle cx="10.063000" cy="70.747420" r="3.749996" style="fill:rgb(0,127,0);stroke-width:1" /><circle cx="9.993598" cy="70.435166" r="3.749996" style="fill:rgb(0,127,0);stroke-width:1" /><circle cx="9.925157" cy="70.127159" r="3.749996" style="fill:rgb(0,127,0);stroke-width:1" /><circle cx="9.857632" cy="69.823310" r="3.749996" style="fill:rgb(0,127,0);stroke-width:1" /><circle cx="9.791024" cy="69.523528" r="3.749996" style="fill:rgb(0,127,0);stroke-width:1" /><circle cx="9.725310" cy="69.227859" r="3.749996" style="fill:rgb(0,127,0);stroke-width:1" /><circle cx="9.660490" cy="68.936124" r="3.749996" style="fill:rgb(0,127,0);stroke-width:1" /><circle cx="9.596497" cy="68.648189" r="3.749996" style="fill:rgb(0,127,0);stroke-width:1" /><circle cx="7.431149" cy="58.904082" r="3.749996" style="fill:rgb(0,127,0);stroke-width:1" /><circle cx="5.014099" cy="48.027322" r="3.749996" style="fill:rgb(0,127,0);stroke-width:1" /><circle cx="2.557397" cy="31.370848" r="3.749996" style="fill:rgb(0,127,0);stroke-width:1" /><circle cx="750.000000" cy="750.000000" r="3.749996" style="fill:rgb(0,127,0);stroke-width:1" /><path stroke-linejoin="round" stroke-linecap="round" stroke="rgb(255,255,255)" stroke-width="3.749996" fill="none" d="M 0.000000 750.000000 L 750.000000 750.000000 M 0.000000 750.000000 L 0.000000 0.000000 " />

</svg>