<svg xmlns="http://www.w3.org/2000/svg" version="1.1" width = "750" height = "750" viewBox = "0 0 750 750"  shape-rendering="crispEdges">
<path stroke-linejoin="round" stroke-linecap="round" stroke="rgb(255,255,0)" stroke-width="3.749996" fill="none" d="M 74.999992 750.000000 L 0.000000 0.000000 " />
<path stroke-linejoin="round" stroke-linecap="round" stroke="rgb(63,63,63)" stroke-width="3.749996" fill="none" d="M 0.000000 0.000000 L 750.000000 750.000000 M 74.999992 750.000000 L 35.526306 0.000000 " />
<path stroke-linejoin="round" stroke-linecap="round" stroke="rgb(191,191,191)" stroke-width="3.749996" fill="none" d="M 0.000000 675.000000 L 74.999992 750.000000 M 0.000000 0.000000 L 39.473690 750.000000 " />
<path stroke-linejoin="round" stroke-linecap="round" stroke="rgb(0,0,255)" stroke-width="1.874998" fill="none" d="M 0.000000 750.000000 L 750.000000 547.297302 " />
<path stroke-linejoin="round" stroke-linecap="round" stroke="rgb(255,0,0)" stroke-width="3.749996" fill="none" d="M 73.948097 730.014038 L 74.999992 750.000000 " />
<path stroke-linejoin="round" stroke-linecap="round" stroke="rgb(0,0,255)" stroke-width="1.874998" fill="none" d="M 0.000000 750.000000 L 750.000000 520.833313 " />
<path stroke-linejoin="round" stroke-linecap="round" stroke="rgb(255,0,0)" stroke-width="3.749996" fill="none" d="M 73.812958 727.446045 L 73.948097 730.014038 " />
<path stroke-linejoin="round" stroke-linecap="round" stroke="rgb(0,0,255)" stroke-width="1.874998" fill="none" d="M 0.000000 750.000000 L 750.000000 299.999969 " />
<path stroke-linejoin="round" stroke-linecap="round" stroke="rgb(255,0,0)" stroke-width="3.749996" fill="none" d="M 72.704071 706.377563 L 73.812958 727.446045 " />
<path stroke-linejoin="round" stroke-linecap="round" stroke="rgb(0,0,255)" stroke-width="1.874998" fill="none" d="M 0.000000 750.000000 L 750.000000 66.176491 " />
<path stroke-linejoin="round" stroke-linecap="round" stroke="rgb(255,0,0)" stroke-width="3.749996" fill="none" d="M 71.565742 684.748901 L 72.704071 706.377563 " />
<path stroke-linejoin="round" stroke-linecap="round" stroke="rgb(0,0,255)" stroke-width="1.874998" fill="none" d="M 0.000000 750.000000 L 603.658569 0.000000 " />
<path stroke-linejoin="round" stroke-linecap="round" stroke="rgb(255,0,0)" stroke-width="3.749996" fill="none" d="M 70.396721 662.537415 L 71.565742 684.748901 " />
<path stroke-linejoin="round" stroke-linecap="round" stroke="rgb(0,0,255)" stroke-width="1.874998" fill="none" d="M 0.000000 750.000000 L 571.428589 0.000000 " />
<path stroke-linejoin="round" stroke-linecap="round" stroke="rgb(255,0,0)" stroke-width="3.749996" fill="none" d="M 70.153847 657.923096 L 70.396721 662.537415 " />
<path stroke-linejoin="round" stroke-linecap="round" stroke="rgb(0,0,255)" stroke-width="1.874998" fill="none" d="M 0.000000 750.000000 L 543.750000 0.000000 " />
<path stroke-linejoin="round" stroke-linecap="round" stroke="rgb(255,0,0)" stroke-width="3.749996" fill="none" d="M 68.183968 655.953186 L 70.153847 657.923096 " />
<path stroke-linejoin="round" stroke-linecap="round" stroke="rgb(0,0,255)" stroke-width="1.874998" fill="none" d="M 0.000000 750.000000 L 512.195129 0.000000 " />
<path stroke-linejoin="round" stroke-linecap="round" stroke="rgb(255,0,0)" stroke-width="3.749996" fill="none" d="M 65.832787 653.601990 L 68.183968 655.953186 " />
<path stroke-linejoin="round" stroke-linecap="round" stroke="rgb(0,0,255)" stroke-width="1.874998" fill="none" d="M 0.000000 750.000000 L 482.142853 0.000000 " />
<path stroke-linejoin="round" stroke-linecap="round" stroke="rgb(255,0,0)" stroke-width="3.749996" fill="none" d="M 63.481606 651.250793 L 65.832787 653.601990 " />
<path stroke-linejoin="round" stroke-linecap="round" stroke="rgb(0,0,255)" stroke-width="1.874998" fill="none" d="M 0.000000 750.000000 L 453.488373 0.000000 " />
<path stroke-linejoin="round" stroke-linecap="round" stroke="rgb(255,0,0)" stroke-width="3.749996" fill="none" d="M 61.130428 648.899658 L 63.481606 651.250793 " />
<path stroke-linejoin="round" stroke-linecap="round" stroke="rgb(0,0,255)" stroke-width="1.874998" fill="none" d="M 0.000000 750.000000 L 426.136353 0.000000 " />
<path stroke-linejoin="round" stroke-linecap="round" stroke="rgb(255,0,0)" stroke-width="3.749996" fill="none" d="M 58.779270 646.548523 L 61.130428 648.899658 " />
<path stroke-linejoin="round" stroke-linecap="round" stroke="rgb(0,0,255)" stroke-width="1.874998" fill="none" d="M 0.000000 750.000000 L 400.000031 0.000000 " />
<path stroke-linejoin="round" stroke-linecap="round" stroke="rgb(255,0,0)" stroke-width="3.749996" fill="none" d="M 56.428089 644.197327 L 58.779270 646.548523 " />
<path stroke-linejoin="round" stroke-linecap="round" stroke="rgb(0,0,255)" stroke-width="1.874998" fill="none" d="M 0.000000 750.000000 L 375.000000 0.000000 " />
<path stroke-linejoin="round" stroke-linecap="round" stroke="rgb(255,0,0)" stroke-width="3.749996" fill="none" d="M 54.076912 641.846191 L 56.428089 644.197327 " />
<path stroke-linejoin="round" stroke-linecap="round" stroke="rgb(0,0,255)" stroke-width="1.874998" fill="none" d="M 0.000000 750.000000 L 361.111084 0.000000 " />
<path stroke-linejoin="round" stroke-linecap="round" stroke="rgb(255,0,0)" stroke-width="3.749996" fill="none" d="M 53.879566 638.096252 L 54.076912 641.846191 " />
<path stroke-linejoin="round" stroke-linecap="round" stroke="rgb(0,0,255)" stroke-width="1.874998" fill="none" d="M 0.000000 750.000000 L 359.375000 0.000000 " />
<path stroke-linejoin="round" stroke-linecap="round" stroke="rgb(255,0,0)" stroke-width="3.749996" fill="none" d="M 53.704441 637.921143 L 53.879566 638.096252 " />
<path stroke-linejoin="round" stroke-linecap="round" stroke="rgb(0,0,255)" stroke-width="1.874998" fill="none" d="M 0.000000 750.000000 L 348.214264 0.000000 " />
<path stroke-linejoin="round" stroke-linecap="round" stroke="rgb(255,0,0)" stroke-width="3.749996" fill="none" d="M 53.534611 634.694702 L 53.704441 637.921143 " />
<path stroke-linejoin="round" stroke-linecap="round" stroke="rgb(0,0,255)" stroke-width="1.874998" fill="none" d="M 0.000000 750.000000 L 336.734680 0.000000 " />
<path stroke-linejoin="round" stroke-linecap="round" stroke="rgb(255,0,0)" stroke-width="3.749996" fill="none" d="M 52.316597 633.476685 L 53.534611 634.694702 " />
<path stroke-linejoin="round" stroke-linecap="round" stroke="rgb(0,0,255)" stroke-width="1.874998" fill="none" d="M 0.000000 750.000000 L 315.000000 0.000000 " />
<path stroke-linejoin="round" stroke-linecap="round" stroke="rgb(255,0,0)" stroke-width="3.749996" fill="none" d="M 49.938576 631.098633 L 52.316597 633.476685 " />
<path stroke-linejoin="round" stroke-linecap="round" stroke="rgb(0,0,255)" stroke-width="1.874998" fill="none" d="M 0.000000 750.000000 L 294.117645 0.000000 " />
<path stroke-linejoin="round" stroke-linecap="round" stroke="rgb(255,0,0)" stroke-width="3.749996" fill="none" d="M 47.560551 628.720581 L 49.938576 631.098633 " />
<path stroke-linejoin="round" stroke-linecap="round" stroke="rgb(0,0,255)" stroke-width="1.874998" fill="none" d="M 0.000000 750.000000 L 283.018860 0.000000 " />
<path stroke-linejoin="round" stroke-linecap="round" stroke="rgb(255,0,0)" stroke-width="3.749996" fill="none" d="M 46.257511 627.417603 L 47.560551 628.720581 " />
<path stroke-linejoin="round" stroke-linecap="round" stroke="rgb(0,0,255)" stroke-width="1.874998" fill="none" d="M 0.000000 750.000000 L 263.888916 0.000000 " />
<path stroke-linejoin="round" stroke-linecap="round" stroke="rgb(255,0,0)" stroke-width="3.749996" fill="none" d="M 43.944641 625.104736 L 46.257511 627.417603 " />
<path stroke-linejoin="round" stroke-linecap="round" stroke="rgb(0,0,255)" stroke-width="1.874998" fill="none" d="M 0.000000 750.000000 L 245.454529 0.000000 " />
<path stroke-linejoin="round" stroke-linecap="round" stroke="rgb(255,0,0)" stroke-width="3.749996" fill="none" d="M 41.631775 622.791809 L 43.944641 625.104736 " />
<path stroke-linejoin="round" stroke-linecap="round" stroke="rgb(0,0,255)" stroke-width="1.874998" fill="none" d="M 0.000000 750.000000 L 227.678574 0.000000 " />
<path stroke-linejoin="round" stroke-linecap="round" stroke="rgb(255,0,0)" stroke-width="3.749996" fill="none" d="M 39.318882 620.478943 L 41.631775 622.791809 " />
<path stroke-linejoin="round" stroke-linecap="round" stroke="rgb(0,0,255)" stroke-width="1.874998" fill="none" d="M 0.000000 750.000000 L 210.526321 0.000000 " />
<path stroke-linejoin="round" stroke-linecap="round" stroke="rgb(255,0,0)" stroke-width="3.749996" fill="none" d="M 37.006012 618.166077 L 39.318882 620.478943 " />
<path stroke-linejoin="round" stroke-linecap="round" stroke="rgb(0,0,255)" stroke-width="1.874998" fill="none" d="M 0.000000 750.000000 L 193.965530 0.000000 " />
<path stroke-linejoin="round" stroke-linecap="round" stroke="rgb(255,0,0)" stroke-width="3.749996" fill="none" d="M 34.693146 615.853210 L 37.006012 618.166077 " />
<path stroke-linejoin="round" stroke-linecap="round" stroke="rgb(0,0,255)" stroke-width="1.874998" fill="none" d="M 0.000000 750.000000 L 177.966095 0.000000 " />
<path stroke-linejoin="round" stroke-linecap="round" stroke="rgb(255,0,0)" stroke-width="3.749996" fill="none" d="M 32.380253 613.540283 L 34.693146 615.853210 " />
<path stroke-linejoin="round" stroke-linecap="round" stroke="rgb(0,0,255)" stroke-width="1.874998" fill="none" d="M 0.000000 750.000000 L 162.500000 0.000000 " />
<path stroke-linejoin="round" stroke-linecap="round" stroke="rgb(255,0,0)" stroke-width="3.749996" fill="none" d="M 31.758965 603.420227 L 32.380253 613.540283 " />
<path stroke-linejoin="round" stroke-linecap="round" stroke="rgb(0,0,255)" stroke-width="1.874998" fill="none" d="M 0.000000 750.000000 L 147.540985 0.000000 " />
<path stroke-linejoin="round" stroke-linecap="round" stroke="rgb(255,0,0)" stroke-width="3.749996" fill="none" d="M 31.141876 591.695496 L 31.758965 603.420227 " />
<path stroke-linejoin="round" stroke-linecap="round" stroke="rgb(0,0,255)" stroke-width="1.874998" fill="none" d="M 0.000000 750.000000 L 142.857132 0.000000 " />
<path stroke-linejoin="round" stroke-linecap="round" stroke="rgb(255,0,0)" stroke-width="3.749996" fill="none" d="M 30.927837 587.628906 L 31.141876 591.695496 " />
<path stroke-linejoin="round" stroke-linecap="round" stroke="rgb(0,0,255)" stroke-width="1.874998" fill="none" d="M 0.000000 750.000000 L 128.906250 0.000000 " />
<path stroke-linejoin="round" stroke-linecap="round" stroke="rgb(255,0,0)" stroke-width="3.749996" fill="none" d="M 30.219778 574.175842 L 30.927837 587.628906 " />
<path stroke-linejoin="round" stroke-linecap="round" stroke="rgb(0,0,255)" stroke-width="1.874998" fill="none" d="M 0.000000 750.000000 L 125.000015 0.000000 " />
<path stroke-linejoin="round" stroke-linecap="round" stroke="rgb(255,0,0)" stroke-width="3.749996" fill="none" d="M 29.999994 570.000000 L 30.219778 574.175842 " />
<path stroke-linejoin="round" stroke-linecap="round" stroke="rgb(0,0,255)" stroke-width="1.874998" fill="none" d="M 0.000000 750.000000 L 111.940292 0.000000 " />
<path stroke-linejoin="round" stroke-linecap="round" stroke="rgb(255,0,0)" stroke-width="3.749996" fill="none" d="M 29.182880 554.474731 L 29.999994 570.000000 " />
<path stroke-linejoin="round" stroke-linecap="round" stroke="rgb(0,0,255)" stroke-width="1.874998" fill="none" d="M 0.000000 750.000000 L 108.695648 0.000000 " />
<path stroke-linejoin="round" stroke-linecap="round" stroke="rgb(255,0,0)" stroke-width="3.749996" fill="none" d="M 28.957531 550.193115 L 29.182880 554.474731 " />
<path stroke-linejoin="round" stroke-linecap="round" stroke="rgb(0,0,255)" stroke-width="1.874998" fill="none" d="M 0.000000 750.000000 L 105.633797 0.000000 " />
<path stroke-linejoin="round" stroke-linecap="round" stroke="rgb(255,0,0)" stroke-width="3.749996" fill="none" d="M 28.735622 545.977051 L 28.957531 550.193115 " />
<path stroke-linejoin="round" stroke-linecap="round" stroke="rgb(0,0,255)" stroke-width="1.874998" fill="none" d="M 0.000000 750.000000 L 102.739738 0.000000 " />
<path stroke-linejoin="round" stroke-linecap="round" stroke="rgb(255,0,0)" stroke-width="3.749996" fill="none" d="M 28.517113 541.825134 L 28.735622 545.977051 " />
<path stroke-linejoin="round" stroke-linecap="round" stroke="rgb(0,0,255)" stroke-width="1.874998" fill="none" d="M 0.000000 750.000000 L 99.999992 0.000000 " />
<path stroke-linejoin="round" stroke-linecap="round" stroke="rgb(255,0,0)" stroke-width="3.749996" fill="none" d="M 28.301888 537.735901 L 28.517113 541.825134 " />
<path stroke-linejoin="round" stroke-linecap="round" stroke="rgb(0,0,255)" stroke-width="1.874998" fill="none" d="M 0.000000 750.000000 L 97.402588 0.000000 " />
<path stroke-linejoin="round" stroke-linecap="round" stroke="rgb(255,0,0)" stroke-width="3.749996" fill="none" d="M 28.089882 533.707947 L 28.301888 537.735901 " />
<path stroke-linejoin="round" stroke-linecap="round" stroke="rgb(0,0,255)" stroke-width="1.874998" fill="none" d="M 0.000000 750.000000 L 94.936699 0.000000 " />
<path stroke-linejoin="round" stroke-linecap="round" stroke="rgb(255,0,0)" stroke-width="3.749996" fill="none" d="M 27.881027 529.739807 L 28.089882 533.707947 " />
<path stroke-linejoin="round" stroke-linecap="round" stroke="rgb(0,0,255)" stroke-width="1.874998" fill="none" d="M 0.000000 750.000000 L 92.592583 0.000000 " />
<path stroke-linejoin="round" stroke-linecap="round" stroke="rgb(255,0,0)" stroke-width="3.749996" fill="none" d="M 27.675278 525.830261 L 27.881027 529.739807 " />
<path stroke-linejoin="round" stroke-linecap="round" stroke="rgb(0,0,255)" stroke-width="1.874998" fill="none" d="M 0.000000 750.000000 L 90.361435 0.000000 " />
<path stroke-linejoin="round" stroke-linecap="round" stroke="rgb(255,0,0)" stroke-width="3.749996" fill="none" d="M 27.472527 521.978027 L 27.675278 525.830261 " />
<path stroke-linejoin="round" stroke-linecap="round" stroke="rgb(0,0,255)" stroke-width="1.874998" fill="none" d="M 0.000000 750.000000 L 82.317085 0.000000 " />
<path stroke-linejoin="round" stroke-linecap="round" stroke="rgb(255,0,0)" stroke-width="3.749996" fill="none" d="M 26.679844 506.917023 L 27.472527 521.977966 " />
<path stroke-linejoin="round" stroke-linecap="round" stroke="rgb(0,0,255)" stroke-width="1.874998" fill="none" d="M 0.000000 750.000000 L 72.289154 0.000000 " />
<path stroke-linejoin="round" stroke-linecap="round" stroke="rgb(255,0,0)" stroke-width="3.749996" fill="none" d="M 25.531902 485.106384 L 26.679844 506.917023 " />
<path stroke-linejoin="round" stroke-linecap="round" stroke="rgb(0,0,255)" stroke-width="1.874998" fill="none" d="M 0.000000 750.000000 L 70.588234 0.000000 " />
<path stroke-linejoin="round" stroke-linecap="round" stroke="rgb(255,0,0)" stroke-width="3.749996" fill="none" d="M 25.316454 481.012665 L 25.531902 485.106384 " />
<path stroke-linejoin="round" stroke-linecap="round" stroke="rgb(0,0,255)" stroke-width="1.874998" fill="none" d="M 0.000000 750.000000 L 68.965515 0.000000 " />
<path stroke-linejoin="round" stroke-linecap="round" stroke="rgb(255,0,0)" stroke-width="3.749996" fill="none" d="M 25.104605 476.987457 L 25.316454 481.012665 " />
<path stroke-linejoin="round" stroke-linecap="round" stroke="rgb(0,0,255)" stroke-width="1.874998" fill="none" d="M 0.000000 750.000000 L 67.415733 0.000000 " />
<path stroke-linejoin="round" stroke-linecap="round" stroke="rgb(255,0,0)" stroke-width="3.749996" fill="none" d="M 24.896263 473.029053 L 25.104605 476.987457 " />
<path stroke-linejoin="round" stroke-linecap="round" stroke="rgb(0,0,255)" stroke-width="1.874998" fill="none" d="M 0.000000 750.000000 L 65.934059 0.000000 " />
<path stroke-linejoin="round" stroke-linecap="round" stroke="rgb(255,0,0)" stroke-width="3.749996" fill="none" d="M 24.691366 469.135803 L 24.896263 473.029053 " />
<path stroke-linejoin="round" stroke-linecap="round" stroke="rgb(0,0,255)" stroke-width="1.874998" fill="none" d="M 0.000000 750.000000 L 64.516136 0.000000 " />
<path stroke-linejoin="round" stroke-linecap="round" stroke="rgb(255,0,0)" stroke-width="3.749996" fill="none" d="M 24.489798 465.306122 L 24.691366 469.135803 " />
<path stroke-linejoin="round" stroke-linecap="round" stroke="rgb(0,0,255)" stroke-width="1.874998" fill="none" d="M 0.000000 750.000000 L 63.157887 0.000000 " />
<path stroke-linejoin="round" stroke-linecap="round" stroke="rgb(255,0,0)" stroke-width="3.749996" fill="none" d="M 24.291492 461.538483 L 24.489798 465.306122 " />
<path stroke-linejoin="round" stroke-linecap="round" stroke="rgb(0,0,255)" stroke-width="1.874998" fill="none" d="M 0.000000 750.000000 L 61.855675 0.000000 " />
<path stroke-linejoin="round" stroke-linecap="round" stroke="rgb(255,0,0)" stroke-width="3.749996" fill="none" d="M 24.096384 457.831299 L 24.291492 461.538483 " />
<path stroke-linejoin="round" stroke-linecap="round" stroke="rgb(0,0,255)" stroke-width="1.874998" fill="none" d="M 0.000000 750.000000 L 60.606056 0.000000 " />
<path stroke-linejoin="round" stroke-linecap="round" stroke="rgb(255,0,0)" stroke-width="3.749996" fill="none" d="M 23.904383 454.183289 L 24.096384 457.831299 " />
<path stroke-linejoin="round" stroke-linecap="round" stroke="rgb(0,0,255)" stroke-width="1.874998" fill="none" d="M 0.000000 750.000000 L 59.405945 0.000000 " />
<path stroke-linejoin="round" stroke-linecap="round" stroke="rgb(255,0,0)" stroke-width="3.749996" fill="none" d="M 23.715422 450.592865 L 23.904383 454.183289 " />
<path stroke-linejoin="round" stroke-linecap="round" stroke="rgb(0,0,255)" stroke-width="1.874998" fill="none" d="M 0.000000 750.000000 L 58.252438 0.000000 " />
<path stroke-linejoin="round" stroke-linecap="round" stroke="rgb(255,0,0)" stroke-width="3.749996" fill="none" d="M 23.529411 447.058807 L 23.715422 450.592865 " />
<path stroke-linejoin="round" stroke-linecap="round" stroke="rgb(0,0,255)" stroke-width="1.874998" fill="none" d="M 0.000000 750.000000 L 57.142853 0.000000 " />
<path stroke-linejoin="round" stroke-linecap="round" stroke="rgb(255,0,0)" stroke-width="3.749996" fill="none" d="M 23.346306 443.579803 L 23.529411 447.058807 " />
<path stroke-linejoin="round" stroke-linecap="round" stroke="rgb(0,0,255)" stroke-width="1.874998" fill="none" d="M 0.000000 750.000000 L 56.074753 0.000000 " />
<path stroke-linejoin="round" stroke-linecap="round" stroke="rgb(255,0,0)" stroke-width="3.749996" fill="none" d="M 23.166016 440.154419 L 23.346306 443.579803 " />
<path stroke-linejoin="round" stroke-linecap="round" stroke="rgb(0,0,255)" stroke-width="1.874998" fill="none" d="M 0.000000 750.000000 L 55.045856 0.000000 " />
<path stroke-linejoin="round" stroke-linecap="round" stroke="rgb(255,0,0)" stroke-width="3.749996" fill="none" d="M 22.988499 436.781586 L 23.166016 440.154419 " />
<path stroke-linejoin="round" stroke-linecap="round" stroke="rgb(0,0,255)" stroke-width="1.874998" fill="none" d="M 0.000000 750.000000 L 54.054066 0.000000 " />
<path stroke-linejoin="round" stroke-linecap="round" stroke="rgb(255,0,0)" stroke-width="3.749996" fill="none" d="M 22.813684 433.460083 L 22.988499 436.781586 " />
<path stroke-linejoin="round" stroke-linecap="round" stroke="rgb(0,0,255)" stroke-width="1.874998" fill="none" d="M 0.000000 750.000000 L 53.097343 0.000000 " />
<path stroke-linejoin="round" stroke-linecap="round" stroke="rgb(255,0,0)" stroke-width="3.749996" fill="none" d="M 22.641510 430.188690 L 22.813684 433.460083 " />
<path stroke-linejoin="round" stroke-linecap="round" stroke="rgb(0,0,255)" stroke-width="1.874998" fill="none" d="M 0.000000 750.000000 L 52.173904 0.000000 " />
<path stroke-linejoin="round" stroke-linecap="round" stroke="rgb(255,0,0)" stroke-width="3.749996" fill="none" d="M 22.471905 426.966339 L 22.641510 430.188690 " />
<path stroke-linejoin="round" stroke-linecap="round" stroke="rgb(0,0,255)" stroke-width="1.874998" fill="none" d="M 0.000000 750.000000 L 51.282047 0.000000 " />
<path stroke-linejoin="round" stroke-linecap="round" stroke="rgb(255,0,0)" stroke-width="3.749996" fill="none" d="M 22.304825 423.791809 L 22.471905 426.966339 " />
<path stroke-linejoin="round" stroke-linecap="round" stroke="rgb(0,0,255)" stroke-width="1.874998" fill="none" d="M 0.000000 750.000000 L 44.554443 0.000000 " />
<path stroke-linejoin="round" stroke-linecap="round" stroke="rgb(255,0,0)" stroke-width="3.749996" fill="none" d="M 20.930239 397.674469 L 22.304825 423.791809 " />
<path stroke-linejoin="round" stroke-linecap="round" stroke="rgb(0,0,255)" stroke-width="1.874998" fill="none" d="M 0.000000 750.000000 L 36.764702 0.000000 " />
<path stroke-linejoin="round" stroke-linecap="round" stroke="rgb(255,0,0)" stroke-width="3.749996" fill="none" d="M 19.035526 361.675201 L 20.930216 397.674500 " />
<path stroke-linejoin="round" stroke-linecap="round" stroke="rgb(0,0,255)" stroke-width="1.874998" fill="none" d="M 0.000000 750.000000 L 29.126219 0.000000 " />
<path stroke-linejoin="round" stroke-linecap="round" stroke="rgb(255,0,0)" stroke-width="3.749996" fill="none" d="M 16.759783 318.435852 L 19.035526 361.675201 " />
<path stroke-linejoin="round" stroke-linecap="round" stroke="rgb(0,0,255)" stroke-width="1.874998" fill="none" d="M 0.000000 750.000000 L 28.571426 0.000000 " />
<path stroke-linejoin="round" stroke-linecap="round" stroke="rgb(255,0,0)" stroke-width="3.749996" fill="none" d="M 16.574577 314.917206 L 16.759783 318.435852 " />
<path stroke-linejoin="round" stroke-linecap="round" stroke="rgb(0,0,255)" stroke-width="1.874998" fill="none" d="M 0.000000 750.000000 L 27.522928 0.000000 " />
<path stroke-linejoin="round" stroke-linecap="round" stroke="rgb(255,0,0)" stroke-width="3.749996" fill="none" d="M 16.216211 308.108154 L 16.574577 314.917206 " />
<path stroke-linejoin="round" stroke-linecap="round" stroke="rgb(0,0,255)" stroke-width="1.874998" fill="none" d="M 0.000000 750.000000 L 27.027033 0.000000 " />
<path stroke-linejoin="round" stroke-linecap="round" stroke="rgb(255,0,0)" stroke-width="3.749996" fill="none" d="M 16.042784 304.812927 L 16.216211 308.108154 " />
<path stroke-linejoin="round" stroke-linecap="round" stroke="rgb(0,0,255)" stroke-width="1.874998" fill="none" d="M 0.000000 750.000000 L 25.641024 0.000000 " />
<path stroke-linejoin="round" stroke-linecap="round" stroke="rgb(255,0,0)" stroke-width="3.749996" fill="none" d="M 15.544049 295.336853 L 16.042784 304.812927 " />
<path stroke-linejoin="round" stroke-linecap="round" stroke="rgb(0,0,255)" stroke-width="1.874998" fill="none" d="M 0.000000 750.000000 L 25.210083 0.000000 " />
<path stroke-linejoin="round" stroke-linecap="round" stroke="rgb(255,0,0)" stroke-width="3.749996" fill="none" d="M 15.384615 292.307739 L 15.544049 295.336823 " />
<path stroke-linejoin="round" stroke-linecap="round" stroke="rgb(0,0,255)" stroke-width="1.874998" fill="none" d="M 0.000000 750.000000 L 24.793379 0.000000 " />
<path stroke-linejoin="round" stroke-linecap="round" stroke="rgb(255,0,0)" stroke-width="3.749996" fill="none" d="M 15.228420 289.340179 L 15.384615 292.307739 " />
<path stroke-linejoin="round" stroke-linecap="round" stroke="rgb(0,0,255)" stroke-width="1.874998" fill="none" d="M 0.000000 750.000000 L 24.390244 0.000000 " />
<path stroke-linejoin="round" stroke-linecap="round" stroke="rgb(255,0,0)" stroke-width="3.749996" fill="none" d="M 15.075378 286.432251 L 15.228420 289.340179 " />
<path stroke-linejoin="round" stroke-linecap="round" stroke="rgb(0,0,255)" stroke-width="1.874998" fill="none" d="M 0.000000 750.000000 L 20.089275 0.000000 " />
<path stroke-linejoin="round" stroke-linecap="round" stroke="rgb(255,0,0)" stroke-width="3.749996" fill="none" d="M 13.313614 252.958664 L 15.075378 286.432251 " />
<path stroke-linejoin="round" stroke-linecap="round" stroke="rgb(0,0,255)" stroke-width="1.874998" fill="none" d="M 0.000000 750.000000 L 13.274342 0.000000 " />
<path stroke-linejoin="round" stroke-linecap="round" stroke="rgb(255,0,0)" stroke-width="3.749996" fill="none" d="M 9.933784 188.741791 L 13.313614 252.958664 " />
<path stroke-linejoin="round" stroke-linecap="round" stroke="rgb(0,0,255)" stroke-width="1.874998" fill="none" d="M 0.000000 750.000000 L 6.578945 0.000000 " />
<path stroke-linejoin="round" stroke-linecap="round" stroke="rgb(255,0,0)" stroke-width="3.749996" fill="none" d="M 5.639099 107.142876 L 9.933784 188.741791 " />
<path stroke-linejoin="round" stroke-linecap="round" stroke="rgb(0,0,255)" stroke-width="1.874998" fill="none" d="M 0.000000 750.000000 L 0.000000 0.000000 " />
<path stroke-linejoin="round" stroke-linecap="round" stroke="rgb(255,0,0)" stroke-width="3.749996" fill="none" d="M 0.000000 0.000000 L 5.639099 107.142876 " />
<circle cx="73.948100" cy="730.014034" r="3.749996" style="fill:rgb(0,127,0);stroke-width:1" /><circle cx="73.812962" cy="727.446042" r="3.749996" style="fill:rgb(0,127,0);stroke-width:1" /><circle cx="72.704069" cy="706.377558" r="3.749996" style="fill:rgb(0,127,0);stroke-width:1" /><circle cx="71.565740" cy="684.748895" r="3.749996" style="fill:rgb(0,127,0);stroke-width:1" /><circle cx="70.396721" cy="662.537411" r="3.749996" style="fill:rgb(0,127,0);stroke-width:1" /><circle cx="70.153847" cy="657.923073" r="3.749996" style="fill:rgb(0,127,0);stroke-width:1" /><circle cx="68.183966" cy="655.953147" r="3.749996" style="fill:rgb(0,127,0);stroke-width:1" /><circle cx="65.832786" cy="653.601989" r="3.749996" style="fill:rgb(0,127,0);stroke-width:1" /><circle cx="63.481607" cy="651.250832" r="3.749996" style="fill:rgb(0,127,0);stroke-width:1" /><circle cx="61.130427" cy="648.899674" r="3.749996" style="fill:rgb(0,127,0);stroke-width:1" /><circle cx="58.779269" cy="646.548495" r="3.749996" style="fill:rgb(0,127,0);stroke-width:1" /><circle cx="56.428090" cy="644.197315" r="3.749996" style="fill:rgb(0,127,0);stroke-width:1" /><circle cx="54.076910" cy="641.846158" r="3.749996" style="fill:rgb(0,127,0);stroke-width:1" /><circle cx="53.879566" cy="638.096295" r="3.749996" style="fill:rgb(0,127,0);stroke-width:1" /><circle cx="53.704441" cy="637.921169" r="3.749996" style="fill:rgb(0,127,0);stroke-width:1" /><circle cx="53.534612" cy="634.694673" r="3.749996" style="fill:rgb(0,127,0);stroke-width:1" /><circle cx="52.316599" cy="633.476660" r="3.749996" style="fill:rgb(0,127,0);stroke-width:1" /><circle cx="49.938574" cy="631.098635" r="3.749996" style="fill:rgb(0,127,0);stroke-width:1" /><circle cx="47.560550" cy="628.720611" r="3.749996" style="fill:rgb(0,127,0);stroke-width:1" /><circle cx="46.257511" cy="627.417572" r="3.749996" style="fill:rgb(0,127,0);stroke-width:1" /><circle cx="43.944642" cy="625.104703" r="3.749996" style="fill:rgb(0,127,0);stroke-width:1" /><circle cx="41.631773" cy="622.791812" r="3.749996" style="fill:rgb(0,127,0);stroke-width:1" /><circle cx="39.318882" cy="620.478943" r="3.749996" style="fill:rgb(0,127,0);stroke-width:1" /><circle cx="37.006013" cy="618.166074" r="3.749996" style="fill:rgb(0,127,0);stroke-width:1" /><circle cx="34.693144" cy="615.853205" r="3.749996" style="fill:rgb(0,127,0);stroke-width:1" /><circle cx="32.380253" cy="613.540314" r="3.749996" style="fill:rgb(0,127,0);stroke-width:1" /><circle cx="31.758964" cy="603.420205" r="3.749996" style="fill:rgb(0,127,0);stroke-width:1" /><circle cx="31.141877" cy="591.695510" r="3.749996" style="fill:rgb(0,127,0);stroke-width:1" /><circle cx="30.927837" cy="587.628879" r="3.749996" style="fill:rgb(0,127,0);stroke-width:1" /><circle cx="30.219778" cy="574.175835" r="3.749996" style="fill:rgb(0,127,0);stroke-width:1" /><circle cx="29.999994" cy="570.000015" r="3.749996" style="fill:rgb(0,127,0);stroke-width:1" /><circle cx="29.182881" cy="554.474741" r="3.749996" style="fill:rgb(0,127,0);stroke-width:1" /><circle cx="28.957531" cy="550.193075" r="3.749996" style="fill:rgb(0,127,0);stroke-width:1" /><circle cx="28.735623" cy="545.977056" r="3.749996" style="fill:rgb(0,127,0);stroke-width:1" /><circle cx="28.517112" cy="541.825119" r="3.749996" style="fill:rgb(0,127,0);stroke-width:1" /><circle cx="28.301887" cy="537.735879" r="3.749996" style="fill:rgb(0,127,0);stroke-width:1" /><circle cx="28.089881" cy="533.707917" r="3.749996" style="fill:rgb(0,127,0);stroke-width:1" /><circle cx="27.881026" cy="529.739801" r="3.749996" style="fill:rgb(0,127,0);stroke-width:1" /><circle cx="27.675278" cy="525.830269" r="3.749996" style="fill:rgb(0,127,0);stroke-width:1" /><circle cx="27.472526" cy="521.978024" r="3.749996" style="fill:rgb(0,127,0);stroke-width:1" /><circle cx="26.679844" cy="506.917007" r="3.749996" style="fill:rgb(0,127,0);stroke-width:1" /><circle cx="25.531903" cy="485.106401" r="3.749996" style="fill:rgb(0,127,0);stroke-width:1" /><circle cx="25.316454" cy="481.012668" r="3.749996" style="fill:rgb(0,127,0);stroke-width:1" /><circle cx="25.104605" cy="476.987455" r="3.749996" style="fill:rgb(0,127,0);stroke-width:1" /><circle cx="24.896264" cy="473.029051" r="3.749996" style="fill:rgb(0,127,0);stroke-width:1" /><circle cx="24.691366" cy="469.135813" r="3.749996" style="fill:rgb(0,127,0);stroke-width:1" /><circle cx="24.489798" cy="465.306133" r="3.749996" style="fill:rgb(0,127,0);stroke-width:1" /><circle cx="24.291493" cy="461.538468" r="3.749996" style="fill:rgb(0,127,0);stroke-width:1" /><circle cx="24.096385" cy="457.831319" r="3.749996" style="fill:rgb(0,127,0);stroke-width:1" /><circle cx="23.904383" cy="454.183264" r="3.749996" style="fill:rgb(0,127,0);stroke-width:1" /><circle cx="23.715422" cy="450.592892" r="3.749996" style="fill:rgb(0,127,0);stroke-width:1" /><circle cx="23.529410" cy="447.058797" r="3.749996" style="fill:rgb(0,127,0);stroke-width:1" /><circle cx="23.346305" cy="443.579793" r="3.749996" style="fill:rgb(0,127,0);stroke-width:1" /><circle cx="23.166016" cy="440.154433" r="3.749996" style="fill:rgb(0,127,0);stroke-width:1" /><circle cx="22.988498" cy="436.781611" r="3.749996" style="fill:rgb(0,127,0);stroke-width:1" /><circle cx="22.813685" cy="433.460070" r="3.749996" style="fill:rgb(0,127,0);stroke-width:1" /><circle cx="22.641510" cy="430.188669" r="3.749996" style="fill:rgb(0,127,0);stroke-width:1" /><circle cx="22.471905" cy="426.966336" r="3.749996" style="fill:rgb(0,127,0);stroke-width:1" /><circle cx="22.304825" cy="423.791813" r="3.749996" style="fill:rgb(0,127,0);stroke-width:1" /><circle cx="20.930238" cy="397.674465" r="3.749996" style="fill:rgb(0,127,0);stroke-width:1" /><circle cx="19.035526" cy="361.675180" r="3.749996" style="fill:rgb(0,127,0);stroke-width:1" /><circle cx="16.759783" cy="318.435861" r="3.749996" style="fill:rgb(0,127,0);stroke-width:1" /><circle cx="16.574576" cy="314.917194" r="3.749996" style="fill:rgb(0,127,0);stroke-width:1" /><circle cx="16.216211" cy="308.108177" r="3.749996" style="fill:rgb(0,127,0);stroke-width:1" /><circle cx="16.042784" cy="304.812921" r="3.749996" style="fill:rgb(0,127,0);stroke-width:1" /><circle cx="15.544049" cy="295.336856" r="3.749996" style="fill:rgb(0,127,0);stroke-width:1" /><circle cx="15.384614" cy="292.307748" r="3.749996" style="fill:rgb(0,127,0);stroke-width:1" /><circle cx="15.228420" cy="289.340185" r="3.749996" style="fill:rgb(0,127,0);stroke-width:1" /><circle cx="15.075378" cy="286.432240" r="3.749996" style="fill:rgb(0,127,0);stroke-width:1" /><circle cx="13.313614" cy="252.958663" r="3.749996" style="fill:rgb(0,127,0);stroke-width:1" /><circle cx="9.933785" cy="188.741796" r="3.749996" style="fill:rgb(0,127,0);stroke-width:1" /><circle cx="5.639099" cy="107.142873" r="3.749996" style="fill:rgb(0,127,0);stroke-width:1" /><circle cx="750.000000" cy="750.000000" r="3.749996" style="fill:rgb(0,127,0);stroke-width:1" /><path stroke-linejoin="round" stroke-linecap="round" stroke="rgb(255,255,255)" stroke-width="3.749996" fill="none" d="M 0.000000 750.000000 L 750.000000 750.000000 M 0.000000 750.000000 L 0.000000 0.000000 " />

</svg>