<svg xmlns="http://www.w3.org/2000/svg" version="1.1" width = "750" height = "750" viewBox = "0 0 750 750"  shape-rendering="crispEdges">
<path stroke-linejoin="round" stroke-linecap="round" stroke="rgb(255,255,0)" stroke-width="3.749996" fill="none" d="M 107.142853 750.000000 L 0.000000 0.000000 " />
<path stroke-linejoin="round" stroke-linecap="round" stroke="rgb(63,63,63)" stroke-width="3.749996" fill="none" d="M 0.000000 0.000000 L 750.000000 750.000000 M 107.142853 750.000000 L 49.450546 0.000000 " />
<path stroke-linejoin="round" stroke-linecap="round" stroke="rgb(191,191,191)" stroke-width="3.749996" fill="none" d="M 0.000000 642.857178 L 107.142853 750.000000 M 0.000000 0.000000 L 57.692303 750.000000 " />
<path stroke-linejoin="round" stroke-linecap="round" stroke="rgb(0,0,255)" stroke-width="1.874998" fill="none" d="M 0.000000 750.000000 L 750.000000 731.250000 " />
<path stroke-linejoin="round" stroke-linecap="round" stroke="rgb(255,0,0)" stroke-width="3.749996" fill="none" d="M 106.937218 747.326538 L 107.142853 750.000000 " />
<path stroke-linejoin="round" stroke-linecap="round" stroke="rgb(0,0,255)" stroke-width="1.874998" fill="none" d="M 0.000000 750.000000 L 750.000000 711.538452 " />
<path stroke-linejoin="round" stroke-linecap="round" stroke="rgb(255,0,0)" stroke-width="3.749996" fill="none" d="M 104.263786 744.653137 L 106.937218 747.326538 " />
<path stroke-linejoin="round" stroke-linecap="round" stroke="rgb(0,0,255)" stroke-width="1.874998" fill="none" d="M 0.000000 750.000000 L 750.000000 690.789490 " />
<path stroke-linejoin="round" stroke-linecap="round" stroke="rgb(255,0,0)" stroke-width="3.749996" fill="none" d="M 101.590363 741.979675 L 104.263786 744.653137 " />
<path stroke-linejoin="round" stroke-linecap="round" stroke="rgb(0,0,255)" stroke-width="1.874998" fill="none" d="M 0.000000 750.000000 L 750.000000 668.918945 " />
<path stroke-linejoin="round" stroke-linecap="round" stroke="rgb(255,0,0)" stroke-width="3.749996" fill="none" d="M 98.916939 739.306274 L 101.590363 741.979675 " />
<path stroke-linejoin="round" stroke-linecap="round" stroke="rgb(0,0,255)" stroke-width="1.874998" fill="none" d="M 0.000000 750.000000 L 750.000000 645.833313 " />
<path stroke-linejoin="round" stroke-linecap="round" stroke="rgb(255,0,0)" stroke-width="3.749996" fill="none" d="M 96.243515 736.632874 L 98.916939 739.306274 " />
<path stroke-linejoin="round" stroke-linecap="round" stroke="rgb(0,0,255)" stroke-width="1.874998" fill="none" d="M 0.000000 750.000000 L 750.000000 621.428589 " />
<path stroke-linejoin="round" stroke-linecap="round" stroke="rgb(255,0,0)" stroke-width="3.749996" fill="none" d="M 93.570091 733.959412 L 96.243515 736.632874 " />
<path stroke-linejoin="round" stroke-linecap="round" stroke="rgb(0,0,255)" stroke-width="1.874998" fill="none" d="M 0.000000 750.000000 L 750.000000 604.166687 " />
<path stroke-linejoin="round" stroke-linecap="round" stroke="rgb(255,0,0)" stroke-width="3.749996" fill="none" d="M 91.767090 732.156433 L 93.570091 733.959412 " />
<path stroke-linejoin="round" stroke-linecap="round" stroke="rgb(0,0,255)" stroke-width="1.874998" fill="none" d="M 0.000000 750.000000 L 750.000000 578.571411 " />
<path stroke-linejoin="round" stroke-linecap="round" stroke="rgb(255,0,0)" stroke-width="3.749996" fill="none" d="M 89.218002 729.607361 L 91.767090 732.156433 " />
<path stroke-linejoin="round" stroke-linecap="round" stroke="rgb(0,0,255)" stroke-width="1.874998" fill="none" d="M 0.000000 750.000000 L 750.000000 551.470581 " />
<path stroke-linejoin="round" stroke-linecap="round" stroke="rgb(255,0,0)" stroke-width="3.749996" fill="none" d="M 86.668900 727.058228 L 89.218002 729.607361 " />
<path stroke-linejoin="round" stroke-linecap="round" stroke="rgb(0,0,255)" stroke-width="1.874998" fill="none" d="M 0.000000 750.000000 L 750.000000 522.727295 " />
<path stroke-linejoin="round" stroke-linecap="round" stroke="rgb(255,0,0)" stroke-width="3.749996" fill="none" d="M 84.119820 724.509155 L 86.668900 727.058228 " />
<path stroke-linejoin="round" stroke-linecap="round" stroke="rgb(0,0,255)" stroke-width="1.874998" fill="none" d="M 0.000000 750.000000 L 750.000000 507.352936 " />
<path stroke-linejoin="round" stroke-linecap="round" stroke="rgb(255,0,0)" stroke-width="3.749996" fill="none" d="M 82.816978 723.206238 L 84.119843 724.509155 " />
<path stroke-linejoin="round" stroke-linecap="round" stroke="rgb(0,0,255)" stroke-width="1.874998" fill="none" d="M 0.000000 750.000000 L 750.000000 492.187500 " />
<path stroke-linejoin="round" stroke-linecap="round" stroke="rgb(255,0,0)" stroke-width="3.749996" fill="none" d="M 81.570763 721.960083 L 82.816978 723.206238 " />
<path stroke-linejoin="round" stroke-linecap="round" stroke="rgb(0,0,255)" stroke-width="1.874998" fill="none" d="M 0.000000 750.000000 L 750.000000 459.677429 " />
<path stroke-linejoin="round" stroke-linecap="round" stroke="rgb(255,0,0)" stroke-width="3.749996" fill="none" d="M 79.021652 719.410950 L 81.570763 721.960083 " />
<path stroke-linejoin="round" stroke-linecap="round" stroke="rgb(0,0,255)" stroke-width="1.874998" fill="none" d="M 0.000000 750.000000 L 750.000000 445.312500 " />
<path stroke-linejoin="round" stroke-linecap="round" stroke="rgb(255,0,0)" stroke-width="3.749996" fill="none" d="M 77.945374 718.334717 L 79.021652 719.410950 " />
<path stroke-linejoin="round" stroke-linecap="round" stroke="rgb(0,0,255)" stroke-width="1.874998" fill="none" d="M 0.000000 750.000000 L 750.000000 411.290344 " />
<path stroke-linejoin="round" stroke-linecap="round" stroke="rgb(255,0,0)" stroke-width="3.749996" fill="none" d="M 75.509590 715.898865 L 77.945374 718.334717 " />
<path stroke-linejoin="round" stroke-linecap="round" stroke="rgb(0,0,255)" stroke-width="1.874998" fill="none" d="M 0.000000 750.000000 L 750.000000 398.437500 " />
<path stroke-linejoin="round" stroke-linecap="round" stroke="rgb(255,0,0)" stroke-width="3.749996" fill="none" d="M 74.628555 715.017883 L 75.509590 715.898865 " />
<path stroke-linejoin="round" stroke-linecap="round" stroke="rgb(0,0,255)" stroke-width="1.874998" fill="none" d="M 0.000000 750.000000 L 750.000000 375.000000 " />
<path stroke-linejoin="round" stroke-linecap="round" stroke="rgb(255,0,0)" stroke-width="3.749996" fill="none" d="M 73.073792 713.463135 L 74.628555 715.017883 " />
<path stroke-linejoin="round" stroke-linecap="round" stroke="rgb(0,0,255)" stroke-width="1.874998" fill="none" d="M 0.000000 750.000000 L 750.000000 362.903229 " />
<path stroke-linejoin="round" stroke-linecap="round" stroke="rgb(255,0,0)" stroke-width="3.749996" fill="none" d="M 72.296417 712.685730 L 73.073792 713.463135 " />
<path stroke-linejoin="round" stroke-linecap="round" stroke="rgb(0,0,255)" stroke-width="1.874998" fill="none" d="M 0.000000 750.000000 L 750.000000 336.206909 " />
<path stroke-linejoin="round" stroke-linecap="round" stroke="rgb(255,0,0)" stroke-width="3.749996" fill="none" d="M 70.638008 711.027344 L 72.296417 712.685730 " />
<path stroke-linejoin="round" stroke-linecap="round" stroke="rgb(0,0,255)" stroke-width="1.874998" fill="none" d="M 0.000000 750.000000 L 750.000000 325.000000 " />
<path stroke-linejoin="round" stroke-linecap="round" stroke="rgb(255,0,0)" stroke-width="3.749996" fill="none" d="M 69.964279 710.353577 L 70.638008 711.027344 " />
<path stroke-linejoin="round" stroke-linecap="round" stroke="rgb(0,0,255)" stroke-width="1.874998" fill="none" d="M 0.000000 750.000000 L 750.000000 294.642853 " />
<path stroke-linejoin="round" stroke-linecap="round" stroke="rgb(255,0,0)" stroke-width="3.749996" fill="none" d="M 68.202202 708.591492 L 69.964279 710.353577 " />
<path stroke-linejoin="round" stroke-linecap="round" stroke="rgb(0,0,255)" stroke-width="1.874998" fill="none" d="M 0.000000 750.000000 L 750.000000 249.999985 " />
<path stroke-linejoin="round" stroke-linecap="round" stroke="rgb(255,0,0)" stroke-width="3.749996" fill="none" d="M 65.766426 706.155701 L 68.202202 708.591492 " />
<path stroke-linejoin="round" stroke-linecap="round" stroke="rgb(0,0,255)" stroke-width="1.874998" fill="none" d="M 0.000000 750.000000 L 750.000000 241.071442 " />
<path stroke-linejoin="round" stroke-linecap="round" stroke="rgb(255,0,0)" stroke-width="3.749996" fill="none" d="M 65.299988 705.689270 L 65.766426 706.155701 " />
<path stroke-linejoin="round" stroke-linecap="round" stroke="rgb(0,0,255)" stroke-width="1.874998" fill="none" d="M 0.000000 750.000000 L 750.000000 0.000000 " />
<path stroke-linejoin="round" stroke-linecap="round" stroke="rgb(255,0,0)" stroke-width="3.749996" fill="none" d="M 63.800766 686.199219 L 65.299988 705.689270 " />
<path stroke-linejoin="round" stroke-linecap="round" stroke="rgb(0,0,255)" stroke-width="1.874998" fill="none" d="M 0.000000 750.000000 L 653.225830 0.000000 " />
<path stroke-linejoin="round" stroke-linecap="round" stroke="rgb(255,0,0)" stroke-width="3.749996" fill="none" d="M 63.132694 677.514343 L 63.800766 686.199219 " />
<path stroke-linejoin="round" stroke-linecap="round" stroke="rgb(0,0,255)" stroke-width="1.874998" fill="none" d="M 0.000000 750.000000 L 475.609741 0.000000 " />
<path stroke-linejoin="round" stroke-linecap="round" stroke="rgb(255,0,0)" stroke-width="3.749996" fill="none" d="M 61.275646 653.372986 L 63.132675 677.514343 " />
<path stroke-linejoin="round" stroke-linecap="round" stroke="rgb(0,0,255)" stroke-width="1.874998" fill="none" d="M 0.000000 750.000000 L 367.647064 0.000000 " />
<path stroke-linejoin="round" stroke-linecap="round" stroke="rgb(255,0,0)" stroke-width="3.749996" fill="none" d="M 59.388981 628.846497 L 61.275646 653.373047 " />
<path stroke-linejoin="round" stroke-linecap="round" stroke="rgb(0,0,255)" stroke-width="1.874998" fill="none" d="M 0.000000 750.000000 L 295.081940 0.000000 " />
<path stroke-linejoin="round" stroke-linecap="round" stroke="rgb(255,0,0)" stroke-width="3.749996" fill="none" d="M 57.471985 603.925354 L 59.388981 628.846497 " />
<path stroke-linejoin="round" stroke-linecap="round" stroke="rgb(0,0,255)" stroke-width="1.874998" fill="none" d="M 0.000000 750.000000 L 242.957748 0.000000 " />
<path stroke-linejoin="round" stroke-linecap="round" stroke="rgb(255,0,0)" stroke-width="3.749996" fill="none" d="M 55.523895 578.600159 L 57.471985 603.925354 " />
<path stroke-linejoin="round" stroke-linecap="round" stroke="rgb(0,0,255)" stroke-width="1.874998" fill="none" d="M 0.000000 750.000000 L 203.703690 0.000000 " />
<path stroke-linejoin="round" stroke-linecap="round" stroke="rgb(255,0,0)" stroke-width="3.749996" fill="none" d="M 53.543934 552.860962 L 55.523895 578.600159 " />
<path stroke-linejoin="round" stroke-linecap="round" stroke="rgb(0,0,255)" stroke-width="1.874998" fill="none" d="M 0.000000 750.000000 L 189.560425 0.000000 " />
<path stroke-linejoin="round" stroke-linecap="round" stroke="rgb(255,0,0)" stroke-width="3.749996" fill="none" d="M 52.676506 541.584290 L 53.543934 552.860962 " />
<path stroke-linejoin="round" stroke-linecap="round" stroke="rgb(0,0,255)" stroke-width="1.874998" fill="none" d="M 0.000000 750.000000 L 180.000000 0.000000 " />
<path stroke-linejoin="round" stroke-linecap="round" stroke="rgb(255,0,0)" stroke-width="3.749996" fill="none" d="M 52.031658 533.201355 L 52.676506 541.584290 " />
<path stroke-linejoin="round" stroke-linecap="round" stroke="rgb(0,0,255)" stroke-width="1.874998" fill="none" d="M 0.000000 750.000000 L 149.999985 0.000000 " />
<path stroke-linejoin="round" stroke-linecap="round" stroke="rgb(255,0,0)" stroke-width="3.749996" fill="none" d="M 49.622787 501.886017 L 52.031658 533.201355 " />
<path stroke-linejoin="round" stroke-linecap="round" stroke="rgb(0,0,255)" stroke-width="1.874998" fill="none" d="M 0.000000 750.000000 L 142.105270 0.000000 " />
<path stroke-linejoin="round" stroke-linecap="round" stroke="rgb(255,0,0)" stroke-width="3.749996" fill="none" d="M 48.868641 492.082184 L 49.622787 501.886017 " />
<path stroke-linejoin="round" stroke-linecap="round" stroke="rgb(0,0,255)" stroke-width="1.874998" fill="none" d="M 0.000000 750.000000 L 126.404510 0.000000 " />
<path stroke-linejoin="round" stroke-linecap="round" stroke="rgb(255,0,0)" stroke-width="3.749996" fill="none" d="M 47.176594 470.085571 L 48.868641 492.082184 " />
<path stroke-linejoin="round" stroke-linecap="round" stroke="rgb(0,0,255)" stroke-width="1.874998" fill="none" d="M 0.000000 750.000000 L 112.500008 0.000000 " />
<path stroke-linejoin="round" stroke-linecap="round" stroke="rgb(255,0,0)" stroke-width="3.749996" fill="none" d="M 45.417465 447.216858 L 47.176594 470.085571 " />
<path stroke-linejoin="round" stroke-linecap="round" stroke="rgb(0,0,255)" stroke-width="1.874998" fill="none" d="M 0.000000 750.000000 L 100.515472 0.000000 " />
<path stroke-linejoin="round" stroke-linecap="round" stroke="rgb(255,0,0)" stroke-width="3.749996" fill="none" d="M 43.653130 424.280487 L 45.417465 447.216858 " />
<path stroke-linejoin="round" stroke-linecap="round" stroke="rgb(0,0,255)" stroke-width="1.874998" fill="none" d="M 0.000000 750.000000 L 90.277771 0.000000 " />
<path stroke-linejoin="round" stroke-linecap="round" stroke="rgb(255,0,0)" stroke-width="3.749996" fill="none" d="M 41.919621 401.744720 L 43.653130 424.280487 " />
<path stroke-linejoin="round" stroke-linecap="round" stroke="rgb(0,0,255)" stroke-width="1.874998" fill="none" d="M 0.000000 750.000000 L 86.283180 0.000000 " />
<path stroke-linejoin="round" stroke-linecap="round" stroke="rgb(255,0,0)" stroke-width="3.749996" fill="none" d="M 41.176357 392.082397 L 41.919621 401.744720 " />
<path stroke-linejoin="round" stroke-linecap="round" stroke="rgb(0,0,255)" stroke-width="1.874998" fill="none" d="M 0.000000 750.000000 L 85.365860 0.000000 " />
<path stroke-linejoin="round" stroke-linecap="round" stroke="rgb(255,0,0)" stroke-width="3.749996" fill="none" d="M 40.999821 389.787292 L 41.176357 392.082367 " />
<path stroke-linejoin="round" stroke-linecap="round" stroke="rgb(0,0,255)" stroke-width="1.874998" fill="none" d="M 0.000000 750.000000 L 84.269669 0.000000 " />
<path stroke-linejoin="round" stroke-linecap="round" stroke="rgb(255,0,0)" stroke-width="3.749996" fill="none" d="M 40.526524 389.314026 L 40.999821 389.787292 " />
<path stroke-linejoin="round" stroke-linecap="round" stroke="rgb(0,0,255)" stroke-width="1.874998" fill="none" d="M 0.000000 750.000000 L 74.999992 0.000000 " />
<path stroke-linejoin="round" stroke-linecap="round" stroke="rgb(255,0,0)" stroke-width="3.749996" fill="none" d="M 36.473862 385.261322 L 40.526524 389.314026 " />
<path stroke-linejoin="round" stroke-linecap="round" stroke="rgb(0,0,255)" stroke-width="1.874998" fill="none" d="M 0.000000 750.000000 L 65.934059 0.000000 " />
<path stroke-linejoin="round" stroke-linecap="round" stroke="rgb(255,0,0)" stroke-width="3.749996" fill="none" d="M 32.421223 381.208649 L 36.473862 385.261322 " />
<path stroke-linejoin="round" stroke-linecap="round" stroke="rgb(0,0,255)" stroke-width="1.874998" fill="none" d="M 0.000000 750.000000 L 64.516136 0.000000 " />
<path stroke-linejoin="round" stroke-linecap="round" stroke="rgb(255,0,0)" stroke-width="3.749996" fill="none" d="M 31.779215 380.566650 L 32.421223 381.208649 " />
<path stroke-linejoin="round" stroke-linecap="round" stroke="rgb(0,0,255)" stroke-width="1.874998" fill="none" d="M 0.000000 750.000000 L 63.157887 0.000000 " />
<path stroke-linejoin="round" stroke-linecap="round" stroke="rgb(255,0,0)" stroke-width="3.749996" fill="none" d="M 31.162149 379.949585 L 31.779215 380.566650 " />
<path stroke-linejoin="round" stroke-linecap="round" stroke="rgb(0,0,255)" stroke-width="1.874998" fill="none" d="M 0.000000 750.000000 L 61.855675 0.000000 " />
<path stroke-linejoin="round" stroke-linecap="round" stroke="rgb(255,0,0)" stroke-width="3.749996" fill="none" d="M 30.568577 379.355988 L 31.162149 379.949585 " />
<path stroke-linejoin="round" stroke-linecap="round" stroke="rgb(0,0,255)" stroke-width="1.874998" fill="none" d="M 0.000000 750.000000 L 53.571426 0.000000 " />
<path stroke-linejoin="round" stroke-linecap="round" stroke="rgb(255,0,0)" stroke-width="3.749996" fill="none" d="M 27.777784 361.111115 L 30.568577 379.355988 " />
<path stroke-linejoin="round" stroke-linecap="round" stroke="rgb(0,0,255)" stroke-width="1.874998" fill="none" d="M 0.000000 750.000000 L 45.454548 0.000000 " />
<path stroke-linejoin="round" stroke-linecap="round" stroke="rgb(255,0,0)" stroke-width="3.749996" fill="none" d="M 25.423721 330.508484 L 27.777784 361.111115 " />
<path stroke-linejoin="round" stroke-linecap="round" stroke="rgb(0,0,255)" stroke-width="1.874998" fill="none" d="M 0.000000 750.000000 L 37.500008 0.000000 " />
<path stroke-linejoin="round" stroke-linecap="round" stroke="rgb(255,0,0)" stroke-width="3.749996" fill="none" d="M 22.727274 295.454590 L 25.423721 330.508484 " />
<path stroke-linejoin="round" stroke-linecap="round" stroke="rgb(0,0,255)" stroke-width="1.874998" fill="none" d="M 0.000000 750.000000 L 29.702961 0.000000 " />
<path stroke-linejoin="round" stroke-linecap="round" stroke="rgb(255,0,0)" stroke-width="3.749996" fill="none" d="M 19.607841 254.901962 L 22.727274 295.454590 " />
<path stroke-linejoin="round" stroke-linecap="round" stroke="rgb(0,0,255)" stroke-width="1.874998" fill="none" d="M 0.000000 750.000000 L 29.126219 0.000000 " />
<path stroke-linejoin="round" stroke-linecap="round" stroke="rgb(255,0,0)" stroke-width="3.749996" fill="none" d="M 19.354843 251.612930 L 19.607841 254.901962 " />
<path stroke-linejoin="round" stroke-linecap="round" stroke="rgb(0,0,255)" stroke-width="1.874998" fill="none" d="M 0.000000 750.000000 L 28.571426 0.000000 " />
<path stroke-linejoin="round" stroke-linecap="round" stroke="rgb(255,0,0)" stroke-width="3.749996" fill="none" d="M 19.108280 248.407654 L 19.354843 251.612930 " />
<path stroke-linejoin="round" stroke-linecap="round" stroke="rgb(0,0,255)" stroke-width="1.874998" fill="none" d="M 0.000000 750.000000 L 28.037376 0.000000 " />
<path stroke-linejoin="round" stroke-linecap="round" stroke="rgb(255,0,0)" stroke-width="3.749996" fill="none" d="M 18.867931 245.283005 L 19.108280 248.407654 " />
<path stroke-linejoin="round" stroke-linecap="round" stroke="rgb(0,0,255)" stroke-width="1.874998" fill="none" d="M 0.000000 750.000000 L 27.522928 0.000000 " />
<path stroke-linejoin="round" stroke-linecap="round" stroke="rgb(255,0,0)" stroke-width="3.749996" fill="none" d="M 18.633530 242.236069 L 18.867931 245.283005 " />
<path stroke-linejoin="round" stroke-linecap="round" stroke="rgb(0,0,255)" stroke-width="1.874998" fill="none" d="M 0.000000 750.000000 L 20.454548 0.000000 " />
<path stroke-linejoin="round" stroke-linecap="round" stroke="rgb(255,0,0)" stroke-width="3.749996" fill="none" d="M 15.100658 196.308777 L 18.633530 242.236069 " />
<path stroke-linejoin="round" stroke-linecap="round" stroke="rgb(0,0,255)" stroke-width="1.874998" fill="none" d="M 0.000000 750.000000 L 13.513506 0.000000 " />
<path stroke-linejoin="round" stroke-linecap="round" stroke="rgb(255,0,0)" stroke-width="3.749996" fill="none" d="M 10.948912 142.335846 L 15.100658 196.308777 " />
<path stroke-linejoin="round" stroke-linecap="round" stroke="rgb(0,0,255)" stroke-width="1.874998" fill="none" d="M 0.000000 750.000000 L 6.696425 0.000000 " />
<path stroke-linejoin="round" stroke-linecap="round" stroke="rgb(255,0,0)" stroke-width="3.749996" fill="none" d="M 5.999990 78.000114 L 10.948912 142.335846 " />
<path stroke-linejoin="round" stroke-linecap="round" stroke="rgb(0,0,255)" stroke-width="1.874998" fill="none" d="M 0.000000 750.000000 L 0.000000 0.000000 " />
<path stroke-linejoin="round" stroke-linecap="round" stroke="rgb(255,0,0)" stroke-width="3.749996" fill="none" d="M 0.000000 0.000000 L 5.999990 78.000183 " />
<circle cx="106.937215" cy="747.326598" r="3.749996" style="fill:rgb(0,127,0);stroke-width:1" /><circle cx="104.263790" cy="744.653150" r="3.749996" style="fill:rgb(0,127,0);stroke-width:1" /><circle cx="101.590365" cy="741.979703" r="3.749996" style="fill:rgb(0,127,0);stroke-width:1" /><circle cx="98.916940" cy="739.306279" r="3.749996" style="fill:rgb(0,127,0);stroke-width:1" /><circle cx="96.243516" cy="736.632854" r="3.749996" style="fill:rgb(0,127,0);stroke-width:1" /><circle cx="93.570091" cy="733.959407" r="3.749996" style="fill:rgb(0,127,0);stroke-width:1" /><circle cx="91.767088" cy="732.156403" r="3.749996" style="fill:rgb(0,127,0);stroke-width:1" /><circle cx="89.218006" cy="729.607321" r="3.749996" style="fill:rgb(0,127,0);stroke-width:1" /><circle cx="86.668901" cy="727.058217" r="3.749996" style="fill:rgb(0,127,0);stroke-width:1" /><circle cx="84.119819" cy="724.509135" r="3.749996" style="fill:rgb(0,127,0);stroke-width:1" /><circle cx="82.816981" cy="723.206274" r="3.749996" style="fill:rgb(0,127,0);stroke-width:1" /><circle cx="81.570759" cy="721.960053" r="3.749996" style="fill:rgb(0,127,0);stroke-width:1" /><circle cx="79.021655" cy="719.410971" r="3.749996" style="fill:rgb(0,127,0);stroke-width:1" /><circle cx="77.945374" cy="718.334690" r="3.749996" style="fill:rgb(0,127,0);stroke-width:1" /><circle cx="75.509593" cy="715.898886" r="3.749996" style="fill:rgb(0,127,0);stroke-width:1" /><circle cx="74.628554" cy="715.017870" r="3.749996" style="fill:rgb(0,127,0);stroke-width:1" /><circle cx="73.073789" cy="713.463105" r="3.749996" style="fill:rgb(0,127,0);stroke-width:1" /><circle cx="72.296418" cy="712.685712" r="3.749996" style="fill:rgb(0,127,0);stroke-width:1" /><circle cx="70.638008" cy="711.027302" r="3.749996" style="fill:rgb(0,127,0);stroke-width:1" /><circle cx="69.964282" cy="710.353576" r="3.749996" style="fill:rgb(0,127,0);stroke-width:1" /><circle cx="68.202205" cy="708.591521" r="3.749996" style="fill:rgb(0,127,0);stroke-width:1" /><circle cx="65.766424" cy="706.155717" r="3.749996" style="fill:rgb(0,127,0);stroke-width:1" /><circle cx="65.299988" cy="705.689281" r="3.749996" style="fill:rgb(0,127,0);stroke-width:1" /><circle cx="63.800767" cy="686.199233" r="3.749996" style="fill:rgb(0,127,0);stroke-width:1" /><circle cx="63.132696" cy="677.514330" r="3.749996" style="fill:rgb(0,127,0);stroke-width:1" /><circle cx="61.275646" cy="653.372996" r="3.749996" style="fill:rgb(0,127,0);stroke-width:1" /><circle cx="59.388980" cy="628.846474" r="3.749996" style="fill:rgb(0,127,0);stroke-width:1" /><circle cx="57.471983" cy="603.925377" r="3.749996" style="fill:rgb(0,127,0);stroke-width:1" /><circle cx="55.523895" cy="578.600183" r="3.749996" style="fill:rgb(0,127,0);stroke-width:1" /><circle cx="53.543933" cy="552.860934" r="3.749996" style="fill:rgb(0,127,0);stroke-width:1" /><circle cx="52.676506" cy="541.584257" r="3.749996" style="fill:rgb(0,127,0);stroke-width:1" /><circle cx="52.031659" cy="533.201393" r="3.749996" style="fill:rgb(0,127,0);stroke-width:1" /><circle cx="49.622789" cy="501.886010" r="3.749996" style="fill:rgb(0,127,0);stroke-width:1" /><circle cx="48.868641" cy="492.082156" r="3.749996" style="fill:rgb(0,127,0);stroke-width:1" /><circle cx="47.176592" cy="470.085539" r="3.749996" style="fill:rgb(0,127,0);stroke-width:1" /><circle cx="45.417465" cy="447.216868" r="3.749996" style="fill:rgb(0,127,0);stroke-width:1" /><circle cx="43.653131" cy="424.280483" r="3.749996" style="fill:rgb(0,127,0);stroke-width:1" /><circle cx="41.919619" cy="401.744714" r="3.749996" style="fill:rgb(0,127,0);stroke-width:1" /><circle cx="41.176356" cy="392.082401" r="3.749996" style="fill:rgb(0,127,0);stroke-width:1" /><circle cx="40.999822" cy="389.787299" r="3.749996" style="fill:rgb(0,127,0);stroke-width:1" /><circle cx="40.526524" cy="389.314004" r="3.749996" style="fill:rgb(0,127,0);stroke-width:1" /><circle cx="36.473863" cy="385.261340" r="3.749996" style="fill:rgb(0,127,0);stroke-width:1" /><circle cx="32.421224" cy="381.208650" r="3.749996" style="fill:rgb(0,127,0);stroke-width:1" /><circle cx="31.779215" cy="380.566657" r="3.749996" style="fill:rgb(0,127,0);stroke-width:1" /><circle cx="31.162150" cy="379.949570" r="3.749996" style="fill:rgb(0,127,0);stroke-width:1" /><circle cx="30.568577" cy="379.356010" r="3.749996" style="fill:rgb(0,127,0);stroke-width:1" /><circle cx="27.777784" cy="361.111112" r="3.749996" style="fill:rgb(0,127,0);stroke-width:1" /><circle cx="25.423720" cy="330.508486" r="3.749996" style="fill:rgb(0,127,0);stroke-width:1" /><circle cx="22.727273" cy="295.454571" r="3.749996" style="fill:rgb(0,127,0);stroke-width:1" /><circle cx="19.607842" cy="254.901968" r="3.749996" style="fill:rgb(0,127,0);stroke-width:1" /><circle cx="19.354843" cy="251.612920" r="3.749996" style="fill:rgb(0,127,0);stroke-width:1" /><circle cx="19.108281" cy="248.407658" r="3.749996" style="fill:rgb(0,127,0);stroke-width:1" /><circle cx="18.867932" cy="245.283008" r="3.749996" style="fill:rgb(0,127,0);stroke-width:1" /><circle cx="18.633530" cy="242.236074" r="3.749996" style="fill:rgb(0,127,0);stroke-width:1" /><circle cx="15.100658" cy="196.308788" r="3.749996" style="fill:rgb(0,127,0);stroke-width:1" /><circle cx="10.948911" cy="142.335847" r="3.749996" style="fill:rgb(0,127,0);stroke-width:1" /><circle cx="5.999990" cy="78.000113" r="3.749996" style="fill:rgb(0,127,0);stroke-width:1" /><circle cx="750.000000" cy="750.000000" r="3.749996" style="fill:rgb(0,127,0);stroke-width:1" /><path stroke-linejoin="round" stroke-linecap="round" stroke="rgb(255,255,255)" stroke-width="3.749996" fill="none" d="M 0.000000 750.000000 L 750.000000 750.000000 M 0.000000 750.000000 L 0.000000 0.000000 " />

</svg>