<svg xmlns="http://www.w3.org/2000/svg" version="1.1" width = "750" height = "750" viewBox = "0 0 750 750"  shape-rendering="crispEdges">
<path stroke-linejoin="round" stroke-linecap="round" stroke="rgb(255,255,0)" stroke-width="3.749996" fill="none" d="M 375.000000 750.000000 L 0.000000 0.000000 " />
<path stroke-linejoin="round" stroke-linecap="round" stroke="rgb(63,63,63)" stroke-width="3.749996" fill="none" d="M 0.000000 0.000000 L 750.000000 750.000000 M 375.000000 750.000000 L 124.999992 0.000000 " />
<path stroke-linejoin="round" stroke-linecap="round" stroke="rgb(191,191,191)" stroke-width="3.749996" fill="none" d="M 0.000000 375.000000 L 375.000000 750.000000 M 0.000000 0.000000 L 250.000000 750.000000 " />
<path stroke-linejoin="round" stroke-linecap="round" stroke="rgb(0,0,255)" stroke-width="1.874998" fill="none" d="M 0.000000 750.000000 L 750.000000 725.806458 " />
<path stroke-linejoin="round" stroke-linecap="round" stroke="rgb(255,0,0)" stroke-width="3.749996" fill="none" d="M 371.010651 738.031921 L 375.000000 750.000000 " />
<path stroke-linejoin="round" stroke-linecap="round" stroke="rgb(0,0,255)" stroke-width="1.874998" fill="none" d="M 0.000000 750.000000 L 750.000000 700.000000 " />
<path stroke-linejoin="round" stroke-linecap="round" stroke="rgb(255,0,0)" stroke-width="3.749996" fill="none" d="M 359.042511 726.063843 L 371.010651 738.031921 " />
<path stroke-linejoin="round" stroke-linecap="round" stroke="rgb(0,0,255)" stroke-width="1.874998" fill="none" d="M 0.000000 750.000000 L 750.000000 672.413818 " />
<path stroke-linejoin="round" stroke-linecap="round" stroke="rgb(255,0,0)" stroke-width="3.749996" fill="none" d="M 347.074402 714.095764 L 359.042480 726.063843 " />
<path stroke-linejoin="round" stroke-linecap="round" stroke="rgb(0,0,255)" stroke-width="1.874998" fill="none" d="M 0.000000 750.000000 L 750.000000 650.000000 " />
<path stroke-linejoin="round" stroke-linecap="round" stroke="rgb(255,0,0)" stroke-width="3.749996" fill="none" d="M 337.922363 704.943665 L 347.074402 714.095764 " />
<path stroke-linejoin="round" stroke-linecap="round" stroke="rgb(0,0,255)" stroke-width="1.874998" fill="none" d="M 0.000000 750.000000 L 750.000000 642.857178 " />
<path stroke-linejoin="round" stroke-linecap="round" stroke="rgb(255,0,0)" stroke-width="3.749996" fill="none" d="M 335.106293 702.127686 L 337.922363 704.943665 " />
<path stroke-linejoin="round" stroke-linecap="round" stroke="rgb(0,0,255)" stroke-width="1.874998" fill="none" d="M 0.000000 750.000000 L 750.000000 620.689636 " />
<path stroke-linejoin="round" stroke-linecap="round" stroke="rgb(255,0,0)" stroke-width="3.749996" fill="none" d="M 326.658234 693.679626 L 335.106262 702.127686 " />
<path stroke-linejoin="round" stroke-linecap="round" stroke="rgb(0,0,255)" stroke-width="1.874998" fill="none" d="M 0.000000 750.000000 L 750.000000 589.285706 " />
<path stroke-linejoin="round" stroke-linecap="round" stroke="rgb(255,0,0)" stroke-width="3.749996" fill="none" d="M 315.394135 682.415527 L 326.658234 693.679626 " />
<path stroke-linejoin="round" stroke-linecap="round" stroke="rgb(0,0,255)" stroke-width="1.874998" fill="none" d="M 0.000000 750.000000 L 750.000000 568.965515 " />
<path stroke-linejoin="round" stroke-linecap="round" stroke="rgb(255,0,0)" stroke-width="3.749996" fill="none" d="M 308.510529 675.531982 L 315.394135 682.415527 " />
<path stroke-linejoin="round" stroke-linecap="round" stroke="rgb(0,0,255)" stroke-width="1.874998" fill="none" d="M 0.000000 750.000000 L 750.000000 535.714294 " />
<path stroke-linejoin="round" stroke-linecap="round" stroke="rgb(255,0,0)" stroke-width="3.749996" fill="none" d="M 297.872223 664.893616 L 308.510529 675.531982 " />
<path stroke-linejoin="round" stroke-linecap="round" stroke="rgb(0,0,255)" stroke-width="1.874998" fill="none" d="M 0.000000 750.000000 L 750.000000 499.999969 " />
<path stroke-linejoin="round" stroke-linecap="round" stroke="rgb(255,0,0)" stroke-width="3.749996" fill="none" d="M 287.233948 654.255310 L 297.872223 664.893616 " />
<path stroke-linejoin="round" stroke-linecap="round" stroke="rgb(0,0,255)" stroke-width="1.874998" fill="none" d="M 0.000000 750.000000 L 750.000000 461.538422 " />
<path stroke-linejoin="round" stroke-linecap="round" stroke="rgb(255,0,0)" stroke-width="3.749996" fill="none" d="M 276.595642 643.617065 L 287.233948 654.255310 " />
<path stroke-linejoin="round" stroke-linecap="round" stroke="rgb(0,0,255)" stroke-width="1.874998" fill="none" d="M 0.000000 750.000000 L 750.000000 444.444458 " />
<path stroke-linejoin="round" stroke-linecap="round" stroke="rgb(255,0,0)" stroke-width="3.749996" fill="none" d="M 272.116394 639.137756 L 276.595642 643.617065 " />
<path stroke-linejoin="round" stroke-linecap="round" stroke="rgb(0,0,255)" stroke-width="1.874998" fill="none" d="M 0.000000 750.000000 L 750.000000 420.000000 " />
<path stroke-linejoin="round" stroke-linecap="round" stroke="rgb(255,0,0)" stroke-width="3.749996" fill="none" d="M 265.957336 632.978821 L 272.116394 639.137756 " />
<path stroke-linejoin="round" stroke-linecap="round" stroke="rgb(0,0,255)" stroke-width="1.874998" fill="none" d="M 0.000000 750.000000 L 750.000000 375.000000 " />
<path stroke-linejoin="round" stroke-linecap="round" stroke="rgb(255,0,0)" stroke-width="3.749996" fill="none" d="M 255.319077 622.340454 L 265.957336 632.978821 " />
<path stroke-linejoin="round" stroke-linecap="round" stroke="rgb(0,0,255)" stroke-width="1.874998" fill="none" d="M 0.000000 750.000000 L 750.000000 326.086975 " />
<path stroke-linejoin="round" stroke-linecap="round" stroke="rgb(255,0,0)" stroke-width="3.749996" fill="none" d="M 244.680756 611.702148 L 255.319077 622.340454 " />
<path stroke-linejoin="round" stroke-linecap="round" stroke="rgb(0,0,255)" stroke-width="1.874998" fill="none" d="M 0.000000 750.000000 L 750.000000 272.727295 " />
<path stroke-linejoin="round" stroke-linecap="round" stroke="rgb(255,0,0)" stroke-width="3.749996" fill="none" d="M 234.042480 601.063904 L 244.680756 611.702148 " />
<path stroke-linejoin="round" stroke-linecap="round" stroke="rgb(0,0,255)" stroke-width="1.874998" fill="none" d="M 0.000000 750.000000 L 750.000000 260.869537 " />
<path stroke-linejoin="round" stroke-linecap="round" stroke="rgb(255,0,0)" stroke-width="3.749996" fill="none" d="M 231.802826 598.824280 L 234.042480 601.063904 " />
<path stroke-linejoin="round" stroke-linecap="round" stroke="rgb(0,0,255)" stroke-width="1.874998" fill="none" d="M 0.000000 750.000000 L 750.000000 204.545441 " />
<path stroke-linejoin="round" stroke-linecap="round" stroke="rgb(255,0,0)" stroke-width="3.749996" fill="none" d="M 221.724457 588.745850 L 231.802826 598.824280 " />
<path stroke-linejoin="round" stroke-linecap="round" stroke="rgb(0,0,255)" stroke-width="1.874998" fill="none" d="M 0.000000 750.000000 L 750.000000 195.652176 " />
<path stroke-linejoin="round" stroke-linecap="round" stroke="rgb(255,0,0)" stroke-width="3.749996" fill="none" d="M 220.212692 587.234070 L 221.724457 588.745850 " />
<path stroke-linejoin="round" stroke-linecap="round" stroke="rgb(0,0,255)" stroke-width="1.874998" fill="none" d="M 0.000000 750.000000 L 750.000000 142.857132 " />
<path stroke-linejoin="round" stroke-linecap="round" stroke="rgb(255,0,0)" stroke-width="3.749996" fill="none" d="M 211.646057 578.667480 L 220.212692 587.234070 " />
<path stroke-linejoin="round" stroke-linecap="round" stroke="rgb(0,0,255)" stroke-width="1.874998" fill="none" d="M 0.000000 750.000000 L 750.000000 75.000015 " />
<path stroke-linejoin="round" stroke-linecap="round" stroke="rgb(255,0,0)" stroke-width="3.749996" fill="none" d="M 201.567688 568.589050 L 211.646057 578.667480 " />
<path stroke-linejoin="round" stroke-linecap="round" stroke="rgb(0,0,255)" stroke-width="1.874998" fill="none" d="M 0.000000 750.000000 L 750.000000 71.428566 " />
<path stroke-linejoin="round" stroke-linecap="round" stroke="rgb(255,0,0)" stroke-width="3.749996" fill="none" d="M 201.063751 568.085144 L 201.567688 568.589050 " />
<path stroke-linejoin="round" stroke-linecap="round" stroke="rgb(0,0,255)" stroke-width="1.874998" fill="none" d="M 0.000000 750.000000 L 750.000000 0.000000 " />
<path stroke-linejoin="round" stroke-linecap="round" stroke="rgb(255,0,0)" stroke-width="3.749996" fill="none" d="M 191.489288 558.510681 L 201.063751 568.085144 " />
<path stroke-linejoin="round" stroke-linecap="round" stroke="rgb(0,0,255)" stroke-width="1.874998" fill="none" d="M 0.000000 750.000000 L 675.000000 0.000000 " />
<path stroke-linejoin="round" stroke-linecap="round" stroke="rgb(255,0,0)" stroke-width="3.749996" fill="none" d="M 182.432434 547.297302 L 191.489288 558.510681 " />
<path stroke-linejoin="round" stroke-linecap="round" stroke="rgb(0,0,255)" stroke-width="1.874998" fill="none" d="M 0.000000 750.000000 L 607.142883 0.000000 " />
<path stroke-linejoin="round" stroke-linecap="round" stroke="rgb(255,0,0)" stroke-width="3.749996" fill="none" d="M 177.083328 531.250000 L 182.432434 547.297302 " />
<path stroke-linejoin="round" stroke-linecap="round" stroke="rgb(0,0,255)" stroke-width="1.874998" fill="none" d="M 0.000000 750.000000 L 545.454590 0.000000 " />
<path stroke-linejoin="round" stroke-linecap="round" stroke="rgb(255,0,0)" stroke-width="3.749996" fill="none" d="M 171.428558 514.285706 L 177.083328 531.250000 " />
<path stroke-linejoin="round" stroke-linecap="round" stroke="rgb(0,0,255)" stroke-width="1.874998" fill="none" d="M 0.000000 750.000000 L 500.000000 0.000000 " />
<path stroke-linejoin="round" stroke-linecap="round" stroke="rgb(255,0,0)" stroke-width="3.749996" fill="none" d="M 166.666656 499.999969 L 171.428558 514.285706 " />
<path stroke-linejoin="round" stroke-linecap="round" stroke="rgb(0,0,255)" stroke-width="1.874998" fill="none" d="M 0.000000 750.000000 L 489.130463 0.000000 " />
<path stroke-linejoin="round" stroke-linecap="round" stroke="rgb(255,0,0)" stroke-width="3.749996" fill="none" d="M 165.441177 496.323547 L 166.666656 499.999969 " />
<path stroke-linejoin="round" stroke-linecap="round" stroke="rgb(0,0,255)" stroke-width="1.874998" fill="none" d="M 0.000000 750.000000 L 450.000031 0.000000 " />
<path stroke-linejoin="round" stroke-linecap="round" stroke="rgb(255,0,0)" stroke-width="3.749996" fill="none" d="M 160.714294 482.142853 L 165.441177 496.323547 " />
<path stroke-linejoin="round" stroke-linecap="round" stroke="rgb(0,0,255)" stroke-width="1.874998" fill="none" d="M 0.000000 750.000000 L 416.666687 0.000000 " />
<path stroke-linejoin="round" stroke-linecap="round" stroke="rgb(255,0,0)" stroke-width="3.749996" fill="none" d="M 156.249985 468.750000 L 160.714294 482.142853 " />
<path stroke-linejoin="round" stroke-linecap="round" stroke="rgb(0,0,255)" stroke-width="1.874998" fill="none" d="M 0.000000 750.000000 L 387.931061 0.000000 " />
<path stroke-linejoin="round" stroke-linecap="round" stroke="rgb(255,0,0)" stroke-width="3.749996" fill="none" d="M 152.027023 456.081116 L 156.249985 468.750031 " />
<path stroke-linejoin="round" stroke-linecap="round" stroke="rgb(0,0,255)" stroke-width="1.874998" fill="none" d="M 0.000000 750.000000 L 350.000000 0.000000 " />
<path stroke-linejoin="round" stroke-linecap="round" stroke="rgb(255,0,0)" stroke-width="3.749996" fill="none" d="M 145.833313 437.500031 L 152.027023 456.081116 " />
<path stroke-linejoin="round" stroke-linecap="round" stroke="rgb(0,0,255)" stroke-width="1.874998" fill="none" d="M 0.000000 750.000000 L 314.516113 0.000000 " />
<path stroke-linejoin="round" stroke-linecap="round" stroke="rgb(255,0,0)" stroke-width="3.749996" fill="none" d="M 139.285706 417.857147 L 145.833313 437.500031 " />
<path stroke-linejoin="round" stroke-linecap="round" stroke="rgb(0,0,255)" stroke-width="1.874998" fill="none" d="M 0.000000 750.000000 L 295.454559 0.000000 " />
<path stroke-linejoin="round" stroke-linecap="round" stroke="rgb(255,0,0)" stroke-width="3.749996" fill="none" d="M 135.416641 406.250061 L 139.285706 417.857147 " />
<path stroke-linejoin="round" stroke-linecap="round" stroke="rgb(0,0,255)" stroke-width="1.874998" fill="none" d="M 0.000000 750.000000 L 278.571442 0.000000 " />
<path stroke-linejoin="round" stroke-linecap="round" stroke="rgb(255,0,0)" stroke-width="3.749996" fill="none" d="M 131.756744 395.270294 L 135.416641 406.250061 " />
<path stroke-linejoin="round" stroke-linecap="round" stroke="rgb(0,0,255)" stroke-width="1.874998" fill="none" d="M 0.000000 750.000000 L 264.705902 0.000000 " />
<path stroke-linejoin="round" stroke-linecap="round" stroke="rgb(255,0,0)" stroke-width="3.749996" fill="none" d="M 128.571426 385.714294 L 131.756744 395.270294 " />
<path stroke-linejoin="round" stroke-linecap="round" stroke="rgb(0,0,255)" stroke-width="1.874998" fill="none" d="M 0.000000 750.000000 L 250.000000 0.000000 " />
<path stroke-linejoin="round" stroke-linecap="round" stroke="rgb(255,0,0)" stroke-width="3.749996" fill="none" d="M 124.999969 375.000031 L 128.571426 385.714294 " />
<path stroke-linejoin="round" stroke-linecap="round" stroke="rgb(0,0,255)" stroke-width="1.874998" fill="none" d="M 0.000000 750.000000 L 222.972977 0.000000 " />
<path stroke-linejoin="round" stroke-linecap="round" stroke="rgb(255,0,0)" stroke-width="3.749996" fill="none" d="M 117.857140 353.571472 L 124.999969 375.000031 " />
<path stroke-linejoin="round" stroke-linecap="round" stroke="rgb(0,0,255)" stroke-width="1.874998" fill="none" d="M 0.000000 750.000000 L 211.538467 0.000000 " />
<path stroke-linejoin="round" stroke-linecap="round" stroke="rgb(255,0,0)" stroke-width="3.749996" fill="none" d="M 114.583321 343.750031 L 117.857140 353.571472 " />
<path stroke-linejoin="round" stroke-linecap="round" stroke="rgb(0,0,255)" stroke-width="1.874998" fill="none" d="M 0.000000 750.000000 L 201.219528 0.000000 " />
<path stroke-linejoin="round" stroke-linecap="round" stroke="rgb(255,0,0)" stroke-width="3.749996" fill="none" d="M 111.486465 334.459534 L 114.583321 343.750031 " />
<path stroke-linejoin="round" stroke-linecap="round" stroke="rgb(0,0,255)" stroke-width="1.874998" fill="none" d="M 0.000000 750.000000 L 191.860474 0.000000 " />
<path stroke-linejoin="round" stroke-linecap="round" stroke="rgb(255,0,0)" stroke-width="3.749996" fill="none" d="M 108.552620 325.657990 L 111.486465 334.459564 " />
<path stroke-linejoin="round" stroke-linecap="round" stroke="rgb(0,0,255)" stroke-width="1.874998" fill="none" d="M 0.000000 750.000000 L 173.076920 0.000000 " />
<path stroke-linejoin="round" stroke-linecap="round" stroke="rgb(255,0,0)" stroke-width="3.749996" fill="none" d="M 102.272697 306.818298 L 108.552620 325.657990 " />
<path stroke-linejoin="round" stroke-linecap="round" stroke="rgb(0,0,255)" stroke-width="1.874998" fill="none" d="M 0.000000 750.000000 L 164.634171 0.000000 " />
<path stroke-linejoin="round" stroke-linecap="round" stroke="rgb(255,0,0)" stroke-width="3.749996" fill="none" d="M 99.264687 297.794220 L 102.272697 306.818298 " />
<path stroke-linejoin="round" stroke-linecap="round" stroke="rgb(0,0,255)" stroke-width="1.874998" fill="none" d="M 0.000000 750.000000 L 156.976746 0.000000 " />
<path stroke-linejoin="round" stroke-linecap="round" stroke="rgb(255,0,0)" stroke-width="3.749996" fill="none" d="M 96.428543 289.285797 L 99.264687 297.794220 " />
<path stroke-linejoin="round" stroke-linecap="round" stroke="rgb(0,0,255)" stroke-width="1.874998" fill="none" d="M 0.000000 750.000000 L 149.999985 0.000000 " />
<path stroke-linejoin="round" stroke-linecap="round" stroke="rgb(255,0,0)" stroke-width="3.749996" fill="none" d="M 93.749977 281.250092 L 96.428543 289.285797 " />
<path stroke-linejoin="round" stroke-linecap="round" stroke="rgb(0,0,255)" stroke-width="1.874998" fill="none" d="M 0.000000 750.000000 L 143.617004 0.000000 " />
<path stroke-linejoin="round" stroke-linecap="round" stroke="rgb(255,0,0)" stroke-width="3.749996" fill="none" d="M 91.216209 273.648743 L 93.749977 281.250092 " />
<path stroke-linejoin="round" stroke-linecap="round" stroke="rgb(0,0,255)" stroke-width="1.874998" fill="none" d="M 0.000000 750.000000 L 137.755081 0.000000 " />
<path stroke-linejoin="round" stroke-linecap="round" stroke="rgb(255,0,0)" stroke-width="3.749996" fill="none" d="M 88.815765 266.447479 L 91.216209 273.648743 " />
<path stroke-linejoin="round" stroke-linecap="round" stroke="rgb(0,0,255)" stroke-width="1.874998" fill="none" d="M 0.000000 750.000000 L 120.000000 0.000000 " />
<path stroke-linejoin="round" stroke-linecap="round" stroke="rgb(255,0,0)" stroke-width="3.749996" fill="none" d="M 81.081078 243.243317 L 88.815765 266.447479 " />
<path stroke-linejoin="round" stroke-linecap="round" stroke="rgb(0,0,255)" stroke-width="1.874998" fill="none" d="M 0.000000 750.000000 L 102.941170 0.000000 " />
<path stroke-linejoin="round" stroke-linecap="round" stroke="rgb(255,0,0)" stroke-width="3.749996" fill="none" d="M 72.916656 218.750153 L 81.081078 243.243317 " />
<path stroke-linejoin="round" stroke-linecap="round" stroke="rgb(0,0,255)" stroke-width="1.874998" fill="none" d="M 0.000000 750.000000 L 99.056618 0.000000 " />
<path stroke-linejoin="round" stroke-linecap="round" stroke="rgb(255,0,0)" stroke-width="3.749996" fill="none" d="M 70.945923 212.838028 L 72.916634 218.750198 " />
<path stroke-linejoin="round" stroke-linecap="round" stroke="rgb(0,0,255)" stroke-width="1.874998" fill="none" d="M 0.000000 750.000000 L 97.826088 0.000000 " />
<path stroke-linejoin="round" stroke-linecap="round" stroke="rgb(255,0,0)" stroke-width="3.749996" fill="none" d="M 70.312477 210.937683 L 70.945923 212.838028 " />
<path stroke-linejoin="round" stroke-linecap="round" stroke="rgb(0,0,255)" stroke-width="1.874998" fill="none" d="M 0.000000 750.000000 L 79.787224 0.000000 " />
<path stroke-linejoin="round" stroke-linecap="round" stroke="rgb(255,0,0)" stroke-width="3.749996" fill="none" d="M 60.483856 181.451843 L 70.312477 210.937683 " />
<path stroke-linejoin="round" stroke-linecap="round" stroke="rgb(0,0,255)" stroke-width="1.874998" fill="none" d="M 0.000000 750.000000 L 76.530617 0.000000 " />
<path stroke-linejoin="round" stroke-linecap="round" stroke="rgb(255,0,0)" stroke-width="3.749996" fill="none" d="M 58.593727 175.781525 L 60.483856 181.451843 " />
<path stroke-linejoin="round" stroke-linecap="round" stroke="rgb(0,0,255)" stroke-width="1.874998" fill="none" d="M 0.000000 750.000000 L 59.999989 0.000000 " />
<path stroke-linejoin="round" stroke-linecap="round" stroke="rgb(255,0,0)" stroke-width="3.749996" fill="none" d="M 48.387074 145.161606 L 58.593727 175.781525 " />
<path stroke-linejoin="round" stroke-linecap="round" stroke="rgb(0,0,255)" stroke-width="1.874998" fill="none" d="M 0.000000 750.000000 L 57.692303 0.000000 " />
<path stroke-linejoin="round" stroke-linecap="round" stroke="rgb(255,0,0)" stroke-width="3.749996" fill="none" d="M 46.874977 140.625275 L 48.387074 145.161606 " />
<path stroke-linejoin="round" stroke-linecap="round" stroke="rgb(0,0,255)" stroke-width="1.874998" fill="none" d="M 0.000000 750.000000 L 55.555569 0.000000 " />
<path stroke-linejoin="round" stroke-linecap="round" stroke="rgb(255,0,0)" stroke-width="3.749996" fill="none" d="M 45.454525 136.363907 L 46.874977 140.625275 " />
<path stroke-linejoin="round" stroke-linecap="round" stroke="rgb(0,0,255)" stroke-width="1.874998" fill="none" d="M 0.000000 750.000000 L 53.571426 0.000000 " />
<path stroke-linejoin="round" stroke-linecap="round" stroke="rgb(255,0,0)" stroke-width="3.749996" fill="none" d="M 44.117622 132.353195 L 45.454525 136.363907 " />
<path stroke-linejoin="round" stroke-linecap="round" stroke="rgb(0,0,255)" stroke-width="1.874998" fill="none" d="M 0.000000 750.000000 L 51.724144 0.000000 " />
<path stroke-linejoin="round" stroke-linecap="round" stroke="rgb(255,0,0)" stroke-width="3.749996" fill="none" d="M 42.857117 128.571686 L 44.117622 132.353195 " />
<path stroke-linejoin="round" stroke-linecap="round" stroke="rgb(0,0,255)" stroke-width="1.874998" fill="none" d="M 0.000000 750.000000 L 49.999996 0.000000 " />
<path stroke-linejoin="round" stroke-linecap="round" stroke="rgb(255,0,0)" stroke-width="3.749996" fill="none" d="M 41.666641 125.000237 L 42.857117 128.571686 " />
<path stroke-linejoin="round" stroke-linecap="round" stroke="rgb(0,0,255)" stroke-width="1.874998" fill="none" d="M 0.000000 750.000000 L 48.387096 0.000000 " />
<path stroke-linejoin="round" stroke-linecap="round" stroke="rgb(255,0,0)" stroke-width="3.749996" fill="none" d="M 40.540516 121.621819 L 41.666641 125.000191 " />
<path stroke-linejoin="round" stroke-linecap="round" stroke="rgb(0,0,255)" stroke-width="1.874998" fill="none" d="M 0.000000 750.000000 L 46.875000 0.000000 " />
<path stroke-linejoin="round" stroke-linecap="round" stroke="rgb(255,0,0)" stroke-width="3.749996" fill="none" d="M 39.473667 118.421318 L 40.540516 121.621819 " />
<path stroke-linejoin="round" stroke-linecap="round" stroke="rgb(0,0,255)" stroke-width="1.874998" fill="none" d="M 0.000000 750.000000 L 38.135605 0.000000 " />
<path stroke-linejoin="round" stroke-linecap="round" stroke="rgb(255,0,0)" stroke-width="3.749996" fill="none" d="M 33.088223 99.265022 L 39.473667 118.421364 " />
<path stroke-linejoin="round" stroke-linecap="round" stroke="rgb(0,0,255)" stroke-width="1.874998" fill="none" d="M 0.000000 750.000000 L 36.885246 0.000000 " />
<path stroke-linejoin="round" stroke-linecap="round" stroke="rgb(255,0,0)" stroke-width="3.749996" fill="none" d="M 32.142834 96.428856 L 33.088223 99.265022 " />
<path stroke-linejoin="round" stroke-linecap="round" stroke="rgb(0,0,255)" stroke-width="1.874998" fill="none" d="M 0.000000 750.000000 L 24.193548 0.000000 " />
<path stroke-linejoin="round" stroke-linecap="round" stroke="rgb(255,0,0)" stroke-width="3.749996" fill="none" d="M 22.058823 66.176758 L 32.142834 96.428856 " />
<path stroke-linejoin="round" stroke-linecap="round" stroke="rgb(0,0,255)" stroke-width="1.874998" fill="none" d="M 0.000000 750.000000 L 11.904761 0.000000 " />
<path stroke-linejoin="round" stroke-linecap="round" stroke="rgb(255,0,0)" stroke-width="3.749996" fill="none" d="M 11.363626 34.091232 L 22.058823 66.176758 " />
<path stroke-linejoin="round" stroke-linecap="round" stroke="rgb(0,0,255)" stroke-width="1.874998" fill="none" d="M 0.000000 750.000000 L 0.000000 0.000000 " />
<path stroke-linejoin="round" stroke-linecap="round" stroke="rgb(255,0,0)" stroke-width="3.749996" fill="none" d="M 0.000000 0.000000 L 11.363626 34.091232 " />
<circle cx="371.010639" cy="738.031916" r="3.750000" style="fill:rgb(0,127,0);stroke-width:1" /><circle cx="359.042510" cy="726.063833" r="3.749999" style="fill:rgb(0,127,0);stroke-width:1" /><circle cx="347.074404" cy="714.095749" r="3.749999" style="fill:rgb(0,127,0);stroke-width:1" /><circle cx="337.922350" cy="704.943672" r="3.749999" style="fill:rgb(0,127,0);stroke-width:1" /><circle cx="335.106298" cy="702.127665" r="3.749999" style="fill:rgb(0,127,0);stroke-width:1" /><circle cx="326.658234" cy="693.679601" r="3.750001" style="fill:rgb(0,127,0);stroke-width:1" /><circle cx="315.394141" cy="682.415530" r="3.750002" style="fill:rgb(0,127,0);stroke-width:1" /><circle cx="308.510542" cy="675.531931" r="3.750002" style="fill:rgb(0,127,0);stroke-width:1" /><circle cx="297.872230" cy="664.893642" r="3.750002" style="fill:rgb(0,127,0);stroke-width:1" /><circle cx="287.233941" cy="654.255353" r="3.750002" style="fill:rgb(0,127,0);stroke-width:1" /><circle cx="276.595630" cy="643.617064" r="3.749996" style="fill:rgb(0,127,0);stroke-width:1" /><circle cx="272.116385" cy="639.137775" r="3.749996" style="fill:rgb(0,127,0);stroke-width:1" /><circle cx="265.957341" cy="632.978775" r="3.749996" style="fill:rgb(0,127,0);stroke-width:1" /><circle cx="255.319074" cy="622.340463" r="3.749996" style="fill:rgb(0,127,0);stroke-width:1" /><circle cx="244.680762" cy="611.702174" r="3.749996" style="fill:rgb(0,127,0);stroke-width:1" /><circle cx="234.042473" cy="601.063885" r="3.749996" style="fill:rgb(0,127,0);stroke-width:1" /><circle cx="231.802829" cy="598.824240" r="3.749996" style="fill:rgb(0,127,0);stroke-width:1" /><circle cx="221.724451" cy="588.745862" r="3.749996" style="fill:rgb(0,127,0);stroke-width:1" /><circle cx="220.212691" cy="587.234102" r="3.749996" style="fill:rgb(0,127,0);stroke-width:1" /><circle cx="211.646050" cy="578.667484" r="3.749996" style="fill:rgb(0,127,0);stroke-width:1" /><circle cx="201.567695" cy="568.589084" r="3.749996" style="fill:rgb(0,127,0);stroke-width:1" /><circle cx="201.063752" cy="568.085164" r="3.749996" style="fill:rgb(0,127,0);stroke-width:1" /><circle cx="191.489294" cy="558.510706" r="3.749996" style="fill:rgb(0,127,0);stroke-width:1" /><circle cx="182.432435" cy="547.297284" r="3.749996" style="fill:rgb(0,127,0);stroke-width:1" /><circle cx="177.083328" cy="531.250007" r="3.749996" style="fill:rgb(0,127,0);stroke-width:1" /><circle cx="171.428561" cy="514.285706" r="3.749996" style="fill:rgb(0,127,0);stroke-width:1" /><circle cx="166.666657" cy="499.999993" r="3.749996" style="fill:rgb(0,127,0);stroke-width:1" /><circle cx="165.441178" cy="496.323533" r="3.749996" style="fill:rgb(0,127,0);stroke-width:1" /><circle cx="160.714298" cy="482.142851" r="3.749996" style="fill:rgb(0,127,0);stroke-width:1" /><circle cx="156.249985" cy="468.750022" r="3.749996" style="fill:rgb(0,127,0);stroke-width:1" /><circle cx="152.027026" cy="456.081122" r="3.749996" style="fill:rgb(0,127,0);stroke-width:1" /><circle cx="145.833313" cy="437.500030" r="3.749996" style="fill:rgb(0,127,0);stroke-width:1" /><circle cx="139.285706" cy="417.857163" r="3.749996" style="fill:rgb(0,127,0);stroke-width:1" /><circle cx="135.416642" cy="406.250037" r="3.749996" style="fill:rgb(0,127,0);stroke-width:1" /><circle cx="131.756745" cy="395.270303" r="3.749996" style="fill:rgb(0,127,0);stroke-width:1" /><circle cx="128.571421" cy="385.714307" r="3.749996" style="fill:rgb(0,127,0);stroke-width:1" /><circle cx="124.999970" cy="375.000045" r="3.749996" style="fill:rgb(0,127,0);stroke-width:1" /><circle cx="117.857136" cy="353.571475" r="3.749996" style="fill:rgb(0,127,0);stroke-width:1" /><circle cx="114.583321" cy="343.750030" r="3.749996" style="fill:rgb(0,127,0);stroke-width:1" /><circle cx="111.486465" cy="334.459528" r="3.749996" style="fill:rgb(0,127,0);stroke-width:1" /><circle cx="108.552620" cy="325.657994" r="3.749996" style="fill:rgb(0,127,0);stroke-width:1" /><circle cx="102.272697" cy="306.818292" r="3.749996" style="fill:rgb(0,127,0);stroke-width:1" /><circle cx="99.264689" cy="297.794223" r="3.749996" style="fill:rgb(0,127,0);stroke-width:1" /><circle cx="96.428543" cy="289.285809" r="3.749996" style="fill:rgb(0,127,0);stroke-width:1" /><circle cx="93.749978" cy="281.250089" r="3.749996" style="fill:rgb(0,127,0);stroke-width:1" /><circle cx="91.216207" cy="273.648754" r="3.749996" style="fill:rgb(0,127,0);stroke-width:1" /><circle cx="88.815764" cy="266.447470" r="3.749996" style="fill:rgb(0,127,0);stroke-width:1" /><circle cx="81.081077" cy="243.243322" r="3.749996" style="fill:rgb(0,127,0);stroke-width:1" /><circle cx="72.916657" cy="218.750149" r="3.749996" style="fill:rgb(0,127,0);stroke-width:1" /><circle cx="70.945926" cy="212.838024" r="3.749996" style="fill:rgb(0,127,0);stroke-width:1" /><circle cx="70.312478" cy="210.937679" r="3.749996" style="fill:rgb(0,127,0);stroke-width:1" /><circle cx="60.483858" cy="181.451842" r="3.749996" style="fill:rgb(0,127,0);stroke-width:1" /><circle cx="58.593728" cy="175.781518" r="3.749996" style="fill:rgb(0,127,0);stroke-width:1" /><circle cx="48.387073" cy="145.161599" r="3.749996" style="fill:rgb(0,127,0);stroke-width:1" /><circle cx="46.874978" cy="140.625268" r="3.749996" style="fill:rgb(0,127,0);stroke-width:1" /><circle cx="45.454524" cy="136.363909" r="3.749996" style="fill:rgb(0,127,0);stroke-width:1" /><circle cx="44.117622" cy="132.353202" r="3.749996" style="fill:rgb(0,127,0);stroke-width:1" /><circle cx="42.857118" cy="128.571689" r="3.749996" style="fill:rgb(0,127,0);stroke-width:1" /><circle cx="41.666642" cy="125.000238" r="3.749996" style="fill:rgb(0,127,0);stroke-width:1" /><circle cx="40.540516" cy="121.621817" r="3.749996" style="fill:rgb(0,127,0);stroke-width:1" /><circle cx="39.473668" cy="118.421316" r="3.749996" style="fill:rgb(0,127,0);stroke-width:1" /><circle cx="33.088222" cy="99.265024" r="3.749996" style="fill:rgb(0,127,0);stroke-width:1" /><circle cx="32.142833" cy="96.428856" r="3.749996" style="fill:rgb(0,127,0);stroke-width:1" /><circle cx="22.058822" cy="66.176757" r="3.749996" style="fill:rgb(0,127,0);stroke-width:1" /><circle cx="11.363626" cy="34.091234" r="3.749996" style="fill:rgb(0,127,0);stroke-width:1" /><circle cx="750.000000" cy="750.000000" r="3.749996" style="fill:rgb(0,127,0);stroke-width:1" /><path stroke-linejoin="round" stroke-linecap="round" stroke="rgb(255,255,255)" stroke-width="3.749996" fill="none" d="M 0.000000 750.000000 L 750.000000 750.000000 M 0.000000 750.000000 L 0.000000 0.000000 " />

</svg>