<svg xmlns="http://www.w3.org/2000/svg" version="1.1" width = "750" height = "750" viewBox = "0 0 750 750"  shape-rendering="crispEdges">
<path stroke-linejoin="round" stroke-linecap="round" stroke="rgb(255,255,0)" stroke-width="3.749996" fill="none" d="M 149.999985 750.000000 L 0.000000 0.000000 " />
<path stroke-linejoin="round" stroke-linecap="round" stroke="rgb(63,63,63)" stroke-width="3.749996" fill="none" d="M 0.000000 0.000000 L 750.000000 750.000000 M 149.999985 750.000000 L 66.666664 0.000000 " />
<path stroke-linejoin="round" stroke-linecap="round" stroke="rgb(191,191,191)" stroke-width="3.749996" fill="none" d="M 0.000000 600.000000 L 149.999985 750.000000 M 0.000000 0.000000 L 83.333328 750.000000 " />
<path stroke-linejoin="round" stroke-linecap="round" stroke="rgb(0,0,255)" stroke-width="1.874998" fill="none" d="M 0.000000 750.000000 L 750.000000 732.558105 " />
<path stroke-linejoin="round" stroke-linecap="round" stroke="rgb(255,0,0)" stroke-width="3.749996" fill="none" d="M 149.613388 746.520630 L 149.999985 750.000000 " />
<path stroke-linejoin="round" stroke-linecap="round" stroke="rgb(0,0,255)" stroke-width="1.874998" fill="none" d="M 0.000000 750.000000 L 750.000000 714.285706 " />
<path stroke-linejoin="round" stroke-linecap="round" stroke="rgb(255,0,0)" stroke-width="3.749996" fill="none" d="M 148.417374 742.932495 L 149.613388 746.520630 " />
<path stroke-linejoin="round" stroke-linecap="round" stroke="rgb(0,0,255)" stroke-width="1.874998" fill="none" d="M 0.000000 750.000000 L 750.000000 695.121948 " />
<path stroke-linejoin="round" stroke-linecap="round" stroke="rgb(255,0,0)" stroke-width="3.749996" fill="none" d="M 147.183365 739.230469 L 148.417374 742.932495 " />
<path stroke-linejoin="round" stroke-linecap="round" stroke="rgb(0,0,255)" stroke-width="1.874998" fill="none" d="M 0.000000 750.000000 L 750.000000 675.000000 " />
<path stroke-linejoin="round" stroke-linecap="round" stroke="rgb(255,0,0)" stroke-width="3.749996" fill="none" d="M 145.909561 735.409058 L 147.183365 739.230469 " />
<path stroke-linejoin="round" stroke-linecap="round" stroke="rgb(0,0,255)" stroke-width="1.874998" fill="none" d="M 0.000000 750.000000 L 750.000000 653.846130 " />
<path stroke-linejoin="round" stroke-linecap="round" stroke="rgb(255,0,0)" stroke-width="3.749996" fill="none" d="M 144.593994 731.462341 L 145.909576 735.409058 " />
<path stroke-linejoin="round" stroke-linecap="round" stroke="rgb(0,0,255)" stroke-width="1.874998" fill="none" d="M 0.000000 750.000000 L 750.000000 631.578979 " />
<path stroke-linejoin="round" stroke-linecap="round" stroke="rgb(255,0,0)" stroke-width="3.749996" fill="none" d="M 143.234573 727.384033 L 144.593994 731.462341 " />
<path stroke-linejoin="round" stroke-linecap="round" stroke="rgb(0,0,255)" stroke-width="1.874998" fill="none" d="M 0.000000 750.000000 L 750.000000 615.384644 " />
<path stroke-linejoin="round" stroke-linecap="round" stroke="rgb(255,0,0)" stroke-width="3.749996" fill="none" d="M 142.261841 724.465820 L 143.234573 727.384033 " />
<path stroke-linejoin="round" stroke-linecap="round" stroke="rgb(0,0,255)" stroke-width="1.874998" fill="none" d="M 0.000000 750.000000 L 750.000000 608.108093 " />
<path stroke-linejoin="round" stroke-linecap="round" stroke="rgb(255,0,0)" stroke-width="3.749996" fill="none" d="M 141.829071 723.167419 L 142.261856 724.465820 " />
<path stroke-linejoin="round" stroke-linecap="round" stroke="rgb(0,0,255)" stroke-width="1.874998" fill="none" d="M 0.000000 750.000000 L 750.000000 592.105225 " />
<path stroke-linejoin="round" stroke-linecap="round" stroke="rgb(255,0,0)" stroke-width="3.749996" fill="none" d="M 140.886475 720.339661 L 141.829071 723.167419 " />
<path stroke-linejoin="round" stroke-linecap="round" stroke="rgb(0,0,255)" stroke-width="1.874998" fill="none" d="M 0.000000 750.000000 L 750.000000 583.333313 " />
<path stroke-linejoin="round" stroke-linecap="round" stroke="rgb(255,0,0)" stroke-width="3.749996" fill="none" d="M 140.375092 718.805542 L 140.886475 720.339661 " />
<path stroke-linejoin="round" stroke-linecap="round" stroke="rgb(0,0,255)" stroke-width="1.874998" fill="none" d="M 0.000000 750.000000 L 750.000000 557.142822 " />
<path stroke-linejoin="round" stroke-linecap="round" stroke="rgb(255,0,0)" stroke-width="3.749996" fill="none" d="M 138.870102 714.290527 L 140.375092 718.805542 " />
<path stroke-linejoin="round" stroke-linecap="round" stroke="rgb(0,0,255)" stroke-width="1.874998" fill="none" d="M 0.000000 750.000000 L 750.000000 529.411743 " />
<path stroke-linejoin="round" stroke-linecap="round" stroke="rgb(255,0,0)" stroke-width="3.749996" fill="none" d="M 137.311356 709.614319 L 138.870102 714.290527 " />
<path stroke-linejoin="round" stroke-linecap="round" stroke="rgb(0,0,255)" stroke-width="1.874998" fill="none" d="M 0.000000 750.000000 L 750.000000 514.285706 " />
<path stroke-linejoin="round" stroke-linecap="round" stroke="rgb(255,0,0)" stroke-width="3.749996" fill="none" d="M 136.475784 707.107605 L 137.311356 709.614319 " />
<path stroke-linejoin="round" stroke-linecap="round" stroke="rgb(0,0,255)" stroke-width="1.874998" fill="none" d="M 0.000000 750.000000 L 750.000000 499.999969 " />
<path stroke-linejoin="round" stroke-linecap="round" stroke="rgb(255,0,0)" stroke-width="3.749996" fill="none" d="M 135.695923 704.768005 L 136.475784 707.107605 " />
<path stroke-linejoin="round" stroke-linecap="round" stroke="rgb(0,0,255)" stroke-width="1.874998" fill="none" d="M 0.000000 750.000000 L 750.000000 485.294128 " />
<path stroke-linejoin="round" stroke-linecap="round" stroke="rgb(255,0,0)" stroke-width="3.749996" fill="none" d="M 134.902374 702.387390 L 135.695923 704.768005 " />
<path stroke-linejoin="round" stroke-linecap="round" stroke="rgb(0,0,255)" stroke-width="1.874998" fill="none" d="M 0.000000 750.000000 L 750.000000 468.750000 " />
<path stroke-linejoin="round" stroke-linecap="round" stroke="rgb(255,0,0)" stroke-width="3.749996" fill="none" d="M 134.020660 699.742249 L 134.902374 702.387390 " />
<path stroke-linejoin="round" stroke-linecap="round" stroke="rgb(0,0,255)" stroke-width="1.874998" fill="none" d="M 0.000000 750.000000 L 750.000000 454.545471 " />
<path stroke-linejoin="round" stroke-linecap="round" stroke="rgb(255,0,0)" stroke-width="3.749996" fill="none" d="M 133.272781 697.498596 L 134.020660 699.742249 " />
<path stroke-linejoin="round" stroke-linecap="round" stroke="rgb(0,0,255)" stroke-width="1.874998" fill="none" d="M 0.000000 750.000000 L 750.000000 435.483917 " />
<path stroke-linejoin="round" stroke-linecap="round" stroke="rgb(255,0,0)" stroke-width="3.749996" fill="none" d="M 132.282196 694.526794 L 133.272781 697.498596 " />
<path stroke-linejoin="round" stroke-linecap="round" stroke="rgb(0,0,255)" stroke-width="1.874998" fill="none" d="M 0.000000 750.000000 L 750.000000 399.999969 " />
<path stroke-linejoin="round" stroke-linecap="round" stroke="rgb(255,0,0)" stroke-width="3.749996" fill="none" d="M 130.476868 689.110840 L 132.282196 694.526794 " />
<path stroke-linejoin="round" stroke-linecap="round" stroke="rgb(0,0,255)" stroke-width="1.874998" fill="none" d="M 0.000000 750.000000 L 750.000000 362.068970 " />
<path stroke-linejoin="round" stroke-linecap="round" stroke="rgb(255,0,0)" stroke-width="3.749996" fill="none" d="M 128.600708 683.482361 L 130.476868 689.110840 " />
<path stroke-linejoin="round" stroke-linecap="round" stroke="rgb(0,0,255)" stroke-width="1.874998" fill="none" d="M 0.000000 750.000000 L 750.000000 349.999969 " />
<path stroke-linejoin="round" stroke-linecap="round" stroke="rgb(255,0,0)" stroke-width="3.749996" fill="none" d="M 128.015015 681.725342 L 128.600708 683.482361 " />
<path stroke-linejoin="round" stroke-linecap="round" stroke="rgb(0,0,255)" stroke-width="1.874998" fill="none" d="M 0.000000 750.000000 L 750.000000 310.344818 " />
<path stroke-linejoin="round" stroke-linecap="round" stroke="rgb(255,0,0)" stroke-width="3.749996" fill="none" d="M 126.127617 676.063110 L 128.015015 681.725342 " />
<path stroke-linejoin="round" stroke-linecap="round" stroke="rgb(0,0,255)" stroke-width="1.874998" fill="none" d="M 0.000000 750.000000 L 750.000000 267.857147 " />
<path stroke-linejoin="round" stroke-linecap="round" stroke="rgb(255,0,0)" stroke-width="3.749996" fill="none" d="M 124.166206 670.178894 L 126.127617 676.063110 " />
<path stroke-linejoin="round" stroke-linecap="round" stroke="rgb(0,0,255)" stroke-width="1.874998" fill="none" d="M 0.000000 750.000000 L 723.214294 0.000000 " />
<path stroke-linejoin="round" stroke-linecap="round" stroke="rgb(255,0,0)" stroke-width="3.749996" fill="none" d="M 118.076431 627.550354 L 124.166206 670.178894 " />
<path stroke-linejoin="round" stroke-linecap="round" stroke="rgb(0,0,255)" stroke-width="1.874998" fill="none" d="M 0.000000 750.000000 L 513.157898 0.000000 " />
<path stroke-linejoin="round" stroke-linecap="round" stroke="rgb(255,0,0)" stroke-width="3.749996" fill="none" d="M 112.152725 586.084473 L 118.076431 627.550354 " />
<path stroke-linejoin="round" stroke-linecap="round" stroke="rgb(0,0,255)" stroke-width="1.874998" fill="none" d="M 0.000000 750.000000 L 421.875000 0.000000 " />
<path stroke-linejoin="round" stroke-linecap="round" stroke="rgb(255,0,0)" stroke-width="3.749996" fill="none" d="M 108.112175 557.800598 L 112.152725 586.084473 " />
<path stroke-linejoin="round" stroke-linecap="round" stroke="rgb(0,0,255)" stroke-width="1.874998" fill="none" d="M 0.000000 750.000000 L 416.666687 0.000000 " />
<path stroke-linejoin="round" stroke-linecap="round" stroke="rgb(255,0,0)" stroke-width="3.749996" fill="none" d="M 107.839149 555.889526 L 108.112175 557.800598 " />
<path stroke-linejoin="round" stroke-linecap="round" stroke="rgb(0,0,255)" stroke-width="1.874998" fill="none" d="M 0.000000 750.000000 L 391.304352 0.000000 " />
<path stroke-linejoin="round" stroke-linecap="round" stroke="rgb(255,0,0)" stroke-width="3.749996" fill="none" d="M 106.428177 546.012695 L 107.839149 555.889587 " />
<path stroke-linejoin="round" stroke-linecap="round" stroke="rgb(0,0,255)" stroke-width="1.874998" fill="none" d="M 0.000000 750.000000 L 334.821411 0.000000 " />
<path stroke-linejoin="round" stroke-linecap="round" stroke="rgb(255,0,0)" stroke-width="3.749996" fill="none" d="M 102.703949 519.943115 L 106.428177 546.012695 " />
<path stroke-linejoin="round" stroke-linecap="round" stroke="rgb(0,0,255)" stroke-width="1.874998" fill="none" d="M 0.000000 750.000000 L 316.666656 0.000000 " />
<path stroke-linejoin="round" stroke-linecap="round" stroke="rgb(255,0,0)" stroke-width="3.749996" fill="none" d="M 100.247116 512.572632 L 102.703949 519.943115 " />
<path stroke-linejoin="round" stroke-linecap="round" stroke="rgb(0,0,255)" stroke-width="1.874998" fill="none" d="M 0.000000 750.000000 L 303.191467 0.000000 " />
<path stroke-linejoin="round" stroke-linecap="round" stroke="rgb(255,0,0)" stroke-width="3.749996" fill="none" d="M 98.319275 506.789185 L 100.247116 512.572632 " />
<path stroke-linejoin="round" stroke-linecap="round" stroke="rgb(0,0,255)" stroke-width="1.874998" fill="none" d="M 0.000000 750.000000 L 281.250000 0.000000 " />
<path stroke-linejoin="round" stroke-linecap="round" stroke="rgb(255,0,0)" stroke-width="3.749996" fill="none" d="M 94.970940 496.744171 L 98.319275 506.789185 " />
<path stroke-linejoin="round" stroke-linecap="round" stroke="rgb(0,0,255)" stroke-width="1.874998" fill="none" d="M 0.000000 750.000000 L 270.000000 0.000000 " />
<path stroke-linejoin="round" stroke-linecap="round" stroke="rgb(255,0,0)" stroke-width="3.749996" fill="none" d="M 93.144577 491.265076 L 94.970917 496.744202 " />
<path stroke-linejoin="round" stroke-linecap="round" stroke="rgb(0,0,255)" stroke-width="1.874998" fill="none" d="M 0.000000 750.000000 L 259.615387 0.000000 " />
<path stroke-linejoin="round" stroke-linecap="round" stroke="rgb(255,0,0)" stroke-width="3.749996" fill="none" d="M 91.387131 485.992767 L 93.144577 491.265076 " />
<path stroke-linejoin="round" stroke-linecap="round" stroke="rgb(0,0,255)" stroke-width="1.874998" fill="none" d="M 0.000000 750.000000 L 240.566025 0.000000 " />
<path stroke-linejoin="round" stroke-linecap="round" stroke="rgb(255,0,0)" stroke-width="3.749996" fill="none" d="M 87.969864 475.740997 L 91.387131 485.992767 " />
<path stroke-linejoin="round" stroke-linecap="round" stroke="rgb(0,0,255)" stroke-width="1.874998" fill="none" d="M 0.000000 750.000000 L 231.818192 0.000000 " />
<path stroke-linejoin="round" stroke-linecap="round" stroke="rgb(255,0,0)" stroke-width="3.749996" fill="none" d="M 86.310066 470.761566 L 87.969864 475.740997 " />
<path stroke-linejoin="round" stroke-linecap="round" stroke="rgb(0,0,255)" stroke-width="1.874998" fill="none" d="M 0.000000 750.000000 L 223.684204 0.000000 " />
<path stroke-linejoin="round" stroke-linecap="round" stroke="rgb(255,0,0)" stroke-width="3.749996" fill="none" d="M 84.711716 465.966583 L 86.310066 470.761566 " />
<path stroke-linejoin="round" stroke-linecap="round" stroke="rgb(0,0,255)" stroke-width="1.874998" fill="none" d="M 0.000000 750.000000 L 214.285721 0.000000 " />
<path stroke-linejoin="round" stroke-linecap="round" stroke="rgb(255,0,0)" stroke-width="3.749996" fill="none" d="M 82.795166 460.216919 L 84.711716 465.966614 " />
<path stroke-linejoin="round" stroke-linecap="round" stroke="rgb(0,0,255)" stroke-width="1.874998" fill="none" d="M 0.000000 750.000000 L 206.896545 0.000000 " />
<path stroke-linejoin="round" stroke-linecap="round" stroke="rgb(255,0,0)" stroke-width="3.749996" fill="none" d="M 81.233002 455.530365 L 82.795166 460.216919 " />
<path stroke-linejoin="round" stroke-linecap="round" stroke="rgb(0,0,255)" stroke-width="1.874998" fill="none" d="M 0.000000 750.000000 L 200.000015 0.000000 " />
<path stroke-linejoin="round" stroke-linecap="round" stroke="rgb(255,0,0)" stroke-width="3.749996" fill="none" d="M 79.728683 451.017456 L 81.233002 455.530365 " />
<path stroke-linejoin="round" stroke-linecap="round" stroke="rgb(0,0,255)" stroke-width="1.874998" fill="none" d="M 0.000000 750.000000 L 193.548386 0.000000 " />
<path stroke-linejoin="round" stroke-linecap="round" stroke="rgb(255,0,0)" stroke-width="3.749996" fill="none" d="M 78.279060 446.668579 L 79.728683 451.017456 " />
<path stroke-linejoin="round" stroke-linecap="round" stroke="rgb(0,0,255)" stroke-width="1.874998" fill="none" d="M 0.000000 750.000000 L 178.571442 0.000000 " />
<path stroke-linejoin="round" stroke-linecap="round" stroke="rgb(255,0,0)" stroke-width="3.749996" fill="none" d="M 74.745651 436.068268 L 78.279083 446.668549 " />
<path stroke-linejoin="round" stroke-linecap="round" stroke="rgb(0,0,255)" stroke-width="1.874998" fill="none" d="M 0.000000 750.000000 L 173.076920 0.000000 " />
<path stroke-linejoin="round" stroke-linecap="round" stroke="rgb(255,0,0)" stroke-width="3.749996" fill="none" d="M 73.386650 431.991211 L 74.745651 436.068268 " />
<path stroke-linejoin="round" stroke-linecap="round" stroke="rgb(0,0,255)" stroke-width="1.874998" fill="none" d="M 0.000000 750.000000 L 169.354858 0.000000 " />
<path stroke-linejoin="round" stroke-linecap="round" stroke="rgb(255,0,0)" stroke-width="3.749996" fill="none" d="M 72.445793 429.168640 L 73.386650 431.991211 " />
<path stroke-linejoin="round" stroke-linecap="round" stroke="rgb(0,0,255)" stroke-width="1.874998" fill="none" d="M 0.000000 750.000000 L 154.761902 0.000000 " />
<path stroke-linejoin="round" stroke-linecap="round" stroke="rgb(255,0,0)" stroke-width="3.749996" fill="none" d="M 68.590141 417.601654 L 72.445793 429.168640 " />
<path stroke-linejoin="round" stroke-linecap="round" stroke="rgb(0,0,255)" stroke-width="1.874998" fill="none" d="M 0.000000 750.000000 L 149.999985 0.000000 " />
<path stroke-linejoin="round" stroke-linecap="round" stroke="rgb(255,0,0)" stroke-width="3.749996" fill="none" d="M 67.271095 413.644562 L 68.590141 417.601654 " />
<path stroke-linejoin="round" stroke-linecap="round" stroke="rgb(0,0,255)" stroke-width="1.874998" fill="none" d="M 0.000000 750.000000 L 136.363647 0.000000 " />
<path stroke-linejoin="round" stroke-linecap="round" stroke="rgb(255,0,0)" stroke-width="3.749996" fill="none" d="M 63.313969 401.773193 L 67.271095 413.644562 " />
<path stroke-linejoin="round" stroke-linecap="round" stroke="rgb(0,0,255)" stroke-width="1.874998" fill="none" d="M 0.000000 750.000000 L 123.134315 0.000000 " />
<path stroke-linejoin="round" stroke-linecap="round" stroke="rgb(255,0,0)" stroke-width="3.749996" fill="none" d="M 59.198566 389.426941 L 63.313969 401.773132 " />
<path stroke-linejoin="round" stroke-linecap="round" stroke="rgb(0,0,255)" stroke-width="1.874998" fill="none" d="M 0.000000 750.000000 L 119.565208 0.000000 " />
<path stroke-linejoin="round" stroke-linecap="round" stroke="rgb(255,0,0)" stroke-width="3.749996" fill="none" d="M 58.037796 385.944672 L 59.198566 389.426941 " />
<path stroke-linejoin="round" stroke-linecap="round" stroke="rgb(0,0,255)" stroke-width="1.874998" fill="none" d="M 0.000000 750.000000 L 107.142853 0.000000 " />
<path stroke-linejoin="round" stroke-linecap="round" stroke="rgb(255,0,0)" stroke-width="3.749996" fill="none" d="M 53.816872 373.281891 L 58.037796 385.944672 " />
<path stroke-linejoin="round" stroke-linecap="round" stroke="rgb(0,0,255)" stroke-width="1.874998" fill="none" d="M 0.000000 750.000000 L 104.166672 0.000000 " />
<path stroke-linejoin="round" stroke-linecap="round" stroke="rgb(255,0,0)" stroke-width="3.749996" fill="none" d="M 52.761642 370.116119 L 53.816872 373.281891 " />
<path stroke-linejoin="round" stroke-linecap="round" stroke="rgb(0,0,255)" stroke-width="1.874998" fill="none" d="M 0.000000 750.000000 L 101.351334 0.000000 " />
<path stroke-linejoin="round" stroke-linecap="round" stroke="rgb(255,0,0)" stroke-width="3.749996" fill="none" d="M 51.747009 367.072174 L 52.761642 370.116089 " />
<path stroke-linejoin="round" stroke-linecap="round" stroke="rgb(0,0,255)" stroke-width="1.874998" fill="none" d="M 0.000000 750.000000 L 98.684212 0.000000 " />
<path stroke-linejoin="round" stroke-linecap="round" stroke="rgb(255,0,0)" stroke-width="3.749996" fill="none" d="M 50.770641 364.143097 L 51.747009 367.072174 " />
<path stroke-linejoin="round" stroke-linecap="round" stroke="rgb(0,0,255)" stroke-width="1.874998" fill="none" d="M 0.000000 750.000000 L 92.465759 0.000000 " />
<path stroke-linejoin="round" stroke-linecap="round" stroke="rgb(255,0,0)" stroke-width="3.749996" fill="none" d="M 48.435196 357.136780 L 50.770641 364.143097 " />
<path stroke-linejoin="round" stroke-linecap="round" stroke="rgb(0,0,255)" stroke-width="1.874998" fill="none" d="M 0.000000 750.000000 L 81.081078 0.000000 " />
<path stroke-linejoin="round" stroke-linecap="round" stroke="rgb(255,0,0)" stroke-width="3.749996" fill="none" d="M 43.932148 343.627594 L 48.435196 357.136780 " />
<path stroke-linejoin="round" stroke-linecap="round" stroke="rgb(0,0,255)" stroke-width="1.874998" fill="none" d="M 0.000000 750.000000 L 78.947380 0.000000 " />
<path stroke-linejoin="round" stroke-linecap="round" stroke="rgb(255,0,0)" stroke-width="3.749996" fill="none" d="M 43.053501 340.991669 L 43.932148 343.627594 " />
<path stroke-linejoin="round" stroke-linecap="round" stroke="rgb(0,0,255)" stroke-width="1.874998" fill="none" d="M 0.000000 750.000000 L 76.923073 0.000000 " />
<path stroke-linejoin="round" stroke-linecap="round" stroke="rgb(255,0,0)" stroke-width="3.749996" fill="none" d="M 42.209320 338.459137 L 43.053501 340.991669 " />
<path stroke-linejoin="round" stroke-linecap="round" stroke="rgb(0,0,255)" stroke-width="1.874998" fill="none" d="M 0.000000 750.000000 L 66.455704 0.000000 " />
<path stroke-linejoin="round" stroke-linecap="round" stroke="rgb(255,0,0)" stroke-width="3.749996" fill="none" d="M 37.693329 324.603912 L 42.209320 338.459137 " />
<path stroke-linejoin="round" stroke-linecap="round" stroke="rgb(0,0,255)" stroke-width="1.874998" fill="none" d="M 0.000000 750.000000 L 56.249992 0.000000 " />
<path stroke-linejoin="round" stroke-linecap="round" stroke="rgb(255,0,0)" stroke-width="3.749996" fill="none" d="M 33.768185 299.757660 L 37.693329 324.603851 " />
<path stroke-linejoin="round" stroke-linecap="round" stroke="rgb(0,0,255)" stroke-width="1.874998" fill="none" d="M 0.000000 750.000000 L 54.878040 0.000000 " />
<path stroke-linejoin="round" stroke-linecap="round" stroke="rgb(255,0,0)" stroke-width="3.749996" fill="none" d="M 33.145687 297.008881 L 33.768185 299.757660 " />
<path stroke-linejoin="round" stroke-linecap="round" stroke="rgb(0,0,255)" stroke-width="1.874998" fill="none" d="M 0.000000 750.000000 L 49.450546 0.000000 " />
<path stroke-linejoin="round" stroke-linecap="round" stroke="rgb(255,0,0)" stroke-width="3.749996" fill="none" d="M 31.048223 279.102020 L 33.145687 297.008881 " />
<path stroke-linejoin="round" stroke-linecap="round" stroke="rgb(0,0,255)" stroke-width="1.874998" fill="none" d="M 0.000000 750.000000 L 43.103455 0.000000 " />
<path stroke-linejoin="round" stroke-linecap="round" stroke="rgb(255,0,0)" stroke-width="3.749996" fill="none" d="M 28.412237 255.626923 L 31.048223 279.102020 " />
<path stroke-linejoin="round" stroke-linecap="round" stroke="rgb(0,0,255)" stroke-width="1.874998" fill="none" d="M 0.000000 750.000000 L 34.090919 0.000000 " />
<path stroke-linejoin="round" stroke-linecap="round" stroke="rgb(255,0,0)" stroke-width="3.749996" fill="none" d="M 24.194218 217.727203 L 28.412237 255.626923 " />
<path stroke-linejoin="round" stroke-linecap="round" stroke="rgb(0,0,255)" stroke-width="1.874998" fill="none" d="M 0.000000 750.000000 L 33.333332 0.000000 " />
<path stroke-linejoin="round" stroke-linecap="round" stroke="rgb(255,0,0)" stroke-width="3.749996" fill="none" d="M 23.809679 214.282043 L 24.194218 217.727203 " />
<path stroke-linejoin="round" stroke-linecap="round" stroke="rgb(0,0,255)" stroke-width="1.874998" fill="none" d="M 0.000000 750.000000 L 32.608688 0.000000 " />
<path stroke-linejoin="round" stroke-linecap="round" stroke="rgb(255,0,0)" stroke-width="3.749996" fill="none" d="M 23.437544 210.936554 L 23.809679 214.282043 " />
<path stroke-linejoin="round" stroke-linecap="round" stroke="rgb(0,0,255)" stroke-width="1.874998" fill="none" d="M 0.000000 750.000000 L 31.914890 0.000000 " />
<path stroke-linejoin="round" stroke-linecap="round" stroke="rgb(255,0,0)" stroke-width="3.749996" fill="none" d="M 23.076921 207.692139 L 23.437544 210.936554 " />
<path stroke-linejoin="round" stroke-linecap="round" stroke="rgb(0,0,255)" stroke-width="1.874998" fill="none" d="M 0.000000 750.000000 L 31.249992 0.000000 " />
<path stroke-linejoin="round" stroke-linecap="round" stroke="rgb(255,0,0)" stroke-width="3.749996" fill="none" d="M 22.727274 204.545395 L 23.076921 207.692139 " />
<path stroke-linejoin="round" stroke-linecap="round" stroke="rgb(0,0,255)" stroke-width="1.874998" fill="none" d="M 0.000000 750.000000 L 29.999994 0.000000 " />
<path stroke-linejoin="round" stroke-linecap="round" stroke="rgb(255,0,0)" stroke-width="3.749996" fill="none" d="M 22.058823 198.529312 L 22.727274 204.545334 " />
<path stroke-linejoin="round" stroke-linecap="round" stroke="rgb(0,0,255)" stroke-width="1.874998" fill="none" d="M 0.000000 750.000000 L 29.411762 0.000000 " />
<path stroke-linejoin="round" stroke-linecap="round" stroke="rgb(255,0,0)" stroke-width="3.749996" fill="none" d="M 21.739124 195.652191 L 22.058823 198.529312 " />
<path stroke-linejoin="round" stroke-linecap="round" stroke="rgb(0,0,255)" stroke-width="1.874998" fill="none" d="M 0.000000 750.000000 L 28.846151 0.000000 " />
<path stroke-linejoin="round" stroke-linecap="round" stroke="rgb(255,0,0)" stroke-width="3.749996" fill="none" d="M 21.428570 192.857132 L 21.739124 195.652191 " />
<path stroke-linejoin="round" stroke-linecap="round" stroke="rgb(0,0,255)" stroke-width="1.874998" fill="none" d="M 0.000000 750.000000 L 28.301888 0.000000 " />
<path stroke-linejoin="round" stroke-linecap="round" stroke="rgb(255,0,0)" stroke-width="3.749996" fill="none" d="M 21.126755 190.140839 L 21.428570 192.857040 " />
<path stroke-linejoin="round" stroke-linecap="round" stroke="rgb(0,0,255)" stroke-width="1.874998" fill="none" d="M 0.000000 750.000000 L 21.028027 0.000000 " />
<path stroke-linejoin="round" stroke-linecap="round" stroke="rgb(255,0,0)" stroke-width="3.749996" fill="none" d="M 16.791054 151.119415 L 21.126755 190.140762 " />
<path stroke-linejoin="round" stroke-linecap="round" stroke="rgb(0,0,255)" stroke-width="1.874998" fill="none" d="M 0.000000 750.000000 L 13.888881 0.000000 " />
<path stroke-linejoin="round" stroke-linecap="round" stroke="rgb(255,0,0)" stroke-width="3.749996" fill="none" d="M 11.904761 107.142876 L 16.791054 151.119415 " />
<path stroke-linejoin="round" stroke-linecap="round" stroke="rgb(0,0,255)" stroke-width="1.874998" fill="none" d="M 0.000000 750.000000 L 6.880738 0.000000 " />
<path stroke-linejoin="round" stroke-linecap="round" stroke="rgb(255,0,0)" stroke-width="3.749996" fill="none" d="M 6.355941 57.203362 L 11.904761 107.142876 " />
<path stroke-linejoin="round" stroke-linecap="round" stroke="rgb(0,0,255)" stroke-width="1.874998" fill="none" d="M 0.000000 750.000000 L 0.000000 0.000000 " />
<path stroke-linejoin="round" stroke-linecap="round" stroke="rgb(255,0,0)" stroke-width="3.749996" fill="none" d="M 0.000000 0.000000 L 6.355941 57.203362 " />
<circle cx="149.613395" cy="746.520638" r="3.749996" style="fill:rgb(0,127,0);stroke-width:1" /><circle cx="148.417376" cy="742.932513" r="3.749996" style="fill:rgb(0,127,0);stroke-width:1" /><circle cx="147.183359" cy="739.230484" r="3.749996" style="fill:rgb(0,127,0);stroke-width:1" /><circle cx="145.909555" cy="735.409051" r="3.749996" style="fill:rgb(0,127,0);stroke-width:1" /><circle cx="144.593999" cy="731.462315" r="3.749996" style="fill:rgb(0,127,0);stroke-width:1" /><circle cx="143.234566" cy="727.384016" r="3.749996" style="fill:rgb(0,127,0);stroke-width:1" /><circle cx="142.261840" cy="724.465817" r="3.749996" style="fill:rgb(0,127,0);stroke-width:1" /><circle cx="141.829066" cy="723.167472" r="3.749996" style="fill:rgb(0,127,0);stroke-width:1" /><circle cx="140.886471" cy="720.339686" r="3.749996" style="fill:rgb(0,127,0);stroke-width:1" /><circle cx="140.375085" cy="718.805529" r="3.749996" style="fill:rgb(0,127,0);stroke-width:1" /><circle cx="138.870098" cy="714.290544" r="3.749996" style="fill:rgb(0,127,0);stroke-width:1" /><circle cx="137.311354" cy="709.614314" r="3.749996" style="fill:rgb(0,127,0);stroke-width:1" /><circle cx="136.475779" cy="707.107611" r="3.749996" style="fill:rgb(0,127,0);stroke-width:1" /><circle cx="135.695927" cy="704.768032" r="3.749996" style="fill:rgb(0,127,0);stroke-width:1" /><circle cx="134.902373" cy="702.387393" r="3.749996" style="fill:rgb(0,127,0);stroke-width:1" /><circle cx="134.020664" cy="699.742243" r="3.749996" style="fill:rgb(0,127,0);stroke-width:1" /><circle cx="133.272775" cy="697.498597" r="3.749996" style="fill:rgb(0,127,0);stroke-width:1" /><circle cx="132.282190" cy="694.526821" r="3.749996" style="fill:rgb(0,127,0);stroke-width:1" /><circle cx="130.476862" cy="689.110793" r="3.749996" style="fill:rgb(0,127,0);stroke-width:1" /><circle cx="128.600702" cy="683.482401" r="3.749996" style="fill:rgb(0,127,0);stroke-width:1" /><circle cx="128.015019" cy="681.725331" r="3.749996" style="fill:rgb(0,127,0);stroke-width:1" /><circle cx="126.127616" cy="676.063120" r="3.749996" style="fill:rgb(0,127,0);stroke-width:1" /><circle cx="124.166206" cy="670.178868" r="3.749996" style="fill:rgb(0,127,0);stroke-width:1" /><circle cx="118.076429" cy="627.550386" r="3.749996" style="fill:rgb(0,127,0);stroke-width:1" /><circle cx="112.152725" cy="586.084463" r="3.749996" style="fill:rgb(0,127,0);stroke-width:1" /><circle cx="108.112179" cy="557.800569" r="3.749996" style="fill:rgb(0,127,0);stroke-width:1" /><circle cx="107.839152" cy="555.889539" r="3.749996" style="fill:rgb(0,127,0);stroke-width:1" /><circle cx="106.428176" cy="546.012674" r="3.749996" style="fill:rgb(0,127,0);stroke-width:1" /><circle cx="102.703951" cy="519.943144" r="3.749996" style="fill:rgb(0,127,0);stroke-width:1" /><circle cx="100.247115" cy="512.572646" r="3.749996" style="fill:rgb(0,127,0);stroke-width:1" /><circle cx="98.319277" cy="506.789178" r="3.749996" style="fill:rgb(0,127,0);stroke-width:1" /><circle cx="94.970942" cy="496.744182" r="3.749996" style="fill:rgb(0,127,0);stroke-width:1" /><circle cx="93.144581" cy="491.265088" r="3.749996" style="fill:rgb(0,127,0);stroke-width:1" /><circle cx="91.387130" cy="485.992759" r="3.749996" style="fill:rgb(0,127,0);stroke-width:1" /><circle cx="87.969862" cy="475.740999" r="3.749996" style="fill:rgb(0,127,0);stroke-width:1" /><circle cx="86.310066" cy="470.761567" r="3.749996" style="fill:rgb(0,127,0);stroke-width:1" /><circle cx="84.711716" cy="465.966599" r="3.749996" style="fill:rgb(0,127,0);stroke-width:1" /><circle cx="82.795165" cy="460.216926" r="3.749996" style="fill:rgb(0,127,0);stroke-width:1" /><circle cx="81.233002" cy="455.530375" r="3.749996" style="fill:rgb(0,127,0);stroke-width:1" /><circle cx="79.728685" cy="451.017452" r="3.749996" style="fill:rgb(0,127,0);stroke-width:1" /><circle cx="78.279063" cy="446.668591" r="3.749996" style="fill:rgb(0,127,0);stroke-width:1" /><circle cx="74.745655" cy="436.068250" r="3.749996" style="fill:rgb(0,127,0);stroke-width:1" /><circle cx="73.386647" cy="431.991220" r="3.749996" style="fill:rgb(0,127,0);stroke-width:1" /><circle cx="72.445795" cy="429.168642" r="3.749996" style="fill:rgb(0,127,0);stroke-width:1" /><circle cx="68.590142" cy="417.601668" r="3.749996" style="fill:rgb(0,127,0);stroke-width:1" /><circle cx="67.271098" cy="413.644552" r="3.749996" style="fill:rgb(0,127,0);stroke-width:1" /><circle cx="63.313968" cy="401.773168" r="3.749996" style="fill:rgb(0,127,0);stroke-width:1" /><circle cx="59.198566" cy="389.426923" r="3.749996" style="fill:rgb(0,127,0);stroke-width:1" /><circle cx="58.037795" cy="385.944664" r="3.749996" style="fill:rgb(0,127,0);stroke-width:1" /><circle cx="53.816870" cy="373.281884" r="3.749996" style="fill:rgb(0,127,0);stroke-width:1" /><circle cx="52.761644" cy="370.116127" r="3.749996" style="fill:rgb(0,127,0);stroke-width:1" /><circle cx="51.747009" cy="367.072177" r="3.749996" style="fill:rgb(0,127,0);stroke-width:1" /><circle cx="50.770640" cy="364.143098" r="3.749996" style="fill:rgb(0,127,0);stroke-width:1" /><circle cx="48.435196" cy="357.136774" r="3.749996" style="fill:rgb(0,127,0);stroke-width:1" /><circle cx="43.932147" cy="343.627595" r="3.749996" style="fill:rgb(0,127,0);stroke-width:1" /><circle cx="43.053500" cy="340.991663" r="3.749996" style="fill:rgb(0,127,0);stroke-width:1" /><circle cx="42.209320" cy="338.459121" r="3.749996" style="fill:rgb(0,127,0);stroke-width:1" /><circle cx="37.693329" cy="324.603902" r="3.749996" style="fill:rgb(0,127,0);stroke-width:1" /><circle cx="33.768184" cy="299.757672" r="3.749996" style="fill:rgb(0,127,0);stroke-width:1" /><circle cx="33.145688" cy="297.008872" r="3.749996" style="fill:rgb(0,127,0);stroke-width:1" /><circle cx="31.048223" cy="279.102020" r="3.749996" style="fill:rgb(0,127,0);stroke-width:1" /><circle cx="28.412238" cy="255.626924" r="3.749996" style="fill:rgb(0,127,0);stroke-width:1" /><circle cx="24.194218" cy="217.727210" r="3.749996" style="fill:rgb(0,127,0);stroke-width:1" /><circle cx="23.809679" cy="214.282036" r="3.749996" style="fill:rgb(0,127,0);stroke-width:1" /><circle cx="23.437545" cy="210.936572" r="3.749996" style="fill:rgb(0,127,0);stroke-width:1" /><circle cx="23.076922" cy="207.692139" r="3.749996" style="fill:rgb(0,127,0);stroke-width:1" /><circle cx="22.727273" cy="204.545405" r="3.749996" style="fill:rgb(0,127,0);stroke-width:1" /><circle cx="22.058822" cy="198.529311" r="3.749996" style="fill:rgb(0,127,0);stroke-width:1" /><circle cx="21.739125" cy="195.652194" r="3.749996" style="fill:rgb(0,127,0);stroke-width:1" /><circle cx="21.428570" cy="192.857120" r="3.749996" style="fill:rgb(0,127,0);stroke-width:1" /><circle cx="21.126755" cy="190.140836" r="3.749996" style="fill:rgb(0,127,0);stroke-width:1" /><circle cx="16.791053" cy="151.119411" r="3.749996" style="fill:rgb(0,127,0);stroke-width:1" /><circle cx="11.904761" cy="107.142873" r="3.749996" style="fill:rgb(0,127,0);stroke-width:1" /><circle cx="6.355941" cy="57.203360" r="3.749996" style="fill:rgb(0,127,0);stroke-width:1" /><circle cx="750.000000" cy="750.000000" r="3.749996" style="fill:rgb(0,127,0);stroke-width:1" /><path stroke-linejoin="round" stroke-linecap="round" stroke="rgb(255,255,255)" stroke-width="3.749996" fill="none" d="M 0.000000 750.000000 L 750.000000 750.000000 M 0.000000 750.000000 L 0.000000 0.000000 " />

</svg>