<svg xmlns="http://www.w3.org/2000/svg" version="1.1" width = "750" height = "750" viewBox = "0 0 750 750"  shape-rendering="crispEdges">
<path stroke-linejoin="round" stroke-linecap="round" stroke="rgb(255,255,0)" stroke-width="3.749996" fill="none" d="M 124.999992 750.000000 L 0.000000 0.000000 " />
<path stroke-linejoin="round" stroke-linecap="round" stroke="rgb(63,63,63)" stroke-width="3.749996" fill="none" d="M 0.000000 0.000000 L 750.000000 750.000000 M 124.999992 750.000000 L 56.818172 0.000000 " />
<path stroke-linejoin="round" stroke-linecap="round" stroke="rgb(191,191,191)" stroke-width="3.749996" fill="none" d="M 0.000000 625.000000 L 124.999992 750.000000 M 0.000000 0.000000 L 68.181824 750.000000 " />
<path stroke-linejoin="round" stroke-linecap="round" stroke="rgb(0,0,255)" stroke-width="1.874998" fill="none" d="M 0.000000 750.000000 L 750.000000 571.428589 " />
<path stroke-linejoin="round" stroke-linecap="round" stroke="rgb(255,0,0)" stroke-width="3.749996" fill="none" d="M 122.351692 720.868591 L 124.999992 750.000000 " />
<path stroke-linejoin="round" stroke-linecap="round" stroke="rgb(0,0,255)" stroke-width="1.874998" fill="none" d="M 0.000000 750.000000 L 750.000000 548.780518 " />
<path stroke-linejoin="round" stroke-linecap="round" stroke="rgb(255,0,0)" stroke-width="3.749996" fill="none" d="M 122.023811 717.261902 L 122.351692 720.868591 " />
<path stroke-linejoin="round" stroke-linecap="round" stroke="rgb(0,0,255)" stroke-width="1.874998" fill="none" d="M 0.000000 750.000000 L 750.000000 356.250031 " />
<path stroke-linejoin="round" stroke-linecap="round" stroke="rgb(255,0,0)" stroke-width="3.749996" fill="none" d="M 119.305862 687.364441 L 122.023811 717.261902 " />
<path stroke-linejoin="round" stroke-linecap="round" stroke="rgb(0,0,255)" stroke-width="1.874998" fill="none" d="M 0.000000 750.000000 L 750.000000 347.560944 " />
<path stroke-linejoin="round" stroke-linecap="round" stroke="rgb(255,0,0)" stroke-width="3.749996" fill="none" d="M 119.186058 686.046509 L 119.305862 687.364441 " />
<path stroke-linejoin="round" stroke-linecap="round" stroke="rgb(0,0,255)" stroke-width="1.874998" fill="none" d="M 0.000000 750.000000 L 750.000000 153.846146 " />
<path stroke-linejoin="round" stroke-linecap="round" stroke="rgb(255,0,0)" stroke-width="3.749996" fill="none" d="M 116.576088 657.336975 L 119.186035 686.046509 " />
<path stroke-linejoin="round" stroke-linecap="round" stroke="rgb(0,0,255)" stroke-width="1.874998" fill="none" d="M 0.000000 750.000000 L 695.121887 0.000000 " />
<path stroke-linejoin="round" stroke-linecap="round" stroke="rgb(255,0,0)" stroke-width="3.749996" fill="none" d="M 113.834427 627.178589 L 116.576088 657.336975 " />
<path stroke-linejoin="round" stroke-linecap="round" stroke="rgb(0,0,255)" stroke-width="1.874998" fill="none" d="M 0.000000 750.000000 L 573.529419 0.000000 " />
<path stroke-linejoin="round" stroke-linecap="round" stroke="rgb(255,0,0)" stroke-width="3.749996" fill="none" d="M 111.718742 603.906250 L 113.834427 627.178589 " />
<path stroke-linejoin="round" stroke-linecap="round" stroke="rgb(0,0,255)" stroke-width="1.874998" fill="none" d="M 0.000000 750.000000 L 544.117676 0.000000 " />
<path stroke-linejoin="round" stroke-linecap="round" stroke="rgb(255,0,0)" stroke-width="3.749996" fill="none" d="M 111.080780 596.888672 L 111.718742 603.906250 " />
<path stroke-linejoin="round" stroke-linecap="round" stroke="rgb(0,0,255)" stroke-width="1.874998" fill="none" d="M 0.000000 750.000000 L 467.213135 0.000000 " />
<path stroke-linejoin="round" stroke-linecap="round" stroke="rgb(255,0,0)" stroke-width="3.749996" fill="none" d="M 109.081421 574.895630 L 111.080780 596.888672 " />
<path stroke-linejoin="round" stroke-linecap="round" stroke="rgb(0,0,255)" stroke-width="1.874998" fill="none" d="M 0.000000 750.000000 L 442.622955 0.000000 " />
<path stroke-linejoin="round" stroke-linecap="round" stroke="rgb(255,0,0)" stroke-width="3.749996" fill="none" d="M 108.315086 566.466064 L 109.081421 574.895630 " />
<path stroke-linejoin="round" stroke-linecap="round" stroke="rgb(0,0,255)" stroke-width="1.874998" fill="none" d="M 0.000000 750.000000 L 390.845062 0.000000 " />
<path stroke-linejoin="round" stroke-linecap="round" stroke="rgb(255,0,0)" stroke-width="3.749996" fill="none" d="M 106.433052 545.763611 L 108.315086 566.466064 " />
<path stroke-linejoin="round" stroke-linecap="round" stroke="rgb(0,0,255)" stroke-width="1.874998" fill="none" d="M 0.000000 750.000000 L 387.500031 0.000000 " />
<path stroke-linejoin="round" stroke-linecap="round" stroke="rgb(255,0,0)" stroke-width="3.749996" fill="none" d="M 106.296745 544.264343 L 106.433052 545.763611 " />
<path stroke-linejoin="round" stroke-linecap="round" stroke="rgb(0,0,255)" stroke-width="1.874998" fill="none" d="M 0.000000 750.000000 L 342.857147 0.000000 " />
<path stroke-linejoin="round" stroke-linecap="round" stroke="rgb(255,0,0)" stroke-width="3.749996" fill="none" d="M 104.265396 521.919434 L 106.296745 544.264343 " />
<path stroke-linejoin="round" stroke-linecap="round" stroke="rgb(0,0,255)" stroke-width="1.874998" fill="none" d="M 0.000000 750.000000 L 328.947357 0.000000 " />
<path stroke-linejoin="round" stroke-linecap="round" stroke="rgb(255,0,0)" stroke-width="3.749996" fill="none" d="M 101.324982 518.979065 L 104.265396 521.919495 " />
<path stroke-linejoin="round" stroke-linecap="round" stroke="rgb(0,0,255)" stroke-width="1.874998" fill="none" d="M 0.000000 750.000000 L 310.344818 0.000000 " />
<path stroke-linejoin="round" stroke-linecap="round" stroke="rgb(255,0,0)" stroke-width="3.749996" fill="none" d="M 97.271988 514.926086 L 101.324982 518.979065 " />
<path stroke-linejoin="round" stroke-linecap="round" stroke="rgb(0,0,255)" stroke-width="1.874998" fill="none" d="M 0.000000 750.000000 L 292.372864 0.000000 " />
<path stroke-linejoin="round" stroke-linecap="round" stroke="rgb(255,0,0)" stroke-width="3.749996" fill="none" d="M 93.218964 510.873077 L 97.271988 514.926086 " />
<path stroke-linejoin="round" stroke-linecap="round" stroke="rgb(0,0,255)" stroke-width="1.874998" fill="none" d="M 0.000000 750.000000 L 275.735291 0.000000 " />
<path stroke-linejoin="round" stroke-linecap="round" stroke="rgb(255,0,0)" stroke-width="3.749996" fill="none" d="M 92.167320 499.304871 L 93.218964 510.873077 " />
<path stroke-linejoin="round" stroke-linecap="round" stroke="rgb(0,0,255)" stroke-width="1.874998" fill="none" d="M 0.000000 750.000000 L 266.129059 0.000000 " />
<path stroke-linejoin="round" stroke-linecap="round" stroke="rgb(255,0,0)" stroke-width="3.749996" fill="none" d="M 89.797318 496.934875 L 92.167320 499.304871 " />
<path stroke-linejoin="round" stroke-linecap="round" stroke="rgb(0,0,255)" stroke-width="1.874998" fill="none" d="M 0.000000 750.000000 L 257.812500 0.000000 " />
<path stroke-linejoin="round" stroke-linecap="round" stroke="rgb(255,0,0)" stroke-width="3.749996" fill="none" d="M 87.708992 494.846497 L 89.797318 496.934845 " />
<path stroke-linejoin="round" stroke-linecap="round" stroke="rgb(0,0,255)" stroke-width="1.874998" fill="none" d="M 0.000000 750.000000 L 242.307678 0.000000 " />
<path stroke-linejoin="round" stroke-linecap="round" stroke="rgb(255,0,0)" stroke-width="3.749996" fill="none" d="M 83.722229 490.859772 L 87.709015 494.846497 " />
<path stroke-linejoin="round" stroke-linecap="round" stroke="rgb(0,0,255)" stroke-width="1.874998" fill="none" d="M 0.000000 750.000000 L 235.074631 0.000000 " />
<path stroke-linejoin="round" stroke-linecap="round" stroke="rgb(255,0,0)" stroke-width="3.749996" fill="none" d="M 81.819443 488.957001 L 83.722229 490.859772 " />
<path stroke-linejoin="round" stroke-linecap="round" stroke="rgb(0,0,255)" stroke-width="1.874998" fill="none" d="M 0.000000 750.000000 L 228.260864 0.000000 " />
<path stroke-linejoin="round" stroke-linecap="round" stroke="rgb(255,0,0)" stroke-width="3.749996" fill="none" d="M 80.001244 487.138763 L 81.819443 488.957001 " />
<path stroke-linejoin="round" stroke-linecap="round" stroke="rgb(0,0,255)" stroke-width="1.874998" fill="none" d="M 0.000000 750.000000 L 214.285721 0.000000 " />
<path stroke-linejoin="round" stroke-linecap="round" stroke="rgb(255,0,0)" stroke-width="3.749996" fill="none" d="M 76.191658 483.329193 L 80.001244 487.138763 " />
<path stroke-linejoin="round" stroke-linecap="round" stroke="rgb(0,0,255)" stroke-width="1.874998" fill="none" d="M 0.000000 750.000000 L 200.704224 0.000000 " />
<path stroke-linejoin="round" stroke-linecap="round" stroke="rgb(255,0,0)" stroke-width="3.749996" fill="none" d="M 72.382072 479.519653 L 76.191658 483.329193 " />
<path stroke-linejoin="round" stroke-linecap="round" stroke="rgb(0,0,255)" stroke-width="1.874998" fill="none" d="M 0.000000 750.000000 L 187.500000 0.000000 " />
<path stroke-linejoin="round" stroke-linecap="round" stroke="rgb(255,0,0)" stroke-width="3.749996" fill="none" d="M 68.572487 475.710052 L 72.382072 479.519653 " />
<path stroke-linejoin="round" stroke-linecap="round" stroke="rgb(0,0,255)" stroke-width="1.874998" fill="none" d="M 0.000000 750.000000 L 174.657532 0.000000 " />
<path stroke-linejoin="round" stroke-linecap="round" stroke="rgb(255,0,0)" stroke-width="3.749996" fill="none" d="M 64.762901 471.900482 L 68.572487 475.710052 " />
<path stroke-linejoin="round" stroke-linecap="round" stroke="rgb(0,0,255)" stroke-width="1.874998" fill="none" d="M 0.000000 750.000000 L 162.162155 0.000000 " />
<path stroke-linejoin="round" stroke-linecap="round" stroke="rgb(255,0,0)" stroke-width="3.749996" fill="none" d="M 60.953335 468.090881 L 64.762901 471.900482 " />
<path stroke-linejoin="round" stroke-linecap="round" stroke="rgb(0,0,255)" stroke-width="1.874998" fill="none" d="M 0.000000 750.000000 L 149.999985 0.000000 " />
<path stroke-linejoin="round" stroke-linecap="round" stroke="rgb(255,0,0)" stroke-width="3.749996" fill="none" d="M 57.143749 464.281311 L 60.953335 468.090881 " />
<path stroke-linejoin="round" stroke-linecap="round" stroke="rgb(0,0,255)" stroke-width="1.874998" fill="none" d="M 0.000000 750.000000 L 138.157898 0.000000 " />
<path stroke-linejoin="round" stroke-linecap="round" stroke="rgb(255,0,0)" stroke-width="3.749996" fill="none" d="M 53.334160 460.471710 L 57.143749 464.281311 " />
<path stroke-linejoin="round" stroke-linecap="round" stroke="rgb(0,0,255)" stroke-width="1.874998" fill="none" d="M 0.000000 750.000000 L 134.615372 0.000000 " />
<path stroke-linejoin="round" stroke-linecap="round" stroke="rgb(255,0,0)" stroke-width="3.749996" fill="none" d="M 52.174709 459.312286 L 53.334160 460.471710 " />
<path stroke-linejoin="round" stroke-linecap="round" stroke="rgb(0,0,255)" stroke-width="1.874998" fill="none" d="M 0.000000 750.000000 L 123.417732 0.000000 " />
<path stroke-linejoin="round" stroke-linecap="round" stroke="rgb(255,0,0)" stroke-width="3.749996" fill="none" d="M 48.447960 455.585541 L 52.174709 459.312286 " />
<path stroke-linejoin="round" stroke-linecap="round" stroke="rgb(0,0,255)" stroke-width="1.874998" fill="none" d="M 0.000000 750.000000 L 120.370392 0.000000 " />
<path stroke-linejoin="round" stroke-linecap="round" stroke="rgb(255,0,0)" stroke-width="3.749996" fill="none" d="M 47.417141 454.554718 L 48.447960 455.585541 " />
<path stroke-linejoin="round" stroke-linecap="round" stroke="rgb(0,0,255)" stroke-width="1.874998" fill="none" d="M 0.000000 750.000000 L 109.756081 0.000000 " />
<path stroke-linejoin="round" stroke-linecap="round" stroke="rgb(255,0,0)" stroke-width="3.749996" fill="none" d="M 43.769672 450.907227 L 47.417141 454.554718 " />
<path stroke-linejoin="round" stroke-linecap="round" stroke="rgb(0,0,255)" stroke-width="1.874998" fill="none" d="M 0.000000 750.000000 L 99.397591 0.000000 " />
<path stroke-linejoin="round" stroke-linecap="round" stroke="rgb(255,0,0)" stroke-width="3.749996" fill="none" d="M 40.441162 444.852997 L 43.769672 450.907288 " />
<path stroke-linejoin="round" stroke-linecap="round" stroke="rgb(0,0,255)" stroke-width="1.874998" fill="none" d="M 0.000000 750.000000 L 89.285728 0.000000 " />
<path stroke-linejoin="round" stroke-linecap="round" stroke="rgb(255,0,0)" stroke-width="3.749996" fill="none" d="M 38.659798 425.257751 L 40.441162 444.852997 " />
<path stroke-linejoin="round" stroke-linecap="round" stroke="rgb(0,0,255)" stroke-width="1.874998" fill="none" d="M 0.000000 750.000000 L 87.209297 0.000000 " />
<path stroke-linejoin="round" stroke-linecap="round" stroke="rgb(255,0,0)" stroke-width="3.749996" fill="none" d="M 38.265289 420.918396 L 38.659798 425.257751 " />
<path stroke-linejoin="round" stroke-linecap="round" stroke="rgb(0,0,255)" stroke-width="1.874998" fill="none" d="M 0.000000 750.000000 L 85.227280 0.000000 " />
<path stroke-linejoin="round" stroke-linecap="round" stroke="rgb(255,0,0)" stroke-width="3.749996" fill="none" d="M 37.878780 416.666687 L 38.265289 420.918396 " />
<path stroke-linejoin="round" stroke-linecap="round" stroke="rgb(0,0,255)" stroke-width="1.874998" fill="none" d="M 0.000000 750.000000 L 79.411758 0.000000 " />
<path stroke-linejoin="round" stroke-linecap="round" stroke="rgb(255,0,0)" stroke-width="3.749996" fill="none" d="M 36.684772 403.532654 L 37.878780 416.666687 " />
<path stroke-linejoin="round" stroke-linecap="round" stroke="rgb(0,0,255)" stroke-width="1.874998" fill="none" d="M 0.000000 750.000000 L 77.586205 0.000000 " />
<path stroke-linejoin="round" stroke-linecap="round" stroke="rgb(255,0,0)" stroke-width="3.749996" fill="none" d="M 36.290310 399.193604 L 36.684772 403.532654 " />
<path stroke-linejoin="round" stroke-linecap="round" stroke="rgb(0,0,255)" stroke-width="1.874998" fill="none" d="M 0.000000 750.000000 L 68.181824 0.000000 " />
<path stroke-linejoin="round" stroke-linecap="round" stroke="rgb(255,0,0)" stroke-width="3.749996" fill="none" d="M 34.090900 375.000031 L 36.290310 399.193604 " />
<path stroke-linejoin="round" stroke-linecap="round" stroke="rgb(0,0,255)" stroke-width="1.874998" fill="none" d="M 0.000000 750.000000 L 66.666664 0.000000 " />
<path stroke-linejoin="round" stroke-linecap="round" stroke="rgb(255,0,0)" stroke-width="3.749996" fill="none" d="M 33.707855 370.786591 L 34.090900 375.000031 " />
<path stroke-linejoin="round" stroke-linecap="round" stroke="rgb(0,0,255)" stroke-width="1.874998" fill="none" d="M 0.000000 750.000000 L 63.829781 0.000000 " />
<path stroke-linejoin="round" stroke-linecap="round" stroke="rgb(255,0,0)" stroke-width="3.749996" fill="none" d="M 32.967030 362.637421 L 33.707855 370.786591 " />
<path stroke-linejoin="round" stroke-linecap="round" stroke="rgb(0,0,255)" stroke-width="1.874998" fill="none" d="M 0.000000 750.000000 L 62.500008 0.000000 " />
<path stroke-linejoin="round" stroke-linecap="round" stroke="rgb(255,0,0)" stroke-width="3.749996" fill="none" d="M 32.608688 358.695679 L 32.967030 362.637421 " />
<path stroke-linejoin="round" stroke-linecap="round" stroke="rgb(0,0,255)" stroke-width="1.874998" fill="none" d="M 0.000000 750.000000 L 61.224483 0.000000 " />
<path stroke-linejoin="round" stroke-linecap="round" stroke="rgb(255,0,0)" stroke-width="3.749996" fill="none" d="M 32.258057 354.838745 L 32.608688 358.695679 " />
<path stroke-linejoin="round" stroke-linecap="round" stroke="rgb(0,0,255)" stroke-width="1.874998" fill="none" d="M 0.000000 750.000000 L 59.999989 0.000000 " />
<path stroke-linejoin="round" stroke-linecap="round" stroke="rgb(255,0,0)" stroke-width="3.749996" fill="none" d="M 31.914890 351.063873 L 32.258057 354.838745 " />
<path stroke-linejoin="round" stroke-linecap="round" stroke="rgb(0,0,255)" stroke-width="1.874998" fill="none" d="M 0.000000 750.000000 L 58.823524 0.000000 " />
<path stroke-linejoin="round" stroke-linecap="round" stroke="rgb(255,0,0)" stroke-width="3.749996" fill="none" d="M 31.578943 347.368500 L 31.914890 351.063873 " />
<path stroke-linejoin="round" stroke-linecap="round" stroke="rgb(0,0,255)" stroke-width="1.874998" fill="none" d="M 0.000000 750.000000 L 57.692303 0.000000 " />
<path stroke-linejoin="round" stroke-linecap="round" stroke="rgb(255,0,0)" stroke-width="3.749996" fill="none" d="M 31.249992 343.750061 L 31.578943 347.368500 " />
<path stroke-linejoin="round" stroke-linecap="round" stroke="rgb(0,0,255)" stroke-width="1.874998" fill="none" d="M 0.000000 750.000000 L 56.451603 0.000000 " />
<path stroke-linejoin="round" stroke-linecap="round" stroke="rgb(255,0,0)" stroke-width="3.749996" fill="none" d="M 30.882351 339.705902 L 31.249992 343.750061 " />
<path stroke-linejoin="round" stroke-linecap="round" stroke="rgb(0,0,255)" stroke-width="1.874998" fill="none" d="M 0.000000 750.000000 L 47.872334 0.000000 " />
<path stroke-linejoin="round" stroke-linecap="round" stroke="rgb(255,0,0)" stroke-width="3.749996" fill="none" d="M 28.124996 309.375031 L 30.882351 339.705902 " />
<path stroke-linejoin="round" stroke-linecap="round" stroke="rgb(0,0,255)" stroke-width="1.874998" fill="none" d="M 0.000000 750.000000 L 46.875000 0.000000 " />
<path stroke-linejoin="round" stroke-linecap="round" stroke="rgb(255,0,0)" stroke-width="3.749996" fill="none" d="M 27.777784 305.555634 L 28.124996 309.375031 " />
<path stroke-linejoin="round" stroke-linecap="round" stroke="rgb(0,0,255)" stroke-width="1.874998" fill="none" d="M 0.000000 750.000000 L 39.473690 0.000000 " />
<path stroke-linejoin="round" stroke-linecap="round" stroke="rgb(255,0,0)" stroke-width="3.749996" fill="none" d="M 24.999998 275.000061 L 27.777784 305.555634 " />
<path stroke-linejoin="round" stroke-linecap="round" stroke="rgb(0,0,255)" stroke-width="1.874998" fill="none" d="M 0.000000 750.000000 L 31.249992 0.000000 " />
<path stroke-linejoin="round" stroke-linecap="round" stroke="rgb(255,0,0)" stroke-width="3.749996" fill="none" d="M 21.428570 235.714355 L 24.999998 275.000061 " />
<path stroke-linejoin="round" stroke-linecap="round" stroke="rgb(0,0,255)" stroke-width="1.874998" fill="none" d="M 0.000000 750.000000 L 30.612253 0.000000 " />
<path stroke-linejoin="round" stroke-linecap="round" stroke="rgb(255,0,0)" stroke-width="3.749996" fill="none" d="M 21.126755 232.394409 L 21.428570 235.714355 " />
<path stroke-linejoin="round" stroke-linecap="round" stroke="rgb(0,0,255)" stroke-width="1.874998" fill="none" d="M 0.000000 750.000000 L 29.999994 0.000000 " />
<path stroke-linejoin="round" stroke-linecap="round" stroke="rgb(255,0,0)" stroke-width="3.749996" fill="none" d="M 20.833321 229.166733 L 21.126755 232.394409 " />
<path stroke-linejoin="round" stroke-linecap="round" stroke="rgb(0,0,255)" stroke-width="1.874998" fill="none" d="M 0.000000 750.000000 L 28.846151 0.000000 " />
<path stroke-linejoin="round" stroke-linecap="round" stroke="rgb(255,0,0)" stroke-width="3.749996" fill="none" d="M 20.270258 222.973068 L 20.833321 229.166733 " />
<path stroke-linejoin="round" stroke-linecap="round" stroke="rgb(0,0,255)" stroke-width="1.874998" fill="none" d="M 0.000000 750.000000 L 28.301888 0.000000 " />
<path stroke-linejoin="round" stroke-linecap="round" stroke="rgb(255,0,0)" stroke-width="3.749996" fill="none" d="M 20.000004 220.000107 L 20.270258 222.973068 " />
<path stroke-linejoin="round" stroke-linecap="round" stroke="rgb(0,0,255)" stroke-width="1.874998" fill="none" d="M 0.000000 750.000000 L 27.777784 0.000000 " />
<path stroke-linejoin="round" stroke-linecap="round" stroke="rgb(255,0,0)" stroke-width="3.749996" fill="none" d="M 19.736834 217.105331 L 20.000004 220.000107 " />
<path stroke-linejoin="round" stroke-linecap="round" stroke="rgb(0,0,255)" stroke-width="1.874998" fill="none" d="M 0.000000 750.000000 L 27.272724 0.000000 " />
<path stroke-linejoin="round" stroke-linecap="round" stroke="rgb(255,0,0)" stroke-width="3.749996" fill="none" d="M 19.480526 214.285797 L 19.736834 217.105331 " />
<path stroke-linejoin="round" stroke-linecap="round" stroke="rgb(0,0,255)" stroke-width="1.874998" fill="none" d="M 0.000000 750.000000 L 21.844669 0.000000 " />
<path stroke-linejoin="round" stroke-linecap="round" stroke="rgb(255,0,0)" stroke-width="3.749996" fill="none" d="M 16.544111 181.985382 L 19.480526 214.285797 " />
<path stroke-linejoin="round" stroke-linecap="round" stroke="rgb(0,0,255)" stroke-width="1.874998" fill="none" d="M 0.000000 750.000000 L 14.423087 0.000000 " />
<path stroke-linejoin="round" stroke-linecap="round" stroke="rgb(255,0,0)" stroke-width="3.749996" fill="none" d="M 11.904761 130.952423 L 16.544111 181.985382 " />
<path stroke-linejoin="round" stroke-linecap="round" stroke="rgb(0,0,255)" stroke-width="1.874998" fill="none" d="M 0.000000 750.000000 L 7.142857 0.000000 " />
<path stroke-linejoin="round" stroke-linecap="round" stroke="rgb(255,0,0)" stroke-width="3.749996" fill="none" d="M 6.465509 71.120743 L 11.904761 130.952423 " />
<path stroke-linejoin="round" stroke-linecap="round" stroke="rgb(0,0,255)" stroke-width="1.874998" fill="none" d="M 0.000000 750.000000 L 0.000000 0.000000 " />
<path stroke-linejoin="round" stroke-linecap="round" stroke="rgb(255,0,0)" stroke-width="3.749996" fill="none" d="M 0.000000 0.000000 L 6.465509 71.120743 " />
<circle cx="122.351691" cy="720.868640" r="3.749996" style="fill:rgb(0,127,0);stroke-width:1" /><circle cx="122.023813" cy="717.261896" r="3.749996" style="fill:rgb(0,127,0);stroke-width:1" /><circle cx="119.305864" cy="687.364429" r="3.749996" style="fill:rgb(0,127,0);stroke-width:1" /><circle cx="119.186059" cy="686.046503" r="3.749996" style="fill:rgb(0,127,0);stroke-width:1" /><circle cx="116.576090" cy="657.336965" r="3.749996" style="fill:rgb(0,127,0);stroke-width:1" /><circle cx="113.834426" cy="627.178632" r="3.749996" style="fill:rgb(0,127,0);stroke-width:1" /><circle cx="111.718744" cy="603.906266" r="3.749996" style="fill:rgb(0,127,0);stroke-width:1" /><circle cx="111.080781" cy="596.888646" r="3.749996" style="fill:rgb(0,127,0);stroke-width:1" /><circle cx="109.081417" cy="574.895628" r="3.749996" style="fill:rgb(0,127,0);stroke-width:1" /><circle cx="108.315088" cy="566.466093" r="3.749996" style="fill:rgb(0,127,0);stroke-width:1" /><circle cx="106.433049" cy="545.763597" r="3.749996" style="fill:rgb(0,127,0);stroke-width:1" /><circle cx="106.296748" cy="544.264343" r="3.749996" style="fill:rgb(0,127,0);stroke-width:1" /><circle cx="104.265399" cy="521.919429" r="3.749996" style="fill:rgb(0,127,0);stroke-width:1" /><circle cx="101.324983" cy="518.979046" r="3.749996" style="fill:rgb(0,127,0);stroke-width:1" /><circle cx="97.271986" cy="514.926050" r="3.749996" style="fill:rgb(0,127,0);stroke-width:1" /><circle cx="93.218967" cy="510.873053" r="3.749996" style="fill:rgb(0,127,0);stroke-width:1" /><circle cx="92.167318" cy="499.304887" r="3.749996" style="fill:rgb(0,127,0);stroke-width:1" /><circle cx="89.797318" cy="496.934865" r="3.749996" style="fill:rgb(0,127,0);stroke-width:1" /><circle cx="87.708995" cy="494.846519" r="3.749996" style="fill:rgb(0,127,0);stroke-width:1" /><circle cx="83.722226" cy="490.859751" r="3.749996" style="fill:rgb(0,127,0);stroke-width:1" /><circle cx="81.819445" cy="488.956992" r="3.749996" style="fill:rgb(0,127,0);stroke-width:1" /><circle cx="80.001242" cy="487.138778" r="3.749996" style="fill:rgb(0,127,0);stroke-width:1" /><circle cx="76.191656" cy="483.329203" r="3.749996" style="fill:rgb(0,127,0);stroke-width:1" /><circle cx="72.382070" cy="479.519639" r="3.749996" style="fill:rgb(0,127,0);stroke-width:1" /><circle cx="68.572484" cy="475.710064" r="3.749996" style="fill:rgb(0,127,0);stroke-width:1" /><circle cx="64.762898" cy="471.900489" r="3.749996" style="fill:rgb(0,127,0);stroke-width:1" /><circle cx="60.953334" cy="468.090892" r="3.749996" style="fill:rgb(0,127,0);stroke-width:1" /><circle cx="57.143748" cy="464.281289" r="3.749996" style="fill:rgb(0,127,0);stroke-width:1" /><circle cx="53.334162" cy="460.471720" r="3.749996" style="fill:rgb(0,127,0);stroke-width:1" /><circle cx="52.174710" cy="459.312290" r="3.749996" style="fill:rgb(0,127,0);stroke-width:1" /><circle cx="48.447959" cy="455.585539" r="3.749996" style="fill:rgb(0,127,0);stroke-width:1" /><circle cx="47.417141" cy="454.554705" r="3.749996" style="fill:rgb(0,127,0);stroke-width:1" /><circle cx="43.769673" cy="450.907230" r="3.749996" style="fill:rgb(0,127,0);stroke-width:1" /><circle cx="40.441163" cy="444.852976" r="3.749996" style="fill:rgb(0,127,0);stroke-width:1" /><circle cx="38.659796" cy="425.257774" r="3.749996" style="fill:rgb(0,127,0);stroke-width:1" /><circle cx="38.265288" cy="420.918404" r="3.749996" style="fill:rgb(0,127,0);stroke-width:1" /><circle cx="37.878782" cy="416.666687" r="3.749996" style="fill:rgb(0,127,0);stroke-width:1" /><circle cx="36.684774" cy="403.532655" r="3.749996" style="fill:rgb(0,127,0);stroke-width:1" /><circle cx="36.290310" cy="399.193615" r="3.749996" style="fill:rgb(0,127,0);stroke-width:1" /><circle cx="34.090899" cy="375.000060" r="3.749996" style="fill:rgb(0,127,0);stroke-width:1" /><circle cx="33.707857" cy="370.786577" r="3.749996" style="fill:rgb(0,127,0);stroke-width:1" /><circle cx="32.967031" cy="362.637430" r="3.749996" style="fill:rgb(0,127,0);stroke-width:1" /><circle cx="32.608688" cy="358.695685" r="3.749996" style="fill:rgb(0,127,0);stroke-width:1" /><circle cx="32.258056" cy="354.838758" r="3.749996" style="fill:rgb(0,127,0);stroke-width:1" /><circle cx="31.914890" cy="351.063877" r="3.749996" style="fill:rgb(0,127,0);stroke-width:1" /><circle cx="31.578943" cy="347.368478" r="3.749996" style="fill:rgb(0,127,0);stroke-width:1" /><circle cx="31.249993" cy="343.750061" r="3.749996" style="fill:rgb(0,127,0);stroke-width:1" /><circle cx="30.882351" cy="339.705915" r="3.749996" style="fill:rgb(0,127,0);stroke-width:1" /><circle cx="28.124996" cy="309.375046" r="3.749996" style="fill:rgb(0,127,0);stroke-width:1" /><circle cx="27.777784" cy="305.555614" r="3.749996" style="fill:rgb(0,127,0);stroke-width:1" /><circle cx="24.999999" cy="275.000039" r="3.749996" style="fill:rgb(0,127,0);stroke-width:1" /><circle cx="21.428570" cy="235.714372" r="3.749996" style="fill:rgb(0,127,0);stroke-width:1" /><circle cx="21.126755" cy="232.394401" r="3.749996" style="fill:rgb(0,127,0);stroke-width:1" /><circle cx="20.833321" cy="229.166742" r="3.749996" style="fill:rgb(0,127,0);stroke-width:1" /><circle cx="20.270258" cy="222.973052" r="3.749996" style="fill:rgb(0,127,0);stroke-width:1" /><circle cx="20.000003" cy="220.000092" r="3.749996" style="fill:rgb(0,127,0);stroke-width:1" /><circle cx="19.736834" cy="217.105329" r="3.749996" style="fill:rgb(0,127,0);stroke-width:1" /><circle cx="19.480526" cy="214.285791" r="3.749996" style="fill:rgb(0,127,0);stroke-width:1" /><circle cx="16.544111" cy="181.985378" r="3.749996" style="fill:rgb(0,127,0);stroke-width:1" /><circle cx="11.904761" cy="130.952418" r="3.749996" style="fill:rgb(0,127,0);stroke-width:1" /><circle cx="6.465510" cy="71.120739" r="3.749996" style="fill:rgb(0,127,0);stroke-width:1" /><circle cx="750.000000" cy="750.000000" r="3.749996" style="fill:rgb(0,127,0);stroke-width:1" /><path stroke-linejoin="round" stroke-linecap="round" stroke="rgb(255,255,255)" stroke-width="3.749996" fill="none" d="M 0.000000 750.000000 L 750.000000 750.000000 M 0.000000 750.000000 L 0.000000 0.000000 " />

</svg>