<svg xmlns="http://www.w3.org/2000/svg" version="1.1" width = "750" height = "750" viewBox = "0 0 750 750"  shape-rendering="crispEdges">
<path stroke-linejoin="round" stroke-linecap="round" stroke="rgb(255,255,0)" stroke-width="3.749996" fill="none" d="M 149.999985 750.000000 L 0.000000 0.000000 " />
<path stroke-linejoin="round" stroke-linecap="round" stroke="rgb(63,63,63)" stroke-width="3.749996" fill="none" d="M 0.000000 0.000000 L 750.000000 750.000000 M 149.999985 750.000000 L 66.666664 0.000000 " />
<path stroke-linejoin="round" stroke-linecap="round" stroke="rgb(191,191,191)" stroke-width="3.749996" fill="none" d="M 0.000000 600.000000 L 149.999985 750.000000 M 0.000000 0.000000 L 83.333328 750.000000 " />
<path stroke-linejoin="round" stroke-linecap="round" stroke="rgb(0,0,255)" stroke-width="1.874998" fill="none" d="M 0.000000 750.000000 L 750.000000 567.073181 " />
<path stroke-linejoin="round" stroke-linecap="round" stroke="rgb(255,0,0)" stroke-width="3.749996" fill="none" d="M 146.042206 714.379944 L 149.999985 750.000000 " />
<path stroke-linejoin="round" stroke-linecap="round" stroke="rgb(0,0,255)" stroke-width="1.874998" fill="none" d="M 0.000000 750.000000 L 750.000000 392.857178 " />
<path stroke-linejoin="round" stroke-linecap="round" stroke="rgb(255,0,0)" stroke-width="3.749996" fill="none" d="M 141.504623 682.616821 L 146.042206 714.379944 " />
<path stroke-linejoin="round" stroke-linecap="round" stroke="rgb(0,0,255)" stroke-width="1.874998" fill="none" d="M 0.000000 750.000000 L 750.000000 375.000000 " />
<path stroke-linejoin="round" stroke-linecap="round" stroke="rgb(255,0,0)" stroke-width="3.749996" fill="none" d="M 141.055405 679.472290 L 141.504623 682.616821 " />
<path stroke-linejoin="round" stroke-linecap="round" stroke="rgb(0,0,255)" stroke-width="1.874998" fill="none" d="M 0.000000 750.000000 L 750.000000 201.219498 " />
<path stroke-linejoin="round" stroke-linecap="round" stroke="rgb(255,0,0)" stroke-width="3.749996" fill="none" d="M 136.828201 649.881836 L 141.055405 679.472290 " />
<path stroke-linejoin="round" stroke-linecap="round" stroke="rgb(0,0,255)" stroke-width="1.874998" fill="none" d="M 0.000000 750.000000 L 750.000000 0.000000 " />
<path stroke-linejoin="round" stroke-linecap="round" stroke="rgb(255,0,0)" stroke-width="3.749996" fill="none" d="M 132.239456 617.760559 L 136.828201 649.881836 " />
<path stroke-linejoin="round" stroke-linecap="round" stroke="rgb(0,0,255)" stroke-width="1.874998" fill="none" d="M 0.000000 750.000000 L 615.000000 0.000000 " />
<path stroke-linejoin="round" stroke-linecap="round" stroke="rgb(255,0,0)" stroke-width="3.749996" fill="none" d="M 128.707840 593.039246 L 132.239456 617.760559 " />
<path stroke-linejoin="round" stroke-linecap="round" stroke="rgb(0,0,255)" stroke-width="1.874998" fill="none" d="M 0.000000 750.000000 L 585.000000 0.000000 " />
<path stroke-linejoin="round" stroke-linecap="round" stroke="rgb(255,0,0)" stroke-width="3.749996" fill="none" d="M 127.735954 586.235962 L 128.707840 593.039246 " />
<path stroke-linejoin="round" stroke-linecap="round" stroke="rgb(0,0,255)" stroke-width="1.874998" fill="none" d="M 0.000000 750.000000 L 475.000000 0.000000 " />
<path stroke-linejoin="round" stroke-linecap="round" stroke="rgb(255,0,0)" stroke-width="3.749996" fill="none" d="M 123.315323 555.291565 L 127.735954 586.235962 " />
<path stroke-linejoin="round" stroke-linecap="round" stroke="rgb(0,0,255)" stroke-width="1.874998" fill="none" d="M 0.000000 750.000000 L 396.428558 0.000000 " />
<path stroke-linejoin="round" stroke-linecap="round" stroke="rgb(255,0,0)" stroke-width="3.749996" fill="none" d="M 118.975327 524.911499 L 123.315338 555.291565 " />
<path stroke-linejoin="round" stroke-linecap="round" stroke="rgb(0,0,255)" stroke-width="1.874998" fill="none" d="M 0.000000 750.000000 L 356.250000 0.000000 " />
<path stroke-linejoin="round" stroke-linecap="round" stroke="rgb(255,0,0)" stroke-width="3.749996" fill="none" d="M 116.187302 505.395142 L 118.975349 524.911499 " />
<path stroke-linejoin="round" stroke-linecap="round" stroke="rgb(0,0,255)" stroke-width="1.874998" fill="none" d="M 0.000000 750.000000 L 337.500000 0.000000 " />
<path stroke-linejoin="round" stroke-linecap="round" stroke="rgb(255,0,0)" stroke-width="3.749996" fill="none" d="M 114.713768 495.080475 L 116.187302 505.395142 " />
<path stroke-linejoin="round" stroke-linecap="round" stroke="rgb(0,0,255)" stroke-width="1.874998" fill="none" d="M 0.000000 750.000000 L 308.333344 0.000000 " />
<path stroke-linejoin="round" stroke-linecap="round" stroke="rgb(255,0,0)" stroke-width="3.749996" fill="none" d="M 112.157288 477.184998 L 114.713768 495.080475 " />
<path stroke-linejoin="round" stroke-linecap="round" stroke="rgb(0,0,255)" stroke-width="1.874998" fill="none" d="M 0.000000 750.000000 L 291.666656 0.000000 " />
<path stroke-linejoin="round" stroke-linecap="round" stroke="rgb(255,0,0)" stroke-width="3.749996" fill="none" d="M 110.528534 465.783783 L 112.157288 477.184967 " />
<path stroke-linejoin="round" stroke-linecap="round" stroke="rgb(0,0,255)" stroke-width="1.874998" fill="none" d="M 0.000000 750.000000 L 255.000000 0.000000 " />
<path stroke-linejoin="round" stroke-linecap="round" stroke="rgb(255,0,0)" stroke-width="3.749996" fill="none" d="M 106.417580 437.007141 L 110.528534 465.783783 " />
<path stroke-linejoin="round" stroke-linecap="round" stroke="rgb(0,0,255)" stroke-width="1.874998" fill="none" d="M 0.000000 750.000000 L 225.000015 0.000000 " />
<path stroke-linejoin="round" stroke-linecap="round" stroke="rgb(255,0,0)" stroke-width="3.749996" fill="none" d="M 102.378983 408.736786 L 106.417580 437.007141 " />
<path stroke-linejoin="round" stroke-linecap="round" stroke="rgb(0,0,255)" stroke-width="1.874998" fill="none" d="M 0.000000 750.000000 L 212.500000 0.000000 " />
<path stroke-linejoin="round" stroke-linecap="round" stroke="rgb(255,0,0)" stroke-width="3.749996" fill="none" d="M 100.472488 395.391235 L 102.378983 408.736725 " />
<path stroke-linejoin="round" stroke-linecap="round" stroke="rgb(0,0,255)" stroke-width="1.874998" fill="none" d="M 0.000000 750.000000 L 200.000015 0.000000 " />
<path stroke-linejoin="round" stroke-linecap="round" stroke="rgb(255,0,0)" stroke-width="3.749996" fill="none" d="M 98.410805 380.959473 L 100.472488 395.391174 " />
<path stroke-linejoin="round" stroke-linecap="round" stroke="rgb(0,0,255)" stroke-width="1.874998" fill="none" d="M 0.000000 750.000000 L 190.384598 0.000000 " />
<path stroke-linejoin="round" stroke-linecap="round" stroke="rgb(255,0,0)" stroke-width="3.749996" fill="none" d="M 96.707024 369.032928 L 98.410805 380.959473 " />
<path stroke-linejoin="round" stroke-linecap="round" stroke="rgb(0,0,255)" stroke-width="1.874998" fill="none" d="M 0.000000 750.000000 L 171.428558 0.000000 " />
<path stroke-linejoin="round" stroke-linecap="round" stroke="rgb(255,0,0)" stroke-width="3.749996" fill="none" d="M 93.003632 343.109131 L 96.707024 369.032928 " />
<path stroke-linejoin="round" stroke-linecap="round" stroke="rgb(0,0,255)" stroke-width="1.874998" fill="none" d="M 0.000000 750.000000 L 154.999985 0.000000 " />
<path stroke-linejoin="round" stroke-linecap="round" stroke="rgb(255,0,0)" stroke-width="3.749996" fill="none" d="M 89.360764 317.609161 L 93.003632 343.109131 " />
<path stroke-linejoin="round" stroke-linecap="round" stroke="rgb(0,0,255)" stroke-width="1.874998" fill="none" d="M 0.000000 750.000000 L 149.999985 0.000000 " />
<path stroke-linejoin="round" stroke-linecap="round" stroke="rgb(255,0,0)" stroke-width="3.749996" fill="none" d="M 88.159698 309.201538 L 89.360764 317.609161 " />
<path stroke-linejoin="round" stroke-linecap="round" stroke="rgb(0,0,255)" stroke-width="1.874998" fill="none" d="M 0.000000 750.000000 L 140.625000 0.000000 " />
<path stroke-linejoin="round" stroke-linecap="round" stroke="rgb(255,0,0)" stroke-width="3.749996" fill="none" d="M 85.776978 292.522736 L 88.159698 309.201538 " />
<path stroke-linejoin="round" stroke-linecap="round" stroke="rgb(0,0,255)" stroke-width="1.874998" fill="none" d="M 0.000000 750.000000 L 127.941170 0.000000 " />
<path stroke-linejoin="round" stroke-linecap="round" stroke="rgb(255,0,0)" stroke-width="3.749996" fill="none" d="M 82.250832 267.839905 L 85.776978 292.522797 " />
<path stroke-linejoin="round" stroke-linecap="round" stroke="rgb(0,0,255)" stroke-width="1.874998" fill="none" d="M 0.000000 750.000000 L 125.000015 0.000000 " />
<path stroke-linejoin="round" stroke-linecap="round" stroke="rgb(255,0,0)" stroke-width="3.749996" fill="none" d="M 81.378151 261.731018 L 82.250832 267.839905 " />
<path stroke-linejoin="round" stroke-linecap="round" stroke="rgb(0,0,255)" stroke-width="1.874998" fill="none" d="M 0.000000 750.000000 L 116.666656 0.000000 " />
<path stroke-linejoin="round" stroke-linecap="round" stroke="rgb(255,0,0)" stroke-width="3.749996" fill="none" d="M 78.780991 243.550842 L 81.378151 261.731018 " />
<path stroke-linejoin="round" stroke-linecap="round" stroke="rgb(0,0,255)" stroke-width="1.874998" fill="none" d="M 0.000000 750.000000 L 114.473686 0.000000 " />
<path stroke-linejoin="round" stroke-linecap="round" stroke="rgb(255,0,0)" stroke-width="3.749996" fill="none" d="M 78.065071 238.539291 L 78.780991 243.550842 " />
<path stroke-linejoin="round" stroke-linecap="round" stroke="rgb(0,0,255)" stroke-width="1.874998" fill="none" d="M 0.000000 750.000000 L 106.578964 0.000000 " />
<path stroke-linejoin="round" stroke-linecap="round" stroke="rgb(255,0,0)" stroke-width="3.749996" fill="none" d="M 75.366051 219.646317 L 78.065071 238.539291 " />
<path stroke-linejoin="round" stroke-linecap="round" stroke="rgb(0,0,255)" stroke-width="1.874998" fill="none" d="M 0.000000 750.000000 L 104.999992 0.000000 " />
<path stroke-linejoin="round" stroke-linecap="round" stroke="rgb(255,0,0)" stroke-width="3.749996" fill="none" d="M 74.802139 215.698959 L 75.366051 219.646317 " />
<path stroke-linejoin="round" stroke-linecap="round" stroke="rgb(0,0,255)" stroke-width="1.874998" fill="none" d="M 0.000000 750.000000 L 97.500000 0.000000 " />
<path stroke-linejoin="round" stroke-linecap="round" stroke="rgb(255,0,0)" stroke-width="3.749996" fill="none" d="M 72.004753 196.117264 L 74.802139 215.698959 " />
<path stroke-linejoin="round" stroke-linecap="round" stroke="rgb(0,0,255)" stroke-width="1.874998" fill="none" d="M 0.000000 750.000000 L 96.428589 0.000000 " />
<path stroke-linejoin="round" stroke-linecap="round" stroke="rgb(255,0,0)" stroke-width="3.749996" fill="none" d="M 71.588318 193.202057 L 72.004753 196.117264 " />
<path stroke-linejoin="round" stroke-linecap="round" stroke="rgb(0,0,255)" stroke-width="1.874998" fill="none" d="M 0.000000 750.000000 L 92.417053 0.000000 " />
<path stroke-linejoin="round" stroke-linecap="round" stroke="rgb(255,0,0)" stroke-width="3.749996" fill="none" d="M 69.989365 182.009399 L 71.588318 193.202057 " />
<path stroke-linejoin="round" stroke-linecap="round" stroke="rgb(0,0,255)" stroke-width="1.874998" fill="none" d="M 0.000000 750.000000 L 92.364525 0.000000 " />
<path stroke-linejoin="round" stroke-linecap="round" stroke="rgb(255,0,0)" stroke-width="3.749996" fill="none" d="M 69.960304 181.922256 L 69.989365 182.009399 " />
<path stroke-linejoin="round" stroke-linecap="round" stroke="rgb(0,0,255)" stroke-width="1.874998" fill="none" d="M 0.000000 750.000000 L 91.463417 0.000000 " />
<path stroke-linejoin="round" stroke-linecap="round" stroke="rgb(255,0,0)" stroke-width="3.749996" fill="none" d="M 69.460587 180.423141 L 69.960304 181.922256 " />
<path stroke-linejoin="round" stroke-linecap="round" stroke="rgb(0,0,255)" stroke-width="1.874998" fill="none" d="M 0.000000 750.000000 L 87.378639 0.000000 " />
<path stroke-linejoin="round" stroke-linecap="round" stroke="rgb(255,0,0)" stroke-width="3.749996" fill="none" d="M 67.161888 173.527084 L 69.460587 180.423141 " />
<path stroke-linejoin="round" stroke-linecap="round" stroke="rgb(0,0,255)" stroke-width="1.874998" fill="none" d="M 0.000000 750.000000 L 83.333328 0.000000 " />
<path stroke-linejoin="round" stroke-linecap="round" stroke="rgb(255,0,0)" stroke-width="3.749996" fill="none" d="M 64.829887 166.531021 L 67.161888 173.527084 " />
<path stroke-linejoin="round" stroke-linecap="round" stroke="rgb(0,0,255)" stroke-width="1.874998" fill="none" d="M 0.000000 750.000000 L 79.326912 0.000000 " />
<path stroke-linejoin="round" stroke-linecap="round" stroke="rgb(255,0,0)" stroke-width="3.749996" fill="none" d="M 62.463840 159.432877 L 64.829887 166.531021 " />
<path stroke-linejoin="round" stroke-linecap="round" stroke="rgb(0,0,255)" stroke-width="1.874998" fill="none" d="M 0.000000 750.000000 L 75.358856 0.000000 " />
<path stroke-linejoin="round" stroke-linecap="round" stroke="rgb(255,0,0)" stroke-width="3.749996" fill="none" d="M 60.062973 152.230331 L 62.463840 159.432877 " />
<path stroke-linejoin="round" stroke-linecap="round" stroke="rgb(0,0,255)" stroke-width="1.874998" fill="none" d="M 0.000000 750.000000 L 71.428566 0.000000 " />
<path stroke-linejoin="round" stroke-linecap="round" stroke="rgb(255,0,0)" stroke-width="3.749996" fill="none" d="M 57.626568 144.921112 L 60.062973 152.230331 " />
<path stroke-linejoin="round" stroke-linecap="round" stroke="rgb(0,0,255)" stroke-width="1.874998" fill="none" d="M 0.000000 750.000000 L 67.535545 0.000000 " />
<path stroke-linejoin="round" stroke-linecap="round" stroke="rgb(255,0,0)" stroke-width="3.749996" fill="none" d="M 55.153770 137.502777 L 57.626568 144.921112 " />
<path stroke-linejoin="round" stroke-linecap="round" stroke="rgb(0,0,255)" stroke-width="1.874998" fill="none" d="M 0.000000 750.000000 L 66.901398 0.000000 " />
<path stroke-linejoin="round" stroke-linecap="round" stroke="rgb(255,0,0)" stroke-width="3.749996" fill="none" d="M 54.745228 136.277100 L 55.153770 137.502777 " />
<path stroke-linejoin="round" stroke-linecap="round" stroke="rgb(0,0,255)" stroke-width="1.874998" fill="none" d="M 0.000000 750.000000 L 66.279083 0.000000 " />
<path stroke-linejoin="round" stroke-linecap="round" stroke="rgb(255,0,0)" stroke-width="3.749996" fill="none" d="M 54.342693 135.069534 L 54.745228 136.277100 " />
<path stroke-linejoin="round" stroke-linecap="round" stroke="rgb(0,0,255)" stroke-width="1.874998" fill="none" d="M 0.000000 750.000000 L 62.500008 0.000000 " />
<path stroke-linejoin="round" stroke-linecap="round" stroke="rgb(255,0,0)" stroke-width="3.749996" fill="none" d="M 51.863907 127.633095 L 54.342693 135.069534 " />
<path stroke-linejoin="round" stroke-linecap="round" stroke="rgb(0,0,255)" stroke-width="1.874998" fill="none" d="M 0.000000 750.000000 L 58.755756 0.000000 " />
<path stroke-linejoin="round" stroke-linecap="round" stroke="rgb(255,0,0)" stroke-width="3.749996" fill="none" d="M 49.348129 120.085716 L 51.863907 127.633095 " />
<path stroke-linejoin="round" stroke-linecap="round" stroke="rgb(0,0,255)" stroke-width="1.874998" fill="none" d="M 0.000000 750.000000 L 58.219181 0.000000 " />
<path stroke-linejoin="round" stroke-linecap="round" stroke="rgb(255,0,0)" stroke-width="3.749996" fill="none" d="M 48.982590 118.989098 L 49.348129 120.085716 " />
<path stroke-linejoin="round" stroke-linecap="round" stroke="rgb(0,0,255)" stroke-width="1.874998" fill="none" d="M 0.000000 750.000000 L 57.692303 0.000000 " />
<path stroke-linejoin="round" stroke-linecap="round" stroke="rgb(255,0,0)" stroke-width="3.749996" fill="none" d="M 48.622414 117.908615 L 48.982590 118.989098 " />
<path stroke-linejoin="round" stroke-linecap="round" stroke="rgb(0,0,255)" stroke-width="1.874998" fill="none" d="M 0.000000 750.000000 L 55.045856 0.000000 " />
<path stroke-linejoin="round" stroke-linecap="round" stroke="rgb(255,0,0)" stroke-width="3.749996" fill="none" d="M 46.794510 112.424904 L 48.622414 117.908615 " />
<path stroke-linejoin="round" stroke-linecap="round" stroke="rgb(0,0,255)" stroke-width="1.874998" fill="none" d="M 0.000000 750.000000 L 51.369869 0.000000 " />
<path stroke-linejoin="round" stroke-linecap="round" stroke="rgb(255,0,0)" stroke-width="3.749996" fill="none" d="M 44.202202 104.647995 L 46.794510 112.424904 " />
<path stroke-linejoin="round" stroke-linecap="round" stroke="rgb(0,0,255)" stroke-width="1.874998" fill="none" d="M 0.000000 750.000000 L 50.904976 0.000000 " />
<path stroke-linejoin="round" stroke-linecap="round" stroke="rgb(255,0,0)" stroke-width="3.749996" fill="none" d="M 43.869854 103.650925 L 44.202202 104.647995 " />
<path stroke-linejoin="round" stroke-linecap="round" stroke="rgb(0,0,255)" stroke-width="1.874998" fill="none" d="M 0.000000 750.000000 L 50.448418 0.000000 " />
<path stroke-linejoin="round" stroke-linecap="round" stroke="rgb(255,0,0)" stroke-width="3.749996" fill="none" d="M 43.542465 102.668816 L 43.869854 103.650864 " />
<path stroke-linejoin="round" stroke-linecap="round" stroke="rgb(0,0,255)" stroke-width="1.874998" fill="none" d="M 0.000000 750.000000 L 49.999996 0.000000 " />
<path stroke-linejoin="round" stroke-linecap="round" stroke="rgb(255,0,0)" stroke-width="3.749996" fill="none" d="M 43.219933 101.701141 L 43.542465 102.668816 " />
<path stroke-linejoin="round" stroke-linecap="round" stroke="rgb(0,0,255)" stroke-width="1.874998" fill="none" d="M 0.000000 750.000000 L 46.875000 0.000000 " />
<path stroke-linejoin="round" stroke-linecap="round" stroke="rgb(255,0,0)" stroke-width="3.749996" fill="none" d="M 40.945194 94.876953 L 43.219933 101.701141 " />
<path stroke-linejoin="round" stroke-linecap="round" stroke="rgb(0,0,255)" stroke-width="1.874998" fill="none" d="M 0.000000 750.000000 L 43.333344 0.000000 " />
<path stroke-linejoin="round" stroke-linecap="round" stroke="rgb(255,0,0)" stroke-width="3.749996" fill="none" d="M 38.308559 86.967094 L 40.945194 94.876953 " />
<path stroke-linejoin="round" stroke-linecap="round" stroke="rgb(0,0,255)" stroke-width="1.874998" fill="none" d="M 0.000000 750.000000 L 42.951553 0.000000 " />
<path stroke-linejoin="round" stroke-linecap="round" stroke="rgb(255,0,0)" stroke-width="3.749996" fill="none" d="M 38.020535 86.102913 L 38.308559 86.967094 " />
<path stroke-linejoin="round" stroke-linecap="round" stroke="rgb(0,0,255)" stroke-width="1.874998" fill="none" d="M 0.000000 750.000000 L 42.576424 0.000000 " />
<path stroke-linejoin="round" stroke-linecap="round" stroke="rgb(255,0,0)" stroke-width="3.749996" fill="none" d="M 37.736805 85.251755 L 38.020535 86.102913 " />
<path stroke-linejoin="round" stroke-linecap="round" stroke="rgb(0,0,255)" stroke-width="1.874998" fill="none" d="M 0.000000 750.000000 L 42.207798 0.000000 " />
<path stroke-linejoin="round" stroke-linecap="round" stroke="rgb(255,0,0)" stroke-width="3.749996" fill="none" d="M 37.457272 84.413185 L 37.736805 85.251755 " />
<path stroke-linejoin="round" stroke-linecap="round" stroke="rgb(0,0,255)" stroke-width="1.874998" fill="none" d="M 0.000000 750.000000 L 41.845501 0.000000 " />
<path stroke-linejoin="round" stroke-linecap="round" stroke="rgb(255,0,0)" stroke-width="3.749996" fill="none" d="M 37.181854 83.586929 L 37.457272 84.413185 " />
<path stroke-linejoin="round" stroke-linecap="round" stroke="rgb(0,0,255)" stroke-width="1.874998" fill="none" d="M 0.000000 750.000000 L 38.793102 0.000000 " />
<path stroke-linejoin="round" stroke-linecap="round" stroke="rgb(255,0,0)" stroke-width="3.749996" fill="none" d="M 34.833961 76.543320 L 37.181854 83.586929 " />
<path stroke-linejoin="round" stroke-linecap="round" stroke="rgb(0,0,255)" stroke-width="1.874998" fill="none" d="M 0.000000 750.000000 L 38.461536 0.000000 " />
<path stroke-linejoin="round" stroke-linecap="round" stroke="rgb(255,0,0)" stroke-width="3.749996" fill="none" d="M 34.575932 75.769257 L 34.833961 76.543320 " />
<path stroke-linejoin="round" stroke-linecap="round" stroke="rgb(0,0,255)" stroke-width="1.874998" fill="none" d="M 0.000000 750.000000 L 38.135605 0.000000 " />
<path stroke-linejoin="round" stroke-linecap="round" stroke="rgb(255,0,0)" stroke-width="3.749996" fill="none" d="M 34.321705 75.006500 L 34.575932 75.769257 " />
<path stroke-linejoin="round" stroke-linecap="round" stroke="rgb(0,0,255)" stroke-width="1.874998" fill="none" d="M 0.000000 750.000000 L 35.106384 0.000000 " />
<path stroke-linejoin="round" stroke-linecap="round" stroke="rgb(255,0,0)" stroke-width="3.749996" fill="none" d="M 31.931139 67.834785 L 34.321705 75.006500 " />
<path stroke-linejoin="round" stroke-linecap="round" stroke="rgb(0,0,255)" stroke-width="1.874998" fill="none" d="M 0.000000 750.000000 L 34.810135 0.000000 " />
<path stroke-linejoin="round" stroke-linecap="round" stroke="rgb(255,0,0)" stroke-width="3.749996" fill="none" d="M 31.694613 67.125183 L 31.931139 67.834785 " />
<path stroke-linejoin="round" stroke-linecap="round" stroke="rgb(0,0,255)" stroke-width="1.874998" fill="none" d="M 0.000000 750.000000 L 34.518822 0.000000 " />
<path stroke-linejoin="round" stroke-linecap="round" stroke="rgb(255,0,0)" stroke-width="3.749996" fill="none" d="M 31.461552 66.426094 L 31.694613 67.125183 " />
<path stroke-linejoin="round" stroke-linecap="round" stroke="rgb(0,0,255)" stroke-width="1.874998" fill="none" d="M 0.000000 750.000000 L 31.249992 0.000000 " />
<path stroke-linejoin="round" stroke-linecap="round" stroke="rgb(255,0,0)" stroke-width="3.749996" fill="none" d="M 28.813272 58.481163 L 31.461552 66.426094 " />
<path stroke-linejoin="round" stroke-linecap="round" stroke="rgb(0,0,255)" stroke-width="1.874998" fill="none" d="M 0.000000 750.000000 L 30.991741 0.000000 " />
<path stroke-linejoin="round" stroke-linecap="round" stroke="rgb(255,0,0)" stroke-width="3.749996" fill="none" d="M 28.601423 57.845524 L 28.813272 58.481163 " />
<path stroke-linejoin="round" stroke-linecap="round" stroke="rgb(0,0,255)" stroke-width="1.874998" fill="none" d="M 0.000000 750.000000 L 30.737713 0.000000 " />
<path stroke-linejoin="round" stroke-linecap="round" stroke="rgb(255,0,0)" stroke-width="3.749996" fill="none" d="M 28.392658 57.219254 L 28.601423 57.845524 " />
<path stroke-linejoin="round" stroke-linecap="round" stroke="rgb(0,0,255)" stroke-width="1.874998" fill="none" d="M 0.000000 750.000000 L 28.969959 0.000000 " />
<path stroke-linejoin="round" stroke-linecap="round" stroke="rgb(255,0,0)" stroke-width="3.749996" fill="none" d="M 26.929335 52.829369 L 28.392658 57.219254 " />
<path stroke-linejoin="round" stroke-linecap="round" stroke="rgb(0,0,255)" stroke-width="1.874998" fill="none" d="M 0.000000 750.000000 L 28.723396 0.000000 " />
<path stroke-linejoin="round" stroke-linecap="round" stroke="rgb(255,0,0)" stroke-width="3.749996" fill="none" d="M 26.723764 52.212662 L 26.929335 52.829369 " />
<path stroke-linejoin="round" stroke-linecap="round" stroke="rgb(0,0,255)" stroke-width="1.874998" fill="none" d="M 0.000000 750.000000 L 28.481014 0.000000 " />
<path stroke-linejoin="round" stroke-linecap="round" stroke="rgb(255,0,0)" stroke-width="3.749996" fill="none" d="M 26.521324 51.605343 L 26.723764 52.212662 " />
<path stroke-linejoin="round" stroke-linecap="round" stroke="rgb(0,0,255)" stroke-width="1.874998" fill="none" d="M 0.000000 750.000000 L 25.210083 0.000000 " />
<path stroke-linejoin="round" stroke-linecap="round" stroke="rgb(255,0,0)" stroke-width="3.749996" fill="none" d="M 23.754471 43.304802 L 26.521324 51.605343 " />
<path stroke-linejoin="round" stroke-linecap="round" stroke="rgb(0,0,255)" stroke-width="1.874998" fill="none" d="M 0.000000 750.000000 L 21.966532 0.000000 " />
<path stroke-linejoin="round" stroke-linecap="round" stroke="rgb(255,0,0)" stroke-width="3.749996" fill="none" d="M 20.945034 34.876518 L 23.754448 43.304867 " />
<path stroke-linejoin="round" stroke-linecap="round" stroke="rgb(0,0,255)" stroke-width="1.874998" fill="none" d="M 0.000000 750.000000 L 21.784231 0.000000 " />
<path stroke-linejoin="round" stroke-linecap="round" stroke="rgb(255,0,0)" stroke-width="3.749996" fill="none" d="M 20.785152 34.396873 L 20.945034 34.876518 " />
<path stroke-linejoin="round" stroke-linecap="round" stroke="rgb(0,0,255)" stroke-width="1.874998" fill="none" d="M 0.000000 750.000000 L 21.604948 0.000000 " />
<path stroke-linejoin="round" stroke-linecap="round" stroke="rgb(255,0,0)" stroke-width="3.749996" fill="none" d="M 20.627686 33.924355 L 20.785152 34.396873 " />
<path stroke-linejoin="round" stroke-linecap="round" stroke="rgb(0,0,255)" stroke-width="1.874998" fill="none" d="M 0.000000 750.000000 L 21.428570 0.000000 " />
<path stroke-linejoin="round" stroke-linecap="round" stroke="rgb(255,0,0)" stroke-width="3.749996" fill="none" d="M 20.472586 33.459084 L 20.627686 33.924355 " />
<path stroke-linejoin="round" stroke-linecap="round" stroke="rgb(0,0,255)" stroke-width="1.874998" fill="none" d="M 0.000000 750.000000 L 21.255054 0.000000 " />
<path stroke-linejoin="round" stroke-linecap="round" stroke="rgb(255,0,0)" stroke-width="3.749996" fill="none" d="M 20.319813 33.000759 L 20.472586 33.459084 " />
<path stroke-linejoin="round" stroke-linecap="round" stroke="rgb(0,0,255)" stroke-width="1.874998" fill="none" d="M 0.000000 750.000000 L 21.084332 0.000000 " />
<path stroke-linejoin="round" stroke-linecap="round" stroke="rgb(255,0,0)" stroke-width="3.749996" fill="none" d="M 20.169296 32.549210 L 20.319813 33.000759 " />
<path stroke-linejoin="round" stroke-linecap="round" stroke="rgb(0,0,255)" stroke-width="1.874998" fill="none" d="M 0.000000 750.000000 L 18.145166 0.000000 " />
<path stroke-linejoin="round" stroke-linecap="round" stroke="rgb(255,0,0)" stroke-width="3.749996" fill="none" d="M 17.503559 26.519760 L 20.169296 32.549210 " />
<path stroke-linejoin="round" stroke-linecap="round" stroke="rgb(0,0,255)" stroke-width="1.874998" fill="none" d="M 0.000000 750.000000 L 15.060246 0.000000 " />
<path stroke-linejoin="round" stroke-linecap="round" stroke="rgb(255,0,0)" stroke-width="3.749996" fill="none" d="M 14.632792 21.287151 L 17.503559 26.519760 " />
<path stroke-linejoin="round" stroke-linecap="round" stroke="rgb(0,0,255)" stroke-width="1.874998" fill="none" d="M 0.000000 750.000000 L 12.000002 0.000000 " />
<path stroke-linejoin="round" stroke-linecap="round" stroke="rgb(255,0,0)" stroke-width="3.749996" fill="none" d="M 11.733145 16.678043 L 14.632792 21.287083 " />
<path stroke-linejoin="round" stroke-linecap="round" stroke="rgb(0,0,255)" stroke-width="1.874998" fill="none" d="M 0.000000 750.000000 L 11.904761 0.000000 " />
<path stroke-linejoin="round" stroke-linecap="round" stroke="rgb(255,0,0)" stroke-width="3.749996" fill="none" d="M 11.644274 16.411409 L 11.733145 16.678043 " />
<path stroke-linejoin="round" stroke-linecap="round" stroke="rgb(0,0,255)" stroke-width="1.874998" fill="none" d="M 0.000000 750.000000 L 11.811018 0.000000 " />
<path stroke-linejoin="round" stroke-linecap="round" stroke="rgb(255,0,0)" stroke-width="3.749996" fill="none" d="M 11.556723 16.148685 L 11.644274 16.411409 " />
<path stroke-linejoin="round" stroke-linecap="round" stroke="rgb(0,0,255)" stroke-width="1.874998" fill="none" d="M 0.000000 750.000000 L 11.718750 0.000000 " />
<path stroke-linejoin="round" stroke-linecap="round" stroke="rgb(255,0,0)" stroke-width="3.749996" fill="none" d="M 11.470467 15.889898 L 11.556723 16.148685 " />
<path stroke-linejoin="round" stroke-linecap="round" stroke="rgb(0,0,255)" stroke-width="1.874998" fill="none" d="M 0.000000 750.000000 L 11.627913 0.000000 " />
<path stroke-linejoin="round" stroke-linecap="round" stroke="rgb(255,0,0)" stroke-width="3.749996" fill="none" d="M 11.385508 15.635066 L 11.470467 15.889898 " />
<path stroke-linejoin="round" stroke-linecap="round" stroke="rgb(0,0,255)" stroke-width="1.874998" fill="none" d="M 0.000000 750.000000 L 9.036139 0.000000 " />
<path stroke-linejoin="round" stroke-linecap="round" stroke="rgb(255,0,0)" stroke-width="3.749996" fill="none" d="M 8.890830 12.061782 L 11.385508 15.635133 " />
<path stroke-linejoin="round" stroke-linecap="round" stroke="rgb(0,0,255)" stroke-width="1.874998" fill="none" d="M 0.000000 750.000000 L 8.964144 0.000000 " />
<path stroke-linejoin="round" stroke-linecap="round" stroke="rgb(255,0,0)" stroke-width="3.749996" fill="none" d="M 8.822433 11.856660 L 8.890830 12.061782 " />
<path stroke-linejoin="round" stroke-linecap="round" stroke="rgb(0,0,255)" stroke-width="1.874998" fill="none" d="M 0.000000 750.000000 L 8.754865 0.000000 " />
<path stroke-linejoin="round" stroke-linecap="round" stroke="rgb(255,0,0)" stroke-width="3.749996" fill="none" d="M 8.623436 11.259556 L 8.822433 11.856660 " />
<path stroke-linejoin="round" stroke-linecap="round" stroke="rgb(0,0,255)" stroke-width="1.874998" fill="none" d="M 0.000000 750.000000 L 5.813956 0.000000 " />
<path stroke-linejoin="round" stroke-linecap="round" stroke="rgb(255,0,0)" stroke-width="3.749996" fill="none" d="M 5.754054 7.727690 L 8.623436 11.259556 " />
<path stroke-linejoin="round" stroke-linecap="round" stroke="rgb(0,0,255)" stroke-width="1.874998" fill="none" d="M 0.000000 750.000000 L 2.895758 0.000000 " />
<path stroke-linejoin="round" stroke-linecap="round" stroke="rgb(255,0,0)" stroke-width="3.749996" fill="none" d="M 2.878927 4.358187 L 5.754054 7.727690 " />
<path stroke-linejoin="round" stroke-linecap="round" stroke="rgb(0,0,255)" stroke-width="1.874998" fill="none" d="M 0.000000 750.000000 L 0.000000 0.000000 " />
<path stroke-linejoin="round" stroke-linecap="round" stroke="rgb(255,0,0)" stroke-width="3.749996" fill="none" d="M 0.000000 0.000000 L 2.878927 4.358187 " />
<circle cx="146.042213" cy="714.379951" r="3.749996" style="fill:rgb(0,127,0);stroke-width:1" /><circle cx="141.504630" cy="682.616830" r="3.749996" style="fill:rgb(0,127,0);stroke-width:1" /><circle cx="141.055405" cy="679.472297" r="3.749996" style="fill:rgb(0,127,0);stroke-width:1" /><circle cx="136.828199" cy="649.881810" r="3.749996" style="fill:rgb(0,127,0);stroke-width:1" /><circle cx="132.239453" cy="617.760547" r="3.749996" style="fill:rgb(0,127,0);stroke-width:1" /><circle cx="128.707834" cy="593.039230" r="3.749996" style="fill:rgb(0,127,0);stroke-width:1" /><circle cx="127.735958" cy="586.235963" r="3.749996" style="fill:rgb(0,127,0);stroke-width:1" /><circle cx="123.315319" cy="555.291586" r="3.749996" style="fill:rgb(0,127,0);stroke-width:1" /><circle cx="118.975326" cy="524.911545" r="3.749996" style="fill:rgb(0,127,0);stroke-width:1" /><circle cx="116.187304" cy="505.395167" r="3.749996" style="fill:rgb(0,127,0);stroke-width:1" /><circle cx="114.713766" cy="495.080497" r="3.749996" style="fill:rgb(0,127,0);stroke-width:1" /><circle cx="112.157285" cy="477.185011" r="3.749996" style="fill:rgb(0,127,0);stroke-width:1" /><circle cx="110.528536" cy="465.783779" r="3.749996" style="fill:rgb(0,127,0);stroke-width:1" /><circle cx="106.417581" cy="437.007129" r="3.749996" style="fill:rgb(0,127,0);stroke-width:1" /><circle cx="102.378979" cy="408.736789" r="3.749996" style="fill:rgb(0,127,0);stroke-width:1" /><circle cx="100.472488" cy="395.391226" r="3.749996" style="fill:rgb(0,127,0);stroke-width:1" /><circle cx="98.410808" cy="380.959475" r="3.749996" style="fill:rgb(0,127,0);stroke-width:1" /><circle cx="96.707024" cy="369.032943" r="3.749996" style="fill:rgb(0,127,0);stroke-width:1" /><circle cx="93.003631" cy="343.109144" r="3.749996" style="fill:rgb(0,127,0);stroke-width:1" /><circle cx="89.360766" cy="317.609165" r="3.749996" style="fill:rgb(0,127,0);stroke-width:1" /><circle cx="88.159695" cy="309.201552" r="3.749996" style="fill:rgb(0,127,0);stroke-width:1" /><circle cx="85.776977" cy="292.522755" r="3.749996" style="fill:rgb(0,127,0);stroke-width:1" /><circle cx="82.250834" cy="267.839883" r="3.749996" style="fill:rgb(0,127,0);stroke-width:1" /><circle cx="81.378154" cy="261.731029" r="3.749996" style="fill:rgb(0,127,0);stroke-width:1" /><circle cx="78.780994" cy="243.550837" r="3.749996" style="fill:rgb(0,127,0);stroke-width:1" /><circle cx="78.065068" cy="238.539286" r="3.749996" style="fill:rgb(0,127,0);stroke-width:1" /><circle cx="75.366050" cy="219.646309" r="3.749996" style="fill:rgb(0,127,0);stroke-width:1" /><circle cx="74.802138" cy="215.698957" r="3.749996" style="fill:rgb(0,127,0);stroke-width:1" /><circle cx="72.004750" cy="196.117256" r="3.749996" style="fill:rgb(0,127,0);stroke-width:1" /><circle cx="71.588315" cy="193.202052" r="3.749996" style="fill:rgb(0,127,0);stroke-width:1" /><circle cx="69.989361" cy="182.009406" r="3.749996" style="fill:rgb(0,127,0);stroke-width:1" /><circle cx="69.960304" cy="181.922257" r="3.749996" style="fill:rgb(0,127,0);stroke-width:1" /><circle cx="69.460586" cy="180.423148" r="3.749996" style="fill:rgb(0,127,0);stroke-width:1" /><circle cx="67.161888" cy="173.527077" r="3.749996" style="fill:rgb(0,127,0);stroke-width:1" /><circle cx="64.829886" cy="166.531026" r="3.749996" style="fill:rgb(0,127,0);stroke-width:1" /><circle cx="62.463842" cy="159.432873" r="3.749996" style="fill:rgb(0,127,0);stroke-width:1" /><circle cx="60.062975" cy="152.230337" r="3.749996" style="fill:rgb(0,127,0);stroke-width:1" /><circle cx="57.626568" cy="144.921117" r="3.749996" style="fill:rgb(0,127,0);stroke-width:1" /><circle cx="55.153772" cy="137.502775" r="3.749996" style="fill:rgb(0,127,0);stroke-width:1" /><circle cx="54.745227" cy="136.277094" r="3.749996" style="fill:rgb(0,127,0);stroke-width:1" /><circle cx="54.342695" cy="135.069542" r="3.749996" style="fill:rgb(0,127,0);stroke-width:1" /><circle cx="51.863909" cy="127.633095" r="3.749996" style="fill:rgb(0,127,0);stroke-width:1" /><circle cx="49.348131" cy="120.085716" r="3.749996" style="fill:rgb(0,127,0);stroke-width:1" /><circle cx="48.982590" cy="118.989095" r="3.749996" style="fill:rgb(0,127,0);stroke-width:1" /><circle cx="48.622414" cy="117.908612" r="3.749996" style="fill:rgb(0,127,0);stroke-width:1" /><circle cx="46.794511" cy="112.424903" r="3.749996" style="fill:rgb(0,127,0);stroke-width:1" /><circle cx="44.202201" cy="104.647994" r="3.749996" style="fill:rgb(0,127,0);stroke-width:1" /><circle cx="43.869853" cy="103.650928" r="3.749996" style="fill:rgb(0,127,0);stroke-width:1" /><circle cx="43.542467" cy="102.668814" r="3.749996" style="fill:rgb(0,127,0);stroke-width:1" /><circle cx="43.219931" cy="101.701140" r="3.749996" style="fill:rgb(0,127,0);stroke-width:1" /><circle cx="40.945195" cy="94.876952" r="3.749996" style="fill:rgb(0,127,0);stroke-width:1" /><circle cx="38.308561" cy="86.967096" r="3.749996" style="fill:rgb(0,127,0);stroke-width:1" /><circle cx="38.020536" cy="86.102910" r="3.749996" style="fill:rgb(0,127,0);stroke-width:1" /><circle cx="37.736803" cy="85.251756" r="3.749996" style="fill:rgb(0,127,0);stroke-width:1" /><circle cx="37.457272" cy="84.413186" r="3.749996" style="fill:rgb(0,127,0);stroke-width:1" /><circle cx="37.181854" cy="83.586931" r="3.749996" style="fill:rgb(0,127,0);stroke-width:1" /><circle cx="34.833960" cy="76.543316" r="3.749996" style="fill:rgb(0,127,0);stroke-width:1" /><circle cx="34.575932" cy="75.769253" r="3.749996" style="fill:rgb(0,127,0);stroke-width:1" /><circle cx="34.321703" cy="75.006500" r="3.749996" style="fill:rgb(0,127,0);stroke-width:1" /><circle cx="31.931140" cy="67.834787" r="3.749996" style="fill:rgb(0,127,0);stroke-width:1" /><circle cx="31.694613" cy="67.125186" r="3.749996" style="fill:rgb(0,127,0);stroke-width:1" /><circle cx="31.461552" cy="66.426091" r="3.749996" style="fill:rgb(0,127,0);stroke-width:1" /><circle cx="28.813273" cy="58.481164" r="3.749996" style="fill:rgb(0,127,0);stroke-width:1" /><circle cx="28.601423" cy="57.845525" r="3.749996" style="fill:rgb(0,127,0);stroke-width:1" /><circle cx="28.392658" cy="57.219252" r="3.749996" style="fill:rgb(0,127,0);stroke-width:1" /><circle cx="26.929334" cy="52.829370" r="3.749996" style="fill:rgb(0,127,0);stroke-width:1" /><circle cx="26.723765" cy="52.212663" r="3.749996" style="fill:rgb(0,127,0);stroke-width:1" /><circle cx="26.521325" cy="51.605344" r="3.749996" style="fill:rgb(0,127,0);stroke-width:1" /><circle cx="23.754470" cy="43.304801" r="3.749996" style="fill:rgb(0,127,0);stroke-width:1" /><circle cx="20.945035" cy="34.876518" r="3.749996" style="fill:rgb(0,127,0);stroke-width:1" /><circle cx="20.785153" cy="34.396872" r="3.749996" style="fill:rgb(0,127,0);stroke-width:1" /><circle cx="20.627685" cy="33.924356" r="3.749996" style="fill:rgb(0,127,0);stroke-width:1" /><circle cx="20.472586" cy="33.459082" r="3.749996" style="fill:rgb(0,127,0);stroke-width:1" /><circle cx="20.319812" cy="33.000760" r="3.749996" style="fill:rgb(0,127,0);stroke-width:1" /><circle cx="20.169295" cy="32.549210" r="3.749996" style="fill:rgb(0,127,0);stroke-width:1" /><circle cx="17.503560" cy="26.519760" r="3.749996" style="fill:rgb(0,127,0);stroke-width:1" /><circle cx="14.632791" cy="21.287151" r="3.749996" style="fill:rgb(0,127,0);stroke-width:1" /><circle cx="11.733145" cy="16.678043" r="3.749996" style="fill:rgb(0,127,0);stroke-width:1" /><circle cx="11.644274" cy="16.411409" r="3.749996" style="fill:rgb(0,127,0);stroke-width:1" /><circle cx="11.556722" cy="16.148686" r="3.749996" style="fill:rgb(0,127,0);stroke-width:1" /><circle cx="11.470467" cy="15.889898" r="3.749996" style="fill:rgb(0,127,0);stroke-width:1" /><circle cx="11.385508" cy="15.635066" r="3.749996" style="fill:rgb(0,127,0);stroke-width:1" /><circle cx="8.890830" cy="12.061782" r="3.749996" style="fill:rgb(0,127,0);stroke-width:1" /><circle cx="8.822434" cy="11.856660" r="3.749996" style="fill:rgb(0,127,0);stroke-width:1" /><circle cx="8.623436" cy="11.259556" r="3.749996" style="fill:rgb(0,127,0);stroke-width:1" /><circle cx="5.754054" cy="7.727690" r="3.749996" style="fill:rgb(0,127,0);stroke-width:1" /><circle cx="2.878904" cy="4.358187" r="3.750008" style="fill:rgb(0,127,0);stroke-width:1" /><circle cx="750.000000" cy="750.000000" r="3.749996" style="fill:rgb(0,127,0);stroke-width:1" /><path stroke-linejoin="round" stroke-linecap="round" stroke="rgb(255,255,255)" stroke-width="3.749996" fill="none" d="M 0.000000 750.000000 L 750.000000 750.000000 M 0.000000 750.000000 L 0.000000 0.000000 " />

</svg>