<svg xmlns="http://www.w3.org/2000/svg" version="1.1" width = "750" height = "750" viewBox = "0 0 750 750"  shape-rendering="crispEdges">
<path stroke-linejoin="round" stroke-linecap="round" stroke="rgb(255,255,0)" stroke-width="3.749996" fill="none" d="M 83.333328 750.000000 L 0.000000 0.000000 " />
<path stroke-linejoin="round" stroke-linecap="round" stroke="rgb(63,63,63)" stroke-width="3.749996" fill="none" d="M 0.000000 0.000000 L 750.000000 750.000000 M 83.333328 750.000000 L 39.215683 0.000000 " />
<path stroke-linejoin="round" stroke-linecap="round" stroke="rgb(191,191,191)" stroke-width="3.749996" fill="none" d="M 0.000000 666.666687 L 83.333328 750.000000 M 0.000000 0.000000 L 44.117645 750.000000 " />
<path stroke-linejoin="round" stroke-linecap="round" stroke="rgb(0,0,255)" stroke-width="1.874998" fill="none" d="M 0.000000 750.000000 L 750.000000 728.571411 " />
<path stroke-linejoin="round" stroke-linecap="round" stroke="rgb(255,0,0)" stroke-width="3.749996" fill="none" d="M 83.193497 747.623047 L 83.333328 750.000000 " />
<path stroke-linejoin="round" stroke-linecap="round" stroke="rgb(0,0,255)" stroke-width="1.874998" fill="none" d="M 0.000000 750.000000 L 750.000000 705.882385 " />
<path stroke-linejoin="round" stroke-linecap="round" stroke="rgb(255,0,0)" stroke-width="3.749996" fill="none" d="M 82.696014 745.135559 L 83.193497 747.623047 " />
<path stroke-linejoin="round" stroke-linecap="round" stroke="rgb(0,0,255)" stroke-width="1.874998" fill="none" d="M 0.000000 750.000000 L 750.000000 685.714294 " />
<path stroke-linejoin="round" stroke-linecap="round" stroke="rgb(255,0,0)" stroke-width="3.749996" fill="none" d="M 82.258743 742.949280 L 82.696014 745.135559 " />
<path stroke-linejoin="round" stroke-linecap="round" stroke="rgb(0,0,255)" stroke-width="1.874998" fill="none" d="M 0.000000 750.000000 L 750.000000 661.764709 " />
<path stroke-linejoin="round" stroke-linecap="round" stroke="rgb(255,0,0)" stroke-width="3.749996" fill="none" d="M 81.745483 740.382874 L 82.258743 742.949280 " />
<path stroke-linejoin="round" stroke-linecap="round" stroke="rgb(0,0,255)" stroke-width="1.874998" fill="none" d="M 0.000000 750.000000 L 750.000000 636.363647 " />
<path stroke-linejoin="round" stroke-linecap="round" stroke="rgb(255,0,0)" stroke-width="3.749996" fill="none" d="M 81.208061 737.695740 L 81.745483 740.382874 " />
<path stroke-linejoin="round" stroke-linecap="round" stroke="rgb(0,0,255)" stroke-width="1.874998" fill="none" d="M 0.000000 750.000000 L 750.000000 617.647095 " />
<path stroke-linejoin="round" stroke-linecap="round" stroke="rgb(255,0,0)" stroke-width="3.749996" fill="none" d="M 80.816544 735.738220 L 81.208061 737.695740 " />
<path stroke-linejoin="round" stroke-linecap="round" stroke="rgb(0,0,255)" stroke-width="1.874998" fill="none" d="M 0.000000 750.000000 L 750.000000 590.909058 " />
<path stroke-linejoin="round" stroke-linecap="round" stroke="rgb(255,0,0)" stroke-width="3.749996" fill="none" d="M 80.263763 732.974304 L 80.816544 735.738220 " />
<path stroke-linejoin="round" stroke-linecap="round" stroke="rgb(0,0,255)" stroke-width="1.874998" fill="none" d="M 0.000000 750.000000 L 750.000000 573.529419 " />
<path stroke-linejoin="round" stroke-linecap="round" stroke="rgb(255,0,0)" stroke-width="3.749996" fill="none" d="M 79.908485 731.197998 L 80.263763 732.974304 " />
<path stroke-linejoin="round" stroke-linecap="round" stroke="rgb(0,0,255)" stroke-width="1.874998" fill="none" d="M 0.000000 750.000000 L 750.000000 557.142822 " />
<path stroke-linejoin="round" stroke-linecap="round" stroke="rgb(255,0,0)" stroke-width="3.749996" fill="none" d="M 79.576401 729.537537 L 79.908485 731.197998 " />
<path stroke-linejoin="round" stroke-linecap="round" stroke="rgb(0,0,255)" stroke-width="1.874998" fill="none" d="M 0.000000 750.000000 L 750.000000 532.258118 " />
<path stroke-linejoin="round" stroke-linecap="round" stroke="rgb(255,0,0)" stroke-width="3.749996" fill="none" d="M 79.077309 727.042053 L 79.576401 729.537537 " />
<path stroke-linejoin="round" stroke-linecap="round" stroke="rgb(0,0,255)" stroke-width="1.874998" fill="none" d="M 0.000000 750.000000 L 750.000000 515.625000 " />
<path stroke-linejoin="round" stroke-linecap="round" stroke="rgb(255,0,0)" stroke-width="3.749996" fill="none" d="M 78.747200 725.391479 L 79.077309 727.042053 " />
<path stroke-linejoin="round" stroke-linecap="round" stroke="rgb(0,0,255)" stroke-width="1.874998" fill="none" d="M 0.000000 750.000000 L 750.000000 483.870941 " />
<path stroke-linejoin="round" stroke-linecap="round" stroke="rgb(255,0,0)" stroke-width="3.749996" fill="none" d="M 78.124565 722.278381 L 78.747200 725.391479 " />
<path stroke-linejoin="round" stroke-linecap="round" stroke="rgb(0,0,255)" stroke-width="1.874998" fill="none" d="M 0.000000 750.000000 L 750.000000 468.750000 " />
<path stroke-linejoin="round" stroke-linecap="round" stroke="rgb(255,0,0)" stroke-width="3.749996" fill="none" d="M 77.831535 720.813171 L 78.124565 722.278381 " />
<path stroke-linejoin="round" stroke-linecap="round" stroke="rgb(0,0,255)" stroke-width="1.874998" fill="none" d="M 0.000000 750.000000 L 750.000000 454.545471 " />
<path stroke-linejoin="round" stroke-linecap="round" stroke="rgb(255,0,0)" stroke-width="3.749996" fill="none" d="M 77.558243 719.446777 L 77.831535 720.813171 " />
<path stroke-linejoin="round" stroke-linecap="round" stroke="rgb(0,0,255)" stroke-width="1.874998" fill="none" d="M 0.000000 750.000000 L 750.000000 450.000031 " />
<path stroke-linejoin="round" stroke-linecap="round" stroke="rgb(255,0,0)" stroke-width="3.749996" fill="none" d="M 77.471207 719.011536 L 77.558243 719.446777 " />
<path stroke-linejoin="round" stroke-linecap="round" stroke="rgb(0,0,255)" stroke-width="1.874998" fill="none" d="M 0.000000 750.000000 L 750.000000 413.793091 " />
<path stroke-linejoin="round" stroke-linecap="round" stroke="rgb(255,0,0)" stroke-width="3.749996" fill="none" d="M 76.784737 715.579285 L 77.471207 719.011536 " />
<path stroke-linejoin="round" stroke-linecap="round" stroke="rgb(0,0,255)" stroke-width="1.874998" fill="none" d="M 0.000000 750.000000 L 750.000000 399.999969 " />
<path stroke-linejoin="round" stroke-linecap="round" stroke="rgb(255,0,0)" stroke-width="3.749996" fill="none" d="M 76.526421 714.287659 L 76.784737 715.579285 " />
<path stroke-linejoin="round" stroke-linecap="round" stroke="rgb(0,0,255)" stroke-width="1.874998" fill="none" d="M 0.000000 750.000000 L 750.000000 362.068970 " />
<path stroke-linejoin="round" stroke-linecap="round" stroke="rgb(255,0,0)" stroke-width="3.749996" fill="none" d="M 75.824928 710.780212 L 76.526421 714.287659 " />
<path stroke-linejoin="round" stroke-linecap="round" stroke="rgb(0,0,255)" stroke-width="1.874998" fill="none" d="M 0.000000 750.000000 L 750.000000 349.999969 " />
<path stroke-linejoin="round" stroke-linecap="round" stroke="rgb(255,0,0)" stroke-width="3.749996" fill="none" d="M 75.604431 709.677612 L 75.824928 710.780212 " />
<path stroke-linejoin="round" stroke-linecap="round" stroke="rgb(0,0,255)" stroke-width="1.874998" fill="none" d="M 0.000000 750.000000 L 750.000000 321.428558 " />
<path stroke-linejoin="round" stroke-linecap="round" stroke="rgb(255,0,0)" stroke-width="3.749996" fill="none" d="M 75.087456 707.092896 L 75.604431 709.677612 " />
<path stroke-linejoin="round" stroke-linecap="round" stroke="rgb(0,0,255)" stroke-width="1.874998" fill="none" d="M 0.000000 750.000000 L 750.000000 310.344818 " />
<path stroke-linejoin="round" stroke-linecap="round" stroke="rgb(255,0,0)" stroke-width="3.749996" fill="none" d="M 74.888817 706.099670 L 75.087456 707.092896 " />
<path stroke-linejoin="round" stroke-linecap="round" stroke="rgb(0,0,255)" stroke-width="1.874998" fill="none" d="M 0.000000 750.000000 L 750.000000 277.777802 " />
<path stroke-linejoin="round" stroke-linecap="round" stroke="rgb(255,0,0)" stroke-width="3.749996" fill="none" d="M 74.311180 703.211487 L 74.888817 706.099670 " />
<path stroke-linejoin="round" stroke-linecap="round" stroke="rgb(0,0,255)" stroke-width="1.874998" fill="none" d="M 0.000000 750.000000 L 750.000000 267.857147 " />
<path stroke-linejoin="round" stroke-linecap="round" stroke="rgb(255,0,0)" stroke-width="3.749996" fill="none" d="M 74.136993 702.340515 L 74.311180 703.211487 " />
<path stroke-linejoin="round" stroke-linecap="round" stroke="rgb(0,0,255)" stroke-width="1.874998" fill="none" d="M 0.000000 750.000000 L 750.000000 222.222229 " />
<path stroke-linejoin="round" stroke-linecap="round" stroke="rgb(255,0,0)" stroke-width="3.749996" fill="none" d="M 73.346100 698.386047 L 74.136993 702.340515 " />
<path stroke-linejoin="round" stroke-linecap="round" stroke="rgb(0,0,255)" stroke-width="1.874998" fill="none" d="M 0.000000 750.000000 L 750.000000 214.285706 " />
<path stroke-linejoin="round" stroke-linecap="round" stroke="rgb(255,0,0)" stroke-width="3.749996" fill="none" d="M 73.210266 697.706909 L 73.346100 698.386047 " />
<path stroke-linejoin="round" stroke-linecap="round" stroke="rgb(0,0,255)" stroke-width="1.874998" fill="none" d="M 0.000000 750.000000 L 750.000000 166.666656 " />
<path stroke-linejoin="round" stroke-linecap="round" stroke="rgb(255,0,0)" stroke-width="3.749996" fill="none" d="M 72.405762 693.684448 L 73.210266 697.706909 " />
<path stroke-linejoin="round" stroke-linecap="round" stroke="rgb(0,0,255)" stroke-width="1.874998" fill="none" d="M 0.000000 750.000000 L 750.000000 115.384605 " />
<path stroke-linejoin="round" stroke-linecap="round" stroke="rgb(255,0,0)" stroke-width="3.749996" fill="none" d="M 71.558922 689.450134 L 72.405762 693.684448 " />
<path stroke-linejoin="round" stroke-linecap="round" stroke="rgb(0,0,255)" stroke-width="1.874998" fill="none" d="M 0.000000 750.000000 L 750.000000 59.999989 " />
<path stroke-linejoin="round" stroke-linecap="round" stroke="rgb(255,0,0)" stroke-width="3.749996" fill="none" d="M 70.666283 684.987000 L 71.558922 689.450134 " />
<path stroke-linejoin="round" stroke-linecap="round" stroke="rgb(0,0,255)" stroke-width="1.874998" fill="none" d="M 0.000000 750.000000 L 750.000000 57.692303 " />
<path stroke-linejoin="round" stroke-linecap="round" stroke="rgb(255,0,0)" stroke-width="3.749996" fill="none" d="M 70.629585 684.803467 L 70.666283 684.987000 " />
<path stroke-linejoin="round" stroke-linecap="round" stroke="rgb(0,0,255)" stroke-width="1.874998" fill="none" d="M 0.000000 750.000000 L 750.000000 0.000000 " />
<path stroke-linejoin="round" stroke-linecap="round" stroke="rgb(255,0,0)" stroke-width="3.749996" fill="none" d="M 69.724091 680.275879 L 70.629585 684.803467 " />
<path stroke-linejoin="round" stroke-linecap="round" stroke="rgb(0,0,255)" stroke-width="1.874998" fill="none" d="M 0.000000 750.000000 L 692.307678 0.000000 " />
<path stroke-linejoin="round" stroke-linecap="round" stroke="rgb(255,0,0)" stroke-width="3.749996" fill="none" d="M 68.768959 675.500305 L 69.724091 680.275879 " />
<path stroke-linejoin="round" stroke-linecap="round" stroke="rgb(0,0,255)" stroke-width="1.874998" fill="none" d="M 0.000000 750.000000 L 638.888916 0.000000 " />
<path stroke-linejoin="round" stroke-linecap="round" stroke="rgb(255,0,0)" stroke-width="3.749996" fill="none" d="M 67.760017 670.455627 L 68.768959 675.500305 " />
<path stroke-linejoin="round" stroke-linecap="round" stroke="rgb(0,0,255)" stroke-width="1.874998" fill="none" d="M 0.000000 750.000000 L 594.827576 0.000000 " />
<path stroke-linejoin="round" stroke-linecap="round" stroke="rgb(255,0,0)" stroke-width="3.749996" fill="none" d="M 66.818901 665.750061 L 67.760017 670.455627 " />
<path stroke-linejoin="round" stroke-linecap="round" stroke="rgb(0,0,255)" stroke-width="1.874998" fill="none" d="M 0.000000 750.000000 L 550.000000 0.000000 " />
<path stroke-linejoin="round" stroke-linecap="round" stroke="rgb(255,0,0)" stroke-width="3.749996" fill="none" d="M 65.739845 660.354736 L 66.818901 665.750061 " />
<path stroke-linejoin="round" stroke-linecap="round" stroke="rgb(0,0,255)" stroke-width="1.874998" fill="none" d="M 0.000000 750.000000 L 515.625000 0.000000 " />
<path stroke-linejoin="round" stroke-linecap="round" stroke="rgb(255,0,0)" stroke-width="3.749996" fill="none" d="M 64.813927 655.725159 L 65.739845 660.354736 " />
<path stroke-linejoin="round" stroke-linecap="round" stroke="rgb(0,0,255)" stroke-width="1.874998" fill="none" d="M 0.000000 750.000000 L 477.272705 0.000000 " />
<path stroke-linejoin="round" stroke-linecap="round" stroke="rgb(255,0,0)" stroke-width="3.749996" fill="none" d="M 63.661114 649.961121 L 64.813927 655.725159 " />
<path stroke-linejoin="round" stroke-linecap="round" stroke="rgb(0,0,255)" stroke-width="1.874998" fill="none" d="M 0.000000 750.000000 L 450.000031 0.000000 " />
<path stroke-linejoin="round" stroke-linecap="round" stroke="rgb(255,0,0)" stroke-width="3.749996" fill="none" d="M 62.751667 645.413879 L 63.661114 649.961121 " />
<path stroke-linejoin="round" stroke-linecap="round" stroke="rgb(0,0,255)" stroke-width="1.874998" fill="none" d="M 0.000000 750.000000 L 416.666687 0.000000 " />
<path stroke-linejoin="round" stroke-linecap="round" stroke="rgb(255,0,0)" stroke-width="3.749996" fill="none" d="M 61.521248 639.261780 L 62.751667 645.413879 " />
<path stroke-linejoin="round" stroke-linecap="round" stroke="rgb(0,0,255)" stroke-width="1.874998" fill="none" d="M 0.000000 750.000000 L 394.736847 0.000000 " />
<path stroke-linejoin="round" stroke-linecap="round" stroke="rgb(255,0,0)" stroke-width="3.749996" fill="none" d="M 60.629635 634.803711 L 61.521248 639.261780 " />
<path stroke-linejoin="round" stroke-linecap="round" stroke="rgb(0,0,255)" stroke-width="1.874998" fill="none" d="M 0.000000 750.000000 L 375.000000 0.000000 " />
<path stroke-linejoin="round" stroke-linecap="round" stroke="rgb(255,0,0)" stroke-width="3.749996" fill="none" d="M 59.763508 630.472961 L 60.629635 634.803711 " />
<path stroke-linejoin="round" stroke-linecap="round" stroke="rgb(0,0,255)" stroke-width="1.874998" fill="none" d="M 0.000000 750.000000 L 347.560944 0.000000 " />
<path stroke-linejoin="round" stroke-linecap="round" stroke="rgb(255,0,0)" stroke-width="3.749996" fill="none" d="M 58.445179 623.881470 L 59.763508 630.472961 " />
<path stroke-linejoin="round" stroke-linecap="round" stroke="rgb(0,0,255)" stroke-width="1.874998" fill="none" d="M 0.000000 750.000000 L 264.705902 0.000000 " />
<path stroke-linejoin="round" stroke-linecap="round" stroke="rgb(255,0,0)" stroke-width="3.749996" fill="none" d="M 55.951954 591.469482 L 58.445179 623.881470 " />
<path stroke-linejoin="round" stroke-linecap="round" stroke="rgb(0,0,255)" stroke-width="1.874998" fill="none" d="M 0.000000 750.000000 L 217.741928 0.000000 " />
<path stroke-linejoin="round" stroke-linecap="round" stroke="rgb(255,0,0)" stroke-width="3.749996" fill="none" d="M 53.872662 564.438660 L 55.951954 591.469482 " />
<path stroke-linejoin="round" stroke-linecap="round" stroke="rgb(0,0,255)" stroke-width="1.874998" fill="none" d="M 0.000000 750.000000 L 184.210510 0.000000 " />
<path stroke-linejoin="round" stroke-linecap="round" stroke="rgb(255,0,0)" stroke-width="3.749996" fill="none" d="M 51.894062 538.717041 L 53.872662 564.438660 " />
<path stroke-linejoin="round" stroke-linecap="round" stroke="rgb(0,0,255)" stroke-width="1.874998" fill="none" d="M 0.000000 750.000000 L 154.411774 0.000000 " />
<path stroke-linejoin="round" stroke-linecap="round" stroke="rgb(255,0,0)" stroke-width="3.749996" fill="none" d="M 49.610718 509.033600 L 51.894062 538.717041 " />
<path stroke-linejoin="round" stroke-linecap="round" stroke="rgb(0,0,255)" stroke-width="1.874998" fill="none" d="M 0.000000 750.000000 L 149.999985 0.000000 " />
<path stroke-linejoin="round" stroke-linecap="round" stroke="rgb(255,0,0)" stroke-width="3.749996" fill="none" d="M 48.901989 505.489990 L 49.610718 509.033600 " />
<path stroke-linejoin="round" stroke-linecap="round" stroke="rgb(0,0,255)" stroke-width="1.874998" fill="none" d="M 0.000000 750.000000 L 132.911392 0.000000 " />
<path stroke-linejoin="round" stroke-linecap="round" stroke="rgb(255,0,0)" stroke-width="3.749996" fill="none" d="M 47.215729 483.568390 L 48.901989 505.489990 " />
<path stroke-linejoin="round" stroke-linecap="round" stroke="rgb(0,0,255)" stroke-width="1.874998" fill="none" d="M 0.000000 750.000000 L 130.000015 0.000000 " />
<path stroke-linejoin="round" stroke-linecap="round" stroke="rgb(255,0,0)" stroke-width="3.749996" fill="none" d="M 46.661674 480.798096 L 47.215729 483.568390 " />
<path stroke-linejoin="round" stroke-linecap="round" stroke="rgb(0,0,255)" stroke-width="1.874998" fill="none" d="M 0.000000 750.000000 L 126.623375 0.000000 " />
<path stroke-linejoin="round" stroke-linecap="round" stroke="rgb(255,0,0)" stroke-width="3.749996" fill="none" d="M 46.004467 477.512054 L 46.661674 480.798096 " />
<path stroke-linejoin="round" stroke-linecap="round" stroke="rgb(0,0,255)" stroke-width="1.874998" fill="none" d="M 0.000000 750.000000 L 123.417732 0.000000 " />
<path stroke-linejoin="round" stroke-linecap="round" stroke="rgb(255,0,0)" stroke-width="3.749996" fill="none" d="M 45.365520 474.317291 L 46.004467 477.512024 " />
<path stroke-linejoin="round" stroke-linecap="round" stroke="rgb(0,0,255)" stroke-width="1.874998" fill="none" d="M 0.000000 750.000000 L 120.370392 0.000000 " />
<path stroke-linejoin="round" stroke-linecap="round" stroke="rgb(255,0,0)" stroke-width="3.749996" fill="none" d="M 44.744076 471.210022 L 45.365520 474.317291 " />
<path stroke-linejoin="round" stroke-linecap="round" stroke="rgb(0,0,255)" stroke-width="1.874998" fill="none" d="M 0.000000 750.000000 L 120.000000 0.000000 " />
<path stroke-linejoin="round" stroke-linecap="round" stroke="rgb(255,0,0)" stroke-width="3.749996" fill="none" d="M 44.699371 470.628937 L 44.744076 471.210022 " />
<path stroke-linejoin="round" stroke-linecap="round" stroke="rgb(0,0,255)" stroke-width="1.874998" fill="none" d="M 0.000000 750.000000 L 119.565208 0.000000 " />
<path stroke-linejoin="round" stroke-linecap="round" stroke="rgb(255,0,0)" stroke-width="3.749996" fill="none" d="M 44.609249 470.178375 L 44.699371 470.628937 " />
<path stroke-linejoin="round" stroke-linecap="round" stroke="rgb(0,0,255)" stroke-width="1.874998" fill="none" d="M 0.000000 750.000000 L 107.142853 0.000000 " />
<path stroke-linejoin="round" stroke-linecap="round" stroke="rgb(255,0,0)" stroke-width="3.749996" fill="none" d="M 41.905647 456.660400 L 44.609249 470.178375 " />
<path stroke-linejoin="round" stroke-linecap="round" stroke="rgb(0,0,255)" stroke-width="1.874998" fill="none" d="M 0.000000 750.000000 L 95.070404 0.000000 " />
<path stroke-linejoin="round" stroke-linecap="round" stroke="rgb(255,0,0)" stroke-width="3.749996" fill="none" d="M 39.015614 442.210205 L 41.905647 456.660431 " />
<path stroke-linejoin="round" stroke-linecap="round" stroke="rgb(0,0,255)" stroke-width="1.874998" fill="none" d="M 0.000000 750.000000 L 74.074074 0.000000 " />
<path stroke-linejoin="round" stroke-linecap="round" stroke="rgb(255,0,0)" stroke-width="3.749996" fill="none" d="M 35.242931 393.165405 L 39.015614 442.210266 " />
<path stroke-linejoin="round" stroke-linecap="round" stroke="rgb(0,0,255)" stroke-width="1.874998" fill="none" d="M 0.000000 750.000000 L 65.217400 0.000000 " />
<path stroke-linejoin="round" stroke-linecap="round" stroke="rgb(255,0,0)" stroke-width="3.749996" fill="none" d="M 33.265003 367.452423 L 35.242931 393.165405 " />
<path stroke-linejoin="round" stroke-linecap="round" stroke="rgb(0,0,255)" stroke-width="1.874998" fill="none" d="M 0.000000 750.000000 L 59.999989 0.000000 " />
<path stroke-linejoin="round" stroke-linecap="round" stroke="rgb(255,0,0)" stroke-width="3.749996" fill="none" d="M 31.960487 350.493805 L 33.265003 367.452423 " />
<path stroke-linejoin="round" stroke-linecap="round" stroke="rgb(0,0,255)" stroke-width="1.874998" fill="none" d="M 0.000000 750.000000 L 59.405945 0.000000 " />
<path stroke-linejoin="round" stroke-linecap="round" stroke="rgb(255,0,0)" stroke-width="3.749996" fill="none" d="M 31.804585 348.467041 L 31.960487 350.493805 " />
<path stroke-linejoin="round" stroke-linecap="round" stroke="rgb(0,0,255)" stroke-width="1.874998" fill="none" d="M 0.000000 750.000000 L 53.571426 0.000000 " />
<path stroke-linejoin="round" stroke-linecap="round" stroke="rgb(255,0,0)" stroke-width="3.749996" fill="none" d="M 30.184910 327.411163 L 31.804585 348.467041 " />
<path stroke-linejoin="round" stroke-linecap="round" stroke="rgb(0,0,255)" stroke-width="1.874998" fill="none" d="M 0.000000 750.000000 L 46.875000 0.000000 " />
<path stroke-linejoin="round" stroke-linecap="round" stroke="rgb(255,0,0)" stroke-width="3.749996" fill="none" d="M 28.103203 300.348816 L 30.184910 327.411163 " />
<path stroke-linejoin="round" stroke-linecap="round" stroke="rgb(0,0,255)" stroke-width="1.874998" fill="none" d="M 0.000000 750.000000 L 36.885246 0.000000 " />
<path stroke-linejoin="round" stroke-linecap="round" stroke="rgb(255,0,0)" stroke-width="3.749996" fill="none" d="M 24.449787 252.854385 L 28.103203 300.348755 " />
<path stroke-linejoin="round" stroke-linecap="round" stroke="rgb(0,0,255)" stroke-width="1.874998" fill="none" d="M 0.000000 750.000000 L 28.409086 0.000000 " />
<path stroke-linejoin="round" stroke-linecap="round" stroke="rgb(255,0,0)" stroke-width="3.749996" fill="none" d="M 20.685106 203.913483 L 24.449787 252.854385 " />
<path stroke-linejoin="round" stroke-linecap="round" stroke="rgb(0,0,255)" stroke-width="1.874998" fill="none" d="M 0.000000 750.000000 L 21.126755 0.000000 " />
<path stroke-linejoin="round" stroke-linecap="round" stroke="rgb(255,0,0)" stroke-width="3.749996" fill="none" d="M 16.803972 153.458878 L 20.685083 203.913528 " />
<path stroke-linejoin="round" stroke-linecap="round" stroke="rgb(0,0,255)" stroke-width="1.874998" fill="none" d="M 0.000000 750.000000 L 18.518507 0.000000 " />
<path stroke-linejoin="round" stroke-linecap="round" stroke="rgb(255,0,0)" stroke-width="3.749996" fill="none" d="M 15.233517 133.042816 L 16.803972 153.458878 " />
<path stroke-linejoin="round" stroke-linecap="round" stroke="rgb(0,0,255)" stroke-width="1.874998" fill="none" d="M 0.000000 750.000000 L 18.404917 0.000000 " />
<path stroke-linejoin="round" stroke-linecap="round" stroke="rgb(255,0,0)" stroke-width="3.749996" fill="none" d="M 15.162662 132.121689 L 15.233517 133.042816 " />
<path stroke-linejoin="round" stroke-linecap="round" stroke="rgb(0,0,255)" stroke-width="1.874998" fill="none" d="M 0.000000 750.000000 L 17.964073 0.000000 " />
<path stroke-linejoin="round" stroke-linecap="round" stroke="rgb(255,0,0)" stroke-width="3.749996" fill="none" d="M 14.885723 128.521393 L 15.162662 132.121643 " />
<path stroke-linejoin="round" stroke-linecap="round" stroke="rgb(0,0,255)" stroke-width="1.874998" fill="none" d="M 0.000000 750.000000 L 17.751486 0.000000 " />
<path stroke-linejoin="round" stroke-linecap="round" stroke="rgb(255,0,0)" stroke-width="3.749996" fill="none" d="M 14.751010 126.770142 L 14.885723 128.521393 " />
<path stroke-linejoin="round" stroke-linecap="round" stroke="rgb(0,0,255)" stroke-width="1.874998" fill="none" d="M 0.000000 750.000000 L 13.274342 0.000000 " />
<path stroke-linejoin="round" stroke-linecap="round" stroke="rgb(255,0,0)" stroke-width="3.749996" fill="none" d="M 11.726506 87.451859 L 14.751010 126.770142 " />
<path stroke-linejoin="round" stroke-linecap="round" stroke="rgb(0,0,255)" stroke-width="1.874998" fill="none" d="M 0.000000 750.000000 L 6.097555 0.000000 " />
<path stroke-linejoin="round" stroke-linecap="round" stroke="rgb(255,0,0)" stroke-width="3.749996" fill="none" d="M 5.907118 23.425251 L 11.726506 87.451859 " />
<path stroke-linejoin="round" stroke-linecap="round" stroke="rgb(0,0,255)" stroke-width="1.874998" fill="none" d="M 0.000000 750.000000 L 0.000000 0.000000 " />
<path stroke-linejoin="round" stroke-linecap="round" stroke="rgb(255,0,0)" stroke-width="3.749996" fill="none" d="M 0.000000 0.000000 L 5.907118 23.425251 " />
<circle cx="83.193496" cy="747.623071" r="3.749996" style="fill:rgb(0,127,0);stroke-width:1" /><circle cx="82.696013" cy="745.135523" r="3.749996" style="fill:rgb(0,127,0);stroke-width:1" /><circle cx="82.258746" cy="742.949255" r="3.749996" style="fill:rgb(0,127,0);stroke-width:1" /><circle cx="81.745483" cy="740.382895" r="3.749996" style="fill:rgb(0,127,0);stroke-width:1" /><circle cx="81.208058" cy="737.695746" r="3.749996" style="fill:rgb(0,127,0);stroke-width:1" /><circle cx="80.816545" cy="735.738248" r="3.749996" style="fill:rgb(0,127,0);stroke-width:1" /><circle cx="80.263764" cy="732.974343" r="3.749996" style="fill:rgb(0,127,0);stroke-width:1" /><circle cx="79.908483" cy="731.198005" r="3.749996" style="fill:rgb(0,127,0);stroke-width:1" /><circle cx="79.576403" cy="729.537494" r="3.749996" style="fill:rgb(0,127,0);stroke-width:1" /><circle cx="79.077311" cy="727.042079" r="3.749996" style="fill:rgb(0,127,0);stroke-width:1" /><circle cx="78.747198" cy="725.391492" r="3.749996" style="fill:rgb(0,127,0);stroke-width:1" /><circle cx="78.124568" cy="722.278386" r="3.749996" style="fill:rgb(0,127,0);stroke-width:1" /><circle cx="77.831537" cy="720.813185" r="3.749996" style="fill:rgb(0,127,0);stroke-width:1" /><circle cx="77.558242" cy="719.446756" r="3.749996" style="fill:rgb(0,127,0);stroke-width:1" /><circle cx="77.471204" cy="719.011523" r="3.749996" style="fill:rgb(0,127,0);stroke-width:1" /><circle cx="76.784737" cy="715.579256" r="3.749996" style="fill:rgb(0,127,0);stroke-width:1" /><circle cx="76.526418" cy="714.287661" r="3.749996" style="fill:rgb(0,127,0);stroke-width:1" /><circle cx="75.824931" cy="710.780203" r="3.749996" style="fill:rgb(0,127,0);stroke-width:1" /><circle cx="75.604431" cy="709.677637" r="3.749996" style="fill:rgb(0,127,0);stroke-width:1" /><circle cx="75.087458" cy="707.092881" r="3.749996" style="fill:rgb(0,127,0);stroke-width:1" /><circle cx="74.888818" cy="706.099659" r="3.749996" style="fill:rgb(0,127,0);stroke-width:1" /><circle cx="74.311182" cy="703.211479" r="3.749996" style="fill:rgb(0,127,0);stroke-width:1" /><circle cx="74.136995" cy="702.340499" r="3.749996" style="fill:rgb(0,127,0);stroke-width:1" /><circle cx="73.346101" cy="698.386073" r="3.749996" style="fill:rgb(0,127,0);stroke-width:1" /><circle cx="73.210269" cy="697.706938" r="3.749996" style="fill:rgb(0,127,0);stroke-width:1" /><circle cx="72.405763" cy="693.684407" r="3.749996" style="fill:rgb(0,127,0);stroke-width:1" /><circle cx="71.558923" cy="689.450160" r="3.749996" style="fill:rgb(0,127,0);stroke-width:1" /><circle cx="70.666283" cy="684.987009" r="3.749996" style="fill:rgb(0,127,0);stroke-width:1" /><circle cx="70.629582" cy="684.803456" r="3.749996" style="fill:rgb(0,127,0);stroke-width:1" /><circle cx="69.724090" cy="680.275910" r="3.749996" style="fill:rgb(0,127,0);stroke-width:1" /><circle cx="68.768956" cy="675.500304" r="3.749996" style="fill:rgb(0,127,0);stroke-width:1" /><circle cx="67.760020" cy="670.455627" r="3.749996" style="fill:rgb(0,127,0);stroke-width:1" /><circle cx="66.818900" cy="665.750071" r="3.749996" style="fill:rgb(0,127,0);stroke-width:1" /><circle cx="65.739848" cy="660.354763" r="3.749996" style="fill:rgb(0,127,0);stroke-width:1" /><circle cx="64.813927" cy="655.725181" r="3.749996" style="fill:rgb(0,127,0);stroke-width:1" /><circle cx="63.661113" cy="649.961114" r="3.749996" style="fill:rgb(0,127,0);stroke-width:1" /><circle cx="62.751666" cy="645.413876" r="3.749996" style="fill:rgb(0,127,0);stroke-width:1" /><circle cx="61.521247" cy="639.261760" r="3.749996" style="fill:rgb(0,127,0);stroke-width:1" /><circle cx="60.629636" cy="634.803705" r="3.749996" style="fill:rgb(0,127,0);stroke-width:1" /><circle cx="59.763506" cy="630.473010" r="3.749996" style="fill:rgb(0,127,0);stroke-width:1" /><circle cx="58.445178" cy="623.881459" r="3.749996" style="fill:rgb(0,127,0);stroke-width:1" /><circle cx="55.951953" cy="591.469489" r="3.749996" style="fill:rgb(0,127,0);stroke-width:1" /><circle cx="53.872660" cy="564.438656" r="3.749996" style="fill:rgb(0,127,0);stroke-width:1" /><circle cx="51.894061" cy="538.717009" r="3.749996" style="fill:rgb(0,127,0);stroke-width:1" /><circle cx="49.610719" cy="509.033617" r="3.749996" style="fill:rgb(0,127,0);stroke-width:1" /><circle cx="48.901990" cy="505.490005" r="3.749996" style="fill:rgb(0,127,0);stroke-width:1" /><circle cx="47.215730" cy="483.568411" r="3.749996" style="fill:rgb(0,127,0);stroke-width:1" /><circle cx="46.661675" cy="480.798081" r="3.749996" style="fill:rgb(0,127,0);stroke-width:1" /><circle cx="46.004467" cy="477.512039" r="3.749996" style="fill:rgb(0,127,0);stroke-width:1" /><circle cx="45.365520" cy="474.317271" r="3.749996" style="fill:rgb(0,127,0);stroke-width:1" /><circle cx="44.744074" cy="471.210022" r="3.749996" style="fill:rgb(0,127,0);stroke-width:1" /><circle cx="44.699371" cy="470.628932" r="3.749996" style="fill:rgb(0,127,0);stroke-width:1" /><circle cx="44.609249" cy="470.178343" r="3.749996" style="fill:rgb(0,127,0);stroke-width:1" /><circle cx="41.905649" cy="456.660412" r="3.749996" style="fill:rgb(0,127,0);stroke-width:1" /><circle cx="39.015613" cy="442.210218" r="3.749996" style="fill:rgb(0,127,0);stroke-width:1" /><circle cx="35.242930" cy="393.165389" r="3.749996" style="fill:rgb(0,127,0);stroke-width:1" /><circle cx="33.265002" cy="367.452423" r="3.749996" style="fill:rgb(0,127,0);stroke-width:1" /><circle cx="31.960487" cy="350.493788" r="3.749996" style="fill:rgb(0,127,0);stroke-width:1" /><circle cx="31.804584" cy="348.467032" r="3.749996" style="fill:rgb(0,127,0);stroke-width:1" /><circle cx="30.184910" cy="327.411175" r="3.749996" style="fill:rgb(0,127,0);stroke-width:1" /><circle cx="28.103203" cy="300.348798" r="3.749996" style="fill:rgb(0,127,0);stroke-width:1" /><circle cx="24.449788" cy="252.854392" r="3.749996" style="fill:rgb(0,127,0);stroke-width:1" /><circle cx="20.685107" cy="203.913487" r="3.749996" style="fill:rgb(0,127,0);stroke-width:1" /><circle cx="16.803972" cy="153.458878" r="3.749996" style="fill:rgb(0,127,0);stroke-width:1" /><circle cx="15.233517" cy="133.042820" r="3.749996" style="fill:rgb(0,127,0);stroke-width:1" /><circle cx="15.162662" cy="132.121682" r="3.749996" style="fill:rgb(0,127,0);stroke-width:1" /><circle cx="14.885724" cy="128.521398" r="3.749996" style="fill:rgb(0,127,0);stroke-width:1" /><circle cx="14.751010" cy="126.770139" r="3.749996" style="fill:rgb(0,127,0);stroke-width:1" /><circle cx="11.726506" cy="87.451860" r="3.749996" style="fill:rgb(0,127,0);stroke-width:1" /><circle cx="5.907118" cy="23.425251" r="3.749996" style="fill:rgb(0,127,0);stroke-width:1" /><circle cx="750.000000" cy="750.000000" r="3.749996" style="fill:rgb(0,127,0);stroke-width:1" /><path stroke-linejoin="round" stroke-linecap="round" stroke="rgb(255,255,255)" stroke-width="3.749996" fill="none" d="M 0.000000 750.000000 L 750.000000 750.000000 M 0.000000 750.000000 L 0.000000 0.000000 " />

</svg>