<svg xmlns="http://www.w3.org/2000/svg" version="1.1" width = "750" height = "750" viewBox = "0 0 750 750"  shape-rendering="crispEdges">
<path stroke-linejoin="round" stroke-linecap="round" stroke="rgb(255,255,0)" stroke-width="3.749996" fill="none" d="M 83.333328 750.000000 L 0.000000 0.000000 " />
<path stroke-linejoin="round" stroke-linecap="round" stroke="rgb(63,63,63)" stroke-width="3.749996" fill="none" d="M 0.000000 0.000000 L 750.000000 750.000000 M 83.333328 750.000000 L 39.215683 0.000000 " />
<path stroke-linejoin="round" stroke-linecap="round" stroke="rgb(191,191,191)" stroke-width="3.749996" fill="none" d="M 0.000000 666.666687 L 83.333328 750.000000 M 0.000000 0.000000 L 44.117645 750.000000 " />
<path stroke-linejoin="round" stroke-linecap="round" stroke="rgb(0,0,255)" stroke-width="1.874998" fill="none" d="M 0.000000 750.000000 L 750.000000 730.263123 " />
<path stroke-linejoin="round" stroke-linecap="round" stroke="rgb(255,0,0)" stroke-width="3.749996" fill="none" d="M 83.204536 747.810425 L 83.333328 750.000000 " />
<path stroke-linejoin="round" stroke-linecap="round" stroke="rgb(0,0,255)" stroke-width="1.874998" fill="none" d="M 0.000000 750.000000 L 750.000000 709.459473 " />
<path stroke-linejoin="round" stroke-linecap="round" stroke="rgb(255,0,0)" stroke-width="3.749996" fill="none" d="M 82.747894 745.527161 L 83.204536 747.810425 " />
<path stroke-linejoin="round" stroke-linecap="round" stroke="rgb(0,0,255)" stroke-width="1.874998" fill="none" d="M 0.000000 750.000000 L 750.000000 690.789490 " />
<path stroke-linejoin="round" stroke-linecap="round" stroke="rgb(255,0,0)" stroke-width="3.749996" fill="none" d="M 82.342316 743.499329 L 82.747894 745.527161 " />
<path stroke-linejoin="round" stroke-linecap="round" stroke="rgb(0,0,255)" stroke-width="1.874998" fill="none" d="M 0.000000 750.000000 L 750.000000 687.500000 " />
<path stroke-linejoin="round" stroke-linecap="round" stroke="rgb(255,0,0)" stroke-width="3.749996" fill="none" d="M 82.271263 743.144043 L 82.342300 743.499329 " />
<path stroke-linejoin="round" stroke-linecap="round" stroke="rgb(0,0,255)" stroke-width="1.874998" fill="none" d="M 0.000000 750.000000 L 750.000000 668.918945 " />
<path stroke-linejoin="round" stroke-linecap="round" stroke="rgb(255,0,0)" stroke-width="3.749996" fill="none" d="M 81.872238 741.148987 L 82.271240 743.144104 " />
<path stroke-linejoin="round" stroke-linecap="round" stroke="rgb(0,0,255)" stroke-width="1.874998" fill="none" d="M 0.000000 750.000000 L 750.000000 645.833313 " />
<path stroke-linejoin="round" stroke-linecap="round" stroke="rgb(255,0,0)" stroke-width="3.749996" fill="none" d="M 81.381844 738.697021 L 81.872238 741.148987 " />
<path stroke-linejoin="round" stroke-linecap="round" stroke="rgb(0,0,255)" stroke-width="1.874998" fill="none" d="M 0.000000 750.000000 L 750.000000 621.428589 " />
<path stroke-linejoin="round" stroke-linecap="round" stroke="rgb(255,0,0)" stroke-width="3.749996" fill="none" d="M 80.869766 736.136658 L 81.381844 738.697021 " />
<path stroke-linejoin="round" stroke-linecap="round" stroke="rgb(0,0,255)" stroke-width="1.874998" fill="none" d="M 0.000000 750.000000 L 750.000000 595.588196 " />
<path stroke-linejoin="round" stroke-linecap="round" stroke="rgb(255,0,0)" stroke-width="3.749996" fill="none" d="M 80.334526 733.460510 L 80.869766 736.136658 " />
<path stroke-linejoin="round" stroke-linecap="round" stroke="rgb(0,0,255)" stroke-width="1.874998" fill="none" d="M 0.000000 750.000000 L 750.000000 568.181824 " />
<path stroke-linejoin="round" stroke-linecap="round" stroke="rgb(255,0,0)" stroke-width="3.749996" fill="none" d="M 79.774597 730.660767 L 80.334526 733.460510 " />
<path stroke-linejoin="round" stroke-linecap="round" stroke="rgb(0,0,255)" stroke-width="1.874998" fill="none" d="M 0.000000 750.000000 L 750.000000 551.470581 " />
<path stroke-linejoin="round" stroke-linecap="round" stroke="rgb(255,0,0)" stroke-width="3.749996" fill="none" d="M 79.436974 728.972534 L 79.774597 730.660706 " />
<path stroke-linejoin="round" stroke-linecap="round" stroke="rgb(0,0,255)" stroke-width="1.874998" fill="none" d="M 0.000000 750.000000 L 750.000000 539.062500 " />
<path stroke-linejoin="round" stroke-linecap="round" stroke="rgb(255,0,0)" stroke-width="3.749996" fill="none" d="M 79.188133 727.728394 L 79.436974 728.972534 " />
<path stroke-linejoin="round" stroke-linecap="round" stroke="rgb(0,0,255)" stroke-width="1.874998" fill="none" d="M 0.000000 750.000000 L 750.000000 522.727295 " />
<path stroke-linejoin="round" stroke-linecap="round" stroke="rgb(255,0,0)" stroke-width="3.749996" fill="none" d="M 78.862892 726.102173 L 79.188133 727.728394 " />
<path stroke-linejoin="round" stroke-linecap="round" stroke="rgb(0,0,255)" stroke-width="1.874998" fill="none" d="M 0.000000 750.000000 L 750.000000 508.064514 " />
<path stroke-linejoin="round" stroke-linecap="round" stroke="rgb(255,0,0)" stroke-width="3.749996" fill="none" d="M 78.573212 724.653809 L 78.862892 726.102173 " />
<path stroke-linejoin="round" stroke-linecap="round" stroke="rgb(0,0,255)" stroke-width="1.874998" fill="none" d="M 0.000000 750.000000 L 750.000000 492.187500 " />
<path stroke-linejoin="round" stroke-linecap="round" stroke="rgb(255,0,0)" stroke-width="3.749996" fill="none" d="M 78.261940 723.097473 L 78.573212 724.653809 " />
<path stroke-linejoin="round" stroke-linecap="round" stroke="rgb(0,0,255)" stroke-width="1.874998" fill="none" d="M 0.000000 750.000000 L 750.000000 459.677429 " />
<path stroke-linejoin="round" stroke-linecap="round" stroke="rgb(255,0,0)" stroke-width="3.749996" fill="none" d="M 77.632225 719.948792 L 78.261940 723.097473 " />
<path stroke-linejoin="round" stroke-linecap="round" stroke="rgb(0,0,255)" stroke-width="1.874998" fill="none" d="M 0.000000 750.000000 L 750.000000 439.655182 " />
<path stroke-linejoin="round" stroke-linecap="round" stroke="rgb(255,0,0)" stroke-width="3.749996" fill="none" d="M 77.249405 718.034729 L 77.632202 719.948792 " />
<path stroke-linejoin="round" stroke-linecap="round" stroke="rgb(0,0,255)" stroke-width="1.874998" fill="none" d="M 0.000000 750.000000 L 750.000000 425.000000 " />
<path stroke-linejoin="round" stroke-linecap="round" stroke="rgb(255,0,0)" stroke-width="3.749996" fill="none" d="M 76.971573 716.645630 L 77.249405 718.034729 " />
<path stroke-linejoin="round" stroke-linecap="round" stroke="rgb(0,0,255)" stroke-width="1.874998" fill="none" d="M 0.000000 750.000000 L 750.000000 401.785706 " />
<path stroke-linejoin="round" stroke-linecap="round" stroke="rgb(255,0,0)" stroke-width="3.749996" fill="none" d="M 76.535583 714.465637 L 76.971573 716.645630 " />
<path stroke-linejoin="round" stroke-linecap="round" stroke="rgb(0,0,255)" stroke-width="1.874998" fill="none" d="M 0.000000 750.000000 L 750.000000 387.931030 " />
<path stroke-linejoin="round" stroke-linecap="round" stroke="rgb(255,0,0)" stroke-width="3.749996" fill="none" d="M 76.277710 713.176331 L 76.535583 714.465637 " />
<path stroke-linejoin="round" stroke-linecap="round" stroke="rgb(0,0,255)" stroke-width="1.874998" fill="none" d="M 0.000000 750.000000 L 750.000000 361.111115 " />
<path stroke-linejoin="round" stroke-linecap="round" stroke="rgb(255,0,0)" stroke-width="3.749996" fill="none" d="M 75.783447 710.704895 L 76.277710 713.176331 " />
<path stroke-linejoin="round" stroke-linecap="round" stroke="rgb(0,0,255)" stroke-width="1.874998" fill="none" d="M 0.000000 750.000000 L 750.000000 348.214294 " />
<path stroke-linejoin="round" stroke-linecap="round" stroke="rgb(255,0,0)" stroke-width="3.749996" fill="none" d="M 75.548035 709.527832 L 75.783447 710.704895 " />
<path stroke-linejoin="round" stroke-linecap="round" stroke="rgb(0,0,255)" stroke-width="1.874998" fill="none" d="M 0.000000 750.000000 L 750.000000 305.555542 " />
<path stroke-linejoin="round" stroke-linecap="round" stroke="rgb(255,0,0)" stroke-width="3.749996" fill="none" d="M 74.779671 705.686096 L 75.548035 709.527832 " />
<path stroke-linejoin="round" stroke-linecap="round" stroke="rgb(0,0,255)" stroke-width="1.874998" fill="none" d="M 0.000000 750.000000 L 750.000000 270.000000 " />
<path stroke-linejoin="round" stroke-linecap="round" stroke="rgb(255,0,0)" stroke-width="3.749996" fill="none" d="M 74.151123 702.543335 L 74.779671 705.686096 " />
<path stroke-linejoin="round" stroke-linecap="round" stroke="rgb(0,0,255)" stroke-width="1.874998" fill="none" d="M 0.000000 750.000000 L 750.000000 218.750015 " />
<path stroke-linejoin="round" stroke-linecap="round" stroke="rgb(255,0,0)" stroke-width="3.749996" fill="none" d="M 73.263466 698.105042 L 74.151123 702.543335 " />
<path stroke-linejoin="round" stroke-linecap="round" stroke="rgb(0,0,255)" stroke-width="1.874998" fill="none" d="M 0.000000 750.000000 L 750.000000 163.043488 " />
<path stroke-linejoin="round" stroke-linecap="round" stroke="rgb(255,0,0)" stroke-width="3.749996" fill="none" d="M 72.322411 693.399841 L 73.263466 698.105042 " />
<path stroke-linejoin="round" stroke-linecap="round" stroke="rgb(0,0,255)" stroke-width="1.874998" fill="none" d="M 0.000000 750.000000 L 750.000000 156.249985 " />
<path stroke-linejoin="round" stroke-linecap="round" stroke="rgb(255,0,0)" stroke-width="3.749996" fill="none" d="M 72.209312 692.834290 L 72.322411 693.399841 " />
<path stroke-linejoin="round" stroke-linecap="round" stroke="rgb(0,0,255)" stroke-width="1.874998" fill="none" d="M 0.000000 750.000000 L 750.000000 97.826111 " />
<path stroke-linejoin="round" stroke-linecap="round" stroke="rgb(255,0,0)" stroke-width="3.749996" fill="none" d="M 71.250984 688.042603 L 72.209312 692.834290 " />
<path stroke-linejoin="round" stroke-linecap="round" stroke="rgb(0,0,255)" stroke-width="1.874998" fill="none" d="M 0.000000 750.000000 L 750.000000 93.750000 " />
<path stroke-linejoin="round" stroke-linecap="round" stroke="rgb(255,0,0)" stroke-width="3.749996" fill="none" d="M 71.185066 687.713074 L 71.250984 688.042603 " />
<path stroke-linejoin="round" stroke-linecap="round" stroke="rgb(0,0,255)" stroke-width="1.874998" fill="none" d="M 0.000000 750.000000 L 750.000000 32.608688 " />
<path stroke-linejoin="round" stroke-linecap="round" stroke="rgb(255,0,0)" stroke-width="3.749996" fill="none" d="M 70.210823 682.841797 L 71.185066 687.713074 " />
<path stroke-linejoin="round" stroke-linecap="round" stroke="rgb(0,0,255)" stroke-width="1.874998" fill="none" d="M 0.000000 750.000000 L 750.000000 31.250015 " />
<path stroke-linejoin="round" stroke-linecap="round" stroke="rgb(255,0,0)" stroke-width="3.749996" fill="none" d="M 70.189476 682.735107 L 70.210823 682.841797 " />
<path stroke-linejoin="round" stroke-linecap="round" stroke="rgb(0,0,255)" stroke-width="1.874998" fill="none" d="M 0.000000 750.000000 L 718.750000 0.000000 " />
<path stroke-linejoin="round" stroke-linecap="round" stroke="rgb(255,0,0)" stroke-width="3.749996" fill="none" d="M 69.200592 677.790710 L 70.189476 682.735107 " />
<path stroke-linejoin="round" stroke-linecap="round" stroke="rgb(0,0,255)" stroke-width="1.874998" fill="none" d="M 0.000000 750.000000 L 660.000000 0.000000 " />
<path stroke-linejoin="round" stroke-linecap="round" stroke="rgb(255,0,0)" stroke-width="3.749996" fill="none" d="M 68.153099 672.553284 L 69.200592 677.790710 " />
<path stroke-linejoin="round" stroke-linecap="round" stroke="rgb(0,0,255)" stroke-width="1.874998" fill="none" d="M 0.000000 750.000000 L 605.769226 0.000000 " />
<path stroke-linejoin="round" stroke-linecap="round" stroke="rgb(255,0,0)" stroke-width="3.749996" fill="none" d="M 67.041656 666.996033 L 68.153099 672.553284 " />
<path stroke-linejoin="round" stroke-linecap="round" stroke="rgb(0,0,255)" stroke-width="1.874998" fill="none" d="M 0.000000 750.000000 L 562.500000 0.000000 " />
<path stroke-linejoin="round" stroke-linecap="round" stroke="rgb(255,0,0)" stroke-width="3.749996" fill="none" d="M 66.033508 661.955322 L 67.041656 666.996033 " />
<path stroke-linejoin="round" stroke-linecap="round" stroke="rgb(0,0,255)" stroke-width="1.874998" fill="none" d="M 0.000000 750.000000 L 517.241333 0.000000 " />
<path stroke-linejoin="round" stroke-linecap="round" stroke="rgb(255,0,0)" stroke-width="3.749996" fill="none" d="M 64.839096 655.983276 L 66.033508 661.955322 " />
<path stroke-linejoin="round" stroke-linecap="round" stroke="rgb(0,0,255)" stroke-width="1.874998" fill="none" d="M 0.000000 750.000000 L 475.000000 0.000000 " />
<path stroke-linejoin="round" stroke-linecap="round" stroke="rgb(255,0,0)" stroke-width="3.749996" fill="none" d="M 63.568264 649.629028 L 64.839096 655.983276 " />
<path stroke-linejoin="round" stroke-linecap="round" stroke="rgb(0,0,255)" stroke-width="1.874998" fill="none" d="M 0.000000 750.000000 L 435.483856 0.000000 " />
<path stroke-linejoin="round" stroke-linecap="round" stroke="rgb(255,0,0)" stroke-width="3.749996" fill="none" d="M 62.213390 642.854675 L 63.568264 649.629028 " />
<path stroke-linejoin="round" stroke-linecap="round" stroke="rgb(0,0,255)" stroke-width="1.874998" fill="none" d="M 0.000000 750.000000 L 398.437500 0.000000 " />
<path stroke-linejoin="round" stroke-linecap="round" stroke="rgb(255,0,0)" stroke-width="3.749996" fill="none" d="M 60.765892 635.617188 L 62.213390 642.854675 " />
<path stroke-linejoin="round" stroke-linecap="round" stroke="rgb(0,0,255)" stroke-width="1.874998" fill="none" d="M 0.000000 750.000000 L 375.000000 0.000000 " />
<path stroke-linejoin="round" stroke-linecap="round" stroke="rgb(255,0,0)" stroke-width="3.749996" fill="none" d="M 59.744598 630.510803 L 60.765892 635.617188 " />
<path stroke-linejoin="round" stroke-linecap="round" stroke="rgb(0,0,255)" stroke-width="1.874998" fill="none" d="M 0.000000 750.000000 L 354.166656 0.000000 " />
<path stroke-linejoin="round" stroke-linecap="round" stroke="rgb(255,0,0)" stroke-width="3.749996" fill="none" d="M 58.757095 625.573242 L 59.744598 630.510803 " />
<path stroke-linejoin="round" stroke-linecap="round" stroke="rgb(0,0,255)" stroke-width="1.874998" fill="none" d="M 0.000000 750.000000 L 324.324341 0.000000 " />
<path stroke-linejoin="round" stroke-linecap="round" stroke="rgb(255,0,0)" stroke-width="3.749996" fill="none" d="M 57.191425 617.744812 L 58.757095 625.573242 " />
<path stroke-linejoin="round" stroke-linecap="round" stroke="rgb(0,0,255)" stroke-width="1.874998" fill="none" d="M 0.000000 750.000000 L 307.692322 0.000000 " />
<path stroke-linejoin="round" stroke-linecap="round" stroke="rgb(255,0,0)" stroke-width="3.749996" fill="none" d="M 56.230232 612.938843 L 57.191425 617.744812 " />
<path stroke-linejoin="round" stroke-linecap="round" stroke="rgb(0,0,255)" stroke-width="1.874998" fill="none" d="M 0.000000 750.000000 L 281.250000 0.000000 " />
<path stroke-linejoin="round" stroke-linecap="round" stroke="rgb(255,0,0)" stroke-width="3.749996" fill="none" d="M 54.549427 604.534851 L 56.230232 612.938843 " />
<path stroke-linejoin="round" stroke-linecap="round" stroke="rgb(0,0,255)" stroke-width="1.874998" fill="none" d="M 0.000000 750.000000 L 267.857147 0.000000 " />
<path stroke-linejoin="round" stroke-linecap="round" stroke="rgb(255,0,0)" stroke-width="3.749996" fill="none" d="M 53.616955 599.872559 L 54.549427 604.534851 " />
<path stroke-linejoin="round" stroke-linecap="round" stroke="rgb(0,0,255)" stroke-width="1.874998" fill="none" d="M 0.000000 750.000000 L 255.681824 0.000000 " />
<path stroke-linejoin="round" stroke-linecap="round" stroke="rgb(255,0,0)" stroke-width="3.749996" fill="none" d="M 52.715824 595.366882 L 53.616955 599.872559 " />
<path stroke-linejoin="round" stroke-linecap="round" stroke="rgb(0,0,255)" stroke-width="1.874998" fill="none" d="M 0.000000 750.000000 L 244.186050 0.000000 " />
<path stroke-linejoin="round" stroke-linecap="round" stroke="rgb(255,0,0)" stroke-width="3.749996" fill="none" d="M 51.813908 590.857300 L 52.715824 595.366882 " />
<path stroke-linejoin="round" stroke-linecap="round" stroke="rgb(0,0,255)" stroke-width="1.874998" fill="none" d="M 0.000000 750.000000 L 221.590897 0.000000 " />
<path stroke-linejoin="round" stroke-linecap="round" stroke="rgb(255,0,0)" stroke-width="3.749996" fill="none" d="M 49.878536 581.180359 L 51.813908 590.857300 " />
<path stroke-linejoin="round" stroke-linecap="round" stroke="rgb(0,0,255)" stroke-width="1.874998" fill="none" d="M 0.000000 750.000000 L 200.000015 0.000000 " />
<path stroke-linejoin="round" stroke-linecap="round" stroke="rgb(255,0,0)" stroke-width="3.749996" fill="none" d="M 47.795692 570.766174 L 49.878536 581.180359 " />
<path stroke-linejoin="round" stroke-linecap="round" stroke="rgb(0,0,255)" stroke-width="1.874998" fill="none" d="M 0.000000 750.000000 L 179.347824 0.000000 " />
<path stroke-linejoin="round" stroke-linecap="round" stroke="rgb(255,0,0)" stroke-width="3.749996" fill="none" d="M 45.547867 559.527100 L 47.795692 570.766174 " />
<path stroke-linejoin="round" stroke-linecap="round" stroke="rgb(0,0,255)" stroke-width="1.874998" fill="none" d="M 0.000000 750.000000 L 171.875000 0.000000 " />
<path stroke-linejoin="round" stroke-linecap="round" stroke="rgb(255,0,0)" stroke-width="3.749996" fill="none" d="M 44.663452 555.104980 L 45.547867 559.527100 " />
<path stroke-linejoin="round" stroke-linecap="round" stroke="rgb(0,0,255)" stroke-width="1.874998" fill="none" d="M 0.000000 750.000000 L 165.000000 0.000000 " />
<path stroke-linejoin="round" stroke-linecap="round" stroke="rgb(255,0,0)" stroke-width="3.749996" fill="none" d="M 43.812721 550.851318 L 44.663452 555.104980 " />
<path stroke-linejoin="round" stroke-linecap="round" stroke="rgb(0,0,255)" stroke-width="1.874998" fill="none" d="M 0.000000 750.000000 L 158.653854 0.000000 " />
<path stroke-linejoin="round" stroke-linecap="round" stroke="rgb(255,0,0)" stroke-width="3.749996" fill="none" d="M 42.993797 546.756653 L 43.812721 550.851318 " />
<path stroke-linejoin="round" stroke-linecap="round" stroke="rgb(0,0,255)" stroke-width="1.874998" fill="none" d="M 0.000000 750.000000 L 141.509415 0.000000 " />
<path stroke-linejoin="round" stroke-linecap="round" stroke="rgb(255,0,0)" stroke-width="3.749996" fill="none" d="M 40.603123 534.803406 L 42.993797 546.756653 " />
<path stroke-linejoin="round" stroke-linecap="round" stroke="rgb(0,0,255)" stroke-width="1.874998" fill="none" d="M 0.000000 750.000000 L 125.000015 0.000000 " />
<path stroke-linejoin="round" stroke-linecap="round" stroke="rgb(255,0,0)" stroke-width="3.749996" fill="none" d="M 38.019306 521.884216 L 40.603123 534.803406 " />
<path stroke-linejoin="round" stroke-linecap="round" stroke="rgb(0,0,255)" stroke-width="1.874998" fill="none" d="M 0.000000 750.000000 L 120.535698 0.000000 " />
<path stroke-linejoin="round" stroke-linecap="round" stroke="rgb(255,0,0)" stroke-width="3.749996" fill="none" d="M 37.266434 518.119873 L 38.019306 521.884216 " />
<path stroke-linejoin="round" stroke-linecap="round" stroke="rgb(0,0,255)" stroke-width="1.874998" fill="none" d="M 0.000000 750.000000 L 116.379303 0.000000 " />
<path stroke-linejoin="round" stroke-linecap="round" stroke="rgb(255,0,0)" stroke-width="3.749996" fill="none" d="M 36.542816 514.501831 L 37.266434 518.119873 " />
<path stroke-linejoin="round" stroke-linecap="round" stroke="rgb(0,0,255)" stroke-width="1.874998" fill="none" d="M 0.000000 750.000000 L 101.694923 0.000000 " />
<path stroke-linejoin="round" stroke-linecap="round" stroke="rgb(255,0,0)" stroke-width="3.749996" fill="none" d="M 33.794941 500.762390 L 36.542816 514.501831 " />
<path stroke-linejoin="round" stroke-linecap="round" stroke="rgb(0,0,255)" stroke-width="1.874998" fill="none" d="M 0.000000 750.000000 L 98.360649 0.000000 " />
<path stroke-linejoin="round" stroke-linecap="round" stroke="rgb(255,0,0)" stroke-width="3.749996" fill="none" d="M 33.125729 497.416382 L 33.794941 500.762390 " />
<path stroke-linejoin="round" stroke-linecap="round" stroke="rgb(0,0,255)" stroke-width="1.874998" fill="none" d="M 0.000000 750.000000 L 95.238091 0.000000 " />
<path stroke-linejoin="round" stroke-linecap="round" stroke="rgb(255,0,0)" stroke-width="3.749996" fill="none" d="M 32.482513 494.200287 L 33.125729 497.416382 " />
<path stroke-linejoin="round" stroke-linecap="round" stroke="rgb(0,0,255)" stroke-width="1.874998" fill="none" d="M 0.000000 750.000000 L 92.307686 0.000000 " />
<path stroke-linejoin="round" stroke-linecap="round" stroke="rgb(255,0,0)" stroke-width="3.749996" fill="none" d="M 31.863794 491.106689 L 32.482513 494.200287 " />
<path stroke-linejoin="round" stroke-linecap="round" stroke="rgb(0,0,255)" stroke-width="1.874998" fill="none" d="M 0.000000 750.000000 L 89.552231 0.000000 " />
<path stroke-linejoin="round" stroke-linecap="round" stroke="rgb(255,0,0)" stroke-width="3.749996" fill="none" d="M 31.268209 488.128784 L 31.863794 491.106689 " />
<path stroke-linejoin="round" stroke-linecap="round" stroke="rgb(0,0,255)" stroke-width="1.874998" fill="none" d="M 0.000000 750.000000 L 86.956520 0.000000 " />
<path stroke-linejoin="round" stroke-linecap="round" stroke="rgb(255,0,0)" stroke-width="3.749996" fill="none" d="M 30.694485 485.260162 L 31.268209 488.128784 " />
<path stroke-linejoin="round" stroke-linecap="round" stroke="rgb(0,0,255)" stroke-width="1.874998" fill="none" d="M 0.000000 750.000000 L 79.545448 0.000000 " />
<path stroke-linejoin="round" stroke-linecap="round" stroke="rgb(255,0,0)" stroke-width="3.749996" fill="none" d="M 29.004402 476.529846 L 30.694462 485.260162 " />
<path stroke-linejoin="round" stroke-linecap="round" stroke="rgb(0,0,255)" stroke-width="1.874998" fill="none" d="M 0.000000 750.000000 L 67.164169 0.000000 " />
<path stroke-linejoin="round" stroke-linecap="round" stroke="rgb(255,0,0)" stroke-width="3.749996" fill="none" d="M 26.807472 450.649841 L 29.004402 476.529846 " />
<path stroke-linejoin="round" stroke-linecap="round" stroke="rgb(0,0,255)" stroke-width="1.874998" fill="none" d="M 0.000000 750.000000 L 55.147068 0.000000 " />
<path stroke-linejoin="round" stroke-linecap="round" stroke="rgb(255,0,0)" stroke-width="3.749996" fill="none" d="M 24.553658 416.070221 L 26.807472 450.649841 " />
<path stroke-linejoin="round" stroke-linecap="round" stroke="rgb(0,0,255)" stroke-width="1.874998" fill="none" d="M 0.000000 750.000000 L 43.478249 0.000000 " />
<path stroke-linejoin="round" stroke-linecap="round" stroke="rgb(255,0,0)" stroke-width="3.749996" fill="none" d="M 21.907724 372.091888 L 24.553658 416.070160 " />
<path stroke-linejoin="round" stroke-linecap="round" stroke="rgb(0,0,255)" stroke-width="1.874998" fill="none" d="M 0.000000 750.000000 L 42.253510 0.000000 " />
<path stroke-linejoin="round" stroke-linecap="round" stroke="rgb(255,0,0)" stroke-width="3.749996" fill="none" d="M 21.585234 366.862122 L 21.907724 372.091888 " />
<path stroke-linejoin="round" stroke-linecap="round" stroke="rgb(0,0,255)" stroke-width="1.874998" fill="none" d="M 0.000000 750.000000 L 41.095890 0.000000 " />
<path stroke-linejoin="round" stroke-linecap="round" stroke="rgb(255,0,0)" stroke-width="3.749996" fill="none" d="M 21.277205 361.690826 L 21.585234 366.862122 " />
<path stroke-linejoin="round" stroke-linecap="round" stroke="rgb(0,0,255)" stroke-width="1.874998" fill="none" d="M 0.000000 750.000000 L 40.000008 0.000000 " />
<path stroke-linejoin="round" stroke-linecap="round" stroke="rgb(255,0,0)" stroke-width="3.749996" fill="none" d="M 20.979166 356.640503 L 21.277205 361.690826 " />
<path stroke-linejoin="round" stroke-linecap="round" stroke="rgb(0,0,255)" stroke-width="1.874998" fill="none" d="M 0.000000 750.000000 L 38.961029 0.000000 " />
<path stroke-linejoin="round" stroke-linecap="round" stroke="rgb(255,0,0)" stroke-width="3.749996" fill="none" d="M 20.689688 351.723419 L 20.979166 356.640503 " />
<path stroke-linejoin="round" stroke-linecap="round" stroke="rgb(0,0,255)" stroke-width="1.874998" fill="none" d="M 0.000000 750.000000 L 37.974693 0.000000 " />
<path stroke-linejoin="round" stroke-linecap="round" stroke="rgb(255,0,0)" stroke-width="3.749996" fill="none" d="M 20.408169 346.938629 L 20.689688 351.723480 " />
<path stroke-linejoin="round" stroke-linecap="round" stroke="rgb(0,0,255)" stroke-width="1.874998" fill="none" d="M 0.000000 750.000000 L 36.144577 0.000000 " />
<path stroke-linejoin="round" stroke-linecap="round" stroke="rgb(255,0,0)" stroke-width="3.749996" fill="none" d="M 19.867546 337.748322 L 20.408169 346.938629 " />
<path stroke-linejoin="round" stroke-linecap="round" stroke="rgb(0,0,255)" stroke-width="1.874998" fill="none" d="M 0.000000 750.000000 L 35.294117 0.000000 " />
<path stroke-linejoin="round" stroke-linecap="round" stroke="rgb(255,0,0)" stroke-width="3.749996" fill="none" d="M 19.607841 333.333344 L 19.867546 337.748352 " />
<path stroke-linejoin="round" stroke-linecap="round" stroke="rgb(0,0,255)" stroke-width="1.874998" fill="none" d="M 0.000000 750.000000 L 34.482746 0.000000 " />
<path stroke-linejoin="round" stroke-linecap="round" stroke="rgb(255,0,0)" stroke-width="3.749996" fill="none" d="M 19.354843 329.032257 L 19.607841 333.333344 " />
<path stroke-linejoin="round" stroke-linecap="round" stroke="rgb(0,0,255)" stroke-width="1.874998" fill="none" d="M 0.000000 750.000000 L 33.707855 0.000000 " />
<path stroke-linejoin="round" stroke-linecap="round" stroke="rgb(255,0,0)" stroke-width="3.749996" fill="none" d="M 19.108280 324.840759 L 19.354843 329.032257 " />
<path stroke-linejoin="round" stroke-linecap="round" stroke="rgb(0,0,255)" stroke-width="1.874998" fill="none" d="M 0.000000 750.000000 L 32.967030 0.000000 " />
<path stroke-linejoin="round" stroke-linecap="round" stroke="rgb(255,0,0)" stroke-width="3.749996" fill="none" d="M 18.867931 320.754730 L 19.108280 324.840759 " />
<path stroke-linejoin="round" stroke-linecap="round" stroke="rgb(0,0,255)" stroke-width="1.874998" fill="none" d="M 0.000000 750.000000 L 32.258057 0.000000 " />
<path stroke-linejoin="round" stroke-linecap="round" stroke="rgb(255,0,0)" stroke-width="3.749996" fill="none" d="M 18.633530 316.770203 L 18.867931 320.754730 " />
<path stroke-linejoin="round" stroke-linecap="round" stroke="rgb(0,0,255)" stroke-width="1.874998" fill="none" d="M 0.000000 750.000000 L 23.936167 0.000000 " />
<path stroke-linejoin="round" stroke-linecap="round" stroke="rgb(255,0,0)" stroke-width="3.749996" fill="none" d="M 15.517250 263.793152 L 18.633530 316.770203 " />
<path stroke-linejoin="round" stroke-linecap="round" stroke="rgb(0,0,255)" stroke-width="1.874998" fill="none" d="M 0.000000 750.000000 L 15.789472 0.000000 " />
<path stroke-linejoin="round" stroke-linecap="round" stroke="rgb(255,0,0)" stroke-width="3.749996" fill="none" d="M 11.627913 197.674423 L 15.517250 263.793152 " />
<path stroke-linejoin="round" stroke-linecap="round" stroke="rgb(0,0,255)" stroke-width="1.874998" fill="none" d="M 0.000000 750.000000 L 7.812492 0.000000 " />
<path stroke-linejoin="round" stroke-linecap="round" stroke="rgb(255,0,0)" stroke-width="3.749996" fill="none" d="M 6.637171 112.831841 L 11.627913 197.674377 " />
<path stroke-linejoin="round" stroke-linecap="round" stroke="rgb(0,0,255)" stroke-width="1.874998" fill="none" d="M 0.000000 750.000000 L 0.000000 0.000000 " />
<path stroke-linejoin="round" stroke-linecap="round" stroke="rgb(255,0,0)" stroke-width="3.749996" fill="none" d="M 0.000000 0.000000 L 6.637171 112.831749 " />
<circle cx="83.204538" cy="747.810423" r="3.749996" style="fill:rgb(0,127,0);stroke-width:1" /><circle cx="82.747892" cy="745.527148" r="3.749996" style="fill:rgb(0,127,0);stroke-width:1" /><circle cx="82.342319" cy="743.499286" r="3.749996" style="fill:rgb(0,127,0);stroke-width:1" /><circle cx="82.271263" cy="743.144050" r="3.749996" style="fill:rgb(0,127,0);stroke-width:1" /><circle cx="81.872240" cy="741.148956" r="3.749996" style="fill:rgb(0,127,0);stroke-width:1" /><circle cx="81.381842" cy="738.696970" r="3.749996" style="fill:rgb(0,127,0);stroke-width:1" /><circle cx="80.869764" cy="736.136623" r="3.749996" style="fill:rgb(0,127,0);stroke-width:1" /><circle cx="80.334529" cy="733.460538" r="3.749996" style="fill:rgb(0,127,0);stroke-width:1" /><circle cx="79.774596" cy="730.660714" r="3.749996" style="fill:rgb(0,127,0);stroke-width:1" /><circle cx="79.436973" cy="728.972554" r="3.749996" style="fill:rgb(0,127,0);stroke-width:1" /><circle cx="79.188131" cy="727.728345" r="3.749996" style="fill:rgb(0,127,0);stroke-width:1" /><circle cx="78.862891" cy="726.102144" r="3.749996" style="fill:rgb(0,127,0);stroke-width:1" /><circle cx="78.573212" cy="724.653795" r="3.749996" style="fill:rgb(0,127,0);stroke-width:1" /><circle cx="78.261942" cy="723.097466" r="3.749996" style="fill:rgb(0,127,0);stroke-width:1" /><circle cx="77.632226" cy="719.948821" r="3.749996" style="fill:rgb(0,127,0);stroke-width:1" /><circle cx="77.249408" cy="718.034729" r="3.749996" style="fill:rgb(0,127,0);stroke-width:1" /><circle cx="76.971576" cy="716.645658" r="3.749996" style="fill:rgb(0,127,0);stroke-width:1" /><circle cx="76.535583" cy="714.465626" r="3.749996" style="fill:rgb(0,127,0);stroke-width:1" /><circle cx="76.277710" cy="713.176288" r="3.749996" style="fill:rgb(0,127,0);stroke-width:1" /><circle cx="75.783446" cy="710.704878" r="3.749996" style="fill:rgb(0,127,0);stroke-width:1" /><circle cx="75.548038" cy="709.527835" r="3.749996" style="fill:rgb(0,127,0);stroke-width:1" /><circle cx="74.779674" cy="705.686107" r="3.749996" style="fill:rgb(0,127,0);stroke-width:1" /><circle cx="74.151121" cy="702.543296" r="3.749996" style="fill:rgb(0,127,0);stroke-width:1" /><circle cx="73.263466" cy="698.105045" r="3.749996" style="fill:rgb(0,127,0);stroke-width:1" /><circle cx="72.322413" cy="693.399847" r="3.749996" style="fill:rgb(0,127,0);stroke-width:1" /><circle cx="72.209314" cy="692.834303" r="3.749996" style="fill:rgb(0,127,0);stroke-width:1" /><circle cx="71.250983" cy="688.042626" r="3.749996" style="fill:rgb(0,127,0);stroke-width:1" /><circle cx="71.185067" cy="687.713072" r="3.749996" style="fill:rgb(0,127,0);stroke-width:1" /><circle cx="70.210822" cy="682.841823" r="3.749996" style="fill:rgb(0,127,0);stroke-width:1" /><circle cx="70.189476" cy="682.735093" r="3.749996" style="fill:rgb(0,127,0);stroke-width:1" /><circle cx="69.200590" cy="677.790686" r="3.749996" style="fill:rgb(0,127,0);stroke-width:1" /><circle cx="68.153098" cy="672.553293" r="3.749996" style="fill:rgb(0,127,0);stroke-width:1" /><circle cx="67.041658" cy="666.996047" r="3.749996" style="fill:rgb(0,127,0);stroke-width:1" /><circle cx="66.033505" cy="661.955327" r="3.749996" style="fill:rgb(0,127,0);stroke-width:1" /><circle cx="64.839095" cy="655.983299" r="3.749996" style="fill:rgb(0,127,0);stroke-width:1" /><circle cx="63.568264" cy="649.629056" r="3.749996" style="fill:rgb(0,127,0);stroke-width:1" /><circle cx="62.213391" cy="642.854713" r="3.749996" style="fill:rgb(0,127,0);stroke-width:1" /><circle cx="60.765892" cy="635.617174" r="3.749996" style="fill:rgb(0,127,0);stroke-width:1" /><circle cx="59.744596" cy="630.510785" r="3.749996" style="fill:rgb(0,127,0);stroke-width:1" /><circle cx="58.757097" cy="625.573196" r="3.749996" style="fill:rgb(0,127,0);stroke-width:1" /><circle cx="57.191424" cy="617.744833" r="3.749996" style="fill:rgb(0,127,0);stroke-width:1" /><circle cx="56.230232" cy="612.938829" r="3.749996" style="fill:rgb(0,127,0);stroke-width:1" /><circle cx="54.549426" cy="604.534864" r="3.749996" style="fill:rgb(0,127,0);stroke-width:1" /><circle cx="53.616956" cy="599.872537" r="3.749996" style="fill:rgb(0,127,0);stroke-width:1" /><circle cx="52.715823" cy="595.366895" r="3.749996" style="fill:rgb(0,127,0);stroke-width:1" /><circle cx="51.813908" cy="590.857275" r="3.749996" style="fill:rgb(0,127,0);stroke-width:1" /><circle cx="49.878538" cy="581.180379" r="3.749996" style="fill:rgb(0,127,0);stroke-width:1" /><circle cx="47.795691" cy="570.766166" r="3.749996" style="fill:rgb(0,127,0);stroke-width:1" /><circle cx="45.547865" cy="559.527107" r="3.749996" style="fill:rgb(0,127,0);stroke-width:1" /><circle cx="44.663452" cy="555.104971" r="3.749996" style="fill:rgb(0,127,0);stroke-width:1" /><circle cx="43.812722" cy="550.851289" r="3.749996" style="fill:rgb(0,127,0);stroke-width:1" /><circle cx="42.993799" cy="546.756640" r="3.749996" style="fill:rgb(0,127,0);stroke-width:1" /><circle cx="40.603124" cy="534.803387" r="3.749996" style="fill:rgb(0,127,0);stroke-width:1" /><circle cx="38.019307" cy="521.884203" r="3.749996" style="fill:rgb(0,127,0);stroke-width:1" /><circle cx="37.266433" cy="518.119913" r="3.749996" style="fill:rgb(0,127,0);stroke-width:1" /><circle cx="36.542818" cy="514.501825" r="3.749996" style="fill:rgb(0,127,0);stroke-width:1" /><circle cx="33.794940" cy="500.762399" r="3.749996" style="fill:rgb(0,127,0);stroke-width:1" /><circle cx="33.125728" cy="497.416355" r="3.749996" style="fill:rgb(0,127,0);stroke-width:1" /><circle cx="32.482512" cy="494.200274" r="3.749996" style="fill:rgb(0,127,0);stroke-width:1" /><circle cx="31.863794" cy="491.106693" r="3.749996" style="fill:rgb(0,127,0);stroke-width:1" /><circle cx="31.268209" cy="488.128759" r="3.749996" style="fill:rgb(0,127,0);stroke-width:1" /><circle cx="30.694485" cy="485.260148" r="3.749996" style="fill:rgb(0,127,0);stroke-width:1" /><circle cx="29.004402" cy="476.529837" r="3.749996" style="fill:rgb(0,127,0);stroke-width:1" /><circle cx="26.807472" cy="450.649839" r="3.749996" style="fill:rgb(0,127,0);stroke-width:1" /><circle cx="24.553657" cy="416.070222" r="3.749996" style="fill:rgb(0,127,0);stroke-width:1" /><circle cx="21.907724" cy="372.091890" r="3.749996" style="fill:rgb(0,127,0);stroke-width:1" /><circle cx="21.585234" cy="366.862138" r="3.749996" style="fill:rgb(0,127,0);stroke-width:1" /><circle cx="21.277204" cy="361.690840" r="3.749996" style="fill:rgb(0,127,0);stroke-width:1" /><circle cx="20.979166" cy="356.640497" r="3.749996" style="fill:rgb(0,127,0);stroke-width:1" /><circle cx="20.689689" cy="351.723433" r="3.749996" style="fill:rgb(0,127,0);stroke-width:1" /><circle cx="20.408168" cy="346.938609" r="3.749996" style="fill:rgb(0,127,0);stroke-width:1" /><circle cx="19.867547" cy="337.748330" r="3.749996" style="fill:rgb(0,127,0);stroke-width:1" /><circle cx="19.607842" cy="333.333333" r="3.749996" style="fill:rgb(0,127,0);stroke-width:1" /><circle cx="19.354843" cy="329.032263" r="3.749996" style="fill:rgb(0,127,0);stroke-width:1" /><circle cx="19.108281" cy="324.840747" r="3.749996" style="fill:rgb(0,127,0);stroke-width:1" /><circle cx="18.867932" cy="320.754725" r="3.749996" style="fill:rgb(0,127,0);stroke-width:1" /><circle cx="18.633530" cy="316.770198" r="3.749996" style="fill:rgb(0,127,0);stroke-width:1" /><circle cx="15.517250" cy="263.793156" r="3.749996" style="fill:rgb(0,127,0);stroke-width:1" /><circle cx="11.627913" cy="197.674435" r="3.749996" style="fill:rgb(0,127,0);stroke-width:1" /><circle cx="6.637171" cy="112.831838" r="3.749996" style="fill:rgb(0,127,0);stroke-width:1" /><circle cx="750.000000" cy="750.000000" r="3.749996" style="fill:rgb(0,127,0);stroke-width:1" /><path stroke-linejoin="round" stroke-linecap="round" stroke="rgb(255,255,255)" stroke-width="3.749996" fill="none" d="M 0.000000 750.000000 L 750.000000 750.000000 M 0.000000 750.000000 L 0.000000 0.000000 " />

</svg>