<svg xmlns="http://www.w3.org/2000/svg" version="1.1" width = "750" height = "750" viewBox = "0 0 750 750"  shape-rendering="crispEdges">
<path stroke-linejoin="round" stroke-linecap="round" stroke="rgb(255,255,0)" stroke-width="3.749996" fill="none" d="M 74.999992 750.000000 L 0.000000 0.000000 " />
<path stroke-linejoin="round" stroke-linecap="round" stroke="rgb(63,63,63)" stroke-width="3.749996" fill="none" d="M 0.000000 0.000000 L 750.000000 750.000000 M 74.999992 750.000000 L 35.526306 0.000000 " />
<path stroke-linejoin="round" stroke-linecap="round" stroke="rgb(191,191,191)" stroke-width="3.749996" fill="none" d="M 0.000000 675.000000 L 74.999992 750.000000 M 0.000000 0.000000 L 39.473690 750.000000 " />
<path stroke-linejoin="round" stroke-linecap="round" stroke="rgb(0,0,255)" stroke-width="1.874998" fill="none" d="M 0.000000 750.000000 L 750.000000 732.558105 " />
<path stroke-linejoin="round" stroke-linecap="round" stroke="rgb(255,0,0)" stroke-width="3.749996" fill="none" d="M 74.908310 748.257935 L 74.999992 750.000000 " />
<path stroke-linejoin="round" stroke-linecap="round" stroke="rgb(0,0,255)" stroke-width="1.874998" fill="none" d="M 0.000000 750.000000 L 750.000000 714.285706 " />
<path stroke-linejoin="round" stroke-linecap="round" stroke="rgb(255,0,0)" stroke-width="3.749996" fill="none" d="M 73.166260 746.515930 L 74.908310 748.257935 " />
<path stroke-linejoin="round" stroke-linecap="round" stroke="rgb(0,0,255)" stroke-width="1.874998" fill="none" d="M 0.000000 750.000000 L 750.000000 695.121948 " />
<path stroke-linejoin="round" stroke-linecap="round" stroke="rgb(255,0,0)" stroke-width="3.749996" fill="none" d="M 71.424187 744.773865 L 73.166237 746.515930 " />
<path stroke-linejoin="round" stroke-linecap="round" stroke="rgb(0,0,255)" stroke-width="1.874998" fill="none" d="M 0.000000 750.000000 L 750.000000 678.571411 " />
<path stroke-linejoin="round" stroke-linecap="round" stroke="rgb(255,0,0)" stroke-width="3.749996" fill="none" d="M 69.985092 743.334778 L 71.424187 744.773865 " />
<path stroke-linejoin="round" stroke-linecap="round" stroke="rgb(0,0,255)" stroke-width="1.874998" fill="none" d="M 0.000000 750.000000 L 750.000000 675.000000 " />
<path stroke-linejoin="round" stroke-linecap="round" stroke="rgb(255,0,0)" stroke-width="3.749996" fill="none" d="M 69.682137 743.031799 L 69.985092 743.334778 " />
<path stroke-linejoin="round" stroke-linecap="round" stroke="rgb(0,0,255)" stroke-width="1.874998" fill="none" d="M 0.000000 750.000000 L 750.000000 480.769257 " />
<path stroke-linejoin="round" stroke-linecap="round" stroke="rgb(255,0,0)" stroke-width="3.749996" fill="none" d="M 68.749954 725.320557 L 69.682137 743.031799 " />
<path stroke-linejoin="round" stroke-linecap="round" stroke="rgb(0,0,255)" stroke-width="1.874998" fill="none" d="M 0.000000 750.000000 L 750.000000 276.315796 " />
<path stroke-linejoin="round" stroke-linecap="round" stroke="rgb(255,0,0)" stroke-width="3.749996" fill="none" d="M 67.795288 707.181946 L 68.749954 725.320557 " />
<path stroke-linejoin="round" stroke-linecap="round" stroke="rgb(0,0,255)" stroke-width="1.874998" fill="none" d="M 0.000000 750.000000 L 750.000000 243.243225 " />
<path stroke-linejoin="round" stroke-linecap="round" stroke="rgb(255,0,0)" stroke-width="3.749996" fill="none" d="M 67.643364 704.295044 L 67.795311 707.181946 " />
<path stroke-linejoin="round" stroke-linecap="round" stroke="rgb(0,0,255)" stroke-width="1.874998" fill="none" d="M 0.000000 750.000000 L 750.000000 20.833344 " />
<path stroke-linejoin="round" stroke-linecap="round" stroke="rgb(255,0,0)" stroke-width="3.749996" fill="none" d="M 66.638992 685.212097 L 67.643341 704.295044 " />
<path stroke-linejoin="round" stroke-linecap="round" stroke="rgb(0,0,255)" stroke-width="1.874998" fill="none" d="M 0.000000 750.000000 L 583.333313 0.000000 " />
<path stroke-linejoin="round" stroke-linecap="round" stroke="rgb(255,0,0)" stroke-width="3.749996" fill="none" d="M 65.609154 665.645386 L 66.638992 685.212097 " />
<path stroke-linejoin="round" stroke-linecap="round" stroke="rgb(0,0,255)" stroke-width="1.874998" fill="none" d="M 0.000000 750.000000 L 463.636383 0.000000 " />
<path stroke-linejoin="round" stroke-linecap="round" stroke="rgb(255,0,0)" stroke-width="3.749996" fill="none" d="M 64.552902 645.576172 L 65.609154 665.645386 " />
<path stroke-linejoin="round" stroke-linecap="round" stroke="rgb(0,0,255)" stroke-width="1.874998" fill="none" d="M 0.000000 750.000000 L 380.769196 0.000000 " />
<path stroke-linejoin="round" stroke-linecap="round" stroke="rgb(255,0,0)" stroke-width="3.749996" fill="none" d="M 63.469158 624.984985 L 64.552902 645.576172 " />
<path stroke-linejoin="round" stroke-linecap="round" stroke="rgb(0,0,255)" stroke-width="1.874998" fill="none" d="M 0.000000 750.000000 L 340.000000 0.000000 " />
<path stroke-linejoin="round" stroke-linecap="round" stroke="rgb(255,0,0)" stroke-width="3.749996" fill="none" d="M 62.762238 611.553833 L 63.469158 624.984985 " />
<path stroke-linejoin="round" stroke-linecap="round" stroke="rgb(0,0,255)" stroke-width="1.874998" fill="none" d="M 0.000000 750.000000 L 320.000000 0.000000 " />
<path stroke-linejoin="round" stroke-linecap="round" stroke="rgb(255,0,0)" stroke-width="3.749996" fill="none" d="M 62.356846 603.851196 L 62.762238 611.553833 " />
<path stroke-linejoin="round" stroke-linecap="round" stroke="rgb(0,0,255)" stroke-width="1.874998" fill="none" d="M 0.000000 750.000000 L 273.529419 0.000000 " />
<path stroke-linejoin="round" stroke-linecap="round" stroke="rgb(255,0,0)" stroke-width="3.749996" fill="none" d="M 61.214828 582.152893 L 62.356846 603.851196 " />
<path stroke-linejoin="round" stroke-linecap="round" stroke="rgb(0,0,255)" stroke-width="1.874998" fill="none" d="M 0.000000 750.000000 L 236.842102 0.000000 " />
<path stroke-linejoin="round" stroke-linecap="round" stroke="rgb(255,0,0)" stroke-width="3.749996" fill="none" d="M 60.041920 559.867249 L 61.214828 582.152893 " />
<path stroke-linejoin="round" stroke-linecap="round" stroke="rgb(0,0,255)" stroke-width="1.874998" fill="none" d="M 0.000000 750.000000 L 221.428558 0.000000 " />
<path stroke-linejoin="round" stroke-linecap="round" stroke="rgb(255,0,0)" stroke-width="3.749996" fill="none" d="M 59.450714 548.634705 L 60.041920 559.867249 " />
<path stroke-linejoin="round" stroke-linecap="round" stroke="rgb(0,0,255)" stroke-width="1.874998" fill="none" d="M 0.000000 750.000000 L 195.652176 0.000000 " />
<path stroke-linejoin="round" stroke-linecap="round" stroke="rgb(255,0,0)" stroke-width="3.749996" fill="none" d="M 58.288849 526.559387 L 59.450714 548.634705 " />
<path stroke-linejoin="round" stroke-linecap="round" stroke="rgb(0,0,255)" stroke-width="1.874998" fill="none" d="M 0.000000 750.000000 L 174.000000 0.000000 " />
<path stroke-linejoin="round" stroke-linecap="round" stroke="rgb(255,0,0)" stroke-width="3.749996" fill="none" d="M 57.096073 503.896271 L 58.288849 526.559387 " />
<path stroke-linejoin="round" stroke-linecap="round" stroke="rgb(0,0,255)" stroke-width="1.874998" fill="none" d="M 0.000000 750.000000 L 166.666656 0.000000 " />
<path stroke-linejoin="round" stroke-linecap="round" stroke="rgb(255,0,0)" stroke-width="3.749996" fill="none" d="M 56.635269 495.141235 L 57.096073 503.896271 " />
<path stroke-linejoin="round" stroke-linecap="round" stroke="rgb(0,0,255)" stroke-width="1.874998" fill="none" d="M 0.000000 750.000000 L 155.555557 0.000000 " />
<path stroke-linejoin="round" stroke-linecap="round" stroke="rgb(255,0,0)" stroke-width="3.749996" fill="none" d="M 55.871086 480.621552 L 56.635269 495.141235 " />
<path stroke-linejoin="round" stroke-linecap="round" stroke="rgb(0,0,255)" stroke-width="1.874998" fill="none" d="M 0.000000 750.000000 L 149.999985 0.000000 " />
<path stroke-linejoin="round" stroke-linecap="round" stroke="rgb(255,0,0)" stroke-width="3.749996" fill="none" d="M 55.455364 472.723145 L 55.871086 480.621552 " />
<path stroke-linejoin="round" stroke-linecap="round" stroke="rgb(0,0,255)" stroke-width="1.874998" fill="none" d="M 0.000000 750.000000 L 139.655151 0.000000 " />
<path stroke-linejoin="round" stroke-linecap="round" stroke="rgb(255,0,0)" stroke-width="3.749996" fill="none" d="M 54.612591 456.710175 L 55.455364 472.723145 " />
<path stroke-linejoin="round" stroke-linecap="round" stroke="rgb(0,0,255)" stroke-width="1.874998" fill="none" d="M 0.000000 750.000000 L 135.483871 0.000000 " />
<path stroke-linejoin="round" stroke-linecap="round" stroke="rgb(255,0,0)" stroke-width="3.749996" fill="none" d="M 54.244549 449.717682 L 54.612591 456.710175 " />
<path stroke-linejoin="round" stroke-linecap="round" stroke="rgb(0,0,255)" stroke-width="1.874998" fill="none" d="M 0.000000 750.000000 L 125.806465 0.000000 " />
<path stroke-linejoin="round" stroke-linecap="round" stroke="rgb(255,0,0)" stroke-width="3.749996" fill="none" d="M 53.319187 432.135620 L 54.244572 449.717621 " />
<path stroke-linejoin="round" stroke-linecap="round" stroke="rgb(0,0,255)" stroke-width="1.874998" fill="none" d="M 0.000000 750.000000 L 122.727264 0.000000 " />
<path stroke-linejoin="round" stroke-linecap="round" stroke="rgb(255,0,0)" stroke-width="3.749996" fill="none" d="M 53.001591 426.101349 L 53.319187 432.135620 " />
<path stroke-linejoin="round" stroke-linecap="round" stroke="rgb(0,0,255)" stroke-width="1.874998" fill="none" d="M 0.000000 750.000000 L 113.636368 0.000000 " />
<path stroke-linejoin="round" stroke-linecap="round" stroke="rgb(255,0,0)" stroke-width="3.749996" fill="none" d="M 51.989414 406.869904 L 53.001591 426.101349 " />
<path stroke-linejoin="round" stroke-linecap="round" stroke="rgb(0,0,255)" stroke-width="1.874998" fill="none" d="M 0.000000 750.000000 L 111.428574 0.000000 " />
<path stroke-linejoin="round" stroke-linecap="round" stroke="rgb(255,0,0)" stroke-width="3.749996" fill="none" d="M 51.725193 401.849731 L 51.989414 406.869904 " />
<path stroke-linejoin="round" stroke-linecap="round" stroke="rgb(0,0,255)" stroke-width="1.874998" fill="none" d="M 0.000000 750.000000 L 102.857147 0.000000 " />
<path stroke-linejoin="round" stroke-linecap="round" stroke="rgb(255,0,0)" stroke-width="3.749996" fill="none" d="M 50.621689 380.883514 L 51.725170 401.849762 " />
<path stroke-linejoin="round" stroke-linecap="round" stroke="rgb(0,0,255)" stroke-width="1.874998" fill="none" d="M 0.000000 750.000000 L 101.351334 0.000000 " />
<path stroke-linejoin="round" stroke-linecap="round" stroke="rgb(255,0,0)" stroke-width="3.749996" fill="none" d="M 50.413975 376.936646 L 50.621689 380.883514 " />
<path stroke-linejoin="round" stroke-linecap="round" stroke="rgb(0,0,255)" stroke-width="1.874998" fill="none" d="M 0.000000 750.000000 L 92.307686 0.000000 " />
<path stroke-linejoin="round" stroke-linecap="round" stroke="rgb(255,0,0)" stroke-width="3.749996" fill="none" d="M 49.066498 351.334656 L 50.413975 376.936584 " />
<path stroke-linejoin="round" stroke-linecap="round" stroke="rgb(0,0,255)" stroke-width="1.874998" fill="none" d="M 0.000000 750.000000 L 91.463417 0.000000 " />
<path stroke-linejoin="round" stroke-linecap="round" stroke="rgb(255,0,0)" stroke-width="3.749996" fill="none" d="M 48.931202 348.764099 L 49.066498 351.334656 " />
<path stroke-linejoin="round" stroke-linecap="round" stroke="rgb(0,0,255)" stroke-width="1.874998" fill="none" d="M 0.000000 750.000000 L 84.146347 0.000000 " />
<path stroke-linejoin="round" stroke-linecap="round" stroke="rgb(255,0,0)" stroke-width="3.749996" fill="none" d="M 47.681252 325.014923 L 48.931202 348.764099 " />
<path stroke-linejoin="round" stroke-linecap="round" stroke="rgb(0,0,255)" stroke-width="1.874998" fill="none" d="M 0.000000 750.000000 L 76.744194 0.000000 " />
<path stroke-linejoin="round" stroke-linecap="round" stroke="rgb(255,0,0)" stroke-width="3.749996" fill="none" d="M 46.256618 297.946747 L 47.681252 325.014923 " />
<path stroke-linejoin="round" stroke-linecap="round" stroke="rgb(0,0,255)" stroke-width="1.874998" fill="none" d="M 0.000000 750.000000 L 70.000000 0.000000 " />
<path stroke-linejoin="round" stroke-linecap="round" stroke="rgb(255,0,0)" stroke-width="3.749996" fill="none" d="M 44.790878 270.097778 L 46.256618 297.946747 " />
<path stroke-linejoin="round" stroke-linecap="round" stroke="rgb(0,0,255)" stroke-width="1.874998" fill="none" d="M 0.000000 750.000000 L 63.829781 0.000000 " />
<path stroke-linejoin="round" stroke-linecap="round" stroke="rgb(255,0,0)" stroke-width="3.749996" fill="none" d="M 43.282249 241.433640 L 44.790878 270.097778 " />
<path stroke-linejoin="round" stroke-linecap="round" stroke="rgb(0,0,255)" stroke-width="1.874998" fill="none" d="M 0.000000 750.000000 L 58.823524 0.000000 " />
<path stroke-linejoin="round" stroke-linecap="round" stroke="rgb(255,0,0)" stroke-width="3.749996" fill="none" d="M 41.919014 215.532440 L 43.282249 241.433640 " />
<path stroke-linejoin="round" stroke-linecap="round" stroke="rgb(0,0,255)" stroke-width="1.874998" fill="none" d="M 0.000000 750.000000 L 53.773598 0.000000 " />
<path stroke-linejoin="round" stroke-linecap="round" stroke="rgb(255,0,0)" stroke-width="3.749996" fill="none" d="M 40.395611 186.587555 L 41.919014 215.532440 " />
<path stroke-linejoin="round" stroke-linecap="round" stroke="rgb(0,0,255)" stroke-width="1.874998" fill="none" d="M 0.000000 750.000000 L 49.090908 0.000000 " />
<path stroke-linejoin="round" stroke-linecap="round" stroke="rgb(255,0,0)" stroke-width="3.749996" fill="none" d="M 38.827747 156.798248 L 40.395611 186.587555 " />
<path stroke-linejoin="round" stroke-linecap="round" stroke="rgb(0,0,255)" stroke-width="1.874998" fill="none" d="M 0.000000 750.000000 L 45.762711 0.000000 " />
<path stroke-linejoin="round" stroke-linecap="round" stroke="rgb(255,0,0)" stroke-width="3.749996" fill="none" d="M 37.608662 133.635651 L 38.827747 156.798248 " />
<path stroke-linejoin="round" stroke-linecap="round" stroke="rgb(0,0,255)" stroke-width="1.874998" fill="none" d="M 0.000000 750.000000 L 41.803280 0.000000 " />
<path stroke-linejoin="round" stroke-linecap="round" stroke="rgb(255,0,0)" stroke-width="3.749996" fill="none" d="M 36.028324 103.609306 L 37.608662 133.635651 " />
<path stroke-linejoin="round" stroke-linecap="round" stroke="rgb(0,0,255)" stroke-width="1.874998" fill="none" d="M 0.000000 750.000000 L 38.095238 0.000000 " />
<path stroke-linejoin="round" stroke-linecap="round" stroke="rgb(255,0,0)" stroke-width="3.749996" fill="none" d="M 34.402035 72.709747 L 36.028324 103.609306 " />
<path stroke-linejoin="round" stroke-linecap="round" stroke="rgb(0,0,255)" stroke-width="1.874998" fill="none" d="M 0.000000 750.000000 L 35.820900 0.000000 " />
<path stroke-linejoin="round" stroke-linecap="round" stroke="rgb(255,0,0)" stroke-width="3.749996" fill="none" d="M 33.325306 52.251511 L 34.402058 72.709679 " />
<path stroke-linejoin="round" stroke-linecap="round" stroke="rgb(0,0,255)" stroke-width="1.874998" fill="none" d="M 0.000000 750.000000 L 33.987923 0.000000 " />
<path stroke-linejoin="round" stroke-linecap="round" stroke="rgb(255,0,0)" stroke-width="3.749996" fill="none" d="M 31.693943 50.620213 L 33.325306 52.251511 " />
<path stroke-linejoin="round" stroke-linecap="round" stroke="rgb(0,0,255)" stroke-width="1.874998" fill="none" d="M 0.000000 750.000000 L 31.626507 0.000000 " />
<path stroke-linejoin="round" stroke-linecap="round" stroke="rgb(255,0,0)" stroke-width="3.749996" fill="none" d="M 29.581011 48.507214 L 31.693943 50.620213 " />
<path stroke-linejoin="round" stroke-linecap="round" stroke="rgb(0,0,255)" stroke-width="1.874998" fill="none" d="M 0.000000 750.000000 L 31.437120 0.000000 " />
<path stroke-linejoin="round" stroke-linecap="round" stroke="rgb(255,0,0)" stroke-width="3.749996" fill="none" d="M 29.411003 48.337208 L 29.581032 48.507145 " />
<path stroke-linejoin="round" stroke-linecap="round" stroke="rgb(0,0,255)" stroke-width="1.874998" fill="none" d="M 0.000000 750.000000 L 31.249992 0.000000 " />
<path stroke-linejoin="round" stroke-linecap="round" stroke="rgb(255,0,0)" stroke-width="3.749996" fill="none" d="M 29.242962 48.169121 L 29.411003 48.337208 " />
<path stroke-linejoin="round" stroke-linecap="round" stroke="rgb(0,0,255)" stroke-width="1.874998" fill="none" d="M 0.000000 750.000000 L 28.931759 0.000000 " />
<path stroke-linejoin="round" stroke-linecap="round" stroke="rgb(255,0,0)" stroke-width="3.749996" fill="none" d="M 27.154169 46.080284 L 29.242962 48.169121 " />
<path stroke-linejoin="round" stroke-linecap="round" stroke="rgb(0,0,255)" stroke-width="1.874998" fill="none" d="M 0.000000 750.000000 L 26.627228 0.000000 " />
<path stroke-linejoin="round" stroke-linecap="round" stroke="rgb(255,0,0)" stroke-width="3.749996" fill="none" d="M 25.065399 43.991512 L 27.154169 46.080284 " />
<path stroke-linejoin="round" stroke-linecap="round" stroke="rgb(0,0,255)" stroke-width="1.874998" fill="none" d="M 0.000000 750.000000 L 26.470587 0.000000 " />
<path stroke-linejoin="round" stroke-linecap="round" stroke="rgb(255,0,0)" stroke-width="3.749996" fill="none" d="M 24.922974 43.849110 L 25.065399 43.991512 " />
<path stroke-linejoin="round" stroke-linecap="round" stroke="rgb(0,0,255)" stroke-width="1.874998" fill="none" d="M 0.000000 750.000000 L 24.193548 0.000000 " />
<path stroke-linejoin="round" stroke-linecap="round" stroke="rgb(255,0,0)" stroke-width="3.749996" fill="none" d="M 22.846050 41.772232 L 24.922974 43.849178 " />
<path stroke-linejoin="round" stroke-linecap="round" stroke="rgb(0,0,255)" stroke-width="1.874998" fill="none" d="M 0.000000 750.000000 L 21.929831 0.000000 " />
<path stroke-linejoin="round" stroke-linecap="round" stroke="rgb(255,0,0)" stroke-width="3.749996" fill="none" d="M 20.769150 39.695332 L 22.846050 41.772232 " />
<path stroke-linejoin="round" stroke-linecap="round" stroke="rgb(0,0,255)" stroke-width="1.874998" fill="none" d="M 0.000000 750.000000 L 21.802336 0.000000 " />
<path stroke-linejoin="round" stroke-linecap="round" stroke="rgb(255,0,0)" stroke-width="3.749996" fill="none" d="M 20.651802 39.577961 L 20.769150 39.695332 " />
<path stroke-linejoin="round" stroke-linecap="round" stroke="rgb(0,0,255)" stroke-width="1.874998" fill="none" d="M 0.000000 750.000000 L 19.565218 0.000000 " />
<path stroke-linejoin="round" stroke-linecap="round" stroke="rgb(255,0,0)" stroke-width="3.749996" fill="none" d="M 18.586613 37.512794 L 20.651802 39.577961 " />
<path stroke-linejoin="round" stroke-linecap="round" stroke="rgb(0,0,255)" stroke-width="1.874998" fill="none" d="M 0.000000 750.000000 L 17.341040 0.000000 " />
<path stroke-linejoin="round" stroke-linecap="round" stroke="rgb(255,0,0)" stroke-width="3.749996" fill="none" d="M 16.521446 35.447582 L 18.586613 37.512794 " />
<path stroke-linejoin="round" stroke-linecap="round" stroke="rgb(0,0,255)" stroke-width="1.874998" fill="none" d="M 0.000000 750.000000 L 17.241373 0.000000 " />
<path stroke-linejoin="round" stroke-linecap="round" stroke="rgb(255,0,0)" stroke-width="3.749996" fill="none" d="M 16.428619 35.354733 L 16.521446 35.447582 " />
<path stroke-linejoin="round" stroke-linecap="round" stroke="rgb(0,0,255)" stroke-width="1.874998" fill="none" d="M 0.000000 750.000000 L 17.142847 0.000000 " />
<path stroke-linejoin="round" stroke-linecap="round" stroke="rgb(255,0,0)" stroke-width="3.749996" fill="none" d="M 16.336843 35.263046 L 16.428619 35.354733 " />
<path stroke-linejoin="round" stroke-linecap="round" stroke="rgb(0,0,255)" stroke-width="1.874998" fill="none" d="M 0.000000 750.000000 L 14.957272 0.000000 " />
<path stroke-linejoin="round" stroke-linecap="round" stroke="rgb(255,0,0)" stroke-width="3.749996" fill="none" d="M 14.294744 33.220901 L 16.336843 35.263046 " />
<path stroke-linejoin="round" stroke-linecap="round" stroke="rgb(0,0,255)" stroke-width="1.874998" fill="none" d="M 0.000000 750.000000 L 14.872514 0.000000 " />
<path stroke-linejoin="round" stroke-linecap="round" stroke="rgb(255,0,0)" stroke-width="3.749996" fill="none" d="M 14.215328 33.141510 L 14.294744 33.220901 " />
<path stroke-linejoin="round" stroke-linecap="round" stroke="rgb(0,0,255)" stroke-width="1.874998" fill="none" d="M 0.000000 750.000000 L 12.711861 0.000000 " />
<path stroke-linejoin="round" stroke-linecap="round" stroke="rgb(255,0,0)" stroke-width="3.749996" fill="none" d="M 12.184561 31.110764 L 14.215328 33.141510 " />
<path stroke-linejoin="round" stroke-linecap="round" stroke="rgb(0,0,255)" stroke-width="1.874998" fill="none" d="M 0.000000 750.000000 L 10.563389 0.000000 " />
<path stroke-linejoin="round" stroke-linecap="round" stroke="rgb(255,0,0)" stroke-width="3.749996" fill="none" d="M 10.153792 29.080019 L 12.184561 31.110764 " />
<path stroke-linejoin="round" stroke-linecap="round" stroke="rgb(0,0,255)" stroke-width="1.874998" fill="none" d="M 0.000000 750.000000 L 8.426964 0.000000 " />
<path stroke-linejoin="round" stroke-linecap="round" stroke="rgb(255,0,0)" stroke-width="3.749996" fill="none" d="M 8.123048 27.049252 L 10.153792 29.080019 " />
<path stroke-linejoin="round" stroke-linecap="round" stroke="rgb(0,0,255)" stroke-width="1.874998" fill="none" d="M 0.000000 750.000000 L 8.379891 0.000000 " />
<path stroke-linejoin="round" stroke-linecap="round" stroke="rgb(255,0,0)" stroke-width="3.749996" fill="none" d="M 8.078165 27.004347 L 8.123048 27.049252 " />
<path stroke-linejoin="round" stroke-linecap="round" stroke="rgb(0,0,255)" stroke-width="1.874998" fill="none" d="M 0.000000 750.000000 L 8.333333 0.000000 " />
<path stroke-linejoin="round" stroke-linecap="round" stroke="rgb(255,0,0)" stroke-width="3.749996" fill="none" d="M 8.033774 26.960001 L 8.078165 27.004347 " />
<path stroke-linejoin="round" stroke-linecap="round" stroke="rgb(0,0,255)" stroke-width="1.874998" fill="none" d="M 0.000000 750.000000 L 6.232694 0.000000 " />
<path stroke-linejoin="round" stroke-linecap="round" stroke="rgb(255,0,0)" stroke-width="3.749996" fill="none" d="M 6.025337 24.951563 L 8.033774 26.960001 " />
<path stroke-linejoin="round" stroke-linecap="round" stroke="rgb(0,0,255)" stroke-width="1.874998" fill="none" d="M 0.000000 750.000000 L 4.143655 0.000000 " />
<path stroke-linejoin="round" stroke-linecap="round" stroke="rgb(255,0,0)" stroke-width="3.749996" fill="none" d="M 4.016899 22.943035 L 6.025337 24.951563 " />
<path stroke-linejoin="round" stroke-linecap="round" stroke="rgb(0,0,255)" stroke-width="1.874998" fill="none" d="M 0.000000 750.000000 L 2.066106 0.000000 " />
<path stroke-linejoin="round" stroke-linecap="round" stroke="rgb(255,0,0)" stroke-width="3.749996" fill="none" d="M 2.008438 20.934597 L 4.016899 22.943035 " />
<path stroke-linejoin="round" stroke-linecap="round" stroke="rgb(0,0,255)" stroke-width="1.874998" fill="none" d="M 0.000000 750.000000 L 0.000000 0.000000 " />
<path stroke-linejoin="round" stroke-linecap="round" stroke="rgb(255,0,0)" stroke-width="3.749996" fill="none" d="M 0.000000 0.000000 L 2.008438 20.934597 " />
<circle cx="74.908309" cy="748.257950" r="3.749996" style="fill:rgb(0,127,0);stroke-width:1" /><circle cx="73.166259" cy="746.515900" r="3.749996" style="fill:rgb(0,127,0);stroke-width:1" /><circle cx="71.424186" cy="744.773850" r="3.749996" style="fill:rgb(0,127,0);stroke-width:1" /><circle cx="69.985092" cy="743.334755" r="3.749996" style="fill:rgb(0,127,0);stroke-width:1" /><circle cx="69.682136" cy="743.031777" r="3.749996" style="fill:rgb(0,127,0);stroke-width:1" /><circle cx="68.749957" cy="725.320525" r="3.749996" style="fill:rgb(0,127,0);stroke-width:1" /><circle cx="67.795292" cy="707.181908" r="3.749996" style="fill:rgb(0,127,0);stroke-width:1" /><circle cx="67.643367" cy="704.295024" r="3.749996" style="fill:rgb(0,127,0);stroke-width:1" /><circle cx="66.638991" cy="685.212091" r="3.749996" style="fill:rgb(0,127,0);stroke-width:1" /><circle cx="65.609157" cy="665.645376" r="3.749996" style="fill:rgb(0,127,0);stroke-width:1" /><circle cx="64.552903" cy="645.576194" r="3.749996" style="fill:rgb(0,127,0);stroke-width:1" /><circle cx="63.469157" cy="624.985009" r="3.749996" style="fill:rgb(0,127,0);stroke-width:1" /><circle cx="62.762238" cy="611.553870" r="3.749996" style="fill:rgb(0,127,0);stroke-width:1" /><circle cx="62.356845" cy="603.851147" r="3.749996" style="fill:rgb(0,127,0);stroke-width:1" /><circle cx="61.214827" cy="582.152881" r="3.749996" style="fill:rgb(0,127,0);stroke-width:1" /><circle cx="60.041919" cy="559.867300" r="3.749996" style="fill:rgb(0,127,0);stroke-width:1" /><circle cx="59.450716" cy="548.634656" r="3.749996" style="fill:rgb(0,127,0);stroke-width:1" /><circle cx="58.288850" cy="526.559383" r="3.749996" style="fill:rgb(0,127,0);stroke-width:1" /><circle cx="57.096072" cy="503.896270" r="3.749996" style="fill:rgb(0,127,0);stroke-width:1" /><circle cx="56.635268" cy="495.141260" r="3.749996" style="fill:rgb(0,127,0);stroke-width:1" /><circle cx="55.871084" cy="480.621547" r="3.749996" style="fill:rgb(0,127,0);stroke-width:1" /><circle cx="55.455364" cy="472.723134" r="3.749996" style="fill:rgb(0,127,0);stroke-width:1" /><circle cx="54.612592" cy="456.710206" r="3.749996" style="fill:rgb(0,127,0);stroke-width:1" /><circle cx="54.244548" cy="449.717654" r="3.749996" style="fill:rgb(0,127,0);stroke-width:1" /><circle cx="53.319186" cy="432.135595" r="3.749996" style="fill:rgb(0,127,0);stroke-width:1" /><circle cx="53.001590" cy="426.101340" r="3.749996" style="fill:rgb(0,127,0);stroke-width:1" /><circle cx="51.989414" cy="406.869901" r="3.749996" style="fill:rgb(0,127,0);stroke-width:1" /><circle cx="51.725194" cy="401.849734" r="3.749996" style="fill:rgb(0,127,0);stroke-width:1" /><circle cx="50.621688" cy="380.883515" r="3.749996" style="fill:rgb(0,127,0);stroke-width:1" /><circle cx="50.413974" cy="376.936627" r="3.749996" style="fill:rgb(0,127,0);stroke-width:1" /><circle cx="49.066499" cy="351.334655" r="3.749996" style="fill:rgb(0,127,0);stroke-width:1" /><circle cx="48.931204" cy="348.764098" r="3.749996" style="fill:rgb(0,127,0);stroke-width:1" /><circle cx="47.681250" cy="325.014923" r="3.749996" style="fill:rgb(0,127,0);stroke-width:1" /><circle cx="46.256617" cy="297.946751" r="3.749996" style="fill:rgb(0,127,0);stroke-width:1" /><circle cx="44.790879" cy="270.097766" r="3.749996" style="fill:rgb(0,127,0);stroke-width:1" /><circle cx="43.282248" cy="241.433647" r="3.749996" style="fill:rgb(0,127,0);stroke-width:1" /><circle cx="41.919015" cy="215.532448" r="3.749996" style="fill:rgb(0,127,0);stroke-width:1" /><circle cx="40.395610" cy="186.587557" r="3.749996" style="fill:rgb(0,127,0);stroke-width:1" /><circle cx="38.827747" cy="156.798251" r="3.749996" style="fill:rgb(0,127,0);stroke-width:1" /><circle cx="37.608661" cy="133.635655" r="3.749996" style="fill:rgb(0,127,0);stroke-width:1" /><circle cx="36.028326" cy="103.609309" r="3.749996" style="fill:rgb(0,127,0);stroke-width:1" /><circle cx="34.402035" cy="72.709747" r="3.749996" style="fill:rgb(0,127,0);stroke-width:1" /><circle cx="33.325307" cy="52.251510" r="3.749996" style="fill:rgb(0,127,0);stroke-width:1" /><circle cx="31.693943" cy="50.620213" r="3.749996" style="fill:rgb(0,127,0);stroke-width:1" /><circle cx="29.581010" cy="48.507214" r="3.749996" style="fill:rgb(0,127,0);stroke-width:1" /><circle cx="29.411003" cy="48.337206" r="3.749996" style="fill:rgb(0,127,0);stroke-width:1" /><circle cx="29.242963" cy="48.169121" r="3.749996" style="fill:rgb(0,127,0);stroke-width:1" /><circle cx="27.154170" cy="46.080284" r="3.749996" style="fill:rgb(0,127,0);stroke-width:1" /><circle cx="25.065400" cy="43.991514" r="3.749996" style="fill:rgb(0,127,0);stroke-width:1" /><circle cx="24.922974" cy="43.849111" r="3.749996" style="fill:rgb(0,127,0);stroke-width:1" /><circle cx="22.846051" cy="41.772231" r="3.749996" style="fill:rgb(0,127,0);stroke-width:1" /><circle cx="20.769149" cy="39.695330" r="3.749996" style="fill:rgb(0,127,0);stroke-width:1" /><circle cx="20.651802" cy="39.577961" r="3.749996" style="fill:rgb(0,127,0);stroke-width:1" /><circle cx="18.586613" cy="37.512794" r="3.749996" style="fill:rgb(0,127,0);stroke-width:1" /><circle cx="16.521446" cy="35.447583" r="3.749996" style="fill:rgb(0,127,0);stroke-width:1" /><circle cx="16.428620" cy="35.354733" r="3.749996" style="fill:rgb(0,127,0);stroke-width:1" /><circle cx="16.336843" cy="35.263047" r="3.749996" style="fill:rgb(0,127,0);stroke-width:1" /><circle cx="14.294744" cy="33.220902" r="3.749996" style="fill:rgb(0,127,0);stroke-width:1" /><circle cx="14.215328" cy="33.141509" r="3.749996" style="fill:rgb(0,127,0);stroke-width:1" /><circle cx="12.184560" cy="31.110764" r="3.749996" style="fill:rgb(0,127,0);stroke-width:1" /><circle cx="10.153793" cy="29.080018" r="3.749996" style="fill:rgb(0,127,0);stroke-width:1" /><circle cx="8.123048" cy="27.049251" r="3.749996" style="fill:rgb(0,127,0);stroke-width:1" /><circle cx="8.078165" cy="27.004346" r="3.749996" style="fill:rgb(0,127,0);stroke-width:1" /><circle cx="8.033775" cy="26.960000" r="3.749996" style="fill:rgb(0,127,0);stroke-width:1" /><circle cx="6.025337" cy="24.951562" r="3.749996" style="fill:rgb(0,127,0);stroke-width:1" /><circle cx="4.016899" cy="22.943035" r="3.749996" style="fill:rgb(0,127,0);stroke-width:1" /><circle cx="2.008438" cy="20.934597" r="3.749996" style="fill:rgb(0,127,0);stroke-width:1" /><circle cx="750.000000" cy="750.000000" r="3.749996" style="fill:rgb(0,127,0);stroke-width:1" /><path stroke-linejoin="round" stroke-linecap="round" stroke="rgb(255,255,255)" stroke-width="3.749996" fill="none" d="M 0.000000 750.000000 L 750.000000 750.000000 M 0.000000 750.000000 L 0.000000 0.000000 " />

</svg>