<svg xmlns="http://www.w3.org/2000/svg" version="1.1" width = "750" height = "750" viewBox = "0 0 750 750"  shape-rendering="crispEdges">
<path stroke-linejoin="round" stroke-linecap="round" stroke="rgb(255,255,0)" stroke-width="3.749996" fill="none" d="M 74.999992 750.000000 L 0.000000 0.000000 " />
<path stroke-linejoin="round" stroke-linecap="round" stroke="rgb(63,63,63)" stroke-width="3.749996" fill="none" d="M 0.000000 0.000000 L 750.000000 750.000000 M 74.999992 750.000000 L 35.526306 0.000000 " />
<path stroke-linejoin="round" stroke-linecap="round" stroke="rgb(191,191,191)" stroke-width="3.749996" fill="none" d="M 0.000000 675.000000 L 74.999992 750.000000 M 0.000000 0.000000 L 39.473690 750.000000 " />
<path stroke-linejoin="round" stroke-linecap="round" stroke="rgb(0,0,255)" stroke-width="1.874998" fill="none" d="M 0.000000 750.000000 L 750.000000 732.142822 " />
<path stroke-linejoin="round" stroke-linecap="round" stroke="rgb(255,0,0)" stroke-width="3.749996" fill="none" d="M 74.906143 748.216492 L 74.999992 750.000000 " />
<path stroke-linejoin="round" stroke-linecap="round" stroke="rgb(0,0,255)" stroke-width="1.874998" fill="none" d="M 0.000000 750.000000 L 750.000000 713.414612 " />
<path stroke-linejoin="round" stroke-linecap="round" stroke="rgb(255,0,0)" stroke-width="3.749996" fill="none" d="M 74.569031 746.362488 L 74.906143 748.216492 " />
<path stroke-linejoin="round" stroke-linecap="round" stroke="rgb(0,0,255)" stroke-width="1.874998" fill="none" d="M 0.000000 750.000000 L 750.000000 693.750000 " />
<path stroke-linejoin="round" stroke-linecap="round" stroke="rgb(255,0,0)" stroke-width="3.749996" fill="none" d="M 74.218330 744.433594 L 74.569031 746.362488 " />
<path stroke-linejoin="round" stroke-linecap="round" stroke="rgb(0,0,255)" stroke-width="1.874998" fill="none" d="M 0.000000 750.000000 L 750.000000 676.829224 " />
<path stroke-linejoin="round" stroke-linecap="round" stroke="rgb(255,0,0)" stroke-width="3.749996" fill="none" d="M 73.919197 742.788330 L 74.218330 744.433594 " />
<path stroke-linejoin="round" stroke-linecap="round" stroke="rgb(0,0,255)" stroke-width="1.874998" fill="none" d="M 0.000000 750.000000 L 750.000000 656.250000 " />
<path stroke-linejoin="round" stroke-linecap="round" stroke="rgb(255,0,0)" stroke-width="3.749996" fill="none" d="M 73.558624 740.805176 L 73.919197 742.788330 " />
<path stroke-linejoin="round" stroke-linecap="round" stroke="rgb(0,0,255)" stroke-width="1.874998" fill="none" d="M 0.000000 750.000000 L 750.000000 634.615417 " />
<path stroke-linejoin="round" stroke-linecap="round" stroke="rgb(255,0,0)" stroke-width="3.749996" fill="none" d="M 73.183311 738.741028 L 73.558624 740.805176 " />
<path stroke-linejoin="round" stroke-linecap="round" stroke="rgb(0,0,255)" stroke-width="1.874998" fill="none" d="M 0.000000 750.000000 L 750.000000 611.842102 " />
<path stroke-linejoin="round" stroke-linecap="round" stroke="rgb(255,0,0)" stroke-width="3.749996" fill="none" d="M 72.792381 736.590881 L 73.183311 738.741028 " />
<path stroke-linejoin="round" stroke-linecap="round" stroke="rgb(0,0,255)" stroke-width="1.874998" fill="none" d="M 0.000000 750.000000 L 750.000000 587.837830 " />
<path stroke-linejoin="round" stroke-linecap="round" stroke="rgb(255,0,0)" stroke-width="3.749996" fill="none" d="M 72.384796 734.349243 L 72.792381 736.590881 " />
<path stroke-linejoin="round" stroke-linecap="round" stroke="rgb(0,0,255)" stroke-width="1.874998" fill="none" d="M 0.000000 750.000000 L 750.000000 562.500000 " />
<path stroke-linejoin="round" stroke-linecap="round" stroke="rgb(255,0,0)" stroke-width="3.749996" fill="none" d="M 71.959511 732.010132 L 72.384796 734.349243 " />
<path stroke-linejoin="round" stroke-linecap="round" stroke="rgb(0,0,255)" stroke-width="1.874998" fill="none" d="M 0.000000 750.000000 L 750.000000 535.714294 " />
<path stroke-linejoin="round" stroke-linecap="round" stroke="rgb(255,0,0)" stroke-width="3.749996" fill="none" d="M 71.515312 729.567017 L 71.959511 732.010132 " />
<path stroke-linejoin="round" stroke-linecap="round" stroke="rgb(0,0,255)" stroke-width="1.874998" fill="none" d="M 0.000000 750.000000 L 750.000000 507.352936 " />
<path stroke-linejoin="round" stroke-linecap="round" stroke="rgb(255,0,0)" stroke-width="3.749996" fill="none" d="M 71.050934 727.012939 L 71.515312 729.567017 " />
<path stroke-linejoin="round" stroke-linecap="round" stroke="rgb(0,0,255)" stroke-width="1.874998" fill="none" d="M 0.000000 750.000000 L 750.000000 492.857147 " />
<path stroke-linejoin="round" stroke-linecap="round" stroke="rgb(255,0,0)" stroke-width="3.749996" fill="none" d="M 70.815880 725.720276 L 71.050934 727.012939 " />
<path stroke-linejoin="round" stroke-linecap="round" stroke="rgb(0,0,255)" stroke-width="1.874998" fill="none" d="M 0.000000 750.000000 L 750.000000 477.272705 " />
<path stroke-linejoin="round" stroke-linecap="round" stroke="rgb(255,0,0)" stroke-width="3.749996" fill="none" d="M 70.564941 724.340027 L 70.815880 725.720276 " />
<path stroke-linejoin="round" stroke-linecap="round" stroke="rgb(0,0,255)" stroke-width="1.874998" fill="none" d="M 0.000000 750.000000 L 750.000000 445.312500 " />
<path stroke-linejoin="round" stroke-linecap="round" stroke="rgb(255,0,0)" stroke-width="3.749996" fill="none" d="M 70.055809 721.539856 L 70.564919 724.340027 " />
<path stroke-linejoin="round" stroke-linecap="round" stroke="rgb(0,0,255)" stroke-width="1.874998" fill="none" d="M 0.000000 750.000000 L 750.000000 431.818176 " />
<path stroke-linejoin="round" stroke-linecap="round" stroke="rgb(255,0,0)" stroke-width="3.749996" fill="none" d="M 69.843025 720.369629 L 70.055809 721.539856 " />
<path stroke-linejoin="round" stroke-linecap="round" stroke="rgb(0,0,255)" stroke-width="1.874998" fill="none" d="M 0.000000 750.000000 L 750.000000 398.437500 " />
<path stroke-linejoin="round" stroke-linecap="round" stroke="rgb(255,0,0)" stroke-width="3.749996" fill="none" d="M 69.322227 717.505188 L 69.843025 720.369629 " />
<path stroke-linejoin="round" stroke-linecap="round" stroke="rgb(0,0,255)" stroke-width="1.874998" fill="none" d="M 0.000000 750.000000 L 750.000000 386.363617 " />
<path stroke-linejoin="round" stroke-linecap="round" stroke="rgb(255,0,0)" stroke-width="3.749996" fill="none" d="M 69.135750 716.479614 L 69.322227 717.505188 " />
<path stroke-linejoin="round" stroke-linecap="round" stroke="rgb(0,0,255)" stroke-width="1.874998" fill="none" d="M 0.000000 750.000000 L 750.000000 362.903229 " />
<path stroke-linejoin="round" stroke-linecap="round" stroke="rgb(255,0,0)" stroke-width="3.749996" fill="none" d="M 68.776291 714.502563 L 69.135750 716.479614 " />
<path stroke-linejoin="round" stroke-linecap="round" stroke="rgb(0,0,255)" stroke-width="1.874998" fill="none" d="M 0.000000 750.000000 L 750.000000 325.000000 " />
<path stroke-linejoin="round" stroke-linecap="round" stroke="rgb(255,0,0)" stroke-width="3.749996" fill="none" d="M 68.203346 711.351440 L 68.776291 714.502563 " />
<path stroke-linejoin="round" stroke-linecap="round" stroke="rgb(0,0,255)" stroke-width="1.874998" fill="none" d="M 0.000000 750.000000 L 750.000000 314.516144 " />
<path stroke-linejoin="round" stroke-linecap="round" stroke="rgb(255,0,0)" stroke-width="3.749996" fill="none" d="M 68.046570 710.489075 L 68.203346 711.351440 " />
<path stroke-linejoin="round" stroke-linecap="round" stroke="rgb(0,0,255)" stroke-width="1.874998" fill="none" d="M 0.000000 750.000000 L 750.000000 284.482788 " />
<path stroke-linejoin="round" stroke-linecap="round" stroke="rgb(255,0,0)" stroke-width="3.749996" fill="none" d="M 67.601364 708.040527 L 68.046570 710.489075 " />
<path stroke-linejoin="round" stroke-linecap="round" stroke="rgb(0,0,255)" stroke-width="1.874998" fill="none" d="M 0.000000 750.000000 L 750.000000 275.000000 " />
<path stroke-linejoin="round" stroke-linecap="round" stroke="rgb(255,0,0)" stroke-width="3.749996" fill="none" d="M 67.462006 707.274048 L 67.601364 708.040527 " />
<path stroke-linejoin="round" stroke-linecap="round" stroke="rgb(0,0,255)" stroke-width="1.874998" fill="none" d="M 0.000000 750.000000 L 750.000000 241.071442 " />
<path stroke-linejoin="round" stroke-linecap="round" stroke="rgb(255,0,0)" stroke-width="3.749996" fill="none" d="M 66.968079 704.557373 L 67.462006 707.274048 " />
<path stroke-linejoin="round" stroke-linecap="round" stroke="rgb(0,0,255)" stroke-width="1.874998" fill="none" d="M 0.000000 750.000000 L 750.000000 194.444458 " />
<path stroke-linejoin="round" stroke-linecap="round" stroke="rgb(255,0,0)" stroke-width="3.749996" fill="none" d="M 66.300941 700.888245 L 66.968079 704.557373 " />
<path stroke-linejoin="round" stroke-linecap="round" stroke="rgb(0,0,255)" stroke-width="1.874998" fill="none" d="M 0.000000 750.000000 L 750.000000 144.230789 " />
<path stroke-linejoin="round" stroke-linecap="round" stroke="rgb(255,0,0)" stroke-width="3.749996" fill="none" d="M 65.597198 697.017639 L 66.300941 700.888245 " />
<path stroke-linejoin="round" stroke-linecap="round" stroke="rgb(0,0,255)" stroke-width="1.874998" fill="none" d="M 0.000000 750.000000 L 750.000000 138.888901 " />
<path stroke-linejoin="round" stroke-linecap="round" stroke="rgb(255,0,0)" stroke-width="3.749996" fill="none" d="M 65.523216 696.610718 L 65.597198 697.017639 " />
<path stroke-linejoin="round" stroke-linecap="round" stroke="rgb(0,0,255)" stroke-width="1.874998" fill="none" d="M 0.000000 750.000000 L 750.000000 86.538475 " />
<path stroke-linejoin="round" stroke-linecap="round" stroke="rgb(255,0,0)" stroke-width="3.749996" fill="none" d="M 64.806862 692.670837 L 65.523216 696.610718 " />
<path stroke-linejoin="round" stroke-linecap="round" stroke="rgb(0,0,255)" stroke-width="1.874998" fill="none" d="M 0.000000 750.000000 L 750.000000 30.000015 " />
<path stroke-linejoin="round" stroke-linecap="round" stroke="rgb(255,0,0)" stroke-width="3.749996" fill="none" d="M 64.050613 688.511414 L 64.806862 692.670837 " />
<path stroke-linejoin="round" stroke-linecap="round" stroke="rgb(0,0,255)" stroke-width="1.874998" fill="none" d="M 0.000000 750.000000 L 720.000000 0.000000 " />
<path stroke-linejoin="round" stroke-linecap="round" stroke="rgb(255,0,0)" stroke-width="3.749996" fill="none" d="M 63.251003 684.113525 L 64.050613 688.511414 " />
<path stroke-linejoin="round" stroke-linecap="round" stroke="rgb(0,0,255)" stroke-width="1.874998" fill="none" d="M 0.000000 750.000000 L 663.461548 0.000000 " />
<path stroke-linejoin="round" stroke-linecap="round" stroke="rgb(255,0,0)" stroke-width="3.749996" fill="none" d="M 62.404186 679.456116 L 63.251003 684.113525 " />
<path stroke-linejoin="round" stroke-linecap="round" stroke="rgb(0,0,255)" stroke-width="1.874998" fill="none" d="M 0.000000 750.000000 L 611.111084 0.000000 " />
<path stroke-linejoin="round" stroke-linecap="round" stroke="rgb(255,0,0)" stroke-width="3.749996" fill="none" d="M 61.505890 674.515503 L 62.404186 679.456116 " />
<path stroke-linejoin="round" stroke-linecap="round" stroke="rgb(0,0,255)" stroke-width="1.874998" fill="none" d="M 0.000000 750.000000 L 568.965515 0.000000 " />
<path stroke-linejoin="round" stroke-linecap="round" stroke="rgb(255,0,0)" stroke-width="3.749996" fill="none" d="M 60.685806 670.005066 L 61.505890 674.515503 " />
<path stroke-linejoin="round" stroke-linecap="round" stroke="rgb(0,0,255)" stroke-width="1.874998" fill="none" d="M 0.000000 750.000000 L 525.000000 0.000000 " />
<path stroke-linejoin="round" stroke-linecap="round" stroke="rgb(255,0,0)" stroke-width="3.749996" fill="none" d="M 59.718937 664.687256 L 60.685806 670.005066 " />
<path stroke-linejoin="round" stroke-linecap="round" stroke="rgb(0,0,255)" stroke-width="1.874998" fill="none" d="M 0.000000 750.000000 L 384.146332 0.000000 " />
<path stroke-linejoin="round" stroke-linecap="round" stroke="rgb(255,0,0)" stroke-width="3.749996" fill="none" d="M 57.817608 637.118042 L 59.718937 664.687256 " />
<path stroke-linejoin="round" stroke-linecap="round" stroke="rgb(0,0,255)" stroke-width="1.874998" fill="none" d="M 0.000000 750.000000 L 294.117645 0.000000 " />
<path stroke-linejoin="round" stroke-linecap="round" stroke="rgb(255,0,0)" stroke-width="3.749996" fill="none" d="M 55.791042 607.732849 L 57.817608 637.118042 " />
<path stroke-linejoin="round" stroke-linecap="round" stroke="rgb(0,0,255)" stroke-width="1.874998" fill="none" d="M 0.000000 750.000000 L 258.196716 0.000000 " />
<path stroke-linejoin="round" stroke-linecap="round" stroke="rgb(255,0,0)" stroke-width="3.749996" fill="none" d="M 54.653854 591.243652 L 55.791042 607.732849 " />
<path stroke-linejoin="round" stroke-linecap="round" stroke="rgb(0,0,255)" stroke-width="1.874998" fill="none" d="M 0.000000 750.000000 L 244.565231 0.000000 " />
<path stroke-linejoin="round" stroke-linecap="round" stroke="rgb(255,0,0)" stroke-width="3.749996" fill="none" d="M 53.620911 585.562500 L 54.653831 591.243652 " />
<path stroke-linejoin="round" stroke-linecap="round" stroke="rgb(0,0,255)" stroke-width="1.874998" fill="none" d="M 0.000000 750.000000 L 223.404251 0.000000 " />
<path stroke-linejoin="round" stroke-linecap="round" stroke="rgb(255,0,0)" stroke-width="3.749996" fill="none" d="M 51.862366 575.890564 L 53.620911 585.562500 " />
<path stroke-linejoin="round" stroke-linecap="round" stroke="rgb(0,0,255)" stroke-width="1.874998" fill="none" d="M 0.000000 750.000000 L 203.125000 0.000000 " />
<path stroke-linejoin="round" stroke-linecap="round" stroke="rgb(255,0,0)" stroke-width="3.749996" fill="none" d="M 49.971409 565.490234 L 51.862366 575.890625 " />
<path stroke-linejoin="round" stroke-linecap="round" stroke="rgb(0,0,255)" stroke-width="1.874998" fill="none" d="M 0.000000 750.000000 L 183.673477 0.000000 " />
<path stroke-linejoin="round" stroke-linecap="round" stroke="rgb(255,0,0)" stroke-width="3.749996" fill="none" d="M 47.932415 554.275879 L 49.971409 565.490234 " />
<path stroke-linejoin="round" stroke-linecap="round" stroke="rgb(0,0,255)" stroke-width="1.874998" fill="none" d="M 0.000000 750.000000 L 176.470581 0.000000 " />
<path stroke-linejoin="round" stroke-linecap="round" stroke="rgb(255,0,0)" stroke-width="3.749996" fill="none" d="M 47.113068 549.769409 L 47.932415 554.275879 " />
<path stroke-linejoin="round" stroke-linecap="round" stroke="rgb(0,0,255)" stroke-width="1.874998" fill="none" d="M 0.000000 750.000000 L 158.653854 0.000000 " />
<path stroke-linejoin="round" stroke-linecap="round" stroke="rgb(255,0,0)" stroke-width="3.749996" fill="none" d="M 44.914463 537.677124 L 47.113068 549.769409 " />
<path stroke-linejoin="round" stroke-linecap="round" stroke="rgb(0,0,255)" stroke-width="1.874998" fill="none" d="M 0.000000 750.000000 L 152.777771 0.000000 " />
<path stroke-linejoin="round" stroke-linecap="round" stroke="rgb(255,0,0)" stroke-width="3.749996" fill="none" d="M 44.129936 533.362183 L 44.914463 537.677124 " />
<path stroke-linejoin="round" stroke-linecap="round" stroke="rgb(0,0,255)" stroke-width="1.874998" fill="none" d="M 0.000000 750.000000 L 147.321442 0.000000 " />
<path stroke-linejoin="round" stroke-linecap="round" stroke="rgb(255,0,0)" stroke-width="3.749996" fill="none" d="M 43.372326 529.195374 L 44.129936 533.362183 " />
<path stroke-linejoin="round" stroke-linecap="round" stroke="rgb(0,0,255)" stroke-width="1.874998" fill="none" d="M 0.000000 750.000000 L 142.241394 0.000000 " />
<path stroke-linejoin="round" stroke-linecap="round" stroke="rgb(255,0,0)" stroke-width="3.749996" fill="none" d="M 42.640305 525.169312 L 43.372326 529.195374 " />
<path stroke-linejoin="round" stroke-linecap="round" stroke="rgb(0,0,255)" stroke-width="1.874998" fill="none" d="M 0.000000 750.000000 L 127.118645 0.000000 " />
<path stroke-linejoin="round" stroke-linecap="round" stroke="rgb(255,0,0)" stroke-width="3.749996" fill="none" d="M 40.294090 512.264893 L 42.640305 525.169312 " />
<path stroke-linejoin="round" stroke-linecap="round" stroke="rgb(0,0,255)" stroke-width="1.874998" fill="none" d="M 0.000000 750.000000 L 122.950806 0.000000 " />
<path stroke-linejoin="round" stroke-linecap="round" stroke="rgb(255,0,0)" stroke-width="3.749996" fill="none" d="M 39.599350 508.443970 L 40.294090 512.264893 " />
<path stroke-linejoin="round" stroke-linecap="round" stroke="rgb(0,0,255)" stroke-width="1.874998" fill="none" d="M 0.000000 750.000000 L 108.870956 0.000000 " />
<path stroke-linejoin="round" stroke-linecap="round" stroke="rgb(255,0,0)" stroke-width="3.749996" fill="none" d="M 37.077785 494.575348 L 39.599350 508.444000 " />
<path stroke-linejoin="round" stroke-linecap="round" stroke="rgb(0,0,255)" stroke-width="1.874998" fill="none" d="M 0.000000 750.000000 L 105.468750 0.000000 " />
<path stroke-linejoin="round" stroke-linecap="round" stroke="rgb(255,0,0)" stroke-width="3.749996" fill="none" d="M 36.424419 490.981903 L 37.077785 494.575348 " />
<path stroke-linejoin="round" stroke-linecap="round" stroke="rgb(0,0,255)" stroke-width="1.874998" fill="none" d="M 0.000000 750.000000 L 92.307686 0.000000 " />
<path stroke-linejoin="round" stroke-linecap="round" stroke="rgb(255,0,0)" stroke-width="3.749996" fill="none" d="M 33.713936 476.074219 L 36.424419 490.981903 " />
<path stroke-linejoin="round" stroke-linecap="round" stroke="rgb(0,0,255)" stroke-width="1.874998" fill="none" d="M 0.000000 750.000000 L 89.552231 0.000000 " />
<path stroke-linejoin="round" stroke-linecap="round" stroke="rgb(255,0,0)" stroke-width="3.749996" fill="none" d="M 33.106483 472.733215 L 33.713936 476.074219 " />
<path stroke-linejoin="round" stroke-linecap="round" stroke="rgb(0,0,255)" stroke-width="1.874998" fill="none" d="M 0.000000 750.000000 L 86.956520 0.000000 " />
<path stroke-linejoin="round" stroke-linecap="round" stroke="rgb(255,0,0)" stroke-width="3.749996" fill="none" d="M 32.520531 469.510437 L 33.106483 472.733215 " />
<path stroke-linejoin="round" stroke-linecap="round" stroke="rgb(0,0,255)" stroke-width="1.874998" fill="none" d="M 0.000000 750.000000 L 84.507042 0.000000 " />
<path stroke-linejoin="round" stroke-linecap="round" stroke="rgb(255,0,0)" stroke-width="3.749996" fill="none" d="M 31.954945 466.399811 L 32.520531 469.510437 " />
<path stroke-linejoin="round" stroke-linecap="round" stroke="rgb(0,0,255)" stroke-width="1.874998" fill="none" d="M 0.000000 750.000000 L 82.191780 0.000000 " />
<path stroke-linejoin="round" stroke-linecap="round" stroke="rgb(255,0,0)" stroke-width="3.749996" fill="none" d="M 31.408712 463.395447 L 31.954945 466.399811 " />
<path stroke-linejoin="round" stroke-linecap="round" stroke="rgb(0,0,255)" stroke-width="1.874998" fill="none" d="M 0.000000 750.000000 L 80.000015 0.000000 " />
<path stroke-linejoin="round" stroke-linecap="round" stroke="rgb(255,0,0)" stroke-width="3.749996" fill="none" d="M 30.880831 460.492096 L 31.408712 463.395416 " />
<path stroke-linejoin="round" stroke-linecap="round" stroke="rgb(0,0,255)" stroke-width="1.874998" fill="none" d="M 0.000000 750.000000 L 70.000000 0.000000 " />
<path stroke-linejoin="round" stroke-linecap="round" stroke="rgb(255,0,0)" stroke-width="3.749996" fill="none" d="M 29.240570 436.708252 L 30.880831 460.492096 " />
<path stroke-linejoin="round" stroke-linecap="round" stroke="rgb(0,0,255)" stroke-width="1.874998" fill="none" d="M 0.000000 750.000000 L 52.941174 0.000000 " />
<path stroke-linejoin="round" stroke-linecap="round" stroke="rgb(255,0,0)" stroke-width="3.749996" fill="none" d="M 25.721066 385.618164 L 29.240570 436.708252 " />
<path stroke-linejoin="round" stroke-linecap="round" stroke="rgb(0,0,255)" stroke-width="1.874998" fill="none" d="M 0.000000 750.000000 L 39.473690 0.000000 " />
<path stroke-linejoin="round" stroke-linecap="round" stroke="rgb(255,0,0)" stroke-width="3.749996" fill="none" d="M 22.031397 331.403564 L 25.721066 385.618164 " />
<path stroke-linejoin="round" stroke-linecap="round" stroke="rgb(0,0,255)" stroke-width="1.874998" fill="none" d="M 0.000000 750.000000 L 28.571426 0.000000 " />
<path stroke-linejoin="round" stroke-linecap="round" stroke="rgb(255,0,0)" stroke-width="3.749996" fill="none" d="M 18.159695 273.307739 L 22.031397 331.403564 " />
<path stroke-linejoin="round" stroke-linecap="round" stroke="rgb(0,0,255)" stroke-width="1.874998" fill="none" d="M 0.000000 750.000000 L 24.000004 0.000000 " />
<path stroke-linejoin="round" stroke-linecap="round" stroke="rgb(255,0,0)" stroke-width="3.749996" fill="none" d="M 16.175039 244.530029 L 18.159695 273.307739 " />
<path stroke-linejoin="round" stroke-linecap="round" stroke="rgb(0,0,255)" stroke-width="1.874998" fill="none" d="M 0.000000 750.000000 L 21.897800 0.000000 " />
<path stroke-linejoin="round" stroke-linecap="round" stroke="rgb(255,0,0)" stroke-width="3.749996" fill="none" d="M 15.179649 230.096939 L 16.175039 244.530029 " />
<path stroke-linejoin="round" stroke-linecap="round" stroke="rgb(0,0,255)" stroke-width="1.874998" fill="none" d="M 0.000000 750.000000 L 21.428570 0.000000 " />
<path stroke-linejoin="round" stroke-linecap="round" stroke="rgb(255,0,0)" stroke-width="3.749996" fill="none" d="M 14.949650 226.762039 L 15.179649 230.096939 " />
<path stroke-linejoin="round" stroke-linecap="round" stroke="rgb(0,0,255)" stroke-width="1.874998" fill="none" d="M 0.000000 750.000000 L 20.689667 0.000000 " />
<path stroke-linejoin="round" stroke-linecap="round" stroke="rgb(255,0,0)" stroke-width="3.749996" fill="none" d="M 14.581427 221.422852 L 14.949650 226.762070 " />
<path stroke-linejoin="round" stroke-linecap="round" stroke="rgb(0,0,255)" stroke-width="1.874998" fill="none" d="M 0.000000 750.000000 L 20.134226 0.000000 " />
<path stroke-linejoin="round" stroke-linecap="round" stroke="rgb(255,0,0)" stroke-width="3.749996" fill="none" d="M 14.299661 217.337250 L 14.581427 221.422852 " />
<path stroke-linejoin="round" stroke-linecap="round" stroke="rgb(0,0,255)" stroke-width="1.874998" fill="none" d="M 0.000000 750.000000 L 19.607841 0.000000 " />
<path stroke-linejoin="round" stroke-linecap="round" stroke="rgb(255,0,0)" stroke-width="3.749996" fill="none" d="M 14.028579 213.406555 L 14.299661 217.337250 " />
<path stroke-linejoin="round" stroke-linecap="round" stroke="rgb(0,0,255)" stroke-width="1.874998" fill="none" d="M 0.000000 750.000000 L 19.480526 0.000000 " />
<path stroke-linejoin="round" stroke-linecap="round" stroke="rgb(255,0,0)" stroke-width="3.749996" fill="none" d="M 13.962418 212.447052 L 14.028579 213.406555 " />
<path stroke-linejoin="round" stroke-linecap="round" stroke="rgb(0,0,255)" stroke-width="1.874998" fill="none" d="M 0.000000 750.000000 L 18.987335 0.000000 " />
<path stroke-linejoin="round" stroke-linecap="round" stroke="rgb(255,0,0)" stroke-width="3.749996" fill="none" d="M 13.703853 208.697906 L 13.962418 212.447052 " />
<path stroke-linejoin="round" stroke-linecap="round" stroke="rgb(0,0,255)" stroke-width="1.874998" fill="none" d="M 0.000000 750.000000 L 18.750004 0.000000 " />
<path stroke-linejoin="round" stroke-linecap="round" stroke="rgb(255,0,0)" stroke-width="3.749996" fill="none" d="M 13.578124 206.874893 L 13.703853 208.697906 " />
<path stroke-linejoin="round" stroke-linecap="round" stroke="rgb(0,0,255)" stroke-width="1.874998" fill="none" d="M 0.000000 750.000000 L 18.633530 0.000000 " />
<path stroke-linejoin="round" stroke-linecap="round" stroke="rgb(255,0,0)" stroke-width="3.749996" fill="none" d="M 13.516121 205.975876 L 13.578124 206.874893 " />
<path stroke-linejoin="round" stroke-linecap="round" stroke="rgb(0,0,255)" stroke-width="1.874998" fill="none" d="M 0.000000 750.000000 L 18.404917 0.000000 " />
<path stroke-linejoin="round" stroke-linecap="round" stroke="rgb(255,0,0)" stroke-width="3.749996" fill="none" d="M 13.393812 204.202301 L 13.516121 205.975876 " />
<path stroke-linejoin="round" stroke-linecap="round" stroke="rgb(0,0,255)" stroke-width="1.874998" fill="none" d="M 0.000000 750.000000 L 16.666666 0.000000 " />
<path stroke-linejoin="round" stroke-linecap="round" stroke="rgb(255,0,0)" stroke-width="3.749996" fill="none" d="M 12.437113 190.330139 L 13.393812 204.202301 " />
<path stroke-linejoin="round" stroke-linecap="round" stroke="rgb(0,0,255)" stroke-width="1.874998" fill="none" d="M 0.000000 750.000000 L 10.344833 0.000000 " />
<path stroke-linejoin="round" stroke-linecap="round" stroke="rgb(255,0,0)" stroke-width="3.749996" fill="none" d="M 8.585080 127.582443 L 12.437113 190.330139 " />
<path stroke-linejoin="round" stroke-linecap="round" stroke="rgb(0,0,255)" stroke-width="1.874998" fill="none" d="M 0.000000 750.000000 L 4.838705 0.000000 " />
<path stroke-linejoin="round" stroke-linecap="round" stroke="rgb(255,0,0)" stroke-width="3.749996" fill="none" d="M 4.465364 57.869263 L 8.585080 127.582443 " />
<path stroke-linejoin="round" stroke-linecap="round" stroke="rgb(0,0,255)" stroke-width="1.874998" fill="none" d="M 0.000000 750.000000 L 0.000000 0.000000 " />
<path stroke-linejoin="round" stroke-linecap="round" stroke="rgb(255,0,0)" stroke-width="3.749996" fill="none" d="M 0.000000 0.000000 L 4.465364 57.869263 " />
<circle cx="74.906141" cy="748.216510" r="3.749996" style="fill:rgb(0,127,0);stroke-width:1" /><circle cx="74.569032" cy="746.362478" r="3.749996" style="fill:rgb(0,127,0);stroke-width:1" /><circle cx="74.218333" cy="744.433634" r="3.749996" style="fill:rgb(0,127,0);stroke-width:1" /><circle cx="73.919199" cy="742.788367" r="3.749996" style="fill:rgb(0,127,0);stroke-width:1" /><circle cx="73.558621" cy="740.805164" r="3.749996" style="fill:rgb(0,127,0);stroke-width:1" /><circle cx="73.183313" cy="738.741025" r="3.749996" style="fill:rgb(0,127,0);stroke-width:1" /><circle cx="72.792381" cy="736.590877" r="3.749996" style="fill:rgb(0,127,0);stroke-width:1" /><circle cx="72.384797" cy="734.349221" r="3.749996" style="fill:rgb(0,127,0);stroke-width:1" /><circle cx="71.959510" cy="732.010111" r="3.749996" style="fill:rgb(0,127,0);stroke-width:1" /><circle cx="71.515314" cy="729.567043" r="3.749996" style="fill:rgb(0,127,0);stroke-width:1" /><circle cx="71.050934" cy="727.012932" r="3.749996" style="fill:rgb(0,127,0);stroke-width:1" /><circle cx="70.815884" cy="725.720264" r="3.749996" style="fill:rgb(0,127,0);stroke-width:1" /><circle cx="70.564941" cy="724.340022" r="3.749996" style="fill:rgb(0,127,0);stroke-width:1" /><circle cx="70.055813" cy="721.539840" r="3.749996" style="fill:rgb(0,127,0);stroke-width:1" /><circle cx="69.843024" cy="720.369615" r="3.749996" style="fill:rgb(0,127,0);stroke-width:1" /><circle cx="69.322228" cy="717.505217" r="3.749996" style="fill:rgb(0,127,0);stroke-width:1" /><circle cx="69.135748" cy="716.479629" r="3.749996" style="fill:rgb(0,127,0);stroke-width:1" /><circle cx="68.776287" cy="714.502573" r="3.749996" style="fill:rgb(0,127,0);stroke-width:1" /><circle cx="68.203345" cy="711.351424" r="3.749996" style="fill:rgb(0,127,0);stroke-width:1" /><circle cx="68.046570" cy="710.489094" r="3.749996" style="fill:rgb(0,127,0);stroke-width:1" /><circle cx="67.601368" cy="708.040528" r="3.749996" style="fill:rgb(0,127,0);stroke-width:1" /><circle cx="67.462005" cy="707.274064" r="3.749996" style="fill:rgb(0,127,0);stroke-width:1" /><circle cx="66.968076" cy="704.557389" r="3.749996" style="fill:rgb(0,127,0);stroke-width:1" /><circle cx="66.300943" cy="700.888194" r="3.749996" style="fill:rgb(0,127,0);stroke-width:1" /><circle cx="65.597199" cy="697.017655" r="3.749996" style="fill:rgb(0,127,0);stroke-width:1" /><circle cx="65.523215" cy="696.610719" r="3.749996" style="fill:rgb(0,127,0);stroke-width:1" /><circle cx="64.806864" cy="692.670844" r="3.749996" style="fill:rgb(0,127,0);stroke-width:1" /><circle cx="64.050615" cy="688.511409" r="3.749996" style="fill:rgb(0,127,0);stroke-width:1" /><circle cx="63.251004" cy="684.113547" r="3.749996" style="fill:rgb(0,127,0);stroke-width:1" /><circle cx="62.404186" cy="679.456137" r="3.749996" style="fill:rgb(0,127,0);stroke-width:1" /><circle cx="61.505891" cy="674.515486" r="3.749996" style="fill:rgb(0,127,0);stroke-width:1" /><circle cx="60.685806" cy="670.005061" r="3.749996" style="fill:rgb(0,127,0);stroke-width:1" /><circle cx="59.718937" cy="664.687246" r="3.749996" style="fill:rgb(0,127,0);stroke-width:1" /><circle cx="57.817608" cy="637.118027" r="3.749996" style="fill:rgb(0,127,0);stroke-width:1" /><circle cx="55.791043" cy="607.732862" r="3.749996" style="fill:rgb(0,127,0);stroke-width:1" /><circle cx="54.653853" cy="591.243602" r="3.749996" style="fill:rgb(0,127,0);stroke-width:1" /><circle cx="53.620912" cy="585.562527" r="3.749996" style="fill:rgb(0,127,0);stroke-width:1" /><circle cx="51.862366" cy="575.890593" r="3.749996" style="fill:rgb(0,127,0);stroke-width:1" /><circle cx="49.971409" cy="565.490216" r="3.749996" style="fill:rgb(0,127,0);stroke-width:1" /><circle cx="47.932416" cy="554.275922" r="3.749996" style="fill:rgb(0,127,0);stroke-width:1" /><circle cx="47.113068" cy="549.769454" r="3.749996" style="fill:rgb(0,127,0);stroke-width:1" /><circle cx="44.914462" cy="537.677083" r="3.749996" style="fill:rgb(0,127,0);stroke-width:1" /><circle cx="44.129938" cy="533.362158" r="3.749996" style="fill:rgb(0,127,0);stroke-width:1" /><circle cx="43.372326" cy="529.195391" r="3.749996" style="fill:rgb(0,127,0);stroke-width:1" /><circle cx="42.640306" cy="525.169261" r="3.749996" style="fill:rgb(0,127,0);stroke-width:1" /><circle cx="40.294088" cy="512.264930" r="3.749996" style="fill:rgb(0,127,0);stroke-width:1" /><circle cx="39.599352" cy="508.443955" r="3.749996" style="fill:rgb(0,127,0);stroke-width:1" /><circle cx="37.077785" cy="494.575348" r="3.749996" style="fill:rgb(0,127,0);stroke-width:1" /><circle cx="36.424421" cy="490.981903" r="3.749996" style="fill:rgb(0,127,0);stroke-width:1" /><circle cx="33.713937" cy="476.074241" r="3.749996" style="fill:rgb(0,127,0);stroke-width:1" /><circle cx="33.106484" cy="472.733203" r="3.749996" style="fill:rgb(0,127,0);stroke-width:1" /><circle cx="32.520533" cy="469.510440" r="3.749996" style="fill:rgb(0,127,0);stroke-width:1" /><circle cx="31.954944" cy="466.399793" r="3.749996" style="fill:rgb(0,127,0);stroke-width:1" /><circle cx="31.408712" cy="463.395450" r="3.749996" style="fill:rgb(0,127,0);stroke-width:1" /><circle cx="30.880831" cy="460.492121" r="3.749996" style="fill:rgb(0,127,0);stroke-width:1" /><circle cx="29.240571" cy="436.708225" r="3.749996" style="fill:rgb(0,127,0);stroke-width:1" /><circle cx="25.721066" cy="385.618150" r="3.749996" style="fill:rgb(0,127,0);stroke-width:1" /><circle cx="22.031397" cy="331.403553" r="3.749996" style="fill:rgb(0,127,0);stroke-width:1" /><circle cx="18.159695" cy="273.307733" r="3.749996" style="fill:rgb(0,127,0);stroke-width:1" /><circle cx="16.175039" cy="244.530022" r="3.749996" style="fill:rgb(0,127,0);stroke-width:1" /><circle cx="15.179649" cy="230.096944" r="3.749996" style="fill:rgb(0,127,0);stroke-width:1" /><circle cx="14.949650" cy="226.762030" r="3.749996" style="fill:rgb(0,127,0);stroke-width:1" /><circle cx="14.581427" cy="221.422859" r="3.749996" style="fill:rgb(0,127,0);stroke-width:1" /><circle cx="14.299661" cy="217.337251" r="3.749996" style="fill:rgb(0,127,0);stroke-width:1" /><circle cx="14.028579" cy="213.406563" r="3.749996" style="fill:rgb(0,127,0);stroke-width:1" /><circle cx="13.962418" cy="212.447047" r="3.749996" style="fill:rgb(0,127,0);stroke-width:1" /><circle cx="13.703853" cy="208.697889" r="3.749996" style="fill:rgb(0,127,0);stroke-width:1" /><circle cx="13.578124" cy="206.874881" r="3.749996" style="fill:rgb(0,127,0);stroke-width:1" /><circle cx="13.516121" cy="205.975883" r="3.749996" style="fill:rgb(0,127,0);stroke-width:1" /><circle cx="13.393812" cy="204.202294" r="3.749996" style="fill:rgb(0,127,0);stroke-width:1" /><circle cx="12.437113" cy="190.330110" r="3.749996" style="fill:rgb(0,127,0);stroke-width:1" /><circle cx="8.585081" cy="127.582446" r="3.749996" style="fill:rgb(0,127,0);stroke-width:1" /><circle cx="4.465364" cy="57.869263" r="3.749996" style="fill:rgb(0,127,0);stroke-width:1" /><circle cx="750.000000" cy="750.000000" r="3.749996" style="fill:rgb(0,127,0);stroke-width:1" /><path stroke-linejoin="round" stroke-linecap="round" stroke="rgb(255,255,255)" stroke-width="3.749996" fill="none" d="M 0.000000 750.000000 L 750.000000 750.000000 M 0.000000 750.000000 L 0.000000 0.000000 " />

</svg>