<svg xmlns="http://www.w3.org/2000/svg" version="1.1" width = "750" height = "750" viewBox = "0 0 750 750"  shape-rendering="crispEdges">
<path stroke-linejoin="round" stroke-linecap="round" stroke="rgb(255,255,0)" stroke-width="3.749996" fill="none" d="M 149.999985 750.000000 L 0.000000 0.000000 " />
<path stroke-linejoin="round" stroke-linecap="round" stroke="rgb(63,63,63)" stroke-width="3.749996" fill="none" d="M 0.000000 0.000000 L 750.000000 750.000000 M 149.999985 750.000000 L 66.666664 0.000000 " />
<path stroke-linejoin="round" stroke-linecap="round" stroke="rgb(191,191,191)" stroke-width="3.749996" fill="none" d="M 0.000000 600.000000 L 149.999985 750.000000 M 0.000000 0.000000 L 83.333328 750.000000 " />
<path stroke-linejoin="round" stroke-linecap="round" stroke="rgb(0,0,255)" stroke-width="1.874998" fill="none" d="M 0.000000 750.000000 L 750.000000 552.631592 " />
<path stroke-linejoin="round" stroke-linecap="round" stroke="rgb(255,0,0)" stroke-width="3.749996" fill="none" d="M 145.738632 711.647705 L 149.999985 750.000000 " />
<path stroke-linejoin="round" stroke-linecap="round" stroke="rgb(0,0,255)" stroke-width="1.874998" fill="none" d="M 0.000000 750.000000 L 750.000000 344.594604 " />
<path stroke-linejoin="round" stroke-linecap="round" stroke="rgb(255,0,0)" stroke-width="3.749996" fill="none" d="M 141.501419 673.512756 L 145.738632 711.647705 " />
<path stroke-linejoin="round" stroke-linecap="round" stroke="rgb(0,0,255)" stroke-width="1.874998" fill="none" d="M 0.000000 750.000000 L 750.000000 125.000015 " />
<path stroke-linejoin="round" stroke-linecap="round" stroke="rgb(255,0,0)" stroke-width="3.749996" fill="none" d="M 137.288132 635.593262 L 141.501419 673.512756 " />
<path stroke-linejoin="round" stroke-linecap="round" stroke="rgb(0,0,255)" stroke-width="1.874998" fill="none" d="M 0.000000 750.000000 L 656.249939 0.000000 " />
<path stroke-linejoin="round" stroke-linecap="round" stroke="rgb(255,0,0)" stroke-width="3.749996" fill="none" d="M 133.098587 597.887329 L 137.288132 635.593262 " />
<path stroke-linejoin="round" stroke-linecap="round" stroke="rgb(0,0,255)" stroke-width="1.874998" fill="none" d="M 0.000000 750.000000 L 510.000000 0.000000 " />
<path stroke-linejoin="round" stroke-linecap="round" stroke="rgb(255,0,0)" stroke-width="3.749996" fill="none" d="M 128.932556 560.393311 L 133.098587 597.887329 " />
<path stroke-linejoin="round" stroke-linecap="round" stroke="rgb(0,0,255)" stroke-width="1.874998" fill="none" d="M 0.000000 750.000000 L 437.500000 0.000000 " />
<path stroke-linejoin="round" stroke-linecap="round" stroke="rgb(255,0,0)" stroke-width="3.749996" fill="none" d="M 125.999985 534.000000 L 128.932556 560.393311 " />
<path stroke-linejoin="round" stroke-linecap="round" stroke="rgb(0,0,255)" stroke-width="1.874998" fill="none" d="M 0.000000 750.000000 L 364.285706 0.000000 " />
<path stroke-linejoin="round" stroke-linecap="round" stroke="rgb(255,0,0)" stroke-width="3.749996" fill="none" d="M 122.074440 498.670258 L 125.999985 534.000000 " />
<path stroke-linejoin="round" stroke-linecap="round" stroke="rgb(0,0,255)" stroke-width="1.874998" fill="none" d="M 0.000000 750.000000 L 328.124969 0.000000 " />
<path stroke-linejoin="round" stroke-linecap="round" stroke="rgb(255,0,0)" stroke-width="3.749996" fill="none" d="M 119.620216 476.582306 L 122.074440 498.670258 " />
<path stroke-linejoin="round" stroke-linecap="round" stroke="rgb(0,0,255)" stroke-width="1.874998" fill="none" d="M 0.000000 750.000000 L 309.375000 0.000000 " />
<path stroke-linejoin="round" stroke-linecap="round" stroke="rgb(255,0,0)" stroke-width="3.749996" fill="none" d="M 118.169724 463.527924 L 119.620216 476.582306 " />
<path stroke-linejoin="round" stroke-linecap="round" stroke="rgb(0,0,255)" stroke-width="1.874998" fill="none" d="M 0.000000 750.000000 L 266.666687 0.000000 " />
<path stroke-linejoin="round" stroke-linecap="round" stroke="rgb(255,0,0)" stroke-width="3.749996" fill="none" d="M 114.285683 428.571503 L 118.169724 463.527924 " />
<path stroke-linejoin="round" stroke-linecap="round" stroke="rgb(0,0,255)" stroke-width="1.874998" fill="none" d="M 0.000000 750.000000 L 247.500015 0.000000 " />
<path stroke-linejoin="round" stroke-linecap="round" stroke="rgb(255,0,0)" stroke-width="3.749996" fill="none" d="M 112.216606 409.949677 L 114.285683 428.571503 " />
<path stroke-linejoin="round" stroke-linecap="round" stroke="rgb(0,0,255)" stroke-width="1.874998" fill="none" d="M 0.000000 750.000000 L 232.500000 0.000000 " />
<path stroke-linejoin="round" stroke-linecap="round" stroke="rgb(255,0,0)" stroke-width="3.749996" fill="none" d="M 110.422142 393.799561 L 112.216606 409.949677 " />
<path stroke-linejoin="round" stroke-linecap="round" stroke="rgb(0,0,255)" stroke-width="1.874998" fill="none" d="M 0.000000 750.000000 L 218.181808 0.000000 " />
<path stroke-linejoin="round" stroke-linecap="round" stroke="rgb(255,0,0)" stroke-width="3.749996" fill="none" d="M 108.542694 376.884521 L 110.422142 393.799561 " />
<path stroke-linejoin="round" stroke-linecap="round" stroke="rgb(0,0,255)" stroke-width="1.874998" fill="none" d="M 0.000000 750.000000 L 204.545456 0.000000 " />
<path stroke-linejoin="round" stroke-linecap="round" stroke="rgb(255,0,0)" stroke-width="3.749996" fill="none" d="M 106.578918 359.210632 L 108.542694 376.884521 " />
<path stroke-linejoin="round" stroke-linecap="round" stroke="rgb(0,0,255)" stroke-width="1.874998" fill="none" d="M 0.000000 750.000000 L 193.750015 0.000000 " />
<path stroke-linejoin="round" stroke-linecap="round" stroke="rgb(255,0,0)" stroke-width="3.749996" fill="none" d="M 104.887177 343.985138 L 106.578918 359.210663 " />
<path stroke-linejoin="round" stroke-linecap="round" stroke="rgb(0,0,255)" stroke-width="1.874998" fill="none" d="M 0.000000 750.000000 L 173.076920 0.000000 " />
<path stroke-linejoin="round" stroke-linecap="round" stroke="rgb(255,0,0)" stroke-width="3.749996" fill="none" d="M 101.249947 311.250183 L 104.887177 343.985138 " />
<path stroke-linejoin="round" stroke-linecap="round" stroke="rgb(0,0,255)" stroke-width="1.874998" fill="none" d="M 0.000000 750.000000 L 166.071426 0.000000 " />
<path stroke-linejoin="round" stroke-linecap="round" stroke="rgb(255,0,0)" stroke-width="3.749996" fill="none" d="M 99.880638 298.926147 L 101.249947 311.250183 " />
<path stroke-linejoin="round" stroke-linecap="round" stroke="rgb(0,0,255)" stroke-width="1.874998" fill="none" d="M 0.000000 750.000000 L 155.357147 0.000000 " />
<path stroke-linejoin="round" stroke-linecap="round" stroke="rgb(255,0,0)" stroke-width="3.749996" fill="none" d="M 97.630890 278.678467 L 99.880638 298.926147 " />
<path stroke-linejoin="round" stroke-linecap="round" stroke="rgb(0,0,255)" stroke-width="1.874998" fill="none" d="M 0.000000 750.000000 L 140.000000 0.000000 " />
<path stroke-linejoin="round" stroke-linecap="round" stroke="rgb(255,0,0)" stroke-width="3.749996" fill="none" d="M 94.029823 246.268860 L 97.630890 278.678467 " />
<path stroke-linejoin="round" stroke-linecap="round" stroke="rgb(0,0,255)" stroke-width="1.874998" fill="none" d="M 0.000000 750.000000 L 135.937485 0.000000 " />
<path stroke-linejoin="round" stroke-linecap="round" stroke="rgb(255,0,0)" stroke-width="3.749996" fill="none" d="M 92.992859 236.936020 L 94.029823 246.268860 " />
<path stroke-linejoin="round" stroke-linecap="round" stroke="rgb(0,0,255)" stroke-width="1.874998" fill="none" d="M 0.000000 750.000000 L 126.562492 0.000000 " />
<path stroke-linejoin="round" stroke-linecap="round" stroke="rgb(255,0,0)" stroke-width="3.749996" fill="none" d="M 90.446617 214.020081 L 92.992859 236.936020 " />
<path stroke-linejoin="round" stroke-linecap="round" stroke="rgb(0,0,255)" stroke-width="1.874998" fill="none" d="M 0.000000 750.000000 L 123.529404 0.000000 " />
<path stroke-linejoin="round" stroke-linecap="round" stroke="rgb(255,0,0)" stroke-width="3.749996" fill="none" d="M 89.573418 206.161331 L 90.446617 214.020111 " />
<path stroke-linejoin="round" stroke-linecap="round" stroke="rgb(0,0,255)" stroke-width="1.874998" fill="none" d="M 0.000000 750.000000 L 119.426743 0.000000 " />
<path stroke-linejoin="round" stroke-linecap="round" stroke="rgb(255,0,0)" stroke-width="3.749996" fill="none" d="M 87.007149 203.595093 L 89.573418 206.161331 " />
<path stroke-linejoin="round" stroke-linecap="round" stroke="rgb(0,0,255)" stroke-width="1.874998" fill="none" d="M 0.000000 750.000000 L 113.924057 0.000000 " />
<path stroke-linejoin="round" stroke-linecap="round" stroke="rgb(255,0,0)" stroke-width="3.749996" fill="none" d="M 83.526871 200.114792 L 87.007149 203.595093 " />
<path stroke-linejoin="round" stroke-linecap="round" stroke="rgb(0,0,255)" stroke-width="1.874998" fill="none" d="M 0.000000 750.000000 L 108.490570 0.000000 " />
<path stroke-linejoin="round" stroke-linecap="round" stroke="rgb(255,0,0)" stroke-width="3.749996" fill="none" d="M 80.046593 196.634460 L 83.526871 200.114792 " />
<path stroke-linejoin="round" stroke-linecap="round" stroke="rgb(0,0,255)" stroke-width="1.874998" fill="none" d="M 0.000000 750.000000 L 103.124992 0.000000 " />
<path stroke-linejoin="round" stroke-linecap="round" stroke="rgb(255,0,0)" stroke-width="3.749996" fill="none" d="M 76.566292 193.154205 L 80.046593 196.634460 " />
<path stroke-linejoin="round" stroke-linecap="round" stroke="rgb(0,0,255)" stroke-width="1.874998" fill="none" d="M 0.000000 750.000000 L 97.826088 0.000000 " />
<path stroke-linejoin="round" stroke-linecap="round" stroke="rgb(255,0,0)" stroke-width="3.749996" fill="none" d="M 73.086014 189.673904 L 76.566292 193.154205 " />
<path stroke-linejoin="round" stroke-linecap="round" stroke="rgb(0,0,255)" stroke-width="1.874998" fill="none" d="M 0.000000 750.000000 L 92.592583 0.000000 " />
<path stroke-linejoin="round" stroke-linecap="round" stroke="rgb(255,0,0)" stroke-width="3.749996" fill="none" d="M 69.605713 186.193634 L 73.086014 189.673904 " />
<path stroke-linejoin="round" stroke-linecap="round" stroke="rgb(0,0,255)" stroke-width="1.874998" fill="none" d="M 0.000000 750.000000 L 91.463417 0.000000 " />
<path stroke-linejoin="round" stroke-linecap="round" stroke="rgb(255,0,0)" stroke-width="3.749996" fill="none" d="M 68.849152 185.437027 L 69.605713 186.193634 " />
<path stroke-linejoin="round" stroke-linecap="round" stroke="rgb(0,0,255)" stroke-width="1.874998" fill="none" d="M 0.000000 750.000000 L 90.361435 0.000000 " />
<path stroke-linejoin="round" stroke-linecap="round" stroke="rgb(255,0,0)" stroke-width="3.749996" fill="none" d="M 68.108818 184.696732 L 68.849152 185.437027 " />
<path stroke-linejoin="round" stroke-linecap="round" stroke="rgb(0,0,255)" stroke-width="1.874998" fill="none" d="M 0.000000 750.000000 L 85.329338 0.000000 " />
<path stroke-linejoin="round" stroke-linecap="round" stroke="rgb(255,0,0)" stroke-width="3.749996" fill="none" d="M 64.703400 181.291290 L 68.108818 184.696732 " />
<path stroke-linejoin="round" stroke-linecap="round" stroke="rgb(0,0,255)" stroke-width="1.874998" fill="none" d="M 0.000000 750.000000 L 80.357147 0.000000 " />
<path stroke-linejoin="round" stroke-linecap="round" stroke="rgb(255,0,0)" stroke-width="3.749996" fill="none" d="M 61.297955 177.885818 L 64.703400 181.291290 " />
<path stroke-linejoin="round" stroke-linecap="round" stroke="rgb(0,0,255)" stroke-width="1.874998" fill="none" d="M 0.000000 750.000000 L 75.443787 0.000000 " />
<path stroke-linejoin="round" stroke-linecap="round" stroke="rgb(255,0,0)" stroke-width="3.749996" fill="none" d="M 57.892509 174.480331 L 61.297955 177.885818 " />
<path stroke-linejoin="round" stroke-linecap="round" stroke="rgb(0,0,255)" stroke-width="1.874998" fill="none" d="M 0.000000 750.000000 L 70.588234 0.000000 " />
<path stroke-linejoin="round" stroke-linecap="round" stroke="rgb(255,0,0)" stroke-width="3.749996" fill="none" d="M 54.487064 171.074829 L 57.892509 174.480316 " />
<path stroke-linejoin="round" stroke-linecap="round" stroke="rgb(0,0,255)" stroke-width="1.874998" fill="none" d="M 0.000000 750.000000 L 69.767433 0.000000 " />
<path stroke-linejoin="round" stroke-linecap="round" stroke="rgb(255,0,0)" stroke-width="3.749996" fill="none" d="M 53.907417 170.495224 L 54.487064 171.074829 " />
<path stroke-linejoin="round" stroke-linecap="round" stroke="rgb(0,0,255)" stroke-width="1.874998" fill="none" d="M 0.000000 750.000000 L 68.965515 0.000000 " />
<path stroke-linejoin="round" stroke-linecap="round" stroke="rgb(255,0,0)" stroke-width="3.749996" fill="none" d="M 53.339973 169.927734 L 53.907417 170.495224 " />
<path stroke-linejoin="round" stroke-linecap="round" stroke="rgb(0,0,255)" stroke-width="1.874998" fill="none" d="M 0.000000 750.000000 L 64.285713 0.000000 " />
<path stroke-linejoin="round" stroke-linecap="round" stroke="rgb(255,0,0)" stroke-width="3.749996" fill="none" d="M 50.006233 166.593964 L 53.339973 169.927734 " />
<path stroke-linejoin="round" stroke-linecap="round" stroke="rgb(0,0,255)" stroke-width="1.874998" fill="none" d="M 0.000000 750.000000 L 59.659081 0.000000 " />
<path stroke-linejoin="round" stroke-linecap="round" stroke="rgb(255,0,0)" stroke-width="3.749996" fill="none" d="M 46.672470 163.260269 L 50.006233 166.593964 " />
<path stroke-linejoin="round" stroke-linecap="round" stroke="rgb(0,0,255)" stroke-width="1.874998" fill="none" d="M 0.000000 750.000000 L 55.714287 0.000000 " />
<path stroke-linejoin="round" stroke-linecap="round" stroke="rgb(255,0,0)" stroke-width="3.749996" fill="none" d="M 43.799782 160.387512 L 46.672470 163.260269 " />
<path stroke-linejoin="round" stroke-linecap="round" stroke="rgb(0,0,255)" stroke-width="1.874998" fill="none" d="M 0.000000 750.000000 L 51.136360 0.000000 " />
<path stroke-linejoin="round" stroke-linecap="round" stroke="rgb(255,0,0)" stroke-width="3.749996" fill="none" d="M 40.430569 157.018311 L 43.799782 160.387512 " />
<path stroke-linejoin="round" stroke-linecap="round" stroke="rgb(0,0,255)" stroke-width="1.874998" fill="none" d="M 0.000000 750.000000 L 50.561787 0.000000 " />
<path stroke-linejoin="round" stroke-linecap="round" stroke="rgb(255,0,0)" stroke-width="3.749996" fill="none" d="M 40.004990 156.592773 L 40.430569 157.018311 " />
<path stroke-linejoin="round" stroke-linecap="round" stroke="rgb(0,0,255)" stroke-width="1.874998" fill="none" d="M 0.000000 750.000000 L 46.089382 0.000000 " />
<path stroke-linejoin="round" stroke-linecap="round" stroke="rgb(255,0,0)" stroke-width="3.749996" fill="none" d="M 36.671230 153.258987 L 40.004990 156.592773 " />
<path stroke-linejoin="round" stroke-linecap="round" stroke="rgb(0,0,255)" stroke-width="1.874998" fill="none" d="M 0.000000 750.000000 L 45.580120 0.000000 " />
<path stroke-linejoin="round" stroke-linecap="round" stroke="rgb(255,0,0)" stroke-width="3.749996" fill="none" d="M 36.289238 152.877045 L 36.671230 153.258987 " />
<path stroke-linejoin="round" stroke-linecap="round" stroke="rgb(0,0,255)" stroke-width="1.874998" fill="none" d="M 0.000000 750.000000 L 41.208790 0.000000 " />
<path stroke-linejoin="round" stroke-linecap="round" stroke="rgb(255,0,0)" stroke-width="3.749996" fill="none" d="M 32.990211 149.578079 L 36.289238 152.877045 " />
<path stroke-linejoin="round" stroke-linecap="round" stroke="rgb(0,0,255)" stroke-width="1.874998" fill="none" d="M 0.000000 750.000000 L 36.885246 0.000000 " />
<path stroke-linejoin="round" stroke-linecap="round" stroke="rgb(255,0,0)" stroke-width="3.749996" fill="none" d="M 29.691204 146.279022 L 32.990211 149.578079 " />
<path stroke-linejoin="round" stroke-linecap="round" stroke="rgb(0,0,255)" stroke-width="1.874998" fill="none" d="M 0.000000 750.000000 L 32.608688 0.000000 " />
<path stroke-linejoin="round" stroke-linecap="round" stroke="rgb(255,0,0)" stroke-width="3.749996" fill="none" d="M 26.392178 142.980042 L 29.691204 146.279022 " />
<path stroke-linejoin="round" stroke-linecap="round" stroke="rgb(0,0,255)" stroke-width="1.874998" fill="none" d="M 0.000000 750.000000 L 32.258057 0.000000 " />
<path stroke-linejoin="round" stroke-linecap="round" stroke="rgb(255,0,0)" stroke-width="3.749996" fill="none" d="M 26.120089 142.707962 L 26.392178 142.980118 " />
<path stroke-linejoin="round" stroke-linecap="round" stroke="rgb(0,0,255)" stroke-width="1.874998" fill="none" d="M 0.000000 750.000000 L 28.074860 0.000000 " />
<path stroke-linejoin="round" stroke-linecap="round" stroke="rgb(255,0,0)" stroke-width="3.749996" fill="none" d="M 22.855082 139.442978 L 26.120089 142.707962 " />
<path stroke-linejoin="round" stroke-linecap="round" stroke="rgb(0,0,255)" stroke-width="1.874998" fill="none" d="M 0.000000 750.000000 L 23.936167 0.000000 " />
<path stroke-linejoin="round" stroke-linecap="round" stroke="rgb(255,0,0)" stroke-width="3.749996" fill="none" d="M 19.590073 136.177963 L 22.855082 139.442978 " />
<path stroke-linejoin="round" stroke-linecap="round" stroke="rgb(0,0,255)" stroke-width="1.874998" fill="none" d="M 0.000000 750.000000 L 19.841261 0.000000 " />
<path stroke-linejoin="round" stroke-linecap="round" stroke="rgb(255,0,0)" stroke-width="3.749996" fill="none" d="M 16.325064 132.912888 L 19.590073 136.177963 " />
<path stroke-linejoin="round" stroke-linecap="round" stroke="rgb(0,0,255)" stroke-width="1.874998" fill="none" d="M 0.000000 750.000000 L 15.789472 0.000000 " />
<path stroke-linejoin="round" stroke-linecap="round" stroke="rgb(255,0,0)" stroke-width="3.749996" fill="none" d="M 13.274342 119.468941 L 16.325064 132.912888 " />
<path stroke-linejoin="round" stroke-linecap="round" stroke="rgb(0,0,255)" stroke-width="1.874998" fill="none" d="M 0.000000 750.000000 L 15.625008 0.000000 " />
<path stroke-linejoin="round" stroke-linecap="round" stroke="rgb(255,0,0)" stroke-width="3.749996" fill="none" d="M 13.157889 118.421089 L 13.274342 119.468941 " />
<path stroke-linejoin="round" stroke-linecap="round" stroke="rgb(0,0,255)" stroke-width="1.874998" fill="none" d="M 0.000000 750.000000 L 11.904761 0.000000 " />
<path stroke-linejoin="round" stroke-linecap="round" stroke="rgb(255,0,0)" stroke-width="3.749996" fill="none" d="M 10.416672 93.750069 L 13.157889 118.421089 " />
<path stroke-linejoin="round" stroke-linecap="round" stroke="rgb(0,0,255)" stroke-width="1.874998" fill="none" d="M 0.000000 750.000000 L 11.780106 0.000000 " />
<path stroke-linejoin="round" stroke-linecap="round" stroke="rgb(255,0,0)" stroke-width="3.749996" fill="none" d="M 10.321095 92.890038 L 10.416672 93.750069 " />
<path stroke-linejoin="round" stroke-linecap="round" stroke="rgb(0,0,255)" stroke-width="1.874998" fill="none" d="M 0.000000 750.000000 L 11.658020 0.000000 " />
<path stroke-linejoin="round" stroke-linecap="round" stroke="rgb(255,0,0)" stroke-width="3.749996" fill="none" d="M 10.227262 92.045547 L 10.321095 92.890038 " />
<path stroke-linejoin="round" stroke-linecap="round" stroke="rgb(0,0,255)" stroke-width="1.874998" fill="none" d="M 0.000000 750.000000 L 7.731959 0.000000 " />
<path stroke-linejoin="round" stroke-linecap="round" stroke="rgb(255,0,0)" stroke-width="3.749996" fill="none" d="M 7.075466 63.679352 L 10.227262 92.045547 " />
<path stroke-linejoin="round" stroke-linecap="round" stroke="rgb(0,0,255)" stroke-width="1.874998" fill="none" d="M 0.000000 750.000000 L 3.846154 0.000000 " />
<path stroke-linejoin="round" stroke-linecap="round" stroke="rgb(255,0,0)" stroke-width="3.749996" fill="none" d="M 3.676459 33.088310 L 7.075466 63.679352 " />
<path stroke-linejoin="round" stroke-linecap="round" stroke="rgb(0,0,255)" stroke-width="1.874998" fill="none" d="M 0.000000 750.000000 L 0.000000 0.000000 " />
<path stroke-linejoin="round" stroke-linecap="round" stroke="rgb(255,0,0)" stroke-width="3.749996" fill="none" d="M 0.000000 0.000000 L 3.676459 33.088310 " />
<circle cx="145.738631" cy="711.647719" r="3.749996" style="fill:rgb(0,127,0);stroke-width:1" /><circle cx="141.501412" cy="673.512764" r="3.749996" style="fill:rgb(0,127,0);stroke-width:1" /><circle cx="137.288131" cy="635.593235" r="3.749996" style="fill:rgb(0,127,0);stroke-width:1" /><circle cx="133.098587" cy="597.887322" r="3.749996" style="fill:rgb(0,127,0);stroke-width:1" /><circle cx="128.932558" cy="560.393281" r="3.749996" style="fill:rgb(0,127,0);stroke-width:1" /><circle cx="125.999987" cy="534.000032" r="3.749996" style="fill:rgb(0,127,0);stroke-width:1" /><circle cx="122.074440" cy="498.670254" r="3.749996" style="fill:rgb(0,127,0);stroke-width:1" /><circle cx="119.620219" cy="476.582319" r="3.749996" style="fill:rgb(0,127,0);stroke-width:1" /><circle cx="118.169725" cy="463.527918" r="3.749996" style="fill:rgb(0,127,0);stroke-width:1" /><circle cx="114.285685" cy="428.571509" r="3.749996" style="fill:rgb(0,127,0);stroke-width:1" /><circle cx="112.216607" cy="409.949684" r="3.749996" style="fill:rgb(0,127,0);stroke-width:1" /><circle cx="110.422142" cy="393.799567" r="3.749996" style="fill:rgb(0,127,0);stroke-width:1" /><circle cx="108.542696" cy="376.884520" r="3.749996" style="fill:rgb(0,127,0);stroke-width:1" /><circle cx="106.578916" cy="359.210622" r="3.749996" style="fill:rgb(0,127,0);stroke-width:1" /><circle cx="104.887180" cy="343.985153" r="3.749996" style="fill:rgb(0,127,0);stroke-width:1" /><circle cx="101.249948" cy="311.250184" r="3.749996" style="fill:rgb(0,127,0);stroke-width:1" /><circle cx="99.880636" cy="298.926149" r="3.749996" style="fill:rgb(0,127,0);stroke-width:1" /><circle cx="97.630888" cy="278.678477" r="3.749996" style="fill:rgb(0,127,0);stroke-width:1" /><circle cx="94.029821" cy="246.268842" r="3.749996" style="fill:rgb(0,127,0);stroke-width:1" /><circle cx="92.992857" cy="236.936007" r="3.749996" style="fill:rgb(0,127,0);stroke-width:1" /><circle cx="90.446614" cy="214.020073" r="3.749996" style="fill:rgb(0,127,0);stroke-width:1" /><circle cx="89.573421" cy="206.161346" r="3.749996" style="fill:rgb(0,127,0);stroke-width:1" /><circle cx="87.007150" cy="203.595076" r="3.749996" style="fill:rgb(0,127,0);stroke-width:1" /><circle cx="83.526872" cy="200.114787" r="3.749996" style="fill:rgb(0,127,0);stroke-width:1" /><circle cx="80.046594" cy="196.634464" r="3.749996" style="fill:rgb(0,127,0);stroke-width:1" /><circle cx="76.566294" cy="193.154208" r="3.749996" style="fill:rgb(0,127,0);stroke-width:1" /><circle cx="73.086016" cy="189.673908" r="3.749996" style="fill:rgb(0,127,0);stroke-width:1" /><circle cx="69.605716" cy="186.193630" r="3.749996" style="fill:rgb(0,127,0);stroke-width:1" /><circle cx="68.849154" cy="185.437024" r="3.749996" style="fill:rgb(0,127,0);stroke-width:1" /><circle cx="68.108819" cy="184.696734" r="3.749996" style="fill:rgb(0,127,0);stroke-width:1" /><circle cx="64.703397" cy="181.291290" r="3.749996" style="fill:rgb(0,127,0);stroke-width:1" /><circle cx="61.297953" cy="177.885823" r="3.749996" style="fill:rgb(0,127,0);stroke-width:1" /><circle cx="57.892509" cy="174.480334" r="3.749996" style="fill:rgb(0,127,0);stroke-width:1" /><circle cx="54.487064" cy="171.074823" r="3.749996" style="fill:rgb(0,127,0);stroke-width:1" /><circle cx="53.907417" cy="170.495220" r="3.749996" style="fill:rgb(0,127,0);stroke-width:1" /><circle cx="53.339973" cy="169.927731" r="3.749996" style="fill:rgb(0,127,0);stroke-width:1" /><circle cx="50.006233" cy="166.593969" r="3.749996" style="fill:rgb(0,127,0);stroke-width:1" /><circle cx="46.672471" cy="163.260274" r="3.749996" style="fill:rgb(0,127,0);stroke-width:1" /><circle cx="43.799780" cy="160.387516" r="3.749996" style="fill:rgb(0,127,0);stroke-width:1" /><circle cx="40.430568" cy="157.018304" r="3.749996" style="fill:rgb(0,127,0);stroke-width:1" /><circle cx="40.004991" cy="156.592771" r="3.749996" style="fill:rgb(0,127,0);stroke-width:1" /><circle cx="36.671229" cy="153.258987" r="3.749996" style="fill:rgb(0,127,0);stroke-width:1" /><circle cx="36.289237" cy="152.877040" r="3.749996" style="fill:rgb(0,127,0);stroke-width:1" /><circle cx="32.990210" cy="149.578080" r="3.749996" style="fill:rgb(0,127,0);stroke-width:1" /><circle cx="29.691204" cy="146.279030" r="3.749996" style="fill:rgb(0,127,0);stroke-width:1" /><circle cx="26.392177" cy="142.980047" r="3.749996" style="fill:rgb(0,127,0);stroke-width:1" /><circle cx="26.120089" cy="142.707959" r="3.749996" style="fill:rgb(0,127,0);stroke-width:1" /><circle cx="22.855081" cy="139.442973" r="3.749996" style="fill:rgb(0,127,0);stroke-width:1" /><circle cx="19.590072" cy="136.177965" r="3.749996" style="fill:rgb(0,127,0);stroke-width:1" /><circle cx="16.325064" cy="132.912889" r="3.749996" style="fill:rgb(0,127,0);stroke-width:1" /><circle cx="13.274342" cy="119.468942" r="3.749996" style="fill:rgb(0,127,0);stroke-width:1" /><circle cx="13.157889" cy="118.421093" r="3.749996" style="fill:rgb(0,127,0);stroke-width:1" /><circle cx="10.416672" cy="93.750067" r="3.749996" style="fill:rgb(0,127,0);stroke-width:1" /><circle cx="10.321096" cy="92.890039" r="3.749996" style="fill:rgb(0,127,0);stroke-width:1" /><circle cx="10.227263" cy="92.045546" r="3.749996" style="fill:rgb(0,127,0);stroke-width:1" /><circle cx="7.075466" cy="63.679352" r="3.749996" style="fill:rgb(0,127,0);stroke-width:1" /><circle cx="3.676459" cy="33.088312" r="3.749996" style="fill:rgb(0,127,0);stroke-width:1" /><circle cx="750.000000" cy="750.000000" r="3.749996" style="fill:rgb(0,127,0);stroke-width:1" /><path stroke-linejoin="round" stroke-linecap="round" stroke="rgb(255,255,255)" stroke-width="3.749996" fill="none" d="M 0.000000 750.000000 L 750.000000 750.000000 M 0.000000 750.000000 L 0.000000 0.000000 " />

</svg>