<svg xmlns="http://www.w3.org/2000/svg" version="1.1" width = "750" height = "750" viewBox = "0 0 750 750"  shape-rendering="crispEdges">
<path stroke-linejoin="round" stroke-linecap="round" stroke="rgb(255,255,0)" stroke-width="3.749996" fill="none" d="M 93.750000 750.000000 L 0.000000 0.000000 " />
<path stroke-linejoin="round" stroke-linecap="round" stroke="rgb(63,63,63)" stroke-width="3.749996" fill="none" d="M 0.000000 0.000000 L 750.000000 750.000000 M 93.750000 750.000000 L 43.750004 0.000000 " />
<path stroke-linejoin="round" stroke-linecap="round" stroke="rgb(191,191,191)" stroke-width="3.749996" fill="none" d="M 0.000000 656.250000 L 93.750000 750.000000 M 0.000000 0.000000 L 49.999996 750.000000 " />
<path stroke-linejoin="round" stroke-linecap="round" stroke="rgb(0,0,255)" stroke-width="1.874998" fill="none" d="M 0.000000 750.000000 L 750.000000 730.263123 " />
<path stroke-linejoin="round" stroke-linecap="round" stroke="rgb(255,0,0)" stroke-width="3.749996" fill="none" d="M 93.585808 747.537170 L 93.750000 750.000000 " />
<path stroke-linejoin="round" stroke-linecap="round" stroke="rgb(0,0,255)" stroke-width="1.874998" fill="none" d="M 0.000000 750.000000 L 750.000000 709.459473 " />
<path stroke-linejoin="round" stroke-linecap="round" stroke="rgb(255,0,0)" stroke-width="3.749996" fill="none" d="M 93.015793 744.972107 L 93.585808 747.537170 " />
<path stroke-linejoin="round" stroke-linecap="round" stroke="rgb(0,0,255)" stroke-width="1.874998" fill="none" d="M 0.000000 750.000000 L 750.000000 690.789490 " />
<path stroke-linejoin="round" stroke-linecap="round" stroke="rgb(255,0,0)" stroke-width="3.749996" fill="none" d="M 92.510101 742.696594 L 93.015770 744.972107 " />
<path stroke-linejoin="round" stroke-linecap="round" stroke="rgb(0,0,255)" stroke-width="1.874998" fill="none" d="M 0.000000 750.000000 L 750.000000 687.500000 " />
<path stroke-linejoin="round" stroke-linecap="round" stroke="rgb(255,0,0)" stroke-width="3.749996" fill="none" d="M 92.421570 742.298218 L 92.510101 742.696594 " />
<path stroke-linejoin="round" stroke-linecap="round" stroke="rgb(0,0,255)" stroke-width="1.874998" fill="none" d="M 0.000000 750.000000 L 750.000000 668.918945 " />
<path stroke-linejoin="round" stroke-linecap="round" stroke="rgb(255,0,0)" stroke-width="3.749996" fill="none" d="M 91.924690 740.062195 L 92.421570 742.298218 " />
<path stroke-linejoin="round" stroke-linecap="round" stroke="rgb(0,0,255)" stroke-width="1.874998" fill="none" d="M 0.000000 750.000000 L 750.000000 645.833313 " />
<path stroke-linejoin="round" stroke-linecap="round" stroke="rgb(255,0,0)" stroke-width="3.749996" fill="none" d="M 91.314735 737.317383 L 91.924690 740.062195 " />
<path stroke-linejoin="round" stroke-linecap="round" stroke="rgb(0,0,255)" stroke-width="1.874998" fill="none" d="M 0.000000 750.000000 L 750.000000 621.428589 " />
<path stroke-linejoin="round" stroke-linecap="round" stroke="rgb(255,0,0)" stroke-width="3.749996" fill="none" d="M 90.678673 734.455078 L 91.314735 737.317383 " />
<path stroke-linejoin="round" stroke-linecap="round" stroke="rgb(0,0,255)" stroke-width="1.874998" fill="none" d="M 0.000000 750.000000 L 750.000000 595.588196 " />
<path stroke-linejoin="round" stroke-linecap="round" stroke="rgb(255,0,0)" stroke-width="3.749996" fill="none" d="M 90.014778 731.467529 L 90.678673 734.455078 " />
<path stroke-linejoin="round" stroke-linecap="round" stroke="rgb(0,0,255)" stroke-width="1.874998" fill="none" d="M 0.000000 750.000000 L 750.000000 568.181824 " />
<path stroke-linejoin="round" stroke-linecap="round" stroke="rgb(255,0,0)" stroke-width="3.749996" fill="none" d="M 89.321182 728.346375 L 90.014778 731.467529 " />
<path stroke-linejoin="round" stroke-linecap="round" stroke="rgb(0,0,255)" stroke-width="1.874998" fill="none" d="M 0.000000 750.000000 L 750.000000 551.470581 " />
<path stroke-linejoin="round" stroke-linecap="round" stroke="rgb(255,0,0)" stroke-width="3.749996" fill="none" d="M 88.903496 726.466736 L 89.321182 728.346375 " />
<path stroke-linejoin="round" stroke-linecap="round" stroke="rgb(0,0,255)" stroke-width="1.874998" fill="none" d="M 0.000000 750.000000 L 750.000000 539.062500 " />
<path stroke-linejoin="round" stroke-linecap="round" stroke="rgb(255,0,0)" stroke-width="3.749996" fill="none" d="M 88.595871 725.082397 L 88.903496 726.466736 " />
<path stroke-linejoin="round" stroke-linecap="round" stroke="rgb(0,0,255)" stroke-width="1.874998" fill="none" d="M 0.000000 750.000000 L 750.000000 522.727295 " />
<path stroke-linejoin="round" stroke-linecap="round" stroke="rgb(255,0,0)" stroke-width="3.749996" fill="none" d="M 88.194115 723.274536 L 88.595871 725.082397 " />
<path stroke-linejoin="round" stroke-linecap="round" stroke="rgb(0,0,255)" stroke-width="1.874998" fill="none" d="M 0.000000 750.000000 L 750.000000 508.064514 " />
<path stroke-linejoin="round" stroke-linecap="round" stroke="rgb(255,0,0)" stroke-width="3.749996" fill="none" d="M 87.836578 721.665588 L 88.194115 723.274536 " />
<path stroke-linejoin="round" stroke-linecap="round" stroke="rgb(0,0,255)" stroke-width="1.874998" fill="none" d="M 0.000000 750.000000 L 750.000000 492.187500 " />
<path stroke-linejoin="round" stroke-linecap="round" stroke="rgb(255,0,0)" stroke-width="3.749996" fill="none" d="M 87.452690 719.938171 L 87.836578 721.665588 " />
<path stroke-linejoin="round" stroke-linecap="round" stroke="rgb(0,0,255)" stroke-width="1.874998" fill="none" d="M 0.000000 750.000000 L 750.000000 459.677429 " />
<path stroke-linejoin="round" stroke-linecap="round" stroke="rgb(255,0,0)" stroke-width="3.749996" fill="none" d="M 86.677017 716.447632 L 87.452690 719.938171 " />
<path stroke-linejoin="round" stroke-linecap="round" stroke="rgb(0,0,255)" stroke-width="1.874998" fill="none" d="M 0.000000 750.000000 L 750.000000 439.655182 " />
<path stroke-linejoin="round" stroke-linecap="round" stroke="rgb(255,0,0)" stroke-width="3.749996" fill="none" d="M 86.206108 714.328491 L 86.677017 716.447632 " />
<path stroke-linejoin="round" stroke-linecap="round" stroke="rgb(0,0,255)" stroke-width="1.874998" fill="none" d="M 0.000000 750.000000 L 750.000000 425.000000 " />
<path stroke-linejoin="round" stroke-linecap="round" stroke="rgb(255,0,0)" stroke-width="3.749996" fill="none" d="M 85.864639 712.791992 L 86.206108 714.328491 " />
<path stroke-linejoin="round" stroke-linecap="round" stroke="rgb(0,0,255)" stroke-width="1.874998" fill="none" d="M 0.000000 750.000000 L 750.000000 401.785706 " />
<path stroke-linejoin="round" stroke-linecap="round" stroke="rgb(255,0,0)" stroke-width="3.749996" fill="none" d="M 85.329292 710.382812 L 85.864639 712.791992 " />
<path stroke-linejoin="round" stroke-linecap="round" stroke="rgb(0,0,255)" stroke-width="1.874998" fill="none" d="M 0.000000 750.000000 L 750.000000 387.931030 " />
<path stroke-linejoin="round" stroke-linecap="round" stroke="rgb(255,0,0)" stroke-width="3.749996" fill="none" d="M 85.012924 708.959229 L 85.329292 710.382812 " />
<path stroke-linejoin="round" stroke-linecap="round" stroke="rgb(0,0,255)" stroke-width="1.874998" fill="none" d="M 0.000000 750.000000 L 750.000000 361.111115 " />
<path stroke-linejoin="round" stroke-linecap="round" stroke="rgb(255,0,0)" stroke-width="3.749996" fill="none" d="M 84.407173 706.233337 L 85.012924 708.959229 " />
<path stroke-linejoin="round" stroke-linecap="round" stroke="rgb(0,0,255)" stroke-width="1.874998" fill="none" d="M 0.000000 750.000000 L 750.000000 348.214294 " />
<path stroke-linejoin="round" stroke-linecap="round" stroke="rgb(255,0,0)" stroke-width="3.749996" fill="none" d="M 84.118950 704.936279 L 84.407173 706.233337 " />
<path stroke-linejoin="round" stroke-linecap="round" stroke="rgb(0,0,255)" stroke-width="1.874998" fill="none" d="M 0.000000 750.000000 L 750.000000 305.555542 " />
<path stroke-linejoin="round" stroke-linecap="round" stroke="rgb(255,0,0)" stroke-width="3.749996" fill="none" d="M 83.179436 700.708496 L 84.118950 704.936279 " />
<path stroke-linejoin="round" stroke-linecap="round" stroke="rgb(0,0,255)" stroke-width="1.874998" fill="none" d="M 0.000000 750.000000 L 750.000000 270.000000 " />
<path stroke-linejoin="round" stroke-linecap="round" stroke="rgb(255,0,0)" stroke-width="3.749996" fill="none" d="M 82.412254 697.256165 L 83.179436 700.708496 " />
<path stroke-linejoin="round" stroke-linecap="round" stroke="rgb(0,0,255)" stroke-width="1.874998" fill="none" d="M 0.000000 750.000000 L 750.000000 218.750015 " />
<path stroke-linejoin="round" stroke-linecap="round" stroke="rgb(255,0,0)" stroke-width="3.749996" fill="none" d="M 81.331017 692.390503 L 82.412254 697.256165 " />
<path stroke-linejoin="round" stroke-linecap="round" stroke="rgb(0,0,255)" stroke-width="1.874998" fill="none" d="M 0.000000 750.000000 L 750.000000 163.043488 " />
<path stroke-linejoin="round" stroke-linecap="round" stroke="rgb(255,0,0)" stroke-width="3.749996" fill="none" d="M 80.187454 687.244568 L 81.331017 692.390503 " />
<path stroke-linejoin="round" stroke-linecap="round" stroke="rgb(0,0,255)" stroke-width="1.874998" fill="none" d="M 0.000000 750.000000 L 750.000000 156.249985 " />
<path stroke-linejoin="round" stroke-linecap="round" stroke="rgb(255,0,0)" stroke-width="3.749996" fill="none" d="M 80.050217 686.626892 L 80.187454 687.244568 " />
<path stroke-linejoin="round" stroke-linecap="round" stroke="rgb(0,0,255)" stroke-width="1.874998" fill="none" d="M 0.000000 750.000000 L 750.000000 97.826111 " />
<path stroke-linejoin="round" stroke-linecap="round" stroke="rgb(255,0,0)" stroke-width="3.749996" fill="none" d="M 78.888885 681.401001 L 80.050217 686.626892 " />
<path stroke-linejoin="round" stroke-linecap="round" stroke="rgb(0,0,255)" stroke-width="1.874998" fill="none" d="M 0.000000 750.000000 L 750.000000 93.750000 " />
<path stroke-linejoin="round" stroke-linecap="round" stroke="rgb(255,0,0)" stroke-width="3.749996" fill="none" d="M 78.809113 681.041992 L 78.888885 681.401001 " />
<path stroke-linejoin="round" stroke-linecap="round" stroke="rgb(0,0,255)" stroke-width="1.874998" fill="none" d="M 0.000000 750.000000 L 750.000000 32.608688 " />
<path stroke-linejoin="round" stroke-linecap="round" stroke="rgb(255,0,0)" stroke-width="3.749996" fill="none" d="M 77.631691 675.743591 L 78.809113 681.041992 " />
<path stroke-linejoin="round" stroke-linecap="round" stroke="rgb(0,0,255)" stroke-width="1.874998" fill="none" d="M 0.000000 750.000000 L 750.000000 31.250015 " />
<path stroke-linejoin="round" stroke-linecap="round" stroke="rgb(255,0,0)" stroke-width="3.749996" fill="none" d="M 77.605919 675.627686 L 77.631691 675.743591 " />
<path stroke-linejoin="round" stroke-linecap="round" stroke="rgb(0,0,255)" stroke-width="1.874998" fill="none" d="M 0.000000 750.000000 L 718.750000 0.000000 " />
<path stroke-linejoin="round" stroke-linecap="round" stroke="rgb(255,0,0)" stroke-width="3.749996" fill="none" d="M 76.413948 670.263733 L 77.605919 675.627686 " />
<path stroke-linejoin="round" stroke-linecap="round" stroke="rgb(0,0,255)" stroke-width="1.874998" fill="none" d="M 0.000000 750.000000 L 522.727295 0.000000 " />
<path stroke-linejoin="round" stroke-linecap="round" stroke="rgb(255,0,0)" stroke-width="3.749996" fill="none" d="M 74.102242 643.679382 L 76.413948 670.263733 " />
<path stroke-linejoin="round" stroke-linecap="round" stroke="rgb(0,0,255)" stroke-width="1.874998" fill="none" d="M 0.000000 750.000000 L 517.241333 0.000000 " />
<path stroke-linejoin="round" stroke-linecap="round" stroke="rgb(255,0,0)" stroke-width="3.749996" fill="none" d="M 73.912743 642.826538 L 74.102242 643.679382 " />
<path stroke-linejoin="round" stroke-linecap="round" stroke="rgb(0,0,255)" stroke-width="1.874998" fill="none" d="M 0.000000 750.000000 L 365.384613 0.000000 " />
<path stroke-linejoin="round" stroke-linecap="round" stroke="rgb(255,0,0)" stroke-width="3.749996" fill="none" d="M 70.626114 605.030579 L 73.912743 642.826538 " />
<path stroke-linejoin="round" stroke-linecap="round" stroke="rgb(0,0,255)" stroke-width="1.874998" fill="none" d="M 0.000000 750.000000 L 275.510193 0.000000 " />
<path stroke-linejoin="round" stroke-linecap="round" stroke="rgb(255,0,0)" stroke-width="3.749996" fill="none" d="M 67.301003 566.791687 L 70.626114 605.030579 " />
<path stroke-linejoin="round" stroke-linecap="round" stroke="rgb(0,0,255)" stroke-width="1.874998" fill="none" d="M 0.000000 750.000000 L 216.101685 0.000000 " />
<path stroke-linejoin="round" stroke-linecap="round" stroke="rgb(255,0,0)" stroke-width="3.749996" fill="none" d="M 63.936687 528.102112 L 67.301003 566.791687 " />
<path stroke-linejoin="round" stroke-linecap="round" stroke="rgb(0,0,255)" stroke-width="1.874998" fill="none" d="M 0.000000 750.000000 L 195.652176 0.000000 " />
<path stroke-linejoin="round" stroke-linecap="round" stroke="rgb(255,0,0)" stroke-width="3.749996" fill="none" d="M 62.424122 510.707520 L 63.936687 528.102112 " />
<path stroke-linejoin="round" stroke-linecap="round" stroke="rgb(0,0,255)" stroke-width="1.874998" fill="none" d="M 0.000000 750.000000 L 190.298508 0.000000 " />
<path stroke-linejoin="round" stroke-linecap="round" stroke="rgb(255,0,0)" stroke-width="3.749996" fill="none" d="M 61.988129 505.693817 L 62.424122 510.707520 " />
<path stroke-linejoin="round" stroke-linecap="round" stroke="rgb(0,0,255)" stroke-width="1.874998" fill="none" d="M 0.000000 750.000000 L 155.844162 0.000000 " />
<path stroke-linejoin="round" stroke-linecap="round" stroke="rgb(255,0,0)" stroke-width="3.749996" fill="none" d="M 58.677078 467.616577 L 61.988129 505.693817 " />
<path stroke-linejoin="round" stroke-linecap="round" stroke="rgb(0,0,255)" stroke-width="1.874998" fill="none" d="M 0.000000 750.000000 L 129.310318 0.000000 " />
<path stroke-linejoin="round" stroke-linecap="round" stroke="rgb(255,0,0)" stroke-width="3.749996" fill="none" d="M 55.327736 429.099121 L 58.677078 467.616577 " />
<path stroke-linejoin="round" stroke-linecap="round" stroke="rgb(0,0,255)" stroke-width="1.874998" fill="none" d="M 0.000000 750.000000 L 123.711349 0.000000 " />
<path stroke-linejoin="round" stroke-linecap="round" stroke="rgb(255,0,0)" stroke-width="3.749996" fill="none" d="M 54.500767 419.589050 L 55.327736 429.099121 " />
<path stroke-linejoin="round" stroke-linecap="round" stroke="rgb(0,0,255)" stroke-width="1.874998" fill="none" d="M 0.000000 750.000000 L 117.857140 0.000000 " />
<path stroke-linejoin="round" stroke-linecap="round" stroke="rgb(255,0,0)" stroke-width="3.749996" fill="none" d="M 53.582020 409.023468 L 54.500767 419.589050 " />
<path stroke-linejoin="round" stroke-linecap="round" stroke="rgb(0,0,255)" stroke-width="1.874998" fill="none" d="M 0.000000 750.000000 L 101.851837 0.000000 " />
<path stroke-linejoin="round" stroke-linecap="round" stroke="rgb(255,0,0)" stroke-width="3.749996" fill="none" d="M 50.741539 376.357819 L 53.582020 409.023468 " />
<path stroke-linejoin="round" stroke-linecap="round" stroke="rgb(0,0,255)" stroke-width="1.874998" fill="none" d="M 0.000000 750.000000 L 92.696632 0.000000 " />
<path stroke-linejoin="round" stroke-linecap="round" stroke="rgb(255,0,0)" stroke-width="3.749996" fill="none" d="M 48.857868 354.695557 L 50.741539 376.357819 " />
<path stroke-linejoin="round" stroke-linecap="round" stroke="rgb(0,0,255)" stroke-width="1.874998" fill="none" d="M 0.000000 750.000000 L 90.659332 0.000000 " />
<path stroke-linejoin="round" stroke-linecap="round" stroke="rgb(255,0,0)" stroke-width="3.749996" fill="none" d="M 48.408596 349.528992 L 48.857868 354.695557 " />
<path stroke-linejoin="round" stroke-linecap="round" stroke="rgb(0,0,255)" stroke-width="1.874998" fill="none" d="M 0.000000 750.000000 L 87.765945 0.000000 " />
<path stroke-linejoin="round" stroke-linecap="round" stroke="rgb(255,0,0)" stroke-width="3.749996" fill="none" d="M 47.749958 341.954834 L 48.408596 349.528992 " />
<path stroke-linejoin="round" stroke-linecap="round" stroke="rgb(0,0,255)" stroke-width="1.874998" fill="none" d="M 0.000000 750.000000 L 72.115395 0.000000 " />
<path stroke-linejoin="round" stroke-linecap="round" stroke="rgb(255,0,0)" stroke-width="3.749996" fill="none" d="M 43.706394 295.453583 L 47.749958 341.954834 " />
<path stroke-linejoin="round" stroke-linecap="round" stroke="rgb(0,0,255)" stroke-width="1.874998" fill="none" d="M 0.000000 750.000000 L 59.210526 0.000000 " />
<path stroke-linejoin="round" stroke-linecap="round" stroke="rgb(255,0,0)" stroke-width="3.749996" fill="none" d="M 39.607018 248.310959 L 43.706394 295.453583 " />
<path stroke-linejoin="round" stroke-linecap="round" stroke="rgb(0,0,255)" stroke-width="1.874998" fill="none" d="M 0.000000 750.000000 L 48.387096 0.000000 " />
<path stroke-linejoin="round" stroke-linecap="round" stroke="rgb(255,0,0)" stroke-width="3.749996" fill="none" d="M 35.450733 200.513626 L 39.607018 248.310959 " />
<path stroke-linejoin="round" stroke-linecap="round" stroke="rgb(0,0,255)" stroke-width="1.874998" fill="none" d="M 0.000000 750.000000 L 47.297291 0.000000 " />
<path stroke-linejoin="round" stroke-linecap="round" stroke="rgb(255,0,0)" stroke-width="3.749996" fill="none" d="M 34.987919 195.191452 L 35.450733 200.513626 " />
<path stroke-linejoin="round" stroke-linecap="round" stroke="rgb(0,0,255)" stroke-width="1.874998" fill="none" d="M 0.000000 750.000000 L 41.208790 0.000000 " />
<path stroke-linejoin="round" stroke-linecap="round" stroke="rgb(255,0,0)" stroke-width="3.749996" fill="none" d="M 31.376839 178.941559 L 34.987919 195.191498 " />
<path stroke-linejoin="round" stroke-linecap="round" stroke="rgb(0,0,255)" stroke-width="1.874998" fill="none" d="M 0.000000 750.000000 L 32.608688 0.000000 " />
<path stroke-linejoin="round" stroke-linecap="round" stroke="rgb(255,0,0)" stroke-width="3.749996" fill="none" d="M 25.900148 154.296494 L 31.376839 178.941559 " />
<path stroke-linejoin="round" stroke-linecap="round" stroke="rgb(0,0,255)" stroke-width="1.874998" fill="none" d="M 0.000000 750.000000 L 22.058823 0.000000 " />
<path stroke-linejoin="round" stroke-linecap="round" stroke="rgb(255,0,0)" stroke-width="3.749996" fill="none" d="M 19.638577 82.288338 L 25.900148 154.296494 " />
<path stroke-linejoin="round" stroke-linecap="round" stroke="rgb(0,0,255)" stroke-width="1.874998" fill="none" d="M 0.000000 750.000000 L 19.911512 0.000000 " />
<path stroke-linejoin="round" stroke-linecap="round" stroke="rgb(255,0,0)" stroke-width="3.749996" fill="none" d="M 18.174000 65.445763 L 19.638577 82.288338 " />
<path stroke-linejoin="round" stroke-linecap="round" stroke="rgb(0,0,255)" stroke-width="1.874998" fill="none" d="M 0.000000 750.000000 L 13.888881 0.000000 " />
<path stroke-linejoin="round" stroke-linecap="round" stroke="rgb(255,0,0)" stroke-width="3.749996" fill="none" d="M 13.020895 46.871780 L 18.174000 65.445763 " />
<path stroke-linejoin="round" stroke-linecap="round" stroke="rgb(0,0,255)" stroke-width="1.874998" fill="none" d="M 0.000000 750.000000 L 6.880738 0.000000 " />
<path stroke-linejoin="round" stroke-linecap="round" stroke="rgb(255,0,0)" stroke-width="3.749996" fill="none" d="M 6.590210 31.667276 L 13.020895 46.871780 " />
<path stroke-linejoin="round" stroke-linecap="round" stroke="rgb(0,0,255)" stroke-width="1.874998" fill="none" d="M 0.000000 750.000000 L 0.000000 0.000000 " />
<path stroke-linejoin="round" stroke-linecap="round" stroke="rgb(255,0,0)" stroke-width="3.749996" fill="none" d="M 0.000000 0.000000 L 6.590210 31.667276 " />
<circle cx="93.585804" cy="747.537240" r="3.749996" style="fill:rgb(0,127,0);stroke-width:1" /><circle cx="93.015790" cy="744.972110" r="3.749996" style="fill:rgb(0,127,0);stroke-width:1" /><circle cx="92.510104" cy="742.696568" r="3.749996" style="fill:rgb(0,127,0);stroke-width:1" /><circle cx="92.421569" cy="742.298193" r="3.749996" style="fill:rgb(0,127,0);stroke-width:1" /><circle cx="91.924690" cy="740.062192" r="3.749996" style="fill:rgb(0,127,0);stroke-width:1" /><circle cx="91.314733" cy="737.317398" r="3.749996" style="fill:rgb(0,127,0);stroke-width:1" /><circle cx="90.678670" cy="734.455079" r="3.749996" style="fill:rgb(0,127,0);stroke-width:1" /><circle cx="90.014778" cy="731.467545" r="3.749996" style="fill:rgb(0,127,0);stroke-width:1" /><circle cx="89.321181" cy="728.346370" r="3.749996" style="fill:rgb(0,127,0);stroke-width:1" /><circle cx="88.903494" cy="726.466723" r="3.749996" style="fill:rgb(0,127,0);stroke-width:1" /><circle cx="88.595867" cy="725.082412" r="3.749996" style="fill:rgb(0,127,0);stroke-width:1" /><circle cx="88.194117" cy="723.274514" r="3.749996" style="fill:rgb(0,127,0);stroke-width:1" /><circle cx="87.836578" cy="721.665613" r="3.749996" style="fill:rgb(0,127,0);stroke-width:1" /><circle cx="87.452687" cy="719.938137" r="3.749996" style="fill:rgb(0,127,0);stroke-width:1" /><circle cx="86.677015" cy="716.447599" r="3.749996" style="fill:rgb(0,127,0);stroke-width:1" /><circle cx="86.206108" cy="714.328498" r="3.749996" style="fill:rgb(0,127,0);stroke-width:1" /><circle cx="85.864641" cy="712.791994" r="3.749996" style="fill:rgb(0,127,0);stroke-width:1" /><circle cx="85.329294" cy="710.382834" r="3.749996" style="fill:rgb(0,127,0);stroke-width:1" /><circle cx="85.012928" cy="708.959274" r="3.749996" style="fill:rgb(0,127,0);stroke-width:1" /><circle cx="84.407173" cy="706.233323" r="3.749996" style="fill:rgb(0,127,0);stroke-width:1" /><circle cx="84.118947" cy="704.936273" r="3.749996" style="fill:rgb(0,127,0);stroke-width:1" /><circle cx="83.179437" cy="700.708486" r="3.749996" style="fill:rgb(0,127,0);stroke-width:1" /><circle cx="82.412258" cy="697.256148" r="3.749996" style="fill:rgb(0,127,0);stroke-width:1" /><circle cx="81.331015" cy="692.390531" r="3.749996" style="fill:rgb(0,127,0);stroke-width:1" /><circle cx="80.187455" cy="687.244579" r="3.749996" style="fill:rgb(0,127,0);stroke-width:1" /><circle cx="80.050215" cy="686.626911" r="3.749996" style="fill:rgb(0,127,0);stroke-width:1" /><circle cx="78.888886" cy="681.400985" r="3.749996" style="fill:rgb(0,127,0);stroke-width:1" /><circle cx="78.809112" cy="681.042016" r="3.749996" style="fill:rgb(0,127,0);stroke-width:1" /><circle cx="77.631690" cy="675.743602" r="3.749996" style="fill:rgb(0,127,0);stroke-width:1" /><circle cx="77.605918" cy="675.627664" r="3.749996" style="fill:rgb(0,127,0);stroke-width:1" /><circle cx="76.413944" cy="670.263715" r="3.749996" style="fill:rgb(0,127,0);stroke-width:1" /><circle cx="74.102238" cy="643.679380" r="3.749996" style="fill:rgb(0,127,0);stroke-width:1" /><circle cx="73.912740" cy="642.826527" r="3.749996" style="fill:rgb(0,127,0);stroke-width:1" /><circle cx="70.626117" cy="605.030581" r="3.749996" style="fill:rgb(0,127,0);stroke-width:1" /><circle cx="67.301005" cy="566.791713" r="3.749996" style="fill:rgb(0,127,0);stroke-width:1" /><circle cx="63.936688" cy="528.102078" r="3.749996" style="fill:rgb(0,127,0);stroke-width:1" /><circle cx="62.424123" cy="510.707550" r="3.749996" style="fill:rgb(0,127,0);stroke-width:1" /><circle cx="61.988130" cy="505.693808" r="3.749996" style="fill:rgb(0,127,0);stroke-width:1" /><circle cx="58.677077" cy="467.616566" r="3.749996" style="fill:rgb(0,127,0);stroke-width:1" /><circle cx="55.327736" cy="429.099128" r="3.749996" style="fill:rgb(0,127,0);stroke-width:1" /><circle cx="54.500766" cy="419.589065" r="3.749996" style="fill:rgb(0,127,0);stroke-width:1" /><circle cx="53.582020" cy="409.023464" r="3.749996" style="fill:rgb(0,127,0);stroke-width:1" /><circle cx="50.741538" cy="376.357801" r="3.749996" style="fill:rgb(0,127,0);stroke-width:1" /><circle cx="48.857868" cy="354.695544" r="3.749996" style="fill:rgb(0,127,0);stroke-width:1" /><circle cx="48.408598" cy="349.528983" r="3.749996" style="fill:rgb(0,127,0);stroke-width:1" /><circle cx="47.749959" cy="341.954827" r="3.749996" style="fill:rgb(0,127,0);stroke-width:1" /><circle cx="43.706395" cy="295.453593" r="3.749996" style="fill:rgb(0,127,0);stroke-width:1" /><circle cx="39.607018" cy="248.310953" r="3.749996" style="fill:rgb(0,127,0);stroke-width:1" /><circle cx="35.450734" cy="200.513631" r="3.749996" style="fill:rgb(0,127,0);stroke-width:1" /><circle cx="34.987919" cy="195.191458" r="3.749996" style="fill:rgb(0,127,0);stroke-width:1" /><circle cx="31.376839" cy="178.941563" r="3.749996" style="fill:rgb(0,127,0);stroke-width:1" /><circle cx="25.900148" cy="154.296488" r="3.749996" style="fill:rgb(0,127,0);stroke-width:1" /><circle cx="19.638576" cy="82.288340" r="3.749996" style="fill:rgb(0,127,0);stroke-width:1" /><circle cx="18.174000" cy="65.445766" r="3.749996" style="fill:rgb(0,127,0);stroke-width:1" /><circle cx="13.020895" cy="46.871781" r="3.749996" style="fill:rgb(0,127,0);stroke-width:1" /><circle cx="6.590210" cy="31.667277" r="3.749996" style="fill:rgb(0,127,0);stroke-width:1" /><circle cx="750.000000" cy="750.000000" r="3.749996" style="fill:rgb(0,127,0);stroke-width:1" /><path stroke-linejoin="round" stroke-linecap="round" stroke="rgb(255,255,255)" stroke-width="3.749996" fill="none" d="M 0.000000 750.000000 L 750.000000 750.000000 M 0.000000 750.000000 L 0.000000 0.000000 " />

</svg>