<svg xmlns="http://www.w3.org/2000/svg" version="1.1" width = "750" height = "750" viewBox = "0 0 750 750"  shape-rendering="crispEdges">
<path stroke-linejoin="round" stroke-linecap="round" stroke="rgb(255,255,0)" stroke-width="3.749996" fill="none" d="M 249.999985 750.000000 L 0.000000 0.000000 " />
<path stroke-linejoin="round" stroke-linecap="round" stroke="rgb(63,63,63)" stroke-width="3.749996" fill="none" d="M 0.000000 0.000000 L 750.000000 750.000000 M 249.999985 750.000000 L 99.999992 0.000000 " />
<path stroke-linejoin="round" stroke-linecap="round" stroke="rgb(191,191,191)" stroke-width="3.749996" fill="none" d="M 0.000000 500.000000 L 249.999985 750.000000 M 0.000000 0.000000 L 150.000015 750.000000 " />
<path stroke-linejoin="round" stroke-linecap="round" stroke="rgb(0,0,255)" stroke-width="1.874998" fill="none" d="M 0.000000 750.000000 L 750.000000 562.500000 " />
<path stroke-linejoin="round" stroke-linecap="round" stroke="rgb(255,0,0)" stroke-width="3.749996" fill="none" d="M 238.095230 690.476196 L 249.999985 750.000000 " />
<path stroke-linejoin="round" stroke-linecap="round" stroke="rgb(0,0,255)" stroke-width="1.874998" fill="none" d="M 0.000000 750.000000 L 750.000000 384.146332 " />
<path stroke-linejoin="round" stroke-linecap="round" stroke="rgb(255,0,0)" stroke-width="3.749996" fill="none" d="M 225.478745 640.010376 L 238.095230 690.476196 " />
<path stroke-linejoin="round" stroke-linecap="round" stroke="rgb(0,0,255)" stroke-width="1.874998" fill="none" d="M 0.000000 750.000000 L 750.000000 365.384583 " />
<path stroke-linejoin="round" stroke-linecap="round" stroke="rgb(255,0,0)" stroke-width="3.749996" fill="none" d="M 224.228836 635.010864 L 225.478745 640.010376 " />
<path stroke-linejoin="round" stroke-linecap="round" stroke="rgb(0,0,255)" stroke-width="1.874998" fill="none" d="M 0.000000 750.000000 L 750.000000 187.500000 " />
<path stroke-linejoin="round" stroke-linecap="round" stroke="rgb(255,0,0)" stroke-width="3.749996" fill="none" d="M 213.032532 590.225647 L 224.228836 635.010864 " />
<path stroke-linejoin="round" stroke-linecap="round" stroke="rgb(0,0,255)" stroke-width="1.874998" fill="none" d="M 0.000000 750.000000 L 731.250000 0.000000 " />
<path stroke-linejoin="round" stroke-linecap="round" stroke="rgb(255,0,0)" stroke-width="3.749996" fill="none" d="M 201.348328 543.488831 L 213.032532 590.225647 " />
<path stroke-linejoin="round" stroke-linecap="round" stroke="rgb(0,0,255)" stroke-width="1.874998" fill="none" d="M 0.000000 750.000000 L 570.000000 0.000000 " />
<path stroke-linejoin="round" stroke-linecap="round" stroke="rgb(255,0,0)" stroke-width="3.749996" fill="none" d="M 190.358292 499.528564 L 201.348328 543.488831 " />
<path stroke-linejoin="round" stroke-linecap="round" stroke="rgb(0,0,255)" stroke-width="1.874998" fill="none" d="M 0.000000 750.000000 L 487.499969 0.000000 " />
<path stroke-linejoin="round" stroke-linecap="round" stroke="rgb(255,0,0)" stroke-width="3.749996" fill="none" d="M 182.704971 468.915436 L 190.358292 499.528564 " />
<path stroke-linejoin="round" stroke-linecap="round" stroke="rgb(0,0,255)" stroke-width="1.874998" fill="none" d="M 0.000000 750.000000 L 462.500000 0.000000 " />
<path stroke-linejoin="round" stroke-linecap="round" stroke="rgb(255,0,0)" stroke-width="3.749996" fill="none" d="M 180.002213 458.104492 L 182.704971 468.915436 " />
<path stroke-linejoin="round" stroke-linecap="round" stroke="rgb(0,0,255)" stroke-width="1.874998" fill="none" d="M 0.000000 750.000000 L 385.714294 0.000000 " />
<path stroke-linejoin="round" stroke-linecap="round" stroke="rgb(255,0,0)" stroke-width="3.749996" fill="none" d="M 170.226913 419.003204 L 180.002213 458.104492 " />
<path stroke-linejoin="round" stroke-linecap="round" stroke="rgb(0,0,255)" stroke-width="1.874998" fill="none" d="M 0.000000 750.000000 L 328.124969 0.000000 " />
<path stroke-linejoin="round" stroke-linecap="round" stroke="rgb(255,0,0)" stroke-width="3.749996" fill="none" d="M 160.984818 382.034668 L 170.226913 419.003204 " />
<path stroke-linejoin="round" stroke-linecap="round" stroke="rgb(0,0,255)" stroke-width="1.874998" fill="none" d="M 0.000000 750.000000 L 300.000000 0.000000 " />
<path stroke-linejoin="round" stroke-linecap="round" stroke="rgb(255,0,0)" stroke-width="3.749996" fill="none" d="M 155.677628 360.805939 L 160.984818 382.034668 " />
<path stroke-linejoin="round" stroke-linecap="round" stroke="rgb(0,0,255)" stroke-width="1.874998" fill="none" d="M 0.000000 750.000000 L 283.333344 0.000000 " />
<path stroke-linejoin="round" stroke-linecap="round" stroke="rgb(255,0,0)" stroke-width="3.749996" fill="none" d="M 152.233444 347.029144 L 155.677628 360.805939 " />
<path stroke-linejoin="round" stroke-linecap="round" stroke="rgb(0,0,255)" stroke-width="1.874998" fill="none" d="M 0.000000 750.000000 L 247.500015 0.000000 " />
<path stroke-linejoin="round" stroke-linecap="round" stroke="rgb(255,0,0)" stroke-width="3.749996" fill="none" d="M 143.934708 313.834198 L 152.233444 347.029144 " />
<path stroke-linejoin="round" stroke-linecap="round" stroke="rgb(0,0,255)" stroke-width="1.874998" fill="none" d="M 0.000000 750.000000 L 231.818192 0.000000 " />
<path stroke-linejoin="round" stroke-linecap="round" stroke="rgb(255,0,0)" stroke-width="3.749996" fill="none" d="M 139.856720 297.522369 L 143.934708 313.834198 " />
<path stroke-linejoin="round" stroke-linecap="round" stroke="rgb(0,0,255)" stroke-width="1.874998" fill="none" d="M 0.000000 750.000000 L 218.181808 0.000000 " />
<path stroke-linejoin="round" stroke-linecap="round" stroke="rgb(255,0,0)" stroke-width="3.749996" fill="none" d="M 136.054382 282.313049 L 139.856705 297.522400 " />
<path stroke-linejoin="round" stroke-linecap="round" stroke="rgb(0,0,255)" stroke-width="1.874998" fill="none" d="M 0.000000 750.000000 L 206.250000 0.000000 " />
<path stroke-linejoin="round" stroke-linecap="round" stroke="rgb(255,0,0)" stroke-width="3.749996" fill="none" d="M 132.511292 268.140747 L 136.054382 282.313049 " />
<path stroke-linejoin="round" stroke-linecap="round" stroke="rgb(0,0,255)" stroke-width="1.874998" fill="none" d="M 0.000000 750.000000 L 193.750015 0.000000 " />
<path stroke-linejoin="round" stroke-linecap="round" stroke="rgb(255,0,0)" stroke-width="3.749996" fill="none" d="M 128.561615 252.342133 L 132.511276 268.140839 " />
<path stroke-linejoin="round" stroke-linecap="round" stroke="rgb(0,0,255)" stroke-width="1.874998" fill="none" d="M 0.000000 750.000000 L 184.615372 0.000000 " />
<path stroke-linejoin="round" stroke-linecap="round" stroke="rgb(255,0,0)" stroke-width="3.749996" fill="none" d="M 125.507515 240.125702 L 128.561615 252.342133 " />
<path stroke-linejoin="round" stroke-linecap="round" stroke="rgb(0,0,255)" stroke-width="1.874998" fill="none" d="M 0.000000 750.000000 L 173.076920 0.000000 " />
<path stroke-linejoin="round" stroke-linecap="round" stroke="rgb(255,0,0)" stroke-width="3.749996" fill="none" d="M 121.428520 223.809784 L 125.507515 240.125702 " />
<path stroke-linejoin="round" stroke-linecap="round" stroke="rgb(0,0,255)" stroke-width="1.874998" fill="none" d="M 0.000000 750.000000 L 155.357147 0.000000 " />
<path stroke-linejoin="round" stroke-linecap="round" stroke="rgb(255,0,0)" stroke-width="3.749996" fill="none" d="M 114.629768 196.614868 L 121.428497 223.809830 " />
<path stroke-linejoin="round" stroke-linecap="round" stroke="rgb(0,0,255)" stroke-width="1.874998" fill="none" d="M 0.000000 750.000000 L 149.999985 0.000000 " />
<path stroke-linejoin="round" stroke-linecap="round" stroke="rgb(255,0,0)" stroke-width="3.749996" fill="none" d="M 112.433800 187.830978 L 114.629768 196.614868 " />
<path stroke-linejoin="round" stroke-linecap="round" stroke="rgb(0,0,255)" stroke-width="1.874998" fill="none" d="M 0.000000 750.000000 L 140.000000 0.000000 " />
<path stroke-linejoin="round" stroke-linecap="round" stroke="rgb(255,0,0)" stroke-width="3.749996" fill="none" d="M 108.142418 170.665558 L 112.433800 187.830978 " />
<path stroke-linejoin="round" stroke-linecap="round" stroke="rgb(0,0,255)" stroke-width="1.874998" fill="none" d="M 0.000000 750.000000 L 135.937485 0.000000 " />
<path stroke-linejoin="round" stroke-linecap="round" stroke="rgb(255,0,0)" stroke-width="3.749996" fill="none" d="M 106.323257 163.388840 L 108.142418 170.665558 " />
<path stroke-linejoin="round" stroke-linecap="round" stroke="rgb(0,0,255)" stroke-width="1.874998" fill="none" d="M 0.000000 750.000000 L 126.562492 0.000000 " />
<path stroke-linejoin="round" stroke-linecap="round" stroke="rgb(255,0,0)" stroke-width="3.749996" fill="none" d="M 101.945580 145.878082 L 106.323257 163.388840 " />
<path stroke-linejoin="round" stroke-linecap="round" stroke="rgb(0,0,255)" stroke-width="1.874998" fill="none" d="M 0.000000 750.000000 L 114.705879 0.000000 " />
<path stroke-linejoin="round" stroke-linecap="round" stroke="rgb(255,0,0)" stroke-width="3.749996" fill="none" d="M 96.020111 122.176163 L 101.945580 145.878082 " />
<path stroke-linejoin="round" stroke-linecap="round" stroke="rgb(0,0,255)" stroke-width="1.874998" fill="none" d="M 0.000000 750.000000 L 104.166672 0.000000 " />
<path stroke-linejoin="round" stroke-linecap="round" stroke="rgb(255,0,0)" stroke-width="3.749996" fill="none" d="M 90.348602 99.490173 L 96.020111 122.176163 " />
<path stroke-linejoin="round" stroke-linecap="round" stroke="rgb(0,0,255)" stroke-width="1.874998" fill="none" d="M 0.000000 750.000000 L 102.631577 0.000000 " />
<path stroke-linejoin="round" stroke-linecap="round" stroke="rgb(255,0,0)" stroke-width="3.749996" fill="none" d="M 89.488129 96.048363 L 90.348602 99.490173 " />
<path stroke-linejoin="round" stroke-linecap="round" stroke="rgb(0,0,255)" stroke-width="1.874998" fill="none" d="M 0.000000 750.000000 L 101.249992 0.000000 " />
<path stroke-linejoin="round" stroke-linecap="round" stroke="rgb(255,0,0)" stroke-width="3.749996" fill="none" d="M 88.705879 92.919411 L 89.488129 96.048363 " />
<path stroke-linejoin="round" stroke-linecap="round" stroke="rgb(0,0,255)" stroke-width="1.874998" fill="none" d="M 0.000000 750.000000 L 93.750000 0.000000 " />
<path stroke-linejoin="round" stroke-linecap="round" stroke="rgb(255,0,0)" stroke-width="3.749996" fill="none" d="M 83.223473 84.212242 L 88.705879 92.919479 " />
<path stroke-linejoin="round" stroke-linecap="round" stroke="rgb(0,0,255)" stroke-width="1.874998" fill="none" d="M 0.000000 750.000000 L 92.857140 0.000000 " />
<path stroke-linejoin="round" stroke-linecap="round" stroke="rgb(255,0,0)" stroke-width="3.749996" fill="none" d="M 82.603165 82.820602 L 83.223473 84.212173 " />
<path stroke-linejoin="round" stroke-linecap="round" stroke="rgb(0,0,255)" stroke-width="1.874998" fill="none" d="M 0.000000 750.000000 L 85.714279 0.000000 " />
<path stroke-linejoin="round" stroke-linecap="round" stroke="rgb(255,0,0)" stroke-width="3.749996" fill="none" d="M 76.917526 76.971710 L 82.603165 82.820602 " />
<path stroke-linejoin="round" stroke-linecap="round" stroke="rgb(0,0,255)" stroke-width="1.874998" fill="none" d="M 0.000000 750.000000 L 85.396034 0.000000 " />
<path stroke-linejoin="round" stroke-linecap="round" stroke="rgb(255,0,0)" stroke-width="3.749996" fill="none" d="M 76.662537 76.702950 L 76.917526 76.971710 " />
<path stroke-linejoin="round" stroke-linecap="round" stroke="rgb(0,0,255)" stroke-width="1.874998" fill="none" d="M 0.000000 750.000000 L 81.280792 0.000000 " />
<path stroke-linejoin="round" stroke-linecap="round" stroke="rgb(255,0,0)" stroke-width="3.749996" fill="none" d="M 73.330368 73.360672 L 76.662537 76.702950 " />
<path stroke-linejoin="round" stroke-linecap="round" stroke="rgb(0,0,255)" stroke-width="1.874998" fill="none" d="M 0.000000 750.000000 L 77.205887 0.000000 " />
<path stroke-linejoin="round" stroke-linecap="round" stroke="rgb(255,0,0)" stroke-width="3.749996" fill="none" d="M 69.997879 70.020607 L 73.330368 73.360672 " />
<path stroke-linejoin="round" stroke-linecap="round" stroke="rgb(0,0,255)" stroke-width="1.874998" fill="none" d="M 0.000000 750.000000 L 73.170731 0.000000 " />
<path stroke-linejoin="round" stroke-linecap="round" stroke="rgb(255,0,0)" stroke-width="3.749996" fill="none" d="M 66.665146 66.682220 L 69.997879 70.020607 " />
<path stroke-linejoin="round" stroke-linecap="round" stroke="rgb(0,0,255)" stroke-width="1.874998" fill="none" d="M 0.000000 750.000000 L 69.174751 0.000000 " />
<path stroke-linejoin="round" stroke-linecap="round" stroke="rgb(255,0,0)" stroke-width="3.749996" fill="none" d="M 63.332253 63.345081 L 66.665146 66.682220 " />
<path stroke-linejoin="round" stroke-linecap="round" stroke="rgb(0,0,255)" stroke-width="1.874998" fill="none" d="M 0.000000 750.000000 L 65.217400 0.000000 " />
<path stroke-linejoin="round" stroke-linecap="round" stroke="rgb(255,0,0)" stroke-width="3.749996" fill="none" d="M 59.999229 60.008816 L 63.332253 63.345081 " />
<path stroke-linejoin="round" stroke-linecap="round" stroke="rgb(0,0,255)" stroke-width="1.874998" fill="none" d="M 0.000000 750.000000 L 61.298088 0.000000 " />
<path stroke-linejoin="round" stroke-linecap="round" stroke="rgb(255,0,0)" stroke-width="3.749996" fill="none" d="M 56.666115 56.673355 L 59.999229 60.008816 " />
<path stroke-linejoin="round" stroke-linecap="round" stroke="rgb(0,0,255)" stroke-width="1.874998" fill="none" d="M 0.000000 750.000000 L 57.416260 0.000000 " />
<path stroke-linejoin="round" stroke-linecap="round" stroke="rgb(255,0,0)" stroke-width="3.749996" fill="none" d="M 53.332954 53.338295 L 56.666115 56.673355 " />
<path stroke-linejoin="round" stroke-linecap="round" stroke="rgb(0,0,255)" stroke-width="1.874998" fill="none" d="M 0.000000 750.000000 L 53.571426 0.000000 " />
<path stroke-linejoin="round" stroke-linecap="round" stroke="rgb(255,0,0)" stroke-width="3.749996" fill="none" d="M 49.999729 50.003773 L 53.332954 53.338295 " />
<path stroke-linejoin="round" stroke-linecap="round" stroke="rgb(0,0,255)" stroke-width="1.874998" fill="none" d="M 0.000000 750.000000 L 49.763023 0.000000 " />
<path stroke-linejoin="round" stroke-linecap="round" stroke="rgb(255,0,0)" stroke-width="3.749996" fill="none" d="M 46.666481 46.669476 L 49.999729 50.003773 " />
<path stroke-linejoin="round" stroke-linecap="round" stroke="rgb(0,0,255)" stroke-width="1.874998" fill="none" d="M 0.000000 750.000000 L 49.295784 0.000000 " />
<path stroke-linejoin="round" stroke-linecap="round" stroke="rgb(255,0,0)" stroke-width="3.749996" fill="none" d="M 46.255363 46.257668 L 46.666481 46.669476 " />
<path stroke-linejoin="round" stroke-linecap="round" stroke="rgb(0,0,255)" stroke-width="1.874998" fill="none" d="M 0.000000 750.000000 L 45.560741 0.000000 " />
<path stroke-linejoin="round" stroke-linecap="round" stroke="rgb(255,0,0)" stroke-width="3.749996" fill="none" d="M 42.951443 42.953186 L 46.255363 46.257736 " />
<path stroke-linejoin="round" stroke-linecap="round" stroke="rgb(0,0,255)" stroke-width="1.874998" fill="none" d="M 0.000000 750.000000 L 41.860477 0.000000 " />
<path stroke-linejoin="round" stroke-linecap="round" stroke="rgb(255,0,0)" stroke-width="3.749996" fill="none" d="M 39.647518 39.648838 L 42.951443 42.953186 " />
<path stroke-linejoin="round" stroke-linecap="round" stroke="rgb(0,0,255)" stroke-width="1.874998" fill="none" d="M 0.000000 750.000000 L 38.194431 0.000000 " />
<path stroke-linejoin="round" stroke-linecap="round" stroke="rgb(255,0,0)" stroke-width="3.749996" fill="none" d="M 36.343575 36.344582 L 39.647499 39.648884 " />
<path stroke-linejoin="round" stroke-linecap="round" stroke="rgb(0,0,255)" stroke-width="1.874998" fill="none" d="M 0.000000 750.000000 L 34.562206 0.000000 " />
<path stroke-linejoin="round" stroke-linecap="round" stroke="rgb(255,0,0)" stroke-width="3.749996" fill="none" d="M 33.039608 33.040344 L 36.343575 36.344582 " />
<path stroke-linejoin="round" stroke-linecap="round" stroke="rgb(0,0,255)" stroke-width="1.874998" fill="none" d="M 0.000000 750.000000 L 30.963308 0.000000 " />
<path stroke-linejoin="round" stroke-linecap="round" stroke="rgb(255,0,0)" stroke-width="3.749996" fill="none" d="M 29.735662 29.736221 L 33.039608 33.040413 " />
<path stroke-linejoin="round" stroke-linecap="round" stroke="rgb(0,0,255)" stroke-width="1.874998" fill="none" d="M 0.000000 750.000000 L 30.681810 0.000000 " />
<path stroke-linejoin="round" stroke-linecap="round" stroke="rgb(255,0,0)" stroke-width="3.749996" fill="none" d="M 29.475958 29.476337 L 29.735662 29.736221 " />
<path stroke-linejoin="round" stroke-linecap="round" stroke="rgb(0,0,255)" stroke-width="1.874998" fill="none" d="M 0.000000 750.000000 L 27.149319 0.000000 " />
<path stroke-linejoin="round" stroke-linecap="round" stroke="rgb(255,0,0)" stroke-width="3.749996" fill="none" d="M 26.200869 26.201136 L 29.475958 29.476337 " />
<path stroke-linejoin="round" stroke-linecap="round" stroke="rgb(0,0,255)" stroke-width="1.874998" fill="none" d="M 0.000000 750.000000 L 23.648657 0.000000 " />
<path stroke-linejoin="round" stroke-linecap="round" stroke="rgb(255,0,0)" stroke-width="3.749996" fill="none" d="M 22.925756 22.926025 L 26.200869 26.201136 " />
<path stroke-linejoin="round" stroke-linecap="round" stroke="rgb(0,0,255)" stroke-width="1.874998" fill="none" d="M 0.000000 750.000000 L 20.179377 0.000000 " />
<path stroke-linejoin="round" stroke-linecap="round" stroke="rgb(255,0,0)" stroke-width="3.749996" fill="none" d="M 19.650646 19.650824 L 22.925756 22.926025 " />
<path stroke-linejoin="round" stroke-linecap="round" stroke="rgb(0,0,255)" stroke-width="1.874998" fill="none" d="M 0.000000 750.000000 L 16.741076 0.000000 " />
<path stroke-linejoin="round" stroke-linecap="round" stroke="rgb(255,0,0)" stroke-width="3.749996" fill="none" d="M 16.375534 16.375668 L 19.650646 19.650757 " />
<path stroke-linejoin="round" stroke-linecap="round" stroke="rgb(0,0,255)" stroke-width="1.874998" fill="none" d="M 0.000000 750.000000 L 13.333328 0.000000 " />
<path stroke-linejoin="round" stroke-linecap="round" stroke="rgb(255,0,0)" stroke-width="3.749996" fill="none" d="M 13.100445 13.100513 L 16.375534 16.375668 " />
<path stroke-linejoin="round" stroke-linecap="round" stroke="rgb(0,0,255)" stroke-width="1.874998" fill="none" d="M 0.000000 750.000000 L 13.215870 0.000000 " />
<path stroke-linejoin="round" stroke-linecap="round" stroke="rgb(255,0,0)" stroke-width="3.749996" fill="none" d="M 12.987010 12.987078 L 13.100445 13.100513 " />
<path stroke-linejoin="round" stroke-linecap="round" stroke="rgb(0,0,255)" stroke-width="1.874998" fill="none" d="M 0.000000 750.000000 L 13.100445 0.000000 " />
<path stroke-linejoin="round" stroke-linecap="round" stroke="rgb(255,0,0)" stroke-width="3.749996" fill="none" d="M 12.875542 12.875609 L 12.987010 12.987010 " />
<path stroke-linejoin="round" stroke-linecap="round" stroke="rgb(0,0,255)" stroke-width="1.874998" fill="none" d="M 0.000000 750.000000 L 12.987010 0.000000 " />
<path stroke-linejoin="round" stroke-linecap="round" stroke="rgb(255,0,0)" stroke-width="3.749996" fill="none" d="M 12.765951 12.766064 L 12.875542 12.875609 " />
<path stroke-linejoin="round" stroke-linecap="round" stroke="rgb(0,0,255)" stroke-width="1.874998" fill="none" d="M 0.000000 750.000000 L 9.698287 0.000000 " />
<path stroke-linejoin="round" stroke-linecap="round" stroke="rgb(255,0,0)" stroke-width="3.749996" fill="none" d="M 9.574458 9.574593 L 12.765951 12.766064 " />
<path stroke-linejoin="round" stroke-linecap="round" stroke="rgb(0,0,255)" stroke-width="1.874998" fill="none" d="M 0.000000 750.000000 L 6.437771 0.000000 " />
<path stroke-linejoin="round" stroke-linecap="round" stroke="rgb(255,0,0)" stroke-width="3.749996" fill="none" d="M 6.382987 6.383188 L 9.574458 9.574659 " />
<path stroke-linejoin="round" stroke-linecap="round" stroke="rgb(0,0,255)" stroke-width="1.874998" fill="none" d="M 0.000000 750.000000 L 3.205128 0.000000 " />
<path stroke-linejoin="round" stroke-linecap="round" stroke="rgb(255,0,0)" stroke-width="3.749996" fill="none" d="M 3.191494 3.191650 L 6.382987 6.383188 " />
<path stroke-linejoin="round" stroke-linecap="round" stroke="rgb(0,0,255)" stroke-width="1.874998" fill="none" d="M 0.000000 750.000000 L 0.000000 0.000000 " />
<path stroke-linejoin="round" stroke-linecap="round" stroke="rgb(255,0,0)" stroke-width="3.749996" fill="none" d="M 0.000000 0.000000 L 3.191494 3.191650 " />
<circle cx="238.095224" cy="690.476194" r="3.749996" style="fill:rgb(0,127,0);stroke-width:1" /><circle cx="225.478750" cy="640.010364" r="3.749996" style="fill:rgb(0,127,0);stroke-width:1" /><circle cx="224.228840" cy="635.010839" r="3.749996" style="fill:rgb(0,127,0);stroke-width:1" /><circle cx="213.032518" cy="590.225615" r="3.749996" style="fill:rgb(0,127,0);stroke-width:1" /><circle cx="201.348335" cy="543.488871" r="3.749996" style="fill:rgb(0,127,0);stroke-width:1" /><circle cx="190.358274" cy="499.528583" r="3.750002" style="fill:rgb(0,127,0);stroke-width:1" /><circle cx="182.704970" cy="468.915436" r="3.749996" style="fill:rgb(0,127,0);stroke-width:1" /><circle cx="180.002220" cy="458.104491" r="3.749996" style="fill:rgb(0,127,0);stroke-width:1" /><circle cx="170.226909" cy="419.003217" r="3.749996" style="fill:rgb(0,127,0);stroke-width:1" /><circle cx="160.984822" cy="382.034689" r="3.749996" style="fill:rgb(0,127,0);stroke-width:1" /><circle cx="155.677624" cy="360.805929" r="3.749996" style="fill:rgb(0,127,0);stroke-width:1" /><circle cx="152.233444" cy="347.029150" r="3.749996" style="fill:rgb(0,127,0);stroke-width:1" /><circle cx="143.934712" cy="313.834218" r="3.749996" style="fill:rgb(0,127,0);stroke-width:1" /><circle cx="139.856726" cy="297.522364" r="3.749996" style="fill:rgb(0,127,0);stroke-width:1" /><circle cx="136.054382" cy="282.313049" r="3.749996" style="fill:rgb(0,127,0);stroke-width:1" /><circle cx="132.511295" cy="268.140759" r="3.749996" style="fill:rgb(0,127,0);stroke-width:1" /><circle cx="128.561608" cy="252.342135" r="3.749996" style="fill:rgb(0,127,0);stroke-width:1" /><circle cx="125.507511" cy="240.125712" r="3.749996" style="fill:rgb(0,127,0);stroke-width:1" /><circle cx="121.428519" cy="223.809779" r="3.749996" style="fill:rgb(0,127,0);stroke-width:1" /><circle cx="114.629768" cy="196.614861" r="3.749996" style="fill:rgb(0,127,0);stroke-width:1" /><circle cx="112.433799" cy="187.830985" r="3.749996" style="fill:rgb(0,127,0);stroke-width:1" /><circle cx="108.142421" cy="170.665562" r="3.749996" style="fill:rgb(0,127,0);stroke-width:1" /><circle cx="106.323257" cy="163.388841" r="3.749996" style="fill:rgb(0,127,0);stroke-width:1" /><circle cx="101.945579" cy="145.878084" r="3.749996" style="fill:rgb(0,127,0);stroke-width:1" /><circle cx="96.020110" cy="122.176163" r="3.749996" style="fill:rgb(0,127,0);stroke-width:1" /><circle cx="90.348601" cy="99.490173" r="3.749996" style="fill:rgb(0,127,0);stroke-width:1" /><circle cx="89.488126" cy="96.048363" r="3.749996" style="fill:rgb(0,127,0);stroke-width:1" /><circle cx="88.705882" cy="92.919409" r="3.749996" style="fill:rgb(0,127,0);stroke-width:1" /><circle cx="83.223470" cy="84.212244" r="3.749996" style="fill:rgb(0,127,0);stroke-width:1" /><circle cx="82.603164" cy="82.820602" r="3.749996" style="fill:rgb(0,127,0);stroke-width:1" /><circle cx="76.917529" cy="76.971710" r="3.749996" style="fill:rgb(0,127,0);stroke-width:1" /><circle cx="76.662540" cy="76.702952" r="3.749996" style="fill:rgb(0,127,0);stroke-width:1" /><circle cx="73.330365" cy="73.360674" r="3.749996" style="fill:rgb(0,127,0);stroke-width:1" /><circle cx="69.997877" cy="70.020609" r="3.749996" style="fill:rgb(0,127,0);stroke-width:1" /><circle cx="66.665143" cy="66.682220" r="3.749996" style="fill:rgb(0,127,0);stroke-width:1" /><circle cx="63.332252" cy="63.345082" r="3.749996" style="fill:rgb(0,127,0);stroke-width:1" /><circle cx="59.999228" cy="60.008816" r="3.749996" style="fill:rgb(0,127,0);stroke-width:1" /><circle cx="56.666113" cy="56.673355" r="3.749996" style="fill:rgb(0,127,0);stroke-width:1" /><circle cx="53.332955" cy="53.338297" r="3.749996" style="fill:rgb(0,127,0);stroke-width:1" /><circle cx="49.999729" cy="50.003774" r="3.749996" style="fill:rgb(0,127,0);stroke-width:1" /><circle cx="46.666481" cy="46.669476" r="3.749996" style="fill:rgb(0,127,0);stroke-width:1" /><circle cx="46.255365" cy="46.257667" r="3.749996" style="fill:rgb(0,127,0);stroke-width:1" /><circle cx="42.951442" cy="42.953186" r="3.749996" style="fill:rgb(0,127,0);stroke-width:1" /><circle cx="39.647520" cy="39.648838" r="3.749996" style="fill:rgb(0,127,0);stroke-width:1" /><circle cx="36.343575" cy="36.344580" r="3.749996" style="fill:rgb(0,127,0);stroke-width:1" /><circle cx="33.039607" cy="33.040345" r="3.749996" style="fill:rgb(0,127,0);stroke-width:1" /><circle cx="29.735662" cy="29.736221" r="3.749996" style="fill:rgb(0,127,0);stroke-width:1" /><circle cx="29.475957" cy="29.476337" r="3.749996" style="fill:rgb(0,127,0);stroke-width:1" /><circle cx="26.200868" cy="26.201136" r="3.749996" style="fill:rgb(0,127,0);stroke-width:1" /><circle cx="22.925757" cy="22.926025" r="3.749996" style="fill:rgb(0,127,0);stroke-width:1" /><circle cx="19.650646" cy="19.650824" r="3.749996" style="fill:rgb(0,127,0);stroke-width:1" /><circle cx="16.375534" cy="16.375668" r="3.749996" style="fill:rgb(0,127,0);stroke-width:1" /><circle cx="13.100445" cy="13.100512" r="3.749996" style="fill:rgb(0,127,0);stroke-width:1" /><circle cx="12.987010" cy="12.987077" r="3.749996" style="fill:rgb(0,127,0);stroke-width:1" /><circle cx="12.875542" cy="12.875609" r="3.749996" style="fill:rgb(0,127,0);stroke-width:1" /><circle cx="12.765951" cy="12.766063" r="3.749996" style="fill:rgb(0,127,0);stroke-width:1" /><circle cx="9.574458" cy="9.574592" r="3.749996" style="fill:rgb(0,127,0);stroke-width:1" /><circle cx="6.382987" cy="6.383188" r="3.749996" style="fill:rgb(0,127,0);stroke-width:1" /><circle cx="3.191471" cy="3.191650" r="3.750008" style="fill:rgb(0,127,0);stroke-width:1" /><circle cx="750.000000" cy="750.000000" r="3.749996" style="fill:rgb(0,127,0);stroke-width:1" /><path stroke-linejoin="round" stroke-linecap="round" stroke="rgb(255,255,255)" stroke-width="3.749996" fill="none" d="M 0.000000 750.000000 L 750.000000 750.000000 M 0.000000 750.000000 L 0.000000 0.000000 " />

</svg>