<svg xmlns="http://www.w3.org/2000/svg" version="1.1" width = "750" height = "750" viewBox = "0 0 750 750"  shape-rendering="crispEdges">
<path stroke-linejoin="round" stroke-linecap="round" stroke="rgb(255,255,0)" stroke-width="3.749996" fill="none" d="M 124.999992 750.000000 L 0.000000 0.000000 " />
<path stroke-linejoin="round" stroke-linecap="round" stroke="rgb(63,63,63)" stroke-width="3.749996" fill="none" d="M 0.000000 0.000000 L 750.000000 750.000000 M 124.999992 750.000000 L 56.818172 0.000000 " />
<path stroke-linejoin="round" stroke-linecap="round" stroke="rgb(191,191,191)" stroke-width="3.749996" fill="none" d="M 0.000000 625.000000 L 124.999992 750.000000 M 0.000000 0.000000 L 68.181824 750.000000 " />
<path stroke-linejoin="round" stroke-linecap="round" stroke="rgb(0,0,255)" stroke-width="1.874998" fill="none" d="M 0.000000 750.000000 L 750.000000 562.500000 " />
<path stroke-linejoin="round" stroke-linecap="round" stroke="rgb(255,0,0)" stroke-width="3.749996" fill="none" d="M 122.222229 719.444458 L 124.999992 750.000000 " />
<path stroke-linejoin="round" stroke-linecap="round" stroke="rgb(0,0,255)" stroke-width="1.874998" fill="none" d="M 0.000000 750.000000 L 750.000000 365.384583 " />
<path stroke-linejoin="round" stroke-linecap="round" stroke="rgb(255,0,0)" stroke-width="3.749996" fill="none" d="M 119.432083 688.752808 L 122.222229 719.444458 " />
<path stroke-linejoin="round" stroke-linecap="round" stroke="rgb(0,0,255)" stroke-width="1.874998" fill="none" d="M 0.000000 750.000000 L 750.000000 157.894714 " />
<path stroke-linejoin="round" stroke-linecap="round" stroke="rgb(255,0,0)" stroke-width="3.749996" fill="none" d="M 116.629463 657.924072 L 119.432083 688.752808 " />
<path stroke-linejoin="round" stroke-linecap="round" stroke="rgb(0,0,255)" stroke-width="1.874998" fill="none" d="M 0.000000 750.000000 L 693.750000 0.000000 " />
<path stroke-linejoin="round" stroke-linecap="round" stroke="rgb(255,0,0)" stroke-width="3.749996" fill="none" d="M 113.814308 626.957520 L 116.629463 657.924072 " />
<path stroke-linejoin="round" stroke-linecap="round" stroke="rgb(0,0,255)" stroke-width="1.874998" fill="none" d="M 0.000000 750.000000 L 540.000000 0.000000 " />
<path stroke-linejoin="round" stroke-linecap="round" stroke="rgb(255,0,0)" stroke-width="3.749996" fill="none" d="M 110.986526 595.851990 L 113.814308 626.957520 " />
<path stroke-linejoin="round" stroke-linecap="round" stroke="rgb(0,0,255)" stroke-width="1.874998" fill="none" d="M 0.000000 750.000000 L 437.500000 0.000000 " />
<path stroke-linejoin="round" stroke-linecap="round" stroke="rgb(255,0,0)" stroke-width="3.749996" fill="none" d="M 108.146042 564.606812 L 110.986526 595.852051 " />
<path stroke-linejoin="round" stroke-linecap="round" stroke="rgb(0,0,255)" stroke-width="1.874998" fill="none" d="M 0.000000 750.000000 L 385.714294 0.000000 " />
<path stroke-linejoin="round" stroke-linecap="round" stroke="rgb(255,0,0)" stroke-width="3.749996" fill="none" d="M 106.223145 543.455017 L 108.146042 564.606812 " />
<path stroke-linejoin="round" stroke-linecap="round" stroke="rgb(0,0,255)" stroke-width="1.874998" fill="none" d="M 0.000000 750.000000 L 328.124969 0.000000 " />
<path stroke-linejoin="round" stroke-linecap="round" stroke="rgb(255,0,0)" stroke-width="3.749996" fill="none" d="M 103.494576 513.440918 L 106.223145 543.455017 " />
<path stroke-linejoin="round" stroke-linecap="round" stroke="rgb(0,0,255)" stroke-width="1.874998" fill="none" d="M 0.000000 750.000000 L 283.333344 0.000000 " />
<path stroke-linejoin="round" stroke-linecap="round" stroke="rgb(255,0,0)" stroke-width="3.749996" fill="none" d="M 100.754272 483.297485 L 103.494576 513.440918 " />
<path stroke-linejoin="round" stroke-linecap="round" stroke="rgb(0,0,255)" stroke-width="1.874998" fill="none" d="M 0.000000 750.000000 L 247.500015 0.000000 " />
<path stroke-linejoin="round" stroke-linecap="round" stroke="rgb(255,0,0)" stroke-width="3.749996" fill="none" d="M 98.002129 453.023804 L 100.754272 483.297485 " />
<path stroke-linejoin="round" stroke-linecap="round" stroke="rgb(0,0,255)" stroke-width="1.874998" fill="none" d="M 0.000000 750.000000 L 231.818192 0.000000 " />
<path stroke-linejoin="round" stroke-linecap="round" stroke="rgb(255,0,0)" stroke-width="3.749996" fill="none" d="M 96.590881 437.500122 L 98.002129 453.023804 " />
<path stroke-linejoin="round" stroke-linecap="round" stroke="rgb(0,0,255)" stroke-width="1.874998" fill="none" d="M 0.000000 750.000000 L 218.181808 0.000000 " />
<path stroke-linejoin="round" stroke-linecap="round" stroke="rgb(255,0,0)" stroke-width="3.749996" fill="none" d="M 95.238068 422.619171 L 96.590858 437.500122 " />
<path stroke-linejoin="round" stroke-linecap="round" stroke="rgb(0,0,255)" stroke-width="1.874998" fill="none" d="M 0.000000 750.000000 L 193.750015 0.000000 " />
<path stroke-linejoin="round" stroke-linecap="round" stroke="rgb(255,0,0)" stroke-width="3.749996" fill="none" d="M 92.462006 392.082581 L 95.238068 422.619171 " />
<path stroke-linejoin="round" stroke-linecap="round" stroke="rgb(0,0,255)" stroke-width="1.874998" fill="none" d="M 0.000000 750.000000 L 184.615372 0.000000 " />
<path stroke-linejoin="round" stroke-linecap="round" stroke="rgb(255,0,0)" stroke-width="3.749996" fill="none" d="M 91.286278 379.149506 L 92.462006 392.082581 " />
<path stroke-linejoin="round" stroke-linecap="round" stroke="rgb(0,0,255)" stroke-width="1.874998" fill="none" d="M 0.000000 750.000000 L 166.071426 0.000000 " />
<path stroke-linejoin="round" stroke-linecap="round" stroke="rgb(255,0,0)" stroke-width="3.749996" fill="none" d="M 88.617439 349.792206 L 91.286278 379.149506 " />
<path stroke-linejoin="round" stroke-linecap="round" stroke="rgb(0,0,255)" stroke-width="1.874998" fill="none" d="M 0.000000 750.000000 L 160.000000 0.000000 " />
<path stroke-linejoin="round" stroke-linecap="round" stroke="rgb(255,0,0)" stroke-width="3.749996" fill="none" d="M 87.649384 339.143524 L 88.617439 349.792175 " />
<path stroke-linejoin="round" stroke-linecap="round" stroke="rgb(0,0,255)" stroke-width="1.874998" fill="none" d="M 0.000000 750.000000 L 149.999985 0.000000 " />
<path stroke-linejoin="round" stroke-linecap="round" stroke="rgb(255,0,0)" stroke-width="3.749996" fill="none" d="M 85.937485 320.312622 L 87.649384 339.143524 " />
<path stroke-linejoin="round" stroke-linecap="round" stroke="rgb(0,0,255)" stroke-width="1.874998" fill="none" d="M 0.000000 750.000000 L 145.312515 0.000000 " />
<path stroke-linejoin="round" stroke-linecap="round" stroke="rgb(255,0,0)" stroke-width="3.749996" fill="none" d="M 85.079826 310.878326 L 85.937485 320.312622 " />
<path stroke-linejoin="round" stroke-linecap="round" stroke="rgb(0,0,255)" stroke-width="1.874998" fill="none" d="M 0.000000 750.000000 L 135.937485 0.000000 " />
<path stroke-linejoin="round" stroke-linecap="round" stroke="rgb(255,0,0)" stroke-width="3.749996" fill="none" d="M 83.246315 290.709961 L 85.079826 310.878296 " />
<path stroke-linejoin="round" stroke-linecap="round" stroke="rgb(0,0,255)" stroke-width="1.874998" fill="none" d="M 0.000000 750.000000 L 132.352936 0.000000 " />
<path stroke-linejoin="round" stroke-linecap="round" stroke="rgb(255,0,0)" stroke-width="3.749996" fill="none" d="M 82.499969 282.500183 L 83.246315 290.710052 " />
<path stroke-linejoin="round" stroke-linecap="round" stroke="rgb(0,0,255)" stroke-width="1.874998" fill="none" d="M 0.000000 750.000000 L 123.529404 0.000000 " />
<path stroke-linejoin="round" stroke-linecap="round" stroke="rgb(255,0,0)" stroke-width="3.749996" fill="none" d="M 80.543900 260.983398 L 82.499969 282.500183 " />
<path stroke-linejoin="round" stroke-linecap="round" stroke="rgb(0,0,255)" stroke-width="1.874998" fill="none" d="M 0.000000 750.000000 L 112.500008 0.000000 " />
<path stroke-linejoin="round" stroke-linecap="round" stroke="rgb(255,0,0)" stroke-width="3.749996" fill="none" d="M 77.830170 231.132248 L 80.543900 260.983398 " />
<path stroke-linejoin="round" stroke-linecap="round" stroke="rgb(0,0,255)" stroke-width="1.874998" fill="none" d="M 0.000000 750.000000 L 110.526321 0.000000 " />
<path stroke-linejoin="round" stroke-linecap="round" stroke="rgb(255,0,0)" stroke-width="3.749996" fill="none" d="M 77.309219 225.401764 L 77.830170 231.132248 " />
<path stroke-linejoin="round" stroke-linecap="round" stroke="rgb(0,0,255)" stroke-width="1.874998" fill="none" d="M 0.000000 750.000000 L 101.249992 0.000000 " />
<path stroke-linejoin="round" stroke-linecap="round" stroke="rgb(255,0,0)" stroke-width="3.749996" fill="none" d="M 74.698181 196.680176 L 77.309219 225.401718 " />
<path stroke-linejoin="round" stroke-linecap="round" stroke="rgb(0,0,255)" stroke-width="1.874998" fill="none" d="M 0.000000 750.000000 L 99.999992 0.000000 " />
<path stroke-linejoin="round" stroke-linecap="round" stroke="rgb(255,0,0)" stroke-width="3.749996" fill="none" d="M 74.324303 192.567719 L 74.698181 196.680176 " />
<path stroke-linejoin="round" stroke-linecap="round" stroke="rgb(0,0,255)" stroke-width="1.874998" fill="none" d="M 0.000000 750.000000 L 92.857140 0.000000 " />
<path stroke-linejoin="round" stroke-linecap="round" stroke="rgb(255,0,0)" stroke-width="3.749996" fill="none" d="M 72.076614 167.842804 L 74.324303 192.567719 " />
<path stroke-linejoin="round" stroke-linecap="round" stroke="rgb(0,0,255)" stroke-width="1.874998" fill="none" d="M 0.000000 750.000000 L 85.227280 0.000000 " />
<path stroke-linejoin="round" stroke-linecap="round" stroke="rgb(255,0,0)" stroke-width="3.749996" fill="none" d="M 69.444450 138.888901 L 72.076614 167.842804 " />
<path stroke-linejoin="round" stroke-linecap="round" stroke="rgb(0,0,255)" stroke-width="1.874998" fill="none" d="M 0.000000 750.000000 L 84.782616 0.000000 " />
<path stroke-linejoin="round" stroke-linecap="round" stroke="rgb(255,0,0)" stroke-width="3.749996" fill="none" d="M 69.282959 137.112305 L 69.444450 138.888824 " />
<path stroke-linejoin="round" stroke-linecap="round" stroke="rgb(0,0,255)" stroke-width="1.874998" fill="none" d="M 0.000000 750.000000 L 83.737854 0.000000 " />
<path stroke-linejoin="round" stroke-linecap="round" stroke="rgb(255,0,0)" stroke-width="3.749996" fill="none" d="M 68.514954 136.344299 L 69.282959 137.112305 " />
<path stroke-linejoin="round" stroke-linecap="round" stroke="rgb(0,0,255)" stroke-width="1.874998" fill="none" d="M 0.000000 750.000000 L 79.710159 0.000000 " />
<path stroke-linejoin="round" stroke-linecap="round" stroke="rgb(255,0,0)" stroke-width="3.749996" fill="none" d="M 65.536041 133.365402 L 68.514954 136.344299 " />
<path stroke-linejoin="round" stroke-linecap="round" stroke="rgb(0,0,255)" stroke-width="1.874998" fill="none" d="M 0.000000 750.000000 L 78.947380 0.000000 " />
<path stroke-linejoin="round" stroke-linecap="round" stroke="rgb(255,0,0)" stroke-width="3.749996" fill="none" d="M 64.968620 132.798019 L 65.536041 133.365402 " />
<path stroke-linejoin="round" stroke-linecap="round" stroke="rgb(0,0,255)" stroke-width="1.874998" fill="none" d="M 0.000000 750.000000 L 74.999992 0.000000 " />
<path stroke-linejoin="round" stroke-linecap="round" stroke="rgb(255,0,0)" stroke-width="3.749996" fill="none" d="M 62.015511 129.844910 L 64.968620 132.798019 " />
<path stroke-linejoin="round" stroke-linecap="round" stroke="rgb(0,0,255)" stroke-width="1.874998" fill="none" d="M 0.000000 750.000000 L 71.090050 0.000000 " />
<path stroke-linejoin="round" stroke-linecap="round" stroke="rgb(255,0,0)" stroke-width="3.749996" fill="none" d="M 59.062401 126.891731 L 62.015511 129.844910 " />
<path stroke-linejoin="round" stroke-linecap="round" stroke="rgb(0,0,255)" stroke-width="1.874998" fill="none" d="M 0.000000 750.000000 L 67.216988 0.000000 " />
<path stroke-linejoin="round" stroke-linecap="round" stroke="rgb(255,0,0)" stroke-width="3.749996" fill="none" d="M 56.109264 123.938622 L 59.062401 126.891731 " />
<path stroke-linejoin="round" stroke-linecap="round" stroke="rgb(0,0,255)" stroke-width="1.874998" fill="none" d="M 0.000000 750.000000 L 66.588791 0.000000 " />
<path stroke-linejoin="round" stroke-linecap="round" stroke="rgb(255,0,0)" stroke-width="3.749996" fill="none" d="M 55.627651 123.456963 L 56.109264 123.938622 " />
<path stroke-linejoin="round" stroke-linecap="round" stroke="rgb(0,0,255)" stroke-width="1.874998" fill="none" d="M 0.000000 750.000000 L 65.972237 0.000000 " />
<path stroke-linejoin="round" stroke-linecap="round" stroke="rgb(255,0,0)" stroke-width="3.749996" fill="none" d="M 55.154221 122.983505 L 55.627651 123.456963 " />
<path stroke-linejoin="round" stroke-linecap="round" stroke="rgb(0,0,255)" stroke-width="1.874998" fill="none" d="M 0.000000 750.000000 L 62.211983 0.000000 " />
<path stroke-linejoin="round" stroke-linecap="round" stroke="rgb(255,0,0)" stroke-width="3.749996" fill="none" d="M 52.251377 120.080643 L 55.154221 122.983505 " />
<path stroke-linejoin="round" stroke-linecap="round" stroke="rgb(0,0,255)" stroke-width="1.874998" fill="none" d="M 0.000000 750.000000 L 58.486237 0.000000 " />
<path stroke-linejoin="round" stroke-linecap="round" stroke="rgb(255,0,0)" stroke-width="3.749996" fill="none" d="M 49.348534 117.177734 L 52.251377 120.080643 " />
<path stroke-linejoin="round" stroke-linecap="round" stroke="rgb(0,0,255)" stroke-width="1.874998" fill="none" d="M 0.000000 750.000000 L 54.794514 0.000000 " />
<path stroke-linejoin="round" stroke-linecap="round" stroke="rgb(255,0,0)" stroke-width="3.749996" fill="none" d="M 46.445667 114.274864 L 49.348534 117.177666 " />
<path stroke-linejoin="round" stroke-linecap="round" stroke="rgb(0,0,255)" stroke-width="1.874998" fill="none" d="M 0.000000 750.000000 L 54.298637 0.000000 " />
<path stroke-linejoin="round" stroke-linecap="round" stroke="rgb(255,0,0)" stroke-width="3.749996" fill="none" d="M 46.053730 113.882904 L 46.445667 114.274864 " />
<path stroke-linejoin="round" stroke-linecap="round" stroke="rgb(0,0,255)" stroke-width="1.874998" fill="none" d="M 0.000000 750.000000 L 50.675667 0.000000 " />
<path stroke-linejoin="round" stroke-linecap="round" stroke="rgb(255,0,0)" stroke-width="3.749996" fill="none" d="M 43.175362 111.004539 L 46.053730 113.882904 " />
<path stroke-linejoin="round" stroke-linecap="round" stroke="rgb(0,0,255)" stroke-width="1.874998" fill="none" d="M 0.000000 750.000000 L 47.085197 0.000000 " />
<path stroke-linejoin="round" stroke-linecap="round" stroke="rgb(255,0,0)" stroke-width="3.749996" fill="none" d="M 40.297016 108.126167 L 43.175362 111.004539 " />
<path stroke-linejoin="round" stroke-linecap="round" stroke="rgb(0,0,255)" stroke-width="1.874998" fill="none" d="M 0.000000 750.000000 L 43.526775 0.000000 " />
<path stroke-linejoin="round" stroke-linecap="round" stroke="rgb(255,0,0)" stroke-width="3.749996" fill="none" d="M 37.418648 105.247803 L 40.297016 108.126167 " />
<path stroke-linejoin="round" stroke-linecap="round" stroke="rgb(0,0,255)" stroke-width="1.874998" fill="none" d="M 0.000000 750.000000 L 40.000008 0.000000 " />
<path stroke-linejoin="round" stroke-linecap="round" stroke="rgb(255,0,0)" stroke-width="3.749996" fill="none" d="M 34.540302 102.369438 L 37.418648 105.247803 " />
<path stroke-linejoin="round" stroke-linecap="round" stroke="rgb(0,0,255)" stroke-width="1.874998" fill="none" d="M 0.000000 750.000000 L 36.504417 0.000000 " />
<path stroke-linejoin="round" stroke-linecap="round" stroke="rgb(255,0,0)" stroke-width="3.749996" fill="none" d="M 31.661936 99.491112 L 34.540302 102.369438 " />
<path stroke-linejoin="round" stroke-linecap="round" stroke="rgb(0,0,255)" stroke-width="1.874998" fill="none" d="M 0.000000 750.000000 L 36.184208 0.000000 " />
<path stroke-linejoin="round" stroke-linecap="round" stroke="rgb(255,0,0)" stroke-width="3.749996" fill="none" d="M 31.396978 99.226173 L 31.661936 99.491112 " />
<path stroke-linejoin="round" stroke-linecap="round" stroke="rgb(0,0,255)" stroke-width="1.874998" fill="none" d="M 0.000000 750.000000 L 35.869560 0.000000 " />
<path stroke-linejoin="round" stroke-linecap="round" stroke="rgb(255,0,0)" stroke-width="3.749996" fill="none" d="M 31.136423 98.965645 L 31.396978 99.226173 " />
<path stroke-linejoin="round" stroke-linecap="round" stroke="rgb(0,0,255)" stroke-width="1.874998" fill="none" d="M 0.000000 750.000000 L 32.467537 0.000000 " />
<path stroke-linejoin="round" stroke-linecap="round" stroke="rgb(255,0,0)" stroke-width="3.749996" fill="none" d="M 28.305843 96.135017 L 31.136423 98.965645 " />
<path stroke-linejoin="round" stroke-linecap="round" stroke="rgb(0,0,255)" stroke-width="1.874998" fill="none" d="M 0.000000 750.000000 L 29.094814 0.000000 " />
<path stroke-linejoin="round" stroke-linecap="round" stroke="rgb(255,0,0)" stroke-width="3.749996" fill="none" d="M 25.475264 93.304466 L 28.305843 96.135017 " />
<path stroke-linejoin="round" stroke-linecap="round" stroke="rgb(0,0,255)" stroke-width="1.874998" fill="none" d="M 0.000000 750.000000 L 25.751083 0.000000 " />
<path stroke-linejoin="round" stroke-linecap="round" stroke="rgb(255,0,0)" stroke-width="3.749996" fill="none" d="M 22.644684 90.473885 L 25.475264 93.304466 " />
<path stroke-linejoin="round" stroke-linecap="round" stroke="rgb(0,0,255)" stroke-width="1.874998" fill="none" d="M 0.000000 750.000000 L 22.435896 0.000000 " />
<path stroke-linejoin="round" stroke-linecap="round" stroke="rgb(255,0,0)" stroke-width="3.749996" fill="none" d="M 19.814081 87.643257 L 22.644684 90.473885 " />
<path stroke-linejoin="round" stroke-linecap="round" stroke="rgb(0,0,255)" stroke-width="1.874998" fill="none" d="M 0.000000 750.000000 L 22.245771 0.000000 " />
<path stroke-linejoin="round" stroke-linecap="round" stroke="rgb(255,0,0)" stroke-width="3.749996" fill="none" d="M 19.651003 87.480179 L 19.814081 87.643257 " />
<path stroke-linejoin="round" stroke-linecap="round" stroke="rgb(0,0,255)" stroke-width="1.874998" fill="none" d="M 0.000000 750.000000 L 22.058823 0.000000 " />
<path stroke-linejoin="round" stroke-linecap="round" stroke="rgb(255,0,0)" stroke-width="3.749996" fill="none" d="M 19.490585 87.319786 L 19.651003 87.480179 " />
<path stroke-linejoin="round" stroke-linecap="round" stroke="rgb(0,0,255)" stroke-width="1.874998" fill="none" d="M 0.000000 750.000000 L 18.828459 0.000000 " />
<path stroke-linejoin="round" stroke-linecap="round" stroke="rgb(255,0,0)" stroke-width="3.749996" fill="none" d="M 16.706228 84.535431 L 19.490585 87.319786 " />
<path stroke-linejoin="round" stroke-linecap="round" stroke="rgb(0,0,255)" stroke-width="1.874998" fill="none" d="M 0.000000 750.000000 L 15.625008 0.000000 " />
<path stroke-linejoin="round" stroke-linecap="round" stroke="rgb(255,0,0)" stroke-width="3.749996" fill="none" d="M 13.921849 81.751114 L 16.706228 84.535431 " />
<path stroke-linejoin="round" stroke-linecap="round" stroke="rgb(0,0,255)" stroke-width="1.874998" fill="none" d="M 0.000000 750.000000 L 12.448132 0.000000 " />
<path stroke-linejoin="round" stroke-linecap="round" stroke="rgb(255,0,0)" stroke-width="3.749996" fill="none" d="M 11.137470 78.966736 L 13.921849 81.751114 " />
<path stroke-linejoin="round" stroke-linecap="round" stroke="rgb(0,0,255)" stroke-width="1.874998" fill="none" d="M 0.000000 750.000000 L 9.297520 0.000000 " />
<path stroke-linejoin="round" stroke-linecap="round" stroke="rgb(255,0,0)" stroke-width="3.749996" fill="none" d="M 8.353114 76.182358 L 11.137470 78.966736 " />
<path stroke-linejoin="round" stroke-linecap="round" stroke="rgb(0,0,255)" stroke-width="1.874998" fill="none" d="M 0.000000 750.000000 L 9.221300 0.000000 " />
<path stroke-linejoin="round" stroke-linecap="round" stroke="rgb(255,0,0)" stroke-width="3.749996" fill="none" d="M 8.285478 76.114655 L 8.353114 76.182358 " />
<path stroke-linejoin="round" stroke-linecap="round" stroke="rgb(0,0,255)" stroke-width="1.874998" fill="none" d="M 0.000000 750.000000 L 6.122455 0.000000 " />
<path stroke-linejoin="round" stroke-linecap="round" stroke="rgb(255,0,0)" stroke-width="3.749996" fill="none" d="M 5.617976 61.797672 L 8.285478 76.114586 " />
<path stroke-linejoin="round" stroke-linecap="round" stroke="rgb(0,0,255)" stroke-width="1.874998" fill="none" d="M 0.000000 750.000000 L 3.048778 0.000000 " />
<path stroke-linejoin="round" stroke-linecap="round" stroke="rgb(255,0,0)" stroke-width="3.749996" fill="none" d="M 2.918288 32.101147 L 5.617976 61.797672 " />
<path stroke-linejoin="round" stroke-linecap="round" stroke="rgb(0,0,255)" stroke-width="1.874998" fill="none" d="M 0.000000 750.000000 L 0.000000 0.000000 " />
<path stroke-linejoin="round" stroke-linecap="round" stroke="rgb(255,0,0)" stroke-width="3.749996" fill="none" d="M 0.000000 0.000000 L 2.918288 32.101147 " />
<circle cx="122.222230" cy="719.444454" r="3.749996" style="fill:rgb(0,127,0);stroke-width:1" /><circle cx="119.432084" cy="688.752785" r="3.749996" style="fill:rgb(0,127,0);stroke-width:1" /><circle cx="116.629466" cy="657.924101" r="3.749996" style="fill:rgb(0,127,0);stroke-width:1" /><circle cx="113.814309" cy="626.957506" r="3.749996" style="fill:rgb(0,127,0);stroke-width:1" /><circle cx="110.986523" cy="595.852040" r="3.749996" style="fill:rgb(0,127,0);stroke-width:1" /><circle cx="108.146042" cy="564.606786" r="3.749996" style="fill:rgb(0,127,0);stroke-width:1" /><circle cx="106.223144" cy="543.455008" r="3.749996" style="fill:rgb(0,127,0);stroke-width:1" /><circle cx="103.494577" cy="513.440933" r="3.749996" style="fill:rgb(0,127,0);stroke-width:1" /><circle cx="100.754276" cy="483.297497" r="3.749996" style="fill:rgb(0,127,0);stroke-width:1" /><circle cx="98.002128" cy="453.023823" r="3.749996" style="fill:rgb(0,127,0);stroke-width:1" /><circle cx="96.590884" cy="437.500119" r="3.749996" style="fill:rgb(0,127,0);stroke-width:1" /><circle cx="95.238067" cy="422.619162" r="3.749996" style="fill:rgb(0,127,0);stroke-width:1" /><circle cx="92.462003" cy="392.082572" r="3.749996" style="fill:rgb(0,127,0);stroke-width:1" /><circle cx="91.286279" cy="379.149526" r="3.749996" style="fill:rgb(0,127,0);stroke-width:1" /><circle cx="88.617437" cy="349.792211" r="3.749996" style="fill:rgb(0,127,0);stroke-width:1" /><circle cx="87.649383" cy="339.143515" r="3.749996" style="fill:rgb(0,127,0);stroke-width:1" /><circle cx="85.937485" cy="320.312619" r="3.749996" style="fill:rgb(0,127,0);stroke-width:1" /><circle cx="85.079826" cy="310.878335" r="3.749996" style="fill:rgb(0,127,0);stroke-width:1" /><circle cx="83.246313" cy="290.709944" r="3.749996" style="fill:rgb(0,127,0);stroke-width:1" /><circle cx="82.499966" cy="282.500178" r="3.749996" style="fill:rgb(0,127,0);stroke-width:1" /><circle cx="80.543898" cy="260.983407" r="3.749996" style="fill:rgb(0,127,0);stroke-width:1" /><circle cx="77.830173" cy="231.132265" r="3.749996" style="fill:rgb(0,127,0);stroke-width:1" /><circle cx="77.309221" cy="225.401759" r="3.749996" style="fill:rgb(0,127,0);stroke-width:1" /><circle cx="74.698180" cy="196.680184" r="3.749996" style="fill:rgb(0,127,0);stroke-width:1" /><circle cx="74.324302" cy="192.567710" r="3.749996" style="fill:rgb(0,127,0);stroke-width:1" /><circle cx="72.076611" cy="167.842805" r="3.749996" style="fill:rgb(0,127,0);stroke-width:1" /><circle cx="69.444448" cy="138.888896" r="3.749996" style="fill:rgb(0,127,0);stroke-width:1" /><circle cx="69.282956" cy="137.112312" r="3.749996" style="fill:rgb(0,127,0);stroke-width:1" /><circle cx="68.514951" cy="136.344306" r="3.749996" style="fill:rgb(0,127,0);stroke-width:1" /><circle cx="65.536045" cy="133.365400" r="3.749996" style="fill:rgb(0,127,0);stroke-width:1" /><circle cx="64.968623" cy="132.798024" r="3.749996" style="fill:rgb(0,127,0);stroke-width:1" /><circle cx="62.015511" cy="129.844911" r="3.749996" style="fill:rgb(0,127,0);stroke-width:1" /><circle cx="59.062399" cy="126.891732" r="3.749996" style="fill:rgb(0,127,0);stroke-width:1" /><circle cx="56.109264" cy="123.938620" r="3.749996" style="fill:rgb(0,127,0);stroke-width:1" /><circle cx="55.627652" cy="123.456962" r="3.749996" style="fill:rgb(0,127,0);stroke-width:1" /><circle cx="55.154219" cy="122.983508" r="3.749996" style="fill:rgb(0,127,0);stroke-width:1" /><circle cx="52.251376" cy="120.080642" r="3.749996" style="fill:rgb(0,127,0);stroke-width:1" /><circle cx="49.348533" cy="117.177732" r="3.749996" style="fill:rgb(0,127,0);stroke-width:1" /><circle cx="46.445668" cy="114.274867" r="3.749996" style="fill:rgb(0,127,0);stroke-width:1" /><circle cx="46.053730" cy="113.882907" r="3.749996" style="fill:rgb(0,127,0);stroke-width:1" /><circle cx="43.175362" cy="111.004539" r="3.749996" style="fill:rgb(0,127,0);stroke-width:1" /><circle cx="40.297017" cy="108.126171" r="3.749996" style="fill:rgb(0,127,0);stroke-width:1" /><circle cx="37.418649" cy="105.247803" r="3.749996" style="fill:rgb(0,127,0);stroke-width:1" /><circle cx="34.540303" cy="102.369435" r="3.749996" style="fill:rgb(0,127,0);stroke-width:1" /><circle cx="31.661935" cy="99.491112" r="3.749996" style="fill:rgb(0,127,0);stroke-width:1" /><circle cx="31.396978" cy="99.226177" r="3.749996" style="fill:rgb(0,127,0);stroke-width:1" /><circle cx="31.136423" cy="98.965645" r="3.749996" style="fill:rgb(0,127,0);stroke-width:1" /><circle cx="28.305843" cy="96.135020" r="3.749996" style="fill:rgb(0,127,0);stroke-width:1" /><circle cx="25.475264" cy="93.304463" r="3.749996" style="fill:rgb(0,127,0);stroke-width:1" /><circle cx="22.644684" cy="90.473883" r="3.749996" style="fill:rgb(0,127,0);stroke-width:1" /><circle cx="19.814081" cy="87.643258" r="3.749996" style="fill:rgb(0,127,0);stroke-width:1" /><circle cx="19.651003" cy="87.480180" r="3.749996" style="fill:rgb(0,127,0);stroke-width:1" /><circle cx="19.490585" cy="87.319784" r="3.749996" style="fill:rgb(0,127,0);stroke-width:1" /><circle cx="16.706228" cy="84.535427" r="3.749996" style="fill:rgb(0,127,0);stroke-width:1" /><circle cx="13.921849" cy="81.751116" r="3.749996" style="fill:rgb(0,127,0);stroke-width:1" /><circle cx="11.137471" cy="78.966737" r="3.749996" style="fill:rgb(0,127,0);stroke-width:1" /><circle cx="8.353114" cy="76.182358" r="3.749996" style="fill:rgb(0,127,0);stroke-width:1" /><circle cx="8.285478" cy="76.114655" r="3.749996" style="fill:rgb(0,127,0);stroke-width:1" /><circle cx="5.617976" cy="61.797671" r="3.749996" style="fill:rgb(0,127,0);stroke-width:1" /><circle cx="2.918288" cy="32.101147" r="3.749996" style="fill:rgb(0,127,0);stroke-width:1" /><circle cx="750.000000" cy="750.000000" r="3.749996" style="fill:rgb(0,127,0);stroke-width:1" /><path stroke-linejoin="round" stroke-linecap="round" stroke="rgb(255,255,255)" stroke-width="3.749996" fill="none" d="M 0.000000 750.000000 L 750.000000 750.000000 M 0.000000 750.000000 L 0.000000 0.000000 " />

</svg>