<svg xmlns="http://www.w3.org/2000/svg" version="1.1" width = "750" height = "750" viewBox = "0 0 750 750"  shape-rendering="crispEdges">
<path stroke-linejoin="round" stroke-linecap="round" stroke="rgb(255,255,0)" stroke-width="3.749996" fill="none" d="M 83.333328 750.000000 L 0.000000 0.000000 " />
<path stroke-linejoin="round" stroke-linecap="round" stroke="rgb(63,63,63)" stroke-width="3.749996" fill="none" d="M 0.000000 0.000000 L 750.000000 750.000000 M 83.333328 750.000000 L 39.215683 0.000000 " />
<path stroke-linejoin="round" stroke-linecap="round" stroke="rgb(191,191,191)" stroke-width="3.749996" fill="none" d="M 0.000000 666.666687 L 83.333328 750.000000 M 0.000000 0.000000 L 44.117645 750.000000 " />
<path stroke-linejoin="round" stroke-linecap="round" stroke="rgb(0,0,255)" stroke-width="1.874998" fill="none" d="M 0.000000 750.000000 L 750.000000 535.714294 " />
<path stroke-linejoin="round" stroke-linecap="round" stroke="rgb(255,0,0)" stroke-width="3.749996" fill="none" d="M 81.955925 726.584045 L 83.333328 750.000000 " />
<path stroke-linejoin="round" stroke-linecap="round" stroke="rgb(0,0,255)" stroke-width="1.874998" fill="none" d="M 0.000000 750.000000 L 750.000000 308.823517 " />
<path stroke-linejoin="round" stroke-linecap="round" stroke="rgb(255,0,0)" stroke-width="3.749996" fill="none" d="M 80.546265 702.619873 L 81.955925 726.584045 " />
<path stroke-linejoin="round" stroke-linecap="round" stroke="rgb(0,0,255)" stroke-width="1.874998" fill="none" d="M 0.000000 750.000000 L 750.000000 68.181801 " />
<path stroke-linejoin="round" stroke-linecap="round" stroke="rgb(255,0,0)" stroke-width="3.749996" fill="none" d="M 79.103218 678.088013 L 80.546242 702.619873 " />
<path stroke-linejoin="round" stroke-linecap="round" stroke="rgb(0,0,255)" stroke-width="1.874998" fill="none" d="M 0.000000 750.000000 L 637.500000 0.000000 " />
<path stroke-linejoin="round" stroke-linecap="round" stroke="rgb(255,0,0)" stroke-width="3.749996" fill="none" d="M 77.939583 658.306335 L 79.103218 678.088013 " />
<path stroke-linejoin="round" stroke-linecap="round" stroke="rgb(0,0,255)" stroke-width="1.874998" fill="none" d="M 0.000000 750.000000 L 600.000000 0.000000 " />
<path stroke-linejoin="round" stroke-linecap="round" stroke="rgb(255,0,0)" stroke-width="3.749996" fill="none" d="M 77.625587 652.968079 L 77.939606 658.306335 " />
<path stroke-linejoin="round" stroke-linecap="round" stroke="rgb(0,0,255)" stroke-width="1.874998" fill="none" d="M 0.000000 750.000000 L 465.000000 0.000000 " />
<path stroke-linejoin="round" stroke-linecap="round" stroke="rgb(255,0,0)" stroke-width="3.749996" fill="none" d="M 76.112083 627.238586 L 77.625587 652.968079 " />
<path stroke-linejoin="round" stroke-linecap="round" stroke="rgb(0,0,255)" stroke-width="1.874998" fill="none" d="M 0.000000 750.000000 L 375.000000 0.000000 " />
<path stroke-linejoin="round" stroke-linecap="round" stroke="rgb(255,0,0)" stroke-width="3.749996" fill="none" d="M 74.561409 600.877197 L 76.112083 627.238586 " />
<path stroke-linejoin="round" stroke-linecap="round" stroke="rgb(0,0,255)" stroke-width="1.874998" fill="none" d="M 0.000000 750.000000 L 310.714294 0.000000 " />
<path stroke-linejoin="round" stroke-linecap="round" stroke="rgb(255,0,0)" stroke-width="3.749996" fill="none" d="M 72.972176 573.860229 L 74.561409 600.877197 " />
<path stroke-linejoin="round" stroke-linecap="round" stroke="rgb(0,0,255)" stroke-width="1.874998" fill="none" d="M 0.000000 750.000000 L 281.250000 0.000000 " />
<path stroke-linejoin="round" stroke-linecap="round" stroke="rgb(255,0,0)" stroke-width="3.749996" fill="none" d="M 72.033897 557.909607 L 72.972176 573.860229 " />
<path stroke-linejoin="round" stroke-linecap="round" stroke="rgb(0,0,255)" stroke-width="1.874998" fill="none" d="M 0.000000 750.000000 L 262.500000 0.000000 " />
<path stroke-linejoin="round" stroke-linecap="round" stroke="rgb(255,0,0)" stroke-width="3.749996" fill="none" d="M 71.342941 546.163025 L 72.033897 557.909607 " />
<path stroke-linejoin="round" stroke-linecap="round" stroke="rgb(0,0,255)" stroke-width="1.874998" fill="none" d="M 0.000000 750.000000 L 241.666656 0.000000 " />
<path stroke-linejoin="round" stroke-linecap="round" stroke="rgb(255,0,0)" stroke-width="3.749996" fill="none" d="M 70.468849 531.303589 L 71.342941 546.163025 " />
<path stroke-linejoin="round" stroke-linecap="round" stroke="rgb(0,0,255)" stroke-width="1.874998" fill="none" d="M 0.000000 750.000000 L 210.000000 0.000000 " />
<path stroke-linejoin="round" stroke-linecap="round" stroke="rgb(255,0,0)" stroke-width="3.749996" fill="none" d="M 68.865761 504.050903 L 70.468849 531.303589 " />
<path stroke-linejoin="round" stroke-linecap="round" stroke="rgb(0,0,255)" stroke-width="1.874998" fill="none" d="M 0.000000 750.000000 L 184.090912 0.000000 " />
<path stroke-linejoin="round" stroke-linecap="round" stroke="rgb(255,0,0)" stroke-width="3.749996" fill="none" d="M 67.223221 476.127625 L 68.865761 504.050903 " />
<path stroke-linejoin="round" stroke-linecap="round" stroke="rgb(0,0,255)" stroke-width="1.874998" fill="none" d="M 0.000000 750.000000 L 162.500000 0.000000 " />
<path stroke-linejoin="round" stroke-linecap="round" stroke="rgb(255,0,0)" stroke-width="3.749996" fill="none" d="M 65.539757 447.508820 L 67.223221 476.127625 " />
<path stroke-linejoin="round" stroke-linecap="round" stroke="rgb(0,0,255)" stroke-width="1.874998" fill="none" d="M 0.000000 750.000000 L 155.769226 0.000000 " />
<path stroke-linejoin="round" stroke-linecap="round" stroke="rgb(255,0,0)" stroke-width="3.749996" fill="none" d="M 64.940598 437.323059 L 65.539757 447.508820 " />
<path stroke-linejoin="round" stroke-linecap="round" stroke="rgb(0,0,255)" stroke-width="1.874998" fill="none" d="M 0.000000 750.000000 L 139.285721 0.000000 " />
<path stroke-linejoin="round" stroke-linecap="round" stroke="rgb(255,0,0)" stroke-width="3.749996" fill="none" d="M 63.287525 409.220978 L 64.940598 437.323059 " />
<path stroke-linejoin="round" stroke-linecap="round" stroke="rgb(0,0,255)" stroke-width="1.874998" fill="none" d="M 0.000000 750.000000 L 135.000000 0.000000 " />
<path stroke-linejoin="round" stroke-linecap="round" stroke="rgb(255,0,0)" stroke-width="3.749996" fill="none" d="M 62.807903 401.067261 L 63.287525 409.220978 " />
<path stroke-linejoin="round" stroke-linecap="round" stroke="rgb(0,0,255)" stroke-width="1.874998" fill="none" d="M 0.000000 750.000000 L 128.571426 0.000000 " />
<path stroke-linejoin="round" stroke-linecap="round" stroke="rgb(255,0,0)" stroke-width="3.749996" fill="none" d="M 62.043808 388.077789 L 62.807903 401.067261 " />
<path stroke-linejoin="round" stroke-linecap="round" stroke="rgb(0,0,255)" stroke-width="1.874998" fill="none" d="M 0.000000 750.000000 L 125.000015 0.000000 " />
<path stroke-linejoin="round" stroke-linecap="round" stroke="rgb(255,0,0)" stroke-width="3.749996" fill="none" d="M 61.594227 380.434692 L 62.043808 388.077789 " />
<path stroke-linejoin="round" stroke-linecap="round" stroke="rgb(0,0,255)" stroke-width="1.874998" fill="none" d="M 0.000000 750.000000 L 112.500008 0.000000 " />
<path stroke-linejoin="round" stroke-linecap="round" stroke="rgb(255,0,0)" stroke-width="3.749996" fill="none" d="M 59.859173 350.938873 L 61.594227 380.434692 " />
<path stroke-linejoin="round" stroke-linecap="round" stroke="rgb(0,0,255)" stroke-width="1.874998" fill="none" d="M 0.000000 750.000000 L 110.294113 0.000000 " />
<path stroke-linejoin="round" stroke-linecap="round" stroke="rgb(255,0,0)" stroke-width="3.749996" fill="none" d="M 59.523827 345.237976 L 59.859173 350.938873 " />
<path stroke-linejoin="round" stroke-linecap="round" stroke="rgb(0,0,255)" stroke-width="1.874998" fill="none" d="M 0.000000 750.000000 L 99.999992 0.000000 " />
<path stroke-linejoin="round" stroke-linecap="round" stroke="rgb(255,0,0)" stroke-width="3.749996" fill="none" d="M 57.823151 316.326416 L 59.523827 345.237946 " />
<path stroke-linejoin="round" stroke-linecap="round" stroke="rgb(0,0,255)" stroke-width="1.874998" fill="none" d="M 0.000000 750.000000 L 90.789467 0.000000 " />
<path stroke-linejoin="round" stroke-linecap="round" stroke="rgb(255,0,0)" stroke-width="3.749996" fill="none" d="M 56.081482 286.718170 L 57.823151 316.326416 " />
<path stroke-linejoin="round" stroke-linecap="round" stroke="rgb(0,0,255)" stroke-width="1.874998" fill="none" d="M 0.000000 750.000000 L 82.500008 0.000000 " />
<path stroke-linejoin="round" stroke-linecap="round" stroke="rgb(255,0,0)" stroke-width="3.749996" fill="none" d="M 54.297344 256.387787 L 56.081482 286.718231 " />
<path stroke-linejoin="round" stroke-linecap="round" stroke="rgb(0,0,255)" stroke-width="1.874998" fill="none" d="M 0.000000 750.000000 L 82.142853 0.000000 " />
<path stroke-linejoin="round" stroke-linecap="round" stroke="rgb(255,0,0)" stroke-width="3.749996" fill="none" d="M 54.215199 254.991577 L 54.297344 256.387787 " />
<path stroke-linejoin="round" stroke-linecap="round" stroke="rgb(0,0,255)" stroke-width="1.874998" fill="none" d="M 0.000000 750.000000 L 74.999992 0.000000 " />
<path stroke-linejoin="round" stroke-linecap="round" stroke="rgb(255,0,0)" stroke-width="3.749996" fill="none" d="M 52.469151 225.308502 L 54.215199 254.991577 " />
<path stroke-linejoin="round" stroke-linecap="round" stroke="rgb(0,0,255)" stroke-width="1.874998" fill="none" d="M 0.000000 750.000000 L 68.478271 0.000000 " />
<path stroke-linejoin="round" stroke-linecap="round" stroke="rgb(255,0,0)" stroke-width="3.749996" fill="none" d="M 50.681435 194.917511 L 52.469151 225.308502 " />
<path stroke-linejoin="round" stroke-linecap="round" stroke="rgb(0,0,255)" stroke-width="1.874998" fill="none" d="M 0.000000 750.000000 L 62.500008 0.000000 " />
<path stroke-linejoin="round" stroke-linecap="round" stroke="rgb(255,0,0)" stroke-width="3.749996" fill="none" d="M 48.850582 163.792953 L 50.681435 194.917511 " />
<path stroke-linejoin="round" stroke-linecap="round" stroke="rgb(0,0,255)" stroke-width="1.874998" fill="none" d="M 0.000000 750.000000 L 57.000004 0.000000 " />
<path stroke-linejoin="round" stroke-linecap="round" stroke="rgb(255,0,0)" stroke-width="3.749996" fill="none" d="M 46.975002 131.907928 L 48.850582 163.792953 " />
<path stroke-linejoin="round" stroke-linecap="round" stroke="rgb(0,0,255)" stroke-width="1.874998" fill="none" d="M 0.000000 750.000000 L 51.923073 0.000000 " />
<path stroke-linejoin="round" stroke-linecap="round" stroke="rgb(255,0,0)" stroke-width="3.749996" fill="none" d="M 45.053020 99.234222 L 46.975002 131.907928 " />
<path stroke-linejoin="round" stroke-linecap="round" stroke="rgb(0,0,255)" stroke-width="1.874998" fill="none" d="M 0.000000 750.000000 L 48.214294 0.000000 " />
<path stroke-linejoin="round" stroke-linecap="round" stroke="rgb(255,0,0)" stroke-width="3.749996" fill="none" d="M 43.515377 73.094284 L 45.053020 99.234222 " />
<path stroke-linejoin="round" stroke-linecap="round" stroke="rgb(0,0,255)" stroke-width="1.874998" fill="none" d="M 0.000000 750.000000 L 46.391754 0.000000 " />
<path stroke-linejoin="round" stroke-linecap="round" stroke="rgb(255,0,0)" stroke-width="3.749996" fill="none" d="M 42.713573 59.463745 L 43.515377 73.094284 " />
<path stroke-linejoin="round" stroke-linecap="round" stroke="rgb(0,0,255)" stroke-width="1.874998" fill="none" d="M 0.000000 750.000000 L 45.052998 0.000000 " />
<path stroke-linejoin="round" stroke-linecap="round" stroke="rgb(255,0,0)" stroke-width="3.749996" fill="none" d="M 41.550816 58.300964 L 42.713573 59.463745 " />
<path stroke-linejoin="round" stroke-linecap="round" stroke="rgb(0,0,255)" stroke-width="1.874998" fill="none" d="M 0.000000 750.000000 L 42.253510 0.000000 " />
<path stroke-linejoin="round" stroke-linecap="round" stroke="rgb(255,0,0)" stroke-width="3.749996" fill="none" d="M 39.106651 55.856869 L 41.550816 58.300964 " />
<path stroke-linejoin="round" stroke-linecap="round" stroke="rgb(0,0,255)" stroke-width="1.874998" fill="none" d="M 0.000000 750.000000 L 40.955631 0.000000 " />
<path stroke-linejoin="round" stroke-linecap="round" stroke="rgb(255,0,0)" stroke-width="3.749996" fill="none" d="M 38.483707 45.266861 L 39.106651 55.856869 " />
<path stroke-linejoin="round" stroke-linecap="round" stroke="rgb(0,0,255)" stroke-width="1.874998" fill="none" d="M 0.000000 750.000000 L 39.198608 0.000000 " />
<path stroke-linejoin="round" stroke-linecap="round" stroke="rgb(255,0,0)" stroke-width="3.749996" fill="none" d="M 36.914749 43.697922 L 38.483707 45.266861 " />
<path stroke-linejoin="round" stroke-linecap="round" stroke="rgb(0,0,255)" stroke-width="1.874998" fill="none" d="M 0.000000 750.000000 L 38.927345 0.000000 " />
<path stroke-linejoin="round" stroke-linecap="round" stroke="rgb(255,0,0)" stroke-width="3.749996" fill="none" d="M 36.671875 43.455048 L 36.914749 43.697922 " />
<path stroke-linejoin="round" stroke-linecap="round" stroke="rgb(0,0,255)" stroke-width="1.874998" fill="none" d="M 0.000000 750.000000 L 36.206894 0.000000 " />
<path stroke-linejoin="round" stroke-linecap="round" stroke="rgb(255,0,0)" stroke-width="3.749996" fill="none" d="M 34.227089 41.010216 L 36.671875 43.455048 " />
<path stroke-linejoin="round" stroke-linecap="round" stroke="rgb(0,0,255)" stroke-width="1.874998" fill="none" d="M 0.000000 750.000000 L 35.958900 0.000000 " />
<path stroke-linejoin="round" stroke-linecap="round" stroke="rgb(255,0,0)" stroke-width="3.749996" fill="none" d="M 34.003391 40.786499 L 34.227089 41.010216 " />
<path stroke-linejoin="round" stroke-linecap="round" stroke="rgb(0,0,255)" stroke-width="1.874998" fill="none" d="M 0.000000 750.000000 L 33.276447 0.000000 " />
<path stroke-linejoin="round" stroke-linecap="round" stroke="rgb(255,0,0)" stroke-width="3.749996" fill="none" d="M 31.574585 38.357647 L 34.003391 40.786499 " />
<path stroke-linejoin="round" stroke-linecap="round" stroke="rgb(0,0,255)" stroke-width="1.874998" fill="none" d="M 0.000000 750.000000 L 33.050850 0.000000 " />
<path stroke-linejoin="round" stroke-linecap="round" stroke="rgb(255,0,0)" stroke-width="3.749996" fill="none" d="M 31.369553 38.152702 L 31.574585 38.357647 " />
<path stroke-linejoin="round" stroke-linecap="round" stroke="rgb(0,0,255)" stroke-width="1.874998" fill="none" d="M 0.000000 750.000000 L 30.405409 0.000000 " />
<path stroke-linejoin="round" stroke-linecap="round" stroke="rgb(255,0,0)" stroke-width="3.749996" fill="none" d="M 28.956503 35.739586 L 31.369553 38.152702 " />
<path stroke-linejoin="round" stroke-linecap="round" stroke="rgb(0,0,255)" stroke-width="1.874998" fill="none" d="M 0.000000 750.000000 L 28.157003 0.000000 " />
<path stroke-linejoin="round" stroke-linecap="round" stroke="rgb(255,0,0)" stroke-width="3.749996" fill="none" d="M 26.892721 33.675827 L 28.956503 35.739586 " />
<path stroke-linejoin="round" stroke-linecap="round" stroke="rgb(0,0,255)" stroke-width="1.874998" fill="none" d="M 0.000000 750.000000 L 27.966097 0.000000 " />
<path stroke-linejoin="round" stroke-linecap="round" stroke="rgb(255,0,0)" stroke-width="3.749996" fill="none" d="M 26.716948 33.500031 L 26.892721 33.675827 " />
<path stroke-linejoin="round" stroke-linecap="round" stroke="rgb(0,0,255)" stroke-width="1.874998" fill="none" d="M 0.000000 750.000000 L 25.337845 0.000000 " />
<path stroke-linejoin="round" stroke-linecap="round" stroke="rgb(255,0,0)" stroke-width="3.749996" fill="none" d="M 24.288139 31.071268 L 26.716948 33.500031 " />
<path stroke-linejoin="round" stroke-linecap="round" stroke="rgb(0,0,255)" stroke-width="1.874998" fill="none" d="M 0.000000 750.000000 L 22.727274 0.000000 " />
<path stroke-linejoin="round" stroke-linecap="round" stroke="rgb(255,0,0)" stroke-width="3.749996" fill="none" d="M 21.859310 28.642506 L 24.288139 31.071268 " />
<path stroke-linejoin="round" stroke-linecap="round" stroke="rgb(0,0,255)" stroke-width="1.874998" fill="none" d="M 0.000000 750.000000 L 22.575260 0.000000 " />
<path stroke-linejoin="round" stroke-linecap="round" stroke="rgb(255,0,0)" stroke-width="3.749996" fill="none" d="M 21.717377 28.500483 L 21.859310 28.642506 " />
<path stroke-linejoin="round" stroke-linecap="round" stroke="rgb(0,0,255)" stroke-width="1.874998" fill="none" d="M 0.000000 750.000000 L 22.425257 0.000000 " />
<path stroke-linejoin="round" stroke-linecap="round" stroke="rgb(255,0,0)" stroke-width="3.749996" fill="none" d="M 21.577276 28.360359 L 21.717377 28.500483 " />
<path stroke-linejoin="round" stroke-linecap="round" stroke="rgb(0,0,255)" stroke-width="1.874998" fill="none" d="M 0.000000 750.000000 L 22.277222 0.000000 " />
<path stroke-linejoin="round" stroke-linecap="round" stroke="rgb(255,0,0)" stroke-width="3.749996" fill="none" d="M 21.438942 28.222092 L 21.577276 28.360359 " />
<path stroke-linejoin="round" stroke-linecap="round" stroke="rgb(0,0,255)" stroke-width="1.874998" fill="none" d="M 0.000000 750.000000 L 19.736834 0.000000 " />
<path stroke-linejoin="round" stroke-linecap="round" stroke="rgb(255,0,0)" stroke-width="3.749996" fill="none" d="M 19.056849 25.840044 L 21.438942 28.222092 " />
<path stroke-linejoin="round" stroke-linecap="round" stroke="rgb(0,0,255)" stroke-width="1.874998" fill="none" d="M 0.000000 750.000000 L 19.607841 0.000000 " />
<path stroke-linejoin="round" stroke-linecap="round" stroke="rgb(255,0,0)" stroke-width="3.749996" fill="none" d="M 18.935457 25.718607 L 19.056849 25.840044 " />
<path stroke-linejoin="round" stroke-linecap="round" stroke="rgb(0,0,255)" stroke-width="1.874998" fill="none" d="M 0.000000 750.000000 L 17.100983 0.000000 " />
<path stroke-linejoin="round" stroke-linecap="round" stroke="rgb(255,0,0)" stroke-width="3.749996" fill="none" d="M 16.568520 23.351669 L 18.935457 25.718607 " />
<path stroke-linejoin="round" stroke-linecap="round" stroke="rgb(0,0,255)" stroke-width="1.874998" fill="none" d="M 0.000000 750.000000 L 14.610394 0.000000 " />
<path stroke-linejoin="round" stroke-linecap="round" stroke="rgb(255,0,0)" stroke-width="3.749996" fill="none" d="M 14.201604 20.984732 L 16.568520 23.351669 " />
<path stroke-linejoin="round" stroke-linecap="round" stroke="rgb(0,0,255)" stroke-width="1.874998" fill="none" d="M 0.000000 750.000000 L 12.135923 0.000000 " />
<path stroke-linejoin="round" stroke-linecap="round" stroke="rgb(255,0,0)" stroke-width="3.749996" fill="none" d="M 11.834666 18.617861 L 14.201604 20.984732 " />
<path stroke-linejoin="round" stroke-linecap="round" stroke="rgb(0,0,255)" stroke-width="1.874998" fill="none" d="M 0.000000 750.000000 L 9.677410 0.000000 " />
<path stroke-linejoin="round" stroke-linecap="round" stroke="rgb(255,0,0)" stroke-width="3.749996" fill="none" d="M 9.467729 16.250856 L 11.834666 18.617861 " />
<path stroke-linejoin="round" stroke-linecap="round" stroke="rgb(0,0,255)" stroke-width="1.874998" fill="none" d="M 0.000000 750.000000 L 9.615384 0.000000 " />
<path stroke-linejoin="round" stroke-linecap="round" stroke="rgb(255,0,0)" stroke-width="3.749996" fill="none" d="M 9.407804 16.190931 L 9.467729 16.250856 " />
<path stroke-linejoin="round" stroke-linecap="round" stroke="rgb(0,0,255)" stroke-width="1.874998" fill="none" d="M 0.000000 750.000000 L 9.554140 0.000000 " />
<path stroke-linejoin="round" stroke-linecap="round" stroke="rgb(255,0,0)" stroke-width="3.749996" fill="none" d="M 9.348639 16.131788 L 9.407804 16.190931 " />
<path stroke-linejoin="round" stroke-linecap="round" stroke="rgb(0,0,255)" stroke-width="1.874998" fill="none" d="M 0.000000 750.000000 L 8.152172 0.000000 " />
<path stroke-linejoin="round" stroke-linecap="round" stroke="rgb(255,0,0)" stroke-width="3.749996" fill="none" d="M 7.991575 14.774725 L 9.348639 16.131788 " />
<path stroke-linejoin="round" stroke-linecap="round" stroke="rgb(0,0,255)" stroke-width="1.874998" fill="none" d="M 0.000000 750.000000 L 5.415156 0.000000 " />
<path stroke-linejoin="round" stroke-linecap="round" stroke="rgb(255,0,0)" stroke-width="3.749996" fill="none" d="M 5.327716 12.110956 L 7.991575 14.774725 " />
<path stroke-linejoin="round" stroke-linecap="round" stroke="rgb(0,0,255)" stroke-width="1.874998" fill="none" d="M 0.000000 750.000000 L 2.697833 0.000000 " />
<path stroke-linejoin="round" stroke-linecap="round" stroke="rgb(255,0,0)" stroke-width="3.749996" fill="none" d="M 2.663858 9.447187 L 5.327716 12.111023 " />
<path stroke-linejoin="round" stroke-linecap="round" stroke="rgb(0,0,255)" stroke-width="1.874998" fill="none" d="M 0.000000 750.000000 L 0.000000 0.000000 " />
<path stroke-linejoin="round" stroke-linecap="round" stroke="rgb(255,0,0)" stroke-width="3.749996" fill="none" d="M 0.000000 0.000000 L 2.663858 9.447187 " />
<circle cx="81.955925" cy="726.584025" r="3.749996" style="fill:rgb(0,127,0);stroke-width:1" /><circle cx="80.546267" cy="702.619851" r="3.749996" style="fill:rgb(0,127,0);stroke-width:1" /><circle cx="79.103217" cy="678.087987" r="3.749996" style="fill:rgb(0,127,0);stroke-width:1" /><circle cx="77.939585" cy="658.306360" r="3.749996" style="fill:rgb(0,127,0);stroke-width:1" /><circle cx="77.625588" cy="652.968027" r="3.749996" style="fill:rgb(0,127,0);stroke-width:1" /><circle cx="76.112084" cy="627.238579" r="3.749996" style="fill:rgb(0,127,0);stroke-width:1" /><circle cx="74.561410" cy="600.877181" r="3.749996" style="fill:rgb(0,127,0);stroke-width:1" /><circle cx="72.972178" cy="573.860250" r="3.749996" style="fill:rgb(0,127,0);stroke-width:1" /><circle cx="72.033897" cy="557.909567" r="3.749996" style="fill:rgb(0,127,0);stroke-width:1" /><circle cx="71.342938" cy="546.163045" r="3.749996" style="fill:rgb(0,127,0);stroke-width:1" /><circle cx="70.468850" cy="531.303562" r="3.749996" style="fill:rgb(0,127,0);stroke-width:1" /><circle cx="68.865761" cy="504.050888" r="3.749996" style="fill:rgb(0,127,0);stroke-width:1" /><circle cx="67.223221" cy="476.127639" r="3.749996" style="fill:rgb(0,127,0);stroke-width:1" /><circle cx="65.539755" cy="447.508832" r="3.749996" style="fill:rgb(0,127,0);stroke-width:1" /><circle cx="64.940594" cy="437.323054" r="3.749996" style="fill:rgb(0,127,0);stroke-width:1" /><circle cx="63.287526" cy="409.220975" r="3.749996" style="fill:rgb(0,127,0);stroke-width:1" /><circle cx="62.807903" cy="401.067258" r="3.749996" style="fill:rgb(0,127,0);stroke-width:1" /><circle cx="62.043808" cy="388.077775" r="3.749996" style="fill:rgb(0,127,0);stroke-width:1" /><circle cx="61.594225" cy="380.434672" r="3.749996" style="fill:rgb(0,127,0);stroke-width:1" /><circle cx="59.859172" cy="350.938875" r="3.749996" style="fill:rgb(0,127,0);stroke-width:1" /><circle cx="59.523828" cy="345.237971" r="3.749996" style="fill:rgb(0,127,0);stroke-width:1" /><circle cx="57.823151" cy="316.326421" r="3.749996" style="fill:rgb(0,127,0);stroke-width:1" /><circle cx="56.081481" cy="286.718169" r="3.749996" style="fill:rgb(0,127,0);stroke-width:1" /><circle cx="54.297343" cy="256.387789" r="3.749996" style="fill:rgb(0,127,0);stroke-width:1" /><circle cx="54.215200" cy="254.991576" r="3.749996" style="fill:rgb(0,127,0);stroke-width:1" /><circle cx="52.469149" cy="225.308497" r="3.749996" style="fill:rgb(0,127,0);stroke-width:1" /><circle cx="50.681435" cy="194.917515" r="3.749996" style="fill:rgb(0,127,0);stroke-width:1" /><circle cx="48.850581" cy="163.792960" r="3.749996" style="fill:rgb(0,127,0);stroke-width:1" /><circle cx="46.975002" cy="131.907932" r="3.749996" style="fill:rgb(0,127,0);stroke-width:1" /><circle cx="45.053020" cy="99.234223" r="3.749996" style="fill:rgb(0,127,0);stroke-width:1" /><circle cx="43.515377" cy="73.094286" r="3.749996" style="fill:rgb(0,127,0);stroke-width:1" /><circle cx="42.713575" cy="59.463747" r="3.749996" style="fill:rgb(0,127,0);stroke-width:1" /><circle cx="41.550815" cy="58.300965" r="3.749996" style="fill:rgb(0,127,0);stroke-width:1" /><circle cx="39.106652" cy="55.856869" r="3.749996" style="fill:rgb(0,127,0);stroke-width:1" /><circle cx="38.483709" cy="45.266859" r="3.749996" style="fill:rgb(0,127,0);stroke-width:1" /><circle cx="36.914751" cy="43.697923" r="3.749996" style="fill:rgb(0,127,0);stroke-width:1" /><circle cx="36.671877" cy="43.455049" r="3.749996" style="fill:rgb(0,127,0);stroke-width:1" /><circle cx="34.227088" cy="41.010216" r="3.749996" style="fill:rgb(0,127,0);stroke-width:1" /><circle cx="34.003392" cy="40.786497" r="3.749996" style="fill:rgb(0,127,0);stroke-width:1" /><circle cx="31.574585" cy="38.357645" r="3.749996" style="fill:rgb(0,127,0);stroke-width:1" /><circle cx="31.369552" cy="38.152702" r="3.749996" style="fill:rgb(0,127,0);stroke-width:1" /><circle cx="28.956503" cy="35.739586" r="3.749996" style="fill:rgb(0,127,0);stroke-width:1" /><circle cx="26.892722" cy="33.675827" r="3.749996" style="fill:rgb(0,127,0);stroke-width:1" /><circle cx="26.716948" cy="33.500031" r="3.749996" style="fill:rgb(0,127,0);stroke-width:1" /><circle cx="24.288140" cy="31.071268" r="3.749996" style="fill:rgb(0,127,0);stroke-width:1" /><circle cx="21.859311" cy="28.642505" r="3.749996" style="fill:rgb(0,127,0);stroke-width:1" /><circle cx="21.717377" cy="28.500482" r="3.749996" style="fill:rgb(0,127,0);stroke-width:1" /><circle cx="21.577276" cy="28.360359" r="3.749996" style="fill:rgb(0,127,0);stroke-width:1" /><circle cx="21.438941" cy="28.222091" r="3.749996" style="fill:rgb(0,127,0);stroke-width:1" /><circle cx="19.056849" cy="25.840044" r="3.749996" style="fill:rgb(0,127,0);stroke-width:1" /><circle cx="18.935457" cy="25.718607" r="3.749996" style="fill:rgb(0,127,0);stroke-width:1" /><circle cx="16.568519" cy="23.351669" r="3.749996" style="fill:rgb(0,127,0);stroke-width:1" /><circle cx="14.201604" cy="20.984732" r="3.749996" style="fill:rgb(0,127,0);stroke-width:1" /><circle cx="11.834666" cy="18.617861" r="3.749996" style="fill:rgb(0,127,0);stroke-width:1" /><circle cx="9.467728" cy="16.250856" r="3.749996" style="fill:rgb(0,127,0);stroke-width:1" /><circle cx="9.407803" cy="16.190931" r="3.749996" style="fill:rgb(0,127,0);stroke-width:1" /><circle cx="9.348638" cy="16.131788" r="3.749996" style="fill:rgb(0,127,0);stroke-width:1" /><circle cx="7.991575" cy="14.774725" r="3.749996" style="fill:rgb(0,127,0);stroke-width:1" /><circle cx="5.327716" cy="12.110956" r="3.749996" style="fill:rgb(0,127,0);stroke-width:1" /><circle cx="2.663836" cy="9.447187" r="3.750008" style="fill:rgb(0,127,0);stroke-width:1" /><circle cx="750.000000" cy="750.000000" r="3.749996" style="fill:rgb(0,127,0);stroke-width:1" /><path stroke-linejoin="round" stroke-linecap="round" stroke="rgb(255,255,255)" stroke-width="3.749996" fill="none" d="M 0.000000 750.000000 L 750.000000 750.000000 M 0.000000 750.000000 L 0.000000 0.000000 " />

</svg>