<svg xmlns="http://www.w3.org/2000/svg" version="1.1" width = "750" height = "750" viewBox = "0 0 750 750"  shape-rendering="crispEdges">
<path stroke-linejoin="round" stroke-linecap="round" stroke="rgb(255,255,0)" stroke-width="3.749996" fill="none" d="M 74.999992 750.000000 L 0.000000 0.000000 " />
<path stroke-linejoin="round" stroke-linecap="round" stroke="rgb(63,63,63)" stroke-width="3.749996" fill="none" d="M 0.000000 0.000000 L 750.000000 750.000000 M 74.999992 750.000000 L 35.526306 0.000000 " />
<path stroke-linejoin="round" stroke-linecap="round" stroke="rgb(191,191,191)" stroke-width="3.749996" fill="none" d="M 0.000000 675.000000 L 74.999992 750.000000 M 0.000000 0.000000 L 39.473690 750.000000 " />
<path stroke-linejoin="round" stroke-linecap="round" stroke="rgb(0,0,255)" stroke-width="1.874998" fill="none" d="M 0.000000 750.000000 L 750.000000 729.166687 " />
<path stroke-linejoin="round" stroke-linecap="round" stroke="rgb(255,0,0)" stroke-width="3.749996" fill="none" d="M 74.890518 747.919678 L 74.999992 750.000000 " />
<path stroke-linejoin="round" stroke-linecap="round" stroke="rgb(0,0,255)" stroke-width="1.874998" fill="none" d="M 0.000000 750.000000 L 750.000000 707.142883 " />
<path stroke-linejoin="round" stroke-linecap="round" stroke="rgb(255,0,0)" stroke-width="3.749996" fill="none" d="M 72.810219 745.839417 L 74.890518 747.919678 " />
<path stroke-linejoin="round" stroke-linecap="round" stroke="rgb(0,0,255)" stroke-width="1.874998" fill="none" d="M 0.000000 750.000000 L 750.000000 683.823547 " />
<path stroke-linejoin="round" stroke-linecap="round" stroke="rgb(255,0,0)" stroke-width="3.749996" fill="none" d="M 70.729942 743.759155 L 72.810242 745.839417 " />
<path stroke-linejoin="round" stroke-linecap="round" stroke="rgb(0,0,255)" stroke-width="1.874998" fill="none" d="M 0.000000 750.000000 L 750.000000 664.285706 " />
<path stroke-linejoin="round" stroke-linecap="round" stroke="rgb(255,0,0)" stroke-width="3.749996" fill="none" d="M 69.076378 742.105530 L 70.729942 743.759155 " />
<path stroke-linejoin="round" stroke-linecap="round" stroke="rgb(0,0,255)" stroke-width="1.874998" fill="none" d="M 0.000000 750.000000 L 750.000000 639.705872 " />
<path stroke-linejoin="round" stroke-linecap="round" stroke="rgb(255,0,0)" stroke-width="3.749996" fill="none" d="M 67.102768 740.131958 L 69.076378 742.105530 " />
<path stroke-linejoin="round" stroke-linecap="round" stroke="rgb(0,0,255)" stroke-width="1.874998" fill="none" d="M 0.000000 750.000000 L 750.000000 613.636353 " />
<path stroke-linejoin="round" stroke-linecap="round" stroke="rgb(255,0,0)" stroke-width="3.749996" fill="none" d="M 65.129150 738.158325 L 67.102768 740.131958 " />
<path stroke-linejoin="round" stroke-linecap="round" stroke="rgb(0,0,255)" stroke-width="1.874998" fill="none" d="M 0.000000 750.000000 L 750.000000 595.588196 " />
<path stroke-linejoin="round" stroke-linecap="round" stroke="rgb(255,0,0)" stroke-width="3.749996" fill="none" d="M 63.829445 736.858643 L 65.129128 738.158325 " />
<path stroke-linejoin="round" stroke-linecap="round" stroke="rgb(0,0,255)" stroke-width="1.874998" fill="none" d="M 0.000000 750.000000 L 750.000000 568.181824 " />
<path stroke-linejoin="round" stroke-linecap="round" stroke="rgb(255,0,0)" stroke-width="3.749996" fill="none" d="M 61.952122 734.981323 L 63.829468 736.858643 " />
<path stroke-linejoin="round" stroke-linecap="round" stroke="rgb(0,0,255)" stroke-width="1.874998" fill="none" d="M 0.000000 750.000000 L 750.000000 551.470581 " />
<path stroke-linejoin="round" stroke-linecap="round" stroke="rgb(255,0,0)" stroke-width="3.749996" fill="none" d="M 60.860641 733.889832 L 61.952122 734.981323 " />
<path stroke-linejoin="round" stroke-linecap="round" stroke="rgb(0,0,255)" stroke-width="1.874998" fill="none" d="M 0.000000 750.000000 L 750.000000 539.062500 " />
<path stroke-linejoin="round" stroke-linecap="round" stroke="rgb(255,0,0)" stroke-width="3.749996" fill="none" d="M 60.074776 733.103943 L 60.860641 733.889832 " />
<path stroke-linejoin="round" stroke-linecap="round" stroke="rgb(0,0,255)" stroke-width="1.874998" fill="none" d="M 0.000000 750.000000 L 750.000000 508.064514 " />
<path stroke-linejoin="round" stroke-linecap="round" stroke="rgb(255,0,0)" stroke-width="3.749996" fill="none" d="M 58.197453 731.226624 L 60.074776 733.103943 " />
<path stroke-linejoin="round" stroke-linecap="round" stroke="rgb(0,0,255)" stroke-width="1.874998" fill="none" d="M 0.000000 750.000000 L 750.000000 492.187500 " />
<path stroke-linejoin="round" stroke-linecap="round" stroke="rgb(255,0,0)" stroke-width="3.749996" fill="none" d="M 57.280609 730.309814 L 58.197453 731.226624 " />
<path stroke-linejoin="round" stroke-linecap="round" stroke="rgb(0,0,255)" stroke-width="1.874998" fill="none" d="M 0.000000 750.000000 L 750.000000 475.000000 " />
<path stroke-linejoin="round" stroke-linecap="round" stroke="rgb(255,0,0)" stroke-width="3.749996" fill="none" d="M 56.320110 729.349304 L 57.280609 730.309814 " />
<path stroke-linejoin="round" stroke-linecap="round" stroke="rgb(0,0,255)" stroke-width="1.874998" fill="none" d="M 0.000000 750.000000 L 750.000000 459.677429 " />
<path stroke-linejoin="round" stroke-linecap="round" stroke="rgb(255,0,0)" stroke-width="3.749996" fill="none" d="M 55.490589 728.519775 L 56.320110 729.349304 " />
<path stroke-linejoin="round" stroke-linecap="round" stroke="rgb(0,0,255)" stroke-width="1.874998" fill="none" d="M 0.000000 750.000000 L 750.000000 439.655182 " />
<path stroke-linejoin="round" stroke-linecap="round" stroke="rgb(255,0,0)" stroke-width="3.749996" fill="none" d="M 54.442787 727.471924 L 55.490589 728.519775 " />
<path stroke-linejoin="round" stroke-linecap="round" stroke="rgb(0,0,255)" stroke-width="1.874998" fill="none" d="M 0.000000 750.000000 L 750.000000 401.785706 " />
<path stroke-linejoin="round" stroke-linecap="round" stroke="rgb(255,0,0)" stroke-width="3.749996" fill="none" d="M 52.565441 725.594604 L 54.442787 727.471924 " />
<path stroke-linejoin="round" stroke-linecap="round" stroke="rgb(0,0,255)" stroke-width="1.874998" fill="none" d="M 0.000000 750.000000 L 750.000000 387.931030 " />
<path stroke-linejoin="round" stroke-linecap="round" stroke="rgb(255,0,0)" stroke-width="3.749996" fill="none" d="M 51.910557 724.939697 L 52.565441 725.594604 " />
<path stroke-linejoin="round" stroke-linecap="round" stroke="rgb(0,0,255)" stroke-width="1.874998" fill="none" d="M 0.000000 750.000000 L 750.000000 348.214294 " />
<path stroke-linejoin="round" stroke-linecap="round" stroke="rgb(255,0,0)" stroke-width="3.749996" fill="none" d="M 50.120541 723.149719 L 51.910557 724.939697 " />
<path stroke-linejoin="round" stroke-linecap="round" stroke="rgb(0,0,255)" stroke-width="1.874998" fill="none" d="M 0.000000 750.000000 L 750.000000 336.206909 " />
<path stroke-linejoin="round" stroke-linecap="round" stroke="rgb(255,0,0)" stroke-width="3.749996" fill="none" d="M 49.603432 722.632629 L 50.120541 723.149719 " />
<path stroke-linejoin="round" stroke-linecap="round" stroke="rgb(0,0,255)" stroke-width="1.874998" fill="none" d="M 0.000000 750.000000 L 750.000000 305.555542 " />
<path stroke-linejoin="round" stroke-linecap="round" stroke="rgb(255,0,0)" stroke-width="3.749996" fill="none" d="M 48.330524 721.359680 L 49.603432 722.632629 " />
<path stroke-linejoin="round" stroke-linecap="round" stroke="rgb(0,0,255)" stroke-width="1.874998" fill="none" d="M 0.000000 750.000000 L 750.000000 294.642853 " />
<path stroke-linejoin="round" stroke-linecap="round" stroke="rgb(255,0,0)" stroke-width="3.749996" fill="none" d="M 47.892967 720.922119 L 48.330524 721.359680 " />
<path stroke-linejoin="round" stroke-linecap="round" stroke="rgb(0,0,255)" stroke-width="1.874998" fill="none" d="M 0.000000 750.000000 L 750.000000 259.615387 " />
<path stroke-linejoin="round" stroke-linecap="round" stroke="rgb(255,0,0)" stroke-width="3.749996" fill="none" d="M 46.540504 719.569641 L 47.892967 720.922119 " />
<path stroke-linejoin="round" stroke-linecap="round" stroke="rgb(0,0,255)" stroke-width="1.874998" fill="none" d="M 0.000000 750.000000 L 750.000000 249.999985 " />
<path stroke-linejoin="round" stroke-linecap="round" stroke="rgb(255,0,0)" stroke-width="3.749996" fill="none" d="M 46.182499 719.211609 L 46.540504 719.569641 " />
<path stroke-linejoin="round" stroke-linecap="round" stroke="rgb(0,0,255)" stroke-width="1.874998" fill="none" d="M 0.000000 750.000000 L 750.000000 209.999985 " />
<path stroke-linejoin="round" stroke-linecap="round" stroke="rgb(255,0,0)" stroke-width="3.749996" fill="none" d="M 44.750488 717.779663 L 46.182499 719.211609 " />
<path stroke-linejoin="round" stroke-linecap="round" stroke="rgb(0,0,255)" stroke-width="1.874998" fill="none" d="M 0.000000 750.000000 L 750.000000 201.923080 " />
<path stroke-linejoin="round" stroke-linecap="round" stroke="rgb(255,0,0)" stroke-width="3.749996" fill="none" d="M 44.472031 717.501221 L 44.750488 717.779663 " />
<path stroke-linejoin="round" stroke-linecap="round" stroke="rgb(0,0,255)" stroke-width="1.874998" fill="none" d="M 0.000000 750.000000 L 750.000000 156.249985 " />
<path stroke-linejoin="round" stroke-linecap="round" stroke="rgb(255,0,0)" stroke-width="3.749996" fill="none" d="M 42.960472 715.989624 L 44.472031 717.501221 " />
<path stroke-linejoin="round" stroke-linecap="round" stroke="rgb(0,0,255)" stroke-width="1.874998" fill="none" d="M 0.000000 750.000000 L 750.000000 149.999985 " />
<path stroke-linejoin="round" stroke-linecap="round" stroke="rgb(255,0,0)" stroke-width="3.749996" fill="none" d="M 42.761585 715.790771 L 42.960472 715.989624 " />
<path stroke-linejoin="round" stroke-linecap="round" stroke="rgb(0,0,255)" stroke-width="1.874998" fill="none" d="M 0.000000 750.000000 L 750.000000 97.826111 " />
<path stroke-linejoin="round" stroke-linecap="round" stroke="rgb(255,0,0)" stroke-width="3.749996" fill="none" d="M 41.170456 714.199646 L 42.761585 715.790771 " />
<path stroke-linejoin="round" stroke-linecap="round" stroke="rgb(0,0,255)" stroke-width="1.874998" fill="none" d="M 0.000000 750.000000 L 750.000000 34.090919 " />
<path stroke-linejoin="round" stroke-linecap="round" stroke="rgb(255,0,0)" stroke-width="3.749996" fill="none" d="M 39.380440 712.409607 L 41.170456 714.199646 " />
<path stroke-linejoin="round" stroke-linecap="round" stroke="rgb(0,0,255)" stroke-width="1.874998" fill="none" d="M 0.000000 750.000000 L 715.909058 0.000000 " />
<path stroke-linejoin="round" stroke-linecap="round" stroke="rgb(255,0,0)" stroke-width="3.749996" fill="none" d="M 37.590401 710.619568 L 39.380417 712.409607 " />
<path stroke-linejoin="round" stroke-linecap="round" stroke="rgb(0,0,255)" stroke-width="1.874998" fill="none" d="M 0.000000 750.000000 L 652.173950 0.000000 " />
<path stroke-linejoin="round" stroke-linecap="round" stroke="rgb(255,0,0)" stroke-width="3.749996" fill="none" d="M 37.220837 707.196045 L 37.590401 710.619568 " />
<path stroke-linejoin="round" stroke-linecap="round" stroke="rgb(0,0,255)" stroke-width="1.874998" fill="none" d="M 0.000000 750.000000 L 594.827576 0.000000 " />
<path stroke-linejoin="round" stroke-linecap="round" stroke="rgb(255,0,0)" stroke-width="3.749996" fill="none" d="M 37.017166 703.326172 L 37.220837 707.196045 " />
<path stroke-linejoin="round" stroke-linecap="round" stroke="rgb(0,0,255)" stroke-width="1.874998" fill="none" d="M 0.000000 750.000000 L 522.727295 0.000000 " />
<path stroke-linejoin="round" stroke-linecap="round" stroke="rgb(255,0,0)" stroke-width="3.749996" fill="none" d="M 36.702141 697.340393 L 37.017166 703.326172 " />
<path stroke-linejoin="round" stroke-linecap="round" stroke="rgb(0,0,255)" stroke-width="1.874998" fill="none" d="M 0.000000 750.000000 L 385.135132 0.000000 " />
<path stroke-linejoin="round" stroke-linecap="round" stroke="rgb(255,0,0)" stroke-width="3.749996" fill="none" d="M 35.804028 680.276367 L 36.702141 697.340393 " />
<path stroke-linejoin="round" stroke-linecap="round" stroke="rgb(0,0,255)" stroke-width="1.874998" fill="none" d="M 0.000000 750.000000 L 287.234039 0.000000 " />
<path stroke-linejoin="round" stroke-linecap="round" stroke="rgb(255,0,0)" stroke-width="3.749996" fill="none" d="M 34.704365 659.383057 L 35.804028 680.276367 " />
<path stroke-linejoin="round" stroke-linecap="round" stroke="rgb(0,0,255)" stroke-width="1.874998" fill="none" d="M 0.000000 750.000000 L 223.684204 0.000000 " />
<path stroke-linejoin="round" stroke-linecap="round" stroke="rgb(255,0,0)" stroke-width="3.749996" fill="none" d="M 33.552624 637.500000 L 34.704365 659.383057 " />
<path stroke-linejoin="round" stroke-linecap="round" stroke="rgb(0,0,255)" stroke-width="1.874998" fill="none" d="M 0.000000 750.000000 L 179.104462 0.000000 " />
<path stroke-linejoin="round" stroke-linecap="round" stroke="rgb(255,0,0)" stroke-width="3.749996" fill="none" d="M 32.345005 614.555237 L 33.552624 637.500000 " />
<path stroke-linejoin="round" stroke-linecap="round" stroke="rgb(0,0,255)" stroke-width="1.874998" fill="none" d="M 0.000000 750.000000 L 146.103897 0.000000 " />
<path stroke-linejoin="round" stroke-linecap="round" stroke="rgb(255,0,0)" stroke-width="3.749996" fill="none" d="M 31.077347 590.469604 L 32.345005 614.555237 " />
<path stroke-linejoin="round" stroke-linecap="round" stroke="rgb(0,0,255)" stroke-width="1.874998" fill="none" d="M 0.000000 750.000000 L 120.689659 0.000000 " />
<path stroke-linejoin="round" stroke-linecap="round" stroke="rgb(255,0,0)" stroke-width="3.749996" fill="none" d="M 29.745028 565.155823 L 31.077347 590.469604 " />
<path stroke-linejoin="round" stroke-linecap="round" stroke="rgb(0,0,255)" stroke-width="1.874998" fill="none" d="M 0.000000 750.000000 L 115.979385 0.000000 " />
<path stroke-linejoin="round" stroke-linecap="round" stroke="rgb(255,0,0)" stroke-width="3.749996" fill="none" d="M 29.450253 559.555054 L 29.745028 565.155823 " />
<path stroke-linejoin="round" stroke-linecap="round" stroke="rgb(0,0,255)" stroke-width="1.874998" fill="none" d="M 0.000000 750.000000 L 100.515472 0.000000 " />
<path stroke-linejoin="round" stroke-linecap="round" stroke="rgb(255,0,0)" stroke-width="3.749996" fill="none" d="M 28.343014 538.517456 L 29.450253 559.555054 " />
<path stroke-linejoin="round" stroke-linecap="round" stroke="rgb(0,0,255)" stroke-width="1.874998" fill="none" d="M 0.000000 750.000000 L 84.112152 0.000000 " />
<path stroke-linejoin="round" stroke-linecap="round" stroke="rgb(255,0,0)" stroke-width="3.749996" fill="none" d="M 26.865677 510.447815 L 28.343014 538.517456 " />
<path stroke-linejoin="round" stroke-linecap="round" stroke="rgb(0,0,255)" stroke-width="1.874998" fill="none" d="M 0.000000 750.000000 L 83.333328 0.000000 " />
<path stroke-linejoin="round" stroke-linecap="round" stroke="rgb(255,0,0)" stroke-width="3.749996" fill="none" d="M 26.785702 508.928589 L 26.865677 510.447815 " />
<path stroke-linejoin="round" stroke-linecap="round" stroke="rgb(0,0,255)" stroke-width="1.874998" fill="none" d="M 0.000000 750.000000 L 70.866150 0.000000 " />
<path stroke-linejoin="round" stroke-linecap="round" stroke="rgb(255,0,0)" stroke-width="3.749996" fill="none" d="M 25.352106 481.690125 L 26.785702 508.928589 " />
<path stroke-linejoin="round" stroke-linecap="round" stroke="rgb(0,0,255)" stroke-width="1.874998" fill="none" d="M 0.000000 750.000000 L 61.224483 0.000000 " />
<path stroke-linejoin="round" stroke-linecap="round" stroke="rgb(255,0,0)" stroke-width="3.749996" fill="none" d="M 24.000004 456.000031 L 25.352106 481.690125 " />
<path stroke-linejoin="round" stroke-linecap="round" stroke="rgb(0,0,255)" stroke-width="1.874998" fill="none" d="M 0.000000 750.000000 L 53.892216 0.000000 " />
<path stroke-linejoin="round" stroke-linecap="round" stroke="rgb(255,0,0)" stroke-width="3.749996" fill="none" d="M 22.784807 432.911407 L 24.000004 456.000031 " />
<path stroke-linejoin="round" stroke-linecap="round" stroke="rgb(0,0,255)" stroke-width="1.874998" fill="none" d="M 0.000000 750.000000 L 46.610176 0.000000 " />
<path stroke-linejoin="round" stroke-linecap="round" stroke="rgb(255,0,0)" stroke-width="3.749996" fill="none" d="M 21.373049 406.088104 L 22.784807 432.911407 " />
<path stroke-linejoin="round" stroke-linecap="round" stroke="rgb(0,0,255)" stroke-width="1.874998" fill="none" d="M 0.000000 750.000000 L 40.106960 0.000000 " />
<path stroke-linejoin="round" stroke-linecap="round" stroke="rgb(255,0,0)" stroke-width="3.749996" fill="none" d="M 19.893900 377.984131 L 21.373049 406.088135 " />
<path stroke-linejoin="round" stroke-linecap="round" stroke="rgb(0,0,255)" stroke-width="1.874998" fill="none" d="M 0.000000 750.000000 L 36.231884 0.000000 " />
<path stroke-linejoin="round" stroke-linecap="round" stroke="rgb(255,0,0)" stroke-width="3.749996" fill="none" d="M 18.891693 358.942078 L 19.893900 377.984131 " />
<path stroke-linejoin="round" stroke-linecap="round" stroke="rgb(0,0,255)" stroke-width="1.874998" fill="none" d="M 0.000000 750.000000 L 35.087719 0.000000 " />
<path stroke-linejoin="round" stroke-linecap="round" stroke="rgb(255,0,0)" stroke-width="3.749996" fill="none" d="M 18.575840 352.941223 L 18.891693 358.942078 " />
<path stroke-linejoin="round" stroke-linecap="round" stroke="rgb(0,0,255)" stroke-width="1.874998" fill="none" d="M 0.000000 750.000000 L 29.005520 0.000000 " />
<path stroke-linejoin="round" stroke-linecap="round" stroke="rgb(255,0,0)" stroke-width="3.749996" fill="none" d="M 16.719751 317.675171 L 18.575840 352.941223 " />
<path stroke-linejoin="round" stroke-linecap="round" stroke="rgb(0,0,255)" stroke-width="1.874998" fill="none" d="M 0.000000 750.000000 L 23.560211 0.000000 " />
<path stroke-linejoin="round" stroke-linecap="round" stroke="rgb(255,0,0)" stroke-width="3.749996" fill="none" d="M 14.754094 280.327911 L 16.719751 317.675171 " />
<path stroke-linejoin="round" stroke-linecap="round" stroke="rgb(0,0,255)" stroke-width="1.874998" fill="none" d="M 0.000000 750.000000 L 21.327003 0.000000 " />
<path stroke-linejoin="round" stroke-linecap="round" stroke="rgb(255,0,0)" stroke-width="3.749996" fill="none" d="M 13.846144 263.076965 L 14.754094 280.327911 " />
<path stroke-linejoin="round" stroke-linecap="round" stroke="rgb(0,0,255)" stroke-width="1.874998" fill="none" d="M 0.000000 750.000000 L 19.480526 0.000000 " />
<path stroke-linejoin="round" stroke-linecap="round" stroke="rgb(255,0,0)" stroke-width="3.749996" fill="none" d="M 13.043470 247.826141 L 13.846144 263.076965 " />
<path stroke-linejoin="round" stroke-linecap="round" stroke="rgb(0,0,255)" stroke-width="1.874998" fill="none" d="M 0.000000 750.000000 L 17.928288 0.000000 " />
<path stroke-linejoin="round" stroke-linecap="round" stroke="rgb(255,0,0)" stroke-width="3.749996" fill="none" d="M 12.328773 234.246658 L 13.043470 247.826141 " />
<path stroke-linejoin="round" stroke-linecap="round" stroke="rgb(0,0,255)" stroke-width="1.874998" fill="none" d="M 0.000000 750.000000 L 14.367811 0.000000 " />
<path stroke-linejoin="round" stroke-linecap="round" stroke="rgb(255,0,0)" stroke-width="3.749996" fill="none" d="M 10.533706 200.140472 L 12.328773 234.246658 " />
<path stroke-linejoin="round" stroke-linecap="round" stroke="rgb(0,0,255)" stroke-width="1.874998" fill="none" d="M 0.000000 750.000000 L 11.070103 0.000000 " />
<path stroke-linejoin="round" stroke-linecap="round" stroke="rgb(255,0,0)" stroke-width="3.749996" fill="none" d="M 8.645542 164.265137 L 10.533706 200.140472 " />
<path stroke-linejoin="round" stroke-linecap="round" stroke="rgb(0,0,255)" stroke-width="1.874998" fill="none" d="M 0.000000 750.000000 L 10.309272 0.000000 " />
<path stroke-linejoin="round" stroke-linecap="round" stroke="rgb(255,0,0)" stroke-width="3.749996" fill="none" d="M 8.174390 155.313354 L 8.645542 164.265137 " />
<path stroke-linejoin="round" stroke-linecap="round" stroke="rgb(0,0,255)" stroke-width="1.874998" fill="none" d="M 0.000000 750.000000 L 9.646297 0.000000 " />
<path stroke-linejoin="round" stroke-linecap="round" stroke="rgb(255,0,0)" stroke-width="3.749996" fill="none" d="M 7.751942 147.286819 L 8.174390 155.313354 " />
<path stroke-linejoin="round" stroke-linecap="round" stroke="rgb(0,0,255)" stroke-width="1.874998" fill="none" d="M 0.000000 750.000000 L 9.523809 0.000000 " />
<path stroke-linejoin="round" stroke-linecap="round" stroke="rgb(255,0,0)" stroke-width="3.749996" fill="none" d="M 7.672638 145.780075 L 7.751942 147.286819 " />
<path stroke-linejoin="round" stroke-linecap="round" stroke="rgb(0,0,255)" stroke-width="1.874998" fill="none" d="M 0.000000 750.000000 L 9.404384 0.000000 " />
<path stroke-linejoin="round" stroke-linecap="round" stroke="rgb(255,0,0)" stroke-width="3.749996" fill="none" d="M 7.594943 144.303787 L 7.672638 145.780075 " />
<path stroke-linejoin="round" stroke-linecap="round" stroke="rgb(0,0,255)" stroke-width="1.874998" fill="none" d="M 0.000000 750.000000 L 9.202458 0.000000 " />
<path stroke-linejoin="round" stroke-linecap="round" stroke="rgb(255,0,0)" stroke-width="3.749996" fill="none" d="M 7.462688 141.791000 L 7.594943 144.303787 " />
<path stroke-linejoin="round" stroke-linecap="round" stroke="rgb(0,0,255)" stroke-width="1.874998" fill="none" d="M 0.000000 750.000000 L 5.905509 0.000000 " />
<path stroke-linejoin="round" stroke-linecap="round" stroke="rgb(255,0,0)" stroke-width="3.749996" fill="none" d="M 5.136989 97.602722 L 7.462688 141.791000 " />
<path stroke-linejoin="round" stroke-linecap="round" stroke="rgb(0,0,255)" stroke-width="1.874998" fill="none" d="M 0.000000 750.000000 L 2.840906 0.000000 " />
<path stroke-linejoin="round" stroke-linecap="round" stroke="rgb(255,0,0)" stroke-width="3.749996" fill="none" d="M 2.650179 50.353424 L 5.136989 97.602722 " />
<path stroke-linejoin="round" stroke-linecap="round" stroke="rgb(0,0,255)" stroke-width="1.874998" fill="none" d="M 0.000000 750.000000 L 0.000000 0.000000 " />
<path stroke-linejoin="round" stroke-linecap="round" stroke="rgb(255,0,0)" stroke-width="3.749996" fill="none" d="M 0.000000 0.000000 L 2.650179 50.353424 " />
<circle cx="74.890517" cy="747.919723" r="3.749996" style="fill:rgb(0,127,0);stroke-width:1" /><circle cx="72.810218" cy="745.839424" r="3.749996" style="fill:rgb(0,127,0);stroke-width:1" /><circle cx="70.729941" cy="743.759125" r="3.749996" style="fill:rgb(0,127,0);stroke-width:1" /><circle cx="69.076382" cy="742.105566" r="3.749996" style="fill:rgb(0,127,0);stroke-width:1" /><circle cx="67.102768" cy="740.131952" r="3.749996" style="fill:rgb(0,127,0);stroke-width:1" /><circle cx="65.129153" cy="738.158338" r="3.749996" style="fill:rgb(0,127,0);stroke-width:1" /><circle cx="63.829444" cy="736.858651" r="3.749996" style="fill:rgb(0,127,0);stroke-width:1" /><circle cx="61.952122" cy="734.981306" r="3.749996" style="fill:rgb(0,127,0);stroke-width:1" /><circle cx="60.860641" cy="733.889826" r="3.749996" style="fill:rgb(0,127,0);stroke-width:1" /><circle cx="60.074776" cy="733.103961" r="3.749996" style="fill:rgb(0,127,0);stroke-width:1" /><circle cx="58.197454" cy="731.226638" r="3.749996" style="fill:rgb(0,127,0);stroke-width:1" /><circle cx="57.280608" cy="730.309792" r="3.749996" style="fill:rgb(0,127,0);stroke-width:1" /><circle cx="56.320108" cy="729.349293" r="3.749996" style="fill:rgb(0,127,0);stroke-width:1" /><circle cx="55.490591" cy="728.519775" r="3.749996" style="fill:rgb(0,127,0);stroke-width:1" /><circle cx="54.442786" cy="727.471948" r="3.749996" style="fill:rgb(0,127,0);stroke-width:1" /><circle cx="52.565441" cy="725.594625" r="3.749996" style="fill:rgb(0,127,0);stroke-width:1" /><circle cx="51.910557" cy="724.939719" r="3.749996" style="fill:rgb(0,127,0);stroke-width:1" /><circle cx="50.120540" cy="723.149702" r="3.749996" style="fill:rgb(0,127,0);stroke-width:1" /><circle cx="49.603432" cy="722.632594" r="3.749996" style="fill:rgb(0,127,0);stroke-width:1" /><circle cx="48.330523" cy="721.359685" r="3.749996" style="fill:rgb(0,127,0);stroke-width:1" /><circle cx="47.892965" cy="720.922127" r="3.749996" style="fill:rgb(0,127,0);stroke-width:1" /><circle cx="46.540506" cy="719.569668" r="3.749996" style="fill:rgb(0,127,0);stroke-width:1" /><circle cx="46.182498" cy="719.211660" r="3.749996" style="fill:rgb(0,127,0);stroke-width:1" /><circle cx="44.750489" cy="717.779651" r="3.749996" style="fill:rgb(0,127,0);stroke-width:1" /><circle cx="44.472031" cy="717.501193" r="3.749996" style="fill:rgb(0,127,0);stroke-width:1" /><circle cx="42.960472" cy="715.989634" r="3.749996" style="fill:rgb(0,127,0);stroke-width:1" /><circle cx="42.761587" cy="715.790749" r="3.749996" style="fill:rgb(0,127,0);stroke-width:1" /><circle cx="41.170456" cy="714.199618" r="3.749996" style="fill:rgb(0,127,0);stroke-width:1" /><circle cx="39.380439" cy="712.409601" r="3.749996" style="fill:rgb(0,127,0);stroke-width:1" /><circle cx="37.590399" cy="710.619561" r="3.749996" style="fill:rgb(0,127,0);stroke-width:1" /><circle cx="37.220836" cy="707.196034" r="3.749996" style="fill:rgb(0,127,0);stroke-width:1" /><circle cx="37.017167" cy="703.326166" r="3.749996" style="fill:rgb(0,127,0);stroke-width:1" /><circle cx="36.702141" cy="697.340414" r="3.749996" style="fill:rgb(0,127,0);stroke-width:1" /><circle cx="35.804026" cy="680.276379" r="3.749996" style="fill:rgb(0,127,0);stroke-width:1" /><circle cx="34.704365" cy="659.383044" r="3.749996" style="fill:rgb(0,127,0);stroke-width:1" /><circle cx="33.552624" cy="637.499996" r="3.749996" style="fill:rgb(0,127,0);stroke-width:1" /><circle cx="32.345004" cy="614.555262" r="3.749996" style="fill:rgb(0,127,0);stroke-width:1" /><circle cx="31.077348" cy="590.469651" r="3.749996" style="fill:rgb(0,127,0);stroke-width:1" /><circle cx="29.745027" cy="565.155834" r="3.749996" style="fill:rgb(0,127,0);stroke-width:1" /><circle cx="29.450253" cy="559.555002" r="3.749996" style="fill:rgb(0,127,0);stroke-width:1" /><circle cx="28.343014" cy="538.517475" r="3.749996" style="fill:rgb(0,127,0);stroke-width:1" /><circle cx="26.865676" cy="510.447800" r="3.749996" style="fill:rgb(0,127,0);stroke-width:1" /><circle cx="26.785702" cy="508.928597" r="3.749996" style="fill:rgb(0,127,0);stroke-width:1" /><circle cx="25.352105" cy="481.690161" r="3.749996" style="fill:rgb(0,127,0);stroke-width:1" /><circle cx="24.000004" cy="456.000013" r="3.749996" style="fill:rgb(0,127,0);stroke-width:1" /><circle cx="22.784807" cy="432.911396" r="3.749996" style="fill:rgb(0,127,0);stroke-width:1" /><circle cx="21.373048" cy="406.088091" r="3.749996" style="fill:rgb(0,127,0);stroke-width:1" /><circle cx="19.893900" cy="377.984119" r="3.749996" style="fill:rgb(0,127,0);stroke-width:1" /><circle cx="18.891692" cy="358.942080" r="3.749996" style="fill:rgb(0,127,0);stroke-width:1" /><circle cx="18.575840" cy="352.941227" r="3.749996" style="fill:rgb(0,127,0);stroke-width:1" /><circle cx="16.719751" cy="317.675186" r="3.749996" style="fill:rgb(0,127,0);stroke-width:1" /><circle cx="14.754094" cy="280.327924" r="3.749996" style="fill:rgb(0,127,0);stroke-width:1" /><circle cx="13.846144" cy="263.076961" r="3.749996" style="fill:rgb(0,127,0);stroke-width:1" /><circle cx="13.043471" cy="247.826133" r="3.749996" style="fill:rgb(0,127,0);stroke-width:1" /><circle cx="12.328774" cy="234.246645" r="3.749996" style="fill:rgb(0,127,0);stroke-width:1" /><circle cx="10.533705" cy="200.140469" r="3.749996" style="fill:rgb(0,127,0);stroke-width:1" /><circle cx="8.645542" cy="164.265141" r="3.749996" style="fill:rgb(0,127,0);stroke-width:1" /><circle cx="8.174390" cy="155.313358" r="3.749996" style="fill:rgb(0,127,0);stroke-width:1" /><circle cx="7.751942" cy="147.286825" r="3.749996" style="fill:rgb(0,127,0);stroke-width:1" /><circle cx="7.672638" cy="145.780072" r="3.749996" style="fill:rgb(0,127,0);stroke-width:1" /><circle cx="7.594943" cy="144.303784" r="3.749996" style="fill:rgb(0,127,0);stroke-width:1" /><circle cx="7.462688" cy="141.791001" r="3.749996" style="fill:rgb(0,127,0);stroke-width:1" /><circle cx="5.136989" cy="97.602725" r="3.749996" style="fill:rgb(0,127,0);stroke-width:1" /><circle cx="2.650157" cy="50.353423" r="3.750008" style="fill:rgb(0,127,0);stroke-width:1" /><circle cx="750.000000" cy="750.000000" r="3.749996" style="fill:rgb(0,127,0);stroke-width:1" /><path stroke-linejoin="round" stroke-linecap="round" stroke="rgb(255,255,255)" stroke-width="3.749996" fill="none" d="M 0.000000 750.000000 L 750.000000 750.000000 M 0.000000 750.000000 L 0.000000 0.000000 " />

</svg>