<svg xmlns="http://www.w3.org/2000/svg" version="1.1" width = "750" height = "750" viewBox = "0 0 750 750"  shape-rendering="crispEdges">
<path stroke-linejoin="round" stroke-linecap="round" stroke="rgb(255,255,0)" stroke-width="3.749996" fill="none" d="M 187.500000 750.000000 L 0.000000 0.000000 " />
<path stroke-linejoin="round" stroke-linecap="round" stroke="rgb(63,63,63)" stroke-width="3.749996" fill="none" d="M 0.000000 0.000000 L 750.000000 750.000000 M 187.500000 750.000000 L 80.357147 0.000000 " />
<path stroke-linejoin="round" stroke-linecap="round" stroke="rgb(191,191,191)" stroke-width="3.749996" fill="none" d="M 0.000000 562.500000 L 187.500000 750.000000 M 0.000000 0.000000 L 107.142853 750.000000 " />
<path stroke-linejoin="round" stroke-linecap="round" stroke="rgb(0,0,255)" stroke-width="1.874998" fill="none" d="M 0.000000 750.000000 L 750.000000 733.333313 " />
<path stroke-linejoin="round" stroke-linecap="round" stroke="rgb(255,0,0)" stroke-width="3.749996" fill="none" d="M 186.906647 745.846497 L 187.500000 750.000000 " />
<path stroke-linejoin="round" stroke-linecap="round" stroke="rgb(0,0,255)" stroke-width="1.874998" fill="none" d="M 0.000000 750.000000 L 750.000000 715.909058 " />
<path stroke-linejoin="round" stroke-linecap="round" stroke="rgb(255,0,0)" stroke-width="3.749996" fill="none" d="M 182.753159 741.692993 L 186.906647 745.846497 " />
<path stroke-linejoin="round" stroke-linecap="round" stroke="rgb(0,0,255)" stroke-width="1.874998" fill="none" d="M 0.000000 750.000000 L 750.000000 697.674377 " />
<path stroke-linejoin="round" stroke-linecap="round" stroke="rgb(255,0,0)" stroke-width="3.749996" fill="none" d="M 178.599670 737.539551 L 182.753159 741.692993 " />
<path stroke-linejoin="round" stroke-linecap="round" stroke="rgb(0,0,255)" stroke-width="1.874998" fill="none" d="M 0.000000 750.000000 L 750.000000 681.818176 " />
<path stroke-linejoin="round" stroke-linecap="round" stroke="rgb(255,0,0)" stroke-width="3.749996" fill="none" d="M 175.138412 734.078308 L 178.599625 737.539551 " />
<path stroke-linejoin="round" stroke-linecap="round" stroke="rgb(0,0,255)" stroke-width="1.874998" fill="none" d="M 0.000000 750.000000 L 750.000000 678.571411 " />
<path stroke-linejoin="round" stroke-linecap="round" stroke="rgb(255,0,0)" stroke-width="3.749996" fill="none" d="M 174.446152 733.386108 L 175.138412 734.078308 " />
<path stroke-linejoin="round" stroke-linecap="round" stroke="rgb(0,0,255)" stroke-width="1.874998" fill="none" d="M 0.000000 750.000000 L 750.000000 658.536560 " />
<path stroke-linejoin="round" stroke-linecap="round" stroke="rgb(255,0,0)" stroke-width="3.749996" fill="none" d="M 170.292664 729.232605 L 174.446136 733.386108 " />
<path stroke-linejoin="round" stroke-linecap="round" stroke="rgb(0,0,255)" stroke-width="1.874998" fill="none" d="M 0.000000 750.000000 L 750.000000 642.857178 " />
<path stroke-linejoin="round" stroke-linecap="round" stroke="rgb(255,0,0)" stroke-width="3.749996" fill="none" d="M 167.177567 726.117493 L 170.292664 729.232605 " />
<path stroke-linejoin="round" stroke-linecap="round" stroke="rgb(0,0,255)" stroke-width="1.874998" fill="none" d="M 0.000000 750.000000 L 750.000000 637.500000 " />
<path stroke-linejoin="round" stroke-linecap="round" stroke="rgb(255,0,0)" stroke-width="3.749996" fill="none" d="M 166.139206 725.079163 L 167.177567 726.117493 " />
<path stroke-linejoin="round" stroke-linecap="round" stroke="rgb(0,0,255)" stroke-width="1.874998" fill="none" d="M 0.000000 750.000000 L 750.000000 615.384644 " />
<path stroke-linejoin="round" stroke-linecap="round" stroke="rgb(255,0,0)" stroke-width="3.749996" fill="none" d="M 161.985718 720.925659 L 166.139206 725.079163 " />
<path stroke-linejoin="round" stroke-linecap="round" stroke="rgb(0,0,255)" stroke-width="1.874998" fill="none" d="M 0.000000 750.000000 L 750.000000 592.105225 " />
<path stroke-linejoin="round" stroke-linecap="round" stroke="rgb(255,0,0)" stroke-width="3.749996" fill="none" d="M 157.832214 716.772156 L 161.985687 720.925659 " />
<path stroke-linejoin="round" stroke-linecap="round" stroke="rgb(0,0,255)" stroke-width="1.874998" fill="none" d="M 0.000000 750.000000 L 750.000000 567.567566 " />
<path stroke-linejoin="round" stroke-linecap="round" stroke="rgb(255,0,0)" stroke-width="3.749996" fill="none" d="M 153.678726 712.618652 L 157.832214 716.772156 " />
<path stroke-linejoin="round" stroke-linecap="round" stroke="rgb(0,0,255)" stroke-width="1.874998" fill="none" d="M 0.000000 750.000000 L 750.000000 541.666687 " />
<path stroke-linejoin="round" stroke-linecap="round" stroke="rgb(255,0,0)" stroke-width="3.749996" fill="none" d="M 149.525238 708.465210 L 153.678726 712.618652 " />
<path stroke-linejoin="round" stroke-linecap="round" stroke="rgb(0,0,255)" stroke-width="1.874998" fill="none" d="M 0.000000 750.000000 L 750.000000 514.285706 " />
<path stroke-linejoin="round" stroke-linecap="round" stroke="rgb(255,0,0)" stroke-width="3.749996" fill="none" d="M 145.371765 704.311707 L 149.525238 708.465210 " />
<path stroke-linejoin="round" stroke-linecap="round" stroke="rgb(0,0,255)" stroke-width="1.874998" fill="none" d="M 0.000000 750.000000 L 750.000000 499.999969 " />
<path stroke-linejoin="round" stroke-linecap="round" stroke="rgb(255,0,0)" stroke-width="3.749996" fill="none" d="M 143.295029 702.234985 L 145.371765 704.311707 " />
<path stroke-linejoin="round" stroke-linecap="round" stroke="rgb(0,0,255)" stroke-width="1.874998" fill="none" d="M 0.000000 750.000000 L 750.000000 485.294128 " />
<path stroke-linejoin="round" stroke-linecap="round" stroke="rgb(255,0,0)" stroke-width="3.749996" fill="none" d="M 141.218307 700.158264 L 143.295029 702.234985 " />
<path stroke-linejoin="round" stroke-linecap="round" stroke="rgb(0,0,255)" stroke-width="1.874998" fill="none" d="M 0.000000 750.000000 L 750.000000 471.428558 " />
<path stroke-linejoin="round" stroke-linecap="round" stroke="rgb(255,0,0)" stroke-width="3.749996" fill="none" d="M 139.314606 698.254578 L 141.218307 700.158264 " />
<path stroke-linejoin="round" stroke-linecap="round" stroke="rgb(0,0,255)" stroke-width="1.874998" fill="none" d="M 0.000000 750.000000 L 750.000000 454.545471 " />
<path stroke-linejoin="round" stroke-linecap="round" stroke="rgb(255,0,0)" stroke-width="3.749996" fill="none" d="M 137.064819 696.004761 L 139.314606 698.254578 " />
<path stroke-linejoin="round" stroke-linecap="round" stroke="rgb(0,0,255)" stroke-width="1.874998" fill="none" d="M 0.000000 750.000000 L 750.000000 421.875000 " />
<path stroke-linejoin="round" stroke-linecap="round" stroke="rgb(255,0,0)" stroke-width="3.749996" fill="none" d="M 132.911331 691.851318 L 137.064819 696.004761 " />
<path stroke-linejoin="round" stroke-linecap="round" stroke="rgb(0,0,255)" stroke-width="1.874998" fill="none" d="M 0.000000 750.000000 L 750.000000 409.090881 " />
<path stroke-linejoin="round" stroke-linecap="round" stroke="rgb(255,0,0)" stroke-width="3.749996" fill="none" d="M 131.353760 690.293762 L 132.911331 691.851318 " />
<path stroke-linejoin="round" stroke-linecap="round" stroke="rgb(0,0,255)" stroke-width="1.874998" fill="none" d="M 0.000000 750.000000 L 750.000000 375.000000 " />
<path stroke-linejoin="round" stroke-linecap="round" stroke="rgb(255,0,0)" stroke-width="3.749996" fill="none" d="M 127.373367 686.313293 L 131.353760 690.293762 " />
<path stroke-linejoin="round" stroke-linecap="round" stroke="rgb(0,0,255)" stroke-width="1.874998" fill="none" d="M 0.000000 750.000000 L 750.000000 363.636383 " />
<path stroke-linejoin="round" stroke-linecap="round" stroke="rgb(255,0,0)" stroke-width="3.749996" fill="none" d="M 126.099632 685.039551 L 127.373367 686.313293 " />
<path stroke-linejoin="round" stroke-linecap="round" stroke="rgb(0,0,255)" stroke-width="1.874998" fill="none" d="M 0.000000 750.000000 L 750.000000 338.709656 " />
<path stroke-linejoin="round" stroke-linecap="round" stroke="rgb(255,0,0)" stroke-width="3.749996" fill="none" d="M 123.392944 682.332886 L 126.099632 685.039551 " />
<path stroke-linejoin="round" stroke-linecap="round" stroke="rgb(0,0,255)" stroke-width="1.874998" fill="none" d="M 0.000000 750.000000 L 750.000000 328.125000 " />
<path stroke-linejoin="round" stroke-linecap="round" stroke="rgb(255,0,0)" stroke-width="3.749996" fill="none" d="M 122.278419 681.218384 L 123.392944 682.332886 " />
<path stroke-linejoin="round" stroke-linecap="round" stroke="rgb(0,0,255)" stroke-width="1.874998" fill="none" d="M 0.000000 750.000000 L 750.000000 242.647064 " />
<path stroke-linejoin="round" stroke-linecap="round" stroke="rgb(255,0,0)" stroke-width="3.749996" fill="none" d="M 120.462967 668.510315 L 122.278419 681.218384 " />
<path stroke-linejoin="round" stroke-linecap="round" stroke="rgb(0,0,255)" stroke-width="1.874998" fill="none" d="M 0.000000 750.000000 L 750.000000 25.000021 " />
<path stroke-linejoin="round" stroke-linecap="round" stroke="rgb(255,0,0)" stroke-width="3.749996" fill="none" d="M 116.074966 637.794189 L 120.462967 668.510315 " />
<path stroke-linejoin="round" stroke-linecap="round" stroke="rgb(0,0,255)" stroke-width="1.874998" fill="none" d="M 0.000000 750.000000 L 750.000000 0.000000 " />
<path stroke-linejoin="round" stroke-linecap="round" stroke="rgb(255,0,0)" stroke-width="3.749996" fill="none" d="M 114.140373 635.859619 L 116.074966 637.794189 " />
<path stroke-linejoin="round" stroke-linecap="round" stroke="rgb(0,0,255)" stroke-width="1.874998" fill="none" d="M 0.000000 750.000000 L 698.275879 0.000000 " />
<path stroke-linejoin="round" stroke-linecap="round" stroke="rgb(255,0,0)" stroke-width="3.749996" fill="none" d="M 110.063957 631.783142 L 114.140373 635.859619 " />
<path stroke-linejoin="round" stroke-linecap="round" stroke="rgb(0,0,255)" stroke-width="1.874998" fill="none" d="M 0.000000 750.000000 L 696.428528 0.000000 " />
<path stroke-linejoin="round" stroke-linecap="round" stroke="rgb(255,0,0)" stroke-width="3.749996" fill="none" d="M 109.912949 631.632202 L 110.063957 631.783142 " />
<path stroke-linejoin="round" stroke-linecap="round" stroke="rgb(0,0,255)" stroke-width="1.874998" fill="none" d="M 0.000000 750.000000 L 650.000000 0.000000 " />
<path stroke-linejoin="round" stroke-linecap="round" stroke="rgb(255,0,0)" stroke-width="3.749996" fill="none" d="M 105.987488 627.706726 L 109.912949 631.632202 " />
<path stroke-linejoin="round" stroke-linecap="round" stroke="rgb(0,0,255)" stroke-width="1.874998" fill="none" d="M 0.000000 750.000000 L 604.838684 0.000000 " />
<path stroke-linejoin="round" stroke-linecap="round" stroke="rgb(255,0,0)" stroke-width="3.749996" fill="none" d="M 101.911072 623.630310 L 105.987488 627.706726 " />
<path stroke-linejoin="round" stroke-linecap="round" stroke="rgb(0,0,255)" stroke-width="1.874998" fill="none" d="M 0.000000 750.000000 L 500.000000 0.000000 " />
<path stroke-linejoin="round" stroke-linecap="round" stroke="rgb(255,0,0)" stroke-width="3.749996" fill="none" d="M 98.793762 601.809326 L 101.911072 623.630310 " />
<path stroke-linejoin="round" stroke-linecap="round" stroke="rgb(0,0,255)" stroke-width="1.874998" fill="none" d="M 0.000000 750.000000 L 466.216217 0.000000 " />
<path stroke-linejoin="round" stroke-linecap="round" stroke="rgb(255,0,0)" stroke-width="3.749996" fill="none" d="M 94.677376 597.692932 L 98.793762 601.809326 " />
<path stroke-linejoin="round" stroke-linecap="round" stroke="rgb(0,0,255)" stroke-width="1.874998" fill="none" d="M 0.000000 750.000000 L 434.210510 0.000000 " />
<path stroke-linejoin="round" stroke-linecap="round" stroke="rgb(255,0,0)" stroke-width="3.749996" fill="none" d="M 90.560966 593.576538 L 94.677376 597.692932 " />
<path stroke-linejoin="round" stroke-linecap="round" stroke="rgb(0,0,255)" stroke-width="1.874998" fill="none" d="M 0.000000 750.000000 L 403.846161 0.000000 " />
<path stroke-linejoin="round" stroke-linecap="round" stroke="rgb(255,0,0)" stroke-width="3.749996" fill="none" d="M 86.444557 589.460144 L 90.560966 593.576538 " />
<path stroke-linejoin="round" stroke-linecap="round" stroke="rgb(0,0,255)" stroke-width="1.874998" fill="none" d="M 0.000000 750.000000 L 384.146332 0.000000 " />
<path stroke-linejoin="round" stroke-linecap="round" stroke="rgb(255,0,0)" stroke-width="3.749996" fill="none" d="M 83.776588 586.436157 L 86.444557 589.460144 " />
<path stroke-linejoin="round" stroke-linecap="round" stroke="rgb(0,0,255)" stroke-width="1.874998" fill="none" d="M 0.000000 750.000000 L 357.142883 0.000000 " />
<path stroke-linejoin="round" stroke-linecap="round" stroke="rgb(255,0,0)" stroke-width="3.749996" fill="none" d="M 82.417580 576.923157 L 83.776588 586.436218 " />
<path stroke-linejoin="round" stroke-linecap="round" stroke="rgb(0,0,255)" stroke-width="1.874998" fill="none" d="M 0.000000 750.000000 L 340.909088 0.000000 " />
<path stroke-linejoin="round" stroke-linecap="round" stroke="rgb(255,0,0)" stroke-width="3.749996" fill="none" d="M 81.521721 570.652161 L 82.417580 576.923157 " />
<path stroke-linejoin="round" stroke-linecap="round" stroke="rgb(0,0,255)" stroke-width="1.874998" fill="none" d="M 0.000000 750.000000 L 316.666656 0.000000 " />
<path stroke-linejoin="round" stroke-linecap="round" stroke="rgb(255,0,0)" stroke-width="3.749996" fill="none" d="M 80.056160 560.393311 L 81.521721 570.652161 " />
<path stroke-linejoin="round" stroke-linecap="round" stroke="rgb(0,0,255)" stroke-width="1.874998" fill="none" d="M 0.000000 750.000000 L 293.478271 0.000000 " />
<path stroke-linejoin="round" stroke-linecap="round" stroke="rgb(255,0,0)" stroke-width="3.749996" fill="none" d="M 78.488365 549.418640 L 80.056160 560.393311 " />
<path stroke-linejoin="round" stroke-linecap="round" stroke="rgb(0,0,255)" stroke-width="1.874998" fill="none" d="M 0.000000 750.000000 L 271.276581 0.000000 " />
<path stroke-linejoin="round" stroke-linecap="round" stroke="rgb(255,0,0)" stroke-width="3.749996" fill="none" d="M 76.807220 537.650635 L 78.488365 549.418640 " />
<path stroke-linejoin="round" stroke-linecap="round" stroke="rgb(0,0,255)" stroke-width="1.874998" fill="none" d="M 0.000000 750.000000 L 260.204102 0.000000 " />
<path stroke-linejoin="round" stroke-linecap="round" stroke="rgb(255,0,0)" stroke-width="3.749996" fill="none" d="M 75.892860 531.250000 L 76.807220 537.650574 " />
<path stroke-linejoin="round" stroke-linecap="round" stroke="rgb(0,0,255)" stroke-width="1.874998" fill="none" d="M 0.000000 750.000000 L 259.615387 0.000000 " />
<path stroke-linejoin="round" stroke-linecap="round" stroke="rgb(255,0,0)" stroke-width="3.749996" fill="none" d="M 75.842682 530.898926 L 75.892860 531.250000 " />
<path stroke-linejoin="round" stroke-linecap="round" stroke="rgb(0,0,255)" stroke-width="1.874998" fill="none" d="M 0.000000 750.000000 L 250.000000 0.000000 " />
<path stroke-linejoin="round" stroke-linecap="round" stroke="rgb(255,0,0)" stroke-width="3.749996" fill="none" d="M 74.999969 525.000061 L 75.842682 530.898926 " />
<path stroke-linejoin="round" stroke-linecap="round" stroke="rgb(0,0,255)" stroke-width="1.874998" fill="none" d="M 0.000000 750.000000 L 231.818192 0.000000 " />
<path stroke-linejoin="round" stroke-linecap="round" stroke="rgb(255,0,0)" stroke-width="3.749996" fill="none" d="M 73.275848 512.931152 L 74.999969 525.000061 " />
<path stroke-linejoin="round" stroke-linecap="round" stroke="rgb(0,0,255)" stroke-width="1.874998" fill="none" d="M 0.000000 750.000000 L 223.684204 0.000000 " />
<path stroke-linejoin="round" stroke-linecap="round" stroke="rgb(255,0,0)" stroke-width="3.749996" fill="none" d="M 72.443161 507.102356 L 73.275826 512.931152 " />
<path stroke-linejoin="round" stroke-linecap="round" stroke="rgb(0,0,255)" stroke-width="1.874998" fill="none" d="M 0.000000 750.000000 L 216.101685 0.000000 " />
<path stroke-linejoin="round" stroke-linecap="round" stroke="rgb(255,0,0)" stroke-width="3.749996" fill="none" d="M 71.629173 501.404633 L 72.443161 507.102356 " />
<path stroke-linejoin="round" stroke-linecap="round" stroke="rgb(0,0,255)" stroke-width="1.874998" fill="none" d="M 0.000000 750.000000 L 209.016388 0.000000 " />
<path stroke-linejoin="round" stroke-linecap="round" stroke="rgb(255,0,0)" stroke-width="3.749996" fill="none" d="M 70.833298 495.833466 L 71.629173 501.404633 " />
<path stroke-linejoin="round" stroke-linecap="round" stroke="rgb(0,0,255)" stroke-width="1.874998" fill="none" d="M 0.000000 750.000000 L 193.548386 0.000000 " />
<path stroke-linejoin="round" stroke-linecap="round" stroke="rgb(255,0,0)" stroke-width="3.749996" fill="none" d="M 68.965469 482.758820 L 70.833298 495.833527 " />
<path stroke-linejoin="round" stroke-linecap="round" stroke="rgb(0,0,255)" stroke-width="1.874998" fill="none" d="M 0.000000 750.000000 L 187.500000 0.000000 " />
<path stroke-linejoin="round" stroke-linecap="round" stroke="rgb(255,0,0)" stroke-width="3.749996" fill="none" d="M 68.181778 477.272888 L 68.965469 482.758820 " />
<path stroke-linejoin="round" stroke-linecap="round" stroke="rgb(0,0,255)" stroke-width="1.874998" fill="none" d="M 0.000000 750.000000 L 181.818192 0.000000 " />
<path stroke-linejoin="round" stroke-linecap="round" stroke="rgb(255,0,0)" stroke-width="3.749996" fill="none" d="M 67.415695 471.910278 L 68.181778 477.272888 " />
<path stroke-linejoin="round" stroke-linecap="round" stroke="rgb(0,0,255)" stroke-width="1.874998" fill="none" d="M 0.000000 750.000000 L 167.910446 0.000000 " />
<path stroke-linejoin="round" stroke-linecap="round" stroke="rgb(255,0,0)" stroke-width="3.749996" fill="none" d="M 65.406921 457.849060 L 67.415695 471.910278 " />
<path stroke-linejoin="round" stroke-linecap="round" stroke="rgb(0,0,255)" stroke-width="1.874998" fill="none" d="M 0.000000 750.000000 L 163.043488 0.000000 " />
<path stroke-linejoin="round" stroke-linecap="round" stroke="rgb(255,0,0)" stroke-width="3.749996" fill="none" d="M 64.655121 452.586487 L 65.406921 457.849091 " />
<path stroke-linejoin="round" stroke-linecap="round" stroke="rgb(0,0,255)" stroke-width="1.874998" fill="none" d="M 0.000000 750.000000 L 149.999985 0.000000 " />
<path stroke-linejoin="round" stroke-linecap="round" stroke="rgb(255,0,0)" stroke-width="3.749996" fill="none" d="M 62.499939 437.500244 L 64.655121 452.586487 " />
<path stroke-linejoin="round" stroke-linecap="round" stroke="rgb(0,0,255)" stroke-width="1.874998" fill="none" d="M 0.000000 750.000000 L 145.833328 0.000000 " />
<path stroke-linejoin="round" stroke-linecap="round" stroke="rgb(255,0,0)" stroke-width="3.749996" fill="none" d="M 61.764656 432.353180 L 62.499939 437.500244 " />
<path stroke-linejoin="round" stroke-linecap="round" stroke="rgb(0,0,255)" stroke-width="1.874998" fill="none" d="M 0.000000 750.000000 L 141.891891 0.000000 " />
<path stroke-linejoin="round" stroke-linecap="round" stroke="rgb(255,0,0)" stroke-width="3.749996" fill="none" d="M 61.046452 427.325867 L 61.764656 432.353180 " />
<path stroke-linejoin="round" stroke-linecap="round" stroke="rgb(0,0,255)" stroke-width="1.874998" fill="none" d="M 0.000000 750.000000 L 138.157898 0.000000 " />
<path stroke-linejoin="round" stroke-linecap="round" stroke="rgb(255,0,0)" stroke-width="3.749996" fill="none" d="M 60.344784 422.414124 L 61.046452 427.325867 " />
<path stroke-linejoin="round" stroke-linecap="round" stroke="rgb(0,0,255)" stroke-width="1.874998" fill="none" d="M 0.000000 750.000000 L 126.623375 0.000000 " />
<path stroke-linejoin="round" stroke-linecap="round" stroke="rgb(255,0,0)" stroke-width="3.749996" fill="none" d="M 58.035671 406.250336 L 60.344765 422.414124 " />
<path stroke-linejoin="round" stroke-linecap="round" stroke="rgb(0,0,255)" stroke-width="1.874998" fill="none" d="M 0.000000 750.000000 L 123.417732 0.000000 " />
<path stroke-linejoin="round" stroke-linecap="round" stroke="rgb(255,0,0)" stroke-width="3.749996" fill="none" d="M 57.352894 401.470886 L 58.035671 406.250336 " />
<path stroke-linejoin="round" stroke-linecap="round" stroke="rgb(0,0,255)" stroke-width="1.874998" fill="none" d="M 0.000000 750.000000 L 112.500008 0.000000 " />
<path stroke-linejoin="round" stroke-linecap="round" stroke="rgb(255,0,0)" stroke-width="3.749996" fill="none" d="M 54.877998 384.146698 L 57.352894 401.470886 " />
<path stroke-linejoin="round" stroke-linecap="round" stroke="rgb(0,0,255)" stroke-width="1.874998" fill="none" d="M 0.000000 750.000000 L 109.756081 0.000000 " />
<path stroke-linejoin="round" stroke-linecap="round" stroke="rgb(255,0,0)" stroke-width="3.749996" fill="none" d="M 54.216808 379.518463 L 54.877998 384.146698 " />
<path stroke-linejoin="round" stroke-linecap="round" stroke="rgb(0,0,255)" stroke-width="1.874998" fill="none" d="M 0.000000 750.000000 L 107.142853 0.000000 " />
<path stroke-linejoin="round" stroke-linecap="round" stroke="rgb(255,0,0)" stroke-width="3.749996" fill="none" d="M 53.571381 375.000366 L 54.216808 379.518463 " />
<path stroke-linejoin="round" stroke-linecap="round" stroke="rgb(0,0,255)" stroke-width="1.874998" fill="none" d="M 0.000000 750.000000 L 104.651169 0.000000 " />
<path stroke-linejoin="round" stroke-linecap="round" stroke="rgb(255,0,0)" stroke-width="3.749996" fill="none" d="M 52.941128 370.588623 L 53.571358 375.000397 " />
<path stroke-linejoin="round" stroke-linecap="round" stroke="rgb(0,0,255)" stroke-width="1.874998" fill="none" d="M 0.000000 750.000000 L 102.272720 0.000000 " />
<path stroke-linejoin="round" stroke-linecap="round" stroke="rgb(255,0,0)" stroke-width="3.749996" fill="none" d="M 52.325516 366.279510 L 52.941128 370.588623 " />
<path stroke-linejoin="round" stroke-linecap="round" stroke="rgb(0,0,255)" stroke-width="1.874998" fill="none" d="M 0.000000 750.000000 L 99.999992 0.000000 " />
<path stroke-linejoin="round" stroke-linecap="round" stroke="rgb(255,0,0)" stroke-width="3.749996" fill="none" d="M 51.724075 362.069427 L 52.325516 366.279510 " />
<path stroke-linejoin="round" stroke-linecap="round" stroke="rgb(0,0,255)" stroke-width="1.874998" fill="none" d="M 0.000000 750.000000 L 97.058815 0.000000 " />
<path stroke-linejoin="round" stroke-linecap="round" stroke="rgb(255,0,0)" stroke-width="3.749996" fill="none" d="M 50.925873 356.481934 L 51.724075 362.069427 " />
<path stroke-linejoin="round" stroke-linecap="round" stroke="rgb(0,0,255)" stroke-width="1.874998" fill="none" d="M 0.000000 750.000000 L 87.209297 0.000000 " />
<path stroke-linejoin="round" stroke-linecap="round" stroke="rgb(255,0,0)" stroke-width="3.749996" fill="none" d="M 48.076855 336.538940 L 50.925873 356.481934 " />
<path stroke-linejoin="round" stroke-linecap="round" stroke="rgb(0,0,255)" stroke-width="1.874998" fill="none" d="M 0.000000 750.000000 L 85.227280 0.000000 " />
<path stroke-linejoin="round" stroke-linecap="round" stroke="rgb(255,0,0)" stroke-width="3.749996" fill="none" d="M 47.468304 332.278931 L 48.076855 336.538940 " />
<path stroke-linejoin="round" stroke-linecap="round" stroke="rgb(0,0,255)" stroke-width="1.874998" fill="none" d="M 0.000000 750.000000 L 79.787224 0.000000 " />
<path stroke-linejoin="round" stroke-linecap="round" stroke="rgb(255,0,0)" stroke-width="3.749996" fill="none" d="M 45.731663 320.122437 L 47.468304 332.278931 " />
<path stroke-linejoin="round" stroke-linecap="round" stroke="rgb(0,0,255)" stroke-width="1.874998" fill="none" d="M 0.000000 750.000000 L 78.124992 0.000000 " />
<path stroke-linejoin="round" stroke-linecap="round" stroke="rgb(255,0,0)" stroke-width="3.749996" fill="none" d="M 45.180672 316.265533 L 45.731663 320.122437 " />
<path stroke-linejoin="round" stroke-linecap="round" stroke="rgb(0,0,255)" stroke-width="1.874998" fill="none" d="M 0.000000 750.000000 L 76.530617 0.000000 " />
<path stroke-linejoin="round" stroke-linecap="round" stroke="rgb(255,0,0)" stroke-width="3.749996" fill="none" d="M 44.642822 312.500427 L 45.180672 316.265472 " />
<path stroke-linejoin="round" stroke-linecap="round" stroke="rgb(0,0,255)" stroke-width="1.874998" fill="none" d="M 0.000000 750.000000 L 68.181824 0.000000 " />
<path stroke-linejoin="round" stroke-linecap="round" stroke="rgb(255,0,0)" stroke-width="3.749996" fill="none" d="M 41.666618 291.667084 L 44.642822 312.500366 " />
<path stroke-linejoin="round" stroke-linecap="round" stroke="rgb(0,0,255)" stroke-width="1.874998" fill="none" d="M 0.000000 750.000000 L 59.999989 0.000000 " />
<path stroke-linejoin="round" stroke-linecap="round" stroke="rgb(255,0,0)" stroke-width="3.749996" fill="none" d="M 38.461491 269.231232 L 41.666618 291.667084 " />
<path stroke-linejoin="round" stroke-linecap="round" stroke="rgb(0,0,255)" stroke-width="1.874998" fill="none" d="M 0.000000 750.000000 L 58.823524 0.000000 " />
<path stroke-linejoin="round" stroke-linecap="round" stroke="rgb(255,0,0)" stroke-width="3.749996" fill="none" d="M 37.974648 265.823334 L 38.461491 269.231293 " />
<path stroke-linejoin="round" stroke-linecap="round" stroke="rgb(0,0,255)" stroke-width="1.874998" fill="none" d="M 0.000000 750.000000 L 56.603775 0.000000 " />
<path stroke-linejoin="round" stroke-linecap="round" stroke="rgb(255,0,0)" stroke-width="3.749996" fill="none" d="M 37.036991 259.259766 L 37.974648 265.823334 " />
<path stroke-linejoin="round" stroke-linecap="round" stroke="rgb(0,0,255)" stroke-width="1.874998" fill="none" d="M 0.000000 750.000000 L 55.555569 0.000000 " />
<path stroke-linejoin="round" stroke-linecap="round" stroke="rgb(255,0,0)" stroke-width="3.749996" fill="none" d="M 36.585331 256.098114 L 37.036991 259.259766 " />
<path stroke-linejoin="round" stroke-linecap="round" stroke="rgb(0,0,255)" stroke-width="1.874998" fill="none" d="M 0.000000 750.000000 L 54.545448 0.000000 " />
<path stroke-linejoin="round" stroke-linecap="round" stroke="rgb(255,0,0)" stroke-width="3.749996" fill="none" d="M 36.144531 253.012650 L 36.585331 256.098175 " />
<path stroke-linejoin="round" stroke-linecap="round" stroke="rgb(0,0,255)" stroke-width="1.874998" fill="none" d="M 0.000000 750.000000 L 53.571426 0.000000 " />
<path stroke-linejoin="round" stroke-linecap="round" stroke="rgb(255,0,0)" stroke-width="3.749996" fill="none" d="M 35.714237 250.000565 L 36.144531 253.012650 " />
<path stroke-linejoin="round" stroke-linecap="round" stroke="rgb(0,0,255)" stroke-width="1.874998" fill="none" d="M 0.000000 750.000000 L 52.631580 0.000000 " />
<path stroke-linejoin="round" stroke-linecap="round" stroke="rgb(255,0,0)" stroke-width="3.749996" fill="none" d="M 35.294071 247.059387 L 35.714237 250.000565 " />
<path stroke-linejoin="round" stroke-linecap="round" stroke="rgb(0,0,255)" stroke-width="1.874998" fill="none" d="M 0.000000 750.000000 L 51.724144 0.000000 " />
<path stroke-linejoin="round" stroke-linecap="round" stroke="rgb(255,0,0)" stroke-width="3.749996" fill="none" d="M 34.883694 244.186615 L 35.294071 247.059387 " />
<path stroke-linejoin="round" stroke-linecap="round" stroke="rgb(0,0,255)" stroke-width="1.874998" fill="none" d="M 0.000000 750.000000 L 50.847462 0.000000 " />
<path stroke-linejoin="round" stroke-linecap="round" stroke="rgb(255,0,0)" stroke-width="3.749996" fill="none" d="M 34.482723 241.379944 L 34.883694 244.186615 " />
<path stroke-linejoin="round" stroke-linecap="round" stroke="rgb(0,0,255)" stroke-width="1.874998" fill="none" d="M 0.000000 750.000000 L 49.999996 0.000000 " />
<path stroke-linejoin="round" stroke-linecap="round" stroke="rgb(255,0,0)" stroke-width="3.749996" fill="none" d="M 34.090878 238.637024 L 34.482704 241.379990 " />
<path stroke-linejoin="round" stroke-linecap="round" stroke="rgb(0,0,255)" stroke-width="1.874998" fill="none" d="M 0.000000 750.000000 L 49.180313 0.000000 " />
<path stroke-linejoin="round" stroke-linecap="round" stroke="rgb(255,0,0)" stroke-width="3.749996" fill="none" d="M 33.707813 235.955719 L 34.090878 238.637024 " />
<path stroke-linejoin="round" stroke-linecap="round" stroke="rgb(0,0,255)" stroke-width="1.874998" fill="none" d="M 0.000000 750.000000 L 48.165142 0.000000 " />
<path stroke-linejoin="round" stroke-linecap="round" stroke="rgb(255,0,0)" stroke-width="3.749996" fill="none" d="M 33.227810 232.595673 L 33.707813 235.955719 " />
<path stroke-linejoin="round" stroke-linecap="round" stroke="rgb(0,0,255)" stroke-width="1.874998" fill="none" d="M 0.000000 750.000000 L 40.909096 0.000000 " />
<path stroke-linejoin="round" stroke-linecap="round" stroke="rgb(255,0,0)" stroke-width="3.749996" fill="none" d="M 29.605217 207.237610 L 33.227810 232.595673 " />
<path stroke-linejoin="round" stroke-linecap="round" stroke="rgb(0,0,255)" stroke-width="1.874998" fill="none" d="M 0.000000 750.000000 L 33.783787 0.000000 " />
<path stroke-linejoin="round" stroke-linecap="round" stroke="rgb(255,0,0)" stroke-width="3.749996" fill="none" d="M 25.684900 179.795303 L 29.605217 207.237610 " />
<path stroke-linejoin="round" stroke-linecap="round" stroke="rgb(0,0,255)" stroke-width="1.874998" fill="none" d="M 0.000000 750.000000 L 26.785725 0.000000 " />
<path stroke-linejoin="round" stroke-linecap="round" stroke="rgb(255,0,0)" stroke-width="3.749996" fill="none" d="M 21.428547 150.000839 L 25.684900 179.795303 " />
<path stroke-linejoin="round" stroke-linecap="round" stroke="rgb(0,0,255)" stroke-width="1.874998" fill="none" d="M 0.000000 750.000000 L 26.315779 0.000000 " />
<path stroke-linejoin="round" stroke-linecap="round" stroke="rgb(255,0,0)" stroke-width="3.749996" fill="none" d="M 21.126732 147.888153 L 21.428547 150.000839 " />
<path stroke-linejoin="round" stroke-linecap="round" stroke="rgb(0,0,255)" stroke-width="1.874998" fill="none" d="M 0.000000 750.000000 L 25.423721 0.000000 " />
<path stroke-linejoin="round" stroke-linecap="round" stroke="rgb(255,0,0)" stroke-width="3.749996" fill="none" d="M 20.547911 143.836502 L 21.126732 147.888153 " />
<path stroke-linejoin="round" stroke-linecap="round" stroke="rgb(0,0,255)" stroke-width="1.874998" fill="none" d="M 0.000000 750.000000 L 24.999998 0.000000 " />
<path stroke-linejoin="round" stroke-linecap="round" stroke="rgb(255,0,0)" stroke-width="3.749996" fill="none" d="M 20.270235 141.892746 L 20.547911 143.836502 " />
<path stroke-linejoin="round" stroke-linecap="round" stroke="rgb(0,0,255)" stroke-width="1.874998" fill="none" d="M 0.000000 750.000000 L 24.590157 0.000000 " />
<path stroke-linejoin="round" stroke-linecap="round" stroke="rgb(255,0,0)" stroke-width="3.749996" fill="none" d="M 19.999981 140.000900 L 20.270235 141.892746 " />
<path stroke-linejoin="round" stroke-linecap="round" stroke="rgb(0,0,255)" stroke-width="1.874998" fill="none" d="M 0.000000 750.000000 L 23.809523 0.000000 " />
<path stroke-linejoin="round" stroke-linecap="round" stroke="rgb(255,0,0)" stroke-width="3.749996" fill="none" d="M 19.480482 136.364624 L 19.999981 140.000946 " />
<path stroke-linejoin="round" stroke-linecap="round" stroke="rgb(0,0,255)" stroke-width="1.874998" fill="none" d="M 0.000000 750.000000 L 23.437500 0.000000 " />
<path stroke-linejoin="round" stroke-linecap="round" stroke="rgb(255,0,0)" stroke-width="3.749996" fill="none" d="M 19.230745 134.616409 L 19.480482 136.364670 " />
<path stroke-linejoin="round" stroke-linecap="round" stroke="rgb(0,0,255)" stroke-width="1.874998" fill="none" d="M 0.000000 750.000000 L 23.076921 0.000000 " />
<path stroke-linejoin="round" stroke-linecap="round" stroke="rgb(255,0,0)" stroke-width="3.749996" fill="none" d="M 18.987312 132.912445 L 19.230745 134.616409 " />
<path stroke-linejoin="round" stroke-linecap="round" stroke="rgb(0,0,255)" stroke-width="1.874998" fill="none" d="M 0.000000 750.000000 L 22.727274 0.000000 " />
<path stroke-linejoin="round" stroke-linecap="round" stroke="rgb(255,0,0)" stroke-width="3.749996" fill="none" d="M 18.749960 131.251038 L 18.987312 132.912445 " />
<path stroke-linejoin="round" stroke-linecap="round" stroke="rgb(0,0,255)" stroke-width="1.874998" fill="none" d="M 0.000000 750.000000 L 22.388063 0.000000 " />
<path stroke-linejoin="round" stroke-linecap="round" stroke="rgb(255,0,0)" stroke-width="3.749996" fill="none" d="M 18.518486 129.630722 L 18.749960 131.251038 " />
<path stroke-linejoin="round" stroke-linecap="round" stroke="rgb(0,0,255)" stroke-width="1.874998" fill="none" d="M 0.000000 750.000000 L 22.058823 0.000000 " />
<path stroke-linejoin="round" stroke-linecap="round" stroke="rgb(255,0,0)" stroke-width="3.749996" fill="none" d="M 18.292643 128.049911 L 18.518486 129.630753 " />
<path stroke-linejoin="round" stroke-linecap="round" stroke="rgb(0,0,255)" stroke-width="1.874998" fill="none" d="M 0.000000 750.000000 L 21.739124 0.000000 " />
<path stroke-linejoin="round" stroke-linecap="round" stroke="rgb(255,0,0)" stroke-width="3.749996" fill="none" d="M 18.072254 126.507103 L 18.292643 128.049911 " />
<path stroke-linejoin="round" stroke-linecap="round" stroke="rgb(0,0,255)" stroke-width="1.874998" fill="none" d="M 0.000000 750.000000 L 21.428570 0.000000 " />
<path stroke-linejoin="round" stroke-linecap="round" stroke="rgb(255,0,0)" stroke-width="3.749996" fill="none" d="M 17.857119 125.001129 L 18.072254 126.507103 " />
<path stroke-linejoin="round" stroke-linecap="round" stroke="rgb(0,0,255)" stroke-width="1.874998" fill="none" d="M 0.000000 750.000000 L 21.126755 0.000000 " />
<path stroke-linejoin="round" stroke-linecap="round" stroke="rgb(255,0,0)" stroke-width="3.749996" fill="none" d="M 17.647036 123.530525 L 17.857119 125.001129 " />
<path stroke-linejoin="round" stroke-linecap="round" stroke="rgb(0,0,255)" stroke-width="1.874998" fill="none" d="M 0.000000 750.000000 L 20.833344 0.000000 " />
<path stroke-linejoin="round" stroke-linecap="round" stroke="rgb(255,0,0)" stroke-width="3.749996" fill="none" d="M 17.441824 122.094154 L 17.647036 123.530525 " />
<path stroke-linejoin="round" stroke-linecap="round" stroke="rgb(0,0,255)" stroke-width="1.874998" fill="none" d="M 0.000000 750.000000 L 20.547956 0.000000 " />
<path stroke-linejoin="round" stroke-linecap="round" stroke="rgb(255,0,0)" stroke-width="3.749996" fill="none" d="M 17.241352 120.690781 L 17.441824 122.094154 " />
<path stroke-linejoin="round" stroke-linecap="round" stroke="rgb(0,0,255)" stroke-width="1.874998" fill="none" d="M 0.000000 750.000000 L 20.270281 0.000000 " />
<path stroke-linejoin="round" stroke-linecap="round" stroke="rgb(255,0,0)" stroke-width="3.749996" fill="none" d="M 17.045416 119.319366 L 17.241352 120.690781 " />
<path stroke-linejoin="round" stroke-linecap="round" stroke="rgb(0,0,255)" stroke-width="1.874998" fill="none" d="M 0.000000 750.000000 L 15.957445 0.000000 " />
<path stroke-linejoin="round" stroke-linecap="round" stroke="rgb(255,0,0)" stroke-width="3.749996" fill="none" d="M 13.888858 97.223457 L 17.045416 119.319412 " />
<path stroke-linejoin="round" stroke-linecap="round" stroke="rgb(0,0,255)" stroke-width="1.874998" fill="none" d="M 0.000000 750.000000 L 10.563389 0.000000 " />
<path stroke-linejoin="round" stroke-linecap="round" stroke="rgb(255,0,0)" stroke-width="3.749996" fill="none" d="M 9.615362 67.309006 L 13.888858 97.223457 " />
<path stroke-linejoin="round" stroke-linecap="round" stroke="rgb(0,0,255)" stroke-width="1.874998" fill="none" d="M 0.000000 750.000000 L 5.244747 0.000000 " />
<path stroke-linejoin="round" stroke-linecap="round" stroke="rgb(255,0,0)" stroke-width="3.749996" fill="none" d="M 4.999995 35.001396 L 9.615362 67.309006 " />
<path stroke-linejoin="round" stroke-linecap="round" stroke="rgb(0,0,255)" stroke-width="1.874998" fill="none" d="M 0.000000 750.000000 L 0.000000 0.000000 " />
<path stroke-linejoin="round" stroke-linecap="round" stroke="rgb(255,0,0)" stroke-width="3.749996" fill="none" d="M 0.000000 0.000000 L 4.999995 35.001396 " />
<circle cx="186.906651" cy="745.846510" r="3.749996" style="fill:rgb(0,127,0);stroke-width:1" /><circle cx="182.753161" cy="741.693042" r="3.749996" style="fill:rgb(0,127,0);stroke-width:1" /><circle cx="178.599671" cy="737.539552" r="3.749996" style="fill:rgb(0,127,0);stroke-width:1" /><circle cx="175.138414" cy="734.078318" r="3.749996" style="fill:rgb(0,127,0);stroke-width:1" /><circle cx="174.446158" cy="733.386084" r="3.749996" style="fill:rgb(0,127,0);stroke-width:1" /><circle cx="170.292668" cy="729.232594" r="3.749996" style="fill:rgb(0,127,0);stroke-width:1" /><circle cx="167.177573" cy="726.117499" r="3.749996" style="fill:rgb(0,127,0);stroke-width:1" /><circle cx="166.139200" cy="725.079127" r="3.749996" style="fill:rgb(0,127,0);stroke-width:1" /><circle cx="161.985710" cy="720.925637" r="3.749996" style="fill:rgb(0,127,0);stroke-width:1" /><circle cx="157.832220" cy="716.772169" r="3.749996" style="fill:rgb(0,127,0);stroke-width:1" /><circle cx="153.678730" cy="712.618679" r="3.749996" style="fill:rgb(0,127,0);stroke-width:1" /><circle cx="149.525240" cy="708.465211" r="3.749996" style="fill:rgb(0,127,0);stroke-width:1" /><circle cx="145.371772" cy="704.311721" r="3.749996" style="fill:rgb(0,127,0);stroke-width:1" /><circle cx="143.295027" cy="702.234998" r="3.749996" style="fill:rgb(0,127,0);stroke-width:1" /><circle cx="141.218305" cy="700.158253" r="3.749996" style="fill:rgb(0,127,0);stroke-width:1" /><circle cx="139.314607" cy="698.254555" r="3.749996" style="fill:rgb(0,127,0);stroke-width:1" /><circle cx="137.064815" cy="696.004763" r="3.749996" style="fill:rgb(0,127,0);stroke-width:1" /><circle cx="132.911325" cy="691.851296" r="3.749996" style="fill:rgb(0,127,0);stroke-width:1" /><circle cx="131.353766" cy="690.293737" r="3.749996" style="fill:rgb(0,127,0);stroke-width:1" /><circle cx="127.373368" cy="686.313316" r="3.749996" style="fill:rgb(0,127,0);stroke-width:1" /><circle cx="126.099631" cy="685.039580" r="3.749996" style="fill:rgb(0,127,0);stroke-width:1" /><circle cx="123.392947" cy="682.332896" r="3.749996" style="fill:rgb(0,127,0);stroke-width:1" /><circle cx="122.278422" cy="681.218371" r="3.749996" style="fill:rgb(0,127,0);stroke-width:1" /><circle cx="120.462969" cy="668.510333" r="3.749996" style="fill:rgb(0,127,0);stroke-width:1" /><circle cx="116.074964" cy="637.794212" r="3.749996" style="fill:rgb(0,127,0);stroke-width:1" /><circle cx="114.140376" cy="635.859624" r="3.749996" style="fill:rgb(0,127,0);stroke-width:1" /><circle cx="110.063955" cy="631.783180" r="3.749996" style="fill:rgb(0,127,0);stroke-width:1" /><circle cx="109.912947" cy="631.632194" r="3.749996" style="fill:rgb(0,127,0);stroke-width:1" /><circle cx="105.987489" cy="627.706736" r="3.749996" style="fill:rgb(0,127,0);stroke-width:1" /><circle cx="101.911068" cy="623.630293" r="3.749996" style="fill:rgb(0,127,0);stroke-width:1" /><circle cx="98.793760" cy="601.809338" r="3.749996" style="fill:rgb(0,127,0);stroke-width:1" /><circle cx="94.677374" cy="597.692952" r="3.749996" style="fill:rgb(0,127,0);stroke-width:1" /><circle cx="90.560965" cy="593.576521" r="3.749996" style="fill:rgb(0,127,0);stroke-width:1" /><circle cx="86.444557" cy="589.460135" r="3.749996" style="fill:rgb(0,127,0);stroke-width:1" /><circle cx="83.776586" cy="586.436167" r="3.749996" style="fill:rgb(0,127,0);stroke-width:1" /><circle cx="82.417578" cy="576.923110" r="3.749996" style="fill:rgb(0,127,0);stroke-width:1" /><circle cx="81.521720" cy="570.652172" r="3.749996" style="fill:rgb(0,127,0);stroke-width:1" /><circle cx="80.056161" cy="560.393281" r="3.749996" style="fill:rgb(0,127,0);stroke-width:1" /><circle cx="78.488365" cy="549.418643" r="3.749996" style="fill:rgb(0,127,0);stroke-width:1" /><circle cx="76.807223" cy="537.650630" r="3.749996" style="fill:rgb(0,127,0);stroke-width:1" /><circle cx="75.892858" cy="531.250030" r="3.749996" style="fill:rgb(0,127,0);stroke-width:1" /><circle cx="75.842679" cy="530.898906" r="3.749996" style="fill:rgb(0,127,0);stroke-width:1" /><circle cx="74.999973" cy="525.000036" r="3.749996" style="fill:rgb(0,127,0);stroke-width:1" /><circle cx="73.275849" cy="512.931123" r="3.749996" style="fill:rgb(0,127,0);stroke-width:1" /><circle cx="72.443157" cy="507.102370" r="3.749996" style="fill:rgb(0,127,0);stroke-width:1" /><circle cx="71.629174" cy="501.404621" r="3.749996" style="fill:rgb(0,127,0);stroke-width:1" /><circle cx="70.833296" cy="495.833471" r="3.749996" style="fill:rgb(0,127,0);stroke-width:1" /><circle cx="68.965472" cy="482.758798" r="3.749996" style="fill:rgb(0,127,0);stroke-width:1" /><circle cx="68.181776" cy="477.272920" r="3.749996" style="fill:rgb(0,127,0);stroke-width:1" /><circle cx="67.415692" cy="471.910290" r="3.749996" style="fill:rgb(0,127,0);stroke-width:1" /><circle cx="65.406919" cy="457.849078" r="3.749996" style="fill:rgb(0,127,0);stroke-width:1" /><circle cx="64.655118" cy="452.586472" r="3.749996" style="fill:rgb(0,127,0);stroke-width:1" /><circle cx="62.499940" cy="437.500253" r="3.749996" style="fill:rgb(0,127,0);stroke-width:1" /><circle cx="61.764657" cy="432.353184" r="3.749996" style="fill:rgb(0,127,0);stroke-width:1" /><circle cx="61.046451" cy="427.325852" r="3.749996" style="fill:rgb(0,127,0);stroke-width:1" /><circle cx="60.344785" cy="422.414102" r="3.749996" style="fill:rgb(0,127,0);stroke-width:1" /><circle cx="58.035672" cy="406.250305" r="3.749996" style="fill:rgb(0,127,0);stroke-width:1" /><circle cx="57.352893" cy="401.470922" r="3.749996" style="fill:rgb(0,127,0);stroke-width:1" /><circle cx="54.877996" cy="384.146690" r="3.749996" style="fill:rgb(0,127,0);stroke-width:1" /><circle cx="54.216810" cy="379.518427" r="3.749996" style="fill:rgb(0,127,0);stroke-width:1" /><circle cx="53.571381" cy="375.000380" r="3.749996" style="fill:rgb(0,127,0);stroke-width:1" /><circle cx="52.941129" cy="370.588616" r="3.749996" style="fill:rgb(0,127,0);stroke-width:1" /><circle cx="52.325517" cy="366.279513" r="3.749996" style="fill:rgb(0,127,0);stroke-width:1" /><circle cx="51.724076" cy="362.069428" r="3.749996" style="fill:rgb(0,127,0);stroke-width:1" /><circle cx="50.925873" cy="356.481940" r="3.749996" style="fill:rgb(0,127,0);stroke-width:1" /><circle cx="48.076853" cy="336.538956" r="3.749996" style="fill:rgb(0,127,0);stroke-width:1" /><circle cx="47.468305" cy="332.278937" r="3.749996" style="fill:rgb(0,127,0);stroke-width:1" /><circle cx="45.731664" cy="320.122451" r="3.749996" style="fill:rgb(0,127,0);stroke-width:1" /><circle cx="45.180671" cy="316.265523" r="3.749996" style="fill:rgb(0,127,0);stroke-width:1" /><circle cx="44.642821" cy="312.500417" r="3.749996" style="fill:rgb(0,127,0);stroke-width:1" /><circle cx="41.666619" cy="291.667074" r="3.749996" style="fill:rgb(0,127,0);stroke-width:1" /><circle cx="38.461491" cy="269.231245" r="3.749996" style="fill:rgb(0,127,0);stroke-width:1" /><circle cx="37.974648" cy="265.823320" r="3.749996" style="fill:rgb(0,127,0);stroke-width:1" /><circle cx="37.036993" cy="259.259775" r="3.749996" style="fill:rgb(0,127,0);stroke-width:1" /><circle cx="36.585331" cy="256.098121" r="3.749996" style="fill:rgb(0,127,0);stroke-width:1" /><circle cx="36.144532" cy="253.012642" r="3.749996" style="fill:rgb(0,127,0);stroke-width:1" /><circle cx="35.714239" cy="250.000566" r="3.749996" style="fill:rgb(0,127,0);stroke-width:1" /><circle cx="35.294071" cy="247.059390" r="3.749996" style="fill:rgb(0,127,0);stroke-width:1" /><circle cx="34.883693" cy="244.186610" r="3.749996" style="fill:rgb(0,127,0);stroke-width:1" /><circle cx="34.482725" cy="241.379946" r="3.749996" style="fill:rgb(0,127,0);stroke-width:1" /><circle cx="34.090877" cy="238.637030" r="3.749996" style="fill:rgb(0,127,0);stroke-width:1" /><circle cx="33.707812" cy="235.955715" r="3.749996" style="fill:rgb(0,127,0);stroke-width:1" /><circle cx="33.227809" cy="232.595667" r="3.749996" style="fill:rgb(0,127,0);stroke-width:1" /><circle cx="29.605217" cy="207.237616" r="3.749996" style="fill:rgb(0,127,0);stroke-width:1" /><circle cx="25.684901" cy="179.795310" r="3.749996" style="fill:rgb(0,127,0);stroke-width:1" /><circle cx="21.428548" cy="150.000840" r="3.749996" style="fill:rgb(0,127,0);stroke-width:1" /><circle cx="21.126732" cy="147.888154" r="3.749996" style="fill:rgb(0,127,0);stroke-width:1" /><circle cx="20.547912" cy="143.836498" r="3.749996" style="fill:rgb(0,127,0);stroke-width:1" /><circle cx="20.270236" cy="141.892746" r="3.749996" style="fill:rgb(0,127,0);stroke-width:1" /><circle cx="19.999981" cy="140.000895" r="3.749996" style="fill:rgb(0,127,0);stroke-width:1" /><circle cx="19.480482" cy="136.364624" r="3.749996" style="fill:rgb(0,127,0);stroke-width:1" /><circle cx="19.230746" cy="134.616405" r="3.749996" style="fill:rgb(0,127,0);stroke-width:1" /><circle cx="18.987313" cy="132.912442" r="3.749996" style="fill:rgb(0,127,0);stroke-width:1" /><circle cx="18.749960" cy="131.251037" r="3.749996" style="fill:rgb(0,127,0);stroke-width:1" /><circle cx="18.518485" cy="129.630715" r="3.749996" style="fill:rgb(0,127,0);stroke-width:1" /><circle cx="18.292643" cy="128.049910" r="3.749996" style="fill:rgb(0,127,0);stroke-width:1" /><circle cx="18.072255" cy="126.507103" r="3.749996" style="fill:rgb(0,127,0);stroke-width:1" /><circle cx="17.857119" cy="125.001132" r="3.749996" style="fill:rgb(0,127,0);stroke-width:1" /><circle cx="17.647035" cy="123.530522" r="3.749996" style="fill:rgb(0,127,0);stroke-width:1" /><circle cx="17.441824" cy="122.094154" r="3.749996" style="fill:rgb(0,127,0);stroke-width:1" /><circle cx="17.241351" cy="120.690778" r="3.749996" style="fill:rgb(0,127,0);stroke-width:1" /><circle cx="17.045416" cy="119.319364" r="3.749996" style="fill:rgb(0,127,0);stroke-width:1" /><circle cx="13.888858" cy="97.223461" r="3.749996" style="fill:rgb(0,127,0);stroke-width:1" /><circle cx="9.615362" cy="67.309007" r="3.749996" style="fill:rgb(0,127,0);stroke-width:1" /><circle cx="4.999995" cy="35.001397" r="3.749996" style="fill:rgb(0,127,0);stroke-width:1" /><circle cx="750.000000" cy="750.000000" r="3.749996" style="fill:rgb(0,127,0);stroke-width:1" /><path stroke-linejoin="round" stroke-linecap="round" stroke="rgb(255,255,255)" stroke-width="3.749996" fill="none" d="M 0.000000 750.000000 L 750.000000 750.000000 M 0.000000 750.000000 L 0.000000 0.000000 " />

</svg>