<svg xmlns="http://www.w3.org/2000/svg" version="1.1" width = "750" height = "750" viewBox = "0 0 750 750"  shape-rendering="crispEdges">
<path stroke-linejoin="round" stroke-linecap="round" stroke="rgb(255,255,0)" stroke-width="3.749996" fill="none" d="M 249.999985 750.000000 L 0.000000 0.000000 " />
<path stroke-linejoin="round" stroke-linecap="round" stroke="rgb(63,63,63)" stroke-width="3.749996" fill="none" d="M 0.000000 0.000000 L 750.000000 750.000000 M 249.999985 750.000000 L 99.999992 0.000000 " />
<path stroke-linejoin="round" stroke-linecap="round" stroke="rgb(191,191,191)" stroke-width="3.749996" fill="none" d="M 0.000000 500.000000 L 249.999985 750.000000 M 0.000000 0.000000 L 150.000015 750.000000 " />
<path stroke-linejoin="round" stroke-linecap="round" stroke="rgb(0,0,255)" stroke-width="1.874998" fill="none" d="M 0.000000 750.000000 L 750.000000 732.954590 " />
<path stroke-linejoin="round" stroke-linecap="round" stroke="rgb(255,0,0)" stroke-width="3.749996" fill="none" d="M 248.868759 744.343872 L 249.999985 750.000000 " />
<path stroke-linejoin="round" stroke-linecap="round" stroke="rgb(0,0,255)" stroke-width="1.874998" fill="none" d="M 0.000000 750.000000 L 750.000000 715.116272 " />
<path stroke-linejoin="round" stroke-linecap="round" stroke="rgb(255,0,0)" stroke-width="3.749996" fill="none" d="M 243.212616 738.687805 L 248.868759 744.343872 " />
<path stroke-linejoin="round" stroke-linecap="round" stroke="rgb(0,0,255)" stroke-width="1.874998" fill="none" d="M 0.000000 750.000000 L 750.000000 696.428589 " />
<path stroke-linejoin="round" stroke-linecap="round" stroke="rgb(255,0,0)" stroke-width="3.749996" fill="none" d="M 237.556503 733.031677 L 243.212616 738.687805 " />
<path stroke-linejoin="round" stroke-linecap="round" stroke="rgb(0,0,255)" stroke-width="1.874998" fill="none" d="M 0.000000 750.000000 L 750.000000 680.232544 " />
<path stroke-linejoin="round" stroke-linecap="round" stroke="rgb(255,0,0)" stroke-width="3.749996" fill="none" d="M 232.863129 728.338318 L 237.556503 733.031677 " />
<path stroke-linejoin="round" stroke-linecap="round" stroke="rgb(0,0,255)" stroke-width="1.874998" fill="none" d="M 0.000000 750.000000 L 750.000000 660.714294 " />
<path stroke-linejoin="round" stroke-linecap="round" stroke="rgb(255,0,0)" stroke-width="3.749996" fill="none" d="M 227.447708 722.922913 L 232.863129 728.338318 " />
<path stroke-linejoin="round" stroke-linecap="round" stroke="rgb(0,0,255)" stroke-width="1.874998" fill="none" d="M 0.000000 750.000000 L 750.000000 645.348816 " />
<path stroke-linejoin="round" stroke-linecap="round" stroke="rgb(255,0,0)" stroke-width="3.749996" fill="none" d="M 223.358490 718.833740 L 227.447662 722.922913 " />
<path stroke-linejoin="round" stroke-linecap="round" stroke="rgb(0,0,255)" stroke-width="1.874998" fill="none" d="M 0.000000 750.000000 L 750.000000 640.243896 " />
<path stroke-linejoin="round" stroke-linecap="round" stroke="rgb(255,0,0)" stroke-width="3.749996" fill="none" d="M 222.032272 717.507446 L 223.358490 718.833740 " />
<path stroke-linejoin="round" stroke-linecap="round" stroke="rgb(0,0,255)" stroke-width="1.874998" fill="none" d="M 0.000000 750.000000 L 750.000000 618.750000 " />
<path stroke-linejoin="round" stroke-linecap="round" stroke="rgb(255,0,0)" stroke-width="3.749996" fill="none" d="M 216.616852 712.092102 L 222.032272 717.507446 " />
<path stroke-linejoin="round" stroke-linecap="round" stroke="rgb(0,0,255)" stroke-width="1.874998" fill="none" d="M 0.000000 750.000000 L 750.000000 603.658569 " />
<path stroke-linejoin="round" stroke-linecap="round" stroke="rgb(255,0,0)" stroke-width="3.749996" fill="none" d="M 212.969727 708.444946 L 216.616852 712.092102 " />
<path stroke-linejoin="round" stroke-linecap="round" stroke="rgb(0,0,255)" stroke-width="1.874998" fill="none" d="M 0.000000 750.000000 L 750.000000 596.153870 " />
<path stroke-linejoin="round" stroke-linecap="round" stroke="rgb(255,0,0)" stroke-width="3.749996" fill="none" d="M 211.201431 706.676575 L 212.969727 708.444946 " />
<path stroke-linejoin="round" stroke-linecap="round" stroke="rgb(0,0,255)" stroke-width="1.874998" fill="none" d="M 0.000000 750.000000 L 750.000000 572.368408 " />
<path stroke-linejoin="round" stroke-linecap="round" stroke="rgb(255,0,0)" stroke-width="3.749996" fill="none" d="M 205.786011 701.261230 L 211.201431 706.676575 " />
<path stroke-linejoin="round" stroke-linecap="round" stroke="rgb(0,0,255)" stroke-width="1.874998" fill="none" d="M 0.000000 750.000000 L 750.000000 547.297302 " />
<path stroke-linejoin="round" stroke-linecap="round" stroke="rgb(255,0,0)" stroke-width="3.749996" fill="none" d="M 200.370575 695.845825 L 205.786011 701.261230 " />
<path stroke-linejoin="round" stroke-linecap="round" stroke="rgb(0,0,255)" stroke-width="1.874998" fill="none" d="M 0.000000 750.000000 L 750.000000 520.833313 " />
<path stroke-linejoin="round" stroke-linecap="round" stroke="rgb(255,0,0)" stroke-width="3.749996" fill="none" d="M 194.955154 690.430359 L 200.370575 695.845825 " />
<path stroke-linejoin="round" stroke-linecap="round" stroke="rgb(0,0,255)" stroke-width="1.874998" fill="none" d="M 0.000000 750.000000 L 750.000000 492.857147 " />
<path stroke-linejoin="round" stroke-linecap="round" stroke="rgb(255,0,0)" stroke-width="3.749996" fill="none" d="M 189.539780 685.014954 L 194.955154 690.430359 " />
<path stroke-linejoin="round" stroke-linecap="round" stroke="rgb(0,0,255)" stroke-width="1.874998" fill="none" d="M 0.000000 750.000000 L 750.000000 479.166656 " />
<path stroke-linejoin="round" stroke-linecap="round" stroke="rgb(255,0,0)" stroke-width="3.749996" fill="none" d="M 186.997818 682.472961 L 189.539780 685.014893 " />
<path stroke-linejoin="round" stroke-linecap="round" stroke="rgb(0,0,255)" stroke-width="1.874998" fill="none" d="M 0.000000 750.000000 L 750.000000 463.235291 " />
<path stroke-linejoin="round" stroke-linecap="round" stroke="rgb(255,0,0)" stroke-width="3.749996" fill="none" d="M 184.124344 679.599548 L 186.997818 682.472961 " />
<path stroke-linejoin="round" stroke-linecap="round" stroke="rgb(0,0,255)" stroke-width="1.874998" fill="none" d="M 0.000000 750.000000 L 750.000000 450.000031 " />
<path stroke-linejoin="round" stroke-linecap="round" stroke="rgb(255,0,0)" stroke-width="3.749996" fill="none" d="M 181.803452 677.278625 L 184.124344 679.599548 " />
<path stroke-linejoin="round" stroke-linecap="round" stroke="rgb(0,0,255)" stroke-width="1.874998" fill="none" d="M 0.000000 750.000000 L 750.000000 419.117645 " />
<path stroke-linejoin="round" stroke-linecap="round" stroke="rgb(255,0,0)" stroke-width="3.749996" fill="none" d="M 176.609085 672.084229 L 181.803482 677.278625 " />
<path stroke-linejoin="round" stroke-linecap="round" stroke="rgb(0,0,255)" stroke-width="1.874998" fill="none" d="M 0.000000 750.000000 L 750.000000 386.363617 " />
<path stroke-linejoin="round" stroke-linecap="round" stroke="rgb(255,0,0)" stroke-width="3.749996" fill="none" d="M 171.414719 666.889832 L 176.609116 672.084229 " />
<path stroke-linejoin="round" stroke-linecap="round" stroke="rgb(0,0,255)" stroke-width="1.874998" fill="none" d="M 0.000000 750.000000 L 750.000000 351.562500 " />
<path stroke-linejoin="round" stroke-linecap="round" stroke="rgb(255,0,0)" stroke-width="3.749996" fill="none" d="M 166.220337 661.695435 L 171.414719 666.889832 " />
<path stroke-linejoin="round" stroke-linecap="round" stroke="rgb(0,0,255)" stroke-width="1.874998" fill="none" d="M 0.000000 750.000000 L 750.000000 314.516144 " />
<path stroke-linejoin="round" stroke-linecap="round" stroke="rgb(255,0,0)" stroke-width="3.749996" fill="none" d="M 161.025955 656.501038 L 166.220337 661.695435 " />
<path stroke-linejoin="round" stroke-linecap="round" stroke="rgb(0,0,255)" stroke-width="1.874998" fill="none" d="M 0.000000 750.000000 L 750.000000 275.000000 " />
<path stroke-linejoin="round" stroke-linecap="round" stroke="rgb(255,0,0)" stroke-width="3.749996" fill="none" d="M 155.831589 651.306702 L 161.025955 656.501038 " />
<path stroke-linejoin="round" stroke-linecap="round" stroke="rgb(0,0,255)" stroke-width="1.874998" fill="none" d="M 0.000000 750.000000 L 750.000000 232.758606 " />
<path stroke-linejoin="round" stroke-linecap="round" stroke="rgb(255,0,0)" stroke-width="3.749996" fill="none" d="M 150.637222 646.112305 L 155.831589 651.306702 " />
<path stroke-linejoin="round" stroke-linecap="round" stroke="rgb(0,0,255)" stroke-width="1.874998" fill="none" d="M 0.000000 750.000000 L 750.000000 187.500000 " />
<path stroke-linejoin="round" stroke-linecap="round" stroke="rgb(255,0,0)" stroke-width="3.749996" fill="none" d="M 145.442825 640.917847 L 150.637222 646.112305 " />
<path stroke-linejoin="round" stroke-linecap="round" stroke="rgb(0,0,255)" stroke-width="1.874998" fill="none" d="M 0.000000 750.000000 L 750.000000 181.034485 " />
<path stroke-linejoin="round" stroke-linecap="round" stroke="rgb(255,0,0)" stroke-width="3.749996" fill="none" d="M 144.729874 640.204956 L 145.442825 640.917847 " />
<path stroke-linejoin="round" stroke-linecap="round" stroke="rgb(0,0,255)" stroke-width="1.874998" fill="none" d="M 0.000000 750.000000 L 750.000000 138.888901 " />
<path stroke-linejoin="round" stroke-linecap="round" stroke="rgb(255,0,0)" stroke-width="3.749996" fill="none" d="M 140.248444 635.723511 L 144.729874 640.204956 " />
<path stroke-linejoin="round" stroke-linecap="round" stroke="rgb(0,0,255)" stroke-width="1.874998" fill="none" d="M 0.000000 750.000000 L 750.000000 86.538475 " />
<path stroke-linejoin="round" stroke-linecap="round" stroke="rgb(255,0,0)" stroke-width="3.749996" fill="none" d="M 135.054031 630.529114 L 140.248444 635.723511 " />
<path stroke-linejoin="round" stroke-linecap="round" stroke="rgb(0,0,255)" stroke-width="1.874998" fill="none" d="M 0.000000 750.000000 L 750.000000 83.333328 " />
<path stroke-linejoin="round" stroke-linecap="round" stroke="rgb(255,0,0)" stroke-width="3.749996" fill="none" d="M 134.748474 630.223572 L 135.054031 630.529114 " />
<path stroke-linejoin="round" stroke-linecap="round" stroke="rgb(0,0,255)" stroke-width="1.874998" fill="none" d="M 0.000000 750.000000 L 750.000000 30.000015 " />
<path stroke-linejoin="round" stroke-linecap="round" stroke="rgb(255,0,0)" stroke-width="3.749996" fill="none" d="M 129.859665 625.334717 L 134.748474 630.223572 " />
<path stroke-linejoin="round" stroke-linecap="round" stroke="rgb(0,0,255)" stroke-width="1.874998" fill="none" d="M 0.000000 750.000000 L 720.000000 0.000000 " />
<path stroke-linejoin="round" stroke-linecap="round" stroke="rgb(255,0,0)" stroke-width="3.749996" fill="none" d="M 124.665276 620.140320 L 129.859665 625.334717 " />
<path stroke-linejoin="round" stroke-linecap="round" stroke="rgb(0,0,255)" stroke-width="1.874998" fill="none" d="M 0.000000 750.000000 L 663.461548 0.000000 " />
<path stroke-linejoin="round" stroke-linecap="round" stroke="rgb(255,0,0)" stroke-width="3.749996" fill="none" d="M 122.340424 611.702148 L 124.665298 620.140320 " />
<path stroke-linejoin="round" stroke-linecap="round" stroke="rgb(0,0,255)" stroke-width="1.874998" fill="none" d="M 0.000000 750.000000 L 616.071472 0.000000 " />
<path stroke-linejoin="round" stroke-linecap="round" stroke="rgb(255,0,0)" stroke-width="3.749996" fill="none" d="M 120.629379 603.146851 L 122.340401 611.702148 " />
<path stroke-linejoin="round" stroke-linecap="round" stroke="rgb(0,0,255)" stroke-width="1.874998" fill="none" d="M 0.000000 750.000000 L 568.965515 0.000000 " />
<path stroke-linejoin="round" stroke-linecap="round" stroke="rgb(255,0,0)" stroke-width="3.749996" fill="none" d="M 118.705025 593.525208 L 120.629379 603.146851 " />
<path stroke-linejoin="round" stroke-linecap="round" stroke="rgb(0,0,255)" stroke-width="1.874998" fill="none" d="M 0.000000 750.000000 L 525.000000 0.000000 " />
<path stroke-linejoin="round" stroke-linecap="round" stroke="rgb(255,0,0)" stroke-width="3.749996" fill="none" d="M 116.666634 583.333313 L 118.705002 593.525208 " />
<path stroke-linejoin="round" stroke-linecap="round" stroke="rgb(0,0,255)" stroke-width="1.874998" fill="none" d="M 0.000000 750.000000 L 483.871002 0.000000 " />
<path stroke-linejoin="round" stroke-linecap="round" stroke="rgb(255,0,0)" stroke-width="3.749996" fill="none" d="M 114.503792 572.519104 L 116.666634 583.333313 " />
<path stroke-linejoin="round" stroke-linecap="round" stroke="rgb(0,0,255)" stroke-width="1.874998" fill="none" d="M 0.000000 750.000000 L 445.312500 0.000000 " />
<path stroke-linejoin="round" stroke-linecap="round" stroke="rgb(255,0,0)" stroke-width="3.749996" fill="none" d="M 112.204712 561.023682 L 114.503792 572.519104 " />
<path stroke-linejoin="round" stroke-linecap="round" stroke="rgb(0,0,255)" stroke-width="1.874998" fill="none" d="M 0.000000 750.000000 L 419.117645 0.000000 " />
<path stroke-linejoin="round" stroke-linecap="round" stroke="rgb(255,0,0)" stroke-width="3.749996" fill="none" d="M 110.465103 552.325562 L 112.204712 561.023682 " />
<path stroke-linejoin="round" stroke-linecap="round" stroke="rgb(0,0,255)" stroke-width="1.874998" fill="none" d="M 0.000000 750.000000 L 395.833344 0.000000 " />
<path stroke-linejoin="round" stroke-linecap="round" stroke="rgb(255,0,0)" stroke-width="3.749996" fill="none" d="M 108.778618 543.893188 L 110.465103 552.325562 " />
<path stroke-linejoin="round" stroke-linecap="round" stroke="rgb(0,0,255)" stroke-width="1.874998" fill="none" d="M 0.000000 750.000000 L 385.714294 0.000000 " />
<path stroke-linejoin="round" stroke-linecap="round" stroke="rgb(255,0,0)" stroke-width="3.749996" fill="none" d="M 107.999992 540.000000 L 108.778618 543.893188 " />
<path stroke-linejoin="round" stroke-linecap="round" stroke="rgb(0,0,255)" stroke-width="1.874998" fill="none" d="M 0.000000 750.000000 L 364.864868 0.000000 " />
<path stroke-linejoin="round" stroke-linecap="round" stroke="rgb(255,0,0)" stroke-width="3.749996" fill="none" d="M 106.299210 531.496094 L 107.999992 540.000000 " />
<path stroke-linejoin="round" stroke-linecap="round" stroke="rgb(0,0,255)" stroke-width="1.874998" fill="none" d="M 0.000000 750.000000 L 335.526306 0.000000 " />
<path stroke-linejoin="round" stroke-linecap="round" stroke="rgb(255,0,0)" stroke-width="3.749996" fill="none" d="M 103.658524 518.292725 L 106.299210 531.496094 " />
<path stroke-linejoin="round" stroke-linecap="round" stroke="rgb(0,0,255)" stroke-width="1.874998" fill="none" d="M 0.000000 750.000000 L 307.692322 0.000000 " />
<path stroke-linejoin="round" stroke-linecap="round" stroke="rgb(255,0,0)" stroke-width="3.749996" fill="none" d="M 100.840332 504.201691 L 103.658524 518.292725 " />
<path stroke-linejoin="round" stroke-linecap="round" stroke="rgb(0,0,255)" stroke-width="1.874998" fill="none" d="M 0.000000 750.000000 L 281.250000 0.000000 " />
<path stroke-linejoin="round" stroke-linecap="round" stroke="rgb(255,0,0)" stroke-width="3.749996" fill="none" d="M 97.826065 489.130463 L 100.840332 504.201691 " />
<path stroke-linejoin="round" stroke-linecap="round" stroke="rgb(0,0,255)" stroke-width="1.874998" fill="none" d="M 0.000000 750.000000 L 267.857147 0.000000 " />
<path stroke-linejoin="round" stroke-linecap="round" stroke="rgb(255,0,0)" stroke-width="3.749996" fill="none" d="M 96.153839 480.769287 L 97.826065 489.130463 " />
<path stroke-linejoin="round" stroke-linecap="round" stroke="rgb(0,0,255)" stroke-width="1.874998" fill="none" d="M 0.000000 750.000000 L 244.186050 0.000000 " />
<path stroke-linejoin="round" stroke-linecap="round" stroke="rgb(255,0,0)" stroke-width="3.749996" fill="none" d="M 92.920349 464.601776 L 96.153839 480.769287 " />
<path stroke-linejoin="round" stroke-linecap="round" stroke="rgb(0,0,255)" stroke-width="1.874998" fill="none" d="M 0.000000 750.000000 L 233.333344 0.000000 " />
<path stroke-linejoin="round" stroke-linecap="round" stroke="rgb(255,0,0)" stroke-width="3.749996" fill="none" d="M 91.304337 456.521759 L 92.920349 464.601776 " />
<path stroke-linejoin="round" stroke-linecap="round" stroke="rgb(0,0,255)" stroke-width="1.874998" fill="none" d="M 0.000000 750.000000 L 225.000015 0.000000 " />
<path stroke-linejoin="round" stroke-linecap="round" stroke="rgb(255,0,0)" stroke-width="3.749996" fill="none" d="M 90.000000 450.000031 L 91.304337 456.521759 " />
<path stroke-linejoin="round" stroke-linecap="round" stroke="rgb(0,0,255)" stroke-width="1.874998" fill="none" d="M 0.000000 750.000000 L 205.882370 0.000000 " />
<path stroke-linejoin="round" stroke-linecap="round" stroke="rgb(255,0,0)" stroke-width="3.749996" fill="none" d="M 86.776863 433.884308 L 90.000000 450.000031 " />
<path stroke-linejoin="round" stroke-linecap="round" stroke="rgb(0,0,255)" stroke-width="1.874998" fill="none" d="M 0.000000 750.000000 L 198.113205 0.000000 " />
<path stroke-linejoin="round" stroke-linecap="round" stroke="rgb(255,0,0)" stroke-width="3.749996" fill="none" d="M 85.365837 426.829254 L 86.776863 433.884308 " />
<path stroke-linejoin="round" stroke-linecap="round" stroke="rgb(0,0,255)" stroke-width="1.874998" fill="none" d="M 0.000000 750.000000 L 184.210510 0.000000 " />
<path stroke-linejoin="round" stroke-linecap="round" stroke="rgb(255,0,0)" stroke-width="3.749996" fill="none" d="M 82.677147 413.385864 L 85.365837 426.829254 " />
<path stroke-linejoin="round" stroke-linecap="round" stroke="rgb(0,0,255)" stroke-width="1.874998" fill="none" d="M 0.000000 750.000000 L 177.966095 0.000000 " />
<path stroke-linejoin="round" stroke-linecap="round" stroke="rgb(255,0,0)" stroke-width="3.749996" fill="none" d="M 81.395340 406.976807 L 82.677147 413.385864 " />
<path stroke-linejoin="round" stroke-linecap="round" stroke="rgb(0,0,255)" stroke-width="1.874998" fill="none" d="M 0.000000 750.000000 L 172.131149 0.000000 " />
<path stroke-linejoin="round" stroke-linecap="round" stroke="rgb(255,0,0)" stroke-width="3.749996" fill="none" d="M 80.152657 400.763367 L 81.395340 406.976807 " />
<path stroke-linejoin="round" stroke-linecap="round" stroke="rgb(0,0,255)" stroke-width="1.874998" fill="none" d="M 0.000000 750.000000 L 163.636337 0.000000 " />
<path stroke-linejoin="round" stroke-linecap="round" stroke="rgb(255,0,0)" stroke-width="3.749996" fill="none" d="M 78.260849 391.304382 L 80.152657 400.763367 " />
<path stroke-linejoin="round" stroke-linecap="round" stroke="rgb(0,0,255)" stroke-width="1.874998" fill="none" d="M 0.000000 750.000000 L 147.321442 0.000000 " />
<path stroke-linejoin="round" stroke-linecap="round" stroke="rgb(255,0,0)" stroke-width="3.749996" fill="none" d="M 74.324326 371.621674 L 78.260849 391.304382 " />
<path stroke-linejoin="round" stroke-linecap="round" stroke="rgb(0,0,255)" stroke-width="1.874998" fill="none" d="M 0.000000 750.000000 L 131.578934 0.000000 " />
<path stroke-linejoin="round" stroke-linecap="round" stroke="rgb(255,0,0)" stroke-width="3.749996" fill="none" d="M 70.093452 350.467346 L 74.324326 371.621674 " />
<path stroke-linejoin="round" stroke-linecap="round" stroke="rgb(0,0,255)" stroke-width="1.874998" fill="none" d="M 0.000000 750.000000 L 127.118645 0.000000 " />
<path stroke-linejoin="round" stroke-linecap="round" stroke="rgb(255,0,0)" stroke-width="3.749996" fill="none" d="M 68.807335 344.036743 L 70.093452 350.467346 " />
<path stroke-linejoin="round" stroke-linecap="round" stroke="rgb(0,0,255)" stroke-width="1.874998" fill="none" d="M 0.000000 750.000000 L 122.950806 0.000000 " />
<path stroke-linejoin="round" stroke-linecap="round" stroke="rgb(255,0,0)" stroke-width="3.749996" fill="none" d="M 67.567551 337.837891 L 68.807335 344.036743 " />
<path stroke-linejoin="round" stroke-linecap="round" stroke="rgb(0,0,255)" stroke-width="1.874998" fill="none" d="M 0.000000 750.000000 L 119.047615 0.000000 " />
<path stroke-linejoin="round" stroke-linecap="round" stroke="rgb(255,0,0)" stroke-width="3.749996" fill="none" d="M 66.371666 331.858459 L 67.567551 337.837891 " />
<path stroke-linejoin="round" stroke-linecap="round" stroke="rgb(0,0,255)" stroke-width="1.874998" fill="none" d="M 0.000000 750.000000 L 115.384605 0.000000 " />
<path stroke-linejoin="round" stroke-linecap="round" stroke="rgb(255,0,0)" stroke-width="3.749996" fill="none" d="M 65.217377 326.087006 L 66.371666 331.858459 " />
<path stroke-linejoin="round" stroke-linecap="round" stroke="rgb(0,0,255)" stroke-width="1.874998" fill="none" d="M 0.000000 750.000000 L 111.940292 0.000000 " />
<path stroke-linejoin="round" stroke-linecap="round" stroke="rgb(255,0,0)" stroke-width="3.749996" fill="none" d="M 64.102562 320.512878 L 65.217377 326.087006 " />
<path stroke-linejoin="round" stroke-linecap="round" stroke="rgb(0,0,255)" stroke-width="1.874998" fill="none" d="M 0.000000 750.000000 L 108.695648 0.000000 " />
<path stroke-linejoin="round" stroke-linecap="round" stroke="rgb(255,0,0)" stroke-width="3.749996" fill="none" d="M 63.025208 315.126068 L 64.102562 320.512878 " />
<path stroke-linejoin="round" stroke-linecap="round" stroke="rgb(0,0,255)" stroke-width="1.874998" fill="none" d="M 0.000000 750.000000 L 105.633797 0.000000 " />
<path stroke-linejoin="round" stroke-linecap="round" stroke="rgb(255,0,0)" stroke-width="3.749996" fill="none" d="M 61.983459 309.917419 L 63.025208 315.126068 " />
<path stroke-linejoin="round" stroke-linecap="round" stroke="rgb(0,0,255)" stroke-width="1.874998" fill="none" d="M 0.000000 750.000000 L 96.428589 0.000000 " />
<path stroke-linejoin="round" stroke-linecap="round" stroke="rgb(255,0,0)" stroke-width="3.749996" fill="none" d="M 58.695652 293.478302 L 61.983459 309.917419 " />
<path stroke-linejoin="round" stroke-linecap="round" stroke="rgb(0,0,255)" stroke-width="1.874998" fill="none" d="M 0.000000 750.000000 L 84.507042 0.000000 " />
<path stroke-linejoin="round" stroke-linecap="round" stroke="rgb(255,0,0)" stroke-width="3.749996" fill="none" d="M 54.054043 270.270325 L 58.695652 293.478302 " />
<path stroke-linejoin="round" stroke-linecap="round" stroke="rgb(0,0,255)" stroke-width="1.874998" fill="none" d="M 0.000000 750.000000 L 72.916656 0.000000 " />
<path stroke-linejoin="round" stroke-linecap="round" stroke="rgb(255,0,0)" stroke-width="3.749996" fill="none" d="M 49.065426 245.327179 L 54.054043 270.270325 " />
<path stroke-linejoin="round" stroke-linecap="round" stroke="rgb(0,0,255)" stroke-width="1.874998" fill="none" d="M 0.000000 750.000000 L 70.945946 0.000000 " />
<path stroke-linejoin="round" stroke-linecap="round" stroke="rgb(255,0,0)" stroke-width="3.749996" fill="none" d="M 48.165142 240.825760 L 49.065426 245.327179 " />
<path stroke-linejoin="round" stroke-linecap="round" stroke="rgb(0,0,255)" stroke-width="1.874998" fill="none" d="M 0.000000 750.000000 L 59.999989 0.000000 " />
<path stroke-linejoin="round" stroke-linecap="round" stroke="rgb(255,0,0)" stroke-width="3.749996" fill="none" d="M 42.857140 214.285797 L 48.165142 240.825760 " />
<path stroke-linejoin="round" stroke-linecap="round" stroke="rgb(0,0,255)" stroke-width="1.874998" fill="none" d="M 0.000000 750.000000 L 58.441559 0.000000 " />
<path stroke-linejoin="round" stroke-linecap="round" stroke="rgb(255,0,0)" stroke-width="3.749996" fill="none" d="M 42.056076 210.280411 L 42.857140 214.285797 " />
<path stroke-linejoin="round" stroke-linecap="round" stroke="rgb(0,0,255)" stroke-width="1.874998" fill="none" d="M 0.000000 750.000000 L 56.962029 0.000000 " />
<path stroke-linejoin="round" stroke-linecap="round" stroke="rgb(255,0,0)" stroke-width="3.749996" fill="none" d="M 41.284382 206.422134 L 42.056076 210.280411 " />
<path stroke-linejoin="round" stroke-linecap="round" stroke="rgb(0,0,255)" stroke-width="1.874998" fill="none" d="M 0.000000 750.000000 L 55.555569 0.000000 " />
<path stroke-linejoin="round" stroke-linecap="round" stroke="rgb(255,0,0)" stroke-width="3.749996" fill="none" d="M 40.540539 202.702805 L 41.284382 206.422134 " />
<path stroke-linejoin="round" stroke-linecap="round" stroke="rgb(0,0,255)" stroke-width="1.874998" fill="none" d="M 0.000000 750.000000 L 45.731709 0.000000 " />
<path stroke-linejoin="round" stroke-linecap="round" stroke="rgb(255,0,0)" stroke-width="3.749996" fill="none" d="M 35.046726 175.233795 L 40.540539 202.702805 " />
<path stroke-linejoin="round" stroke-linecap="round" stroke="rgb(0,0,255)" stroke-width="1.874998" fill="none" d="M 0.000000 750.000000 L 36.144577 0.000000 " />
<path stroke-linejoin="round" stroke-linecap="round" stroke="rgb(255,0,0)" stroke-width="3.749996" fill="none" d="M 29.126198 145.631180 L 35.046726 175.233795 " />
<path stroke-linejoin="round" stroke-linecap="round" stroke="rgb(0,0,255)" stroke-width="1.874998" fill="none" d="M 0.000000 750.000000 L 35.294117 0.000000 " />
<path stroke-linejoin="round" stroke-linecap="round" stroke="rgb(255,0,0)" stroke-width="3.749996" fill="none" d="M 28.571426 142.857239 L 29.126198 145.631180 " />
<path stroke-linejoin="round" stroke-linecap="round" stroke="rgb(0,0,255)" stroke-width="1.874998" fill="none" d="M 0.000000 750.000000 L 34.482746 0.000000 " />
<path stroke-linejoin="round" stroke-linecap="round" stroke="rgb(255,0,0)" stroke-width="3.749996" fill="none" d="M 28.037376 140.187012 L 28.571426 142.857208 " />
<path stroke-linejoin="round" stroke-linecap="round" stroke="rgb(0,0,255)" stroke-width="1.874998" fill="none" d="M 0.000000 750.000000 L 33.707855 0.000000 " />
<path stroke-linejoin="round" stroke-linecap="round" stroke="rgb(255,0,0)" stroke-width="3.749996" fill="none" d="M 27.522928 137.614731 L 28.037376 140.187012 " />
<path stroke-linejoin="round" stroke-linecap="round" stroke="rgb(0,0,255)" stroke-width="1.874998" fill="none" d="M 0.000000 750.000000 L 32.967030 0.000000 " />
<path stroke-linejoin="round" stroke-linecap="round" stroke="rgb(255,0,0)" stroke-width="3.749996" fill="none" d="M 27.027033 135.135239 L 27.522928 137.614731 " />
<path stroke-linejoin="round" stroke-linecap="round" stroke="rgb(0,0,255)" stroke-width="1.874998" fill="none" d="M 0.000000 750.000000 L 31.578943 0.000000 " />
<path stroke-linejoin="round" stroke-linecap="round" stroke="rgb(255,0,0)" stroke-width="3.749996" fill="none" d="M 26.086941 130.434860 L 27.027033 135.135239 " />
<path stroke-linejoin="round" stroke-linecap="round" stroke="rgb(0,0,255)" stroke-width="1.874998" fill="none" d="M 0.000000 750.000000 L 30.927837 0.000000 " />
<path stroke-linejoin="round" stroke-linecap="round" stroke="rgb(255,0,0)" stroke-width="3.749996" fill="none" d="M 25.641024 128.205231 L 26.086941 130.434860 " />
<path stroke-linejoin="round" stroke-linecap="round" stroke="rgb(0,0,255)" stroke-width="1.874998" fill="none" d="M 0.000000 750.000000 L 28.301888 0.000000 " />
<path stroke-linejoin="round" stroke-linecap="round" stroke="rgb(255,0,0)" stroke-width="3.749996" fill="none" d="M 23.809523 119.047638 L 25.641024 128.205231 " />
<path stroke-linejoin="round" stroke-linecap="round" stroke="rgb(0,0,255)" stroke-width="1.874998" fill="none" d="M 0.000000 750.000000 L 27.522928 0.000000 " />
<path stroke-linejoin="round" stroke-linecap="round" stroke="rgb(255,0,0)" stroke-width="3.749996" fill="none" d="M 23.255825 116.279060 L 23.809523 119.047592 " />
<path stroke-linejoin="round" stroke-linecap="round" stroke="rgb(0,0,255)" stroke-width="1.874998" fill="none" d="M 0.000000 750.000000 L 22.959173 0.000000 " />
<path stroke-linejoin="round" stroke-linecap="round" stroke="rgb(255,0,0)" stroke-width="3.749996" fill="none" d="M 19.911512 99.557518 L 23.255802 116.279129 " />
<path stroke-linejoin="round" stroke-linecap="round" stroke="rgb(0,0,255)" stroke-width="1.874998" fill="none" d="M 0.000000 750.000000 L 22.500000 0.000000 " />
<path stroke-linejoin="round" stroke-linecap="round" stroke="rgb(255,0,0)" stroke-width="3.749996" fill="none" d="M 19.565218 97.826134 L 19.911512 99.557518 " />
<path stroke-linejoin="round" stroke-linecap="round" stroke="rgb(0,0,255)" stroke-width="1.874998" fill="none" d="M 0.000000 750.000000 L 21.634609 0.000000 " />
<path stroke-linejoin="round" stroke-linecap="round" stroke="rgb(255,0,0)" stroke-width="3.749996" fill="none" d="M 18.907562 94.537918 L 19.565218 97.826172 " />
<path stroke-linejoin="round" stroke-linecap="round" stroke="rgb(0,0,255)" stroke-width="1.874998" fill="none" d="M 0.000000 750.000000 L 14.285713 0.000000 " />
<path stroke-linejoin="round" stroke-linecap="round" stroke="rgb(255,0,0)" stroke-width="3.749996" fill="none" d="M 13.043470 65.217491 L 18.907562 94.537918 " />
<path stroke-linejoin="round" stroke-linecap="round" stroke="rgb(0,0,255)" stroke-width="1.874998" fill="none" d="M 0.000000 750.000000 L 7.075466 0.000000 " />
<path stroke-linejoin="round" stroke-linecap="round" stroke="rgb(255,0,0)" stroke-width="3.749996" fill="none" d="M 6.756753 33.783852 L 13.043470 65.217491 " />
<path stroke-linejoin="round" stroke-linecap="round" stroke="rgb(0,0,255)" stroke-width="1.874998" fill="none" d="M 0.000000 750.000000 L 0.000000 0.000000 " />
<path stroke-linejoin="round" stroke-linecap="round" stroke="rgb(255,0,0)" stroke-width="3.749996" fill="none" d="M 0.000000 0.000000 L 6.756753 33.783852 " />
<circle cx="248.868752" cy="744.343892" r="3.749996" style="fill:rgb(0,127,0);stroke-width:1" /><circle cx="243.212622" cy="738.687783" r="3.749996" style="fill:rgb(0,127,0);stroke-width:1" /><circle cx="237.556513" cy="733.031675" r="3.749996" style="fill:rgb(0,127,0);stroke-width:1" /><circle cx="232.863128" cy="728.338324" r="3.749996" style="fill:rgb(0,127,0);stroke-width:1" /><circle cx="227.447703" cy="722.922899" r="3.749996" style="fill:rgb(0,127,0);stroke-width:1" /><circle cx="223.358497" cy="718.833692" r="3.749996" style="fill:rgb(0,127,0);stroke-width:1" /><circle cx="222.032279" cy="717.507474" r="3.749996" style="fill:rgb(0,127,0);stroke-width:1" /><circle cx="216.616854" cy="712.092049" r="3.749996" style="fill:rgb(0,127,0);stroke-width:1" /><circle cx="212.969720" cy="708.444938" r="3.749996" style="fill:rgb(0,127,0);stroke-width:1" /><circle cx="211.201429" cy="706.676625" r="3.749996" style="fill:rgb(0,127,0);stroke-width:1" /><circle cx="205.786005" cy="701.261200" r="3.749996" style="fill:rgb(0,127,0);stroke-width:1" /><circle cx="200.370591" cy="695.845798" r="3.749996" style="fill:rgb(0,127,0);stroke-width:1" /><circle cx="194.955166" cy="690.430373" r="3.749996" style="fill:rgb(0,127,0);stroke-width:1" /><circle cx="189.539753" cy="685.014948" r="3.750002" style="fill:rgb(0,127,0);stroke-width:1" /><circle cx="186.997823" cy="682.472996" r="3.749996" style="fill:rgb(0,127,0);stroke-width:1" /><circle cx="184.124351" cy="679.599501" r="3.749996" style="fill:rgb(0,127,0);stroke-width:1" /><circle cx="181.803457" cy="677.278608" r="3.749996" style="fill:rgb(0,127,0);stroke-width:1" /><circle cx="176.609091" cy="672.084220" r="3.749996" style="fill:rgb(0,127,0);stroke-width:1" /><circle cx="171.414725" cy="666.889831" r="3.749996" style="fill:rgb(0,127,0);stroke-width:1" /><circle cx="166.220337" cy="661.695443" r="3.749996" style="fill:rgb(0,127,0);stroke-width:1" /><circle cx="161.025949" cy="656.501055" r="3.749996" style="fill:rgb(0,127,0);stroke-width:1" /><circle cx="155.831583" cy="651.306666" r="3.749996" style="fill:rgb(0,127,0);stroke-width:1" /><circle cx="150.637217" cy="646.112278" r="3.749996" style="fill:rgb(0,127,0);stroke-width:1" /><circle cx="145.442829" cy="640.917890" r="3.749996" style="fill:rgb(0,127,0);stroke-width:1" /><circle cx="144.729875" cy="640.204936" r="3.749996" style="fill:rgb(0,127,0);stroke-width:1" /><circle cx="140.248440" cy="635.723501" r="3.749996" style="fill:rgb(0,127,0);stroke-width:1" /><circle cx="135.054030" cy="630.529113" r="3.749996" style="fill:rgb(0,127,0);stroke-width:1" /><circle cx="134.748481" cy="630.223565" r="3.749996" style="fill:rgb(0,127,0);stroke-width:1" /><circle cx="129.859664" cy="625.334725" r="3.749996" style="fill:rgb(0,127,0);stroke-width:1" /><circle cx="124.665275" cy="620.140336" r="3.749996" style="fill:rgb(0,127,0);stroke-width:1" /><circle cx="122.340426" cy="611.702129" r="3.749996" style="fill:rgb(0,127,0);stroke-width:1" /><circle cx="120.629378" cy="603.146866" r="3.749996" style="fill:rgb(0,127,0);stroke-width:1" /><circle cx="118.705027" cy="593.525179" r="3.749996" style="fill:rgb(0,127,0);stroke-width:1" /><circle cx="116.666637" cy="583.333366" r="3.749996" style="fill:rgb(0,127,0);stroke-width:1" /><circle cx="114.503793" cy="572.519101" r="3.749996" style="fill:rgb(0,127,0);stroke-width:1" /><circle cx="112.204716" cy="561.023667" r="3.749996" style="fill:rgb(0,127,0);stroke-width:1" /><circle cx="110.465102" cy="552.325588" r="3.749996" style="fill:rgb(0,127,0);stroke-width:1" /><circle cx="108.778618" cy="543.893158" r="3.749996" style="fill:rgb(0,127,0);stroke-width:1" /><circle cx="107.999995" cy="540.000021" r="3.749996" style="fill:rgb(0,127,0);stroke-width:1" /><circle cx="106.299207" cy="531.496089" r="3.749996" style="fill:rgb(0,127,0);stroke-width:1" /><circle cx="103.658527" cy="518.292725" r="3.749996" style="fill:rgb(0,127,0);stroke-width:1" /><circle cx="100.840330" cy="504.201706" r="3.749996" style="fill:rgb(0,127,0);stroke-width:1" /><circle cx="97.826064" cy="489.130463" r="3.749996" style="fill:rgb(0,127,0);stroke-width:1" /><circle cx="96.153840" cy="480.769280" r="3.749996" style="fill:rgb(0,127,0);stroke-width:1" /><circle cx="92.920348" cy="464.601785" r="3.749996" style="fill:rgb(0,127,0);stroke-width:1" /><circle cx="91.304339" cy="456.521781" r="3.749996" style="fill:rgb(0,127,0);stroke-width:1" /><circle cx="90.000004" cy="450.000018" r="3.749996" style="fill:rgb(0,127,0);stroke-width:1" /><circle cx="86.776860" cy="433.884323" r="3.749996" style="fill:rgb(0,127,0);stroke-width:1" /><circle cx="85.365839" cy="426.829280" r="3.749996" style="fill:rgb(0,127,0);stroke-width:1" /><circle cx="82.677148" cy="413.385839" r="3.749996" style="fill:rgb(0,127,0);stroke-width:1" /><circle cx="81.395343" cy="406.976790" r="3.749996" style="fill:rgb(0,127,0);stroke-width:1" /><circle cx="80.152653" cy="400.763392" r="3.749996" style="fill:rgb(0,127,0);stroke-width:1" /><circle cx="78.260846" cy="391.304404" r="3.749996" style="fill:rgb(0,127,0);stroke-width:1" /><circle cx="74.324325" cy="371.621668" r="3.749996" style="fill:rgb(0,127,0);stroke-width:1" /><circle cx="70.093453" cy="350.467323" r="3.749996" style="fill:rgb(0,127,0);stroke-width:1" /><circle cx="68.807334" cy="344.036727" r="3.749996" style="fill:rgb(0,127,0);stroke-width:1" /><circle cx="67.567550" cy="337.837905" r="3.749996" style="fill:rgb(0,127,0);stroke-width:1" /><circle cx="66.371664" cy="331.858456" r="3.749996" style="fill:rgb(0,127,0);stroke-width:1" /><circle cx="65.217376" cy="326.086996" r="3.749996" style="fill:rgb(0,127,0);stroke-width:1" /><circle cx="64.102560" cy="320.512863" r="3.749996" style="fill:rgb(0,127,0);stroke-width:1" /><circle cx="63.025206" cy="315.126060" r="3.749996" style="fill:rgb(0,127,0);stroke-width:1" /><circle cx="61.983459" cy="309.917422" r="3.749996" style="fill:rgb(0,127,0);stroke-width:1" /><circle cx="58.695652" cy="293.478308" r="3.749996" style="fill:rgb(0,127,0);stroke-width:1" /><circle cx="54.054044" cy="270.270322" r="3.749996" style="fill:rgb(0,127,0);stroke-width:1" /><circle cx="49.065426" cy="245.327175" r="3.749996" style="fill:rgb(0,127,0);stroke-width:1" /><circle cx="48.165143" cy="240.825769" r="3.749996" style="fill:rgb(0,127,0);stroke-width:1" /><circle cx="42.857140" cy="214.285791" r="3.749996" style="fill:rgb(0,127,0);stroke-width:1" /><circle cx="42.056076" cy="210.280415" r="3.749996" style="fill:rgb(0,127,0);stroke-width:1" /><circle cx="41.284382" cy="206.422146" r="3.749996" style="fill:rgb(0,127,0);stroke-width:1" /><circle cx="40.540539" cy="202.702817" r="3.749996" style="fill:rgb(0,127,0);stroke-width:1" /><circle cx="35.046726" cy="175.233789" r="3.749996" style="fill:rgb(0,127,0);stroke-width:1" /><circle cx="29.126197" cy="145.631187" r="3.749996" style="fill:rgb(0,127,0);stroke-width:1" /><circle cx="28.571427" cy="142.857246" r="3.749996" style="fill:rgb(0,127,0);stroke-width:1" /><circle cx="28.037377" cy="140.187018" r="3.749996" style="fill:rgb(0,127,0);stroke-width:1" /><circle cx="27.522929" cy="137.614734" r="3.749996" style="fill:rgb(0,127,0);stroke-width:1" /><circle cx="27.027033" cy="135.135233" r="3.749996" style="fill:rgb(0,127,0);stroke-width:1" /><circle cx="26.086941" cy="130.434863" r="3.749996" style="fill:rgb(0,127,0);stroke-width:1" /><circle cx="25.641024" cy="128.205232" r="3.749996" style="fill:rgb(0,127,0);stroke-width:1" /><circle cx="23.809522" cy="119.047634" r="3.749996" style="fill:rgb(0,127,0);stroke-width:1" /><circle cx="23.255825" cy="116.279058" r="3.749996" style="fill:rgb(0,127,0);stroke-width:1" /><circle cx="19.911513" cy="99.557519" r="3.749996" style="fill:rgb(0,127,0);stroke-width:1" /><circle cx="19.565217" cy="97.826131" r="3.749996" style="fill:rgb(0,127,0);stroke-width:1" /><circle cx="18.907562" cy="94.537921" r="3.749996" style="fill:rgb(0,127,0);stroke-width:1" /><circle cx="13.043471" cy="65.217488" r="3.749996" style="fill:rgb(0,127,0);stroke-width:1" /><circle cx="6.756753" cy="33.783853" r="3.749996" style="fill:rgb(0,127,0);stroke-width:1" /><circle cx="750.000000" cy="750.000000" r="3.749996" style="fill:rgb(0,127,0);stroke-width:1" /><path stroke-linejoin="round" stroke-linecap="round" stroke="rgb(255,255,255)" stroke-width="3.749996" fill="none" d="M 0.000000 750.000000 L 750.000000 750.000000 M 0.000000 750.000000 L 0.000000 0.000000 " />

</svg>