<svg xmlns="http://www.w3.org/2000/svg" version="1.1" width = "750" height = "750" viewBox = "0 0 750 750"  shape-rendering="crispEdges">
<path stroke-linejoin="round" stroke-linecap="round" stroke="rgb(255,255,0)" stroke-width="3.749996" fill="none" d="M 149.999985 750.000000 L 0.000000 0.000000 " />
<path stroke-linejoin="round" stroke-linecap="round" stroke="rgb(63,63,63)" stroke-width="3.749996" fill="none" d="M 0.000000 0.000000 L 750.000000 750.000000 M 149.999985 750.000000 L 66.666664 0.000000 " />
<path stroke-linejoin="round" stroke-linecap="round" stroke="rgb(191,191,191)" stroke-width="3.749996" fill="none" d="M 0.000000 600.000000 L 149.999985 750.000000 M 0.000000 0.000000 L 83.333328 750.000000 " />
<path stroke-linejoin="round" stroke-linecap="round" stroke="rgb(0,0,255)" stroke-width="1.874998" fill="none" d="M 0.000000 750.000000 L 750.000000 731.250000 " />
<path stroke-linejoin="round" stroke-linecap="round" stroke="rgb(255,0,0)" stroke-width="3.749996" fill="none" d="M 149.584488 746.260376 L 149.999985 750.000000 " />
<path stroke-linejoin="round" stroke-linecap="round" stroke="rgb(0,0,255)" stroke-width="1.874998" fill="none" d="M 0.000000 750.000000 L 750.000000 711.538452 " />
<path stroke-linejoin="round" stroke-linecap="round" stroke="rgb(255,0,0)" stroke-width="3.749996" fill="none" d="M 148.296051 742.395020 L 149.584473 746.260376 " />
<path stroke-linejoin="round" stroke-linecap="round" stroke="rgb(0,0,255)" stroke-width="1.874998" fill="none" d="M 0.000000 750.000000 L 750.000000 693.750000 " />
<path stroke-linejoin="round" stroke-linecap="round" stroke="rgb(255,0,0)" stroke-width="3.749996" fill="none" d="M 147.152206 738.963623 L 148.296036 742.395020 " />
<path stroke-linejoin="round" stroke-linecap="round" stroke="rgb(0,0,255)" stroke-width="1.874998" fill="none" d="M 0.000000 750.000000 L 750.000000 673.076904 " />
<path stroke-linejoin="round" stroke-linecap="round" stroke="rgb(255,0,0)" stroke-width="3.749996" fill="none" d="M 145.844864 735.041565 L 147.152206 738.963623 " />
<path stroke-linejoin="round" stroke-linecap="round" stroke="rgb(0,0,255)" stroke-width="1.874998" fill="none" d="M 0.000000 750.000000 L 750.000000 651.315796 " />
<path stroke-linejoin="round" stroke-linecap="round" stroke="rgb(255,0,0)" stroke-width="3.749996" fill="none" d="M 144.493591 730.987671 L 145.844864 735.041565 " />
<path stroke-linejoin="round" stroke-linecap="round" stroke="rgb(0,0,255)" stroke-width="1.874998" fill="none" d="M 0.000000 750.000000 L 750.000000 634.615417 " />
<path stroke-linejoin="round" stroke-linecap="round" stroke="rgb(255,0,0)" stroke-width="3.749996" fill="none" d="M 143.473419 727.927185 L 144.493591 730.987671 " />
<path stroke-linejoin="round" stroke-linecap="round" stroke="rgb(0,0,255)" stroke-width="1.874998" fill="none" d="M 0.000000 750.000000 L 750.000000 628.378357 " />
<path stroke-linejoin="round" stroke-linecap="round" stroke="rgb(255,0,0)" stroke-width="3.749996" fill="none" d="M 143.096100 726.795227 L 143.473419 727.927185 " />
<path stroke-linejoin="round" stroke-linecap="round" stroke="rgb(0,0,255)" stroke-width="1.874998" fill="none" d="M 0.000000 750.000000 L 750.000000 604.166687 " />
<path stroke-linejoin="round" stroke-linecap="round" stroke="rgb(255,0,0)" stroke-width="3.749996" fill="none" d="M 141.650009 722.456909 L 143.096100 726.795227 " />
<path stroke-linejoin="round" stroke-linecap="round" stroke="rgb(0,0,255)" stroke-width="1.874998" fill="none" d="M 0.000000 750.000000 L 750.000000 578.571411 " />
<path stroke-linejoin="round" stroke-linecap="round" stroke="rgb(255,0,0)" stroke-width="3.749996" fill="none" d="M 140.152710 717.965088 L 141.650009 722.456909 " />
<path stroke-linejoin="round" stroke-linecap="round" stroke="rgb(0,0,255)" stroke-width="1.874998" fill="none" d="M 0.000000 750.000000 L 750.000000 551.470581 " />
<path stroke-linejoin="round" stroke-linecap="round" stroke="rgb(255,0,0)" stroke-width="3.749996" fill="none" d="M 138.601471 713.311401 L 140.152710 717.965088 " />
<path stroke-linejoin="round" stroke-linecap="round" stroke="rgb(0,0,255)" stroke-width="1.874998" fill="none" d="M 0.000000 750.000000 L 750.000000 522.727295 " />
<path stroke-linejoin="round" stroke-linecap="round" stroke="rgb(255,0,0)" stroke-width="3.749996" fill="none" d="M 136.993286 708.486877 L 138.601471 713.311401 " />
<path stroke-linejoin="round" stroke-linecap="round" stroke="rgb(0,0,255)" stroke-width="1.874998" fill="none" d="M 0.000000 750.000000 L 750.000000 492.187500 " />
<path stroke-linejoin="round" stroke-linecap="round" stroke="rgb(255,0,0)" stroke-width="3.749996" fill="none" d="M 135.324997 703.481995 L 136.993286 708.486877 " />
<path stroke-linejoin="round" stroke-linecap="round" stroke="rgb(0,0,255)" stroke-width="1.874998" fill="none" d="M 0.000000 750.000000 L 750.000000 477.272705 " />
<path stroke-linejoin="round" stroke-linecap="round" stroke="rgb(255,0,0)" stroke-width="3.749996" fill="none" d="M 134.524948 701.081848 L 135.324997 703.481995 " />
<path stroke-linejoin="round" stroke-linecap="round" stroke="rgb(0,0,255)" stroke-width="1.874998" fill="none" d="M 0.000000 750.000000 L 750.000000 459.677429 " />
<path stroke-linejoin="round" stroke-linecap="round" stroke="rgb(255,0,0)" stroke-width="3.749996" fill="none" d="M 133.593170 698.286499 L 134.524948 701.081848 " />
<path stroke-linejoin="round" stroke-linecap="round" stroke="rgb(0,0,255)" stroke-width="1.874998" fill="none" d="M 0.000000 750.000000 L 750.000000 425.000000 " />
<path stroke-linejoin="round" stroke-linecap="round" stroke="rgb(255,0,0)" stroke-width="3.749996" fill="none" d="M 131.794067 692.889221 L 133.593170 698.286499 " />
<path stroke-linejoin="round" stroke-linecap="round" stroke="rgb(0,0,255)" stroke-width="1.874998" fill="none" d="M 0.000000 750.000000 L 750.000000 411.290344 " />
<path stroke-linejoin="round" stroke-linecap="round" stroke="rgb(255,0,0)" stroke-width="3.749996" fill="none" d="M 131.096100 690.795349 L 131.794067 692.889221 " />
<path stroke-linejoin="round" stroke-linecap="round" stroke="rgb(0,0,255)" stroke-width="1.874998" fill="none" d="M 0.000000 750.000000 L 750.000000 387.931030 " />
<path stroke-linejoin="round" stroke-linecap="round" stroke="rgb(255,0,0)" stroke-width="3.749996" fill="none" d="M 129.923752 687.278198 L 131.096100 690.795349 " />
<path stroke-linejoin="round" stroke-linecap="round" stroke="rgb(0,0,255)" stroke-width="1.874998" fill="none" d="M 0.000000 750.000000 L 750.000000 348.214294 " />
<path stroke-linejoin="round" stroke-linecap="round" stroke="rgb(255,0,0)" stroke-width="3.749996" fill="none" d="M 127.977844 681.440430 L 129.923752 687.278198 " />
<path stroke-linejoin="round" stroke-linecap="round" stroke="rgb(0,0,255)" stroke-width="1.874998" fill="none" d="M 0.000000 750.000000 L 750.000000 336.206909 " />
<path stroke-linejoin="round" stroke-linecap="round" stroke="rgb(255,0,0)" stroke-width="3.749996" fill="none" d="M 127.400948 679.709778 L 127.977844 681.440430 " />
<path stroke-linejoin="round" stroke-linecap="round" stroke="rgb(0,0,255)" stroke-width="1.874998" fill="none" d="M 0.000000 750.000000 L 750.000000 305.555542 " />
<path stroke-linejoin="round" stroke-linecap="round" stroke="rgb(255,0,0)" stroke-width="3.749996" fill="none" d="M 125.951660 675.362000 L 127.400948 679.709778 " />
<path stroke-linejoin="round" stroke-linecap="round" stroke="rgb(0,0,255)" stroke-width="1.874998" fill="none" d="M 0.000000 750.000000 L 750.000000 259.615387 " />
<path stroke-linejoin="round" stroke-linecap="round" stroke="rgb(255,0,0)" stroke-width="3.749996" fill="none" d="M 123.840179 669.027588 L 125.951660 675.362000 " />
<path stroke-linejoin="round" stroke-linecap="round" stroke="rgb(0,0,255)" stroke-width="1.874998" fill="none" d="M 0.000000 750.000000 L 750.000000 249.999985 " />
<path stroke-linejoin="round" stroke-linecap="round" stroke="rgb(255,0,0)" stroke-width="3.749996" fill="none" d="M 123.407188 667.728577 L 123.840179 669.027588 " />
<path stroke-linejoin="round" stroke-linecap="round" stroke="rgb(0,0,255)" stroke-width="1.874998" fill="none" d="M 0.000000 750.000000 L 750.000000 201.923080 " />
<path stroke-linejoin="round" stroke-linecap="round" stroke="rgb(255,0,0)" stroke-width="3.749996" fill="none" d="M 121.286789 661.367371 L 123.407188 667.728577 " />
<path stroke-linejoin="round" stroke-linecap="round" stroke="rgb(0,0,255)" stroke-width="1.874998" fill="none" d="M 0.000000 750.000000 L 750.000000 194.444458 " />
<path stroke-linejoin="round" stroke-linecap="round" stroke="rgb(255,0,0)" stroke-width="3.749996" fill="none" d="M 120.963470 660.397400 L 121.286789 661.367371 " />
<path stroke-linejoin="round" stroke-linecap="round" stroke="rgb(0,0,255)" stroke-width="1.874998" fill="none" d="M 0.000000 750.000000 L 750.000000 149.999985 " />
<path stroke-linejoin="round" stroke-linecap="round" stroke="rgb(255,0,0)" stroke-width="3.749996" fill="none" d="M 119.077118 654.738281 L 120.963470 660.397400 " />
<path stroke-linejoin="round" stroke-linecap="round" stroke="rgb(0,0,255)" stroke-width="1.874998" fill="none" d="M 0.000000 750.000000 L 750.000000 93.750000 " />
<path stroke-linejoin="round" stroke-linecap="round" stroke="rgb(255,0,0)" stroke-width="3.749996" fill="none" d="M 116.772385 647.824158 L 119.077118 654.738281 " />
<path stroke-linejoin="round" stroke-linecap="round" stroke="rgb(0,0,255)" stroke-width="1.874998" fill="none" d="M 0.000000 750.000000 L 750.000000 90.000000 " />
<path stroke-linejoin="round" stroke-linecap="round" stroke="rgb(255,0,0)" stroke-width="3.749996" fill="none" d="M 116.621910 647.372742 L 116.772385 647.824158 " />
<path stroke-linejoin="round" stroke-linecap="round" stroke="rgb(0,0,255)" stroke-width="1.874998" fill="none" d="M 0.000000 750.000000 L 750.000000 32.608688 " />
<path stroke-linejoin="round" stroke-linecap="round" stroke="rgb(255,0,0)" stroke-width="3.749996" fill="none" d="M 114.366356 640.606079 L 116.621910 647.372742 " />
<path stroke-linejoin="round" stroke-linecap="round" stroke="rgb(0,0,255)" stroke-width="1.874998" fill="none" d="M 0.000000 750.000000 L 717.391296 0.000000 " />
<path stroke-linejoin="round" stroke-linecap="round" stroke="rgb(255,0,0)" stroke-width="3.749996" fill="none" d="M 111.852203 633.063599 L 114.366356 640.606079 " />
<path stroke-linejoin="round" stroke-linecap="round" stroke="rgb(0,0,255)" stroke-width="1.874998" fill="none" d="M 0.000000 750.000000 L 660.000000 0.000000 " />
<path stroke-linejoin="round" stroke-linecap="round" stroke="rgb(255,0,0)" stroke-width="3.749996" fill="none" d="M 109.393913 625.688721 L 111.852203 633.063599 " />
<path stroke-linejoin="round" stroke-linecap="round" stroke="rgb(0,0,255)" stroke-width="1.874998" fill="none" d="M 0.000000 750.000000 L 605.769226 0.000000 " />
<path stroke-linejoin="round" stroke-linecap="round" stroke="rgb(255,0,0)" stroke-width="3.749996" fill="none" d="M 106.768013 617.811035 L 109.393913 625.688721 " />
<path stroke-linejoin="round" stroke-linecap="round" stroke="rgb(0,0,255)" stroke-width="1.874998" fill="none" d="M 0.000000 750.000000 L 562.500000 0.000000 " />
<path stroke-linejoin="round" stroke-linecap="round" stroke="rgb(255,0,0)" stroke-width="3.749996" fill="none" d="M 104.421455 610.771423 L 106.768013 617.811035 " />
<path stroke-linejoin="round" stroke-linecap="round" stroke="rgb(0,0,255)" stroke-width="1.874998" fill="none" d="M 0.000000 750.000000 L 525.000000 0.000000 " />
<path stroke-linejoin="round" stroke-linecap="round" stroke="rgb(255,0,0)" stroke-width="3.749996" fill="none" d="M 102.175827 604.034546 L 104.421440 610.771423 " />
<path stroke-linejoin="round" stroke-linecap="round" stroke="rgb(0,0,255)" stroke-width="1.874998" fill="none" d="M 0.000000 750.000000 L 517.241333 0.000000 " />
<path stroke-linejoin="round" stroke-linecap="round" stroke="rgb(255,0,0)" stroke-width="3.749996" fill="none" d="M 101.683815 602.558411 L 102.175827 604.034546 " />
<path stroke-linejoin="round" stroke-linecap="round" stroke="rgb(0,0,255)" stroke-width="1.874998" fill="none" d="M 0.000000 750.000000 L 475.000000 0.000000 " />
<path stroke-linejoin="round" stroke-linecap="round" stroke="rgb(255,0,0)" stroke-width="3.749996" fill="none" d="M 98.820312 593.967957 L 101.683838 602.558411 " />
<path stroke-linejoin="round" stroke-linecap="round" stroke="rgb(0,0,255)" stroke-width="1.874998" fill="none" d="M 0.000000 750.000000 L 435.483856 0.000000 " />
<path stroke-linejoin="round" stroke-linecap="round" stroke="rgb(255,0,0)" stroke-width="3.749996" fill="none" d="M 95.822052 584.973145 L 98.820312 593.967957 " />
<path stroke-linejoin="round" stroke-linecap="round" stroke="rgb(0,0,255)" stroke-width="1.874998" fill="none" d="M 0.000000 750.000000 L 409.090912 0.000000 " />
<path stroke-linejoin="round" stroke-linecap="round" stroke="rgb(255,0,0)" stroke-width="3.749996" fill="none" d="M 93.619240 578.364746 L 95.822029 584.973145 " />
<path stroke-linejoin="round" stroke-linecap="round" stroke="rgb(0,0,255)" stroke-width="1.874998" fill="none" d="M 0.000000 750.000000 L 375.000000 0.000000 " />
<path stroke-linejoin="round" stroke-linecap="round" stroke="rgb(255,0,0)" stroke-width="3.749996" fill="none" d="M 90.498604 569.002808 L 93.619240 578.364746 " />
<path stroke-linejoin="round" stroke-linecap="round" stroke="rgb(0,0,255)" stroke-width="1.874998" fill="none" d="M 0.000000 750.000000 L 354.166656 0.000000 " />
<path stroke-linejoin="round" stroke-linecap="round" stroke="rgb(255,0,0)" stroke-width="3.749996" fill="none" d="M 88.418167 562.761536 L 90.498604 569.002808 " />
<path stroke-linejoin="round" stroke-linecap="round" stroke="rgb(0,0,255)" stroke-width="1.874998" fill="none" d="M 0.000000 750.000000 L 335.526306 0.000000 " />
<path stroke-linejoin="round" stroke-linecap="round" stroke="rgb(255,0,0)" stroke-width="3.749996" fill="none" d="M 86.431236 556.800781 L 88.418167 562.761536 " />
<path stroke-linejoin="round" stroke-linecap="round" stroke="rgb(0,0,255)" stroke-width="1.874998" fill="none" d="M 0.000000 750.000000 L 250.000000 0.000000 " />
<path stroke-linejoin="round" stroke-linecap="round" stroke="rgb(255,0,0)" stroke-width="3.749996" fill="none" d="M 79.821777 510.534607 L 86.431236 556.800781 " />
<path stroke-linejoin="round" stroke-linecap="round" stroke="rgb(0,0,255)" stroke-width="1.874998" fill="none" d="M 0.000000 750.000000 L 193.965530 0.000000 " />
<path stroke-linejoin="round" stroke-linecap="round" stroke="rgb(255,0,0)" stroke-width="3.749996" fill="none" d="M 73.455627 465.971558 L 79.821777 510.534607 " />
<path stroke-linejoin="round" stroke-linecap="round" stroke="rgb(0,0,255)" stroke-width="1.874998" fill="none" d="M 0.000000 750.000000 L 187.500000 0.000000 " />
<path stroke-linejoin="round" stroke-linecap="round" stroke="rgb(255,0,0)" stroke-width="3.749996" fill="none" d="M 72.565262 459.738953 L 73.455627 465.971558 " />
<path stroke-linejoin="round" stroke-linecap="round" stroke="rgb(0,0,255)" stroke-width="1.874998" fill="none" d="M 0.000000 750.000000 L 175.000015 0.000000 " />
<path stroke-linejoin="round" stroke-linecap="round" stroke="rgb(255,0,0)" stroke-width="3.749996" fill="none" d="M 70.728172 446.879272 L 72.565262 459.738953 " />
<path stroke-linejoin="round" stroke-linecap="round" stroke="rgb(0,0,255)" stroke-width="1.874998" fill="none" d="M 0.000000 750.000000 L 156.716415 0.000000 " />
<path stroke-linejoin="round" stroke-linecap="round" stroke="rgb(255,0,0)" stroke-width="3.749996" fill="none" d="M 67.727585 425.875153 L 70.728172 446.879272 " />
<path stroke-linejoin="round" stroke-linecap="round" stroke="rgb(0,0,255)" stroke-width="1.874998" fill="none" d="M 0.000000 750.000000 L 152.173920 0.000000 " />
<path stroke-linejoin="round" stroke-linecap="round" stroke="rgb(255,0,0)" stroke-width="3.749996" fill="none" d="M 66.916466 420.197449 L 67.727585 425.875153 " />
<path stroke-linejoin="round" stroke-linecap="round" stroke="rgb(0,0,255)" stroke-width="1.874998" fill="none" d="M 0.000000 750.000000 L 149.999985 0.000000 " />
<path stroke-linejoin="round" stroke-linecap="round" stroke="rgb(255,0,0)" stroke-width="3.749996" fill="none" d="M 66.518158 417.409210 L 66.916466 420.197449 " />
<path stroke-linejoin="round" stroke-linecap="round" stroke="rgb(0,0,255)" stroke-width="1.874998" fill="none" d="M 0.000000 750.000000 L 147.887299 0.000000 " />
<path stroke-linejoin="round" stroke-linecap="round" stroke="rgb(255,0,0)" stroke-width="3.749996" fill="none" d="M 66.124565 414.654053 L 66.518158 417.409210 " />
<path stroke-linejoin="round" stroke-linecap="round" stroke="rgb(0,0,255)" stroke-width="1.874998" fill="none" d="M 0.000000 750.000000 L 126.623375 0.000000 " />
<path stroke-linejoin="round" stroke-linecap="round" stroke="rgb(255,0,0)" stroke-width="3.749996" fill="none" d="M 61.766869 384.150085 L 66.124565 414.654053 " />
<path stroke-linejoin="round" stroke-linecap="round" stroke="rgb(0,0,255)" stroke-width="1.874998" fill="none" d="M 0.000000 750.000000 L 115.384605 0.000000 " />
<path stroke-linejoin="round" stroke-linecap="round" stroke="rgb(255,0,0)" stroke-width="3.749996" fill="none" d="M 59.127243 365.672882 L 61.766869 384.150085 " />
<path stroke-linejoin="round" stroke-linecap="round" stroke="rgb(0,0,255)" stroke-width="1.874998" fill="none" d="M 0.000000 750.000000 L 105.769249 0.000000 " />
<path stroke-linejoin="round" stroke-linecap="round" stroke="rgb(255,0,0)" stroke-width="3.749996" fill="none" d="M 56.647717 348.316193 L 59.127243 365.672882 " />
<path stroke-linejoin="round" stroke-linecap="round" stroke="rgb(0,0,255)" stroke-width="1.874998" fill="none" d="M 0.000000 750.000000 L 85.227280 0.000000 " />
<path stroke-linejoin="round" stroke-linecap="round" stroke="rgb(255,0,0)" stroke-width="3.749996" fill="none" d="M 50.520123 305.423004 L 56.647717 348.316193 " />
<path stroke-linejoin="round" stroke-linecap="round" stroke="rgb(0,0,255)" stroke-width="1.874998" fill="none" d="M 0.000000 750.000000 L 83.333328 0.000000 " />
<path stroke-linejoin="round" stroke-linecap="round" stroke="rgb(255,0,0)" stroke-width="3.749996" fill="none" d="M 49.888618 301.002472 L 50.520123 305.423004 " />
<path stroke-linejoin="round" stroke-linecap="round" stroke="rgb(0,0,255)" stroke-width="1.874998" fill="none" d="M 0.000000 750.000000 L 82.500008 0.000000 " />
<path stroke-linejoin="round" stroke-linecap="round" stroke="rgb(255,0,0)" stroke-width="3.749996" fill="none" d="M 49.606762 299.029480 L 49.888618 301.002472 " />
<path stroke-linejoin="round" stroke-linecap="round" stroke="rgb(0,0,255)" stroke-width="1.874998" fill="none" d="M 0.000000 750.000000 L 81.521744 0.000000 " />
<path stroke-linejoin="round" stroke-linecap="round" stroke="rgb(255,0,0)" stroke-width="3.749996" fill="none" d="M 49.272694 296.691162 L 49.606762 299.029480 " />
<path stroke-linejoin="round" stroke-linecap="round" stroke="rgb(0,0,255)" stroke-width="1.874998" fill="none" d="M 0.000000 750.000000 L 80.882347 0.000000 " />
<path stroke-linejoin="round" stroke-linecap="round" stroke="rgb(255,0,0)" stroke-width="3.749996" fill="none" d="M 49.052483 295.149689 L 49.272694 296.691193 " />
<path stroke-linejoin="round" stroke-linecap="round" stroke="rgb(0,0,255)" stroke-width="1.874998" fill="none" d="M 0.000000 750.000000 L 71.808502 0.000000 " />
<path stroke-linejoin="round" stroke-linecap="round" stroke="rgb(255,0,0)" stroke-width="3.749996" fill="none" d="M 45.757702 272.086243 L 49.052483 295.149750 " />
<path stroke-linejoin="round" stroke-linecap="round" stroke="rgb(0,0,255)" stroke-width="1.874998" fill="none" d="M 0.000000 750.000000 L 57.692303 0.000000 " />
<path stroke-linejoin="round" stroke-linecap="round" stroke="rgb(255,0,0)" stroke-width="3.749996" fill="none" d="M 39.910889 231.158493 L 45.757702 272.086243 " />
<path stroke-linejoin="round" stroke-linecap="round" stroke="rgb(0,0,255)" stroke-width="1.874998" fill="none" d="M 0.000000 750.000000 L 46.052635 0.000000 " />
<path stroke-linejoin="round" stroke-linecap="round" stroke="rgb(255,0,0)" stroke-width="3.749996" fill="none" d="M 34.279278 191.737350 L 39.910889 231.158493 " />
<path stroke-linejoin="round" stroke-linecap="round" stroke="rgb(0,0,255)" stroke-width="1.874998" fill="none" d="M 0.000000 750.000000 L 36.290333 0.000000 " />
<path stroke-linejoin="round" stroke-linecap="round" stroke="rgb(255,0,0)" stroke-width="3.749996" fill="none" d="M 28.851248 153.741074 L 34.279278 191.737350 " />
<path stroke-linejoin="round" stroke-linecap="round" stroke="rgb(0,0,255)" stroke-width="1.874998" fill="none" d="M 0.000000 750.000000 L 34.615383 0.000000 " />
<path stroke-linejoin="round" stroke-linecap="round" stroke="rgb(255,0,0)" stroke-width="3.749996" fill="none" d="M 27.844793 146.696030 L 28.851248 153.741074 " />
<path stroke-linejoin="round" stroke-linecap="round" stroke="rgb(0,0,255)" stroke-width="1.874998" fill="none" d="M 0.000000 750.000000 L 27.173906 0.000000 " />
<path stroke-linejoin="round" stroke-linecap="round" stroke="rgb(255,0,0)" stroke-width="3.749996" fill="none" d="M 23.069881 113.271477 L 27.844793 146.696030 " />
<path stroke-linejoin="round" stroke-linecap="round" stroke="rgb(0,0,255)" stroke-width="1.874998" fill="none" d="M 0.000000 750.000000 L 20.270281 0.000000 " />
<path stroke-linejoin="round" stroke-linecap="round" stroke="rgb(255,0,0)" stroke-width="3.749996" fill="none" d="M 18.141300 78.771469 L 23.069881 113.271408 " />
<path stroke-linejoin="round" stroke-linecap="round" stroke="rgb(0,0,255)" stroke-width="1.874998" fill="none" d="M 0.000000 750.000000 L 20.000004 0.000000 " />
<path stroke-linejoin="round" stroke-linecap="round" stroke="rgb(255,0,0)" stroke-width="3.749996" fill="none" d="M 17.937473 77.344673 L 18.141300 78.771469 " />
<path stroke-linejoin="round" stroke-linecap="round" stroke="rgb(0,0,255)" stroke-width="1.874998" fill="none" d="M 0.000000 750.000000 L 19.736834 0.000000 " />
<path stroke-linejoin="round" stroke-linecap="round" stroke="rgb(255,0,0)" stroke-width="3.749996" fill="none" d="M 17.738163 75.949501 L 17.937473 77.344673 " />
<path stroke-linejoin="round" stroke-linecap="round" stroke="rgb(0,0,255)" stroke-width="1.874998" fill="none" d="M 0.000000 750.000000 L 19.480526 0.000000 " />
<path stroke-linejoin="round" stroke-linecap="round" stroke="rgb(255,0,0)" stroke-width="3.749996" fill="none" d="M 17.543257 74.585014 L 17.738163 75.949501 " />
<path stroke-linejoin="round" stroke-linecap="round" stroke="rgb(0,0,255)" stroke-width="1.874998" fill="none" d="M 0.000000 750.000000 L 13.888881 0.000000 " />
<path stroke-linejoin="round" stroke-linecap="round" stroke="rgb(255,0,0)" stroke-width="3.749996" fill="none" d="M 13.085537 43.381042 L 17.543257 74.585014 " />
<circle cx="149.584495" cy="746.260419" r="3.749996" style="fill:rgb(0,127,0);stroke-width:1" /><circle cx="148.296051" cy="742.395066" r="3.749996" style="fill:rgb(0,127,0);stroke-width:1" /><circle cx="147.152200" cy="738.963582" r="3.749996" style="fill:rgb(0,127,0);stroke-width:1" /><circle cx="145.844869" cy="735.041544" r="3.749996" style="fill:rgb(0,127,0);stroke-width:1" /><circle cx="144.493595" cy="730.987675" r="3.749996" style="fill:rgb(0,127,0);stroke-width:1" /><circle cx="143.473417" cy="727.927163" r="3.749996" style="fill:rgb(0,127,0);stroke-width:1" /><circle cx="143.096097" cy="726.795226" r="3.749996" style="fill:rgb(0,127,0);stroke-width:1" /><circle cx="141.650006" cy="722.456954" r="3.749996" style="fill:rgb(0,127,0);stroke-width:1" /><circle cx="140.152708" cy="717.965081" r="3.749996" style="fill:rgb(0,127,0);stroke-width:1" /><circle cx="138.601474" cy="713.311382" r="3.749996" style="fill:rgb(0,127,0);stroke-width:1" /><circle cx="136.993289" cy="708.486870" r="3.749996" style="fill:rgb(0,127,0);stroke-width:1" /><circle cx="135.325000" cy="703.482024" r="3.749996" style="fill:rgb(0,127,0);stroke-width:1" /><circle cx="134.524941" cy="701.081827" r="3.749996" style="fill:rgb(0,127,0);stroke-width:1" /><circle cx="133.593164" cy="698.286518" r="3.749996" style="fill:rgb(0,127,0);stroke-width:1" /><circle cx="131.794073" cy="692.889243" r="3.749996" style="fill:rgb(0,127,0);stroke-width:1" /><circle cx="131.096095" cy="690.795310" r="3.749996" style="fill:rgb(0,127,0);stroke-width:1" /><circle cx="129.923746" cy="687.278196" r="3.749996" style="fill:rgb(0,127,0);stroke-width:1" /><circle cx="127.977848" cy="681.440435" r="3.749996" style="fill:rgb(0,127,0);stroke-width:1" /><circle cx="127.400950" cy="679.709807" r="3.749996" style="fill:rgb(0,127,0);stroke-width:1" /><circle cx="125.951663" cy="675.361969" r="3.749996" style="fill:rgb(0,127,0);stroke-width:1" /><circle cx="123.840183" cy="669.027574" r="3.749996" style="fill:rgb(0,127,0);stroke-width:1" /><circle cx="123.407185" cy="667.728558" r="3.749996" style="fill:rgb(0,127,0);stroke-width:1" /><circle cx="121.286787" cy="661.367342" r="3.749996" style="fill:rgb(0,127,0);stroke-width:1" /><circle cx="120.963469" cy="660.397433" r="3.749996" style="fill:rgb(0,127,0);stroke-width:1" /><circle cx="119.077116" cy="654.738307" r="3.749996" style="fill:rgb(0,127,0);stroke-width:1" /><circle cx="116.772383" cy="647.824153" r="3.749996" style="fill:rgb(0,127,0);stroke-width:1" /><circle cx="116.621912" cy="647.372738" r="3.749996" style="fill:rgb(0,127,0);stroke-width:1" /><circle cx="114.366353" cy="640.606083" r="3.749996" style="fill:rgb(0,127,0);stroke-width:1" /><circle cx="111.852206" cy="633.063599" r="3.749996" style="fill:rgb(0,127,0);stroke-width:1" /><circle cx="109.393917" cy="625.688732" r="3.749996" style="fill:rgb(0,127,0);stroke-width:1" /><circle cx="106.768012" cy="617.811039" r="3.749996" style="fill:rgb(0,127,0);stroke-width:1" /><circle cx="104.421459" cy="610.771403" r="3.749996" style="fill:rgb(0,127,0);stroke-width:1" /><circle cx="102.175824" cy="604.034521" r="3.749996" style="fill:rgb(0,127,0);stroke-width:1" /><circle cx="101.683818" cy="602.558456" r="3.749996" style="fill:rgb(0,127,0);stroke-width:1" /><circle cx="98.820314" cy="593.967922" r="3.749996" style="fill:rgb(0,127,0);stroke-width:1" /><circle cx="95.822051" cy="584.973156" r="3.749996" style="fill:rgb(0,127,0);stroke-width:1" /><circle cx="93.619242" cy="578.364730" r="3.749996" style="fill:rgb(0,127,0);stroke-width:1" /><circle cx="90.498604" cy="569.002792" r="3.749996" style="fill:rgb(0,127,0);stroke-width:1" /><circle cx="88.418171" cy="562.761515" r="3.749996" style="fill:rgb(0,127,0);stroke-width:1" /><circle cx="86.431235" cy="556.800753" r="3.749996" style="fill:rgb(0,127,0);stroke-width:1" /><circle cx="79.821780" cy="510.534637" r="3.749996" style="fill:rgb(0,127,0);stroke-width:1" /><circle cx="73.455624" cy="465.971556" r="3.749996" style="fill:rgb(0,127,0);stroke-width:1" /><circle cx="72.565265" cy="459.738957" r="3.749996" style="fill:rgb(0,127,0);stroke-width:1" /><circle cx="70.728175" cy="446.879268" r="3.749996" style="fill:rgb(0,127,0);stroke-width:1" /><circle cx="67.727588" cy="425.875174" r="3.749996" style="fill:rgb(0,127,0);stroke-width:1" /><circle cx="66.916466" cy="420.197440" r="3.749996" style="fill:rgb(0,127,0);stroke-width:1" /><circle cx="66.518158" cy="417.409228" r="3.749996" style="fill:rgb(0,127,0);stroke-width:1" /><circle cx="66.124566" cy="414.654030" r="3.749996" style="fill:rgb(0,127,0);stroke-width:1" /><circle cx="61.766870" cy="384.150088" r="3.749996" style="fill:rgb(0,127,0);stroke-width:1" /><circle cx="59.127241" cy="365.672886" r="3.749996" style="fill:rgb(0,127,0);stroke-width:1" /><circle cx="56.647718" cy="348.316206" r="3.749996" style="fill:rgb(0,127,0);stroke-width:1" /><circle cx="50.520122" cy="305.422995" r="3.749996" style="fill:rgb(0,127,0);stroke-width:1" /><circle cx="49.888618" cy="301.002469" r="3.749996" style="fill:rgb(0,127,0);stroke-width:1" /><circle cx="49.606763" cy="299.029469" r="3.749996" style="fill:rgb(0,127,0);stroke-width:1" /><circle cx="49.272694" cy="296.691153" r="3.749996" style="fill:rgb(0,127,0);stroke-width:1" /><circle cx="49.052484" cy="295.149710" r="3.749996" style="fill:rgb(0,127,0);stroke-width:1" /><circle cx="45.757703" cy="272.086255" r="3.749996" style="fill:rgb(0,127,0);stroke-width:1" /><circle cx="39.910890" cy="231.158495" r="3.749996" style="fill:rgb(0,127,0);stroke-width:1" /><circle cx="34.279279" cy="191.737354" r="3.749996" style="fill:rgb(0,127,0);stroke-width:1" /><circle cx="28.851248" cy="153.741069" r="3.749996" style="fill:rgb(0,127,0);stroke-width:1" /><circle cx="27.844794" cy="146.696024" r="3.749996" style="fill:rgb(0,127,0);stroke-width:1" /><circle cx="23.069881" cy="113.271475" r="3.749996" style="fill:rgb(0,127,0);stroke-width:1" /><circle cx="18.141299" cy="78.771472" r="3.749996" style="fill:rgb(0,127,0);stroke-width:1" /><circle cx="17.937474" cy="77.344671" r="3.749996" style="fill:rgb(0,127,0);stroke-width:1" /><circle cx="17.738163" cy="75.949498" r="3.749996" style="fill:rgb(0,127,0);stroke-width:1" /><circle cx="17.543256" cy="74.585013" r="3.749996" style="fill:rgb(0,127,0);stroke-width:1" /><circle cx="13.085537" cy="43.381043" r="3.749996" style="fill:rgb(0,127,0);stroke-width:1" /><path stroke-linejoin="round" stroke-linecap="round" stroke="rgb(255,255,255)" stroke-width="3.749996" fill="none" d="M 0.000000 750.000000 L 750.000000 750.000000 M 0.000000 750.000000 L 0.000000 0.000000 " />

</svg>