<svg xmlns="http://www.w3.org/2000/svg" version="1.1" width = "750" height = "750" viewBox = "0 0 750 750"  shape-rendering="crispEdges">
<path stroke-linejoin="round" stroke-linecap="round" stroke="rgb(255,255,0)" stroke-width="3.749996" fill="none" d="M 149.999985 750.000000 L 0.000000 0.000000 " />
<path stroke-linejoin="round" stroke-linecap="round" stroke="rgb(63,63,63)" stroke-width="3.749996" fill="none" d="M 0.000000 0.000000 L 750.000000 750.000000 M 149.999985 750.000000 L 66.666664 0.000000 " />
<path stroke-linejoin="round" stroke-linecap="round" stroke="rgb(191,191,191)" stroke-width="3.749996" fill="none" d="M 0.000000 600.000000 L 149.999985 750.000000 M 0.000000 0.000000 L 83.333328 750.000000 " />
<path stroke-linejoin="round" stroke-linecap="round" stroke="rgb(0,0,255)" stroke-width="1.874998" fill="none" d="M 0.000000 750.000000 L 750.000000 562.500000 " />
<path stroke-linejoin="round" stroke-linecap="round" stroke="rgb(255,0,0)" stroke-width="3.749996" fill="none" d="M 145.945938 713.513489 L 149.999985 750.000000 " />
<path stroke-linejoin="round" stroke-linecap="round" stroke="rgb(0,0,255)" stroke-width="1.874998" fill="none" d="M 0.000000 750.000000 L 750.000000 384.146332 " />
<path stroke-linejoin="round" stroke-linecap="round" stroke="rgb(255,0,0)" stroke-width="3.749996" fill="none" d="M 142.287918 680.591248 L 145.945938 713.513489 " />
<path stroke-linejoin="round" stroke-linecap="round" stroke="rgb(0,0,255)" stroke-width="1.874998" fill="none" d="M 0.000000 750.000000 L 750.000000 365.384583 " />
<path stroke-linejoin="round" stroke-linecap="round" stroke="rgb(255,0,0)" stroke-width="3.749996" fill="none" d="M 141.913757 677.223694 L 142.287918 680.591248 " />
<path stroke-linejoin="round" stroke-linecap="round" stroke="rgb(0,0,255)" stroke-width="1.874998" fill="none" d="M 0.000000 750.000000 L 750.000000 187.500000 " />
<path stroke-linejoin="round" stroke-linecap="round" stroke="rgb(255,0,0)" stroke-width="3.749996" fill="none" d="M 138.461548 646.153870 L 141.913757 677.223694 " />
<path stroke-linejoin="round" stroke-linecap="round" stroke="rgb(0,0,255)" stroke-width="1.874998" fill="none" d="M 0.000000 750.000000 L 731.250000 0.000000 " />
<path stroke-linejoin="round" stroke-linecap="round" stroke="rgb(255,0,0)" stroke-width="3.749996" fill="none" d="M 134.654739 611.892578 L 138.461548 646.153870 " />
<path stroke-linejoin="round" stroke-linecap="round" stroke="rgb(0,0,255)" stroke-width="1.874998" fill="none" d="M 0.000000 750.000000 L 570.000000 0.000000 " />
<path stroke-linejoin="round" stroke-linecap="round" stroke="rgb(255,0,0)" stroke-width="3.749996" fill="none" d="M 130.867371 577.806091 L 134.654739 611.892578 " />
<path stroke-linejoin="round" stroke-linecap="round" stroke="rgb(0,0,255)" stroke-width="1.874998" fill="none" d="M 0.000000 750.000000 L 487.499969 0.000000 " />
<path stroke-linejoin="round" stroke-linecap="round" stroke="rgb(255,0,0)" stroke-width="3.749996" fill="none" d="M 128.102219 552.919678 L 130.867371 577.806091 " />
<path stroke-linejoin="round" stroke-linecap="round" stroke="rgb(0,0,255)" stroke-width="1.874998" fill="none" d="M 0.000000 750.000000 L 462.500000 0.000000 " />
<path stroke-linejoin="round" stroke-linecap="round" stroke="rgb(255,0,0)" stroke-width="3.749996" fill="none" d="M 127.099266 543.893066 L 128.102219 552.919678 " />
<path stroke-linejoin="round" stroke-linecap="round" stroke="rgb(0,0,255)" stroke-width="1.874998" fill="none" d="M 0.000000 750.000000 L 385.714294 0.000000 " />
<path stroke-linejoin="round" stroke-linecap="round" stroke="rgb(255,0,0)" stroke-width="3.749996" fill="none" d="M 123.350281 510.152252 L 127.099266 543.893066 " />
<path stroke-linejoin="round" stroke-linecap="round" stroke="rgb(0,0,255)" stroke-width="1.874998" fill="none" d="M 0.000000 750.000000 L 328.124969 0.000000 " />
<path stroke-linejoin="round" stroke-linecap="round" stroke="rgb(255,0,0)" stroke-width="3.749996" fill="none" d="M 119.620262 476.582214 L 123.350281 510.152252 " />
<path stroke-linejoin="round" stroke-linecap="round" stroke="rgb(0,0,255)" stroke-width="1.874998" fill="none" d="M 0.000000 750.000000 L 283.333344 0.000000 " />
<path stroke-linejoin="round" stroke-linecap="round" stroke="rgb(255,0,0)" stroke-width="3.749996" fill="none" d="M 115.909111 443.181793 L 119.620262 476.582214 " />
<path stroke-linejoin="round" stroke-linecap="round" stroke="rgb(0,0,255)" stroke-width="1.874998" fill="none" d="M 0.000000 750.000000 L 247.500015 0.000000 " />
<path stroke-linejoin="round" stroke-linecap="round" stroke="rgb(255,0,0)" stroke-width="3.749996" fill="none" d="M 112.216629 409.949615 L 115.909111 443.181793 " />
<path stroke-linejoin="round" stroke-linecap="round" stroke="rgb(0,0,255)" stroke-width="1.874998" fill="none" d="M 0.000000 750.000000 L 218.181808 0.000000 " />
<path stroke-linejoin="round" stroke-linecap="round" stroke="rgb(255,0,0)" stroke-width="3.749996" fill="none" d="M 108.542717 376.884399 L 112.216629 409.949615 " />
<path stroke-linejoin="round" stroke-linecap="round" stroke="rgb(0,0,255)" stroke-width="1.874998" fill="none" d="M 0.000000 750.000000 L 193.750015 0.000000 " />
<path stroke-linejoin="round" stroke-linecap="round" stroke="rgb(255,0,0)" stroke-width="3.749996" fill="none" d="M 104.887222 343.984955 L 108.542717 376.884399 " />
<path stroke-linejoin="round" stroke-linecap="round" stroke="rgb(0,0,255)" stroke-width="1.874998" fill="none" d="M 0.000000 750.000000 L 184.615372 0.000000 " />
<path stroke-linejoin="round" stroke-linecap="round" stroke="rgb(255,0,0)" stroke-width="3.749996" fill="none" d="M 103.349289 330.143494 L 104.887222 343.984955 " />
<path stroke-linejoin="round" stroke-linecap="round" stroke="rgb(0,0,255)" stroke-width="1.874998" fill="none" d="M 0.000000 750.000000 L 173.076920 0.000000 " />
<path stroke-linejoin="round" stroke-linecap="round" stroke="rgb(255,0,0)" stroke-width="3.749996" fill="none" d="M 101.250015 311.249939 L 103.349289 330.143494 " />
<path stroke-linejoin="round" stroke-linecap="round" stroke="rgb(0,0,255)" stroke-width="1.874998" fill="none" d="M 0.000000 750.000000 L 166.071426 0.000000 " />
<path stroke-linejoin="round" stroke-linecap="round" stroke="rgb(255,0,0)" stroke-width="3.749996" fill="none" d="M 99.880684 298.925934 L 101.250015 311.249939 " />
<path stroke-linejoin="round" stroke-linecap="round" stroke="rgb(0,0,255)" stroke-width="1.874998" fill="none" d="M 0.000000 750.000000 L 155.357147 0.000000 " />
<path stroke-linejoin="round" stroke-linecap="round" stroke="rgb(255,0,0)" stroke-width="3.749996" fill="none" d="M 97.630936 278.678223 L 99.880699 298.925873 " />
<path stroke-linejoin="round" stroke-linecap="round" stroke="rgb(0,0,255)" stroke-width="1.874998" fill="none" d="M 0.000000 750.000000 L 140.000000 0.000000 " />
<path stroke-linejoin="round" stroke-linecap="round" stroke="rgb(255,0,0)" stroke-width="3.749996" fill="none" d="M 94.029869 246.268585 L 97.630936 278.678223 " />
<path stroke-linejoin="round" stroke-linecap="round" stroke="rgb(0,0,255)" stroke-width="1.874998" fill="none" d="M 0.000000 750.000000 L 126.562492 0.000000 " />
<path stroke-linejoin="round" stroke-linecap="round" stroke="rgb(255,0,0)" stroke-width="3.749996" fill="none" d="M 90.446655 214.019775 L 94.029869 246.268585 " />
<path stroke-linejoin="round" stroke-linecap="round" stroke="rgb(0,0,255)" stroke-width="1.874998" fill="none" d="M 0.000000 750.000000 L 123.529404 0.000000 " />
<path stroke-linejoin="round" stroke-linecap="round" stroke="rgb(255,0,0)" stroke-width="3.749996" fill="none" d="M 89.573463 206.161072 L 90.446655 214.019775 " />
<path stroke-linejoin="round" stroke-linecap="round" stroke="rgb(0,0,255)" stroke-width="1.874998" fill="none" d="M 0.000000 750.000000 L 114.705879 0.000000 " />
<path stroke-linejoin="round" stroke-linecap="round" stroke="rgb(255,0,0)" stroke-width="3.749996" fill="none" d="M 86.881195 181.930588 L 89.573463 206.161072 " />
<path stroke-linejoin="round" stroke-linecap="round" stroke="rgb(0,0,255)" stroke-width="1.874998" fill="none" d="M 0.000000 750.000000 L 104.166672 0.000000 " />
<path stroke-linejoin="round" stroke-linecap="round" stroke="rgb(255,0,0)" stroke-width="3.749996" fill="none" d="M 83.333351 149.999924 L 86.881195 181.930588 " />
<path stroke-linejoin="round" stroke-linecap="round" stroke="rgb(0,0,255)" stroke-width="1.874998" fill="none" d="M 0.000000 750.000000 L 102.631577 0.000000 " />
<path stroke-linejoin="round" stroke-linecap="round" stroke="rgb(255,0,0)" stroke-width="3.749996" fill="none" d="M 82.783028 145.047134 L 83.333328 149.999985 " />
<path stroke-linejoin="round" stroke-linecap="round" stroke="rgb(0,0,255)" stroke-width="1.874998" fill="none" d="M 0.000000 750.000000 L 93.750000 0.000000 " />
<path stroke-linejoin="round" stroke-linecap="round" stroke="rgb(255,0,0)" stroke-width="3.749996" fill="none" d="M 79.411758 114.705917 L 82.783005 145.047195 " />
<path stroke-linejoin="round" stroke-linecap="round" stroke="rgb(0,0,255)" stroke-width="1.874998" fill="none" d="M 0.000000 750.000000 L 92.857140 0.000000 " />
<path stroke-linejoin="round" stroke-linecap="round" stroke="rgb(255,0,0)" stroke-width="3.749996" fill="none" d="M 79.054039 111.486488 L 79.411758 114.705917 " />
<path stroke-linejoin="round" stroke-linecap="round" stroke="rgb(0,0,255)" stroke-width="1.874998" fill="none" d="M 0.000000 750.000000 L 85.714279 0.000000 " />
<path stroke-linejoin="round" stroke-linecap="round" stroke="rgb(255,0,0)" stroke-width="3.749996" fill="none" d="M 76.056335 84.507111 L 79.054039 111.486488 " />
<path stroke-linejoin="round" stroke-linecap="round" stroke="rgb(0,0,255)" stroke-width="1.874998" fill="none" d="M 0.000000 750.000000 L 85.396034 0.000000 " />
<path stroke-linejoin="round" stroke-linecap="round" stroke="rgb(255,0,0)" stroke-width="3.749996" fill="none" d="M 75.802803 84.253548 L 76.056335 84.507111 " />
<path stroke-linejoin="round" stroke-linecap="round" stroke="rgb(0,0,255)" stroke-width="1.874998" fill="none" d="M 0.000000 750.000000 L 81.280792 0.000000 " />
<path stroke-linejoin="round" stroke-linecap="round" stroke="rgb(255,0,0)" stroke-width="3.749996" fill="none" d="M 72.507042 80.957787 L 75.802803 84.253548 " />
<path stroke-linejoin="round" stroke-linecap="round" stroke="rgb(0,0,255)" stroke-width="1.874998" fill="none" d="M 0.000000 750.000000 L 77.205887 0.000000 " />
<path stroke-linejoin="round" stroke-linecap="round" stroke="rgb(255,0,0)" stroke-width="3.749996" fill="none" d="M 69.211250 77.662041 L 72.507042 80.957787 " />
<path stroke-linejoin="round" stroke-linecap="round" stroke="rgb(0,0,255)" stroke-width="1.874998" fill="none" d="M 0.000000 750.000000 L 73.170731 0.000000 " />
<path stroke-linejoin="round" stroke-linecap="round" stroke="rgb(255,0,0)" stroke-width="3.749996" fill="none" d="M 65.915489 74.366280 L 69.211250 77.662041 " />
<path stroke-linejoin="round" stroke-linecap="round" stroke="rgb(0,0,255)" stroke-width="1.874998" fill="none" d="M 0.000000 750.000000 L 72.463768 0.000000 " />
<path stroke-linejoin="round" stroke-linecap="round" stroke="rgb(255,0,0)" stroke-width="3.749996" fill="none" d="M 65.334724 73.785561 L 65.915489 74.366348 " />
<path stroke-linejoin="round" stroke-linecap="round" stroke="rgb(0,0,255)" stroke-width="1.874998" fill="none" d="M 0.000000 750.000000 L 68.509605 0.000000 " />
<path stroke-linejoin="round" stroke-linecap="round" stroke="rgb(255,0,0)" stroke-width="3.749996" fill="none" d="M 62.067993 70.518852 L 65.334724 73.785561 " />
<path stroke-linejoin="round" stroke-linecap="round" stroke="rgb(0,0,255)" stroke-width="1.874998" fill="none" d="M 0.000000 750.000000 L 64.593315 0.000000 " />
<path stroke-linejoin="round" stroke-linecap="round" stroke="rgb(255,0,0)" stroke-width="3.749996" fill="none" d="M 58.801262 67.252144 L 62.067993 70.518921 " />
<path stroke-linejoin="round" stroke-linecap="round" stroke="rgb(0,0,255)" stroke-width="1.874998" fill="none" d="M 0.000000 750.000000 L 60.714283 0.000000 " />
<path stroke-linejoin="round" stroke-linecap="round" stroke="rgb(255,0,0)" stroke-width="3.749996" fill="none" d="M 55.534512 63.985416 L 58.801262 67.252144 " />
<path stroke-linejoin="round" stroke-linecap="round" stroke="rgb(0,0,255)" stroke-width="1.874998" fill="none" d="M 0.000000 750.000000 L 56.872040 0.000000 " />
<path stroke-linejoin="round" stroke-linecap="round" stroke="rgb(255,0,0)" stroke-width="3.749996" fill="none" d="M 52.267784 60.718708 L 55.534512 63.985416 " />
<path stroke-linejoin="round" stroke-linecap="round" stroke="rgb(0,0,255)" stroke-width="1.874998" fill="none" d="M 0.000000 750.000000 L 56.338036 0.000000 " />
<path stroke-linejoin="round" stroke-linecap="round" stroke="rgb(255,0,0)" stroke-width="3.749996" fill="none" d="M 51.811295 60.262150 L 52.267784 60.718708 " />
<path stroke-linejoin="round" stroke-linecap="round" stroke="rgb(0,0,255)" stroke-width="1.874998" fill="none" d="M 0.000000 750.000000 L 52.570091 0.000000 " />
<path stroke-linejoin="round" stroke-linecap="round" stroke="rgb(255,0,0)" stroke-width="3.749996" fill="none" d="M 48.573086 57.023987 L 51.811295 60.262150 " />
<path stroke-linejoin="round" stroke-linecap="round" stroke="rgb(0,0,255)" stroke-width="1.874998" fill="none" d="M 0.000000 750.000000 L 48.837215 0.000000 " />
<path stroke-linejoin="round" stroke-linecap="round" stroke="rgb(255,0,0)" stroke-width="3.749996" fill="none" d="M 45.334877 53.785870 L 48.573086 57.023987 " />
<path stroke-linejoin="round" stroke-linecap="round" stroke="rgb(0,0,255)" stroke-width="1.874998" fill="none" d="M 0.000000 750.000000 L 45.138897 0.000000 " />
<path stroke-linejoin="round" stroke-linecap="round" stroke="rgb(255,0,0)" stroke-width="3.749996" fill="none" d="M 42.096668 50.547703 L 45.334877 53.785934 " />
<path stroke-linejoin="round" stroke-linecap="round" stroke="rgb(0,0,255)" stroke-width="1.874998" fill="none" d="M 0.000000 750.000000 L 41.474640 0.000000 " />
<path stroke-linejoin="round" stroke-linecap="round" stroke="rgb(255,0,0)" stroke-width="3.749996" fill="none" d="M 38.858459 47.309517 L 42.096668 50.547703 " />
<path stroke-linejoin="round" stroke-linecap="round" stroke="rgb(0,0,255)" stroke-width="1.874998" fill="none" d="M 0.000000 750.000000 L 41.095890 0.000000 " />
<path stroke-linejoin="round" stroke-linecap="round" stroke="rgb(255,0,0)" stroke-width="3.749996" fill="none" d="M 38.522018 46.973057 L 38.858459 47.309517 " />
<path stroke-linejoin="round" stroke-linecap="round" stroke="rgb(0,0,255)" stroke-width="1.874998" fill="none" d="M 0.000000 750.000000 L 37.500008 0.000000 " />
<path stroke-linejoin="round" stroke-linecap="round" stroke="rgb(255,0,0)" stroke-width="3.749996" fill="none" d="M 35.311863 43.762924 L 38.522018 46.973057 " />
<path stroke-linejoin="round" stroke-linecap="round" stroke="rgb(0,0,255)" stroke-width="1.874998" fill="none" d="M 0.000000 750.000000 L 33.936649 0.000000 " />
<path stroke-linejoin="round" stroke-linecap="round" stroke="rgb(255,0,0)" stroke-width="3.749996" fill="none" d="M 32.101685 40.552719 L 35.311863 43.762924 " />
<path stroke-linejoin="round" stroke-linecap="round" stroke="rgb(0,0,255)" stroke-width="1.874998" fill="none" d="M 0.000000 750.000000 L 30.405409 0.000000 " />
<path stroke-linejoin="round" stroke-linecap="round" stroke="rgb(255,0,0)" stroke-width="3.749996" fill="none" d="M 28.891525 37.342564 L 32.101685 40.552719 " />
<path stroke-linejoin="round" stroke-linecap="round" stroke="rgb(0,0,255)" stroke-width="1.874998" fill="none" d="M 0.000000 750.000000 L 30.133924 0.000000 " />
<path stroke-linejoin="round" stroke-linecap="round" stroke="rgb(255,0,0)" stroke-width="3.749996" fill="none" d="M 28.643534 37.094460 L 28.891525 37.342564 " />
<path stroke-linejoin="round" stroke-linecap="round" stroke="rgb(0,0,255)" stroke-width="1.874998" fill="none" d="M 0.000000 750.000000 L 26.666656 0.000000 " />
<path stroke-linejoin="round" stroke-linecap="round" stroke="rgb(255,0,0)" stroke-width="3.749996" fill="none" d="M 25.460915 33.911774 L 28.643534 37.094460 " />
<path stroke-linejoin="round" stroke-linecap="round" stroke="rgb(0,0,255)" stroke-width="1.874998" fill="none" d="M 0.000000 750.000000 L 23.230099 0.000000 " />
<path stroke-linejoin="round" stroke-linecap="round" stroke="rgb(255,0,0)" stroke-width="3.749996" fill="none" d="M 22.278294 30.729176 L 25.460915 33.911774 " />
<path stroke-linejoin="round" stroke-linecap="round" stroke="rgb(0,0,255)" stroke-width="1.874998" fill="none" d="M 0.000000 750.000000 L 19.823782 0.000000 " />
<path stroke-linejoin="round" stroke-linecap="round" stroke="rgb(255,0,0)" stroke-width="3.749996" fill="none" d="M 19.095675 27.546577 L 22.278294 30.729176 " />
<path stroke-linejoin="round" stroke-linecap="round" stroke="rgb(0,0,255)" stroke-width="1.874998" fill="none" d="M 0.000000 750.000000 L 16.447372 0.000000 " />
<path stroke-linejoin="round" stroke-linecap="round" stroke="rgb(255,0,0)" stroke-width="3.749996" fill="none" d="M 15.913076 24.363979 L 19.095675 27.546577 " />
<path stroke-linejoin="round" stroke-linecap="round" stroke="rgb(0,0,255)" stroke-width="1.874998" fill="none" d="M 0.000000 750.000000 L 13.100445 0.000000 " />
<path stroke-linejoin="round" stroke-linecap="round" stroke="rgb(255,0,0)" stroke-width="3.749996" fill="none" d="M 12.730457 21.181360 L 15.913076 24.363979 " />
<path stroke-linejoin="round" stroke-linecap="round" stroke="rgb(0,0,255)" stroke-width="1.874998" fill="none" d="M 0.000000 750.000000 L 12.987010 0.000000 " />
<path stroke-linejoin="round" stroke-linecap="round" stroke="rgb(255,0,0)" stroke-width="3.749996" fill="none" d="M 12.622118 21.072998 L 12.730457 21.181360 " />
<path stroke-linejoin="round" stroke-linecap="round" stroke="rgb(0,0,255)" stroke-width="1.874998" fill="none" d="M 0.000000 750.000000 L 9.698287 0.000000 " />
<path stroke-linejoin="round" stroke-linecap="round" stroke="rgb(255,0,0)" stroke-width="3.749996" fill="none" d="M 9.466589 17.917446 L 12.622118 21.072998 " />
<path stroke-linejoin="round" stroke-linecap="round" stroke="rgb(0,0,255)" stroke-width="1.874998" fill="none" d="M 0.000000 750.000000 L 6.437771 0.000000 " />
<path stroke-linejoin="round" stroke-linecap="round" stroke="rgb(255,0,0)" stroke-width="3.749996" fill="none" d="M 6.311059 14.761940 L 9.466589 17.917446 " />
<path stroke-linejoin="round" stroke-linecap="round" stroke="rgb(0,0,255)" stroke-width="1.874998" fill="none" d="M 0.000000 750.000000 L 3.205128 0.000000 " />
<path stroke-linejoin="round" stroke-linecap="round" stroke="rgb(255,0,0)" stroke-width="3.749996" fill="none" d="M 3.155529 11.606455 L 6.311059 14.761940 " />
<path stroke-linejoin="round" stroke-linecap="round" stroke="rgb(0,0,255)" stroke-width="1.874998" fill="none" d="M 0.000000 750.000000 L 0.000000 0.000000 " />
<path stroke-linejoin="round" stroke-linecap="round" stroke="rgb(255,0,0)" stroke-width="3.749996" fill="none" d="M 0.000000 0.000000 L 3.155529 11.606455 " />
<circle cx="145.945944" cy="713.513508" r="3.749996" style="fill:rgb(0,127,0);stroke-width:1" /><circle cx="142.287925" cy="680.591248" r="3.749996" style="fill:rgb(0,127,0);stroke-width:1" /><circle cx="141.913757" cy="677.223712" r="3.749996" style="fill:rgb(0,127,0);stroke-width:1" /><circle cx="138.461553" cy="646.153852" r="3.749996" style="fill:rgb(0,127,0);stroke-width:1" /><circle cx="134.654738" cy="611.892566" r="3.749996" style="fill:rgb(0,127,0);stroke-width:1" /><circle cx="130.867369" cy="577.806093" r="3.749996" style="fill:rgb(0,127,0);stroke-width:1" /><circle cx="128.102213" cy="552.919663" r="3.749996" style="fill:rgb(0,127,0);stroke-width:1" /><circle cx="127.099268" cy="543.893091" r="3.749996" style="fill:rgb(0,127,0);stroke-width:1" /><circle cx="123.350278" cy="510.152254" r="3.749996" style="fill:rgb(0,127,0);stroke-width:1" /><circle cx="119.620264" cy="476.582251" r="3.749996" style="fill:rgb(0,127,0);stroke-width:1" /><circle cx="115.909114" cy="443.181787" r="3.749996" style="fill:rgb(0,127,0);stroke-width:1" /><circle cx="112.216629" cy="409.949614" r="3.749996" style="fill:rgb(0,127,0);stroke-width:1" /><circle cx="108.542718" cy="376.884377" r="3.749996" style="fill:rgb(0,127,0);stroke-width:1" /><circle cx="104.887225" cy="343.984938" r="3.749996" style="fill:rgb(0,127,0);stroke-width:1" /><circle cx="103.349291" cy="330.143488" r="3.749996" style="fill:rgb(0,127,0);stroke-width:1" /><circle cx="101.250015" cy="311.249938" r="3.749996" style="fill:rgb(0,127,0);stroke-width:1" /><circle cx="99.880680" cy="298.925936" r="3.749996" style="fill:rgb(0,127,0);stroke-width:1" /><circle cx="97.630933" cy="278.678231" r="3.749996" style="fill:rgb(0,127,0);stroke-width:1" /><circle cx="94.029866" cy="246.268597" r="3.749996" style="fill:rgb(0,127,0);stroke-width:1" /><circle cx="90.446658" cy="214.019783" r="3.749996" style="fill:rgb(0,127,0);stroke-width:1" /><circle cx="89.573465" cy="206.161056" r="3.749996" style="fill:rgb(0,127,0);stroke-width:1" /><circle cx="86.881198" cy="181.930594" r="3.749996" style="fill:rgb(0,127,0);stroke-width:1" /><circle cx="83.333351" cy="149.999924" r="3.749996" style="fill:rgb(0,127,0);stroke-width:1" /><circle cx="82.783028" cy="145.047136" r="3.749996" style="fill:rgb(0,127,0);stroke-width:1" /><circle cx="79.411760" cy="114.705920" r="3.749996" style="fill:rgb(0,127,0);stroke-width:1" /><circle cx="79.054043" cy="111.486487" r="3.749996" style="fill:rgb(0,127,0);stroke-width:1" /><circle cx="76.056339" cy="84.507108" r="3.749996" style="fill:rgb(0,127,0);stroke-width:1" /><circle cx="75.802803" cy="84.253550" r="3.749996" style="fill:rgb(0,127,0);stroke-width:1" /><circle cx="72.507039" cy="80.957785" r="3.749996" style="fill:rgb(0,127,0);stroke-width:1" /><circle cx="69.211252" cy="77.662043" r="3.749996" style="fill:rgb(0,127,0);stroke-width:1" /><circle cx="65.915488" cy="74.366279" r="3.749996" style="fill:rgb(0,127,0);stroke-width:1" /><circle cx="65.334722" cy="73.785558" r="3.749996" style="fill:rgb(0,127,0);stroke-width:1" /><circle cx="62.067993" cy="70.518851" r="3.749996" style="fill:rgb(0,127,0);stroke-width:1" /><circle cx="58.801264" cy="67.252144" r="3.749996" style="fill:rgb(0,127,0);stroke-width:1" /><circle cx="55.534512" cy="63.985415" r="3.749996" style="fill:rgb(0,127,0);stroke-width:1" /><circle cx="52.267782" cy="60.718708" r="3.749996" style="fill:rgb(0,127,0);stroke-width:1" /><circle cx="51.811293" cy="60.262151" r="3.749996" style="fill:rgb(0,127,0);stroke-width:1" /><circle cx="48.573084" cy="57.023987" r="3.749996" style="fill:rgb(0,127,0);stroke-width:1" /><circle cx="45.334876" cy="53.785868" r="3.749996" style="fill:rgb(0,127,0);stroke-width:1" /><circle cx="42.096667" cy="50.547704" r="3.749996" style="fill:rgb(0,127,0);stroke-width:1" /><circle cx="38.858458" cy="47.309518" r="3.749996" style="fill:rgb(0,127,0);stroke-width:1" /><circle cx="38.522020" cy="46.973057" r="3.749996" style="fill:rgb(0,127,0);stroke-width:1" /><circle cx="35.311863" cy="43.762922" r="3.749996" style="fill:rgb(0,127,0);stroke-width:1" /><circle cx="32.101683" cy="40.552720" r="3.749996" style="fill:rgb(0,127,0);stroke-width:1" /><circle cx="28.891526" cy="37.342563" r="3.749996" style="fill:rgb(0,127,0);stroke-width:1" /><circle cx="28.643534" cy="37.094459" r="3.749996" style="fill:rgb(0,127,0);stroke-width:1" /><circle cx="25.460914" cy="33.911772" r="3.749996" style="fill:rgb(0,127,0);stroke-width:1" /><circle cx="22.278294" cy="30.729175" r="3.749996" style="fill:rgb(0,127,0);stroke-width:1" /><circle cx="19.095674" cy="27.546577" r="3.749996" style="fill:rgb(0,127,0);stroke-width:1" /><circle cx="15.913077" cy="24.363980" r="3.749996" style="fill:rgb(0,127,0);stroke-width:1" /><circle cx="12.730457" cy="21.181360" r="3.749996" style="fill:rgb(0,127,0);stroke-width:1" /><circle cx="12.622118" cy="21.072999" r="3.749996" style="fill:rgb(0,127,0);stroke-width:1" /><circle cx="9.466588" cy="17.917447" r="3.749996" style="fill:rgb(0,127,0);stroke-width:1" /><circle cx="6.311059" cy="14.761940" r="3.749996" style="fill:rgb(0,127,0);stroke-width:1" /><circle cx="3.155529" cy="11.606455" r="3.749996" style="fill:rgb(0,127,0);stroke-width:1" /><circle cx="750.000000" cy="750.000000" r="3.749996" style="fill:rgb(0,127,0);stroke-width:1" /><path stroke-linejoin="round" stroke-linecap="round" stroke="rgb(255,255,255)" stroke-width="3.749996" fill="none" d="M 0.000000 750.000000 L 750.000000 750.000000 M 0.000000 750.000000 L 0.000000 0.000000 " />

</svg>