<svg xmlns="http://www.w3.org/2000/svg" version="1.1" width = "750" height = "750" viewBox = "0 0 750 750"  shape-rendering="crispEdges">
<path stroke-linejoin="round" stroke-linecap="round" stroke="rgb(255,255,0)" stroke-width="3.749996" fill="none" d="M 124.999992 750.000000 L 0.000000 0.000000 " />
<path stroke-linejoin="round" stroke-linecap="round" stroke="rgb(63,63,63)" stroke-width="3.749996" fill="none" d="M 0.000000 0.000000 L 750.000000 750.000000 M 124.999992 750.000000 L 56.818172 0.000000 " />
<path stroke-linejoin="round" stroke-linecap="round" stroke="rgb(191,191,191)" stroke-width="3.749996" fill="none" d="M 0.000000 625.000000 L 124.999992 750.000000 M 0.000000 0.000000 L 68.181824 750.000000 " />
<path stroke-linejoin="round" stroke-linecap="round" stroke="rgb(0,0,255)" stroke-width="1.874998" fill="none" d="M 0.000000 750.000000 L 750.000000 729.166687 " />
<path stroke-linejoin="round" stroke-linecap="round" stroke="rgb(255,0,0)" stroke-width="3.749996" fill="none" d="M 124.685127 746.536560 L 124.999992 750.000000 " />
<path stroke-linejoin="round" stroke-linecap="round" stroke="rgb(0,0,255)" stroke-width="1.874998" fill="none" d="M 0.000000 750.000000 L 750.000000 707.142883 " />
<path stroke-linejoin="round" stroke-linecap="round" stroke="rgb(255,0,0)" stroke-width="3.749996" fill="none" d="M 123.655823 742.933960 L 124.685127 746.536560 " />
<path stroke-linejoin="round" stroke-linecap="round" stroke="rgb(0,0,255)" stroke-width="1.874998" fill="none" d="M 0.000000 750.000000 L 750.000000 683.823547 " />
<path stroke-linejoin="round" stroke-linecap="round" stroke="rgb(255,0,0)" stroke-width="3.749996" fill="none" d="M 122.584328 739.183716 L 123.655823 742.933960 " />
<path stroke-linejoin="round" stroke-linecap="round" stroke="rgb(0,0,255)" stroke-width="1.874998" fill="none" d="M 0.000000 750.000000 L 750.000000 664.285706 " />
<path stroke-linejoin="round" stroke-linecap="round" stroke="rgb(255,0,0)" stroke-width="3.749996" fill="none" d="M 121.700783 736.091309 L 122.584328 739.183716 " />
<path stroke-linejoin="round" stroke-linecap="round" stroke="rgb(0,0,255)" stroke-width="1.874998" fill="none" d="M 0.000000 750.000000 L 750.000000 639.705872 " />
<path stroke-linejoin="round" stroke-linecap="round" stroke="rgb(255,0,0)" stroke-width="3.749996" fill="none" d="M 120.607185 732.263611 L 121.700783 736.091309 " />
<path stroke-linejoin="round" stroke-linecap="round" stroke="rgb(0,0,255)" stroke-width="1.874998" fill="none" d="M 0.000000 750.000000 L 750.000000 613.636353 " />
<path stroke-linejoin="round" stroke-linecap="round" stroke="rgb(255,0,0)" stroke-width="3.749996" fill="none" d="M 119.468536 728.278442 L 120.607185 732.263611 " />
<path stroke-linejoin="round" stroke-linecap="round" stroke="rgb(0,0,255)" stroke-width="1.874998" fill="none" d="M 0.000000 750.000000 L 750.000000 595.588196 " />
<path stroke-linejoin="round" stroke-linecap="round" stroke="rgb(255,0,0)" stroke-width="3.749996" fill="none" d="M 118.692780 725.563232 L 119.468536 728.278442 " />
<path stroke-linejoin="round" stroke-linecap="round" stroke="rgb(0,0,255)" stroke-width="1.874998" fill="none" d="M 0.000000 750.000000 L 750.000000 568.181824 " />
<path stroke-linejoin="round" stroke-linecap="round" stroke="rgb(255,0,0)" stroke-width="3.749996" fill="none" d="M 117.533821 721.506958 L 118.692780 725.563232 " />
<path stroke-linejoin="round" stroke-linecap="round" stroke="rgb(0,0,255)" stroke-width="1.874998" fill="none" d="M 0.000000 750.000000 L 750.000000 539.062500 " />
<path stroke-linejoin="round" stroke-linecap="round" stroke="rgb(255,0,0)" stroke-width="3.749996" fill="none" d="M 116.326981 717.283020 L 117.533821 721.506958 " />
<path stroke-linejoin="round" stroke-linecap="round" stroke="rgb(0,0,255)" stroke-width="1.874998" fill="none" d="M 0.000000 750.000000 L 750.000000 522.727295 " />
<path stroke-linejoin="round" stroke-linecap="round" stroke="rgb(255,0,0)" stroke-width="3.749996" fill="none" d="M 115.660789 714.951294 L 116.326981 717.283020 " />
<path stroke-linejoin="round" stroke-linecap="round" stroke="rgb(0,0,255)" stroke-width="1.874998" fill="none" d="M 0.000000 750.000000 L 750.000000 492.187500 " />
<path stroke-linejoin="round" stroke-linecap="round" stroke="rgb(255,0,0)" stroke-width="3.749996" fill="none" d="M 114.435486 710.662842 L 115.660789 714.951294 " />
<path stroke-linejoin="round" stroke-linecap="round" stroke="rgb(0,0,255)" stroke-width="1.874998" fill="none" d="M 0.000000 750.000000 L 750.000000 477.272705 " />
<path stroke-linejoin="round" stroke-linecap="round" stroke="rgb(255,0,0)" stroke-width="3.749996" fill="none" d="M 113.846497 708.601257 L 114.435486 710.662842 " />
<path stroke-linejoin="round" stroke-linecap="round" stroke="rgb(0,0,255)" stroke-width="1.874998" fill="none" d="M 0.000000 750.000000 L 750.000000 459.677429 " />
<path stroke-linejoin="round" stroke-linecap="round" stroke="rgb(255,0,0)" stroke-width="3.749996" fill="none" d="M 113.159355 706.196411 L 113.846497 708.601257 " />
<path stroke-linejoin="round" stroke-linecap="round" stroke="rgb(0,0,255)" stroke-width="1.874998" fill="none" d="M 0.000000 750.000000 L 750.000000 445.312500 " />
<path stroke-linejoin="round" stroke-linecap="round" stroke="rgb(255,0,0)" stroke-width="3.749996" fill="none" d="M 112.604546 704.254395 L 113.159355 706.196411 " />
<path stroke-linejoin="round" stroke-linecap="round" stroke="rgb(0,0,255)" stroke-width="1.874998" fill="none" d="M 0.000000 750.000000 L 750.000000 425.000000 " />
<path stroke-linejoin="round" stroke-linecap="round" stroke="rgb(255,0,0)" stroke-width="3.749996" fill="none" d="M 111.829185 701.540710 L 112.604546 704.254395 " />
<path stroke-linejoin="round" stroke-linecap="round" stroke="rgb(0,0,255)" stroke-width="1.874998" fill="none" d="M 0.000000 750.000000 L 750.000000 411.290344 " />
<path stroke-linejoin="round" stroke-linecap="round" stroke="rgb(255,0,0)" stroke-width="3.749996" fill="none" d="M 111.311874 699.730103 L 111.829185 701.540710 " />
<path stroke-linejoin="round" stroke-linecap="round" stroke="rgb(0,0,255)" stroke-width="1.874998" fill="none" d="M 0.000000 750.000000 L 750.000000 375.000000 " />
<path stroke-linejoin="round" stroke-linecap="round" stroke="rgb(255,0,0)" stroke-width="3.749996" fill="none" d="M 109.965363 695.017334 L 111.311874 699.730103 " />
<path stroke-linejoin="round" stroke-linecap="round" stroke="rgb(0,0,255)" stroke-width="1.874998" fill="none" d="M 0.000000 750.000000 L 750.000000 336.206909 " />
<path stroke-linejoin="round" stroke-linecap="round" stroke="rgb(255,0,0)" stroke-width="3.749996" fill="none" d="M 108.561562 690.103943 L 109.965363 695.017334 " />
<path stroke-linejoin="round" stroke-linecap="round" stroke="rgb(0,0,255)" stroke-width="1.874998" fill="none" d="M 0.000000 750.000000 L 750.000000 325.000000 " />
<path stroke-linejoin="round" stroke-linecap="round" stroke="rgb(255,0,0)" stroke-width="3.749996" fill="none" d="M 108.162674 688.707825 L 108.561562 690.103943 " />
<path stroke-linejoin="round" stroke-linecap="round" stroke="rgb(0,0,255)" stroke-width="1.874998" fill="none" d="M 0.000000 750.000000 L 750.000000 284.482788 " />
<path stroke-linejoin="round" stroke-linecap="round" stroke="rgb(255,0,0)" stroke-width="3.749996" fill="none" d="M 106.744629 683.744690 L 108.162674 688.707825 " />
<path stroke-linejoin="round" stroke-linecap="round" stroke="rgb(0,0,255)" stroke-width="1.874998" fill="none" d="M 0.000000 750.000000 L 750.000000 275.000000 " />
<path stroke-linejoin="round" stroke-linecap="round" stroke="rgb(255,0,0)" stroke-width="3.749996" fill="none" d="M 106.418121 682.601868 L 106.744629 683.744690 " />
<path stroke-linejoin="round" stroke-linecap="round" stroke="rgb(0,0,255)" stroke-width="1.874998" fill="none" d="M 0.000000 750.000000 L 750.000000 241.071442 " />
<path stroke-linejoin="round" stroke-linecap="round" stroke="rgb(255,0,0)" stroke-width="3.749996" fill="none" d="M 105.266022 678.569458 L 106.418121 682.601868 " />
<path stroke-linejoin="round" stroke-linecap="round" stroke="rgb(0,0,255)" stroke-width="1.874998" fill="none" d="M 0.000000 750.000000 L 750.000000 232.758606 " />
<path stroke-linejoin="round" stroke-linecap="round" stroke="rgb(255,0,0)" stroke-width="3.749996" fill="none" d="M 104.987518 677.594849 L 105.266022 678.569458 " />
<path stroke-linejoin="round" stroke-linecap="round" stroke="rgb(0,0,255)" stroke-width="1.874998" fill="none" d="M 0.000000 750.000000 L 750.000000 187.500000 " />
<path stroke-linejoin="round" stroke-linecap="round" stroke="rgb(255,0,0)" stroke-width="3.749996" fill="none" d="M 103.496834 672.377380 L 104.987518 677.594849 " />
<path stroke-linejoin="round" stroke-linecap="round" stroke="rgb(0,0,255)" stroke-width="1.874998" fill="none" d="M 0.000000 750.000000 L 750.000000 181.034485 " />
<path stroke-linejoin="round" stroke-linecap="round" stroke="rgb(255,0,0)" stroke-width="3.749996" fill="none" d="M 103.287331 671.644104 L 103.496834 672.377380 " />
<path stroke-linejoin="round" stroke-linecap="round" stroke="rgb(0,0,255)" stroke-width="1.874998" fill="none" d="M 0.000000 750.000000 L 750.000000 138.888901 " />
<path stroke-linejoin="round" stroke-linecap="round" stroke="rgb(255,0,0)" stroke-width="3.749996" fill="none" d="M 101.942162 666.936035 L 103.287331 671.644104 " />
<path stroke-linejoin="round" stroke-linecap="round" stroke="rgb(0,0,255)" stroke-width="1.874998" fill="none" d="M 0.000000 750.000000 L 750.000000 86.538475 " />
<path stroke-linejoin="round" stroke-linecap="round" stroke="rgb(255,0,0)" stroke-width="3.749996" fill="none" d="M 100.319313 661.255981 L 101.942184 666.936035 " />
<path stroke-linejoin="round" stroke-linecap="round" stroke="rgb(0,0,255)" stroke-width="1.874998" fill="none" d="M 0.000000 750.000000 L 750.000000 83.333328 " />
<path stroke-linejoin="round" stroke-linecap="round" stroke="rgb(255,0,0)" stroke-width="3.749996" fill="none" d="M 100.221634 660.914124 L 100.319313 661.255981 " />
<path stroke-linejoin="round" stroke-linecap="round" stroke="rgb(0,0,255)" stroke-width="1.874998" fill="none" d="M 0.000000 750.000000 L 750.000000 28.846174 " />
<path stroke-linejoin="round" stroke-linecap="round" stroke="rgb(255,0,0)" stroke-width="3.749996" fill="none" d="M 98.589668 655.202209 L 100.221634 660.914124 " />
<path stroke-linejoin="round" stroke-linecap="round" stroke="rgb(0,0,255)" stroke-width="1.874998" fill="none" d="M 0.000000 750.000000 L 721.153870 0.000000 " />
<path stroke-linejoin="round" stroke-linecap="round" stroke="rgb(255,0,0)" stroke-width="3.749996" fill="none" d="M 96.885818 649.238770 L 98.589668 655.202209 " />
<path stroke-linejoin="round" stroke-linecap="round" stroke="rgb(0,0,255)" stroke-width="1.874998" fill="none" d="M 0.000000 750.000000 L 666.666687 0.000000 " />
<path stroke-linejoin="round" stroke-linecap="round" stroke="rgb(255,0,0)" stroke-width="3.749996" fill="none" d="M 95.105209 643.006653 L 96.885818 649.238770 " />
<path stroke-linejoin="round" stroke-linecap="round" stroke="rgb(0,0,255)" stroke-width="1.874998" fill="none" d="M 0.000000 750.000000 L 620.689636 0.000000 " />
<path stroke-linejoin="round" stroke-linecap="round" stroke="rgb(255,0,0)" stroke-width="3.749996" fill="none" d="M 93.421921 637.115173 L 95.105209 643.006653 " />
<path stroke-linejoin="round" stroke-linecap="round" stroke="rgb(0,0,255)" stroke-width="1.874998" fill="none" d="M 0.000000 750.000000 L 580.645203 0.000000 " />
<path stroke-linejoin="round" stroke-linecap="round" stroke="rgb(255,0,0)" stroke-width="3.749996" fill="none" d="M 91.797195 631.428589 L 93.421921 637.115173 " />
<path stroke-linejoin="round" stroke-linecap="round" stroke="rgb(0,0,255)" stroke-width="1.874998" fill="none" d="M 0.000000 750.000000 L 575.000000 0.000000 " />
<path stroke-linejoin="round" stroke-linecap="round" stroke="rgb(255,0,0)" stroke-width="3.749996" fill="none" d="M 91.554901 630.580566 L 91.797195 631.428589 " />
<path stroke-linejoin="round" stroke-linecap="round" stroke="rgb(0,0,255)" stroke-width="1.874998" fill="none" d="M 0.000000 750.000000 L 532.258118 0.000000 " />
<path stroke-linejoin="round" stroke-linecap="round" stroke="rgb(255,0,0)" stroke-width="3.749996" fill="none" d="M 89.601425 623.743408 L 91.554901 630.580566 " />
<path stroke-linejoin="round" stroke-linecap="round" stroke="rgb(0,0,255)" stroke-width="1.874998" fill="none" d="M 0.000000 750.000000 L 492.187500 0.000000 " />
<path stroke-linejoin="round" stroke-linecap="round" stroke="rgb(255,0,0)" stroke-width="3.749996" fill="none" d="M 87.555397 616.582275 L 89.601425 623.743408 " />
<path stroke-linejoin="round" stroke-linecap="round" stroke="rgb(0,0,255)" stroke-width="1.874998" fill="none" d="M 0.000000 750.000000 L 454.545471 0.000000 " />
<path stroke-linejoin="round" stroke-linecap="round" stroke="rgb(255,0,0)" stroke-width="3.749996" fill="none" d="M 85.410004 609.073486 L 87.555397 616.582275 " />
<path stroke-linejoin="round" stroke-linecap="round" stroke="rgb(0,0,255)" stroke-width="1.874998" fill="none" d="M 0.000000 750.000000 L 419.117645 0.000000 " />
<path stroke-linejoin="round" stroke-linecap="round" stroke="rgb(255,0,0)" stroke-width="3.749996" fill="none" d="M 83.157913 601.191162 L 85.410004 609.073486 " />
<path stroke-linejoin="round" stroke-linecap="round" stroke="rgb(0,0,255)" stroke-width="1.874998" fill="none" d="M 0.000000 750.000000 L 395.833344 0.000000 " />
<path stroke-linejoin="round" stroke-linecap="round" stroke="rgb(255,0,0)" stroke-width="3.749996" fill="none" d="M 81.535309 595.512024 L 83.157913 601.191162 " />
<path stroke-linejoin="round" stroke-linecap="round" stroke="rgb(0,0,255)" stroke-width="1.874998" fill="none" d="M 0.000000 750.000000 L 375.000000 0.000000 " />
<path stroke-linejoin="round" stroke-linecap="round" stroke="rgb(255,0,0)" stroke-width="3.749996" fill="none" d="M 79.974823 590.050293 L 81.535309 595.512024 " />
<path stroke-linejoin="round" stroke-linecap="round" stroke="rgb(0,0,255)" stroke-width="1.874998" fill="none" d="M 0.000000 750.000000 L 356.250000 0.000000 " />
<path stroke-linejoin="round" stroke-linecap="round" stroke="rgb(255,0,0)" stroke-width="3.749996" fill="none" d="M 78.472939 584.793823 L 79.974823 590.050293 " />
<path stroke-linejoin="round" stroke-linecap="round" stroke="rgb(0,0,255)" stroke-width="1.874998" fill="none" d="M 0.000000 750.000000 L 346.153839 0.000000 " />
<path stroke-linejoin="round" stroke-linecap="round" stroke="rgb(255,0,0)" stroke-width="3.749996" fill="none" d="M 77.622612 581.817627 L 78.472939 584.793823 " />
<path stroke-linejoin="round" stroke-linecap="round" stroke="rgb(0,0,255)" stroke-width="1.874998" fill="none" d="M 0.000000 750.000000 L 329.268311 0.000000 " />
<path stroke-linejoin="round" stroke-linecap="round" stroke="rgb(255,0,0)" stroke-width="3.749996" fill="none" d="M 76.129875 576.593018 L 77.622612 581.817627 " />
<path stroke-linejoin="round" stroke-linecap="round" stroke="rgb(0,0,255)" stroke-width="1.874998" fill="none" d="M 0.000000 750.000000 L 303.571442 0.000000 " />
<path stroke-linejoin="round" stroke-linecap="round" stroke="rgb(255,0,0)" stroke-width="3.749996" fill="none" d="M 73.671387 567.988342 L 76.129875 576.593018 " />
<path stroke-linejoin="round" stroke-linecap="round" stroke="rgb(0,0,255)" stroke-width="1.874998" fill="none" d="M 0.000000 750.000000 L 289.772705 0.000000 " />
<path stroke-linejoin="round" stroke-linecap="round" stroke="rgb(255,0,0)" stroke-width="3.749996" fill="none" d="M 72.247780 563.005676 L 73.671387 567.988342 " />
<path stroke-linejoin="round" stroke-linecap="round" stroke="rgb(0,0,255)" stroke-width="1.874998" fill="none" d="M 0.000000 750.000000 L 266.666687 0.000000 " />
<path stroke-linejoin="round" stroke-linecap="round" stroke="rgb(255,0,0)" stroke-width="3.749996" fill="none" d="M 69.681038 554.022095 L 72.247780 563.005676 " />
<path stroke-linejoin="round" stroke-linecap="round" stroke="rgb(0,0,255)" stroke-width="1.874998" fill="none" d="M 0.000000 750.000000 L 255.319138 0.000000 " />
<path stroke-linejoin="round" stroke-linecap="round" stroke="rgb(255,0,0)" stroke-width="3.749996" fill="none" d="M 68.328003 549.286438 L 69.681038 554.022095 " />
<path stroke-linejoin="round" stroke-linecap="round" stroke="rgb(0,0,255)" stroke-width="1.874998" fill="none" d="M 0.000000 750.000000 L 244.897949 0.000000 " />
<path stroke-linejoin="round" stroke-linecap="round" stroke="rgb(255,0,0)" stroke-width="3.749996" fill="none" d="M 67.026527 544.731262 L 68.328003 549.286438 " />
<path stroke-linejoin="round" stroke-linecap="round" stroke="rgb(0,0,255)" stroke-width="1.874998" fill="none" d="M 0.000000 750.000000 L 234.375000 0.000000 " />
<path stroke-linejoin="round" stroke-linecap="round" stroke="rgb(255,0,0)" stroke-width="3.749996" fill="none" d="M 65.650978 539.916809 L 67.026527 544.731262 " />
<path stroke-linejoin="round" stroke-linecap="round" stroke="rgb(0,0,255)" stroke-width="1.874998" fill="none" d="M 0.000000 750.000000 L 225.000015 0.000000 " />
<path stroke-linejoin="round" stroke-linecap="round" stroke="rgb(255,0,0)" stroke-width="3.749996" fill="none" d="M 64.369995 535.433411 L 65.650978 539.916809 " />
<path stroke-linejoin="round" stroke-linecap="round" stroke="rgb(0,0,255)" stroke-width="1.874998" fill="none" d="M 0.000000 750.000000 L 216.346146 0.000000 " />
<path stroke-linejoin="round" stroke-linecap="round" stroke="rgb(255,0,0)" stroke-width="3.749996" fill="none" d="M 63.138016 531.121521 L 64.369995 535.433411 " />
<path stroke-linejoin="round" stroke-linecap="round" stroke="rgb(0,0,255)" stroke-width="1.874998" fill="none" d="M 0.000000 750.000000 L 198.113205 0.000000 " />
<path stroke-linejoin="round" stroke-linecap="round" stroke="rgb(255,0,0)" stroke-width="3.749996" fill="none" d="M 60.373150 521.444458 L 63.138016 531.121521 " />
<path stroke-linejoin="round" stroke-linecap="round" stroke="rgb(0,0,255)" stroke-width="1.874998" fill="none" d="M 0.000000 750.000000 L 190.909088 0.000000 " />
<path stroke-linejoin="round" stroke-linecap="round" stroke="rgb(255,0,0)" stroke-width="3.749996" fill="none" d="M 59.212132 517.380920 L 60.373150 521.444458 " />
<path stroke-linejoin="round" stroke-linecap="round" stroke="rgb(0,0,255)" stroke-width="1.874998" fill="none" d="M 0.000000 750.000000 L 174.107147 0.000000 " />
<path stroke-linejoin="round" stroke-linecap="round" stroke="rgb(255,0,0)" stroke-width="3.749996" fill="none" d="M 56.336941 507.317749 L 59.212132 517.380920 " />
<path stroke-linejoin="round" stroke-linecap="round" stroke="rgb(0,0,255)" stroke-width="1.874998" fill="none" d="M 0.000000 750.000000 L 168.103455 0.000000 " />
<path stroke-linejoin="round" stroke-linecap="round" stroke="rgb(255,0,0)" stroke-width="3.749996" fill="none" d="M 55.248322 503.507538 L 56.336941 507.317749 " />
<path stroke-linejoin="round" stroke-linecap="round" stroke="rgb(0,0,255)" stroke-width="1.874998" fill="none" d="M 0.000000 750.000000 L 162.500000 0.000000 " />
<path stroke-linejoin="round" stroke-linecap="round" stroke="rgb(255,0,0)" stroke-width="3.749996" fill="none" d="M 54.200939 499.841797 L 55.248322 503.507538 " />
<path stroke-linejoin="round" stroke-linecap="round" stroke="rgb(0,0,255)" stroke-width="1.874998" fill="none" d="M 0.000000 750.000000 L 154.761902 0.000000 " />
<path stroke-linejoin="round" stroke-linecap="round" stroke="rgb(255,0,0)" stroke-width="3.749996" fill="none" d="M 53.263752 491.875641 L 54.200939 499.841797 " />
<path stroke-linejoin="round" stroke-linecap="round" stroke="rgb(0,0,255)" stroke-width="1.874998" fill="none" d="M 0.000000 750.000000 L 140.625000 0.000000 " />
<path stroke-linejoin="round" stroke-linecap="round" stroke="rgb(255,0,0)" stroke-width="3.749996" fill="none" d="M 50.326130 481.593994 L 53.263752 491.875641 " />
<path stroke-linejoin="round" stroke-linecap="round" stroke="rgb(0,0,255)" stroke-width="1.874998" fill="none" d="M 0.000000 750.000000 L 126.923073 0.000000 " />
<path stroke-linejoin="round" stroke-linecap="round" stroke="rgb(255,0,0)" stroke-width="3.749996" fill="none" d="M 47.246597 470.815613 L 50.326130 481.593994 " />
<path stroke-linejoin="round" stroke-linecap="round" stroke="rgb(0,0,255)" stroke-width="1.874998" fill="none" d="M 0.000000 750.000000 L 123.134315 0.000000 " />
<path stroke-linejoin="round" stroke-linecap="round" stroke="rgb(255,0,0)" stroke-width="3.749996" fill="none" d="M 46.350918 467.680786 L 47.246597 470.815613 " />
<path stroke-linejoin="round" stroke-linecap="round" stroke="rgb(0,0,255)" stroke-width="1.874998" fill="none" d="M 0.000000 750.000000 L 108.552620 0.000000 " />
<path stroke-linejoin="round" stroke-linecap="round" stroke="rgb(255,0,0)" stroke-width="3.749996" fill="none" d="M 43.912342 446.605591 L 46.350918 467.680786 " />
<path stroke-linejoin="round" stroke-linecap="round" stroke="rgb(0,0,255)" stroke-width="1.874998" fill="none" d="M 0.000000 750.000000 L 102.272720 0.000000 " />
<path stroke-linejoin="round" stroke-linecap="round" stroke="rgb(255,0,0)" stroke-width="3.749996" fill="none" d="M 42.192711 440.586853 L 43.912342 446.605560 " />
<path stroke-linejoin="round" stroke-linecap="round" stroke="rgb(0,0,255)" stroke-width="1.874998" fill="none" d="M 0.000000 750.000000 L 89.552231 0.000000 " />
<path stroke-linejoin="round" stroke-linecap="round" stroke="rgb(255,0,0)" stroke-width="3.749996" fill="none" d="M 39.120869 422.362701 L 42.192711 440.586853 " />
<path stroke-linejoin="round" stroke-linecap="round" stroke="rgb(0,0,255)" stroke-width="1.874998" fill="none" d="M 0.000000 750.000000 L 77.205887 0.000000 " />
<path stroke-linejoin="round" stroke-linecap="round" stroke="rgb(255,0,0)" stroke-width="3.749996" fill="none" d="M 36.313622 397.239166 L 39.120869 422.362701 " />
<path stroke-linejoin="round" stroke-linecap="round" stroke="rgb(0,0,255)" stroke-width="1.874998" fill="none" d="M 0.000000 750.000000 L 74.999992 0.000000 " />
<path stroke-linejoin="round" stroke-linecap="round" stroke="rgb(255,0,0)" stroke-width="3.749996" fill="none" d="M 35.744591 392.554016 L 36.313622 397.239166 " />
<path stroke-linejoin="round" stroke-linecap="round" stroke="rgb(0,0,255)" stroke-width="1.874998" fill="none" d="M 0.000000 750.000000 L 70.945946 0.000000 " />
<path stroke-linejoin="round" stroke-linecap="round" stroke="rgb(255,0,0)" stroke-width="3.749996" fill="none" d="M 34.775757 382.370544 L 35.744591 392.554016 " />
<path stroke-linejoin="round" stroke-linecap="round" stroke="rgb(0,0,255)" stroke-width="1.874998" fill="none" d="M 0.000000 750.000000 L 69.078949 0.000000 " />
<path stroke-linejoin="round" stroke-linecap="round" stroke="rgb(255,0,0)" stroke-width="3.749996" fill="none" d="M 34.315601 377.430481 L 34.775757 382.370544 " />
<path stroke-linejoin="round" stroke-linecap="round" stroke="rgb(0,0,255)" stroke-width="1.874998" fill="none" d="M 0.000000 750.000000 L 64.024399 0.000000 " />
<path stroke-linejoin="round" stroke-linecap="round" stroke="rgb(255,0,0)" stroke-width="3.749996" fill="none" d="M 33.019333 363.202209 L 34.315601 377.430481 " />
<path stroke-linejoin="round" stroke-linecap="round" stroke="rgb(0,0,255)" stroke-width="1.874998" fill="none" d="M 0.000000 750.000000 L 62.500008 0.000000 " />
<path stroke-linejoin="round" stroke-linecap="round" stroke="rgb(255,0,0)" stroke-width="3.749996" fill="none" d="M 32.608822 358.694244 L 33.019333 363.202209 " />
<path stroke-linejoin="round" stroke-linecap="round" stroke="rgb(0,0,255)" stroke-width="1.874998" fill="none" d="M 0.000000 750.000000 L 53.030312 0.000000 " />
<path stroke-linejoin="round" stroke-linecap="round" stroke="rgb(255,0,0)" stroke-width="3.749996" fill="none" d="M 29.829628 328.123871 L 32.608822 358.694244 " />
<path stroke-linejoin="round" stroke-linecap="round" stroke="rgb(0,0,255)" stroke-width="1.874998" fill="none" d="M 0.000000 750.000000 L 50.970867 0.000000 " />
<path stroke-linejoin="round" stroke-linecap="round" stroke="rgb(255,0,0)" stroke-width="3.749996" fill="none" d="M 29.166721 320.832458 L 29.829628 328.123932 " />
<path stroke-linejoin="round" stroke-linecap="round" stroke="rgb(0,0,255)" stroke-width="1.874998" fill="none" d="M 0.000000 750.000000 L 49.065426 0.000000 " />
<path stroke-linejoin="round" stroke-linecap="round" stroke="rgb(255,0,0)" stroke-width="3.749996" fill="none" d="M 28.532646 313.858032 L 29.166721 320.832397 " />
<path stroke-linejoin="round" stroke-linecap="round" stroke="rgb(0,0,255)" stroke-width="1.874998" fill="none" d="M 0.000000 750.000000 L 41.208790 0.000000 " />
<path stroke-linejoin="round" stroke-linecap="round" stroke="rgb(255,0,0)" stroke-width="3.749996" fill="none" d="M 25.684967 282.533691 L 28.532646 313.858032 " />
<path stroke-linejoin="round" stroke-linecap="round" stroke="rgb(0,0,255)" stroke-width="1.874998" fill="none" d="M 0.000000 750.000000 L 29.702961 0.000000 " />
<path stroke-linejoin="round" stroke-linecap="round" stroke="rgb(255,0,0)" stroke-width="3.749996" fill="none" d="M 20.689667 227.585754 L 25.684967 282.533691 " />
<path stroke-linejoin="round" stroke-linecap="round" stroke="rgb(0,0,255)" stroke-width="1.874998" fill="none" d="M 0.000000 750.000000 L 20.270281 0.000000 " />
<path stroke-linejoin="round" stroke-linecap="round" stroke="rgb(255,0,0)" stroke-width="3.749996" fill="none" d="M 15.625008 171.874588 L 20.689667 227.585754 " />
<path stroke-linejoin="round" stroke-linecap="round" stroke="rgb(0,0,255)" stroke-width="1.874998" fill="none" d="M 0.000000 750.000000 L 17.175570 0.000000 " />
<path stroke-linejoin="round" stroke-linecap="round" stroke="rgb(255,0,0)" stroke-width="3.749996" fill="none" d="M 13.719522 150.914307 L 15.625008 171.874588 " />
<path stroke-linejoin="round" stroke-linecap="round" stroke="rgb(0,0,255)" stroke-width="1.874998" fill="none" d="M 0.000000 750.000000 L 12.820512 0.000000 " />
<path stroke-linejoin="round" stroke-linecap="round" stroke="rgb(255,0,0)" stroke-width="3.749996" fill="none" d="M 10.791376 118.704803 L 13.719522 150.914307 " />
<path stroke-linejoin="round" stroke-linecap="round" stroke="rgb(0,0,255)" stroke-width="1.874998" fill="none" d="M 0.000000 750.000000 L 5.905509 0.000000 " />
<path stroke-linejoin="round" stroke-linecap="round" stroke="rgb(255,0,0)" stroke-width="3.749996" fill="none" d="M 5.434781 59.782436 L 10.791376 118.704803 " />
<path stroke-linejoin="round" stroke-linecap="round" stroke="rgb(0,0,255)" stroke-width="1.874998" fill="none" d="M 0.000000 750.000000 L 0.000000 0.000000 " />
<path stroke-linejoin="round" stroke-linecap="round" stroke="rgb(255,0,0)" stroke-width="3.749996" fill="none" d="M 0.000000 0.000000 L 5.434781 59.782505 " />
<circle cx="124.685124" cy="746.536553" r="3.749996" style="fill:rgb(0,127,0);stroke-width:1" /><circle cx="123.655826" cy="742.933944" r="3.749996" style="fill:rgb(0,127,0);stroke-width:1" /><circle cx="122.584328" cy="739.183724" r="3.749996" style="fill:rgb(0,127,0);stroke-width:1" /><circle cx="121.700786" cy="736.091338" r="3.749996" style="fill:rgb(0,127,0);stroke-width:1" /><circle cx="120.607182" cy="732.263647" r="3.749996" style="fill:rgb(0,127,0);stroke-width:1" /><circle cx="119.468540" cy="728.278443" r="3.749996" style="fill:rgb(0,127,0);stroke-width:1" /><circle cx="118.692778" cy="725.563243" r="3.749996" style="fill:rgb(0,127,0);stroke-width:1" /><circle cx="117.533818" cy="721.506961" r="3.749996" style="fill:rgb(0,127,0);stroke-width:1" /><circle cx="116.326980" cy="717.283040" r="3.749996" style="fill:rgb(0,127,0);stroke-width:1" /><circle cx="115.660787" cy="714.951284" r="3.749996" style="fill:rgb(0,127,0);stroke-width:1" /><circle cx="114.435486" cy="710.662790" r="3.749996" style="fill:rgb(0,127,0);stroke-width:1" /><circle cx="113.846496" cy="708.601266" r="3.749996" style="fill:rgb(0,127,0);stroke-width:1" /><circle cx="113.159359" cy="706.196375" r="3.749996" style="fill:rgb(0,127,0);stroke-width:1" /><circle cx="112.604544" cy="704.254411" r="3.749996" style="fill:rgb(0,127,0);stroke-width:1" /><circle cx="111.829184" cy="701.540686" r="3.749996" style="fill:rgb(0,127,0);stroke-width:1" /><circle cx="111.311875" cy="699.730128" r="3.749996" style="fill:rgb(0,127,0);stroke-width:1" /><circle cx="109.965362" cy="695.017308" r="3.749996" style="fill:rgb(0,127,0);stroke-width:1" /><circle cx="108.561561" cy="690.103970" r="3.749996" style="fill:rgb(0,127,0);stroke-width:1" /><circle cx="108.162671" cy="688.707814" r="3.749996" style="fill:rgb(0,127,0);stroke-width:1" /><circle cx="106.744632" cy="683.744699" r="3.749996" style="fill:rgb(0,127,0);stroke-width:1" /><circle cx="106.418118" cy="682.601854" r="3.749996" style="fill:rgb(0,127,0);stroke-width:1" /><circle cx="105.266020" cy="678.569488" r="3.749996" style="fill:rgb(0,127,0);stroke-width:1" /><circle cx="104.987517" cy="677.594818" r="3.749996" style="fill:rgb(0,127,0);stroke-width:1" /><circle cx="103.496835" cy="672.377385" r="3.749996" style="fill:rgb(0,127,0);stroke-width:1" /><circle cx="103.287332" cy="671.644092" r="3.749996" style="fill:rgb(0,127,0);stroke-width:1" /><circle cx="101.942159" cy="666.936010" r="3.749996" style="fill:rgb(0,127,0);stroke-width:1" /><circle cx="100.319311" cy="661.256008" r="3.749996" style="fill:rgb(0,127,0);stroke-width:1" /><circle cx="100.221634" cy="660.914116" r="3.749996" style="fill:rgb(0,127,0);stroke-width:1" /><circle cx="98.589666" cy="655.202240" r="3.749996" style="fill:rgb(0,127,0);stroke-width:1" /><circle cx="96.885815" cy="649.238773" r="3.749996" style="fill:rgb(0,127,0);stroke-width:1" /><circle cx="95.105208" cy="643.006638" r="3.749996" style="fill:rgb(0,127,0);stroke-width:1" /><circle cx="93.421921" cy="637.115166" r="3.749996" style="fill:rgb(0,127,0);stroke-width:1" /><circle cx="91.797195" cy="631.428614" r="3.749996" style="fill:rgb(0,127,0);stroke-width:1" /><circle cx="91.554902" cy="630.580567" r="3.749996" style="fill:rgb(0,127,0);stroke-width:1" /><circle cx="89.601427" cy="623.743437" r="3.749996" style="fill:rgb(0,127,0);stroke-width:1" /><circle cx="87.555394" cy="616.582252" r="3.749996" style="fill:rgb(0,127,0);stroke-width:1" /><circle cx="85.410006" cy="609.073475" r="3.749996" style="fill:rgb(0,127,0);stroke-width:1" /><circle cx="83.157912" cy="601.191111" r="3.749996" style="fill:rgb(0,127,0);stroke-width:1" /><circle cx="81.535310" cy="595.512025" r="3.749996" style="fill:rgb(0,127,0);stroke-width:1" /><circle cx="79.974823" cy="590.050332" r="3.749996" style="fill:rgb(0,127,0);stroke-width:1" /><circle cx="78.472942" cy="584.793784" r="3.749996" style="fill:rgb(0,127,0);stroke-width:1" /><circle cx="77.622615" cy="581.817649" r="3.749996" style="fill:rgb(0,127,0);stroke-width:1" /><circle cx="76.129876" cy="576.593064" r="3.749996" style="fill:rgb(0,127,0);stroke-width:1" /><circle cx="73.671386" cy="567.988336" r="3.749996" style="fill:rgb(0,127,0);stroke-width:1" /><circle cx="72.247781" cy="563.005708" r="3.749996" style="fill:rgb(0,127,0);stroke-width:1" /><circle cx="69.681041" cy="554.022085" r="3.749996" style="fill:rgb(0,127,0);stroke-width:1" /><circle cx="68.328001" cy="549.286466" r="3.749996" style="fill:rgb(0,127,0);stroke-width:1" /><circle cx="67.026526" cy="544.731259" r="3.749996" style="fill:rgb(0,127,0);stroke-width:1" /><circle cx="65.650977" cy="539.916839" r="3.749996" style="fill:rgb(0,127,0);stroke-width:1" /><circle cx="64.369999" cy="535.433371" r="3.749996" style="fill:rgb(0,127,0);stroke-width:1" /><circle cx="63.138016" cy="531.121518" r="3.749996" style="fill:rgb(0,127,0);stroke-width:1" /><circle cx="60.373150" cy="521.444466" r="3.749996" style="fill:rgb(0,127,0);stroke-width:1" /><circle cx="59.212133" cy="517.380919" r="3.749996" style="fill:rgb(0,127,0);stroke-width:1" /><circle cx="56.336939" cy="507.317763" r="3.749996" style="fill:rgb(0,127,0);stroke-width:1" /><circle cx="55.248320" cy="503.507551" r="3.749996" style="fill:rgb(0,127,0);stroke-width:1" /><circle cx="54.200940" cy="499.841809" r="3.749996" style="fill:rgb(0,127,0);stroke-width:1" /><circle cx="53.263754" cy="491.875648" r="3.749996" style="fill:rgb(0,127,0);stroke-width:1" /><circle cx="50.326131" cy="481.593993" r="3.749996" style="fill:rgb(0,127,0);stroke-width:1" /><circle cx="47.246598" cy="470.815603" r="3.749996" style="fill:rgb(0,127,0);stroke-width:1" /><circle cx="46.350919" cy="467.680782" r="3.749996" style="fill:rgb(0,127,0);stroke-width:1" /><circle cx="43.912344" cy="446.605593" r="3.749996" style="fill:rgb(0,127,0);stroke-width:1" /><circle cx="42.192712" cy="440.586833" r="3.749996" style="fill:rgb(0,127,0);stroke-width:1" /><circle cx="39.120868" cy="422.362715" r="3.749996" style="fill:rgb(0,127,0);stroke-width:1" /><circle cx="36.313623" cy="397.239178" r="3.749996" style="fill:rgb(0,127,0);stroke-width:1" /><circle cx="35.744593" cy="392.554045" r="3.749996" style="fill:rgb(0,127,0);stroke-width:1" /><circle cx="34.775756" cy="382.370532" r="3.749996" style="fill:rgb(0,127,0);stroke-width:1" /><circle cx="34.315601" cy="377.430498" r="3.749996" style="fill:rgb(0,127,0);stroke-width:1" /><circle cx="33.019334" cy="363.202214" r="3.749996" style="fill:rgb(0,127,0);stroke-width:1" /><circle cx="32.608822" cy="358.694255" r="3.749996" style="fill:rgb(0,127,0);stroke-width:1" /><circle cx="29.829629" cy="328.123866" r="3.749996" style="fill:rgb(0,127,0);stroke-width:1" /><circle cx="29.166721" cy="320.832459" r="3.749996" style="fill:rgb(0,127,0);stroke-width:1" /><circle cx="28.532647" cy="313.858034" r="3.749996" style="fill:rgb(0,127,0);stroke-width:1" /><circle cx="25.684968" cy="282.533705" r="3.749996" style="fill:rgb(0,127,0);stroke-width:1" /><circle cx="20.689666" cy="227.585737" r="3.749996" style="fill:rgb(0,127,0);stroke-width:1" /><circle cx="15.625007" cy="171.874590" r="3.749996" style="fill:rgb(0,127,0);stroke-width:1" /><circle cx="13.719521" cy="150.914311" r="3.749996" style="fill:rgb(0,127,0);stroke-width:1" /><circle cx="10.791376" cy="118.704803" r="3.749996" style="fill:rgb(0,127,0);stroke-width:1" /><circle cx="5.434781" cy="59.782438" r="3.749996" style="fill:rgb(0,127,0);stroke-width:1" /><circle cx="750.000000" cy="750.000000" r="3.749996" style="fill:rgb(0,127,0);stroke-width:1" /><path stroke-linejoin="round" stroke-linecap="round" stroke="rgb(255,255,255)" stroke-width="3.749996" fill="none" d="M 0.000000 750.000000 L 750.000000 750.000000 M 0.000000 750.000000 L 0.000000 0.000000 " />

</svg>