<svg xmlns="http://www.w3.org/2000/svg" version="1.1" width = "750" height = "750" viewBox = "0 0 750 750"  shape-rendering="crispEdges">
<path stroke-linejoin="round" stroke-linecap="round" stroke="rgb(255,255,0)" stroke-width="3.749996" fill="none" d="M 249.999985 750.000000 L 0.000000 0.000000 " />
<path stroke-linejoin="round" stroke-linecap="round" stroke="rgb(63,63,63)" stroke-width="3.749996" fill="none" d="M 0.000000 0.000000 L 750.000000 750.000000 M 249.999985 750.000000 L 99.999992 0.000000 " />
<path stroke-linejoin="round" stroke-linecap="round" stroke="rgb(191,191,191)" stroke-width="3.749996" fill="none" d="M 0.000000 500.000000 L 249.999985 750.000000 M 0.000000 0.000000 L 150.000015 750.000000 " />
<path stroke-linejoin="round" stroke-linecap="round" stroke="rgb(0,0,255)" stroke-width="1.874998" fill="none" d="M 0.000000 750.000000 L 750.000000 732.954590 " />
<path stroke-linejoin="round" stroke-linecap="round" stroke="rgb(255,0,0)" stroke-width="3.749996" fill="none" d="M 248.868759 744.343872 L 249.999985 750.000000 " />
<path stroke-linejoin="round" stroke-linecap="round" stroke="rgb(0,0,255)" stroke-width="1.874998" fill="none" d="M 0.000000 750.000000 L 750.000000 715.116272 " />
<path stroke-linejoin="round" stroke-linecap="round" stroke="rgb(255,0,0)" stroke-width="3.749996" fill="none" d="M 245.976410 738.559204 L 248.868759 744.343872 " />
<path stroke-linejoin="round" stroke-linecap="round" stroke="rgb(0,0,255)" stroke-width="1.874998" fill="none" d="M 0.000000 750.000000 L 750.000000 535.714294 " />
<path stroke-linejoin="round" stroke-linecap="round" stroke="rgb(255,0,0)" stroke-width="3.749996" fill="none" d="M 232.247513 683.643555 L 245.976410 738.559204 " />
<path stroke-linejoin="round" stroke-linecap="round" stroke="rgb(0,0,255)" stroke-width="1.874998" fill="none" d="M 0.000000 750.000000 L 750.000000 511.363647 " />
<path stroke-linejoin="round" stroke-linecap="round" stroke="rgb(255,0,0)" stroke-width="3.749996" fill="none" d="M 230.501266 676.658691 L 232.247513 683.643555 " />
<path stroke-linejoin="round" stroke-linecap="round" stroke="rgb(0,0,255)" stroke-width="1.874998" fill="none" d="M 0.000000 750.000000 L 750.000000 488.372101 " />
<path stroke-linejoin="round" stroke-linecap="round" stroke="rgb(255,0,0)" stroke-width="3.749996" fill="none" d="M 228.876434 670.159424 L 230.501221 676.658691 " />
<path stroke-linejoin="round" stroke-linecap="round" stroke="rgb(0,0,255)" stroke-width="1.874998" fill="none" d="M 0.000000 750.000000 L 750.000000 453.488373 " />
<path stroke-linejoin="round" stroke-linecap="round" stroke="rgb(255,0,0)" stroke-width="3.749996" fill="none" d="M 226.454437 660.471558 L 228.876434 670.159424 " />
<path stroke-linejoin="round" stroke-linecap="round" stroke="rgb(0,0,255)" stroke-width="1.874998" fill="none" d="M 0.000000 750.000000 L 750.000000 384.615356 " />
<path stroke-linejoin="round" stroke-linecap="round" stroke="rgb(255,0,0)" stroke-width="3.749996" fill="none" d="M 221.820023 641.933838 L 226.454437 660.471558 " />
<path stroke-linejoin="round" stroke-linecap="round" stroke="rgb(0,0,255)" stroke-width="1.874998" fill="none" d="M 0.000000 750.000000 L 750.000000 355.263153 " />
<path stroke-linejoin="round" stroke-linecap="round" stroke="rgb(255,0,0)" stroke-width="3.749996" fill="none" d="M 219.902069 634.262085 L 221.820023 641.933838 " />
<path stroke-linejoin="round" stroke-linecap="round" stroke="rgb(0,0,255)" stroke-width="1.874998" fill="none" d="M 0.000000 750.000000 L 750.000000 291.666656 " />
<path stroke-linejoin="round" stroke-linecap="round" stroke="rgb(255,0,0)" stroke-width="3.749996" fill="none" d="M 215.858185 618.086609 L 219.902069 634.262085 " />
<path stroke-linejoin="round" stroke-linecap="round" stroke="rgb(0,0,255)" stroke-width="1.874998" fill="none" d="M 0.000000 750.000000 L 750.000000 249.999985 " />
<path stroke-linejoin="round" stroke-linecap="round" stroke="rgb(255,0,0)" stroke-width="3.749996" fill="none" d="M 213.288452 607.807678 L 215.858185 618.086609 " />
<path stroke-linejoin="round" stroke-linecap="round" stroke="rgb(0,0,255)" stroke-width="1.874998" fill="none" d="M 0.000000 750.000000 L 750.000000 243.243225 " />
<path stroke-linejoin="round" stroke-linecap="round" stroke="rgb(255,0,0)" stroke-width="3.749996" fill="none" d="M 212.877502 606.163879 L 213.288452 607.807678 " />
<path stroke-linejoin="round" stroke-linecap="round" stroke="rgb(0,0,255)" stroke-width="1.874998" fill="none" d="M 0.000000 750.000000 L 750.000000 171.428558 " />
<path stroke-linejoin="round" stroke-linecap="round" stroke="rgb(255,0,0)" stroke-width="3.749996" fill="none" d="M 208.605499 589.075745 L 212.877502 606.163879 " />
<path stroke-linejoin="round" stroke-linecap="round" stroke="rgb(0,0,255)" stroke-width="1.874998" fill="none" d="M 0.000000 750.000000 L 750.000000 48.387096 " />
<path stroke-linejoin="round" stroke-linecap="round" stroke="rgb(255,0,0)" stroke-width="3.749996" fill="none" d="M 201.671448 561.339661 L 208.605499 589.075745 " />
<path stroke-linejoin="round" stroke-linecap="round" stroke="rgb(0,0,255)" stroke-width="1.874998" fill="none" d="M 0.000000 750.000000 L 617.647095 0.000000 " />
<path stroke-linejoin="round" stroke-linecap="round" stroke="rgb(255,0,0)" stroke-width="3.749996" fill="none" d="M 190.888306 518.207092 L 201.671448 561.339661 " />
<path stroke-linejoin="round" stroke-linecap="round" stroke="rgb(0,0,255)" stroke-width="1.874998" fill="none" d="M 0.000000 750.000000 L 552.631592 0.000000 " />
<path stroke-linejoin="round" stroke-linecap="round" stroke="rgb(255,0,0)" stroke-width="3.749996" fill="none" d="M 185.797913 497.845703 L 190.888260 518.207092 " />
<path stroke-linejoin="round" stroke-linecap="round" stroke="rgb(0,0,255)" stroke-width="1.874998" fill="none" d="M 0.000000 750.000000 L 519.230774 0.000000 " />
<path stroke-linejoin="round" stroke-linecap="round" stroke="rgb(255,0,0)" stroke-width="3.749996" fill="none" d="M 182.818634 485.928650 L 185.797897 497.845703 " />
<path stroke-linejoin="round" stroke-linecap="round" stroke="rgb(0,0,255)" stroke-width="1.874998" fill="none" d="M 0.000000 750.000000 L 487.499969 0.000000 " />
<path stroke-linejoin="round" stroke-linecap="round" stroke="rgb(255,0,0)" stroke-width="3.749996" fill="none" d="M 179.715225 473.515045 L 182.818634 485.928650 " />
<path stroke-linejoin="round" stroke-linecap="round" stroke="rgb(0,0,255)" stroke-width="1.874998" fill="none" d="M 0.000000 750.000000 L 464.285736 0.000000 " />
<path stroke-linejoin="round" stroke-linecap="round" stroke="rgb(255,0,0)" stroke-width="3.749996" fill="none" d="M 177.253387 463.667603 L 179.715225 473.515045 " />
<path stroke-linejoin="round" stroke-linecap="round" stroke="rgb(0,0,255)" stroke-width="1.874998" fill="none" d="M 0.000000 750.000000 L 443.181793 0.000000 " />
<path stroke-linejoin="round" stroke-linecap="round" stroke="rgb(255,0,0)" stroke-width="3.749996" fill="none" d="M 174.858063 454.086365 L 177.253387 463.667603 " />
<path stroke-linejoin="round" stroke-linecap="round" stroke="rgb(0,0,255)" stroke-width="1.874998" fill="none" d="M 0.000000 750.000000 L 375.000000 0.000000 " />
<path stroke-linejoin="round" stroke-linecap="round" stroke="rgb(255,0,0)" stroke-width="3.749996" fill="none" d="M 165.890991 418.218018 L 174.858063 454.086365 " />
<path stroke-linejoin="round" stroke-linecap="round" stroke="rgb(0,0,255)" stroke-width="1.874998" fill="none" d="M 0.000000 750.000000 L 367.924530 0.000000 " />
<path stroke-linejoin="round" stroke-linecap="round" stroke="rgb(255,0,0)" stroke-width="3.749996" fill="none" d="M 164.834335 413.991577 L 165.890961 418.218079 " />
<path stroke-linejoin="round" stroke-linecap="round" stroke="rgb(0,0,255)" stroke-width="1.874998" fill="none" d="M 0.000000 750.000000 L 360.576935 0.000000 " />
<path stroke-linejoin="round" stroke-linecap="round" stroke="rgb(255,0,0)" stroke-width="3.749996" fill="none" d="M 163.708160 409.487030 L 164.834305 413.991638 " />
<path stroke-linejoin="round" stroke-linecap="round" stroke="rgb(0,0,255)" stroke-width="1.874998" fill="none" d="M 0.000000 750.000000 L 354.545441 0.000000 " />
<path stroke-linejoin="round" stroke-linecap="round" stroke="rgb(255,0,0)" stroke-width="3.749996" fill="none" d="M 162.760910 405.698059 L 163.708160 409.487091 " />
<path stroke-linejoin="round" stroke-linecap="round" stroke="rgb(0,0,255)" stroke-width="1.874998" fill="none" d="M 0.000000 750.000000 L 335.106354 0.000000 " />
<path stroke-linejoin="round" stroke-linecap="round" stroke="rgb(255,0,0)" stroke-width="3.749996" fill="none" d="M 158.048294 396.272827 L 162.760910 405.698059 " />
<path stroke-linejoin="round" stroke-linecap="round" stroke="rgb(0,0,255)" stroke-width="1.874998" fill="none" d="M 0.000000 750.000000 L 289.473694 0.000000 " />
<path stroke-linejoin="round" stroke-linecap="round" stroke="rgb(255,0,0)" stroke-width="3.749996" fill="none" d="M 149.587936 362.431274 L 158.048294 396.272827 " />
<path stroke-linejoin="round" stroke-linecap="round" stroke="rgb(0,0,255)" stroke-width="1.874998" fill="none" d="M 0.000000 750.000000 L 279.661011 0.000000 " />
<path stroke-linejoin="round" stroke-linecap="round" stroke="rgb(255,0,0)" stroke-width="3.749996" fill="none" d="M 147.552719 354.290405 L 149.587936 362.431274 " />
<path stroke-linejoin="round" stroke-linecap="round" stroke="rgb(0,0,255)" stroke-width="1.874998" fill="none" d="M 0.000000 750.000000 L 278.225800 0.000000 " />
<path stroke-linejoin="round" stroke-linecap="round" stroke="rgb(255,0,0)" stroke-width="3.749996" fill="none" d="M 147.247849 353.070984 L 147.552719 354.290405 " />
<path stroke-linejoin="round" stroke-linecap="round" stroke="rgb(0,0,255)" stroke-width="1.874998" fill="none" d="M 0.000000 750.000000 L 246.093750 0.000000 " />
<path stroke-linejoin="round" stroke-linecap="round" stroke="rgb(255,0,0)" stroke-width="3.749996" fill="none" d="M 139.894119 323.656006 L 147.247849 353.070984 " />
<path stroke-linejoin="round" stroke-linecap="round" stroke="rgb(0,0,255)" stroke-width="1.874998" fill="none" d="M 0.000000 750.000000 L 235.074631 0.000000 " />
<path stroke-linejoin="round" stroke-linecap="round" stroke="rgb(255,0,0)" stroke-width="3.749996" fill="none" d="M 137.114746 312.538666 L 139.894119 323.656006 " />
<path stroke-linejoin="round" stroke-linecap="round" stroke="rgb(0,0,255)" stroke-width="1.874998" fill="none" d="M 0.000000 750.000000 L 225.000015 0.000000 " />
<path stroke-linejoin="round" stroke-linecap="round" stroke="rgb(255,0,0)" stroke-width="3.749996" fill="none" d="M 134.443695 301.854401 L 137.114731 312.538696 " />
<path stroke-linejoin="round" stroke-linecap="round" stroke="rgb(0,0,255)" stroke-width="1.874998" fill="none" d="M 0.000000 750.000000 L 208.333344 0.000000 " />
<path stroke-linejoin="round" stroke-linecap="round" stroke="rgb(255,0,0)" stroke-width="3.749996" fill="none" d="M 129.726364 282.985138 L 134.443695 301.854401 " />
<path stroke-linejoin="round" stroke-linecap="round" stroke="rgb(0,0,255)" stroke-width="1.874998" fill="none" d="M 0.000000 750.000000 L 203.571442 0.000000 " />
<path stroke-linejoin="round" stroke-linecap="round" stroke="rgb(255,0,0)" stroke-width="3.749996" fill="none" d="M 128.304703 277.298523 L 129.726364 282.985138 " />
<path stroke-linejoin="round" stroke-linecap="round" stroke="rgb(0,0,255)" stroke-width="1.874998" fill="none" d="M 0.000000 750.000000 L 197.916672 0.000000 " />
<path stroke-linejoin="round" stroke-linecap="round" stroke="rgb(255,0,0)" stroke-width="3.749996" fill="none" d="M 126.570854 270.363098 L 128.304703 277.298523 " />
<path stroke-linejoin="round" stroke-linecap="round" stroke="rgb(0,0,255)" stroke-width="1.874998" fill="none" d="M 0.000000 750.000000 L 192.567566 0.000000 " />
<path stroke-linejoin="round" stroke-linecap="round" stroke="rgb(255,0,0)" stroke-width="3.749996" fill="none" d="M 124.883247 263.612640 L 126.570854 270.363098 " />
<path stroke-linejoin="round" stroke-linecap="round" stroke="rgb(0,0,255)" stroke-width="1.874998" fill="none" d="M 0.000000 750.000000 L 189.873413 0.000000 " />
<path stroke-linejoin="round" stroke-linecap="round" stroke="rgb(255,0,0)" stroke-width="3.749996" fill="none" d="M 124.015129 260.140198 L 124.883247 263.612640 " />
<path stroke-linejoin="round" stroke-linecap="round" stroke="rgb(0,0,255)" stroke-width="1.874998" fill="none" d="M 0.000000 750.000000 L 187.500000 0.000000 " />
<path stroke-linejoin="round" stroke-linecap="round" stroke="rgb(255,0,0)" stroke-width="3.749996" fill="none" d="M 123.240036 257.039886 L 124.015129 260.140198 " />
<path stroke-linejoin="round" stroke-linecap="round" stroke="rgb(0,0,255)" stroke-width="1.874998" fill="none" d="M 0.000000 750.000000 L 175.925934 0.000000 " />
<path stroke-linejoin="round" stroke-linecap="round" stroke="rgb(255,0,0)" stroke-width="3.749996" fill="none" d="M 119.315186 241.340515 L 123.240036 257.039886 " />
<path stroke-linejoin="round" stroke-linecap="round" stroke="rgb(0,0,255)" stroke-width="1.874998" fill="none" d="M 0.000000 750.000000 L 171.686752 0.000000 " />
<path stroke-linejoin="round" stroke-linecap="round" stroke="rgb(255,0,0)" stroke-width="3.749996" fill="none" d="M 117.814354 235.337250 L 119.315186 241.340515 " />
<path stroke-linejoin="round" stroke-linecap="round" stroke="rgb(0,0,255)" stroke-width="1.874998" fill="none" d="M 0.000000 750.000000 L 161.392410 0.000000 " />
<path stroke-linejoin="round" stroke-linecap="round" stroke="rgb(255,0,0)" stroke-width="3.749996" fill="none" d="M 114.017975 220.151733 L 117.814354 235.337326 " />
<path stroke-linejoin="round" stroke-linecap="round" stroke="rgb(0,0,255)" stroke-width="1.874998" fill="none" d="M 0.000000 750.000000 L 157.407410 0.000000 " />
<path stroke-linejoin="round" stroke-linecap="round" stroke="rgb(255,0,0)" stroke-width="3.749996" fill="none" d="M 112.487534 214.029953 L 114.017975 220.151733 " />
<path stroke-linejoin="round" stroke-linecap="round" stroke="rgb(0,0,255)" stroke-width="1.874998" fill="none" d="M 0.000000 750.000000 L 148.255814 0.000000 " />
<path stroke-linejoin="round" stroke-linecap="round" stroke="rgb(255,0,0)" stroke-width="3.749996" fill="none" d="M 108.835350 199.421173 L 112.487534 214.029953 " />
<path stroke-linejoin="round" stroke-linecap="round" stroke="rgb(0,0,255)" stroke-width="1.874998" fill="none" d="M 0.000000 750.000000 L 144.886353 0.000000 " />
<path stroke-linejoin="round" stroke-linecap="round" stroke="rgb(255,0,0)" stroke-width="3.749996" fill="none" d="M 107.440018 193.839890 L 108.835350 199.421173 " />
<path stroke-linejoin="round" stroke-linecap="round" stroke="rgb(0,0,255)" stroke-width="1.874998" fill="none" d="M 0.000000 750.000000 L 140.000000 0.000000 " />
<path stroke-linejoin="round" stroke-linecap="round" stroke="rgb(255,0,0)" stroke-width="3.749996" fill="none" d="M 104.801575 188.563049 L 107.440018 193.839890 " />
<path stroke-linejoin="round" stroke-linecap="round" stroke="rgb(0,0,255)" stroke-width="1.874998" fill="none" d="M 0.000000 750.000000 L 128.289474 0.000000 " />
<path stroke-linejoin="round" stroke-linecap="round" stroke="rgb(255,0,0)" stroke-width="3.749996" fill="none" d="M 98.269814 175.499512 L 104.801575 188.563049 " />
<path stroke-linejoin="round" stroke-linecap="round" stroke="rgb(0,0,255)" stroke-width="1.874998" fill="none" d="M 0.000000 750.000000 L 125.000015 0.000000 " />
<path stroke-linejoin="round" stroke-linecap="round" stroke="rgb(255,0,0)" stroke-width="3.749996" fill="none" d="M 96.380020 171.719910 L 98.269814 175.499512 " />
<path stroke-linejoin="round" stroke-linecap="round" stroke="rgb(0,0,255)" stroke-width="1.874998" fill="none" d="M 0.000000 750.000000 L 123.529404 0.000000 " />
<path stroke-linejoin="round" stroke-linecap="round" stroke="rgb(255,0,0)" stroke-width="3.749996" fill="none" d="M 95.527100 170.014038 L 96.380020 171.719910 " />
<path stroke-linejoin="round" stroke-linecap="round" stroke="rgb(0,0,255)" stroke-width="1.874998" fill="none" d="M 0.000000 750.000000 L 119.680840 0.000000 " />
<path stroke-linejoin="round" stroke-linecap="round" stroke="rgb(255,0,0)" stroke-width="3.749996" fill="none" d="M 93.710480 162.747574 L 95.527100 170.013962 " />
<path stroke-linejoin="round" stroke-linecap="round" stroke="rgb(0,0,255)" stroke-width="1.874998" fill="none" d="M 0.000000 750.000000 L 108.333328 0.000000 " />
<path stroke-linejoin="round" stroke-linecap="round" stroke="rgb(255,0,0)" stroke-width="3.749996" fill="none" d="M 88.079071 140.221848 L 93.710480 162.747574 " />
<path stroke-linejoin="round" stroke-linecap="round" stroke="rgb(0,0,255)" stroke-width="1.874998" fill="none" d="M 0.000000 750.000000 L 107.142853 0.000000 " />
<path stroke-linejoin="round" stroke-linecap="round" stroke="rgb(255,0,0)" stroke-width="3.749996" fill="none" d="M 87.326263 138.716232 L 88.079071 140.221771 " />
<path stroke-linejoin="round" stroke-linecap="round" stroke="rgb(0,0,255)" stroke-width="1.874998" fill="none" d="M 0.000000 750.000000 L 105.978279 0.000000 " />
<path stroke-linejoin="round" stroke-linecap="round" stroke="rgb(255,0,0)" stroke-width="3.749996" fill="none" d="M 86.719818 136.290558 L 87.326263 138.716232 " />
<path stroke-linejoin="round" stroke-linecap="round" stroke="rgb(0,0,255)" stroke-width="1.874998" fill="none" d="M 0.000000 750.000000 L 104.651169 0.000000 " />
<path stroke-linejoin="round" stroke-linecap="round" stroke="rgb(255,0,0)" stroke-width="3.749996" fill="none" d="M 85.870811 134.592529 L 86.719795 136.290619 " />
<path stroke-linejoin="round" stroke-linecap="round" stroke="rgb(0,0,255)" stroke-width="1.874998" fill="none" d="M 0.000000 750.000000 L 98.901093 0.000000 " />
<path stroke-linejoin="round" stroke-linecap="round" stroke="rgb(255,0,0)" stroke-width="3.749996" fill="none" d="M 82.137283 127.125557 L 85.870811 134.592529 " />
<path stroke-linejoin="round" stroke-linecap="round" stroke="rgb(0,0,255)" stroke-width="1.874998" fill="none" d="M 0.000000 750.000000 L 96.534645 0.000000 " />
<path stroke-linejoin="round" stroke-linecap="round" stroke="rgb(255,0,0)" stroke-width="3.749996" fill="none" d="M 80.839928 121.936012 L 82.137283 127.125557 " />
<path stroke-linejoin="round" stroke-linecap="round" stroke="rgb(0,0,255)" stroke-width="1.874998" fill="none" d="M 0.000000 750.000000 L 89.108910 0.000000 " />
<path stroke-linejoin="round" stroke-linecap="round" stroke="rgb(255,0,0)" stroke-width="3.749996" fill="none" d="M 76.624718 105.075249 L 80.839928 121.936012 " />
<path stroke-linejoin="round" stroke-linecap="round" stroke="rgb(0,0,255)" stroke-width="1.874998" fill="none" d="M 0.000000 750.000000 L 73.529404 0.000000 " />
<path stroke-linejoin="round" stroke-linecap="round" stroke="rgb(255,0,0)" stroke-width="3.749996" fill="none" d="M 66.433846 72.374825 L 76.624718 105.075249 " />
<path stroke-linejoin="round" stroke-linecap="round" stroke="rgb(0,0,255)" stroke-width="1.874998" fill="none" d="M 0.000000 750.000000 L 72.115395 0.000000 " />
<path stroke-linejoin="round" stroke-linecap="round" stroke="rgb(255,0,0)" stroke-width="3.749996" fill="none" d="M 65.511147 68.684044 L 66.433846 72.374825 " />
<path stroke-linejoin="round" stroke-linecap="round" stroke="rgb(0,0,255)" stroke-width="1.874998" fill="none" d="M 0.000000 750.000000 L 70.754707 0.000000 " />
<path stroke-linejoin="round" stroke-linecap="round" stroke="rgb(255,0,0)" stroke-width="3.749996" fill="none" d="M 64.599998 65.239906 L 65.511147 68.684044 " />
<path stroke-linejoin="round" stroke-linecap="round" stroke="rgb(0,0,255)" stroke-width="1.874998" fill="none" d="M 0.000000 750.000000 L 69.444450 0.000000 " />
<path stroke-linejoin="round" stroke-linecap="round" stroke="rgb(255,0,0)" stroke-width="3.749996" fill="none" d="M 63.546268 63.700207 L 64.599998 65.239906 " />
<path stroke-linejoin="round" stroke-linecap="round" stroke="rgb(0,0,255)" stroke-width="1.874998" fill="none" d="M 0.000000 750.000000 L 65.533966 0.000000 " />
<path stroke-linejoin="round" stroke-linecap="round" stroke="rgb(255,0,0)" stroke-width="3.749996" fill="none" d="M 60.258575 60.373955 L 63.546268 63.700207 " />
<path stroke-linejoin="round" stroke-linecap="round" stroke="rgb(0,0,255)" stroke-width="1.874998" fill="none" d="M 0.000000 750.000000 L 57.692303 0.000000 " />
<path stroke-linejoin="round" stroke-linecap="round" stroke="rgb(255,0,0)" stroke-width="3.749996" fill="none" d="M 53.565235 53.651802 L 60.258575 60.373955 " />
<path stroke-linejoin="round" stroke-linecap="round" stroke="rgb(0,0,255)" stroke-width="1.874998" fill="none" d="M 0.000000 750.000000 L 51.470585 0.000000 " />
<path stroke-linejoin="round" stroke-linecap="round" stroke="rgb(255,0,0)" stroke-width="3.749996" fill="none" d="M 48.160961 48.225941 L 53.565235 53.651802 " />
<path stroke-linejoin="round" stroke-linecap="round" stroke="rgb(0,0,255)" stroke-width="1.874998" fill="none" d="M 0.000000 750.000000 L 43.689320 0.000000 " />
<path stroke-linejoin="round" stroke-linecap="round" stroke="rgb(255,0,0)" stroke-width="3.749996" fill="none" d="M 41.281723 41.330517 L 48.160961 48.226006 " />
<path stroke-linejoin="round" stroke-linecap="round" stroke="rgb(0,0,255)" stroke-width="1.874998" fill="none" d="M 0.000000 750.000000 L 42.857140 0.000000 " />
<path stroke-linejoin="round" stroke-linecap="round" stroke="rgb(255,0,0)" stroke-width="3.749996" fill="none" d="M 40.538570 40.575138 L 41.281723 41.330517 " />
<path stroke-linejoin="round" stroke-linecap="round" stroke="rgb(0,0,255)" stroke-width="1.874998" fill="none" d="M 0.000000 750.000000 L 39.130436 0.000000 " />
<path stroke-linejoin="round" stroke-linecap="round" stroke="rgb(255,0,0)" stroke-width="3.749996" fill="none" d="M 37.189632 37.198730 L 40.538570 40.575138 " />
<path stroke-linejoin="round" stroke-linecap="round" stroke="rgb(0,0,255)" stroke-width="1.874998" fill="none" d="M 0.000000 750.000000 L 38.793102 0.000000 " />
<path stroke-linejoin="round" stroke-linecap="round" stroke="rgb(255,0,0)" stroke-width="3.749996" fill="none" d="M 36.885136 36.887459 L 37.189632 37.198730 " />
<path stroke-linejoin="round" stroke-linecap="round" stroke="rgb(0,0,255)" stroke-width="1.874998" fill="none" d="M 0.000000 750.000000 L 38.461536 0.000000 " />
<path stroke-linejoin="round" stroke-linecap="round" stroke="rgb(255,0,0)" stroke-width="3.749996" fill="none" d="M 36.585331 36.585979 L 36.885136 36.887527 " />
<path stroke-linejoin="round" stroke-linecap="round" stroke="rgb(0,0,255)" stroke-width="1.874998" fill="none" d="M 0.000000 750.000000 L 37.815125 0.000000 " />
<path stroke-linejoin="round" stroke-linecap="round" stroke="rgb(255,0,0)" stroke-width="3.749996" fill="none" d="M 35.999985 36.000141 L 36.585331 36.585979 " />
<path stroke-linejoin="round" stroke-linecap="round" stroke="rgb(0,0,255)" stroke-width="1.874998" fill="none" d="M 0.000000 750.000000 L 34.403667 0.000000 " />
<path stroke-linejoin="round" stroke-linecap="round" stroke="rgb(255,0,0)" stroke-width="3.749996" fill="none" d="M 32.894745 32.894791 L 35.999985 36.000072 " />
<path stroke-linejoin="round" stroke-linecap="round" stroke="rgb(0,0,255)" stroke-width="1.874998" fill="none" d="M 0.000000 750.000000 L 27.272724 0.000000 " />
<path stroke-linejoin="round" stroke-linecap="round" stroke="rgb(255,0,0)" stroke-width="3.749996" fill="none" d="M 26.315779 26.315868 L 32.894745 32.894791 " />
<path stroke-linejoin="round" stroke-linecap="round" stroke="rgb(0,0,255)" stroke-width="1.874998" fill="none" d="M 0.000000 750.000000 L 26.785725 0.000000 " />
<path stroke-linejoin="round" stroke-linecap="round" stroke="rgb(255,0,0)" stroke-width="3.749996" fill="none" d="M 25.862061 25.862150 L 26.315779 26.315868 " />
<path stroke-linejoin="round" stroke-linecap="round" stroke="rgb(0,0,255)" stroke-width="1.874998" fill="none" d="M 0.000000 750.000000 L 25.862061 0.000000 " />
<path stroke-linejoin="round" stroke-linecap="round" stroke="rgb(255,0,0)" stroke-width="3.749996" fill="none" d="M 24.999998 25.000044 L 25.862061 25.862150 " />
<path stroke-linejoin="round" stroke-linecap="round" stroke="rgb(0,0,255)" stroke-width="1.874998" fill="none" d="M 0.000000 750.000000 L 25.641024 0.000000 " />
<path stroke-linejoin="round" stroke-linecap="round" stroke="rgb(255,0,0)" stroke-width="3.749996" fill="none" d="M 24.793379 24.793446 L 24.999998 25.000044 " />
<path stroke-linejoin="round" stroke-linecap="round" stroke="rgb(0,0,255)" stroke-width="1.874998" fill="none" d="M 0.000000 750.000000 L 25.423721 0.000000 " />
<path stroke-linejoin="round" stroke-linecap="round" stroke="rgb(255,0,0)" stroke-width="3.749996" fill="none" d="M 24.590157 24.590246 L 24.793379 24.793512 " />
<path stroke-linejoin="round" stroke-linecap="round" stroke="rgb(0,0,255)" stroke-width="1.874998" fill="none" d="M 0.000000 750.000000 L 25.210083 0.000000 " />
<path stroke-linejoin="round" stroke-linecap="round" stroke="rgb(255,0,0)" stroke-width="3.749996" fill="none" d="M 24.390244 24.390333 L 24.590157 24.590246 " />
<path stroke-linejoin="round" stroke-linecap="round" stroke="rgb(0,0,255)" stroke-width="1.874998" fill="none" d="M 0.000000 750.000000 L 24.999998 0.000000 " />
<path stroke-linejoin="round" stroke-linecap="round" stroke="rgb(255,0,0)" stroke-width="3.749996" fill="none" d="M 24.193548 24.193592 L 24.390244 24.390333 " />
<path stroke-linejoin="round" stroke-linecap="round" stroke="rgb(0,0,255)" stroke-width="1.874998" fill="none" d="M 0.000000 750.000000 L 24.793379 0.000000 " />
<path stroke-linejoin="round" stroke-linecap="round" stroke="rgb(255,0,0)" stroke-width="3.749996" fill="none" d="M 24.000004 24.000050 L 24.193548 24.193525 " />
<path stroke-linejoin="round" stroke-linecap="round" stroke="rgb(0,0,255)" stroke-width="1.874998" fill="none" d="M 0.000000 750.000000 L 18.442623 0.000000 " />
<path stroke-linejoin="round" stroke-linecap="round" stroke="rgb(255,0,0)" stroke-width="3.749996" fill="none" d="M 17.999992 18.000013 L 24.000004 24.000116 " />
<path stroke-linejoin="round" stroke-linecap="round" stroke="rgb(0,0,255)" stroke-width="1.874998" fill="none" d="M 0.000000 750.000000 L 11.363626 0.000000 " />
<path stroke-linejoin="round" stroke-linecap="round" stroke="rgb(255,0,0)" stroke-width="3.749996" fill="none" d="M 11.194020 11.194110 L 17.999992 18.000013 " />
<circle cx="248.868752" cy="744.343892" r="3.749996" style="fill:rgb(0,127,0);stroke-width:1" /><circle cx="245.976403" cy="738.559239" r="3.749996" style="fill:rgb(0,127,0);stroke-width:1" /><circle cx="232.247505" cy="683.643557" r="3.749996" style="fill:rgb(0,127,0);stroke-width:1" /><circle cx="230.501253" cy="676.658705" r="3.749996" style="fill:rgb(0,127,0);stroke-width:1" /><circle cx="228.876416" cy="670.159400" r="3.749996" style="fill:rgb(0,127,0);stroke-width:1" /><circle cx="226.454437" cy="660.471506" r="3.749996" style="fill:rgb(0,127,0);stroke-width:1" /><circle cx="221.820027" cy="641.933843" r="3.749996" style="fill:rgb(0,127,0);stroke-width:1" /><circle cx="219.902068" cy="634.262055" r="3.749996" style="fill:rgb(0,127,0);stroke-width:1" /><circle cx="215.858202" cy="618.086658" r="3.749996" style="fill:rgb(0,127,0);stroke-width:1" /><circle cx="213.288467" cy="607.807674" r="3.749996" style="fill:rgb(0,127,0);stroke-width:1" /><circle cx="212.877497" cy="606.163837" r="3.749996" style="fill:rgb(0,127,0);stroke-width:1" /><circle cx="208.605487" cy="589.075774" r="3.749996" style="fill:rgb(0,127,0);stroke-width:1" /><circle cx="201.671440" cy="561.339632" r="3.749996" style="fill:rgb(0,127,0);stroke-width:1" /><circle cx="190.888278" cy="518.207073" r="3.750002" style="fill:rgb(0,127,0);stroke-width:1" /><circle cx="185.797915" cy="497.845709" r="3.749996" style="fill:rgb(0,127,0);stroke-width:1" /><circle cx="182.818629" cy="485.928655" r="3.749996" style="fill:rgb(0,127,0);stroke-width:1" /><circle cx="179.715224" cy="473.515034" r="3.749996" style="fill:rgb(0,127,0);stroke-width:1" /><circle cx="177.253380" cy="463.667633" r="3.749996" style="fill:rgb(0,127,0);stroke-width:1" /><circle cx="174.858056" cy="454.086363" r="3.749996" style="fill:rgb(0,127,0);stroke-width:1" /><circle cx="165.890984" cy="418.218045" r="3.749996" style="fill:rgb(0,127,0);stroke-width:1" /><circle cx="164.834328" cy="413.991599" r="3.749996" style="fill:rgb(0,127,0);stroke-width:1" /><circle cx="163.708158" cy="409.487039" r="3.749996" style="fill:rgb(0,127,0);stroke-width:1" /><circle cx="162.760913" cy="405.698061" r="3.749996" style="fill:rgb(0,127,0);stroke-width:1" /><circle cx="158.048294" cy="396.272839" r="3.749996" style="fill:rgb(0,127,0);stroke-width:1" /><circle cx="149.587937" cy="362.431287" r="3.749996" style="fill:rgb(0,127,0);stroke-width:1" /><circle cx="147.552721" cy="354.290425" r="3.749996" style="fill:rgb(0,127,0);stroke-width:1" /><circle cx="147.247843" cy="353.071004" r="3.749996" style="fill:rgb(0,127,0);stroke-width:1" /><circle cx="139.894120" cy="323.656021" r="3.749996" style="fill:rgb(0,127,0);stroke-width:1" /><circle cx="137.114748" cy="312.538655" r="3.749996" style="fill:rgb(0,127,0);stroke-width:1" /><circle cx="134.443693" cy="301.854400" r="3.749996" style="fill:rgb(0,127,0);stroke-width:1" /><circle cx="129.726358" cy="282.985149" r="3.749996" style="fill:rgb(0,127,0);stroke-width:1" /><circle cx="128.304698" cy="277.298514" r="3.749996" style="fill:rgb(0,127,0);stroke-width:1" /><circle cx="126.570851" cy="270.363092" r="3.749996" style="fill:rgb(0,127,0);stroke-width:1" /><circle cx="124.883249" cy="263.612654" r="3.749996" style="fill:rgb(0,127,0);stroke-width:1" /><circle cx="124.015130" cy="260.140210" r="3.749996" style="fill:rgb(0,127,0);stroke-width:1" /><circle cx="123.240039" cy="257.039879" r="3.749996" style="fill:rgb(0,127,0);stroke-width:1" /><circle cx="119.315185" cy="241.340518" r="3.749996" style="fill:rgb(0,127,0);stroke-width:1" /><circle cx="117.814355" cy="235.337254" r="3.749996" style="fill:rgb(0,127,0);stroke-width:1" /><circle cx="114.017978" cy="220.151726" r="3.749996" style="fill:rgb(0,127,0);stroke-width:1" /><circle cx="112.487532" cy="214.029964" r="3.749996" style="fill:rgb(0,127,0);stroke-width:1" /><circle cx="108.835347" cy="199.421167" r="3.749996" style="fill:rgb(0,127,0);stroke-width:1" /><circle cx="107.440017" cy="193.839904" r="3.749996" style="fill:rgb(0,127,0);stroke-width:1" /><circle cx="104.801573" cy="188.563049" r="3.749996" style="fill:rgb(0,127,0);stroke-width:1" /><circle cx="98.269813" cy="175.499506" r="3.749996" style="fill:rgb(0,127,0);stroke-width:1" /><circle cx="96.380018" cy="171.719916" r="3.749996" style="fill:rgb(0,127,0);stroke-width:1" /><circle cx="95.527098" cy="170.014031" r="3.749996" style="fill:rgb(0,127,0);stroke-width:1" /><circle cx="93.710482" cy="162.747569" r="3.749996" style="fill:rgb(0,127,0);stroke-width:1" /><circle cx="88.079073" cy="140.221842" r="3.749996" style="fill:rgb(0,127,0);stroke-width:1" /><circle cx="87.326266" cy="138.716228" r="3.749996" style="fill:rgb(0,127,0);stroke-width:1" /><circle cx="86.719818" cy="136.290550" r="3.749996" style="fill:rgb(0,127,0);stroke-width:1" /><circle cx="85.870810" cy="134.592533" r="3.749996" style="fill:rgb(0,127,0);stroke-width:1" /><circle cx="82.137287" cy="127.125554" r="3.749996" style="fill:rgb(0,127,0);stroke-width:1" /><circle cx="80.839925" cy="121.936016" r="3.749996" style="fill:rgb(0,127,0);stroke-width:1" /><circle cx="76.624721" cy="105.075248" r="3.749996" style="fill:rgb(0,127,0);stroke-width:1" /><circle cx="66.433847" cy="72.374828" r="3.749996" style="fill:rgb(0,127,0);stroke-width:1" /><circle cx="65.511145" cy="68.684042" r="3.749996" style="fill:rgb(0,127,0);stroke-width:1" /><circle cx="64.599998" cy="65.239906" r="3.749996" style="fill:rgb(0,127,0);stroke-width:1" /><circle cx="63.546270" cy="63.700207" r="3.749996" style="fill:rgb(0,127,0);stroke-width:1" /><circle cx="60.258575" cy="60.373954" r="3.749996" style="fill:rgb(0,127,0);stroke-width:1" /><circle cx="53.565234" cy="53.651802" r="3.749996" style="fill:rgb(0,127,0);stroke-width:1" /><circle cx="48.160963" cy="48.225939" r="3.749996" style="fill:rgb(0,127,0);stroke-width:1" /><circle cx="41.281722" cy="41.330516" r="3.749996" style="fill:rgb(0,127,0);stroke-width:1" /><circle cx="40.538572" cy="40.575139" r="3.749996" style="fill:rgb(0,127,0);stroke-width:1" /><circle cx="37.189633" cy="37.198730" r="3.749996" style="fill:rgb(0,127,0);stroke-width:1" /><circle cx="36.885135" cy="36.887459" r="3.749996" style="fill:rgb(0,127,0);stroke-width:1" /><circle cx="36.585331" cy="36.585979" r="3.749996" style="fill:rgb(0,127,0);stroke-width:1" /><circle cx="35.999984" cy="36.000140" r="3.749996" style="fill:rgb(0,127,0);stroke-width:1" /><circle cx="32.894745" cy="32.894790" r="3.749996" style="fill:rgb(0,127,0);stroke-width:1" /><circle cx="26.315778" cy="26.315868" r="3.749996" style="fill:rgb(0,127,0);stroke-width:1" /><circle cx="25.862060" cy="25.862150" r="3.749996" style="fill:rgb(0,127,0);stroke-width:1" /><circle cx="24.999999" cy="25.000043" r="3.749996" style="fill:rgb(0,127,0);stroke-width:1" /><circle cx="24.793379" cy="24.793446" r="3.749996" style="fill:rgb(0,127,0);stroke-width:1" /><circle cx="24.590157" cy="24.590246" r="3.749996" style="fill:rgb(0,127,0);stroke-width:1" /><circle cx="24.390243" cy="24.390332" r="3.749996" style="fill:rgb(0,127,0);stroke-width:1" /><circle cx="24.193548" cy="24.193592" r="3.749996" style="fill:rgb(0,127,0);stroke-width:1" /><circle cx="24.000004" cy="24.000049" r="3.749996" style="fill:rgb(0,127,0);stroke-width:1" /><circle cx="17.999992" cy="18.000014" r="3.749996" style="fill:rgb(0,127,0);stroke-width:1" /><circle cx="11.194021" cy="11.194110" r="3.749996" style="fill:rgb(0,127,0);stroke-width:1" /><path stroke-linejoin="round" stroke-linecap="round" stroke="rgb(255,255,255)" stroke-width="3.749996" fill="none" d="M 0.000000 750.000000 L 750.000000 750.000000 M 0.000000 750.000000 L 0.000000 0.000000 " />

</svg>