<svg xmlns="http://www.w3.org/2000/svg" version="1.1" width = "750" height = "750" viewBox = "0 0 750 750"  shape-rendering="crispEdges">
<path stroke-linejoin="round" stroke-linecap="round" stroke="rgb(255,255,0)" stroke-width="3.749996" fill="none" d="M 149.999985 750.000000 L 0.000000 0.000000 " />
<path stroke-linejoin="round" stroke-linecap="round" stroke="rgb(63,63,63)" stroke-width="3.749996" fill="none" d="M 0.000000 0.000000 L 750.000000 750.000000 M 149.999985 750.000000 L 66.666664 0.000000 " />
<path stroke-linejoin="round" stroke-linecap="round" stroke="rgb(191,191,191)" stroke-width="3.749996" fill="none" d="M 0.000000 600.000000 L 149.999985 750.000000 M 0.000000 0.000000 L 83.333328 750.000000 " />
<path stroke-linejoin="round" stroke-linecap="round" stroke="rgb(0,0,255)" stroke-width="1.874998" fill="none" d="M 0.000000 750.000000 L 750.000000 731.707336 " />
<path stroke-linejoin="round" stroke-linecap="round" stroke="rgb(255,0,0)" stroke-width="3.749996" fill="none" d="M 149.594604 746.351318 L 149.999985 750.000000 " />
<path stroke-linejoin="round" stroke-linecap="round" stroke="rgb(0,0,255)" stroke-width="1.874998" fill="none" d="M 0.000000 750.000000 L 750.000000 712.500000 " />
<path stroke-linejoin="round" stroke-linecap="round" stroke="rgb(255,0,0)" stroke-width="3.749996" fill="none" d="M 148.338501 742.583069 L 149.594604 746.351318 " />
<path stroke-linejoin="round" stroke-linecap="round" stroke="rgb(0,0,255)" stroke-width="1.874998" fill="none" d="M 0.000000 750.000000 L 750.000000 530.487854 " />
<path stroke-linejoin="round" stroke-linecap="round" stroke="rgb(255,0,0)" stroke-width="3.749996" fill="none" d="M 143.402161 708.028625 L 148.338501 742.583069 " />
<path stroke-linejoin="round" stroke-linecap="round" stroke="rgb(0,0,255)" stroke-width="1.874998" fill="none" d="M 0.000000 750.000000 L 750.000000 493.902405 " />
<path stroke-linejoin="round" stroke-linecap="round" stroke="rgb(255,0,0)" stroke-width="3.749996" fill="none" d="M 142.449326 701.358765 L 143.402161 708.028625 " />
<path stroke-linejoin="round" stroke-linecap="round" stroke="rgb(0,0,255)" stroke-width="1.874998" fill="none" d="M 0.000000 750.000000 L 750.000000 453.947327 " />
<path stroke-linejoin="round" stroke-linecap="round" stroke="rgb(255,0,0)" stroke-width="3.749996" fill="none" d="M 141.423096 694.175110 L 142.449326 701.358765 " />
<path stroke-linejoin="round" stroke-linecap="round" stroke="rgb(0,0,255)" stroke-width="1.874998" fill="none" d="M 0.000000 750.000000 L 750.000000 243.243225 " />
<path stroke-linejoin="round" stroke-linecap="round" stroke="rgb(255,0,0)" stroke-width="3.749996" fill="none" d="M 136.246826 657.941284 L 141.423096 694.175110 " />
<path stroke-linejoin="round" stroke-linecap="round" stroke="rgb(0,0,255)" stroke-width="1.874998" fill="none" d="M 0.000000 750.000000 L 750.000000 236.842102 " />
<path stroke-linejoin="round" stroke-linecap="round" stroke="rgb(255,0,0)" stroke-width="3.749996" fill="none" d="M 136.095505 656.882019 L 136.246826 657.941284 " />
<path stroke-linejoin="round" stroke-linecap="round" stroke="rgb(0,0,255)" stroke-width="1.874998" fill="none" d="M 0.000000 750.000000 L 750.000000 166.666656 " />
<path stroke-linejoin="round" stroke-linecap="round" stroke="rgb(255,0,0)" stroke-width="3.749996" fill="none" d="M 134.458267 645.421326 L 136.095505 656.882019 " />
<path stroke-linejoin="round" stroke-linecap="round" stroke="rgb(0,0,255)" stroke-width="1.874998" fill="none" d="M 0.000000 750.000000 L 750.000000 125.000015 " />
<path stroke-linejoin="round" stroke-linecap="round" stroke="rgb(255,0,0)" stroke-width="3.749996" fill="none" d="M 133.504654 638.746155 L 134.458267 645.421326 " />
<path stroke-linejoin="round" stroke-linecap="round" stroke="rgb(0,0,255)" stroke-width="1.874998" fill="none" d="M 0.000000 750.000000 L 750.000000 85.714279 " />
<path stroke-linejoin="round" stroke-linecap="round" stroke="rgb(255,0,0)" stroke-width="3.749996" fill="none" d="M 132.617844 632.538452 L 133.504654 638.746155 " />
<path stroke-linejoin="round" stroke-linecap="round" stroke="rgb(0,0,255)" stroke-width="1.874998" fill="none" d="M 0.000000 750.000000 L 750.000000 0.000000 " />
<path stroke-linejoin="round" stroke-linecap="round" stroke="rgb(255,0,0)" stroke-width="3.749996" fill="none" d="M 130.723297 619.276733 L 132.617828 632.538452 " />
<path stroke-linejoin="round" stroke-linecap="round" stroke="rgb(0,0,255)" stroke-width="1.874998" fill="none" d="M 0.000000 750.000000 L 705.882385 0.000000 " />
<path stroke-linejoin="round" stroke-linecap="round" stroke="rgb(255,0,0)" stroke-width="3.749996" fill="none" d="M 129.709930 612.183167 L 130.723297 619.276733 " />
<path stroke-linejoin="round" stroke-linecap="round" stroke="rgb(0,0,255)" stroke-width="1.874998" fill="none" d="M 0.000000 750.000000 L 528.409119 0.000000 " />
<path stroke-linejoin="round" stroke-linecap="round" stroke="rgb(255,0,0)" stroke-width="3.749996" fill="none" d="M 124.212181 573.698853 L 129.709930 612.183167 " />
<path stroke-linejoin="round" stroke-linecap="round" stroke="rgb(0,0,255)" stroke-width="1.874998" fill="none" d="M 0.000000 750.000000 L 472.826050 0.000000 " />
<path stroke-linejoin="round" stroke-linecap="round" stroke="rgb(255,0,0)" stroke-width="3.749996" fill="none" d="M 121.798439 556.802490 L 124.212181 573.698853 " />
<path stroke-linejoin="round" stroke-linecap="round" stroke="rgb(0,0,255)" stroke-width="1.874998" fill="none" d="M 0.000000 750.000000 L 453.124969 0.000000 " />
<path stroke-linejoin="round" stroke-linecap="round" stroke="rgb(255,0,0)" stroke-width="3.749996" fill="none" d="M 120.827927 550.008972 L 121.798439 556.802429 " />
<path stroke-linejoin="round" stroke-linecap="round" stroke="rgb(0,0,255)" stroke-width="1.874998" fill="none" d="M 0.000000 750.000000 L 405.000031 0.000000 " />
<path stroke-linejoin="round" stroke-linecap="round" stroke="rgb(255,0,0)" stroke-width="3.749996" fill="none" d="M 118.143257 531.216187 L 120.827927 550.008972 " />
<path stroke-linejoin="round" stroke-linecap="round" stroke="rgb(0,0,255)" stroke-width="1.874998" fill="none" d="M 0.000000 750.000000 L 382.352966 0.000000 " />
<path stroke-linejoin="round" stroke-linecap="round" stroke="rgb(255,0,0)" stroke-width="3.749996" fill="none" d="M 116.697235 521.093872 L 118.143257 531.216187 " />
<path stroke-linejoin="round" stroke-linecap="round" stroke="rgb(0,0,255)" stroke-width="1.874998" fill="none" d="M 0.000000 750.000000 L 307.377045 0.000000 " />
<path stroke-linejoin="round" stroke-linecap="round" stroke="rgb(255,0,0)" stroke-width="3.749996" fill="none" d="M 110.782471 479.690735 L 116.697235 521.093872 " />
<path stroke-linejoin="round" stroke-linecap="round" stroke="rgb(0,0,255)" stroke-width="1.874998" fill="none" d="M 0.000000 750.000000 L 304.687469 0.000000 " />
<path stroke-linejoin="round" stroke-linecap="round" stroke="rgb(255,0,0)" stroke-width="3.749996" fill="none" d="M 110.530304 477.925446 L 110.782471 479.690765 " />
<path stroke-linejoin="round" stroke-linecap="round" stroke="rgb(0,0,255)" stroke-width="1.874998" fill="none" d="M 0.000000 750.000000 L 288.461548 0.000000 " />
<path stroke-linejoin="round" stroke-linecap="round" stroke="rgb(255,0,0)" stroke-width="3.749996" fill="none" d="M 108.936111 466.766113 L 110.530304 477.925385 " />
<path stroke-linejoin="round" stroke-linecap="round" stroke="rgb(0,0,255)" stroke-width="1.874998" fill="none" d="M 0.000000 750.000000 L 281.250000 0.000000 " />
<path stroke-linejoin="round" stroke-linecap="round" stroke="rgb(255,0,0)" stroke-width="3.749996" fill="none" d="M 108.184822 461.507141 L 108.936111 466.766113 " />
<path stroke-linejoin="round" stroke-linecap="round" stroke="rgb(0,0,255)" stroke-width="1.874998" fill="none" d="M 0.000000 750.000000 L 265.384613 0.000000 " />
<path stroke-linejoin="round" stroke-linecap="round" stroke="rgb(255,0,0)" stroke-width="3.749996" fill="none" d="M 106.429604 449.220642 L 108.184822 461.507141 " />
<path stroke-linejoin="round" stroke-linecap="round" stroke="rgb(0,0,255)" stroke-width="1.874998" fill="none" d="M 0.000000 750.000000 L 220.588226 0.000000 " />
<path stroke-linejoin="round" stroke-linecap="round" stroke="rgb(255,0,0)" stroke-width="3.749996" fill="none" d="M 100.556419 408.108154 L 106.429604 449.220642 " />
<path stroke-linejoin="round" stroke-linecap="round" stroke="rgb(0,0,255)" stroke-width="1.874998" fill="none" d="M 0.000000 750.000000 L 206.521729 0.000000 " />
<path stroke-linejoin="round" stroke-linecap="round" stroke="rgb(255,0,0)" stroke-width="3.749996" fill="none" d="M 98.366081 392.775818 L 100.556419 408.108154 " />
<path stroke-linejoin="round" stroke-linecap="round" stroke="rgb(0,0,255)" stroke-width="1.874998" fill="none" d="M 0.000000 750.000000 L 187.500000 0.000000 " />
<path stroke-linejoin="round" stroke-linecap="round" stroke="rgb(255,0,0)" stroke-width="3.749996" fill="none" d="M 95.071526 369.713959 L 98.366081 392.775818 " />
<path stroke-linejoin="round" stroke-linecap="round" stroke="rgb(0,0,255)" stroke-width="1.874998" fill="none" d="M 0.000000 750.000000 L 155.487808 0.000000 " />
<path stroke-linejoin="round" stroke-linecap="round" stroke="rgb(255,0,0)" stroke-width="3.749996" fill="none" d="M 88.449623 323.360626 L 95.071526 369.713959 " />
<path stroke-linejoin="round" stroke-linecap="round" stroke="rgb(0,0,255)" stroke-width="1.874998" fill="none" d="M 0.000000 750.000000 L 148.255814 0.000000 " />
<path stroke-linejoin="round" stroke-linecap="round" stroke="rgb(255,0,0)" stroke-width="3.749996" fill="none" d="M 86.723778 311.279724 L 88.449623 323.360626 " />
<path stroke-linejoin="round" stroke-linecap="round" stroke="rgb(0,0,255)" stroke-width="1.874998" fill="none" d="M 0.000000 750.000000 L 144.578308 0.000000 " />
<path stroke-linejoin="round" stroke-linecap="round" stroke="rgb(255,0,0)" stroke-width="3.749996" fill="none" d="M 85.360809 307.190796 L 86.723778 311.279724 " />
<path stroke-linejoin="round" stroke-linecap="round" stroke="rgb(0,0,255)" stroke-width="1.874998" fill="none" d="M 0.000000 750.000000 L 133.928574 0.000000 " />
<path stroke-linejoin="round" stroke-linecap="round" stroke="rgb(255,0,0)" stroke-width="3.749996" fill="none" d="M 81.266464 294.907806 L 85.360809 307.190796 " />
<path stroke-linejoin="round" stroke-linecap="round" stroke="rgb(0,0,255)" stroke-width="1.874998" fill="none" d="M 0.000000 750.000000 L 111.702118 0.000000 " />
<path stroke-linejoin="round" stroke-linecap="round" stroke="rgb(255,0,0)" stroke-width="3.749996" fill="none" d="M 74.663559 248.687515 L 81.266464 294.907867 " />
<path stroke-linejoin="round" stroke-linecap="round" stroke="rgb(0,0,255)" stroke-width="1.874998" fill="none" d="M 0.000000 750.000000 L 102.631577 0.000000 " />
<path stroke-linejoin="round" stroke-linecap="round" stroke="rgb(255,0,0)" stroke-width="3.749996" fill="none" d="M 70.365227 235.792526 L 74.663559 248.687515 " />
<path stroke-linejoin="round" stroke-linecap="round" stroke="rgb(0,0,255)" stroke-width="1.874998" fill="none" d="M 0.000000 750.000000 L 93.750000 0.000000 " />
<path stroke-linejoin="round" stroke-linecap="round" stroke="rgb(255,0,0)" stroke-width="3.749996" fill="none" d="M 65.936653 222.506760 L 70.365227 235.792526 " />
<path stroke-linejoin="round" stroke-linecap="round" stroke="rgb(0,0,255)" stroke-width="1.874998" fill="none" d="M 0.000000 750.000000 L 91.836739 0.000000 " />
<path stroke-linejoin="round" stroke-linecap="round" stroke="rgb(255,0,0)" stroke-width="3.749996" fill="none" d="M 64.952530 219.554367 L 65.936653 222.506760 " />
<path stroke-linejoin="round" stroke-linecap="round" stroke="rgb(0,0,255)" stroke-width="1.874998" fill="none" d="M 0.000000 750.000000 L 90.277771 0.000000 " />
<path stroke-linejoin="round" stroke-linecap="round" stroke="rgb(255,0,0)" stroke-width="3.749996" fill="none" d="M 64.354126 215.365692 L 64.952530 219.554367 " />
<path stroke-linejoin="round" stroke-linecap="round" stroke="rgb(0,0,255)" stroke-width="1.874998" fill="none" d="M 0.000000 750.000000 L 90.000000 0.000000 " />
<path stroke-linejoin="round" stroke-linecap="round" stroke="rgb(255,0,0)" stroke-width="3.749996" fill="none" d="M 64.208527 214.928925 L 64.354126 215.365692 " />
<path stroke-linejoin="round" stroke-linecap="round" stroke="rgb(0,0,255)" stroke-width="1.874998" fill="none" d="M 0.000000 750.000000 L 88.235291 0.000000 " />
<path stroke-linejoin="round" stroke-linecap="round" stroke="rgb(255,0,0)" stroke-width="3.749996" fill="none" d="M 63.277981 212.137222 L 64.208527 214.928925 " />
<path stroke-linejoin="round" stroke-linecap="round" stroke="rgb(0,0,255)" stroke-width="1.874998" fill="none" d="M 0.000000 750.000000 L 87.053574 0.000000 " />
<path stroke-linejoin="round" stroke-linecap="round" stroke="rgb(255,0,0)" stroke-width="3.749996" fill="none" d="M 62.810406 208.864197 L 63.277981 212.137222 " />
<path stroke-linejoin="round" stroke-linecap="round" stroke="rgb(0,0,255)" stroke-width="1.874998" fill="none" d="M 0.000000 750.000000 L 86.538460 0.000000 " />
<path stroke-linejoin="round" stroke-linecap="round" stroke="rgb(255,0,0)" stroke-width="3.749996" fill="none" d="M 62.534317 208.035934 L 62.810406 208.864197 " />
<path stroke-linejoin="round" stroke-linecap="round" stroke="rgb(0,0,255)" stroke-width="1.874998" fill="none" d="M 0.000000 750.000000 L 85.714279 0.000000 " />
<path stroke-linejoin="round" stroke-linecap="round" stroke="rgb(255,0,0)" stroke-width="3.749996" fill="none" d="M 62.203445 205.719849 L 62.534317 208.035934 " />
<path stroke-linejoin="round" stroke-linecap="round" stroke="rgb(0,0,255)" stroke-width="1.874998" fill="none" d="M 0.000000 750.000000 L 71.739120 0.000000 " />
<path stroke-linejoin="round" stroke-linecap="round" stroke="rgb(255,0,0)" stroke-width="3.749996" fill="none" d="M 56.128891 163.197998 L 62.203445 205.719849 " />
<path stroke-linejoin="round" stroke-linecap="round" stroke="rgb(0,0,255)" stroke-width="1.874998" fill="none" d="M 0.000000 750.000000 L 70.093452 0.000000 " />
<path stroke-linejoin="round" stroke-linecap="round" stroke="rgb(255,0,0)" stroke-width="3.749996" fill="none" d="M 55.123260 160.181091 L 56.128891 163.197998 " />
<path stroke-linejoin="round" stroke-linecap="round" stroke="rgb(0,0,255)" stroke-width="1.874998" fill="none" d="M 0.000000 750.000000 L 68.807335 0.000000 " />
<path stroke-linejoin="round" stroke-linecap="round" stroke="rgb(255,0,0)" stroke-width="3.749996" fill="none" d="M 54.330132 157.801636 L 55.123260 160.181091 " />
<path stroke-linejoin="round" stroke-linecap="round" stroke="rgb(0,0,255)" stroke-width="1.874998" fill="none" d="M 0.000000 750.000000 L 67.567574 0.000000 " />
<path stroke-linejoin="round" stroke-linecap="round" stroke="rgb(255,0,0)" stroke-width="3.749996" fill="none" d="M 53.559490 155.489685 L 54.330132 157.801620 " />
<path stroke-linejoin="round" stroke-linecap="round" stroke="rgb(0,0,255)" stroke-width="1.874998" fill="none" d="M 0.000000 750.000000 L 66.371689 0.000000 " />
<path stroke-linejoin="round" stroke-linecap="round" stroke="rgb(255,0,0)" stroke-width="3.749996" fill="none" d="M 52.810394 153.242432 L 53.559490 155.489685 " />
<path stroke-linejoin="round" stroke-linecap="round" stroke="rgb(0,0,255)" stroke-width="1.874998" fill="none" d="M 0.000000 750.000000 L 65.217400 0.000000 " />
<path stroke-linejoin="round" stroke-linecap="round" stroke="rgb(255,0,0)" stroke-width="3.749996" fill="none" d="M 52.081993 151.057144 L 52.810394 153.242432 " />
<path stroke-linejoin="round" stroke-linecap="round" stroke="rgb(0,0,255)" stroke-width="1.874998" fill="none" d="M 0.000000 750.000000 L 62.500008 0.000000 " />
<path stroke-linejoin="round" stroke-linecap="round" stroke="rgb(255,0,0)" stroke-width="3.749996" fill="none" d="M 50.711407 141.463150 L 52.081993 151.057144 " />
<path stroke-linejoin="round" stroke-linecap="round" stroke="rgb(0,0,255)" stroke-width="1.874998" fill="none" d="M 0.000000 750.000000 L 51.923073 0.000000 " />
<path stroke-linejoin="round" stroke-linecap="round" stroke="rgb(255,0,0)" stroke-width="3.749996" fill="none" d="M 44.930824 100.999115 L 50.711407 141.463150 " />
<path stroke-linejoin="round" stroke-linecap="round" stroke="rgb(0,0,255)" stroke-width="1.874998" fill="none" d="M 0.000000 750.000000 L 49.180313 0.000000 " />
<path stroke-linejoin="round" stroke-linecap="round" stroke="rgb(255,0,0)" stroke-width="3.749996" fill="none" d="M 42.947575 95.049393 L 44.930824 100.999115 " />
<path stroke-linejoin="round" stroke-linecap="round" stroke="rgb(0,0,255)" stroke-width="1.874998" fill="none" d="M 0.000000 750.000000 L 48.387096 0.000000 " />
<path stroke-linejoin="round" stroke-linecap="round" stroke="rgb(255,0,0)" stroke-width="3.749996" fill="none" d="M 42.367214 93.308266 L 42.947575 95.049393 " />
<path stroke-linejoin="round" stroke-linecap="round" stroke="rgb(0,0,255)" stroke-width="1.874998" fill="none" d="M 0.000000 750.000000 L 47.619045 0.000000 " />
<path stroke-linejoin="round" stroke-linecap="round" stroke="rgb(255,0,0)" stroke-width="3.749996" fill="none" d="M 41.802319 91.613602 L 42.367214 93.308266 " />
<path stroke-linejoin="round" stroke-linecap="round" stroke="rgb(0,0,255)" stroke-width="1.874998" fill="none" d="M 0.000000 750.000000 L 45.801537 0.000000 " />
<path stroke-linejoin="round" stroke-linecap="round" stroke="rgb(255,0,0)" stroke-width="3.749996" fill="none" d="M 40.453857 87.568176 L 41.802319 91.613602 " />
<path stroke-linejoin="round" stroke-linecap="round" stroke="rgb(0,0,255)" stroke-width="1.874998" fill="none" d="M 0.000000 750.000000 L 39.772736 0.000000 " />
<path stroke-linejoin="round" stroke-linecap="round" stroke="rgb(255,0,0)" stroke-width="3.749996" fill="none" d="M 35.859818 73.786209 L 40.453857 87.568176 " />
<path stroke-linejoin="round" stroke-linecap="round" stroke="rgb(0,0,255)" stroke-width="1.874998" fill="none" d="M 0.000000 750.000000 L 39.179115 0.000000 " />
<path stroke-linejoin="round" stroke-linecap="round" stroke="rgb(255,0,0)" stroke-width="3.749996" fill="none" d="M 35.397114 72.398048 L 35.859818 73.786209 " />
<path stroke-linejoin="round" stroke-linecap="round" stroke="rgb(0,0,255)" stroke-width="1.874998" fill="none" d="M 0.000000 750.000000 L 33.333332 0.000000 " />
<path stroke-linejoin="round" stroke-linecap="round" stroke="rgb(255,0,0)" stroke-width="3.749996" fill="none" d="M 30.736998 58.417664 L 35.397114 72.398048 " />
<path stroke-linejoin="round" stroke-linecap="round" stroke="rgb(0,0,255)" stroke-width="1.874998" fill="none" d="M 0.000000 750.000000 L 27.573534 0.000000 " />
<path stroke-linejoin="round" stroke-linecap="round" stroke="rgb(255,0,0)" stroke-width="3.749996" fill="none" d="M 25.900728 45.499920 L 30.736998 58.417664 " />
<path stroke-linejoin="round" stroke-linecap="round" stroke="rgb(0,0,255)" stroke-width="1.874998" fill="none" d="M 0.000000 750.000000 L 21.897800 0.000000 " />
<path stroke-linejoin="round" stroke-linecap="round" stroke="rgb(255,0,0)" stroke-width="3.749996" fill="none" d="M 20.871765 35.142078 L 25.900728 45.499920 " />
<path stroke-linejoin="round" stroke-linecap="round" stroke="rgb(0,0,255)" stroke-width="1.874998" fill="none" d="M 0.000000 750.000000 L 21.582729 0.000000 " />
<path stroke-linejoin="round" stroke-linecap="round" stroke="rgb(255,0,0)" stroke-width="3.749996" fill="none" d="M 20.595320 34.312740 L 20.871765 35.142078 " />
<path stroke-linejoin="round" stroke-linecap="round" stroke="rgb(0,0,255)" stroke-width="1.874998" fill="none" d="M 0.000000 750.000000 L 21.276600 0.000000 " />
<path stroke-linejoin="round" stroke-linecap="round" stroke="rgb(255,0,0)" stroke-width="3.749996" fill="none" d="M 20.326094 33.505081 L 20.595320 34.312740 " />
<path stroke-linejoin="round" stroke-linecap="round" stroke="rgb(0,0,255)" stroke-width="1.874998" fill="none" d="M 0.000000 750.000000 L 20.134226 0.000000 " />
<path stroke-linejoin="round" stroke-linecap="round" stroke="rgb(255,0,0)" stroke-width="3.749996" fill="none" d="M 19.407391 27.074219 L 20.326094 33.505150 " />
<path stroke-linejoin="round" stroke-linecap="round" stroke="rgb(0,0,255)" stroke-width="1.874998" fill="none" d="M 0.000000 750.000000 L 19.354843 0.000000 " />
<path stroke-linejoin="round" stroke-linecap="round" stroke="rgb(255,0,0)" stroke-width="3.749996" fill="none" d="M 18.771105 22.620029 L 19.407391 27.074219 " />
<path stroke-linejoin="round" stroke-linecap="round" stroke="rgb(0,0,255)" stroke-width="1.874998" fill="none" d="M 0.000000 750.000000 L 15.410967 0.000000 " />
<path stroke-linejoin="round" stroke-linecap="round" stroke="rgb(255,0,0)" stroke-width="3.749996" fill="none" d="M 15.042856 17.914429 L 18.771105 22.620029 " />
<path stroke-linejoin="round" stroke-linecap="round" stroke="rgb(0,0,255)" stroke-width="1.874998" fill="none" d="M 0.000000 750.000000 L 10.204084 0.000000 " />
<path stroke-linejoin="round" stroke-linecap="round" stroke="rgb(255,0,0)" stroke-width="3.749996" fill="none" d="M 10.038257 12.187735 L 15.042856 17.914429 " />
<path stroke-linejoin="round" stroke-linecap="round" stroke="rgb(0,0,255)" stroke-width="1.874998" fill="none" d="M 0.000000 750.000000 L 5.067564 0.000000 " />
<path stroke-linejoin="round" stroke-linecap="round" stroke="rgb(255,0,0)" stroke-width="3.749996" fill="none" d="M 5.022749 6.633707 L 10.038257 12.187823 " />
<path stroke-linejoin="round" stroke-linecap="round" stroke="rgb(0,0,255)" stroke-width="1.874998" fill="none" d="M 0.000000 750.000000 L 0.000000 0.000000 " />
<path stroke-linejoin="round" stroke-linecap="round" stroke="rgb(255,0,0)" stroke-width="3.749996" fill="none" d="M 0.000000 0.000000 L 5.022749 6.633773 " />
<circle cx="149.594598" cy="746.351346" r="3.749996" style="fill:rgb(0,127,0);stroke-width:1" /><circle cx="148.338497" cy="742.583066" r="3.749996" style="fill:rgb(0,127,0);stroke-width:1" /><circle cx="143.402159" cy="708.028637" r="3.749996" style="fill:rgb(0,127,0);stroke-width:1" /><circle cx="142.449327" cy="701.358765" r="3.749996" style="fill:rgb(0,127,0);stroke-width:1" /><circle cx="141.423091" cy="694.175094" r="3.749996" style="fill:rgb(0,127,0);stroke-width:1" /><circle cx="136.246830" cy="657.941334" r="3.749996" style="fill:rgb(0,127,0);stroke-width:1" /><circle cx="136.095509" cy="656.882018" r="3.749996" style="fill:rgb(0,127,0);stroke-width:1" /><circle cx="134.458266" cy="645.421341" r="3.749996" style="fill:rgb(0,127,0);stroke-width:1" /><circle cx="133.504651" cy="638.746127" r="3.749996" style="fill:rgb(0,127,0);stroke-width:1" /><circle cx="132.617846" cy="632.538490" r="3.749996" style="fill:rgb(0,127,0);stroke-width:1" /><circle cx="130.723290" cy="619.276710" r="3.749996" style="fill:rgb(0,127,0);stroke-width:1" /><circle cx="129.709929" cy="612.183183" r="3.749996" style="fill:rgb(0,127,0);stroke-width:1" /><circle cx="124.212183" cy="573.698848" r="3.749996" style="fill:rgb(0,127,0);stroke-width:1" /><circle cx="121.798441" cy="556.802485" r="3.749996" style="fill:rgb(0,127,0);stroke-width:1" /><circle cx="120.827928" cy="550.008930" r="3.749996" style="fill:rgb(0,127,0);stroke-width:1" /><circle cx="118.143260" cy="531.216178" r="3.749996" style="fill:rgb(0,127,0);stroke-width:1" /><circle cx="116.697237" cy="521.093901" r="3.749996" style="fill:rgb(0,127,0);stroke-width:1" /><circle cx="110.782474" cy="479.690753" r="3.749996" style="fill:rgb(0,127,0);stroke-width:1" /><circle cx="110.530302" cy="477.925424" r="3.749996" style="fill:rgb(0,127,0);stroke-width:1" /><circle cx="108.936109" cy="466.766115" r="3.749996" style="fill:rgb(0,127,0);stroke-width:1" /><circle cx="108.184822" cy="461.507125" r="3.749996" style="fill:rgb(0,127,0);stroke-width:1" /><circle cx="106.429607" cy="449.220657" r="3.749996" style="fill:rgb(0,127,0);stroke-width:1" /><circle cx="100.556418" cy="408.108152" r="3.749996" style="fill:rgb(0,127,0);stroke-width:1" /><circle cx="98.366082" cy="392.775822" r="3.749996" style="fill:rgb(0,127,0);stroke-width:1" /><circle cx="95.071524" cy="369.713938" r="3.749996" style="fill:rgb(0,127,0);stroke-width:1" /><circle cx="88.449620" cy="323.360648" r="3.749996" style="fill:rgb(0,127,0);stroke-width:1" /><circle cx="86.723775" cy="311.279727" r="3.749996" style="fill:rgb(0,127,0);stroke-width:1" /><circle cx="85.360810" cy="307.190789" r="3.749996" style="fill:rgb(0,127,0);stroke-width:1" /><circle cx="81.266463" cy="294.907808" r="3.749996" style="fill:rgb(0,127,0);stroke-width:1" /><circle cx="74.663557" cy="248.687513" r="3.749996" style="fill:rgb(0,127,0);stroke-width:1" /><circle cx="70.365228" cy="235.792525" r="3.749996" style="fill:rgb(0,127,0);stroke-width:1" /><circle cx="65.936655" cy="222.506762" r="3.749996" style="fill:rgb(0,127,0);stroke-width:1" /><circle cx="64.952530" cy="219.554365" r="3.749996" style="fill:rgb(0,127,0);stroke-width:1" /><circle cx="64.354129" cy="215.365682" r="3.749996" style="fill:rgb(0,127,0);stroke-width:1" /><circle cx="64.208530" cy="214.928918" r="3.749996" style="fill:rgb(0,127,0);stroke-width:1" /><circle cx="63.277982" cy="212.137230" r="3.749996" style="fill:rgb(0,127,0);stroke-width:1" /><circle cx="62.810406" cy="208.864186" r="3.749996" style="fill:rgb(0,127,0);stroke-width:1" /><circle cx="62.534317" cy="208.035920" r="3.749996" style="fill:rgb(0,127,0);stroke-width:1" /><circle cx="62.203445" cy="205.719855" r="3.749996" style="fill:rgb(0,127,0);stroke-width:1" /><circle cx="56.128889" cy="163.198002" r="3.749996" style="fill:rgb(0,127,0);stroke-width:1" /><circle cx="55.123262" cy="160.181098" r="3.749996" style="fill:rgb(0,127,0);stroke-width:1" /><circle cx="54.330133" cy="157.801643" r="3.749996" style="fill:rgb(0,127,0);stroke-width:1" /><circle cx="53.559490" cy="155.489691" r="3.749996" style="fill:rgb(0,127,0);stroke-width:1" /><circle cx="52.810393" cy="153.242424" r="3.749996" style="fill:rgb(0,127,0);stroke-width:1" /><circle cx="52.081995" cy="151.057139" r="3.749996" style="fill:rgb(0,127,0);stroke-width:1" /><circle cx="50.711408" cy="141.463146" r="3.749996" style="fill:rgb(0,127,0);stroke-width:1" /><circle cx="44.930823" cy="100.999117" r="3.749996" style="fill:rgb(0,127,0);stroke-width:1" /><circle cx="42.947575" cy="95.049396" r="3.749996" style="fill:rgb(0,127,0);stroke-width:1" /><circle cx="42.367212" cy="93.308263" r="3.749996" style="fill:rgb(0,127,0);stroke-width:1" /><circle cx="41.802317" cy="91.613598" r="3.749996" style="fill:rgb(0,127,0);stroke-width:1" /><circle cx="40.453859" cy="87.568179" r="3.749996" style="fill:rgb(0,127,0);stroke-width:1" /><circle cx="35.859816" cy="73.786207" r="3.749996" style="fill:rgb(0,127,0);stroke-width:1" /><circle cx="35.397112" cy="72.398052" r="3.749996" style="fill:rgb(0,127,0);stroke-width:1" /><circle cx="30.736998" cy="58.417663" r="3.749996" style="fill:rgb(0,127,0);stroke-width:1" /><circle cx="25.900729" cy="45.499921" r="3.749996" style="fill:rgb(0,127,0);stroke-width:1" /><circle cx="20.871766" cy="35.142079" r="3.749996" style="fill:rgb(0,127,0);stroke-width:1" /><circle cx="20.595320" cy="34.312740" r="3.749996" style="fill:rgb(0,127,0);stroke-width:1" /><circle cx="20.326093" cy="33.505082" r="3.749996" style="fill:rgb(0,127,0);stroke-width:1" /><circle cx="19.407392" cy="27.074218" r="3.749996" style="fill:rgb(0,127,0);stroke-width:1" /><circle cx="18.771105" cy="22.620030" r="3.749996" style="fill:rgb(0,127,0);stroke-width:1" /><circle cx="15.042856" cy="17.914429" r="3.749996" style="fill:rgb(0,127,0);stroke-width:1" /><circle cx="10.038257" cy="12.187734" r="3.749996" style="fill:rgb(0,127,0);stroke-width:1" /><circle cx="5.022749" cy="6.633706" r="3.749996" style="fill:rgb(0,127,0);stroke-width:1" /><circle cx="750.000000" cy="750.000000" r="3.749996" style="fill:rgb(0,127,0);stroke-width:1" /><path stroke-linejoin="round" stroke-linecap="round" stroke="rgb(255,255,255)" stroke-width="3.749996" fill="none" d="M 0.000000 750.000000 L 750.000000 750.000000 M 0.000000 750.000000 L 0.000000 0.000000 " />

</svg>