<svg xmlns="http://www.w3.org/2000/svg" version="1.1" width = "750" height = "750" viewBox = "0 0 750 750"  shape-rendering="crispEdges">
<path stroke-linejoin="round" stroke-linecap="round" stroke="rgb(255,255,0)" stroke-width="3.749996" fill="none" d="M 149.999985 750.000000 L 0.000000 0.000000 " />
<path stroke-linejoin="round" stroke-linecap="round" stroke="rgb(63,63,63)" stroke-width="3.749996" fill="none" d="M 0.000000 0.000000 L 750.000000 750.000000 M 149.999985 750.000000 L 66.666664 0.000000 " />
<path stroke-linejoin="round" stroke-linecap="round" stroke="rgb(191,191,191)" stroke-width="3.749996" fill="none" d="M 0.000000 600.000000 L 149.999985 750.000000 M 0.000000 0.000000 L 83.333328 750.000000 " />
<path stroke-linejoin="round" stroke-linecap="round" stroke="rgb(0,0,255)" stroke-width="1.874998" fill="none" d="M 0.000000 750.000000 L 750.000000 725.806458 " />
<path stroke-linejoin="round" stroke-linecap="round" stroke="rgb(255,0,0)" stroke-width="3.749996" fill="none" d="M 149.464294 745.178528 L 149.999985 750.000000 " />
<path stroke-linejoin="round" stroke-linecap="round" stroke="rgb(0,0,255)" stroke-width="1.874998" fill="none" d="M 0.000000 750.000000 L 750.000000 700.000000 " />
<path stroke-linejoin="round" stroke-linecap="round" stroke="rgb(255,0,0)" stroke-width="3.749996" fill="none" d="M 144.642838 740.357117 L 149.464294 745.178528 " />
<path stroke-linejoin="round" stroke-linecap="round" stroke="rgb(0,0,255)" stroke-width="1.874998" fill="none" d="M 0.000000 750.000000 L 750.000000 672.413818 " />
<path stroke-linejoin="round" stroke-linecap="round" stroke="rgb(255,0,0)" stroke-width="3.749996" fill="none" d="M 139.821426 735.535767 L 144.642838 740.357117 " />
<path stroke-linejoin="round" stroke-linecap="round" stroke="rgb(0,0,255)" stroke-width="1.874998" fill="none" d="M 0.000000 750.000000 L 750.000000 642.857178 " />
<path stroke-linejoin="round" stroke-linecap="round" stroke="rgb(255,0,0)" stroke-width="3.749996" fill="none" d="M 135.000000 730.714294 L 139.821426 735.535767 " />
<path stroke-linejoin="round" stroke-linecap="round" stroke="rgb(0,0,255)" stroke-width="1.874998" fill="none" d="M 0.000000 750.000000 L 750.000000 611.111084 " />
<path stroke-linejoin="round" stroke-linecap="round" stroke="rgb(255,0,0)" stroke-width="3.749996" fill="none" d="M 130.178558 725.892822 L 135.000000 730.714294 " />
<path stroke-linejoin="round" stroke-linecap="round" stroke="rgb(0,0,255)" stroke-width="1.874998" fill="none" d="M 0.000000 750.000000 L 750.000000 348.214294 " />
<path stroke-linejoin="round" stroke-linecap="round" stroke="rgb(255,0,0)" stroke-width="3.749996" fill="none" d="M 125.393250 682.825073 L 130.178558 725.892822 " />
<path stroke-linejoin="round" stroke-linecap="round" stroke="rgb(0,0,255)" stroke-width="1.874998" fill="none" d="M 0.000000 750.000000 L 750.000000 317.307709 " />
<path stroke-linejoin="round" stroke-linecap="round" stroke="rgb(255,0,0)" stroke-width="3.749996" fill="none" d="M 124.853699 677.968994 L 125.393250 682.825073 " />
<path stroke-linejoin="round" stroke-linecap="round" stroke="rgb(0,0,255)" stroke-width="1.874998" fill="none" d="M 0.000000 750.000000 L 750.000000 55.555569 " />
<path stroke-linejoin="round" stroke-linecap="round" stroke="rgb(255,0,0)" stroke-width="3.749996" fill="none" d="M 120.463753 638.459473 L 124.853699 677.968994 " />
<path stroke-linejoin="round" stroke-linecap="round" stroke="rgb(0,0,255)" stroke-width="1.874998" fill="none" d="M 0.000000 750.000000 L 750.000000 0.000000 " />
<path stroke-linejoin="round" stroke-linecap="round" stroke="rgb(255,0,0)" stroke-width="3.749996" fill="none" d="M 119.571426 630.428528 L 120.463753 638.459473 " />
<path stroke-linejoin="round" stroke-linecap="round" stroke="rgb(0,0,255)" stroke-width="1.874998" fill="none" d="M 0.000000 750.000000 L 696.428528 0.000000 " />
<path stroke-linejoin="round" stroke-linecap="round" stroke="rgb(255,0,0)" stroke-width="3.749996" fill="none" d="M 118.658646 622.213745 L 119.571426 630.428528 " />
<path stroke-linejoin="round" stroke-linecap="round" stroke="rgb(0,0,255)" stroke-width="1.874998" fill="none" d="M 0.000000 750.000000 L 600.000000 0.000000 " />
<path stroke-linejoin="round" stroke-linecap="round" stroke="rgb(255,0,0)" stroke-width="3.749996" fill="none" d="M 116.655060 604.181152 L 118.658646 622.213745 " />
<path stroke-linejoin="round" stroke-linecap="round" stroke="rgb(0,0,255)" stroke-width="1.874998" fill="none" d="M 0.000000 750.000000 L 468.750000 0.000000 " />
<path stroke-linejoin="round" stroke-linecap="round" stroke="rgb(255,0,0)" stroke-width="3.749996" fill="none" d="M 112.803253 569.514832 L 116.655060 604.181152 " />
<path stroke-linejoin="round" stroke-linecap="round" stroke="rgb(0,0,255)" stroke-width="1.874998" fill="none" d="M 0.000000 750.000000 L 439.024384 0.000000 " />
<path stroke-linejoin="round" stroke-linecap="round" stroke="rgb(255,0,0)" stroke-width="3.749996" fill="none" d="M 111.662041 559.244019 L 112.803253 569.514832 " />
<path stroke-linejoin="round" stroke-linecap="round" stroke="rgb(0,0,255)" stroke-width="1.874998" fill="none" d="M 0.000000 750.000000 L 418.604675 0.000000 " />
<path stroke-linejoin="round" stroke-linecap="round" stroke="rgb(255,0,0)" stroke-width="3.749996" fill="none" d="M 110.799774 551.483704 L 111.662041 559.244019 " />
<path stroke-linejoin="round" stroke-linecap="round" stroke="rgb(0,0,255)" stroke-width="1.874998" fill="none" d="M 0.000000 750.000000 L 407.608673 0.000000 " />
<path stroke-linejoin="round" stroke-linecap="round" stroke="rgb(255,0,0)" stroke-width="3.749996" fill="none" d="M 110.305756 547.037415 L 110.799774 551.483704 " />
<path stroke-linejoin="round" stroke-linecap="round" stroke="rgb(0,0,255)" stroke-width="1.874998" fill="none" d="M 0.000000 750.000000 L 390.625031 0.000000 " />
<path stroke-linejoin="round" stroke-linecap="round" stroke="rgb(255,0,0)" stroke-width="3.749996" fill="none" d="M 109.497650 539.764526 L 110.305756 547.037415 " />
<path stroke-linejoin="round" stroke-linecap="round" stroke="rgb(0,0,255)" stroke-width="1.874998" fill="none" d="M 0.000000 750.000000 L 336.734680 0.000000 " />
<path stroke-linejoin="round" stroke-linecap="round" stroke="rgb(255,0,0)" stroke-width="3.749996" fill="none" d="M 106.500862 512.793457 L 109.497650 539.764526 " />
<path stroke-linejoin="round" stroke-linecap="round" stroke="rgb(0,0,255)" stroke-width="1.874998" fill="none" d="M 0.000000 750.000000 L 292.372864 0.000000 " />
<path stroke-linejoin="round" stroke-linecap="round" stroke="rgb(255,0,0)" stroke-width="3.749996" fill="none" d="M 103.388832 484.785126 L 106.500862 512.793457 " />
<path stroke-linejoin="round" stroke-linecap="round" stroke="rgb(0,0,255)" stroke-width="1.874998" fill="none" d="M 0.000000 750.000000 L 275.000000 0.000000 " />
<path stroke-linejoin="round" stroke-linecap="round" stroke="rgb(255,0,0)" stroke-width="3.749996" fill="none" d="M 101.960152 471.926910 L 103.388832 484.785126 " />
<path stroke-linejoin="round" stroke-linecap="round" stroke="rgb(0,0,255)" stroke-width="1.874998" fill="none" d="M 0.000000 750.000000 L 258.196716 0.000000 " />
<path stroke-linejoin="round" stroke-linecap="round" stroke="rgb(255,0,0)" stroke-width="3.749996" fill="none" d="M 100.440010 458.245697 L 101.960152 471.926910 " />
<path stroke-linejoin="round" stroke-linecap="round" stroke="rgb(0,0,255)" stroke-width="1.874998" fill="none" d="M 0.000000 750.000000 L 250.000000 0.000000 " />
<path stroke-linejoin="round" stroke-linecap="round" stroke="rgb(255,0,0)" stroke-width="3.749996" fill="none" d="M 99.642860 451.071381 L 100.440010 458.245697 " />
<path stroke-linejoin="round" stroke-linecap="round" stroke="rgb(0,0,255)" stroke-width="1.874998" fill="none" d="M 0.000000 750.000000 L 242.307678 0.000000 " />
<path stroke-linejoin="round" stroke-linecap="round" stroke="rgb(255,0,0)" stroke-width="3.749996" fill="none" d="M 98.858269 444.010101 L 99.642860 451.071381 " />
<path stroke-linejoin="round" stroke-linecap="round" stroke="rgb(0,0,255)" stroke-width="1.874998" fill="none" d="M 0.000000 750.000000 L 236.842102 0.000000 " />
<path stroke-linejoin="round" stroke-linecap="round" stroke="rgb(255,0,0)" stroke-width="3.749996" fill="none" d="M 97.163559 442.315369 L 98.858269 444.010101 " />
<path stroke-linejoin="round" stroke-linecap="round" stroke="rgb(0,0,255)" stroke-width="1.874998" fill="none" d="M 0.000000 750.000000 L 228.813568 0.000000 " />
<path stroke-linejoin="round" stroke-linecap="round" stroke="rgb(255,0,0)" stroke-width="3.749996" fill="none" d="M 94.639847 439.791656 L 97.163559 442.315369 " />
<path stroke-linejoin="round" stroke-linecap="round" stroke="rgb(0,0,255)" stroke-width="1.874998" fill="none" d="M 0.000000 750.000000 L 206.521729 0.000000 " />
<path stroke-linejoin="round" stroke-linecap="round" stroke="rgb(255,0,0)" stroke-width="3.749996" fill="none" d="M 91.989044 415.934540 L 94.639847 439.791656 " />
<path stroke-linejoin="round" stroke-linecap="round" stroke="rgb(0,0,255)" stroke-width="1.874998" fill="none" d="M 0.000000 750.000000 L 192.857147 0.000000 " />
<path stroke-linejoin="round" stroke-linecap="round" stroke="rgb(255,0,0)" stroke-width="3.749996" fill="none" d="M 90.152596 399.406586 L 91.989044 415.934540 " />
<path stroke-linejoin="round" stroke-linecap="round" stroke="rgb(0,0,255)" stroke-width="1.874998" fill="none" d="M 0.000000 750.000000 L 182.692322 0.000000 " />
<path stroke-linejoin="round" stroke-linecap="round" stroke="rgb(255,0,0)" stroke-width="3.749996" fill="none" d="M 88.664154 386.010345 L 90.152596 399.406586 " />
<path stroke-linejoin="round" stroke-linecap="round" stroke="rgb(0,0,255)" stroke-width="1.874998" fill="none" d="M 0.000000 750.000000 L 170.886078 0.000000 " />
<path stroke-linejoin="round" stroke-linecap="round" stroke="rgb(255,0,0)" stroke-width="3.749996" fill="none" d="M 86.785912 369.106293 L 88.664154 386.010284 " />
<path stroke-linejoin="round" stroke-linecap="round" stroke="rgb(0,0,255)" stroke-width="1.874998" fill="none" d="M 0.000000 750.000000 L 166.666656 0.000000 " />
<path stroke-linejoin="round" stroke-linecap="round" stroke="rgb(255,0,0)" stroke-width="3.749996" fill="none" d="M 86.071617 362.677704 L 86.785912 369.106293 " />
<path stroke-linejoin="round" stroke-linecap="round" stroke="rgb(0,0,255)" stroke-width="1.874998" fill="none" d="M 0.000000 750.000000 L 162.162155 0.000000 " />
<path stroke-linejoin="round" stroke-linecap="round" stroke="rgb(255,0,0)" stroke-width="3.749996" fill="none" d="M 84.158913 360.764984 L 86.071617 362.677704 " />
<path stroke-linejoin="round" stroke-linecap="round" stroke="rgb(0,0,255)" stroke-width="1.874998" fill="none" d="M 0.000000 750.000000 L 157.894745 0.000000 " />
<path stroke-linejoin="round" stroke-linecap="round" stroke="rgb(255,0,0)" stroke-width="3.749996" fill="none" d="M 82.329376 358.935425 L 84.158913 360.764984 " />
<path stroke-linejoin="round" stroke-linecap="round" stroke="rgb(0,0,255)" stroke-width="1.874998" fill="none" d="M 0.000000 750.000000 L 153.846146 0.000000 " />
<path stroke-linejoin="round" stroke-linecap="round" stroke="rgb(255,0,0)" stroke-width="3.749996" fill="none" d="M 80.577690 357.183746 L 82.329376 358.935425 " />
<path stroke-linejoin="round" stroke-linecap="round" stroke="rgb(0,0,255)" stroke-width="1.874998" fill="none" d="M 0.000000 750.000000 L 142.405045 0.000000 " />
<path stroke-linejoin="round" stroke-linecap="round" stroke="rgb(255,0,0)" stroke-width="3.749996" fill="none" d="M 75.541580 352.147644 L 80.577690 357.183746 " />
<path stroke-linejoin="round" stroke-linecap="round" stroke="rgb(0,0,255)" stroke-width="1.874998" fill="none" d="M 0.000000 750.000000 L 131.250015 0.000000 " />
<path stroke-linejoin="round" stroke-linecap="round" stroke="rgb(255,0,0)" stroke-width="3.749996" fill="none" d="M 70.505486 347.111511 L 75.541580 352.147644 " />
<path stroke-linejoin="round" stroke-linecap="round" stroke="rgb(0,0,255)" stroke-width="1.874998" fill="none" d="M 0.000000 750.000000 L 120.370392 0.000000 " />
<path stroke-linejoin="round" stroke-linecap="round" stroke="rgb(255,0,0)" stroke-width="3.749996" fill="none" d="M 65.469368 342.075409 L 70.505486 347.111511 " />
<path stroke-linejoin="round" stroke-linecap="round" stroke="rgb(0,0,255)" stroke-width="1.874998" fill="none" d="M 0.000000 750.000000 L 109.756081 0.000000 " />
<path stroke-linejoin="round" stroke-linecap="round" stroke="rgb(255,0,0)" stroke-width="3.749996" fill="none" d="M 60.433277 337.039307 L 65.469368 342.075409 " />
<path stroke-linejoin="round" stroke-linecap="round" stroke="rgb(0,0,255)" stroke-width="1.874998" fill="none" d="M 0.000000 750.000000 L 105.978279 0.000000 " />
<path stroke-linejoin="round" stroke-linecap="round" stroke="rgb(255,0,0)" stroke-width="3.749996" fill="none" d="M 59.517616 328.798401 L 60.433277 337.039307 " />
<path stroke-linejoin="round" stroke-linecap="round" stroke="rgb(0,0,255)" stroke-width="1.874998" fill="none" d="M 0.000000 750.000000 L 103.723389 0.000000 " />
<path stroke-linejoin="round" stroke-linecap="round" stroke="rgb(255,0,0)" stroke-width="3.749996" fill="none" d="M 58.953457 323.721100 L 59.517616 328.798401 " />
<path stroke-linejoin="round" stroke-linecap="round" stroke="rgb(0,0,255)" stroke-width="1.874998" fill="none" d="M 0.000000 750.000000 L 101.562515 0.000000 " />
<path stroke-linejoin="round" stroke-linecap="round" stroke="rgb(255,0,0)" stroke-width="3.749996" fill="none" d="M 58.399918 318.739044 L 58.953457 323.721100 " />
<path stroke-linejoin="round" stroke-linecap="round" stroke="rgb(0,0,255)" stroke-width="1.874998" fill="none" d="M 0.000000 750.000000 L 91.463417 0.000000 " />
<path stroke-linejoin="round" stroke-linecap="round" stroke="rgb(255,0,0)" stroke-width="3.749996" fill="none" d="M 53.224010 313.563141 L 58.399918 318.739014 " />
<path stroke-linejoin="round" stroke-linecap="round" stroke="rgb(0,0,255)" stroke-width="1.874998" fill="none" d="M 0.000000 750.000000 L 81.325294 0.000000 " />
<path stroke-linejoin="round" stroke-linecap="round" stroke="rgb(255,0,0)" stroke-width="3.749996" fill="none" d="M 47.901615 308.240753 L 53.224010 313.563141 " />
<path stroke-linejoin="round" stroke-linecap="round" stroke="rgb(0,0,255)" stroke-width="1.874998" fill="none" d="M 0.000000 750.000000 L 71.428566 0.000000 " />
<path stroke-linejoin="round" stroke-linecap="round" stroke="rgb(255,0,0)" stroke-width="3.749996" fill="none" d="M 42.579197 302.918365 L 47.901615 308.240753 " />
<path stroke-linejoin="round" stroke-linecap="round" stroke="rgb(0,0,255)" stroke-width="1.874998" fill="none" d="M 0.000000 750.000000 L 69.767433 0.000000 " />
<path stroke-linejoin="round" stroke-linecap="round" stroke="rgb(255,0,0)" stroke-width="3.749996" fill="none" d="M 41.673260 302.012451 L 42.579197 302.918365 " />
<path stroke-linejoin="round" stroke-linecap="round" stroke="rgb(0,0,255)" stroke-width="1.874998" fill="none" d="M 0.000000 750.000000 L 68.181824 0.000000 " />
<path stroke-linejoin="round" stroke-linecap="round" stroke="rgb(255,0,0)" stroke-width="3.749996" fill="none" d="M 40.805073 301.144257 L 41.673260 302.012451 " />
<path stroke-linejoin="round" stroke-linecap="round" stroke="rgb(0,0,255)" stroke-width="1.874998" fill="none" d="M 0.000000 750.000000 L 66.666664 0.000000 " />
<path stroke-linejoin="round" stroke-linecap="round" stroke="rgb(255,0,0)" stroke-width="3.749996" fill="none" d="M 39.972313 300.311523 L 40.805073 301.144287 " />
<path stroke-linejoin="round" stroke-linecap="round" stroke="rgb(0,0,255)" stroke-width="1.874998" fill="none" d="M 0.000000 750.000000 L 65.217400 0.000000 " />
<path stroke-linejoin="round" stroke-linecap="round" stroke="rgb(255,0,0)" stroke-width="3.749996" fill="none" d="M 39.172859 299.512085 L 39.972313 300.311523 " />
<path stroke-linejoin="round" stroke-linecap="round" stroke="rgb(0,0,255)" stroke-width="1.874998" fill="none" d="M 0.000000 750.000000 L 63.829781 0.000000 " />
<path stroke-linejoin="round" stroke-linecap="round" stroke="rgb(255,0,0)" stroke-width="3.749996" fill="none" d="M 38.404762 298.743958 L 39.172859 299.512085 " />
<path stroke-linejoin="round" stroke-linecap="round" stroke="rgb(0,0,255)" stroke-width="1.874998" fill="none" d="M 0.000000 750.000000 L 63.157887 0.000000 " />
<path stroke-linejoin="round" stroke-linecap="round" stroke="rgb(255,0,0)" stroke-width="3.749996" fill="none" d="M 38.031914 298.371155 L 38.404762 298.743958 " />
<path stroke-linejoin="round" stroke-linecap="round" stroke="rgb(0,0,255)" stroke-width="1.874998" fill="none" d="M 0.000000 750.000000 L 62.500008 0.000000 " />
<path stroke-linejoin="round" stroke-linecap="round" stroke="rgb(255,0,0)" stroke-width="3.749996" fill="none" d="M 37.666218 298.005432 L 38.031914 298.371155 " />
<path stroke-linejoin="round" stroke-linecap="round" stroke="rgb(0,0,255)" stroke-width="1.874998" fill="none" d="M 0.000000 750.000000 L 50.970867 0.000000 " />
<path stroke-linejoin="round" stroke-linecap="round" stroke="rgb(255,0,0)" stroke-width="3.749996" fill="none" d="M 33.355011 259.204742 L 37.666218 298.005432 " />
<path stroke-linejoin="round" stroke-linecap="round" stroke="rgb(0,0,255)" stroke-width="1.874998" fill="none" d="M 0.000000 750.000000 L 39.823002 0.000000 " />
<path stroke-linejoin="round" stroke-linecap="round" stroke="rgb(255,0,0)" stroke-width="3.749996" fill="none" d="M 28.418810 214.778961 L 33.355011 259.204803 " />
<path stroke-linejoin="round" stroke-linecap="round" stroke="rgb(0,0,255)" stroke-width="1.874998" fill="none" d="M 0.000000 750.000000 L 32.894745 0.000000 " />
<path stroke-linejoin="round" stroke-linecap="round" stroke="rgb(255,0,0)" stroke-width="3.749996" fill="none" d="M 23.682341 210.042496 L 28.418810 214.778961 " />
<path stroke-linejoin="round" stroke-linecap="round" stroke="rgb(0,0,255)" stroke-width="1.874998" fill="none" d="M 0.000000 750.000000 L 26.086964 0.000000 " />
<path stroke-linejoin="round" stroke-linecap="round" stroke="rgb(255,0,0)" stroke-width="3.749996" fill="none" d="M 19.867546 178.807892 L 23.682341 210.042496 " />
<path stroke-linejoin="round" stroke-linecap="round" stroke="rgb(0,0,255)" stroke-width="1.874998" fill="none" d="M 0.000000 750.000000 L 25.641024 0.000000 " />
<path stroke-linejoin="round" stroke-linecap="round" stroke="rgb(255,0,0)" stroke-width="3.749996" fill="none" d="M 19.607841 176.470535 L 19.867546 178.807892 " />
<path stroke-linejoin="round" stroke-linecap="round" stroke="rgb(0,0,255)" stroke-width="1.874998" fill="none" d="M 0.000000 750.000000 L 25.210083 0.000000 " />
<path stroke-linejoin="round" stroke-linecap="round" stroke="rgb(255,0,0)" stroke-width="3.749996" fill="none" d="M 19.354843 174.193558 L 19.607841 176.470535 " />
<path stroke-linejoin="round" stroke-linecap="round" stroke="rgb(0,0,255)" stroke-width="1.874998" fill="none" d="M 0.000000 750.000000 L 24.793379 0.000000 " />
<path stroke-linejoin="round" stroke-linecap="round" stroke="rgb(255,0,0)" stroke-width="3.749996" fill="none" d="M 19.108280 171.974518 L 19.354843 174.193558 " />
<path stroke-linejoin="round" stroke-linecap="round" stroke="rgb(0,0,255)" stroke-width="1.874998" fill="none" d="M 0.000000 750.000000 L 24.193548 0.000000 " />
<path stroke-linejoin="round" stroke-linecap="round" stroke="rgb(255,0,0)" stroke-width="3.749996" fill="none" d="M 18.750004 168.750000 L 19.108280 171.974518 " />
<path stroke-linejoin="round" stroke-linecap="round" stroke="rgb(0,0,255)" stroke-width="1.874998" fill="none" d="M 0.000000 750.000000 L 23.809523 0.000000 " />
<path stroke-linejoin="round" stroke-linecap="round" stroke="rgb(255,0,0)" stroke-width="3.749996" fill="none" d="M 18.518507 166.666702 L 18.750004 168.750000 " />
<path stroke-linejoin="round" stroke-linecap="round" stroke="rgb(0,0,255)" stroke-width="1.874998" fill="none" d="M 0.000000 750.000000 L 22.222214 0.000000 " />
<path stroke-linejoin="round" stroke-linecap="round" stroke="rgb(255,0,0)" stroke-width="3.749996" fill="none" d="M 17.543859 157.894806 L 18.518507 166.666702 " />
<path stroke-linejoin="round" stroke-linecap="round" stroke="rgb(0,0,255)" stroke-width="1.874998" fill="none" d="M 0.000000 750.000000 L 22.058823 0.000000 " />
<path stroke-linejoin="round" stroke-linecap="round" stroke="rgb(255,0,0)" stroke-width="3.749996" fill="none" d="M 17.441868 156.976746 L 17.543859 157.894806 " />
<path stroke-linejoin="round" stroke-linecap="round" stroke="rgb(0,0,255)" stroke-width="1.874998" fill="none" d="M 0.000000 750.000000 L 18.595039 0.000000 " />
<path stroke-linejoin="round" stroke-linecap="round" stroke="rgb(255,0,0)" stroke-width="3.749996" fill="none" d="M 15.202694 136.824356 L 17.441868 156.976685 " />
<path stroke-linejoin="round" stroke-linecap="round" stroke="rgb(0,0,255)" stroke-width="1.874998" fill="none" d="M 0.000000 750.000000 L 11.450373 0.000000 " />
<path stroke-linejoin="round" stroke-linecap="round" stroke="rgb(255,0,0)" stroke-width="3.749996" fill="none" d="M 10.067113 90.604012 L 15.202694 136.824356 " />
<path stroke-linejoin="round" stroke-linecap="round" stroke="rgb(0,0,255)" stroke-width="1.874998" fill="none" d="M 0.000000 750.000000 L 5.681813 0.000000 " />
<path stroke-linejoin="round" stroke-linecap="round" stroke="rgb(255,0,0)" stroke-width="3.749996" fill="none" d="M 5.319156 47.872356 L 10.067113 90.604012 " />
<path stroke-linejoin="round" stroke-linecap="round" stroke="rgb(0,0,255)" stroke-width="1.874998" fill="none" d="M 0.000000 750.000000 L 0.000000 0.000000 " />
<path stroke-linejoin="round" stroke-linecap="round" stroke="rgb(255,0,0)" stroke-width="3.749996" fill="none" d="M 0.000000 0.000000 L 5.319156 47.872356 " />
<circle cx="149.464287" cy="745.178573" r="3.749996" style="fill:rgb(0,127,0);stroke-width:1" /><circle cx="144.642837" cy="740.357146" r="3.749996" style="fill:rgb(0,127,0);stroke-width:1" /><circle cx="139.821433" cy="735.535719" r="3.749996" style="fill:rgb(0,127,0);stroke-width:1" /><circle cx="135.000005" cy="730.714291" r="3.749996" style="fill:rgb(0,127,0);stroke-width:1" /><circle cx="130.178556" cy="725.892864" r="3.749996" style="fill:rgb(0,127,0);stroke-width:1" /><circle cx="125.393249" cy="682.825036" r="3.749996" style="fill:rgb(0,127,0);stroke-width:1" /><circle cx="124.853700" cy="677.969031" r="3.749996" style="fill:rgb(0,127,0);stroke-width:1" /><circle cx="120.463751" cy="638.459489" r="3.749996" style="fill:rgb(0,127,0);stroke-width:1" /><circle cx="119.571425" cy="630.428575" r="3.749996" style="fill:rgb(0,127,0);stroke-width:1" /><circle cx="118.658647" cy="622.213751" r="3.749996" style="fill:rgb(0,127,0);stroke-width:1" /><circle cx="116.655059" cy="604.181170" r="3.749996" style="fill:rgb(0,127,0);stroke-width:1" /><circle cx="112.803251" cy="569.514826" r="3.749996" style="fill:rgb(0,127,0);stroke-width:1" /><circle cx="111.662038" cy="559.244022" r="3.749996" style="fill:rgb(0,127,0);stroke-width:1" /><circle cx="110.799775" cy="551.483721" r="3.749996" style="fill:rgb(0,127,0);stroke-width:1" /><circle cx="110.305756" cy="547.037400" r="3.749996" style="fill:rgb(0,127,0);stroke-width:1" /><circle cx="109.497651" cy="539.764501" r="3.749996" style="fill:rgb(0,127,0);stroke-width:1" /><circle cx="106.500864" cy="512.793504" r="3.749996" style="fill:rgb(0,127,0);stroke-width:1" /><circle cx="103.388831" cy="484.785162" r="3.749996" style="fill:rgb(0,127,0);stroke-width:1" /><circle cx="101.960152" cy="471.926875" r="3.749996" style="fill:rgb(0,127,0);stroke-width:1" /><circle cx="100.440010" cy="458.245721" r="3.749996" style="fill:rgb(0,127,0);stroke-width:1" /><circle cx="99.642858" cy="451.071398" r="3.749996" style="fill:rgb(0,127,0);stroke-width:1" /><circle cx="98.858267" cy="444.010092" r="3.749996" style="fill:rgb(0,127,0);stroke-width:1" /><circle cx="97.163558" cy="442.315366" r="3.749996" style="fill:rgb(0,127,0);stroke-width:1" /><circle cx="94.639845" cy="439.791653" r="3.749996" style="fill:rgb(0,127,0);stroke-width:1" /><circle cx="91.989040" cy="415.934516" r="3.749996" style="fill:rgb(0,127,0);stroke-width:1" /><circle cx="90.152599" cy="399.406565" r="3.749996" style="fill:rgb(0,127,0);stroke-width:1" /><circle cx="88.664152" cy="386.010325" r="3.749996" style="fill:rgb(0,127,0);stroke-width:1" /><circle cx="86.785913" cy="369.106293" r="3.749996" style="fill:rgb(0,127,0);stroke-width:1" /><circle cx="86.071618" cy="362.677717" r="3.749996" style="fill:rgb(0,127,0);stroke-width:1" /><circle cx="84.158912" cy="360.764980" r="3.749996" style="fill:rgb(0,127,0);stroke-width:1" /><circle cx="82.329378" cy="358.935427" r="3.749996" style="fill:rgb(0,127,0);stroke-width:1" /><circle cx="80.577694" cy="357.183731" r="3.749996" style="fill:rgb(0,127,0);stroke-width:1" /><circle cx="75.541578" cy="352.147650" r="3.749996" style="fill:rgb(0,127,0);stroke-width:1" /><circle cx="70.505485" cy="347.111500" r="3.749996" style="fill:rgb(0,127,0);stroke-width:1" /><circle cx="65.469369" cy="342.075421" r="3.749996" style="fill:rgb(0,127,0);stroke-width:1" /><circle cx="60.433276" cy="337.039305" r="3.749996" style="fill:rgb(0,127,0);stroke-width:1" /><circle cx="59.517615" cy="328.798413" r="3.749996" style="fill:rgb(0,127,0);stroke-width:1" /><circle cx="58.953457" cy="323.721098" r="3.749996" style="fill:rgb(0,127,0);stroke-width:1" /><circle cx="58.399916" cy="318.739057" r="3.749996" style="fill:rgb(0,127,0);stroke-width:1" /><circle cx="53.224012" cy="313.563142" r="3.749996" style="fill:rgb(0,127,0);stroke-width:1" /><circle cx="47.901616" cy="308.240745" r="3.749996" style="fill:rgb(0,127,0);stroke-width:1" /><circle cx="42.579196" cy="302.918348" r="3.749996" style="fill:rgb(0,127,0);stroke-width:1" /><circle cx="41.673258" cy="302.012444" r="3.749996" style="fill:rgb(0,127,0);stroke-width:1" /><circle cx="40.805072" cy="301.144268" r="3.749996" style="fill:rgb(0,127,0);stroke-width:1" /><circle cx="39.972313" cy="300.311532" r="3.749996" style="fill:rgb(0,127,0);stroke-width:1" /><circle cx="39.172858" cy="299.512088" r="3.749996" style="fill:rgb(0,127,0);stroke-width:1" /><circle cx="38.404763" cy="298.743976" r="3.749996" style="fill:rgb(0,127,0);stroke-width:1" /><circle cx="38.031913" cy="298.371149" r="3.749996" style="fill:rgb(0,127,0);stroke-width:1" /><circle cx="37.666216" cy="298.005436" r="3.749996" style="fill:rgb(0,127,0);stroke-width:1" /><circle cx="33.355013" cy="259.204745" r="3.749996" style="fill:rgb(0,127,0);stroke-width:1" /><circle cx="28.418809" cy="214.778960" r="3.749996" style="fill:rgb(0,127,0);stroke-width:1" /><circle cx="23.682341" cy="210.042503" r="3.749996" style="fill:rgb(0,127,0);stroke-width:1" /><circle cx="19.867547" cy="178.807899" r="3.749996" style="fill:rgb(0,127,0);stroke-width:1" /><circle cx="19.607842" cy="176.470533" r="3.749996" style="fill:rgb(0,127,0);stroke-width:1" /><circle cx="19.354843" cy="174.193561" r="3.749996" style="fill:rgb(0,127,0);stroke-width:1" /><circle cx="19.108281" cy="171.974525" r="3.749996" style="fill:rgb(0,127,0);stroke-width:1" /><circle cx="18.750004" cy="168.749996" r="3.749996" style="fill:rgb(0,127,0);stroke-width:1" /><circle cx="18.518507" cy="166.666701" r="3.749996" style="fill:rgb(0,127,0);stroke-width:1" /><circle cx="17.543860" cy="157.894805" r="3.749996" style="fill:rgb(0,127,0);stroke-width:1" /><circle cx="17.441869" cy="156.976752" r="3.749996" style="fill:rgb(0,127,0);stroke-width:1" /><circle cx="15.202694" cy="136.824355" r="3.749996" style="fill:rgb(0,127,0);stroke-width:1" /><circle cx="10.067113" cy="90.604015" r="3.749996" style="fill:rgb(0,127,0);stroke-width:1" /><circle cx="5.319156" cy="47.872357" r="3.749996" style="fill:rgb(0,127,0);stroke-width:1" /><circle cx="750.000000" cy="750.000000" r="3.749996" style="fill:rgb(0,127,0);stroke-width:1" /><path stroke-linejoin="round" stroke-linecap="round" stroke="rgb(255,255,255)" stroke-width="3.749996" fill="none" d="M 0.000000 750.000000 L 750.000000 750.000000 M 0.000000 750.000000 L 0.000000 0.000000 " />

</svg>