<svg xmlns="http://www.w3.org/2000/svg" version="1.1" width = "750" height = "750" viewBox = "0 0 750 750"  shape-rendering="crispEdges">
<path stroke-linejoin="round" stroke-linecap="round" stroke="rgb(255,255,0)" stroke-width="3.749996" fill="none" d="M 375.000000 750.000000 L 0.000000 0.000000 " />
<path stroke-linejoin="round" stroke-linecap="round" stroke="rgb(63,63,63)" stroke-width="3.749996" fill="none" d="M 0.000000 0.000000 L 750.000000 750.000000 M 375.000000 750.000000 L 124.999992 0.000000 " />
<path stroke-linejoin="round" stroke-linecap="round" stroke="rgb(191,191,191)" stroke-width="3.749996" fill="none" d="M 0.000000 375.000000 L 375.000000 750.000000 M 0.000000 0.000000 L 250.000000 750.000000 " />
<path stroke-linejoin="round" stroke-linecap="round" stroke="rgb(0,0,255)" stroke-width="1.874998" fill="none" d="M 0.000000 750.000000 L 750.000000 731.707336 " />
<path stroke-linejoin="round" stroke-linecap="round" stroke="rgb(255,0,0)" stroke-width="3.749996" fill="none" d="M 371.975800 740.927429 L 375.000000 750.000000 " />
<path stroke-linejoin="round" stroke-linecap="round" stroke="rgb(0,0,255)" stroke-width="1.874998" fill="none" d="M 0.000000 750.000000 L 750.000000 712.500000 " />
<path stroke-linejoin="round" stroke-linecap="round" stroke="rgb(255,0,0)" stroke-width="3.749996" fill="none" d="M 362.903229 731.854858 L 371.975800 740.927429 " />
<path stroke-linejoin="round" stroke-linecap="round" stroke="rgb(0,0,255)" stroke-width="1.874998" fill="none" d="M 0.000000 750.000000 L 750.000000 530.487854 " />
<path stroke-linejoin="round" stroke-linecap="round" stroke="rgb(255,0,0)" stroke-width="3.749996" fill="none" d="M 336.155945 651.612915 L 362.903229 731.854858 " />
<path stroke-linejoin="round" stroke-linecap="round" stroke="rgb(0,0,255)" stroke-width="1.874998" fill="none" d="M 0.000000 750.000000 L 750.000000 493.902405 " />
<path stroke-linejoin="round" stroke-linecap="round" stroke="rgb(255,0,0)" stroke-width="3.749996" fill="none" d="M 331.248596 636.890686 L 336.155945 651.612915 " />
<path stroke-linejoin="round" stroke-linecap="round" stroke="rgb(0,0,255)" stroke-width="1.874998" fill="none" d="M 0.000000 750.000000 L 750.000000 453.947327 " />
<path stroke-linejoin="round" stroke-linecap="round" stroke="rgb(255,0,0)" stroke-width="3.749996" fill="none" d="M 326.050323 621.295898 L 331.248596 636.890686 " />
<path stroke-linejoin="round" stroke-linecap="round" stroke="rgb(0,0,255)" stroke-width="1.874998" fill="none" d="M 0.000000 750.000000 L 750.000000 431.250000 " />
<path stroke-linejoin="round" stroke-linecap="round" stroke="rgb(255,0,0)" stroke-width="3.749996" fill="none" d="M 323.169373 612.653015 L 326.050323 621.295898 " />
<path stroke-linejoin="round" stroke-linecap="round" stroke="rgb(0,0,255)" stroke-width="1.874998" fill="none" d="M 0.000000 750.000000 L 750.000000 375.000000 " />
<path stroke-linejoin="round" stroke-linecap="round" stroke="rgb(255,0,0)" stroke-width="3.749996" fill="none" d="M 316.244324 591.877808 L 323.169403 612.653015 " />
<path stroke-linejoin="round" stroke-linecap="round" stroke="rgb(0,0,255)" stroke-width="1.874998" fill="none" d="M 0.000000 750.000000 L 750.000000 365.384583 " />
<path stroke-linejoin="round" stroke-linecap="round" stroke="rgb(255,0,0)" stroke-width="3.749996" fill="none" d="M 315.090179 588.415283 L 316.244324 591.877808 " />
<path stroke-linejoin="round" stroke-linecap="round" stroke="rgb(0,0,255)" stroke-width="1.874998" fill="none" d="M 0.000000 750.000000 L 750.000000 312.500000 " />
<path stroke-linejoin="round" stroke-linecap="round" stroke="rgb(255,0,0)" stroke-width="3.749996" fill="none" d="M 308.889862 569.814270 L 315.090179 588.415283 " />
<path stroke-linejoin="round" stroke-linecap="round" stroke="rgb(0,0,255)" stroke-width="1.874998" fill="none" d="M 0.000000 750.000000 L 750.000000 85.714279 " />
<path stroke-linejoin="round" stroke-linecap="round" stroke="rgb(255,0,0)" stroke-width="3.749996" fill="none" d="M 284.852509 497.702087 L 308.889862 569.814270 " />
<path stroke-linejoin="round" stroke-linecap="round" stroke="rgb(0,0,255)" stroke-width="1.874998" fill="none" d="M 0.000000 750.000000 L 750.000000 83.333328 " />
<path stroke-linejoin="round" stroke-linecap="round" stroke="rgb(255,0,0)" stroke-width="3.749996" fill="none" d="M 284.619934 497.004486 L 284.852509 497.702087 " />
<path stroke-linejoin="round" stroke-linecap="round" stroke="rgb(0,0,255)" stroke-width="1.874998" fill="none" d="M 0.000000 750.000000 L 750.000000 41.666687 " />
<path stroke-linejoin="round" stroke-linecap="round" stroke="rgb(255,0,0)" stroke-width="3.749996" fill="none" d="M 280.611206 484.978302 L 284.619934 497.004486 " />
<path stroke-linejoin="round" stroke-linecap="round" stroke="rgb(0,0,255)" stroke-width="1.874998" fill="none" d="M 0.000000 750.000000 L 750.000000 0.000000 " />
<path stroke-linejoin="round" stroke-linecap="round" stroke="rgb(255,0,0)" stroke-width="3.749996" fill="none" d="M 276.713837 473.286163 L 280.611206 484.978302 " />
<path stroke-linejoin="round" stroke-linecap="round" stroke="rgb(0,0,255)" stroke-width="1.874998" fill="none" d="M 0.000000 750.000000 L 705.882385 0.000000 " />
<path stroke-linejoin="round" stroke-linecap="round" stroke="rgb(255,0,0)" stroke-width="3.749996" fill="none" d="M 272.456696 460.514771 L 276.713837 473.286163 " />
<path stroke-linejoin="round" stroke-linecap="round" stroke="rgb(0,0,255)" stroke-width="1.874998" fill="none" d="M 0.000000 750.000000 L 666.666687 0.000000 " />
<path stroke-linejoin="round" stroke-linecap="round" stroke="rgb(255,0,0)" stroke-width="3.749996" fill="none" d="M 268.328583 448.130341 L 272.456696 460.514771 " />
<path stroke-linejoin="round" stroke-linecap="round" stroke="rgb(0,0,255)" stroke-width="1.874998" fill="none" d="M 0.000000 750.000000 L 631.578979 0.000000 " />
<path stroke-linejoin="round" stroke-linecap="round" stroke="rgb(255,0,0)" stroke-width="3.749996" fill="none" d="M 264.323639 436.115662 L 268.328583 448.130341 " />
<path stroke-linejoin="round" stroke-linecap="round" stroke="rgb(0,0,255)" stroke-width="1.874998" fill="none" d="M 0.000000 750.000000 L 603.658569 0.000000 " />
<path stroke-linejoin="round" stroke-linecap="round" stroke="rgb(255,0,0)" stroke-width="3.749996" fill="none" d="M 260.901611 425.849487 L 264.323639 436.115662 " />
<path stroke-linejoin="round" stroke-linecap="round" stroke="rgb(0,0,255)" stroke-width="1.874998" fill="none" d="M 0.000000 750.000000 L 596.153870 0.000000 " />
<path stroke-linejoin="round" stroke-linecap="round" stroke="rgb(255,0,0)" stroke-width="3.749996" fill="none" d="M 259.943329 422.974518 L 260.901611 425.849487 " />
<path stroke-linejoin="round" stroke-linecap="round" stroke="rgb(0,0,255)" stroke-width="1.874998" fill="none" d="M 0.000000 750.000000 L 562.500000 0.000000 " />
<path stroke-linejoin="round" stroke-linecap="round" stroke="rgb(255,0,0)" stroke-width="3.749996" fill="none" d="M 255.428146 409.429108 L 259.943329 422.974518 " />
<path stroke-linejoin="round" stroke-linecap="round" stroke="rgb(0,0,255)" stroke-width="1.874998" fill="none" d="M 0.000000 750.000000 L 545.454590 0.000000 " />
<path stroke-linejoin="round" stroke-linecap="round" stroke="rgb(255,0,0)" stroke-width="3.749996" fill="none" d="M 252.995514 402.131165 L 255.428146 409.429108 " />
<path stroke-linejoin="round" stroke-linecap="round" stroke="rgb(0,0,255)" stroke-width="1.874998" fill="none" d="M 0.000000 750.000000 L 483.333313 0.000000 " />
<path stroke-linejoin="round" stroke-linecap="round" stroke="rgb(255,0,0)" stroke-width="3.749996" fill="none" d="M 243.172760 372.662933 L 252.995514 402.131165 " />
<path stroke-linejoin="round" stroke-linecap="round" stroke="rgb(0,0,255)" stroke-width="1.874998" fill="none" d="M 0.000000 750.000000 L 462.765961 0.000000 " />
<path stroke-linejoin="round" stroke-linecap="round" stroke="rgb(255,0,0)" stroke-width="3.749996" fill="none" d="M 239.543320 361.774597 L 243.172760 372.662933 " />
<path stroke-linejoin="round" stroke-linecap="round" stroke="rgb(0,0,255)" stroke-width="1.874998" fill="none" d="M 0.000000 750.000000 L 413.265289 0.000000 " />
<path stroke-linejoin="round" stroke-linecap="round" stroke="rgb(255,0,0)" stroke-width="3.749996" fill="none" d="M 229.885361 332.800629 L 239.543320 361.774597 " />
<path stroke-linejoin="round" stroke-linecap="round" stroke="rgb(0,0,255)" stroke-width="1.874998" fill="none" d="M 0.000000 750.000000 L 375.000000 0.000000 " />
<path stroke-linejoin="round" stroke-linecap="round" stroke="rgb(255,0,0)" stroke-width="3.749996" fill="none" d="M 221.371094 307.257812 L 229.885391 332.800568 " />
<path stroke-linejoin="round" stroke-linecap="round" stroke="rgb(0,0,255)" stroke-width="1.874998" fill="none" d="M 0.000000 750.000000 L 361.111084 0.000000 " />
<path stroke-linejoin="round" stroke-linecap="round" stroke="rgb(255,0,0)" stroke-width="3.749996" fill="none" d="M 218.016968 297.195496 L 221.371094 307.257812 " />
<path stroke-linejoin="round" stroke-linecap="round" stroke="rgb(0,0,255)" stroke-width="1.874998" fill="none" d="M 0.000000 750.000000 L 313.636383 0.000000 " />
<path stroke-linejoin="round" stroke-linecap="round" stroke="rgb(255,0,0)" stroke-width="3.749996" fill="none" d="M 205.303833 259.056061 L 218.016937 297.195557 " />
<path stroke-linejoin="round" stroke-linecap="round" stroke="rgb(0,0,255)" stroke-width="1.874998" fill="none" d="M 0.000000 750.000000 L 284.482758 0.000000 " />
<path stroke-linejoin="round" stroke-linecap="round" stroke="rgb(255,0,0)" stroke-width="3.749996" fill="none" d="M 196.377548 232.277328 L 205.303833 259.056061 " />
<path stroke-linejoin="round" stroke-linecap="round" stroke="rgb(0,0,255)" stroke-width="1.874998" fill="none" d="M 0.000000 750.000000 L 266.949158 0.000000 " />
<path stroke-linejoin="round" stroke-linecap="round" stroke="rgb(255,0,0)" stroke-width="3.749996" fill="none" d="M 190.524277 214.717499 L 196.377548 232.277328 " />
<path stroke-linejoin="round" stroke-linecap="round" stroke="rgb(0,0,255)" stroke-width="1.874998" fill="none" d="M 0.000000 750.000000 L 266.129059 0.000000 " />
<path stroke-linejoin="round" stroke-linecap="round" stroke="rgb(255,0,0)" stroke-width="3.749996" fill="none" d="M 190.240768 213.866913 L 190.524277 214.717499 " />
<path stroke-linejoin="round" stroke-linecap="round" stroke="rgb(0,0,255)" stroke-width="1.874998" fill="none" d="M 0.000000 750.000000 L 250.000000 0.000000 " />
<path stroke-linejoin="round" stroke-linecap="round" stroke="rgb(255,0,0)" stroke-width="3.749996" fill="none" d="M 184.475891 196.572296 L 190.240768 213.866913 " />
<path stroke-linejoin="round" stroke-linecap="round" stroke="rgb(0,0,255)" stroke-width="1.874998" fill="none" d="M 0.000000 750.000000 L 239.130417 0.000000 " />
<path stroke-linejoin="round" stroke-linecap="round" stroke="rgb(255,0,0)" stroke-width="3.749996" fill="none" d="M 180.376404 184.273926 L 184.475891 196.572296 " />
<path stroke-linejoin="round" stroke-linecap="round" stroke="rgb(0,0,255)" stroke-width="1.874998" fill="none" d="M 0.000000 750.000000 L 225.000015 0.000000 " />
<path stroke-linejoin="round" stroke-linecap="round" stroke="rgb(255,0,0)" stroke-width="3.749996" fill="none" d="M 173.076935 173.076920 L 180.376404 184.273926 " />
<path stroke-linejoin="round" stroke-linecap="round" stroke="rgb(0,0,255)" stroke-width="1.874998" fill="none" d="M 0.000000 750.000000 L 211.267609 0.000000 " />
<path stroke-linejoin="round" stroke-linecap="round" stroke="rgb(255,0,0)" stroke-width="3.749996" fill="none" d="M 164.835159 164.835205 L 173.076920 173.076950 " />
<path stroke-linejoin="round" stroke-linecap="round" stroke="rgb(0,0,255)" stroke-width="1.874998" fill="none" d="M 0.000000 750.000000 L 205.479446 0.000000 " />
<path stroke-linejoin="round" stroke-linecap="round" stroke="rgb(255,0,0)" stroke-width="3.749996" fill="none" d="M 161.290344 161.290253 L 164.835175 164.835114 " />
<path stroke-linejoin="round" stroke-linecap="round" stroke="rgb(0,0,255)" stroke-width="1.874998" fill="none" d="M 0.000000 750.000000 L 198.529419 0.000000 " />
<path stroke-linejoin="round" stroke-linecap="round" stroke="rgb(255,0,0)" stroke-width="3.749996" fill="none" d="M 156.976746 156.976730 L 161.290298 161.290344 " />
<path stroke-linejoin="round" stroke-linecap="round" stroke="rgb(0,0,255)" stroke-width="1.874998" fill="none" d="M 0.000000 750.000000 L 182.432434 0.000000 " />
<path stroke-linejoin="round" stroke-linecap="round" stroke="rgb(255,0,0)" stroke-width="3.749996" fill="none" d="M 146.739120 146.739182 L 156.976746 156.976730 " />
<path stroke-linejoin="round" stroke-linecap="round" stroke="rgb(0,0,255)" stroke-width="1.874998" fill="none" d="M 0.000000 750.000000 L 179.577469 0.000000 " />
<path stroke-linejoin="round" stroke-linecap="round" stroke="rgb(255,0,0)" stroke-width="3.749996" fill="none" d="M 144.886353 144.886353 L 146.739120 146.739182 " />
<path stroke-linejoin="round" stroke-linecap="round" stroke="rgb(0,0,255)" stroke-width="1.874998" fill="none" d="M 0.000000 750.000000 L 175.781250 0.000000 " />
<path stroke-linejoin="round" stroke-linecap="round" stroke="rgb(255,0,0)" stroke-width="3.749996" fill="none" d="M 142.405045 142.405045 L 144.886353 144.886353 " />
<path stroke-linejoin="round" stroke-linecap="round" stroke="rgb(0,0,255)" stroke-width="1.874998" fill="none" d="M 0.000000 750.000000 L 162.162155 0.000000 " />
<path stroke-linejoin="round" stroke-linecap="round" stroke="rgb(255,0,0)" stroke-width="3.749996" fill="none" d="M 133.333328 133.333328 L 142.405045 142.405045 " />
<path stroke-linejoin="round" stroke-linecap="round" stroke="rgb(0,0,255)" stroke-width="1.874998" fill="none" d="M 0.000000 750.000000 L 157.894745 0.000000 " />
<path stroke-linejoin="round" stroke-linecap="round" stroke="rgb(255,0,0)" stroke-width="3.749996" fill="none" d="M 130.434769 130.434845 L 133.333328 133.333374 " />
<path stroke-linejoin="round" stroke-linecap="round" stroke="rgb(0,0,255)" stroke-width="1.874998" fill="none" d="M 0.000000 750.000000 L 153.846146 0.000000 " />
<path stroke-linejoin="round" stroke-linecap="round" stroke="rgb(255,0,0)" stroke-width="3.749996" fill="none" d="M 127.659561 127.659607 L 130.434769 130.434845 " />
<path stroke-linejoin="round" stroke-linecap="round" stroke="rgb(0,0,255)" stroke-width="1.874998" fill="none" d="M 0.000000 750.000000 L 140.625000 0.000000 " />
<path stroke-linejoin="round" stroke-linecap="round" stroke="rgb(255,0,0)" stroke-width="3.749996" fill="none" d="M 118.421051 118.421005 L 127.659561 127.659645 " />
<path stroke-linejoin="round" stroke-linecap="round" stroke="rgb(0,0,255)" stroke-width="1.874998" fill="none" d="M 0.000000 750.000000 L 135.416672 0.000000 " />
<path stroke-linejoin="round" stroke-linecap="round" stroke="rgb(255,0,0)" stroke-width="3.749996" fill="none" d="M 114.705879 114.705917 L 118.421051 118.421135 " />
<path stroke-linejoin="round" stroke-linecap="round" stroke="rgb(0,0,255)" stroke-width="1.874998" fill="none" d="M 0.000000 750.000000 L 128.048798 0.000000 " />
<path stroke-linejoin="round" stroke-linecap="round" stroke="rgb(255,0,0)" stroke-width="3.749996" fill="none" d="M 109.374985 109.375031 L 114.705879 114.705917 " />
<path stroke-linejoin="round" stroke-linecap="round" stroke="rgb(0,0,255)" stroke-width="1.874998" fill="none" d="M 0.000000 750.000000 L 116.197182 0.000000 " />
<path stroke-linejoin="round" stroke-linecap="round" stroke="rgb(255,0,0)" stroke-width="3.749996" fill="none" d="M 100.609749 100.609886 L 109.374985 109.375076 " />
<path stroke-linejoin="round" stroke-linecap="round" stroke="rgb(0,0,255)" stroke-width="1.874998" fill="none" d="M 0.000000 750.000000 L 104.166672 0.000000 " />
<path stroke-linejoin="round" stroke-linecap="round" stroke="rgb(255,0,0)" stroke-width="3.749996" fill="none" d="M 91.463394 91.463593 L 100.609726 100.609932 " />
<path stroke-linejoin="round" stroke-linecap="round" stroke="rgb(0,0,255)" stroke-width="1.874998" fill="none" d="M 0.000000 750.000000 L 100.609749 0.000000 " />
<path stroke-linejoin="round" stroke-linecap="round" stroke="rgb(255,0,0)" stroke-width="3.749996" fill="none" d="M 88.709679 88.709724 L 91.463394 91.463593 " />
<path stroke-linejoin="round" stroke-linecap="round" stroke="rgb(0,0,255)" stroke-width="1.874998" fill="none" d="M 0.000000 750.000000 L 98.684212 0.000000 " />
<path stroke-linejoin="round" stroke-linecap="round" stroke="rgb(255,0,0)" stroke-width="3.749996" fill="none" d="M 87.209297 87.209435 L 88.709663 88.709816 " />
<path stroke-linejoin="round" stroke-linecap="round" stroke="rgb(0,0,255)" stroke-width="1.874998" fill="none" d="M 0.000000 750.000000 L 95.930237 0.000000 " />
<path stroke-linejoin="round" stroke-linecap="round" stroke="rgb(255,0,0)" stroke-width="3.749996" fill="none" d="M 85.051552 85.051552 L 87.209297 87.209343 " />
<path stroke-linejoin="round" stroke-linecap="round" stroke="rgb(0,0,255)" stroke-width="1.874998" fill="none" d="M 0.000000 750.000000 L 87.662346 0.000000 " />
<path stroke-linejoin="round" stroke-linecap="round" stroke="rgb(255,0,0)" stroke-width="3.749996" fill="none" d="M 78.488365 78.488365 L 85.051552 85.051552 " />
<path stroke-linejoin="round" stroke-linecap="round" stroke="rgb(0,0,255)" stroke-width="1.874998" fill="none" d="M 0.000000 750.000000 L 85.443039 0.000000 " />
<path stroke-linejoin="round" stroke-linecap="round" stroke="rgb(255,0,0)" stroke-width="3.749996" fill="none" d="M 76.704536 76.704605 L 78.488365 78.488457 " />
<path stroke-linejoin="round" stroke-linecap="round" stroke="rgb(0,0,255)" stroke-width="1.874998" fill="none" d="M 0.000000 750.000000 L 84.269669 0.000000 " />
<path stroke-linejoin="round" stroke-linecap="round" stroke="rgb(255,0,0)" stroke-width="3.749996" fill="none" d="M 75.757584 75.757561 L 76.704536 76.704605 " />
<path stroke-linejoin="round" stroke-linecap="round" stroke="rgb(0,0,255)" stroke-width="1.874998" fill="none" d="M 0.000000 750.000000 L 74.999992 0.000000 " />
<path stroke-linejoin="round" stroke-linecap="round" stroke="rgb(255,0,0)" stroke-width="3.749996" fill="none" d="M 68.181824 68.181801 L 75.757584 75.757561 " />
<path stroke-linejoin="round" stroke-linecap="round" stroke="rgb(0,0,255)" stroke-width="1.874998" fill="none" d="M 0.000000 750.000000 L 73.170731 0.000000 " />
<path stroke-linejoin="round" stroke-linecap="round" stroke="rgb(255,0,0)" stroke-width="3.749996" fill="none" d="M 66.666664 66.666573 L 68.181824 68.181755 " />
<path stroke-linejoin="round" stroke-linecap="round" stroke="rgb(0,0,255)" stroke-width="1.874998" fill="none" d="M 0.000000 750.000000 L 63.253014 0.000000 " />
<path stroke-linejoin="round" stroke-linecap="round" stroke="rgb(255,0,0)" stroke-width="3.749996" fill="none" d="M 58.333328 58.333397 L 66.666664 66.666573 " />
<path stroke-linejoin="round" stroke-linecap="round" stroke="rgb(0,0,255)" stroke-width="1.874998" fill="none" d="M 0.000000 750.000000 L 61.764702 0.000000 " />
<path stroke-linejoin="round" stroke-linecap="round" stroke="rgb(255,0,0)" stroke-width="3.749996" fill="none" d="M 57.065205 57.065292 L 58.333328 58.333485 " />
<path stroke-linejoin="round" stroke-linecap="round" stroke="rgb(0,0,255)" stroke-width="1.874998" fill="none" d="M 0.000000 750.000000 L 55.851059 0.000000 " />
<path stroke-linejoin="round" stroke-linecap="round" stroke="rgb(255,0,0)" stroke-width="3.749996" fill="none" d="M 51.980206 51.980183 L 57.065205 57.065292 " />
<path stroke-linejoin="round" stroke-linecap="round" stroke="rgb(0,0,255)" stroke-width="1.874998" fill="none" d="M 0.000000 750.000000 L 52.325584 0.000000 " />
<path stroke-linejoin="round" stroke-linecap="round" stroke="rgb(255,0,0)" stroke-width="3.749996" fill="none" d="M 48.913033 48.913078 L 51.980206 51.980183 " />
<path stroke-linejoin="round" stroke-linecap="round" stroke="rgb(0,0,255)" stroke-width="1.874998" fill="none" d="M 0.000000 750.000000 L 39.062508 0.000000 " />
<path stroke-linejoin="round" stroke-linecap="round" stroke="rgb(255,0,0)" stroke-width="3.749996" fill="none" d="M 37.128723 37.128613 L 48.913033 48.913078 " />
<path stroke-linejoin="round" stroke-linecap="round" stroke="rgb(0,0,255)" stroke-width="1.874998" fill="none" d="M 0.000000 750.000000 L 32.608688 0.000000 " />
<path stroke-linejoin="round" stroke-linecap="round" stroke="rgb(255,0,0)" stroke-width="3.749996" fill="none" d="M 31.249992 31.249969 L 37.128723 37.128613 " />
<circle cx="371.975809" cy="740.927428" r="3.750000" style="fill:rgb(0,127,0);stroke-width:1" /><circle cx="362.903237" cy="731.854834" r="3.750000" style="fill:rgb(0,127,0);stroke-width:1" /><circle cx="336.155936" cy="651.612908" r="3.749999" style="fill:rgb(0,127,0);stroke-width:1" /><circle cx="331.248589" cy="636.890709" r="3.750001" style="fill:rgb(0,127,0);stroke-width:1" /><circle cx="326.050334" cy="621.295922" r="3.750001" style="fill:rgb(0,127,0);stroke-width:1" /><circle cx="323.169373" cy="612.653017" r="3.750002" style="fill:rgb(0,127,0);stroke-width:1" /><circle cx="316.244334" cy="591.877833" r="3.750002" style="fill:rgb(0,127,0);stroke-width:1" /><circle cx="315.090179" cy="588.415280" r="3.750002" style="fill:rgb(0,127,0);stroke-width:1" /><circle cx="308.889851" cy="569.814250" r="3.750002" style="fill:rgb(0,127,0);stroke-width:1" /><circle cx="284.852497" cy="497.702077" r="3.749999" style="fill:rgb(0,127,0);stroke-width:1" /><circle cx="284.619927" cy="497.004502" r="3.749999" style="fill:rgb(0,127,0);stroke-width:1" /><circle cx="280.611210" cy="484.978303" r="3.749999" style="fill:rgb(0,127,0);stroke-width:1" /><circle cx="276.713826" cy="473.286174" r="3.749996" style="fill:rgb(0,127,0);stroke-width:1" /><circle cx="272.456691" cy="460.514769" r="3.749996" style="fill:rgb(0,127,0);stroke-width:1" /><circle cx="268.328570" cy="448.130362" r="3.749996" style="fill:rgb(0,127,0);stroke-width:1" /><circle cx="264.323652" cy="436.115652" r="3.749996" style="fill:rgb(0,127,0);stroke-width:1" /><circle cx="260.901622" cy="425.849497" r="3.749996" style="fill:rgb(0,127,0);stroke-width:1" /><circle cx="259.943314" cy="422.974549" r="3.749996" style="fill:rgb(0,127,0);stroke-width:1" /><circle cx="255.428150" cy="409.429125" r="3.749996" style="fill:rgb(0,127,0);stroke-width:1" /><circle cx="252.995521" cy="402.131170" r="3.749996" style="fill:rgb(0,127,0);stroke-width:1" /><circle cx="243.172757" cy="372.662947" r="3.749996" style="fill:rgb(0,127,0);stroke-width:1" /><circle cx="239.543326" cy="361.774608" r="3.749996" style="fill:rgb(0,127,0);stroke-width:1" /><circle cx="229.885362" cy="332.800627" r="3.749996" style="fill:rgb(0,127,0);stroke-width:1" /><circle cx="221.371092" cy="307.257816" r="3.749996" style="fill:rgb(0,127,0);stroke-width:1" /><circle cx="218.016967" cy="297.195509" r="3.749996" style="fill:rgb(0,127,0);stroke-width:1" /><circle cx="205.303833" cy="259.056062" r="3.749996" style="fill:rgb(0,127,0);stroke-width:1" /><circle cx="196.377553" cy="232.277334" r="3.749996" style="fill:rgb(0,127,0);stroke-width:1" /><circle cx="190.524280" cy="214.717492" r="3.749996" style="fill:rgb(0,127,0);stroke-width:1" /><circle cx="190.240771" cy="213.866919" r="3.749996" style="fill:rgb(0,127,0);stroke-width:1" /><circle cx="184.475899" cy="196.572304" r="3.749996" style="fill:rgb(0,127,0);stroke-width:1" /><circle cx="180.376410" cy="184.273928" r="3.749996" style="fill:rgb(0,127,0);stroke-width:1" /><circle cx="173.076935" cy="173.076913" r="3.749996" style="fill:rgb(0,127,0);stroke-width:1" /><circle cx="164.835155" cy="164.835200" r="3.749996" style="fill:rgb(0,127,0);stroke-width:1" /><circle cx="161.290348" cy="161.290258" r="3.749996" style="fill:rgb(0,127,0);stroke-width:1" /><circle cx="156.976752" cy="156.976730" r="3.749996" style="fill:rgb(0,127,0);stroke-width:1" /><circle cx="146.739118" cy="146.739185" r="3.749996" style="fill:rgb(0,127,0);stroke-width:1" /><circle cx="144.886360" cy="144.886360" r="3.749996" style="fill:rgb(0,127,0);stroke-width:1" /><circle cx="142.405048" cy="142.405048" r="3.749996" style="fill:rgb(0,127,0);stroke-width:1" /><circle cx="133.333325" cy="133.333325" r="3.749996" style="fill:rgb(0,127,0);stroke-width:1" /><circle cx="130.434774" cy="130.434841" r="3.749996" style="fill:rgb(0,127,0);stroke-width:1" /><circle cx="127.659559" cy="127.659604" r="3.749996" style="fill:rgb(0,127,0);stroke-width:1" /><circle cx="118.421048" cy="118.421003" r="3.749996" style="fill:rgb(0,127,0);stroke-width:1" /><circle cx="114.705876" cy="114.705920" r="3.749996" style="fill:rgb(0,127,0);stroke-width:1" /><circle cx="109.374985" cy="109.375030" r="3.749996" style="fill:rgb(0,127,0);stroke-width:1" /><circle cx="100.609750" cy="100.609884" r="3.749996" style="fill:rgb(0,127,0);stroke-width:1" /><circle cx="91.463394" cy="91.463596" r="3.749996" style="fill:rgb(0,127,0);stroke-width:1" /><circle cx="88.709682" cy="88.709727" r="3.749996" style="fill:rgb(0,127,0);stroke-width:1" /><circle cx="87.209299" cy="87.209433" r="3.749996" style="fill:rgb(0,127,0);stroke-width:1" /><circle cx="85.051551" cy="85.051551" r="3.749996" style="fill:rgb(0,127,0);stroke-width:1" /><circle cx="78.488365" cy="78.488365" r="3.749996" style="fill:rgb(0,127,0);stroke-width:1" /><circle cx="76.704539" cy="76.704606" r="3.749996" style="fill:rgb(0,127,0);stroke-width:1" /><circle cx="75.757585" cy="75.757563" r="3.749996" style="fill:rgb(0,127,0);stroke-width:1" /><circle cx="68.181820" cy="68.181798" r="3.749996" style="fill:rgb(0,127,0);stroke-width:1" /><circle cx="66.666663" cy="66.666573" r="3.749996" style="fill:rgb(0,127,0);stroke-width:1" /><circle cx="58.333330" cy="58.333397" r="3.749996" style="fill:rgb(0,127,0);stroke-width:1" /><circle cx="57.065204" cy="57.065293" r="3.749996" style="fill:rgb(0,127,0);stroke-width:1" /><circle cx="51.980205" cy="51.980183" r="3.749996" style="fill:rgb(0,127,0);stroke-width:1" /><circle cx="48.913032" cy="48.913077" r="3.749996" style="fill:rgb(0,127,0);stroke-width:1" /><circle cx="37.128724" cy="37.128612" r="3.749996" style="fill:rgb(0,127,0);stroke-width:1" /><circle cx="31.249993" cy="31.249970" r="3.749996" style="fill:rgb(0,127,0);stroke-width:1" /><path stroke-linejoin="round" stroke-linecap="round" stroke="rgb(255,255,255)" stroke-width="3.749996" fill="none" d="M 0.000000 750.000000 L 750.000000 750.000000 M 0.000000 750.000000 L 0.000000 0.000000 " />

</svg>