<svg xmlns="http://www.w3.org/2000/svg" version="1.1" width = "750" height = "750" viewBox = "0 0 750 750"  shape-rendering="crispEdges">
<path stroke-linejoin="round" stroke-linecap="round" stroke="rgb(255,255,0)" stroke-width="3.749996" fill="none" d="M 375.000000 750.000000 L 0.000000 0.000000 " />
<path stroke-linejoin="round" stroke-linecap="round" stroke="rgb(63,63,63)" stroke-width="3.749996" fill="none" d="M 0.000000 0.000000 L 750.000000 750.000000 M 375.000000 750.000000 L 124.999992 0.000000 " />
<path stroke-linejoin="round" stroke-linecap="round" stroke="rgb(191,191,191)" stroke-width="3.749996" fill="none" d="M 0.000000 375.000000 L 375.000000 750.000000 M 0.000000 0.000000 L 250.000000 750.000000 " />
<path stroke-linejoin="round" stroke-linecap="round" stroke="rgb(0,0,255)" stroke-width="1.874998" fill="none" d="M 0.000000 750.000000 L 750.000000 575.581421 " />
<path stroke-linejoin="round" stroke-linecap="round" stroke="rgb(255,0,0)" stroke-width="3.749996" fill="none" d="M 348.021576 669.064758 L 375.000000 750.000000 " />
<path stroke-linejoin="round" stroke-linecap="round" stroke="rgb(0,0,255)" stroke-width="1.874998" fill="none" d="M 0.000000 750.000000 L 750.000000 540.697693 " />
<path stroke-linejoin="round" stroke-linecap="round" stroke="rgb(255,0,0)" stroke-width="3.749996" fill="none" d="M 343.085083 654.255310 L 348.021576 669.064758 " />
<path stroke-linejoin="round" stroke-linecap="round" stroke="rgb(0,0,255)" stroke-width="1.874998" fill="none" d="M 0.000000 750.000000 L 750.000000 528.409119 " />
<path stroke-linejoin="round" stroke-linecap="round" stroke="rgb(255,0,0)" stroke-width="3.749996" fill="none" d="M 341.379272 649.137939 L 343.085052 654.255310 " />
<path stroke-linejoin="round" stroke-linecap="round" stroke="rgb(0,0,255)" stroke-width="1.874998" fill="none" d="M 0.000000 750.000000 L 750.000000 494.318146 " />
<path stroke-linejoin="round" stroke-linecap="round" stroke="rgb(255,0,0)" stroke-width="3.749996" fill="none" d="M 336.734650 635.204102 L 341.379272 649.137939 " />
<path stroke-linejoin="round" stroke-linecap="round" stroke="rgb(0,0,255)" stroke-width="1.874998" fill="none" d="M 0.000000 750.000000 L 750.000000 420.731720 " />
<path stroke-linejoin="round" stroke-linecap="round" stroke="rgb(255,0,0)" stroke-width="3.749996" fill="none" d="M 327.127625 606.382996 L 336.734650 635.204102 " />
<path stroke-linejoin="round" stroke-linecap="round" stroke="rgb(0,0,255)" stroke-width="1.874998" fill="none" d="M 0.000000 750.000000 L 750.000000 384.146332 " />
<path stroke-linejoin="round" stroke-linecap="round" stroke="rgb(255,0,0)" stroke-width="3.749996" fill="none" d="M 322.552429 592.657349 L 327.127625 606.382996 " />
<path stroke-linejoin="round" stroke-linecap="round" stroke="rgb(0,0,255)" stroke-width="1.874998" fill="none" d="M 0.000000 750.000000 L 750.000000 326.923065 " />
<path stroke-linejoin="round" stroke-linecap="round" stroke="rgb(255,0,0)" stroke-width="3.749996" fill="none" d="M 315.647430 571.942444 L 322.552429 592.657349 " />
<path stroke-linejoin="round" stroke-linecap="round" stroke="rgb(0,0,255)" stroke-width="1.874998" fill="none" d="M 0.000000 750.000000 L 750.000000 288.461517 " />
<path stroke-linejoin="round" stroke-linecap="round" stroke="rgb(255,0,0)" stroke-width="3.749996" fill="none" d="M 311.170166 558.510681 L 315.647430 571.942444 " />
<path stroke-linejoin="round" stroke-linecap="round" stroke="rgb(0,0,255)" stroke-width="1.874998" fill="none" d="M 0.000000 750.000000 L 750.000000 281.250000 " />
<path stroke-linejoin="round" stroke-linecap="round" stroke="rgb(255,0,0)" stroke-width="3.749996" fill="none" d="M 310.344788 556.034546 L 311.170166 558.510681 " />
<path stroke-linejoin="round" stroke-linecap="round" stroke="rgb(0,0,255)" stroke-width="1.874998" fill="none" d="M 0.000000 750.000000 L 750.000000 222.972977 " />
<path stroke-linejoin="round" stroke-linecap="round" stroke="rgb(255,0,0)" stroke-width="3.749996" fill="none" d="M 303.832062 536.496399 L 310.344788 556.034546 " />
<path stroke-linejoin="round" stroke-linecap="round" stroke="rgb(0,0,255)" stroke-width="1.874998" fill="none" d="M 0.000000 750.000000 L 750.000000 141.891891 " />
<path stroke-linejoin="round" stroke-linecap="round" stroke="rgb(255,0,0)" stroke-width="3.749996" fill="none" d="M 295.212738 510.638336 L 303.832062 536.496399 " />
<path stroke-linejoin="round" stroke-linecap="round" stroke="rgb(0,0,255)" stroke-width="1.874998" fill="none" d="M 0.000000 750.000000 L 750.000000 101.351334 " />
<path stroke-linejoin="round" stroke-linecap="round" stroke="rgb(255,0,0)" stroke-width="3.749996" fill="none" d="M 291.083862 498.251801 L 295.212738 510.638336 " />
<path stroke-linejoin="round" stroke-linecap="round" stroke="rgb(0,0,255)" stroke-width="1.874998" fill="none" d="M 0.000000 750.000000 L 750.000000 64.285713 " />
<path stroke-linejoin="round" stroke-linecap="round" stroke="rgb(255,0,0)" stroke-width="3.749996" fill="none" d="M 287.408722 487.226318 L 291.083862 498.251801 " />
<path stroke-linejoin="round" stroke-linecap="round" stroke="rgb(0,0,255)" stroke-width="1.874998" fill="none" d="M 0.000000 750.000000 L 750.000000 62.499985 " />
<path stroke-linejoin="round" stroke-linecap="round" stroke="rgb(255,0,0)" stroke-width="3.749996" fill="none" d="M 287.234009 486.702148 L 287.408722 487.226318 " />
<path stroke-linejoin="round" stroke-linecap="round" stroke="rgb(0,0,255)" stroke-width="1.874998" fill="none" d="M 0.000000 750.000000 L 750.000000 20.833344 " />
<path stroke-linejoin="round" stroke-linecap="round" stroke="rgb(255,0,0)" stroke-width="3.749996" fill="none" d="M 283.216766 474.650421 L 287.234009 486.702148 " />
<path stroke-linejoin="round" stroke-linecap="round" stroke="rgb(0,0,255)" stroke-width="1.874998" fill="none" d="M 0.000000 750.000000 L 689.189209 0.000000 " />
<path stroke-linejoin="round" stroke-linecap="round" stroke="rgb(255,0,0)" stroke-width="3.749996" fill="none" d="M 275.179840 450.539581 L 283.216766 474.650421 " />
<path stroke-linejoin="round" stroke-linecap="round" stroke="rgb(0,0,255)" stroke-width="1.874998" fill="none" d="M 0.000000 750.000000 L 671.052612 0.000000 " />
<path stroke-linejoin="round" stroke-linecap="round" stroke="rgb(255,0,0)" stroke-width="3.749996" fill="none" d="M 273.214264 444.642883 L 275.179840 450.539581 " />
<path stroke-linejoin="round" stroke-linecap="round" stroke="rgb(0,0,255)" stroke-width="1.874998" fill="none" d="M 0.000000 750.000000 L 540.697693 0.000000 " />
<path stroke-linejoin="round" stroke-linecap="round" stroke="rgb(255,0,0)" stroke-width="3.749996" fill="none" d="M 256.433807 394.301544 L 273.214264 444.642883 " />
<path stroke-linejoin="round" stroke-linecap="round" stroke="rgb(0,0,255)" stroke-width="1.874998" fill="none" d="M 0.000000 750.000000 L 526.595764 0.000000 " />
<path stroke-linejoin="round" stroke-linecap="round" stroke="rgb(255,0,0)" stroke-width="3.749996" fill="none" d="M 254.280792 387.842499 L 256.433807 394.301544 " />
<path stroke-linejoin="round" stroke-linecap="round" stroke="rgb(0,0,255)" stroke-width="1.874998" fill="none" d="M 0.000000 750.000000 L 505.102020 0.000000 " />
<path stroke-linejoin="round" stroke-linecap="round" stroke="rgb(255,0,0)" stroke-width="3.749996" fill="none" d="M 250.844574 377.533783 L 254.280792 387.842499 " />
<path stroke-linejoin="round" stroke-linecap="round" stroke="rgb(0,0,255)" stroke-width="1.874998" fill="none" d="M 0.000000 750.000000 L 455.882385 0.000000 " />
<path stroke-linejoin="round" stroke-linecap="round" stroke="rgb(255,0,0)" stroke-width="3.749996" fill="none" d="M 242.187469 351.562531 L 250.844574 377.533783 " />
<path stroke-linejoin="round" stroke-linecap="round" stroke="rgb(0,0,255)" stroke-width="1.874998" fill="none" d="M 0.000000 750.000000 L 438.679230 0.000000 " />
<path stroke-linejoin="round" stroke-linecap="round" stroke="rgb(255,0,0)" stroke-width="3.749996" fill="none" d="M 238.869827 341.609619 L 242.187469 351.562531 " />
<path stroke-linejoin="round" stroke-linecap="round" stroke="rgb(0,0,255)" stroke-width="1.874998" fill="none" d="M 0.000000 750.000000 L 424.528290 0.000000 " />
<path stroke-linejoin="round" stroke-linecap="round" stroke="rgb(255,0,0)" stroke-width="3.749996" fill="none" d="M 236.013962 333.041992 L 238.869827 341.609619 " />
<path stroke-linejoin="round" stroke-linecap="round" stroke="rgb(0,0,255)" stroke-width="1.874998" fill="none" d="M 0.000000 750.000000 L 375.000000 0.000000 " />
<path stroke-linejoin="round" stroke-linecap="round" stroke="rgb(255,0,0)" stroke-width="3.749996" fill="none" d="M 224.999969 300.000061 L 236.013962 333.041992 " />
<path stroke-linejoin="round" stroke-linecap="round" stroke="rgb(0,0,255)" stroke-width="1.874998" fill="none" d="M 0.000000 750.000000 L 362.500000 0.000000 " />
<path stroke-linejoin="round" stroke-linecap="round" stroke="rgb(255,0,0)" stroke-width="3.749996" fill="none" d="M 221.938766 290.816376 L 224.999969 300.000061 " />
<path stroke-linejoin="round" stroke-linecap="round" stroke="rgb(0,0,255)" stroke-width="1.874998" fill="none" d="M 0.000000 750.000000 L 350.806427 0.000000 " />
<path stroke-linejoin="round" stroke-linecap="round" stroke="rgb(255,0,0)" stroke-width="3.749996" fill="none" d="M 218.959717 281.879211 L 221.938766 290.816376 " />
<path stroke-linejoin="round" stroke-linecap="round" stroke="rgb(0,0,255)" stroke-width="1.874998" fill="none" d="M 0.000000 750.000000 L 343.220337 0.000000 " />
<path stroke-linejoin="round" stroke-linecap="round" stroke="rgb(255,0,0)" stroke-width="3.749996" fill="none" d="M 216.964264 275.892914 L 218.959747 281.879150 " />
<path stroke-linejoin="round" stroke-linecap="round" stroke="rgb(0,0,255)" stroke-width="1.874998" fill="none" d="M 0.000000 750.000000 L 321.428589 0.000000 " />
<path stroke-linejoin="round" stroke-linecap="round" stroke="rgb(255,0,0)" stroke-width="3.749996" fill="none" d="M 210.937485 257.812592 L 216.964249 275.892944 " />
<path stroke-linejoin="round" stroke-linecap="round" stroke="rgb(0,0,255)" stroke-width="1.874998" fill="none" d="M 0.000000 750.000000 L 304.687469 0.000000 " />
<path stroke-linejoin="round" stroke-linecap="round" stroke="rgb(255,0,0)" stroke-width="3.749996" fill="none" d="M 205.985901 242.957748 L 210.937485 257.812592 " />
<path stroke-linejoin="round" stroke-linecap="round" stroke="rgb(0,0,255)" stroke-width="1.874998" fill="none" d="M 0.000000 750.000000 L 295.454559 0.000000 " />
<path stroke-linejoin="round" stroke-linecap="round" stroke="rgb(255,0,0)" stroke-width="3.749996" fill="none" d="M 203.124969 234.375137 L 205.985901 242.957748 " />
<path stroke-linejoin="round" stroke-linecap="round" stroke="rgb(0,0,255)" stroke-width="1.874998" fill="none" d="M 0.000000 750.000000 L 279.850739 0.000000 " />
<path stroke-linejoin="round" stroke-linecap="round" stroke="rgb(255,0,0)" stroke-width="3.749996" fill="none" d="M 198.063324 219.190292 L 203.124939 234.375183 " />
<path stroke-linejoin="round" stroke-linecap="round" stroke="rgb(0,0,255)" stroke-width="1.874998" fill="none" d="M 0.000000 750.000000 L 250.000000 0.000000 " />
<path stroke-linejoin="round" stroke-linecap="round" stroke="rgb(255,0,0)" stroke-width="3.749996" fill="none" d="M 187.499954 187.500137 L 198.063293 219.190338 " />
<path stroke-linejoin="round" stroke-linecap="round" stroke="rgb(0,0,255)" stroke-width="1.874998" fill="none" d="M 0.000000 750.000000 L 235.714279 0.000000 " />
<path stroke-linejoin="round" stroke-linecap="round" stroke="rgb(255,0,0)" stroke-width="3.749996" fill="none" d="M 179.347824 179.347824 L 187.499939 187.500183 " />
<path stroke-linejoin="round" stroke-linecap="round" stroke="rgb(0,0,255)" stroke-width="1.874998" fill="none" d="M 0.000000 750.000000 L 229.166672 0.000000 " />
<path stroke-linejoin="round" stroke-linecap="round" stroke="rgb(255,0,0)" stroke-width="3.749996" fill="none" d="M 175.531937 175.531891 L 179.347824 179.347824 " />
<path stroke-linejoin="round" stroke-linecap="round" stroke="rgb(0,0,255)" stroke-width="1.874998" fill="none" d="M 0.000000 750.000000 L 210.000000 0.000000 " />
<path stroke-linejoin="round" stroke-linecap="round" stroke="rgb(255,0,0)" stroke-width="3.749996" fill="none" d="M 164.062515 164.062408 L 175.531937 175.531891 " />
<path stroke-linejoin="round" stroke-linecap="round" stroke="rgb(0,0,255)" stroke-width="1.874998" fill="none" d="M 0.000000 750.000000 L 208.333344 0.000000 " />
<path stroke-linejoin="round" stroke-linecap="round" stroke="rgb(255,0,0)" stroke-width="3.749996" fill="none" d="M 163.043488 163.043488 L 164.062515 164.062408 " />
<path stroke-linejoin="round" stroke-linecap="round" stroke="rgb(0,0,255)" stroke-width="1.874998" fill="none" d="M 0.000000 750.000000 L 197.368423 0.000000 " />
<path stroke-linejoin="round" stroke-linecap="round" stroke="rgb(255,0,0)" stroke-width="3.749996" fill="none" d="M 156.249985 156.250031 L 163.043488 163.043488 " />
<path stroke-linejoin="round" stroke-linecap="round" stroke="rgb(0,0,255)" stroke-width="1.874998" fill="none" d="M 0.000000 750.000000 L 195.652176 0.000000 " />
<path stroke-linejoin="round" stroke-linecap="round" stroke="rgb(255,0,0)" stroke-width="3.749996" fill="none" d="M 155.172409 155.172455 L 156.249985 156.250122 " />
<path stroke-linejoin="round" stroke-linecap="round" stroke="rgb(0,0,255)" stroke-width="1.874998" fill="none" d="M 0.000000 750.000000 L 182.142868 0.000000 " />
<path stroke-linejoin="round" stroke-linecap="round" stroke="rgb(255,0,0)" stroke-width="3.749996" fill="none" d="M 146.551697 146.551788 L 155.172409 155.172455 " />
<path stroke-linejoin="round" stroke-linecap="round" stroke="rgb(0,0,255)" stroke-width="1.874998" fill="none" d="M 0.000000 750.000000 L 175.925934 0.000000 " />
<path stroke-linejoin="round" stroke-linecap="round" stroke="rgb(255,0,0)" stroke-width="3.749996" fill="none" d="M 142.500000 142.499954 L 146.551727 146.551743 " />
<path stroke-linejoin="round" stroke-linecap="round" stroke="rgb(0,0,255)" stroke-width="1.874998" fill="none" d="M 0.000000 750.000000 L 157.407410 0.000000 " />
<path stroke-linejoin="round" stroke-linecap="round" stroke="rgb(255,0,0)" stroke-width="3.749996" fill="none" d="M 130.102020 130.102112 L 142.500000 142.500000 " />
<path stroke-linejoin="round" stroke-linecap="round" stroke="rgb(0,0,255)" stroke-width="1.874998" fill="none" d="M 0.000000 750.000000 L 155.487808 0.000000 " />
<path stroke-linejoin="round" stroke-linecap="round" stroke="rgb(255,0,0)" stroke-width="3.749996" fill="none" d="M 128.787872 128.787872 L 130.102020 130.102158 " />
<path stroke-linejoin="round" stroke-linecap="round" stroke="rgb(0,0,255)" stroke-width="1.874998" fill="none" d="M 0.000000 750.000000 L 149.999985 0.000000 " />
<path stroke-linejoin="round" stroke-linecap="round" stroke="rgb(255,0,0)" stroke-width="3.749996" fill="none" d="M 124.999992 125.000061 L 128.787872 128.787918 " />
<path stroke-linejoin="round" stroke-linecap="round" stroke="rgb(0,0,255)" stroke-width="1.874998" fill="none" d="M 0.000000 750.000000 L 123.529404 0.000000 " />
<path stroke-linejoin="round" stroke-linecap="round" stroke="rgb(255,0,0)" stroke-width="3.749996" fill="none" d="M 106.060600 106.060623 L 125.000015 124.999969 " />
<path stroke-linejoin="round" stroke-linecap="round" stroke="rgb(0,0,255)" stroke-width="1.874998" fill="none" d="M 0.000000 750.000000 L 115.384605 0.000000 " />
<path stroke-linejoin="round" stroke-linecap="round" stroke="rgb(255,0,0)" stroke-width="3.749996" fill="none" d="M 99.999992 99.999947 L 106.060600 106.060623 " />
<path stroke-linejoin="round" stroke-linecap="round" stroke="rgb(0,0,255)" stroke-width="1.874998" fill="none" d="M 0.000000 750.000000 L 104.430374 0.000000 " />
<path stroke-linejoin="round" stroke-linecap="round" stroke="rgb(255,0,0)" stroke-width="3.749996" fill="none" d="M 91.666664 91.666687 L 99.999992 99.999947 " />
<path stroke-linejoin="round" stroke-linecap="round" stroke="rgb(0,0,255)" stroke-width="1.874998" fill="none" d="M 0.000000 750.000000 L 93.750000 0.000000 " />
<path stroke-linejoin="round" stroke-linecap="round" stroke="rgb(255,0,0)" stroke-width="3.749996" fill="none" d="M 83.333328 83.333328 L 91.666664 91.666687 " />
<path stroke-linejoin="round" stroke-linecap="round" stroke="rgb(0,0,255)" stroke-width="1.874998" fill="none" d="M 0.000000 750.000000 L 91.666664 0.000000 " />
<path stroke-linejoin="round" stroke-linecap="round" stroke="rgb(255,0,0)" stroke-width="3.749996" fill="none" d="M 81.683167 81.683235 L 83.333328 83.333420 " />
<path stroke-linejoin="round" stroke-linecap="round" stroke="rgb(0,0,255)" stroke-width="1.874998" fill="none" d="M 0.000000 750.000000 L 82.417580 0.000000 " />
<path stroke-linejoin="round" stroke-linecap="round" stroke="rgb(255,0,0)" stroke-width="3.749996" fill="none" d="M 74.257423 74.257446 L 81.683144 81.683281 " />
<path stroke-linejoin="round" stroke-linecap="round" stroke="rgb(0,0,255)" stroke-width="1.874998" fill="none" d="M 0.000000 750.000000 L 77.319595 0.000000 " />
<path stroke-linejoin="round" stroke-linecap="round" stroke="rgb(255,0,0)" stroke-width="3.749996" fill="none" d="M 70.093452 70.093498 L 74.257423 74.257446 " />
<path stroke-linejoin="round" stroke-linecap="round" stroke="rgb(0,0,255)" stroke-width="1.874998" fill="none" d="M 0.000000 750.000000 L 75.842697 0.000000 " />
<path stroke-linejoin="round" stroke-linecap="round" stroke="rgb(255,0,0)" stroke-width="3.749996" fill="none" d="M 68.877541 68.877609 L 70.093452 70.093498 " />
<path stroke-linejoin="round" stroke-linecap="round" stroke="rgb(0,0,255)" stroke-width="1.874998" fill="none" d="M 0.000000 750.000000 L 74.175819 0.000000 " />
<path stroke-linejoin="round" stroke-linecap="round" stroke="rgb(255,0,0)" stroke-width="3.749996" fill="none" d="M 67.500000 67.500069 L 68.877541 68.877609 " />
<path stroke-linejoin="round" stroke-linecap="round" stroke="rgb(0,0,255)" stroke-width="1.874998" fill="none" d="M 0.000000 750.000000 L 59.405945 0.000000 " />
<path stroke-linejoin="round" stroke-linecap="round" stroke="rgb(255,0,0)" stroke-width="3.749996" fill="none" d="M 55.045856 55.045902 L 67.500000 67.500069 " />
<circle cx="348.021582" cy="669.064745" r="3.749999" style="fill:rgb(0,127,0);stroke-width:1" /><circle cx="343.085088" cy="654.255331" r="3.749999" style="fill:rgb(0,127,0);stroke-width:1" /><circle cx="341.379270" cy="649.137944" r="3.749999" style="fill:rgb(0,127,0);stroke-width:1" /><circle cx="336.734645" cy="635.204092" r="3.749999" style="fill:rgb(0,127,0);stroke-width:1" /><circle cx="327.127621" cy="606.382996" r="3.750001" style="fill:rgb(0,127,0);stroke-width:1" /><circle cx="322.552420" cy="592.657350" r="3.750002" style="fill:rgb(0,127,0);stroke-width:1" /><circle cx="315.647431" cy="571.942471" r="3.750002" style="fill:rgb(0,127,0);stroke-width:1" /><circle cx="311.170176" cy="558.510661" r="3.750002" style="fill:rgb(0,127,0);stroke-width:1" /><circle cx="310.344793" cy="556.034513" r="3.750002" style="fill:rgb(0,127,0);stroke-width:1" /><circle cx="303.832054" cy="536.496386" r="3.750002" style="fill:rgb(0,127,0);stroke-width:1" /><circle cx="295.212731" cy="510.638326" r="3.750002" style="fill:rgb(0,127,0);stroke-width:1" /><circle cx="291.083872" cy="498.251773" r="3.750002" style="fill:rgb(0,127,0);stroke-width:1" /><circle cx="287.408732" cy="487.226307" r="3.750002" style="fill:rgb(0,127,0);stroke-width:1" /><circle cx="287.234008" cy="486.702159" r="3.750002" style="fill:rgb(0,127,0);stroke-width:1" /><circle cx="283.216752" cy="474.650390" r="3.749999" style="fill:rgb(0,127,0);stroke-width:1" /><circle cx="275.179826" cy="450.539611" r="3.749996" style="fill:rgb(0,127,0);stroke-width:1" /><circle cx="273.214258" cy="444.642887" r="3.749996" style="fill:rgb(0,127,0);stroke-width:1" /><circle cx="256.433800" cy="394.301511" r="3.749996" style="fill:rgb(0,127,0);stroke-width:1" /><circle cx="254.280791" cy="387.842529" r="3.749996" style="fill:rgb(0,127,0);stroke-width:1" /><circle cx="250.844568" cy="377.533816" r="3.749996" style="fill:rgb(0,127,0);stroke-width:1" /><circle cx="242.187470" cy="351.562545" r="3.749996" style="fill:rgb(0,127,0);stroke-width:1" /><circle cx="238.869824" cy="341.609627" r="3.749996" style="fill:rgb(0,127,0);stroke-width:1" /><circle cx="236.013964" cy="333.041981" r="3.749996" style="fill:rgb(0,127,0);stroke-width:1" /><circle cx="224.999964" cy="300.000072" r="3.749996" style="fill:rgb(0,127,0);stroke-width:1" /><circle cx="221.938759" cy="290.816367" r="3.749996" style="fill:rgb(0,127,0);stroke-width:1" /><circle cx="218.959719" cy="281.879202" r="3.749996" style="fill:rgb(0,127,0);stroke-width:1" /><circle cx="216.964267" cy="275.892913" r="3.749996" style="fill:rgb(0,127,0);stroke-width:1" /><circle cx="210.937478" cy="257.812589" r="3.749996" style="fill:rgb(0,127,0);stroke-width:1" /><circle cx="205.985896" cy="242.957756" r="3.749996" style="fill:rgb(0,127,0);stroke-width:1" /><circle cx="203.124963" cy="234.375134" r="3.749996" style="fill:rgb(0,127,0);stroke-width:1" /><circle cx="198.063321" cy="219.190300" r="3.749996" style="fill:rgb(0,127,0);stroke-width:1" /><circle cx="187.499955" cy="187.500134" r="3.749996" style="fill:rgb(0,127,0);stroke-width:1" /><circle cx="179.347828" cy="179.347828" r="3.749996" style="fill:rgb(0,127,0);stroke-width:1" /><circle cx="175.531939" cy="175.531894" r="3.749996" style="fill:rgb(0,127,0);stroke-width:1" /><circle cx="164.062522" cy="164.062411" r="3.749996" style="fill:rgb(0,127,0);stroke-width:1" /><circle cx="163.043484" cy="163.043484" r="3.749996" style="fill:rgb(0,127,0);stroke-width:1" /><circle cx="156.249985" cy="156.250030" r="3.749996" style="fill:rgb(0,127,0);stroke-width:1" /><circle cx="155.172408" cy="155.172452" r="3.749996" style="fill:rgb(0,127,0);stroke-width:1" /><circle cx="146.551698" cy="146.551788" r="3.749996" style="fill:rgb(0,127,0);stroke-width:1" /><circle cx="142.499998" cy="142.499954" r="3.749996" style="fill:rgb(0,127,0);stroke-width:1" /><circle cx="130.102023" cy="130.102113" r="3.749996" style="fill:rgb(0,127,0);stroke-width:1" /><circle cx="128.787875" cy="128.787875" r="3.749996" style="fill:rgb(0,127,0);stroke-width:1" /><circle cx="124.999993" cy="125.000060" r="3.749996" style="fill:rgb(0,127,0);stroke-width:1" /><circle cx="106.060602" cy="106.060624" r="3.749996" style="fill:rgb(0,127,0);stroke-width:1" /><circle cx="99.999994" cy="99.999949" r="3.749996" style="fill:rgb(0,127,0);stroke-width:1" /><circle cx="91.666661" cy="91.666684" r="3.749996" style="fill:rgb(0,127,0);stroke-width:1" /><circle cx="83.333328" cy="83.333328" r="3.749996" style="fill:rgb(0,127,0);stroke-width:1" /><circle cx="81.683166" cy="81.683233" r="3.749996" style="fill:rgb(0,127,0);stroke-width:1" /><circle cx="74.257426" cy="74.257448" r="3.749996" style="fill:rgb(0,127,0);stroke-width:1" /><circle cx="70.093453" cy="70.093498" r="3.749996" style="fill:rgb(0,127,0);stroke-width:1" /><circle cx="68.877541" cy="68.877608" r="3.749996" style="fill:rgb(0,127,0);stroke-width:1" /><circle cx="67.500003" cy="67.500070" r="3.749996" style="fill:rgb(0,127,0);stroke-width:1" /><circle cx="55.045858" cy="55.045903" r="3.749996" style="fill:rgb(0,127,0);stroke-width:1" /><path stroke-linejoin="round" stroke-linecap="round" stroke="rgb(255,255,255)" stroke-width="3.749996" fill="none" d="M 0.000000 750.000000 L 750.000000 750.000000 M 0.000000 750.000000 L 0.000000 0.000000 " />

</svg>