<svg xmlns="http://www.w3.org/2000/svg" version="1.1" width = "750" height = "750" viewBox = "0 0 750 750"  shape-rendering="crispEdges">
<path stroke-linejoin="round" stroke-linecap="round" stroke="rgb(255,255,0)" stroke-width="3.749996" fill="none" d="M 249.999985 750.000000 L 0.000000 0.000000 " />
<path stroke-linejoin="round" stroke-linecap="round" stroke="rgb(63,63,63)" stroke-width="3.749996" fill="none" d="M 0.000000 0.000000 L 750.000000 750.000000 M 249.999985 750.000000 L 99.999992 0.000000 " />
<path stroke-linejoin="round" stroke-linecap="round" stroke="rgb(191,191,191)" stroke-width="3.749996" fill="none" d="M 0.000000 500.000000 L 249.999985 750.000000 M 0.000000 0.000000 L 150.000015 750.000000 " />
<path stroke-linejoin="round" stroke-linecap="round" stroke="rgb(0,0,255)" stroke-width="1.874998" fill="none" d="M 0.000000 750.000000 L 750.000000 725.806458 " />
<path stroke-linejoin="round" stroke-linecap="round" stroke="rgb(255,0,0)" stroke-width="3.749996" fill="none" d="M 248.397461 741.987183 L 249.999985 750.000000 " />
<path stroke-linejoin="round" stroke-linecap="round" stroke="rgb(0,0,255)" stroke-width="1.874998" fill="none" d="M 0.000000 750.000000 L 750.000000 703.125000 " />
<path stroke-linejoin="round" stroke-linecap="round" stroke="rgb(255,0,0)" stroke-width="3.749996" fill="none" d="M 244.755280 734.702820 L 248.397461 741.987183 " />
<path stroke-linejoin="round" stroke-linecap="round" stroke="rgb(0,0,255)" stroke-width="1.874998" fill="none" d="M 0.000000 750.000000 L 750.000000 677.419312 " />
<path stroke-linejoin="round" stroke-linecap="round" stroke="rgb(255,0,0)" stroke-width="3.749996" fill="none" d="M 240.754456 726.701172 L 244.755280 734.702820 " />
<path stroke-linejoin="round" stroke-linecap="round" stroke="rgb(0,0,255)" stroke-width="1.874998" fill="none" d="M 0.000000 750.000000 L 750.000000 650.000000 " />
<path stroke-linejoin="round" stroke-linecap="round" stroke="rgb(255,0,0)" stroke-width="3.749996" fill="none" d="M 236.628632 718.449524 L 240.754501 726.701172 " />
<path stroke-linejoin="round" stroke-linecap="round" stroke="rgb(0,0,255)" stroke-width="1.874998" fill="none" d="M 0.000000 750.000000 L 750.000000 620.689636 " />
<path stroke-linejoin="round" stroke-linecap="round" stroke="rgb(255,0,0)" stroke-width="3.749996" fill="none" d="M 232.371841 709.935913 L 236.628632 718.449524 " />
<path stroke-linejoin="round" stroke-linecap="round" stroke="rgb(0,0,255)" stroke-width="1.874998" fill="none" d="M 0.000000 750.000000 L 750.000000 375.000000 " />
<path stroke-linejoin="round" stroke-linecap="round" stroke="rgb(255,0,0)" stroke-width="3.749996" fill="none" d="M 215.455856 642.272095 L 232.371841 709.935913 " />
<path stroke-linejoin="round" stroke-linecap="round" stroke="rgb(0,0,255)" stroke-width="1.874998" fill="none" d="M 0.000000 750.000000 L 750.000000 241.071442 " />
<path stroke-linejoin="round" stroke-linecap="round" stroke="rgb(255,0,0)" stroke-width="3.749996" fill="none" d="M 207.232391 609.378052 L 215.455902 642.272034 " />
<path stroke-linejoin="round" stroke-linecap="round" stroke="rgb(0,0,255)" stroke-width="1.874998" fill="none" d="M 0.000000 750.000000 L 750.000000 201.923080 " />
<path stroke-linejoin="round" stroke-linecap="round" stroke="rgb(255,0,0)" stroke-width="3.749996" fill="none" d="M 204.945847 600.231873 L 207.232391 609.378052 " />
<path stroke-linejoin="round" stroke-linecap="round" stroke="rgb(0,0,255)" stroke-width="1.874998" fill="none" d="M 0.000000 750.000000 L 750.000000 86.538475 " />
<path stroke-linejoin="round" stroke-linecap="round" stroke="rgb(255,0,0)" stroke-width="3.749996" fill="none" d="M 198.490845 574.411987 L 204.945847 600.231873 " />
<path stroke-linejoin="round" stroke-linecap="round" stroke="rgb(0,0,255)" stroke-width="1.874998" fill="none" d="M 0.000000 750.000000 L 750.000000 31.250015 " />
<path stroke-linejoin="round" stroke-linecap="round" stroke="rgb(255,0,0)" stroke-width="3.749996" fill="none" d="M 195.539795 562.607666 L 198.490845 574.411987 " />
<path stroke-linejoin="round" stroke-linecap="round" stroke="rgb(0,0,255)" stroke-width="1.874998" fill="none" d="M 0.000000 750.000000 L 750.000000 30.000015 " />
<path stroke-linejoin="round" stroke-linecap="round" stroke="rgb(255,0,0)" stroke-width="3.749996" fill="none" d="M 195.474075 562.344849 L 195.539795 562.607666 " />
<path stroke-linejoin="round" stroke-linecap="round" stroke="rgb(0,0,255)" stroke-width="1.874998" fill="none" d="M 0.000000 750.000000 L 522.727295 0.000000 " />
<path stroke-linejoin="round" stroke-linecap="round" stroke="rgb(255,0,0)" stroke-width="3.749996" fill="none" d="M 178.397491 494.038361 L 195.474075 562.344849 " />
<path stroke-linejoin="round" stroke-linecap="round" stroke="rgb(0,0,255)" stroke-width="1.874998" fill="none" d="M 0.000000 750.000000 L 492.857147 0.000000 " />
<path stroke-linejoin="round" stroke-linecap="round" stroke="rgb(255,0,0)" stroke-width="3.749996" fill="none" d="M 175.588089 482.800751 L 178.397491 494.038361 " />
<path stroke-linejoin="round" stroke-linecap="round" stroke="rgb(0,0,255)" stroke-width="1.874998" fill="none" d="M 0.000000 750.000000 L 466.216217 0.000000 " />
<path stroke-linejoin="round" stroke-linecap="round" stroke="rgb(255,0,0)" stroke-width="3.749996" fill="none" d="M 172.865799 471.911560 L 175.588089 482.800751 " />
<path stroke-linejoin="round" stroke-linecap="round" stroke="rgb(0,0,255)" stroke-width="1.874998" fill="none" d="M 0.000000 750.000000 L 403.846161 0.000000 " />
<path stroke-linejoin="round" stroke-linecap="round" stroke="rgb(255,0,0)" stroke-width="3.749996" fill="none" d="M 165.533203 442.581207 L 172.865799 471.911560 " />
<path stroke-linejoin="round" stroke-linecap="round" stroke="rgb(0,0,255)" stroke-width="1.874998" fill="none" d="M 0.000000 750.000000 L 306.122437 0.000000 " />
<path stroke-linejoin="round" stroke-linecap="round" stroke="rgb(255,0,0)" stroke-width="3.749996" fill="none" d="M 150.318085 381.720734 L 165.533203 442.581207 " />
<path stroke-linejoin="round" stroke-linecap="round" stroke="rgb(0,0,255)" stroke-width="1.874998" fill="none" d="M 0.000000 750.000000 L 274.038452 0.000000 " />
<path stroke-linejoin="round" stroke-linecap="round" stroke="rgb(255,0,0)" stroke-width="3.749996" fill="none" d="M 143.917816 356.119659 L 150.318085 381.720734 " />
<path stroke-linejoin="round" stroke-linecap="round" stroke="rgb(0,0,255)" stroke-width="1.874998" fill="none" d="M 0.000000 750.000000 L 218.181808 0.000000 " />
<path stroke-linejoin="round" stroke-linecap="round" stroke="rgb(255,0,0)" stroke-width="3.749996" fill="none" d="M 130.359879 301.887909 L 143.917816 356.119659 " />
<path stroke-linejoin="round" stroke-linecap="round" stroke="rgb(0,0,255)" stroke-width="1.874998" fill="none" d="M 0.000000 750.000000 L 193.965530 0.000000 " />
<path stroke-linejoin="round" stroke-linecap="round" stroke="rgb(255,0,0)" stroke-width="3.749996" fill="none" d="M 123.248085 273.440735 L 130.359879 301.887909 " />
<path stroke-linejoin="round" stroke-linecap="round" stroke="rgb(0,0,255)" stroke-width="1.874998" fill="none" d="M 0.000000 750.000000 L 176.470581 0.000000 " />
<path stroke-linejoin="round" stroke-linecap="round" stroke="rgb(255,0,0)" stroke-width="3.749996" fill="none" d="M 117.521393 250.534058 L 123.248085 273.440735 " />
<path stroke-linejoin="round" stroke-linecap="round" stroke="rgb(0,0,255)" stroke-width="1.874998" fill="none" d="M 0.000000 750.000000 L 162.500000 0.000000 " />
<path stroke-linejoin="round" stroke-linecap="round" stroke="rgb(255,0,0)" stroke-width="3.749996" fill="none" d="M 111.030403 237.551987 L 117.521393 250.534058 " />
<path stroke-linejoin="round" stroke-linecap="round" stroke="rgb(0,0,255)" stroke-width="1.874998" fill="none" d="M 0.000000 750.000000 L 147.540985 0.000000 " />
<path stroke-linejoin="round" stroke-linecap="round" stroke="rgb(255,0,0)" stroke-width="3.749996" fill="none" d="M 103.695366 222.881912 L 111.030403 237.551987 " />
<path stroke-linejoin="round" stroke-linecap="round" stroke="rgb(0,0,255)" stroke-width="1.874998" fill="none" d="M 0.000000 750.000000 L 116.197182 0.000000 " />
<path stroke-linejoin="round" stroke-linecap="round" stroke="rgb(255,0,0)" stroke-width="3.749996" fill="none" d="M 90.094727 168.479446 L 103.695343 222.881958 " />
<path stroke-linejoin="round" stroke-linecap="round" stroke="rgb(0,0,255)" stroke-width="1.874998" fill="none" d="M 0.000000 750.000000 L 111.111115 0.000000 " />
<path stroke-linejoin="round" stroke-linecap="round" stroke="rgb(255,0,0)" stroke-width="3.749996" fill="none" d="M 87.618561 158.574707 L 90.094727 168.479446 " />
<path stroke-linejoin="round" stroke-linecap="round" stroke="rgb(0,0,255)" stroke-width="1.874998" fill="none" d="M 0.000000 750.000000 L 107.142853 0.000000 " />
<path stroke-linejoin="round" stroke-linecap="round" stroke="rgb(255,0,0)" stroke-width="3.749996" fill="none" d="M 85.627220 150.609360 L 87.618561 158.574707 " />
<path stroke-linejoin="round" stroke-linecap="round" stroke="rgb(0,0,255)" stroke-width="1.874998" fill="none" d="M 0.000000 750.000000 L 100.609749 0.000000 " />
<path stroke-linejoin="round" stroke-linecap="round" stroke="rgb(255,0,0)" stroke-width="3.749996" fill="none" d="M 82.229309 137.017853 L 85.627220 150.609360 " />
<path stroke-linejoin="round" stroke-linecap="round" stroke="rgb(0,0,255)" stroke-width="1.874998" fill="none" d="M 0.000000 750.000000 L 96.153839 0.000000 " />
<path stroke-linejoin="round" stroke-linecap="round" stroke="rgb(255,0,0)" stroke-width="3.749996" fill="none" d="M 79.330688 131.220566 L 82.229309 137.017899 " />
<path stroke-linejoin="round" stroke-linecap="round" stroke="rgb(0,0,255)" stroke-width="1.874998" fill="none" d="M 0.000000 750.000000 L 93.750000 0.000000 " />
<path stroke-linejoin="round" stroke-linecap="round" stroke="rgb(255,0,0)" stroke-width="3.749996" fill="none" d="M 78.008514 125.931923 L 79.330688 131.220566 " />
<path stroke-linejoin="round" stroke-linecap="round" stroke="rgb(0,0,255)" stroke-width="1.874998" fill="none" d="M 0.000000 750.000000 L 85.443039 0.000000 " />
<path stroke-linejoin="round" stroke-linecap="round" stroke="rgb(255,0,0)" stroke-width="3.749996" fill="none" d="M 72.379028 114.673019 L 78.008514 125.931923 " />
<path stroke-linejoin="round" stroke-linecap="round" stroke="rgb(0,0,255)" stroke-width="1.874998" fill="none" d="M 0.000000 750.000000 L 83.333328 0.000000 " />
<path stroke-linejoin="round" stroke-linecap="round" stroke="rgb(255,0,0)" stroke-width="3.749996" fill="none" d="M 70.916824 111.748581 L 72.379028 114.673019 " />
<path stroke-linejoin="round" stroke-linecap="round" stroke="rgb(0,0,255)" stroke-width="1.874998" fill="none" d="M 0.000000 750.000000 L 81.081078 0.000000 " />
<path stroke-linejoin="round" stroke-linecap="round" stroke="rgb(255,0,0)" stroke-width="3.749996" fill="none" d="M 69.340889 108.596741 L 70.916824 111.748581 " />
<path stroke-linejoin="round" stroke-linecap="round" stroke="rgb(0,0,255)" stroke-width="1.874998" fill="none" d="M 0.000000 750.000000 L 62.500008 0.000000 " />
<path stroke-linejoin="round" stroke-linecap="round" stroke="rgb(255,0,0)" stroke-width="3.749996" fill="none" d="M 57.060265 65.276810 L 69.340889 108.596741 " />
<path stroke-linejoin="round" stroke-linecap="round" stroke="rgb(0,0,255)" stroke-width="1.874998" fill="none" d="M 0.000000 750.000000 L 47.872334 0.000000 " />
<path stroke-linejoin="round" stroke-linecap="round" stroke="rgb(255,0,0)" stroke-width="3.749996" fill="none" d="M 44.880421 46.873501 L 57.060265 65.276810 " />
<path stroke-linejoin="round" stroke-linecap="round" stroke="rgb(0,0,255)" stroke-width="1.874998" fill="none" d="M 0.000000 750.000000 L 45.000000 0.000000 " />
<path stroke-linejoin="round" stroke-linecap="round" stroke="rgb(255,0,0)" stroke-width="3.749996" fill="none" d="M 42.425571 42.907051 L 44.880421 46.873459 " />
<path stroke-linejoin="round" stroke-linecap="round" stroke="rgb(0,0,255)" stroke-width="1.874998" fill="none" d="M 0.000000 750.000000 L 44.117645 0.000000 " />
<path stroke-linejoin="round" stroke-linecap="round" stroke="rgb(255,0,0)" stroke-width="3.749996" fill="none" d="M 41.660160 41.777485 L 42.425571 42.907051 " />
<path stroke-linejoin="round" stroke-linecap="round" stroke="rgb(0,0,255)" stroke-width="1.874998" fill="none" d="M 0.000000 750.000000 L 39.473690 0.000000 " />
<path stroke-linejoin="round" stroke-linecap="round" stroke="rgb(255,0,0)" stroke-width="3.749996" fill="none" d="M 37.495605 37.583584 L 41.660160 41.777439 " />
<path stroke-linejoin="round" stroke-linecap="round" stroke="rgb(0,0,255)" stroke-width="1.874998" fill="none" d="M 0.000000 750.000000 L 31.249992 0.000000 " />
<path stroke-linejoin="round" stroke-linecap="round" stroke="rgb(255,0,0)" stroke-width="3.749996" fill="none" d="M 29.997356 30.063339 L 37.495605 37.583584 " />
<path stroke-linejoin="round" stroke-linecap="round" stroke="rgb(0,0,255)" stroke-width="1.874998" fill="none" d="M 0.000000 750.000000 L 30.927837 0.000000 " />
<path stroke-linejoin="round" stroke-linecap="round" stroke="rgb(255,0,0)" stroke-width="3.749996" fill="none" d="M 29.701017 29.750414 L 29.997356 30.063383 " />
<path stroke-linejoin="round" stroke-linecap="round" stroke="rgb(0,0,255)" stroke-width="1.874998" fill="none" d="M 0.000000 750.000000 L 21.028027 0.000000 " />
<path stroke-linejoin="round" stroke-linecap="round" stroke="rgb(255,0,0)" stroke-width="3.749996" fill="none" d="M 20.454212 20.466618 L 29.701017 29.750414 " />
<path stroke-linejoin="round" stroke-linecap="round" stroke="rgb(0,0,255)" stroke-width="1.874998" fill="none" d="M 0.000000 750.000000 L 13.157889 0.000000 " />
<path stroke-linejoin="round" stroke-linecap="round" stroke="rgb(255,0,0)" stroke-width="3.749996" fill="none" d="M 12.930974 12.934081 L 20.454212 20.466618 " />
<path stroke-linejoin="round" stroke-linecap="round" stroke="rgb(0,0,255)" stroke-width="1.874998" fill="none" d="M 0.000000 750.000000 L 6.578945 0.000000 " />
<path stroke-linejoin="round" stroke-linecap="round" stroke="rgb(255,0,0)" stroke-width="3.749996" fill="none" d="M 6.521724 6.524094 L 12.930974 12.934081 " />
<path stroke-linejoin="round" stroke-linecap="round" stroke="rgb(0,0,255)" stroke-width="1.874998" fill="none" d="M 0.000000 750.000000 L 0.000000 0.000000 " />
<path stroke-linejoin="round" stroke-linecap="round" stroke="rgb(255,0,0)" stroke-width="3.749996" fill="none" d="M 0.000000 0.000000 L 6.521724 6.524138 " />
<circle cx="248.397443" cy="741.987169" r="3.749996" style="fill:rgb(0,127,0);stroke-width:1" /><circle cx="244.755272" cy="734.702803" r="3.749996" style="fill:rgb(0,127,0);stroke-width:1" /><circle cx="240.754467" cy="726.701170" r="3.749996" style="fill:rgb(0,127,0);stroke-width:1" /><circle cx="236.628637" cy="718.449511" r="3.749996" style="fill:rgb(0,127,0);stroke-width:1" /><circle cx="232.371826" cy="709.935889" r="3.749996" style="fill:rgb(0,127,0);stroke-width:1" /><circle cx="215.455871" cy="642.272070" r="3.749996" style="fill:rgb(0,127,0);stroke-width:1" /><circle cx="207.232386" cy="609.378017" r="3.749996" style="fill:rgb(0,127,0);stroke-width:1" /><circle cx="204.945847" cy="600.231886" r="3.749996" style="fill:rgb(0,127,0);stroke-width:1" /><circle cx="198.490854" cy="574.411936" r="3.749996" style="fill:rgb(0,127,0);stroke-width:1" /><circle cx="195.539799" cy="562.607691" r="3.749996" style="fill:rgb(0,127,0);stroke-width:1" /><circle cx="195.474084" cy="562.344879" r="3.749996" style="fill:rgb(0,127,0);stroke-width:1" /><circle cx="178.397499" cy="494.038370" r="3.749996" style="fill:rgb(0,127,0);stroke-width:1" /><circle cx="175.588086" cy="482.800752" r="3.749996" style="fill:rgb(0,127,0);stroke-width:1" /><circle cx="172.865801" cy="471.911553" r="3.749996" style="fill:rgb(0,127,0);stroke-width:1" /><circle cx="165.533200" cy="442.581207" r="3.749996" style="fill:rgb(0,127,0);stroke-width:1" /><circle cx="150.318079" cy="381.720722" r="3.749996" style="fill:rgb(0,127,0);stroke-width:1" /><circle cx="143.917814" cy="356.119663" r="3.749996" style="fill:rgb(0,127,0);stroke-width:1" /><circle cx="130.359873" cy="301.887928" r="3.749996" style="fill:rgb(0,127,0);stroke-width:1" /><circle cx="123.248085" cy="273.440748" r="3.749996" style="fill:rgb(0,127,0);stroke-width:1" /><circle cx="117.521390" cy="250.534058" r="3.749996" style="fill:rgb(0,127,0);stroke-width:1" /><circle cx="111.030400" cy="237.551987" r="3.749996" style="fill:rgb(0,127,0);stroke-width:1" /><circle cx="103.695363" cy="222.881913" r="3.749996" style="fill:rgb(0,127,0);stroke-width:1" /><circle cx="90.094730" cy="168.479450" r="3.749996" style="fill:rgb(0,127,0);stroke-width:1" /><circle cx="87.618560" cy="158.574700" r="3.749996" style="fill:rgb(0,127,0);stroke-width:1" /><circle cx="85.627221" cy="150.609367" r="3.749996" style="fill:rgb(0,127,0);stroke-width:1" /><circle cx="82.229309" cy="137.017854" r="3.749996" style="fill:rgb(0,127,0);stroke-width:1" /><circle cx="79.330690" cy="131.220572" r="3.749996" style="fill:rgb(0,127,0);stroke-width:1" /><circle cx="78.008518" cy="125.931926" r="3.749996" style="fill:rgb(0,127,0);stroke-width:1" /><circle cx="72.379030" cy="114.673018" r="3.749996" style="fill:rgb(0,127,0);stroke-width:1" /><circle cx="70.916824" cy="111.748584" r="3.749996" style="fill:rgb(0,127,0);stroke-width:1" /><circle cx="69.340892" cy="108.596742" r="3.749996" style="fill:rgb(0,127,0);stroke-width:1" /><circle cx="57.060264" cy="65.276809" r="3.749996" style="fill:rgb(0,127,0);stroke-width:1" /><circle cx="44.880420" cy="46.873502" r="3.749996" style="fill:rgb(0,127,0);stroke-width:1" /><circle cx="42.425573" cy="42.907052" r="3.749996" style="fill:rgb(0,127,0);stroke-width:1" /><circle cx="41.660160" cy="41.777484" r="3.749996" style="fill:rgb(0,127,0);stroke-width:1" /><circle cx="37.495606" cy="37.583582" r="3.749996" style="fill:rgb(0,127,0);stroke-width:1" /><circle cx="29.997356" cy="30.063339" r="3.749996" style="fill:rgb(0,127,0);stroke-width:1" /><circle cx="29.701017" cy="29.750414" r="3.749996" style="fill:rgb(0,127,0);stroke-width:1" /><circle cx="20.454213" cy="20.466618" r="3.749996" style="fill:rgb(0,127,0);stroke-width:1" /><circle cx="12.930974" cy="12.934081" r="3.749996" style="fill:rgb(0,127,0);stroke-width:1" /><circle cx="6.521724" cy="6.524093" r="3.749996" style="fill:rgb(0,127,0);stroke-width:1" /><circle cx="750.000000" cy="750.000000" r="3.749996" style="fill:rgb(0,127,0);stroke-width:1" /><path stroke-linejoin="round" stroke-linecap="round" stroke="rgb(255,255,255)" stroke-width="3.749996" fill="none" d="M 0.000000 750.000000 L 750.000000 750.000000 M 0.000000 750.000000 L 0.000000 0.000000 " />

</svg>