<svg xmlns="http://www.w3.org/2000/svg" version="1.1" width = "750" height = "750" viewBox = "0 0 750 750"  shape-rendering="crispEdges">
<path stroke-linejoin="round" stroke-linecap="round" stroke="rgb(255,255,0)" stroke-width="3.749996" fill="none" d="M 375.000000 750.000000 L 0.000000 0.000000 " />
<path stroke-linejoin="round" stroke-linecap="round" stroke="rgb(63,63,63)" stroke-width="3.749996" fill="none" d="M 0.000000 0.000000 L 750.000000 750.000000 M 375.000000 750.000000 L 124.999992 0.000000 " />
<path stroke-linejoin="round" stroke-linecap="round" stroke="rgb(191,191,191)" stroke-width="3.749996" fill="none" d="M 0.000000 375.000000 L 375.000000 750.000000 M 0.000000 0.000000 L 250.000000 750.000000 " />
<path stroke-linejoin="round" stroke-linecap="round" stroke="rgb(0,0,255)" stroke-width="1.874998" fill="none" d="M 0.000000 750.000000 L 750.000000 508.064514 " />
<path stroke-linejoin="round" stroke-linecap="round" stroke="rgb(255,0,0)" stroke-width="3.749996" fill="none" d="M 338.592224 640.776672 L 375.000000 750.000000 " />
<path stroke-linejoin="round" stroke-linecap="round" stroke="rgb(0,0,255)" stroke-width="1.874998" fill="none" d="M 0.000000 750.000000 L 750.000000 492.187500 " />
<path stroke-linejoin="round" stroke-linecap="round" stroke="rgb(255,0,0)" stroke-width="3.749996" fill="none" d="M 336.448578 634.345764 L 338.592224 640.776672 " />
<path stroke-linejoin="round" stroke-linecap="round" stroke="rgb(0,0,255)" stroke-width="1.874998" fill="none" d="M 0.000000 750.000000 L 750.000000 477.272705 " />
<path stroke-linejoin="round" stroke-linecap="round" stroke="rgb(255,0,0)" stroke-width="3.749996" fill="none" d="M 334.459412 628.378418 L 336.448578 634.345764 " />
<path stroke-linejoin="round" stroke-linecap="round" stroke="rgb(0,0,255)" stroke-width="1.874998" fill="none" d="M 0.000000 750.000000 L 750.000000 445.312500 " />
<path stroke-linejoin="round" stroke-linecap="round" stroke="rgb(255,0,0)" stroke-width="3.749996" fill="none" d="M 330.275208 615.825684 L 334.459412 628.378418 " />
<path stroke-linejoin="round" stroke-linecap="round" stroke="rgb(0,0,255)" stroke-width="1.874998" fill="none" d="M 0.000000 750.000000 L 750.000000 398.437500 " />
<path stroke-linejoin="round" stroke-linecap="round" stroke="rgb(255,0,0)" stroke-width="3.749996" fill="none" d="M 324.324341 597.972961 L 330.275208 615.825684 " />
<path stroke-linejoin="round" stroke-linecap="round" stroke="rgb(0,0,255)" stroke-width="1.874998" fill="none" d="M 0.000000 750.000000 L 750.000000 351.562500 " />
<path stroke-linejoin="round" stroke-linecap="round" stroke="rgb(255,0,0)" stroke-width="3.749996" fill="none" d="M 318.584076 580.752197 L 324.324341 597.972961 " />
<path stroke-linejoin="round" stroke-linecap="round" stroke="rgb(0,0,255)" stroke-width="1.874998" fill="none" d="M 0.000000 750.000000 L 750.000000 304.687500 " />
<path stroke-linejoin="round" stroke-linecap="round" stroke="rgb(255,0,0)" stroke-width="3.749996" fill="none" d="M 313.043457 564.130432 L 318.584076 580.752197 " />
<path stroke-linejoin="round" stroke-linecap="round" stroke="rgb(0,0,255)" stroke-width="1.874998" fill="none" d="M 0.000000 750.000000 L 750.000000 187.500000 " />
<path stroke-linejoin="round" stroke-linecap="round" stroke="rgb(255,0,0)" stroke-width="3.749996" fill="none" d="M 299.999969 525.000061 L 313.043427 564.130493 " />
<path stroke-linejoin="round" stroke-linecap="round" stroke="rgb(0,0,255)" stroke-width="1.874998" fill="none" d="M 0.000000 750.000000 L 750.000000 133.928558 " />
<path stroke-linejoin="round" stroke-linecap="round" stroke="rgb(255,0,0)" stroke-width="3.749996" fill="none" d="M 294.392487 508.177582 L 299.999969 525.000061 " />
<path stroke-linejoin="round" stroke-linecap="round" stroke="rgb(0,0,255)" stroke-width="1.874998" fill="none" d="M 0.000000 750.000000 L 750.000000 129.310318 " />
<path stroke-linejoin="round" stroke-linecap="round" stroke="rgb(255,0,0)" stroke-width="3.749996" fill="none" d="M 293.918884 506.756805 L 294.392487 508.177582 " />
<path stroke-linejoin="round" stroke-linecap="round" stroke="rgb(0,0,255)" stroke-width="1.874998" fill="none" d="M 0.000000 750.000000 L 750.000000 125.000015 " />
<path stroke-linejoin="round" stroke-linecap="round" stroke="rgb(255,0,0)" stroke-width="3.749996" fill="none" d="M 293.478241 505.434845 L 293.918884 506.756805 " />
<path stroke-linejoin="round" stroke-linecap="round" stroke="rgb(0,0,255)" stroke-width="1.874998" fill="none" d="M 0.000000 750.000000 L 750.000000 80.357147 " />
<path stroke-linejoin="round" stroke-linecap="round" stroke="rgb(255,0,0)" stroke-width="3.749996" fill="none" d="M 288.990784 491.972534 L 293.478241 505.434845 " />
<path stroke-linejoin="round" stroke-linecap="round" stroke="rgb(0,0,255)" stroke-width="1.874998" fill="none" d="M 0.000000 750.000000 L 750.000000 77.586205 " />
<path stroke-linejoin="round" stroke-linecap="round" stroke="rgb(255,0,0)" stroke-width="3.749996" fill="none" d="M 288.716797 491.150482 L 288.990784 491.972534 " />
<path stroke-linejoin="round" stroke-linecap="round" stroke="rgb(0,0,255)" stroke-width="1.874998" fill="none" d="M 0.000000 750.000000 L 750.000000 75.000015 " />
<path stroke-linejoin="round" stroke-linecap="round" stroke="rgb(255,0,0)" stroke-width="3.749996" fill="none" d="M 288.461517 490.384613 L 288.716827 491.150421 " />
<path stroke-linejoin="round" stroke-linecap="round" stroke="rgb(0,0,255)" stroke-width="1.874998" fill="none" d="M 0.000000 750.000000 L 750.000000 26.785702 " />
<path stroke-linejoin="round" stroke-linecap="round" stroke="rgb(255,0,0)" stroke-width="3.749996" fill="none" d="M 283.783752 476.351379 L 288.461487 490.384644 " />
<path stroke-linejoin="round" stroke-linecap="round" stroke="rgb(0,0,255)" stroke-width="1.874998" fill="none" d="M 0.000000 750.000000 L 750.000000 25.862083 " />
<path stroke-linejoin="round" stroke-linecap="round" stroke="rgb(255,0,0)" stroke-width="3.749996" fill="none" d="M 283.695618 476.087006 L 283.783752 476.351379 " />
<path stroke-linejoin="round" stroke-linecap="round" stroke="rgb(0,0,255)" stroke-width="1.874998" fill="none" d="M 0.000000 750.000000 L 725.000000 0.000000 " />
<path stroke-linejoin="round" stroke-linecap="round" stroke="rgb(255,0,0)" stroke-width="3.749996" fill="none" d="M 278.846100 461.538513 L 283.695618 476.087006 " />
<path stroke-linejoin="round" stroke-linecap="round" stroke="rgb(0,0,255)" stroke-width="1.874998" fill="none" d="M 0.000000 750.000000 L 696.428528 0.000000 " />
<path stroke-linejoin="round" stroke-linecap="round" stroke="rgb(255,0,0)" stroke-width="3.749996" fill="none" d="M 275.943359 452.830200 L 278.846100 461.538513 " />
<path stroke-linejoin="round" stroke-linecap="round" stroke="rgb(0,0,255)" stroke-width="1.874998" fill="none" d="M 0.000000 750.000000 L 653.225830 0.000000 " />
<path stroke-linejoin="round" stroke-linecap="round" stroke="rgb(255,0,0)" stroke-width="3.749996" fill="none" d="M 271.205322 438.616089 L 275.943359 452.830200 " />
<path stroke-linejoin="round" stroke-linecap="round" stroke="rgb(0,0,255)" stroke-width="1.874998" fill="none" d="M 0.000000 750.000000 L 609.374939 0.000000 " />
<path stroke-linejoin="round" stroke-linecap="round" stroke="rgb(255,0,0)" stroke-width="3.749996" fill="none" d="M 265.909088 422.727264 L 271.205322 438.616089 " />
<path stroke-linejoin="round" stroke-linecap="round" stroke="rgb(0,0,255)" stroke-width="1.874998" fill="none" d="M 0.000000 750.000000 L 573.529419 0.000000 " />
<path stroke-linejoin="round" stroke-linecap="round" stroke="rgb(255,0,0)" stroke-width="3.749996" fill="none" d="M 261.160675 408.482208 L 265.909119 422.727234 " />
<path stroke-linejoin="round" stroke-linecap="round" stroke="rgb(0,0,255)" stroke-width="1.874998" fill="none" d="M 0.000000 750.000000 L 513.157898 0.000000 " />
<path stroke-linejoin="round" stroke-linecap="round" stroke="rgb(255,0,0)" stroke-width="3.749996" fill="none" d="M 252.155136 381.465546 L 261.160645 408.482208 " />
<path stroke-linejoin="round" stroke-linecap="round" stroke="rgb(0,0,255)" stroke-width="1.874998" fill="none" d="M 0.000000 750.000000 L 487.499969 0.000000 " />
<path stroke-linejoin="round" stroke-linecap="round" stroke="rgb(255,0,0)" stroke-width="3.749996" fill="none" d="M 247.881332 368.644104 L 252.155136 381.465546 " />
<path stroke-linejoin="round" stroke-linecap="round" stroke="rgb(0,0,255)" stroke-width="1.874998" fill="none" d="M 0.000000 750.000000 L 468.750000 0.000000 " />
<path stroke-linejoin="round" stroke-linecap="round" stroke="rgb(255,0,0)" stroke-width="3.749996" fill="none" d="M 244.565186 358.695709 L 247.881332 368.644104 " />
<path stroke-linejoin="round" stroke-linecap="round" stroke="rgb(0,0,255)" stroke-width="1.874998" fill="none" d="M 0.000000 750.000000 L 426.136353 0.000000 " />
<path stroke-linejoin="round" stroke-linecap="round" stroke="rgb(255,0,0)" stroke-width="3.749996" fill="none" d="M 236.344498 334.033691 L 244.565186 358.695709 " />
<path stroke-linejoin="round" stroke-linecap="round" stroke="rgb(0,0,255)" stroke-width="1.874998" fill="none" d="M 0.000000 750.000000 L 416.666687 0.000000 " />
<path stroke-linejoin="round" stroke-linecap="round" stroke="rgb(255,0,0)" stroke-width="3.749996" fill="none" d="M 234.374954 328.125092 L 236.344498 334.033691 " />
<path stroke-linejoin="round" stroke-linecap="round" stroke="rgb(0,0,255)" stroke-width="1.874998" fill="none" d="M 0.000000 750.000000 L 375.000000 0.000000 " />
<path stroke-linejoin="round" stroke-linecap="round" stroke="rgb(255,0,0)" stroke-width="3.749996" fill="none" d="M 224.999969 300.000061 L 234.374954 328.125092 " />
<path stroke-linejoin="round" stroke-linecap="round" stroke="rgb(0,0,255)" stroke-width="1.874998" fill="none" d="M 0.000000 750.000000 L 323.529419 0.000000 " />
<path stroke-linejoin="round" stroke-linecap="round" stroke="rgb(255,0,0)" stroke-width="3.749996" fill="none" d="M 211.538422 259.615479 L 224.999969 300.000061 " />
<path stroke-linejoin="round" stroke-linecap="round" stroke="rgb(0,0,255)" stroke-width="1.874998" fill="none" d="M 0.000000 750.000000 L 311.320740 0.000000 " />
<path stroke-linejoin="round" stroke-linecap="round" stroke="rgb(255,0,0)" stroke-width="3.749996" fill="none" d="M 207.983185 248.949585 L 211.538422 259.615479 " />
<path stroke-linejoin="round" stroke-linecap="round" stroke="rgb(0,0,255)" stroke-width="1.874998" fill="none" d="M 0.000000 750.000000 L 300.000000 0.000000 " />
<path stroke-linejoin="round" stroke-linecap="round" stroke="rgb(255,0,0)" stroke-width="3.749996" fill="none" d="M 204.545456 238.636353 L 207.983185 248.949585 " />
<path stroke-linejoin="round" stroke-linecap="round" stroke="rgb(0,0,255)" stroke-width="1.874998" fill="none" d="M 0.000000 750.000000 L 294.117645 0.000000 " />
<path stroke-linejoin="round" stroke-linecap="round" stroke="rgb(255,0,0)" stroke-width="3.749996" fill="none" d="M 202.702698 233.108154 L 204.545456 238.636353 " />
<path stroke-linejoin="round" stroke-linecap="round" stroke="rgb(0,0,255)" stroke-width="1.874998" fill="none" d="M 0.000000 750.000000 L 241.525406 0.000000 " />
<path stroke-linejoin="round" stroke-linecap="round" stroke="rgb(255,0,0)" stroke-width="3.749996" fill="none" d="M 182.692322 182.692230 L 202.702713 233.108109 " />
<path stroke-linejoin="round" stroke-linecap="round" stroke="rgb(0,0,255)" stroke-width="1.874998" fill="none" d="M 0.000000 750.000000 L 233.606567 0.000000 " />
<path stroke-linejoin="round" stroke-linecap="round" stroke="rgb(255,0,0)" stroke-width="3.749996" fill="none" d="M 178.124969 178.125092 L 182.692322 182.692230 " />
<path stroke-linejoin="round" stroke-linecap="round" stroke="rgb(0,0,255)" stroke-width="1.874998" fill="none" d="M 0.000000 750.000000 L 226.190491 0.000000 " />
<path stroke-linejoin="round" stroke-linecap="round" stroke="rgb(255,0,0)" stroke-width="3.749996" fill="none" d="M 173.780502 173.780457 L 178.125015 178.125015 " />
<path stroke-linejoin="round" stroke-linecap="round" stroke="rgb(0,0,255)" stroke-width="1.874998" fill="none" d="M 0.000000 750.000000 L 219.230759 0.000000 " />
<path stroke-linejoin="round" stroke-linecap="round" stroke="rgb(255,0,0)" stroke-width="3.749996" fill="none" d="M 169.642838 169.642883 L 173.780502 173.780457 " />
<path stroke-linejoin="round" stroke-linecap="round" stroke="rgb(0,0,255)" stroke-width="1.874998" fill="none" d="M 0.000000 750.000000 L 204.545456 0.000000 " />
<path stroke-linejoin="round" stroke-linecap="round" stroke="rgb(255,0,0)" stroke-width="3.749996" fill="none" d="M 160.714279 160.714294 L 169.642838 169.642883 " />
<path stroke-linejoin="round" stroke-linecap="round" stroke="rgb(0,0,255)" stroke-width="1.874998" fill="none" d="M 0.000000 750.000000 L 196.153839 0.000000 " />
<path stroke-linejoin="round" stroke-linecap="round" stroke="rgb(255,0,0)" stroke-width="3.749996" fill="none" d="M 155.487808 155.487747 L 160.714279 160.714294 " />
<path stroke-linejoin="round" stroke-linecap="round" stroke="rgb(0,0,255)" stroke-width="1.874998" fill="none" d="M 0.000000 750.000000 L 184.782608 0.000000 " />
<path stroke-linejoin="round" stroke-linecap="round" stroke="rgb(255,0,0)" stroke-width="3.749996" fill="none" d="M 148.255814 148.255798 L 155.487808 155.487747 " />
<path stroke-linejoin="round" stroke-linecap="round" stroke="rgb(0,0,255)" stroke-width="1.874998" fill="none" d="M 0.000000 750.000000 L 177.083328 0.000000 " />
<path stroke-linejoin="round" stroke-linecap="round" stroke="rgb(255,0,0)" stroke-width="3.749996" fill="none" d="M 143.258438 143.258392 L 148.255814 148.255798 " />
<path stroke-linejoin="round" stroke-linecap="round" stroke="rgb(0,0,255)" stroke-width="1.874998" fill="none" d="M 0.000000 750.000000 L 164.062500 0.000000 " />
<path stroke-linejoin="round" stroke-linecap="round" stroke="rgb(255,0,0)" stroke-width="3.749996" fill="none" d="M 134.615372 134.615372 L 143.258438 143.258392 " />
<path stroke-linejoin="round" stroke-linecap="round" stroke="rgb(0,0,255)" stroke-width="1.874998" fill="none" d="M 0.000000 750.000000 L 149.999985 0.000000 " />
<path stroke-linejoin="round" stroke-linecap="round" stroke="rgb(255,0,0)" stroke-width="3.749996" fill="none" d="M 124.999992 125.000061 L 134.615372 134.615372 " />
<path stroke-linejoin="round" stroke-linecap="round" stroke="rgb(0,0,255)" stroke-width="1.874998" fill="none" d="M 0.000000 750.000000 L 147.727264 0.000000 " />
<path stroke-linejoin="round" stroke-linecap="round" stroke="rgb(255,0,0)" stroke-width="3.749996" fill="none" d="M 123.417694 123.417824 L 124.999969 125.000107 " />
<path stroke-linejoin="round" stroke-linecap="round" stroke="rgb(0,0,255)" stroke-width="1.874998" fill="none" d="M 0.000000 750.000000 L 141.891891 0.000000 " />
<path stroke-linejoin="round" stroke-linecap="round" stroke="rgb(255,0,0)" stroke-width="3.749996" fill="none" d="M 119.318176 119.318199 L 123.417709 123.417778 " />
<path stroke-linejoin="round" stroke-linecap="round" stroke="rgb(0,0,255)" stroke-width="1.874998" fill="none" d="M 0.000000 750.000000 L 132.352936 0.000000 " />
<path stroke-linejoin="round" stroke-linecap="round" stroke="rgb(255,0,0)" stroke-width="3.749996" fill="none" d="M 112.500008 112.499985 L 119.318176 119.318199 " />
<path stroke-linejoin="round" stroke-linecap="round" stroke="rgb(0,0,255)" stroke-width="1.874998" fill="none" d="M 0.000000 750.000000 L 128.571426 0.000000 " />
<path stroke-linejoin="round" stroke-linecap="round" stroke="rgb(255,0,0)" stroke-width="3.749996" fill="none" d="M 109.756081 109.756081 L 112.500031 112.499939 " />
<path stroke-linejoin="round" stroke-linecap="round" stroke="rgb(0,0,255)" stroke-width="1.874998" fill="none" d="M 0.000000 750.000000 L 126.760574 0.000000 " />
<path stroke-linejoin="round" stroke-linecap="round" stroke="rgb(255,0,0)" stroke-width="3.749996" fill="none" d="M 108.433731 108.433800 L 109.756081 109.756172 " />
<path stroke-linejoin="round" stroke-linecap="round" stroke="rgb(0,0,255)" stroke-width="1.874998" fill="none" d="M 0.000000 750.000000 L 123.417732 0.000000 " />
<path stroke-linejoin="round" stroke-linecap="round" stroke="rgb(255,0,0)" stroke-width="3.749996" fill="none" d="M 105.978279 105.978233 L 108.433731 108.433800 " />
<path stroke-linejoin="round" stroke-linecap="round" stroke="rgb(0,0,255)" stroke-width="1.874998" fill="none" d="M 0.000000 750.000000 L 112.500008 0.000000 " />
<path stroke-linejoin="round" stroke-linecap="round" stroke="rgb(255,0,0)" stroke-width="3.749996" fill="none" d="M 97.826088 97.826111 L 105.978279 105.978233 " />
<path stroke-linejoin="round" stroke-linecap="round" stroke="rgb(0,0,255)" stroke-width="1.874998" fill="none" d="M 0.000000 750.000000 L 111.111115 0.000000 " />
<path stroke-linejoin="round" stroke-linecap="round" stroke="rgb(255,0,0)" stroke-width="3.749996" fill="none" d="M 96.774193 96.774147 L 97.826088 97.826111 " />
<path stroke-linejoin="round" stroke-linecap="round" stroke="rgb(0,0,255)" stroke-width="1.874998" fill="none" d="M 0.000000 750.000000 L 109.756081 0.000000 " />
<path stroke-linejoin="round" stroke-linecap="round" stroke="rgb(255,0,0)" stroke-width="3.749996" fill="none" d="M 95.744667 95.744759 L 96.774193 96.774193 " />
<path stroke-linejoin="round" stroke-linecap="round" stroke="rgb(0,0,255)" stroke-width="1.874998" fill="none" d="M 0.000000 750.000000 L 98.684212 0.000000 " />
<path stroke-linejoin="round" stroke-linecap="round" stroke="rgb(255,0,0)" stroke-width="3.749996" fill="none" d="M 87.209297 87.209435 L 95.744667 95.744759 " />
<path stroke-linejoin="round" stroke-linecap="round" stroke="rgb(0,0,255)" stroke-width="1.874998" fill="none" d="M 0.000000 750.000000 L 97.402588 0.000000 " />
<path stroke-linejoin="round" stroke-linecap="round" stroke="rgb(255,0,0)" stroke-width="3.749996" fill="none" d="M 86.206871 86.207047 L 87.209274 87.209526 " />
<path stroke-linejoin="round" stroke-linecap="round" stroke="rgb(0,0,255)" stroke-width="1.874998" fill="none" d="M 0.000000 750.000000 L 94.827576 0.000000 " />
<path stroke-linejoin="round" stroke-linecap="round" stroke="rgb(255,0,0)" stroke-width="3.749996" fill="none" d="M 84.183678 84.183678 L 86.206871 86.207047 " />
<path stroke-linejoin="round" stroke-linecap="round" stroke="rgb(0,0,255)" stroke-width="1.874998" fill="none" d="M 0.000000 750.000000 L 86.206894 0.000000 " />
<path stroke-linejoin="round" stroke-linecap="round" stroke="rgb(255,0,0)" stroke-width="3.749996" fill="none" d="M 77.319595 77.319595 L 84.183678 84.183678 " />
<path stroke-linejoin="round" stroke-linecap="round" stroke="rgb(0,0,255)" stroke-width="1.874998" fill="none" d="M 0.000000 750.000000 L 85.227280 0.000000 " />
<path stroke-linejoin="round" stroke-linecap="round" stroke="rgb(255,0,0)" stroke-width="3.749996" fill="none" d="M 76.530617 76.530617 L 77.319595 77.319595 " />
<circle cx="338.592231" cy="640.776694" r="3.749999" style="fill:rgb(0,127,0);stroke-width:1" /><circle cx="336.448587" cy="634.345785" r="3.749999" style="fill:rgb(0,127,0);stroke-width:1" /><circle cx="334.459417" cy="628.378406" r="3.749999" style="fill:rgb(0,127,0);stroke-width:1" /><circle cx="330.275215" cy="615.825690" r="3.750001" style="fill:rgb(0,127,0);stroke-width:1" /><circle cx="324.324332" cy="597.972974" r="3.750002" style="fill:rgb(0,127,0);stroke-width:1" /><circle cx="318.584070" cy="580.752209" r="3.750002" style="fill:rgb(0,127,0);stroke-width:1" /><circle cx="313.043453" cy="564.130448" r="3.750002" style="fill:rgb(0,127,0);stroke-width:1" /><circle cx="299.999982" cy="525.000013" r="3.750002" style="fill:rgb(0,127,0);stroke-width:1" /><circle cx="294.392489" cy="508.177601" r="3.750002" style="fill:rgb(0,127,0);stroke-width:1" /><circle cx="293.918878" cy="506.756790" r="3.750002" style="fill:rgb(0,127,0);stroke-width:1" /><circle cx="293.478236" cy="505.434819" r="3.750002" style="fill:rgb(0,127,0);stroke-width:1" /><circle cx="288.990788" cy="491.972521" r="3.750002" style="fill:rgb(0,127,0);stroke-width:1" /><circle cx="288.716801" cy="491.150446" r="3.750002" style="fill:rgb(0,127,0);stroke-width:1" /><circle cx="288.461521" cy="490.384631" r="3.750002" style="fill:rgb(0,127,0);stroke-width:1" /><circle cx="283.783749" cy="476.351380" r="3.749999" style="fill:rgb(0,127,0);stroke-width:1" /><circle cx="283.695616" cy="476.087004" r="3.749999" style="fill:rgb(0,127,0);stroke-width:1" /><circle cx="278.846115" cy="461.538523" r="3.749999" style="fill:rgb(0,127,0);stroke-width:1" /><circle cx="275.943361" cy="452.830218" r="3.749996" style="fill:rgb(0,127,0);stroke-width:1" /><circle cx="271.205328" cy="438.616097" r="3.749996" style="fill:rgb(0,127,0);stroke-width:1" /><circle cx="265.909083" cy="422.727272" r="3.749996" style="fill:rgb(0,127,0);stroke-width:1" /><circle cx="261.160679" cy="408.482194" r="3.749996" style="fill:rgb(0,127,0);stroke-width:1" /><circle cx="252.155140" cy="381.465577" r="3.749996" style="fill:rgb(0,127,0);stroke-width:1" /><circle cx="247.881331" cy="368.644103" r="3.749996" style="fill:rgb(0,127,0);stroke-width:1" /><circle cx="244.565181" cy="358.695701" r="3.749996" style="fill:rgb(0,127,0);stroke-width:1" /><circle cx="236.344501" cy="334.033683" r="3.749996" style="fill:rgb(0,127,0);stroke-width:1" /><circle cx="234.374955" cy="328.125089" r="3.749996" style="fill:rgb(0,127,0);stroke-width:1" /><circle cx="224.999964" cy="300.000072" r="3.749996" style="fill:rgb(0,127,0);stroke-width:1" /><circle cx="211.538427" cy="259.615481" r="3.749996" style="fill:rgb(0,127,0);stroke-width:1" /><circle cx="207.983181" cy="248.949587" r="3.749996" style="fill:rgb(0,127,0);stroke-width:1" /><circle cx="204.545461" cy="238.636360" r="3.749996" style="fill:rgb(0,127,0);stroke-width:1" /><circle cx="202.702694" cy="233.108148" r="3.749996" style="fill:rgb(0,127,0);stroke-width:1" /><circle cx="182.692319" cy="182.692230" r="3.749996" style="fill:rgb(0,127,0);stroke-width:1" /><circle cx="178.124964" cy="178.125098" r="3.749996" style="fill:rgb(0,127,0);stroke-width:1" /><circle cx="173.780501" cy="173.780456" r="3.749996" style="fill:rgb(0,127,0);stroke-width:1" /><circle cx="169.642836" cy="169.642881" r="3.749996" style="fill:rgb(0,127,0);stroke-width:1" /><circle cx="160.714276" cy="160.714298" r="3.749996" style="fill:rgb(0,127,0);stroke-width:1" /><circle cx="155.487813" cy="155.487746" r="3.749996" style="fill:rgb(0,127,0);stroke-width:1" /><circle cx="148.255818" cy="148.255795" r="3.749996" style="fill:rgb(0,127,0);stroke-width:1" /><circle cx="143.258438" cy="143.258393" r="3.749996" style="fill:rgb(0,127,0);stroke-width:1" /><circle cx="134.615377" cy="134.615377" r="3.749996" style="fill:rgb(0,127,0);stroke-width:1" /><circle cx="124.999993" cy="125.000060" r="3.749996" style="fill:rgb(0,127,0);stroke-width:1" /><circle cx="123.417690" cy="123.417825" r="3.749996" style="fill:rgb(0,127,0);stroke-width:1" /><circle cx="119.318180" cy="119.318202" r="3.749996" style="fill:rgb(0,127,0);stroke-width:1" /><circle cx="112.500004" cy="112.499982" r="3.749996" style="fill:rgb(0,127,0);stroke-width:1" /><circle cx="109.756082" cy="109.756082" r="3.749996" style="fill:rgb(0,127,0);stroke-width:1" /><circle cx="108.433731" cy="108.433798" r="3.749996" style="fill:rgb(0,127,0);stroke-width:1" /><circle cx="105.978280" cy="105.978236" r="3.749996" style="fill:rgb(0,127,0);stroke-width:1" /><circle cx="97.826086" cy="97.826108" r="3.749996" style="fill:rgb(0,127,0);stroke-width:1" /><circle cx="96.774191" cy="96.774146" r="3.749996" style="fill:rgb(0,127,0);stroke-width:1" /><circle cx="95.744669" cy="95.744759" r="3.749996" style="fill:rgb(0,127,0);stroke-width:1" /><circle cx="87.209299" cy="87.209433" r="3.749996" style="fill:rgb(0,127,0);stroke-width:1" /><circle cx="86.206868" cy="86.207047" r="3.749996" style="fill:rgb(0,127,0);stroke-width:1" /><circle cx="84.183678" cy="84.183678" r="3.749996" style="fill:rgb(0,127,0);stroke-width:1" /><circle cx="77.319592" cy="77.319592" r="3.749996" style="fill:rgb(0,127,0);stroke-width:1" /><circle cx="76.530620" cy="76.530620" r="3.749996" style="fill:rgb(0,127,0);stroke-width:1" /><path stroke-linejoin="round" stroke-linecap="round" stroke="rgb(255,255,255)" stroke-width="3.749996" fill="none" d="M 0.000000 750.000000 L 750.000000 750.000000 M 0.000000 750.000000 L 0.000000 0.000000 " />

</svg>