<svg xmlns="http://www.w3.org/2000/svg" version="1.1" width = "750" height = "750" viewBox = "0 0 750 750"  shape-rendering="crispEdges">
<path stroke-linejoin="round" stroke-linecap="round" stroke="rgb(255,255,0)" stroke-width="3.749996" fill="none" d="M 124.999992 750.000000 L 0.000000 0.000000 " />
<path stroke-linejoin="round" stroke-linecap="round" stroke="rgb(63,63,63)" stroke-width="3.749996" fill="none" d="M 0.000000 0.000000 L 750.000000 750.000000 M 124.999992 750.000000 L 56.818172 0.000000 " />
<path stroke-linejoin="round" stroke-linecap="round" stroke="rgb(191,191,191)" stroke-width="3.749996" fill="none" d="M 0.000000 625.000000 L 124.999992 750.000000 M 0.000000 0.000000 L 68.181824 750.000000 " />
<path stroke-linejoin="round" stroke-linecap="round" stroke="rgb(0,0,255)" stroke-width="1.874998" fill="none" d="M 0.000000 750.000000 L 750.000000 575.581421 " />
<path stroke-linejoin="round" stroke-linecap="round" stroke="rgb(255,0,0)" stroke-width="3.749996" fill="none" d="M 122.412018 721.532104 L 124.999992 750.000000 " />
<path stroke-linejoin="round" stroke-linecap="round" stroke="rgb(0,0,255)" stroke-width="1.874998" fill="none" d="M 0.000000 750.000000 L 750.000000 540.697693 " />
<path stroke-linejoin="round" stroke-linecap="round" stroke="rgb(255,0,0)" stroke-width="3.749996" fill="none" d="M 121.907204 715.979370 L 122.412018 721.532104 " />
<path stroke-linejoin="round" stroke-linecap="round" stroke="rgb(0,0,255)" stroke-width="1.874998" fill="none" d="M 0.000000 750.000000 L 750.000000 528.409119 " />
<path stroke-linejoin="round" stroke-linecap="round" stroke="rgb(255,0,0)" stroke-width="3.749996" fill="none" d="M 121.730377 714.034241 L 121.907204 715.979370 " />
<path stroke-linejoin="round" stroke-linecap="round" stroke="rgb(0,0,255)" stroke-width="1.874998" fill="none" d="M 0.000000 750.000000 L 750.000000 494.318146 " />
<path stroke-linejoin="round" stroke-linecap="round" stroke="rgb(255,0,0)" stroke-width="3.749996" fill="none" d="M 121.242485 708.667358 L 121.730377 714.034241 " />
<path stroke-linejoin="round" stroke-linecap="round" stroke="rgb(0,0,255)" stroke-width="1.874998" fill="none" d="M 0.000000 750.000000 L 750.000000 392.857178 " />
<path stroke-linejoin="round" stroke-linecap="round" stroke="rgb(255,0,0)" stroke-width="3.749996" fill="none" d="M 119.813271 692.946045 L 121.242485 708.667358 " />
<path stroke-linejoin="round" stroke-linecap="round" stroke="rgb(0,0,255)" stroke-width="1.874998" fill="none" d="M 0.000000 750.000000 L 750.000000 383.720947 " />
<path stroke-linejoin="round" stroke-linecap="round" stroke="rgb(255,0,0)" stroke-width="3.749996" fill="none" d="M 119.686226 691.548584 L 119.813271 692.946045 " />
<path stroke-linejoin="round" stroke-linecap="round" stroke="rgb(0,0,255)" stroke-width="1.874998" fill="none" d="M 0.000000 750.000000 L 750.000000 329.268280 " />
<path stroke-linejoin="round" stroke-linecap="round" stroke="rgb(255,0,0)" stroke-width="3.749996" fill="none" d="M 118.934578 683.280579 L 119.686226 691.548584 " />
<path stroke-linejoin="round" stroke-linecap="round" stroke="rgb(0,0,255)" stroke-width="1.874998" fill="none" d="M 0.000000 750.000000 L 750.000000 269.230743 " />
<path stroke-linejoin="round" stroke-linecap="round" stroke="rgb(255,0,0)" stroke-width="3.749996" fill="none" d="M 118.116730 674.284119 L 118.934578 683.280579 " />
<path stroke-linejoin="round" stroke-linecap="round" stroke="rgb(0,0,255)" stroke-width="1.874998" fill="none" d="M 0.000000 750.000000 L 750.000000 59.210526 " />
<path stroke-linejoin="round" stroke-linecap="round" stroke="rgb(255,0,0)" stroke-width="3.749996" fill="none" d="M 115.342140 643.763855 L 118.116730 674.284119 " />
<path stroke-linejoin="round" stroke-linecap="round" stroke="rgb(0,0,255)" stroke-width="1.874998" fill="none" d="M 0.000000 750.000000 L 650.000000 0.000000 " />
<path stroke-linejoin="round" stroke-linecap="round" stroke="rgb(255,0,0)" stroke-width="3.749996" fill="none" d="M 113.132896 619.462097 L 115.342140 643.763855 " />
<path stroke-linejoin="round" stroke-linecap="round" stroke="rgb(0,0,255)" stroke-width="1.874998" fill="none" d="M 0.000000 750.000000 L 619.565186 0.000000 " />
<path stroke-linejoin="round" stroke-linecap="round" stroke="rgb(255,0,0)" stroke-width="3.749996" fill="none" d="M 112.607742 613.685364 L 113.132896 619.462097 " />
<path stroke-linejoin="round" stroke-linecap="round" stroke="rgb(0,0,255)" stroke-width="1.874998" fill="none" d="M 0.000000 750.000000 L 562.500000 0.000000 " />
<path stroke-linejoin="round" stroke-linecap="round" stroke="rgb(255,0,0)" stroke-width="3.749996" fill="none" d="M 111.486465 601.351379 L 112.607742 613.685364 " />
<path stroke-linejoin="round" stroke-linecap="round" stroke="rgb(0,0,255)" stroke-width="1.874998" fill="none" d="M 0.000000 750.000000 L 535.714294 0.000000 " />
<path stroke-linejoin="round" stroke-linecap="round" stroke="rgb(255,0,0)" stroke-width="3.749996" fill="none" d="M 110.887077 594.758057 L 111.486465 601.351379 " />
<path stroke-linejoin="round" stroke-linecap="round" stroke="rgb(0,0,255)" stroke-width="1.874998" fill="none" d="M 0.000000 750.000000 L 485.294128 0.000000 " />
<path stroke-linejoin="round" stroke-linecap="round" stroke="rgb(255,0,0)" stroke-width="3.749996" fill="none" d="M 109.601456 580.615967 L 110.887077 594.758057 " />
<path stroke-linejoin="round" stroke-linecap="round" stroke="rgb(0,0,255)" stroke-width="1.874998" fill="none" d="M 0.000000 750.000000 L 393.442596 0.000000 " />
<path stroke-linejoin="round" stroke-linecap="round" stroke="rgb(255,0,0)" stroke-width="3.749996" fill="none" d="M 106.537521 546.912842 L 109.601456 580.615967 " />
<path stroke-linejoin="round" stroke-linecap="round" stroke="rgb(0,0,255)" stroke-width="1.874998" fill="none" d="M 0.000000 750.000000 L 348.591522 0.000000 " />
<path stroke-linejoin="round" stroke-linecap="round" stroke="rgb(255,0,0)" stroke-width="3.749996" fill="none" d="M 104.550697 525.057617 L 106.537521 546.912842 " />
<path stroke-linejoin="round" stroke-linecap="round" stroke="rgb(0,0,255)" stroke-width="1.874998" fill="none" d="M 0.000000 750.000000 L 333.333344 0.000000 " />
<path stroke-linejoin="round" stroke-linecap="round" stroke="rgb(255,0,0)" stroke-width="3.749996" fill="none" d="M 103.773575 516.509460 L 104.550697 525.057617 " />
<path stroke-linejoin="round" stroke-linecap="round" stroke="rgb(0,0,255)" stroke-width="1.874998" fill="none" d="M 0.000000 750.000000 L 297.945190 0.000000 " />
<path stroke-linejoin="round" stroke-linecap="round" stroke="rgb(255,0,0)" stroke-width="3.749996" fill="none" d="M 101.721924 493.941345 L 103.773575 516.509460 " />
<path stroke-linejoin="round" stroke-linecap="round" stroke="rgb(0,0,255)" stroke-width="1.874998" fill="none" d="M 0.000000 750.000000 L 270.000000 0.000000 " />
<path stroke-linejoin="round" stroke-linecap="round" stroke="rgb(255,0,0)" stroke-width="3.749996" fill="none" d="M 99.798378 472.782288 L 101.721924 493.941345 " />
<path stroke-linejoin="round" stroke-linecap="round" stroke="rgb(0,0,255)" stroke-width="1.874998" fill="none" d="M 0.000000 750.000000 L 229.411758 0.000000 " />
<path stroke-linejoin="round" stroke-linecap="round" stroke="rgb(255,0,0)" stroke-width="3.749996" fill="none" d="M 96.361176 434.973083 L 99.798378 472.782288 " />
<path stroke-linejoin="round" stroke-linecap="round" stroke="rgb(0,0,255)" stroke-width="1.874998" fill="none" d="M 0.000000 750.000000 L 213.157898 0.000000 " />
<path stroke-linejoin="round" stroke-linecap="round" stroke="rgb(255,0,0)" stroke-width="3.749996" fill="none" d="M 94.706635 416.772980 L 96.361176 434.973083 " />
<path stroke-linejoin="round" stroke-linecap="round" stroke="rgb(0,0,255)" stroke-width="1.874998" fill="none" d="M 0.000000 750.000000 L 203.125000 0.000000 " />
<path stroke-linejoin="round" stroke-linecap="round" stroke="rgb(255,0,0)" stroke-width="3.749996" fill="none" d="M 93.586388 404.450287 L 94.706635 416.772980 " />
<path stroke-linejoin="round" stroke-linecap="round" stroke="rgb(0,0,255)" stroke-width="1.874998" fill="none" d="M 0.000000 750.000000 L 198.979584 0.000000 " />
<path stroke-linejoin="round" stroke-linecap="round" stroke="rgb(255,0,0)" stroke-width="3.749996" fill="none" d="M 93.098961 399.088562 L 93.586388 404.450287 " />
<path stroke-linejoin="round" stroke-linecap="round" stroke="rgb(0,0,255)" stroke-width="1.874998" fill="none" d="M 0.000000 750.000000 L 191.666656 0.000000 " />
<path stroke-linejoin="round" stroke-linecap="round" stroke="rgb(255,0,0)" stroke-width="3.749996" fill="none" d="M 90.373795 396.363403 L 93.098961 399.088562 " />
<path stroke-linejoin="round" stroke-linecap="round" stroke="rgb(0,0,255)" stroke-width="1.874998" fill="none" d="M 0.000000 750.000000 L 181.318665 0.000000 " />
<path stroke-linejoin="round" stroke-linecap="round" stroke="rgb(255,0,0)" stroke-width="3.749996" fill="none" d="M 86.444489 392.434143 L 90.373795 396.363403 " />
<path stroke-linejoin="round" stroke-linecap="round" stroke="rgb(0,0,255)" stroke-width="1.874998" fill="none" d="M 0.000000 750.000000 L 170.792068 0.000000 " />
<path stroke-linejoin="round" stroke-linecap="round" stroke="rgb(255,0,0)" stroke-width="3.749996" fill="none" d="M 85.012634 376.683624 L 86.444489 392.434143 " />
<path stroke-linejoin="round" stroke-linecap="round" stroke="rgb(0,0,255)" stroke-width="1.874998" fill="none" d="M 0.000000 750.000000 L 161.290298 0.000000 " />
<path stroke-linejoin="round" stroke-linecap="round" stroke="rgb(255,0,0)" stroke-width="3.749996" fill="none" d="M 81.120171 372.791168 L 85.012634 376.683624 " />
<path stroke-linejoin="round" stroke-linecap="round" stroke="rgb(0,0,255)" stroke-width="1.874998" fill="none" d="M 0.000000 750.000000 L 157.894745 0.000000 " />
<path stroke-linejoin="round" stroke-linecap="round" stroke="rgb(255,0,0)" stroke-width="3.749996" fill="none" d="M 79.709396 371.380432 L 81.120171 372.791168 " />
<path stroke-linejoin="round" stroke-linecap="round" stroke="rgb(0,0,255)" stroke-width="1.874998" fill="none" d="M 0.000000 750.000000 L 148.437515 0.000000 " />
<path stroke-linejoin="round" stroke-linecap="round" stroke="rgb(255,0,0)" stroke-width="3.749996" fill="none" d="M 75.723923 367.394958 L 79.709396 371.380432 " />
<path stroke-linejoin="round" stroke-linecap="round" stroke="rgb(0,0,255)" stroke-width="1.874998" fill="none" d="M 0.000000 750.000000 L 139.175262 0.000000 " />
<path stroke-linejoin="round" stroke-linecap="round" stroke="rgb(255,0,0)" stroke-width="3.749996" fill="none" d="M 71.738449 363.409485 L 75.723923 367.394958 " />
<path stroke-linejoin="round" stroke-linecap="round" stroke="rgb(0,0,255)" stroke-width="1.874998" fill="none" d="M 0.000000 750.000000 L 130.102051 0.000000 " />
<path stroke-linejoin="round" stroke-linecap="round" stroke="rgb(255,0,0)" stroke-width="3.749996" fill="none" d="M 67.752983 359.424042 L 71.738449 363.409485 " />
<path stroke-linejoin="round" stroke-linecap="round" stroke="rgb(0,0,255)" stroke-width="1.874998" fill="none" d="M 0.000000 750.000000 L 127.500015 0.000000 " />
<path stroke-linejoin="round" stroke-linecap="round" stroke="rgb(255,0,0)" stroke-width="3.749996" fill="none" d="M 66.594803 358.265869 L 67.752983 359.424042 " />
<path stroke-linejoin="round" stroke-linecap="round" stroke="rgb(0,0,255)" stroke-width="1.874998" fill="none" d="M 0.000000 750.000000 L 118.811890 0.000000 " />
<path stroke-linejoin="round" stroke-linecap="round" stroke="rgb(255,0,0)" stroke-width="3.749996" fill="none" d="M 62.677460 354.348511 L 66.594803 358.265869 " />
<path stroke-linejoin="round" stroke-linecap="round" stroke="rgb(0,0,255)" stroke-width="1.874998" fill="none" d="M 0.000000 750.000000 L 116.504852 0.000000 " />
<path stroke-linejoin="round" stroke-linecap="round" stroke="rgb(255,0,0)" stroke-width="3.749996" fill="none" d="M 61.624065 353.295105 L 62.677460 354.348511 " />
<path stroke-linejoin="round" stroke-linecap="round" stroke="rgb(0,0,255)" stroke-width="1.874998" fill="none" d="M 0.000000 750.000000 L 108.173088 0.000000 " />
<path stroke-linejoin="round" stroke-linecap="round" stroke="rgb(255,0,0)" stroke-width="3.749996" fill="none" d="M 57.772549 349.443634 L 61.624065 353.295105 " />
<path stroke-linejoin="round" stroke-linecap="round" stroke="rgb(0,0,255)" stroke-width="1.874998" fill="none" d="M 0.000000 750.000000 L 106.132057 0.000000 " />
<path stroke-linejoin="round" stroke-linecap="round" stroke="rgb(255,0,0)" stroke-width="3.749996" fill="none" d="M 56.817635 348.488770 L 57.772549 349.443634 " />
<path stroke-linejoin="round" stroke-linecap="round" stroke="rgb(0,0,255)" stroke-width="1.874998" fill="none" d="M 0.000000 750.000000 L 98.130852 0.000000 " />
<path stroke-linejoin="round" stroke-linecap="round" stroke="rgb(255,0,0)" stroke-width="3.749996" fill="none" d="M 53.029778 344.700928 L 56.817635 348.488770 " />
<path stroke-linejoin="round" stroke-linecap="round" stroke="rgb(0,0,255)" stroke-width="1.874998" fill="none" d="M 0.000000 750.000000 L 96.330284 0.000000 " />
<path stroke-linejoin="round" stroke-linecap="round" stroke="rgb(255,0,0)" stroke-width="3.749996" fill="none" d="M 52.167511 343.838654 L 53.029778 344.700928 " />
<path stroke-linejoin="round" stroke-linecap="round" stroke="rgb(0,0,255)" stroke-width="1.874998" fill="none" d="M 0.000000 750.000000 L 94.537811 0.000000 " />
<path stroke-linejoin="round" stroke-linecap="round" stroke="rgb(255,0,0)" stroke-width="3.749996" fill="none" d="M 51.760777 339.364594 L 52.167511 343.838684 " />
<path stroke-linejoin="round" stroke-linecap="round" stroke="rgb(0,0,255)" stroke-width="1.874998" fill="none" d="M 0.000000 750.000000 L 92.975197 0.000000 " />
<path stroke-linejoin="round" stroke-linecap="round" stroke="rgb(255,0,0)" stroke-width="3.749996" fill="none" d="M 51.398815 335.382996 L 51.760754 339.364655 " />
<path stroke-linejoin="round" stroke-linecap="round" stroke="rgb(0,0,255)" stroke-width="1.874998" fill="none" d="M 0.000000 750.000000 L 92.920349 0.000000 " />
<path stroke-linejoin="round" stroke-linecap="round" stroke="rgb(255,0,0)" stroke-width="3.749996" fill="none" d="M 51.371811 335.355988 L 51.398815 335.382996 " />
<path stroke-linejoin="round" stroke-linecap="round" stroke="rgb(0,0,255)" stroke-width="1.874998" fill="none" d="M 0.000000 750.000000 L 85.526306 0.000000 " />
<path stroke-linejoin="round" stroke-linecap="round" stroke="rgb(255,0,0)" stroke-width="3.749996" fill="none" d="M 47.702415 331.686584 L 51.371811 335.355988 " />
<path stroke-linejoin="round" stroke-linecap="round" stroke="rgb(0,0,255)" stroke-width="1.874998" fill="none" d="M 0.000000 750.000000 L 84.051712 0.000000 " />
<path stroke-linejoin="round" stroke-linecap="round" stroke="rgb(255,0,0)" stroke-width="3.749996" fill="none" d="M 46.962841 330.947021 L 47.702415 331.686584 " />
<path stroke-linejoin="round" stroke-linecap="round" stroke="rgb(0,0,255)" stroke-width="1.874998" fill="none" d="M 0.000000 750.000000 L 78.000000 0.000000 " />
<path stroke-linejoin="round" stroke-linecap="round" stroke="rgb(255,0,0)" stroke-width="3.749996" fill="none" d="M 45.385727 313.598816 L 46.962841 330.947021 " />
<path stroke-linejoin="round" stroke-linecap="round" stroke="rgb(0,0,255)" stroke-width="1.874998" fill="none" d="M 0.000000 750.000000 L 70.312500 0.000000 " />
<path stroke-linejoin="round" stroke-linecap="round" stroke="rgb(255,0,0)" stroke-width="3.749996" fill="none" d="M 43.183563 289.375214 L 45.385727 313.598816 " />
<path stroke-linejoin="round" stroke-linecap="round" stroke="rgb(0,0,255)" stroke-width="1.874998" fill="none" d="M 0.000000 750.000000 L 63.953476 0.000000 " />
<path stroke-linejoin="round" stroke-linecap="round" stroke="rgb(255,0,0)" stroke-width="3.749996" fill="none" d="M 39.584934 285.776581 L 43.183563 289.375214 " />
<path stroke-linejoin="round" stroke-linecap="round" stroke="rgb(0,0,255)" stroke-width="1.874998" fill="none" d="M 0.000000 750.000000 L 57.692303 0.000000 " />
<path stroke-linejoin="round" stroke-linecap="round" stroke="rgb(255,0,0)" stroke-width="3.749996" fill="none" d="M 35.986305 282.177948 L 39.584934 285.776581 " />
<path stroke-linejoin="round" stroke-linecap="round" stroke="rgb(0,0,255)" stroke-width="1.874998" fill="none" d="M 0.000000 750.000000 L 51.526711 0.000000 " />
<path stroke-linejoin="round" stroke-linecap="round" stroke="rgb(255,0,0)" stroke-width="3.749996" fill="none" d="M 32.387672 278.579315 L 35.986305 282.177948 " />
<path stroke-linejoin="round" stroke-linecap="round" stroke="rgb(0,0,255)" stroke-width="1.874998" fill="none" d="M 0.000000 750.000000 L 50.751888 0.000000 " />
<path stroke-linejoin="round" stroke-linecap="round" stroke="rgb(255,0,0)" stroke-width="3.749996" fill="none" d="M 31.931519 278.123138 L 32.387672 278.579315 " />
<path stroke-linejoin="round" stroke-linecap="round" stroke="rgb(0,0,255)" stroke-width="1.874998" fill="none" d="M 0.000000 750.000000 L 45.801537 0.000000 " />
<path stroke-linejoin="round" stroke-linecap="round" stroke="rgb(255,0,0)" stroke-width="3.749996" fill="none" d="M 28.996155 275.187805 L 31.931519 278.123138 " />
<path stroke-linejoin="round" stroke-linecap="round" stroke="rgb(0,0,255)" stroke-width="1.874998" fill="none" d="M 0.000000 750.000000 L 45.112789 0.000000 " />
<path stroke-linejoin="round" stroke-linecap="round" stroke="rgb(255,0,0)" stroke-width="3.749996" fill="none" d="M 28.584860 274.776520 L 28.996155 275.187836 " />
<path stroke-linejoin="round" stroke-linecap="round" stroke="rgb(0,0,255)" stroke-width="1.874998" fill="none" d="M 0.000000 750.000000 L 43.795624 0.000000 " />
<path stroke-linejoin="round" stroke-linecap="round" stroke="rgb(255,0,0)" stroke-width="3.749996" fill="none" d="M 27.796312 273.987976 L 28.584860 274.776520 " />
<path stroke-linejoin="round" stroke-linecap="round" stroke="rgb(0,0,255)" stroke-width="1.874998" fill="none" d="M 0.000000 750.000000 L 43.165459 0.000000 " />
<path stroke-linejoin="round" stroke-linecap="round" stroke="rgb(255,0,0)" stroke-width="3.749996" fill="none" d="M 27.418144 273.609863 L 27.796312 273.987976 " />
<path stroke-linejoin="round" stroke-linecap="round" stroke="rgb(0,0,255)" stroke-width="1.874998" fill="none" d="M 0.000000 750.000000 L 41.379311 0.000000 " />
<path stroke-linejoin="round" stroke-linecap="round" stroke="rgb(255,0,0)" stroke-width="3.749996" fill="none" d="M 26.712097 265.843292 L 27.418144 273.609863 " />
<path stroke-linejoin="round" stroke-linecap="round" stroke="rgb(0,0,255)" stroke-width="1.874998" fill="none" d="M 0.000000 750.000000 L 37.769794 0.000000 " />
<path stroke-linejoin="round" stroke-linecap="round" stroke="rgb(255,0,0)" stroke-width="3.749996" fill="none" d="M 24.493710 263.624939 L 26.712097 265.843292 " />
<path stroke-linejoin="round" stroke-linecap="round" stroke="rgb(0,0,255)" stroke-width="1.874998" fill="none" d="M 0.000000 750.000000 L 37.234047 0.000000 " />
<path stroke-linejoin="round" stroke-linecap="round" stroke="rgb(255,0,0)" stroke-width="3.749996" fill="none" d="M 24.162725 263.293915 L 24.493710 263.624939 " />
<path stroke-linejoin="round" stroke-linecap="round" stroke="rgb(0,0,255)" stroke-width="1.874998" fill="none" d="M 0.000000 750.000000 L 35.472973 0.000000 " />
<path stroke-linejoin="round" stroke-linecap="round" stroke="rgb(255,0,0)" stroke-width="3.749996" fill="none" d="M 23.410992 255.024918 L 24.162725 263.293915 " />
<path stroke-linejoin="round" stroke-linecap="round" stroke="rgb(0,0,255)" stroke-width="1.874998" fill="none" d="M 0.000000 750.000000 L 34.768223 0.000000 " />
<path stroke-linejoin="round" stroke-linecap="round" stroke="rgb(255,0,0)" stroke-width="3.749996" fill="none" d="M 23.102940 251.636444 L 23.410992 255.024918 " />
<path stroke-linejoin="round" stroke-linecap="round" stroke="rgb(0,0,255)" stroke-width="1.874998" fill="none" d="M 0.000000 750.000000 L 31.690144 0.000000 " />
<path stroke-linejoin="round" stroke-linecap="round" stroke="rgb(255,0,0)" stroke-width="3.749996" fill="none" d="M 21.634609 237.980789 L 23.102940 251.636398 " />
<path stroke-linejoin="round" stroke-linecap="round" stroke="rgb(0,0,255)" stroke-width="1.874998" fill="none" d="M 0.000000 750.000000 L 26.223778 0.000000 " />
<path stroke-linejoin="round" stroke-linecap="round" stroke="rgb(255,0,0)" stroke-width="3.749996" fill="none" d="M 18.939390 208.333298 L 21.634609 237.980789 " />
<path stroke-linejoin="round" stroke-linecap="round" stroke="rgb(0,0,255)" stroke-width="1.874998" fill="none" d="M 0.000000 750.000000 L 20.833344 0.000000 " />
<path stroke-linejoin="round" stroke-linecap="round" stroke="rgb(255,0,0)" stroke-width="3.749996" fill="none" d="M 15.957445 175.531921 L 18.939390 208.333298 " />
<path stroke-linejoin="round" stroke-linecap="round" stroke="rgb(0,0,255)" stroke-width="1.874998" fill="none" d="M 0.000000 750.000000 L 20.547956 0.000000 " />
<path stroke-linejoin="round" stroke-linecap="round" stroke="rgb(255,0,0)" stroke-width="3.749996" fill="none" d="M 15.789472 173.684296 L 15.957445 175.531921 " />
<path stroke-linejoin="round" stroke-linecap="round" stroke="rgb(0,0,255)" stroke-width="1.874998" fill="none" d="M 0.000000 750.000000 L 19.480526 0.000000 " />
<path stroke-linejoin="round" stroke-linecap="round" stroke="rgb(255,0,0)" stroke-width="3.749996" fill="none" d="M 15.151508 166.666748 L 15.789472 173.684296 " />
<path stroke-linejoin="round" stroke-linecap="round" stroke="rgb(0,0,255)" stroke-width="1.874998" fill="none" d="M 0.000000 750.000000 L 19.230768 0.000000 " />
<path stroke-linejoin="round" stroke-linecap="round" stroke="rgb(255,0,0)" stroke-width="3.749996" fill="none" d="M 15.000008 165.000015 L 15.151508 166.666748 " />
<path stroke-linejoin="round" stroke-linecap="round" stroke="rgb(0,0,255)" stroke-width="1.874998" fill="none" d="M 0.000000 750.000000 L 19.108280 0.000000 " />
<path stroke-linejoin="round" stroke-linecap="round" stroke="rgb(255,0,0)" stroke-width="3.749996" fill="none" d="M 14.925376 164.179153 L 15.000008 165.000015 " />
<path stroke-linejoin="round" stroke-linecap="round" stroke="rgb(0,0,255)" stroke-width="1.874998" fill="none" d="M 0.000000 750.000000 L 18.867931 0.000000 " />
<path stroke-linejoin="round" stroke-linecap="round" stroke="rgb(255,0,0)" stroke-width="3.749996" fill="none" d="M 14.778323 162.561600 L 14.925376 164.179153 " />
<path stroke-linejoin="round" stroke-linecap="round" stroke="rgb(0,0,255)" stroke-width="1.874998" fill="none" d="M 0.000000 750.000000 L 14.062509 0.000000 " />
<path stroke-linejoin="round" stroke-linecap="round" stroke="rgb(255,0,0)" stroke-width="3.749996" fill="none" d="M 11.658043 128.238266 L 14.778323 162.561600 " />
<path stroke-linejoin="round" stroke-linecap="round" stroke="rgb(0,0,255)" stroke-width="1.874998" fill="none" d="M 0.000000 750.000000 L 13.888881 0.000000 " />
<path stroke-linejoin="round" stroke-linecap="round" stroke="rgb(255,0,0)" stroke-width="3.749996" fill="none" d="M 11.538461 126.923088 L 11.658043 128.238266 " />
<circle cx="122.412018" cy="721.532084" r="3.749996" style="fill:rgb(0,127,0);stroke-width:1" /><circle cx="121.907204" cy="715.979375" r="3.749996" style="fill:rgb(0,127,0);stroke-width:1" /><circle cx="121.730380" cy="714.034215" r="3.749996" style="fill:rgb(0,127,0);stroke-width:1" /><circle cx="121.242486" cy="708.667338" r="3.749996" style="fill:rgb(0,127,0);stroke-width:1" /><circle cx="119.813271" cy="692.946061" r="3.749996" style="fill:rgb(0,127,0);stroke-width:1" /><circle cx="119.686224" cy="691.548586" r="3.749996" style="fill:rgb(0,127,0);stroke-width:1" /><circle cx="118.934579" cy="683.280610" r="3.749996" style="fill:rgb(0,127,0);stroke-width:1" /><circle cx="118.116729" cy="674.284145" r="3.749996" style="fill:rgb(0,127,0);stroke-width:1" /><circle cx="115.342140" cy="643.763825" r="3.749996" style="fill:rgb(0,127,0);stroke-width:1" /><circle cx="113.132894" cy="619.462050" r="3.749996" style="fill:rgb(0,127,0);stroke-width:1" /><circle cx="112.607740" cy="613.685355" r="3.749996" style="fill:rgb(0,127,0);stroke-width:1" /><circle cx="111.486465" cy="601.351373" r="3.749996" style="fill:rgb(0,127,0);stroke-width:1" /><circle cx="110.887080" cy="594.758078" r="3.749996" style="fill:rgb(0,127,0);stroke-width:1" /><circle cx="109.601453" cy="580.615953" r="3.749996" style="fill:rgb(0,127,0);stroke-width:1" /><circle cx="106.537521" cy="546.912834" r="3.749996" style="fill:rgb(0,127,0);stroke-width:1" /><circle cx="104.550697" cy="525.057603" r="3.749996" style="fill:rgb(0,127,0);stroke-width:1" /><circle cx="103.773572" cy="516.509447" r="3.749996" style="fill:rgb(0,127,0);stroke-width:1" /><circle cx="101.721928" cy="493.941341" r="3.749996" style="fill:rgb(0,127,0);stroke-width:1" /><circle cx="99.798381" cy="472.782288" r="3.749996" style="fill:rgb(0,127,0);stroke-width:1" /><circle cx="96.361175" cy="434.973059" r="3.749996" style="fill:rgb(0,127,0);stroke-width:1" /><circle cx="94.706632" cy="416.772991" r="3.749996" style="fill:rgb(0,127,0);stroke-width:1" /><circle cx="93.586385" cy="404.450297" r="3.749996" style="fill:rgb(0,127,0);stroke-width:1" /><circle cx="93.098961" cy="399.088562" r="3.749996" style="fill:rgb(0,127,0);stroke-width:1" /><circle cx="90.373792" cy="396.363408" r="3.749996" style="fill:rgb(0,127,0);stroke-width:1" /><circle cx="86.444490" cy="392.434150" r="3.749996" style="fill:rgb(0,127,0);stroke-width:1" /><circle cx="85.012637" cy="376.683623" r="3.749996" style="fill:rgb(0,127,0);stroke-width:1" /><circle cx="81.120171" cy="372.791171" r="3.749996" style="fill:rgb(0,127,0);stroke-width:1" /><circle cx="79.709396" cy="371.380418" r="3.749996" style="fill:rgb(0,127,0);stroke-width:1" /><circle cx="75.723924" cy="367.394954" r="3.749996" style="fill:rgb(0,127,0);stroke-width:1" /><circle cx="71.738452" cy="363.409490" r="3.749996" style="fill:rgb(0,127,0);stroke-width:1" /><circle cx="67.752980" cy="359.424025" r="3.749996" style="fill:rgb(0,127,0);stroke-width:1" /><circle cx="66.594802" cy="358.265847" r="3.749996" style="fill:rgb(0,127,0);stroke-width:1" /><circle cx="62.677458" cy="354.348511" r="3.749996" style="fill:rgb(0,127,0);stroke-width:1" /><circle cx="61.624065" cy="353.295118" r="3.749996" style="fill:rgb(0,127,0);stroke-width:1" /><circle cx="57.772547" cy="349.443614" r="3.749996" style="fill:rgb(0,127,0);stroke-width:1" /><circle cx="56.817636" cy="348.488747" r="3.749996" style="fill:rgb(0,127,0);stroke-width:1" /><circle cx="53.029776" cy="344.700932" r="3.749996" style="fill:rgb(0,127,0);stroke-width:1" /><circle cx="52.167512" cy="343.838663" r="3.749996" style="fill:rgb(0,127,0);stroke-width:1" /><circle cx="51.760778" cy="339.364587" r="3.749996" style="fill:rgb(0,127,0);stroke-width:1" /><circle cx="51.398814" cy="335.382999" r="3.749996" style="fill:rgb(0,127,0);stroke-width:1" /><circle cx="51.371813" cy="335.355998" r="3.749996" style="fill:rgb(0,127,0);stroke-width:1" /><circle cx="47.702417" cy="331.686585" r="3.749996" style="fill:rgb(0,127,0);stroke-width:1" /><circle cx="46.962842" cy="330.947011" r="3.749996" style="fill:rgb(0,127,0);stroke-width:1" /><circle cx="45.385726" cy="313.598810" r="3.749996" style="fill:rgb(0,127,0);stroke-width:1" /><circle cx="43.183565" cy="289.375216" r="3.749996" style="fill:rgb(0,127,0);stroke-width:1" /><circle cx="39.584935" cy="285.776585" r="3.749996" style="fill:rgb(0,127,0);stroke-width:1" /><circle cx="35.986304" cy="282.177955" r="3.749996" style="fill:rgb(0,127,0);stroke-width:1" /><circle cx="32.387674" cy="278.579324" r="3.749996" style="fill:rgb(0,127,0);stroke-width:1" /><circle cx="31.931520" cy="278.123114" r="3.749996" style="fill:rgb(0,127,0);stroke-width:1" /><circle cx="28.996155" cy="275.187816" r="3.749996" style="fill:rgb(0,127,0);stroke-width:1" /><circle cx="28.584860" cy="274.776544" r="3.749996" style="fill:rgb(0,127,0);stroke-width:1" /><circle cx="27.796313" cy="273.987975" r="3.749996" style="fill:rgb(0,127,0);stroke-width:1" /><circle cx="27.418144" cy="273.609851" r="3.749996" style="fill:rgb(0,127,0);stroke-width:1" /><circle cx="26.712097" cy="265.843302" r="3.749996" style="fill:rgb(0,127,0);stroke-width:1" /><circle cx="24.493709" cy="263.624936" r="3.749996" style="fill:rgb(0,127,0);stroke-width:1" /><circle cx="24.162725" cy="263.293918" r="3.749996" style="fill:rgb(0,127,0);stroke-width:1" /><circle cx="23.410991" cy="255.024914" r="3.749996" style="fill:rgb(0,127,0);stroke-width:1" /><circle cx="23.102939" cy="251.636446" r="3.749996" style="fill:rgb(0,127,0);stroke-width:1" /><circle cx="21.634609" cy="237.980783" r="3.749996" style="fill:rgb(0,127,0);stroke-width:1" /><circle cx="18.939391" cy="208.333310" r="3.749996" style="fill:rgb(0,127,0);stroke-width:1" /><circle cx="15.957445" cy="175.531916" r="3.749996" style="fill:rgb(0,127,0);stroke-width:1" /><circle cx="15.789472" cy="173.684299" r="3.749996" style="fill:rgb(0,127,0);stroke-width:1" /><circle cx="15.151508" cy="166.666746" r="3.749996" style="fill:rgb(0,127,0);stroke-width:1" /><circle cx="15.000008" cy="165.000021" r="3.749996" style="fill:rgb(0,127,0);stroke-width:1" /><circle cx="14.925376" cy="164.179154" r="3.749996" style="fill:rgb(0,127,0);stroke-width:1" /><circle cx="14.778323" cy="162.561603" r="3.749996" style="fill:rgb(0,127,0);stroke-width:1" /><circle cx="11.658043" cy="128.238268" r="3.749996" style="fill:rgb(0,127,0);stroke-width:1" /><circle cx="11.538461" cy="126.923092" r="3.749996" style="fill:rgb(0,127,0);stroke-width:1" /><path stroke-linejoin="round" stroke-linecap="round" stroke="rgb(255,255,255)" stroke-width="3.749996" fill="none" d="M 0.000000 750.000000 L 750.000000 750.000000 M 0.000000 750.000000 L 0.000000 0.000000 " />

</svg>