<svg xmlns="http://www.w3.org/2000/svg" version="1.1" width = "750" height = "750" viewBox = "0 0 750 750"  shape-rendering="crispEdges">
<path stroke-linejoin="round" stroke-linecap="round" stroke="rgb(255,255,0)" stroke-width="3.749996" fill="none" d="M 375.000000 750.000000 L 0.000000 0.000000 " />
<path stroke-linejoin="round" stroke-linecap="round" stroke="rgb(63,63,63)" stroke-width="3.749996" fill="none" d="M 0.000000 0.000000 L 750.000000 750.000000 M 375.000000 750.000000 L 124.999992 0.000000 " />
<path stroke-linejoin="round" stroke-linecap="round" stroke="rgb(191,191,191)" stroke-width="3.749996" fill="none" d="M 0.000000 375.000000 L 375.000000 750.000000 M 0.000000 0.000000 L 250.000000 750.000000 " />
<path stroke-linejoin="round" stroke-linecap="round" stroke="rgb(0,0,255)" stroke-width="1.874998" fill="none" d="M 0.000000 750.000000 L 750.000000 732.954590 " />
<path stroke-linejoin="round" stroke-linecap="round" stroke="rgb(255,0,0)" stroke-width="3.749996" fill="none" d="M 372.180450 741.541382 L 375.000000 750.000000 " />
<path stroke-linejoin="round" stroke-linecap="round" stroke="rgb(0,0,255)" stroke-width="1.874998" fill="none" d="M 0.000000 750.000000 L 750.000000 715.116272 " />
<path stroke-linejoin="round" stroke-linecap="round" stroke="rgb(255,0,0)" stroke-width="3.749996" fill="none" d="M 366.456573 732.955505 L 372.180511 741.541321 " />
<path stroke-linejoin="round" stroke-linecap="round" stroke="rgb(0,0,255)" stroke-width="1.874998" fill="none" d="M 0.000000 750.000000 L 750.000000 535.714294 " />
<path stroke-linejoin="round" stroke-linecap="round" stroke="rgb(255,0,0)" stroke-width="3.749996" fill="none" d="M 334.989807 654.288635 L 366.456573 732.955505 " />
<path stroke-linejoin="round" stroke-linecap="round" stroke="rgb(0,0,255)" stroke-width="1.874998" fill="none" d="M 0.000000 750.000000 L 750.000000 511.363647 " />
<path stroke-linejoin="round" stroke-linecap="round" stroke="rgb(255,0,0)" stroke-width="3.749996" fill="none" d="M 331.130493 644.640320 L 334.989807 654.288635 " />
<path stroke-linejoin="round" stroke-linecap="round" stroke="rgb(0,0,255)" stroke-width="1.874998" fill="none" d="M 0.000000 750.000000 L 750.000000 488.372101 " />
<path stroke-linejoin="round" stroke-linecap="round" stroke="rgb(255,0,0)" stroke-width="3.749996" fill="none" d="M 327.567291 635.732361 L 331.130493 644.640320 " />
<path stroke-linejoin="round" stroke-linecap="round" stroke="rgb(0,0,255)" stroke-width="1.874998" fill="none" d="M 0.000000 750.000000 L 750.000000 453.488373 " />
<path stroke-linejoin="round" stroke-linecap="round" stroke="rgb(255,0,0)" stroke-width="3.749996" fill="none" d="M 322.305176 622.577026 L 327.567291 635.732361 " />
<path stroke-linejoin="round" stroke-linecap="round" stroke="rgb(0,0,255)" stroke-width="1.874998" fill="none" d="M 0.000000 750.000000 L 750.000000 384.615356 " />
<path stroke-linejoin="round" stroke-linecap="round" stroke="rgb(255,0,0)" stroke-width="3.749996" fill="none" d="M 312.397003 597.806580 L 322.305176 622.577026 " />
<path stroke-linejoin="round" stroke-linecap="round" stroke="rgb(0,0,255)" stroke-width="1.874998" fill="none" d="M 0.000000 750.000000 L 750.000000 355.263153 " />
<path stroke-linejoin="round" stroke-linecap="round" stroke="rgb(255,0,0)" stroke-width="3.749996" fill="none" d="M 308.357086 587.706787 L 312.397003 597.806580 " />
<path stroke-linejoin="round" stroke-linecap="round" stroke="rgb(0,0,255)" stroke-width="1.874998" fill="none" d="M 0.000000 750.000000 L 750.000000 291.666656 " />
<path stroke-linejoin="round" stroke-linecap="round" stroke="rgb(255,0,0)" stroke-width="3.749996" fill="none" d="M 299.952606 566.695618 L 308.357086 587.706787 " />
<path stroke-linejoin="round" stroke-linecap="round" stroke="rgb(0,0,255)" stroke-width="1.874998" fill="none" d="M 0.000000 750.000000 L 750.000000 249.999985 " />
<path stroke-linejoin="round" stroke-linecap="round" stroke="rgb(255,0,0)" stroke-width="3.749996" fill="none" d="M 294.690247 553.539795 L 299.952606 566.695618 " />
<path stroke-linejoin="round" stroke-linecap="round" stroke="rgb(0,0,255)" stroke-width="1.874998" fill="none" d="M 0.000000 750.000000 L 750.000000 243.243225 " />
<path stroke-linejoin="round" stroke-linecap="round" stroke="rgb(255,0,0)" stroke-width="3.749996" fill="none" d="M 293.854279 551.449829 L 294.690247 553.539795 " />
<path stroke-linejoin="round" stroke-linecap="round" stroke="rgb(0,0,255)" stroke-width="1.874998" fill="none" d="M 0.000000 750.000000 L 750.000000 171.428558 " />
<path stroke-linejoin="round" stroke-linecap="round" stroke="rgb(255,0,0)" stroke-width="3.749996" fill="none" d="M 285.253357 529.947388 L 293.854309 551.449768 " />
<path stroke-linejoin="round" stroke-linecap="round" stroke="rgb(0,0,255)" stroke-width="1.874998" fill="none" d="M 0.000000 750.000000 L 750.000000 48.387096 " />
<path stroke-linejoin="round" stroke-linecap="round" stroke="rgb(255,0,0)" stroke-width="3.749996" fill="none" d="M 271.631561 495.893066 L 285.253357 529.947388 " />
<path stroke-linejoin="round" stroke-linecap="round" stroke="rgb(0,0,255)" stroke-width="1.874998" fill="none" d="M 0.000000 750.000000 L 617.647095 0.000000 " />
<path stroke-linejoin="round" stroke-linecap="round" stroke="rgb(255,0,0)" stroke-width="3.749996" fill="none" d="M 251.242355 444.920013 L 271.631561 495.893066 " />
<path stroke-linejoin="round" stroke-linecap="round" stroke="rgb(0,0,255)" stroke-width="1.874998" fill="none" d="M 0.000000 750.000000 L 513.157898 0.000000 " />
<path stroke-linejoin="round" stroke-linecap="round" stroke="rgb(255,0,0)" stroke-width="3.749996" fill="none" d="M 235.561523 405.717773 L 251.242355 444.920013 " />
<path stroke-linejoin="round" stroke-linecap="round" stroke="rgb(0,0,255)" stroke-width="1.874998" fill="none" d="M 0.000000 750.000000 L 487.499969 0.000000 " />
<path stroke-linejoin="round" stroke-linecap="round" stroke="rgb(255,0,0)" stroke-width="3.749996" fill="none" d="M 231.074615 394.500610 L 235.561523 405.717773 " />
<path stroke-linejoin="round" stroke-linecap="round" stroke="rgb(0,0,255)" stroke-width="1.874998" fill="none" d="M 0.000000 750.000000 L 464.285736 0.000000 " />
<path stroke-linejoin="round" stroke-linecap="round" stroke="rgb(255,0,0)" stroke-width="3.749996" fill="none" d="M 226.755463 383.702698 L 231.074585 394.500641 " />
<path stroke-linejoin="round" stroke-linecap="round" stroke="rgb(0,0,255)" stroke-width="1.874998" fill="none" d="M 0.000000 750.000000 L 443.181793 0.000000 " />
<path stroke-linejoin="round" stroke-linecap="round" stroke="rgb(255,0,0)" stroke-width="3.749996" fill="none" d="M 222.594833 373.301056 L 226.755463 383.702698 " />
<path stroke-linejoin="round" stroke-linecap="round" stroke="rgb(0,0,255)" stroke-width="1.874998" fill="none" d="M 0.000000 750.000000 L 390.625031 0.000000 " />
<path stroke-linejoin="round" stroke-linecap="round" stroke="rgb(255,0,0)" stroke-width="3.749996" fill="none" d="M 211.128052 344.634186 L 222.594833 373.301056 " />
<path stroke-linejoin="round" stroke-linecap="round" stroke="rgb(0,0,255)" stroke-width="1.874998" fill="none" d="M 0.000000 750.000000 L 382.352966 0.000000 " />
<path stroke-linejoin="round" stroke-linecap="round" stroke="rgb(255,0,0)" stroke-width="3.749996" fill="none" d="M 209.162369 339.719971 L 211.128052 344.634186 " />
<path stroke-linejoin="round" stroke-linecap="round" stroke="rgb(0,0,255)" stroke-width="1.874998" fill="none" d="M 0.000000 750.000000 L 375.000000 0.000000 " />
<path stroke-linejoin="round" stroke-linecap="round" stroke="rgb(255,0,0)" stroke-width="3.749996" fill="none" d="M 207.374649 335.250702 L 209.162369 339.719971 " />
<path stroke-linejoin="round" stroke-linecap="round" stroke="rgb(0,0,255)" stroke-width="1.874998" fill="none" d="M 0.000000 750.000000 L 350.000000 0.000000 " />
<path stroke-linejoin="round" stroke-linecap="round" stroke="rgb(255,0,0)" stroke-width="3.749996" fill="none" d="M 199.242325 323.052185 L 207.374649 335.250702 " />
<path stroke-linejoin="round" stroke-linecap="round" stroke="rgb(0,0,255)" stroke-width="1.874998" fill="none" d="M 0.000000 750.000000 L 300.000000 0.000000 " />
<path stroke-linejoin="round" stroke-linecap="round" stroke="rgb(255,0,0)" stroke-width="3.749996" fill="none" d="M 185.010727 287.473114 L 199.242325 323.052185 " />
<path stroke-linejoin="round" stroke-linecap="round" stroke="rgb(0,0,255)" stroke-width="1.874998" fill="none" d="M 0.000000 750.000000 L 289.473694 0.000000 " />
<path stroke-linejoin="round" stroke-linecap="round" stroke="rgb(255,0,0)" stroke-width="3.749996" fill="none" d="M 181.706985 279.213715 L 185.010727 287.473114 " />
<path stroke-linejoin="round" stroke-linecap="round" stroke="rgb(0,0,255)" stroke-width="1.874998" fill="none" d="M 0.000000 750.000000 L 287.500000 0.000000 " />
<path stroke-linejoin="round" stroke-linecap="round" stroke="rgb(255,0,0)" stroke-width="3.749996" fill="none" d="M 181.074326 277.632141 L 181.706985 279.213715 " />
<path stroke-linejoin="round" stroke-linecap="round" stroke="rgb(0,0,255)" stroke-width="1.874998" fill="none" d="M 0.000000 750.000000 L 271.551727 0.000000 " />
<path stroke-linejoin="round" stroke-linecap="round" stroke="rgb(255,0,0)" stroke-width="3.749996" fill="none" d="M 175.802032 264.451508 L 181.074326 277.632233 " />
<path stroke-linejoin="round" stroke-linecap="round" stroke="rgb(0,0,255)" stroke-width="1.874998" fill="none" d="M 0.000000 750.000000 L 270.491821 0.000000 " />
<path stroke-linejoin="round" stroke-linecap="round" stroke="rgb(255,0,0)" stroke-width="3.749996" fill="none" d="M 175.441208 263.549377 L 175.802032 264.451508 " />
<path stroke-linejoin="round" stroke-linecap="round" stroke="rgb(0,0,255)" stroke-width="1.874998" fill="none" d="M 0.000000 750.000000 L 262.500000 0.000000 " />
<path stroke-linejoin="round" stroke-linecap="round" stroke="rgb(255,0,0)" stroke-width="3.749996" fill="none" d="M 172.676682 256.638062 L 175.441208 263.549377 " />
<path stroke-linejoin="round" stroke-linecap="round" stroke="rgb(0,0,255)" stroke-width="1.874998" fill="none" d="M 0.000000 750.000000 L 261.904755 0.000000 " />
<path stroke-linejoin="round" stroke-linecap="round" stroke="rgb(255,0,0)" stroke-width="3.749996" fill="none" d="M 172.467651 256.115417 L 172.676682 256.638062 " />
<path stroke-linejoin="round" stroke-linecap="round" stroke="rgb(0,0,255)" stroke-width="1.874998" fill="none" d="M 0.000000 750.000000 L 246.093750 0.000000 " />
<path stroke-linejoin="round" stroke-linecap="round" stroke="rgb(255,0,0)" stroke-width="3.749996" fill="none" d="M 166.747879 241.815979 L 172.467651 256.115417 " />
<path stroke-linejoin="round" stroke-linecap="round" stroke="rgb(0,0,255)" stroke-width="1.874998" fill="none" d="M 0.000000 750.000000 L 236.842102 0.000000 " />
<path stroke-linejoin="round" stroke-linecap="round" stroke="rgb(255,0,0)" stroke-width="3.749996" fill="none" d="M 163.244736 233.058258 L 166.747879 241.815979 " />
<path stroke-linejoin="round" stroke-linecap="round" stroke="rgb(0,0,255)" stroke-width="1.874998" fill="none" d="M 0.000000 750.000000 L 212.686569 0.000000 " />
<path stroke-linejoin="round" stroke-linecap="round" stroke="rgb(255,0,0)" stroke-width="3.749996" fill="none" d="M 153.502350 208.702240 L 163.244736 233.058258 " />
<path stroke-linejoin="round" stroke-linecap="round" stroke="rgb(0,0,255)" stroke-width="1.874998" fill="none" d="M 0.000000 750.000000 L 198.529419 0.000000 " />
<path stroke-linejoin="round" stroke-linecap="round" stroke="rgb(255,0,0)" stroke-width="3.749996" fill="none" d="M 147.353683 193.330536 L 153.502350 208.702240 " />
<path stroke-linejoin="round" stroke-linecap="round" stroke="rgb(0,0,255)" stroke-width="1.874998" fill="none" d="M 0.000000 750.000000 L 184.782608 0.000000 " />
<path stroke-linejoin="round" stroke-linecap="round" stroke="rgb(255,0,0)" stroke-width="3.749996" fill="none" d="M 141.039581 177.545242 L 147.353683 193.330536 " />
<path stroke-linejoin="round" stroke-linecap="round" stroke="rgb(0,0,255)" stroke-width="1.874998" fill="none" d="M 0.000000 750.000000 L 179.577469 0.000000 " />
<path stroke-linejoin="round" stroke-linecap="round" stroke="rgb(255,0,0)" stroke-width="3.749996" fill="none" d="M 138.554291 171.332047 L 141.039581 177.545242 " />
<path stroke-linejoin="round" stroke-linecap="round" stroke="rgb(0,0,255)" stroke-width="1.874998" fill="none" d="M 0.000000 750.000000 L 174.657532 0.000000 " />
<path stroke-linejoin="round" stroke-linecap="round" stroke="rgb(255,0,0)" stroke-width="3.749996" fill="none" d="M 136.155106 165.334045 L 138.554291 171.332047 " />
<path stroke-linejoin="round" stroke-linecap="round" stroke="rgb(0,0,255)" stroke-width="1.874998" fill="none" d="M 0.000000 750.000000 L 161.538452 0.000000 " />
<path stroke-linejoin="round" stroke-linecap="round" stroke="rgb(255,0,0)" stroke-width="3.749996" fill="none" d="M 128.425323 153.739487 L 136.155075 165.334091 " />
<path stroke-linejoin="round" stroke-linecap="round" stroke="rgb(0,0,255)" stroke-width="1.874998" fill="none" d="M 0.000000 750.000000 L 147.727264 0.000000 " />
<path stroke-linejoin="round" stroke-linecap="round" stroke="rgb(255,0,0)" stroke-width="3.749996" fill="none" d="M 119.949501 141.025681 L 128.425323 153.739487 " />
<path stroke-linejoin="round" stroke-linecap="round" stroke="rgb(0,0,255)" stroke-width="1.874998" fill="none" d="M 0.000000 750.000000 L 134.328354 0.000000 " />
<path stroke-linejoin="round" stroke-linecap="round" stroke="rgb(255,0,0)" stroke-width="3.749996" fill="none" d="M 111.373901 128.162292 L 119.949501 141.025681 " />
<path stroke-linejoin="round" stroke-linecap="round" stroke="rgb(0,0,255)" stroke-width="1.874998" fill="none" d="M 0.000000 750.000000 L 130.434799 0.000000 " />
<path stroke-linejoin="round" stroke-linecap="round" stroke="rgb(255,0,0)" stroke-width="3.749996" fill="none" d="M 108.813599 124.321861 L 111.373901 128.162292 " />
<path stroke-linejoin="round" stroke-linecap="round" stroke="rgb(0,0,255)" stroke-width="1.874998" fill="none" d="M 0.000000 750.000000 L 123.417732 0.000000 " />
<path stroke-linejoin="round" stroke-linecap="round" stroke="rgb(255,0,0)" stroke-width="3.749996" fill="none" d="M 104.665985 113.952843 L 108.813599 124.321861 " />
<path stroke-linejoin="round" stroke-linecap="round" stroke="rgb(0,0,255)" stroke-width="1.874998" fill="none" d="M 0.000000 750.000000 L 120.370392 0.000000 " />
<path stroke-linejoin="round" stroke-linecap="round" stroke="rgb(255,0,0)" stroke-width="3.749996" fill="none" d="M 102.821655 109.341995 L 104.665985 113.952843 " />
<path stroke-linejoin="round" stroke-linecap="round" stroke="rgb(0,0,255)" stroke-width="1.874998" fill="none" d="M 0.000000 750.000000 L 118.421051 0.000000 " />
<path stroke-linejoin="round" stroke-linecap="round" stroke="rgb(255,0,0)" stroke-width="3.749996" fill="none" d="M 101.627785 106.357368 L 102.821655 109.341995 " />
<path stroke-linejoin="round" stroke-linecap="round" stroke="rgb(0,0,255)" stroke-width="1.874998" fill="none" d="M 0.000000 750.000000 L 117.857140 0.000000 " />
<path stroke-linejoin="round" stroke-linecap="round" stroke="rgb(255,0,0)" stroke-width="3.749996" fill="none" d="M 101.236137 105.769958 L 101.627785 106.357452 " />
<path stroke-linejoin="round" stroke-linecap="round" stroke="rgb(0,0,255)" stroke-width="1.874998" fill="none" d="M 0.000000 750.000000 L 104.430374 0.000000 " />
<path stroke-linejoin="round" stroke-linecap="round" stroke="rgb(255,0,0)" stroke-width="3.749996" fill="none" d="M 91.533890 92.620255 L 101.236137 105.769958 " />
<path stroke-linejoin="round" stroke-linecap="round" stroke="rgb(0,0,255)" stroke-width="1.874998" fill="none" d="M 0.000000 750.000000 L 96.153839 0.000000 " />
<path stroke-linejoin="round" stroke-linecap="round" stroke="rgb(255,0,0)" stroke-width="3.749996" fill="none" d="M 85.135147 85.945930 L 91.533890 92.620255 " />
<path stroke-linejoin="round" stroke-linecap="round" stroke="rgb(0,0,255)" stroke-width="1.874998" fill="none" d="M 0.000000 750.000000 L 84.269669 0.000000 " />
<path stroke-linejoin="round" stroke-linecap="round" stroke="rgb(255,0,0)" stroke-width="3.749996" fill="none" d="M 75.737221 75.938705 L 85.135124 85.945976 " />
<path stroke-linejoin="round" stroke-linecap="round" stroke="rgb(0,0,255)" stroke-width="1.874998" fill="none" d="M 0.000000 750.000000 L 74.999992 0.000000 " />
<path stroke-linejoin="round" stroke-linecap="round" stroke="rgb(255,0,0)" stroke-width="3.749996" fill="none" d="M 68.177238 68.227531 L 75.737221 75.938705 " />
<path stroke-linejoin="round" stroke-linecap="round" stroke="rgb(0,0,255)" stroke-width="1.874998" fill="none" d="M 0.000000 750.000000 L 71.808502 0.000000 " />
<path stroke-linejoin="round" stroke-linecap="round" stroke="rgb(255,0,0)" stroke-width="3.749996" fill="none" d="M 65.532890 65.545456 L 68.177238 68.227531 " />
<path stroke-linejoin="round" stroke-linecap="round" stroke="rgb(0,0,255)" stroke-width="1.874998" fill="none" d="M 0.000000 750.000000 L 69.767433 0.000000 " />
<path stroke-linejoin="round" stroke-linecap="round" stroke="rgb(255,0,0)" stroke-width="3.749996" fill="none" d="M 63.828999 63.838318 L 65.532890 65.545364 " />
<path stroke-linejoin="round" stroke-linecap="round" stroke="rgb(0,0,255)" stroke-width="1.874998" fill="none" d="M 0.000000 750.000000 L 60.344830 0.000000 " />
<path stroke-linejoin="round" stroke-linecap="round" stroke="rgb(255,0,0)" stroke-width="3.749996" fill="none" d="M 55.850544 55.857582 L 63.828999 63.838318 " />
<path stroke-linejoin="round" stroke-linecap="round" stroke="rgb(0,0,255)" stroke-width="1.874998" fill="none" d="M 0.000000 750.000000 L 51.136360 0.000000 " />
<path stroke-linejoin="round" stroke-linecap="round" stroke="rgb(255,0,0)" stroke-width="3.749996" fill="none" d="M 47.871998 47.877342 L 55.850544 55.857582 " />
<path stroke-linejoin="round" stroke-linecap="round" stroke="rgb(0,0,255)" stroke-width="1.874998" fill="none" d="M 0.000000 750.000000 L 49.999996 0.000000 " />
<path stroke-linejoin="round" stroke-linecap="round" stroke="rgb(255,0,0)" stroke-width="3.749996" fill="none" d="M 46.874756 46.878666 L 47.871998 47.877342 " />
<path stroke-linejoin="round" stroke-linecap="round" stroke="rgb(0,0,255)" stroke-width="1.874998" fill="none" d="M 0.000000 750.000000 L 45.454548 0.000000 " />
<path stroke-linejoin="round" stroke-linecap="round" stroke="rgb(255,0,0)" stroke-width="3.749996" fill="none" d="M 42.857094 42.858078 L 46.874756 46.878666 " />
<path stroke-linejoin="round" stroke-linecap="round" stroke="rgb(0,0,255)" stroke-width="1.874998" fill="none" d="M 0.000000 750.000000 L 42.134823 0.000000 " />
<path stroke-linejoin="round" stroke-linecap="round" stroke="rgb(255,0,0)" stroke-width="3.749996" fill="none" d="M 39.893566 39.894329 L 42.857094 42.858078 " />
<path stroke-linejoin="round" stroke-linecap="round" stroke="rgb(0,0,255)" stroke-width="1.874998" fill="none" d="M 0.000000 750.000000 L 41.208790 0.000000 " />
<path stroke-linejoin="round" stroke-linecap="round" stroke="rgb(255,0,0)" stroke-width="3.749996" fill="none" d="M 39.062462 39.062977 L 39.893566 39.894329 " />
<path stroke-linejoin="round" stroke-linecap="round" stroke="rgb(0,0,255)" stroke-width="1.874998" fill="none" d="M 0.000000 750.000000 L 40.322586 0.000000 " />
<path stroke-linejoin="round" stroke-linecap="round" stroke="rgb(255,0,0)" stroke-width="3.749996" fill="none" d="M 38.265289 38.265644 L 39.062462 39.062977 " />
<path stroke-linejoin="round" stroke-linecap="round" stroke="rgb(0,0,255)" stroke-width="1.874998" fill="none" d="M 0.000000 750.000000 L 39.893612 0.000000 " />
<path stroke-linejoin="round" stroke-linecap="round" stroke="rgb(255,0,0)" stroke-width="3.749996" fill="none" d="M 37.878780 37.879051 L 38.265289 38.265644 " />
<path stroke-linejoin="round" stroke-linecap="round" stroke="rgb(0,0,255)" stroke-width="1.874998" fill="none" d="M 0.000000 750.000000 L 31.578943 0.000000 " />
<path stroke-linejoin="round" stroke-linecap="round" stroke="rgb(255,0,0)" stroke-width="3.749996" fill="none" d="M 30.303017 30.303150 L 37.878780 37.879051 " />
<path stroke-linejoin="round" stroke-linecap="round" stroke="rgb(0,0,255)" stroke-width="1.874998" fill="none" d="M 0.000000 750.000000 L 30.927837 0.000000 " />
<path stroke-linejoin="round" stroke-linecap="round" stroke="rgb(255,0,0)" stroke-width="3.749996" fill="none" d="M 29.702961 29.703051 L 30.303017 30.303106 " />
<circle cx="372.180462" cy="741.541363" r="3.750000" style="fill:rgb(0,127,0);stroke-width:1" /><circle cx="366.456561" cy="732.955500" r="3.750000" style="fill:rgb(0,127,0);stroke-width:1" /><circle cx="334.989801" cy="654.288635" r="3.749999" style="fill:rgb(0,127,0);stroke-width:1" /><circle cx="331.130482" cy="644.640304" r="3.750001" style="fill:rgb(0,127,0);stroke-width:1" /><circle cx="327.567302" cy="635.732353" r="3.750001" style="fill:rgb(0,127,0);stroke-width:1" /><circle cx="322.305188" cy="622.577012" r="3.750002" style="fill:rgb(0,127,0);stroke-width:1" /><circle cx="312.397018" cy="597.806588" r="3.750002" style="fill:rgb(0,127,0);stroke-width:1" /><circle cx="308.357097" cy="587.706774" r="3.750002" style="fill:rgb(0,127,0);stroke-width:1" /><circle cx="299.952596" cy="566.695645" r="3.750002" style="fill:rgb(0,127,0);stroke-width:1" /><circle cx="294.690259" cy="553.539813" r="3.750002" style="fill:rgb(0,127,0);stroke-width:1" /><circle cx="293.854281" cy="551.449813" r="3.750002" style="fill:rgb(0,127,0);stroke-width:1" /><circle cx="285.253353" cy="529.947415" r="3.750002" style="fill:rgb(0,127,0);stroke-width:1" /><circle cx="271.631576" cy="495.893039" r="3.749996" style="fill:rgb(0,127,0);stroke-width:1" /><circle cx="251.242362" cy="444.919981" r="3.749996" style="fill:rgb(0,127,0);stroke-width:1" /><circle cx="235.561520" cy="405.717775" r="3.749996" style="fill:rgb(0,127,0);stroke-width:1" /><circle cx="231.074609" cy="394.500598" r="3.749996" style="fill:rgb(0,127,0);stroke-width:1" /><circle cx="226.755470" cy="383.702718" r="3.749996" style="fill:rgb(0,127,0);stroke-width:1" /><circle cx="222.594827" cy="373.301044" r="3.749996" style="fill:rgb(0,127,0);stroke-width:1" /><circle cx="211.128049" cy="344.634175" r="3.749996" style="fill:rgb(0,127,0);stroke-width:1" /><circle cx="209.162369" cy="339.719966" r="3.749996" style="fill:rgb(0,127,0);stroke-width:1" /><circle cx="207.374655" cy="335.250691" r="3.749996" style="fill:rgb(0,127,0);stroke-width:1" /><circle cx="199.242331" cy="323.052183" r="3.749996" style="fill:rgb(0,127,0);stroke-width:1" /><circle cx="185.010731" cy="287.473127" r="3.749996" style="fill:rgb(0,127,0);stroke-width:1" /><circle cx="181.706987" cy="279.213712" r="3.749996" style="fill:rgb(0,127,0);stroke-width:1" /><circle cx="181.074321" cy="277.632147" r="3.749996" style="fill:rgb(0,127,0);stroke-width:1" /><circle cx="175.802037" cy="264.451504" r="3.749996" style="fill:rgb(0,127,0);stroke-width:1" /><circle cx="175.441213" cy="263.549387" r="3.749996" style="fill:rgb(0,127,0);stroke-width:1" /><circle cx="172.676682" cy="256.638050" r="3.749996" style="fill:rgb(0,127,0);stroke-width:1" /><circle cx="172.467649" cy="256.115422" r="3.749996" style="fill:rgb(0,127,0);stroke-width:1" /><circle cx="166.747883" cy="241.815984" r="3.749996" style="fill:rgb(0,127,0);stroke-width:1" /><circle cx="163.244739" cy="233.058259" r="3.749996" style="fill:rgb(0,127,0);stroke-width:1" /><circle cx="153.502353" cy="208.702236" r="3.749996" style="fill:rgb(0,127,0);stroke-width:1" /><circle cx="147.353679" cy="193.330541" r="3.749996" style="fill:rgb(0,127,0);stroke-width:1" /><circle cx="141.039580" cy="177.545249" r="3.749996" style="fill:rgb(0,127,0);stroke-width:1" /><circle cx="138.554290" cy="171.332046" r="3.749996" style="fill:rgb(0,127,0);stroke-width:1" /><circle cx="136.155099" cy="165.334046" r="3.749996" style="fill:rgb(0,127,0);stroke-width:1" /><circle cx="128.425330" cy="153.739482" r="3.749996" style="fill:rgb(0,127,0);stroke-width:1" /><circle cx="119.949505" cy="141.025677" r="3.749996" style="fill:rgb(0,127,0);stroke-width:1" /><circle cx="111.373901" cy="128.162295" r="3.749996" style="fill:rgb(0,127,0);stroke-width:1" /><circle cx="108.813599" cy="124.321863" r="3.749996" style="fill:rgb(0,127,0);stroke-width:1" /><circle cx="104.665987" cy="113.952845" r="3.749996" style="fill:rgb(0,127,0);stroke-width:1" /><circle cx="102.821656" cy="109.341994" r="3.749996" style="fill:rgb(0,127,0);stroke-width:1" /><circle cx="101.627782" cy="106.357366" r="3.749996" style="fill:rgb(0,127,0);stroke-width:1" /><circle cx="101.236135" cy="105.769962" r="3.749996" style="fill:rgb(0,127,0);stroke-width:1" /><circle cx="91.533892" cy="92.620254" r="3.749996" style="fill:rgb(0,127,0);stroke-width:1" /><circle cx="85.135147" cy="85.945934" r="3.749996" style="fill:rgb(0,127,0);stroke-width:1" /><circle cx="75.737223" cy="75.938702" r="3.749996" style="fill:rgb(0,127,0);stroke-width:1" /><circle cx="68.177238" cy="68.227530" r="3.749996" style="fill:rgb(0,127,0);stroke-width:1" /><circle cx="65.532893" cy="65.545455" r="3.749996" style="fill:rgb(0,127,0);stroke-width:1" /><circle cx="63.828997" cy="63.838318" r="3.749996" style="fill:rgb(0,127,0);stroke-width:1" /><circle cx="55.850543" cy="55.857584" r="3.749996" style="fill:rgb(0,127,0);stroke-width:1" /><circle cx="47.871999" cy="47.877342" r="3.749996" style="fill:rgb(0,127,0);stroke-width:1" /><circle cx="46.874754" cy="46.878666" r="3.749996" style="fill:rgb(0,127,0);stroke-width:1" /><circle cx="42.857096" cy="42.858079" r="3.749996" style="fill:rgb(0,127,0);stroke-width:1" /><circle cx="39.893568" cy="39.894328" r="3.749996" style="fill:rgb(0,127,0);stroke-width:1" /><circle cx="39.062463" cy="39.062977" r="3.749996" style="fill:rgb(0,127,0);stroke-width:1" /><circle cx="38.265288" cy="38.265646" r="3.749996" style="fill:rgb(0,127,0);stroke-width:1" /><circle cx="37.878782" cy="37.879050" r="3.749996" style="fill:rgb(0,127,0);stroke-width:1" /><circle cx="30.303016" cy="30.303150" r="3.749996" style="fill:rgb(0,127,0);stroke-width:1" /><circle cx="29.702961" cy="29.703051" r="3.749996" style="fill:rgb(0,127,0);stroke-width:1" /><path stroke-linejoin="round" stroke-linecap="round" stroke="rgb(255,255,255)" stroke-width="3.749996" fill="none" d="M 0.000000 750.000000 L 750.000000 750.000000 M 0.000000 750.000000 L 0.000000 0.000000 " />

</svg>