<svg xmlns="http://www.w3.org/2000/svg" version="1.1" width = "750" height = "750" viewBox = "0 0 750 750"  shape-rendering="crispEdges">
<path stroke-linejoin="round" stroke-linecap="round" stroke="rgb(255,255,0)" stroke-width="3.749996" fill="none" d="M 93.750000 750.000000 L 0.000000 0.000000 " />
<path stroke-linejoin="round" stroke-linecap="round" stroke="rgb(63,63,63)" stroke-width="3.749996" fill="none" d="M 0.000000 0.000000 L 750.000000 750.000000 M 93.750000 750.000000 L 43.750004 0.000000 " />
<path stroke-linejoin="round" stroke-linecap="round" stroke="rgb(191,191,191)" stroke-width="3.749996" fill="none" d="M 0.000000 656.250000 L 93.750000 750.000000 M 0.000000 0.000000 L 49.999996 750.000000 " />
<path stroke-linejoin="round" stroke-linecap="round" stroke="rgb(0,0,255)" stroke-width="1.874998" fill="none" d="M 0.000000 750.000000 L 750.000000 732.142822 " />
<path stroke-linejoin="round" stroke-linecap="round" stroke="rgb(255,0,0)" stroke-width="3.749996" fill="none" d="M 93.601402 747.771423 L 93.750000 750.000000 " />
<path stroke-linejoin="round" stroke-linecap="round" stroke="rgb(0,0,255)" stroke-width="1.874998" fill="none" d="M 0.000000 750.000000 L 750.000000 713.414612 " />
<path stroke-linejoin="round" stroke-linecap="round" stroke="rgb(255,0,0)" stroke-width="3.749996" fill="none" d="M 93.087585 745.459106 L 93.601402 747.771423 " />
<path stroke-linejoin="round" stroke-linecap="round" stroke="rgb(0,0,255)" stroke-width="1.874998" fill="none" d="M 0.000000 750.000000 L 750.000000 693.750000 " />
<path stroke-linejoin="round" stroke-linecap="round" stroke="rgb(255,0,0)" stroke-width="3.749996" fill="none" d="M 92.554092 743.058472 L 93.087585 745.459106 " />
<path stroke-linejoin="round" stroke-linecap="round" stroke="rgb(0,0,255)" stroke-width="1.874998" fill="none" d="M 0.000000 750.000000 L 750.000000 673.076904 " />
<path stroke-linejoin="round" stroke-linecap="round" stroke="rgb(255,0,0)" stroke-width="3.749996" fill="none" d="M 91.999817 740.564148 L 92.554115 743.058472 " />
<path stroke-linejoin="round" stroke-linecap="round" stroke="rgb(0,0,255)" stroke-width="1.874998" fill="none" d="M 0.000000 750.000000 L 750.000000 656.250000 " />
<path stroke-linejoin="round" stroke-linecap="round" stroke="rgb(255,0,0)" stroke-width="3.749996" fill="none" d="M 91.553497 738.555847 L 91.999794 740.564148 " />
<path stroke-linejoin="round" stroke-linecap="round" stroke="rgb(0,0,255)" stroke-width="1.874998" fill="none" d="M 0.000000 750.000000 L 750.000000 634.615417 " />
<path stroke-linejoin="round" stroke-linecap="round" stroke="rgb(255,0,0)" stroke-width="3.749996" fill="none" d="M 90.986031 736.002197 L 91.553497 738.555847 " />
<path stroke-linejoin="round" stroke-linecap="round" stroke="rgb(0,0,255)" stroke-width="1.874998" fill="none" d="M 0.000000 750.000000 L 750.000000 450.000031 " />
<path stroke-linejoin="round" stroke-linecap="round" stroke="rgb(255,0,0)" stroke-width="3.749996" fill="none" d="M 89.103966 714.358398 L 90.986031 736.002197 " />
<path stroke-linejoin="round" stroke-linecap="round" stroke="rgb(0,0,255)" stroke-width="1.874998" fill="none" d="M 0.000000 750.000000 L 750.000000 423.076904 " />
<path stroke-linejoin="round" stroke-linecap="round" stroke="rgb(255,0,0)" stroke-width="3.749996" fill="none" d="M 88.835968 711.276611 L 89.103966 714.358398 " />
<path stroke-linejoin="round" stroke-linecap="round" stroke="rgb(0,0,255)" stroke-width="1.874998" fill="none" d="M 0.000000 750.000000 L 750.000000 342.857117 " />
<path stroke-linejoin="round" stroke-linecap="round" stroke="rgb(255,0,0)" stroke-width="3.749996" fill="none" d="M 88.046974 702.203064 L 88.835968 711.276611 " />
<path stroke-linejoin="round" stroke-linecap="round" stroke="rgb(0,0,255)" stroke-width="1.874998" fill="none" d="M 0.000000 750.000000 L 750.000000 110.294136 " />
<path stroke-linejoin="round" stroke-linecap="round" stroke="rgb(255,0,0)" stroke-width="3.749996" fill="none" d="M 85.836815 676.786255 L 88.046974 702.203064 " />
<path stroke-linejoin="round" stroke-linecap="round" stroke="rgb(0,0,255)" stroke-width="1.874998" fill="none" d="M 0.000000 750.000000 L 750.000000 107.142853 " />
<path stroke-linejoin="round" stroke-linecap="round" stroke="rgb(255,0,0)" stroke-width="3.749996" fill="none" d="M 85.807625 676.450623 L 85.836815 676.786255 " />
<path stroke-linejoin="round" stroke-linecap="round" stroke="rgb(0,0,255)" stroke-width="1.874998" fill="none" d="M 0.000000 750.000000 L 685.714294 0.000000 " />
<path stroke-linejoin="round" stroke-linecap="round" stroke="rgb(255,0,0)" stroke-width="3.749996" fill="none" d="M 84.195503 657.911194 L 85.807625 676.450623 " />
<path stroke-linejoin="round" stroke-linecap="round" stroke="rgb(0,0,255)" stroke-width="1.874998" fill="none" d="M 0.000000 750.000000 L 543.750000 0.000000 " />
<path stroke-linejoin="round" stroke-linecap="round" stroke="rgb(255,0,0)" stroke-width="3.749996" fill="none" d="M 82.328705 636.443115 L 84.195503 657.911194 " />
<path stroke-linejoin="round" stroke-linecap="round" stroke="rgb(0,0,255)" stroke-width="1.874998" fill="none" d="M 0.000000 750.000000 L 512.195129 0.000000 " />
<path stroke-linejoin="round" stroke-linecap="round" stroke="rgb(255,0,0)" stroke-width="3.749996" fill="none" d="M 81.789093 630.237427 L 82.328705 636.443115 " />
<path stroke-linejoin="round" stroke-linecap="round" stroke="rgb(0,0,255)" stroke-width="1.874998" fill="none" d="M 0.000000 750.000000 L 460.227295 0.000000 " />
<path stroke-linejoin="round" stroke-linecap="round" stroke="rgb(255,0,0)" stroke-width="3.749996" fill="none" d="M 80.759102 618.392578 L 81.789093 630.237427 " />
<path stroke-linejoin="round" stroke-linecap="round" stroke="rgb(0,0,255)" stroke-width="1.874998" fill="none" d="M 0.000000 750.000000 L 433.333313 0.000000 " />
<path stroke-linejoin="round" stroke-linecap="round" stroke="rgb(255,0,0)" stroke-width="3.749996" fill="none" d="M 80.141747 611.293152 L 80.759102 618.392578 " />
<path stroke-linejoin="round" stroke-linecap="round" stroke="rgb(0,0,255)" stroke-width="1.874998" fill="none" d="M 0.000000 750.000000 L 397.959167 0.000000 " />
<path stroke-linejoin="round" stroke-linecap="round" stroke="rgb(255,0,0)" stroke-width="3.749996" fill="none" d="M 79.220566 600.699646 L 80.141747 611.293152 " />
<path stroke-linejoin="round" stroke-linecap="round" stroke="rgb(0,0,255)" stroke-width="1.874998" fill="none" d="M 0.000000 750.000000 L 340.909088 0.000000 " />
<path stroke-linejoin="round" stroke-linecap="round" stroke="rgb(255,0,0)" stroke-width="3.749996" fill="none" d="M 77.396866 579.726929 L 79.220566 600.699646 " />
<path stroke-linejoin="round" stroke-linecap="round" stroke="rgb(0,0,255)" stroke-width="1.874998" fill="none" d="M 0.000000 750.000000 L 336.734680 0.000000 " />
<path stroke-linejoin="round" stroke-linecap="round" stroke="rgb(255,0,0)" stroke-width="3.749996" fill="none" d="M 77.083069 578.315002 L 77.396866 579.726929 " />
<path stroke-linejoin="round" stroke-linecap="round" stroke="rgb(0,0,255)" stroke-width="1.874998" fill="none" d="M 0.000000 750.000000 L 323.529419 0.000000 " />
<path stroke-linejoin="round" stroke-linecap="round" stroke="rgb(255,0,0)" stroke-width="3.749996" fill="none" d="M 76.055290 573.690002 L 77.083069 578.315002 " />
<path stroke-linejoin="round" stroke-linecap="round" stroke="rgb(0,0,255)" stroke-width="1.874998" fill="none" d="M 0.000000 750.000000 L 300.000000 0.000000 " />
<path stroke-linejoin="round" stroke-linecap="round" stroke="rgb(255,0,0)" stroke-width="3.749996" fill="none" d="M 75.067566 562.331116 L 76.055290 573.690002 " />
<path stroke-linejoin="round" stroke-linecap="round" stroke="rgb(0,0,255)" stroke-width="1.874998" fill="none" d="M 0.000000 750.000000 L 290.322601 0.000000 " />
<path stroke-linejoin="round" stroke-linecap="round" stroke="rgb(255,0,0)" stroke-width="3.749996" fill="none" d="M 74.623390 557.222961 L 75.067566 562.331116 " />
<path stroke-linejoin="round" stroke-linecap="round" stroke="rgb(0,0,255)" stroke-width="1.874998" fill="none" d="M 0.000000 750.000000 L 281.250000 0.000000 " />
<path stroke-linejoin="round" stroke-linecap="round" stroke="rgb(255,0,0)" stroke-width="3.749996" fill="none" d="M 74.184402 552.174866 L 74.623390 557.222961 " />
<path stroke-linejoin="round" stroke-linecap="round" stroke="rgb(0,0,255)" stroke-width="1.874998" fill="none" d="M 0.000000 750.000000 L 268.656708 0.000000 " />
<path stroke-linejoin="round" stroke-linecap="round" stroke="rgb(255,0,0)" stroke-width="3.749996" fill="none" d="M 73.535576 544.713196 L 74.184402 552.174866 " />
<path stroke-linejoin="round" stroke-linecap="round" stroke="rgb(0,0,255)" stroke-width="1.874998" fill="none" d="M 0.000000 750.000000 L 266.129059 0.000000 " />
<path stroke-linejoin="round" stroke-linecap="round" stroke="rgb(255,0,0)" stroke-width="3.749996" fill="none" d="M 73.399384 543.147156 L 73.535576 544.713196 " />
<path stroke-linejoin="round" stroke-linecap="round" stroke="rgb(0,0,255)" stroke-width="1.874998" fill="none" d="M 0.000000 750.000000 L 218.750000 0.000000 " />
<path stroke-linejoin="round" stroke-linecap="round" stroke="rgb(255,0,0)" stroke-width="3.749996" fill="none" d="M 70.398285 508.634460 L 73.399384 543.147217 " />
<path stroke-linejoin="round" stroke-linecap="round" stroke="rgb(0,0,255)" stroke-width="1.874998" fill="none" d="M 0.000000 750.000000 L 192.567566 0.000000 " />
<path stroke-linejoin="round" stroke-linecap="round" stroke="rgb(255,0,0)" stroke-width="3.749996" fill="none" d="M 68.266556 484.119720 L 70.398285 508.634491 " />
<path stroke-linejoin="round" stroke-linecap="round" stroke="rgb(0,0,255)" stroke-width="1.874998" fill="none" d="M 0.000000 750.000000 L 178.571442 0.000000 " />
<path stroke-linejoin="round" stroke-linecap="round" stroke="rgb(255,0,0)" stroke-width="3.749996" fill="none" d="M 66.939217 468.855316 L 68.266556 484.119720 " />
<path stroke-linejoin="round" stroke-linecap="round" stroke="rgb(0,0,255)" stroke-width="1.874998" fill="none" d="M 0.000000 750.000000 L 167.647049 0.000000 " />
<path stroke-linejoin="round" stroke-linecap="round" stroke="rgb(255,0,0)" stroke-width="3.749996" fill="none" d="M 65.792305 455.665955 L 66.939217 468.855316 " />
<path stroke-linejoin="round" stroke-linecap="round" stroke="rgb(0,0,255)" stroke-width="1.874998" fill="none" d="M 0.000000 750.000000 L 160.112366 0.000000 " />
<path stroke-linejoin="round" stroke-linecap="round" stroke="rgb(255,0,0)" stroke-width="3.749996" fill="none" d="M 64.936478 445.823853 L 65.792305 455.665955 " />
<path stroke-linejoin="round" stroke-linecap="round" stroke="rgb(0,0,255)" stroke-width="1.874998" fill="none" d="M 0.000000 750.000000 L 151.515167 0.000000 " />
<path stroke-linejoin="round" stroke-linecap="round" stroke="rgb(255,0,0)" stroke-width="3.749996" fill="none" d="M 63.887268 433.758026 L 64.936478 445.823853 " />
<path stroke-linejoin="round" stroke-linecap="round" stroke="rgb(0,0,255)" stroke-width="1.874998" fill="none" d="M 0.000000 750.000000 L 146.551727 0.000000 " />
<path stroke-linejoin="round" stroke-linecap="round" stroke="rgb(255,0,0)" stroke-width="3.749996" fill="none" d="M 62.773636 428.746735 L 63.887268 433.758026 " />
<path stroke-linejoin="round" stroke-linecap="round" stroke="rgb(0,0,255)" stroke-width="1.874998" fill="none" d="M 0.000000 750.000000 L 143.258438 0.000000 " />
<path stroke-linejoin="round" stroke-linecap="round" stroke="rgb(255,0,0)" stroke-width="3.749996" fill="none" d="M 62.015041 425.333008 L 62.773636 428.746735 " />
<path stroke-linejoin="round" stroke-linecap="round" stroke="rgb(0,0,255)" stroke-width="1.874998" fill="none" d="M 0.000000 750.000000 L 142.105270 0.000000 " />
<path stroke-linejoin="round" stroke-linecap="round" stroke="rgb(255,0,0)" stroke-width="3.749996" fill="none" d="M 61.745590 424.120544 L 62.015041 425.333008 " />
<path stroke-linejoin="round" stroke-linecap="round" stroke="rgb(0,0,255)" stroke-width="1.874998" fill="none" d="M 0.000000 750.000000 L 140.109879 0.000000 " />
<path stroke-linejoin="round" stroke-linecap="round" stroke="rgb(255,0,0)" stroke-width="3.749996" fill="none" d="M 61.274551 422.000885 L 61.745590 424.120544 " />
<path stroke-linejoin="round" stroke-linecap="round" stroke="rgb(0,0,255)" stroke-width="1.874998" fill="none" d="M 0.000000 750.000000 L 137.096771 0.000000 " />
<path stroke-linejoin="round" stroke-linecap="round" stroke="rgb(255,0,0)" stroke-width="3.749996" fill="none" d="M 60.551540 418.747406 L 61.274551 422.000885 " />
<path stroke-linejoin="round" stroke-linecap="round" stroke="rgb(0,0,255)" stroke-width="1.874998" fill="none" d="M 0.000000 750.000000 L 136.363647 0.000000 " />
<path stroke-linejoin="round" stroke-linecap="round" stroke="rgb(255,0,0)" stroke-width="3.749996" fill="none" d="M 60.373463 417.945953 L 60.551540 418.747406 " />
<path stroke-linejoin="round" stroke-linecap="round" stroke="rgb(0,0,255)" stroke-width="1.874998" fill="none" d="M 0.000000 750.000000 L 130.733948 0.000000 " />
<path stroke-linejoin="round" stroke-linecap="round" stroke="rgb(255,0,0)" stroke-width="3.749996" fill="none" d="M 59.543900 408.406006 L 60.373463 417.945953 " />
<path stroke-linejoin="round" stroke-linecap="round" stroke="rgb(0,0,255)" stroke-width="1.874998" fill="none" d="M 0.000000 750.000000 L 112.831863 0.000000 " />
<path stroke-linejoin="round" stroke-linecap="round" stroke="rgb(255,0,0)" stroke-width="3.749996" fill="none" d="M 56.557304 374.060211 L 59.543900 408.406097 " />
<path stroke-linejoin="round" stroke-linecap="round" stroke="rgb(0,0,255)" stroke-width="1.874998" fill="none" d="M 0.000000 750.000000 L 105.263161 0.000000 " />
<path stroke-linejoin="round" stroke-linecap="round" stroke="rgb(255,0,0)" stroke-width="3.749996" fill="none" d="M 54.232052 363.596619 L 56.557304 374.060211 " />
<path stroke-linejoin="round" stroke-linecap="round" stroke="rgb(0,0,255)" stroke-width="1.874998" fill="none" d="M 0.000000 750.000000 L 97.826088 0.000000 " />
<path stroke-linejoin="round" stroke-linecap="round" stroke="rgb(255,0,0)" stroke-width="3.749996" fill="none" d="M 51.817619 352.731628 L 54.232052 363.596619 " />
<path stroke-linejoin="round" stroke-linecap="round" stroke="rgb(0,0,255)" stroke-width="1.874998" fill="none" d="M 0.000000 750.000000 L 90.517242 0.000000 " />
<path stroke-linejoin="round" stroke-linecap="round" stroke="rgb(255,0,0)" stroke-width="3.749996" fill="none" d="M 49.308746 341.441711 L 51.817619 352.731598 " />
<path stroke-linejoin="round" stroke-linecap="round" stroke="rgb(0,0,255)" stroke-width="1.874998" fill="none" d="M 0.000000 750.000000 L 83.333328 0.000000 " />
<path stroke-linejoin="round" stroke-linecap="round" stroke="rgb(255,0,0)" stroke-width="3.749996" fill="none" d="M 46.699829 329.701569 L 49.308746 341.441711 " />
<path stroke-linejoin="round" stroke-linecap="round" stroke="rgb(0,0,255)" stroke-width="1.874998" fill="none" d="M 0.000000 750.000000 L 76.171875 0.000000 " />
<path stroke-linejoin="round" stroke-linecap="round" stroke="rgb(255,0,0)" stroke-width="3.749996" fill="none" d="M 44.848660 308.413147 L 46.699829 329.701569 " />
<path stroke-linejoin="round" stroke-linecap="round" stroke="rgb(0,0,255)" stroke-width="1.874998" fill="none" d="M 0.000000 750.000000 L 76.086960 0.000000 " />
<path stroke-linejoin="round" stroke-linecap="round" stroke="rgb(255,0,0)" stroke-width="3.749996" fill="none" d="M 44.825592 308.147827 L 44.848660 308.413147 " />
<path stroke-linejoin="round" stroke-linecap="round" stroke="rgb(0,0,255)" stroke-width="1.874998" fill="none" d="M 0.000000 750.000000 L 73.863632 0.000000 " />
<path stroke-linejoin="round" stroke-linecap="round" stroke="rgb(255,0,0)" stroke-width="3.749996" fill="none" d="M 44.211388 301.084503 L 44.825569 308.147858 " />
<path stroke-linejoin="round" stroke-linecap="round" stroke="rgb(0,0,255)" stroke-width="1.874998" fill="none" d="M 0.000000 750.000000 L 70.143875 0.000000 " />
<path stroke-linejoin="round" stroke-linecap="round" stroke="rgb(255,0,0)" stroke-width="3.749996" fill="none" d="M 43.138660 288.748169 L 44.211388 301.084503 " />
<path stroke-linejoin="round" stroke-linecap="round" stroke="rgb(0,0,255)" stroke-width="1.874998" fill="none" d="M 0.000000 750.000000 L 68.181824 0.000000 " />
<path stroke-linejoin="round" stroke-linecap="round" stroke="rgb(255,0,0)" stroke-width="3.749996" fill="none" d="M 42.548733 281.963959 L 43.138660 288.748169 " />
<path stroke-linejoin="round" stroke-linecap="round" stroke="rgb(0,0,255)" stroke-width="1.874998" fill="none" d="M 0.000000 750.000000 L 66.000000 0.000000 " />
<path stroke-linejoin="round" stroke-linecap="round" stroke="rgb(255,0,0)" stroke-width="3.749996" fill="none" d="M 41.573391 277.575012 L 42.548733 281.963959 " />
<path stroke-linejoin="round" stroke-linecap="round" stroke="rgb(0,0,255)" stroke-width="1.874998" fill="none" d="M 0.000000 750.000000 L 64.960625 0.000000 " />
<path stroke-linejoin="round" stroke-linecap="round" stroke="rgb(255,0,0)" stroke-width="3.749996" fill="none" d="M 41.102306 275.455078 L 41.573391 277.575012 " />
<path stroke-linejoin="round" stroke-linecap="round" stroke="rgb(0,0,255)" stroke-width="1.874998" fill="none" d="M 0.000000 750.000000 L 61.643826 0.000000 " />
<path stroke-linejoin="round" stroke-linecap="round" stroke="rgb(255,0,0)" stroke-width="3.749996" fill="none" d="M 40.023430 263.048126 L 41.102306 275.455078 " />
<path stroke-linejoin="round" stroke-linecap="round" stroke="rgb(0,0,255)" stroke-width="1.874998" fill="none" d="M 0.000000 750.000000 L 60.810818 0.000000 " />
<path stroke-linejoin="round" stroke-linecap="round" stroke="rgb(255,0,0)" stroke-width="3.749996" fill="none" d="M 39.743565 259.829468 L 40.023430 263.048126 " />
<path stroke-linejoin="round" stroke-linecap="round" stroke="rgb(0,0,255)" stroke-width="1.874998" fill="none" d="M 0.000000 750.000000 L 58.928577 0.000000 " />
<path stroke-linejoin="round" stroke-linecap="round" stroke="rgb(255,0,0)" stroke-width="3.749996" fill="none" d="M 39.097332 252.397705 L 39.743565 259.829468 " />
<path stroke-linejoin="round" stroke-linecap="round" stroke="rgb(0,0,255)" stroke-width="1.874998" fill="none" d="M 0.000000 750.000000 L 54.635750 0.000000 " />
<path stroke-linejoin="round" stroke-linecap="round" stroke="rgb(255,0,0)" stroke-width="3.749996" fill="none" d="M 37.547527 234.574951 L 39.097332 252.397705 " />
<path stroke-linejoin="round" stroke-linecap="round" stroke="rgb(0,0,255)" stroke-width="1.874998" fill="none" d="M 0.000000 750.000000 L 51.562496 0.000000 " />
<path stroke-linejoin="round" stroke-linecap="round" stroke="rgb(255,0,0)" stroke-width="3.749996" fill="none" d="M 36.368004 221.010757 L 37.547527 234.574951 " />
<path stroke-linejoin="round" stroke-linecap="round" stroke="rgb(0,0,255)" stroke-width="1.874998" fill="none" d="M 0.000000 750.000000 L 49.342094 0.000000 " />
<path stroke-linejoin="round" stroke-linecap="round" stroke="rgb(255,0,0)" stroke-width="3.749996" fill="none" d="M 35.159649 215.573212 L 36.368004 221.010757 " />
<path stroke-linejoin="round" stroke-linecap="round" stroke="rgb(0,0,255)" stroke-width="1.874998" fill="none" d="M 0.000000 750.000000 L 48.701294 0.000000 " />
<path stroke-linejoin="round" stroke-linecap="round" stroke="rgb(255,0,0)" stroke-width="3.749996" fill="none" d="M 34.806290 213.983063 L 35.159649 215.573257 " />
<path stroke-linejoin="round" stroke-linecap="round" stroke="rgb(0,0,255)" stroke-width="1.874998" fill="none" d="M 0.000000 750.000000 L 41.158543 0.000000 " />
<path stroke-linejoin="round" stroke-linecap="round" stroke="rgb(255,0,0)" stroke-width="3.749996" fill="none" d="M 31.501316 175.975891 L 34.806290 213.983063 " />
<path stroke-linejoin="round" stroke-linecap="round" stroke="rgb(0,0,255)" stroke-width="1.874998" fill="none" d="M 0.000000 750.000000 L 38.571419 0.000000 " />
<path stroke-linejoin="round" stroke-linecap="round" stroke="rgb(255,0,0)" stroke-width="3.749996" fill="none" d="M 30.257107 161.667419 L 31.501316 175.975891 " />
<path stroke-linejoin="round" stroke-linecap="round" stroke="rgb(0,0,255)" stroke-width="1.874998" fill="none" d="M 0.000000 750.000000 L 38.135605 0.000000 " />
<path stroke-linejoin="round" stroke-linecap="round" stroke="rgb(255,0,0)" stroke-width="3.749996" fill="none" d="M 30.041367 159.186462 L 30.257107 161.667419 " />
<path stroke-linejoin="round" stroke-linecap="round" stroke="rgb(0,0,255)" stroke-width="1.874998" fill="none" d="M 0.000000 750.000000 L 36.684772 0.000000 " />
<path stroke-linejoin="round" stroke-linecap="round" stroke="rgb(255,0,0)" stroke-width="3.749996" fill="none" d="M 29.309929 150.774841 L 30.041367 159.186462 " />
<path stroke-linejoin="round" stroke-linecap="round" stroke="rgb(0,0,255)" stroke-width="1.874998" fill="none" d="M 0.000000 750.000000 L 35.472973 0.000000 " />
<path stroke-linejoin="round" stroke-linecap="round" stroke="rgb(255,0,0)" stroke-width="3.749996" fill="none" d="M 28.682827 143.563141 L 29.309929 150.774841 " />
<path stroke-linejoin="round" stroke-linecap="round" stroke="rgb(0,0,255)" stroke-width="1.874998" fill="none" d="M 0.000000 750.000000 L 33.018864 0.000000 " />
<path stroke-linejoin="round" stroke-linecap="round" stroke="rgb(255,0,0)" stroke-width="3.749996" fill="none" d="M 27.365461 128.413391 L 28.682827 143.563141 " />
<path stroke-linejoin="round" stroke-linecap="round" stroke="rgb(0,0,255)" stroke-width="1.874998" fill="none" d="M 0.000000 750.000000 L 31.249992 0.000000 " />
<path stroke-linejoin="round" stroke-linecap="round" stroke="rgb(255,0,0)" stroke-width="3.749996" fill="none" d="M 26.374340 117.015701 L 27.365438 128.413437 " />
<path stroke-linejoin="round" stroke-linecap="round" stroke="rgb(0,0,255)" stroke-width="1.874998" fill="none" d="M 0.000000 750.000000 L 28.124996 0.000000 " />
<path stroke-linejoin="round" stroke-linecap="round" stroke="rgb(255,0,0)" stroke-width="3.749996" fill="none" d="M 24.117708 106.860817 L 26.374340 117.015701 " />
<path stroke-linejoin="round" stroke-linecap="round" stroke="rgb(0,0,255)" stroke-width="1.874998" fill="none" d="M 0.000000 750.000000 L 27.777784 0.000000 " />
<path stroke-linejoin="round" stroke-linecap="round" stroke="rgb(255,0,0)" stroke-width="3.749996" fill="none" d="M 23.862495 105.712296 L 24.117731 106.860771 " />
<path stroke-linejoin="round" stroke-linecap="round" stroke="rgb(0,0,255)" stroke-width="1.874998" fill="none" d="M 0.000000 750.000000 L 26.315779 0.000000 " />
<path stroke-linejoin="round" stroke-linecap="round" stroke="rgb(255,0,0)" stroke-width="3.749996" fill="none" d="M 22.967667 95.421600 L 23.862495 105.712296 " />
<path stroke-linejoin="round" stroke-linecap="round" stroke="rgb(0,0,255)" stroke-width="1.874998" fill="none" d="M 0.000000 750.000000 L 21.802336 0.000000 " />
<path stroke-linejoin="round" stroke-linecap="round" stroke="rgb(255,0,0)" stroke-width="3.749996" fill="none" d="M 19.484125 79.745743 L 22.967667 95.421600 " />
<path stroke-linejoin="round" stroke-linecap="round" stroke="rgb(0,0,255)" stroke-width="1.874998" fill="none" d="M 0.000000 750.000000 L 17.341040 0.000000 " />
<path stroke-linejoin="round" stroke-linecap="round" stroke="rgb(255,0,0)" stroke-width="3.749996" fill="none" d="M 15.872933 63.495354 L 19.484125 79.745743 " />
<path stroke-linejoin="round" stroke-linecap="round" stroke="rgb(0,0,255)" stroke-width="1.874998" fill="none" d="M 0.000000 750.000000 L 17.142847 0.000000 " />
<path stroke-linejoin="round" stroke-linecap="round" stroke="rgb(255,0,0)" stroke-width="3.749996" fill="none" d="M 15.708447 62.755154 L 15.872933 63.495354 " />
<path stroke-linejoin="round" stroke-linecap="round" stroke="rgb(0,0,255)" stroke-width="1.874998" fill="none" d="M 0.000000 750.000000 L 16.949146 0.000000 " />
<path stroke-linejoin="round" stroke-linecap="round" stroke="rgb(255,0,0)" stroke-width="3.749996" fill="none" d="M 15.547335 62.030106 L 15.708447 62.755154 " />
<path stroke-linejoin="round" stroke-linecap="round" stroke="rgb(0,0,255)" stroke-width="1.874998" fill="none" d="M 0.000000 750.000000 L 16.759783 0.000000 " />
<path stroke-linejoin="round" stroke-linecap="round" stroke="rgb(255,0,0)" stroke-width="3.749996" fill="none" d="M 15.389509 61.319813 L 15.547335 62.030106 " />
<path stroke-linejoin="round" stroke-linecap="round" stroke="rgb(0,0,255)" stroke-width="1.874998" fill="none" d="M 0.000000 750.000000 L 16.129040 0.000000 " />
<path stroke-linejoin="round" stroke-linecap="round" stroke="rgb(255,0,0)" stroke-width="3.749996" fill="none" d="M 14.861427 58.943554 L 15.389509 61.319813 " />
<path stroke-linejoin="round" stroke-linecap="round" stroke="rgb(0,0,255)" stroke-width="1.874998" fill="none" d="M 0.000000 750.000000 L 15.957445 0.000000 " />
<path stroke-linejoin="round" stroke-linecap="round" stroke="rgb(255,0,0)" stroke-width="3.749996" fill="none" d="M 14.717147 58.294235 L 14.861427 58.943554 " />
<path stroke-linejoin="round" stroke-linecap="round" stroke="rgb(0,0,255)" stroke-width="1.874998" fill="none" d="M 0.000000 750.000000 L 15.463919 0.000000 " />
<path stroke-linejoin="round" stroke-linecap="round" stroke="rgb(255,0,0)" stroke-width="3.749996" fill="none" d="M 14.300622 56.419910 L 14.717147 58.294235 " />
<path stroke-linejoin="round" stroke-linecap="round" stroke="rgb(0,0,255)" stroke-width="1.874998" fill="none" d="M 0.000000 750.000000 L 15.306115 0.000000 " />
<path stroke-linejoin="round" stroke-linecap="round" stroke="rgb(255,0,0)" stroke-width="3.749996" fill="none" d="M 14.166981 55.818424 L 14.300622 56.419910 " />
<path stroke-linejoin="round" stroke-linecap="round" stroke="rgb(0,0,255)" stroke-width="1.874998" fill="none" d="M 0.000000 750.000000 L 11.780106 0.000000 " />
<path stroke-linejoin="round" stroke-linecap="round" stroke="rgb(255,0,0)" stroke-width="3.749996" fill="none" d="M 11.118830 42.101742 L 14.166981 55.818424 " />
<path stroke-linejoin="round" stroke-linecap="round" stroke="rgb(0,0,255)" stroke-width="1.874998" fill="none" d="M 0.000000 750.000000 L 7.462688 0.000000 " />
<path stroke-linejoin="round" stroke-linecap="round" stroke="rgb(255,0,0)" stroke-width="3.749996" fill="none" d="M 7.317267 14.615000 L 11.118830 42.101742 " />
<path stroke-linejoin="round" stroke-linecap="round" stroke="rgb(0,0,255)" stroke-width="1.874998" fill="none" d="M 0.000000 750.000000 L 3.712870 0.000000 " />
<path stroke-linejoin="round" stroke-linecap="round" stroke="rgb(255,0,0)" stroke-width="3.749996" fill="none" d="M 3.667675 9.127558 L 7.317267 14.615044 " />
<path stroke-linejoin="round" stroke-linecap="round" stroke="rgb(0,0,255)" stroke-width="1.874998" fill="none" d="M 0.000000 750.000000 L 0.000000 0.000000 " />
<path stroke-linejoin="round" stroke-linecap="round" stroke="rgb(255,0,0)" stroke-width="3.749996" fill="none" d="M 0.000000 0.000000 L 3.667675 9.127558 " />
<circle cx="93.601406" cy="747.771397" r="3.749996" style="fill:rgb(0,127,0);stroke-width:1" /><circle cx="93.087584" cy="745.459132" r="3.749996" style="fill:rgb(0,127,0);stroke-width:1" /><circle cx="92.554092" cy="743.058443" r="3.749996" style="fill:rgb(0,127,0);stroke-width:1" /><circle cx="91.999814" cy="740.564123" r="3.749996" style="fill:rgb(0,127,0);stroke-width:1" /><circle cx="91.553494" cy="738.555819" r="3.749996" style="fill:rgb(0,127,0);stroke-width:1" /><circle cx="90.986028" cy="736.002155" r="3.749996" style="fill:rgb(0,127,0);stroke-width:1" /><circle cx="89.103967" cy="714.358404" r="3.749996" style="fill:rgb(0,127,0);stroke-width:1" /><circle cx="88.835970" cy="711.276636" r="3.749996" style="fill:rgb(0,127,0);stroke-width:1" /><circle cx="88.046975" cy="702.203080" r="3.749996" style="fill:rgb(0,127,0);stroke-width:1" /><circle cx="85.836813" cy="676.786244" r="3.749996" style="fill:rgb(0,127,0);stroke-width:1" /><circle cx="85.807621" cy="676.450610" r="3.749996" style="fill:rgb(0,127,0);stroke-width:1" /><circle cx="84.195502" cy="657.911181" r="3.749996" style="fill:rgb(0,127,0);stroke-width:1" /><circle cx="82.328707" cy="636.443138" r="3.749996" style="fill:rgb(0,127,0);stroke-width:1" /><circle cx="81.789091" cy="630.237401" r="3.749996" style="fill:rgb(0,127,0);stroke-width:1" /><circle cx="80.759101" cy="618.392587" r="3.749996" style="fill:rgb(0,127,0);stroke-width:1" /><circle cx="80.141746" cy="611.293137" r="3.749996" style="fill:rgb(0,127,0);stroke-width:1" /><circle cx="79.220563" cy="600.699686" r="3.749996" style="fill:rgb(0,127,0);stroke-width:1" /><circle cx="77.396862" cy="579.726912" r="3.749996" style="fill:rgb(0,127,0);stroke-width:1" /><circle cx="77.083066" cy="578.314975" r="3.749996" style="fill:rgb(0,127,0);stroke-width:1" /><circle cx="76.055288" cy="573.689997" r="3.749996" style="fill:rgb(0,127,0);stroke-width:1" /><circle cx="75.067565" cy="562.331088" r="3.749996" style="fill:rgb(0,127,0);stroke-width:1" /><circle cx="74.623391" cy="557.222933" r="3.749996" style="fill:rgb(0,127,0);stroke-width:1" /><circle cx="74.184403" cy="552.174881" r="3.749996" style="fill:rgb(0,127,0);stroke-width:1" /><circle cx="73.535576" cy="544.713199" r="3.749996" style="fill:rgb(0,127,0);stroke-width:1" /><circle cx="73.399387" cy="543.147169" r="3.749996" style="fill:rgb(0,127,0);stroke-width:1" /><circle cx="70.398286" cy="508.634470" r="3.749996" style="fill:rgb(0,127,0);stroke-width:1" /><circle cx="68.266556" cy="484.119728" r="3.749996" style="fill:rgb(0,127,0);stroke-width:1" /><circle cx="66.939220" cy="468.855321" r="3.749996" style="fill:rgb(0,127,0);stroke-width:1" /><circle cx="65.792307" cy="455.665961" r="3.749996" style="fill:rgb(0,127,0);stroke-width:1" /><circle cx="64.936481" cy="445.823863" r="3.749996" style="fill:rgb(0,127,0);stroke-width:1" /><circle cx="63.887268" cy="433.758035" r="3.749996" style="fill:rgb(0,127,0);stroke-width:1" /><circle cx="62.773637" cy="428.746708" r="3.749996" style="fill:rgb(0,127,0);stroke-width:1" /><circle cx="62.015042" cy="425.332993" r="3.749996" style="fill:rgb(0,127,0);stroke-width:1" /><circle cx="61.745591" cy="424.120523" r="3.749996" style="fill:rgb(0,127,0);stroke-width:1" /><circle cx="61.274551" cy="422.000907" r="3.749996" style="fill:rgb(0,127,0);stroke-width:1" /><circle cx="60.551539" cy="418.747410" r="3.749996" style="fill:rgb(0,127,0);stroke-width:1" /><circle cx="60.373463" cy="417.945966" r="3.749996" style="fill:rgb(0,127,0);stroke-width:1" /><circle cx="59.543900" cy="408.406042" r="3.749996" style="fill:rgb(0,127,0);stroke-width:1" /><circle cx="56.557305" cy="374.060199" r="3.749996" style="fill:rgb(0,127,0);stroke-width:1" /><circle cx="54.232053" cy="363.596633" r="3.749996" style="fill:rgb(0,127,0);stroke-width:1" /><circle cx="51.817618" cy="352.731630" r="3.749996" style="fill:rgb(0,127,0);stroke-width:1" /><circle cx="49.308747" cy="341.441721" r="3.749996" style="fill:rgb(0,127,0);stroke-width:1" /><circle cx="46.699829" cy="329.701558" r="3.749996" style="fill:rgb(0,127,0);stroke-width:1" /><circle cx="44.848658" cy="308.413133" r="3.749996" style="fill:rgb(0,127,0);stroke-width:1" /><circle cx="44.825591" cy="308.147818" r="3.749996" style="fill:rgb(0,127,0);stroke-width:1" /><circle cx="44.211388" cy="301.084489" r="3.749996" style="fill:rgb(0,127,0);stroke-width:1" /><circle cx="43.138660" cy="288.748160" r="3.749996" style="fill:rgb(0,127,0);stroke-width:1" /><circle cx="42.548731" cy="281.963959" r="3.749996" style="fill:rgb(0,127,0);stroke-width:1" /><circle cx="41.573390" cy="277.575016" r="3.749996" style="fill:rgb(0,127,0);stroke-width:1" /><circle cx="41.102305" cy="275.455087" r="3.749996" style="fill:rgb(0,127,0);stroke-width:1" /><circle cx="40.023431" cy="263.048127" r="3.749996" style="fill:rgb(0,127,0);stroke-width:1" /><circle cx="39.743565" cy="259.829476" r="3.749996" style="fill:rgb(0,127,0);stroke-width:1" /><circle cx="39.097331" cy="252.397701" r="3.749996" style="fill:rgb(0,127,0);stroke-width:1" /><circle cx="37.547529" cy="234.574959" r="3.749996" style="fill:rgb(0,127,0);stroke-width:1" /><circle cx="36.368005" cy="221.010759" r="3.749996" style="fill:rgb(0,127,0);stroke-width:1" /><circle cx="35.159647" cy="215.573207" r="3.749996" style="fill:rgb(0,127,0);stroke-width:1" /><circle cx="34.806289" cy="213.983059" r="3.749996" style="fill:rgb(0,127,0);stroke-width:1" /><circle cx="31.501316" cy="175.975889" r="3.749996" style="fill:rgb(0,127,0);stroke-width:1" /><circle cx="30.257106" cy="161.667421" r="3.749996" style="fill:rgb(0,127,0);stroke-width:1" /><circle cx="30.041367" cy="159.186468" r="3.749996" style="fill:rgb(0,127,0);stroke-width:1" /><circle cx="29.309928" cy="150.774837" r="3.749996" style="fill:rgb(0,127,0);stroke-width:1" /><circle cx="28.682828" cy="143.563136" r="3.749996" style="fill:rgb(0,127,0);stroke-width:1" /><circle cx="27.365461" cy="128.413394" r="3.749996" style="fill:rgb(0,127,0);stroke-width:1" /><circle cx="26.374340" cy="117.015705" r="3.749996" style="fill:rgb(0,127,0);stroke-width:1" /><circle cx="24.117708" cy="106.860816" r="3.749996" style="fill:rgb(0,127,0);stroke-width:1" /><circle cx="23.862496" cy="105.712295" r="3.749996" style="fill:rgb(0,127,0);stroke-width:1" /><circle cx="22.967666" cy="95.421597" r="3.749996" style="fill:rgb(0,127,0);stroke-width:1" /><circle cx="19.484125" cy="79.745740" r="3.749996" style="fill:rgb(0,127,0);stroke-width:1" /><circle cx="15.872933" cy="63.495353" r="3.749996" style="fill:rgb(0,127,0);stroke-width:1" /><circle cx="15.708447" cy="62.755153" r="3.749996" style="fill:rgb(0,127,0);stroke-width:1" /><circle cx="15.547335" cy="62.030107" r="3.749996" style="fill:rgb(0,127,0);stroke-width:1" /><circle cx="15.389509" cy="61.319813" r="3.749996" style="fill:rgb(0,127,0);stroke-width:1" /><circle cx="14.861427" cy="58.943555" r="3.749996" style="fill:rgb(0,127,0);stroke-width:1" /><circle cx="14.717147" cy="58.294237" r="3.749996" style="fill:rgb(0,127,0);stroke-width:1" /><circle cx="14.300622" cy="56.419909" r="3.749996" style="fill:rgb(0,127,0);stroke-width:1" /><circle cx="14.166981" cy="55.818424" r="3.749996" style="fill:rgb(0,127,0);stroke-width:1" /><circle cx="11.118829" cy="42.101741" r="3.749996" style="fill:rgb(0,127,0);stroke-width:1" /><circle cx="7.317267" cy="14.614999" r="3.749996" style="fill:rgb(0,127,0);stroke-width:1" /><circle cx="3.667653" cy="9.127557" r="3.750008" style="fill:rgb(0,127,0);stroke-width:1" /><circle cx="750.000000" cy="750.000000" r="3.749996" style="fill:rgb(0,127,0);stroke-width:1" /><path stroke-linejoin="round" stroke-linecap="round" stroke="rgb(255,255,255)" stroke-width="3.749996" fill="none" d="M 0.000000 750.000000 L 750.000000 750.000000 M 0.000000 750.000000 L 0.000000 0.000000 " />

</svg>