<svg xmlns="http://www.w3.org/2000/svg" version="1.1" width = "750" height = "750" viewBox = "0 0 750 750"  shape-rendering="crispEdges">
<path stroke-linejoin="round" stroke-linecap="round" stroke="rgb(255,255,0)" stroke-width="3.749996" fill="none" d="M 93.750000 750.000000 L 0.000000 0.000000 " />
<path stroke-linejoin="round" stroke-linecap="round" stroke="rgb(63,63,63)" stroke-width="3.749996" fill="none" d="M 0.000000 0.000000 L 750.000000 750.000000 M 93.750000 750.000000 L 43.750004 0.000000 " />
<path stroke-linejoin="round" stroke-linecap="round" stroke="rgb(191,191,191)" stroke-width="3.749996" fill="none" d="M 0.000000 656.250000 L 93.750000 750.000000 M 0.000000 0.000000 L 49.999996 750.000000 " />
<path stroke-linejoin="round" stroke-linecap="round" stroke="rgb(0,0,255)" stroke-width="1.874998" fill="none" d="M 0.000000 750.000000 L 750.000000 732.954590 " />
<path stroke-linejoin="round" stroke-linecap="round" stroke="rgb(255,0,0)" stroke-width="3.749996" fill="none" d="M 93.608154 747.872559 L 93.750000 750.000000 " />
<path stroke-linejoin="round" stroke-linecap="round" stroke="rgb(0,0,255)" stroke-width="1.874998" fill="none" d="M 0.000000 750.000000 L 750.000000 715.116272 " />
<path stroke-linejoin="round" stroke-linecap="round" stroke="rgb(255,0,0)" stroke-width="3.749996" fill="none" d="M 91.480721 745.745056 L 93.608154 747.872559 " />
<path stroke-linejoin="round" stroke-linecap="round" stroke="rgb(0,0,255)" stroke-width="1.874998" fill="none" d="M 0.000000 750.000000 L 750.000000 535.714294 " />
<path stroke-linejoin="round" stroke-linecap="round" stroke="rgb(255,0,0)" stroke-width="3.749996" fill="none" d="M 90.049133 724.271667 L 91.480721 745.745056 " />
<path stroke-linejoin="round" stroke-linecap="round" stroke="rgb(0,0,255)" stroke-width="1.874998" fill="none" d="M 0.000000 750.000000 L 750.000000 347.560944 " />
<path stroke-linejoin="round" stroke-linecap="round" stroke="rgb(255,0,0)" stroke-width="3.749996" fill="none" d="M 88.595108 702.461182 L 90.049133 724.271667 " />
<path stroke-linejoin="round" stroke-linecap="round" stroke="rgb(0,0,255)" stroke-width="1.874998" fill="none" d="M 0.000000 750.000000 L 750.000000 339.285706 " />
<path stroke-linejoin="round" stroke-linecap="round" stroke="rgb(255,0,0)" stroke-width="3.749996" fill="none" d="M 88.532234 701.518066 L 88.595108 702.461182 " />
<path stroke-linejoin="round" stroke-linecap="round" stroke="rgb(0,0,255)" stroke-width="1.874998" fill="none" d="M 0.000000 750.000000 L 750.000000 281.250000 " />
<path stroke-linejoin="round" stroke-linecap="round" stroke="rgb(255,0,0)" stroke-width="3.749996" fill="none" d="M 88.093781 694.941406 L 88.532234 701.518066 " />
<path stroke-linejoin="round" stroke-linecap="round" stroke="rgb(0,0,255)" stroke-width="1.874998" fill="none" d="M 0.000000 750.000000 L 750.000000 217.105286 " />
<path stroke-linejoin="round" stroke-linecap="round" stroke="rgb(255,0,0)" stroke-width="3.749996" fill="none" d="M 87.614220 687.747803 L 88.093781 694.941406 " />
<path stroke-linejoin="round" stroke-linecap="round" stroke="rgb(0,0,255)" stroke-width="1.874998" fill="none" d="M 0.000000 750.000000 L 750.000000 211.538452 " />
<path stroke-linejoin="round" stroke-linecap="round" stroke="rgb(255,0,0)" stroke-width="3.749996" fill="none" d="M 87.572853 687.127197 L 87.614220 687.747803 " />
<path stroke-linejoin="round" stroke-linecap="round" stroke="rgb(0,0,255)" stroke-width="1.874998" fill="none" d="M 0.000000 750.000000 L 750.000000 173.076920 " />
<path stroke-linejoin="round" stroke-linecap="round" stroke="rgb(255,0,0)" stroke-width="3.749996" fill="none" d="M 87.288048 682.855347 L 87.572853 687.127197 " />
<path stroke-linejoin="round" stroke-linecap="round" stroke="rgb(0,0,255)" stroke-width="1.874998" fill="none" d="M 0.000000 750.000000 L 750.000000 64.285713 " />
<path stroke-linejoin="round" stroke-linecap="round" stroke="rgb(255,0,0)" stroke-width="3.749996" fill="none" d="M 86.492432 670.921204 L 87.288048 682.855347 " />
<path stroke-linejoin="round" stroke-linecap="round" stroke="rgb(0,0,255)" stroke-width="1.874998" fill="none" d="M 0.000000 750.000000 L 648.648682 0.000000 " />
<path stroke-linejoin="round" stroke-linecap="round" stroke="rgb(255,0,0)" stroke-width="3.749996" fill="none" d="M 85.197083 651.490845 L 86.492432 670.921204 " />
<path stroke-linejoin="round" stroke-linecap="round" stroke="rgb(0,0,255)" stroke-width="1.874998" fill="none" d="M 0.000000 750.000000 L 538.461487 0.000000 " />
<path stroke-linejoin="round" stroke-linecap="round" stroke="rgb(255,0,0)" stroke-width="3.749996" fill="none" d="M 83.967400 633.045410 L 85.197083 651.490845 " />
<path stroke-linejoin="round" stroke-linecap="round" stroke="rgb(0,0,255)" stroke-width="1.874998" fill="none" d="M 0.000000 750.000000 L 413.265289 0.000000 " />
<path stroke-linejoin="round" stroke-linecap="round" stroke="rgb(255,0,0)" stroke-width="3.749996" fill="none" d="M 81.860283 601.438721 L 83.967400 633.045410 " />
<path stroke-linejoin="round" stroke-linecap="round" stroke="rgb(0,0,255)" stroke-width="1.874998" fill="none" d="M 0.000000 750.000000 L 403.846161 0.000000 " />
<path stroke-linejoin="round" stroke-linecap="round" stroke="rgb(255,0,0)" stroke-width="3.749996" fill="none" d="M 81.654732 598.355530 L 81.860283 601.438721 " />
<path stroke-linejoin="round" stroke-linecap="round" stroke="rgb(0,0,255)" stroke-width="1.874998" fill="none" d="M 0.000000 750.000000 L 355.932190 0.000000 " />
<path stroke-linejoin="round" stroke-linecap="round" stroke="rgb(255,0,0)" stroke-width="3.749996" fill="none" d="M 80.461441 580.456238 L 81.654709 598.355530 " />
<path stroke-linejoin="round" stroke-linecap="round" stroke="rgb(0,0,255)" stroke-width="1.874998" fill="none" d="M 0.000000 750.000000 L 337.500000 0.000000 " />
<path stroke-linejoin="round" stroke-linecap="round" stroke="rgb(255,0,0)" stroke-width="3.749996" fill="none" d="M 79.923790 572.391541 L 80.461441 580.456238 " />
<path stroke-linejoin="round" stroke-linecap="round" stroke="rgb(0,0,255)" stroke-width="1.874998" fill="none" d="M 0.000000 750.000000 L 302.419342 0.000000 " />
<path stroke-linejoin="round" stroke-linecap="round" stroke="rgb(255,0,0)" stroke-width="3.749996" fill="none" d="M 78.745163 554.711975 L 79.923790 572.391541 " />
<path stroke-linejoin="round" stroke-linecap="round" stroke="rgb(0,0,255)" stroke-width="1.874998" fill="none" d="M 0.000000 750.000000 L 294.642883 0.000000 " />
<path stroke-linejoin="round" stroke-linecap="round" stroke="rgb(255,0,0)" stroke-width="3.749996" fill="none" d="M 77.291405 553.258240 L 78.745163 554.711975 " />
<path stroke-linejoin="round" stroke-linecap="round" stroke="rgb(0,0,255)" stroke-width="1.874998" fill="none" d="M 0.000000 750.000000 L 253.846161 0.000000 " />
<path stroke-linejoin="round" stroke-linecap="round" stroke="rgb(255,0,0)" stroke-width="3.749996" fill="none" d="M 75.530334 526.842163 L 77.291428 553.258179 " />
<path stroke-linejoin="round" stroke-linecap="round" stroke="rgb(0,0,255)" stroke-width="1.874998" fill="none" d="M 0.000000 750.000000 L 210.000000 0.000000 " />
<path stroke-linejoin="round" stroke-linecap="round" stroke="rgb(255,0,0)" stroke-width="3.749996" fill="none" d="M 73.021484 489.208984 L 75.530334 526.842163 " />
<path stroke-linejoin="round" stroke-linecap="round" stroke="rgb(0,0,255)" stroke-width="1.874998" fill="none" d="M 0.000000 750.000000 L 194.117661 0.000000 " />
<path stroke-linejoin="round" stroke-linecap="round" stroke="rgb(255,0,0)" stroke-width="3.749996" fill="none" d="M 71.890335 472.241882 L 73.021484 489.208984 " />
<path stroke-linejoin="round" stroke-linecap="round" stroke="rgb(0,0,255)" stroke-width="1.874998" fill="none" d="M 0.000000 750.000000 L 183.139526 0.000000 " />
<path stroke-linejoin="round" stroke-linecap="round" stroke="rgb(255,0,0)" stroke-width="3.749996" fill="none" d="M 71.018387 459.162811 L 71.890335 472.241882 " />
<path stroke-linejoin="round" stroke-linecap="round" stroke="rgb(0,0,255)" stroke-width="1.874998" fill="none" d="M 0.000000 750.000000 L 155.172409 0.000000 " />
<path stroke-linejoin="round" stroke-linecap="round" stroke="rgb(255,0,0)" stroke-width="3.749996" fill="none" d="M 68.375450 419.518677 L 71.018387 459.162811 " />
<path stroke-linejoin="round" stroke-linecap="round" stroke="rgb(0,0,255)" stroke-width="1.874998" fill="none" d="M 0.000000 750.000000 L 144.886353 0.000000 " />
<path stroke-linejoin="round" stroke-linecap="round" stroke="rgb(255,0,0)" stroke-width="3.749996" fill="none" d="M 64.576820 415.720032 L 68.375450 419.518677 " />
<path stroke-linejoin="round" stroke-linecap="round" stroke="rgb(0,0,255)" stroke-width="1.874998" fill="none" d="M 0.000000 750.000000 L 134.831467 0.000000 " />
<path stroke-linejoin="round" stroke-linecap="round" stroke="rgb(255,0,0)" stroke-width="3.749996" fill="none" d="M 60.778187 411.921356 L 64.576820 415.720032 " />
<path stroke-linejoin="round" stroke-linecap="round" stroke="rgb(0,0,255)" stroke-width="1.874998" fill="none" d="M 0.000000 750.000000 L 131.868118 0.000000 " />
<path stroke-linejoin="round" stroke-linecap="round" stroke="rgb(255,0,0)" stroke-width="3.749996" fill="none" d="M 59.642136 410.785309 L 60.778187 411.921356 " />
<path stroke-linejoin="round" stroke-linecap="round" stroke="rgb(0,0,255)" stroke-width="1.874998" fill="none" d="M 0.000000 750.000000 L 129.032272 0.000000 " />
<path stroke-linejoin="round" stroke-linecap="round" stroke="rgb(255,0,0)" stroke-width="3.749996" fill="none" d="M 58.547794 409.690979 L 59.642136 410.785309 " />
<path stroke-linejoin="round" stroke-linecap="round" stroke="rgb(0,0,255)" stroke-width="1.874998" fill="none" d="M 0.000000 750.000000 L 126.237633 0.000000 " />
<path stroke-linejoin="round" stroke-linecap="round" stroke="rgb(255,0,0)" stroke-width="3.749996" fill="none" d="M 58.188023 404.294647 L 58.547794 409.690979 " />
<path stroke-linejoin="round" stroke-linecap="round" stroke="rgb(0,0,255)" stroke-width="1.874998" fill="none" d="M 0.000000 750.000000 L 123.786407 0.000000 " />
<path stroke-linejoin="round" stroke-linecap="round" stroke="rgb(255,0,0)" stroke-width="3.749996" fill="none" d="M 57.862961 399.418549 L 58.188023 404.294647 " />
<path stroke-linejoin="round" stroke-linecap="round" stroke="rgb(0,0,255)" stroke-width="1.874998" fill="none" d="M 0.000000 750.000000 L 121.428566 0.000000 " />
<path stroke-linejoin="round" stroke-linecap="round" stroke="rgb(255,0,0)" stroke-width="3.749996" fill="none" d="M 57.541496 394.596619 L 57.862961 399.418549 " />
<path stroke-linejoin="round" stroke-linecap="round" stroke="rgb(0,0,255)" stroke-width="1.874998" fill="none" d="M 0.000000 750.000000 L 107.142853 0.000000 " />
<path stroke-linejoin="round" stroke-linecap="round" stroke="rgb(255,0,0)" stroke-width="3.749996" fill="none" d="M 55.387527 362.287231 L 57.541496 394.596619 " />
<path stroke-linejoin="round" stroke-linecap="round" stroke="rgb(0,0,255)" stroke-width="1.874998" fill="none" d="M 0.000000 750.000000 L 99.056618 0.000000 " />
<path stroke-linejoin="round" stroke-linecap="round" stroke="rgb(255,0,0)" stroke-width="3.749996" fill="none" d="M 51.695042 358.594727 L 55.387527 362.287231 " />
<path stroke-linejoin="round" stroke-linecap="round" stroke="rgb(0,0,255)" stroke-width="1.874998" fill="none" d="M 0.000000 750.000000 L 91.121506 0.000000 " />
<path stroke-linejoin="round" stroke-linecap="round" stroke="rgb(255,0,0)" stroke-width="3.749996" fill="none" d="M 48.002533 354.902222 L 51.695042 358.594727 " />
<path stroke-linejoin="round" stroke-linecap="round" stroke="rgb(0,0,255)" stroke-width="1.874998" fill="none" d="M 0.000000 750.000000 L 83.333328 0.000000 " />
<path stroke-linejoin="round" stroke-linecap="round" stroke="rgb(255,0,0)" stroke-width="3.749996" fill="none" d="M 44.310024 351.209686 L 48.002533 354.902222 " />
<path stroke-linejoin="round" stroke-linecap="round" stroke="rgb(0,0,255)" stroke-width="1.874998" fill="none" d="M 0.000000 750.000000 L 81.818169 0.000000 " />
<path stroke-linejoin="round" stroke-linecap="round" stroke="rgb(255,0,0)" stroke-width="3.749996" fill="none" d="M 43.583637 350.483307 L 44.310024 351.209686 " />
<path stroke-linejoin="round" stroke-linecap="round" stroke="rgb(0,0,255)" stroke-width="1.874998" fill="none" d="M 0.000000 750.000000 L 80.357147 0.000000 " />
<path stroke-linejoin="round" stroke-linecap="round" stroke="rgb(255,0,0)" stroke-width="3.749996" fill="none" d="M 42.880676 349.780365 L 43.583637 350.483307 " />
<path stroke-linejoin="round" stroke-linecap="round" stroke="rgb(0,0,255)" stroke-width="1.874998" fill="none" d="M 0.000000 750.000000 L 77.830193 0.000000 " />
<path stroke-linejoin="round" stroke-linecap="round" stroke="rgb(255,0,0)" stroke-width="3.749996" fill="none" d="M 41.658997 348.558655 L 42.880676 349.780365 " />
<path stroke-linejoin="round" stroke-linecap="round" stroke="rgb(0,0,255)" stroke-width="1.874998" fill="none" d="M 0.000000 750.000000 L 64.655159 0.000000 " />
<path stroke-linejoin="round" stroke-linecap="round" stroke="rgb(255,0,0)" stroke-width="3.749996" fill="none" d="M 38.583710 302.429077 L 41.658997 348.558655 " />
<path stroke-linejoin="round" stroke-linecap="round" stroke="rgb(0,0,255)" stroke-width="1.874998" fill="none" d="M 0.000000 750.000000 L 57.692303 0.000000 " />
<path stroke-linejoin="round" stroke-linecap="round" stroke="rgb(255,0,0)" stroke-width="3.749996" fill="none" d="M 34.725330 298.570709 L 38.583710 302.429047 " />
<path stroke-linejoin="round" stroke-linecap="round" stroke="rgb(0,0,255)" stroke-width="1.874998" fill="none" d="M 0.000000 750.000000 L 50.847462 0.000000 " />
<path stroke-linejoin="round" stroke-linecap="round" stroke="rgb(255,0,0)" stroke-width="3.749996" fill="none" d="M 30.866951 294.712372 L 34.725330 298.570709 " />
<path stroke-linejoin="round" stroke-linecap="round" stroke="rgb(0,0,255)" stroke-width="1.874998" fill="none" d="M 0.000000 750.000000 L 49.999996 0.000000 " />
<path stroke-linejoin="round" stroke-linecap="round" stroke="rgb(255,0,0)" stroke-width="3.749996" fill="none" d="M 30.384666 294.230072 L 30.866951 294.712372 " />
<path stroke-linejoin="round" stroke-linecap="round" stroke="rgb(0,0,255)" stroke-width="1.874998" fill="none" d="M 0.000000 750.000000 L 49.180313 0.000000 " />
<path stroke-linejoin="round" stroke-linecap="round" stroke="rgb(255,0,0)" stroke-width="3.749996" fill="none" d="M 29.917202 293.762604 L 30.384666 294.230072 " />
<path stroke-linejoin="round" stroke-linecap="round" stroke="rgb(0,0,255)" stroke-width="1.874998" fill="none" d="M 0.000000 750.000000 L 46.511627 0.000000 " />
<path stroke-linejoin="round" stroke-linecap="round" stroke="rgb(255,0,0)" stroke-width="3.749996" fill="none" d="M 28.388590 292.233948 L 29.917202 293.762543 " />
<path stroke-linejoin="round" stroke-linecap="round" stroke="rgb(0,0,255)" stroke-width="1.874998" fill="none" d="M 0.000000 750.000000 L 43.478249 0.000000 " />
<path stroke-linejoin="round" stroke-linecap="round" stroke="rgb(255,0,0)" stroke-width="3.749996" fill="none" d="M 27.398296 277.379486 L 28.388590 292.233948 " />
<path stroke-linejoin="round" stroke-linecap="round" stroke="rgb(0,0,255)" stroke-width="1.874998" fill="none" d="M 0.000000 750.000000 L 40.384613 0.000000 " />
<path stroke-linejoin="round" stroke-linecap="round" stroke="rgb(255,0,0)" stroke-width="3.749996" fill="none" d="M 25.548399 275.529602 L 27.398296 277.379486 " />
<path stroke-linejoin="round" stroke-linecap="round" stroke="rgb(0,0,255)" stroke-width="1.874998" fill="none" d="M 0.000000 750.000000 L 34.351139 0.000000 " />
<path stroke-linejoin="round" stroke-linecap="round" stroke="rgb(255,0,0)" stroke-width="3.749996" fill="none" d="M 21.898628 271.879822 L 25.548399 275.529602 " />
<path stroke-linejoin="round" stroke-linecap="round" stroke="rgb(0,0,255)" stroke-width="1.874998" fill="none" d="M 0.000000 750.000000 L 31.690144 0.000000 " />
<path stroke-linejoin="round" stroke-linecap="round" stroke="rgb(255,0,0)" stroke-width="3.749996" fill="none" d="M 20.860344 256.305420 L 21.898628 271.879883 " />
<path stroke-linejoin="round" stroke-linecap="round" stroke="rgb(0,0,255)" stroke-width="1.874998" fill="none" d="M 0.000000 750.000000 L 26.223778 0.000000 " />
<path stroke-linejoin="round" stroke-linecap="round" stroke="rgb(255,0,0)" stroke-width="3.749996" fill="none" d="M 17.383619 252.828644 L 20.860344 256.305420 " />
<path stroke-linejoin="round" stroke-linecap="round" stroke="rgb(0,0,255)" stroke-width="1.874998" fill="none" d="M 0.000000 750.000000 L 20.833344 0.000000 " />
<path stroke-linejoin="round" stroke-linecap="round" stroke="rgb(255,0,0)" stroke-width="3.749996" fill="none" d="M 14.705881 220.588272 L 17.383619 252.828644 " />
<path stroke-linejoin="round" stroke-linecap="round" stroke="rgb(0,0,255)" stroke-width="1.874998" fill="none" d="M 0.000000 750.000000 L 20.547956 0.000000 " />
<path stroke-linejoin="round" stroke-linecap="round" stroke="rgb(255,0,0)" stroke-width="3.749996" fill="none" d="M 14.563099 218.446701 L 14.705881 220.588318 " />
<path stroke-linejoin="round" stroke-linecap="round" stroke="rgb(0,0,255)" stroke-width="1.874998" fill="none" d="M 0.000000 750.000000 L 20.270281 0.000000 " />
<path stroke-linejoin="round" stroke-linecap="round" stroke="rgb(255,0,0)" stroke-width="3.749996" fill="none" d="M 14.423065 216.346313 L 14.563099 218.446701 " />
<path stroke-linejoin="round" stroke-linecap="round" stroke="rgb(0,0,255)" stroke-width="1.874998" fill="none" d="M 0.000000 750.000000 L 20.000004 0.000000 " />
<path stroke-linejoin="round" stroke-linecap="round" stroke="rgb(255,0,0)" stroke-width="3.749996" fill="none" d="M 14.285713 214.285919 L 14.423065 216.346359 " />
<path stroke-linejoin="round" stroke-linecap="round" stroke="rgb(0,0,255)" stroke-width="1.874998" fill="none" d="M 0.000000 750.000000 L 19.736834 0.000000 " />
<path stroke-linejoin="round" stroke-linecap="round" stroke="rgb(255,0,0)" stroke-width="3.749996" fill="none" d="M 14.150932 212.264343 L 14.285713 214.285919 " />
<path stroke-linejoin="round" stroke-linecap="round" stroke="rgb(0,0,255)" stroke-width="1.874998" fill="none" d="M 0.000000 750.000000 L 19.480526 0.000000 " />
<path stroke-linejoin="round" stroke-linecap="round" stroke="rgb(255,0,0)" stroke-width="3.749996" fill="none" d="M 14.018677 210.280533 L 14.150932 212.264343 " />
<path stroke-linejoin="round" stroke-linecap="round" stroke="rgb(0,0,255)" stroke-width="1.874998" fill="none" d="M 0.000000 750.000000 L 15.100680 0.000000 " />
<path stroke-linejoin="round" stroke-linecap="round" stroke="rgb(255,0,0)" stroke-width="3.749996" fill="none" d="M 11.597939 173.969284 L 14.018677 210.280533 " />
<path stroke-linejoin="round" stroke-linecap="round" stroke="rgb(0,0,255)" stroke-width="1.874998" fill="none" d="M 0.000000 750.000000 L 9.999990 0.000000 " />
<path stroke-linejoin="round" stroke-linecap="round" stroke="rgb(255,0,0)" stroke-width="3.749996" fill="none" d="M 8.333333 125.000191 L 11.597939 173.969284 " />
<path stroke-linejoin="round" stroke-linecap="round" stroke="rgb(0,0,255)" stroke-width="1.874998" fill="none" d="M 0.000000 750.000000 L 4.966892 0.000000 " />
<path stroke-linejoin="round" stroke-linecap="round" stroke="rgb(255,0,0)" stroke-width="3.749996" fill="none" d="M 4.518069 67.771332 L 8.333333 125.000191 " />
<path stroke-linejoin="round" stroke-linecap="round" stroke="rgb(0,0,255)" stroke-width="1.874998" fill="none" d="M 0.000000 750.000000 L 0.000000 0.000000 " />
<path stroke-linejoin="round" stroke-linecap="round" stroke="rgb(255,0,0)" stroke-width="3.749996" fill="none" d="M 0.000000 0.000000 L 4.518069 67.771332 " />
<circle cx="93.608156" cy="747.872561" r="3.749996" style="fill:rgb(0,127,0);stroke-width:1" /><circle cx="91.480717" cy="745.745078" r="3.749996" style="fill:rgb(0,127,0);stroke-width:1" /><circle cx="90.049133" cy="724.271670" r="3.749996" style="fill:rgb(0,127,0);stroke-width:1" /><circle cx="88.595107" cy="702.461153" r="3.749996" style="fill:rgb(0,127,0);stroke-width:1" /><circle cx="88.532232" cy="701.518066" r="3.749996" style="fill:rgb(0,127,0);stroke-width:1" /><circle cx="88.093780" cy="694.941379" r="3.749996" style="fill:rgb(0,127,0);stroke-width:1" /><circle cx="87.614223" cy="687.747806" r="3.749996" style="fill:rgb(0,127,0);stroke-width:1" /><circle cx="87.572850" cy="687.127188" r="3.749996" style="fill:rgb(0,127,0);stroke-width:1" /><circle cx="87.288044" cy="682.855345" r="3.749996" style="fill:rgb(0,127,0);stroke-width:1" /><circle cx="86.492434" cy="670.921192" r="3.749996" style="fill:rgb(0,127,0);stroke-width:1" /><circle cx="85.197084" cy="651.490867" r="3.749996" style="fill:rgb(0,127,0);stroke-width:1" /><circle cx="83.967403" cy="633.045405" r="3.749996" style="fill:rgb(0,127,0);stroke-width:1" /><circle cx="81.860282" cy="601.438746" r="3.749996" style="fill:rgb(0,127,0);stroke-width:1" /><circle cx="81.654735" cy="598.355502" r="3.749996" style="fill:rgb(0,127,0);stroke-width:1" /><circle cx="80.461442" cy="580.456227" r="3.749996" style="fill:rgb(0,127,0);stroke-width:1" /><circle cx="79.923794" cy="572.391540" r="3.749996" style="fill:rgb(0,127,0);stroke-width:1" /><circle cx="78.745164" cy="554.711983" r="3.749996" style="fill:rgb(0,127,0);stroke-width:1" /><circle cx="77.291407" cy="553.258225" r="3.749996" style="fill:rgb(0,127,0);stroke-width:1" /><circle cx="75.530335" cy="526.842155" r="3.749996" style="fill:rgb(0,127,0);stroke-width:1" /><circle cx="73.021486" cy="489.209019" r="3.749996" style="fill:rgb(0,127,0);stroke-width:1" /><circle cx="71.890332" cy="472.241901" r="3.749996" style="fill:rgb(0,127,0);stroke-width:1" /><circle cx="71.018390" cy="459.162779" r="3.749996" style="fill:rgb(0,127,0);stroke-width:1" /><circle cx="68.375453" cy="419.518679" r="3.749996" style="fill:rgb(0,127,0);stroke-width:1" /><circle cx="64.576820" cy="415.720046" r="3.749996" style="fill:rgb(0,127,0);stroke-width:1" /><circle cx="60.778186" cy="411.921367" r="3.749996" style="fill:rgb(0,127,0);stroke-width:1" /><circle cx="59.642136" cy="410.785317" r="3.749996" style="fill:rgb(0,127,0);stroke-width:1" /><circle cx="58.547795" cy="409.690976" r="3.749996" style="fill:rgb(0,127,0);stroke-width:1" /><circle cx="58.188021" cy="404.294640" r="3.749996" style="fill:rgb(0,127,0);stroke-width:1" /><circle cx="57.862960" cy="399.418540" r="3.749996" style="fill:rgb(0,127,0);stroke-width:1" /><circle cx="57.541497" cy="394.596621" r="3.749996" style="fill:rgb(0,127,0);stroke-width:1" /><circle cx="55.387527" cy="362.287223" r="3.749996" style="fill:rgb(0,127,0);stroke-width:1" /><circle cx="51.695041" cy="358.594716" r="3.749996" style="fill:rgb(0,127,0);stroke-width:1" /><circle cx="48.002534" cy="354.902208" r="3.749996" style="fill:rgb(0,127,0);stroke-width:1" /><circle cx="44.310026" cy="351.209700" r="3.749996" style="fill:rgb(0,127,0);stroke-width:1" /><circle cx="43.583639" cy="350.483313" r="3.749996" style="fill:rgb(0,127,0);stroke-width:1" /><circle cx="42.880677" cy="349.780351" r="3.749996" style="fill:rgb(0,127,0);stroke-width:1" /><circle cx="41.658998" cy="348.558649" r="3.749996" style="fill:rgb(0,127,0);stroke-width:1" /><circle cx="38.583711" cy="302.429080" r="3.749996" style="fill:rgb(0,127,0);stroke-width:1" /><circle cx="34.725331" cy="298.570722" r="3.749996" style="fill:rgb(0,127,0);stroke-width:1" /><circle cx="30.866951" cy="294.712365" r="3.749996" style="fill:rgb(0,127,0);stroke-width:1" /><circle cx="30.384667" cy="294.230059" r="3.749996" style="fill:rgb(0,127,0);stroke-width:1" /><circle cx="29.917203" cy="293.762594" r="3.749996" style="fill:rgb(0,127,0);stroke-width:1" /><circle cx="28.388590" cy="292.233959" r="3.749996" style="fill:rgb(0,127,0);stroke-width:1" /><circle cx="27.398296" cy="277.379483" r="3.749996" style="fill:rgb(0,127,0);stroke-width:1" /><circle cx="25.548398" cy="275.529608" r="3.749996" style="fill:rgb(0,127,0);stroke-width:1" /><circle cx="21.898627" cy="271.879837" r="3.749996" style="fill:rgb(0,127,0);stroke-width:1" /><circle cx="20.860344" cy="256.305411" r="3.749996" style="fill:rgb(0,127,0);stroke-width:1" /><circle cx="17.383620" cy="252.828643" r="3.749996" style="fill:rgb(0,127,0);stroke-width:1" /><circle cx="14.705881" cy="220.588267" r="3.749996" style="fill:rgb(0,127,0);stroke-width:1" /><circle cx="14.563099" cy="218.446702" r="3.749996" style="fill:rgb(0,127,0);stroke-width:1" /><circle cx="14.423065" cy="216.346309" r="3.749996" style="fill:rgb(0,127,0);stroke-width:1" /><circle cx="14.285713" cy="214.285925" r="3.749996" style="fill:rgb(0,127,0);stroke-width:1" /><circle cx="14.150932" cy="212.264344" r="3.749996" style="fill:rgb(0,127,0);stroke-width:1" /><circle cx="14.018677" cy="210.280538" r="3.749996" style="fill:rgb(0,127,0);stroke-width:1" /><circle cx="11.597939" cy="173.969284" r="3.749996" style="fill:rgb(0,127,0);stroke-width:1" /><circle cx="8.333333" cy="125.000194" r="3.749996" style="fill:rgb(0,127,0);stroke-width:1" /><circle cx="4.518069" cy="67.771330" r="3.749996" style="fill:rgb(0,127,0);stroke-width:1" /><circle cx="750.000000" cy="750.000000" r="3.749996" style="fill:rgb(0,127,0);stroke-width:1" /><path stroke-linejoin="round" stroke-linecap="round" stroke="rgb(255,255,255)" stroke-width="3.749996" fill="none" d="M 0.000000 750.000000 L 750.000000 750.000000 M 0.000000 750.000000 L 0.000000 0.000000 " />

</svg>