<svg xmlns="http://www.w3.org/2000/svg" version="1.1" width = "750" height = "750" viewBox = "0 0 750 750"  shape-rendering="crispEdges">
<path stroke-linejoin="round" stroke-linecap="round" stroke="rgb(255,255,0)" stroke-width="3.749996" fill="none" d="M 107.142853 750.000000 L 0.000000 0.000000 " />
<path stroke-linejoin="round" stroke-linecap="round" stroke="rgb(63,63,63)" stroke-width="3.749996" fill="none" d="M 0.000000 0.000000 L 750.000000 750.000000 M 107.142853 750.000000 L 49.450546 0.000000 " />
<path stroke-linejoin="round" stroke-linecap="round" stroke="rgb(191,191,191)" stroke-width="3.749996" fill="none" d="M 0.000000 642.857178 L 107.142853 750.000000 M 0.000000 0.000000 L 57.692303 750.000000 " />
<path stroke-linejoin="round" stroke-linecap="round" stroke="rgb(0,0,255)" stroke-width="1.874998" fill="none" d="M 0.000000 750.000000 L 750.000000 575.581421 " />
<path stroke-linejoin="round" stroke-linecap="round" stroke="rgb(255,0,0)" stroke-width="3.749996" fill="none" d="M 105.259850 725.520935 L 107.142853 750.000000 " />
<path stroke-linejoin="round" stroke-linecap="round" stroke="rgb(0,0,255)" stroke-width="1.874998" fill="none" d="M 0.000000 750.000000 L 750.000000 540.697693 " />
<path stroke-linejoin="round" stroke-linecap="round" stroke="rgb(255,0,0)" stroke-width="3.749996" fill="none" d="M 104.783554 720.758057 L 105.259850 725.520935 " />
<path stroke-linejoin="round" stroke-linecap="round" stroke="rgb(0,0,255)" stroke-width="1.874998" fill="none" d="M 0.000000 750.000000 L 750.000000 528.409119 " />
<path stroke-linejoin="round" stroke-linecap="round" stroke="rgb(255,0,0)" stroke-width="3.749996" fill="none" d="M 104.616791 719.090515 L 104.783554 720.758057 " />
<path stroke-linejoin="round" stroke-linecap="round" stroke="rgb(0,0,255)" stroke-width="1.874998" fill="none" d="M 0.000000 750.000000 L 750.000000 494.318146 " />
<path stroke-linejoin="round" stroke-linecap="round" stroke="rgb(255,0,0)" stroke-width="3.749996" fill="none" d="M 104.156952 714.491943 L 104.616791 719.090515 " />
<path stroke-linejoin="round" stroke-linecap="round" stroke="rgb(0,0,255)" stroke-width="1.874998" fill="none" d="M 0.000000 750.000000 L 750.000000 392.857178 " />
<path stroke-linejoin="round" stroke-linecap="round" stroke="rgb(255,0,0)" stroke-width="3.749996" fill="none" d="M 102.811958 701.041931 L 104.156952 714.491943 " />
<path stroke-linejoin="round" stroke-linecap="round" stroke="rgb(0,0,255)" stroke-width="1.874998" fill="none" d="M 0.000000 750.000000 L 750.000000 383.720947 " />
<path stroke-linejoin="round" stroke-linecap="round" stroke="rgb(255,0,0)" stroke-width="3.749996" fill="none" d="M 102.692551 699.847839 L 102.811958 701.041931 " />
<path stroke-linejoin="round" stroke-linecap="round" stroke="rgb(0,0,255)" stroke-width="1.874998" fill="none" d="M 0.000000 750.000000 L 750.000000 329.268280 " />
<path stroke-linejoin="round" stroke-linecap="round" stroke="rgb(255,0,0)" stroke-width="3.749996" fill="none" d="M 101.986549 692.788025 L 102.692551 699.847839 " />
<path stroke-linejoin="round" stroke-linecap="round" stroke="rgb(0,0,255)" stroke-width="1.874998" fill="none" d="M 0.000000 750.000000 L 750.000000 269.230743 " />
<path stroke-linejoin="round" stroke-linecap="round" stroke="rgb(255,0,0)" stroke-width="3.749996" fill="none" d="M 101.219345 685.115784 L 101.986549 692.788025 " />
<path stroke-linejoin="round" stroke-linecap="round" stroke="rgb(0,0,255)" stroke-width="1.874998" fill="none" d="M 0.000000 750.000000 L 750.000000 59.210526 " />
<path stroke-linejoin="round" stroke-linecap="round" stroke="rgb(255,0,0)" stroke-width="3.749996" fill="none" d="M 98.623955 659.162170 L 101.219345 685.115784 " />
<path stroke-linejoin="round" stroke-linecap="round" stroke="rgb(0,0,255)" stroke-width="1.874998" fill="none" d="M 0.000000 750.000000 L 650.000000 0.000000 " />
<path stroke-linejoin="round" stroke-linecap="round" stroke="rgb(255,0,0)" stroke-width="3.749996" fill="none" d="M 96.565582 638.578186 L 98.623955 659.162170 " />
<path stroke-linejoin="round" stroke-linecap="round" stroke="rgb(0,0,255)" stroke-width="1.874998" fill="none" d="M 0.000000 750.000000 L 619.565186 0.000000 " />
<path stroke-linejoin="round" stroke-linecap="round" stroke="rgb(255,0,0)" stroke-width="3.749996" fill="none" d="M 96.077332 633.695862 L 96.565582 638.578186 " />
<path stroke-linejoin="round" stroke-linecap="round" stroke="rgb(0,0,255)" stroke-width="1.874998" fill="none" d="M 0.000000 750.000000 L 562.500000 0.000000 " />
<path stroke-linejoin="round" stroke-linecap="round" stroke="rgb(255,0,0)" stroke-width="3.749996" fill="none" d="M 95.036255 623.284973 L 96.077332 633.695862 " />
<path stroke-linejoin="round" stroke-linecap="round" stroke="rgb(0,0,255)" stroke-width="1.874998" fill="none" d="M 0.000000 750.000000 L 535.714294 0.000000 " />
<path stroke-linejoin="round" stroke-linecap="round" stroke="rgb(255,0,0)" stroke-width="3.749996" fill="none" d="M 94.480499 617.727295 L 95.036255 623.284973 " />
<path stroke-linejoin="round" stroke-linecap="round" stroke="rgb(0,0,255)" stroke-width="1.874998" fill="none" d="M 0.000000 750.000000 L 485.294128 0.000000 " />
<path stroke-linejoin="round" stroke-linecap="round" stroke="rgb(255,0,0)" stroke-width="3.749996" fill="none" d="M 93.290199 605.824219 L 94.480499 617.727295 " />
<path stroke-linejoin="round" stroke-linecap="round" stroke="rgb(0,0,255)" stroke-width="1.874998" fill="none" d="M 0.000000 750.000000 L 393.442596 0.000000 " />
<path stroke-linejoin="round" stroke-linecap="round" stroke="rgb(255,0,0)" stroke-width="3.749996" fill="none" d="M 90.463219 577.554504 L 93.290199 605.824219 " />
<path stroke-linejoin="round" stroke-linecap="round" stroke="rgb(0,0,255)" stroke-width="1.874998" fill="none" d="M 0.000000 750.000000 L 348.591522 0.000000 " />
<path stroke-linejoin="round" stroke-linecap="round" stroke="rgb(255,0,0)" stroke-width="3.749996" fill="none" d="M 88.637306 559.295471 L 90.463219 577.554504 " />
<path stroke-linejoin="round" stroke-linecap="round" stroke="rgb(0,0,255)" stroke-width="1.874998" fill="none" d="M 0.000000 750.000000 L 333.333344 0.000000 " />
<path stroke-linejoin="round" stroke-linecap="round" stroke="rgb(255,0,0)" stroke-width="3.749996" fill="none" d="M 87.924713 552.169434 L 88.637306 559.295471 " />
<path stroke-linejoin="round" stroke-linecap="round" stroke="rgb(0,0,255)" stroke-width="1.874998" fill="none" d="M 0.000000 750.000000 L 297.945190 0.000000 " />
<path stroke-linejoin="round" stroke-linecap="round" stroke="rgb(255,0,0)" stroke-width="3.749996" fill="none" d="M 86.047523 533.397644 L 87.924690 552.169434 " />
<path stroke-linejoin="round" stroke-linecap="round" stroke="rgb(0,0,255)" stroke-width="1.874998" fill="none" d="M 0.000000 750.000000 L 270.000000 0.000000 " />
<path stroke-linejoin="round" stroke-linecap="round" stroke="rgb(255,0,0)" stroke-width="3.749996" fill="none" d="M 84.293022 515.852722 L 86.047523 533.397644 " />
<path stroke-linejoin="round" stroke-linecap="round" stroke="rgb(0,0,255)" stroke-width="1.874998" fill="none" d="M 0.000000 750.000000 L 229.411758 0.000000 " />
<path stroke-linejoin="round" stroke-linecap="round" stroke="rgb(255,0,0)" stroke-width="3.749996" fill="none" d="M 81.171066 484.633057 L 84.293022 515.852722 " />
<path stroke-linejoin="round" stroke-linecap="round" stroke="rgb(0,0,255)" stroke-width="1.874998" fill="none" d="M 0.000000 750.000000 L 213.157898 0.000000 " />
<path stroke-linejoin="round" stroke-linecap="round" stroke="rgb(255,0,0)" stroke-width="3.749996" fill="none" d="M 79.674240 469.664734 L 81.171066 484.633057 " />
<path stroke-linejoin="round" stroke-linecap="round" stroke="rgb(0,0,255)" stroke-width="1.874998" fill="none" d="M 0.000000 750.000000 L 203.125000 0.000000 " />
<path stroke-linejoin="round" stroke-linecap="round" stroke="rgb(255,0,0)" stroke-width="3.749996" fill="none" d="M 78.662979 459.552124 L 79.674240 469.664734 " />
<path stroke-linejoin="round" stroke-linecap="round" stroke="rgb(0,0,255)" stroke-width="1.874998" fill="none" d="M 0.000000 750.000000 L 198.979584 0.000000 " />
<path stroke-linejoin="round" stroke-linecap="round" stroke="rgb(255,0,0)" stroke-width="3.749996" fill="none" d="M 78.223518 455.157562 L 78.662979 459.552124 " />
<path stroke-linejoin="round" stroke-linecap="round" stroke="rgb(0,0,255)" stroke-width="1.874998" fill="none" d="M 0.000000 750.000000 L 191.666656 0.000000 " />
<path stroke-linejoin="round" stroke-linecap="round" stroke="rgb(255,0,0)" stroke-width="3.749996" fill="none" d="M 76.801857 449.470947 L 78.223518 455.157562 " />
<path stroke-linejoin="round" stroke-linecap="round" stroke="rgb(0,0,255)" stroke-width="1.874998" fill="none" d="M 0.000000 750.000000 L 181.318665 0.000000 " />
<path stroke-linejoin="round" stroke-linecap="round" stroke="rgb(255,0,0)" stroke-width="3.749996" fill="none" d="M 74.693863 441.039032 L 76.801857 449.471008 " />
<path stroke-linejoin="round" stroke-linecap="round" stroke="rgb(0,0,255)" stroke-width="1.874998" fill="none" d="M 0.000000 750.000000 L 170.792068 0.000000 " />
<path stroke-linejoin="round" stroke-linecap="round" stroke="rgb(255,0,0)" stroke-width="3.749996" fill="none" d="M 73.370667 427.807068 L 74.693863 441.039062 " />
<path stroke-linejoin="round" stroke-linecap="round" stroke="rgb(0,0,255)" stroke-width="1.874998" fill="none" d="M 0.000000 750.000000 L 161.290298 0.000000 " />
<path stroke-linejoin="round" stroke-linecap="round" stroke="rgb(255,0,0)" stroke-width="3.749996" fill="none" d="M 71.176369 419.029846 L 73.370667 427.807068 " />
<path stroke-linejoin="round" stroke-linecap="round" stroke="rgb(0,0,255)" stroke-width="1.874998" fill="none" d="M 0.000000 750.000000 L 157.894745 0.000000 " />
<path stroke-linejoin="round" stroke-linecap="round" stroke="rgb(255,0,0)" stroke-width="3.749996" fill="none" d="M 70.362923 415.776154 L 71.176369 419.029846 " />
<path stroke-linejoin="round" stroke-linecap="round" stroke="rgb(0,0,255)" stroke-width="1.874998" fill="none" d="M 0.000000 750.000000 L 148.437515 0.000000 " />
<path stroke-linejoin="round" stroke-linecap="round" stroke="rgb(255,0,0)" stroke-width="3.749996" fill="none" d="M 68.010674 406.367188 L 70.362900 415.776154 " />
<path stroke-linejoin="round" stroke-linecap="round" stroke="rgb(0,0,255)" stroke-width="1.874998" fill="none" d="M 0.000000 750.000000 L 139.175262 0.000000 " />
<path stroke-linejoin="round" stroke-linecap="round" stroke="rgb(255,0,0)" stroke-width="3.749996" fill="none" d="M 65.574890 396.624207 L 68.010674 406.367188 " />
<path stroke-linejoin="round" stroke-linecap="round" stroke="rgb(0,0,255)" stroke-width="1.874998" fill="none" d="M 0.000000 750.000000 L 130.102051 0.000000 " />
<path stroke-linejoin="round" stroke-linecap="round" stroke="rgb(255,0,0)" stroke-width="3.749996" fill="none" d="M 63.051090 386.528992 L 65.574890 396.624237 " />
<path stroke-linejoin="round" stroke-linecap="round" stroke="rgb(0,0,255)" stroke-width="1.874998" fill="none" d="M 0.000000 750.000000 L 127.500015 0.000000 " />
<path stroke-linejoin="round" stroke-linecap="round" stroke="rgb(255,0,0)" stroke-width="3.749996" fill="none" d="M 62.300495 383.526550 L 63.051090 386.528992 " />
<path stroke-linejoin="round" stroke-linecap="round" stroke="rgb(0,0,255)" stroke-width="1.874998" fill="none" d="M 0.000000 750.000000 L 118.811890 0.000000 " />
<path stroke-linejoin="round" stroke-linecap="round" stroke="rgb(255,0,0)" stroke-width="3.749996" fill="none" d="M 59.701859 373.131989 L 62.300495 383.526550 " />
<path stroke-linejoin="round" stroke-linecap="round" stroke="rgb(0,0,255)" stroke-width="1.874998" fill="none" d="M 0.000000 750.000000 L 116.504852 0.000000 " />
<path stroke-linejoin="round" stroke-linecap="round" stroke="rgb(255,0,0)" stroke-width="3.749996" fill="none" d="M 58.986874 370.272034 L 59.701859 373.131989 " />
<path stroke-linejoin="round" stroke-linecap="round" stroke="rgb(0,0,255)" stroke-width="1.874998" fill="none" d="M 0.000000 750.000000 L 112.831863 0.000000 " />
<path stroke-linejoin="round" stroke-linecap="round" stroke="rgb(255,0,0)" stroke-width="3.749996" fill="none" d="M 58.244324 362.846588 L 58.986874 370.272034 " />
<path stroke-linejoin="round" stroke-linecap="round" stroke="rgb(0,0,255)" stroke-width="1.874998" fill="none" d="M 0.000000 750.000000 L 108.173088 0.000000 " />
<path stroke-linejoin="round" stroke-linecap="round" stroke="rgb(255,0,0)" stroke-width="3.749996" fill="none" d="M 56.719265 356.746368 L 58.244324 362.846558 " />
<path stroke-linejoin="round" stroke-linecap="round" stroke="rgb(0,0,255)" stroke-width="1.874998" fill="none" d="M 0.000000 750.000000 L 106.132057 0.000000 " />
<path stroke-linejoin="round" stroke-linecap="round" stroke="rgb(255,0,0)" stroke-width="3.749996" fill="none" d="M 56.035908 354.012939 L 56.719265 356.746368 " />
<path stroke-linejoin="round" stroke-linecap="round" stroke="rgb(0,0,255)" stroke-width="1.874998" fill="none" d="M 0.000000 750.000000 L 98.130852 0.000000 " />
<path stroke-linejoin="round" stroke-linecap="round" stroke="rgb(255,0,0)" stroke-width="3.749996" fill="none" d="M 53.262749 342.920349 L 56.035908 354.012939 " />
<path stroke-linejoin="round" stroke-linecap="round" stroke="rgb(0,0,255)" stroke-width="1.874998" fill="none" d="M 0.000000 750.000000 L 96.330284 0.000000 " />
<path stroke-linejoin="round" stroke-linecap="round" stroke="rgb(255,0,0)" stroke-width="3.749996" fill="none" d="M 52.617142 340.337921 L 53.262749 342.920349 " />
<path stroke-linejoin="round" stroke-linecap="round" stroke="rgb(0,0,255)" stroke-width="1.874998" fill="none" d="M 0.000000 750.000000 L 94.537811 0.000000 " />
<path stroke-linejoin="round" stroke-linecap="round" stroke="rgb(255,0,0)" stroke-width="3.749996" fill="none" d="M 52.184029 336.006744 L 52.617142 340.337921 " />
<path stroke-linejoin="round" stroke-linecap="round" stroke="rgb(0,0,255)" stroke-width="1.874998" fill="none" d="M 0.000000 750.000000 L 87.500008 0.000000 " />
<path stroke-linejoin="round" stroke-linecap="round" stroke="rgb(255,0,0)" stroke-width="3.749996" fill="none" d="M 49.535282 325.411804 L 52.184029 336.006744 " />
<path stroke-linejoin="round" stroke-linecap="round" stroke="rgb(0,0,255)" stroke-width="1.874998" fill="none" d="M 0.000000 750.000000 L 86.538460 0.000000 " />
<path stroke-linejoin="round" stroke-linecap="round" stroke="rgb(255,0,0)" stroke-width="3.749996" fill="none" d="M 49.282551 322.884521 L 49.535282 325.411865 " />
<path stroke-linejoin="round" stroke-linecap="round" stroke="rgb(0,0,255)" stroke-width="1.874998" fill="none" d="M 0.000000 750.000000 L 86.065559 0.000000 " />
<path stroke-linejoin="round" stroke-linecap="round" stroke="rgb(255,0,0)" stroke-width="3.749996" fill="none" d="M 49.097969 322.146210 L 49.282551 322.884521 " />
<path stroke-linejoin="round" stroke-linecap="round" stroke="rgb(0,0,255)" stroke-width="1.874998" fill="none" d="M 0.000000 750.000000 L 79.268303 0.000000 " />
<path stroke-linejoin="round" stroke-linecap="round" stroke="rgb(255,0,0)" stroke-width="3.749996" fill="none" d="M 46.372532 311.244446 L 49.097969 322.146210 " />
<path stroke-linejoin="round" stroke-linecap="round" stroke="rgb(0,0,255)" stroke-width="1.874998" fill="none" d="M 0.000000 750.000000 L 78.000000 0.000000 " />
<path stroke-linejoin="round" stroke-linecap="round" stroke="rgb(255,0,0)" stroke-width="3.749996" fill="none" d="M 45.848541 309.148560 L 46.372532 311.244446 " />
<path stroke-linejoin="round" stroke-linecap="round" stroke="rgb(0,0,255)" stroke-width="1.874998" fill="none" d="M 0.000000 750.000000 L 71.428566 0.000000 " />
<path stroke-linejoin="round" stroke-linecap="round" stroke="rgb(255,0,0)" stroke-width="3.749996" fill="none" d="M 43.051422 297.959991 L 45.848541 309.148560 " />
<path stroke-linejoin="round" stroke-linecap="round" stroke="rgb(0,0,255)" stroke-width="1.874998" fill="none" d="M 0.000000 750.000000 L 70.312500 0.000000 " />
<path stroke-linejoin="round" stroke-linecap="round" stroke="rgb(255,0,0)" stroke-width="3.749996" fill="none" d="M 42.562210 296.003143 L 43.051422 297.959991 " />
<path stroke-linejoin="round" stroke-linecap="round" stroke="rgb(0,0,255)" stroke-width="1.874998" fill="none" d="M 0.000000 750.000000 L 67.669182 0.000000 " />
<path stroke-linejoin="round" stroke-linecap="round" stroke="rgb(255,0,0)" stroke-width="3.749996" fill="none" d="M 41.386463 291.300110 L 42.562210 296.003143 " />
<path stroke-linejoin="round" stroke-linecap="round" stroke="rgb(0,0,255)" stroke-width="1.874998" fill="none" d="M 0.000000 750.000000 L 66.666664 0.000000 " />
<path stroke-linejoin="round" stroke-linecap="round" stroke="rgb(255,0,0)" stroke-width="3.749996" fill="none" d="M 40.934155 289.490875 L 41.386463 291.300110 " />
<path stroke-linejoin="round" stroke-linecap="round" stroke="rgb(0,0,255)" stroke-width="1.874998" fill="none" d="M 0.000000 750.000000 L 60.661777 0.000000 " />
<path stroke-linejoin="round" stroke-linecap="round" stroke="rgb(255,0,0)" stroke-width="3.749996" fill="none" d="M 38.148342 278.347687 L 40.934155 289.490875 " />
<path stroke-linejoin="round" stroke-linecap="round" stroke="rgb(0,0,255)" stroke-width="1.874998" fill="none" d="M 0.000000 750.000000 L 54.744534 0.000000 " />
<path stroke-linejoin="round" stroke-linecap="round" stroke="rgb(255,0,0)" stroke-width="3.749996" fill="none" d="M 35.268120 266.826874 L 38.148342 278.347748 " />
<path stroke-linejoin="round" stroke-linecap="round" stroke="rgb(0,0,255)" stroke-width="1.874998" fill="none" d="M 0.000000 750.000000 L 53.956837 0.000000 " />
<path stroke-linejoin="round" stroke-linecap="round" stroke="rgb(255,0,0)" stroke-width="3.749996" fill="none" d="M 34.874058 265.250641 L 35.268120 266.826874 " />
<path stroke-linejoin="round" stroke-linecap="round" stroke="rgb(0,0,255)" stroke-width="1.874998" fill="none" d="M 0.000000 750.000000 L 48.214294 0.000000 " />
<path stroke-linejoin="round" stroke-linecap="round" stroke="rgb(255,0,0)" stroke-width="3.749996" fill="none" d="M 31.921640 253.441010 L 34.874058 265.250641 " />
<path stroke-linejoin="round" stroke-linecap="round" stroke="rgb(0,0,255)" stroke-width="1.874998" fill="none" d="M 0.000000 750.000000 L 42.553200 0.000000 " />
<path stroke-linejoin="round" stroke-linecap="round" stroke="rgb(255,0,0)" stroke-width="3.749996" fill="none" d="M 28.866850 241.221786 L 31.921640 253.441010 " />
<path stroke-linejoin="round" stroke-linecap="round" stroke="rgb(0,0,255)" stroke-width="1.874998" fill="none" d="M 0.000000 750.000000 L 41.958042 0.000000 " />
<path stroke-linejoin="round" stroke-linecap="round" stroke="rgb(255,0,0)" stroke-width="3.749996" fill="none" d="M 28.536938 239.902145 L 28.866850 241.221786 " />
<path stroke-linejoin="round" stroke-linecap="round" stroke="rgb(0,0,255)" stroke-width="1.874998" fill="none" d="M 0.000000 750.000000 L 39.473690 0.000000 " />
<path stroke-linejoin="round" stroke-linecap="round" stroke="rgb(255,0,0)" stroke-width="3.749996" fill="none" d="M 27.141117 234.318848 L 28.536938 239.902145 " />
<path stroke-linejoin="round" stroke-linecap="round" stroke="rgb(0,0,255)" stroke-width="1.874998" fill="none" d="M 0.000000 750.000000 L 34.313725 0.000000 " />
<path stroke-linejoin="round" stroke-linecap="round" stroke="rgb(255,0,0)" stroke-width="3.749996" fill="none" d="M 24.142094 222.322784 L 27.141117 234.318893 " />
<path stroke-linejoin="round" stroke-linecap="round" stroke="rgb(0,0,255)" stroke-width="1.874998" fill="none" d="M 0.000000 750.000000 L 29.220789 0.000000 " />
<path stroke-linejoin="round" stroke-linecap="round" stroke="rgb(255,0,0)" stroke-width="3.749996" fill="none" d="M 21.041996 209.922348 L 24.142094 222.322784 " />
<path stroke-linejoin="round" stroke-linecap="round" stroke="rgb(0,0,255)" stroke-width="1.874998" fill="none" d="M 0.000000 750.000000 L 28.846151 0.000000 " />
<path stroke-linejoin="round" stroke-linecap="round" stroke="rgb(255,0,0)" stroke-width="3.749996" fill="none" d="M 20.808176 208.987198 L 21.041996 209.922348 " />
<path stroke-linejoin="round" stroke-linecap="round" stroke="rgb(0,0,255)" stroke-width="1.874998" fill="none" d="M 0.000000 750.000000 L 28.124996 0.000000 " />
<path stroke-linejoin="round" stroke-linecap="round" stroke="rgb(255,0,0)" stroke-width="3.749996" fill="none" d="M 20.355843 207.177795 L 20.808176 208.987198 " />
<path stroke-linejoin="round" stroke-linecap="round" stroke="rgb(0,0,255)" stroke-width="1.874998" fill="none" d="M 0.000000 750.000000 L 27.777784 0.000000 " />
<path stroke-linejoin="round" stroke-linecap="round" stroke="rgb(255,0,0)" stroke-width="3.749996" fill="none" d="M 20.136951 206.302292 L 20.355843 207.177795 " />
<path stroke-linejoin="round" stroke-linecap="round" stroke="rgb(0,0,255)" stroke-width="1.874998" fill="none" d="M 0.000000 750.000000 L 27.607351 0.000000 " />
<path stroke-linejoin="round" stroke-linecap="round" stroke="rgb(255,0,0)" stroke-width="3.749996" fill="none" d="M 20.029263 205.871552 L 20.136951 206.302292 " />
<path stroke-linejoin="round" stroke-linecap="round" stroke="rgb(0,0,255)" stroke-width="1.874998" fill="none" d="M 0.000000 750.000000 L 27.272724 0.000000 " />
<path stroke-linejoin="round" stroke-linecap="round" stroke="rgb(255,0,0)" stroke-width="3.749996" fill="none" d="M 19.817322 205.023773 L 20.029263 205.871552 " />
<path stroke-linejoin="round" stroke-linecap="round" stroke="rgb(0,0,255)" stroke-width="1.874998" fill="none" d="M 0.000000 750.000000 L 26.946098 0.000000 " />
<path stroke-linejoin="round" stroke-linecap="round" stroke="rgb(255,0,0)" stroke-width="3.749996" fill="none" d="M 19.609810 204.193665 L 19.817322 205.023773 " />
<path stroke-linejoin="round" stroke-linecap="round" stroke="rgb(0,0,255)" stroke-width="1.874998" fill="none" d="M 0.000000 750.000000 L 25.568180 0.000000 " />
<path stroke-linejoin="round" stroke-linecap="round" stroke="rgb(255,0,0)" stroke-width="3.749996" fill="none" d="M 18.861965 196.715393 L 19.609810 204.193665 " />
<path stroke-linejoin="round" stroke-linecap="round" stroke="rgb(0,0,255)" stroke-width="1.874998" fill="none" d="M 0.000000 750.000000 L 21.186434 0.000000 " />
<path stroke-linejoin="round" stroke-linecap="round" stroke="rgb(255,0,0)" stroke-width="3.749996" fill="none" d="M 15.957668 185.098221 L 18.861965 196.715439 " />
<path stroke-linejoin="round" stroke-linecap="round" stroke="rgb(0,0,255)" stroke-width="1.874998" fill="none" d="M 0.000000 750.000000 L 16.853928 0.000000 " />
<path stroke-linejoin="round" stroke-linecap="round" stroke="rgb(255,0,0)" stroke-width="3.749996" fill="none" d="M 13.151452 164.759979 L 15.957668 185.098221 " />
<path stroke-linejoin="round" stroke-linecap="round" stroke="rgb(0,0,255)" stroke-width="1.874998" fill="none" d="M 0.000000 750.000000 L 16.666666 0.000000 " />
<path stroke-linejoin="round" stroke-linecap="round" stroke="rgb(255,0,0)" stroke-width="3.749996" fill="none" d="M 13.017252 164.223190 L 13.151452 164.759979 " />
<path stroke-linejoin="round" stroke-linecap="round" stroke="rgb(0,0,255)" stroke-width="1.874998" fill="none" d="M 0.000000 750.000000 L 16.483515 0.000000 " />
<path stroke-linejoin="round" stroke-linecap="round" stroke="rgb(255,0,0)" stroke-width="3.749996" fill="none" d="M 12.885779 163.697205 L 13.017252 164.223190 " />
<path stroke-linejoin="round" stroke-linecap="round" stroke="rgb(0,0,255)" stroke-width="1.874998" fill="none" d="M 0.000000 750.000000 L 16.304344 0.000000 " />
<path stroke-linejoin="round" stroke-linecap="round" stroke="rgb(255,0,0)" stroke-width="3.749996" fill="none" d="M 12.756922 163.181702 L 12.885779 163.697205 " />
<path stroke-linejoin="round" stroke-linecap="round" stroke="rgb(0,0,255)" stroke-width="1.874998" fill="none" d="M 0.000000 750.000000 L 12.500010 0.000000 " />
<path stroke-linejoin="round" stroke-linecap="round" stroke="rgb(255,0,0)" stroke-width="3.749996" fill="none" d="M 10.283187 133.009430 L 12.756922 163.181702 " />
<path stroke-linejoin="round" stroke-linecap="round" stroke="rgb(0,0,255)" stroke-width="1.874998" fill="none" d="M 0.000000 750.000000 L 12.362637 0.000000 " />
<path stroke-linejoin="round" stroke-linecap="round" stroke="rgb(255,0,0)" stroke-width="3.749996" fill="none" d="M 10.183432 132.204651 L 10.283187 133.009430 " />
<path stroke-linejoin="round" stroke-linecap="round" stroke="rgb(0,0,255)" stroke-width="1.874998" fill="none" d="M 0.000000 750.000000 L 11.718750 0.000000 " />
<path stroke-linejoin="round" stroke-linecap="round" stroke="rgb(255,0,0)" stroke-width="3.749996" fill="none" d="M 9.742006 126.511017 L 10.183432 132.204651 " />
<path stroke-linejoin="round" stroke-linecap="round" stroke="rgb(0,0,255)" stroke-width="1.874998" fill="none" d="M 0.000000 750.000000 L 7.772014 0.000000 " />
<path stroke-linejoin="round" stroke-linecap="round" stroke="rgb(255,0,0)" stroke-width="3.749996" fill="none" d="M 6.849624 89.011276 L 9.742006 126.510971 " />
<path stroke-linejoin="round" stroke-linecap="round" stroke="rgb(0,0,255)" stroke-width="1.874998" fill="none" d="M 0.000000 750.000000 L 3.865980 0.000000 " />
<path stroke-linejoin="round" stroke-linecap="round" stroke="rgb(255,0,0)" stroke-width="3.749996" fill="none" d="M 3.623240 47.093624 L 6.849624 89.011322 " />
<path stroke-linejoin="round" stroke-linecap="round" stroke="rgb(0,0,255)" stroke-width="1.874998" fill="none" d="M 0.000000 750.000000 L 0.000000 0.000000 " />
<path stroke-linejoin="round" stroke-linecap="round" stroke="rgb(255,0,0)" stroke-width="3.749996" fill="none" d="M 0.000000 0.000000 L 3.623217 47.093666 " />
<circle cx="105.259851" cy="725.520954" r="3.749996" style="fill:rgb(0,127,0);stroke-width:1" /><circle cx="104.783557" cy="720.758066" r="3.749996" style="fill:rgb(0,127,0);stroke-width:1" /><circle cx="104.616791" cy="719.090492" r="3.749996" style="fill:rgb(0,127,0);stroke-width:1" /><circle cx="104.156949" cy="714.491956" r="3.749996" style="fill:rgb(0,127,0);stroke-width:1" /><circle cx="102.811955" cy="701.041929" r="3.749996" style="fill:rgb(0,127,0);stroke-width:1" /><circle cx="102.692552" cy="699.847832" r="3.749996" style="fill:rgb(0,127,0);stroke-width:1" /><circle cx="101.986550" cy="692.788035" r="3.749996" style="fill:rgb(0,127,0);stroke-width:1" /><circle cx="101.219349" cy="685.115799" r="3.749996" style="fill:rgb(0,127,0);stroke-width:1" /><circle cx="98.623954" cy="659.162141" r="3.749996" style="fill:rgb(0,127,0);stroke-width:1" /><circle cx="96.565582" cy="638.578199" r="3.749996" style="fill:rgb(0,127,0);stroke-width:1" /><circle cx="96.077330" cy="633.695863" r="3.749996" style="fill:rgb(0,127,0);stroke-width:1" /><circle cx="95.036253" cy="623.284981" r="3.749996" style="fill:rgb(0,127,0);stroke-width:1" /><circle cx="94.480500" cy="617.727309" r="3.749996" style="fill:rgb(0,127,0);stroke-width:1" /><circle cx="93.290202" cy="605.824247" r="3.749996" style="fill:rgb(0,127,0);stroke-width:1" /><circle cx="90.463221" cy="577.554502" r="3.749996" style="fill:rgb(0,127,0);stroke-width:1" /><circle cx="88.637307" cy="559.295475" r="3.749996" style="fill:rgb(0,127,0);stroke-width:1" /><circle cx="87.924711" cy="552.169416" r="3.749996" style="fill:rgb(0,127,0);stroke-width:1" /><circle cx="86.047523" cy="533.397619" r="3.749996" style="fill:rgb(0,127,0);stroke-width:1" /><circle cx="84.293023" cy="515.852731" r="3.749996" style="fill:rgb(0,127,0);stroke-width:1" /><circle cx="81.171066" cy="484.633069" r="3.749996" style="fill:rgb(0,127,0);stroke-width:1" /><circle cx="79.674236" cy="469.664734" r="3.749996" style="fill:rgb(0,127,0);stroke-width:1" /><circle cx="78.662977" cy="459.552119" r="3.749996" style="fill:rgb(0,127,0);stroke-width:1" /><circle cx="78.223519" cy="455.157537" r="3.749996" style="fill:rgb(0,127,0);stroke-width:1" /><circle cx="76.801859" cy="449.470969" r="3.749996" style="fill:rgb(0,127,0);stroke-width:1" /><circle cx="74.693866" cy="441.039026" r="3.749996" style="fill:rgb(0,127,0);stroke-width:1" /><circle cx="73.370665" cy="427.807074" r="3.749996" style="fill:rgb(0,127,0);stroke-width:1" /><circle cx="71.176372" cy="419.029866" r="3.749996" style="fill:rgb(0,127,0);stroke-width:1" /><circle cx="70.362926" cy="415.776143" r="3.749996" style="fill:rgb(0,127,0);stroke-width:1" /><circle cx="68.010673" cy="406.367183" r="3.749996" style="fill:rgb(0,127,0);stroke-width:1" /><circle cx="65.574892" cy="396.624173" r="3.749996" style="fill:rgb(0,127,0);stroke-width:1" /><circle cx="63.051090" cy="386.528977" r="3.749996" style="fill:rgb(0,127,0);stroke-width:1" /><circle cx="62.300496" cy="383.526564" r="3.749996" style="fill:rgb(0,127,0);stroke-width:1" /><circle cx="59.701860" cy="373.132008" r="3.749996" style="fill:rgb(0,127,0);stroke-width:1" /><circle cx="58.986872" cy="370.272057" r="3.749996" style="fill:rgb(0,127,0);stroke-width:1" /><circle cx="58.244325" cy="362.846605" r="3.749996" style="fill:rgb(0,127,0);stroke-width:1" /><circle cx="56.719266" cy="356.746393" r="3.749996" style="fill:rgb(0,127,0);stroke-width:1" /><circle cx="56.035906" cy="354.012941" r="3.749996" style="fill:rgb(0,127,0);stroke-width:1" /><circle cx="53.262748" cy="342.920347" r="3.749996" style="fill:rgb(0,127,0);stroke-width:1" /><circle cx="52.617140" cy="340.337916" r="3.749996" style="fill:rgb(0,127,0);stroke-width:1" /><circle cx="52.184030" cy="336.006735" r="3.749996" style="fill:rgb(0,127,0);stroke-width:1" /><circle cx="49.535282" cy="325.411806" r="3.749996" style="fill:rgb(0,127,0);stroke-width:1" /><circle cx="49.282551" cy="322.884528" r="3.749996" style="fill:rgb(0,127,0);stroke-width:1" /><circle cx="49.097970" cy="322.146205" r="3.749996" style="fill:rgb(0,127,0);stroke-width:1" /><circle cx="46.372533" cy="311.244456" r="3.749996" style="fill:rgb(0,127,0);stroke-width:1" /><circle cx="45.848541" cy="309.148550" r="3.749996" style="fill:rgb(0,127,0);stroke-width:1" /><circle cx="43.051422" cy="297.960011" r="3.749996" style="fill:rgb(0,127,0);stroke-width:1" /><circle cx="42.562209" cy="296.003122" r="3.749996" style="fill:rgb(0,127,0);stroke-width:1" /><circle cx="41.386463" cy="291.300109" r="3.749996" style="fill:rgb(0,127,0);stroke-width:1" /><circle cx="40.934153" cy="289.490869" r="3.749996" style="fill:rgb(0,127,0);stroke-width:1" /><circle cx="38.148344" cy="278.347693" r="3.749996" style="fill:rgb(0,127,0);stroke-width:1" /><circle cx="35.268120" cy="266.826868" r="3.749996" style="fill:rgb(0,127,0);stroke-width:1" /><circle cx="34.874059" cy="265.250646" r="3.749996" style="fill:rgb(0,127,0);stroke-width:1" /><circle cx="31.921640" cy="253.441013" r="3.749996" style="fill:rgb(0,127,0);stroke-width:1" /><circle cx="28.866850" cy="241.221786" r="3.749996" style="fill:rgb(0,127,0);stroke-width:1" /><circle cx="28.536938" cy="239.902139" r="3.749996" style="fill:rgb(0,127,0);stroke-width:1" /><circle cx="27.141117" cy="234.318852" r="3.749996" style="fill:rgb(0,127,0);stroke-width:1" /><circle cx="24.142094" cy="222.322784" r="3.749996" style="fill:rgb(0,127,0);stroke-width:1" /><circle cx="21.041997" cy="209.922351" r="3.749996" style="fill:rgb(0,127,0);stroke-width:1" /><circle cx="20.808175" cy="208.987199" r="3.749996" style="fill:rgb(0,127,0);stroke-width:1" /><circle cx="20.355843" cy="207.177814" r="3.749996" style="fill:rgb(0,127,0);stroke-width:1" /><circle cx="20.136952" cy="206.302285" r="3.749996" style="fill:rgb(0,127,0);stroke-width:1" /><circle cx="20.029262" cy="205.871545" r="3.749996" style="fill:rgb(0,127,0);stroke-width:1" /><circle cx="19.817322" cy="205.023766" r="3.749996" style="fill:rgb(0,127,0);stroke-width:1" /><circle cx="19.609809" cy="204.193655" r="3.749996" style="fill:rgb(0,127,0);stroke-width:1" /><circle cx="18.861964" cy="196.715411" r="3.749996" style="fill:rgb(0,127,0);stroke-width:1" /><circle cx="15.957668" cy="185.098216" r="3.749996" style="fill:rgb(0,127,0);stroke-width:1" /><circle cx="13.151452" cy="164.759986" r="3.749996" style="fill:rgb(0,127,0);stroke-width:1" /><circle cx="13.017252" cy="164.223187" r="3.749996" style="fill:rgb(0,127,0);stroke-width:1" /><circle cx="12.885779" cy="163.697205" r="3.749996" style="fill:rgb(0,127,0);stroke-width:1" /><circle cx="12.756921" cy="163.181707" r="3.749996" style="fill:rgb(0,127,0);stroke-width:1" /><circle cx="10.283187" cy="133.009426" r="3.749996" style="fill:rgb(0,127,0);stroke-width:1" /><circle cx="10.183431" cy="132.204652" r="3.749996" style="fill:rgb(0,127,0);stroke-width:1" /><circle cx="9.742007" cy="126.511015" r="3.749996" style="fill:rgb(0,127,0);stroke-width:1" /><circle cx="6.849624" cy="89.011274" r="3.749996" style="fill:rgb(0,127,0);stroke-width:1" /><circle cx="3.623217" cy="47.093622" r="3.750008" style="fill:rgb(0,127,0);stroke-width:1" /><circle cx="750.000000" cy="750.000000" r="3.749996" style="fill:rgb(0,127,0);stroke-width:1" /><path stroke-linejoin="round" stroke-linecap="round" stroke="rgb(255,255,255)" stroke-width="3.749996" fill="none" d="M 0.000000 750.000000 L 750.000000 750.000000 M 0.000000 750.000000 L 0.000000 0.000000 " />

</svg>