<svg xmlns="http://www.w3.org/2000/svg" version="1.1" width = "750" height = "750" viewBox = "0 0 750 750"  shape-rendering="crispEdges">
<path stroke-linejoin="round" stroke-linecap="round" stroke="rgb(255,255,0)" stroke-width="3.749996" fill="none" d="M 83.333328 750.000000 L 0.000000 0.000000 " />
<path stroke-linejoin="round" stroke-linecap="round" stroke="rgb(63,63,63)" stroke-width="3.749996" fill="none" d="M 0.000000 0.000000 L 750.000000 750.000000 M 83.333328 750.000000 L 39.215683 0.000000 " />
<path stroke-linejoin="round" stroke-linecap="round" stroke="rgb(191,191,191)" stroke-width="3.749996" fill="none" d="M 0.000000 666.666687 L 83.333328 750.000000 M 0.000000 0.000000 L 44.117645 750.000000 " />
<path stroke-linejoin="round" stroke-linecap="round" stroke="rgb(0,0,255)" stroke-width="1.874998" fill="none" d="M 0.000000 750.000000 L 750.000000 732.954590 " />
<path stroke-linejoin="round" stroke-linecap="round" stroke="rgb(255,0,0)" stroke-width="3.749996" fill="none" d="M 83.222061 748.108582 L 83.333328 750.000000 " />
<path stroke-linejoin="round" stroke-linecap="round" stroke="rgb(0,0,255)" stroke-width="1.874998" fill="none" d="M 0.000000 750.000000 L 750.000000 715.116272 " />
<path stroke-linejoin="round" stroke-linecap="round" stroke="rgb(255,0,0)" stroke-width="3.749996" fill="none" d="M 81.330658 746.217163 L 83.222061 748.108582 " />
<path stroke-linejoin="round" stroke-linecap="round" stroke="rgb(0,0,255)" stroke-width="1.874998" fill="none" d="M 0.000000 750.000000 L 750.000000 535.714294 " />
<path stroke-linejoin="round" stroke-linecap="round" stroke="rgb(255,0,0)" stroke-width="3.749996" fill="none" d="M 80.205200 727.084229 L 81.330658 746.217163 " />
<path stroke-linejoin="round" stroke-linecap="round" stroke="rgb(0,0,255)" stroke-width="1.874998" fill="none" d="M 0.000000 750.000000 L 750.000000 347.560944 " />
<path stroke-linejoin="round" stroke-linecap="round" stroke="rgb(255,0,0)" stroke-width="3.749996" fill="none" d="M 79.057823 707.578735 L 80.205200 727.084229 " />
<path stroke-linejoin="round" stroke-linecap="round" stroke="rgb(0,0,255)" stroke-width="1.874998" fill="none" d="M 0.000000 750.000000 L 750.000000 339.285706 " />
<path stroke-linejoin="round" stroke-linecap="round" stroke="rgb(255,0,0)" stroke-width="3.749996" fill="none" d="M 79.008110 706.733643 L 79.057823 707.578735 " />
<path stroke-linejoin="round" stroke-linecap="round" stroke="rgb(0,0,255)" stroke-width="1.874998" fill="none" d="M 0.000000 750.000000 L 750.000000 281.250000 " />
<path stroke-linejoin="round" stroke-linecap="round" stroke="rgb(255,0,0)" stroke-width="3.749996" fill="none" d="M 78.661232 700.836731 L 79.008110 706.733643 " />
<path stroke-linejoin="round" stroke-linecap="round" stroke="rgb(0,0,255)" stroke-width="1.874998" fill="none" d="M 0.000000 750.000000 L 750.000000 217.105286 " />
<path stroke-linejoin="round" stroke-linecap="round" stroke="rgb(255,0,0)" stroke-width="3.749996" fill="none" d="M 78.281364 694.379028 L 78.661232 700.836731 " />
<path stroke-linejoin="round" stroke-linecap="round" stroke="rgb(0,0,255)" stroke-width="1.874998" fill="none" d="M 0.000000 750.000000 L 750.000000 211.538452 " />
<path stroke-linejoin="round" stroke-linecap="round" stroke="rgb(255,0,0)" stroke-width="3.749996" fill="none" d="M 78.248550 693.821533 L 78.281364 694.379028 " />
<path stroke-linejoin="round" stroke-linecap="round" stroke="rgb(0,0,255)" stroke-width="1.874998" fill="none" d="M 0.000000 750.000000 L 750.000000 173.076920 " />
<path stroke-linejoin="round" stroke-linecap="round" stroke="rgb(255,0,0)" stroke-width="3.749996" fill="none" d="M 78.022736 689.982544 L 78.248550 693.821533 " />
<path stroke-linejoin="round" stroke-linecap="round" stroke="rgb(0,0,255)" stroke-width="1.874998" fill="none" d="M 0.000000 750.000000 L 750.000000 64.285713 " />
<path stroke-linejoin="round" stroke-linecap="round" stroke="rgb(255,0,0)" stroke-width="3.749996" fill="none" d="M 77.390984 679.242493 L 78.022736 689.982544 " />
<path stroke-linejoin="round" stroke-linecap="round" stroke="rgb(0,0,255)" stroke-width="1.874998" fill="none" d="M 0.000000 750.000000 L 648.648682 0.000000 " />
<path stroke-linejoin="round" stroke-linecap="round" stroke="rgb(255,0,0)" stroke-width="3.749996" fill="none" d="M 76.359604 661.709167 L 77.390984 679.242493 " />
<path stroke-linejoin="round" stroke-linecap="round" stroke="rgb(0,0,255)" stroke-width="1.874998" fill="none" d="M 0.000000 750.000000 L 538.461487 0.000000 " />
<path stroke-linejoin="round" stroke-linecap="round" stroke="rgb(255,0,0)" stroke-width="3.749996" fill="none" d="M 75.377312 645.010193 L 76.359604 661.709167 " />
<path stroke-linejoin="round" stroke-linecap="round" stroke="rgb(0,0,255)" stroke-width="1.874998" fill="none" d="M 0.000000 750.000000 L 413.265289 0.000000 " />
<path stroke-linejoin="round" stroke-linecap="round" stroke="rgb(255,0,0)" stroke-width="3.749996" fill="none" d="M 73.686829 616.272034 L 75.377312 645.010193 " />
<path stroke-linejoin="round" stroke-linecap="round" stroke="rgb(0,0,255)" stroke-width="1.874998" fill="none" d="M 0.000000 750.000000 L 403.846161 0.000000 " />
<path stroke-linejoin="round" stroke-linecap="round" stroke="rgb(255,0,0)" stroke-width="3.749996" fill="none" d="M 73.521431 613.460205 L 73.686829 616.272034 " />
<path stroke-linejoin="round" stroke-linecap="round" stroke="rgb(0,0,255)" stroke-width="1.874998" fill="none" d="M 0.000000 750.000000 L 355.932190 0.000000 " />
<path stroke-linejoin="round" stroke-linecap="round" stroke="rgb(255,0,0)" stroke-width="3.749996" fill="none" d="M 72.559479 597.106873 L 73.521431 613.460205 " />
<path stroke-linejoin="round" stroke-linecap="round" stroke="rgb(0,0,255)" stroke-width="1.874998" fill="none" d="M 0.000000 750.000000 L 337.500000 0.000000 " />
<path stroke-linejoin="round" stroke-linecap="round" stroke="rgb(255,0,0)" stroke-width="3.749996" fill="none" d="M 72.125069 589.722107 L 72.559479 597.106873 " />
<path stroke-linejoin="round" stroke-linecap="round" stroke="rgb(0,0,255)" stroke-width="1.874998" fill="none" d="M 0.000000 750.000000 L 302.419342 0.000000 " />
<path stroke-linejoin="round" stroke-linecap="round" stroke="rgb(255,0,0)" stroke-width="3.749996" fill="none" d="M 71.170647 573.496765 L 72.125069 589.722107 " />
<path stroke-linejoin="round" stroke-linecap="round" stroke="rgb(0,0,255)" stroke-width="1.874998" fill="none" d="M 0.000000 750.000000 L 294.642883 0.000000 " />
<path stroke-linejoin="round" stroke-linecap="round" stroke="rgb(255,0,0)" stroke-width="3.749996" fill="none" d="M 69.856728 572.182861 L 71.170647 573.496765 " />
<path stroke-linejoin="round" stroke-linecap="round" stroke="rgb(0,0,255)" stroke-width="1.874998" fill="none" d="M 0.000000 750.000000 L 253.846161 0.000000 " />
<path stroke-linejoin="round" stroke-linecap="round" stroke="rgb(255,0,0)" stroke-width="3.749996" fill="none" d="M 68.424583 547.836426 L 69.856728 572.182861 " />
<path stroke-linejoin="round" stroke-linecap="round" stroke="rgb(0,0,255)" stroke-width="1.874998" fill="none" d="M 0.000000 750.000000 L 210.000000 0.000000 " />
<path stroke-linejoin="round" stroke-linecap="round" stroke="rgb(255,0,0)" stroke-width="3.749996" fill="none" d="M 66.372711 512.954590 L 68.424606 547.836426 " />
<path stroke-linejoin="round" stroke-linecap="round" stroke="rgb(0,0,255)" stroke-width="1.874998" fill="none" d="M 0.000000 750.000000 L 194.117661 0.000000 " />
<path stroke-linejoin="round" stroke-linecap="round" stroke="rgb(255,0,0)" stroke-width="3.749996" fill="none" d="M 65.443130 497.151550 L 66.372711 512.954590 " />
<path stroke-linejoin="round" stroke-linecap="round" stroke="rgb(0,0,255)" stroke-width="1.874998" fill="none" d="M 0.000000 750.000000 L 183.139526 0.000000 " />
<path stroke-linejoin="round" stroke-linecap="round" stroke="rgb(255,0,0)" stroke-width="3.749996" fill="none" d="M 64.724655 484.937164 L 65.443130 497.151550 " />
<path stroke-linejoin="round" stroke-linecap="round" stroke="rgb(0,0,255)" stroke-width="1.874998" fill="none" d="M 0.000000 750.000000 L 155.172409 0.000000 " />
<path stroke-linejoin="round" stroke-linecap="round" stroke="rgb(255,0,0)" stroke-width="3.749996" fill="none" d="M 62.536552 447.739929 L 64.724655 484.937164 " />
<path stroke-linejoin="round" stroke-linecap="round" stroke="rgb(0,0,255)" stroke-width="1.874998" fill="none" d="M 0.000000 750.000000 L 144.886353 0.000000 " />
<path stroke-linejoin="round" stroke-linecap="round" stroke="rgb(255,0,0)" stroke-width="3.749996" fill="none" d="M 59.062309 444.265686 L 62.536552 447.739929 " />
<path stroke-linejoin="round" stroke-linecap="round" stroke="rgb(0,0,255)" stroke-width="1.874998" fill="none" d="M 0.000000 750.000000 L 134.831467 0.000000 " />
<path stroke-linejoin="round" stroke-linecap="round" stroke="rgb(255,0,0)" stroke-width="3.749996" fill="none" d="M 55.588066 440.791412 L 59.062309 444.265686 " />
<path stroke-linejoin="round" stroke-linecap="round" stroke="rgb(0,0,255)" stroke-width="1.874998" fill="none" d="M 0.000000 750.000000 L 131.868118 0.000000 " />
<path stroke-linejoin="round" stroke-linecap="round" stroke="rgb(255,0,0)" stroke-width="3.749996" fill="none" d="M 54.549023 439.752411 L 55.588066 440.791412 " />
<path stroke-linejoin="round" stroke-linecap="round" stroke="rgb(0,0,255)" stroke-width="1.874998" fill="none" d="M 0.000000 750.000000 L 129.032272 0.000000 " />
<path stroke-linejoin="round" stroke-linecap="round" stroke="rgb(255,0,0)" stroke-width="3.749996" fill="none" d="M 53.548134 438.751465 L 54.549023 439.752411 " />
<path stroke-linejoin="round" stroke-linecap="round" stroke="rgb(0,0,255)" stroke-width="1.874998" fill="none" d="M 0.000000 750.000000 L 126.237633 0.000000 " />
<path stroke-linejoin="round" stroke-linecap="round" stroke="rgb(255,0,0)" stroke-width="3.749996" fill="none" d="M 53.247772 433.645569 L 53.548134 438.751465 " />
<path stroke-linejoin="round" stroke-linecap="round" stroke="rgb(0,0,255)" stroke-width="1.874998" fill="none" d="M 0.000000 750.000000 L 123.786407 0.000000 " />
<path stroke-linejoin="round" stroke-linecap="round" stroke="rgb(255,0,0)" stroke-width="3.749996" fill="none" d="M 52.976109 429.027100 L 53.247772 433.645599 " />
<path stroke-linejoin="round" stroke-linecap="round" stroke="rgb(0,0,255)" stroke-width="1.874998" fill="none" d="M 0.000000 750.000000 L 121.428566 0.000000 " />
<path stroke-linejoin="round" stroke-linecap="round" stroke="rgb(255,0,0)" stroke-width="3.749996" fill="none" d="M 52.707195 424.455597 L 52.976109 429.027100 " />
<path stroke-linejoin="round" stroke-linecap="round" stroke="rgb(0,0,255)" stroke-width="1.874998" fill="none" d="M 0.000000 750.000000 L 107.142853 0.000000 " />
<path stroke-linejoin="round" stroke-linecap="round" stroke="rgb(255,0,0)" stroke-width="3.749996" fill="none" d="M 50.898605 393.709808 L 52.707172 424.455627 " />
<path stroke-linejoin="round" stroke-linecap="round" stroke="rgb(0,0,255)" stroke-width="1.874998" fill="none" d="M 0.000000 750.000000 L 99.056618 0.000000 " />
<path stroke-linejoin="round" stroke-linecap="round" stroke="rgb(255,0,0)" stroke-width="3.749996" fill="none" d="M 47.505363 390.316528 L 50.898605 393.709808 " />
<path stroke-linejoin="round" stroke-linecap="round" stroke="rgb(0,0,255)" stroke-width="1.874998" fill="none" d="M 0.000000 750.000000 L 91.121506 0.000000 " />
<path stroke-linejoin="round" stroke-linecap="round" stroke="rgb(255,0,0)" stroke-width="3.749996" fill="none" d="M 44.112125 386.923279 L 47.505363 390.316498 " />
<path stroke-linejoin="round" stroke-linecap="round" stroke="rgb(0,0,255)" stroke-width="1.874998" fill="none" d="M 0.000000 750.000000 L 83.333328 0.000000 " />
<path stroke-linejoin="round" stroke-linecap="round" stroke="rgb(255,0,0)" stroke-width="3.749996" fill="none" d="M 40.718884 383.529999 L 44.112125 386.923279 " />
<path stroke-linejoin="round" stroke-linecap="round" stroke="rgb(0,0,255)" stroke-width="1.874998" fill="none" d="M 0.000000 750.000000 L 81.818169 0.000000 " />
<path stroke-linejoin="round" stroke-linecap="round" stroke="rgb(255,0,0)" stroke-width="3.749996" fill="none" d="M 40.051373 382.862549 L 40.718884 383.529999 " />
<path stroke-linejoin="round" stroke-linecap="round" stroke="rgb(0,0,255)" stroke-width="1.874998" fill="none" d="M 0.000000 750.000000 L 80.357147 0.000000 " />
<path stroke-linejoin="round" stroke-linecap="round" stroke="rgb(255,0,0)" stroke-width="3.749996" fill="none" d="M 39.405361 382.216522 L 40.051373 382.862549 " />
<path stroke-linejoin="round" stroke-linecap="round" stroke="rgb(0,0,255)" stroke-width="1.874998" fill="none" d="M 0.000000 750.000000 L 78.947380 0.000000 " />
<path stroke-linejoin="round" stroke-linecap="round" stroke="rgb(255,0,0)" stroke-width="3.749996" fill="none" d="M 38.779892 381.591034 L 39.405361 382.216522 " />
<path stroke-linejoin="round" stroke-linecap="round" stroke="rgb(0,0,255)" stroke-width="1.874998" fill="none" d="M 0.000000 750.000000 L 77.830193 0.000000 " />
<path stroke-linejoin="round" stroke-linecap="round" stroke="rgb(255,0,0)" stroke-width="3.749996" fill="none" d="M 38.282722 381.093842 L 38.779892 381.591034 " />
<path stroke-linejoin="round" stroke-linecap="round" stroke="rgb(0,0,255)" stroke-width="1.874998" fill="none" d="M 0.000000 750.000000 L 64.655159 0.000000 " />
<path stroke-linejoin="round" stroke-linecap="round" stroke="rgb(255,0,0)" stroke-width="3.749996" fill="none" d="M 35.654270 336.410400 L 38.282722 381.093842 " />
<path stroke-linejoin="round" stroke-linecap="round" stroke="rgb(0,0,255)" stroke-width="1.874998" fill="none" d="M 0.000000 750.000000 L 57.692303 0.000000 " />
<path stroke-linejoin="round" stroke-linecap="round" stroke="rgb(255,0,0)" stroke-width="3.749996" fill="none" d="M 32.088852 332.844971 L 35.654270 336.410400 " />
<path stroke-linejoin="round" stroke-linecap="round" stroke="rgb(0,0,255)" stroke-width="1.874998" fill="none" d="M 0.000000 750.000000 L 50.847462 0.000000 " />
<path stroke-linejoin="round" stroke-linecap="round" stroke="rgb(255,0,0)" stroke-width="3.749996" fill="none" d="M 28.523415 329.279541 L 32.088852 332.844971 " />
<path stroke-linejoin="round" stroke-linecap="round" stroke="rgb(0,0,255)" stroke-width="1.874998" fill="none" d="M 0.000000 750.000000 L 49.999996 0.000000 " />
<path stroke-linejoin="round" stroke-linecap="round" stroke="rgb(255,0,0)" stroke-width="3.749996" fill="none" d="M 28.077744 328.833893 L 28.523415 329.279541 " />
<path stroke-linejoin="round" stroke-linecap="round" stroke="rgb(0,0,255)" stroke-width="1.874998" fill="none" d="M 0.000000 750.000000 L 49.180313 0.000000 " />
<path stroke-linejoin="round" stroke-linecap="round" stroke="rgb(255,0,0)" stroke-width="3.749996" fill="none" d="M 27.645775 328.401947 L 28.077744 328.833893 " />
<path stroke-linejoin="round" stroke-linecap="round" stroke="rgb(0,0,255)" stroke-width="1.874998" fill="none" d="M 0.000000 750.000000 L 46.511627 0.000000 " />
<path stroke-linejoin="round" stroke-linecap="round" stroke="rgb(255,0,0)" stroke-width="3.749996" fill="none" d="M 26.233212 326.989380 L 27.645775 328.401947 " />
<path stroke-linejoin="round" stroke-linecap="round" stroke="rgb(0,0,255)" stroke-width="1.874998" fill="none" d="M 0.000000 750.000000 L 45.801537 0.000000 " />
<path stroke-linejoin="round" stroke-linecap="round" stroke="rgb(255,0,0)" stroke-width="3.749996" fill="none" d="M 25.855757 326.611908 L 26.233212 326.989319 " />
<path stroke-linejoin="round" stroke-linecap="round" stroke="rgb(0,0,255)" stroke-width="1.874998" fill="none" d="M 0.000000 750.000000 L 43.478249 0.000000 " />
<path stroke-linejoin="round" stroke-linecap="round" stroke="rgb(255,0,0)" stroke-width="3.749996" fill="none" d="M 25.195219 315.382568 L 25.855757 326.611908 " />
<path stroke-linejoin="round" stroke-linecap="round" stroke="rgb(0,0,255)" stroke-width="1.874998" fill="none" d="M 0.000000 750.000000 L 40.384613 0.000000 " />
<path stroke-linejoin="round" stroke-linecap="round" stroke="rgb(255,0,0)" stroke-width="3.749996" fill="none" d="M 23.494072 313.681488 L 25.195219 315.382568 " />
<path stroke-linejoin="round" stroke-linecap="round" stroke="rgb(0,0,255)" stroke-width="1.874998" fill="none" d="M 0.000000 750.000000 L 34.351139 0.000000 " />
<path stroke-linejoin="round" stroke-linecap="round" stroke="rgb(255,0,0)" stroke-width="3.749996" fill="none" d="M 20.137779 310.325134 L 23.494072 313.681488 " />
<path stroke-linejoin="round" stroke-linecap="round" stroke="rgb(0,0,255)" stroke-width="1.874998" fill="none" d="M 0.000000 750.000000 L 31.690144 0.000000 " />
<path stroke-linejoin="round" stroke-linecap="round" stroke="rgb(255,0,0)" stroke-width="3.749996" fill="none" d="M 19.229919 294.891724 L 20.137779 310.325226 " />
<path stroke-linejoin="round" stroke-linecap="round" stroke="rgb(0,0,255)" stroke-width="1.874998" fill="none" d="M 0.000000 750.000000 L 26.223778 0.000000 " />
<path stroke-linejoin="round" stroke-linecap="round" stroke="rgb(255,0,0)" stroke-width="3.749996" fill="none" d="M 16.447372 279.605225 L 19.229919 294.891724 " />
<path stroke-linejoin="round" stroke-linecap="round" stroke="rgb(0,0,255)" stroke-width="1.874998" fill="none" d="M 0.000000 750.000000 L 20.833344 0.000000 " />
<path stroke-linejoin="round" stroke-linecap="round" stroke="rgb(255,0,0)" stroke-width="3.749996" fill="none" d="M 14.150932 240.566101 L 16.447372 279.605225 " />
<path stroke-linejoin="round" stroke-linecap="round" stroke="rgb(0,0,255)" stroke-width="1.874998" fill="none" d="M 0.000000 750.000000 L 20.547956 0.000000 " />
<path stroke-linejoin="round" stroke-linecap="round" stroke="rgb(255,0,0)" stroke-width="3.749996" fill="none" d="M 14.018700 238.317764 L 14.150932 240.566101 " />
<path stroke-linejoin="round" stroke-linecap="round" stroke="rgb(0,0,255)" stroke-width="1.874998" fill="none" d="M 0.000000 750.000000 L 20.270281 0.000000 " />
<path stroke-linejoin="round" stroke-linecap="round" stroke="rgb(255,0,0)" stroke-width="3.749996" fill="none" d="M 13.888881 236.111084 L 14.018700 238.317764 " />
<path stroke-linejoin="round" stroke-linecap="round" stroke="rgb(0,0,255)" stroke-width="1.874998" fill="none" d="M 0.000000 750.000000 L 19.108280 0.000000 " />
<path stroke-linejoin="round" stroke-linecap="round" stroke="rgb(255,0,0)" stroke-width="3.749996" fill="none" d="M 13.333328 226.666641 L 13.888881 236.111053 " />
<path stroke-linejoin="round" stroke-linecap="round" stroke="rgb(0,0,255)" stroke-width="1.874998" fill="none" d="M 0.000000 750.000000 L 18.404917 0.000000 " />
<path stroke-linejoin="round" stroke-linecap="round" stroke="rgb(255,0,0)" stroke-width="3.749996" fill="none" d="M 12.987010 220.779190 L 13.333328 226.666641 " />
<path stroke-linejoin="round" stroke-linecap="round" stroke="rgb(0,0,255)" stroke-width="1.874998" fill="none" d="M 0.000000 750.000000 L 15.100680 0.000000 " />
<path stroke-linejoin="round" stroke-linecap="round" stroke="rgb(255,0,0)" stroke-width="3.749996" fill="none" d="M 11.249990 191.249954 L 12.987010 220.779144 " />
<path stroke-linejoin="round" stroke-linecap="round" stroke="rgb(0,0,255)" stroke-width="1.874998" fill="none" d="M 0.000000 750.000000 L 9.999990 0.000000 " />
<path stroke-linejoin="round" stroke-linecap="round" stroke="rgb(255,0,0)" stroke-width="3.749996" fill="none" d="M 8.152172 138.586929 L 11.249990 191.249954 " />
<path stroke-linejoin="round" stroke-linecap="round" stroke="rgb(0,0,255)" stroke-width="1.874998" fill="none" d="M 0.000000 750.000000 L 4.966892 0.000000 " />
<path stroke-linejoin="round" stroke-linecap="round" stroke="rgb(255,0,0)" stroke-width="3.749996" fill="none" d="M 4.464291 75.892838 L 8.152172 138.586929 " />
<path stroke-linejoin="round" stroke-linecap="round" stroke="rgb(0,0,255)" stroke-width="1.874998" fill="none" d="M 0.000000 750.000000 L 0.000000 0.000000 " />
<path stroke-linejoin="round" stroke-linecap="round" stroke="rgb(255,0,0)" stroke-width="3.749996" fill="none" d="M 0.000000 0.000000 L 4.464291 75.892838 " />
<circle cx="83.222061" cy="748.108596" r="3.749996" style="fill:rgb(0,127,0);stroke-width:1" /><circle cx="81.330657" cy="746.217169" r="3.749996" style="fill:rgb(0,127,0);stroke-width:1" /><circle cx="80.205202" cy="727.084234" r="3.749996" style="fill:rgb(0,127,0);stroke-width:1" /><circle cx="79.057820" cy="707.578741" r="3.749996" style="fill:rgb(0,127,0);stroke-width:1" /><circle cx="79.008110" cy="706.733666" r="3.749996" style="fill:rgb(0,127,0);stroke-width:1" /><circle cx="78.661233" cy="700.836740" r="3.749996" style="fill:rgb(0,127,0);stroke-width:1" /><circle cx="78.281365" cy="694.379032" r="3.749996" style="fill:rgb(0,127,0);stroke-width:1" /><circle cx="78.248553" cy="693.821535" r="3.749996" style="fill:rgb(0,127,0);stroke-width:1" /><circle cx="78.022733" cy="689.982511" r="3.749996" style="fill:rgb(0,127,0);stroke-width:1" /><circle cx="77.390984" cy="679.242522" r="3.749996" style="fill:rgb(0,127,0);stroke-width:1" /><circle cx="76.359607" cy="661.709212" r="3.749996" style="fill:rgb(0,127,0);stroke-width:1" /><circle cx="75.377315" cy="645.010181" r="3.749996" style="fill:rgb(0,127,0);stroke-width:1" /><circle cx="73.686831" cy="616.272055" r="3.749996" style="fill:rgb(0,127,0);stroke-width:1" /><circle cx="73.521428" cy="613.460205" r="3.749996" style="fill:rgb(0,127,0);stroke-width:1" /><circle cx="72.559476" cy="597.106844" r="3.749996" style="fill:rgb(0,127,0);stroke-width:1" /><circle cx="72.125070" cy="589.722075" r="3.749996" style="fill:rgb(0,127,0);stroke-width:1" /><circle cx="71.170650" cy="573.496789" r="3.749996" style="fill:rgb(0,127,0);stroke-width:1" /><circle cx="69.856726" cy="572.182864" r="3.749996" style="fill:rgb(0,127,0);stroke-width:1" /><circle cx="68.424582" cy="547.836419" r="3.749996" style="fill:rgb(0,127,0);stroke-width:1" /><circle cx="66.372715" cy="512.954570" r="3.749996" style="fill:rgb(0,127,0);stroke-width:1" /><circle cx="65.443128" cy="497.151531" r="3.749996" style="fill:rgb(0,127,0);stroke-width:1" /><circle cx="64.724654" cy="484.937176" r="3.749996" style="fill:rgb(0,127,0);stroke-width:1" /><circle cx="62.536553" cy="447.739938" r="3.749996" style="fill:rgb(0,127,0);stroke-width:1" /><circle cx="59.062310" cy="444.265662" r="3.749996" style="fill:rgb(0,127,0);stroke-width:1" /><circle cx="55.588067" cy="440.791430" r="3.749996" style="fill:rgb(0,127,0);stroke-width:1" /><circle cx="54.549024" cy="439.752398" r="3.749996" style="fill:rgb(0,127,0);stroke-width:1" /><circle cx="53.548135" cy="438.751481" r="3.749996" style="fill:rgb(0,127,0);stroke-width:1" /><circle cx="53.247772" cy="433.645545" r="3.749996" style="fill:rgb(0,127,0);stroke-width:1" /><circle cx="52.976109" cy="429.027122" r="3.749996" style="fill:rgb(0,127,0);stroke-width:1" /><circle cx="52.707195" cy="424.455604" r="3.749996" style="fill:rgb(0,127,0);stroke-width:1" /><circle cx="50.898604" cy="393.709778" r="3.749996" style="fill:rgb(0,127,0);stroke-width:1" /><circle cx="47.505364" cy="390.316525" r="3.749996" style="fill:rgb(0,127,0);stroke-width:1" /><circle cx="44.112124" cy="386.923274" r="3.749996" style="fill:rgb(0,127,0);stroke-width:1" /><circle cx="40.718883" cy="383.530020" r="3.749996" style="fill:rgb(0,127,0);stroke-width:1" /><circle cx="40.051371" cy="382.862528" r="3.749996" style="fill:rgb(0,127,0);stroke-width:1" /><circle cx="39.405361" cy="382.216533" r="3.749996" style="fill:rgb(0,127,0);stroke-width:1" /><circle cx="38.779892" cy="381.591042" r="3.749996" style="fill:rgb(0,127,0);stroke-width:1" /><circle cx="38.282722" cy="381.093859" r="3.749996" style="fill:rgb(0,127,0);stroke-width:1" /><circle cx="35.654269" cy="336.410402" r="3.749996" style="fill:rgb(0,127,0);stroke-width:1" /><circle cx="32.088853" cy="332.844973" r="3.749996" style="fill:rgb(0,127,0);stroke-width:1" /><circle cx="28.523415" cy="329.279543" r="3.749996" style="fill:rgb(0,127,0);stroke-width:1" /><circle cx="28.077744" cy="328.833897" r="3.749996" style="fill:rgb(0,127,0);stroke-width:1" /><circle cx="27.645774" cy="328.401963" r="3.749996" style="fill:rgb(0,127,0);stroke-width:1" /><circle cx="26.233211" cy="326.989375" r="3.749996" style="fill:rgb(0,127,0);stroke-width:1" /><circle cx="25.855757" cy="326.611916" r="3.749996" style="fill:rgb(0,127,0);stroke-width:1" /><circle cx="25.195219" cy="315.382563" r="3.749996" style="fill:rgb(0,127,0);stroke-width:1" /><circle cx="23.494072" cy="313.681483" r="3.749996" style="fill:rgb(0,127,0);stroke-width:1" /><circle cx="20.137779" cy="310.325146" r="3.749996" style="fill:rgb(0,127,0);stroke-width:1" /><circle cx="19.229919" cy="294.891715" r="3.749996" style="fill:rgb(0,127,0);stroke-width:1" /><circle cx="16.447373" cy="279.605225" r="3.749996" style="fill:rgb(0,127,0);stroke-width:1" /><circle cx="14.150932" cy="240.566097" r="3.749996" style="fill:rgb(0,127,0);stroke-width:1" /><circle cx="14.018700" cy="238.317769" r="3.749996" style="fill:rgb(0,127,0);stroke-width:1" /><circle cx="13.888881" cy="236.111082" r="3.749996" style="fill:rgb(0,127,0);stroke-width:1" /><circle cx="13.333328" cy="226.666644" r="3.749996" style="fill:rgb(0,127,0);stroke-width:1" /><circle cx="12.987010" cy="220.779184" r="3.749996" style="fill:rgb(0,127,0);stroke-width:1" /><circle cx="11.249989" cy="191.249952" r="3.749996" style="fill:rgb(0,127,0);stroke-width:1" /><circle cx="8.152172" cy="138.586923" r="3.749996" style="fill:rgb(0,127,0);stroke-width:1" /><circle cx="4.464291" cy="75.892836" r="3.749996" style="fill:rgb(0,127,0);stroke-width:1" /><circle cx="750.000000" cy="750.000000" r="3.749996" style="fill:rgb(0,127,0);stroke-width:1" /><path stroke-linejoin="round" stroke-linecap="round" stroke="rgb(255,255,255)" stroke-width="3.749996" fill="none" d="M 0.000000 750.000000 L 750.000000 750.000000 M 0.000000 750.000000 L 0.000000 0.000000 " />

</svg>