<svg xmlns="http://www.w3.org/2000/svg" version="1.1" width = "750" height = "750" viewBox = "0 0 750 750"  shape-rendering="crispEdges">
<path stroke-linejoin="round" stroke-linecap="round" stroke="rgb(255,255,0)" stroke-width="3.749996" fill="none" d="M 124.999992 750.000000 L 0.000000 0.000000 " />
<path stroke-linejoin="round" stroke-linecap="round" stroke="rgb(63,63,63)" stroke-width="3.749996" fill="none" d="M 0.000000 0.000000 L 750.000000 750.000000 M 124.999992 750.000000 L 56.818172 0.000000 " />
<path stroke-linejoin="round" stroke-linecap="round" stroke="rgb(191,191,191)" stroke-width="3.749996" fill="none" d="M 0.000000 625.000000 L 124.999992 750.000000 M 0.000000 0.000000 L 68.181824 750.000000 " />
<path stroke-linejoin="round" stroke-linecap="round" stroke="rgb(0,0,255)" stroke-width="1.874998" fill="none" d="M 0.000000 750.000000 L 750.000000 732.954590 " />
<path stroke-linejoin="round" stroke-linecap="round" stroke="rgb(255,0,0)" stroke-width="3.749996" fill="none" d="M 124.742256 747.164978 L 124.999992 750.000000 " />
<path stroke-linejoin="round" stroke-linecap="round" stroke="rgb(0,0,255)" stroke-width="1.874998" fill="none" d="M 0.000000 750.000000 L 750.000000 715.116272 " />
<path stroke-linejoin="round" stroke-linecap="round" stroke="rgb(255,0,0)" stroke-width="3.749996" fill="none" d="M 121.907204 744.329895 L 124.742279 747.164978 " />
<path stroke-linejoin="round" stroke-linecap="round" stroke="rgb(0,0,255)" stroke-width="1.874998" fill="none" d="M 0.000000 750.000000 L 750.000000 535.714294 " />
<path stroke-linejoin="round" stroke-linecap="round" stroke="rgb(255,0,0)" stroke-width="3.749996" fill="none" d="M 119.323364 715.907593 L 121.907204 744.329895 " />
<path stroke-linejoin="round" stroke-linecap="round" stroke="rgb(0,0,255)" stroke-width="1.874998" fill="none" d="M 0.000000 750.000000 L 750.000000 347.560944 " />
<path stroke-linejoin="round" stroke-linecap="round" stroke="rgb(255,0,0)" stroke-width="3.749996" fill="none" d="M 116.728622 687.365173 L 119.323364 715.907593 " />
<path stroke-linejoin="round" stroke-linecap="round" stroke="rgb(0,0,255)" stroke-width="1.874998" fill="none" d="M 0.000000 750.000000 L 750.000000 339.285706 " />
<path stroke-linejoin="round" stroke-linecap="round" stroke="rgb(255,0,0)" stroke-width="3.749996" fill="none" d="M 116.617081 686.138245 L 116.728622 687.365173 " />
<path stroke-linejoin="round" stroke-linecap="round" stroke="rgb(0,0,255)" stroke-width="1.874998" fill="none" d="M 0.000000 750.000000 L 750.000000 281.250000 " />
<path stroke-linejoin="round" stroke-linecap="round" stroke="rgb(255,0,0)" stroke-width="3.749996" fill="none" d="M 115.840828 677.599487 L 116.617081 686.138245 " />
<path stroke-linejoin="round" stroke-linecap="round" stroke="rgb(0,0,255)" stroke-width="1.874998" fill="none" d="M 0.000000 750.000000 L 750.000000 217.105286 " />
<path stroke-linejoin="round" stroke-linecap="round" stroke="rgb(255,0,0)" stroke-width="3.749996" fill="none" d="M 114.994820 668.293152 L 115.840828 677.599487 " />
<path stroke-linejoin="round" stroke-linecap="round" stroke="rgb(0,0,255)" stroke-width="1.874998" fill="none" d="M 0.000000 750.000000 L 750.000000 211.538452 " />
<path stroke-linejoin="round" stroke-linecap="round" stroke="rgb(255,0,0)" stroke-width="3.749996" fill="none" d="M 114.921974 667.491943 L 114.994820 668.293152 " />
<path stroke-linejoin="round" stroke-linecap="round" stroke="rgb(0,0,255)" stroke-width="1.874998" fill="none" d="M 0.000000 750.000000 L 750.000000 173.076920 " />
<path stroke-linejoin="round" stroke-linecap="round" stroke="rgb(255,0,0)" stroke-width="3.749996" fill="none" d="M 114.421227 661.983643 L 114.921974 667.491943 " />
<path stroke-linejoin="round" stroke-linecap="round" stroke="rgb(0,0,255)" stroke-width="1.874998" fill="none" d="M 0.000000 750.000000 L 750.000000 64.285713 " />
<path stroke-linejoin="round" stroke-linecap="round" stroke="rgb(255,0,0)" stroke-width="3.749996" fill="none" d="M 113.028152 646.659912 L 114.421227 661.983643 " />
<path stroke-linejoin="round" stroke-linecap="round" stroke="rgb(0,0,255)" stroke-width="1.874998" fill="none" d="M 0.000000 750.000000 L 648.648682 0.000000 " />
<path stroke-linejoin="round" stroke-linecap="round" stroke="rgb(255,0,0)" stroke-width="3.749996" fill="none" d="M 110.778381 621.912476 L 113.028152 646.659912 " />
<path stroke-linejoin="round" stroke-linecap="round" stroke="rgb(0,0,255)" stroke-width="1.874998" fill="none" d="M 0.000000 750.000000 L 538.461487 0.000000 " />
<path stroke-linejoin="round" stroke-linecap="round" stroke="rgb(255,0,0)" stroke-width="3.749996" fill="none" d="M 108.663376 598.647400 L 110.778381 621.912476 " />
<path stroke-linejoin="round" stroke-linecap="round" stroke="rgb(0,0,255)" stroke-width="1.874998" fill="none" d="M 0.000000 750.000000 L 413.265289 0.000000 " />
<path stroke-linejoin="round" stroke-linecap="round" stroke="rgb(255,0,0)" stroke-width="3.749996" fill="none" d="M 105.085396 559.289490 L 108.663376 598.647400 " />
<path stroke-linejoin="round" stroke-linecap="round" stroke="rgb(0,0,255)" stroke-width="1.874998" fill="none" d="M 0.000000 750.000000 L 403.846161 0.000000 " />
<path stroke-linejoin="round" stroke-linecap="round" stroke="rgb(255,0,0)" stroke-width="3.749996" fill="none" d="M 104.739433 555.483887 L 105.085396 559.289490 " />
<path stroke-linejoin="round" stroke-linecap="round" stroke="rgb(0,0,255)" stroke-width="1.874998" fill="none" d="M 0.000000 750.000000 L 355.932190 0.000000 " />
<path stroke-linejoin="round" stroke-linecap="round" stroke="rgb(255,0,0)" stroke-width="3.749996" fill="none" d="M 102.741684 533.508606 L 104.739433 555.483887 " />
<path stroke-linejoin="round" stroke-linecap="round" stroke="rgb(0,0,255)" stroke-width="1.874998" fill="none" d="M 0.000000 750.000000 L 337.500000 0.000000 " />
<path stroke-linejoin="round" stroke-linecap="round" stroke="rgb(255,0,0)" stroke-width="3.749996" fill="none" d="M 101.847481 523.672241 L 102.741684 533.508606 " />
<path stroke-linejoin="round" stroke-linecap="round" stroke="rgb(0,0,255)" stroke-width="1.874998" fill="none" d="M 0.000000 750.000000 L 302.419342 0.000000 " />
<path stroke-linejoin="round" stroke-linecap="round" stroke="rgb(255,0,0)" stroke-width="3.749996" fill="none" d="M 99.899857 502.248383 L 101.847481 523.672241 " />
<path stroke-linejoin="round" stroke-linecap="round" stroke="rgb(0,0,255)" stroke-width="1.874998" fill="none" d="M 0.000000 750.000000 L 294.642883 0.000000 " />
<path stroke-linejoin="round" stroke-linecap="round" stroke="rgb(255,0,0)" stroke-width="3.749996" fill="none" d="M 98.055550 500.404053 L 99.899857 502.248383 " />
<path stroke-linejoin="round" stroke-linecap="round" stroke="rgb(0,0,255)" stroke-width="1.874998" fill="none" d="M 0.000000 750.000000 L 253.846161 0.000000 " />
<path stroke-linejoin="round" stroke-linecap="round" stroke="rgb(255,0,0)" stroke-width="3.749996" fill="none" d="M 95.180962 468.783569 L 98.055550 500.404053 " />
<path stroke-linejoin="round" stroke-linecap="round" stroke="rgb(0,0,255)" stroke-width="1.874998" fill="none" d="M 0.000000 750.000000 L 246.268646 0.000000 " />
<path stroke-linejoin="round" stroke-linecap="round" stroke="rgb(255,0,0)" stroke-width="3.749996" fill="none" d="M 94.564903 462.006927 L 95.180939 468.783569 " />
<path stroke-linejoin="round" stroke-linecap="round" stroke="rgb(0,0,255)" stroke-width="1.874998" fill="none" d="M 0.000000 750.000000 L 210.000000 0.000000 " />
<path stroke-linejoin="round" stroke-linecap="round" stroke="rgb(255,0,0)" stroke-width="3.749996" fill="none" d="M 91.151451 424.459076 L 94.564903 462.006927 " />
<path stroke-linejoin="round" stroke-linecap="round" stroke="rgb(0,0,255)" stroke-width="1.874998" fill="none" d="M 0.000000 750.000000 L 194.117661 0.000000 " />
<path stroke-linejoin="round" stroke-linecap="round" stroke="rgb(255,0,0)" stroke-width="3.749996" fill="none" d="M 89.359489 404.747437 L 91.151451 424.459076 " />
<path stroke-linejoin="round" stroke-linecap="round" stroke="rgb(0,0,255)" stroke-width="1.874998" fill="none" d="M 0.000000 750.000000 L 183.139526 0.000000 " />
<path stroke-linejoin="round" stroke-linecap="round" stroke="rgb(255,0,0)" stroke-width="3.749996" fill="none" d="M 87.988457 389.666260 L 89.359489 404.747437 " />
<path stroke-linejoin="round" stroke-linecap="round" stroke="rgb(0,0,255)" stroke-width="1.874998" fill="none" d="M 0.000000 750.000000 L 155.172409 0.000000 " />
<path stroke-linejoin="round" stroke-linecap="round" stroke="rgb(255,0,0)" stroke-width="3.749996" fill="none" d="M 83.886734 344.547394 L 87.988457 389.666260 " />
<path stroke-linejoin="round" stroke-linecap="round" stroke="rgb(0,0,255)" stroke-width="1.874998" fill="none" d="M 0.000000 750.000000 L 144.886353 0.000000 " />
<path stroke-linejoin="round" stroke-linecap="round" stroke="rgb(255,0,0)" stroke-width="3.749996" fill="none" d="M 79.226372 339.887024 L 83.886734 344.547424 " />
<path stroke-linejoin="round" stroke-linecap="round" stroke="rgb(0,0,255)" stroke-width="1.874998" fill="none" d="M 0.000000 750.000000 L 134.831467 0.000000 " />
<path stroke-linejoin="round" stroke-linecap="round" stroke="rgb(255,0,0)" stroke-width="3.749996" fill="none" d="M 74.565994 335.226685 L 79.226372 339.887024 " />
<path stroke-linejoin="round" stroke-linecap="round" stroke="rgb(0,0,255)" stroke-width="1.874998" fill="none" d="M 0.000000 750.000000 L 131.868118 0.000000 " />
<path stroke-linejoin="round" stroke-linecap="round" stroke="rgb(255,0,0)" stroke-width="3.749996" fill="none" d="M 73.172226 333.832947 L 74.565994 335.226715 " />
<path stroke-linejoin="round" stroke-linecap="round" stroke="rgb(0,0,255)" stroke-width="1.874998" fill="none" d="M 0.000000 750.000000 L 129.032272 0.000000 " />
<path stroke-linejoin="round" stroke-linecap="round" stroke="rgb(255,0,0)" stroke-width="3.749996" fill="none" d="M 71.829628 332.490356 L 73.172226 333.832947 " />
<path stroke-linejoin="round" stroke-linecap="round" stroke="rgb(0,0,255)" stroke-width="1.874998" fill="none" d="M 0.000000 750.000000 L 126.237633 0.000000 " />
<path stroke-linejoin="round" stroke-linecap="round" stroke="rgb(255,0,0)" stroke-width="3.749996" fill="none" d="M 71.284019 326.489044 L 71.829628 332.490356 " />
<path stroke-linejoin="round" stroke-linecap="round" stroke="rgb(0,0,255)" stroke-width="1.874998" fill="none" d="M 0.000000 750.000000 L 122.282623 0.000000 " />
<path stroke-linejoin="round" stroke-linecap="round" stroke="rgb(255,0,0)" stroke-width="3.749996" fill="none" d="M 69.363777 324.568756 L 71.284019 326.489044 " />
<path stroke-linejoin="round" stroke-linecap="round" stroke="rgb(0,0,255)" stroke-width="1.874998" fill="none" d="M 0.000000 750.000000 L 102.941170 0.000000 " />
<path stroke-linejoin="round" stroke-linecap="round" stroke="rgb(255,0,0)" stroke-width="3.749996" fill="none" d="M 64.992432 276.483673 L 69.363777 324.568756 " />
<path stroke-linejoin="round" stroke-linecap="round" stroke="rgb(0,0,255)" stroke-width="1.874998" fill="none" d="M 0.000000 750.000000 L 94.660210 0.000000 " />
<path stroke-linejoin="round" stroke-linecap="round" stroke="rgb(255,0,0)" stroke-width="3.749996" fill="none" d="M 60.350128 271.841339 L 64.992447 276.483673 " />
<path stroke-linejoin="round" stroke-linecap="round" stroke="rgb(0,0,255)" stroke-width="1.874998" fill="none" d="M 0.000000 750.000000 L 86.538460 0.000000 " />
<path stroke-linejoin="round" stroke-linecap="round" stroke="rgb(255,0,0)" stroke-width="3.749996" fill="none" d="M 55.707806 267.199036 L 60.350128 271.841339 " />
<path stroke-linejoin="round" stroke-linecap="round" stroke="rgb(0,0,255)" stroke-width="1.874998" fill="none" d="M 0.000000 750.000000 L 84.905663 0.000000 " />
<path stroke-linejoin="round" stroke-linecap="round" stroke="rgb(255,0,0)" stroke-width="3.749996" fill="none" d="M 54.763599 266.254791 L 55.707806 267.199036 " />
<path stroke-linejoin="round" stroke-linecap="round" stroke="rgb(0,0,255)" stroke-width="1.874998" fill="none" d="M 0.000000 750.000000 L 83.333328 0.000000 " />
<path stroke-linejoin="round" stroke-linecap="round" stroke="rgb(255,0,0)" stroke-width="3.749996" fill="none" d="M 53.850891 265.342072 L 54.763599 266.254791 " />
<path stroke-linejoin="round" stroke-linecap="round" stroke="rgb(0,0,255)" stroke-width="1.874998" fill="none" d="M 0.000000 750.000000 L 81.818169 0.000000 " />
<path stroke-linejoin="round" stroke-linecap="round" stroke="rgb(255,0,0)" stroke-width="3.749996" fill="none" d="M 52.968086 264.459320 L 53.850891 265.342072 " />
<path stroke-linejoin="round" stroke-linecap="round" stroke="rgb(0,0,255)" stroke-width="1.874998" fill="none" d="M 0.000000 750.000000 L 77.830193 0.000000 " />
<path stroke-linejoin="round" stroke-linecap="round" stroke="rgb(255,0,0)" stroke-width="3.749996" fill="none" d="M 50.629021 262.120209 L 52.968086 264.459320 " />
<path stroke-linejoin="round" stroke-linecap="round" stroke="rgb(0,0,255)" stroke-width="1.874998" fill="none" d="M 0.000000 750.000000 L 64.655159 0.000000 " />
<path stroke-linejoin="round" stroke-linecap="round" stroke="rgb(255,0,0)" stroke-width="3.749996" fill="none" d="M 46.230042 213.731430 L 50.629021 262.120209 " />
<path stroke-linejoin="round" stroke-linecap="round" stroke="rgb(0,0,255)" stroke-width="1.874998" fill="none" d="M 0.000000 750.000000 L 57.692303 0.000000 " />
<path stroke-linejoin="round" stroke-linecap="round" stroke="rgb(255,0,0)" stroke-width="3.749996" fill="none" d="M 41.607052 209.108368 L 46.230064 213.731430 " />
<path stroke-linejoin="round" stroke-linecap="round" stroke="rgb(0,0,255)" stroke-width="1.874998" fill="none" d="M 0.000000 750.000000 L 50.847462 0.000000 " />
<path stroke-linejoin="round" stroke-linecap="round" stroke="rgb(255,0,0)" stroke-width="3.749996" fill="none" d="M 36.984043 204.485397 L 41.607052 209.108368 " />
<path stroke-linejoin="round" stroke-linecap="round" stroke="rgb(0,0,255)" stroke-width="1.874998" fill="none" d="M 0.000000 750.000000 L 49.999996 0.000000 " />
<path stroke-linejoin="round" stroke-linecap="round" stroke="rgb(255,0,0)" stroke-width="3.749996" fill="none" d="M 36.406158 203.907562 L 36.984043 204.485397 " />
<path stroke-linejoin="round" stroke-linecap="round" stroke="rgb(0,0,255)" stroke-width="1.874998" fill="none" d="M 0.000000 750.000000 L 49.180313 0.000000 " />
<path stroke-linejoin="round" stroke-linecap="round" stroke="rgb(255,0,0)" stroke-width="3.749996" fill="none" d="M 35.846069 203.347427 L 36.406158 203.907562 " />
<path stroke-linejoin="round" stroke-linecap="round" stroke="rgb(0,0,255)" stroke-width="1.874998" fill="none" d="M 0.000000 750.000000 L 43.478249 0.000000 " />
<path stroke-linejoin="round" stroke-linecap="round" stroke="rgb(255,0,0)" stroke-width="3.749996" fill="none" d="M 33.308296 175.431915 L 35.846069 203.347427 " />
<path stroke-linejoin="round" stroke-linecap="round" stroke="rgb(0,0,255)" stroke-width="1.874998" fill="none" d="M 0.000000 750.000000 L 40.384613 0.000000 " />
<path stroke-linejoin="round" stroke-linecap="round" stroke="rgb(255,0,0)" stroke-width="3.749996" fill="none" d="M 31.059378 173.183014 L 33.308296 175.431915 " />
<path stroke-linejoin="round" stroke-linecap="round" stroke="rgb(0,0,255)" stroke-width="1.874998" fill="none" d="M 0.000000 750.000000 L 34.351139 0.000000 " />
<path stroke-linejoin="round" stroke-linecap="round" stroke="rgb(255,0,0)" stroke-width="3.749996" fill="none" d="M 26.622311 168.746002 L 31.059378 173.183014 " />
<path stroke-linejoin="round" stroke-linecap="round" stroke="rgb(0,0,255)" stroke-width="1.874998" fill="none" d="M 0.000000 750.000000 L 31.690144 0.000000 " />
<path stroke-linejoin="round" stroke-linecap="round" stroke="rgb(255,0,0)" stroke-width="3.749996" fill="none" d="M 25.214418 153.258926 L 26.622311 168.746063 " />
<path stroke-linejoin="round" stroke-linecap="round" stroke="rgb(0,0,255)" stroke-width="1.874998" fill="none" d="M 0.000000 750.000000 L 26.223778 0.000000 " />
<path stroke-linejoin="round" stroke-linecap="round" stroke="rgb(255,0,0)" stroke-width="3.749996" fill="none" d="M 21.012001 149.056503 L 25.214418 153.258926 " />
<path stroke-linejoin="round" stroke-linecap="round" stroke="rgb(0,0,255)" stroke-width="1.874998" fill="none" d="M 0.000000 750.000000 L 20.833344 0.000000 " />
<path stroke-linejoin="round" stroke-linecap="round" stroke="rgb(255,0,0)" stroke-width="3.749996" fill="none" d="M 16.809605 144.854126 L 21.012001 149.056503 " />
<path stroke-linejoin="round" stroke-linecap="round" stroke="rgb(0,0,255)" stroke-width="1.874998" fill="none" d="M 0.000000 750.000000 L 20.547956 0.000000 " />
<path stroke-linejoin="round" stroke-linecap="round" stroke="rgb(255,0,0)" stroke-width="3.749996" fill="none" d="M 16.585484 144.630005 L 16.809605 144.854126 " />
<path stroke-linejoin="round" stroke-linecap="round" stroke="rgb(0,0,255)" stroke-width="1.874998" fill="none" d="M 0.000000 750.000000 L 20.270281 0.000000 " />
<path stroke-linejoin="round" stroke-linecap="round" stroke="rgb(255,0,0)" stroke-width="3.749996" fill="none" d="M 16.367241 144.411804 L 16.585484 144.630005 " />
<path stroke-linejoin="round" stroke-linecap="round" stroke="rgb(0,0,255)" stroke-width="1.874998" fill="none" d="M 0.000000 750.000000 L 20.000004 0.000000 " />
<path stroke-linejoin="round" stroke-linecap="round" stroke="rgb(255,0,0)" stroke-width="3.749996" fill="none" d="M 16.154676 144.199203 L 16.367241 144.411804 " />
<path stroke-linejoin="round" stroke-linecap="round" stroke="rgb(0,0,255)" stroke-width="1.874998" fill="none" d="M 0.000000 750.000000 L 15.000008 0.000000 " />
<path stroke-linejoin="round" stroke-linecap="round" stroke="rgb(255,0,0)" stroke-width="3.749996" fill="none" d="M 12.295090 135.245926 L 16.154676 144.199203 " />
<path stroke-linejoin="round" stroke-linecap="round" stroke="rgb(0,0,255)" stroke-width="1.874998" fill="none" d="M 0.000000 750.000000 L 14.802620 0.000000 " />
<path stroke-linejoin="round" stroke-linecap="round" stroke="rgb(255,0,0)" stroke-width="3.749996" fill="none" d="M 12.162164 133.783829 L 12.295090 135.245926 " />
<path stroke-linejoin="round" stroke-linecap="round" stroke="rgb(0,0,255)" stroke-width="1.874998" fill="none" d="M 0.000000 750.000000 L 9.999990 0.000000 " />
<path stroke-linejoin="round" stroke-linecap="round" stroke="rgb(255,0,0)" stroke-width="3.749996" fill="none" d="M 8.720934 95.930344 L 12.162164 133.783875 " />
<path stroke-linejoin="round" stroke-linecap="round" stroke="rgb(0,0,255)" stroke-width="1.874998" fill="none" d="M 0.000000 750.000000 L 4.966892 0.000000 " />
<path stroke-linejoin="round" stroke-linecap="round" stroke="rgb(255,0,0)" stroke-width="3.749996" fill="none" d="M 4.629627 50.925964 L 8.720934 95.930344 " />
<path stroke-linejoin="round" stroke-linecap="round" stroke="rgb(0,0,255)" stroke-width="1.874998" fill="none" d="M 0.000000 750.000000 L 0.000000 0.000000 " />
<path stroke-linejoin="round" stroke-linecap="round" stroke="rgb(255,0,0)" stroke-width="3.749996" fill="none" d="M 0.000000 0.000000 L 4.629627 50.925964 " />
<circle cx="124.742255" cy="747.164950" r="3.749996" style="fill:rgb(0,127,0);stroke-width:1" /><circle cx="121.907204" cy="744.329900" r="3.749996" style="fill:rgb(0,127,0);stroke-width:1" /><circle cx="119.323365" cy="715.907604" r="3.749996" style="fill:rgb(0,127,0);stroke-width:1" /><circle cx="116.728619" cy="687.365122" r="3.749996" style="fill:rgb(0,127,0);stroke-width:1" /><circle cx="116.617084" cy="686.138257" r="3.749996" style="fill:rgb(0,127,0);stroke-width:1" /><circle cx="115.840830" cy="677.599467" r="3.749996" style="fill:rgb(0,127,0);stroke-width:1" /><circle cx="114.994816" cy="668.293163" r="3.749996" style="fill:rgb(0,127,0);stroke-width:1" /><circle cx="114.921972" cy="667.491920" r="3.749996" style="fill:rgb(0,127,0);stroke-width:1" /><circle cx="114.421226" cy="661.983669" r="3.749996" style="fill:rgb(0,127,0);stroke-width:1" /><circle cx="113.028154" cy="646.659963" r="3.749996" style="fill:rgb(0,127,0);stroke-width:1" /><circle cx="110.778384" cy="621.912494" r="3.749996" style="fill:rgb(0,127,0);stroke-width:1" /><circle cx="108.663373" cy="598.647438" r="3.749996" style="fill:rgb(0,127,0);stroke-width:1" /><circle cx="105.085395" cy="559.289485" r="3.749996" style="fill:rgb(0,127,0);stroke-width:1" /><circle cx="104.739435" cy="555.483889" r="3.749996" style="fill:rgb(0,127,0);stroke-width:1" /><circle cx="102.741681" cy="533.508584" r="3.749996" style="fill:rgb(0,127,0);stroke-width:1" /><circle cx="101.847477" cy="523.672264" r="3.749996" style="fill:rgb(0,127,0);stroke-width:1" /><circle cx="99.899858" cy="502.248365" r="3.749996" style="fill:rgb(0,127,0);stroke-width:1" /><circle cx="98.055549" cy="500.404056" r="3.749996" style="fill:rgb(0,127,0);stroke-width:1" /><circle cx="95.180959" cy="468.783561" r="3.749996" style="fill:rgb(0,127,0);stroke-width:1" /><circle cx="94.564900" cy="462.006927" r="3.749996" style="fill:rgb(0,127,0);stroke-width:1" /><circle cx="91.151454" cy="424.459102" r="3.749996" style="fill:rgb(0,127,0);stroke-width:1" /><circle cx="89.359492" cy="404.747455" r="3.749996" style="fill:rgb(0,127,0);stroke-width:1" /><circle cx="87.988459" cy="389.666259" r="3.749996" style="fill:rgb(0,127,0);stroke-width:1" /><circle cx="83.886735" cy="344.547392" r="3.749996" style="fill:rgb(0,127,0);stroke-width:1" /><circle cx="79.226375" cy="339.887023" r="3.749996" style="fill:rgb(0,127,0);stroke-width:1" /><circle cx="74.565992" cy="335.226685" r="3.749996" style="fill:rgb(0,127,0);stroke-width:1" /><circle cx="73.172227" cy="333.832950" r="3.749996" style="fill:rgb(0,127,0);stroke-width:1" /><circle cx="71.829624" cy="332.490354" r="3.749996" style="fill:rgb(0,127,0);stroke-width:1" /><circle cx="71.284018" cy="326.489031" r="3.749996" style="fill:rgb(0,127,0);stroke-width:1" /><circle cx="69.363780" cy="324.568776" r="3.749996" style="fill:rgb(0,127,0);stroke-width:1" /><circle cx="64.992428" cy="276.483681" r="3.749996" style="fill:rgb(0,127,0);stroke-width:1" /><circle cx="60.350128" cy="271.841347" r="3.749996" style="fill:rgb(0,127,0);stroke-width:1" /><circle cx="55.707805" cy="267.199036" r="3.749996" style="fill:rgb(0,127,0);stroke-width:1" /><circle cx="54.763600" cy="266.254809" r="3.749996" style="fill:rgb(0,127,0);stroke-width:1" /><circle cx="53.850889" cy="265.342087" r="3.749996" style="fill:rgb(0,127,0);stroke-width:1" /><circle cx="52.968085" cy="264.459316" r="3.749996" style="fill:rgb(0,127,0);stroke-width:1" /><circle cx="50.629020" cy="262.120217" r="3.749996" style="fill:rgb(0,127,0);stroke-width:1" /><circle cx="46.230040" cy="213.731412" r="3.749996" style="fill:rgb(0,127,0);stroke-width:1" /><circle cx="41.607052" cy="209.108356" r="3.749996" style="fill:rgb(0,127,0);stroke-width:1" /><circle cx="36.984041" cy="204.485413" r="3.749996" style="fill:rgb(0,127,0);stroke-width:1" /><circle cx="36.406159" cy="203.907553" r="3.749996" style="fill:rgb(0,127,0);stroke-width:1" /><circle cx="35.846069" cy="203.347441" r="3.749996" style="fill:rgb(0,127,0);stroke-width:1" /><circle cx="33.308297" cy="175.431915" r="3.749996" style="fill:rgb(0,127,0);stroke-width:1" /><circle cx="31.059377" cy="173.183016" r="3.749996" style="fill:rgb(0,127,0);stroke-width:1" /><circle cx="26.622310" cy="168.745995" r="3.749996" style="fill:rgb(0,127,0);stroke-width:1" /><circle cx="25.214419" cy="153.258920" r="3.749996" style="fill:rgb(0,127,0);stroke-width:1" /><circle cx="21.012001" cy="149.056502" r="3.749996" style="fill:rgb(0,127,0);stroke-width:1" /><circle cx="16.809605" cy="144.854128" r="3.749996" style="fill:rgb(0,127,0);stroke-width:1" /><circle cx="16.585484" cy="144.630007" r="3.749996" style="fill:rgb(0,127,0);stroke-width:1" /><circle cx="16.367242" cy="144.411810" r="3.749996" style="fill:rgb(0,127,0);stroke-width:1" /><circle cx="16.154677" cy="144.199200" r="3.749996" style="fill:rgb(0,127,0);stroke-width:1" /><circle cx="12.295090" cy="135.245919" r="3.749996" style="fill:rgb(0,127,0);stroke-width:1" /><circle cx="12.162164" cy="133.783825" r="3.749996" style="fill:rgb(0,127,0);stroke-width:1" /><circle cx="8.720934" cy="95.930345" r="3.749996" style="fill:rgb(0,127,0);stroke-width:1" /><circle cx="4.629627" cy="50.925963" r="3.749996" style="fill:rgb(0,127,0);stroke-width:1" /><circle cx="750.000000" cy="750.000000" r="3.749996" style="fill:rgb(0,127,0);stroke-width:1" /><path stroke-linejoin="round" stroke-linecap="round" stroke="rgb(255,255,255)" stroke-width="3.749996" fill="none" d="M 0.000000 750.000000 L 750.000000 750.000000 M 0.000000 750.000000 L 0.000000 0.000000 " />

</svg>