<svg xmlns="http://www.w3.org/2000/svg" version="1.1" width = "750" height = "750" viewBox = "0 0 750 750"  shape-rendering="crispEdges">
<path stroke-linejoin="round" stroke-linecap="round" stroke="rgb(255,255,0)" stroke-width="3.749996" fill="none" d="M 74.999992 750.000000 L 0.000000 0.000000 " />
<path stroke-linejoin="round" stroke-linecap="round" stroke="rgb(63,63,63)" stroke-width="3.749996" fill="none" d="M 0.000000 0.000000 L 750.000000 750.000000 M 74.999992 750.000000 L 35.526306 0.000000 " />
<path stroke-linejoin="round" stroke-linecap="round" stroke="rgb(191,191,191)" stroke-width="3.749996" fill="none" d="M 0.000000 675.000000 L 74.999992 750.000000 M 0.000000 0.000000 L 39.473690 750.000000 " />
<path stroke-linejoin="round" stroke-linecap="round" stroke="rgb(0,0,255)" stroke-width="1.874998" fill="none" d="M 0.000000 750.000000 L 750.000000 732.142822 " />
<path stroke-linejoin="round" stroke-linecap="round" stroke="rgb(255,0,0)" stroke-width="3.749996" fill="none" d="M 74.906143 748.216492 L 74.999992 750.000000 " />
<path stroke-linejoin="round" stroke-linecap="round" stroke="rgb(0,0,255)" stroke-width="1.874998" fill="none" d="M 0.000000 750.000000 L 750.000000 713.414612 " />
<path stroke-linejoin="round" stroke-linecap="round" stroke="rgb(255,0,0)" stroke-width="3.749996" fill="none" d="M 73.122650 746.433044 L 74.906143 748.216492 " />
<path stroke-linejoin="round" stroke-linecap="round" stroke="rgb(0,0,255)" stroke-width="1.874998" fill="none" d="M 0.000000 750.000000 L 750.000000 693.750000 " />
<path stroke-linejoin="round" stroke-linecap="round" stroke="rgb(255,0,0)" stroke-width="3.749996" fill="none" d="M 71.339180 744.649536 L 73.122673 746.433044 " />
<path stroke-linejoin="round" stroke-linecap="round" stroke="rgb(0,0,255)" stroke-width="1.874998" fill="none" d="M 0.000000 750.000000 L 750.000000 673.076904 " />
<path stroke-linejoin="round" stroke-linecap="round" stroke="rgb(255,0,0)" stroke-width="3.749996" fill="none" d="M 69.555717 742.866089 L 71.339180 744.649536 " />
<path stroke-linejoin="round" stroke-linecap="round" stroke="rgb(0,0,255)" stroke-width="1.874998" fill="none" d="M 0.000000 750.000000 L 750.000000 656.250000 " />
<path stroke-linejoin="round" stroke-linecap="round" stroke="rgb(255,0,0)" stroke-width="3.749996" fill="none" d="M 68.168564 741.478943 L 69.555717 742.866089 " />
<path stroke-linejoin="round" stroke-linecap="round" stroke="rgb(0,0,255)" stroke-width="1.874998" fill="none" d="M 0.000000 750.000000 L 750.000000 548.780518 " />
<path stroke-linejoin="round" stroke-linecap="round" stroke="rgb(255,0,0)" stroke-width="3.749996" fill="none" d="M 67.661606 731.846924 L 68.168564 741.478943 " />
<path stroke-linejoin="round" stroke-linecap="round" stroke="rgb(0,0,255)" stroke-width="1.874998" fill="none" d="M 0.000000 750.000000 L 750.000000 450.000031 " />
<path stroke-linejoin="round" stroke-linecap="round" stroke="rgb(255,0,0)" stroke-width="3.749996" fill="none" d="M 67.202255 723.119080 L 67.661606 731.846924 " />
<path stroke-linejoin="round" stroke-linecap="round" stroke="rgb(0,0,255)" stroke-width="1.874998" fill="none" d="M 0.000000 750.000000 L 750.000000 423.076904 " />
<path stroke-linejoin="round" stroke-linecap="round" stroke="rgb(255,0,0)" stroke-width="3.749996" fill="none" d="M 67.078110 720.760803 L 67.202255 723.119080 " />
<path stroke-linejoin="round" stroke-linecap="round" stroke="rgb(0,0,255)" stroke-width="1.874998" fill="none" d="M 0.000000 750.000000 L 750.000000 342.857117 " />
<path stroke-linejoin="round" stroke-linecap="round" stroke="rgb(255,0,0)" stroke-width="3.749996" fill="none" d="M 66.710983 713.785461 L 67.078110 720.760803 " />
<path stroke-linejoin="round" stroke-linecap="round" stroke="rgb(0,0,255)" stroke-width="1.874998" fill="none" d="M 0.000000 750.000000 L 750.000000 110.294136 " />
<path stroke-linejoin="round" stroke-linecap="round" stroke="rgb(255,0,0)" stroke-width="3.749996" fill="none" d="M 65.669037 693.988159 L 66.710983 713.785461 " />
<path stroke-linejoin="round" stroke-linecap="round" stroke="rgb(0,0,255)" stroke-width="1.874998" fill="none" d="M 0.000000 750.000000 L 750.000000 107.142853 " />
<path stroke-linejoin="round" stroke-linecap="round" stroke="rgb(255,0,0)" stroke-width="3.749996" fill="none" d="M 65.655136 693.724182 L 65.669037 693.988159 " />
<path stroke-linejoin="round" stroke-linecap="round" stroke="rgb(0,0,255)" stroke-width="1.874998" fill="none" d="M 0.000000 750.000000 L 685.714294 0.000000 " />
<path stroke-linejoin="round" stroke-linecap="round" stroke="rgb(255,0,0)" stroke-width="3.749996" fill="none" d="M 64.882034 679.035278 L 65.655136 693.724182 " />
<path stroke-linejoin="round" stroke-linecap="round" stroke="rgb(0,0,255)" stroke-width="1.874998" fill="none" d="M 0.000000 750.000000 L 543.750000 0.000000 " />
<path stroke-linejoin="round" stroke-linecap="round" stroke="rgb(255,0,0)" stroke-width="3.749996" fill="none" d="M 63.972874 661.761536 L 64.882034 679.035278 " />
<path stroke-linejoin="round" stroke-linecap="round" stroke="rgb(0,0,255)" stroke-width="1.874998" fill="none" d="M 0.000000 750.000000 L 512.195129 0.000000 " />
<path stroke-linejoin="round" stroke-linecap="round" stroke="rgb(255,0,0)" stroke-width="3.749996" fill="none" d="M 63.707249 656.714355 L 63.972874 661.761536 " />
<path stroke-linejoin="round" stroke-linecap="round" stroke="rgb(0,0,255)" stroke-width="1.874998" fill="none" d="M 0.000000 750.000000 L 460.227295 0.000000 " />
<path stroke-linejoin="round" stroke-linecap="round" stroke="rgb(255,0,0)" stroke-width="3.749996" fill="none" d="M 63.196644 647.012878 L 63.707249 656.714355 " />
<path stroke-linejoin="round" stroke-linecap="round" stroke="rgb(0,0,255)" stroke-width="1.874998" fill="none" d="M 0.000000 750.000000 L 433.333313 0.000000 " />
<path stroke-linejoin="round" stroke-linecap="round" stroke="rgb(255,0,0)" stroke-width="3.749996" fill="none" d="M 62.888325 641.154785 L 63.196644 647.012878 " />
<path stroke-linejoin="round" stroke-linecap="round" stroke="rgb(0,0,255)" stroke-width="1.874998" fill="none" d="M 0.000000 750.000000 L 397.959167 0.000000 " />
<path stroke-linejoin="round" stroke-linecap="round" stroke="rgb(255,0,0)" stroke-width="3.749996" fill="none" d="M 62.425060 632.352783 L 62.888325 641.154785 " />
<path stroke-linejoin="round" stroke-linecap="round" stroke="rgb(0,0,255)" stroke-width="1.874998" fill="none" d="M 0.000000 750.000000 L 340.909088 0.000000 " />
<path stroke-linejoin="round" stroke-linecap="round" stroke="rgb(255,0,0)" stroke-width="3.749996" fill="none" d="M 61.496368 614.707947 L 62.425060 632.352783 " />
<path stroke-linejoin="round" stroke-linecap="round" stroke="rgb(0,0,255)" stroke-width="1.874998" fill="none" d="M 0.000000 750.000000 L 336.734680 0.000000 " />
<path stroke-linejoin="round" stroke-linecap="round" stroke="rgb(255,0,0)" stroke-width="3.749996" fill="none" d="M 60.976692 614.188293 L 61.496368 614.707947 " />
<path stroke-linejoin="round" stroke-linecap="round" stroke="rgb(0,0,255)" stroke-width="1.874998" fill="none" d="M 0.000000 750.000000 L 323.529419 0.000000 " />
<path stroke-linejoin="round" stroke-linecap="round" stroke="rgb(255,0,0)" stroke-width="3.749996" fill="none" d="M 59.306099 612.517639 L 60.976692 614.188293 " />
<path stroke-linejoin="round" stroke-linecap="round" stroke="rgb(0,0,255)" stroke-width="1.874998" fill="none" d="M 0.000000 750.000000 L 300.000000 0.000000 " />
<path stroke-linejoin="round" stroke-linecap="round" stroke="rgb(255,0,0)" stroke-width="3.749996" fill="none" d="M 58.804573 602.988586 L 59.306099 612.517639 " />
<path stroke-linejoin="round" stroke-linecap="round" stroke="rgb(0,0,255)" stroke-width="1.874998" fill="none" d="M 0.000000 750.000000 L 290.322601 0.000000 " />
<path stroke-linejoin="round" stroke-linecap="round" stroke="rgb(255,0,0)" stroke-width="3.749996" fill="none" d="M 58.577522 598.674744 L 58.804573 602.988586 " />
<path stroke-linejoin="round" stroke-linecap="round" stroke="rgb(0,0,255)" stroke-width="1.874998" fill="none" d="M 0.000000 750.000000 L 281.250000 0.000000 " />
<path stroke-linejoin="round" stroke-linecap="round" stroke="rgb(255,0,0)" stroke-width="3.749996" fill="none" d="M 58.352219 594.394043 L 58.577522 598.674744 " />
<path stroke-linejoin="round" stroke-linecap="round" stroke="rgb(0,0,255)" stroke-width="1.874998" fill="none" d="M 0.000000 750.000000 L 268.656708 0.000000 " />
<path stroke-linejoin="round" stroke-linecap="round" stroke="rgb(255,0,0)" stroke-width="3.749996" fill="none" d="M 58.017498 588.034424 L 58.352219 594.394043 " />
<path stroke-linejoin="round" stroke-linecap="round" stroke="rgb(0,0,255)" stroke-width="1.874998" fill="none" d="M 0.000000 750.000000 L 266.129059 0.000000 " />
<path stroke-linejoin="round" stroke-linecap="round" stroke="rgb(255,0,0)" stroke-width="3.749996" fill="none" d="M 57.947002 586.694824 L 58.017498 588.034424 " />
<path stroke-linejoin="round" stroke-linecap="round" stroke="rgb(0,0,255)" stroke-width="1.874998" fill="none" d="M 0.000000 750.000000 L 218.750000 0.000000 " />
<path stroke-linejoin="round" stroke-linecap="round" stroke="rgb(255,0,0)" stroke-width="3.749996" fill="none" d="M 56.369976 556.731445 L 57.947002 586.694824 " />
<path stroke-linejoin="round" stroke-linecap="round" stroke="rgb(0,0,255)" stroke-width="1.874998" fill="none" d="M 0.000000 750.000000 L 192.567566 0.000000 " />
<path stroke-linejoin="round" stroke-linecap="round" stroke="rgb(255,0,0)" stroke-width="3.749996" fill="none" d="M 55.222214 534.924011 L 56.369976 556.731445 " />
<path stroke-linejoin="round" stroke-linecap="round" stroke="rgb(0,0,255)" stroke-width="1.874998" fill="none" d="M 0.000000 750.000000 L 178.571442 0.000000 " />
<path stroke-linejoin="round" stroke-linecap="round" stroke="rgb(255,0,0)" stroke-width="3.749996" fill="none" d="M 54.495602 521.118408 L 55.222214 534.924011 " />
<path stroke-linejoin="round" stroke-linecap="round" stroke="rgb(0,0,255)" stroke-width="1.874998" fill="none" d="M 0.000000 750.000000 L 167.647049 0.000000 " />
<path stroke-linejoin="round" stroke-linecap="round" stroke="rgb(255,0,0)" stroke-width="3.749996" fill="none" d="M 53.860233 509.046295 L 54.495602 521.118408 " />
<path stroke-linejoin="round" stroke-linecap="round" stroke="rgb(0,0,255)" stroke-width="1.874998" fill="none" d="M 0.000000 750.000000 L 160.112366 0.000000 " />
<path stroke-linejoin="round" stroke-linecap="round" stroke="rgb(255,0,0)" stroke-width="3.749996" fill="none" d="M 53.381481 499.949890 L 53.860256 509.046265 " />
<path stroke-linejoin="round" stroke-linecap="round" stroke="rgb(0,0,255)" stroke-width="1.874998" fill="none" d="M 0.000000 750.000000 L 151.515167 0.000000 " />
<path stroke-linejoin="round" stroke-linecap="round" stroke="rgb(255,0,0)" stroke-width="3.749996" fill="none" d="M 52.789070 488.694092 L 53.381481 499.949890 " />
<path stroke-linejoin="round" stroke-linecap="round" stroke="rgb(0,0,255)" stroke-width="1.874998" fill="none" d="M 0.000000 750.000000 L 146.551727 0.000000 " />
<path stroke-linejoin="round" stroke-linecap="round" stroke="rgb(255,0,0)" stroke-width="3.749996" fill="none" d="M 51.342442 487.247498 L 52.789070 488.694092 " />
<path stroke-linejoin="round" stroke-linecap="round" stroke="rgb(0,0,255)" stroke-width="1.874998" fill="none" d="M 0.000000 750.000000 L 143.258438 0.000000 " />
<path stroke-linejoin="round" stroke-linecap="round" stroke="rgb(255,0,0)" stroke-width="3.749996" fill="none" d="M 50.373718 486.278778 L 51.342442 487.247498 " />
<path stroke-linejoin="round" stroke-linecap="round" stroke="rgb(0,0,255)" stroke-width="1.874998" fill="none" d="M 0.000000 750.000000 L 139.175262 0.000000 " />
<path stroke-linejoin="round" stroke-linecap="round" stroke="rgb(255,0,0)" stroke-width="3.749996" fill="none" d="M 49.162678 485.067749 L 50.373718 486.278778 " />
<path stroke-linejoin="round" stroke-linecap="round" stroke="rgb(0,0,255)" stroke-width="1.874998" fill="none" d="M 0.000000 750.000000 L 137.096771 0.000000 " />
<path stroke-linejoin="round" stroke-linecap="round" stroke="rgb(255,0,0)" stroke-width="3.749996" fill="none" d="M 48.541946 484.446991 L 49.162678 485.067749 " />
<path stroke-linejoin="round" stroke-linecap="round" stroke="rgb(0,0,255)" stroke-width="1.874998" fill="none" d="M 0.000000 750.000000 L 131.067947 0.000000 " />
<path stroke-linejoin="round" stroke-linecap="round" stroke="rgb(255,0,0)" stroke-width="3.749996" fill="none" d="M 48.047863 475.059448 L 48.541946 484.446991 " />
<path stroke-linejoin="round" stroke-linecap="round" stroke="rgb(0,0,255)" stroke-width="1.874998" fill="none" d="M 0.000000 750.000000 L 130.733948 0.000000 " />
<path stroke-linejoin="round" stroke-linecap="round" stroke="rgb(255,0,0)" stroke-width="3.749996" fill="none" d="M 48.019455 474.519928 L 48.047863 475.059448 " />
<path stroke-linejoin="round" stroke-linecap="round" stroke="rgb(0,0,255)" stroke-width="1.874998" fill="none" d="M 0.000000 750.000000 L 112.831863 0.000000 " />
<path stroke-linejoin="round" stroke-linecap="round" stroke="rgb(255,0,0)" stroke-width="3.749996" fill="none" d="M 46.315247 442.139801 L 48.019455 474.519928 " />
<path stroke-linejoin="round" stroke-linecap="round" stroke="rgb(0,0,255)" stroke-width="1.874998" fill="none" d="M 0.000000 750.000000 L 105.263161 0.000000 " />
<path stroke-linejoin="round" stroke-linecap="round" stroke="rgb(255,0,0)" stroke-width="3.749996" fill="none" d="M 43.590813 439.415405 L 46.315247 442.139801 " />
<path stroke-linejoin="round" stroke-linecap="round" stroke="rgb(0,0,255)" stroke-width="1.874998" fill="none" d="M 0.000000 750.000000 L 97.826088 0.000000 " />
<path stroke-linejoin="round" stroke-linecap="round" stroke="rgb(255,0,0)" stroke-width="3.749996" fill="none" d="M 40.866405 436.690948 L 43.590813 439.415405 " />
<path stroke-linejoin="round" stroke-linecap="round" stroke="rgb(0,0,255)" stroke-width="1.874998" fill="none" d="M 0.000000 750.000000 L 90.517242 0.000000 " />
<path stroke-linejoin="round" stroke-linecap="round" stroke="rgb(255,0,0)" stroke-width="3.749996" fill="none" d="M 38.141972 433.966492 L 40.866405 436.690948 " />
<path stroke-linejoin="round" stroke-linecap="round" stroke="rgb(0,0,255)" stroke-width="1.874998" fill="none" d="M 0.000000 750.000000 L 83.333328 0.000000 " />
<path stroke-linejoin="round" stroke-linecap="round" stroke="rgb(255,0,0)" stroke-width="3.749996" fill="none" d="M 35.417542 431.242065 L 38.141972 433.966492 " />
<path stroke-linejoin="round" stroke-linecap="round" stroke="rgb(0,0,255)" stroke-width="1.874998" fill="none" d="M 0.000000 750.000000 L 76.171875 0.000000 " />
<path stroke-linejoin="round" stroke-linecap="round" stroke="rgb(255,0,0)" stroke-width="3.749996" fill="none" d="M 34.378632 411.502686 L 35.417542 431.242065 " />
<path stroke-linejoin="round" stroke-linecap="round" stroke="rgb(0,0,255)" stroke-width="1.874998" fill="none" d="M 0.000000 750.000000 L 76.086960 0.000000 " />
<path stroke-linejoin="round" stroke-linecap="round" stroke="rgb(255,0,0)" stroke-width="3.749996" fill="none" d="M 34.365536 411.253998 L 34.378632 411.502686 " />
<path stroke-linejoin="round" stroke-linecap="round" stroke="rgb(0,0,255)" stroke-width="1.874998" fill="none" d="M 0.000000 750.000000 L 70.312500 0.000000 " />
<path stroke-linejoin="round" stroke-linecap="round" stroke="rgb(255,0,0)" stroke-width="3.749996" fill="none" d="M 31.980984 408.869415 L 34.365536 411.253998 " />
<path stroke-linejoin="round" stroke-linecap="round" stroke="rgb(0,0,255)" stroke-width="1.874998" fill="none" d="M 0.000000 750.000000 L 66.000000 0.000000 " />
<path stroke-linejoin="round" stroke-linecap="round" stroke="rgb(255,0,0)" stroke-width="3.749996" fill="none" d="M 30.178137 407.066620 L 31.980984 408.869415 " />
<path stroke-linejoin="round" stroke-linecap="round" stroke="rgb(0,0,255)" stroke-width="1.874998" fill="none" d="M 0.000000 750.000000 L 64.960625 0.000000 " />
<path stroke-linejoin="round" stroke-linecap="round" stroke="rgb(255,0,0)" stroke-width="3.749996" fill="none" d="M 29.740780 406.629242 L 30.178137 407.066620 " />
<path stroke-linejoin="round" stroke-linecap="round" stroke="rgb(0,0,255)" stroke-width="1.874998" fill="none" d="M 0.000000 750.000000 L 58.928577 0.000000 " />
<path stroke-linejoin="round" stroke-linecap="round" stroke="rgb(255,0,0)" stroke-width="3.749996" fill="none" d="M 28.632961 385.580566 L 29.740780 406.629242 " />
<path stroke-linejoin="round" stroke-linecap="round" stroke="rgb(0,0,255)" stroke-width="1.874998" fill="none" d="M 0.000000 750.000000 L 58.593750 0.000000 " />
<path stroke-linejoin="round" stroke-linecap="round" stroke="rgb(255,0,0)" stroke-width="3.749996" fill="none" d="M 28.482065 385.429688 L 28.632961 385.580566 " />
<path stroke-linejoin="round" stroke-linecap="round" stroke="rgb(0,0,255)" stroke-width="1.874998" fill="none" d="M 0.000000 750.000000 L 48.913033 0.000000 " />
<path stroke-linejoin="round" stroke-linecap="round" stroke="rgb(255,0,0)" stroke-width="3.749996" fill="none" d="M 26.380465 345.499512 L 28.482065 385.429688 " />
<path stroke-linejoin="round" stroke-linecap="round" stroke="rgb(0,0,255)" stroke-width="1.874998" fill="none" d="M 0.000000 750.000000 L 45.302017 0.000000 " />
<path stroke-linejoin="round" stroke-linecap="round" stroke="rgb(255,0,0)" stroke-width="3.749996" fill="none" d="M 25.473633 328.269806 L 26.380465 345.499512 " />
<path stroke-linejoin="round" stroke-linecap="round" stroke="rgb(0,0,255)" stroke-width="1.874998" fill="none" d="M 0.000000 750.000000 L 42.721512 0.000000 " />
<path stroke-linejoin="round" stroke-linecap="round" stroke="rgb(255,0,0)" stroke-width="3.749996" fill="none" d="M 24.776794 315.029755 L 25.473633 328.269836 " />
<path stroke-linejoin="round" stroke-linecap="round" stroke="rgb(0,0,255)" stroke-width="1.874998" fill="none" d="M 0.000000 750.000000 L 35.472973 0.000000 " />
<path stroke-linejoin="round" stroke-linecap="round" stroke="rgb(255,0,0)" stroke-width="3.749996" fill="none" d="M 22.562653 272.961121 L 24.776794 315.029785 " />
<path stroke-linejoin="round" stroke-linecap="round" stroke="rgb(0,0,255)" stroke-width="1.874998" fill="none" d="M 0.000000 750.000000 L 33.018864 0.000000 " />
<path stroke-linejoin="round" stroke-linecap="round" stroke="rgb(255,0,0)" stroke-width="3.749996" fill="none" d="M 21.712683 256.811798 L 22.562653 272.961090 " />
<path stroke-linejoin="round" stroke-linecap="round" stroke="rgb(0,0,255)" stroke-width="1.874998" fill="none" d="M 0.000000 750.000000 L 31.249992 0.000000 " />
<path stroke-linejoin="round" stroke-linecap="round" stroke="rgb(255,0,0)" stroke-width="3.749996" fill="none" d="M 21.063477 244.476669 L 21.712683 256.811798 " />
<path stroke-linejoin="round" stroke-linecap="round" stroke="rgb(0,0,255)" stroke-width="1.874998" fill="none" d="M 0.000000 750.000000 L 28.124996 0.000000 " />
<path stroke-linejoin="round" stroke-linecap="round" stroke="rgb(255,0,0)" stroke-width="3.749996" fill="none" d="M 19.033268 242.446487 L 21.063477 244.476685 " />
<path stroke-linejoin="round" stroke-linecap="round" stroke="rgb(0,0,255)" stroke-width="1.874998" fill="none" d="M 0.000000 750.000000 L 27.777784 0.000000 " />
<path stroke-linejoin="round" stroke-linecap="round" stroke="rgb(255,0,0)" stroke-width="3.749996" fill="none" d="M 18.806665 242.219879 L 19.033268 242.446487 " />
<path stroke-linejoin="round" stroke-linecap="round" stroke="rgb(0,0,255)" stroke-width="1.874998" fill="none" d="M 0.000000 750.000000 L 27.631580 0.000000 " />
<path stroke-linejoin="round" stroke-linecap="round" stroke="rgb(255,0,0)" stroke-width="3.749996" fill="none" d="M 18.748440 241.113602 L 18.806665 242.219879 " />
<path stroke-linejoin="round" stroke-linecap="round" stroke="rgb(0,0,255)" stroke-width="1.874998" fill="none" d="M 0.000000 750.000000 L 27.343758 0.000000 " />
<path stroke-linejoin="round" stroke-linecap="round" stroke="rgb(255,0,0)" stroke-width="3.749996" fill="none" d="M 18.633083 238.921463 L 18.748440 241.113602 " />
<path stroke-linejoin="round" stroke-linecap="round" stroke="rgb(0,0,255)" stroke-width="1.874998" fill="none" d="M 0.000000 750.000000 L 26.315779 0.000000 " />
<path stroke-linejoin="round" stroke-linecap="round" stroke="rgb(255,0,0)" stroke-width="3.749996" fill="none" d="M 18.212780 230.935867 L 18.633083 238.921463 " />
<path stroke-linejoin="round" stroke-linecap="round" stroke="rgb(0,0,255)" stroke-width="1.874998" fill="none" d="M 0.000000 750.000000 L 21.802336 0.000000 " />
<path stroke-linejoin="round" stroke-linecap="round" stroke="rgb(255,0,0)" stroke-width="3.749996" fill="none" d="M 15.177302 227.900436 L 18.212780 230.935913 " />
<path stroke-linejoin="round" stroke-linecap="round" stroke="rgb(0,0,255)" stroke-width="1.874998" fill="none" d="M 0.000000 750.000000 L 17.341040 0.000000 " />
<path stroke-linejoin="round" stroke-linecap="round" stroke="rgb(255,0,0)" stroke-width="3.749996" fill="none" d="M 12.141846 224.865005 L 15.177302 227.900467 " />
<path stroke-linejoin="round" stroke-linecap="round" stroke="rgb(0,0,255)" stroke-width="1.874998" fill="none" d="M 0.000000 750.000000 L 17.142847 0.000000 " />
<path stroke-linejoin="round" stroke-linecap="round" stroke="rgb(255,0,0)" stroke-width="3.749996" fill="none" d="M 12.006193 224.729355 L 12.141846 224.865005 " />
<path stroke-linejoin="round" stroke-linecap="round" stroke="rgb(0,0,255)" stroke-width="1.874998" fill="none" d="M 0.000000 750.000000 L 16.949146 0.000000 " />
<path stroke-linejoin="round" stroke-linecap="round" stroke="rgb(255,0,0)" stroke-width="3.749996" fill="none" d="M 11.873513 224.596664 L 12.006193 224.729355 " />
<path stroke-linejoin="round" stroke-linecap="round" stroke="rgb(0,0,255)" stroke-width="1.874998" fill="none" d="M 0.000000 750.000000 L 16.759783 0.000000 " />
<path stroke-linejoin="round" stroke-linecap="round" stroke="rgb(255,0,0)" stroke-width="3.749996" fill="none" d="M 11.764706 223.529404 L 11.873513 224.596664 " />
<path stroke-linejoin="round" stroke-linecap="round" stroke="rgb(0,0,255)" stroke-width="1.874998" fill="none" d="M 0.000000 750.000000 L 16.129040 0.000000 " />
<path stroke-linejoin="round" stroke-linecap="round" stroke="rgb(255,0,0)" stroke-width="3.749996" fill="none" d="M 11.450373 217.557297 L 11.764706 223.529404 " />
<path stroke-linejoin="round" stroke-linecap="round" stroke="rgb(0,0,255)" stroke-width="1.874998" fill="none" d="M 0.000000 750.000000 L 15.957445 0.000000 " />
<path stroke-linejoin="round" stroke-linecap="round" stroke="rgb(255,0,0)" stroke-width="3.749996" fill="none" d="M 11.363626 215.909134 L 11.450373 217.557297 " />
<path stroke-linejoin="round" stroke-linecap="round" stroke="rgb(0,0,255)" stroke-width="1.874998" fill="none" d="M 0.000000 750.000000 L 15.789472 0.000000 " />
<path stroke-linejoin="round" stroke-linecap="round" stroke="rgb(255,0,0)" stroke-width="3.749996" fill="none" d="M 11.278197 214.285751 L 11.363626 215.909134 " />
<path stroke-linejoin="round" stroke-linecap="round" stroke="rgb(0,0,255)" stroke-width="1.874998" fill="none" d="M 0.000000 750.000000 L 11.780106 0.000000 " />
<path stroke-linejoin="round" stroke-linecap="round" stroke="rgb(255,0,0)" stroke-width="3.749996" fill="none" d="M 9.072572 172.379135 L 11.278197 214.285751 " />
<path stroke-linejoin="round" stroke-linecap="round" stroke="rgb(0,0,255)" stroke-width="1.874998" fill="none" d="M 0.000000 750.000000 L 7.462688 0.000000 " />
<path stroke-linejoin="round" stroke-linecap="round" stroke="rgb(255,0,0)" stroke-width="3.749996" fill="none" d="M 6.276145 119.247009 L 9.072572 172.379135 " />
<path stroke-linejoin="round" stroke-linecap="round" stroke="rgb(0,0,255)" stroke-width="1.874998" fill="none" d="M 0.000000 750.000000 L 3.712870 0.000000 " />
<path stroke-linejoin="round" stroke-linecap="round" stroke="rgb(255,0,0)" stroke-width="3.749996" fill="none" d="M 3.393665 64.479813 L 6.276145 119.247009 " />
<path stroke-linejoin="round" stroke-linecap="round" stroke="rgb(0,0,255)" stroke-width="1.874998" fill="none" d="M 0.000000 750.000000 L 0.000000 0.000000 " />
<path stroke-linejoin="round" stroke-linecap="round" stroke="rgb(255,0,0)" stroke-width="3.749996" fill="none" d="M 0.000000 0.000000 L 3.393665 64.479881 " />
<circle cx="74.906141" cy="748.216510" r="3.749996" style="fill:rgb(0,127,0);stroke-width:1" /><circle cx="73.122650" cy="746.433064" r="3.749996" style="fill:rgb(0,127,0);stroke-width:1" /><circle cx="71.339183" cy="744.649552" r="3.749996" style="fill:rgb(0,127,0);stroke-width:1" /><circle cx="69.555715" cy="742.866084" r="3.749996" style="fill:rgb(0,127,0);stroke-width:1" /><circle cx="68.168566" cy="741.478935" r="3.749996" style="fill:rgb(0,127,0);stroke-width:1" /><circle cx="67.661606" cy="731.846876" r="3.749996" style="fill:rgb(0,127,0);stroke-width:1" /><circle cx="67.202255" cy="723.119102" r="3.749996" style="fill:rgb(0,127,0);stroke-width:1" /><circle cx="67.078114" cy="720.760815" r="3.749996" style="fill:rgb(0,127,0);stroke-width:1" /><circle cx="66.710986" cy="713.785462" r="3.749996" style="fill:rgb(0,127,0);stroke-width:1" /><circle cx="65.669037" cy="693.988189" r="3.749996" style="fill:rgb(0,127,0);stroke-width:1" /><circle cx="65.655135" cy="693.724170" r="3.749996" style="fill:rgb(0,127,0);stroke-width:1" /><circle cx="64.882033" cy="679.035276" r="3.749996" style="fill:rgb(0,127,0);stroke-width:1" /><circle cx="63.972875" cy="661.761537" r="3.749996" style="fill:rgb(0,127,0);stroke-width:1" /><circle cx="63.707247" cy="656.714380" r="3.749996" style="fill:rgb(0,127,0);stroke-width:1" /><circle cx="63.196644" cy="647.012874" r="3.749996" style="fill:rgb(0,127,0);stroke-width:1" /><circle cx="62.888324" cy="641.154818" r="3.749996" style="fill:rgb(0,127,0);stroke-width:1" /><circle cx="62.425062" cy="632.352769" r="3.749996" style="fill:rgb(0,127,0);stroke-width:1" /><circle cx="61.496370" cy="614.707969" r="3.749996" style="fill:rgb(0,127,0);stroke-width:1" /><circle cx="60.976692" cy="614.188269" r="3.749996" style="fill:rgb(0,127,0);stroke-width:1" /><circle cx="59.306100" cy="612.517677" r="3.749996" style="fill:rgb(0,127,0);stroke-width:1" /><circle cx="58.804572" cy="602.988571" r="3.749996" style="fill:rgb(0,127,0);stroke-width:1" /><circle cx="58.577523" cy="598.674729" r="3.749996" style="fill:rgb(0,127,0);stroke-width:1" /><circle cx="58.352217" cy="594.394058" r="3.749996" style="fill:rgb(0,127,0);stroke-width:1" /><circle cx="58.017500" cy="588.034451" r="3.749996" style="fill:rgb(0,127,0);stroke-width:1" /><circle cx="57.947002" cy="586.694822" r="3.749996" style="fill:rgb(0,127,0);stroke-width:1" /><circle cx="56.369975" cy="556.731485" r="3.749996" style="fill:rgb(0,127,0);stroke-width:1" /><circle cx="55.222213" cy="534.923974" r="3.749996" style="fill:rgb(0,127,0);stroke-width:1" /><circle cx="54.495603" cy="521.118432" r="3.749996" style="fill:rgb(0,127,0);stroke-width:1" /><circle cx="53.860232" cy="509.046290" r="3.749996" style="fill:rgb(0,127,0);stroke-width:1" /><circle cx="53.381480" cy="499.949902" r="3.749996" style="fill:rgb(0,127,0);stroke-width:1" /><circle cx="52.789070" cy="488.694102" r="3.749996" style="fill:rgb(0,127,0);stroke-width:1" /><circle cx="51.342443" cy="487.247474" r="3.749996" style="fill:rgb(0,127,0);stroke-width:1" /><circle cx="50.373718" cy="486.278750" r="3.749996" style="fill:rgb(0,127,0);stroke-width:1" /><circle cx="49.162678" cy="485.067733" r="3.749996" style="fill:rgb(0,127,0);stroke-width:1" /><circle cx="48.541948" cy="484.447025" r="3.749996" style="fill:rgb(0,127,0);stroke-width:1" /><circle cx="48.047863" cy="475.059450" r="3.749996" style="fill:rgb(0,127,0);stroke-width:1" /><circle cx="48.019454" cy="474.519912" r="3.749996" style="fill:rgb(0,127,0);stroke-width:1" /><circle cx="46.315245" cy="442.139804" r="3.749996" style="fill:rgb(0,127,0);stroke-width:1" /><circle cx="43.590814" cy="439.415395" r="3.749996" style="fill:rgb(0,127,0);stroke-width:1" /><circle cx="40.866405" cy="436.690953" r="3.749996" style="fill:rgb(0,127,0);stroke-width:1" /><circle cx="38.141973" cy="433.966504" r="3.749996" style="fill:rgb(0,127,0);stroke-width:1" /><circle cx="35.417542" cy="431.242095" r="3.749996" style="fill:rgb(0,127,0);stroke-width:1" /><circle cx="34.378633" cy="411.502683" r="3.749996" style="fill:rgb(0,127,0);stroke-width:1" /><circle cx="34.365535" cy="411.253989" r="3.749996" style="fill:rgb(0,127,0);stroke-width:1" /><circle cx="31.980984" cy="408.869432" r="3.749996" style="fill:rgb(0,127,0);stroke-width:1" /><circle cx="30.178137" cy="407.066597" r="3.749996" style="fill:rgb(0,127,0);stroke-width:1" /><circle cx="29.740781" cy="406.629218" r="3.749996" style="fill:rgb(0,127,0);stroke-width:1" /><circle cx="28.632961" cy="385.580564" r="3.749996" style="fill:rgb(0,127,0);stroke-width:1" /><circle cx="28.482065" cy="385.429680" r="3.749996" style="fill:rgb(0,127,0);stroke-width:1" /><circle cx="26.380464" cy="345.499529" r="3.749996" style="fill:rgb(0,127,0);stroke-width:1" /><circle cx="25.473632" cy="328.269803" r="3.749996" style="fill:rgb(0,127,0);stroke-width:1" /><circle cx="24.776794" cy="315.029740" r="3.749996" style="fill:rgb(0,127,0);stroke-width:1" /><circle cx="22.562653" cy="272.961114" r="3.749996" style="fill:rgb(0,127,0);stroke-width:1" /><circle cx="21.712683" cy="256.811824" r="3.749996" style="fill:rgb(0,127,0);stroke-width:1" /><circle cx="21.063477" cy="244.476669" r="3.749996" style="fill:rgb(0,127,0);stroke-width:1" /><circle cx="19.033268" cy="242.446482" r="3.749996" style="fill:rgb(0,127,0);stroke-width:1" /><circle cx="18.806666" cy="242.219891" r="3.749996" style="fill:rgb(0,127,0);stroke-width:1" /><circle cx="18.748440" cy="241.113603" r="3.749996" style="fill:rgb(0,127,0);stroke-width:1" /><circle cx="18.633083" cy="238.921456" r="3.749996" style="fill:rgb(0,127,0);stroke-width:1" /><circle cx="18.212780" cy="230.935872" r="3.749996" style="fill:rgb(0,127,0);stroke-width:1" /><circle cx="15.177302" cy="227.900438" r="3.749996" style="fill:rgb(0,127,0);stroke-width:1" /><circle cx="12.141846" cy="224.864993" r="3.749996" style="fill:rgb(0,127,0);stroke-width:1" /><circle cx="12.006193" cy="224.729352" r="3.749996" style="fill:rgb(0,127,0);stroke-width:1" /><circle cx="11.873513" cy="224.596672" r="3.749996" style="fill:rgb(0,127,0);stroke-width:1" /><circle cx="11.764705" cy="223.529398" r="3.749996" style="fill:rgb(0,127,0);stroke-width:1" /><circle cx="11.450373" cy="217.557304" r="3.749996" style="fill:rgb(0,127,0);stroke-width:1" /><circle cx="11.363626" cy="215.909131" r="3.749996" style="fill:rgb(0,127,0);stroke-width:1" /><circle cx="11.278197" cy="214.285757" r="3.749996" style="fill:rgb(0,127,0);stroke-width:1" /><circle cx="9.072572" cy="172.379136" r="3.749996" style="fill:rgb(0,127,0);stroke-width:1" /><circle cx="6.276146" cy="119.247012" r="3.749996" style="fill:rgb(0,127,0);stroke-width:1" /><circle cx="3.393665" cy="64.479813" r="3.749996" style="fill:rgb(0,127,0);stroke-width:1" /><circle cx="750.000000" cy="750.000000" r="3.749996" style="fill:rgb(0,127,0);stroke-width:1" /><path stroke-linejoin="round" stroke-linecap="round" stroke="rgb(255,255,255)" stroke-width="3.749996" fill="none" d="M 0.000000 750.000000 L 750.000000 750.000000 M 0.000000 750.000000 L 0.000000 0.000000 " />

</svg>