<svg xmlns="http://www.w3.org/2000/svg" version="1.1" width = "750" height = "750" viewBox = "0 0 750 750"  shape-rendering="crispEdges">
<path stroke-linejoin="round" stroke-linecap="round" stroke="rgb(255,255,0)" stroke-width="3.749996" fill="none" d="M 249.999985 750.000000 L 0.000000 0.000000 " />
<path stroke-linejoin="round" stroke-linecap="round" stroke="rgb(63,63,63)" stroke-width="3.749996" fill="none" d="M 0.000000 0.000000 L 750.000000 750.000000 M 249.999985 750.000000 L 99.999992 0.000000 " />
<path stroke-linejoin="round" stroke-linecap="round" stroke="rgb(191,191,191)" stroke-width="3.749996" fill="none" d="M 0.000000 500.000000 L 249.999985 750.000000 M 0.000000 0.000000 L 150.000015 750.000000 " />
<path stroke-linejoin="round" stroke-linecap="round" stroke="rgb(0,0,255)" stroke-width="1.874998" fill="none" d="M 0.000000 750.000000 L 750.000000 579.545410 " />
<path stroke-linejoin="round" stroke-linecap="round" stroke="rgb(255,0,0)" stroke-width="3.749996" fill="none" d="M 239.130417 695.652161 L 249.999985 750.000000 " />
<path stroke-linejoin="round" stroke-linecap="round" stroke="rgb(0,0,255)" stroke-width="1.874998" fill="none" d="M 0.000000 750.000000 L 750.000000 405.405426 " />
<path stroke-linejoin="round" stroke-linecap="round" stroke="rgb(255,0,0)" stroke-width="3.749996" fill="none" d="M 228.960373 644.802002 L 239.130417 695.652161 " />
<path stroke-linejoin="round" stroke-linecap="round" stroke="rgb(0,0,255)" stroke-width="1.874998" fill="none" d="M 0.000000 750.000000 L 750.000000 384.615356 " />
<path stroke-linejoin="round" stroke-linecap="round" stroke="rgb(255,0,0)" stroke-width="3.749996" fill="none" d="M 227.803772 639.018677 L 228.960373 644.802002 " />
<path stroke-linejoin="round" stroke-linecap="round" stroke="rgb(0,0,255)" stroke-width="1.874998" fill="none" d="M 0.000000 750.000000 L 750.000000 355.263153 " />
<path stroke-linejoin="round" stroke-linecap="round" stroke="rgb(255,0,0)" stroke-width="3.749996" fill="none" d="M 226.190506 630.952393 L 227.803772 639.018677 " />
<path stroke-linejoin="round" stroke-linecap="round" stroke="rgb(0,0,255)" stroke-width="1.874998" fill="none" d="M 0.000000 750.000000 L 750.000000 315.789490 " />
<path stroke-linejoin="round" stroke-linecap="round" stroke="rgb(255,0,0)" stroke-width="3.749996" fill="none" d="M 224.056625 620.283020 L 226.190506 630.952393 " />
<path stroke-linejoin="round" stroke-linecap="round" stroke="rgb(0,0,255)" stroke-width="1.874998" fill="none" d="M 0.000000 750.000000 L 750.000000 249.999985 " />
<path stroke-linejoin="round" stroke-linecap="round" stroke="rgb(255,0,0)" stroke-width="3.749996" fill="none" d="M 220.588272 602.941162 L 224.056625 620.283020 " />
<path stroke-linejoin="round" stroke-linecap="round" stroke="rgb(0,0,255)" stroke-width="1.874998" fill="none" d="M 0.000000 750.000000 L 750.000000 90.909096 " />
<path stroke-linejoin="round" stroke-linecap="round" stroke="rgb(255,0,0)" stroke-width="3.749996" fill="none" d="M 212.628906 563.144287 L 220.588272 602.941162 " />
<path stroke-linejoin="round" stroke-linecap="round" stroke="rgb(0,0,255)" stroke-width="1.874998" fill="none" d="M 0.000000 750.000000 L 750.000000 45.454548 " />
<path stroke-linejoin="round" stroke-linecap="round" stroke="rgb(255,0,0)" stroke-width="3.749996" fill="none" d="M 210.459213 552.295898 L 212.628906 563.144287 " />
<path stroke-linejoin="round" stroke-linecap="round" stroke="rgb(0,0,255)" stroke-width="1.874998" fill="none" d="M 0.000000 750.000000 L 750.000000 44.117645 " />
<path stroke-linejoin="round" stroke-linecap="round" stroke="rgb(255,0,0)" stroke-width="3.749996" fill="none" d="M 210.396103 551.980164 L 210.459213 552.295898 " />
<path stroke-linejoin="round" stroke-linecap="round" stroke="rgb(0,0,255)" stroke-width="1.874998" fill="none" d="M 0.000000 750.000000 L 615.384644 0.000000 " />
<path stroke-linejoin="round" stroke-linecap="round" stroke="rgb(255,0,0)" stroke-width="3.749996" fill="none" d="M 201.005051 505.025085 L 210.396103 551.980164 " />
<path stroke-linejoin="round" stroke-linecap="round" stroke="rgb(0,0,255)" stroke-width="1.874998" fill="none" d="M 0.000000 750.000000 L 548.780518 0.000000 " />
<path stroke-linejoin="round" stroke-linecap="round" stroke="rgb(255,0,0)" stroke-width="3.749996" fill="none" d="M 196.335114 481.675354 L 201.005051 505.025085 " />
<path stroke-linejoin="round" stroke-linecap="round" stroke="rgb(0,0,255)" stroke-width="1.874998" fill="none" d="M 0.000000 750.000000 L 533.333374 0.000000 " />
<path stroke-linejoin="round" stroke-linecap="round" stroke="rgb(255,0,0)" stroke-width="3.749996" fill="none" d="M 195.121994 475.609711 L 196.335114 481.675354 " />
<path stroke-linejoin="round" stroke-linecap="round" stroke="rgb(0,0,255)" stroke-width="1.874998" fill="none" d="M 0.000000 750.000000 L 455.882385 0.000000 " />
<path stroke-linejoin="round" stroke-linecap="round" stroke="rgb(255,0,0)" stroke-width="3.749996" fill="none" d="M 188.106857 440.533936 L 195.121994 475.609711 " />
<path stroke-linejoin="round" stroke-linecap="round" stroke="rgb(0,0,255)" stroke-width="1.874998" fill="none" d="M 0.000000 750.000000 L 432.692291 0.000000 " />
<path stroke-linejoin="round" stroke-linecap="round" stroke="rgb(255,0,0)" stroke-width="3.749996" fill="none" d="M 185.643600 428.217743 L 188.106857 440.533936 " />
<path stroke-linejoin="round" stroke-linecap="round" stroke="rgb(0,0,255)" stroke-width="1.874998" fill="none" d="M 0.000000 750.000000 L 416.666687 0.000000 " />
<path stroke-linejoin="round" stroke-linecap="round" stroke="rgb(255,0,0)" stroke-width="3.749996" fill="none" d="M 183.823563 419.117615 L 185.643600 428.217743 " />
<path stroke-linejoin="round" stroke-linecap="round" stroke="rgb(0,0,255)" stroke-width="1.874998" fill="none" d="M 0.000000 750.000000 L 387.931061 0.000000 " />
<path stroke-linejoin="round" stroke-linecap="round" stroke="rgb(255,0,0)" stroke-width="3.749996" fill="none" d="M 180.288498 401.442230 L 183.823563 419.117615 " />
<path stroke-linejoin="round" stroke-linecap="round" stroke="rgb(0,0,255)" stroke-width="1.874998" fill="none" d="M 0.000000 750.000000 L 375.000000 0.000000 " />
<path stroke-linejoin="round" stroke-linecap="round" stroke="rgb(255,0,0)" stroke-width="3.749996" fill="none" d="M 178.571457 392.857086 L 180.288498 401.442230 " />
<path stroke-linejoin="round" stroke-linecap="round" stroke="rgb(0,0,255)" stroke-width="1.874998" fill="none" d="M 0.000000 750.000000 L 367.924530 0.000000 " />
<path stroke-linejoin="round" stroke-linecap="round" stroke="rgb(255,0,0)" stroke-width="3.749996" fill="none" d="M 176.311081 390.596649 L 178.571457 392.857086 " />
<path stroke-linejoin="round" stroke-linecap="round" stroke="rgb(0,0,255)" stroke-width="1.874998" fill="none" d="M 0.000000 750.000000 L 356.557343 0.000000 " />
<path stroke-linejoin="round" stroke-linecap="round" stroke="rgb(255,0,0)" stroke-width="3.749996" fill="none" d="M 174.698059 382.531586 L 176.311081 390.596649 " />
<path stroke-linejoin="round" stroke-linecap="round" stroke="rgb(0,0,255)" stroke-width="1.874998" fill="none" d="M 0.000000 750.000000 L 345.238098 0.000000 " />
<path stroke-linejoin="round" stroke-linecap="round" stroke="rgb(255,0,0)" stroke-width="3.749996" fill="none" d="M 173.018280 374.132690 L 174.698059 382.531586 " />
<path stroke-linejoin="round" stroke-linecap="round" stroke="rgb(0,0,255)" stroke-width="1.874998" fill="none" d="M 0.000000 750.000000 L 311.538452 0.000000 " />
<path stroke-linejoin="round" stroke-linecap="round" stroke="rgb(255,0,0)" stroke-width="3.749996" fill="none" d="M 167.529419 346.688416 L 173.018280 374.132690 " />
<path stroke-linejoin="round" stroke-linecap="round" stroke="rgb(0,0,255)" stroke-width="1.874998" fill="none" d="M 0.000000 750.000000 L 288.461548 0.000000 " />
<path stroke-linejoin="round" stroke-linecap="round" stroke="rgb(255,0,0)" stroke-width="3.749996" fill="none" d="M 163.284058 325.461487 L 167.529419 346.688416 " />
<path stroke-linejoin="round" stroke-linecap="round" stroke="rgb(0,0,255)" stroke-width="1.874998" fill="none" d="M 0.000000 750.000000 L 279.850739 0.000000 " />
<path stroke-linejoin="round" stroke-linecap="round" stroke="rgb(255,0,0)" stroke-width="3.749996" fill="none" d="M 161.583176 316.957092 L 163.284058 325.461456 " />
<path stroke-linejoin="round" stroke-linecap="round" stroke="rgb(0,0,255)" stroke-width="1.874998" fill="none" d="M 0.000000 750.000000 L 240.000000 0.000000 " />
<path stroke-linejoin="round" stroke-linecap="round" stroke="rgb(255,0,0)" stroke-width="3.749996" fill="none" d="M 152.733414 272.708099 L 161.583176 316.957092 " />
<path stroke-linejoin="round" stroke-linecap="round" stroke="rgb(0,0,255)" stroke-width="1.874998" fill="none" d="M 0.000000 750.000000 L 203.703690 0.000000 " />
<path stroke-linejoin="round" stroke-linecap="round" stroke="rgb(255,0,0)" stroke-width="3.749996" fill="none" d="M 142.937668 223.729446 L 152.733414 272.708099 " />
<path stroke-linejoin="round" stroke-linecap="round" stroke="rgb(0,0,255)" stroke-width="1.874998" fill="none" d="M 0.000000 750.000000 L 189.560425 0.000000 " />
<path stroke-linejoin="round" stroke-linecap="round" stroke="rgb(255,0,0)" stroke-width="3.749996" fill="none" d="M 138.553665 201.809402 L 142.937668 223.729446 " />
<path stroke-linejoin="round" stroke-linecap="round" stroke="rgb(0,0,255)" stroke-width="1.874998" fill="none" d="M 0.000000 750.000000 L 179.347824 0.000000 " />
<path stroke-linejoin="round" stroke-linecap="round" stroke="rgb(255,0,0)" stroke-width="3.749996" fill="none" d="M 135.153946 184.810745 L 138.553665 201.809402 " />
<path stroke-linejoin="round" stroke-linecap="round" stroke="rgb(0,0,255)" stroke-width="1.874998" fill="none" d="M 0.000000 750.000000 L 169.642883 0.000000 " />
<path stroke-linejoin="round" stroke-linecap="round" stroke="rgb(255,0,0)" stroke-width="3.749996" fill="none" d="M 129.189529 178.846298 L 135.153946 184.810745 " />
<path stroke-linejoin="round" stroke-linecap="round" stroke="rgb(0,0,255)" stroke-width="1.874998" fill="none" d="M 0.000000 750.000000 L 158.823517 0.000000 " />
<path stroke-linejoin="round" stroke-linecap="round" stroke="rgb(255,0,0)" stroke-width="3.749996" fill="none" d="M 122.390068 172.046829 L 129.189529 178.846298 " />
<path stroke-linejoin="round" stroke-linecap="round" stroke="rgb(0,0,255)" stroke-width="1.874998" fill="none" d="M 0.000000 750.000000 L 134.210526 0.000000 " />
<path stroke-linejoin="round" stroke-linecap="round" stroke="rgb(255,0,0)" stroke-width="3.749996" fill="none" d="M 112.379776 121.995384 L 122.390068 172.046829 " />
<path stroke-linejoin="round" stroke-linecap="round" stroke="rgb(0,0,255)" stroke-width="1.874998" fill="none" d="M 0.000000 750.000000 L 128.571426 0.000000 " />
<path stroke-linejoin="round" stroke-linecap="round" stroke="rgb(255,0,0)" stroke-width="3.749996" fill="none" d="M 109.756081 109.756104 L 112.379776 121.995384 " />
<path stroke-linejoin="round" stroke-linecap="round" stroke="rgb(0,0,255)" stroke-width="1.874998" fill="none" d="M 0.000000 750.000000 L 120.283012 0.000000 " />
<path stroke-linejoin="round" stroke-linecap="round" stroke="rgb(255,0,0)" stroke-width="3.749996" fill="none" d="M 103.658524 103.658546 L 109.756081 109.756104 " />
<path stroke-linejoin="round" stroke-linecap="round" stroke="rgb(0,0,255)" stroke-width="1.874998" fill="none" d="M 0.000000 750.000000 L 119.680840 0.000000 " />
<path stroke-linejoin="round" stroke-linecap="round" stroke="rgb(255,0,0)" stroke-width="3.749996" fill="none" d="M 103.210999 103.211044 L 103.658524 103.658546 " />
<path stroke-linejoin="round" stroke-linecap="round" stroke="rgb(0,0,255)" stroke-width="1.874998" fill="none" d="M 0.000000 750.000000 L 110.526321 0.000000 " />
<path stroke-linejoin="round" stroke-linecap="round" stroke="rgb(255,0,0)" stroke-width="3.749996" fill="none" d="M 96.330261 96.330353 L 103.210999 103.211113 " />
<path stroke-linejoin="round" stroke-linecap="round" stroke="rgb(0,0,255)" stroke-width="1.874998" fill="none" d="M 0.000000 750.000000 L 108.247429 0.000000 " />
<path stroke-linejoin="round" stroke-linecap="round" stroke="rgb(255,0,0)" stroke-width="3.749996" fill="none" d="M 94.594582 94.594650 L 96.330261 96.330353 " />
<path stroke-linejoin="round" stroke-linecap="round" stroke="rgb(0,0,255)" stroke-width="1.874998" fill="none" d="M 0.000000 750.000000 L 95.454544 0.000000 " />
<path stroke-linejoin="round" stroke-linecap="round" stroke="rgb(255,0,0)" stroke-width="3.749996" fill="none" d="M 84.677406 84.677521 L 94.594582 94.594719 " />
<path stroke-linejoin="round" stroke-linecap="round" stroke="rgb(0,0,255)" stroke-width="1.874998" fill="none" d="M 0.000000 750.000000 L 93.750000 0.000000 " />
<path stroke-linejoin="round" stroke-linecap="round" stroke="rgb(255,0,0)" stroke-width="3.749996" fill="none" d="M 83.333328 83.333443 L 84.677406 84.677521 " />
<path stroke-linejoin="round" stroke-linecap="round" stroke="rgb(0,0,255)" stroke-width="1.874998" fill="none" d="M 0.000000 750.000000 L 91.981125 0.000000 " />
<path stroke-linejoin="round" stroke-linecap="round" stroke="rgb(255,0,0)" stroke-width="3.749996" fill="none" d="M 81.932770 81.932899 L 83.333328 83.333443 " />
<path stroke-linejoin="round" stroke-linecap="round" stroke="rgb(0,0,255)" stroke-width="1.874998" fill="none" d="M 0.000000 750.000000 L 84.112152 0.000000 " />
<path stroke-linejoin="round" stroke-linecap="round" stroke="rgb(255,0,0)" stroke-width="3.749996" fill="none" d="M 75.630249 75.630318 L 81.932770 81.932899 " />
<path stroke-linejoin="round" stroke-linecap="round" stroke="rgb(0,0,255)" stroke-width="1.874998" fill="none" d="M 0.000000 750.000000 L 77.102806 0.000000 " />
<path stroke-linejoin="round" stroke-linecap="round" stroke="rgb(255,0,0)" stroke-width="3.749996" fill="none" d="M 69.915245 69.915291 L 75.630249 75.630318 " />
<path stroke-linejoin="round" stroke-linecap="round" stroke="rgb(0,0,255)" stroke-width="1.874998" fill="none" d="M 0.000000 750.000000 L 75.688072 0.000000 " />
<path stroke-linejoin="round" stroke-linecap="round" stroke="rgb(255,0,0)" stroke-width="3.749996" fill="none" d="M 68.750000 68.750023 L 69.915245 69.915291 " />
<path stroke-linejoin="round" stroke-linecap="round" stroke="rgb(0,0,255)" stroke-width="1.874998" fill="none" d="M 0.000000 750.000000 L 69.915268 0.000000 " />
<path stroke-linejoin="round" stroke-linecap="round" stroke="rgb(255,0,0)" stroke-width="3.749996" fill="none" d="M 63.953495 63.953453 L 68.750000 68.749954 " />
<path stroke-linejoin="round" stroke-linecap="round" stroke="rgb(0,0,255)" stroke-width="1.874998" fill="none" d="M 0.000000 750.000000 L 68.181824 0.000000 " />
<path stroke-linejoin="round" stroke-linecap="round" stroke="rgb(255,0,0)" stroke-width="3.749996" fill="none" d="M 62.500008 62.500008 L 63.953495 63.953453 " />
<path stroke-linejoin="round" stroke-linecap="round" stroke="rgb(0,0,255)" stroke-width="1.874998" fill="none" d="M 0.000000 750.000000 L 61.363621 0.000000 " />
<path stroke-linejoin="round" stroke-linecap="round" stroke="rgb(255,0,0)" stroke-width="3.749996" fill="none" d="M 56.722687 56.722710 L 62.500008 62.499939 " />
<path stroke-linejoin="round" stroke-linecap="round" stroke="rgb(0,0,255)" stroke-width="1.874998" fill="none" d="M 0.000000 750.000000 L 54.054066 0.000000 " />
<path stroke-linejoin="round" stroke-linecap="round" stroke="rgb(255,0,0)" stroke-width="3.749996" fill="none" d="M 50.420166 50.420231 L 56.722687 56.722710 " />
<path stroke-linejoin="round" stroke-linecap="round" stroke="rgb(0,0,255)" stroke-width="1.874998" fill="none" d="M 0.000000 750.000000 L 53.097343 0.000000 " />
<path stroke-linejoin="round" stroke-linecap="round" stroke="rgb(255,0,0)" stroke-width="3.749996" fill="none" d="M 49.586758 49.586891 L 50.420166 50.420277 " />
<path stroke-linejoin="round" stroke-linecap="round" stroke="rgb(0,0,255)" stroke-width="1.874998" fill="none" d="M 0.000000 750.000000 L 50.970867 0.000000 " />
<path stroke-linejoin="round" stroke-linecap="round" stroke="rgb(255,0,0)" stroke-width="3.749996" fill="none" d="M 47.727272 47.727341 L 49.586758 49.586891 " />
<path stroke-linejoin="round" stroke-linecap="round" stroke="rgb(0,0,255)" stroke-width="1.874998" fill="none" d="M 0.000000 750.000000 L 43.269218 0.000000 " />
<path stroke-linejoin="round" stroke-linecap="round" stroke="rgb(255,0,0)" stroke-width="3.749996" fill="none" d="M 40.909096 40.909164 L 47.727272 47.727341 " />
<path stroke-linejoin="round" stroke-linecap="round" stroke="rgb(0,0,255)" stroke-width="1.874998" fill="none" d="M 0.000000 750.000000 L 42.452843 0.000000 " />
<path stroke-linejoin="round" stroke-linecap="round" stroke="rgb(255,0,0)" stroke-width="3.749996" fill="none" d="M 40.178574 40.178665 L 40.909096 40.909164 " />
<path stroke-linejoin="round" stroke-linecap="round" stroke="rgb(0,0,255)" stroke-width="1.874998" fill="none" d="M 0.000000 750.000000 L 41.666664 0.000000 " />
<path stroke-linejoin="round" stroke-linecap="round" stroke="rgb(255,0,0)" stroke-width="3.749996" fill="none" d="M 39.473667 39.473778 L 40.178574 40.178665 " />
<path stroke-linejoin="round" stroke-linecap="round" stroke="rgb(0,0,255)" stroke-width="1.874998" fill="none" d="M 0.000000 750.000000 L 40.178574 0.000000 " />
<path stroke-linejoin="round" stroke-linecap="round" stroke="rgb(255,0,0)" stroke-width="3.749996" fill="none" d="M 38.135582 38.135715 L 39.473667 39.473778 " />
<path stroke-linejoin="round" stroke-linecap="round" stroke="rgb(0,0,255)" stroke-width="1.874998" fill="none" d="M 0.000000 750.000000 L 39.473690 0.000000 " />
<path stroke-linejoin="round" stroke-linecap="round" stroke="rgb(255,0,0)" stroke-width="3.749996" fill="none" d="M 37.499985 37.500145 L 38.135582 38.135715 " />
<path stroke-linejoin="round" stroke-linecap="round" stroke="rgb(0,0,255)" stroke-width="1.874998" fill="none" d="M 0.000000 750.000000 L 39.130436 0.000000 " />
<path stroke-linejoin="round" stroke-linecap="round" stroke="rgb(255,0,0)" stroke-width="3.749996" fill="none" d="M 37.190079 37.190147 L 37.499985 37.500145 " />
<path stroke-linejoin="round" stroke-linecap="round" stroke="rgb(0,0,255)" stroke-width="1.874998" fill="none" d="M 0.000000 750.000000 L 36.885246 0.000000 " />
<path stroke-linejoin="round" stroke-linecap="round" stroke="rgb(255,0,0)" stroke-width="3.749996" fill="none" d="M 35.156250 35.156319 L 37.190079 37.190147 " />
<path stroke-linejoin="round" stroke-linecap="round" stroke="rgb(0,0,255)" stroke-width="1.874998" fill="none" d="M 0.000000 750.000000 L 32.327591 0.000000 " />
<path stroke-linejoin="round" stroke-linecap="round" stroke="rgb(255,0,0)" stroke-width="3.749996" fill="none" d="M 30.991741 30.991785 L 35.156250 35.156319 " />
<path stroke-linejoin="round" stroke-linecap="round" stroke="rgb(0,0,255)" stroke-width="1.874998" fill="none" d="M 0.000000 750.000000 L 32.051281 0.000000 " />
<path stroke-linejoin="round" stroke-linecap="round" stroke="rgb(255,0,0)" stroke-width="3.749996" fill="none" d="M 30.737713 30.737825 L 30.991741 30.991785 " />
<path stroke-linejoin="round" stroke-linecap="round" stroke="rgb(0,0,255)" stroke-width="1.874998" fill="none" d="M 0.000000 750.000000 L 25.423721 0.000000 " />
<path stroke-linejoin="round" stroke-linecap="round" stroke="rgb(255,0,0)" stroke-width="3.749996" fill="none" d="M 24.590157 24.590246 L 30.737713 30.737825 " />
<path stroke-linejoin="round" stroke-linecap="round" stroke="rgb(0,0,255)" stroke-width="1.874998" fill="none" d="M 0.000000 750.000000 L 25.210083 0.000000 " />
<path stroke-linejoin="round" stroke-linecap="round" stroke="rgb(255,0,0)" stroke-width="3.749996" fill="none" d="M 24.390244 24.390333 L 24.590157 24.590246 " />
<path stroke-linejoin="round" stroke-linecap="round" stroke="rgb(0,0,255)" stroke-width="1.874998" fill="none" d="M 0.000000 750.000000 L 24.000004 0.000000 " />
<path stroke-linejoin="round" stroke-linecap="round" stroke="rgb(255,0,0)" stroke-width="3.749996" fill="none" d="M 23.255825 23.255825 L 24.390244 24.390333 " />
<path stroke-linejoin="round" stroke-linecap="round" stroke="rgb(0,0,255)" stroke-width="1.874998" fill="none" d="M 0.000000 750.000000 L 23.255825 0.000000 " />
<path stroke-linejoin="round" stroke-linecap="round" stroke="rgb(255,0,0)" stroke-width="3.749996" fill="none" d="M 22.556395 22.556372 L 23.255825 23.255825 " />
<circle cx="239.130434" cy="695.652165" r="3.749996" style="fill:rgb(0,127,0);stroke-width:1" /><circle cx="228.960391" cy="644.801974" r="3.749996" style="fill:rgb(0,127,0);stroke-width:1" /><circle cx="227.803756" cy="639.018685" r="3.749996" style="fill:rgb(0,127,0);stroke-width:1" /><circle cx="226.190496" cy="630.952366" r="3.749996" style="fill:rgb(0,127,0);stroke-width:1" /><circle cx="224.056620" cy="620.283008" r="3.749996" style="fill:rgb(0,127,0);stroke-width:1" /><circle cx="220.588267" cy="602.941163" r="3.749996" style="fill:rgb(0,127,0);stroke-width:1" /><circle cx="212.628901" cy="563.144289" r="3.749996" style="fill:rgb(0,127,0);stroke-width:1" /><circle cx="210.459217" cy="552.295893" r="3.749996" style="fill:rgb(0,127,0);stroke-width:1" /><circle cx="210.396085" cy="551.980153" r="3.749996" style="fill:rgb(0,127,0);stroke-width:1" /><circle cx="201.005068" cy="505.025078" r="3.749996" style="fill:rgb(0,127,0);stroke-width:1" /><circle cx="196.335118" cy="481.675331" r="3.749996" style="fill:rgb(0,127,0);stroke-width:1" /><circle cx="195.121989" cy="475.609694" r="3.749996" style="fill:rgb(0,127,0);stroke-width:1" /><circle cx="188.106827" cy="440.533904" r="3.750002" style="fill:rgb(0,127,0);stroke-width:1" /><circle cx="185.643598" cy="428.217771" r="3.749996" style="fill:rgb(0,127,0);stroke-width:1" /><circle cx="183.823563" cy="419.117600" r="3.749996" style="fill:rgb(0,127,0);stroke-width:1" /><circle cx="180.288501" cy="401.442259" r="3.749996" style="fill:rgb(0,127,0);stroke-width:1" /><circle cx="178.571463" cy="392.857075" r="3.749996" style="fill:rgb(0,127,0);stroke-width:1" /><circle cx="176.311076" cy="390.596658" r="3.749996" style="fill:rgb(0,127,0);stroke-width:1" /><circle cx="174.698062" cy="382.531613" r="3.749996" style="fill:rgb(0,127,0);stroke-width:1" /><circle cx="173.018284" cy="374.132693" r="3.749996" style="fill:rgb(0,127,0);stroke-width:1" /><circle cx="167.529412" cy="346.688421" r="3.749996" style="fill:rgb(0,127,0);stroke-width:1" /><circle cx="163.284056" cy="325.461477" r="3.749996" style="fill:rgb(0,127,0);stroke-width:1" /><circle cx="161.583178" cy="316.957086" r="3.749996" style="fill:rgb(0,127,0);stroke-width:1" /><circle cx="152.733408" cy="272.708114" r="3.749996" style="fill:rgb(0,127,0);stroke-width:1" /><circle cx="142.937668" cy="223.729435" r="3.749996" style="fill:rgb(0,127,0);stroke-width:1" /><circle cx="138.553664" cy="201.809406" r="3.749996" style="fill:rgb(0,127,0);stroke-width:1" /><circle cx="135.153942" cy="184.810750" r="3.749996" style="fill:rgb(0,127,0);stroke-width:1" /><circle cx="129.189536" cy="178.846300" r="3.749996" style="fill:rgb(0,127,0);stroke-width:1" /><circle cx="122.390069" cy="172.046833" r="3.749996" style="fill:rgb(0,127,0);stroke-width:1" /><circle cx="112.379774" cy="121.995382" r="3.749996" style="fill:rgb(0,127,0);stroke-width:1" /><circle cx="109.756082" cy="109.756105" r="3.749996" style="fill:rgb(0,127,0);stroke-width:1" /><circle cx="103.658527" cy="103.658549" r="3.749996" style="fill:rgb(0,127,0);stroke-width:1" /><circle cx="103.211001" cy="103.211045" r="3.749996" style="fill:rgb(0,127,0);stroke-width:1" /><circle cx="96.330263" cy="96.330352" r="3.749996" style="fill:rgb(0,127,0);stroke-width:1" /><circle cx="94.594583" cy="94.594650" r="3.749996" style="fill:rgb(0,127,0);stroke-width:1" /><circle cx="84.677406" cy="84.677517" r="3.749996" style="fill:rgb(0,127,0);stroke-width:1" /><circle cx="83.333328" cy="83.333440" r="3.749996" style="fill:rgb(0,127,0);stroke-width:1" /><circle cx="81.932768" cy="81.932902" r="3.749996" style="fill:rgb(0,127,0);stroke-width:1" /><circle cx="75.630248" cy="75.630315" r="3.749996" style="fill:rgb(0,127,0);stroke-width:1" /><circle cx="69.915242" cy="69.915287" r="3.749996" style="fill:rgb(0,127,0);stroke-width:1" /><circle cx="68.750001" cy="68.750024" r="3.749996" style="fill:rgb(0,127,0);stroke-width:1" /><circle cx="63.953497" cy="63.953452" r="3.749996" style="fill:rgb(0,127,0);stroke-width:1" /><circle cx="62.500007" cy="62.500007" r="3.749996" style="fill:rgb(0,127,0);stroke-width:1" /><circle cx="56.722686" cy="56.722708" r="3.749996" style="fill:rgb(0,127,0);stroke-width:1" /><circle cx="50.420165" cy="50.420232" r="3.749996" style="fill:rgb(0,127,0);stroke-width:1" /><circle cx="49.586758" cy="49.586892" r="3.749996" style="fill:rgb(0,127,0);stroke-width:1" /><circle cx="47.727272" cy="47.727339" r="3.749996" style="fill:rgb(0,127,0);stroke-width:1" /><circle cx="40.909097" cy="40.909164" r="3.749996" style="fill:rgb(0,127,0);stroke-width:1" /><circle cx="40.178575" cy="40.178664" r="3.749996" style="fill:rgb(0,127,0);stroke-width:1" /><circle cx="39.473668" cy="39.473779" r="3.749996" style="fill:rgb(0,127,0);stroke-width:1" /><circle cx="38.135581" cy="38.135715" r="3.749996" style="fill:rgb(0,127,0);stroke-width:1" /><circle cx="37.499987" cy="37.500143" r="3.749996" style="fill:rgb(0,127,0);stroke-width:1" /><circle cx="37.190080" cy="37.190147" r="3.749996" style="fill:rgb(0,127,0);stroke-width:1" /><circle cx="35.156250" cy="35.156317" r="3.749996" style="fill:rgb(0,127,0);stroke-width:1" /><circle cx="30.991741" cy="30.991785" r="3.749996" style="fill:rgb(0,127,0);stroke-width:1" /><circle cx="30.737713" cy="30.737825" r="3.749996" style="fill:rgb(0,127,0);stroke-width:1" /><circle cx="24.590157" cy="24.590246" r="3.749996" style="fill:rgb(0,127,0);stroke-width:1" /><circle cx="24.390243" cy="24.390332" r="3.749996" style="fill:rgb(0,127,0);stroke-width:1" /><circle cx="23.255825" cy="23.255825" r="3.749996" style="fill:rgb(0,127,0);stroke-width:1" /><circle cx="22.556394" cy="22.556372" r="3.749996" style="fill:rgb(0,127,0);stroke-width:1" /><path stroke-linejoin="round" stroke-linecap="round" stroke="rgb(255,255,255)" stroke-width="3.749996" fill="none" d="M 0.000000 750.000000 L 750.000000 750.000000 M 0.000000 750.000000 L 0.000000 0.000000 " />

</svg>