<svg xmlns="http://www.w3.org/2000/svg" version="1.1" width = "750" height = "750" viewBox = "0 0 750 750"  shape-rendering="crispEdges">
<path stroke-linejoin="round" stroke-linecap="round" stroke="rgb(255,255,0)" stroke-width="3.749996" fill="none" d="M 187.500000 750.000000 L 0.000000 0.000000 " />
<path stroke-linejoin="round" stroke-linecap="round" stroke="rgb(63,63,63)" stroke-width="3.749996" fill="none" d="M 0.000000 0.000000 L 750.000000 750.000000 M 187.500000 750.000000 L 80.357147 0.000000 " />
<path stroke-linejoin="round" stroke-linecap="round" stroke="rgb(191,191,191)" stroke-width="3.749996" fill="none" d="M 0.000000 562.500000 L 187.500000 750.000000 M 0.000000 0.000000 L 107.142853 750.000000 " />
<path stroke-linejoin="round" stroke-linecap="round" stroke="rgb(0,0,255)" stroke-width="1.874998" fill="none" d="M 0.000000 750.000000 L 750.000000 732.142822 " />
<path stroke-linejoin="round" stroke-linecap="round" stroke="rgb(255,0,0)" stroke-width="3.749996" fill="none" d="M 186.864410 745.550842 L 187.500000 750.000000 " />
<path stroke-linejoin="round" stroke-linecap="round" stroke="rgb(0,0,255)" stroke-width="1.874998" fill="none" d="M 0.000000 750.000000 L 750.000000 548.780518 " />
<path stroke-linejoin="round" stroke-linecap="round" stroke="rgb(255,0,0)" stroke-width="3.749996" fill="none" d="M 178.944336 701.990540 L 186.864410 745.550842 " />
<path stroke-linejoin="round" stroke-linecap="round" stroke="rgb(0,0,255)" stroke-width="1.874998" fill="none" d="M 0.000000 750.000000 L 750.000000 473.684204 " />
<path stroke-linejoin="round" stroke-linecap="round" stroke="rgb(255,0,0)" stroke-width="3.749996" fill="none" d="M 175.891129 685.197998 L 178.944305 701.990540 " />
<path stroke-linejoin="round" stroke-linecap="round" stroke="rgb(0,0,255)" stroke-width="1.874998" fill="none" d="M 0.000000 750.000000 L 750.000000 445.945953 " />
<path stroke-linejoin="round" stroke-linecap="round" stroke="rgb(255,0,0)" stroke-width="3.749996" fill="none" d="M 174.789566 679.139343 L 175.891129 685.197998 " />
<path stroke-linejoin="round" stroke-linecap="round" stroke="rgb(0,0,255)" stroke-width="1.874998" fill="none" d="M 0.000000 750.000000 L 750.000000 434.210510 " />
<path stroke-linejoin="round" stroke-linecap="round" stroke="rgb(255,0,0)" stroke-width="3.749996" fill="none" d="M 174.327667 676.598877 L 174.789566 679.139343 " />
<path stroke-linejoin="round" stroke-linecap="round" stroke="rgb(0,0,255)" stroke-width="1.874998" fill="none" d="M 0.000000 750.000000 L 750.000000 394.736847 " />
<path stroke-linejoin="round" stroke-linecap="round" stroke="rgb(255,0,0)" stroke-width="3.749996" fill="none" d="M 172.791733 668.151245 L 174.327667 676.598877 " />
<path stroke-linejoin="round" stroke-linecap="round" stroke="rgb(0,0,255)" stroke-width="1.874998" fill="none" d="M 0.000000 750.000000 L 750.000000 364.864868 " />
<path stroke-linejoin="round" stroke-linecap="round" stroke="rgb(255,0,0)" stroke-width="3.749996" fill="none" d="M 171.647293 661.856812 L 172.791733 668.151245 " />
<path stroke-linejoin="round" stroke-linecap="round" stroke="rgb(0,0,255)" stroke-width="1.874998" fill="none" d="M 0.000000 750.000000 L 750.000000 324.324310 " />
<path stroke-linejoin="round" stroke-linecap="round" stroke="rgb(255,0,0)" stroke-width="3.749996" fill="none" d="M 170.118118 653.446472 L 171.647293 661.856812 " />
<path stroke-linejoin="round" stroke-linecap="round" stroke="rgb(0,0,255)" stroke-width="1.874998" fill="none" d="M 0.000000 750.000000 L 750.000000 257.142853 " />
<path stroke-linejoin="round" stroke-linecap="round" stroke="rgb(255,0,0)" stroke-width="3.749996" fill="none" d="M 167.643234 639.834412 L 170.118118 653.446472 " />
<path stroke-linejoin="round" stroke-linecap="round" stroke="rgb(0,0,255)" stroke-width="1.874998" fill="none" d="M 0.000000 750.000000 L 750.000000 214.285706 " />
<path stroke-linejoin="round" stroke-linecap="round" stroke="rgb(255,0,0)" stroke-width="3.749996" fill="none" d="M 166.101654 631.355957 L 167.643234 639.834412 " />
<path stroke-linejoin="round" stroke-linecap="round" stroke="rgb(0,0,255)" stroke-width="1.874998" fill="none" d="M 0.000000 750.000000 L 750.000000 136.363647 " />
<path stroke-linejoin="round" stroke-linecap="round" stroke="rgb(255,0,0)" stroke-width="3.749996" fill="none" d="M 163.370285 616.333435 L 166.101654 631.355957 " />
<path stroke-linejoin="round" stroke-linecap="round" stroke="rgb(0,0,255)" stroke-width="1.874998" fill="none" d="M 0.000000 750.000000 L 750.000000 93.750000 " />
<path stroke-linejoin="round" stroke-linecap="round" stroke="rgb(255,0,0)" stroke-width="3.749996" fill="none" d="M 161.914230 608.325073 L 163.370285 616.333435 " />
<path stroke-linejoin="round" stroke-linecap="round" stroke="rgb(0,0,255)" stroke-width="1.874998" fill="none" d="M 0.000000 750.000000 L 750.000000 46.875000 " />
<path stroke-linejoin="round" stroke-linecap="round" stroke="rgb(255,0,0)" stroke-width="3.749996" fill="none" d="M 160.342255 599.679138 L 161.914230 608.325073 " />
<path stroke-linejoin="round" stroke-linecap="round" stroke="rgb(0,0,255)" stroke-width="1.874998" fill="none" d="M 0.000000 750.000000 L 703.124939 0.000000 " />
<path stroke-linejoin="round" stroke-linecap="round" stroke="rgb(255,0,0)" stroke-width="3.749996" fill="none" d="M 157.188309 582.332458 L 160.342255 599.679138 " />
<path stroke-linejoin="round" stroke-linecap="round" stroke="rgb(0,0,255)" stroke-width="1.874998" fill="none" d="M 0.000000 750.000000 L 664.285706 0.000000 " />
<path stroke-linejoin="round" stroke-linecap="round" stroke="rgb(255,0,0)" stroke-width="3.749996" fill="none" d="M 155.709503 574.198975 L 157.188309 582.332458 " />
<path stroke-linejoin="round" stroke-linecap="round" stroke="rgb(0,0,255)" stroke-width="1.874998" fill="none" d="M 0.000000 750.000000 L 547.297302 0.000000 " />
<path stroke-linejoin="round" stroke-linecap="round" stroke="rgb(255,0,0)" stroke-width="3.749996" fill="none" d="M 150.239822 544.115784 L 155.709503 574.198975 " />
<path stroke-linejoin="round" stroke-linecap="round" stroke="rgb(0,0,255)" stroke-width="1.874998" fill="none" d="M 0.000000 750.000000 L 487.499969 0.000000 " />
<path stroke-linejoin="round" stroke-linecap="round" stroke="rgb(255,0,0)" stroke-width="3.749996" fill="none" d="M 146.651840 524.381775 L 150.239822 544.115784 " />
<path stroke-linejoin="round" stroke-linecap="round" stroke="rgb(0,0,255)" stroke-width="1.874998" fill="none" d="M 0.000000 750.000000 L 477.272705 0.000000 " />
<path stroke-linejoin="round" stroke-linecap="round" stroke="rgb(255,0,0)" stroke-width="3.749996" fill="none" d="M 145.968140 520.621521 L 146.651840 524.381775 " />
<path stroke-linejoin="round" stroke-linecap="round" stroke="rgb(0,0,255)" stroke-width="1.874998" fill="none" d="M 0.000000 750.000000 L 450.000031 0.000000 " />
<path stroke-linejoin="round" stroke-linecap="round" stroke="rgb(255,0,0)" stroke-width="3.749996" fill="none" d="M 144.028381 509.952667 L 145.968155 520.621460 " />
<path stroke-linejoin="round" stroke-linecap="round" stroke="rgb(0,0,255)" stroke-width="1.874998" fill="none" d="M 0.000000 750.000000 L 398.936157 0.000000 " />
<path stroke-linejoin="round" stroke-linecap="round" stroke="rgb(255,0,0)" stroke-width="3.749996" fill="none" d="M 139.864944 487.053833 L 144.028381 509.952667 " />
<path stroke-linejoin="round" stroke-linecap="round" stroke="rgb(0,0,255)" stroke-width="1.874998" fill="none" d="M 0.000000 750.000000 L 352.040833 0.000000 " />
<path stroke-linejoin="round" stroke-linecap="round" stroke="rgb(255,0,0)" stroke-width="3.749996" fill="none" d="M 135.274536 461.806488 L 139.864944 487.053833 " />
<path stroke-linejoin="round" stroke-linecap="round" stroke="rgb(0,0,255)" stroke-width="1.874998" fill="none" d="M 0.000000 750.000000 L 330.000000 0.000000 " />
<path stroke-linejoin="round" stroke-linecap="round" stroke="rgb(255,0,0)" stroke-width="3.749996" fill="none" d="M 132.798096 448.186127 L 135.274506 461.806488 " />
<path stroke-linejoin="round" stroke-linecap="round" stroke="rgb(0,0,255)" stroke-width="1.874998" fill="none" d="M 0.000000 750.000000 L 317.307709 0.000000 " />
<path stroke-linejoin="round" stroke-linecap="round" stroke="rgb(255,0,0)" stroke-width="3.749996" fill="none" d="M 131.262878 439.742310 L 132.798111 448.186127 " />
<path stroke-linejoin="round" stroke-linecap="round" stroke="rgb(0,0,255)" stroke-width="1.874998" fill="none" d="M 0.000000 750.000000 L 305.555542 0.000000 " />
<path stroke-linejoin="round" stroke-linecap="round" stroke="rgb(255,0,0)" stroke-width="3.749996" fill="none" d="M 129.762726 431.491486 L 131.262878 439.742279 " />
<path stroke-linejoin="round" stroke-linecap="round" stroke="rgb(0,0,255)" stroke-width="1.874998" fill="none" d="M 0.000000 750.000000 L 286.363617 0.000000 " />
<path stroke-linejoin="round" stroke-linecap="round" stroke="rgb(255,0,0)" stroke-width="3.749996" fill="none" d="M 127.133575 417.031097 L 129.762726 431.491486 " />
<path stroke-linejoin="round" stroke-linecap="round" stroke="rgb(0,0,255)" stroke-width="1.874998" fill="none" d="M 0.000000 750.000000 L 250.000000 0.000000 " />
<path stroke-linejoin="round" stroke-linecap="round" stroke="rgb(255,0,0)" stroke-width="3.749996" fill="none" d="M 121.435715 385.692841 L 127.133575 417.031067 " />
<path stroke-linejoin="round" stroke-linecap="round" stroke="rgb(0,0,255)" stroke-width="1.874998" fill="none" d="M 0.000000 750.000000 L 216.101685 0.000000 " />
<path stroke-linejoin="round" stroke-linecap="round" stroke="rgb(255,0,0)" stroke-width="3.749996" fill="none" d="M 115.065315 350.655701 L 121.435715 385.692841 " />
<path stroke-linejoin="round" stroke-linecap="round" stroke="rgb(0,0,255)" stroke-width="1.874998" fill="none" d="M 0.000000 750.000000 L 200.000015 0.000000 " />
<path stroke-linejoin="round" stroke-linecap="round" stroke="rgb(255,0,0)" stroke-width="3.749996" fill="none" d="M 111.589577 331.539093 L 115.065292 350.655731 " />
<path stroke-linejoin="round" stroke-linecap="round" stroke="rgb(0,0,255)" stroke-width="1.874998" fill="none" d="M 0.000000 750.000000 L 182.142868 0.000000 " />
<path stroke-linejoin="round" stroke-linecap="round" stroke="rgb(255,0,0)" stroke-width="3.749996" fill="none" d="M 107.323898 308.078003 L 111.589577 331.539093 " />
<path stroke-linejoin="round" stroke-linecap="round" stroke="rgb(0,0,255)" stroke-width="1.874998" fill="none" d="M 0.000000 750.000000 L 169.014084 0.000000 " />
<path stroke-linejoin="round" stroke-linecap="round" stroke="rgb(255,0,0)" stroke-width="3.749996" fill="none" d="M 103.869530 289.078918 L 107.323898 308.078003 " />
<path stroke-linejoin="round" stroke-linecap="round" stroke="rgb(0,0,255)" stroke-width="1.874998" fill="none" d="M 0.000000 750.000000 L 156.249985 0.000000 " />
<path stroke-linejoin="round" stroke-linecap="round" stroke="rgb(255,0,0)" stroke-width="3.749996" fill="none" d="M 100.213943 268.973083 L 103.869530 289.078918 " />
<path stroke-linejoin="round" stroke-linecap="round" stroke="rgb(0,0,255)" stroke-width="1.874998" fill="none" d="M 0.000000 750.000000 L 143.835602 0.000000 " />
<path stroke-linejoin="round" stroke-linecap="round" stroke="rgb(255,0,0)" stroke-width="3.749996" fill="none" d="M 96.339005 247.660919 L 100.213943 268.973083 " />
<path stroke-linejoin="round" stroke-linecap="round" stroke="rgb(0,0,255)" stroke-width="1.874998" fill="none" d="M 0.000000 750.000000 L 135.542175 0.000000 " />
<path stroke-linejoin="round" stroke-linecap="round" stroke="rgb(255,0,0)" stroke-width="3.749996" fill="none" d="M 93.553215 232.338928 L 96.339005 247.660919 " />
<path stroke-linejoin="round" stroke-linecap="round" stroke="rgb(0,0,255)" stroke-width="1.874998" fill="none" d="M 0.000000 750.000000 L 111.111115 0.000000 " />
<path stroke-linejoin="round" stroke-linecap="round" stroke="rgb(255,0,0)" stroke-width="3.749996" fill="none" d="M 84.261528 181.234711 L 93.553215 232.338928 " />
<path stroke-linejoin="round" stroke-linecap="round" stroke="rgb(0,0,255)" stroke-width="1.874998" fill="none" d="M 0.000000 750.000000 L 100.609749 0.000000 " />
<path stroke-linejoin="round" stroke-linecap="round" stroke="rgb(255,0,0)" stroke-width="3.749996" fill="none" d="M 78.297791 166.325439 L 84.261528 181.234711 " />
<path stroke-linejoin="round" stroke-linecap="round" stroke="rgb(0,0,255)" stroke-width="1.874998" fill="none" d="M 0.000000 750.000000 L 90.361435 0.000000 " />
<path stroke-linejoin="round" stroke-linecap="round" stroke="rgb(255,0,0)" stroke-width="3.749996" fill="none" d="M 72.168434 151.002060 L 78.297791 166.325439 " />
<path stroke-linejoin="round" stroke-linecap="round" stroke="rgb(0,0,255)" stroke-width="1.874998" fill="none" d="M 0.000000 750.000000 L 88.709679 0.000000 " />
<path stroke-linejoin="round" stroke-linecap="round" stroke="rgb(255,0,0)" stroke-width="3.749996" fill="none" d="M 71.369156 146.606140 L 72.168434 151.002060 " />
<path stroke-linejoin="round" stroke-linecap="round" stroke="rgb(0,0,255)" stroke-width="1.874998" fill="none" d="M 0.000000 750.000000 L 79.787224 0.000000 " />
<path stroke-linejoin="round" stroke-linecap="round" stroke="rgb(255,0,0)" stroke-width="3.749996" fill="none" d="M 66.840561 121.698845 L 71.369156 146.606186 " />
<path stroke-linejoin="round" stroke-linecap="round" stroke="rgb(0,0,255)" stroke-width="1.874998" fill="none" d="M 0.000000 750.000000 L 79.326912 0.000000 " />
<path stroke-linejoin="round" stroke-linecap="round" stroke="rgb(255,0,0)" stroke-width="3.749996" fill="none" d="M 66.596748 120.357964 L 66.840561 121.698845 " />
<path stroke-linejoin="round" stroke-linecap="round" stroke="rgb(0,0,255)" stroke-width="1.874998" fill="none" d="M 0.000000 750.000000 L 74.999992 0.000000 " />
<path stroke-linejoin="round" stroke-linecap="round" stroke="rgb(255,0,0)" stroke-width="3.749996" fill="none" d="M 64.253166 107.468292 L 66.596748 120.357964 " />
<path stroke-linejoin="round" stroke-linecap="round" stroke="rgb(0,0,255)" stroke-width="1.874998" fill="none" d="M 0.000000 750.000000 L 72.289154 0.000000 " />
<path stroke-linejoin="round" stroke-linecap="round" stroke="rgb(255,0,0)" stroke-width="3.749996" fill="none" d="M 62.381721 102.789673 L 64.253166 107.468338 " />
<path stroke-linejoin="round" stroke-linecap="round" stroke="rgb(0,0,255)" stroke-width="1.874998" fill="none" d="M 0.000000 750.000000 L 63.829781 0.000000 " />
<path stroke-linejoin="round" stroke-linecap="round" stroke="rgb(255,0,0)" stroke-width="3.749996" fill="none" d="M 57.409264 75.441200 L 62.381721 102.789673 " />
<path stroke-linejoin="round" stroke-linecap="round" stroke="rgb(0,0,255)" stroke-width="1.874998" fill="none" d="M 0.000000 750.000000 L 61.224483 0.000000 " />
<path stroke-linejoin="round" stroke-linecap="round" stroke="rgb(255,0,0)" stroke-width="3.749996" fill="none" d="M 55.792091 66.546768 L 57.409264 75.441200 " />
<path stroke-linejoin="round" stroke-linecap="round" stroke="rgb(0,0,255)" stroke-width="1.874998" fill="none" d="M 0.000000 750.000000 L 55.263161 0.000000 " />
<path stroke-linejoin="round" stroke-linecap="round" stroke="rgb(255,0,0)" stroke-width="3.749996" fill="none" d="M 50.939709 58.675377 L 55.792091 66.546722 " />
<path stroke-linejoin="round" stroke-linecap="round" stroke="rgb(0,0,255)" stroke-width="1.874998" fill="none" d="M 0.000000 750.000000 L 54.123714 0.000000 " />
<path stroke-linejoin="round" stroke-linecap="round" stroke="rgb(255,0,0)" stroke-width="3.749996" fill="none" d="M 50.049931 56.451069 L 50.939709 58.675377 " />
<path stroke-linejoin="round" stroke-linecap="round" stroke="rgb(0,0,255)" stroke-width="1.874998" fill="none" d="M 0.000000 750.000000 L 53.030312 0.000000 " />
<path stroke-linejoin="round" stroke-linecap="round" stroke="rgb(255,0,0)" stroke-width="3.749996" fill="none" d="M 49.190708 54.302933 L 50.049931 56.451069 " />
<path stroke-linejoin="round" stroke-linecap="round" stroke="rgb(0,0,255)" stroke-width="1.874998" fill="none" d="M 0.000000 750.000000 L 49.528309 0.000000 " />
<path stroke-linejoin="round" stroke-linecap="round" stroke="rgb(255,0,0)" stroke-width="3.749996" fill="none" d="M 46.387352 47.563076 L 49.190708 54.302933 " />
<path stroke-linejoin="round" stroke-linecap="round" stroke="rgb(0,0,255)" stroke-width="1.874998" fill="none" d="M 0.000000 750.000000 L 42.056076 0.000000 " />
<path stroke-linejoin="round" stroke-linecap="round" stroke="rgb(255,0,0)" stroke-width="3.749996" fill="none" d="M 39.776287 40.656075 L 46.387352 47.563076 " />
<path stroke-linejoin="round" stroke-linecap="round" stroke="rgb(0,0,255)" stroke-width="1.874998" fill="none" d="M 0.000000 750.000000 L 34.722225 0.000000 " />
<path stroke-linejoin="round" stroke-linecap="round" stroke="rgb(255,0,0)" stroke-width="3.749996" fill="none" d="M 33.156685 33.815502 L 39.776287 40.656075 " />
<path stroke-linejoin="round" stroke-linecap="round" stroke="rgb(0,0,255)" stroke-width="1.874998" fill="none" d="M 0.000000 750.000000 L 34.090919 0.000000 " />
<path stroke-linejoin="round" stroke-linecap="round" stroke="rgb(255,0,0)" stroke-width="3.749996" fill="none" d="M 32.587498 33.075214 L 33.156685 33.815502 " />
<path stroke-linejoin="round" stroke-linecap="round" stroke="rgb(0,0,255)" stroke-width="1.874998" fill="none" d="M 0.000000 750.000000 L 27.522928 0.000000 " />
<path stroke-linejoin="round" stroke-linecap="round" stroke="rgb(255,0,0)" stroke-width="3.749996" fill="none" d="M 26.535719 26.901350 L 32.587498 33.075214 " />
<path stroke-linejoin="round" stroke-linecap="round" stroke="rgb(0,0,255)" stroke-width="1.874998" fill="none" d="M 0.000000 750.000000 L 24.999998 0.000000 " />
<path stroke-linejoin="round" stroke-linecap="round" stroke="rgb(255,0,0)" stroke-width="3.749996" fill="none" d="M 24.190620 24.281771 L 26.535719 26.901350 " />
<path stroke-linejoin="round" stroke-linecap="round" stroke="rgb(0,0,255)" stroke-width="1.874998" fill="none" d="M 0.000000 750.000000 L 24.193548 0.000000 " />
<path stroke-linejoin="round" stroke-linecap="round" stroke="rgb(255,0,0)" stroke-width="3.749996" fill="none" d="M 23.436785 23.459494 L 24.190620 24.281771 " />
<path stroke-linejoin="round" stroke-linecap="round" stroke="rgb(0,0,255)" stroke-width="1.874998" fill="none" d="M 0.000000 750.000000 L 23.437500 0.000000 " />
<path stroke-linejoin="round" stroke-linecap="round" stroke="rgb(255,0,0)" stroke-width="3.749996" fill="none" d="M 22.727095 22.732750 L 23.436785 23.459494 " />
<path stroke-linejoin="round" stroke-linecap="round" stroke="rgb(0,0,255)" stroke-width="1.874998" fill="none" d="M 0.000000 750.000000 L 18.595039 0.000000 " />
<path stroke-linejoin="round" stroke-linecap="round" stroke="rgb(255,0,0)" stroke-width="3.749996" fill="none" d="M 18.145054 18.149391 L 22.727095 22.732840 " />
<path stroke-linejoin="round" stroke-linecap="round" stroke="rgb(0,0,255)" stroke-width="1.874998" fill="none" d="M 0.000000 750.000000 L 12.295090 0.000000 " />
<path stroke-linejoin="round" stroke-linecap="round" stroke="rgb(255,0,0)" stroke-width="3.749996" fill="none" d="M 12.096718 12.099936 L 18.145054 18.149435 " />
<path stroke-linejoin="round" stroke-linecap="round" stroke="rgb(0,0,255)" stroke-width="1.874998" fill="none" d="M 0.000000 750.000000 L 6.097555 0.000000 " />
<path stroke-linejoin="round" stroke-linecap="round" stroke="rgb(255,0,0)" stroke-width="3.749996" fill="none" d="M 6.048359 6.050751 L 12.096718 12.099936 " />
<path stroke-linejoin="round" stroke-linecap="round" stroke="rgb(0,0,255)" stroke-width="1.874998" fill="none" d="M 0.000000 750.000000 L 0.000000 0.000000 " />
<path stroke-linejoin="round" stroke-linecap="round" stroke="rgb(255,0,0)" stroke-width="3.749996" fill="none" d="M 0.000000 0.000000 L 6.048359 6.050751 " />
<circle cx="186.864406" cy="745.550841" r="3.749996" style="fill:rgb(0,127,0);stroke-width:1" /><circle cx="178.944334" cy="701.990537" r="3.749996" style="fill:rgb(0,127,0);stroke-width:1" /><circle cx="175.891131" cy="685.198009" r="3.749996" style="fill:rgb(0,127,0);stroke-width:1" /><circle cx="174.789570" cy="679.139368" r="3.749996" style="fill:rgb(0,127,0);stroke-width:1" /><circle cx="174.327672" cy="676.598892" r="3.749996" style="fill:rgb(0,127,0);stroke-width:1" /><circle cx="172.791727" cy="668.151274" r="3.749996" style="fill:rgb(0,127,0);stroke-width:1" /><circle cx="171.647295" cy="661.856800" r="3.749996" style="fill:rgb(0,127,0);stroke-width:1" /><circle cx="170.118123" cy="653.446466" r="3.749996" style="fill:rgb(0,127,0);stroke-width:1" /><circle cx="167.643227" cy="639.834434" r="3.749996" style="fill:rgb(0,127,0);stroke-width:1" /><circle cx="166.101649" cy="631.355949" r="3.749996" style="fill:rgb(0,127,0);stroke-width:1" /><circle cx="163.370289" cy="616.333410" r="3.749996" style="fill:rgb(0,127,0);stroke-width:1" /><circle cx="161.914229" cy="608.325049" r="3.749996" style="fill:rgb(0,127,0);stroke-width:1" /><circle cx="160.342254" cy="599.679127" r="3.749996" style="fill:rgb(0,127,0);stroke-width:1" /><circle cx="157.188311" cy="582.332455" r="3.749996" style="fill:rgb(0,127,0);stroke-width:1" /><circle cx="155.709498" cy="574.198946" r="3.749996" style="fill:rgb(0,127,0);stroke-width:1" /><circle cx="150.239825" cy="544.115782" r="3.749996" style="fill:rgb(0,127,0);stroke-width:1" /><circle cx="146.651834" cy="524.381787" r="3.749996" style="fill:rgb(0,127,0);stroke-width:1" /><circle cx="145.968139" cy="520.621486" r="3.749996" style="fill:rgb(0,127,0);stroke-width:1" /><circle cx="144.028388" cy="509.952687" r="3.749996" style="fill:rgb(0,127,0);stroke-width:1" /><circle cx="139.864951" cy="487.053864" r="3.749996" style="fill:rgb(0,127,0);stroke-width:1" /><circle cx="135.274529" cy="461.806476" r="3.749996" style="fill:rgb(0,127,0);stroke-width:1" /><circle cx="132.798091" cy="448.186129" r="3.749996" style="fill:rgb(0,127,0);stroke-width:1" /><circle cx="131.262884" cy="439.742312" r="3.749996" style="fill:rgb(0,127,0);stroke-width:1" /><circle cx="129.762724" cy="431.491479" r="3.749996" style="fill:rgb(0,127,0);stroke-width:1" /><circle cx="127.133578" cy="417.031109" r="3.749996" style="fill:rgb(0,127,0);stroke-width:1" /><circle cx="121.435717" cy="385.692850" r="3.749996" style="fill:rgb(0,127,0);stroke-width:1" /><circle cx="115.065314" cy="350.655690" r="3.749996" style="fill:rgb(0,127,0);stroke-width:1" /><circle cx="111.589573" cy="331.539094" r="3.749996" style="fill:rgb(0,127,0);stroke-width:1" /><circle cx="107.323900" cy="308.077991" r="3.749996" style="fill:rgb(0,127,0);stroke-width:1" /><circle cx="103.869528" cy="289.078921" r="3.749996" style="fill:rgb(0,127,0);stroke-width:1" /><circle cx="100.213945" cy="268.973082" r="3.749996" style="fill:rgb(0,127,0);stroke-width:1" /><circle cx="96.339002" cy="247.660920" r="3.749996" style="fill:rgb(0,127,0);stroke-width:1" /><circle cx="93.553215" cy="232.338935" r="3.749996" style="fill:rgb(0,127,0);stroke-width:1" /><circle cx="84.261529" cy="181.234717" r="3.749996" style="fill:rgb(0,127,0);stroke-width:1" /><circle cx="78.297794" cy="166.325435" r="3.749996" style="fill:rgb(0,127,0);stroke-width:1" /><circle cx="72.168432" cy="151.002064" r="3.749996" style="fill:rgb(0,127,0);stroke-width:1" /><circle cx="71.369156" cy="146.606147" r="3.749996" style="fill:rgb(0,127,0);stroke-width:1" /><circle cx="66.840559" cy="121.698841" r="3.749996" style="fill:rgb(0,127,0);stroke-width:1" /><circle cx="66.596746" cy="120.357960" r="3.749996" style="fill:rgb(0,127,0);stroke-width:1" /><circle cx="64.253166" cy="107.468292" r="3.749996" style="fill:rgb(0,127,0);stroke-width:1" /><circle cx="62.381722" cy="102.789670" r="3.749996" style="fill:rgb(0,127,0);stroke-width:1" /><circle cx="57.409264" cy="75.441197" r="3.749996" style="fill:rgb(0,127,0);stroke-width:1" /><circle cx="55.792093" cy="66.546768" r="3.749996" style="fill:rgb(0,127,0);stroke-width:1" /><circle cx="50.939709" cy="58.675379" r="3.749996" style="fill:rgb(0,127,0);stroke-width:1" /><circle cx="50.049931" cy="56.451067" r="3.749996" style="fill:rgb(0,127,0);stroke-width:1" /><circle cx="49.190708" cy="54.302931" r="3.749996" style="fill:rgb(0,127,0);stroke-width:1" /><circle cx="46.387352" cy="47.563076" r="3.749996" style="fill:rgb(0,127,0);stroke-width:1" /><circle cx="39.776288" cy="40.656075" r="3.749996" style="fill:rgb(0,127,0);stroke-width:1" /><circle cx="33.156686" cy="33.815503" r="3.749996" style="fill:rgb(0,127,0);stroke-width:1" /><circle cx="32.587498" cy="33.075213" r="3.749996" style="fill:rgb(0,127,0);stroke-width:1" /><circle cx="26.535720" cy="26.901349" r="3.749996" style="fill:rgb(0,127,0);stroke-width:1" /><circle cx="24.190620" cy="24.281770" r="3.749996" style="fill:rgb(0,127,0);stroke-width:1" /><circle cx="23.436785" cy="23.459494" r="3.749996" style="fill:rgb(0,127,0);stroke-width:1" /><circle cx="22.727095" cy="22.732750" r="3.749996" style="fill:rgb(0,127,0);stroke-width:1" /><circle cx="18.145055" cy="18.149391" r="3.749996" style="fill:rgb(0,127,0);stroke-width:1" /><circle cx="12.096718" cy="12.099937" r="3.749996" style="fill:rgb(0,127,0);stroke-width:1" /><circle cx="6.048359" cy="6.050751" r="3.749996" style="fill:rgb(0,127,0);stroke-width:1" /><circle cx="750.000000" cy="750.000000" r="3.749996" style="fill:rgb(0,127,0);stroke-width:1" /><path stroke-linejoin="round" stroke-linecap="round" stroke="rgb(255,255,255)" stroke-width="3.749996" fill="none" d="M 0.000000 750.000000 L 750.000000 750.000000 M 0.000000 750.000000 L 0.000000 0.000000 " />

</svg>