<svg xmlns="http://www.w3.org/2000/svg" version="1.1" width = "750" height = "750" viewBox = "0 0 750 750"  shape-rendering="crispEdges">
<path stroke-linejoin="round" stroke-linecap="round" stroke="rgb(255,255,0)" stroke-width="3.749996" fill="none" d="M 74.999992 750.000000 L 0.000000 0.000000 " />
<path stroke-linejoin="round" stroke-linecap="round" stroke="rgb(63,63,63)" stroke-width="3.749996" fill="none" d="M 0.000000 0.000000 L 750.000000 750.000000 M 74.999992 750.000000 L 35.526306 0.000000 " />
<path stroke-linejoin="round" stroke-linecap="round" stroke="rgb(191,191,191)" stroke-width="3.749996" fill="none" d="M 0.000000 675.000000 L 74.999992 750.000000 M 0.000000 0.000000 L 39.473690 750.000000 " />
<path stroke-linejoin="round" stroke-linecap="round" stroke="rgb(0,0,255)" stroke-width="1.874998" fill="none" d="M 0.000000 750.000000 L 750.000000 562.500000 " />
<path stroke-linejoin="round" stroke-linecap="round" stroke="rgb(255,0,0)" stroke-width="3.749996" fill="none" d="M 74.025970 731.493469 L 74.999992 750.000000 " />
<path stroke-linejoin="round" stroke-linecap="round" stroke="rgb(0,0,255)" stroke-width="1.874998" fill="none" d="M 0.000000 750.000000 L 750.000000 513.157898 " />
<path stroke-linejoin="round" stroke-linecap="round" stroke="rgb(255,0,0)" stroke-width="3.749996" fill="none" d="M 73.773849 726.703003 L 74.025993 731.493469 " />
<path stroke-linejoin="round" stroke-linecap="round" stroke="rgb(0,0,255)" stroke-width="1.874998" fill="none" d="M 0.000000 750.000000 L 750.000000 304.054047 " />
<path stroke-linejoin="round" stroke-linecap="round" stroke="rgb(255,0,0)" stroke-width="3.749996" fill="none" d="M 72.724144 706.758606 L 73.773849 726.703003 " />
<path stroke-linejoin="round" stroke-linecap="round" stroke="rgb(0,0,255)" stroke-width="1.874998" fill="none" d="M 0.000000 750.000000 L 750.000000 296.052612 " />
<path stroke-linejoin="round" stroke-linecap="round" stroke="rgb(255,0,0)" stroke-width="3.749996" fill="none" d="M 72.684578 706.006653 L 72.724144 706.758606 " />
<path stroke-linejoin="round" stroke-linecap="round" stroke="rgb(0,0,255)" stroke-width="1.874998" fill="none" d="M 0.000000 750.000000 L 750.000000 229.166687 " />
<path stroke-linejoin="round" stroke-linecap="round" stroke="rgb(255,0,0)" stroke-width="3.749996" fill="none" d="M 72.355446 699.753174 L 72.684578 706.006653 " />
<path stroke-linejoin="round" stroke-linecap="round" stroke="rgb(0,0,255)" stroke-width="1.874998" fill="none" d="M 0.000000 750.000000 L 750.000000 187.500000 " />
<path stroke-linejoin="round" stroke-linecap="round" stroke="rgb(255,0,0)" stroke-width="3.749996" fill="none" d="M 72.151917 695.886047 L 72.355446 699.753174 " />
<path stroke-linejoin="round" stroke-linecap="round" stroke="rgb(0,0,255)" stroke-width="1.874998" fill="none" d="M 0.000000 750.000000 L 750.000000 145.833313 " />
<path stroke-linejoin="round" stroke-linecap="round" stroke="rgb(255,0,0)" stroke-width="3.749996" fill="none" d="M 71.949516 692.040710 L 72.151917 695.886047 " />
<path stroke-linejoin="round" stroke-linecap="round" stroke="rgb(0,0,255)" stroke-width="1.874998" fill="none" d="M 0.000000 750.000000 L 750.000000 104.166672 " />
<path stroke-linejoin="round" stroke-linecap="round" stroke="rgb(255,0,0)" stroke-width="3.749996" fill="none" d="M 71.748260 688.216736 L 71.949516 692.040710 " />
<path stroke-linejoin="round" stroke-linecap="round" stroke="rgb(0,0,255)" stroke-width="1.874998" fill="none" d="M 0.000000 750.000000 L 750.000000 62.499985 " />
<path stroke-linejoin="round" stroke-linecap="round" stroke="rgb(255,0,0)" stroke-width="3.749996" fill="none" d="M 71.548149 684.414185 L 71.748260 688.216736 " />
<path stroke-linejoin="round" stroke-linecap="round" stroke="rgb(0,0,255)" stroke-width="1.874998" fill="none" d="M 0.000000 750.000000 L 727.941223 0.000000 " />
<path stroke-linejoin="round" stroke-linecap="round" stroke="rgb(255,0,0)" stroke-width="3.749996" fill="none" d="M 71.142220 676.701904 L 71.548149 684.414185 " />
<path stroke-linejoin="round" stroke-linecap="round" stroke="rgb(0,0,255)" stroke-width="1.874998" fill="none" d="M 0.000000 750.000000 L 689.189209 0.000000 " />
<path stroke-linejoin="round" stroke-linecap="round" stroke="rgb(255,0,0)" stroke-width="3.749996" fill="none" d="M 70.937050 672.803772 L 71.142220 676.701904 " />
<path stroke-linejoin="round" stroke-linecap="round" stroke="rgb(0,0,255)" stroke-width="1.874998" fill="none" d="M 0.000000 750.000000 L 545.454590 0.000000 " />
<path stroke-linejoin="round" stroke-linecap="round" stroke="rgb(255,0,0)" stroke-width="3.749996" fill="none" d="M 69.938667 653.834290 L 70.937050 672.803772 " />
<path stroke-linejoin="round" stroke-linecap="round" stroke="rgb(0,0,255)" stroke-width="1.874998" fill="none" d="M 0.000000 750.000000 L 494.680847 0.000000 " />
<path stroke-linejoin="round" stroke-linecap="round" stroke="rgb(255,0,0)" stroke-width="3.749996" fill="none" d="M 69.457565 644.693359 L 69.938667 653.834290 " />
<path stroke-linejoin="round" stroke-linecap="round" stroke="rgb(0,0,255)" stroke-width="1.874998" fill="none" d="M 0.000000 750.000000 L 480.000000 0.000000 " />
<path stroke-linejoin="round" stroke-linecap="round" stroke="rgb(255,0,0)" stroke-width="3.749996" fill="none" d="M 69.300926 641.717285 L 69.457565 644.693359 " />
<path stroke-linejoin="round" stroke-linecap="round" stroke="rgb(0,0,255)" stroke-width="1.874998" fill="none" d="M 0.000000 750.000000 L 455.882385 0.000000 " />
<path stroke-linejoin="round" stroke-linecap="round" stroke="rgb(255,0,0)" stroke-width="3.749996" fill="none" d="M 69.023453 636.445312 L 69.300926 641.717285 " />
<path stroke-linejoin="round" stroke-linecap="round" stroke="rgb(0,0,255)" stroke-width="1.874998" fill="none" d="M 0.000000 750.000000 L 440.217377 0.000000 " />
<path stroke-linejoin="round" stroke-linecap="round" stroke="rgb(255,0,0)" stroke-width="3.749996" fill="none" d="M 67.528900 634.950745 L 69.023453 636.445312 " />
<path stroke-linejoin="round" stroke-linecap="round" stroke="rgb(0,0,255)" stroke-width="1.874998" fill="none" d="M 0.000000 750.000000 L 395.454529 0.000000 " />
<path stroke-linejoin="round" stroke-linecap="round" stroke="rgb(255,0,0)" stroke-width="3.749996" fill="none" d="M 66.905693 623.109863 L 67.528900 634.950745 " />
<path stroke-linejoin="round" stroke-linecap="round" stroke="rgb(0,0,255)" stroke-width="1.874998" fill="none" d="M 0.000000 750.000000 L 381.578918 0.000000 " />
<path stroke-linejoin="round" stroke-linecap="round" stroke="rgb(255,0,0)" stroke-width="3.749996" fill="none" d="M 66.685616 618.928284 L 66.905693 623.109863 " />
<path stroke-linejoin="round" stroke-linecap="round" stroke="rgb(0,0,255)" stroke-width="1.874998" fill="none" d="M 0.000000 750.000000 L 343.220337 0.000000 " />
<path stroke-linejoin="round" stroke-linecap="round" stroke="rgb(255,0,0)" stroke-width="3.749996" fill="none" d="M 65.994164 605.790466 L 66.685616 618.928284 " />
<path stroke-linejoin="round" stroke-linecap="round" stroke="rgb(0,0,255)" stroke-width="1.874998" fill="none" d="M 0.000000 750.000000 L 338.709686 0.000000 " />
<path stroke-linejoin="round" stroke-linecap="round" stroke="rgb(255,0,0)" stroke-width="3.749996" fill="none" d="M 65.903641 604.070496 L 65.994164 605.790466 " />
<path stroke-linejoin="round" stroke-linecap="round" stroke="rgb(0,0,255)" stroke-width="1.874998" fill="none" d="M 0.000000 750.000000 L 334.821411 0.000000 " />
<path stroke-linejoin="round" stroke-linecap="round" stroke="rgb(255,0,0)" stroke-width="3.749996" fill="none" d="M 65.380585 603.547424 L 65.903641 604.070496 " />
<path stroke-linejoin="round" stroke-linecap="round" stroke="rgb(0,0,255)" stroke-width="1.874998" fill="none" d="M 0.000000 750.000000 L 328.124969 0.000000 " />
<path stroke-linejoin="round" stroke-linecap="round" stroke="rgb(255,0,0)" stroke-width="3.749996" fill="none" d="M 65.240173 600.879578 L 65.380585 603.547424 " />
<path stroke-linejoin="round" stroke-linecap="round" stroke="rgb(0,0,255)" stroke-width="1.874998" fill="none" d="M 0.000000 750.000000 L 318.181793 0.000000 " />
<path stroke-linejoin="round" stroke-linecap="round" stroke="rgb(255,0,0)" stroke-width="3.749996" fill="none" d="M 65.021980 596.733887 L 65.240173 600.879578 " />
<path stroke-linejoin="round" stroke-linecap="round" stroke="rgb(0,0,255)" stroke-width="1.874998" fill="none" d="M 0.000000 750.000000 L 282.608673 0.000000 " />
<path stroke-linejoin="round" stroke-linecap="round" stroke="rgb(255,0,0)" stroke-width="3.749996" fill="none" d="M 64.131035 579.806030 L 65.021980 596.733887 " />
<path stroke-linejoin="round" stroke-linecap="round" stroke="rgb(0,0,255)" stroke-width="1.874998" fill="none" d="M 0.000000 750.000000 L 256.329102 0.000000 " />
<path stroke-linejoin="round" stroke-linecap="round" stroke="rgb(255,0,0)" stroke-width="3.749996" fill="none" d="M 63.335247 564.685791 L 64.131035 579.806030 " />
<path stroke-linejoin="round" stroke-linecap="round" stroke="rgb(0,0,255)" stroke-width="1.874998" fill="none" d="M 0.000000 750.000000 L 243.749985 0.000000 " />
<path stroke-linejoin="round" stroke-linecap="round" stroke="rgb(255,0,0)" stroke-width="3.749996" fill="none" d="M 62.902050 556.455261 L 63.335247 564.685791 " />
<path stroke-linejoin="round" stroke-linecap="round" stroke="rgb(0,0,255)" stroke-width="1.874998" fill="none" d="M 0.000000 750.000000 L 231.481476 0.000000 " />
<path stroke-linejoin="round" stroke-linecap="round" stroke="rgb(255,0,0)" stroke-width="3.749996" fill="none" d="M 62.440819 547.691772 L 62.902050 556.455261 " />
<path stroke-linejoin="round" stroke-linecap="round" stroke="rgb(0,0,255)" stroke-width="1.874998" fill="none" d="M 0.000000 750.000000 L 226.973694 0.000000 " />
<path stroke-linejoin="round" stroke-linecap="round" stroke="rgb(255,0,0)" stroke-width="3.749996" fill="none" d="M 61.507343 546.758301 L 62.440819 547.691772 " />
<path stroke-linejoin="round" stroke-linecap="round" stroke="rgb(0,0,255)" stroke-width="1.874998" fill="none" d="M 0.000000 750.000000 L 214.285721 0.000000 " />
<path stroke-linejoin="round" stroke-linecap="round" stroke="rgb(255,0,0)" stroke-width="3.749996" fill="none" d="M 60.972511 536.596191 L 61.507343 546.758301 " />
<path stroke-linejoin="round" stroke-linecap="round" stroke="rgb(0,0,255)" stroke-width="1.874998" fill="none" d="M 0.000000 750.000000 L 199.468079 0.000000 " />
<path stroke-linejoin="round" stroke-linecap="round" stroke="rgb(255,0,0)" stroke-width="3.749996" fill="none" d="M 60.275986 523.362305 L 60.972511 536.596191 " />
<path stroke-linejoin="round" stroke-linecap="round" stroke="rgb(0,0,255)" stroke-width="1.874998" fill="none" d="M 0.000000 750.000000 L 189.473679 0.000000 " />
<path stroke-linejoin="round" stroke-linecap="round" stroke="rgb(255,0,0)" stroke-width="3.749996" fill="none" d="M 59.755257 513.468750 L 60.275986 523.362305 " />
<path stroke-linejoin="round" stroke-linecap="round" stroke="rgb(0,0,255)" stroke-width="1.874998" fill="none" d="M 0.000000 750.000000 L 179.687485 0.000000 " />
<path stroke-linejoin="round" stroke-linecap="round" stroke="rgb(255,0,0)" stroke-width="3.749996" fill="none" d="M 59.199371 502.906952 L 59.755257 513.468750 " />
<path stroke-linejoin="round" stroke-linecap="round" stroke="rgb(0,0,255)" stroke-width="1.874998" fill="none" d="M 0.000000 750.000000 L 155.660370 0.000000 " />
<path stroke-linejoin="round" stroke-linecap="round" stroke="rgb(255,0,0)" stroke-width="3.749996" fill="none" d="M 57.598068 472.482025 L 59.199371 502.906952 " />
<path stroke-linejoin="round" stroke-linecap="round" stroke="rgb(0,0,255)" stroke-width="1.874998" fill="none" d="M 0.000000 750.000000 L 147.196259 0.000000 " />
<path stroke-linejoin="round" stroke-linecap="round" stroke="rgb(255,0,0)" stroke-width="3.749996" fill="none" d="M 54.979988 469.863922 L 57.598068 472.482025 " />
<path stroke-linejoin="round" stroke-linecap="round" stroke="rgb(0,0,255)" stroke-width="1.874998" fill="none" d="M 0.000000 750.000000 L 141.025635 0.000000 " />
<path stroke-linejoin="round" stroke-linecap="round" stroke="rgb(255,0,0)" stroke-width="3.749996" fill="none" d="M 54.475933 460.287109 L 54.979988 469.863922 " />
<path stroke-linejoin="round" stroke-linecap="round" stroke="rgb(0,0,255)" stroke-width="1.874998" fill="none" d="M 0.000000 750.000000 L 138.655457 0.000000 " />
<path stroke-linejoin="round" stroke-linecap="round" stroke="rgb(255,0,0)" stroke-width="3.749996" fill="none" d="M 54.273048 456.432220 L 54.475933 460.287109 " />
<path stroke-linejoin="round" stroke-linecap="round" stroke="rgb(0,0,255)" stroke-width="1.874998" fill="none" d="M 0.000000 750.000000 L 122.950806 0.000000 " />
<path stroke-linejoin="round" stroke-linecap="round" stroke="rgb(255,0,0)" stroke-width="3.749996" fill="none" d="M 52.779102 428.047485 L 54.273026 456.432220 " />
<path stroke-linejoin="round" stroke-linecap="round" stroke="rgb(0,0,255)" stroke-width="1.874998" fill="none" d="M 0.000000 750.000000 L 115.853661 0.000000 " />
<path stroke-linejoin="round" stroke-linecap="round" stroke="rgb(255,0,0)" stroke-width="3.749996" fill="none" d="M 50.140144 425.408508 L 52.779102 428.047485 " />
<path stroke-linejoin="round" stroke-linecap="round" stroke="rgb(0,0,255)" stroke-width="1.874998" fill="none" d="M 0.000000 750.000000 L 112.781952 0.000000 " />
<path stroke-linejoin="round" stroke-linecap="round" stroke="rgb(255,0,0)" stroke-width="3.749996" fill="none" d="M 49.795502 418.859985 L 50.140144 425.408508 " />
<path stroke-linejoin="round" stroke-linecap="round" stroke="rgb(0,0,255)" stroke-width="1.874998" fill="none" d="M 0.000000 750.000000 L 112.204712 0.000000 " />
<path stroke-linejoin="round" stroke-linecap="round" stroke="rgb(255,0,0)" stroke-width="3.749996" fill="none" d="M 49.573795 418.638275 L 49.795502 418.859985 " />
<path stroke-linejoin="round" stroke-linecap="round" stroke="rgb(0,0,255)" stroke-width="1.874998" fill="none" d="M 0.000000 750.000000 L 108.870956 0.000000 " />
<path stroke-linejoin="round" stroke-linecap="round" stroke="rgb(255,0,0)" stroke-width="3.749996" fill="none" d="M 48.287609 417.352112 L 49.573795 418.638275 " />
<path stroke-linejoin="round" stroke-linecap="round" stroke="rgb(0,0,255)" stroke-width="1.874998" fill="none" d="M 0.000000 750.000000 L 107.142853 0.000000 " />
<path stroke-linejoin="round" stroke-linecap="round" stroke="rgb(255,0,0)" stroke-width="3.749996" fill="none" d="M 47.616943 416.681427 L 48.287586 417.352112 " />
<path stroke-linejoin="round" stroke-linecap="round" stroke="rgb(0,0,255)" stroke-width="1.874998" fill="none" d="M 0.000000 750.000000 L 104.779419 0.000000 " />
<path stroke-linejoin="round" stroke-linecap="round" stroke="rgb(255,0,0)" stroke-width="3.749996" fill="none" d="M 47.329502 411.220367 L 47.616943 416.681427 " />
<path stroke-linejoin="round" stroke-linecap="round" stroke="rgb(0,0,255)" stroke-width="1.874998" fill="none" d="M 0.000000 750.000000 L 103.260864 0.000000 " />
<path stroke-linejoin="round" stroke-linecap="round" stroke="rgb(255,0,0)" stroke-width="3.749996" fill="none" d="M 47.139824 407.616119 L 47.329502 411.220367 " />
<path stroke-linejoin="round" stroke-linecap="round" stroke="rgb(0,0,255)" stroke-width="1.874998" fill="none" d="M 0.000000 750.000000 L 102.272720 0.000000 " />
<path stroke-linejoin="round" stroke-linecap="round" stroke="rgb(255,0,0)" stroke-width="3.749996" fill="none" d="M 46.742836 407.219147 L 47.139824 407.616119 " />
<path stroke-linejoin="round" stroke-linecap="round" stroke="rgb(0,0,255)" stroke-width="1.874998" fill="none" d="M 0.000000 750.000000 L 100.352127 0.000000 " />
<path stroke-linejoin="round" stroke-linecap="round" stroke="rgb(255,0,0)" stroke-width="3.749996" fill="none" d="M 46.495041 402.510803 L 46.742836 407.219147 " />
<path stroke-linejoin="round" stroke-linecap="round" stroke="rgb(0,0,255)" stroke-width="1.874998" fill="none" d="M 0.000000 750.000000 L 98.958336 0.000000 " />
<path stroke-linejoin="round" stroke-linecap="round" stroke="rgb(255,0,0)" stroke-width="3.749996" fill="none" d="M 46.310886 399.012115 L 46.495041 402.510803 " />
<path stroke-linejoin="round" stroke-linecap="round" stroke="rgb(0,0,255)" stroke-width="1.874998" fill="none" d="M 0.000000 750.000000 L 92.465759 0.000000 " />
<path stroke-linejoin="round" stroke-linecap="round" stroke="rgb(255,0,0)" stroke-width="3.749996" fill="none" d="M 45.401863 381.740479 L 46.310886 399.012115 " />
<path stroke-linejoin="round" stroke-linecap="round" stroke="rgb(0,0,255)" stroke-width="1.874998" fill="none" d="M 0.000000 750.000000 L 86.734703 0.000000 " />
<path stroke-linejoin="round" stroke-linecap="round" stroke="rgb(255,0,0)" stroke-width="3.749996" fill="none" d="M 42.879536 379.218140 L 45.401863 381.740479 " />
<path stroke-linejoin="round" stroke-linecap="round" stroke="rgb(0,0,255)" stroke-width="1.874998" fill="none" d="M 0.000000 750.000000 L 85.987259 0.000000 " />
<path stroke-linejoin="round" stroke-linecap="round" stroke="rgb(255,0,0)" stroke-width="3.749996" fill="none" d="M 42.763287 377.009186 L 42.879536 379.218140 " />
<path stroke-linejoin="round" stroke-linecap="round" stroke="rgb(0,0,255)" stroke-width="1.874998" fill="none" d="M 0.000000 750.000000 L 85.570473 0.000000 " />
<path stroke-linejoin="round" stroke-linecap="round" stroke="rgb(255,0,0)" stroke-width="3.749996" fill="none" d="M 42.577229 376.823090 L 42.763287 377.009186 " />
<path stroke-linejoin="round" stroke-linecap="round" stroke="rgb(0,0,255)" stroke-width="1.874998" fill="none" d="M 0.000000 750.000000 L 84.905663 0.000000 " />
<path stroke-linejoin="round" stroke-linecap="round" stroke="rgb(255,0,0)" stroke-width="3.749996" fill="none" d="M 42.472244 374.828461 L 42.577229 376.823090 " />
<path stroke-linejoin="round" stroke-linecap="round" stroke="rgb(0,0,255)" stroke-width="1.874998" fill="none" d="M 0.000000 750.000000 L 80.000015 0.000000 " />
<path stroke-linejoin="round" stroke-linecap="round" stroke="rgb(255,0,0)" stroke-width="3.749996" fill="none" d="M 40.254818 372.611053 L 42.472244 374.828461 " />
<path stroke-linejoin="round" stroke-linecap="round" stroke="rgb(0,0,255)" stroke-width="1.874998" fill="none" d="M 0.000000 750.000000 L 79.687492 0.000000 " />
<path stroke-linejoin="round" stroke-linecap="round" stroke="rgb(255,0,0)" stroke-width="3.749996" fill="none" d="M 40.202736 371.621307 L 40.254818 372.611053 " />
<path stroke-linejoin="round" stroke-linecap="round" stroke="rgb(0,0,255)" stroke-width="1.874998" fill="none" d="M 0.000000 750.000000 L 78.947380 0.000000 " />
<path stroke-linejoin="round" stroke-linecap="round" stroke="rgb(255,0,0)" stroke-width="3.749996" fill="none" d="M 39.864891 371.283478 L 40.202736 371.621307 " />
<path stroke-linejoin="round" stroke-linecap="round" stroke="rgb(0,0,255)" stroke-width="1.874998" fill="none" d="M 0.000000 750.000000 L 74.534164 0.000000 " />
<path stroke-linejoin="round" stroke-linecap="round" stroke="rgb(255,0,0)" stroke-width="3.749996" fill="none" d="M 39.093307 356.623535 L 39.864891 371.283478 " />
<path stroke-linejoin="round" stroke-linecap="round" stroke="rgb(0,0,255)" stroke-width="1.874998" fill="none" d="M 0.000000 750.000000 L 72.580643 0.000000 " />
<path stroke-linejoin="round" stroke-linecap="round" stroke="rgb(255,0,0)" stroke-width="3.749996" fill="none" d="M 38.159096 355.689301 L 39.093307 356.623535 " />
<path stroke-linejoin="round" stroke-linecap="round" stroke="rgb(0,0,255)" stroke-width="1.874998" fill="none" d="M 0.000000 750.000000 L 71.656067 0.000000 " />
<path stroke-linejoin="round" stroke-linecap="round" stroke="rgb(255,0,0)" stroke-width="3.749996" fill="none" d="M 37.715389 355.245605 L 38.159096 355.689301 " />
<path stroke-linejoin="round" stroke-linecap="round" stroke="rgb(0,0,255)" stroke-width="1.874998" fill="none" d="M 0.000000 750.000000 L 65.625008 0.000000 " />
<path stroke-linejoin="round" stroke-linecap="round" stroke="rgb(255,0,0)" stroke-width="3.749996" fill="none" d="M 36.523125 332.592773 L 37.715389 355.245605 " />
<path stroke-linejoin="round" stroke-linecap="round" stroke="rgb(0,0,255)" stroke-width="1.874998" fill="none" d="M 0.000000 750.000000 L 61.403500 0.000000 " />
<path stroke-linejoin="round" stroke-linecap="round" stroke="rgb(255,0,0)" stroke-width="3.749996" fill="none" d="M 35.603775 315.125214 L 36.523125 332.592804 " />
<path stroke-linejoin="round" stroke-linecap="round" stroke="rgb(0,0,255)" stroke-width="1.874998" fill="none" d="M 0.000000 750.000000 L 60.937508 0.000000 " />
<path stroke-linejoin="round" stroke-linecap="round" stroke="rgb(255,0,0)" stroke-width="3.749996" fill="none" d="M 35.353886 314.875366 L 35.603775 315.125214 " />
<path stroke-linejoin="round" stroke-linecap="round" stroke="rgb(0,0,255)" stroke-width="1.874998" fill="none" d="M 0.000000 750.000000 L 60.185196 0.000000 " />
<path stroke-linejoin="round" stroke-linecap="round" stroke="rgb(255,0,0)" stroke-width="3.749996" fill="none" d="M 34.949833 314.471313 L 35.353886 314.875366 " />
<path stroke-linejoin="round" stroke-linecap="round" stroke="rgb(0,0,255)" stroke-width="1.874998" fill="none" d="M 0.000000 750.000000 L 55.214725 0.000000 " />
<path stroke-linejoin="round" stroke-linecap="round" stroke="rgb(255,0,0)" stroke-width="3.749996" fill="none" d="M 32.261387 311.782867 L 34.949833 314.471313 " />
<path stroke-linejoin="round" stroke-linecap="round" stroke="rgb(0,0,255)" stroke-width="1.874998" fill="none" d="M 0.000000 750.000000 L 51.724144 0.000000 " />
<path stroke-linejoin="round" stroke-linecap="round" stroke="rgb(255,0,0)" stroke-width="3.749996" fill="none" d="M 31.378605 295.010132 L 32.261387 311.782867 " />
<path stroke-linejoin="round" stroke-linecap="round" stroke="rgb(0,0,255)" stroke-width="1.874998" fill="none" d="M 0.000000 750.000000 L 48.648655 0.000000 " />
<path stroke-linejoin="round" stroke-linecap="round" stroke="rgb(255,0,0)" stroke-width="3.749996" fill="none" d="M 30.542850 279.130920 L 31.378605 295.010132 " />
<path stroke-linejoin="round" stroke-linecap="round" stroke="rgb(0,0,255)" stroke-width="1.874998" fill="none" d="M 0.000000 750.000000 L 44.354839 0.000000 " />
<path stroke-linejoin="round" stroke-linecap="round" stroke="rgb(255,0,0)" stroke-width="3.749996" fill="none" d="M 27.997612 276.585693 L 30.542850 279.130981 " />
<path stroke-linejoin="round" stroke-linecap="round" stroke="rgb(0,0,255)" stroke-width="1.874998" fill="none" d="M 0.000000 750.000000 L 40.106960 0.000000 " />
<path stroke-linejoin="round" stroke-linecap="round" stroke="rgb(255,0,0)" stroke-width="3.749996" fill="none" d="M 25.452375 274.040436 L 27.997612 276.585693 " />
<path stroke-linejoin="round" stroke-linecap="round" stroke="rgb(0,0,255)" stroke-width="1.874998" fill="none" d="M 0.000000 750.000000 L 39.682545 0.000000 " />
<path stroke-linejoin="round" stroke-linecap="round" stroke="rgb(255,0,0)" stroke-width="3.749996" fill="none" d="M 25.196583 273.784637 L 25.452375 274.040436 " />
<path stroke-linejoin="round" stroke-linecap="round" stroke="rgb(0,0,255)" stroke-width="1.874998" fill="none" d="M 0.000000 750.000000 L 39.473690 0.000000 " />
<path stroke-linejoin="round" stroke-linecap="round" stroke="rgb(255,0,0)" stroke-width="3.749996" fill="none" d="M 25.070608 273.658691 L 25.196583 273.784637 " />
<path stroke-linejoin="round" stroke-linecap="round" stroke="rgb(0,0,255)" stroke-width="1.874998" fill="none" d="M 0.000000 750.000000 L 38.659798 0.000000 " />
<path stroke-linejoin="round" stroke-linecap="round" stroke="rgb(255,0,0)" stroke-width="3.749996" fill="none" d="M 24.579025 273.167084 L 25.070608 273.658691 " />
<path stroke-linejoin="round" stroke-linecap="round" stroke="rgb(0,0,255)" stroke-width="1.874998" fill="none" d="M 0.000000 750.000000 L 38.265308 0.000000 " />
<path stroke-linejoin="round" stroke-linecap="round" stroke="rgb(255,0,0)" stroke-width="3.749996" fill="none" d="M 24.340376 272.928497 L 24.579025 273.167084 " />
<path stroke-linejoin="round" stroke-linecap="round" stroke="rgb(0,0,255)" stroke-width="1.874998" fill="none" d="M 0.000000 750.000000 L 36.486492 0.000000 " />
<path stroke-linejoin="round" stroke-linecap="round" stroke="rgb(255,0,0)" stroke-width="3.749996" fill="none" d="M 23.261368 271.849518 L 24.340376 272.928528 " />
<path stroke-linejoin="round" stroke-linecap="round" stroke="rgb(0,0,255)" stroke-width="1.874998" fill="none" d="M 0.000000 750.000000 L 32.258057 0.000000 " />
<path stroke-linejoin="round" stroke-linecap="round" stroke="rgb(255,0,0)" stroke-width="3.749996" fill="none" d="M 20.676769 269.264954 L 23.261368 271.849579 " />
<path stroke-linejoin="round" stroke-linecap="round" stroke="rgb(0,0,255)" stroke-width="1.874998" fill="none" d="M 0.000000 750.000000 L 31.914890 0.000000 " />
<path stroke-linejoin="round" stroke-linecap="round" stroke="rgb(255,0,0)" stroke-width="3.749996" fill="none" d="M 20.465792 269.053955 L 20.676769 269.264954 " />
<path stroke-linejoin="round" stroke-linecap="round" stroke="rgb(0,0,255)" stroke-width="1.874998" fill="none" d="M 0.000000 750.000000 L 31.578943 0.000000 " />
<path stroke-linejoin="round" stroke-linecap="round" stroke="rgb(255,0,0)" stroke-width="3.749996" fill="none" d="M 20.259060 268.847290 L 20.465792 269.053955 " />
<path stroke-linejoin="round" stroke-linecap="round" stroke="rgb(0,0,255)" stroke-width="1.874998" fill="none" d="M 0.000000 750.000000 L 31.249992 0.000000 " />
<path stroke-linejoin="round" stroke-linecap="round" stroke="rgb(255,0,0)" stroke-width="3.749996" fill="none" d="M 20.056463 268.644684 L 20.259060 268.847290 " />
<path stroke-linejoin="round" stroke-linecap="round" stroke="rgb(0,0,255)" stroke-width="1.874998" fill="none" d="M 0.000000 750.000000 L 31.088076 0.000000 " />
<path stroke-linejoin="round" stroke-linecap="round" stroke="rgb(255,0,0)" stroke-width="3.749996" fill="none" d="M 19.956686 268.544830 L 20.056463 268.644653 " />
<path stroke-linejoin="round" stroke-linecap="round" stroke="rgb(0,0,255)" stroke-width="1.874998" fill="none" d="M 0.000000 750.000000 L 30.927837 0.000000 " />
<path stroke-linejoin="round" stroke-linecap="round" stroke="rgb(255,0,0)" stroke-width="3.749996" fill="none" d="M 19.857891 268.446014 L 19.956686 268.544800 " />
<path stroke-linejoin="round" stroke-linecap="round" stroke="rgb(0,0,255)" stroke-width="1.874998" fill="none" d="M 0.000000 750.000000 L 30.769230 0.000000 " />
<path stroke-linejoin="round" stroke-linecap="round" stroke="rgb(255,0,0)" stroke-width="3.749996" fill="none" d="M 19.760080 268.348206 L 19.857891 268.446014 " />
<path stroke-linejoin="round" stroke-linecap="round" stroke="rgb(0,0,255)" stroke-width="1.874998" fill="none" d="M 0.000000 750.000000 L 27.925529 0.000000 " />
<path stroke-linejoin="round" stroke-linecap="round" stroke="rgb(255,0,0)" stroke-width="3.749996" fill="none" d="M 17.999411 266.587555 L 19.760080 268.348206 " />
<path stroke-linejoin="round" stroke-linecap="round" stroke="rgb(0,0,255)" stroke-width="1.874998" fill="none" d="M 0.000000 750.000000 L 23.809523 0.000000 " />
<path stroke-linejoin="round" stroke-linecap="round" stroke="rgb(255,0,0)" stroke-width="3.749996" fill="none" d="M 15.428066 264.016235 L 17.999411 266.587555 " />
<path stroke-linejoin="round" stroke-linecap="round" stroke="rgb(0,0,255)" stroke-width="1.874998" fill="none" d="M 0.000000 750.000000 L 23.560211 0.000000 " />
<path stroke-linejoin="round" stroke-linecap="round" stroke="rgb(255,0,0)" stroke-width="3.749996" fill="none" d="M 15.271425 263.859680 L 15.428066 264.016266 " />
<path stroke-linejoin="round" stroke-linecap="round" stroke="rgb(0,0,255)" stroke-width="1.874998" fill="none" d="M 0.000000 750.000000 L 22.727274 0.000000 " />
<path stroke-linejoin="round" stroke-linecap="round" stroke="rgb(255,0,0)" stroke-width="3.749996" fill="none" d="M 14.747411 263.335632 L 15.271425 263.859711 " />
<path stroke-linejoin="round" stroke-linecap="round" stroke="rgb(0,0,255)" stroke-width="1.874998" fill="none" d="M 0.000000 750.000000 L 18.028849 0.000000 " />
<path stroke-linejoin="round" stroke-linecap="round" stroke="rgb(255,0,0)" stroke-width="3.749996" fill="none" d="M 12.654528 223.571198 L 14.747411 263.335632 " />
<path stroke-linejoin="round" stroke-linecap="round" stroke="rgb(0,0,255)" stroke-width="1.874998" fill="none" d="M 0.000000 750.000000 L 14.354065 0.000000 " />
<path stroke-linejoin="round" stroke-linecap="round" stroke="rgb(255,0,0)" stroke-width="3.749996" fill="none" d="M 10.526307 200.000061 L 12.654528 223.571243 " />
<path stroke-linejoin="round" stroke-linecap="round" stroke="rgb(0,0,255)" stroke-width="1.874998" fill="none" d="M 0.000000 750.000000 L 14.218010 0.000000 " />
<path stroke-linejoin="round" stroke-linecap="round" stroke="rgb(255,0,0)" stroke-width="3.749996" fill="none" d="M 10.452971 198.606308 L 10.526307 200.000061 " />
<path stroke-linejoin="round" stroke-linecap="round" stroke="rgb(0,0,255)" stroke-width="1.874998" fill="none" d="M 0.000000 750.000000 L 14.084503 0.000000 " />
<path stroke-linejoin="round" stroke-linecap="round" stroke="rgb(255,0,0)" stroke-width="3.749996" fill="none" d="M 10.380618 197.231903 L 10.452971 198.606308 " />
<path stroke-linejoin="round" stroke-linecap="round" stroke="rgb(0,0,255)" stroke-width="1.874998" fill="none" d="M 0.000000 750.000000 L 13.636373 0.000000 " />
<path stroke-linejoin="round" stroke-linecap="round" stroke="rgb(255,0,0)" stroke-width="3.749996" fill="none" d="M 10.135129 192.567581 L 10.380618 197.231903 " />
<path stroke-linejoin="round" stroke-linecap="round" stroke="rgb(0,0,255)" stroke-width="1.874998" fill="none" d="M 0.000000 750.000000 L 12.987010 0.000000 " />
<path stroke-linejoin="round" stroke-linecap="round" stroke="rgb(255,0,0)" stroke-width="3.749996" fill="none" d="M 9.771980 185.667755 L 10.135129 192.567581 " />
<path stroke-linejoin="round" stroke-linecap="round" stroke="rgb(0,0,255)" stroke-width="1.874998" fill="none" d="M 0.000000 750.000000 L 12.765951 0.000000 " />
<path stroke-linejoin="round" stroke-linecap="round" stroke="rgb(255,0,0)" stroke-width="3.749996" fill="none" d="M 9.646297 183.279739 L 9.771980 185.667755 " />
<path stroke-linejoin="round" stroke-linecap="round" stroke="rgb(0,0,255)" stroke-width="1.874998" fill="none" d="M 0.000000 750.000000 L 12.658238 0.000000 " />
<path stroke-linejoin="round" stroke-linecap="round" stroke="rgb(255,0,0)" stroke-width="3.749996" fill="none" d="M 9.584673 182.108643 L 9.646297 183.279739 " />
<path stroke-linejoin="round" stroke-linecap="round" stroke="rgb(0,0,255)" stroke-width="1.874998" fill="none" d="M 0.000000 750.000000 L 10.869562 0.000000 " />
<path stroke-linejoin="round" stroke-linecap="round" stroke="rgb(255,0,0)" stroke-width="3.749996" fill="none" d="M 8.522719 161.931870 L 9.584673 182.108643 " />
<path stroke-linejoin="round" stroke-linecap="round" stroke="rgb(0,0,255)" stroke-width="1.874998" fill="none" d="M 0.000000 750.000000 L 6.912433 0.000000 " />
<path stroke-linejoin="round" stroke-linecap="round" stroke="rgb(255,0,0)" stroke-width="3.749996" fill="none" d="M 5.882353 111.764725 L 8.522719 161.931870 " />
<path stroke-linejoin="round" stroke-linecap="round" stroke="rgb(0,0,255)" stroke-width="1.874998" fill="none" d="M 0.000000 750.000000 L 3.440358 0.000000 " />
<path stroke-linejoin="round" stroke-linecap="round" stroke="rgb(255,0,0)" stroke-width="3.749996" fill="none" d="M 3.164560 60.126678 L 5.882353 111.764725 " />
<path stroke-linejoin="round" stroke-linecap="round" stroke="rgb(0,0,255)" stroke-width="1.874998" fill="none" d="M 0.000000 750.000000 L 0.000000 0.000000 " />
<path stroke-linejoin="round" stroke-linecap="round" stroke="rgb(255,0,0)" stroke-width="3.749996" fill="none" d="M 0.000000 0.000000 L 3.164560 60.126678 " />
<circle cx="74.025974" cy="731.493495" r="3.749996" style="fill:rgb(0,127,0);stroke-width:1" /><circle cx="73.773846" cy="726.703003" r="3.749996" style="fill:rgb(0,127,0);stroke-width:1" /><circle cx="72.724141" cy="706.758611" r="3.749996" style="fill:rgb(0,127,0);stroke-width:1" /><circle cx="72.684579" cy="706.006698" r="3.749996" style="fill:rgb(0,127,0);stroke-width:1" /><circle cx="72.355449" cy="699.753173" r="3.749996" style="fill:rgb(0,127,0);stroke-width:1" /><circle cx="72.151914" cy="695.886075" r="3.749996" style="fill:rgb(0,127,0);stroke-width:1" /><circle cx="71.949519" cy="692.040659" r="3.749996" style="fill:rgb(0,127,0);stroke-width:1" /><circle cx="71.748264" cy="688.216768" r="3.749996" style="fill:rgb(0,127,0);stroke-width:1" /><circle cx="71.548149" cy="684.414200" r="3.749996" style="fill:rgb(0,127,0);stroke-width:1" /><circle cx="71.142219" cy="676.701955" r="3.749996" style="fill:rgb(0,127,0);stroke-width:1" /><circle cx="70.937052" cy="672.803789" r="3.749996" style="fill:rgb(0,127,0);stroke-width:1" /><circle cx="69.938667" cy="653.834336" r="3.749996" style="fill:rgb(0,127,0);stroke-width:1" /><circle cx="69.457568" cy="644.693390" r="3.749996" style="fill:rgb(0,127,0);stroke-width:1" /><circle cx="69.300927" cy="641.717300" r="3.749996" style="fill:rgb(0,127,0);stroke-width:1" /><circle cx="69.023453" cy="636.445284" r="3.749996" style="fill:rgb(0,127,0);stroke-width:1" /><circle cx="67.528903" cy="634.950757" r="3.749996" style="fill:rgb(0,127,0);stroke-width:1" /><circle cx="66.905692" cy="623.109877" r="3.749996" style="fill:rgb(0,127,0);stroke-width:1" /><circle cx="66.685617" cy="618.928269" r="3.749996" style="fill:rgb(0,127,0);stroke-width:1" /><circle cx="65.994166" cy="605.790518" r="3.749996" style="fill:rgb(0,127,0);stroke-width:1" /><circle cx="65.903641" cy="604.070507" r="3.749996" style="fill:rgb(0,127,0);stroke-width:1" /><circle cx="65.380588" cy="603.547476" r="3.749996" style="fill:rgb(0,127,0);stroke-width:1" /><circle cx="65.240175" cy="600.879595" r="3.749996" style="fill:rgb(0,127,0);stroke-width:1" /><circle cx="65.021977" cy="596.733883" r="3.749996" style="fill:rgb(0,127,0);stroke-width:1" /><circle cx="64.131036" cy="579.806082" r="3.749996" style="fill:rgb(0,127,0);stroke-width:1" /><circle cx="63.335247" cy="564.685777" r="3.749996" style="fill:rgb(0,127,0);stroke-width:1" /><circle cx="62.902048" cy="556.455228" r="3.749996" style="fill:rgb(0,127,0);stroke-width:1" /><circle cx="62.440820" cy="547.691759" r="3.749996" style="fill:rgb(0,127,0);stroke-width:1" /><circle cx="61.507344" cy="546.758316" r="3.749996" style="fill:rgb(0,127,0);stroke-width:1" /><circle cx="60.972512" cy="536.596231" r="3.749996" style="fill:rgb(0,127,0);stroke-width:1" /><circle cx="60.275987" cy="523.362335" r="3.749996" style="fill:rgb(0,127,0);stroke-width:1" /><circle cx="59.755258" cy="513.468750" r="3.749996" style="fill:rgb(0,127,0);stroke-width:1" /><circle cx="59.199370" cy="502.906948" r="3.749996" style="fill:rgb(0,127,0);stroke-width:1" /><circle cx="57.598069" cy="472.482026" r="3.749996" style="fill:rgb(0,127,0);stroke-width:1" /><circle cx="54.979987" cy="469.863921" r="3.749996" style="fill:rgb(0,127,0);stroke-width:1" /><circle cx="54.475933" cy="460.287077" r="3.749996" style="fill:rgb(0,127,0);stroke-width:1" /><circle cx="54.273047" cy="456.432207" r="3.749996" style="fill:rgb(0,127,0);stroke-width:1" /><circle cx="52.779101" cy="428.047478" r="3.749996" style="fill:rgb(0,127,0);stroke-width:1" /><circle cx="50.140142" cy="425.408509" r="3.749996" style="fill:rgb(0,127,0);stroke-width:1" /><circle cx="49.795501" cy="418.859982" r="3.749996" style="fill:rgb(0,127,0);stroke-width:1" /><circle cx="49.573794" cy="418.638289" r="3.749996" style="fill:rgb(0,127,0);stroke-width:1" /><circle cx="48.287608" cy="417.352117" r="3.749996" style="fill:rgb(0,127,0);stroke-width:1" /><circle cx="47.616944" cy="416.681455" r="3.749996" style="fill:rgb(0,127,0);stroke-width:1" /><circle cx="47.329500" cy="411.220372" r="3.749996" style="fill:rgb(0,127,0);stroke-width:1" /><circle cx="47.139823" cy="407.616092" r="3.749996" style="fill:rgb(0,127,0);stroke-width:1" /><circle cx="46.742834" cy="407.219158" r="3.749996" style="fill:rgb(0,127,0);stroke-width:1" /><circle cx="46.495043" cy="402.510809" r="3.749996" style="fill:rgb(0,127,0);stroke-width:1" /><circle cx="46.310887" cy="399.012135" r="3.749996" style="fill:rgb(0,127,0);stroke-width:1" /><circle cx="45.401864" cy="381.740499" r="3.749996" style="fill:rgb(0,127,0);stroke-width:1" /><circle cx="42.879537" cy="379.218149" r="3.749996" style="fill:rgb(0,127,0);stroke-width:1" /><circle cx="42.763285" cy="377.009189" r="3.749996" style="fill:rgb(0,127,0);stroke-width:1" /><circle cx="42.577229" cy="376.823115" r="3.749996" style="fill:rgb(0,127,0);stroke-width:1" /><circle cx="42.472243" cy="374.828482" r="3.749996" style="fill:rgb(0,127,0);stroke-width:1" /><circle cx="40.254816" cy="372.611046" r="3.749996" style="fill:rgb(0,127,0);stroke-width:1" /><circle cx="40.202737" cy="371.621311" r="3.749996" style="fill:rgb(0,127,0);stroke-width:1" /><circle cx="39.864890" cy="371.283496" r="3.749996" style="fill:rgb(0,127,0);stroke-width:1" /><circle cx="39.093308" cy="356.623542" r="3.749996" style="fill:rgb(0,127,0);stroke-width:1" /><circle cx="38.159095" cy="355.689310" r="3.749996" style="fill:rgb(0,127,0);stroke-width:1" /><circle cx="37.715390" cy="355.245602" r="3.749996" style="fill:rgb(0,127,0);stroke-width:1" /><circle cx="36.523126" cy="332.592772" r="3.749996" style="fill:rgb(0,127,0);stroke-width:1" /><circle cx="35.603777" cy="315.125227" r="3.749996" style="fill:rgb(0,127,0);stroke-width:1" /><circle cx="35.353884" cy="314.875351" r="3.749996" style="fill:rgb(0,127,0);stroke-width:1" /><circle cx="34.949832" cy="314.471304" r="3.749996" style="fill:rgb(0,127,0);stroke-width:1" /><circle cx="32.261387" cy="311.782870" r="3.749996" style="fill:rgb(0,127,0);stroke-width:1" /><circle cx="31.378604" cy="295.010123" r="3.749996" style="fill:rgb(0,127,0);stroke-width:1" /><circle cx="30.542850" cy="279.130910" r="3.749996" style="fill:rgb(0,127,0);stroke-width:1" /><circle cx="27.997613" cy="276.585672" r="3.749996" style="fill:rgb(0,127,0);stroke-width:1" /><circle cx="25.452375" cy="274.040435" r="3.749996" style="fill:rgb(0,127,0);stroke-width:1" /><circle cx="25.196582" cy="273.784664" r="3.749996" style="fill:rgb(0,127,0);stroke-width:1" /><circle cx="25.070608" cy="273.658667" r="3.749996" style="fill:rgb(0,127,0);stroke-width:1" /><circle cx="24.579026" cy="273.167074" r="3.749996" style="fill:rgb(0,127,0);stroke-width:1" /><circle cx="24.340376" cy="272.928502" r="3.749996" style="fill:rgb(0,127,0);stroke-width:1" /><circle cx="23.261368" cy="271.849539" r="3.749996" style="fill:rgb(0,127,0);stroke-width:1" /><circle cx="20.676769" cy="269.264963" r="3.749996" style="fill:rgb(0,127,0);stroke-width:1" /><circle cx="20.465791" cy="269.053962" r="3.749996" style="fill:rgb(0,127,0);stroke-width:1" /><circle cx="20.259060" cy="268.847287" r="3.749996" style="fill:rgb(0,127,0);stroke-width:1" /><circle cx="20.056464" cy="268.644691" r="3.749996" style="fill:rgb(0,127,0);stroke-width:1" /><circle cx="19.956686" cy="268.544845" r="3.749996" style="fill:rgb(0,127,0);stroke-width:1" /><circle cx="19.857891" cy="268.446028" r="3.749996" style="fill:rgb(0,127,0);stroke-width:1" /><circle cx="19.760080" cy="268.348217" r="3.749996" style="fill:rgb(0,127,0);stroke-width:1" /><circle cx="17.999411" cy="266.587548" r="3.749996" style="fill:rgb(0,127,0);stroke-width:1" /><circle cx="15.428066" cy="264.016237" r="3.749996" style="fill:rgb(0,127,0);stroke-width:1" /><circle cx="15.271425" cy="263.859663" r="3.749996" style="fill:rgb(0,127,0);stroke-width:1" /><circle cx="14.747411" cy="263.335638" r="3.749996" style="fill:rgb(0,127,0);stroke-width:1" /><circle cx="12.654528" cy="223.571207" r="3.749996" style="fill:rgb(0,127,0);stroke-width:1" /><circle cx="10.526307" cy="200.000055" r="3.749996" style="fill:rgb(0,127,0);stroke-width:1" /><circle cx="10.452971" cy="198.606312" r="3.749996" style="fill:rgb(0,127,0);stroke-width:1" /><circle cx="10.380618" cy="197.231915" r="3.749996" style="fill:rgb(0,127,0);stroke-width:1" /><circle cx="10.135129" cy="192.567587" r="3.749996" style="fill:rgb(0,127,0);stroke-width:1" /><circle cx="9.771980" cy="185.667761" r="3.749996" style="fill:rgb(0,127,0);stroke-width:1" /><circle cx="9.646297" cy="183.279745" r="3.749996" style="fill:rgb(0,127,0);stroke-width:1" /><circle cx="9.584673" cy="182.108648" r="3.749996" style="fill:rgb(0,127,0);stroke-width:1" /><circle cx="8.522719" cy="161.931865" r="3.749996" style="fill:rgb(0,127,0);stroke-width:1" /><circle cx="5.882353" cy="111.764722" r="3.749996" style="fill:rgb(0,127,0);stroke-width:1" /><circle cx="3.164560" cy="60.126677" r="3.749996" style="fill:rgb(0,127,0);stroke-width:1" /><circle cx="750.000000" cy="750.000000" r="3.749996" style="fill:rgb(0,127,0);stroke-width:1" /><path stroke-linejoin="round" stroke-linecap="round" stroke="rgb(255,255,255)" stroke-width="3.749996" fill="none" d="M 0.000000 750.000000 L 750.000000 750.000000 M 0.000000 750.000000 L 0.000000 0.000000 " />

</svg>