<svg xmlns="http://www.w3.org/2000/svg" version="1.1" width = "750" height = "750" viewBox = "0 0 750 750"  shape-rendering="crispEdges">
<path stroke-linejoin="round" stroke-linecap="round" stroke="rgb(255,255,0)" stroke-width="3.749996" fill="none" d="M 83.333328 750.000000 L 0.000000 0.000000 " />
<path stroke-linejoin="round" stroke-linecap="round" stroke="rgb(63,63,63)" stroke-width="3.749996" fill="none" d="M 0.000000 0.000000 L 750.000000 750.000000 M 83.333328 750.000000 L 39.215683 0.000000 " />
<path stroke-linejoin="round" stroke-linecap="round" stroke="rgb(191,191,191)" stroke-width="3.749996" fill="none" d="M 0.000000 666.666687 L 83.333328 750.000000 M 0.000000 0.000000 L 44.117645 750.000000 " />
<path stroke-linejoin="round" stroke-linecap="round" stroke="rgb(0,0,255)" stroke-width="1.874998" fill="none" d="M 0.000000 750.000000 L 750.000000 731.707336 " />
<path stroke-linejoin="round" stroke-linecap="round" stroke="rgb(255,0,0)" stroke-width="3.749996" fill="none" d="M 83.213928 747.970398 L 83.333328 750.000000 " />
<path stroke-linejoin="round" stroke-linecap="round" stroke="rgb(0,0,255)" stroke-width="1.874998" fill="none" d="M 0.000000 750.000000 L 750.000000 712.500000 " />
<path stroke-linejoin="round" stroke-linecap="round" stroke="rgb(255,0,0)" stroke-width="3.749996" fill="none" d="M 81.184341 745.940796 L 83.213928 747.970398 " />
<path stroke-linejoin="round" stroke-linecap="round" stroke="rgb(0,0,255)" stroke-width="1.874998" fill="none" d="M 0.000000 750.000000 L 750.000000 530.487854 " />
<path stroke-linejoin="round" stroke-linecap="round" stroke="rgb(255,0,0)" stroke-width="3.749996" fill="none" d="M 80.045006 726.572205 L 81.184341 745.940796 " />
<path stroke-linejoin="round" stroke-linecap="round" stroke="rgb(0,0,255)" stroke-width="1.874998" fill="none" d="M 0.000000 750.000000 L 750.000000 493.902405 " />
<path stroke-linejoin="round" stroke-linecap="round" stroke="rgb(255,0,0)" stroke-width="3.749996" fill="none" d="M 79.819855 722.744446 L 80.045006 726.572205 " />
<path stroke-linejoin="round" stroke-linecap="round" stroke="rgb(0,0,255)" stroke-width="1.874998" fill="none" d="M 0.000000 750.000000 L 750.000000 453.947327 " />
<path stroke-linejoin="round" stroke-linecap="round" stroke="rgb(255,0,0)" stroke-width="3.749996" fill="none" d="M 79.575378 718.588623 L 79.819855 722.744446 " />
<path stroke-linejoin="round" stroke-linecap="round" stroke="rgb(0,0,255)" stroke-width="1.874998" fill="none" d="M 0.000000 750.000000 L 750.000000 243.243225 " />
<path stroke-linejoin="round" stroke-linecap="round" stroke="rgb(255,0,0)" stroke-width="3.749996" fill="none" d="M 78.310600 697.087463 L 79.575378 718.588623 " />
<path stroke-linejoin="round" stroke-linecap="round" stroke="rgb(0,0,255)" stroke-width="1.874998" fill="none" d="M 0.000000 750.000000 L 750.000000 236.842102 " />
<path stroke-linejoin="round" stroke-linecap="round" stroke="rgb(255,0,0)" stroke-width="3.749996" fill="none" d="M 78.272804 696.444885 L 78.310600 697.087463 " />
<path stroke-linejoin="round" stroke-linecap="round" stroke="rgb(0,0,255)" stroke-width="1.874998" fill="none" d="M 0.000000 750.000000 L 750.000000 166.666656 " />
<path stroke-linejoin="round" stroke-linecap="round" stroke="rgb(255,0,0)" stroke-width="3.749996" fill="none" d="M 77.860840 689.441528 L 78.272827 696.444885 " />
<path stroke-linejoin="round" stroke-linecap="round" stroke="rgb(0,0,255)" stroke-width="1.874998" fill="none" d="M 0.000000 750.000000 L 750.000000 125.000015 " />
<path stroke-linejoin="round" stroke-linecap="round" stroke="rgb(255,0,0)" stroke-width="3.749996" fill="none" d="M 77.618279 685.318054 L 77.860840 689.441589 " />
<path stroke-linejoin="round" stroke-linecap="round" stroke="rgb(0,0,255)" stroke-width="1.874998" fill="none" d="M 0.000000 750.000000 L 750.000000 85.714279 " />
<path stroke-linejoin="round" stroke-linecap="round" stroke="rgb(255,0,0)" stroke-width="3.749996" fill="none" d="M 77.390961 681.453735 L 77.618279 685.318054 " />
<path stroke-linejoin="round" stroke-linecap="round" stroke="rgb(0,0,255)" stroke-width="1.874998" fill="none" d="M 0.000000 750.000000 L 750.000000 0.000000 " />
<path stroke-linejoin="round" stroke-linecap="round" stroke="rgb(255,0,0)" stroke-width="3.749996" fill="none" d="M 76.899605 673.100403 L 77.390961 681.453735 " />
<path stroke-linejoin="round" stroke-linecap="round" stroke="rgb(0,0,255)" stroke-width="1.874998" fill="none" d="M 0.000000 750.000000 L 705.882385 0.000000 " />
<path stroke-linejoin="round" stroke-linecap="round" stroke="rgb(255,0,0)" stroke-width="3.749996" fill="none" d="M 76.633507 668.576904 L 76.899605 673.100403 " />
<path stroke-linejoin="round" stroke-linecap="round" stroke="rgb(0,0,255)" stroke-width="1.874998" fill="none" d="M 0.000000 750.000000 L 528.409119 0.000000 " />
<path stroke-linejoin="round" stroke-linecap="round" stroke="rgb(255,0,0)" stroke-width="3.749996" fill="none" d="M 75.148811 643.337158 L 76.633507 668.576904 " />
<path stroke-linejoin="round" stroke-linecap="round" stroke="rgb(0,0,255)" stroke-width="1.874998" fill="none" d="M 0.000000 750.000000 L 472.826050 0.000000 " />
<path stroke-linejoin="round" stroke-linecap="round" stroke="rgb(255,0,0)" stroke-width="3.749996" fill="none" d="M 74.474174 631.868530 L 75.148788 643.337219 " />
<path stroke-linejoin="round" stroke-linecap="round" stroke="rgb(0,0,255)" stroke-width="1.874998" fill="none" d="M 0.000000 750.000000 L 453.124969 0.000000 " />
<path stroke-linejoin="round" stroke-linecap="round" stroke="rgb(255,0,0)" stroke-width="3.749996" fill="none" d="M 74.198868 627.188110 L 74.474174 631.868530 " />
<path stroke-linejoin="round" stroke-linecap="round" stroke="rgb(0,0,255)" stroke-width="1.874998" fill="none" d="M 0.000000 750.000000 L 405.000031 0.000000 " />
<path stroke-linejoin="round" stroke-linecap="round" stroke="rgb(255,0,0)" stroke-width="3.749996" fill="none" d="M 73.424759 614.028259 L 74.198868 627.188110 " />
<path stroke-linejoin="round" stroke-linecap="round" stroke="rgb(0,0,255)" stroke-width="1.874998" fill="none" d="M 0.000000 750.000000 L 382.352966 0.000000 " />
<path stroke-linejoin="round" stroke-linecap="round" stroke="rgb(255,0,0)" stroke-width="3.749996" fill="none" d="M 73.000008 606.807678 L 73.424759 614.028259 " />
<path stroke-linejoin="round" stroke-linecap="round" stroke="rgb(0,0,255)" stroke-width="1.874998" fill="none" d="M 0.000000 750.000000 L 307.377045 0.000000 " />
<path stroke-linejoin="round" stroke-linecap="round" stroke="rgb(255,0,0)" stroke-width="3.749996" fill="none" d="M 71.203331 576.263916 L 73.000031 606.807678 " />
<path stroke-linejoin="round" stroke-linecap="round" stroke="rgb(0,0,255)" stroke-width="1.874998" fill="none" d="M 0.000000 750.000000 L 304.687469 0.000000 " />
<path stroke-linejoin="round" stroke-linecap="round" stroke="rgb(255,0,0)" stroke-width="3.749996" fill="none" d="M 71.124519 574.924255 L 71.203331 576.263916 " />
<path stroke-linejoin="round" stroke-linecap="round" stroke="rgb(0,0,255)" stroke-width="1.874998" fill="none" d="M 0.000000 750.000000 L 288.461548 0.000000 " />
<path stroke-linejoin="round" stroke-linecap="round" stroke="rgb(255,0,0)" stroke-width="3.749996" fill="none" d="M 70.622070 566.382629 L 71.124519 574.924255 " />
<path stroke-linejoin="round" stroke-linecap="round" stroke="rgb(0,0,255)" stroke-width="1.874998" fill="none" d="M 0.000000 750.000000 L 274.647888 0.000000 " />
<path stroke-linejoin="round" stroke-linecap="round" stroke="rgb(255,0,0)" stroke-width="3.749996" fill="none" d="M 70.154007 558.425598 L 70.622070 566.382629 " />
<path stroke-linejoin="round" stroke-linecap="round" stroke="rgb(0,0,255)" stroke-width="1.874998" fill="none" d="M 0.000000 750.000000 L 260.416656 0.000000 " />
<path stroke-linejoin="round" stroke-linecap="round" stroke="rgb(255,0,0)" stroke-width="3.749996" fill="none" d="M 69.627373 549.473145 L 70.154007 558.425659 " />
<path stroke-linejoin="round" stroke-linecap="round" stroke="rgb(0,0,255)" stroke-width="1.874998" fill="none" d="M 0.000000 750.000000 L 246.575348 0.000000 " />
<path stroke-linejoin="round" stroke-linecap="round" stroke="rgb(255,0,0)" stroke-width="3.749996" fill="none" d="M 69.065742 539.925049 L 69.627373 549.473145 " />
<path stroke-linejoin="round" stroke-linecap="round" stroke="rgb(0,0,255)" stroke-width="1.874998" fill="none" d="M 0.000000 750.000000 L 207.831329 0.000000 " />
<path stroke-linejoin="round" stroke-linecap="round" stroke="rgb(255,0,0)" stroke-width="3.749996" fill="none" d="M 67.165466 507.620300 L 69.065742 539.925049 " />
<path stroke-linejoin="round" stroke-linecap="round" stroke="rgb(0,0,255)" stroke-width="1.874998" fill="none" d="M 0.000000 750.000000 L 193.548386 0.000000 " />
<path stroke-linejoin="round" stroke-linecap="round" stroke="rgb(255,0,0)" stroke-width="3.749996" fill="none" d="M 66.308609 493.054108 L 67.165466 507.620300 " />
<path stroke-linejoin="round" stroke-linecap="round" stroke="rgb(0,0,255)" stroke-width="1.874998" fill="none" d="M 0.000000 750.000000 L 191.860474 0.000000 " />
<path stroke-linejoin="round" stroke-linecap="round" stroke="rgb(255,0,0)" stroke-width="3.749996" fill="none" d="M 66.200493 491.216187 L 66.308609 493.054108 " />
<path stroke-linejoin="round" stroke-linecap="round" stroke="rgb(0,0,255)" stroke-width="1.874998" fill="none" d="M 0.000000 750.000000 L 189.873413 0.000000 " />
<path stroke-linejoin="round" stroke-linecap="round" stroke="rgb(255,0,0)" stroke-width="3.749996" fill="none" d="M 65.653389 490.669067 L 66.200493 491.216187 " />
<path stroke-linejoin="round" stroke-linecap="round" stroke="rgb(0,0,255)" stroke-width="1.874998" fill="none" d="M 0.000000 750.000000 L 178.125015 0.000000 " />
<path stroke-linejoin="round" stroke-linecap="round" stroke="rgb(255,0,0)" stroke-width="3.749996" fill="none" d="M 62.370724 487.386383 L 65.653412 490.669067 " />
<path stroke-linejoin="round" stroke-linecap="round" stroke="rgb(0,0,255)" stroke-width="1.874998" fill="none" d="M 0.000000 750.000000 L 149.999985 0.000000 " />
<path stroke-linejoin="round" stroke-linecap="round" stroke="rgb(255,0,0)" stroke-width="3.749996" fill="none" d="M 60.132557 449.337250 L 62.370724 487.386383 " />
<path stroke-linejoin="round" stroke-linecap="round" stroke="rgb(0,0,255)" stroke-width="1.874998" fill="none" d="M 0.000000 750.000000 L 127.659561 0.000000 " />
<path stroke-linejoin="round" stroke-linecap="round" stroke="rgb(255,0,0)" stroke-width="3.749996" fill="none" d="M 57.832405 410.234650 L 60.132557 449.337250 " />
<path stroke-linejoin="round" stroke-linecap="round" stroke="rgb(0,0,255)" stroke-width="1.874998" fill="none" d="M 0.000000 750.000000 L 108.173088 0.000000 " />
<path stroke-linejoin="round" stroke-linecap="round" stroke="rgb(255,0,0)" stroke-width="3.749996" fill="none" d="M 55.275051 366.759644 L 57.832405 410.234650 " />
<path stroke-linejoin="round" stroke-linecap="round" stroke="rgb(0,0,255)" stroke-width="1.874998" fill="none" d="M 0.000000 750.000000 L 107.142853 0.000000 " />
<path stroke-linejoin="round" stroke-linecap="round" stroke="rgb(255,0,0)" stroke-width="3.749996" fill="none" d="M 54.814426 366.299011 L 55.275051 366.759644 " />
<path stroke-linejoin="round" stroke-linecap="round" stroke="rgb(0,0,255)" stroke-width="1.874998" fill="none" d="M 0.000000 750.000000 L 99.999992 0.000000 " />
<path stroke-linejoin="round" stroke-linecap="round" stroke="rgb(255,0,0)" stroke-width="3.749996" fill="none" d="M 51.590054 363.074646 L 54.814426 366.299011 " />
<path stroke-linejoin="round" stroke-linecap="round" stroke="rgb(0,0,255)" stroke-width="1.874998" fill="none" d="M 0.000000 750.000000 L 91.981125 0.000000 " />
<path stroke-linejoin="round" stroke-linecap="round" stroke="rgb(255,0,0)" stroke-width="3.749996" fill="none" d="M 47.905056 359.389618 L 51.590054 363.074646 " />
<path stroke-linejoin="round" stroke-linecap="round" stroke="rgb(0,0,255)" stroke-width="1.874998" fill="none" d="M 0.000000 750.000000 L 90.517242 0.000000 " />
<path stroke-linejoin="round" stroke-linecap="round" stroke="rgb(255,0,0)" stroke-width="3.749996" fill="none" d="M 47.655209 355.142456 L 47.905037 359.389648 " />
<path stroke-linejoin="round" stroke-linecap="round" stroke="rgb(0,0,255)" stroke-width="1.874998" fill="none" d="M 0.000000 750.000000 L 90.277771 0.000000 " />
<path stroke-linejoin="round" stroke-linecap="round" stroke="rgb(255,0,0)" stroke-width="3.749996" fill="none" d="M 47.542690 355.029938 L 47.655209 355.142456 " />
<path stroke-linejoin="round" stroke-linecap="round" stroke="rgb(0,0,255)" stroke-width="1.874998" fill="none" d="M 0.000000 750.000000 L 82.568810 0.000000 " />
<path stroke-linejoin="round" stroke-linecap="round" stroke="rgb(255,0,0)" stroke-width="3.749996" fill="none" d="M 43.885567 351.372803 L 47.542690 355.029938 " />
<path stroke-linejoin="round" stroke-linecap="round" stroke="rgb(0,0,255)" stroke-width="1.874998" fill="none" d="M 0.000000 750.000000 L 81.081078 0.000000 " />
<path stroke-linejoin="round" stroke-linecap="round" stroke="rgb(255,0,0)" stroke-width="3.749996" fill="none" d="M 43.171986 350.659210 L 43.885567 351.372803 " />
<path stroke-linejoin="round" stroke-linecap="round" stroke="rgb(0,0,255)" stroke-width="1.874998" fill="none" d="M 0.000000 750.000000 L 79.646004 0.000000 " />
<path stroke-linejoin="round" stroke-linecap="round" stroke="rgb(255,0,0)" stroke-width="3.749996" fill="none" d="M 42.481228 349.968475 L 43.171986 350.659210 " />
<path stroke-linejoin="round" stroke-linecap="round" stroke="rgb(0,0,255)" stroke-width="1.874998" fill="none" d="M 0.000000 750.000000 L 78.260872 0.000000 " />
<path stroke-linejoin="round" stroke-linecap="round" stroke="rgb(255,0,0)" stroke-width="3.749996" fill="none" d="M 41.812241 349.299469 L 42.481228 349.968475 " />
<path stroke-linejoin="round" stroke-linecap="round" stroke="rgb(0,0,255)" stroke-width="1.874998" fill="none" d="M 0.000000 750.000000 L 76.923073 0.000000 " />
<path stroke-linejoin="round" stroke-linecap="round" stroke="rgb(255,0,0)" stroke-width="3.749996" fill="none" d="M 41.163975 348.651245 L 41.812241 349.299469 " />
<path stroke-linejoin="round" stroke-linecap="round" stroke="rgb(0,0,255)" stroke-width="1.874998" fill="none" d="M 0.000000 750.000000 L 69.915268 0.000000 " />
<path stroke-linejoin="round" stroke-linecap="round" stroke="rgb(255,0,0)" stroke-width="3.749996" fill="none" d="M 37.733650 345.220917 L 41.163975 348.651245 " />
<path stroke-linejoin="round" stroke-linecap="round" stroke="rgb(0,0,255)" stroke-width="1.874998" fill="none" d="M 0.000000 750.000000 L 63.025208 0.000000 " />
<path stroke-linejoin="round" stroke-linecap="round" stroke="rgb(255,0,0)" stroke-width="3.749996" fill="none" d="M 34.303307 341.790588 L 37.733650 345.220917 " />
<path stroke-linejoin="round" stroke-linecap="round" stroke="rgb(0,0,255)" stroke-width="1.874998" fill="none" d="M 0.000000 750.000000 L 56.249992 0.000000 " />
<path stroke-linejoin="round" stroke-linecap="round" stroke="rgb(255,0,0)" stroke-width="3.749996" fill="none" d="M 30.872986 338.360260 L 34.303307 341.790588 " />
<path stroke-linejoin="round" stroke-linecap="round" stroke="rgb(0,0,255)" stroke-width="1.874998" fill="none" d="M 0.000000 750.000000 L 55.327869 0.000000 " />
<path stroke-linejoin="round" stroke-linecap="round" stroke="rgb(255,0,0)" stroke-width="3.749996" fill="none" d="M 30.401632 337.888916 L 30.872986 338.360260 " />
<path stroke-linejoin="round" stroke-linecap="round" stroke="rgb(0,0,255)" stroke-width="1.874998" fill="none" d="M 0.000000 750.000000 L 54.744534 0.000000 " />
<path stroke-linejoin="round" stroke-linecap="round" stroke="rgb(255,0,0)" stroke-width="3.749996" fill="none" d="M 30.258604 335.457184 L 30.401632 337.888855 " />
<path stroke-linejoin="round" stroke-linecap="round" stroke="rgb(0,0,255)" stroke-width="1.874998" fill="none" d="M 0.000000 750.000000 L 52.325584 0.000000 " />
<path stroke-linejoin="round" stroke-linecap="round" stroke="rgb(255,0,0)" stroke-width="3.749996" fill="none" d="M 29.008783 334.207428 L 30.258604 335.457184 " />
<path stroke-linejoin="round" stroke-linecap="round" stroke="rgb(0,0,255)" stroke-width="1.874998" fill="none" d="M 0.000000 750.000000 L 46.153843 0.000000 " />
<path stroke-linejoin="round" stroke-linecap="round" stroke="rgb(255,0,0)" stroke-width="3.749996" fill="none" d="M 25.785595 330.984192 L 29.008783 334.207428 " />
<path stroke-linejoin="round" stroke-linecap="round" stroke="rgb(0,0,255)" stroke-width="1.874998" fill="none" d="M 0.000000 750.000000 L 40.076336 0.000000 " />
<path stroke-linejoin="round" stroke-linecap="round" stroke="rgb(255,0,0)" stroke-width="3.749996" fill="none" d="M 22.562386 327.760986 L 25.785595 330.984192 " />
<path stroke-linejoin="round" stroke-linecap="round" stroke="rgb(0,0,255)" stroke-width="1.874998" fill="none" d="M 0.000000 750.000000 L 34.090919 0.000000 " />
<path stroke-linejoin="round" stroke-linecap="round" stroke="rgb(255,0,0)" stroke-width="3.749996" fill="none" d="M 19.339197 324.537781 L 22.562386 327.760986 " />
<path stroke-linejoin="round" stroke-linecap="round" stroke="rgb(0,0,255)" stroke-width="1.874998" fill="none" d="M 0.000000 750.000000 L 33.582085 0.000000 " />
<path stroke-linejoin="round" stroke-linecap="round" stroke="rgb(255,0,0)" stroke-width="3.749996" fill="none" d="M 19.067802 324.152557 L 19.339197 324.537781 " />
<path stroke-linejoin="round" stroke-linecap="round" stroke="rgb(0,0,255)" stroke-width="1.874998" fill="none" d="M 0.000000 750.000000 L 33.088245 0.000000 " />
<path stroke-linejoin="round" stroke-linecap="round" stroke="rgb(255,0,0)" stroke-width="3.749996" fill="none" d="M 18.907562 321.428589 L 19.067802 324.152588 " />
<path stroke-linejoin="round" stroke-linecap="round" stroke="rgb(0,0,255)" stroke-width="1.874998" fill="none" d="M 0.000000 750.000000 L 32.608688 0.000000 " />
<path stroke-linejoin="round" stroke-linecap="round" stroke="rgb(255,0,0)" stroke-width="3.749996" fill="none" d="M 18.750004 318.750031 L 18.907562 321.428589 " />
<path stroke-linejoin="round" stroke-linecap="round" stroke="rgb(0,0,255)" stroke-width="1.874998" fill="none" d="M 0.000000 750.000000 L 32.374107 0.000000 " />
<path stroke-linejoin="round" stroke-linecap="round" stroke="rgb(255,0,0)" stroke-width="3.749996" fill="none" d="M 18.672197 317.427368 L 18.750004 318.750031 " />
<path stroke-linejoin="round" stroke-linecap="round" stroke="rgb(0,0,255)" stroke-width="1.874998" fill="none" d="M 0.000000 750.000000 L 32.142857 0.000000 " />
<path stroke-linejoin="round" stroke-linecap="round" stroke="rgb(255,0,0)" stroke-width="3.749996" fill="none" d="M 18.595039 316.115662 L 18.672197 317.427368 " />
<path stroke-linejoin="round" stroke-linecap="round" stroke="rgb(0,0,255)" stroke-width="1.874998" fill="none" d="M 0.000000 750.000000 L 24.999998 0.000000 " />
<path stroke-linejoin="round" stroke-linecap="round" stroke="rgb(255,0,0)" stroke-width="3.749996" fill="none" d="M 15.957445 271.276520 L 18.595039 316.115662 " />
<path stroke-linejoin="round" stroke-linecap="round" stroke="rgb(0,0,255)" stroke-width="1.874998" fill="none" d="M 0.000000 750.000000 L 18.750004 0.000000 " />
<path stroke-linejoin="round" stroke-linecap="round" stroke="rgb(255,0,0)" stroke-width="3.749996" fill="none" d="M 13.157889 223.684067 L 15.957445 271.276520 " />
<path stroke-linejoin="round" stroke-linecap="round" stroke="rgb(0,0,255)" stroke-width="1.874998" fill="none" d="M 0.000000 750.000000 L 13.975159 0.000000 " />
<path stroke-linejoin="round" stroke-linecap="round" stroke="rgb(255,0,0)" stroke-width="3.749996" fill="none" d="M 10.613211 180.424484 L 13.157889 223.684021 " />
<path stroke-linejoin="round" stroke-linecap="round" stroke="rgb(0,0,255)" stroke-width="1.874998" fill="none" d="M 0.000000 750.000000 L 13.803676 0.000000 " />
<path stroke-linejoin="round" stroke-linecap="round" stroke="rgb(255,0,0)" stroke-width="3.749996" fill="none" d="M 10.514013 178.738281 L 10.613211 180.424423 " />
<path stroke-linejoin="round" stroke-linecap="round" stroke="rgb(0,0,255)" stroke-width="1.874998" fill="none" d="M 0.000000 750.000000 L 12.711861 0.000000 " />
<path stroke-linejoin="round" stroke-linecap="round" stroke="rgb(255,0,0)" stroke-width="3.749996" fill="none" d="M 9.868428 167.763123 L 10.514013 178.738205 " />
<path stroke-linejoin="round" stroke-linecap="round" stroke="rgb(0,0,255)" stroke-width="1.874998" fill="none" d="M 0.000000 750.000000 L 11.968083 0.000000 " />
<path stroke-linejoin="round" stroke-linecap="round" stroke="rgb(255,0,0)" stroke-width="3.749996" fill="none" d="M 9.414218 160.041809 L 9.868428 167.763123 " />
<path stroke-linejoin="round" stroke-linecap="round" stroke="rgb(0,0,255)" stroke-width="1.874998" fill="none" d="M 0.000000 750.000000 L 8.620687 0.000000 " />
<path stroke-linejoin="round" stroke-linecap="round" stroke="rgb(255,0,0)" stroke-width="3.749996" fill="none" d="M 7.211544 122.596062 L 9.414218 160.041809 " />
<path stroke-linejoin="round" stroke-linecap="round" stroke="rgb(0,0,255)" stroke-width="1.874998" fill="none" d="M 0.000000 750.000000 L 4.285723 0.000000 " />
<path stroke-linejoin="round" stroke-linecap="round" stroke="rgb(255,0,0)" stroke-width="3.749996" fill="none" d="M 3.906257 66.406174 L 7.211544 122.596016 " />
<path stroke-linejoin="round" stroke-linecap="round" stroke="rgb(0,0,255)" stroke-width="1.874998" fill="none" d="M 0.000000 750.000000 L 0.000000 0.000000 " />
<path stroke-linejoin="round" stroke-linecap="round" stroke="rgb(255,0,0)" stroke-width="3.749996" fill="none" d="M 0.000000 0.000000 L 3.906257 66.406174 " />
<circle cx="83.213925" cy="747.970417" r="3.749996" style="fill:rgb(0,127,0);stroke-width:1" /><circle cx="81.184343" cy="745.940790" r="3.749996" style="fill:rgb(0,127,0);stroke-width:1" /><circle cx="80.045007" cy="726.572201" r="3.749996" style="fill:rgb(0,127,0);stroke-width:1" /><circle cx="79.819858" cy="722.744443" r="3.749996" style="fill:rgb(0,127,0);stroke-width:1" /><circle cx="79.575375" cy="718.588673" r="3.749996" style="fill:rgb(0,127,0);stroke-width:1" /><circle cx="78.310601" cy="697.087437" r="3.749996" style="fill:rgb(0,127,0);stroke-width:1" /><circle cx="78.272805" cy="696.444914" r="3.749996" style="fill:rgb(0,127,0);stroke-width:1" /><circle cx="77.860840" cy="689.441554" r="3.749996" style="fill:rgb(0,127,0);stroke-width:1" /><circle cx="77.618279" cy="685.318105" r="3.749996" style="fill:rgb(0,127,0);stroke-width:1" /><circle cx="77.390961" cy="681.453712" r="3.749996" style="fill:rgb(0,127,0);stroke-width:1" /><circle cx="76.899603" cy="673.100397" r="3.749996" style="fill:rgb(0,127,0);stroke-width:1" /><circle cx="76.633506" cy="668.576896" r="3.749996" style="fill:rgb(0,127,0);stroke-width:1" /><circle cx="75.148813" cy="643.337175" r="3.749996" style="fill:rgb(0,127,0);stroke-width:1" /><circle cx="74.474171" cy="631.868541" r="3.749996" style="fill:rgb(0,127,0);stroke-width:1" /><circle cx="74.198864" cy="627.188087" r="3.749996" style="fill:rgb(0,127,0);stroke-width:1" /><circle cx="73.424757" cy="614.028253" r="3.749996" style="fill:rgb(0,127,0);stroke-width:1" /><circle cx="73.000006" cy="606.807679" r="3.749996" style="fill:rgb(0,127,0);stroke-width:1" /><circle cx="71.203329" cy="576.263890" r="3.749996" style="fill:rgb(0,127,0);stroke-width:1" /><circle cx="71.124516" cy="574.924260" r="3.749996" style="fill:rgb(0,127,0);stroke-width:1" /><circle cx="70.622072" cy="566.382632" r="3.749996" style="fill:rgb(0,127,0);stroke-width:1" /><circle cx="70.154004" cy="558.425602" r="3.749996" style="fill:rgb(0,127,0);stroke-width:1" /><circle cx="69.627374" cy="549.473125" r="3.749996" style="fill:rgb(0,127,0);stroke-width:1" /><circle cx="69.065742" cy="539.925043" r="3.749996" style="fill:rgb(0,127,0);stroke-width:1" /><circle cx="67.165464" cy="507.620316" r="3.749996" style="fill:rgb(0,127,0);stroke-width:1" /><circle cx="66.308610" cy="493.054111" r="3.749996" style="fill:rgb(0,127,0);stroke-width:1" /><circle cx="66.200495" cy="491.216205" r="3.749996" style="fill:rgb(0,127,0);stroke-width:1" /><circle cx="65.653391" cy="490.669068" r="3.749996" style="fill:rgb(0,127,0);stroke-width:1" /><circle cx="62.370725" cy="487.386391" r="3.749996" style="fill:rgb(0,127,0);stroke-width:1" /><circle cx="60.132556" cy="449.337266" r="3.749996" style="fill:rgb(0,127,0);stroke-width:1" /><circle cx="57.832405" cy="410.234649" r="3.749996" style="fill:rgb(0,127,0);stroke-width:1" /><circle cx="55.275053" cy="366.759658" r="3.749996" style="fill:rgb(0,127,0);stroke-width:1" /><circle cx="54.814428" cy="366.299033" r="3.749996" style="fill:rgb(0,127,0);stroke-width:1" /><circle cx="51.590055" cy="363.074660" r="3.749996" style="fill:rgb(0,127,0);stroke-width:1" /><circle cx="47.905058" cy="359.389623" r="3.749996" style="fill:rgb(0,127,0);stroke-width:1" /><circle cx="47.655210" cy="355.142474" r="3.749996" style="fill:rgb(0,127,0);stroke-width:1" /><circle cx="47.542691" cy="355.029941" r="3.749996" style="fill:rgb(0,127,0);stroke-width:1" /><circle cx="43.885566" cy="351.372798" r="3.749996" style="fill:rgb(0,127,0);stroke-width:1" /><circle cx="43.171987" cy="350.659210" r="3.749996" style="fill:rgb(0,127,0);stroke-width:1" /><circle cx="42.481229" cy="349.968474" r="3.749996" style="fill:rgb(0,127,0);stroke-width:1" /><circle cx="41.812241" cy="349.299470" r="3.749996" style="fill:rgb(0,127,0);stroke-width:1" /><circle cx="41.163974" cy="348.651250" r="3.749996" style="fill:rgb(0,127,0);stroke-width:1" /><circle cx="37.733652" cy="345.220922" r="3.749996" style="fill:rgb(0,127,0);stroke-width:1" /><circle cx="34.303308" cy="341.790598" r="3.749996" style="fill:rgb(0,127,0);stroke-width:1" /><circle cx="30.872986" cy="338.360270" r="3.749996" style="fill:rgb(0,127,0);stroke-width:1" /><circle cx="30.401632" cy="337.888917" r="3.749996" style="fill:rgb(0,127,0);stroke-width:1" /><circle cx="30.258603" cy="335.457207" r="3.749996" style="fill:rgb(0,127,0);stroke-width:1" /><circle cx="29.008783" cy="334.207415" r="3.749996" style="fill:rgb(0,127,0);stroke-width:1" /><circle cx="25.785595" cy="330.984196" r="3.749996" style="fill:rgb(0,127,0);stroke-width:1" /><circle cx="22.562385" cy="327.760974" r="3.749996" style="fill:rgb(0,127,0);stroke-width:1" /><circle cx="19.339196" cy="324.537791" r="3.749996" style="fill:rgb(0,127,0);stroke-width:1" /><circle cx="19.067802" cy="324.152548" r="3.749996" style="fill:rgb(0,127,0);stroke-width:1" /><circle cx="18.907562" cy="321.428575" r="3.749996" style="fill:rgb(0,127,0);stroke-width:1" /><circle cx="18.750004" cy="318.750026" r="3.749996" style="fill:rgb(0,127,0);stroke-width:1" /><circle cx="18.672198" cy="317.427356" r="3.749996" style="fill:rgb(0,127,0);stroke-width:1" /><circle cx="18.595040" cy="316.115655" r="3.749996" style="fill:rgb(0,127,0);stroke-width:1" /><circle cx="15.957445" cy="271.276519" r="3.749996" style="fill:rgb(0,127,0);stroke-width:1" /><circle cx="13.157889" cy="223.684072" r="3.749996" style="fill:rgb(0,127,0);stroke-width:1" /><circle cx="10.613210" cy="180.424489" r="3.749996" style="fill:rgb(0,127,0);stroke-width:1" /><circle cx="10.514013" cy="178.738274" r="3.749996" style="fill:rgb(0,127,0);stroke-width:1" /><circle cx="9.868428" cy="167.763121" r="3.749996" style="fill:rgb(0,127,0);stroke-width:1" /><circle cx="9.414218" cy="160.041802" r="3.749996" style="fill:rgb(0,127,0);stroke-width:1" /><circle cx="7.211544" cy="122.596063" r="3.749996" style="fill:rgb(0,127,0);stroke-width:1" /><circle cx="3.906257" cy="66.406175" r="3.749996" style="fill:rgb(0,127,0);stroke-width:1" /><circle cx="750.000000" cy="750.000000" r="3.749996" style="fill:rgb(0,127,0);stroke-width:1" /><path stroke-linejoin="round" stroke-linecap="round" stroke="rgb(255,255,255)" stroke-width="3.749996" fill="none" d="M 0.000000 750.000000 L 750.000000 750.000000 M 0.000000 750.000000 L 0.000000 0.000000 " />

</svg>