<svg xmlns="http://www.w3.org/2000/svg" version="1.1" width = "750" height = "750" viewBox = "0 0 750 750"  shape-rendering="crispEdges">
<path stroke-linejoin="round" stroke-linecap="round" stroke="rgb(255,255,0)" stroke-width="3.749996" fill="none" d="M 107.142853 750.000000 L 0.000000 0.000000 " />
<path stroke-linejoin="round" stroke-linecap="round" stroke="rgb(63,63,63)" stroke-width="3.749996" fill="none" d="M 0.000000 0.000000 L 750.000000 750.000000 M 107.142853 750.000000 L 49.450546 0.000000 " />
<path stroke-linejoin="round" stroke-linecap="round" stroke="rgb(191,191,191)" stroke-width="3.749996" fill="none" d="M 0.000000 642.857178 L 107.142853 750.000000 M 0.000000 0.000000 L 57.692303 750.000000 " />
<path stroke-linejoin="round" stroke-linecap="round" stroke="rgb(0,0,255)" stroke-width="1.874998" fill="none" d="M 0.000000 750.000000 L 750.000000 725.806458 " />
<path stroke-linejoin="round" stroke-linecap="round" stroke="rgb(255,0,0)" stroke-width="3.749996" fill="none" d="M 106.877647 746.552307 L 107.142853 750.000000 " />
<path stroke-linejoin="round" stroke-linecap="round" stroke="rgb(0,0,255)" stroke-width="1.874998" fill="none" d="M 0.000000 750.000000 L 750.000000 703.125000 " />
<path stroke-linejoin="round" stroke-linecap="round" stroke="rgb(255,0,0)" stroke-width="3.749996" fill="none" d="M 106.082016 743.369873 L 106.877647 746.552307 " />
<path stroke-linejoin="round" stroke-linecap="round" stroke="rgb(0,0,255)" stroke-width="1.874998" fill="none" d="M 0.000000 750.000000 L 750.000000 677.419312 " />
<path stroke-linejoin="round" stroke-linecap="round" stroke="rgb(255,0,0)" stroke-width="3.749996" fill="none" d="M 105.194542 739.819824 L 106.082016 743.369873 " />
<path stroke-linejoin="round" stroke-linecap="round" stroke="rgb(0,0,255)" stroke-width="1.874998" fill="none" d="M 0.000000 750.000000 L 750.000000 650.000000 " />
<path stroke-linejoin="round" stroke-linecap="round" stroke="rgb(255,0,0)" stroke-width="3.749996" fill="none" d="M 104.264099 736.098083 L 105.194542 739.819824 " />
<path stroke-linejoin="round" stroke-linecap="round" stroke="rgb(0,0,255)" stroke-width="1.874998" fill="none" d="M 0.000000 750.000000 L 750.000000 620.689636 " />
<path stroke-linejoin="round" stroke-linecap="round" stroke="rgb(255,0,0)" stroke-width="3.749996" fill="none" d="M 103.287537 732.191833 L 104.264099 736.098083 " />
<path stroke-linejoin="round" stroke-linecap="round" stroke="rgb(0,0,255)" stroke-width="1.874998" fill="none" d="M 0.000000 750.000000 L 750.000000 375.000000 " />
<path stroke-linejoin="round" stroke-linecap="round" stroke="rgb(255,0,0)" stroke-width="3.749996" fill="none" d="M 100.065102 699.967468 L 103.287537 732.191833 " />
<path stroke-linejoin="round" stroke-linecap="round" stroke="rgb(0,0,255)" stroke-width="1.874998" fill="none" d="M 0.000000 750.000000 L 750.000000 241.071442 " />
<path stroke-linejoin="round" stroke-linecap="round" stroke="rgb(255,0,0)" stroke-width="3.749996" fill="none" d="M 98.391762 683.234192 L 100.065102 699.967468 " />
<path stroke-linejoin="round" stroke-linecap="round" stroke="rgb(0,0,255)" stroke-width="1.874998" fill="none" d="M 0.000000 750.000000 L 750.000000 201.923080 " />
<path stroke-linejoin="round" stroke-linecap="round" stroke="rgb(255,0,0)" stroke-width="3.749996" fill="none" d="M 97.913170 678.448059 L 98.391762 683.234192 " />
<path stroke-linejoin="round" stroke-linecap="round" stroke="rgb(0,0,255)" stroke-width="1.874998" fill="none" d="M 0.000000 750.000000 L 646.551758 0.000000 " />
<path stroke-linejoin="round" stroke-linecap="round" stroke="rgb(255,0,0)" stroke-width="3.749996" fill="none" d="M 94.147278 640.789185 L 97.913170 678.448059 " />
<path stroke-linejoin="round" stroke-linecap="round" stroke="rgb(0,0,255)" stroke-width="1.874998" fill="none" d="M 0.000000 750.000000 L 604.838684 0.000000 " />
<path stroke-linejoin="round" stroke-linecap="round" stroke="rgb(255,0,0)" stroke-width="3.749996" fill="none" d="M 93.477196 634.088318 L 94.147278 640.789185 " />
<path stroke-linejoin="round" stroke-linecap="round" stroke="rgb(0,0,255)" stroke-width="1.874998" fill="none" d="M 0.000000 750.000000 L 568.181824 0.000000 " />
<path stroke-linejoin="round" stroke-linecap="round" stroke="rgb(255,0,0)" stroke-width="3.749996" fill="none" d="M 92.816566 627.482117 L 93.477196 634.088318 " />
<path stroke-linejoin="round" stroke-linecap="round" stroke="rgb(0,0,255)" stroke-width="1.874998" fill="none" d="M 0.000000 750.000000 L 492.857147 0.000000 " />
<path stroke-linejoin="round" stroke-linecap="round" stroke="rgb(255,0,0)" stroke-width="3.749996" fill="none" d="M 91.191422 611.230469 L 92.816566 627.482117 " />
<path stroke-linejoin="round" stroke-linecap="round" stroke="rgb(0,0,255)" stroke-width="1.874998" fill="none" d="M 0.000000 750.000000 L 458.333344 0.000000 " />
<path stroke-linejoin="round" stroke-linecap="round" stroke="rgb(255,0,0)" stroke-width="3.749996" fill="none" d="M 90.293121 602.247681 L 91.191422 611.230469 " />
<path stroke-linejoin="round" stroke-linecap="round" stroke="rgb(0,0,255)" stroke-width="1.874998" fill="none" d="M 0.000000 750.000000 L 342.391327 0.000000 " />
<path stroke-linejoin="round" stroke-linecap="round" stroke="rgb(255,0,0)" stroke-width="3.749996" fill="none" d="M 86.188873 561.205322 L 90.293098 602.247681 " />
<path stroke-linejoin="round" stroke-linecap="round" stroke="rgb(0,0,255)" stroke-width="1.874998" fill="none" d="M 0.000000 750.000000 L 336.734680 0.000000 " />
<path stroke-linejoin="round" stroke-linecap="round" stroke="rgb(255,0,0)" stroke-width="3.749996" fill="none" d="M 85.929504 558.611572 L 86.188873 561.205322 " />
<path stroke-linejoin="round" stroke-linecap="round" stroke="rgb(0,0,255)" stroke-width="1.874998" fill="none" d="M 0.000000 750.000000 L 294.117645 0.000000 " />
<path stroke-linejoin="round" stroke-linecap="round" stroke="rgb(255,0,0)" stroke-width="3.749996" fill="none" d="M 83.719788 536.514526 L 85.929504 558.611572 " />
<path stroke-linejoin="round" stroke-linecap="round" stroke="rgb(0,0,255)" stroke-width="1.874998" fill="none" d="M 0.000000 750.000000 L 233.606567 0.000000 " />
<path stroke-linejoin="round" stroke-linecap="round" stroke="rgb(255,0,0)" stroke-width="3.749996" fill="none" d="M 79.533798 494.654602 L 83.719788 536.514526 " />
<path stroke-linejoin="round" stroke-linecap="round" stroke="rgb(0,0,255)" stroke-width="1.874998" fill="none" d="M 0.000000 750.000000 L 211.267609 0.000000 " />
<path stroke-linejoin="round" stroke-linecap="round" stroke="rgb(255,0,0)" stroke-width="3.749996" fill="none" d="M 77.541206 474.728638 L 79.533798 494.654602 " />
<path stroke-linejoin="round" stroke-linecap="round" stroke="rgb(0,0,255)" stroke-width="1.874998" fill="none" d="M 0.000000 750.000000 L 197.916672 0.000000 " />
<path stroke-linejoin="round" stroke-linecap="round" stroke="rgb(255,0,0)" stroke-width="3.749996" fill="none" d="M 76.194603 461.262573 L 77.541206 474.728638 " />
<path stroke-linejoin="round" stroke-linecap="round" stroke="rgb(0,0,255)" stroke-width="1.874998" fill="none" d="M 0.000000 750.000000 L 184.931519 0.000000 " />
<path stroke-linejoin="round" stroke-linecap="round" stroke="rgb(255,0,0)" stroke-width="3.749996" fill="none" d="M 74.752182 446.838379 L 76.194603 461.262573 " />
<path stroke-linejoin="round" stroke-linecap="round" stroke="rgb(0,0,255)" stroke-width="1.874998" fill="none" d="M 0.000000 750.000000 L 172.297302 0.000000 " />
<path stroke-linejoin="round" stroke-linecap="round" stroke="rgb(255,0,0)" stroke-width="3.749996" fill="none" d="M 73.203362 431.350067 L 74.752182 446.838379 " />
<path stroke-linejoin="round" stroke-linecap="round" stroke="rgb(0,0,255)" stroke-width="1.874998" fill="none" d="M 0.000000 750.000000 L 160.714294 0.000000 " />
<path stroke-linejoin="round" stroke-linecap="round" stroke="rgb(255,0,0)" stroke-width="3.749996" fill="none" d="M 71.637512 415.691620 L 73.203362 431.350067 " />
<path stroke-linejoin="round" stroke-linecap="round" stroke="rgb(0,0,255)" stroke-width="1.874998" fill="none" d="M 0.000000 750.000000 L 155.844162 0.000000 " />
<path stroke-linejoin="round" stroke-linecap="round" stroke="rgb(255,0,0)" stroke-width="3.749996" fill="none" d="M 70.452019 410.949615 L 71.637512 415.691559 " />
<path stroke-linejoin="round" stroke-linecap="round" stroke="rgb(0,0,255)" stroke-width="1.874998" fill="none" d="M 0.000000 750.000000 L 144.230789 0.000000 " />
<path stroke-linejoin="round" stroke-linecap="round" stroke="rgb(255,0,0)" stroke-width="3.749996" fill="none" d="M 67.484627 399.079987 L 70.452019 410.949615 " />
<path stroke-linejoin="round" stroke-linecap="round" stroke="rgb(0,0,255)" stroke-width="1.874998" fill="none" d="M 0.000000 750.000000 L 140.625000 0.000000 " />
<path stroke-linejoin="round" stroke-linecap="round" stroke="rgb(255,0,0)" stroke-width="3.749996" fill="none" d="M 66.520546 395.223724 L 67.484627 399.079926 " />
<path stroke-linejoin="round" stroke-linecap="round" stroke="rgb(0,0,255)" stroke-width="1.874998" fill="none" d="M 0.000000 750.000000 L 133.333328 0.000000 " />
<path stroke-linejoin="round" stroke-linecap="round" stroke="rgb(255,0,0)" stroke-width="3.749996" fill="none" d="M 65.278847 382.806580 L 66.520546 395.223755 " />
<path stroke-linejoin="round" stroke-linecap="round" stroke="rgb(0,0,255)" stroke-width="1.874998" fill="none" d="M 0.000000 750.000000 L 126.404510 0.000000 " />
<path stroke-linejoin="round" stroke-linecap="round" stroke="rgb(255,0,0)" stroke-width="3.749996" fill="none" d="M 64.015587 370.174133 L 65.278847 382.806580 " />
<path stroke-linejoin="round" stroke-linecap="round" stroke="rgb(0,0,255)" stroke-width="1.874998" fill="none" d="M 0.000000 750.000000 L 123.626366 0.000000 " />
<path stroke-linejoin="round" stroke-linecap="round" stroke="rgb(255,0,0)" stroke-width="3.749996" fill="none" d="M 63.484356 364.861603 L 64.015587 370.174133 " />
<path stroke-linejoin="round" stroke-linecap="round" stroke="rgb(0,0,255)" stroke-width="1.874998" fill="none" d="M 0.000000 750.000000 L 121.212112 0.000000 " />
<path stroke-linejoin="round" stroke-linecap="round" stroke="rgb(255,0,0)" stroke-width="3.749996" fill="none" d="M 63.010452 360.122803 L 63.484356 364.861603 " />
<path stroke-linejoin="round" stroke-linecap="round" stroke="rgb(0,0,255)" stroke-width="1.874998" fill="none" d="M 0.000000 750.000000 L 114.130432 0.000000 " />
<path stroke-linejoin="round" stroke-linecap="round" stroke="rgb(255,0,0)" stroke-width="3.749996" fill="none" d="M 60.722084 350.969208 L 63.010452 360.122803 " />
<path stroke-linejoin="round" stroke-linecap="round" stroke="rgb(0,0,255)" stroke-width="1.874998" fill="none" d="M 0.000000 750.000000 L 104.838699 0.000000 " />
<path stroke-linejoin="round" stroke-linecap="round" stroke="rgb(255,0,0)" stroke-width="3.749996" fill="none" d="M 57.551376 338.286346 L 60.722084 350.969208 " />
<path stroke-linejoin="round" stroke-linecap="round" stroke="rgb(0,0,255)" stroke-width="1.874998" fill="none" d="M 0.000000 750.000000 L 102.631577 0.000000 " />
<path stroke-linejoin="round" stroke-linecap="round" stroke="rgb(255,0,0)" stroke-width="3.749996" fill="none" d="M 56.768349 335.154327 L 57.551376 338.286346 " />
<path stroke-linejoin="round" stroke-linecap="round" stroke="rgb(0,0,255)" stroke-width="1.874998" fill="none" d="M 0.000000 750.000000 L 99.999992 0.000000 " />
<path stroke-linejoin="round" stroke-linecap="round" stroke="rgb(255,0,0)" stroke-width="3.749996" fill="none" d="M 56.144535 328.916016 L 56.768349 335.154327 " />
<path stroke-linejoin="round" stroke-linecap="round" stroke="rgb(0,0,255)" stroke-width="1.874998" fill="none" d="M 0.000000 750.000000 L 98.214294 0.000000 " />
<path stroke-linejoin="round" stroke-linecap="round" stroke="rgb(255,0,0)" stroke-width="3.749996" fill="none" d="M 55.486591 326.284302 L 56.144535 328.916016 " />
<path stroke-linejoin="round" stroke-linecap="round" stroke="rgb(0,0,255)" stroke-width="1.874998" fill="none" d="M 0.000000 750.000000 L 95.744667 0.000000 " />
<path stroke-linejoin="round" stroke-linecap="round" stroke="rgb(255,0,0)" stroke-width="3.749996" fill="none" d="M 54.873726 320.155792 L 55.486568 326.284332 " />
<path stroke-linejoin="round" stroke-linecap="round" stroke="rgb(0,0,255)" stroke-width="1.874998" fill="none" d="M 0.000000 750.000000 L 93.750000 0.000000 " />
<path stroke-linejoin="round" stroke-linecap="round" stroke="rgb(255,0,0)" stroke-width="3.749996" fill="none" d="M 54.111599 317.107239 L 54.873726 320.155823 " />
<path stroke-linejoin="round" stroke-linecap="round" stroke="rgb(0,0,255)" stroke-width="1.874998" fill="none" d="M 0.000000 750.000000 L 91.836739 0.000000 " />
<path stroke-linejoin="round" stroke-linecap="round" stroke="rgb(255,0,0)" stroke-width="3.749996" fill="none" d="M 53.615147 312.142883 L 54.111599 317.107239 " />
<path stroke-linejoin="round" stroke-linecap="round" stroke="rgb(0,0,255)" stroke-width="1.874998" fill="none" d="M 0.000000 750.000000 L 91.666664 0.000000 " />
<path stroke-linejoin="round" stroke-linecap="round" stroke="rgb(255,0,0)" stroke-width="3.749996" fill="none" d="M 53.548470 311.876129 L 53.615147 312.142883 " />
<path stroke-linejoin="round" stroke-linecap="round" stroke="rgb(0,0,255)" stroke-width="1.874998" fill="none" d="M 0.000000 750.000000 L 86.842102 0.000000 " />
<path stroke-linejoin="round" stroke-linecap="round" stroke="rgb(255,0,0)" stroke-width="3.749996" fill="none" d="M 51.622265 304.171295 L 53.548470 311.876129 " />
<path stroke-linejoin="round" stroke-linecap="round" stroke="rgb(0,0,255)" stroke-width="1.874998" fill="none" d="M 0.000000 750.000000 L 78.124992 0.000000 " />
<path stroke-linejoin="round" stroke-linecap="round" stroke="rgb(255,0,0)" stroke-width="3.749996" fill="none" d="M 47.964535 289.540375 L 51.622265 304.171295 " />
<path stroke-linejoin="round" stroke-linecap="round" stroke="rgb(0,0,255)" stroke-width="1.874998" fill="none" d="M 0.000000 750.000000 L 76.530617 0.000000 " />
<path stroke-linejoin="round" stroke-linecap="round" stroke="rgb(255,0,0)" stroke-width="3.749996" fill="none" d="M 47.269398 286.759827 L 47.964535 289.540375 " />
<path stroke-linejoin="round" stroke-linecap="round" stroke="rgb(0,0,255)" stroke-width="1.874998" fill="none" d="M 0.000000 750.000000 L 74.999992 0.000000 " />
<path stroke-linejoin="round" stroke-linecap="round" stroke="rgb(255,0,0)" stroke-width="3.749996" fill="none" d="M 46.594128 284.058716 L 47.269421 286.759766 " />
<path stroke-linejoin="round" stroke-linecap="round" stroke="rgb(0,0,255)" stroke-width="1.874998" fill="none" d="M 0.000000 750.000000 L 73.529404 0.000000 " />
<path stroke-linejoin="round" stroke-linecap="round" stroke="rgb(255,0,0)" stroke-width="3.749996" fill="none" d="M 45.937881 281.433655 L 46.594128 284.058716 " />
<path stroke-linejoin="round" stroke-linecap="round" stroke="rgb(0,0,255)" stroke-width="1.874998" fill="none" d="M 0.000000 750.000000 L 71.808502 0.000000 " />
<path stroke-linejoin="round" stroke-linecap="round" stroke="rgb(255,0,0)" stroke-width="3.749996" fill="none" d="M 45.160465 278.324036 L 45.937881 281.433655 " />
<path stroke-linejoin="round" stroke-linecap="round" stroke="rgb(0,0,255)" stroke-width="1.874998" fill="none" d="M 0.000000 750.000000 L 57.692303 0.000000 " />
<path stroke-linejoin="round" stroke-linecap="round" stroke="rgb(255,0,0)" stroke-width="3.749996" fill="none" d="M 40.142632 228.145752 L 45.160465 278.324036 " />
<path stroke-linejoin="round" stroke-linecap="round" stroke="rgb(0,0,255)" stroke-width="1.874998" fill="none" d="M 0.000000 750.000000 L 49.999996 0.000000 " />
<path stroke-linejoin="round" stroke-linecap="round" stroke="rgb(255,0,0)" stroke-width="3.749996" fill="none" d="M 35.917103 211.243591 L 40.142632 228.145798 " />
<path stroke-linejoin="round" stroke-linecap="round" stroke="rgb(0,0,255)" stroke-width="1.874998" fill="none" d="M 0.000000 750.000000 L 42.452843 0.000000 " />
<path stroke-linejoin="round" stroke-linecap="round" stroke="rgb(255,0,0)" stroke-width="3.749996" fill="none" d="M 31.496532 193.561340 L 35.917103 211.243591 " />
<path stroke-linejoin="round" stroke-linecap="round" stroke="rgb(0,0,255)" stroke-width="1.874998" fill="none" d="M 0.000000 750.000000 L 41.666664 0.000000 " />
<path stroke-linejoin="round" stroke-linecap="round" stroke="rgb(255,0,0)" stroke-width="3.749996" fill="none" d="M 31.019300 191.652466 L 31.496532 193.561340 " />
<path stroke-linejoin="round" stroke-linecap="round" stroke="rgb(0,0,255)" stroke-width="1.874998" fill="none" d="M 0.000000 750.000000 L 41.338585 0.000000 " />
<path stroke-linejoin="round" stroke-linecap="round" stroke="rgb(255,0,0)" stroke-width="3.749996" fill="none" d="M 30.861855 190.077988 L 31.019300 191.652466 " />
<path stroke-linejoin="round" stroke-linecap="round" stroke="rgb(0,0,255)" stroke-width="1.874998" fill="none" d="M 0.000000 750.000000 L 38.461536 0.000000 " />
<path stroke-linejoin="round" stroke-linecap="round" stroke="rgb(255,0,0)" stroke-width="3.749996" fill="none" d="M 29.442049 175.880066 L 30.861855 190.077988 " />
<path stroke-linejoin="round" stroke-linecap="round" stroke="rgb(0,0,255)" stroke-width="1.874998" fill="none" d="M 0.000000 750.000000 L 31.779661 0.000000 " />
<path stroke-linejoin="round" stroke-linecap="round" stroke="rgb(255,0,0)" stroke-width="3.749996" fill="none" d="M 25.068417 158.385513 L 29.442049 175.880112 " />
<path stroke-linejoin="round" stroke-linecap="round" stroke="rgb(0,0,255)" stroke-width="1.874998" fill="none" d="M 0.000000 750.000000 L 25.210083 0.000000 " />
<path stroke-linejoin="round" stroke-linecap="round" stroke="rgb(255,0,0)" stroke-width="3.749996" fill="none" d="M 20.500391 140.113434 L 25.068417 158.385513 " />
<path stroke-linejoin="round" stroke-linecap="round" stroke="rgb(0,0,255)" stroke-width="1.874998" fill="none" d="M 0.000000 750.000000 L 24.793379 0.000000 " />
<path stroke-linejoin="round" stroke-linecap="round" stroke="rgb(255,0,0)" stroke-width="3.749996" fill="none" d="M 20.201101 138.916306 L 20.500391 140.113434 " />
<path stroke-linejoin="round" stroke-linecap="round" stroke="rgb(0,0,255)" stroke-width="1.874998" fill="none" d="M 0.000000 750.000000 L 18.442623 0.000000 " />
<path stroke-linejoin="round" stroke-linecap="round" stroke="rgb(255,0,0)" stroke-width="3.749996" fill="none" d="M 15.490026 120.072014 L 20.201101 138.916306 " />
<path stroke-linejoin="round" stroke-linecap="round" stroke="rgb(0,0,255)" stroke-width="1.874998" fill="none" d="M 0.000000 750.000000 L 18.145166 0.000000 " />
<path stroke-linejoin="round" stroke-linecap="round" stroke="rgb(255,0,0)" stroke-width="3.749996" fill="none" d="M 15.262239 119.160843 L 15.490026 120.072014 " />
<path stroke-linejoin="round" stroke-linecap="round" stroke="rgb(0,0,255)" stroke-width="1.874998" fill="none" d="M 0.000000 750.000000 L 11.194020 0.000000 " />
<path stroke-linejoin="round" stroke-linecap="round" stroke="rgb(255,0,0)" stroke-width="3.749996" fill="none" d="M 10.174826 68.286736 L 15.262239 119.160889 " />
<path stroke-linejoin="round" stroke-linecap="round" stroke="rgb(0,0,255)" stroke-width="1.874998" fill="none" d="M 0.000000 750.000000 L 5.555548 0.000000 " />
<path stroke-linejoin="round" stroke-linecap="round" stroke="rgb(255,0,0)" stroke-width="3.749996" fill="none" d="M 5.197205 48.376366 L 10.174826 68.286781 " />
<path stroke-linejoin="round" stroke-linecap="round" stroke="rgb(0,0,255)" stroke-width="1.874998" fill="none" d="M 0.000000 750.000000 L 0.000000 0.000000 " />
<path stroke-linejoin="round" stroke-linecap="round" stroke="rgb(255,0,0)" stroke-width="3.749996" fill="none" d="M 0.000000 0.000000 L 5.197205 48.376366 " />
<circle cx="106.877647" cy="746.552333" r="3.749996" style="fill:rgb(0,127,0);stroke-width:1" /><circle cx="106.082015" cy="743.369870" r="3.749996" style="fill:rgb(0,127,0);stroke-width:1" /><circle cx="105.194539" cy="739.819877" r="3.749996" style="fill:rgb(0,127,0);stroke-width:1" /><circle cx="104.264103" cy="736.098111" r="3.749996" style="fill:rgb(0,127,0);stroke-width:1" /><circle cx="103.287533" cy="732.191809" r="3.749996" style="fill:rgb(0,127,0);stroke-width:1" /><circle cx="100.065105" cy="699.967459" r="3.749996" style="fill:rgb(0,127,0);stroke-width:1" /><circle cx="98.391764" cy="683.234163" r="3.749996" style="fill:rgb(0,127,0);stroke-width:1" /><circle cx="97.913168" cy="678.448074" r="3.749996" style="fill:rgb(0,127,0);stroke-width:1" /><circle cx="94.147280" cy="640.789166" r="3.749996" style="fill:rgb(0,127,0);stroke-width:1" /><circle cx="93.477197" cy="634.088293" r="3.749996" style="fill:rgb(0,127,0);stroke-width:1" /><circle cx="92.816569" cy="627.482124" r="3.749996" style="fill:rgb(0,127,0);stroke-width:1" /><circle cx="91.191418" cy="611.230463" r="3.749996" style="fill:rgb(0,127,0);stroke-width:1" /><circle cx="90.293124" cy="602.247633" r="3.749996" style="fill:rgb(0,127,0);stroke-width:1" /><circle cx="86.188875" cy="561.205320" r="3.749996" style="fill:rgb(0,127,0);stroke-width:1" /><circle cx="85.929506" cy="558.611546" r="3.749996" style="fill:rgb(0,127,0);stroke-width:1" /><circle cx="83.719790" cy="536.514524" r="3.749996" style="fill:rgb(0,127,0);stroke-width:1" /><circle cx="79.533800" cy="494.654618" r="3.749996" style="fill:rgb(0,127,0);stroke-width:1" /><circle cx="77.541210" cy="474.728666" r="3.749996" style="fill:rgb(0,127,0);stroke-width:1" /><circle cx="76.194607" cy="461.262552" r="3.749996" style="fill:rgb(0,127,0);stroke-width:1" /><circle cx="74.752182" cy="446.838370" r="3.749996" style="fill:rgb(0,127,0);stroke-width:1" /><circle cx="73.203363" cy="431.350093" r="3.749996" style="fill:rgb(0,127,0);stroke-width:1" /><circle cx="71.637511" cy="415.691614" r="3.749996" style="fill:rgb(0,127,0);stroke-width:1" /><circle cx="70.452020" cy="410.949622" r="3.749996" style="fill:rgb(0,127,0);stroke-width:1" /><circle cx="67.484625" cy="399.079978" r="3.749996" style="fill:rgb(0,127,0);stroke-width:1" /><circle cx="66.520549" cy="395.223702" r="3.749996" style="fill:rgb(0,127,0);stroke-width:1" /><circle cx="65.278843" cy="382.806557" r="3.749996" style="fill:rgb(0,127,0);stroke-width:1" /><circle cx="64.015590" cy="370.174119" r="3.749996" style="fill:rgb(0,127,0);stroke-width:1" /><circle cx="63.484356" cy="364.861608" r="3.749996" style="fill:rgb(0,127,0);stroke-width:1" /><circle cx="63.010454" cy="360.122783" r="3.749996" style="fill:rgb(0,127,0);stroke-width:1" /><circle cx="60.722083" cy="350.969195" r="3.749996" style="fill:rgb(0,127,0);stroke-width:1" /><circle cx="57.551377" cy="338.286356" r="3.749996" style="fill:rgb(0,127,0);stroke-width:1" /><circle cx="56.768350" cy="335.154329" r="3.749996" style="fill:rgb(0,127,0);stroke-width:1" /><circle cx="56.144536" cy="328.916023" r="3.749996" style="fill:rgb(0,127,0);stroke-width:1" /><circle cx="55.486590" cy="326.284289" r="3.749996" style="fill:rgb(0,127,0);stroke-width:1" /><circle cx="54.873727" cy="320.155771" r="3.749996" style="fill:rgb(0,127,0);stroke-width:1" /><circle cx="54.111600" cy="317.107251" r="3.749996" style="fill:rgb(0,127,0);stroke-width:1" /><circle cx="53.615145" cy="312.142868" r="3.749996" style="fill:rgb(0,127,0);stroke-width:1" /><circle cx="53.548470" cy="311.876127" r="3.749996" style="fill:rgb(0,127,0);stroke-width:1" /><circle cx="51.622264" cy="304.171292" r="3.749996" style="fill:rgb(0,127,0);stroke-width:1" /><circle cx="47.964536" cy="289.540378" r="3.749996" style="fill:rgb(0,127,0);stroke-width:1" /><circle cx="47.269396" cy="286.759822" r="3.749996" style="fill:rgb(0,127,0);stroke-width:1" /><circle cx="46.594128" cy="284.058709" r="3.749996" style="fill:rgb(0,127,0);stroke-width:1" /><circle cx="45.937881" cy="281.433670" r="3.749996" style="fill:rgb(0,127,0);stroke-width:1" /><circle cx="45.160465" cy="278.324045" r="3.749996" style="fill:rgb(0,127,0);stroke-width:1" /><circle cx="40.142633" cy="228.145737" r="3.749996" style="fill:rgb(0,127,0);stroke-width:1" /><circle cx="35.917103" cy="211.243574" r="3.749996" style="fill:rgb(0,127,0);stroke-width:1" /><circle cx="31.496532" cy="193.561334" r="3.749996" style="fill:rgb(0,127,0);stroke-width:1" /><circle cx="31.019300" cy="191.652473" r="3.749996" style="fill:rgb(0,127,0);stroke-width:1" /><circle cx="30.861855" cy="190.077983" r="3.749996" style="fill:rgb(0,127,0);stroke-width:1" /><circle cx="29.442050" cy="175.880067" r="3.749996" style="fill:rgb(0,127,0);stroke-width:1" /><circle cx="25.068417" cy="158.385515" r="3.749996" style="fill:rgb(0,127,0);stroke-width:1" /><circle cx="20.500392" cy="140.113436" r="3.749996" style="fill:rgb(0,127,0);stroke-width:1" /><circle cx="20.201102" cy="138.916299" r="3.749996" style="fill:rgb(0,127,0);stroke-width:1" /><circle cx="15.490025" cy="120.072015" r="3.749996" style="fill:rgb(0,127,0);stroke-width:1" /><circle cx="15.262239" cy="119.160846" r="3.749996" style="fill:rgb(0,127,0);stroke-width:1" /><circle cx="10.174826" cy="68.286739" r="3.749996" style="fill:rgb(0,127,0);stroke-width:1" /><circle cx="5.197205" cy="48.376366" r="3.749996" style="fill:rgb(0,127,0);stroke-width:1" /><circle cx="750.000000" cy="750.000000" r="3.749996" style="fill:rgb(0,127,0);stroke-width:1" /><path stroke-linejoin="round" stroke-linecap="round" stroke="rgb(255,255,255)" stroke-width="3.749996" fill="none" d="M 0.000000 750.000000 L 750.000000 750.000000 M 0.000000 750.000000 L 0.000000 0.000000 " />

</svg>