<svg xmlns="http://www.w3.org/2000/svg" version="1.1" width = "750" height = "750" viewBox = "0 0 750 750"  shape-rendering="crispEdges">
<path stroke-linejoin="round" stroke-linecap="round" stroke="rgb(255,255,0)" stroke-width="3.749996" fill="none" d="M 149.999985 750.000000 L 0.000000 0.000000 " />
<path stroke-linejoin="round" stroke-linecap="round" stroke="rgb(63,63,63)" stroke-width="3.749996" fill="none" d="M 0.000000 0.000000 L 750.000000 750.000000 M 149.999985 750.000000 L 66.666664 0.000000 " />
<path stroke-linejoin="round" stroke-linecap="round" stroke="rgb(191,191,191)" stroke-width="3.749996" fill="none" d="M 0.000000 600.000000 L 149.999985 750.000000 M 0.000000 0.000000 L 83.333328 750.000000 " />
<path stroke-linejoin="round" stroke-linecap="round" stroke="rgb(0,0,255)" stroke-width="1.874998" fill="none" d="M 0.000000 750.000000 L 750.000000 508.064514 " />
<path stroke-linejoin="round" stroke-linecap="round" stroke="rgb(255,0,0)" stroke-width="3.749996" fill="none" d="M 144.809692 703.287170 L 149.999985 750.000000 " />
<path stroke-linejoin="round" stroke-linecap="round" stroke="rgb(0,0,255)" stroke-width="1.874998" fill="none" d="M 0.000000 750.000000 L 750.000000 492.187500 " />
<path stroke-linejoin="round" stroke-linecap="round" stroke="rgb(255,0,0)" stroke-width="3.749996" fill="none" d="M 144.392258 700.365173 L 144.809677 703.287170 " />
<path stroke-linejoin="round" stroke-linecap="round" stroke="rgb(0,0,255)" stroke-width="1.874998" fill="none" d="M 0.000000 750.000000 L 750.000000 281.250000 " />
<path stroke-linejoin="round" stroke-linecap="round" stroke="rgb(255,0,0)" stroke-width="3.749996" fill="none" d="M 139.066284 663.083557 L 144.392227 700.365173 " />
<path stroke-linejoin="round" stroke-linecap="round" stroke="rgb(0,0,255)" stroke-width="1.874998" fill="none" d="M 0.000000 750.000000 L 750.000000 241.935471 " />
<path stroke-linejoin="round" stroke-linecap="round" stroke="rgb(255,0,0)" stroke-width="3.749996" fill="none" d="M 138.116776 656.437012 L 139.066284 663.083557 " />
<path stroke-linejoin="round" stroke-linecap="round" stroke="rgb(0,0,255)" stroke-width="1.874998" fill="none" d="M 0.000000 750.000000 L 750.000000 199.999985 " />
<path stroke-linejoin="round" stroke-linecap="round" stroke="rgb(255,0,0)" stroke-width="3.749996" fill="none" d="M 137.118149 649.446655 L 138.116806 656.437012 " />
<path stroke-linejoin="round" stroke-linecap="round" stroke="rgb(0,0,255)" stroke-width="1.874998" fill="none" d="M 0.000000 750.000000 L 750.000000 193.548386 " />
<path stroke-linejoin="round" stroke-linecap="round" stroke="rgb(255,0,0)" stroke-width="3.749996" fill="none" d="M 136.965790 648.380249 L 137.118149 649.446655 " />
<path stroke-linejoin="round" stroke-linecap="round" stroke="rgb(0,0,255)" stroke-width="1.874998" fill="none" d="M 0.000000 750.000000 L 750.000000 99.999992 " />
<path stroke-linejoin="round" stroke-linecap="round" stroke="rgb(255,0,0)" stroke-width="3.749996" fill="none" d="M 134.794128 633.178467 L 136.965790 648.380249 " />
<path stroke-linejoin="round" stroke-linecap="round" stroke="rgb(0,0,255)" stroke-width="1.874998" fill="none" d="M 0.000000 750.000000 L 750.000000 51.724121 " />
<path stroke-linejoin="round" stroke-linecap="round" stroke="rgb(255,0,0)" stroke-width="3.749996" fill="none" d="M 133.700134 625.520569 L 134.794128 633.178467 " />
<path stroke-linejoin="round" stroke-linecap="round" stroke="rgb(0,0,255)" stroke-width="1.874998" fill="none" d="M 0.000000 750.000000 L 696.428528 0.000000 " />
<path stroke-linejoin="round" stroke-linecap="round" stroke="rgb(255,0,0)" stroke-width="3.749996" fill="none" d="M 131.285187 608.615906 L 133.700134 625.520569 " />
<path stroke-linejoin="round" stroke-linecap="round" stroke="rgb(0,0,255)" stroke-width="1.874998" fill="none" d="M 0.000000 750.000000 L 532.894775 0.000000 " />
<path stroke-linejoin="round" stroke-linecap="round" stroke="rgb(255,0,0)" stroke-width="3.749996" fill="none" d="M 126.124535 572.491394 L 131.285187 608.615906 " />
<path stroke-linejoin="round" stroke-linecap="round" stroke="rgb(0,0,255)" stroke-width="1.874998" fill="none" d="M 0.000000 750.000000 L 500.000000 0.000000 " />
<path stroke-linejoin="round" stroke-linecap="round" stroke="rgb(255,0,0)" stroke-width="3.749996" fill="none" d="M 124.750610 562.874084 L 126.124535 572.491394 " />
<path stroke-linejoin="round" stroke-linecap="round" stroke="rgb(0,0,255)" stroke-width="1.874998" fill="none" d="M 0.000000 750.000000 L 468.750000 0.000000 " />
<path stroke-linejoin="round" stroke-linecap="round" stroke="rgb(255,0,0)" stroke-width="3.749996" fill="none" d="M 123.300034 552.719971 L 124.750610 562.874084 " />
<path stroke-linejoin="round" stroke-linecap="round" stroke="rgb(0,0,255)" stroke-width="1.874998" fill="none" d="M 0.000000 750.000000 L 426.136353 0.000000 " />
<path stroke-linejoin="round" stroke-linecap="round" stroke="rgb(255,0,0)" stroke-width="3.749996" fill="none" d="M 121.047958 536.955566 L 123.300034 552.719971 " />
<path stroke-linejoin="round" stroke-linecap="round" stroke="rgb(0,0,255)" stroke-width="1.874998" fill="none" d="M 0.000000 750.000000 L 375.000000 0.000000 " />
<path stroke-linejoin="round" stroke-linecap="round" stroke="rgb(255,0,0)" stroke-width="3.749996" fill="none" d="M 117.820007 514.359985 L 121.047958 536.955566 " />
<path stroke-linejoin="round" stroke-linecap="round" stroke="rgb(0,0,255)" stroke-width="1.874998" fill="none" d="M 0.000000 750.000000 L 294.642883 0.000000 " />
<path stroke-linejoin="round" stroke-linecap="round" stroke="rgb(255,0,0)" stroke-width="3.749996" fill="none" d="M 111.087440 467.231964 L 117.820007 514.359985 " />
<path stroke-linejoin="round" stroke-linecap="round" stroke="rgb(0,0,255)" stroke-width="1.874998" fill="none" d="M 0.000000 750.000000 L 294.117645 0.000000 " />
<path stroke-linejoin="round" stroke-linecap="round" stroke="rgb(255,0,0)" stroke-width="3.749996" fill="none" d="M 110.996468 466.959045 L 111.087440 467.231964 " />
<path stroke-linejoin="round" stroke-linecap="round" stroke="rgb(0,0,255)" stroke-width="1.874998" fill="none" d="M 0.000000 750.000000 L 292.372864 0.000000 " />
<path stroke-linejoin="round" stroke-linecap="round" stroke="rgb(255,0,0)" stroke-width="3.749996" fill="none" d="M 110.819847 465.722961 L 110.996445 466.959045 " />
<path stroke-linejoin="round" stroke-linecap="round" stroke="rgb(0,0,255)" stroke-width="1.874998" fill="none" d="M 0.000000 750.000000 L 282.786896 0.000000 " />
<path stroke-linejoin="round" stroke-linecap="round" stroke="rgb(255,0,0)" stroke-width="3.749996" fill="none" d="M 109.821480 458.734375 L 110.819847 465.722992 " />
<path stroke-linejoin="round" stroke-linecap="round" stroke="rgb(0,0,255)" stroke-width="1.874998" fill="none" d="M 0.000000 750.000000 L 258.196716 0.000000 " />
<path stroke-linejoin="round" stroke-linecap="round" stroke="rgb(255,0,0)" stroke-width="3.749996" fill="none" d="M 107.020836 439.129974 L 109.821480 458.734375 " />
<path stroke-linejoin="round" stroke-linecap="round" stroke="rgb(0,0,255)" stroke-width="1.874998" fill="none" d="M 0.000000 750.000000 L 211.267609 0.000000 " />
<path stroke-linejoin="round" stroke-linecap="round" stroke="rgb(255,0,0)" stroke-width="3.749996" fill="none" d="M 100.475441 393.312195 L 107.020836 439.129974 " />
<path stroke-linejoin="round" stroke-linecap="round" stroke="rgb(0,0,255)" stroke-width="1.874998" fill="none" d="M 0.000000 750.000000 L 194.444443 0.000000 " />
<path stroke-linejoin="round" stroke-linecap="round" stroke="rgb(255,0,0)" stroke-width="3.749996" fill="none" d="M 97.633034 373.415405 L 100.475441 393.312195 " />
<path stroke-linejoin="round" stroke-linecap="round" stroke="rgb(0,0,255)" stroke-width="1.874998" fill="none" d="M 0.000000 750.000000 L 182.926834 0.000000 " />
<path stroke-linejoin="round" stroke-linecap="round" stroke="rgb(255,0,0)" stroke-width="3.749996" fill="none" d="M 95.496925 358.462646 L 97.633034 373.415405 " />
<path stroke-linejoin="round" stroke-linecap="round" stroke="rgb(0,0,255)" stroke-width="1.874998" fill="none" d="M 0.000000 750.000000 L 171.686752 0.000000 " />
<path stroke-linejoin="round" stroke-linecap="round" stroke="rgb(255,0,0)" stroke-width="3.749996" fill="none" d="M 93.242126 342.679138 L 95.496925 358.462677 " />
<path stroke-linejoin="round" stroke-linecap="round" stroke="rgb(0,0,255)" stroke-width="1.874998" fill="none" d="M 0.000000 750.000000 L 167.647049 0.000000 " />
<path stroke-linejoin="round" stroke-linecap="round" stroke="rgb(255,0,0)" stroke-width="3.749996" fill="none" d="M 92.386703 336.691071 L 93.242126 342.679138 " />
<path stroke-linejoin="round" stroke-linecap="round" stroke="rgb(0,0,255)" stroke-width="1.874998" fill="none" d="M 0.000000 750.000000 L 155.844162 0.000000 " />
<path stroke-linejoin="round" stroke-linecap="round" stroke="rgb(255,0,0)" stroke-width="3.749996" fill="none" d="M 88.380035 324.671112 L 92.386703 336.691071 " />
<path stroke-linejoin="round" stroke-linecap="round" stroke="rgb(0,0,255)" stroke-width="1.874998" fill="none" d="M 0.000000 750.000000 L 151.898727 0.000000 " />
<path stroke-linejoin="round" stroke-linecap="round" stroke="rgb(255,0,0)" stroke-width="3.749996" fill="none" d="M 86.988220 320.495667 L 88.380035 324.671112 " />
<path stroke-linejoin="round" stroke-linecap="round" stroke="rgb(0,0,255)" stroke-width="1.874998" fill="none" d="M 0.000000 750.000000 L 149.999985 0.000000 " />
<path stroke-linejoin="round" stroke-linecap="round" stroke="rgb(255,0,0)" stroke-width="3.749996" fill="none" d="M 86.535149 317.324249 L 86.988220 320.495667 " />
<path stroke-linejoin="round" stroke-linecap="round" stroke="rgb(0,0,255)" stroke-width="1.874998" fill="none" d="M 0.000000 750.000000 L 140.625000 0.000000 " />
<path stroke-linejoin="round" stroke-linecap="round" stroke="rgb(255,0,0)" stroke-width="3.749996" fill="none" d="M 83.073738 306.940033 L 86.535149 317.324249 " />
<path stroke-linejoin="round" stroke-linecap="round" stroke="rgb(0,0,255)" stroke-width="1.874998" fill="none" d="M 0.000000 750.000000 L 129.629639 0.000000 " />
<path stroke-linejoin="round" stroke-linecap="round" stroke="rgb(255,0,0)" stroke-width="3.749996" fill="none" d="M 78.796234 294.107513 L 83.073738 306.940033 " />
<path stroke-linejoin="round" stroke-linecap="round" stroke="rgb(0,0,255)" stroke-width="1.874998" fill="none" d="M 0.000000 750.000000 L 126.506027 0.000000 " />
<path stroke-linejoin="round" stroke-linecap="round" stroke="rgb(255,0,0)" stroke-width="3.749996" fill="none" d="M 77.535484 290.325287 L 78.796234 294.107513 " />
<path stroke-linejoin="round" stroke-linecap="round" stroke="rgb(0,0,255)" stroke-width="1.874998" fill="none" d="M 0.000000 750.000000 L 123.529404 0.000000 " />
<path stroke-linejoin="round" stroke-linecap="round" stroke="rgb(255,0,0)" stroke-width="3.749996" fill="none" d="M 76.314453 286.662201 L 77.535484 290.325287 " />
<path stroke-linejoin="round" stroke-linecap="round" stroke="rgb(0,0,255)" stroke-width="1.874998" fill="none" d="M 0.000000 750.000000 L 120.689659 0.000000 " />
<path stroke-linejoin="round" stroke-linecap="round" stroke="rgb(255,0,0)" stroke-width="3.749996" fill="none" d="M 75.131287 283.112701 L 76.314453 286.662201 " />
<path stroke-linejoin="round" stroke-linecap="round" stroke="rgb(0,0,255)" stroke-width="1.874998" fill="none" d="M 0.000000 750.000000 L 117.977524 0.000000 " />
<path stroke-linejoin="round" stroke-linecap="round" stroke="rgb(255,0,0)" stroke-width="3.749996" fill="none" d="M 73.984245 279.671570 L 75.131287 283.112701 " />
<path stroke-linejoin="round" stroke-linecap="round" stroke="rgb(0,0,255)" stroke-width="1.874998" fill="none" d="M 0.000000 750.000000 L 115.384605 0.000000 " />
<path stroke-linejoin="round" stroke-linecap="round" stroke="rgb(255,0,0)" stroke-width="3.749996" fill="none" d="M 72.871704 276.333984 L 73.984245 279.671570 " />
<path stroke-linejoin="round" stroke-linecap="round" stroke="rgb(0,0,255)" stroke-width="1.874998" fill="none" d="M 0.000000 750.000000 L 105.978279 0.000000 " />
<path stroke-linejoin="round" stroke-linecap="round" stroke="rgb(255,0,0)" stroke-width="3.749996" fill="none" d="M 68.699669 263.817841 L 72.871704 276.333984 " />
<path stroke-linejoin="round" stroke-linecap="round" stroke="rgb(0,0,255)" stroke-width="1.874998" fill="none" d="M 0.000000 750.000000 L 103.723389 0.000000 " />
<path stroke-linejoin="round" stroke-linecap="round" stroke="rgb(255,0,0)" stroke-width="3.749996" fill="none" d="M 67.666588 260.718597 L 68.699669 263.817841 " />
<path stroke-linejoin="round" stroke-linecap="round" stroke="rgb(0,0,255)" stroke-width="1.874998" fill="none" d="M 0.000000 750.000000 L 96.774193 0.000000 " />
<path stroke-linejoin="round" stroke-linecap="round" stroke="rgb(255,0,0)" stroke-width="3.749996" fill="none" d="M 64.398254 250.913544 L 67.666588 260.718597 " />
<path stroke-linejoin="round" stroke-linecap="round" stroke="rgb(0,0,255)" stroke-width="1.874998" fill="none" d="M 0.000000 750.000000 L 94.736832 0.000000 " />
<path stroke-linejoin="round" stroke-linecap="round" stroke="rgb(255,0,0)" stroke-width="3.749996" fill="none" d="M 63.415066 247.964005 L 64.398254 250.913544 " />
<path stroke-linejoin="round" stroke-linecap="round" stroke="rgb(0,0,255)" stroke-width="1.874998" fill="none" d="M 0.000000 750.000000 L 92.783508 0.000000 " />
<path stroke-linejoin="round" stroke-linecap="round" stroke="rgb(255,0,0)" stroke-width="3.749996" fill="none" d="M 62.461472 245.103195 L 63.415066 247.964005 " />
<path stroke-linejoin="round" stroke-linecap="round" stroke="rgb(0,0,255)" stroke-width="1.874998" fill="none" d="M 0.000000 750.000000 L 87.765945 0.000000 " />
<path stroke-linejoin="round" stroke-linecap="round" stroke="rgb(255,0,0)" stroke-width="3.749996" fill="none" d="M 59.961365 237.602905 L 62.461472 245.103195 " />
<path stroke-linejoin="round" stroke-linecap="round" stroke="rgb(0,0,255)" stroke-width="1.874998" fill="none" d="M 0.000000 750.000000 L 85.937485 0.000000 " />
<path stroke-linejoin="round" stroke-linecap="round" stroke="rgb(255,0,0)" stroke-width="3.749996" fill="none" d="M 59.031731 234.814026 L 59.961365 237.602905 " />
<path stroke-linejoin="round" stroke-linecap="round" stroke="rgb(0,0,255)" stroke-width="1.874998" fill="none" d="M 0.000000 750.000000 L 80.645149 0.000000 " />
<path stroke-linejoin="round" stroke-linecap="round" stroke="rgb(255,0,0)" stroke-width="3.749996" fill="none" d="M 56.283028 226.567917 L 59.031731 234.814026 " />
<path stroke-linejoin="round" stroke-linecap="round" stroke="rgb(0,0,255)" stroke-width="1.874998" fill="none" d="M 0.000000 750.000000 L 78.947380 0.000000 " />
<path stroke-linejoin="round" stroke-linecap="round" stroke="rgb(255,0,0)" stroke-width="3.749996" fill="none" d="M 55.382496 223.866333 L 56.283028 226.567917 " />
<path stroke-linejoin="round" stroke-linecap="round" stroke="rgb(0,0,255)" stroke-width="1.874998" fill="none" d="M 0.000000 750.000000 L 72.115395 0.000000 " />
<path stroke-linejoin="round" stroke-linecap="round" stroke="rgb(255,0,0)" stroke-width="3.749996" fill="none" d="M 51.662766 212.707153 L 55.382496 223.866333 " />
<path stroke-linejoin="round" stroke-linecap="round" stroke="rgb(0,0,255)" stroke-width="1.874998" fill="none" d="M 0.000000 750.000000 L 64.285713 0.000000 " />
<path stroke-linejoin="round" stroke-linecap="round" stroke="rgb(255,0,0)" stroke-width="3.749996" fill="none" d="M 47.200977 199.321808 L 51.662766 212.707153 " />
<path stroke-linejoin="round" stroke-linecap="round" stroke="rgb(0,0,255)" stroke-width="1.874998" fill="none" d="M 0.000000 750.000000 L 63.084103 0.000000 " />
<path stroke-linejoin="round" stroke-linecap="round" stroke="rgb(255,0,0)" stroke-width="3.749996" fill="none" d="M 46.496494 197.208298 L 47.200977 199.321808 " />
<path stroke-linejoin="round" stroke-linecap="round" stroke="rgb(0,0,255)" stroke-width="1.874998" fill="none" d="M 0.000000 750.000000 L 61.926617 0.000000 " />
<path stroke-linejoin="round" stroke-linecap="round" stroke="rgb(255,0,0)" stroke-width="3.749996" fill="none" d="M 45.812733 195.157043 L 46.496494 197.208298 " />
<path stroke-linejoin="round" stroke-linecap="round" stroke="rgb(0,0,255)" stroke-width="1.874998" fill="none" d="M 0.000000 750.000000 L 60.810818 0.000000 " />
<path stroke-linejoin="round" stroke-linecap="round" stroke="rgb(255,0,0)" stroke-width="3.749996" fill="none" d="M 45.148773 193.165176 L 45.812733 195.157043 " />
<path stroke-linejoin="round" stroke-linecap="round" stroke="rgb(0,0,255)" stroke-width="1.874998" fill="none" d="M 0.000000 750.000000 L 59.734516 0.000000 " />
<path stroke-linejoin="round" stroke-linecap="round" stroke="rgb(255,0,0)" stroke-width="3.749996" fill="none" d="M 44.503792 191.230164 L 45.148773 193.165176 " />
<path stroke-linejoin="round" stroke-linecap="round" stroke="rgb(0,0,255)" stroke-width="1.874998" fill="none" d="M 0.000000 750.000000 L 58.189651 0.000000 " />
<path stroke-linejoin="round" stroke-linecap="round" stroke="rgb(255,0,0)" stroke-width="3.749996" fill="none" d="M 43.570137 188.429245 L 44.503792 191.230164 " />
<path stroke-linejoin="round" stroke-linecap="round" stroke="rgb(0,0,255)" stroke-width="1.874998" fill="none" d="M 0.000000 750.000000 L 51.282047 0.000000 " />
<path stroke-linejoin="round" stroke-linecap="round" stroke="rgb(255,0,0)" stroke-width="3.749996" fill="none" d="M 39.278358 175.553940 L 43.570137 188.429245 " />
<path stroke-linejoin="round" stroke-linecap="round" stroke="rgb(0,0,255)" stroke-width="1.874998" fill="none" d="M 0.000000 750.000000 L 50.420166 0.000000 " />
<path stroke-linejoin="round" stroke-linecap="round" stroke="rgb(255,0,0)" stroke-width="3.749996" fill="none" d="M 38.729019 173.905899 L 39.278358 175.553940 " />
<path stroke-linejoin="round" stroke-linecap="round" stroke="rgb(0,0,255)" stroke-width="1.874998" fill="none" d="M 0.000000 750.000000 L 49.586781 0.000000 " />
<path stroke-linejoin="round" stroke-linecap="round" stroke="rgb(255,0,0)" stroke-width="3.749996" fill="none" d="M 38.194836 172.303253 L 38.729019 173.905899 " />
<path stroke-linejoin="round" stroke-linecap="round" stroke="rgb(0,0,255)" stroke-width="1.874998" fill="none" d="M 0.000000 750.000000 L 48.780487 0.000000 " />
<path stroke-linejoin="round" stroke-linecap="round" stroke="rgb(255,0,0)" stroke-width="3.749996" fill="none" d="M 37.675179 170.744247 L 38.194836 172.303253 " />
<path stroke-linejoin="round" stroke-linecap="round" stroke="rgb(0,0,255)" stroke-width="1.874998" fill="none" d="M 0.000000 750.000000 L 43.750004 0.000000 " />
<path stroke-linejoin="round" stroke-linecap="round" stroke="rgb(255,0,0)" stroke-width="3.749996" fill="none" d="M 34.368576 160.824432 L 37.675179 170.744171 " />
<path stroke-linejoin="round" stroke-linecap="round" stroke="rgb(0,0,255)" stroke-width="1.874998" fill="none" d="M 0.000000 750.000000 L 43.032780 0.000000 " />
<path stroke-linejoin="round" stroke-linecap="round" stroke="rgb(255,0,0)" stroke-width="3.749996" fill="none" d="M 33.887901 159.382355 L 34.368576 160.824432 " />
<path stroke-linejoin="round" stroke-linecap="round" stroke="rgb(0,0,255)" stroke-width="1.874998" fill="none" d="M 0.000000 750.000000 L 42.682930 0.000000 " />
<path stroke-linejoin="round" stroke-linecap="round" stroke="rgb(255,0,0)" stroke-width="3.749996" fill="none" d="M 33.652557 158.676331 L 33.887901 159.382355 " />
<path stroke-linejoin="round" stroke-linecap="round" stroke="rgb(0,0,255)" stroke-width="1.874998" fill="none" d="M 0.000000 750.000000 L 41.999996 0.000000 " />
<path stroke-linejoin="round" stroke-linecap="round" stroke="rgb(255,0,0)" stroke-width="3.749996" fill="none" d="M 33.191578 157.293381 L 33.652557 158.676331 " />
<path stroke-linejoin="round" stroke-linecap="round" stroke="rgb(0,0,255)" stroke-width="1.874998" fill="none" d="M 0.000000 750.000000 L 40.540539 0.000000 " />
<path stroke-linejoin="round" stroke-linecap="round" stroke="rgb(255,0,0)" stroke-width="3.749996" fill="none" d="M 32.199139 154.316071 L 33.191578 157.293381 " />
<path stroke-linejoin="round" stroke-linecap="round" stroke="rgb(0,0,255)" stroke-width="1.874998" fill="none" d="M 0.000000 750.000000 L 39.823002 0.000000 " />
<path stroke-linejoin="round" stroke-linecap="round" stroke="rgb(255,0,0)" stroke-width="3.749996" fill="none" d="M 31.707533 152.841278 L 32.199139 154.316071 " />
<path stroke-linejoin="round" stroke-linecap="round" stroke="rgb(0,0,255)" stroke-width="1.874998" fill="none" d="M 0.000000 750.000000 L 39.130436 0.000000 " />
<path stroke-linejoin="round" stroke-linecap="round" stroke="rgb(255,0,0)" stroke-width="3.749996" fill="none" d="M 31.230747 151.410873 L 31.707533 152.841278 " />
<path stroke-linejoin="round" stroke-linecap="round" stroke="rgb(0,0,255)" stroke-width="1.874998" fill="none" d="M 0.000000 750.000000 L 38.461536 0.000000 " />
<path stroke-linejoin="round" stroke-linecap="round" stroke="rgb(255,0,0)" stroke-width="3.749996" fill="none" d="M 30.768066 150.022812 L 31.230747 151.410873 " />
<path stroke-linejoin="round" stroke-linecap="round" stroke="rgb(0,0,255)" stroke-width="1.874998" fill="none" d="M 0.000000 750.000000 L 37.815125 0.000000 " />
<path stroke-linejoin="round" stroke-linecap="round" stroke="rgb(255,0,0)" stroke-width="3.749996" fill="none" d="M 30.318886 148.675339 L 30.768066 150.022812 " />
<path stroke-linejoin="round" stroke-linecap="round" stroke="rgb(0,0,255)" stroke-width="1.874998" fill="none" d="M 0.000000 750.000000 L 37.190079 0.000000 " />
<path stroke-linejoin="round" stroke-linecap="round" stroke="rgb(255,0,0)" stroke-width="3.749996" fill="none" d="M 29.882647 147.366638 L 30.318886 148.675339 " />
<path stroke-linejoin="round" stroke-linecap="round" stroke="rgb(0,0,255)" stroke-width="1.874998" fill="none" d="M 0.000000 750.000000 L 31.779661 0.000000 " />
<path stroke-linejoin="round" stroke-linecap="round" stroke="rgb(255,0,0)" stroke-width="3.749996" fill="none" d="M 26.025608 135.795532 L 29.882647 147.366638 " />
<path stroke-linejoin="round" stroke-linecap="round" stroke="rgb(0,0,255)" stroke-width="1.874998" fill="none" d="M 0.000000 750.000000 L 25.210083 0.000000 " />
<path stroke-linejoin="round" stroke-linecap="round" stroke="rgb(255,0,0)" stroke-width="3.749996" fill="none" d="M 21.138355 121.133698 L 26.025608 135.795532 " />
<path stroke-linejoin="round" stroke-linecap="round" stroke="rgb(0,0,255)" stroke-width="1.874998" fill="none" d="M 0.000000 750.000000 L 18.750004 0.000000 " />
<path stroke-linejoin="round" stroke-linecap="round" stroke="rgb(255,0,0)" stroke-width="3.749996" fill="none" d="M 16.099558 106.017349 L 21.138355 121.133698 " />
<path stroke-linejoin="round" stroke-linecap="round" stroke="rgb(0,0,255)" stroke-width="1.874998" fill="none" d="M 0.000000 750.000000 L 18.442623 0.000000 " />
<path stroke-linejoin="round" stroke-linecap="round" stroke="rgb(255,0,0)" stroke-width="3.749996" fill="none" d="M 15.853778 105.279991 L 16.099558 106.017349 " />
<path stroke-linejoin="round" stroke-linecap="round" stroke="rgb(0,0,255)" stroke-width="1.874998" fill="none" d="M 0.000000 750.000000 L 17.175570 0.000000 " />
<path stroke-linejoin="round" stroke-linecap="round" stroke="rgb(255,0,0)" stroke-width="3.749996" fill="none" d="M 14.834605 102.222496 L 15.853778 105.279991 " />
<path stroke-linejoin="round" stroke-linecap="round" stroke="rgb(0,0,255)" stroke-width="1.874998" fill="none" d="M 0.000000 750.000000 L 16.917295 0.000000 " />
<path stroke-linejoin="round" stroke-linecap="round" stroke="rgb(255,0,0)" stroke-width="3.749996" fill="none" d="M 14.625661 101.595642 L 14.834605 102.222496 " />
<path stroke-linejoin="round" stroke-linecap="round" stroke="rgb(0,0,255)" stroke-width="1.874998" fill="none" d="M 0.000000 750.000000 L 10.791376 0.000000 " />
<path stroke-linejoin="round" stroke-linecap="round" stroke="rgb(255,0,0)" stroke-width="3.749996" fill="none" d="M 9.846613 65.660049 L 14.625661 101.595642 " />
<path stroke-linejoin="round" stroke-linecap="round" stroke="rgb(0,0,255)" stroke-width="1.874998" fill="none" d="M 0.000000 750.000000 L 5.357154 0.000000 " />
<path stroke-linejoin="round" stroke-linecap="round" stroke="rgb(255,0,0)" stroke-width="3.749996" fill="none" d="M 5.073019 39.776222 L 9.846613 65.660049 " />
<path stroke-linejoin="round" stroke-linecap="round" stroke="rgb(0,0,255)" stroke-width="1.874998" fill="none" d="M 0.000000 750.000000 L 0.000000 0.000000 " />
<path stroke-linejoin="round" stroke-linecap="round" stroke="rgb(255,0,0)" stroke-width="3.749996" fill="none" d="M 0.000000 0.000000 L 5.073019 39.776222 " />
<circle cx="144.809693" cy="703.287207" r="3.749996" style="fill:rgb(0,127,0);stroke-width:1" /><circle cx="144.392252" cy="700.365163" r="3.749996" style="fill:rgb(0,127,0);stroke-width:1" /><circle cx="139.066279" cy="663.083576" r="3.749996" style="fill:rgb(0,127,0);stroke-width:1" /><circle cx="138.116777" cy="656.437017" r="3.749996" style="fill:rgb(0,127,0);stroke-width:1" /><circle cx="137.118146" cy="649.446689" r="3.749996" style="fill:rgb(0,127,0);stroke-width:1" /><circle cx="136.965796" cy="648.380220" r="3.749996" style="fill:rgb(0,127,0);stroke-width:1" /><circle cx="134.794123" cy="633.178420" r="3.749996" style="fill:rgb(0,127,0);stroke-width:1" /><circle cx="133.700140" cy="625.520557" r="3.749996" style="fill:rgb(0,127,0);stroke-width:1" /><circle cx="131.285191" cy="608.615935" r="3.749996" style="fill:rgb(0,127,0);stroke-width:1" /><circle cx="126.124531" cy="572.491385" r="3.749996" style="fill:rgb(0,127,0);stroke-width:1" /><circle cx="124.750614" cy="562.874056" r="3.749996" style="fill:rgb(0,127,0);stroke-width:1" /><circle cx="123.300031" cy="552.719951" r="3.749996" style="fill:rgb(0,127,0);stroke-width:1" /><circle cx="121.047959" cy="536.955569" r="3.749996" style="fill:rgb(0,127,0);stroke-width:1" /><circle cx="117.820010" cy="514.359958" r="3.749996" style="fill:rgb(0,127,0);stroke-width:1" /><circle cx="111.087441" cy="467.231942" r="3.749996" style="fill:rgb(0,127,0);stroke-width:1" /><circle cx="110.996470" cy="466.959033" r="3.749996" style="fill:rgb(0,127,0);stroke-width:1" /><circle cx="110.819846" cy="465.722965" r="3.749996" style="fill:rgb(0,127,0);stroke-width:1" /><circle cx="109.821483" cy="458.734347" r="3.749996" style="fill:rgb(0,127,0);stroke-width:1" /><circle cx="107.020833" cy="439.129975" r="3.749996" style="fill:rgb(0,127,0);stroke-width:1" /><circle cx="100.475438" cy="393.312193" r="3.749996" style="fill:rgb(0,127,0);stroke-width:1" /><circle cx="97.633034" cy="373.415387" r="3.749996" style="fill:rgb(0,127,0);stroke-width:1" /><circle cx="95.496923" cy="358.462643" r="3.749996" style="fill:rgb(0,127,0);stroke-width:1" /><circle cx="93.242124" cy="342.679130" r="3.749996" style="fill:rgb(0,127,0);stroke-width:1" /><circle cx="92.386700" cy="336.691082" r="3.749996" style="fill:rgb(0,127,0);stroke-width:1" /><circle cx="88.380039" cy="324.671103" r="3.749996" style="fill:rgb(0,127,0);stroke-width:1" /><circle cx="86.988218" cy="320.495652" r="3.749996" style="fill:rgb(0,127,0);stroke-width:1" /><circle cx="86.535148" cy="317.324247" r="3.749996" style="fill:rgb(0,127,0);stroke-width:1" /><circle cx="83.073735" cy="306.940019" r="3.749996" style="fill:rgb(0,127,0);stroke-width:1" /><circle cx="78.796238" cy="294.107510" r="3.749996" style="fill:rgb(0,127,0);stroke-width:1" /><circle cx="77.535488" cy="290.325310" r="3.749996" style="fill:rgb(0,127,0);stroke-width:1" /><circle cx="76.314457" cy="286.662195" r="3.749996" style="fill:rgb(0,127,0);stroke-width:1" /><circle cx="75.131290" cy="283.112705" r="3.749996" style="fill:rgb(0,127,0);stroke-width:1" /><circle cx="73.984243" cy="279.671576" r="3.749996" style="fill:rgb(0,127,0);stroke-width:1" /><circle cx="72.871707" cy="276.333980" r="3.749996" style="fill:rgb(0,127,0);stroke-width:1" /><circle cx="68.699665" cy="263.817821" r="3.749996" style="fill:rgb(0,127,0);stroke-width:1" /><circle cx="67.666590" cy="260.718584" r="3.749996" style="fill:rgb(0,127,0);stroke-width:1" /><circle cx="64.398251" cy="250.913534" r="3.749996" style="fill:rgb(0,127,0);stroke-width:1" /><circle cx="63.415065" cy="247.963998" r="3.749996" style="fill:rgb(0,127,0);stroke-width:1" /><circle cx="62.461473" cy="245.103188" r="3.749996" style="fill:rgb(0,127,0);stroke-width:1" /><circle cx="59.961364" cy="237.602916" r="3.749996" style="fill:rgb(0,127,0);stroke-width:1" /><circle cx="59.031732" cy="234.814022" r="3.749996" style="fill:rgb(0,127,0);stroke-width:1" /><circle cx="56.283027" cy="226.567917" r="3.749996" style="fill:rgb(0,127,0);stroke-width:1" /><circle cx="55.382498" cy="223.866317" r="3.749996" style="fill:rgb(0,127,0);stroke-width:1" /><circle cx="51.662765" cy="212.707154" r="3.749996" style="fill:rgb(0,127,0);stroke-width:1" /><circle cx="47.200978" cy="199.321814" r="3.749996" style="fill:rgb(0,127,0);stroke-width:1" /><circle cx="46.496496" cy="197.208311" r="3.749996" style="fill:rgb(0,127,0);stroke-width:1" /><circle cx="45.812733" cy="195.157025" r="3.749996" style="fill:rgb(0,127,0);stroke-width:1" /><circle cx="45.148775" cy="193.165183" r="3.749996" style="fill:rgb(0,127,0);stroke-width:1" /><circle cx="44.503793" cy="191.230170" r="3.749996" style="fill:rgb(0,127,0);stroke-width:1" /><circle cx="43.570139" cy="188.429251" r="3.749996" style="fill:rgb(0,127,0);stroke-width:1" /><circle cx="39.278358" cy="175.553933" r="3.749996" style="fill:rgb(0,127,0);stroke-width:1" /><circle cx="38.729019" cy="173.905894" r="3.749996" style="fill:rgb(0,127,0);stroke-width:1" /><circle cx="38.194835" cy="172.303252" r="3.749996" style="fill:rgb(0,127,0);stroke-width:1" /><circle cx="37.675180" cy="170.744240" r="3.749996" style="fill:rgb(0,127,0);stroke-width:1" /><circle cx="34.368575" cy="160.824426" r="3.749996" style="fill:rgb(0,127,0);stroke-width:1" /><circle cx="33.887900" cy="159.382358" r="3.749996" style="fill:rgb(0,127,0);stroke-width:1" /><circle cx="33.652559" cy="158.676334" r="3.749996" style="fill:rgb(0,127,0);stroke-width:1" /><circle cx="33.191577" cy="157.293387" r="3.749996" style="fill:rgb(0,127,0);stroke-width:1" /><circle cx="32.199137" cy="154.316068" r="3.749996" style="fill:rgb(0,127,0);stroke-width:1" /><circle cx="31.707533" cy="152.841277" r="3.749996" style="fill:rgb(0,127,0);stroke-width:1" /><circle cx="31.230748" cy="151.410878" r="3.749996" style="fill:rgb(0,127,0);stroke-width:1" /><circle cx="30.768067" cy="150.022812" r="3.749996" style="fill:rgb(0,127,0);stroke-width:1" /><circle cx="30.318886" cy="148.675337" r="3.749996" style="fill:rgb(0,127,0);stroke-width:1" /><circle cx="29.882647" cy="147.366643" r="3.749996" style="fill:rgb(0,127,0);stroke-width:1" /><circle cx="26.025608" cy="135.795526" r="3.749996" style="fill:rgb(0,127,0);stroke-width:1" /><circle cx="21.138355" cy="121.133700" r="3.749996" style="fill:rgb(0,127,0);stroke-width:1" /><circle cx="16.099557" cy="106.017351" r="3.749996" style="fill:rgb(0,127,0);stroke-width:1" /><circle cx="15.853778" cy="105.279990" r="3.749996" style="fill:rgb(0,127,0);stroke-width:1" /><circle cx="14.834605" cy="102.222495" r="3.749996" style="fill:rgb(0,127,0);stroke-width:1" /><circle cx="14.625661" cy="101.595640" r="3.749996" style="fill:rgb(0,127,0);stroke-width:1" /><circle cx="9.846613" cy="65.660052" r="3.749996" style="fill:rgb(0,127,0);stroke-width:1" /><circle cx="5.073018" cy="39.776221" r="3.749996" style="fill:rgb(0,127,0);stroke-width:1" /><circle cx="750.000000" cy="750.000000" r="3.749996" style="fill:rgb(0,127,0);stroke-width:1" /><path stroke-linejoin="round" stroke-linecap="round" stroke="rgb(255,255,255)" stroke-width="3.749996" fill="none" d="M 0.000000 750.000000 L 750.000000 750.000000 M 0.000000 750.000000 L 0.000000 0.000000 " />

</svg>