<svg xmlns="http://www.w3.org/2000/svg" version="1.1" width = "750" height = "750" viewBox = "0 0 750 750"  shape-rendering="crispEdges">
<path stroke-linejoin="round" stroke-linecap="round" stroke="rgb(255,255,0)" stroke-width="3.749996" fill="none" d="M 187.500000 750.000000 L 0.000000 0.000000 " />
<path stroke-linejoin="round" stroke-linecap="round" stroke="rgb(63,63,63)" stroke-width="3.749996" fill="none" d="M 0.000000 0.000000 L 750.000000 750.000000 M 187.500000 750.000000 L 80.357147 0.000000 " />
<path stroke-linejoin="round" stroke-linecap="round" stroke="rgb(191,191,191)" stroke-width="3.749996" fill="none" d="M 0.000000 562.500000 L 187.500000 750.000000 M 0.000000 0.000000 L 107.142853 750.000000 " />
<path stroke-linejoin="round" stroke-linecap="round" stroke="rgb(0,0,255)" stroke-width="1.874998" fill="none" d="M 0.000000 750.000000 L 750.000000 562.500000 " />
<path stroke-linejoin="round" stroke-linecap="round" stroke="rgb(255,0,0)" stroke-width="3.749996" fill="none" d="M 181.034470 704.741394 L 187.500000 750.000000 " />
<path stroke-linejoin="round" stroke-linecap="round" stroke="rgb(0,0,255)" stroke-width="1.874998" fill="none" d="M 0.000000 750.000000 L 750.000000 513.157898 " />
<path stroke-linejoin="round" stroke-linecap="round" stroke="rgb(255,0,0)" stroke-width="3.749996" fill="none" d="M 178.986572 693.477905 L 181.034470 704.741394 " />
<path stroke-linejoin="round" stroke-linecap="round" stroke="rgb(0,0,255)" stroke-width="1.874998" fill="none" d="M 0.000000 750.000000 L 750.000000 473.684204 " />
<path stroke-linejoin="round" stroke-linecap="round" stroke="rgb(255,0,0)" stroke-width="3.749996" fill="none" d="M 177.381317 684.648987 L 178.986572 693.477905 " />
<path stroke-linejoin="round" stroke-linecap="round" stroke="rgb(0,0,255)" stroke-width="1.874998" fill="none" d="M 0.000000 750.000000 L 750.000000 304.054047 " />
<path stroke-linejoin="round" stroke-linecap="round" stroke="rgb(255,0,0)" stroke-width="3.749996" fill="none" d="M 170.798615 648.444031 L 177.381317 684.648987 " />
<path stroke-linejoin="round" stroke-linecap="round" stroke="rgb(0,0,255)" stroke-width="1.874998" fill="none" d="M 0.000000 750.000000 L 750.000000 296.052612 " />
<path stroke-linejoin="round" stroke-linecap="round" stroke="rgb(255,0,0)" stroke-width="3.749996" fill="none" d="M 170.500153 646.802551 L 170.798615 648.444031 " />
<path stroke-linejoin="round" stroke-linecap="round" stroke="rgb(0,0,255)" stroke-width="1.874998" fill="none" d="M 0.000000 750.000000 L 750.000000 229.166687 " />
<path stroke-linejoin="round" stroke-linecap="round" stroke="rgb(255,0,0)" stroke-width="3.749996" fill="none" d="M 168.045486 633.301758 L 170.500153 646.802551 " />
<path stroke-linejoin="round" stroke-linecap="round" stroke="rgb(0,0,255)" stroke-width="1.874998" fill="none" d="M 0.000000 750.000000 L 750.000000 187.500000 " />
<path stroke-linejoin="round" stroke-linecap="round" stroke="rgb(255,0,0)" stroke-width="3.749996" fill="none" d="M 166.551773 625.086182 L 168.045486 633.301758 " />
<path stroke-linejoin="round" stroke-linecap="round" stroke="rgb(0,0,255)" stroke-width="1.874998" fill="none" d="M 0.000000 750.000000 L 750.000000 149.999985 " />
<path stroke-linejoin="round" stroke-linecap="round" stroke="rgb(255,0,0)" stroke-width="3.749996" fill="none" d="M 165.229935 617.816040 L 166.551773 625.086182 " />
<path stroke-linejoin="round" stroke-linecap="round" stroke="rgb(0,0,255)" stroke-width="1.874998" fill="none" d="M 0.000000 750.000000 L 750.000000 145.833313 " />
<path stroke-linejoin="round" stroke-linecap="round" stroke="rgb(255,0,0)" stroke-width="3.749996" fill="none" d="M 165.084381 617.015381 L 165.229935 617.816040 " />
<path stroke-linejoin="round" stroke-linecap="round" stroke="rgb(0,0,255)" stroke-width="1.874998" fill="none" d="M 0.000000 750.000000 L 750.000000 62.499985 " />
<path stroke-linejoin="round" stroke-linecap="round" stroke="rgb(255,0,0)" stroke-width="3.749996" fill="none" d="M 162.225769 601.293030 L 165.084381 617.015381 " />
<path stroke-linejoin="round" stroke-linecap="round" stroke="rgb(0,0,255)" stroke-width="1.874998" fill="none" d="M 0.000000 750.000000 L 727.941223 0.000000 " />
<path stroke-linejoin="round" stroke-linecap="round" stroke="rgb(255,0,0)" stroke-width="3.749996" fill="none" d="M 159.402832 585.766846 L 162.225769 601.293030 " />
<path stroke-linejoin="round" stroke-linecap="round" stroke="rgb(0,0,255)" stroke-width="1.874998" fill="none" d="M 0.000000 750.000000 L 689.189209 0.000000 " />
<path stroke-linejoin="round" stroke-linecap="round" stroke="rgb(255,0,0)" stroke-width="3.749996" fill="none" d="M 158.001129 578.057617 L 159.402832 585.766846 " />
<path stroke-linejoin="round" stroke-linecap="round" stroke="rgb(0,0,255)" stroke-width="1.874998" fill="none" d="M 0.000000 750.000000 L 651.315796 0.000000 " />
<path stroke-linejoin="round" stroke-linecap="round" stroke="rgb(255,0,0)" stroke-width="3.749996" fill="none" d="M 156.497971 569.790222 L 158.001129 578.057617 " />
<path stroke-linejoin="round" stroke-linecap="round" stroke="rgb(0,0,255)" stroke-width="1.874998" fill="none" d="M 0.000000 750.000000 L 621.951233 0.000000 " />
<path stroke-linejoin="round" stroke-linecap="round" stroke="rgb(255,0,0)" stroke-width="3.749996" fill="none" d="M 155.229187 562.811829 L 156.498001 569.790222 " />
<path stroke-linejoin="round" stroke-linecap="round" stroke="rgb(0,0,255)" stroke-width="1.874998" fill="none" d="M 0.000000 750.000000 L 618.750000 0.000000 " />
<path stroke-linejoin="round" stroke-linecap="round" stroke="rgb(255,0,0)" stroke-width="3.749996" fill="none" d="M 155.084930 562.018250 L 155.229187 562.811829 " />
<path stroke-linejoin="round" stroke-linecap="round" stroke="rgb(0,0,255)" stroke-width="1.874998" fill="none" d="M 0.000000 750.000000 L 593.023254 0.000000 " />
<path stroke-linejoin="round" stroke-linecap="round" stroke="rgb(255,0,0)" stroke-width="3.749996" fill="none" d="M 153.879379 555.387878 L 155.084930 562.018250 " />
<path stroke-linejoin="round" stroke-linecap="round" stroke="rgb(0,0,255)" stroke-width="1.874998" fill="none" d="M 0.000000 750.000000 L 553.571411 0.000000 " />
<path stroke-linejoin="round" stroke-linecap="round" stroke="rgb(255,0,0)" stroke-width="3.749996" fill="none" d="M 151.856064 544.259521 L 153.879379 555.387878 " />
<path stroke-linejoin="round" stroke-linecap="round" stroke="rgb(0,0,255)" stroke-width="1.874998" fill="none" d="M 0.000000 750.000000 L 533.333374 0.000000 " />
<path stroke-linejoin="round" stroke-linecap="round" stroke="rgb(255,0,0)" stroke-width="3.749996" fill="none" d="M 150.725616 538.042114 L 151.856064 544.259521 " />
<path stroke-linejoin="round" stroke-linecap="round" stroke="rgb(0,0,255)" stroke-width="1.874998" fill="none" d="M 0.000000 750.000000 L 510.638275 0.000000 " />
<path stroke-linejoin="round" stroke-linecap="round" stroke="rgb(255,0,0)" stroke-width="3.749996" fill="none" d="M 149.373825 530.607178 L 150.725616 538.042114 " />
<path stroke-linejoin="round" stroke-linecap="round" stroke="rgb(0,0,255)" stroke-width="1.874998" fill="none" d="M 0.000000 750.000000 L 489.795898 0.000000 " />
<path stroke-linejoin="round" stroke-linecap="round" stroke="rgb(255,0,0)" stroke-width="3.749996" fill="none" d="M 148.046051 523.304504 L 149.373825 530.607178 " />
<path stroke-linejoin="round" stroke-linecap="round" stroke="rgb(0,0,255)" stroke-width="1.874998" fill="none" d="M 0.000000 750.000000 L 432.692291 0.000000 " />
<path stroke-linejoin="round" stroke-linecap="round" stroke="rgb(255,0,0)" stroke-width="3.749996" fill="none" d="M 143.909973 500.556091 L 148.046051 523.304504 " />
<path stroke-linejoin="round" stroke-linecap="round" stroke="rgb(0,0,255)" stroke-width="1.874998" fill="none" d="M 0.000000 750.000000 L 395.454529 0.000000 " />
<path stroke-linejoin="round" stroke-linecap="round" stroke="rgb(255,0,0)" stroke-width="3.749996" fill="none" d="M 140.734344 483.090088 L 143.909973 500.556091 " />
<path stroke-linejoin="round" stroke-linecap="round" stroke="rgb(0,0,255)" stroke-width="1.874998" fill="none" d="M 0.000000 750.000000 L 387.931061 0.000000 " />
<path stroke-linejoin="round" stroke-linecap="round" stroke="rgb(255,0,0)" stroke-width="3.749996" fill="none" d="M 140.037949 479.259979 L 140.734344 483.090088 " />
<path stroke-linejoin="round" stroke-linecap="round" stroke="rgb(0,0,255)" stroke-width="1.874998" fill="none" d="M 0.000000 750.000000 L 375.000000 0.000000 " />
<path stroke-linejoin="round" stroke-linecap="round" stroke="rgb(255,0,0)" stroke-width="3.749996" fill="none" d="M 138.793167 472.413666 L 140.037949 479.259979 " />
<path stroke-linejoin="round" stroke-linecap="round" stroke="rgb(0,0,255)" stroke-width="1.874998" fill="none" d="M 0.000000 750.000000 L 356.557343 0.000000 " />
<path stroke-linejoin="round" stroke-linecap="round" stroke="rgb(255,0,0)" stroke-width="3.749996" fill="none" d="M 136.904816 462.027771 L 138.793137 472.413727 " />
<path stroke-linejoin="round" stroke-linecap="round" stroke="rgb(0,0,255)" stroke-width="1.874998" fill="none" d="M 0.000000 750.000000 L 345.238098 0.000000 " />
<path stroke-linejoin="round" stroke-linecap="round" stroke="rgb(255,0,0)" stroke-width="3.749996" fill="none" d="M 135.674225 455.259460 L 136.904816 462.027771 " />
<path stroke-linejoin="round" stroke-linecap="round" stroke="rgb(0,0,255)" stroke-width="1.874998" fill="none" d="M 0.000000 750.000000 L 334.821411 0.000000 " />
<path stroke-linejoin="round" stroke-linecap="round" stroke="rgb(255,0,0)" stroke-width="3.749996" fill="none" d="M 133.739685 450.423126 L 135.674194 455.259460 " />
<path stroke-linejoin="round" stroke-linecap="round" stroke="rgb(0,0,255)" stroke-width="1.874998" fill="none" d="M 0.000000 750.000000 L 323.275879 0.000000 " />
<path stroke-linejoin="round" stroke-linecap="round" stroke="rgb(255,0,0)" stroke-width="3.749996" fill="none" d="M 131.519928 444.873779 L 133.739685 450.423126 " />
<path stroke-linejoin="round" stroke-linecap="round" stroke="rgb(0,0,255)" stroke-width="1.874998" fill="none" d="M 0.000000 750.000000 L 318.181793 0.000000 " />
<path stroke-linejoin="round" stroke-linecap="round" stroke="rgb(255,0,0)" stroke-width="3.749996" fill="none" d="M 130.898193 441.454224 L 131.519958 444.873688 " />
<path stroke-linejoin="round" stroke-linecap="round" stroke="rgb(0,0,255)" stroke-width="1.874998" fill="none" d="M 0.000000 750.000000 L 308.823547 0.000000 " />
<path stroke-linejoin="round" stroke-linecap="round" stroke="rgb(255,0,0)" stroke-width="3.749996" fill="none" d="M 129.718933 434.968292 L 130.898193 441.454224 " />
<path stroke-linejoin="round" stroke-linecap="round" stroke="rgb(0,0,255)" stroke-width="1.874998" fill="none" d="M 0.000000 750.000000 L 300.000000 0.000000 " />
<path stroke-linejoin="round" stroke-linecap="round" stroke="rgb(255,0,0)" stroke-width="3.749996" fill="none" d="M 128.560730 428.598145 L 129.718933 434.968292 " />
<path stroke-linejoin="round" stroke-linecap="round" stroke="rgb(0,0,255)" stroke-width="1.874998" fill="none" d="M 0.000000 750.000000 L 285.211273 0.000000 " />
<path stroke-linejoin="round" stroke-linecap="round" stroke="rgb(255,0,0)" stroke-width="3.749996" fill="none" d="M 126.510811 417.323456 L 128.560730 428.598145 " />
<path stroke-linejoin="round" stroke-linecap="round" stroke="rgb(0,0,255)" stroke-width="1.874998" fill="none" d="M 0.000000 750.000000 L 283.783783 0.000000 " />
<path stroke-linejoin="round" stroke-linecap="round" stroke="rgb(255,0,0)" stroke-width="3.749996" fill="none" d="M 126.305313 416.193146 L 126.510811 417.323425 " />
<path stroke-linejoin="round" stroke-linecap="round" stroke="rgb(0,0,255)" stroke-width="1.874998" fill="none" d="M 0.000000 750.000000 L 282.608673 0.000000 " />
<path stroke-linejoin="round" stroke-linecap="round" stroke="rgb(255,0,0)" stroke-width="3.749996" fill="none" d="M 126.135056 415.256927 L 126.305313 416.193146 " />
<path stroke-linejoin="round" stroke-linecap="round" stroke="rgb(0,0,255)" stroke-width="1.874998" fill="none" d="M 0.000000 750.000000 L 256.329102 0.000000 " />
<path stroke-linejoin="round" stroke-linecap="round" stroke="rgb(255,0,0)" stroke-width="3.749996" fill="none" d="M 122.062057 392.855469 L 126.135033 415.257019 " />
<path stroke-linejoin="round" stroke-linecap="round" stroke="rgb(0,0,255)" stroke-width="1.874998" fill="none" d="M 0.000000 750.000000 L 243.749985 0.000000 " />
<path stroke-linejoin="round" stroke-linecap="round" stroke="rgb(255,0,0)" stroke-width="3.749996" fill="none" d="M 119.913162 381.036438 L 122.062057 392.855469 " />
<path stroke-linejoin="round" stroke-linecap="round" stroke="rgb(0,0,255)" stroke-width="1.874998" fill="none" d="M 0.000000 750.000000 L 231.481476 0.000000 " />
<path stroke-linejoin="round" stroke-linecap="round" stroke="rgb(255,0,0)" stroke-width="3.749996" fill="none" d="M 117.675751 368.730591 L 119.913162 381.036438 " />
<path stroke-linejoin="round" stroke-linecap="round" stroke="rgb(0,0,255)" stroke-width="1.874998" fill="none" d="M 0.000000 750.000000 L 226.973694 0.000000 " />
<path stroke-linejoin="round" stroke-linecap="round" stroke="rgb(255,0,0)" stroke-width="3.749996" fill="none" d="M 116.371170 365.469208 L 117.675751 368.730591 " />
<path stroke-linejoin="round" stroke-linecap="round" stroke="rgb(0,0,255)" stroke-width="1.874998" fill="none" d="M 0.000000 750.000000 L 214.285721 0.000000 " />
<path stroke-linejoin="round" stroke-linecap="round" stroke="rgb(255,0,0)" stroke-width="3.749996" fill="none" d="M 113.841354 351.555267 L 116.371147 365.469269 " />
<path stroke-linejoin="round" stroke-linecap="round" stroke="rgb(0,0,255)" stroke-width="1.874998" fill="none" d="M 0.000000 750.000000 L 209.302338 0.000000 " />
<path stroke-linejoin="round" stroke-linecap="round" stroke="rgb(255,0,0)" stroke-width="3.749996" fill="none" d="M 112.796944 345.811005 L 113.841354 351.555267 " />
<path stroke-linejoin="round" stroke-linecap="round" stroke="rgb(0,0,255)" stroke-width="1.874998" fill="none" d="M 0.000000 750.000000 L 204.545456 0.000000 " />
<path stroke-linejoin="round" stroke-linecap="round" stroke="rgb(255,0,0)" stroke-width="3.749996" fill="none" d="M 111.771492 340.171173 L 112.796944 345.811005 " />
<path stroke-linejoin="round" stroke-linecap="round" stroke="rgb(0,0,255)" stroke-width="1.874998" fill="none" d="M 0.000000 750.000000 L 199.468079 0.000000 " />
<path stroke-linejoin="round" stroke-linecap="round" stroke="rgb(255,0,0)" stroke-width="3.749996" fill="none" d="M 110.644920 333.975067 L 111.771492 340.171173 " />
<path stroke-linejoin="round" stroke-linecap="round" stroke="rgb(0,0,255)" stroke-width="1.874998" fill="none" d="M 0.000000 750.000000 L 189.473679 0.000000 " />
<path stroke-linejoin="round" stroke-linecap="round" stroke="rgb(255,0,0)" stroke-width="3.749996" fill="none" d="M 108.324814 321.214325 L 110.644920 333.975067 " />
<path stroke-linejoin="round" stroke-linecap="round" stroke="rgb(0,0,255)" stroke-width="1.874998" fill="none" d="M 0.000000 750.000000 L 179.687485 0.000000 " />
<path stroke-linejoin="round" stroke-linecap="round" stroke="rgb(255,0,0)" stroke-width="3.749996" fill="none" d="M 105.910820 307.937439 L 108.324814 321.214325 " />
<path stroke-linejoin="round" stroke-linecap="round" stroke="rgb(0,0,255)" stroke-width="1.874998" fill="none" d="M 0.000000 750.000000 L 178.977264 0.000000 " />
<path stroke-linejoin="round" stroke-linecap="round" stroke="rgb(255,0,0)" stroke-width="3.749996" fill="none" d="M 105.648613 307.281952 L 105.910820 307.937500 " />
<path stroke-linejoin="round" stroke-linecap="round" stroke="rgb(0,0,255)" stroke-width="1.874998" fill="none" d="M 0.000000 750.000000 L 162.371140 0.000000 " />
<path stroke-linejoin="round" stroke-linecap="round" stroke="rgb(255,0,0)" stroke-width="3.749996" fill="none" d="M 101.174088 282.672058 L 105.648613 307.281952 " />
<path stroke-linejoin="round" stroke-linecap="round" stroke="rgb(0,0,255)" stroke-width="1.874998" fill="none" d="M 0.000000 750.000000 L 153.061218 0.000000 " />
<path stroke-linejoin="round" stroke-linecap="round" stroke="rgb(255,0,0)" stroke-width="3.749996" fill="none" d="M 97.332848 273.069031 L 101.174088 282.672058 " />
<path stroke-linejoin="round" stroke-linecap="round" stroke="rgb(0,0,255)" stroke-width="1.874998" fill="none" d="M 0.000000 750.000000 L 145.833328 0.000000 " />
<path stroke-linejoin="round" stroke-linecap="round" stroke="rgb(255,0,0)" stroke-width="3.749996" fill="none" d="M 95.111847 260.853424 L 97.332848 273.069031 " />
<path stroke-linejoin="round" stroke-linecap="round" stroke="rgb(0,0,255)" stroke-width="1.874998" fill="none" d="M 0.000000 750.000000 L 134.433975 0.000000 " />
<path stroke-linejoin="round" stroke-linecap="round" stroke="rgb(255,0,0)" stroke-width="3.749996" fill="none" d="M 91.368042 240.262543 L 95.111847 260.853424 " />
<path stroke-linejoin="round" stroke-linecap="round" stroke="rgb(0,0,255)" stroke-width="1.874998" fill="none" d="M 0.000000 750.000000 L 126.168205 0.000000 " />
<path stroke-linejoin="round" stroke-linecap="round" stroke="rgb(255,0,0)" stroke-width="3.749996" fill="none" d="M 88.450043 224.213593 L 91.368042 240.262543 " />
<path stroke-linejoin="round" stroke-linecap="round" stroke="rgb(0,0,255)" stroke-width="1.874998" fill="none" d="M 0.000000 750.000000 L 121.621635 0.000000 " />
<path stroke-linejoin="round" stroke-linecap="round" stroke="rgb(255,0,0)" stroke-width="3.749996" fill="none" d="M 86.765282 214.947403 L 88.450043 224.213593 " />
<path stroke-linejoin="round" stroke-linecap="round" stroke="rgb(0,0,255)" stroke-width="1.874998" fill="none" d="M 0.000000 750.000000 L 117.768600 0.000000 " />
<path stroke-linejoin="round" stroke-linecap="round" stroke="rgb(255,0,0)" stroke-width="3.749996" fill="none" d="M 85.290337 206.835236 L 86.765282 214.947403 " />
<path stroke-linejoin="round" stroke-linecap="round" stroke="rgb(0,0,255)" stroke-width="1.874998" fill="none" d="M 0.000000 750.000000 L 114.406784 0.000000 " />
<path stroke-linejoin="round" stroke-linecap="round" stroke="rgb(255,0,0)" stroke-width="3.749996" fill="none" d="M 83.966400 199.553665 L 85.290337 206.835281 " />
<path stroke-linejoin="round" stroke-linecap="round" stroke="rgb(0,0,255)" stroke-width="1.874998" fill="none" d="M 0.000000 750.000000 L 112.149529 0.000000 " />
<path stroke-linejoin="round" stroke-linecap="round" stroke="rgb(255,0,0)" stroke-width="3.749996" fill="none" d="M 82.760521 196.539001 L 83.966377 199.553711 " />
<path stroke-linejoin="round" stroke-linecap="round" stroke="rgb(0,0,255)" stroke-width="1.874998" fill="none" d="M 0.000000 750.000000 L 104.166672 0.000000 " />
<path stroke-linejoin="round" stroke-linecap="round" stroke="rgb(255,0,0)" stroke-width="3.749996" fill="none" d="M 78.387871 185.607391 L 82.760521 196.539001 " />
<path stroke-linejoin="round" stroke-linecap="round" stroke="rgb(0,0,255)" stroke-width="1.874998" fill="none" d="M 0.000000 750.000000 L 96.330284 0.000000 " />
<path stroke-linejoin="round" stroke-linecap="round" stroke="rgb(255,0,0)" stroke-width="3.749996" fill="none" d="M 73.924095 174.448059 L 78.387871 185.607391 " />
<path stroke-linejoin="round" stroke-linecap="round" stroke="rgb(0,0,255)" stroke-width="1.874998" fill="none" d="M 0.000000 750.000000 L 94.594582 0.000000 " />
<path stroke-linejoin="round" stroke-linecap="round" stroke="rgb(255,0,0)" stroke-width="3.749996" fill="none" d="M 72.911446 171.916412 L 73.924095 174.448105 " />
<path stroke-linejoin="round" stroke-linecap="round" stroke="rgb(0,0,255)" stroke-width="1.874998" fill="none" d="M 0.000000 750.000000 L 92.920349 0.000000 " />
<path stroke-linejoin="round" stroke-linecap="round" stroke="rgb(255,0,0)" stroke-width="3.749996" fill="none" d="M 71.926163 169.453247 L 72.911446 171.916412 " />
<path stroke-linejoin="round" stroke-linecap="round" stroke="rgb(0,0,255)" stroke-width="1.874998" fill="none" d="M 0.000000 750.000000 L 91.304337 0.000000 " />
<path stroke-linejoin="round" stroke-linecap="round" stroke="rgb(255,0,0)" stroke-width="3.749996" fill="none" d="M 70.967140 167.055756 L 71.926140 169.453293 " />
<path stroke-linejoin="round" stroke-linecap="round" stroke="rgb(0,0,255)" stroke-width="1.874998" fill="none" d="M 0.000000 750.000000 L 84.677429 0.000000 " />
<path stroke-linejoin="round" stroke-linecap="round" stroke="rgb(255,0,0)" stroke-width="3.749996" fill="none" d="M 67.789482 149.578842 L 70.967140 167.055756 " />
<path stroke-linejoin="round" stroke-linecap="round" stroke="rgb(0,0,255)" stroke-width="1.874998" fill="none" d="M 0.000000 750.000000 L 78.000000 0.000000 " />
<path stroke-linejoin="round" stroke-linecap="round" stroke="rgb(255,0,0)" stroke-width="3.749996" fill="none" d="M 63.546875 138.972275 L 67.789482 149.578842 " />
<path stroke-linejoin="round" stroke-linecap="round" stroke="rgb(0,0,255)" stroke-width="1.874998" fill="none" d="M 0.000000 750.000000 L 71.428566 0.000000 " />
<path stroke-linejoin="round" stroke-linecap="round" stroke="rgb(255,0,0)" stroke-width="3.749996" fill="none" d="M 59.222683 128.161758 L 63.546875 138.972275 " />
<path stroke-linejoin="round" stroke-linecap="round" stroke="rgb(0,0,255)" stroke-width="1.874998" fill="none" d="M 0.000000 750.000000 L 65.693420 0.000000 " />
<path stroke-linejoin="round" stroke-linecap="round" stroke="rgb(255,0,0)" stroke-width="3.749996" fill="none" d="M 56.013577 110.511703 L 59.222683 128.161758 " />
<path stroke-linejoin="round" stroke-linecap="round" stroke="rgb(0,0,255)" stroke-width="1.874998" fill="none" d="M 0.000000 750.000000 L 64.748215 0.000000 " />
<path stroke-linejoin="round" stroke-linecap="round" stroke="rgb(255,0,0)" stroke-width="3.749996" fill="none" d="M 55.467098 107.506065 L 56.013554 110.511795 " />
<path stroke-linejoin="round" stroke-linecap="round" stroke="rgb(0,0,255)" stroke-width="1.874998" fill="none" d="M 0.000000 750.000000 L 60.661777 0.000000 " />
<path stroke-linejoin="round" stroke-linecap="round" stroke="rgb(255,0,0)" stroke-width="3.749996" fill="none" d="M 53.044239 94.180267 L 55.467098 107.506065 " />
<path stroke-linejoin="round" stroke-linecap="round" stroke="rgb(0,0,255)" stroke-width="1.874998" fill="none" d="M 0.000000 750.000000 L 54.744534 0.000000 " />
<path stroke-linejoin="round" stroke-linecap="round" stroke="rgb(255,0,0)" stroke-width="3.749996" fill="none" d="M 48.668549 83.241058 L 53.044239 94.180267 " />
<path stroke-linejoin="round" stroke-linecap="round" stroke="rgb(0,0,255)" stroke-width="1.874998" fill="none" d="M 0.000000 750.000000 L 48.913033 0.000000 " />
<path stroke-linejoin="round" stroke-linecap="round" stroke="rgb(255,0,0)" stroke-width="3.749996" fill="none" d="M 44.211052 72.097290 L 48.668526 83.241104 " />
<path stroke-linejoin="round" stroke-linecap="round" stroke="rgb(0,0,255)" stroke-width="1.874998" fill="none" d="M 0.000000 750.000000 L 48.214294 0.000000 " />
<path stroke-linejoin="round" stroke-linecap="round" stroke="rgb(255,0,0)" stroke-width="3.749996" fill="none" d="M 43.666920 70.736916 L 44.211052 72.097244 " />
<path stroke-linejoin="round" stroke-linecap="round" stroke="rgb(0,0,255)" stroke-width="1.874998" fill="none" d="M 0.000000 750.000000 L 45.302017 0.000000 " />
<path stroke-linejoin="round" stroke-linecap="round" stroke="rgb(255,0,0)" stroke-width="3.749996" fill="none" d="M 41.687050 59.847729 L 43.666920 70.736916 " />
<path stroke-linejoin="round" stroke-linecap="round" stroke="rgb(0,0,255)" stroke-width="1.874998" fill="none" d="M 0.000000 750.000000 L 44.776127 0.000000 " />
<path stroke-linejoin="round" stroke-linecap="round" stroke="rgb(255,0,0)" stroke-width="3.749996" fill="none" d="M 41.265965 58.795006 L 41.687050 59.847771 " />
<path stroke-linejoin="round" stroke-linecap="round" stroke="rgb(0,0,255)" stroke-width="1.874998" fill="none" d="M 0.000000 750.000000 L 44.117645 0.000000 " />
<path stroke-linejoin="round" stroke-linecap="round" stroke="rgb(255,0,0)" stroke-width="3.749996" fill="none" d="M 40.736919 57.472408 L 41.265965 58.795006 " />
<path stroke-linejoin="round" stroke-linecap="round" stroke="rgb(0,0,255)" stroke-width="1.874998" fill="none" d="M 0.000000 750.000000 L 36.971836 0.000000 " />
<path stroke-linejoin="round" stroke-linecap="round" stroke="rgb(255,0,0)" stroke-width="3.749996" fill="none" d="M 35.057365 38.836285 L 40.736919 57.472454 " />
<path stroke-linejoin="round" stroke-linecap="round" stroke="rgb(0,0,255)" stroke-width="1.874998" fill="none" d="M 0.000000 750.000000 L 31.468525 0.000000 " />
<path stroke-linejoin="round" stroke-linecap="round" stroke="rgb(255,0,0)" stroke-width="3.749996" fill="none" d="M 30.088104 32.900288 L 35.057365 38.836330 " />
<path stroke-linejoin="round" stroke-linecap="round" stroke="rgb(0,0,255)" stroke-width="1.874998" fill="none" d="M 0.000000 750.000000 L 26.041656 0.000000 " />
<path stroke-linejoin="round" stroke-linecap="round" stroke="rgb(255,0,0)" stroke-width="3.749996" fill="none" d="M 25.097340 27.196438 L 30.088104 32.900288 " />
<path stroke-linejoin="round" stroke-linecap="round" stroke="rgb(0,0,255)" stroke-width="1.874998" fill="none" d="M 0.000000 750.000000 L 20.689667 0.000000 " />
<path stroke-linejoin="round" stroke-linecap="round" stroke="rgb(255,0,0)" stroke-width="3.749996" fill="none" d="M 20.092093 21.661966 L 25.097340 27.196392 " />
<path stroke-linejoin="round" stroke-linecap="round" stroke="rgb(0,0,255)" stroke-width="1.874998" fill="none" d="M 0.000000 750.000000 L 20.408169 0.000000 " />
<path stroke-linejoin="round" stroke-linecap="round" stroke="rgb(255,0,0)" stroke-width="3.749996" fill="none" d="M 19.836143 21.022125 L 20.092093 21.662012 " />
<path stroke-linejoin="round" stroke-linecap="round" stroke="rgb(0,0,255)" stroke-width="1.874998" fill="none" d="M 0.000000 750.000000 L 20.134226 0.000000 " />
<path stroke-linejoin="round" stroke-linecap="round" stroke="rgb(255,0,0)" stroke-width="3.749996" fill="none" d="M 19.585356 20.445629 L 19.836143 21.022171 " />
<path stroke-linejoin="round" stroke-linecap="round" stroke="rgb(0,0,255)" stroke-width="1.874998" fill="none" d="M 0.000000 750.000000 L 19.867546 0.000000 " />
<path stroke-linejoin="round" stroke-linecap="round" stroke="rgb(255,0,0)" stroke-width="3.749996" fill="none" d="M 19.338570 19.968643 L 19.585356 20.445629 " />
<path stroke-linejoin="round" stroke-linecap="round" stroke="rgb(0,0,255)" stroke-width="1.874998" fill="none" d="M 0.000000 750.000000 L 19.607841 0.000000 " />
<path stroke-linejoin="round" stroke-linecap="round" stroke="rgb(255,0,0)" stroke-width="3.749996" fill="none" d="M 19.096457 19.560904 L 19.338570 19.968643 " />
<path stroke-linejoin="round" stroke-linecap="round" stroke="rgb(0,0,255)" stroke-width="1.874998" fill="none" d="M 0.000000 750.000000 L 13.888881 0.000000 " />
<path stroke-linejoin="round" stroke-linecap="round" stroke="rgb(255,0,0)" stroke-width="3.749996" fill="none" d="M 13.634250 13.750211 L 19.096457 19.560904 " />
<path stroke-linejoin="round" stroke-linecap="round" stroke="rgb(0,0,255)" stroke-width="1.874998" fill="none" d="M 0.000000 750.000000 L 13.719522 0.000000 " />
<path stroke-linejoin="round" stroke-linecap="round" stroke="rgb(255,0,0)" stroke-width="3.749996" fill="none" d="M 13.472535 13.501167 L 13.634250 13.750211 " />
<path stroke-linejoin="round" stroke-linecap="round" stroke="rgb(0,0,255)" stroke-width="1.874998" fill="none" d="M 0.000000 750.000000 L 10.135129 0.000000 " />
<path stroke-linejoin="round" stroke-linecap="round" stroke="rgb(255,0,0)" stroke-width="3.749996" fill="none" d="M 9.999722 10.021225 L 13.472535 13.501167 " />
<path stroke-linejoin="round" stroke-linecap="round" stroke="rgb(0,0,255)" stroke-width="1.874998" fill="none" d="M 0.000000 750.000000 L 5.033567 0.000000 " />
<path stroke-linejoin="round" stroke-linecap="round" stroke="rgb(255,0,0)" stroke-width="3.749996" fill="none" d="M 4.999884 5.016178 L 9.999722 10.021269 " />
<path stroke-linejoin="round" stroke-linecap="round" stroke="rgb(0,0,255)" stroke-width="1.874998" fill="none" d="M 0.000000 750.000000 L 0.000000 0.000000 " />
<path stroke-linejoin="round" stroke-linecap="round" stroke="rgb(255,0,0)" stroke-width="3.749996" fill="none" d="M 0.000000 0.000000 L 4.999884 5.016178 " />
<circle cx="181.034468" cy="704.741389" r="3.749996" style="fill:rgb(0,127,0);stroke-width:1" /><circle cx="178.986579" cy="693.477921" r="3.749996" style="fill:rgb(0,127,0);stroke-width:1" /><circle cx="177.381322" cy="684.649006" r="3.749996" style="fill:rgb(0,127,0);stroke-width:1" /><circle cx="170.798622" cy="648.444057" r="3.749996" style="fill:rgb(0,127,0);stroke-width:1" /><circle cx="170.500159" cy="646.802545" r="3.749996" style="fill:rgb(0,127,0);stroke-width:1" /><circle cx="168.045491" cy="633.301757" r="3.749996" style="fill:rgb(0,127,0);stroke-width:1" /><circle cx="166.551769" cy="625.086173" r="3.749996" style="fill:rgb(0,127,0);stroke-width:1" /><circle cx="165.229931" cy="617.816046" r="3.749996" style="fill:rgb(0,127,0);stroke-width:1" /><circle cx="165.084377" cy="617.015362" r="3.749996" style="fill:rgb(0,127,0);stroke-width:1" /><circle cx="162.225768" cy="601.293057" r="3.749996" style="fill:rgb(0,127,0);stroke-width:1" /><circle cx="159.402832" cy="585.766800" r="3.749996" style="fill:rgb(0,127,0);stroke-width:1" /><circle cx="158.001132" cy="578.057595" r="3.749996" style="fill:rgb(0,127,0);stroke-width:1" /><circle cx="156.497978" cy="569.790199" r="3.749996" style="fill:rgb(0,127,0);stroke-width:1" /><circle cx="155.229181" cy="562.811852" r="3.749996" style="fill:rgb(0,127,0);stroke-width:1" /><circle cx="155.084923" cy="562.018275" r="3.749996" style="fill:rgb(0,127,0);stroke-width:1" /><circle cx="153.879382" cy="555.387832" r="3.749996" style="fill:rgb(0,127,0);stroke-width:1" /><circle cx="151.856057" cy="544.259526" r="3.749996" style="fill:rgb(0,127,0);stroke-width:1" /><circle cx="150.725618" cy="538.042098" r="3.749996" style="fill:rgb(0,127,0);stroke-width:1" /><circle cx="149.373829" cy="530.607194" r="3.749996" style="fill:rgb(0,127,0);stroke-width:1" /><circle cx="148.046046" cy="523.304500" r="3.749996" style="fill:rgb(0,127,0);stroke-width:1" /><circle cx="143.909968" cy="500.556059" r="3.749996" style="fill:rgb(0,127,0);stroke-width:1" /><circle cx="140.734345" cy="483.090051" r="3.749996" style="fill:rgb(0,127,0);stroke-width:1" /><circle cx="140.037954" cy="479.259968" r="3.749996" style="fill:rgb(0,127,0);stroke-width:1" /><circle cx="138.793163" cy="472.413674" r="3.749996" style="fill:rgb(0,127,0);stroke-width:1" /><circle cx="136.904821" cy="462.027781" r="3.749996" style="fill:rgb(0,127,0);stroke-width:1" /><circle cx="135.674223" cy="455.259472" r="3.749996" style="fill:rgb(0,127,0);stroke-width:1" /><circle cx="133.739680" cy="450.423136" r="3.749996" style="fill:rgb(0,127,0);stroke-width:1" /><circle cx="131.519929" cy="444.873758" r="3.749996" style="fill:rgb(0,127,0);stroke-width:1" /><circle cx="130.898193" cy="441.454232" r="3.749996" style="fill:rgb(0,127,0);stroke-width:1" /><circle cx="129.718937" cy="434.968293" r="3.749996" style="fill:rgb(0,127,0);stroke-width:1" /><circle cx="128.560737" cy="428.598158" r="3.749996" style="fill:rgb(0,127,0);stroke-width:1" /><circle cx="126.510814" cy="417.323448" r="3.749996" style="fill:rgb(0,127,0);stroke-width:1" /><circle cx="126.305312" cy="416.193143" r="3.749996" style="fill:rgb(0,127,0);stroke-width:1" /><circle cx="126.135059" cy="415.256940" r="3.749996" style="fill:rgb(0,127,0);stroke-width:1" /><circle cx="122.062057" cy="392.855465" r="3.749996" style="fill:rgb(0,127,0);stroke-width:1" /><circle cx="119.913161" cy="381.036445" r="3.749996" style="fill:rgb(0,127,0);stroke-width:1" /><circle cx="117.675751" cy="368.730605" r="3.749996" style="fill:rgb(0,127,0);stroke-width:1" /><circle cx="116.371170" cy="365.469217" r="3.749996" style="fill:rgb(0,127,0);stroke-width:1" /><circle cx="113.841355" cy="351.555258" r="3.749996" style="fill:rgb(0,127,0);stroke-width:1" /><circle cx="112.796947" cy="345.810995" r="3.749996" style="fill:rgb(0,127,0);stroke-width:1" /><circle cx="111.771494" cy="340.171158" r="3.749996" style="fill:rgb(0,127,0);stroke-width:1" /><circle cx="110.644922" cy="333.975077" r="3.749996" style="fill:rgb(0,127,0);stroke-width:1" /><circle cx="108.324811" cy="321.214333" r="3.749996" style="fill:rgb(0,127,0);stroke-width:1" /><circle cx="105.910823" cy="307.937443" r="3.749996" style="fill:rgb(0,127,0);stroke-width:1" /><circle cx="105.648614" cy="307.281956" r="3.749996" style="fill:rgb(0,127,0);stroke-width:1" /><circle cx="101.174086" cy="282.672063" r="3.749996" style="fill:rgb(0,127,0);stroke-width:1" /><circle cx="97.332850" cy="273.069039" r="3.749996" style="fill:rgb(0,127,0);stroke-width:1" /><circle cx="95.111847" cy="260.853410" r="3.749996" style="fill:rgb(0,127,0);stroke-width:1" /><circle cx="91.368042" cy="240.262538" r="3.749996" style="fill:rgb(0,127,0);stroke-width:1" /><circle cx="88.450044" cy="224.213585" r="3.749996" style="fill:rgb(0,127,0);stroke-width:1" /><circle cx="86.765282" cy="214.947402" r="3.749996" style="fill:rgb(0,127,0);stroke-width:1" /><circle cx="85.290335" cy="206.835240" r="3.749996" style="fill:rgb(0,127,0);stroke-width:1" /><circle cx="83.966397" cy="199.553668" r="3.749996" style="fill:rgb(0,127,0);stroke-width:1" /><circle cx="82.760520" cy="196.539000" r="3.749996" style="fill:rgb(0,127,0);stroke-width:1" /><circle cx="78.387871" cy="185.607389" r="3.749996" style="fill:rgb(0,127,0);stroke-width:1" /><circle cx="73.924094" cy="174.448058" r="3.749996" style="fill:rgb(0,127,0);stroke-width:1" /><circle cx="72.911449" cy="171.916410" r="3.749996" style="fill:rgb(0,127,0);stroke-width:1" /><circle cx="71.926162" cy="169.453248" r="3.749996" style="fill:rgb(0,127,0);stroke-width:1" /><circle cx="70.967138" cy="167.055756" r="3.749996" style="fill:rgb(0,127,0);stroke-width:1" /><circle cx="67.789480" cy="149.578840" r="3.749996" style="fill:rgb(0,127,0);stroke-width:1" /><circle cx="63.546874" cy="138.972268" r="3.749996" style="fill:rgb(0,127,0);stroke-width:1" /><circle cx="59.222683" cy="128.161758" r="3.749996" style="fill:rgb(0,127,0);stroke-width:1" /><circle cx="56.013577" cy="110.511705" r="3.749996" style="fill:rgb(0,127,0);stroke-width:1" /><circle cx="55.467099" cy="107.506067" r="3.749996" style="fill:rgb(0,127,0);stroke-width:1" /><circle cx="53.044237" cy="94.180271" r="3.749996" style="fill:rgb(0,127,0);stroke-width:1" /><circle cx="48.668548" cy="83.241060" r="3.749996" style="fill:rgb(0,127,0);stroke-width:1" /><circle cx="44.211052" cy="72.097287" r="3.749996" style="fill:rgb(0,127,0);stroke-width:1" /><circle cx="43.666922" cy="70.736915" r="3.749996" style="fill:rgb(0,127,0);stroke-width:1" /><circle cx="41.687049" cy="59.847727" r="3.749996" style="fill:rgb(0,127,0);stroke-width:1" /><circle cx="41.265965" cy="58.795005" r="3.749996" style="fill:rgb(0,127,0);stroke-width:1" /><circle cx="40.736921" cy="57.472408" r="3.749996" style="fill:rgb(0,127,0);stroke-width:1" /><circle cx="35.057366" cy="38.836285" r="3.749996" style="fill:rgb(0,127,0);stroke-width:1" /><circle cx="30.088104" cy="32.900289" r="3.749996" style="fill:rgb(0,127,0);stroke-width:1" /><circle cx="25.097340" cy="27.196437" r="3.749996" style="fill:rgb(0,127,0);stroke-width:1" /><circle cx="20.092092" cy="21.661967" r="3.749996" style="fill:rgb(0,127,0);stroke-width:1" /><circle cx="19.836143" cy="21.022126" r="3.749996" style="fill:rgb(0,127,0);stroke-width:1" /><circle cx="19.585356" cy="20.445630" r="3.749996" style="fill:rgb(0,127,0);stroke-width:1" /><circle cx="19.338571" cy="19.968644" r="3.749996" style="fill:rgb(0,127,0);stroke-width:1" /><circle cx="19.096456" cy="19.560903" r="3.749996" style="fill:rgb(0,127,0);stroke-width:1" /><circle cx="13.634250" cy="13.750210" r="3.749996" style="fill:rgb(0,127,0);stroke-width:1" /><circle cx="13.472535" cy="13.501167" r="3.749996" style="fill:rgb(0,127,0);stroke-width:1" /><circle cx="9.999722" cy="10.021225" r="3.749996" style="fill:rgb(0,127,0);stroke-width:1" /><circle cx="4.999883" cy="5.016178" r="3.749996" style="fill:rgb(0,127,0);stroke-width:1" /><circle cx="750.000000" cy="750.000000" r="3.749996" style="fill:rgb(0,127,0);stroke-width:1" /><path stroke-linejoin="round" stroke-linecap="round" stroke="rgb(255,255,255)" stroke-width="3.749996" fill="none" d="M 0.000000 750.000000 L 750.000000 750.000000 M 0.000000 750.000000 L 0.000000 0.000000 " />

</svg>