<svg xmlns="http://www.w3.org/2000/svg" version="1.1" width = "750" height = "750" viewBox = "0 0 750 750"  shape-rendering="crispEdges">
<path stroke-linejoin="round" stroke-linecap="round" stroke="rgb(255,255,0)" stroke-width="3.749996" fill="none" d="M 74.999992 750.000000 L 0.000000 0.000000 " />
<path stroke-linejoin="round" stroke-linecap="round" stroke="rgb(63,63,63)" stroke-width="3.749996" fill="none" d="M 0.000000 0.000000 L 750.000000 750.000000 M 74.999992 750.000000 L 35.526306 0.000000 " />
<path stroke-linejoin="round" stroke-linecap="round" stroke="rgb(191,191,191)" stroke-width="3.749996" fill="none" d="M 0.000000 675.000000 L 74.999992 750.000000 M 0.000000 0.000000 L 39.473690 750.000000 " />
<path stroke-linejoin="round" stroke-linecap="round" stroke="rgb(0,0,255)" stroke-width="1.874998" fill="none" d="M 0.000000 750.000000 L 750.000000 579.545410 " />
<path stroke-linejoin="round" stroke-linecap="round" stroke="rgb(255,0,0)" stroke-width="3.749996" fill="none" d="M 74.113480 733.156006 L 74.999992 750.000000 " />
<path stroke-linejoin="round" stroke-linecap="round" stroke="rgb(0,0,255)" stroke-width="1.874998" fill="none" d="M 0.000000 750.000000 L 750.000000 405.405426 " />
<path stroke-linejoin="round" stroke-linecap="round" stroke="rgb(255,0,0)" stroke-width="3.749996" fill="none" d="M 73.229156 716.354187 L 74.113480 733.156006 " />
<path stroke-linejoin="round" stroke-linecap="round" stroke="rgb(0,0,255)" stroke-width="1.874998" fill="none" d="M 0.000000 750.000000 L 750.000000 187.500000 " />
<path stroke-linejoin="round" stroke-linecap="round" stroke="rgb(255,0,0)" stroke-width="3.749996" fill="none" d="M 72.151894 695.886047 L 73.229156 716.354187 " />
<path stroke-linejoin="round" stroke-linecap="round" stroke="rgb(0,0,255)" stroke-width="1.874998" fill="none" d="M 0.000000 750.000000 L 750.000000 182.432419 " />
<path stroke-linejoin="round" stroke-linecap="round" stroke="rgb(255,0,0)" stroke-width="3.749996" fill="none" d="M 72.127213 695.417236 L 72.151894 695.886047 " />
<path stroke-linejoin="round" stroke-linecap="round" stroke="rgb(0,0,255)" stroke-width="1.874998" fill="none" d="M 0.000000 750.000000 L 750.000000 110.294136 " />
<path stroke-linejoin="round" stroke-linecap="round" stroke="rgb(255,0,0)" stroke-width="3.749996" fill="none" d="M 71.777771 688.777771 L 72.127213 695.417236 " />
<path stroke-linejoin="round" stroke-linecap="round" stroke="rgb(0,0,255)" stroke-width="1.874998" fill="none" d="M 0.000000 750.000000 L 727.941223 0.000000 " />
<path stroke-linejoin="round" stroke-linecap="round" stroke="rgb(255,0,0)" stroke-width="3.749996" fill="none" d="M 71.142197 676.701965 L 71.777771 688.777771 " />
<path stroke-linejoin="round" stroke-linecap="round" stroke="rgb(0,0,255)" stroke-width="1.874998" fill="none" d="M 0.000000 750.000000 L 642.857178 0.000000 " />
<path stroke-linejoin="round" stroke-linecap="round" stroke="rgb(255,0,0)" stroke-width="3.749996" fill="none" d="M 70.661140 667.562012 L 71.142197 676.702026 " />
<path stroke-linejoin="round" stroke-linecap="round" stroke="rgb(0,0,255)" stroke-width="1.874998" fill="none" d="M 0.000000 750.000000 L 516.666626 0.000000 " />
<path stroke-linejoin="round" stroke-linecap="round" stroke="rgb(255,0,0)" stroke-width="3.749996" fill="none" d="M 69.676636 648.856506 L 70.661140 667.562012 " />
<path stroke-linejoin="round" stroke-linecap="round" stroke="rgb(0,0,255)" stroke-width="1.874998" fill="none" d="M 0.000000 750.000000 L 489.130463 0.000000 " />
<path stroke-linejoin="round" stroke-linecap="round" stroke="rgb(255,0,0)" stroke-width="3.749996" fill="none" d="M 69.399345 643.587708 L 69.676636 648.856506 " />
<path stroke-linejoin="round" stroke-linecap="round" stroke="rgb(0,0,255)" stroke-width="1.874998" fill="none" d="M 0.000000 750.000000 L 462.765961 0.000000 " />
<path stroke-linejoin="round" stroke-linecap="round" stroke="rgb(255,0,0)" stroke-width="3.749996" fill="none" d="M 69.105324 638.001709 L 69.399345 643.587708 " />
<path stroke-linejoin="round" stroke-linecap="round" stroke="rgb(0,0,255)" stroke-width="1.874998" fill="none" d="M 0.000000 750.000000 L 443.877563 0.000000 " />
<path stroke-linejoin="round" stroke-linecap="round" stroke="rgb(255,0,0)" stroke-width="3.749996" fill="none" d="M 68.874969 633.625000 L 69.105324 638.001709 " />
<path stroke-linejoin="round" stroke-linecap="round" stroke="rgb(0,0,255)" stroke-width="1.874998" fill="none" d="M 0.000000 750.000000 L 426.470551 0.000000 " />
<path stroke-linejoin="round" stroke-linecap="round" stroke="rgb(255,0,0)" stroke-width="3.749996" fill="none" d="M 68.646156 629.277466 L 68.874969 633.625000 " />
<path stroke-linejoin="round" stroke-linecap="round" stroke="rgb(0,0,255)" stroke-width="1.874998" fill="none" d="M 0.000000 750.000000 L 375.000000 0.000000 " />
<path stroke-linejoin="round" stroke-linecap="round" stroke="rgb(255,0,0)" stroke-width="3.749996" fill="none" d="M 67.857117 614.285767 L 68.646156 629.277466 " />
<path stroke-linejoin="round" stroke-linecap="round" stroke="rgb(0,0,255)" stroke-width="1.874998" fill="none" d="M 0.000000 750.000000 L 326.612915 0.000000 " />
<path stroke-linejoin="round" stroke-linecap="round" stroke="rgb(255,0,0)" stroke-width="3.749996" fill="none" d="M 66.913025 596.347839 L 67.857117 614.285767 " />
<path stroke-linejoin="round" stroke-linecap="round" stroke="rgb(0,0,255)" stroke-width="1.874998" fill="none" d="M 0.000000 750.000000 L 309.523804 0.000000 " />
<path stroke-linejoin="round" stroke-linecap="round" stroke="rgb(255,0,0)" stroke-width="3.749996" fill="none" d="M 66.517036 588.824158 L 66.913025 596.347839 " />
<path stroke-linejoin="round" stroke-linecap="round" stroke="rgb(0,0,255)" stroke-width="1.874998" fill="none" d="M 0.000000 750.000000 L 292.968750 0.000000 " />
<path stroke-linejoin="round" stroke-linecap="round" stroke="rgb(255,0,0)" stroke-width="3.749996" fill="none" d="M 66.094589 580.797852 L 66.517036 588.824158 " />
<path stroke-linejoin="round" stroke-linecap="round" stroke="rgb(0,0,255)" stroke-width="1.874998" fill="none" d="M 0.000000 750.000000 L 284.090912 0.000000 " />
<path stroke-linejoin="round" stroke-linecap="round" stroke="rgb(255,0,0)" stroke-width="3.749996" fill="none" d="M 65.850266 576.155334 L 66.094589 580.797852 " />
<path stroke-linejoin="round" stroke-linecap="round" stroke="rgb(0,0,255)" stroke-width="1.874998" fill="none" d="M 0.000000 750.000000 L 253.676468 0.000000 " />
<path stroke-linejoin="round" stroke-linecap="round" stroke="rgb(255,0,0)" stroke-width="3.749996" fill="none" d="M 64.900963 558.118896 L 65.850266 576.155334 " />
<path stroke-linejoin="round" stroke-linecap="round" stroke="rgb(0,0,255)" stroke-width="1.874998" fill="none" d="M 0.000000 750.000000 L 217.391296 0.000000 " />
<path stroke-linejoin="round" stroke-linecap="round" stroke="rgb(255,0,0)" stroke-width="3.749996" fill="none" d="M 63.474365 531.013489 L 64.900963 558.118896 " />
<path stroke-linejoin="round" stroke-linecap="round" stroke="rgb(0,0,255)" stroke-width="1.874998" fill="none" d="M 0.000000 750.000000 L 199.367096 0.000000 " />
<path stroke-linejoin="round" stroke-linecap="round" stroke="rgb(255,0,0)" stroke-width="3.749996" fill="none" d="M 62.604568 514.487549 L 63.474365 531.013489 " />
<path stroke-linejoin="round" stroke-linecap="round" stroke="rgb(0,0,255)" stroke-width="1.874998" fill="none" d="M 0.000000 750.000000 L 187.500000 0.000000 " />
<path stroke-linejoin="round" stroke-linecap="round" stroke="rgb(255,0,0)" stroke-width="3.749996" fill="none" d="M 61.956482 502.174042 L 62.604568 514.487549 " />
<path stroke-linejoin="round" stroke-linecap="round" stroke="rgb(0,0,255)" stroke-width="1.874998" fill="none" d="M 0.000000 750.000000 L 182.926834 0.000000 " />
<path stroke-linejoin="round" stroke-linecap="round" stroke="rgb(255,0,0)" stroke-width="3.749996" fill="none" d="M 61.688282 497.078064 L 61.956482 502.174042 " />
<path stroke-linejoin="round" stroke-linecap="round" stroke="rgb(0,0,255)" stroke-width="1.874998" fill="none" d="M 0.000000 750.000000 L 172.297302 0.000000 " />
<path stroke-linejoin="round" stroke-linecap="round" stroke="rgb(255,0,0)" stroke-width="3.749996" fill="none" d="M 58.773346 494.163116 L 61.688282 497.078064 " />
<path stroke-linejoin="round" stroke-linecap="round" stroke="rgb(0,0,255)" stroke-width="1.874998" fill="none" d="M 0.000000 750.000000 L 142.857132 0.000000 " />
<path stroke-linejoin="round" stroke-linecap="round" stroke="rgb(255,0,0)" stroke-width="3.749996" fill="none" d="M 56.599194 452.854279 L 58.773323 494.163116 " />
<path stroke-linejoin="round" stroke-linecap="round" stroke="rgb(0,0,255)" stroke-width="1.874998" fill="none" d="M 0.000000 750.000000 L 132.352936 0.000000 " />
<path stroke-linejoin="round" stroke-linecap="round" stroke="rgb(255,0,0)" stroke-width="3.749996" fill="none" d="M 53.061737 449.316864 L 56.599194 452.854279 " />
<path stroke-linejoin="round" stroke-linecap="round" stroke="rgb(0,0,255)" stroke-width="1.874998" fill="none" d="M 0.000000 750.000000 L 122.093040 0.000000 " />
<path stroke-linejoin="round" stroke-linecap="round" stroke="rgb(255,0,0)" stroke-width="3.749996" fill="none" d="M 49.524284 445.779388 L 53.061737 449.316864 " />
<path stroke-linejoin="round" stroke-linecap="round" stroke="rgb(0,0,255)" stroke-width="1.874998" fill="none" d="M 0.000000 750.000000 L 119.318176 0.000000 " />
<path stroke-linejoin="round" stroke-linecap="round" stroke="rgb(255,0,0)" stroke-width="3.749996" fill="none" d="M 48.553215 444.808319 L 49.524284 445.779388 " />
<path stroke-linejoin="round" stroke-linecap="round" stroke="rgb(0,0,255)" stroke-width="1.874998" fill="none" d="M 0.000000 750.000000 L 111.111115 0.000000 " />
<path stroke-linejoin="round" stroke-linecap="round" stroke="rgb(255,0,0)" stroke-width="3.749996" fill="none" d="M 45.644493 441.899628 L 48.553215 444.808319 " />
<path stroke-linejoin="round" stroke-linecap="round" stroke="rgb(0,0,255)" stroke-width="1.874998" fill="none" d="M 0.000000 750.000000 L 108.433754 0.000000 " />
<path stroke-linejoin="round" stroke-linecap="round" stroke="rgb(255,0,0)" stroke-width="3.749996" fill="none" d="M 44.683567 440.938660 L 45.644493 441.899628 " />
<path stroke-linejoin="round" stroke-linecap="round" stroke="rgb(0,0,255)" stroke-width="1.874998" fill="none" d="M 0.000000 750.000000 L 97.826088 0.000000 " />
<path stroke-linejoin="round" stroke-linecap="round" stroke="rgb(255,0,0)" stroke-width="3.749996" fill="none" d="M 43.426842 417.060883 L 44.683567 440.938660 " />
<path stroke-linejoin="round" stroke-linecap="round" stroke="rgb(0,0,255)" stroke-width="1.874998" fill="none" d="M 0.000000 750.000000 L 88.709679 0.000000 " />
<path stroke-linejoin="round" stroke-linecap="round" stroke="rgb(255,0,0)" stroke-width="3.749996" fill="none" d="M 39.807938 413.441956 L 43.426842 417.060852 " />
<path stroke-linejoin="round" stroke-linecap="round" stroke="rgb(0,0,255)" stroke-width="1.874998" fill="none" d="M 0.000000 750.000000 L 79.787224 0.000000 " />
<path stroke-linejoin="round" stroke-linecap="round" stroke="rgb(255,0,0)" stroke-width="3.749996" fill="none" d="M 36.189034 409.823029 L 39.807938 413.441956 " />
<path stroke-linejoin="round" stroke-linecap="round" stroke="rgb(0,0,255)" stroke-width="1.874998" fill="none" d="M 0.000000 750.000000 L 78.124992 0.000000 " />
<path stroke-linejoin="round" stroke-linecap="round" stroke="rgb(255,0,0)" stroke-width="3.749996" fill="none" d="M 35.506233 409.140198 L 36.189034 409.823029 " />
<path stroke-linejoin="round" stroke-linecap="round" stroke="rgb(0,0,255)" stroke-width="1.874998" fill="none" d="M 0.000000 750.000000 L 76.530617 0.000000 " />
<path stroke-linejoin="round" stroke-linecap="round" stroke="rgb(255,0,0)" stroke-width="3.749996" fill="none" d="M 34.848713 408.482635 L 35.506233 409.140198 " />
<path stroke-linejoin="round" stroke-linecap="round" stroke="rgb(0,0,255)" stroke-width="1.874998" fill="none" d="M 0.000000 750.000000 L 74.999992 0.000000 " />
<path stroke-linejoin="round" stroke-linecap="round" stroke="rgb(255,0,0)" stroke-width="3.749996" fill="none" d="M 34.215107 407.849060 L 34.848713 408.482635 " />
<path stroke-linejoin="round" stroke-linecap="round" stroke="rgb(0,0,255)" stroke-width="1.874998" fill="none" d="M 0.000000 750.000000 L 71.428566 0.000000 " />
<path stroke-linejoin="round" stroke-linecap="round" stroke="rgb(255,0,0)" stroke-width="3.749996" fill="none" d="M 32.727486 406.361420 L 34.215107 407.849060 " />
<path stroke-linejoin="round" stroke-linecap="round" stroke="rgb(0,0,255)" stroke-width="1.874998" fill="none" d="M 0.000000 750.000000 L 70.093452 0.000000 " />
<path stroke-linejoin="round" stroke-linecap="round" stroke="rgb(255,0,0)" stroke-width="3.749996" fill="none" d="M 32.168045 405.802002 L 32.727486 406.361420 " />
<path stroke-linejoin="round" stroke-linecap="round" stroke="rgb(0,0,255)" stroke-width="1.874998" fill="none" d="M 0.000000 750.000000 L 64.655159 0.000000 " />
<path stroke-linejoin="round" stroke-linecap="round" stroke="rgb(255,0,0)" stroke-width="3.749996" fill="none" d="M 31.221918 387.825684 L 32.168045 405.802002 " />
<path stroke-linejoin="round" stroke-linecap="round" stroke="rgb(0,0,255)" stroke-width="1.874998" fill="none" d="M 0.000000 750.000000 L 57.692303 0.000000 " />
<path stroke-linejoin="round" stroke-linecap="round" stroke="rgb(255,0,0)" stroke-width="3.749996" fill="none" d="M 28.099716 384.703552 L 31.221918 387.825684 " />
<path stroke-linejoin="round" stroke-linecap="round" stroke="rgb(0,0,255)" stroke-width="1.874998" fill="none" d="M 0.000000 750.000000 L 50.847462 0.000000 " />
<path stroke-linejoin="round" stroke-linecap="round" stroke="rgb(255,0,0)" stroke-width="3.749996" fill="none" d="M 24.977535 381.581390 L 28.099716 384.703613 " />
<path stroke-linejoin="round" stroke-linecap="round" stroke="rgb(0,0,255)" stroke-width="1.874998" fill="none" d="M 0.000000 750.000000 L 50.420166 0.000000 " />
<path stroke-linejoin="round" stroke-linecap="round" stroke="rgb(255,0,0)" stroke-width="3.749996" fill="none" d="M 24.780863 381.384735 L 24.977535 381.581421 " />
<path stroke-linejoin="round" stroke-linecap="round" stroke="rgb(0,0,255)" stroke-width="1.874998" fill="none" d="M 0.000000 750.000000 L 43.750004 0.000000 " />
<path stroke-linejoin="round" stroke-linecap="round" stroke="rgb(255,0,0)" stroke-width="3.749996" fill="none" d="M 21.683247 378.287079 L 24.780863 381.384735 " />
<path stroke-linejoin="round" stroke-linecap="round" stroke="rgb(0,0,255)" stroke-width="1.874998" fill="none" d="M 0.000000 750.000000 L 34.615383 0.000000 " />
<path stroke-linejoin="round" stroke-linecap="round" stroke="rgb(255,0,0)" stroke-width="3.749996" fill="none" d="M 19.271179 332.457733 L 21.683247 378.287079 " />
<path stroke-linejoin="round" stroke-linecap="round" stroke="rgb(0,0,255)" stroke-width="1.874998" fill="none" d="M 0.000000 750.000000 L 31.914890 0.000000 " />
<path stroke-linejoin="round" stroke-linecap="round" stroke="rgb(255,0,0)" stroke-width="3.749996" fill="none" d="M 18.439875 316.662903 L 19.271179 332.457733 " />
<path stroke-linejoin="round" stroke-linecap="round" stroke="rgb(0,0,255)" stroke-width="1.874998" fill="none" d="M 0.000000 750.000000 L 29.999994 0.000000 " />
<path stroke-linejoin="round" stroke-linecap="round" stroke="rgb(255,0,0)" stroke-width="3.749996" fill="none" d="M 17.811255 304.718933 L 18.439875 316.662903 " />
<path stroke-linejoin="round" stroke-linecap="round" stroke="rgb(0,0,255)" stroke-width="1.874998" fill="none" d="M 0.000000 750.000000 L 24.509802 0.000000 " />
<path stroke-linejoin="round" stroke-linecap="round" stroke="rgb(255,0,0)" stroke-width="3.749996" fill="none" d="M 15.800290 266.510895 L 17.811255 304.718933 " />
<path stroke-linejoin="round" stroke-linecap="round" stroke="rgb(0,0,255)" stroke-width="1.874998" fill="none" d="M 0.000000 750.000000 L 18.404917 0.000000 " />
<path stroke-linejoin="round" stroke-linecap="round" stroke="rgb(255,0,0)" stroke-width="3.749996" fill="none" d="M 13.116225 215.513641 L 15.800290 266.510895 " />
<path stroke-linejoin="round" stroke-linecap="round" stroke="rgb(0,0,255)" stroke-width="1.874998" fill="none" d="M 0.000000 750.000000 L 17.241373 0.000000 " />
<path stroke-linejoin="round" stroke-linecap="round" stroke="rgb(255,0,0)" stroke-width="3.749996" fill="none" d="M 12.539126 204.548431 L 13.116225 215.513641 " />
<path stroke-linejoin="round" stroke-linecap="round" stroke="rgb(0,0,255)" stroke-width="1.874998" fill="none" d="M 0.000000 750.000000 L 17.045460 0.000000 " />
<path stroke-linejoin="round" stroke-linecap="round" stroke="rgb(255,0,0)" stroke-width="3.749996" fill="none" d="M 12.439593 202.657593 L 12.539126 204.548431 " />
<path stroke-linejoin="round" stroke-linecap="round" stroke="rgb(0,0,255)" stroke-width="1.874998" fill="none" d="M 0.000000 750.000000 L 16.042784 0.000000 " />
<path stroke-linejoin="round" stroke-linecap="round" stroke="rgb(255,0,0)" stroke-width="3.749996" fill="none" d="M 11.919312 192.772110 L 12.439593 202.657593 " />
<path stroke-linejoin="round" stroke-linecap="round" stroke="rgb(0,0,255)" stroke-width="1.874998" fill="none" d="M 0.000000 750.000000 L 15.463919 0.000000 " />
<path stroke-linejoin="round" stroke-linecap="round" stroke="rgb(255,0,0)" stroke-width="3.749996" fill="none" d="M 11.610299 186.900757 L 11.919312 192.772110 " />
<path stroke-linejoin="round" stroke-linecap="round" stroke="rgb(0,0,255)" stroke-width="1.874998" fill="none" d="M 0.000000 750.000000 L 15.151508 0.000000 " />
<path stroke-linejoin="round" stroke-linecap="round" stroke="rgb(255,0,0)" stroke-width="3.749996" fill="none" d="M 11.440806 183.680405 L 11.610299 186.900757 " />
<path stroke-linejoin="round" stroke-linecap="round" stroke="rgb(0,0,255)" stroke-width="1.874998" fill="none" d="M 0.000000 750.000000 L 15.000008 0.000000 " />
<path stroke-linejoin="round" stroke-linecap="round" stroke="rgb(255,0,0)" stroke-width="3.749996" fill="none" d="M 11.357903 182.105225 L 11.440806 183.680405 " />
<path stroke-linejoin="round" stroke-linecap="round" stroke="rgb(0,0,255)" stroke-width="1.874998" fill="none" d="M 0.000000 750.000000 L 14.492758 0.000000 " />
<path stroke-linejoin="round" stroke-linecap="round" stroke="rgb(255,0,0)" stroke-width="3.749996" fill="none" d="M 11.076964 176.767456 L 11.357903 182.105255 " />
<path stroke-linejoin="round" stroke-linecap="round" stroke="rgb(0,0,255)" stroke-width="1.874998" fill="none" d="M 0.000000 750.000000 L 12.711861 0.000000 " />
<path stroke-linejoin="round" stroke-linecap="round" stroke="rgb(255,0,0)" stroke-width="3.749996" fill="none" d="M 9.738498 175.428986 L 11.076964 176.767471 " />
<path stroke-linejoin="round" stroke-linecap="round" stroke="rgb(0,0,255)" stroke-width="1.874998" fill="none" d="M 0.000000 750.000000 L 8.021392 0.000000 " />
<path stroke-linejoin="round" stroke-linecap="round" stroke="rgb(255,0,0)" stroke-width="3.749996" fill="none" d="M 6.752014 118.686028 L 9.738498 175.428986 " />
<path stroke-linejoin="round" stroke-linecap="round" stroke="rgb(0,0,255)" stroke-width="1.874998" fill="none" d="M 0.000000 750.000000 L 3.989361 0.000000 " />
<path stroke-linejoin="round" stroke-linecap="round" stroke="rgb(255,0,0)" stroke-width="3.749996" fill="none" d="M 3.623195 68.840569 L 6.752014 118.686028 " />
<path stroke-linejoin="round" stroke-linecap="round" stroke="rgb(0,0,255)" stroke-width="1.874998" fill="none" d="M 0.000000 750.000000 L 0.000000 0.000000 " />
<path stroke-linejoin="round" stroke-linecap="round" stroke="rgb(255,0,0)" stroke-width="3.749996" fill="none" d="M 0.000000 0.000000 L 3.623195 68.840569 " />
<circle cx="74.113481" cy="733.156018" r="3.749996" style="fill:rgb(0,127,0);stroke-width:1" /><circle cx="73.229156" cy="716.354169" r="3.749996" style="fill:rgb(0,127,0);stroke-width:1" /><circle cx="72.151892" cy="695.886075" r="3.749996" style="fill:rgb(0,127,0);stroke-width:1" /><circle cx="72.127216" cy="695.417225" r="3.749996" style="fill:rgb(0,127,0);stroke-width:1" /><circle cx="71.777768" cy="688.777775" r="3.749996" style="fill:rgb(0,127,0);stroke-width:1" /><circle cx="71.142197" cy="676.701978" r="3.749996" style="fill:rgb(0,127,0);stroke-width:1" /><circle cx="70.661142" cy="667.561993" r="3.749996" style="fill:rgb(0,127,0);stroke-width:1" /><circle cx="69.676638" cy="648.856491" r="3.749996" style="fill:rgb(0,127,0);stroke-width:1" /><circle cx="69.399342" cy="643.587694" r="3.749996" style="fill:rgb(0,127,0);stroke-width:1" /><circle cx="69.105327" cy="638.001703" r="3.749996" style="fill:rgb(0,127,0);stroke-width:1" /><circle cx="68.874970" cy="633.625031" r="3.749996" style="fill:rgb(0,127,0);stroke-width:1" /><circle cx="68.646155" cy="629.277438" r="3.749996" style="fill:rgb(0,127,0);stroke-width:1" /><circle cx="67.857116" cy="614.285745" r="3.749996" style="fill:rgb(0,127,0);stroke-width:1" /><circle cx="66.913024" cy="596.347891" r="3.749996" style="fill:rgb(0,127,0);stroke-width:1" /><circle cx="66.517040" cy="588.824138" r="3.749996" style="fill:rgb(0,127,0);stroke-width:1" /><circle cx="66.094592" cy="580.797829" r="3.749996" style="fill:rgb(0,127,0);stroke-width:1" /><circle cx="65.850265" cy="576.155327" r="3.749996" style="fill:rgb(0,127,0);stroke-width:1" /><circle cx="64.900964" cy="558.118880" r="3.749996" style="fill:rgb(0,127,0);stroke-width:1" /><circle cx="63.474365" cy="531.013437" r="3.749996" style="fill:rgb(0,127,0);stroke-width:1" /><circle cx="62.604569" cy="514.487565" r="3.749996" style="fill:rgb(0,127,0);stroke-width:1" /><circle cx="61.956480" cy="502.174046" r="3.749996" style="fill:rgb(0,127,0);stroke-width:1" /><circle cx="61.688282" cy="497.078061" r="3.749996" style="fill:rgb(0,127,0);stroke-width:1" /><circle cx="58.773346" cy="494.163126" r="3.749996" style="fill:rgb(0,127,0);stroke-width:1" /><circle cx="56.599192" cy="452.854279" r="3.749996" style="fill:rgb(0,127,0);stroke-width:1" /><circle cx="53.061739" cy="449.316859" r="3.749996" style="fill:rgb(0,127,0);stroke-width:1" /><circle cx="49.524285" cy="445.779383" r="3.749996" style="fill:rgb(0,127,0);stroke-width:1" /><circle cx="48.553213" cy="444.808317" r="3.749996" style="fill:rgb(0,127,0);stroke-width:1" /><circle cx="45.644492" cy="441.899624" r="3.749996" style="fill:rgb(0,127,0);stroke-width:1" /><circle cx="44.683568" cy="440.938678" r="3.749996" style="fill:rgb(0,127,0);stroke-width:1" /><circle cx="43.426841" cy="417.060865" r="3.749996" style="fill:rgb(0,127,0);stroke-width:1" /><circle cx="39.807938" cy="413.441956" r="3.749996" style="fill:rgb(0,127,0);stroke-width:1" /><circle cx="36.189035" cy="409.823013" r="3.749996" style="fill:rgb(0,127,0);stroke-width:1" /><circle cx="35.506234" cy="409.140193" r="3.749996" style="fill:rgb(0,127,0);stroke-width:1" /><circle cx="34.848712" cy="408.482658" r="3.749996" style="fill:rgb(0,127,0);stroke-width:1" /><circle cx="34.215108" cy="407.849050" r="3.749996" style="fill:rgb(0,127,0);stroke-width:1" /><circle cx="32.727487" cy="406.361424" r="3.749996" style="fill:rgb(0,127,0);stroke-width:1" /><circle cx="32.168046" cy="405.801988" r="3.749996" style="fill:rgb(0,127,0);stroke-width:1" /><circle cx="31.221919" cy="387.825716" r="3.749996" style="fill:rgb(0,127,0);stroke-width:1" /><circle cx="28.099716" cy="384.703553" r="3.749996" style="fill:rgb(0,127,0);stroke-width:1" /><circle cx="24.977535" cy="381.581390" r="3.749996" style="fill:rgb(0,127,0);stroke-width:1" /><circle cx="24.780862" cy="381.384730" r="3.749996" style="fill:rgb(0,127,0);stroke-width:1" /><circle cx="21.683246" cy="378.287101" r="3.749996" style="fill:rgb(0,127,0);stroke-width:1" /><circle cx="19.271180" cy="332.457734" r="3.749996" style="fill:rgb(0,127,0);stroke-width:1" /><circle cx="18.439874" cy="316.662921" r="3.749996" style="fill:rgb(0,127,0);stroke-width:1" /><circle cx="17.811254" cy="304.718938" r="3.749996" style="fill:rgb(0,127,0);stroke-width:1" /><circle cx="15.800290" cy="266.510904" r="3.749996" style="fill:rgb(0,127,0);stroke-width:1" /><circle cx="13.116226" cy="215.513639" r="3.749996" style="fill:rgb(0,127,0);stroke-width:1" /><circle cx="12.539126" cy="204.548445" r="3.749996" style="fill:rgb(0,127,0);stroke-width:1" /><circle cx="12.439594" cy="202.657588" r="3.749996" style="fill:rgb(0,127,0);stroke-width:1" /><circle cx="11.919312" cy="192.772117" r="3.749996" style="fill:rgb(0,127,0);stroke-width:1" /><circle cx="11.610299" cy="186.900750" r="3.749996" style="fill:rgb(0,127,0);stroke-width:1" /><circle cx="11.440806" cy="183.680400" r="3.749996" style="fill:rgb(0,127,0);stroke-width:1" /><circle cx="11.357903" cy="182.105228" r="3.749996" style="fill:rgb(0,127,0);stroke-width:1" /><circle cx="11.076964" cy="176.767454" r="3.749996" style="fill:rgb(0,127,0);stroke-width:1" /><circle cx="9.738497" cy="175.428987" r="3.749996" style="fill:rgb(0,127,0);stroke-width:1" /><circle cx="6.752014" cy="118.686028" r="3.749996" style="fill:rgb(0,127,0);stroke-width:1" /><circle cx="3.623173" cy="68.840571" r="3.750008" style="fill:rgb(0,127,0);stroke-width:1" /><circle cx="750.000000" cy="750.000000" r="3.749996" style="fill:rgb(0,127,0);stroke-width:1" /><path stroke-linejoin="round" stroke-linecap="round" stroke="rgb(255,255,255)" stroke-width="3.749996" fill="none" d="M 0.000000 750.000000 L 750.000000 750.000000 M 0.000000 750.000000 L 0.000000 0.000000 " />

</svg>