<svg xmlns="http://www.w3.org/2000/svg" version="1.1" width = "750" height = "750" viewBox = "0 0 750 750"  shape-rendering="crispEdges">
<path stroke-linejoin="round" stroke-linecap="round" stroke="rgb(255,255,0)" stroke-width="3.749996" fill="none" d="M 124.999992 750.000000 L 0.000000 0.000000 " />
<path stroke-linejoin="round" stroke-linecap="round" stroke="rgb(63,63,63)" stroke-width="3.749996" fill="none" d="M 0.000000 0.000000 L 750.000000 750.000000 M 124.999992 750.000000 L 56.818172 0.000000 " />
<path stroke-linejoin="round" stroke-linecap="round" stroke="rgb(191,191,191)" stroke-width="3.749996" fill="none" d="M 0.000000 625.000000 L 124.999992 750.000000 M 0.000000 0.000000 L 68.181824 750.000000 " />
<path stroke-linejoin="round" stroke-linecap="round" stroke="rgb(0,0,255)" stroke-width="1.874998" fill="none" d="M 0.000000 750.000000 L 750.000000 731.707336 " />
<path stroke-linejoin="round" stroke-linecap="round" stroke="rgb(255,0,0)" stroke-width="3.749996" fill="none" d="M 124.723457 746.957947 L 124.999992 750.000000 " />
<path stroke-linejoin="round" stroke-linecap="round" stroke="rgb(0,0,255)" stroke-width="1.874998" fill="none" d="M 0.000000 750.000000 L 750.000000 712.500000 " />
<path stroke-linejoin="round" stroke-linecap="round" stroke="rgb(255,0,0)" stroke-width="3.749996" fill="none" d="M 123.823685 743.808838 L 124.723457 746.957947 " />
<path stroke-linejoin="round" stroke-linecap="round" stroke="rgb(0,0,255)" stroke-width="1.874998" fill="none" d="M 0.000000 750.000000 L 750.000000 530.487854 " />
<path stroke-linejoin="round" stroke-linecap="round" stroke="rgb(255,0,0)" stroke-width="3.749996" fill="none" d="M 120.406105 714.759155 L 123.823685 743.808838 " />
<path stroke-linejoin="round" stroke-linecap="round" stroke="rgb(0,0,255)" stroke-width="1.874998" fill="none" d="M 0.000000 750.000000 L 750.000000 493.902405 " />
<path stroke-linejoin="round" stroke-linecap="round" stroke="rgb(255,0,0)" stroke-width="3.749996" fill="none" d="M 119.741791 709.112610 L 120.406105 714.759155 " />
<path stroke-linejoin="round" stroke-linecap="round" stroke="rgb(0,0,255)" stroke-width="1.874998" fill="none" d="M 0.000000 750.000000 L 750.000000 453.947327 " />
<path stroke-linejoin="round" stroke-linecap="round" stroke="rgb(255,0,0)" stroke-width="3.749996" fill="none" d="M 119.024612 703.016602 L 119.741791 709.112610 " />
<path stroke-linejoin="round" stroke-linecap="round" stroke="rgb(0,0,255)" stroke-width="1.874998" fill="none" d="M 0.000000 750.000000 L 750.000000 243.243225 " />
<path stroke-linejoin="round" stroke-linecap="round" stroke="rgb(255,0,0)" stroke-width="3.749996" fill="none" d="M 115.380341 672.040283 L 119.024612 703.016602 " />
<path stroke-linejoin="round" stroke-linecap="round" stroke="rgb(0,0,255)" stroke-width="1.874998" fill="none" d="M 0.000000 750.000000 L 750.000000 236.842102 " />
<path stroke-linejoin="round" stroke-linecap="round" stroke="rgb(255,0,0)" stroke-width="3.749996" fill="none" d="M 115.273117 671.128906 L 115.380363 672.040283 " />
<path stroke-linejoin="round" stroke-linecap="round" stroke="rgb(0,0,255)" stroke-width="1.874998" fill="none" d="M 0.000000 750.000000 L 750.000000 166.666656 " />
<path stroke-linejoin="round" stroke-linecap="round" stroke="rgb(255,0,0)" stroke-width="3.749996" fill="none" d="M 114.110580 661.247314 L 115.273117 671.128906 " />
<path stroke-linejoin="round" stroke-linecap="round" stroke="rgb(0,0,255)" stroke-width="1.874998" fill="none" d="M 0.000000 750.000000 L 750.000000 125.000015 " />
<path stroke-linejoin="round" stroke-linecap="round" stroke="rgb(255,0,0)" stroke-width="3.749996" fill="none" d="M 113.431358 655.473877 L 114.110580 661.247314 " />
<path stroke-linejoin="round" stroke-linecap="round" stroke="rgb(0,0,255)" stroke-width="1.874998" fill="none" d="M 0.000000 750.000000 L 750.000000 85.714279 " />
<path stroke-linejoin="round" stroke-linecap="round" stroke="rgb(255,0,0)" stroke-width="3.749996" fill="none" d="M 112.798309 650.092896 L 113.431358 655.473877 " />
<path stroke-linejoin="round" stroke-linecap="round" stroke="rgb(0,0,255)" stroke-width="1.874998" fill="none" d="M 0.000000 750.000000 L 750.000000 0.000000 " />
<path stroke-linejoin="round" stroke-linecap="round" stroke="rgb(255,0,0)" stroke-width="3.749996" fill="none" d="M 111.441338 638.558716 L 112.798309 650.092896 " />
<path stroke-linejoin="round" stroke-linecap="round" stroke="rgb(0,0,255)" stroke-width="1.874998" fill="none" d="M 0.000000 750.000000 L 705.882385 0.000000 " />
<path stroke-linejoin="round" stroke-linecap="round" stroke="rgb(255,0,0)" stroke-width="3.749996" fill="none" d="M 110.712959 632.367493 L 111.441338 638.558716 " />
<path stroke-linejoin="round" stroke-linecap="round" stroke="rgb(0,0,255)" stroke-width="1.874998" fill="none" d="M 0.000000 750.000000 L 528.409119 0.000000 " />
<path stroke-linejoin="round" stroke-linecap="round" stroke="rgb(255,0,0)" stroke-width="3.749996" fill="none" d="M 106.729988 598.512329 L 110.712959 632.367493 " />
<path stroke-linejoin="round" stroke-linecap="round" stroke="rgb(0,0,255)" stroke-width="1.874998" fill="none" d="M 0.000000 750.000000 L 472.826050 0.000000 " />
<path stroke-linejoin="round" stroke-linecap="round" stroke="rgb(255,0,0)" stroke-width="3.749996" fill="none" d="M 104.964409 583.504761 L 106.729988 598.512329 " />
<path stroke-linejoin="round" stroke-linecap="round" stroke="rgb(0,0,255)" stroke-width="1.874998" fill="none" d="M 0.000000 750.000000 L 453.124969 0.000000 " />
<path stroke-linejoin="round" stroke-linecap="round" stroke="rgb(255,0,0)" stroke-width="3.749996" fill="none" d="M 104.251564 577.445740 L 104.964409 583.504761 " />
<path stroke-linejoin="round" stroke-linecap="round" stroke="rgb(0,0,255)" stroke-width="1.874998" fill="none" d="M 0.000000 750.000000 L 405.000031 0.000000 " />
<path stroke-linejoin="round" stroke-linecap="round" stroke="rgb(255,0,0)" stroke-width="3.749996" fill="none" d="M 102.270844 560.609558 L 104.251564 577.445740 " />
<path stroke-linejoin="round" stroke-linecap="round" stroke="rgb(0,0,255)" stroke-width="1.874998" fill="none" d="M 0.000000 750.000000 L 382.352966 0.000000 " />
<path stroke-linejoin="round" stroke-linecap="round" stroke="rgb(255,0,0)" stroke-width="3.749996" fill="none" d="M 101.198563 551.495117 L 102.270844 560.609558 " />
<path stroke-linejoin="round" stroke-linecap="round" stroke="rgb(0,0,255)" stroke-width="1.874998" fill="none" d="M 0.000000 750.000000 L 307.377045 0.000000 " />
<path stroke-linejoin="round" stroke-linecap="round" stroke="rgb(255,0,0)" stroke-width="3.749996" fill="none" d="M 96.772629 513.874756 L 101.198563 551.495117 " />
<path stroke-linejoin="round" stroke-linecap="round" stroke="rgb(0,0,255)" stroke-width="1.874998" fill="none" d="M 0.000000 750.000000 L 304.687469 0.000000 " />
<path stroke-linejoin="round" stroke-linecap="round" stroke="rgb(255,0,0)" stroke-width="3.749996" fill="none" d="M 96.582481 512.258545 L 96.772629 513.874756 " />
<path stroke-linejoin="round" stroke-linecap="round" stroke="rgb(0,0,255)" stroke-width="1.874998" fill="none" d="M 0.000000 750.000000 L 288.461548 0.000000 " />
<path stroke-linejoin="round" stroke-linecap="round" stroke="rgb(255,0,0)" stroke-width="3.749996" fill="none" d="M 95.377701 502.017975 L 96.582481 512.258545 " />
<path stroke-linejoin="round" stroke-linecap="round" stroke="rgb(0,0,255)" stroke-width="1.874998" fill="none" d="M 0.000000 750.000000 L 274.647888 0.000000 " />
<path stroke-linejoin="round" stroke-linecap="round" stroke="rgb(255,0,0)" stroke-width="3.749996" fill="none" d="M 94.267151 492.578156 L 95.377701 502.017975 " />
<path stroke-linejoin="round" stroke-linecap="round" stroke="rgb(0,0,255)" stroke-width="1.874998" fill="none" d="M 0.000000 750.000000 L 260.416656 0.000000 " />
<path stroke-linejoin="round" stroke-linecap="round" stroke="rgb(255,0,0)" stroke-width="3.749996" fill="none" d="M 93.030991 482.070801 L 94.267151 492.578156 " />
<path stroke-linejoin="round" stroke-linecap="round" stroke="rgb(0,0,255)" stroke-width="1.874998" fill="none" d="M 0.000000 750.000000 L 246.575348 0.000000 " />
<path stroke-linejoin="round" stroke-linecap="round" stroke="rgb(255,0,0)" stroke-width="3.749996" fill="none" d="M 91.727882 470.994385 L 93.030991 482.070801 " />
<path stroke-linejoin="round" stroke-linecap="round" stroke="rgb(0,0,255)" stroke-width="1.874998" fill="none" d="M 0.000000 750.000000 L 220.588226 0.000000 " />
<path stroke-linejoin="round" stroke-linecap="round" stroke="rgb(255,0,0)" stroke-width="3.749996" fill="none" d="M 88.965767 447.516388 L 91.727882 470.994385 " />
<path stroke-linejoin="round" stroke-linecap="round" stroke="rgb(0,0,255)" stroke-width="1.874998" fill="none" d="M 0.000000 750.000000 L 206.521729 0.000000 " />
<path stroke-linejoin="round" stroke-linecap="round" stroke="rgb(255,0,0)" stroke-width="3.749996" fill="none" d="M 87.267502 433.081146 L 88.965767 447.516388 " />
<path stroke-linejoin="round" stroke-linecap="round" stroke="rgb(0,0,255)" stroke-width="1.874998" fill="none" d="M 0.000000 750.000000 L 170.886078 0.000000 " />
<path stroke-linejoin="round" stroke-linecap="round" stroke="rgb(255,0,0)" stroke-width="3.749996" fill="none" d="M 82.139946 389.496948 L 87.267525 433.081146 " />
<path stroke-linejoin="round" stroke-linecap="round" stroke="rgb(0,0,255)" stroke-width="1.874998" fill="none" d="M 0.000000 750.000000 L 166.666656 0.000000 " />
<path stroke-linejoin="round" stroke-linecap="round" stroke="rgb(255,0,0)" stroke-width="3.749996" fill="none" d="M 81.437904 383.529480 L 82.139946 389.496948 " />
<path stroke-linejoin="round" stroke-linecap="round" stroke="rgb(0,0,255)" stroke-width="1.874998" fill="none" d="M 0.000000 750.000000 L 155.487808 0.000000 " />
<path stroke-linejoin="round" stroke-linecap="round" stroke="rgb(255,0,0)" stroke-width="3.749996" fill="none" d="M 79.460373 366.720551 L 81.437904 383.529480 " />
<path stroke-linejoin="round" stroke-linecap="round" stroke="rgb(0,0,255)" stroke-width="1.874998" fill="none" d="M 0.000000 750.000000 L 148.255814 0.000000 " />
<path stroke-linejoin="round" stroke-linecap="round" stroke="rgb(255,0,0)" stroke-width="3.749996" fill="none" d="M 78.081451 354.999725 L 79.460373 366.720551 " />
<path stroke-linejoin="round" stroke-linecap="round" stroke="rgb(0,0,255)" stroke-width="1.874998" fill="none" d="M 0.000000 750.000000 L 144.578308 0.000000 " />
<path stroke-linejoin="round" stroke-linecap="round" stroke="rgb(255,0,0)" stroke-width="3.749996" fill="none" d="M 76.924927 350.951904 L 78.081451 354.999725 " />
<path stroke-linejoin="round" stroke-linecap="round" stroke="rgb(0,0,255)" stroke-width="1.874998" fill="none" d="M 0.000000 750.000000 L 133.928574 0.000000 " />
<path stroke-linejoin="round" stroke-linecap="round" stroke="rgb(255,0,0)" stroke-width="3.749996" fill="none" d="M 73.437943 338.747467 L 76.924927 350.951904 " />
<path stroke-linejoin="round" stroke-linecap="round" stroke="rgb(0,0,255)" stroke-width="1.874998" fill="none" d="M 0.000000 750.000000 L 111.702118 0.000000 " />
<path stroke-linejoin="round" stroke-linecap="round" stroke="rgb(255,0,0)" stroke-width="3.749996" fill="none" d="M 68.059402 293.029785 L 73.437943 338.747467 " />
<path stroke-linejoin="round" stroke-linecap="round" stroke="rgb(0,0,255)" stroke-width="1.874998" fill="none" d="M 0.000000 750.000000 L 102.631577 0.000000 " />
<path stroke-linejoin="round" stroke-linecap="round" stroke="rgb(255,0,0)" stroke-width="3.749996" fill="none" d="M 64.322525 279.950775 L 68.059402 293.029785 " />
<path stroke-linejoin="round" stroke-linecap="round" stroke="rgb(0,0,255)" stroke-width="1.874998" fill="none" d="M 0.000000 750.000000 L 93.750000 0.000000 " />
<path stroke-linejoin="round" stroke-linecap="round" stroke="rgb(255,0,0)" stroke-width="3.749996" fill="none" d="M 60.450287 266.397797 L 64.322525 279.950775 " />
<path stroke-linejoin="round" stroke-linecap="round" stroke="rgb(0,0,255)" stroke-width="1.874998" fill="none" d="M 0.000000 750.000000 L 91.836739 0.000000 " />
<path stroke-linejoin="round" stroke-linecap="round" stroke="rgb(255,0,0)" stroke-width="3.749996" fill="none" d="M 59.586704 263.375275 L 60.450287 266.397797 " />
<path stroke-linejoin="round" stroke-linecap="round" stroke="rgb(0,0,255)" stroke-width="1.874998" fill="none" d="M 0.000000 750.000000 L 90.277771 0.000000 " />
<path stroke-linejoin="round" stroke-linecap="round" stroke="rgb(255,0,0)" stroke-width="3.749996" fill="none" d="M 59.086739 259.125580 L 59.586704 263.375275 " />
<path stroke-linejoin="round" stroke-linecap="round" stroke="rgb(0,0,255)" stroke-width="1.874998" fill="none" d="M 0.000000 750.000000 L 90.000000 0.000000 " />
<path stroke-linejoin="round" stroke-linecap="round" stroke="rgb(255,0,0)" stroke-width="3.749996" fill="none" d="M 58.958710 258.677460 L 59.086739 259.125519 " />
<path stroke-linejoin="round" stroke-linecap="round" stroke="rgb(0,0,255)" stroke-width="1.874998" fill="none" d="M 0.000000 750.000000 L 88.235291 0.000000 " />
<path stroke-linejoin="round" stroke-linecap="round" stroke="rgb(255,0,0)" stroke-width="3.749996" fill="none" d="M 58.139832 255.811478 L 58.958710 258.677460 " />
<path stroke-linejoin="round" stroke-linecap="round" stroke="rgb(0,0,255)" stroke-width="1.874998" fill="none" d="M 0.000000 750.000000 L 87.053574 0.000000 " />
<path stroke-linejoin="round" stroke-linecap="round" stroke="rgb(255,0,0)" stroke-width="3.749996" fill="none" d="M 57.747871 252.479874 L 58.139832 255.811478 " />
<path stroke-linejoin="round" stroke-linecap="round" stroke="rgb(0,0,255)" stroke-width="1.874998" fill="none" d="M 0.000000 750.000000 L 86.538460 0.000000 " />
<path stroke-linejoin="round" stroke-linecap="round" stroke="rgb(255,0,0)" stroke-width="3.749996" fill="none" d="M 57.504459 251.627914 L 57.747871 252.479828 " />
<path stroke-linejoin="round" stroke-linecap="round" stroke="rgb(0,0,255)" stroke-width="1.874998" fill="none" d="M 0.000000 750.000000 L 85.526306 0.000000 " />
<path stroke-linejoin="round" stroke-linecap="round" stroke="rgb(255,0,0)" stroke-width="3.749996" fill="none" d="M 57.162949 248.724945 L 57.504459 251.627914 " />
<path stroke-linejoin="round" stroke-linecap="round" stroke="rgb(0,0,255)" stroke-width="1.874998" fill="none" d="M 0.000000 750.000000 L 84.905663 0.000000 " />
<path stroke-linejoin="round" stroke-linecap="round" stroke="rgb(255,0,0)" stroke-width="3.749996" fill="none" d="M 56.865849 247.685059 L 57.162949 248.724945 " />
<path stroke-linejoin="round" stroke-linecap="round" stroke="rgb(0,0,255)" stroke-width="1.874998" fill="none" d="M 0.000000 750.000000 L 76.271187 0.000000 " />
<path stroke-linejoin="round" stroke-linecap="round" stroke="rgb(255,0,0)" stroke-width="3.749996" fill="none" d="M 53.764076 221.320023 L 56.865849 247.685059 " />
<path stroke-linejoin="round" stroke-linecap="round" stroke="rgb(0,0,255)" stroke-width="1.874998" fill="none" d="M 0.000000 750.000000 L 69.327728 0.000000 " />
<path stroke-linejoin="round" stroke-linecap="round" stroke="rgb(255,0,0)" stroke-width="3.749996" fill="none" d="M 50.066002 208.376846 L 53.764076 221.320023 " />
<path stroke-linejoin="round" stroke-linecap="round" stroke="rgb(0,0,255)" stroke-width="1.874998" fill="none" d="M 0.000000 750.000000 L 62.500008 0.000000 " />
<path stroke-linejoin="round" stroke-linecap="round" stroke="rgb(255,0,0)" stroke-width="3.749996" fill="none" d="M 46.248661 195.016083 L 50.066002 208.376846 " />
<path stroke-linejoin="round" stroke-linecap="round" stroke="rgb(0,0,255)" stroke-width="1.874998" fill="none" d="M 0.000000 750.000000 L 61.475403 0.000000 " />
<path stroke-linejoin="round" stroke-linecap="round" stroke="rgb(255,0,0)" stroke-width="3.749996" fill="none" d="M 45.659512 192.954056 L 46.248661 195.016083 " />
<path stroke-linejoin="round" stroke-linecap="round" stroke="rgb(0,0,255)" stroke-width="1.874998" fill="none" d="M 0.000000 750.000000 L 57.692303 0.000000 " />
<path stroke-linejoin="round" stroke-linecap="round" stroke="rgb(255,0,0)" stroke-width="3.749996" fill="none" d="M 43.960556 178.512924 L 45.659512 192.954132 " />
<path stroke-linejoin="round" stroke-linecap="round" stroke="rgb(0,0,255)" stroke-width="1.874998" fill="none" d="M 0.000000 750.000000 L 55.327869 0.000000 " />
<path stroke-linejoin="round" stroke-linecap="round" stroke="rgb(255,0,0)" stroke-width="3.749996" fill="none" d="M 42.528614 173.501190 L 43.960556 178.512924 " />
<path stroke-linejoin="round" stroke-linecap="round" stroke="rgb(0,0,255)" stroke-width="1.874998" fill="none" d="M 0.000000 750.000000 L 54.435478 0.000000 " />
<path stroke-linejoin="round" stroke-linecap="round" stroke="rgb(255,0,0)" stroke-width="3.749996" fill="none" d="M 41.981602 171.586746 L 42.528591 173.501190 " />
<path stroke-linejoin="round" stroke-linecap="round" stroke="rgb(0,0,255)" stroke-width="1.874998" fill="none" d="M 0.000000 750.000000 L 51.923073 0.000000 " />
<path stroke-linejoin="round" stroke-linecap="round" stroke="rgb(255,0,0)" stroke-width="3.749996" fill="none" d="M 40.761799 161.218399 L 41.981602 171.586807 " />
<path stroke-linejoin="round" stroke-linecap="round" stroke="rgb(0,0,255)" stroke-width="1.874998" fill="none" d="M 0.000000 750.000000 L 49.180313 0.000000 " />
<path stroke-linejoin="round" stroke-linecap="round" stroke="rgb(255,0,0)" stroke-width="3.749996" fill="none" d="M 39.010563 155.089020 L 40.761799 161.218399 " />
<path stroke-linejoin="round" stroke-linecap="round" stroke="rgb(0,0,255)" stroke-width="1.874998" fill="none" d="M 0.000000 750.000000 L 48.387096 0.000000 " />
<path stroke-linejoin="round" stroke-linecap="round" stroke="rgb(255,0,0)" stroke-width="3.749996" fill="none" d="M 38.497253 153.292419 L 39.010563 155.088974 " />
<path stroke-linejoin="round" stroke-linecap="round" stroke="rgb(0,0,255)" stroke-width="1.874998" fill="none" d="M 0.000000 750.000000 L 47.619045 0.000000 " />
<path stroke-linejoin="round" stroke-linecap="round" stroke="rgb(255,0,0)" stroke-width="3.749996" fill="none" d="M 37.997292 151.542480 L 38.497253 153.292358 " />
<path stroke-linejoin="round" stroke-linecap="round" stroke="rgb(0,0,255)" stroke-width="1.874998" fill="none" d="M 0.000000 750.000000 L 45.801537 0.000000 " />
<path stroke-linejoin="round" stroke-linecap="round" stroke="rgb(255,0,0)" stroke-width="3.749996" fill="none" d="M 36.802410 147.360458 L 37.997292 151.542480 " />
<path stroke-linejoin="round" stroke-linecap="round" stroke="rgb(0,0,255)" stroke-width="1.874998" fill="none" d="M 0.000000 750.000000 L 39.772736 0.000000 " />
<path stroke-linejoin="round" stroke-linecap="round" stroke="rgb(255,0,0)" stroke-width="3.749996" fill="none" d="M 32.716515 133.059814 L 36.802410 147.360458 " />
<path stroke-linejoin="round" stroke-linecap="round" stroke="rgb(0,0,255)" stroke-width="1.874998" fill="none" d="M 0.000000 750.000000 L 39.179115 0.000000 " />
<path stroke-linejoin="round" stroke-linecap="round" stroke="rgb(255,0,0)" stroke-width="3.749996" fill="none" d="M 32.303699 131.614929 L 32.716515 133.059814 " />
<path stroke-linejoin="round" stroke-linecap="round" stroke="rgb(0,0,255)" stroke-width="1.874998" fill="none" d="M 0.000000 750.000000 L 38.602932 0.000000 " />
<path stroke-linejoin="round" stroke-linecap="round" stroke="rgb(255,0,0)" stroke-width="3.749996" fill="none" d="M 31.901165 130.206055 L 32.303699 131.614929 " />
<path stroke-linejoin="round" stroke-linecap="round" stroke="rgb(0,0,255)" stroke-width="1.874998" fill="none" d="M 0.000000 750.000000 L 33.333332 0.000000 " />
<path stroke-linejoin="round" stroke-linecap="round" stroke="rgb(255,0,0)" stroke-width="3.749996" fill="none" d="M 28.132618 117.016083 L 31.901165 130.206055 " />
<path stroke-linejoin="round" stroke-linecap="round" stroke="rgb(0,0,255)" stroke-width="1.874998" fill="none" d="M 0.000000 750.000000 L 27.573534 0.000000 " />
<path stroke-linejoin="round" stroke-linecap="round" stroke="rgb(255,0,0)" stroke-width="3.749996" fill="none" d="M 23.825661 101.941826 L 28.132618 117.016083 " />
<path stroke-linejoin="round" stroke-linecap="round" stroke="rgb(0,0,255)" stroke-width="1.874998" fill="none" d="M 0.000000 750.000000 L 21.897800 0.000000 " />
<path stroke-linejoin="round" stroke-linecap="round" stroke="rgb(255,0,0)" stroke-width="3.749996" fill="none" d="M 19.376099 86.368317 L 23.825661 101.941826 " />
<path stroke-linejoin="round" stroke-linecap="round" stroke="rgb(0,0,255)" stroke-width="1.874998" fill="none" d="M 0.000000 750.000000 L 21.582729 0.000000 " />
<path stroke-linejoin="round" stroke-linecap="round" stroke="rgb(255,0,0)" stroke-width="3.749996" fill="none" d="M 19.122831 85.481888 L 19.376099 86.368317 " />
<path stroke-linejoin="round" stroke-linecap="round" stroke="rgb(0,0,255)" stroke-width="1.874998" fill="none" d="M 0.000000 750.000000 L 21.276600 0.000000 " />
<path stroke-linejoin="round" stroke-linecap="round" stroke="rgb(255,0,0)" stroke-width="3.749996" fill="none" d="M 18.876068 84.618263 L 19.122831 85.481888 " />
<path stroke-linejoin="round" stroke-linecap="round" stroke="rgb(0,0,255)" stroke-width="1.874998" fill="none" d="M 0.000000 750.000000 L 20.979033 0.000000 " />
<path stroke-linejoin="round" stroke-linecap="round" stroke="rgb(255,0,0)" stroke-width="3.749996" fill="none" d="M 18.635609 83.776649 L 18.876068 84.618263 " />
<path stroke-linejoin="round" stroke-linecap="round" stroke="rgb(0,0,255)" stroke-width="1.874998" fill="none" d="M 0.000000 750.000000 L 20.134226 0.000000 " />
<path stroke-linejoin="round" stroke-linecap="round" stroke="rgb(255,0,0)" stroke-width="3.749996" fill="none" d="M 18.024624 78.583115 L 18.635609 83.776649 " />
<path stroke-linejoin="round" stroke-linecap="round" stroke="rgb(0,0,255)" stroke-width="1.874998" fill="none" d="M 0.000000 750.000000 L 19.867546 0.000000 " />
<path stroke-linejoin="round" stroke-linecap="round" stroke="rgb(255,0,0)" stroke-width="3.749996" fill="none" d="M 17.806135 77.818390 L 18.024624 78.583069 " />
<path stroke-linejoin="round" stroke-linecap="round" stroke="rgb(0,0,255)" stroke-width="1.874998" fill="none" d="M 0.000000 750.000000 L 19.736834 0.000000 " />
<path stroke-linejoin="round" stroke-linecap="round" stroke="rgb(255,0,0)" stroke-width="3.749996" fill="none" d="M 17.698870 77.442886 L 17.806135 77.818390 " />
<path stroke-linejoin="round" stroke-linecap="round" stroke="rgb(0,0,255)" stroke-width="1.874998" fill="none" d="M 0.000000 750.000000 L 19.480526 0.000000 " />
<path stroke-linejoin="round" stroke-linecap="round" stroke="rgb(255,0,0)" stroke-width="3.749996" fill="none" d="M 17.488182 76.705460 L 17.698870 77.442886 " />
<path stroke-linejoin="round" stroke-linecap="round" stroke="rgb(0,0,255)" stroke-width="1.874998" fill="none" d="M 0.000000 750.000000 L 19.354843 0.000000 " />
<path stroke-linejoin="round" stroke-linecap="round" stroke="rgb(255,0,0)" stroke-width="3.749996" fill="none" d="M 17.395645 75.918968 L 17.488159 76.705521 " />
<path stroke-linejoin="round" stroke-linecap="round" stroke="rgb(0,0,255)" stroke-width="1.874998" fill="none" d="M 0.000000 750.000000 L 15.410967 0.000000 " />
<path stroke-linejoin="round" stroke-linecap="round" stroke="rgb(255,0,0)" stroke-width="3.749996" fill="none" d="M 14.088795 64.345055 L 17.395645 75.918968 " />
<path stroke-linejoin="round" stroke-linecap="round" stroke="rgb(0,0,255)" stroke-width="1.874998" fill="none" d="M 0.000000 750.000000 L 10.204084 0.000000 " />
<path stroke-linejoin="round" stroke-linecap="round" stroke="rgb(255,0,0)" stroke-width="3.749996" fill="none" d="M 9.544998 48.441769 L 14.088795 64.345055 " />
<path stroke-linejoin="round" stroke-linecap="round" stroke="rgb(0,0,255)" stroke-width="1.874998" fill="none" d="M 0.000000 750.000000 L 5.067564 0.000000 " />
<path stroke-linejoin="round" stroke-linecap="round" stroke="rgb(255,0,0)" stroke-width="3.749996" fill="none" d="M 4.840560 33.597103 L 9.544998 48.441769 " />
<path stroke-linejoin="round" stroke-linecap="round" stroke="rgb(0,0,255)" stroke-width="1.874998" fill="none" d="M 0.000000 750.000000 L 0.000000 0.000000 " />
<path stroke-linejoin="round" stroke-linecap="round" stroke="rgb(255,0,0)" stroke-width="3.749996" fill="none" d="M 0.000000 0.000000 L 4.840560 33.597172 " />
<circle cx="124.723457" cy="746.957973" r="3.749996" style="fill:rgb(0,127,0);stroke-width:1" /><circle cx="123.823687" cy="743.808813" r="3.749996" style="fill:rgb(0,127,0);stroke-width:1" /><circle cx="120.406106" cy="714.759193" r="3.749996" style="fill:rgb(0,127,0);stroke-width:1" /><circle cx="119.741790" cy="709.112562" r="3.749996" style="fill:rgb(0,127,0);stroke-width:1" /><circle cx="119.024612" cy="703.016594" r="3.749996" style="fill:rgb(0,127,0);stroke-width:1" /><circle cx="115.380339" cy="672.040299" r="3.749996" style="fill:rgb(0,127,0);stroke-width:1" /><circle cx="115.273118" cy="671.128906" r="3.749996" style="fill:rgb(0,127,0);stroke-width:1" /><circle cx="114.110582" cy="661.247313" r="3.749996" style="fill:rgb(0,127,0);stroke-width:1" /><circle cx="113.431357" cy="655.473858" r="3.749996" style="fill:rgb(0,127,0);stroke-width:1" /><circle cx="112.798311" cy="650.092922" r="3.749996" style="fill:rgb(0,127,0);stroke-width:1" /><circle cx="111.441337" cy="638.558663" r="3.749996" style="fill:rgb(0,127,0);stroke-width:1" /><circle cx="110.712960" cy="632.367477" r="3.749996" style="fill:rgb(0,127,0);stroke-width:1" /><circle cx="106.729992" cy="598.512299" r="3.749996" style="fill:rgb(0,127,0);stroke-width:1" /><circle cx="104.964405" cy="583.504759" r="3.749996" style="fill:rgb(0,127,0);stroke-width:1" /><circle cx="104.251564" cy="577.445693" r="3.749996" style="fill:rgb(0,127,0);stroke-width:1" /><circle cx="102.270842" cy="560.609557" r="3.749996" style="fill:rgb(0,127,0);stroke-width:1" /><circle cx="101.198561" cy="551.495131" r="3.749996" style="fill:rgb(0,127,0);stroke-width:1" /><circle cx="96.772626" cy="513.874769" r="3.749996" style="fill:rgb(0,127,0);stroke-width:1" /><circle cx="96.582480" cy="512.258504" r="3.749996" style="fill:rgb(0,127,0);stroke-width:1" /><circle cx="95.377699" cy="502.017975" r="3.749996" style="fill:rgb(0,127,0);stroke-width:1" /><circle cx="94.267152" cy="492.578175" r="3.749996" style="fill:rgb(0,127,0);stroke-width:1" /><circle cx="93.030989" cy="482.070778" r="3.749996" style="fill:rgb(0,127,0);stroke-width:1" /><circle cx="91.727883" cy="470.994383" r="3.749996" style="fill:rgb(0,127,0);stroke-width:1" /><circle cx="88.965766" cy="447.516382" r="3.749996" style="fill:rgb(0,127,0);stroke-width:1" /><circle cx="87.267503" cy="433.081152" r="3.749996" style="fill:rgb(0,127,0);stroke-width:1" /><circle cx="82.139947" cy="389.496953" r="3.749996" style="fill:rgb(0,127,0);stroke-width:1" /><circle cx="81.437901" cy="383.529484" r="3.749996" style="fill:rgb(0,127,0);stroke-width:1" /><circle cx="79.460375" cy="366.720557" r="3.749996" style="fill:rgb(0,127,0);stroke-width:1" /><circle cx="78.081451" cy="354.999722" r="3.749996" style="fill:rgb(0,127,0);stroke-width:1" /><circle cx="76.924928" cy="350.951909" r="3.749996" style="fill:rgb(0,127,0);stroke-width:1" /><circle cx="73.437944" cy="338.747473" r="3.749996" style="fill:rgb(0,127,0);stroke-width:1" /><circle cx="68.059400" cy="293.029787" r="3.749996" style="fill:rgb(0,127,0);stroke-width:1" /><circle cx="64.322524" cy="279.950771" r="3.749996" style="fill:rgb(0,127,0);stroke-width:1" /><circle cx="60.450286" cy="266.397804" r="3.749996" style="fill:rgb(0,127,0);stroke-width:1" /><circle cx="59.586704" cy="263.375256" r="3.749996" style="fill:rgb(0,127,0);stroke-width:1" /><circle cx="59.086740" cy="259.125564" r="3.749996" style="fill:rgb(0,127,0);stroke-width:1" /><circle cx="58.958709" cy="258.677479" r="3.749996" style="fill:rgb(0,127,0);stroke-width:1" /><circle cx="58.139831" cy="255.811483" r="3.749996" style="fill:rgb(0,127,0);stroke-width:1" /><circle cx="57.747871" cy="252.479855" r="3.749996" style="fill:rgb(0,127,0);stroke-width:1" /><circle cx="57.504460" cy="251.627918" r="3.749996" style="fill:rgb(0,127,0);stroke-width:1" /><circle cx="57.162948" cy="248.724941" r="3.749996" style="fill:rgb(0,127,0);stroke-width:1" /><circle cx="56.865849" cy="247.685071" r="3.749996" style="fill:rgb(0,127,0);stroke-width:1" /><circle cx="53.764075" cy="221.320029" r="3.749996" style="fill:rgb(0,127,0);stroke-width:1" /><circle cx="50.066002" cy="208.376829" r="3.749996" style="fill:rgb(0,127,0);stroke-width:1" /><circle cx="46.248659" cy="195.016086" r="3.749996" style="fill:rgb(0,127,0);stroke-width:1" /><circle cx="45.659512" cy="192.954060" r="3.749996" style="fill:rgb(0,127,0);stroke-width:1" /><circle cx="43.960556" cy="178.512923" r="3.749996" style="fill:rgb(0,127,0);stroke-width:1" /><circle cx="42.528614" cy="173.501194" r="3.749996" style="fill:rgb(0,127,0);stroke-width:1" /><circle cx="41.981600" cy="171.586744" r="3.749996" style="fill:rgb(0,127,0);stroke-width:1" /><circle cx="40.761799" cy="161.218397" r="3.749996" style="fill:rgb(0,127,0);stroke-width:1" /><circle cx="39.010562" cy="155.089013" r="3.749996" style="fill:rgb(0,127,0);stroke-width:1" /><circle cx="38.497254" cy="153.292425" r="3.749996" style="fill:rgb(0,127,0);stroke-width:1" /><circle cx="37.997290" cy="151.542485" r="3.749996" style="fill:rgb(0,127,0);stroke-width:1" /><circle cx="36.802411" cy="147.360452" r="3.749996" style="fill:rgb(0,127,0);stroke-width:1" /><circle cx="32.716513" cy="133.059807" r="3.749996" style="fill:rgb(0,127,0);stroke-width:1" /><circle cx="32.303698" cy="131.614923" r="3.749996" style="fill:rgb(0,127,0);stroke-width:1" /><circle cx="31.901166" cy="130.206048" r="3.749996" style="fill:rgb(0,127,0);stroke-width:1" /><circle cx="28.132617" cy="117.016084" r="3.749996" style="fill:rgb(0,127,0);stroke-width:1" /><circle cx="23.825660" cy="101.941824" r="3.749996" style="fill:rgb(0,127,0);stroke-width:1" /><circle cx="19.376099" cy="86.368315" r="3.749996" style="fill:rgb(0,127,0);stroke-width:1" /><circle cx="19.122832" cy="85.481890" r="3.749996" style="fill:rgb(0,127,0);stroke-width:1" /><circle cx="18.876068" cy="84.618263" r="3.749996" style="fill:rgb(0,127,0);stroke-width:1" /><circle cx="18.635608" cy="83.776653" r="3.749996" style="fill:rgb(0,127,0);stroke-width:1" /><circle cx="18.024623" cy="78.583114" r="3.749996" style="fill:rgb(0,127,0);stroke-width:1" /><circle cx="17.806135" cy="77.818394" r="3.749996" style="fill:rgb(0,127,0);stroke-width:1" /><circle cx="17.698869" cy="77.442884" r="3.749996" style="fill:rgb(0,127,0);stroke-width:1" /><circle cx="17.488182" cy="76.705456" r="3.749996" style="fill:rgb(0,127,0);stroke-width:1" /><circle cx="17.395645" cy="75.918965" r="3.749996" style="fill:rgb(0,127,0);stroke-width:1" /><circle cx="14.088795" cy="64.345054" r="3.749996" style="fill:rgb(0,127,0);stroke-width:1" /><circle cx="9.544998" cy="48.441768" r="3.749996" style="fill:rgb(0,127,0);stroke-width:1" /><circle cx="4.840560" cy="33.597104" r="3.749996" style="fill:rgb(0,127,0);stroke-width:1" /><circle cx="750.000000" cy="750.000000" r="3.749996" style="fill:rgb(0,127,0);stroke-width:1" /><path stroke-linejoin="round" stroke-linecap="round" stroke="rgb(255,255,255)" stroke-width="3.749996" fill="none" d="M 0.000000 750.000000 L 750.000000 750.000000 M 0.000000 750.000000 L 0.000000 0.000000 " />

</svg>